<svg width="79" height="140" viewBox="0 0 79 140" fill="none" xmlns="http://www.w3.org/2000/svg">
<path d="M37.5828 105.201C35.3328 117.779 31.9974 136.451 31.9974 136.451L17.0938 140C17.1427 139.713 16.4548 130.846 25.5621 133.408C26.4211 128.168 27.1701 123.613 27.8335 119.629C27.4392 119.516 27.109 119.381 26.8369 119.186C25.7547 118.433 26.3325 117.177 27.8824 116.305C28.0567 116.208 28.2401 116.11 28.4358 116.033C29.1451 111.747 29.7229 108.234 30.1998 105.36C32.2175 104.785 34.4706 104.171 34.8161 104.299C35.7027 104.635 36.629 104.938 37.5828 105.198V105.201Z" fill="#1A1A1A"/>
<path d="M57.4736 137.246C57.4736 137.246 45.6118 136.58 45.3672 136.629C44.7497 135.351 43.4259 118.746 42.5088 106.211C44.7864 106.535 47.1618 106.682 49.5433 106.645C49.6503 109.173 49.7665 112.112 49.901 115.533C51.4693 116.037 51.6803 117.291 49.9988 118.462C50.1456 122.173 50.3076 126.402 50.491 131.208C52.6188 130.645 54.2911 130.682 54.4103 130.731C59.5035 130.976 57.4736 137.246 57.4736 137.246Z" fill="#1A1A1A"/>
<path d="M50.2321 98.4599C49.3333 98.4599 48.4559 97.9034 47.7191 96.818C45.5883 93.6781 44.7537 85.8788 47.6855 83.7356C47.6855 83.7356 47.6855 83.7356 47.6886 83.7356L55.3131 78.2628C57.0526 77.1499 58.2449 76.8106 58.9847 77.1988C59.4219 77.4282 59.587 77.8532 59.5962 78.1467C59.5962 78.1711 59.5962 78.1956 59.5962 78.2231C59.4525 79.5653 58.1318 81.201 56.8784 82.4728L61.7148 81.0817C64.5518 80.2379 66.4381 80.0942 67.3124 80.6629C67.6579 80.8861 67.7618 81.1612 67.7924 81.2927C68.0859 82.4148 67.0954 83.228 66.4625 83.5337C66.0743 83.7386 65.5118 83.9984 64.8606 84.2797C65.6249 84.1146 66.1507 84.0015 66.2241 83.9862C66.2516 83.9801 66.2822 83.977 66.3097 83.974C67.0648 83.9373 67.5998 84.133 67.8902 84.561C68.3029 85.1695 67.982 85.9124 67.9422 85.9949C67.6518 86.4933 66.6979 87.0589 65.4873 87.6123C66.2883 87.438 66.9486 87.4563 67.4347 87.6704C67.7863 87.8263 68.0584 88.1626 68.1409 88.5479C68.2143 88.8903 68.1287 89.2266 67.9086 89.4743C67.7924 89.6057 67.6243 89.7494 67.398 89.9145C66.9211 90.26 66.3708 90.5474 65.7594 90.7675L51.5742 98.044C51.1309 98.3222 50.6784 98.4629 50.2321 98.4629V98.4599ZM48.3214 84.6099C46.0866 86.2487 46.5788 93.2103 48.6149 96.2096C49.7674 97.9034 50.7274 97.3011 51.0422 97.1024L65.3008 89.786C65.3222 89.7738 65.3436 89.7647 65.3681 89.7586C65.8939 89.5721 66.3647 89.3305 66.7683 89.0401C66.9823 88.8841 67.074 88.7955 67.1107 88.7557C67.0984 88.7557 67.0556 88.6885 67.0067 88.664C66.8447 88.5937 66.4442 88.502 65.6035 88.7007L58.5598 90.0918C58.2785 90.1468 58.0003 89.9726 57.93 89.6913C57.8597 89.41 58.0248 89.1257 58.2999 89.0431C62.1153 87.9027 66.4778 86.2487 66.9761 85.5271C67.022 85.4048 67.0434 85.2337 67.0037 85.1725C66.97 85.1266 66.808 85.0502 66.4167 85.0563C65.8358 85.1816 59.7521 86.481 58.0768 86.9763C57.7986 87.0589 57.502 86.906 57.4103 86.6278C57.3186 86.3496 57.4623 86.05 57.7344 85.9491C57.7986 85.9246 64.1024 83.5674 65.9826 82.5676C66.007 82.5554 66.8661 82.1151 66.7591 81.5893C66.646 81.5037 65.7808 80.9992 62.0266 82.1182L55.4965 83.9954C55.1969 84.081 54.8882 83.9495 54.7384 83.6805C54.5916 83.4145 54.6497 83.0874 54.8759 82.8856C56.5237 81.4211 58.3305 79.4246 58.5201 78.1711C58.5109 78.1619 58.4956 78.1558 58.4834 78.1497C58.4253 78.1253 57.8566 77.9296 55.9306 79.1556L48.3305 84.6099H48.3214ZM66.7285 81.4884C66.7285 81.4884 66.7285 81.4884 66.7285 81.4914C66.7285 81.4914 66.7285 81.4914 66.7285 81.4884Z" fill="#1A1A1A"/>
<path d="M17.1242 97.191C16.9653 97.191 16.8124 97.1695 16.6657 97.1298C16.0451 96.9585 15.6415 96.4388 15.6048 95.7723C15.5498 94.69 15.932 93.409 16.6015 92.4275C16.7696 92.1799 17.1059 92.1188 17.3535 92.2839C17.6012 92.452 17.6654 92.7883 17.4972 93.036C16.9622 93.8217 16.6443 94.8735 16.6871 95.7173C16.6962 95.916 16.788 96.0414 16.9561 96.0872C17.1273 96.1361 17.3199 96.0964 17.4514 96.0536C17.699 95.9771 17.9466 95.8243 18.1912 95.6072C19.1206 94.7756 19.8665 93.6199 20.5911 92.5009C20.8998 92.024 21.2208 91.5287 21.548 91.0732C22.0646 90.3516 22.5813 89.63 23.0918 88.9024C23.1468 88.8259 23.2263 88.7281 23.318 88.6211C23.425 88.4958 23.6452 88.2359 23.6757 88.1319C23.7124 87.8354 23.9845 87.6397 24.2749 87.6703C24.5715 87.7069 24.7794 87.9882 24.7457 88.2848C24.6999 88.6608 24.4033 89.0094 24.1435 89.3182C24.0762 89.3977 24.0151 89.468 23.9753 89.523C23.4617 90.2507 22.9451 90.9753 22.4284 91.6999C22.1166 92.1371 21.817 92.5987 21.5021 93.0879C20.7409 94.265 19.9521 95.4849 18.9157 96.4144C18.555 96.7354 18.1728 96.9647 17.7785 97.087C17.5553 97.1573 17.3352 97.194 17.1242 97.194V97.191Z" fill="#1A1A1A"/>
<path d="M13.3013 96.1419C12.9497 96.1419 12.5982 96.0319 12.2955 95.8118C11.7605 95.4266 11.4945 94.7845 11.6046 94.1424C11.7941 93.0142 12.3138 91.7975 13.1454 90.5286C15.1264 87.5049 18.1836 85.2974 21.7574 84.3099C30.1524 81.9924 35.9426 87.5966 36.1872 87.8351C36.3981 88.046 36.4012 88.3854 36.1933 88.5994C35.9824 88.8134 35.6399 88.8134 35.429 88.6055C35.374 88.5505 29.8252 83.2092 22.0478 85.3525C18.7278 86.2666 15.8907 88.3181 14.0534 91.1187C13.3044 92.2622 12.8397 93.3383 12.6746 94.3198C12.6348 94.5582 12.7296 94.7875 12.9314 94.9312C13.1301 95.0749 13.3777 95.0963 13.5887 94.9832C13.8149 94.8639 14.0687 94.705 14.3377 94.5185C15.3955 93.7817 16.334 92.8186 17.1227 91.6599L20.1218 87.2633C20.29 87.0157 20.6263 86.9545 20.8739 87.1196C21.1215 87.2878 21.1857 87.6241 21.0176 87.8717L18.0185 92.2683C17.1533 93.5371 16.1231 94.5949 14.9552 95.4051C14.6495 95.6161 14.3621 95.7965 14.0962 95.9371C13.8455 96.0686 13.5734 96.1358 13.3044 96.1358L13.3013 96.1419Z" fill="#1A1A1A"/>
<path d="M22.4916 95.8607C22.0422 95.8607 21.6723 95.6436 21.443 95.2248C21.1373 94.8365 20.1468 93.106 22.8126 89.2966C22.9838 89.052 23.3201 88.9908 23.5677 89.162C23.8123 89.3333 23.8734 89.6696 23.7022 89.9172C21.3329 93.3048 22.2898 94.5491 22.3021 94.5613C22.3265 94.5919 22.3632 94.6439 22.3815 94.6805C22.4243 94.7631 22.458 94.8335 22.7515 94.7173C23.0939 94.5766 23.317 94.3076 23.4454 94.1027L25.2094 91.2991C25.3684 91.0454 25.7016 90.9689 25.9554 91.1279C26.2091 91.2869 26.2855 91.6201 26.1235 91.8739L24.3595 94.6775C24.0569 95.1606 23.6411 95.5214 23.1581 95.717C22.9227 95.8118 22.6995 95.8607 22.4916 95.8607Z" fill="#1A1A1A"/>
<path d="M25.6559 92.1281C25.4297 92.1281 25.2188 91.9844 25.1423 91.7582C25.0476 91.4738 25.2004 91.1681 25.4847 91.0733L47.8234 83.6561C48.1077 83.5644 48.4134 83.7172 48.5082 83.9985C48.603 84.2829 48.4501 84.5886 48.1658 84.6834L25.8271 92.1006C25.7721 92.1189 25.714 92.1281 25.6559 92.1281Z" fill="#1A1A1A"/>
<path d="M15.563 107.864C11.9709 107.864 9.01156 107.357 6.60252 106.329C3.0287 104.807 0.809194 102.333 0.182477 99.175C-0.624613 95.0842 1.28306 90.0976 5.16259 86.1567C9.36006 81.8947 15.8596 78.0822 22.9919 75.6944C30.485 73.1843 39.3813 71.6525 48.0362 71.3834C49.791 71.3284 51.5488 71.3253 53.2639 71.3742C58.1431 71.5149 65.0462 72.3527 70.2128 75.5476C75.1532 78.6019 77.8648 83.6925 77.4735 89.1652C77.0211 95.4634 72.7258 100.976 65.9817 103.908C56.7277 107.934 43.857 108.31 34.6672 104.828C34.1108 104.819 31.4113 105.583 29.7819 106.048C28.5376 106.4 27.5563 106.681 27.1374 106.754C25.1228 107.112 23.0653 107.326 21.0781 107.531L20.5523 107.586C18.77 107.772 17.11 107.867 15.5691 107.867L15.563 107.864ZM48.0698 72.4658C39.5189 72.7348 30.7327 74.2451 23.3374 76.7216C16.4649 79.0238 9.95927 82.8333 5.93605 86.918C2.35612 90.5501 0.51571 95.2768 1.24637 98.964C1.80583 101.795 3.75017 103.935 7.02745 105.333C10.2986 106.727 14.6856 107.109 20.4362 106.507L20.962 106.452C22.9308 106.247 24.9699 106.033 26.9479 105.684C27.3117 105.62 28.3664 105.32 29.4823 105.002C33.533 103.853 34.5633 103.63 35.0066 103.795C43.9579 107.204 56.5198 106.84 65.5506 102.911C71.9187 100.141 75.9725 94.9711 76.3943 89.0826C76.7581 84.0196 74.236 79.3021 69.6441 76.4618C64.6824 73.3922 57.9811 72.585 53.2333 72.4505C51.5427 72.4015 49.8062 72.4046 48.0728 72.4596L48.0698 72.4658Z" fill="#1A1A1A"/>
<path d="M44.1208 80.889L4.69882 67.1125L3.88867 26.6053L34.6162 0L70.0853 19.5886L78.4527 59.3681L44.1208 80.889Z" fill="#EFB5D4"/>
<path d="M26.4402 36.8749C25.9021 36.8749 25.3854 36.7924 24.8841 36.6273C22.0379 35.6917 20.7783 32.3776 20.4634 31.3839C20.3717 31.0996 20.5215 30.7816 20.8058 30.6868C21.0901 30.5951 21.3867 30.7326 21.4814 31.0139C21.4814 31.0139 21.4937 31.0506 21.4937 31.0537C21.7719 31.925 22.8633 34.8234 25.2234 35.6C26.7703 36.1075 28.6077 35.6 30.6866 34.0927C30.9281 33.9154 31.2674 33.9704 31.4417 34.212C31.6159 34.4535 31.564 34.7929 31.3224 34.9671C29.5737 36.236 27.9382 36.8719 26.4432 36.8719L26.4402 36.8749Z" fill="#1A1A1A"/>
<path d="M44.8041 38.48C44.529 38.48 44.263 38.4464 43.997 38.3822C41.8876 37.8593 41.0285 35.4348 40.9918 35.3309C40.894 35.0466 41.0438 34.7408 41.3281 34.643C41.6094 34.5452 41.9181 34.695 42.016 34.9763C42.0221 34.9946 42.7252 36.9544 44.263 37.3335C45.3575 37.5995 46.6629 37.0308 48.1486 35.6397C48.3657 35.4379 48.7112 35.4471 48.9129 35.6642C49.1178 35.8813 49.1055 36.2237 48.8885 36.4285C47.4302 37.7921 46.0606 38.48 44.8041 38.48Z" fill="#1A1A1A"/>
<path d="M37.3531 29.546L35.3066 29.4047L34.2084 45.311L36.2549 45.4523L37.3531 29.546Z" fill="#1A1A1A"/>
<path d="M38.0399 50.5388C37.881 51.6272 37.3123 52.6943 36.441 53.3791C35.5759 54.0609 34.4478 54.2566 33.4878 53.639C32.4392 52.9633 32.2527 51.7068 32.2833 50.5541L38.0399 50.5388Z" fill="#1A1A1A"/>
<path d="M32.7236 105.284C32.4882 105.284 32.2711 105.131 32.2039 104.893C32.1213 104.605 32.2864 104.306 32.5738 104.223C32.6991 104.187 45.2274 100.542 50.3726 97.3931C50.6294 97.2371 50.9595 97.3166 51.1154 97.5735C51.2714 97.8272 51.1919 98.1605 50.9351 98.3164C45.6645 101.539 33.39 105.113 32.8703 105.263C32.8214 105.278 32.7694 105.284 32.7205 105.284H32.7236Z" fill="#1A1A1A"/>
</svg>
