<svg width="187" height="177" viewBox="0 0 187 177" fill="none" xmlns="http://www.w3.org/2000/svg">
<path d="M81.1657 110.098C92.1193 110.098 101.945 106.393 102.433 106.209C102.797 106.069 102.981 105.661 102.841 105.297L99.9725 97.7838C99.8325 97.4198 99.4244 97.2357 99.0563 97.3757C98.9363 97.4197 87.0107 101.888 76.3331 100.308C70.8803 99.5001 66.2076 95.5075 64.1353 89.8786C61.7629 83.4257 63.7152 77.3688 66.1116 71.2159C67.4918 67.6754 69.172 64.2949 71.1123 61.1664C71.3203 60.8344 71.2163 60.3983 70.8842 60.1903C70.5522 59.9823 70.1161 60.0863 69.9081 60.4183C67.9238 63.6188 66.2036 67.0793 64.7913 70.6998C62.291 77.1128 60.2587 83.4457 62.8031 90.3667C65.0514 96.4796 70.1562 100.824 76.121 101.708C85.7385 103.129 96.184 99.8641 98.8883 98.936L101.253 105.133C98.3283 106.161 86.4986 109.942 75.1489 108.265C64.5474 106.697 55.634 96.9557 54.8619 86.0861C54.4378 80.1252 56.2981 73.8883 58.1744 68.5715C60.1907 62.8507 63.0391 57.5419 66.6317 52.7812C66.8677 52.4691 66.8076 52.0251 66.4916 51.7891C66.1796 51.553 65.7355 51.613 65.4995 51.9291C61.8149 56.8018 58.9025 62.2426 56.8342 68.0995C54.9099 73.5523 53.0017 79.9652 53.4457 86.1861C54.2659 97.6918 63.7032 108.005 74.9369 109.666C77.0092 109.974 79.1015 110.102 81.1498 110.102L81.1657 110.098Z" fill="#1A1A1A"/>
<path d="M84.302 42.9676C91.7751 46.3161 102.853 41.4074 109.67 30.9058C117.395 19.0081 116.659 4.91003 107.157 0.969449C97.7679 -2.92312 85.1341 5.35007 79.5333 17.8519C74.5766 28.9135 76.9049 39.6511 84.306 42.9676H84.302Z" fill="#E47249"/>
<path d="M85.0588 34.9665C84.8668 35.1145 80.3582 40.5473 75.5055 46.4242C75.8815 46.5522 76.2616 46.7162 76.6377 46.9122C76.7777 46.9843 76.9136 47.0603 77.0536 47.1443C78.0178 47.7164 78.8939 48.4405 79.6821 49.2566C84.5388 43.1037 89.0315 37.3949 89.0315 37.2949C88.7114 37.4509 85.0588 34.9665 85.0588 34.9665Z" fill="#E47249"/>
<path d="M63.3829 61.1423L67.7155 64.3707C67.7155 64.3707 68.7917 63.0106 70.4719 60.8943C69.5238 59.7741 68.4316 58.3459 67.1914 56.5096C64.9271 59.266 63.3829 61.1423 63.3829 61.1423Z" fill="#E47249"/>
<path d="M75.609 65.5509C75.913 65.5509 76.1371 65.4789 76.2931 65.3989C77.1332 65.0708 77.4613 64.4907 77.5853 64.0546C77.7253 63.5626 77.6733 63.0265 77.5333 62.5184L77.9053 62.7305C77.9573 62.7585 78.0093 62.7825 78.0653 62.7985C79.4095 63.1746 80.4217 63.0345 81.0698 62.3784C81.6859 61.7503 81.7659 60.8342 81.7099 60.1261C83.2261 60.2141 84.2383 59.742 84.6943 58.7299C85.3064 57.3657 84.5623 55.7054 84.1622 54.8133C82.97 52.1609 80.8338 48.5684 77.4253 46.5481C77.2773 46.4601 77.1252 46.3761 76.9732 46.2961C73.3526 44.3918 69.6481 45.2079 67.3078 48.4204C66.5597 49.4445 65.9236 50.6927 65.4155 52.1209C65.4035 52.1609 65.3715 52.2289 65.3355 52.3169C64.8635 53.4611 64.7114 54.0092 64.9834 54.4413C71.0443 63.9947 74.2008 65.5549 75.613 65.5549L75.609 65.5509ZM75.689 64.1147C75.505 64.1387 72.9366 64.2947 66.2796 53.8412C66.3236 53.6612 66.4437 53.3291 66.6397 52.853C66.6877 52.733 66.7277 52.637 66.7477 52.585C67.2078 51.2848 67.7799 50.1606 68.448 49.2445C70.3763 46.6041 73.3127 45.964 76.3091 47.5403C76.4371 47.6083 76.5651 47.6802 76.6931 47.7563C79.7856 49.5885 81.7539 52.917 82.862 55.3854C83.1501 56.0255 83.7462 57.3577 83.3941 58.1418C83.3021 58.3458 83.022 58.9699 80.9657 58.6099C80.7297 58.5698 80.4777 58.6539 80.3137 58.8379C80.1497 59.0219 80.0936 59.274 80.1656 59.51C80.2936 59.9501 80.4377 60.9942 80.0536 61.3823C79.8136 61.6263 79.2736 61.6503 78.5254 61.4543L76.169 60.1141C75.877 59.9461 75.509 60.0101 75.2849 60.2661C75.0649 60.5181 75.0529 60.8942 75.2569 61.1622C75.657 61.6863 76.4211 62.9825 76.2211 63.6626C76.1811 63.7946 76.0931 63.9587 75.7451 64.0907C75.7251 64.0987 75.705 64.1067 75.689 64.1147Z" fill="#1A1A1A"/>
<path d="M80.1702 59.53L80.8463 59.31L81.4944 59.0259L80.8463 59.306L81.4784 58.9859C80.9023 57.5937 78.678 52.849 74.3133 50.3367C73.9733 50.1406 73.5413 50.2567 73.3452 50.5967C73.1492 50.9368 73.2652 51.3688 73.6052 51.5648C77.5818 53.8532 79.6341 58.2378 80.1702 59.526V59.53Z" fill="#1A1A1A"/>
<path d="M76.9056 63.6426C77.0376 63.6426 77.1696 63.6066 77.2896 63.5306C77.6097 63.3266 77.7057 62.9105 77.5217 62.5865L77.4497 62.4384C76.0335 59.622 73.2651 54.6813 70.6047 53.2411C70.2606 53.0531 69.8326 53.1811 69.6446 53.5251C69.4565 53.8692 69.5845 54.2972 69.9286 54.4853C71.6208 55.4054 73.9011 58.5339 76.1855 63.0745C76.2575 63.2185 76.3055 63.3026 76.3135 63.3186C76.4495 63.5306 76.6776 63.6426 76.9096 63.6426H76.9056Z" fill="#1A1A1A"/>
<path d="M180.245 153.488C180.305 153.488 180.365 153.48 180.425 153.464L181.281 153.236C183.577 152.628 185.337 151.087 186.229 148.903C188.558 143.186 184.329 133.977 176.692 121.007C179.496 119.427 182.661 117.17 183.201 114.822C183.397 113.97 183.229 113.142 182.717 112.426C182.689 112.386 182.653 112.346 182.617 112.314C182.553 112.258 181.973 111.758 180.961 111.838C180.597 111.866 180.229 111.958 179.853 112.122C180.721 110.237 181.445 108.061 180.961 106.757C180.765 106.229 180.393 105.845 179.88 105.645C179.604 105.465 179.164 105.329 178.636 105.433C178.288 105.505 177.94 105.665 177.596 105.925C178.072 103.856 178.284 101.72 177.58 100.528C177.264 99.9959 176.784 99.6559 176.184 99.5439C175.56 99.2678 174.868 99.2998 174.22 99.6479C171.823 100.932 170.031 106.457 168.891 116.078C168.891 116.078 168.743 116.734 168.219 117.47C166.695 119.595 166.507 122.335 167.735 124.448L167.807 124.568C173.924 134.845 176.26 140.246 177.076 143.078C171.987 141.686 162.354 138.578 148.8 132.177C148.628 132.097 148.436 132.089 148.26 132.149C148.084 132.213 147.94 132.345 147.86 132.513L144.427 139.786C144.259 140.138 144.411 140.562 144.763 140.73C166.863 151.179 179.14 153.304 179.264 153.324L180.129 153.48C180.169 153.488 180.213 153.492 180.253 153.492L180.245 153.488ZM181.625 113.346C181.857 113.706 181.917 114.078 181.817 114.506C181.469 116.03 179.056 118.127 175.372 120.115C175.204 120.207 175.076 120.363 175.024 120.547C174.972 120.731 175 120.931 175.096 121.095C182.533 133.669 187.05 143.114 184.913 148.363C184.189 150.127 182.769 151.368 180.913 151.864L180.209 152.052L179.492 151.924C179.364 151.904 167.515 149.851 146 139.746L148.828 133.753C163.238 140.514 173.18 143.538 177.86 144.751C178.092 144.811 178.344 144.75 178.52 144.582C178.696 144.418 178.776 144.17 178.732 143.934C178.248 141.406 176.172 135.865 169.015 123.839L168.975 123.771C167.987 122.075 168.147 119.991 169.363 118.295C170.087 117.286 170.267 116.39 170.287 116.294C171.763 103.829 173.992 101.376 174.884 100.9C175.292 100.684 175.544 100.812 175.64 100.86C175.712 100.896 175.792 100.92 175.868 100.932C176.092 100.964 176.236 101.06 176.356 101.256C177.116 102.536 176.156 106.541 174.864 109.941C174.728 110.297 174.9 110.698 175.252 110.846C175.604 110.994 176.008 110.838 176.168 110.489C177.536 107.521 178.496 106.949 178.848 106.841C179.024 106.789 179.096 106.829 179.104 106.833C179.18 106.901 179.224 106.921 179.32 106.949C179.48 107.001 179.568 107.085 179.628 107.249C180.065 108.425 178.596 111.842 176.916 114.606C176.724 114.922 176.808 115.338 177.112 115.55C177.412 115.762 177.832 115.71 178.068 115.422C179.552 113.614 180.581 113.286 181.061 113.25C181.349 113.226 181.545 113.306 181.625 113.346Z" fill="#1A1A1A"/>
<path d="M12.768 147.983L14.7363 152.388L54.3261 134.865C60.8271 131.989 68.1281 131.373 75.3532 133.045C75.5012 133.081 75.6572 133.117 75.8053 133.157C77.2495 133.497 78.6817 133.929 80.1099 134.461C80.2099 134.509 80.3099 134.545 80.4019 134.573C80.4379 134.593 80.466 134.593 80.502 134.609C84.6506 136.217 90.5594 139.454 96.2803 142.858C97.1644 143.39 98.0726 143.923 98.9367 144.451L101.669 145.811H101.677L109.926 146.931L110.138 146.975H110.146C110.514 146.847 110.874 146.683 111.239 146.495C110.458 145.987 109.63 145.447 108.766 144.887H108.75C108.714 144.871 108.702 144.859 108.674 144.843C106.13 143.198 103.265 141.43 100.353 139.71C99.2128 139.03 98.0566 138.358 96.9244 137.698C95.6282 136.946 94.348 136.217 93.0998 135.525C91.2035 134.461 89.3833 133.501 87.711 132.649C85.8428 131.701 84.1705 130.909 82.7663 130.349C82.6902 130.301 82.6262 130.285 82.5622 130.249C82.4142 130.185 82.2702 130.137 82.1222 130.072C80.806 129.576 79.4738 129.124 78.1336 128.768C78.0576 128.752 77.9696 128.72 77.8936 128.704C75.6052 128.08 73.2609 127.664 70.9605 127.452C70.0884 127.376 69.2243 127.324 68.3681 127.312C68.1921 126.504 67.6121 125.556 66.812 125.364C65.7358 125.088 64.3196 125.428 63.9436 126.604C63.8516 126.896 63.8515 127.176 63.8995 127.468C59.9069 127.808 56.0303 128.82 52.3618 130.449L52.2338 130.493L12.764 147.987L12.768 147.983Z" fill="#1A1A1A"/>
<path d="M20.7287 141.146C20.9647 140.946 24.5452 150.527 24.5452 150.527L10.5952 155.476L7.89475 151.668L11.9274 149.127C9.74706 148.835 7.53872 148.255 5.51443 147.395C4.31025 146.883 3.05001 146.231 2.15788 145.247C1.18173 144.17 0.4417 142.734 0.133654 141.314C-0.114382 140.174 -0.0384617 138.93 0.541624 137.918C1.48576 136.269 3.62609 135.489 5.45436 135.677C6.82656 135.821 8.10279 136.513 8.99892 137.558C9.67502 138.346 10.0831 139.302 10.6992 140.13C11.4993 141.206 12.5915 142.03 13.8317 142.534C15.868 143.362 18.1563 143.106 19.9286 141.786C20.1926 141.59 20.4566 141.378 20.7287 141.146Z" fill="#1A1A1A"/>
<path d="M74.5211 115.718C75.9733 119.443 78.4017 121.647 82.0982 122.171C85.2987 122.639 89.4514 121.851 94.7521 119.715C96.8404 118.871 99.1127 117.823 101.573 116.555C104.393 115.102 107.254 113.29 110.066 111.398C107.934 114.018 105.89 116.695 104.201 119.371C102.829 121.559 101.653 123.6 100.681 125.496C99.7888 127.224 99.0607 128.832 98.4846 130.333C97.4165 133.157 96.9044 135.601 96.9204 137.698C96.9484 141.35 98.5846 143.971 101.665 145.815H101.673C102.013 146.019 102.365 146.211 102.737 146.395C105.394 147.563 107.842 147.803 110.138 146.975H110.146C110.514 146.847 110.874 146.683 111.239 146.495C112.203 146.007 113.135 145.307 114.043 144.399C117.095 141.362 119.864 135.969 122.456 127.86C123.428 124.836 124.164 121.527 124.817 118.199C125.165 121.563 125.609 124.904 126.317 127.992C130.297 145.443 136.046 150.988 144.391 148.139C152.601 144.939 153.421 136.993 145.22 121.087C143.767 118.267 141.963 115.406 140.063 112.594C142.683 114.726 145.36 116.771 148.044 118.459C163.194 127.976 171.179 127.836 175.064 119.923C178.612 111.862 173.576 105.661 156.529 100.208C153.505 99.236 150.196 98.4999 146.868 97.8518C150.232 97.5037 153.573 97.0596 156.661 96.3515C174.112 92.371 179.657 86.6221 176.808 78.2769C173.616 70.0677 165.663 69.2476 149.756 77.4488C146.936 78.901 144.083 80.7052 141.271 82.5975C143.395 79.9851 145.444 77.3087 147.128 74.6243C156.645 59.4741 156.505 51.489 148.6 47.6004C140.535 44.0599 134.33 49.0966 128.877 66.1431C127.913 69.1675 127.169 72.468 126.517 75.7965C126.169 72.44 125.725 69.0955 125.017 66.011C121.036 48.5605 115.287 43.0157 106.95 45.8641C98.7407 49.0566 97.9126 57.0057 106.114 72.9161C107.566 75.7365 109.378 78.5969 111.27 81.4093C108.65 79.277 105.974 77.2327 103.289 75.5445C88.1391 66.0271 80.1539 66.1671 76.2693 74.0722C72.7208 82.1374 77.7656 88.3424 94.8041 93.7952C97.8285 94.7593 101.137 95.5034 104.469 96.1555C101.105 96.5036 97.7565 96.9476 94.668 97.6557C77.2175 101.636 71.6727 107.385 74.5211 115.722V115.718Z" fill="#E47249"/>
<path d="M113.967 107.345C114.975 107.345 115.951 106.877 116.747 106.005C117.579 105.093 118.119 103.829 118.267 102.444C118.583 99.5079 117.011 96.9275 114.763 96.6835C112.507 96.4394 110.426 98.6317 110.11 101.568C109.962 102.948 110.218 104.301 110.838 105.369C111.499 106.509 112.487 107.205 113.615 107.329C113.731 107.341 113.851 107.349 113.967 107.349V107.345ZM114.423 98.0837C114.487 98.0837 114.547 98.0837 114.611 98.0917C116.059 98.2477 117.087 100.172 116.859 102.292C116.743 103.376 116.331 104.357 115.699 105.049C115.123 105.681 114.435 105.989 113.767 105.917C113.095 105.845 112.491 105.397 112.063 104.657C111.594 103.845 111.398 102.8 111.514 101.716C111.731 99.6879 113.039 98.0797 114.419 98.0797L114.423 98.0837Z" fill="#1A1A1A"/>
<path d="M133.181 85.0138C130.625 88.0182 131.449 92.9189 135.03 95.9634C135.766 96.5915 136.562 97.0875 137.386 97.4596C140.555 98.8878 144.103 98.4158 146.131 96.0314C148.688 93.027 147.864 88.1222 144.291 85.0818C143.367 84.2937 142.355 83.7176 141.311 83.3295C138.31 82.2214 135.082 82.7855 133.185 85.0178L133.181 85.0138Z" fill="#EFEBE7"/>
<path d="M133.182 85.0138C130.625 88.0183 131.449 92.919 135.03 95.9634C135.766 96.5915 136.562 97.0876 137.386 97.4597L141.307 83.3296C138.306 82.2214 135.078 82.7855 133.182 85.0178V85.0138Z" fill="#1A1A1A"/>
<path d="M115.003 69.5474C112.446 72.5519 113.271 77.4526 116.851 80.497C117.587 81.1251 118.383 81.6212 119.207 81.9933C122.376 83.4215 125.924 82.9494 127.953 80.565C130.509 77.5606 129.685 72.6559 126.112 69.6154C125.188 68.8313 124.176 68.2512 123.132 67.8632C120.132 66.755 116.903 67.3191 115.007 69.5514L115.003 69.5474Z" fill="#EFEBE7"/>
<path d="M115.003 69.5474C112.447 72.5519 113.271 77.4526 116.851 80.497C117.587 81.1251 118.383 81.6212 119.208 81.9933L123.128 67.8632C120.128 66.755 116.899 67.3191 115.003 69.5514V69.5474Z" fill="#1A1A1A"/>
<path d="M76.4213 47.6084C76.5413 47.6084 76.6613 47.5764 76.7693 47.5164C77.0053 47.3844 77.1414 47.1324 77.1294 46.8603C77.0654 45.6761 76.9413 44.516 76.8053 43.3358L76.7853 43.1798C76.6053 41.6436 76.4213 40.0553 76.0452 38.5031C75.8612 37.711 75.4251 35.8507 74.0169 35.3186C73.8809 35.2746 73.7889 35.2506 73.6968 35.2346C73.0127 35.1026 72.2087 35.4307 71.5326 36.1428C69.8123 37.971 69.5722 40.9074 70.8564 44.408L70.8964 44.532C70.9324 44.636 70.9645 44.744 71.0085 44.8481C71.0925 45.0801 71.1845 45.3241 71.2805 45.5761C71.3845 45.8482 71.6446 46.0282 71.9326 46.0322C72.9688 46.0442 74.0129 46.3283 75.0451 46.8723C75.1691 46.9403 75.2931 47.0084 75.4211 47.0884C75.6372 47.2164 75.8292 47.3444 76.0252 47.4764C76.1452 47.5564 76.2852 47.6005 76.4213 47.6005V47.6084ZM73.3968 36.6308C73.4208 36.6308 73.4408 36.6308 73.4608 36.6348L73.5489 36.6588C74.225 36.9149 74.5609 38.3591 74.673 38.8352C75.029 40.3074 75.2091 41.8516 75.3851 43.3478L75.4051 43.4999C75.4851 44.2 75.5611 44.8921 75.6211 45.5842C74.577 45.0481 73.5129 44.732 72.4447 44.648C72.4087 44.552 72.3767 44.46 72.3407 44.36C72.3007 44.2599 72.2767 44.18 72.2487 44.1L72.1966 43.9399C71.5605 42.2077 70.7684 39.0352 72.5687 37.1229C72.8567 36.8189 73.1808 36.6308 73.4008 36.6308H73.3968Z" fill="#1A1A1A"/>
<path d="M60.215 161.929L64.4436 164.245L70.1884 153.792C70.7485 152.772 71.3005 151.76 71.8606 150.731C73.1008 148.431 74.341 146.115 75.5772 143.811C75.8452 143.278 76.1373 142.746 76.4133 142.218C77.1695 140.786 77.9216 139.37 78.7017 137.954C79.0217 137.358 79.3377 136.765 79.6658 136.169C79.7138 136.077 79.7779 135.965 79.8299 135.865C80.0699 135.449 80.2899 135.029 80.5019 134.613C80.73 134.197 80.954 133.757 81.174 133.337C81.4981 132.741 81.8061 132.149 82.1102 131.553C82.3382 131.149 82.5422 130.753 82.7702 130.349C82.9343 130.044 83.1103 129.74 83.2743 129.428C83.8064 128.48 84.3505 127.552 84.9106 126.644C85.5427 125.652 86.2148 124.684 86.9229 123.756C88.3391 121.919 89.2752 122.239 89.7913 122.415C90.9475 122.819 91.9956 123.604 93.0078 124.556C93.5399 125.036 94.0719 125.568 94.616 126.112L94.9081 126.404C96.1122 127.616 97.3084 128.932 98.5006 130.332C99.0327 130.949 99.5487 131.581 100.073 132.229C103.233 136.201 106.03 140.478 108.686 144.843C108.75 144.935 108.794 145.035 108.862 145.127H108.878C109.234 145.727 109.586 146.339 109.942 146.931L110.162 146.975C111.514 146.495 112.811 145.643 114.059 144.399C110.962 139.202 107.658 134.025 103.845 129.22C102.805 127.916 101.757 126.672 100.701 125.496C99.9168 124.624 99.1287 123.788 98.3406 122.995L98.0486 122.703C97.0644 121.703 96.0002 120.635 94.768 119.707C93.7639 118.943 92.6357 118.283 91.3555 117.843C90.5994 117.579 89.5233 117.339 88.2951 117.503C88.011 116.859 87.495 116.262 86.8349 116.134C85.7507 115.906 84.3425 116.298 84.0145 117.487C83.9225 117.827 83.9505 118.183 84.0305 118.515C84.1145 118.819 84.2425 119.131 84.4185 119.387C84.1265 119.643 83.8385 119.931 83.5464 120.271C83.4064 120.435 83.2544 120.611 83.1143 120.803C82.7663 121.255 82.4342 121.711 82.1102 122.163C82.0942 122.191 82.0741 122.219 82.0541 122.247C80.6739 124.232 79.4818 126.32 78.3377 128.396C78.2736 128.524 78.2096 128.636 78.1456 128.764C77.8896 129.232 77.6295 129.712 77.3895 130.18C77.2334 130.485 77.0694 130.777 76.9094 131.081C76.5534 131.777 76.1853 132.469 75.8173 133.157C75.6812 133.397 75.5572 133.645 75.4292 133.865C75.2892 134.129 75.1612 134.369 75.0252 134.621C74.7051 135.189 74.4171 135.761 74.113 136.329C73.3289 137.774 72.5487 139.242 71.7766 140.69C71.6366 140.974 71.4726 141.25 71.3286 141.538C70.1044 143.838 68.8643 146.143 67.6241 148.435C67.08 149.435 66.5319 150.447 65.9678 151.46L60.231 161.921L60.215 161.929Z" fill="#1A1A1A"/>
<path d="M58.6308 156.944C58.6949 156.616 68.2522 162.357 68.2522 162.357L59.707 176.043L54.8183 174.627L56.5385 169.722C54.4782 170.95 52.2019 171.959 49.8935 172.599C48.5173 172.979 47.0011 173.279 45.5729 173.043C44.0126 172.787 42.4044 172.063 41.1762 171.062C40.1921 170.258 39.412 169.142 39.22 167.886C38.9079 165.842 40.2041 163.717 41.8924 162.641C43.1605 161.829 44.7168 161.557 46.193 161.841C47.3011 162.053 48.3013 162.593 49.3894 162.881C50.8017 163.257 52.2939 163.217 53.6941 162.805C55.9944 162.129 57.7707 160.357 58.3868 158.033C58.4788 157.688 58.5628 157.324 58.6349 156.944H58.6308Z" fill="#1A1A1A"/>
</svg>
