<svg width="420" height="420" viewBox="0 0 420 420" fill="none" xmlns="http://www.w3.org/2000/svg">
<rect width="420" height="420" rx="12" fill="#387FEB"/>
<g clip-path="url(#clip0_1274_1831)">
<path d="M185.074 166.006C184.986 166.76 184.367 167.439 183.733 167.823C183.364 168.089 182.878 168.133 182.406 168.163C181.802 168.192 181.198 167.867 180.711 167.483C180.343 167.217 180.166 166.774 179.93 166.39C179.355 165.504 176.053 160.129 175.537 159.198C172.884 160.69 170.187 162.034 167.607 163.599C168.197 164.574 171.498 169.817 172.206 170.717C172.501 171.072 172.751 171.544 172.869 172.017C173.37 174.69 170.098 176.27 168.226 174.262C167.681 173.641 165.425 170.112 165.013 169.418C163.907 167.646 157.731 157.633 156.507 155.964C156.095 155.418 155.608 154.886 155.358 154.266C154.444 152.213 156.257 149.998 158.409 150.544C158.866 150.677 159.293 150.914 159.603 151.224C159.883 151.475 160.045 151.829 160.237 152.125C160.473 152.435 160.708 152.701 160.93 152.996C161.49 153.779 164.32 158.312 164.821 159.095C167.43 157.515 170.157 156.141 172.81 154.665C171.808 152.996 170.776 151.371 169.833 149.673C169.464 149.068 169.184 148.447 168.845 147.827C168.742 147.591 168.093 146.587 168.02 146.38C167.799 145.804 167.858 145.154 168.005 144.563C168.108 144.12 168.432 143.766 168.771 143.441C169.184 143.028 169.847 142.836 170.437 142.762C171.071 142.717 171.661 143.013 172.162 143.367C172.825 143.795 174.107 146.454 174.476 147.133C175.758 149.333 183.453 162.122 184.839 164.264C185.178 164.766 185.178 165.431 185.104 166.006H185.074Z" fill="white"/>
<path d="M196.1 162.152C195.437 162.595 194.67 162.89 193.904 162.993C192.474 163.215 190.882 162.979 189.541 162.373C187.846 161.679 186.372 160.35 185.399 158.829C183.984 156.643 183.482 153.749 183.969 151.194C184.278 149.732 184.957 148.299 185.915 147.088C188.509 143.899 193.329 143.086 196.616 145.597C197.368 146.143 198.842 147.945 198.871 148.89C198.857 148.964 199.048 149.215 199.107 149.274C199.343 149.688 199.8 151.475 199.844 151.977C200.183 154.192 199.8 156.614 198.945 158.666C198.326 160.055 197.353 161.339 196.086 162.137L196.1 162.152ZM192.533 157.78C192.754 157.795 193.005 157.78 193.196 157.692C193.521 157.544 193.712 157.249 193.889 156.939C194.523 155.772 194.774 154.325 194.641 153.01C194.611 152.287 194.243 151.607 194.14 150.869C194.081 150.633 193.58 150.012 193.388 149.85C193.137 149.54 192.71 149.422 192.312 149.451C191.398 149.407 190.484 149.88 189.865 150.647C189.32 151.401 189.084 152.434 189.084 153.38C189.084 155.388 190.528 157.559 192.518 157.78H192.533Z" fill="white"/>
<path d="M210.044 161.118C209.057 161.561 207.819 161.724 206.757 161.399C205.902 161.148 205.121 160.572 204.531 159.922C203.514 158.755 202.969 157.175 202.704 155.669C202.011 152.007 202.261 148.137 202.851 144.46C202.94 143.796 203.102 143.131 203.396 142.526C204.517 140.237 207.863 140.576 208.438 143.042C208.526 143.485 208.497 143.973 208.364 144.431C208.29 144.667 208.158 144.874 208.128 145.154C207.642 148.019 207.421 151.032 207.804 153.912C207.892 154.635 208.04 155.344 208.305 156.023C208.865 155.521 209.307 154.872 209.75 154.251C209.882 154.015 210.383 152.981 210.487 152.745C211.062 151.076 211.474 149.334 211.843 147.635C211.961 147.045 212.211 146.439 212.624 145.981C213.803 144.844 215.749 145.036 216.678 146.41C217.031 146.926 217.164 147.576 217.164 148.182C217.164 149.54 217.017 150.914 217.09 152.243C217.149 153.173 217.562 156.201 218.107 156.954H218.137C218.432 156.644 218.697 156.245 218.918 155.846C220.363 153.247 221.291 150.338 221.601 147.369C221.689 146.705 221.571 145.937 221.837 145.287C222.839 142.777 226.539 143.19 226.937 145.848C227.04 146.439 226.76 148.787 226.686 149.348C226.156 152.346 225.212 155.374 223.724 158.032C223.119 159.125 222.426 160.262 221.498 161.104C220.82 161.694 219.994 162.226 219.11 162.433C218.343 162.61 217.488 162.58 216.737 162.329C215.1 161.724 213.759 160.262 213.037 158.667C212.197 159.656 211.209 160.572 210.044 161.089V161.118Z" fill="white"/>
<path d="M228.219 166.169C227.674 166.434 226.981 166.361 226.436 166.198C225.714 165.991 225.124 165.312 224.814 164.633C224.652 164.219 224.682 163.717 224.682 163.259C224.77 162.713 225.787 160.498 225.964 159.996C226.834 157.825 227.748 155.669 228.691 153.527C229.119 152.626 231.551 146.926 231.949 146.025C232.185 145.479 233.688 142.141 233.924 141.624C234.071 141.181 234.425 140.842 234.794 140.532C235.118 140.251 235.59 140.118 236.047 140.044C236.518 139.941 236.961 140.059 237.403 140.221C237.963 140.428 238.42 140.975 238.729 141.506C239.009 142.023 239.024 142.688 238.906 143.293C238.847 143.692 238.096 145.302 237.919 145.641C237.241 147.192 233.084 156.643 232.421 158.238C232.052 159.08 230.003 164.175 229.635 165.017C229.355 165.548 228.809 165.932 228.234 166.183L228.219 166.169Z" fill="white"/>
<path d="M236.002 170.909C234.41 170.348 232.907 169.093 232.111 167.572C231.506 166.405 231.035 165.046 231.123 163.732C231.138 163.274 231.374 162.816 231.639 162.447C232.037 161.812 232.862 161.487 233.614 161.413C234.838 161.281 236.194 162.359 236.326 163.584C236.4 164.16 236.562 164.795 236.901 165.283C237.27 165.755 237.948 166.139 238.405 165.785C237.727 164.397 236.769 163.126 236.238 161.664C235.648 160.04 235.693 157.987 236.489 156.437C237.019 155.299 238.125 154.34 239.319 153.882C240.336 153.468 241.486 153.365 242.591 153.527C243.652 153.675 244.714 154.192 245.613 154.827C246.939 155.713 247.839 157.337 248.237 158.918C248.384 159.508 248.237 160.173 247.986 160.69C247.78 161.103 247.382 161.428 247.028 161.694C246.674 161.96 246.173 162.048 245.731 162.078C245.126 162.137 244.493 161.856 244.006 161.517C243.741 161.34 243.579 161.089 243.402 160.837C243.136 160.483 243.122 159.996 242.915 159.626C242.65 159.139 242.385 158.962 241.884 158.814C241.662 158.755 241.309 158.711 241.205 158.859C241.073 159.11 241.235 159.745 241.309 160.01C241.412 160.35 242.34 161.812 242.517 162.108C243.151 163.245 243.77 164.456 243.873 165.785C243.947 166.479 243.829 167.262 243.475 167.897C242.753 169.24 241.412 170.422 239.938 170.909C238.685 171.337 237.27 171.337 236.002 170.909Z" fill="white"/>
<path d="M143.123 254.466C141.752 253.019 140.381 249.814 141.295 248.042C142.327 246.048 145.231 246.181 146.1 248.249C146.262 248.618 146.262 249.032 146.321 249.386C146.543 250.981 148.503 252.266 150.08 252.369C151.274 252.458 152.512 252.015 153.633 251.542C152.424 251.055 151.201 250.302 150.493 249.238C150.021 248.574 149.623 247.85 149.461 247.067C149.255 246.063 149.152 245.015 149.343 243.996C149.535 242.932 149.815 241.854 150.257 240.88C151.746 237.616 154.149 234.721 156.728 232.226C157.377 231.576 158.158 230.956 159.042 230.705C159.617 230.513 160.281 230.719 160.826 230.956C161.239 231.133 161.548 231.517 161.828 231.886C162.167 232.373 162.241 233.038 162.197 233.673C162.197 233.998 162.035 234.264 161.946 234.559C161.71 235.017 161.268 235.356 160.87 235.637C160.605 235.814 159.485 236.966 159.278 237.217C157.495 239.181 155.652 241.308 154.812 243.833C154.606 244.498 154.399 245.251 154.65 245.901C154.827 246.299 155.343 246.491 155.755 246.61C156.669 246.92 157.716 246.92 158.689 246.772C160.177 246.536 161.593 245.827 162.919 245.088C164.261 244.335 165.381 243.183 166.752 242.46C167.238 242.209 167.842 242.179 168.388 242.297C170.481 242.711 171.189 245.325 169.641 246.861C168.904 247.584 167.96 248.057 167.194 248.677C164.541 250.745 161.902 252.886 159.072 254.673C157.804 255.456 156.463 256.164 155.033 256.696C153.132 257.434 151.038 257.878 149.019 257.582C146.837 257.272 144.656 256.061 143.167 254.451L143.123 254.466Z" fill="white"/>
<path d="M166.796 269.087C166.015 268.909 165.292 268.54 164.688 268.038C163.553 267.137 162.654 265.808 162.182 264.42C161.548 262.707 161.519 260.713 161.976 258.971C162.61 256.445 164.408 254.112 166.604 252.738C167.887 251.985 169.405 251.513 170.938 251.395C175.036 251.144 178.912 254.141 179.296 258.262C179.399 259.192 179.075 261.496 178.411 262.16C178.338 262.205 178.308 262.515 178.293 262.589C178.146 263.046 177.158 264.597 176.819 264.966C175.419 266.709 173.4 268.082 171.292 268.835C169.862 269.323 168.255 269.471 166.811 269.087H166.796ZM167.577 263.489C167.71 263.667 167.901 263.829 168.093 263.933C168.432 264.065 168.771 264.006 169.11 263.933C170.392 263.608 171.616 262.81 172.5 261.821C173.016 261.319 173.252 260.58 173.724 260.004C173.856 259.798 173.96 259.015 173.974 258.764C174.033 258.365 173.827 257.981 173.547 257.7C172.957 256.992 171.999 256.652 171.012 256.711C170.083 256.814 169.169 257.346 168.476 257.996C167.002 259.354 166.398 261.895 167.577 263.504V263.489Z" fill="white"/>
<path d="M193.933 277.017C193.697 278.878 191.604 279.823 189.983 278.937C189.481 278.642 189.039 278.139 188.818 277.549C188.641 277.047 188.671 276.471 188.715 275.924C187.639 276.53 186.445 276.973 185.236 277.047C184.514 277.091 183.762 277.002 183.099 276.766C182.229 276.471 181.404 275.88 180.844 275.156C179.782 273.768 179.222 271.966 179.119 270.224C179.001 267.447 179.812 264.656 180.578 261.969C180.829 261.156 181.197 260.3 181.713 259.576C182.067 259.015 182.804 258.69 183.453 258.587C185.664 258.365 187.241 260.743 186.032 262.633C185.413 263.563 184.573 267.595 184.455 268.703C184.367 269.707 184.396 270.874 184.912 271.73C187.02 271.627 189.511 268.127 190.425 266.222C190.646 265.734 191.604 263.312 191.943 262.899C193.579 260.772 196.955 262.234 196.66 264.922C196.616 265.321 196.439 265.675 196.292 266.03C195.304 268.437 194.965 271.036 194.523 273.561C194.316 274.728 194.08 275.865 193.918 277.002L193.933 277.017Z" fill="white"/>
<path d="M200.95 279.956C200.375 280.089 199.711 279.897 199.181 279.69C198.517 279.365 198.061 278.612 197.825 277.903C197.721 277.549 197.78 275.983 197.78 275.629C197.839 274.063 198.237 265.646 198.119 264.11C198.09 263.652 198.267 263.194 198.459 262.766C198.709 262.234 199.313 261.85 199.859 261.585C200.39 261.348 201.097 261.422 201.657 261.585C202.615 261.85 203.338 262.958 203.397 263.918C204.325 262.869 205.549 261.998 206.89 261.585C207.774 261.319 208.777 261.26 209.72 261.452C212.683 261.983 213.774 265.409 213.228 268.407C213.111 268.836 212.83 269.249 212.536 269.603C212.034 270.165 211.18 270.371 210.442 270.386C209.838 270.386 209.249 270.017 208.792 269.618C208.335 269.22 208.099 268.585 207.996 267.979C207.966 267.831 208.04 267.019 208.04 266.842C207.141 267.403 206.61 268.348 206.02 269.19C205.121 270.563 204.178 271.937 203.662 273.487C203.22 274.831 203.161 276.279 203.043 277.726C202.999 278.184 202.748 278.612 202.497 278.996C202.173 279.483 201.525 279.764 200.92 279.971L200.95 279.956Z" fill="white"/>
<path d="M234.69 275.806C233.157 276.899 231.315 277.637 229.443 278.021C228.735 278.169 227.895 278.08 227.276 277.696C226.745 277.342 226.273 276.766 226.126 276.131C226.097 276.072 226.052 275.658 226.023 275.599C225.419 274.241 221.91 266.296 221.35 264.952C220.937 263.933 218.491 257.656 218.034 256.652C218.004 256.593 217.827 256.239 217.768 256.194C217.473 255.663 217.488 254.969 217.621 254.378C217.724 253.802 218.166 253.27 218.653 252.871C219.006 252.606 219.493 252.488 219.95 252.414C220.525 252.325 221.159 252.561 221.674 252.886C222.264 253.211 222.618 253.876 222.883 254.526C223.532 253.137 224.49 251.823 225.758 250.996C226.642 250.435 227.6 250.007 228.647 249.829C230.091 249.608 231.639 249.859 233.054 250.376C234.749 251.055 236.253 252.266 237.432 253.654C238.257 254.614 238.921 255.766 239.437 256.933C240.159 258.587 240.631 260.388 240.69 262.205C240.822 265.409 240.085 268.791 238.405 271.509C237.432 273.133 236.179 274.654 234.661 275.791L234.69 275.806ZM227.158 259.517C227.158 263.888 228.676 268.201 230.371 272.188C231.241 271.789 232.037 271.228 232.671 270.504C235.059 267.861 236.002 263.947 235.132 260.536C234.793 259.251 234.189 257.966 233.319 256.992C232.73 256.312 232.022 255.692 231.182 255.353C230.681 255.146 230.121 254.983 229.575 255.057C227.851 255.308 227.173 257.774 227.173 259.502L227.158 259.517Z" fill="white"/>
<path d="M259.484 256.918C259.115 257.42 258.496 257.612 257.906 257.73C257.317 257.848 256.654 257.612 256.138 257.316C255.681 257.095 255.342 256.637 255.003 256.283C254.914 257.553 254.723 258.867 254.221 260.034C253.75 261.067 253.086 262.042 252.158 262.692C251.347 263.268 250.315 263.637 249.328 263.667C247.721 263.726 246.011 263.12 244.802 262.101C243.24 260.772 242.016 259.029 241.25 257.124C240.867 256.105 240.498 255.072 240.395 254.008C240.159 252.133 240.365 250.154 241.029 248.352C241.604 246.772 242.886 245.325 244.375 244.527C245.244 244.025 246.247 243.745 247.264 243.627C247.456 243.095 247.912 242.578 248.384 242.268C248.885 241.943 249.578 241.869 250.168 241.928C250.787 242.002 251.376 242.445 251.819 242.903C252.069 243.154 252.939 244.734 253.131 245.029C254.796 247.747 256.727 250.331 258.909 252.665C259.13 252.93 259.439 253.137 259.646 253.432C260 253.92 260.25 254.599 260.221 255.219C260.191 255.84 259.882 256.416 259.498 256.888L259.484 256.918ZM248.93 258.365C248.93 258.365 249.077 258.365 249.136 258.335C249.416 258.01 249.49 257.538 249.563 257.139C249.814 255.958 249.652 254.762 249.475 253.61C249.21 252.074 248.841 250.582 248.414 249.135C248.399 249.061 248.207 248.987 248.134 248.958C248.045 248.899 247.662 248.943 247.559 248.987C247.072 249.076 246.63 249.312 246.32 249.652C246.011 250.006 245.864 250.494 245.746 250.966C245.539 251.882 245.51 252.827 245.701 253.787C245.864 254.584 246.173 255.338 246.556 256.032C246.969 256.8 248.089 258.35 248.93 258.38V258.365Z" fill="white"/>
<path d="M278.941 248.663C278.838 249.652 278.528 250.641 278.056 251.513C276.833 253.58 273.737 253.329 273.089 250.966C272.883 250.198 273 249.43 273.487 248.736C273.737 248.352 273.693 247.186 273.575 246.713C273.369 245.945 273.074 245.148 272.691 244.439C272.145 243.405 271.32 242.519 270.509 241.692C270.612 242.77 270.495 243.922 270.023 244.897C269.507 245.96 268.475 246.89 267.355 247.304C265.851 247.85 264.112 247.806 262.52 247.525C259.97 247.038 257.582 245.635 255.445 244.114C255.047 243.819 252.968 242.283 252.614 241.914C252.29 241.574 251.995 241.249 251.686 240.88C251.376 240.511 251.273 240.023 251.214 239.595C251.111 238.975 251.361 238.34 251.656 237.808C251.981 237.306 252.585 236.981 253.145 236.76C253.853 236.509 254.708 236.76 255.341 237.144C255.769 237.38 256.019 237.926 256.403 238.222C258.378 239.728 260.383 241.382 262.756 242.091C263.552 242.357 264.407 242.534 265.217 242.401C265.173 240.968 264.466 239.61 263.729 238.414C262.712 236.804 261.429 235.342 259.896 234.249C259.1 233.644 258.673 232.639 258.85 231.65C258.982 230.926 259.513 230.262 260.132 229.819C260.604 229.494 261.282 229.42 261.871 229.479C262.387 229.523 262.83 229.819 263.257 230.084C265.719 231.62 268.225 233.097 270.583 234.855C273.148 236.745 275.683 239.019 277.29 241.795C278.454 243.833 279.177 246.344 278.926 248.677L278.941 248.663Z" fill="white"/>
<path d="M209.528 216.321C209.115 216.409 208.658 216.424 208.143 216.38C208.614 216.38 209.071 216.38 209.528 216.321Z" fill="white"/>
<path d="M241.486 195.01C240.646 189.532 237.875 184.909 233.688 181.985C227.07 177.378 219.936 178.854 217.901 179.416C215.086 180.198 212.433 181.734 210.015 183.979C209.794 184.171 209.499 184.54 208.998 185.16C208.541 185.736 207.671 186.829 207.215 187.213C207.023 187.021 206.728 186.622 206.507 186.327C206.035 185.707 205.46 184.924 204.738 184.259C200.139 179.992 193.55 178.027 187.536 179.135C180.107 180.523 173.842 186.386 171.955 193.726L171.882 194.065C171.72 194.7 171.572 195.306 171.263 195.793C170.688 196.738 169.508 197.329 167.666 197.61C166.988 197.713 166.162 197.772 165.278 197.831C161.49 198.097 156.316 198.466 155.49 202.867C154.96 205.717 156.979 208.892 158.217 210.546C160.075 212.998 162.757 215.11 165.986 216.66C170.968 219.067 176.186 219.983 181.463 219.392C181.743 219.348 182.023 219.466 182.185 219.688C184.809 223.143 188.199 227.042 192.253 231.281C196.528 235.755 201.097 240.141 205.888 244.335C206.242 244.646 206.684 244.793 207.126 244.793C207.568 244.793 208.04 244.631 208.394 244.306C213.125 240.141 217.695 235.77 221.97 231.281C233.055 219.688 236.135 213.766 237.138 211.831C239.481 207.312 241.707 203.029 241.707 197.861C241.707 196.945 241.633 196 241.486 195.01ZM205.357 201.612C205.682 200.652 206.109 199.633 206.699 198.304C206.728 198.23 206.831 198.053 206.964 197.802C207.215 197.3 207.436 196.901 207.598 196.561C209.647 199.766 211.799 203.96 212.226 206.352C212.61 208.479 212.167 210.059 210.914 211.019C209.809 211.861 208.187 212.082 206.817 211.58C206.183 211.344 205.652 210.989 205.298 210.561C204.871 210.044 204.605 209.306 204.458 208.302C204.193 206.323 204.488 204.137 205.357 201.612ZM232.45 209.38C231.536 211.167 228.736 216.557 218.152 227.633C214.791 231.162 211.239 234.618 207.598 237.926C207.318 238.177 206.905 238.177 206.625 237.926C202.969 234.589 199.417 231.118 196.071 227.633C191.575 222.922 187.949 218.683 185.325 215.051L185.119 214.74C184.706 214.135 184.013 213.766 183.291 213.766C183.158 213.766 183.011 213.781 182.878 213.81L182.598 213.869C177.734 214.785 172.914 214.12 168.27 211.89C165.809 210.709 163.789 209.129 162.433 207.342C161.504 206.131 161.003 204.698 160.797 203.989C162.035 203.384 163.686 203.281 165.425 203.162C167.003 203.044 168.639 202.941 170.26 202.454C173.326 201.553 175.552 199.736 176.554 197.344C176.967 196.369 177.115 195.409 177.247 194.553C177.306 194.169 177.35 193.814 177.439 193.489C177.63 192.648 178.058 191.762 178.707 190.861C181.183 187.39 185.207 184.924 189.452 184.23C191.899 183.831 195.511 183.861 198.827 186.268C200.743 187.641 202.129 189.221 203.765 191.319C203.942 191.555 203.957 191.88 203.809 192.146C198.945 200.74 197.751 207.504 200.257 212.23C201.952 215.39 205.49 217.384 209.042 217.133C211.651 216.97 213.936 215.789 215.499 213.781C217.282 211.521 217.975 208.464 217.43 205.407C216.634 201.051 212.801 194.597 210.502 191.422C213.14 187.73 216.103 185.411 219.316 184.51C220.363 184.23 225.817 182.945 230.667 186.327C234.705 189.148 235.914 193.489 236.268 195.823C236.371 196.517 236.43 197.196 236.43 197.861C236.43 201.508 234.853 204.772 232.45 209.38Z" fill="white"/>
<path d="M188.288 202.04C189.526 200.799 189.526 198.791 188.288 197.55C187.049 196.31 185.045 196.31 183.807 197.55C182.568 198.791 182.568 200.799 183.807 202.04C185.045 203.28 187.049 203.28 188.288 202.04Z" fill="white"/>
</g>
<defs>
<clipPath id="clip0_1274_1831">
<rect width="138" height="140" fill="white" transform="translate(141 140)"/>
</clipPath>
</defs>
</svg>
