<svg width="643" height="360" viewBox="0 0 643 360" fill="none" xmlns="http://www.w3.org/2000/svg">
<rect width="643" height="360" rx="12" fill="#E6E2DE"/>
<path d="M105.632 275.376C103.2 276.528 100 275.76 97.568 274.608C96.16 273.84 95.008 272.432 94.112 271.024C92.96 269.36 92.96 266.928 92.832 264.88C92.448 257.2 91.68 249.648 90.656 241.968C87.584 241.968 84.64 242.352 81.568 242.608C74.528 243.12 67.36 243.248 60.32 244.4C59.04 251.056 58.016 257.84 58.016 264.624C58.016 268.592 55.2 272.432 51.488 273.712C49.952 274.224 48.16 274.096 46.624 273.968C44.96 273.84 43.424 272.816 42.144 271.792C40.352 270.512 39.456 268.208 38.944 266.032C38.688 265.264 38.816 261.168 38.944 260.272C39.584 245.68 43.296 231.216 47.904 217.392C50.72 208.688 53.792 199.984 58.912 192.56C62.368 187.568 66.72 182.704 72.096 179.888C74.912 178.48 78.368 177.968 81.312 178.864C84.128 179.76 86.688 181.552 88.608 183.856C95.136 191.28 99.36 200.368 102.688 209.584C109.216 227.632 110.88 247.344 112.16 266.416C112.16 268.08 111.52 269.744 110.752 271.28C109.856 273.2 107.68 274.48 105.632 275.376ZM77.088 200.368C71.328 207.152 68.384 215.984 65.696 224.432C72.736 223.792 79.776 223.536 86.816 222.896C84.64 215.088 81.568 207.152 77.088 200.368ZM172.969 269.488C170.793 270 168.617 269.104 166.697 268.08C164.777 267.056 163.497 264.88 162.729 262.832C161.961 261.168 162.089 259.12 161.961 257.328C158.761 260.656 155.177 263.856 151.081 265.904C147.369 267.696 143.273 268.848 139.177 268.464C135.593 268.208 131.881 266.8 129.065 264.624C124.457 261.04 121.129 255.408 120.105 249.776C118.825 242.48 119.465 234.8 121.769 227.76C123.049 224.048 124.457 220.336 126.633 217.136C130.345 211.376 135.465 206.384 141.481 202.928C146.729 199.856 153.641 198.832 159.657 200.112C163.241 200.752 166.697 202.288 169.769 204.336C171.561 203.312 173.993 202.928 176.041 203.184C178.217 203.44 180.265 204.848 181.801 206.384C183.337 208.048 183.977 210.608 184.105 212.912C184.233 214.192 182.953 220.592 182.825 221.872C181.161 233.264 180.521 244.912 181.161 256.432C181.161 257.712 181.545 258.992 181.417 260.272C181.289 262.448 180.393 264.88 178.857 266.544C177.321 268.208 175.145 269.104 172.969 269.488ZM140.329 249.008C140.457 249.136 140.713 249.392 140.969 249.392C142.505 249.136 143.785 247.984 144.937 247.088C148.393 244.4 150.697 240.688 152.873 237.104C155.689 232.24 158.121 227.248 160.297 222.256C160.425 222 160.041 221.36 159.913 221.104C159.785 220.72 158.633 219.952 158.249 219.824C156.713 218.928 154.921 218.544 153.257 218.8C151.593 219.056 150.057 220.08 148.649 221.104C145.961 223.152 143.657 225.712 141.993 228.784C140.585 231.344 139.689 234.16 139.177 236.976C138.537 240.048 138.025 246.96 140.329 249.008Z" fill="#1A1A1A"/>
<path d="M39.22 319.96C38.98 320.08 38.7 320.06 38.44 320.04C38.18 320.02 37.94 319.88 37.72 319.74C37.44 319.54 37.28 319.2 37.2 318.86C37.12 318.62 37.16 318.38 37.16 318.12C37.02 314.46 36.96 310.8 37.02 307.12C37.04 306.5 37.02 305.86 37.04 305.24C37.08 304.52 37.76 303.9 38.48 303.88C38.82 303.86 39.18 303.98 39.46 304.2C39.66 304.36 39.8 304.58 39.92 304.8C40.02 305.02 40.04 305.28 40.02 305.52C40 306.3 40 310.88 40 311.64C40.54 311.08 41.22 310.62 41.94 310.38C42.78 310.08 43.88 310.22 44.56 310.78C44.86 311.02 45.14 311.28 45.36 311.6C45.78 312.24 46 313.02 46.14 313.78C46.3 314.72 46.34 315.66 46.32 316.6C46.3 317.34 46.26 318.08 46.14 318.82C46.08 319.16 45.86 319.48 45.58 319.68C45.38 319.84 45.12 319.92 44.88 319.98C44.62 320.02 44.36 319.96 44.1 319.88C43.86 319.78 43.66 319.6 43.48 319.4C43.22 319.08 43.16 318.58 43.22 318.16C43.32 317.44 43.34 316.7 43.32 315.96C43.3 315.34 43.26 314.72 43.16 314.1C43.1 313.8 43.02 313.48 42.84 313.24C42.8 313.26 42.62 313.34 42.58 313.36C41.94 313.82 41.48 314.54 41.14 315.24C40.84 315.88 40.56 316.54 40.38 317.22C40.34 317.4 40.24 318.48 40.22 318.66C40.16 318.96 40.06 319.26 39.86 319.5C39.7 319.7 39.46 319.84 39.22 319.96ZM55.6342 319.92C55.2942 320 54.9542 319.86 54.6542 319.7C54.3542 319.54 54.1542 319.2 54.0342 318.88C53.9142 318.62 53.9342 318.3 53.9142 318.02C53.4142 318.54 52.8542 319.04 52.2142 319.36C51.6342 319.64 50.9942 319.82 50.3542 319.76C49.7942 319.72 49.2142 319.5 48.7742 319.16C48.0542 318.6 47.5342 317.72 47.3742 316.84C47.1742 315.7 47.2742 314.5 47.6342 313.4C47.8342 312.82 48.0542 312.24 48.3942 311.74C48.9742 310.84 49.7742 310.06 50.7142 309.52C51.5342 309.04 52.6142 308.88 53.5542 309.08C54.1142 309.18 54.6542 309.42 55.1342 309.74C55.4142 309.58 55.7942 309.52 56.1142 309.56C56.4542 309.6 56.7742 309.82 57.0142 310.06C57.2542 310.32 57.3542 310.72 57.3742 311.08C57.3942 311.28 57.1942 312.28 57.1742 312.48C56.9142 314.26 56.8142 316.08 56.9142 317.88C56.9142 318.08 56.9742 318.28 56.9542 318.48C56.9342 318.82 56.7942 319.2 56.5542 319.46C56.3142 319.72 55.9742 319.86 55.6342 319.92ZM50.5342 316.72C50.5542 316.74 50.5942 316.78 50.6342 316.78C50.8742 316.74 51.0742 316.56 51.2542 316.42C51.7942 316 52.1542 315.42 52.4942 314.86C52.9342 314.1 53.3142 313.32 53.6542 312.54C53.6742 312.5 53.6142 312.4 53.5942 312.36C53.5742 312.3 53.3942 312.18 53.3342 312.16C53.0942 312.02 52.8142 311.96 52.5542 312C52.2942 312.04 52.0542 312.2 51.8342 312.36C51.4142 312.68 51.0542 313.08 50.7942 313.56C50.5742 313.96 50.4342 314.4 50.3542 314.84C50.2542 315.32 50.1742 316.4 50.5342 316.72ZM61.2986 319.78C60.3186 320.6 58.8786 319.86 58.8586 318.6C58.8386 317.96 58.7786 314.04 58.7786 313.42C58.7586 312.26 58.5986 311.1 58.7986 309.96C58.8386 309.72 58.9986 309.48 59.1586 309.28C59.3186 309.08 59.5786 308.96 59.8186 308.88C60.1386 308.74 60.5186 308.82 60.8386 308.92C61.0986 309.02 61.2786 309.22 61.4586 309.4C61.6186 309.6 61.6986 309.88 61.7386 310.12C61.7786 310.3 61.6986 311.16 61.6986 311.34C62.4186 310.54 63.3986 309.86 64.4586 309.66C64.9986 309.56 65.5786 309.6 66.0786 309.8C66.5786 310.02 67.0386 310.38 67.3586 310.82C68.0986 311.86 68.2786 313.26 68.3186 314.52C68.3786 315.88 68.3986 317.22 68.2986 318.56C68.1586 320.28 65.7586 320.52 65.3186 318.84C65.2586 318.56 65.2586 318.26 65.3186 317.98C65.4386 317.3 65.3386 314.36 65.2586 313.68C65.2186 313.48 65.0586 312.78 64.9386 312.62C64.6186 312.72 64.3186 312.94 64.0786 313.2C63.6986 313.58 63.3986 314.04 63.1386 314.5C62.4386 315.86 62.0986 317.4 61.8186 318.92C61.7786 319.26 61.5586 319.56 61.2986 319.78ZM73.823 319.94C72.723 320.18 71.663 319.86 70.863 319.1C70.083 318.34 69.583 317.22 69.463 316.12C69.303 314.62 69.663 312.94 70.523 311.68C71.003 311 71.623 310.4 72.343 310C72.923 309.68 73.603 309.56 74.243 309.56C74.963 309.58 75.703 309.84 76.343 310.22C76.383 308.82 76.443 307.44 76.503 306.04C76.523 305.62 76.803 305.18 77.163 304.94C78.043 304.38 79.223 304.86 79.443 305.88C79.543 306.26 79.403 308.12 79.383 308.54C79.343 309.6 79.203 315.56 79.263 316.64C79.283 317.32 79.303 318 79.263 318.68C79.263 318.94 79.123 319.18 78.983 319.4C78.803 319.68 78.463 319.86 78.143 319.98C77.883 320.06 77.623 320 77.363 319.96C77.103 319.9 76.883 319.72 76.703 319.56C76.423 319.3 76.283 318.9 76.283 318.54C75.583 319.18 74.743 319.76 73.823 319.94ZM72.763 316.7C72.843 316.82 73.003 317.04 73.143 317.02C73.523 316.96 73.843 316.7 74.123 316.44C74.743 315.88 75.283 315.18 75.643 314.42C75.703 314.28 75.763 314.14 75.823 314.02C75.663 313.58 75.343 313.2 75.003 312.92C74.703 312.7 74.303 312.5 73.943 312.58C73.623 312.64 73.363 312.92 73.163 313.18C72.443 314.04 72.083 315.78 72.763 316.7ZM85.8264 325.02C85.3264 325.28 84.7664 325.44 84.2064 325.48C82.8464 325.54 82.0064 324 82.9264 322.96C83.2264 322.62 83.6264 322.44 84.1064 322.46C84.3664 322.46 84.9064 322.08 85.0864 321.88C85.3864 321.54 85.6664 321.16 85.8864 320.76C86.2064 320.18 86.3664 319.52 86.5064 318.88C86.0264 319.26 85.4464 319.56 84.8464 319.64C84.1864 319.72 83.4264 319.52 82.8864 319.12C82.1664 318.58 81.6464 317.74 81.2864 316.9C80.7264 315.54 80.6464 313.98 80.7064 312.5C80.7264 312.22 80.8064 310.76 80.8664 310.48C80.9264 310.22 80.9864 309.98 81.0664 309.72C81.1464 309.46 81.3464 309.26 81.5264 309.1C81.7864 308.86 82.1664 308.78 82.5064 308.76C82.8464 308.76 83.1864 308.94 83.4664 309.14C83.8064 309.4 83.9464 309.88 83.9664 310.3C83.9864 310.58 83.8064 310.86 83.7864 311.14C83.6864 312.54 83.5264 314 83.9264 315.34C84.0464 315.8 84.2264 316.26 84.5464 316.6C85.2064 316.14 85.6264 315.38 85.9664 314.66C86.4064 313.68 86.7064 312.62 86.7464 311.56C86.7864 311 87.1264 310.48 87.6464 310.26C88.0264 310.1 88.5064 310.14 88.9064 310.3C89.2064 310.42 89.4464 310.72 89.6064 311.02C89.7464 311.28 89.7464 311.58 89.7464 311.86C89.7864 313.5 89.8664 315.14 89.7664 316.8C89.6664 318.6 89.3864 320.5 88.5664 322.12C87.9664 323.3 87.0064 324.42 85.8264 325.02ZM101.363 319.78C100.963 320.12 100.243 320.16 99.7833 319.9C99.4633 319.72 99.1833 319.42 99.0033 319.08C98.6033 318.36 98.3433 317.56 98.2033 316.74C97.9833 315.52 97.9833 314.26 97.9833 313.02C97.7233 312.98 97.4633 312.96 97.2033 312.88C95.9033 312.36 95.9633 310.5 97.2833 310.06C97.5433 309.96 97.8433 309.98 98.1233 310C98.1833 309.38 98.1833 308.74 98.3433 308.12C98.4233 307.88 98.6233 307.68 98.8033 307.5C98.9833 307.32 99.2633 307.24 99.5033 307.18C99.8433 307.1 100.203 307.22 100.523 307.36C100.883 307.54 101.123 308 101.223 308.4C101.303 308.66 101.143 309.78 101.123 310.04C101.383 310.04 101.643 310.16 101.863 310.3C102.163 310.48 102.343 310.82 102.443 311.14C102.563 311.48 102.483 311.84 102.363 312.16C102.163 312.68 101.523 313.02 100.983 313.02C100.983 314.3 100.923 315.62 101.303 316.84C101.403 317.14 101.483 317.46 101.703 317.7C101.923 317.96 101.983 318.34 101.983 318.68C101.983 319.1 101.683 319.52 101.363 319.78ZM111.437 319.92C111.097 320 110.757 319.86 110.457 319.7C110.157 319.54 109.957 319.2 109.837 318.88C109.717 318.62 109.737 318.3 109.717 318.02C109.217 318.54 108.657 319.04 108.017 319.36C107.437 319.64 106.797 319.82 106.157 319.76C105.597 319.72 105.017 319.5 104.577 319.16C103.857 318.6 103.337 317.72 103.177 316.84C102.977 315.7 103.077 314.5 103.437 313.4C103.637 312.82 103.857 312.24 104.197 311.74C104.777 310.84 105.577 310.06 106.517 309.52C107.337 309.04 108.417 308.88 109.357 309.08C109.917 309.18 110.457 309.42 110.937 309.74C111.217 309.58 111.597 309.52 111.917 309.56C112.257 309.6 112.577 309.82 112.817 310.06C113.057 310.32 113.157 310.72 113.177 311.08C113.197 311.28 112.997 312.28 112.977 312.48C112.717 314.26 112.617 316.08 112.717 317.88C112.717 318.08 112.777 318.28 112.757 318.48C112.737 318.82 112.597 319.2 112.357 319.46C112.117 319.72 111.777 319.86 111.437 319.92ZM106.337 316.72C106.357 316.74 106.397 316.78 106.437 316.78C106.677 316.74 106.877 316.56 107.057 316.42C107.597 316 107.957 315.42 108.297 314.86C108.737 314.1 109.117 313.32 109.457 312.54C109.477 312.5 109.417 312.4 109.397 312.36C109.377 312.3 109.197 312.18 109.137 312.16C108.897 312.02 108.617 311.96 108.357 312C108.097 312.04 107.857 312.2 107.637 312.36C107.217 312.68 106.857 313.08 106.597 313.56C106.377 313.96 106.237 314.4 106.157 314.84C106.057 315.32 105.977 316.4 106.337 316.72ZM117.242 319.8C117.022 320.06 116.642 320.18 116.322 320.22C115.902 320.28 115.442 320.06 115.122 319.78C114.942 319.6 114.842 319.34 114.742 319.1C114.662 318.8 114.682 317.42 114.662 317.12C114.622 315.8 114.602 314.48 114.602 313.16C114.622 312.6 114.582 309.1 114.582 308.54C114.582 308.2 114.602 306.14 114.602 305.82C114.582 305.56 114.682 305.3 114.802 305.06C114.902 304.84 115.122 304.66 115.342 304.52C115.562 304.36 115.822 304.32 116.082 304.3C116.422 304.28 116.782 304.46 117.062 304.66C117.322 304.86 117.482 305.2 117.562 305.54C117.622 305.76 117.602 306.76 117.582 306.98C117.582 307.94 117.582 313.76 117.602 314.74C117.602 315.26 117.702 318.36 117.702 318.88C117.682 319.22 117.482 319.54 117.242 319.8ZM122.479 318.46C122.579 320 120.559 320.68 119.719 319.4C119.539 319.14 119.459 318.8 119.439 318.48C119.339 317.24 119.259 310.4 119.279 309.16C119.279 308.84 119.359 306.92 119.359 306.6C119.359 306.56 119.319 306.42 119.299 306.4C119.219 306.16 119.259 305.88 119.319 305.62C119.419 305.22 119.779 304.88 120.159 304.68C120.459 304.52 120.859 304.54 121.179 304.62C121.519 304.68 121.799 304.96 121.999 305.22C122.099 305.34 122.279 305.8 122.299 305.94C122.339 306.16 122.359 306.38 122.359 306.58C122.339 307.24 122.299 307.88 122.279 308.52C122.239 309.86 122.279 311.2 122.299 312.54C122.659 312.22 123.019 311.9 123.319 311.52C123.579 311.18 123.779 310.8 124.039 310.46C124.179 310.24 124.419 310.12 124.659 310C124.979 309.86 125.359 309.9 125.679 310C126.099 310.1 126.419 310.5 126.599 310.88C126.739 311.18 126.699 311.58 126.599 311.9C126.519 312.18 125.839 313.16 125.659 313.4C125.279 313.9 124.779 314.32 124.319 314.76C124.859 315.18 125.379 315.6 125.859 316.08C125.999 316.22 126.699 317.02 126.819 317.18C127.059 317.46 127.259 317.82 127.319 318.2C127.519 319.42 126.279 320.32 125.179 319.8C124.899 319.66 124.639 319.44 124.519 319.16C124.379 318.86 123.519 317.96 123.259 317.74C122.979 317.5 122.679 317.28 122.379 317.04C122.399 317.4 122.399 317.76 122.419 318.1C122.419 318.16 122.479 318.42 122.479 318.46ZM130.99 307.7C130.73 307.94 130.35 308.02 130.01 308.04C129.75 308.06 129.49 307.94 129.27 307.82C128.97 307.66 128.75 307.34 128.63 307.02C128.45 306.62 128.57 306.1 128.75 305.72C128.91 305.42 129.25 305.22 129.55 305.08C129.95 304.92 130.45 305.02 130.81 305.22C131.13 305.38 131.33 305.7 131.45 306.02C131.57 306.26 131.55 306.56 131.51 306.84C131.47 307.18 131.23 307.48 130.99 307.7ZM130.45 319.98C130.15 320.14 129.77 320.12 129.43 320.04C128.85 319.9 128.35 319.2 128.37 318.6C128.37 318.34 128.43 316.82 128.43 316.56C128.47 315.16 128.57 313.74 128.53 312.34C128.51 311.64 128.47 310.94 128.63 310.26C128.67 310.1 128.77 309.96 128.87 309.8C129.05 309.52 129.41 309.36 129.73 309.26C130.13 309.14 130.61 309.3 130.97 309.54C131.39 309.82 131.59 310.46 131.53 310.96C131.49 311.26 131.55 312.92 131.53 313.22C131.53 313.92 131.39 318.1 131.35 318.8C131.33 319.14 131.13 319.46 130.89 319.7C130.77 319.84 130.61 319.9 130.45 319.98ZM139.227 319.76C138.507 320.04 137.687 320.16 136.927 320.08C136.347 320.02 135.747 319.84 135.227 319.56C134.487 319.14 133.827 318.48 133.387 317.74C132.927 316.96 132.647 316 132.707 315.08C132.807 313.7 133.247 312.28 134.067 311.16C134.507 310.58 135.047 310.06 135.687 309.7C136.247 309.38 136.927 309.2 137.567 309.22C137.987 309.22 138.387 309.3 138.767 309.42C139.587 309.66 140.287 310.34 140.647 311.12C141.007 311.94 140.967 313 140.607 313.82C140.087 314.98 138.927 315.96 137.707 316.32C137.187 316.46 136.627 316.5 136.087 316.4C136.327 316.72 136.707 317 137.107 317.08C137.567 317.2 138.087 317.04 138.487 316.8C138.787 316.64 139.027 316.4 139.327 316.22C139.687 316 140.187 316.06 140.587 316.2C140.907 316.3 141.147 316.6 141.327 316.9C141.547 317.26 141.487 317.78 141.347 318.18C141.147 318.76 139.807 319.54 139.227 319.76ZM136.247 313.34C136.367 313.4 136.527 313.44 136.667 313.46C136.987 313.46 137.307 313.26 137.527 313.06C137.727 312.88 138.007 312.54 137.887 312.32C137.867 312.26 137.727 312.24 137.667 312.22C137.367 312.18 137.027 312.34 136.807 312.56C136.587 312.78 136.387 313.06 136.247 313.34ZM150.005 319.92C149.685 320 149.305 319.9 149.005 319.78C148.625 319.6 148.365 319.18 148.225 318.78C148.165 318.58 148.185 317.7 148.185 317.5C148.205 316.62 148.365 311.86 148.285 311C148.265 310.74 148.365 310.48 148.465 310.24C148.605 309.94 148.945 309.72 149.245 309.56C149.545 309.42 149.945 309.46 150.265 309.54C150.805 309.68 151.225 310.3 151.265 310.84C151.785 310.24 152.465 309.74 153.225 309.5C153.725 309.34 154.285 309.3 154.825 309.4C156.505 309.68 157.145 311.6 156.865 313.3C156.805 313.54 156.645 313.78 156.485 313.98C156.205 314.3 155.725 314.42 155.305 314.44C154.965 314.44 154.625 314.24 154.365 314.02C154.105 313.8 153.965 313.44 153.905 313.1C153.885 313.02 153.925 312.56 153.925 312.46C153.425 312.78 153.125 313.32 152.805 313.8C152.305 314.58 151.785 315.36 151.505 316.24C151.265 317 151.245 317.82 151.185 318.64C151.165 318.9 151.025 319.14 150.885 319.36C150.705 319.64 150.345 319.8 150.005 319.92ZM164.043 319.76C163.323 320.04 162.503 320.16 161.743 320.08C161.163 320.02 160.563 319.84 160.043 319.56C159.303 319.14 158.643 318.48 158.203 317.74C157.743 316.96 157.463 316 157.523 315.08C157.623 313.7 158.063 312.28 158.883 311.16C159.323 310.58 159.863 310.06 160.503 309.7C161.063 309.38 161.743 309.2 162.383 309.22C162.803 309.22 163.203 309.3 163.583 309.42C164.403 309.66 165.103 310.34 165.463 311.12C165.823 311.94 165.783 313 165.423 313.82C164.903 314.98 163.743 315.96 162.523 316.32C162.003 316.46 161.443 316.5 160.903 316.4C161.143 316.72 161.523 317 161.923 317.08C162.383 317.2 162.903 317.04 163.303 316.8C163.603 316.64 163.843 316.4 164.143 316.22C164.503 316 165.003 316.06 165.403 316.2C165.723 316.3 165.963 316.6 166.143 316.9C166.363 317.26 166.303 317.78 166.163 318.18C165.963 318.76 164.623 319.54 164.043 319.76ZM161.063 313.34C161.183 313.4 161.343 313.44 161.483 313.46C161.803 313.46 162.123 313.26 162.343 313.06C162.543 312.88 162.823 312.54 162.703 312.32C162.683 312.26 162.543 312.24 162.483 312.22C162.183 312.18 161.843 312.34 161.623 312.56C161.403 312.78 161.203 313.06 161.063 313.34ZM172.985 325.2C172.325 325.56 171.565 325.76 170.825 325.82C170.405 325.86 169.965 325.6 169.665 325.3C169.505 325.14 169.425 324.92 169.365 324.7C169.125 323.84 169.725 322.96 170.625 322.84C170.965 322.8 171.325 322.7 171.625 322.52C172.085 322.24 172.405 321.74 172.645 321.24C173.005 320.5 173.205 319.68 173.305 318.88C172.185 319.62 170.685 319.7 169.505 319.06C168.805 318.7 168.245 318.06 167.885 317.36C167.345 316.38 167.145 315.22 167.125 314.1C167.105 313.28 167.265 312.46 167.485 311.68C167.805 310.5 168.585 309.36 169.625 308.72C170.185 308.38 170.865 308.18 171.525 308.2C172.525 308.22 173.605 308.64 174.305 309.34C174.545 309.6 174.645 309.96 174.665 310.3C174.705 310.64 174.525 311 174.345 311.28C174.185 311.48 173.945 311.62 173.705 311.72C173.465 311.84 173.185 311.82 172.925 311.8C172.645 311.78 172.385 311.6 172.165 311.44C171.925 311.26 171.605 311.14 171.325 311.22C171.085 311.28 170.885 311.5 170.745 311.7C170.465 312.1 170.325 312.56 170.225 313.04C170.045 313.98 170.105 315.84 170.885 316.4C171.085 316.54 171.365 316.54 171.565 316.42C171.765 316.32 172.385 315.66 172.525 315.48C172.985 314.88 173.385 314.16 173.485 313.38C173.525 313.06 173.645 312.72 173.865 312.48C174.025 312.28 174.265 312.12 174.505 312.04C174.745 311.96 175.005 311.96 175.265 311.98C175.525 312 175.745 312.16 175.965 312.3C176.245 312.5 176.385 312.86 176.485 313.18C176.525 313.4 176.525 314.36 176.525 314.56C176.525 316.18 176.505 317.82 176.245 319.42C176.025 320.84 175.625 322.3 174.805 323.48C174.345 324.18 173.725 324.8 172.985 325.2ZM187.304 318.32C187.484 319.36 186.504 320.22 185.484 320C185.164 319.92 184.844 319.72 184.624 319.44C184.444 319.2 184.364 318.88 184.304 318.58C183.824 319.08 183.244 319.52 182.604 319.76C182.224 319.9 181.804 319.98 181.404 319.96C180.884 319.94 180.344 319.76 179.924 319.46C179.124 318.88 178.524 318 178.184 317.08C177.664 315.6 177.644 313.96 177.624 312.38C177.624 311.9 177.684 311.38 177.844 310.9C177.944 310.54 178.284 310.24 178.624 310.08C179.784 309.6 181.024 310.62 180.684 311.84C180.504 312.44 180.704 314.76 180.824 315.38C180.944 315.94 181.144 316.56 181.564 316.94C182.684 316.54 183.464 314.24 183.644 313.06C183.684 312.76 183.804 311.3 183.924 311.02C184.464 309.6 186.524 309.84 186.804 311.34C186.844 311.56 186.804 311.78 186.784 312C186.644 313.46 186.884 314.92 187.064 316.36C187.144 317.02 187.204 317.68 187.304 318.32ZM191.317 319.8C191.097 320.06 190.717 320.18 190.397 320.22C189.977 320.28 189.517 320.06 189.197 319.78C189.017 319.6 188.917 319.34 188.817 319.1C188.737 318.8 188.757 317.42 188.737 317.12C188.697 315.8 188.677 314.48 188.677 313.16C188.697 312.6 188.657 309.1 188.657 308.54C188.657 308.2 188.677 306.14 188.677 305.82C188.657 305.56 188.757 305.3 188.877 305.06C188.977 304.84 189.197 304.66 189.417 304.52C189.637 304.36 189.897 304.32 190.157 304.3C190.497 304.28 190.857 304.46 191.137 304.66C191.397 304.86 191.557 305.2 191.637 305.54C191.697 305.76 191.677 306.76 191.657 306.98C191.657 307.94 191.657 313.76 191.677 314.74C191.677 315.26 191.777 318.36 191.777 318.88C191.757 319.22 191.557 319.54 191.317 319.8ZM201.315 319.92C200.975 320 200.635 319.86 200.335 319.7C200.035 319.54 199.835 319.2 199.715 318.88C199.595 318.62 199.615 318.3 199.595 318.02C199.095 318.54 198.535 319.04 197.895 319.36C197.315 319.64 196.675 319.82 196.035 319.76C195.475 319.72 194.895 319.5 194.455 319.16C193.735 318.6 193.215 317.72 193.055 316.84C192.855 315.7 192.955 314.5 193.315 313.4C193.515 312.82 193.735 312.24 194.075 311.74C194.655 310.84 195.455 310.06 196.395 309.52C197.215 309.04 198.295 308.88 199.235 309.08C199.795 309.18 200.335 309.42 200.815 309.74C201.095 309.58 201.475 309.52 201.795 309.56C202.135 309.6 202.455 309.82 202.695 310.06C202.935 310.32 203.035 310.72 203.055 311.08C203.075 311.28 202.875 312.28 202.855 312.48C202.595 314.26 202.495 316.08 202.595 317.88C202.595 318.08 202.655 318.28 202.635 318.48C202.615 318.82 202.475 319.2 202.235 319.46C201.995 319.72 201.655 319.86 201.315 319.92ZM196.215 316.72C196.235 316.74 196.275 316.78 196.315 316.78C196.555 316.74 196.755 316.56 196.935 316.42C197.475 316 197.835 315.42 198.175 314.86C198.615 314.1 198.995 313.32 199.335 312.54C199.355 312.5 199.295 312.4 199.275 312.36C199.255 312.3 199.075 312.18 199.015 312.16C198.775 312.02 198.495 311.96 198.235 312C197.975 312.04 197.735 312.2 197.515 312.36C197.095 312.68 196.735 313.08 196.475 313.56C196.255 313.96 196.115 314.4 196.035 314.84C195.935 315.32 195.855 316.4 196.215 316.72ZM206.199 319.92C205.879 320 205.499 319.9 205.199 319.78C204.819 319.6 204.559 319.18 204.419 318.78C204.359 318.58 204.379 317.7 204.379 317.5C204.399 316.62 204.559 311.86 204.479 311C204.459 310.74 204.559 310.48 204.659 310.24C204.799 309.94 205.139 309.72 205.439 309.56C205.739 309.42 206.139 309.46 206.459 309.54C206.999 309.68 207.419 310.3 207.459 310.84C207.979 310.24 208.659 309.74 209.419 309.5C209.919 309.34 210.479 309.3 211.019 309.4C212.699 309.68 213.339 311.6 213.059 313.3C212.999 313.54 212.839 313.78 212.679 313.98C212.399 314.3 211.919 314.42 211.499 314.44C211.159 314.44 210.819 314.24 210.559 314.02C210.299 313.8 210.159 313.44 210.099 313.1C210.079 313.02 210.119 312.56 210.119 312.46C209.619 312.78 209.319 313.32 208.999 313.8C208.499 314.58 207.979 315.36 207.699 316.24C207.459 317 207.439 317.82 207.379 318.64C207.359 318.9 207.219 319.14 207.079 319.36C206.899 319.64 206.539 319.8 206.199 319.92Z" fill="#1A1A1A"/>
</svg>
