<svg width="643" height="360" viewBox="0 0 643 360" fill="none" xmlns="http://www.w3.org/2000/svg">
<rect width="643" height="360" rx="12" fill="#E6E2DE"/>
<path d="M46.624 180.4H74.656L84.256 270H66.336L61.088 210.864H59.808L54.56 270H36.64L46.624 180.4ZM68.384 247.728H52.128V232.24H68.384V247.728ZM112.151 224.048C112.151 222.256 111.724 220.805 110.871 219.696C110.103 218.587 109.079 218.032 107.799 218.032C107.202 218.032 106.604 218.203 106.007 218.544C105.495 218.8 105.068 219.184 104.727 219.696C104.386 220.208 104.087 220.848 103.831 221.616C103.66 222.384 103.575 223.195 103.575 224.048V231.856H86.551V225.072C86.551 221.744 87.0203 218.757 87.959 216.112C88.983 213.381 90.391 211.12 92.183 209.328C94.0603 207.451 96.279 206 98.839 204.976C101.399 203.952 104.343 203.44 107.671 203.44C114.156 203.44 119.319 205.403 123.159 209.328C127.084 213.168 129.047 218.416 129.047 225.072V270H112.151V263.728H111.639C109.932 266.288 108.012 268.208 105.879 269.488C103.746 270.683 101.442 271.28 98.967 271.28C95.2123 271.28 92.1403 270 89.751 267.44C87.447 264.795 86.295 261.339 86.295 257.072V248.752C86.295 246.704 86.6363 244.827 87.319 243.12C88.087 241.328 89.1537 239.835 90.519 238.64C91.9697 237.36 93.6763 236.379 95.639 235.696C97.6017 235.013 99.8203 234.672 102.295 234.672H112.151V224.048ZM112.151 254.128V243.12H109.207C107.159 243.12 105.623 243.504 104.599 244.272C103.66 244.955 103.191 246.107 103.191 247.728V253.36C103.191 254.811 103.532 255.963 104.215 256.816C104.983 257.584 105.964 257.968 107.159 257.968C108.354 257.968 109.335 257.669 110.103 257.072C110.956 256.389 111.639 255.408 112.151 254.128Z" fill="#1A1A1A"/>
<path d="M36.12 311.12V309.8H40.88V311.12H36.12ZM37.18 317.42V307.62L38.72 307.52V317.34C38.72 317.62 38.7533 317.86 38.82 318.06C38.8867 318.247 38.9733 318.4 39.08 318.52C39.2 318.64 39.34 318.727 39.5 318.78C39.66 318.833 39.8267 318.86 40 318.86C40.1333 318.86 40.2733 318.847 40.42 318.82C40.5667 318.793 40.72 318.753 40.88 318.7L40.94 320C40.6867 320.067 40.4467 320.113 40.22 320.14C39.9933 320.18 39.7733 320.2 39.56 320.2C39.2133 320.2 38.9 320.153 38.62 320.06C38.34 319.967 38.0933 319.813 37.88 319.6C37.6667 319.373 37.4933 319.087 37.36 318.74C37.24 318.38 37.18 317.94 37.18 317.42ZM41.6 320V305.6H43.14V320H41.6ZM46.24 320V312.78C46.24 312.233 46.1067 311.793 45.84 311.46C45.5867 311.113 45.2533 310.94 44.84 310.94C44.64 310.94 44.4467 310.987 44.26 311.08C44.0867 311.16 43.92 311.28 43.76 311.44C43.6 311.587 43.46 311.767 43.34 311.98C43.22 312.18 43.1333 312.413 43.08 312.68V311.36H43.24C43.48 310.8 43.7933 310.367 44.18 310.06C44.58 309.753 45.02 309.6 45.5 309.6C45.82 309.6 46.12 309.667 46.4 309.8C46.68 309.933 46.92 310.133 47.12 310.4C47.32 310.653 47.48 310.967 47.6 311.34C47.72 311.713 47.78 312.127 47.78 312.58V320H46.24ZM55.0442 309.8V320H53.5042V309.8H55.0442ZM50.4042 309.8V317.06C50.4042 317.607 50.5309 318.053 50.7842 318.4C51.0376 318.733 51.3709 318.9 51.7842 318.9C51.9842 318.9 52.1709 318.86 52.3442 318.78C52.5309 318.687 52.6976 318.567 52.8442 318.42C53.0042 318.273 53.1442 318.093 53.2642 317.88C53.3976 317.667 53.4976 317.433 53.5642 317.18V318.44H53.4042C53.1509 319.013 52.8242 319.453 52.4242 319.76C52.0376 320.053 51.6042 320.2 51.1242 320.2C50.8042 320.2 50.5042 320.133 50.2242 320C49.9576 319.853 49.7242 319.653 49.5242 319.4C49.3242 319.147 49.1642 318.833 49.0442 318.46C48.9242 318.087 48.8642 317.673 48.8642 317.22V309.8H50.4042ZM56.1898 320V309.8H57.7298V320H56.1898ZM60.8298 320V312.76C60.8298 312.227 60.6965 311.793 60.4298 311.46C60.1765 311.113 59.8432 310.94 59.4298 310.94C59.2298 310.94 59.0365 310.98 58.8498 311.06C58.6765 311.14 58.5098 311.26 58.3498 311.42C58.1898 311.567 58.0498 311.747 57.9298 311.96C57.8232 312.16 57.7365 312.393 57.6698 312.66V311.36H57.8298C58.0698 310.8 58.3832 310.367 58.7698 310.06C59.1698 309.753 59.6098 309.6 60.0898 309.6C60.4098 309.6 60.7098 309.667 60.9898 309.8C61.2698 309.933 61.5098 310.133 61.7098 310.4C61.9098 310.653 62.0698 310.967 62.1898 311.34C62.3098 311.713 62.3698 312.127 62.3698 312.58V320H60.8298ZM69.6341 320H68.0941V318.62H67.9941C67.7674 319.127 67.4607 319.52 67.0741 319.8C66.6874 320.067 66.2674 320.2 65.8141 320.2C65.4807 320.2 65.1674 320.127 64.8741 319.98C64.5941 319.833 64.3474 319.627 64.1341 319.36C63.9341 319.08 63.7674 318.747 63.6341 318.36C63.5141 317.973 63.4541 317.54 63.4541 317.06V312.48C63.4541 312.027 63.5141 311.627 63.6341 311.28C63.7541 310.933 63.9207 310.633 64.1341 310.38C64.3474 310.127 64.5941 309.933 64.8741 309.8C65.1674 309.667 65.4807 309.6 65.8141 309.6C66.2941 309.6 66.7274 309.733 67.1141 310C67.5007 310.267 67.7941 310.64 67.9941 311.12H68.0941V305.6H69.6341V320ZM68.0941 317.5V312.22C67.9741 311.847 67.7674 311.54 67.4741 311.3C67.1941 311.06 66.8674 310.94 66.4941 310.94C66.2807 310.94 66.0807 310.987 65.8941 311.08C65.7074 311.173 65.5474 311.3 65.4141 311.46C65.2807 311.62 65.1741 311.813 65.0941 312.04C65.0274 312.267 64.9941 312.513 64.9941 312.78V317C64.9941 317.547 65.1274 317.993 65.3941 318.34C65.6741 318.673 66.0274 318.84 66.4541 318.84C66.6407 318.84 66.8207 318.807 66.9941 318.74C67.1674 318.673 67.3207 318.58 67.4541 318.46C67.6007 318.34 67.7274 318.2 67.8341 318.04C67.9541 317.88 68.0407 317.7 68.0941 317.5ZM72.2597 312.82V316.98C72.2597 317.553 72.3997 318.013 72.6797 318.36C72.973 318.707 73.353 318.88 73.8197 318.88C74.0597 318.88 74.273 318.84 74.4597 318.76C74.6464 318.667 74.8064 318.533 74.9397 318.36C75.073 318.187 75.1797 317.987 75.2597 317.76C75.3397 317.533 75.3797 317.273 75.3797 316.98V316.22H76.8997V316.9C76.8997 317.407 76.8264 317.86 76.6797 318.26C76.533 318.66 76.3197 319.007 76.0397 319.3C75.773 319.593 75.4464 319.82 75.0597 319.98C74.6864 320.127 74.2664 320.2 73.7997 320.2C72.8664 320.2 72.1197 319.907 71.5597 319.32C71.013 318.72 70.7397 317.913 70.7397 316.9V312.88C70.7397 312.4 70.8064 311.96 70.9397 311.56C71.0864 311.147 71.293 310.8 71.5597 310.52C71.8264 310.227 72.1464 310 72.5197 309.84C72.9064 309.68 73.333 309.6 73.7997 309.6C74.733 309.6 75.4797 309.9 76.0397 310.5C76.613 311.1 76.8997 311.893 76.8997 312.88V315.3H71.9397V314.4H75.3797V312.82C75.3797 312.247 75.233 311.787 74.9397 311.44C74.6597 311.093 74.2864 310.92 73.8197 310.92C73.593 310.92 73.3797 310.967 73.1797 311.06C72.993 311.153 72.833 311.28 72.6997 311.44C72.5664 311.6 72.4597 311.8 72.3797 312.04C72.2997 312.28 72.2597 312.54 72.2597 312.82ZM79.5853 309.8V311.76H79.6253C79.7453 311.44 79.8786 311.147 80.0253 310.88C80.172 310.6 80.3453 310.367 80.5453 310.18C80.7453 309.993 80.972 309.853 81.2253 309.76C81.492 309.653 81.792 309.6 82.1253 309.6C82.1786 309.6 82.232 309.607 82.2853 309.62C82.352 309.62 82.4186 309.627 82.4853 309.64V311.12C82.4053 311.107 82.332 311.1 82.2653 311.1C82.1986 311.087 82.1253 311.08 82.0453 311.08C81.6186 311.08 81.252 311.16 80.9453 311.32C80.6386 311.48 80.3786 311.707 80.1653 312C79.9653 312.28 79.8186 312.62 79.7253 313.02C79.632 313.407 79.5853 313.84 79.5853 314.32V320H78.0453V309.8H79.5853ZM88.4525 309.8V311.76H88.4925C88.6125 311.44 88.7458 311.147 88.8925 310.88C89.0392 310.6 89.2125 310.367 89.4125 310.18C89.6125 309.993 89.8392 309.853 90.0925 309.76C90.3592 309.653 90.6592 309.6 90.9925 309.6C91.0458 309.6 91.0992 309.607 91.1525 309.62C91.2192 309.62 91.2858 309.627 91.3525 309.64V311.12C91.2725 311.107 91.1992 311.1 91.1325 311.1C91.0658 311.087 90.9925 311.08 90.9125 311.08C90.4858 311.08 90.1192 311.16 89.8125 311.32C89.5058 311.48 89.2458 311.707 89.0325 312C88.8325 312.28 88.6858 312.62 88.5925 313.02C88.4992 313.407 88.4525 313.84 88.4525 314.32V320H86.9125V309.8H88.4525ZM93.373 312.82V316.98C93.373 317.553 93.513 318.013 93.793 318.36C94.0863 318.707 94.4663 318.88 94.933 318.88C95.173 318.88 95.3863 318.84 95.573 318.76C95.7596 318.667 95.9196 318.533 96.053 318.36C96.1863 318.187 96.293 317.987 96.373 317.76C96.453 317.533 96.493 317.273 96.493 316.98V316.22H98.013V316.9C98.013 317.407 97.9396 317.86 97.793 318.26C97.6463 318.66 97.433 319.007 97.153 319.3C96.8863 319.593 96.5596 319.82 96.173 319.98C95.7996 320.127 95.3796 320.2 94.913 320.2C93.9796 320.2 93.233 319.907 92.673 319.32C92.1263 318.72 91.853 317.913 91.853 316.9V312.88C91.853 312.4 91.9196 311.96 92.053 311.56C92.1996 311.147 92.4063 310.8 92.673 310.52C92.9396 310.227 93.2596 310 93.633 309.84C94.0196 309.68 94.4463 309.6 94.913 309.6C95.8463 309.6 96.593 309.9 97.153 310.5C97.7263 311.1 98.013 311.893 98.013 312.88V315.3H93.053V314.4H96.493V312.82C96.493 312.247 96.3463 311.787 96.053 311.44C95.773 311.093 95.3996 310.92 94.933 310.92C94.7063 310.92 94.493 310.967 94.293 311.06C94.1063 311.153 93.9463 311.28 93.813 311.44C93.6796 311.6 93.573 311.8 93.493 312.04C93.413 312.28 93.373 312.54 93.373 312.82ZM105.279 309.8V321.06C105.279 321.54 105.205 321.973 105.059 322.36C104.912 322.747 104.705 323.073 104.439 323.34C104.185 323.62 103.872 323.833 103.499 323.98C103.125 324.127 102.712 324.2 102.259 324.2C101.325 324.2 100.585 323.92 100.039 323.36C99.5053 322.8 99.2386 322.04 99.2386 321.08V320.82H100.759V321C100.759 321.573 100.892 322.027 101.159 322.36C101.439 322.707 101.805 322.88 102.259 322.88C102.485 322.88 102.685 322.833 102.859 322.74C103.045 322.647 103.199 322.513 103.319 322.34C103.452 322.18 103.552 321.98 103.619 321.74C103.699 321.513 103.739 321.253 103.739 320.96V318.44H103.639C103.385 319 103.052 319.433 102.639 319.74C102.239 320.047 101.812 320.2 101.359 320.2C101.039 320.2 100.739 320.127 100.459 319.98C100.179 319.82 99.9386 319.607 99.7386 319.34C99.5386 319.073 99.3786 318.753 99.2586 318.38C99.1519 318.007 99.0986 317.6 99.0986 317.16V312.58C99.0986 312.14 99.1519 311.74 99.2586 311.38C99.3786 311.007 99.5319 310.693 99.7186 310.44C99.9186 310.173 100.152 309.967 100.419 309.82C100.699 309.673 101.005 309.6 101.339 309.6C101.792 309.6 102.219 309.753 102.619 310.06C103.032 310.367 103.372 310.8 103.639 311.36H103.739V309.8H105.279ZM103.739 312.5C103.579 312.033 103.339 311.66 103.019 311.38C102.712 311.087 102.379 310.94 102.019 310.94C101.819 310.94 101.632 310.993 101.459 311.1C101.285 311.193 101.139 311.32 101.019 311.48C100.899 311.64 100.805 311.833 100.739 312.06C100.672 312.287 100.639 312.533 100.639 312.8V316.98C100.639 317.247 100.672 317.493 100.739 317.72C100.819 317.947 100.919 318.147 101.039 318.32C101.159 318.493 101.299 318.627 101.459 318.72C101.632 318.813 101.819 318.86 102.019 318.86C102.192 318.86 102.365 318.827 102.539 318.76C102.712 318.68 102.872 318.573 103.019 318.44C103.179 318.293 103.319 318.127 103.439 317.94C103.559 317.74 103.659 317.527 103.739 317.3V312.5ZM112.544 309.8V320H111.004V309.8H112.544ZM107.904 309.8V317.06C107.904 317.607 108.031 318.053 108.284 318.4C108.538 318.733 108.871 318.9 109.284 318.9C109.484 318.9 109.671 318.86 109.844 318.78C110.031 318.687 110.198 318.567 110.344 318.42C110.504 318.273 110.644 318.093 110.764 317.88C110.898 317.667 110.998 317.433 111.064 317.18V318.44H110.904C110.651 319.013 110.324 319.453 109.924 319.76C109.538 320.053 109.104 320.2 108.624 320.2C108.304 320.2 108.004 320.133 107.724 320C107.458 319.853 107.224 319.653 107.024 319.4C106.824 319.147 106.664 318.833 106.544 318.46C106.424 318.087 106.364 317.673 106.364 317.22V309.8H107.904ZM113.77 320V305.6H115.29V320H113.77ZM121.121 312.82C121.121 312.247 120.981 311.787 120.701 311.44C120.435 311.093 120.081 310.92 119.641 310.92C119.415 310.92 119.208 310.967 119.021 311.06C118.835 311.153 118.675 311.28 118.541 311.44C118.421 311.6 118.321 311.8 118.241 312.04C118.175 312.28 118.141 312.54 118.141 312.82V313.84H116.621V312.88C116.621 312.4 116.688 311.96 116.821 311.56C116.968 311.147 117.168 310.8 117.421 310.52C117.688 310.227 118.008 310 118.381 309.84C118.755 309.68 119.168 309.6 119.621 309.6C120.541 309.6 121.275 309.9 121.821 310.5C122.381 311.087 122.661 311.88 122.661 312.88V320H121.121V318.68H121.081C120.801 319.187 120.461 319.567 120.061 319.82C119.675 320.073 119.235 320.2 118.741 320.2C118.061 320.2 117.515 319.973 117.101 319.52C116.688 319.067 116.481 318.46 116.481 317.7V316.94C116.481 316.54 116.548 316.187 116.681 315.88C116.828 315.56 117.035 315.3 117.301 315.1C117.568 314.887 117.895 314.727 118.281 314.62C118.668 314.5 119.115 314.44 119.621 314.44H121.121V312.82ZM121.121 317.64V315.28H120.181C119.448 315.28 118.901 315.407 118.541 315.66C118.195 315.913 118.021 316.313 118.021 316.86V317.4C118.021 317.907 118.141 318.3 118.381 318.58C118.635 318.847 118.981 318.98 119.421 318.98C119.821 318.98 120.168 318.867 120.461 318.64C120.755 318.4 120.975 318.067 121.121 317.64ZM125.347 309.8V311.76H125.387C125.507 311.44 125.64 311.147 125.787 310.88C125.934 310.6 126.107 310.367 126.307 310.18C126.507 309.993 126.734 309.853 126.987 309.76C127.254 309.653 127.554 309.6 127.887 309.6C127.94 309.6 127.994 309.607 128.047 309.62C128.114 309.62 128.18 309.627 128.247 309.64V311.12C128.167 311.107 128.094 311.1 128.027 311.1C127.96 311.087 127.887 311.08 127.807 311.08C127.38 311.08 127.014 311.16 126.707 311.32C126.4 311.48 126.14 311.707 125.927 312C125.727 312.28 125.58 312.62 125.487 313.02C125.394 313.407 125.347 313.84 125.347 314.32V320H123.807V309.8H125.347Z" fill="#1A1A1A"/>
<rect x="142.5" y="308" width="10" height="1.5" rx="0.75" transform="rotate(90 142.5 308)" fill="#1A1A1A"/>
<path d="M154.82 320V305.6H157.46V310.9H157.66C157.86 310.473 158.12 310.153 158.44 309.94C158.76 309.713 159.127 309.6 159.54 309.6C159.833 309.6 160.1 309.66 160.34 309.78C160.593 309.887 160.8 310.053 160.96 310.28C161.133 310.493 161.267 310.767 161.36 311.1C161.453 311.42 161.5 311.793 161.5 312.22V317.32C161.5 317.76 161.453 318.16 161.36 318.52C161.267 318.867 161.127 319.167 160.94 319.42C160.767 319.673 160.553 319.867 160.3 320C160.06 320.133 159.787 320.2 159.48 320.2C159.093 320.2 158.74 320.093 158.42 319.88C158.1 319.653 157.847 319.327 157.66 318.9H157.46V320H154.82ZM157.46 312.54V317.24C157.527 317.427 157.627 317.58 157.76 317.7C157.907 317.82 158.06 317.88 158.22 317.88C158.313 317.88 158.4 317.86 158.48 317.82C158.56 317.78 158.627 317.72 158.68 317.64C158.733 317.56 158.773 317.467 158.8 317.36C158.84 317.253 158.86 317.14 158.86 317.02V312.76C158.86 312.64 158.84 312.527 158.8 312.42C158.773 312.313 158.733 312.227 158.68 312.16C158.627 312.08 158.56 312.02 158.48 311.98C158.4 311.94 158.313 311.92 158.22 311.92C158.14 311.92 158.06 311.94 157.98 311.98C157.9 312.007 157.827 312.047 157.76 312.1C157.707 312.153 157.653 312.22 157.6 312.3C157.547 312.38 157.5 312.46 157.46 312.54ZM162.105 312.98C162.105 312.487 162.171 312.033 162.305 311.62C162.451 311.207 162.665 310.853 162.945 310.56C163.225 310.253 163.571 310.02 163.985 309.86C164.398 309.687 164.878 309.6 165.425 309.6C165.958 309.6 166.431 309.687 166.845 309.86C167.271 310.02 167.625 310.253 167.905 310.56C168.198 310.853 168.418 311.207 168.565 311.62C168.711 312.033 168.785 312.487 168.785 312.98V316.82C168.785 317.313 168.711 317.767 168.565 318.18C168.418 318.593 168.198 318.953 167.905 319.26C167.625 319.553 167.271 319.787 166.845 319.96C166.431 320.12 165.958 320.2 165.425 320.2C164.891 320.2 164.411 320.12 163.985 319.96C163.571 319.787 163.225 319.553 162.945 319.26C162.665 318.953 162.451 318.593 162.305 318.18C162.171 317.767 162.105 317.313 162.105 316.82V312.98ZM164.745 312.82V316.96C164.745 317.253 164.805 317.487 164.925 317.66C165.058 317.833 165.231 317.92 165.445 317.92C165.551 317.92 165.645 317.9 165.725 317.86C165.818 317.807 165.891 317.74 165.945 317.66C166.011 317.58 166.058 317.48 166.085 317.36C166.125 317.24 166.145 317.107 166.145 316.96V312.82C166.145 312.527 166.078 312.3 165.945 312.14C165.825 311.967 165.658 311.88 165.445 311.88C165.351 311.88 165.258 311.907 165.165 311.96C165.071 312 164.998 312.06 164.945 312.14C164.891 312.207 164.845 312.3 164.805 312.42C164.765 312.54 164.745 312.673 164.745 312.82ZM169.43 320V305.6H172.09V320H169.43ZM179.41 320H176.77V318.9H176.57C176.37 319.327 176.11 319.653 175.79 319.88C175.47 320.093 175.136 320.2 174.79 320.2C174.51 320.2 174.243 320.133 173.99 320C173.75 319.867 173.536 319.667 173.35 319.4C173.163 319.133 173.01 318.807 172.89 318.42C172.783 318.033 172.73 317.593 172.73 317.1V312.16C172.73 311.733 172.783 311.36 172.89 311.04C172.996 310.72 173.143 310.453 173.33 310.24C173.516 310.027 173.73 309.867 173.97 309.76C174.21 309.64 174.456 309.58 174.71 309.58C175.11 309.58 175.476 309.693 175.81 309.92C176.156 310.147 176.41 310.46 176.57 310.86H176.77V305.6H179.41V320ZM176.77 317.24V312.5C176.703 312.327 176.603 312.187 176.47 312.08C176.35 311.973 176.203 311.92 176.03 311.92C175.936 311.92 175.85 311.94 175.77 311.98C175.69 312.02 175.616 312.08 175.55 312.16C175.496 312.227 175.45 312.313 175.41 312.42C175.383 312.513 175.37 312.627 175.37 312.76V317C175.37 317.253 175.43 317.46 175.55 317.62C175.683 317.767 175.843 317.84 176.03 317.84C176.11 317.84 176.183 317.827 176.25 317.8C176.33 317.773 176.396 317.733 176.45 317.68C176.516 317.627 176.576 317.567 176.63 317.5C176.683 317.42 176.73 317.333 176.77 317.24Z" fill="#1A1A1A"/>
<rect x="194" y="308" width="10" height="1.5" rx="0.75" transform="rotate(90 194 308)" fill="#1A1A1A"/>
<path d="M209.24 312.84V316.96C209.24 317.16 209.273 317.32 209.34 317.44C209.42 317.547 209.52 317.6 209.64 317.6C209.707 317.6 209.76 317.587 209.8 317.56C209.853 317.533 209.893 317.493 209.92 317.44C209.96 317.373 209.987 317.307 210 317.24C210.027 317.16 210.04 317.067 210.04 316.96V316.12H213.08V316.78C213.08 317.313 212.993 317.787 212.82 318.2C212.66 318.613 212.427 318.973 212.12 319.28C211.827 319.573 211.467 319.8 211.04 319.96C210.613 320.12 210.133 320.2 209.6 320.2C208.547 320.2 207.713 319.9 207.1 319.3C206.5 318.687 206.2 317.847 206.2 316.78V313C206.2 312.48 206.28 312.013 206.44 311.6C206.6 311.173 206.827 310.813 207.12 310.52C207.413 310.227 207.767 310 208.18 309.84C208.593 309.68 209.067 309.6 209.6 309.6C210.667 309.6 211.513 309.907 212.14 310.52C212.767 311.133 213.08 311.96 213.08 313V315.62H208.88V314H210.04V312.84C210.04 312.64 210 312.487 209.92 312.38C209.853 312.26 209.76 312.2 209.64 312.2C209.587 312.2 209.533 312.213 209.48 312.24C209.427 312.267 209.38 312.307 209.34 312.36C209.313 312.413 209.287 312.48 209.26 312.56C209.247 312.64 209.24 312.733 209.24 312.84ZM216.25 309.8L216.57 313.8H216.81L217.11 309.8H220.23L219.41 314.88L220.25 320H217.11L216.77 315.88H216.57L216.23 320H213.11L213.95 314.88L213.13 309.8H216.25ZM220.317 312.4V309.8H225.777V312.4H220.317ZM221.177 316.76V307.6L224.197 307.42V316.58C224.197 316.753 224.224 316.9 224.277 317.02C224.33 317.14 224.397 317.24 224.477 317.32C224.57 317.387 224.67 317.44 224.777 317.48C224.897 317.507 225.024 317.52 225.157 317.52C225.264 317.52 225.364 317.513 225.457 317.5C225.564 317.473 225.67 317.453 225.777 317.44V320.02C225.47 320.073 225.177 320.113 224.897 320.14C224.63 320.18 224.37 320.2 224.117 320.2C223.664 320.2 223.257 320.14 222.897 320.02C222.55 319.913 222.244 319.727 221.977 319.46C221.724 319.193 221.524 318.84 221.377 318.4C221.244 317.96 221.177 317.413 221.177 316.76ZM229.162 309.8V311.22H229.242C229.322 310.98 229.422 310.76 229.542 310.56C229.662 310.36 229.795 310.193 229.942 310.06C230.102 309.913 230.282 309.8 230.482 309.72C230.682 309.64 230.895 309.6 231.122 309.6C231.175 309.6 231.222 309.607 231.262 309.62C231.315 309.62 231.362 309.62 231.402 309.62V312.62C231.322 312.607 231.235 312.6 231.142 312.6C231.049 312.587 230.962 312.58 230.882 312.58C230.575 312.58 230.315 312.627 230.102 312.72C229.889 312.8 229.709 312.927 229.562 313.1C229.429 313.26 229.329 313.467 229.262 313.72C229.195 313.96 229.162 314.233 229.162 314.54V320H226.142V309.8H229.162ZM235.567 312.84C235.567 312.64 235.534 312.487 235.467 312.38C235.401 312.26 235.307 312.2 235.187 312.2C235.121 312.2 235.061 312.213 235.007 312.24C234.954 312.267 234.914 312.307 234.887 312.36C234.861 312.413 234.834 312.48 234.807 312.56C234.794 312.64 234.787 312.733 234.787 312.84V314.12H231.767V313C231.767 312.48 231.841 312.013 231.987 311.6C232.147 311.173 232.374 310.813 232.667 310.52C232.961 310.227 233.314 310 233.727 309.84C234.141 309.68 234.614 309.6 235.147 309.6C236.201 309.6 237.041 309.907 237.667 310.52C238.294 311.12 238.607 311.947 238.607 313V320H235.567V319.12H235.507C235.227 319.493 234.927 319.767 234.607 319.94C234.301 320.113 233.981 320.2 233.647 320.2C233.074 320.2 232.607 320.007 232.247 319.62C231.901 319.233 231.727 318.72 231.727 318.08V316.6C231.727 316.293 231.781 316.013 231.887 315.76C232.007 315.493 232.167 315.273 232.367 315.1C232.581 314.913 232.827 314.767 233.107 314.66C233.387 314.54 233.694 314.48 234.027 314.48H235.567V312.84ZM235.567 317.5V315.96H235.267C235.107 315.96 234.981 316 234.887 316.08C234.807 316.147 234.767 316.26 234.767 316.42V317.4C234.767 317.547 234.794 317.66 234.847 317.74C234.914 317.807 235.007 317.84 235.127 317.84C235.221 317.84 235.301 317.813 235.367 317.76C235.447 317.693 235.514 317.607 235.567 317.5ZM239.033 320V305.6H242.053V310.78L242.273 310.8C242.473 310.387 242.719 310.087 243.013 309.9C243.306 309.7 243.646 309.6 244.033 309.6C244.313 309.6 244.566 309.653 244.793 309.76C245.033 309.867 245.233 310.027 245.393 310.24C245.553 310.453 245.673 310.713 245.753 311.02C245.846 311.327 245.893 311.693 245.893 312.12V317.38C245.893 317.82 245.846 318.213 245.753 318.56C245.659 318.907 245.526 319.2 245.353 319.44C245.193 319.68 244.993 319.867 244.753 320C244.513 320.133 244.246 320.2 243.952 320.2C243.593 320.2 243.266 320.1 242.973 319.9C242.679 319.7 242.446 319.4 242.273 319H242.053V320H239.033ZM242.053 312.62V317.18C242.106 317.287 242.173 317.373 242.253 317.44C242.333 317.507 242.413 317.54 242.493 317.54C242.546 317.54 242.593 317.533 242.633 317.52C242.686 317.493 242.726 317.453 242.753 317.4C242.793 317.347 242.819 317.287 242.833 317.22C242.859 317.153 242.873 317.087 242.873 317.02V312.74C242.873 312.673 242.859 312.613 242.833 312.56C242.819 312.493 242.793 312.44 242.753 312.4C242.726 312.347 242.686 312.313 242.633 312.3C242.593 312.273 242.546 312.26 242.493 312.26C242.453 312.26 242.406 312.267 242.353 312.28C242.313 312.293 242.273 312.32 242.233 312.36C242.206 312.387 242.173 312.427 242.133 312.48C242.106 312.52 242.079 312.567 242.053 312.62ZM246.298 313C246.298 312.507 246.371 312.053 246.518 311.64C246.664 311.213 246.878 310.853 247.158 310.56C247.438 310.267 247.791 310.033 248.218 309.86C248.658 309.687 249.151 309.6 249.698 309.6C250.271 309.6 250.771 309.687 251.198 309.86C251.624 310.033 251.984 310.273 252.278 310.58C252.571 310.873 252.791 311.233 252.938 311.66C253.098 312.073 253.178 312.52 253.178 313V316.78C253.178 317.273 253.098 317.733 252.938 318.16C252.791 318.573 252.571 318.933 252.278 319.24C251.984 319.533 251.624 319.767 251.198 319.94C250.771 320.113 250.271 320.2 249.698 320.2C249.151 320.2 248.664 320.113 248.238 319.94C247.811 319.767 247.451 319.533 247.158 319.24C246.878 318.947 246.664 318.587 246.518 318.16C246.371 317.733 246.298 317.273 246.298 316.78V313ZM249.338 312.84V316.96C249.338 317.16 249.371 317.32 249.438 317.44C249.518 317.547 249.618 317.6 249.738 317.6C249.804 317.6 249.858 317.587 249.898 317.56C249.951 317.533 249.991 317.493 250.018 317.44C250.058 317.373 250.084 317.307 250.098 317.24C250.124 317.16 250.138 317.067 250.138 316.96V312.84C250.138 312.627 250.098 312.467 250.018 312.36C249.951 312.253 249.858 312.2 249.738 312.2C249.684 312.2 249.631 312.213 249.578 312.24C249.524 312.267 249.478 312.307 249.438 312.36C249.411 312.413 249.384 312.48 249.358 312.56C249.344 312.627 249.338 312.72 249.338 312.84ZM253.623 320V305.6H256.643V320H253.623ZM263.939 320H260.899V319H260.699C260.499 319.4 260.253 319.7 259.959 319.9C259.666 320.1 259.359 320.2 259.039 320.2C258.786 320.2 258.539 320.133 258.299 320C258.059 319.867 257.846 319.673 257.659 319.42C257.486 319.153 257.339 318.833 257.219 318.46C257.113 318.073 257.059 317.627 257.059 317.12V312.04C257.059 311.627 257.113 311.267 257.219 310.96C257.326 310.653 257.466 310.4 257.639 310.2C257.813 309.987 258.013 309.833 258.239 309.74C258.466 309.633 258.699 309.58 258.939 309.58C259.313 309.58 259.659 309.687 259.979 309.9C260.299 310.1 260.539 310.393 260.699 310.78H260.899V305.6H263.939V320ZM260.899 317.16V312.58C260.859 312.487 260.799 312.413 260.719 312.36C260.653 312.293 260.573 312.26 260.479 312.26C260.426 312.26 260.373 312.273 260.319 312.3C260.266 312.313 260.226 312.347 260.199 312.4C260.173 312.44 260.146 312.493 260.119 312.56C260.106 312.613 260.099 312.673 260.099 312.74V317C260.099 317.147 260.133 317.273 260.199 317.38C260.266 317.473 260.353 317.52 260.459 317.52C260.513 317.52 260.559 317.513 260.599 317.5C260.653 317.473 260.693 317.447 260.719 317.42C260.759 317.38 260.793 317.34 260.819 317.3C260.859 317.26 260.886 317.213 260.899 317.16Z" fill="#1A1A1A"/>
</svg>
