<svg width="108" height="34" viewBox="0 0 108 34" fill="none" xmlns="http://www.w3.org/2000/svg">
<mask id="path-1-outside-1_1089_127" maskUnits="userSpaceOnUse" x="0" y="0" width="108" height="34" fill="black">
<rect fill="white" width="108" height="34"/>
<path d="M9.80801 7.80823L7.56604 8.65432L7.64643 7.81128L7.65238 7.80823H9.80801Z"/>
<path d="M13.6846 7.80823L7.42313 10.1693L7.50352 9.32631L11.523 7.80823H13.6846Z"/>
<path d="M17.5522 7.80823L7.28022 11.6844L7.36061 10.8413L15.3966 7.80823H17.5522Z"/>
<path d="M18.8713 8.77041L7.14036 13.1964L7.21778 12.3533L18.7998 7.98541L18.8713 8.77041Z"/>
<path d="M19.0053 10.1816L6.99745 14.7114L7.07487 13.8684L18.9308 9.39662L19.0053 10.1816Z"/>
<path d="M19.1393 11.5895L6.85455 16.2262L6.93494 15.3832L19.0648 10.8045L19.1393 11.5895Z"/>
<path d="M19.2703 13.0008L6.71164 17.7383L6.79203 16.8952L19.1958 12.2158L19.2703 13.0008Z"/>
<path d="M19.4043 14.412L6.56873 19.2533L6.64912 18.4103L19.3298 13.627L19.4043 14.412Z"/>
<path d="M19.5353 15.8232L6.42582 20.7684L6.50621 19.9223L19.4638 15.0352L19.5353 15.8232Z"/>
<path d="M19.6693 17.2314L6.28291 22.2804L6.3633 21.4374L19.5948 16.4464L19.6693 17.2314Z"/>
<path d="M21.3396 18.0621L6.14 23.7954L6.22039 22.9523L21.2651 17.2771L21.3396 18.0621Z"/>
<path d="M19.9342 20.0535L6 25.3103L6.07741 24.4672L19.8597 19.2685L19.9342 20.0535Z"/>
<path d="M20.0682 21.4617L8.64694 25.7716H6.48833L19.9938 20.6767L20.0682 21.4617Z"/>
<path d="M20.1992 22.8729L12.5205 25.7716H10.3589L20.1278 22.0879L20.1992 22.8729Z"/>
<path d="M20.3331 24.2841L16.3881 25.7717H14.2325L20.2587 23.4991L20.3331 24.2841Z"/>
<path d="M20.4672 25.6954L20.2588 25.7718H18.1002L20.3927 24.9074L20.4672 25.6954Z"/>
<path d="M18.7134 26.5658H7.57796V27.5799H18.7134V26.5658Z"/>
<path d="M14.9649 6H11.3295V7.01409H14.9649V6Z"/>
<path d="M37.2656 8.10443L33.8475 8.13803L25.353 27.5584L28.9706 27.5981L30.4384 24.1679H28.8961V23.612H42.0383V24.1679H40.496L42.0026 27.6165L45.8285 27.5951L37.2656 8.10443ZM32.067 20.4262L35.2022 13.2482L35.229 11.2383H35.7352V13.2146L38.8674 20.4079L32.067 20.4262Z"/>
<path d="M73.5659 27.5769L70.0883 27.6135L70.0526 19.8093C70.0406 17.8911 68.5549 16.5624 66.7566 16.5838C64.9106 16.6052 63.4368 17.9858 63.4279 19.9285L63.4011 27.5891L60.0098 27.5952V7.52116L63.4011 7.47534V15.1604L62.493 16.6632L62.9574 16.9167C62.9574 16.9167 64.8332 13.5507 67.6587 13.456C70.8564 13.3461 73.2622 15.5819 73.5391 18.8838L73.5659 27.5769Z"/>
<path d="M89.3491 21.2725C89.4741 19.2321 88.9382 17.2131 87.5984 15.6736C86.1514 14.0028 84.0702 13.3461 81.9294 13.4164C78.0648 13.5416 75.2898 16.4953 75.1916 20.4142C75.1082 23.7161 76.9244 26.6484 80.0953 27.5953C83.5193 28.6185 88.1462 27.5525 89.2419 23.5695L85.8328 23.5633C85.1093 24.5896 84.0553 24.9653 82.8345 25.0448C80.7385 25.1853 79.1039 23.8382 78.69 21.8284H77.0584V21.2725H89.3491ZM78.8389 18.5601C78.8389 18.5601 78.8419 18.5387 78.8478 18.5296C78.8746 18.4349 78.9074 18.3463 78.9431 18.2577C78.9758 18.1661 79.0175 18.0775 79.0622 17.992C79.1366 17.8331 79.223 17.6865 79.3212 17.5491C79.3391 17.5246 79.3569 17.5033 79.3748 17.4788C79.4195 17.4147 79.4701 17.3536 79.5237 17.2925C79.5743 17.2314 79.6279 17.1764 79.6845 17.1184C79.7083 17.097 79.7321 17.0756 79.7559 17.0512C79.7887 17.0206 79.8214 16.9901 79.8571 16.9626C79.8899 16.9321 79.9256 16.9046 79.9614 16.8771C80.009 16.8374 80.0566 16.8007 80.1072 16.7671L80.2055 16.703C80.2353 16.6846 80.2621 16.6663 80.2948 16.648C80.3335 16.6236 80.3693 16.6022 80.4109 16.5808C80.6223 16.4647 80.8516 16.37 81.0928 16.2967C81.1791 16.2692 81.2684 16.2479 81.3578 16.2295C81.4471 16.2051 81.5394 16.1898 81.6317 16.1776C81.724 16.1593 81.8193 16.1501 81.9145 16.141C82.242 16.1135 82.5666 16.1226 82.8762 16.1715C82.9715 16.1837 83.0668 16.202 83.162 16.2265C83.2722 16.2509 83.3824 16.2815 83.4896 16.3212C83.561 16.3425 83.6325 16.367 83.701 16.3975C83.7069 16.3975 83.7129 16.4006 83.7188 16.4036C83.7843 16.4281 83.8469 16.4556 83.9094 16.4892C83.9451 16.5044 83.9779 16.5197 84.0106 16.538C84.0821 16.5747 84.1505 16.6144 84.219 16.6572C84.2994 16.706 84.3798 16.761 84.4542 16.819C84.5257 16.871 84.5912 16.9229 84.6567 16.984C84.6775 16.9993 84.6954 17.0145 84.7133 17.0329C84.7639 17.0756 84.8115 17.1245 84.8562 17.1734C84.8741 17.1886 84.8889 17.2039 84.9008 17.2222C84.9634 17.2864 85.0229 17.3566 85.0765 17.4269C85.139 17.5063 85.1986 17.5857 85.2522 17.6712C85.2998 17.7384 85.3415 17.8118 85.3832 17.8881C85.407 17.9278 85.4278 17.9675 85.4457 18.0072C85.4755 18.0622 85.5023 18.1203 85.5291 18.1783C85.541 18.2027 85.5529 18.2302 85.5618 18.2547C85.5856 18.3096 85.6095 18.3677 85.6273 18.4257C85.6482 18.4776 85.666 18.5296 85.6839 18.5845C85.7137 18.6701 85.7375 18.7586 85.7613 18.8503L78.7615 18.8442C78.7823 18.7464 78.8091 18.6517 78.8389 18.5601Z"/>
<path d="M55.8356 27.3051C52.3044 28.7163 46.4419 28.1909 45.1438 23.7375L48.7703 23.7222C49.2615 24.3637 49.8391 24.8616 50.6043 25.0693C52.0007 25.448 54.8858 25.4053 54.865 23.6734C54.8382 21.5016 50.8276 22.5615 47.9902 21.3825C46.3884 20.7166 45.4743 19.2841 45.4951 17.5919C45.516 15.8997 46.5313 14.5832 48.1539 13.9693C51.3546 12.7566 56.9879 13.1934 58.0954 17.3017L54.4928 17.3078C53.3763 15.6034 48.9668 15.5851 48.9608 17.4422C48.9459 20.4845 57.9198 17.0726 58.3455 23.1419C58.4736 24.9501 57.6548 26.5782 55.8386 27.3051H55.8356Z"/>
<path d="M102 17.1581L97.8227 17.1917C96.2239 17.207 94.494 17.9554 94.4851 19.7361L94.4523 27.5953L91.0462 27.6045V13.7738L94.3987 13.7585C94.5833 14.345 94.5119 14.8459 94.36 15.2674L93.5085 16.6725L93.973 16.926L95.0984 15.0689C95.0984 15.0689 95.1133 15.0505 95.1193 15.0414C95.8577 14.1342 97.1171 13.7249 98.2664 13.7127L101.991 13.6821L102 17.1581Z"/>
<path d="M85.7613 18.8503L78.7614 18.8471L78.7615 18.8442L85.7613 18.8503Z"/>
</mask>
<path d="M9.80801 7.80823L7.56604 8.65432L7.64643 7.81128L7.65238 7.80823H9.80801Z" fill="#1A1A1A"/>
<path d="M13.6846 7.80823L7.42313 10.1693L7.50352 9.32631L11.523 7.80823H13.6846Z" fill="#1A1A1A"/>
<path d="M17.5522 7.80823L7.28022 11.6844L7.36061 10.8413L15.3966 7.80823H17.5522Z" fill="#1A1A1A"/>
<path d="M18.8713 8.77041L7.14036 13.1964L7.21778 12.3533L18.7998 7.98541L18.8713 8.77041Z" fill="#1A1A1A"/>
<path d="M19.0053 10.1816L6.99745 14.7114L7.07487 13.8684L18.9308 9.39662L19.0053 10.1816Z" fill="#1A1A1A"/>
<path d="M19.1393 11.5895L6.85455 16.2262L6.93494 15.3832L19.0648 10.8045L19.1393 11.5895Z" fill="#1A1A1A"/>
<path d="M19.2703 13.0008L6.71164 17.7383L6.79203 16.8952L19.1958 12.2158L19.2703 13.0008Z" fill="#1A1A1A"/>
<path d="M19.4043 14.412L6.56873 19.2533L6.64912 18.4103L19.3298 13.627L19.4043 14.412Z" fill="#1A1A1A"/>
<path d="M19.5353 15.8232L6.42582 20.7684L6.50621 19.9223L19.4638 15.0352L19.5353 15.8232Z" fill="#1A1A1A"/>
<path d="M19.6693 17.2314L6.28291 22.2804L6.3633 21.4374L19.5948 16.4464L19.6693 17.2314Z" fill="#1A1A1A"/>
<path d="M21.3396 18.0621L6.14 23.7954L6.22039 22.9523L21.2651 17.2771L21.3396 18.0621Z" fill="#1A1A1A"/>
<path d="M19.9342 20.0535L6 25.3103L6.07741 24.4672L19.8597 19.2685L19.9342 20.0535Z" fill="#1A1A1A"/>
<path d="M20.0682 21.4617L8.64694 25.7716H6.48833L19.9938 20.6767L20.0682 21.4617Z" fill="#1A1A1A"/>
<path d="M20.1992 22.8729L12.5205 25.7716H10.3589L20.1278 22.0879L20.1992 22.8729Z" fill="#1A1A1A"/>
<path d="M20.3331 24.2841L16.3881 25.7717H14.2325L20.2587 23.4991L20.3331 24.2841Z" fill="#1A1A1A"/>
<path d="M20.4672 25.6954L20.2588 25.7718H18.1002L20.3927 24.9074L20.4672 25.6954Z" fill="#1A1A1A"/>
<path d="M18.7134 26.5658H7.57796V27.5799H18.7134V26.5658Z" fill="#1A1A1A"/>
<path d="M14.9649 6H11.3295V7.01409H14.9649V6Z" fill="#1A1A1A"/>
<path d="M37.2656 8.10443L33.8475 8.13803L25.353 27.5584L28.9706 27.5981L30.4384 24.1679H28.8961V23.612H42.0383V24.1679H40.496L42.0026 27.6165L45.8285 27.5951L37.2656 8.10443ZM32.067 20.4262L35.2022 13.2482L35.229 11.2383H35.7352V13.2146L38.8674 20.4079L32.067 20.4262Z" fill="#1A1A1A"/>
<path d="M73.5659 27.5769L70.0883 27.6135L70.0526 19.8093C70.0406 17.8911 68.5549 16.5624 66.7566 16.5838C64.9106 16.6052 63.4368 17.9858 63.4279 19.9285L63.4011 27.5891L60.0098 27.5952V7.52116L63.4011 7.47534V15.1604L62.493 16.6632L62.9574 16.9167C62.9574 16.9167 64.8332 13.5507 67.6587 13.456C70.8564 13.3461 73.2622 15.5819 73.5391 18.8838L73.5659 27.5769Z" fill="#1A1A1A"/>
<path d="M89.3491 21.2725C89.4741 19.2321 88.9382 17.2131 87.5984 15.6736C86.1514 14.0028 84.0702 13.3461 81.9294 13.4164C78.0648 13.5416 75.2898 16.4953 75.1916 20.4142C75.1082 23.7161 76.9244 26.6484 80.0953 27.5953C83.5193 28.6185 88.1462 27.5525 89.2419 23.5695L85.8328 23.5633C85.1093 24.5896 84.0553 24.9653 82.8345 25.0448C80.7385 25.1853 79.1039 23.8382 78.69 21.8284H77.0584V21.2725H89.3491ZM78.8389 18.5601C78.8389 18.5601 78.8419 18.5387 78.8478 18.5296C78.8746 18.4349 78.9074 18.3463 78.9431 18.2577C78.9758 18.1661 79.0175 18.0775 79.0622 17.992C79.1366 17.8331 79.223 17.6865 79.3212 17.5491C79.3391 17.5246 79.3569 17.5033 79.3748 17.4788C79.4195 17.4147 79.4701 17.3536 79.5237 17.2925C79.5743 17.2314 79.6279 17.1764 79.6845 17.1184C79.7083 17.097 79.7321 17.0756 79.7559 17.0512C79.7887 17.0206 79.8214 16.9901 79.8571 16.9626C79.8899 16.9321 79.9256 16.9046 79.9614 16.8771C80.009 16.8374 80.0566 16.8007 80.1072 16.7671L80.2055 16.703C80.2353 16.6846 80.2621 16.6663 80.2948 16.648C80.3335 16.6236 80.3693 16.6022 80.4109 16.5808C80.6223 16.4647 80.8516 16.37 81.0928 16.2967C81.1791 16.2692 81.2684 16.2479 81.3578 16.2295C81.4471 16.2051 81.5394 16.1898 81.6317 16.1776C81.724 16.1593 81.8193 16.1501 81.9145 16.141C82.242 16.1135 82.5666 16.1226 82.8762 16.1715C82.9715 16.1837 83.0668 16.202 83.162 16.2265C83.2722 16.2509 83.3824 16.2815 83.4896 16.3212C83.561 16.3425 83.6325 16.367 83.701 16.3975C83.7069 16.3975 83.7129 16.4006 83.7188 16.4036C83.7843 16.4281 83.8469 16.4556 83.9094 16.4892C83.9451 16.5044 83.9779 16.5197 84.0106 16.538C84.0821 16.5747 84.1505 16.6144 84.219 16.6572C84.2994 16.706 84.3798 16.761 84.4542 16.819C84.5257 16.871 84.5912 16.9229 84.6567 16.984C84.6775 16.9993 84.6954 17.0145 84.7133 17.0329C84.7639 17.0756 84.8115 17.1245 84.8562 17.1734C84.8741 17.1886 84.8889 17.2039 84.9008 17.2222C84.9634 17.2864 85.0229 17.3566 85.0765 17.4269C85.139 17.5063 85.1986 17.5857 85.2522 17.6712C85.2998 17.7384 85.3415 17.8118 85.3832 17.8881C85.407 17.9278 85.4278 17.9675 85.4457 18.0072C85.4755 18.0622 85.5023 18.1203 85.5291 18.1783C85.541 18.2027 85.5529 18.2302 85.5618 18.2547C85.5856 18.3096 85.6095 18.3677 85.6273 18.4257C85.6482 18.4776 85.666 18.5296 85.6839 18.5845C85.7137 18.6701 85.7375 18.7586 85.7613 18.8503L78.7615 18.8442C78.7823 18.7464 78.8091 18.6517 78.8389 18.5601Z" fill="#1A1A1A"/>
<path d="M55.8356 27.3051C52.3044 28.7163 46.4419 28.1909 45.1438 23.7375L48.7703 23.7222C49.2615 24.3637 49.8391 24.8616 50.6043 25.0693C52.0007 25.448 54.8858 25.4053 54.865 23.6734C54.8382 21.5016 50.8276 22.5615 47.9902 21.3825C46.3884 20.7166 45.4743 19.2841 45.4951 17.5919C45.516 15.8997 46.5313 14.5832 48.1539 13.9693C51.3546 12.7566 56.9879 13.1934 58.0954 17.3017L54.4928 17.3078C53.3763 15.6034 48.9668 15.5851 48.9608 17.4422C48.9459 20.4845 57.9198 17.0726 58.3455 23.1419C58.4736 24.9501 57.6548 26.5782 55.8386 27.3051H55.8356Z" fill="#1A1A1A"/>
<path d="M102 17.1581L97.8227 17.1917C96.2239 17.207 94.494 17.9554 94.4851 19.7361L94.4523 27.5953L91.0462 27.6045V13.7738L94.3987 13.7585C94.5833 14.345 94.5119 14.8459 94.36 15.2674L93.5085 16.6725L93.973 16.926L95.0984 15.0689C95.0984 15.0689 95.1133 15.0505 95.1193 15.0414C95.8577 14.1342 97.1171 13.7249 98.2664 13.7127L101.991 13.6821L102 17.1581Z" fill="#1A1A1A"/>
<path d="M85.7613 18.8503L78.7614 18.8471L78.7615 18.8442L85.7613 18.8503Z" fill="#1A1A1A"/>
<path d="M85.7613 18.8503L85.7639 15.8503L78.7641 15.8442L78.7615 18.8442L78.7589 21.8442L85.7587 21.8503L85.7613 18.8503ZM9.80801 7.80823L11.9265 13.4218C14.6382 12.3984 16.2307 9.58287 15.7106 6.73151C15.1905 3.88015 12.7064 1.80823 9.80801 1.80823V7.80823ZM7.56604 8.65432L1.59313 8.08476C1.39652 10.1466 2.27725 12.1641 3.92298 13.4217C5.56871 14.6793 7.74669 14.9992 9.68452 14.2679L7.56604 8.65432ZM7.64643 7.81128L4.90805 2.47262C3.08708 3.40666 1.86779 5.20443 1.67352 7.24172L7.64643 7.81128ZM7.65238 7.80823V1.80823C6.70004 1.80823 5.76137 2.03492 4.914 2.46957L7.65238 7.80823ZM13.6846 7.80823L15.8016 13.4223C18.5139 12.3996 20.1071 9.584 19.5873 6.73228C19.0675 3.88056 16.5833 1.80823 13.6846 1.80823V7.80823ZM7.42313 10.1693L1.45022 9.59978C1.25363 11.6614 2.1341 13.6786 3.77944 14.9363C5.42479 16.1939 7.60238 16.5142 9.54014 15.7835L7.42313 10.1693ZM7.50352 9.32631L5.38359 3.71329C3.24245 4.52196 1.74788 6.47832 1.53061 8.75675L7.50352 9.32631ZM11.523 7.80823V1.80823C10.7988 1.80823 10.0806 1.93934 9.40307 2.19522L11.523 7.80823ZM17.5522 7.80823L19.6705 13.4219C22.3823 12.3986 23.9749 9.58301 23.4548 6.7316C22.9347 3.8802 20.4507 1.80823 17.5522 1.80823V7.80823ZM7.28022 11.6844L1.30731 11.1148C1.1107 13.1767 1.9914 15.1941 3.63708 16.4517C5.28277 17.7093 7.4607 18.0292 9.39852 17.298L7.28022 11.6844ZM7.36061 10.8413L5.24186 5.22787C3.10012 6.03625 1.60501 7.99289 1.3877 10.2718L7.36061 10.8413ZM15.3966 7.80823V1.80823C14.6728 1.80823 13.955 1.93919 13.2778 2.19477L15.3966 7.80823ZM18.8713 8.77041L20.9893 14.3842C23.513 13.432 25.0911 10.9128 24.8466 8.2265L18.8713 8.77041ZM7.14036 13.1964L1.1655 12.6477C0.976456 14.7065 1.86062 16.7175 3.50545 17.97C5.15028 19.2224 7.32405 19.5399 9.25836 18.8101L7.14036 13.1964ZM7.21778 12.3533L5.10057 6.73928C2.95096 7.54996 1.45299 9.51691 1.24291 11.8047L7.21778 12.3533ZM18.7998 7.98541L24.7751 7.4415C24.6052 5.57538 23.5733 3.89577 21.9854 2.9009C20.3975 1.90603 18.4359 1.71016 16.6826 2.37137L18.7998 7.98541ZM19.0053 10.1816L21.123 15.7955C23.6547 14.8404 25.2339 12.309 24.9785 9.61523L19.0053 10.1816ZM6.99745 14.7114L1.02259 14.1628C0.833551 16.2215 1.71767 18.2325 3.36244 19.485C5.0072 20.7374 7.18091 21.0549 9.1152 20.3253L6.99745 14.7114ZM7.07487 13.8684L4.95743 8.25443C2.80794 9.06516 1.31007 11.0321 1.1 13.3197L7.07487 13.8684ZM18.9308 9.39662L24.904 8.83023C24.7275 6.96867 23.6932 5.29583 22.1067 4.30606C20.5202 3.31629 18.563 3.12276 16.8134 3.78267L18.9308 9.39662ZM19.1393 11.5895L21.258 17.203C23.7891 16.2477 25.3679 13.7165 25.1125 11.0232L19.1393 11.5895ZM6.85455 16.2262L0.88164 15.6567C0.685021 17.7186 1.5658 19.7361 3.21159 20.9937C4.85739 22.2513 7.03543 22.5711 8.97327 21.8397L6.85455 16.2262ZM6.93494 15.3832L4.81604 9.76981C2.67438 10.5782 1.17933 12.5348 0.962029 14.8137L6.93494 15.3832ZM19.0648 10.8045L25.038 10.2382C24.8615 8.37632 23.8269 6.70328 22.24 5.71358C20.6532 4.72387 18.6956 4.53069 16.9459 5.19114L19.0648 10.8045ZM19.2703 13.0008L21.388 18.6146C23.9197 17.6596 25.4989 15.1281 25.2435 12.4344L19.2703 13.0008ZM6.71164 17.7383L0.738731 17.1687C0.54213 19.2304 1.42272 21.2478 3.06825 22.5054C4.71378 23.763 6.89156 24.0831 8.82935 23.3521L6.71164 17.7383ZM6.79203 16.8952L4.67416 11.2814C2.53198 12.0896 1.03646 14.0464 0.81912 16.3257L6.79203 16.8952ZM19.1958 12.2158L25.169 11.6494C24.9925 9.78772 23.9581 8.11482 22.3715 7.12507C20.7849 6.13532 18.8276 5.94189 17.078 6.60196L19.1958 12.2158ZM19.4043 14.412L21.5217 20.0259C24.0536 19.0709 25.6329 16.5394 25.3775 13.8456L19.4043 14.412ZM6.56873 19.2533L0.595822 18.6838C0.399225 20.7454 1.27978 22.7628 2.92525 24.0204C4.57071 25.278 6.74843 25.5981 8.68621 24.8672L6.56873 19.2533ZM6.64912 18.4103L4.53149 12.7964C2.38919 13.6045 0.89356 15.5614 0.676212 17.8407L6.64912 18.4103ZM19.3298 13.627L25.303 13.0606C25.1265 11.199 24.0921 9.52611 22.5056 8.53635C20.9191 7.54658 18.9618 7.3531 17.2122 8.01308L19.3298 13.627ZM19.5353 15.8232L21.6529 21.4371C24.1761 20.4853 25.7543 17.9671 25.5107 15.2814L19.5353 15.8232ZM6.42582 20.7684L0.452719 20.2009C0.256857 22.2624 1.13779 24.2791 2.78323 25.5362C4.42868 26.7933 6.60605 27.1132 8.5435 26.3823L6.42582 20.7684ZM6.50621 19.9223L4.38881 14.3084C2.2457 15.1167 0.749758 17.0746 0.533109 19.3548L6.50621 19.9223ZM19.4638 15.0352L25.4393 14.4934C25.27 12.6268 24.2383 10.9465 22.6502 9.95117C21.0621 8.95584 19.1001 8.75979 17.3464 9.42121L19.4638 15.0352ZM19.6693 17.2314L21.7867 22.8453C24.3186 21.8904 25.8979 19.3589 25.6425 16.665L19.6693 17.2314ZM6.28291 22.2804L0.310004 21.7109C0.113408 23.7726 0.993956 25.7899 2.63942 27.0475C4.28488 28.3052 6.4626 28.6253 8.40038 27.8944L6.28291 22.2804ZM6.3633 21.4374L4.2457 15.8235C2.10338 16.6316 0.607743 18.5885 0.390394 20.8679L6.3633 21.4374ZM19.5948 16.4464L25.568 15.88C25.3915 14.0184 24.3571 12.3455 22.7706 11.3558C21.1841 10.366 19.2268 10.1725 17.4772 10.8325L19.5948 16.4464ZM21.3396 18.0621L23.4571 23.676C25.9889 22.721 27.5682 20.1896 27.3128 17.4957L21.3396 18.0621ZM6.14 23.7954L0.167096 23.2258C-0.0295024 25.2875 0.851062 27.3049 2.49655 28.5625C4.14204 29.8201 6.31978 30.1402 8.25756 29.4093L6.14 23.7954ZM6.22039 22.9523L4.10271 17.3385C1.96043 18.1466 0.464832 20.1035 0.247485 22.3828L6.22039 22.9523ZM21.2651 17.2771L27.2383 16.7107C27.0618 14.8491 26.0275 13.1763 24.4409 12.1865C22.8544 11.1967 20.8971 11.0033 19.1475 11.6633L21.2651 17.2771ZM19.9342 20.0535L22.052 25.6673C24.5837 24.7122 26.1628 22.1808 25.9074 19.4871L19.9342 20.0535ZM6 25.3103L0.0251369 24.7616C-0.163905 26.8203 0.720231 28.8314 2.36502 30.0838C4.00981 31.3363 6.18354 31.6538 8.11784 30.9241L6 25.3103ZM6.07741 24.4672L3.95984 18.8533C1.81042 19.6641 0.312611 21.631 0.102549 23.9186L6.07741 24.4672ZM19.8597 19.2685L25.833 18.7021C25.6564 16.8405 24.6221 15.1677 23.0356 14.1779C21.449 13.1881 19.4918 12.9946 17.7422 13.6546L19.8597 19.2685ZM20.0682 21.4617L22.1865 27.0753C24.7179 26.1201 26.2968 23.5889 26.0414 20.8953L20.0682 21.4617ZM8.64694 25.7716V31.7716C9.37057 31.7716 10.0882 31.6407 10.7653 31.3852L8.64694 25.7716ZM6.48833 25.7716L4.37054 20.1578C1.65855 21.1809 0.0656881 23.9964 0.585668 26.848C1.10565 29.6995 3.58978 31.7716 6.48833 31.7716V25.7716ZM19.9938 20.6767L25.967 20.1103C25.7905 18.2487 24.7561 16.5758 23.1695 15.5861C21.5829 14.5963 19.6256 14.4029 17.876 15.0629L19.9938 20.6767ZM20.1992 22.8729L22.3182 28.4863C24.8414 27.5338 26.419 25.0149 26.1745 22.329L20.1992 22.8729ZM12.5205 25.7716V31.7716C13.2444 31.7716 13.9623 31.6406 14.6396 31.385L12.5205 25.7716ZM10.3589 25.7716L8.24192 20.1575C5.52965 21.1803 3.93639 23.9959 4.4562 26.8476C4.97601 29.6993 7.46023 31.7716 10.3589 31.7716V25.7716ZM20.1278 22.0879L26.1031 21.544C25.9332 19.6779 24.9013 17.9983 23.3134 17.0035C21.7255 16.0086 19.764 15.8127 18.0107 16.4738L20.1278 22.0879ZM20.3331 24.2841L22.45 29.8983C24.9822 28.9435 26.5618 26.4118 26.3063 23.7178L20.3331 24.2841ZM16.3881 25.7717V31.7717C17.1112 31.7717 17.8284 31.641 18.505 31.3858L16.3881 25.7717ZM14.2325 25.7717L12.1153 20.1576C9.4031 21.1804 7.80989 23.996 8.32972 26.8477C8.84955 29.6994 11.3338 31.7717 14.2325 31.7717V25.7717ZM20.2587 23.4991L26.2319 22.9328C26.0554 21.0712 25.0211 19.3985 23.4347 18.4087C21.8483 17.4189 19.8912 17.2253 18.1416 17.8851L20.2587 23.4991ZM20.4672 25.6954L22.5313 31.3292C25.0912 30.3913 26.697 27.8454 26.4406 25.1312L20.4672 25.6954ZM20.2588 25.7718V31.7718C20.963 31.7718 21.6617 31.6478 22.3229 31.4055L20.2588 25.7718ZM18.1002 25.7718L15.9833 20.1576C13.271 21.1803 11.6776 23.9959 12.1974 26.8476C12.7172 29.6994 15.2014 31.7718 18.1002 31.7718V25.7718ZM20.3927 24.9074L26.3662 24.3431C26.1903 22.4813 25.1563 20.8078 23.5698 19.8176C21.9834 18.8273 20.0258 18.6334 18.2759 19.2932L20.3927 24.9074ZM7.57796 26.5658V20.5658C4.26425 20.5658 1.57796 23.2521 1.57796 26.5658H7.57796ZM18.7134 26.5658H24.7134C24.7134 23.2521 22.0271 20.5658 18.7134 20.5658V26.5658ZM18.7134 27.5799V33.5799C22.0271 33.5799 24.7134 30.8936 24.7134 27.5799H18.7134ZM7.57796 27.5799H1.57796C1.57796 30.8936 4.26425 33.5799 7.57796 33.5799V27.5799ZM11.3295 6V0C8.01579 0 5.3295 2.68629 5.3295 6L11.3295 6ZM14.9649 6H20.9649C20.9649 2.68629 18.2786 0 14.9649 0V6ZM14.9649 7.01409V13.0141C18.2786 13.0141 20.9649 10.3278 20.9649 7.01409H14.9649ZM11.3295 7.01409H5.3295C5.3295 10.3278 8.01579 13.0141 11.3295 13.0141V7.01409ZM37.2656 8.10443L42.7588 5.69105C41.7927 3.49206 39.6083 2.08111 37.2066 2.10472L37.2656 8.10443ZM33.8475 8.13803L33.7885 2.13832C31.4261 2.16154 29.2972 3.569 28.3504 5.73358L33.8475 8.13803ZM25.353 27.5584L19.8559 25.154C19.0492 26.9983 19.2211 29.1244 20.3138 30.8151C21.4065 32.5059 23.2742 33.536 25.2872 33.5581L25.353 27.5584ZM28.9706 27.5981L28.9047 33.5978C31.3299 33.6244 33.5326 32.1884 34.4867 29.9586L28.9706 27.5981ZM30.4384 24.1679L35.9546 26.5284C36.7478 24.6748 36.557 22.5466 35.4466 20.8636C34.3362 19.1807 32.4547 18.1679 30.4384 18.1679V24.1679ZM28.8961 24.1679H22.8961C22.8961 27.4817 25.5824 30.1679 28.8961 30.1679V24.1679ZM28.8961 23.612V17.612C25.5824 17.612 22.8961 20.2983 22.8961 23.612H28.8961ZM42.0383 23.612H48.0383C48.0383 20.2983 45.352 17.612 42.0383 17.612V23.612ZM42.0383 24.1679V30.1679C45.352 30.1679 48.0383 27.4817 48.0383 24.1679H42.0383ZM40.496 24.1679V18.1679C38.4717 18.1679 36.5839 19.1887 35.4755 20.8825C34.367 22.5764 34.1874 24.715 34.9978 26.57L40.496 24.1679ZM42.0026 27.6165L36.5044 30.0185C37.464 32.2151 39.639 33.6298 42.0361 33.6164L42.0026 27.6165ZM45.8285 27.5951L45.8621 33.595C47.8826 33.5837 49.7617 32.5562 50.8616 30.8612C51.9616 29.1663 52.1345 27.0316 51.3218 25.1817L45.8285 27.5951ZM32.067 20.4262L26.5686 18.0246C25.7573 19.8823 25.9387 22.024 27.051 23.7186C28.1634 25.4132 30.0561 26.4317 32.0832 26.4262L32.067 20.4262ZM35.2022 13.2482L40.7006 15.6497C41.0207 14.917 41.191 14.1277 41.2017 13.3282L35.2022 13.2482ZM35.229 11.2383V5.23833C31.9465 5.23833 29.2733 7.87612 29.2296 11.1583L35.229 11.2383ZM35.7352 11.2383H41.7352C41.7352 7.92462 39.0489 5.23833 35.7352 5.23833V11.2383ZM35.7352 13.2146H29.7352C29.7352 14.0388 29.905 14.8542 30.2341 15.61L35.7352 13.2146ZM38.8674 20.4079L38.8836 26.4079C40.9037 26.4024 42.7855 25.3808 43.8904 23.6896C44.9953 21.9984 45.175 19.8647 44.3685 18.0125L38.8674 20.4079ZM73.5659 27.5769L73.6291 33.5765C76.9252 33.5418 79.576 30.8546 79.5658 27.5584L73.5659 27.5769ZM70.0883 27.6135L64.0883 27.641C64.0957 29.2385 64.7397 30.7671 65.8778 31.8881C67.0159 33.0092 68.5541 33.63 70.1515 33.6132L70.0883 27.6135ZM70.0526 19.8093L76.0525 19.7819L76.0524 19.7721L70.0526 19.8093ZM66.7566 16.5838L66.8261 22.5834L66.8279 22.5834L66.7566 16.5838ZM63.4279 19.9285L57.4279 19.9009L57.4279 19.9075L63.4279 19.9285ZM63.4011 27.5891L63.4119 33.5891C66.7132 33.5831 69.3895 30.9114 69.401 27.6101L63.4011 27.5891ZM60.0098 27.5952H54.0098C54.0098 29.1884 54.6434 30.7161 55.771 31.8417C56.8986 32.9672 58.4275 33.5981 60.0206 33.5952L60.0098 27.5952ZM60.0098 7.52116L59.9288 1.5217C56.647 1.56604 54.0098 4.23906 54.0098 7.52116H60.0098ZM63.4011 7.47534H69.4011C69.4011 5.86999 68.7577 4.3316 67.6149 3.20414C66.4722 2.07668 64.9252 1.4542 63.32 1.47589L63.4011 7.47534ZM63.4011 15.1604L68.5363 18.2635C69.102 17.3273 69.4011 16.2543 69.4011 15.1604H63.4011ZM62.493 16.6632L57.3577 13.5601C56.5111 14.9612 56.2737 16.6474 56.7005 18.2277C57.1274 19.8081 58.1814 21.1455 59.6183 21.9298L62.493 16.6632ZM62.9574 16.9167L60.0828 22.1833C62.9734 23.7611 66.5955 22.7141 68.1986 19.8374L62.9574 16.9167ZM67.6587 13.456L67.8597 19.4526L67.8649 19.4525L67.6587 13.456ZM73.5391 18.8838L79.539 18.8653C79.5385 18.7041 79.5316 18.543 79.5181 18.3824L73.5391 18.8838ZM89.3491 21.2725V27.2725C92.5202 27.2725 95.1438 24.8048 95.3378 21.6395L89.3491 21.2725ZM87.5984 15.6736L83.0629 19.6016C83.066 19.6053 83.0692 19.609 83.0724 19.6126L87.5984 15.6736ZM81.9294 13.4164L82.1237 19.4132L82.1262 19.4131L81.9294 13.4164ZM75.1916 20.4142L81.1897 20.5656L81.1897 20.5646L75.1916 20.4142ZM80.0953 27.5953L81.8133 21.8465L81.8121 21.8461L80.0953 27.5953ZM89.2419 23.5695L95.027 25.1609C95.5231 23.3574 95.1498 21.4257 94.0174 19.937C92.885 18.4483 91.1231 17.5728 89.2526 17.5695L89.2419 23.5695ZM85.8328 23.5633L85.8435 17.5633C83.8889 17.5598 82.0551 18.5087 80.9288 20.1063L85.8328 23.5633ZM82.8345 25.0448L82.445 19.0574L82.4332 19.0582L82.8345 25.0448ZM78.69 21.8284L84.5667 20.6183C83.9925 17.8295 81.5373 15.8284 78.69 15.8284V21.8284ZM77.0584 21.8284H71.0584C71.0584 25.1421 73.7447 27.8284 77.0584 27.8284V21.8284ZM77.0584 21.2725V15.2725C73.7447 15.2725 71.0584 17.9588 71.0584 21.2725H77.0584ZM78.8389 18.5601L84.5452 20.4142C84.6539 20.0796 84.733 19.736 84.7816 19.3875L78.8389 18.5601ZM78.8478 18.5296L83.8788 21.7989C84.2069 21.2941 84.4571 20.7427 84.6211 20.1634L78.8478 18.5296ZM78.9431 18.2577L84.5075 20.5021C84.5375 20.4277 84.566 20.3527 84.5931 20.2771L78.9431 18.2577ZM79.0622 17.992L84.3807 20.7693C84.4205 20.693 84.4587 20.6159 84.4952 20.5381L79.0622 17.992ZM79.3212 17.5491L74.4776 14.008C74.465 14.0252 74.4525 14.0425 74.4401 14.0599L79.3212 17.5491ZM79.3748 17.4788L84.2185 21.0199C84.2457 20.9826 84.2725 20.9451 84.2988 20.9072L79.3748 17.4788ZM79.5237 17.2925L84.034 21.2494C84.0712 21.2069 84.1079 21.164 84.1439 21.1205L79.5237 17.2925ZM79.6845 17.1184L75.6765 12.6534C75.5772 12.7425 75.481 12.8348 75.3879 12.9303L79.6845 17.1184ZM79.7559 17.0512L75.6637 12.6633C75.594 12.7283 75.5259 12.7949 75.4594 12.8631L79.7559 17.0512ZM79.8571 16.9626L83.516 21.7179C83.6662 21.6024 83.8108 21.4797 83.9494 21.3505L79.8571 16.9626ZM79.9614 16.8771L83.6202 21.6324C83.6821 21.5848 83.743 21.5359 83.803 21.4859L79.9614 16.8771ZM80.1072 16.7671L76.8273 11.743C76.8145 11.7513 76.8017 11.7598 76.7889 11.7682L80.1072 16.7671ZM80.2055 16.703L77.0604 11.5934C77.0151 11.6213 76.9701 11.6497 76.9256 11.6788L80.2055 16.703ZM80.2948 16.648L83.2248 21.884C83.3172 21.8322 83.4083 21.7781 83.4978 21.7215L80.2948 16.648ZM80.4109 16.5808L83.1494 21.9194C83.1995 21.8937 83.2493 21.8673 83.2987 21.8402L80.4109 16.5808ZM81.0928 16.2967L82.8377 22.0374C82.8629 22.0297 82.888 22.0219 82.913 22.014L81.0928 16.2967ZM81.3578 16.2295L82.5637 22.1071C82.6904 22.0811 82.8162 22.051 82.941 22.0169L81.3578 16.2295ZM81.6317 16.1776L82.419 22.1257C82.5467 22.1088 82.6739 22.0878 82.8002 22.0627L81.6317 16.1776ZM81.9145 16.141L81.4127 10.162C81.3885 10.164 81.3643 10.1662 81.3401 10.1685L81.9145 16.141ZM82.8762 16.1715L81.9408 22.0981C81.9981 22.1072 82.0555 22.1154 82.1131 22.1228L82.8762 16.1715ZM83.162 16.2265L81.6715 22.0384C81.735 22.0547 81.7987 22.0699 81.8627 22.0841L83.162 16.2265ZM83.4896 16.3212L81.4052 21.9475C81.5254 21.992 81.6469 22.0326 81.7696 22.0694L83.4896 16.3212ZM83.701 16.3975L81.2568 21.8771C82.026 22.2202 82.8588 22.3975 83.701 22.3975V16.3975ZM83.7188 16.4036L80.9804 21.7423C81.1885 21.849 81.4026 21.9435 81.6217 22.0252L83.7188 16.4036ZM83.9094 16.4892L81.0692 21.7744C81.2263 21.8588 81.3871 21.9362 81.5511 22.0063L83.9094 16.4892ZM84.0106 16.538L81.0807 21.774C81.1439 21.8094 81.2077 21.8436 81.2722 21.8767L84.0106 16.538ZM84.219 16.6572L81.041 21.7464C81.0613 21.7591 81.0817 21.7716 81.1022 21.7841L84.219 16.6572ZM84.4542 16.819L80.765 21.5508C80.8183 21.5924 80.8724 21.6331 80.9271 21.6728L84.4542 16.819ZM84.6567 16.984L80.5644 21.3719C80.7373 21.5331 80.9196 21.684 81.1103 21.8237L84.6567 16.984ZM84.7133 17.0329L80.4168 21.2209C80.5518 21.3594 80.6934 21.4913 80.8411 21.6161L84.7133 17.0329ZM84.8562 17.1734L80.427 21.2209C80.5931 21.4026 80.7702 21.574 80.9573 21.7339L84.8562 17.1734ZM84.9008 17.2222L79.8698 20.4916C80.084 20.8212 80.33 21.1289 80.6043 21.4103L84.9008 17.2222ZM85.0765 17.4269L80.3061 21.066C80.3246 21.0903 80.3434 21.1145 80.3623 21.1385L85.0765 17.4269ZM85.2522 17.6712L80.1679 20.8572C80.2284 20.9537 80.2915 21.0484 80.3574 21.1413L85.2522 17.6712ZM85.3832 17.8881L80.1167 20.7629C80.1557 20.8343 80.1961 20.9048 80.2379 20.9745L85.3832 17.8881ZM85.4457 18.0072L79.974 20.4689C80.0343 20.6031 80.0996 20.735 80.1697 20.8644L85.4457 18.0072ZM85.5291 18.1783L80.0817 20.6935C80.0993 20.7315 80.1172 20.7693 80.1356 20.807L85.5291 18.1783ZM85.5618 18.2547L79.9265 20.3146C79.9666 20.4242 80.0099 20.5327 80.0563 20.6398L85.5618 18.2547ZM85.6273 18.4257L79.8929 20.1909C79.9417 20.3497 79.9972 20.5064 80.0591 20.6606L85.6273 18.4257ZM85.6839 18.5845L79.9776 20.4386C79.9904 20.4783 80.0037 20.5178 80.0175 20.5572L85.6839 18.5845ZM85.7613 18.8503L85.7586 24.8503C87.6165 24.8511 89.37 23.9912 90.5069 22.5217C91.6438 21.0522 92.0358 19.139 91.5683 17.3408L85.7613 18.8503ZM78.7615 18.8442L72.8934 17.5929C72.8148 17.9616 72.7711 18.3368 72.7629 18.7137L78.7615 18.8442ZM55.8356 27.3051V21.3051C55.0729 21.3051 54.3173 21.4505 53.609 21.7336L55.8356 27.3051ZM45.1438 23.7375L45.1185 17.7376C43.2346 17.7455 41.4638 18.6378 40.3365 20.1472C39.2092 21.6567 38.8563 23.6079 39.3835 25.4166L45.1438 23.7375ZM48.7703 23.7222L53.5337 20.074C52.3929 18.5845 50.6211 17.7144 48.745 17.7223L48.7703 23.7222ZM50.6043 25.0693L49.0326 30.8597L49.0337 30.86L50.6043 25.0693ZM54.865 23.6734L60.8645 23.6012L60.8645 23.5993L54.865 23.6734ZM47.9902 21.3825L45.6871 26.9229L45.6879 26.9232L47.9902 21.3825ZM48.1539 13.9693L50.2772 19.581L50.2797 19.5801L48.1539 13.9693ZM58.0954 17.3017L58.1056 23.3017C59.9708 23.2985 61.7284 22.4282 62.8615 20.9466C63.9945 19.465 64.3741 17.5408 63.8886 15.7399L58.0954 17.3017ZM54.4928 17.3078L49.4738 20.5957C50.5845 22.2911 52.4761 23.3112 54.503 23.3078L54.4928 17.3078ZM48.9608 17.4422L54.9608 17.4716L54.9608 17.4615L48.9608 17.4422ZM58.3455 23.1419L52.3603 23.5618L52.3605 23.5656L58.3455 23.1419ZM55.8386 27.3051V33.3051C56.6024 33.3051 57.3591 33.1593 58.0682 32.8755L55.8386 27.3051ZM102 17.1581L102.048 23.1579C105.349 23.1314 108.008 20.4436 108 17.1427L102 17.1581ZM97.8227 17.1917L97.7745 11.1919L97.7654 11.192L97.8227 17.1917ZM94.4851 19.7361L88.4851 19.706L88.4851 19.7111L94.4851 19.7361ZM94.4523 27.5953L94.4685 33.5953C97.7661 33.5864 100.439 30.9179 100.452 27.6203L94.4523 27.5953ZM91.0462 27.6045H85.0462C85.0462 29.1986 85.6805 30.7271 86.8093 31.8528C87.938 32.9785 89.4682 33.6087 91.0623 33.6044L91.0462 27.6045ZM91.0462 13.7738L91.0189 7.77384C87.7159 7.78888 85.0462 10.4707 85.0462 13.7738H91.0462ZM94.3987 13.7585L100.122 11.957C99.3323 9.44854 97.0012 7.74658 94.3714 7.75856L94.3987 13.7585ZM94.36 15.2674L99.4912 18.3772C99.6978 18.0364 99.8699 17.6758 100.005 17.3009L94.36 15.2674ZM93.5085 16.6725L88.3773 13.5627C87.5281 14.9639 87.2889 16.6513 87.715 18.2332C88.1412 19.8152 89.1958 21.1541 90.6339 21.939L93.5085 16.6725ZM93.973 16.926L91.0983 22.1925C93.9144 23.7297 97.4415 22.7794 99.1042 20.0357L93.973 16.926ZM95.0984 15.0689L90.4415 11.2856C90.2682 11.499 90.1096 11.7241 89.9671 11.9592L95.0984 15.0689ZM95.1193 15.0414L90.4659 11.2538C90.3308 11.4197 90.2048 11.5927 90.0882 11.772L95.1193 15.0414ZM98.2664 13.7127L98.2172 7.71289C98.2123 7.71293 98.2074 7.71297 98.2026 7.71302L98.2664 13.7127ZM101.991 13.6821L107.991 13.6667C107.987 12.0696 107.346 10.54 106.211 9.41671C105.075 8.29345 103.539 7.66924 101.942 7.68234L101.991 13.6821ZM78.7614 18.8471L72.7628 18.7166C72.7277 20.3297 73.3438 21.8889 74.4719 23.0424C75.6001 24.1958 77.1452 24.8464 78.7587 24.8471L78.7614 18.8471ZM9.80801 7.80823L7.68953 2.19467L5.44755 3.04076L7.56604 8.65432L9.68452 14.2679L11.9265 13.4218L9.80801 7.80823ZM7.56604 8.65432L13.5389 9.22388L13.6193 8.38084L7.64643 7.81128L1.67352 7.24172L1.59313 8.08476L7.56604 8.65432ZM7.64643 7.81128L10.3848 13.1499L10.3908 13.1469L7.65238 7.80823L4.914 2.46957L4.90805 2.47262L7.64643 7.81128ZM7.65238 7.80823V13.8082H9.80801V7.80823V1.80823H7.65238V7.80823ZM13.6846 7.80823L11.5676 2.19412L5.30612 4.55523L7.42313 10.1693L9.54014 15.7835L15.8016 13.4223L13.6846 7.80823ZM7.42313 10.1693L13.396 10.7389L13.4764 9.89587L7.50352 9.32631L1.53061 8.75675L1.45022 9.59978L7.42313 10.1693ZM7.50352 9.32631L9.62344 14.9393L13.6429 13.4212L11.523 7.80823L9.40307 2.19522L5.38359 3.71329L7.50352 9.32631ZM11.523 7.80823V13.8082H13.6846V7.80823V1.80823H11.523V7.80823ZM17.5522 7.80823L15.4339 2.1946L5.16192 6.07074L7.28022 11.6844L9.39852 17.298L19.6705 13.4219L17.5522 7.80823ZM7.28022 11.6844L13.2531 12.2539L13.3335 11.4109L7.36061 10.8413L1.3877 10.2718L1.30731 11.1148L7.28022 11.6844ZM7.36061 10.8413L9.47935 16.4548L17.5153 13.4217L15.3966 7.80823L13.2778 2.19477L5.24186 5.22787L7.36061 10.8413ZM15.3966 7.80823V13.8082H17.5522V7.80823V1.80823H15.3966V7.80823ZM18.8713 8.77041L16.7533 3.15668L5.02236 7.58262L7.14036 13.1964L9.25836 18.8101L20.9893 14.3842L18.8713 8.77041ZM7.14036 13.1964L13.1152 13.745L13.1926 12.902L7.21778 12.3533L1.24291 11.8047L1.1655 12.6477L7.14036 13.1964ZM7.21778 12.3533L9.33498 17.9674L20.917 13.5995L18.7998 7.98541L16.6826 2.37137L5.10057 6.73928L7.21778 12.3533ZM18.7998 7.98541L12.8245 8.52933L12.896 9.31433L18.8713 8.77041L24.8466 8.2265L24.7751 7.4415L18.7998 7.98541ZM19.0053 10.1816L16.8875 4.56779L4.87971 9.09758L6.99745 14.7114L9.1152 20.3253L21.123 15.7955L19.0053 10.1816ZM6.99745 14.7114L12.9723 15.2601L13.0497 14.417L7.07487 13.8684L1.1 13.3197L1.02259 14.1628L6.99745 14.7114ZM7.07487 13.8684L9.1923 19.4823L21.0483 15.0106L18.9308 9.39662L16.8134 3.78267L4.95743 8.25443L7.07487 13.8684ZM18.9308 9.39662L12.9576 9.96301L13.0321 10.748L19.0053 10.1816L24.9785 9.61523L24.904 8.83023L18.9308 9.39662ZM19.1393 11.5895L17.0205 5.97608L4.73582 10.6128L6.85455 16.2262L8.97327 21.8397L21.258 17.203L19.1393 11.5895ZM6.85455 16.2262L12.8275 16.7958L12.9078 15.9528L6.93494 15.3832L0.962029 14.8137L0.88164 15.6567L6.85455 16.2262ZM6.93494 15.3832L9.05383 20.9966L21.1837 16.4179L19.0648 10.8045L16.9459 5.19114L4.81604 9.76981L6.93494 15.3832ZM19.0648 10.8045L13.0916 11.3709L13.166 12.1559L19.1393 11.5895L25.1125 11.0232L25.038 10.2382L19.0648 10.8045ZM19.2703 13.0008L17.1525 7.3869L4.59392 12.1244L6.71164 17.7383L8.82935 23.3521L21.388 18.6146L19.2703 13.0008ZM6.71164 17.7383L12.6845 18.3078L12.7649 17.4648L6.79203 16.8952L0.81912 16.3257L0.738731 17.1687L6.71164 17.7383ZM6.79203 16.8952L8.90989 22.509L21.3137 17.8295L19.1958 12.2158L17.078 6.60196L4.67416 11.2814L6.79203 16.8952ZM19.1958 12.2158L13.2226 12.7821L13.2971 13.5671L19.2703 13.0008L25.2435 12.4344L25.169 11.6494L19.1958 12.2158ZM19.4043 14.412L17.2868 8.79802L4.45124 13.6394L6.56873 19.2533L8.68621 24.8672L21.5217 20.0259L19.4043 14.412ZM6.56873 19.2533L12.5416 19.8229L12.622 18.9798L6.64912 18.4103L0.676212 17.8407L0.595822 18.6838L6.56873 19.2533ZM6.64912 18.4103L8.76674 24.0242L21.4474 19.2408L19.3298 13.627L17.2122 8.01308L4.53149 12.7964L6.64912 18.4103ZM19.3298 13.627L13.3566 14.1933L13.431 14.9783L19.4043 14.412L25.3775 13.8456L25.303 13.0606L19.3298 13.627ZM19.5353 15.8232L17.4176 10.2094L4.30813 15.1546L6.42582 20.7684L8.5435 26.3823L21.6529 21.4371L19.5353 15.8232ZM6.42582 20.7684L12.3989 21.336L12.4793 20.4899L6.50621 19.9223L0.533109 19.3548L0.452719 20.2009L6.42582 20.7684ZM6.50621 19.9223L8.62361 25.5363L21.5812 20.6491L19.4638 15.0352L17.3464 9.42121L4.38881 14.3084L6.50621 19.9223ZM19.4638 15.0352L13.4883 15.577L13.5598 16.3651L19.5353 15.8232L25.5107 15.2814L25.4393 14.4934L19.4638 15.0352ZM19.6693 17.2314L17.5518 11.6174L4.16544 16.6665L6.28291 22.2804L8.40038 27.8944L21.7867 22.8453L19.6693 17.2314ZM6.28291 22.2804L12.2558 22.85L12.3362 22.007L6.3633 21.4374L0.390394 20.8679L0.310004 21.7109L6.28291 22.2804ZM6.3633 21.4374L8.4809 27.0513L21.7124 22.0603L19.5948 16.4464L17.4772 10.8325L4.2457 15.8235L6.3633 21.4374ZM19.5948 16.4464L13.6216 17.0128L13.696 17.7978L19.6693 17.2314L25.6425 16.665L25.568 15.88L19.5948 16.4464ZM6.14 23.7954L12.1129 24.3649L12.1933 23.5219L6.22039 22.9523L0.247485 22.3828L0.167096 23.2258L6.14 23.7954ZM21.2651 17.2771L15.2919 17.8435L15.3664 18.6285L21.3396 18.0621L27.3128 17.4957L27.2383 16.7107L21.2651 17.2771ZM19.9342 20.0535L17.8163 14.4397L3.88216 19.6965L6 25.3103L8.11784 30.9241L22.052 25.6673L19.9342 20.0535ZM6 25.3103L11.9749 25.8589L12.0523 25.0159L6.07741 24.4672L0.102549 23.9186L0.0251369 24.7616L6 25.3103ZM6.07741 24.4672L8.19499 30.0811L21.9773 24.8824L19.8597 19.2685L17.7422 13.6546L3.95984 18.8533L6.07741 24.4672ZM19.8597 19.2685L13.8865 19.8349L13.961 20.6199L19.9342 20.0535L25.9074 19.4871L25.833 18.7021L19.8597 19.2685ZM20.0682 21.4617L17.9499 15.8481L6.52861 20.158L8.64694 25.7716L10.7653 31.3852L22.1865 27.0753L20.0682 21.4617ZM8.64694 25.7716V19.7716H6.48833V25.7716V31.7716H8.64694V25.7716ZM6.48833 25.7716L8.60613 31.3854L22.1116 26.2905L19.9938 20.6767L17.876 15.0629L4.37054 20.1578L6.48833 25.7716ZM19.9938 20.6767L14.0206 21.2431L14.095 22.0281L20.0682 21.4617L26.0414 20.8953L25.967 20.1103L19.9938 20.6767ZM20.1992 22.8729L18.0802 17.2596L10.4015 20.1583L12.5205 25.7716L14.6396 31.385L22.3182 28.4863L20.1992 22.8729ZM12.5205 25.7716V19.7716H10.3589V25.7716V31.7716H12.5205V25.7716ZM10.3589 25.7716L12.476 31.3857L22.2448 27.702L20.1278 22.0879L18.0107 16.4738L8.24192 20.1575L10.3589 25.7716ZM20.1278 22.0879L14.1525 22.6318L14.2239 23.4168L20.1992 22.8729L26.1745 22.329L26.1031 21.544L20.1278 22.0879ZM20.3331 24.2841L18.2162 18.67L14.2712 20.1575L16.3881 25.7717L18.505 31.3858L22.45 29.8983L20.3331 24.2841ZM16.3881 25.7717V19.7717H14.2325V25.7717V31.7717H16.3881V25.7717ZM14.2325 25.7717L16.3496 31.3857L22.3758 29.1132L20.2587 23.4991L18.1416 17.8851L12.1153 20.1576L14.2325 25.7717ZM20.2587 23.4991L14.2855 24.0655L14.3599 24.8505L20.3331 24.2841L26.3063 23.7178L26.2319 22.9328L20.2587 23.4991ZM20.4672 25.6954L18.403 20.0617L18.1946 20.138L20.2588 25.7718L22.3229 31.4055L22.5313 31.3292L20.4672 25.6954ZM20.2588 25.7718V19.7718H18.1002V25.7718V31.7718H20.2588V25.7718ZM18.1002 25.7718L20.217 31.386L22.5096 30.5215L20.3927 24.9074L18.2759 19.2932L15.9833 20.1576L18.1002 25.7718ZM20.3927 24.9074L14.4193 25.4716L14.4938 26.2596L20.4672 25.6954L26.4406 25.1312L26.3662 24.3431L20.3927 24.9074ZM7.57796 26.5658V32.5658H18.7134V26.5658V20.5658H7.57796V26.5658ZM18.7134 26.5658H12.7134V27.5799H18.7134H24.7134V26.5658H18.7134ZM18.7134 27.5799V21.5799H7.57796V27.5799V33.5799H18.7134V27.5799ZM7.57796 27.5799H13.578V26.5658H7.57796H1.57796V27.5799H7.57796ZM11.3295 6V12H14.9649V6V0H11.3295V6ZM14.9649 6H8.96489V7.01409H14.9649H20.9649V6H14.9649ZM14.9649 7.01409V1.01409H11.3295V7.01409V13.0141H14.9649V7.01409ZM11.3295 7.01409H17.3295V6H11.3295H5.3295V7.01409H11.3295ZM37.2656 8.10443L37.2066 2.10472L33.7885 2.13832L33.8475 8.13803L33.9065 14.1377L37.3245 14.1041L37.2656 8.10443ZM33.8475 8.13803L28.3504 5.73358L19.8559 25.154L25.353 27.5584L30.8502 29.9629L39.3447 10.5425L33.8475 8.13803ZM25.353 27.5584L25.2872 33.5581L28.9047 33.5978L28.9706 27.5981L29.0364 21.5985L25.4189 21.5588L25.353 27.5584ZM28.9706 27.5981L34.4867 29.9586L35.9546 26.5284L30.4384 24.1679L24.9222 21.8075L23.4544 25.2376L28.9706 27.5981ZM30.4384 24.1679V18.1679H28.8961V24.1679V30.1679H30.4384V24.1679ZM28.8961 24.1679H34.8961V23.612H28.8961H22.8961V24.1679H28.8961ZM28.8961 23.612V29.612H42.0383V23.612V17.612H28.8961V23.612ZM42.0383 23.612H36.0383V24.1679H42.0383H48.0383V23.612H42.0383ZM42.0383 24.1679V18.1679H40.496V24.1679V30.1679H42.0383V24.1679ZM40.496 24.1679L34.9978 26.57L36.5044 30.0185L42.0026 27.6165L47.5008 25.2144L45.9942 21.7659L40.496 24.1679ZM42.0026 27.6165L42.0361 33.6164L45.8621 33.595L45.8285 27.5951L45.795 21.5952L41.9691 21.6166L42.0026 27.6165ZM45.8285 27.5951L51.3218 25.1817L42.7588 5.69105L37.2656 8.10443L31.7723 10.5178L40.3353 30.0085L45.8285 27.5951ZM32.067 20.4262L37.5655 22.8278L40.7006 15.6497L35.2022 13.2482L29.7038 10.8466L26.5686 18.0246L32.067 20.4262ZM35.2022 13.2482L41.2017 13.3282L41.2285 11.3183L35.229 11.2383L29.2296 11.1583L29.2028 13.1682L35.2022 13.2482ZM35.229 11.2383V17.2383H35.7352V11.2383V5.23833H35.229V11.2383ZM35.7352 11.2383H29.7352V13.2146H35.7352H41.7352V11.2383H35.7352ZM35.7352 13.2146L30.2341 15.61L33.3663 22.8033L38.8674 20.4079L44.3685 18.0125L41.2363 10.8192L35.7352 13.2146ZM38.8674 20.4079L38.8512 14.4079L32.0509 14.4262L32.067 20.4262L32.0832 26.4262L38.8836 26.4079L38.8674 20.4079ZM73.5659 27.5769L73.5026 21.5772L70.025 21.6139L70.0883 27.6135L70.1515 33.6132L73.6291 33.5765L73.5659 27.5769ZM70.0883 27.6135L76.0882 27.5861L76.0525 19.7819L70.0526 19.8093L64.0526 19.8368L64.0883 27.641L70.0883 27.6135ZM70.0526 19.8093L76.0524 19.7721C76.0188 14.3545 71.6354 10.5254 66.6852 10.5842L66.7566 16.5838L66.8279 22.5834C66.2142 22.5907 65.5096 22.3599 64.9364 21.8139C64.338 21.2439 64.0567 20.4935 64.0527 19.8466L70.0526 19.8093ZM66.7566 16.5838L66.6871 10.5842C61.6964 10.642 57.4525 14.553 57.4279 19.9009L63.4279 19.9285L69.4278 19.956C69.4251 20.5531 69.172 21.261 68.6114 21.8126C68.0695 22.3458 67.4005 22.5767 66.8261 22.5834L66.7566 16.5838ZM63.4279 19.9285L57.4279 19.9075L57.4011 27.5681L63.4011 27.5891L69.401 27.6101L69.4278 19.9494L63.4279 19.9285ZM63.4011 27.5891L63.3903 21.5891L59.999 21.5952L60.0098 27.5952L60.0206 33.5952L63.4119 33.5891L63.4011 27.5891ZM60.0098 27.5952H66.0098V7.52116H60.0098H54.0098V27.5952H60.0098ZM60.0098 7.52116L60.0909 13.5206L63.4821 13.4748L63.4011 7.47534L63.32 1.47589L59.9288 1.5217L60.0098 7.52116ZM63.4011 7.47534H57.4011V15.1604H63.4011H69.4011V7.47534H63.4011ZM63.4011 15.1604L58.2658 12.0573L57.3577 13.5601L62.493 16.6632L67.6282 19.7663L68.5363 18.2635L63.4011 15.1604ZM62.493 16.6632L59.6183 21.9298L60.0828 22.1833L62.9574 16.9167L65.8321 11.6502L65.3676 11.3967L62.493 16.6632ZM62.9574 16.9167C68.1986 19.8374 68.1977 19.839 68.1968 19.8406C68.1965 19.8411 68.1956 19.8427 68.1951 19.8437C68.1939 19.8458 68.1928 19.8478 68.1917 19.8497C68.1895 19.8537 68.1874 19.8574 68.1854 19.861C68.1813 19.8682 68.1777 19.8746 68.1744 19.8804C68.1678 19.892 68.1626 19.9009 68.1588 19.9074C68.1513 19.9202 68.1492 19.9236 68.1521 19.9187C68.1586 19.9083 68.1833 19.8687 68.2241 19.8099C68.3129 19.682 68.4356 19.5237 68.5694 19.3848C68.9967 18.9413 68.7753 19.422 67.8597 19.4526L67.6587 13.456L67.4578 7.45938C63.7166 7.58475 61.1446 9.79578 59.9276 11.059C59.2393 11.7734 58.7165 12.4625 58.3652 12.9687C58.186 13.2269 58.0422 13.4511 57.935 13.6251C57.8811 13.7125 57.836 13.7882 57.7996 13.8504C57.7814 13.8816 57.7653 13.9094 57.7514 13.9337C57.7445 13.9459 57.7381 13.9572 57.7322 13.9676C57.7293 13.9728 57.7265 13.9778 57.7239 13.9825C57.7225 13.9849 57.7212 13.9872 57.72 13.9895C57.7193 13.9906 57.7184 13.9922 57.7181 13.9928C57.7172 13.9944 57.7163 13.9961 62.9574 16.9167ZM67.6587 13.456L67.8649 19.4525C67.9347 19.4501 67.9193 19.4619 67.8472 19.4358C67.7746 19.4095 67.692 19.3617 67.6202 19.2953C67.5496 19.23 67.5218 19.1769 67.5183 19.1695C67.5154 19.1633 67.5467 19.2265 67.5601 19.3852L73.5391 18.8838L79.5181 18.3824C78.9925 12.1155 74.0658 7.23214 67.4525 7.45956L67.6587 13.456ZM73.5391 18.8838L67.5391 18.9023L67.5659 27.5954L73.5659 27.5769L79.5658 27.5584L79.539 18.8653L73.5391 18.8838ZM89.3491 21.2725L95.3378 21.6395C95.5394 18.3504 94.6925 14.6855 92.1243 11.7346L87.5984 15.6736L83.0724 19.6126C83.1839 19.7407 83.4088 20.1137 83.3603 20.9054L89.3491 21.2725ZM87.5984 15.6736L92.1339 11.7456C89.2145 8.37472 85.1918 7.30606 81.7326 7.41958L81.9294 13.4164L82.1262 19.4131C82.5327 19.3998 82.7878 19.4614 82.9124 19.5082C83.0126 19.5459 83.0396 19.5748 83.0629 19.6016L87.5984 15.6736ZM81.9294 13.4164L81.7351 7.4195C74.4868 7.65438 69.3662 13.3757 69.1935 20.2638L75.1916 20.4142L81.1897 20.5646C81.2038 20.0015 81.3918 19.7364 81.4853 19.6386C81.5645 19.5557 81.7257 19.4261 82.1237 19.4132L81.9294 13.4164ZM75.1916 20.4142L69.1935 20.2627C69.0525 25.8464 72.2254 31.507 78.3785 33.3444L80.0953 27.5953L81.8121 21.8461C81.6083 21.7852 81.5065 21.6968 81.4205 21.5673C81.3146 21.408 81.1767 21.0807 81.1897 20.5656L75.1916 20.4142ZM80.0953 27.5953L78.3773 33.344C81.2344 34.1978 84.5858 34.21 87.6222 33.0875C90.7999 31.9127 93.8733 29.3549 95.027 25.1609L89.2419 23.5695L83.4568 21.978C83.4552 21.9836 83.4633 21.9541 83.4913 21.906C83.519 21.8586 83.5515 21.8181 83.5804 21.7891C83.6373 21.7319 83.6257 21.7712 83.4612 21.832C83.2919 21.8945 83.0294 21.9527 82.6973 21.9592C82.3655 21.9657 82.0548 21.9186 81.8133 21.8465L80.0953 27.5953ZM89.2419 23.5695L89.2526 17.5695L85.8435 17.5633L85.8328 23.5633L85.822 29.5633L89.2311 29.5694L89.2419 23.5695ZM85.8328 23.5633L80.9288 20.1063C81.1994 19.7224 81.5976 19.3984 82.0203 19.2047C82.3785 19.0405 82.5824 19.0485 82.445 19.0574L82.8345 25.0448L83.2241 31.0321C85.4768 30.8856 88.5893 30.0665 90.7367 27.0204L85.8328 23.5633ZM82.8345 25.0448L82.4332 19.0582C82.817 19.0325 83.3643 19.1507 83.8498 19.534C84.3155 19.9018 84.5097 20.3412 84.5667 20.6183L78.69 21.8284L72.8133 23.0385C73.7931 27.7967 77.9588 31.3851 83.2358 31.0313L82.8345 25.0448ZM78.69 21.8284V15.8284H77.0584V21.8284V27.8284H78.69V21.8284ZM77.0584 21.8284H83.0584V21.2725H77.0584H71.0584V21.8284H77.0584ZM77.0584 21.2725V27.2725H89.3491V21.2725V15.2725H77.0584V21.2725ZM78.8389 18.5601C84.7816 19.3875 84.7815 19.3882 84.7814 19.3888C84.7813 19.389 84.7813 19.3896 84.7812 19.39C84.7811 19.3909 84.781 19.3917 84.7809 19.3926C84.7806 19.3942 84.7804 19.3959 84.7801 19.3976C84.7797 19.401 84.7792 19.4044 84.7787 19.4079C84.7777 19.4148 84.7767 19.4219 84.7756 19.4292C84.7735 19.4436 84.7712 19.4588 84.7688 19.4747C84.7639 19.5063 84.7581 19.5419 84.7513 19.581C84.7386 19.6547 84.7186 19.7615 84.6893 19.8895C84.6624 20.0067 84.6115 20.2131 84.5262 20.4647C84.4616 20.6553 84.2733 21.1919 83.8788 21.7989L78.8478 18.5296L73.8168 15.2602C73.4193 15.8718 73.2284 16.4145 73.1616 16.6117C73.0741 16.8699 73.0213 17.0833 72.993 17.207C72.9621 17.3415 72.941 17.4543 72.9275 17.5322C72.9204 17.5735 72.9143 17.6108 72.9093 17.6436C72.9067 17.6601 72.9044 17.6758 72.9022 17.6906C72.9011 17.698 72.9001 17.7052 72.8991 17.7122C72.8986 17.7157 72.8981 17.7191 72.8976 17.7226C72.8974 17.7243 72.8971 17.726 72.8969 17.7276C72.8968 17.7285 72.8967 17.7293 72.8966 17.7302C72.8965 17.7306 72.8964 17.7312 72.8964 17.7314C72.8963 17.732 72.8962 17.7327 78.8389 18.5601ZM78.8478 18.5296L84.6211 20.1634C84.5665 20.3564 84.5133 20.4877 84.5075 20.5021L78.9431 18.2577L73.3787 16.0133C73.3014 16.2049 73.1828 16.5133 73.0745 16.8957L78.8478 18.5296ZM78.9431 18.2577L84.5931 20.2771C84.4995 20.5387 84.4079 20.7173 84.3807 20.7693L79.0622 17.992L73.7437 15.2147C73.6272 15.4377 73.4521 15.7934 73.2931 16.2383L78.9431 18.2577ZM79.0622 17.992L84.4952 20.5381C84.4129 20.7136 84.3139 20.8823 84.2024 21.0382L79.3212 17.5491L74.4401 14.0599C74.1321 14.4908 73.8603 14.9527 73.6292 15.4459L79.0622 17.992ZM79.3212 17.5491L84.1649 21.0901C84.1345 21.1317 84.1098 21.1642 84.0953 21.183C84.0881 21.1924 84.0826 21.1995 84.0801 21.2028C84.078 21.2055 84.0765 21.2074 84.0793 21.2037C84.081 21.2017 84.0869 21.194 84.0935 21.1856C84.1005 21.1766 84.1104 21.1637 84.1221 21.1484C84.1455 21.118 84.1792 21.0736 84.2185 21.0199L79.3748 17.4788L74.5312 13.9378C74.5615 13.8962 74.5863 13.8637 74.6007 13.8449C74.6079 13.8354 74.6134 13.8284 74.616 13.8251C74.618 13.8224 74.6195 13.8205 74.6167 13.8242C74.6151 13.8262 74.6091 13.8339 74.6026 13.8423C74.5956 13.8513 74.5856 13.8642 74.5739 13.8794C74.5505 13.9099 74.5169 13.9542 74.4776 14.008L79.3212 17.5491ZM79.3748 17.4788L84.2988 20.9072C84.1581 21.1093 84.0423 21.24 84.034 21.2494L79.5237 17.2925L75.0133 13.3356C74.8979 13.4672 74.6808 13.7201 74.4508 14.0504L79.3748 17.4788ZM79.5237 17.2925L84.1439 21.1205C84.0703 21.2093 84.0111 21.2737 83.9829 21.3039C83.9756 21.3116 83.9699 21.3176 83.9662 21.3216C83.9625 21.3255 83.9603 21.3277 83.9602 21.3278C83.9602 21.3278 83.9615 21.3265 83.9651 21.3227C83.9691 21.3187 83.9735 21.3142 83.981 21.3065L79.6845 17.1184L75.3879 12.9303C75.3578 12.9613 75.1339 13.1864 74.9035 13.4645L79.5237 17.2925ZM79.6845 17.1184L83.6925 21.5834C83.6985 21.5779 83.868 21.4285 84.0524 21.2393L79.7559 17.0512L75.4594 12.8631C75.5345 12.7861 75.5968 12.727 75.6348 12.6916C75.6675 12.6612 75.6945 12.6373 75.6765 12.6534L79.6845 17.1184ZM79.7559 17.0512L83.8482 21.4391C83.8733 21.4157 83.8376 21.4493 83.7922 21.4897C83.7405 21.5356 83.6445 21.619 83.516 21.7179L79.8571 16.9626L76.1983 12.2073C76.0341 12.3337 75.9038 12.4461 75.8186 12.5218C75.7397 12.592 75.6713 12.6562 75.6637 12.6633L79.7559 17.0512ZM79.8571 16.9626L83.9494 21.3505C83.8294 21.4624 83.7306 21.544 83.6779 21.5866C83.6312 21.6243 83.5928 21.6535 83.6202 21.6324L79.9614 16.8771L76.3025 12.1218C76.2942 12.1282 76.22 12.1849 76.1384 12.2508C76.0507 12.3216 75.9176 12.4323 75.7649 12.5747L79.8571 16.9626ZM79.9614 16.8771L83.803 21.4859C83.7356 21.5421 83.6053 21.6467 83.4256 21.766L80.1072 16.7671L76.7889 11.7682C76.5079 11.9548 76.2824 12.1326 76.1197 12.2682L79.9614 16.8771ZM80.1072 16.7671L83.3872 21.7913L83.4854 21.7271L80.2055 16.703L76.9256 11.6788L76.8273 11.743L80.1072 16.7671ZM80.2055 16.703L83.3506 21.8126C83.3944 21.7856 83.4298 21.7632 83.4451 21.7534C83.4493 21.7508 83.4529 21.7485 83.4552 21.7471C83.4583 21.7451 83.4584 21.745 83.4596 21.7442C83.4613 21.7432 83.4577 21.7455 83.452 21.749C83.4294 21.7633 83.3425 21.8181 83.2248 21.884L80.2948 16.648L77.3649 11.412C77.2144 11.4962 77.0977 11.5693 77.0461 11.6019C77.0302 11.6119 76.996 11.6337 77.0097 11.625C77.0106 11.6244 77.0315 11.6112 77.0604 11.5934L80.2055 16.703ZM80.2948 16.648L83.4978 21.7215C83.4573 21.7471 83.3272 21.8282 83.1494 21.9194L80.4109 16.5808L77.6725 11.2422C77.4113 11.3761 77.2098 11.5 77.0918 11.5745L80.2948 16.648ZM80.4109 16.5808L83.2987 21.8402C83.1149 21.9411 82.9567 22.0012 82.8377 22.0374L81.0928 16.2967L79.3478 10.5561C78.7465 10.7389 78.1298 10.9884 77.5232 11.3214L80.4109 16.5808ZM81.0928 16.2967L82.913 22.014C82.7265 22.0734 82.593 22.1011 82.5637 22.1071L81.3578 16.2295L80.1518 10.352C79.9439 10.3946 79.6318 10.4651 79.2725 10.5795L81.0928 16.2967ZM81.3578 16.2295L82.941 22.0169C82.6491 22.0967 82.4349 22.1236 82.419 22.1257L81.6317 16.1776L80.8443 10.2295C80.6439 10.256 80.245 10.3135 79.7745 10.4422L81.3578 16.2295ZM81.6317 16.1776L82.8002 22.0627C82.6517 22.0922 82.5401 22.1067 82.4937 22.1123C82.481 22.1138 82.4711 22.1149 82.4646 22.1156C82.4582 22.1164 82.4545 22.1167 82.4542 22.1168C82.4541 22.1168 82.4563 22.1165 82.4624 22.116C82.4689 22.1153 82.4763 22.1146 82.4889 22.1134L81.9145 16.141L81.3401 10.1685C81.2989 10.1725 80.9007 10.2056 80.4631 10.2925L81.6317 16.1776ZM81.9145 16.141L82.4164 22.1199C82.3099 22.1289 82.1495 22.1311 81.9408 22.0981L82.8762 16.1715L83.8116 10.2449C82.9837 10.1142 82.1741 10.0981 81.4127 10.162L81.9145 16.141ZM82.8762 16.1715L82.1131 22.1228C81.9574 22.1028 81.8098 22.0739 81.6715 22.0384L83.162 16.2265L84.6526 10.4146C84.3237 10.3302 83.9856 10.2646 83.6394 10.2202L82.8762 16.1715ZM83.162 16.2265L81.8627 22.0841C81.7712 22.0638 81.6098 22.0233 81.4052 21.9475L83.4896 16.3212L85.5739 10.6948C85.155 10.5397 84.7732 10.438 84.4614 10.3688L83.162 16.2265ZM83.4896 16.3212L81.7696 22.0694C81.7023 22.0492 81.5082 21.9893 81.2568 21.8771L83.701 16.3975L86.1451 10.9179C85.7568 10.7447 85.4197 10.6359 85.2095 10.573L83.4896 16.3212ZM83.701 16.3975V22.3975C82.6954 22.3975 81.9298 22.1433 81.5554 21.9993C81.206 21.8649 80.9192 21.7109 80.9804 21.7423L83.7188 16.4036L86.4573 11.065C86.4572 11.065 86.4569 11.0648 86.4565 11.0646C86.456 11.0644 86.4554 11.064 86.4546 11.0636C86.4531 11.0629 86.4507 11.0616 86.4477 11.0601C86.4419 11.0572 86.4326 11.0524 86.4211 11.0466C86.3987 11.0353 86.3613 11.0166 86.3148 10.9942C86.2259 10.9515 86.0676 10.8778 85.8644 10.7996C85.484 10.6533 84.7124 10.3975 83.701 10.3975V16.3975ZM83.7188 16.4036L81.6217 22.0252C81.4719 21.9693 81.2812 21.8883 81.0692 21.7744L83.9094 16.4892L86.7495 11.2039C86.4126 11.0229 86.0967 10.8868 85.816 10.7821L83.7188 16.4036ZM83.9094 16.4892L81.5511 22.0063C81.4768 21.9745 81.2998 21.8966 81.0807 21.774L84.0106 16.538L86.9405 11.3021C86.6559 11.1428 86.4134 11.0343 86.2677 10.9721L83.9094 16.4892ZM84.0106 16.538L81.2722 21.8767C81.1619 21.8201 81.0816 21.7717 81.041 21.7464L84.219 16.6572L87.397 11.5679C87.2195 11.4571 87.0023 11.3293 86.749 11.1994L84.0106 16.538ZM84.219 16.6572L81.1022 21.7841C80.9995 21.7217 80.8871 21.646 80.765 21.5508L84.4542 16.819L88.1435 12.0873C87.8725 11.876 87.5993 11.6904 87.3359 11.5302L84.219 16.6572ZM84.4542 16.819L80.9271 21.6728C80.8641 21.627 80.7269 21.5234 80.5644 21.3719L84.6567 16.984L88.749 12.5961C88.4555 12.3224 88.1873 12.1149 87.9814 11.9652L84.4542 16.819ZM84.6567 16.984L81.1103 21.8237C80.8901 21.6624 80.6524 21.4627 80.4168 21.2209L84.7133 17.0329L89.0098 12.8448C88.7384 12.5663 88.4649 12.3361 88.2031 12.1443L84.6567 16.984ZM84.7133 17.0329L80.8411 21.6161C80.7171 21.5114 80.6215 21.4202 80.5575 21.3566C80.4934 21.2929 80.4476 21.2434 80.427 21.2209L84.8562 17.1734L89.2853 13.1258C89.1663 12.9956 88.9205 12.7327 88.5854 12.4496L84.7133 17.0329ZM84.8562 17.1734L80.9573 21.7339C80.7292 21.5389 80.2841 21.1291 79.8698 20.4916L84.9008 17.2222L89.9319 13.9529C89.4938 13.2787 89.0189 12.8384 88.7551 12.6128L84.8562 17.1734ZM84.9008 17.2222L80.6043 21.4103C80.4742 21.2769 80.3771 21.1591 80.3061 21.066L85.0765 17.4269L89.8469 13.7878C89.6687 13.5542 89.4525 13.2959 89.1974 13.0342L84.9008 17.2222ZM85.0765 17.4269L80.3623 21.1385C80.3763 21.1563 80.2828 21.0405 80.1679 20.8572L85.2522 17.6712L90.3364 14.4853C90.1144 14.1309 89.9018 13.8563 89.7908 13.7153L85.0765 17.4269ZM85.2522 17.6712L80.3574 21.1413C80.2652 21.0112 80.2 20.9054 80.1639 20.8447C80.1293 20.7866 80.109 20.7487 80.1167 20.7629L85.3832 17.8881L90.6496 15.0133C90.5927 14.909 90.4109 14.5736 90.147 14.2012L85.2522 17.6712ZM85.3832 17.8881L80.2379 20.9745C80.1482 20.825 80.0583 20.6565 79.974 20.4689L85.4457 18.0072L90.9175 15.5456C90.7973 15.2786 90.6658 15.0307 90.5285 14.8017L85.3832 17.8881ZM85.4457 18.0072L80.1697 20.8644C80.1242 20.7804 80.0933 20.717 80.0812 20.6919C80.0748 20.6784 80.071 20.6703 80.0714 20.6712C80.0724 20.6733 80.0742 20.6772 80.0817 20.6935L85.5291 18.1783L90.9764 15.6631C90.9644 15.637 90.8583 15.4023 90.7217 15.1501L85.4457 18.0072ZM85.5291 18.1783L80.1356 20.807C80.0998 20.7336 80.0664 20.6606 80.0348 20.5873C80.004 20.5155 79.9664 20.4238 79.9265 20.3146L85.5618 18.2547L91.1971 16.1947C91.1063 15.9461 91.0093 15.7276 90.9226 15.5496L85.5291 18.1783ZM85.5618 18.2547L80.0563 20.6398C80.0537 20.6338 80.0333 20.5869 80.0067 20.5186C79.98 20.4502 79.9378 20.3369 79.8929 20.1909L85.6273 18.4257L91.3618 16.6605C91.2435 16.2761 91.1119 15.9723 91.0674 15.8695L85.5618 18.2547ZM85.6273 18.4257L80.0591 20.6606C80.0077 20.5325 79.978 20.44 79.9776 20.4386L85.6839 18.5845L91.3902 16.7304C91.3541 16.6191 91.2887 16.4228 91.1955 16.1908L85.6273 18.4257ZM85.6839 18.5845L80.0175 20.5572C79.985 20.4639 79.9645 20.3941 79.9557 20.3635C79.9478 20.3359 79.945 20.3241 79.9543 20.3597L85.7613 18.8503L91.5683 17.3408C91.5435 17.2453 91.4675 16.9484 91.3503 16.6119L85.6839 18.5845ZM78.7615 18.8442L84.6296 20.0954C84.597 20.2481 84.5631 20.3593 84.5452 20.4142L78.8389 18.5601L73.1325 16.706C73.0551 16.9442 72.9676 17.2448 72.8934 17.5929L78.7615 18.8442ZM55.8356 27.3051L53.609 21.7336C53.3489 21.8375 52.9275 21.9474 52.4112 21.9859C51.8988 22.0242 51.4378 21.9813 51.0924 21.8959C50.7439 21.8098 50.651 21.7167 50.6974 21.7552C50.7896 21.8318 50.8785 21.9706 50.9041 22.0584L45.1438 23.7375L39.3835 25.4166C40.8053 30.2941 44.7522 32.6897 48.2122 33.5452C51.5454 34.3693 55.1751 34.0305 58.0622 32.8767L55.8356 27.3051ZM45.1438 23.7375L45.1691 29.7375L48.7955 29.7222L48.7703 23.7222L48.745 17.7223L45.1185 17.7376L45.1438 23.7375ZM48.7703 23.7222L44.0068 27.3705C44.9516 28.604 46.5394 30.183 49.0326 30.8597L50.6043 25.0693L52.1761 19.2788C52.623 19.4001 52.9812 19.6025 53.2301 19.7929C53.4576 19.9669 53.553 20.0992 53.5337 20.074L48.7703 23.7222ZM50.6043 25.0693L49.0337 30.86C50.5126 31.2612 52.5314 31.4311 54.4503 31.0448C55.4162 30.8503 56.9 30.4083 58.2502 29.2808C59.8183 27.9713 60.8931 25.9713 60.8645 23.6012L54.865 23.6734L48.8654 23.7456C48.8577 23.1018 48.9898 22.3723 49.3342 21.6535C49.6733 20.9458 50.1328 20.4255 50.5586 20.07C51.3301 19.4257 52.0092 19.2955 52.0819 19.2808C52.2273 19.2515 52.2459 19.266 52.1472 19.2613C52.0475 19.2565 52.0434 19.2428 52.175 19.2785L50.6043 25.0693ZM54.865 23.6734L60.8645 23.5993C60.8492 22.3599 60.531 20.9944 59.7087 19.7296C58.9067 18.4958 57.8662 17.7282 56.9852 17.262C55.4548 16.452 53.8276 16.2696 53.1558 16.1937C51.7887 16.0391 51.9975 16.1076 51.0279 15.9821C50.4703 15.9099 50.2894 15.8405 50.2925 15.8418L47.9902 21.3825L45.6879 26.9232C47.1097 27.514 48.4942 27.7542 49.4875 27.8828C49.9992 27.949 50.4841 27.9942 50.8678 28.0287C51.2903 28.0667 51.5554 28.0892 51.8074 28.1177C52.0529 28.1454 52.1255 28.1624 52.1037 28.1575C52.0975 28.1561 51.7953 28.0922 51.3718 27.8681C50.9149 27.6263 50.2143 27.1414 49.6478 26.27C49.0611 25.3675 48.874 24.4439 48.8654 23.7474L54.865 23.6734ZM47.9902 21.3825L50.2933 15.8421C50.5509 15.9492 50.8935 16.1865 51.1586 16.5926C51.4207 16.9942 51.498 17.3934 51.4947 17.6658L45.4951 17.5919L39.4956 17.518C39.445 21.6222 41.7866 25.3014 45.6871 26.9229L47.9902 21.3825ZM45.4951 17.5919L51.4947 17.6658C51.49 18.0451 51.3568 18.5287 51.038 18.9574C50.7349 19.3648 50.4095 19.531 50.2772 19.581L48.1539 13.9693L46.0307 8.35751C42.367 9.74368 39.5502 13.0848 39.4956 17.518L45.4951 17.5919ZM48.1539 13.9693L50.2797 19.5801C50.4579 19.5126 50.8173 19.4191 51.2951 19.3878C51.7661 19.3568 52.1894 19.3971 52.4983 19.4718C52.8159 19.5487 52.8456 19.6192 52.7282 19.5233C52.5545 19.3813 52.3729 19.1254 52.3023 18.8635L58.0954 17.3017L63.8886 15.7399C62.5686 10.8435 58.5526 8.59059 55.3209 7.8085C52.1736 7.04681 48.733 7.3337 46.0282 8.35846L48.1539 13.9693ZM58.0954 17.3017L58.0853 11.3017L54.4826 11.3078L54.4928 17.3078L54.503 23.3078L58.1056 23.3017L58.0954 17.3017ZM54.4928 17.3078L59.5118 14.02C58.2778 12.1363 56.4994 11.1902 55.2515 10.7256C53.9237 10.2313 52.5265 10.0248 51.2403 10.0399C50.0239 10.0541 48.387 10.2734 46.8226 11.1171C45.1278 12.0312 42.9715 14.089 42.9608 17.423L48.9608 17.4422L54.9608 17.4615C54.9575 18.4955 54.6239 19.493 54.0487 20.3041C53.5154 21.0561 52.9049 21.4708 52.5188 21.679C52.1294 21.889 51.8231 21.9696 51.6768 22.0009C51.5187 22.0348 51.419 22.0386 51.3804 22.039C51.3369 22.0395 51.2518 22.0412 51.0649 21.9716C50.958 21.9318 50.1495 21.6271 49.4738 20.5957L54.4928 17.3078ZM48.9608 17.4422L42.9609 17.4129C42.9506 19.5231 43.8312 21.4909 45.4387 22.8681C46.7539 23.995 48.199 24.4144 48.9622 24.5974C49.8009 24.7985 50.6368 24.8925 51.1915 24.9502C51.8907 25.0228 52.2446 25.0484 52.746 25.1109C53.7704 25.2385 53.7591 25.3632 53.4451 25.1607C53.1974 25.0009 52.8749 24.7133 52.6287 24.2885C52.5144 24.0915 52.4447 23.9122 52.4046 23.7729C52.3653 23.6369 52.3601 23.5592 52.3603 23.5618L58.3455 23.1419L64.3308 22.722C64.0976 19.3968 62.5028 16.7234 59.9499 15.0767C57.834 13.7118 55.5003 13.3613 54.2299 13.203C53.5838 13.1225 52.7972 13.0524 52.4313 13.0144C52.1999 12.9903 52.0341 12.9705 51.9068 12.952C51.7775 12.9332 51.7387 12.923 51.7598 12.9281C51.7756 12.9319 51.9296 12.9685 52.1623 13.0689C52.3941 13.169 52.8005 13.3735 53.246 13.7552C54.3639 14.7129 54.9673 16.1219 54.9607 17.4716L48.9608 17.4422ZM58.3455 23.1419L52.3605 23.5656C52.3525 23.4516 52.3596 23.0911 52.6181 22.641C52.901 22.1483 53.3136 21.853 53.609 21.7348L55.8386 27.3051L58.0682 32.8755C62.6498 31.0416 64.6152 26.739 64.3306 22.7181L58.3455 23.1419ZM55.8386 27.3051V21.3051H55.8356V27.3051V33.3051H55.8386V27.3051ZM102 17.1581L101.952 11.1583L97.7745 11.1919L97.8227 17.1917L97.871 23.1915L102.048 23.1579L102 17.1581ZM97.8227 17.1917L97.7654 11.192C96.1792 11.2072 94.1377 11.5691 92.2886 12.7707C90.2057 14.1241 88.5011 16.5196 88.4851 19.706L94.4851 19.7361L100.485 19.7662C100.482 20.3321 100.33 20.9966 99.9592 21.6279C99.6035 22.2337 99.1613 22.6157 98.8268 22.8331C98.5044 23.0425 98.2488 23.1235 98.1303 23.1542C98.0057 23.1864 97.9252 23.191 97.88 23.1915L97.8227 17.1917ZM94.4851 19.7361L88.4851 19.7111L88.4524 27.5703L94.4523 27.5953L100.452 27.6203L100.485 19.7611L94.4851 19.7361ZM94.4523 27.5953L94.4362 21.5953L91.03 21.6045L91.0462 27.6045L91.0623 33.6044L94.4685 33.5953L94.4523 27.5953ZM91.0462 27.6045H97.0462V13.7738H91.0462H85.0462V27.6045H91.0462ZM91.0462 13.7738L91.0735 19.7737L94.4261 19.7584L94.3987 13.7585L94.3714 7.75856L91.0189 7.77384L91.0462 13.7738ZM94.3987 13.7585L88.6756 15.56C88.5474 15.153 88.4895 14.7026 88.5145 14.2464C88.5388 13.8045 88.635 13.4562 88.7151 13.2339L94.36 15.2674L100.005 17.3009C100.498 15.9308 100.783 14.0584 100.122 11.957L94.3987 13.7585ZM94.36 15.2674L89.2288 12.1577L88.3773 13.5627L93.5085 16.6725L98.6397 19.7822L99.4912 18.3772L94.36 15.2674ZM93.5085 16.6725L90.6339 21.939L91.0983 22.1925L93.973 16.926L96.8476 11.6595L96.3831 11.4059L93.5085 16.6725ZM93.973 16.926L99.1042 20.0357L100.23 18.1785L95.0984 15.0689L89.9671 11.9592L88.8417 13.8163L93.973 16.926ZM95.0984 15.0689C99.7553 18.8522 99.7554 18.8521 99.7555 18.852C99.7555 18.8519 99.7556 18.8518 99.7556 18.8518C99.7558 18.8516 99.7559 18.8515 99.756 18.8513C99.7563 18.851 99.7565 18.8507 99.7568 18.8504C99.7573 18.8498 99.7578 18.8491 99.7583 18.8485C99.7593 18.8472 99.7604 18.8459 99.7615 18.8445C99.7638 18.8417 99.7662 18.8388 99.7687 18.8356C99.7738 18.8293 99.7797 18.822 99.7862 18.8138C99.7987 18.7982 99.8166 18.7757 99.8378 18.7485C99.8573 18.7235 99.8905 18.6806 99.9302 18.6271C99.957 18.5911 100.046 18.4705 100.15 18.3108L95.1193 15.0414L90.0882 11.772C90.189 11.6169 90.2745 11.5019 90.2968 11.472C90.332 11.4245 90.3604 11.3879 90.3754 11.3687C90.3921 11.3472 90.406 11.3298 90.4154 11.3179C90.4205 11.3116 90.4252 11.3058 90.4294 11.3005C90.4315 11.2979 90.4336 11.2953 90.4356 11.2928C90.4366 11.2916 90.4376 11.2904 90.4386 11.2891C90.4391 11.2885 90.4396 11.2879 90.4401 11.2873C90.4403 11.287 90.4406 11.2867 90.4408 11.2864C90.4409 11.2863 90.4411 11.2861 90.4412 11.286C90.4412 11.2859 90.4413 11.2858 90.4414 11.2858C90.4415 11.2857 90.4415 11.2855 95.0984 15.0689ZM95.1193 15.0414L99.7727 18.829C99.3635 19.3317 98.938 19.5449 98.7402 19.623C98.5439 19.7004 98.4131 19.7115 98.3301 19.7123L98.2664 13.7127L98.2026 7.71302C95.9699 7.73676 92.7068 8.50064 90.4659 11.2538L95.1193 15.0414ZM98.2664 13.7127L98.3156 19.7125L102.04 19.6819L101.991 13.6821L101.942 7.68234L98.2172 7.71289L98.2664 13.7127ZM101.991 13.6821L95.9911 13.6976L96 17.1736L102 17.1581L108 17.1427L107.991 13.6667L101.991 13.6821ZM85.7613 18.8503L85.764 12.8503L78.7641 12.8471L78.7614 18.8471L78.7587 24.8471L85.7586 24.8503L85.7613 18.8503ZM78.7614 18.8471L84.76 18.9776L84.76 18.9747L78.7615 18.8442L72.7629 18.7137L72.7628 18.7166L78.7614 18.8471ZM21.3396 18.0621L19.222 12.4482L4.02244 18.1815L6.14 23.7954L8.25756 29.4093L23.4571 23.676L21.3396 18.0621ZM6.22039 22.9523L8.33807 28.5662L23.3828 22.891L21.2651 17.2771L19.1475 11.6633L4.10271 17.3385L6.22039 22.9523Z" fill="#86C9FF" mask="url(#path-1-outside-1_1089_127)"/>
</svg>
