<svg width="133" height="38" viewBox="0 0 133 38" fill="none" xmlns="http://www.w3.org/2000/svg">
<rect x="6" y="14" width="106" height="11" fill="#EFB5D4"/>
<mask id="path-2-outside-1_1089_112" maskUnits="userSpaceOnUse" x="0" y="0" width="133" height="38" fill="black">
<rect fill="white" width="133" height="38"/>
<path d="M6 6H10.7022V13.3634L11.5247 12.4803C14.1163 10.4303 18.2888 10.995 20.3185 13.5173C20.8776 14.2104 21.2735 15.0453 21.537 15.8816C22.0068 14.4218 22.8544 13.0195 24.2247 12.1846C25.9757 11.1168 28.7387 10.8906 30.5705 11.8795C31.2355 12.2394 31.7081 12.7225 32.1765 13.2885V11.5985H36.8397V14.3415L37.3569 13.4651C39.2166 10.8652 44.9922 10.801 47.7204 11.9303C49.5062 12.6689 50.1364 13.6912 50.6215 15.424C50.6327 15.4628 50.6145 15.5163 50.6717 15.5056C51.6866 13.1801 53.9059 11.6747 56.4961 11.3416C60.2434 10.8585 63.631 12.2407 65.1031 15.4494C65.3248 15.9338 65.4865 16.4409 65.6008 16.9588L65.835 18.0225V11.5985H70.3797V13.6645L71.0057 12.8937C72.3523 11.4647 74.0503 11.0271 76.0229 11.3536C77.6414 11.6212 78.8348 12.4883 79.568 13.8892C80.5467 12.4682 82.0969 11.3777 83.9176 11.2613C85.7382 11.1449 87.729 11.7202 88.8345 13.2523L88.1681 11.5998H93.1644L93.2425 11.7122C94.3564 14.6506 95.3002 17.6465 96.2286 20.6452L96.3764 20.9917L99.7863 11.5998H108.113V13.6658L108.975 12.7077C111.091 10.7528 115.136 10.7006 117.085 12.8977L117.596 13.5922V11.6012H119.907V7.2056H124.57V11.6012H127V14.8701H124.57V26.4029H119.907V14.8701H118.104C118.235 15.6823 118.302 16.5025 118.302 17.3241V26.4042H113.638V17.1434C113.638 16.3245 113.008 15.4708 112.196 15.2193C110.193 14.5971 108.275 15.8696 108.229 17.8927V26.4029H103.567V14.0806L96.0042 32H91.4985L94.0664 25.8395L89.657 15.246L89.7755 16.2402V26.4042H85.1109V17.1434C85.1109 16.1038 84.3539 15.2514 83.2846 15.1002C81.2033 14.8072 80.1312 16.3299 80.134 18.1563V26.4042H75.4723V17.031C75.4723 16.3339 74.909 15.5123 74.2329 15.2514C72.2631 14.4941 70.501 15.9285 70.4954 17.8553V26.4029H65.8336V20.3173H54.4705C54.6713 21.8213 55.5886 23.0938 57.2113 23.3815C58.7308 23.6505 60.4149 23.1915 61.1119 21.7825H65.52C65.0195 23.8753 63.3355 25.4783 61.2694 26.2155C59.1728 26.9649 56.3888 26.9381 54.3381 26.059C52.9622 25.4689 51.812 24.4439 51.0411 23.2102C50.9003 23.5073 50.8097 23.8204 50.6494 24.1121C49.1689 26.8123 44.6075 27.0425 41.8374 26.736C40.2482 26.5608 38.4499 26.0523 37.4475 24.7838C37.2147 24.4894 37.0627 24.1442 36.8369 23.8472V26.4015H32.2922V24.5229L31.8029 25.1625C30.42 26.7427 28.1463 26.9903 26.1402 26.5715C23.7298 26.0683 22.2159 24.3141 21.537 22.1184C20.8971 24.282 19.2744 26.0617 16.9337 26.5715C14.8593 27.0224 12.5508 26.6798 11.0939 25.1063C10.9336 24.9337 10.8068 24.7142 10.6576 24.5483C10.6227 24.5095 10.62 24.4707 10.5461 24.4854V26.4015H6.00139V6H6ZM46.3989 16.3299C46.364 15.2568 45.791 14.6024 44.7148 14.3576C43.7613 14.1408 41.5837 14.0913 41.2464 15.2407C40.9146 16.37 41.8807 16.8089 42.8342 17.0257C43.8951 17.2665 45.055 17.3201 46.134 17.506C47.5085 17.7442 48.9235 18.1483 49.9663 19.0716C49.9733 18.1443 50.1001 17.2291 50.319 16.3285H46.4003L46.3989 16.3299ZM61.2876 17.4953C61.0199 15.5351 59.5589 14.4392 57.504 14.5636C55.7461 14.6693 54.7034 15.883 54.5082 17.4953H61.2876ZM13.7497 14.8393C11.4913 14.953 10.7287 16.5788 10.6227 18.5283C10.5238 20.3521 10.9239 22.6656 13.1223 23.0818C16.6228 23.7428 17.5485 20.4324 17.1596 17.783C16.8863 15.9231 15.8226 14.7349 13.7497 14.8393ZM28.8754 14.8393C26.8163 14.9316 26.0761 16.4717 25.906 18.2286C25.6857 20.5073 26.182 23.2129 29.1402 23.1701C31.7541 23.1313 32.334 20.7468 32.256 18.6782C32.1765 16.6029 31.3805 14.7282 28.8767 14.8406L28.8754 14.8393ZM40.9132 21.7022C41.0219 22.5894 41.3509 23.3293 42.2863 23.6357C43.3612 23.9876 46.2929 24.0827 46.4727 22.5813C46.6345 21.2339 45.0954 21.0038 44.0554 20.8124C41.7371 20.3869 38.9726 20.3548 37.3931 18.4092L36.8383 17.4953V21.646L36.8969 21.7022H40.9132Z"/>
</mask>
<path d="M6 6H10.7022V13.3634L11.5247 12.4803C14.1163 10.4303 18.2888 10.995 20.3185 13.5173C20.8776 14.2104 21.2735 15.0453 21.537 15.8816C22.0068 14.4218 22.8544 13.0195 24.2247 12.1846C25.9757 11.1168 28.7387 10.8906 30.5705 11.8795C31.2355 12.2394 31.7081 12.7225 32.1765 13.2885V11.5985H36.8397V14.3415L37.3569 13.4651C39.2166 10.8652 44.9922 10.801 47.7204 11.9303C49.5062 12.6689 50.1364 13.6912 50.6215 15.424C50.6327 15.4628 50.6145 15.5163 50.6717 15.5056C51.6866 13.1801 53.9059 11.6747 56.4961 11.3416C60.2434 10.8585 63.631 12.2407 65.1031 15.4494C65.3248 15.9338 65.4865 16.4409 65.6008 16.9588L65.835 18.0225V11.5985H70.3797V13.6645L71.0057 12.8937C72.3523 11.4647 74.0503 11.0271 76.0229 11.3536C77.6414 11.6212 78.8348 12.4883 79.568 13.8892C80.5467 12.4682 82.0969 11.3777 83.9176 11.2613C85.7382 11.1449 87.729 11.7202 88.8345 13.2523L88.1681 11.5998H93.1644L93.2425 11.7122C94.3564 14.6506 95.3002 17.6465 96.2286 20.6452L96.3764 20.9917L99.7863 11.5998H108.113V13.6658L108.975 12.7077C111.091 10.7528 115.136 10.7006 117.085 12.8977L117.596 13.5922V11.6012H119.907V7.2056H124.57V11.6012H127V14.8701H124.57V26.4029H119.907V14.8701H118.104C118.235 15.6823 118.302 16.5025 118.302 17.3241V26.4042H113.638V17.1434C113.638 16.3245 113.008 15.4708 112.196 15.2193C110.193 14.5971 108.275 15.8696 108.229 17.8927V26.4029H103.567V14.0806L96.0042 32H91.4985L94.0664 25.8395L89.657 15.246L89.7755 16.2402V26.4042H85.1109V17.1434C85.1109 16.1038 84.3539 15.2514 83.2846 15.1002C81.2033 14.8072 80.1312 16.3299 80.134 18.1563V26.4042H75.4723V17.031C75.4723 16.3339 74.909 15.5123 74.2329 15.2514C72.2631 14.4941 70.501 15.9285 70.4954 17.8553V26.4029H65.8336V20.3173H54.4705C54.6713 21.8213 55.5886 23.0938 57.2113 23.3815C58.7308 23.6505 60.4149 23.1915 61.1119 21.7825H65.52C65.0195 23.8753 63.3355 25.4783 61.2694 26.2155C59.1728 26.9649 56.3888 26.9381 54.3381 26.059C52.9622 25.4689 51.812 24.4439 51.0411 23.2102C50.9003 23.5073 50.8097 23.8204 50.6494 24.1121C49.1689 26.8123 44.6075 27.0425 41.8374 26.736C40.2482 26.5608 38.4499 26.0523 37.4475 24.7838C37.2147 24.4894 37.0627 24.1442 36.8369 23.8472V26.4015H32.2922V24.5229L31.8029 25.1625C30.42 26.7427 28.1463 26.9903 26.1402 26.5715C23.7298 26.0683 22.2159 24.3141 21.537 22.1184C20.8971 24.282 19.2744 26.0617 16.9337 26.5715C14.8593 27.0224 12.5508 26.6798 11.0939 25.1063C10.9336 24.9337 10.8068 24.7142 10.6576 24.5483C10.6227 24.5095 10.62 24.4707 10.5461 24.4854V26.4015H6.00139V6H6ZM46.3989 16.3299C46.364 15.2568 45.791 14.6024 44.7148 14.3576C43.7613 14.1408 41.5837 14.0913 41.2464 15.2407C40.9146 16.37 41.8807 16.8089 42.8342 17.0257C43.8951 17.2665 45.055 17.3201 46.134 17.506C47.5085 17.7442 48.9235 18.1483 49.9663 19.0716C49.9733 18.1443 50.1001 17.2291 50.319 16.3285H46.4003L46.3989 16.3299ZM61.2876 17.4953C61.0199 15.5351 59.5589 14.4392 57.504 14.5636C55.7461 14.6693 54.7034 15.883 54.5082 17.4953H61.2876ZM13.7497 14.8393C11.4913 14.953 10.7287 16.5788 10.6227 18.5283C10.5238 20.3521 10.9239 22.6656 13.1223 23.0818C16.6228 23.7428 17.5485 20.4324 17.1596 17.783C16.8863 15.9231 15.8226 14.7349 13.7497 14.8393ZM28.8754 14.8393C26.8163 14.9316 26.0761 16.4717 25.906 18.2286C25.6857 20.5073 26.182 23.2129 29.1402 23.1701C31.7541 23.1313 32.334 20.7468 32.256 18.6782C32.1765 16.6029 31.3805 14.7282 28.8767 14.8406L28.8754 14.8393ZM40.9132 21.7022C41.0219 22.5894 41.3509 23.3293 42.2863 23.6357C43.3612 23.9876 46.2929 24.0827 46.4727 22.5813C46.6345 21.2339 45.0954 21.0038 44.0554 20.8124C41.7371 20.3869 38.9726 20.3548 37.3931 18.4092L36.8383 17.4953V21.646L36.8969 21.7022H40.9132Z" fill="#1A1A1A"/>
<path d="M6 6H10.7022V13.3634L11.5247 12.4803C14.1163 10.4303 18.2888 10.995 20.3185 13.5173C20.8776 14.2104 21.2735 15.0453 21.537 15.8816C22.0068 14.4218 22.8544 13.0195 24.2247 12.1846C25.9757 11.1168 28.7387 10.8906 30.5705 11.8795C31.2355 12.2394 31.7081 12.7225 32.1765 13.2885V11.5985H36.8397V14.3415L37.3569 13.4651C39.2166 10.8652 44.9922 10.801 47.7204 11.9303C49.5062 12.6689 50.1364 13.6912 50.6215 15.424C50.6327 15.4628 50.6145 15.5163 50.6717 15.5056C51.6866 13.1801 53.9059 11.6747 56.4961 11.3416C60.2434 10.8585 63.631 12.2407 65.1031 15.4494C65.3248 15.9338 65.4865 16.4409 65.6008 16.9588L65.835 18.0225V11.5985H70.3797V13.6645L71.0057 12.8937C72.3523 11.4647 74.0503 11.0271 76.0229 11.3536C77.6414 11.6212 78.8348 12.4883 79.568 13.8892C80.5467 12.4682 82.0969 11.3777 83.9176 11.2613C85.7382 11.1449 87.729 11.7202 88.8345 13.2523L88.1681 11.5998H93.1644L93.2425 11.7122C94.3564 14.6506 95.3002 17.6465 96.2286 20.6452L96.3764 20.9917L99.7863 11.5998H108.113V13.6658L108.975 12.7077C111.091 10.7528 115.136 10.7006 117.085 12.8977L117.596 13.5922V11.6012H119.907V7.2056H124.57V11.6012H127V14.8701H124.57V26.4029H119.907V14.8701H118.104C118.235 15.6823 118.302 16.5025 118.302 17.3241V26.4042H113.638V17.1434C113.638 16.3245 113.008 15.4708 112.196 15.2193C110.193 14.5971 108.275 15.8696 108.229 17.8927V26.4029H103.567V14.0806L96.0042 32H91.4985L94.0664 25.8395L89.657 15.246L89.7755 16.2402V26.4042H85.1109V17.1434C85.1109 16.1038 84.3539 15.2514 83.2846 15.1002C81.2033 14.8072 80.1312 16.3299 80.134 18.1563V26.4042H75.4723V17.031C75.4723 16.3339 74.909 15.5123 74.2329 15.2514C72.2631 14.4941 70.501 15.9285 70.4954 17.8553V26.4029H65.8336V20.3173H54.4705C54.6713 21.8213 55.5886 23.0938 57.2113 23.3815C58.7308 23.6505 60.4149 23.1915 61.1119 21.7825H65.52C65.0195 23.8753 63.3355 25.4783 61.2694 26.2155C59.1728 26.9649 56.3888 26.9381 54.3381 26.059C52.9622 25.4689 51.812 24.4439 51.0411 23.2102C50.9003 23.5073 50.8097 23.8204 50.6494 24.1121C49.1689 26.8123 44.6075 27.0425 41.8374 26.736C40.2482 26.5608 38.4499 26.0523 37.4475 24.7838C37.2147 24.4894 37.0627 24.1442 36.8369 23.8472V26.4015H32.2922V24.5229L31.8029 25.1625C30.42 26.7427 28.1463 26.9903 26.1402 26.5715C23.7298 26.0683 22.2159 24.3141 21.537 22.1184C20.8971 24.282 19.2744 26.0617 16.9337 26.5715C14.8593 27.0224 12.5508 26.6798 11.0939 25.1063C10.9336 24.9337 10.8068 24.7142 10.6576 24.5483C10.6227 24.5095 10.62 24.4707 10.5461 24.4854V26.4015H6.00139V6H6ZM46.3989 16.3299C46.364 15.2568 45.791 14.6024 44.7148 14.3576C43.7613 14.1408 41.5837 14.0913 41.2464 15.2407C40.9146 16.37 41.8807 16.8089 42.8342 17.0257C43.8951 17.2665 45.055 17.3201 46.134 17.506C47.5085 17.7442 48.9235 18.1483 49.9663 19.0716C49.9733 18.1443 50.1001 17.2291 50.319 16.3285H46.4003L46.3989 16.3299ZM61.2876 17.4953C61.0199 15.5351 59.5589 14.4392 57.504 14.5636C55.7461 14.6693 54.7034 15.883 54.5082 17.4953H61.2876ZM13.7497 14.8393C11.4913 14.953 10.7287 16.5788 10.6227 18.5283C10.5238 20.3521 10.9239 22.6656 13.1223 23.0818C16.6228 23.7428 17.5485 20.4324 17.1596 17.783C16.8863 15.9231 15.8226 14.7349 13.7497 14.8393ZM28.8754 14.8393C26.8163 14.9316 26.0761 16.4717 25.906 18.2286C25.6857 20.5073 26.182 23.2129 29.1402 23.1701C31.7541 23.1313 32.334 20.7468 32.256 18.6782C32.1765 16.6029 31.3805 14.7282 28.8767 14.8406L28.8754 14.8393ZM40.9132 21.7022C41.0219 22.5894 41.3509 23.3293 42.2863 23.6357C43.3612 23.9876 46.2929 24.0827 46.4727 22.5813C46.6345 21.2339 45.0954 21.0038 44.0554 20.8124C41.7371 20.3869 38.9726 20.3548 37.3931 18.4092L36.8383 17.4953V21.646L36.8969 21.7022H40.9132Z" stroke="#EFB5D4" stroke-width="12" stroke-linejoin="round" mask="url(#path-2-outside-1_1089_112)"/>
</svg>
