<svg width="108" height="44" viewBox="0 0 108 44" fill="none" xmlns="http://www.w3.org/2000/svg">
<mask id="path-1-outside-1_1089_119" maskUnits="userSpaceOnUse" x="0" y="0" width="108" height="44" fill="black">
<rect fill="white" width="108" height="44"/>
<path d="M99.9111 14.1794C98.4605 12.5175 96.6642 11.6865 94.5232 11.6865C92.8534 11.6865 91.3603 12.1877 90.0449 13.192C89.7956 13.382 89.4155 13.2132 89.4155 12.8994V12.3451C89.4155 12.1462 89.2546 11.9853 89.0558 11.9853H86.1943C85.9954 11.9853 85.8345 12.1462 85.8345 12.3451V30.145C85.8345 30.3439 85.9954 30.5047 86.1943 30.5047H89.0558C89.2546 30.5047 89.4155 30.3439 89.4155 30.145V19.7794C89.4155 18.5621 89.8602 17.5093 90.7495 16.62C91.6388 15.7307 92.6916 15.2861 93.9089 15.2861C95.1261 15.2861 96.1904 15.7307 97.0682 16.62C97.9575 17.5093 98.4022 18.563 98.4022 19.7794V30.145C98.4022 30.3439 98.563 30.5047 98.7611 30.5047H101.64C101.839 30.5047 102 30.3439 102 30.145V19.7794C102 17.6145 101.303 15.7484 99.9111 14.1802V14.1794Z"/>
<path d="M65.3291 11.9853H62.45C62.2511 11.9853 62.0902 12.1462 62.0902 12.3451V13.4005C62.0902 13.7152 61.7092 13.8832 61.4634 13.6852C59.806 12.353 57.9151 11.6874 55.7891 11.6874C53.2034 11.6874 51.0094 12.635 49.2078 14.5312C47.4062 16.4034 46.5046 18.6496 46.5046 21.2715C46.5046 23.8934 47.4062 26.1219 49.2078 27.9942C51.0094 29.8665 53.2034 30.8026 55.7891 30.8026C57.8797 30.8026 59.7352 30.1803 61.3547 28.9365C61.6137 28.7367 61.9974 28.933 61.9399 29.2548C61.7003 30.6108 61.1708 31.7414 60.3531 32.6457C59.2879 33.8161 57.8665 34.4013 56.0879 34.4013C54.0777 34.4013 52.4317 33.5103 51.1482 31.729C51.0332 31.569 50.8114 31.5222 50.6461 31.63L48.2177 33.2168C48.048 33.3273 48.0029 33.5562 48.1223 33.7189C49.0425 34.9715 50.159 35.9836 51.4717 36.7536C52.9347 37.5845 54.4728 38 56.0879 38C58.7089 38 60.9613 37.0524 62.8451 35.1562C64.7413 33.284 65.6889 31.0546 65.6889 28.468V12.3451C65.6889 12.1462 65.528 11.9853 65.3291 11.9853ZM60.3178 25.5014C59.1474 26.6718 57.7374 27.257 56.0879 27.257C54.4384 27.257 53.0284 26.6718 51.858 25.5014C50.6876 24.3319 50.1033 22.921 50.1033 21.2715C50.1033 19.622 50.6876 18.2289 51.858 17.0585C53.0284 15.8881 54.4499 15.2852 56.0879 15.2852C57.7259 15.2852 59.1359 15.8766 60.3178 17.0585C61.4997 18.2403 62.0902 19.645 62.0902 21.2715C62.0902 22.898 61.4997 24.3195 60.3178 25.5014Z"/>
<path d="M42.5933 14.5135C40.7086 12.6288 38.4509 11.6874 35.8184 11.6874C33.1859 11.6874 30.9273 12.6288 29.0435 14.5135C27.1712 16.3857 26.2351 18.6381 26.2351 21.2715C26.2351 23.9049 27.1712 26.1573 29.0435 28.0296C30.9273 29.8789 33.185 30.8026 35.8184 30.8026C39.1316 30.8026 41.7889 29.3927 43.7911 26.5728C43.9069 26.4101 43.8609 26.1847 43.6939 26.0751L41.277 24.4874C41.1117 24.3787 40.8899 24.4247 40.774 24.5856C39.4914 26.3668 37.8392 27.257 35.8184 27.257C34.5189 27.257 33.3432 26.8707 32.2904 26.0989C31.3711 25.4245 30.6966 24.567 30.2678 23.5266C30.1741 23.3011 30.3474 23.0616 30.5923 23.0616H44.9589C45.1339 23.0616 45.2833 22.9369 45.3089 22.7637C45.3823 22.2669 45.4185 21.7692 45.4185 21.2715C45.4185 18.6496 44.4771 16.3972 42.5933 14.5135ZM41.0437 19.4806H30.5923C30.3474 19.4806 30.1741 19.2419 30.2687 19.0165C30.6904 18.0052 31.364 17.1539 32.2904 16.4618C33.3194 15.6777 34.496 15.2852 35.8184 15.2852C37.1409 15.2852 38.3166 15.6777 39.3455 16.4618C40.2649 17.1256 40.9394 17.9769 41.3681 19.0156C41.4618 19.2419 41.2885 19.4806 41.0437 19.4806Z"/>
<path d="M22.4457 14.5313C20.6318 12.6352 18.4439 11.6875 15.8812 11.6875C13.7314 11.6875 11.8414 12.3496 10.2122 13.6739C9.96646 13.8736 9.58016 13.7057 9.58016 13.3892V6.35978C9.58016 6.16088 9.41927 6 9.22126 6H6.35978C6.16089 6 6 6.16088 6 6.35978V30.1451C6 30.344 6.16089 30.5049 6.35978 30.5049H9.22126C9.41927 30.5049 9.58016 30.344 9.58016 30.1451V29.1418C9.58016 28.8271 9.96204 28.6591 10.2087 28.8554C11.8387 30.1539 13.7296 30.8028 15.8812 30.8028C18.4554 30.8028 20.6442 29.8666 22.4457 27.9944C24.2597 26.1106 25.1667 23.8697 25.1667 21.2717C25.1667 18.6737 24.2597 16.4504 22.4457 14.5313ZM19.7955 25.5015C18.6251 26.6719 17.2214 27.2571 15.5833 27.2571C13.9453 27.2571 12.523 26.6719 11.3534 25.5015C10.1715 24.3197 9.58016 22.9097 9.58016 21.2717C9.58016 19.6337 10.1715 18.2405 11.3534 17.0586C12.5353 15.8767 13.9453 15.2854 15.5833 15.2854C17.2214 15.2854 18.6136 15.8767 19.7955 17.0586C20.9774 18.2405 21.5679 19.6452 21.5679 21.2717C21.5679 22.8982 20.9774 24.3197 19.7955 25.5015Z"/>
<path d="M75.7442 28.1507C80.2357 28.1834 83.8866 24.5529 83.8866 20.0685V12.361C83.8866 12.1533 83.7187 11.9854 83.5109 11.9854H80.638C80.4302 11.9854 80.2623 12.1533 80.2623 12.361V19.9933C80.2623 22.4349 78.3308 24.4796 75.8901 24.5255C73.3928 24.5724 71.3464 22.5551 71.3464 20.0685V12.361C71.3464 12.1533 71.1784 11.9854 70.9707 11.9854H68.0977C67.89 11.9854 67.722 12.1533 67.722 12.361V19.9668C67.722 24.4239 71.2871 28.118 75.7442 28.1499V28.1507Z"/>
<path d="M83.2853 30.6435C83.4523 30.8105 83.4258 31.0908 83.2296 31.2216C81.1054 32.6422 78.5506 33.4687 75.8041 33.4687C73.0575 33.4687 70.5019 32.6413 68.3777 31.2216C68.1806 31.0899 68.154 30.8105 68.322 30.6426L70.4038 28.5608C70.5249 28.4397 70.7114 28.4158 70.859 28.5025C72.3424 29.3776 74.037 29.8444 75.805 29.8444C77.5729 29.8444 79.2675 29.3776 80.7509 28.5034C80.8976 28.4167 81.085 28.4415 81.2053 28.5617L83.2862 30.6426L83.2853 30.6435Z"/>
</mask>
<path d="M99.9111 14.1794C98.4605 12.5175 96.6642 11.6865 94.5232 11.6865C92.8534 11.6865 91.3603 12.1877 90.0449 13.192C89.7956 13.382 89.4155 13.2132 89.4155 12.8994V12.3451C89.4155 12.1462 89.2546 11.9853 89.0558 11.9853H86.1943C85.9954 11.9853 85.8345 12.1462 85.8345 12.3451V30.145C85.8345 30.3439 85.9954 30.5047 86.1943 30.5047H89.0558C89.2546 30.5047 89.4155 30.3439 89.4155 30.145V19.7794C89.4155 18.5621 89.8602 17.5093 90.7495 16.62C91.6388 15.7307 92.6916 15.2861 93.9089 15.2861C95.1261 15.2861 96.1904 15.7307 97.0682 16.62C97.9575 17.5093 98.4022 18.563 98.4022 19.7794V30.145C98.4022 30.3439 98.563 30.5047 98.7611 30.5047H101.64C101.839 30.5047 102 30.3439 102 30.145V19.7794C102 17.6145 101.303 15.7484 99.9111 14.1802V14.1794Z" fill="#1A1A1A"/>
<path d="M65.3291 11.9853H62.45C62.2511 11.9853 62.0902 12.1462 62.0902 12.3451V13.4005C62.0902 13.7152 61.7092 13.8832 61.4634 13.6852C59.806 12.353 57.9151 11.6874 55.7891 11.6874C53.2034 11.6874 51.0094 12.635 49.2078 14.5312C47.4062 16.4034 46.5046 18.6496 46.5046 21.2715C46.5046 23.8934 47.4062 26.1219 49.2078 27.9942C51.0094 29.8665 53.2034 30.8026 55.7891 30.8026C57.8797 30.8026 59.7352 30.1803 61.3547 28.9365C61.6137 28.7367 61.9974 28.933 61.9399 29.2548C61.7003 30.6108 61.1708 31.7414 60.3531 32.6457C59.2879 33.8161 57.8665 34.4013 56.0879 34.4013C54.0777 34.4013 52.4317 33.5103 51.1482 31.729C51.0332 31.569 50.8114 31.5222 50.6461 31.63L48.2177 33.2168C48.048 33.3273 48.0029 33.5562 48.1223 33.7189C49.0425 34.9715 50.159 35.9836 51.4717 36.7536C52.9347 37.5845 54.4728 38 56.0879 38C58.7089 38 60.9613 37.0524 62.8451 35.1562C64.7413 33.284 65.6889 31.0546 65.6889 28.468V12.3451C65.6889 12.1462 65.528 11.9853 65.3291 11.9853ZM60.3178 25.5014C59.1474 26.6718 57.7374 27.257 56.0879 27.257C54.4384 27.257 53.0284 26.6718 51.858 25.5014C50.6876 24.3319 50.1033 22.921 50.1033 21.2715C50.1033 19.622 50.6876 18.2289 51.858 17.0585C53.0284 15.8881 54.4499 15.2852 56.0879 15.2852C57.7259 15.2852 59.1359 15.8766 60.3178 17.0585C61.4997 18.2403 62.0902 19.645 62.0902 21.2715C62.0902 22.898 61.4997 24.3195 60.3178 25.5014Z" fill="#1A1A1A"/>
<path d="M42.5933 14.5135C40.7086 12.6288 38.4509 11.6874 35.8184 11.6874C33.1859 11.6874 30.9273 12.6288 29.0435 14.5135C27.1712 16.3857 26.2351 18.6381 26.2351 21.2715C26.2351 23.9049 27.1712 26.1573 29.0435 28.0296C30.9273 29.8789 33.185 30.8026 35.8184 30.8026C39.1316 30.8026 41.7889 29.3927 43.7911 26.5728C43.9069 26.4101 43.8609 26.1847 43.6939 26.0751L41.277 24.4874C41.1117 24.3787 40.8899 24.4247 40.774 24.5856C39.4914 26.3668 37.8392 27.257 35.8184 27.257C34.5189 27.257 33.3432 26.8707 32.2904 26.0989C31.3711 25.4245 30.6966 24.567 30.2678 23.5266C30.1741 23.3011 30.3474 23.0616 30.5923 23.0616H44.9589C45.1339 23.0616 45.2833 22.9369 45.3089 22.7637C45.3823 22.2669 45.4185 21.7692 45.4185 21.2715C45.4185 18.6496 44.4771 16.3972 42.5933 14.5135ZM41.0437 19.4806H30.5923C30.3474 19.4806 30.1741 19.2419 30.2687 19.0165C30.6904 18.0052 31.364 17.1539 32.2904 16.4618C33.3194 15.6777 34.496 15.2852 35.8184 15.2852C37.1409 15.2852 38.3166 15.6777 39.3455 16.4618C40.2649 17.1256 40.9394 17.9769 41.3681 19.0156C41.4618 19.2419 41.2885 19.4806 41.0437 19.4806Z" fill="#1A1A1A"/>
<path d="M22.4457 14.5313C20.6318 12.6352 18.4439 11.6875 15.8812 11.6875C13.7314 11.6875 11.8414 12.3496 10.2122 13.6739C9.96646 13.8736 9.58016 13.7057 9.58016 13.3892V6.35978C9.58016 6.16088 9.41927 6 9.22126 6H6.35978C6.16089 6 6 6.16088 6 6.35978V30.1451C6 30.344 6.16089 30.5049 6.35978 30.5049H9.22126C9.41927 30.5049 9.58016 30.344 9.58016 30.1451V29.1418C9.58016 28.8271 9.96204 28.6591 10.2087 28.8554C11.8387 30.1539 13.7296 30.8028 15.8812 30.8028C18.4554 30.8028 20.6442 29.8666 22.4457 27.9944C24.2597 26.1106 25.1667 23.8697 25.1667 21.2717C25.1667 18.6737 24.2597 16.4504 22.4457 14.5313ZM19.7955 25.5015C18.6251 26.6719 17.2214 27.2571 15.5833 27.2571C13.9453 27.2571 12.523 26.6719 11.3534 25.5015C10.1715 24.3197 9.58016 22.9097 9.58016 21.2717C9.58016 19.6337 10.1715 18.2405 11.3534 17.0586C12.5353 15.8767 13.9453 15.2854 15.5833 15.2854C17.2214 15.2854 18.6136 15.8767 19.7955 17.0586C20.9774 18.2405 21.5679 19.6452 21.5679 21.2717C21.5679 22.8982 20.9774 24.3197 19.7955 25.5015Z" fill="#1A1A1A"/>
<path d="M75.7442 28.1507C80.2357 28.1834 83.8866 24.5529 83.8866 20.0685V12.361C83.8866 12.1533 83.7187 11.9854 83.5109 11.9854H80.638C80.4302 11.9854 80.2623 12.1533 80.2623 12.361V19.9933C80.2623 22.4349 78.3308 24.4796 75.8901 24.5255C73.3928 24.5724 71.3464 22.5551 71.3464 20.0685V12.361C71.3464 12.1533 71.1784 11.9854 70.9707 11.9854H68.0977C67.89 11.9854 67.722 12.1533 67.722 12.361V19.9668C67.722 24.4239 71.2871 28.118 75.7442 28.1499V28.1507Z" fill="#1A1A1A"/>
<path d="M83.2853 30.6435C83.4523 30.8105 83.4258 31.0908 83.2296 31.2216C81.1054 32.6422 78.5506 33.4687 75.8041 33.4687C73.0575 33.4687 70.5019 32.6413 68.3777 31.2216C68.1806 31.0899 68.154 30.8105 68.322 30.6426L70.4038 28.5608C70.5249 28.4397 70.7114 28.4158 70.859 28.5025C72.3424 29.3776 74.037 29.8444 75.805 29.8444C77.5729 29.8444 79.2675 29.3776 80.7509 28.5034C80.8976 28.4167 81.085 28.4415 81.2053 28.5617L83.2862 30.6426L83.2853 30.6435Z" fill="#1A1A1A"/>
<path d="M99.9111 14.1794C98.4605 12.5175 96.6642 11.6865 94.5232 11.6865C92.8534 11.6865 91.3603 12.1877 90.0449 13.192C89.7956 13.382 89.4155 13.2132 89.4155 12.8994V12.3451C89.4155 12.1462 89.2546 11.9853 89.0558 11.9853H86.1943C85.9954 11.9853 85.8345 12.1462 85.8345 12.3451V30.145C85.8345 30.3439 85.9954 30.5047 86.1943 30.5047H89.0558C89.2546 30.5047 89.4155 30.3439 89.4155 30.145V19.7794C89.4155 18.5621 89.8602 17.5093 90.7495 16.62C91.6388 15.7307 92.6916 15.2861 93.9089 15.2861C95.1261 15.2861 96.1904 15.7307 97.0682 16.62C97.9575 17.5093 98.4022 18.563 98.4022 19.7794V30.145C98.4022 30.3439 98.563 30.5047 98.7611 30.5047H101.64C101.839 30.5047 102 30.3439 102 30.145V19.7794C102 17.6145 101.303 15.7484 99.9111 14.1802V14.1794Z" stroke="#EAF9C0" stroke-width="12" stroke-linejoin="round" mask="url(#path-1-outside-1_1089_119)"/>
<path d="M65.3291 11.9853H62.45C62.2511 11.9853 62.0902 12.1462 62.0902 12.3451V13.4005C62.0902 13.7152 61.7092 13.8832 61.4634 13.6852C59.806 12.353 57.9151 11.6874 55.7891 11.6874C53.2034 11.6874 51.0094 12.635 49.2078 14.5312C47.4062 16.4034 46.5046 18.6496 46.5046 21.2715C46.5046 23.8934 47.4062 26.1219 49.2078 27.9942C51.0094 29.8665 53.2034 30.8026 55.7891 30.8026C57.8797 30.8026 59.7352 30.1803 61.3547 28.9365C61.6137 28.7367 61.9974 28.933 61.9399 29.2548C61.7003 30.6108 61.1708 31.7414 60.3531 32.6457C59.2879 33.8161 57.8665 34.4013 56.0879 34.4013C54.0777 34.4013 52.4317 33.5103 51.1482 31.729C51.0332 31.569 50.8114 31.5222 50.6461 31.63L48.2177 33.2168C48.048 33.3273 48.0029 33.5562 48.1223 33.7189C49.0425 34.9715 50.159 35.9836 51.4717 36.7536C52.9347 37.5845 54.4728 38 56.0879 38C58.7089 38 60.9613 37.0524 62.8451 35.1562C64.7413 33.284 65.6889 31.0546 65.6889 28.468V12.3451C65.6889 12.1462 65.528 11.9853 65.3291 11.9853ZM60.3178 25.5014C59.1474 26.6718 57.7374 27.257 56.0879 27.257C54.4384 27.257 53.0284 26.6718 51.858 25.5014C50.6876 24.3319 50.1033 22.921 50.1033 21.2715C50.1033 19.622 50.6876 18.2289 51.858 17.0585C53.0284 15.8881 54.4499 15.2852 56.0879 15.2852C57.7259 15.2852 59.1359 15.8766 60.3178 17.0585C61.4997 18.2403 62.0902 19.645 62.0902 21.2715C62.0902 22.898 61.4997 24.3195 60.3178 25.5014Z" stroke="#EAF9C0" stroke-width="12" stroke-linejoin="round" mask="url(#path-1-outside-1_1089_119)"/>
<path d="M42.5933 14.5135C40.7086 12.6288 38.4509 11.6874 35.8184 11.6874C33.1859 11.6874 30.9273 12.6288 29.0435 14.5135C27.1712 16.3857 26.2351 18.6381 26.2351 21.2715C26.2351 23.9049 27.1712 26.1573 29.0435 28.0296C30.9273 29.8789 33.185 30.8026 35.8184 30.8026C39.1316 30.8026 41.7889 29.3927 43.7911 26.5728C43.9069 26.4101 43.8609 26.1847 43.6939 26.0751L41.277 24.4874C41.1117 24.3787 40.8899 24.4247 40.774 24.5856C39.4914 26.3668 37.8392 27.257 35.8184 27.257C34.5189 27.257 33.3432 26.8707 32.2904 26.0989C31.3711 25.4245 30.6966 24.567 30.2678 23.5266C30.1741 23.3011 30.3474 23.0616 30.5923 23.0616H44.9589C45.1339 23.0616 45.2833 22.9369 45.3089 22.7637C45.3823 22.2669 45.4185 21.7692 45.4185 21.2715C45.4185 18.6496 44.4771 16.3972 42.5933 14.5135ZM41.0437 19.4806H30.5923C30.3474 19.4806 30.1741 19.2419 30.2687 19.0165C30.6904 18.0052 31.364 17.1539 32.2904 16.4618C33.3194 15.6777 34.496 15.2852 35.8184 15.2852C37.1409 15.2852 38.3166 15.6777 39.3455 16.4618C40.2649 17.1256 40.9394 17.9769 41.3681 19.0156C41.4618 19.2419 41.2885 19.4806 41.0437 19.4806Z" stroke="#EAF9C0" stroke-width="12" stroke-linejoin="round" mask="url(#path-1-outside-1_1089_119)"/>
<path d="M22.4457 14.5313C20.6318 12.6352 18.4439 11.6875 15.8812 11.6875C13.7314 11.6875 11.8414 12.3496 10.2122 13.6739C9.96646 13.8736 9.58016 13.7057 9.58016 13.3892V6.35978C9.58016 6.16088 9.41927 6 9.22126 6H6.35978C6.16089 6 6 6.16088 6 6.35978V30.1451C6 30.344 6.16089 30.5049 6.35978 30.5049H9.22126C9.41927 30.5049 9.58016 30.344 9.58016 30.1451V29.1418C9.58016 28.8271 9.96204 28.6591 10.2087 28.8554C11.8387 30.1539 13.7296 30.8028 15.8812 30.8028C18.4554 30.8028 20.6442 29.8666 22.4457 27.9944C24.2597 26.1106 25.1667 23.8697 25.1667 21.2717C25.1667 18.6737 24.2597 16.4504 22.4457 14.5313ZM19.7955 25.5015C18.6251 26.6719 17.2214 27.2571 15.5833 27.2571C13.9453 27.2571 12.523 26.6719 11.3534 25.5015C10.1715 24.3197 9.58016 22.9097 9.58016 21.2717C9.58016 19.6337 10.1715 18.2405 11.3534 17.0586C12.5353 15.8767 13.9453 15.2854 15.5833 15.2854C17.2214 15.2854 18.6136 15.8767 19.7955 17.0586C20.9774 18.2405 21.5679 19.6452 21.5679 21.2717C21.5679 22.8982 20.9774 24.3197 19.7955 25.5015Z" stroke="#EAF9C0" stroke-width="12" stroke-linejoin="round" mask="url(#path-1-outside-1_1089_119)"/>
<path d="M75.7442 28.1507C80.2357 28.1834 83.8866 24.5529 83.8866 20.0685V12.361C83.8866 12.1533 83.7187 11.9854 83.5109 11.9854H80.638C80.4302 11.9854 80.2623 12.1533 80.2623 12.361V19.9933C80.2623 22.4349 78.3308 24.4796 75.8901 24.5255C73.3928 24.5724 71.3464 22.5551 71.3464 20.0685V12.361C71.3464 12.1533 71.1784 11.9854 70.9707 11.9854H68.0977C67.89 11.9854 67.722 12.1533 67.722 12.361V19.9668C67.722 24.4239 71.2871 28.118 75.7442 28.1499V28.1507Z" stroke="#EAF9C0" stroke-width="12" stroke-linejoin="round" mask="url(#path-1-outside-1_1089_119)"/>
<path d="M83.2853 30.6435C83.4523 30.8105 83.4258 31.0908 83.2296 31.2216C81.1054 32.6422 78.5506 33.4687 75.8041 33.4687C73.0575 33.4687 70.5019 32.6413 68.3777 31.2216C68.1806 31.0899 68.154 30.8105 68.322 30.6426L70.4038 28.5608C70.5249 28.4397 70.7114 28.4158 70.859 28.5025C72.3424 29.3776 74.037 29.8444 75.805 29.8444C77.5729 29.8444 79.2675 29.3776 80.7509 28.5034C80.8976 28.4167 81.085 28.4415 81.2053 28.5617L83.2862 30.6426L83.2853 30.6435Z" stroke="#EAF9C0" stroke-width="12" stroke-linejoin="round" mask="url(#path-1-outside-1_1089_119)"/>
</svg>
