<svg width="134" height="40" viewBox="0 0 134 40" fill="none" xmlns="http://www.w3.org/2000/svg">
<circle cx="53.5" cy="14" r="5" fill="#E47249"/>
<mask id="path-2-outside-1_1089_122" maskUnits="userSpaceOnUse" x="0" y="0" width="134" height="40" fill="black">
<rect fill="white" width="134" height="40"/>
<path fill-rule="evenodd" clip-rule="evenodd" d="M71.7881 33.6787H68.7812V31.2285C67.6906 32.8805 65.9323 33.9999 63.6416 34C59.7268 34 56.8779 30.8299 56.8779 26.3574C56.8779 21.885 59.7792 18.715 63.6162 18.7148C65.9319 18.7148 67.6899 19.8588 68.7842 21.5391V13.1768H71.7881V33.6787ZM64.2764 21.5889C61.7209 21.589 59.9103 23.558 59.9102 26.3535C59.9102 29.1492 61.749 31.1191 64.2764 31.1191C66.8038 31.1191 68.7773 29.174 68.7773 26.3535C68.7772 23.558 66.832 21.5889 64.2764 21.5889Z"/>
<path fill-rule="evenodd" clip-rule="evenodd" d="M88.8311 33.6787H85.8242V31.2285C84.7335 32.8805 82.9753 33.9999 80.6846 34C76.7698 34 73.9209 30.8299 73.9209 26.3574C73.9209 21.885 76.8222 18.715 80.6592 18.7148C82.9748 18.7148 84.7328 19.8588 85.8271 21.5391V13.1768H88.8311V33.6787ZM81.3232 21.5889C78.7676 21.5889 76.9562 23.558 76.9561 26.3535C76.9561 29.1493 78.7958 31.1191 81.3232 31.1191C83.8506 31.119 85.8242 29.1739 85.8242 26.3535C85.824 23.558 83.8787 21.589 81.3232 21.5889Z"/>
<path fill-rule="evenodd" clip-rule="evenodd" d="M37.8652 21.5322C38.9313 19.8555 40.6892 18.708 43.0049 18.708C46.8385 18.708 49.7432 21.8781 49.7432 26.3506L49.7402 26.3545C49.74 30.8268 46.8912 33.9961 42.9766 33.9961C40.6857 33.9961 38.9278 32.8776 37.8652 31.2256V33.6748H34.8574V13.1699H37.8652V21.5322ZM42.334 21.5889C39.7784 21.589 37.833 23.5588 37.833 26.3545C37.8332 29.1499 39.7785 31.119 42.334 31.1191C44.8896 31.1191 46.701 29.1747 46.7012 26.3545C46.7012 23.5587 44.8897 21.5889 42.334 21.5889Z"/>
<path d="M17.6494 6C18.5106 6.00012 19.2908 6.34297 19.8555 6.89355L22.6152 9.69238L12.9502 19.1104C12.1263 19.9145 11.6875 20.9577 11.6357 22.0156L11.6338 22.2314C11.6339 23.3608 12.0754 24.49 12.9541 25.3477C13.8331 26.2054 14.9945 26.6367 16.1523 26.6367C17.3102 26.6367 18.4716 26.2054 19.3506 25.3477L22.0293 22.7354L29.3965 29.916V31.2285C29.3965 32.0757 29.0015 32.8354 28.3838 33.3438L22.7217 27.8262C22.3299 27.4449 21.6946 27.445 21.3027 27.8262C20.9109 28.2074 20.9109 28.8287 21.3027 29.21L26.2129 33.9932H21.9277L17.3633 29.5449C16.9716 29.1638 16.3362 29.164 15.9443 29.5449C15.5525 29.9262 15.5525 30.5475 15.9443 30.9287L19.0859 33.9932H14.7998L12.0049 31.2676C11.6132 30.8865 10.9778 30.8867 10.5859 31.2676C10.1941 31.6488 10.1941 32.2701 10.5859 32.6514L11.9619 33.9932H8.83789C7.27774 33.993 6 32.7499 6 31.2285V17.2998C6 16.4914 6.32499 15.7565 6.85449 15.2129L15.4883 6.85059C16.046 6.32461 16.7881 6 17.6494 6Z"/>
<path fill-rule="evenodd" clip-rule="evenodd" d="M103.823 18.7051C108.536 18.7052 111.518 22.3546 111.226 27.1729V27.1797H99.3223C99.5623 29.8696 101.451 31.3594 103.904 31.3594C105.662 31.3593 107.127 30.615 107.819 29.1748H110.936C109.792 32.4503 106.997 33.993 103.88 33.9932C99.4321 33.9932 96.2617 30.7981 96.2617 26.375C96.2619 21.9521 99.4038 18.7051 103.823 18.7051ZM103.826 21.3203C101.617 21.3205 99.9927 22.7573 99.4844 24.7305H108.006C107.554 22.7325 106.036 21.3203 103.826 21.3203Z"/>
<path fill-rule="evenodd" clip-rule="evenodd" d="M120.202 18.7051C124.915 18.7051 127.897 22.3545 127.604 27.1729V27.1797H115.701C115.941 29.8694 117.83 31.3592 120.283 31.3594C122.041 31.3594 123.506 30.6149 124.198 29.1748H127.315C126.172 32.4506 123.372 33.9932 120.259 33.9932C115.811 33.9931 112.642 30.7981 112.642 26.375C112.642 21.9521 115.783 18.7052 120.202 18.7051ZM120.202 21.3203C117.992 21.3204 116.369 22.7573 115.86 24.7305H124.382C123.93 22.7325 122.412 21.3203 120.202 21.3203Z"/>
<path d="M94.3447 33.6787H91.3096V13.1729H94.3447V33.6787Z"/>
<path d="M54.7422 33.6748H51.7344V19.0293H54.7422V33.6748Z"/>
<path d="M28.5635 15.7227C29.0823 16.2627 29.4004 16.9898 29.4004 17.791V27.1484L22.0508 19.9863L22.0293 19.9648L17.9316 23.9609C17.4445 24.4339 16.7983 24.6748 16.1523 24.6748C15.5064 24.6748 14.8602 24.4375 14.373 23.9609C13.8827 23.4845 13.6388 22.8566 13.6387 22.2285C13.6387 21.6003 13.886 20.9716 14.373 20.4951L15.0654 19.8203V19.8242L24.0098 11.1055L28.5635 15.7227Z"/>
<path d="M53.2275 12.4248C54.3218 12.4248 55.1973 13.1976 55.1973 14.2637C55.1972 15.3543 54.3712 16.1553 53.2275 16.1553C52.084 16.1552 51.2833 15.3578 51.2832 14.2637C51.2832 13.1694 52.1333 12.4249 53.2275 12.4248Z"/>
<path d="M71.792 13.1768H71.7881V13.1729L71.792 13.1768Z"/>
<path d="M88.835 13.1768H88.8311V13.1729L88.835 13.1768Z"/>
</mask>
<path fill-rule="evenodd" clip-rule="evenodd" d="M71.7881 33.6787H68.7812V31.2285C67.6906 32.8805 65.9323 33.9999 63.6416 34C59.7268 34 56.8779 30.8299 56.8779 26.3574C56.8779 21.885 59.7792 18.715 63.6162 18.7148C65.9319 18.7148 67.6899 19.8588 68.7842 21.5391V13.1768H71.7881V33.6787ZM64.2764 21.5889C61.7209 21.589 59.9103 23.558 59.9102 26.3535C59.9102 29.1492 61.749 31.1191 64.2764 31.1191C66.8038 31.1191 68.7773 29.174 68.7773 26.3535C68.7772 23.558 66.832 21.5889 64.2764 21.5889Z" fill="#EFEBE7"/>
<path fill-rule="evenodd" clip-rule="evenodd" d="M88.8311 33.6787H85.8242V31.2285C84.7335 32.8805 82.9753 33.9999 80.6846 34C76.7698 34 73.9209 30.8299 73.9209 26.3574C73.9209 21.885 76.8222 18.715 80.6592 18.7148C82.9748 18.7148 84.7328 19.8588 85.8271 21.5391V13.1768H88.8311V33.6787ZM81.3232 21.5889C78.7676 21.5889 76.9562 23.558 76.9561 26.3535C76.9561 29.1493 78.7958 31.1191 81.3232 31.1191C83.8506 31.119 85.8242 29.1739 85.8242 26.3535C85.824 23.558 83.8787 21.589 81.3232 21.5889Z" fill="#EFEBE7"/>
<path fill-rule="evenodd" clip-rule="evenodd" d="M37.8652 21.5322C38.9313 19.8555 40.6892 18.708 43.0049 18.708C46.8385 18.708 49.7432 21.8781 49.7432 26.3506L49.7402 26.3545C49.74 30.8268 46.8912 33.9961 42.9766 33.9961C40.6857 33.9961 38.9278 32.8776 37.8652 31.2256V33.6748H34.8574V13.1699H37.8652V21.5322ZM42.334 21.5889C39.7784 21.589 37.833 23.5588 37.833 26.3545C37.8332 29.1499 39.7785 31.119 42.334 31.1191C44.8896 31.1191 46.701 29.1747 46.7012 26.3545C46.7012 23.5587 44.8897 21.5889 42.334 21.5889Z" fill="#EFEBE7"/>
<path d="M17.6494 6C18.5106 6.00012 19.2908 6.34297 19.8555 6.89355L22.6152 9.69238L12.9502 19.1104C12.1263 19.9145 11.6875 20.9577 11.6357 22.0156L11.6338 22.2314C11.6339 23.3608 12.0754 24.49 12.9541 25.3477C13.8331 26.2054 14.9945 26.6367 16.1523 26.6367C17.3102 26.6367 18.4716 26.2054 19.3506 25.3477L22.0293 22.7354L29.3965 29.916V31.2285C29.3965 32.0757 29.0015 32.8354 28.3838 33.3438L22.7217 27.8262C22.3299 27.4449 21.6946 27.445 21.3027 27.8262C20.9109 28.2074 20.9109 28.8287 21.3027 29.21L26.2129 33.9932H21.9277L17.3633 29.5449C16.9716 29.1638 16.3362 29.164 15.9443 29.5449C15.5525 29.9262 15.5525 30.5475 15.9443 30.9287L19.0859 33.9932H14.7998L12.0049 31.2676C11.6132 30.8865 10.9778 30.8867 10.5859 31.2676C10.1941 31.6488 10.1941 32.2701 10.5859 32.6514L11.9619 33.9932H8.83789C7.27774 33.993 6 32.7499 6 31.2285V17.2998C6 16.4914 6.32499 15.7565 6.85449 15.2129L15.4883 6.85059C16.046 6.32461 16.7881 6 17.6494 6Z" fill="#EFEBE7"/>
<path fill-rule="evenodd" clip-rule="evenodd" d="M103.823 18.7051C108.536 18.7052 111.518 22.3546 111.226 27.1729V27.1797H99.3223C99.5623 29.8696 101.451 31.3594 103.904 31.3594C105.662 31.3593 107.127 30.615 107.819 29.1748H110.936C109.792 32.4503 106.997 33.993 103.88 33.9932C99.4321 33.9932 96.2617 30.7981 96.2617 26.375C96.2619 21.9521 99.4038 18.7051 103.823 18.7051ZM103.826 21.3203C101.617 21.3205 99.9927 22.7573 99.4844 24.7305H108.006C107.554 22.7325 106.036 21.3203 103.826 21.3203Z" fill="#EFEBE7"/>
<path fill-rule="evenodd" clip-rule="evenodd" d="M120.202 18.7051C124.915 18.7051 127.897 22.3545 127.604 27.1729V27.1797H115.701C115.941 29.8694 117.83 31.3592 120.283 31.3594C122.041 31.3594 123.506 30.6149 124.198 29.1748H127.315C126.172 32.4506 123.372 33.9932 120.259 33.9932C115.811 33.9931 112.642 30.7981 112.642 26.375C112.642 21.9521 115.783 18.7052 120.202 18.7051ZM120.202 21.3203C117.992 21.3204 116.369 22.7573 115.86 24.7305H124.382C123.93 22.7325 122.412 21.3203 120.202 21.3203Z" fill="#EFEBE7"/>
<path d="M94.3447 33.6787H91.3096V13.1729H94.3447V33.6787Z" fill="#EFEBE7"/>
<path d="M54.7422 33.6748H51.7344V19.0293H54.7422V33.6748Z" fill="#EFEBE7"/>
<path d="M28.5635 15.7227C29.0823 16.2627 29.4004 16.9898 29.4004 17.791V27.1484L22.0508 19.9863L22.0293 19.9648L17.9316 23.9609C17.4445 24.4339 16.7983 24.6748 16.1523 24.6748C15.5064 24.6748 14.8602 24.4375 14.373 23.9609C13.8827 23.4845 13.6388 22.8566 13.6387 22.2285C13.6387 21.6003 13.886 20.9716 14.373 20.4951L15.0654 19.8203V19.8242L24.0098 11.1055L28.5635 15.7227Z" fill="#EFEBE7"/>
<path d="M53.2275 12.4248C54.3218 12.4248 55.1973 13.1976 55.1973 14.2637C55.1972 15.3543 54.3712 16.1553 53.2275 16.1553C52.084 16.1552 51.2833 15.3578 51.2832 14.2637C51.2832 13.1694 52.1333 12.4249 53.2275 12.4248Z" fill="#EFEBE7"/>
<path d="M71.792 13.1768H71.7881V13.1729L71.792 13.1768Z" fill="#EFEBE7"/>
<path d="M88.835 13.1768H88.8311V13.1729L88.835 13.1768Z" fill="#EFEBE7"/>
<path d="M71.7881 33.6787V39.6787C75.1018 39.6787 77.7881 36.9924 77.7881 33.6787H71.7881ZM68.7812 33.6787H62.7812C62.7812 36.9924 65.4675 39.6787 68.7812 39.6787V33.6787ZM68.7812 31.2285H74.7812C74.7812 28.5796 73.0442 26.2441 70.5072 25.4821C67.9702 24.7201 65.2337 25.712 63.7742 27.9226L68.7812 31.2285ZM63.6416 34V40H63.642L63.6416 34ZM56.8779 26.3574L50.8779 26.3574V26.3574H56.8779ZM63.6162 18.7148V12.7148H63.616L63.6162 18.7148ZM68.7842 21.5391L63.7564 24.8134C65.2058 27.039 67.946 28.0469 70.492 27.2909C73.0381 26.5349 74.7842 24.195 74.7842 21.5391H68.7842ZM68.7842 13.1768V7.17676C65.4705 7.17676 62.7842 9.86305 62.7842 13.1768H68.7842ZM88.8311 33.6787V39.6787C92.1448 39.6787 94.8311 36.9924 94.8311 33.6787H88.8311ZM85.8242 33.6787H79.8242C79.8242 36.9924 82.5105 39.6787 85.8242 39.6787V33.6787ZM85.8242 31.2285H91.8242C91.8242 28.5796 90.0871 26.2441 87.5501 25.4821C85.0131 24.7201 82.2767 25.712 80.8171 27.9226L85.8242 31.2285ZM80.6846 34V40H80.685L80.6846 34ZM73.9209 26.3574L67.9209 26.3574V26.3574H73.9209ZM80.6592 18.7148V12.7148H80.659L80.6592 18.7148ZM85.8271 21.5391L80.7994 24.8134C82.2488 27.039 84.9889 28.0469 87.535 27.2909C90.081 26.5349 91.8271 24.195 91.8271 21.5391H85.8271ZM85.8271 13.1768V7.17676C82.5134 7.17676 79.8271 9.86305 79.8271 13.1768H85.8271ZM37.8652 21.5322H31.8652C31.8652 24.2003 33.6271 26.5479 36.1889 27.2933C38.7507 28.0387 41.497 27.0029 42.9285 24.7514L37.8652 21.5322ZM43.0049 18.708V12.708H43.0049L43.0049 18.708ZM49.7432 26.3506L54.5432 29.9506C55.3221 28.912 55.7432 27.6488 55.7432 26.3506H49.7432ZM49.7402 26.3545L44.9402 22.7545C44.1614 23.793 43.7403 25.0561 43.7402 26.3542L49.7402 26.3545ZM42.9766 33.9961L42.9765 39.9961H42.9766V33.9961ZM37.8652 31.2256L42.9115 27.9799C41.4714 25.7408 38.728 24.7184 36.1738 25.4689C33.6195 26.2195 31.8652 28.5633 31.8652 31.2256H37.8652ZM37.8652 33.6748V39.6748C41.1789 39.6748 43.8652 36.9885 43.8652 33.6748H37.8652ZM34.8574 33.6748H28.8574C28.8574 36.9885 31.5437 39.6748 34.8574 39.6748V33.6748ZM34.8574 13.1699V7.16992C31.5437 7.16992 28.8574 9.85621 28.8574 13.1699H34.8574ZM37.8652 13.1699H43.8652C43.8652 9.85621 41.1789 7.16992 37.8652 7.16992V13.1699ZM17.6494 6L17.6502 0H17.6494V6ZM19.8555 6.89355L24.1278 2.68083C24.1002 2.6528 24.0723 2.62505 24.0441 2.59757L19.8555 6.89355ZM22.6152 9.69238L26.8026 13.9896C27.9467 12.8747 28.599 11.3497 28.6149 9.7523C28.6309 8.15493 28.0092 6.61714 26.8876 5.47966L22.6152 9.69238ZM12.9502 19.1104L8.76283 14.8131L8.75942 14.8165L12.9502 19.1104ZM11.6357 22.0156L5.6429 21.7227C5.63901 21.8022 5.63671 21.8817 5.63599 21.9613L11.6357 22.0156ZM11.6338 22.2314L5.63403 22.1771C5.63387 22.1955 5.63379 22.2138 5.63379 22.2321L11.6338 22.2314ZM12.9541 25.3477L8.76329 29.6415L8.7635 29.6417L12.9541 25.3477ZM16.1523 26.6367V32.6367H16.1525L16.1523 26.6367ZM19.3506 25.3477L15.1615 21.0521L15.16 21.0536L19.3506 25.3477ZM22.0293 22.7354L26.2172 18.4387C23.8867 16.1671 20.1702 16.1676 17.8402 18.4398L22.0293 22.7354ZM29.3965 29.916H35.3965C35.3965 28.298 34.743 26.7486 33.5844 25.6193L29.3965 29.916ZM28.3838 33.3438L24.1963 37.6409C26.3874 39.776 29.8339 39.9207 32.1962 37.9768L28.3838 33.3438ZM22.7217 27.8262L26.9091 23.529L26.9058 23.5258L22.7217 27.8262ZM21.3027 27.8262L17.1189 23.5255L17.1186 23.5258L21.3027 27.8262ZM21.3027 29.21L25.4895 24.9121L25.4869 24.9096L21.3027 29.21ZM26.2129 33.9932V39.9932C28.654 39.9932 30.8517 38.5143 31.7711 36.2529C32.6905 33.9916 32.1482 31.3987 30.3996 29.6953L26.2129 33.9932ZM21.9277 33.9932L17.7401 38.2902C18.8606 39.3821 20.3632 39.9932 21.9277 39.9932V33.9932ZM17.3633 29.5449L21.5509 25.2479L21.5474 25.2446L17.3633 29.5449ZM15.9443 29.5449L11.762 25.2428L11.7602 25.2446L15.9443 29.5449ZM15.9443 30.9287L20.1339 26.6337L20.1285 26.6284L15.9443 30.9287ZM19.0859 33.9932V39.9932C21.5263 39.9932 23.7235 38.5151 24.6434 36.2548C25.5632 33.9944 25.0224 31.4021 23.2755 29.6981L19.0859 33.9932ZM14.7998 33.9932L10.6108 38.2888C11.7314 39.3815 13.2346 39.9932 14.7998 39.9932V33.9932ZM12.0049 31.2676L16.1939 26.972L16.189 26.9672L12.0049 31.2676ZM10.5859 31.2676L6.40393 26.9652L6.40179 26.9672L10.5859 31.2676ZM10.5859 32.6514L14.7749 28.3557L14.7701 28.351L10.5859 32.6514ZM11.9619 33.9932V39.9932C14.4024 39.9932 16.5998 38.5149 17.5195 36.2544C18.4393 33.9938 17.8981 31.4014 16.1509 29.6975L11.9619 33.9932ZM8.83789 33.9932L8.83743 39.9932H8.83789V33.9932ZM6.85449 15.2129L2.68015 10.903C2.6383 10.9436 2.59704 10.9847 2.55639 11.0264L6.85449 15.2129ZM15.4883 6.85059L11.3718 2.48546C11.3524 2.50375 11.3331 2.52217 11.3139 2.54073L15.4883 6.85059ZM103.823 18.7051L103.823 12.7051H103.823V18.7051ZM111.226 27.1729L105.237 26.8088C105.229 26.93 105.226 27.0514 105.226 27.1729H111.226ZM111.226 27.1797V33.1797C114.539 33.1797 117.226 30.4934 117.226 27.1797H111.226ZM99.3223 27.1797V21.1797C97.6382 21.1797 96.0317 21.8874 94.8951 23.13C93.7584 24.3726 93.1963 26.0356 93.346 27.713L99.3223 27.1797ZM103.904 31.3594V37.3594H103.904L103.904 31.3594ZM107.819 29.1748V23.1748C105.512 23.1748 103.41 24.4973 102.411 26.5767L107.819 29.1748ZM110.936 29.1748L116.6 31.1527C117.241 29.3177 116.953 27.286 115.828 25.7012C114.702 24.1163 112.879 23.1748 110.936 23.1748V29.1748ZM103.88 33.9932V39.9932H103.88L103.88 33.9932ZM96.2617 26.375L90.2617 26.3748V26.375H96.2617ZM120.202 18.7051V12.7051H120.202L120.202 18.7051ZM127.604 27.1729L121.616 26.8088C121.608 26.93 121.604 27.0514 121.604 27.1729H127.604ZM127.604 27.1797V33.1797C130.918 33.1797 133.604 30.4934 133.604 27.1797H127.604ZM115.701 27.1797V21.1797C114.017 21.1797 112.411 21.8874 111.274 23.13C110.137 24.3726 109.575 26.0356 109.725 27.713L115.701 27.1797ZM120.283 31.3594L120.283 37.3594H120.283V31.3594ZM124.198 29.1748V23.1748C121.892 23.1748 119.789 24.4972 118.79 26.5764L124.198 29.1748ZM127.315 29.1748L132.98 31.1526C133.621 29.3176 133.333 27.2859 132.208 25.7011C131.082 24.1163 129.259 23.1748 127.315 23.1748V29.1748ZM120.259 33.9932L120.259 39.9932H120.259V33.9932ZM112.642 26.375L106.642 26.3748V26.375H112.642ZM94.3447 33.6787V39.6787C97.6584 39.6787 100.345 36.9924 100.345 33.6787H94.3447ZM91.3096 33.6787H85.3096C85.3096 36.9924 87.9959 39.6787 91.3096 39.6787V33.6787ZM91.3096 13.1729V7.17285C87.9959 7.17285 85.3096 9.85914 85.3096 13.1729H91.3096ZM94.3447 13.1729H100.345C100.345 9.85914 97.6584 7.17285 94.3447 7.17285V13.1729ZM54.7422 33.6748V39.6748C58.0559 39.6748 60.7422 36.9885 60.7422 33.6748H54.7422ZM51.7344 33.6748H45.7344C45.7344 36.9885 48.4207 39.6748 51.7344 39.6748V33.6748ZM51.7344 19.0293V13.0293C48.4207 13.0293 45.7344 15.7156 45.7344 19.0293H51.7344ZM54.7422 19.0293H60.7422C60.7422 15.7156 58.0559 13.0293 54.7422 13.0293V19.0293ZM42.334 21.5889V15.5889H42.3337L42.334 21.5889ZM37.833 26.3545H31.833V26.355L37.833 26.3545ZM42.334 31.1191L42.3337 37.1191H42.334V31.1191ZM46.7012 26.3545L52.7012 26.3549V26.3545H46.7012ZM64.2764 21.5889V15.5889H64.2762L64.2764 21.5889ZM59.9102 26.3535L53.9102 26.3532V26.3535H59.9102ZM64.2764 31.1191L64.2762 37.1191H64.2764V31.1191ZM68.7773 26.3535H74.7773V26.3531L68.7773 26.3535ZM81.3232 21.5889L81.3235 15.5889H81.3232V21.5889ZM76.9561 26.3535L70.9561 26.3532V26.3535H76.9561ZM81.3232 31.1191V37.1191H81.3235L81.3232 31.1191ZM85.8242 26.3535H91.8242V26.3531L85.8242 26.3535ZM28.5635 15.7227L32.8903 11.5659C32.8721 11.547 32.8538 11.5282 32.8354 11.5095L28.5635 15.7227ZM29.4004 27.1484L25.2129 31.4455C26.9408 33.1294 29.5092 33.6144 31.7323 32.6768C33.9553 31.7391 35.4004 29.5611 35.4004 27.1484H29.4004ZM22.0508 19.9863L17.8081 24.229C17.8264 24.2472 17.8448 24.2654 17.8633 24.2834L22.0508 19.9863ZM22.0293 19.9648L26.2719 15.7222C23.9496 13.3998 20.1916 13.3762 17.8402 15.6693L22.0293 19.9648ZM17.9316 23.9609L22.1115 28.2655L22.1207 28.2565L17.9316 23.9609ZM16.1523 24.6748V30.6748H16.1525L16.1523 24.6748ZM14.373 23.9609L18.5688 19.6719C18.5638 19.6671 18.5589 19.6622 18.5539 19.6574L14.373 23.9609ZM13.6387 22.2285H7.63867L7.63867 22.2297L13.6387 22.2285ZM14.373 20.4951L10.1853 16.1983L10.1768 16.2066L14.373 20.4951ZM15.0654 19.8203H21.0654C21.0654 17.4076 19.6202 15.2295 17.3971 14.2919C15.174 13.3543 12.6055 13.8395 10.8777 15.5235L15.0654 19.8203ZM15.0654 19.8242H9.06543C9.06543 22.2371 10.5108 24.4152 12.734 25.3527C14.9572 26.2903 17.5258 25.8049 19.2535 24.1207L15.0654 19.8242ZM24.0098 11.1055L28.2817 6.89229C25.9644 4.54274 22.1847 4.50552 19.8217 6.80899L24.0098 11.1055ZM103.826 21.3203V15.3203H103.826L103.826 21.3203ZM99.4844 24.7305L93.6741 23.2337C93.2113 25.0302 93.6055 26.9397 94.742 28.406C95.8784 29.8723 97.6292 30.7305 99.4844 30.7305V24.7305ZM108.006 24.7305V30.7305C109.83 30.7305 111.555 29.9009 112.693 28.4761C113.832 27.0513 114.26 25.1859 113.858 23.407L108.006 24.7305ZM120.202 21.3203V15.3203H120.202L120.202 21.3203ZM115.86 24.7305L110.05 23.2337C109.587 25.0302 109.982 26.9397 111.118 28.406C112.254 29.8723 114.005 30.7305 115.86 30.7305V24.7305ZM124.382 24.7305V30.7305C126.206 30.7305 127.931 29.9009 129.069 28.4761C130.208 27.0513 130.636 25.1859 130.234 23.407L124.382 24.7305ZM53.2275 12.4248V6.4248L53.227 6.4248L53.2275 12.4248ZM55.1973 14.2637L61.1973 14.2643V14.2637H55.1973ZM53.2275 16.1553L53.227 22.1553H53.2275V16.1553ZM51.2832 14.2637H45.2832V14.2642L51.2832 14.2637ZM71.792 13.1768V19.1768C74.2188 19.1768 76.4066 17.7149 77.3353 15.4729C78.264 13.2308 77.7506 10.6501 76.0346 8.93412L71.792 13.1768ZM71.7881 13.1729L76.0307 8.93021C74.3147 7.21422 71.734 6.70089 69.492 7.62957C67.2499 8.55826 65.7881 10.7461 65.7881 13.1729H71.7881ZM88.835 13.1768V19.1768C91.2617 19.1768 93.4496 17.7149 94.3782 15.4729C95.3069 13.2308 94.7936 10.6501 93.0776 8.93412L88.835 13.1768ZM88.8311 13.1729L93.0737 8.93021C91.3577 7.21422 88.777 6.70089 86.535 7.62957C84.2929 8.55826 82.8311 10.7461 82.8311 13.1729H88.8311ZM71.7881 33.6787V27.6787H68.7812V33.6787V39.6787H71.7881V33.6787ZM68.7812 33.6787H74.7812V31.2285H68.7812H62.7812V33.6787H68.7812ZM68.7812 31.2285L63.7742 27.9226C63.7381 27.9772 63.7114 28.0049 63.7016 28.0143C63.6927 28.0228 63.6965 28.0174 63.7136 28.0077C63.7215 28.0033 63.7298 27.9993 63.7377 27.9961C63.7415 27.9946 63.7447 27.9934 63.7471 27.9926C63.7495 27.9918 63.7508 27.9915 63.7508 27.9915C63.7507 27.9915 63.749 27.992 63.7454 27.9927C63.7417 27.9934 63.7359 27.9944 63.7275 27.9954C63.7111 27.9975 63.6829 28 63.6412 28L63.6416 34L63.642 40C68.1258 39.9997 71.6887 37.7145 73.7883 34.5345L68.7812 31.2285ZM63.6416 34V28C63.4837 28 63.4118 27.9706 63.3907 27.9612C63.3678 27.9508 63.3297 27.9299 63.2759 27.8694C63.1762 27.7573 62.8779 27.3245 62.8779 26.3574H56.8779H50.8779C50.8779 33.4606 55.769 40 63.6416 40V34ZM56.8779 26.3574L62.8779 26.3574C62.8779 25.419 63.1721 24.9804 63.2868 24.8518C63.3486 24.7824 63.3938 24.7575 63.4173 24.7469C63.4381 24.7375 63.4945 24.7148 63.6164 24.7148L63.6162 18.7148L63.616 12.7148C55.8363 12.7151 50.8779 19.2375 50.8779 26.3574L56.8779 26.3574ZM63.6162 18.7148V24.7148C63.6974 24.7148 63.7276 24.7243 63.7205 24.7225C63.7133 24.7206 63.6951 24.7142 63.6754 24.7029C63.6571 24.6924 63.6548 24.6877 63.6675 24.6999C63.6812 24.7132 63.7136 24.7477 63.7564 24.8134L68.7842 21.5391L73.8119 18.2647C71.7297 15.0674 68.1702 12.7148 63.6162 12.7148V18.7148ZM68.7842 21.5391H74.7842V13.1768H68.7842H62.7842V21.5391H68.7842ZM68.7842 13.1768V19.1768H71.7881V13.1768V7.17676H68.7842V13.1768ZM71.7881 13.1768H65.7881V33.6787H71.7881H77.7881V13.1768H71.7881ZM88.8311 33.6787V27.6787H85.8242V33.6787V39.6787H88.8311V33.6787ZM85.8242 33.6787H91.8242V31.2285H85.8242H79.8242V33.6787H85.8242ZM85.8242 31.2285L80.8171 27.9226C80.7811 27.9772 80.7544 28.0049 80.7446 28.0143C80.7356 28.0228 80.7395 28.0174 80.7566 28.0077C80.7645 28.0033 80.7728 27.9993 80.7807 27.9961C80.7845 27.9946 80.7877 27.9934 80.7901 27.9926C80.7925 27.9918 80.7938 27.9915 80.7937 27.9915C80.7937 27.9915 80.792 27.992 80.7883 27.9927C80.7847 27.9934 80.7788 27.9944 80.7705 27.9954C80.7541 27.9975 80.7258 28 80.6842 28L80.6846 34L80.685 40C85.1688 39.9997 88.7317 37.7145 90.8313 34.5345L85.8242 31.2285ZM80.6846 34V28C80.5266 28 80.4548 27.9706 80.4337 27.9612C80.4107 27.9508 80.3727 27.9299 80.3189 27.8694C80.2192 27.7573 79.9209 27.3245 79.9209 26.3574H73.9209H67.9209C67.9209 33.4606 72.812 40 80.6846 40V34ZM73.9209 26.3574L79.9209 26.3574C79.9209 25.419 80.2151 24.9804 80.3298 24.8518C80.3916 24.7824 80.4368 24.7575 80.4603 24.7469C80.4811 24.7375 80.5375 24.7148 80.6594 24.7148L80.6592 18.7148L80.659 12.7148C72.8793 12.7151 67.9209 19.2375 67.9209 26.3574L73.9209 26.3574ZM80.6592 18.7148V24.7148C80.7403 24.7148 80.7706 24.7243 80.7635 24.7225C80.7562 24.7206 80.7381 24.7142 80.7184 24.7029C80.7001 24.6924 80.6978 24.6877 80.7105 24.6999C80.7242 24.7132 80.7566 24.7477 80.7994 24.8134L85.8271 21.5391L90.8549 18.2647C88.7727 15.0674 85.2132 12.7148 80.6592 12.7148V18.7148ZM85.8271 21.5391H91.8271V13.1768H85.8271H79.8271V21.5391H85.8271ZM85.8271 13.1768V19.1768H88.8311V13.1768V7.17676H85.8271V13.1768ZM88.8311 13.1768H82.8311V33.6787H88.8311H94.8311V13.1768H88.8311ZM37.8652 21.5322L42.9285 24.7514C42.9609 24.7005 42.9836 24.6771 42.9888 24.672C42.993 24.6679 42.9837 24.6775 42.9604 24.691C42.9495 24.6973 42.9381 24.7029 42.927 24.7074C42.916 24.7119 42.9082 24.7142 42.9053 24.715C42.9023 24.7158 42.9072 24.7143 42.9218 24.7124C42.9364 24.7105 42.9636 24.708 43.0049 24.708L43.0049 18.708L43.0049 12.708C38.4559 12.708 34.8684 15.0629 32.8019 18.3131L37.8652 21.5322ZM43.0049 18.708V24.708C43.1252 24.708 43.181 24.7304 43.202 24.7398C43.2258 24.7506 43.2714 24.7758 43.3337 24.8456C43.4492 24.9752 43.7432 25.4139 43.7432 26.3506H49.7432H55.7432C55.7432 19.2287 50.7796 12.708 43.0049 12.708V18.708ZM49.7432 26.3506L44.9432 22.7506L44.9402 22.7545L49.7402 26.3545L54.5402 29.9545L54.5432 29.9506L49.7432 26.3506ZM49.7402 26.3545L43.7402 26.3542C43.7402 27.3211 43.442 27.7536 43.3424 27.8656C43.2887 27.926 43.2507 27.9469 43.2277 27.9572C43.2066 27.9667 43.1346 27.9961 42.9766 27.9961V33.9961V39.9961C50.8483 39.9961 55.7399 33.4582 55.7402 26.3548L49.7402 26.3545ZM42.9766 33.9961L42.9766 27.9961C42.9348 27.9961 42.9064 27.9936 42.89 27.9915C42.8738 27.9895 42.8669 27.9876 42.868 27.9879C42.869 27.9881 42.8751 27.9898 42.8849 27.9938C42.8946 27.9977 42.9054 28.0029 42.9163 28.009C42.9271 28.0152 42.9361 28.0212 42.9428 28.0262C42.9494 28.0312 42.9526 28.0342 42.9526 28.0342C42.9524 28.0341 42.9485 28.0303 42.9415 28.0217C42.9344 28.013 42.9241 27.9994 42.9115 27.9799L37.8652 31.2256L32.8189 34.4713C34.9079 37.7191 38.505 39.996 42.9765 39.9961L42.9766 33.9961ZM37.8652 31.2256H31.8652V33.6748H37.8652H43.8652V31.2256H37.8652ZM37.8652 33.6748V27.6748H34.8574V33.6748V39.6748H37.8652V33.6748ZM34.8574 33.6748H40.8574V13.1699H34.8574H28.8574V33.6748H34.8574ZM34.8574 13.1699V19.1699H37.8652V13.1699V7.16992H34.8574V13.1699ZM37.8652 13.1699H31.8652V21.5322H37.8652H43.8652V13.1699H37.8652ZM17.6494 6L17.6486 12C16.8927 11.9999 16.1845 11.6942 15.6669 11.1895L19.8555 6.89355L24.0441 2.59757C22.3971 0.991709 20.1284 0.000341892 17.6502 0L17.6494 6ZM19.8555 6.89355L15.5831 11.1063L18.3429 13.9051L22.6152 9.69238L26.8876 5.47966L24.1278 2.68083L19.8555 6.89355ZM12.9502 19.1104L8.75942 14.8165C6.81871 16.7106 5.76635 19.1974 5.6429 21.7227L11.6357 22.0156L17.6286 22.3086C17.6086 22.7181 17.4338 23.1184 17.141 23.4042L12.9502 19.1104ZM11.6357 22.0156L5.63599 21.9613L5.63403 22.1771L11.6338 22.2314L17.6335 22.2857L17.6355 22.0699L11.6357 22.0156ZM11.6338 22.2314L5.63379 22.2321C5.63407 24.93 6.69408 27.6219 8.76329 29.6415L12.9541 25.3477L17.1449 21.0538C17.4566 21.358 17.6337 21.7916 17.6338 22.2308L11.6338 22.2314ZM12.9541 25.3477L8.7635 29.6417C10.8288 31.6573 13.5227 32.6367 16.1523 32.6367V26.6367V20.6367C16.4663 20.6367 16.8373 20.7536 17.1447 21.0536L12.9541 25.3477ZM16.1523 26.6367L16.1525 32.6367C18.7819 32.6367 21.4758 31.6573 23.5412 29.6417L19.3506 25.3477L15.16 21.0536C15.4675 20.7535 15.8384 20.6367 16.1522 20.6367L16.1523 26.6367ZM19.3506 25.3477L23.5396 29.6432L26.2184 27.0309L22.0293 22.7354L17.8402 18.4398L15.1615 21.0521L19.3506 25.3477ZM22.0293 22.7354L17.8414 27.032L25.2086 34.2127L29.3965 29.916L33.5844 25.6193L26.2172 18.4387L22.0293 22.7354ZM29.3965 29.916H23.3965V31.2285H29.3965H35.3965V29.916H29.3965ZM29.3965 31.2285H23.3965C23.3965 30.1585 23.9024 29.2612 24.5714 28.7107L28.3838 33.3438L32.1962 37.9768C34.1007 36.4097 35.3965 33.993 35.3965 31.2285H29.3965ZM28.3838 33.3438L32.5712 29.0466L26.9091 23.529L22.7217 27.8262L18.5342 32.1233L24.1963 37.6409L28.3838 33.3438ZM22.7217 27.8262L26.9058 23.5258C24.1845 20.8781 19.8395 20.8789 17.1189 23.5255L21.3027 27.8262L25.4865 32.1268C23.5496 34.0111 20.4752 34.0118 18.5375 32.1265L22.7217 27.8262ZM21.3027 27.8262L17.1186 23.5258C14.3056 26.2628 14.3056 30.7733 17.1186 33.5103L21.3027 29.21L25.4869 24.9096C27.5162 26.8841 27.5162 30.152 25.4869 32.1265L21.3027 27.8262ZM21.3027 29.21L17.116 33.5078L22.0262 38.291L26.2129 33.9932L30.3996 29.6953L25.4895 24.9121L21.3027 29.21ZM26.2129 33.9932V27.9932H21.9277V33.9932V39.9932H26.2129V33.9932ZM21.9277 33.9932L26.1153 29.6962L21.5509 25.2479L17.3633 29.5449L13.1757 33.8419L17.7401 38.2902L21.9277 33.9932ZM17.3633 29.5449L21.5474 25.2446C18.8248 22.5955 14.4808 22.5997 11.762 25.2428L15.9443 29.5449L20.1267 33.847C18.1916 35.7283 15.1183 35.732 13.1791 33.8453L17.3633 29.5449ZM15.9443 29.5449L11.7602 25.2446C8.94722 27.9815 8.94722 32.4921 11.7602 35.2291L15.9443 30.9287L20.1285 26.6284C22.1578 28.6028 22.1578 31.8708 20.1285 33.8453L15.9443 29.5449ZM15.9443 30.9287L11.7548 35.2238L14.8964 38.2882L19.0859 33.9932L23.2755 29.6981L20.1339 26.6337L15.9443 30.9287ZM19.0859 33.9932V27.9932H14.7998V33.9932V39.9932H19.0859V33.9932ZM14.7998 33.9932L18.9888 29.6976L16.1939 26.972L12.0049 31.2676L7.81586 35.5632L10.6108 38.2888L14.7998 33.9932ZM12.0049 31.2676L16.189 26.9672C13.4661 24.3179 9.12233 24.3228 6.40393 26.9652L10.5859 31.2676L14.7679 35.57C12.8333 37.4505 9.76025 37.455 7.82074 35.5679L12.0049 31.2676ZM10.5859 31.2676L6.40179 26.9672C3.58882 29.7042 3.58882 34.2147 6.40179 36.9517L10.5859 32.6514L14.7701 28.351C16.7994 30.3255 16.7994 33.5934 14.7701 35.5679L10.5859 31.2676ZM10.5859 32.6514L6.39699 36.947L7.77296 38.2888L11.9619 33.9932L16.1509 29.6975L14.7749 28.3557L10.5859 32.6514ZM11.9619 33.9932V27.9932H8.83789V33.9932V39.9932H11.9619V33.9932ZM8.83789 33.9932L8.83835 27.9932C10.4402 27.9933 12 29.2868 12 31.2285H6H0C0 36.213 4.11532 39.9928 8.83743 39.9932L8.83789 33.9932ZM6 31.2285H12V17.2998H6H0V31.2285H6ZM6 17.2998H12C12 18.139 11.6546 18.8839 11.1526 19.3993L6.85449 15.2129L2.55639 11.0264C0.995387 12.6291 0 14.8439 0 17.2998H6ZM6.85449 15.2129L11.0288 19.5228L19.6626 11.1604L15.4883 6.85059L11.3139 2.54073L2.68015 10.903L6.85449 15.2129ZM15.4883 6.85059L19.6048 11.2157C19.0907 11.7006 18.3748 12 17.6494 12V6V0C15.2014 0 13.0014 0.948671 11.3718 2.48546L15.4883 6.85059ZM103.823 18.7051L103.823 24.7051C104.218 24.7051 104.45 24.7792 104.569 24.8321C104.686 24.8842 104.771 24.9495 104.846 25.0367C104.984 25.198 105.303 25.715 105.237 26.8088L111.226 27.1729L117.215 27.5369C117.441 23.8124 116.415 20.0957 113.957 17.2276C111.449 14.3018 107.821 12.7052 103.823 12.7051L103.823 18.7051ZM111.226 27.1729H105.226V27.1797H111.226H117.226V27.1729H111.226ZM111.226 27.1797V21.1797H99.3223V27.1797V33.1797H111.226V27.1797ZM99.3223 27.1797L93.346 27.713C93.5861 30.4031 94.7223 32.945 96.8292 34.791C98.8998 36.6052 101.462 37.3594 103.904 37.3594V31.3594V25.3594C103.893 25.3594 104.284 25.3686 104.737 25.7654C104.952 25.9539 105.107 26.1696 105.201 26.3666C105.294 26.5583 105.301 26.6707 105.299 26.6464L99.3223 27.1797ZM103.904 31.3594L103.904 37.3594C107.344 37.3593 111.292 35.8017 113.228 31.7729L107.819 29.1748L102.411 26.5767C102.633 26.1146 103.006 25.7477 103.393 25.5374C103.74 25.3487 103.952 25.3594 103.904 25.3594L103.904 31.3594ZM107.819 29.1748V35.1748H110.936V29.1748V23.1748H107.819V29.1748ZM110.936 29.1748L105.271 27.1969C105.19 27.4296 105.106 27.557 105.056 27.6218C105.006 27.6863 104.954 27.732 104.893 27.7718C104.77 27.851 104.46 27.9931 103.88 27.9932L103.88 33.9932L103.88 39.9932C109.102 39.9929 114.477 37.2323 116.6 31.1527L110.936 29.1748ZM103.88 33.9932V27.9932C103.134 27.9932 102.794 27.749 102.65 27.605C102.505 27.4589 102.262 27.1155 102.262 26.375H96.2617H90.2617C90.2617 34.0989 96.1055 39.9932 103.88 39.9932V33.9932ZM96.2617 26.375L102.262 26.3752C102.262 25.6138 102.513 25.2417 102.67 25.082C102.816 24.9324 103.133 24.7051 103.823 24.7051V18.7051V12.7051C95.9789 12.7051 90.262 18.7506 90.2617 26.3748L96.2617 26.375ZM120.202 18.7051V24.7051C120.597 24.7051 120.829 24.7792 120.948 24.8321C121.065 24.8841 121.15 24.9494 121.225 25.0366C121.363 25.1978 121.682 25.7148 121.616 26.8088L127.604 27.1729L133.593 27.5369C133.82 23.8125 132.794 20.0957 130.336 17.2276C127.828 14.3017 124.2 12.7051 120.202 12.7051V18.7051ZM127.604 27.1729H121.604V27.1797H127.604H133.604V27.1729H127.604ZM127.604 27.1797V21.1797H115.701V27.1797V33.1797H127.604V27.1797ZM115.701 27.1797L109.725 27.713C109.965 30.4033 111.101 32.9451 113.208 34.791C115.279 36.605 117.841 37.3592 120.283 37.3594L120.283 31.3594L120.284 25.3594C120.272 25.3594 120.664 25.3687 121.116 25.7653C121.331 25.9537 121.485 26.1693 121.58 26.3663C121.672 26.558 121.68 26.6706 121.677 26.6464L115.701 27.1797ZM120.283 31.3594V37.3594C123.724 37.3594 127.671 35.8014 129.606 31.7732L124.198 29.1748L118.79 26.5764C119.012 26.1145 119.385 25.7477 119.772 25.5374C120.118 25.3487 120.331 25.3594 120.283 25.3594V31.3594ZM124.198 29.1748V35.1748H127.315V29.1748V23.1748H124.198V29.1748ZM127.315 29.1748L121.651 27.197C121.57 27.4286 121.487 27.5555 121.436 27.6203C121.386 27.6848 121.334 27.7309 121.272 27.7711C121.148 27.8514 120.837 27.9932 120.259 27.9932V33.9932V39.9932C125.475 39.9932 130.856 37.2347 132.98 31.1526L127.315 29.1748ZM120.259 33.9932L120.259 27.9932C119.513 27.9932 119.174 27.7491 119.03 27.6053C118.885 27.4595 118.642 27.116 118.642 26.375H112.642H106.642C106.642 34.0979 112.483 39.9931 120.259 39.9932L120.259 33.9932ZM112.642 26.375L118.642 26.3752C118.642 25.6134 118.893 25.2413 119.049 25.0817C119.196 24.9323 119.513 24.7051 120.202 24.7051L120.202 18.7051L120.202 12.7051C112.357 12.7052 106.642 18.7516 106.642 26.3748L112.642 26.375ZM94.3447 33.6787V27.6787H91.3096V33.6787V39.6787H94.3447V33.6787ZM91.3096 33.6787H97.3096V13.1729H91.3096H85.3096V33.6787H91.3096ZM91.3096 13.1729V19.1729H94.3447V13.1729V7.17285H91.3096V13.1729ZM94.3447 13.1729H88.3447V33.6787H94.3447H100.345V13.1729H94.3447ZM54.7422 33.6748V27.6748H51.7344V33.6748V39.6748H54.7422V33.6748ZM51.7344 33.6748H57.7344V19.0293H51.7344H45.7344V33.6748H51.7344ZM51.7344 19.0293V25.0293H54.7422V19.0293V13.0293H51.7344V19.0293ZM54.7422 19.0293H48.7422V33.6748H54.7422H60.7422V19.0293H54.7422ZM42.334 21.5889L42.3337 15.5889C36.2194 15.5891 31.833 20.4957 31.833 26.3545H37.833H43.833C43.833 26.3533 43.8331 26.3748 43.8256 26.4158C43.8182 26.4569 43.8038 26.5146 43.7767 26.5849C43.7214 26.7288 43.6214 26.9031 43.4598 27.0719C43.1054 27.4422 42.6517 27.5889 42.3342 27.5889L42.334 21.5889ZM37.833 26.3545L31.833 26.355C31.8335 32.2142 36.2206 37.1189 42.3337 37.1191L42.334 31.1191L42.3342 25.1191C42.6512 25.1192 43.1048 25.2655 43.4594 25.636C43.6211 25.8048 43.7212 25.9792 43.7767 26.1233C43.8037 26.1936 43.8182 26.2514 43.8256 26.2926C43.8331 26.3337 43.833 26.3551 43.833 26.354L37.833 26.3545ZM42.334 31.1191V37.1191C45.2086 37.1191 47.9278 35.989 49.8894 33.859C51.8198 31.7628 52.701 29.0538 52.7012 26.3549L46.7012 26.3545L40.7012 26.3541C40.7012 26.4754 40.6765 26.1487 41.0623 25.7298C41.2464 25.53 41.4789 25.3642 41.7349 25.2547C41.9898 25.1457 42.2045 25.1191 42.334 25.1191V31.1191ZM46.7012 26.3545H52.7012C52.7012 23.6574 51.8142 20.9568 49.8974 18.8673C47.9484 16.7426 45.2323 15.5889 42.334 15.5889V21.5889V27.5889C42.1938 27.5889 41.9734 27.5598 41.7174 27.4494C41.4613 27.3389 41.2331 27.1738 41.0545 26.9792C40.6824 26.5736 40.7012 26.2558 40.7012 26.3545H46.7012ZM64.2764 21.5889L64.2762 15.5889C61.3785 15.589 58.6626 16.7422 56.7135 18.8671C54.7968 20.9566 53.9103 23.6569 53.9102 26.3532L59.9102 26.3535L65.9102 26.3539C65.9102 26.2547 65.9291 26.5727 65.5566 26.9788C65.3778 27.1736 65.1493 27.3388 64.893 27.4493C64.637 27.5598 64.4165 27.5889 64.2766 27.5889L64.2764 21.5889ZM59.9102 26.3535H53.9102C53.9102 31.9902 57.9815 37.1189 64.2762 37.1191L64.2764 31.1191L64.2766 25.1191C64.6469 25.1192 65.1695 25.2972 65.5583 25.7194C65.9208 26.1128 65.9102 26.428 65.9102 26.3535H59.9102ZM64.2764 31.1191V37.1191C70.3185 37.1191 74.7773 32.2832 74.7773 26.3535H68.7773H62.7773C62.7773 26.355 62.7781 26.2664 62.8353 26.1188C62.8925 25.9713 62.9947 25.796 63.1567 25.6281C63.5076 25.2644 63.9544 25.1191 64.2764 25.1191V31.1191ZM68.7773 26.3535L74.7773 26.3531C74.777 20.4939 70.39 15.5889 64.2764 15.5889V21.5889V27.5889C63.9595 27.5889 63.5057 27.4425 63.151 27.0719C62.9892 26.903 62.8891 26.7286 62.8337 26.5845C62.8066 26.5142 62.7922 26.4564 62.7847 26.4153C62.7773 26.3742 62.7773 26.3527 62.7773 26.3539L68.7773 26.3535ZM81.3232 21.5889V15.5889C78.4256 15.5889 75.7097 16.7419 73.7604 18.8664C71.8434 20.9557 70.9562 23.6561 70.9561 26.3532L76.9561 26.3535L82.9561 26.3539C82.9561 26.2554 82.9747 26.5735 82.6023 26.9794C82.4237 27.1741 82.1953 27.339 81.9393 27.4495C81.6834 27.5599 81.4632 27.5889 81.3232 27.5889V21.5889ZM76.9561 26.3535H70.9561C70.9561 31.9919 75.0298 37.1191 81.3232 37.1191V31.1191V25.1191C81.6934 25.1191 82.2155 25.2971 82.6041 25.7188C82.9665 26.112 82.9561 26.4273 82.9561 26.3535H76.9561ZM81.3232 31.1191L81.3235 37.1191C87.365 37.1189 91.8242 32.2833 91.8242 26.3535H85.8242H79.8242C79.8242 26.3549 79.825 26.2663 79.8822 26.1187C79.9394 25.9712 80.0416 25.7958 80.2036 25.628C80.5544 25.2644 81.0011 25.1192 81.323 25.1191L81.3232 31.1191ZM85.8242 26.3535L91.8242 26.3531C91.8238 20.4937 87.4365 15.5891 81.3235 15.5889L81.3232 21.5889L81.323 27.5889C81.0061 27.5889 80.5525 27.4425 80.1978 27.0721C80.0361 26.9032 79.936 26.7287 79.8806 26.5847C79.8535 26.5143 79.8391 26.4565 79.8316 26.4154C79.8242 26.3743 79.8242 26.3528 79.8242 26.3539L85.8242 26.3535ZM28.5635 15.7227L24.2367 19.8794C23.7371 19.3594 23.4004 18.6173 23.4004 17.791H29.4004H35.4004C35.4004 15.3622 34.4276 13.1661 32.8903 11.5659L28.5635 15.7227ZM29.4004 17.791H23.4004V27.1484H29.4004H35.4004V17.791H29.4004ZM22.0508 19.9863L26.2934 15.7437L26.2719 15.7222L22.0293 19.9648L17.7867 24.2075L17.8081 24.229L22.0508 19.9863ZM22.0293 19.9648L17.8402 15.6693L13.7426 19.6654L17.9316 23.9609L22.1207 28.2565L26.2184 24.2604L22.0293 19.9648ZM17.9316 23.9609L13.7518 19.6564C14.4478 18.9806 15.3281 18.6748 16.1522 18.6748L16.1523 24.6748L16.1525 30.6748C18.2685 30.6747 20.4412 29.8873 22.1115 28.2655L17.9316 23.9609ZM16.1523 24.6748V18.6748C16.9565 18.6748 17.8529 18.9716 18.5688 19.6719L14.373 23.9609L10.1773 28.2499C11.8674 29.9034 14.0562 30.6748 16.1523 30.6748V24.6748ZM14.373 23.9609L18.5539 19.6574C19.2702 20.3533 19.6385 21.2969 19.6387 22.2274L13.6387 22.2285L7.63867 22.2297C7.63909 24.4163 8.49509 26.6158 10.1922 28.2645L14.373 23.9609ZM13.6387 22.2285H19.6387C19.6387 23.1774 19.2619 24.1059 18.5693 24.7836L14.373 20.4951L10.1768 16.2066C8.51019 17.8373 7.63867 20.0231 7.63867 22.2285H13.6387ZM14.373 20.4951L18.5608 24.792L19.2532 24.1171L15.0654 19.8203L10.8777 15.5235L10.1853 16.1983L14.373 20.4951ZM15.0654 19.8203H9.06543V19.8242H15.0654H21.0654V19.8203H15.0654ZM24.0098 11.1055L19.7379 15.3186L24.2916 19.9358L28.5635 15.7227L32.8354 11.5095L28.2817 6.89229L24.0098 11.1055ZM103.826 21.3203L103.826 15.3203C98.6504 15.3207 94.8064 18.838 93.6741 23.2337L99.4844 24.7305L105.295 26.2272C105.251 26.3957 105.12 26.6833 104.801 26.9422C104.457 27.2218 104.073 27.3203 103.827 27.3203L103.826 21.3203ZM99.4844 24.7305V30.7305H108.006V24.7305V18.7305H99.4844V24.7305ZM108.006 24.7305L113.858 23.407C112.853 18.9607 109.123 15.3203 103.826 15.3203V21.3203V27.3203C103.594 27.3203 103.132 27.2221 102.699 26.856C102.299 26.5178 102.18 26.1683 102.154 26.0539L108.006 24.7305ZM120.202 21.3203L120.202 15.3203C115.026 15.3205 111.182 18.8382 110.05 23.2337L115.86 24.7305L121.671 26.2272C121.627 26.3956 121.496 26.6831 121.177 26.9422C120.833 27.2218 120.449 27.3203 120.202 27.3203L120.202 21.3203ZM115.86 24.7305V30.7305H124.382V24.7305V18.7305H115.86V24.7305ZM124.382 24.7305L130.234 23.407C129.229 18.9607 125.499 15.3203 120.202 15.3203V21.3203V27.3203C119.97 27.3203 119.508 27.2221 119.075 26.856C118.675 26.5178 118.555 26.1683 118.53 26.0539L124.382 24.7305ZM53.2275 12.4248V18.4248C52.3611 18.4248 51.3805 18.1128 50.5654 17.3646C49.7182 16.587 49.1973 15.4581 49.1973 14.2637H55.1973H61.1973C61.1973 9.4106 57.1416 6.4248 53.2275 6.4248V12.4248ZM55.1973 14.2637L49.1973 14.2631C49.1974 13.2385 49.6116 12.1323 50.4791 11.2968C51.3351 10.4724 52.373 10.1553 53.2275 10.1553V16.1553V22.1553C57.4706 22.1553 61.1968 18.8785 61.1973 14.2643L55.1973 14.2637ZM53.2275 16.1553L53.228 10.1553C54.0832 10.1553 55.149 10.4752 56.0252 11.3336C56.9059 12.1962 57.2831 13.301 57.2832 14.2631L51.2832 14.2637L45.2832 14.2642C45.2836 18.7877 48.8874 22.1549 53.227 22.1553L53.2275 16.1553ZM51.2832 14.2637H57.2832C57.2832 15.3554 56.8221 16.5039 55.918 17.3397C55.0544 18.1381 54.0423 18.4247 53.228 18.4248L53.2275 12.4248L53.227 6.4248C49.2722 6.42514 45.2832 9.4205 45.2832 14.2637H51.2832ZM71.792 13.1768V7.17676H71.7881V13.1768V19.1768H71.792V13.1768ZM71.7881 13.1768H77.7881V13.1729H71.7881H65.7881V13.1768H71.7881ZM71.7881 13.1729L67.5454 17.4155L67.5494 17.4194L71.792 13.1768L76.0346 8.93412L76.0307 8.93021L71.7881 13.1729ZM88.835 13.1768V7.17676H88.8311V13.1768V19.1768H88.835V13.1768ZM88.8311 13.1768H94.8311V13.1729H88.8311H82.8311V13.1768H88.8311ZM88.8311 13.1729L84.5884 17.4155L84.5923 17.4194L88.835 13.1768L93.0776 8.93412L93.0737 8.93021L88.8311 13.1729ZM22.6152 9.69238L18.4279 5.39517L8.76284 14.8131L12.9502 19.1104L17.1376 23.4076L26.8026 13.9896L22.6152 9.69238ZM29.4004 27.1484L33.5879 22.8513L26.2383 15.6892L22.0508 19.9863L17.8633 24.2834L25.2129 31.4455L29.4004 27.1484ZM15.0654 19.8242L19.2535 24.1207L28.1979 15.4019L24.0098 11.1055L19.8217 6.80899L10.8773 15.5277L15.0654 19.8242Z" fill="#E47249" mask="url(#path-2-outside-1_1089_122)"/>
</svg>
