<svg width="164" height="27" viewBox="0 0 164 27" fill="none" xmlns="http://www.w3.org/2000/svg">
<mask id="path-1-outside-1_1089_121" maskUnits="userSpaceOnUse" x="0" y="0" width="164" height="27" fill="black">
<rect fill="white" width="164" height="27"/>
<path d="M13.5654 21C12.2004 21 10.9359 20.6667 9.77194 20C8.6224 19.3333 7.70276 18.4236 7.01304 17.2708C6.33768 16.1181 6 14.8611 6 13.5C6 12.1389 6.33768 10.8819 7.01304 9.72917C7.70276 8.57639 8.6224 7.66667 9.77194 7C10.9359 6.33333 12.2004 6 13.5654 6C14.6288 6 15.6059 6.19444 16.4968 6.58333C17.3877 6.97222 18.1708 7.52083 18.8462 8.22917C19.5215 8.92361 20.0604 9.74306 20.4627 10.6875H19.0833C18.5372 9.60417 17.7828 8.75 16.8201 8.125C15.8573 7.5 14.7725 7.1875 13.5654 7.1875C12.4446 7.1875 11.4029 7.46528 10.4401 8.02083C9.49174 8.57639 8.73735 9.33333 8.17695 10.2917C7.61655 11.25 7.33635 12.3194 7.33635 13.5C7.33635 14.6806 7.61655 15.75 8.17695 16.7083C8.73735 17.6667 9.49174 18.4236 10.4401 18.9792C11.4029 19.5347 12.4446 19.8125 13.5654 19.8125C14.8012 19.8125 15.9076 19.5 16.8847 18.875C17.8619 18.25 18.6162 17.3958 19.1479 16.3125H20.5274C20.1394 17.2569 19.6005 18.0833 18.9108 18.7917C18.2355 19.4861 17.438 20.0278 16.5183 20.4167C15.6131 20.8056 14.6288 21 13.5654 21Z"/>
<path d="M29.4817 21C28.0735 21 26.7803 20.6667 25.602 20C24.4381 19.3333 23.5112 18.4236 22.8215 17.2708C22.1462 16.1181 21.8085 14.8611 21.8085 13.5C21.8085 12.1389 22.1462 10.8819 22.8215 9.72917C23.5112 8.57639 24.4381 7.66667 25.602 7C26.7803 6.33333 28.0735 6 29.4817 6C30.8899 6 32.1831 6.33333 33.3614 7C34.5397 7.66667 35.4665 8.57639 36.1419 9.72917C36.8172 10.8819 37.1549 12.1389 37.1549 13.5C37.1549 14.8611 36.8172 16.1181 36.1419 17.2708C35.4665 18.4236 34.5397 19.3333 33.3614 20C32.1831 20.6667 30.8899 21 29.4817 21ZM29.4817 19.8125C30.6456 19.8125 31.7089 19.5347 32.6717 18.9792C33.6488 18.4097 34.4175 17.6458 34.9779 16.6875C35.5527 15.7292 35.8401 14.6667 35.8401 13.5C35.8401 12.3333 35.5527 11.2708 34.9779 10.3125C34.4175 9.35417 33.6488 8.59722 32.6717 8.04167C31.7089 7.47222 30.6456 7.1875 29.4817 7.1875C28.3178 7.1875 27.2473 7.47222 26.2701 8.04167C25.3074 8.59722 24.5458 9.35417 23.9854 10.3125C23.425 11.2708 23.1448 12.3333 23.1448 13.5C23.1448 14.6667 23.425 15.7292 23.9854 16.6875C24.5458 17.6458 25.3074 18.4097 26.2701 18.9792C27.2473 19.5347 28.3178 19.8125 29.4817 19.8125Z"/>
<path d="M46.2348 21C44.8698 21 43.6053 20.6667 42.4413 20C41.2918 19.3333 40.3722 18.4236 39.6824 17.2708C39.0071 16.1181 38.6694 14.8611 38.6694 13.5C38.6694 12.1389 39.0071 10.8819 39.6824 9.72917C40.3722 8.57639 41.2918 7.66667 42.4413 7C43.6053 6.33333 44.8698 6 46.2348 6C47.2982 6 48.2753 6.19444 49.1662 6.58333C50.0571 6.97222 50.8402 7.52083 51.5156 8.22917C52.1909 8.92361 52.7298 9.74306 53.1321 10.6875H51.7527C51.2066 9.60417 50.4522 8.75 49.4895 8.125C48.5267 7.5 47.4419 7.1875 46.2348 7.1875C45.114 7.1875 44.0723 7.46528 43.1095 8.02083C42.1611 8.57639 41.4068 9.33333 40.8463 10.2917C40.2859 11.25 40.0057 12.3194 40.0057 13.5C40.0057 14.6806 40.2859 15.75 40.8463 16.7083C41.4068 17.6667 42.1611 18.4236 43.1095 18.9792C44.0723 19.5347 45.114 19.8125 46.2348 19.8125C47.4706 19.8125 48.577 19.5 49.5541 18.875C50.5313 18.25 51.2856 17.3958 51.8173 16.3125H53.1968C52.8088 17.2569 52.2699 18.0833 51.5802 18.7917C50.9049 19.4861 50.1074 20.0278 49.1877 20.4167C48.2825 20.8056 47.2982 21 46.2348 21Z"/>
<path d="M55.4909 20.7917V6.20833H56.7841V20.7917H55.4909Z"/>
<path d="M60.2042 20.7917V6.20833H61.0448L72.1019 19.125L71.5631 19.2292V6.20833H72.8348V20.7917H71.9942L60.937 7.875L61.4758 7.77083V20.7917H60.2042Z"/>
<path d="M74.5003 20.7917L80.6001 6.20833H81.57L87.6913 20.7917H86.2903L84.372 16.0833L84.2643 15.8333L80.8156 7.45833H81.3329L77.9058 15.8333L77.7981 16.0833L75.8582 20.7917H74.5003ZM77.1515 16.625V15.4375H85.1695V16.625H77.1515Z"/>
<path d="M93.2221 21C92.2163 21 91.3397 20.8125 90.5925 20.4375C89.8453 20.0625 89.2634 19.5417 88.8467 18.875C88.4443 18.2083 88.2288 17.4583 88.2001 16.625H89.4933C89.522 17.2083 89.6801 17.7431 89.9675 18.2292C90.2549 18.7153 90.6716 19.1042 91.2176 19.3958C91.778 19.6736 92.4462 19.8125 93.2221 19.8125C93.9406 19.8125 94.5585 19.6944 95.0758 19.4583C95.5931 19.2222 95.981 18.9028 96.2397 18.5C96.5127 18.0833 96.6492 17.625 96.6492 17.125C96.6492 16.4861 96.484 15.9653 96.1535 15.5625C95.823 15.1597 95.4063 14.8472 94.9033 14.625C94.4148 14.4028 93.7538 14.1667 92.9204 13.9167C91.972 13.6111 91.2104 13.3264 90.6357 13.0625C90.0752 12.7986 89.5939 12.4028 89.1915 11.875C88.7892 11.3333 88.588 10.6319 88.588 9.77083C88.588 9.04861 88.7892 8.40278 89.1915 7.83333C89.5939 7.26389 90.1399 6.81944 90.8296 6.5C91.5337 6.16667 92.3169 6 93.179 6C93.9981 6 94.7453 6.18056 95.4206 6.54167C96.1104 6.88889 96.6636 7.375 97.0803 8C97.497 8.625 97.7125 9.3125 97.7269 10.0625H96.4337C96.4193 9.53472 96.2684 9.05556 95.981 8.625C95.708 8.19444 95.32 7.84722 94.8171 7.58333C94.3142 7.31944 93.7466 7.1875 93.1143 7.1875C92.4965 7.1875 91.9433 7.29167 91.4547 7.5C90.9805 7.70833 90.6069 8.01389 90.3339 8.41667C90.0609 8.80556 89.9244 9.25694 89.9244 9.77083C89.9244 10.3681 90.0824 10.8611 90.3986 11.25C90.7147 11.625 91.1098 11.9167 91.584 12.125C92.0582 12.3333 92.7048 12.5694 93.5239 12.8333C94.4866 13.125 95.2626 13.4167 95.8517 13.7083C96.4552 13.9861 96.9581 14.4028 97.3605 14.9583C97.7772 15.5 97.9855 16.2222 97.9855 17.125C97.9855 17.875 97.7772 18.5486 97.3605 19.1458C96.9438 19.7292 96.369 20.1875 95.6362 20.5208C94.9177 20.8403 94.113 21 93.2221 21Z"/>
<path d="M112.123 21C110.757 21 109.493 20.6667 108.329 20C107.18 19.3333 106.26 18.4236 105.57 17.2708C104.895 16.1181 104.557 14.8611 104.557 13.5C104.557 12.1389 104.895 10.8819 105.57 9.72917C106.26 8.57639 107.18 7.66667 108.329 7C109.493 6.33333 110.757 6 112.123 6C113.186 6 114.163 6.19444 115.054 6.58333C115.945 6.97222 116.728 7.52083 117.403 8.22917C118.079 8.92361 118.618 9.74306 119.02 10.6875H117.64C117.094 9.60417 116.34 8.75 115.377 8.125C114.414 7.5 113.33 7.1875 112.123 7.1875C111.002 7.1875 109.96 7.46528 108.997 8.02083C108.049 8.57639 107.295 9.33333 106.734 10.2917C106.174 11.25 105.893 12.3194 105.893 13.5C105.893 14.6806 106.174 15.75 106.734 16.7083C107.295 17.6667 108.049 18.4236 108.997 18.9792C109.96 19.5347 111.002 19.8125 112.123 19.8125C113.358 19.8125 114.465 19.5 115.442 18.875C116.419 18.25 117.173 17.3958 117.705 16.3125H119.085C118.697 17.2569 118.158 18.0833 117.468 18.7917C116.793 19.4861 115.995 20.0278 115.075 20.4167C114.17 20.8056 113.186 21 112.123 21Z"/>
<path d="M121.271 20.7917V6.20833H122.564V20.7917H121.271ZM122.004 13.8125V12.625H131.703V13.8125H122.004ZM131.143 20.7917V6.20833H132.436V20.7917H131.143Z"/>
<path d="M135.861 20.7917V6.20833H137.154V20.7917H135.861Z"/>
<path d="M140.574 20.7917V6.20833H141.868V19.6042H148.075V20.7917H140.574Z"/>
<path d="M150.068 20.7917V6.20833H157.784V7.39583H151.361V19.6042H158V20.7917H150.068ZM151.103 13.8125V12.625H157.569V13.8125H151.103Z"/>
</mask>
<path d="M13.5654 21C12.2004 21 10.9359 20.6667 9.77194 20C8.6224 19.3333 7.70276 18.4236 7.01304 17.2708C6.33768 16.1181 6 14.8611 6 13.5C6 12.1389 6.33768 10.8819 7.01304 9.72917C7.70276 8.57639 8.6224 7.66667 9.77194 7C10.9359 6.33333 12.2004 6 13.5654 6C14.6288 6 15.6059 6.19444 16.4968 6.58333C17.3877 6.97222 18.1708 7.52083 18.8462 8.22917C19.5215 8.92361 20.0604 9.74306 20.4627 10.6875H19.0833C18.5372 9.60417 17.7828 8.75 16.8201 8.125C15.8573 7.5 14.7725 7.1875 13.5654 7.1875C12.4446 7.1875 11.4029 7.46528 10.4401 8.02083C9.49174 8.57639 8.73735 9.33333 8.17695 10.2917C7.61655 11.25 7.33635 12.3194 7.33635 13.5C7.33635 14.6806 7.61655 15.75 8.17695 16.7083C8.73735 17.6667 9.49174 18.4236 10.4401 18.9792C11.4029 19.5347 12.4446 19.8125 13.5654 19.8125C14.8012 19.8125 15.9076 19.5 16.8847 18.875C17.8619 18.25 18.6162 17.3958 19.1479 16.3125H20.5274C20.1394 17.2569 19.6005 18.0833 18.9108 18.7917C18.2355 19.4861 17.438 20.0278 16.5183 20.4167C15.6131 20.8056 14.6288 21 13.5654 21Z" fill="#1A1A1A"/>
<path d="M29.4817 21C28.0735 21 26.7803 20.6667 25.602 20C24.4381 19.3333 23.5112 18.4236 22.8215 17.2708C22.1462 16.1181 21.8085 14.8611 21.8085 13.5C21.8085 12.1389 22.1462 10.8819 22.8215 9.72917C23.5112 8.57639 24.4381 7.66667 25.602 7C26.7803 6.33333 28.0735 6 29.4817 6C30.8899 6 32.1831 6.33333 33.3614 7C34.5397 7.66667 35.4665 8.57639 36.1419 9.72917C36.8172 10.8819 37.1549 12.1389 37.1549 13.5C37.1549 14.8611 36.8172 16.1181 36.1419 17.2708C35.4665 18.4236 34.5397 19.3333 33.3614 20C32.1831 20.6667 30.8899 21 29.4817 21ZM29.4817 19.8125C30.6456 19.8125 31.7089 19.5347 32.6717 18.9792C33.6488 18.4097 34.4175 17.6458 34.9779 16.6875C35.5527 15.7292 35.8401 14.6667 35.8401 13.5C35.8401 12.3333 35.5527 11.2708 34.9779 10.3125C34.4175 9.35417 33.6488 8.59722 32.6717 8.04167C31.7089 7.47222 30.6456 7.1875 29.4817 7.1875C28.3178 7.1875 27.2473 7.47222 26.2701 8.04167C25.3074 8.59722 24.5458 9.35417 23.9854 10.3125C23.425 11.2708 23.1448 12.3333 23.1448 13.5C23.1448 14.6667 23.425 15.7292 23.9854 16.6875C24.5458 17.6458 25.3074 18.4097 26.2701 18.9792C27.2473 19.5347 28.3178 19.8125 29.4817 19.8125Z" fill="#1A1A1A"/>
<path d="M46.2348 21C44.8698 21 43.6053 20.6667 42.4413 20C41.2918 19.3333 40.3722 18.4236 39.6824 17.2708C39.0071 16.1181 38.6694 14.8611 38.6694 13.5C38.6694 12.1389 39.0071 10.8819 39.6824 9.72917C40.3722 8.57639 41.2918 7.66667 42.4413 7C43.6053 6.33333 44.8698 6 46.2348 6C47.2982 6 48.2753 6.19444 49.1662 6.58333C50.0571 6.97222 50.8402 7.52083 51.5156 8.22917C52.1909 8.92361 52.7298 9.74306 53.1321 10.6875H51.7527C51.2066 9.60417 50.4522 8.75 49.4895 8.125C48.5267 7.5 47.4419 7.1875 46.2348 7.1875C45.114 7.1875 44.0723 7.46528 43.1095 8.02083C42.1611 8.57639 41.4068 9.33333 40.8463 10.2917C40.2859 11.25 40.0057 12.3194 40.0057 13.5C40.0057 14.6806 40.2859 15.75 40.8463 16.7083C41.4068 17.6667 42.1611 18.4236 43.1095 18.9792C44.0723 19.5347 45.114 19.8125 46.2348 19.8125C47.4706 19.8125 48.577 19.5 49.5541 18.875C50.5313 18.25 51.2856 17.3958 51.8173 16.3125H53.1968C52.8088 17.2569 52.2699 18.0833 51.5802 18.7917C50.9049 19.4861 50.1074 20.0278 49.1877 20.4167C48.2825 20.8056 47.2982 21 46.2348 21Z" fill="#1A1A1A"/>
<path d="M55.4909 20.7917V6.20833H56.7841V20.7917H55.4909Z" fill="#1A1A1A"/>
<path d="M60.2042 20.7917V6.20833H61.0448L72.1019 19.125L71.5631 19.2292V6.20833H72.8348V20.7917H71.9942L60.937 7.875L61.4758 7.77083V20.7917H60.2042Z" fill="#1A1A1A"/>
<path d="M74.5003 20.7917L80.6001 6.20833H81.57L87.6913 20.7917H86.2903L84.372 16.0833L84.2643 15.8333L80.8156 7.45833H81.3329L77.9058 15.8333L77.7981 16.0833L75.8582 20.7917H74.5003ZM77.1515 16.625V15.4375H85.1695V16.625H77.1515Z" fill="#1A1A1A"/>
<path d="M93.2221 21C92.2163 21 91.3397 20.8125 90.5925 20.4375C89.8453 20.0625 89.2634 19.5417 88.8467 18.875C88.4443 18.2083 88.2288 17.4583 88.2001 16.625H89.4933C89.522 17.2083 89.6801 17.7431 89.9675 18.2292C90.2549 18.7153 90.6716 19.1042 91.2176 19.3958C91.778 19.6736 92.4462 19.8125 93.2221 19.8125C93.9406 19.8125 94.5585 19.6944 95.0758 19.4583C95.5931 19.2222 95.981 18.9028 96.2397 18.5C96.5127 18.0833 96.6492 17.625 96.6492 17.125C96.6492 16.4861 96.484 15.9653 96.1535 15.5625C95.823 15.1597 95.4063 14.8472 94.9033 14.625C94.4148 14.4028 93.7538 14.1667 92.9204 13.9167C91.972 13.6111 91.2104 13.3264 90.6357 13.0625C90.0752 12.7986 89.5939 12.4028 89.1915 11.875C88.7892 11.3333 88.588 10.6319 88.588 9.77083C88.588 9.04861 88.7892 8.40278 89.1915 7.83333C89.5939 7.26389 90.1399 6.81944 90.8296 6.5C91.5337 6.16667 92.3169 6 93.179 6C93.9981 6 94.7453 6.18056 95.4206 6.54167C96.1104 6.88889 96.6636 7.375 97.0803 8C97.497 8.625 97.7125 9.3125 97.7269 10.0625H96.4337C96.4193 9.53472 96.2684 9.05556 95.981 8.625C95.708 8.19444 95.32 7.84722 94.8171 7.58333C94.3142 7.31944 93.7466 7.1875 93.1143 7.1875C92.4965 7.1875 91.9433 7.29167 91.4547 7.5C90.9805 7.70833 90.6069 8.01389 90.3339 8.41667C90.0609 8.80556 89.9244 9.25694 89.9244 9.77083C89.9244 10.3681 90.0824 10.8611 90.3986 11.25C90.7147 11.625 91.1098 11.9167 91.584 12.125C92.0582 12.3333 92.7048 12.5694 93.5239 12.8333C94.4866 13.125 95.2626 13.4167 95.8517 13.7083C96.4552 13.9861 96.9581 14.4028 97.3605 14.9583C97.7772 15.5 97.9855 16.2222 97.9855 17.125C97.9855 17.875 97.7772 18.5486 97.3605 19.1458C96.9438 19.7292 96.369 20.1875 95.6362 20.5208C94.9177 20.8403 94.113 21 93.2221 21Z" fill="#1A1A1A"/>
<path d="M112.123 21C110.757 21 109.493 20.6667 108.329 20C107.18 19.3333 106.26 18.4236 105.57 17.2708C104.895 16.1181 104.557 14.8611 104.557 13.5C104.557 12.1389 104.895 10.8819 105.57 9.72917C106.26 8.57639 107.18 7.66667 108.329 7C109.493 6.33333 110.757 6 112.123 6C113.186 6 114.163 6.19444 115.054 6.58333C115.945 6.97222 116.728 7.52083 117.403 8.22917C118.079 8.92361 118.618 9.74306 119.02 10.6875H117.64C117.094 9.60417 116.34 8.75 115.377 8.125C114.414 7.5 113.33 7.1875 112.123 7.1875C111.002 7.1875 109.96 7.46528 108.997 8.02083C108.049 8.57639 107.295 9.33333 106.734 10.2917C106.174 11.25 105.893 12.3194 105.893 13.5C105.893 14.6806 106.174 15.75 106.734 16.7083C107.295 17.6667 108.049 18.4236 108.997 18.9792C109.96 19.5347 111.002 19.8125 112.123 19.8125C113.358 19.8125 114.465 19.5 115.442 18.875C116.419 18.25 117.173 17.3958 117.705 16.3125H119.085C118.697 17.2569 118.158 18.0833 117.468 18.7917C116.793 19.4861 115.995 20.0278 115.075 20.4167C114.17 20.8056 113.186 21 112.123 21Z" fill="#1A1A1A"/>
<path d="M121.271 20.7917V6.20833H122.564V20.7917H121.271ZM122.004 13.8125V12.625H131.703V13.8125H122.004ZM131.143 20.7917V6.20833H132.436V20.7917H131.143Z" fill="#1A1A1A"/>
<path d="M135.861 20.7917V6.20833H137.154V20.7917H135.861Z" fill="#1A1A1A"/>
<path d="M140.574 20.7917V6.20833H141.868V19.6042H148.075V20.7917H140.574Z" fill="#1A1A1A"/>
<path d="M150.068 20.7917V6.20833H157.784V7.39583H151.361V19.6042H158V20.7917H150.068ZM151.103 13.8125V12.625H157.569V13.8125H151.103Z" fill="#1A1A1A"/>
<path d="M13.5654 21C12.2004 21 10.9359 20.6667 9.77194 20C8.6224 19.3333 7.70276 18.4236 7.01304 17.2708C6.33768 16.1181 6 14.8611 6 13.5C6 12.1389 6.33768 10.8819 7.01304 9.72917C7.70276 8.57639 8.6224 7.66667 9.77194 7C10.9359 6.33333 12.2004 6 13.5654 6C14.6288 6 15.6059 6.19444 16.4968 6.58333C17.3877 6.97222 18.1708 7.52083 18.8462 8.22917C19.5215 8.92361 20.0604 9.74306 20.4627 10.6875H19.0833C18.5372 9.60417 17.7828 8.75 16.8201 8.125C15.8573 7.5 14.7725 7.1875 13.5654 7.1875C12.4446 7.1875 11.4029 7.46528 10.4401 8.02083C9.49174 8.57639 8.73735 9.33333 8.17695 10.2917C7.61655 11.25 7.33635 12.3194 7.33635 13.5C7.33635 14.6806 7.61655 15.75 8.17695 16.7083C8.73735 17.6667 9.49174 18.4236 10.4401 18.9792C11.4029 19.5347 12.4446 19.8125 13.5654 19.8125C14.8012 19.8125 15.9076 19.5 16.8847 18.875C17.8619 18.25 18.6162 17.3958 19.1479 16.3125H20.5274C20.1394 17.2569 19.6005 18.0833 18.9108 18.7917C18.2355 19.4861 17.438 20.0278 16.5183 20.4167C15.6131 20.8056 14.6288 21 13.5654 21Z" stroke="#EAF9C0" stroke-width="12" stroke-linejoin="round" mask="url(#path-1-outside-1_1089_121)"/>
<path d="M29.4817 21C28.0735 21 26.7803 20.6667 25.602 20C24.4381 19.3333 23.5112 18.4236 22.8215 17.2708C22.1462 16.1181 21.8085 14.8611 21.8085 13.5C21.8085 12.1389 22.1462 10.8819 22.8215 9.72917C23.5112 8.57639 24.4381 7.66667 25.602 7C26.7803 6.33333 28.0735 6 29.4817 6C30.8899 6 32.1831 6.33333 33.3614 7C34.5397 7.66667 35.4665 8.57639 36.1419 9.72917C36.8172 10.8819 37.1549 12.1389 37.1549 13.5C37.1549 14.8611 36.8172 16.1181 36.1419 17.2708C35.4665 18.4236 34.5397 19.3333 33.3614 20C32.1831 20.6667 30.8899 21 29.4817 21ZM29.4817 19.8125C30.6456 19.8125 31.7089 19.5347 32.6717 18.9792C33.6488 18.4097 34.4175 17.6458 34.9779 16.6875C35.5527 15.7292 35.8401 14.6667 35.8401 13.5C35.8401 12.3333 35.5527 11.2708 34.9779 10.3125C34.4175 9.35417 33.6488 8.59722 32.6717 8.04167C31.7089 7.47222 30.6456 7.1875 29.4817 7.1875C28.3178 7.1875 27.2473 7.47222 26.2701 8.04167C25.3074 8.59722 24.5458 9.35417 23.9854 10.3125C23.425 11.2708 23.1448 12.3333 23.1448 13.5C23.1448 14.6667 23.425 15.7292 23.9854 16.6875C24.5458 17.6458 25.3074 18.4097 26.2701 18.9792C27.2473 19.5347 28.3178 19.8125 29.4817 19.8125Z" stroke="#EAF9C0" stroke-width="12" stroke-linejoin="round" mask="url(#path-1-outside-1_1089_121)"/>
<path d="M46.2348 21C44.8698 21 43.6053 20.6667 42.4413 20C41.2918 19.3333 40.3722 18.4236 39.6824 17.2708C39.0071 16.1181 38.6694 14.8611 38.6694 13.5C38.6694 12.1389 39.0071 10.8819 39.6824 9.72917C40.3722 8.57639 41.2918 7.66667 42.4413 7C43.6053 6.33333 44.8698 6 46.2348 6C47.2982 6 48.2753 6.19444 49.1662 6.58333C50.0571 6.97222 50.8402 7.52083 51.5156 8.22917C52.1909 8.92361 52.7298 9.74306 53.1321 10.6875H51.7527C51.2066 9.60417 50.4522 8.75 49.4895 8.125C48.5267 7.5 47.4419 7.1875 46.2348 7.1875C45.114 7.1875 44.0723 7.46528 43.1095 8.02083C42.1611 8.57639 41.4068 9.33333 40.8463 10.2917C40.2859 11.25 40.0057 12.3194 40.0057 13.5C40.0057 14.6806 40.2859 15.75 40.8463 16.7083C41.4068 17.6667 42.1611 18.4236 43.1095 18.9792C44.0723 19.5347 45.114 19.8125 46.2348 19.8125C47.4706 19.8125 48.577 19.5 49.5541 18.875C50.5313 18.25 51.2856 17.3958 51.8173 16.3125H53.1968C52.8088 17.2569 52.2699 18.0833 51.5802 18.7917C50.9049 19.4861 50.1074 20.0278 49.1877 20.4167C48.2825 20.8056 47.2982 21 46.2348 21Z" stroke="#EAF9C0" stroke-width="12" stroke-linejoin="round" mask="url(#path-1-outside-1_1089_121)"/>
<path d="M55.4909 20.7917V6.20833H56.7841V20.7917H55.4909Z" stroke="#EAF9C0" stroke-width="12" stroke-linejoin="round" mask="url(#path-1-outside-1_1089_121)"/>
<path d="M60.2042 20.7917V6.20833H61.0448L72.1019 19.125L71.5631 19.2292V6.20833H72.8348V20.7917H71.9942L60.937 7.875L61.4758 7.77083V20.7917H60.2042Z" stroke="#EAF9C0" stroke-width="12" stroke-linejoin="round" mask="url(#path-1-outside-1_1089_121)"/>
<path d="M74.5003 20.7917L80.6001 6.20833H81.57L87.6913 20.7917H86.2903L84.372 16.0833L84.2643 15.8333L80.8156 7.45833H81.3329L77.9058 15.8333L77.7981 16.0833L75.8582 20.7917H74.5003ZM77.1515 16.625V15.4375H85.1695V16.625H77.1515Z" stroke="#EAF9C0" stroke-width="12" stroke-linejoin="round" mask="url(#path-1-outside-1_1089_121)"/>
<path d="M93.2221 21C92.2163 21 91.3397 20.8125 90.5925 20.4375C89.8453 20.0625 89.2634 19.5417 88.8467 18.875C88.4443 18.2083 88.2288 17.4583 88.2001 16.625H89.4933C89.522 17.2083 89.6801 17.7431 89.9675 18.2292C90.2549 18.7153 90.6716 19.1042 91.2176 19.3958C91.778 19.6736 92.4462 19.8125 93.2221 19.8125C93.9406 19.8125 94.5585 19.6944 95.0758 19.4583C95.5931 19.2222 95.981 18.9028 96.2397 18.5C96.5127 18.0833 96.6492 17.625 96.6492 17.125C96.6492 16.4861 96.484 15.9653 96.1535 15.5625C95.823 15.1597 95.4063 14.8472 94.9033 14.625C94.4148 14.4028 93.7538 14.1667 92.9204 13.9167C91.972 13.6111 91.2104 13.3264 90.6357 13.0625C90.0752 12.7986 89.5939 12.4028 89.1915 11.875C88.7892 11.3333 88.588 10.6319 88.588 9.77083C88.588 9.04861 88.7892 8.40278 89.1915 7.83333C89.5939 7.26389 90.1399 6.81944 90.8296 6.5C91.5337 6.16667 92.3169 6 93.179 6C93.9981 6 94.7453 6.18056 95.4206 6.54167C96.1104 6.88889 96.6636 7.375 97.0803 8C97.497 8.625 97.7125 9.3125 97.7269 10.0625H96.4337C96.4193 9.53472 96.2684 9.05556 95.981 8.625C95.708 8.19444 95.32 7.84722 94.8171 7.58333C94.3142 7.31944 93.7466 7.1875 93.1143 7.1875C92.4965 7.1875 91.9433 7.29167 91.4547 7.5C90.9805 7.70833 90.6069 8.01389 90.3339 8.41667C90.0609 8.80556 89.9244 9.25694 89.9244 9.77083C89.9244 10.3681 90.0824 10.8611 90.3986 11.25C90.7147 11.625 91.1098 11.9167 91.584 12.125C92.0582 12.3333 92.7048 12.5694 93.5239 12.8333C94.4866 13.125 95.2626 13.4167 95.8517 13.7083C96.4552 13.9861 96.9581 14.4028 97.3605 14.9583C97.7772 15.5 97.9855 16.2222 97.9855 17.125C97.9855 17.875 97.7772 18.5486 97.3605 19.1458C96.9438 19.7292 96.369 20.1875 95.6362 20.5208C94.9177 20.8403 94.113 21 93.2221 21Z" stroke="#EAF9C0" stroke-width="12" stroke-linejoin="round" mask="url(#path-1-outside-1_1089_121)"/>
<path d="M112.123 21C110.757 21 109.493 20.6667 108.329 20C107.18 19.3333 106.26 18.4236 105.57 17.2708C104.895 16.1181 104.557 14.8611 104.557 13.5C104.557 12.1389 104.895 10.8819 105.57 9.72917C106.26 8.57639 107.18 7.66667 108.329 7C109.493 6.33333 110.757 6 112.123 6C113.186 6 114.163 6.19444 115.054 6.58333C115.945 6.97222 116.728 7.52083 117.403 8.22917C118.079 8.92361 118.618 9.74306 119.02 10.6875H117.64C117.094 9.60417 116.34 8.75 115.377 8.125C114.414 7.5 113.33 7.1875 112.123 7.1875C111.002 7.1875 109.96 7.46528 108.997 8.02083C108.049 8.57639 107.295 9.33333 106.734 10.2917C106.174 11.25 105.893 12.3194 105.893 13.5C105.893 14.6806 106.174 15.75 106.734 16.7083C107.295 17.6667 108.049 18.4236 108.997 18.9792C109.96 19.5347 111.002 19.8125 112.123 19.8125C113.358 19.8125 114.465 19.5 115.442 18.875C116.419 18.25 117.173 17.3958 117.705 16.3125H119.085C118.697 17.2569 118.158 18.0833 117.468 18.7917C116.793 19.4861 115.995 20.0278 115.075 20.4167C114.17 20.8056 113.186 21 112.123 21Z" stroke="#EAF9C0" stroke-width="12" stroke-linejoin="round" mask="url(#path-1-outside-1_1089_121)"/>
<path d="M121.271 20.7917V6.20833H122.564V20.7917H121.271ZM122.004 13.8125V12.625H131.703V13.8125H122.004ZM131.143 20.7917V6.20833H132.436V20.7917H131.143Z" stroke="#EAF9C0" stroke-width="12" stroke-linejoin="round" mask="url(#path-1-outside-1_1089_121)"/>
<path d="M135.861 20.7917V6.20833H137.154V20.7917H135.861Z" stroke="#EAF9C0" stroke-width="12" stroke-linejoin="round" mask="url(#path-1-outside-1_1089_121)"/>
<path d="M140.574 20.7917V6.20833H141.868V19.6042H148.075V20.7917H140.574Z" stroke="#EAF9C0" stroke-width="12" stroke-linejoin="round" mask="url(#path-1-outside-1_1089_121)"/>
<path d="M150.068 20.7917V6.20833H157.784V7.39583H151.361V19.6042H158V20.7917H150.068ZM151.103 13.8125V12.625H157.569V13.8125H151.103Z" stroke="#EAF9C0" stroke-width="12" stroke-linejoin="round" mask="url(#path-1-outside-1_1089_121)"/>
</svg>
