<svg width="132" height="34" viewBox="0 0 132 34" fill="none" xmlns="http://www.w3.org/2000/svg">
<mask id="path-1-outside-1_1089_118" maskUnits="userSpaceOnUse" x="0" y="0" width="132" height="34" fill="black">
<rect fill="white" width="132" height="34"/>
<path d="M126 6.14584V23.1437H124.325L124.066 21.1525C123.051 22.5852 121.683 23.2894 119.937 23.2894C118.805 23.2894 117.814 23.0466 116.941 22.5366C116.068 22.051 115.384 21.3225 114.889 20.3512C114.393 19.4042 114.157 18.2629 114.157 16.9516C114.157 15.7132 114.393 14.6205 114.889 13.6492C115.384 12.7022 116.068 11.9494 116.965 11.4152C117.838 10.881 118.828 10.6138 119.937 10.6138C120.904 10.6138 121.73 10.8081 122.438 11.1724C123.122 11.5366 123.665 12.0222 124.066 12.6536V6.14584H126ZM122.178 20.9583C122.792 20.5697 123.263 20.0355 123.594 19.3556C123.924 18.6757 124.089 17.8744 124.089 17.0002C124.089 16.126 123.924 15.3247 123.594 14.6205C123.263 13.9163 122.792 13.3578 122.178 12.9693C121.565 12.5807 120.881 12.3865 120.126 12.3865C118.923 12.3865 117.956 12.8236 117.224 13.6735C116.493 14.5234 116.139 15.6161 116.139 16.9516C116.139 18.3115 116.493 19.4042 117.224 20.2541C117.956 21.104 118.923 21.5168 120.126 21.5168C120.881 21.5168 121.565 21.3468 122.178 20.9583Z"/>
<path d="M113.976 10.7593V12.7019H113.009C111.853 12.7019 111.027 13.1147 110.532 13.8918C110.036 14.6931 109.8 15.6644 109.8 16.83V23.1435H107.866V10.7593H109.541L109.8 12.6291C110.131 12.0706 110.579 11.6092 111.145 11.2692C111.688 10.9293 112.443 10.7593 113.433 10.7593H113.976Z"/>
<path d="M97.0372 22.4877C96.1407 21.9535 95.433 21.225 94.9376 20.2537C94.4186 19.3067 94.1827 18.2139 94.1827 16.9512C94.1827 15.7128 94.4186 14.6201 94.9376 13.6488C95.433 12.7018 96.1407 11.949 97.0372 11.4148C97.9336 10.8806 98.9716 10.6135 100.151 10.6135C101.307 10.6135 102.345 10.8806 103.242 11.4148C104.138 11.949 104.846 12.7018 105.365 13.6488C105.86 14.6201 106.12 15.7128 106.12 16.9512C106.12 18.2139 105.86 19.3067 105.365 20.2537C104.846 21.225 104.138 21.9535 103.242 22.4877C102.345 23.0219 101.307 23.289 100.151 23.289C98.9716 23.289 97.9336 23.0219 97.0372 22.4877ZM102.227 20.9336C102.841 20.5451 103.312 20.0109 103.643 19.3067C103.973 18.6267 104.138 17.8254 104.138 16.9512C104.138 16.0771 103.973 15.3 103.643 14.5958C103.312 13.9159 102.841 13.3574 102.227 12.9689C101.614 12.5804 100.93 12.3861 100.151 12.3861C99.3491 12.3861 98.665 12.5804 98.0516 12.9689C97.4382 13.3574 96.99 13.9159 96.6597 14.5958C96.3295 15.3 96.1643 16.0771 96.1643 16.9512C96.1643 17.8254 96.3295 18.6267 96.6597 19.3067C96.99 20.0109 97.4382 20.5451 98.0516 20.9336C98.665 21.3221 99.3491 21.5164 100.151 21.5164C100.93 21.5164 101.614 21.3221 102.227 20.9336Z"/>
<path d="M89.7285 6.94717C90.2239 6.41295 91.026 6.14584 92.1347 6.14584H94.3523V7.96704H92.2527C91.7809 7.96704 91.427 8.08845 91.2383 8.28271C91.026 8.50126 90.9316 8.84121 90.9316 9.32687V10.7595H94.3287V12.5807H90.9316V23.1437H88.9972V9.37543C88.9972 8.28271 89.2331 7.48138 89.7285 6.94717Z"/>
<path d="M69.8832 10.7593H71.912L74.908 20.8366L78.0692 10.7593H79.8621L82.8581 20.8366L85.9957 10.7593H87.9538L83.9433 23.1435H81.8201L78.9185 13.9403L75.8989 23.1435L73.7757 23.1678L69.8832 10.7593Z"/>
<path d="M70.3458 21.3221V23.1433H69.2842C68.5057 23.1433 67.9631 22.9976 67.6328 22.6577C67.3026 22.342 67.1138 21.8563 67.1138 21.225C66.1702 22.6091 64.8255 23.289 63.0798 23.289C61.7351 23.289 60.65 22.9733 59.8479 22.3177C59.0458 21.6864 58.6447 20.7879 58.6447 19.6709C58.6447 18.4325 59.0458 17.4855 59.8715 16.8055C60.6971 16.1499 61.9003 15.81 63.4809 15.81H67.0195V14.9601C67.0195 14.1587 66.7364 13.5274 66.2174 13.066C65.6984 12.6289 64.9671 12.3861 64.0234 12.3861C63.1742 12.3861 62.49 12.5804 61.9475 12.9689C61.4049 13.3574 61.0746 13.8431 60.9566 14.4744H59.0222C59.1637 13.2603 59.6827 12.3133 60.5792 11.6333C61.4756 10.9534 62.6552 10.6135 64.1178 10.6135C65.6512 10.6135 66.8307 11.002 67.68 11.779C68.5293 12.5561 68.9539 13.6488 68.9539 15.0815V20.4237C68.9539 21.0307 69.2134 21.3221 69.756 21.3221H70.3458ZM67.0195 17.4855H63.2921C61.4992 17.4855 60.6028 18.1897 60.6028 19.5495C60.6028 20.1808 60.8387 20.6665 61.3105 21.0307C61.7823 21.4193 62.4193 21.5892 63.2214 21.5892C64.4009 21.5892 65.3209 21.2736 66.0051 20.6422C66.6656 20.0109 67.0195 19.161 67.0195 18.0925V17.4855Z"/>
<path d="M58.3718 10.7593V12.7019H57.4046C56.2487 12.7019 55.423 13.1147 54.9276 13.8918C54.4322 14.6931 54.1963 15.6644 54.1963 16.83V23.1435H52.2618V10.7593H53.9368L54.1963 12.6291C54.5265 12.0706 54.9748 11.6092 55.5409 11.2692C56.0835 10.9293 56.8384 10.7593 57.8292 10.7593H58.3718Z"/>
<path d="M36.6219 10.1281C37.2588 8.81679 38.1789 7.8212 39.382 7.09272C40.5615 6.36424 41.9534 6 43.534 6C45.3505 6 46.8839 6.50994 48.1106 7.52981C49.3373 8.54968 50.1158 9.95807 50.4461 11.7064H48.3937C48.087 10.5409 47.4972 9.61812 46.6244 8.9382C45.7515 8.28257 44.6899 7.94261 43.4396 7.94261C42.3073 7.94261 41.2929 8.23401 40.4436 8.79251C39.5707 9.37529 38.9102 10.1523 38.4384 11.1722C37.9666 12.1921 37.7542 13.3334 37.7542 14.6446C37.7542 15.9559 37.9666 17.0972 38.4384 18.1171C38.9102 19.1369 39.5707 19.9383 40.4436 20.4968C41.2929 21.0795 42.3073 21.3466 43.4396 21.3466C44.7135 21.3466 45.7751 21.031 46.6244 20.3753C47.4736 19.7197 48.0398 18.797 48.3701 17.5828H50.4225C50.0922 19.3555 49.3373 20.7396 48.1106 21.7594C46.8839 22.7793 45.3741 23.2893 43.534 23.2893C41.9534 23.2893 40.5615 22.9493 39.382 22.2208C38.1789 21.4923 37.2588 20.4968 36.6219 19.1855C35.9613 17.8742 35.6547 16.3687 35.6547 14.6446C35.6547 12.9448 35.9613 11.4393 36.6219 10.1281Z"/>
<path d="M19.9696 10.7593L23.6734 20.8609L27.2592 10.7593H29.3116L23.7677 25.2318C23.4846 25.9845 23.2251 26.543 23.0128 26.9073C22.7769 27.2958 22.5174 27.5629 22.1871 27.7329C21.8569 27.9272 21.4087 28 20.8661 28H18.5542V26.1788H20.2763C20.6537 26.1788 20.9368 26.1545 21.1256 26.0574C21.3143 25.9845 21.4558 25.8631 21.5738 25.6689C21.6917 25.4746 21.8333 25.1589 22.022 24.7218L22.6354 23.2406L17.9172 10.7593H19.9696Z"/>
<path d="M15.0353 11.3666C15.9081 11.8765 16.5923 12.605 17.0877 13.5521C17.5831 14.5234 17.8426 15.6404 17.8426 16.9516C17.8426 18.2143 17.5831 19.307 17.0877 20.2541C16.5923 21.2254 15.9081 21.9539 15.0353 22.4881C14.1388 23.0223 13.148 23.2894 12.0628 23.2894C11.072 23.2894 10.2463 23.1194 9.56221 22.7552C8.85449 22.3909 8.3119 21.881 7.93445 21.2497L7.67495 23.1437H6V6.14584H7.93445V12.7507C8.92526 11.3423 10.3171 10.6138 12.0628 10.6138C13.1716 10.6138 14.1624 10.881 15.0353 11.3666ZM14.7522 20.2541C15.4835 19.4042 15.861 18.3115 15.861 16.9516C15.861 15.6161 15.4835 14.5234 14.7522 13.6735C14.0209 12.8236 13.0536 12.3865 11.8741 12.3865C11.0956 12.3865 10.4115 12.5807 9.79812 12.9693C9.18476 13.3578 8.73653 13.892 8.40626 14.5719C8.07599 15.2518 7.91085 16.0289 7.91085 16.9031C7.91085 17.8015 8.07599 18.6028 8.40626 19.307C8.73653 20.0112 9.18476 20.5455 9.79812 20.934C10.4115 21.3225 11.0956 21.5168 11.8741 21.5168C13.0536 21.5168 14.0209 21.104 14.7522 20.2541Z"/>
</mask>
<path d="M126 6.14584V23.1437H124.325L124.066 21.1525C123.051 22.5852 121.683 23.2894 119.937 23.2894C118.805 23.2894 117.814 23.0466 116.941 22.5366C116.068 22.051 115.384 21.3225 114.889 20.3512C114.393 19.4042 114.157 18.2629 114.157 16.9516C114.157 15.7132 114.393 14.6205 114.889 13.6492C115.384 12.7022 116.068 11.9494 116.965 11.4152C117.838 10.881 118.828 10.6138 119.937 10.6138C120.904 10.6138 121.73 10.8081 122.438 11.1724C123.122 11.5366 123.665 12.0222 124.066 12.6536V6.14584H126ZM122.178 20.9583C122.792 20.5697 123.263 20.0355 123.594 19.3556C123.924 18.6757 124.089 17.8744 124.089 17.0002C124.089 16.126 123.924 15.3247 123.594 14.6205C123.263 13.9163 122.792 13.3578 122.178 12.9693C121.565 12.5807 120.881 12.3865 120.126 12.3865C118.923 12.3865 117.956 12.8236 117.224 13.6735C116.493 14.5234 116.139 15.6161 116.139 16.9516C116.139 18.3115 116.493 19.4042 117.224 20.2541C117.956 21.104 118.923 21.5168 120.126 21.5168C120.881 21.5168 121.565 21.3468 122.178 20.9583Z" fill="#1A1A1A"/>
<path d="M113.976 10.7593V12.7019H113.009C111.853 12.7019 111.027 13.1147 110.532 13.8918C110.036 14.6931 109.8 15.6644 109.8 16.83V23.1435H107.866V10.7593H109.541L109.8 12.6291C110.131 12.0706 110.579 11.6092 111.145 11.2692C111.688 10.9293 112.443 10.7593 113.433 10.7593H113.976Z" fill="#1A1A1A"/>
<path d="M97.0372 22.4877C96.1407 21.9535 95.433 21.225 94.9376 20.2537C94.4186 19.3067 94.1827 18.2139 94.1827 16.9512C94.1827 15.7128 94.4186 14.6201 94.9376 13.6488C95.433 12.7018 96.1407 11.949 97.0372 11.4148C97.9336 10.8806 98.9716 10.6135 100.151 10.6135C101.307 10.6135 102.345 10.8806 103.242 11.4148C104.138 11.949 104.846 12.7018 105.365 13.6488C105.86 14.6201 106.12 15.7128 106.12 16.9512C106.12 18.2139 105.86 19.3067 105.365 20.2537C104.846 21.225 104.138 21.9535 103.242 22.4877C102.345 23.0219 101.307 23.289 100.151 23.289C98.9716 23.289 97.9336 23.0219 97.0372 22.4877ZM102.227 20.9336C102.841 20.5451 103.312 20.0109 103.643 19.3067C103.973 18.6267 104.138 17.8254 104.138 16.9512C104.138 16.0771 103.973 15.3 103.643 14.5958C103.312 13.9159 102.841 13.3574 102.227 12.9689C101.614 12.5804 100.93 12.3861 100.151 12.3861C99.3491 12.3861 98.665 12.5804 98.0516 12.9689C97.4382 13.3574 96.99 13.9159 96.6597 14.5958C96.3295 15.3 96.1643 16.0771 96.1643 16.9512C96.1643 17.8254 96.3295 18.6267 96.6597 19.3067C96.99 20.0109 97.4382 20.5451 98.0516 20.9336C98.665 21.3221 99.3491 21.5164 100.151 21.5164C100.93 21.5164 101.614 21.3221 102.227 20.9336Z" fill="#1A1A1A"/>
<path d="M89.7285 6.94717C90.2239 6.41295 91.026 6.14584 92.1347 6.14584H94.3523V7.96704H92.2527C91.7809 7.96704 91.427 8.08845 91.2383 8.28271C91.026 8.50126 90.9316 8.84121 90.9316 9.32687V10.7595H94.3287V12.5807H90.9316V23.1437H88.9972V9.37543C88.9972 8.28271 89.2331 7.48138 89.7285 6.94717Z" fill="#1A1A1A"/>
<path d="M69.8832 10.7593H71.912L74.908 20.8366L78.0692 10.7593H79.8621L82.8581 20.8366L85.9957 10.7593H87.9538L83.9433 23.1435H81.8201L78.9185 13.9403L75.8989 23.1435L73.7757 23.1678L69.8832 10.7593Z" fill="#1A1A1A"/>
<path d="M70.3458 21.3221V23.1433H69.2842C68.5057 23.1433 67.9631 22.9976 67.6328 22.6577C67.3026 22.342 67.1138 21.8563 67.1138 21.225C66.1702 22.6091 64.8255 23.289 63.0798 23.289C61.7351 23.289 60.65 22.9733 59.8479 22.3177C59.0458 21.6864 58.6447 20.7879 58.6447 19.6709C58.6447 18.4325 59.0458 17.4855 59.8715 16.8055C60.6971 16.1499 61.9003 15.81 63.4809 15.81H67.0195V14.9601C67.0195 14.1587 66.7364 13.5274 66.2174 13.066C65.6984 12.6289 64.9671 12.3861 64.0234 12.3861C63.1742 12.3861 62.49 12.5804 61.9475 12.9689C61.4049 13.3574 61.0746 13.8431 60.9566 14.4744H59.0222C59.1637 13.2603 59.6827 12.3133 60.5792 11.6333C61.4756 10.9534 62.6552 10.6135 64.1178 10.6135C65.6512 10.6135 66.8307 11.002 67.68 11.779C68.5293 12.5561 68.9539 13.6488 68.9539 15.0815V20.4237C68.9539 21.0307 69.2134 21.3221 69.756 21.3221H70.3458ZM67.0195 17.4855H63.2921C61.4992 17.4855 60.6028 18.1897 60.6028 19.5495C60.6028 20.1808 60.8387 20.6665 61.3105 21.0307C61.7823 21.4193 62.4193 21.5892 63.2214 21.5892C64.4009 21.5892 65.3209 21.2736 66.0051 20.6422C66.6656 20.0109 67.0195 19.161 67.0195 18.0925V17.4855Z" fill="#1A1A1A"/>
<path d="M58.3718 10.7593V12.7019H57.4046C56.2487 12.7019 55.423 13.1147 54.9276 13.8918C54.4322 14.6931 54.1963 15.6644 54.1963 16.83V23.1435H52.2618V10.7593H53.9368L54.1963 12.6291C54.5265 12.0706 54.9748 11.6092 55.5409 11.2692C56.0835 10.9293 56.8384 10.7593 57.8292 10.7593H58.3718Z" fill="#1A1A1A"/>
<path d="M36.6219 10.1281C37.2588 8.81679 38.1789 7.8212 39.382 7.09272C40.5615 6.36424 41.9534 6 43.534 6C45.3505 6 46.8839 6.50994 48.1106 7.52981C49.3373 8.54968 50.1158 9.95807 50.4461 11.7064H48.3937C48.087 10.5409 47.4972 9.61812 46.6244 8.9382C45.7515 8.28257 44.6899 7.94261 43.4396 7.94261C42.3073 7.94261 41.2929 8.23401 40.4436 8.79251C39.5707 9.37529 38.9102 10.1523 38.4384 11.1722C37.9666 12.1921 37.7542 13.3334 37.7542 14.6446C37.7542 15.9559 37.9666 17.0972 38.4384 18.1171C38.9102 19.1369 39.5707 19.9383 40.4436 20.4968C41.2929 21.0795 42.3073 21.3466 43.4396 21.3466C44.7135 21.3466 45.7751 21.031 46.6244 20.3753C47.4736 19.7197 48.0398 18.797 48.3701 17.5828H50.4225C50.0922 19.3555 49.3373 20.7396 48.1106 21.7594C46.8839 22.7793 45.3741 23.2893 43.534 23.2893C41.9534 23.2893 40.5615 22.9493 39.382 22.2208C38.1789 21.4923 37.2588 20.4968 36.6219 19.1855C35.9613 17.8742 35.6547 16.3687 35.6547 14.6446C35.6547 12.9448 35.9613 11.4393 36.6219 10.1281Z" fill="#1A1A1A"/>
<path d="M19.9696 10.7593L23.6734 20.8609L27.2592 10.7593H29.3116L23.7677 25.2318C23.4846 25.9845 23.2251 26.543 23.0128 26.9073C22.7769 27.2958 22.5174 27.5629 22.1871 27.7329C21.8569 27.9272 21.4087 28 20.8661 28H18.5542V26.1788H20.2763C20.6537 26.1788 20.9368 26.1545 21.1256 26.0574C21.3143 25.9845 21.4558 25.8631 21.5738 25.6689C21.6917 25.4746 21.8333 25.1589 22.022 24.7218L22.6354 23.2406L17.9172 10.7593H19.9696Z" fill="#1A1A1A"/>
<path d="M15.0353 11.3666C15.9081 11.8765 16.5923 12.605 17.0877 13.5521C17.5831 14.5234 17.8426 15.6404 17.8426 16.9516C17.8426 18.2143 17.5831 19.307 17.0877 20.2541C16.5923 21.2254 15.9081 21.9539 15.0353 22.4881C14.1388 23.0223 13.148 23.2894 12.0628 23.2894C11.072 23.2894 10.2463 23.1194 9.56221 22.7552C8.85449 22.3909 8.3119 21.881 7.93445 21.2497L7.67495 23.1437H6V6.14584H7.93445V12.7507C8.92526 11.3423 10.3171 10.6138 12.0628 10.6138C13.1716 10.6138 14.1624 10.881 15.0353 11.3666ZM14.7522 20.2541C15.4835 19.4042 15.861 18.3115 15.861 16.9516C15.861 15.6161 15.4835 14.5234 14.7522 13.6735C14.0209 12.8236 13.0536 12.3865 11.8741 12.3865C11.0956 12.3865 10.4115 12.5807 9.79812 12.9693C9.18476 13.3578 8.73653 13.892 8.40626 14.5719C8.07599 15.2518 7.91085 16.0289 7.91085 16.9031C7.91085 17.8015 8.07599 18.6028 8.40626 19.307C8.73653 20.0112 9.18476 20.5455 9.79812 20.934C10.4115 21.3225 11.0956 21.5168 11.8741 21.5168C13.0536 21.5168 14.0209 21.104 14.7522 20.2541Z" fill="#1A1A1A"/>
<path d="M126 6.14584V23.1437H124.325L124.066 21.1525C123.051 22.5852 121.683 23.2894 119.937 23.2894C118.805 23.2894 117.814 23.0466 116.941 22.5366C116.068 22.051 115.384 21.3225 114.889 20.3512C114.393 19.4042 114.157 18.2629 114.157 16.9516C114.157 15.7132 114.393 14.6205 114.889 13.6492C115.384 12.7022 116.068 11.9494 116.965 11.4152C117.838 10.881 118.828 10.6138 119.937 10.6138C120.904 10.6138 121.73 10.8081 122.438 11.1724C123.122 11.5366 123.665 12.0222 124.066 12.6536V6.14584H126ZM122.178 20.9583C122.792 20.5697 123.263 20.0355 123.594 19.3556C123.924 18.6757 124.089 17.8744 124.089 17.0002C124.089 16.126 123.924 15.3247 123.594 14.6205C123.263 13.9163 122.792 13.3578 122.178 12.9693C121.565 12.5807 120.881 12.3865 120.126 12.3865C118.923 12.3865 117.956 12.8236 117.224 13.6735C116.493 14.5234 116.139 15.6161 116.139 16.9516C116.139 18.3115 116.493 19.4042 117.224 20.2541C117.956 21.104 118.923 21.5168 120.126 21.5168C120.881 21.5168 121.565 21.3468 122.178 20.9583Z" stroke="#EFB5D4" stroke-width="12" stroke-linejoin="round" mask="url(#path-1-outside-1_1089_118)"/>
<path d="M113.976 10.7593V12.7019H113.009C111.853 12.7019 111.027 13.1147 110.532 13.8918C110.036 14.6931 109.8 15.6644 109.8 16.83V23.1435H107.866V10.7593H109.541L109.8 12.6291C110.131 12.0706 110.579 11.6092 111.145 11.2692C111.688 10.9293 112.443 10.7593 113.433 10.7593H113.976Z" stroke="#EFB5D4" stroke-width="12" stroke-linejoin="round" mask="url(#path-1-outside-1_1089_118)"/>
<path d="M97.0372 22.4877C96.1407 21.9535 95.433 21.225 94.9376 20.2537C94.4186 19.3067 94.1827 18.2139 94.1827 16.9512C94.1827 15.7128 94.4186 14.6201 94.9376 13.6488C95.433 12.7018 96.1407 11.949 97.0372 11.4148C97.9336 10.8806 98.9716 10.6135 100.151 10.6135C101.307 10.6135 102.345 10.8806 103.242 11.4148C104.138 11.949 104.846 12.7018 105.365 13.6488C105.86 14.6201 106.12 15.7128 106.12 16.9512C106.12 18.2139 105.86 19.3067 105.365 20.2537C104.846 21.225 104.138 21.9535 103.242 22.4877C102.345 23.0219 101.307 23.289 100.151 23.289C98.9716 23.289 97.9336 23.0219 97.0372 22.4877ZM102.227 20.9336C102.841 20.5451 103.312 20.0109 103.643 19.3067C103.973 18.6267 104.138 17.8254 104.138 16.9512C104.138 16.0771 103.973 15.3 103.643 14.5958C103.312 13.9159 102.841 13.3574 102.227 12.9689C101.614 12.5804 100.93 12.3861 100.151 12.3861C99.3491 12.3861 98.665 12.5804 98.0516 12.9689C97.4382 13.3574 96.99 13.9159 96.6597 14.5958C96.3295 15.3 96.1643 16.0771 96.1643 16.9512C96.1643 17.8254 96.3295 18.6267 96.6597 19.3067C96.99 20.0109 97.4382 20.5451 98.0516 20.9336C98.665 21.3221 99.3491 21.5164 100.151 21.5164C100.93 21.5164 101.614 21.3221 102.227 20.9336Z" stroke="#EFB5D4" stroke-width="12" stroke-linejoin="round" mask="url(#path-1-outside-1_1089_118)"/>
<path d="M89.7285 6.94717C90.2239 6.41295 91.026 6.14584 92.1347 6.14584H94.3523V7.96704H92.2527C91.7809 7.96704 91.427 8.08845 91.2383 8.28271C91.026 8.50126 90.9316 8.84121 90.9316 9.32687V10.7595H94.3287V12.5807H90.9316V23.1437H88.9972V9.37543C88.9972 8.28271 89.2331 7.48138 89.7285 6.94717Z" stroke="#EFB5D4" stroke-width="12" stroke-linejoin="round" mask="url(#path-1-outside-1_1089_118)"/>
<path d="M69.8832 10.7593H71.912L74.908 20.8366L78.0692 10.7593H79.8621L82.8581 20.8366L85.9957 10.7593H87.9538L83.9433 23.1435H81.8201L78.9185 13.9403L75.8989 23.1435L73.7757 23.1678L69.8832 10.7593Z" stroke="#EFB5D4" stroke-width="12" stroke-linejoin="round" mask="url(#path-1-outside-1_1089_118)"/>
<path d="M70.3458 21.3221V23.1433H69.2842C68.5057 23.1433 67.9631 22.9976 67.6328 22.6577C67.3026 22.342 67.1138 21.8563 67.1138 21.225C66.1702 22.6091 64.8255 23.289 63.0798 23.289C61.7351 23.289 60.65 22.9733 59.8479 22.3177C59.0458 21.6864 58.6447 20.7879 58.6447 19.6709C58.6447 18.4325 59.0458 17.4855 59.8715 16.8055C60.6971 16.1499 61.9003 15.81 63.4809 15.81H67.0195V14.9601C67.0195 14.1587 66.7364 13.5274 66.2174 13.066C65.6984 12.6289 64.9671 12.3861 64.0234 12.3861C63.1742 12.3861 62.49 12.5804 61.9475 12.9689C61.4049 13.3574 61.0746 13.8431 60.9566 14.4744H59.0222C59.1637 13.2603 59.6827 12.3133 60.5792 11.6333C61.4756 10.9534 62.6552 10.6135 64.1178 10.6135C65.6512 10.6135 66.8307 11.002 67.68 11.779C68.5293 12.5561 68.9539 13.6488 68.9539 15.0815V20.4237C68.9539 21.0307 69.2134 21.3221 69.756 21.3221H70.3458ZM67.0195 17.4855H63.2921C61.4992 17.4855 60.6028 18.1897 60.6028 19.5495C60.6028 20.1808 60.8387 20.6665 61.3105 21.0307C61.7823 21.4193 62.4193 21.5892 63.2214 21.5892C64.4009 21.5892 65.3209 21.2736 66.0051 20.6422C66.6656 20.0109 67.0195 19.161 67.0195 18.0925V17.4855Z" stroke="#EFB5D4" stroke-width="12" stroke-linejoin="round" mask="url(#path-1-outside-1_1089_118)"/>
<path d="M58.3718 10.7593V12.7019H57.4046C56.2487 12.7019 55.423 13.1147 54.9276 13.8918C54.4322 14.6931 54.1963 15.6644 54.1963 16.83V23.1435H52.2618V10.7593H53.9368L54.1963 12.6291C54.5265 12.0706 54.9748 11.6092 55.5409 11.2692C56.0835 10.9293 56.8384 10.7593 57.8292 10.7593H58.3718Z" stroke="#EFB5D4" stroke-width="12" stroke-linejoin="round" mask="url(#path-1-outside-1_1089_118)"/>
<path d="M36.6219 10.1281C37.2588 8.81679 38.1789 7.8212 39.382 7.09272C40.5615 6.36424 41.9534 6 43.534 6C45.3505 6 46.8839 6.50994 48.1106 7.52981C49.3373 8.54968 50.1158 9.95807 50.4461 11.7064H48.3937C48.087 10.5409 47.4972 9.61812 46.6244 8.9382C45.7515 8.28257 44.6899 7.94261 43.4396 7.94261C42.3073 7.94261 41.2929 8.23401 40.4436 8.79251C39.5707 9.37529 38.9102 10.1523 38.4384 11.1722C37.9666 12.1921 37.7542 13.3334 37.7542 14.6446C37.7542 15.9559 37.9666 17.0972 38.4384 18.1171C38.9102 19.1369 39.5707 19.9383 40.4436 20.4968C41.2929 21.0795 42.3073 21.3466 43.4396 21.3466C44.7135 21.3466 45.7751 21.031 46.6244 20.3753C47.4736 19.7197 48.0398 18.797 48.3701 17.5828H50.4225C50.0922 19.3555 49.3373 20.7396 48.1106 21.7594C46.8839 22.7793 45.3741 23.2893 43.534 23.2893C41.9534 23.2893 40.5615 22.9493 39.382 22.2208C38.1789 21.4923 37.2588 20.4968 36.6219 19.1855C35.9613 17.8742 35.6547 16.3687 35.6547 14.6446C35.6547 12.9448 35.9613 11.4393 36.6219 10.1281Z" stroke="#EFB5D4" stroke-width="12" stroke-linejoin="round" mask="url(#path-1-outside-1_1089_118)"/>
<path d="M19.9696 10.7593L23.6734 20.8609L27.2592 10.7593H29.3116L23.7677 25.2318C23.4846 25.9845 23.2251 26.543 23.0128 26.9073C22.7769 27.2958 22.5174 27.5629 22.1871 27.7329C21.8569 27.9272 21.4087 28 20.8661 28H18.5542V26.1788H20.2763C20.6537 26.1788 20.9368 26.1545 21.1256 26.0574C21.3143 25.9845 21.4558 25.8631 21.5738 25.6689C21.6917 25.4746 21.8333 25.1589 22.022 24.7218L22.6354 23.2406L17.9172 10.7593H19.9696Z" stroke="#EFB5D4" stroke-width="12" stroke-linejoin="round" mask="url(#path-1-outside-1_1089_118)"/>
<path d="M15.0353 11.3666C15.9081 11.8765 16.5923 12.605 17.0877 13.5521C17.5831 14.5234 17.8426 15.6404 17.8426 16.9516C17.8426 18.2143 17.5831 19.307 17.0877 20.2541C16.5923 21.2254 15.9081 21.9539 15.0353 22.4881C14.1388 23.0223 13.148 23.2894 12.0628 23.2894C11.072 23.2894 10.2463 23.1194 9.56221 22.7552C8.85449 22.3909 8.3119 21.881 7.93445 21.2497L7.67495 23.1437H6V6.14584H7.93445V12.7507C8.92526 11.3423 10.3171 10.6138 12.0628 10.6138C13.1716 10.6138 14.1624 10.881 15.0353 11.3666ZM14.7522 20.2541C15.4835 19.4042 15.861 18.3115 15.861 16.9516C15.861 15.6161 15.4835 14.5234 14.7522 13.6735C14.0209 12.8236 13.0536 12.3865 11.8741 12.3865C11.0956 12.3865 10.4115 12.5807 9.79812 12.9693C9.18476 13.3578 8.73653 13.892 8.40626 14.5719C8.07599 15.2518 7.91085 16.0289 7.91085 16.9031C7.91085 17.8015 8.07599 18.6028 8.40626 19.307C8.73653 20.0112 9.18476 20.5455 9.79812 20.934C10.4115 21.3225 11.0956 21.5168 11.8741 21.5168C13.0536 21.5168 14.0209 21.104 14.7522 20.2541Z" stroke="#EFB5D4" stroke-width="12" stroke-linejoin="round" mask="url(#path-1-outside-1_1089_118)"/>
</svg>
