<svg width="150" height="23" viewBox="0 0 150 23" fill="none" xmlns="http://www.w3.org/2000/svg">
<mask id="path-1-outside-1_1089_126" maskUnits="userSpaceOnUse" x="0" y="0" width="150" height="23" fill="black">
<rect fill="white" width="150" height="23"/>
<path d="M143.593 6V7.232H139.029V10.41H143.145V11.614H139.029V14.792H143.593V16.024H137.741V6H143.593Z"/>
<path d="M123.681 16.024H122.393V6H123.961L128.833 13.798H128.889L128.833 11.866V6H130.121V16.024H128.777L123.681 7.848H123.625L123.681 9.78V16.024Z"/>
<path d="M114.772 16.024H113.484V6H114.772V16.024Z"/>
<path d="M103.07 16.024H101.726L98.1982 6H99.6262L102.37 14.134H102.426L105.282 6H106.71L103.07 16.024Z"/>
<path d="M91.7023 6V7.232H87.1383V10.41H91.2543V11.614H87.1383V14.792H91.7023V16.024H85.8503V6H91.7023Z"/>
<path d="M78.9058 16.024H73.2778V6H74.5658V14.792H78.9058V16.024Z"/>
<path d="M62.2656 6V7.232H57.7016V10.41H61.8176V11.614H57.7016V14.792H62.2656V16.024H56.4136V6H62.2656Z"/>
<path d="M48.7931 16.024H47.5051V6H48.7931V16.024Z"/>
<path d="M37.7606 7.232V16.024H36.4726V7.232H33.6726V6H40.5606V7.232H37.7606Z"/>
<path d="M23.949 7.582L22.311 12.104H25.643L24.005 7.582H23.949ZM20.897 16.024H19.469L23.249 6H24.705L28.485 16.024H27.057L26.091 13.308H21.877L20.897 16.024Z"/>
<path d="M11.754 6H13.42V6.056L9.696 10.354L13.672 15.968V16.024H12.09L8.828 11.348L7.288 13.126V16.024H6V6H7.288V11.166H7.344L11.754 6Z"/>
</mask>
<path d="M143.593 6V7.232H139.029V10.41H143.145V11.614H139.029V14.792H143.593V16.024H137.741V6H143.593Z" fill="#1A1A1A"/>
<path d="M123.681 16.024H122.393V6H123.961L128.833 13.798H128.889L128.833 11.866V6H130.121V16.024H128.777L123.681 7.848H123.625L123.681 9.78V16.024Z" fill="#1A1A1A"/>
<path d="M114.772 16.024H113.484V6H114.772V16.024Z" fill="#1A1A1A"/>
<path d="M103.07 16.024H101.726L98.1982 6H99.6262L102.37 14.134H102.426L105.282 6H106.71L103.07 16.024Z" fill="#1A1A1A"/>
<path d="M91.7023 6V7.232H87.1383V10.41H91.2543V11.614H87.1383V14.792H91.7023V16.024H85.8503V6H91.7023Z" fill="#1A1A1A"/>
<path d="M78.9058 16.024H73.2778V6H74.5658V14.792H78.9058V16.024Z" fill="#1A1A1A"/>
<path d="M62.2656 6V7.232H57.7016V10.41H61.8176V11.614H57.7016V14.792H62.2656V16.024H56.4136V6H62.2656Z" fill="#1A1A1A"/>
<path d="M48.7931 16.024H47.5051V6H48.7931V16.024Z" fill="#1A1A1A"/>
<path d="M37.7606 7.232V16.024H36.4726V7.232H33.6726V6H40.5606V7.232H37.7606Z" fill="#1A1A1A"/>
<path d="M23.949 7.582L22.311 12.104H25.643L24.005 7.582H23.949ZM20.897 16.024H19.469L23.249 6H24.705L28.485 16.024H27.057L26.091 13.308H21.877L20.897 16.024Z" fill="#1A1A1A"/>
<path d="M11.754 6H13.42V6.056L9.696 10.354L13.672 15.968V16.024H12.09L8.828 11.348L7.288 13.126V16.024H6V6H7.288V11.166H7.344L11.754 6Z" fill="#1A1A1A"/>
<path d="M143.593 6V7.232H139.029V10.41H143.145V11.614H139.029V14.792H143.593V16.024H137.741V6H143.593Z" stroke="#86C9FF" stroke-width="12" stroke-linejoin="round" mask="url(#path-1-outside-1_1089_126)"/>
<path d="M123.681 16.024H122.393V6H123.961L128.833 13.798H128.889L128.833 11.866V6H130.121V16.024H128.777L123.681 7.848H123.625L123.681 9.78V16.024Z" stroke="#86C9FF" stroke-width="12" stroke-linejoin="round" mask="url(#path-1-outside-1_1089_126)"/>
<path d="M114.772 16.024H113.484V6H114.772V16.024Z" stroke="#86C9FF" stroke-width="12" stroke-linejoin="round" mask="url(#path-1-outside-1_1089_126)"/>
<path d="M103.07 16.024H101.726L98.1982 6H99.6262L102.37 14.134H102.426L105.282 6H106.71L103.07 16.024Z" stroke="#86C9FF" stroke-width="12" stroke-linejoin="round" mask="url(#path-1-outside-1_1089_126)"/>
<path d="M91.7023 6V7.232H87.1383V10.41H91.2543V11.614H87.1383V14.792H91.7023V16.024H85.8503V6H91.7023Z" stroke="#86C9FF" stroke-width="12" stroke-linejoin="round" mask="url(#path-1-outside-1_1089_126)"/>
<path d="M78.9058 16.024H73.2778V6H74.5658V14.792H78.9058V16.024Z" stroke="#86C9FF" stroke-width="12" stroke-linejoin="round" mask="url(#path-1-outside-1_1089_126)"/>
<path d="M62.2656 6V7.232H57.7016V10.41H61.8176V11.614H57.7016V14.792H62.2656V16.024H56.4136V6H62.2656Z" stroke="#86C9FF" stroke-width="12" stroke-linejoin="round" mask="url(#path-1-outside-1_1089_126)"/>
<path d="M48.7931 16.024H47.5051V6H48.7931V16.024Z" stroke="#86C9FF" stroke-width="12" stroke-linejoin="round" mask="url(#path-1-outside-1_1089_126)"/>
<path d="M37.7606 7.232V16.024H36.4726V7.232H33.6726V6H40.5606V7.232H37.7606Z" stroke="#86C9FF" stroke-width="12" stroke-linejoin="round" mask="url(#path-1-outside-1_1089_126)"/>
<path d="M23.949 7.582L22.311 12.104H25.643L24.005 7.582H23.949ZM20.897 16.024H19.469L23.249 6H24.705L28.485 16.024H27.057L26.091 13.308H21.877L20.897 16.024Z" stroke="#86C9FF" stroke-width="12" stroke-linejoin="round" mask="url(#path-1-outside-1_1089_126)"/>
<path d="M11.754 6H13.42V6.056L9.696 10.354L13.672 15.968V16.024H12.09L8.828 11.348L7.288 13.126V16.024H6V6H7.288V11.166H7.344L11.754 6Z" stroke="#86C9FF" stroke-width="12" stroke-linejoin="round" mask="url(#path-1-outside-1_1089_126)"/>
</svg>
