<svg width="133" height="34" viewBox="0 0 133 34" fill="none" xmlns="http://www.w3.org/2000/svg">
<mask id="path-1-outside-1_1_618" maskUnits="userSpaceOnUse" x="-0.999756" y="0" width="135" height="34" fill="black">
<rect fill="white" x="-0.999756" width="135" height="34"/>
<path d="M90.1616 9.05659C90.588 9.05659 90.9311 9.40282 90.9311 9.83318V15.4557C90.9311 17.336 90.6163 19.5998 91.6173 21.2837C92.4979 22.7619 94.2775 22.9958 95.2601 21.5176C95.9739 20.4511 96.0758 19.0107 96.0758 17.7571V9.83318C96.0758 9.40293 96.419 9.05677 96.8453 9.05659H98.7925C99.2188 9.05672 99.562 9.4029 99.562 9.83318V19.1413C99.562 21.1246 99.2005 23.3331 97.8194 24.8113C96.4381 26.2895 94.324 26.5796 92.3958 26.3644C88.7527 25.9621 87.4367 22.4438 87.4367 19.1413V9.83318C87.4367 9.40282 87.7798 9.05659 88.2062 9.05659H90.1616Z"/>
<path d="M48.2335 9.05659C48.53 9.05667 48.8083 9.23383 48.9288 9.51432L51.3948 15.0345C51.6637 15.6424 52.5255 15.6425 52.7943 15.0345L55.3065 9.40195V9.412C55.4085 9.19682 55.6127 9.06573 55.8352 9.06573H58.3935C58.8198 9.06581 59.163 9.41201 59.163 9.84232V25.2507C59.163 25.681 58.8198 26.0272 58.3935 26.0273H56.6137C56.1873 26.0273 55.8442 25.6811 55.8442 25.2507V19.684C55.8442 19.3567 55.8531 19.0201 55.8623 18.6835C55.8716 18.4403 55.9369 18.1591 55.8442 17.9252C55.7515 17.7101 55.3896 17.7757 55.2413 17.8786C55.0653 18.0096 54.9823 18.2341 54.9082 18.4305C54.8155 18.6924 54.6763 18.9453 54.5651 19.1979C54.3333 19.7218 54.0916 20.2553 53.8598 20.7885C53.5819 21.4058 53.3131 22.0324 53.0351 22.6496C52.8961 22.9583 52.7668 23.2582 52.6278 23.5669C52.5443 23.754 52.4974 24.0715 52.2656 24.137C52.1358 24.1744 51.8668 24.1748 51.7741 24.0438C51.7279 23.997 51.7095 23.9034 51.6817 23.8474L49.902 19.8247C49.7073 19.385 49.5127 18.9359 49.3181 18.4962C49.2346 18.3185 49.1787 18.0751 49.0582 17.9161C48.9377 17.7945 48.5204 17.6724 48.372 17.8594C48.2793 17.9811 48.3539 18.3747 48.3539 18.5337V25.2416C48.3538 25.6719 48.0108 26.0182 47.5844 26.0182H45.8047C45.3783 26.0182 45.0353 25.6719 45.0352 25.2416V9.83318C45.0352 9.40282 45.3782 9.05659 45.8047 9.05659H48.2335Z"/>
<path d="M85.0169 9.06573C85.2023 9.06573 85.8979 8.94411 86.0462 9.06573H86.0643C86.3795 9.39318 85.6102 10.6468 85.4804 10.9368C84.5441 13.0324 83.6075 15.128 82.6713 17.2236C82.5787 17.4292 82.5788 17.6538 82.6713 17.8594L83.7567 20.2833L85.2767 23.6976C85.4157 24.025 86.4538 25.7092 86.0181 25.9899C85.9627 26.0271 85.898 26.0273 85.8425 26.0273H82.9402C82.6344 26.0272 82.3563 25.8401 82.2359 25.5595L82.0322 25.0726L80.6136 21.7707L79.9002 20.1051C79.8168 19.9087 79.7236 19.7121 79.6495 19.525C79.5753 19.338 79.501 19.244 79.3064 19.1879C79.0008 19.1039 78.9911 19.2259 78.9633 19.4784C78.9077 20.1052 78.9633 20.76 78.9633 21.3961V25.2416C78.9631 25.6717 78.6208 26.0179 78.1947 26.0182H76.0809C75.6545 26.0182 75.3115 25.6718 75.3114 25.2416V9.83227C75.3116 9.40209 75.6546 9.05659 76.0809 9.05659H78.1947C78.6208 9.05683 78.9631 9.40224 78.9633 9.83227C78.9633 11.2168 78.9452 12.611 78.9452 14.0048V15.0528C78.9452 15.2305 78.8524 15.4928 78.9081 15.6612C79.0378 16.0353 79.4823 15.923 79.6214 15.6238C79.6863 15.4647 79.7521 15.3057 79.8169 15.156C80.6234 13.285 81.4204 11.4045 82.2268 9.53351C82.3473 9.25288 82.6253 9.06579 82.9311 9.06573H85.0169Z"/>
<path d="M104.132 9.05659C104.568 9.05659 105.319 8.89685 105.588 9.24298C105.893 9.64518 106.069 10.2907 106.255 10.7678C106.468 11.2824 106.663 11.7973 106.876 12.3119C107.349 13.4532 107.831 14.6039 108.303 15.7453C108.303 15.7453 108.822 16.2505 109.008 15.7453V9.83227C109.008 9.40213 109.351 9.05665 109.777 9.05659H111.724C112.151 9.05683 112.493 9.40224 112.493 9.83227V25.2416C112.493 25.6717 112.151 26.0179 111.724 26.0182H109.508C109.203 26.0181 108.925 25.8308 108.804 25.5504L105.967 18.8516C105.952 18.8444 105.353 18.5575 105.161 18.9732V25.2416C105.161 25.6717 104.818 26.018 104.392 26.0182H102.435C102.009 26.0182 101.666 25.6718 101.666 25.2416V9.83227C101.666 9.4021 102.009 9.05662 102.435 9.05659H104.132Z"/>
<path fill-rule="evenodd" clip-rule="evenodd" d="M69.638 9.06573C69.9994 9.06575 70.3142 9.31792 70.3885 9.67329L73.6891 25.0817C73.7911 25.5588 73.429 26.0173 72.9377 26.0173H71.1951C70.8337 26.0172 70.5188 25.7651 70.4446 25.4097C70.389 25.129 70.3237 24.848 70.2681 24.5673C70.1012 23.7909 69.9619 23.0142 68.9979 23.0142H65.4293C65.0029 23.0142 64.7712 23.0614 64.5394 23.4637C64.3541 23.7724 64.3076 24.1371 64.2335 24.4833C64.1686 24.792 64.1037 25.101 64.0388 25.4097C63.9646 25.765 63.6497 26.0171 63.2883 26.0173H61.5448C61.0536 26.017 60.6923 25.5681 60.7943 25.0817L64.094 9.67329C64.1682 9.31783 64.4839 9.06573 64.8454 9.06573H69.638ZM68.0438 14.1638C67.9418 13.8173 67.7279 12.5457 67.0606 12.9012C66.8939 12.9854 66.7917 13.163 66.7175 13.3406C66.2634 14.3603 66.1426 15.5671 65.9109 16.6617C65.8275 17.0358 65.7721 17.4197 65.6701 17.7845C65.5311 18.2991 65.2722 19.7212 65.8747 20.0019C66.0693 20.0953 66.2826 20.096 66.4957 20.096H68.1361C68.3493 20.096 68.5536 20.0674 68.7019 19.9644H68.711C68.8129 19.899 68.8871 19.7963 68.9427 19.6374C69.0725 19.2257 68.9983 18.589 68.9056 18.1774C68.8686 18.0373 68.841 17.8972 68.8133 17.7571C68.5537 16.5596 68.359 15.3426 68.0438 14.1638Z"/>
<path fill-rule="evenodd" clip-rule="evenodd" d="M122.932 9.06573C123.293 9.06586 123.608 9.31797 123.682 9.67329L126.983 25.0817C127.085 25.5588 126.723 26.0173 126.232 26.0173H124.489C124.127 26.0173 123.813 25.7651 123.738 25.4097C123.683 25.129 123.618 24.848 123.562 24.5673C123.395 23.7909 123.256 23.0142 122.292 23.0142H118.723C118.297 23.0142 118.065 23.0615 117.833 23.4637C117.648 23.7724 117.601 24.1372 117.527 24.4833C117.462 24.792 117.398 25.101 117.333 25.4097C117.258 25.7652 116.943 26.0173 116.581 26.0173H114.839C114.347 26.0172 113.986 25.5681 114.088 25.0817L117.388 9.67329C117.462 9.31785 117.778 9.06573 118.139 9.06573H122.932ZM121.337 14.1638C121.235 13.817 121.022 12.5458 120.354 12.9012C120.188 12.9853 120.086 13.1629 120.011 13.3406C119.557 14.3603 119.436 15.5672 119.205 16.6617C119.121 17.0358 119.066 17.4197 118.964 17.7845C118.825 18.299 118.565 19.721 119.168 20.0019C119.362 20.0954 119.576 20.096 119.789 20.096H121.43C121.643 20.096 121.847 20.0672 121.995 19.9644H122.005C122.107 19.899 122.181 19.7962 122.237 19.6374C122.366 19.2257 122.292 18.589 122.199 18.1774C122.162 18.0372 122.134 17.8973 122.106 17.7571C121.847 16.5596 121.652 15.3426 121.337 14.1638Z"/>
<path d="M21.1788 6.14026C21.5031 5.9532 23.2544 5.9533 23.5796 6.14026C24.1728 6.5425 24.1915 6.7485 24.1916 7.46868C24.2008 8.25455 23.9136 9.65858 24.5347 10.2854C25.3134 11.0708 26.8152 9.87298 27.3528 9.30234C27.8626 8.76901 28.8172 7.21658 29.6884 7.3563C30.4578 7.47792 31.4596 8.02077 31.5895 8.87202C31.7286 9.79822 30.6895 10.8182 30.1148 11.4357C29.4289 12.1747 28.6317 12.8487 27.7511 13.3351C26.2217 14.2892 25.248 14.2795 24.8216 14.6818C23.8205 16.0757 24.7013 17.7877 26.4068 17.208C28.1495 16.7777 29.7817 16.0109 31.1722 14.8508C31.7097 14.4112 32.2007 13.9244 32.6641 13.41C33.007 13.0359 33.545 12.1187 34.0455 12.025C34.2309 11.9875 34.4259 12.0248 34.6113 12.0716C35.3437 12.2774 36.4095 12.7455 36.5115 13.6156C36.5949 14.3827 35.8536 15.1218 35.3808 15.6457C34.8802 16.207 34.305 16.7032 33.7024 17.1523C32.3954 18.1345 30.949 18.9295 29.4567 19.5844C28.437 20.0334 27.3432 20.5016 26.2402 20.6606C25.2949 20.7168 24.3035 21.3899 24.1734 22.2878C23.988 23.635 25.0169 24.5052 26.3796 24.0374C29.7817 23.4012 33.4619 21.203 35.5755 19.5003C36.2151 19.07 37.4668 18.7146 38.1528 19.4163C38.542 19.8466 38.9589 20.6976 38.6534 21.2682C38.5607 21.4459 38.4122 21.5865 38.2732 21.7268C36.929 23.046 35.3527 24.1036 33.6934 24.983C30.3377 26.7605 26.3699 28.1452 22.5322 27.9861H22.2262C18.3885 28.1545 14.4207 26.7699 11.065 24.983C9.40571 24.1036 7.83021 23.0553 6.48608 21.7268C6.33776 21.5865 6.19856 21.4459 6.10586 21.2682C5.80011 20.6975 6.21719 19.8372 6.60648 19.4163C7.29247 18.7146 8.53491 19.0606 9.18382 19.5003C11.2974 21.1936 14.9777 23.4013 18.3797 24.0374C19.7423 24.505 20.7712 23.6349 20.5858 22.2878C20.4651 21.3898 19.4729 20.7167 18.5182 20.6606C17.4151 20.5015 16.3121 20.0334 15.3017 19.5844C13.8093 18.9295 12.363 18.1346 11.0559 17.1523C10.4534 16.7032 9.88827 16.207 9.37845 15.6457C8.89643 15.1218 8.15421 14.3827 8.24685 13.6156C8.34882 12.7455 9.40634 12.2774 10.1479 12.0716C10.3331 12.0249 10.5276 11.9876 10.7128 12.025C11.2134 12.1279 11.7513 13.0358 12.0943 13.41C12.567 13.9152 13.0588 14.4112 13.5871 14.8508C14.9683 16.0014 16.609 16.7777 18.3516 17.208C20.0573 17.788 20.9379 16.0758 19.9367 14.6818C19.501 14.2796 18.5367 14.2893 17.0072 13.3351C16.1266 12.8486 15.3295 12.1654 14.6436 11.4357C14.0595 10.8182 13.0307 9.79822 13.1698 8.87202C13.2997 8.02082 14.3006 7.47791 15.0699 7.3563C15.9411 7.21612 16.8957 8.76876 17.4056 9.30234C17.9431 9.87293 19.4449 11.0705 20.2237 10.2854C20.8448 9.66794 20.5668 8.25455 20.5668 7.46868C20.5575 6.7485 20.5856 6.5425 21.1788 6.14026Z"/>
</mask>
<path d="M90.1616 9.05659C90.588 9.05659 90.9311 9.40282 90.9311 9.83318V15.4557C90.9311 17.336 90.6163 19.5998 91.6173 21.2837C92.4979 22.7619 94.2775 22.9958 95.2601 21.5176C95.9739 20.4511 96.0758 19.0107 96.0758 17.7571V9.83318C96.0758 9.40293 96.419 9.05677 96.8453 9.05659H98.7925C99.2188 9.05672 99.562 9.4029 99.562 9.83318V19.1413C99.562 21.1246 99.2005 23.3331 97.8194 24.8113C96.4381 26.2895 94.324 26.5796 92.3958 26.3644C88.7527 25.9621 87.4367 22.4438 87.4367 19.1413V9.83318C87.4367 9.40282 87.7798 9.05659 88.2062 9.05659H90.1616Z" fill="#EFEBE7"/>
<path d="M48.2335 9.05659C48.53 9.05667 48.8083 9.23383 48.9288 9.51432L51.3948 15.0345C51.6637 15.6424 52.5255 15.6425 52.7943 15.0345L55.3065 9.40195V9.412C55.4085 9.19682 55.6127 9.06573 55.8352 9.06573H58.3935C58.8198 9.06581 59.163 9.41201 59.163 9.84232V25.2507C59.163 25.681 58.8198 26.0272 58.3935 26.0273H56.6137C56.1873 26.0273 55.8442 25.6811 55.8442 25.2507V19.684C55.8442 19.3567 55.8531 19.0201 55.8623 18.6835C55.8716 18.4403 55.9369 18.1591 55.8442 17.9252C55.7515 17.7101 55.3896 17.7757 55.2413 17.8786C55.0653 18.0096 54.9823 18.2341 54.9082 18.4305C54.8155 18.6924 54.6763 18.9453 54.5651 19.1979C54.3333 19.7218 54.0916 20.2553 53.8598 20.7885C53.5819 21.4058 53.3131 22.0324 53.0351 22.6496C52.8961 22.9583 52.7668 23.2582 52.6278 23.5669C52.5443 23.754 52.4974 24.0715 52.2656 24.137C52.1358 24.1744 51.8668 24.1748 51.7741 24.0438C51.7279 23.997 51.7095 23.9034 51.6817 23.8474L49.902 19.8247C49.7073 19.385 49.5127 18.9359 49.3181 18.4962C49.2346 18.3185 49.1787 18.0751 49.0582 17.9161C48.9377 17.7945 48.5204 17.6724 48.372 17.8594C48.2793 17.9811 48.3539 18.3747 48.3539 18.5337V25.2416C48.3538 25.6719 48.0108 26.0182 47.5844 26.0182H45.8047C45.3783 26.0182 45.0353 25.6719 45.0352 25.2416V9.83318C45.0352 9.40282 45.3782 9.05659 45.8047 9.05659H48.2335Z" fill="#EFEBE7"/>
<path d="M85.0169 9.06573C85.2023 9.06573 85.8979 8.94411 86.0462 9.06573H86.0643C86.3795 9.39318 85.6102 10.6468 85.4804 10.9368C84.5441 13.0324 83.6075 15.128 82.6713 17.2236C82.5787 17.4292 82.5788 17.6538 82.6713 17.8594L83.7567 20.2833L85.2767 23.6976C85.4157 24.025 86.4538 25.7092 86.0181 25.9899C85.9627 26.0271 85.898 26.0273 85.8425 26.0273H82.9402C82.6344 26.0272 82.3563 25.8401 82.2359 25.5595L82.0322 25.0726L80.6136 21.7707L79.9002 20.1051C79.8168 19.9087 79.7236 19.7121 79.6495 19.525C79.5753 19.338 79.501 19.244 79.3064 19.1879C79.0008 19.1039 78.9911 19.2259 78.9633 19.4784C78.9077 20.1052 78.9633 20.76 78.9633 21.3961V25.2416C78.9631 25.6717 78.6208 26.0179 78.1947 26.0182H76.0809C75.6545 26.0182 75.3115 25.6718 75.3114 25.2416V9.83227C75.3116 9.40209 75.6546 9.05659 76.0809 9.05659H78.1947C78.6208 9.05683 78.9631 9.40224 78.9633 9.83227C78.9633 11.2168 78.9452 12.611 78.9452 14.0048V15.0528C78.9452 15.2305 78.8524 15.4928 78.9081 15.6612C79.0378 16.0353 79.4823 15.923 79.6214 15.6238C79.6863 15.4647 79.7521 15.3057 79.8169 15.156C80.6234 13.285 81.4204 11.4045 82.2268 9.53351C82.3473 9.25288 82.6253 9.06579 82.9311 9.06573H85.0169Z" fill="#EFEBE7"/>
<path d="M104.132 9.05659C104.568 9.05659 105.319 8.89685 105.588 9.24298C105.893 9.64518 106.069 10.2907 106.255 10.7678C106.468 11.2824 106.663 11.7973 106.876 12.3119C107.349 13.4532 107.831 14.6039 108.303 15.7453C108.303 15.7453 108.822 16.2505 109.008 15.7453V9.83227C109.008 9.40213 109.351 9.05665 109.777 9.05659H111.724C112.151 9.05683 112.493 9.40224 112.493 9.83227V25.2416C112.493 25.6717 112.151 26.0179 111.724 26.0182H109.508C109.203 26.0181 108.925 25.8308 108.804 25.5504L105.967 18.8516C105.952 18.8444 105.353 18.5575 105.161 18.9732V25.2416C105.161 25.6717 104.818 26.018 104.392 26.0182H102.435C102.009 26.0182 101.666 25.6718 101.666 25.2416V9.83227C101.666 9.4021 102.009 9.05662 102.435 9.05659H104.132Z" fill="#EFEBE7"/>
<path fill-rule="evenodd" clip-rule="evenodd" d="M69.638 9.06573C69.9994 9.06575 70.3142 9.31792 70.3885 9.67329L73.6891 25.0817C73.7911 25.5588 73.429 26.0173 72.9377 26.0173H71.1951C70.8337 26.0172 70.5188 25.7651 70.4446 25.4097C70.389 25.129 70.3237 24.848 70.2681 24.5673C70.1012 23.7909 69.9619 23.0142 68.9979 23.0142H65.4293C65.0029 23.0142 64.7712 23.0614 64.5394 23.4637C64.3541 23.7724 64.3076 24.1371 64.2335 24.4833C64.1686 24.792 64.1037 25.101 64.0388 25.4097C63.9646 25.765 63.6497 26.0171 63.2883 26.0173H61.5448C61.0536 26.017 60.6923 25.5681 60.7943 25.0817L64.094 9.67329C64.1682 9.31783 64.4839 9.06573 64.8454 9.06573H69.638ZM68.0438 14.1638C67.9418 13.8173 67.7279 12.5457 67.0606 12.9012C66.8939 12.9854 66.7917 13.163 66.7175 13.3406C66.2634 14.3603 66.1426 15.5671 65.9109 16.6617C65.8275 17.0358 65.7721 17.4197 65.6701 17.7845C65.5311 18.2991 65.2722 19.7212 65.8747 20.0019C66.0693 20.0953 66.2826 20.096 66.4957 20.096H68.1361C68.3493 20.096 68.5536 20.0674 68.7019 19.9644H68.711C68.8129 19.899 68.8871 19.7963 68.9427 19.6374C69.0725 19.2257 68.9983 18.589 68.9056 18.1774C68.8686 18.0373 68.841 17.8972 68.8133 17.7571C68.5537 16.5596 68.359 15.3426 68.0438 14.1638Z" fill="#EFEBE7"/>
<path fill-rule="evenodd" clip-rule="evenodd" d="M122.932 9.06573C123.293 9.06586 123.608 9.31797 123.682 9.67329L126.983 25.0817C127.085 25.5588 126.723 26.0173 126.232 26.0173H124.489C124.127 26.0173 123.813 25.7651 123.738 25.4097C123.683 25.129 123.618 24.848 123.562 24.5673C123.395 23.7909 123.256 23.0142 122.292 23.0142H118.723C118.297 23.0142 118.065 23.0615 117.833 23.4637C117.648 23.7724 117.601 24.1372 117.527 24.4833C117.462 24.792 117.398 25.101 117.333 25.4097C117.258 25.7652 116.943 26.0173 116.581 26.0173H114.839C114.347 26.0172 113.986 25.5681 114.088 25.0817L117.388 9.67329C117.462 9.31785 117.778 9.06573 118.139 9.06573H122.932ZM121.337 14.1638C121.235 13.817 121.022 12.5458 120.354 12.9012C120.188 12.9853 120.086 13.1629 120.011 13.3406C119.557 14.3603 119.436 15.5672 119.205 16.6617C119.121 17.0358 119.066 17.4197 118.964 17.7845C118.825 18.299 118.565 19.721 119.168 20.0019C119.362 20.0954 119.576 20.096 119.789 20.096H121.43C121.643 20.096 121.847 20.0672 121.995 19.9644H122.005C122.107 19.899 122.181 19.7962 122.237 19.6374C122.366 19.2257 122.292 18.589 122.199 18.1774C122.162 18.0372 122.134 17.8973 122.106 17.7571C121.847 16.5596 121.652 15.3426 121.337 14.1638Z" fill="#EFEBE7"/>
<path d="M21.1788 6.14026C21.5031 5.9532 23.2544 5.9533 23.5796 6.14026C24.1728 6.5425 24.1915 6.7485 24.1916 7.46868C24.2008 8.25455 23.9136 9.65858 24.5347 10.2854C25.3134 11.0708 26.8152 9.87298 27.3528 9.30234C27.8626 8.76901 28.8172 7.21658 29.6884 7.3563C30.4578 7.47792 31.4596 8.02077 31.5895 8.87202C31.7286 9.79822 30.6895 10.8182 30.1148 11.4357C29.4289 12.1747 28.6317 12.8487 27.7511 13.3351C26.2217 14.2892 25.248 14.2795 24.8216 14.6818C23.8205 16.0757 24.7013 17.7877 26.4068 17.208C28.1495 16.7777 29.7817 16.0109 31.1722 14.8508C31.7097 14.4112 32.2007 13.9244 32.6641 13.41C33.007 13.0359 33.545 12.1187 34.0455 12.025C34.2309 11.9875 34.4259 12.0248 34.6113 12.0716C35.3437 12.2774 36.4095 12.7455 36.5115 13.6156C36.5949 14.3827 35.8536 15.1218 35.3808 15.6457C34.8802 16.207 34.305 16.7032 33.7024 17.1523C32.3954 18.1345 30.949 18.9295 29.4567 19.5844C28.437 20.0334 27.3432 20.5016 26.2402 20.6606C25.2949 20.7168 24.3035 21.3899 24.1734 22.2878C23.988 23.635 25.0169 24.5052 26.3796 24.0374C29.7817 23.4012 33.4619 21.203 35.5755 19.5003C36.2151 19.07 37.4668 18.7146 38.1528 19.4163C38.542 19.8466 38.9589 20.6976 38.6534 21.2682C38.5607 21.4459 38.4122 21.5865 38.2732 21.7268C36.929 23.046 35.3527 24.1036 33.6934 24.983C30.3377 26.7605 26.3699 28.1452 22.5322 27.9861H22.2262C18.3885 28.1545 14.4207 26.7699 11.065 24.983C9.40571 24.1036 7.83021 23.0553 6.48608 21.7268C6.33776 21.5865 6.19856 21.4459 6.10586 21.2682C5.80011 20.6975 6.21719 19.8372 6.60648 19.4163C7.29247 18.7146 8.53491 19.0606 9.18382 19.5003C11.2974 21.1936 14.9777 23.4013 18.3797 24.0374C19.7423 24.505 20.7712 23.6349 20.5858 22.2878C20.4651 21.3898 19.4729 20.7167 18.5182 20.6606C17.4151 20.5015 16.3121 20.0334 15.3017 19.5844C13.8093 18.9295 12.363 18.1346 11.0559 17.1523C10.4534 16.7032 9.88827 16.207 9.37845 15.6457C8.89643 15.1218 8.15421 14.3827 8.24685 13.6156C8.34882 12.7455 9.40634 12.2774 10.1479 12.0716C10.3331 12.0249 10.5276 11.9876 10.7128 12.025C11.2134 12.1279 11.7513 13.0358 12.0943 13.41C12.567 13.9152 13.0588 14.4112 13.5871 14.8508C14.9683 16.0014 16.609 16.7777 18.3516 17.208C20.0573 17.788 20.9379 16.0758 19.9367 14.6818C19.501 14.2796 18.5367 14.2893 17.0072 13.3351C16.1266 12.8486 15.3295 12.1654 14.6436 11.4357C14.0595 10.8182 13.0307 9.79822 13.1698 8.87202C13.2997 8.02082 14.3006 7.47791 15.0699 7.3563C15.9411 7.21612 16.8957 8.76876 17.4056 9.30234C17.9431 9.87293 19.4449 11.0705 20.2237 10.2854C20.8448 9.66794 20.5668 8.25455 20.5668 7.46868C20.5575 6.7485 20.5856 6.5425 21.1788 6.14026Z" fill="#EFEBE7"/>
<path d="M90.1616 9.05659C90.588 9.05659 90.9311 9.40282 90.9311 9.83318V15.4557C90.9311 17.336 90.6163 19.5998 91.6173 21.2837C92.4979 22.7619 94.2775 22.9958 95.2601 21.5176C95.9739 20.4511 96.0758 19.0107 96.0758 17.7571V9.83318C96.0758 9.40293 96.419 9.05677 96.8453 9.05659H98.7925C99.2188 9.05672 99.562 9.4029 99.562 9.83318V19.1413C99.562 21.1246 99.2005 23.3331 97.8194 24.8113C96.4381 26.2895 94.324 26.5796 92.3958 26.3644C88.7527 25.9621 87.4367 22.4438 87.4367 19.1413V9.83318C87.4367 9.40282 87.7798 9.05659 88.2062 9.05659H90.1616Z" stroke="#E47249" stroke-width="12" stroke-linejoin="round" mask="url(#path-1-outside-1_1_618)"/>
<path d="M48.2335 9.05659C48.53 9.05667 48.8083 9.23383 48.9288 9.51432L51.3948 15.0345C51.6637 15.6424 52.5255 15.6425 52.7943 15.0345L55.3065 9.40195V9.412C55.4085 9.19682 55.6127 9.06573 55.8352 9.06573H58.3935C58.8198 9.06581 59.163 9.41201 59.163 9.84232V25.2507C59.163 25.681 58.8198 26.0272 58.3935 26.0273H56.6137C56.1873 26.0273 55.8442 25.6811 55.8442 25.2507V19.684C55.8442 19.3567 55.8531 19.0201 55.8623 18.6835C55.8716 18.4403 55.9369 18.1591 55.8442 17.9252C55.7515 17.7101 55.3896 17.7757 55.2413 17.8786C55.0653 18.0096 54.9823 18.2341 54.9082 18.4305C54.8155 18.6924 54.6763 18.9453 54.5651 19.1979C54.3333 19.7218 54.0916 20.2553 53.8598 20.7885C53.5819 21.4058 53.3131 22.0324 53.0351 22.6496C52.8961 22.9583 52.7668 23.2582 52.6278 23.5669C52.5443 23.754 52.4974 24.0715 52.2656 24.137C52.1358 24.1744 51.8668 24.1748 51.7741 24.0438C51.7279 23.997 51.7095 23.9034 51.6817 23.8474L49.902 19.8247C49.7073 19.385 49.5127 18.9359 49.3181 18.4962C49.2346 18.3185 49.1787 18.0751 49.0582 17.9161C48.9377 17.7945 48.5204 17.6724 48.372 17.8594C48.2793 17.9811 48.3539 18.3747 48.3539 18.5337V25.2416C48.3538 25.6719 48.0108 26.0182 47.5844 26.0182H45.8047C45.3783 26.0182 45.0353 25.6719 45.0352 25.2416V9.83318C45.0352 9.40282 45.3782 9.05659 45.8047 9.05659H48.2335Z" stroke="#E47249" stroke-width="12" stroke-linejoin="round" mask="url(#path-1-outside-1_1_618)"/>
<path d="M85.0169 9.06573C85.2023 9.06573 85.8979 8.94411 86.0462 9.06573H86.0643C86.3795 9.39318 85.6102 10.6468 85.4804 10.9368C84.5441 13.0324 83.6075 15.128 82.6713 17.2236C82.5787 17.4292 82.5788 17.6538 82.6713 17.8594L83.7567 20.2833L85.2767 23.6976C85.4157 24.025 86.4538 25.7092 86.0181 25.9899C85.9627 26.0271 85.898 26.0273 85.8425 26.0273H82.9402C82.6344 26.0272 82.3563 25.8401 82.2359 25.5595L82.0322 25.0726L80.6136 21.7707L79.9002 20.1051C79.8168 19.9087 79.7236 19.7121 79.6495 19.525C79.5753 19.338 79.501 19.244 79.3064 19.1879C79.0008 19.1039 78.9911 19.2259 78.9633 19.4784C78.9077 20.1052 78.9633 20.76 78.9633 21.3961V25.2416C78.9631 25.6717 78.6208 26.0179 78.1947 26.0182H76.0809C75.6545 26.0182 75.3115 25.6718 75.3114 25.2416V9.83227C75.3116 9.40209 75.6546 9.05659 76.0809 9.05659H78.1947C78.6208 9.05683 78.9631 9.40224 78.9633 9.83227C78.9633 11.2168 78.9452 12.611 78.9452 14.0048V15.0528C78.9452 15.2305 78.8524 15.4928 78.9081 15.6612C79.0378 16.0353 79.4823 15.923 79.6214 15.6238C79.6863 15.4647 79.7521 15.3057 79.8169 15.156C80.6234 13.285 81.4204 11.4045 82.2268 9.53351C82.3473 9.25288 82.6253 9.06579 82.9311 9.06573H85.0169Z" stroke="#E47249" stroke-width="12" stroke-linejoin="round" mask="url(#path-1-outside-1_1_618)"/>
<path d="M104.132 9.05659C104.568 9.05659 105.319 8.89685 105.588 9.24298C105.893 9.64518 106.069 10.2907 106.255 10.7678C106.468 11.2824 106.663 11.7973 106.876 12.3119C107.349 13.4532 107.831 14.6039 108.303 15.7453C108.303 15.7453 108.822 16.2505 109.008 15.7453V9.83227C109.008 9.40213 109.351 9.05665 109.777 9.05659H111.724C112.151 9.05683 112.493 9.40224 112.493 9.83227V25.2416C112.493 25.6717 112.151 26.0179 111.724 26.0182H109.508C109.203 26.0181 108.925 25.8308 108.804 25.5504L105.967 18.8516C105.952 18.8444 105.353 18.5575 105.161 18.9732V25.2416C105.161 25.6717 104.818 26.018 104.392 26.0182H102.435C102.009 26.0182 101.666 25.6718 101.666 25.2416V9.83227C101.666 9.4021 102.009 9.05662 102.435 9.05659H104.132Z" stroke="#E47249" stroke-width="12" stroke-linejoin="round" mask="url(#path-1-outside-1_1_618)"/>
<path fill-rule="evenodd" clip-rule="evenodd" d="M69.638 9.06573C69.9994 9.06575 70.3142 9.31792 70.3885 9.67329L73.6891 25.0817C73.7911 25.5588 73.429 26.0173 72.9377 26.0173H71.1951C70.8337 26.0172 70.5188 25.7651 70.4446 25.4097C70.389 25.129 70.3237 24.848 70.2681 24.5673C70.1012 23.7909 69.9619 23.0142 68.9979 23.0142H65.4293C65.0029 23.0142 64.7712 23.0614 64.5394 23.4637C64.3541 23.7724 64.3076 24.1371 64.2335 24.4833C64.1686 24.792 64.1037 25.101 64.0388 25.4097C63.9646 25.765 63.6497 26.0171 63.2883 26.0173H61.5448C61.0536 26.017 60.6923 25.5681 60.7943 25.0817L64.094 9.67329C64.1682 9.31783 64.4839 9.06573 64.8454 9.06573H69.638ZM68.0438 14.1638C67.9418 13.8173 67.7279 12.5457 67.0606 12.9012C66.8939 12.9854 66.7917 13.163 66.7175 13.3406C66.2634 14.3603 66.1426 15.5671 65.9109 16.6617C65.8275 17.0358 65.7721 17.4197 65.6701 17.7845C65.5311 18.2991 65.2722 19.7212 65.8747 20.0019C66.0693 20.0953 66.2826 20.096 66.4957 20.096H68.1361C68.3493 20.096 68.5536 20.0674 68.7019 19.9644H68.711C68.8129 19.899 68.8871 19.7963 68.9427 19.6374C69.0725 19.2257 68.9983 18.589 68.9056 18.1774C68.8686 18.0373 68.841 17.8972 68.8133 17.7571C68.5537 16.5596 68.359 15.3426 68.0438 14.1638Z" stroke="#E47249" stroke-width="12" stroke-linejoin="round" mask="url(#path-1-outside-1_1_618)"/>
<path fill-rule="evenodd" clip-rule="evenodd" d="M122.932 9.06573C123.293 9.06586 123.608 9.31797 123.682 9.67329L126.983 25.0817C127.085 25.5588 126.723 26.0173 126.232 26.0173H124.489C124.127 26.0173 123.813 25.7651 123.738 25.4097C123.683 25.129 123.618 24.848 123.562 24.5673C123.395 23.7909 123.256 23.0142 122.292 23.0142H118.723C118.297 23.0142 118.065 23.0615 117.833 23.4637C117.648 23.7724 117.601 24.1372 117.527 24.4833C117.462 24.792 117.398 25.101 117.333 25.4097C117.258 25.7652 116.943 26.0173 116.581 26.0173H114.839C114.347 26.0172 113.986 25.5681 114.088 25.0817L117.388 9.67329C117.462 9.31785 117.778 9.06573 118.139 9.06573H122.932ZM121.337 14.1638C121.235 13.817 121.022 12.5458 120.354 12.9012C120.188 12.9853 120.086 13.1629 120.011 13.3406C119.557 14.3603 119.436 15.5672 119.205 16.6617C119.121 17.0358 119.066 17.4197 118.964 17.7845C118.825 18.299 118.565 19.721 119.168 20.0019C119.362 20.0954 119.576 20.096 119.789 20.096H121.43C121.643 20.096 121.847 20.0672 121.995 19.9644H122.005C122.107 19.899 122.181 19.7962 122.237 19.6374C122.366 19.2257 122.292 18.589 122.199 18.1774C122.162 18.0372 122.134 17.8973 122.106 17.7571C121.847 16.5596 121.652 15.3426 121.337 14.1638Z" stroke="#E47249" stroke-width="12" stroke-linejoin="round" mask="url(#path-1-outside-1_1_618)"/>
<path d="M21.1788 6.14026C21.5031 5.9532 23.2544 5.9533 23.5796 6.14026C24.1728 6.5425 24.1915 6.7485 24.1916 7.46868C24.2008 8.25455 23.9136 9.65858 24.5347 10.2854C25.3134 11.0708 26.8152 9.87298 27.3528 9.30234C27.8626 8.76901 28.8172 7.21658 29.6884 7.3563C30.4578 7.47792 31.4596 8.02077 31.5895 8.87202C31.7286 9.79822 30.6895 10.8182 30.1148 11.4357C29.4289 12.1747 28.6317 12.8487 27.7511 13.3351C26.2217 14.2892 25.248 14.2795 24.8216 14.6818C23.8205 16.0757 24.7013 17.7877 26.4068 17.208C28.1495 16.7777 29.7817 16.0109 31.1722 14.8508C31.7097 14.4112 32.2007 13.9244 32.6641 13.41C33.007 13.0359 33.545 12.1187 34.0455 12.025C34.2309 11.9875 34.4259 12.0248 34.6113 12.0716C35.3437 12.2774 36.4095 12.7455 36.5115 13.6156C36.5949 14.3827 35.8536 15.1218 35.3808 15.6457C34.8802 16.207 34.305 16.7032 33.7024 17.1523C32.3954 18.1345 30.949 18.9295 29.4567 19.5844C28.437 20.0334 27.3432 20.5016 26.2402 20.6606C25.2949 20.7168 24.3035 21.3899 24.1734 22.2878C23.988 23.635 25.0169 24.5052 26.3796 24.0374C29.7817 23.4012 33.4619 21.203 35.5755 19.5003C36.2151 19.07 37.4668 18.7146 38.1528 19.4163C38.542 19.8466 38.9589 20.6976 38.6534 21.2682C38.5607 21.4459 38.4122 21.5865 38.2732 21.7268C36.929 23.046 35.3527 24.1036 33.6934 24.983C30.3377 26.7605 26.3699 28.1452 22.5322 27.9861H22.2262C18.3885 28.1545 14.4207 26.7699 11.065 24.983C9.40571 24.1036 7.83021 23.0553 6.48608 21.7268C6.33776 21.5865 6.19856 21.4459 6.10586 21.2682C5.80011 20.6975 6.21719 19.8372 6.60648 19.4163C7.29247 18.7146 8.53491 19.0606 9.18382 19.5003C11.2974 21.1936 14.9777 23.4013 18.3797 24.0374C19.7423 24.505 20.7712 23.6349 20.5858 22.2878C20.4651 21.3898 19.4729 20.7167 18.5182 20.6606C17.4151 20.5015 16.3121 20.0334 15.3017 19.5844C13.8093 18.9295 12.363 18.1346 11.0559 17.1523C10.4534 16.7032 9.88827 16.207 9.37845 15.6457C8.89643 15.1218 8.15421 14.3827 8.24685 13.6156C8.34882 12.7455 9.40634 12.2774 10.1479 12.0716C10.3331 12.0249 10.5276 11.9876 10.7128 12.025C11.2134 12.1279 11.7513 13.0358 12.0943 13.41C12.567 13.9152 13.0588 14.4112 13.5871 14.8508C14.9683 16.0014 16.609 16.7777 18.3516 17.208C20.0573 17.788 20.9379 16.0758 19.9367 14.6818C19.501 14.2796 18.5367 14.2893 17.0072 13.3351C16.1266 12.8486 15.3295 12.1654 14.6436 11.4357C14.0595 10.8182 13.0307 9.79822 13.1698 8.87202C13.2997 8.02082 14.3006 7.47791 15.0699 7.3563C15.9411 7.21612 16.8957 8.76876 17.4056 9.30234C17.9431 9.87293 19.4449 11.0705 20.2237 10.2854C20.8448 9.66794 20.5668 8.25455 20.5668 7.46868C20.5575 6.7485 20.5856 6.5425 21.1788 6.14026Z" stroke="#E47249" stroke-width="12" stroke-linejoin="round" mask="url(#path-1-outside-1_1_618)"/>
</svg>
