<svg width="84" height="38" viewBox="0 0 84 38" fill="none" xmlns="http://www.w3.org/2000/svg">
<mask id="path-1-outside-1_1153_267" maskUnits="userSpaceOnUse" x="0" y="0" width="84" height="38" fill="black">
<rect fill="white" width="84" height="38"/>
<path d="M77.9438 11.0572C77.9585 11.0648 77.9714 11.0758 77.981 11.0892C77.9905 11.1026 77.9967 11.1183 77.999 11.1345C78.0012 11.1504 77.9998 11.1667 77.9945 11.1819C76.0757 16.5464 74.1507 21.9182 72.2192 27.2962C71.7969 28.4681 71.3841 29.51 70.536 30.363C68.7464 32.1637 65.9147 32.3231 63.58 31.5906C63.5263 31.5736 63.5078 31.5385 63.5248 31.4857L64.4509 28.5095C64.4694 28.4529 64.5082 28.4318 64.5659 28.4465C66.407 28.9161 67.2532 28.6242 67.8658 26.7928C67.8804 26.7477 67.8792 26.6998 67.8636 26.6559L62.3678 11.172C62.3459 11.1121 62.3673 11.0815 62.4331 11.0804L66.7335 11.0572C66.8062 11.056 66.8525 11.0898 66.8721 11.1587L70.0516 22.1839C70.0573 22.2042 70.0705 22.2218 70.0876 22.2346C70.1048 22.2474 70.1257 22.2545 70.1473 22.2545C70.1689 22.2544 70.1899 22.2475 70.207 22.2346C70.224 22.2218 70.2363 22.2041 70.242 22.1839L73.4563 11.1311C73.4736 11.0739 73.5127 11.0452 73.5735 11.045H77.8953C77.9121 11.0452 77.929 11.0495 77.9438 11.0572Z"/>
<path fill-rule="evenodd" clip-rule="evenodd" d="M15.4898 14.2078C17.4801 10.9434 21.8795 9.99165 25.3098 11.6058C28.4632 13.0897 29.3457 16.4225 29.119 19.6735C29.1167 19.7142 29.0952 19.7342 29.0536 19.7342L18.6794 19.7452C18.6299 19.7453 18.604 19.7695 18.6017 19.8181C18.5187 21.6257 19.5507 23.0281 21.3575 23.3706C22.7834 23.6417 24.3967 23.1672 25.0405 21.7632C25.0693 21.7023 25.1178 21.6738 25.187 21.6782L28.9308 21.9244C28.9486 21.9258 28.9661 21.9302 28.9815 21.9388C28.997 21.9475 29.0107 21.9598 29.021 21.9741C29.0312 21.9885 29.0383 22.0054 29.0413 22.0227C29.0442 22.0399 29.0427 22.0577 29.0379 22.0746C28.4102 24.1503 27.0373 25.5135 24.9188 26.1625C20.7322 27.4444 16.0247 25.9767 14.6989 21.559C14.0229 19.3003 14.1735 17.0386 15.1518 14.7742C15.1807 14.7075 15.1591 14.6685 15.0865 14.656C12.0992 14.1168 10.3042 15.2426 10.2903 18.2494C10.2776 20.8937 10.2776 23.538 10.2903 26.1823C10.2903 26.2389 10.2612 26.2673 10.2036 26.2673L6.08337 26.2685C6.02814 26.2685 6.00016 26.2418 6 26.1879V11.13C6 11.1076 6.00857 11.0852 6.02479 11.0693C6.04102 11.0534 6.0638 11.045 6.08675 11.045H10.0605C10.1135 11.0451 10.1404 11.0714 10.1416 11.1234L10.1833 13.6989C10.1841 13.7143 10.1898 13.7294 10.2002 13.7409C10.2106 13.7524 10.2252 13.7604 10.2407 13.7629C10.2561 13.7655 10.2721 13.7626 10.2858 13.7552C10.2995 13.7477 10.3103 13.7353 10.3162 13.721C11.1274 11.4293 12.7962 10.5131 15.322 10.9733C15.3646 10.9812 15.3862 11.0065 15.3862 11.0483L15.3963 14.1824C15.3962 14.1932 15.3999 14.2036 15.4065 14.2123C15.4131 14.2209 15.4228 14.227 15.4335 14.2299C15.4439 14.2327 15.455 14.2327 15.465 14.2288C15.4753 14.2248 15.4842 14.2172 15.4898 14.2078ZM21.8363 14.0146C20.9852 14.0165 20.1701 14.3391 19.5695 14.9111C18.9688 15.483 18.632 16.2575 18.6332 17.0649V17.0825C18.6333 17.0905 18.6365 17.0978 18.6422 17.1035C18.648 17.1091 18.6555 17.1122 18.6636 17.1123L25.0811 17.1024C25.0893 17.1024 25.0977 17.0993 25.1036 17.0936C25.1093 17.0879 25.1125 17.0805 25.1126 17.0726V17.0549C25.1119 16.6549 25.0279 16.2585 24.8659 15.8892C24.7038 15.52 24.4671 15.1845 24.1685 14.9022C23.8698 14.6199 23.515 14.3966 23.1252 14.2443C22.7352 14.0919 22.3166 14.0137 21.8949 14.0146H21.8363Z"/>
<path d="M53.6193 7.3998C53.6941 7.3998 53.7318 7.43587 53.7319 7.50909L53.7094 10.9777C53.7095 11.0273 53.7353 11.0517 53.786 11.0517L56.4934 11.0417C56.5279 11.0419 56.5612 11.0554 56.5858 11.0793C56.6104 11.1034 56.6241 11.1367 56.6241 11.1709V14.1405C56.624 14.1969 56.5949 14.2255 56.5373 14.2255H53.8085C53.7948 14.2255 53.7807 14.228 53.768 14.2332C53.7554 14.2384 53.7438 14.2458 53.7342 14.2553C53.7245 14.2649 53.7168 14.277 53.7117 14.2895C53.7067 14.3018 53.7047 14.315 53.7049 14.3282C53.7291 16.7667 53.7356 19.2055 53.724 21.644C53.7171 23.1601 54.9304 23.2605 56.1385 22.9654C56.197 22.951 56.2328 22.9731 56.2455 23.0317L56.8911 26.0013C56.9014 26.0487 56.882 26.0804 56.8336 26.0962C53.6819 27.0764 49.3954 26.3959 49.3954 22.2479C49.3966 19.6038 49.3976 16.9591 49.3999 14.3138C49.3999 14.255 49.3698 14.2255 49.3098 14.2255H47.3652C47.3076 14.2255 47.2785 14.1969 47.2784 14.1405V11.1289C47.2784 11.1177 47.2809 11.1062 47.2852 11.0958C47.2896 11.0853 47.2962 11.0751 47.3044 11.0671C47.3125 11.0592 47.322 11.0527 47.3325 11.0483C47.3432 11.044 47.3548 11.0418 47.3663 11.0417L49.3278 11.0517C49.3783 11.0516 49.4033 11.0272 49.4033 10.9777L49.3966 7.50578C49.3955 7.43476 49.4321 7.3998 49.5058 7.3998H53.6193Z"/>
<path d="M38.4184 7.23973C38.4692 7.19005 38.5198 7.19001 38.5705 7.23973L45.7473 14.2719C45.7911 14.3159 45.8137 14.3688 45.8138 14.4297L45.7631 26.179C45.7631 26.2411 45.7317 26.2728 45.6684 26.274L41.6395 26.3126C41.5461 26.3137 41.4987 26.2695 41.4987 26.1801L41.4818 16.1144C41.4818 16.058 41.4612 16.0093 41.421 15.9686L38.5266 13.1348C38.5199 13.1279 38.5119 13.122 38.5029 13.1182C38.494 13.1146 38.4845 13.1127 38.4747 13.1127C38.4651 13.1127 38.4556 13.1146 38.4466 13.1182C38.4374 13.122 38.4288 13.1279 38.4218 13.1348L35.4745 16.0238C35.4555 16.0425 35.4401 16.0652 35.4305 16.0901C35.421 16.1149 35.4165 16.1418 35.4181 16.1684C35.4995 17.3097 35.4036 18.5919 35.4226 19.5653C35.4676 21.7607 35.4579 23.9634 35.3945 26.1735C35.3933 26.2368 35.361 26.2685 35.2976 26.2673C33.9591 26.2617 32.6206 26.2627 31.2822 26.2718C31.2153 26.2729 31.1819 26.2412 31.1819 26.1757V14.4143C31.182 14.3591 31.2025 14.3114 31.2427 14.2708L38.4184 7.23973Z"/>
<path d="M62.0286 6C62.0535 6 62.0737 6.01981 62.0737 6.04416V26.2221C62.0734 26.2462 62.0533 26.2651 62.0286 26.2651H57.8363C57.8119 26.2649 57.7927 26.246 57.7924 26.2221V6.04416C57.7924 6.01997 57.8117 6.00026 57.8363 6H62.0286Z"/>
</mask>
<path d="M77.9438 11.0572C77.9585 11.0648 77.9714 11.0758 77.981 11.0892C77.9905 11.1026 77.9967 11.1183 77.999 11.1345C78.0012 11.1504 77.9998 11.1667 77.9945 11.1819C76.0757 16.5464 74.1507 21.9182 72.2192 27.2962C71.7969 28.4681 71.3841 29.51 70.536 30.363C68.7464 32.1637 65.9147 32.3231 63.58 31.5906C63.5263 31.5736 63.5078 31.5385 63.5248 31.4857L64.4509 28.5095C64.4694 28.4529 64.5082 28.4318 64.5659 28.4465C66.407 28.9161 67.2532 28.6242 67.8658 26.7928C67.8804 26.7477 67.8792 26.6998 67.8636 26.6559L62.3678 11.172C62.3459 11.1121 62.3673 11.0815 62.4331 11.0804L66.7335 11.0572C66.8062 11.056 66.8525 11.0898 66.8721 11.1587L70.0516 22.1839C70.0573 22.2042 70.0705 22.2218 70.0876 22.2346C70.1048 22.2474 70.1257 22.2545 70.1473 22.2545C70.1689 22.2544 70.1899 22.2475 70.207 22.2346C70.224 22.2218 70.2363 22.2041 70.242 22.1839L73.4563 11.1311C73.4736 11.0739 73.5127 11.0452 73.5735 11.045H77.8953C77.9121 11.0452 77.929 11.0495 77.9438 11.0572Z" fill="#1A1A1A"/>
<path fill-rule="evenodd" clip-rule="evenodd" d="M15.4898 14.2078C17.4801 10.9434 21.8795 9.99165 25.3098 11.6058C28.4632 13.0897 29.3457 16.4225 29.119 19.6735C29.1167 19.7142 29.0952 19.7342 29.0536 19.7342L18.6794 19.7452C18.6299 19.7453 18.604 19.7695 18.6017 19.8181C18.5187 21.6257 19.5507 23.0281 21.3575 23.3706C22.7834 23.6417 24.3967 23.1672 25.0405 21.7632C25.0693 21.7023 25.1178 21.6738 25.187 21.6782L28.9308 21.9244C28.9486 21.9258 28.9661 21.9302 28.9815 21.9388C28.997 21.9475 29.0107 21.9598 29.021 21.9741C29.0312 21.9885 29.0383 22.0054 29.0413 22.0227C29.0442 22.0399 29.0427 22.0577 29.0379 22.0746C28.4102 24.1503 27.0373 25.5135 24.9188 26.1625C20.7322 27.4444 16.0247 25.9767 14.6989 21.559C14.0229 19.3003 14.1735 17.0386 15.1518 14.7742C15.1807 14.7075 15.1591 14.6685 15.0865 14.656C12.0992 14.1168 10.3042 15.2426 10.2903 18.2494C10.2776 20.8937 10.2776 23.538 10.2903 26.1823C10.2903 26.2389 10.2612 26.2673 10.2036 26.2673L6.08337 26.2685C6.02814 26.2685 6.00016 26.2418 6 26.1879V11.13C6 11.1076 6.00857 11.0852 6.02479 11.0693C6.04102 11.0534 6.0638 11.045 6.08675 11.045H10.0605C10.1135 11.0451 10.1404 11.0714 10.1416 11.1234L10.1833 13.6989C10.1841 13.7143 10.1898 13.7294 10.2002 13.7409C10.2106 13.7524 10.2252 13.7604 10.2407 13.7629C10.2561 13.7655 10.2721 13.7626 10.2858 13.7552C10.2995 13.7477 10.3103 13.7353 10.3162 13.721C11.1274 11.4293 12.7962 10.5131 15.322 10.9733C15.3646 10.9812 15.3862 11.0065 15.3862 11.0483L15.3963 14.1824C15.3962 14.1932 15.3999 14.2036 15.4065 14.2123C15.4131 14.2209 15.4228 14.227 15.4335 14.2299C15.4439 14.2327 15.455 14.2327 15.465 14.2288C15.4753 14.2248 15.4842 14.2172 15.4898 14.2078ZM21.8363 14.0146C20.9852 14.0165 20.1701 14.3391 19.5695 14.9111C18.9688 15.483 18.632 16.2575 18.6332 17.0649V17.0825C18.6333 17.0905 18.6365 17.0978 18.6422 17.1035C18.648 17.1091 18.6555 17.1122 18.6636 17.1123L25.0811 17.1024C25.0893 17.1024 25.0977 17.0993 25.1036 17.0936C25.1093 17.0879 25.1125 17.0805 25.1126 17.0726V17.0549C25.1119 16.6549 25.0279 16.2585 24.8659 15.8892C24.7038 15.52 24.4671 15.1845 24.1685 14.9022C23.8698 14.6199 23.515 14.3966 23.1252 14.2443C22.7352 14.0919 22.3166 14.0137 21.8949 14.0146H21.8363Z" fill="#1A1A1A"/>
<path d="M53.6193 7.3998C53.6941 7.3998 53.7318 7.43587 53.7319 7.50909L53.7094 10.9777C53.7095 11.0273 53.7353 11.0517 53.786 11.0517L56.4934 11.0417C56.5279 11.0419 56.5612 11.0554 56.5858 11.0793C56.6104 11.1034 56.6241 11.1367 56.6241 11.1709V14.1405C56.624 14.1969 56.5949 14.2255 56.5373 14.2255H53.8085C53.7948 14.2255 53.7807 14.228 53.768 14.2332C53.7554 14.2384 53.7438 14.2458 53.7342 14.2553C53.7245 14.2649 53.7168 14.277 53.7117 14.2895C53.7067 14.3018 53.7047 14.315 53.7049 14.3282C53.7291 16.7667 53.7356 19.2055 53.724 21.644C53.7171 23.1601 54.9304 23.2605 56.1385 22.9654C56.197 22.951 56.2328 22.9731 56.2455 23.0317L56.8911 26.0013C56.9014 26.0487 56.882 26.0804 56.8336 26.0962C53.6819 27.0764 49.3954 26.3959 49.3954 22.2479C49.3966 19.6038 49.3976 16.9591 49.3999 14.3138C49.3999 14.255 49.3698 14.2255 49.3098 14.2255H47.3652C47.3076 14.2255 47.2785 14.1969 47.2784 14.1405V11.1289C47.2784 11.1177 47.2809 11.1062 47.2852 11.0958C47.2896 11.0853 47.2962 11.0751 47.3044 11.0671C47.3125 11.0592 47.322 11.0527 47.3325 11.0483C47.3432 11.044 47.3548 11.0418 47.3663 11.0417L49.3278 11.0517C49.3783 11.0516 49.4033 11.0272 49.4033 10.9777L49.3966 7.50578C49.3955 7.43476 49.4321 7.3998 49.5058 7.3998H53.6193Z" fill="#1A1A1A"/>
<path d="M38.4184 7.23973C38.4692 7.19005 38.5198 7.19001 38.5705 7.23973L45.7473 14.2719C45.7911 14.3159 45.8137 14.3688 45.8138 14.4297L45.7631 26.179C45.7631 26.2411 45.7317 26.2728 45.6684 26.274L41.6395 26.3126C41.5461 26.3137 41.4987 26.2695 41.4987 26.1801L41.4818 16.1144C41.4818 16.058 41.4612 16.0093 41.421 15.9686L38.5266 13.1348C38.5199 13.1279 38.5119 13.122 38.5029 13.1182C38.494 13.1146 38.4845 13.1127 38.4747 13.1127C38.4651 13.1127 38.4556 13.1146 38.4466 13.1182C38.4374 13.122 38.4288 13.1279 38.4218 13.1348L35.4745 16.0238C35.4555 16.0425 35.4401 16.0652 35.4305 16.0901C35.421 16.1149 35.4165 16.1418 35.4181 16.1684C35.4995 17.3097 35.4036 18.5919 35.4226 19.5653C35.4676 21.7607 35.4579 23.9634 35.3945 26.1735C35.3933 26.2368 35.361 26.2685 35.2976 26.2673C33.9591 26.2617 32.6206 26.2627 31.2822 26.2718C31.2153 26.2729 31.1819 26.2412 31.1819 26.1757V14.4143C31.182 14.3591 31.2025 14.3114 31.2427 14.2708L38.4184 7.23973Z" fill="#1A1A1A"/>
<path d="M62.0286 6C62.0535 6 62.0737 6.01981 62.0737 6.04416V26.2221C62.0734 26.2462 62.0533 26.2651 62.0286 26.2651H57.8363C57.8119 26.2649 57.7927 26.246 57.7924 26.2221V6.04416C57.7924 6.01997 57.8117 6.00026 57.8363 6H62.0286Z" fill="#1A1A1A"/>
<path d="M77.9438 11.0572C77.9585 11.0648 77.9714 11.0758 77.981 11.0892C77.9905 11.1026 77.9967 11.1183 77.999 11.1345C78.0012 11.1504 77.9998 11.1667 77.9945 11.1819C76.0757 16.5464 74.1507 21.9182 72.2192 27.2962C71.7969 28.4681 71.3841 29.51 70.536 30.363C68.7464 32.1637 65.9147 32.3231 63.58 31.5906C63.5263 31.5736 63.5078 31.5385 63.5248 31.4857L64.4509 28.5095C64.4694 28.4529 64.5082 28.4318 64.5659 28.4465C66.407 28.9161 67.2532 28.6242 67.8658 26.7928C67.8804 26.7477 67.8792 26.6998 67.8636 26.6559L62.3678 11.172C62.3459 11.1121 62.3673 11.0815 62.4331 11.0804L66.7335 11.0572C66.8062 11.056 66.8525 11.0898 66.8721 11.1587L70.0516 22.1839C70.0573 22.2042 70.0705 22.2218 70.0876 22.2346C70.1048 22.2474 70.1257 22.2545 70.1473 22.2545C70.1689 22.2544 70.1899 22.2475 70.207 22.2346C70.224 22.2218 70.2363 22.2041 70.242 22.1839L73.4563 11.1311C73.4736 11.0739 73.5127 11.0452 73.5735 11.045H77.8953C77.9121 11.0452 77.929 11.0495 77.9438 11.0572Z" stroke="#86C9FF" stroke-width="12" stroke-miterlimit="2.85545" stroke-linejoin="round" mask="url(#path-1-outside-1_1153_267)"/>
<path fill-rule="evenodd" clip-rule="evenodd" d="M15.4898 14.2078C17.4801 10.9434 21.8795 9.99165 25.3098 11.6058C28.4632 13.0897 29.3457 16.4225 29.119 19.6735C29.1167 19.7142 29.0952 19.7342 29.0536 19.7342L18.6794 19.7452C18.6299 19.7453 18.604 19.7695 18.6017 19.8181C18.5187 21.6257 19.5507 23.0281 21.3575 23.3706C22.7834 23.6417 24.3967 23.1672 25.0405 21.7632C25.0693 21.7023 25.1178 21.6738 25.187 21.6782L28.9308 21.9244C28.9486 21.9258 28.9661 21.9302 28.9815 21.9388C28.997 21.9475 29.0107 21.9598 29.021 21.9741C29.0312 21.9885 29.0383 22.0054 29.0413 22.0227C29.0442 22.0399 29.0427 22.0577 29.0379 22.0746C28.4102 24.1503 27.0373 25.5135 24.9188 26.1625C20.7322 27.4444 16.0247 25.9767 14.6989 21.559C14.0229 19.3003 14.1735 17.0386 15.1518 14.7742C15.1807 14.7075 15.1591 14.6685 15.0865 14.656C12.0992 14.1168 10.3042 15.2426 10.2903 18.2494C10.2776 20.8937 10.2776 23.538 10.2903 26.1823C10.2903 26.2389 10.2612 26.2673 10.2036 26.2673L6.08337 26.2685C6.02814 26.2685 6.00016 26.2418 6 26.1879V11.13C6 11.1076 6.00857 11.0852 6.02479 11.0693C6.04102 11.0534 6.0638 11.045 6.08675 11.045H10.0605C10.1135 11.0451 10.1404 11.0714 10.1416 11.1234L10.1833 13.6989C10.1841 13.7143 10.1898 13.7294 10.2002 13.7409C10.2106 13.7524 10.2252 13.7604 10.2407 13.7629C10.2561 13.7655 10.2721 13.7626 10.2858 13.7552C10.2995 13.7477 10.3103 13.7353 10.3162 13.721C11.1274 11.4293 12.7962 10.5131 15.322 10.9733C15.3646 10.9812 15.3862 11.0065 15.3862 11.0483L15.3963 14.1824C15.3962 14.1932 15.3999 14.2036 15.4065 14.2123C15.4131 14.2209 15.4228 14.227 15.4335 14.2299C15.4439 14.2327 15.455 14.2327 15.465 14.2288C15.4753 14.2248 15.4842 14.2172 15.4898 14.2078ZM21.8363 14.0146C20.9852 14.0165 20.1701 14.3391 19.5695 14.9111C18.9688 15.483 18.632 16.2575 18.6332 17.0649V17.0825C18.6333 17.0905 18.6365 17.0978 18.6422 17.1035C18.648 17.1091 18.6555 17.1122 18.6636 17.1123L25.0811 17.1024C25.0893 17.1024 25.0977 17.0993 25.1036 17.0936C25.1093 17.0879 25.1125 17.0805 25.1126 17.0726V17.0549C25.1119 16.6549 25.0279 16.2585 24.8659 15.8892C24.7038 15.52 24.4671 15.1845 24.1685 14.9022C23.8698 14.6199 23.515 14.3966 23.1252 14.2443C22.7352 14.0919 22.3166 14.0137 21.8949 14.0146H21.8363Z" stroke="#86C9FF" stroke-width="12" stroke-miterlimit="2.85545" stroke-linejoin="round" mask="url(#path-1-outside-1_1153_267)"/>
<path d="M53.6193 7.3998C53.6941 7.3998 53.7318 7.43587 53.7319 7.50909L53.7094 10.9777C53.7095 11.0273 53.7353 11.0517 53.786 11.0517L56.4934 11.0417C56.5279 11.0419 56.5612 11.0554 56.5858 11.0793C56.6104 11.1034 56.6241 11.1367 56.6241 11.1709V14.1405C56.624 14.1969 56.5949 14.2255 56.5373 14.2255H53.8085C53.7948 14.2255 53.7807 14.228 53.768 14.2332C53.7554 14.2384 53.7438 14.2458 53.7342 14.2553C53.7245 14.2649 53.7168 14.277 53.7117 14.2895C53.7067 14.3018 53.7047 14.315 53.7049 14.3282C53.7291 16.7667 53.7356 19.2055 53.724 21.644C53.7171 23.1601 54.9304 23.2605 56.1385 22.9654C56.197 22.951 56.2328 22.9731 56.2455 23.0317L56.8911 26.0013C56.9014 26.0487 56.882 26.0804 56.8336 26.0962C53.6819 27.0764 49.3954 26.3959 49.3954 22.2479C49.3966 19.6038 49.3976 16.9591 49.3999 14.3138C49.3999 14.255 49.3698 14.2255 49.3098 14.2255H47.3652C47.3076 14.2255 47.2785 14.1969 47.2784 14.1405V11.1289C47.2784 11.1177 47.2809 11.1062 47.2852 11.0958C47.2896 11.0853 47.2962 11.0751 47.3044 11.0671C47.3125 11.0592 47.322 11.0527 47.3325 11.0483C47.3432 11.044 47.3548 11.0418 47.3663 11.0417L49.3278 11.0517C49.3783 11.0516 49.4033 11.0272 49.4033 10.9777L49.3966 7.50578C49.3955 7.43476 49.4321 7.3998 49.5058 7.3998H53.6193Z" stroke="#86C9FF" stroke-width="12" stroke-miterlimit="2.85545" stroke-linejoin="round" mask="url(#path-1-outside-1_1153_267)"/>
<path d="M38.4184 7.23973C38.4692 7.19005 38.5198 7.19001 38.5705 7.23973L45.7473 14.2719C45.7911 14.3159 45.8137 14.3688 45.8138 14.4297L45.7631 26.179C45.7631 26.2411 45.7317 26.2728 45.6684 26.274L41.6395 26.3126C41.5461 26.3137 41.4987 26.2695 41.4987 26.1801L41.4818 16.1144C41.4818 16.058 41.4612 16.0093 41.421 15.9686L38.5266 13.1348C38.5199 13.1279 38.5119 13.122 38.5029 13.1182C38.494 13.1146 38.4845 13.1127 38.4747 13.1127C38.4651 13.1127 38.4556 13.1146 38.4466 13.1182C38.4374 13.122 38.4288 13.1279 38.4218 13.1348L35.4745 16.0238C35.4555 16.0425 35.4401 16.0652 35.4305 16.0901C35.421 16.1149 35.4165 16.1418 35.4181 16.1684C35.4995 17.3097 35.4036 18.5919 35.4226 19.5653C35.4676 21.7607 35.4579 23.9634 35.3945 26.1735C35.3933 26.2368 35.361 26.2685 35.2976 26.2673C33.9591 26.2617 32.6206 26.2627 31.2822 26.2718C31.2153 26.2729 31.1819 26.2412 31.1819 26.1757V14.4143C31.182 14.3591 31.2025 14.3114 31.2427 14.2708L38.4184 7.23973Z" stroke="#86C9FF" stroke-width="12" stroke-miterlimit="2.85545" stroke-linejoin="round" mask="url(#path-1-outside-1_1153_267)"/>
<path d="M62.0286 6C62.0535 6 62.0737 6.01981 62.0737 6.04416V26.2221C62.0734 26.2462 62.0533 26.2651 62.0286 26.2651H57.8363C57.8119 26.2649 57.7927 26.246 57.7924 26.2221V6.04416C57.7924 6.01997 57.8117 6.00026 57.8363 6H62.0286Z" stroke="#86C9FF" stroke-width="12" stroke-miterlimit="2.85545" stroke-linejoin="round" mask="url(#path-1-outside-1_1153_267)"/>
</svg>
