<svg width="72" height="34" viewBox="0 0 72 34" fill="none" xmlns="http://www.w3.org/2000/svg">
<mask id="path-1-outside-1_1153_267" maskUnits="userSpaceOnUse" x="0" y="0" width="72" height="34" fill="black">
<rect fill="white" width="72" height="34"/>
<path d="M65.9531 10.2792C65.9654 10.2856 65.9761 10.2949 65.9841 10.3062C65.9921 10.3176 65.9972 10.3309 65.9992 10.3445C66.001 10.358 65.9998 10.3718 65.9954 10.3847C64.3964 14.9239 62.7923 19.4693 61.1827 24.0199C60.8308 25.0114 60.4867 25.8931 59.78 26.6148C58.2887 28.1385 55.9289 28.2734 53.9834 27.6536C53.9385 27.6392 53.9232 27.6095 53.9374 27.5648L54.7091 25.0465C54.7245 24.9986 54.7568 24.9808 54.8049 24.9932C56.3392 25.3905 57.0443 25.1435 57.5549 23.5939C57.567 23.5557 57.566 23.5152 57.553 23.4781L52.9731 10.3763C52.9549 10.3256 52.9728 10.2997 53.0276 10.2988L56.6113 10.2792C56.6719 10.2782 56.7104 10.3067 56.7268 10.3651L59.3763 19.694C59.3811 19.7113 59.3921 19.7261 59.4063 19.737C59.4206 19.7478 59.4381 19.7538 59.4561 19.7538C59.474 19.7538 59.4916 19.7478 59.5059 19.737C59.52 19.7262 59.5302 19.7111 59.535 19.694L62.2136 10.3417C62.228 10.2933 62.2606 10.269 62.3112 10.2689H65.9128C65.9267 10.269 65.9408 10.2727 65.9531 10.2792Z"/>
<path fill-rule="evenodd" clip-rule="evenodd" d="M13.9082 12.9451C15.5668 10.1829 19.2329 9.37755 22.0915 10.7434C24.7193 11.999 25.4548 14.8191 25.2658 17.5699C25.2639 17.6043 25.246 17.6212 25.2114 17.6212L16.5662 17.6306C16.5249 17.6306 16.5033 17.6511 16.5014 17.6922C16.4323 19.2218 17.2922 20.4084 18.7979 20.6982C19.9862 20.9276 21.3306 20.5261 21.8671 19.3381C21.8911 19.2865 21.9315 19.2624 21.9891 19.2662L25.109 19.4745C25.1238 19.4756 25.1384 19.4794 25.1513 19.4867C25.1642 19.494 25.1756 19.5044 25.1841 19.5165C25.1927 19.5287 25.1986 19.543 25.201 19.5576C25.2035 19.5723 25.2023 19.5873 25.1982 19.6016C24.6752 21.358 23.5311 22.5114 21.7657 23.0606C18.2768 24.1453 14.3539 22.9033 13.2491 19.1653C12.6857 17.2541 12.8112 15.3403 13.6265 13.4243C13.6506 13.3679 13.6326 13.3349 13.5721 13.3243C11.0827 12.868 9.5868 13.8207 9.57526 16.3649C9.56468 18.6024 9.56468 20.8399 9.57526 23.0774C9.57525 23.1252 9.55103 23.1493 9.50296 23.1493L6.06948 23.1502C6.02345 23.1502 6.00013 23.1277 6 23.082V10.3408C6 10.3218 6.00714 10.3029 6.02066 10.2894C6.03418 10.276 6.05317 10.2689 6.07229 10.2689H9.38373C9.42789 10.2689 9.45036 10.2912 9.45132 10.3352L9.48606 12.5145C9.48674 12.5275 9.49147 12.5402 9.50015 12.55C9.50887 12.5597 9.52101 12.5665 9.53395 12.5687C9.54676 12.5708 9.56012 12.5683 9.5715 12.5621C9.58295 12.5558 9.59191 12.5452 9.59685 12.5332C10.2728 10.594 11.6635 9.8188 13.7683 10.2082C13.8039 10.2149 13.8218 10.2363 13.8218 10.2717L13.8303 12.9236C13.8302 12.9327 13.8332 12.9415 13.8387 12.9488C13.8443 12.9562 13.8524 12.9613 13.8612 12.9638C13.8699 12.9661 13.8792 12.9661 13.8875 12.9628C13.8961 12.9594 13.9035 12.953 13.9082 12.9451ZM19.1969 12.7816C18.4877 12.7832 17.8085 13.0561 17.3079 13.5401C16.8074 14.0241 16.5267 14.6795 16.5277 15.3626V15.3775C16.5277 15.3843 16.5304 15.3905 16.5352 15.3953C16.54 15.4 16.5462 15.4027 16.553 15.4027L21.9009 15.3943C21.9078 15.3943 21.9148 15.3917 21.9197 15.3869C21.9244 15.3821 21.9271 15.3758 21.9272 15.3691V15.3542C21.9266 15.0157 21.8566 14.6802 21.7216 14.3677C21.5865 14.0554 21.3892 13.7715 21.1404 13.5327C20.8915 13.2938 20.5958 13.1048 20.271 12.9759C19.946 12.847 19.5972 12.7809 19.2457 12.7816H19.1969Z"/>
<path d="M45.6827 7.18445C45.7451 7.18445 45.7765 7.21496 45.7766 7.27693L45.7578 10.2119C45.7579 10.2539 45.7794 10.2745 45.8217 10.2745L48.0778 10.2661C48.1066 10.2662 48.1344 10.2776 48.1548 10.2978C48.1753 10.3183 48.1867 10.3464 48.1867 10.3754V12.8881C48.1867 12.9359 48.1624 12.96 48.1144 12.96H45.8405C45.829 12.96 45.8172 12.9622 45.8067 12.9666C45.7962 12.971 45.7865 12.9772 45.7785 12.9853C45.7704 12.9934 45.764 13.0036 45.7597 13.0142C45.7556 13.0246 45.7539 13.0357 45.7541 13.0469C45.7743 15.1102 45.7796 17.1739 45.77 19.2373C45.7643 20.5201 46.7753 20.6051 47.7821 20.3554C47.8309 20.3431 47.8607 20.3618 47.8713 20.4114L48.4092 22.9242C48.4178 22.9643 48.4017 22.9911 48.3613 23.0045C45.7349 23.8338 42.1629 23.2581 42.1629 19.7482C42.1638 17.5109 42.1647 15.2731 42.1666 13.0348C42.1666 12.985 42.1415 12.96 42.0915 12.96H40.471C40.423 12.96 40.3987 12.9359 40.3987 12.8881V10.3399C40.3987 10.3304 40.4007 10.3206 40.4043 10.3118C40.408 10.303 40.4135 10.2944 40.4203 10.2876C40.4271 10.2809 40.435 10.2753 40.4438 10.2717C40.4526 10.268 40.4623 10.2661 40.4719 10.2661L42.1065 10.2745C42.1486 10.2744 42.1694 10.2538 42.1694 10.2119L42.1638 7.27412C42.1629 7.21403 42.1934 7.18445 42.2549 7.18445H45.6827Z"/>
<path d="M33.0153 7.049C33.0576 7.00697 33.0998 7.00693 33.1421 7.049L39.1228 12.9993C39.1592 13.0365 39.1781 13.0813 39.1782 13.1329L39.1359 23.0746C39.1359 23.1271 39.1098 23.1539 39.057 23.1549L35.6996 23.1876C35.6217 23.1886 35.5822 23.1511 35.5822 23.0755L35.5682 14.5583C35.5682 14.5106 35.551 14.4694 35.5175 14.435L33.1055 12.0371C33.0999 12.0313 33.0932 12.0263 33.0858 12.0231C33.0784 12.02 33.0704 12.0185 33.0623 12.0185C33.0542 12.0185 33.0463 12.0201 33.0388 12.0231C33.0312 12.0263 33.024 12.0313 33.0182 12.0371L30.5621 14.4817C30.5462 14.4975 30.5334 14.5167 30.5254 14.5378C30.5175 14.5588 30.5138 14.5815 30.5151 14.6041C30.5829 15.5698 30.503 16.6547 30.5189 17.4783C30.5564 19.336 30.5483 21.1998 30.4954 23.0699C30.4944 23.1234 30.4675 23.1502 30.4146 23.1493C29.2993 23.1445 28.1838 23.1454 27.0685 23.153C27.0127 23.154 26.985 23.1272 26.9849 23.0718V13.1198C26.985 13.0731 27.0021 13.0327 27.0356 12.9983L33.0153 7.049Z"/>
<path d="M52.6905 6C52.7112 6 52.7281 6.01676 52.7281 6.03736V23.111C52.7278 23.1314 52.7111 23.1474 52.6905 23.1474H49.1969C49.1766 23.1472 49.1606 23.1312 49.1603 23.111V6.03736C49.1603 6.0169 49.1764 6.00022 49.1969 6H52.6905Z"/>
</mask>
<path d="M65.9531 10.2792C65.9654 10.2856 65.9761 10.2949 65.9841 10.3062C65.9921 10.3176 65.9972 10.3309 65.9992 10.3445C66.001 10.358 65.9998 10.3718 65.9954 10.3847C64.3964 14.9239 62.7923 19.4693 61.1827 24.0199C60.8308 25.0114 60.4867 25.8931 59.78 26.6148C58.2887 28.1385 55.9289 28.2734 53.9834 27.6536C53.9385 27.6392 53.9232 27.6095 53.9374 27.5648L54.7091 25.0465C54.7245 24.9986 54.7568 24.9808 54.8049 24.9932C56.3392 25.3905 57.0443 25.1435 57.5549 23.5939C57.567 23.5557 57.566 23.5152 57.553 23.4781L52.9731 10.3763C52.9549 10.3256 52.9728 10.2997 53.0276 10.2988L56.6113 10.2792C56.6719 10.2782 56.7104 10.3067 56.7268 10.3651L59.3763 19.694C59.3811 19.7113 59.3921 19.7261 59.4063 19.737C59.4206 19.7478 59.4381 19.7538 59.4561 19.7538C59.474 19.7538 59.4916 19.7478 59.5059 19.737C59.52 19.7262 59.5302 19.7111 59.535 19.694L62.2136 10.3417C62.228 10.2933 62.2606 10.269 62.3112 10.2689H65.9128C65.9267 10.269 65.9408 10.2727 65.9531 10.2792Z" fill="#1A1A1A"/>
<path fill-rule="evenodd" clip-rule="evenodd" d="M13.9082 12.9451C15.5668 10.1829 19.2329 9.37755 22.0915 10.7434C24.7193 11.999 25.4548 14.8191 25.2658 17.5699C25.2639 17.6043 25.246 17.6212 25.2114 17.6212L16.5662 17.6306C16.5249 17.6306 16.5033 17.6511 16.5014 17.6922C16.4323 19.2218 17.2922 20.4084 18.7979 20.6982C19.9862 20.9276 21.3306 20.5261 21.8671 19.3381C21.8911 19.2865 21.9315 19.2624 21.9891 19.2662L25.109 19.4745C25.1238 19.4756 25.1384 19.4794 25.1513 19.4867C25.1642 19.494 25.1756 19.5044 25.1841 19.5165C25.1927 19.5287 25.1986 19.543 25.201 19.5576C25.2035 19.5723 25.2023 19.5873 25.1982 19.6016C24.6752 21.358 23.5311 22.5114 21.7657 23.0606C18.2768 24.1453 14.3539 22.9033 13.2491 19.1653C12.6857 17.2541 12.8112 15.3403 13.6265 13.4243C13.6506 13.3679 13.6326 13.3349 13.5721 13.3243C11.0827 12.868 9.5868 13.8207 9.57526 16.3649C9.56468 18.6024 9.56468 20.8399 9.57526 23.0774C9.57525 23.1252 9.55103 23.1493 9.50296 23.1493L6.06948 23.1502C6.02345 23.1502 6.00013 23.1277 6 23.082V10.3408C6 10.3218 6.00714 10.3029 6.02066 10.2894C6.03418 10.276 6.05317 10.2689 6.07229 10.2689H9.38373C9.42789 10.2689 9.45036 10.2912 9.45132 10.3352L9.48606 12.5145C9.48674 12.5275 9.49147 12.5402 9.50015 12.55C9.50887 12.5597 9.52101 12.5665 9.53395 12.5687C9.54676 12.5708 9.56012 12.5683 9.5715 12.5621C9.58295 12.5558 9.59191 12.5452 9.59685 12.5332C10.2728 10.594 11.6635 9.8188 13.7683 10.2082C13.8039 10.2149 13.8218 10.2363 13.8218 10.2717L13.8303 12.9236C13.8302 12.9327 13.8332 12.9415 13.8387 12.9488C13.8443 12.9562 13.8524 12.9613 13.8612 12.9638C13.8699 12.9661 13.8792 12.9661 13.8875 12.9628C13.8961 12.9594 13.9035 12.953 13.9082 12.9451ZM19.1969 12.7816C18.4877 12.7832 17.8085 13.0561 17.3079 13.5401C16.8074 14.0241 16.5267 14.6795 16.5277 15.3626V15.3775C16.5277 15.3843 16.5304 15.3905 16.5352 15.3953C16.54 15.4 16.5462 15.4027 16.553 15.4027L21.9009 15.3943C21.9078 15.3943 21.9148 15.3917 21.9197 15.3869C21.9244 15.3821 21.9271 15.3758 21.9272 15.3691V15.3542C21.9266 15.0157 21.8566 14.6802 21.7216 14.3677C21.5865 14.0554 21.3892 13.7715 21.1404 13.5327C20.8915 13.2938 20.5958 13.1048 20.271 12.9759C19.946 12.847 19.5972 12.7809 19.2457 12.7816H19.1969Z" fill="#1A1A1A"/>
<path d="M45.6827 7.18445C45.7451 7.18445 45.7765 7.21496 45.7766 7.27693L45.7578 10.2119C45.7579 10.2539 45.7794 10.2745 45.8217 10.2745L48.0778 10.2661C48.1066 10.2662 48.1344 10.2776 48.1548 10.2978C48.1753 10.3183 48.1867 10.3464 48.1867 10.3754V12.8881C48.1867 12.9359 48.1624 12.96 48.1144 12.96H45.8405C45.829 12.96 45.8172 12.9622 45.8067 12.9666C45.7962 12.971 45.7865 12.9772 45.7785 12.9853C45.7704 12.9934 45.764 13.0036 45.7597 13.0142C45.7556 13.0246 45.7539 13.0357 45.7541 13.0469C45.7743 15.1102 45.7796 17.1739 45.77 19.2373C45.7643 20.5201 46.7753 20.6051 47.7821 20.3554C47.8309 20.3431 47.8607 20.3618 47.8713 20.4114L48.4092 22.9242C48.4178 22.9643 48.4017 22.9911 48.3613 23.0045C45.7349 23.8338 42.1629 23.2581 42.1629 19.7482C42.1638 17.5109 42.1647 15.2731 42.1666 13.0348C42.1666 12.985 42.1415 12.96 42.0915 12.96H40.471C40.423 12.96 40.3987 12.9359 40.3987 12.8881V10.3399C40.3987 10.3304 40.4007 10.3206 40.4043 10.3118C40.408 10.303 40.4135 10.2944 40.4203 10.2876C40.4271 10.2809 40.435 10.2753 40.4438 10.2717C40.4526 10.268 40.4623 10.2661 40.4719 10.2661L42.1065 10.2745C42.1486 10.2744 42.1694 10.2538 42.1694 10.2119L42.1638 7.27412C42.1629 7.21403 42.1934 7.18445 42.2549 7.18445H45.6827Z" fill="#1A1A1A"/>
<path d="M33.0153 7.049C33.0576 7.00697 33.0998 7.00693 33.1421 7.049L39.1228 12.9993C39.1592 13.0365 39.1781 13.0813 39.1782 13.1329L39.1359 23.0746C39.1359 23.1271 39.1098 23.1539 39.057 23.1549L35.6996 23.1876C35.6217 23.1886 35.5822 23.1511 35.5822 23.0755L35.5682 14.5583C35.5682 14.5106 35.551 14.4694 35.5175 14.435L33.1055 12.0371C33.0999 12.0313 33.0932 12.0263 33.0858 12.0231C33.0784 12.02 33.0704 12.0185 33.0623 12.0185C33.0542 12.0185 33.0463 12.0201 33.0388 12.0231C33.0312 12.0263 33.024 12.0313 33.0182 12.0371L30.5621 14.4817C30.5462 14.4975 30.5334 14.5167 30.5254 14.5378C30.5175 14.5588 30.5138 14.5815 30.5151 14.6041C30.5829 15.5698 30.503 16.6547 30.5189 17.4783C30.5564 19.336 30.5483 21.1998 30.4954 23.0699C30.4944 23.1234 30.4675 23.1502 30.4146 23.1493C29.2993 23.1445 28.1838 23.1454 27.0685 23.153C27.0127 23.154 26.985 23.1272 26.9849 23.0718V13.1198C26.985 13.0731 27.0021 13.0327 27.0356 12.9983L33.0153 7.049Z" fill="#1A1A1A"/>
<path d="M52.6905 6C52.7112 6 52.7281 6.01676 52.7281 6.03736V23.111C52.7278 23.1314 52.7111 23.1474 52.6905 23.1474H49.1969C49.1766 23.1472 49.1606 23.1312 49.1603 23.111V6.03736C49.1603 6.0169 49.1764 6.00022 49.1969 6H52.6905Z" fill="#1A1A1A"/>
<path d="M65.9531 10.2792C65.9654 10.2856 65.9761 10.2949 65.9841 10.3062C65.9921 10.3176 65.9972 10.3309 65.9992 10.3445C66.001 10.358 65.9998 10.3718 65.9954 10.3847C64.3964 14.9239 62.7923 19.4693 61.1827 24.0199C60.8308 25.0114 60.4867 25.8931 59.78 26.6148C58.2887 28.1385 55.9289 28.2734 53.9834 27.6536C53.9385 27.6392 53.9232 27.6095 53.9374 27.5648L54.7091 25.0465C54.7245 24.9986 54.7568 24.9808 54.8049 24.9932C56.3392 25.3905 57.0443 25.1435 57.5549 23.5939C57.567 23.5557 57.566 23.5152 57.553 23.4781L52.9731 10.3763C52.9549 10.3256 52.9728 10.2997 53.0276 10.2988L56.6113 10.2792C56.6719 10.2782 56.7104 10.3067 56.7268 10.3651L59.3763 19.694C59.3811 19.7113 59.3921 19.7261 59.4063 19.737C59.4206 19.7478 59.4381 19.7538 59.4561 19.7538C59.474 19.7538 59.4916 19.7478 59.5059 19.737C59.52 19.7262 59.5302 19.7111 59.535 19.694L62.2136 10.3417C62.228 10.2933 62.2606 10.269 62.3112 10.2689H65.9128C65.9267 10.269 65.9408 10.2727 65.9531 10.2792Z" stroke="#86C9FF" stroke-width="12" stroke-miterlimit="2.85545" stroke-linejoin="round" mask="url(#path-1-outside-1_1153_267)"/>
<path fill-rule="evenodd" clip-rule="evenodd" d="M13.9082 12.9451C15.5668 10.1829 19.2329 9.37755 22.0915 10.7434C24.7193 11.999 25.4548 14.8191 25.2658 17.5699C25.2639 17.6043 25.246 17.6212 25.2114 17.6212L16.5662 17.6306C16.5249 17.6306 16.5033 17.6511 16.5014 17.6922C16.4323 19.2218 17.2922 20.4084 18.7979 20.6982C19.9862 20.9276 21.3306 20.5261 21.8671 19.3381C21.8911 19.2865 21.9315 19.2624 21.9891 19.2662L25.109 19.4745C25.1238 19.4756 25.1384 19.4794 25.1513 19.4867C25.1642 19.494 25.1756 19.5044 25.1841 19.5165C25.1927 19.5287 25.1986 19.543 25.201 19.5576C25.2035 19.5723 25.2023 19.5873 25.1982 19.6016C24.6752 21.358 23.5311 22.5114 21.7657 23.0606C18.2768 24.1453 14.3539 22.9033 13.2491 19.1653C12.6857 17.2541 12.8112 15.3403 13.6265 13.4243C13.6506 13.3679 13.6326 13.3349 13.5721 13.3243C11.0827 12.868 9.5868 13.8207 9.57526 16.3649C9.56468 18.6024 9.56468 20.8399 9.57526 23.0774C9.57525 23.1252 9.55103 23.1493 9.50296 23.1493L6.06948 23.1502C6.02345 23.1502 6.00013 23.1277 6 23.082V10.3408C6 10.3218 6.00714 10.3029 6.02066 10.2894C6.03418 10.276 6.05317 10.2689 6.07229 10.2689H9.38373C9.42789 10.2689 9.45036 10.2912 9.45132 10.3352L9.48606 12.5145C9.48674 12.5275 9.49147 12.5402 9.50015 12.55C9.50887 12.5597 9.52101 12.5665 9.53395 12.5687C9.54676 12.5708 9.56012 12.5683 9.5715 12.5621C9.58295 12.5558 9.59191 12.5452 9.59685 12.5332C10.2728 10.594 11.6635 9.8188 13.7683 10.2082C13.8039 10.2149 13.8218 10.2363 13.8218 10.2717L13.8303 12.9236C13.8302 12.9327 13.8332 12.9415 13.8387 12.9488C13.8443 12.9562 13.8524 12.9613 13.8612 12.9638C13.8699 12.9661 13.8792 12.9661 13.8875 12.9628C13.8961 12.9594 13.9035 12.953 13.9082 12.9451ZM19.1969 12.7816C18.4877 12.7832 17.8085 13.0561 17.3079 13.5401C16.8074 14.0241 16.5267 14.6795 16.5277 15.3626V15.3775C16.5277 15.3843 16.5304 15.3905 16.5352 15.3953C16.54 15.4 16.5462 15.4027 16.553 15.4027L21.9009 15.3943C21.9078 15.3943 21.9148 15.3917 21.9197 15.3869C21.9244 15.3821 21.9271 15.3758 21.9272 15.3691V15.3542C21.9266 15.0157 21.8566 14.6802 21.7216 14.3677C21.5865 14.0554 21.3892 13.7715 21.1404 13.5327C20.8915 13.2938 20.5958 13.1048 20.271 12.9759C19.946 12.847 19.5972 12.7809 19.2457 12.7816H19.1969Z" stroke="#86C9FF" stroke-width="12" stroke-miterlimit="2.85545" stroke-linejoin="round" mask="url(#path-1-outside-1_1153_267)"/>
<path d="M45.6827 7.18445C45.7451 7.18445 45.7765 7.21496 45.7766 7.27693L45.7578 10.2119C45.7579 10.2539 45.7794 10.2745 45.8217 10.2745L48.0778 10.2661C48.1066 10.2662 48.1344 10.2776 48.1548 10.2978C48.1753 10.3183 48.1867 10.3464 48.1867 10.3754V12.8881C48.1867 12.9359 48.1624 12.96 48.1144 12.96H45.8405C45.829 12.96 45.8172 12.9622 45.8067 12.9666C45.7962 12.971 45.7865 12.9772 45.7785 12.9853C45.7704 12.9934 45.764 13.0036 45.7597 13.0142C45.7556 13.0246 45.7539 13.0357 45.7541 13.0469C45.7743 15.1102 45.7796 17.1739 45.77 19.2373C45.7643 20.5201 46.7753 20.6051 47.7821 20.3554C47.8309 20.3431 47.8607 20.3618 47.8713 20.4114L48.4092 22.9242C48.4178 22.9643 48.4017 22.9911 48.3613 23.0045C45.7349 23.8338 42.1629 23.2581 42.1629 19.7482C42.1638 17.5109 42.1647 15.2731 42.1666 13.0348C42.1666 12.985 42.1415 12.96 42.0915 12.96H40.471C40.423 12.96 40.3987 12.9359 40.3987 12.8881V10.3399C40.3987 10.3304 40.4007 10.3206 40.4043 10.3118C40.408 10.303 40.4135 10.2944 40.4203 10.2876C40.4271 10.2809 40.435 10.2753 40.4438 10.2717C40.4526 10.268 40.4623 10.2661 40.4719 10.2661L42.1065 10.2745C42.1486 10.2744 42.1694 10.2538 42.1694 10.2119L42.1638 7.27412C42.1629 7.21403 42.1934 7.18445 42.2549 7.18445H45.6827Z" stroke="#86C9FF" stroke-width="12" stroke-miterlimit="2.85545" stroke-linejoin="round" mask="url(#path-1-outside-1_1153_267)"/>
<path d="M33.0153 7.049C33.0576 7.00697 33.0998 7.00693 33.1421 7.049L39.1228 12.9993C39.1592 13.0365 39.1781 13.0813 39.1782 13.1329L39.1359 23.0746C39.1359 23.1271 39.1098 23.1539 39.057 23.1549L35.6996 23.1876C35.6217 23.1886 35.5822 23.1511 35.5822 23.0755L35.5682 14.5583C35.5682 14.5106 35.551 14.4694 35.5175 14.435L33.1055 12.0371C33.0999 12.0313 33.0932 12.0263 33.0858 12.0231C33.0784 12.02 33.0704 12.0185 33.0623 12.0185C33.0542 12.0185 33.0463 12.0201 33.0388 12.0231C33.0312 12.0263 33.024 12.0313 33.0182 12.0371L30.5621 14.4817C30.5462 14.4975 30.5334 14.5167 30.5254 14.5378C30.5175 14.5588 30.5138 14.5815 30.5151 14.6041C30.5829 15.5698 30.503 16.6547 30.5189 17.4783C30.5564 19.336 30.5483 21.1998 30.4954 23.0699C30.4944 23.1234 30.4675 23.1502 30.4146 23.1493C29.2993 23.1445 28.1838 23.1454 27.0685 23.153C27.0127 23.154 26.985 23.1272 26.9849 23.0718V13.1198C26.985 13.0731 27.0021 13.0327 27.0356 12.9983L33.0153 7.049Z" stroke="#86C9FF" stroke-width="12" stroke-miterlimit="2.85545" stroke-linejoin="round" mask="url(#path-1-outside-1_1153_267)"/>
<path d="M52.6905 6C52.7112 6 52.7281 6.01676 52.7281 6.03736V23.111C52.7278 23.1314 52.7111 23.1474 52.6905 23.1474H49.1969C49.1766 23.1472 49.1606 23.1312 49.1603 23.111V6.03736C49.1603 6.0169 49.1764 6.00022 49.1969 6H52.6905Z" stroke="#86C9FF" stroke-width="12" stroke-miterlimit="2.85545" stroke-linejoin="round" mask="url(#path-1-outside-1_1153_267)"/>
</svg>
