<svg width="130" height="34" viewBox="0 0 130 34" fill="none" xmlns="http://www.w3.org/2000/svg">
<mask id="path-1-outside-1_1089_120" maskUnits="userSpaceOnUse" x="0" y="0" width="130" height="34" fill="black">
<rect fill="white" width="130" height="34"/>
<path d="M10.2398 27.9708C9.84446 27.9708 9.39973 27.9318 8.90559 27.8539C8.4312 27.776 7.97659 27.6786 7.54174 27.5618C7.12666 27.4449 6.80052 27.3183 6.56333 27.1819C6.42497 27.104 6.31625 27.0261 6.23719 26.9482C6.17789 26.8508 6.14824 26.695 6.14824 26.4807L6 21.8938C6 21.5042 6.12848 21.3094 6.38543 21.3094C6.60286 21.3094 6.7511 21.4847 6.83017 21.8353L7.09701 22.9456C7.76905 25.7309 9.02418 27.1235 10.8624 27.1235C11.8507 27.1235 12.6315 26.8021 13.2047 26.1594C13.7976 25.4971 14.0941 24.5719 14.0941 23.3838C14.0941 22.2346 13.7878 21.1633 13.175 20.17C12.582 19.1766 11.6234 18.193 10.2991 17.2191C8.8364 16.1868 7.76905 15.1934 7.09701 14.239C6.42497 13.2652 6.08895 12.2328 6.08895 11.1421C6.08895 9.70075 6.59298 8.55157 7.60104 7.69455C8.62886 6.81806 9.93341 6.37981 11.5147 6.37981C12.1077 6.37981 12.6809 6.44799 13.2343 6.58433C13.7878 6.72067 14.2424 6.91545 14.5982 7.16866C14.7168 7.24657 14.8057 7.33422 14.865 7.43161C14.9441 7.529 14.9836 7.6556 14.9836 7.81142L15.0725 12.2231C15.0725 12.5542 14.9441 12.7198 14.6871 12.7198C14.5092 12.7198 14.3807 12.5834 14.3017 12.3108L14.0941 11.5803C13.6593 10.0806 13.2047 8.98982 12.7303 8.3081C12.2757 7.60691 11.6135 7.25631 10.7438 7.25631C9.89388 7.25631 9.21196 7.52899 8.69804 8.07437C8.2039 8.61974 7.95682 9.38911 7.95682 10.3825C7.95682 11.22 8.23354 12.0186 8.78699 12.7782C9.34043 13.5378 10.309 14.463 11.6926 15.5538C13.175 16.7419 14.2523 17.8911 14.9243 19.0013C15.6161 20.0921 15.962 21.2607 15.962 22.5073C15.962 23.5981 15.7149 24.5525 15.2208 25.3705C14.7266 26.1886 14.0447 26.8313 13.175 27.2988C12.3251 27.7468 11.3467 27.9708 10.2398 27.9708Z"/>
<path d="M20.9201 27.9708C20.2283 27.9708 19.6551 27.7371 19.2004 27.2696C18.7656 26.7826 18.5482 25.9938 18.5482 24.9031V13.9761C18.5482 13.7424 18.4296 13.6255 18.1924 13.6255H17.3326C17.0163 13.6255 16.8582 13.5086 16.8582 13.2749C16.8582 13.1191 16.9471 12.9827 17.125 12.8659C17.7773 12.4179 18.3011 11.9407 18.6964 11.4343C19.0917 10.9084 19.4376 10.1974 19.7341 9.30146C19.8725 8.89243 20.0405 8.68792 20.2382 8.68792C20.4556 8.68792 20.5643 8.84374 20.5643 9.15538V12.3984C20.5643 12.6711 20.7027 12.8074 20.9794 12.8074H22.9065C23.2228 12.8074 23.3809 12.9438 23.3809 13.2165C23.3809 13.4892 23.2228 13.6255 22.9065 13.6255H20.9794C20.7027 13.6255 20.5643 13.7618 20.5643 14.0345V24.9323C20.5643 25.3608 20.6335 25.7016 20.7718 25.9548C20.9102 26.1886 21.1671 26.3054 21.5427 26.3054C21.9578 26.3054 22.2938 26.1009 22.5508 25.6919C22.8275 25.2829 23.0054 24.6206 23.0844 23.7052C23.124 23.4325 23.2525 23.2961 23.4699 23.2961C23.7071 23.2961 23.8257 23.4422 23.8257 23.7344C23.7664 25.2342 23.4501 26.3152 22.8769 26.9774C22.3235 27.6397 21.6712 27.9708 20.9201 27.9708Z"/>
<path d="M28.7763 27.9708C28.2822 27.9708 27.8078 27.8637 27.3532 27.6494C26.8986 27.4352 26.523 27.0943 26.2265 26.6268C25.93 26.1594 25.7818 25.5361 25.7818 24.757V14.5896C25.7818 14.239 25.7225 13.9956 25.6039 13.8592C25.5051 13.7229 25.3173 13.645 25.0406 13.6255L24.5365 13.5671C24.2005 13.5281 24.0325 13.4015 24.0325 13.1873C24.0325 12.934 24.2203 12.8074 24.5958 12.8074H27.3532C27.6497 12.8074 27.7979 12.9535 27.7979 13.2457V24.1434C27.7979 25.0394 27.9659 25.6822 28.3019 26.0717C28.6577 26.4418 29.142 26.6268 29.7547 26.6268C30.3675 26.6268 30.911 26.4613 31.3854 26.1301C31.8598 25.7795 32.2353 25.3218 32.5121 24.757C32.8086 24.1726 32.9568 23.5396 32.9568 22.8579V14.5896C32.9568 14.239 32.8975 13.9956 32.7789 13.8592C32.6801 13.7229 32.4923 13.645 32.2156 13.6255L31.7116 13.5671C31.3755 13.5281 31.2075 13.4015 31.2075 13.1873C31.2075 12.934 31.3953 12.8074 31.7708 12.8074H34.5282C34.8247 12.8074 34.9729 12.9535 34.9729 13.2457V24.5817C34.9729 24.9323 35.0223 25.1757 35.1212 25.3121C35.2398 25.429 35.4374 25.5069 35.7141 25.5458L36.3368 25.6335C36.5937 25.6529 36.7222 25.7503 36.7222 25.9256C36.7222 26.1009 36.5641 26.2178 36.2478 26.2762C35.6351 26.3541 35.1409 26.51 34.7654 26.7437C34.4096 26.9774 34.0933 27.2598 33.8166 27.591C33.6387 27.7663 33.4905 27.8539 33.3719 27.8539C33.194 27.8539 33.105 27.7371 33.105 27.5033V26.1594C33.105 26.0035 33.0457 25.9159 32.9272 25.8964C32.8283 25.8575 32.7196 25.8964 32.601 26.0133C31.8697 26.734 31.2174 27.2404 30.6442 27.5325C30.0907 27.8247 29.4681 27.9708 28.7763 27.9708Z"/>
<path d="M42.2399 27.9708C41.3702 27.9708 40.5894 27.6786 39.8976 27.0943C39.2256 26.4905 38.7018 25.6627 38.3263 24.6109C37.9507 23.5396 37.7629 22.3028 37.7629 20.9004C37.7629 19.2643 38.0199 17.8327 38.5338 16.6056C39.0477 15.359 39.7593 14.3851 40.6685 13.6839C41.5777 12.9827 42.6056 12.6321 43.752 12.6321C44.0287 12.6321 44.3054 12.6614 44.5822 12.7198C44.8589 12.7587 45.1257 12.8367 45.3827 12.9535C45.6989 13.1093 45.8571 13.0412 45.8571 12.749V9.0093C45.8571 8.6587 45.7978 8.41523 45.6792 8.27888C45.5803 8.14254 45.3926 8.06463 45.1158 8.04515L44.345 7.9575C44.1275 7.91855 44.0188 7.80168 44.0188 7.60691C44.0188 7.41213 44.1275 7.29526 44.345 7.25631C44.9775 7.13944 45.4815 7.0031 45.8571 6.84728C46.2524 6.69146 46.5785 6.53563 46.8355 6.37981C47.1517 6.18504 47.3889 6.08765 47.547 6.08765C47.7645 6.08765 47.8732 6.24347 47.8732 6.55511V24.9323C47.8732 25.7503 48.0807 26.1594 48.4958 26.1594C48.7528 26.1594 48.9899 25.9938 49.2074 25.6627C49.4248 25.3121 49.5335 24.7278 49.5335 23.9097C49.5335 23.5981 49.662 23.4422 49.9189 23.4422C50.1561 23.4422 50.2747 23.6078 50.2747 23.9389C50.2747 25.3608 50.0277 26.3931 49.5335 27.0359C49.0394 27.6591 48.476 27.9708 47.8435 27.9708C47.2703 27.9708 46.8355 27.7857 46.539 27.4157C46.2425 27.0261 46.0448 26.5684 45.946 26.0425C45.9262 25.8867 45.8571 25.8088 45.7385 25.8088C45.6199 25.7893 45.5112 25.8575 45.4123 26.0133C44.8589 26.7729 44.3548 27.2891 43.9002 27.5618C43.4456 27.8344 42.8922 27.9708 42.2399 27.9708ZM42.8922 26.6268C43.4061 26.6268 43.8805 26.4613 44.3153 26.1301C44.7699 25.7795 45.1356 25.3121 45.4123 24.7278C45.7088 24.1434 45.8571 23.4909 45.8571 22.7703V16.1965C45.8571 15.3201 45.6495 14.6286 45.2344 14.1222C44.8391 13.6158 44.3153 13.3625 43.663 13.3625C42.5561 13.3625 41.6568 14.0053 40.965 15.2908C40.293 16.5569 39.9569 18.2904 39.9569 20.4914C39.9569 22.4976 40.2139 24.0266 40.7278 25.0784C41.2615 26.1107 41.9829 26.6268 42.8922 26.6268Z"/>
<path d="M53.5074 10.0319C53.0923 10.0319 52.7365 9.88579 52.44 9.59363C52.1633 9.30146 52.0249 8.93139 52.0249 8.4834C52.0249 8.03541 52.1633 7.67508 52.44 7.40239C52.7365 7.11023 53.0923 6.96414 53.5074 6.96414C53.9225 6.96414 54.2684 7.11023 54.5451 7.40239C54.8218 7.67508 54.9602 8.03541 54.9602 8.4834C54.9602 8.93139 54.8218 9.30146 54.5451 9.59363C54.2684 9.88579 53.9225 10.0319 53.5074 10.0319ZM51.0169 27.7078C50.7204 27.7078 50.5721 27.6007 50.5721 27.3865C50.5721 27.2112 50.7006 27.0943 50.9576 27.0359L51.3134 26.9774C51.8075 26.8995 52.1238 26.7826 52.2621 26.6268C52.4005 26.4515 52.4697 26.1594 52.4697 25.7503V15.9336C52.4697 15.583 52.4104 15.3493 52.2918 15.2324C52.1929 15.0961 52.0052 15.0084 51.7284 14.9695L51.1058 14.8818C50.8489 14.8623 50.7204 14.7552 50.7204 14.5604C50.7204 14.4046 50.8785 14.2975 51.1948 14.239C51.8075 14.1417 52.3017 13.9858 52.6772 13.7716C53.0528 13.5573 53.4184 13.2944 53.7742 12.9827C53.9521 12.8074 54.1004 12.7198 54.2189 12.7198C54.3968 12.7198 54.4858 12.8367 54.4858 13.0704V25.7503C54.4858 26.1594 54.5451 26.4515 54.6637 26.6268C54.7823 26.8021 55.0096 26.9093 55.3456 26.9482L56.0868 27.0359C56.3042 27.0748 56.413 27.1819 56.413 27.3572C56.413 27.591 56.2647 27.7078 55.9682 27.7078H51.0169Z"/>
<path d="M62.4511 27.9708C61.4431 27.9708 60.5338 27.6397 59.7234 26.9774C58.9328 26.2957 58.3003 25.3705 57.8259 24.2019C57.3515 23.0332 57.1143 21.7282 57.1143 20.2869C57.1143 18.8455 57.3515 17.5502 57.8259 16.4011C58.3003 15.2519 58.9427 14.3364 59.7531 13.6547C60.5635 12.973 61.4628 12.6321 62.4511 12.6321C63.4592 12.6321 64.3585 12.973 65.1492 13.6547C65.9596 14.3364 66.602 15.2519 67.0763 16.4011C67.5507 17.5502 67.7879 18.8455 67.7879 20.2869C67.7879 21.7282 67.5507 23.0332 67.0763 24.2019C66.6217 25.3705 65.9892 26.2957 65.1788 26.9774C64.3684 27.6397 63.4592 27.9708 62.4511 27.9708ZM62.4511 27.2404C64.5068 27.2404 65.5346 24.9225 65.5346 20.2869C65.5346 15.6707 64.5068 13.3625 62.4511 13.3625C60.3955 13.3625 59.3676 15.6707 59.3676 20.2869C59.3676 24.9225 60.3955 27.2404 62.4511 27.2404Z"/>
<path d="M72.3279 27.7078C72.0512 27.7078 71.9128 27.6104 71.9128 27.4157C71.9128 27.2014 72.1105 27.0651 72.5058 27.0066L73.0988 26.919C73.5336 26.8606 73.8301 26.7632 73.9882 26.6268C74.1661 26.471 74.2946 26.1886 74.3737 25.7795L78.4059 8.60027C78.5047 8.19124 78.5047 7.91855 78.4059 7.7822C78.3071 7.64586 78.06 7.53873 77.6647 7.46082L77.0717 7.34396C76.8148 7.28552 76.6863 7.1784 76.6863 7.02258C76.6863 6.78884 76.8642 6.67198 77.2199 6.67198H87.1227C87.6366 6.67198 87.8441 6.89597 87.7453 7.34396L86.8262 12.1939C86.7669 12.525 86.6087 12.6906 86.3518 12.6906C86.0751 12.6906 85.9565 12.564 85.996 12.3108L86.0849 11.2882C86.1838 10.2948 86.0948 9.51571 85.8181 8.95086C85.5611 8.38601 85.1658 7.98672 84.6322 7.75299C84.1182 7.51926 83.5154 7.40239 82.8236 7.40239C82.0329 7.40239 81.4597 7.51926 81.1039 7.75299C80.7482 7.96724 80.5011 8.35679 80.3627 8.92165L78.732 15.9628C78.6727 16.2355 78.7815 16.3718 79.0582 16.3718H80.5703C81.44 16.3718 82.0725 15.9141 82.4678 14.9987L83.1201 13.5378C83.2189 13.2846 83.377 13.158 83.5944 13.158C83.713 13.158 83.802 13.2067 83.8613 13.3041C83.9403 13.382 83.9601 13.4989 83.9206 13.6547L82.3788 20.2284C82.28 20.5595 82.112 20.7251 81.8748 20.7251C81.6376 20.7251 81.519 20.5985 81.519 20.3453L81.5487 18.9137C81.5684 18.232 81.4795 17.784 81.2818 17.5697C81.104 17.3555 80.7877 17.2483 80.3331 17.2483H78.8506C78.5541 17.2483 78.3763 17.3847 78.317 17.6574L76.5973 24.9907C76.4392 25.6919 76.5084 26.1983 76.8049 26.51C77.1014 26.8216 77.7339 26.9774 78.7024 26.9774C79.2954 26.9774 79.8785 26.8898 80.4517 26.7145C81.0446 26.5197 81.5981 26.1594 82.112 25.6335C82.6457 25.1076 83.1299 24.3479 83.5648 23.3546L84.2764 21.7185C84.3752 21.4652 84.5333 21.3386 84.7507 21.3386C85.0472 21.3386 85.1461 21.5042 85.0472 21.8353L83.5351 27.0359C83.4166 27.4838 83.1201 27.7078 82.6457 27.7078H72.3279Z"/>
<path d="M88.3413 28C87.689 28 87.2245 27.7663 86.9478 27.2988C86.6711 26.8119 86.6612 26.023 86.9181 24.9323L90.6835 9.0093C90.7824 8.6587 90.7824 8.41523 90.6835 8.27888C90.6045 8.14254 90.4266 8.06463 90.1498 8.04515L89.2604 7.9575C88.9639 7.93803 88.8354 7.81142 88.875 7.57769C88.9145 7.40239 89.0528 7.29526 89.29 7.25631C90.0016 7.13944 90.6341 7.0031 91.1876 6.84728C91.741 6.67198 92.1857 6.44799 92.5218 6.1753C92.6799 6.05843 92.8281 6 92.9665 6C93.2037 6 93.2926 6.14608 93.2333 6.43825L88.8453 24.9615C88.7465 25.39 88.7267 25.7309 88.786 25.9841C88.8651 26.2178 89.0528 26.3347 89.3493 26.3347C89.7051 26.3347 90.0905 26.0815 90.5056 25.575C90.9405 25.0491 91.4247 24.0655 91.9584 22.6242C92.0375 22.371 92.1758 22.2444 92.3735 22.2444C92.67 22.2444 92.7491 22.4197 92.6107 22.7703C92.1956 24.0947 91.7311 25.1465 91.2172 25.9256C90.7231 26.6853 90.2289 27.2209 89.7348 27.5325C89.2406 27.8442 88.7761 28 88.3413 28Z"/>
<path d="M99.0218 10.0319C98.6462 10.0319 98.33 9.90527 98.073 9.65206C97.8358 9.37937 97.7172 9.05799 97.7172 8.68792C97.7172 8.16202 97.8754 7.74325 98.1916 7.43161C98.5276 7.11996 98.9032 6.96414 99.3183 6.96414C99.7136 6.96414 100.04 7.09075 100.297 7.34396C100.573 7.57769 100.712 7.88933 100.712 8.27888C100.712 8.82426 100.544 9.25277 100.208 9.56441C99.8717 9.87605 99.4764 10.0319 99.0218 10.0319ZM96.5906 28C95.9383 28 95.4738 27.7663 95.1971 27.2988C94.9204 26.8119 94.9105 26.023 95.1674 24.9323L97.3615 15.6707C97.4603 15.2421 97.4702 14.911 97.3911 14.6773C97.3318 14.4241 97.1539 14.2975 96.8574 14.2975C96.5016 14.2975 96.1063 14.5604 95.6715 15.0863C95.2564 15.5927 94.782 16.5666 94.2483 18.008C94.1693 18.2612 94.0309 18.3878 93.8332 18.3878C93.5368 18.3878 93.4577 18.2125 93.5961 17.8619C94.0309 16.5179 94.4855 15.4661 94.9599 14.7065C95.4541 13.9469 95.9482 13.4112 96.4423 13.0996C96.9365 12.788 97.3911 12.6321 97.8062 12.6321C98.498 12.6321 98.9823 12.8756 99.259 13.3625C99.5357 13.83 99.5456 14.6091 99.2886 15.6999L97.0946 24.9615C96.9958 25.39 96.976 25.7309 97.0353 25.9841C97.1144 26.2178 97.3022 26.3347 97.5986 26.3347C97.9544 26.3347 98.3399 26.0815 98.755 25.575C99.1898 25.0491 99.6741 24.0655 100.208 22.6242C100.287 22.371 100.425 22.2444 100.623 22.2444C100.919 22.2444 100.998 22.4197 100.86 22.7703C100.445 24.0947 99.9804 25.1465 99.4665 25.9256C98.9724 26.6853 98.4782 27.2209 97.9841 27.5325C97.4899 27.8442 97.0254 28 96.5906 28Z"/>
<path d="M103.857 27.9708C103.146 27.9708 102.592 27.6689 102.197 27.0651C101.801 26.4613 101.604 25.575 101.604 24.4064C101.604 23.2961 101.762 22.1859 102.078 21.0757C102.394 19.946 102.829 18.8747 103.383 17.8619C103.936 16.849 104.559 15.9531 105.251 15.174C105.962 14.3949 106.703 13.7813 107.474 13.3333C108.265 12.8659 109.046 12.6321 109.817 12.6321C110.192 12.6321 110.548 12.71 110.884 12.8659C111.22 13.0022 111.497 13.2262 111.714 13.5378C111.833 13.7131 111.951 13.8008 112.07 13.8008C112.188 13.8008 112.307 13.7131 112.426 13.5378C112.643 13.2262 112.821 13.0314 112.959 12.9535C113.098 12.8561 113.226 12.8074 113.345 12.8074C113.602 12.8074 113.701 12.9438 113.641 13.2165L111.002 24.4064C110.706 25.6724 110.904 26.3054 111.595 26.3054C112.05 26.3054 112.455 26.0035 112.811 25.3997C113.187 24.7959 113.562 23.861 113.938 22.595C113.997 22.3807 114.125 22.2736 114.323 22.2736C114.461 22.2736 114.55 22.332 114.59 22.4489C114.63 22.5657 114.63 22.7021 114.59 22.8579C114.214 24.6888 113.71 26.0035 113.078 26.8021C112.445 27.5812 111.684 27.9708 110.795 27.9708C110.024 27.9708 109.471 27.6494 109.135 27.0066C108.818 26.3639 108.789 25.4874 109.046 24.3772L109.431 22.7703C109.471 22.6339 109.441 22.556 109.342 22.5365C109.263 22.517 109.194 22.5657 109.135 22.6826C108.047 24.6498 107.079 26.023 106.229 26.8021C105.399 27.5812 104.608 27.9708 103.857 27.9708ZM104.598 26.4807C105.073 26.4807 105.596 26.1983 106.17 25.6335C106.743 25.0686 107.306 24.3382 107.86 23.4422C108.433 22.5463 108.957 21.5821 109.431 20.5498C109.905 19.5175 110.281 18.5241 110.558 17.5697C110.854 16.6153 111.002 15.807 111.002 15.1448C111.002 13.9566 110.577 13.3625 109.728 13.3625C109.214 13.3625 108.67 13.5963 108.097 14.0637C107.524 14.5117 106.97 15.1253 106.437 15.9044C105.923 16.6835 105.448 17.5697 105.013 18.5631C104.598 19.537 104.262 20.5595 104.005 21.6308C103.748 22.6826 103.62 23.7149 103.62 24.7278C103.62 25.4095 103.699 25.8769 103.857 26.1301C104.035 26.3639 104.282 26.4807 104.598 26.4807Z"/>
<path d="M118.404 27.9708C117.752 27.9708 117.06 27.8734 116.328 27.6786C115.617 27.4838 115.073 27.2404 114.698 26.9482C114.559 26.8313 114.5 26.656 114.52 26.4223L115.172 22.595C115.212 22.3417 115.33 22.2151 115.528 22.2151C115.745 22.2151 115.854 22.3515 115.854 22.6242L115.913 24.0266C115.953 25.1368 116.22 25.9548 116.714 26.4807C117.228 26.9872 117.85 27.2404 118.582 27.2404C119.214 27.2404 119.758 27.0456 120.212 26.656C120.667 26.247 120.894 25.6529 120.894 24.8738C120.894 24.4259 120.825 24.0168 120.687 23.6467C120.548 23.2572 120.331 22.8482 120.034 22.4197C119.738 21.9717 119.333 21.436 118.819 20.8127C118.147 19.9557 117.643 19.2253 117.307 18.6215C116.991 17.9982 116.832 17.3555 116.832 16.6932C116.832 15.4661 117.218 14.4825 117.989 13.7424C118.779 13.0022 119.778 12.6321 120.983 12.6321C121.517 12.6321 122.031 12.71 122.525 12.8659C123.039 13.0217 123.464 13.2554 123.8 13.5671C123.978 13.7034 124.037 13.8787 123.978 14.093L123.148 18.008C123.088 18.2612 122.97 18.3878 122.792 18.3878C122.614 18.3878 122.505 18.2514 122.466 17.9788L122.377 16.5764C122.298 15.4077 122.14 14.5702 121.902 14.0637C121.685 13.5573 121.22 13.3041 120.509 13.3041C119.876 13.3041 119.362 13.5184 118.967 13.9469C118.572 14.3754 118.374 14.8915 118.374 15.4954C118.374 16.1381 118.552 16.7322 118.908 17.2776C119.264 17.8035 119.748 18.4754 120.361 19.2935C121.171 20.3453 121.715 21.1828 121.991 21.8061C122.288 22.4294 122.436 23.0624 122.436 23.7052C122.436 24.5232 122.248 25.2537 121.873 25.8964C121.517 26.5392 121.033 27.0456 120.42 27.4157C119.807 27.7857 119.135 27.9708 118.404 27.9708Z"/>
</mask>
<path d="M10.2398 27.9708C9.84446 27.9708 9.39973 27.9318 8.90559 27.8539C8.4312 27.776 7.97659 27.6786 7.54174 27.5618C7.12666 27.4449 6.80052 27.3183 6.56333 27.1819C6.42497 27.104 6.31625 27.0261 6.23719 26.9482C6.17789 26.8508 6.14824 26.695 6.14824 26.4807L6 21.8938C6 21.5042 6.12848 21.3094 6.38543 21.3094C6.60286 21.3094 6.7511 21.4847 6.83017 21.8353L7.09701 22.9456C7.76905 25.7309 9.02418 27.1235 10.8624 27.1235C11.8507 27.1235 12.6315 26.8021 13.2047 26.1594C13.7976 25.4971 14.0941 24.5719 14.0941 23.3838C14.0941 22.2346 13.7878 21.1633 13.175 20.17C12.582 19.1766 11.6234 18.193 10.2991 17.2191C8.8364 16.1868 7.76905 15.1934 7.09701 14.239C6.42497 13.2652 6.08895 12.2328 6.08895 11.1421C6.08895 9.70075 6.59298 8.55157 7.60104 7.69455C8.62886 6.81806 9.93341 6.37981 11.5147 6.37981C12.1077 6.37981 12.6809 6.44799 13.2343 6.58433C13.7878 6.72067 14.2424 6.91545 14.5982 7.16866C14.7168 7.24657 14.8057 7.33422 14.865 7.43161C14.9441 7.529 14.9836 7.6556 14.9836 7.81142L15.0725 12.2231C15.0725 12.5542 14.9441 12.7198 14.6871 12.7198C14.5092 12.7198 14.3807 12.5834 14.3017 12.3108L14.0941 11.5803C13.6593 10.0806 13.2047 8.98982 12.7303 8.3081C12.2757 7.60691 11.6135 7.25631 10.7438 7.25631C9.89388 7.25631 9.21196 7.52899 8.69804 8.07437C8.2039 8.61974 7.95682 9.38911 7.95682 10.3825C7.95682 11.22 8.23354 12.0186 8.78699 12.7782C9.34043 13.5378 10.309 14.463 11.6926 15.5538C13.175 16.7419 14.2523 17.8911 14.9243 19.0013C15.6161 20.0921 15.962 21.2607 15.962 22.5073C15.962 23.5981 15.7149 24.5525 15.2208 25.3705C14.7266 26.1886 14.0447 26.8313 13.175 27.2988C12.3251 27.7468 11.3467 27.9708 10.2398 27.9708Z" fill="#1A1A1A"/>
<path d="M20.9201 27.9708C20.2283 27.9708 19.6551 27.7371 19.2004 27.2696C18.7656 26.7826 18.5482 25.9938 18.5482 24.9031V13.9761C18.5482 13.7424 18.4296 13.6255 18.1924 13.6255H17.3326C17.0163 13.6255 16.8582 13.5086 16.8582 13.2749C16.8582 13.1191 16.9471 12.9827 17.125 12.8659C17.7773 12.4179 18.3011 11.9407 18.6964 11.4343C19.0917 10.9084 19.4376 10.1974 19.7341 9.30146C19.8725 8.89243 20.0405 8.68792 20.2382 8.68792C20.4556 8.68792 20.5643 8.84374 20.5643 9.15538V12.3984C20.5643 12.6711 20.7027 12.8074 20.9794 12.8074H22.9065C23.2228 12.8074 23.3809 12.9438 23.3809 13.2165C23.3809 13.4892 23.2228 13.6255 22.9065 13.6255H20.9794C20.7027 13.6255 20.5643 13.7618 20.5643 14.0345V24.9323C20.5643 25.3608 20.6335 25.7016 20.7718 25.9548C20.9102 26.1886 21.1671 26.3054 21.5427 26.3054C21.9578 26.3054 22.2938 26.1009 22.5508 25.6919C22.8275 25.2829 23.0054 24.6206 23.0844 23.7052C23.124 23.4325 23.2525 23.2961 23.4699 23.2961C23.7071 23.2961 23.8257 23.4422 23.8257 23.7344C23.7664 25.2342 23.4501 26.3152 22.8769 26.9774C22.3235 27.6397 21.6712 27.9708 20.9201 27.9708Z" fill="#1A1A1A"/>
<path d="M28.7763 27.9708C28.2822 27.9708 27.8078 27.8637 27.3532 27.6494C26.8986 27.4352 26.523 27.0943 26.2265 26.6268C25.93 26.1594 25.7818 25.5361 25.7818 24.757V14.5896C25.7818 14.239 25.7225 13.9956 25.6039 13.8592C25.5051 13.7229 25.3173 13.645 25.0406 13.6255L24.5365 13.5671C24.2005 13.5281 24.0325 13.4015 24.0325 13.1873C24.0325 12.934 24.2203 12.8074 24.5958 12.8074H27.3532C27.6497 12.8074 27.7979 12.9535 27.7979 13.2457V24.1434C27.7979 25.0394 27.9659 25.6822 28.3019 26.0717C28.6577 26.4418 29.142 26.6268 29.7547 26.6268C30.3675 26.6268 30.911 26.4613 31.3854 26.1301C31.8598 25.7795 32.2353 25.3218 32.5121 24.757C32.8086 24.1726 32.9568 23.5396 32.9568 22.8579V14.5896C32.9568 14.239 32.8975 13.9956 32.7789 13.8592C32.6801 13.7229 32.4923 13.645 32.2156 13.6255L31.7116 13.5671C31.3755 13.5281 31.2075 13.4015 31.2075 13.1873C31.2075 12.934 31.3953 12.8074 31.7708 12.8074H34.5282C34.8247 12.8074 34.9729 12.9535 34.9729 13.2457V24.5817C34.9729 24.9323 35.0223 25.1757 35.1212 25.3121C35.2398 25.429 35.4374 25.5069 35.7141 25.5458L36.3368 25.6335C36.5937 25.6529 36.7222 25.7503 36.7222 25.9256C36.7222 26.1009 36.5641 26.2178 36.2478 26.2762C35.6351 26.3541 35.1409 26.51 34.7654 26.7437C34.4096 26.9774 34.0933 27.2598 33.8166 27.591C33.6387 27.7663 33.4905 27.8539 33.3719 27.8539C33.194 27.8539 33.105 27.7371 33.105 27.5033V26.1594C33.105 26.0035 33.0457 25.9159 32.9272 25.8964C32.8283 25.8575 32.7196 25.8964 32.601 26.0133C31.8697 26.734 31.2174 27.2404 30.6442 27.5325C30.0907 27.8247 29.4681 27.9708 28.7763 27.9708Z" fill="#1A1A1A"/>
<path d="M42.2399 27.9708C41.3702 27.9708 40.5894 27.6786 39.8976 27.0943C39.2256 26.4905 38.7018 25.6627 38.3263 24.6109C37.9507 23.5396 37.7629 22.3028 37.7629 20.9004C37.7629 19.2643 38.0199 17.8327 38.5338 16.6056C39.0477 15.359 39.7593 14.3851 40.6685 13.6839C41.5777 12.9827 42.6056 12.6321 43.752 12.6321C44.0287 12.6321 44.3054 12.6614 44.5822 12.7198C44.8589 12.7587 45.1257 12.8367 45.3827 12.9535C45.6989 13.1093 45.8571 13.0412 45.8571 12.749V9.0093C45.8571 8.6587 45.7978 8.41523 45.6792 8.27888C45.5803 8.14254 45.3926 8.06463 45.1158 8.04515L44.345 7.9575C44.1275 7.91855 44.0188 7.80168 44.0188 7.60691C44.0188 7.41213 44.1275 7.29526 44.345 7.25631C44.9775 7.13944 45.4815 7.0031 45.8571 6.84728C46.2524 6.69146 46.5785 6.53563 46.8355 6.37981C47.1517 6.18504 47.3889 6.08765 47.547 6.08765C47.7645 6.08765 47.8732 6.24347 47.8732 6.55511V24.9323C47.8732 25.7503 48.0807 26.1594 48.4958 26.1594C48.7528 26.1594 48.9899 25.9938 49.2074 25.6627C49.4248 25.3121 49.5335 24.7278 49.5335 23.9097C49.5335 23.5981 49.662 23.4422 49.9189 23.4422C50.1561 23.4422 50.2747 23.6078 50.2747 23.9389C50.2747 25.3608 50.0277 26.3931 49.5335 27.0359C49.0394 27.6591 48.476 27.9708 47.8435 27.9708C47.2703 27.9708 46.8355 27.7857 46.539 27.4157C46.2425 27.0261 46.0448 26.5684 45.946 26.0425C45.9262 25.8867 45.8571 25.8088 45.7385 25.8088C45.6199 25.7893 45.5112 25.8575 45.4123 26.0133C44.8589 26.7729 44.3548 27.2891 43.9002 27.5618C43.4456 27.8344 42.8922 27.9708 42.2399 27.9708ZM42.8922 26.6268C43.4061 26.6268 43.8805 26.4613 44.3153 26.1301C44.7699 25.7795 45.1356 25.3121 45.4123 24.7278C45.7088 24.1434 45.8571 23.4909 45.8571 22.7703V16.1965C45.8571 15.3201 45.6495 14.6286 45.2344 14.1222C44.8391 13.6158 44.3153 13.3625 43.663 13.3625C42.5561 13.3625 41.6568 14.0053 40.965 15.2908C40.293 16.5569 39.9569 18.2904 39.9569 20.4914C39.9569 22.4976 40.2139 24.0266 40.7278 25.0784C41.2615 26.1107 41.9829 26.6268 42.8922 26.6268Z" fill="#1A1A1A"/>
<path d="M53.5074 10.0319C53.0923 10.0319 52.7365 9.88579 52.44 9.59363C52.1633 9.30146 52.0249 8.93139 52.0249 8.4834C52.0249 8.03541 52.1633 7.67508 52.44 7.40239C52.7365 7.11023 53.0923 6.96414 53.5074 6.96414C53.9225 6.96414 54.2684 7.11023 54.5451 7.40239C54.8218 7.67508 54.9602 8.03541 54.9602 8.4834C54.9602 8.93139 54.8218 9.30146 54.5451 9.59363C54.2684 9.88579 53.9225 10.0319 53.5074 10.0319ZM51.0169 27.7078C50.7204 27.7078 50.5721 27.6007 50.5721 27.3865C50.5721 27.2112 50.7006 27.0943 50.9576 27.0359L51.3134 26.9774C51.8075 26.8995 52.1238 26.7826 52.2621 26.6268C52.4005 26.4515 52.4697 26.1594 52.4697 25.7503V15.9336C52.4697 15.583 52.4104 15.3493 52.2918 15.2324C52.1929 15.0961 52.0052 15.0084 51.7284 14.9695L51.1058 14.8818C50.8489 14.8623 50.7204 14.7552 50.7204 14.5604C50.7204 14.4046 50.8785 14.2975 51.1948 14.239C51.8075 14.1417 52.3017 13.9858 52.6772 13.7716C53.0528 13.5573 53.4184 13.2944 53.7742 12.9827C53.9521 12.8074 54.1004 12.7198 54.2189 12.7198C54.3968 12.7198 54.4858 12.8367 54.4858 13.0704V25.7503C54.4858 26.1594 54.5451 26.4515 54.6637 26.6268C54.7823 26.8021 55.0096 26.9093 55.3456 26.9482L56.0868 27.0359C56.3042 27.0748 56.413 27.1819 56.413 27.3572C56.413 27.591 56.2647 27.7078 55.9682 27.7078H51.0169Z" fill="#1A1A1A"/>
<path d="M62.4511 27.9708C61.4431 27.9708 60.5338 27.6397 59.7234 26.9774C58.9328 26.2957 58.3003 25.3705 57.8259 24.2019C57.3515 23.0332 57.1143 21.7282 57.1143 20.2869C57.1143 18.8455 57.3515 17.5502 57.8259 16.4011C58.3003 15.2519 58.9427 14.3364 59.7531 13.6547C60.5635 12.973 61.4628 12.6321 62.4511 12.6321C63.4592 12.6321 64.3585 12.973 65.1492 13.6547C65.9596 14.3364 66.602 15.2519 67.0763 16.4011C67.5507 17.5502 67.7879 18.8455 67.7879 20.2869C67.7879 21.7282 67.5507 23.0332 67.0763 24.2019C66.6217 25.3705 65.9892 26.2957 65.1788 26.9774C64.3684 27.6397 63.4592 27.9708 62.4511 27.9708ZM62.4511 27.2404C64.5068 27.2404 65.5346 24.9225 65.5346 20.2869C65.5346 15.6707 64.5068 13.3625 62.4511 13.3625C60.3955 13.3625 59.3676 15.6707 59.3676 20.2869C59.3676 24.9225 60.3955 27.2404 62.4511 27.2404Z" fill="#1A1A1A"/>
<path d="M72.3279 27.7078C72.0512 27.7078 71.9128 27.6104 71.9128 27.4157C71.9128 27.2014 72.1105 27.0651 72.5058 27.0066L73.0988 26.919C73.5336 26.8606 73.8301 26.7632 73.9882 26.6268C74.1661 26.471 74.2946 26.1886 74.3737 25.7795L78.4059 8.60027C78.5047 8.19124 78.5047 7.91855 78.4059 7.7822C78.3071 7.64586 78.06 7.53873 77.6647 7.46082L77.0717 7.34396C76.8148 7.28552 76.6863 7.1784 76.6863 7.02258C76.6863 6.78884 76.8642 6.67198 77.2199 6.67198H87.1227C87.6366 6.67198 87.8441 6.89597 87.7453 7.34396L86.8262 12.1939C86.7669 12.525 86.6087 12.6906 86.3518 12.6906C86.0751 12.6906 85.9565 12.564 85.996 12.3108L86.0849 11.2882C86.1838 10.2948 86.0948 9.51571 85.8181 8.95086C85.5611 8.38601 85.1658 7.98672 84.6322 7.75299C84.1182 7.51926 83.5154 7.40239 82.8236 7.40239C82.0329 7.40239 81.4597 7.51926 81.1039 7.75299C80.7482 7.96724 80.5011 8.35679 80.3627 8.92165L78.732 15.9628C78.6727 16.2355 78.7815 16.3718 79.0582 16.3718H80.5703C81.44 16.3718 82.0725 15.9141 82.4678 14.9987L83.1201 13.5378C83.2189 13.2846 83.377 13.158 83.5944 13.158C83.713 13.158 83.802 13.2067 83.8613 13.3041C83.9403 13.382 83.9601 13.4989 83.9206 13.6547L82.3788 20.2284C82.28 20.5595 82.112 20.7251 81.8748 20.7251C81.6376 20.7251 81.519 20.5985 81.519 20.3453L81.5487 18.9137C81.5684 18.232 81.4795 17.784 81.2818 17.5697C81.104 17.3555 80.7877 17.2483 80.3331 17.2483H78.8506C78.5541 17.2483 78.3763 17.3847 78.317 17.6574L76.5973 24.9907C76.4392 25.6919 76.5084 26.1983 76.8049 26.51C77.1014 26.8216 77.7339 26.9774 78.7024 26.9774C79.2954 26.9774 79.8785 26.8898 80.4517 26.7145C81.0446 26.5197 81.5981 26.1594 82.112 25.6335C82.6457 25.1076 83.1299 24.3479 83.5648 23.3546L84.2764 21.7185C84.3752 21.4652 84.5333 21.3386 84.7507 21.3386C85.0472 21.3386 85.1461 21.5042 85.0472 21.8353L83.5351 27.0359C83.4166 27.4838 83.1201 27.7078 82.6457 27.7078H72.3279Z" fill="#1A1A1A"/>
<path d="M88.3413 28C87.689 28 87.2245 27.7663 86.9478 27.2988C86.6711 26.8119 86.6612 26.023 86.9181 24.9323L90.6835 9.0093C90.7824 8.6587 90.7824 8.41523 90.6835 8.27888C90.6045 8.14254 90.4266 8.06463 90.1498 8.04515L89.2604 7.9575C88.9639 7.93803 88.8354 7.81142 88.875 7.57769C88.9145 7.40239 89.0528 7.29526 89.29 7.25631C90.0016 7.13944 90.6341 7.0031 91.1876 6.84728C91.741 6.67198 92.1857 6.44799 92.5218 6.1753C92.6799 6.05843 92.8281 6 92.9665 6C93.2037 6 93.2926 6.14608 93.2333 6.43825L88.8453 24.9615C88.7465 25.39 88.7267 25.7309 88.786 25.9841C88.8651 26.2178 89.0528 26.3347 89.3493 26.3347C89.7051 26.3347 90.0905 26.0815 90.5056 25.575C90.9405 25.0491 91.4247 24.0655 91.9584 22.6242C92.0375 22.371 92.1758 22.2444 92.3735 22.2444C92.67 22.2444 92.7491 22.4197 92.6107 22.7703C92.1956 24.0947 91.7311 25.1465 91.2172 25.9256C90.7231 26.6853 90.2289 27.2209 89.7348 27.5325C89.2406 27.8442 88.7761 28 88.3413 28Z" fill="#1A1A1A"/>
<path d="M99.0218 10.0319C98.6462 10.0319 98.33 9.90527 98.073 9.65206C97.8358 9.37937 97.7172 9.05799 97.7172 8.68792C97.7172 8.16202 97.8754 7.74325 98.1916 7.43161C98.5276 7.11996 98.9032 6.96414 99.3183 6.96414C99.7136 6.96414 100.04 7.09075 100.297 7.34396C100.573 7.57769 100.712 7.88933 100.712 8.27888C100.712 8.82426 100.544 9.25277 100.208 9.56441C99.8717 9.87605 99.4764 10.0319 99.0218 10.0319ZM96.5906 28C95.9383 28 95.4738 27.7663 95.1971 27.2988C94.9204 26.8119 94.9105 26.023 95.1674 24.9323L97.3615 15.6707C97.4603 15.2421 97.4702 14.911 97.3911 14.6773C97.3318 14.4241 97.1539 14.2975 96.8574 14.2975C96.5016 14.2975 96.1063 14.5604 95.6715 15.0863C95.2564 15.5927 94.782 16.5666 94.2483 18.008C94.1693 18.2612 94.0309 18.3878 93.8332 18.3878C93.5368 18.3878 93.4577 18.2125 93.5961 17.8619C94.0309 16.5179 94.4855 15.4661 94.9599 14.7065C95.4541 13.9469 95.9482 13.4112 96.4423 13.0996C96.9365 12.788 97.3911 12.6321 97.8062 12.6321C98.498 12.6321 98.9823 12.8756 99.259 13.3625C99.5357 13.83 99.5456 14.6091 99.2886 15.6999L97.0946 24.9615C96.9958 25.39 96.976 25.7309 97.0353 25.9841C97.1144 26.2178 97.3022 26.3347 97.5986 26.3347C97.9544 26.3347 98.3399 26.0815 98.755 25.575C99.1898 25.0491 99.6741 24.0655 100.208 22.6242C100.287 22.371 100.425 22.2444 100.623 22.2444C100.919 22.2444 100.998 22.4197 100.86 22.7703C100.445 24.0947 99.9804 25.1465 99.4665 25.9256C98.9724 26.6853 98.4782 27.2209 97.9841 27.5325C97.4899 27.8442 97.0254 28 96.5906 28Z" fill="#1A1A1A"/>
<path d="M103.857 27.9708C103.146 27.9708 102.592 27.6689 102.197 27.0651C101.801 26.4613 101.604 25.575 101.604 24.4064C101.604 23.2961 101.762 22.1859 102.078 21.0757C102.394 19.946 102.829 18.8747 103.383 17.8619C103.936 16.849 104.559 15.9531 105.251 15.174C105.962 14.3949 106.703 13.7813 107.474 13.3333C108.265 12.8659 109.046 12.6321 109.817 12.6321C110.192 12.6321 110.548 12.71 110.884 12.8659C111.22 13.0022 111.497 13.2262 111.714 13.5378C111.833 13.7131 111.951 13.8008 112.07 13.8008C112.188 13.8008 112.307 13.7131 112.426 13.5378C112.643 13.2262 112.821 13.0314 112.959 12.9535C113.098 12.8561 113.226 12.8074 113.345 12.8074C113.602 12.8074 113.701 12.9438 113.641 13.2165L111.002 24.4064C110.706 25.6724 110.904 26.3054 111.595 26.3054C112.05 26.3054 112.455 26.0035 112.811 25.3997C113.187 24.7959 113.562 23.861 113.938 22.595C113.997 22.3807 114.125 22.2736 114.323 22.2736C114.461 22.2736 114.55 22.332 114.59 22.4489C114.63 22.5657 114.63 22.7021 114.59 22.8579C114.214 24.6888 113.71 26.0035 113.078 26.8021C112.445 27.5812 111.684 27.9708 110.795 27.9708C110.024 27.9708 109.471 27.6494 109.135 27.0066C108.818 26.3639 108.789 25.4874 109.046 24.3772L109.431 22.7703C109.471 22.6339 109.441 22.556 109.342 22.5365C109.263 22.517 109.194 22.5657 109.135 22.6826C108.047 24.6498 107.079 26.023 106.229 26.8021C105.399 27.5812 104.608 27.9708 103.857 27.9708ZM104.598 26.4807C105.073 26.4807 105.596 26.1983 106.17 25.6335C106.743 25.0686 107.306 24.3382 107.86 23.4422C108.433 22.5463 108.957 21.5821 109.431 20.5498C109.905 19.5175 110.281 18.5241 110.558 17.5697C110.854 16.6153 111.002 15.807 111.002 15.1448C111.002 13.9566 110.577 13.3625 109.728 13.3625C109.214 13.3625 108.67 13.5963 108.097 14.0637C107.524 14.5117 106.97 15.1253 106.437 15.9044C105.923 16.6835 105.448 17.5697 105.013 18.5631C104.598 19.537 104.262 20.5595 104.005 21.6308C103.748 22.6826 103.62 23.7149 103.62 24.7278C103.62 25.4095 103.699 25.8769 103.857 26.1301C104.035 26.3639 104.282 26.4807 104.598 26.4807Z" fill="#1A1A1A"/>
<path d="M118.404 27.9708C117.752 27.9708 117.06 27.8734 116.328 27.6786C115.617 27.4838 115.073 27.2404 114.698 26.9482C114.559 26.8313 114.5 26.656 114.52 26.4223L115.172 22.595C115.212 22.3417 115.33 22.2151 115.528 22.2151C115.745 22.2151 115.854 22.3515 115.854 22.6242L115.913 24.0266C115.953 25.1368 116.22 25.9548 116.714 26.4807C117.228 26.9872 117.85 27.2404 118.582 27.2404C119.214 27.2404 119.758 27.0456 120.212 26.656C120.667 26.247 120.894 25.6529 120.894 24.8738C120.894 24.4259 120.825 24.0168 120.687 23.6467C120.548 23.2572 120.331 22.8482 120.034 22.4197C119.738 21.9717 119.333 21.436 118.819 20.8127C118.147 19.9557 117.643 19.2253 117.307 18.6215C116.991 17.9982 116.832 17.3555 116.832 16.6932C116.832 15.4661 117.218 14.4825 117.989 13.7424C118.779 13.0022 119.778 12.6321 120.983 12.6321C121.517 12.6321 122.031 12.71 122.525 12.8659C123.039 13.0217 123.464 13.2554 123.8 13.5671C123.978 13.7034 124.037 13.8787 123.978 14.093L123.148 18.008C123.088 18.2612 122.97 18.3878 122.792 18.3878C122.614 18.3878 122.505 18.2514 122.466 17.9788L122.377 16.5764C122.298 15.4077 122.14 14.5702 121.902 14.0637C121.685 13.5573 121.22 13.3041 120.509 13.3041C119.876 13.3041 119.362 13.5184 118.967 13.9469C118.572 14.3754 118.374 14.8915 118.374 15.4954C118.374 16.1381 118.552 16.7322 118.908 17.2776C119.264 17.8035 119.748 18.4754 120.361 19.2935C121.171 20.3453 121.715 21.1828 121.991 21.8061C122.288 22.4294 122.436 23.0624 122.436 23.7052C122.436 24.5232 122.248 25.2537 121.873 25.8964C121.517 26.5392 121.033 27.0456 120.42 27.4157C119.807 27.7857 119.135 27.9708 118.404 27.9708Z" fill="#1A1A1A"/>
<path d="M10.2398 27.9708C9.84446 27.9708 9.39973 27.9318 8.90559 27.8539C8.4312 27.776 7.97659 27.6786 7.54174 27.5618C7.12666 27.4449 6.80052 27.3183 6.56333 27.1819C6.42497 27.104 6.31625 27.0261 6.23719 26.9482C6.17789 26.8508 6.14824 26.695 6.14824 26.4807L6 21.8938C6 21.5042 6.12848 21.3094 6.38543 21.3094C6.60286 21.3094 6.7511 21.4847 6.83017 21.8353L7.09701 22.9456C7.76905 25.7309 9.02418 27.1235 10.8624 27.1235C11.8507 27.1235 12.6315 26.8021 13.2047 26.1594C13.7976 25.4971 14.0941 24.5719 14.0941 23.3838C14.0941 22.2346 13.7878 21.1633 13.175 20.17C12.582 19.1766 11.6234 18.193 10.2991 17.2191C8.8364 16.1868 7.76905 15.1934 7.09701 14.239C6.42497 13.2652 6.08895 12.2328 6.08895 11.1421C6.08895 9.70075 6.59298 8.55157 7.60104 7.69455C8.62886 6.81806 9.93341 6.37981 11.5147 6.37981C12.1077 6.37981 12.6809 6.44799 13.2343 6.58433C13.7878 6.72067 14.2424 6.91545 14.5982 7.16866C14.7168 7.24657 14.8057 7.33422 14.865 7.43161C14.9441 7.529 14.9836 7.6556 14.9836 7.81142L15.0725 12.2231C15.0725 12.5542 14.9441 12.7198 14.6871 12.7198C14.5092 12.7198 14.3807 12.5834 14.3017 12.3108L14.0941 11.5803C13.6593 10.0806 13.2047 8.98982 12.7303 8.3081C12.2757 7.60691 11.6135 7.25631 10.7438 7.25631C9.89388 7.25631 9.21196 7.52899 8.69804 8.07437C8.2039 8.61974 7.95682 9.38911 7.95682 10.3825C7.95682 11.22 8.23354 12.0186 8.78699 12.7782C9.34043 13.5378 10.309 14.463 11.6926 15.5538C13.175 16.7419 14.2523 17.8911 14.9243 19.0013C15.6161 20.0921 15.962 21.2607 15.962 22.5073C15.962 23.5981 15.7149 24.5525 15.2208 25.3705C14.7266 26.1886 14.0447 26.8313 13.175 27.2988C12.3251 27.7468 11.3467 27.9708 10.2398 27.9708Z" stroke="#EFB5D4" stroke-width="12" stroke-miterlimit="2.85545" stroke-linejoin="round" mask="url(#path-1-outside-1_1089_120)"/>
<path d="M20.9201 27.9708C20.2283 27.9708 19.6551 27.7371 19.2004 27.2696C18.7656 26.7826 18.5482 25.9938 18.5482 24.9031V13.9761C18.5482 13.7424 18.4296 13.6255 18.1924 13.6255H17.3326C17.0163 13.6255 16.8582 13.5086 16.8582 13.2749C16.8582 13.1191 16.9471 12.9827 17.125 12.8659C17.7773 12.4179 18.3011 11.9407 18.6964 11.4343C19.0917 10.9084 19.4376 10.1974 19.7341 9.30146C19.8725 8.89243 20.0405 8.68792 20.2382 8.68792C20.4556 8.68792 20.5643 8.84374 20.5643 9.15538V12.3984C20.5643 12.6711 20.7027 12.8074 20.9794 12.8074H22.9065C23.2228 12.8074 23.3809 12.9438 23.3809 13.2165C23.3809 13.4892 23.2228 13.6255 22.9065 13.6255H20.9794C20.7027 13.6255 20.5643 13.7618 20.5643 14.0345V24.9323C20.5643 25.3608 20.6335 25.7016 20.7718 25.9548C20.9102 26.1886 21.1671 26.3054 21.5427 26.3054C21.9578 26.3054 22.2938 26.1009 22.5508 25.6919C22.8275 25.2829 23.0054 24.6206 23.0844 23.7052C23.124 23.4325 23.2525 23.2961 23.4699 23.2961C23.7071 23.2961 23.8257 23.4422 23.8257 23.7344C23.7664 25.2342 23.4501 26.3152 22.8769 26.9774C22.3235 27.6397 21.6712 27.9708 20.9201 27.9708Z" stroke="#EFB5D4" stroke-width="12" stroke-miterlimit="2.85545" stroke-linejoin="round" mask="url(#path-1-outside-1_1089_120)"/>
<path d="M28.7763 27.9708C28.2822 27.9708 27.8078 27.8637 27.3532 27.6494C26.8986 27.4352 26.523 27.0943 26.2265 26.6268C25.93 26.1594 25.7818 25.5361 25.7818 24.757V14.5896C25.7818 14.239 25.7225 13.9956 25.6039 13.8592C25.5051 13.7229 25.3173 13.645 25.0406 13.6255L24.5365 13.5671C24.2005 13.5281 24.0325 13.4015 24.0325 13.1873C24.0325 12.934 24.2203 12.8074 24.5958 12.8074H27.3532C27.6497 12.8074 27.7979 12.9535 27.7979 13.2457V24.1434C27.7979 25.0394 27.9659 25.6822 28.3019 26.0717C28.6577 26.4418 29.142 26.6268 29.7547 26.6268C30.3675 26.6268 30.911 26.4613 31.3854 26.1301C31.8598 25.7795 32.2353 25.3218 32.5121 24.757C32.8086 24.1726 32.9568 23.5396 32.9568 22.8579V14.5896C32.9568 14.239 32.8975 13.9956 32.7789 13.8592C32.6801 13.7229 32.4923 13.645 32.2156 13.6255L31.7116 13.5671C31.3755 13.5281 31.2075 13.4015 31.2075 13.1873C31.2075 12.934 31.3953 12.8074 31.7708 12.8074H34.5282C34.8247 12.8074 34.9729 12.9535 34.9729 13.2457V24.5817C34.9729 24.9323 35.0223 25.1757 35.1212 25.3121C35.2398 25.429 35.4374 25.5069 35.7141 25.5458L36.3368 25.6335C36.5937 25.6529 36.7222 25.7503 36.7222 25.9256C36.7222 26.1009 36.5641 26.2178 36.2478 26.2762C35.6351 26.3541 35.1409 26.51 34.7654 26.7437C34.4096 26.9774 34.0933 27.2598 33.8166 27.591C33.6387 27.7663 33.4905 27.8539 33.3719 27.8539C33.194 27.8539 33.105 27.7371 33.105 27.5033V26.1594C33.105 26.0035 33.0457 25.9159 32.9272 25.8964C32.8283 25.8575 32.7196 25.8964 32.601 26.0133C31.8697 26.734 31.2174 27.2404 30.6442 27.5325C30.0907 27.8247 29.4681 27.9708 28.7763 27.9708Z" stroke="#EFB5D4" stroke-width="12" stroke-miterlimit="2.85545" stroke-linejoin="round" mask="url(#path-1-outside-1_1089_120)"/>
<path d="M42.2399 27.9708C41.3702 27.9708 40.5894 27.6786 39.8976 27.0943C39.2256 26.4905 38.7018 25.6627 38.3263 24.6109C37.9507 23.5396 37.7629 22.3028 37.7629 20.9004C37.7629 19.2643 38.0199 17.8327 38.5338 16.6056C39.0477 15.359 39.7593 14.3851 40.6685 13.6839C41.5777 12.9827 42.6056 12.6321 43.752 12.6321C44.0287 12.6321 44.3054 12.6614 44.5822 12.7198C44.8589 12.7587 45.1257 12.8367 45.3827 12.9535C45.6989 13.1093 45.8571 13.0412 45.8571 12.749V9.0093C45.8571 8.6587 45.7978 8.41523 45.6792 8.27888C45.5803 8.14254 45.3926 8.06463 45.1158 8.04515L44.345 7.9575C44.1275 7.91855 44.0188 7.80168 44.0188 7.60691C44.0188 7.41213 44.1275 7.29526 44.345 7.25631C44.9775 7.13944 45.4815 7.0031 45.8571 6.84728C46.2524 6.69146 46.5785 6.53563 46.8355 6.37981C47.1517 6.18504 47.3889 6.08765 47.547 6.08765C47.7645 6.08765 47.8732 6.24347 47.8732 6.55511V24.9323C47.8732 25.7503 48.0807 26.1594 48.4958 26.1594C48.7528 26.1594 48.9899 25.9938 49.2074 25.6627C49.4248 25.3121 49.5335 24.7278 49.5335 23.9097C49.5335 23.5981 49.662 23.4422 49.9189 23.4422C50.1561 23.4422 50.2747 23.6078 50.2747 23.9389C50.2747 25.3608 50.0277 26.3931 49.5335 27.0359C49.0394 27.6591 48.476 27.9708 47.8435 27.9708C47.2703 27.9708 46.8355 27.7857 46.539 27.4157C46.2425 27.0261 46.0448 26.5684 45.946 26.0425C45.9262 25.8867 45.8571 25.8088 45.7385 25.8088C45.6199 25.7893 45.5112 25.8575 45.4123 26.0133C44.8589 26.7729 44.3548 27.2891 43.9002 27.5618C43.4456 27.8344 42.8922 27.9708 42.2399 27.9708ZM42.8922 26.6268C43.4061 26.6268 43.8805 26.4613 44.3153 26.1301C44.7699 25.7795 45.1356 25.3121 45.4123 24.7278C45.7088 24.1434 45.8571 23.4909 45.8571 22.7703V16.1965C45.8571 15.3201 45.6495 14.6286 45.2344 14.1222C44.8391 13.6158 44.3153 13.3625 43.663 13.3625C42.5561 13.3625 41.6568 14.0053 40.965 15.2908C40.293 16.5569 39.9569 18.2904 39.9569 20.4914C39.9569 22.4976 40.2139 24.0266 40.7278 25.0784C41.2615 26.1107 41.9829 26.6268 42.8922 26.6268Z" stroke="#EFB5D4" stroke-width="12" stroke-miterlimit="2.85545" stroke-linejoin="round" mask="url(#path-1-outside-1_1089_120)"/>
<path d="M53.5074 10.0319C53.0923 10.0319 52.7365 9.88579 52.44 9.59363C52.1633 9.30146 52.0249 8.93139 52.0249 8.4834C52.0249 8.03541 52.1633 7.67508 52.44 7.40239C52.7365 7.11023 53.0923 6.96414 53.5074 6.96414C53.9225 6.96414 54.2684 7.11023 54.5451 7.40239C54.8218 7.67508 54.9602 8.03541 54.9602 8.4834C54.9602 8.93139 54.8218 9.30146 54.5451 9.59363C54.2684 9.88579 53.9225 10.0319 53.5074 10.0319ZM51.0169 27.7078C50.7204 27.7078 50.5721 27.6007 50.5721 27.3865C50.5721 27.2112 50.7006 27.0943 50.9576 27.0359L51.3134 26.9774C51.8075 26.8995 52.1238 26.7826 52.2621 26.6268C52.4005 26.4515 52.4697 26.1594 52.4697 25.7503V15.9336C52.4697 15.583 52.4104 15.3493 52.2918 15.2324C52.1929 15.0961 52.0052 15.0084 51.7284 14.9695L51.1058 14.8818C50.8489 14.8623 50.7204 14.7552 50.7204 14.5604C50.7204 14.4046 50.8785 14.2975 51.1948 14.239C51.8075 14.1417 52.3017 13.9858 52.6772 13.7716C53.0528 13.5573 53.4184 13.2944 53.7742 12.9827C53.9521 12.8074 54.1004 12.7198 54.2189 12.7198C54.3968 12.7198 54.4858 12.8367 54.4858 13.0704V25.7503C54.4858 26.1594 54.5451 26.4515 54.6637 26.6268C54.7823 26.8021 55.0096 26.9093 55.3456 26.9482L56.0868 27.0359C56.3042 27.0748 56.413 27.1819 56.413 27.3572C56.413 27.591 56.2647 27.7078 55.9682 27.7078H51.0169Z" stroke="#EFB5D4" stroke-width="12" stroke-miterlimit="2.85545" stroke-linejoin="round" mask="url(#path-1-outside-1_1089_120)"/>
<path d="M62.4511 27.9708C61.4431 27.9708 60.5338 27.6397 59.7234 26.9774C58.9328 26.2957 58.3003 25.3705 57.8259 24.2019C57.3515 23.0332 57.1143 21.7282 57.1143 20.2869C57.1143 18.8455 57.3515 17.5502 57.8259 16.4011C58.3003 15.2519 58.9427 14.3364 59.7531 13.6547C60.5635 12.973 61.4628 12.6321 62.4511 12.6321C63.4592 12.6321 64.3585 12.973 65.1492 13.6547C65.9596 14.3364 66.602 15.2519 67.0763 16.4011C67.5507 17.5502 67.7879 18.8455 67.7879 20.2869C67.7879 21.7282 67.5507 23.0332 67.0763 24.2019C66.6217 25.3705 65.9892 26.2957 65.1788 26.9774C64.3684 27.6397 63.4592 27.9708 62.4511 27.9708ZM62.4511 27.2404C64.5068 27.2404 65.5346 24.9225 65.5346 20.2869C65.5346 15.6707 64.5068 13.3625 62.4511 13.3625C60.3955 13.3625 59.3676 15.6707 59.3676 20.2869C59.3676 24.9225 60.3955 27.2404 62.4511 27.2404Z" stroke="#EFB5D4" stroke-width="12" stroke-miterlimit="2.85545" stroke-linejoin="round" mask="url(#path-1-outside-1_1089_120)"/>
<path d="M72.3279 27.7078C72.0512 27.7078 71.9128 27.6104 71.9128 27.4157C71.9128 27.2014 72.1105 27.0651 72.5058 27.0066L73.0988 26.919C73.5336 26.8606 73.8301 26.7632 73.9882 26.6268C74.1661 26.471 74.2946 26.1886 74.3737 25.7795L78.4059 8.60027C78.5047 8.19124 78.5047 7.91855 78.4059 7.7822C78.3071 7.64586 78.06 7.53873 77.6647 7.46082L77.0717 7.34396C76.8148 7.28552 76.6863 7.1784 76.6863 7.02258C76.6863 6.78884 76.8642 6.67198 77.2199 6.67198H87.1227C87.6366 6.67198 87.8441 6.89597 87.7453 7.34396L86.8262 12.1939C86.7669 12.525 86.6087 12.6906 86.3518 12.6906C86.0751 12.6906 85.9565 12.564 85.996 12.3108L86.0849 11.2882C86.1838 10.2948 86.0948 9.51571 85.8181 8.95086C85.5611 8.38601 85.1658 7.98672 84.6322 7.75299C84.1182 7.51926 83.5154 7.40239 82.8236 7.40239C82.0329 7.40239 81.4597 7.51926 81.1039 7.75299C80.7482 7.96724 80.5011 8.35679 80.3627 8.92165L78.732 15.9628C78.6727 16.2355 78.7815 16.3718 79.0582 16.3718H80.5703C81.44 16.3718 82.0725 15.9141 82.4678 14.9987L83.1201 13.5378C83.2189 13.2846 83.377 13.158 83.5944 13.158C83.713 13.158 83.802 13.2067 83.8613 13.3041C83.9403 13.382 83.9601 13.4989 83.9206 13.6547L82.3788 20.2284C82.28 20.5595 82.112 20.7251 81.8748 20.7251C81.6376 20.7251 81.519 20.5985 81.519 20.3453L81.5487 18.9137C81.5684 18.232 81.4795 17.784 81.2818 17.5697C81.104 17.3555 80.7877 17.2483 80.3331 17.2483H78.8506C78.5541 17.2483 78.3763 17.3847 78.317 17.6574L76.5973 24.9907C76.4392 25.6919 76.5084 26.1983 76.8049 26.51C77.1014 26.8216 77.7339 26.9774 78.7024 26.9774C79.2954 26.9774 79.8785 26.8898 80.4517 26.7145C81.0446 26.5197 81.5981 26.1594 82.112 25.6335C82.6457 25.1076 83.1299 24.3479 83.5648 23.3546L84.2764 21.7185C84.3752 21.4652 84.5333 21.3386 84.7507 21.3386C85.0472 21.3386 85.1461 21.5042 85.0472 21.8353L83.5351 27.0359C83.4166 27.4838 83.1201 27.7078 82.6457 27.7078H72.3279Z" stroke="#EFB5D4" stroke-width="12" stroke-miterlimit="2.85545" stroke-linejoin="round" mask="url(#path-1-outside-1_1089_120)"/>
<path d="M88.3413 28C87.689 28 87.2245 27.7663 86.9478 27.2988C86.6711 26.8119 86.6612 26.023 86.9181 24.9323L90.6835 9.0093C90.7824 8.6587 90.7824 8.41523 90.6835 8.27888C90.6045 8.14254 90.4266 8.06463 90.1498 8.04515L89.2604 7.9575C88.9639 7.93803 88.8354 7.81142 88.875 7.57769C88.9145 7.40239 89.0528 7.29526 89.29 7.25631C90.0016 7.13944 90.6341 7.0031 91.1876 6.84728C91.741 6.67198 92.1857 6.44799 92.5218 6.1753C92.6799 6.05843 92.8281 6 92.9665 6C93.2037 6 93.2926 6.14608 93.2333 6.43825L88.8453 24.9615C88.7465 25.39 88.7267 25.7309 88.786 25.9841C88.8651 26.2178 89.0528 26.3347 89.3493 26.3347C89.7051 26.3347 90.0905 26.0815 90.5056 25.575C90.9405 25.0491 91.4247 24.0655 91.9584 22.6242C92.0375 22.371 92.1758 22.2444 92.3735 22.2444C92.67 22.2444 92.7491 22.4197 92.6107 22.7703C92.1956 24.0947 91.7311 25.1465 91.2172 25.9256C90.7231 26.6853 90.2289 27.2209 89.7348 27.5325C89.2406 27.8442 88.7761 28 88.3413 28Z" stroke="#EFB5D4" stroke-width="12" stroke-miterlimit="2.85545" stroke-linejoin="round" mask="url(#path-1-outside-1_1089_120)"/>
<path d="M99.0218 10.0319C98.6462 10.0319 98.33 9.90527 98.073 9.65206C97.8358 9.37937 97.7172 9.05799 97.7172 8.68792C97.7172 8.16202 97.8754 7.74325 98.1916 7.43161C98.5276 7.11996 98.9032 6.96414 99.3183 6.96414C99.7136 6.96414 100.04 7.09075 100.297 7.34396C100.573 7.57769 100.712 7.88933 100.712 8.27888C100.712 8.82426 100.544 9.25277 100.208 9.56441C99.8717 9.87605 99.4764 10.0319 99.0218 10.0319ZM96.5906 28C95.9383 28 95.4738 27.7663 95.1971 27.2988C94.9204 26.8119 94.9105 26.023 95.1674 24.9323L97.3615 15.6707C97.4603 15.2421 97.4702 14.911 97.3911 14.6773C97.3318 14.4241 97.1539 14.2975 96.8574 14.2975C96.5016 14.2975 96.1063 14.5604 95.6715 15.0863C95.2564 15.5927 94.782 16.5666 94.2483 18.008C94.1693 18.2612 94.0309 18.3878 93.8332 18.3878C93.5368 18.3878 93.4577 18.2125 93.5961 17.8619C94.0309 16.5179 94.4855 15.4661 94.9599 14.7065C95.4541 13.9469 95.9482 13.4112 96.4423 13.0996C96.9365 12.788 97.3911 12.6321 97.8062 12.6321C98.498 12.6321 98.9823 12.8756 99.259 13.3625C99.5357 13.83 99.5456 14.6091 99.2886 15.6999L97.0946 24.9615C96.9958 25.39 96.976 25.7309 97.0353 25.9841C97.1144 26.2178 97.3022 26.3347 97.5986 26.3347C97.9544 26.3347 98.3399 26.0815 98.755 25.575C99.1898 25.0491 99.6741 24.0655 100.208 22.6242C100.287 22.371 100.425 22.2444 100.623 22.2444C100.919 22.2444 100.998 22.4197 100.86 22.7703C100.445 24.0947 99.9804 25.1465 99.4665 25.9256C98.9724 26.6853 98.4782 27.2209 97.9841 27.5325C97.4899 27.8442 97.0254 28 96.5906 28Z" stroke="#EFB5D4" stroke-width="12" stroke-miterlimit="2.85545" stroke-linejoin="round" mask="url(#path-1-outside-1_1089_120)"/>
<path d="M103.857 27.9708C103.146 27.9708 102.592 27.6689 102.197 27.0651C101.801 26.4613 101.604 25.575 101.604 24.4064C101.604 23.2961 101.762 22.1859 102.078 21.0757C102.394 19.946 102.829 18.8747 103.383 17.8619C103.936 16.849 104.559 15.9531 105.251 15.174C105.962 14.3949 106.703 13.7813 107.474 13.3333C108.265 12.8659 109.046 12.6321 109.817 12.6321C110.192 12.6321 110.548 12.71 110.884 12.8659C111.22 13.0022 111.497 13.2262 111.714 13.5378C111.833 13.7131 111.951 13.8008 112.07 13.8008C112.188 13.8008 112.307 13.7131 112.426 13.5378C112.643 13.2262 112.821 13.0314 112.959 12.9535C113.098 12.8561 113.226 12.8074 113.345 12.8074C113.602 12.8074 113.701 12.9438 113.641 13.2165L111.002 24.4064C110.706 25.6724 110.904 26.3054 111.595 26.3054C112.05 26.3054 112.455 26.0035 112.811 25.3997C113.187 24.7959 113.562 23.861 113.938 22.595C113.997 22.3807 114.125 22.2736 114.323 22.2736C114.461 22.2736 114.55 22.332 114.59 22.4489C114.63 22.5657 114.63 22.7021 114.59 22.8579C114.214 24.6888 113.71 26.0035 113.078 26.8021C112.445 27.5812 111.684 27.9708 110.795 27.9708C110.024 27.9708 109.471 27.6494 109.135 27.0066C108.818 26.3639 108.789 25.4874 109.046 24.3772L109.431 22.7703C109.471 22.6339 109.441 22.556 109.342 22.5365C109.263 22.517 109.194 22.5657 109.135 22.6826C108.047 24.6498 107.079 26.023 106.229 26.8021C105.399 27.5812 104.608 27.9708 103.857 27.9708ZM104.598 26.4807C105.073 26.4807 105.596 26.1983 106.17 25.6335C106.743 25.0686 107.306 24.3382 107.86 23.4422C108.433 22.5463 108.957 21.5821 109.431 20.5498C109.905 19.5175 110.281 18.5241 110.558 17.5697C110.854 16.6153 111.002 15.807 111.002 15.1448C111.002 13.9566 110.577 13.3625 109.728 13.3625C109.214 13.3625 108.67 13.5963 108.097 14.0637C107.524 14.5117 106.97 15.1253 106.437 15.9044C105.923 16.6835 105.448 17.5697 105.013 18.5631C104.598 19.537 104.262 20.5595 104.005 21.6308C103.748 22.6826 103.62 23.7149 103.62 24.7278C103.62 25.4095 103.699 25.8769 103.857 26.1301C104.035 26.3639 104.282 26.4807 104.598 26.4807Z" stroke="#EFB5D4" stroke-width="12" stroke-miterlimit="2.85545" stroke-linejoin="round" mask="url(#path-1-outside-1_1089_120)"/>
<path d="M118.404 27.9708C117.752 27.9708 117.06 27.8734 116.328 27.6786C115.617 27.4838 115.073 27.2404 114.698 26.9482C114.559 26.8313 114.5 26.656 114.52 26.4223L115.172 22.595C115.212 22.3417 115.33 22.2151 115.528 22.2151C115.745 22.2151 115.854 22.3515 115.854 22.6242L115.913 24.0266C115.953 25.1368 116.22 25.9548 116.714 26.4807C117.228 26.9872 117.85 27.2404 118.582 27.2404C119.214 27.2404 119.758 27.0456 120.212 26.656C120.667 26.247 120.894 25.6529 120.894 24.8738C120.894 24.4259 120.825 24.0168 120.687 23.6467C120.548 23.2572 120.331 22.8482 120.034 22.4197C119.738 21.9717 119.333 21.436 118.819 20.8127C118.147 19.9557 117.643 19.2253 117.307 18.6215C116.991 17.9982 116.832 17.3555 116.832 16.6932C116.832 15.4661 117.218 14.4825 117.989 13.7424C118.779 13.0022 119.778 12.6321 120.983 12.6321C121.517 12.6321 122.031 12.71 122.525 12.8659C123.039 13.0217 123.464 13.2554 123.8 13.5671C123.978 13.7034 124.037 13.8787 123.978 14.093L123.148 18.008C123.088 18.2612 122.97 18.3878 122.792 18.3878C122.614 18.3878 122.505 18.2514 122.466 17.9788L122.377 16.5764C122.298 15.4077 122.14 14.5702 121.902 14.0637C121.685 13.5573 121.22 13.3041 120.509 13.3041C119.876 13.3041 119.362 13.5184 118.967 13.9469C118.572 14.3754 118.374 14.8915 118.374 15.4954C118.374 16.1381 118.552 16.7322 118.908 17.2776C119.264 17.8035 119.748 18.4754 120.361 19.2935C121.171 20.3453 121.715 21.1828 121.991 21.8061C122.288 22.4294 122.436 23.0624 122.436 23.7052C122.436 24.5232 122.248 25.2537 121.873 25.8964C121.517 26.5392 121.033 27.0456 120.42 27.4157C119.807 27.7857 119.135 27.9708 118.404 27.9708Z" stroke="#EFB5D4" stroke-width="12" stroke-miterlimit="2.85545" stroke-linejoin="round" mask="url(#path-1-outside-1_1089_120)"/>
</svg>
