<svg width="154" height="34" viewBox="0 0 154 34" fill="none" xmlns="http://www.w3.org/2000/svg">
<mask id="path-1-outside-1_1089_125" maskUnits="userSpaceOnUse" x="0" y="0" width="154" height="34" fill="black">
<rect fill="white" width="154" height="34"/>
<path d="M21.9633 12.4408L17.3658 7.97132L15.9786 9.355L15.4106 9.94408L10.5633 14.6509C8.24521 17.1476 8.35078 20.9904 10.8146 23.3843C11.7736 24.315 12.9646 24.92 14.2404 25.1501C14.85 25.2601 15.4121 24.7999 15.4121 24.1963C15.4121 23.7245 15.0611 23.3279 14.5853 23.2425C13.7006 23.0847 12.8962 22.6722 12.242 22.0339C10.4979 20.3376 10.4979 17.5326 12.242 15.8291L15.4121 12.7433L16.838 11.3596L17.406 10.7705L20.576 13.8563C21.9633 15.2067 22.7157 17.0058 22.7157 18.9149C22.7157 20.8239 21.9291 22.6216 20.576 23.9734C19.1888 25.3238 17.3331 26.0547 15.3719 26.0547C14.3742 26.0547 13.4493 25.8811 12.5587 25.4975C11.6666 25.1516 10.8815 24.5943 10.1678 23.9416C8.7805 22.5912 8.02813 20.7921 8.02813 18.883C8.02813 16.9739 8.77455 15.1763 10.1678 13.8245L11.6666 12.3322L16.7651 7.38224L15.3392 6L8.74035 12.4408C6.92485 14.2153 6 16.5643 6 18.8888C6 21.2133 6.92485 23.5624 8.74035 25.3296C10.5231 27.065 12.8754 28 15.3719 28C17.8684 28 20.2192 27.065 22.0035 25.3296C25.6359 21.7951 25.6359 16.0071 22.0035 12.4408H21.9633Z"/>
<path d="M32.6214 20.4026V20.3578H34.3373V20.6472C34.3373 22.2726 35.0242 23.0557 37.769 23.0557C40.0261 23.0557 40.6135 22.4333 40.6135 21.2378C40.6135 20.0422 39.8552 19.6124 38.0129 19.2795L35.9996 18.9451C34.0399 18.5862 32.614 17.7062 32.614 15.6249C32.614 13.5436 34.3834 12.2337 37.2546 12.2337C40.1258 12.2337 42.0662 13.6203 42.0662 16.2661V16.3876H40.3756V16.1951C40.3756 14.7883 39.815 13.71 37.207 13.71C34.996 13.71 34.309 14.4033 34.309 15.5974C34.309 16.7915 34.9231 17.1967 36.7386 17.5296L38.798 17.9088C40.9109 18.2938 42.31 19.1999 42.31 21.1582C42.31 23.2583 40.5406 24.4972 37.7482 24.4972C34.4354 24.4972 32.6199 23.1353 32.6199 20.394V20.3997L32.6214 20.4026Z"/>
<path d="M46.4703 24.2689L43.3552 12.4786H45.2228L47.1379 20.1656L47.6271 22.7216H47.7728L48.5846 20.1656L51.3562 12.4786H53.6862L56.5053 20.1656L57.2651 22.7216H57.4109L57.9 20.1656L59.8137 12.4786H61.6292L58.5141 24.2689H56.2109L53.4854 16.8193L52.574 14.0259H52.4283L51.5168 16.8193L48.7705 24.2689H46.4673H46.4747H46.4703Z"/>
<path d="M62.5511 18.3737C62.5511 14.79 64.7354 12.2412 68.1954 12.2412C71.1127 12.2412 73.5229 13.9621 73.5229 17.4431C73.5229 17.9887 73.4768 18.5156 73.398 18.8499H64.2224C64.2953 21.4508 65.351 22.9792 68.2489 22.9792C70.7053 22.9792 71.6822 21.9067 71.6822 20.4753V20.3334H73.4248V20.4999C73.4248 22.7665 71.3119 24.5135 68.2236 24.5135C64.4945 24.5135 62.5541 21.9574 62.5541 18.3809V18.3752L62.5511 18.3737ZM64.2209 17.6095H71.8517C71.9513 14.8161 70.5254 13.7175 68.1493 13.7175C65.4491 13.7175 64.3666 15.2199 64.2224 17.6095H64.2209Z"/>
<path d="M75.2433 21.4302C75.2433 19.375 76.815 18.4704 79.4616 18.11L83.732 17.5383V16.6771C83.732 14.603 82.8205 13.7679 80.5441 13.7679C78.2677 13.7679 77.3027 14.603 77.3027 16.4904V16.8493H75.6061V16.6568C75.6061 14.1977 77.5465 12.238 80.6883 12.238C83.8302 12.238 85.4018 14.2672 85.4018 16.8942V24.2729H83.8049V22.1018L83.68 22.0758C82.9663 23.4377 81.4229 24.5102 79.1182 24.5102C76.8135 24.5102 75.2433 23.4117 75.2433 21.4273V21.4302ZM79.6074 23.0744C81.6935 23.0744 83.7335 22.0208 83.7335 19.2346V18.8293L79.6074 19.401C77.667 19.6644 76.9607 20.0436 76.9607 21.3086C76.9607 22.5736 77.7458 23.0744 79.6074 23.0744Z"/>
<path d="M88.7622 20.9238V13.9562H86.7222V12.4798H88.7815L89.1978 9.4751H90.5242V12.4798H94.3529V13.9562H90.5242V21.0193C90.5242 22.4059 91.1843 22.7142 92.7545 22.7142H94.3514V24.1008C93.9351 24.1717 93.1768 24.2933 92.2921 24.2933C90.0602 24.2933 88.7607 23.4321 88.7607 20.9281V20.9223L88.7622 20.9238Z"/>
<path d="M96.0435 24.2688V12.4786H97.6404V14.9131H97.7133C98.1817 13.6741 99.4559 12.2412 101.957 12.2412C104.168 12.2412 105.488 13.2688 106.03 14.9377H106.102C106.59 13.6727 107.845 12.2412 110.346 12.2412C113.461 12.2412 114.887 14.1995 114.887 17.0132V24.2703H113.144V17.4184C113.144 14.8624 112.26 13.745 109.805 13.745C107.502 13.745 106.346 14.8436 106.346 17.4691V24.2703H104.604V17.4184C104.604 14.8624 103.746 13.745 101.289 13.745C98.9861 13.745 97.804 14.8436 97.804 17.4691V24.2703H96.0346H96.0405L96.0435 24.2688Z"/>
<path d="M117.034 21.4302C117.034 19.375 118.606 18.4704 121.252 18.11L125.523 17.5383V16.6771C125.523 14.603 124.611 13.7679 122.335 13.7679C120.058 13.7679 119.093 14.603 119.093 16.4904V16.8493H117.404V16.6568C117.404 14.1977 119.345 12.238 122.481 12.238C125.616 12.238 127.194 14.2672 127.194 16.8942V24.2729H125.597V22.1018L125.472 22.0758C124.76 23.4377 123.215 24.5102 120.91 24.5102C118.606 24.5102 117.035 23.4117 117.035 21.4273L117.034 21.4302ZM121.404 23.0744C123.49 23.0744 125.53 22.0208 125.53 19.2346V18.8293L121.404 19.401C119.464 19.6644 118.757 20.0436 118.757 21.3086C118.757 22.5736 119.542 23.0744 121.404 23.0744Z"/>
<path d="M130.559 20.9238V13.9562H128.519V12.4798H130.578L130.994 9.4751H132.321V12.4798H136.149V13.9562H132.321V21.0193C132.321 22.4059 132.981 22.7142 134.553 22.7142H136.149V24.1008C135.733 24.1717 134.975 24.2933 134.09 24.2933C131.858 24.2933 130.559 23.4321 130.559 20.9281V20.9223V20.9238Z"/>
<path d="M137.028 18.3737C137.028 14.79 139.212 12.2412 142.672 12.2412C145.59 12.2412 148 13.9621 148 17.4431C148 17.9887 147.954 18.5156 147.875 18.8499H138.699C138.772 21.4508 139.828 22.9792 142.726 22.9792C145.182 22.9792 146.159 21.9067 146.159 20.4753V20.3334H147.902V20.4999C147.902 22.7665 145.789 24.5135 142.701 24.5135C138.972 24.5135 137.031 21.9574 137.031 18.3809V18.3752L137.028 18.3737ZM138.692 17.6095H146.323C146.422 14.8161 144.996 13.7175 142.619 13.7175C139.919 13.7175 138.836 15.2199 138.692 17.6095Z"/>
</mask>
<path d="M21.9633 12.4408L17.3658 7.97132L15.9786 9.355L15.4106 9.94408L10.5633 14.6509C8.24521 17.1476 8.35078 20.9904 10.8146 23.3843C11.7736 24.315 12.9646 24.92 14.2404 25.1501C14.85 25.2601 15.4121 24.7999 15.4121 24.1963C15.4121 23.7245 15.0611 23.3279 14.5853 23.2425C13.7006 23.0847 12.8962 22.6722 12.242 22.0339C10.4979 20.3376 10.4979 17.5326 12.242 15.8291L15.4121 12.7433L16.838 11.3596L17.406 10.7705L20.576 13.8563C21.9633 15.2067 22.7157 17.0058 22.7157 18.9149C22.7157 20.8239 21.9291 22.6216 20.576 23.9734C19.1888 25.3238 17.3331 26.0547 15.3719 26.0547C14.3742 26.0547 13.4493 25.8811 12.5587 25.4975C11.6666 25.1516 10.8815 24.5943 10.1678 23.9416C8.7805 22.5912 8.02813 20.7921 8.02813 18.883C8.02813 16.9739 8.77455 15.1763 10.1678 13.8245L11.6666 12.3322L16.7651 7.38224L15.3392 6L8.74035 12.4408C6.92485 14.2153 6 16.5643 6 18.8888C6 21.2133 6.92485 23.5624 8.74035 25.3296C10.5231 27.065 12.8754 28 15.3719 28C17.8684 28 20.2192 27.065 22.0035 25.3296C25.6359 21.7951 25.6359 16.0071 22.0035 12.4408H21.9633Z" fill="#EFEBE7"/>
<path d="M32.6214 20.4026V20.3578H34.3373V20.6472C34.3373 22.2726 35.0242 23.0557 37.769 23.0557C40.0261 23.0557 40.6135 22.4333 40.6135 21.2378C40.6135 20.0422 39.8552 19.6124 38.0129 19.2795L35.9996 18.9451C34.0399 18.5862 32.614 17.7062 32.614 15.6249C32.614 13.5436 34.3834 12.2337 37.2546 12.2337C40.1258 12.2337 42.0662 13.6203 42.0662 16.2661V16.3876H40.3756V16.1951C40.3756 14.7883 39.815 13.71 37.207 13.71C34.996 13.71 34.309 14.4033 34.309 15.5974C34.309 16.7915 34.9231 17.1967 36.7386 17.5296L38.798 17.9088C40.9109 18.2938 42.31 19.1999 42.31 21.1582C42.31 23.2583 40.5406 24.4972 37.7482 24.4972C34.4354 24.4972 32.6199 23.1353 32.6199 20.394V20.3997L32.6214 20.4026Z" fill="#EFEBE7"/>
<path d="M46.4703 24.2689L43.3552 12.4786H45.2228L47.1379 20.1656L47.6271 22.7216H47.7728L48.5846 20.1656L51.3562 12.4786H53.6862L56.5053 20.1656L57.2651 22.7216H57.4109L57.9 20.1656L59.8137 12.4786H61.6292L58.5141 24.2689H56.2109L53.4854 16.8193L52.574 14.0259H52.4283L51.5168 16.8193L48.7705 24.2689H46.4673H46.4747H46.4703Z" fill="#EFEBE7"/>
<path d="M62.5511 18.3737C62.5511 14.79 64.7354 12.2412 68.1954 12.2412C71.1127 12.2412 73.5229 13.9621 73.5229 17.4431C73.5229 17.9887 73.4768 18.5156 73.398 18.8499H64.2224C64.2953 21.4508 65.351 22.9792 68.2489 22.9792C70.7053 22.9792 71.6822 21.9067 71.6822 20.4753V20.3334H73.4248V20.4999C73.4248 22.7665 71.3119 24.5135 68.2236 24.5135C64.4945 24.5135 62.5541 21.9574 62.5541 18.3809V18.3752L62.5511 18.3737ZM64.2209 17.6095H71.8517C71.9513 14.8161 70.5254 13.7175 68.1493 13.7175C65.4491 13.7175 64.3666 15.2199 64.2224 17.6095H64.2209Z" fill="#EFEBE7"/>
<path d="M75.2433 21.4302C75.2433 19.375 76.815 18.4704 79.4616 18.11L83.732 17.5383V16.6771C83.732 14.603 82.8205 13.7679 80.5441 13.7679C78.2677 13.7679 77.3027 14.603 77.3027 16.4904V16.8493H75.6061V16.6568C75.6061 14.1977 77.5465 12.238 80.6883 12.238C83.8302 12.238 85.4018 14.2672 85.4018 16.8942V24.2729H83.8049V22.1018L83.68 22.0758C82.9663 23.4377 81.4229 24.5102 79.1182 24.5102C76.8135 24.5102 75.2433 23.4117 75.2433 21.4273V21.4302ZM79.6074 23.0744C81.6935 23.0744 83.7335 22.0208 83.7335 19.2346V18.8293L79.6074 19.401C77.667 19.6644 76.9607 20.0436 76.9607 21.3086C76.9607 22.5736 77.7458 23.0744 79.6074 23.0744Z" fill="#EFEBE7"/>
<path d="M88.7622 20.9238V13.9562H86.7222V12.4798H88.7815L89.1978 9.4751H90.5242V12.4798H94.3529V13.9562H90.5242V21.0193C90.5242 22.4059 91.1843 22.7142 92.7545 22.7142H94.3514V24.1008C93.9351 24.1717 93.1768 24.2933 92.2921 24.2933C90.0602 24.2933 88.7607 23.4321 88.7607 20.9281V20.9223L88.7622 20.9238Z" fill="#EFEBE7"/>
<path d="M96.0435 24.2688V12.4786H97.6404V14.9131H97.7133C98.1817 13.6741 99.4559 12.2412 101.957 12.2412C104.168 12.2412 105.488 13.2688 106.03 14.9377H106.102C106.59 13.6727 107.845 12.2412 110.346 12.2412C113.461 12.2412 114.887 14.1995 114.887 17.0132V24.2703H113.144V17.4184C113.144 14.8624 112.26 13.745 109.805 13.745C107.502 13.745 106.346 14.8436 106.346 17.4691V24.2703H104.604V17.4184C104.604 14.8624 103.746 13.745 101.289 13.745C98.9861 13.745 97.804 14.8436 97.804 17.4691V24.2703H96.0346H96.0405L96.0435 24.2688Z" fill="#EFEBE7"/>
<path d="M117.034 21.4302C117.034 19.375 118.606 18.4704 121.252 18.11L125.523 17.5383V16.6771C125.523 14.603 124.611 13.7679 122.335 13.7679C120.058 13.7679 119.093 14.603 119.093 16.4904V16.8493H117.404V16.6568C117.404 14.1977 119.345 12.238 122.481 12.238C125.616 12.238 127.194 14.2672 127.194 16.8942V24.2729H125.597V22.1018L125.472 22.0758C124.76 23.4377 123.215 24.5102 120.91 24.5102C118.606 24.5102 117.035 23.4117 117.035 21.4273L117.034 21.4302ZM121.404 23.0744C123.49 23.0744 125.53 22.0208 125.53 19.2346V18.8293L121.404 19.401C119.464 19.6644 118.757 20.0436 118.757 21.3086C118.757 22.5736 119.542 23.0744 121.404 23.0744Z" fill="#EFEBE7"/>
<path d="M130.559 20.9238V13.9562H128.519V12.4798H130.578L130.994 9.4751H132.321V12.4798H136.149V13.9562H132.321V21.0193C132.321 22.4059 132.981 22.7142 134.553 22.7142H136.149V24.1008C135.733 24.1717 134.975 24.2933 134.09 24.2933C131.858 24.2933 130.559 23.4321 130.559 20.9281V20.9223V20.9238Z" fill="#EFEBE7"/>
<path d="M137.028 18.3737C137.028 14.79 139.212 12.2412 142.672 12.2412C145.59 12.2412 148 13.9621 148 17.4431C148 17.9887 147.954 18.5156 147.875 18.8499H138.699C138.772 21.4508 139.828 22.9792 142.726 22.9792C145.182 22.9792 146.159 21.9067 146.159 20.4753V20.3334H147.902V20.4999C147.902 22.7665 145.789 24.5135 142.701 24.5135C138.972 24.5135 137.031 21.9574 137.031 18.3809V18.3752L137.028 18.3737ZM138.692 17.6095H146.323C146.422 14.8161 144.996 13.7175 142.619 13.7175C139.919 13.7175 138.836 15.2199 138.692 17.6095Z" fill="#EFEBE7"/>
<path d="M21.9633 12.4408L17.3658 7.97132L15.9786 9.355L15.4106 9.94408L10.5633 14.6509C8.24521 17.1476 8.35078 20.9904 10.8146 23.3843C11.7736 24.315 12.9646 24.92 14.2404 25.1501C14.85 25.2601 15.4121 24.7999 15.4121 24.1963C15.4121 23.7245 15.0611 23.3279 14.5853 23.2425C13.7006 23.0847 12.8962 22.6722 12.242 22.0339C10.4979 20.3376 10.4979 17.5326 12.242 15.8291L15.4121 12.7433L16.838 11.3596L17.406 10.7705L20.576 13.8563C21.9633 15.2067 22.7157 17.0058 22.7157 18.9149C22.7157 20.8239 21.9291 22.6216 20.576 23.9734C19.1888 25.3238 17.3331 26.0547 15.3719 26.0547C14.3742 26.0547 13.4493 25.8811 12.5587 25.4975C11.6666 25.1516 10.8815 24.5943 10.1678 23.9416C8.7805 22.5912 8.02813 20.7921 8.02813 18.883C8.02813 16.9739 8.77455 15.1763 10.1678 13.8245L11.6666 12.3322L16.7651 7.38224L15.3392 6L8.74035 12.4408C6.92485 14.2153 6 16.5643 6 18.8888C6 21.2133 6.92485 23.5624 8.74035 25.3296C10.5231 27.065 12.8754 28 15.3719 28C17.8684 28 20.2192 27.065 22.0035 25.3296C25.6359 21.7951 25.6359 16.0071 22.0035 12.4408H21.9633Z" stroke="#E47249" stroke-width="12" stroke-linejoin="round" mask="url(#path-1-outside-1_1089_125)"/>
<path d="M32.6214 20.4026V20.3578H34.3373V20.6472C34.3373 22.2726 35.0242 23.0557 37.769 23.0557C40.0261 23.0557 40.6135 22.4333 40.6135 21.2378C40.6135 20.0422 39.8552 19.6124 38.0129 19.2795L35.9996 18.9451C34.0399 18.5862 32.614 17.7062 32.614 15.6249C32.614 13.5436 34.3834 12.2337 37.2546 12.2337C40.1258 12.2337 42.0662 13.6203 42.0662 16.2661V16.3876H40.3756V16.1951C40.3756 14.7883 39.815 13.71 37.207 13.71C34.996 13.71 34.309 14.4033 34.309 15.5974C34.309 16.7915 34.9231 17.1967 36.7386 17.5296L38.798 17.9088C40.9109 18.2938 42.31 19.1999 42.31 21.1582C42.31 23.2583 40.5406 24.4972 37.7482 24.4972C34.4354 24.4972 32.6199 23.1353 32.6199 20.394V20.3997L32.6214 20.4026Z" stroke="#E47249" stroke-width="12" stroke-linejoin="round" mask="url(#path-1-outside-1_1089_125)"/>
<path d="M46.4703 24.2689L43.3552 12.4786H45.2228L47.1379 20.1656L47.6271 22.7216H47.7728L48.5846 20.1656L51.3562 12.4786H53.6862L56.5053 20.1656L57.2651 22.7216H57.4109L57.9 20.1656L59.8137 12.4786H61.6292L58.5141 24.2689H56.2109L53.4854 16.8193L52.574 14.0259H52.4283L51.5168 16.8193L48.7705 24.2689H46.4673H46.4747H46.4703Z" stroke="#E47249" stroke-width="12" stroke-linejoin="round" mask="url(#path-1-outside-1_1089_125)"/>
<path d="M62.5511 18.3737C62.5511 14.79 64.7354 12.2412 68.1954 12.2412C71.1127 12.2412 73.5229 13.9621 73.5229 17.4431C73.5229 17.9887 73.4768 18.5156 73.398 18.8499H64.2224C64.2953 21.4508 65.351 22.9792 68.2489 22.9792C70.7053 22.9792 71.6822 21.9067 71.6822 20.4753V20.3334H73.4248V20.4999C73.4248 22.7665 71.3119 24.5135 68.2236 24.5135C64.4945 24.5135 62.5541 21.9574 62.5541 18.3809V18.3752L62.5511 18.3737ZM64.2209 17.6095H71.8517C71.9513 14.8161 70.5254 13.7175 68.1493 13.7175C65.4491 13.7175 64.3666 15.2199 64.2224 17.6095H64.2209Z" stroke="#E47249" stroke-width="12" stroke-linejoin="round" mask="url(#path-1-outside-1_1089_125)"/>
<path d="M75.2433 21.4302C75.2433 19.375 76.815 18.4704 79.4616 18.11L83.732 17.5383V16.6771C83.732 14.603 82.8205 13.7679 80.5441 13.7679C78.2677 13.7679 77.3027 14.603 77.3027 16.4904V16.8493H75.6061V16.6568C75.6061 14.1977 77.5465 12.238 80.6883 12.238C83.8302 12.238 85.4018 14.2672 85.4018 16.8942V24.2729H83.8049V22.1018L83.68 22.0758C82.9663 23.4377 81.4229 24.5102 79.1182 24.5102C76.8135 24.5102 75.2433 23.4117 75.2433 21.4273V21.4302ZM79.6074 23.0744C81.6935 23.0744 83.7335 22.0208 83.7335 19.2346V18.8293L79.6074 19.401C77.667 19.6644 76.9607 20.0436 76.9607 21.3086C76.9607 22.5736 77.7458 23.0744 79.6074 23.0744Z" stroke="#E47249" stroke-width="12" stroke-linejoin="round" mask="url(#path-1-outside-1_1089_125)"/>
<path d="M88.7622 20.9238V13.9562H86.7222V12.4798H88.7815L89.1978 9.4751H90.5242V12.4798H94.3529V13.9562H90.5242V21.0193C90.5242 22.4059 91.1843 22.7142 92.7545 22.7142H94.3514V24.1008C93.9351 24.1717 93.1768 24.2933 92.2921 24.2933C90.0602 24.2933 88.7607 23.4321 88.7607 20.9281V20.9223L88.7622 20.9238Z" stroke="#E47249" stroke-width="12" stroke-linejoin="round" mask="url(#path-1-outside-1_1089_125)"/>
<path d="M96.0435 24.2688V12.4786H97.6404V14.9131H97.7133C98.1817 13.6741 99.4559 12.2412 101.957 12.2412C104.168 12.2412 105.488 13.2688 106.03 14.9377H106.102C106.59 13.6727 107.845 12.2412 110.346 12.2412C113.461 12.2412 114.887 14.1995 114.887 17.0132V24.2703H113.144V17.4184C113.144 14.8624 112.26 13.745 109.805 13.745C107.502 13.745 106.346 14.8436 106.346 17.4691V24.2703H104.604V17.4184C104.604 14.8624 103.746 13.745 101.289 13.745C98.9861 13.745 97.804 14.8436 97.804 17.4691V24.2703H96.0346H96.0405L96.0435 24.2688Z" stroke="#E47249" stroke-width="12" stroke-linejoin="round" mask="url(#path-1-outside-1_1089_125)"/>
<path d="M117.034 21.4302C117.034 19.375 118.606 18.4704 121.252 18.11L125.523 17.5383V16.6771C125.523 14.603 124.611 13.7679 122.335 13.7679C120.058 13.7679 119.093 14.603 119.093 16.4904V16.8493H117.404V16.6568C117.404 14.1977 119.345 12.238 122.481 12.238C125.616 12.238 127.194 14.2672 127.194 16.8942V24.2729H125.597V22.1018L125.472 22.0758C124.76 23.4377 123.215 24.5102 120.91 24.5102C118.606 24.5102 117.035 23.4117 117.035 21.4273L117.034 21.4302ZM121.404 23.0744C123.49 23.0744 125.53 22.0208 125.53 19.2346V18.8293L121.404 19.401C119.464 19.6644 118.757 20.0436 118.757 21.3086C118.757 22.5736 119.542 23.0744 121.404 23.0744Z" stroke="#E47249" stroke-width="12" stroke-linejoin="round" mask="url(#path-1-outside-1_1089_125)"/>
<path d="M130.559 20.9238V13.9562H128.519V12.4798H130.578L130.994 9.4751H132.321V12.4798H136.149V13.9562H132.321V21.0193C132.321 22.4059 132.981 22.7142 134.553 22.7142H136.149V24.1008C135.733 24.1717 134.975 24.2933 134.09 24.2933C131.858 24.2933 130.559 23.4321 130.559 20.9281V20.9223V20.9238Z" stroke="#E47249" stroke-width="12" stroke-linejoin="round" mask="url(#path-1-outside-1_1089_125)"/>
<path d="M137.028 18.3737C137.028 14.79 139.212 12.2412 142.672 12.2412C145.59 12.2412 148 13.9621 148 17.4431C148 17.9887 147.954 18.5156 147.875 18.8499H138.699C138.772 21.4508 139.828 22.9792 142.726 22.9792C145.182 22.9792 146.159 21.9067 146.159 20.4753V20.3334H147.902V20.4999C147.902 22.7665 145.789 24.5135 142.701 24.5135C138.972 24.5135 137.031 21.9574 137.031 18.3809V18.3752L137.028 18.3737ZM138.692 17.6095H146.323C146.422 14.8161 144.996 13.7175 142.619 13.7175C139.919 13.7175 138.836 15.2199 138.692 17.6095Z" stroke="#E47249" stroke-width="12" stroke-linejoin="round" mask="url(#path-1-outside-1_1089_125)"/>
</svg>
