<svg width="162" height="42" viewBox="0 0 162 42" fill="none" xmlns="http://www.w3.org/2000/svg">
<mask id="path-1-outside-1_1089_25" maskUnits="userSpaceOnUse" x="0" y="0" width="162" height="42" fill="black">
<rect fill="white" width="162" height="42"/>
<path fill-rule="evenodd" clip-rule="evenodd" d="M25.8433 6C28.6134 6.00011 30.896 8.15169 31.1088 10.875C33.8271 11.083 35.9798 13.3702 35.9798 16.1404C35.9798 18.3233 34.6519 20.1944 32.7688 21C34.6571 21.8056 35.9798 23.6819 35.9798 25.8596C35.9798 28.6298 33.8271 30.917 31.1088 31.125C30.9012 33.8426 28.6194 35.9984 25.8448 35.9993C23.6674 35.9978 21.7965 34.6733 20.9928 32.7876C20.1887 34.6691 18.3153 36 16.1365 36C13.3665 35.9998 11.0838 33.8483 10.871 31.125C8.15274 30.917 6 28.6298 6 25.8596C6.00002 23.6768 7.32794 21.8057 9.21097 21C7.32276 20.1943 6.00002 18.318 6 16.1404C6 13.3702 8.15274 11.083 10.871 10.875C11.0734 8.15172 13.3613 6.00016 16.1314 6C18.3102 6 20.1836 7.32571 20.9877 9.2124C21.7918 7.33091 23.6645 6 25.8433 6ZM16.1314 6.84741C13.6881 6.84758 11.6959 8.83796 11.6959 11.2859C11.6959 11.5198 11.5092 11.707 11.2757 11.707C8.83241 11.7071 6.84027 13.6924 6.84025 16.1455C6.84025 18.5987 8.82722 20.5839 11.2757 20.584C11.5092 20.584 11.6958 20.7713 11.6959 21.0051C11.6959 21.239 11.5092 21.4263 11.2757 21.4263V21.4211C8.83242 21.4212 6.84028 23.4117 6.84025 25.8596C6.84025 28.3076 8.82722 30.298 11.2757 30.2981C11.5092 30.2981 11.6958 30.4854 11.6959 30.7192C11.6959 33.162 13.6829 35.1576 16.1314 35.1577C18.58 35.1577 20.5668 33.1673 20.5668 30.7192C20.5668 28.2713 18.5799 26.2808 16.1314 26.2808C15.898 26.2806 15.7112 26.0934 15.7112 25.8596C15.7113 25.6259 15.8981 25.4386 16.1314 25.4385C18.5748 25.4385 20.5668 23.4532 20.5668 21C20.5668 18.5468 18.58 16.5615 16.1314 16.5615C15.8981 16.5614 15.7113 16.3741 15.7112 16.1404C15.7112 15.9066 15.898 15.7194 16.1314 15.7192C18.5748 15.7192 20.5668 13.7339 20.5668 11.2808C20.5668 8.82754 18.5748 6.84741 16.1314 6.84741ZM25.8484 6.84229C23.3998 6.84229 21.413 8.83274 21.413 11.2808C21.413 13.7287 23.3999 15.7192 25.8484 15.7192C26.0818 15.7193 26.2686 15.9065 26.2686 16.1404C26.2685 16.3742 26.0818 16.5614 25.8484 16.5615C23.405 16.5615 21.413 18.5468 21.413 21C21.413 23.4532 23.3998 25.4385 25.8484 25.4385C26.0818 25.4386 26.2685 25.6258 26.2686 25.8596C26.2686 26.0935 26.0818 26.2807 25.8484 26.2808C23.405 26.2808 21.413 28.2661 21.413 30.7192C21.413 33.1725 23.3998 35.1577 25.8484 35.1577C28.297 35.1576 30.2839 33.1672 30.2839 30.7192C30.284 30.4854 30.4706 30.2981 30.7041 30.2981C33.1475 30.2981 35.1395 28.3076 35.1395 25.8596C35.1395 23.4116 33.1526 21.4212 30.7041 21.4211C30.4706 21.4211 30.2839 21.2339 30.2839 21C30.2839 20.7661 30.4706 20.5789 30.7041 20.5789C33.1475 20.5788 35.1395 18.5884 35.1395 16.1404C35.1395 13.6924 33.1527 11.7019 30.7041 11.7019C30.4706 11.7019 30.284 11.5146 30.2839 11.2808C30.2839 8.83798 28.297 6.84236 25.8484 6.84229ZM20.9877 23.0684C20.4534 24.3158 19.4463 25.3191 18.2013 25.8596C19.4515 26.395 20.4534 27.3983 20.9877 28.6509C21.522 27.4035 22.5284 26.395 23.7734 25.8596C22.5232 25.3243 21.522 24.321 20.9877 23.0684ZM20.9877 13.3491C20.4534 14.5965 19.4463 15.605 18.2013 16.1404C19.4515 16.6757 20.4534 17.679 20.9877 18.9316C21.522 17.6842 22.5284 16.6809 23.7734 16.1404C22.5232 15.605 21.522 14.6017 20.9877 13.3491Z"/>
<path d="M25.8484 36H25.8433L25.8448 35.9993L25.8484 36Z"/>
<path d="M54.7647 23.8777C56.0084 23.8777 56.9412 24.5777 57.4853 25.511L56.599 26.1489H56.4438C55.9619 25.5111 55.5109 25.1375 54.7647 25.1375C53.972 25.1375 53.3507 25.7448 53.3507 26.5847C53.3513 28.4355 58.3248 28.3736 58.3248 31.8267C58.3248 33.7087 56.8015 35.233 54.9207 35.2332C53.3663 35.2332 52.2004 34.3778 51.6562 32.978L52.5265 32.2932H52.6817C53.148 33.3977 53.8947 33.9734 54.9207 33.9734C56.0864 33.9732 56.9568 33.0554 56.9569 31.8267C56.9569 29.4623 51.967 29.571 51.9666 26.5847C51.9666 25.0914 53.1948 23.8778 54.7647 23.8777Z"/>
<path d="M73.6617 23.8777C75.1383 23.8778 76.382 24.3134 77.3923 25.0444V26.4133L77.3147 26.491C76.2733 25.6355 74.9829 25.1375 73.6617 25.1375C71.2522 25.1375 69.2775 27.0977 69.2774 29.5554C69.2774 32.0132 71.2522 33.9734 73.6617 33.9734C74.9829 33.9733 76.2733 33.4754 77.3147 32.6199L77.3923 32.6975V34.0664C76.382 34.7975 75.1383 35.2331 73.6617 35.2332C70.4749 35.2332 67.9095 32.6665 67.9095 29.5554C67.9095 26.4443 70.4749 23.8777 73.6617 23.8777Z"/>
<path fill-rule="evenodd" clip-rule="evenodd" d="M96.3566 23.8777C99.5277 23.8778 102.108 26.4288 102.108 29.5554C102.108 32.682 99.5277 35.2331 96.3566 35.2332C93.1854 35.2332 90.6051 32.6821 90.6051 29.5554C90.6051 26.4288 93.1854 23.8777 96.3566 23.8777ZM96.3566 25.1375C93.9471 25.1375 91.9731 27.1132 91.9731 29.5554C91.9731 31.9976 93.9471 33.9734 96.3566 33.9734C98.766 33.9733 100.725 31.9976 100.725 29.5554C100.725 27.1133 98.766 25.1375 96.3566 25.1375Z"/>
<path fill-rule="evenodd" clip-rule="evenodd" d="M116.881 23.8777C120.053 23.8777 122.634 26.4288 122.634 29.5554C122.634 32.6821 120.053 35.2332 116.881 35.2332C113.71 35.233 111.13 32.682 111.13 29.5554C111.13 26.4288 113.71 23.8778 116.881 23.8777ZM116.881 25.1375C114.472 25.1376 112.498 27.1133 112.498 29.5554C112.498 31.9976 114.472 33.9733 116.881 33.9734C119.291 33.9734 121.249 31.9976 121.249 29.5554C121.249 27.1132 119.291 25.1375 116.881 25.1375Z"/>
<path d="M130.259 23.8777C131.736 23.8777 133.135 24.1269 134.145 24.8892V26.2573L134.068 26.3357C133.026 25.4179 131.58 25.1375 130.259 25.1375C127.647 25.1375 125.719 27.0977 125.719 29.5554C125.719 32.0598 127.725 33.9733 130.336 33.9734C131.238 33.9734 132.28 33.7554 133.104 33.2732V30.2402H130.647L130.57 30.1619V29.1042L130.647 29.0266H134.223L134.301 29.1042V33.9888C133.135 34.8443 131.735 35.2332 130.336 35.2332C126.994 35.233 124.352 32.7442 124.352 29.5554C124.352 26.4444 126.917 23.8777 130.259 23.8777Z"/>
<path d="M143.094 23.8777C144.338 23.8777 145.27 24.5777 145.814 25.511L144.928 26.1489H144.773C144.291 25.5111 143.84 25.1375 143.094 25.1375C142.301 25.1375 141.68 25.7448 141.68 26.5847C141.68 28.4355 146.654 28.3736 146.654 31.8267C146.654 33.7087 145.131 35.233 143.25 35.2332C141.695 35.2332 140.53 34.3778 139.985 32.978L140.856 32.2932H141.011C141.477 33.3977 142.224 33.9734 143.25 33.9734C144.416 33.9732 145.286 33.0554 145.286 31.8267C145.286 29.4623 140.296 29.571 140.296 26.5847C140.296 25.0914 141.524 23.8778 143.094 23.8777Z"/>
<path fill-rule="evenodd" clip-rule="evenodd" d="M46.7091 24.1113C49.0097 24.1113 50.4865 25.4953 50.4866 27.3618C50.4866 29.2285 49.0098 30.6284 46.7091 30.6284H44.8442V34.9219L44.7659 34.9995H43.7243L43.6468 34.9219V24.189L43.709 24.1113H46.7091ZM44.8442 29.4155H46.7091C48.1859 29.4155 49.1033 28.6063 49.1033 27.3618C49.1032 26.1331 48.1858 25.3088 46.7091 25.3088H44.8442V29.4155Z"/>
<path d="M60.3091 24.189L63.3869 28.1865L66.4961 24.189L66.6359 24.1113H67.9578L68.0353 24.189L63.9936 29.3218V34.9219L63.9153 34.9995H62.8738L62.7962 34.9219V29.3218L58.7545 24.189L58.8321 24.1113H60.1539L60.3091 24.189Z"/>
<path d="M80.9407 24.189V28.4041H87.2053V24.189L87.2829 24.1113H88.3244L88.402 24.189V34.9219L88.3244 34.9995H87.2829L87.2053 34.9219V29.6177H80.9407V34.9219L80.8624 34.9995H79.8209L79.7433 34.9219V24.189L79.8209 24.1113H80.8624L80.9407 24.189Z"/>
<path d="M105.487 24.1729V33.802H110.555L110.617 33.8796V34.938L110.555 34.9995H104.353L104.291 34.938V24.1729L104.353 24.1113H105.425L105.487 24.1729Z"/>
<path d="M138.006 24.189V34.9219L137.928 34.9995H136.886L136.809 34.9219V24.189L136.886 24.1113H137.928L138.006 24.189Z"/>
<path d="M156 24.189V25.2312L155.922 25.3088H152.253V34.9219L152.176 34.9995H151.119L151.041 34.9219V25.3088H147.372L147.294 25.2312V24.189L147.372 24.1113H155.922L156 24.189Z"/>
<path d="M51.4806 7.07739V8.11963L51.4023 8.19727H47.7338V17.811L47.6563 17.8887H46.5994L46.5218 17.811V8.19727H42.8526L42.775 8.11963V7.07739L42.8526 6.99976H51.4023L51.4806 7.07739Z"/>
<path d="M54.483 7.07739V11.2932H60.7475V7.07739L60.8251 6.99976H61.8667L61.9442 7.07739V17.811L61.8667 17.8887H60.8251L60.7475 17.811V12.5061H54.483V17.811L54.4046 17.8887H53.3631L53.2855 17.811V7.07739L53.3631 6.99976H54.4046L54.483 7.07739Z"/>
<path d="M70.9367 7.07739V8.11963L70.8584 8.19727H65.8066V11.2932H69.6148L69.6932 11.3708V12.4285L69.6148 12.5061H65.8066V16.6912H71.3254L71.403 16.7688V17.811L71.3254 17.8887H64.6875L64.6099 17.811V7.07739L64.6875 6.99976H70.8584L70.9367 7.07739Z"/>
<path fill-rule="evenodd" clip-rule="evenodd" d="M79.9585 6.99976C82.1346 6.99985 83.3627 8.08873 83.3627 9.73755C83.3627 10.6553 82.8961 11.2617 82.2121 11.6506C83.9065 12.1173 84.6838 13.2378 84.6838 14.6067C84.6836 16.4732 83.1292 17.8887 81.0307 17.8887H77.4867L77.4092 17.811V7.07739L77.4867 6.99976H79.9585ZM78.6059 16.6912H81.0307C82.4297 16.6912 83.3157 15.851 83.3158 14.6067C83.3158 13.4245 82.4298 12.5845 81.0307 12.5845H78.6059V16.6912ZM78.6059 11.3708H79.9585C81.233 11.3708 81.9947 10.8108 81.9947 9.73755C81.9947 8.78872 81.3729 8.19734 79.9585 8.19727H78.6059V11.3708Z"/>
<path fill-rule="evenodd" clip-rule="evenodd" d="M89.6485 6.99976C91.778 6.99979 93.1463 8.22858 93.1464 10.0173C93.1464 11.4018 92.2599 12.3974 91.0318 12.8174L94.7163 17.811L94.638 17.8887H93.2393L93.1617 17.811L89.5863 13.051H87.9226V17.811L87.845 17.8887H86.8035L86.7259 17.811V7.07739L86.8035 6.99976H89.6485ZM87.9226 11.8374H89.5709C90.8144 11.8373 91.7623 11.215 91.7623 10.0173C91.7622 8.88193 91.0008 8.1973 89.6485 8.19727H87.9226V11.8374Z"/>
<path fill-rule="evenodd" clip-rule="evenodd" d="M100.783 7.07739L105.121 17.811L105.043 17.8887H103.893L103.815 17.811L102.649 14.9641H97.6748L96.5242 17.811L96.4466 17.8887H95.296L95.2184 17.811L99.5398 7.07739L99.6181 6.99976H100.706L100.783 7.07739ZM98.1564 13.7666H102.183L100.162 8.64844L98.1564 13.7666Z"/>
<path d="M107.905 7.07739V17.811L107.827 17.8887H106.786L106.708 17.811V7.07739L106.786 6.99976H107.827L107.905 7.07739Z"/>
<path d="M111.913 7.07739L118.66 15.9756V7.07739L118.738 6.99976H119.779L119.857 7.07739V17.811L119.779 17.8887H118.675L118.519 17.811L111.773 8.91284V17.811L111.696 17.8887H110.654L110.577 17.811V7.07739L110.654 6.99976H111.758L111.913 7.07739Z"/>
</mask>
<path fill-rule="evenodd" clip-rule="evenodd" d="M25.8433 6C28.6134 6.00011 30.896 8.15169 31.1088 10.875C33.8271 11.083 35.9798 13.3702 35.9798 16.1404C35.9798 18.3233 34.6519 20.1944 32.7688 21C34.6571 21.8056 35.9798 23.6819 35.9798 25.8596C35.9798 28.6298 33.8271 30.917 31.1088 31.125C30.9012 33.8426 28.6194 35.9984 25.8448 35.9993C23.6674 35.9978 21.7965 34.6733 20.9928 32.7876C20.1887 34.6691 18.3153 36 16.1365 36C13.3665 35.9998 11.0838 33.8483 10.871 31.125C8.15274 30.917 6 28.6298 6 25.8596C6.00002 23.6768 7.32794 21.8057 9.21097 21C7.32276 20.1943 6.00002 18.318 6 16.1404C6 13.3702 8.15274 11.083 10.871 10.875C11.0734 8.15172 13.3613 6.00016 16.1314 6C18.3102 6 20.1836 7.32571 20.9877 9.2124C21.7918 7.33091 23.6645 6 25.8433 6ZM16.1314 6.84741C13.6881 6.84758 11.6959 8.83796 11.6959 11.2859C11.6959 11.5198 11.5092 11.707 11.2757 11.707C8.83241 11.7071 6.84027 13.6924 6.84025 16.1455C6.84025 18.5987 8.82722 20.5839 11.2757 20.584C11.5092 20.584 11.6958 20.7713 11.6959 21.0051C11.6959 21.239 11.5092 21.4263 11.2757 21.4263V21.4211C8.83242 21.4212 6.84028 23.4117 6.84025 25.8596C6.84025 28.3076 8.82722 30.298 11.2757 30.2981C11.5092 30.2981 11.6958 30.4854 11.6959 30.7192C11.6959 33.162 13.6829 35.1576 16.1314 35.1577C18.58 35.1577 20.5668 33.1673 20.5668 30.7192C20.5668 28.2713 18.5799 26.2808 16.1314 26.2808C15.898 26.2806 15.7112 26.0934 15.7112 25.8596C15.7113 25.6259 15.8981 25.4386 16.1314 25.4385C18.5748 25.4385 20.5668 23.4532 20.5668 21C20.5668 18.5468 18.58 16.5615 16.1314 16.5615C15.8981 16.5614 15.7113 16.3741 15.7112 16.1404C15.7112 15.9066 15.898 15.7194 16.1314 15.7192C18.5748 15.7192 20.5668 13.7339 20.5668 11.2808C20.5668 8.82754 18.5748 6.84741 16.1314 6.84741ZM25.8484 6.84229C23.3998 6.84229 21.413 8.83274 21.413 11.2808C21.413 13.7287 23.3999 15.7192 25.8484 15.7192C26.0818 15.7193 26.2686 15.9065 26.2686 16.1404C26.2685 16.3742 26.0818 16.5614 25.8484 16.5615C23.405 16.5615 21.413 18.5468 21.413 21C21.413 23.4532 23.3998 25.4385 25.8484 25.4385C26.0818 25.4386 26.2685 25.6258 26.2686 25.8596C26.2686 26.0935 26.0818 26.2807 25.8484 26.2808C23.405 26.2808 21.413 28.2661 21.413 30.7192C21.413 33.1725 23.3998 35.1577 25.8484 35.1577C28.297 35.1576 30.2839 33.1672 30.2839 30.7192C30.284 30.4854 30.4706 30.2981 30.7041 30.2981C33.1475 30.2981 35.1395 28.3076 35.1395 25.8596C35.1395 23.4116 33.1526 21.4212 30.7041 21.4211C30.4706 21.4211 30.2839 21.2339 30.2839 21C30.2839 20.7661 30.4706 20.5789 30.7041 20.5789C33.1475 20.5788 35.1395 18.5884 35.1395 16.1404C35.1395 13.6924 33.1527 11.7019 30.7041 11.7019C30.4706 11.7019 30.284 11.5146 30.2839 11.2808C30.2839 8.83798 28.297 6.84236 25.8484 6.84229ZM20.9877 23.0684C20.4534 24.3158 19.4463 25.3191 18.2013 25.8596C19.4515 26.395 20.4534 27.3983 20.9877 28.6509C21.522 27.4035 22.5284 26.395 23.7734 25.8596C22.5232 25.3243 21.522 24.321 20.9877 23.0684ZM20.9877 13.3491C20.4534 14.5965 19.4463 15.605 18.2013 16.1404C19.4515 16.6757 20.4534 17.679 20.9877 18.9316C21.522 17.6842 22.5284 16.6809 23.7734 16.1404C22.5232 15.605 21.522 14.6017 20.9877 13.3491Z" fill="#1A1A1A"/>
<path d="M25.8484 36H25.8433L25.8448 35.9993L25.8484 36Z" fill="#1A1A1A"/>
<path d="M54.7647 23.8777C56.0084 23.8777 56.9412 24.5777 57.4853 25.511L56.599 26.1489H56.4438C55.9619 25.5111 55.5109 25.1375 54.7647 25.1375C53.972 25.1375 53.3507 25.7448 53.3507 26.5847C53.3513 28.4355 58.3248 28.3736 58.3248 31.8267C58.3248 33.7087 56.8015 35.233 54.9207 35.2332C53.3663 35.2332 52.2004 34.3778 51.6562 32.978L52.5265 32.2932H52.6817C53.148 33.3977 53.8947 33.9734 54.9207 33.9734C56.0864 33.9732 56.9568 33.0554 56.9569 31.8267C56.9569 29.4623 51.967 29.571 51.9666 26.5847C51.9666 25.0914 53.1948 23.8778 54.7647 23.8777Z" fill="#1A1A1A"/>
<path d="M73.6617 23.8777C75.1383 23.8778 76.382 24.3134 77.3923 25.0444V26.4133L77.3147 26.491C76.2733 25.6355 74.9829 25.1375 73.6617 25.1375C71.2522 25.1375 69.2775 27.0977 69.2774 29.5554C69.2774 32.0132 71.2522 33.9734 73.6617 33.9734C74.9829 33.9733 76.2733 33.4754 77.3147 32.6199L77.3923 32.6975V34.0664C76.382 34.7975 75.1383 35.2331 73.6617 35.2332C70.4749 35.2332 67.9095 32.6665 67.9095 29.5554C67.9095 26.4443 70.4749 23.8777 73.6617 23.8777Z" fill="#1A1A1A"/>
<path fill-rule="evenodd" clip-rule="evenodd" d="M96.3566 23.8777C99.5277 23.8778 102.108 26.4288 102.108 29.5554C102.108 32.682 99.5277 35.2331 96.3566 35.2332C93.1854 35.2332 90.6051 32.6821 90.6051 29.5554C90.6051 26.4288 93.1854 23.8777 96.3566 23.8777ZM96.3566 25.1375C93.9471 25.1375 91.9731 27.1132 91.9731 29.5554C91.9731 31.9976 93.9471 33.9734 96.3566 33.9734C98.766 33.9733 100.725 31.9976 100.725 29.5554C100.725 27.1133 98.766 25.1375 96.3566 25.1375Z" fill="#1A1A1A"/>
<path fill-rule="evenodd" clip-rule="evenodd" d="M116.881 23.8777C120.053 23.8777 122.634 26.4288 122.634 29.5554C122.634 32.6821 120.053 35.2332 116.881 35.2332C113.71 35.233 111.13 32.682 111.13 29.5554C111.13 26.4288 113.71 23.8778 116.881 23.8777ZM116.881 25.1375C114.472 25.1376 112.498 27.1133 112.498 29.5554C112.498 31.9976 114.472 33.9733 116.881 33.9734C119.291 33.9734 121.249 31.9976 121.249 29.5554C121.249 27.1132 119.291 25.1375 116.881 25.1375Z" fill="#1A1A1A"/>
<path d="M130.259 23.8777C131.736 23.8777 133.135 24.1269 134.145 24.8892V26.2573L134.068 26.3357C133.026 25.4179 131.58 25.1375 130.259 25.1375C127.647 25.1375 125.719 27.0977 125.719 29.5554C125.719 32.0598 127.725 33.9733 130.336 33.9734C131.238 33.9734 132.28 33.7554 133.104 33.2732V30.2402H130.647L130.57 30.1619V29.1042L130.647 29.0266H134.223L134.301 29.1042V33.9888C133.135 34.8443 131.735 35.2332 130.336 35.2332C126.994 35.233 124.352 32.7442 124.352 29.5554C124.352 26.4444 126.917 23.8777 130.259 23.8777Z" fill="#1A1A1A"/>
<path d="M143.094 23.8777C144.338 23.8777 145.27 24.5777 145.814 25.511L144.928 26.1489H144.773C144.291 25.5111 143.84 25.1375 143.094 25.1375C142.301 25.1375 141.68 25.7448 141.68 26.5847C141.68 28.4355 146.654 28.3736 146.654 31.8267C146.654 33.7087 145.131 35.233 143.25 35.2332C141.695 35.2332 140.53 34.3778 139.985 32.978L140.856 32.2932H141.011C141.477 33.3977 142.224 33.9734 143.25 33.9734C144.416 33.9732 145.286 33.0554 145.286 31.8267C145.286 29.4623 140.296 29.571 140.296 26.5847C140.296 25.0914 141.524 23.8778 143.094 23.8777Z" fill="#1A1A1A"/>
<path fill-rule="evenodd" clip-rule="evenodd" d="M46.7091 24.1113C49.0097 24.1113 50.4865 25.4953 50.4866 27.3618C50.4866 29.2285 49.0098 30.6284 46.7091 30.6284H44.8442V34.9219L44.7659 34.9995H43.7243L43.6468 34.9219V24.189L43.709 24.1113H46.7091ZM44.8442 29.4155H46.7091C48.1859 29.4155 49.1033 28.6063 49.1033 27.3618C49.1032 26.1331 48.1858 25.3088 46.7091 25.3088H44.8442V29.4155Z" fill="#1A1A1A"/>
<path d="M60.3091 24.189L63.3869 28.1865L66.4961 24.189L66.6359 24.1113H67.9578L68.0353 24.189L63.9936 29.3218V34.9219L63.9153 34.9995H62.8738L62.7962 34.9219V29.3218L58.7545 24.189L58.8321 24.1113H60.1539L60.3091 24.189Z" fill="#1A1A1A"/>
<path d="M80.9407 24.189V28.4041H87.2053V24.189L87.2829 24.1113H88.3244L88.402 24.189V34.9219L88.3244 34.9995H87.2829L87.2053 34.9219V29.6177H80.9407V34.9219L80.8624 34.9995H79.8209L79.7433 34.9219V24.189L79.8209 24.1113H80.8624L80.9407 24.189Z" fill="#1A1A1A"/>
<path d="M105.487 24.1729V33.802H110.555L110.617 33.8796V34.938L110.555 34.9995H104.353L104.291 34.938V24.1729L104.353 24.1113H105.425L105.487 24.1729Z" fill="#1A1A1A"/>
<path d="M138.006 24.189V34.9219L137.928 34.9995H136.886L136.809 34.9219V24.189L136.886 24.1113H137.928L138.006 24.189Z" fill="#1A1A1A"/>
<path d="M156 24.189V25.2312L155.922 25.3088H152.253V34.9219L152.176 34.9995H151.119L151.041 34.9219V25.3088H147.372L147.294 25.2312V24.189L147.372 24.1113H155.922L156 24.189Z" fill="#1A1A1A"/>
<path d="M51.4806 7.07739V8.11963L51.4023 8.19727H47.7338V17.811L47.6563 17.8887H46.5994L46.5218 17.811V8.19727H42.8526L42.775 8.11963V7.07739L42.8526 6.99976H51.4023L51.4806 7.07739Z" fill="#1A1A1A"/>
<path d="M54.483 7.07739V11.2932H60.7475V7.07739L60.8251 6.99976H61.8667L61.9442 7.07739V17.811L61.8667 17.8887H60.8251L60.7475 17.811V12.5061H54.483V17.811L54.4046 17.8887H53.3631L53.2855 17.811V7.07739L53.3631 6.99976H54.4046L54.483 7.07739Z" fill="#1A1A1A"/>
<path d="M70.9367 7.07739V8.11963L70.8584 8.19727H65.8066V11.2932H69.6148L69.6932 11.3708V12.4285L69.6148 12.5061H65.8066V16.6912H71.3254L71.403 16.7688V17.811L71.3254 17.8887H64.6875L64.6099 17.811V7.07739L64.6875 6.99976H70.8584L70.9367 7.07739Z" fill="#1A1A1A"/>
<path fill-rule="evenodd" clip-rule="evenodd" d="M79.9585 6.99976C82.1346 6.99985 83.3627 8.08873 83.3627 9.73755C83.3627 10.6553 82.8961 11.2617 82.2121 11.6506C83.9065 12.1173 84.6838 13.2378 84.6838 14.6067C84.6836 16.4732 83.1292 17.8887 81.0307 17.8887H77.4867L77.4092 17.811V7.07739L77.4867 6.99976H79.9585ZM78.6059 16.6912H81.0307C82.4297 16.6912 83.3157 15.851 83.3158 14.6067C83.3158 13.4245 82.4298 12.5845 81.0307 12.5845H78.6059V16.6912ZM78.6059 11.3708H79.9585C81.233 11.3708 81.9947 10.8108 81.9947 9.73755C81.9947 8.78872 81.3729 8.19734 79.9585 8.19727H78.6059V11.3708Z" fill="#1A1A1A"/>
<path fill-rule="evenodd" clip-rule="evenodd" d="M89.6485 6.99976C91.778 6.99979 93.1463 8.22858 93.1464 10.0173C93.1464 11.4018 92.2599 12.3974 91.0318 12.8174L94.7163 17.811L94.638 17.8887H93.2393L93.1617 17.811L89.5863 13.051H87.9226V17.811L87.845 17.8887H86.8035L86.7259 17.811V7.07739L86.8035 6.99976H89.6485ZM87.9226 11.8374H89.5709C90.8144 11.8373 91.7623 11.215 91.7623 10.0173C91.7622 8.88193 91.0008 8.1973 89.6485 8.19727H87.9226V11.8374Z" fill="#1A1A1A"/>
<path fill-rule="evenodd" clip-rule="evenodd" d="M100.783 7.07739L105.121 17.811L105.043 17.8887H103.893L103.815 17.811L102.649 14.9641H97.6748L96.5242 17.811L96.4466 17.8887H95.296L95.2184 17.811L99.5398 7.07739L99.6181 6.99976H100.706L100.783 7.07739ZM98.1564 13.7666H102.183L100.162 8.64844L98.1564 13.7666Z" fill="#1A1A1A"/>
<path d="M107.905 7.07739V17.811L107.827 17.8887H106.786L106.708 17.811V7.07739L106.786 6.99976H107.827L107.905 7.07739Z" fill="#1A1A1A"/>
<path d="M111.913 7.07739L118.66 15.9756V7.07739L118.738 6.99976H119.779L119.857 7.07739V17.811L119.779 17.8887H118.675L118.519 17.811L111.773 8.91284V17.811L111.696 17.8887H110.654L110.577 17.811V7.07739L110.654 6.99976H111.758L111.913 7.07739Z" fill="#1A1A1A"/>
<path d="M25.8433 6L25.8436 0H25.8433V6ZM31.1088 10.875L25.1271 11.3424C25.3575 14.291 27.7022 16.6319 30.6511 16.8575L31.1088 10.875ZM35.9798 16.1404L41.9798 16.1404V16.1404H35.9798ZM32.7688 21L30.4088 15.4836C28.1998 16.4287 26.7676 18.6003 26.7688 21.003C26.77 23.4056 28.2044 25.5759 30.4143 26.5187L32.7688 21ZM35.9798 25.8596H41.9798V25.8596L35.9798 25.8596ZM31.1088 31.125L30.6511 25.1425C27.6982 25.3684 25.3518 27.7151 25.1262 30.668L31.1088 31.125ZM20.9928 32.7876L26.5124 30.4352C25.5701 28.2241 23.3993 26.7888 20.9958 26.7876C18.5924 26.7864 16.4201 28.2196 15.4756 30.4297L20.9928 32.7876ZM16.1365 36L16.1361 42H16.1365V36ZM10.871 31.125L16.8528 30.6576C16.6223 27.709 14.2777 25.3682 11.3288 25.1425L10.871 31.125ZM6 25.8596L0 25.8596V25.8596H6ZM9.21097 21L11.5711 26.5163C13.78 25.5712 15.2122 23.3996 15.211 20.997C15.2098 18.5944 13.7755 16.4242 11.5656 15.4813L9.21097 21ZM6 16.1404H0V16.1404L6 16.1404ZM10.871 10.875L11.3288 16.8575C14.2863 16.6312 16.6346 14.2777 16.8545 11.3198L10.871 10.875ZM16.1314 6V0H16.131L16.1314 6ZM20.9877 9.2124L15.4681 11.5648C16.4104 13.7759 18.5813 15.2112 20.9847 15.2124C23.3882 15.2136 25.5604 13.7804 26.505 11.5703L20.9877 9.2124ZM25.8484 36V42C28.933 42 31.5151 39.6612 31.8192 36.5916C32.1234 33.5221 30.0505 30.722 27.0259 30.1167L25.8484 36ZM25.8433 36L23.1586 30.6342C20.6703 31.8791 19.3644 34.6715 20.004 37.3793C20.6436 40.0872 23.061 42 25.8433 42V36ZM54.7647 23.8777V17.8777H54.7644L54.7647 23.8777ZM57.4853 25.511L60.9903 30.3808C63.4989 28.5753 64.2255 25.1595 62.6689 22.4892L57.4853 25.511ZM56.599 26.1489V32.1489C57.8569 32.1489 59.0829 31.7536 60.1039 31.0188L56.599 26.1489ZM56.4438 26.1489L51.6567 29.766C52.7906 31.2668 54.5628 32.1489 56.4438 32.1489V26.1489ZM54.7647 25.1375V19.1375H54.7641L54.7647 25.1375ZM53.3507 26.5847H47.3507V26.5868L53.3507 26.5847ZM58.3248 31.8267L64.3248 31.8268V31.8267H58.3248ZM54.9207 35.2332V41.2332H54.9211L54.9207 35.2332ZM51.6562 32.978L47.9458 28.2628C45.8714 29.8952 45.1075 32.6917 46.064 35.152L51.6562 32.978ZM52.5265 32.2932V26.2932C51.1806 26.2932 49.8738 26.7457 48.8161 27.578L52.5265 32.2932ZM52.6817 32.2932L58.2091 29.9592C57.2709 27.7374 55.0935 26.2932 52.6817 26.2932V32.2932ZM54.9207 33.9734V39.9734H54.9214L54.9207 33.9734ZM56.9569 31.8267L62.9569 31.8269V31.8267H56.9569ZM51.9666 26.5847H45.9666V26.5855L51.9666 26.5847ZM73.6617 23.8777L73.6619 17.8777H73.6617V23.8777ZM77.3923 25.0444H83.3923C83.3923 23.1197 82.4689 21.3117 80.9095 20.1834L77.3923 25.0444ZM77.3923 26.4133L81.6364 30.6545C82.7607 29.5294 83.3923 28.0039 83.3923 26.4133H77.3923ZM77.3147 26.491L73.5063 31.1273C75.8922 33.0872 79.3762 32.9163 81.5588 30.7322L77.3147 26.491ZM73.6617 25.1375L73.6621 19.1375H73.6617V25.1375ZM69.2774 29.5554L63.2774 29.5554V29.5554H69.2774ZM73.6617 33.9734V39.9734H73.6621L73.6617 33.9734ZM77.3147 32.6199L81.5588 28.3787C79.3762 26.1945 75.8922 26.0236 73.5063 27.9836L77.3147 32.6199ZM77.3923 32.6975H83.3923C83.3923 31.1069 82.7607 29.5814 81.6364 28.4563L77.3923 32.6975ZM77.3923 34.0664L80.9095 38.9274C82.4689 37.7991 83.3923 35.9912 83.3923 34.0664H77.3923ZM73.6617 35.2332V41.2332H73.6619L73.6617 35.2332ZM67.9095 29.5554L61.9095 29.5554V29.5554H67.9095ZM96.3566 23.8777L96.3568 17.8777H96.3566V23.8777ZM102.108 29.5554H108.108V29.5554L102.108 29.5554ZM96.3566 35.2332V41.2332H96.3568L96.3566 35.2332ZM90.6051 29.5554L84.6051 29.5554V29.5554H90.6051ZM116.881 23.8777V17.8777H116.881L116.881 23.8777ZM122.634 29.5554H128.634V29.5554L122.634 29.5554ZM116.881 35.2332L116.881 41.2332H116.881V35.2332ZM111.13 29.5554L105.13 29.5554V29.5554H111.13ZM130.259 23.8777V17.8777H130.259L130.259 23.8777ZM134.145 24.8892H140.145C140.145 23.0065 139.262 21.233 137.759 20.0992L134.145 24.8892ZM134.145 26.2573L138.409 30.4786C139.521 29.3551 140.145 27.8382 140.145 26.2573H134.145ZM134.068 26.3357L130.101 30.8373C132.486 32.9387 136.095 32.8158 138.332 30.5569L134.068 26.3357ZM130.259 25.1375V19.1375H130.259L130.259 25.1375ZM125.719 29.5554L119.719 29.5554V29.5554H125.719ZM130.336 33.9734L130.336 39.9734H130.336V33.9734ZM133.104 33.2732L136.135 38.4514C137.974 37.3751 139.104 35.4041 139.104 33.2732H133.104ZM133.104 30.2402H139.104C139.104 26.9265 136.418 24.2402 133.104 24.2402V30.2402ZM130.647 30.2402L126.384 34.4615C127.51 35.5998 129.046 36.2402 130.647 36.2402V30.2402ZM130.57 30.1619H124.57C124.57 31.7427 125.194 33.2597 126.306 34.3831L130.57 30.1619ZM130.57 29.1042L126.326 24.863C125.201 25.9881 124.57 27.5136 124.57 29.1042H130.57ZM130.647 29.0266V23.0266C129.055 23.0266 127.529 23.6593 126.403 24.7854L130.647 29.0266ZM134.223 29.0266L138.467 24.7854C137.342 23.6593 135.815 23.0266 134.223 23.0266V29.0266ZM134.301 29.1042H140.301C140.301 27.5136 139.669 25.9881 138.545 24.863L134.301 29.1042ZM134.301 33.9888L137.85 38.8261C139.391 37.6958 140.301 35.8994 140.301 33.9888H134.301ZM130.336 35.2332L130.336 41.2332H130.336V35.2332ZM124.352 29.5554L118.352 29.5554V29.5554H124.352ZM143.094 23.8777V17.8777H143.094L143.094 23.8777ZM145.814 25.511L149.319 30.3808C151.828 28.5753 152.555 25.1595 150.998 22.4892L145.814 25.511ZM144.928 26.1489V32.1489C146.186 32.1489 147.412 31.7536 148.433 31.0188L144.928 26.1489ZM144.773 26.1489L139.986 29.766C141.12 31.2668 142.892 32.1489 144.773 32.1489V26.1489ZM143.094 25.1375V19.1375H143.093L143.094 25.1375ZM141.68 26.5847H135.68V26.5868L141.68 26.5847ZM146.654 31.8267L152.654 31.8268V31.8267H146.654ZM143.25 35.2332V41.2332H143.25L143.25 35.2332ZM139.985 32.978L136.275 28.2628C134.201 29.8952 133.437 32.6917 134.393 35.152L139.985 32.978ZM140.856 32.2932V26.2932C139.51 26.2932 138.203 26.7457 137.145 27.578L140.856 32.2932ZM141.011 32.2932L146.538 29.9592C145.6 27.7374 143.423 26.2932 141.011 26.2932V32.2932ZM143.25 33.9734V39.9734H143.251L143.25 33.9734ZM145.286 31.8267L151.286 31.8269V31.8267H145.286ZM140.296 26.5847H134.296V26.5855L140.296 26.5847ZM16.1314 6.84741V0.847412H16.131L16.1314 6.84741ZM11.6959 11.2859L17.6959 11.2862V11.2859H11.6959ZM11.2757 11.707V5.70703H11.2755L11.2757 11.707ZM6.84025 16.1455L0.840254 16.1455V16.1455H6.84025ZM11.2757 20.584L11.2755 26.584H11.2757V20.584ZM11.6959 21.0051H17.6959L17.6959 21.0042L11.6959 21.0051ZM11.2757 21.4263H5.27574C5.27574 24.74 7.96203 27.4263 11.2757 27.4263V21.4263ZM11.2757 21.4211H17.2757C17.2757 19.8298 16.6436 18.3036 15.5183 17.1784C14.393 16.0532 12.8668 15.4211 11.2755 15.4211L11.2757 21.4211ZM6.84025 25.8596L0.840254 25.8596V25.8596H6.84025ZM11.2757 30.2981L11.2755 36.2981H11.2757V30.2981ZM11.6959 30.7192H17.6959L17.6959 30.7179L11.6959 30.7192ZM16.1314 35.1577L16.131 41.1577H16.1314V35.1577ZM20.5668 30.7192H26.5668V30.7191L20.5668 30.7192ZM16.1314 26.2808L16.1272 32.2808H16.1314V26.2808ZM15.7112 25.8596L9.71123 25.859V25.8596H15.7112ZM16.1314 25.4385V19.4385L16.1272 19.4385L16.1314 25.4385ZM20.5668 21H26.5668V21H20.5668ZM16.1314 16.5615L16.1272 22.5615H16.1314V16.5615ZM15.7112 16.1404H9.71123V16.141L15.7112 16.1404ZM16.1314 15.7192V9.71924L16.1272 9.71924L16.1314 15.7192ZM20.5668 11.2808L26.5668 11.2809V11.2808H20.5668ZM25.8484 6.84229L25.8486 0.842285H25.8484V6.84229ZM21.413 11.2808H15.413V11.2809L21.413 11.2808ZM25.8484 15.7192L25.8504 9.71924H25.8484V15.7192ZM26.2686 16.1404L32.2686 16.141V16.1404H26.2686ZM25.8484 16.5615V22.5615H25.8504L25.8484 16.5615ZM21.413 21H15.413V21H21.413ZM25.8484 25.4385L25.8504 19.4385H25.8484V25.4385ZM26.2686 25.8596H32.2686V25.859L26.2686 25.8596ZM25.8484 26.2808V32.2808H25.8504L25.8484 26.2808ZM21.413 30.7192L15.413 30.7191V30.7192H21.413ZM25.8484 35.1577V41.1577H25.8486L25.8484 35.1577ZM30.2839 30.7192L24.2839 30.7179V30.7192H30.2839ZM30.7041 30.2981V36.2981H30.7041L30.7041 30.2981ZM35.1395 25.8596H41.1395V25.8596L35.1395 25.8596ZM30.7041 21.4211L30.7041 15.4211H30.7041V21.4211ZM30.2839 21H24.2839V21L30.2839 21ZM30.7041 20.5789V26.5789H30.7041L30.7041 20.5789ZM35.1395 16.1404L41.1395 16.1404V16.1404H35.1395ZM30.7041 11.7019L30.7041 5.7019H30.7041V11.7019ZM30.2839 11.2808H24.2839V11.2821L30.2839 11.2808ZM50.4866 27.3618H56.4866V27.3614L50.4866 27.3618ZM44.8442 30.6284V24.6284C41.5305 24.6284 38.8442 27.3147 38.8442 30.6284H44.8442ZM44.8442 34.9219L49.0683 39.183C50.2048 38.0563 50.8442 36.5222 50.8442 34.9219H44.8442ZM44.7659 34.9995V40.9995C46.3481 40.9995 47.8663 40.3745 48.99 39.2606L44.7659 34.9995ZM43.7243 34.9995L39.4803 39.2407C40.6056 40.3668 42.1323 40.9995 43.7243 40.9995V34.9995ZM43.6468 34.9219H37.6468C37.6468 36.5125 38.2783 38.038 39.4027 39.1631L43.6468 34.9219ZM43.6468 24.189L38.9646 20.437C38.1116 21.5014 37.6468 22.8248 37.6468 24.189H43.6468ZM43.709 24.1113V18.1113C41.888 18.1113 40.1656 18.9383 39.0268 20.3593L43.709 24.1113ZM60.3091 24.189L65.0633 20.5287C64.511 19.8113 63.8035 19.2282 62.9938 18.8231L60.3091 24.189ZM63.3869 28.1865L58.6327 31.8468C59.7654 33.318 61.5154 34.1819 63.3721 34.1865C65.2288 34.1911 66.983 33.3358 68.123 31.8702L63.3869 28.1865ZM66.4961 24.189L63.5831 18.9436C62.8764 19.336 62.2563 19.8672 61.76 20.5053L66.4961 24.189ZM66.6359 24.1113V18.1113C65.6166 18.1113 64.614 18.371 63.7229 18.8659L66.6359 24.1113ZM67.9578 24.1113L72.2018 19.8701C71.0765 18.744 69.5498 18.1113 67.9578 18.1113V24.1113ZM68.0353 24.189L72.7493 27.9009C74.6293 25.5134 74.4275 22.0973 72.2794 19.9478L68.0353 24.189ZM63.9936 29.3218L59.2797 25.6099C58.4466 26.6678 57.9936 27.9752 57.9936 29.3218H63.9936ZM63.9936 34.9219L68.2177 39.183C69.3543 38.0563 69.9936 36.5222 69.9936 34.9219H63.9936ZM63.9153 34.9995V40.9995C65.4976 40.9995 67.0158 40.3745 68.1394 39.2606L63.9153 34.9995ZM62.8738 34.9995L58.6297 39.2407C59.7551 40.3668 61.2818 40.9995 62.8738 40.9995V34.9995ZM62.7962 34.9219H56.7962C56.7962 36.5125 57.4278 38.038 58.5521 39.1631L62.7962 34.9219ZM62.7962 29.3218H68.7962C68.7962 27.9752 68.3432 26.6678 67.5102 25.6099L62.7962 29.3218ZM58.7545 24.189L54.5104 19.9478C52.3624 22.0973 52.1605 25.5134 54.0405 27.9009L58.7545 24.189ZM58.8321 24.1113V18.1113C57.2401 18.1113 55.7133 18.744 54.588 19.8701L58.8321 24.1113ZM60.1539 24.1113L62.8387 18.7455C62.0052 18.3285 61.086 18.1113 60.1539 18.1113V24.1113ZM80.9407 24.189H86.9407C86.9407 22.5886 86.3014 21.0546 85.1648 19.9279L80.9407 24.189ZM80.9407 28.4041H74.9407C74.9407 31.7178 77.627 34.4041 80.9407 34.4041V28.4041ZM87.2053 28.4041V34.4041C90.519 34.4041 93.2053 31.7178 93.2053 28.4041H87.2053ZM87.2053 24.189L82.9612 19.9478C81.8369 21.0729 81.2053 22.5984 81.2053 24.189H87.2053ZM87.2829 24.1113V18.1113C85.6909 18.1113 84.1641 18.744 83.0388 19.8701L87.2829 24.1113ZM88.3244 24.1113L92.5685 19.8701C91.4431 18.744 89.9164 18.1113 88.3244 18.1113V24.1113ZM88.402 24.189H94.402C94.402 22.5984 93.7704 21.0729 92.6461 19.9478L88.402 24.189ZM88.402 34.9219L92.6461 39.1631C93.7704 38.038 94.402 36.5125 94.402 34.9219H88.402ZM88.3244 34.9995V40.9995C89.9164 40.9995 91.4431 40.3668 92.5685 39.2407L88.3244 34.9995ZM87.2829 34.9995L83.0388 39.2407C84.1641 40.3668 85.6909 40.9995 87.2829 40.9995V34.9995ZM87.2053 34.9219H81.2053C81.2053 36.5125 81.8369 38.038 82.9612 39.1631L87.2053 34.9219ZM87.2053 29.6177H93.2053C93.2053 26.304 90.519 23.6177 87.2053 23.6177V29.6177ZM80.9407 29.6177V23.6177C77.627 23.6177 74.9407 26.304 74.9407 29.6177H80.9407ZM80.9407 34.9219L85.1648 39.183C86.3014 38.0563 86.9407 36.5222 86.9407 34.9219H80.9407ZM80.8624 34.9995V40.9995C82.4446 40.9995 83.9628 40.3745 85.0865 39.2606L80.8624 34.9995ZM79.8209 34.9995L75.5768 39.2407C76.7021 40.3668 78.2289 40.9995 79.8209 40.9995V34.9995ZM79.7433 34.9219H73.7433C73.7433 36.5125 74.3749 38.038 75.4992 39.1631L79.7433 34.9219ZM79.7433 24.189L75.4992 19.9478C74.3749 21.0729 73.7433 22.5984 73.7433 24.189H79.7433ZM79.8209 24.1113V18.1113C78.2289 18.1113 76.7021 18.744 75.5768 19.8701L79.8209 24.1113ZM80.8624 24.1113L85.0865 19.8502C83.9628 18.7363 82.4446 18.1113 80.8624 18.1113V24.1113ZM105.487 24.1729H111.487C111.487 22.5699 110.846 21.0337 109.706 19.9066L105.487 24.1729ZM105.487 33.802H99.4874C99.4874 37.1157 102.174 39.802 105.487 39.802V33.802ZM110.555 33.802L115.237 30.05C114.099 28.629 112.376 27.802 110.555 27.802V33.802ZM110.617 33.8796H116.617C116.617 32.5155 116.153 31.1921 115.3 30.1276L110.617 33.8796ZM110.617 34.938L114.836 39.2042C115.976 38.0772 116.617 36.5409 116.617 34.938H110.617ZM110.555 34.9995V40.9995C112.135 40.9995 113.651 40.3765 114.774 39.2658L110.555 34.9995ZM104.353 34.9995L100.134 39.2658C101.257 40.3765 102.773 40.9995 104.353 40.9995V34.9995ZM104.291 34.938H98.2907C98.2907 36.5409 98.9321 38.0772 100.072 39.2042L104.291 34.938ZM104.291 24.1729L100.072 19.9066C98.9321 21.0337 98.2907 22.5699 98.2907 24.1729H104.291ZM104.353 24.1113V18.1113C102.773 18.1113 101.257 18.7343 100.134 19.8451L104.353 24.1113ZM105.425 24.1113L109.644 19.8451C108.521 18.7343 107.005 18.1113 105.425 18.1113V24.1113ZM138.006 24.189H144.006C144.006 22.5984 143.374 21.0729 142.25 19.9478L138.006 24.189ZM138.006 34.9219L142.25 39.1631C143.374 38.038 144.006 36.5125 144.006 34.9219H138.006ZM137.928 34.9995V40.9995C139.52 40.9995 141.047 40.3668 142.172 39.2407L137.928 34.9995ZM136.886 34.9995L132.642 39.2407C133.768 40.3668 135.294 40.9995 136.886 40.9995V34.9995ZM136.809 34.9219H130.809C130.809 36.5125 131.44 38.038 132.565 39.1631L136.809 34.9219ZM136.809 24.189L132.565 19.9478C131.44 21.0729 130.809 22.5984 130.809 24.189H136.809ZM136.886 24.1113V18.1113C135.294 18.1113 133.768 18.744 132.642 19.8701L136.886 24.1113ZM137.928 24.1113L142.172 19.8701C141.047 18.744 139.52 18.1113 137.928 18.1113V24.1113ZM156 24.189H162C162 22.5886 161.361 21.0546 160.224 19.9279L156 24.189ZM156 25.2312L160.224 29.4923C161.361 28.3656 162 26.8316 162 25.2312H156ZM155.922 25.3088V31.3088C157.504 31.3088 159.022 30.6839 160.146 29.5699L155.922 25.3088ZM152.253 25.3088V19.3088C148.94 19.3088 146.253 21.9951 146.253 25.3088H152.253ZM152.253 34.9219L156.497 39.1631C157.622 38.038 158.253 36.5125 158.253 34.9219H152.253ZM152.176 34.9995V40.9995C153.768 40.9995 155.294 40.3668 156.42 39.2407L152.176 34.9995ZM151.119 34.9995L146.875 39.2407C148 40.3668 149.527 40.9995 151.119 40.9995V34.9995ZM151.041 34.9219H145.041C145.041 36.5125 145.673 38.038 146.797 39.1631L151.041 34.9219ZM151.041 25.3088H157.041C157.041 21.9951 154.355 19.3088 151.041 19.3088V25.3088ZM147.372 25.3088L143.128 29.55C144.253 30.6761 145.78 31.3088 147.372 31.3088V25.3088ZM147.294 25.2312H141.294C141.294 26.8218 141.926 28.3473 143.05 29.4724L147.294 25.2312ZM147.294 24.189L143.05 19.9478C141.926 21.0729 141.294 22.5984 141.294 24.189H147.294ZM147.372 24.1113V18.1113C145.78 18.1113 144.253 18.744 143.128 19.8701L147.372 24.1113ZM155.922 24.1113L160.146 19.8502C159.022 18.7363 157.504 18.1113 155.922 18.1113V24.1113ZM96.3566 25.1375L96.3568 19.1375H96.3566V25.1375ZM91.9731 29.5554L85.9731 29.5554V29.5554H91.9731ZM96.3566 33.9734V39.9734H96.3568L96.3566 33.9734ZM100.725 29.5554H106.725V29.5554L100.725 29.5554ZM116.881 25.1375V19.1375H116.881L116.881 25.1375ZM112.498 29.5554L106.498 29.5554V29.5554H112.498ZM116.881 33.9734L116.881 39.9734H116.881V33.9734ZM121.249 29.5554H127.249V29.5554L121.249 29.5554ZM44.8442 29.4155H38.8442C38.8442 32.7292 41.5305 35.4155 44.8442 35.4155V29.4155ZM49.1033 27.3618H55.1033V27.3612L49.1033 27.3618ZM44.8442 25.3088V19.3088C41.5305 19.3088 38.8442 21.9951 38.8442 25.3088H44.8442ZM20.9877 23.0684L26.5065 20.7141C25.564 18.5046 23.3944 17.0702 20.9922 17.0684C18.59 17.0666 16.4183 18.4977 15.4724 20.7058L20.9877 23.0684ZM18.2013 25.8596L15.8118 20.3559C13.6146 21.3099 12.1953 23.4793 12.2013 25.8747C12.2073 28.2701 13.6375 30.4324 15.8395 31.3752L18.2013 25.8596ZM20.9877 28.6509L15.4689 31.0051C16.4114 33.2147 18.581 34.6491 20.9832 34.6509C23.3854 34.6527 25.5571 33.2215 26.503 31.0134L20.9877 28.6509ZM23.7734 25.8596L26.1435 31.3717C28.3476 30.424 29.7752 28.2543 29.7734 25.8551C29.7716 23.4559 28.3407 21.2884 26.1352 20.344L23.7734 25.8596ZM20.9877 13.3491L26.5065 10.9949C25.564 8.78533 23.3944 7.35093 20.9922 7.34912C18.59 7.34732 16.4183 8.77845 15.4724 10.9866L20.9877 13.3491ZM18.2013 16.1404L15.8312 10.6283C13.6271 11.576 12.1994 13.7457 12.2013 16.1449C12.2031 18.5441 13.634 20.7116 15.8395 21.656L18.2013 16.1404ZM20.9877 18.9316L15.4689 21.2859C16.4114 23.4954 18.581 24.9298 20.9832 24.9316C23.3854 24.9334 25.5571 23.5023 26.503 21.2942L20.9877 18.9316ZM23.7734 16.1404L26.1628 21.6441C28.3601 20.6901 29.7794 18.5207 29.7734 16.1253C29.7674 13.7299 28.3372 11.5676 26.1352 10.6247L23.7734 16.1404ZM51.4806 7.07739H57.4806C57.4806 5.47703 56.8412 3.94299 55.7047 2.8163L51.4806 7.07739ZM51.4806 8.11963L55.7047 12.3807C56.8412 11.254 57.4806 9.71999 57.4806 8.11963H51.4806ZM51.4023 8.19727V14.1973C52.9845 14.1973 54.5027 13.5723 55.6264 12.4584L51.4023 8.19727ZM47.7338 8.19727V2.19727C44.4201 2.19727 41.7338 4.88356 41.7338 8.19727H47.7338ZM47.7338 17.811L51.9779 22.0522C53.1023 20.9271 53.7338 19.4016 53.7338 17.811H47.7338ZM47.6563 17.8887V23.8887C49.2483 23.8887 50.775 23.256 51.9003 22.1299L47.6563 17.8887ZM46.5994 17.8887L42.3553 22.1299C43.4806 23.256 45.0074 23.8887 46.5994 23.8887V17.8887ZM46.5218 17.811H40.5218C40.5218 19.4016 41.1534 20.9271 42.2777 22.0522L46.5218 17.811ZM46.5218 8.19727H52.5218C52.5218 4.88356 49.8355 2.19727 46.5218 2.19727V8.19727ZM42.8526 8.19727L38.6085 12.4385C39.7339 13.5646 41.2606 14.1973 42.8526 14.1973V8.19727ZM42.775 8.11963H36.775C36.775 9.71023 37.4066 11.2357 38.531 12.3608L42.775 8.11963ZM42.775 7.07739L38.531 2.83618C37.4066 3.96128 36.775 5.48679 36.775 7.07739H42.775ZM42.8526 6.99976V0.999756C41.2606 0.999756 39.7339 1.63245 38.6085 2.75854L42.8526 6.99976ZM51.4023 6.99976L55.6264 2.73867C54.5027 1.62474 52.9845 0.999756 51.4023 0.999756V6.99976ZM54.483 7.07739H60.483C60.483 5.47703 59.8436 3.94299 58.7071 2.8163L54.483 7.07739ZM54.483 11.2932H48.483C48.483 14.6069 51.1692 17.2932 54.483 17.2932V11.2932ZM60.7475 11.2932V17.2932C64.0612 17.2932 66.7475 14.6069 66.7475 11.2932H60.7475ZM60.7475 7.07739L56.5035 2.83618C55.3791 3.96128 54.7475 5.48679 54.7475 7.07739H60.7475ZM60.8251 6.99976V0.999756C59.2331 0.999756 57.7064 1.63245 56.581 2.75854L60.8251 6.99976ZM61.8667 6.99976L66.1107 2.75854C64.9854 1.63245 63.4587 0.999756 61.8667 0.999756V6.99976ZM61.9442 7.07739H67.9442C67.9442 5.48679 67.3126 3.96128 66.1883 2.83618L61.9442 7.07739ZM61.9442 17.811L66.1883 22.0522C67.3126 20.9271 67.9442 19.4016 67.9442 17.811H61.9442ZM61.8667 17.8887V23.8887C63.4587 23.8887 64.9854 23.256 66.1107 22.1299L61.8667 17.8887ZM60.8251 17.8887L56.581 22.1299C57.7064 23.256 59.2331 23.8887 60.8251 23.8887V17.8887ZM60.7475 17.811H54.7475C54.7475 19.4016 55.3791 20.9271 56.5035 22.0522L60.7475 17.811ZM60.7475 12.5061H66.7475C66.7475 9.19239 64.0612 6.5061 60.7475 6.5061V12.5061ZM54.483 12.5061V6.5061C51.1692 6.5061 48.483 9.19239 48.483 12.5061H54.483ZM54.483 17.811L58.7071 22.0721C59.8436 20.9454 60.483 19.4114 60.483 17.811H54.483ZM54.4046 17.8887V23.8887C55.9869 23.8887 57.5051 23.2637 58.6287 22.1498L54.4046 17.8887ZM53.3631 17.8887L49.119 22.1299C50.2444 23.256 51.7711 23.8887 53.3631 23.8887V17.8887ZM53.2855 17.811H47.2855C47.2855 19.4016 47.9171 20.9271 49.0415 22.0522L53.2855 17.811ZM53.2855 7.07739L49.0415 2.83618C47.9171 3.96128 47.2855 5.48679 47.2855 7.07739H53.2855ZM53.3631 6.99976V0.999756C51.7711 0.999756 50.2444 1.63245 49.119 2.75854L53.3631 6.99976ZM54.4046 6.99976L58.6287 2.73867C57.5051 1.62474 55.9869 0.999756 54.4046 0.999756V6.99976ZM70.9367 7.07739H76.9367C76.9367 5.47703 76.2974 3.94299 75.1608 2.8163L70.9367 7.07739ZM70.9367 8.11963L75.1608 12.3807C76.2974 11.254 76.9367 9.71999 76.9367 8.11963H70.9367ZM70.8584 8.19727V14.1973C72.4406 14.1973 73.9588 13.5723 75.0825 12.4584L70.8584 8.19727ZM65.8066 8.19727V2.19727C62.4929 2.19727 59.8066 4.88356 59.8066 8.19727H65.8066ZM65.8066 11.2932H59.8066C59.8066 14.6069 62.4929 17.2932 65.8066 17.2932V11.2932ZM69.6148 11.2932L73.839 7.03212C72.7153 5.9182 71.1971 5.29321 69.6148 5.29321V11.2932ZM69.6932 11.3708H75.6932C75.6932 9.77049 75.0538 8.23644 73.9173 7.10976L69.6932 11.3708ZM69.6932 12.4285L73.9173 16.6896C75.0538 15.5629 75.6932 14.0288 75.6932 12.4285H69.6932ZM69.6148 12.5061V18.5061C71.1971 18.5061 72.7153 17.8811 73.839 16.7672L69.6148 12.5061ZM65.8066 12.5061V6.5061C62.4929 6.5061 59.8066 9.19239 59.8066 12.5061H65.8066ZM65.8066 16.6912H59.8066C59.8066 20.0049 62.4929 22.6912 65.8066 22.6912V16.6912ZM71.3254 16.6912L75.5694 12.45C74.4441 11.3239 72.9174 10.6912 71.3254 10.6912V16.6912ZM71.403 16.7688H77.403C77.403 15.1782 76.7714 13.6527 75.647 12.5276L71.403 16.7688ZM71.403 17.811L75.647 22.0522C76.7714 20.9271 77.403 19.4016 77.403 17.811H71.403ZM71.3254 17.8887V23.8887C72.9174 23.8887 74.4441 23.256 75.5694 22.1299L71.3254 17.8887ZM64.6875 17.8887L60.4434 22.1299C61.5688 23.256 63.0955 23.8887 64.6875 23.8887V17.8887ZM64.6099 17.811H58.6099C58.6099 19.4016 59.2415 20.9271 60.3659 22.0522L64.6099 17.811ZM64.6099 7.07739L60.3659 2.83618C59.2415 3.96128 58.6099 5.48679 58.6099 7.07739H64.6099ZM64.6875 6.99976V0.999756C63.0955 0.999756 61.5688 1.63245 60.4434 2.75854L64.6875 6.99976ZM70.8584 6.99976L75.0825 2.73867C73.9588 1.62474 72.4406 0.999756 70.8584 0.999756V6.99976ZM79.9585 6.99976L79.9587 0.999756H79.9585V6.99976ZM83.3627 9.73755L89.3627 9.73758V9.73755H83.3627ZM82.2121 11.6506L79.2465 6.43475C77.1372 7.63402 75.9578 9.98568 76.2582 12.3934C76.5586 14.8012 78.2796 16.791 80.6189 17.4353L82.2121 11.6506ZM84.6838 14.6067L90.6838 14.6072V14.6067H84.6838ZM77.4867 17.8887L73.2427 22.1299C74.368 23.256 75.8947 23.8887 77.4867 23.8887V17.8887ZM77.4092 17.811H71.4092C71.4092 19.4016 72.0407 20.9271 73.1651 22.0522L77.4092 17.811ZM77.4092 7.07739L73.1651 2.83618C72.0407 3.96128 71.4092 5.48679 71.4092 7.07739H77.4092ZM77.4867 6.99976V0.999756C75.8947 0.999756 74.368 1.63245 73.2427 2.75854L77.4867 6.99976ZM89.6485 6.99976L89.6486 0.999756H89.6485V6.99976ZM93.1464 10.0173H99.1464V10.017L93.1464 10.0173ZM91.0318 12.8174L89.0902 7.14022C87.281 7.75899 85.875 9.20308 85.3048 11.0282C84.7346 12.8534 85.0685 14.8411 86.2038 16.3797L91.0318 12.8174ZM94.7163 17.811L98.9405 22.0721C101.055 19.9756 101.312 16.645 99.5444 14.2487L94.7163 17.811ZM94.638 17.8887V23.8887C96.2203 23.8887 97.7385 23.2637 98.8621 22.1498L94.638 17.8887ZM93.2393 17.8887L88.9952 22.1299C90.1206 23.256 91.6473 23.8887 93.2393 23.8887V17.8887ZM93.1617 17.811L88.3644 21.4146C88.5336 21.6398 88.7185 21.8529 88.9177 22.0522L93.1617 17.811ZM89.5863 13.051L94.3836 9.4475C93.2503 7.93874 91.4733 7.05103 89.5863 7.05103V13.051ZM87.9226 13.051V7.05103C84.6089 7.05103 81.9226 9.73732 81.9226 13.051H87.9226ZM87.9226 17.811L92.1666 22.0522C93.291 20.9271 93.9226 19.4016 93.9226 17.811H87.9226ZM87.845 17.8887V23.8887C89.437 23.8887 90.9637 23.256 92.0891 22.1299L87.845 17.8887ZM86.8035 17.8887L82.5594 22.1299C83.6847 23.256 85.2115 23.8887 86.8035 23.8887V17.8887ZM86.7259 17.811H80.7259C80.7259 19.4016 81.3575 20.9271 82.4818 22.0522L86.7259 17.811ZM86.7259 7.07739L82.4818 2.83618C81.3575 3.96128 80.7259 5.48679 80.7259 7.07739H86.7259ZM86.8035 6.99976V0.999756C85.2115 0.999756 83.6847 1.63245 82.5594 2.75854L86.8035 6.99976ZM100.783 7.07739L106.346 4.82942C106.045 4.08328 105.596 3.40542 105.027 2.83618L100.783 7.07739ZM105.121 17.811L109.365 22.0522C111.066 20.3496 111.586 17.7949 110.684 15.5631L105.121 17.811ZM105.043 17.8887V23.8887C106.635 23.8887 108.162 23.256 109.287 22.1299L105.043 17.8887ZM103.893 17.8887L99.6485 22.1299C100.774 23.256 102.301 23.8887 103.893 23.8887V17.8887ZM103.815 17.811L98.2626 20.085C98.564 20.821 99.0087 21.4897 99.5709 22.0522L103.815 17.811ZM102.649 14.9641L108.201 12.6901C107.278 10.4363 105.084 8.96411 102.649 8.96411V14.9641ZM97.6748 14.9641V8.96411C95.2292 8.96411 93.0283 10.4484 92.1119 12.7159L97.6748 14.9641ZM96.5242 17.811L100.768 22.0522C101.337 21.4831 101.786 20.8053 102.087 20.0593L96.5242 17.811ZM96.4466 17.8887V23.8887C98.0386 23.8887 99.5654 23.256 100.691 22.1299L96.4466 17.8887ZM95.296 17.8887L91.052 22.1299C92.1773 23.256 93.704 23.8887 95.296 23.8887V17.8887ZM95.2184 17.811L89.6526 15.5702C88.7547 17.8006 89.2748 20.3516 90.9744 22.0522L95.2184 17.811ZM99.5398 7.07739L95.3156 2.8163C94.7355 3.39138 94.279 4.07886 93.9739 4.8366L99.5398 7.07739ZM99.6181 6.99976V0.999756C98.0358 0.999756 96.5176 1.62474 95.394 2.73867L99.6181 6.99976ZM100.706 6.99976L104.95 2.75854C103.824 1.63245 102.298 0.999756 100.706 0.999756V6.99976ZM107.905 7.07739H113.905C113.905 5.48679 113.273 3.96128 112.149 2.83618L107.905 7.07739ZM107.905 17.811L112.149 22.0522C113.273 20.9271 113.905 19.4016 113.905 17.811H107.905ZM107.827 17.8887V23.8887C109.419 23.8887 110.946 23.256 112.071 22.1299L107.827 17.8887ZM106.786 17.8887L102.542 22.1299C103.667 23.256 105.194 23.8887 106.786 23.8887V17.8887ZM106.708 17.811H100.708C100.708 19.4016 101.34 20.9271 102.464 22.0522L106.708 17.811ZM106.708 7.07739L102.464 2.83618C101.34 3.96128 100.708 5.48679 100.708 7.07739H106.708ZM106.786 6.99976V0.999756C105.194 0.999756 103.667 1.63245 102.542 2.75854L106.786 6.99976ZM107.827 6.99976L112.071 2.75854C110.946 1.63245 109.419 0.999756 107.827 0.999756V6.99976ZM111.913 7.07739L116.694 3.45225C116.138 2.71893 115.421 2.12334 114.598 1.71155L111.913 7.07739ZM118.66 15.9756L113.879 19.6007C115.436 21.654 118.13 22.484 120.572 21.6627C123.015 20.8414 124.66 18.5524 124.66 15.9756H118.66ZM118.66 7.07739L114.416 2.83618C113.292 3.96128 112.66 5.48679 112.66 7.07739H118.66ZM118.738 6.99976V0.999756C117.146 0.999756 115.619 1.63245 114.493 2.75854L118.738 6.99976ZM119.779 6.99976L124.023 2.75854C122.898 1.63245 121.371 0.999756 119.779 0.999756V6.99976ZM119.857 7.07739H125.857C125.857 5.48679 125.225 3.96128 124.101 2.83618L119.857 7.07739ZM119.857 17.811L124.101 22.0522C125.225 20.9271 125.857 19.4016 125.857 17.811H119.857ZM119.779 17.8887V23.8887C121.371 23.8887 122.898 23.256 124.023 22.1299L119.779 17.8887ZM118.675 17.8887L116.001 23.2596C116.832 23.6733 117.747 23.8887 118.675 23.8887V17.8887ZM118.519 17.811L113.738 21.4359C114.297 22.1724 115.017 22.7699 115.845 23.1819L118.519 17.811ZM111.773 8.91284L116.554 5.28794C114.998 3.23453 112.304 2.40447 109.861 3.22569C107.419 4.04691 105.773 6.336 105.773 8.91284H111.773ZM111.773 17.811L116.017 22.0522C117.142 20.9271 117.773 19.4016 117.773 17.811H111.773ZM111.696 17.8887V23.8887C113.288 23.8887 114.814 23.256 115.94 22.1299L111.696 17.8887ZM110.654 17.8887L106.41 22.1299C107.535 23.256 109.062 23.8887 110.654 23.8887V17.8887ZM110.577 17.811H104.577C104.577 19.4016 105.208 20.9271 106.332 22.0522L110.577 17.811ZM110.577 7.07739L106.332 2.83618C105.208 3.96128 104.577 5.48679 104.577 7.07739H110.577ZM110.654 6.99976V0.999756C109.062 0.999756 107.535 1.63245 106.41 2.75854L110.654 6.99976ZM111.758 6.99976L114.443 1.63392C113.609 1.21688 112.69 0.999756 111.758 0.999756V6.99976ZM78.6059 16.6912H72.6059C72.6059 20.0049 75.2922 22.6912 78.6059 22.6912V16.6912ZM83.3158 14.6067L89.3158 14.6073V14.6067H83.3158ZM78.6059 12.5845V6.58447C75.2922 6.58447 72.6059 9.27076 72.6059 12.5845H78.6059ZM98.1564 13.7666L92.57 11.5776C91.8463 13.4244 92.0821 15.5094 93.1999 17.1479C94.3177 18.7864 96.173 19.7666 98.1564 19.7666V13.7666ZM102.183 13.7666V19.7666C104.169 19.7666 106.026 18.7837 107.144 17.1414C108.261 15.4992 108.493 13.4105 107.763 11.5631L102.183 13.7666ZM100.162 8.64844L105.743 6.44494C104.837 4.15123 102.62 2.64524 100.154 2.64844C97.6881 2.65165 95.4751 4.16341 94.5754 6.45946L100.162 8.64844ZM87.9226 11.8374H81.9226C81.9226 15.1511 84.6089 17.8374 87.9226 17.8374V11.8374ZM89.5709 11.8374V17.8374H89.5713L89.5709 11.8374ZM91.7623 10.0173H97.7623V10.0169L91.7623 10.0173ZM89.6485 8.19727L89.6486 2.19727H89.6485V8.19727ZM87.9226 8.19727V2.19727C84.6089 2.19727 81.9226 4.88356 81.9226 8.19727H87.9226ZM78.6059 11.3708H72.6059C72.6059 14.6846 75.2922 17.3708 78.6059 17.3708V11.3708ZM79.9585 11.3708V17.3708H79.9588L79.9585 11.3708ZM81.9947 9.73755L87.9947 9.73759V9.73755H81.9947ZM79.9585 8.19727L79.9588 2.19727H79.9585V8.19727ZM78.6059 8.19727V2.19727C75.2922 2.19727 72.6059 4.88356 72.6059 8.19727H78.6059ZM25.8433 6L25.8431 12C25.446 12 25.1555 11.7071 25.1271 11.3424L31.1088 10.875L37.0906 10.4076C36.6365 4.59633 31.7808 0.00023365 25.8436 0L25.8433 6ZM31.1088 10.875L30.6511 16.8575C30.2632 16.8278 29.9798 16.5271 29.9798 16.1404H35.9798H41.9798C41.9798 10.2132 37.3911 5.33809 31.5665 4.89248L31.1088 10.875ZM35.9798 16.1404L29.9798 16.1403C29.9798 15.8263 30.173 15.5845 30.4088 15.4836L32.7688 21L35.1288 26.5164C39.1309 24.8042 41.9798 20.8202 41.9798 16.1404L35.9798 16.1404ZM32.7688 21L30.4143 26.5187C30.1684 26.4138 29.9798 26.168 29.9798 25.8597L35.9798 25.8596L41.9798 25.8596C41.9798 21.1959 39.1458 17.1974 35.1234 15.4813L32.7688 21ZM35.9798 25.8596H29.9798C29.9798 25.4729 30.2632 25.1722 30.6511 25.1425L31.1088 31.125L31.5665 37.1075C37.3911 36.6619 41.9798 31.7868 41.9798 25.8596H35.9798ZM31.1088 31.125L25.1262 30.668C25.1553 30.2872 25.4536 29.9994 25.8429 29.9993L25.8448 35.9993L25.8467 41.9993C31.7852 41.9974 36.6471 37.3981 37.0914 31.582L31.1088 31.125ZM25.8448 35.9993L25.8487 29.9993C26.1629 29.9995 26.4091 30.1926 26.5124 30.4352L20.9928 32.7876L15.4732 35.14C17.1839 39.1539 21.1719 41.9962 25.8409 41.9993L25.8448 35.9993ZM20.9928 32.7876L15.4756 30.4297C15.5762 30.1942 15.8144 30 16.1365 30V36V42C20.8163 42 24.8012 39.144 26.5101 35.1455L20.9928 32.7876ZM16.1365 36L16.1369 30C16.5338 30 16.8242 30.2927 16.8528 30.6576L10.871 31.125L4.88922 31.5924C5.34333 37.4038 10.1992 41.9996 16.1361 42L16.1365 36ZM10.871 31.125L11.3288 25.1425C11.7166 25.1722 12 25.4727 12 25.8596H6H0C0 31.7869 4.5889 36.6618 10.4131 37.1075L10.871 31.125ZM6 25.8596L12 25.8597C12 26.1738 11.8068 26.4155 11.5711 26.5163L9.21097 21L6.85081 15.4837C2.84909 17.1958 4.1008e-05 21.1797 0 25.8596L6 25.8596ZM9.21097 21L11.5656 15.4813C11.8114 15.5862 12 15.8319 12 16.1403L6 16.1404L0 16.1404C4.19617e-05 20.8042 2.83414 24.8025 6.8563 26.5187L9.21097 21ZM6 16.1404H12C12 16.5273 11.7166 16.8278 11.3288 16.8575L10.871 10.875L10.4131 4.8925C4.5889 5.33824 0 10.2131 0 16.1404H6ZM10.871 10.875L16.8545 11.3198C16.8251 11.7148 16.5168 12 16.1317 12L16.1314 6L16.131 0C10.2059 0.000333309 5.32172 4.58861 4.88749 10.4302L10.871 10.875ZM16.1314 6V12C15.8168 12 15.5714 11.8072 15.4681 11.5648L20.9877 9.2124L26.5073 6.85997C24.7958 2.84419 20.8037 0 16.1314 0V6ZM20.9877 9.2124L26.505 11.5703C26.4047 11.8049 26.1664 12 25.8433 12V6V0C21.1626 0 17.1789 2.85687 15.4704 6.85448L20.9877 9.2124ZM25.8484 36V30H25.8433V36V42H25.8484V36ZM25.8433 36L28.528 41.3658L28.5295 41.3651L25.8448 35.9993L23.1601 30.6334L23.1586 30.6342L25.8433 36ZM25.8448 35.9993L24.6673 41.8826L24.671 41.8833L25.8484 36L27.0259 30.1167L27.0222 30.1159L25.8448 35.9993ZM54.7647 23.8777V29.8777C54.2112 29.8777 53.6393 29.7085 53.1579 29.4011C52.7091 29.1145 52.4454 28.7792 52.3018 28.5327L57.4853 25.511L62.6689 22.4892C61.2762 20.1003 58.5574 17.8777 54.7647 17.8777V23.8777ZM57.4853 25.511L53.9804 20.6411L53.094 21.2791L56.599 26.1489L60.1039 31.0188L60.9903 30.3808L57.4853 25.511ZM56.599 26.1489V20.1489H56.4438V26.1489V32.1489H56.599V26.1489ZM56.4438 26.1489L61.2309 22.5318C60.8342 22.0068 60.1035 21.1084 58.9744 20.3741C57.6979 19.544 56.2545 19.1375 54.7647 19.1375V25.1375V31.1375C54.0212 31.1375 53.1763 30.9178 52.4324 30.434C51.8357 30.046 51.5715 29.6533 51.6567 29.766L56.4438 26.1489ZM54.7647 25.1375L54.7641 19.1375C50.6059 19.1379 47.3507 22.4835 47.3507 26.5847H53.3507H59.3507C59.3507 27.6869 58.9226 28.8607 58.0228 29.769C57.1288 30.6713 55.9386 31.1373 54.7654 31.1375L54.7647 25.1375ZM53.3507 26.5847L47.3507 26.5868C47.3519 30.2176 49.9446 32.1256 50.8185 32.7036C51.3556 33.0588 51.8851 33.3324 52.2164 33.5C52.6866 33.7379 52.7653 33.7695 53.0668 33.9265C53.5629 34.1848 53.3999 34.1655 53.1246 33.8653C52.6799 33.38 52.3248 32.6105 52.3248 31.8267H58.3248H64.3248C64.3248 29.3162 63.3481 27.2596 61.9708 25.7569C60.763 24.4392 59.3566 23.6723 58.6092 23.2831C58.2889 23.1163 57.7459 22.8492 57.6333 22.7922C57.3816 22.6649 57.3671 22.6476 57.4378 22.6943C57.4903 22.729 57.9267 23.0134 58.3718 23.6094C58.8938 24.3082 59.3502 25.3394 59.3507 26.5826L53.3507 26.5847ZM58.3248 31.8267L52.3248 31.8265C52.3249 30.3985 53.4842 29.2333 54.9202 29.2332L54.9207 35.2332L54.9211 41.2332C60.1187 41.2327 64.3247 37.019 64.3248 31.8268L58.3248 31.8267ZM54.9207 35.2332V29.2332C55.2793 29.2332 55.8238 29.3454 56.3573 29.72C56.8783 30.0858 57.1407 30.5267 57.2485 30.804L51.6562 32.978L46.064 35.152C47.4618 38.7479 50.7751 41.2332 54.9207 41.2332V35.2332ZM51.6562 32.978L55.3666 37.6932L56.2369 37.0084L52.5265 32.2932L48.8161 27.578L47.9458 28.2628L51.6562 32.978ZM52.5265 32.2932V38.2932H52.6817V32.2932V26.2932H52.5265V32.2932ZM52.6817 32.2932L47.1542 34.6272C47.6785 35.8688 48.5452 37.2549 49.9742 38.3346C51.4714 39.4659 53.2093 39.9734 54.9207 39.9734V33.9734V27.9734C55.606 27.9734 56.4576 28.193 57.2084 28.7604C57.891 29.2761 58.1512 29.8221 58.2091 29.9592L52.6817 32.2932ZM54.9207 33.9734L54.9214 39.9734C59.695 39.9728 62.9567 36.0666 62.9569 31.8269L56.9569 31.8267L50.9569 31.8265C50.9569 31.0042 51.262 30.0336 52.0226 29.2317C52.7978 28.4144 53.865 27.9735 54.9199 27.9734L54.9207 33.9734ZM56.9569 31.8267H62.9569C62.9569 28.7054 61.1538 26.7135 59.8928 25.719C58.8468 24.894 57.5336 24.2717 57.2062 24.1033C56.529 23.755 56.6493 23.7618 56.8899 23.9915C57.3513 24.432 57.9664 25.3678 57.9666 26.5839L51.9666 26.5847L45.9666 26.5855C45.967 29.2948 47.206 31.3368 48.6031 32.6708C49.7794 33.7939 51.1473 34.4812 51.7175 34.7745C52.6377 35.2478 52.572 35.2282 52.4616 35.1412C52.1362 34.8846 50.9569 33.7658 50.9569 31.8267H56.9569ZM51.9666 26.5847H57.9666C57.9666 28.5547 56.357 29.8776 54.7651 29.8777L54.7647 23.8777L54.7644 17.8777C50.0326 17.8779 45.9666 21.6282 45.9666 26.5847H51.9666ZM73.6617 23.8777L73.6614 29.8777C73.8024 29.8777 73.86 29.8972 73.8622 29.8979C73.8645 29.8987 73.8645 29.8977 73.8751 29.9054L77.3923 25.0444L80.9095 20.1834C78.8653 18.7043 76.3884 17.8778 73.6619 17.8777L73.6617 23.8777ZM77.3923 25.0444H71.3923V26.4133H77.3923H83.3923V25.0444H77.3923ZM77.3923 26.4133L73.1483 22.1721L73.0707 22.2498L77.3147 26.491L81.5588 30.7322L81.6364 30.6545L77.3923 26.4133ZM77.3147 26.491L81.1232 21.8546C79.1055 20.1972 76.4928 19.1376 73.6621 19.1375L73.6617 25.1375L73.6613 31.1375C73.5664 31.1374 73.5081 31.1195 73.4887 31.1123C73.471 31.1056 73.481 31.1065 73.5063 31.1273L77.3147 26.491ZM73.6617 25.1375V19.1375C67.9214 19.1375 63.2775 23.801 63.2774 29.5554L69.2774 29.5554L75.2774 29.5555C75.2774 30.3943 74.583 31.1375 73.6617 31.1375V25.1375ZM69.2774 29.5554H63.2774C63.2774 35.3099 67.9215 39.9734 73.6617 39.9734V33.9734V27.9734C74.5829 27.9734 75.2774 28.7165 75.2774 29.5554H69.2774ZM73.6617 33.9734L73.6621 39.9734C76.4928 39.9732 79.1055 38.9136 81.1232 37.2562L77.3147 32.6199L73.5063 27.9836C73.481 28.0043 73.471 28.0052 73.4887 27.9986C73.5081 27.9913 73.5664 27.9734 73.6613 27.9734L73.6617 33.9734ZM77.3147 32.6199L73.0707 36.8611L73.1483 36.9387L77.3923 32.6975L81.6364 28.4563L81.5588 28.3787L77.3147 32.6199ZM77.3923 32.6975H71.3923V34.0664H77.3923H83.3923V32.6975H77.3923ZM77.3923 34.0664L73.8751 29.2054C73.8645 29.2131 73.8645 29.2121 73.8622 29.2129C73.86 29.2136 73.8024 29.2331 73.6614 29.2332L73.6617 35.2332L73.6619 41.2332C76.3884 41.233 78.8653 40.4065 80.9095 38.9274L77.3923 34.0664ZM73.6617 35.2332V29.2332C73.677 29.2332 73.708 29.2374 73.7419 29.2516C73.7716 29.2641 73.7953 29.2806 73.8143 29.2996C73.8517 29.3366 73.9095 29.4284 73.9095 29.5554H67.9095H61.9095C61.9095 36.0302 67.2114 41.2332 73.6617 41.2332V35.2332ZM67.9095 29.5554L73.9095 29.5555C73.9095 29.6825 73.8517 29.7743 73.8144 29.8113C73.7953 29.8302 73.7716 29.8467 73.7419 29.8592C73.708 29.8734 73.677 29.8777 73.6617 29.8777V23.8777V17.8777C67.2114 17.8777 61.9095 23.0807 61.9095 29.5554L67.9095 29.5554ZM96.3566 23.8777L96.3564 29.8777C96.3041 29.8777 96.2437 29.8509 96.2053 29.8131C96.1862 29.7942 96.1623 29.7637 96.142 29.7164C96.1199 29.6648 96.1081 29.6064 96.1081 29.5555L102.108 29.5554L108.108 29.5554C108.108 23.0449 102.771 17.8778 96.3568 17.8777L96.3566 23.8777ZM102.108 29.5554H96.1081C96.1081 29.5044 96.1199 29.4461 96.142 29.3945C96.1623 29.3472 96.1863 29.3166 96.2054 29.2978C96.2437 29.2599 96.3041 29.2332 96.3564 29.2332L96.3566 35.2332L96.3568 41.2332C102.771 41.233 108.108 36.066 108.108 29.5554H102.108ZM96.3566 35.2332V29.2332C96.4089 29.2332 96.4694 29.2599 96.5078 29.2978C96.5269 29.3167 96.5509 29.3473 96.5712 29.3946C96.5933 29.4462 96.6051 29.5045 96.6051 29.5554H90.6051H84.6051C84.6051 36.0659 89.9422 41.2332 96.3566 41.2332V35.2332ZM90.6051 29.5554L96.6051 29.5555C96.6051 29.6064 96.5933 29.6647 96.5712 29.7163C96.5509 29.7636 96.527 29.7941 96.5078 29.813C96.4694 29.8509 96.409 29.8777 96.3566 29.8777V23.8777V17.8777C89.9422 17.8777 84.6051 23.045 84.6051 29.5554L90.6051 29.5554ZM116.881 23.8777V29.8777C116.829 29.8777 116.769 29.851 116.731 29.8134C116.712 29.7946 116.688 29.7641 116.668 29.7168C116.645 29.6651 116.634 29.6066 116.634 29.5555L122.634 29.5554L128.634 29.5554C128.634 23.044 123.295 17.8777 116.881 17.8777V23.8777ZM122.634 29.5554H116.634C116.634 29.5042 116.645 29.4458 116.668 29.3941C116.688 29.3468 116.712 29.3163 116.731 29.2975C116.769 29.2598 116.829 29.2332 116.881 29.2332V35.2332V41.2332C123.295 41.2332 128.634 36.0669 128.634 29.5554H122.634ZM116.881 35.2332L116.882 29.2332C116.934 29.2332 116.994 29.2599 117.033 29.2977C117.052 29.3166 117.076 29.3472 117.096 29.3944C117.118 29.446 117.13 29.5044 117.13 29.5554H111.13H105.13C105.13 36.0661 110.467 41.2329 116.881 41.2332L116.881 35.2332ZM111.13 29.5554L117.13 29.5555C117.13 29.6065 117.118 29.6648 117.096 29.7164C117.076 29.7637 117.052 29.7942 117.033 29.8131C116.994 29.8509 116.934 29.8777 116.882 29.8777L116.881 23.8777L116.881 17.8777C110.467 17.8779 105.13 23.0448 105.13 29.5554L111.13 29.5554ZM130.259 23.8777V29.8777C130.462 29.8777 130.625 29.8864 130.753 29.8991C130.881 29.9118 130.956 29.9269 130.985 29.9339C131.054 29.9503 130.842 29.913 130.532 29.6791L134.145 24.8892L137.759 20.0992C135.188 18.1602 132.19 17.8777 130.259 17.8777V23.8777ZM134.145 24.8892H128.145V26.2573H134.145H140.145V24.8892H134.145ZM134.145 26.2573L129.881 22.0361L129.804 22.1145L134.068 26.3357L138.332 30.5569L138.409 30.4786L134.145 26.2573ZM134.068 26.3357L138.035 21.8341C135.405 19.5166 132.213 19.1375 130.259 19.1375V25.1375V31.1375C130.38 31.1375 130.476 31.144 130.548 31.1526C130.62 31.1613 130.65 31.1701 130.643 31.1681C130.634 31.1656 130.396 31.0972 130.101 30.8373L134.068 26.3357ZM130.259 25.1375L130.259 19.1375C124.412 19.1376 119.719 23.7057 119.719 29.5554L125.719 29.5554L131.719 29.5555C131.719 29.9339 131.557 30.3677 131.223 30.6968C130.884 31.0312 130.495 31.1374 130.259 31.1375L130.259 25.1375ZM125.719 29.5554H119.719C119.719 35.625 124.668 39.9731 130.336 39.9734L130.336 33.9734L130.337 27.9734C130.519 27.9734 130.866 28.0521 131.195 28.3666C131.535 28.6917 131.719 29.1473 131.719 29.5554H125.719ZM130.336 33.9734V39.9734C132.057 39.9734 134.2 39.5839 136.135 38.4514L133.104 33.2732L130.073 28.095C130.17 28.0379 130.243 28.0068 130.282 27.9917C130.321 27.9764 130.342 27.9715 130.343 27.9712C130.345 27.9708 130.34 27.972 130.331 27.973C130.322 27.9741 130.322 27.9734 130.336 27.9734V33.9734ZM133.104 33.2732H139.104V30.2402H133.104H127.104V33.2732H133.104ZM133.104 30.2402V24.2402H130.647V30.2402V36.2402H133.104V30.2402ZM130.647 30.2402L134.911 26.019L134.834 25.9406L130.57 30.1619L126.306 34.3831L126.384 34.4615L130.647 30.2402ZM130.57 30.1619H136.57V29.1042H130.57H124.57V30.1619H130.57ZM130.57 29.1042L134.814 33.3455L134.892 33.2678L130.647 29.0266L126.403 24.7854L126.326 24.863L130.57 29.1042ZM130.647 29.0266V35.0266H134.223V29.0266V23.0266H130.647V29.0266ZM134.223 29.0266L129.979 33.2678L130.056 33.3455L134.301 29.1042L138.545 24.863L138.467 24.7854L134.223 29.0266ZM134.301 29.1042H128.301V33.9888H134.301H140.301V29.1042H134.301ZM134.301 33.9888L130.751 29.1514C130.746 29.155 130.721 29.1728 130.658 29.192C130.591 29.2124 130.483 29.2332 130.336 29.2332V35.2332V41.2332C132.83 41.2332 135.517 40.5379 137.85 38.8261L134.301 33.9888ZM130.336 35.2332L130.337 29.2332C130.172 29.2331 130.16 29.1798 130.216 29.2328C130.241 29.2571 130.279 29.3023 130.309 29.3717C130.342 29.4455 130.352 29.5144 130.352 29.5554H124.352H118.352C118.352 36.3635 123.995 41.2329 130.336 41.2332L130.336 35.2332ZM124.352 29.5554L130.352 29.5555C130.352 29.6091 130.34 29.6734 130.314 29.7332C130.29 29.7895 130.26 29.8271 130.237 29.8497C130.213 29.8728 130.195 29.8819 130.188 29.8844C130.179 29.8883 130.197 29.8777 130.259 29.8777L130.259 23.8777L130.259 17.8777C123.758 17.8778 118.352 22.9781 118.352 29.5554L124.352 29.5554ZM143.094 23.8777V29.8777C142.54 29.8777 141.968 29.7085 141.487 29.4011C141.038 29.1145 140.775 28.7792 140.631 28.5327L145.814 25.511L150.998 22.4892C149.605 20.1003 146.887 17.8777 143.094 17.8777V23.8777ZM145.814 25.511L142.31 20.6411L141.423 21.2791L144.928 26.1489L148.433 31.0188L149.319 30.3808L145.814 25.511ZM144.928 26.1489V20.1489H144.773V26.1489V32.1489H144.928V26.1489ZM144.773 26.1489L149.56 22.5318C149.163 22.0068 148.433 21.1084 147.304 20.3741C146.027 19.544 144.584 19.1375 143.094 19.1375V25.1375V31.1375C142.35 31.1375 141.505 30.9178 140.762 30.434C140.165 30.046 139.901 29.6533 139.986 29.766L144.773 26.1489ZM143.094 25.1375L143.093 19.1375C138.935 19.1379 135.68 22.4835 135.68 26.5847H141.68H147.68C147.68 27.6869 147.252 28.8607 146.352 29.769C145.458 30.6713 144.268 31.1373 143.095 31.1375L143.094 25.1375ZM141.68 26.5847L135.68 26.5868C135.681 30.2176 138.274 32.1256 139.148 32.7036C139.685 33.0588 140.214 33.3324 140.546 33.5C141.016 33.7379 141.094 33.7695 141.396 33.9265C141.892 34.1848 141.729 34.1655 141.454 33.8653C141.009 33.38 140.654 32.6105 140.654 31.8267H146.654H152.654C152.654 29.3162 151.677 27.2596 150.3 25.7569C149.092 24.4392 147.686 23.6723 146.938 23.2831C146.618 23.1163 146.075 22.8492 145.962 22.7922C145.711 22.6649 145.696 22.6476 145.767 22.6943C145.819 22.729 146.256 23.0134 146.701 23.6094C147.223 24.3082 147.679 25.3394 147.68 26.5826L141.68 26.5847ZM146.654 31.8267L140.654 31.8265C140.654 30.3985 141.813 29.2333 143.249 29.2332L143.25 35.2332L143.25 41.2332C148.448 41.2327 152.654 37.019 152.654 31.8268L146.654 31.8267ZM143.25 35.2332V29.2332C143.608 29.2332 144.153 29.3454 144.686 29.72C145.207 30.0858 145.47 30.5267 145.578 30.804L139.985 32.978L134.393 35.152C135.791 38.7479 139.104 41.2332 143.25 41.2332V35.2332ZM139.985 32.978L143.696 37.6932L144.566 37.0084L140.856 32.2932L137.145 27.578L136.275 28.2628L139.985 32.978ZM140.856 32.2932V38.2932H141.011V32.2932V26.2932H140.856V32.2932ZM141.011 32.2932L135.483 34.6272C136.008 35.8688 136.874 37.2549 138.303 38.3346C139.801 39.4659 141.538 39.9734 143.25 39.9734V33.9734V27.9734C143.935 27.9734 144.787 28.193 145.538 28.7604C146.22 29.2761 146.48 29.8221 146.538 29.9592L141.011 32.2932ZM143.25 33.9734L143.251 39.9734C148.024 39.9728 151.286 36.0665 151.286 31.8269L145.286 31.8267L139.286 31.8265C139.286 31.0042 139.591 30.0336 140.352 29.2317C141.127 28.4144 142.194 27.9735 143.249 27.9734L143.25 33.9734ZM145.286 31.8267H151.286C151.286 28.7054 149.483 26.7135 148.222 25.719C147.176 24.894 145.863 24.2717 145.535 24.1033C144.858 23.755 144.978 23.7618 145.219 23.9915C145.68 24.432 146.296 25.3678 146.296 26.5839L140.296 26.5847L134.296 26.5855C134.296 29.2948 135.535 31.3368 136.932 32.6708C138.109 33.7939 139.476 34.4812 140.047 34.7745C140.967 35.2478 140.901 35.2282 140.791 35.1412C140.465 34.8846 139.286 33.7658 139.286 31.8267H145.286ZM140.296 26.5847H146.296C146.296 28.5547 144.686 29.8776 143.094 29.8777L143.094 23.8777L143.094 17.8777C138.362 17.8779 134.296 21.6282 134.296 26.5847H140.296ZM16.1314 6.84741L16.131 0.847412C10.3735 0.847797 5.69587 5.52507 5.69587 11.2859H11.6959H17.6959C17.6959 12.1509 17.0027 12.8474 16.1318 12.8474L16.1314 6.84741ZM11.6959 11.2859L5.69587 11.2855C5.69605 8.22116 8.18031 5.70703 11.2757 5.70703V11.707V17.707C14.8381 17.707 17.6957 14.8184 17.6959 11.2862L11.6959 11.2859ZM11.2757 11.707L11.2755 5.70703C5.52223 5.70727 0.840282 10.3751 0.840254 16.1455L6.84025 16.1455L12.8403 16.1455C12.8403 17.0097 12.1426 17.707 11.276 17.707L11.2757 11.707ZM6.84025 16.1455H0.840254C0.840254 21.9114 5.5125 26.5837 11.2755 26.584L11.2757 20.584L11.276 14.584C12.1419 14.584 12.8403 15.2859 12.8403 16.1455H6.84025ZM11.2757 20.584V26.584C8.17968 26.584 5.69636 24.0694 5.69587 21.0061L11.6959 21.0051L17.6959 21.0042C17.6953 17.4732 14.8387 14.584 11.2757 14.584V20.584ZM11.6959 21.0051H5.69587C5.69587 17.9401 8.18067 15.4263 11.2757 15.4263V21.4263V27.4263C14.8377 27.4263 17.6959 24.5379 17.6959 21.0051H11.6959ZM11.2757 21.4263H17.2757V21.4211H11.2757H5.27574V21.4263H11.2757ZM11.2757 21.4211L11.2755 15.4211C5.51763 15.4214 0.840314 20.099 0.840254 25.8596L6.84025 25.8596L12.8403 25.8597C12.8402 26.7244 12.1472 27.4211 11.276 27.4211L11.2757 21.4211ZM6.84025 25.8596H0.840254C0.840254 31.6158 5.50792 36.2979 11.2755 36.2981L11.2757 30.2981L11.276 24.2981C12.1465 24.2981 12.8403 24.9994 12.8403 25.8596H6.84025ZM11.2757 30.2981V36.2981C8.17932 36.2981 5.69654 33.7832 5.69587 30.7206L11.6959 30.7192L17.6959 30.7179C17.6951 27.1876 14.839 24.2981 11.2757 24.2981V30.2981ZM11.6959 30.7192H5.69587C5.69587 36.4657 10.3591 41.1573 16.131 41.1577L16.1314 35.1577L16.1318 29.1577C17.0066 29.1578 17.6959 29.8582 17.6959 30.7192H11.6959ZM16.1314 35.1577V41.1577C21.8995 41.1577 26.5668 36.4752 26.5668 30.7192H20.5668H14.5668C14.5668 29.8593 15.2605 29.1577 16.1314 29.1577V35.1577ZM20.5668 30.7192L26.5668 30.7191C26.5667 24.9634 21.8996 20.2808 16.1314 20.2808V26.2808V32.2808C15.2603 32.2808 14.5669 31.5791 14.5668 30.7194L20.5668 30.7192ZM16.1314 26.2808L16.1355 20.2808C19.2233 20.2829 21.7112 22.7904 21.7112 25.8596H15.7112H9.71123C9.71123 29.3964 12.5728 32.2783 16.1272 32.2808L16.1314 26.2808ZM15.7112 25.8596L21.7112 25.8603C21.7109 28.9284 19.224 31.4363 16.1355 31.4385L16.1314 25.4385L16.1272 19.4385C12.5721 19.4409 9.71161 22.3233 9.71123 25.859L15.7112 25.8596ZM16.1314 25.4385V31.4385C21.8851 31.4385 26.5668 26.7703 26.5668 21H20.5668H14.5668C14.5668 20.1362 15.2644 19.4385 16.1314 19.4385V25.4385ZM20.5668 21H26.5668C26.5668 15.2343 21.8949 10.5615 16.1314 10.5615V16.5615V22.5615C15.2651 22.5615 14.5668 21.8593 14.5668 21H20.5668ZM16.1314 16.5615L16.1355 10.5615C19.224 10.5637 21.7109 13.0716 21.7112 16.1397L15.7112 16.1404L9.71123 16.141C9.71162 19.6767 12.5721 22.5591 16.1272 22.5615L16.1314 16.5615ZM15.7112 16.1404H21.7112C21.7112 19.2096 19.2233 21.7171 16.1355 21.7192L16.1314 15.7192L16.1272 9.71924C12.5728 9.72169 9.71123 12.6036 9.71123 16.1404H15.7112ZM16.1314 15.7192V21.7192C21.8852 21.7192 26.5667 17.0509 26.5668 11.2809L20.5668 11.2808L14.5668 11.2806C14.5669 10.417 15.2643 9.71924 16.1314 9.71924V15.7192ZM20.5668 11.2808H26.5668C26.5668 5.50144 21.8761 0.847412 16.1314 0.847412V6.84741V12.8474C15.2735 12.8474 14.5668 12.1536 14.5668 11.2808H20.5668ZM25.8484 6.84229V0.842285C20.0803 0.842285 15.413 5.52481 15.413 11.2808H21.413H27.413C27.413 12.1407 26.7193 12.8423 25.8484 12.8423V6.84229ZM21.413 11.2808L15.413 11.2809C15.4131 17.0366 20.0802 21.7192 25.8484 21.7192V15.7192V9.71924C26.7195 9.71924 27.4129 10.4209 27.413 11.2806L21.413 11.2808ZM25.8484 15.7192L25.8464 21.7192C22.7549 21.7182 20.2686 19.2074 20.2686 16.1404H26.2686H32.2686C32.2686 12.6057 29.4088 9.72042 25.8504 9.71924L25.8484 15.7192ZM26.2686 16.1404L20.2686 16.1397C20.2689 13.0738 22.7542 10.5626 25.8464 10.5615L25.8484 16.5615L25.8504 22.5615C29.4094 22.5603 32.2682 19.6746 32.2686 16.141L26.2686 16.1404ZM25.8484 16.5615V10.5615C20.0947 10.5615 15.413 15.2297 15.413 21H21.413H27.413C27.413 21.8638 26.7154 22.5615 25.8484 22.5615V16.5615ZM21.413 21H15.413C15.413 26.7657 20.0849 31.4385 25.8484 31.4385V25.4385V19.4385C26.7147 19.4385 27.413 20.1407 27.413 21H21.413ZM25.8484 25.4385L25.8464 31.4385C22.7542 31.4374 20.2689 28.9262 20.2686 25.8603L26.2686 25.8596L32.2686 25.859C32.2682 22.3254 29.4094 19.4397 25.8504 19.4385L25.8484 25.4385ZM26.2686 25.8596H20.2686C20.2686 22.7926 22.7549 20.2818 25.8464 20.2808L25.8484 26.2808L25.8504 32.2808C29.4088 32.2796 32.2686 29.3943 32.2686 25.8596H26.2686ZM25.8484 26.2808V20.2808C20.0946 20.2808 15.4131 24.9491 15.413 30.7191L21.413 30.7192L27.413 30.7194C27.4129 31.583 26.7155 32.2808 25.8484 32.2808V26.2808ZM21.413 30.7192H15.413C15.413 36.485 20.0849 41.1577 25.8484 41.1577V35.1577V29.1577C26.7147 29.1577 27.413 29.86 27.413 30.7192H21.413ZM25.8484 35.1577L25.8486 41.1577C31.6163 41.1575 36.2839 36.4753 36.2839 30.7192H30.2839H24.2839C24.2839 29.8591 24.9777 29.1577 25.8482 29.1577L25.8484 35.1577ZM30.2839 30.7192L36.2839 30.7206C36.2833 33.7832 33.8005 36.2981 30.7041 36.2981V30.2981V24.2981C27.1408 24.2981 24.2847 27.1876 24.2839 30.7179L30.2839 30.7192ZM30.7041 30.2981L30.7041 36.2981C36.4624 36.2981 41.1395 31.6202 41.1395 25.8596H35.1395H29.1395C29.1395 24.9951 29.8326 24.2981 30.704 24.2981L30.7041 30.2981ZM35.1395 25.8596L41.1395 25.8596C41.1395 20.1037 36.4722 15.4212 30.7041 15.4211L30.7041 21.4211L30.704 27.4211C29.8331 27.4211 29.1396 26.7196 29.1395 25.8597L35.1395 25.8596ZM30.7041 21.4211V15.4211C33.7991 15.4211 36.2839 17.935 36.2839 21L30.2839 21L24.2839 21C24.2839 24.5328 27.1421 27.4211 30.7041 27.4211V21.4211ZM30.2839 21H36.2839C36.2839 24.065 33.7991 26.5789 30.7041 26.5789V20.5789V14.5789C27.1421 14.5789 24.2839 17.4672 24.2839 21H30.2839ZM30.7041 20.5789L30.7041 26.5789C36.4624 26.5788 41.1395 21.9009 41.1395 16.1404L35.1395 16.1404L29.1395 16.1403C29.1396 15.2759 29.8325 14.5789 30.704 14.5789L30.7041 20.5789ZM35.1395 16.1404H41.1395C41.1395 10.3844 36.4721 5.70195 30.7041 5.7019L30.7041 11.7019L30.704 17.7019C29.8332 17.7019 29.1395 17.0003 29.1395 16.1404H35.1395ZM30.7041 11.7019V5.7019C33.8005 5.7019 36.2833 8.21676 36.2839 11.2794L30.2839 11.2808L24.2839 11.2821C24.2847 14.8124 27.1408 17.7019 30.7041 17.7019V11.7019ZM30.2839 11.2808H36.2839C36.2839 5.53444 31.6209 0.842471 25.8486 0.842285L25.8484 6.84229L25.8482 12.8423C24.9731 12.8423 24.2839 12.1415 24.2839 11.2808H30.2839ZM46.7091 24.1113V30.1113C46.6655 30.1113 46.1162 30.0873 45.4916 29.5364C44.8204 28.9443 44.4867 28.1011 44.4866 27.3623L50.4866 27.3618L56.4866 27.3614C56.4864 24.756 55.4142 22.2875 53.4295 20.5369C51.4913 18.8273 49.0534 18.1113 46.7091 18.1113V24.1113ZM50.4866 27.3618H44.4866C44.4866 26.6275 44.8163 25.7952 45.4763 25.209C46.0956 24.659 46.6477 24.6284 46.7091 24.6284V30.6284V36.6284C49.0713 36.6284 51.5121 35.8978 53.4449 34.1812C55.4186 32.4284 56.4866 29.9628 56.4866 27.3618H50.4866ZM46.7091 30.6284V24.6284H44.8442V30.6284V36.6284H46.7091V30.6284ZM44.8442 30.6284H38.8442V34.9219H44.8442H50.8442V30.6284H44.8442ZM44.8442 34.9219L40.6201 30.6608L40.5418 30.7384L44.7659 34.9995L48.99 39.2606L49.0683 39.183L44.8442 34.9219ZM44.7659 34.9995V28.9995H43.7243V34.9995V40.9995H44.7659V34.9995ZM43.7243 34.9995L47.9684 30.7583L47.8908 30.6807L43.6468 34.9219L39.4027 39.1631L39.4803 39.2407L43.7243 34.9995ZM43.6468 34.9219H49.6468V24.189H43.6468H37.6468V34.9219H43.6468ZM43.6468 24.189L48.3289 27.941L48.3911 27.8633L43.709 24.1113L39.0268 20.3593L38.9646 20.437L43.6468 24.189ZM43.709 24.1113V30.1113H46.7091V24.1113V18.1113H43.709V24.1113ZM60.3091 24.189L55.5549 27.8493L58.6327 31.8468L63.3869 28.1865L68.1411 24.5262L65.0633 20.5287L60.3091 24.189ZM63.3869 28.1865L68.123 31.8702L71.2322 27.8726L66.4961 24.189L61.76 20.5053L58.6508 24.5029L63.3869 28.1865ZM66.4961 24.189L69.4091 29.4344L69.5489 29.3567L66.6359 24.1113L63.7229 18.8659L63.5831 18.9436L66.4961 24.189ZM66.6359 24.1113V30.1113H67.9578V24.1113V18.1113H66.6359V24.1113ZM67.9578 24.1113L63.7137 28.3525L63.7913 28.4302L68.0353 24.189L72.2794 19.9478L72.2018 19.8701L67.9578 24.1113ZM68.0353 24.189L63.3214 20.477L59.2797 25.6099L63.9936 29.3218L68.7076 33.0337L72.7493 27.9009L68.0353 24.189ZM63.9936 29.3218H57.9936V34.9219H63.9936H69.9936V29.3218H63.9936ZM63.9936 34.9219L59.7695 30.6608L59.6912 30.7384L63.9153 34.9995L68.1394 39.2606L68.2177 39.183L63.9936 34.9219ZM63.9153 34.9995V28.9995H62.8738V34.9995V40.9995H63.9153V34.9995ZM62.8738 34.9995L67.1179 30.7583L67.0403 30.6807L62.7962 34.9219L58.5521 39.1631L58.6297 39.2407L62.8738 34.9995ZM62.7962 34.9219H68.7962V29.3218H62.7962H56.7962V34.9219H62.7962ZM62.7962 29.3218L67.5102 25.6099L63.4685 20.477L58.7545 24.189L54.0405 27.9009L58.0822 33.0337L62.7962 29.3218ZM58.7545 24.189L62.9986 28.4302L63.0761 28.3525L58.8321 24.1113L54.588 19.8701L54.5104 19.9478L58.7545 24.189ZM58.8321 24.1113V30.1113H60.1539V24.1113V18.1113H58.8321V24.1113ZM60.1539 24.1113L57.4692 29.4772L57.6244 29.5548L60.3091 24.189L62.9938 18.8231L62.8387 18.7455L60.1539 24.1113ZM80.9407 24.189H74.9407V28.4041H80.9407H86.9407V24.189H80.9407ZM80.9407 28.4041V34.4041H87.2053V28.4041V22.4041H80.9407V28.4041ZM87.2053 28.4041H93.2053V24.189H87.2053H81.2053V28.4041H87.2053ZM87.2053 24.189L91.4494 28.4302L91.5269 28.3525L87.2829 24.1113L83.0388 19.8701L82.9612 19.9478L87.2053 24.189ZM87.2829 24.1113V30.1113H88.3244V24.1113V18.1113H87.2829V24.1113ZM88.3244 24.1113L84.0803 28.3525L84.1579 28.4302L88.402 24.189L92.6461 19.9478L92.5685 19.8701L88.3244 24.1113ZM88.402 24.189H82.402V34.9219H88.402H94.402V24.189H88.402ZM88.402 34.9219L84.1579 30.6807L84.0803 30.7583L88.3244 34.9995L92.5685 39.2407L92.6461 39.1631L88.402 34.9219ZM88.3244 34.9995V28.9995H87.2829V34.9995V40.9995H88.3244V34.9995ZM87.2829 34.9995L91.5269 30.7583L91.4494 30.6807L87.2053 34.9219L82.9612 39.1631L83.0388 39.2407L87.2829 34.9995ZM87.2053 34.9219H93.2053V29.6177H87.2053H81.2053V34.9219H87.2053ZM87.2053 29.6177V23.6177H80.9407V29.6177V35.6177H87.2053V29.6177ZM80.9407 29.6177H74.9407V34.9219H80.9407H86.9407V29.6177H80.9407ZM80.9407 34.9219L76.7166 30.6608L76.6383 30.7384L80.8624 34.9995L85.0865 39.2606L85.1648 39.183L80.9407 34.9219ZM80.8624 34.9995V28.9995H79.8209V34.9995V40.9995H80.8624V34.9995ZM79.8209 34.9995L84.0649 30.7583L83.9874 30.6807L79.7433 34.9219L75.4992 39.1631L75.5768 39.2407L79.8209 34.9995ZM79.7433 34.9219H85.7433V24.189H79.7433H73.7433V34.9219H79.7433ZM79.7433 24.189L83.9874 28.4302L84.0649 28.3525L79.8209 24.1113L75.5768 19.8701L75.4992 19.9478L79.7433 24.189ZM79.8209 24.1113V30.1113H80.8624V24.1113V18.1113H79.8209V24.1113ZM80.8624 24.1113L76.6383 28.3724L76.7166 28.4501L80.9407 24.189L85.1648 19.9279L85.0865 19.8502L80.8624 24.1113ZM105.487 24.1729H99.4874V33.802H105.487H111.487V24.1729H105.487ZM105.487 33.802V39.802H110.555V33.802V27.802H105.487V33.802ZM110.555 33.802L105.873 37.554L105.935 37.6317L110.617 33.8796L115.3 30.1276L115.237 30.05L110.555 33.802ZM110.617 33.8796H104.617V34.938H110.617H116.617V33.8796H110.617ZM110.617 34.938L106.399 30.6717L106.336 30.7333L110.555 34.9995L114.774 39.2658L114.836 39.2042L110.617 34.938ZM110.555 34.9995V28.9995H104.353V34.9995V40.9995H110.555V34.9995ZM104.353 34.9995L108.572 30.7333L108.51 30.6717L104.291 34.938L100.072 39.2042L100.134 39.2658L104.353 34.9995ZM104.291 34.938H110.291V24.1729H104.291H98.2907V34.938H104.291ZM104.291 24.1729L108.51 28.4391L108.572 28.3776L104.353 24.1113L100.134 19.8451L100.072 19.9066L104.291 24.1729ZM104.353 24.1113V30.1113H105.425V24.1113V18.1113H104.353V24.1113ZM105.425 24.1113L101.206 28.3776L101.269 28.4391L105.487 24.1729L109.706 19.9066L109.644 19.8451L105.425 24.1113ZM138.006 24.189H132.006V34.9219H138.006H144.006V24.189H138.006ZM138.006 34.9219L133.761 30.6807L133.684 30.7583L137.928 34.9995L142.172 39.2407L142.25 39.1631L138.006 34.9219ZM137.928 34.9995V28.9995H136.886V34.9995V40.9995H137.928V34.9995ZM136.886 34.9995L141.13 30.7583L141.053 30.6807L136.809 34.9219L132.565 39.1631L132.642 39.2407L136.886 34.9995ZM136.809 34.9219H142.809V24.189H136.809H130.809V34.9219H136.809ZM136.809 24.189L141.053 28.4302L141.13 28.3525L136.886 24.1113L132.642 19.8701L132.565 19.9478L136.809 24.189ZM136.886 24.1113V30.1113H137.928V24.1113V18.1113H136.886V24.1113ZM137.928 24.1113L133.684 28.3525L133.761 28.4302L138.006 24.189L142.25 19.9478L142.172 19.8701L137.928 24.1113ZM156 24.189H150V25.2312H156H162V24.189H156ZM156 25.2312L151.776 20.9701L151.698 21.0477L155.922 25.3088L160.146 29.5699L160.224 29.4923L156 25.2312ZM155.922 25.3088V19.3088H152.253V25.3088V31.3088H155.922V25.3088ZM152.253 25.3088H146.253V34.9219H152.253H158.253V25.3088H152.253ZM152.253 34.9219L148.009 30.6807L147.932 30.7583L152.176 34.9995L156.42 39.2407L156.497 39.1631L152.253 34.9219ZM152.176 34.9995V28.9995H151.119V34.9995V40.9995H152.176V34.9995ZM151.119 34.9995L155.363 30.7583L155.285 30.6807L151.041 34.9219L146.797 39.1631L146.875 39.2407L151.119 34.9995ZM151.041 34.9219H157.041V25.3088H151.041H145.041V34.9219H151.041ZM151.041 25.3088V19.3088H147.372V25.3088V31.3088H151.041V25.3088ZM147.372 25.3088L151.616 21.0676L151.539 20.99L147.294 25.2312L143.05 29.4724L143.128 29.55L147.372 25.3088ZM147.294 25.2312H153.294V24.189H147.294H141.294V25.2312H147.294ZM147.294 24.189L151.539 28.4302L151.616 28.3525L147.372 24.1113L143.128 19.8701L143.05 19.9478L147.294 24.189ZM147.372 24.1113V30.1113H155.922V24.1113V18.1113H147.372V24.1113ZM155.922 24.1113L151.698 28.3724L151.776 28.4501L156 24.189L160.224 19.9279L160.146 19.8502L155.922 24.1113ZM96.3566 25.1375V19.1375C90.6013 19.1375 85.9731 23.8317 85.9731 29.5554L91.9731 29.5554L97.9731 29.5555C97.9731 30.3947 97.2929 31.1375 96.3566 31.1375V25.1375ZM91.9731 29.5554H85.9731C85.9731 35.2792 90.6013 39.9734 96.3566 39.9734V33.9734V27.9734C97.2929 27.9734 97.9731 28.7161 97.9731 29.5554H91.9731ZM96.3566 33.9734L96.3568 39.9734C102.139 39.9732 106.725 35.2518 106.725 29.5554H100.725H94.7247C94.7247 28.7433 95.3931 27.9734 96.3564 27.9734L96.3566 33.9734ZM100.725 29.5554L106.725 29.5554C106.725 23.8591 102.139 19.1376 96.3568 19.1375L96.3566 25.1375L96.3564 31.1375C95.3931 31.1374 94.7248 30.3675 94.7247 29.5555L100.725 29.5554ZM116.881 25.1375L116.881 19.1375C111.126 19.1377 106.498 23.8315 106.498 29.5554L112.498 29.5554L118.498 29.5555C118.498 30.3951 117.818 31.1374 116.882 31.1375L116.881 25.1375ZM112.498 29.5554H106.498C106.498 35.2794 111.126 39.9731 116.881 39.9734L116.881 33.9734L116.882 27.9734C117.817 27.9734 118.498 28.7157 118.498 29.5554H112.498ZM116.881 33.9734V39.9734C122.664 39.9734 127.249 35.2517 127.249 29.5554H121.249H115.249C115.249 28.7436 115.918 27.9734 116.881 27.9734V33.9734ZM121.249 29.5554L127.249 29.5554C127.249 23.8592 122.664 19.1375 116.881 19.1375V25.1375V31.1375C115.918 31.1375 115.249 30.3672 115.249 29.5555L121.249 29.5554ZM44.8442 29.4155V35.4155H46.7091V29.4155V23.4155H44.8442V29.4155ZM46.7091 29.4155V35.4155C48.5041 35.4155 50.6207 34.9188 52.3841 33.3942C54.239 31.7906 55.1033 29.5577 55.1033 27.3618H49.1033H43.1033C43.1033 26.4104 43.5089 25.2043 44.5359 24.3165C45.4715 23.5076 46.391 23.4155 46.7091 23.4155V29.4155ZM49.1033 27.3618L55.1033 27.3612C55.1031 25.1565 54.2275 22.9374 52.3952 21.3453C50.6441 19.8239 48.5313 19.3088 46.7091 19.3088V25.3088V31.3088C46.3637 31.3088 45.4479 31.2059 44.5247 30.4038C43.5202 29.531 43.1034 28.3384 43.1033 27.3624L49.1033 27.3618ZM46.7091 25.3088V19.3088H44.8442V25.3088V31.3088H46.7091V25.3088ZM44.8442 25.3088H38.8442V29.4155H44.8442H50.8442V25.3088H44.8442ZM20.9877 23.0684L15.4724 20.7058C15.5488 20.5275 15.6705 20.4173 15.8118 20.3559L18.2013 25.8596L20.5907 31.3633C23.2221 30.2209 25.3579 28.104 26.503 25.4309L20.9877 23.0684ZM18.2013 25.8596L15.8395 31.3752C15.6685 31.302 15.5402 31.1723 15.4689 31.0051L20.9877 28.6509L26.5065 26.2966C25.3666 23.6243 23.2345 21.4879 20.563 20.344L18.2013 25.8596ZM20.9877 28.6509L26.503 31.0134C26.4644 31.1034 26.4144 31.173 26.361 31.2265C26.3076 31.2801 26.2367 31.3316 26.1435 31.3717L23.7734 25.8596L21.4034 20.3476C18.7422 21.4918 16.6114 23.6293 15.4724 26.2883L20.9877 28.6509ZM23.7734 25.8596L26.1352 20.344C26.3077 20.4179 26.4359 20.5485 26.5065 20.7141L20.9877 23.0684L15.4689 25.4226C16.6082 28.0934 18.7387 30.2307 21.4117 31.3752L23.7734 25.8596ZM20.9877 13.3491L15.4724 10.9866C15.5114 10.8957 15.5617 10.8259 15.6149 10.7726C15.668 10.7194 15.7384 10.6682 15.8312 10.6283L18.2013 16.1404L20.5713 21.6524C23.2309 20.5089 25.3633 18.3722 26.503 15.7117L20.9877 13.3491ZM18.2013 16.1404L15.8395 21.656C15.6685 21.5828 15.5402 21.4531 15.4689 21.2859L20.9877 18.9316L26.5065 16.5774C25.3666 13.905 23.2345 11.7687 20.563 10.6247L18.2013 16.1404ZM20.9877 18.9316L26.503 21.2942C26.4273 21.471 26.3057 21.582 26.1628 21.6441L23.7734 16.1404L21.384 10.6367C18.751 11.7798 16.6168 13.8975 15.4724 16.5691L20.9877 18.9316ZM23.7734 16.1404L26.1352 10.6247C26.3077 10.6986 26.4359 10.8292 26.5065 10.9949L20.9877 13.3491L15.4689 15.7034C16.6082 18.3742 18.7387 20.5114 21.4117 21.656L23.7734 16.1404ZM51.4806 7.07739H45.4806V8.11963H51.4806H57.4806V7.07739H51.4806ZM51.4806 8.11963L47.2565 3.85854L47.1782 3.93618L51.4023 8.19727L55.6264 12.4584L55.7047 12.3807L51.4806 8.11963ZM51.4023 8.19727V2.19727H47.7338V8.19727V14.1973H51.4023V8.19727ZM47.7338 8.19727H41.7338V17.811H47.7338H53.7338V8.19727H47.7338ZM47.7338 17.811L43.4898 13.5698L43.4122 13.6475L47.6563 17.8887L51.9003 22.1299L51.9779 22.0522L47.7338 17.811ZM47.6563 17.8887V11.8887H46.5994V17.8887V23.8887H47.6563V17.8887ZM46.5994 17.8887L50.8434 13.6475L50.7658 13.5698L46.5218 17.811L42.2777 22.0522L42.3553 22.1299L46.5994 17.8887ZM46.5218 17.811H52.5218V8.19727H46.5218H40.5218V17.811H46.5218ZM46.5218 8.19727V2.19727H42.8526V8.19727V14.1973H46.5218V8.19727ZM42.8526 8.19727L47.0967 3.95605L47.0191 3.87842L42.775 8.11963L38.531 12.3608L38.6085 12.4385L42.8526 8.19727ZM42.775 8.11963H48.775V7.07739H42.775H36.775V8.11963H42.775ZM42.775 7.07739L47.0191 11.3186L47.0967 11.241L42.8526 6.99976L38.6085 2.75854L38.531 2.83618L42.775 7.07739ZM42.8526 6.99976V12.9998H51.4023V6.99976V0.999756H42.8526V6.99976ZM51.4023 6.99976L47.1782 11.2608L47.2565 11.3385L51.4806 7.07739L55.7047 2.8163L55.6264 2.73867L51.4023 6.99976ZM54.483 7.07739H48.483V11.2932H54.483H60.483V7.07739H54.483ZM54.483 11.2932V17.2932H60.7475V11.2932V5.29321H54.483V11.2932ZM60.7475 11.2932H66.7475V7.07739H60.7475H54.7475V11.2932H60.7475ZM60.7475 7.07739L64.9916 11.3186L65.0692 11.241L60.8251 6.99976L56.581 2.75854L56.5035 2.83618L60.7475 7.07739ZM60.8251 6.99976V12.9998H61.8667V6.99976V0.999756H60.8251V6.99976ZM61.8667 6.99976L57.6226 11.241L57.7002 11.3186L61.9442 7.07739L66.1883 2.83618L66.1107 2.75854L61.8667 6.99976ZM61.9442 7.07739H55.9442V17.811H61.9442H67.9442V7.07739H61.9442ZM61.9442 17.811L57.7002 13.5698L57.6226 13.6475L61.8667 17.8887L66.1107 22.1299L66.1883 22.0522L61.9442 17.811ZM61.8667 17.8887V11.8887H60.8251V17.8887V23.8887H61.8667V17.8887ZM60.8251 17.8887L65.0692 13.6475L64.9916 13.5698L60.7475 17.811L56.5035 22.0522L56.581 22.1299L60.8251 17.8887ZM60.7475 17.811H66.7475V12.5061H60.7475H54.7475V17.811H60.7475ZM60.7475 12.5061V6.5061H54.483V12.5061V18.5061H60.7475V12.5061ZM54.483 12.5061H48.483V17.811H54.483H60.483V12.5061H54.483ZM54.483 17.811L50.2588 13.5499L50.1805 13.6276L54.4046 17.8887L58.6287 22.1498L58.7071 22.0721L54.483 17.811ZM54.4046 17.8887V11.8887H53.3631V17.8887V23.8887H54.4046V17.8887ZM53.3631 17.8887L57.6072 13.6475L57.5296 13.5698L53.2855 17.811L49.0415 22.0522L49.119 22.1299L53.3631 17.8887ZM53.2855 17.811H59.2855V7.07739H53.2855H47.2855V17.811H53.2855ZM53.2855 7.07739L57.5296 11.3186L57.6072 11.241L53.3631 6.99976L49.119 2.75854L49.0415 2.83618L53.2855 7.07739ZM53.3631 6.99976V12.9998H54.4046V6.99976V0.999756H53.3631V6.99976ZM54.4046 6.99976L50.1805 11.2608L50.2588 11.3385L54.483 7.07739L58.7071 2.8163L58.6287 2.73867L54.4046 6.99976ZM70.9367 7.07739H64.9367V8.11963H70.9367H76.9367V7.07739H70.9367ZM70.9367 8.11963L66.7126 3.85854L66.6343 3.93618L70.8584 8.19727L75.0825 12.4584L75.1608 12.3807L70.9367 8.11963ZM70.8584 8.19727V2.19727H65.8066V8.19727V14.1973H70.8584V8.19727ZM65.8066 8.19727H59.8066V11.2932H65.8066H71.8066V8.19727H65.8066ZM65.8066 11.2932V17.2932H69.6148V11.2932V5.29321H65.8066V11.2932ZM69.6148 11.2932L65.3907 15.5543L65.4691 15.6319L69.6932 11.3708L73.9173 7.10976L73.839 7.03212L69.6148 11.2932ZM69.6932 11.3708H63.6932V12.4285H69.6932H75.6932V11.3708H69.6932ZM69.6932 12.4285L65.4691 8.16738L65.3907 8.24501L69.6148 12.5061L73.839 16.7672L73.9173 16.6896L69.6932 12.4285ZM69.6148 12.5061V6.5061H65.8066V12.5061V18.5061H69.6148V12.5061ZM65.8066 12.5061H59.8066V16.6912H65.8066H71.8066V12.5061H65.8066ZM65.8066 16.6912V22.6912H71.3254V16.6912V10.6912H65.8066V16.6912ZM71.3254 16.6912L67.0813 20.9324L67.1589 21.01L71.403 16.7688L75.647 12.5276L75.5694 12.45L71.3254 16.6912ZM71.403 16.7688H65.403V17.811H71.403H77.403V16.7688H71.403ZM71.403 17.811L67.1589 13.5698L67.0813 13.6475L71.3254 17.8887L75.5694 22.1299L75.647 22.0522L71.403 17.811ZM71.3254 17.8887V11.8887H64.6875V17.8887V23.8887H71.3254V17.8887ZM64.6875 17.8887L68.9316 13.6475L68.854 13.5698L64.6099 17.811L60.3659 22.0522L60.4434 22.1299L64.6875 17.8887ZM64.6099 17.811H70.6099V7.07739H64.6099H58.6099V17.811H64.6099ZM64.6099 7.07739L68.854 11.3186L68.9316 11.241L64.6875 6.99976L60.4434 2.75854L60.3659 2.83618L64.6099 7.07739ZM64.6875 6.99976V12.9998H70.8584V6.99976V0.999756H64.6875V6.99976ZM70.8584 6.99976L66.6343 11.2608L66.7126 11.3385L70.9367 7.07739L75.1608 2.8163L75.0825 2.73867L70.8584 6.99976ZM79.9585 6.99976L79.9582 12.9998C80.1109 12.9998 79.4591 13.0402 78.6553 12.3761C78.2448 12.037 77.893 11.5863 77.6582 11.0607C77.4279 10.5449 77.3627 10.0763 77.3627 9.73755H83.3627H89.3627C89.3627 7.30568 88.3913 4.85397 86.2979 3.12463C84.3361 1.50392 81.9822 0.999839 79.9587 0.999756L79.9585 6.99976ZM83.3627 9.73755L77.3627 9.73751C77.3627 9.124 77.5358 8.36604 77.9945 7.65141C78.4264 6.97852 78.9402 6.60891 79.2465 6.43475L82.2121 11.6506L85.1776 16.8665C87.3725 15.6186 89.3626 13.2025 89.3627 9.73758L83.3627 9.73755ZM82.2121 11.6506L80.6189 17.4353C80.5001 17.4025 79.9274 17.2026 79.3913 16.5299C78.841 15.8395 78.6838 15.0939 78.6838 14.6067H84.6838H90.6838C90.6838 12.7506 90.138 10.7603 88.7754 9.05074C87.427 7.35894 85.6185 6.3654 83.8052 5.86601L82.2121 11.6506ZM84.6838 14.6067L78.6838 14.6062C78.6839 13.79 79.0536 13.0082 79.6253 12.4924C80.1708 12.0003 80.7272 11.8887 81.0307 11.8887V17.8887V23.8887C85.8465 23.8887 90.6833 20.3536 90.6838 14.6072L84.6838 14.6067ZM81.0307 17.8887V11.8887H77.4867V17.8887V23.8887H81.0307V17.8887ZM77.4867 17.8887L81.7308 13.6475L81.6532 13.5698L77.4092 17.811L73.1651 22.0522L73.2427 22.1299L77.4867 17.8887ZM77.4092 17.811H83.4092V7.07739H77.4092H71.4092V17.811H77.4092ZM77.4092 7.07739L81.6532 11.3186L81.7308 11.241L77.4867 6.99976L73.2427 2.75854L73.1651 2.83618L77.4092 7.07739ZM77.4867 6.99976V12.9998H79.9585V6.99976V0.999756H77.4867V6.99976ZM89.6485 6.99976L89.6484 12.9998C89.583 12.9998 88.955 12.9729 88.251 12.3585C87.4769 11.6831 87.1464 10.7517 87.1464 10.0177L93.1464 10.0173L99.1464 10.017C99.1462 7.49418 98.1315 5.05408 96.1409 3.31703C94.2203 1.64105 91.8435 0.999796 89.6486 0.999756L89.6485 6.99976ZM93.1464 10.0173H87.1464C87.1464 9.36132 87.379 8.64468 87.843 8.05776C88.2741 7.51256 88.7624 7.25235 89.0902 7.14022L91.0318 12.8174L92.9734 18.4945C96.1637 17.4035 99.1464 14.4267 99.1464 10.0173H93.1464ZM91.0318 12.8174L86.2038 16.3797L89.8883 21.3734L94.7163 17.811L99.5444 14.2487L95.8598 9.25506L91.0318 12.8174ZM94.7163 17.811L90.4922 13.5499L90.4139 13.6276L94.638 17.8887L98.8621 22.1498L98.9405 22.0721L94.7163 17.811ZM94.638 17.8887V11.8887H93.2393V17.8887V23.8887H94.638V17.8887ZM93.2393 17.8887L97.4834 13.6475L97.4058 13.5698L93.1617 17.811L88.9177 22.0522L88.9952 22.1299L93.2393 17.8887ZM93.1617 17.811L97.9591 14.2075L94.3836 9.4475L89.5863 13.051L84.7889 16.6545L88.3644 21.4146L93.1617 17.811ZM89.5863 13.051V7.05103H87.9226V13.051V19.051H89.5863V13.051ZM87.9226 13.051H81.9226V17.811H87.9226H93.9226V13.051H87.9226ZM87.9226 17.811L83.6785 13.5698L83.6009 13.6475L87.845 17.8887L92.0891 22.1299L92.1666 22.0522L87.9226 17.811ZM87.845 17.8887V11.8887H86.8035V17.8887V23.8887H87.845V17.8887ZM86.8035 17.8887L91.0475 13.6475L90.9699 13.5698L86.7259 17.811L82.4818 22.0522L82.5594 22.1299L86.8035 17.8887ZM86.7259 17.811H92.7259V7.07739H86.7259H80.7259V17.811H86.7259ZM86.7259 7.07739L90.9699 11.3186L91.0475 11.241L86.8035 6.99976L82.5594 2.75854L82.4818 2.83618L86.7259 7.07739ZM86.8035 6.99976V12.9998H89.6485V6.99976V0.999756H86.8035V6.99976ZM100.783 7.07739L95.2203 9.32536L99.5577 20.059L105.121 17.811L110.684 15.5631L106.346 4.82942L100.783 7.07739ZM105.121 17.811L100.877 13.5698L100.799 13.6475L105.043 17.8887L109.287 22.1299L109.365 22.0522L105.121 17.811ZM105.043 17.8887V11.8887H103.893V17.8887V23.8887H105.043V17.8887ZM103.893 17.8887L108.137 13.6475L108.059 13.5698L103.815 17.811L99.5709 22.0522L99.6485 22.1299L103.893 17.8887ZM103.815 17.811L109.367 15.537L108.201 12.6901L102.649 14.9641L97.0966 17.2381L98.2626 20.085L103.815 17.811ZM102.649 14.9641V8.96411H97.6748V14.9641V20.9641H102.649V14.9641ZM97.6748 14.9641L92.1119 12.7159L90.9613 15.5628L96.5242 17.811L102.087 20.0593L103.238 17.2124L97.6748 14.9641ZM96.5242 17.811L92.2801 13.5698L92.2026 13.6475L96.4466 17.8887L100.691 22.1299L100.768 22.0522L96.5242 17.811ZM96.4466 17.8887V11.8887H95.296V17.8887V23.8887H96.4466V17.8887ZM95.296 17.8887L99.5401 13.6475L99.4625 13.5698L95.2184 17.811L90.9744 22.0522L91.052 22.1299L95.296 17.8887ZM95.2184 17.811L100.784 20.0518L105.106 9.31818L99.5398 7.07739L93.9739 4.8366L89.6526 15.5702L95.2184 17.811ZM99.5398 7.07739L103.764 11.3385L103.842 11.2608L99.6181 6.99976L95.394 2.73867L95.3156 2.8163L99.5398 7.07739ZM99.6181 6.99976V12.9998H100.706V6.99976V0.999756H99.6181V6.99976ZM100.706 6.99976L96.4616 11.241L96.5392 11.3186L100.783 7.07739L105.027 2.83618L104.95 2.75854L100.706 6.99976ZM107.905 7.07739H101.905V17.811H107.905H113.905V7.07739H107.905ZM107.905 17.811L103.661 13.5698L103.583 13.6475L107.827 17.8887L112.071 22.1299L112.149 22.0522L107.905 17.811ZM107.827 17.8887V11.8887H106.786V17.8887V23.8887H107.827V17.8887ZM106.786 17.8887L111.03 13.6475L110.952 13.5698L106.708 17.811L102.464 22.0522L102.542 22.1299L106.786 17.8887ZM106.708 17.811H112.708V7.07739H106.708H100.708V17.811H106.708ZM106.708 7.07739L110.952 11.3186L111.03 11.241L106.786 6.99976L102.542 2.75854L102.464 2.83618L106.708 7.07739ZM106.786 6.99976V12.9998H107.827V6.99976V0.999756H106.786V6.99976ZM107.827 6.99976L103.583 11.241L103.661 11.3186L107.905 7.07739L112.149 2.83618L112.071 2.75854L107.827 6.99976ZM111.913 7.07739L107.132 10.7025L113.879 19.6007L118.66 15.9756L123.441 12.3504L116.694 3.45225L111.913 7.07739ZM118.66 15.9756H124.66V7.07739H118.66H112.66V15.9756H118.66ZM118.66 7.07739L122.904 11.3186L122.982 11.241L118.738 6.99976L114.493 2.75854L114.416 2.83618L118.66 7.07739ZM118.738 6.99976V12.9998H119.779V6.99976V0.999756H118.738V6.99976ZM119.779 6.99976L115.535 11.241L115.613 11.3186L119.857 7.07739L124.101 2.83618L124.023 2.75854L119.779 6.99976ZM119.857 7.07739H113.857V17.811H119.857H125.857V7.07739H119.857ZM119.857 17.811L115.613 13.5698L115.535 13.6475L119.779 17.8887L124.023 22.1299L124.101 22.0522L119.857 17.811ZM119.779 17.8887V11.8887H118.675V17.8887V23.8887H119.779V17.8887ZM118.675 17.8887L121.35 12.5178L121.194 12.4402L118.519 17.811L115.845 23.1819L116.001 23.2596L118.675 17.8887ZM118.519 17.811L123.301 14.1861L116.554 5.28794L111.773 8.91284L106.992 12.5377L113.738 21.4359L118.519 17.811ZM111.773 8.91284H105.773V17.811H111.773H117.773V8.91284H111.773ZM111.773 17.811L107.529 13.5698L107.452 13.6475L111.696 17.8887L115.94 22.1299L116.017 22.0522L111.773 17.811ZM111.696 17.8887V11.8887H110.654V17.8887V23.8887H111.696V17.8887ZM110.654 17.8887L114.898 13.6475L114.821 13.5698L110.577 17.811L106.332 22.0522L106.41 22.1299L110.654 17.8887ZM110.577 17.811H116.577V7.07739H110.577H104.577V17.811H110.577ZM110.577 7.07739L114.821 11.3186L114.898 11.241L110.654 6.99976L106.41 2.75854L106.332 2.83618L110.577 7.07739ZM110.654 6.99976V12.9998H111.758V6.99976V0.999756H110.654V6.99976ZM111.758 6.99976L109.073 12.3656L109.228 12.4432L111.913 7.07739L114.598 1.71155L114.443 1.63392L111.758 6.99976ZM78.6059 16.6912V22.6912H81.0307V16.6912V10.6912H78.6059V16.6912ZM81.0307 16.6912V22.6912C82.9243 22.6912 85.0505 22.1079 86.7657 20.5261C88.5239 18.9044 89.3156 16.7186 89.3158 14.6073L83.3158 14.6067L77.3158 14.6061C77.3159 13.7391 77.6645 12.5955 78.63 11.705C79.5524 10.8543 80.5361 10.6912 81.0307 10.6912V16.6912ZM83.3158 14.6067H89.3158C89.3158 12.4389 88.4622 10.2725 86.7181 8.69823C85.0199 7.16548 82.9232 6.58447 81.0307 6.58447V12.5845V18.5845C80.5373 18.5845 79.5832 18.4235 78.6778 17.6063C77.7264 16.7476 77.3158 15.5922 77.3158 14.6067H83.3158ZM81.0307 12.5845V6.58447H78.6059V12.5845V18.5845H81.0307V12.5845ZM78.6059 12.5845H72.6059V16.6912H78.6059H84.6059V12.5845H78.6059ZM98.1564 13.7666V19.7666H102.183V13.7666V7.7666H98.1564V13.7666ZM102.183 13.7666L107.763 11.5631L105.743 6.44494L100.162 8.64844L94.5812 10.8519L96.602 15.9701L102.183 13.7666ZM100.162 8.64844L94.5754 6.45946L92.57 11.5776L98.1564 13.7666L103.743 15.9556L105.748 10.8374L100.162 8.64844ZM87.9226 11.8374V17.8374H89.5709V11.8374V5.8374H87.9226V11.8374ZM89.5709 11.8374L89.5713 17.8374C91.1093 17.8373 93.0833 17.461 94.8172 16.1121C96.7353 14.6198 97.7623 12.3841 97.7623 10.0173H91.7623H85.7623C85.7623 8.84828 86.3153 7.52255 87.4486 6.64086C88.3977 5.90249 89.276 5.83742 89.5705 5.8374L89.5709 11.8374ZM91.7623 10.0173L97.7623 10.0169C97.7621 8.03554 97.0449 5.80502 95.1535 4.1574C93.3749 2.60803 91.2717 2.19731 89.6486 2.19727L89.6485 8.19727L89.6483 14.1973C89.3775 14.1973 88.3311 14.1289 87.2714 13.2057C86.0988 12.1842 85.7623 10.8637 85.7623 10.0178L91.7623 10.0173ZM89.6485 8.19727V2.19727H87.9226V8.19727V14.1973H89.6485V8.19727ZM87.9226 8.19727H81.9226V11.8374H87.9226H93.9226V8.19727H87.9226ZM78.6059 11.3708V17.3708H79.9585V11.3708V5.37085H78.6059V11.3708ZM79.9585 11.3708L79.9588 17.3708C81.3588 17.3708 83.3704 17.0786 85.1562 15.6787C87.167 14.1024 87.9947 11.833 87.9947 9.73759L81.9947 9.73755L75.9947 9.73751C75.9947 8.71531 76.4416 7.26253 77.7529 6.23456C78.8392 5.38304 79.8327 5.37086 79.9581 5.37085L79.9585 11.3708ZM81.9947 9.73755H87.9947C87.9947 7.86086 87.3098 5.57416 85.2608 3.93091C83.4406 2.47117 81.3658 2.19734 79.9588 2.19727L79.9585 8.19727L79.9582 14.1973C79.9109 14.1973 79.6643 14.1941 79.2918 14.0924C78.9089 13.9877 78.3403 13.7632 77.7532 13.2923C76.3687 12.182 75.9947 10.6654 75.9947 9.73755H81.9947ZM79.9585 8.19727V2.19727H78.6059V8.19727V14.1973H79.9585V8.19727ZM78.6059 8.19727H72.6059V11.3708H78.6059H84.6059V8.19727H78.6059Z" fill="#EAF9C0" mask="url(#path-1-outside-1_1089_25)"/>
</svg>
