<svg width="171" height="37" viewBox="0 0 171 37" fill="none" xmlns="http://www.w3.org/2000/svg">
<mask id="path-1-outside-1_1089_111" maskUnits="userSpaceOnUse" x="-0.999496" y="0" width="172" height="37" fill="black">
<rect fill="white" x="-0.999496" width="172" height="37"/>
<path d="M44.2764 21.9649L44.1299 21.8254C43.7587 21.4682 43.3369 21.0621 42.799 20.9153C42.6474 20.8737 42.5161 20.8615 42.3949 20.8762C42.2585 20.8933 42.1323 20.9447 42.0262 20.9911C41.4832 21.2285 41.0059 21.5808 40.5437 21.9184C40.2785 22.1141 40.0033 22.3147 39.7204 22.4909C39.1471 22.8481 38.5334 23.1735 37.9425 23.4866L37.7657 23.5796C36.8211 24.0787 36.0408 24.4677 35.3134 24.8078C34.3133 25.2751 33.4724 25.62 32.6743 25.894C32.0429 26.1118 31.3686 26.2904 30.6766 26.4225L30.6009 26.4372C29.8761 26.5791 28.977 26.7552 28.5022 26.1485C28.386 25.9992 28.3153 25.8206 28.2673 25.6812C28.0905 25.1699 28.0249 24.6169 28.0754 24.0787C28.1057 23.7557 28.1916 23.5527 28.3456 23.4401C28.5628 23.2836 28.8937 23.1784 29.3609 23.1221C29.7346 23.0756 30.1766 23.0169 30.6186 22.9435C31.3004 22.8285 31.9949 22.6524 32.6844 22.4224C34.0886 21.9526 35.4826 21.2603 36.8338 20.3648C38.8971 18.9972 40.7129 17.221 42.0843 15.2295C42.3393 14.7842 42.2004 14.312 41.7029 13.9646C40.766 13.3995 40.0007 13.0472 39.2885 12.8515C38.8542 12.7781 38.4753 12.9273 38.0662 13.3383C37.7682 13.6637 37.4778 13.9989 37.2 14.3218C36.6444 14.9653 36.0711 15.6307 35.4119 16.2277C34.1517 17.4241 32.4192 18.0846 30.7347 18.618L30.664 18.6424C29.7069 18.9605 28.3961 19.3984 27.9112 18.3464C27.5501 17.4192 27.5703 16.695 27.9718 16.1934C28.184 15.9292 28.5047 15.7262 28.9315 15.5891C29.1134 15.5304 29.2977 15.4742 29.4796 15.4179C30.0023 15.2564 30.5428 15.0925 31.0529 14.8576C31.6616 14.5787 32.2677 14.2044 32.8536 13.7469C33.8057 13.0031 34.7048 12.0563 35.6847 10.7645C35.912 10.4636 36.0913 10.1896 36.2327 9.92293C36.2984 9.80304 36.3691 9.66604 36.4095 9.51924C36.4625 9.33086 36.4423 9.15715 36.3539 9.00302C36.2782 8.87091 36.1544 8.76081 36.0029 8.68741C35.9423 8.6605 35.8791 8.63848 35.8135 8.61646C35.5129 8.51616 35.2074 8.42808 34.9094 8.34245C34.7806 8.30575 34.6518 8.26905 34.523 8.22991C34.4093 8.19566 34.2957 8.15896 34.182 8.11981C33.9269 8.03418 33.6618 7.94611 33.3941 7.90696C33.0329 7.85069 32.7071 7.9877 32.543 8.25927C31.7449 9.57796 30.9065 10.5199 29.2068 11.1389C28.6512 11.3175 28.2244 11.2954 27.9365 11.0801C27.2748 10.5835 27.3758 9.09599 27.4491 8.00972C27.4718 7.66965 27.4945 7.34915 27.492 7.09715C27.5046 6.68124 27.3076 6.36074 26.9414 6.19682C26.7445 6.1063 26.5298 6.07449 26.3278 6.05003C25.858 5.99376 25.3807 5.98642 24.9059 6.02067C24.517 6.04758 24.0775 6.11608 23.772 6.41212C23.5699 6.60784 23.4512 6.89164 23.4108 7.27331C23.383 7.54487 23.3527 7.86782 23.3502 8.17364C23.3199 8.40851 23.3224 8.69965 23.3224 9.00791C23.3224 9.76879 23.3275 10.6275 22.8981 11.0288C22.7214 11.1951 22.484 11.2734 22.1784 11.2563C20.4636 11.0116 19.264 9.48744 18.2664 8.07088C17.6148 7.3149 16.5491 7.84091 15.9707 8.12471C15.8546 8.18832 15.7232 8.24948 15.5919 8.31065C15.1575 8.51126 14.6651 8.74124 14.5262 9.18162C14.458 9.39936 14.5337 9.72475 14.761 10.1725C14.862 10.3706 14.9883 10.559 15.1121 10.7376C15.1702 10.8257 15.2308 10.9138 15.2863 11.0019C15.5793 11.4643 15.9177 11.9046 16.2915 12.3157C16.4102 12.4453 16.5213 12.5774 16.6324 12.712C16.8142 12.9273 17.0011 13.1524 17.2158 13.3554C17.8623 13.9646 18.6907 14.498 19.6756 14.9408C20.3878 15.2589 21.1707 15.5255 22.0066 15.7335C22.4335 15.8265 22.7845 16.147 22.9966 16.6338C23.2795 17.2846 23.2618 18.114 22.9663 18.5862C22.6102 18.9434 22.0774 18.9629 21.6884 18.9165C21.3096 18.87 20.9232 18.7672 20.5469 18.6694C20.3676 18.6229 20.1883 18.5739 20.0115 18.5348C19.7085 18.4638 19.413 18.3513 19.1251 18.2412C18.9937 18.1898 18.8599 18.1409 18.726 18.0944C18.2891 17.9403 17.8547 17.7543 17.438 17.5415C15.698 16.651 14.112 15.2197 12.8568 13.4019C12.6952 13.1695 12.4275 12.871 12.0512 12.7732C11.6572 12.6753 11.2708 12.827 10.9273 12.964L10.8793 12.9836C10.5132 13.1279 10.1419 13.2967 9.77571 13.4876C9.4575 13.6515 9.19485 13.8301 8.97766 14.0307C8.54075 14.4295 8.50792 14.9457 8.88927 15.5158C9.28324 16.1103 9.79592 16.6363 10.2909 17.1452C10.45 17.3091 10.6091 17.473 10.7632 17.6369C12.1269 19.0926 13.8392 20.3208 15.847 21.2823C17.6956 22.1679 19.6352 22.7624 21.6127 23.0487C21.7086 23.0634 21.8046 23.0707 21.8955 23.0756C22.1026 23.0927 22.2971 23.105 22.4915 23.2028C22.7668 23.3374 22.9815 23.5527 23.0977 23.8096C23.2012 24.0347 23.234 24.2842 23.2593 24.5215C23.2845 24.7637 23.3047 25.0059 23.3148 25.2408C23.3275 25.5222 23.3325 25.8476 23.2138 26.124C22.9714 26.6892 22.3501 26.6305 21.749 26.5717C21.6708 26.5644 21.595 26.5571 21.5192 26.5497C20.9914 26.5081 20.4585 26.3711 19.9408 26.2366C19.7716 26.1925 19.6024 26.1485 19.4433 26.1118C16.4809 25.1503 13.0942 23.861 10.4222 21.5954C9.49538 20.7807 8.37912 20.0981 7.13405 21.204C6.40419 21.7569 6.03294 22.2707 6.00264 22.7796C5.97991 23.1441 6.13901 23.4915 6.4749 23.8145C7.59874 24.9081 8.84886 25.6934 10.1722 26.5228C10.493 26.7234 10.8162 26.9265 11.1471 27.1393C15.3444 29.6495 20.36 31 25.1888 31C26.6611 31 28.1183 30.8752 29.5301 30.6183C29.9064 30.5498 30.2827 30.4911 30.6615 30.4324C31.1792 30.3517 31.7171 30.2685 32.2424 30.1608C33.1415 29.9749 34.0078 29.7571 34.821 29.5125C36.5307 28.9938 38.1369 28.3088 39.5916 27.4745C40.1952 27.1271 40.7862 26.7405 41.3569 26.3662L41.7989 26.0775C42.0312 25.9258 42.2636 25.7742 42.4909 25.6176C43.0187 25.253 43.5112 24.864 43.9658 24.4995C44.188 24.3209 44.39 24.1178 44.587 23.9221L44.6502 23.8585C44.7209 23.7876 44.7992 23.7068 44.8598 23.6114C44.9153 23.5184 44.9557 23.423 44.9734 23.3252C45.077 22.8114 44.6451 22.3245 44.2587 21.9575L44.2764 21.9649Z"/>
<path d="M55.0035 27.6347C54.5811 27.0747 54.4251 25.6052 54.2691 24.8658C53.9283 23.2498 53.5851 21.6338 53.2442 20.0178C52.901 18.3995 52.5554 16.7835 52.2074 15.1651C52.0346 14.369 51.845 13.5752 51.6698 12.779C51.497 11.9993 51.3817 11.2102 51.2209 10.4306C51.1729 10.2014 51.1225 9.97464 51.0889 9.74547C51.0649 9.57064 51.0889 9.34384 51.2473 9.23752C51.4058 9.13121 51.6098 9.10286 51.7946 9.0816C52.2482 9.02726 52.7138 9.04616 53.1722 9.03907C53.4219 9.03671 53.6691 9.02253 53.9187 9.02253C54.1371 9.02253 54.3555 9.03671 54.5763 9.03671C54.8931 9.03671 55.2795 9.04379 55.522 9.25642C55.6756 9.39109 55.7668 9.62734 55.8316 9.81634C55.8964 10.0101 55.9492 10.2062 55.9948 10.4046C56.0956 10.8275 56.1724 11.2575 56.2492 11.6851C56.278 11.841 56.3044 11.9993 56.338 12.1553C56.4652 12.7554 57.1444 16.2165 57.3172 16.4764C57.5213 16.1669 58.8101 11.1866 58.9469 10.4424C59.0189 10.055 59.1197 9.70531 59.331 9.36746C59.4534 9.17137 59.6646 9.09105 59.8902 9.0816C60.0702 9.07451 60.255 9.05561 60.435 9.05324C60.6414 9.05324 60.8478 9.06506 61.0542 9.06506C61.4767 9.06506 61.3303 9.06033 61.7551 9.05797C62.0143 9.05797 62.2783 9.07215 62.5279 9.14066C62.7775 9.20917 62.8759 9.30367 62.9575 9.54701C63.1615 10.1518 63.2432 10.7637 63.3632 11.3851C63.4736 11.9592 64.6208 16.2118 64.748 16.3889C64.8776 16.5638 65.0672 15.4676 65.0816 15.4038C65.4273 13.7405 65.8089 12.1104 66.1209 10.4401C66.1737 10.1518 66.2217 9.85651 66.3057 9.57537C66.3489 9.42889 66.4089 9.26823 66.5433 9.17846C66.6681 9.09341 66.8289 9.08396 66.9753 9.0816C67.3594 9.07215 67.7506 9.0627 68.1346 9.0816C68.2522 9.08632 68.3698 9.08868 68.4874 9.08868C69.025 9.08868 69.5651 9.07923 70.1027 9.09104C70.2779 9.09577 70.4819 9.08396 70.6523 9.13593C71.3652 9.35329 70.8683 10.6031 70.7435 11.0779C70.2587 12.9538 69.8627 15.0045 69.4451 16.9134C68.7994 19.8642 68.1178 22.8363 67.5034 25.7919C67.4458 26.0683 67.4122 26.3518 67.3594 26.6282C67.3018 26.9283 67.2082 27.2236 67.1073 27.5118C67.0089 27.793 66.7929 27.9489 66.4953 27.9701C65.6553 28.0292 64.7912 28.0528 63.9512 27.9701C63.9392 27.9701 63.9248 27.9678 63.9128 27.9654C63.7784 27.9512 63.6488 27.9418 63.5384 27.8591C63.4616 27.8024 63.3992 27.7292 63.356 27.6488C63.3128 27.5685 63.2816 27.4811 63.2576 27.3984C63.2456 27.3582 63.2263 27.3181 63.2167 27.2756C63.1711 27.0629 63.1231 26.8479 63.0679 26.6353C62.8615 25.8557 62.6911 25.076 62.5063 24.294C62.3695 23.7176 62.2375 23.1411 62.1031 22.5646C61.9783 22.026 61.9231 21.3054 61.7935 20.7667C61.7767 20.6982 61.7503 20.6274 61.7023 20.573C61.6495 20.514 61.5943 20.4951 61.5175 20.4809C61.3159 20.4431 61.0974 20.4572 60.8934 20.462C60.7686 20.4643 60.6318 20.4738 60.531 20.5541C60.4278 20.6368 60.3894 20.7691 60.3582 20.8896C60.2046 21.5204 60.0102 22.3118 59.8902 22.9497C59.7582 23.6396 59.6022 24.3271 59.4222 25.0075C59.3238 25.3784 59.2277 25.7493 59.1485 26.125C59.0621 26.5361 58.9973 26.9495 58.8509 27.3488C58.7837 27.5307 58.6781 27.7977 58.4789 27.8827C58.2797 27.9678 57.9389 27.9323 57.7109 27.9418C57.0604 27.9725 56.806 27.9465 56.1556 27.956C55.7716 27.9631 55.2627 27.982 55.0011 27.637L55.0035 27.6347Z"/>
<path d="M79.0628 22.997C79.0628 19.1531 79.0892 15.288 79.0628 11.4441C79.058 10.9362 78.9068 9.63914 79.2572 9.29657C79.6197 8.94455 80.6445 9.1052 81.2205 9.09811C81.7918 9.09103 82.9414 8.88548 83.1862 9.48084C83.3398 9.85649 83.251 12.1151 83.251 12.6939C83.251 15.3848 83.287 18.1278 83.2486 20.814C83.2438 21.1164 83.2198 21.4211 83.2102 21.7236C83.1958 22.1323 83.2198 22.7253 83.2198 23.134C83.2198 23.271 83.2438 23.401 83.2486 23.538C83.2534 23.6656 83.2582 23.8168 83.3566 23.9136C83.4694 24.0247 83.6351 24.0412 83.7863 24.0483C83.9519 24.0554 84.1103 24.0743 84.2783 24.0743C84.6983 24.0743 85.1159 24.0743 85.5359 24.0719C86.3688 24.0719 87.2088 24.0979 88.0417 24.0648C88.3873 24.0507 88.8865 24.0176 89.1673 24.2704C89.3161 24.4074 89.3594 24.6106 89.3762 24.802C89.4146 25.2012 89.3929 25.4138 89.3833 25.8155C89.3761 26.1746 89.3977 26.5337 89.3953 26.8952C89.3953 27.1645 89.3809 27.5331 89.1817 27.7457C88.9969 27.9418 88.5241 27.9229 88.2769 27.9205C87.7153 27.9134 87.1584 27.937 86.5968 27.9276C85.7616 27.9111 84.9287 27.9111 84.0935 27.9158C83.1862 27.9205 82.2814 27.93 81.3741 27.93C80.8029 27.93 79.8717 28.0575 79.4612 27.8473C78.8396 27.5307 79.0484 26.236 79.0604 25.6241C79.0772 24.7547 79.0652 23.8687 79.0652 22.9993L79.0628 22.997Z"/>
<path d="M95.8944 27.9064C95.34 27.9607 94.7832 27.9631 94.2288 27.9891C93.6479 28.0174 93.0647 27.9513 92.4815 27.9607C92.1815 27.9654 91.8526 27.9465 91.5646 27.8591C91.1998 27.7481 91.0126 27.4929 90.9526 27.1291C90.8614 26.5739 90.931 25.9833 90.9454 25.4233C90.9958 23.2073 90.955 20.8967 90.9574 18.6735C90.9574 16.1574 90.9838 13.639 90.9166 11.1228C90.8518 8.71069 91.5262 9.16666 93.5159 9.02018C99.0026 8.61146 102.428 11.0331 103.157 16.637C103.239 17.2985 103.26 17.9152 103.26 18.5814C103.179 23.5073 101.24 27.3842 95.8944 27.9064ZM95.196 24.1027C96.7321 23.9019 99.1658 22.2882 99.197 18.546C99.2258 15.073 97.0849 13.3295 95.196 13.1003V24.1027Z"/>
<path d="M76.5113 9.35091C76.6338 9.48793 76.641 9.66276 76.6602 9.84468C76.6818 10.0479 76.6937 10.2487 76.6937 10.4613C76.6937 12.486 76.6433 14.5083 76.6458 16.533C76.6458 19.5382 76.6073 22.5906 76.6506 25.591C76.6578 26.1179 76.8378 27.5094 76.3697 27.8142C75.9713 28.0056 75.4673 27.9701 75.0377 27.9772C74.5096 27.9867 73.9816 27.9843 73.4536 27.9772C73.1896 27.9725 72.9088 27.9607 72.6927 27.8118C72.4887 27.6724 72.3735 27.4338 72.3351 27.1905C72.2607 26.7274 72.3255 26.184 72.3231 25.7115C72.3231 24.4287 72.3807 23.1482 72.3903 21.8653C72.3999 20.3438 72.3903 18.8247 72.3903 17.3103C72.3903 16.8827 72.4167 16.4574 72.4167 16.0298C72.4167 15.6802 72.3879 15.3352 72.3999 14.9856C72.4191 14.3973 72.3711 13.8327 72.3711 13.2444C72.3711 12.838 72.4119 12.4317 72.4119 12.0229C72.4119 11.5575 72.4287 11.0992 72.4527 10.6361C72.4647 10.3999 72.4719 10.1542 72.4983 9.91792C72.5127 9.78798 72.5415 9.64386 72.5919 9.52101C72.6855 9.28711 72.9496 9.12883 73.1992 9.11701C73.6072 9.09811 74.0176 9.1052 74.4256 9.10284C74.8601 9.10284 75.2921 9.09811 75.7265 9.1052C75.9905 9.10992 76.2737 9.13119 76.4777 9.3131C76.4921 9.32492 76.5041 9.33909 76.5161 9.35091H76.5113Z"/>
<path d="M148.059 9.10521C148.551 9.10521 149.043 9.09813 149.535 9.08868C150.113 9.07923 150.692 9.08868 151.27 9.07686C151.46 9.07214 151.664 9.09576 151.81 9.21153C151.973 9.34147 152.036 9.55882 152.062 9.76436C152.136 10.2936 152.074 10.837 152.074 11.3685C152.074 11.6946 152.043 12.023 152.04 12.3466C152.04 12.5049 152.031 12.6656 152.024 12.8239C152.019 12.9396 152.012 13.0601 151.959 13.1641C151.834 13.4169 151.457 13.4098 151.215 13.4121C150.511 13.4145 149.791 13.4617 149.091 13.4287C148.882 13.4192 148.637 13.4263 148.438 13.4547C148.299 13.4759 148.107 13.5043 147.999 13.5988C147.847 13.7358 147.874 14.0217 147.874 14.2059C147.874 14.3406 147.879 14.4776 147.886 14.6123C147.898 14.8297 147.867 15.0565 147.867 15.2762C147.867 15.6943 147.898 16.1102 147.898 16.5283C147.898 19.5335 147.859 22.5859 147.903 25.5863C147.91 26.1132 148.09 27.5047 147.622 27.8095C147.223 28.0008 146.719 27.9654 146.29 27.9725C145.762 27.9819 145.234 27.9796 144.706 27.9725C144.442 27.9678 144.161 27.956 143.945 27.8071C143.741 27.6677 143.626 27.4291 143.587 27.1858C143.513 26.7227 143.578 26.1793 143.575 25.7068C143.575 24.424 143.633 23.1435 143.642 21.8606C143.652 20.3391 143.642 18.82 143.642 17.3056C143.642 16.878 143.669 16.4527 143.669 16.0251C143.669 15.6755 143.64 15.3305 143.652 14.9809C143.664 14.6147 143.652 14.2437 143.551 13.8894C143.395 13.3413 142.91 13.4027 142.425 13.3814C141.871 13.3554 141.314 13.4003 140.76 13.3767C140.405 13.3602 139.939 13.4736 139.658 13.1948C139.5 13.0388 139.483 12.7246 139.471 12.5096C139.442 12.0017 139.401 11.5032 139.401 10.9929C139.401 10.7755 139.418 10.5653 139.425 10.3503C139.433 10.1187 139.452 9.88485 139.509 9.66041C139.622 9.22334 140.102 9.11939 140.505 9.10049C140.959 9.07922 141.422 9.11466 141.876 9.11466C142.913 9.11466 143.95 9.10285 144.986 9.10285C146.011 9.10285 147.036 9.10285 148.061 9.10285L148.059 9.10521Z"/>
<path d="M153.432 23.1529V13.8776C153.432 12.7861 153.442 11.7087 153.403 10.6149C153.389 10.218 153.365 9.69112 153.641 9.36273C153.862 9.09576 154.246 9.06977 154.57 9.06269C155.792 9.0367 156.696 9.08867 157.92 9.08867C158.492 9.08867 159.056 9.05796 159.627 9.05796C160.136 9.05796 160.649 9.05796 161.161 9.07686C161.744 9.10049 162.322 9.08159 162.903 9.07686C163.304 9.0745 163.798 9.01544 164.185 9.13593C164.862 9.34619 164.758 10.329 164.727 10.8653C164.708 11.2079 164.71 11.5528 164.718 11.8977C164.722 12.2072 164.773 12.5569 164.713 12.8617C164.684 13.0081 164.61 13.1523 164.485 13.2326C164.365 13.3105 164.216 13.3224 164.074 13.3318C163.465 13.372 162.85 13.372 162.238 13.3696C161.657 13.3649 161.062 13.3129 160.486 13.3531C160.145 13.3767 159.793 13.346 159.449 13.3507C159.106 13.3554 158.739 13.372 158.386 13.4121C158.057 13.4476 157.673 13.5303 157.52 13.8563C157.443 14.0217 157.424 14.2178 157.412 14.3973C157.404 14.4871 157.397 14.5745 157.397 14.6643C157.397 14.8344 157.385 14.9998 157.39 15.1699C157.402 15.4983 157.431 15.8574 157.527 16.1716C157.568 16.3062 157.644 16.4315 157.779 16.4976C157.947 16.5779 158.151 16.5898 158.333 16.611C158.96 16.6772 159.615 16.6157 160.253 16.6205C160.892 16.6252 161.569 16.637 162.226 16.637C162.536 16.637 162.889 16.611 162.966 16.9725C163.033 17.2867 162.978 17.634 162.97 17.9529C162.961 18.3853 162.982 18.8176 162.982 19.2523C162.982 19.5406 163.011 19.8595 162.922 20.1383C162.874 20.2871 162.723 20.3509 162.579 20.3887C162.421 20.4312 162.257 20.4407 162.092 20.4407C161.667 20.4407 161.245 20.4525 160.82 20.4525C160.292 20.4525 159.761 20.4407 159.233 20.436C158.984 20.436 158.727 20.4171 158.48 20.4407C158.309 20.4572 158.12 20.4502 157.954 20.5045C157.8 20.5541 157.683 20.6722 157.604 20.8069C157.512 20.9605 157.488 21.0668 157.481 21.2463C157.46 21.6834 157.385 22.1606 157.443 22.5953C157.464 22.7654 157.481 23.1907 157.556 23.349C157.695 23.6372 158.076 23.6845 158.362 23.6987C158.813 23.7223 159.267 23.7365 159.718 23.7459C160.671 23.7648 161.624 23.7341 162.577 23.7341C162.906 23.7294 163.234 23.7246 163.563 23.7128C165.135 23.6609 165.018 23.9467 164.984 25.3548C164.972 25.8793 165.054 27.0818 164.936 27.4409C164.866 27.6488 164.619 27.7693 164.413 27.8C163.458 27.9323 162.5 27.8898 161.537 27.8922C161.444 27.8922 161.353 27.8922 161.259 27.8993C160.421 27.9371 159.569 27.9063 158.729 27.9111C157.848 27.9158 156.968 27.9229 156.087 27.9229C155.561 27.9229 154.327 28.015 153.948 27.8804C153.183 27.611 153.418 26.288 153.432 25.617C153.449 24.7996 153.437 23.968 153.437 23.1482L153.432 23.1529Z"/>
<path d="M124.928 15.366V11.867L124.936 11.6946C124.936 11.1724 124.952 10.6314 124.96 10.1022C124.962 9.88958 125 9.66278 124.948 9.45487C124.921 9.35092 124.861 9.24934 124.768 9.195C124.703 9.15956 124.628 9.14538 124.556 9.13593C124.259 9.09813 123.961 9.08632 123.661 9.08632C123.486 9.08632 123.344 9.08632 123.2 9.07923C122.519 9.07214 121.851 9.07214 121.208 9.09577C120.963 9.11703 120.762 9.08868 120.558 9.25642C120.325 9.44779 120.248 9.75019 120.128 10.0101C120.097 10.1117 120.056 10.2203 120.018 10.3219L119.939 10.5322C119.891 10.6574 119.852 10.7826 119.804 10.8984C119.264 12.2096 118.686 13.5539 118.122 14.8509C118.119 14.858 118.114 14.8675 118.112 14.8746C117.954 15.2384 117.793 15.6022 117.634 15.9661C117.534 16.1952 117.433 16.4267 117.332 16.6559C117.243 16.8567 117.152 17.0835 117.013 17.256C116.95 17.334 116.852 17.4096 116.744 17.4025C116.677 17.3977 116.617 17.3647 116.569 17.3198C116.293 17.0623 116.185 16.6441 116.043 16.311C115.827 15.8054 115.609 15.2998 115.39 14.7942C115.27 14.5154 115.15 14.239 115.033 13.9602C114.692 13.1546 114.351 12.3514 114.017 11.5457C113.842 11.1394 113.677 10.7425 113.509 10.3361L113.35 9.92975C113.266 9.71003 113.194 9.40999 112.99 9.26351C112.839 9.15247 112.645 9.15247 112.465 9.14302C112.253 9.13121 112.042 9.12176 111.831 9.11231C111.32 9.08868 110.808 9.07214 110.297 9.06269C109.904 9.06269 109.5 9.02962 109.109 9.0745C109.025 9.08396 108.941 9.09813 108.867 9.13829C108.771 9.19263 108.704 9.2895 108.668 9.39345C108.581 9.65333 108.615 9.96519 108.608 10.2369C108.6 10.4684 108.591 10.6976 108.598 10.9291C108.605 11.2433 108.61 11.5552 108.612 11.8694C108.622 12.831 108.612 13.7925 108.605 14.7564L108.598 15.3801C108.598 15.8172 108.591 16.2543 108.591 16.7008C108.591 17.5064 108.598 18.3168 108.598 19.1366V19.387C108.615 22.0661 108.615 24.4877 108.55 26.8999C108.548 27.0298 108.548 27.1621 108.55 27.2921C108.552 27.422 108.574 27.5402 108.603 27.6677C108.612 27.7126 108.622 27.7575 108.644 27.7977C108.699 27.9016 108.826 27.9512 108.944 27.9654C109.236 28.0009 109.52 27.9654 109.81 27.9654C110.122 27.9654 110.436 27.9678 110.748 27.9701C111.185 27.9701 111.622 27.9654 112.059 27.956C112.213 27.9536 112.409 27.9678 112.522 27.8426C112.606 27.7504 112.601 27.6158 112.604 27.5C112.606 27.4008 112.609 27.3039 112.609 27.2047C112.609 26.9259 112.606 26.6448 112.597 26.366C112.597 26.2856 112.589 26.203 112.589 26.1226L112.573 25.1067C112.563 23.9963 112.549 22.8883 112.563 21.7779C112.568 21.3857 112.58 20.9935 112.592 20.6014C112.606 20.2115 112.592 19.8194 112.613 19.4319C112.623 19.2594 112.647 18.9877 112.841 18.9169C113.026 18.8507 113.182 19.009 113.264 19.1508C113.518 19.5973 113.741 20.0627 113.965 20.5258C114.013 20.6226 114.056 20.7195 114.101 20.8187C114.181 20.9959 114.241 21.1873 114.329 21.3597C114.749 22.3662 115.162 23.3348 115.575 24.3035L115.662 24.5232C115.71 24.6248 115.758 24.7334 115.796 24.8445L115.837 24.939C115.902 25.1091 115.969 25.2792 116.043 25.4446C116.108 25.5863 116.178 25.6974 116.338 25.7399C116.432 25.7635 116.528 25.7588 116.624 25.7564C116.725 25.7564 116.823 25.7493 116.924 25.7446C117.013 25.7399 117.104 25.7352 117.186 25.6974C117.272 25.6596 117.33 25.5981 117.375 25.5178C117.428 25.4233 117.476 25.3265 117.517 25.2249C117.55 25.1398 117.584 25.0548 117.62 24.9721C117.706 24.7689 117.795 24.5823 117.882 24.3932L117.922 24.2987C117.994 24.1499 118.064 23.994 118.129 23.838L118.882 22.0969C119.048 21.707 119.216 21.3078 119.382 20.9179C119.612 20.3769 119.891 19.8666 120.162 19.3469C120.231 19.2145 120.303 19.0775 120.423 18.9877C120.587 18.8673 120.767 18.8932 120.86 19.0752C120.963 19.2736 120.937 19.5571 120.939 19.7745C120.939 20.0178 120.935 20.2612 120.935 20.5045C120.935 21.244 120.944 21.9834 120.944 22.7229V23.4246C120.937 24.613 120.927 25.8722 120.903 27.0984V27.1929C120.899 27.363 120.903 27.5307 120.935 27.6984C120.947 27.7528 120.961 27.8095 120.992 27.8567C121.086 27.9961 121.249 27.989 121.398 27.989C122.31 27.9772 123.234 28.0056 124.163 27.9749C124.333 27.9749 124.501 27.9631 124.672 27.9465C124.732 27.9418 124.794 27.9347 124.844 27.904C124.902 27.8686 124.938 27.8071 124.955 27.7433C124.984 27.6347 124.972 27.5118 124.969 27.4008C124.969 27.2779 124.962 27.1527 124.955 27.0298C124.938 26.7723 124.931 26.5597 124.931 26.3636C124.892 23.9491 124.9 21.4661 124.907 19.0681L124.924 15.373L124.928 15.366Z"/>
<path d="M140.93 27.363C140.541 25.7399 140.183 24.1074 139.818 22.4371L138.765 17.5986C138.63 16.9819 138.486 16.3582 138.352 15.7251L138.321 15.5833C137.98 14.0689 137.632 12.5545 137.353 11.0945C137.291 10.7968 137.233 10.5015 137.171 10.2133C137.142 10.081 137.113 9.94865 137.087 9.81635C137.049 9.63443 137.032 9.37219 136.885 9.23989C136.859 9.21627 136.828 9.19737 136.797 9.18319C136.53 9.05089 136.199 9.0816 135.911 9.08869H135.419C134.761 9.07215 134.087 9.07215 133.444 9.07215C132.46 9.07215 131.54 9.08869 130.659 9.12649C130.501 9.13358 130.333 9.12649 130.196 9.22099C130.103 9.28478 130.067 9.36983 130.038 9.47378C130.004 9.59663 129.978 9.71949 129.956 9.8447L129.939 9.9392C129.495 12.1647 129.011 14.428 128.535 16.6134L128.504 16.7859C128.353 17.4875 128.202 18.1916 128.053 18.8932L127.808 20.032C127.674 20.6321 127.547 21.2487 127.419 21.8748L127.388 22.0543C127.071 23.5616 126.754 25.1067 126.38 26.5668C126.332 26.7534 126.289 26.9424 126.25 27.1338C126.214 27.3181 126.169 27.5118 126.186 27.6985C126.188 27.7315 126.195 27.767 126.207 27.7977C126.238 27.8756 126.313 27.93 126.392 27.956C126.471 27.982 126.546 27.9725 126.625 27.9749C126.973 27.9938 127.328 27.9772 127.679 27.9772C128.051 27.9772 128.42 27.9772 128.792 27.9772C128.987 27.9772 129.179 27.9701 129.373 27.9607C129.486 27.956 129.599 27.9442 129.711 27.93C129.776 27.9205 129.843 27.9111 129.901 27.8804C129.98 27.8402 130.035 27.767 130.074 27.689C130.115 27.6063 130.117 27.5236 130.143 27.4362C130.206 27.2259 130.247 27.0157 130.285 26.8125C130.316 26.64 130.347 26.5148 130.371 26.3825L130.395 26.2809C130.427 26.1297 130.47 25.9785 130.501 25.8273C130.554 25.5674 130.595 25.2178 130.811 25.0335C130.945 24.9201 131.127 24.8894 131.303 24.8681C131.867 24.7996 132.438 24.8043 133.004 24.8043C133.535 24.8043 134.077 24.7925 134.612 24.8043C134.886 24.8114 135.162 24.8256 135.436 24.8516C135.736 24.8799 136.129 24.8516 136.357 25.0831C136.461 25.1871 136.494 25.3146 136.533 25.4493C136.583 25.6194 136.626 25.7895 136.665 25.962C136.739 26.3069 136.797 26.6542 136.873 26.9968L136.921 27.2307C136.943 27.3441 136.969 27.4575 136.996 27.5709C137.013 27.6394 137.029 27.7103 137.08 27.7646C137.13 27.8189 137.183 27.8662 137.257 27.8898C137.397 27.9347 137.56 27.9276 137.704 27.9323C137.869 27.9394 138.035 27.9442 138.198 27.9465C138.796 27.9607 139.391 27.9465 139.989 27.9489C140.133 27.9489 140.279 27.9489 140.423 27.9489C140.553 27.9489 140.682 27.9583 140.807 27.9229C140.855 27.9087 140.901 27.8875 140.932 27.8497C141.035 27.7244 140.956 27.4929 140.925 27.3559L140.93 27.363ZM135.431 20.4856C135.445 20.5541 135.462 20.6226 135.46 20.6935C135.46 20.9038 135.275 20.9912 135.08 20.9959C134.85 21.0006 134.62 20.9936 134.389 20.9888C133.628 20.977 132.865 20.9888 132.104 20.9699C131.838 20.9628 131.651 20.9227 131.634 20.6344C131.622 20.4313 131.675 20.2328 131.711 20.0344C131.776 19.6847 131.876 19.3445 131.944 18.9948C132.061 18.3829 132.236 17.7829 132.373 17.1757C132.436 16.8945 132.493 16.6205 132.548 16.3488C132.712 15.5432 132.872 14.7304 133.129 13.9484C133.18 13.7925 133.228 13.6248 133.345 13.5043C133.386 13.4618 133.439 13.4263 133.496 13.4121C133.84 13.3318 133.94 13.8469 134.008 14.0666C134.353 15.2148 134.555 16.4079 134.809 17.5773C134.824 17.6482 134.843 17.7191 134.855 17.7923C134.879 17.9341 134.917 18.0805 134.951 18.2128C135.006 18.4302 135.061 18.6499 135.109 18.8767C135.126 18.9618 135.14 19.0492 135.157 19.1271L135.181 19.2594C135.277 19.6611 135.34 20.0674 135.431 20.4832V20.4856Z"/>
</mask>
<path d="M44.2764 21.9649L44.1299 21.8254C43.7587 21.4682 43.3369 21.0621 42.799 20.9153C42.6474 20.8737 42.5161 20.8615 42.3949 20.8762C42.2585 20.8933 42.1323 20.9447 42.0262 20.9911C41.4832 21.2285 41.0059 21.5808 40.5437 21.9184C40.2785 22.1141 40.0033 22.3147 39.7204 22.4909C39.1471 22.8481 38.5334 23.1735 37.9425 23.4866L37.7657 23.5796C36.8211 24.0787 36.0408 24.4677 35.3134 24.8078C34.3133 25.2751 33.4724 25.62 32.6743 25.894C32.0429 26.1118 31.3686 26.2904 30.6766 26.4225L30.6009 26.4372C29.8761 26.5791 28.977 26.7552 28.5022 26.1485C28.386 25.9992 28.3153 25.8206 28.2673 25.6812C28.0905 25.1699 28.0249 24.6169 28.0754 24.0787C28.1057 23.7557 28.1916 23.5527 28.3456 23.4401C28.5628 23.2836 28.8937 23.1784 29.3609 23.1221C29.7346 23.0756 30.1766 23.0169 30.6186 22.9435C31.3004 22.8285 31.9949 22.6524 32.6844 22.4224C34.0886 21.9526 35.4826 21.2603 36.8338 20.3648C38.8971 18.9972 40.7129 17.221 42.0843 15.2295C42.3393 14.7842 42.2004 14.312 41.7029 13.9646C40.766 13.3995 40.0007 13.0472 39.2885 12.8515C38.8542 12.7781 38.4753 12.9273 38.0662 13.3383C37.7682 13.6637 37.4778 13.9989 37.2 14.3218C36.6444 14.9653 36.0711 15.6307 35.4119 16.2277C34.1517 17.4241 32.4192 18.0846 30.7347 18.618L30.664 18.6424C29.7069 18.9605 28.3961 19.3984 27.9112 18.3464C27.5501 17.4192 27.5703 16.695 27.9718 16.1934C28.184 15.9292 28.5047 15.7262 28.9315 15.5891C29.1134 15.5304 29.2977 15.4742 29.4796 15.4179C30.0023 15.2564 30.5428 15.0925 31.0529 14.8576C31.6616 14.5787 32.2677 14.2044 32.8536 13.7469C33.8057 13.0031 34.7048 12.0563 35.6847 10.7645C35.912 10.4636 36.0913 10.1896 36.2327 9.92293C36.2984 9.80304 36.3691 9.66604 36.4095 9.51924C36.4625 9.33086 36.4423 9.15715 36.3539 9.00302C36.2782 8.87091 36.1544 8.76081 36.0029 8.68741C35.9423 8.6605 35.8791 8.63848 35.8135 8.61646C35.5129 8.51616 35.2074 8.42808 34.9094 8.34245C34.7806 8.30575 34.6518 8.26905 34.523 8.22991C34.4093 8.19566 34.2957 8.15896 34.182 8.11981C33.9269 8.03418 33.6618 7.94611 33.3941 7.90696C33.0329 7.85069 32.7071 7.9877 32.543 8.25927C31.7449 9.57796 30.9065 10.5199 29.2068 11.1389C28.6512 11.3175 28.2244 11.2954 27.9365 11.0801C27.2748 10.5835 27.3758 9.09599 27.4491 8.00972C27.4718 7.66965 27.4945 7.34915 27.492 7.09715C27.5046 6.68124 27.3076 6.36074 26.9414 6.19682C26.7445 6.1063 26.5298 6.07449 26.3278 6.05003C25.858 5.99376 25.3807 5.98642 24.9059 6.02067C24.517 6.04758 24.0775 6.11608 23.772 6.41212C23.5699 6.60784 23.4512 6.89164 23.4108 7.27331C23.383 7.54487 23.3527 7.86782 23.3502 8.17364C23.3199 8.40851 23.3224 8.69965 23.3224 9.00791C23.3224 9.76879 23.3275 10.6275 22.8981 11.0288C22.7214 11.1951 22.484 11.2734 22.1784 11.2563C20.4636 11.0116 19.264 9.48744 18.2664 8.07088C17.6148 7.3149 16.5491 7.84091 15.9707 8.12471C15.8546 8.18832 15.7232 8.24948 15.5919 8.31065C15.1575 8.51126 14.6651 8.74124 14.5262 9.18162C14.458 9.39936 14.5337 9.72475 14.761 10.1725C14.862 10.3706 14.9883 10.559 15.1121 10.7376C15.1702 10.8257 15.2308 10.9138 15.2863 11.0019C15.5793 11.4643 15.9177 11.9046 16.2915 12.3157C16.4102 12.4453 16.5213 12.5774 16.6324 12.712C16.8142 12.9273 17.0011 13.1524 17.2158 13.3554C17.8623 13.9646 18.6907 14.498 19.6756 14.9408C20.3878 15.2589 21.1707 15.5255 22.0066 15.7335C22.4335 15.8265 22.7845 16.147 22.9966 16.6338C23.2795 17.2846 23.2618 18.114 22.9663 18.5862C22.6102 18.9434 22.0774 18.9629 21.6884 18.9165C21.3096 18.87 20.9232 18.7672 20.5469 18.6694C20.3676 18.6229 20.1883 18.5739 20.0115 18.5348C19.7085 18.4638 19.413 18.3513 19.1251 18.2412C18.9937 18.1898 18.8599 18.1409 18.726 18.0944C18.2891 17.9403 17.8547 17.7543 17.438 17.5415C15.698 16.651 14.112 15.2197 12.8568 13.4019C12.6952 13.1695 12.4275 12.871 12.0512 12.7732C11.6572 12.6753 11.2708 12.827 10.9273 12.964L10.8793 12.9836C10.5132 13.1279 10.1419 13.2967 9.77571 13.4876C9.4575 13.6515 9.19485 13.8301 8.97766 14.0307C8.54075 14.4295 8.50792 14.9457 8.88927 15.5158C9.28324 16.1103 9.79592 16.6363 10.2909 17.1452C10.45 17.3091 10.6091 17.473 10.7632 17.6369C12.1269 19.0926 13.8392 20.3208 15.847 21.2823C17.6956 22.1679 19.6352 22.7624 21.6127 23.0487C21.7086 23.0634 21.8046 23.0707 21.8955 23.0756C22.1026 23.0927 22.2971 23.105 22.4915 23.2028C22.7668 23.3374 22.9815 23.5527 23.0977 23.8096C23.2012 24.0347 23.234 24.2842 23.2593 24.5215C23.2845 24.7637 23.3047 25.0059 23.3148 25.2408C23.3275 25.5222 23.3325 25.8476 23.2138 26.124C22.9714 26.6892 22.3501 26.6305 21.749 26.5717C21.6708 26.5644 21.595 26.5571 21.5192 26.5497C20.9914 26.5081 20.4585 26.3711 19.9408 26.2366C19.7716 26.1925 19.6024 26.1485 19.4433 26.1118C16.4809 25.1503 13.0942 23.861 10.4222 21.5954C9.49538 20.7807 8.37912 20.0981 7.13405 21.204C6.40419 21.7569 6.03294 22.2707 6.00264 22.7796C5.97991 23.1441 6.13901 23.4915 6.4749 23.8145C7.59874 24.9081 8.84886 25.6934 10.1722 26.5228C10.493 26.7234 10.8162 26.9265 11.1471 27.1393C15.3444 29.6495 20.36 31 25.1888 31C26.6611 31 28.1183 30.8752 29.5301 30.6183C29.9064 30.5498 30.2827 30.4911 30.6615 30.4324C31.1792 30.3517 31.7171 30.2685 32.2424 30.1608C33.1415 29.9749 34.0078 29.7571 34.821 29.5125C36.5307 28.9938 38.1369 28.3088 39.5916 27.4745C40.1952 27.1271 40.7862 26.7405 41.3569 26.3662L41.7989 26.0775C42.0312 25.9258 42.2636 25.7742 42.4909 25.6176C43.0187 25.253 43.5112 24.864 43.9658 24.4995C44.188 24.3209 44.39 24.1178 44.587 23.9221L44.6502 23.8585C44.7209 23.7876 44.7992 23.7068 44.8598 23.6114C44.9153 23.5184 44.9557 23.423 44.9734 23.3252C45.077 22.8114 44.6451 22.3245 44.2587 21.9575L44.2764 21.9649Z" fill="#EFEBE7"/>
<path d="M55.0035 27.6347C54.5811 27.0747 54.4251 25.6052 54.2691 24.8658C53.9283 23.2498 53.5851 21.6338 53.2442 20.0178C52.901 18.3995 52.5554 16.7835 52.2074 15.1651C52.0346 14.369 51.845 13.5752 51.6698 12.779C51.497 11.9993 51.3817 11.2102 51.2209 10.4306C51.1729 10.2014 51.1225 9.97464 51.0889 9.74547C51.0649 9.57064 51.0889 9.34384 51.2473 9.23752C51.4058 9.13121 51.6098 9.10286 51.7946 9.0816C52.2482 9.02726 52.7138 9.04616 53.1722 9.03907C53.4219 9.03671 53.6691 9.02253 53.9187 9.02253C54.1371 9.02253 54.3555 9.03671 54.5763 9.03671C54.8931 9.03671 55.2795 9.04379 55.522 9.25642C55.6756 9.39109 55.7668 9.62734 55.8316 9.81634C55.8964 10.0101 55.9492 10.2062 55.9948 10.4046C56.0956 10.8275 56.1724 11.2575 56.2492 11.6851C56.278 11.841 56.3044 11.9993 56.338 12.1553C56.4652 12.7554 57.1444 16.2165 57.3172 16.4764C57.5213 16.1669 58.8101 11.1866 58.9469 10.4424C59.0189 10.055 59.1197 9.70531 59.331 9.36746C59.4534 9.17137 59.6646 9.09105 59.8902 9.0816C60.0702 9.07451 60.255 9.05561 60.435 9.05324C60.6414 9.05324 60.8478 9.06506 61.0542 9.06506C61.4767 9.06506 61.3303 9.06033 61.7551 9.05797C62.0143 9.05797 62.2783 9.07215 62.5279 9.14066C62.7775 9.20917 62.8759 9.30367 62.9575 9.54701C63.1615 10.1518 63.2432 10.7637 63.3632 11.3851C63.4736 11.9592 64.6208 16.2118 64.748 16.3889C64.8776 16.5638 65.0672 15.4676 65.0816 15.4038C65.4273 13.7405 65.8089 12.1104 66.1209 10.4401C66.1737 10.1518 66.2217 9.85651 66.3057 9.57537C66.3489 9.42889 66.4089 9.26823 66.5433 9.17846C66.6681 9.09341 66.8289 9.08396 66.9753 9.0816C67.3594 9.07215 67.7506 9.0627 68.1346 9.0816C68.2522 9.08632 68.3698 9.08868 68.4874 9.08868C69.025 9.08868 69.5651 9.07923 70.1027 9.09104C70.2779 9.09577 70.4819 9.08396 70.6523 9.13593C71.3652 9.35329 70.8683 10.6031 70.7435 11.0779C70.2587 12.9538 69.8627 15.0045 69.4451 16.9134C68.7994 19.8642 68.1178 22.8363 67.5034 25.7919C67.4458 26.0683 67.4122 26.3518 67.3594 26.6282C67.3018 26.9283 67.2082 27.2236 67.1073 27.5118C67.0089 27.793 66.7929 27.9489 66.4953 27.9701C65.6553 28.0292 64.7912 28.0528 63.9512 27.9701C63.9392 27.9701 63.9248 27.9678 63.9128 27.9654C63.7784 27.9512 63.6488 27.9418 63.5384 27.8591C63.4616 27.8024 63.3992 27.7292 63.356 27.6488C63.3128 27.5685 63.2816 27.4811 63.2576 27.3984C63.2456 27.3582 63.2263 27.3181 63.2167 27.2756C63.1711 27.0629 63.1231 26.8479 63.0679 26.6353C62.8615 25.8557 62.6911 25.076 62.5063 24.294C62.3695 23.7176 62.2375 23.1411 62.1031 22.5646C61.9783 22.026 61.9231 21.3054 61.7935 20.7667C61.7767 20.6982 61.7503 20.6274 61.7023 20.573C61.6495 20.514 61.5943 20.4951 61.5175 20.4809C61.3159 20.4431 61.0974 20.4572 60.8934 20.462C60.7686 20.4643 60.6318 20.4738 60.531 20.5541C60.4278 20.6368 60.3894 20.7691 60.3582 20.8896C60.2046 21.5204 60.0102 22.3118 59.8902 22.9497C59.7582 23.6396 59.6022 24.3271 59.4222 25.0075C59.3238 25.3784 59.2277 25.7493 59.1485 26.125C59.0621 26.5361 58.9973 26.9495 58.8509 27.3488C58.7837 27.5307 58.6781 27.7977 58.4789 27.8827C58.2797 27.9678 57.9389 27.9323 57.7109 27.9418C57.0604 27.9725 56.806 27.9465 56.1556 27.956C55.7716 27.9631 55.2627 27.982 55.0011 27.637L55.0035 27.6347Z" fill="#EFEBE7"/>
<path d="M79.0628 22.997C79.0628 19.1531 79.0892 15.288 79.0628 11.4441C79.058 10.9362 78.9068 9.63914 79.2572 9.29657C79.6197 8.94455 80.6445 9.1052 81.2205 9.09811C81.7918 9.09103 82.9414 8.88548 83.1862 9.48084C83.3398 9.85649 83.251 12.1151 83.251 12.6939C83.251 15.3848 83.287 18.1278 83.2486 20.814C83.2438 21.1164 83.2198 21.4211 83.2102 21.7236C83.1958 22.1323 83.2198 22.7253 83.2198 23.134C83.2198 23.271 83.2438 23.401 83.2486 23.538C83.2534 23.6656 83.2582 23.8168 83.3566 23.9136C83.4694 24.0247 83.6351 24.0412 83.7863 24.0483C83.9519 24.0554 84.1103 24.0743 84.2783 24.0743C84.6983 24.0743 85.1159 24.0743 85.5359 24.0719C86.3688 24.0719 87.2088 24.0979 88.0417 24.0648C88.3873 24.0507 88.8865 24.0176 89.1673 24.2704C89.3161 24.4074 89.3594 24.6106 89.3762 24.802C89.4146 25.2012 89.3929 25.4138 89.3833 25.8155C89.3761 26.1746 89.3977 26.5337 89.3953 26.8952C89.3953 27.1645 89.3809 27.5331 89.1817 27.7457C88.9969 27.9418 88.5241 27.9229 88.2769 27.9205C87.7153 27.9134 87.1584 27.937 86.5968 27.9276C85.7616 27.9111 84.9287 27.9111 84.0935 27.9158C83.1862 27.9205 82.2814 27.93 81.3741 27.93C80.8029 27.93 79.8717 28.0575 79.4612 27.8473C78.8396 27.5307 79.0484 26.236 79.0604 25.6241C79.0772 24.7547 79.0652 23.8687 79.0652 22.9993L79.0628 22.997Z" fill="#EFEBE7"/>
<path d="M95.8944 27.9064C95.34 27.9607 94.7832 27.9631 94.2288 27.9891C93.6479 28.0174 93.0647 27.9513 92.4815 27.9607C92.1815 27.9654 91.8526 27.9465 91.5646 27.8591C91.1998 27.7481 91.0126 27.4929 90.9526 27.1291C90.8614 26.5739 90.931 25.9833 90.9454 25.4233C90.9958 23.2073 90.955 20.8967 90.9574 18.6735C90.9574 16.1574 90.9838 13.639 90.9166 11.1228C90.8518 8.71069 91.5262 9.16666 93.5159 9.02018C99.0026 8.61146 102.428 11.0331 103.157 16.637C103.239 17.2985 103.26 17.9152 103.26 18.5814C103.179 23.5073 101.24 27.3842 95.8944 27.9064ZM95.196 24.1027C96.7321 23.9019 99.1658 22.2882 99.197 18.546C99.2258 15.073 97.0849 13.3295 95.196 13.1003V24.1027Z" fill="#EFEBE7"/>
<path d="M76.5113 9.35091C76.6338 9.48793 76.641 9.66276 76.6602 9.84468C76.6818 10.0479 76.6937 10.2487 76.6937 10.4613C76.6937 12.486 76.6433 14.5083 76.6458 16.533C76.6458 19.5382 76.6073 22.5906 76.6506 25.591C76.6578 26.1179 76.8378 27.5094 76.3697 27.8142C75.9713 28.0056 75.4673 27.9701 75.0377 27.9772C74.5096 27.9867 73.9816 27.9843 73.4536 27.9772C73.1896 27.9725 72.9088 27.9607 72.6927 27.8118C72.4887 27.6724 72.3735 27.4338 72.3351 27.1905C72.2607 26.7274 72.3255 26.184 72.3231 25.7115C72.3231 24.4287 72.3807 23.1482 72.3903 21.8653C72.3999 20.3438 72.3903 18.8247 72.3903 17.3103C72.3903 16.8827 72.4167 16.4574 72.4167 16.0298C72.4167 15.6802 72.3879 15.3352 72.3999 14.9856C72.4191 14.3973 72.3711 13.8327 72.3711 13.2444C72.3711 12.838 72.4119 12.4317 72.4119 12.0229C72.4119 11.5575 72.4287 11.0992 72.4527 10.6361C72.4647 10.3999 72.4719 10.1542 72.4983 9.91792C72.5127 9.78798 72.5415 9.64386 72.5919 9.52101C72.6855 9.28711 72.9496 9.12883 73.1992 9.11701C73.6072 9.09811 74.0176 9.1052 74.4256 9.10284C74.8601 9.10284 75.2921 9.09811 75.7265 9.1052C75.9905 9.10992 76.2737 9.13119 76.4777 9.3131C76.4921 9.32492 76.5041 9.33909 76.5161 9.35091H76.5113Z" fill="#EFEBE7"/>
<path d="M148.059 9.10521C148.551 9.10521 149.043 9.09813 149.535 9.08868C150.113 9.07923 150.692 9.08868 151.27 9.07686C151.46 9.07214 151.664 9.09576 151.81 9.21153C151.973 9.34147 152.036 9.55882 152.062 9.76436C152.136 10.2936 152.074 10.837 152.074 11.3685C152.074 11.6946 152.043 12.023 152.04 12.3466C152.04 12.5049 152.031 12.6656 152.024 12.8239C152.019 12.9396 152.012 13.0601 151.959 13.1641C151.834 13.4169 151.457 13.4098 151.215 13.4121C150.511 13.4145 149.791 13.4617 149.091 13.4287C148.882 13.4192 148.637 13.4263 148.438 13.4547C148.299 13.4759 148.107 13.5043 147.999 13.5988C147.847 13.7358 147.874 14.0217 147.874 14.2059C147.874 14.3406 147.879 14.4776 147.886 14.6123C147.898 14.8297 147.867 15.0565 147.867 15.2762C147.867 15.6943 147.898 16.1102 147.898 16.5283C147.898 19.5335 147.859 22.5859 147.903 25.5863C147.91 26.1132 148.09 27.5047 147.622 27.8095C147.223 28.0008 146.719 27.9654 146.29 27.9725C145.762 27.9819 145.234 27.9796 144.706 27.9725C144.442 27.9678 144.161 27.956 143.945 27.8071C143.741 27.6677 143.626 27.4291 143.587 27.1858C143.513 26.7227 143.578 26.1793 143.575 25.7068C143.575 24.424 143.633 23.1435 143.642 21.8606C143.652 20.3391 143.642 18.82 143.642 17.3056C143.642 16.878 143.669 16.4527 143.669 16.0251C143.669 15.6755 143.64 15.3305 143.652 14.9809C143.664 14.6147 143.652 14.2437 143.551 13.8894C143.395 13.3413 142.91 13.4027 142.425 13.3814C141.871 13.3554 141.314 13.4003 140.76 13.3767C140.405 13.3602 139.939 13.4736 139.658 13.1948C139.5 13.0388 139.483 12.7246 139.471 12.5096C139.442 12.0017 139.401 11.5032 139.401 10.9929C139.401 10.7755 139.418 10.5653 139.425 10.3503C139.433 10.1187 139.452 9.88485 139.509 9.66041C139.622 9.22334 140.102 9.11939 140.505 9.10049C140.959 9.07922 141.422 9.11466 141.876 9.11466C142.913 9.11466 143.95 9.10285 144.986 9.10285C146.011 9.10285 147.036 9.10285 148.061 9.10285L148.059 9.10521Z" fill="#EFEBE7"/>
<path d="M153.432 23.1529V13.8776C153.432 12.7861 153.442 11.7087 153.403 10.6149C153.389 10.218 153.365 9.69112 153.641 9.36273C153.862 9.09576 154.246 9.06977 154.57 9.06269C155.792 9.0367 156.696 9.08867 157.92 9.08867C158.492 9.08867 159.056 9.05796 159.627 9.05796C160.136 9.05796 160.649 9.05796 161.161 9.07686C161.744 9.10049 162.322 9.08159 162.903 9.07686C163.304 9.0745 163.798 9.01544 164.185 9.13593C164.862 9.34619 164.758 10.329 164.727 10.8653C164.708 11.2079 164.71 11.5528 164.718 11.8977C164.722 12.2072 164.773 12.5569 164.713 12.8617C164.684 13.0081 164.61 13.1523 164.485 13.2326C164.365 13.3105 164.216 13.3224 164.074 13.3318C163.465 13.372 162.85 13.372 162.238 13.3696C161.657 13.3649 161.062 13.3129 160.486 13.3531C160.145 13.3767 159.793 13.346 159.449 13.3507C159.106 13.3554 158.739 13.372 158.386 13.4121C158.057 13.4476 157.673 13.5303 157.52 13.8563C157.443 14.0217 157.424 14.2178 157.412 14.3973C157.404 14.4871 157.397 14.5745 157.397 14.6643C157.397 14.8344 157.385 14.9998 157.39 15.1699C157.402 15.4983 157.431 15.8574 157.527 16.1716C157.568 16.3062 157.644 16.4315 157.779 16.4976C157.947 16.5779 158.151 16.5898 158.333 16.611C158.96 16.6772 159.615 16.6157 160.253 16.6205C160.892 16.6252 161.569 16.637 162.226 16.637C162.536 16.637 162.889 16.611 162.966 16.9725C163.033 17.2867 162.978 17.634 162.97 17.9529C162.961 18.3853 162.982 18.8176 162.982 19.2523C162.982 19.5406 163.011 19.8595 162.922 20.1383C162.874 20.2871 162.723 20.3509 162.579 20.3887C162.421 20.4312 162.257 20.4407 162.092 20.4407C161.667 20.4407 161.245 20.4525 160.82 20.4525C160.292 20.4525 159.761 20.4407 159.233 20.436C158.984 20.436 158.727 20.4171 158.48 20.4407C158.309 20.4572 158.12 20.4502 157.954 20.5045C157.8 20.5541 157.683 20.6722 157.604 20.8069C157.512 20.9605 157.488 21.0668 157.481 21.2463C157.46 21.6834 157.385 22.1606 157.443 22.5953C157.464 22.7654 157.481 23.1907 157.556 23.349C157.695 23.6372 158.076 23.6845 158.362 23.6987C158.813 23.7223 159.267 23.7365 159.718 23.7459C160.671 23.7648 161.624 23.7341 162.577 23.7341C162.906 23.7294 163.234 23.7246 163.563 23.7128C165.135 23.6609 165.018 23.9467 164.984 25.3548C164.972 25.8793 165.054 27.0818 164.936 27.4409C164.866 27.6488 164.619 27.7693 164.413 27.8C163.458 27.9323 162.5 27.8898 161.537 27.8922C161.444 27.8922 161.353 27.8922 161.259 27.8993C160.421 27.9371 159.569 27.9063 158.729 27.9111C157.848 27.9158 156.968 27.9229 156.087 27.9229C155.561 27.9229 154.327 28.015 153.948 27.8804C153.183 27.611 153.418 26.288 153.432 25.617C153.449 24.7996 153.437 23.968 153.437 23.1482L153.432 23.1529Z" fill="#EFEBE7"/>
<path d="M124.928 15.366V11.867L124.936 11.6946C124.936 11.1724 124.952 10.6314 124.96 10.1022C124.962 9.88958 125 9.66278 124.948 9.45487C124.921 9.35092 124.861 9.24934 124.768 9.195C124.703 9.15956 124.628 9.14538 124.556 9.13593C124.259 9.09813 123.961 9.08632 123.661 9.08632C123.486 9.08632 123.344 9.08632 123.2 9.07923C122.519 9.07214 121.851 9.07214 121.208 9.09577C120.963 9.11703 120.762 9.08868 120.558 9.25642C120.325 9.44779 120.248 9.75019 120.128 10.0101C120.097 10.1117 120.056 10.2203 120.018 10.3219L119.939 10.5322C119.891 10.6574 119.852 10.7826 119.804 10.8984C119.264 12.2096 118.686 13.5539 118.122 14.8509C118.119 14.858 118.114 14.8675 118.112 14.8746C117.954 15.2384 117.793 15.6022 117.634 15.9661C117.534 16.1952 117.433 16.4267 117.332 16.6559C117.243 16.8567 117.152 17.0835 117.013 17.256C116.95 17.334 116.852 17.4096 116.744 17.4025C116.677 17.3977 116.617 17.3647 116.569 17.3198C116.293 17.0623 116.185 16.6441 116.043 16.311C115.827 15.8054 115.609 15.2998 115.39 14.7942C115.27 14.5154 115.15 14.239 115.033 13.9602C114.692 13.1546 114.351 12.3514 114.017 11.5457C113.842 11.1394 113.677 10.7425 113.509 10.3361L113.35 9.92975C113.266 9.71003 113.194 9.40999 112.99 9.26351C112.839 9.15247 112.645 9.15247 112.465 9.14302C112.253 9.13121 112.042 9.12176 111.831 9.11231C111.32 9.08868 110.808 9.07214 110.297 9.06269C109.904 9.06269 109.5 9.02962 109.109 9.0745C109.025 9.08396 108.941 9.09813 108.867 9.13829C108.771 9.19263 108.704 9.2895 108.668 9.39345C108.581 9.65333 108.615 9.96519 108.608 10.2369C108.6 10.4684 108.591 10.6976 108.598 10.9291C108.605 11.2433 108.61 11.5552 108.612 11.8694C108.622 12.831 108.612 13.7925 108.605 14.7564L108.598 15.3801C108.598 15.8172 108.591 16.2543 108.591 16.7008C108.591 17.5064 108.598 18.3168 108.598 19.1366V19.387C108.615 22.0661 108.615 24.4877 108.55 26.8999C108.548 27.0298 108.548 27.1621 108.55 27.2921C108.552 27.422 108.574 27.5402 108.603 27.6677C108.612 27.7126 108.622 27.7575 108.644 27.7977C108.699 27.9016 108.826 27.9512 108.944 27.9654C109.236 28.0009 109.52 27.9654 109.81 27.9654C110.122 27.9654 110.436 27.9678 110.748 27.9701C111.185 27.9701 111.622 27.9654 112.059 27.956C112.213 27.9536 112.409 27.9678 112.522 27.8426C112.606 27.7504 112.601 27.6158 112.604 27.5C112.606 27.4008 112.609 27.3039 112.609 27.2047C112.609 26.9259 112.606 26.6448 112.597 26.366C112.597 26.2856 112.589 26.203 112.589 26.1226L112.573 25.1067C112.563 23.9963 112.549 22.8883 112.563 21.7779C112.568 21.3857 112.58 20.9935 112.592 20.6014C112.606 20.2115 112.592 19.8194 112.613 19.4319C112.623 19.2594 112.647 18.9877 112.841 18.9169C113.026 18.8507 113.182 19.009 113.264 19.1508C113.518 19.5973 113.741 20.0627 113.965 20.5258C114.013 20.6226 114.056 20.7195 114.101 20.8187C114.181 20.9959 114.241 21.1873 114.329 21.3597C114.749 22.3662 115.162 23.3348 115.575 24.3035L115.662 24.5232C115.71 24.6248 115.758 24.7334 115.796 24.8445L115.837 24.939C115.902 25.1091 115.969 25.2792 116.043 25.4446C116.108 25.5863 116.178 25.6974 116.338 25.7399C116.432 25.7635 116.528 25.7588 116.624 25.7564C116.725 25.7564 116.823 25.7493 116.924 25.7446C117.013 25.7399 117.104 25.7352 117.186 25.6974C117.272 25.6596 117.33 25.5981 117.375 25.5178C117.428 25.4233 117.476 25.3265 117.517 25.2249C117.55 25.1398 117.584 25.0548 117.62 24.9721C117.706 24.7689 117.795 24.5823 117.882 24.3932L117.922 24.2987C117.994 24.1499 118.064 23.994 118.129 23.838L118.882 22.0969C119.048 21.707 119.216 21.3078 119.382 20.9179C119.612 20.3769 119.891 19.8666 120.162 19.3469C120.231 19.2145 120.303 19.0775 120.423 18.9877C120.587 18.8673 120.767 18.8932 120.86 19.0752C120.963 19.2736 120.937 19.5571 120.939 19.7745C120.939 20.0178 120.935 20.2612 120.935 20.5045C120.935 21.244 120.944 21.9834 120.944 22.7229V23.4246C120.937 24.613 120.927 25.8722 120.903 27.0984V27.1929C120.899 27.363 120.903 27.5307 120.935 27.6984C120.947 27.7528 120.961 27.8095 120.992 27.8567C121.086 27.9961 121.249 27.989 121.398 27.989C122.31 27.9772 123.234 28.0056 124.163 27.9749C124.333 27.9749 124.501 27.9631 124.672 27.9465C124.732 27.9418 124.794 27.9347 124.844 27.904C124.902 27.8686 124.938 27.8071 124.955 27.7433C124.984 27.6347 124.972 27.5118 124.969 27.4008C124.969 27.2779 124.962 27.1527 124.955 27.0298C124.938 26.7723 124.931 26.5597 124.931 26.3636C124.892 23.9491 124.9 21.4661 124.907 19.0681L124.924 15.373L124.928 15.366Z" fill="#EFEBE7"/>
<path d="M140.93 27.363C140.541 25.7399 140.183 24.1074 139.818 22.4371L138.765 17.5986C138.63 16.9819 138.486 16.3582 138.352 15.7251L138.321 15.5833C137.98 14.0689 137.632 12.5545 137.353 11.0945C137.291 10.7968 137.233 10.5015 137.171 10.2133C137.142 10.081 137.113 9.94865 137.087 9.81635C137.049 9.63443 137.032 9.37219 136.885 9.23989C136.859 9.21627 136.828 9.19737 136.797 9.18319C136.53 9.05089 136.199 9.0816 135.911 9.08869H135.419C134.761 9.07215 134.087 9.07215 133.444 9.07215C132.46 9.07215 131.54 9.08869 130.659 9.12649C130.501 9.13358 130.333 9.12649 130.196 9.22099C130.103 9.28478 130.067 9.36983 130.038 9.47378C130.004 9.59663 129.978 9.71949 129.956 9.8447L129.939 9.9392C129.495 12.1647 129.011 14.428 128.535 16.6134L128.504 16.7859C128.353 17.4875 128.202 18.1916 128.053 18.8932L127.808 20.032C127.674 20.6321 127.547 21.2487 127.419 21.8748L127.388 22.0543C127.071 23.5616 126.754 25.1067 126.38 26.5668C126.332 26.7534 126.289 26.9424 126.25 27.1338C126.214 27.3181 126.169 27.5118 126.186 27.6985C126.188 27.7315 126.195 27.767 126.207 27.7977C126.238 27.8756 126.313 27.93 126.392 27.956C126.471 27.982 126.546 27.9725 126.625 27.9749C126.973 27.9938 127.328 27.9772 127.679 27.9772C128.051 27.9772 128.42 27.9772 128.792 27.9772C128.987 27.9772 129.179 27.9701 129.373 27.9607C129.486 27.956 129.599 27.9442 129.711 27.93C129.776 27.9205 129.843 27.9111 129.901 27.8804C129.98 27.8402 130.035 27.767 130.074 27.689C130.115 27.6063 130.117 27.5236 130.143 27.4362C130.206 27.2259 130.247 27.0157 130.285 26.8125C130.316 26.64 130.347 26.5148 130.371 26.3825L130.395 26.2809C130.427 26.1297 130.47 25.9785 130.501 25.8273C130.554 25.5674 130.595 25.2178 130.811 25.0335C130.945 24.9201 131.127 24.8894 131.303 24.8681C131.867 24.7996 132.438 24.8043 133.004 24.8043C133.535 24.8043 134.077 24.7925 134.612 24.8043C134.886 24.8114 135.162 24.8256 135.436 24.8516C135.736 24.8799 136.129 24.8516 136.357 25.0831C136.461 25.1871 136.494 25.3146 136.533 25.4493C136.583 25.6194 136.626 25.7895 136.665 25.962C136.739 26.3069 136.797 26.6542 136.873 26.9968L136.921 27.2307C136.943 27.3441 136.969 27.4575 136.996 27.5709C137.013 27.6394 137.029 27.7103 137.08 27.7646C137.13 27.8189 137.183 27.8662 137.257 27.8898C137.397 27.9347 137.56 27.9276 137.704 27.9323C137.869 27.9394 138.035 27.9442 138.198 27.9465C138.796 27.9607 139.391 27.9465 139.989 27.9489C140.133 27.9489 140.279 27.9489 140.423 27.9489C140.553 27.9489 140.682 27.9583 140.807 27.9229C140.855 27.9087 140.901 27.8875 140.932 27.8497C141.035 27.7244 140.956 27.4929 140.925 27.3559L140.93 27.363ZM135.431 20.4856C135.445 20.5541 135.462 20.6226 135.46 20.6935C135.46 20.9038 135.275 20.9912 135.08 20.9959C134.85 21.0006 134.62 20.9936 134.389 20.9888C133.628 20.977 132.865 20.9888 132.104 20.9699C131.838 20.9628 131.651 20.9227 131.634 20.6344C131.622 20.4313 131.675 20.2328 131.711 20.0344C131.776 19.6847 131.876 19.3445 131.944 18.9948C132.061 18.3829 132.236 17.7829 132.373 17.1757C132.436 16.8945 132.493 16.6205 132.548 16.3488C132.712 15.5432 132.872 14.7304 133.129 13.9484C133.18 13.7925 133.228 13.6248 133.345 13.5043C133.386 13.4618 133.439 13.4263 133.496 13.4121C133.84 13.3318 133.94 13.8469 134.008 14.0666C134.353 15.2148 134.555 16.4079 134.809 17.5773C134.824 17.6482 134.843 17.7191 134.855 17.7923C134.879 17.9341 134.917 18.0805 134.951 18.2128C135.006 18.4302 135.061 18.6499 135.109 18.8767C135.126 18.9618 135.14 19.0492 135.157 19.1271L135.181 19.2594C135.277 19.6611 135.34 20.0674 135.431 20.4832V20.4856Z" fill="#EFEBE7"/>
<path d="M44.2764 21.9649L44.1299 21.8254C43.7587 21.4682 43.3369 21.0621 42.799 20.9153C42.6474 20.8737 42.5161 20.8615 42.3949 20.8762C42.2585 20.8933 42.1323 20.9447 42.0262 20.9911C41.4832 21.2285 41.0059 21.5808 40.5437 21.9184C40.2785 22.1141 40.0033 22.3147 39.7204 22.4909C39.1471 22.8481 38.5334 23.1735 37.9425 23.4866L37.7657 23.5796C36.8211 24.0787 36.0408 24.4677 35.3134 24.8078C34.3133 25.2751 33.4724 25.62 32.6743 25.894C32.0429 26.1118 31.3686 26.2904 30.6766 26.4225L30.6009 26.4372C29.8761 26.5791 28.977 26.7552 28.5022 26.1485C28.386 25.9992 28.3153 25.8206 28.2673 25.6812C28.0905 25.1699 28.0249 24.6169 28.0754 24.0787C28.1057 23.7557 28.1916 23.5527 28.3456 23.4401C28.5628 23.2836 28.8937 23.1784 29.3609 23.1221C29.7346 23.0756 30.1766 23.0169 30.6186 22.9435C31.3004 22.8285 31.9949 22.6524 32.6844 22.4224C34.0886 21.9526 35.4826 21.2603 36.8338 20.3648C38.8971 18.9972 40.7129 17.221 42.0843 15.2295C42.3393 14.7842 42.2004 14.312 41.7029 13.9646C40.766 13.3995 40.0007 13.0472 39.2885 12.8515C38.8542 12.7781 38.4753 12.9273 38.0662 13.3383C37.7682 13.6637 37.4778 13.9989 37.2 14.3218C36.6444 14.9653 36.0711 15.6307 35.4119 16.2277C34.1517 17.4241 32.4192 18.0846 30.7347 18.618L30.664 18.6424C29.7069 18.9605 28.3961 19.3984 27.9112 18.3464C27.5501 17.4192 27.5703 16.695 27.9718 16.1934C28.184 15.9292 28.5047 15.7262 28.9315 15.5891C29.1134 15.5304 29.2977 15.4742 29.4796 15.4179C30.0023 15.2564 30.5428 15.0925 31.0529 14.8576C31.6616 14.5787 32.2677 14.2044 32.8536 13.7469C33.8057 13.0031 34.7048 12.0563 35.6847 10.7645C35.912 10.4636 36.0913 10.1896 36.2327 9.92293C36.2984 9.80304 36.3691 9.66604 36.4095 9.51924C36.4625 9.33086 36.4423 9.15715 36.3539 9.00302C36.2782 8.87091 36.1544 8.76081 36.0029 8.68741C35.9423 8.6605 35.8791 8.63848 35.8135 8.61646C35.5129 8.51616 35.2074 8.42808 34.9094 8.34245C34.7806 8.30575 34.6518 8.26905 34.523 8.22991C34.4093 8.19566 34.2957 8.15896 34.182 8.11981C33.9269 8.03418 33.6618 7.94611 33.3941 7.90696C33.0329 7.85069 32.7071 7.9877 32.543 8.25927C31.7449 9.57796 30.9065 10.5199 29.2068 11.1389C28.6512 11.3175 28.2244 11.2954 27.9365 11.0801C27.2748 10.5835 27.3758 9.09599 27.4491 8.00972C27.4718 7.66965 27.4945 7.34915 27.492 7.09715C27.5046 6.68124 27.3076 6.36074 26.9414 6.19682C26.7445 6.1063 26.5298 6.07449 26.3278 6.05003C25.858 5.99376 25.3807 5.98642 24.9059 6.02067C24.517 6.04758 24.0775 6.11608 23.772 6.41212C23.5699 6.60784 23.4512 6.89164 23.4108 7.27331C23.383 7.54487 23.3527 7.86782 23.3502 8.17364C23.3199 8.40851 23.3224 8.69965 23.3224 9.00791C23.3224 9.76879 23.3275 10.6275 22.8981 11.0288C22.7214 11.1951 22.484 11.2734 22.1784 11.2563C20.4636 11.0116 19.264 9.48744 18.2664 8.07088C17.6148 7.3149 16.5491 7.84091 15.9707 8.12471C15.8546 8.18832 15.7232 8.24948 15.5919 8.31065C15.1575 8.51126 14.6651 8.74124 14.5262 9.18162C14.458 9.39936 14.5337 9.72475 14.761 10.1725C14.862 10.3706 14.9883 10.559 15.1121 10.7376C15.1702 10.8257 15.2308 10.9138 15.2863 11.0019C15.5793 11.4643 15.9177 11.9046 16.2915 12.3157C16.4102 12.4453 16.5213 12.5774 16.6324 12.712C16.8142 12.9273 17.0011 13.1524 17.2158 13.3554C17.8623 13.9646 18.6907 14.498 19.6756 14.9408C20.3878 15.2589 21.1707 15.5255 22.0066 15.7335C22.4335 15.8265 22.7845 16.147 22.9966 16.6338C23.2795 17.2846 23.2618 18.114 22.9663 18.5862C22.6102 18.9434 22.0774 18.9629 21.6884 18.9165C21.3096 18.87 20.9232 18.7672 20.5469 18.6694C20.3676 18.6229 20.1883 18.5739 20.0115 18.5348C19.7085 18.4638 19.413 18.3513 19.1251 18.2412C18.9937 18.1898 18.8599 18.1409 18.726 18.0944C18.2891 17.9403 17.8547 17.7543 17.438 17.5415C15.698 16.651 14.112 15.2197 12.8568 13.4019C12.6952 13.1695 12.4275 12.871 12.0512 12.7732C11.6572 12.6753 11.2708 12.827 10.9273 12.964L10.8793 12.9836C10.5132 13.1279 10.1419 13.2967 9.77571 13.4876C9.4575 13.6515 9.19485 13.8301 8.97766 14.0307C8.54075 14.4295 8.50792 14.9457 8.88927 15.5158C9.28324 16.1103 9.79592 16.6363 10.2909 17.1452C10.45 17.3091 10.6091 17.473 10.7632 17.6369C12.1269 19.0926 13.8392 20.3208 15.847 21.2823C17.6956 22.1679 19.6352 22.7624 21.6127 23.0487C21.7086 23.0634 21.8046 23.0707 21.8955 23.0756C22.1026 23.0927 22.2971 23.105 22.4915 23.2028C22.7668 23.3374 22.9815 23.5527 23.0977 23.8096C23.2012 24.0347 23.234 24.2842 23.2593 24.5215C23.2845 24.7637 23.3047 25.0059 23.3148 25.2408C23.3275 25.5222 23.3325 25.8476 23.2138 26.124C22.9714 26.6892 22.3501 26.6305 21.749 26.5717C21.6708 26.5644 21.595 26.5571 21.5192 26.5497C20.9914 26.5081 20.4585 26.3711 19.9408 26.2366C19.7716 26.1925 19.6024 26.1485 19.4433 26.1118C16.4809 25.1503 13.0942 23.861 10.4222 21.5954C9.49538 20.7807 8.37912 20.0981 7.13405 21.204C6.40419 21.7569 6.03294 22.2707 6.00264 22.7796C5.97991 23.1441 6.13901 23.4915 6.4749 23.8145C7.59874 24.9081 8.84886 25.6934 10.1722 26.5228C10.493 26.7234 10.8162 26.9265 11.1471 27.1393C15.3444 29.6495 20.36 31 25.1888 31C26.6611 31 28.1183 30.8752 29.5301 30.6183C29.9064 30.5498 30.2827 30.4911 30.6615 30.4324C31.1792 30.3517 31.7171 30.2685 32.2424 30.1608C33.1415 29.9749 34.0078 29.7571 34.821 29.5125C36.5307 28.9938 38.1369 28.3088 39.5916 27.4745C40.1952 27.1271 40.7862 26.7405 41.3569 26.3662L41.7989 26.0775C42.0312 25.9258 42.2636 25.7742 42.4909 25.6176C43.0187 25.253 43.5112 24.864 43.9658 24.4995C44.188 24.3209 44.39 24.1178 44.587 23.9221L44.6502 23.8585C44.7209 23.7876 44.7992 23.7068 44.8598 23.6114C44.9153 23.5184 44.9557 23.423 44.9734 23.3252C45.077 22.8114 44.6451 22.3245 44.2587 21.9575L44.2764 21.9649Z" stroke="#E47249" stroke-width="12" stroke-linejoin="round" mask="url(#path-1-outside-1_1089_111)"/>
<path d="M55.0035 27.6347C54.5811 27.0747 54.4251 25.6052 54.2691 24.8658C53.9283 23.2498 53.5851 21.6338 53.2442 20.0178C52.901 18.3995 52.5554 16.7835 52.2074 15.1651C52.0346 14.369 51.845 13.5752 51.6698 12.779C51.497 11.9993 51.3817 11.2102 51.2209 10.4306C51.1729 10.2014 51.1225 9.97464 51.0889 9.74547C51.0649 9.57064 51.0889 9.34384 51.2473 9.23752C51.4058 9.13121 51.6098 9.10286 51.7946 9.0816C52.2482 9.02726 52.7138 9.04616 53.1722 9.03907C53.4219 9.03671 53.6691 9.02253 53.9187 9.02253C54.1371 9.02253 54.3555 9.03671 54.5763 9.03671C54.8931 9.03671 55.2795 9.04379 55.522 9.25642C55.6756 9.39109 55.7668 9.62734 55.8316 9.81634C55.8964 10.0101 55.9492 10.2062 55.9948 10.4046C56.0956 10.8275 56.1724 11.2575 56.2492 11.6851C56.278 11.841 56.3044 11.9993 56.338 12.1553C56.4652 12.7554 57.1444 16.2165 57.3172 16.4764C57.5213 16.1669 58.8101 11.1866 58.9469 10.4424C59.0189 10.055 59.1197 9.70531 59.331 9.36746C59.4534 9.17137 59.6646 9.09105 59.8902 9.0816C60.0702 9.07451 60.255 9.05561 60.435 9.05324C60.6414 9.05324 60.8478 9.06506 61.0542 9.06506C61.4767 9.06506 61.3303 9.06033 61.7551 9.05797C62.0143 9.05797 62.2783 9.07215 62.5279 9.14066C62.7775 9.20917 62.8759 9.30367 62.9575 9.54701C63.1615 10.1518 63.2432 10.7637 63.3632 11.3851C63.4736 11.9592 64.6208 16.2118 64.748 16.3889C64.8776 16.5638 65.0672 15.4676 65.0816 15.4038C65.4273 13.7405 65.8089 12.1104 66.1209 10.4401C66.1737 10.1518 66.2217 9.85651 66.3057 9.57537C66.3489 9.42889 66.4089 9.26823 66.5433 9.17846C66.6681 9.09341 66.8289 9.08396 66.9753 9.0816C67.3594 9.07215 67.7506 9.0627 68.1346 9.0816C68.2522 9.08632 68.3698 9.08868 68.4874 9.08868C69.025 9.08868 69.5651 9.07923 70.1027 9.09104C70.2779 9.09577 70.4819 9.08396 70.6523 9.13593C71.3652 9.35329 70.8683 10.6031 70.7435 11.0779C70.2587 12.9538 69.8627 15.0045 69.4451 16.9134C68.7994 19.8642 68.1178 22.8363 67.5034 25.7919C67.4458 26.0683 67.4122 26.3518 67.3594 26.6282C67.3018 26.9283 67.2082 27.2236 67.1073 27.5118C67.0089 27.793 66.7929 27.9489 66.4953 27.9701C65.6553 28.0292 64.7912 28.0528 63.9512 27.9701C63.9392 27.9701 63.9248 27.9678 63.9128 27.9654C63.7784 27.9512 63.6488 27.9418 63.5384 27.8591C63.4616 27.8024 63.3992 27.7292 63.356 27.6488C63.3128 27.5685 63.2816 27.4811 63.2576 27.3984C63.2456 27.3582 63.2263 27.3181 63.2167 27.2756C63.1711 27.0629 63.1231 26.8479 63.0679 26.6353C62.8615 25.8557 62.6911 25.076 62.5063 24.294C62.3695 23.7176 62.2375 23.1411 62.1031 22.5646C61.9783 22.026 61.9231 21.3054 61.7935 20.7667C61.7767 20.6982 61.7503 20.6274 61.7023 20.573C61.6495 20.514 61.5943 20.4951 61.5175 20.4809C61.3159 20.4431 61.0974 20.4572 60.8934 20.462C60.7686 20.4643 60.6318 20.4738 60.531 20.5541C60.4278 20.6368 60.3894 20.7691 60.3582 20.8896C60.2046 21.5204 60.0102 22.3118 59.8902 22.9497C59.7582 23.6396 59.6022 24.3271 59.4222 25.0075C59.3238 25.3784 59.2277 25.7493 59.1485 26.125C59.0621 26.5361 58.9973 26.9495 58.8509 27.3488C58.7837 27.5307 58.6781 27.7977 58.4789 27.8827C58.2797 27.9678 57.9389 27.9323 57.7109 27.9418C57.0604 27.9725 56.806 27.9465 56.1556 27.956C55.7716 27.9631 55.2627 27.982 55.0011 27.637L55.0035 27.6347Z" stroke="#E47249" stroke-width="12" stroke-linejoin="round" mask="url(#path-1-outside-1_1089_111)"/>
<path d="M79.0628 22.997C79.0628 19.1531 79.0892 15.288 79.0628 11.4441C79.058 10.9362 78.9068 9.63914 79.2572 9.29657C79.6197 8.94455 80.6445 9.1052 81.2205 9.09811C81.7918 9.09103 82.9414 8.88548 83.1862 9.48084C83.3398 9.85649 83.251 12.1151 83.251 12.6939C83.251 15.3848 83.287 18.1278 83.2486 20.814C83.2438 21.1164 83.2198 21.4211 83.2102 21.7236C83.1958 22.1323 83.2198 22.7253 83.2198 23.134C83.2198 23.271 83.2438 23.401 83.2486 23.538C83.2534 23.6656 83.2582 23.8168 83.3566 23.9136C83.4694 24.0247 83.6351 24.0412 83.7863 24.0483C83.9519 24.0554 84.1103 24.0743 84.2783 24.0743C84.6983 24.0743 85.1159 24.0743 85.5359 24.0719C86.3688 24.0719 87.2088 24.0979 88.0417 24.0648C88.3873 24.0507 88.8865 24.0176 89.1673 24.2704C89.3161 24.4074 89.3594 24.6106 89.3762 24.802C89.4146 25.2012 89.3929 25.4138 89.3833 25.8155C89.3761 26.1746 89.3977 26.5337 89.3953 26.8952C89.3953 27.1645 89.3809 27.5331 89.1817 27.7457C88.9969 27.9418 88.5241 27.9229 88.2769 27.9205C87.7153 27.9134 87.1584 27.937 86.5968 27.9276C85.7616 27.9111 84.9287 27.9111 84.0935 27.9158C83.1862 27.9205 82.2814 27.93 81.3741 27.93C80.8029 27.93 79.8717 28.0575 79.4612 27.8473C78.8396 27.5307 79.0484 26.236 79.0604 25.6241C79.0772 24.7547 79.0652 23.8687 79.0652 22.9993L79.0628 22.997Z" stroke="#E47249" stroke-width="12" stroke-linejoin="round" mask="url(#path-1-outside-1_1089_111)"/>
<path d="M95.8944 27.9064C95.34 27.9607 94.7832 27.9631 94.2288 27.9891C93.6479 28.0174 93.0647 27.9513 92.4815 27.9607C92.1815 27.9654 91.8526 27.9465 91.5646 27.8591C91.1998 27.7481 91.0126 27.4929 90.9526 27.1291C90.8614 26.5739 90.931 25.9833 90.9454 25.4233C90.9958 23.2073 90.955 20.8967 90.9574 18.6735C90.9574 16.1574 90.9838 13.639 90.9166 11.1228C90.8518 8.71069 91.5262 9.16666 93.5159 9.02018C99.0026 8.61146 102.428 11.0331 103.157 16.637C103.239 17.2985 103.26 17.9152 103.26 18.5814C103.179 23.5073 101.24 27.3842 95.8944 27.9064ZM95.196 24.1027C96.7321 23.9019 99.1658 22.2882 99.197 18.546C99.2258 15.073 97.0849 13.3295 95.196 13.1003V24.1027Z" stroke="#E47249" stroke-width="12" stroke-linejoin="round" mask="url(#path-1-outside-1_1089_111)"/>
<path d="M76.5113 9.35091C76.6338 9.48793 76.641 9.66276 76.6602 9.84468C76.6818 10.0479 76.6937 10.2487 76.6937 10.4613C76.6937 12.486 76.6433 14.5083 76.6458 16.533C76.6458 19.5382 76.6073 22.5906 76.6506 25.591C76.6578 26.1179 76.8378 27.5094 76.3697 27.8142C75.9713 28.0056 75.4673 27.9701 75.0377 27.9772C74.5096 27.9867 73.9816 27.9843 73.4536 27.9772C73.1896 27.9725 72.9088 27.9607 72.6927 27.8118C72.4887 27.6724 72.3735 27.4338 72.3351 27.1905C72.2607 26.7274 72.3255 26.184 72.3231 25.7115C72.3231 24.4287 72.3807 23.1482 72.3903 21.8653C72.3999 20.3438 72.3903 18.8247 72.3903 17.3103C72.3903 16.8827 72.4167 16.4574 72.4167 16.0298C72.4167 15.6802 72.3879 15.3352 72.3999 14.9856C72.4191 14.3973 72.3711 13.8327 72.3711 13.2444C72.3711 12.838 72.4119 12.4317 72.4119 12.0229C72.4119 11.5575 72.4287 11.0992 72.4527 10.6361C72.4647 10.3999 72.4719 10.1542 72.4983 9.91792C72.5127 9.78798 72.5415 9.64386 72.5919 9.52101C72.6855 9.28711 72.9496 9.12883 73.1992 9.11701C73.6072 9.09811 74.0176 9.1052 74.4256 9.10284C74.8601 9.10284 75.2921 9.09811 75.7265 9.1052C75.9905 9.10992 76.2737 9.13119 76.4777 9.3131C76.4921 9.32492 76.5041 9.33909 76.5161 9.35091H76.5113Z" stroke="#E47249" stroke-width="12" stroke-linejoin="round" mask="url(#path-1-outside-1_1089_111)"/>
<path d="M148.059 9.10521C148.551 9.10521 149.043 9.09813 149.535 9.08868C150.113 9.07923 150.692 9.08868 151.27 9.07686C151.46 9.07214 151.664 9.09576 151.81 9.21153C151.973 9.34147 152.036 9.55882 152.062 9.76436C152.136 10.2936 152.074 10.837 152.074 11.3685C152.074 11.6946 152.043 12.023 152.04 12.3466C152.04 12.5049 152.031 12.6656 152.024 12.8239C152.019 12.9396 152.012 13.0601 151.959 13.1641C151.834 13.4169 151.457 13.4098 151.215 13.4121C150.511 13.4145 149.791 13.4617 149.091 13.4287C148.882 13.4192 148.637 13.4263 148.438 13.4547C148.299 13.4759 148.107 13.5043 147.999 13.5988C147.847 13.7358 147.874 14.0217 147.874 14.2059C147.874 14.3406 147.879 14.4776 147.886 14.6123C147.898 14.8297 147.867 15.0565 147.867 15.2762C147.867 15.6943 147.898 16.1102 147.898 16.5283C147.898 19.5335 147.859 22.5859 147.903 25.5863C147.91 26.1132 148.09 27.5047 147.622 27.8095C147.223 28.0008 146.719 27.9654 146.29 27.9725C145.762 27.9819 145.234 27.9796 144.706 27.9725C144.442 27.9678 144.161 27.956 143.945 27.8071C143.741 27.6677 143.626 27.4291 143.587 27.1858C143.513 26.7227 143.578 26.1793 143.575 25.7068C143.575 24.424 143.633 23.1435 143.642 21.8606C143.652 20.3391 143.642 18.82 143.642 17.3056C143.642 16.878 143.669 16.4527 143.669 16.0251C143.669 15.6755 143.64 15.3305 143.652 14.9809C143.664 14.6147 143.652 14.2437 143.551 13.8894C143.395 13.3413 142.91 13.4027 142.425 13.3814C141.871 13.3554 141.314 13.4003 140.76 13.3767C140.405 13.3602 139.939 13.4736 139.658 13.1948C139.5 13.0388 139.483 12.7246 139.471 12.5096C139.442 12.0017 139.401 11.5032 139.401 10.9929C139.401 10.7755 139.418 10.5653 139.425 10.3503C139.433 10.1187 139.452 9.88485 139.509 9.66041C139.622 9.22334 140.102 9.11939 140.505 9.10049C140.959 9.07922 141.422 9.11466 141.876 9.11466C142.913 9.11466 143.95 9.10285 144.986 9.10285C146.011 9.10285 147.036 9.10285 148.061 9.10285L148.059 9.10521Z" stroke="#E47249" stroke-width="12" stroke-linejoin="round" mask="url(#path-1-outside-1_1089_111)"/>
<path d="M153.432 23.1529V13.8776C153.432 12.7861 153.442 11.7087 153.403 10.6149C153.389 10.218 153.365 9.69112 153.641 9.36273C153.862 9.09576 154.246 9.06977 154.57 9.06269C155.792 9.0367 156.696 9.08867 157.92 9.08867C158.492 9.08867 159.056 9.05796 159.627 9.05796C160.136 9.05796 160.649 9.05796 161.161 9.07686C161.744 9.10049 162.322 9.08159 162.903 9.07686C163.304 9.0745 163.798 9.01544 164.185 9.13593C164.862 9.34619 164.758 10.329 164.727 10.8653C164.708 11.2079 164.71 11.5528 164.718 11.8977C164.722 12.2072 164.773 12.5569 164.713 12.8617C164.684 13.0081 164.61 13.1523 164.485 13.2326C164.365 13.3105 164.216 13.3224 164.074 13.3318C163.465 13.372 162.85 13.372 162.238 13.3696C161.657 13.3649 161.062 13.3129 160.486 13.3531C160.145 13.3767 159.793 13.346 159.449 13.3507C159.106 13.3554 158.739 13.372 158.386 13.4121C158.057 13.4476 157.673 13.5303 157.52 13.8563C157.443 14.0217 157.424 14.2178 157.412 14.3973C157.404 14.4871 157.397 14.5745 157.397 14.6643C157.397 14.8344 157.385 14.9998 157.39 15.1699C157.402 15.4983 157.431 15.8574 157.527 16.1716C157.568 16.3062 157.644 16.4315 157.779 16.4976C157.947 16.5779 158.151 16.5898 158.333 16.611C158.96 16.6772 159.615 16.6157 160.253 16.6205C160.892 16.6252 161.569 16.637 162.226 16.637C162.536 16.637 162.889 16.611 162.966 16.9725C163.033 17.2867 162.978 17.634 162.97 17.9529C162.961 18.3853 162.982 18.8176 162.982 19.2523C162.982 19.5406 163.011 19.8595 162.922 20.1383C162.874 20.2871 162.723 20.3509 162.579 20.3887C162.421 20.4312 162.257 20.4407 162.092 20.4407C161.667 20.4407 161.245 20.4525 160.82 20.4525C160.292 20.4525 159.761 20.4407 159.233 20.436C158.984 20.436 158.727 20.4171 158.48 20.4407C158.309 20.4572 158.12 20.4502 157.954 20.5045C157.8 20.5541 157.683 20.6722 157.604 20.8069C157.512 20.9605 157.488 21.0668 157.481 21.2463C157.46 21.6834 157.385 22.1606 157.443 22.5953C157.464 22.7654 157.481 23.1907 157.556 23.349C157.695 23.6372 158.076 23.6845 158.362 23.6987C158.813 23.7223 159.267 23.7365 159.718 23.7459C160.671 23.7648 161.624 23.7341 162.577 23.7341C162.906 23.7294 163.234 23.7246 163.563 23.7128C165.135 23.6609 165.018 23.9467 164.984 25.3548C164.972 25.8793 165.054 27.0818 164.936 27.4409C164.866 27.6488 164.619 27.7693 164.413 27.8C163.458 27.9323 162.5 27.8898 161.537 27.8922C161.444 27.8922 161.353 27.8922 161.259 27.8993C160.421 27.9371 159.569 27.9063 158.729 27.9111C157.848 27.9158 156.968 27.9229 156.087 27.9229C155.561 27.9229 154.327 28.015 153.948 27.8804C153.183 27.611 153.418 26.288 153.432 25.617C153.449 24.7996 153.437 23.968 153.437 23.1482L153.432 23.1529Z" stroke="#E47249" stroke-width="12" stroke-linejoin="round" mask="url(#path-1-outside-1_1089_111)"/>
<path d="M124.928 15.366V11.867L124.936 11.6946C124.936 11.1724 124.952 10.6314 124.96 10.1022C124.962 9.88958 125 9.66278 124.948 9.45487C124.921 9.35092 124.861 9.24934 124.768 9.195C124.703 9.15956 124.628 9.14538 124.556 9.13593C124.259 9.09813 123.961 9.08632 123.661 9.08632C123.486 9.08632 123.344 9.08632 123.2 9.07923C122.519 9.07214 121.851 9.07214 121.208 9.09577C120.963 9.11703 120.762 9.08868 120.558 9.25642C120.325 9.44779 120.248 9.75019 120.128 10.0101C120.097 10.1117 120.056 10.2203 120.018 10.3219L119.939 10.5322C119.891 10.6574 119.852 10.7826 119.804 10.8984C119.264 12.2096 118.686 13.5539 118.122 14.8509C118.119 14.858 118.114 14.8675 118.112 14.8746C117.954 15.2384 117.793 15.6022 117.634 15.9661C117.534 16.1952 117.433 16.4267 117.332 16.6559C117.243 16.8567 117.152 17.0835 117.013 17.256C116.95 17.334 116.852 17.4096 116.744 17.4025C116.677 17.3977 116.617 17.3647 116.569 17.3198C116.293 17.0623 116.185 16.6441 116.043 16.311C115.827 15.8054 115.609 15.2998 115.39 14.7942C115.27 14.5154 115.15 14.239 115.033 13.9602C114.692 13.1546 114.351 12.3514 114.017 11.5457C113.842 11.1394 113.677 10.7425 113.509 10.3361L113.35 9.92975C113.266 9.71003 113.194 9.40999 112.99 9.26351C112.839 9.15247 112.645 9.15247 112.465 9.14302C112.253 9.13121 112.042 9.12176 111.831 9.11231C111.32 9.08868 110.808 9.07214 110.297 9.06269C109.904 9.06269 109.5 9.02962 109.109 9.0745C109.025 9.08396 108.941 9.09813 108.867 9.13829C108.771 9.19263 108.704 9.2895 108.668 9.39345C108.581 9.65333 108.615 9.96519 108.608 10.2369C108.6 10.4684 108.591 10.6976 108.598 10.9291C108.605 11.2433 108.61 11.5552 108.612 11.8694C108.622 12.831 108.612 13.7925 108.605 14.7564L108.598 15.3801C108.598 15.8172 108.591 16.2543 108.591 16.7008C108.591 17.5064 108.598 18.3168 108.598 19.1366V19.387C108.615 22.0661 108.615 24.4877 108.55 26.8999C108.548 27.0298 108.548 27.1621 108.55 27.2921C108.552 27.422 108.574 27.5402 108.603 27.6677C108.612 27.7126 108.622 27.7575 108.644 27.7977C108.699 27.9016 108.826 27.9512 108.944 27.9654C109.236 28.0009 109.52 27.9654 109.81 27.9654C110.122 27.9654 110.436 27.9678 110.748 27.9701C111.185 27.9701 111.622 27.9654 112.059 27.956C112.213 27.9536 112.409 27.9678 112.522 27.8426C112.606 27.7504 112.601 27.6158 112.604 27.5C112.606 27.4008 112.609 27.3039 112.609 27.2047C112.609 26.9259 112.606 26.6448 112.597 26.366C112.597 26.2856 112.589 26.203 112.589 26.1226L112.573 25.1067C112.563 23.9963 112.549 22.8883 112.563 21.7779C112.568 21.3857 112.58 20.9935 112.592 20.6014C112.606 20.2115 112.592 19.8194 112.613 19.4319C112.623 19.2594 112.647 18.9877 112.841 18.9169C113.026 18.8507 113.182 19.009 113.264 19.1508C113.518 19.5973 113.741 20.0627 113.965 20.5258C114.013 20.6226 114.056 20.7195 114.101 20.8187C114.181 20.9959 114.241 21.1873 114.329 21.3597C114.749 22.3662 115.162 23.3348 115.575 24.3035L115.662 24.5232C115.71 24.6248 115.758 24.7334 115.796 24.8445L115.837 24.939C115.902 25.1091 115.969 25.2792 116.043 25.4446C116.108 25.5863 116.178 25.6974 116.338 25.7399C116.432 25.7635 116.528 25.7588 116.624 25.7564C116.725 25.7564 116.823 25.7493 116.924 25.7446C117.013 25.7399 117.104 25.7352 117.186 25.6974C117.272 25.6596 117.33 25.5981 117.375 25.5178C117.428 25.4233 117.476 25.3265 117.517 25.2249C117.55 25.1398 117.584 25.0548 117.62 24.9721C117.706 24.7689 117.795 24.5823 117.882 24.3932L117.922 24.2987C117.994 24.1499 118.064 23.994 118.129 23.838L118.882 22.0969C119.048 21.707 119.216 21.3078 119.382 20.9179C119.612 20.3769 119.891 19.8666 120.162 19.3469C120.231 19.2145 120.303 19.0775 120.423 18.9877C120.587 18.8673 120.767 18.8932 120.86 19.0752C120.963 19.2736 120.937 19.5571 120.939 19.7745C120.939 20.0178 120.935 20.2612 120.935 20.5045C120.935 21.244 120.944 21.9834 120.944 22.7229V23.4246C120.937 24.613 120.927 25.8722 120.903 27.0984V27.1929C120.899 27.363 120.903 27.5307 120.935 27.6984C120.947 27.7528 120.961 27.8095 120.992 27.8567C121.086 27.9961 121.249 27.989 121.398 27.989C122.31 27.9772 123.234 28.0056 124.163 27.9749C124.333 27.9749 124.501 27.9631 124.672 27.9465C124.732 27.9418 124.794 27.9347 124.844 27.904C124.902 27.8686 124.938 27.8071 124.955 27.7433C124.984 27.6347 124.972 27.5118 124.969 27.4008C124.969 27.2779 124.962 27.1527 124.955 27.0298C124.938 26.7723 124.931 26.5597 124.931 26.3636C124.892 23.9491 124.9 21.4661 124.907 19.0681L124.924 15.373L124.928 15.366Z" stroke="#E47249" stroke-width="12" stroke-linejoin="round" mask="url(#path-1-outside-1_1089_111)"/>
<path d="M140.93 27.363C140.541 25.7399 140.183 24.1074 139.818 22.4371L138.765 17.5986C138.63 16.9819 138.486 16.3582 138.352 15.7251L138.321 15.5833C137.98 14.0689 137.632 12.5545 137.353 11.0945C137.291 10.7968 137.233 10.5015 137.171 10.2133C137.142 10.081 137.113 9.94865 137.087 9.81635C137.049 9.63443 137.032 9.37219 136.885 9.23989C136.859 9.21627 136.828 9.19737 136.797 9.18319C136.53 9.05089 136.199 9.0816 135.911 9.08869H135.419C134.761 9.07215 134.087 9.07215 133.444 9.07215C132.46 9.07215 131.54 9.08869 130.659 9.12649C130.501 9.13358 130.333 9.12649 130.196 9.22099C130.103 9.28478 130.067 9.36983 130.038 9.47378C130.004 9.59663 129.978 9.71949 129.956 9.8447L129.939 9.9392C129.495 12.1647 129.011 14.428 128.535 16.6134L128.504 16.7859C128.353 17.4875 128.202 18.1916 128.053 18.8932L127.808 20.032C127.674 20.6321 127.547 21.2487 127.419 21.8748L127.388 22.0543C127.071 23.5616 126.754 25.1067 126.38 26.5668C126.332 26.7534 126.289 26.9424 126.25 27.1338C126.214 27.3181 126.169 27.5118 126.186 27.6985C126.188 27.7315 126.195 27.767 126.207 27.7977C126.238 27.8756 126.313 27.93 126.392 27.956C126.471 27.982 126.546 27.9725 126.625 27.9749C126.973 27.9938 127.328 27.9772 127.679 27.9772C128.051 27.9772 128.42 27.9772 128.792 27.9772C128.987 27.9772 129.179 27.9701 129.373 27.9607C129.486 27.956 129.599 27.9442 129.711 27.93C129.776 27.9205 129.843 27.9111 129.901 27.8804C129.98 27.8402 130.035 27.767 130.074 27.689C130.115 27.6063 130.117 27.5236 130.143 27.4362C130.206 27.2259 130.247 27.0157 130.285 26.8125C130.316 26.64 130.347 26.5148 130.371 26.3825L130.395 26.2809C130.427 26.1297 130.47 25.9785 130.501 25.8273C130.554 25.5674 130.595 25.2178 130.811 25.0335C130.945 24.9201 131.127 24.8894 131.303 24.8681C131.867 24.7996 132.438 24.8043 133.004 24.8043C133.535 24.8043 134.077 24.7925 134.612 24.8043C134.886 24.8114 135.162 24.8256 135.436 24.8516C135.736 24.8799 136.129 24.8516 136.357 25.0831C136.461 25.1871 136.494 25.3146 136.533 25.4493C136.583 25.6194 136.626 25.7895 136.665 25.962C136.739 26.3069 136.797 26.6542 136.873 26.9968L136.921 27.2307C136.943 27.3441 136.969 27.4575 136.996 27.5709C137.013 27.6394 137.029 27.7103 137.08 27.7646C137.13 27.8189 137.183 27.8662 137.257 27.8898C137.397 27.9347 137.56 27.9276 137.704 27.9323C137.869 27.9394 138.035 27.9442 138.198 27.9465C138.796 27.9607 139.391 27.9465 139.989 27.9489C140.133 27.9489 140.279 27.9489 140.423 27.9489C140.553 27.9489 140.682 27.9583 140.807 27.9229C140.855 27.9087 140.901 27.8875 140.932 27.8497C141.035 27.7244 140.956 27.4929 140.925 27.3559L140.93 27.363ZM135.431 20.4856C135.445 20.5541 135.462 20.6226 135.46 20.6935C135.46 20.9038 135.275 20.9912 135.08 20.9959C134.85 21.0006 134.62 20.9936 134.389 20.9888C133.628 20.977 132.865 20.9888 132.104 20.9699C131.838 20.9628 131.651 20.9227 131.634 20.6344C131.622 20.4313 131.675 20.2328 131.711 20.0344C131.776 19.6847 131.876 19.3445 131.944 18.9948C132.061 18.3829 132.236 17.7829 132.373 17.1757C132.436 16.8945 132.493 16.6205 132.548 16.3488C132.712 15.5432 132.872 14.7304 133.129 13.9484C133.18 13.7925 133.228 13.6248 133.345 13.5043C133.386 13.4618 133.439 13.4263 133.496 13.4121C133.84 13.3318 133.94 13.8469 134.008 14.0666C134.353 15.2148 134.555 16.4079 134.809 17.5773C134.824 17.6482 134.843 17.7191 134.855 17.7923C134.879 17.9341 134.917 18.0805 134.951 18.2128C135.006 18.4302 135.061 18.6499 135.109 18.8767C135.126 18.9618 135.14 19.0492 135.157 19.1271L135.181 19.2594C135.277 19.6611 135.34 20.0674 135.431 20.4832V20.4856Z" stroke="#E47249" stroke-width="12" stroke-linejoin="round" mask="url(#path-1-outside-1_1089_111)"/>
</svg>
