<svg width="200" height="239" viewBox="0 0 200 239" fill="none" xmlns="http://www.w3.org/2000/svg">
<path d="M87.9206 181.353C87.9206 181.353 79.0618 181.492 78.9441 174.208C68.6842 177.389 58.1068 179.568 47.4334 180.704C46.3792 180.812 44.3058 181.038 42.2665 180.492C41.2188 180.211 40.1702 179.723 39.2844 178.923C39.2448 178.972 39.1913 179.018 39.1431 179.058C38.8479 179.29 38.4646 179.375 38.0982 179.341C37.7344 179.311 37.3838 179.176 37.0604 178.995C36.5287 178.695 36.0341 178.228 35.9439 177.626C35.8865 177.224 36.0237 176.81 36.218 176.449C36.455 176.013 36.8557 175.681 37.3106 175.525C36.8597 173.564 37.2589 171.275 38.5043 168.855C40.5937 164.8 43.7533 161.572 47.0704 158.344C55.8147 149.845 65.4846 141.2 76.9343 135.499L79.5109 140.669C68.7736 146.024 59.5135 154.318 51.1012 162.489C48.0274 165.481 45.3362 168.222 43.6461 171.503C42.8565 173.034 42.7879 174.131 43.0543 174.51C43.2237 174.747 43.9304 175.263 46.8252 174.957C58.7239 173.691 70.837 169.929 82.1558 166.048L87.9276 181.355L87.9206 181.353Z" fill="#1A1A1A"/>
<path d="M87.2369 215.931C86.2536 215.9 85.2723 216.017 84.3033 216.185L83.5037 216.324L100.057 143.362C98.1663 143.396 96.2781 143.491 94.3749 143.642L77.1574 219.532L79.9643 220.213C84.3532 221.535 93.0741 224.21 93.0741 224.21C93.0741 224.21 95.5039 216.193 87.236 215.934L87.2369 215.931Z" fill="#1A1A1A"/>
<path d="M145.228 127.847C145.196 127.839 145.165 127.83 145.135 127.815C144.982 127.744 144.85 127.618 144.788 127.459L141.748 119.25C141.689 119.091 141.696 118.913 141.767 118.759C141.838 118.605 141.969 118.483 142.127 118.424C151.527 114.949 161.244 111.356 168.573 104.832C171.271 102.427 172.817 100.234 173.295 98.1278C173.653 96.6353 173.529 94.7581 172.933 92.5403C171.68 87.9946 168.807 83.4507 164.63 79.4057C163.695 78.4942 162.686 77.6044 161.547 76.6868C159.984 75.4119 158.226 74.1257 156.318 72.8635C154.659 71.7656 152.828 70.6252 150.709 69.3814C145.625 66.3929 126.104 56.0324 121.823 53.7623C121.742 53.7557 121.661 53.7341 121.585 53.6985C117.531 51.6997 116.662 48.9731 116.625 48.8581C116.549 48.68 116.471 48.4226 116.411 48.1286C115.736 44.9019 117.242 41.287 118.454 38.386L118.55 38.1562C120.348 33.8422 122.678 29.5882 125.483 25.5137C126.271 24.3655 127.038 23.3955 127.829 22.5447C128.379 21.9521 130.051 20.1543 131.85 21.0795C133.051 21.6981 133.205 23.0989 133.026 24.4254C133.568 23.9884 134.184 23.6503 134.83 23.5794C135.492 23.5052 136.103 23.7213 136.592 24.2091C137.512 25.1318 137.402 26.3716 136.986 27.4205C137.638 27.3963 138.266 27.6585 138.716 28.1544C139.255 28.7495 139.433 29.5708 139.195 30.3447C137.89 34.5693 131.885 43.7499 129.775 46.6208C133.443 48.5761 151.095 57.9892 155.239 60.4066L155.792 60.7274C157.148 61.5263 158.925 62.5883 160.72 63.7528C165.06 66.5457 168.626 69.3115 171.623 72.1988C177.088 77.4938 180.888 83.6081 182.615 89.8768C183.66 93.6684 183.818 97.1996 183.089 100.369C182.114 104.584 179.549 108.494 175.244 112.313C166.529 120.084 155.43 124.196 145.639 127.826C145.51 127.874 145.362 127.879 145.229 127.844L145.228 127.847ZM143.175 119.407L145.767 126.41C155.325 122.865 166.025 118.811 174.384 111.357C178.483 107.72 180.918 104.031 181.832 100.085C182.513 97.124 182.358 93.8076 181.37 90.2193C179.705 84.1699 176.024 78.2564 170.723 73.1216C167.789 70.2926 164.284 67.5771 160.014 64.8294C158.235 63.6767 156.474 62.6228 155.139 61.833L154.586 61.5122C149.994 58.8321 128.708 47.5065 128.494 47.3929C128.323 47.3021 128.205 47.1426 128.166 46.9518C128.126 46.7646 128.175 46.5675 128.297 46.4199C129.836 44.5302 136.639 34.2227 137.958 29.957C138.064 29.6173 137.987 29.2623 137.754 29.0085C137.525 28.7556 137.197 28.6489 136.856 28.7153C136.559 28.7746 136.244 28.8854 135.919 29.0462C135.65 29.1808 135.328 29.1093 135.138 28.8782C134.948 28.6472 134.944 28.3118 135.131 28.0765C135.147 28.0583 136.644 26.0746 135.682 25.1107C135.471 24.9004 135.246 24.8174 134.971 24.8488C134.174 24.9358 133.072 25.9212 132.162 27.356C131.985 27.639 131.617 27.7358 131.321 27.5812C131.024 27.4267 130.898 27.0699 131.029 26.7633C131.658 25.2833 132.275 22.7444 131.255 22.2196C130.625 21.8931 129.813 22.2877 128.763 23.4184C128.014 24.2241 127.287 25.1446 126.531 26.2415C123.776 30.2428 121.486 34.4174 119.724 38.6511L119.629 38.8809C118.485 41.6203 117.065 45.029 117.657 47.8653C117.701 48.0799 117.757 48.2638 117.823 48.4242C117.848 48.4986 118.601 50.7471 121.996 52.4717C122.085 52.4767 122.176 52.5012 122.262 52.5431C126.212 54.6343 146.184 65.232 151.352 68.2694C153.491 69.5258 155.342 70.6754 157.02 71.7859C158.966 73.0735 160.759 74.3839 162.352 75.6858C163.519 76.6258 164.558 77.5426 165.519 78.4835C169.861 82.6853 172.849 87.4291 174.165 92.202C174.82 94.6346 174.944 96.7221 174.538 98.4197C173.998 100.787 172.326 103.201 169.42 105.791C162.067 112.335 152.489 115.957 143.168 119.405L143.175 119.407Z" fill="#1A1A1A"/>
<path d="M126.325 44.1376C126.269 44.1226 126.211 44.0996 126.16 44.067C125.856 43.8842 125.758 43.4901 125.941 43.1861C135.067 28.0481 135.253 27.8875 135.352 27.7977C135.618 27.5646 136.024 27.5908 136.26 27.857C136.474 28.0981 136.471 28.458 136.268 28.6966C135.847 29.2861 130.539 38.0524 127.045 43.8461C126.895 44.0988 126.599 44.2073 126.329 44.135L126.325 44.1376Z" fill="#1A1A1A"/>
<path d="M122.36 43C122.303 42.9849 122.249 42.9629 122.198 42.9304C121.893 42.751 121.792 42.356 121.972 42.051L131.921 25.2409C132.101 24.936 132.496 24.8353 132.801 25.0146C133.106 25.194 133.206 25.589 133.027 25.894L123.077 42.704C122.927 42.9567 122.63 43.0687 122.36 42.9965L122.36 43Z" fill="#1A1A1A"/>
<path d="M57.8819 92.3462C57.7488 92.3105 57.6269 92.2328 57.5408 92.1196C51.3256 84.0736 44.282 74.9569 40.5878 65.0852C38.6645 59.9431 38.27 55.9354 39.3436 52.4751C40.1968 49.7255 42.0653 47.2932 44.8971 45.2465C50.9132 40.9023 58.622 40.1925 65.4195 39.5616L66.8093 39.4345C74.0214 38.7982 81.7632 38.2174 89.5235 38.3101C91.9605 38.3397 94.3453 38.3816 96.7388 38.5873C96.7862 38.5925 96.8899 38.5977 97.0271 38.6044C97.8605 38.6475 98.4907 38.6924 98.9692 38.7568L98.9626 38.725L98.9697 38.7269C98.6826 37.2191 98.6785 26.2181 100.277 21.8092C100.708 20.6215 101.235 19.8992 101.893 19.6023C102.495 19.3467 103.674 19.2908 104.743 20.3207C105.091 18.9794 105.881 17.2346 107.664 16.9724C108.605 16.8263 109.374 17.0399 109.952 17.6005C110.324 17.9631 110.596 18.464 110.773 19.1049C110.985 18.7635 111.226 18.4376 111.486 18.1542C111.956 17.6342 112.707 17.3248 113.489 17.3238C114.269 17.3264 114.996 17.6413 115.485 18.1854C115.794 18.5312 115.967 18.9529 116.105 19.3618C116.524 20.5708 116.652 21.8744 116.741 23.0022C116.861 24.5142 116.883 26.1574 116.806 28.026C116.733 29.9254 116.562 31.8549 116.295 33.7625C116.009 35.8378 115.639 37.7103 115.172 39.4931C114.649 41.4747 114.08 43.0648 113.384 44.5006C112.631 46.049 111.598 48.1646 109.413 48.7807C108.337 49.082 107.206 49.0533 106.211 49.0269C100.971 48.8886 95.7148 48.7157 90.5855 48.5168L88.2526 48.4212C84.869 48.2807 81.3702 48.1356 77.9413 48.1782C71.6757 48.2532 65.5461 48.4097 59.4476 49.4871C56.2819 50.0472 53.0064 50.7506 50.8275 52.6454C48.0574 55.0503 48.7797 58.3534 49.976 61.5694C53.1334 69.9828 63.2566 83.1357 69.3042 90.994C69.4524 91.1839 69.4892 91.4529 69.3852 91.6729C69.2821 91.8894 69.0754 92.0443 68.8333 92.0508L58.0592 92.3711C57.995 92.3727 57.9335 92.3637 57.874 92.3478L57.8819 92.3462ZM45.6513 46.2861C43.0485 48.165 41.3412 50.3739 40.5718 52.853C39.5857 56.0288 39.9759 59.7724 41.7939 64.6347C45.3802 74.2221 52.2481 83.1678 58.3582 91.073L67.5493 90.8017C61.3856 82.7883 51.8792 70.2627 48.7859 62.0167C47.4936 58.5421 46.6272 54.5994 49.9981 51.6758C52.4297 49.567 55.8943 48.8167 59.2374 48.2253C65.4338 47.1328 71.6172 46.9719 77.939 46.897C81.4014 46.8558 84.9187 47.0021 88.3182 47.1394L90.6476 47.234C95.7699 47.431 101.023 47.603 106.259 47.7404C107.21 47.766 108.19 47.7922 109.08 47.5423C110.587 47.1163 111.406 45.657 112.243 43.9359C112.903 42.5804 113.444 41.0655 113.946 39.1645C114.402 37.4352 114.759 35.6118 115.038 33.5873C115.298 31.7227 115.466 29.8337 115.539 27.9756C115.61 26.158 115.59 24.5641 115.474 23.1023C115.391 22.0547 115.275 20.8481 114.903 19.7833C114.805 19.5018 114.693 19.2201 114.538 19.0433C114.199 18.6671 113.742 18.6084 113.494 18.6095C113.077 18.6069 112.675 18.762 112.446 19.016C111.832 19.6964 111.329 20.662 111.169 21.483C111.049 22.0969 110.931 22.82 110.856 23.4197C110.811 23.7718 110.489 24.0198 110.137 23.9743C109.785 23.9288 109.537 23.607 109.582 23.2549C110 19.9868 109.439 18.8862 109.063 18.5227C108.786 18.2531 108.393 18.1629 107.865 18.2429C106.035 18.5113 105.774 21.9378 105.773 21.9712C105.756 22.2595 105.548 22.5007 105.266 22.5601C104.983 22.6196 104.697 22.4828 104.563 22.2254C103.62 20.3916 102.532 20.7384 102.408 20.7804C100.069 21.8401 99.8989 36.6324 100.213 38.3914C100.216 38.4073 100.223 38.4241 100.226 38.44L100.472 39.5388C100.548 39.871 100.35 40.2046 100.021 40.2968C99.7895 40.3624 99.5487 40.2941 99.3921 40.1357C99.1751 40.0626 98.5695 39.9679 96.9694 39.8847C96.8103 39.8758 96.6952 39.8713 96.6363 39.8667C94.2867 39.6653 91.9283 39.623 89.5178 39.593C81.8128 39.5039 74.1099 40.08 66.9321 40.7142L65.5467 40.8388C58.9123 41.4496 51.3913 42.1458 45.6593 46.2845L45.6513 46.2861Z" fill="#1A1A1A"/>
<path d="M104.098 36.8411C103.807 36.7632 103.602 36.4905 103.626 36.1776C103.992 30.6912 104.524 22.3426 104.508 21.6736C104.47 21.3517 104.684 21.0447 105.007 20.9736C105.354 20.8976 105.697 21.1172 105.773 21.4643C105.799 21.58 105.866 21.8909 104.909 36.2661C104.886 36.6203 104.581 36.888 104.227 36.8644C104.183 36.8602 104.144 36.8533 104.102 36.8421L104.098 36.8411Z" fill="#1A1A1A"/>
<path d="M108.877 38.6136C108.583 38.5347 108.376 38.2541 108.404 37.9386L109.719 22.1157C109.749 21.7634 110.06 21.5011 110.413 21.5282C110.766 21.5553 111.028 21.8694 111.001 22.2227L109.686 38.0456C109.656 38.3979 109.345 38.6602 108.992 38.6331C108.952 38.6298 108.916 38.6239 108.877 38.6136Z" fill="#1A1A1A"/>
<path d="M143.213 117.513C142.028 114.731 140.536 112.199 138.848 109.876C151.93 101.503 158.059 87.6571 152.528 78.6002C146.887 69.3636 131.276 68.6171 117.662 76.9305C115.551 78.2201 113.632 79.6626 111.885 81.196C109.285 71.7114 100.786 63.6508 89.3943 61.1616C73.809 57.7555 58.7553 66.0587 55.7751 79.7039C54.1094 87.3357 56.5725 95.0185 61.7927 100.905C59.6439 101.426 57.4825 102.12 55.3368 103.036C39.8505 109.646 31.2367 124.245 36.1003 135.639C40.9629 147.037 57.4615 150.917 72.9523 144.305C77.7995 142.235 81.9734 139.384 85.2696 136.094C85.7488 137.894 86.3266 139.69 87.0834 141.463C94.595 159.065 113.251 167.969 128.75 161.355C144.249 154.741 150.726 135.107 143.211 117.505L143.213 117.513Z" fill="#5168E8"/>
<path d="M82.0022 101.84C81.4907 101.703 81.0074 101.503 80.557 101.235C77.531 99.4519 76.9199 95.3412 76.8066 94.1241C76.7729 93.7733 77.0276 93.4397 77.3784 93.406C77.7301 93.3688 78.042 93.6063 78.0792 93.958C78.0792 93.958 78.082 94.0038 78.0855 94.0048C78.1872 95.0686 78.7059 98.6551 81.21 100.13C82.848 101.094 85.0737 100.974 87.8261 99.7694C88.1497 99.627 88.5299 99.7777 88.6723 100.101C88.8147 100.425 88.6675 100.806 88.3405 100.948C85.8947 102.016 83.7717 102.315 82.0022 101.84Z" fill="#1A1A1A"/>
<path d="M106.161 108.738C105.807 108.643 105.466 108.514 105.137 108.355C101.837 106.727 101.284 102.369 101.263 102.183C101.222 101.83 101.472 101.514 101.825 101.47C102.178 101.429 102.498 101.68 102.539 102.029C102.544 102.068 103.034 105.887 105.709 107.201C107.604 108.133 110.182 107.634 113.382 105.727C113.686 105.546 114.081 105.644 114.261 105.951C114.442 106.255 114.344 106.65 114.037 106.83C110.948 108.673 108.303 109.308 106.158 108.734L106.161 108.738Z" fill="#1A1A1A"/>
<path d="M98.1928 96.2748L95.8876 95.6021L90.6576 113.522L92.9629 114.195L98.1928 96.2748Z" fill="#1A1A1A"/>
<path d="M93.7299 120.471C93.2749 121.678 92.3592 122.755 91.19 123.32C90.0296 123.881 88.6886 123.825 87.748 122.879C86.7183 121.844 86.8189 120.361 87.1402 119.05L93.7264 120.47L93.7299 120.471Z" fill="#1A1A1A"/>
</svg>
