<svg width="48" height="48" viewBox="0 0 48 48" fill="none" xmlns="http://www.w3.org/2000/svg">
<rect width="48" height="48" rx="24" fill="#E47249"/>
<rect x="4.75" y="4.75" width="38.5" height="38.5" rx="19.25" fill="#E47249"/>
<rect x="4.75" y="4.75" width="38.5" height="38.5" rx="19.25" stroke="#EAF9C0" stroke-width="1.5"/>
<g clip-path="url(#clip0_854_6)">
<path d="M33.75 24C33.7504 25.6833 33.3149 27.338 32.486 28.8031C31.6572 30.2682 30.4631 31.4938 29.02 32.3605C27.577 33.2272 25.9341 33.7055 24.2514 33.7489C22.5686 33.7923 20.9033 33.3993 19.4175 32.6081L16.2253 33.6722C15.961 33.7603 15.6774 33.7731 15.4062 33.7091C15.1351 33.6451 14.8871 33.5069 14.6901 33.3099C14.4931 33.1129 14.3549 32.8649 14.2909 32.5938C14.2269 32.3226 14.2397 32.039 14.3278 31.7747L15.3919 28.5825C14.6964 27.2749 14.3079 25.826 14.256 24.3459C14.2041 22.8658 14.49 21.3933 15.0921 20.0401C15.6942 18.687 16.5967 17.4888 17.731 16.5366C18.8654 15.5843 20.2017 14.9029 21.6387 14.5443C23.0756 14.1856 24.5754 14.159 26.0242 14.4664C27.473 14.7739 28.8327 15.4074 30.0001 16.3188C31.1675 17.2303 32.1119 18.3957 32.7616 19.7266C33.4114 21.0575 33.7494 22.5189 33.75 24Z" fill="#EAF9C0"/>
</g>
<defs>
<clipPath id="clip0_854_6">
<rect width="24" height="24" fill="white" transform="translate(12 12)"/>
</clipPath>
</defs>
</svg>
