<svg width="100%" height="100%" viewBox="9 14.5 93 89.5" fill="none" xmlns="http://www.w3.org/2000/svg">
<path d="M28.2067 72.4625C25.4586 73.1988 23.0291 73.1918 21.2098 72.9714C19.9077 72.8191 18.6329 72.4409 17.4225 71.8507C15.8849 71.1034 14.5863 70.1307 13.5603 68.9614C12.5316 67.7904 11.7545 66.3976 11.2526 64.817C8.33897 55.6185 15.698 42.3302 18.84 36.6543L19.0177 36.3335C19.1252 36.1407 19.3628 36.07 19.5587 36.1719C19.8232 36.3077 20.1168 36.4285 20.4307 36.5273C20.4514 36.5337 20.4727 36.5422 20.4918 36.5513C20.5163 36.5543 20.5415 36.5594 20.565 36.5673C21.3582 36.8061 22.3207 36.9497 23.42 36.9924C23.4345 36.9933 23.6663 37.0072 24.0994 36.9482C24.2482 36.9273 24.3957 36.99 24.4829 37.1115C24.5701 37.233 24.5844 37.393 24.5205 37.5266C24.2757 38.0316 23.9398 38.6395 23.5844 39.2811C21.0213 43.9087 14.2093 56.1977 16.4223 63.18C16.9371 64.7998 17.94 65.9896 19.4872 66.8174C19.6454 66.8581 19.7887 66.9053 19.9169 66.9493L20.1408 67.0224C26.1663 68.9876 32.0929 66.1596 37.7615 58.619C37.8443 58.5113 37.9729 58.4507 38.1077 58.4573L43.3243 58.7508C43.4669 58.7601 43.593 58.8404 43.6602 58.9673C43.7275 59.0941 43.7228 59.245 43.6486 59.3671C38.5827 67.7296 32.9239 71.1937 28.1995 72.462L28.2067 72.4625ZM19.5431 37.0621C16.4492 42.6515 9.22218 55.7144 12.0277 64.5713C12.4955 66.0422 13.2164 67.3408 14.1696 68.4252C15.1241 69.5139 16.3359 70.4196 17.7753 71.1195C18.9038 71.6699 20.0908 72.0218 21.3026 72.165C25.9811 72.7286 34.904 71.8105 42.6004 59.5244L38.2807 59.2804C32.4176 66.999 26.2345 69.8625 19.9017 67.7967L19.6621 67.7183C19.5396 67.6775 19.3985 67.6298 19.2459 67.5923C19.213 67.5845 19.181 67.5717 19.1535 67.5577C17.383 66.6235 16.2371 65.2724 15.6494 63.425C13.3329 56.1095 20.2659 43.598 22.8753 38.8867C23.0849 38.5075 23.2863 38.1423 23.4671 37.8064C23.4148 37.8062 23.383 37.8029 23.3758 37.8024C22.2207 37.7556 21.1935 37.6009 20.3337 37.3443C20.3102 37.3364 20.2889 37.3278 20.2676 37.3193C20.2409 37.317 20.2157 37.3118 20.1894 37.3023C19.964 37.232 19.75 37.1516 19.5431 37.0621Z" fill="#EFEBE7"/>
<path d="M25.4168 37.472C24.4261 37.7375 23.475 37.8403 22.5707 37.7809C20.6529 37.6534 18.3173 36.7471 17.5135 34.5895C17.5094 34.5739 17.1453 33.5431 17.1063 32.7507C14.8113 32.9974 13.922 33.0029 12.4364 32.8927C9.70469 32.6887 9.33802 31.8344 9.19776 30.9741C9.19345 30.9491 9.18704 30.8986 9.18937 30.8718C9.22106 29.811 9.83999 28.9207 11.0304 28.2216C13.4052 26.8276 17.7143 26.5091 19.0632 26.5966C23.1562 20.7466 26.4393 16.9357 28.8211 15.2666C29.523 14.7744 30.4035 14.8069 31.0621 15.3502C31.7292 15.8983 31.9352 16.7648 31.5846 17.5571C30.4041 20.2346 27.3678 23.6635 26.0712 25.1274C26.0439 25.1584 26.0188 25.1889 25.9909 25.2178C27.8181 25.6807 29.6859 27.3324 30.4786 28.0393C36.6182 19.7121 39.4908 19.9543 40.4487 20.453C40.9703 20.7242 41.2948 21.1195 41.4169 21.6284C41.737 22.956 40.5241 24.6706 39.8728 25.591L39.7728 25.7318C38.5433 27.4817 37.0798 29.0498 35.683 30.4858C33.1548 33.0802 30.859 34.9021 28.4568 36.2204C27.4107 36.7929 26.3948 37.2123 25.4196 37.4736L25.4168 37.472ZM17.9131 32.5345C17.9021 32.8391 18.0192 33.6131 18.2757 34.3045C18.9443 36.0993 20.9623 36.8579 22.6267 36.9702C24.2642 37.0801 26.0943 36.5874 28.0658 35.5056C30.3957 34.2281 32.6322 32.4506 35.1008 29.9173C36.4734 28.5067 37.9113 26.967 39.1082 25.2638L39.2076 25.1207C39.7436 24.3642 40.8603 22.7871 40.6269 21.8186C40.5605 21.5443 40.3806 21.3336 40.0768 21.1751C39.8062 21.0338 37.2787 20.0672 30.8756 28.8735C30.7472 29.0505 30.4997 29.093 30.3195 28.9703C30.2531 28.9263 30.1718 28.8531 29.9723 28.6762C29.2327 28.0168 26.9843 26.0087 25.2006 25.9118C25.044 25.9038 24.906 25.8054 24.8463 25.6623C24.7402 25.408 24.7527 25.3928 25.4644 24.5916C26.7354 23.156 29.7138 19.7948 30.8422 17.2334C31.0829 16.6867 30.8335 16.2167 30.5468 15.98C30.2516 15.7384 29.7679 15.5996 29.2854 15.9356C27.683 17.0562 24.7003 19.9315 19.5958 27.2544C19.4947 27.4003 19.3093 27.4618 19.1437 27.4112C18.5412 27.3256 13.0597 27.533 10.8784 29.3123C10.3174 29.7714 10.0304 30.2783 10.0012 30.8609C10.0823 31.3499 10.236 31.9145 12.4974 32.0829C13.9373 32.1912 14.8005 32.1856 17.0671 31.9393C17.0882 31.9384 17.1352 31.9187 17.1755 31.9007C17.311 31.8478 17.5166 31.7642 17.7672 31.8396C17.9815 31.9034 18.1038 32.1295 18.0407 32.3459C18.0186 32.4231 17.9724 32.4901 17.9165 32.5384L17.9131 32.5345Z" fill="#EFEBE7"/>
<path d="M21.8349 31.5831C20.248 32.0083 19.4074 31.0696 19.3631 31.0197C19.3285 30.9791 19.3022 30.9339 19.2863 30.8835C18.2974 27.982 24.6849 25.2609 24.7513 25.2336C25.0293 25.1188 25.4079 24.9627 25.5866 25.3281C25.6857 25.5296 25.6013 25.7732 25.3992 25.8701C25.3512 25.8948 25.3019 25.9057 25.2508 25.9099C24.7248 26.0745 21.1665 27.7501 20.2153 29.5015C20.0102 29.8795 19.9491 30.2189 20.0312 30.5342C20.2441 30.7171 21.102 31.2949 22.6686 30.324C23.0778 30.0695 23.5106 29.7255 23.9504 29.3012L27.5911 26.373C27.7674 26.2332 28.0216 26.2601 28.1615 26.4364C28.3014 26.6127 28.2745 26.8669 28.0982 27.0068L24.4838 29.9089C24.0314 30.3484 23.5536 30.7283 23.0953 31.0126C22.6332 31.3003 22.2127 31.4771 21.8337 31.5787L21.8349 31.5831Z" fill="#EFEBE7"/>
<path d="M24.4663 32.9285C23.797 33.1079 23.1895 33.1281 22.7148 32.899C22.4629 32.8098 22.2809 32.6447 22.1695 32.4061C21.9737 31.9859 22.0345 31.3971 22.3546 30.6059C22.439 30.398 22.6755 30.2966 22.8834 30.381C23.0913 30.4654 23.1927 30.7019 23.1082 30.9099C22.7892 31.6961 22.8726 31.9897 22.9061 32.0615C22.9298 32.1145 22.9578 32.1213 22.9941 32.1329C23.0148 32.1392 23.0389 32.1494 23.058 32.1585C24.3605 32.8262 28.1426 30.1952 30.2198 28.382C30.3893 28.2344 30.6456 28.2512 30.7931 28.4207C30.9407 28.5902 30.9238 28.8466 30.7543 28.9941C30.2903 29.3988 26.9523 32.26 24.4679 32.9257L24.4663 32.9285Z" fill="#EFEBE7"/>
<path d="M17.7972 32.5453C16.4696 32.901 14.5512 33.0017 12.0774 32.8474C11.8529 32.8339 11.6821 32.6397 11.6984 32.4168C11.7119 32.1923 11.9044 32.0244 12.1284 32.0356C15.6295 32.2567 17.345 31.9039 18.1676 31.5695C18.4008 31.4737 18.5609 31.2646 18.5945 31.0085C18.6259 30.7625 18.5296 30.5271 18.3363 30.3817C17.5685 29.8036 16.239 29.9745 15.9893 30.0533C15.8033 30.1483 15.5758 30.0881 15.4615 29.9097C15.342 29.7208 15.3978 29.4682 15.5867 29.3487C15.8906 29.1533 17.7248 28.9065 18.8229 29.7334C19.2541 30.0574 19.4688 30.5747 19.3971 31.1142C19.3257 31.663 18.9787 32.1146 18.4713 32.3219C18.2657 32.4055 18.041 32.48 17.795 32.5459L17.7972 32.5453Z" fill="#EFEBE7"/>
<path d="M80.2327 76.4794C78.9306 75.9018 77.8485 75.4269 77.5616 75.3137C77.5102 75.299 77.4877 75.2861 77.4788 75.2884L77.4948 75.3126L77.4304 75.3204C78.0776 91.4234 73.2537 97.3029 70.331 99.3735C69.7417 99.7808 69.1823 100.007 68.6623 100.061C67.8107 100.127 67.0686 99.8486 66.3528 99.1805C62.5617 95.6878 61.7767 82.6432 62.4318 76.8878L59.6612 76.8843C59.0126 80.7756 59.2672 96.4066 64.4718 101.212C65.6568 102.31 66.9983 102.849 68.4779 102.83C68.4965 102.944 68.524 103.055 68.5625 103.163C68.6144 103.304 68.6847 103.442 68.816 103.542C68.9474 103.642 69.1532 103.701 69.3685 103.662C69.9572 103.555 70.1003 102.963 70.1392 102.629C70.1421 102.605 70.1439 102.576 70.1462 102.549C70.7456 102.348 71.3394 102.046 71.9218 101.631C75.6092 99.0282 79.8007 93.2444 80.2233 80.3894C83.1488 83.1782 86.2363 79.1607 86.2363 79.1607C86.2363 79.1607 82.8031 77.6149 80.2349 76.4788L80.2327 76.4794Z" fill="#EFEBE7"/>
<path d="M94.4516 74.3238C93.4698 73.2305 92.6335 72.3168 92.482 72.1769C92.4707 72.1704 92.4595 72.1639 92.4595 72.1639L92.3944 72.1338C88.9817 80.2125 82.5337 85.4559 79.9245 87.3404C79.5395 87.6146 79.0252 87.9733 78.4842 88.2418C76.873 89.0369 75.5711 89.0984 74.5236 88.4336C70.9985 86.226 70.2898 76.9498 70.3195 73.5592L67.553 73.5356C67.5383 74.9434 67.598 87.3557 73.0514 90.7759C73.8772 91.2958 75.0752 91.742 76.6309 91.6173C76.6504 91.7166 76.6699 91.816 76.7049 91.9111C76.7568 92.0516 76.827 92.1896 76.9584 92.2898C77.0897 92.39 77.2955 92.4488 77.5108 92.4101C78.0995 92.3023 78.2426 91.7105 78.2815 91.377C78.2839 91.3502 78.286 91.3141 78.2894 91.2823C78.7412 91.1422 79.2103 90.969 79.7048 90.7225C80.4312 90.3663 81.0667 89.9276 81.5484 89.58C83.8878 87.9032 89.1003 83.6869 92.9038 77.2708C94.2648 80.3552 98.0421 78.3003 98.0421 78.3003C98.0421 78.3003 96.0647 76.0889 94.4538 74.3232L94.4516 74.3238Z" fill="#EFEBE7"/>
<path d="M59.8444 37.3475C78.1357 32.4463 94.1248 32.806 95.5573 38.1512C96.4885 41.6264 91.0364 46.3511 82.0816 50.58C91.7978 49.1898 98.6074 49.5305 99.225 51.8352C99.8594 54.2057 93.7825 58.05 84.2176 61.8042C94.3164 60.0428 101.387 59.9069 101.89 61.7862C102.642 64.5967 88.4249 70.8476 70.1339 75.7487C51.8429 80.6497 36.4047 82.345 35.6508 79.535C35.1473 77.6557 41.3381 74.2383 50.9649 70.7142C40.8054 72.2451 33.6212 71.954 32.9855 69.584C32.368 67.2795 38.0937 63.5799 47.2017 59.9261C37.3327 60.7409 30.249 59.3751 29.3179 55.9C27.8859 50.5547 41.5531 42.2486 59.8444 37.3475Z" fill="#86C9FF"/>
<path d="M45.3596 55.2124C45.3596 55.2124 48.6159 43.5626 60.5321 51.147C60.5321 51.147 55.9302 59.2023 45.3596 55.2124Z" fill="white"/>
<path d="M50.8665 51.1269C51.9709 51.7646 52.3486 53.1741 51.711 54.2785C51.0734 55.3829 49.6638 55.7606 48.5595 55.123C47.4551 54.4854 47.0774 53.0758 47.715 51.9714C48.3526 50.867 49.7622 50.4893 50.8665 51.1269Z" fill="#1A1A1A"/>
<path d="M66.1486 49.6422C66.1486 49.6422 69.405 37.9923 81.3212 45.5767C81.3212 45.5767 76.7192 53.632 66.1486 49.6422Z" fill="white"/>
<path d="M72.1692 45.4183C73.2736 46.056 73.6513 47.4655 73.0137 48.5699C72.3761 49.6743 70.9666 50.052 69.8622 49.4144C68.7578 48.7767 68.3801 47.3672 69.0177 46.2628C69.6553 45.1584 71.0649 44.7807 72.1692 45.4183Z" fill="#1A1A1A"/>
<path d="M65.5902 60.8508C59.5708 62.4636 54.651 61.4516 54.5761 61.4289C54.3602 61.368 54.2357 61.1425 54.2966 60.9266C54.3581 60.713 54.5792 60.5896 54.7917 60.6467C54.9788 60.6892 67.4866 63.1765 76.7559 53.2055C76.9083 53.0388 77.1653 53.0316 77.3299 53.1847C77.4944 53.3377 77.5037 53.5942 77.3507 53.7588C73.6208 57.7726 69.3866 59.8335 65.5902 60.8508Z" fill="#1A1A1A"/>
</svg>
