<svg width="206" height="216" viewBox="0 0 206 216" fill="none" xmlns="http://www.w3.org/2000/svg">
<path d="M52.7129 135.41C47.5774 136.786 43.0373 136.773 39.6377 136.361C37.2044 136.077 34.8222 135.37 32.5602 134.267C29.687 132.871 27.2601 131.053 25.343 128.868C23.4205 126.68 21.9685 124.077 21.0306 121.123C15.5858 103.934 29.3379 79.1024 35.2095 68.4959L35.5416 67.8964C35.7425 67.5362 36.1865 67.404 36.5526 67.5944C37.0468 67.8482 37.5955 68.074 38.1821 68.2587C38.2208 68.2705 38.2606 68.2864 38.2963 68.3035C38.3421 68.309 38.3891 68.3186 38.433 68.3334C39.9153 68.7796 41.7139 69.0479 43.7683 69.1277C43.7954 69.1293 44.2285 69.1554 45.0379 69.045C45.316 69.006 45.5915 69.1231 45.7545 69.3502C45.9174 69.5773 45.9443 69.8763 45.8247 70.1259C45.3673 71.0696 44.7395 72.2056 44.0753 73.4045C39.2857 82.052 26.5559 105.016 30.6912 118.064C31.6532 121.091 33.5273 123.314 36.4187 124.861C36.7143 124.937 36.9821 125.025 37.2216 125.108L37.64 125.244C48.9 128.917 59.9751 123.632 70.5682 109.541C70.7229 109.34 70.9634 109.226 71.2153 109.239L80.9636 109.787C81.2301 109.805 81.4656 109.954 81.5913 110.192C81.717 110.429 81.7082 110.711 81.5696 110.939C72.1027 126.566 61.5281 133.039 52.6994 135.409L52.7129 135.41ZM36.5234 69.258C30.7417 79.7028 17.2363 104.113 22.4789 120.664C23.3531 123.413 24.7002 125.839 26.4816 127.866C28.2652 129.9 30.5298 131.593 33.2195 132.901C35.3284 133.929 37.5465 134.587 39.811 134.854C48.5538 135.907 65.2283 134.192 79.6109 111.233L71.5386 110.777C60.5819 125.2 49.0274 130.552 37.1931 126.691L36.7455 126.545C36.5165 126.469 36.2529 126.379 35.9678 126.309C35.9062 126.295 35.8465 126.271 35.7951 126.245C32.4864 124.499 30.3451 121.974 29.247 118.522C24.9181 104.852 37.874 81.4715 42.7504 72.6676C43.142 71.9589 43.5185 71.2765 43.8563 70.6489C43.7586 70.6484 43.6992 70.6422 43.6856 70.6414C41.5271 70.5539 39.6075 70.2648 38.0008 69.7853C37.9569 69.7705 37.9171 69.7545 37.8773 69.7385C37.8273 69.7342 37.7804 69.7246 37.7312 69.7067C37.3098 69.5755 36.91 69.4252 36.5234 69.258Z" fill="#EFEBE7"/>
<path d="M47.4975 70.0239C45.6462 70.52 43.8689 70.7122 42.179 70.6012C38.5951 70.363 34.2306 68.6694 32.7285 64.6374C32.7208 64.6084 32.0404 62.6822 31.9676 61.2013C27.6789 61.6624 26.0171 61.6727 23.2408 61.4667C18.136 61.0856 17.4508 59.4892 17.1887 57.8815C17.1807 57.8348 17.1687 57.7404 17.173 57.6904C17.2323 55.7081 18.3889 54.0443 20.6134 52.738C25.0512 50.1329 33.1037 49.5377 35.6245 49.7012C43.2733 38.7695 49.4084 31.648 53.8593 28.5288C55.171 27.6092 56.8164 27.6699 58.0472 28.6851C59.2938 29.7094 59.6788 31.3286 59.0235 32.8092C56.8175 37.8126 51.1436 44.2201 48.7205 46.9557C48.6694 47.0137 48.6225 47.0707 48.5704 47.1246C51.9849 47.9897 55.4753 51.0761 56.9567 52.397C68.4299 36.8361 73.798 37.2887 75.588 38.2207C76.5628 38.7274 77.1691 39.4661 77.3973 40.417C77.9954 42.8979 75.7289 46.1019 74.5119 47.8219L74.3249 48.085C72.0273 51.3551 69.2924 54.2853 66.6823 56.9689C61.9577 61.817 57.6675 65.2215 53.1785 67.685C51.2235 68.7548 49.325 69.5387 47.5027 70.027L47.4975 70.0239ZM33.4752 60.7974C33.4546 61.3666 33.6734 62.8128 34.1528 64.1048C35.4021 67.4588 39.1733 68.8764 42.2835 69.0861C45.3437 69.2915 48.7635 68.3708 52.4477 66.3493C56.8018 63.9619 60.9811 60.6405 65.5942 55.9065C68.1593 53.2705 70.8463 50.3932 73.0829 47.2104L73.2688 46.9431C74.2705 45.5295 76.3572 42.5822 75.9211 40.7725C75.7971 40.2598 75.4608 39.8661 74.8931 39.5699C74.3874 39.3059 69.6642 37.4997 57.6985 53.956C57.4586 54.2867 56.9961 54.3662 56.6594 54.1368C56.5353 54.0547 56.3832 53.9179 56.0105 53.5872C54.6284 52.3551 50.4268 48.6025 47.0935 48.4215C46.801 48.4066 46.5431 48.2227 46.4315 47.9552C46.2332 47.4801 46.2566 47.4516 47.5866 45.9544C49.9617 43.2717 55.5275 36.9908 57.6363 32.2043C58.0861 31.1827 57.6199 30.3044 57.0841 29.862C56.5326 29.4105 55.6286 29.1512 54.727 29.779C51.7326 31.8731 46.1588 37.2462 36.6197 50.9305C36.4308 51.2031 36.0843 51.3181 35.7749 51.2234C34.6489 51.0635 24.4057 51.4511 20.3295 54.7761C19.2809 55.6341 18.7446 56.5812 18.6901 57.6701C18.8417 58.5838 19.1289 59.6388 23.3547 59.9535C26.0456 60.1558 27.6586 60.1453 31.8943 59.6851C31.9338 59.6834 32.0216 59.6465 32.0969 59.613C32.3501 59.5141 32.7344 59.358 33.2027 59.4988C33.603 59.6179 33.8317 60.0405 33.7137 60.445C33.6724 60.5892 33.5861 60.7144 33.4815 60.8045L33.4752 60.7974Z" fill="#EFEBE7"/>
<path d="M40.8068 59.0194C37.8414 59.8139 36.2705 58.0597 36.1879 57.9665C36.1231 57.8906 36.0739 57.8062 36.0442 57.712C34.1964 52.2901 46.1328 47.2051 46.2568 47.1541C46.7763 46.9395 47.4839 46.6478 47.8178 47.3307C48.003 47.7072 47.8453 48.1623 47.4677 48.3434C47.378 48.3897 47.2858 48.4099 47.1902 48.4178C46.2073 48.7255 39.5578 51.8566 37.7803 55.1295C37.397 55.8359 37.2828 56.4701 37.4363 57.0593C37.8341 57.401 39.4373 58.4807 42.3647 56.6665C43.1295 56.1908 43.9383 55.548 44.7601 54.7552L51.5636 49.2833C51.8931 49.0219 52.3682 49.0722 52.6296 49.4017C52.891 49.7312 52.8408 50.2062 52.5113 50.4676L45.7568 55.8908C44.9116 56.7121 44.0187 57.4219 43.1623 57.9532C42.2987 58.4909 41.5128 58.8213 40.8046 59.0111L40.8068 59.0194Z" fill="#EFEBE7"/>
<path d="M45.7197 61.5336C44.4689 61.8688 43.3338 61.9067 42.4467 61.4785C41.9759 61.3117 41.6358 61.0032 41.4276 60.5574C41.0618 59.7721 41.1754 58.672 41.7735 57.1933C41.9313 56.8048 42.3732 56.6153 42.7617 56.7731C43.1503 56.9309 43.3397 57.3729 43.1819 57.7614C42.5857 59.2306 42.7416 59.7793 42.8042 59.9134C42.8485 60.0125 42.9007 60.0251 42.9687 60.0469C43.0074 60.0587 43.0524 60.0777 43.088 60.0948C45.522 61.3424 52.5897 56.4258 56.4714 53.0375C56.7881 52.7618 57.2671 52.7932 57.5428 53.1099C57.8186 53.4267 57.7871 53.9057 57.4703 54.1814C56.6032 54.9376 50.3654 60.2844 45.7227 61.5284L45.7197 61.5336Z" fill="#EFEBE7"/>
<path d="M33.2675 60.8175C30.7867 61.4822 27.2016 61.6704 22.5789 61.3821C22.1593 61.3569 21.8402 60.9941 21.8706 60.5775C21.8958 60.158 22.2556 59.8441 22.6741 59.8651C29.2167 60.2782 32.4225 59.6189 33.9596 58.994C34.3955 58.8151 34.6947 58.4242 34.7574 57.9458C34.8162 57.4861 34.6362 57.0461 34.2749 56.7745C32.8401 55.6941 30.3556 56.0136 29.889 56.1608C29.5415 56.3382 29.1163 56.2258 28.9027 55.8924C28.6794 55.5394 28.7838 55.0675 29.1368 54.8442C29.7047 54.4789 33.1323 54.0177 35.1843 55.563C35.9901 56.1683 36.3912 57.1352 36.2574 58.1431C36.1238 59.1688 35.4755 60.0127 34.5272 60.4C34.143 60.5562 33.7231 60.6954 33.2633 60.8186L33.2675 60.8175Z" fill="#EFEBE7"/>
<path d="M149.926 142.916C147.492 141.836 145.47 140.949 144.934 140.738C144.838 140.71 144.796 140.686 144.779 140.69L144.809 140.735L144.689 140.75C145.898 170.841 136.884 181.828 131.422 185.698C130.321 186.459 129.275 186.881 128.304 186.982C126.712 187.106 125.325 186.586 123.988 185.337C116.903 178.81 115.437 154.434 116.661 143.679L111.483 143.673C110.271 150.944 110.747 180.154 120.473 189.133C122.687 191.185 125.194 192.192 127.959 192.157C127.994 192.369 128.045 192.577 128.117 192.78C128.214 193.043 128.345 193.3 128.591 193.488C128.836 193.675 129.221 193.785 129.623 193.713C130.723 193.511 130.991 192.405 131.063 191.782C131.069 191.736 131.072 191.682 131.077 191.632C132.197 191.256 133.306 190.693 134.395 189.917C141.285 185.052 149.118 174.244 149.908 150.222C155.375 155.434 161.145 147.926 161.145 147.926C161.145 147.926 154.729 145.038 149.93 142.915L149.926 142.916Z" fill="#EFEBE7"/>
<path d="M176.505 138.888C174.67 136.845 173.108 135.137 172.825 134.876C172.804 134.864 172.782 134.851 172.782 134.851L172.661 134.795C166.283 149.892 154.234 159.69 149.358 163.212C148.639 163.724 147.677 164.394 146.667 164.896C143.656 166.382 141.223 166.497 139.265 165.255C132.678 161.129 131.353 143.795 131.409 137.459L126.239 137.415C126.212 140.046 126.323 163.24 136.514 169.632C138.057 170.603 140.296 171.437 143.203 171.204C143.24 171.39 143.276 171.575 143.341 171.753C143.438 172.015 143.57 172.273 143.815 172.461C144.061 172.648 144.445 172.758 144.848 172.685C145.948 172.484 146.215 171.378 146.288 170.755C146.292 170.705 146.296 170.637 146.302 170.578C147.147 170.316 148.023 169.992 148.947 169.532C150.305 168.866 151.492 168.046 152.393 167.397C156.764 164.263 166.505 156.384 173.613 144.395C176.156 150.158 183.215 146.318 183.215 146.318C183.215 146.318 179.52 142.186 176.509 138.887L176.505 138.888Z" fill="#EFEBE7"/>
<path d="M111.835 69.7903C146.017 60.6314 175.896 61.3045 178.572 71.2932C180.311 77.7855 170.13 86.6135 153.404 94.5144C171.552 91.9192 184.27 92.5574 185.424 96.8629C186.61 101.292 175.261 108.477 157.393 115.492C176.259 112.202 189.466 111.948 190.406 115.459C191.813 120.711 165.244 132.392 131.063 141.551C96.882 150.71 68.0317 153.878 66.6235 148.626C65.6828 145.115 77.2475 138.732 95.2309 132.148C76.2494 135.007 62.8274 134.459 61.6408 130.03C60.4872 125.725 71.1815 118.813 88.195 111.987C69.7603 113.507 56.5294 110.953 54.7894 104.461C52.1129 94.472 77.6532 78.9492 111.835 69.7903Z" fill="#86C9FF"/>
<path d="M84.7672 103.175C84.7672 103.175 90.8524 81.4051 113.12 95.5778C113.12 95.5778 104.521 110.631 84.7672 103.175Z" fill="white"/>
<path d="M95.0529 95.5406C97.1166 96.7321 97.8224 99.3661 96.6309 101.43C95.4394 103.494 92.8053 104.199 90.7415 103.008C88.6778 101.816 87.972 99.1824 89.1635 97.1186C90.355 95.0548 92.9891 94.349 95.0529 95.5406Z" fill="#1A1A1A"/>
<path d="M123.615 92.7657C123.615 92.7657 129.7 70.9958 151.968 85.1685C151.968 85.1685 143.368 100.221 123.615 92.7657Z" fill="white"/>
<path d="M134.866 84.8728C136.929 86.0643 137.635 88.6983 136.444 90.7621C135.252 92.8258 132.618 93.5316 130.554 92.3401C128.491 91.1486 127.785 88.5146 128.976 86.4508C130.168 84.3871 132.802 83.6813 134.866 84.8728Z" fill="#1A1A1A"/>
<path d="M122.578 113.711C111.329 116.725 102.136 114.834 101.996 114.792C101.592 114.678 101.359 114.256 101.473 113.853C101.588 113.454 102.001 113.223 102.398 113.33C102.748 113.409 126.122 118.057 143.443 99.4245C143.728 99.1129 144.209 99.0995 144.516 99.3856C144.824 99.6716 144.841 100.151 144.555 100.458C137.585 107.959 129.672 111.81 122.578 113.711Z" fill="#1A1A1A"/>
</svg>
