<svg width="487" height="554" viewBox="0 0 487 554" fill="none" xmlns="http://www.w3.org/2000/svg">
<g clip-path="url(#clip0_1_16)">
<path d="M137.53 165.716C125.97 128.846 105.31 95.2863 97.7197 57.0063C94.0297 38.3963 84.7697 15.8763 105.08 3.93634C126.88 -8.87366 139.96 12.5263 153.09 26.0863C183.14 57.1063 197.91 98.6063 225.77 135.706C236.25 109.886 244.44 86.4263 255.26 64.2363C262.21 49.9763 271.36 31.6263 290.84 36.5863C311.17 41.7563 312.36 63.0963 311.99 79.9063C311.47 103.786 306.83 127.576 303.62 154.126C335.85 136.776 364.85 120.036 394.89 105.436C411.24 97.4863 429.09 92.1463 446.76 87.5363C459.89 84.1063 474.52 84.7363 482.79 97.5763C491.15 110.556 484.5 123.316 476.45 134.346C460.59 156.076 439.37 172.086 418.06 188.036C403.46 198.966 389.44 210.666 371.75 224.736C402.16 230.266 429.85 223.876 455.69 233.046C469.23 237.846 485.2 240.966 486.64 258.296C488.12 275.986 472.21 281.566 459.6 287.606C434.42 299.646 406.63 300.556 374.95 303.586C389.95 321.196 403.25 335.616 415.05 351.176C421 359.016 427.17 368.656 420.46 379.326C413.84 389.846 402.56 388.976 392.79 387.256C376.14 384.326 359.84 379.416 339.69 374.416C350.85 402.956 361.25 427.986 370.39 453.456C378 474.626 383.5 496.436 381.99 519.346C379.85 551.786 359.31 562.736 332.16 544.876C300.47 524.026 281.28 492.466 262.97 460.406C256.58 449.226 250.27 437.996 241.79 423.026C232.03 446.646 232.82 469.036 221.88 487.616C215.4 498.626 208.22 509.376 194.33 508.306C180.74 507.266 178.41 494.026 174.46 483.736C166.03 461.746 171.6 437.806 166.68 410.786C143.93 432.036 124.78 451.306 104.12 468.786C87.7897 482.606 69.7297 494.526 48.7197 500.606C38.0297 503.696 26.0597 508.566 17.2897 498.306C9.96973 489.746 13.4897 478.906 16.8497 469.106C28.9597 433.766 51.4997 404.516 72.4897 374.396C79.9897 363.636 88.3697 353.486 96.4297 342.956C76.5697 342.956 57.9197 344.096 39.5097 342.486C29.7997 341.636 18.8597 337.636 15.9497 325.856C13.1097 314.326 19.9997 305.476 28.3297 299.786C42.5697 290.046 58.1197 282.236 73.7497 273.246C64.0697 256.486 45.6197 253.476 30.7997 245.676C-9.98027 224.186 -49.9203 201.506 -83.1603 169.146C-95.8703 156.766 -113.91 143.226 -102.23 122.556C-91.8103 104.116 -72.1403 105.786 -52.8803 108.186C-4.67026 114.216 40.1097 130.816 84.4797 149.336C101.27 156.346 116.99 166.746 136.11 167.106C137.4 167.886 138.68 168.676 139.95 169.466C139.14 168.216 138.32 166.966 137.51 165.716H137.53Z" fill="#5168E8"/>
</g>
<defs>
<clipPath id="clip0_1_16">
<rect width="592.72" height="553.412" fill="white" transform="translate(-106)"/>
</clipPath>
</defs>
</svg>
