<svg width="521" height="501" viewBox="0 0 521 501" fill="none" xmlns="http://www.w3.org/2000/svg">
<path d="M475.833 120.764C417.7 195.435 447.851 252.55 509.114 304.027C527.519 319.485 524.465 333.4 500.45 336.539C416.469 347.531 377.531 395.297 379.675 478.909C380.256 501.623 370.309 506.349 351.64 493.317C345.799 489.244 338.37 487 333.486 482.098C282.539 431.046 232.129 438.916 177.308 477.965C140.177 504.404 132.251 501.183 133.381 456.199C135.221 382.915 104.038 344.453 33.629 327.203C-8.50507 316.877 -10.4203 306.791 24.3667 282.304C88.0744 237.449 94.4962 184.684 65.0567 117.667C49.5099 82.2737 53.1754 81.0132 90.7895 85.618C117.896 88.9386 145.333 89.9482 172.266 94.2348C186.849 96.5509 194.441 90.5794 201.648 80.1519C216.514 58.6464 231.433 37.1672 246.764 15.9916C261.943 -4.97195 278.023 -5.81169 292.518 16.3629C304.868 35.2498 316.852 54.5091 327.117 74.5616C337.24 94.3348 351.658 101.321 373.41 98.9746C399.383 96.1796 425.716 96.7611 451.658 93.765C475.958 90.9561 483.056 98.6212 475.836 120.753L475.833 120.764Z" fill="#5168E8"/>
</svg>
