<svg width="223" height="218" viewBox="0 0 223 218" fill="none" xmlns="http://www.w3.org/2000/svg">
<path d="M144.551 136.872C141.039 134.844 137.61 132.611 134.337 130.223C134.137 130.077 133.765 129.806 133.642 129.337C133.535 128.917 133.681 128.543 133.766 128.321L136.675 120.823C136.752 120.622 136.922 120.471 137.129 120.416C137.335 120.361 137.555 120.404 137.723 120.545C144.273 125.921 151.222 130.213 158.368 133.308L158.841 133.511C163.326 135.458 168.411 137.66 173.13 136.212C176.262 135.251 178.657 132.715 180.657 130.415C183.283 127.388 185.438 124.517 187.243 121.641C190.454 116.518 193.487 110.577 196.508 103.475C196.554 103.366 196.676 103.109 196.844 102.765C197.179 102.071 198.152 100.069 198.33 99.3895C197.216 98.004 195.79 95.9878 194.988 93.9261C193.633 90.4397 194.774 88.5472 195.969 87.5732C196.009 87.5433 196.048 87.5135 196.089 87.494C196.158 87.4591 197.62 86.757 199.894 88.0088C199.783 86.3326 199.779 83.3205 202.544 83.078C202.568 83.0744 203.815 82.9204 204.857 83.7711C205.271 84.1061 205.592 84.5406 205.816 85.076C206.253 84.5989 206.838 84.1764 207.553 84.1481C208.433 84.1145 209.248 84.677 209.983 85.8261C210.047 85.7978 210.091 85.7751 210.106 85.7709C210.654 85.5716 211.159 85.5747 211.606 85.7761C212.354 86.1159 212.736 86.8915 212.983 87.5232C213.278 88.2833 213.451 89.1258 213.532 90.1815C213.723 92.7168 213.282 95.3802 212.821 97.6474C212.585 98.8044 212.285 100.142 211.68 101.348C211.037 102.628 210.233 103.204 209.287 103.064C209.146 103.044 209.032 103 208.951 102.966L209.027 102.289L208.901 102.946C208.795 102.924 207.977 102.745 206.86 101.798C203.063 111.567 197.662 123.834 189.341 134.07C185.515 138.776 180.693 143.777 173.895 145.208C169.868 146.054 165.425 145.63 159.91 143.878C155.381 142.439 150.676 140.329 145.528 137.427C145.198 137.241 144.872 137.057 144.544 136.868L144.551 136.872ZM134.988 129.049C135.031 129.073 135.096 129.119 135.124 129.14C138.659 131.718 142.384 134.118 146.189 136.267C151.253 139.125 155.874 141.199 160.318 142.611C165.604 144.291 169.832 144.701 173.624 143.907C180.013 142.563 184.63 137.759 188.307 133.237C196.778 122.817 202.199 110.212 205.974 100.396C206.055 100.18 206.243 100.022 206.469 99.978C206.695 99.9339 206.928 100.007 207.084 100.176C208.248 101.407 209.117 101.634 209.162 101.646C209.256 101.666 209.347 101.697 209.437 101.731C209.868 101.809 210.239 101.242 210.483 100.758C211.014 99.7016 211.29 98.4674 211.509 97.3924C211.95 95.2138 212.377 92.6648 212.196 90.2929C212.124 89.3733 211.978 88.651 211.733 88.016C211.59 87.6498 211.358 87.1443 211.051 87.0022C211.01 86.9827 210.878 86.9239 210.568 87.0375L210.517 87.065C210.003 87.3054 209.425 87.5791 209.105 86.9836C208.585 86.0236 208.041 85.4825 207.607 85.4989C207.004 85.522 206.341 86.5584 206.131 87.0272C206.006 87.3044 205.708 87.4646 205.406 87.4125C205.104 87.3605 204.877 87.1112 204.851 86.808C204.777 85.8917 204.5 85.2293 204.027 84.8382C203.434 84.3518 202.692 84.4259 202.682 84.4287C201.249 84.5579 201.079 86.024 201.262 88.3485C201.311 88.9447 201.335 89.2732 201.235 89.5383C201.16 89.7356 200.995 89.885 200.792 89.9423C200.588 89.9996 200.373 89.9629 200.202 89.8289C198.249 88.3388 197.023 88.6008 196.743 88.6925C195.556 89.7195 195.389 91.279 196.24 93.4606C197.015 95.4546 198.452 97.4375 199.524 98.751C199.89 99.1984 199.856 99.659 198.053 103.371C197.902 103.686 197.785 103.919 197.745 104.019C194.695 111.187 191.634 117.191 188.386 122.371C186.545 125.309 184.351 128.232 181.678 131.31C179.557 133.751 177.006 136.445 173.533 137.511C168.341 139.105 163.017 136.795 158.319 134.756L157.848 134.55C150.844 131.519 144.034 127.356 137.598 122.176L135.021 128.818C135.001 128.868 134.953 128.997 134.948 129.043C134.952 129.036 134.972 129.048 134.994 129.061L134.988 129.049ZM210.278 86.3286C210.278 86.3286 210.283 86.3357 210.284 86.3409C210.284 86.3409 210.28 86.3338 210.278 86.3286Z" fill="#EFEBE7"/>
<path d="M67.7832 88.4132C62.3511 85.277 58.5296 81.795 55.8564 77.5651C52.4712 72.2077 50.6769 65.6458 50.8042 59.0924C50.8226 58.107 50.8876 57.1092 50.9891 56.1238C51.2948 53.2337 51.956 50.3784 52.9593 47.6421C57.5265 35.1992 66.1877 24.2682 69.453 20.4133C68.9214 19.9797 68.5678 19.4043 68.4206 18.7209C67.7413 15.5241 71.6273 10.4201 74.0098 7.6631C74.6965 6.86704 75.5937 6.34974 76.5361 6.20801C77.6785 6.0376 78.3674 6.44841 78.7482 6.8255C79.4517 7.52875 79.6271 8.61724 79.6465 9.42349C80.7588 9.16145 81.623 9.30661 82.2137 9.85731C82.9665 10.5584 83.0308 11.7181 82.9376 12.621C86.5529 11.4058 87.9773 13.2591 88.248 13.6906C88.873 14.4315 88.845 15.4638 88.1569 16.7615C87.4745 18.0493 86.4762 19.1504 85.5951 20.0789C83.9648 21.798 82.0431 23.5148 79.5515 25.4924C79.3184 25.6767 79.0656 25.8497 78.7969 26.0047C77.7822 26.5896 76.7862 26.7789 75.9331 26.5616C73.6482 29.3313 65.3927 39.7713 61.3727 50.7216C59.2314 56.549 59.2181 63.1245 61.336 68.755C63.2231 73.7717 66.8357 77.6835 73.0464 81.4308C73.1578 81.4951 73.4648 81.6898 73.9224 81.9715C84.1857 88.3163 86.7807 89.6704 87.372 89.872C87.578 89.8556 87.7884 89.9377 87.9293 90.1021C88.1292 90.331 88.1464 90.6643 87.9787 90.9169C87.8691 91.0765 87.778 91.2117 87.5466 91.2266C86.567 91.7051 81.6814 94.0915 80.9638 94.4416C80.3756 94.9232 79.2999 94.5468 76.3781 92.9037C76.2111 92.8072 76.0898 92.7372 76.0238 92.7078C75.2017 92.2856 74.3758 91.87 73.5485 91.4491C72.2736 90.8048 70.9987 90.1604 69.7352 89.4964C69.0615 89.1424 68.4118 88.7848 67.786 88.4235L67.7832 88.4132ZM70.8006 19.6756C70.9644 19.7702 71.082 19.9298 71.1215 20.1186C71.1652 20.3229 71.1116 20.5367 70.9715 20.696C69.0282 22.9421 59.0879 34.8251 54.2148 48.1004C53.2482 50.7356 52.6104 53.4821 52.3197 56.263C52.2189 57.2095 52.1578 58.1703 52.14 59.1167C52.0163 65.4143 53.7398 71.7126 56.9857 76.8498C59.837 81.3617 64.0894 85.0051 70.3542 88.3031C71.6112 88.9633 72.8795 89.6038 74.1446 90.2425C74.9738 90.6601 75.803 91.0776 76.6284 91.5017C76.6991 91.5382 76.8418 91.6163 77.0285 91.7241C79.4124 93.0655 80.1253 93.2761 80.3388 93.277C80.8454 92.9973 82.1622 92.3508 85.7818 90.5833C83.9376 89.654 80.3686 87.5279 73.2122 83.1034C72.761 82.8255 72.4555 82.6361 72.346 82.5685C65.8606 78.6538 62.077 74.5385 60.0778 69.2168C57.8184 63.2032 57.8278 56.4682 60.1111 50.251C64.409 38.5394 73.4346 27.4388 75.1985 25.3294C75.3957 25.0938 75.7306 25.0207 76.0087 25.1594C76.7298 25.5146 77.6405 25.1099 78.1199 24.8319C78.3307 24.709 78.5303 24.5752 78.7102 24.4301C81.1499 22.4969 83.0287 20.8163 84.6138 19.1454C85.4369 18.2795 86.3608 17.2621 86.9665 16.1222C87.3791 15.3469 87.4589 14.8077 87.203 14.5245C87.1647 14.4849 87.1354 14.4374 87.1093 14.3918C87.0725 14.3269 86.009 12.5901 82.3183 14.2991C82.0794 14.4102 81.797 14.3696 81.5956 14.1965C81.3974 14.0252 81.3175 13.7475 81.3937 13.4945C81.5923 12.8403 81.8289 11.3257 81.2929 10.824C80.9579 10.5039 80.2003 10.5601 79.1643 10.9624C78.9439 11.0491 78.6972 11.0072 78.5059 10.8618C78.3198 10.7151 78.2256 10.4772 78.26 10.2437C78.3249 9.78317 78.3792 8.34232 77.7971 7.76162C77.7107 7.67677 77.4434 7.4133 76.732 7.51806C76.1061 7.611 75.4982 7.96774 75.019 8.52541C72.1497 11.8532 69.2517 16.1996 69.7298 18.4283C69.8488 18.9863 70.168 19.3715 70.7501 19.642C70.7665 19.6515 70.7828 19.6609 70.7992 19.6704L70.8006 19.6756ZM80.3369 93.2803C80.2909 93.2843 80.1668 93.3175 80.063 93.4367L80.0729 93.4424C80.119 93.4079 80.1967 93.3566 80.3369 93.2803Z" fill="#EFEBE7"/>
<path d="M80.2126 23.9386C80.1701 23.914 80.1261 23.8843 80.0892 23.8498C79.0364 22.8663 73.9129 17.8639 75.5543 15.2251C75.7194 14.8181 76.1926 14.3618 76.8335 14.1595C78.2465 13.7172 80.7509 14.3506 84.6491 19.8863C84.8631 20.189 84.7891 20.6048 84.4864 20.8189C84.1837 21.0329 83.7659 20.9621 83.5537 20.6561C80.1302 15.7964 78.2026 15.3519 77.5296 15.3826C77.0654 15.4073 76.8508 15.6504 76.7956 15.7233C76.7766 15.7866 76.7477 15.8442 76.7104 15.9013C75.8673 17.1269 78.7749 20.7845 81.0039 22.8709C81.2735 23.1227 81.2871 23.5456 81.0354 23.8152C80.818 24.0479 80.4747 24.0899 80.2126 23.9386Z" fill="#EFEBE7"/>
<path d="M203.883 99.2365C203.644 99.0984 203.396 98.9293 203.146 98.7278L198.648 94.585C198.377 94.3365 198.36 93.9118 198.61 93.637C198.859 93.3655 199.28 93.3467 199.559 93.599L204.02 97.7126C204.598 98.1726 205.138 98.4101 205.501 98.3489C205.578 98.3365 205.814 98.2982 206.062 97.9131C206.391 97.404 206.43 96.7013 206.17 96.0314C204.669 92.1854 199.119 89.0946 198.45 88.8223C198.137 88.7289 197.932 88.4183 197.976 88.0853C198.03 87.7191 198.366 87.4629 198.732 87.5171C199.267 87.5899 205.643 91.0133 207.416 95.5452C207.833 96.616 207.747 97.7718 207.188 98.6417C206.814 99.2209 206.306 99.5786 205.719 99.6722C205.16 99.764 204.545 99.6186 203.886 99.2384L203.883 99.2365Z" fill="#EFEBE7"/>
<path d="M57.6832 133.736L53.3678 136.534L42.5452 143.998C42.5452 143.998 45.0519 146.852 51.5538 143.686C51.913 143.518 51.9079 148.15 51.9275 148.388C51.9606 149.08 52.009 149.768 52.0778 150.458C52.1918 151.835 52.3556 153.201 52.5842 154.56C52.8098 155.94 53.1559 157.262 53.4759 158.622C53.7896 159.948 54.4318 161.249 54.9592 162.514C55.2615 163.239 55.6042 163.94 56.0429 164.564C55.8502 164.951 55.7877 165.4 55.9388 165.933C56.1252 166.639 56.6337 167.203 57.2415 167.384C57.8728 167.569 58.4462 167.249 58.9268 166.81C60.7125 167.304 62.7446 166.712 64.4966 165.902C69.0972 163.775 72.2609 159.748 75.2283 155.773C79.431 150.136 82.8881 143.989 86.1311 137.767C87.0526 135.997 88.1679 134.33 88.9677 132.498C89.7443 130.714 89.5929 128.692 90.3762 126.964C90.7553 126.126 91.1228 125.285 91.5202 124.453C91.865 123.735 92.4832 122.921 92.6884 122.157C92.7489 122.052 93.6407 120.016 93.6347 120.004L91.3623 119.74L89.2072 118.994C88.2639 121.324 69.2682 159.287 62.3427 161.068C61.1985 161.325 60.054 160.598 59.6778 159.494C59.388 158.619 59.0342 157.227 58.7263 155.044C58.2636 151.881 57.8793 147.046 57.8883 139.751C57.8944 138.803 57.836 135.37 57.6912 133.745L57.6832 133.736Z" fill="#EFEBE7"/>
<path d="M93.6921 172.838L94.679 177.885L97.565 190.713C97.565 190.713 101.146 189.451 100.64 182.24C100.616 181.841 104.912 183.579 105.138 183.648C105.794 183.874 106.447 184.09 107.114 184.282C108.433 184.69 109.759 185.05 111.109 185.344C112.474 185.651 113.83 185.823 115.207 186.032C116.554 186.234 118.001 186.126 119.37 186.108C120.154 186.097 120.934 186.041 121.674 185.87C121.96 186.192 122.355 186.416 122.904 186.479C123.629 186.57 124.341 186.313 124.735 185.811C125.143 185.295 125.06 184.644 124.835 184.034C125.956 182.562 126.17 180.458 126.071 178.527C125.901 175.083 124.463 171.824 122.885 168.807C122.541 168.154 122.186 167.521 121.83 166.874C119.522 162.746 117.407 158.419 114.514 154.682C113.483 153.344 107.65 144.826 106.535 143.549C106.457 143.456 104.907 141.867 104.892 141.871L103.798 143.878L102.302 145.6C104.112 147.344 121.712 171.633 120.778 178.721C120.59 179.879 119.492 180.669 118.322 180.606C117.401 180.546 115.98 180.358 113.839 179.83C110.733 179.081 106.101 177.63 99.3397 174.897C98.4596 174.537 95.2587 173.31 93.694 172.834L93.6921 172.838Z" fill="#EFEBE7"/>
<path d="M175.165 127.912L180.235 113.978L139.381 99.1052L181.258 83.8629L176.186 69.9262L135.329 84.801L157.614 46.2029L144.771 38.788L123.031 76.4425L115.294 32.551L100.689 35.1268L108.24 77.9462L74.0989 49.2969L64.5664 60.6553L97.8752 88.6054L53.3057 88.6032L53.3054 103.434L96.7885 103.433L62.6435 132.082L72.1754 143.439L105.483 115.491L97.7454 159.386L112.349 161.959L119.898 119.139L142.182 157.734L155.023 150.322L133.285 112.666L175.165 127.912Z" fill="#EFB5D4"/>
<path d="M108.489 96.4542L119.532 82.1764L127.936 87.1638L117.302 101.324L108.489 96.4542ZM119.864 83.9318L110.504 96.0361L116.93 99.5845L125.966 87.5506L119.864 83.9318Z" fill="#1A1A1A"/>
<path d="M90.4852 71.4958C90.4852 71.4958 105.652 62.9536 110.061 82.7979C110.061 82.7979 97.1805 86.3129 90.4852 71.4958Z" fill="#EFEBE7"/>
<path d="M103.964 74.0489C104.62 76.4984 103.166 79.0179 100.716 79.6742C98.2667 80.3306 95.7473 78.876 95.0909 76.4264C94.4345 73.9768 95.8892 71.4574 98.3387 70.801C100.788 70.1447 103.308 71.5993 103.964 74.0489Z" fill="#1A1A1A"/>
<path d="M130.892 94.8244C130.892 94.8244 146.059 86.2822 150.468 106.127C150.468 106.127 137.587 109.642 130.892 94.8244Z" fill="#EFEBE7"/>
<path d="M144.371 97.378C145.027 99.8276 143.572 102.347 141.123 103.003C138.673 103.66 136.154 102.205 135.497 99.7555C134.841 97.306 136.296 94.7865 138.745 94.1301C141.195 93.4738 143.714 94.9284 144.371 97.378Z" fill="#1A1A1A"/>
<path d="M104.896 109.267C104.778 109.199 104.667 109.127 104.559 109.042C102.869 107.77 102.596 105.148 103.72 101.022C103.817 100.664 104.182 100.455 104.541 100.553C104.898 100.654 105.108 101.016 105.01 101.374C104.073 104.813 104.194 107.093 105.363 107.974C107.362 109.499 112.37 107.074 114.124 106.011C114.438 105.822 114.849 105.919 115.042 106.236C115.235 106.553 115.132 106.965 114.818 107.155C114.119 107.577 108.105 111.116 104.898 109.264L104.896 109.267Z" fill="#1A1A1A"/>
</svg>
