<svg width="424" height="368" viewBox="0 0 424 368" fill="none" xmlns="http://www.w3.org/2000/svg">
<path d="M392.783 168.253C385.636 159.15 377.601 151.268 369.05 144.357C409.174 100.465 418.128 43.2373 388.667 15.248C358.623 -13.2964 300.091 -0.599214 257.938 43.5981C251.403 50.4533 245.731 57.683 240.781 65.0793C221.748 32.6078 182.292 11.2376 137.649 13.3191C76.5735 16.1638 29.081 61.7489 31.5835 115.119C32.9877 144.968 49.7269 170.917 74.8913 187.5C67.4532 191.552 60.1402 196.256 53.1053 201.765C2.33168 241.522 -15.0748 303.995 14.2327 341.282C43.5401 378.582 108.467 376.584 159.254 336.813C175.146 324.366 187.769 309.698 196.709 294.281C200.268 300.456 204.189 306.52 208.749 312.321C254.017 369.923 331.915 384.355 382.731 344.57C433.546 304.786 438.064 225.855 392.783 168.253Z" fill="#427665"/>
</svg>
