<svg width="96" height="129" viewBox="0 0 96 129" fill="none" xmlns="http://www.w3.org/2000/svg">
<path d="M48.4385 128.623C48.4385 128.623 55.9019 128.355 59.6573 128.239L62.0193 128.296L64.4854 64.6073C63.0117 64.0814 61.5409 63.609 60.0524 63.1812L58.4391 104.833C58.2757 104.812 58.1242 104.806 57.9816 104.806C57.319 104.812 56.8348 105.085 56.5971 105.727C56.3861 106.307 56.3921 107.005 56.8288 107.477C57.0754 107.742 57.4141 107.902 57.7587 107.997C57.937 108.051 58.1213 108.08 58.3114 108.086L57.6815 124.407L57.0754 124.133C56.3445 123.792 55.5928 123.491 54.8085 123.307C48.2126 121.762 48.4385 128.62 48.4385 128.62V128.623Z" fill="#EFEBE7"/>
<path d="M31.6221 128.623C31.6221 128.623 39.0914 128.355 42.8409 128.239L45.2089 128.296L47.6749 64.6073C46.1983 64.0814 44.7246 63.609 43.2361 63.1812L41.6376 104.39C41.5366 104.378 41.4445 104.378 41.3524 104.378C40.6958 104.378 40.2056 104.658 39.9739 105.299C39.757 105.873 39.7688 106.577 40.2055 107.049C40.4462 107.314 40.7879 107.474 41.1355 107.569C41.2574 107.602 41.3821 107.626 41.5099 107.644L40.8622 124.407L40.2561 124.133C39.5252 123.792 38.7735 123.491 37.9891 123.307C31.3992 121.762 31.6191 128.62 31.6191 128.62L31.6221 128.623Z" fill="#EFEBE7"/>
<path d="M28.4192 112.493C28.5707 112.493 28.7223 112.469 28.8738 112.418C29.4532 112.225 29.9077 111.673 30.0593 110.971C30.3861 109.462 30.092 108.009 29.8038 106.604C29.7622 106.399 29.7206 106.197 29.6819 105.992C29.367 104.367 29.0075 102.527 28.8589 100.712C28.6628 98.3412 28.6658 95.9227 28.8679 93.5251C28.96 92.4287 29.0967 91.3294 29.269 90.2598C29.991 85.8062 30.1276 80.8593 29.6819 75.1429C29.3076 70.3505 28.2885 63.3595 23.7606 58.0234C23.6061 57.8422 23.3475 57.7857 23.1307 57.8897L16.3982 61.1193C16.2526 61.1906 16.1456 61.3243 16.113 61.4848C16.0773 61.6422 16.1189 61.8086 16.2258 61.9334C18.362 64.4648 20.8667 69.884 21.3094 75.7936C21.3718 76.6017 21.4193 77.4158 21.452 78.215C21.66 83.3907 21.2797 88.394 20.317 93.0913C20.1714 93.7984 20.0199 94.5026 19.8654 95.2097C19.5089 96.8527 19.1405 98.5551 18.885 100.255C18.5196 102.7 18.5463 105.199 18.9593 107.685C19.0633 108.309 19.1762 108.835 19.3009 109.242C19.4733 109.839 19.9843 110.252 20.6082 110.288C21.2321 110.324 21.7967 109.973 22.0403 109.391C22.174 109.085 22.2691 108.63 22.3493 108.092C22.4414 108.428 22.5394 108.764 22.6375 109.103C22.7771 109.578 22.9167 110.065 23.0504 110.573C23.202 111.126 23.6833 111.554 24.2241 111.619C25.0679 111.699 25.6769 111.268 25.8582 110.475C25.9295 110.16 25.977 109.836 26.0097 109.513C26.1493 109.908 26.2979 110.294 26.4583 110.674C26.6307 111.09 26.8654 111.658 27.3437 112.056C27.6735 112.344 28.0478 112.493 28.4222 112.493H28.4192ZM23.2138 59.0128C27.3258 64.0785 28.2766 70.6684 28.6331 75.2231C29.0728 80.8563 28.9422 85.72 28.2321 90.0905C28.0538 91.1898 27.9141 92.3129 27.822 93.4359C27.614 95.893 27.6111 98.3709 27.8131 100.798C27.9676 102.67 28.3301 104.542 28.651 106.194C28.6896 106.399 28.7341 106.607 28.7757 106.815C29.052 108.173 29.3135 109.456 29.0343 110.749C28.9629 111.078 28.7668 111.349 28.544 111.42C28.3835 111.473 28.2112 111.417 28.024 111.254C27.7566 111.031 27.6022 110.689 27.4269 110.267C26.7822 108.719 26.3008 107.061 25.9889 105.335C25.9413 105.071 25.6977 104.887 25.4332 104.904C25.1659 104.925 24.9549 105.142 24.946 105.412C24.9282 105.98 24.949 106.568 24.9698 107.139C25.0084 108.19 25.05 109.278 24.8301 110.237C24.7677 110.517 24.64 110.6 24.334 110.57C24.23 110.558 24.0993 110.431 24.0636 110.297C23.9299 109.786 23.7873 109.29 23.6446 108.805C23.1574 107.127 22.7355 105.677 22.8692 104.061C22.893 103.793 22.7088 103.553 22.4444 103.499C22.18 103.449 21.9215 103.603 21.8412 103.862C21.6867 104.364 21.5976 105.267 21.4995 106.221C21.3955 107.24 21.2678 108.508 21.0687 108.972C20.9618 109.227 20.733 109.233 20.6677 109.23C20.5815 109.224 20.3794 109.186 20.3081 108.936C20.1982 108.565 20.0913 108.083 19.9962 107.501C19.601 105.124 19.5773 102.735 19.9249 100.4C20.1745 98.7334 20.5398 97.0518 20.8934 95.4236C21.0479 94.7135 21.2024 94.0034 21.348 93.2933C22.3285 88.5128 22.7147 83.4233 22.5038 78.1645C22.4711 77.3534 22.4236 76.5244 22.3582 75.7044C21.9215 69.9019 19.6486 64.6638 17.45 61.7729L23.2168 59.0069L23.2138 59.0128Z" fill="#EFEBE7"/>
<path d="M84.9294 108.196C85.0988 108.196 85.2682 108.166 85.4346 108.104C86.005 107.89 86.4388 107.32 86.5635 106.612C86.8339 105.091 86.4834 103.65 86.1447 102.257C86.0941 102.055 86.0466 101.853 85.9991 101.651C85.6217 100.043 85.1969 98.2191 84.977 96.4038C84.6918 94.0418 84.6056 91.6262 84.7185 89.2197C84.769 88.1233 84.8641 87.0211 84.9978 85.9396C85.5534 81.4621 85.5029 76.5153 84.8433 70.8167C84.2907 66.0421 83.0102 59.0957 78.2831 53.929C78.1227 53.7537 77.8612 53.7091 77.6503 53.8191L71.0425 57.2982C70.8999 57.3755 70.7989 57.5121 70.7692 57.6726C70.7425 57.833 70.79 57.9964 70.8999 58.1182C73.1312 60.5694 75.835 65.8876 76.5005 71.7793C76.5926 72.5696 76.6698 73.3837 76.7352 74.1948C77.1393 79.3556 76.9431 84.3708 76.1588 89.1038C76.0399 89.8169 75.9151 90.5269 75.7874 91.24C75.4932 92.8949 75.1872 94.6063 74.9971 96.3176C74.7238 98.7747 74.8426 101.27 75.3506 103.739C75.4784 104.36 75.6121 104.88 75.7488 105.281C75.9419 105.873 76.4708 106.265 77.0947 106.28C77.7394 106.303 78.2712 105.92 78.4911 105.329C78.6129 105.017 78.6902 104.559 78.7496 104.019C78.8536 104.351 78.9635 104.684 79.0764 105.02C79.2309 105.489 79.3914 105.971 79.5429 106.47C79.7122 107.017 80.2114 107.427 80.7551 107.471C81.6167 107.519 82.1931 107.067 82.3446 106.265C82.404 105.947 82.4397 105.623 82.4575 105.299C82.612 105.688 82.7754 106.069 82.9477 106.443C83.1349 106.85 83.3934 107.412 83.8836 107.792C84.2075 108.056 84.567 108.19 84.9265 108.19L84.9294 108.196ZM77.7781 54.9451C82.0772 59.8533 83.2746 66.4046 83.8005 70.9415C84.4512 76.5539 84.5016 81.4205 83.9549 85.8148C83.8182 86.92 83.7202 88.052 83.6697 89.1751C83.5538 91.6381 83.643 94.1131 83.9371 96.5345C84.163 98.4063 84.5967 100.257 84.977 101.894C85.0246 102.099 85.0751 102.304 85.1256 102.509C85.4524 103.855 85.7643 105.13 85.5296 106.431C85.4702 106.764 85.286 107.04 85.0662 107.121C84.9117 107.18 84.7334 107.129 84.5403 106.975C84.2669 106.761 84.0916 106.413 83.9074 106.012C83.2062 104.491 82.6625 102.851 82.2852 101.137C82.2258 100.872 81.9733 100.7 81.7148 100.727C81.4474 100.756 81.2453 100.982 81.2453 101.253C81.2453 101.82 81.2929 102.408 81.3345 102.976C81.4147 104.025 81.4949 105.109 81.3136 106.078C81.2602 106.357 81.1354 106.443 80.8294 106.428C80.7254 106.419 80.5887 106.301 80.5471 106.167C80.3956 105.662 80.2322 105.171 80.0747 104.693C79.5251 103.032 79.0497 101.597 79.124 99.978C79.1359 99.7106 78.9427 99.4759 78.6783 99.4343C78.4109 99.3927 78.1583 99.5591 78.09 99.8176C77.9563 100.326 77.8969 101.232 77.8375 102.191C77.7721 103.214 77.6919 104.485 77.5077 104.955C77.4096 105.213 77.1928 105.228 77.1155 105.228C77.0323 105.228 76.8244 105.195 76.7441 104.949C76.6193 104.583 76.4975 104.105 76.3786 103.525C75.8943 101.166 75.7815 98.7807 76.04 96.4305C76.2242 94.7548 76.5272 93.0613 76.8184 91.4242C76.9462 90.7082 77.0739 89.9921 77.1928 89.2761C77.992 84.46 78.1911 79.3586 77.781 74.1146C77.7157 73.2887 77.6354 72.4657 77.5433 71.6605C76.8897 65.8787 74.4207 60.7269 72.1181 57.9221L77.7781 54.9421V54.9451Z" fill="#EFEBE7"/>
<path d="M0.214684 59.4702C-1.70464 51.7543 9.41912 42.0477 26.6366 35.0121C24.7916 16.5022 28.1608 2.13104 35.8738 0.214678C43.5897 -1.70465 53.2963 9.41914 60.3319 26.6366C78.8418 24.7916 93.213 28.1608 95.1293 35.8767C97.0486 43.5927 85.9249 53.2993 68.7074 60.3348C70.5524 78.8447 67.1832 93.2159 59.4672 95.1323C51.7513 97.0516 42.0447 85.9278 35.0092 68.7103C16.4992 70.5554 2.12807 67.1861 0.211708 59.4732L0.214684 59.4702Z" fill="#E47249"/>
<path d="M52.8879 56.7493C61.088 53.8621 66.0125 48.987 66.082 48.9049C66.2855 48.6732 66.2576 48.334 66.0224 48.1478C65.7882 47.9645 65.4381 48.0014 65.2356 48.2264C65.0514 48.4161 52.4663 60.7178 34.1273 57.082C33.8236 57.0192 33.5205 57.2091 33.4468 57.5009C33.373 57.7926 33.5579 58.0766 33.8606 58.1365C41.2413 59.6012 47.7161 58.5703 52.8879 56.7493Z" fill="#1A1A1A"/>
<path d="M58.5997 39.9621C58.9146 41.2307 59.9219 42.0715 60.8488 41.8428C61.7758 41.611 62.272 40.3958 61.9571 39.1301C61.6421 37.8615 60.6349 37.0207 59.7079 37.2494C58.7809 37.4812 58.2848 38.6964 58.5997 39.9621Z" fill="#1A1A1A"/>
<path d="M32.255 46.5103C32.57 47.779 33.5771 48.6198 34.5041 48.391C35.4311 48.1593 35.9273 46.9441 35.6123 45.6784C35.2974 44.4127 34.2902 43.5689 33.3633 43.7977C32.4363 44.0294 31.9401 45.2446 32.255 46.5103Z" fill="#1A1A1A"/>
<path d="M39.3084 33.9187C39.3827 33.9187 39.457 33.9039 39.5283 33.8712C44.2612 31.6785 47.3393 29.0253 48.9407 25.7631C49.2853 25.0589 49.5616 24.325 49.8261 23.615C50.0637 22.9821 50.3074 22.3285 50.5956 21.7194C52.3812 17.9372 55.9941 15.3494 59.292 13.3171C59.5386 13.1656 59.6158 12.8418 59.4643 12.5922C59.3127 12.3456 58.9889 12.2683 58.7393 12.4199C55.3107 14.5323 51.5463 17.239 49.6418 21.2678C49.3358 21.9185 49.0833 22.5929 48.8396 23.2436C48.5841 23.9299 48.3168 24.64 47.9959 25.2966C46.5044 28.3331 43.5898 30.8258 39.0856 32.9115C38.8211 33.0333 38.7082 33.3453 38.83 33.6097C38.9192 33.8028 39.1093 33.9158 39.3084 33.9158V33.9187Z" fill="#1A1A1A"/>
<path d="M35.4667 30.0769C35.541 30.0769 35.6152 30.0621 35.6865 30.0294C40.4195 27.8367 43.4976 25.1835 45.099 21.9213C45.4437 21.2171 45.72 20.4832 45.9844 19.7732C46.2221 19.1403 46.4657 18.4867 46.7539 17.8776C48.5395 14.0954 52.1524 11.5076 55.4503 9.47535C55.6969 9.32382 55.7741 8.99997 55.6226 8.7504C55.4711 8.5038 55.1473 8.42654 54.8977 8.57807C51.469 10.6905 47.7046 13.3942 45.8002 17.426C45.4941 18.0767 45.2416 18.7511 44.998 19.4018C44.7425 20.0881 44.475 20.7982 44.1542 21.4548C42.6627 24.4913 39.748 26.984 35.2438 29.0697C34.9794 29.1915 34.8666 29.5035 34.9884 29.7679C35.0775 29.9611 35.2676 30.0739 35.4667 30.0739V30.0769Z" fill="#1A1A1A"/>
<path d="M31.6221 26.2356C31.6963 26.2356 31.7706 26.2208 31.8419 26.1881C36.5749 23.9954 39.6529 21.3422 41.2543 18.0799C41.599 17.3758 41.8753 16.6419 42.1397 15.9318C42.3774 15.299 42.6211 14.6454 42.9093 14.0363C44.6949 10.2541 48.3078 7.66627 51.6057 5.63404C51.8523 5.48251 51.9295 5.15866 51.778 4.90909C51.6265 4.66249 51.3026 4.58523 51.053 4.73676C47.6244 6.84921 43.86 9.5529 41.9556 13.5847C41.6495 14.2353 41.397 14.9098 41.1534 15.5605C40.8979 16.2468 40.6304 16.9569 40.3096 17.6135C38.8181 20.6499 35.9034 23.1427 31.3992 25.2314C31.1348 25.3532 31.0219 25.6652 31.1437 25.9296C31.2328 26.1227 31.423 26.2356 31.6221 26.2356Z" fill="#1A1A1A"/>
</svg>
