<svg width="625" height="656" viewBox="0 0 625 656" fill="none" xmlns="http://www.w3.org/2000/svg">
<path d="M84.38 154.93C113.64 165.78 144.15 163.07 174 160.82C202.3 158.69 223.67 121.89 218.75 88.9C217.09 77.74 215.32 66.6 213.44 55.48C211.61 44.66 209.57 33.88 206.67 17.81C252.11 38.45 275.18 94.09 331.13 80.8C378.96 69.44 406.96 29.74 442.04 0C441.47 10 440.876 16.5 441.47 25.43C447 108.5 466.59 155.56 551.26 169.84C589.43 176.28 627.78 176.79 666.95 181.81C634.88 191.05 602.47 199.29 570.8 209.73C487.92 237.06 474.3 291.83 532.9 356.87C548.51 374.2 562.27 393.2 576.88 411.44L577.14 411.13C553.18 403.65 529.69 393.4 505.16 389.21C427.05 375.88 391.5 408.39 381.25 496.5C375.22 548.31 376.69 601.46 380.54 655.2C372.4 628.83 364.83 602.26 355.94 576.14C347.84 552.36 338.71 528.91 329.31 505.61C290.04 408.2 234.25 391.18 124.04 425.35C82.62 438.19 42.51 455.24 0 467.21C38.34 436.22 79.6 409.99 117.54 379.11C194.92 316.12 171.23 272.54 124.95 217.13C109.15 198.22 86.73 184.83 67.36 168.93C73.05 164.27 78.72 159.6 84.38 154.93Z" fill="#EFB5D4"/>
</svg>
