<svg width="420" height="420" viewBox="0 0 420 420" fill="none" xmlns="http://www.w3.org/2000/svg">
<rect width="420" height="420" rx="12" fill="#CEF17B"/>
<path d="M315.213 191.765C311.889 187.952 307.772 186.046 302.866 186.046C299.039 186.046 295.617 187.196 292.603 189.5C292.032 189.936 291.161 189.548 291.161 188.828V187.557C291.161 187.1 290.792 186.731 290.336 186.731H283.779C283.323 186.731 282.954 187.1 282.954 187.557V228.393C282.954 228.849 283.323 229.218 283.779 229.218H290.336C290.792 229.218 291.161 228.849 291.161 228.393V204.612C291.161 201.82 292.18 199.404 294.218 197.364C296.256 195.324 298.668 194.304 301.458 194.304C304.247 194.304 306.686 195.324 308.698 197.364C310.736 199.404 311.755 201.822 311.755 204.612V228.393C311.755 228.849 312.124 229.218 312.578 229.218H319.176C319.631 229.218 320 228.849 320 228.393V204.612C320 199.646 318.404 195.365 315.213 191.767V191.765Z" fill="#084735"/>
<path d="M235.963 186.731H229.365C228.909 186.731 228.54 187.1 228.54 187.556V189.978C228.54 190.7 227.667 191.085 227.104 190.631C223.306 187.575 218.972 186.048 214.1 186.048C208.175 186.048 203.147 188.222 199.018 192.572C194.89 196.867 192.823 202.02 192.823 208.035C192.823 214.05 194.89 219.163 199.018 223.458C203.147 227.754 208.175 229.901 214.1 229.901C218.891 229.901 223.144 228.474 226.855 225.62C227.448 225.162 228.328 225.612 228.196 226.35C227.647 229.461 226.433 232.055 224.56 234.13C222.118 236.815 218.861 238.157 214.785 238.157C210.178 238.157 206.406 236.113 203.465 232.027C203.201 231.66 202.693 231.552 202.314 231.8L196.749 235.44C196.36 235.693 196.257 236.219 196.53 236.592C198.639 239.465 201.198 241.787 204.206 243.554C207.559 245.46 211.084 246.413 214.785 246.413C220.792 246.413 225.953 244.239 230.27 239.889C234.616 235.594 236.787 230.479 236.787 224.545V187.556C236.787 187.1 236.419 186.731 235.963 186.731ZM224.479 217.739C221.796 220.424 218.565 221.767 214.785 221.767C211.005 221.767 207.774 220.424 205.092 217.739C202.409 215.056 201.07 211.82 201.07 208.035C201.07 204.251 202.409 201.055 205.092 198.37C207.774 195.685 211.031 194.302 214.785 194.302C218.539 194.302 221.77 195.658 224.479 198.37C227.187 201.081 228.54 204.304 228.54 208.035C228.54 211.767 227.187 215.028 224.479 217.739Z" fill="#084735"/>
<path d="M183.86 192.531C179.541 188.207 174.367 186.048 168.334 186.048C162.301 186.048 157.125 188.207 152.808 192.531C148.517 196.826 146.372 201.994 146.372 208.035C146.372 214.077 148.517 219.244 152.808 223.539C157.125 227.782 162.299 229.901 168.334 229.901C175.927 229.901 182.016 226.667 186.605 220.197C186.87 219.824 186.765 219.307 186.382 219.056L180.843 215.413C180.464 215.164 179.956 215.269 179.691 215.638C176.751 219.725 172.965 221.767 168.334 221.767C165.356 221.767 162.662 220.881 160.249 219.11C158.142 217.563 156.596 215.596 155.614 213.209C155.399 212.692 155.796 212.142 156.357 212.142H189.281C189.682 212.142 190.024 211.856 190.083 211.459C190.251 210.319 190.334 209.177 190.334 208.035C190.334 202.02 188.177 196.853 183.86 192.531ZM180.308 203.927H156.357C155.796 203.927 155.399 203.379 155.616 202.862C156.582 200.542 158.126 198.589 160.249 197.001C162.607 195.202 165.303 194.302 168.334 194.302C171.364 194.302 174.059 195.202 176.417 197.001C178.524 198.524 180.069 200.477 181.052 202.86C181.267 203.379 180.87 203.927 180.308 203.927Z" fill="#084735"/>
<path d="M137.688 192.572C133.531 188.222 128.517 186.048 122.644 186.048C117.718 186.048 113.387 187.567 109.653 190.605C109.09 191.063 108.205 190.678 108.205 189.952V173.825C108.205 173.369 107.836 173 107.382 173H100.825C100.369 173 100 173.369 100 173.825V228.393C100 228.849 100.369 229.218 100.825 229.218H107.382C107.836 229.218 108.205 228.849 108.205 228.393V226.091C108.205 225.369 109.08 224.984 109.645 225.434C113.38 228.413 117.714 229.902 122.644 229.902C128.544 229.902 133.56 227.754 137.688 223.459C141.845 219.137 143.924 213.996 143.924 208.036C143.924 202.076 141.845 196.975 137.688 192.572ZM131.615 217.74C128.933 220.425 125.716 221.768 121.962 221.768C118.208 221.768 114.948 220.425 112.268 217.74C109.56 215.028 108.205 211.794 108.205 208.036C108.205 204.278 109.56 201.082 112.268 198.37C114.977 195.659 118.208 194.302 121.962 194.302C125.716 194.302 128.906 195.659 131.615 198.37C134.323 201.082 135.677 204.304 135.677 208.036C135.677 211.767 134.323 215.028 131.615 217.74Z" fill="#084735"/>
<path d="M259.831 223.818C270.124 223.893 278.49 215.564 278.49 205.276V187.594C278.49 187.117 278.105 186.732 277.629 186.732H271.045C270.569 186.732 270.184 187.117 270.184 187.594V205.103C270.184 210.705 265.758 215.396 260.165 215.501C254.442 215.609 249.752 210.981 249.752 205.276V187.594C249.752 187.117 249.367 186.732 248.891 186.732H242.307C241.831 186.732 241.446 187.117 241.446 187.594V205.043C241.446 215.268 249.616 223.743 259.831 223.816V223.818Z" fill="#084735"/>
<path d="M277.112 229.537C277.495 229.92 277.434 230.563 276.985 230.864C272.116 234.123 266.262 236.019 259.968 236.019C253.674 236.019 247.817 234.121 242.949 230.864C242.497 230.561 242.436 229.92 242.821 229.535L247.592 224.759C247.87 224.481 248.297 224.427 248.635 224.625C252.035 226.633 255.918 227.704 259.97 227.704C264.021 227.704 267.905 226.633 271.304 224.627C271.64 224.429 272.07 224.485 272.345 224.761L277.114 229.535L277.112 229.537Z" fill="#084735"/>
</svg>
