<svg width="643" height="360" viewBox="0 0 643 360" fill="none" xmlns="http://www.w3.org/2000/svg">
<rect width="643" height="360" rx="12" fill="#E6E2DE"/>
<path d="M121.12 270H101.92L96.544 253.872H60.832L55.456 270H36.384L67.744 180.4H89.632L121.12 270ZM78.752 200.752L66.464 237.36H91.04L78.752 200.752ZM173.382 213.552V206H189.894V270H173.382V262.448C168.39 268.72 161.478 271.792 152.518 271.792C143.942 271.792 136.646 268.592 130.502 262.064C124.486 255.536 121.414 247.472 121.414 238C121.414 228.528 124.486 220.592 130.502 214.064C136.646 207.536 143.942 204.208 152.518 204.208C161.478 204.208 168.39 207.28 173.382 213.552ZM142.918 251.056C146.246 254.384 150.47 256.048 155.59 256.048C160.71 256.048 164.934 254.384 168.262 251.056C171.718 247.6 173.382 243.248 173.382 238C173.382 232.752 171.718 228.4 168.262 225.072C164.934 221.616 160.71 219.952 155.59 219.952C150.47 219.952 146.246 221.616 142.918 225.072C139.59 228.4 137.926 232.752 137.926 238C137.926 243.248 139.59 247.6 142.918 251.056Z" fill="#1A1A1A"/>
<path d="M46 311.96V310H47.32V319.6C47.32 321.04 46.82 322.18 45.84 323C44.86 323.82 43.68 324.24 42.3 324.24C39.96 324.24 38.38 323.42 37.56 321.8L38.72 321.14C39.32 322.36 40.52 322.96 42.3 322.96C44.6 322.96 46 321.66 46 319.6V318.04C45.08 319.5 43.74 320.24 41.96 320.24C40.54 320.24 39.32 319.74 38.3 318.72C37.3 317.7 36.8 316.46 36.8 315C36.8 313.54 37.3 312.3 38.3 311.28C39.32 310.26 40.54 309.76 41.96 309.76C43.74 309.76 45.08 310.5 46 311.96ZM39.26 317.82C40.02 318.58 40.96 318.96 42.06 318.96C43.16 318.96 44.1 318.58 44.86 317.82C45.62 317.04 46 316.1 46 315C46 313.9 45.62 312.96 44.86 312.2C44.1 311.42 43.16 311.04 42.06 311.04C40.96 311.04 40.02 311.42 39.26 312.2C38.5 312.96 38.12 313.9 38.12 315C38.12 316.1 38.5 317.04 39.26 317.82ZM51.0548 307.6C50.6748 307.98 50.0748 307.98 49.6948 307.6C49.3148 307.22 49.3148 306.62 49.6948 306.24C50.0748 305.86 50.6748 305.86 51.0548 306.24C51.4348 306.62 51.4348 307.22 51.0548 307.6ZM51.0348 320H49.7148V310H51.0348V320ZM54.7559 320H53.4359V305.4H54.7559V320ZM58.477 310V311.66C59.097 310.44 60.137 309.84 61.637 309.84V311.12C59.817 311.12 58.477 312.14 58.477 314.44V320H57.157V310H58.477ZM70.8206 318.74C69.8006 319.74 68.5606 320.24 67.1006 320.24C65.6406 320.24 64.3806 319.74 63.3606 318.74C62.3406 317.72 61.8406 316.48 61.8406 315C61.8406 313.52 62.3406 312.28 63.3606 311.28C64.3806 310.26 65.6406 309.76 67.1006 309.76C68.5606 309.76 69.8006 310.26 70.8206 311.28C71.8406 312.28 72.3606 313.52 72.3606 315C72.3606 316.48 71.8406 317.72 70.8206 318.74ZM64.3006 317.82C65.0606 318.58 66.0006 318.96 67.1006 318.96C68.2006 318.96 69.1406 318.58 69.9006 317.82C70.6606 317.04 71.0406 316.1 71.0406 315C71.0406 313.9 70.6606 312.96 69.9006 312.2C69.1406 311.42 68.2006 311.04 67.1006 311.04C66.0006 311.04 65.0606 311.42 64.3006 312.2C63.5406 312.96 63.1606 313.9 63.1606 315C63.1606 316.1 63.5406 317.04 64.3006 317.82ZM77.7389 318.38L80.9789 310H82.3789L78.0989 320.92C77.3189 322.9 75.8189 324.14 74.0589 324V322.76C75.2589 322.9 76.1789 322.2 76.7989 320.68L77.0589 320.06L72.5789 310H73.9789L77.7389 318.38ZM89.4942 310V311.66C90.1142 310.44 91.1542 309.84 92.6542 309.84V311.12C90.8342 311.12 89.4942 312.14 89.4942 314.44V320H88.1742V310H89.4942ZM98.0778 309.76C99.5578 309.76 100.758 310.28 101.658 311.34C102.578 312.38 103.038 313.62 103.038 315.04C103.038 315.18 103.018 315.4 102.998 315.66H94.2178C94.4778 317.68 96.0578 318.96 98.1978 318.96C99.7178 318.96 100.858 318.28 101.418 317.26L102.578 317.94C101.698 319.36 100.118 320.24 98.1778 320.24C96.5978 320.24 95.3178 319.74 94.3378 318.76C93.3578 317.78 92.8578 316.52 92.8578 315C92.8578 313.5 93.3378 312.26 94.3178 311.26C95.2978 310.26 96.5378 309.76 98.0778 309.76ZM98.0778 311.04C95.9978 311.04 94.4778 312.4 94.2178 314.38H101.678C101.538 313.32 101.138 312.5 100.458 311.92C99.7778 311.34 98.9778 311.04 98.0778 311.04ZM113.338 311.96V310H114.658V319.6C114.658 321.04 114.158 322.18 113.178 323C112.198 323.82 111.018 324.24 109.638 324.24C107.298 324.24 105.718 323.42 104.898 321.8L106.058 321.14C106.658 322.36 107.858 322.96 109.638 322.96C111.938 322.96 113.338 321.66 113.338 319.6V318.04C112.418 319.5 111.078 320.24 109.298 320.24C107.878 320.24 106.658 319.74 105.638 318.72C104.638 317.7 104.138 316.46 104.138 315C104.138 313.54 104.638 312.3 105.638 311.28C106.658 310.26 107.878 309.76 109.298 309.76C111.078 309.76 112.418 310.5 113.338 311.96ZM106.598 317.82C107.358 318.58 108.298 318.96 109.398 318.96C110.498 318.96 111.438 318.58 112.198 317.82C112.958 317.04 113.338 316.1 113.338 315C113.338 313.9 112.958 312.96 112.198 312.2C111.438 311.42 110.498 311.04 109.398 311.04C108.298 311.04 107.358 311.42 106.598 312.2C105.838 312.96 105.458 313.9 105.458 315C105.458 316.1 105.838 317.04 106.598 317.82ZM124.092 315.24V310H125.412V320H124.092V318.44C123.352 319.64 122.232 320.24 120.732 320.24C118.312 320.24 116.812 318.64 116.812 316.14V310H118.132V316.14C118.132 317.92 119.112 318.96 120.852 318.96C122.772 318.96 124.092 317.78 124.092 315.24ZM129.125 320H127.805V305.4H129.125V320ZM140.126 311.96V310H141.446V320H140.126V318.04C139.206 319.5 137.866 320.24 136.086 320.24C134.666 320.24 133.446 319.74 132.426 318.72C131.426 317.7 130.926 316.46 130.926 315C130.926 313.54 131.426 312.3 132.426 311.28C133.446 310.26 134.666 309.76 136.086 309.76C137.866 309.76 139.206 310.5 140.126 311.96ZM133.386 317.82C134.146 318.58 135.086 318.96 136.186 318.96C137.286 318.96 138.226 318.58 138.986 317.82C139.746 317.04 140.126 316.1 140.126 315C140.126 313.9 139.746 312.96 138.986 312.2C138.226 311.42 137.286 311.04 136.186 311.04C135.086 311.04 134.146 311.42 133.386 312.2C132.626 312.96 132.246 313.9 132.246 315C132.246 316.1 132.626 317.04 133.386 317.82ZM145.161 310V311.66C145.781 310.44 146.821 309.84 148.321 309.84V311.12C146.501 311.12 145.161 312.14 145.161 314.44V320H143.841V310H145.161Z" fill="#1A1A1A"/>
<rect x="162.5" y="308" width="10" height="1.5" rx="0.75" transform="rotate(90 162.5 308)" fill="#1A1A1A"/>
<path d="M186.62 309.74C188.86 309.74 190.38 311.3 190.38 313.78V320H188.64V313.84C188.64 312.3 187.78 311.4 186.44 311.4C184.94 311.4 183.98 312.38 183.98 314.44V320H182.24V313.84C182.24 312.3 181.42 311.4 180.12 311.4C178.66 311.4 177.56 312.42 177.56 314.44V320H175.82V310H177.56V311.34C178.24 310.28 179.24 309.74 180.54 309.74C181.88 309.74 182.86 310.3 183.48 311.44C184.18 310.3 185.22 309.74 186.62 309.74ZM201.993 315.8H193.613C193.953 317.58 195.333 318.62 197.233 318.62C198.553 318.62 199.513 318.14 200.113 317.16L201.593 318C200.613 319.5 199.153 320.26 197.193 320.26C195.613 320.26 194.313 319.76 193.313 318.78C192.333 317.78 191.833 316.52 191.833 315C191.833 313.5 192.313 312.24 193.293 311.24C194.273 310.24 195.533 309.74 197.073 309.74C198.533 309.74 199.733 310.26 200.653 311.3C201.593 312.32 202.053 313.56 202.053 315.02C202.053 315.28 202.033 315.54 201.993 315.8ZM197.073 311.38C195.213 311.38 193.913 312.52 193.613 314.28H200.293C199.993 312.38 198.673 311.38 197.073 311.38ZM211.913 311.72V306H213.653V320H211.913V318.28C211.053 319.6 209.793 320.26 208.133 320.26C206.733 320.26 205.533 319.76 204.553 318.74C203.573 317.72 203.073 316.46 203.073 315C203.073 313.54 203.573 312.3 204.553 311.28C205.533 310.26 206.733 309.74 208.133 309.74C209.793 309.74 211.053 310.4 211.913 311.72ZM208.353 318.58C209.373 318.58 210.213 318.24 210.893 317.56C211.573 316.86 211.913 316.02 211.913 315C211.913 313.98 211.573 313.14 210.893 312.46C210.213 311.76 209.373 311.42 208.353 311.42C207.353 311.42 206.513 311.76 205.833 312.46C205.153 313.14 204.813 313.98 204.813 315C204.813 316.02 205.153 316.86 205.833 317.56C206.513 318.24 207.353 318.58 208.353 318.58ZM216.77 308.18C216.11 308.18 215.59 307.66 215.59 307.02C215.59 306.38 216.11 305.84 216.77 305.84C217.41 305.84 217.93 306.38 217.93 307.02C217.93 307.66 217.41 308.18 216.77 308.18ZM217.63 320H215.89V310H217.63V320ZM226.784 315.3V310H228.524V320H226.784V318.56C226.084 319.7 225.004 320.26 223.544 320.26C221.204 320.26 219.664 318.68 219.664 316.14V310H221.404V316.04C221.404 317.66 222.344 318.6 223.884 318.6C225.624 318.6 226.784 317.54 226.784 315.3ZM241.573 309.74C243.813 309.74 245.333 311.3 245.333 313.78V320H243.593V313.84C243.593 312.3 242.733 311.4 241.393 311.4C239.893 311.4 238.933 312.38 238.933 314.44V320H237.193V313.84C237.193 312.3 236.373 311.4 235.073 311.4C233.613 311.4 232.513 312.42 232.513 314.44V320H230.773V310H232.513V311.34C233.193 310.28 234.193 309.74 235.493 309.74C236.833 309.74 237.813 310.3 238.433 311.44C239.133 310.3 240.173 309.74 241.573 309.74Z" fill="#1A1A1A"/>
<rect x="260" y="308" width="10" height="1.5" rx="0.75" transform="rotate(90 260 308)" fill="#1A1A1A"/>
<path d="M275.2 312.76C275.2 313.42 276.04 313.76 277.08 314.06C278.62 314.4 280.62 315.04 280.58 317.18C280.58 318.14 280.2 318.9 279.46 319.44C278.72 319.98 277.8 320.26 276.68 320.26C274.7 320.26 273.24 319.38 272.6 317.92L274.46 316.84C274.8 317.8 275.54 318.28 276.68 318.28C277.82 318.28 278.38 317.9 278.38 317.16C278.38 316.52 277.54 316.14 276.48 315.88C274.98 315.5 272.96 314.9 273 312.8C273 311.88 273.34 311.14 274.04 310.58C274.74 310.02 275.62 309.74 276.66 309.74C278.32 309.74 279.66 310.52 280.36 311.82L278.54 312.84C278.2 312.08 277.56 311.7 276.66 311.7C275.84 311.7 275.2 312.06 275.2 312.76ZM291.485 315.92H283.525C283.845 317.44 285.065 318.28 286.725 318.28C287.865 318.28 288.725 317.86 289.305 317.04L291.085 318.08C290.105 319.54 288.645 320.26 286.705 320.26C285.085 320.26 283.765 319.76 282.765 318.78C281.765 317.78 281.265 316.52 281.265 315C281.265 313.5 281.765 312.26 282.745 311.26C283.725 310.24 285.005 309.74 286.545 309.74C288.005 309.74 289.205 310.26 290.145 311.28C291.085 312.3 291.565 313.56 291.565 315.02C291.565 315.24 291.545 315.54 291.485 315.92ZM283.505 314.16H289.385C289.085 312.54 287.945 311.7 286.525 311.7C284.925 311.7 283.805 312.64 283.505 314.16ZM303.985 309.74C306.245 309.74 307.765 311.32 307.765 313.8V320H305.605V313.94C305.605 312.56 304.865 311.76 303.665 311.76C302.325 311.76 301.485 312.64 301.485 314.4V320H299.325V313.94C299.325 312.56 298.645 311.76 297.445 311.76C296.145 311.76 295.225 312.66 295.225 314.4V320H293.065V310H295.225V311.2C295.865 310.22 296.825 309.74 298.085 309.74C299.365 309.74 300.305 310.26 300.925 311.32C301.585 310.26 302.605 309.74 303.985 309.74ZM311.717 308.1C311.177 308.64 310.337 308.64 309.777 308.1C309.237 307.54 309.237 306.7 309.777 306.16C310.317 305.6 311.197 305.6 311.737 306.16C312.277 306.7 312.277 307.54 311.717 308.1ZM311.837 320H309.677V310H311.837V320ZM319.605 309.74C320.985 309.74 322.145 310.24 323.125 311.26C324.105 312.28 324.585 313.52 324.585 315C324.585 316.46 324.105 317.72 323.125 318.74C322.145 319.76 320.985 320.26 319.605 320.26C318.085 320.26 316.925 319.7 316.105 318.56V320H313.945V306H316.105V311.42C316.925 310.3 318.085 309.74 319.605 309.74ZM317.005 317.3C317.605 317.9 318.365 318.2 319.265 318.2C320.165 318.2 320.925 317.9 321.525 317.3C322.125 316.68 322.425 315.92 322.425 315C322.425 314.08 322.125 313.32 321.525 312.72C320.925 312.1 320.165 311.8 319.265 311.8C318.365 311.8 317.605 312.1 317.005 312.72C316.405 313.32 316.105 314.08 316.105 315C316.105 315.92 316.405 316.68 317.005 317.3ZM330.863 320.26C329.403 320.26 328.143 319.76 327.123 318.74C326.103 317.72 325.583 316.48 325.583 315C325.583 313.52 326.103 312.28 327.123 311.26C328.143 310.24 329.403 309.74 330.863 309.74C332.343 309.74 333.583 310.24 334.603 311.26C335.623 312.28 336.143 313.52 336.143 315C336.143 316.48 335.623 317.72 334.603 318.74C333.583 319.76 332.343 320.26 330.863 320.26ZM328.643 317.26C329.243 317.86 329.983 318.16 330.863 318.16C331.743 318.16 332.483 317.86 333.083 317.26C333.683 316.66 333.983 315.9 333.983 315C333.983 314.1 333.683 313.34 333.083 312.74C332.483 312.14 331.743 311.84 330.863 311.84C329.983 311.84 329.243 312.14 328.643 312.74C328.043 313.34 327.743 314.1 327.743 315C327.743 315.9 328.043 316.66 328.643 317.26ZM339.856 320H337.696V305.4H339.856V320ZM349.884 311.42V306H352.044V320H349.884V318.56C349.064 319.7 347.904 320.26 346.384 320.26C345.004 320.26 343.844 319.76 342.864 318.74C341.884 317.72 341.404 316.46 341.404 315C341.404 313.52 341.884 312.28 342.864 311.26C343.844 310.24 345.004 309.74 346.384 309.74C347.904 309.74 349.064 310.3 349.884 311.42ZM344.464 317.3C345.064 317.9 345.824 318.2 346.724 318.2C347.624 318.2 348.384 317.9 348.984 317.3C349.584 316.68 349.884 315.92 349.884 315C349.884 314.08 349.584 313.32 348.984 312.72C348.384 312.1 347.624 311.8 346.724 311.8C345.824 311.8 345.064 312.1 344.464 312.72C343.864 313.32 343.564 314.08 343.564 315C343.564 315.92 343.864 316.68 344.464 317.3Z" fill="#1A1A1A"/>
<rect x="367.5" y="308" width="10" height="1.5" rx="0.75" transform="rotate(90 367.5 308)" fill="#1A1A1A"/>
<path d="M386.5 309.72C387.84 309.72 389 310.24 389.94 311.26C390.9 312.28 391.38 313.52 391.38 315C391.38 316.48 390.9 317.74 389.94 318.76C389 319.78 387.84 320.28 386.5 320.28C385.1 320.28 384.02 319.8 383.26 318.82V320H380.68V306H383.26V311.18C384.02 310.2 385.1 309.72 386.5 309.72ZM384.04 317.04C384.56 317.56 385.22 317.82 386.02 317.82C386.82 317.82 387.48 317.56 388 317.04C388.54 316.5 388.8 315.82 388.8 315C388.8 314.18 388.54 313.5 388 312.98C387.48 312.44 386.82 312.18 386.02 312.18C385.22 312.18 384.56 312.44 384.04 312.98C383.52 313.5 383.26 314.18 383.26 315C383.26 315.82 383.52 316.5 384.04 317.04ZM401.32 318.76C400.3 319.78 399.04 320.28 397.56 320.28C396.08 320.28 394.82 319.78 393.8 318.76C392.78 317.74 392.28 316.48 392.28 315C392.28 313.52 392.78 312.28 393.8 311.26C394.82 310.24 396.08 309.72 397.56 309.72C399.04 309.72 400.3 310.24 401.32 311.26C402.34 312.28 402.86 313.52 402.86 315C402.86 316.48 402.34 317.74 401.32 318.76ZM395.62 316.98C396.14 317.5 396.78 317.76 397.56 317.76C398.34 317.76 398.98 317.5 399.5 316.98C400.02 316.46 400.28 315.8 400.28 315C400.28 314.2 400.02 313.54 399.5 313.02C398.98 312.5 398.34 312.24 397.56 312.24C396.78 312.24 396.14 312.5 395.62 313.02C395.12 313.54 394.86 314.2 394.86 315C394.86 315.8 395.12 316.46 395.62 316.98ZM406.855 320H404.275V305.4H406.855V320ZM416.396 311.18V306H418.976V320H416.396V318.82C415.636 319.8 414.556 320.28 413.156 320.28C411.816 320.28 410.656 319.78 409.696 318.76C408.756 317.74 408.276 316.48 408.276 315C408.276 313.52 408.756 312.28 409.696 311.26C410.656 310.24 411.816 309.72 413.156 309.72C414.556 309.72 415.636 310.2 416.396 311.18ZM411.636 317.04C412.176 317.56 412.836 317.82 413.636 317.82C414.436 317.82 415.096 317.56 415.616 317.04C416.136 316.5 416.396 315.82 416.396 315C416.396 314.18 416.136 313.5 415.616 312.98C415.096 312.44 414.436 312.18 413.636 312.18C412.836 312.18 412.176 312.44 411.636 312.98C411.116 313.5 410.856 314.18 410.856 315C410.856 315.82 411.116 316.5 411.636 317.04Z" fill="#1A1A1A"/>
</svg>
