<svg width="643" height="360" viewBox="0 0 643 360" fill="none" xmlns="http://www.w3.org/2000/svg">
<rect width="643" height="360" rx="12" fill="#E6E2DE"/>
<path d="M37.408 270L70.304 174.64H92.832L125.728 270H106.784L100 249.52H63.136L56.224 270H37.408ZM68.128 234.16H95.008L79.136 186.672H84L68.128 234.16ZM153.493 271.536C148.629 271.536 144.405 270.725 140.821 269.104C137.237 267.483 134.464 265.179 132.501 262.192C130.538 259.12 129.557 255.579 129.557 251.568C129.557 247.728 130.41 244.315 132.117 241.328C133.824 238.256 136.469 235.696 140.053 233.648C143.637 231.6 148.16 230.149 153.621 229.296L176.405 225.584V238.384L156.821 241.712C153.493 242.309 151.018 243.376 149.397 244.912C147.776 246.448 146.965 248.453 146.965 250.928C146.965 253.317 147.861 255.237 149.653 256.688C151.53 258.053 153.834 258.736 156.565 258.736C160.064 258.736 163.136 258.011 165.781 256.56C168.512 255.024 170.602 252.933 172.053 250.288C173.589 247.643 174.357 244.741 174.357 241.584V223.664C174.357 220.677 173.162 218.203 170.773 216.24C168.469 214.192 165.397 213.168 161.557 213.168C157.973 213.168 154.773 214.149 151.957 216.112C149.226 217.989 147.221 220.507 145.941 223.664L132.245 217.008C133.61 213.339 135.744 210.181 138.645 207.536C141.632 204.805 145.13 202.672 149.141 201.136C153.152 199.6 157.504 198.832 162.197 198.832C167.914 198.832 172.949 199.899 177.301 202.032C181.653 204.08 185.024 206.981 187.413 210.736C189.888 214.405 191.125 218.715 191.125 223.664V270H175.253V258.096L178.837 257.84C177.045 260.827 174.912 263.344 172.437 265.392C169.962 267.355 167.146 268.891 163.989 270C160.832 271.024 157.333 271.536 153.493 271.536Z" fill="#1A1A1A"/>
<path d="M37.44 324V309.22H39.26V311.54L39.02 311.08C39.42 310.44 39.9667 309.933 40.66 309.56C41.3533 309.173 42.1467 308.98 43.04 308.98C44.0533 308.98 44.96 309.227 45.76 309.72C46.5733 310.213 47.2133 310.887 47.68 311.74C48.1467 312.58 48.38 313.54 48.38 314.62C48.38 315.673 48.1467 316.627 47.68 317.48C47.2133 318.333 46.5733 319.007 45.76 319.5C44.96 319.993 44.0467 320.24 43.02 320.24C42.1533 320.24 41.36 320.047 40.64 319.66C39.9333 319.273 39.3867 318.727 39 318.02L39.3 317.7V324H37.44ZM42.88 318.44C43.56 318.44 44.1667 318.273 44.7 317.94C45.2333 317.607 45.6467 317.153 45.94 316.58C46.2467 315.993 46.4 315.34 46.4 314.62C46.4 313.873 46.2467 313.22 45.94 312.66C45.6467 312.087 45.2333 311.633 44.7 311.3C44.1667 310.953 43.56 310.78 42.88 310.78C42.2 310.78 41.5867 310.947 41.04 311.28C40.5067 311.613 40.08 312.073 39.76 312.66C39.4533 313.233 39.3 313.887 39.3 314.62C39.3 315.34 39.4533 315.993 39.76 316.58C40.08 317.153 40.5067 317.607 41.04 317.94C41.5867 318.273 42.2 318.44 42.88 318.44ZM50.4189 320V304.86H52.2789V320H50.4189ZM58.585 320.24C57.8117 320.24 57.1117 320.06 56.485 319.7C55.8717 319.34 55.3917 318.84 55.045 318.2C54.7117 317.547 54.545 316.8 54.545 315.96V309.22H56.405V315.76C56.405 316.293 56.5117 316.76 56.725 317.16C56.9517 317.56 57.2583 317.873 57.645 318.1C58.045 318.327 58.4983 318.44 59.005 318.44C59.5117 318.44 59.9583 318.327 60.345 318.1C60.745 317.873 61.0517 317.547 61.265 317.12C61.4917 316.693 61.605 316.187 61.605 315.6V309.22H63.485V320H61.665V317.9L61.965 318.08C61.7117 318.76 61.2783 319.293 60.665 319.68C60.065 320.053 59.3717 320.24 58.585 320.24ZM69.8266 320.24C68.7466 320.24 67.8066 319.973 67.0066 319.44C66.2066 318.907 65.6399 318.187 65.3066 317.28L66.7866 316.56C67.0932 317.2 67.5132 317.707 68.0466 318.08C68.5799 318.453 69.1732 318.64 69.8266 318.64C70.4132 318.64 70.8999 318.5 71.2866 318.22C71.6732 317.94 71.8666 317.573 71.8666 317.12C71.8666 316.8 71.7732 316.547 71.5866 316.36C71.4132 316.16 71.1999 316.007 70.9466 315.9C70.6932 315.78 70.4599 315.693 70.2466 315.64L68.6266 315.18C67.6532 314.9 66.9399 314.5 66.4866 313.98C66.0466 313.46 65.8266 312.853 65.8266 312.16C65.8266 311.52 65.9866 310.967 66.3066 310.5C66.6399 310.02 67.0866 309.647 67.6466 309.38C68.2199 309.113 68.8599 308.98 69.5666 308.98C70.5132 308.98 71.3599 309.22 72.1066 309.7C72.8666 310.18 73.4066 310.853 73.7266 311.72L72.2066 312.42C71.9666 311.86 71.6066 311.42 71.1266 311.1C70.6466 310.767 70.1066 310.6 69.5066 310.6C68.9599 310.6 68.5266 310.74 68.2066 311.02C67.8866 311.287 67.7266 311.627 67.7266 312.04C67.7266 312.347 67.8066 312.6 67.9666 312.8C68.1266 312.987 68.3199 313.133 68.5466 313.24C68.7732 313.333 68.9932 313.413 69.2066 313.48L70.9666 314C71.8466 314.253 72.5266 314.647 73.0066 315.18C73.4999 315.713 73.7466 316.353 73.7466 317.1C73.7466 317.7 73.5799 318.24 73.2466 318.72C72.9132 319.2 72.4532 319.573 71.8666 319.84C71.2799 320.107 70.5999 320.24 69.8266 320.24ZM76.9984 324.4C76.8784 324.4 76.7318 324.393 76.5584 324.38C76.3851 324.367 76.2451 324.347 76.1384 324.32V322.64C76.4051 322.68 76.6718 322.7 76.9384 322.7C77.4851 322.7 77.9384 322.547 78.2984 322.24C78.6584 321.933 78.8384 321.467 78.8384 320.84V309.22H80.6984V320.84C80.6984 321.613 80.5384 322.26 80.2184 322.78C79.8984 323.313 79.4584 323.713 78.8984 323.98C78.3384 324.26 77.7051 324.4 76.9984 324.4ZM78.8384 307.5V305.1H80.6984V307.5H78.8384ZM86.3445 320.24C85.6379 320.24 85.0112 320.113 84.4645 319.86C83.9312 319.593 83.5112 319.233 83.2045 318.78C82.8979 318.313 82.7445 317.78 82.7445 317.18C82.7445 316.607 82.8645 316.093 83.1045 315.64C83.3579 315.173 83.7445 314.78 84.2645 314.46C84.7979 314.14 85.4645 313.913 86.2645 313.78L90.2645 313.12V314.68L86.6845 315.28C85.9912 315.4 85.4845 315.62 85.1645 315.94C84.8579 316.26 84.7045 316.653 84.7045 317.12C84.7045 317.56 84.8779 317.927 85.2245 318.22C85.5845 318.513 86.0312 318.66 86.5645 318.66C87.2445 318.66 87.8312 318.52 88.3245 318.24C88.8312 317.947 89.2245 317.553 89.5045 317.06C89.7979 316.567 89.9445 316.02 89.9445 315.42V312.68C89.9445 312.093 89.7245 311.62 89.2845 311.26C88.8579 310.887 88.2912 310.7 87.5845 310.7C86.9712 310.7 86.4245 310.86 85.9445 311.18C85.4779 311.487 85.1312 311.9 84.9045 312.42L83.2845 311.58C83.4845 311.087 83.8045 310.647 84.2445 310.26C84.6845 309.86 85.1979 309.547 85.7845 309.32C86.3712 309.093 86.9845 308.98 87.6245 308.98C88.4512 308.98 89.1779 309.14 89.8045 309.46C90.4312 309.767 90.9179 310.2 91.2645 310.76C91.6245 311.307 91.8045 311.947 91.8045 312.68V320H89.9845V317.96L90.3245 318.08C90.0979 318.507 89.7912 318.88 89.4045 319.2C89.0179 319.52 88.5645 319.773 88.0445 319.96C87.5245 320.147 86.9579 320.24 86.3445 320.24ZM94.2884 320V304.86H96.1484V315.24L95.3884 315.06L101.108 309.22H103.488L99.3484 313.56L103.768 320H101.568L97.5284 314.16L98.6884 314.1L95.5484 317.38L96.1484 316.02V320H94.2884ZM108.201 320.24C107.494 320.24 106.867 320.113 106.321 319.86C105.787 319.593 105.367 319.233 105.061 318.78C104.754 318.313 104.601 317.78 104.601 317.18C104.601 316.607 104.721 316.093 104.961 315.64C105.214 315.173 105.601 314.78 106.121 314.46C106.654 314.14 107.321 313.913 108.121 313.78L112.121 313.12V314.68L108.541 315.28C107.847 315.4 107.341 315.62 107.021 315.94C106.714 316.26 106.561 316.653 106.561 317.12C106.561 317.56 106.734 317.927 107.081 318.22C107.441 318.513 107.887 318.66 108.421 318.66C109.101 318.66 109.687 318.52 110.181 318.24C110.687 317.947 111.081 317.553 111.361 317.06C111.654 316.567 111.801 316.02 111.801 315.42V312.68C111.801 312.093 111.581 311.62 111.141 311.26C110.714 310.887 110.147 310.7 109.441 310.7C108.827 310.7 108.281 310.86 107.801 311.18C107.334 311.487 106.987 311.9 106.761 312.42L105.141 311.58C105.341 311.087 105.661 310.647 106.101 310.26C106.541 309.86 107.054 309.547 107.641 309.32C108.227 309.093 108.841 308.98 109.481 308.98C110.307 308.98 111.034 309.14 111.661 309.46C112.287 309.767 112.774 310.2 113.121 310.76C113.481 311.307 113.661 311.947 113.661 312.68V320H111.841V317.96L112.181 318.08C111.954 318.507 111.647 318.88 111.261 319.2C110.874 319.52 110.421 319.773 109.901 319.96C109.381 320.147 108.814 320.24 108.201 320.24ZM116.145 320V309.22H117.965V311.2L117.765 310.92C118.018 310.307 118.405 309.853 118.925 309.56C119.445 309.253 120.078 309.1 120.825 309.1H121.485V310.86H120.545C119.785 310.86 119.171 311.1 118.705 311.58C118.238 312.047 118.005 312.713 118.005 313.58V320H116.145ZM127.215 320.12C126.161 320.12 125.348 319.82 124.775 319.22C124.215 318.62 123.935 317.773 123.935 316.68V311H121.975V309.22H122.375C122.855 309.22 123.235 309.073 123.515 308.78C123.795 308.487 123.935 308.1 123.935 307.62V306.74H125.795V309.22H128.215V311H125.795V316.62C125.795 316.98 125.848 317.293 125.955 317.56C126.075 317.827 126.268 318.04 126.535 318.2C126.801 318.347 127.155 318.42 127.595 318.42C127.688 318.42 127.801 318.413 127.935 318.4C128.081 318.387 128.215 318.373 128.335 318.36V320C128.161 320.04 127.968 320.067 127.755 320.08C127.541 320.107 127.361 320.12 127.215 320.12ZM133.387 320.24C132.681 320.24 132.054 320.113 131.507 319.86C130.974 319.593 130.554 319.233 130.247 318.78C129.941 318.313 129.787 317.78 129.787 317.18C129.787 316.607 129.907 316.093 130.147 315.64C130.401 315.173 130.787 314.78 131.307 314.46C131.841 314.14 132.507 313.913 133.307 313.78L137.307 313.12V314.68L133.727 315.28C133.034 315.4 132.527 315.62 132.207 315.94C131.901 316.26 131.747 316.653 131.747 317.12C131.747 317.56 131.921 317.927 132.267 318.22C132.627 318.513 133.074 318.66 133.607 318.66C134.287 318.66 134.874 318.52 135.367 318.24C135.874 317.947 136.267 317.553 136.547 317.06C136.841 316.567 136.987 316.02 136.987 315.42V312.68C136.987 312.093 136.767 311.62 136.327 311.26C135.901 310.887 135.334 310.7 134.627 310.7C134.014 310.7 133.467 310.86 132.987 311.18C132.521 311.487 132.174 311.9 131.947 312.42L130.327 311.58C130.527 311.087 130.847 310.647 131.287 310.26C131.727 309.86 132.241 309.547 132.827 309.32C133.414 309.093 134.027 308.98 134.667 308.98C135.494 308.98 136.221 309.14 136.847 309.46C137.474 309.767 137.961 310.2 138.307 310.76C138.667 311.307 138.847 311.947 138.847 312.68V320H137.027V317.96L137.367 318.08C137.141 318.507 136.834 318.88 136.447 319.2C136.061 319.52 135.607 319.773 135.087 319.96C134.567 320.147 134.001 320.24 133.387 320.24ZM148.248 320.24C147.168 320.24 146.228 319.973 145.428 319.44C144.628 318.907 144.062 318.187 143.728 317.28L145.208 316.56C145.515 317.2 145.935 317.707 146.468 318.08C147.002 318.453 147.595 318.64 148.248 318.64C148.835 318.64 149.322 318.5 149.708 318.22C150.095 317.94 150.288 317.573 150.288 317.12C150.288 316.8 150.195 316.547 150.008 316.36C149.835 316.16 149.622 316.007 149.368 315.9C149.115 315.78 148.882 315.693 148.668 315.64L147.048 315.18C146.075 314.9 145.362 314.5 144.908 313.98C144.468 313.46 144.248 312.853 144.248 312.16C144.248 311.52 144.408 310.967 144.728 310.5C145.062 310.02 145.508 309.647 146.068 309.38C146.642 309.113 147.282 308.98 147.988 308.98C148.935 308.98 149.782 309.22 150.528 309.7C151.288 310.18 151.828 310.853 152.148 311.72L150.628 312.42C150.388 311.86 150.028 311.42 149.548 311.1C149.068 310.767 148.528 310.6 147.928 310.6C147.382 310.6 146.948 310.74 146.628 311.02C146.308 311.287 146.148 311.627 146.148 312.04C146.148 312.347 146.228 312.6 146.388 312.8C146.548 312.987 146.742 313.133 146.968 313.24C147.195 313.333 147.415 313.413 147.628 313.48L149.388 314C150.268 314.253 150.948 314.647 151.428 315.18C151.922 315.713 152.168 316.353 152.168 317.1C152.168 317.7 152.002 318.24 151.668 318.72C151.335 319.2 150.875 319.573 150.288 319.84C149.702 320.107 149.022 320.24 148.248 320.24ZM157.363 320.24C156.657 320.24 156.03 320.113 155.483 319.86C154.95 319.593 154.53 319.233 154.223 318.78C153.917 318.313 153.763 317.78 153.763 317.18C153.763 316.607 153.883 316.093 154.123 315.64C154.377 315.173 154.763 314.78 155.283 314.46C155.817 314.14 156.483 313.913 157.283 313.78L161.283 313.12V314.68L157.703 315.28C157.01 315.4 156.503 315.62 156.183 315.94C155.877 316.26 155.723 316.653 155.723 317.12C155.723 317.56 155.897 317.927 156.243 318.22C156.603 318.513 157.05 318.66 157.583 318.66C158.263 318.66 158.85 318.52 159.343 318.24C159.85 317.947 160.243 317.553 160.523 317.06C160.817 316.567 160.963 316.02 160.963 315.42V312.68C160.963 312.093 160.743 311.62 160.303 311.26C159.877 310.887 159.31 310.7 158.603 310.7C157.99 310.7 157.443 310.86 156.963 311.18C156.497 311.487 156.15 311.9 155.923 312.42L154.303 311.58C154.503 311.087 154.823 310.647 155.263 310.26C155.703 309.86 156.217 309.547 156.803 309.32C157.39 309.093 158.003 308.98 158.643 308.98C159.47 308.98 160.197 309.14 160.823 309.46C161.45 309.767 161.937 310.2 162.283 310.76C162.643 311.307 162.823 311.947 162.823 312.68V320H161.003V317.96L161.343 318.08C161.117 318.507 160.81 318.88 160.423 319.2C160.037 319.52 159.583 319.773 159.063 319.96C158.543 320.147 157.977 320.24 157.363 320.24ZM165.307 320V309.22H167.127V311.32L166.827 311.14C167.094 310.46 167.521 309.933 168.107 309.56C168.707 309.173 169.407 308.98 170.207 308.98C170.981 308.98 171.667 309.153 172.267 309.5C172.881 309.847 173.361 310.327 173.707 310.94C174.067 311.553 174.247 312.247 174.247 313.02V320H172.367V313.62C172.367 313.02 172.261 312.513 172.047 312.1C171.834 311.687 171.527 311.367 171.127 311.14C170.741 310.9 170.294 310.78 169.787 310.78C169.281 310.78 168.827 310.9 168.427 311.14C168.041 311.367 167.734 311.693 167.507 312.12C167.281 312.533 167.167 313.033 167.167 313.62V320H165.307ZM180.369 320.24C179.289 320.24 178.349 319.973 177.549 319.44C176.749 318.907 176.182 318.187 175.849 317.28L177.329 316.56C177.635 317.2 178.055 317.707 178.589 318.08C179.122 318.453 179.715 318.64 180.369 318.64C180.955 318.64 181.442 318.5 181.829 318.22C182.215 317.94 182.409 317.573 182.409 317.12C182.409 316.8 182.315 316.547 182.129 316.36C181.955 316.16 181.742 316.007 181.489 315.9C181.235 315.78 181.002 315.693 180.789 315.64L179.169 315.18C178.195 314.9 177.482 314.5 177.029 313.98C176.589 313.46 176.369 312.853 176.369 312.16C176.369 311.52 176.529 310.967 176.849 310.5C177.182 310.02 177.629 309.647 178.189 309.38C178.762 309.113 179.402 308.98 180.109 308.98C181.055 308.98 181.902 309.22 182.649 309.7C183.409 310.18 183.949 310.853 184.269 311.72L182.749 312.42C182.509 311.86 182.149 311.42 181.669 311.1C181.189 310.767 180.649 310.6 180.049 310.6C179.502 310.6 179.069 310.74 178.749 311.02C178.429 311.287 178.269 311.627 178.269 312.04C178.269 312.347 178.349 312.6 178.509 312.8C178.669 312.987 178.862 313.133 179.089 313.24C179.315 313.333 179.535 313.413 179.749 313.48L181.509 314C182.389 314.253 183.069 314.647 183.549 315.18C184.042 315.713 184.289 316.353 184.289 317.1C184.289 317.7 184.122 318.24 183.789 318.72C183.455 319.2 182.995 319.573 182.409 319.84C181.822 320.107 181.142 320.24 180.369 320.24ZM189.381 320V309.22H191.201V311.42L190.941 311.08C191.207 310.4 191.634 309.88 192.221 309.52C192.807 309.16 193.467 308.98 194.201 308.98C195.041 308.98 195.794 309.213 196.461 309.68C197.141 310.147 197.607 310.76 197.861 311.52L197.341 311.54C197.621 310.7 198.094 310.067 198.761 309.64C199.427 309.2 200.167 308.98 200.981 308.98C201.727 308.98 202.401 309.153 203.001 309.5C203.614 309.847 204.101 310.327 204.461 310.94C204.821 311.553 205.001 312.247 205.001 313.02V320H203.121V313.62C203.121 313.02 203.014 312.513 202.801 312.1C202.587 311.687 202.294 311.367 201.921 311.14C201.561 310.9 201.134 310.78 200.641 310.78C200.161 310.78 199.727 310.9 199.341 311.14C198.967 311.367 198.667 311.693 198.441 312.12C198.227 312.533 198.121 313.033 198.121 313.62V320H196.241V313.62C196.241 313.02 196.134 312.513 195.921 312.1C195.707 311.687 195.414 311.367 195.041 311.14C194.681 310.9 194.254 310.78 193.761 310.78C193.281 310.78 192.847 310.9 192.461 311.14C192.087 311.367 191.787 311.693 191.561 312.12C191.347 312.533 191.241 313.033 191.241 313.62V320H189.381ZM212.202 320.24C211.162 320.24 210.236 319.993 209.422 319.5C208.609 319.007 207.969 318.333 207.502 317.48C207.036 316.613 206.802 315.647 206.802 314.58C206.802 313.5 207.029 312.54 207.482 311.7C207.949 310.86 208.576 310.2 209.362 309.72C210.162 309.227 211.056 308.98 212.042 308.98C212.842 308.98 213.549 309.127 214.162 309.42C214.789 309.7 215.316 310.087 215.742 310.58C216.182 311.06 216.516 311.613 216.742 312.24C216.982 312.853 217.102 313.493 217.102 314.16C217.102 314.307 217.089 314.473 217.062 314.66C217.049 314.833 217.029 315 217.002 315.16H208.162V313.56H215.922L215.042 314.28C215.162 313.587 215.096 312.967 214.842 312.42C214.589 311.873 214.216 311.44 213.722 311.12C213.229 310.8 212.669 310.64 212.042 310.64C211.416 310.64 210.842 310.8 210.322 311.12C209.802 311.44 209.396 311.9 209.102 312.5C208.822 313.087 208.709 313.787 208.762 314.6C208.709 315.387 208.829 316.08 209.122 316.68C209.429 317.267 209.856 317.727 210.402 318.06C210.962 318.38 211.569 318.54 212.222 318.54C212.942 318.54 213.549 318.373 214.042 318.04C214.536 317.707 214.936 317.28 215.242 316.76L216.802 317.56C216.589 318.053 216.256 318.507 215.802 318.92C215.362 319.32 214.836 319.64 214.222 319.88C213.622 320.12 212.949 320.24 212.202 320.24ZM224.028 320.24C223.014 320.24 222.101 319.993 221.288 319.5C220.488 319.007 219.854 318.333 219.388 317.48C218.921 316.627 218.688 315.673 218.688 314.62C218.688 313.54 218.921 312.58 219.388 311.74C219.854 310.887 220.488 310.213 221.288 309.72C222.101 309.227 223.014 308.98 224.028 308.98C224.921 308.98 225.714 309.173 226.408 309.56C227.101 309.933 227.648 310.44 228.048 311.08L227.748 311.54V304.86H229.628V320H227.808V317.7L228.048 318.02C227.674 318.727 227.128 319.273 226.408 319.66C225.701 320.047 224.908 320.24 224.028 320.24ZM224.188 318.44C224.868 318.44 225.474 318.273 226.008 317.94C226.541 317.607 226.961 317.153 227.268 316.58C227.588 315.993 227.748 315.34 227.748 314.62C227.748 313.887 227.588 313.233 227.268 312.66C226.961 312.073 226.541 311.613 226.008 311.28C225.474 310.947 224.868 310.78 224.188 310.78C223.521 310.78 222.914 310.953 222.368 311.3C221.834 311.633 221.414 312.087 221.108 312.66C220.801 313.22 220.648 313.873 220.648 314.62C220.648 315.34 220.801 315.993 221.108 316.58C221.414 317.153 221.834 317.607 222.368 317.94C222.901 318.273 223.508 318.44 224.188 318.44ZM232.106 320V309.22H233.966V320H232.106ZM232.106 307.5V305.1H233.966V307.5H232.106ZM240.272 320.24C239.499 320.24 238.799 320.06 238.172 319.7C237.559 319.34 237.079 318.84 236.732 318.2C236.399 317.547 236.232 316.8 236.232 315.96V309.22H238.092V315.76C238.092 316.293 238.199 316.76 238.412 317.16C238.639 317.56 238.946 317.873 239.332 318.1C239.732 318.327 240.186 318.44 240.692 318.44C241.199 318.44 241.646 318.327 242.032 318.1C242.432 317.873 242.739 317.547 242.952 317.12C243.179 316.693 243.292 316.187 243.292 315.6V309.22H245.172V320H243.352V317.9L243.652 318.08C243.399 318.76 242.966 319.293 242.352 319.68C241.752 320.053 241.059 320.24 240.272 320.24ZM247.654 320V309.22H249.474V311.42L249.214 311.08C249.481 310.4 249.907 309.88 250.494 309.52C251.081 309.16 251.741 308.98 252.474 308.98C253.314 308.98 254.067 309.213 254.734 309.68C255.414 310.147 255.881 310.76 256.134 311.52L255.614 311.54C255.894 310.7 256.367 310.067 257.034 309.64C257.701 309.2 258.441 308.98 259.254 308.98C260.001 308.98 260.674 309.153 261.274 309.5C261.887 309.847 262.374 310.327 262.734 310.94C263.094 311.553 263.274 312.247 263.274 313.02V320H261.394V313.62C261.394 313.02 261.287 312.513 261.074 312.1C260.861 311.687 260.567 311.367 260.194 311.14C259.834 310.9 259.407 310.78 258.914 310.78C258.434 310.78 258.001 310.9 257.614 311.14C257.241 311.367 256.941 311.693 256.714 312.12C256.501 312.533 256.394 313.033 256.394 313.62V320H254.514V313.62C254.514 313.02 254.407 312.513 254.194 312.1C253.981 311.687 253.687 311.367 253.314 311.14C252.954 310.9 252.527 310.78 252.034 310.78C251.554 310.78 251.121 310.9 250.734 311.14C250.361 311.367 250.061 311.693 249.834 312.12C249.621 312.533 249.514 313.033 249.514 313.62V320H247.654Z" fill="#1A1A1A"/>
<rect x="278.5" y="307.5" width="10" height="1.5" rx="0.75" transform="rotate(90 278.5 307.5)" fill="#1A1A1A"/>
<path d="M295.82 320.24C294.713 320.24 293.74 319.967 292.9 319.42C292.073 318.873 291.493 318.14 291.16 317.22L292.9 316.4C293.193 317.013 293.593 317.5 294.1 317.86C294.62 318.22 295.193 318.4 295.82 318.4C296.353 318.4 296.787 318.28 297.12 318.04C297.453 317.8 297.62 317.473 297.62 317.06C297.62 316.793 297.547 316.58 297.4 316.42C297.253 316.247 297.067 316.107 296.84 316C296.627 315.893 296.407 315.813 296.18 315.76L294.48 315.28C293.547 315.013 292.847 314.613 292.38 314.08C291.927 313.533 291.7 312.9 291.7 312.18C291.7 311.527 291.867 310.96 292.2 310.48C292.533 309.987 292.993 309.607 293.58 309.34C294.167 309.073 294.827 308.94 295.56 308.94C296.547 308.94 297.427 309.187 298.2 309.68C298.973 310.16 299.52 310.833 299.84 311.7L298.1 312.52C297.887 312 297.547 311.587 297.08 311.28C296.627 310.973 296.113 310.82 295.54 310.82C295.047 310.82 294.653 310.94 294.36 311.18C294.067 311.407 293.92 311.707 293.92 312.08C293.92 312.333 293.987 312.547 294.12 312.72C294.253 312.88 294.427 313.013 294.64 313.12C294.853 313.213 295.073 313.293 295.3 313.36L297.06 313.88C297.953 314.133 298.64 314.533 299.12 315.08C299.6 315.613 299.84 316.253 299.84 317C299.84 317.64 299.667 318.207 299.32 318.7C298.987 319.18 298.52 319.56 297.92 319.84C297.32 320.107 296.62 320.24 295.82 320.24ZM306.734 320.24C305.654 320.24 304.694 319.993 303.854 319.5C303.028 318.993 302.381 318.313 301.914 317.46C301.448 316.593 301.214 315.627 301.214 314.56C301.214 313.467 301.448 312.5 301.914 311.66C302.394 310.82 303.034 310.16 303.834 309.68C304.634 309.187 305.541 308.94 306.554 308.94C307.368 308.94 308.094 309.08 308.734 309.36C309.374 309.64 309.914 310.027 310.354 310.52C310.794 311 311.128 311.553 311.354 312.18C311.594 312.807 311.714 313.473 311.714 314.18C311.714 314.353 311.708 314.533 311.694 314.72C311.681 314.907 311.654 315.08 311.614 315.24H302.994V313.44H310.334L309.254 314.26C309.388 313.607 309.341 313.027 309.114 312.52C308.901 312 308.568 311.593 308.114 311.3C307.674 310.993 307.154 310.84 306.554 310.84C305.954 310.84 305.421 310.993 304.954 311.3C304.488 311.593 304.128 312.02 303.874 312.58C303.621 313.127 303.521 313.793 303.574 314.58C303.508 315.313 303.608 315.953 303.874 316.5C304.154 317.047 304.541 317.473 305.034 317.78C305.541 318.087 306.114 318.24 306.754 318.24C307.408 318.24 307.961 318.093 308.414 317.8C308.881 317.507 309.248 317.127 309.514 316.66L311.354 317.56C311.141 318.067 310.808 318.527 310.354 318.94C309.914 319.34 309.381 319.66 308.754 319.9C308.141 320.127 307.468 320.24 306.734 320.24ZM313.52 320V309.18H315.68V311.52L315.4 311.16C315.627 310.427 316.04 309.873 316.64 309.5C317.24 309.127 317.927 308.94 318.7 308.94C319.567 308.94 320.333 309.173 321 309.64C321.68 310.093 322.133 310.7 322.36 311.46L321.72 311.52C322.04 310.653 322.527 310.007 323.18 309.58C323.847 309.153 324.607 308.94 325.46 308.94C326.207 308.94 326.88 309.113 327.48 309.46C328.093 309.807 328.58 310.287 328.94 310.9C329.3 311.513 329.48 312.213 329.48 313V320H327.22V313.62C327.22 313.073 327.12 312.613 326.92 312.24C326.733 311.853 326.467 311.56 326.12 311.36C325.787 311.147 325.393 311.04 324.94 311.04C324.487 311.04 324.087 311.147 323.74 311.36C323.393 311.56 323.12 311.853 322.92 312.24C322.72 312.627 322.62 313.087 322.62 313.62V320H320.38V313.62C320.38 313.073 320.28 312.613 320.08 312.24C319.893 311.853 319.627 311.56 319.28 311.36C318.947 311.147 318.547 311.04 318.08 311.04C317.627 311.04 317.227 311.147 316.88 311.36C316.533 311.56 316.26 311.853 316.06 312.24C315.873 312.627 315.78 313.087 315.78 313.62V320H313.52ZM331.499 320V309.18H333.759V320H331.499ZM331.499 307.7V305.1H333.759V307.7H331.499ZM341.781 320.24C340.941 320.24 340.175 320.067 339.481 319.72C338.801 319.373 338.275 318.873 337.901 318.22L338.161 317.8V320H336.001V304.86H338.261V311.42L337.901 310.9C338.301 310.287 338.835 309.807 339.501 309.46C340.168 309.113 340.928 308.94 341.781 308.94C342.808 308.94 343.728 309.187 344.541 309.68C345.368 310.173 346.015 310.847 346.481 311.7C346.961 312.553 347.201 313.513 347.201 314.58C347.201 315.647 346.961 316.607 346.481 317.46C346.015 318.313 345.375 318.993 344.561 319.5C343.748 319.993 342.821 320.24 341.781 320.24ZM341.561 318.14C342.201 318.14 342.768 317.987 343.261 317.68C343.755 317.373 344.141 316.953 344.421 316.42C344.715 315.873 344.861 315.26 344.861 314.58C344.861 313.9 344.715 313.293 344.421 312.76C344.141 312.227 343.755 311.807 343.261 311.5C342.768 311.193 342.201 311.04 341.561 311.04C340.935 311.04 340.368 311.193 339.861 311.5C339.368 311.807 338.975 312.227 338.681 312.76C338.401 313.293 338.261 313.9 338.261 314.58C338.261 315.26 338.401 315.873 338.681 316.42C338.975 316.953 339.368 317.373 339.861 317.68C340.368 317.987 340.935 318.14 341.561 318.14ZM354.22 320.24C353.18 320.24 352.226 319.993 351.36 319.5C350.506 319.007 349.826 318.333 349.32 317.48C348.813 316.627 348.56 315.66 348.56 314.58C348.56 313.487 348.813 312.52 349.32 311.68C349.826 310.827 350.506 310.16 351.36 309.68C352.213 309.187 353.166 308.94 354.22 308.94C355.286 308.94 356.24 309.187 357.08 309.68C357.933 310.16 358.606 310.827 359.1 311.68C359.606 312.52 359.86 313.487 359.86 314.58C359.86 315.673 359.606 316.647 359.1 317.5C358.593 318.353 357.913 319.027 357.06 319.52C356.206 320 355.26 320.24 354.22 320.24ZM354.22 318.14C354.86 318.14 355.426 317.987 355.92 317.68C356.413 317.373 356.8 316.953 357.08 316.42C357.373 315.873 357.52 315.26 357.52 314.58C357.52 313.9 357.373 313.293 357.08 312.76C356.8 312.227 356.413 311.807 355.92 311.5C355.426 311.193 354.86 311.04 354.22 311.04C353.593 311.04 353.026 311.193 352.52 311.5C352.026 311.807 351.633 312.227 351.34 312.76C351.06 313.293 350.92 313.9 350.92 314.58C350.92 315.26 351.06 315.873 351.34 316.42C351.633 316.953 352.026 317.373 352.52 317.68C353.026 317.987 353.593 318.14 354.22 318.14ZM361.666 320V304.86H363.926V320H361.666ZM371.168 320.24C370.128 320.24 369.195 319.993 368.368 319.5C367.555 318.993 366.908 318.313 366.428 317.46C365.962 316.607 365.728 315.647 365.728 314.58C365.728 313.513 365.968 312.553 366.448 311.7C366.928 310.847 367.575 310.173 368.388 309.68C369.202 309.187 370.122 308.94 371.148 308.94C372.015 308.94 372.782 309.113 373.448 309.46C374.115 309.807 374.642 310.287 375.028 310.9L374.688 311.42V304.86H376.928V320H374.788V317.8L375.048 318.22C374.675 318.873 374.142 319.373 373.448 319.72C372.755 320.067 371.995 320.24 371.168 320.24ZM371.388 318.14C372.015 318.14 372.575 317.987 373.068 317.68C373.575 317.373 373.968 316.953 374.248 316.42C374.542 315.873 374.688 315.26 374.688 314.58C374.688 313.9 374.542 313.293 374.248 312.76C373.968 312.227 373.575 311.807 373.068 311.5C372.575 311.193 372.015 311.04 371.388 311.04C370.762 311.04 370.195 311.193 369.688 311.5C369.182 311.807 368.788 312.227 368.508 312.76C368.228 313.293 368.088 313.9 368.088 314.58C368.088 315.26 368.228 315.873 368.508 316.42C368.788 316.953 369.175 317.373 369.668 317.68C370.175 317.987 370.748 318.14 371.388 318.14Z" fill="#1A1A1A"/>
<rect x="392" y="307.5" width="10" height="1.5" rx="0.75" transform="rotate(90 392 307.5)" fill="#1A1A1A"/>
<path d="M411.16 320.24C410.373 320.24 409.647 320.087 408.98 319.78C408.327 319.46 407.807 319.007 407.42 318.42L407.68 317.9V320H405.22V304.86H407.84V311.28L407.44 310.74C407.813 310.153 408.32 309.7 408.96 309.38C409.6 309.047 410.34 308.88 411.18 308.88C412.207 308.88 413.133 309.133 413.96 309.64C414.787 310.147 415.44 310.827 415.92 311.68C416.413 312.533 416.66 313.493 416.66 314.56C416.66 315.613 416.42 316.573 415.94 317.44C415.46 318.307 414.807 318.993 413.98 319.5C413.153 319.993 412.213 320.24 411.16 320.24ZM410.86 317.84C411.46 317.84 411.993 317.7 412.46 317.42C412.927 317.14 413.287 316.753 413.54 316.26C413.807 315.767 413.94 315.2 413.94 314.56C413.94 313.92 413.807 313.36 413.54 312.88C413.287 312.387 412.927 312 412.46 311.72C411.993 311.427 411.46 311.28 410.86 311.28C410.287 311.28 409.767 311.42 409.3 311.7C408.847 311.98 408.487 312.373 408.22 312.88C407.967 313.373 407.84 313.933 407.84 314.56C407.84 315.2 407.967 315.767 408.22 316.26C408.487 316.753 408.847 317.14 409.3 317.42C409.767 317.7 410.287 317.84 410.86 317.84ZM423.578 320.24C422.511 320.24 421.538 319.993 420.658 319.5C419.791 319.007 419.098 318.333 418.578 317.48C418.071 316.627 417.818 315.653 417.818 314.56C417.818 313.467 418.071 312.493 418.578 311.64C419.098 310.787 419.791 310.113 420.658 309.62C421.524 309.127 422.498 308.88 423.578 308.88C424.644 308.88 425.611 309.127 426.478 309.62C427.344 310.113 428.031 310.787 428.538 311.64C429.058 312.48 429.318 313.453 429.318 314.56C429.318 315.653 429.058 316.627 428.538 317.48C428.018 318.333 427.324 319.007 426.458 319.5C425.591 319.993 424.631 320.24 423.578 320.24ZM423.578 317.84C424.164 317.84 424.678 317.7 425.118 317.42C425.571 317.14 425.924 316.753 426.178 316.26C426.444 315.753 426.578 315.187 426.578 314.56C426.578 313.92 426.444 313.36 426.178 312.88C425.924 312.387 425.571 312 425.118 311.72C424.678 311.427 424.164 311.28 423.578 311.28C422.978 311.28 422.451 311.427 421.998 311.72C421.544 312 421.184 312.387 420.918 312.88C420.664 313.36 420.538 313.92 420.538 314.56C420.538 315.187 420.664 315.753 420.918 316.26C421.184 316.753 421.544 317.14 421.998 317.42C422.451 317.7 422.978 317.84 423.578 317.84ZM430.904 320V304.86H433.524V320H430.904ZM440.603 320.24C439.55 320.24 438.61 319.993 437.783 319.5C436.957 318.993 436.303 318.307 435.823 317.44C435.343 316.573 435.103 315.613 435.103 314.56C435.103 313.493 435.343 312.533 435.823 311.68C436.303 310.827 436.957 310.147 437.783 309.64C438.623 309.133 439.557 308.88 440.583 308.88C441.41 308.88 442.143 309.047 442.783 309.38C443.437 309.7 443.95 310.153 444.323 310.74L443.923 311.28V304.86H446.543V320H444.063V317.9L444.343 318.42C443.97 319.007 443.45 319.46 442.783 319.78C442.117 320.087 441.39 320.24 440.603 320.24ZM440.883 317.84C441.483 317.84 442.01 317.7 442.463 317.42C442.917 317.14 443.27 316.753 443.523 316.26C443.79 315.767 443.923 315.2 443.923 314.56C443.923 313.933 443.79 313.373 443.523 312.88C443.27 312.373 442.917 311.98 442.463 311.7C442.01 311.42 441.483 311.28 440.883 311.28C440.297 311.28 439.77 311.427 439.303 311.72C438.837 312 438.47 312.387 438.203 312.88C437.95 313.36 437.823 313.92 437.823 314.56C437.823 315.2 437.95 315.767 438.203 316.26C438.47 316.753 438.837 317.14 439.303 317.42C439.77 317.7 440.297 317.84 440.883 317.84Z" fill="#1A1A1A"/>
</svg>
