<svg width="96" height="129" viewBox="0 0 96 129" fill="none" xmlns="http://www.w3.org/2000/svg">
<path d="M48.4387 128.623C48.4387 128.623 55.9021 128.355 59.6576 128.239L62.0196 128.296L64.4856 64.6073C63.0119 64.0815 61.5412 63.6091 60.0527 63.1812L58.4394 104.833C58.276 104.812 58.1244 104.806 57.9818 104.806C57.3193 104.812 56.835 105.086 56.5973 105.727C56.3864 106.307 56.3923 107.005 56.8291 107.477C57.0757 107.742 57.4143 107.902 57.759 107.997C57.9373 108.051 58.1215 108.08 58.3116 108.086L57.6817 124.407L57.0756 124.133C56.3447 123.792 55.5931 123.491 54.8087 123.307C48.2129 121.762 48.4387 128.62 48.4387 128.62V128.623Z" fill="#1A1A1A"/>
<path d="M31.6222 128.623C31.6222 128.623 39.0915 128.355 42.8411 128.239L45.209 128.296L47.675 64.6073C46.1984 64.0815 44.7248 63.6091 43.2362 63.1812L41.6378 104.39C41.5367 104.378 41.4446 104.378 41.3525 104.378C40.6959 104.378 40.2057 104.658 39.974 105.299C39.7571 105.873 39.7689 106.577 40.2057 107.049C40.4463 107.314 40.788 107.474 41.1357 107.569C41.2575 107.602 41.3823 107.626 41.51 107.644L40.8623 124.407L40.2562 124.133C39.5253 123.792 38.7736 123.491 37.9892 123.307C31.3993 121.762 31.6192 128.62 31.6192 128.62L31.6222 128.623Z" fill="#1A1A1A"/>
<path d="M28.4197 112.492C28.5712 112.492 28.7228 112.469 28.8743 112.418C29.4536 112.225 29.9082 111.672 30.0597 110.971C30.3866 109.462 30.0925 108.009 29.8043 106.604C29.7627 106.399 29.721 106.197 29.6824 105.992C29.3675 104.366 29.008 102.527 28.8594 100.712C28.6633 98.341 28.6663 95.9225 28.8683 93.5249C28.9604 92.4285 29.0971 91.3292 29.2695 90.2596C29.9914 85.806 30.1281 80.8591 29.6824 75.1427C29.3081 70.3503 28.289 63.3593 23.761 58.0232C23.6065 57.842 23.348 57.7856 23.1311 57.8895L16.3987 61.1191C16.2531 61.1904 16.1461 61.3241 16.1134 61.4846C16.0778 61.642 16.1193 61.8084 16.2263 61.9332C18.3625 64.4646 20.8672 69.8839 21.3099 75.7934C21.3723 76.6015 21.4198 77.4156 21.4525 78.2148C21.6605 83.3905 21.2801 88.3938 20.3175 93.0911C20.1719 93.7982 20.0204 94.5024 19.8659 95.2095C19.5094 96.8525 19.141 98.5549 18.8855 100.254C18.5201 102.7 18.5468 105.198 18.9598 107.685C19.0638 108.309 19.1766 108.835 19.3014 109.242C19.4737 109.839 19.9847 110.252 20.6087 110.288C21.2326 110.323 21.7971 109.973 22.0408 109.391C22.1745 109.085 22.2695 108.63 22.3498 108.092C22.4419 108.428 22.5399 108.764 22.638 109.102C22.7776 109.578 22.9172 110.065 23.0509 110.573C23.2024 111.126 23.6838 111.553 24.2245 111.619C25.0683 111.699 25.6774 111.268 25.8586 110.475C25.93 110.16 25.9775 109.836 26.0102 109.512C26.1498 109.907 26.2984 110.294 26.4588 110.674C26.6311 111.09 26.8659 111.657 27.3442 112.056C27.674 112.344 28.0483 112.492 28.4227 112.492H28.4197ZM23.2143 59.0126C27.3263 64.0783 28.2771 70.6682 28.6336 75.2229C29.0733 80.8561 28.9426 85.7198 28.2326 90.0903C28.0543 91.1896 27.9146 92.3127 27.8225 93.4357C27.6145 95.8928 27.6115 98.3707 27.8136 100.798C27.9681 102.67 28.3306 104.542 28.6515 106.194C28.6901 106.399 28.7346 106.607 28.7762 106.815C29.0525 108.172 29.314 109.456 29.0347 110.748C28.9634 111.078 28.7673 111.348 28.5445 111.42C28.384 111.473 28.2117 111.417 28.0245 111.253C27.7571 111.031 27.6027 110.689 27.4274 110.267C26.7827 108.719 26.3013 107.061 25.9894 105.335C25.9418 105.071 25.6982 104.886 25.4337 104.904C25.1663 104.925 24.9554 105.142 24.9465 105.412C24.9287 105.98 24.9495 106.568 24.9703 107.138C25.0089 108.19 25.0505 109.278 24.8306 110.237C24.7682 110.517 24.6405 110.6 24.3344 110.57C24.2305 110.558 24.0997 110.43 24.0641 110.297C23.9304 109.786 23.7877 109.29 23.6451 108.805C23.1579 107.127 22.736 105.677 22.8697 104.06C22.8935 103.793 22.7093 103.552 22.4449 103.499C22.1804 103.448 21.9219 103.603 21.8417 103.861C21.6872 104.363 21.598 105.267 21.5 106.22C21.396 107.239 21.2683 108.508 21.0692 108.972C20.9622 109.227 20.7335 109.233 20.6682 109.23C20.582 109.224 20.3799 109.186 20.3086 108.936C20.1987 108.565 20.0918 108.083 19.9967 107.501C19.6015 105.124 19.5778 102.735 19.9254 100.4C20.175 98.7332 20.5403 97.0516 20.8939 95.4234C21.0484 94.7133 21.2029 94.0032 21.3485 93.2931C22.3289 88.5126 22.7152 83.4232 22.5043 78.1643C22.4716 77.3532 22.4241 76.5243 22.3587 75.7042C21.9219 69.9017 19.649 64.6636 17.4504 61.7728L23.2173 59.0067L23.2143 59.0126Z" fill="#1A1A1A"/>
<path d="M84.9291 108.196C85.0984 108.196 85.2678 108.167 85.4342 108.104C86.0047 107.89 86.4384 107.32 86.5632 106.613C86.8335 105.091 86.483 103.65 86.1443 102.257C86.0938 102.055 86.0462 101.853 85.9987 101.651C85.6214 100.044 85.1965 98.2193 84.9767 96.404C84.6914 94.0419 84.6052 91.6264 84.7181 89.2198C84.7686 88.1235 84.8637 87.0212 84.9974 85.9398C85.553 81.4623 85.5026 76.5154 84.843 70.8169C84.2903 66.0423 83.0098 59.0959 78.2828 53.9292C78.1223 53.7539 77.8608 53.7093 77.6499 53.8192L71.0422 57.2984C70.8996 57.3756 70.7986 57.5123 70.7689 57.6727C70.7421 57.8332 70.7896 57.9966 70.8996 58.1184C73.1309 60.5696 75.8346 65.8878 76.5001 71.7795C76.5922 72.5698 76.6695 73.3839 76.7348 74.195C77.1389 79.3558 76.9428 84.371 76.1584 89.104C76.0395 89.817 75.9148 90.5271 75.787 91.2402C75.4929 92.8951 75.1869 94.6064 74.9967 96.3178C74.7234 98.7749 74.8422 101.271 75.3503 103.74C75.478 104.361 75.6117 104.88 75.7484 105.282C75.9415 105.873 76.4704 106.265 77.0943 106.28C77.7391 106.304 78.2709 105.92 78.4907 105.329C78.6125 105.017 78.6898 104.56 78.7493 104.019C78.8532 104.352 78.9631 104.684 79.076 105.02C79.2305 105.49 79.391 105.971 79.5425 106.47C79.7119 107.017 80.211 107.427 80.7547 107.471C81.6164 107.519 82.1927 107.067 82.3442 106.265C82.4037 105.947 82.4393 105.623 82.4572 105.299C82.6117 105.689 82.7751 106.069 82.9474 106.443C83.1346 106.85 83.393 107.412 83.8832 107.792C84.2071 108.057 84.5666 108.19 84.9261 108.19L84.9291 108.196ZM77.7777 54.9453C82.0769 59.8535 83.2742 66.4048 83.8001 70.9417C84.4508 76.5541 84.5012 81.4207 83.9545 85.815C83.8179 86.9202 83.7198 88.0522 83.6693 89.1753C83.5535 91.6383 83.6426 94.1132 83.9368 96.5347C84.1626 98.4065 84.5964 100.257 84.9767 101.895C85.0242 102.1 85.0747 102.305 85.1252 102.51C85.452 103.855 85.764 105.13 85.5292 106.431C85.4698 106.764 85.2857 107.04 85.0658 107.121C84.9113 107.18 84.733 107.13 84.5399 106.975C84.2666 106.761 84.0912 106.414 83.907 106.012C83.2059 104.491 82.6622 102.851 82.2848 101.137C82.2254 100.873 81.9729 100.7 81.7144 100.727C81.447 100.757 81.2449 100.982 81.2449 101.253C81.2449 101.82 81.2925 102.409 81.3341 102.976C81.4143 104.025 81.4945 105.109 81.3133 106.078C81.2598 106.357 81.135 106.443 80.829 106.428C80.725 106.42 80.5883 106.301 80.5467 106.167C80.3952 105.662 80.2318 105.172 80.0743 104.693C79.5247 103.032 79.0493 101.597 79.1236 99.9782C79.1355 99.7108 78.9424 99.4761 78.6779 99.4345C78.4105 99.3929 78.1579 99.5593 78.0896 99.8178C77.9559 100.326 77.8965 101.232 77.8371 102.192C77.7717 103.214 77.6915 104.485 77.5073 104.955C77.4092 105.213 77.1924 105.228 77.1151 105.228C77.032 105.228 76.824 105.195 76.7438 104.949C76.619 104.583 76.4971 104.105 76.3782 103.526C75.894 101.167 75.7811 98.7808 76.0396 96.4307C76.2238 94.755 76.5269 93.0615 76.818 91.4244C76.9458 90.7084 77.0736 89.9923 77.1924 89.2763C77.9916 84.4601 78.1907 79.3588 77.7807 74.1148C77.7153 73.2888 77.6351 72.4658 77.543 71.6607C76.8893 65.8789 74.4203 60.727 72.1177 57.9223L77.7777 54.9423V54.9453Z" fill="#1A1A1A"/>
<path d="M0.214676 59.4702C-1.70465 51.7543 9.41911 42.0477 26.6366 35.0121C24.7916 16.5022 28.1608 2.13104 35.8738 0.214678C43.5897 -1.70465 53.2963 9.41914 60.3319 26.6366C78.8418 24.7916 93.213 28.1608 95.1293 35.8767C97.0486 43.5927 85.9249 53.2993 68.7074 60.3348C70.5524 78.8447 67.1832 93.2159 59.4672 95.1323C51.7513 97.0516 42.0447 85.9278 35.0091 68.7103C16.4992 70.5554 2.12806 67.1861 0.2117 59.4732L0.214676 59.4702Z" fill="#E47249"/>
<path d="M52.8884 56.7493C61.0885 53.8621 66.013 48.987 66.0825 48.9049C66.2859 48.6732 66.2581 48.334 66.0229 48.1478C65.7887 47.9645 65.4386 48.0014 65.2361 48.2264C65.0518 48.4161 52.4668 60.7178 34.1278 57.082C33.8241 57.0192 33.521 57.2091 33.4473 57.5009C33.3735 57.7926 33.5584 58.0766 33.8611 58.1365C41.2418 59.6012 47.7166 58.5703 52.8884 56.7493Z" fill="#1A1A1A"/>
<path d="M58.5999 39.9621C58.9149 41.2307 59.9221 42.0715 60.8491 41.8428C61.7761 41.611 62.2722 40.3958 61.9573 39.1301C61.6424 37.8615 60.6351 37.0207 59.7081 37.2494C58.7812 37.4812 58.285 38.6964 58.5999 39.9621Z" fill="#1A1A1A"/>
<path d="M32.2553 46.5103C32.5702 47.779 33.5774 48.6198 34.5043 48.391C35.4313 48.1593 35.9275 46.9441 35.6126 45.6784C35.2976 44.4127 34.2905 43.5689 33.3635 43.7977C32.4365 44.0294 31.9403 45.2446 32.2553 46.5103Z" fill="#1A1A1A"/>
<path d="M39.3088 33.9188C39.383 33.9188 39.4573 33.904 39.5286 33.8713C44.2616 31.6786 47.3396 29.0255 48.941 25.7632C49.2857 25.059 49.562 24.3252 49.8264 23.6151C50.0641 22.9822 50.3078 22.3286 50.596 21.7195C52.3816 17.9373 55.9944 15.3495 59.2924 13.3173C59.539 13.1657 59.6162 12.8419 59.4646 12.5923C59.3131 12.3457 58.9893 12.2685 58.7397 12.42C55.3111 14.5324 51.5466 17.2391 49.6422 21.2679C49.3361 21.9186 49.0836 22.593 48.84 23.2437C48.5845 23.93 48.3171 24.6401 47.9962 25.2967C46.5048 28.3332 43.5901 30.8259 39.0859 32.9116C38.8215 33.0335 38.7086 33.3454 38.8304 33.6098C38.9195 33.803 39.1097 33.9159 39.3088 33.9159V33.9188Z" fill="#1A1A1A"/>
<path d="M35.4669 30.0771C35.5412 30.0771 35.6155 30.0623 35.6868 30.0296C40.4197 27.8369 43.4978 25.1837 45.0993 21.9214C45.4439 21.2173 45.7202 20.4834 45.9846 19.7733C46.2223 19.1405 46.4659 18.4869 46.7541 17.8778C48.5397 14.0956 52.1526 11.5078 55.4505 9.47553C55.6971 9.324 55.7744 9.00015 55.6229 8.75058C55.4713 8.50398 55.1475 8.42673 54.8979 8.57825C51.4693 10.6907 47.7049 13.3944 45.8004 17.4262C45.4944 18.0769 45.2418 18.7513 44.9982 19.402C44.7427 20.0883 44.4753 20.7984 44.1544 21.455C42.6629 24.4915 39.7483 26.9842 35.2441 29.0699C34.9797 29.1917 34.8668 29.5037 34.9886 29.7681C35.0777 29.9612 35.2678 30.0741 35.4669 30.0741V30.0771Z" fill="#1A1A1A"/>
<path d="M31.6222 26.2355C31.6965 26.2355 31.7707 26.2207 31.842 26.188C36.575 23.9953 39.653 21.3421 41.2545 18.0799C41.5991 17.3757 41.8754 16.6419 42.1398 15.9318C42.3775 15.2989 42.6212 14.6453 42.9094 14.0362C44.695 10.254 48.3079 7.66621 51.6058 5.63398C51.8524 5.48245 51.9297 5.1586 51.7781 4.90903C51.6266 4.66243 51.3027 4.58517 51.0531 4.7367C47.6245 6.84915 43.8601 9.55284 41.9557 13.5846C41.6496 14.2353 41.3971 14.9097 41.1535 15.5604C40.898 16.2467 40.6305 16.9568 40.3097 17.6134C38.8182 20.6499 35.9035 23.1426 31.3994 25.2313C31.1349 25.3531 31.022 25.6651 31.1438 25.9295C31.2329 26.1227 31.4231 26.2355 31.6222 26.2355Z" fill="#1A1A1A"/>
</svg>
