<svg width="420" height="420" viewBox="0 0 420 420" fill="none" xmlns="http://www.w3.org/2000/svg">
<rect width="420" height="420" rx="12" transform="matrix(-1 0 0 1 420 0)" fill="#333335"/>
<path d="M79 180H89.5195V196.992L91.3596 194.954C97.1574 190.224 106.492 191.527 111.033 197.348C112.283 198.947 113.169 200.874 113.758 202.804C114.809 199.435 116.706 196.199 119.771 194.272C123.689 191.808 129.87 191.286 133.968 193.568C135.456 194.399 136.513 195.513 137.561 196.82V192.92H147.993V199.25L149.15 197.227C153.31 191.227 166.231 191.079 172.335 193.685C176.33 195.39 177.74 197.749 178.825 201.748C178.85 201.837 178.809 201.961 178.937 201.936C181.208 196.569 186.173 193.096 191.967 192.327C200.35 191.212 207.929 194.402 211.222 201.806C211.718 202.924 212.08 204.094 212.336 205.289L212.86 207.744V192.92H223.027V197.687L224.427 195.909C227.44 192.611 231.239 191.601 235.652 192.354C239.272 192.972 241.942 194.973 243.583 198.206C245.772 194.927 249.24 192.41 253.313 192.141C257.386 191.873 261.84 193.201 264.313 196.736L262.822 192.923H274L274.174 193.182C276.666 199.963 278.778 206.877 280.855 213.797L281.185 214.596L288.814 192.923H307.442V197.69L309.369 195.479C314.104 190.968 323.154 190.848 327.514 195.918L328.656 197.52V192.926H333.827V182.782H344.259V192.926H349.695V200.469H344.259V227.084H333.827V200.469H329.794C330.087 202.344 330.237 204.237 330.237 206.132V227.087H319.802V205.716C319.802 203.826 318.392 201.856 316.577 201.275C312.095 199.839 307.804 202.776 307.701 207.445V227.084H297.272V198.648L280.353 240H270.273L276.018 225.784L266.153 201.337L266.418 203.631V227.087H255.983V205.716C255.983 203.316 254.289 201.349 251.897 201C247.241 200.324 244.843 203.838 244.849 208.053V227.087H234.42V205.456C234.42 203.847 233.16 201.952 231.647 201.349C227.24 199.602 223.298 202.912 223.286 207.358V227.084H212.857V213.04H187.436C187.885 216.511 189.937 219.447 193.567 220.111C196.967 220.732 200.734 219.673 202.293 216.421H212.155C211.035 221.251 207.268 224.95 202.646 226.651C197.955 228.38 191.727 228.319 187.139 226.29C184.061 224.928 181.488 222.563 179.764 219.716C179.449 220.401 179.246 221.124 178.887 221.797C175.575 228.028 165.371 228.56 159.174 227.852C155.618 227.448 151.595 226.275 149.353 223.347C148.832 222.668 148.492 221.871 147.987 221.186V227.08H137.82V222.745L136.725 224.221C133.631 227.868 128.544 228.439 124.057 227.473C118.664 226.312 115.277 222.263 113.758 217.196C112.327 222.189 108.697 226.296 103.46 227.473C98.8196 228.513 93.655 227.723 90.3959 224.091C90.0372 223.693 89.7534 223.187 89.4197 222.804C89.3418 222.714 89.3355 222.625 89.1702 222.659V227.08H79.0031V180H79ZM169.378 203.838C169.3 201.362 168.018 199.852 165.611 199.287C163.478 198.786 158.606 198.672 157.851 201.325C157.109 203.931 159.27 204.944 161.404 205.444C163.777 206 166.372 206.123 168.786 206.552C171.861 207.102 175.026 208.035 177.359 210.165C177.375 208.025 177.658 205.913 178.148 203.835H169.381L169.378 203.838ZM202.686 206.528C202.088 202.004 198.819 199.475 194.222 199.762C190.289 200.006 187.957 202.807 187.52 206.528H202.686ZM96.3371 200.398C91.2847 200.661 89.5788 204.413 89.3418 208.912C89.1203 213.12 90.0154 218.459 94.9337 219.419C102.765 220.945 104.836 213.306 103.966 207.192C103.354 202.899 100.975 200.157 96.3371 200.398ZM130.176 200.398C125.569 200.611 123.913 204.166 123.533 208.22C123.04 213.478 124.15 219.722 130.768 219.623C136.616 219.534 137.913 214.031 137.738 209.257C137.561 204.468 135.78 200.142 130.179 200.401L130.176 200.398ZM157.106 216.236C157.349 218.283 158.085 219.991 160.178 220.698C162.582 221.51 169.141 221.729 169.543 218.265C169.905 215.155 166.462 214.624 164.136 214.182C158.949 213.201 152.765 213.126 149.231 208.637L147.99 206.528V216.106L148.121 216.236H157.106Z" fill="#F2F1EF"/>
<path d="M352.198 184.76H353.639C354.319 184.76 354.731 185.069 354.731 185.64C354.731 186.042 354.491 186.295 354.11 186.381V186.391C354.874 186.52 354.597 187.694 354.771 187.746V187.789H353.973C353.823 187.663 354.101 186.736 353.446 186.736H352.966V187.789H352.195V184.763L352.198 184.76ZM352.969 186.11H353.49C353.798 186.11 353.961 185.998 353.961 185.745C353.961 185.492 353.798 185.381 353.49 185.381H352.969V186.11Z" fill="#F2F1EF"/>
<path d="M353.484 189.979C351.42 189.979 349.739 188.314 349.739 186.27C349.739 184.226 351.42 182.562 353.484 182.562C355.549 182.562 357.23 184.226 357.23 186.27C357.23 188.314 355.549 189.979 353.484 189.979ZM353.484 183.577C351.984 183.577 350.762 184.785 350.762 186.273C350.762 187.761 351.981 188.969 353.484 188.969C354.988 188.969 356.207 187.761 356.207 186.273C356.207 184.785 354.988 183.577 353.484 183.577Z" fill="#F2F1EF"/>
</svg>
