<svg width="643" height="360" viewBox="0 0 643 360" fill="none" xmlns="http://www.w3.org/2000/svg">
<rect width="643" height="360" rx="12" fill="#E6E2DE"/>
<path d="M129.568 270H106.656L101.28 254.128H63.392L58.144 270H36L69.536 178.864H95.264L129.568 270ZM74.656 220.464L69.408 236.08H95.136L89.888 220.464C88.2667 215.856 85.7067 208.176 82.208 197.424C77.6853 211.333 75.168 219.013 74.656 220.464ZM196.066 270H175.97C174.946 268.037 174.391 265.563 174.306 262.576C169.869 268.549 162.829 271.536 153.186 271.536C145.933 271.536 140.087 269.744 135.65 266.16C131.298 262.576 129.122 257.627 129.122 251.312C129.122 239.024 137.741 232.155 154.978 230.704L165.346 229.808C171.063 229.211 173.922 227.035 173.922 223.28C173.922 218.843 170.551 216.624 163.81 216.624C159.714 216.624 156.813 217.264 155.106 218.544C153.485 219.739 152.503 222 152.162 225.328H132.322C133.517 210.053 144.055 202.416 163.938 202.416C183.565 202.416 193.378 209.2 193.378 222.768V257.84C193.378 263.387 194.274 267.44 196.066 270ZM159.202 258.096C163.725 258.096 167.309 256.944 169.954 254.64C172.599 252.251 173.922 248.709 173.922 244.016V239.152C172.727 240.432 170.509 241.285 167.266 241.712L159.074 242.608C152.674 243.291 149.474 245.936 149.474 250.544C149.474 252.848 150.327 254.683 152.034 256.048C153.741 257.413 156.13 258.096 159.202 258.096Z" fill="#1A1A1A"/>
<path d="M42.28 309.44C43.4133 309.44 44.3 309.76 44.94 310.4C45.58 311.027 45.9 311.92 45.9 313.08V320H43.9V313.36C43.9 311.92 43.1733 311.2 41.72 311.2C41.0533 311.2 40.4533 311.453 39.92 311.96C39.3867 312.48 39.12 313.22 39.12 314.18V320H37.12V305.76H39.12V311.1C39.9067 309.993 40.96 309.44 42.28 309.44ZM57.0752 314.92V315.5H49.2952C49.3885 316.513 49.6885 317.28 50.1952 317.8C50.7018 318.307 51.3885 318.56 52.2552 318.56C53.5618 318.56 54.4152 317.987 54.8152 316.84H56.8352C56.5552 317.893 56.0085 318.727 55.1952 319.34C54.3952 319.94 53.4018 320.24 52.2152 320.24C50.7352 320.24 49.5418 319.747 48.6352 318.76C47.7285 317.773 47.2752 316.467 47.2752 314.84C47.2752 313.213 47.7285 311.907 48.6352 310.92C49.5418 309.933 50.7218 309.44 52.1752 309.44C53.6952 309.44 54.8952 309.953 55.7752 310.98C56.6418 312.007 57.0752 313.32 57.0752 314.92ZM52.1752 311.12C51.3885 311.12 50.7418 311.36 50.2352 311.84C49.7418 312.32 49.4352 313.013 49.3152 313.92H55.0152C54.9218 313.08 54.6218 312.407 54.1152 311.9C53.6218 311.38 52.9752 311.12 52.1752 311.12ZM60.4489 320H58.4489V305.76H60.4489V320ZM67.6914 313.46L69.0714 309.68H71.1914L67.2314 320H65.0114L61.0714 309.68H63.2314L64.6314 313.46C65.5781 316.273 66.0847 317.807 66.1514 318.06C66.1914 317.927 66.2781 317.66 66.4114 317.26C66.5447 316.86 66.7314 316.313 66.9714 315.62C67.2114 314.913 67.4514 314.193 67.6914 313.46ZM80.7384 314.92V315.5H72.9584C73.0518 316.513 73.3518 317.28 73.8584 317.8C74.3651 318.307 75.0518 318.56 75.9184 318.56C77.2251 318.56 78.0784 317.987 78.4784 316.84H80.4984C80.2184 317.893 79.6718 318.727 78.8584 319.34C78.0584 319.94 77.0651 320.24 75.8784 320.24C74.3984 320.24 73.2051 319.747 72.2984 318.76C71.3918 317.773 70.9384 316.467 70.9384 314.84C70.9384 313.213 71.3918 311.907 72.2984 310.92C73.2051 309.933 74.3851 309.44 75.8384 309.44C77.3584 309.44 78.5584 309.953 79.4384 310.98C80.3051 312.007 80.7384 313.32 80.7384 314.92ZM75.8384 311.12C75.0518 311.12 74.4051 311.36 73.8984 311.84C73.4051 312.32 73.0984 313.013 72.9784 313.92H78.6784C78.5851 313.08 78.2851 312.407 77.7784 311.9C77.2851 311.38 76.6384 311.12 75.8384 311.12ZM86.4458 309.68V311.32H84.3658V317.52C84.3658 317.827 84.4524 318.053 84.6258 318.2C84.8124 318.333 85.1191 318.4 85.5458 318.4H86.4458V320C86.0058 320.04 85.5991 320.06 85.2258 320.06C84.2524 320.06 83.5324 319.873 83.0658 319.5C82.5991 319.127 82.3658 318.527 82.3658 317.7V311.32H80.7058V309.68H82.3658V306.72H84.3658V309.68H86.4458ZM89.6697 308.22H87.6297V306.08H89.6697V308.22ZM89.6497 320H87.6497V309.68H89.6497V320ZM95.928 320.24C94.4613 320.24 93.2746 319.747 92.368 318.76C91.4613 317.773 91.008 316.467 91.008 314.84C91.008 313.2 91.4613 311.887 92.368 310.9C93.2613 309.927 94.448 309.44 95.928 309.44C97.1946 309.44 98.2346 309.787 99.048 310.48C99.8746 311.173 100.368 312.107 100.528 313.28H98.488C98.3546 312.6 98.0546 312.08 97.588 311.72C97.1346 311.36 96.5813 311.18 95.928 311.18C95.0613 311.18 94.368 311.5 93.848 312.14C93.3413 312.767 93.088 313.667 93.088 314.84C93.088 316.013 93.3413 316.92 93.848 317.56C94.368 318.187 95.0613 318.5 95.928 318.5C96.5946 318.5 97.1613 318.313 97.628 317.94C98.0946 317.567 98.388 317.027 98.508 316.32H100.548C100.388 317.52 99.888 318.473 99.048 319.18C98.208 319.887 97.168 320.24 95.928 320.24ZM110.632 318.46H111.192V320C110.899 320.04 110.572 320.06 110.212 320.06C109.572 320.06 109.092 319.947 108.772 319.72C108.465 319.48 108.279 319.107 108.212 318.6C107.519 319.693 106.399 320.24 104.852 320.24C103.719 320.24 102.819 319.973 102.152 319.44C101.499 318.893 101.172 318.14 101.172 317.18C101.172 315.313 102.465 314.247 105.052 313.98L106.572 313.82C107.105 313.753 107.492 313.62 107.732 313.42C107.985 313.207 108.112 312.907 108.112 312.52C108.112 312 107.945 311.627 107.612 311.4C107.292 311.16 106.752 311.04 105.992 311.04C105.165 311.04 104.572 311.18 104.212 311.46C103.852 311.727 103.645 312.207 103.592 312.9H101.612C101.759 310.593 103.219 309.44 105.992 309.44C108.712 309.44 110.072 310.453 110.072 312.48V317.94C110.072 318.287 110.259 318.46 110.632 318.46ZM105.152 318.68C106.005 318.68 106.712 318.44 107.272 317.96C107.832 317.48 108.112 316.8 108.112 315.92V314.84C107.859 315.053 107.432 315.193 106.832 315.26L105.392 315.42C104.619 315.513 104.065 315.7 103.732 315.98C103.399 316.247 103.232 316.627 103.232 317.12C103.232 317.613 103.392 318 103.712 318.28C104.045 318.547 104.525 318.68 105.152 318.68ZM120.917 309.44C122.05 309.44 122.937 309.76 123.577 310.4C124.217 311.027 124.537 311.92 124.537 313.08V320H122.537V313.36C122.537 311.92 121.81 311.2 120.357 311.2C119.69 311.2 119.09 311.453 118.557 311.96C118.023 312.48 117.757 313.22 117.757 314.18V320H115.757V309.68H117.677V311.22C118.463 310.033 119.543 309.44 120.917 309.44ZM134.732 318.76C133.785 319.747 132.552 320.24 131.032 320.24C129.512 320.24 128.279 319.747 127.332 318.76C126.385 317.773 125.912 316.467 125.912 314.84C125.912 313.2 126.385 311.887 127.332 310.9C128.265 309.927 129.499 309.44 131.032 309.44C132.565 309.44 133.799 309.927 134.732 310.9C135.665 311.873 136.132 313.187 136.132 314.84C136.132 316.48 135.665 317.787 134.732 318.76ZM128.812 317.54C129.359 318.193 130.099 318.52 131.032 318.52C131.965 318.52 132.699 318.193 133.232 317.54C133.779 316.887 134.052 315.987 134.052 314.84C134.052 313.693 133.779 312.793 133.232 312.14C132.699 311.487 131.965 311.16 131.032 311.16C130.099 311.16 129.359 311.487 128.812 312.14C128.265 312.793 127.992 313.693 127.992 314.84C127.992 315.987 128.265 316.887 128.812 317.54ZM148.229 313.98L149.569 309.68H151.709L148.289 320H146.189L144.769 315.46C144.409 314.313 144.083 313.207 143.789 312.14C143.349 313.7 143.029 314.807 142.829 315.46L141.429 320H139.309L135.889 309.68H138.049L139.369 313.98C139.729 315.14 140.089 316.367 140.449 317.66C140.689 316.7 141.036 315.473 141.489 313.98L142.809 309.68H144.809L146.109 313.98C146.656 315.833 147.009 317.053 147.169 317.64C147.329 317.053 147.683 315.833 148.229 313.98ZM163.729 311.08V305.76H165.729V320H163.809V318.48C163.036 319.653 161.896 320.24 160.389 320.24C158.949 320.24 157.802 319.753 156.949 318.78C156.096 317.807 155.669 316.493 155.669 314.84C155.669 313.187 156.096 311.873 156.949 310.9C157.802 309.927 158.949 309.44 160.389 309.44C161.842 309.44 162.956 309.987 163.729 311.08ZM157.749 314.92C157.749 316.067 158.022 316.953 158.569 317.58C159.116 318.207 159.849 318.52 160.769 318.52C161.716 318.52 162.456 318.193 162.989 317.54C163.522 316.913 163.789 316.013 163.789 314.84C163.789 313.68 163.522 312.773 162.989 312.12C162.456 311.48 161.716 311.16 160.769 311.16C159.849 311.16 159.116 311.493 158.569 312.16C158.022 312.827 157.749 313.747 157.749 314.92ZM169.605 308.22H167.565V306.08H169.605V308.22ZM169.585 320H167.585V309.68H169.585V320ZM175.243 320.26C172.376 320.26 170.87 319.08 170.723 316.72H172.723C172.803 317.44 173.036 317.947 173.423 318.24C173.81 318.533 174.423 318.68 175.263 318.68C176.783 318.68 177.543 318.2 177.543 317.24C177.543 316.827 177.383 316.507 177.063 316.28C176.743 316.053 176.17 315.867 175.343 315.72L174.283 315.52C172.096 315.12 171.003 314.093 171.003 312.44C171.003 311.52 171.356 310.793 172.063 310.26C172.77 309.713 173.743 309.44 174.983 309.44C177.823 309.44 179.276 310.593 179.343 312.9H177.403C177.363 312.207 177.15 311.72 176.763 311.44C176.376 311.147 175.783 311 174.983 311C174.343 311 173.85 311.12 173.503 311.36C173.156 311.6 172.983 311.94 172.983 312.38C172.983 312.78 173.136 313.093 173.443 313.32C173.75 313.533 174.236 313.707 174.903 313.84L175.983 314.02C177.25 314.26 178.163 314.62 178.723 315.1C179.283 315.58 179.563 316.247 179.563 317.1C179.563 318.1 179.183 318.88 178.423 319.44C177.663 319.987 176.603 320.26 175.243 320.26ZM186.012 309.44C187.452 309.44 188.599 309.927 189.452 310.9C190.305 311.873 190.732 313.187 190.732 314.84C190.732 316.48 190.305 317.787 189.452 318.76C188.585 319.747 187.439 320.24 186.012 320.24C184.545 320.24 183.425 319.68 182.652 318.56V323.92H180.652V309.68H182.572V311.24C183.345 310.04 184.492 309.44 186.012 309.44ZM183.432 317.54C183.965 318.193 184.699 318.52 185.632 318.52C186.565 318.52 187.305 318.187 187.852 317.52C188.385 316.867 188.652 315.947 188.652 314.76C188.652 313.613 188.385 312.727 187.852 312.1C187.319 311.473 186.579 311.16 185.632 311.16C184.712 311.16 183.979 311.48 183.432 312.12C182.885 312.787 182.612 313.693 182.612 314.84C182.612 315.987 182.885 316.887 183.432 317.54ZM194.088 320H192.088V305.76H194.088V320ZM204.806 318.46H205.366V320C205.073 320.04 204.746 320.06 204.386 320.06C203.746 320.06 203.266 319.947 202.946 319.72C202.64 319.48 202.453 319.107 202.386 318.6C201.693 319.693 200.573 320.24 199.026 320.24C197.893 320.24 196.993 319.973 196.326 319.44C195.673 318.893 195.346 318.14 195.346 317.18C195.346 315.313 196.64 314.247 199.226 313.98L200.746 313.82C201.28 313.753 201.666 313.62 201.906 313.42C202.16 313.207 202.286 312.907 202.286 312.52C202.286 312 202.12 311.627 201.786 311.4C201.466 311.16 200.926 311.04 200.166 311.04C199.34 311.04 198.746 311.18 198.386 311.46C198.026 311.727 197.82 312.207 197.766 312.9H195.786C195.933 310.593 197.393 309.44 200.166 309.44C202.886 309.44 204.246 310.453 204.246 312.48V317.94C204.246 318.287 204.433 318.46 204.806 318.46ZM199.326 318.68C200.18 318.68 200.886 318.44 201.446 317.96C202.006 317.48 202.286 316.8 202.286 315.92V314.84C202.033 315.053 201.606 315.193 201.006 315.26L199.566 315.42C198.793 315.513 198.24 315.7 197.906 315.98C197.573 316.247 197.406 316.627 197.406 317.12C197.406 317.613 197.566 318 197.886 318.28C198.22 318.547 198.7 318.68 199.326 318.68ZM211.22 313.22L212.42 309.68H214.54L210.34 321.3C209.993 322.287 209.533 322.98 208.96 323.38C208.387 323.78 207.573 323.98 206.52 323.98C206.16 323.98 205.813 323.96 205.48 323.92V322.3H206.48C207.373 322.3 207.973 321.887 208.28 321.06C208.307 320.98 208.347 320.853 208.4 320.68C208.467 320.507 208.52 320.373 208.56 320.28L204.74 309.68H206.92L208.12 313.22C208.76 315.193 209.273 316.84 209.66 318.16C210.18 316.467 210.7 314.82 211.22 313.22Z" fill="#1A1A1A"/>
<rect x="228.5" y="308" width="10" height="1.5" rx="0.75" transform="rotate(90 228.5 308)" fill="#1A1A1A"/>
<path d="M252.9 309.44C254.02 309.44 254.893 309.773 255.52 310.44C256.147 311.093 256.46 311.973 256.46 313.08V320H254.44V313.34C254.44 311.913 253.78 311.2 252.46 311.2C251.753 311.2 251.173 311.473 250.72 312.02C250.267 312.553 250.04 313.327 250.04 314.34V320H248.04V313.34C248.04 311.913 247.373 311.2 246.04 311.2C245.333 311.2 244.753 311.473 244.3 312.02C243.847 312.567 243.62 313.34 243.62 314.34V320H241.62V309.68H243.54V311.22C244.247 310.033 245.24 309.44 246.52 309.44C248.08 309.44 249.14 310.087 249.7 311.38C250.433 310.087 251.5 309.44 252.9 309.44ZM267.61 314.92V315.5H259.83C259.924 316.513 260.224 317.28 260.73 317.8C261.237 318.307 261.924 318.56 262.79 318.56C264.097 318.56 264.95 317.987 265.35 316.84H267.37C267.09 317.893 266.544 318.727 265.73 319.34C264.93 319.94 263.937 320.24 262.75 320.24C261.27 320.24 260.077 319.747 259.17 318.76C258.264 317.773 257.81 316.467 257.81 314.84C257.81 313.213 258.264 311.907 259.17 310.92C260.077 309.933 261.257 309.44 262.71 309.44C264.23 309.44 265.43 309.953 266.31 310.98C267.177 312.007 267.61 313.32 267.61 314.92ZM262.71 311.12C261.924 311.12 261.277 311.36 260.77 311.84C260.277 312.32 259.97 313.013 259.85 313.92H265.55C265.457 313.08 265.157 312.407 264.65 311.9C264.157 311.38 263.51 311.12 262.71 311.12ZM276.564 311.08V305.76H278.564V320H276.644V318.48C275.871 319.653 274.731 320.24 273.224 320.24C271.784 320.24 270.637 319.753 269.784 318.78C268.931 317.807 268.504 316.493 268.504 314.84C268.504 313.187 268.931 311.873 269.784 310.9C270.637 309.927 271.784 309.44 273.224 309.44C274.677 309.44 275.791 309.987 276.564 311.08ZM270.584 314.92C270.584 316.067 270.857 316.953 271.404 317.58C271.951 318.207 272.684 318.52 273.604 318.52C274.551 318.52 275.291 318.193 275.824 317.54C276.357 316.913 276.624 316.013 276.624 314.84C276.624 313.68 276.357 312.773 275.824 312.12C275.291 311.48 274.551 311.16 273.604 311.16C272.684 311.16 271.951 311.493 271.404 312.16C270.857 312.827 270.584 313.747 270.584 314.92ZM282.44 308.22H280.4V306.08H282.44V308.22ZM282.42 320H280.42V309.68H282.42V320ZM291.038 315.5V309.68H293.038V320H291.118V318.46C290.332 319.647 289.252 320.24 287.878 320.24C286.745 320.24 285.858 319.92 285.218 319.28C284.578 318.64 284.258 317.747 284.258 316.6V309.68H286.258V316.32C286.258 317.76 286.985 318.48 288.438 318.48C289.172 318.48 289.785 318.22 290.278 317.7C290.785 317.167 291.038 316.433 291.038 315.5ZM306.173 309.44C307.293 309.44 308.167 309.773 308.793 310.44C309.42 311.093 309.733 311.973 309.733 313.08V320H307.713V313.34C307.713 311.913 307.053 311.2 305.733 311.2C305.027 311.2 304.447 311.473 303.993 312.02C303.54 312.553 303.313 313.327 303.313 314.34V320H301.313V313.34C301.313 311.913 300.647 311.2 299.313 311.2C298.607 311.2 298.027 311.473 297.573 312.02C297.12 312.567 296.893 313.34 296.893 314.34V320H294.893V309.68H296.813V311.22C297.52 310.033 298.513 309.44 299.793 309.44C301.353 309.44 302.413 310.087 302.973 311.38C303.707 310.087 304.773 309.44 306.173 309.44Z" fill="#1A1A1A"/>
<rect x="325" y="308" width="10" height="1.5" rx="0.75" transform="rotate(90 325 308)" fill="#1A1A1A"/>
<path d="M348.12 315.14V315.76H340.48C340.587 316.467 340.847 317.007 341.26 317.38C341.673 317.753 342.2 317.94 342.84 317.94C343.853 317.94 344.547 317.553 344.92 316.78H347.88C347.6 317.847 347.007 318.693 346.1 319.32C345.193 319.933 344.107 320.24 342.84 320.24C341.24 320.24 339.947 319.747 338.96 318.76C337.973 317.773 337.48 316.467 337.48 314.84C337.48 313.2 337.967 311.893 338.94 310.92C339.9 309.933 341.187 309.44 342.8 309.44C344.4 309.44 345.693 309.953 346.68 310.98C347.64 312.02 348.12 313.407 348.12 315.14ZM342.76 311.74C341.48 311.74 340.727 312.42 340.5 313.78H345.06C344.953 313.14 344.7 312.64 344.3 312.28C343.9 311.92 343.387 311.74 342.76 311.74ZM358.162 309.68L354.602 314.68L358.362 320H354.822L354.562 319.62C354.349 319.313 353.776 318.447 352.842 317.02C352.322 317.793 351.742 318.66 351.102 319.62L350.842 320H347.362L351.162 314.72L347.562 309.68H351.122L351.502 310.22C352.249 311.34 352.722 312.06 352.922 312.38C353.416 311.58 353.882 310.86 354.322 310.22L354.702 309.68H358.162ZM364.818 309.68V311.96H362.838V316.78C362.838 317.127 362.924 317.367 363.098 317.5C363.271 317.62 363.578 317.68 364.018 317.68H364.818V320C364.444 320.053 363.964 320.08 363.378 320.08C362.084 320.08 361.151 319.853 360.578 319.4C360.004 318.933 359.718 318.173 359.718 317.12V311.96H358.178V309.68H359.718V306.62H362.838V309.68H364.818ZM371.723 309.52C371.776 309.52 372.003 309.533 372.403 309.56V312.4H371.603C369.776 312.4 368.863 313.333 368.863 315.2V320H365.743V309.68H368.783V311.6C369.263 310.213 370.243 309.52 371.723 309.52ZM382.666 320H379.526C379.366 319.693 379.279 319.307 379.266 318.84C378.572 319.773 377.472 320.24 375.966 320.24C374.832 320.24 373.919 319.96 373.226 319.4C372.546 318.84 372.206 318.067 372.206 317.08C372.206 315.16 373.552 314.087 376.246 313.86L377.866 313.72C378.759 313.627 379.206 313.287 379.206 312.7C379.206 312.007 378.679 311.66 377.626 311.66C376.986 311.66 376.532 311.76 376.266 311.96C376.012 312.147 375.859 312.5 375.806 313.02H372.706C372.892 310.633 374.539 309.44 377.646 309.44C380.712 309.44 382.246 310.5 382.246 312.62V318.1C382.246 318.967 382.386 319.6 382.666 320ZM376.906 318.14C377.612 318.14 378.172 317.96 378.586 317.6C378.999 317.227 379.206 316.673 379.206 315.94V315.18C379.019 315.38 378.672 315.513 378.166 315.58L376.886 315.72C375.886 315.827 375.386 316.24 375.386 316.96C375.386 317.32 375.519 317.607 375.786 317.82C376.052 318.033 376.426 318.14 376.906 318.14ZM393.926 309.44C395.312 309.44 396.412 309.927 397.226 310.9C398.026 311.873 398.426 313.187 398.426 314.84C398.426 316.493 398.026 317.807 397.226 318.78C396.412 319.753 395.312 320.24 393.926 320.24C392.552 320.24 391.512 319.7 390.806 318.62V320H387.766V305.76H390.886V310.94C391.592 309.94 392.606 309.44 393.926 309.44ZM393.066 317.74C393.759 317.74 394.299 317.487 394.686 316.98C395.072 316.46 395.266 315.72 395.266 314.76C395.266 312.88 394.532 311.94 393.066 311.94C391.586 311.94 390.846 312.907 390.846 314.84C390.846 316.773 391.586 317.74 393.066 317.74ZM408.337 318.76C407.35 319.747 406.037 320.24 404.397 320.24C402.757 320.24 401.444 319.747 400.457 318.76C399.47 317.773 398.977 316.467 398.977 314.84C398.977 313.2 399.47 311.887 400.457 310.9C401.43 309.927 402.744 309.44 404.397 309.44C406.05 309.44 407.364 309.927 408.337 310.9C409.31 311.873 409.797 313.187 409.797 314.84C409.797 316.48 409.31 317.787 408.337 318.76ZM404.397 317.74C405.117 317.74 405.67 317.493 406.057 317C406.444 316.507 406.637 315.787 406.637 314.84C406.637 313.893 406.444 313.173 406.057 312.68C405.67 312.187 405.117 311.94 404.397 311.94C403.664 311.94 403.104 312.187 402.717 312.68C402.33 313.173 402.137 313.893 402.137 314.84C402.137 315.787 402.33 316.507 402.717 317C403.104 317.493 403.664 317.74 404.397 317.74ZM413.894 320H410.774V305.76H413.894V320ZM422.416 310.92V305.76H425.536V320H422.496V318.66C421.802 319.713 420.769 320.24 419.396 320.24C418.009 320.24 416.916 319.753 416.116 318.78C415.302 317.807 414.896 316.493 414.896 314.84C414.896 313.187 415.302 311.873 416.116 310.9C416.916 309.927 418.009 309.44 419.396 309.44C420.702 309.44 421.709 309.933 422.416 310.92ZM420.256 317.74C421.736 317.74 422.476 316.773 422.476 314.84C422.476 312.907 421.736 311.94 420.256 311.94C419.562 311.94 419.022 312.2 418.636 312.72C418.249 313.227 418.056 313.96 418.056 314.92C418.056 316.8 418.789 317.74 420.256 317.74Z" fill="#1A1A1A"/>
</svg>
