<svg width="643" height="360" viewBox="0 0 643 360" fill="none" xmlns="http://www.w3.org/2000/svg">
<rect width="643" height="360" rx="12" fill="#E6E2DE"/>
<path d="M104.25 252.562H62.9375L52.1875 276H36.5L84.25 173.438L130.312 276H114.375L104.25 252.562ZM98.3125 238.875L84 206.062L69 238.875H98.3125ZM181.94 215.125H196.065V276H181.94V269.625C176.148 275.042 169.919 277.75 163.253 277.75C154.836 277.75 147.878 274.708 142.378 268.625C136.919 262.417 134.19 254.667 134.19 245.375C134.19 236.25 136.919 228.646 142.378 222.562C147.836 216.479 154.669 213.438 162.878 213.438C169.961 213.438 176.315 216.354 181.94 222.188V215.125ZM148.565 245.375C148.565 251.208 150.128 255.958 153.253 259.625C156.461 263.333 160.503 265.188 165.378 265.188C170.586 265.188 174.794 263.396 178.003 259.812C181.211 256.104 182.815 251.396 182.815 245.688C182.815 239.979 181.211 235.271 178.003 231.562C174.794 227.938 170.628 226.125 165.503 226.125C160.669 226.125 156.628 227.958 153.378 231.625C150.169 235.333 148.565 239.917 148.565 245.375Z" fill="#1A1A1A"/>
<path d="M39.6621 313.539V321H37.4551V313.539H36.6738V311.488H37.4551V307.816C37.4551 306.618 37.6634 305.772 38.0801 305.277C38.653 304.587 39.4863 304.242 40.5801 304.242C40.9707 304.242 41.4622 304.356 42.0547 304.584V306.83L41.8301 306.713C41.3548 306.472 40.9642 306.352 40.6582 306.352C40.2676 306.352 40.0039 306.492 39.8672 306.771C39.7305 307.045 39.6621 307.572 39.6621 308.354V311.488H42.0547V313.539H39.6621ZM45.1215 311.488V316.947C45.1215 318.523 45.7432 319.311 46.9867 319.311C48.2302 319.311 48.852 318.523 48.852 316.947V311.488H51.0492V316.996C51.0492 317.758 50.9548 318.415 50.766 318.969C50.5837 319.464 50.268 319.91 49.8187 320.307C49.0766 320.951 48.1326 321.273 46.9867 321.273C45.8474 321.273 44.9066 320.951 44.1645 320.307C43.7087 319.91 43.3865 319.464 43.1977 318.969C43.0154 318.526 42.9242 317.868 42.9242 316.996V311.488H45.1215ZM55.6883 313.539V321H53.491V313.539H52.5535V311.488H53.491V308.002H55.6883V311.488H57.3973V313.539H55.6883ZM60.6887 311.488V316.947C60.6887 318.523 61.3104 319.311 62.5539 319.311C63.7974 319.311 64.4191 318.523 64.4191 316.947V311.488H66.6164V316.996C66.6164 317.758 66.522 318.415 66.3332 318.969C66.1509 319.464 65.8352 319.91 65.3859 320.307C64.6437 320.951 63.6997 321.273 62.5539 321.273C61.4146 321.273 60.4738 320.951 59.7316 320.307C59.2759 319.91 58.9536 319.464 58.7648 318.969C58.5826 318.526 58.4914 317.868 58.4914 316.996V311.488H60.6887ZM68.9898 311.488H71.1871V312.338C71.5908 311.915 71.9488 311.625 72.2613 311.469C72.5803 311.306 72.9579 311.225 73.3941 311.225C73.9736 311.225 74.579 311.413 75.2105 311.791L74.2047 313.803C73.788 313.503 73.3811 313.354 72.984 313.354C71.7861 313.354 71.1871 314.258 71.1871 316.068V321H68.9898V311.488ZM82.9453 311.488H85.1523V321H82.9453V320.004C82.0404 320.85 81.0671 321.273 80.0254 321.273C78.7103 321.273 77.623 320.798 76.7637 319.848C75.9108 318.878 75.4844 317.667 75.4844 316.215C75.4844 314.789 75.9108 313.601 76.7637 312.65C77.6165 311.7 78.6842 311.225 79.9668 311.225C81.0736 311.225 82.0664 311.68 82.9453 312.592V311.488ZM77.7305 316.215C77.7305 317.126 77.9746 317.868 78.4629 318.441C78.9642 319.021 79.5957 319.311 80.3574 319.311C81.1712 319.311 81.8288 319.031 82.3301 318.471C82.8314 317.891 83.082 317.156 83.082 316.264C83.082 315.372 82.8314 314.636 82.3301 314.057C81.8288 313.49 81.1777 313.207 80.377 313.207C79.6217 313.207 78.9902 313.493 78.4824 314.066C77.9811 314.646 77.7305 315.362 77.7305 316.215ZM93.2977 311.488H95.4949V312.367C95.9181 311.924 96.2794 311.625 96.5789 311.469C96.8979 311.306 97.2983 311.225 97.7801 311.225C98.8543 311.225 99.7039 311.693 100.329 312.631C101.019 311.693 101.953 311.225 103.132 311.225C105.274 311.225 106.345 312.523 106.345 315.121V321H104.138V315.717C104.138 314.805 104.027 314.161 103.805 313.783C103.578 313.399 103.203 313.207 102.682 313.207C102.077 313.207 101.634 313.435 101.354 313.891C101.081 314.346 100.944 315.079 100.944 316.088V321H98.7371V315.746C98.7371 314.053 98.2488 313.207 97.2723 313.207C96.6538 313.207 96.2013 313.438 95.9148 313.9C95.6349 314.363 95.4949 315.092 95.4949 316.088V321H93.2977V311.488ZM117.38 316.762H110.564C110.622 317.543 110.876 318.165 111.325 318.627C111.775 319.083 112.351 319.311 113.054 319.311C113.601 319.311 114.053 319.18 114.411 318.92C114.763 318.66 115.163 318.178 115.613 317.475L117.468 318.51C117.182 318.998 116.879 319.418 116.56 319.77C116.241 320.115 115.899 320.401 115.534 320.629C115.17 320.85 114.776 321.013 114.353 321.117C113.93 321.221 113.471 321.273 112.976 321.273C111.557 321.273 110.417 320.818 109.558 319.906C108.698 318.988 108.269 317.771 108.269 316.254C108.269 314.75 108.685 313.533 109.519 312.602C110.359 311.684 111.472 311.225 112.859 311.225C114.258 311.225 115.365 311.671 116.179 312.562C116.986 313.448 117.39 314.675 117.39 316.244L117.38 316.762ZM115.124 314.965C114.818 313.793 114.079 313.207 112.907 313.207C112.64 313.207 112.39 313.249 112.155 313.334C111.921 313.412 111.706 313.529 111.511 313.686C111.322 313.835 111.159 314.018 111.023 314.232C110.886 314.447 110.782 314.691 110.71 314.965H115.124ZM126.404 304.506H128.611V321H126.404V320.004C125.538 320.85 124.558 321.273 123.464 321.273C122.162 321.273 121.082 320.798 120.222 319.848C119.369 318.878 118.943 317.667 118.943 316.215C118.943 314.796 119.369 313.611 120.222 312.66C121.069 311.703 122.133 311.225 123.416 311.225C124.529 311.225 125.525 311.68 126.404 312.592V304.506ZM121.189 316.215C121.189 317.126 121.433 317.868 121.921 318.441C122.423 319.021 123.054 319.311 123.816 319.311C124.63 319.311 125.287 319.031 125.789 318.471C126.29 317.891 126.541 317.156 126.541 316.264C126.541 315.372 126.29 314.636 125.789 314.057C125.287 313.49 124.636 313.207 123.836 313.207C123.08 313.207 122.449 313.493 121.941 314.066C121.44 314.646 121.189 315.362 121.189 316.215ZM133.182 311.488V321H130.984V311.488H133.182ZM130.652 307.533C130.652 307.149 130.792 306.817 131.072 306.537C131.352 306.257 131.688 306.117 132.078 306.117C132.475 306.117 132.814 306.257 133.094 306.537C133.374 306.811 133.514 307.146 133.514 307.543C133.514 307.94 133.374 308.279 133.094 308.559C132.82 308.839 132.485 308.979 132.088 308.979C131.691 308.979 131.352 308.839 131.072 308.559C130.792 308.279 130.652 307.937 130.652 307.533ZM137.762 311.488V316.947C137.762 318.523 138.384 319.311 139.627 319.311C140.871 319.311 141.493 318.523 141.493 316.947V311.488H143.69V316.996C143.69 317.758 143.595 318.415 143.407 318.969C143.224 319.464 142.909 319.91 142.459 320.307C141.717 320.951 140.773 321.273 139.627 321.273C138.488 321.273 137.547 320.951 136.805 320.307C136.349 319.91 136.027 319.464 135.838 318.969C135.656 318.526 135.565 317.868 135.565 316.996V311.488H137.762ZM146.063 311.488H148.261V312.367C148.684 311.924 149.045 311.625 149.345 311.469C149.664 311.306 150.064 311.225 150.546 311.225C151.62 311.225 152.47 311.693 153.095 312.631C153.785 311.693 154.719 311.225 155.897 311.225C158.039 311.225 159.11 312.523 159.11 315.121V321H156.903V315.717C156.903 314.805 156.792 314.161 156.571 313.783C156.343 313.399 155.969 313.207 155.448 313.207C154.843 313.207 154.4 313.435 154.12 313.891C153.846 314.346 153.71 315.079 153.71 316.088V321H151.503V315.746C151.503 314.053 151.014 313.207 150.038 313.207C149.419 313.207 148.967 313.438 148.68 313.9C148.401 314.363 148.261 315.092 148.261 316.088V321H146.063V311.488Z" fill="#1A1A1A"/>
<rect x="174.5" y="308.5" width="10" height="1.5" rx="0.75" transform="rotate(90 174.5 308.5)" fill="#1A1A1A"/>
<path d="M195.92 315.9C195.92 315.58 195.86 315.28 195.74 315C195.62 314.707 195.453 314.453 195.24 314.24C195.027 314.027 194.78 313.86 194.5 313.74C194.22 313.607 193.913 313.54 193.58 313.54C193.26 313.54 192.96 313.6 192.68 313.72C192.4 313.84 192.153 314.007 191.94 314.22C191.74 314.433 191.573 314.687 191.44 314.98C191.32 315.26 191.26 315.56 191.26 315.88C191.26 316.2 191.32 316.5 191.44 316.78C191.56 317.06 191.727 317.307 191.94 317.52C192.153 317.72 192.4 317.887 192.68 318.02C192.973 318.14 193.28 318.2 193.6 318.2C193.92 318.2 194.22 318.14 194.5 318.02C194.78 317.9 195.02 317.733 195.22 317.52C195.433 317.307 195.6 317.06 195.72 316.78C195.853 316.5 195.92 316.207 195.92 315.9ZM191.36 304.4V311.76C192.213 310.867 193.28 310.42 194.56 310.42C195.32 310.42 196.013 310.567 196.64 310.86C197.28 311.14 197.82 311.527 198.26 312.02C198.713 312.5 199.067 313.073 199.32 313.74C199.573 314.393 199.7 315.093 199.7 315.84C199.7 316.6 199.567 317.313 199.3 317.98C199.047 318.647 198.687 319.227 198.22 319.72C197.753 320.213 197.2 320.607 196.56 320.9C195.933 321.18 195.253 321.32 194.52 321.32C193.187 321.32 192.133 320.833 191.36 319.86V321H187.74V304.4H191.36ZM204.783 315.82C204.783 316.167 204.843 316.487 204.963 316.78C205.097 317.06 205.263 317.307 205.463 317.52C205.677 317.733 205.923 317.9 206.203 318.02C206.497 318.14 206.803 318.2 207.123 318.2C207.443 318.2 207.743 318.14 208.023 318.02C208.317 317.9 208.563 317.733 208.763 317.52C208.977 317.307 209.143 317.06 209.263 316.78C209.397 316.487 209.463 316.173 209.463 315.84C209.463 315.52 209.397 315.22 209.263 314.94C209.143 314.647 208.977 314.393 208.763 314.18C208.563 313.967 208.317 313.8 208.023 313.68C207.743 313.56 207.443 313.5 207.123 313.5C206.803 313.5 206.497 313.56 206.203 313.68C205.923 313.8 205.677 313.967 205.463 314.18C205.263 314.393 205.097 314.64 204.963 314.92C204.843 315.2 204.783 315.5 204.783 315.82ZM200.963 315.78C200.963 315.02 201.117 314.313 201.423 313.66C201.73 312.993 202.157 312.42 202.703 311.94C203.25 311.447 203.897 311.06 204.643 310.78C205.403 310.5 206.23 310.36 207.123 310.36C208.003 310.36 208.817 310.5 209.563 310.78C210.323 311.047 210.977 311.427 211.523 311.92C212.083 312.4 212.517 312.98 212.823 313.66C213.13 314.327 213.283 315.067 213.283 315.88C213.283 316.693 213.123 317.44 212.803 318.12C212.497 318.787 212.07 319.367 211.523 319.86C210.977 320.34 210.317 320.713 209.543 320.98C208.783 321.247 207.957 321.38 207.063 321.38C206.183 321.38 205.37 321.247 204.623 320.98C203.877 320.713 203.23 320.333 202.683 319.84C202.15 319.347 201.73 318.76 201.423 318.08C201.117 317.387 200.963 316.62 200.963 315.78ZM218.587 304.4V321H214.967V304.4H218.587ZM224.021 315.84C224.021 316.173 224.081 316.487 224.201 316.78C224.321 317.06 224.481 317.307 224.681 317.52C224.894 317.733 225.141 317.9 225.421 318.02C225.714 318.14 226.028 318.2 226.361 318.2C226.681 318.2 226.981 318.14 227.261 318.02C227.554 317.9 227.801 317.733 228.001 317.52C228.214 317.307 228.381 317.06 228.501 316.78C228.634 316.5 228.701 316.2 228.701 315.88C228.701 315.56 228.634 315.26 228.501 314.98C228.381 314.687 228.214 314.433 228.001 314.22C227.801 314.007 227.554 313.84 227.261 313.72C226.981 313.6 226.681 313.54 226.361 313.54C226.041 313.54 225.734 313.6 225.441 313.72C225.161 313.84 224.914 314.007 224.701 314.22C224.501 314.433 224.334 314.68 224.201 314.96C224.081 315.227 224.021 315.52 224.021 315.84ZM228.581 304.4H232.221V321H228.581V319.86C227.808 320.833 226.761 321.32 225.441 321.32C224.694 321.32 224.008 321.18 223.381 320.9C222.754 320.62 222.208 320.233 221.741 319.74C221.274 319.247 220.908 318.667 220.641 318C220.388 317.333 220.261 316.613 220.261 315.84C220.261 315.107 220.381 314.413 220.621 313.76C220.874 313.093 221.228 312.513 221.681 312.02C222.134 311.527 222.674 311.14 223.301 310.86C223.941 310.567 224.641 310.42 225.401 310.42C226.681 310.42 227.741 310.867 228.581 311.76V304.4Z" fill="#1A1A1A"/>
</svg>
