<svg width="96" height="129" viewBox="0 0 96 129" fill="none" xmlns="http://www.w3.org/2000/svg">
<path d="M48.4385 128.623C48.4385 128.623 55.9019 128.355 59.6573 128.239L62.0193 128.296L64.4854 64.6073C63.0117 64.0814 61.5409 63.609 60.0524 63.1812L58.4391 104.833C58.2757 104.812 58.1242 104.806 57.9816 104.806C57.319 104.812 56.8348 105.085 56.5971 105.727C56.3861 106.307 56.3921 107.005 56.8288 107.477C57.0754 107.742 57.4141 107.902 57.7587 107.997C57.937 108.051 58.1213 108.08 58.3114 108.086L57.6815 124.407L57.0754 124.133C56.3445 123.792 55.5928 123.491 54.8085 123.307C48.2126 121.762 48.4385 128.62 48.4385 128.62V128.623Z" fill="#1A1A1A"/>
<path d="M31.622 128.623C31.622 128.623 39.0913 128.355 42.8408 128.239L45.2088 128.296L47.6748 64.6073C46.1982 64.0814 44.7245 63.609 43.236 63.1812L41.6375 104.39C41.5365 104.378 41.4444 104.378 41.3523 104.378C40.6957 104.378 40.2055 104.658 39.9737 105.299C39.7569 105.873 39.7687 106.577 40.2054 107.049C40.4461 107.314 40.7878 107.474 41.1354 107.569C41.2572 107.602 41.382 107.626 41.5098 107.644L40.8621 124.407L40.256 124.133C39.5251 123.792 38.7734 123.491 37.989 123.307C31.3991 121.762 31.619 128.62 31.619 128.62L31.622 128.623Z" fill="#1A1A1A"/>
<path d="M28.4192 112.492C28.5707 112.492 28.7223 112.469 28.8738 112.418C29.4532 112.225 29.9077 111.672 30.0593 110.971C30.3861 109.462 30.092 108.009 29.8038 106.604C29.7622 106.399 29.7206 106.197 29.6819 105.992C29.367 104.366 29.0075 102.527 28.8589 100.712C28.6628 98.3411 28.6658 95.9226 28.8679 93.5249C28.96 92.4286 29.0967 91.3293 29.269 90.2597C29.991 85.806 30.1276 80.8591 29.6819 75.1428C29.3076 70.3504 28.2885 63.3594 23.7606 58.0233C23.6061 57.8421 23.3475 57.7856 23.1307 57.8896L16.3982 61.1192C16.2526 61.1905 16.1456 61.3242 16.113 61.4846C16.0773 61.6421 16.1189 61.8085 16.2258 61.9333C18.362 64.4647 20.8667 69.8839 21.3094 75.7934C21.3718 76.6016 21.4193 77.4157 21.452 78.2149C21.66 83.3905 21.2797 88.3939 20.317 93.0912C20.1714 93.7983 20.0199 94.5024 19.8654 95.2096C19.5089 96.8526 19.1405 98.555 18.885 100.254C18.5196 102.7 18.5463 105.198 18.9593 107.685C19.0633 108.309 19.1762 108.835 19.3009 109.242C19.4733 109.839 19.9843 110.252 20.6082 110.288C21.2321 110.324 21.7967 109.973 22.0403 109.391C22.174 109.085 22.2691 108.63 22.3493 108.092C22.4414 108.428 22.5394 108.764 22.6375 109.102C22.7771 109.578 22.9167 110.065 23.0504 110.573C23.202 111.126 23.6833 111.554 24.2241 111.619C25.0679 111.699 25.6769 111.268 25.8582 110.475C25.9295 110.16 25.977 109.836 26.0097 109.512C26.1493 109.908 26.2979 110.294 26.4583 110.674C26.6307 111.09 26.8654 111.658 27.3437 112.056C27.6735 112.344 28.0478 112.492 28.4222 112.492H28.4192ZM23.2138 59.0127C27.3258 64.0784 28.2766 70.6683 28.6331 75.223C29.0728 80.8562 28.9422 85.7199 28.2321 90.0903C28.0538 91.1897 27.9141 92.3127 27.822 93.4358C27.614 95.8929 27.6111 98.3708 27.8131 100.798C27.9676 102.67 28.3301 104.542 28.651 106.194C28.6896 106.399 28.7341 106.607 28.7757 106.815C29.052 108.172 29.3135 109.456 29.0343 110.748C28.9629 111.078 28.7668 111.349 28.544 111.42C28.3835 111.473 28.2112 111.417 28.024 111.253C27.7566 111.031 27.6022 110.689 27.4269 110.267C26.7822 108.719 26.3008 107.061 25.9889 105.335C25.9413 105.071 25.6977 104.886 25.4332 104.904C25.1659 104.925 24.9549 105.142 24.946 105.412C24.9282 105.98 24.949 106.568 24.9698 107.138C25.0084 108.19 25.05 109.278 24.8301 110.237C24.7677 110.517 24.64 110.6 24.334 110.57C24.23 110.558 24.0993 110.43 24.0636 110.297C23.9299 109.786 23.7873 109.29 23.6446 108.805C23.1574 107.127 22.7355 105.677 22.8692 104.06C22.893 103.793 22.7088 103.552 22.4444 103.499C22.18 103.448 21.9215 103.603 21.8412 103.861C21.6867 104.364 21.5976 105.267 21.4995 106.22C21.3955 107.24 21.2678 108.508 21.0687 108.972C20.9618 109.227 20.733 109.233 20.6677 109.23C20.5815 109.224 20.3794 109.186 20.3081 108.936C20.1982 108.565 20.0913 108.083 19.9962 107.501C19.601 105.124 19.5773 102.735 19.9249 100.4C20.1745 98.7333 20.5398 97.0516 20.8934 95.4235C21.0479 94.7134 21.2024 94.0033 21.348 93.2932C22.3285 88.5127 22.7147 83.4232 22.5038 78.1644C22.4711 77.3533 22.4236 76.5243 22.3582 75.7043C21.9215 69.9018 19.6486 64.6637 17.45 61.7728L23.2168 59.0067L23.2138 59.0127Z" fill="#1A1A1A"/>
<path d="M84.9296 108.196C85.0989 108.196 85.2683 108.166 85.4347 108.104C86.0052 107.89 86.4389 107.32 86.5637 106.613C86.834 105.091 86.4835 103.65 86.1448 102.257C86.0943 102.055 86.0467 101.853 85.9992 101.651C85.6219 100.043 85.197 98.2192 84.9772 96.4039C84.6919 94.0419 84.6057 91.6264 84.7186 89.2198C84.7691 88.1234 84.8642 87.0212 84.9979 85.9397C85.5535 81.4623 85.5031 76.5154 84.8435 70.8168C84.2908 66.0423 83.0103 59.0958 78.2833 53.9291C78.1228 53.7538 77.8613 53.7093 77.6504 53.8192L71.0427 57.2983C70.9001 57.3756 70.7991 57.5122 70.7694 57.6727C70.7426 57.8331 70.7901 57.9965 70.9001 58.1183C73.1314 60.5695 75.8351 65.8878 76.5006 71.7794C76.5927 72.5698 76.67 73.3838 76.7353 74.1949C77.1394 79.3557 76.9433 84.371 76.1589 89.1039C76.04 89.817 75.9153 90.5271 75.7875 91.2401C75.4934 92.895 75.1874 94.6064 74.9972 96.3177C74.7239 98.7748 74.8427 101.271 75.3508 103.74C75.4785 104.36 75.6122 104.88 75.7489 105.282C75.942 105.873 76.4709 106.265 77.0948 106.28C77.7396 106.304 78.2714 105.92 78.4912 105.329C78.613 105.017 78.6903 104.56 78.7497 104.019C78.8537 104.352 78.9636 104.684 79.0765 105.02C79.231 105.49 79.3915 105.971 79.543 106.47C79.7124 107.017 80.2115 107.427 80.7552 107.471C81.6169 107.519 82.1932 107.067 82.3447 106.265C82.4042 105.947 82.4398 105.623 82.4577 105.299C82.6122 105.689 82.7755 106.069 82.9479 106.443C83.1351 106.85 83.3935 107.412 83.8837 107.792C84.2076 108.057 84.5671 108.19 84.9266 108.19L84.9296 108.196ZM77.7782 54.9452C82.0774 59.8535 83.2747 66.4047 83.8006 70.9416C84.4513 76.554 84.5017 81.4207 83.955 85.8149C83.8184 86.9202 83.7203 88.0522 83.6698 89.1752C83.554 91.6383 83.6431 94.1132 83.9373 96.5346C84.1631 98.4064 84.5969 100.257 84.9772 101.894C85.0247 102.099 85.0752 102.305 85.1257 102.51C85.4525 103.855 85.7645 105.13 85.5297 106.431C85.4703 106.764 85.2862 107.04 85.0663 107.121C84.9118 107.18 84.7335 107.13 84.5404 106.975C84.2671 106.761 84.0917 106.414 83.9075 106.012C83.2064 104.491 82.6627 102.851 82.2853 101.137C82.2259 100.872 81.9734 100.7 81.7149 100.727C81.4475 100.757 81.2454 100.982 81.2454 101.253C81.2454 101.82 81.293 102.408 81.3346 102.976C81.4148 104.025 81.495 105.109 81.3138 106.078C81.2603 106.357 81.1355 106.443 80.8295 106.428C80.7255 106.419 80.5888 106.301 80.5472 106.167C80.3957 105.662 80.2323 105.172 80.0748 104.693C79.5252 103.032 79.0498 101.597 79.1241 99.9781C79.136 99.7107 78.9429 99.476 78.6784 99.4344C78.411 99.3928 78.1584 99.5592 78.0901 99.8177C77.9564 100.326 77.897 101.232 77.8376 102.192C77.7722 103.214 77.692 104.485 77.5078 104.955C77.4097 105.213 77.1929 105.228 77.1156 105.228C77.0325 105.228 76.8245 105.195 76.7443 104.949C76.6195 104.583 76.4976 104.105 76.3787 103.526C75.8945 101.167 75.7816 98.7808 76.0401 96.4306C76.2243 94.7549 76.5274 93.0614 76.8185 91.4244C76.9463 90.7083 77.0741 89.9923 77.1929 89.2762C77.9921 84.4601 78.1912 79.3587 77.7812 74.1147C77.7158 73.2888 77.6356 72.4658 77.5435 71.6606C76.8898 65.8789 74.4208 60.727 72.1182 57.9223L77.7782 54.9422V54.9452Z" fill="#1A1A1A"/>
<path d="M0.214684 59.4702C-1.70464 51.7543 9.41912 42.0477 26.6366 35.0121C24.7916 16.5022 28.1608 2.13104 35.8738 0.214678C43.5897 -1.70465 53.2963 9.41914 60.3319 26.6366C78.8418 24.7916 93.213 28.1608 95.1293 35.8767C97.0486 43.5927 85.9249 53.2993 68.7074 60.3348C70.5524 78.8447 67.1832 93.2159 59.4672 95.1323C51.7513 97.0516 42.0447 85.9278 35.0092 68.7103C16.4992 70.5554 2.12807 67.1861 0.211708 59.4732L0.214684 59.4702Z" fill="#E47249"/>
<path d="M52.8879 56.7493C61.088 53.8621 66.0125 48.987 66.082 48.9049C66.2855 48.6732 66.2576 48.334 66.0224 48.1478C65.7882 47.9645 65.4381 48.0014 65.2356 48.2264C65.0514 48.4161 52.4663 60.7178 34.1273 57.082C33.8236 57.0192 33.5205 57.2091 33.4468 57.5009C33.373 57.7926 33.5579 58.0766 33.8606 58.1365C41.2413 59.6012 47.7161 58.5703 52.8879 56.7493Z" fill="#1A1A1A"/>
<path d="M58.5997 39.9621C58.9146 41.2307 59.9219 42.0715 60.8488 41.8428C61.7758 41.611 62.272 40.3958 61.9571 39.1301C61.6421 37.8615 60.6349 37.0207 59.7079 37.2494C58.7809 37.4812 58.2848 38.6964 58.5997 39.9621Z" fill="#1A1A1A"/>
<path d="M32.255 46.5103C32.57 47.779 33.5771 48.6198 34.5041 48.391C35.4311 48.1593 35.9273 46.9441 35.6123 45.6784C35.2974 44.4127 34.2902 43.5689 33.3633 43.7977C32.4363 44.0294 31.9401 45.2446 32.255 46.5103Z" fill="#1A1A1A"/>
<path d="M39.3083 33.9188C39.3826 33.9188 39.4568 33.904 39.5281 33.8713C44.2611 31.6786 47.3391 29.0255 48.9406 25.7632C49.2852 25.059 49.5615 24.3252 49.8259 23.6151C50.0636 22.9822 50.3073 22.3286 50.5955 21.7195C52.3811 17.9373 55.994 15.3495 59.2919 13.3173C59.5385 13.1657 59.6157 12.8419 59.4642 12.5923C59.3126 12.3457 58.9888 12.2685 58.7392 12.42C55.3106 14.5324 51.5462 17.2391 49.6417 21.2679C49.3357 21.9186 49.0831 22.593 48.8395 23.2437C48.584 23.93 48.3166 24.6401 47.9958 25.2967C46.5043 28.3332 43.5896 30.8259 39.0854 32.9116C38.821 33.0335 38.7081 33.3454 38.8299 33.6098C38.919 33.803 39.1092 33.9159 39.3083 33.9159V33.9188Z" fill="#1A1A1A"/>
<path d="M35.4667 30.0772C35.541 30.0772 35.6152 30.0623 35.6865 30.0296C40.4195 27.837 43.4976 25.1838 45.099 21.9215C45.4437 21.2173 45.72 20.4835 45.9844 19.7734C46.2221 19.1406 46.4657 18.4869 46.7539 17.8778C48.5395 14.0956 52.1524 11.5078 55.4503 9.47559C55.6969 9.32406 55.7741 9.00021 55.6226 8.75064C55.4711 8.50404 55.1473 8.42679 54.8977 8.57831C51.469 10.6908 47.7046 13.3945 45.8002 17.4262C45.4941 18.0769 45.2416 18.7513 44.998 19.402C44.7425 20.0883 44.475 20.7984 44.1542 21.4551C42.6627 24.4915 39.748 26.9842 35.2438 29.07C34.9794 29.1918 34.8666 29.5037 34.9884 29.7682C35.0775 29.9613 35.2676 30.0742 35.4667 30.0742V30.0772Z" fill="#1A1A1A"/>
<path d="M31.622 26.2355C31.6962 26.2355 31.7705 26.2206 31.8418 26.188C36.5748 23.9953 39.6528 21.3421 41.2542 18.0798C41.5989 17.3757 41.8752 16.6418 42.1396 15.9317C42.3773 15.2989 42.6209 14.6452 42.9091 14.0362C44.6948 10.254 48.3076 7.66614 51.6055 5.63391C51.8521 5.48239 51.9294 5.15854 51.7779 4.90897C51.6264 4.66237 51.3025 4.58511 51.0529 4.73664C47.6242 6.84909 43.8599 9.55278 41.9554 13.5846C41.6494 14.2352 41.3969 14.9097 41.1532 15.5603C40.8977 16.2467 40.6303 16.9567 40.3094 17.6134C38.8179 20.6498 35.9033 23.1426 31.3991 25.2313C31.1347 25.3531 31.0218 25.665 31.1436 25.9295C31.2327 26.1226 31.4229 26.2355 31.622 26.2355Z" fill="#1A1A1A"/>
</svg>
