<svg width="48" height="48" viewBox="0 0 48 48" fill="none" xmlns="http://www.w3.org/2000/svg">
<path d="M17.8814 3.96366C18.9634 3.12934 20.578 2.64926 22.1568 3.2996C24.2517 4.16196 24.6601 6.36643 24.8003 7.27421C25.0174 8.67972 25.0132 10.0785 24.9878 11.3221C24.9578 12.7889 24.8555 14.2491 24.7486 15.6619C25.2556 15.6056 25.8018 15.6328 26.3853 15.7791L26.6089 15.8406C27.8148 16.2075 28.6349 17.0001 29.1783 17.8836C30.1694 17.6516 31.2833 17.6663 32.4029 18.1941C32.7626 18.3639 33.0848 18.5669 33.3726 18.7928C33.8184 18.0489 34.2762 17.3007 34.7408 16.6004C35.3361 15.703 36.0196 14.7446 36.8423 13.867C37.3088 13.3693 38.2736 12.3783 39.6451 12.1004C41.3719 11.751 42.5629 12.8219 43.1207 13.6473C44.0086 14.9616 44.0751 16.4191 43.9527 17.5555L43.8912 18.0213C43.4381 20.8872 41.8801 23.6157 40.8961 25.6521C39.7142 28.0978 38.5917 30.5195 37.6177 32.9939C36.7446 35.2121 35.733 37.6041 34.2261 39.7596C32.8085 41.7868 30.8377 43.5981 28.2652 44.4715L27.7427 44.6336C26.2488 45.0534 24.7629 45.0463 23.4537 44.9363L22.9039 44.8836C21.3238 44.717 19.6966 44.3484 18.1558 43.6717C14.8282 42.2096 12.3215 39.5642 10.6343 36.5906C8.9295 33.5857 7.98796 30.0396 6.95758 27.2976C6.48179 26.0316 5.62147 24.216 5.20562 22.4715C4.89156 21.1532 4.74217 19.0851 6.28472 17.491C7.85396 15.8697 10.2328 15.6742 12.0425 16.7351C13.0524 17.3274 13.7344 18.1646 14.2252 18.8709C14.3085 18.9909 14.3873 19.1137 14.4654 19.2332C14.4706 19.0316 14.4757 18.8255 14.483 18.615C14.5962 15.3609 14.9101 12.104 15.5533 8.86015C15.6598 8.32288 15.799 7.4544 16.0523 6.67948C16.3257 5.84323 16.7865 4.90697 17.6724 4.13554L17.8814 3.96366ZM39.3423 17.8592C39.0409 18.258 38.7417 18.6974 38.4224 19.1785C37.8883 19.9838 37.3855 20.8221 36.8658 21.701C36.4081 22.475 35.9308 23.2885 35.4293 24.0926C34.9356 26.1443 34.3255 28.4729 33.1236 30.576L33.1226 30.575C32.569 31.5437 31.6836 32.644 30.5142 33.3572C29.2781 34.1111 27.5848 34.4866 25.8628 33.5603C25.2262 33.2178 24.7688 32.7575 24.439 32.2566C24.2093 32.414 23.965 32.559 23.7037 32.6853L23.7027 32.6863C22.4103 33.3099 21.012 33.1624 19.8882 32.4783C17.9848 31.3196 17.5364 29.2597 17.5611 27.7703C17.5736 27.0167 17.6869 26.2628 17.8316 25.5633C17.264 26.0866 16.5653 26.2969 15.9039 26.2742C15.2807 26.2528 14.7628 26.0315 14.4273 25.8523C13.9271 25.5851 13.4931 25.2242 13.2154 24.9725L12.9927 24.7644C12.219 24.0228 11.6633 23.1699 11.2359 22.5086C10.8286 21.8784 10.5308 21.4124 10.1949 21.0213L10.0484 20.8582C9.90535 20.7063 9.78925 20.6236 9.71148 20.5828C9.67183 20.562 9.64466 20.5533 9.62652 20.5496C9.61015 20.5565 9.58685 20.5689 9.56011 20.5877C9.52656 20.6113 9.50051 20.636 9.48492 20.6551C9.48365 20.6566 9.48202 20.6577 9.48101 20.659C9.45279 20.7468 9.41706 21.0121 9.5689 21.5877C9.72754 22.1889 9.97865 22.7552 10.2564 23.4607C10.8688 25.0164 11.4799 26.5984 12.0289 28.2322L12.4332 29.4168C13.3803 32.1443 14.3883 34.5978 16.0464 36.5691C17.8205 38.6783 20.1751 39.951 22.9156 40.3601C25.36 40.7248 27.3814 40.3526 29.0015 38.9451C30.4951 37.6475 31.5487 35.7468 32.5142 33.5867C32.9976 32.5054 33.4423 31.405 33.9087 30.2605C34.3702 29.1283 34.8513 27.9564 35.3863 26.7967C36.5388 24.2999 37.6597 22.2198 38.6382 19.865C38.9426 19.1325 39.1874 18.4726 39.3423 17.8592ZM30.481 22.2508C30.4651 22.2422 30.3998 22.2025 30.1812 22.2576C30.068 22.2862 29.94 22.3365 29.8023 22.4051C29.5776 23.1446 29.3309 23.8768 29.065 24.6004C28.9095 25.1339 28.7488 25.6911 28.5894 26.2303C28.3682 26.9781 28.1631 27.77 28.1002 28.5008C28.0588 28.9808 28.0889 29.3188 28.147 29.5486C28.1736 29.5395 28.1973 29.5306 28.2164 29.5213C28.5195 29.3735 28.8844 28.9629 29.3502 28.1209L29.4996 27.8396C30.1806 26.509 30.5919 24.9803 31.0054 23.2693C30.9373 22.7196 30.7484 22.4415 30.566 22.3055L30.481 22.2508ZM25.0494 20.1951C24.7891 20.3632 24.4998 20.6494 24.1627 21.031C24.159 21.0362 24.1556 21.0415 24.1519 21.0467C23.174 22.7887 22.5622 24.8401 22.1587 26.9744C22.0634 27.479 22.0309 27.8745 22.063 28.1785C22.0711 28.2544 22.0837 28.3183 22.0972 28.3728C22.2093 28.2578 22.3369 28.1054 22.4839 27.9031L22.7935 27.4519C23.2646 26.7339 23.664 25.9222 24.063 25.0223L24.4107 24.2049C24.5182 23.9418 24.622 23.6764 24.7232 23.409C24.8608 22.9748 25.0026 22.5443 25.1392 22.1297C25.2843 21.6891 25.4232 21.2653 25.5543 20.8465L25.5552 20.8455C25.5627 20.8217 25.5697 20.7967 25.5777 20.7713C25.5319 20.5848 25.4718 20.4364 25.4058 20.3309C25.3344 20.2167 25.2645 20.1554 25.1861 20.117C25.156 20.1308 25.1114 20.155 25.0494 20.1951ZM20.3365 8.00468C20.306 8.10943 20.2773 8.23099 20.2437 8.38554C20.2269 8.4628 20.2105 8.54106 20.192 8.62968C20.174 8.71533 20.1536 8.81055 20.1324 8.90702C19.935 9.80607 19.7642 10.716 19.6138 11.6336C19.1325 14.5691 19.0017 17.5619 18.9146 20.6717C18.903 21.0842 18.8894 21.4989 18.8765 21.9148C19.16 21.1406 19.4777 20.3825 19.8228 19.6473C19.8894 19.5055 19.9595 19.3649 20.0308 19.2264C20.0137 18.4282 20.0991 17.6554 20.1334 17.1678C20.2265 15.842 20.3311 14.6119 20.4078 13.3357C20.4882 11.9988 20.5337 10.7023 20.4888 9.42753C20.4669 8.80573 20.4586 8.31954 20.3814 7.86698C20.3676 7.90496 20.3523 7.95032 20.3365 8.00468Z" fill="#EFB5D4"/>
<path fill-rule="evenodd" clip-rule="evenodd" d="M18.9861 5.6438C19.6392 5.07512 20.5771 4.81168 21.3952 5.14868C22.368 5.54914 22.6769 6.62728 22.824 7.57934C23.0125 8.80011 23.0141 10.0493 22.989 11.2815C22.9546 12.9644 22.821 14.6445 22.6931 16.3225C22.6235 17.236 22.4875 18.2022 22.5163 19.136C23.415 18.1796 24.5197 17.3732 25.8992 17.719C27.1761 18.0394 27.8544 19.3034 28.0681 20.5354C29.0871 19.8454 30.3796 19.4509 31.5505 20.0032C32.6154 20.5055 33.195 21.5058 33.4167 22.6106C34.4246 20.9825 35.3487 19.3029 36.4079 17.7063C36.9811 16.8422 37.5921 15.9914 38.3015 15.2346C38.7694 14.7354 39.3529 14.2006 40.0427 14.0608C40.6499 13.9379 41.1351 14.2807 41.4636 14.7668C42.0536 15.64 42.0746 16.7038 41.9158 17.7092C41.5225 20.1966 40.1769 22.5444 39.0954 24.7825C37.9063 27.2433 36.7581 29.7174 35.7566 32.262C34.8888 34.4666 33.9489 36.6663 32.5876 38.6135C31.2546 40.5198 29.4612 42.0738 27.2019 42.7083C25.8677 43.0832 24.4779 43.039 23.114 42.8948C21.6923 42.7449 20.274 42.4179 18.9607 41.8411C16.1141 40.5904 13.9004 38.2944 12.3738 35.6038C10.7699 32.7767 9.96604 29.6175 8.82982 26.594C8.25784 25.072 7.5298 23.5967 7.15111 22.0081C6.89033 20.9135 6.90145 19.7304 7.7224 18.8821C8.60889 17.9662 9.96449 17.835 11.031 18.4602C12.3161 19.2138 12.9643 20.7074 13.7937 21.8752C14.1171 22.3301 16.2287 24.8365 16.3435 23.1418C16.4433 21.6613 16.4308 20.1678 16.4822 18.6848C16.5926 15.5117 16.8976 12.3649 17.5154 9.24927C17.7738 7.94588 17.9346 6.55938 18.9861 5.6438Z" fill="#EFB5D4"/>
<path fill-rule="evenodd" clip-rule="evenodd" d="M18.9861 5.6438C19.6392 5.07512 20.5771 4.81168 21.3952 5.14868C22.368 5.54914 22.6769 6.62728 22.824 7.57934C23.0125 8.80011 23.0141 10.0493 22.989 11.2815C22.9546 12.9644 22.821 14.6445 22.6931 16.3225C22.6235 17.236 22.4875 18.2022 22.5163 19.136C23.415 18.1796 24.5197 17.3732 25.8992 17.719C27.1761 18.0394 27.8544 19.3034 28.0681 20.5354C29.0871 19.8454 30.3796 19.4509 31.5505 20.0032C32.6154 20.5055 33.195 21.5058 33.4167 22.6106C34.4246 20.9825 35.3487 19.3029 36.4079 17.7063C36.9811 16.8422 37.5921 15.9914 38.3015 15.2346C38.7694 14.7354 39.3529 14.2006 40.0427 14.0608C40.6499 13.9379 41.1351 14.2807 41.4636 14.7668C42.0536 15.64 42.0746 16.7038 41.9158 17.7092C41.5225 20.1966 40.1769 22.5444 39.0954 24.7825C37.9063 27.2433 36.7581 29.7174 35.7566 32.262C34.8888 34.4666 33.9489 36.6663 32.5876 38.6135C31.2546 40.5198 29.4612 42.0738 27.2019 42.7083C25.8677 43.0832 24.4779 43.039 23.114 42.8948C21.6923 42.7449 20.274 42.4179 18.9607 41.8411C16.1141 40.5904 13.9004 38.2944 12.3738 35.6038C10.7699 32.7767 9.96604 29.6175 8.82982 26.594C8.25784 25.072 7.5298 23.5967 7.15111 22.0081C6.89033 20.9135 6.90145 19.7304 7.7224 18.8821C8.60889 17.9662 9.96449 17.835 11.031 18.4602C12.3161 19.2138 12.9643 20.7074 13.7937 21.8752C14.1171 22.3301 16.2287 24.8365 16.3435 23.1418C16.4433 21.6613 16.4308 20.1678 16.4822 18.6848C16.5926 15.5117 16.8976 12.3649 17.5154 9.24927C17.7738 7.94588 17.9346 6.55938 18.9861 5.6438ZM21.612 5.87036C20.7666 5.02386 19.4542 5.70362 18.863 6.49536C18.4343 7.06999 18.3297 7.79416 18.1794 8.47778C17.9734 9.41637 17.7958 10.3616 17.6404 11.3098C17.1353 14.3899 17.0031 17.5002 16.9158 20.6155C16.8956 21.3345 16.8749 22.0539 16.8493 22.7727C16.8334 23.2253 16.8446 23.7154 16.5095 24.0608C15.8822 24.7068 14.8095 23.7351 14.3767 23.3206C13.2087 22.201 12.6059 20.6577 11.5046 19.4875C10.9922 18.9434 10.3504 18.5432 9.58958 18.5471C8.77028 18.5516 7.91554 19.1642 7.62083 19.9231C7.1072 21.247 7.91596 22.9762 8.39525 24.1936C9.00629 25.7457 9.60191 27.2873 10.1335 28.8694C11.197 32.0337 12.3428 35.2727 14.5163 37.8567C16.6186 40.356 19.4206 41.8604 22.6208 42.3381C25.4321 42.7575 28.1125 42.3672 30.3132 40.4553C32.1565 38.8541 33.3552 36.607 34.3406 34.4026C35.3407 32.1654 36.1752 29.8625 37.2029 27.635C38.2826 25.2959 39.4959 23.0135 40.4851 20.6331C40.9973 19.4005 41.4861 18.0761 41.5212 16.7258C41.5396 16.0156 41.2483 14.7301 40.4197 14.5393C39.7954 14.396 39.1081 15.1191 38.7253 15.5071C37.9694 16.2738 37.3497 17.1782 36.7556 18.0735C35.6249 19.7782 34.6559 21.5829 33.5613 23.3098C33.0479 25.4597 32.4906 27.6528 31.3874 29.5833C30.5048 31.1278 28.6899 32.8103 26.8103 31.7991C25.3139 30.994 25.5444 28.6777 25.8152 27.175C25.1332 28.616 24.2247 30.2129 22.8337 30.885C22.202 31.1898 21.5218 31.131 20.9285 30.7698C19.8938 30.1399 19.5422 28.9569 19.5613 27.804C19.5792 26.7164 19.8603 25.5682 20.1423 24.5237C20.5149 23.1442 21.0271 21.7894 21.6335 20.4973C21.7645 20.2186 21.9071 19.9458 22.0603 19.679C21.9742 18.8997 22.0741 18.0846 22.1286 17.3079C22.2189 16.0237 22.3268 14.7409 22.404 13.4563C22.4862 12.0918 22.5362 10.7234 22.488 9.35669C22.4487 8.23914 22.4522 6.71193 21.612 5.87036ZM31.4265 20.4885C30.3113 19.8906 29.0266 20.4238 28.0954 21.1204C27.8225 22.0873 27.509 23.0448 27.1599 23.9885C26.9962 24.5494 26.8351 25.1102 26.6716 25.6633C26.217 27.2 25.6491 29.4796 26.5896 30.9348C27.1241 31.7621 28.3103 31.6995 29.0906 31.3206C30.0037 30.8766 30.6223 29.9533 31.1003 29.0891C32.0718 27.3331 32.5708 25.3322 33.0359 23.387C33.0286 23.3651 33.0229 23.3419 33.0212 23.3166C32.9435 22.1601 32.48 21.0535 31.4265 20.4885ZM25.7683 18.1975C24.4725 17.7581 23.3265 18.9387 22.5495 19.8362C22.5378 19.8729 22.5166 19.9014 22.489 19.9231C21.3143 21.961 20.629 24.3019 20.1941 26.6028C19.9745 27.7644 19.9073 29.0713 20.7585 29.9993C21.3285 30.6209 22.0967 30.7481 22.8152 30.3362C23.5149 29.935 24.0308 29.2121 24.4656 28.55C25.0262 27.6956 25.4772 26.7672 25.8913 25.8333C26.147 25.2566 26.3858 24.6707 26.6091 24.0784C26.8884 23.1929 27.1913 22.3141 27.4636 21.4436C27.5163 21.2756 27.57 21.1074 27.6316 20.9426C27.5204 19.7427 26.9522 18.5994 25.7683 18.1975Z" fill="#E47249"/>
<path d="M18.7239 5.3422C19.4615 4.70014 20.5561 4.37068 21.5472 4.77872L21.762 4.88029C22.7851 5.43296 23.0825 6.63374 23.2191 7.51798C23.3648 8.46144 23.4021 9.41719 23.4007 10.3568L23.389 11.2895C23.3543 12.9858 23.2197 14.6782 23.0921 16.3529C23.0447 16.9756 22.9744 17.5843 22.9378 18.185C23.7561 17.5078 24.7723 17.0237 25.9964 17.3305C27.2882 17.6546 28.0117 18.7795 28.3333 19.9076C29.335 19.3645 30.562 19.0945 31.721 19.641C32.621 20.0656 33.2024 20.7985 33.5403 21.6322C34.3661 20.2589 35.1811 18.8314 36.0745 17.4848C36.6521 16.6141 37.278 15.7422 38.0101 14.9613C38.4776 14.4625 39.137 13.8358 39.9632 13.6684C40.7942 13.5001 41.4208 13.9884 41.7952 14.5424C42.4702 15.5414 42.4753 16.7309 42.3109 17.7719C41.9056 20.3349 40.5173 22.7588 39.4554 24.9565C38.2677 27.4142 37.1252 29.8781 36.1292 32.4086C35.2604 34.6159 34.3057 36.8534 32.9153 38.8422C31.5465 40.7997 29.6833 42.4267 27.3099 43.0932C25.9011 43.489 24.4496 43.4381 23.0716 43.2924V43.2914C21.6185 43.1381 20.1587 42.8041 18.8001 42.2074C15.8573 40.9145 13.5844 38.5484 12.0257 35.8012C10.4016 32.9386 9.57043 29.7019 8.45538 26.7348C7.90267 25.264 7.14817 23.7207 6.76202 22.101C6.4906 20.9617 6.46972 19.6014 7.43488 18.6039C8.45792 17.547 10.0186 17.4023 11.2337 18.1147C11.9496 18.5345 12.4723 19.1517 12.9114 19.7836C13.1313 20.0999 13.3364 20.4287 13.5325 20.7426C13.7305 21.0595 13.9193 21.3624 14.1185 21.643H14.1194C14.2673 21.8509 14.8526 22.5613 15.3987 23.0033C15.533 23.112 15.6552 23.1963 15.7601 23.2524C15.8275 23.2884 15.8766 23.3052 15.9085 23.3139C15.9101 23.3093 15.9137 23.3048 15.9153 23.2992C15.9271 23.259 15.9389 23.1994 15.9446 23.1147C16.0441 21.6401 16.0301 20.1801 16.0823 18.6713C16.1933 15.482 16.5005 12.3126 17.1234 9.1713C17.248 8.54261 17.3598 7.83123 17.5735 7.17716C17.7913 6.51083 18.1254 5.86268 18.723 5.3422H18.7239ZM21.3948 5.14884C20.5768 4.81204 19.6387 5.07536 18.9857 5.64396C17.9346 6.55954 17.7733 7.94621 17.515 9.24943C16.8973 12.365 16.5922 15.5119 16.4818 18.685C16.4304 20.1679 16.4429 21.6616 16.3431 23.142C16.228 24.8361 14.1167 22.3303 13.7933 21.8754C12.9639 20.7076 12.3157 19.214 11.0306 18.4604C9.96412 17.8353 8.60841 17.9664 7.72199 18.8822C6.90139 19.7306 6.88996 20.9138 7.1507 22.0082C7.5294 23.5968 8.25744 25.0722 8.82941 26.5942C9.96562 29.6176 10.7695 32.7769 12.3734 35.6039C13.8999 38.2945 16.1138 40.5905 18.9603 41.8412C20.2734 42.418 21.692 42.745 23.1136 42.8949C24.4774 43.0391 25.8674 43.0832 27.2015 42.7084C29.4606 42.074 31.2542 40.5198 32.5872 38.6137C33.9484 36.6666 34.8884 34.4667 35.7562 32.2621C36.7576 29.7177 37.906 27.2433 39.095 24.7826C40.1764 22.5446 41.522 20.1966 41.9153 17.7094C42.0742 16.7039 42.0532 15.6402 41.4632 14.767C41.1347 14.2808 40.6494 13.938 40.0423 14.061C39.3527 14.2009 38.7689 14.7357 38.3011 15.2348C37.5918 15.9915 36.9806 16.8425 36.4075 17.7065C35.3484 19.303 34.4241 20.9828 33.4163 22.6108C33.1946 21.506 32.615 20.5057 31.5501 20.0033C30.3792 19.4513 29.0866 19.8456 28.0677 20.5356C27.854 19.3035 27.1756 18.0395 25.8987 17.7192C24.5195 17.3736 23.4145 18.1799 22.5159 19.1361C22.4871 18.2025 22.6231 17.2361 22.6927 16.3227C22.8205 14.6448 22.9541 12.9645 22.9886 11.2817C23.0137 10.0496 23.0121 8.80022 22.8235 7.5795C22.6765 6.62744 22.3676 5.5493 21.3948 5.14884ZM18.8626 6.49552C19.4537 5.70382 20.7662 5.02419 21.6116 5.87052C22.4518 6.71209 22.4483 8.2393 22.4876 9.35685C22.5358 10.7235 22.4857 12.0921 22.4036 13.4565C22.3264 14.741 22.2185 16.024 22.1282 17.308C22.0737 18.0847 21.9738 18.8999 22.0599 19.6791C21.9068 19.9458 21.764 20.2189 21.6331 20.4975C21.0268 21.7894 20.5144 23.1444 20.1419 24.5238C19.8599 25.5682 19.5788 26.7166 19.5609 27.8041C19.5418 28.9569 19.8936 30.1401 20.928 30.7699C21.5212 31.1311 22.2018 31.1897 22.8333 30.8852C24.2242 30.2131 25.1329 28.6161 25.8148 27.1752C25.544 28.6777 25.3138 30.9941 26.8099 31.7992C28.6893 32.8104 30.5043 31.1278 31.387 29.5834C32.4902 27.6531 33.0475 25.4597 33.5609 23.31C34.6554 21.5831 35.6246 19.7783 36.7552 18.0736C37.3492 17.1785 37.9692 16.2739 38.7249 15.5072C39.1076 15.1193 39.7951 14.3966 40.4193 14.5395C41.2479 14.7303 41.5392 16.0157 41.5208 16.726C41.4856 18.0762 40.9969 19.4007 40.4847 20.6332C39.4955 23.0135 38.2821 25.2962 37.2025 27.6352C36.1749 29.8626 35.3402 32.1657 34.3402 34.4027C33.3549 36.607 32.156 38.8543 30.3128 40.4555C28.1122 42.3671 25.4315 42.7577 22.6204 42.3383C19.4204 41.8605 16.6181 40.3561 14.5159 37.8568C12.3424 35.2729 11.1966 32.0338 10.1331 28.8695C9.6015 27.2874 9.00587 25.7459 8.39484 24.1938C7.91559 22.9764 7.10708 21.2471 7.62042 19.9233C7.91507 19.1645 8.77001 18.552 9.58917 18.5473C10.35 18.5433 10.9918 18.9436 11.5042 19.4877C12.6055 20.6578 13.2084 22.2012 14.3763 23.3207C14.809 23.7352 15.8817 24.7062 16.5091 24.0609C16.8441 23.7156 16.833 23.2254 16.8489 22.7729C16.8745 22.0542 16.8952 21.3346 16.9153 20.6156C17.0026 17.5005 17.1349 14.3899 17.64 11.31C17.7953 10.3618 17.973 9.41642 18.179 8.47794C18.3292 7.79447 18.4341 7.07009 18.8626 6.49552ZM21.3294 6.15275C21.0412 5.86418 20.6726 5.81874 20.265 5.94962C19.8445 6.0847 19.435 6.39844 19.1839 6.73478C18.8205 7.2219 18.7313 7.83262 18.5706 8.56388C18.4174 9.26171 18.2798 9.96365 18.1556 10.6684L18.0355 11.3744C17.5351 14.4255 17.403 17.5123 17.3157 20.6264C17.2956 21.3453 17.275 22.0662 17.2493 22.7865C17.242 22.9939 17.2406 23.2702 17.1927 23.5297C17.1488 23.7669 17.0619 24.0194 16.8802 24.2445L16.7962 24.3393C16.5535 24.5891 16.2559 24.6854 15.9583 24.6752C15.6774 24.6654 15.4092 24.5622 15.1819 24.4408C14.7281 24.1984 14.3167 23.8174 14.0999 23.6098V23.6088C13.4781 23.0127 13.0123 22.3099 12.5794 21.6401C12.1389 20.9584 11.7336 20.3141 11.2132 19.7611V19.7621C10.7431 19.263 10.2006 18.9437 9.5921 18.9467C8.98442 18.95 8.32079 19.3945 8.04425 19.9545L7.99347 20.0678C7.78243 20.6119 7.83248 21.2754 8.02277 21.9965C8.21282 22.7166 8.52066 23.4193 8.76788 24.0473C9.37913 25.5999 9.97796 27.1493 10.513 28.7416C11.579 31.9134 12.7047 35.0812 14.8226 37.599C16.8592 40.0204 19.5717 41.4787 22.68 41.9428C25.4178 42.3512 27.9665 41.9646 30.0511 40.1537C31.8244 38.6132 32.9945 36.4352 33.9759 34.2397C34.4726 33.1285 34.9279 31.9997 35.3909 30.8637C35.8529 29.7303 36.3221 28.59 36.8402 27.4672C37.9343 25.0968 39.1285 22.855 40.1155 20.4799C40.6272 19.2486 41.0883 17.9844 41.1214 16.7152C41.1293 16.4086 41.069 15.9644 40.9173 15.5863C40.7602 15.1949 40.5517 14.9803 40.3304 14.9291C40.1931 14.8976 39.9895 14.9537 39.7132 15.1498C39.45 15.3367 39.2085 15.5864 39.0101 15.7875C38.2844 16.5235 37.6838 17.3983 37.0892 18.2943C36.5301 19.1373 36.0098 20.0072 35.4896 20.8871C34.9825 21.7447 34.4726 22.6129 33.9349 23.4643C33.4264 25.5909 32.8592 27.8138 31.7347 29.7817C31.2709 30.5932 30.554 31.4582 29.681 31.9906C28.7945 32.5313 27.7167 32.7406 26.6204 32.1508C25.7035 31.6572 25.354 30.716 25.2523 29.7924C25.2275 29.5677 25.2164 29.3387 25.2161 29.1098C25.1185 29.2608 25.0192 29.4107 24.9134 29.5551C24.4052 30.2484 23.7835 30.8708 23.0081 31.2455H23.0071C22.2434 31.6138 21.4193 31.5374 20.72 31.1117V31.1108C19.5121 30.3751 19.1412 29.0173 19.1614 27.7973C19.1803 26.6546 19.4744 25.463 19.7562 24.4193C20.1355 23.0147 20.6567 21.6382 21.2718 20.3276C21.3894 20.0771 21.5169 19.8319 21.6517 19.5912C21.5843 18.8047 21.6802 17.9866 21.7298 17.2797C21.8206 15.9873 21.9281 14.7149 22.0052 13.432C22.087 12.0731 22.1357 10.7188 22.0882 9.37052C22.068 8.79786 22.0595 8.17116 21.9564 7.57853C21.8532 6.98543 21.6646 6.48857 21.3294 6.15275ZM28.095 21.1205C29.0261 20.424 30.311 19.891 31.4261 20.4887C32.4796 21.0537 32.9431 22.1603 33.0208 23.3168C33.0225 23.342 33.0282 23.3654 33.0355 23.3871C32.5704 25.3322 32.0714 27.3334 31.0999 29.0893C30.6219 29.9534 30.0032 30.8768 29.0902 31.3207C28.3099 31.6995 27.1236 31.7621 26.5892 30.935C25.6488 29.4799 26.2166 27.2001 26.6712 25.6635C26.8347 25.1105 26.9959 24.5495 27.1595 23.9887C27.5086 23.045 27.8221 22.0874 28.095 21.1205ZM31.2376 20.8412C30.3765 20.3795 29.325 20.7339 28.4407 21.3637C28.1758 22.2887 27.8758 23.2048 27.5423 24.1078C27.38 24.664 27.218 25.2253 27.055 25.7768C26.8289 26.5409 26.5837 27.4625 26.5062 28.3637C26.4281 29.271 26.5256 30.0986 26.9251 30.7172H26.9261C27.1088 31 27.4087 31.1482 27.7825 31.1811C28.1623 31.2144 28.5819 31.1223 28.9153 30.9604C29.7064 30.5757 30.2747 29.7557 30.7503 28.8959V28.8949C31.6783 27.2174 32.1656 25.2993 32.6263 23.3754C32.6251 23.365 32.6231 23.3541 32.6224 23.3432C32.5499 22.2646 32.1247 21.3171 31.2376 20.8412ZM22.5491 19.8363C23.326 18.9389 24.4722 17.7586 25.7679 18.1977C26.9517 18.5995 27.5199 19.7429 27.6312 20.9428C27.5696 21.1074 27.5158 21.2759 27.4632 21.4438C27.1909 22.3141 26.888 23.1932 26.6087 24.0785C26.3854 24.6707 26.1466 25.2569 25.8909 25.8334C25.4769 26.7673 25.0257 27.6959 24.4652 28.5502C24.0305 29.2122 23.5144 29.9353 22.8148 30.3363C22.0964 30.7479 21.3279 30.621 20.7581 29.9994C19.907 29.0715 19.9741 27.7645 20.1937 26.6029C20.6286 24.3022 21.3141 21.961 22.4886 19.9233C22.5161 19.9017 22.5374 19.8729 22.5491 19.8363ZM25.64 18.5766C25.1499 18.4104 24.6683 18.5362 24.181 18.851C23.7014 19.1608 23.2644 19.624 22.8851 20.06C22.8642 20.098 22.8395 20.1322 22.8118 20.1635C21.6825 22.138 21.0148 24.4151 20.5872 26.6772C20.3688 27.8327 20.3444 28.9563 21.053 29.7289C21.2858 29.9828 21.543 30.119 21.7962 30.1606C22.0487 30.202 22.3281 30.154 22.6165 29.9887C23.2231 29.6408 23.6932 28.9974 24.1312 28.3305L24.3304 28.017C24.7839 27.277 25.166 26.4826 25.5257 25.6713C25.7781 25.1021 26.0138 24.5227 26.2347 23.9369C26.3732 23.4984 26.5173 23.062 26.6595 22.6303C26.8043 22.1908 26.9472 21.7556 27.0823 21.3236C27.1254 21.1863 27.1729 21.0435 27.2239 20.8998C27.1036 19.8169 26.5908 18.8995 25.64 18.5766Z" fill="#E47249"/>
</svg>
