<svg width="32" height="32" viewBox="0 0 35 35" fill="none" xmlns="http://www.w3.org/2000/svg">
  <path d="M3.20896 34.7479C1.80543 34.3981 0.965704 33.5985 0.520142 32.1992C-0.0845492 30.3001 -0.168069 27.0517 0.301409 22.554C0.755996 17.8563 3.30752 5.96227 7.51693 2.41404C9.2825 0.914788 10.7494 0.315089 13.2785 0.0652111C19.1253 -0.484513 28.2972 2.36406 26.7392 11.5595C25.7062 17.6564 20.5284 22.604 14.4611 23.3036L13.6725 23.3536L13.3887 24.453C12.4441 28.3011 9.6012 36.447 3.20896 34.7479ZM15.65 13.4085C16.5063 12.9588 17.2842 12.1092 17.4196 11.3096C17.6144 10.1602 16.9697 9.36057 15.897 9.36057C14.6292 9.36057 13.7369 10.3101 13.4829 11.8093C13.0765 14.2081 15.6012 13.4085 15.65 13.4085Z" fill="#5168E8"/>
</svg>
