<svg width="48" height="48" viewBox="0 0 48 48" fill="none" xmlns="http://www.w3.org/2000/svg">
<g clip-path="url(#clip0_1_459)">
<path d="M21.7498 2.5C23.2748 2.5 24.7378 3.10623 25.8162 4.18457C26.8943 5.26287 27.4998 6.72517 27.4998 8.25V13.2744C28.0605 13.0951 28.6501 13 29.2498 13C30.7748 13 32.2378 13.6062 33.3162 14.6846C33.8293 15.1978 34.2336 15.7987 34.5183 16.4512C35.218 16.1565 35.9758 16 36.7498 16C38.2748 16 39.7378 16.6062 40.8162 17.6846C41.8943 18.7629 42.4998 20.2252 42.4998 21.75V28.5C42.4998 30.7325 42.0601 32.9433 41.2058 35.0059C40.3515 37.0681 39.0996 38.9421 37.5212 40.5205C35.9426 42.0991 34.0682 43.3517 32.0056 44.2061C29.9431 45.0604 27.7322 45.5 25.4998 45.5C23.249 45.5 21.2814 45.1945 19.4919 44.4502C17.6917 43.7014 16.1933 42.5588 14.8113 41.0576C12.8181 38.8926 10.945 35.8224 8.67944 31.8652L6.26343 27.6133C5.51313 26.2934 5.31583 24.7299 5.71362 23.2646C6.11152 21.7995 7.07261 20.5511 8.38745 19.792C9.7024 19.0328 11.2642 18.8248 12.7322 19.2129C14.0664 19.5657 15.2232 20.3857 15.9998 21.5156V8.25C15.9998 6.72507 16.6061 5.26289 17.6843 4.18457C18.7626 3.1063 20.2249 2.50007 21.7498 2.5Z" fill="white" stroke="white" stroke-width="4"/>
<path d="M8.00252 26.625C7.51308 25.7642 7.38401 24.7447 7.64346 23.789C7.90292 22.8333 8.52984 22.0191 9.38742 21.524C10.245 21.0288 11.2636 20.893 12.221 21.1461C13.1783 21.3992 13.9967 22.0207 14.4975 22.875L18 28.5V8.25C18 7.25544 18.3951 6.30161 19.0984 5.59835C19.8016 4.89509 20.7555 4.5 21.75 4.5C22.7446 4.5 23.6984 4.89509 24.4017 5.59835C25.1049 6.30161 25.5 7.25544 25.5 8.25V18.75C25.5 17.7554 25.8951 16.8016 26.5984 16.0984C27.3016 15.3951 28.2555 15 29.25 15C30.2446 15 31.1984 15.3951 31.9017 16.0984C32.6049 16.8016 33 17.7554 33 18.75V21.75C33 20.7554 33.3951 19.8016 34.0984 19.0984C34.8016 18.3951 35.7555 18 36.75 18C37.7446 18 38.6984 18.3951 39.4017 19.0984C40.1049 19.8016 40.5 20.7554 40.5 21.75V28.5C40.5 30.4698 40.112 32.4204 39.3582 34.2403C38.6044 36.0601 37.4995 37.7137 36.1066 39.1066C34.7137 40.4995 33.0602 41.6044 31.2403 42.3582C29.4204 43.112 27.4699 43.5 25.5 43.5C17.2163 43.5 15.0356 39 8.00252 26.625Z" stroke="#1A1A1A" stroke-width="2" stroke-linecap="round" stroke-linejoin="round"/>
</g>
<defs>
<clipPath id="clip0_1_459">
<rect width="48" height="48" fill="white"/>
</clipPath>
</defs>
</svg>
