<svg width="593" height="554" viewBox="0 0 593 554" fill="none" xmlns="http://www.w3.org/2000/svg">
<g clip-path="url(#clip0_1_1444)">
<path d="M243.52 165.71C231.96 128.84 211.3 95.28 203.71 57C200.02 38.39 190.76 15.87 211.07 3.93C232.87 -8.88 245.95 12.52 259.08 26.08C289.13 57.1 303.9 98.6 331.76 135.7C342.24 109.88 350.43 86.42 361.25 64.23C368.2 49.97 377.35 31.62 396.83 36.58C417.16 41.75 418.35 63.09 417.98 79.9C417.46 103.78 412.82 127.57 409.61 154.12C441.84 136.77 470.84 120.03 500.88 105.43C517.23 97.48 535.08 92.14 552.75 87.53C565.88 84.1 580.51 84.73 588.78 97.57C597.14 110.55 590.49 123.31 582.44 134.34C566.58 156.07 545.36 172.08 524.05 188.03C509.45 198.96 495.43 210.66 477.74 224.73C508.15 230.26 535.84 223.87 561.68 233.04C575.22 237.84 591.19 240.96 592.63 258.29C594.11 275.98 578.2 281.56 565.59 287.6C540.41 299.64 512.62 300.55 480.94 303.58C495.94 321.19 509.24 335.61 521.04 351.17C526.99 359.01 533.16 368.65 526.45 379.32C519.83 389.84 508.55 388.97 498.78 387.25C482.13 384.32 465.83 379.41 445.68 374.41C456.84 402.95 467.24 427.98 476.38 453.45C483.99 474.62 489.49 496.43 487.98 519.34C485.84 551.78 465.3 562.73 438.15 544.87C406.46 524.02 387.27 492.46 368.96 460.4C362.57 449.22 356.26 437.99 347.78 423.02C338.02 446.64 338.81 469.03 327.87 487.61C321.39 498.62 314.21 509.37 300.32 508.3C286.73 507.26 284.4 494.02 280.45 483.73C272.02 461.74 277.59 437.8 272.67 410.78C249.92 432.03 230.77 451.3 210.11 468.78C193.78 482.6 175.72 494.52 154.71 500.6C144.02 503.69 132.05 508.56 123.28 498.3C115.96 489.74 119.48 478.9 122.84 469.1C134.95 433.76 157.49 404.51 178.48 374.39C185.98 363.63 194.36 353.48 202.42 342.95C182.56 342.95 163.91 344.09 145.5 342.48C135.79 341.63 124.85 337.63 121.94 325.85C119.1 314.32 125.99 305.47 134.32 299.78C148.56 290.04 164.11 282.23 179.74 273.24C170.06 256.48 151.61 253.47 136.79 245.67C96.01 224.18 56.07 201.5 22.83 169.14C10.12 156.76 -7.92003 143.22 3.75997 122.55C14.18 104.11 33.85 105.78 53.11 108.18C101.32 114.21 146.1 130.81 190.47 149.33C207.26 156.34 222.98 166.74 242.1 167.1C243.39 167.88 244.67 168.67 245.94 169.46C245.13 168.21 244.31 166.96 243.5 165.71H243.52Z" fill="#5168E8"/>
</g>
<defs>
<clipPath id="clip0_1_1444">
<rect width="592.72" height="553.41" fill="white"/>
</clipPath>
</defs>
</svg>
