<svg width="516" height="510" viewBox="0 0 516 510" fill="none" xmlns="http://www.w3.org/2000/svg">
<path d="M6.81098 339.379C82.289 282.298 67.9476 219.325 22.0961 153.746C8.31896 134.052 14.87 121.401 38.8788 124.585C122.843 135.703 172.818 99.6428 192.387 18.3247C197.704 -3.76629 208.536 -5.75633 223.196 11.6638C227.784 17.11 231.752 21.4939 237.828 27.1987C282.306 68.9628 324.554 95.1425 387.614 71.6126C430.322 55.6845 437.145 60.8474 424.411 104.006C403.667 174.317 423.832 219.539 487.377 254.425C525.403 275.303 524.643 285.542 484.703 300.191C411.557 327.029 391.697 376.334 402.789 448.686C408.645 486.898 404.778 487.167 369.638 472.984C344.314 462.76 318.073 454.684 293.168 443.573C279.681 437.561 270.802 441.364 261.142 449.571C241.217 466.496 221.247 483.382 200.957 499.868C180.87 516.189 165.12 512.838 156.858 487.668C149.818 466.228 143.226 444.523 138.501 422.497C133.841 400.778 121.723 390.298 100.104 386.935C74.2932 382.912 49.0072 375.535 23.1739 371.715C-1.02528 368.138 -5.89703 358.898 6.80515 339.389L6.81098 339.379Z" fill="#EFB5D4"/>
</svg>
