<svg width="667" height="656" viewBox="0 0 667 656" fill="none" xmlns="http://www.w3.org/2000/svg">
<path d="M582.57 154.93C553.31 165.78 522.8 163.07 492.95 160.82C464.65 158.69 443.28 121.89 448.2 88.9C449.86 77.74 451.63 66.6 453.51 55.48C455.34 44.66 457.38 33.88 460.28 17.81C414.84 38.45 391.77 94.09 335.82 80.8C287.99 69.44 259.99 29.74 224.91 -3.86444e-05C225.48 9.99996 226.074 16.5 225.48 25.43C219.95 108.5 200.36 155.56 115.69 169.84C77.5199 176.28 39.1699 176.79 -7.69295e-05 181.81C32.0699 191.05 64.4799 199.29 96.1499 209.73C179.03 237.06 192.65 291.83 134.05 356.87C118.44 374.2 104.68 393.2 90.0699 411.44L89.8099 411.13C113.77 403.65 137.26 393.4 161.79 389.21C239.9 375.88 275.45 408.39 285.7 496.5C291.73 548.31 290.26 601.46 286.41 655.2C294.55 628.83 302.12 602.26 311.01 576.14C319.11 552.36 328.24 528.91 337.64 505.61C376.91 408.2 432.7 391.18 542.91 425.35C584.33 438.19 624.44 455.24 666.95 467.21C628.61 436.22 587.35 409.99 549.41 379.11C472.03 316.12 495.72 272.54 542 217.13C557.8 198.22 580.22 184.83 599.59 168.93C593.9 164.27 588.23 159.6 582.57 154.93Z" fill="#EAF9C0"/>
</svg>
