<svg width="242" height="193" viewBox="0 0 242 193" fill="none" xmlns="http://www.w3.org/2000/svg">
<rect y="33" width="242" height="160" rx="12" fill="#E6E2DE"/>
<path d="M94.6521 105.432H93.1321V107.56H90.9241V105.432H85.7881V103.784L91.3721 96.7436H93.1321V103.496H94.6521V105.432ZM88.2201 103.496H90.9241V99.9276L88.2201 103.496ZM98.5506 106.136C98.5506 107.016 97.9426 107.64 97.0626 107.64C96.1826 107.64 95.5586 107.016 95.5586 106.136C95.5586 105.24 96.1826 104.616 97.0626 104.616C97.9426 104.616 98.5506 105.24 98.5506 106.136ZM103.633 107.72C101.329 107.72 99.5846 106.28 99.5206 104.264H101.745C101.873 105.208 102.609 105.736 103.617 105.736C104.929 105.736 105.425 104.904 105.425 104.024C105.425 103.176 104.865 102.312 103.553 102.312C102.689 102.312 102.049 102.664 101.713 103.4L99.8886 102.808L100.833 96.7436H107.089V98.7276H102.449L102.113 100.936C102.657 100.584 103.281 100.424 103.921 100.424C106.497 100.424 107.729 102.2 107.729 104.024C107.729 105.88 106.353 107.72 103.633 107.72ZM111.668 106.136C111.668 107.016 111.06 107.64 110.18 107.64C109.3 107.64 108.676 107.016 108.676 106.136C108.676 105.24 109.3 104.616 110.18 104.616C111.06 104.616 111.668 105.24 111.668 106.136ZM116.641 107.688C114.177 107.688 112.465 106.04 112.465 104.104C112.465 102.744 112.865 101.88 113.873 100.68L117.137 96.7436H119.649L116.545 100.536C116.721 100.472 116.897 100.456 117.073 100.456C119.281 100.456 120.833 101.912 120.833 103.96C120.833 106.04 119.105 107.688 116.641 107.688ZM116.657 105.832C117.665 105.832 118.529 105.192 118.529 104.04C118.529 102.808 117.665 102.2 116.657 102.2C115.649 102.2 114.785 102.76 114.785 104.024C114.785 105.192 115.649 105.832 116.657 105.832ZM134.291 103.992C134.291 106.184 132.531 107.72 129.651 107.72C126.755 107.72 124.947 106.168 124.771 103.736H127.235C127.299 105 128.115 105.816 129.603 105.816C130.835 105.816 131.715 105.272 131.715 104.344C131.715 103.624 131.155 103.192 130.179 103L128.291 102.632C126.547 102.296 125.203 101.352 125.203 99.4476C125.203 97.3996 127.011 95.9276 129.491 95.9276C132.067 95.9276 133.955 97.4316 134.115 99.8316H131.651C131.571 98.6316 130.739 97.8156 129.523 97.8156C128.339 97.8156 127.667 98.4876 127.667 99.2876C127.667 100.072 128.387 100.408 129.219 100.568L131.187 100.968C133.203 101.368 134.291 102.296 134.291 103.992ZM137.957 107.56H135.733V96.0716H137.957V102.632L141.077 99.0156H143.637L140.101 103.112L144.053 107.56H141.221L137.957 103.592V107.56ZM147.492 97.0316C147.492 97.7836 146.884 98.3436 146.004 98.3436C145.14 98.3436 144.532 97.7836 144.532 97.0316C144.532 96.2476 145.14 95.6876 146.004 95.6876C146.884 95.6876 147.492 96.2476 147.492 97.0316ZM147.14 107.56H144.916V99.0156H147.14V107.56ZM151.184 102.904V107.56H148.96V99.0156H151.008V100.232C151.632 99.3836 152.512 98.8556 153.632 98.8556C155.344 98.8556 156.528 99.9756 156.528 102.04V107.56H154.32V102.792C154.32 101.528 153.824 100.824 152.816 100.824C151.936 100.824 151.184 101.528 151.184 102.904Z" fill="#1A1A1A"/>
<path d="M41.099 127.56L38.971 119.678L36.829 127.56H35.247L32.629 117.508H34.141L36.073 125.25L38.187 117.508H39.783L41.869 125.264L43.801 117.508H45.313L42.695 127.56H41.099ZM48.7201 127.7C46.5781 127.7 45.1361 126.146 45.1361 123.808C45.1361 121.61 46.6341 120 48.6781 120C50.8901 120 52.3601 121.792 52.1081 124.2H46.5781C46.6901 125.712 47.4461 126.594 48.6921 126.594C49.7421 126.594 50.4701 126.02 50.7081 125.054H52.1081C51.7441 126.706 50.4701 127.7 48.7201 127.7ZM48.6501 121.064C47.5161 121.064 46.7461 121.876 46.5921 123.262H50.6101C50.5401 121.89 49.7981 121.064 48.6501 121.064ZM60.4155 123.85C60.4155 126.076 59.1275 127.7 57.1255 127.7C56.0755 127.7 55.1795 127.168 54.6475 126.23V127.56H53.3315V117.508H54.7455V121.414C55.2635 120.504 56.1175 120 57.1255 120C59.1135 120 60.4155 121.596 60.4155 123.85ZM58.9455 123.85C58.9455 122.17 58.0635 121.246 56.8455 121.246C55.6695 121.246 54.7455 122.156 54.7455 123.822C54.7455 125.46 55.6415 126.44 56.8455 126.44C58.0635 126.44 58.9455 125.502 58.9455 123.85ZM67.4491 125.348C67.4491 126.804 66.3151 127.7 64.3411 127.7C62.3811 127.7 61.2191 126.734 61.0791 125.138H62.4371C62.4931 126.062 63.2351 126.636 64.3691 126.636C65.3631 126.636 66.0211 126.286 66.0211 125.586C66.0211 124.97 65.6431 124.704 64.7191 124.522L63.5151 124.298C62.1431 124.032 61.3731 123.332 61.3731 122.212C61.3731 120.91 62.5071 120 64.2291 120C66.0071 120 67.2111 120.952 67.3371 122.478H65.9791C65.8951 121.582 65.2371 121.064 64.2431 121.064C63.3471 121.064 62.7451 121.442 62.7451 122.086C62.7451 122.688 63.1231 122.968 64.0191 123.136L65.2791 123.374C66.7491 123.64 67.4491 124.284 67.4491 125.348ZM70.4349 118.418C70.4349 118.95 70.0149 119.356 69.4129 119.356C68.8109 119.356 68.3769 118.95 68.3769 118.418C68.3769 117.872 68.8109 117.48 69.4129 117.48C70.0149 117.48 70.4349 117.872 70.4349 118.418ZM70.1269 127.56H68.7129V120.14H70.1269V127.56ZM75.9958 126.188V127.434C75.5618 127.63 75.1838 127.7 74.7358 127.7C73.3638 127.7 72.4118 126.958 72.4118 125.32V121.344H70.7738V120.14H72.4118V117.942H73.8258V120.14H76.0658V121.344H73.8258V124.998C73.8258 126.02 74.3158 126.384 75.0718 126.384C75.4078 126.384 75.7018 126.328 75.9958 126.188ZM79.9822 127.7C77.8402 127.7 76.3982 126.146 76.3982 123.808C76.3982 121.61 77.8962 120 79.9402 120C82.1522 120 83.6222 121.792 83.3702 124.2H77.8402C77.9522 125.712 78.7082 126.594 79.9542 126.594C81.0042 126.594 81.7322 126.02 81.9702 125.054H83.3702C83.0062 126.706 81.7322 127.7 79.9822 127.7ZM79.9122 121.064C78.7782 121.064 78.0082 121.876 77.8542 123.262H81.8722C81.8022 121.89 81.0602 121.064 79.9122 121.064ZM90.5294 127.56H87.3514V117.508H90.5294C93.7354 117.508 95.5834 119.552 95.5834 122.492C95.5834 125.39 93.6654 127.56 90.5294 127.56ZM88.8914 118.838V126.23H90.4594C92.7694 126.23 94.0154 124.802 94.0154 122.492C94.0154 120.224 92.7834 118.838 90.4594 118.838H88.8914ZM99.8551 127.7C97.7131 127.7 96.2711 126.146 96.2711 123.808C96.2711 121.61 97.7691 120 99.8131 120C102.025 120 103.495 121.792 103.243 124.2H97.7131C97.8251 125.712 98.5811 126.594 99.8271 126.594C100.877 126.594 101.605 126.02 101.843 125.054H103.243C102.879 126.706 101.605 127.7 99.8551 127.7ZM99.7851 121.064C98.6511 121.064 97.8811 121.876 97.7271 123.262H101.745C101.675 121.89 100.933 121.064 99.7851 121.064ZM110.346 125.348C110.346 126.804 109.212 127.7 107.238 127.7C105.278 127.7 104.116 126.734 103.976 125.138H105.334C105.39 126.062 106.132 126.636 107.266 126.636C108.26 126.636 108.918 126.286 108.918 125.586C108.918 124.97 108.54 124.704 107.616 124.522L106.412 124.298C105.04 124.032 104.27 123.332 104.27 122.212C104.27 120.91 105.404 120 107.126 120C108.904 120 110.108 120.952 110.234 122.478H108.876C108.792 121.582 108.134 121.064 107.14 121.064C106.244 121.064 105.642 121.442 105.642 122.086C105.642 122.688 106.02 122.968 106.916 123.136L108.176 123.374C109.646 123.64 110.346 124.284 110.346 125.348ZM113.332 118.418C113.332 118.95 112.912 119.356 112.31 119.356C111.708 119.356 111.274 118.95 111.274 118.418C111.274 117.872 111.708 117.48 112.31 117.48C112.912 117.48 113.332 117.872 113.332 118.418ZM113.024 127.56H111.61V120.14H113.024V127.56ZM117.675 130.416C115.729 130.416 114.469 129.38 114.385 127.7H115.757C115.841 128.736 116.513 129.296 117.661 129.296C118.935 129.296 119.607 128.61 119.607 127.336V125.992C119.187 126.888 118.347 127.406 117.339 127.406C115.491 127.406 114.175 125.88 114.175 123.696C114.175 121.484 115.435 120 117.297 120C118.361 120 119.201 120.518 119.705 121.456V120.14H121.021V127.308C121.021 129.254 119.775 130.416 117.675 130.416ZM115.603 123.696C115.603 125.236 116.359 126.174 117.591 126.174C118.795 126.174 119.607 125.208 119.607 123.738C119.607 122.198 118.809 121.218 117.591 121.218C116.373 121.218 115.603 122.17 115.603 123.696ZM124.113 123.374V127.56H122.699V120.14H124.015V121.372C124.519 120.546 125.359 120 126.381 120C127.907 120 128.915 120.98 128.915 122.758V127.56H127.501V123.234C127.501 121.96 126.941 121.246 125.891 121.246C124.925 121.246 124.113 122.058 124.113 123.374ZM132.431 126.958C132.431 128.288 131.381 129.324 129.841 129.352V128.554C130.751 128.526 131.367 128.036 131.451 127.35C131.325 127.392 131.241 127.406 131.143 127.406C130.611 127.406 130.219 126.972 130.219 126.454C130.219 125.852 130.667 125.46 131.241 125.46C132.011 125.46 132.431 126.02 132.431 126.958ZM143.739 124.676C143.739 126.51 142.395 127.56 140.309 127.56H136.627V117.508H140.113C142.143 117.508 143.361 118.446 143.361 120.14C143.361 121.092 142.787 121.904 141.821 122.324C143.067 122.674 143.739 123.528 143.739 124.676ZM140.015 118.74H138.041V121.764H140.015C141.233 121.764 141.891 121.19 141.891 120.252C141.891 119.314 141.233 118.74 140.015 118.74ZM140.211 122.996H138.041V126.328H140.211C141.527 126.328 142.269 125.698 142.269 124.634C142.269 123.612 141.527 122.996 140.211 122.996ZM146.536 123.766V127.56H145.122V120.14H146.438V121.708C146.956 120.686 148.076 120.042 149.294 120.042V121.512C147.698 121.428 146.536 122.128 146.536 123.766ZM154.627 127.56V126.412C154.165 127.238 153.339 127.7 152.247 127.7C150.707 127.7 149.699 126.818 149.699 125.46C149.699 124.004 150.861 123.248 153.073 123.248C153.507 123.248 153.857 123.262 154.459 123.332V122.786C154.459 121.722 153.885 121.12 152.905 121.12C151.869 121.12 151.239 121.736 151.197 122.772H149.909C149.979 121.106 151.169 120 152.905 120C154.739 120 155.803 121.036 155.803 122.8V127.56H154.627ZM151.043 125.418C151.043 126.188 151.617 126.692 152.527 126.692C153.717 126.692 154.459 125.95 154.459 124.816V124.214C153.913 124.144 153.521 124.13 153.157 124.13C151.743 124.13 151.043 124.55 151.043 125.418ZM158.827 123.374V127.56H157.413V120.14H158.729V121.372C159.233 120.546 160.073 120 161.095 120C162.621 120 163.629 120.98 163.629 122.758V127.56H162.215V123.234C162.215 121.96 161.655 121.246 160.605 121.246C159.639 121.246 158.827 122.058 158.827 123.374ZM164.695 123.85C164.695 121.596 165.983 120 167.985 120C168.979 120 169.847 120.504 170.365 121.414V117.508H171.779V127.56H170.463V126.23C169.931 127.168 169.035 127.7 167.985 127.7C165.983 127.7 164.695 126.076 164.695 123.85ZM166.165 123.85C166.165 125.502 167.033 126.44 168.265 126.44C169.469 126.44 170.365 125.46 170.365 123.822C170.365 122.156 169.441 121.246 168.265 121.246C167.033 121.246 166.165 122.17 166.165 123.85ZM179.4 127.56H176.222V117.508H179.4C182.606 117.508 184.454 119.552 184.454 122.492C184.454 125.39 182.536 127.56 179.4 127.56ZM177.762 118.838V126.23H179.33C181.64 126.23 182.886 124.802 182.886 122.492C182.886 120.224 181.654 118.838 179.33 118.838H177.762ZM188.726 127.7C186.584 127.7 185.142 126.146 185.142 123.808C185.142 121.61 186.64 120 188.684 120C190.896 120 192.366 121.792 192.114 124.2H186.584C186.696 125.712 187.452 126.594 188.698 126.594C189.748 126.594 190.476 126.02 190.714 125.054H192.114C191.75 126.706 190.476 127.7 188.726 127.7ZM188.656 121.064C187.522 121.064 186.752 121.876 186.598 123.262H190.616C190.546 121.89 189.804 121.064 188.656 121.064ZM196.127 127.714C194.097 127.714 192.669 126.118 192.669 123.85C192.669 121.61 194.125 120 196.127 120C197.961 120 199.291 121.218 199.557 123.15H198.073C197.919 121.96 197.177 121.246 196.141 121.246C194.923 121.246 194.125 122.282 194.125 123.85C194.125 125.432 194.923 126.454 196.141 126.454C197.191 126.454 197.919 125.754 198.087 124.55H199.557C199.305 126.51 197.989 127.714 196.127 127.714ZM202.114 127.56H200.7V117.508H202.114V123.458L205.292 120.14H206.958L203.528 123.738L207.28 127.56H205.46L202.114 124.046V127.56ZM209.912 126.958C209.912 128.288 208.862 129.324 207.322 129.352V128.554C208.232 128.526 208.848 128.036 208.932 127.35C208.806 127.392 208.722 127.406 208.624 127.406C208.092 127.406 207.7 126.972 207.7 126.454C207.7 125.852 208.148 125.46 208.722 125.46C209.492 125.46 209.912 126.02 209.912 126.958ZM64.2194 144.56H62.6794V134.508H64.2194V144.56ZM67.4201 140.374V144.56H66.0061V137.14H67.3221V138.372C67.8261 137.546 68.6661 137 69.6881 137C71.2141 137 72.2221 137.98 72.2221 139.758V144.56H70.8081V140.234C70.8081 138.96 70.2481 138.246 69.1981 138.246C68.2321 138.246 67.4201 139.058 67.4201 140.374ZM79.7064 137.14L76.9204 144.56H75.3804L72.5944 137.14H74.1204L76.1784 142.936L78.2644 137.14H79.7064ZM83.2501 144.7C81.1081 144.7 79.6661 143.146 79.6661 140.808C79.6661 138.61 81.1641 137 83.2081 137C85.4201 137 86.8901 138.792 86.6381 141.2H81.1081C81.2201 142.712 81.9761 143.594 83.2221 143.594C84.2721 143.594 85.0001 143.02 85.2381 142.054H86.6381C86.2741 143.706 85.0001 144.7 83.2501 144.7ZM83.1801 138.064C82.0461 138.064 81.2761 138.876 81.1221 140.262H85.1401C85.0701 138.89 84.3281 138.064 83.1801 138.064ZM93.7414 142.348C93.7414 143.804 92.6074 144.7 90.6334 144.7C88.6734 144.7 87.5114 143.734 87.3714 142.138H88.7294C88.7854 143.062 89.5274 143.636 90.6614 143.636C91.6554 143.636 92.3134 143.286 92.3134 142.586C92.3134 141.97 91.9354 141.704 91.0114 141.522L89.8074 141.298C88.4354 141.032 87.6654 140.332 87.6654 139.212C87.6654 137.91 88.7994 137 90.5214 137C92.2994 137 93.5034 137.952 93.6294 139.478H92.2714C92.1874 138.582 91.5294 138.064 90.5354 138.064C89.6394 138.064 89.0374 138.442 89.0374 139.086C89.0374 139.688 89.4154 139.968 90.3114 140.136L91.5714 140.374C93.0414 140.64 93.7414 141.284 93.7414 142.348ZM99.0956 143.188V144.434C98.6616 144.63 98.2836 144.7 97.8356 144.7C96.4636 144.7 95.5116 143.958 95.5116 142.32V138.344H93.8736V137.14H95.5116V134.942H96.9256V137.14H99.1656V138.344H96.9256V141.998C96.9256 143.02 97.4156 143.384 98.1716 143.384C98.5076 143.384 98.8016 143.328 99.0956 143.188ZM103.138 144.7C101.038 144.7 99.498 143.048 99.498 140.85C99.498 138.652 101.038 137 103.138 137C105.238 137 106.778 138.652 106.778 140.85C106.778 143.048 105.238 144.7 103.138 144.7ZM103.138 143.454C104.356 143.454 105.322 142.474 105.322 140.85C105.322 139.226 104.356 138.26 103.138 138.26C101.92 138.26 100.968 139.226 100.968 140.85C100.968 142.474 101.92 143.454 103.138 143.454ZM109.353 140.766V144.56H107.939V137.14H109.255V138.708C109.773 137.686 110.893 137.042 112.111 137.042V138.512C110.515 138.428 109.353 139.128 109.353 140.766ZM119.194 141.06H117.248V144.56H115.708V134.508H119.194C121.448 134.508 122.904 135.656 122.904 137.756C122.904 139.87 121.448 141.06 119.194 141.06ZM119.18 135.81H117.248V139.758H119.18C120.538 139.758 121.364 139.016 121.364 137.77C121.364 136.524 120.538 135.81 119.18 135.81ZM125.775 135.418C125.775 135.95 125.355 136.356 124.753 136.356C124.151 136.356 123.717 135.95 123.717 135.418C123.717 134.872 124.151 134.48 124.753 134.48C125.355 134.48 125.775 134.872 125.775 135.418ZM125.467 144.56H124.053V137.14H125.467V144.56ZM131.335 143.188V144.434C130.901 144.63 130.523 144.7 130.075 144.7C128.703 144.7 127.751 143.958 127.751 142.32V138.344H126.113V137.14H127.751V134.942H129.165V137.14H131.405V138.344H129.165V141.998C129.165 143.02 129.655 143.384 130.411 143.384C130.747 143.384 131.041 143.328 131.335 143.188ZM135.196 144.714C133.166 144.714 131.738 143.118 131.738 140.85C131.738 138.61 133.194 137 135.196 137C137.03 137 138.36 138.218 138.626 140.15H137.142C136.988 138.96 136.246 138.246 135.21 138.246C133.992 138.246 133.194 139.282 133.194 140.85C133.194 142.432 133.992 143.454 135.21 143.454C136.26 143.454 136.988 142.754 137.156 141.55H138.626C138.374 143.51 137.058 144.714 135.196 144.714ZM141.183 140.374V144.56H139.769V134.508H141.183V138.33C141.673 137.532 142.429 137 143.451 137C144.977 137 145.985 137.98 145.985 139.758V144.56H144.571V140.234C144.571 138.96 144.011 138.246 142.961 138.246C141.995 138.246 141.183 139.058 141.183 140.374ZM153.519 144.56H150.341V134.508H153.519C156.725 134.508 158.573 136.552 158.573 139.492C158.573 142.39 156.655 144.56 153.519 144.56ZM151.881 135.838V143.23H153.449C155.759 143.23 157.005 141.802 157.005 139.492C157.005 137.224 155.773 135.838 153.449 135.838H151.881ZM162.844 144.7C160.702 144.7 159.26 143.146 159.26 140.808C159.26 138.61 160.758 137 162.802 137C165.014 137 166.484 138.792 166.232 141.2H160.702C160.814 142.712 161.57 143.594 162.816 143.594C163.866 143.594 164.594 143.02 164.832 142.054H166.232C165.868 143.706 164.594 144.7 162.844 144.7ZM162.774 138.064C161.64 138.064 160.87 138.876 160.716 140.262H164.734C164.664 138.89 163.922 138.064 162.774 138.064ZM170.245 144.714C168.215 144.714 166.787 143.118 166.787 140.85C166.787 138.61 168.243 137 170.245 137C172.079 137 173.409 138.218 173.675 140.15H172.191C172.037 138.96 171.295 138.246 170.259 138.246C169.041 138.246 168.243 139.282 168.243 140.85C168.243 142.432 169.041 143.454 170.259 143.454C171.309 143.454 172.037 142.754 172.205 141.55H173.675C173.423 143.51 172.107 144.714 170.245 144.714ZM176.232 144.56H174.818V134.508H176.232V140.458L179.41 137.14H181.076L177.646 140.738L181.398 144.56H179.578L176.232 141.046V144.56Z" fill="#1A1A1A"/>
<mask id="path-4-outside-1_1114_161" maskUnits="userSpaceOnUse" x="88.4404" y="0" width="66" height="66" fill="black">
<rect fill="white" x="88.4404" width="66" height="66"/>
<path d="M146 57.5596H96.4404V8H146V57.5596ZM97.8359 56.1641H144.604V9.39551H97.8359V56.1641ZM107.238 35.5596C108.849 35.5596 109.832 36.2864 110.608 37.0723L110.294 37.3672C109.479 36.6206 108.516 36.1885 107.317 36.1885C105.765 36.1885 104.743 37.0236 104.743 38.4482L104.733 38.4385C104.734 41.4742 111.021 40.7277 111.021 45.2568C111.021 47.4184 109.164 48.6367 107.052 48.6367C104.939 48.6367 103.623 47.5657 102.798 46.7109L103.112 46.4365C103.869 47.1635 105.225 47.9785 106.826 47.9785C108.526 47.9784 109.655 46.9957 109.655 45.6006C109.655 41.9854 103.367 42.6041 103.367 38.7432C103.367 36.7585 104.821 35.5597 107.238 35.5596ZM126.88 48.4609H125.239V35.7266H126.88V48.4609ZM138.051 44.9629C138.346 45.4345 138.631 45.985 138.887 46.5254V35.7266H139.643V48.4609H138.405L132.48 39.6377C131.94 38.8517 131.497 38.0362 131.144 37.2207V48.4609H130.388V35.7266H131.9L138.051 44.9629ZM115.147 42.3398L121.771 35.7168H122.526V35.7275L117.859 40.4141L123.185 48.4512H121.289L116.72 41.5635L115.147 43.1455V48.4512H113.507V35.7168H115.147V42.3398ZM110.55 26.1074H112.19L111.787 27.6309H110.55V29.7236H109.026V27.6309H102.944L104.035 26.1074L110.55 17.0098V26.1074ZM131.232 20.4189C133.237 16.0275 138.454 17.0098 138.454 17.0098L138.424 17.1768C132.108 17.3536 132.273 22.9155 132.273 22.9346C132.706 21.8047 133.836 20.8713 135.447 20.832C137.059 20.8026 140.026 22.3551 139.555 25.7939C139.083 29.2229 136.076 30.1363 133.531 29.4092C130.977 28.6722 129.218 24.8108 131.232 20.4189ZM118.734 17.0098H124.855L124.58 18.5527H118.725L117.948 22.4141C117.948 22.4141 119.029 21.1762 120.729 20.9795C122.428 20.783 125.346 21.9027 125.533 24.4668C125.72 27.0312 124.727 28.8204 121.701 29.6162C121.65 29.6222 117.591 30.0816 116.907 26.0889C116.919 26.1215 117.497 27.754 119.472 28.2598C121.466 28.7703 123.194 27.4349 123.607 26.5703C124.02 25.7057 124.099 23.7501 123.254 22.7676C122.409 21.7851 119.225 20.5173 117.496 23.4746L118.715 16.9902L118.734 17.0098ZM134.985 21.3037C133.384 21.3038 132.087 23.1212 132.087 25.3613C132.087 27.6015 133.384 29.4091 134.985 29.4092C136.577 29.4092 137.874 27.6015 137.874 25.3613C137.874 23.1212 136.587 21.3037 134.985 21.3037ZM104.32 26.1074H109.026V19.5449L104.32 26.1074ZM114.46 22.4922C114.899 22.4922 115.256 22.8487 115.256 23.2881C115.256 23.7276 114.899 24.084 114.46 24.084C114.021 24.0838 113.664 23.7275 113.664 23.2881C113.664 22.8488 114.021 22.4924 114.46 22.4922ZM128 22.4922C128.439 22.4923 128.796 22.8488 128.796 23.2881C128.796 23.7275 128.439 24.0838 128 24.084C127.56 24.084 127.204 23.7276 127.204 23.2881C127.204 22.8487 127.561 22.4922 128 22.4922Z"/>
</mask>
<path d="M146 57.5596H96.4404V8H146V57.5596ZM97.8359 56.1641H144.604V9.39551H97.8359V56.1641ZM107.238 35.5596C108.849 35.5596 109.832 36.2864 110.608 37.0723L110.294 37.3672C109.479 36.6206 108.516 36.1885 107.317 36.1885C105.765 36.1885 104.743 37.0236 104.743 38.4482L104.733 38.4385C104.734 41.4742 111.021 40.7277 111.021 45.2568C111.021 47.4184 109.164 48.6367 107.052 48.6367C104.939 48.6367 103.623 47.5657 102.798 46.7109L103.112 46.4365C103.869 47.1635 105.225 47.9785 106.826 47.9785C108.526 47.9784 109.655 46.9957 109.655 45.6006C109.655 41.9854 103.367 42.6041 103.367 38.7432C103.367 36.7585 104.821 35.5597 107.238 35.5596ZM126.88 48.4609H125.239V35.7266H126.88V48.4609ZM138.051 44.9629C138.346 45.4345 138.631 45.985 138.887 46.5254V35.7266H139.643V48.4609H138.405L132.48 39.6377C131.94 38.8517 131.497 38.0362 131.144 37.2207V48.4609H130.388V35.7266H131.9L138.051 44.9629ZM115.147 42.3398L121.771 35.7168H122.526V35.7275L117.859 40.4141L123.185 48.4512H121.289L116.72 41.5635L115.147 43.1455V48.4512H113.507V35.7168H115.147V42.3398ZM110.55 26.1074H112.19L111.787 27.6309H110.55V29.7236H109.026V27.6309H102.944L104.035 26.1074L110.55 17.0098V26.1074ZM131.232 20.4189C133.237 16.0275 138.454 17.0098 138.454 17.0098L138.424 17.1768C132.108 17.3536 132.273 22.9155 132.273 22.9346C132.706 21.8047 133.836 20.8713 135.447 20.832C137.059 20.8026 140.026 22.3551 139.555 25.7939C139.083 29.2229 136.076 30.1363 133.531 29.4092C130.977 28.6722 129.218 24.8108 131.232 20.4189ZM118.734 17.0098H124.855L124.58 18.5527H118.725L117.948 22.4141C117.948 22.4141 119.029 21.1762 120.729 20.9795C122.428 20.783 125.346 21.9027 125.533 24.4668C125.72 27.0312 124.727 28.8204 121.701 29.6162C121.65 29.6222 117.591 30.0816 116.907 26.0889C116.919 26.1215 117.497 27.754 119.472 28.2598C121.466 28.7703 123.194 27.4349 123.607 26.5703C124.02 25.7057 124.099 23.7501 123.254 22.7676C122.409 21.7851 119.225 20.5173 117.496 23.4746L118.715 16.9902L118.734 17.0098ZM134.985 21.3037C133.384 21.3038 132.087 23.1212 132.087 25.3613C132.087 27.6015 133.384 29.4091 134.985 29.4092C136.577 29.4092 137.874 27.6015 137.874 25.3613C137.874 23.1212 136.587 21.3037 134.985 21.3037ZM104.32 26.1074H109.026V19.5449L104.32 26.1074ZM114.46 22.4922C114.899 22.4922 115.256 22.8487 115.256 23.2881C115.256 23.7276 114.899 24.084 114.46 24.084C114.021 24.0838 113.664 23.7275 113.664 23.2881C113.664 22.8488 114.021 22.4924 114.46 22.4922ZM128 22.4922C128.439 22.4923 128.796 22.8488 128.796 23.2881C128.796 23.7275 128.439 24.0838 128 24.084C127.56 24.084 127.204 23.7276 127.204 23.2881C127.204 22.8487 127.561 22.4922 128 22.4922Z" fill="#1A1A1A"/>
<path d="M146 57.5596V65.5596C150.418 65.5596 154 61.9778 154 57.5596H146ZM96.4404 57.5596H88.4404C88.4404 61.9778 92.0222 65.5596 96.4404 65.5596V57.5596ZM96.4404 8V0C92.0222 0 88.4404 3.58172 88.4404 8L96.4404 8ZM146 8H154C154 3.58172 150.418 0 146 0V8ZM97.8359 56.1641H89.8359C89.8359 60.5823 93.4177 64.1641 97.8359 64.1641V56.1641ZM144.604 56.1641V64.1641C149.023 64.1641 152.604 60.5823 152.604 56.1641H144.604ZM144.604 9.39551H152.604C152.604 4.97723 149.023 1.39551 144.604 1.39551V9.39551ZM97.8359 9.39551V1.39551C93.4177 1.39551 89.8359 4.97723 89.8359 9.39551H97.8359ZM107.238 35.5596V27.5596H107.238L107.238 35.5596ZM110.608 37.0723L116.081 42.9074C117.655 41.4315 118.566 39.3825 118.607 37.2254C118.648 35.0683 117.817 32.9859 116.3 31.4508L110.608 37.0723ZM110.294 37.3672L104.892 43.2677C107.977 46.092 112.716 46.0635 115.767 43.2024L110.294 37.3672ZM107.317 36.1885L107.318 28.1885H107.317V36.1885ZM104.743 38.4482L99.0863 44.1051C101.374 46.3931 104.815 47.0775 107.805 45.8393C110.794 44.601 112.743 41.6839 112.743 38.4482H104.743ZM104.733 38.4385L110.39 32.7816C108.102 30.4936 104.661 29.8091 101.672 31.0476C98.6822 32.286 96.7331 35.2033 96.7334 38.4391L104.733 38.4385ZM111.021 45.2568H119.021V45.2564L111.021 45.2568ZM107.052 48.6367L107.052 56.6367H107.052V48.6367ZM102.798 46.7109L97.5378 40.6834C95.8865 42.1244 94.8987 44.1797 94.8051 46.3693C94.7116 48.5589 95.5204 50.691 97.0426 52.2677L102.798 46.7109ZM103.112 46.4365L108.655 40.6678C105.665 37.7951 100.976 37.6828 97.8522 40.409L103.112 46.4365ZM106.826 47.9785V55.9785H106.827L106.826 47.9785ZM109.655 45.6006H117.655V45.5996L109.655 45.6006ZM103.367 38.7432H95.3672V38.7438L103.367 38.7432ZM126.88 48.4609V56.4609C131.298 56.4609 134.88 52.8792 134.88 48.4609H126.88ZM125.239 48.4609H117.239C117.239 52.8792 120.821 56.4609 125.239 56.4609V48.4609ZM125.239 35.7266V27.7266C120.821 27.7266 117.239 31.3083 117.239 35.7266H125.239ZM126.88 35.7266H134.88C134.88 31.3083 131.298 27.7266 126.88 27.7266V35.7266ZM138.051 44.9629L144.835 40.7229C144.794 40.6576 144.752 40.5929 144.71 40.5289L138.051 44.9629ZM138.887 46.5254L131.654 49.9444C133.254 53.3286 136.986 55.151 140.639 54.3312C144.291 53.5114 146.887 50.2686 146.887 46.5254H138.887ZM138.887 35.7266V27.7266C134.468 27.7266 130.887 31.3083 130.887 35.7266H138.887ZM139.643 35.7266H147.643C147.643 31.3083 144.061 27.7266 139.643 27.7266V35.7266ZM139.643 48.4609V56.4609C144.061 56.4609 147.643 52.8792 147.643 48.4609H139.643ZM138.405 48.4609L131.764 52.9207C133.25 55.1335 135.74 56.4609 138.405 56.4609V48.4609ZM132.48 39.6377L139.122 35.1779C139.106 35.1537 139.089 35.1295 139.073 35.1055L132.48 39.6377ZM131.144 37.2207L138.483 34.0373C136.974 30.5587 133.231 28.6171 129.518 29.3876C125.805 30.1581 123.144 33.429 123.144 37.2207H131.144ZM131.144 48.4609V56.4609C135.562 56.4609 139.144 52.8792 139.144 48.4609H131.144ZM130.388 48.4609H122.388C122.388 52.8792 125.969 56.4609 130.388 56.4609V48.4609ZM130.388 35.7266V27.7266C125.969 27.7266 122.388 31.3083 122.388 35.7266H130.388ZM131.9 35.7266L138.559 31.2925C137.076 29.0649 134.577 27.7266 131.9 27.7266V35.7266ZM115.147 42.3398H107.147C107.147 45.5755 109.097 48.4926 112.086 49.7309C115.075 50.9691 118.516 50.2847 120.804 47.9967L115.147 42.3398ZM121.771 35.7168V27.7168C119.649 27.7168 117.614 28.5597 116.114 30.0599L121.771 35.7168ZM122.526 35.7168H130.526C130.526 31.2985 126.945 27.7168 122.526 27.7168V35.7168ZM122.526 35.7275L128.195 41.3726C129.688 39.8732 130.526 37.8435 130.526 35.7275H122.526ZM117.859 40.4141L112.191 34.769C109.51 37.4607 109.092 41.6661 111.19 44.8328L117.859 40.4141ZM123.185 48.4512V56.4512C126.131 56.4512 128.839 54.8317 130.233 52.236C131.627 49.6403 131.481 46.4886 129.854 44.0325L123.185 48.4512ZM121.289 48.4512L114.623 52.8737C116.105 55.108 118.608 56.4512 121.289 56.4512V48.4512ZM116.72 41.5635L123.386 37.1409C122.057 35.1375 119.897 33.838 117.505 33.6021C115.112 33.3662 112.74 34.2188 111.045 35.9242L116.72 41.5635ZM115.147 43.1455L109.473 37.5062C107.984 39.005 107.147 41.0324 107.147 43.1455H115.147ZM115.147 48.4512V56.4512C119.566 56.4512 123.147 52.8694 123.147 48.4512H115.147ZM113.507 48.4512H105.507C105.507 52.8694 109.089 56.4512 113.507 56.4512V48.4512ZM113.507 35.7168V27.7168C109.089 27.7168 105.507 31.2985 105.507 35.7168H113.507ZM115.147 35.7168H123.147C123.147 31.2985 119.566 27.7168 115.147 27.7168V35.7168ZM110.55 26.1074H102.55C102.55 30.5257 106.132 34.1074 110.55 34.1074V26.1074ZM112.19 26.1074L119.924 28.1548C120.559 25.7546 120.044 23.1954 118.53 21.2278C117.016 19.2603 114.673 18.1074 112.19 18.1074V26.1074ZM111.787 27.6309V35.6309C115.417 35.6309 118.592 33.1871 119.521 29.6783L111.787 27.6309ZM110.55 27.6309V19.6309C106.132 19.6309 102.55 23.2126 102.55 27.6309H110.55ZM110.55 29.7236V37.7236C114.968 37.7236 118.55 34.1419 118.55 29.7236H110.55ZM109.026 29.7236H101.026C101.026 34.1419 104.608 37.7236 109.026 37.7236V29.7236ZM109.026 27.6309H117.026C117.026 23.2126 113.445 19.6309 109.026 19.6309V27.6309ZM102.944 27.6309L96.4398 22.9735C94.6943 25.4113 94.4584 28.6206 95.8289 31.2874C97.1993 33.9542 99.946 35.6309 102.944 35.6309V27.6309ZM104.035 26.1074L97.5308 21.4498L97.5306 21.45L104.035 26.1074ZM110.55 17.0098H118.55C118.55 13.5338 116.305 10.4556 112.996 9.39285C109.686 8.3301 106.069 9.52603 104.045 12.3521L110.55 17.0098ZM131.232 20.4189L138.504 23.7539C138.506 23.7495 138.508 23.7452 138.51 23.7409L131.232 20.4189ZM138.454 17.0098L146.326 18.4368C147.11 14.1101 144.256 9.96149 139.934 9.1479L138.454 17.0098ZM138.424 17.1768L138.648 25.1736C142.43 25.0678 145.621 22.3267 146.296 18.6038L138.424 17.1768ZM132.273 22.9346L124.277 23.1802C124.394 26.9898 127.183 30.1879 130.941 30.8228C134.699 31.4577 138.383 29.3531 139.745 25.7933L132.273 22.9346ZM135.447 20.832L135.301 12.8334C135.285 12.8337 135.269 12.834 135.252 12.8344L135.447 20.832ZM139.555 25.7939L147.48 26.8841L147.48 26.8809L139.555 25.7939ZM133.531 29.4092L131.314 37.0957C131.32 37.0976 131.327 37.0995 131.333 37.1014L133.531 29.4092ZM118.734 17.0098L113.078 22.6666C114.578 24.1669 116.613 25.0098 118.734 25.0098V17.0098ZM124.855 17.0098L132.731 18.4154C133.147 16.0846 132.509 13.6892 130.989 11.8739C129.469 10.0585 127.223 9.00977 124.855 9.00977V17.0098ZM124.58 18.5527V26.5527C128.456 26.5527 131.775 23.7741 132.456 19.9584L124.58 18.5527ZM118.725 18.5527V10.5527C114.914 10.5527 111.633 13.2402 110.882 16.9758L118.725 18.5527ZM117.948 22.4141L110.105 20.8371C109.39 24.3932 111.157 27.9853 114.411 29.5894C117.664 31.1934 121.589 30.4078 123.975 27.6753L117.948 22.4141ZM120.729 20.9795L119.81 13.0324L119.809 13.0325L120.729 20.9795ZM125.533 24.4668L133.512 23.886L133.512 23.8849L125.533 24.4668ZM121.701 29.6162L122.627 37.5625C123.001 37.5189 123.372 37.449 123.736 37.3531L121.701 29.6162ZM116.907 26.0889L124.461 23.4546C123.091 19.5255 118.937 17.3028 114.908 18.3427C110.879 19.3825 108.32 23.3375 109.022 27.4391L116.907 26.0889ZM119.472 28.2598L117.487 36.0095L117.487 36.0098L119.472 28.2598ZM123.607 26.5703L130.826 30.0188L130.827 30.0161L123.607 26.5703ZM123.254 22.7676L129.319 17.5513L129.319 17.5513L123.254 22.7676ZM117.496 23.4746L109.634 21.9969C108.915 25.8209 111.052 29.6075 114.697 30.9689C118.342 32.3304 122.438 30.8717 124.402 27.5129L117.496 23.4746ZM118.715 16.9902L124.372 11.3334C122.274 9.23537 119.187 8.47081 116.352 9.34709C113.517 10.2234 111.401 12.5965 110.853 15.5125L118.715 16.9902ZM134.985 21.3037V13.3037H134.985L134.985 21.3037ZM132.087 25.3613L124.087 25.3611V25.3613H132.087ZM134.985 29.4092L134.985 37.4092H134.985V29.4092ZM137.874 25.3613H145.874V25.3611L137.874 25.3613ZM104.32 26.1074L97.8191 21.4454C96.0712 23.8828 95.8336 27.0932 97.2036 29.7614C98.5735 32.4297 101.321 34.1074 104.32 34.1074V26.1074ZM109.026 26.1074V34.1074C113.445 34.1074 117.026 30.5257 117.026 26.1074H109.026ZM109.026 19.5449H117.026C117.026 16.07 114.783 12.9924 111.475 11.9288C108.167 10.8653 104.55 12.059 102.525 14.8829L109.026 19.5449ZM114.46 22.4922V14.4922L114.456 14.4922L114.46 22.4922ZM115.256 23.2881H123.256V23.2857L115.256 23.2881ZM114.46 24.084L114.456 32.084H114.46V24.084ZM113.664 23.2881L105.664 23.2858V23.2881H113.664ZM128 22.4922L128.003 14.4922H128V22.4922ZM128.796 23.2881H136.796V23.2857L128.796 23.2881ZM128 24.084V32.084H128.003L128 24.084ZM127.204 23.2881L119.204 23.2857V23.2881H127.204ZM146 57.5596V49.5596H96.4404V57.5596V65.5596H146V57.5596ZM96.4404 57.5596H104.44V8H96.4404H88.4404V57.5596H96.4404ZM96.4404 8V16H146V8V0H96.4404V8ZM146 8H138V57.5596H146H154V8H146ZM97.8359 56.1641V64.1641H144.604V56.1641V48.1641H97.8359V56.1641ZM144.604 56.1641H152.604V9.39551H144.604H136.604V56.1641H144.604ZM144.604 9.39551V1.39551H97.8359V9.39551V17.3955H144.604V9.39551ZM97.8359 9.39551H89.8359V56.1641H97.8359H105.836V9.39551H97.8359ZM107.238 35.5596V43.5596C106.761 43.5596 106.156 43.4331 105.577 43.135C105.073 42.8758 104.832 42.6084 104.916 42.6937L110.608 37.0723L116.3 31.4508C114.726 29.8568 111.818 27.5596 107.238 27.5596V35.5596ZM110.608 37.0723L105.136 31.2371L104.821 31.532L110.294 37.3672L115.767 43.2024L116.081 42.9074L110.608 37.0723ZM110.294 37.3672L115.696 31.4667C113.557 29.5079 110.712 28.1886 107.318 28.1885L107.317 36.1885L107.317 44.1885C106.925 44.1885 106.432 44.1116 105.921 43.9027C105.423 43.699 105.081 43.4412 104.892 43.2677L110.294 37.3672ZM107.317 36.1885V28.1885C105.175 28.1885 102.499 28.7674 100.23 30.7205C97.8126 32.8007 96.7432 35.686 96.7432 38.4482H104.743H112.743C112.743 39.7858 112.185 41.5413 110.667 42.8477C109.296 44.0271 107.907 44.1885 107.317 44.1885V36.1885ZM104.743 38.4482L110.4 32.7914L110.39 32.7816L104.733 38.4385L99.0765 44.0953L99.0863 44.1051L104.743 38.4482ZM104.733 38.4385L96.7334 38.4391C96.7336 40.3027 97.2447 42.0758 98.1934 43.615C99.0839 45.0596 100.186 46.0194 101.018 46.623C101.838 47.218 102.636 47.6368 103.147 47.892C103.523 48.08 104.302 48.4449 104.399 48.4919C105.121 48.8402 104.752 48.7521 104.266 48.2465C103.483 47.4303 103.022 46.2697 103.021 45.2573L111.021 45.2568L119.021 45.2564C119.021 41.9794 117.774 39.2137 115.811 37.1688C114.147 35.4345 112.206 34.4941 111.356 34.0834C110.667 33.7509 110.66 33.7596 110.299 33.5794C110.073 33.4664 110.183 33.505 110.414 33.6723C110.656 33.8482 111.267 34.3329 111.814 35.2195C112.419 36.2008 112.733 37.3332 112.733 38.4378L104.733 38.4385ZM111.021 45.2568H103.021C103.021 43.7886 103.759 42.3565 104.873 41.4772C105.808 40.7391 106.659 40.6367 107.052 40.6367V48.6367V56.6367C109.557 56.6367 112.393 55.9251 114.785 54.0375C117.356 52.0087 119.021 48.8866 119.021 45.2568H111.021ZM107.052 48.6367L107.052 40.6367C107.21 40.6367 107.414 40.658 107.643 40.7182C107.87 40.7778 108.07 40.8617 108.232 40.9492C108.54 41.1145 108.659 41.2642 108.553 41.1542L102.798 46.7109L97.0426 52.2677C98.5549 53.8339 101.819 56.6366 107.052 56.6367L107.052 48.6367ZM102.798 46.7109L108.058 52.7385L108.372 52.4641L103.112 46.4365L97.8522 40.409L97.5378 40.6834L102.798 46.7109ZM103.112 46.4365L97.5696 52.2052C99.3531 53.9189 102.595 55.9785 106.826 55.9785V47.9785V39.9785C107.389 39.9785 107.798 40.1202 108.025 40.2258C108.234 40.3227 108.431 40.4526 108.655 40.6678L103.112 46.4365ZM106.826 47.9785L106.827 55.9785C109.182 55.9784 111.843 55.2899 114.056 53.4113C116.366 51.4497 117.655 48.6132 117.655 45.6006H109.655H101.655C101.655 43.9831 102.38 42.3356 103.701 41.214C104.924 40.1757 106.17 39.9785 106.826 39.9785L106.826 47.9785ZM109.655 45.6006L117.655 45.5996C117.655 43.929 117.277 42.2905 116.509 40.7868C115.763 39.3264 114.785 38.2577 113.911 37.5004C112.387 36.1805 110.555 35.3398 110.067 35.0975C109.089 34.6124 109.37 34.6835 109.761 35.0431C110.056 35.3137 110.5 35.8048 110.855 36.5473C111.224 37.3187 111.367 38.0922 111.367 38.7425L103.367 38.7432L95.3672 38.7438C95.3673 40.3594 95.7073 41.9581 96.4199 43.4488C97.1189 44.9106 98.0542 46.0151 98.9382 46.827C100.509 48.2695 102.362 49.1358 102.956 49.4306C104.039 49.9681 103.779 49.8919 103.434 49.5934C103.15 49.3468 102.663 48.853 102.261 48.0659C101.837 47.2354 101.655 46.3684 101.655 45.6016L109.655 45.6006ZM103.367 38.7432H111.367C111.367 39.8687 110.862 41.4468 109.48 42.5844C108.294 43.5607 107.256 43.5596 107.239 43.5596L107.238 35.5596L107.238 27.5596C104.804 27.5597 101.831 28.158 99.3129 30.2299C96.5992 32.4632 95.3672 35.633 95.3672 38.7432H103.367ZM126.88 48.4609V40.4609H125.239V48.4609V56.4609H126.88V48.4609ZM125.239 48.4609H133.239V35.7266H125.239H117.239V48.4609H125.239ZM125.239 35.7266V43.7266H126.88V35.7266V27.7266H125.239V35.7266ZM126.88 35.7266H118.88V48.4609H126.88H134.88V35.7266H126.88ZM138.051 44.9629L131.267 49.2029C131.335 49.3116 131.471 49.5574 131.654 49.9444L138.887 46.5254L146.119 43.1064C145.791 42.4125 145.356 41.5574 144.835 40.7229L138.051 44.9629ZM138.887 46.5254H146.887V35.7266H138.887H130.887V46.5254H138.887ZM138.887 35.7266V43.7266H139.643V35.7266V27.7266H138.887V35.7266ZM139.643 35.7266H131.643V48.4609H139.643H147.643V35.7266H139.643ZM139.643 48.4609V40.4609H138.405V48.4609V56.4609H139.643V48.4609ZM138.405 48.4609L145.047 44.0011L139.122 35.1779L132.48 39.6377L125.839 44.0975L131.764 52.9207L138.405 48.4609ZM132.48 39.6377L139.073 35.1055C138.839 34.7656 138.642 34.4049 138.483 34.0373L131.144 37.2207L123.804 40.4041C124.352 41.6674 125.041 42.9378 125.888 44.1699L132.48 39.6377ZM131.144 37.2207H123.144V48.4609H131.144H139.144V37.2207H131.144ZM131.144 48.4609V40.4609H130.388V48.4609V56.4609H131.144V48.4609ZM130.388 48.4609H138.388V35.7266H130.388H122.388V48.4609H130.388ZM130.388 35.7266V43.7266H131.9V35.7266V27.7266H130.388V35.7266ZM131.9 35.7266L125.242 40.1606L131.392 49.3969L138.051 44.9629L144.71 40.5289L138.559 31.2925L131.9 35.7266ZM115.147 42.3398L120.804 47.9967L127.427 41.3736L121.771 35.7168L116.114 30.0599L109.491 36.683L115.147 42.3398ZM121.771 35.7168V43.7168H122.526V35.7168V27.7168H121.771V35.7168ZM122.526 35.7168H114.526V35.7275H122.526H130.526V35.7168H122.526ZM122.526 35.7275L116.858 30.0825L112.191 34.769L117.859 40.4141L123.528 46.0591L128.195 41.3726L122.526 35.7275ZM117.859 40.4141L111.19 44.8328L116.516 52.8699L123.185 48.4512L129.854 44.0325L124.528 35.9954L117.859 40.4141ZM123.185 48.4512V40.4512H121.289V48.4512V56.4512H123.185V48.4512ZM121.289 48.4512L127.955 44.0286L123.386 37.1409L116.72 41.5635L110.053 45.986L114.623 52.8737L121.289 48.4512ZM116.72 41.5635L111.045 35.9242L109.473 37.5062L115.147 43.1455L120.822 48.7848L122.394 47.2028L116.72 41.5635ZM115.147 43.1455H107.147V48.4512H115.147H123.147V43.1455H115.147ZM115.147 48.4512V40.4512H113.507V48.4512V56.4512H115.147V48.4512ZM113.507 48.4512H121.507V35.7168H113.507H105.507V48.4512H113.507ZM113.507 35.7168V43.7168H115.147V35.7168V27.7168H113.507V35.7168ZM115.147 35.7168H107.147V42.3398H115.147H123.147V35.7168H115.147ZM110.55 26.1074V34.1074H112.19V26.1074V18.1074H110.55V26.1074ZM112.19 26.1074L104.457 24.06L104.054 25.5834L111.787 27.6309L119.521 29.6783L119.924 28.1548L112.19 26.1074ZM111.787 27.6309V19.6309H110.55V27.6309V35.6309H111.787V27.6309ZM110.55 27.6309H102.55V29.7236H110.55H118.55V27.6309H110.55ZM110.55 29.7236V21.7236H109.026V29.7236V37.7236H110.55V29.7236ZM109.026 29.7236H117.026V27.6309H109.026H101.026V29.7236H109.026ZM109.026 27.6309V19.6309H102.944V27.6309V35.6309H109.026V27.6309ZM102.944 27.6309L109.449 32.2883L110.54 30.7648L104.035 26.1074L97.5306 21.45L96.4398 22.9735L102.944 27.6309ZM104.035 26.1074L110.54 30.7651L117.054 21.6674L110.55 17.0098L104.045 12.3521L97.5308 21.4498L104.035 26.1074ZM110.55 17.0098H102.55V26.1074H110.55H118.55V17.0098H110.55ZM131.232 20.4189L138.51 23.7409C138.385 24.0142 138.109 24.3738 137.712 24.6443C137.377 24.8725 137.134 24.918 137.127 24.9195C137.121 24.9206 137.174 24.9135 137.247 24.9168C137.271 24.9179 137.271 24.919 137.236 24.9146C137.217 24.9123 137.188 24.9083 137.145 24.9015C137.124 24.8982 137.099 24.8941 137.071 24.8892C137.056 24.8867 137.041 24.884 137.025 24.8811C137.017 24.8796 137.009 24.8781 137 24.8766C136.996 24.8758 136.992 24.875 136.987 24.8741C136.985 24.8737 136.982 24.8731 136.981 24.8729C136.977 24.8723 136.974 24.8716 138.454 17.0098C139.934 9.1479 139.931 9.14725 139.927 9.14661C139.926 9.14639 139.923 9.14574 139.92 9.1453C139.916 9.14442 139.911 9.14353 139.906 9.14263C139.896 9.14082 139.886 9.13895 139.875 9.13704C139.854 9.13322 139.832 9.12919 139.808 9.125C139.759 9.11663 139.705 9.10756 139.645 9.09807C139.525 9.0791 139.381 9.05825 139.216 9.03765C138.888 8.99667 138.464 8.95541 137.968 8.93303C137 8.88937 135.623 8.91119 134.063 9.21562C130.846 9.84333 126.351 11.8469 123.955 17.097L131.232 20.4189ZM138.454 17.0098L130.582 15.5827L130.552 15.7497L138.424 17.1768L146.296 18.6038L146.326 18.4368L138.454 17.0098ZM138.424 17.1768L138.2 9.17989C132.117 9.35016 127.985 12.4469 125.908 16.3754C124.193 19.6179 124.262 22.6772 124.277 23.1802L132.273 22.9346L140.27 22.689C140.28 23.0394 140.263 23.2074 140.248 23.2983C140.236 23.374 140.2 23.5736 140.052 23.8542C139.877 24.1844 139.549 24.6126 139.044 24.9283C138.536 25.2469 138.275 25.1841 138.648 25.1736L138.424 17.1768ZM132.273 22.9346L139.745 25.7933C139.016 27.7001 137.267 28.79 135.642 28.8297L135.447 20.832L135.252 12.8344C130.405 12.9526 126.396 15.9092 124.802 20.0758L132.273 22.9346ZM135.447 20.832L135.593 28.8307C134.766 28.8458 134.209 28.6746 133.914 28.5588C133.576 28.4262 133.215 28.2215 132.863 27.8976C132.493 27.5564 132.104 27.0532 131.853 26.3865C131.593 25.6965 131.577 25.0879 131.629 24.707L139.555 25.7939L147.48 26.8809C148.097 22.3858 146.373 18.5874 143.701 16.1272C141.396 14.0047 138.288 12.7788 135.301 12.8334L135.447 20.832ZM139.555 25.7939L131.629 24.7038C131.664 24.452 131.796 23.9265 132.21 23.3321C132.627 22.7335 133.177 22.2883 133.734 22.0089C134.751 21.4991 135.491 21.6489 135.729 21.717L133.531 29.4092L131.333 37.1014C134.116 37.8965 137.632 37.9532 140.907 36.3113C144.525 34.4969 146.906 31.0601 147.48 26.8841L139.555 25.7939ZM133.531 29.4092L135.749 21.7227C137.631 22.2656 138.201 23.57 138.297 23.8762C138.445 24.3426 138.242 24.3255 138.504 23.7539L131.232 20.4189L123.961 17.084C120.797 23.9834 122.218 34.4716 131.314 37.0957L133.531 29.4092ZM118.734 17.0098V25.0098H124.855V17.0098V9.00977H118.734V17.0098ZM124.855 17.0098L116.98 15.6041L116.705 17.1471L124.58 18.5527L132.456 19.9584L132.731 18.4154L124.855 17.0098ZM124.58 18.5527V10.5527H118.725V18.5527V26.5527H124.58V18.5527ZM118.725 18.5527L110.882 16.9758L110.105 20.8371L117.948 22.4141L125.791 23.991L126.568 20.1297L118.725 18.5527ZM117.948 22.4141C123.975 27.6753 123.973 27.6774 123.971 27.6794C123.971 27.6801 123.969 27.6822 123.968 27.6835C123.965 27.6863 123.963 27.689 123.96 27.6917C123.956 27.697 123.951 27.7024 123.946 27.7076C123.937 27.7182 123.928 27.7285 123.919 27.7387C123.901 27.759 123.883 27.7784 123.866 27.7972C123.832 27.8346 123.799 27.8692 123.769 27.9013C123.707 27.9652 123.65 28.0212 123.597 28.0711C123.494 28.1668 123.383 28.2593 123.254 28.3485C123.039 28.4975 122.498 28.8281 121.648 28.9265L120.729 20.9795L119.809 13.0325C117.259 13.3276 115.328 14.3754 114.148 15.1926C113.536 15.6158 113.049 16.0301 112.691 16.3641C112.509 16.5331 112.355 16.6873 112.227 16.8197C112.164 16.886 112.106 16.9474 112.056 17.0031C112.03 17.0309 112.006 17.0574 111.984 17.0823C111.973 17.0948 111.962 17.1069 111.952 17.1187C111.946 17.1246 111.941 17.1303 111.936 17.136C111.934 17.1389 111.931 17.1417 111.929 17.1445C111.928 17.1459 111.926 17.148 111.925 17.1487C111.924 17.1507 111.922 17.1528 117.948 22.4141ZM120.729 20.9795L121.647 28.9266C121.02 28.999 120.599 28.9281 120.393 28.8812C120.161 28.8282 119.896 28.7354 119.6 28.5583C118.998 28.1995 117.702 27.0667 117.554 25.0487L125.533 24.4668L133.512 23.8849C133.178 19.3029 130.329 16.3282 127.797 14.8176C125.446 13.4153 122.543 12.7165 119.81 13.0324L120.729 20.9795ZM125.533 24.4668L117.554 25.0476C117.568 25.2312 117.459 24.2806 118.254 23.1377C119.068 21.9664 119.992 21.7938 119.666 21.8793L121.701 29.6162L123.736 37.3531C126.437 36.6428 129.37 35.1776 131.39 32.2718C133.391 29.3942 133.685 26.2668 133.512 23.886L125.533 24.4668ZM121.701 29.6162L120.776 21.6699C121.072 21.6354 121.257 21.6311 121.397 21.6376C121.519 21.6433 121.788 21.664 122.161 21.793C122.559 21.9311 123.213 22.2447 123.821 22.9049C124.474 23.6131 124.725 24.3426 124.792 24.7387L116.907 26.0889L109.022 27.4391C109.939 32.7937 113.556 35.7448 116.922 36.9111C119.723 37.8818 122.177 37.6149 122.627 37.5625L121.701 29.6162ZM116.907 26.0889L109.353 28.7231C109.632 29.523 111.518 34.4807 117.487 36.0095L119.472 28.2598L121.457 20.51C122.414 20.7551 123.154 21.3368 123.62 21.9008C124.026 22.3915 124.273 22.9151 124.461 23.4546L116.907 26.0889ZM119.472 28.2598L117.487 36.0098C120.754 36.8461 123.698 36.1247 125.8 35.0406C127.652 34.0853 129.681 32.4152 130.826 30.0188L123.607 26.5703L116.389 23.1218C116.819 22.2208 117.318 21.6983 117.557 21.4716C117.847 21.1952 118.149 20.9836 118.465 20.8208C119.101 20.4929 120.184 20.184 121.456 20.5098L119.472 28.2598ZM123.607 26.5703L130.827 30.0161C131.766 28.0495 131.97 25.9326 131.893 24.3319C131.819 22.771 131.397 19.9674 129.319 17.5513L123.254 22.7676L117.188 27.9839C116.519 27.2054 116.221 26.466 116.09 26.0471C115.954 25.6138 115.92 25.2843 115.911 25.0944C115.902 24.8972 115.912 24.6942 115.949 24.4623C115.979 24.2819 116.072 23.7865 116.388 23.1245L123.607 26.5703ZM123.254 22.7676L129.319 17.5513C127.354 15.2658 124.258 13.8507 121.207 13.6593C117.325 13.4159 113.103 15.1387 110.59 19.4364L117.496 23.4746L124.402 27.5129C124.141 27.9596 123.579 28.6287 122.628 29.1118C121.713 29.5764 120.835 29.6674 120.206 29.628C119.614 29.5909 119.156 29.4386 118.812 29.2754C118.555 29.1538 117.9 28.8112 117.188 27.9839L123.254 22.7676ZM117.496 23.4746L125.358 24.9523L126.577 18.468L118.715 16.9902L110.853 15.5125L109.634 21.9969L117.496 23.4746ZM118.715 16.9902L113.058 22.6471L113.078 22.6666L118.734 17.0098L124.391 11.3529L124.372 11.3334L118.715 16.9902ZM134.985 21.3037L134.985 13.3037C130.93 13.3038 128.014 15.6189 126.425 17.8434C124.826 20.083 124.087 22.7665 124.087 25.3611L132.087 25.3613L140.087 25.3615C140.087 25.7161 139.996 26.3708 139.446 27.1416C138.906 27.8973 137.439 29.3036 134.986 29.3037L134.985 21.3037ZM132.087 25.3613H124.087C124.087 27.9572 124.827 30.6433 126.432 32.8847C128.03 35.1144 130.947 37.4091 134.985 37.4092L134.985 29.4092L134.986 21.4092C137.422 21.4092 138.89 22.8 139.439 23.5659C139.996 24.3434 140.087 25.0056 140.087 25.3613H132.087ZM134.985 29.4092V37.4092C139.035 37.4092 141.948 35.098 143.535 32.8775C145.134 30.6398 145.874 27.9574 145.874 25.3613H137.874H129.874C129.874 25.0055 129.965 24.347 130.518 23.5731C131.059 22.8166 132.528 21.4092 134.985 21.4092V29.4092ZM137.874 25.3613L145.874 25.3611C145.874 22.7799 145.145 20.1002 143.551 17.8578C141.965 15.6267 139.048 13.3037 134.985 13.3037V21.3037V29.3037C132.524 29.3037 131.051 27.8895 130.509 27.1271C129.96 26.3536 129.874 25.7027 129.874 25.3615L137.874 25.3613ZM104.32 26.1074V34.1074H109.026V26.1074V18.1074H104.32V26.1074ZM109.026 26.1074H117.026V19.5449H109.026H101.026V26.1074H109.026ZM109.026 19.5449L102.525 14.8829L97.8191 21.4454L104.32 26.1074L110.821 30.7695L115.528 24.207L109.026 19.5449ZM114.46 22.4922V30.4922C110.479 30.4922 107.257 27.2651 107.256 23.2904L115.256 23.2881L123.256 23.2857C123.254 18.4322 119.32 14.4922 114.46 14.4922V22.4922ZM115.256 23.2881H107.256C107.256 19.3093 110.481 16.084 114.46 16.084V24.084V32.084C119.318 32.084 123.256 28.1459 123.256 23.2881H115.256ZM114.46 24.084L114.463 16.084C118.436 16.0857 121.664 19.3057 121.664 23.2881H113.664H105.664C105.664 28.1493 109.605 32.0819 114.456 32.084L114.46 24.084ZM113.664 23.2881L121.664 23.2904C121.663 27.2687 118.439 30.4904 114.463 30.4922L114.46 22.4922L114.456 14.4922C109.603 14.4943 105.665 18.4288 105.664 23.2858L113.664 23.2881ZM128 22.4922L127.997 30.4922C124.021 30.4908 120.797 27.2681 120.796 23.2904L128.796 23.2881L136.796 23.2857C136.794 18.4294 132.858 14.4939 128.003 14.4922L128 22.4922ZM128.796 23.2881H120.796C120.796 19.3064 124.023 16.0854 127.997 16.084L128 24.084L128.003 32.084C132.855 32.0822 136.796 28.1487 136.796 23.2881H128.796ZM128 24.084V16.084C131.979 16.084 135.204 19.3093 135.204 23.2881H127.204H119.204C119.204 28.1459 123.142 32.084 128 32.084V24.084ZM127.204 23.2881L135.204 23.2904C135.203 27.2651 131.981 30.4922 128 30.4922V22.4922V14.4922C123.14 14.4922 119.206 18.4322 119.204 23.2857L127.204 23.2881Z" fill="#E6E2DE" mask="url(#path-4-outside-1_1114_161)"/>
</svg>
