<svg width="242" height="240" viewBox="0 0 242 240" fill="none" xmlns="http://www.w3.org/2000/svg">
<rect y="80" width="242" height="160" rx="12" fill="#E6E2DE"/>
<path d="M94.6521 152.431H93.1321V154.559H90.9241V152.431H85.7881V150.783L91.3721 143.743H93.1321V150.495H94.6521V152.431ZM88.2201 150.495H90.9241V146.927L88.2201 150.495ZM98.5506 153.135C98.5506 154.015 97.9426 154.639 97.0626 154.639C96.1826 154.639 95.5586 154.015 95.5586 153.135C95.5586 152.239 96.1826 151.615 97.0626 151.615C97.9426 151.615 98.5506 152.239 98.5506 153.135ZM103.633 154.719C101.329 154.719 99.5846 153.279 99.5206 151.263H101.745C101.873 152.207 102.609 152.735 103.617 152.735C104.929 152.735 105.425 151.903 105.425 151.023C105.425 150.175 104.865 149.311 103.553 149.311C102.689 149.311 102.049 149.663 101.713 150.399L99.8886 149.807L100.833 143.743H107.089V145.727H102.449L102.113 147.935C102.657 147.583 103.281 147.423 103.921 147.423C106.497 147.423 107.729 149.199 107.729 151.023C107.729 152.879 106.353 154.719 103.633 154.719ZM111.668 153.135C111.668 154.015 111.06 154.639 110.18 154.639C109.3 154.639 108.676 154.015 108.676 153.135C108.676 152.239 109.3 151.615 110.18 151.615C111.06 151.615 111.668 152.239 111.668 153.135ZM116.641 154.687C114.177 154.687 112.465 153.039 112.465 151.103C112.465 149.743 112.865 148.879 113.873 147.679L117.137 143.743H119.649L116.545 147.535C116.721 147.471 116.897 147.455 117.073 147.455C119.281 147.455 120.833 148.911 120.833 150.959C120.833 153.039 119.105 154.687 116.641 154.687ZM116.657 152.831C117.665 152.831 118.529 152.191 118.529 151.039C118.529 149.807 117.665 149.199 116.657 149.199C115.649 149.199 114.785 149.759 114.785 151.023C114.785 152.191 115.649 152.831 116.657 152.831ZM134.291 150.991C134.291 153.183 132.531 154.719 129.651 154.719C126.755 154.719 124.947 153.167 124.771 150.735H127.235C127.299 151.999 128.115 152.815 129.603 152.815C130.835 152.815 131.715 152.271 131.715 151.343C131.715 150.623 131.155 150.191 130.179 149.999L128.291 149.631C126.547 149.295 125.203 148.351 125.203 146.447C125.203 144.399 127.011 142.927 129.491 142.927C132.067 142.927 133.955 144.431 134.115 146.831H131.651C131.571 145.631 130.739 144.815 129.523 144.815C128.339 144.815 127.667 145.487 127.667 146.287C127.667 147.071 128.387 147.407 129.219 147.567L131.187 147.967C133.203 148.367 134.291 149.295 134.291 150.991ZM137.957 154.559H135.733V143.071H137.957V149.631L141.077 146.015H143.637L140.101 150.111L144.053 154.559H141.221L137.957 150.591V154.559ZM147.492 144.031C147.492 144.783 146.884 145.343 146.004 145.343C145.14 145.343 144.532 144.783 144.532 144.031C144.532 143.247 145.14 142.687 146.004 142.687C146.884 142.687 147.492 143.247 147.492 144.031ZM147.14 154.559H144.916V146.015H147.14V154.559ZM151.184 149.903V154.559H148.96V146.015H151.008V147.231C151.632 146.383 152.512 145.855 153.632 145.855C155.344 145.855 156.528 146.975 156.528 149.039V154.559H154.32V149.791C154.32 148.527 153.824 147.823 152.816 147.823C151.936 147.823 151.184 148.527 151.184 149.903Z" fill="#1A1A1A"/>
<path d="M41.099 174.559L38.971 166.677L36.829 174.559H35.247L32.629 164.507H34.141L36.073 172.249L38.187 164.507H39.783L41.869 172.263L43.801 164.507H45.313L42.695 174.559H41.099ZM48.7201 174.699C46.5781 174.699 45.1361 173.145 45.1361 170.807C45.1361 168.609 46.6341 166.999 48.6781 166.999C50.8901 166.999 52.3601 168.791 52.1081 171.199H46.5781C46.6901 172.711 47.4461 173.593 48.6921 173.593C49.7421 173.593 50.4701 173.019 50.7081 172.053H52.1081C51.7441 173.705 50.4701 174.699 48.7201 174.699ZM48.6501 168.063C47.5161 168.063 46.7461 168.875 46.5921 170.261H50.6101C50.5401 168.889 49.7981 168.063 48.6501 168.063ZM60.4155 170.849C60.4155 173.075 59.1275 174.699 57.1255 174.699C56.0755 174.699 55.1795 174.167 54.6475 173.229V174.559H53.3315V164.507H54.7455V168.413C55.2635 167.503 56.1175 166.999 57.1255 166.999C59.1135 166.999 60.4155 168.595 60.4155 170.849ZM58.9455 170.849C58.9455 169.169 58.0635 168.245 56.8455 168.245C55.6695 168.245 54.7455 169.155 54.7455 170.821C54.7455 172.459 55.6415 173.439 56.8455 173.439C58.0635 173.439 58.9455 172.501 58.9455 170.849ZM67.4491 172.347C67.4491 173.803 66.3151 174.699 64.3411 174.699C62.3811 174.699 61.2191 173.733 61.0791 172.137H62.4371C62.4931 173.061 63.2351 173.635 64.3691 173.635C65.3631 173.635 66.0211 173.285 66.0211 172.585C66.0211 171.969 65.6431 171.703 64.7191 171.521L63.5151 171.297C62.1431 171.031 61.3731 170.331 61.3731 169.211C61.3731 167.909 62.5071 166.999 64.2291 166.999C66.0071 166.999 67.2111 167.951 67.3371 169.477H65.9791C65.8951 168.581 65.2371 168.063 64.2431 168.063C63.3471 168.063 62.7451 168.441 62.7451 169.085C62.7451 169.687 63.1231 169.967 64.0191 170.135L65.2791 170.373C66.7491 170.639 67.4491 171.283 67.4491 172.347ZM70.4349 165.417C70.4349 165.949 70.0149 166.355 69.4129 166.355C68.8109 166.355 68.3769 165.949 68.3769 165.417C68.3769 164.871 68.8109 164.479 69.4129 164.479C70.0149 164.479 70.4349 164.871 70.4349 165.417ZM70.1269 174.559H68.7129V167.139H70.1269V174.559ZM75.9958 173.187V174.433C75.5618 174.629 75.1838 174.699 74.7358 174.699C73.3638 174.699 72.4118 173.957 72.4118 172.319V168.343H70.7738V167.139H72.4118V164.941H73.8258V167.139H76.0658V168.343H73.8258V171.997C73.8258 173.019 74.3158 173.383 75.0718 173.383C75.4078 173.383 75.7018 173.327 75.9958 173.187ZM79.9822 174.699C77.8402 174.699 76.3982 173.145 76.3982 170.807C76.3982 168.609 77.8962 166.999 79.9402 166.999C82.1522 166.999 83.6222 168.791 83.3702 171.199H77.8402C77.9522 172.711 78.7082 173.593 79.9542 173.593C81.0042 173.593 81.7322 173.019 81.9702 172.053H83.3702C83.0062 173.705 81.7322 174.699 79.9822 174.699ZM79.9122 168.063C78.7782 168.063 78.0082 168.875 77.8542 170.261H81.8722C81.8022 168.889 81.0602 168.063 79.9122 168.063ZM90.5294 174.559H87.3514V164.507H90.5294C93.7354 164.507 95.5834 166.551 95.5834 169.491C95.5834 172.389 93.6654 174.559 90.5294 174.559ZM88.8914 165.837V173.229H90.4594C92.7694 173.229 94.0154 171.801 94.0154 169.491C94.0154 167.223 92.7834 165.837 90.4594 165.837H88.8914ZM99.8551 174.699C97.7131 174.699 96.2711 173.145 96.2711 170.807C96.2711 168.609 97.7691 166.999 99.8131 166.999C102.025 166.999 103.495 168.791 103.243 171.199H97.7131C97.8251 172.711 98.5811 173.593 99.8271 173.593C100.877 173.593 101.605 173.019 101.843 172.053H103.243C102.879 173.705 101.605 174.699 99.8551 174.699ZM99.7851 168.063C98.6511 168.063 97.8811 168.875 97.7271 170.261H101.745C101.675 168.889 100.933 168.063 99.7851 168.063ZM110.346 172.347C110.346 173.803 109.212 174.699 107.238 174.699C105.278 174.699 104.116 173.733 103.976 172.137H105.334C105.39 173.061 106.132 173.635 107.266 173.635C108.26 173.635 108.918 173.285 108.918 172.585C108.918 171.969 108.54 171.703 107.616 171.521L106.412 171.297C105.04 171.031 104.27 170.331 104.27 169.211C104.27 167.909 105.404 166.999 107.126 166.999C108.904 166.999 110.108 167.951 110.234 169.477H108.876C108.792 168.581 108.134 168.063 107.14 168.063C106.244 168.063 105.642 168.441 105.642 169.085C105.642 169.687 106.02 169.967 106.916 170.135L108.176 170.373C109.646 170.639 110.346 171.283 110.346 172.347ZM113.332 165.417C113.332 165.949 112.912 166.355 112.31 166.355C111.708 166.355 111.274 165.949 111.274 165.417C111.274 164.871 111.708 164.479 112.31 164.479C112.912 164.479 113.332 164.871 113.332 165.417ZM113.024 174.559H111.61V167.139H113.024V174.559ZM117.675 177.415C115.729 177.415 114.469 176.379 114.385 174.699H115.757C115.841 175.735 116.513 176.295 117.661 176.295C118.935 176.295 119.607 175.609 119.607 174.335V172.991C119.187 173.887 118.347 174.405 117.339 174.405C115.491 174.405 114.175 172.879 114.175 170.695C114.175 168.483 115.435 166.999 117.297 166.999C118.361 166.999 119.201 167.517 119.705 168.455V167.139H121.021V174.307C121.021 176.253 119.775 177.415 117.675 177.415ZM115.603 170.695C115.603 172.235 116.359 173.173 117.591 173.173C118.795 173.173 119.607 172.207 119.607 170.737C119.607 169.197 118.809 168.217 117.591 168.217C116.373 168.217 115.603 169.169 115.603 170.695ZM124.113 170.373V174.559H122.699V167.139H124.015V168.371C124.519 167.545 125.359 166.999 126.381 166.999C127.907 166.999 128.915 167.979 128.915 169.757V174.559H127.501V170.233C127.501 168.959 126.941 168.245 125.891 168.245C124.925 168.245 124.113 169.057 124.113 170.373ZM132.431 173.957C132.431 175.287 131.381 176.323 129.841 176.351V175.553C130.751 175.525 131.367 175.035 131.451 174.349C131.325 174.391 131.241 174.405 131.143 174.405C130.611 174.405 130.219 173.971 130.219 173.453C130.219 172.851 130.667 172.459 131.241 172.459C132.011 172.459 132.431 173.019 132.431 173.957ZM143.739 171.675C143.739 173.509 142.395 174.559 140.309 174.559H136.627V164.507H140.113C142.143 164.507 143.361 165.445 143.361 167.139C143.361 168.091 142.787 168.903 141.821 169.323C143.067 169.673 143.739 170.527 143.739 171.675ZM140.015 165.739H138.041V168.763H140.015C141.233 168.763 141.891 168.189 141.891 167.251C141.891 166.313 141.233 165.739 140.015 165.739ZM140.211 169.995H138.041V173.327H140.211C141.527 173.327 142.269 172.697 142.269 171.633C142.269 170.611 141.527 169.995 140.211 169.995ZM146.536 170.765V174.559H145.122V167.139H146.438V168.707C146.956 167.685 148.076 167.041 149.294 167.041V168.511C147.698 168.427 146.536 169.127 146.536 170.765ZM154.627 174.559V173.411C154.165 174.237 153.339 174.699 152.247 174.699C150.707 174.699 149.699 173.817 149.699 172.459C149.699 171.003 150.861 170.247 153.073 170.247C153.507 170.247 153.857 170.261 154.459 170.331V169.785C154.459 168.721 153.885 168.119 152.905 168.119C151.869 168.119 151.239 168.735 151.197 169.771H149.909C149.979 168.105 151.169 166.999 152.905 166.999C154.739 166.999 155.803 168.035 155.803 169.799V174.559H154.627ZM151.043 172.417C151.043 173.187 151.617 173.691 152.527 173.691C153.717 173.691 154.459 172.949 154.459 171.815V171.213C153.913 171.143 153.521 171.129 153.157 171.129C151.743 171.129 151.043 171.549 151.043 172.417ZM158.827 170.373V174.559H157.413V167.139H158.729V168.371C159.233 167.545 160.073 166.999 161.095 166.999C162.621 166.999 163.629 167.979 163.629 169.757V174.559H162.215V170.233C162.215 168.959 161.655 168.245 160.605 168.245C159.639 168.245 158.827 169.057 158.827 170.373ZM164.695 170.849C164.695 168.595 165.983 166.999 167.985 166.999C168.979 166.999 169.847 167.503 170.365 168.413V164.507H171.779V174.559H170.463V173.229C169.931 174.167 169.035 174.699 167.985 174.699C165.983 174.699 164.695 173.075 164.695 170.849ZM166.165 170.849C166.165 172.501 167.033 173.439 168.265 173.439C169.469 173.439 170.365 172.459 170.365 170.821C170.365 169.155 169.441 168.245 168.265 168.245C167.033 168.245 166.165 169.169 166.165 170.849ZM179.4 174.559H176.222V164.507H179.4C182.606 164.507 184.454 166.551 184.454 169.491C184.454 172.389 182.536 174.559 179.4 174.559ZM177.762 165.837V173.229H179.33C181.64 173.229 182.886 171.801 182.886 169.491C182.886 167.223 181.654 165.837 179.33 165.837H177.762ZM188.726 174.699C186.584 174.699 185.142 173.145 185.142 170.807C185.142 168.609 186.64 166.999 188.684 166.999C190.896 166.999 192.366 168.791 192.114 171.199H186.584C186.696 172.711 187.452 173.593 188.698 173.593C189.748 173.593 190.476 173.019 190.714 172.053H192.114C191.75 173.705 190.476 174.699 188.726 174.699ZM188.656 168.063C187.522 168.063 186.752 168.875 186.598 170.261H190.616C190.546 168.889 189.804 168.063 188.656 168.063ZM196.127 174.713C194.097 174.713 192.669 173.117 192.669 170.849C192.669 168.609 194.125 166.999 196.127 166.999C197.961 166.999 199.291 168.217 199.557 170.149H198.073C197.919 168.959 197.177 168.245 196.141 168.245C194.923 168.245 194.125 169.281 194.125 170.849C194.125 172.431 194.923 173.453 196.141 173.453C197.191 173.453 197.919 172.753 198.087 171.549H199.557C199.305 173.509 197.989 174.713 196.127 174.713ZM202.114 174.559H200.7V164.507H202.114V170.457L205.292 167.139H206.958L203.528 170.737L207.28 174.559H205.46L202.114 171.045V174.559ZM209.912 173.957C209.912 175.287 208.862 176.323 207.322 176.351V175.553C208.232 175.525 208.848 175.035 208.932 174.349C208.806 174.391 208.722 174.405 208.624 174.405C208.092 174.405 207.7 173.971 207.7 173.453C207.7 172.851 208.148 172.459 208.722 172.459C209.492 172.459 209.912 173.019 209.912 173.957ZM64.2194 191.559H62.6794V181.507H64.2194V191.559ZM67.4201 187.373V191.559H66.0061V184.139H67.3221V185.371C67.8261 184.545 68.6661 183.999 69.6881 183.999C71.2141 183.999 72.2221 184.979 72.2221 186.757V191.559H70.8081V187.233C70.8081 185.959 70.2481 185.245 69.1981 185.245C68.2321 185.245 67.4201 186.057 67.4201 187.373ZM79.7064 184.139L76.9204 191.559H75.3804L72.5944 184.139H74.1204L76.1784 189.935L78.2644 184.139H79.7064ZM83.2501 191.699C81.1081 191.699 79.6661 190.145 79.6661 187.807C79.6661 185.609 81.1641 183.999 83.2081 183.999C85.4201 183.999 86.8901 185.791 86.6381 188.199H81.1081C81.2201 189.711 81.9761 190.593 83.2221 190.593C84.2721 190.593 85.0001 190.019 85.2381 189.053H86.6381C86.2741 190.705 85.0001 191.699 83.2501 191.699ZM83.1801 185.063C82.0461 185.063 81.2761 185.875 81.1221 187.261H85.1401C85.0701 185.889 84.3281 185.063 83.1801 185.063ZM93.7414 189.347C93.7414 190.803 92.6074 191.699 90.6334 191.699C88.6734 191.699 87.5114 190.733 87.3714 189.137H88.7294C88.7854 190.061 89.5274 190.635 90.6614 190.635C91.6554 190.635 92.3134 190.285 92.3134 189.585C92.3134 188.969 91.9354 188.703 91.0114 188.521L89.8074 188.297C88.4354 188.031 87.6654 187.331 87.6654 186.211C87.6654 184.909 88.7994 183.999 90.5214 183.999C92.2994 183.999 93.5034 184.951 93.6294 186.477H92.2714C92.1874 185.581 91.5294 185.063 90.5354 185.063C89.6394 185.063 89.0374 185.441 89.0374 186.085C89.0374 186.687 89.4154 186.967 90.3114 187.135L91.5714 187.373C93.0414 187.639 93.7414 188.283 93.7414 189.347ZM99.0956 190.187V191.433C98.6616 191.629 98.2836 191.699 97.8356 191.699C96.4636 191.699 95.5116 190.957 95.5116 189.319V185.343H93.8736V184.139H95.5116V181.941H96.9256V184.139H99.1656V185.343H96.9256V188.997C96.9256 190.019 97.4156 190.383 98.1716 190.383C98.5076 190.383 98.8016 190.327 99.0956 190.187ZM103.138 191.699C101.038 191.699 99.498 190.047 99.498 187.849C99.498 185.651 101.038 183.999 103.138 183.999C105.238 183.999 106.778 185.651 106.778 187.849C106.778 190.047 105.238 191.699 103.138 191.699ZM103.138 190.453C104.356 190.453 105.322 189.473 105.322 187.849C105.322 186.225 104.356 185.259 103.138 185.259C101.92 185.259 100.968 186.225 100.968 187.849C100.968 189.473 101.92 190.453 103.138 190.453ZM109.353 187.765V191.559H107.939V184.139H109.255V185.707C109.773 184.685 110.893 184.041 112.111 184.041V185.511C110.515 185.427 109.353 186.127 109.353 187.765ZM119.194 188.059H117.248V191.559H115.708V181.507H119.194C121.448 181.507 122.904 182.655 122.904 184.755C122.904 186.869 121.448 188.059 119.194 188.059ZM119.18 182.809H117.248V186.757H119.18C120.538 186.757 121.364 186.015 121.364 184.769C121.364 183.523 120.538 182.809 119.18 182.809ZM125.775 182.417C125.775 182.949 125.355 183.355 124.753 183.355C124.151 183.355 123.717 182.949 123.717 182.417C123.717 181.871 124.151 181.479 124.753 181.479C125.355 181.479 125.775 181.871 125.775 182.417ZM125.467 191.559H124.053V184.139H125.467V191.559ZM131.335 190.187V191.433C130.901 191.629 130.523 191.699 130.075 191.699C128.703 191.699 127.751 190.957 127.751 189.319V185.343H126.113V184.139H127.751V181.941H129.165V184.139H131.405V185.343H129.165V188.997C129.165 190.019 129.655 190.383 130.411 190.383C130.747 190.383 131.041 190.327 131.335 190.187ZM135.196 191.713C133.166 191.713 131.738 190.117 131.738 187.849C131.738 185.609 133.194 183.999 135.196 183.999C137.03 183.999 138.36 185.217 138.626 187.149H137.142C136.988 185.959 136.246 185.245 135.21 185.245C133.992 185.245 133.194 186.281 133.194 187.849C133.194 189.431 133.992 190.453 135.21 190.453C136.26 190.453 136.988 189.753 137.156 188.549H138.626C138.374 190.509 137.058 191.713 135.196 191.713ZM141.183 187.373V191.559H139.769V181.507H141.183V185.329C141.673 184.531 142.429 183.999 143.451 183.999C144.977 183.999 145.985 184.979 145.985 186.757V191.559H144.571V187.233C144.571 185.959 144.011 185.245 142.961 185.245C141.995 185.245 141.183 186.057 141.183 187.373ZM153.519 191.559H150.341V181.507H153.519C156.725 181.507 158.573 183.551 158.573 186.491C158.573 189.389 156.655 191.559 153.519 191.559ZM151.881 182.837V190.229H153.449C155.759 190.229 157.005 188.801 157.005 186.491C157.005 184.223 155.773 182.837 153.449 182.837H151.881ZM162.844 191.699C160.702 191.699 159.26 190.145 159.26 187.807C159.26 185.609 160.758 183.999 162.802 183.999C165.014 183.999 166.484 185.791 166.232 188.199H160.702C160.814 189.711 161.57 190.593 162.816 190.593C163.866 190.593 164.594 190.019 164.832 189.053H166.232C165.868 190.705 164.594 191.699 162.844 191.699ZM162.774 185.063C161.64 185.063 160.87 185.875 160.716 187.261H164.734C164.664 185.889 163.922 185.063 162.774 185.063ZM170.245 191.713C168.215 191.713 166.787 190.117 166.787 187.849C166.787 185.609 168.243 183.999 170.245 183.999C172.079 183.999 173.409 185.217 173.675 187.149H172.191C172.037 185.959 171.295 185.245 170.259 185.245C169.041 185.245 168.243 186.281 168.243 187.849C168.243 189.431 169.041 190.453 170.259 190.453C171.309 190.453 172.037 189.753 172.205 188.549H173.675C173.423 190.509 172.107 191.713 170.245 191.713ZM176.232 191.559H174.818V181.507H176.232V187.457L179.41 184.139H181.076L177.646 187.737L181.398 191.559H179.578L176.232 188.045V191.559Z" fill="#1A1A1A"/>
<mask id="path-4-outside-1_1195_278" maskUnits="userSpaceOnUse" x="88.4404" y="47" width="66" height="66" fill="black">
<rect fill="white" x="88.4404" y="47" width="66" height="66"/>
<path d="M146 104.56H96.4404V55H146V104.56ZM97.8359 103.164H144.604V56.3955H97.8359V103.164ZM107.238 82.5586C108.849 82.5586 109.832 83.2854 110.608 84.0713L110.294 84.3662C109.479 83.6197 108.516 83.1875 107.317 83.1875C105.765 83.1875 104.743 84.0226 104.743 85.4473L104.733 85.4375C104.733 88.4734 111.021 87.7268 111.021 92.2559C111.021 94.4174 109.164 95.6357 107.052 95.6357C104.939 95.6357 103.623 94.5647 102.798 93.71L103.112 93.4355C103.869 94.1626 105.225 94.9775 106.826 94.9775C108.526 94.9775 109.655 93.9955 109.655 92.6006C109.655 88.9849 103.367 89.6034 103.367 85.7422C103.367 83.7576 104.821 82.5587 107.238 82.5586ZM126.88 95.46H125.239V82.7266H126.88V95.46ZM138.051 91.9629C138.345 92.4345 138.631 92.9841 138.887 93.5244V82.7266H139.643V95.46H138.405L132.48 86.6367C131.94 85.8507 131.497 85.0352 131.144 84.2197V95.46H130.388V82.7266H131.9L138.051 91.9629ZM115.147 89.3389L121.771 82.7168H122.526V82.7266L117.859 87.4131L123.185 95.4502H121.289L116.72 88.5625L115.147 90.1445V95.4502H113.507V82.7168H115.147V89.3389ZM110.55 73.1074H112.19L111.787 74.6309H110.55V76.7236H109.026V74.6309H102.944L104.035 73.1074L110.55 64.0098V73.1074ZM131.232 67.4189C133.237 63.0275 138.454 64.0098 138.454 64.0098L138.424 64.1768C132.108 64.3536 132.273 69.9155 132.273 69.9346C132.706 68.8047 133.836 67.8713 135.447 67.832C137.059 67.8026 140.026 69.3551 139.555 72.7939C139.083 76.2229 136.076 77.1363 133.531 76.4092C130.977 75.6722 129.218 71.8108 131.232 67.4189ZM118.734 64.0098H124.855L124.58 65.5527H118.725L117.948 69.4141C117.948 69.4141 119.029 68.1761 120.729 67.9795C122.428 67.783 125.346 68.9027 125.533 71.4668C125.72 74.0312 124.727 75.8204 121.701 76.6162C121.65 76.6222 117.591 77.0816 116.907 73.0889C116.919 73.1215 117.497 74.754 119.472 75.2598C121.466 75.7703 123.194 74.4349 123.607 73.5703C124.02 72.7057 124.099 70.7501 123.254 69.7676C122.409 68.7851 119.225 67.5173 117.496 70.4746L118.715 63.9902L118.734 64.0098ZM134.985 68.3037C133.384 68.3038 132.087 70.1212 132.087 72.3613C132.087 74.6015 133.384 76.4091 134.985 76.4092C136.577 76.4092 137.874 74.6015 137.874 72.3613C137.874 70.1212 136.587 68.3037 134.985 68.3037ZM104.32 73.1074H109.026V66.5449L104.32 73.1074ZM114.46 69.4922C114.899 69.4922 115.256 69.8485 115.256 70.2881C115.256 70.7276 114.899 71.084 114.46 71.084C114.021 71.0838 113.664 70.7275 113.664 70.2881C113.664 69.8487 114.021 69.4924 114.46 69.4922ZM128 69.4922C128.439 69.4924 128.796 69.8487 128.796 70.2881C128.796 70.7275 128.439 71.0838 128 71.084C127.56 71.084 127.204 70.7276 127.204 70.2881C127.204 69.8485 127.56 69.4922 128 69.4922Z"/>
</mask>
<path d="M146 104.56H96.4404V55H146V104.56ZM97.8359 103.164H144.604V56.3955H97.8359V103.164ZM107.238 82.5586C108.849 82.5586 109.832 83.2854 110.608 84.0713L110.294 84.3662C109.479 83.6197 108.516 83.1875 107.317 83.1875C105.765 83.1875 104.743 84.0226 104.743 85.4473L104.733 85.4375C104.733 88.4734 111.021 87.7268 111.021 92.2559C111.021 94.4174 109.164 95.6357 107.052 95.6357C104.939 95.6357 103.623 94.5647 102.798 93.71L103.112 93.4355C103.869 94.1626 105.225 94.9775 106.826 94.9775C108.526 94.9775 109.655 93.9955 109.655 92.6006C109.655 88.9849 103.367 89.6034 103.367 85.7422C103.367 83.7576 104.821 82.5587 107.238 82.5586ZM126.88 95.46H125.239V82.7266H126.88V95.46ZM138.051 91.9629C138.345 92.4345 138.631 92.9841 138.887 93.5244V82.7266H139.643V95.46H138.405L132.48 86.6367C131.94 85.8507 131.497 85.0352 131.144 84.2197V95.46H130.388V82.7266H131.9L138.051 91.9629ZM115.147 89.3389L121.771 82.7168H122.526V82.7266L117.859 87.4131L123.185 95.4502H121.289L116.72 88.5625L115.147 90.1445V95.4502H113.507V82.7168H115.147V89.3389ZM110.55 73.1074H112.19L111.787 74.6309H110.55V76.7236H109.026V74.6309H102.944L104.035 73.1074L110.55 64.0098V73.1074ZM131.232 67.4189C133.237 63.0275 138.454 64.0098 138.454 64.0098L138.424 64.1768C132.108 64.3536 132.273 69.9155 132.273 69.9346C132.706 68.8047 133.836 67.8713 135.447 67.832C137.059 67.8026 140.026 69.3551 139.555 72.7939C139.083 76.2229 136.076 77.1363 133.531 76.4092C130.977 75.6722 129.218 71.8108 131.232 67.4189ZM118.734 64.0098H124.855L124.58 65.5527H118.725L117.948 69.4141C117.948 69.4141 119.029 68.1761 120.729 67.9795C122.428 67.783 125.346 68.9027 125.533 71.4668C125.72 74.0312 124.727 75.8204 121.701 76.6162C121.65 76.6222 117.591 77.0816 116.907 73.0889C116.919 73.1215 117.497 74.754 119.472 75.2598C121.466 75.7703 123.194 74.4349 123.607 73.5703C124.02 72.7057 124.099 70.7501 123.254 69.7676C122.409 68.7851 119.225 67.5173 117.496 70.4746L118.715 63.9902L118.734 64.0098ZM134.985 68.3037C133.384 68.3038 132.087 70.1212 132.087 72.3613C132.087 74.6015 133.384 76.4091 134.985 76.4092C136.577 76.4092 137.874 74.6015 137.874 72.3613C137.874 70.1212 136.587 68.3037 134.985 68.3037ZM104.32 73.1074H109.026V66.5449L104.32 73.1074ZM114.46 69.4922C114.899 69.4922 115.256 69.8485 115.256 70.2881C115.256 70.7276 114.899 71.084 114.46 71.084C114.021 71.0838 113.664 70.7275 113.664 70.2881C113.664 69.8487 114.021 69.4924 114.46 69.4922ZM128 69.4922C128.439 69.4924 128.796 69.8487 128.796 70.2881C128.796 70.7275 128.439 71.0838 128 71.084C127.56 71.084 127.204 70.7276 127.204 70.2881C127.204 69.8485 127.56 69.4922 128 69.4922Z" fill="#1A1A1A"/>
<path d="M146 104.56V112.56C150.418 112.56 154 108.978 154 104.56H146ZM96.4404 104.56H88.4404C88.4404 108.978 92.0222 112.56 96.4404 112.56V104.56ZM96.4404 55V47C92.0222 47 88.4404 50.5817 88.4404 55H96.4404ZM146 55H154C154 50.5817 150.418 47 146 47V55ZM97.8359 103.164H89.8359C89.8359 107.582 93.4177 111.164 97.8359 111.164V103.164ZM144.604 103.164V111.164C149.023 111.164 152.604 107.582 152.604 103.164H144.604ZM144.604 56.3955H152.604C152.604 51.9772 149.023 48.3955 144.604 48.3955V56.3955ZM97.8359 56.3955V48.3955C93.4177 48.3955 89.8359 51.9772 89.8359 56.3955H97.8359ZM107.238 82.5586V74.5586H107.238L107.238 82.5586ZM110.608 84.0713L116.081 89.9065C117.655 88.4305 118.566 86.3815 118.607 84.2244C118.648 82.0672 117.816 79.9849 116.3 78.4498L110.608 84.0713ZM110.294 84.3662L104.892 90.2668C107.977 93.091 112.716 93.0625 115.767 90.2014L110.294 84.3662ZM107.317 83.1875L107.318 75.1875H107.317V83.1875ZM104.743 85.4473L99.0863 91.1041C101.374 93.3921 104.815 94.0765 107.805 92.8383C110.794 91.6001 112.743 88.683 112.743 85.4473H104.743ZM104.733 85.4375L110.39 79.7806C108.102 77.4926 104.661 76.8082 101.672 78.0465C98.6824 79.2848 96.7333 82.202 96.7334 85.4377L104.733 85.4375ZM111.021 92.2559H119.021V92.2552L111.021 92.2559ZM107.052 95.6357L107.052 103.636H107.052V95.6357ZM102.798 93.71L97.5378 87.6824C95.8865 89.1234 94.8987 91.1787 94.8051 93.3683C94.7116 95.5579 95.5204 97.6901 97.0426 99.2667L102.798 93.71ZM103.112 93.4355L108.655 87.667C105.665 84.7942 100.976 84.6818 97.8522 87.408L103.112 93.4355ZM106.826 94.9775V102.978H106.827L106.826 94.9775ZM109.655 92.6006L117.655 92.602V92.6006H109.655ZM103.367 85.7422H95.3672V85.7426L103.367 85.7422ZM126.88 95.46V103.46C131.298 103.46 134.88 99.8782 134.88 95.46H126.88ZM125.239 95.46H117.239C117.239 99.8782 120.821 103.46 125.239 103.46V95.46ZM125.239 82.7266V74.7266C120.821 74.7266 117.239 78.3083 117.239 82.7266H125.239ZM126.88 82.7266H134.88C134.88 78.3083 131.298 74.7266 126.88 74.7266V82.7266ZM138.051 91.9629L144.835 87.7231C144.794 87.6577 144.752 87.593 144.71 87.5289L138.051 91.9629ZM138.887 93.5244L131.654 96.9435C133.254 100.328 136.986 102.15 140.639 101.33C144.291 100.51 146.887 97.2676 146.887 93.5244H138.887ZM138.887 82.7266V74.7266C134.468 74.7266 130.887 78.3083 130.887 82.7266H138.887ZM139.643 82.7266H147.643C147.643 78.3083 144.061 74.7266 139.643 74.7266V82.7266ZM139.643 95.46V103.46C144.061 103.46 147.643 99.8782 147.643 95.46H139.643ZM138.405 95.46L131.764 99.9198C133.25 102.133 135.74 103.46 138.405 103.46V95.46ZM132.48 86.6367L139.122 82.1769C139.106 82.1527 139.089 82.1286 139.073 82.1045L132.48 86.6367ZM131.144 84.2197L138.483 81.0364C136.974 77.5578 133.231 75.6162 129.518 76.3866C125.805 77.1571 123.144 80.428 123.144 84.2197H131.144ZM131.144 95.46V103.46C135.562 103.46 139.144 99.8782 139.144 95.46H131.144ZM130.388 95.46H122.388C122.388 99.8782 125.969 103.46 130.388 103.46V95.46ZM130.388 82.7266V74.7266C125.969 74.7266 122.388 78.3083 122.388 82.7266H130.388ZM131.9 82.7266L138.559 78.2925C137.076 76.0649 134.577 74.7266 131.9 74.7266V82.7266ZM115.147 89.3389H107.147C107.147 92.5745 109.096 95.4915 112.086 96.7298C115.075 97.9681 118.516 97.2839 120.804 94.9961L115.147 89.3389ZM121.771 82.7168V74.7168C119.649 74.7168 117.614 75.5595 116.114 77.0595L121.771 82.7168ZM122.526 82.7168H130.526C130.526 78.2985 126.945 74.7168 122.526 74.7168V82.7168ZM122.526 82.7266L128.195 88.3716C129.688 86.8723 130.526 84.8425 130.526 82.7266H122.526ZM117.859 87.4131L112.191 81.7681C109.51 84.4597 109.092 88.6652 111.19 91.8318L117.859 87.4131ZM123.185 95.4502V103.45C126.131 103.45 128.839 101.831 130.233 99.2351C131.627 96.6394 131.481 93.4876 129.854 91.0315L123.185 95.4502ZM121.289 95.4502L114.623 99.8727C116.105 102.107 118.608 103.45 121.289 103.45V95.4502ZM116.72 88.5625L123.386 84.14C122.057 82.1365 119.897 80.837 117.505 80.6011C115.112 80.3652 112.74 81.2179 111.045 82.9232L116.72 88.5625ZM115.147 90.1445L109.473 84.5052C107.984 86.0041 107.147 88.0314 107.147 90.1445H115.147ZM115.147 95.4502V103.45C119.566 103.45 123.147 99.8685 123.147 95.4502H115.147ZM113.507 95.4502H105.507C105.507 99.8685 109.089 103.45 113.507 103.45V95.4502ZM113.507 82.7168V74.7168C109.089 74.7168 105.507 78.2985 105.507 82.7168H113.507ZM115.147 82.7168H123.147C123.147 78.2985 119.566 74.7168 115.147 74.7168V82.7168ZM110.55 73.1074H102.55C102.55 77.5257 106.132 81.1074 110.55 81.1074V73.1074ZM112.19 73.1074L119.924 75.1548C120.559 72.7546 120.044 70.1954 118.53 68.2278C117.016 66.2603 114.673 65.1074 112.19 65.1074V73.1074ZM111.787 74.6309V82.6309C115.417 82.6309 118.592 80.1871 119.521 76.6783L111.787 74.6309ZM110.55 74.6309V66.6309C106.132 66.6309 102.55 70.2126 102.55 74.6309H110.55ZM110.55 76.7236V84.7236C114.968 84.7236 118.55 81.1419 118.55 76.7236H110.55ZM109.026 76.7236H101.026C101.026 81.1419 104.608 84.7236 109.026 84.7236V76.7236ZM109.026 74.6309H117.026C117.026 70.2126 113.445 66.6309 109.026 66.6309V74.6309ZM102.944 74.6309L96.4398 69.9735C94.6943 72.4113 94.4584 75.6206 95.8289 78.2874C97.1993 80.9542 99.946 82.6309 102.944 82.6309V74.6309ZM104.035 73.1074L97.5308 68.4498L97.5306 68.45L104.035 73.1074ZM110.55 64.0098H118.55C118.55 60.5338 116.305 57.4556 112.996 56.3929C109.686 55.3301 106.069 56.526 104.045 59.3521L110.55 64.0098ZM131.232 67.4189L138.504 70.7539C138.506 70.7495 138.508 70.7452 138.51 70.7409L131.232 67.4189ZM138.454 64.0098L146.326 65.4368C147.11 61.1101 144.256 56.9615 139.934 56.1479L138.454 64.0098ZM138.424 64.1768L138.648 72.1736C142.43 72.0678 145.621 69.3267 146.296 65.6038L138.424 64.1768ZM132.273 69.9346L124.277 70.1802C124.394 73.9898 127.183 77.1879 130.941 77.8228C134.699 78.4577 138.383 76.3531 139.745 72.7933L132.273 69.9346ZM135.447 67.832L135.301 59.8334C135.285 59.8337 135.269 59.834 135.252 59.8344L135.447 67.832ZM139.555 72.7939L147.48 73.8841L147.48 73.8809L139.555 72.7939ZM133.531 76.4092L131.314 84.0957C131.32 84.0976 131.327 84.0995 131.333 84.1014L133.531 76.4092ZM118.734 64.0098L113.078 69.6666C114.578 71.1669 116.613 72.0098 118.734 72.0098V64.0098ZM124.855 64.0098L132.731 65.4154C133.147 63.0846 132.509 60.6892 130.989 58.8739C129.469 57.0585 127.223 56.0098 124.855 56.0098V64.0098ZM124.58 65.5527V73.5527C128.456 73.5527 131.775 70.7741 132.456 66.9584L124.58 65.5527ZM118.725 65.5527V57.5527C114.914 57.5527 111.633 60.2402 110.882 63.9758L118.725 65.5527ZM117.948 69.4141L110.105 67.8371C109.39 71.3932 111.157 74.9853 114.411 76.5894C117.664 78.1934 121.589 77.4078 123.975 74.6753L117.948 69.4141ZM120.729 67.9795L119.81 60.0324L119.809 60.0325L120.729 67.9795ZM125.533 71.4668L133.512 70.886L133.512 70.8849L125.533 71.4668ZM121.701 76.6162L122.627 84.5625C123.001 84.5189 123.372 84.449 123.736 84.3531L121.701 76.6162ZM116.907 73.0889L124.461 70.4546C123.091 66.5255 118.937 64.3028 114.908 65.3427C110.879 66.3825 108.32 70.3375 109.022 74.4391L116.907 73.0889ZM119.472 75.2598L117.487 83.0095L117.487 83.0098L119.472 75.2598ZM123.607 73.5703L130.826 77.0188L130.827 77.0161L123.607 73.5703ZM123.254 69.7676L129.319 64.5513L129.319 64.5513L123.254 69.7676ZM117.496 70.4746L109.634 68.9969C108.915 72.8209 111.052 76.6075 114.697 77.9689C118.342 79.3304 122.438 77.8717 124.402 74.5129L117.496 70.4746ZM118.715 63.9902L124.372 58.3334C122.274 56.2354 119.187 55.4708 116.352 56.3471C113.517 57.2234 111.401 59.5965 110.853 62.5125L118.715 63.9902ZM134.985 68.3037V60.3037H134.985L134.985 68.3037ZM132.087 72.3613L124.087 72.3611V72.3613H132.087ZM134.985 76.4092L134.985 84.4092H134.985V76.4092ZM137.874 72.3613H145.874V72.3611L137.874 72.3613ZM104.32 73.1074L97.8191 68.4454C96.0712 70.8828 95.8336 74.0932 97.2036 76.7614C98.5735 79.4297 101.321 81.1074 104.32 81.1074V73.1074ZM109.026 73.1074V81.1074C113.445 81.1074 117.026 77.5257 117.026 73.1074H109.026ZM109.026 66.5449H117.026C117.026 63.07 114.783 59.9924 111.475 58.9288C108.167 57.8653 104.55 59.059 102.525 61.8829L109.026 66.5449ZM114.46 69.4922V61.4922L114.456 61.4922L114.46 69.4922ZM115.256 70.2881L123.256 70.2884V70.2881H115.256ZM114.46 71.084L114.456 79.084H114.46V71.084ZM113.664 70.2881H105.664V70.2884L113.664 70.2881ZM128 69.4922L128.003 61.4922H128V69.4922ZM128.796 70.2881L136.796 70.2884V70.2881H128.796ZM128 71.084V79.084H128.003L128 71.084ZM127.204 70.2881H119.204V70.2884L127.204 70.2881ZM146 104.56V96.5596H96.4404V104.56V112.56H146V104.56ZM96.4404 104.56H104.44V55H96.4404H88.4404V104.56H96.4404ZM96.4404 55V63H146V55V47H96.4404V55ZM146 55H138V104.56H146H154V55H146ZM97.8359 103.164V111.164H144.604V103.164V95.1641H97.8359V103.164ZM144.604 103.164H152.604V56.3955H144.604H136.604V103.164H144.604ZM144.604 56.3955V48.3955H97.8359V56.3955V64.3955H144.604V56.3955ZM97.8359 56.3955H89.8359V103.164H97.8359H105.836V56.3955H97.8359ZM107.238 82.5586V90.5586C106.761 90.5586 106.156 90.4321 105.577 90.134C105.073 89.8749 104.832 89.6075 104.916 89.6928L110.608 84.0713L116.3 78.4498C114.726 76.8559 111.818 74.5586 107.238 74.5586V82.5586ZM110.608 84.0713L105.136 78.2361L104.821 78.531L110.294 84.3662L115.767 90.2014L116.081 89.9065L110.608 84.0713ZM110.294 84.3662L115.696 78.4656C113.557 76.5071 110.712 75.1876 107.318 75.1875L107.317 83.1875L107.317 91.1875C106.925 91.1875 106.432 91.1106 105.921 90.9017C105.423 90.6981 105.081 90.4402 104.892 90.2668L110.294 84.3662ZM107.317 83.1875V75.1875C105.175 75.1875 102.499 75.7665 100.23 77.7195C97.8126 79.7997 96.7432 82.685 96.7432 85.4473H104.743H112.743C112.743 86.7848 112.185 88.5403 110.667 89.8467C109.296 91.0261 107.907 91.1875 107.317 91.1875V83.1875ZM104.743 85.4473L110.4 79.7904L110.39 79.7806L104.733 85.4375L99.0765 91.0944L99.0863 91.1041L104.743 85.4473ZM104.733 85.4375L96.7334 85.4377C96.7335 87.3012 97.2445 89.0744 98.1932 90.6137C99.0836 92.0585 100.186 93.0183 101.018 93.6219C101.838 94.2171 102.636 94.6359 103.147 94.8911C103.523 95.0792 104.302 95.444 104.399 95.491C105.12 95.8393 104.752 95.7513 104.267 95.2458C103.483 94.4296 103.022 93.269 103.021 92.2565L111.021 92.2559L119.021 92.2552C119.021 88.9782 117.773 86.2126 115.811 84.1677C114.147 82.4335 112.206 81.4931 111.356 81.0825C110.667 80.75 110.659 80.7586 110.299 80.5786C110.073 80.4656 110.183 80.5041 110.414 80.6715C110.656 80.8474 111.267 81.3322 111.814 82.219C112.419 83.2003 112.733 84.3327 112.733 85.4373L104.733 85.4375ZM111.021 92.2559H103.021C103.021 90.7876 103.759 89.3555 104.873 88.4762C105.808 87.7382 106.659 87.6357 107.052 87.6357V95.6357V103.636C109.557 103.636 112.393 102.924 114.785 101.037C117.356 99.0078 119.021 95.8857 119.021 92.2559H111.021ZM107.052 95.6357L107.052 87.6357C107.21 87.6357 107.414 87.657 107.643 87.7172C107.87 87.7768 108.07 87.8607 108.232 87.9482C108.54 88.1135 108.659 88.2632 108.553 88.1532L102.798 93.71L97.0426 99.2667C98.5549 100.833 101.819 103.636 107.052 103.636L107.052 95.6357ZM102.798 93.71L108.058 99.7375L108.372 99.4631L103.112 93.4355L97.8522 87.408L97.5378 87.6824L102.798 93.71ZM103.112 93.4355L97.5694 99.2041C99.3531 100.918 102.595 102.978 106.826 102.978V94.9775V86.9775C107.388 86.9775 107.798 87.1192 108.025 87.2248C108.234 87.3218 108.431 87.4517 108.655 87.667L103.112 93.4355ZM106.826 94.9775L106.827 102.978C109.181 102.977 111.841 102.29 114.054 100.412C116.365 98.4509 117.655 95.6147 117.655 92.602L109.655 92.6006L101.655 92.5992C101.656 90.9814 102.38 89.3337 103.702 88.2122C104.925 87.1742 106.171 86.9776 106.826 86.9775L106.826 94.9775ZM109.655 92.6006H117.655C117.655 90.93 117.278 89.2915 116.51 87.7876C115.764 86.327 114.786 85.2581 113.912 84.5006C112.388 83.1804 110.556 82.3395 110.067 82.0971C109.089 81.6119 109.37 81.683 109.762 82.0426C110.056 82.313 110.5 82.8041 110.855 83.5466C111.224 84.318 111.367 85.0915 111.367 85.7418L103.367 85.7422L95.3672 85.7426C95.3673 87.3582 95.7072 88.957 96.4198 90.4477C97.1187 91.9096 98.054 93.0141 98.938 93.826C100.508 95.2686 102.361 96.135 102.956 96.4298C104.039 96.9673 103.779 96.8912 103.434 96.5925C103.149 96.3459 102.662 95.852 102.26 95.0648C101.836 94.2342 101.655 93.3672 101.655 92.6006H109.655ZM103.367 85.7422H111.367C111.367 86.8677 110.862 88.4459 109.48 89.5834C108.294 90.5597 107.256 90.5586 107.239 90.5586L107.238 82.5586L107.238 74.5586C104.804 74.5587 101.831 75.157 99.3129 77.229C96.5993 79.4621 95.3672 82.632 95.3672 85.7422H103.367ZM126.88 95.46V87.46H125.239V95.46V103.46H126.88V95.46ZM125.239 95.46H133.239V82.7266H125.239H117.239V95.46H125.239ZM125.239 82.7266V90.7266H126.88V82.7266V74.7266H125.239V82.7266ZM126.88 82.7266H118.88V95.46H126.88H134.88V82.7266H126.88ZM138.051 91.9629L131.267 96.2027C131.336 96.3144 131.473 96.5612 131.654 96.9435L138.887 93.5244L146.119 90.1054C145.789 89.407 145.355 88.5545 144.835 87.7231L138.051 91.9629ZM138.887 93.5244H146.887V82.7266H138.887H130.887V93.5244H138.887ZM138.887 82.7266V90.7266H139.643V82.7266V74.7266H138.887V82.7266ZM139.643 82.7266H131.643V95.46H139.643H147.643V82.7266H139.643ZM139.643 95.46V87.46H138.405V95.46V103.46H139.643V95.46ZM138.405 95.46L145.047 91.0002L139.122 82.1769L132.48 86.6367L125.839 91.0965L131.764 99.9198L138.405 95.46ZM132.48 86.6367L139.073 82.1045C138.839 81.7646 138.642 81.4039 138.483 81.0364L131.144 84.2197L123.804 87.4031C124.352 88.6665 125.041 89.9368 125.888 91.1689L132.48 86.6367ZM131.144 84.2197H123.144V95.46H131.144H139.144V84.2197H131.144ZM131.144 95.46V87.46H130.388V95.46V103.46H131.144V95.46ZM130.388 95.46H138.388V82.7266H130.388H122.388V95.46H130.388ZM130.388 82.7266V90.7266H131.9V82.7266V74.7266H130.388V82.7266ZM131.9 82.7266L125.242 87.1606L131.392 96.3969L138.051 91.9629L144.71 87.5289L138.559 78.2925L131.9 82.7266ZM115.147 89.3389L120.804 94.9961L127.427 88.3741L121.771 82.7168L116.114 77.0595L109.491 83.6816L115.147 89.3389ZM121.771 82.7168V90.7168H122.526V82.7168V74.7168H121.771V82.7168ZM122.526 82.7168H114.526V82.7266H122.526H130.526V82.7168H122.526ZM122.526 82.7266L116.858 77.0815L112.191 81.7681L117.859 87.4131L123.528 93.0581L128.195 88.3716L122.526 82.7266ZM117.859 87.4131L111.19 91.8318L116.516 99.8689L123.185 95.4502L129.854 91.0315L124.528 82.9944L117.859 87.4131ZM123.185 95.4502V87.4502H121.289V95.4502V103.45H123.185V95.4502ZM121.289 95.4502L127.955 91.0277L123.386 84.14L116.72 88.5625L110.053 92.985L114.623 99.8727L121.289 95.4502ZM116.72 88.5625L111.045 82.9232L109.473 84.5052L115.147 90.1445L120.822 95.7838L122.394 94.2018L116.72 88.5625ZM115.147 90.1445H107.147V95.4502H115.147H123.147V90.1445H115.147ZM115.147 95.4502V87.4502H113.507V95.4502V103.45H115.147V95.4502ZM113.507 95.4502H121.507V82.7168H113.507H105.507V95.4502H113.507ZM113.507 82.7168V90.7168H115.147V82.7168V74.7168H113.507V82.7168ZM115.147 82.7168H107.147V89.3389H115.147H123.147V82.7168H115.147ZM110.55 73.1074V81.1074H112.19V73.1074V65.1074H110.55V73.1074ZM112.19 73.1074L104.457 71.06L104.054 72.5834L111.787 74.6309L119.521 76.6783L119.924 75.1548L112.19 73.1074ZM111.787 74.6309V66.6309H110.55V74.6309V82.6309H111.787V74.6309ZM110.55 74.6309H102.55V76.7236H110.55H118.55V74.6309H110.55ZM110.55 76.7236V68.7236H109.026V76.7236V84.7236H110.55V76.7236ZM109.026 76.7236H117.026V74.6309H109.026H101.026V76.7236H109.026ZM109.026 74.6309V66.6309H102.944V74.6309V82.6309H109.026V74.6309ZM102.944 74.6309L109.449 79.2883L110.54 77.7648L104.035 73.1074L97.5306 68.45L96.4398 69.9735L102.944 74.6309ZM104.035 73.1074L110.54 77.7651L117.054 68.6674L110.55 64.0098L104.045 59.3521L97.5308 68.4498L104.035 73.1074ZM110.55 64.0098H102.55V73.1074H110.55H118.55V64.0098H110.55ZM131.232 67.4189L138.51 70.7409C138.385 71.0142 138.109 71.3738 137.712 71.6443C137.377 71.8725 137.134 71.918 137.127 71.9195C137.121 71.9206 137.174 71.9135 137.247 71.9168C137.271 71.9179 137.271 71.919 137.236 71.9146C137.217 71.9123 137.188 71.9083 137.145 71.9015C137.124 71.8982 137.099 71.8941 137.071 71.8892C137.056 71.8867 137.041 71.884 137.025 71.8811C137.017 71.8796 137.009 71.8781 137 71.8766C136.996 71.8758 136.992 71.875 136.987 71.8741C136.985 71.8737 136.982 71.8731 136.981 71.8729C136.977 71.8723 136.974 71.8716 138.454 64.0098C139.934 56.1479 139.931 56.1473 139.927 56.1466C139.926 56.1464 139.923 56.1457 139.92 56.1453C139.916 56.1444 139.911 56.1435 139.906 56.1426C139.896 56.1408 139.886 56.139 139.875 56.137C139.854 56.1332 139.832 56.1292 139.808 56.125C139.759 56.1166 139.705 56.1076 139.645 56.0981C139.525 56.0791 139.381 56.0582 139.216 56.0376C138.888 55.9967 138.464 55.9554 137.968 55.933C137 55.8894 135.623 55.9112 134.063 56.2156C130.846 56.8433 126.351 58.8469 123.955 64.097L131.232 67.4189ZM138.454 64.0098L130.582 62.5827L130.552 62.7497L138.424 64.1768L146.296 65.6038L146.326 65.4368L138.454 64.0098ZM138.424 64.1768L138.2 56.1799C132.117 56.3502 127.985 59.4469 125.908 63.3754C124.193 66.6179 124.262 69.6772 124.277 70.1802L132.273 69.9346L140.27 69.689C140.28 70.0394 140.263 70.2074 140.248 70.2983C140.236 70.374 140.2 70.5736 140.052 70.8542C139.877 71.1844 139.549 71.6126 139.044 71.9283C138.536 72.2469 138.275 72.1841 138.648 72.1736L138.424 64.1768ZM132.273 69.9346L139.745 72.7933C139.016 74.7001 137.267 75.79 135.642 75.8297L135.447 67.832L135.252 59.8344C130.405 59.9526 126.396 62.9092 124.802 67.0758L132.273 69.9346ZM135.447 67.832L135.593 75.8307C134.766 75.8458 134.209 75.6746 133.914 75.5588C133.576 75.4262 133.215 75.2215 132.863 74.8976C132.493 74.5564 132.104 74.0532 131.853 73.3865C131.593 72.6965 131.577 72.0879 131.629 71.707L139.555 72.7939L147.48 73.8809C148.097 69.3858 146.373 65.5874 143.701 63.1272C141.396 61.0047 138.288 59.7788 135.301 59.8334L135.447 67.832ZM139.555 72.7939L131.629 71.7038C131.664 71.452 131.796 70.9265 132.21 70.3321C132.627 69.7335 133.177 69.2883 133.734 69.0089C134.751 68.4991 135.491 68.6489 135.729 68.717L133.531 76.4092L131.333 84.1014C134.116 84.8965 137.632 84.9532 140.907 83.3113C144.525 81.4969 146.906 78.0601 147.48 73.8841L139.555 72.7939ZM133.531 76.4092L135.749 68.7227C137.631 69.2656 138.201 70.57 138.297 70.8762C138.445 71.3426 138.242 71.3255 138.504 70.7539L131.232 67.4189L123.961 64.084C120.797 70.9834 122.218 81.4716 131.314 84.0957L133.531 76.4092ZM118.734 64.0098V72.0098H124.855V64.0098V56.0098H118.734V64.0098ZM124.855 64.0098L116.98 62.6041L116.705 64.1471L124.58 65.5527L132.456 66.9584L132.731 65.4154L124.855 64.0098ZM124.58 65.5527V57.5527H118.725V65.5527V73.5527H124.58V65.5527ZM118.725 65.5527L110.882 63.9758L110.105 67.8371L117.948 69.4141L125.791 70.991L126.568 67.1297L118.725 65.5527ZM117.948 69.4141C123.975 74.6753 123.973 74.6774 123.971 74.6794C123.971 74.6801 123.969 74.6822 123.968 74.6835C123.965 74.6863 123.963 74.689 123.96 74.6917C123.956 74.697 123.951 74.7024 123.946 74.7076C123.937 74.7182 123.928 74.7285 123.919 74.7387C123.901 74.759 123.883 74.7784 123.866 74.7972C123.832 74.8346 123.799 74.8692 123.769 74.9013C123.707 74.9652 123.65 75.0212 123.597 75.0711C123.494 75.1668 123.383 75.2593 123.254 75.3485C123.039 75.4975 122.498 75.8281 121.648 75.9265L120.729 67.9795L119.809 60.0325C117.259 60.3276 115.328 61.3754 114.148 62.1926C113.536 62.6158 113.049 63.0301 112.691 63.3641C112.509 63.5331 112.355 63.6873 112.227 63.8197C112.164 63.886 112.106 63.9474 112.056 64.0031C112.03 64.0309 112.006 64.0574 111.984 64.0823C111.973 64.0948 111.962 64.1069 111.952 64.1187C111.946 64.1246 111.941 64.1303 111.936 64.136C111.934 64.1389 111.931 64.1417 111.929 64.1445C111.928 64.1459 111.926 64.148 111.925 64.1487C111.924 64.1507 111.922 64.1528 117.948 69.4141ZM120.729 67.9795L121.647 75.9266C121.02 75.999 120.599 75.9281 120.393 75.8812C120.161 75.8282 119.896 75.7354 119.6 75.5583C118.998 75.1995 117.702 74.0667 117.554 72.0487L125.533 71.4668L133.512 70.8849C133.178 66.3029 130.329 63.3282 127.797 61.8176C125.446 60.4153 122.543 59.7165 119.81 60.0324L120.729 67.9795ZM125.533 71.4668L117.554 72.0476C117.568 72.2312 117.459 71.2806 118.254 70.1377C119.068 68.9664 119.992 68.7938 119.666 68.8793L121.701 76.6162L123.736 84.3531C126.437 83.6428 129.37 82.1776 131.39 79.2718C133.391 76.3942 133.685 73.2668 133.512 70.886L125.533 71.4668ZM121.701 76.6162L120.776 68.6699C121.072 68.6354 121.257 68.6311 121.397 68.6376C121.519 68.6433 121.788 68.664 122.161 68.793C122.559 68.9311 123.213 69.2447 123.821 69.9049C124.474 70.6131 124.725 71.3426 124.792 71.7387L116.907 73.0889L109.022 74.4391C109.939 79.7937 113.556 82.7448 116.922 83.9111C119.723 84.8818 122.177 84.6149 122.627 84.5625L121.701 76.6162ZM116.907 73.0889L109.353 75.7231C109.632 76.523 111.518 81.4807 117.487 83.0095L119.472 75.2598L121.457 67.51C122.414 67.7551 123.154 68.3368 123.62 68.9008C124.026 69.3915 124.273 69.9151 124.461 70.4546L116.907 73.0889ZM119.472 75.2598L117.487 83.0098C120.754 83.8461 123.698 83.1247 125.8 82.0406C127.652 81.0853 129.681 79.4152 130.826 77.0188L123.607 73.5703L116.389 70.1218C116.819 69.2208 117.318 68.6983 117.557 68.4716C117.847 68.1952 118.149 67.9836 118.465 67.8208C119.101 67.4929 120.184 67.184 121.456 67.5098L119.472 75.2598ZM123.607 73.5703L130.827 77.0161C131.766 75.0495 131.97 72.9326 131.893 71.3319C131.819 69.771 131.397 66.9674 129.319 64.5513L123.254 69.7676L117.188 74.9839C116.519 74.2054 116.221 73.466 116.09 73.0471C115.954 72.6138 115.92 72.2843 115.911 72.0944C115.902 71.8972 115.912 71.6942 115.949 71.4623C115.979 71.2819 116.072 70.7865 116.388 70.1245L123.607 73.5703ZM123.254 69.7676L129.319 64.5513C127.354 62.2658 124.258 60.8507 121.207 60.6593C117.325 60.4159 113.103 62.1387 110.59 66.4364L117.496 70.4746L124.402 74.5129C124.141 74.9596 123.579 75.6287 122.628 76.1118C121.713 76.5764 120.835 76.6674 120.206 76.628C119.614 76.5909 119.156 76.4386 118.812 76.2754C118.555 76.1538 117.9 75.8112 117.188 74.9839L123.254 69.7676ZM117.496 70.4746L125.358 71.9523L126.577 65.468L118.715 63.9902L110.853 62.5125L109.634 68.9969L117.496 70.4746ZM118.715 63.9902L113.058 69.6471L113.078 69.6666L118.734 64.0098L124.391 58.3529L124.372 58.3334L118.715 63.9902ZM134.985 68.3037L134.985 60.3037C130.93 60.3038 128.014 62.6189 126.425 64.8434C124.826 67.083 124.087 69.7665 124.087 72.3611L132.087 72.3613L140.087 72.3615C140.087 72.7161 139.996 73.3708 139.446 74.1416C138.906 74.8973 137.439 76.3036 134.986 76.3037L134.985 68.3037ZM132.087 72.3613H124.087C124.087 74.9572 124.827 77.6433 126.432 79.8847C128.03 82.1144 130.947 84.4091 134.985 84.4092L134.985 76.4092L134.986 68.4092C137.422 68.4092 138.89 69.8 139.439 70.5659C139.996 71.3434 140.087 72.0056 140.087 72.3613H132.087ZM134.985 76.4092V84.4092C139.035 84.4092 141.948 82.098 143.535 79.8775C145.134 77.6398 145.874 74.9574 145.874 72.3613H137.874H129.874C129.874 72.0055 129.965 71.347 130.518 70.5731C131.059 69.8166 132.528 68.4092 134.985 68.4092V76.4092ZM137.874 72.3613L145.874 72.3611C145.874 69.7799 145.145 67.1002 143.551 64.8578C141.965 62.6267 139.048 60.3037 134.985 60.3037V68.3037V76.3037C132.524 76.3037 131.051 74.8895 130.509 74.1271C129.96 73.3536 129.874 72.7027 129.874 72.3615L137.874 72.3613ZM104.32 73.1074V81.1074H109.026V73.1074V65.1074H104.32V73.1074ZM109.026 73.1074H117.026V66.5449H109.026H101.026V73.1074H109.026ZM109.026 66.5449L102.525 61.8829L97.8191 68.4454L104.32 73.1074L110.821 77.7695L115.528 71.207L109.026 66.5449ZM114.46 69.4922V77.4922C110.481 77.4922 107.256 74.2668 107.256 70.2881H115.256H123.256C123.256 65.4303 119.318 61.4922 114.46 61.4922V69.4922ZM115.256 70.2881L107.256 70.2877C107.256 66.3096 110.481 63.084 114.46 63.084V71.084V79.084C119.318 79.084 123.256 75.1456 123.256 70.2884L115.256 70.2881ZM114.46 71.084L114.464 63.084C118.436 63.086 121.664 66.3054 121.664 70.2877L113.664 70.2881L105.664 70.2884C105.664 75.1495 109.605 79.0815 114.456 79.084L114.46 71.084ZM113.664 70.2881H121.664C121.664 74.271 118.436 77.4902 114.464 77.4922L114.46 69.4922L114.456 61.4922C109.605 61.4946 105.664 65.4264 105.664 70.2881H113.664ZM128 69.4922L127.997 77.4922C124.024 77.4906 120.796 74.2701 120.796 70.2881H128.796H136.796C136.796 65.4272 132.855 61.4941 128.003 61.4922L128 69.4922ZM128.796 70.2881L120.796 70.2877C120.796 66.3063 124.023 63.0856 127.997 63.084L128 71.084L128.003 79.084C132.856 79.0821 136.796 75.1487 136.796 70.2884L128.796 70.2881ZM128 71.084V63.084C131.979 63.084 135.204 66.3096 135.204 70.2877L127.204 70.2881L119.204 70.2884C119.204 75.1456 123.142 79.084 128 79.084V71.084ZM127.204 70.2881H135.204C135.204 74.2668 131.979 77.4922 128 77.4922V69.4922V61.4922C123.142 61.4922 119.204 65.4303 119.204 70.2881H127.204Z" fill="#E6E2DE" mask="url(#path-4-outside-1_1195_278)"/>
</svg>
