<svg width="242" height="180" viewBox="0 0 242 180" fill="none" xmlns="http://www.w3.org/2000/svg">
<rect y="20" width="242" height="160" rx="12" fill="#E6E2DE"/>
<path d="M104.069 94.5596L103.205 92.0956H98.7407L97.8607 94.5596H95.4127L99.7327 83.0716H102.389L106.677 94.5596H104.069ZM100.997 85.7276L99.4287 90.1596H102.533L100.997 85.7276ZM106.68 90.2876C106.68 87.7596 108.168 85.8556 110.472 85.8556C111.496 85.8556 112.36 86.3036 113 87.1196V83.0716H115.208V94.5596H113.176V93.3276C112.504 94.2236 111.576 94.7196 110.472 94.7196C108.168 94.7196 106.68 92.7836 106.68 90.2876ZM108.968 90.2876C108.968 91.8876 109.88 92.7356 110.968 92.7356C112.072 92.7356 112.984 91.8716 112.984 90.2556C112.984 88.6396 112.056 87.8236 110.968 87.8236C109.88 87.8236 108.968 88.6556 108.968 90.2876ZM122.345 92.3996V94.3356C121.801 94.6076 121.289 94.7196 120.633 94.7196C118.873 94.7196 117.769 93.7116 117.769 91.7916V87.9196H116.041V86.0156H117.769V83.4876H119.977V86.0156H122.425V87.9196H119.977V91.2796C119.977 92.2716 120.425 92.6716 121.225 92.6716C121.641 92.6716 122.025 92.5756 122.345 92.3996ZM125.847 90.4156V94.5596H123.623V86.0156H125.671V87.6636C126.295 86.5756 127.623 85.9196 128.999 85.9196V88.2236C127.111 88.0796 125.847 88.5276 125.847 90.4156ZM133.708 94.7196C131.228 94.7196 129.372 92.7676 129.372 90.2876C129.372 87.7916 131.228 85.8556 133.708 85.8556C136.188 85.8556 138.044 87.7916 138.044 90.2876C138.044 92.7676 136.188 94.7196 133.708 94.7196ZM133.708 92.7516C134.812 92.7516 135.756 91.8716 135.756 90.2876C135.756 88.7036 134.812 87.8396 133.708 87.8396C132.604 87.8396 131.66 88.7036 131.66 90.2876C131.66 91.8716 132.604 92.7516 133.708 92.7516ZM141.527 89.9036V94.5596H139.303V86.0156H141.351V87.2316C141.975 86.3836 142.855 85.8556 143.975 85.8556C145.687 85.8556 146.871 86.9756 146.871 89.0396V94.5596H144.663V89.7916C144.663 88.5276 144.167 87.8236 143.159 87.8236C142.279 87.8236 141.527 88.5276 141.527 89.9036Z" fill="#1A1A1A"/>
<path d="M79.8399 114.56L77.7119 106.678L75.5699 114.56H73.9879L71.3699 104.508H72.8819L74.8139 112.25L76.9279 104.508H78.5239L80.6099 112.264L82.5419 104.508H84.0539L81.4359 114.56H79.8399ZM87.461 114.7C85.319 114.7 83.877 113.146 83.877 110.808C83.877 108.61 85.375 107 87.419 107C89.631 107 91.101 108.792 90.849 111.2H85.319C85.431 112.712 86.187 113.594 87.433 113.594C88.483 113.594 89.211 113.02 89.449 112.054H90.849C90.485 113.706 89.211 114.7 87.461 114.7ZM87.391 108.064C86.257 108.064 85.487 108.876 85.333 110.262H89.351C89.281 108.89 88.539 108.064 87.391 108.064ZM99.1564 110.85C99.1564 113.076 97.8684 114.7 95.8664 114.7C94.8164 114.7 93.9204 114.168 93.3884 113.23V114.56H92.0724V104.508H93.4864V108.414C94.0044 107.504 94.8584 107 95.8664 107C97.8544 107 99.1564 108.596 99.1564 110.85ZM97.6864 110.85C97.6864 109.17 96.8044 108.246 95.5864 108.246C94.4104 108.246 93.4864 109.156 93.4864 110.822C93.4864 112.46 94.3824 113.44 95.5864 113.44C96.8044 113.44 97.6864 112.502 97.6864 110.85ZM106.19 112.348C106.19 113.804 105.056 114.7 103.082 114.7C101.122 114.7 99.96 113.734 99.82 112.138H101.178C101.234 113.062 101.976 113.636 103.11 113.636C104.104 113.636 104.762 113.286 104.762 112.586C104.762 111.97 104.384 111.704 103.46 111.522L102.256 111.298C100.884 111.032 100.114 110.332 100.114 109.212C100.114 107.91 101.248 107 102.97 107C104.748 107 105.952 107.952 106.078 109.478H104.72C104.636 108.582 103.978 108.064 102.984 108.064C102.088 108.064 101.486 108.442 101.486 109.086C101.486 109.688 101.864 109.968 102.76 110.136L104.02 110.374C105.49 110.64 106.19 111.284 106.19 112.348ZM109.176 105.418C109.176 105.95 108.756 106.356 108.154 106.356C107.552 106.356 107.118 105.95 107.118 105.418C107.118 104.872 107.552 104.48 108.154 104.48C108.756 104.48 109.176 104.872 109.176 105.418ZM108.868 114.56H107.454V107.14H108.868V114.56ZM114.737 113.188V114.434C114.303 114.63 113.925 114.7 113.477 114.7C112.105 114.7 111.153 113.958 111.153 112.32V108.344H109.515V107.14H111.153V104.942H112.567V107.14H114.807V108.344H112.567V111.998C112.567 113.02 113.057 113.384 113.813 113.384C114.149 113.384 114.443 113.328 114.737 113.188ZM118.723 114.7C116.581 114.7 115.139 113.146 115.139 110.808C115.139 108.61 116.637 107 118.681 107C120.893 107 122.363 108.792 122.111 111.2H116.581C116.693 112.712 117.449 113.594 118.695 113.594C119.745 113.594 120.473 113.02 120.711 112.054H122.111C121.747 113.706 120.473 114.7 118.723 114.7ZM118.653 108.064C117.519 108.064 116.749 108.876 116.595 110.262H120.613C120.543 108.89 119.801 108.064 118.653 108.064ZM129.27 114.56H126.092V104.508H129.27C132.476 104.508 134.324 106.552 134.324 109.492C134.324 112.39 132.406 114.56 129.27 114.56ZM127.632 105.838V113.23H129.2C131.51 113.23 132.756 111.802 132.756 109.492C132.756 107.224 131.524 105.838 129.2 105.838H127.632ZM138.596 114.7C136.454 114.7 135.012 113.146 135.012 110.808C135.012 108.61 136.51 107 138.554 107C140.766 107 142.236 108.792 141.984 111.2H136.454C136.566 112.712 137.322 113.594 138.568 113.594C139.618 113.594 140.346 113.02 140.584 112.054H141.984C141.62 113.706 140.346 114.7 138.596 114.7ZM138.526 108.064C137.392 108.064 136.622 108.876 136.468 110.262H140.486C140.416 108.89 139.674 108.064 138.526 108.064ZM149.087 112.348C149.087 113.804 147.953 114.7 145.979 114.7C144.019 114.7 142.857 113.734 142.717 112.138H144.075C144.131 113.062 144.873 113.636 146.007 113.636C147.001 113.636 147.659 113.286 147.659 112.586C147.659 111.97 147.281 111.704 146.357 111.522L145.153 111.298C143.781 111.032 143.011 110.332 143.011 109.212C143.011 107.91 144.145 107 145.867 107C147.645 107 148.849 107.952 148.975 109.478H147.617C147.533 108.582 146.875 108.064 145.881 108.064C144.985 108.064 144.383 108.442 144.383 109.086C144.383 109.688 144.761 109.968 145.657 110.136L146.917 110.374C148.387 110.64 149.087 111.284 149.087 112.348ZM152.073 105.418C152.073 105.95 151.653 106.356 151.051 106.356C150.449 106.356 150.015 105.95 150.015 105.418C150.015 104.872 150.449 104.48 151.051 104.48C151.653 104.48 152.073 104.872 152.073 105.418ZM151.765 114.56H150.351V107.14H151.765V114.56ZM156.416 117.416C154.47 117.416 153.21 116.38 153.126 114.7H154.498C154.582 115.736 155.254 116.296 156.402 116.296C157.676 116.296 158.348 115.61 158.348 114.336V112.992C157.928 113.888 157.088 114.406 156.08 114.406C154.232 114.406 152.916 112.88 152.916 110.696C152.916 108.484 154.176 107 156.038 107C157.102 107 157.942 107.518 158.446 108.456V107.14H159.762V114.308C159.762 116.254 158.516 117.416 156.416 117.416ZM154.344 110.696C154.344 112.236 155.1 113.174 156.332 113.174C157.536 113.174 158.348 112.208 158.348 110.738C158.348 109.198 157.55 108.218 156.332 108.218C155.114 108.218 154.344 109.17 154.344 110.696ZM162.854 110.374V114.56H161.44V107.14H162.756V108.372C163.26 107.546 164.1 107 165.122 107C166.648 107 167.656 107.98 167.656 109.758V114.56H166.242V110.234C166.242 108.96 165.682 108.246 164.632 108.246C163.666 108.246 162.854 109.058 162.854 110.374ZM171.171 113.958C171.171 115.288 170.121 116.324 168.581 116.352V115.554C169.491 115.526 170.107 115.036 170.191 114.35C170.065 114.392 169.981 114.406 169.883 114.406C169.351 114.406 168.959 113.972 168.959 113.454C168.959 112.852 169.407 112.46 169.981 112.46C170.751 112.46 171.171 113.02 171.171 113.958ZM77.9068 128.06H75.9608V131.56H74.4208V121.508H77.9068C80.1608 121.508 81.6168 122.656 81.6168 124.756C81.6168 126.87 80.1608 128.06 77.9068 128.06ZM77.8928 122.81H75.9608V126.758H77.8928C79.2508 126.758 80.0768 126.016 80.0768 124.77C80.0768 123.524 79.2508 122.81 77.8928 122.81ZM84.1791 127.766V131.56H82.7651V124.14H84.0811V125.708C84.5991 124.686 85.7191 124.042 86.9371 124.042V125.512C85.3411 125.428 84.1791 126.128 84.1791 127.766ZM90.8568 131.7C88.7568 131.7 87.2168 130.048 87.2168 127.85C87.2168 125.652 88.7568 124 90.8568 124C92.9568 124 94.4968 125.652 94.4968 127.85C94.4968 130.048 92.9568 131.7 90.8568 131.7ZM90.8568 130.454C92.0748 130.454 93.0408 129.474 93.0408 127.85C93.0408 126.226 92.0748 125.26 90.8568 125.26C89.6388 125.26 88.6868 126.226 88.6868 127.85C88.6868 129.474 89.6388 130.454 90.8568 130.454ZM95.1262 127.85C95.1262 125.596 96.4142 124 98.4162 124C99.4102 124 100.278 124.504 100.796 125.414V121.508H102.21V131.56H100.894V130.23C100.362 131.168 99.4662 131.7 98.4162 131.7C96.4142 131.7 95.1262 130.076 95.1262 127.85ZM96.5962 127.85C96.5962 129.502 97.4642 130.44 98.6962 130.44C99.9002 130.44 100.796 129.46 100.796 127.822C100.796 126.156 99.8722 125.246 98.6962 125.246C97.4642 125.246 96.5962 126.17 96.5962 127.85ZM108.53 128.508V124.14H109.944V131.56H108.628V130.384C108.236 131.154 107.368 131.7 106.36 131.7C104.862 131.7 103.826 130.818 103.826 128.914V124.14H105.24V128.634C105.24 129.922 105.884 130.454 106.808 130.454C107.76 130.454 108.53 129.67 108.53 128.508ZM114.554 131.714C112.524 131.714 111.096 130.118 111.096 127.85C111.096 125.61 112.552 124 114.554 124C116.388 124 117.718 125.218 117.984 127.15H116.5C116.346 125.96 115.604 125.246 114.568 125.246C113.35 125.246 112.552 126.282 112.552 127.85C112.552 129.432 113.35 130.454 114.568 130.454C115.618 130.454 116.346 129.754 116.514 128.55H117.984C117.732 130.51 116.416 131.714 114.554 131.714ZM123.313 130.188V131.434C122.879 131.63 122.501 131.7 122.053 131.7C120.681 131.7 119.729 130.958 119.729 129.32V125.344H118.091V124.14H119.729V121.942H121.143V124.14H123.383V125.344H121.143V128.998C121.143 130.02 121.633 130.384 122.389 130.384C122.725 130.384 123.019 130.328 123.313 130.188ZM130.388 131.56H127.21V121.508H130.388C133.594 121.508 135.442 123.552 135.442 126.492C135.442 129.39 133.524 131.56 130.388 131.56ZM128.75 122.838V130.23H130.318C132.628 130.23 133.874 128.802 133.874 126.492C133.874 124.224 132.642 122.838 130.318 122.838H128.75ZM139.714 131.7C137.572 131.7 136.13 130.146 136.13 127.808C136.13 125.61 137.628 124 139.672 124C141.884 124 143.354 125.792 143.102 128.2H137.572C137.684 129.712 138.44 130.594 139.686 130.594C140.736 130.594 141.464 130.02 141.702 129.054H143.102C142.738 130.706 141.464 131.7 139.714 131.7ZM139.644 125.064C138.51 125.064 137.74 125.876 137.586 127.262H141.604C141.534 125.89 140.792 125.064 139.644 125.064ZM150.205 129.348C150.205 130.804 149.071 131.7 147.097 131.7C145.137 131.7 143.975 130.734 143.835 129.138H145.193C145.249 130.062 145.991 130.636 147.125 130.636C148.119 130.636 148.777 130.286 148.777 129.586C148.777 128.97 148.399 128.704 147.475 128.522L146.271 128.298C144.899 128.032 144.129 127.332 144.129 126.212C144.129 124.91 145.263 124 146.985 124C148.763 124 149.967 124.952 150.093 126.478H148.735C148.651 125.582 147.993 125.064 146.999 125.064C146.103 125.064 145.501 125.442 145.501 126.086C145.501 126.688 145.879 126.968 146.775 127.136L148.035 127.374C149.505 127.64 150.205 128.284 150.205 129.348ZM153.191 122.418C153.191 122.95 152.771 123.356 152.169 123.356C151.567 123.356 151.133 122.95 151.133 122.418C151.133 121.872 151.567 121.48 152.169 121.48C152.771 121.48 153.191 121.872 153.191 122.418ZM152.883 131.56H151.469V124.14H152.883V131.56ZM157.534 134.416C155.588 134.416 154.328 133.38 154.244 131.7H155.616C155.7 132.736 156.372 133.296 157.52 133.296C158.794 133.296 159.466 132.61 159.466 131.336V129.992C159.046 130.888 158.206 131.406 157.198 131.406C155.35 131.406 154.034 129.88 154.034 127.696C154.034 125.484 155.294 124 157.156 124C158.22 124 159.06 124.518 159.564 125.456V124.14H160.88V131.308C160.88 133.254 159.634 134.416 157.534 134.416ZM155.462 127.696C155.462 129.236 156.218 130.174 157.45 130.174C158.654 130.174 159.466 129.208 159.466 127.738C159.466 126.198 158.668 125.218 157.45 125.218C156.232 125.218 155.462 126.17 155.462 127.696ZM163.971 127.374V131.56H162.557V124.14H163.873V125.372C164.377 124.546 165.217 124 166.239 124C167.765 124 168.773 124.98 168.773 126.758V131.56H167.359V127.234C167.359 125.96 166.799 125.246 165.749 125.246C164.783 125.246 163.971 126.058 163.971 127.374Z" fill="#1A1A1A"/>
<path d="M65.247 5.56852C70.2041 -0.778318 79.3429 -1.8697 85.6454 3.17302C85.6511 3.17756 85.6573 3.18213 85.663 3.18669C87.611 4.75433 89.0479 6.71926 89.9569 8.87126C92.6206 6.79632 95.9709 5.56952 99.5693 5.5695L99.9657 5.57438C102.885 5.64766 105.628 6.52774 107.958 8.00895C109.433 7.06904 111.073 6.37036 112.82 5.96696C114.085 3.21512 116.865 1.30405 120.092 1.30388H123.925C124.351 1.30388 124.769 1.33831 125.178 1.40251C125.586 1.33818 126.005 1.30388 126.432 1.30388H130.248C132.374 1.30388 134.414 2.15024 135.915 3.65641C136.761 4.50505 137.396 5.52397 137.789 6.632C139.5 5.95054 141.407 5.5695 143.477 5.5695H143.978C145.237 5.5695 146.427 5.85962 147.486 6.37712C149.057 5.85191 150.735 5.5695 152.47 5.5695L152.866 5.57438C155.722 5.64577 158.41 6.4858 160.71 7.90349C162.982 6.43979 165.738 5.5695 168.868 5.5695L169.296 5.57438C178.226 5.80272 184 13.1684 184 21.0246V28.0666C184 32.4849 180.418 36.0666 176 36.0666H172.184C171 36.0666 169.879 35.8068 168.868 35.3459C167.858 35.8068 166.736 36.0666 165.553 36.0666H161.736C160.538 36.0666 159.402 35.8013 158.382 35.3293C156.551 36.0716 154.553 36.4796 152.47 36.4797C149.733 36.4797 147.139 35.7729 144.88 34.5256C143.557 35.4935 141.927 36.0666 140.162 36.0666H136.602C135.805 36.3331 134.952 36.4796 134.065 36.4797H133.563C131.32 36.4796 129.272 36.0338 127.456 35.2453C126.391 35.7702 125.192 36.0666 123.925 36.0666H120.351C120.127 36.0666 119.906 36.0543 119.687 36.0363C118.618 36.3251 117.5 36.4797 116.356 36.4797C114.288 36.4797 112.302 36.0723 110.48 35.3332C109.463 35.802 108.331 36.0666 107.138 36.0666H103.564C103.339 36.0666 103.116 36.0545 102.895 36.0363C101.829 36.3253 100.713 36.4797 99.5693 36.4797C95.5538 36.4796 91.8584 34.9584 89.0761 32.4425L86.1112 36.3175C86.0465 36.4022 85.9791 36.4847 85.911 36.5666C80.9422 42.7785 71.8705 43.8539 65.6054 38.8117L65.3163 38.5734C61.515 35.3533 59.7704 30.5854 60.2109 25.9494C57.3967 21.9377 57.1014 16.2168 60.4286 11.8566L60.4345 11.8478L65.1415 5.69841L65.247 5.56852ZM152.485 21.5666C152.54 21.5613 152.625 21.5316 152.696 21.4621C152.734 21.4248 152.778 21.3683 152.812 21.2873C152.842 21.2177 152.857 21.143 152.863 21.0744H152.485V21.5666ZM152.485 21.0451L152.865 21.048C152.865 21.0447 152.866 21.0415 152.866 21.0383L152.868 21.0246C152.868 20.9434 152.85 20.8488 152.812 20.7619C152.778 20.6809 152.734 20.6244 152.696 20.5871C152.625 20.5175 152.54 20.4869 152.485 20.4816V21.0451ZM63.5116 10.4172C63.5113 10.4389 63.5108 10.4605 63.5107 10.4816V10.5177L63.5146 10.2824C63.5131 10.3286 63.5123 10.3738 63.5116 10.4172Z" fill="#E6E2DE"/>
<path d="M103.467 21.0244C103.467 18.8589 101.753 17.1231 99.6502 17.1231C97.5477 17.1231 95.8335 18.8754 95.8335 21.0244C95.8335 23.1734 97.5477 24.9257 99.6502 24.9257C101.753 24.9422 103.467 23.19 103.467 21.0244ZM107.138 21.0244V28.0666H103.564V26.3143C102.658 27.6698 101.17 28.4799 99.5693 28.4799C95.3807 28.4799 92.0006 25.1406 92.0006 21.0244C92.0006 16.9082 95.3968 13.569 99.5693 13.569C103.742 13.569 107.138 16.9082 107.138 21.0244Z" fill="#1A1A1A"/>
<path d="M116.437 24.9254C118.556 24.9254 120.254 23.1731 120.254 21.0241C120.254 18.875 118.556 17.1228 116.437 17.1228C114.319 17.1228 112.62 18.875 112.62 21.0241C112.604 23.1731 114.319 24.9254 116.437 24.9254C116.437 24.9419 116.437 24.9419 116.437 24.9254ZM123.925 9.30364V28.0662H120.351V26.3966C119.413 27.7026 117.925 28.4795 116.356 28.4795C112.184 28.4795 108.788 25.1403 108.788 21.0241C108.788 16.9079 112.184 13.5686 116.324 13.5686C117.715 13.5686 119.041 14.0811 120.092 15.0068V9.30364H123.925Z" fill="#1A1A1A"/>
<path d="M130.232 13.9984H134.049V17.3377H130.232V21.0406C130.232 23.1896 131.93 24.9419 134.049 24.9419C134.049 24.9419 134.049 24.9419 134.065 24.9419V28.4795H133.564C129.327 28.4795 126.432 25.1403 126.432 21.0241V9.30364H130.248L130.232 13.9984Z" fill="#1A1A1A"/>
<path d="M143.477 13.569H143.979V17.1066C141.876 17.1066 140.162 18.8423 140.162 21.0079C140.162 21.0079 140.162 21.0079 140.162 21.0244V28.0666H136.345V21.0244C136.345 16.9082 139.256 13.569 143.477 13.569Z" fill="#1A1A1A"/>
<path d="M152.469 17.1231C150.351 17.09 148.62 18.8258 148.604 20.9748C148.572 23.1404 150.27 24.9092 152.372 24.9257C154.491 24.9588 156.221 23.223 156.237 21.074C156.237 21.0575 156.237 21.0409 156.237 21.0244C156.253 18.8919 154.572 17.1396 152.485 17.1231C152.485 17.1231 152.485 17.1231 152.469 17.1231ZM152.469 28.4799C148.264 28.4799 144.868 25.1406 144.868 21.0244C144.868 16.9082 148.264 13.569 152.469 13.569C156.674 13.569 160.07 16.9082 160.07 21.0244C160.07 25.1406 156.69 28.4799 152.469 28.4799Z" fill="#1A1A1A"/>
<path d="M176 21.0244V28.0666H172.183V21.0244C172.183 18.8589 170.987 17.1231 168.868 17.1231C166.749 17.1231 165.553 18.8754 165.553 21.0244V28.0666H161.736V21.0244C161.736 16.9082 164.647 13.569 168.868 13.569C173.089 13.569 176 16.9082 176 21.0244Z" fill="#1A1A1A"/>
<path fill-rule="evenodd" clip-rule="evenodd" d="M81.3916 19.1892L74.3889 28.3641V22.8098L69.8606 22.8094L69.5211 23.2558C67.3216 26.1487 67.8067 30.3145 70.6208 32.579C73.4347 34.844 77.5264 34.348 79.7419 31.4715L79.7581 31.4551L84.4643 25.3058C86.3565 22.8094 84.6261 19.1892 81.5533 19.1892H81.3916Z" fill="#1A1A1A"/>
<path fill-rule="evenodd" clip-rule="evenodd" d="M80.6476 9.41955C77.8175 7.155 73.7258 7.65059 71.5102 10.5438C71.5102 10.5438 71.5102 10.5602 71.4941 10.5602L66.7879 16.7096C64.8957 19.1892 66.6261 22.8098 69.6989 22.8098L69.8445 22.8094L76.8633 13.6349V19.1892H81.3916L81.7311 18.7431C83.9468 15.8499 83.4617 11.6841 80.6476 9.41955Z" fill="#1A1A1A"/>
</svg>
