<svg width="242" height="240" viewBox="0 0 242 240" fill="none" xmlns="http://www.w3.org/2000/svg">
<path d="M230 80H12C5.37258 80 0 85.3726 0 92V228C0 234.627 5.37258 240 12 240H230C236.627 240 242 234.627 242 228V92C242 85.3726 236.627 80 230 80Z" fill="#E6E2DE"/>
<path d="M104.069 154.56L103.205 152.096H98.7406L97.8606 154.56H95.4126L99.7326 143.072H102.389L106.677 154.56H104.069ZM100.997 145.728L99.4286 150.16H102.533L100.997 145.728ZM106.68 150.288C106.68 147.76 108.168 145.856 110.472 145.856C111.496 145.856 112.36 146.304 113 147.12V143.072H115.208V154.56H113.176V153.328C112.504 154.224 111.576 154.72 110.472 154.72C108.168 154.72 106.68 152.784 106.68 150.288ZM108.968 150.288C108.968 151.888 109.88 152.736 110.968 152.736C112.072 152.736 112.984 151.872 112.984 150.256C112.984 148.64 112.056 147.824 110.968 147.824C109.88 147.824 108.968 148.656 108.968 150.288ZM122.345 152.4V154.336C121.801 154.608 121.289 154.72 120.633 154.72C118.873 154.72 117.769 153.712 117.769 151.792V147.92H116.041V146.016H117.769V143.488H119.977V146.016H122.425V147.92H119.977V151.28C119.977 152.272 120.425 152.672 121.225 152.672C121.641 152.672 122.025 152.576 122.345 152.4ZM125.847 150.416V154.56H123.623V146.016H125.671V147.664C126.295 146.576 127.623 145.92 128.999 145.92V148.224C127.111 148.08 125.847 148.528 125.847 150.416ZM133.708 154.72C131.228 154.72 129.372 152.768 129.372 150.288C129.372 147.792 131.228 145.856 133.708 145.856C136.188 145.856 138.044 147.792 138.044 150.288C138.044 152.768 136.188 154.72 133.708 154.72ZM133.708 152.752C134.812 152.752 135.756 151.872 135.756 150.288C135.756 148.704 134.812 147.84 133.708 147.84C132.604 147.84 131.66 148.704 131.66 150.288C131.66 151.872 132.604 152.752 133.708 152.752ZM141.527 149.904V154.56H139.303V146.016H141.351V147.232C141.975 146.384 142.855 145.856 143.975 145.856C145.687 145.856 146.871 146.976 146.871 149.04V154.56H144.663V149.792C144.663 148.528 144.167 147.824 143.159 147.824C142.279 147.824 141.527 148.528 141.527 149.904Z" fill="#1A1A1A"/>
<path d="M79.8399 174.56L77.7119 166.678L75.5699 174.56H73.9879L71.3699 164.508H72.8819L74.8139 172.25L76.9279 164.508H78.5239L80.6099 172.264L82.5419 164.508H84.0539L81.4359 174.56H79.8399ZM87.461 174.7C85.319 174.7 83.877 173.146 83.877 170.808C83.877 168.61 85.375 167 87.419 167C89.631 167 91.101 168.792 90.849 171.2H85.319C85.431 172.712 86.187 173.594 87.433 173.594C88.483 173.594 89.211 173.02 89.449 172.054H90.849C90.485 173.706 89.211 174.7 87.461 174.7ZM87.391 168.064C86.257 168.064 85.487 168.876 85.333 170.262H89.351C89.281 168.89 88.539 168.064 87.391 168.064ZM99.1564 170.85C99.1564 173.076 97.8684 174.7 95.8664 174.7C94.8164 174.7 93.9204 174.168 93.3884 173.23V174.56H92.0724V164.508H93.4864V168.414C94.0044 167.504 94.8584 167 95.8664 167C97.8544 167 99.1564 168.596 99.1564 170.85ZM97.6864 170.85C97.6864 169.17 96.8044 168.246 95.5864 168.246C94.4104 168.246 93.4864 169.156 93.4864 170.822C93.4864 172.46 94.3824 173.44 95.5864 173.44C96.8044 173.44 97.6864 172.502 97.6864 170.85ZM106.19 172.348C106.19 173.804 105.056 174.7 103.082 174.7C101.122 174.7 99.96 173.734 99.82 172.138H101.178C101.234 173.062 101.976 173.636 103.11 173.636C104.104 173.636 104.762 173.286 104.762 172.586C104.762 171.97 104.384 171.704 103.46 171.522L102.256 171.298C100.884 171.032 100.114 170.332 100.114 169.212C100.114 167.91 101.248 167 102.97 167C104.748 167 105.952 167.952 106.078 169.478H104.72C104.636 168.582 103.978 168.064 102.984 168.064C102.088 168.064 101.486 168.442 101.486 169.086C101.486 169.688 101.864 169.968 102.76 170.136L104.02 170.374C105.49 170.64 106.19 171.284 106.19 172.348ZM109.176 165.418C109.176 165.95 108.756 166.356 108.154 166.356C107.552 166.356 107.118 165.95 107.118 165.418C107.118 164.872 107.552 164.48 108.154 164.48C108.756 164.48 109.176 164.872 109.176 165.418ZM108.868 174.56H107.454V167.14H108.868V174.56ZM114.737 173.188V174.434C114.303 174.63 113.925 174.7 113.477 174.7C112.105 174.7 111.153 173.958 111.153 172.32V168.344H109.515V167.14H111.153V164.942H112.567V167.14H114.807V168.344H112.567V171.998C112.567 173.02 113.057 173.384 113.813 173.384C114.149 173.384 114.443 173.328 114.737 173.188ZM118.723 174.7C116.581 174.7 115.139 173.146 115.139 170.808C115.139 168.61 116.637 167 118.681 167C120.893 167 122.363 168.792 122.111 171.2H116.581C116.693 172.712 117.449 173.594 118.695 173.594C119.745 173.594 120.473 173.02 120.711 172.054H122.111C121.747 173.706 120.473 174.7 118.723 174.7ZM118.653 168.064C117.519 168.064 116.749 168.876 116.595 170.262H120.613C120.543 168.89 119.801 168.064 118.653 168.064ZM129.27 174.56H126.092V164.508H129.27C132.476 164.508 134.324 166.552 134.324 169.492C134.324 172.39 132.406 174.56 129.27 174.56ZM127.632 165.838V173.23H129.2C131.51 173.23 132.756 171.802 132.756 169.492C132.756 167.224 131.524 165.838 129.2 165.838H127.632ZM138.596 174.7C136.454 174.7 135.012 173.146 135.012 170.808C135.012 168.61 136.51 167 138.554 167C140.766 167 142.236 168.792 141.984 171.2H136.454C136.566 172.712 137.322 173.594 138.568 173.594C139.618 173.594 140.346 173.02 140.584 172.054H141.984C141.62 173.706 140.346 174.7 138.596 174.7ZM138.526 168.064C137.392 168.064 136.622 168.876 136.468 170.262H140.486C140.416 168.89 139.674 168.064 138.526 168.064ZM149.087 172.348C149.087 173.804 147.953 174.7 145.979 174.7C144.019 174.7 142.857 173.734 142.717 172.138H144.075C144.131 173.062 144.873 173.636 146.007 173.636C147.001 173.636 147.659 173.286 147.659 172.586C147.659 171.97 147.281 171.704 146.357 171.522L145.153 171.298C143.781 171.032 143.011 170.332 143.011 169.212C143.011 167.91 144.145 167 145.867 167C147.645 167 148.849 167.952 148.975 169.478H147.617C147.533 168.582 146.875 168.064 145.881 168.064C144.985 168.064 144.383 168.442 144.383 169.086C144.383 169.688 144.761 169.968 145.657 170.136L146.917 170.374C148.387 170.64 149.087 171.284 149.087 172.348ZM152.073 165.418C152.073 165.95 151.653 166.356 151.051 166.356C150.449 166.356 150.015 165.95 150.015 165.418C150.015 164.872 150.449 164.48 151.051 164.48C151.653 164.48 152.073 164.872 152.073 165.418ZM151.765 174.56H150.351V167.14H151.765V174.56ZM156.416 177.416C154.47 177.416 153.21 176.38 153.126 174.7H154.498C154.582 175.736 155.254 176.296 156.402 176.296C157.676 176.296 158.348 175.61 158.348 174.336V172.992C157.928 173.888 157.088 174.406 156.08 174.406C154.232 174.406 152.916 172.88 152.916 170.696C152.916 168.484 154.176 167 156.038 167C157.102 167 157.942 167.518 158.446 168.456V167.14H159.762V174.308C159.762 176.254 158.516 177.416 156.416 177.416ZM154.344 170.696C154.344 172.236 155.1 173.174 156.332 173.174C157.536 173.174 158.348 172.208 158.348 170.738C158.348 169.198 157.55 168.218 156.332 168.218C155.114 168.218 154.344 169.17 154.344 170.696ZM162.854 170.374V174.56H161.44V167.14H162.756V168.372C163.26 167.546 164.1 167 165.122 167C166.648 167 167.656 167.98 167.656 169.758V174.56H166.242V170.234C166.242 168.96 165.682 168.246 164.632 168.246C163.666 168.246 162.854 169.058 162.854 170.374ZM171.171 173.958C171.171 175.288 170.121 176.324 168.581 176.352V175.554C169.491 175.526 170.107 175.036 170.191 174.35C170.065 174.392 169.981 174.406 169.883 174.406C169.351 174.406 168.959 173.972 168.959 173.454C168.959 172.852 169.407 172.46 169.981 172.46C170.751 172.46 171.171 173.02 171.171 173.958ZM77.9068 188.06H75.9608V191.56H74.4208V181.508H77.9068C80.1608 181.508 81.6168 182.656 81.6168 184.756C81.6168 186.87 80.1608 188.06 77.9068 188.06ZM77.8928 182.81H75.9608V186.758H77.8928C79.2508 186.758 80.0768 186.016 80.0768 184.77C80.0768 183.524 79.2508 182.81 77.8928 182.81ZM84.1791 187.766V191.56H82.7651V184.14H84.0811V185.708C84.5991 184.686 85.7191 184.042 86.9371 184.042V185.512C85.3411 185.428 84.1791 186.128 84.1791 187.766ZM90.8568 191.7C88.7568 191.7 87.2168 190.048 87.2168 187.85C87.2168 185.652 88.7568 184 90.8568 184C92.9568 184 94.4968 185.652 94.4968 187.85C94.4968 190.048 92.9568 191.7 90.8568 191.7ZM90.8568 190.454C92.0748 190.454 93.0408 189.474 93.0408 187.85C93.0408 186.226 92.0748 185.26 90.8568 185.26C89.6388 185.26 88.6868 186.226 88.6868 187.85C88.6868 189.474 89.6388 190.454 90.8568 190.454ZM95.1262 187.85C95.1262 185.596 96.4142 184 98.4162 184C99.4102 184 100.278 184.504 100.796 185.414V181.508H102.21V191.56H100.894V190.23C100.362 191.168 99.4662 191.7 98.4162 191.7C96.4142 191.7 95.1262 190.076 95.1262 187.85ZM96.5962 187.85C96.5962 189.502 97.4642 190.44 98.6962 190.44C99.9002 190.44 100.796 189.46 100.796 187.822C100.796 186.156 99.8722 185.246 98.6962 185.246C97.4642 185.246 96.5962 186.17 96.5962 187.85ZM108.53 188.508V184.14H109.944V191.56H108.628V190.384C108.236 191.154 107.368 191.7 106.36 191.7C104.862 191.7 103.826 190.818 103.826 188.914V184.14H105.24V188.634C105.24 189.922 105.884 190.454 106.808 190.454C107.76 190.454 108.53 189.67 108.53 188.508ZM114.554 191.714C112.524 191.714 111.096 190.118 111.096 187.85C111.096 185.61 112.552 184 114.554 184C116.388 184 117.718 185.218 117.984 187.15H116.5C116.346 185.96 115.604 185.246 114.568 185.246C113.35 185.246 112.552 186.282 112.552 187.85C112.552 189.432 113.35 190.454 114.568 190.454C115.618 190.454 116.346 189.754 116.514 188.55H117.984C117.732 190.51 116.416 191.714 114.554 191.714ZM123.313 190.188V191.434C122.879 191.63 122.501 191.7 122.053 191.7C120.681 191.7 119.729 190.958 119.729 189.32V185.344H118.091V184.14H119.729V181.942H121.143V184.14H123.383V185.344H121.143V188.998C121.143 190.02 121.633 190.384 122.389 190.384C122.725 190.384 123.019 190.328 123.313 190.188ZM130.388 191.56H127.21V181.508H130.388C133.594 181.508 135.442 183.552 135.442 186.492C135.442 189.39 133.524 191.56 130.388 191.56ZM128.75 182.838V190.23H130.318C132.628 190.23 133.874 188.802 133.874 186.492C133.874 184.224 132.642 182.838 130.318 182.838H128.75ZM139.714 191.7C137.572 191.7 136.13 190.146 136.13 187.808C136.13 185.61 137.628 184 139.672 184C141.884 184 143.354 185.792 143.102 188.2H137.572C137.684 189.712 138.44 190.594 139.686 190.594C140.736 190.594 141.464 190.02 141.702 189.054H143.102C142.738 190.706 141.464 191.7 139.714 191.7ZM139.644 185.064C138.51 185.064 137.74 185.876 137.586 187.262H141.604C141.534 185.89 140.792 185.064 139.644 185.064ZM150.205 189.348C150.205 190.804 149.071 191.7 147.097 191.7C145.137 191.7 143.975 190.734 143.835 189.138H145.193C145.249 190.062 145.991 190.636 147.125 190.636C148.119 190.636 148.777 190.286 148.777 189.586C148.777 188.97 148.399 188.704 147.475 188.522L146.271 188.298C144.899 188.032 144.129 187.332 144.129 186.212C144.129 184.91 145.263 184 146.985 184C148.763 184 149.967 184.952 150.093 186.478H148.735C148.651 185.582 147.993 185.064 146.999 185.064C146.103 185.064 145.501 185.442 145.501 186.086C145.501 186.688 145.879 186.968 146.775 187.136L148.035 187.374C149.505 187.64 150.205 188.284 150.205 189.348ZM153.191 182.418C153.191 182.95 152.771 183.356 152.169 183.356C151.567 183.356 151.133 182.95 151.133 182.418C151.133 181.872 151.567 181.48 152.169 181.48C152.771 181.48 153.191 181.872 153.191 182.418ZM152.883 191.56H151.469V184.14H152.883V191.56ZM157.534 194.416C155.588 194.416 154.328 193.38 154.244 191.7H155.616C155.7 192.736 156.372 193.296 157.52 193.296C158.794 193.296 159.466 192.61 159.466 191.336V189.992C159.046 190.888 158.206 191.406 157.198 191.406C155.35 191.406 154.034 189.88 154.034 187.696C154.034 185.484 155.294 184 157.156 184C158.22 184 159.06 184.518 159.564 185.456V184.14H160.88V191.308C160.88 193.254 159.634 194.416 157.534 194.416ZM155.462 187.696C155.462 189.236 156.218 190.174 157.45 190.174C158.654 190.174 159.466 189.208 159.466 187.738C159.466 186.198 158.668 185.218 157.45 185.218C156.232 185.218 155.462 186.17 155.462 187.696ZM163.971 187.374V191.56H162.557V184.14H163.873V185.372C164.377 184.546 165.217 184 166.239 184C167.765 184 168.773 184.98 168.773 186.758V191.56H167.359V187.234C167.359 185.96 166.799 185.246 165.749 185.246C164.783 185.246 163.971 186.058 163.971 187.374Z" fill="#1A1A1A"/>
<path d="M65.247 65.5685C70.2041 59.2217 79.3429 58.1303 85.6454 63.173C85.6511 63.1776 85.6573 63.1821 85.663 63.1867C87.611 64.7543 89.0479 66.7193 89.9569 68.8713C92.6206 66.7963 95.9709 65.5695 99.5693 65.5695L99.9657 65.5744C102.885 65.6477 105.628 66.5277 107.958 68.009C109.433 67.069 111.073 66.3704 112.82 65.967C114.085 63.2151 116.865 61.3041 120.092 61.3039H123.925C124.351 61.3039 124.769 61.3383 125.178 61.4025C125.586 61.3382 126.005 61.3039 126.432 61.3039H130.248C132.374 61.3039 134.414 62.1502 135.915 63.6564C136.761 64.5051 137.396 65.524 137.789 66.632C139.5 65.9505 141.407 65.5695 143.477 65.5695H143.978C145.237 65.5695 146.427 65.8596 147.486 66.3771C149.057 65.8519 150.735 65.5695 152.47 65.5695L152.866 65.5744C155.722 65.6458 158.41 66.4858 160.71 67.9035C162.982 66.4398 165.738 65.5695 168.868 65.5695L169.296 65.5744C178.226 65.8027 184 73.1684 184 81.0246V88.0666C184 92.4849 180.418 96.0666 176 96.0666H172.184C171 96.0666 169.879 95.8068 168.868 95.3459C167.858 95.8068 166.736 96.0666 165.553 96.0666H161.736C160.538 96.0666 159.402 95.8013 158.382 95.3293C156.551 96.0716 154.553 96.4796 152.47 96.4797C149.733 96.4797 147.139 95.7729 144.88 94.5256C143.557 95.4935 141.927 96.0666 140.162 96.0666H136.602C135.805 96.3331 134.952 96.4796 134.065 96.4797H133.563C131.32 96.4796 129.272 96.0338 127.456 95.2453C126.391 95.7702 125.192 96.0666 123.925 96.0666H120.351C120.127 96.0666 119.906 96.0543 119.687 96.0363C118.618 96.3251 117.5 96.4797 116.356 96.4797C114.288 96.4797 112.302 96.0723 110.48 95.3332C109.463 95.802 108.331 96.0666 107.138 96.0666H103.564C103.339 96.0666 103.116 96.0545 102.895 96.0363C101.829 96.3253 100.713 96.4797 99.5693 96.4797C95.5538 96.4796 91.8584 94.9584 89.0761 92.4425L86.1112 96.3175C86.0465 96.4022 85.9791 96.4847 85.911 96.5666C80.9422 102.779 71.8705 103.854 65.6054 98.8117L65.3163 98.5734C61.515 95.3533 59.7704 90.5854 60.2109 85.9494C57.3967 81.9377 57.1014 76.2168 60.4286 71.8566L60.4345 71.8478L65.1415 65.6984L65.247 65.5685ZM152.485 81.5666C152.54 81.5613 152.625 81.5316 152.696 81.4621C152.734 81.4248 152.778 81.3683 152.812 81.2873C152.842 81.2177 152.857 81.143 152.863 81.0744H152.485V81.5666ZM152.485 81.0451L152.865 81.048C152.865 81.0447 152.866 81.0415 152.866 81.0383L152.868 81.0246C152.868 80.9434 152.85 80.8488 152.812 80.7619C152.778 80.6809 152.734 80.6244 152.696 80.5871C152.625 80.5175 152.54 80.4869 152.485 80.4816V81.0451ZM63.5116 70.4172C63.5113 70.4389 63.5108 70.4605 63.5107 70.4816V70.5177L63.5146 70.2824C63.5131 70.3286 63.5123 70.3738 63.5116 70.4172Z" fill="#E6E2DE"/>
<path d="M103.467 81.0238C103.467 78.8583 101.753 77.1225 99.6501 77.1225C97.5476 77.1225 95.8334 78.8748 95.8334 81.0238C95.8334 83.1728 97.5476 84.9251 99.6501 84.9251C101.753 84.9416 103.467 83.1894 103.467 81.0238ZM107.138 81.0238V88.066H103.564V86.3137C102.658 87.6692 101.17 88.4793 99.5692 88.4793C95.3806 88.4793 92.0005 85.14 92.0005 81.0238C92.0005 76.9076 95.3967 73.5684 99.5692 73.5684C103.742 73.5684 107.138 76.9076 107.138 81.0238Z" fill="#1A1A1A"/>
<path d="M116.437 84.9245C118.556 84.9245 120.254 83.1722 120.254 81.0232C120.254 78.8741 118.556 77.1219 116.437 77.1219C114.319 77.1219 112.62 78.8741 112.62 81.0232C112.604 83.1722 114.319 84.9245 116.437 84.9245C116.437 84.941 116.437 84.941 116.437 84.9245ZM123.925 69.3027V88.0653H120.351V86.3957C119.413 87.7017 117.925 88.4786 116.356 88.4786C112.184 88.4786 108.788 85.1394 108.788 81.0232C108.788 76.907 112.184 73.5677 116.324 73.5677C117.715 73.5677 119.041 74.0802 120.092 75.0059V69.3027H123.925Z" fill="#1A1A1A"/>
<path d="M130.232 73.9975H134.049V77.3368H130.232V81.0397C130.232 83.1887 131.93 84.941 134.049 84.941C134.049 84.941 134.049 84.941 134.065 84.941V88.4786H133.564C129.327 88.4786 126.432 85.1394 126.432 81.0232V69.3027H130.248L130.232 73.9975Z" fill="#1A1A1A"/>
<path d="M143.477 73.5684H143.979V77.106C141.876 77.106 140.162 78.8417 140.162 81.0073C140.162 81.0073 140.162 81.0073 140.162 81.0238V88.066H136.345V81.0238C136.345 76.9076 139.256 73.5684 143.477 73.5684Z" fill="#1A1A1A"/>
<path d="M152.469 77.1225C150.351 77.0894 148.62 78.8252 148.604 80.9742C148.572 83.1398 150.27 84.9086 152.372 84.9251C154.491 84.9582 156.221 83.2224 156.237 81.0734C156.237 81.0569 156.237 81.0403 156.237 81.0238C156.253 78.8913 154.572 77.139 152.485 77.1225C152.485 77.1225 152.485 77.1225 152.469 77.1225ZM152.469 88.4793C148.264 88.4793 144.868 85.14 144.868 81.0238C144.868 76.9076 148.264 73.5684 152.469 73.5684C156.674 73.5684 160.07 76.9076 160.07 81.0238C160.07 85.14 156.69 88.4793 152.469 88.4793Z" fill="#1A1A1A"/>
<path d="M176 81.0238V88.066H172.183V81.0238C172.183 78.8583 170.987 77.1225 168.868 77.1225C166.749 77.1225 165.553 78.8748 165.553 81.0238V88.066H161.736V81.0238C161.736 76.9076 164.647 73.5684 168.868 73.5684C173.089 73.5684 176 76.9076 176 81.0238Z" fill="#1A1A1A"/>
<path fill-rule="evenodd" clip-rule="evenodd" d="M81.3916 79.1895L74.3889 88.3644V82.8101L69.8606 82.8097L69.5211 83.2561C67.3216 86.149 67.8067 90.3148 70.6208 92.5793C73.4347 94.8443 77.5264 94.3483 79.7419 91.4718L79.7581 91.4554L84.4643 85.3061C86.3565 82.8097 84.6261 79.1895 81.5533 79.1895H81.3916Z" fill="#1A1A1A"/>
<path fill-rule="evenodd" clip-rule="evenodd" d="M80.6476 69.4196C77.8175 67.155 73.7258 67.6506 71.5102 70.5438C71.5102 70.5438 71.5102 70.5602 71.4941 70.5602L66.7879 76.7096C64.8957 79.1892 66.6261 82.8098 69.6989 82.8098L69.8445 82.8094L76.8633 73.6349V79.1892H81.3916L81.7311 78.7431C83.9468 75.8499 83.4617 71.6841 80.6476 69.4196Z" fill="#1A1A1A"/>
</svg>
