<svg width="242" height="180" viewBox="0 0 242 180" fill="none" xmlns="http://www.w3.org/2000/svg">
<rect y="20.0005" width="242" height="160" rx="12" fill="#E6E2DE"/>
<path d="M104.069 94.5601L103.205 92.0961H98.7407L97.8607 94.5601H95.4127L99.7327 83.0721H102.389L106.677 94.5601H104.069ZM100.997 85.7281L99.4287 90.1601H102.533L100.997 85.7281ZM106.68 90.2881C106.68 87.7601 108.168 85.8561 110.472 85.8561C111.496 85.8561 112.36 86.3041 113 87.1201V83.0721H115.208V94.5601H113.176V93.3281C112.504 94.2241 111.576 94.7201 110.472 94.7201C108.168 94.7201 106.68 92.7841 106.68 90.2881ZM108.968 90.2881C108.968 91.8881 109.88 92.7361 110.968 92.7361C112.072 92.7361 112.984 91.8721 112.984 90.2561C112.984 88.6401 112.056 87.8241 110.968 87.8241C109.88 87.8241 108.968 88.6561 108.968 90.2881ZM122.345 92.4001V94.3361C121.801 94.6081 121.289 94.7201 120.633 94.7201C118.873 94.7201 117.769 93.7121 117.769 91.7921V87.9201H116.041V86.0161H117.769V83.4881H119.977V86.0161H122.425V87.9201H119.977V91.2801C119.977 92.2721 120.425 92.6721 121.225 92.6721C121.641 92.6721 122.025 92.5761 122.345 92.4001ZM125.847 90.4161V94.5601H123.623V86.0161H125.671V87.6641C126.295 86.5761 127.623 85.9201 128.999 85.9201V88.2241C127.111 88.0801 125.847 88.5281 125.847 90.4161ZM133.708 94.7201C131.228 94.7201 129.372 92.7681 129.372 90.2881C129.372 87.7921 131.228 85.8561 133.708 85.8561C136.188 85.8561 138.044 87.7921 138.044 90.2881C138.044 92.7681 136.188 94.7201 133.708 94.7201ZM133.708 92.7521C134.812 92.7521 135.756 91.8721 135.756 90.2881C135.756 88.7041 134.812 87.8401 133.708 87.8401C132.604 87.8401 131.66 88.7041 131.66 90.2881C131.66 91.8721 132.604 92.7521 133.708 92.7521ZM141.527 89.9041V94.5601H139.303V86.0161H141.351V87.2321C141.975 86.3841 142.855 85.8561 143.975 85.8561C145.687 85.8561 146.871 86.9761 146.871 89.0401V94.5601H144.663V89.7921C144.663 88.5281 144.167 87.8241 143.159 87.8241C142.279 87.8241 141.527 88.5281 141.527 89.9041Z" fill="#1A1A1A"/>
<path d="M79.8399 114.56L77.7119 106.678L75.5699 114.56H73.9879L71.3699 104.508H72.8819L74.8139 112.25L76.9279 104.508H78.5239L80.6099 112.264L82.5419 104.508H84.0539L81.4359 114.56H79.8399ZM87.461 114.7C85.319 114.7 83.877 113.146 83.877 110.808C83.877 108.61 85.375 107 87.419 107C89.631 107 91.101 108.792 90.849 111.2H85.319C85.431 112.712 86.187 113.594 87.433 113.594C88.483 113.594 89.211 113.02 89.449 112.054H90.849C90.485 113.706 89.211 114.7 87.461 114.7ZM87.391 108.064C86.257 108.064 85.487 108.876 85.333 110.262H89.351C89.281 108.89 88.539 108.064 87.391 108.064ZM99.1564 110.85C99.1564 113.076 97.8684 114.7 95.8664 114.7C94.8164 114.7 93.9204 114.168 93.3884 113.23V114.56H92.0724V104.508H93.4864V108.414C94.0044 107.504 94.8584 107 95.8664 107C97.8544 107 99.1564 108.596 99.1564 110.85ZM97.6864 110.85C97.6864 109.17 96.8044 108.246 95.5864 108.246C94.4104 108.246 93.4864 109.156 93.4864 110.822C93.4864 112.46 94.3824 113.44 95.5864 113.44C96.8044 113.44 97.6864 112.502 97.6864 110.85ZM106.19 112.348C106.19 113.804 105.056 114.7 103.082 114.7C101.122 114.7 99.96 113.734 99.82 112.138H101.178C101.234 113.062 101.976 113.636 103.11 113.636C104.104 113.636 104.762 113.286 104.762 112.586C104.762 111.97 104.384 111.704 103.46 111.522L102.256 111.298C100.884 111.032 100.114 110.332 100.114 109.212C100.114 107.91 101.248 107 102.97 107C104.748 107 105.952 107.952 106.078 109.478H104.72C104.636 108.582 103.978 108.064 102.984 108.064C102.088 108.064 101.486 108.442 101.486 109.086C101.486 109.688 101.864 109.968 102.76 110.136L104.02 110.374C105.49 110.64 106.19 111.284 106.19 112.348ZM109.176 105.418C109.176 105.95 108.756 106.356 108.154 106.356C107.552 106.356 107.118 105.95 107.118 105.418C107.118 104.872 107.552 104.48 108.154 104.48C108.756 104.48 109.176 104.872 109.176 105.418ZM108.868 114.56H107.454V107.14H108.868V114.56ZM114.737 113.188V114.434C114.303 114.63 113.925 114.7 113.477 114.7C112.105 114.7 111.153 113.958 111.153 112.32V108.344H109.515V107.14H111.153V104.942H112.567V107.14H114.807V108.344H112.567V111.998C112.567 113.02 113.057 113.384 113.813 113.384C114.149 113.384 114.443 113.328 114.737 113.188ZM118.723 114.7C116.581 114.7 115.139 113.146 115.139 110.808C115.139 108.61 116.637 107 118.681 107C120.893 107 122.363 108.792 122.111 111.2H116.581C116.693 112.712 117.449 113.594 118.695 113.594C119.745 113.594 120.473 113.02 120.711 112.054H122.111C121.747 113.706 120.473 114.7 118.723 114.7ZM118.653 108.064C117.519 108.064 116.749 108.876 116.595 110.262H120.613C120.543 108.89 119.801 108.064 118.653 108.064ZM129.27 114.56H126.092V104.508H129.27C132.476 104.508 134.324 106.552 134.324 109.492C134.324 112.39 132.406 114.56 129.27 114.56ZM127.632 105.838V113.23H129.2C131.51 113.23 132.756 111.802 132.756 109.492C132.756 107.224 131.524 105.838 129.2 105.838H127.632ZM138.596 114.7C136.454 114.7 135.012 113.146 135.012 110.808C135.012 108.61 136.51 107 138.554 107C140.766 107 142.236 108.792 141.984 111.2H136.454C136.566 112.712 137.322 113.594 138.568 113.594C139.618 113.594 140.346 113.02 140.584 112.054H141.984C141.62 113.706 140.346 114.7 138.596 114.7ZM138.526 108.064C137.392 108.064 136.622 108.876 136.468 110.262H140.486C140.416 108.89 139.674 108.064 138.526 108.064ZM149.087 112.348C149.087 113.804 147.953 114.7 145.979 114.7C144.019 114.7 142.857 113.734 142.717 112.138H144.075C144.131 113.062 144.873 113.636 146.007 113.636C147.001 113.636 147.659 113.286 147.659 112.586C147.659 111.97 147.281 111.704 146.357 111.522L145.153 111.298C143.781 111.032 143.011 110.332 143.011 109.212C143.011 107.91 144.145 107 145.867 107C147.645 107 148.849 107.952 148.975 109.478H147.617C147.533 108.582 146.875 108.064 145.881 108.064C144.985 108.064 144.383 108.442 144.383 109.086C144.383 109.688 144.761 109.968 145.657 110.136L146.917 110.374C148.387 110.64 149.087 111.284 149.087 112.348ZM152.073 105.418C152.073 105.95 151.653 106.356 151.051 106.356C150.449 106.356 150.015 105.95 150.015 105.418C150.015 104.872 150.449 104.48 151.051 104.48C151.653 104.48 152.073 104.872 152.073 105.418ZM151.765 114.56H150.351V107.14H151.765V114.56ZM156.416 117.416C154.47 117.416 153.21 116.38 153.126 114.7H154.498C154.582 115.736 155.254 116.296 156.402 116.296C157.676 116.296 158.348 115.61 158.348 114.336V112.992C157.928 113.888 157.088 114.406 156.08 114.406C154.232 114.406 152.916 112.88 152.916 110.696C152.916 108.484 154.176 107 156.038 107C157.102 107 157.942 107.518 158.446 108.456V107.14H159.762V114.308C159.762 116.254 158.516 117.416 156.416 117.416ZM154.344 110.696C154.344 112.236 155.1 113.174 156.332 113.174C157.536 113.174 158.348 112.208 158.348 110.738C158.348 109.198 157.55 108.218 156.332 108.218C155.114 108.218 154.344 109.17 154.344 110.696ZM162.854 110.374V114.56H161.44V107.14H162.756V108.372C163.26 107.546 164.1 107 165.122 107C166.648 107 167.656 107.98 167.656 109.758V114.56H166.242V110.234C166.242 108.96 165.682 108.246 164.632 108.246C163.666 108.246 162.854 109.058 162.854 110.374ZM171.171 113.958C171.171 115.288 170.121 116.324 168.581 116.352V115.554C169.491 115.526 170.107 115.036 170.191 114.35C170.065 114.392 169.981 114.406 169.883 114.406C169.351 114.406 168.959 113.972 168.959 113.454C168.959 112.852 169.407 112.46 169.981 112.46C170.751 112.46 171.171 113.02 171.171 113.958ZM77.9068 128.06H75.9608V131.56H74.4208V121.508H77.9068C80.1608 121.508 81.6168 122.656 81.6168 124.756C81.6168 126.87 80.1608 128.06 77.9068 128.06ZM77.8928 122.81H75.9608V126.758H77.8928C79.2508 126.758 80.0768 126.016 80.0768 124.77C80.0768 123.524 79.2508 122.81 77.8928 122.81ZM84.1791 127.766V131.56H82.7651V124.14H84.0811V125.708C84.5991 124.686 85.7191 124.042 86.9371 124.042V125.512C85.3411 125.428 84.1791 126.128 84.1791 127.766ZM90.8568 131.7C88.7568 131.7 87.2168 130.048 87.2168 127.85C87.2168 125.652 88.7568 124 90.8568 124C92.9568 124 94.4968 125.652 94.4968 127.85C94.4968 130.048 92.9568 131.7 90.8568 131.7ZM90.8568 130.454C92.0748 130.454 93.0408 129.474 93.0408 127.85C93.0408 126.226 92.0748 125.26 90.8568 125.26C89.6388 125.26 88.6868 126.226 88.6868 127.85C88.6868 129.474 89.6388 130.454 90.8568 130.454ZM95.1262 127.85C95.1262 125.596 96.4142 124 98.4162 124C99.4102 124 100.278 124.504 100.796 125.414V121.508H102.21V131.56H100.894V130.23C100.362 131.168 99.4662 131.7 98.4162 131.7C96.4142 131.7 95.1262 130.076 95.1262 127.85ZM96.5962 127.85C96.5962 129.502 97.4642 130.44 98.6962 130.44C99.9002 130.44 100.796 129.46 100.796 127.822C100.796 126.156 99.8722 125.246 98.6962 125.246C97.4642 125.246 96.5962 126.17 96.5962 127.85ZM108.53 128.508V124.14H109.944V131.56H108.628V130.384C108.236 131.154 107.368 131.7 106.36 131.7C104.862 131.7 103.826 130.818 103.826 128.914V124.14H105.24V128.634C105.24 129.922 105.884 130.454 106.808 130.454C107.76 130.454 108.53 129.67 108.53 128.508ZM114.554 131.714C112.524 131.714 111.096 130.118 111.096 127.85C111.096 125.61 112.552 124 114.554 124C116.388 124 117.718 125.218 117.984 127.15H116.5C116.346 125.96 115.604 125.246 114.568 125.246C113.35 125.246 112.552 126.282 112.552 127.85C112.552 129.432 113.35 130.454 114.568 130.454C115.618 130.454 116.346 129.754 116.514 128.55H117.984C117.732 130.51 116.416 131.714 114.554 131.714ZM123.313 130.188V131.434C122.879 131.63 122.501 131.7 122.053 131.7C120.681 131.7 119.729 130.958 119.729 129.32V125.344H118.091V124.14H119.729V121.942H121.143V124.14H123.383V125.344H121.143V128.998C121.143 130.02 121.633 130.384 122.389 130.384C122.725 130.384 123.019 130.328 123.313 130.188ZM130.388 131.56H127.21V121.508H130.388C133.594 121.508 135.442 123.552 135.442 126.492C135.442 129.39 133.524 131.56 130.388 131.56ZM128.75 122.838V130.23H130.318C132.628 130.23 133.874 128.802 133.874 126.492C133.874 124.224 132.642 122.838 130.318 122.838H128.75ZM139.714 131.7C137.572 131.7 136.13 130.146 136.13 127.808C136.13 125.61 137.628 124 139.672 124C141.884 124 143.354 125.792 143.102 128.2H137.572C137.684 129.712 138.44 130.594 139.686 130.594C140.736 130.594 141.464 130.02 141.702 129.054H143.102C142.738 130.706 141.464 131.7 139.714 131.7ZM139.644 125.064C138.51 125.064 137.74 125.876 137.586 127.262H141.604C141.534 125.89 140.792 125.064 139.644 125.064ZM150.205 129.348C150.205 130.804 149.071 131.7 147.097 131.7C145.137 131.7 143.975 130.734 143.835 129.138H145.193C145.249 130.062 145.991 130.636 147.125 130.636C148.119 130.636 148.777 130.286 148.777 129.586C148.777 128.97 148.399 128.704 147.475 128.522L146.271 128.298C144.899 128.032 144.129 127.332 144.129 126.212C144.129 124.91 145.263 124 146.985 124C148.763 124 149.967 124.952 150.093 126.478H148.735C148.651 125.582 147.993 125.064 146.999 125.064C146.103 125.064 145.501 125.442 145.501 126.086C145.501 126.688 145.879 126.968 146.775 127.136L148.035 127.374C149.505 127.64 150.205 128.284 150.205 129.348ZM153.191 122.418C153.191 122.95 152.771 123.356 152.169 123.356C151.567 123.356 151.133 122.95 151.133 122.418C151.133 121.872 151.567 121.48 152.169 121.48C152.771 121.48 153.191 121.872 153.191 122.418ZM152.883 131.56H151.469V124.14H152.883V131.56ZM157.534 134.416C155.588 134.416 154.328 133.38 154.244 131.7H155.616C155.7 132.736 156.372 133.296 157.52 133.296C158.794 133.296 159.466 132.61 159.466 131.336V129.992C159.046 130.888 158.206 131.406 157.198 131.406C155.35 131.406 154.034 129.88 154.034 127.696C154.034 125.484 155.294 124 157.156 124C158.22 124 159.06 124.518 159.564 125.456V124.14H160.88V131.308C160.88 133.254 159.634 134.416 157.534 134.416ZM155.462 127.696C155.462 129.236 156.218 130.174 157.45 130.174C158.654 130.174 159.466 129.208 159.466 127.738C159.466 126.198 158.668 125.218 157.45 125.218C156.232 125.218 155.462 126.17 155.462 127.696ZM163.971 127.374V131.56H162.557V124.14H163.873V125.372C164.377 124.546 165.217 124 166.239 124C167.765 124 168.773 124.98 168.773 126.758V131.56H167.359V127.234C167.359 125.96 166.799 125.246 165.749 125.246C164.783 125.246 163.971 126.058 163.971 127.374Z" fill="#1A1A1A"/>
<path d="M99.6504 20.9292C99.6557 20.9286 99.6608 20.9275 99.666 20.9272C99.6968 20.9293 99.7295 20.9365 99.7578 20.9487C99.7877 20.9617 99.8046 20.9759 99.8125 20.9839C99.8203 20.9919 99.8257 21.0001 99.8291 21.0083L99.833 21.0249L99.8291 21.0415C99.8257 21.0497 99.8203 21.058 99.8125 21.0659C99.8046 21.0739 99.7877 21.0881 99.7578 21.1011C99.7247 21.1154 99.6856 21.1235 99.6504 21.1235M99.6504 20.9292V21.1235M99.6504 20.9292C99.6192 20.9324 99.5862 20.939 99.5566 20.9517C99.52 20.9674 99.498 20.9857 99.4873 20.9966C99.466 21.0185 99.4668 21.0359 99.4668 21.0249L99.4707 21.0327C99.4747 21.0424 99.4817 21.0532 99.4922 21.064C99.5027 21.0746 99.5212 21.0893 99.5508 21.1021C99.5837 21.1163 99.6206 21.1235 99.6504 21.1235M99.6504 20.9292V21.1235M116.438 21.1235C116.41 21.1235 116.374 21.1161 116.339 21.1011C116.307 21.0873 116.287 21.0718 116.276 21.061C116.274 21.0581 116.273 21.054 116.271 21.0513M116.438 21.1235V21.0522M116.438 21.1235C116.465 21.1235 116.501 21.1161 116.536 21.1011C116.568 21.0873 116.587 21.0717 116.598 21.061C116.6 21.0589 116.6 21.0553 116.602 21.0532M116.438 21.1235V21.0522M116.438 21.0522L116.271 21.0513M116.438 21.0522L116.602 21.0532M116.271 21.0513L116.254 21.0249C116.254 21.0284 116.256 21.0088 116.276 20.9878C116.287 20.977 116.307 20.9615 116.339 20.9478C116.374 20.9328 116.41 20.9263 116.438 20.9263L116.481 20.9312C116.497 20.9345 116.514 20.9389 116.53 20.9458C116.559 20.9582 116.577 20.973 116.588 20.9839C116.598 20.9947 116.606 21.0069 116.612 21.021C116.614 21.0244 116.614 21.0284 116.615 21.0317C116.613 21.0374 116.609 21.0446 116.602 21.0532M116.271 21.0513L116.602 21.0532M152.593 21.0337C152.59 21.0382 152.587 21.0419 152.584 21.0464L152.485 21.0454V21.0327M152.593 21.0337L152.485 21.0327M152.593 21.0337L152.485 21.0327M152.593 21.0337C152.594 21.0316 152.597 21.0299 152.598 21.0278C152.598 21.0259 152.598 21.0237 152.599 21.022C152.596 21.0161 152.592 21.0108 152.587 21.0044M152.485 21.0327V21.0044M152.485 21.0044H152.587M152.485 21.0044V20.9409C152.496 20.9442 152.507 20.9472 152.517 20.9517C152.549 20.9662 152.569 20.982 152.579 20.9927C152.583 20.9962 152.584 21.001 152.587 21.0044M152.485 21.0044H152.587M68.4854 7.92529C71.9803 3.56586 78.2134 2.72937 82.7109 5.96631L83.1465 6.29639L83.1553 6.3042C86.4998 8.99577 87.7745 13.3157 86.7979 17.2417C87.3451 17.7626 87.8084 18.3621 88.1807 19.0142C89.1454 13.6083 93.9275 9.56982 99.5693 9.56982C102.852 9.56983 105.842 10.9381 107.961 13.146C110.024 10.9915 112.914 9.63682 116.092 9.57373V9.3042C116.092 7.09516 117.883 5.30436 120.092 5.3042H123.925C124.363 5.3042 124.783 5.37637 125.178 5.50635C125.572 5.37615 125.993 5.3042 126.432 5.3042H130.248C131.311 5.3042 132.331 5.72783 133.082 6.48096C133.832 7.23404 134.252 8.25482 134.248 9.31787L134.245 10.0034C135.425 10.0604 136.471 10.6295 137.166 11.4927C138.9 10.2884 141.038 9.56982 143.478 9.56982H143.979C145.176 9.56982 146.249 10.0965 146.982 10.9302C148.622 10.0605 150.493 9.56988 152.469 9.56982C155.71 9.56982 158.666 10.8919 160.783 13.0366C162.729 10.9244 165.515 9.56982 168.868 9.56982C175.565 9.56993 180 14.9764 180 21.0249V28.0669C180 30.276 178.209 32.0669 176 32.0669H172.184C170.804 32.0669 169.586 31.3683 168.867 30.3052C168.148 31.3679 166.932 32.0669 165.553 32.0669H161.736C160.527 32.0669 159.443 31.5301 158.71 30.6821C156.903 31.8204 154.76 32.48 152.469 32.48C149.183 32.4799 146.192 31.1206 144.068 28.9233C143.676 30.7208 142.077 32.0668 140.162 32.0669H136.346C136.191 32.0669 136.038 32.0567 135.888 32.0396C135.341 32.32 134.722 32.4799 134.065 32.48H133.563C131.059 32.4799 128.876 31.7267 127.121 30.4702C126.391 31.4394 125.232 32.0669 123.925 32.0669H120.351C120.012 32.0669 119.684 32.0239 119.37 31.9448C118.419 32.2919 117.402 32.48 116.356 32.48C114.086 32.48 111.956 31.8229 110.156 30.689C109.423 31.5325 108.343 32.0669 107.138 32.0669H103.563C103.223 32.0669 102.893 32.0238 102.578 31.9438C101.631 32.2922 100.616 32.48 99.5693 32.48C94.766 32.48 90.6062 29.5693 88.8682 25.3872C88.6074 26.1997 88.2077 26.9894 87.6523 27.7222C87.6487 27.727 87.6443 27.732 87.6406 27.7368L82.9346 33.8862C82.8805 33.9569 82.8233 34.0254 82.7646 34.0923C79.1596 38.5701 72.627 39.3297 68.1123 35.6958C64.7677 33.0041 63.4942 28.6855 64.4619 24.7622C61.7315 22.1712 61.0453 17.6425 63.6084 14.2837L63.6113 14.2788L68.3174 8.12939C68.3711 8.05915 68.4275 7.99135 68.4854 7.92529ZM152.485 21.1099C152.494 21.1073 152.503 21.1055 152.511 21.1021C152.53 21.0942 152.543 21.0828 152.554 21.0747H152.485V21.1099ZM67.5107 10.4907C67.5119 10.4028 67.5155 10.3152 67.5225 10.228C67.5215 10.2407 67.5204 10.253 67.5195 10.2651C67.5158 10.3177 67.5142 10.3675 67.5127 10.4136C67.5119 10.4367 67.5111 10.4593 67.5107 10.481C67.5107 10.4842 67.5108 10.4875 67.5107 10.4907ZM67.5352 10.0962C67.5312 10.1308 67.5282 10.164 67.5254 10.1958C67.534 10.0972 67.5467 9.99919 67.5625 9.90186L67.5352 10.0962ZM67.917 8.79053C67.9026 8.81985 67.8893 8.84954 67.876 8.87842C67.8975 8.83143 67.92 8.78494 67.9434 8.73877C67.9345 8.75626 67.9254 8.77338 67.917 8.79053Z" fill="#1A1A1A" stroke="#E6E2DE" stroke-width="8" stroke-linejoin="round"/>
</svg>
