<svg width="242" height="240" viewBox="0 0 242 240" fill="none" xmlns="http://www.w3.org/2000/svg">
<rect y="80" width="242" height="160" rx="12" fill="#E6E2DE"/>
<path d="M105.262 155.207L104.398 152.743H99.9341L99.0541 155.207H96.6061L100.926 143.719H103.582L107.87 155.207H105.262ZM102.19 146.375L100.622 150.807H103.726L102.19 146.375ZM111.142 155.207H108.918V146.663H110.966V147.879C111.59 147.015 112.39 146.503 113.526 146.503C114.694 146.503 115.59 147.047 116.022 148.023C116.694 147.079 117.558 146.503 118.838 146.503C120.566 146.503 121.734 147.639 121.734 149.687V155.207H119.526V150.391C119.526 149.191 119.014 148.471 118.038 148.471C117.158 148.471 116.438 149.159 116.438 150.439V155.207H114.23V150.391C114.23 149.191 113.718 148.471 112.742 148.471C111.846 148.471 111.142 149.159 111.142 150.439V155.207ZM126.052 144.679C126.052 145.431 125.444 145.991 124.564 145.991C123.7 145.991 123.092 145.431 123.092 144.679C123.092 143.895 123.7 143.335 124.564 143.335C125.444 143.335 126.052 143.895 126.052 144.679ZM125.7 155.207H123.476V146.663H125.7V155.207ZM131.152 158.455C128.848 158.455 127.312 157.207 127.216 155.239H129.36C129.456 156.215 130.08 156.727 131.136 156.727C132.368 156.727 133.008 156.071 133.008 154.839V153.591C132.544 154.407 131.664 154.887 130.624 154.887C128.528 154.887 126.96 153.111 126.96 150.695C126.96 148.215 128.432 146.503 130.544 146.503C131.696 146.503 132.56 146.951 133.184 147.831V146.663H135.216V154.807C135.216 157.079 133.68 158.455 131.152 158.455ZM129.184 150.695C129.184 152.087 129.904 152.967 131.056 152.967C132.224 152.967 132.992 152.055 132.992 150.711C132.992 149.319 132.224 148.423 131.056 148.423C129.92 148.423 129.184 149.303 129.184 150.695ZM140.839 155.367C138.359 155.367 136.503 153.415 136.503 150.935C136.503 148.439 138.359 146.503 140.839 146.503C143.319 146.503 145.175 148.439 145.175 150.935C145.175 153.415 143.319 155.367 140.839 155.367ZM140.839 153.399C141.943 153.399 142.887 152.519 142.887 150.935C142.887 149.351 141.943 148.487 140.839 148.487C139.735 148.487 138.791 149.351 138.791 150.935C138.791 152.519 139.735 153.399 140.839 153.399Z" fill="#1A1A1A"/>
<path d="M79.3399 175.207L77.2119 167.325L75.0699 175.207H73.4879L70.8699 165.155H72.3819L74.3139 172.897L76.4279 165.155H78.0239L80.1099 172.911L82.0419 165.155H83.5539L80.9359 175.207H79.3399ZM86.961 175.347C84.819 175.347 83.377 173.793 83.377 171.455C83.377 169.257 84.875 167.647 86.919 167.647C89.131 167.647 90.601 169.439 90.349 171.847H84.819C84.931 173.359 85.687 174.241 86.933 174.241C87.983 174.241 88.711 173.667 88.949 172.701H90.349C89.985 174.353 88.711 175.347 86.961 175.347ZM86.891 168.711C85.757 168.711 84.987 169.523 84.833 170.909H88.851C88.781 169.537 88.039 168.711 86.891 168.711ZM98.6564 171.497C98.6564 173.723 97.3684 175.347 95.3664 175.347C94.3164 175.347 93.4204 174.815 92.8884 173.877V175.207H91.5724V165.155H92.9864V169.061C93.5044 168.151 94.3584 167.647 95.3664 167.647C97.3544 167.647 98.6564 169.243 98.6564 171.497ZM97.1864 171.497C97.1864 169.817 96.3044 168.893 95.0864 168.893C93.9104 168.893 92.9864 169.803 92.9864 171.469C92.9864 173.107 93.8824 174.087 95.0864 174.087C96.3044 174.087 97.1864 173.149 97.1864 171.497ZM105.69 172.995C105.69 174.451 104.556 175.347 102.582 175.347C100.622 175.347 99.46 174.381 99.32 172.785H100.678C100.734 173.709 101.476 174.283 102.61 174.283C103.604 174.283 104.262 173.933 104.262 173.233C104.262 172.617 103.884 172.351 102.96 172.169L101.756 171.945C100.384 171.679 99.614 170.979 99.614 169.859C99.614 168.557 100.748 167.647 102.47 167.647C104.248 167.647 105.452 168.599 105.578 170.125H104.22C104.136 169.229 103.478 168.711 102.484 168.711C101.588 168.711 100.986 169.089 100.986 169.733C100.986 170.335 101.364 170.615 102.26 170.783L103.52 171.021C104.99 171.287 105.69 171.931 105.69 172.995ZM108.676 166.065C108.676 166.597 108.256 167.003 107.654 167.003C107.052 167.003 106.618 166.597 106.618 166.065C106.618 165.519 107.052 165.127 107.654 165.127C108.256 165.127 108.676 165.519 108.676 166.065ZM108.368 175.207H106.954V167.787H108.368V175.207ZM114.237 173.835V175.081C113.803 175.277 113.425 175.347 112.977 175.347C111.605 175.347 110.653 174.605 110.653 172.967V168.991H109.015V167.787H110.653V165.589H112.067V167.787H114.307V168.991H112.067V172.645C112.067 173.667 112.557 174.031 113.313 174.031C113.649 174.031 113.943 173.975 114.237 173.835ZM118.223 175.347C116.081 175.347 114.639 173.793 114.639 171.455C114.639 169.257 116.137 167.647 118.181 167.647C120.393 167.647 121.863 169.439 121.611 171.847H116.081C116.193 173.359 116.949 174.241 118.195 174.241C119.245 174.241 119.973 173.667 120.211 172.701H121.611C121.247 174.353 119.973 175.347 118.223 175.347ZM118.153 168.711C117.019 168.711 116.249 169.523 116.095 170.909H120.113C120.043 169.537 119.301 168.711 118.153 168.711ZM128.77 175.207H125.592V165.155H128.77C131.976 165.155 133.824 167.199 133.824 170.139C133.824 173.037 131.906 175.207 128.77 175.207ZM127.132 166.485V173.877H128.7C131.01 173.877 132.256 172.449 132.256 170.139C132.256 167.871 131.024 166.485 128.7 166.485H127.132ZM138.096 175.347C135.954 175.347 134.512 173.793 134.512 171.455C134.512 169.257 136.01 167.647 138.054 167.647C140.266 167.647 141.736 169.439 141.484 171.847H135.954C136.066 173.359 136.822 174.241 138.068 174.241C139.118 174.241 139.846 173.667 140.084 172.701H141.484C141.12 174.353 139.846 175.347 138.096 175.347ZM138.026 168.711C136.892 168.711 136.122 169.523 135.968 170.909H139.986C139.916 169.537 139.174 168.711 138.026 168.711ZM148.587 172.995C148.587 174.451 147.453 175.347 145.479 175.347C143.519 175.347 142.357 174.381 142.217 172.785H143.575C143.631 173.709 144.373 174.283 145.507 174.283C146.501 174.283 147.159 173.933 147.159 173.233C147.159 172.617 146.781 172.351 145.857 172.169L144.653 171.945C143.281 171.679 142.511 170.979 142.511 169.859C142.511 168.557 143.645 167.647 145.367 167.647C147.145 167.647 148.349 168.599 148.475 170.125H147.117C147.033 169.229 146.375 168.711 145.381 168.711C144.485 168.711 143.883 169.089 143.883 169.733C143.883 170.335 144.261 170.615 145.157 170.783L146.417 171.021C147.887 171.287 148.587 171.931 148.587 172.995ZM151.573 166.065C151.573 166.597 151.153 167.003 150.551 167.003C149.949 167.003 149.515 166.597 149.515 166.065C149.515 165.519 149.949 165.127 150.551 165.127C151.153 165.127 151.573 165.519 151.573 166.065ZM151.265 175.207H149.851V167.787H151.265V175.207ZM155.916 178.063C153.97 178.063 152.71 177.027 152.626 175.347H153.998C154.082 176.383 154.754 176.943 155.902 176.943C157.176 176.943 157.848 176.257 157.848 174.983V173.639C157.428 174.535 156.588 175.053 155.58 175.053C153.732 175.053 152.416 173.527 152.416 171.343C152.416 169.131 153.676 167.647 155.538 167.647C156.602 167.647 157.442 168.165 157.946 169.103V167.787H159.262V174.955C159.262 176.901 158.016 178.063 155.916 178.063ZM153.844 171.343C153.844 172.883 154.6 173.821 155.832 173.821C157.036 173.821 157.848 172.855 157.848 171.385C157.848 169.845 157.05 168.865 155.832 168.865C154.614 168.865 153.844 169.817 153.844 171.343ZM162.354 171.021V175.207H160.94V167.787H162.256V169.019C162.76 168.193 163.6 167.647 164.622 167.647C166.148 167.647 167.156 168.627 167.156 170.405V175.207H165.742V170.881C165.742 169.607 165.182 168.893 164.132 168.893C163.166 168.893 162.354 169.705 162.354 171.021ZM170.671 174.605C170.671 175.935 169.621 176.971 168.081 176.999V176.201C168.991 176.173 169.607 175.683 169.691 174.997C169.565 175.039 169.481 175.053 169.383 175.053C168.851 175.053 168.459 174.619 168.459 174.101C168.459 173.499 168.907 173.107 169.481 173.107C170.251 173.107 170.671 173.667 170.671 174.605ZM77.4068 188.707H75.4608V192.207H73.9208V182.155H77.4068C79.6608 182.155 81.1168 183.303 81.1168 185.403C81.1168 187.517 79.6608 188.707 77.4068 188.707ZM77.3928 183.457H75.4608V187.405H77.3928C78.7508 187.405 79.5768 186.663 79.5768 185.417C79.5768 184.171 78.7508 183.457 77.3928 183.457ZM83.6791 188.413V192.207H82.2651V184.787H83.5811V186.355C84.0991 185.333 85.2191 184.689 86.4371 184.689V186.159C84.8411 186.075 83.6791 186.775 83.6791 188.413ZM90.3568 192.347C88.2568 192.347 86.7168 190.695 86.7168 188.497C86.7168 186.299 88.2568 184.647 90.3568 184.647C92.4568 184.647 93.9968 186.299 93.9968 188.497C93.9968 190.695 92.4568 192.347 90.3568 192.347ZM90.3568 191.101C91.5748 191.101 92.5408 190.121 92.5408 188.497C92.5408 186.873 91.5748 185.907 90.3568 185.907C89.1388 185.907 88.1868 186.873 88.1868 188.497C88.1868 190.121 89.1388 191.101 90.3568 191.101ZM94.6262 188.497C94.6262 186.243 95.9142 184.647 97.9162 184.647C98.9102 184.647 99.7782 185.151 100.296 186.061V182.155H101.71V192.207H100.394V190.877C99.8622 191.815 98.9662 192.347 97.9162 192.347C95.9142 192.347 94.6262 190.723 94.6262 188.497ZM96.0962 188.497C96.0962 190.149 96.9642 191.087 98.1962 191.087C99.4002 191.087 100.296 190.107 100.296 188.469C100.296 186.803 99.3722 185.893 98.1962 185.893C96.9642 185.893 96.0962 186.817 96.0962 188.497ZM108.03 189.155V184.787H109.444V192.207H108.128V191.031C107.736 191.801 106.868 192.347 105.86 192.347C104.362 192.347 103.326 191.465 103.326 189.561V184.787H104.74V189.281C104.74 190.569 105.384 191.101 106.308 191.101C107.26 191.101 108.03 190.317 108.03 189.155ZM114.054 192.361C112.024 192.361 110.596 190.765 110.596 188.497C110.596 186.257 112.052 184.647 114.054 184.647C115.888 184.647 117.218 185.865 117.484 187.797H116C115.846 186.607 115.104 185.893 114.068 185.893C112.85 185.893 112.052 186.929 112.052 188.497C112.052 190.079 112.85 191.101 114.068 191.101C115.118 191.101 115.846 190.401 116.014 189.197H117.484C117.232 191.157 115.916 192.361 114.054 192.361ZM122.813 190.835V192.081C122.379 192.277 122.001 192.347 121.553 192.347C120.181 192.347 119.229 191.605 119.229 189.967V185.991H117.591V184.787H119.229V182.589H120.643V184.787H122.883V185.991H120.643V189.645C120.643 190.667 121.133 191.031 121.889 191.031C122.225 191.031 122.519 190.975 122.813 190.835ZM129.888 192.207H126.71V182.155H129.888C133.094 182.155 134.942 184.199 134.942 187.139C134.942 190.037 133.024 192.207 129.888 192.207ZM128.25 183.485V190.877H129.818C132.128 190.877 133.374 189.449 133.374 187.139C133.374 184.871 132.142 183.485 129.818 183.485H128.25ZM139.214 192.347C137.072 192.347 135.63 190.793 135.63 188.455C135.63 186.257 137.128 184.647 139.172 184.647C141.384 184.647 142.854 186.439 142.602 188.847H137.072C137.184 190.359 137.94 191.241 139.186 191.241C140.236 191.241 140.964 190.667 141.202 189.701H142.602C142.238 191.353 140.964 192.347 139.214 192.347ZM139.144 185.711C138.01 185.711 137.24 186.523 137.086 187.909H141.104C141.034 186.537 140.292 185.711 139.144 185.711ZM149.705 189.995C149.705 191.451 148.571 192.347 146.597 192.347C144.637 192.347 143.475 191.381 143.335 189.785H144.693C144.749 190.709 145.491 191.283 146.625 191.283C147.619 191.283 148.277 190.933 148.277 190.233C148.277 189.617 147.899 189.351 146.975 189.169L145.771 188.945C144.399 188.679 143.629 187.979 143.629 186.859C143.629 185.557 144.763 184.647 146.485 184.647C148.263 184.647 149.467 185.599 149.593 187.125H148.235C148.151 186.229 147.493 185.711 146.499 185.711C145.603 185.711 145.001 186.089 145.001 186.733C145.001 187.335 145.379 187.615 146.275 187.783L147.535 188.021C149.005 188.287 149.705 188.931 149.705 189.995ZM152.691 183.065C152.691 183.597 152.271 184.003 151.669 184.003C151.067 184.003 150.633 183.597 150.633 183.065C150.633 182.519 151.067 182.127 151.669 182.127C152.271 182.127 152.691 182.519 152.691 183.065ZM152.383 192.207H150.969V184.787H152.383V192.207ZM157.034 195.063C155.088 195.063 153.828 194.027 153.744 192.347H155.116C155.2 193.383 155.872 193.943 157.02 193.943C158.294 193.943 158.966 193.257 158.966 191.983V190.639C158.546 191.535 157.706 192.053 156.698 192.053C154.85 192.053 153.534 190.527 153.534 188.343C153.534 186.131 154.794 184.647 156.656 184.647C157.72 184.647 158.56 185.165 159.064 186.103V184.787H160.38V191.955C160.38 193.901 159.134 195.063 157.034 195.063ZM154.962 188.343C154.962 189.883 155.718 190.821 156.95 190.821C158.154 190.821 158.966 189.855 158.966 188.385C158.966 186.845 158.168 185.865 156.95 185.865C155.732 185.865 154.962 186.817 154.962 188.343ZM163.471 188.021V192.207H162.057V184.787H163.373V186.019C163.877 185.193 164.717 184.647 165.739 184.647C167.265 184.647 168.273 185.627 168.273 187.405V192.207H166.859V187.881C166.859 186.607 166.299 185.893 165.249 185.893C164.283 185.893 163.471 186.705 163.471 188.021Z" fill="#1A1A1A"/>
<circle cx="139.5" cy="68.5" r="6.5" fill="#E6E2DE"/>
<mask id="path-5-outside-1_1195_340" maskUnits="userSpaceOnUse" x="58" y="58" width="126" height="44" fill="black">
<rect fill="white" x="58" y="58" width="126" height="44"/>
<path d="M75.3952 67.1296L71.0336 68.9624C68.9452 69.8435 68.628 72.4781 70.0731 73.8968L68.6104 74.5136C65.1299 75.9763 65.1299 80.9019 68.6104 82.3646L70.2405 83.0519C68.6016 84.4265 68.8659 87.2373 71.0336 88.1449L75.3952 89.9777C76.3997 90.4007 77.51 89.6605 77.51 88.5679V68.5306C77.51 67.438 76.3997 66.6978 75.3952 67.1208V67.1296Z"/>
<path d="M89.0264 74.7425L87.3963 74.0552C89.0353 72.6806 88.7709 69.8697 86.6033 68.9621L82.2416 67.1294C81.2371 66.7064 80.1269 67.4466 80.1269 68.5392V88.5853C80.1269 89.6779 81.2371 90.4181 82.2416 89.9951L86.6033 88.1623C88.6916 87.2812 89.0088 84.6466 87.5637 83.2279L89.0264 82.6111C92.507 81.1484 92.507 76.2228 89.0264 74.7601V74.7425Z"/>
<path d="M108.138 78.6811C107.627 77.1391 107.134 75.6499 106.641 74.2225C106.156 72.795 105.689 71.535 105.248 70.4424C105.107 70.0194 104.772 69.7198 104.244 69.526C103.715 69.3409 103.134 69.244 102.49 69.244C102.014 69.244 101.539 69.3057 101.072 69.4202C100.605 69.5348 100.252 69.6581 100.014 69.7815C99.7323 70.5217 99.3975 71.4204 99.0098 72.469C98.6221 73.5264 98.2079 74.6454 97.7674 75.8173C97.3268 76.9981 96.9127 78.1612 96.5073 79.3155C96.1108 80.4698 95.7407 81.5448 95.3971 82.5317C95.0534 83.5186 94.7803 84.338 94.56 84.9989C94.4807 85.2985 94.4014 85.554 94.3397 85.7743C94.2692 85.9946 94.234 86.2149 94.234 86.4352C94.234 86.911 94.4102 87.2723 94.7538 87.5102C95.1063 87.7481 95.5733 87.8714 96.1725 87.8714C96.4721 87.8714 96.7276 87.845 96.9479 87.8009C97.1682 87.7481 97.3708 87.6952 97.5471 87.6335C97.644 87.3163 97.7674 86.9374 97.9083 86.5145C98.0493 86.0827 98.1991 85.6245 98.3577 85.1399C98.5163 84.6553 98.6661 84.1706 98.8071 83.686C98.86 83.5098 98.9129 83.3423 98.9569 83.1749H105.918L106.94 86.4087C107.099 86.911 107.31 87.2723 107.583 87.519C107.856 87.7569 108.297 87.8803 108.914 87.8803C109.354 87.8803 109.733 87.8098 110.068 87.6688C110.394 87.5278 110.65 87.3516 110.835 87.1313C110.473 85.9594 110.059 84.6376 109.592 83.1837C109.125 81.7298 108.632 80.2319 108.13 78.6811H108.138ZM100.569 77.8352C100.922 76.8042 101.257 75.8173 101.583 74.8569C101.909 73.8964 102.208 73.0505 102.464 72.3192H102.614C102.816 72.9536 103.063 73.7202 103.363 74.6102C103.662 75.5001 103.979 76.4518 104.305 77.4827C104.605 78.4344 104.905 79.3948 105.204 80.3729H99.7059C99.979 79.5622 100.27 78.7251 100.569 77.844V77.8352Z"/>
<path d="M131.551 73.606C130.705 73.2712 129.753 73.095 128.696 73.095C127.559 73.095 126.563 73.28 125.718 73.6501C125.092 73.9233 124.537 74.2405 124.061 74.5929C123.603 74.1524 123.039 73.7999 122.352 73.5444C121.532 73.2448 120.633 73.095 119.664 73.095C118.695 73.095 117.814 73.2271 116.915 73.4827C116.016 73.7382 115.267 74.0731 114.668 74.4696C114.245 74.7251 113.945 75.0159 113.752 75.3243C113.558 75.6327 113.47 76.0204 113.47 76.4786V86.1976C113.47 86.7792 113.619 87.1845 113.937 87.4224C114.245 87.6603 114.721 87.7837 115.355 87.7837C115.69 87.7837 115.999 87.7573 116.28 87.7132C116.562 87.6603 116.783 87.6075 116.941 87.5458V76.6636C117.241 76.461 117.62 76.2759 118.078 76.1085C118.536 75.9411 119.038 75.853 119.576 75.853C120.334 75.853 120.951 76.0468 121.426 76.4345C121.902 76.8222 122.14 77.4302 122.14 78.2409V86.1976C122.14 86.7792 122.299 87.1845 122.607 87.4224C122.916 87.6603 123.391 87.7837 124.026 87.7837C124.361 87.7837 124.678 87.7573 124.969 87.7132C125.259 87.6603 125.471 87.6075 125.612 87.5458V77.8532C125.612 77.5448 125.568 77.2452 125.506 76.9544C125.85 76.6548 126.22 76.3993 126.643 76.2054C127.171 75.9675 127.718 75.8442 128.273 75.8442C129.048 75.8442 129.665 76.038 130.123 76.4257C130.582 76.8134 130.811 77.4214 130.811 78.2321V86.1888C130.811 86.7704 130.969 87.1757 131.278 87.4136C131.586 87.6515 132.071 87.7749 132.732 87.7749C133.049 87.7749 133.357 87.7485 133.648 87.7044C133.939 87.6515 134.15 87.5987 134.291 87.537V78.1175C134.291 76.9456 134.044 75.9763 133.56 75.2274C133.075 74.4784 132.405 73.9409 131.56 73.5972L131.551 73.606Z"/>
<path d="M139.93 67.297C139.349 67.297 138.873 67.4908 138.477 67.8609C138.089 68.2398 137.895 68.7068 137.895 69.2707C137.895 69.8347 138.089 70.2752 138.477 70.6629C138.864 71.0506 139.349 71.2445 139.93 71.2445C140.547 71.2445 141.041 71.0506 141.411 70.6629C141.781 70.2752 141.966 69.8082 141.966 69.2707C141.966 68.7332 141.781 68.2398 141.411 67.8609C141.041 67.482 140.547 67.297 139.93 67.297Z"/>
<path d="M139.816 73.3945C139.481 73.3945 139.164 73.4209 138.873 73.465C138.582 73.5178 138.362 73.5619 138.203 73.5971V86.1887C138.203 86.7703 138.362 87.1756 138.679 87.4135C138.996 87.6514 139.472 87.7748 140.115 87.7748C140.45 87.7748 140.759 87.7484 141.041 87.7043C141.323 87.6514 141.525 87.5986 141.666 87.5369V75.007C141.666 74.3902 141.516 73.9672 141.217 73.7381C140.917 73.509 140.45 73.3945 139.807 73.3945H139.816Z"/>
<path d="M156.936 74.3553C156.417 74.0205 155.738 73.7209 154.892 73.4742C154.046 73.2275 153.112 73.1041 152.099 73.1041C150.68 73.1041 149.429 73.3684 148.345 73.8971C147.261 74.4258 146.407 75.21 145.799 76.2586C145.191 77.3072 144.882 78.5936 144.882 80.1357C144.882 81.8275 145.182 83.1932 145.781 84.2154C146.38 85.2463 147.173 85.9865 148.178 86.4447C149.174 86.9029 150.249 87.132 151.412 87.132C152.31 87.132 153.068 87.0174 153.703 86.7883C154.09 86.6473 154.416 86.4975 154.707 86.3389V87.7664C154.707 88.8238 154.363 89.5992 153.694 90.0838C153.015 90.5684 152.073 90.8152 150.857 90.8152C150.002 90.8152 149.2 90.6918 148.451 90.4451C147.702 90.1984 147.094 89.9076 146.609 89.5904C146.389 89.7313 146.204 89.9252 146.037 90.1895C145.878 90.4451 145.799 90.7623 145.799 91.1147C145.799 91.7756 146.125 92.3043 146.786 92.7008C147.12 92.9035 147.676 93.0973 148.442 93.3C149.209 93.5027 150.099 93.5996 151.121 93.5996C152.416 93.5996 153.597 93.4057 154.654 93.018C155.712 92.6303 156.54 92.0135 157.148 91.1764C157.756 90.3393 158.064 89.2379 158.064 87.8897V76.2586C158.064 75.818 157.967 75.4568 157.765 75.166C157.562 74.8752 157.298 74.6109 156.954 74.373L156.936 74.3553ZM151.976 84.4092C150.936 84.4092 150.072 84.092 149.385 83.4488C148.698 82.8143 148.354 81.7041 148.354 80.1268C148.354 78.6906 148.707 77.6156 149.42 76.9107C150.125 76.2057 151.05 75.8445 152.187 75.8445C152.769 75.8445 153.253 75.9061 153.65 76.0383C154.046 76.1705 154.39 76.3203 154.663 76.5053V83.4488C154.416 83.6514 154.143 83.8365 153.826 84.0127C153.35 84.2682 152.733 84.4004 151.976 84.4004V84.4092Z"/>
<path d="M174.727 76.6019C174.128 75.4829 173.291 74.6194 172.216 74.0114C171.141 73.4034 169.881 73.095 168.444 73.095C167.008 73.095 165.722 73.4034 164.629 74.0114C163.545 74.6194 162.699 75.4741 162.1 76.5843C161.501 77.6946 161.201 79.0075 161.201 80.5495C161.201 82.0915 161.492 83.4132 162.082 84.5235C162.673 85.6425 163.51 86.506 164.594 87.114C165.678 87.722 166.955 88.0304 168.409 88.0304C169.863 88.0304 171.158 87.722 172.233 87.114C173.308 86.506 174.145 85.6425 174.727 84.5235C175.317 83.4044 175.608 82.0827 175.608 80.5495C175.608 79.0163 175.308 77.721 174.709 76.6019H174.727ZM171.123 84.0036C170.471 84.8319 169.572 85.246 168.418 85.246C167.264 85.246 166.365 84.8407 165.73 84.0212C165.096 83.2017 164.77 82.0474 164.77 80.5495C164.77 79.0515 165.096 77.9237 165.757 77.0954C166.418 76.2671 167.299 75.853 168.418 75.853C169.537 75.853 170.48 76.2759 171.123 77.113C171.766 77.9501 172.092 79.0956 172.092 80.5495C172.092 82.0034 171.766 83.1753 171.123 84.0036Z"/>
</mask>
<path d="M75.3952 67.1296L71.0336 68.9624C68.9452 69.8435 68.628 72.4781 70.0731 73.8968L68.6104 74.5136C65.1299 75.9763 65.1299 80.9019 68.6104 82.3646L70.2405 83.0519C68.6016 84.4265 68.8659 87.2373 71.0336 88.1449L75.3952 89.9777C76.3997 90.4007 77.51 89.6605 77.51 88.5679V68.5306C77.51 67.438 76.3997 66.6978 75.3952 67.1208V67.1296Z" fill="#1A1A1A"/>
<path d="M89.0264 74.7425L87.3963 74.0552C89.0353 72.6806 88.7709 69.8697 86.6033 68.9621L82.2416 67.1294C81.2371 66.7064 80.1269 67.4466 80.1269 68.5392V88.5853C80.1269 89.6779 81.2371 90.4181 82.2416 89.9951L86.6033 88.1623C88.6916 87.2812 89.0088 84.6466 87.5637 83.2279L89.0264 82.6111C92.507 81.1484 92.507 76.2228 89.0264 74.7601V74.7425Z" fill="#1A1A1A"/>
<path d="M108.138 78.6811C107.627 77.1391 107.134 75.6499 106.641 74.2225C106.156 72.795 105.689 71.535 105.248 70.4424C105.107 70.0194 104.772 69.7198 104.244 69.526C103.715 69.3409 103.134 69.244 102.49 69.244C102.014 69.244 101.539 69.3057 101.072 69.4202C100.605 69.5348 100.252 69.6581 100.014 69.7815C99.7323 70.5217 99.3975 71.4204 99.0098 72.469C98.6221 73.5264 98.2079 74.6454 97.7674 75.8173C97.3268 76.9981 96.9127 78.1612 96.5073 79.3155C96.1108 80.4698 95.7407 81.5448 95.3971 82.5317C95.0534 83.5186 94.7803 84.338 94.56 84.9989C94.4807 85.2985 94.4014 85.554 94.3397 85.7743C94.2692 85.9946 94.234 86.2149 94.234 86.4352C94.234 86.911 94.4102 87.2723 94.7538 87.5102C95.1063 87.7481 95.5733 87.8714 96.1725 87.8714C96.4721 87.8714 96.7276 87.845 96.9479 87.8009C97.1682 87.7481 97.3708 87.6952 97.5471 87.6335C97.644 87.3163 97.7674 86.9374 97.9083 86.5145C98.0493 86.0827 98.1991 85.6245 98.3577 85.1399C98.5163 84.6553 98.6661 84.1706 98.8071 83.686C98.86 83.5098 98.9129 83.3423 98.9569 83.1749H105.918L106.94 86.4087C107.099 86.911 107.31 87.2723 107.583 87.519C107.856 87.7569 108.297 87.8803 108.914 87.8803C109.354 87.8803 109.733 87.8098 110.068 87.6688C110.394 87.5278 110.65 87.3516 110.835 87.1313C110.473 85.9594 110.059 84.6376 109.592 83.1837C109.125 81.7298 108.632 80.2319 108.13 78.6811H108.138ZM100.569 77.8352C100.922 76.8042 101.257 75.8173 101.583 74.8569C101.909 73.8964 102.208 73.0505 102.464 72.3192H102.614C102.816 72.9536 103.063 73.7202 103.363 74.6102C103.662 75.5001 103.979 76.4518 104.305 77.4827C104.605 78.4344 104.905 79.3948 105.204 80.3729H99.7059C99.979 79.5622 100.27 78.7251 100.569 77.844V77.8352Z" fill="#1A1A1A"/>
<path d="M131.551 73.606C130.705 73.2712 129.753 73.095 128.696 73.095C127.559 73.095 126.563 73.28 125.718 73.6501C125.092 73.9233 124.537 74.2405 124.061 74.5929C123.603 74.1524 123.039 73.7999 122.352 73.5444C121.532 73.2448 120.633 73.095 119.664 73.095C118.695 73.095 117.814 73.2271 116.915 73.4827C116.016 73.7382 115.267 74.0731 114.668 74.4696C114.245 74.7251 113.945 75.0159 113.752 75.3243C113.558 75.6327 113.47 76.0204 113.47 76.4786V86.1976C113.47 86.7792 113.619 87.1845 113.937 87.4224C114.245 87.6603 114.721 87.7837 115.355 87.7837C115.69 87.7837 115.999 87.7573 116.28 87.7132C116.562 87.6603 116.783 87.6075 116.941 87.5458V76.6636C117.241 76.461 117.62 76.2759 118.078 76.1085C118.536 75.9411 119.038 75.853 119.576 75.853C120.334 75.853 120.951 76.0468 121.426 76.4345C121.902 76.8222 122.14 77.4302 122.14 78.2409V86.1976C122.14 86.7792 122.299 87.1845 122.607 87.4224C122.916 87.6603 123.391 87.7837 124.026 87.7837C124.361 87.7837 124.678 87.7573 124.969 87.7132C125.259 87.6603 125.471 87.6075 125.612 87.5458V77.8532C125.612 77.5448 125.568 77.2452 125.506 76.9544C125.85 76.6548 126.22 76.3993 126.643 76.2054C127.171 75.9675 127.718 75.8442 128.273 75.8442C129.048 75.8442 129.665 76.038 130.123 76.4257C130.582 76.8134 130.811 77.4214 130.811 78.2321V86.1888C130.811 86.7704 130.969 87.1757 131.278 87.4136C131.586 87.6515 132.071 87.7749 132.732 87.7749C133.049 87.7749 133.357 87.7485 133.648 87.7044C133.939 87.6515 134.15 87.5987 134.291 87.537V78.1175C134.291 76.9456 134.044 75.9763 133.56 75.2274C133.075 74.4784 132.405 73.9409 131.56 73.5972L131.551 73.606Z" fill="#1A1A1A"/>
<path d="M139.93 67.297C139.349 67.297 138.873 67.4908 138.477 67.8609C138.089 68.2398 137.895 68.7068 137.895 69.2707C137.895 69.8347 138.089 70.2752 138.477 70.6629C138.864 71.0506 139.349 71.2445 139.93 71.2445C140.547 71.2445 141.041 71.0506 141.411 70.6629C141.781 70.2752 141.966 69.8082 141.966 69.2707C141.966 68.7332 141.781 68.2398 141.411 67.8609C141.041 67.482 140.547 67.297 139.93 67.297Z" fill="#1A1A1A"/>
<path d="M139.816 73.3945C139.481 73.3945 139.164 73.4209 138.873 73.465C138.582 73.5178 138.362 73.5619 138.203 73.5971V86.1887C138.203 86.7703 138.362 87.1756 138.679 87.4135C138.996 87.6514 139.472 87.7748 140.115 87.7748C140.45 87.7748 140.759 87.7484 141.041 87.7043C141.323 87.6514 141.525 87.5986 141.666 87.5369V75.007C141.666 74.3902 141.516 73.9672 141.217 73.7381C140.917 73.509 140.45 73.3945 139.807 73.3945H139.816Z" fill="#1A1A1A"/>
<path d="M156.936 74.3553C156.417 74.0205 155.738 73.7209 154.892 73.4742C154.046 73.2275 153.112 73.1041 152.099 73.1041C150.68 73.1041 149.429 73.3684 148.345 73.8971C147.261 74.4258 146.407 75.21 145.799 76.2586C145.191 77.3072 144.882 78.5936 144.882 80.1357C144.882 81.8275 145.182 83.1932 145.781 84.2154C146.38 85.2463 147.173 85.9865 148.178 86.4447C149.174 86.9029 150.249 87.132 151.412 87.132C152.31 87.132 153.068 87.0174 153.703 86.7883C154.09 86.6473 154.416 86.4975 154.707 86.3389V87.7664C154.707 88.8238 154.363 89.5992 153.694 90.0838C153.015 90.5684 152.073 90.8152 150.857 90.8152C150.002 90.8152 149.2 90.6918 148.451 90.4451C147.702 90.1984 147.094 89.9076 146.609 89.5904C146.389 89.7313 146.204 89.9252 146.037 90.1895C145.878 90.4451 145.799 90.7623 145.799 91.1147C145.799 91.7756 146.125 92.3043 146.786 92.7008C147.12 92.9035 147.676 93.0973 148.442 93.3C149.209 93.5027 150.099 93.5996 151.121 93.5996C152.416 93.5996 153.597 93.4057 154.654 93.018C155.712 92.6303 156.54 92.0135 157.148 91.1764C157.756 90.3393 158.064 89.2379 158.064 87.8897V76.2586C158.064 75.818 157.967 75.4568 157.765 75.166C157.562 74.8752 157.298 74.6109 156.954 74.373L156.936 74.3553ZM151.976 84.4092C150.936 84.4092 150.072 84.092 149.385 83.4488C148.698 82.8143 148.354 81.7041 148.354 80.1268C148.354 78.6906 148.707 77.6156 149.42 76.9107C150.125 76.2057 151.05 75.8445 152.187 75.8445C152.769 75.8445 153.253 75.9061 153.65 76.0383C154.046 76.1705 154.39 76.3203 154.663 76.5053V83.4488C154.416 83.6514 154.143 83.8365 153.826 84.0127C153.35 84.2682 152.733 84.4004 151.976 84.4004V84.4092Z" fill="#1A1A1A"/>
<path d="M174.727 76.6019C174.128 75.4829 173.291 74.6194 172.216 74.0114C171.141 73.4034 169.881 73.095 168.444 73.095C167.008 73.095 165.722 73.4034 164.629 74.0114C163.545 74.6194 162.699 75.4741 162.1 76.5843C161.501 77.6946 161.201 79.0075 161.201 80.5495C161.201 82.0915 161.492 83.4132 162.082 84.5235C162.673 85.6425 163.51 86.506 164.594 87.114C165.678 87.722 166.955 88.0304 168.409 88.0304C169.863 88.0304 171.158 87.722 172.233 87.114C173.308 86.506 174.145 85.6425 174.727 84.5235C175.317 83.4044 175.608 82.0827 175.608 80.5495C175.608 79.0163 175.308 77.721 174.709 76.6019H174.727ZM171.123 84.0036C170.471 84.8319 169.572 85.246 168.418 85.246C167.264 85.246 166.365 84.8407 165.73 84.0212C165.096 83.2017 164.77 82.0474 164.77 80.5495C164.77 79.0515 165.096 77.9237 165.757 77.0954C166.418 76.2671 167.299 75.853 168.418 75.853C169.537 75.853 170.48 76.2759 171.123 77.113C171.766 77.9501 172.092 79.0956 172.092 80.5495C172.092 82.0034 171.766 83.1753 171.123 84.0036Z" fill="#1A1A1A"/>
<path d="M75.3952 67.1296L71.0336 68.9624C68.9452 69.8435 68.628 72.4781 70.0731 73.8968L68.6104 74.5136C65.1299 75.9763 65.1299 80.9019 68.6104 82.3646L70.2405 83.0519C68.6016 84.4265 68.8659 87.2373 71.0336 88.1449L75.3952 89.9777C76.3997 90.4007 77.51 89.6605 77.51 88.5679V68.5306C77.51 67.438 76.3997 66.6978 75.3952 67.1208V67.1296Z" stroke="#E6E2DE" stroke-width="16" stroke-linejoin="round" mask="url(#path-5-outside-1_1195_340)"/>
<path d="M89.0264 74.7425L87.3963 74.0552C89.0353 72.6806 88.7709 69.8697 86.6033 68.9621L82.2416 67.1294C81.2371 66.7064 80.1269 67.4466 80.1269 68.5392V88.5853C80.1269 89.6779 81.2371 90.4181 82.2416 89.9951L86.6033 88.1623C88.6916 87.2812 89.0088 84.6466 87.5637 83.2279L89.0264 82.6111C92.507 81.1484 92.507 76.2228 89.0264 74.7601V74.7425Z" stroke="#E6E2DE" stroke-width="16" stroke-linejoin="round" mask="url(#path-5-outside-1_1195_340)"/>
<path d="M108.138 78.6811C107.627 77.1391 107.134 75.6499 106.641 74.2225C106.156 72.795 105.689 71.535 105.248 70.4424C105.107 70.0194 104.772 69.7198 104.244 69.526C103.715 69.3409 103.134 69.244 102.49 69.244C102.014 69.244 101.539 69.3057 101.072 69.4202C100.605 69.5348 100.252 69.6581 100.014 69.7815C99.7323 70.5217 99.3975 71.4204 99.0098 72.469C98.6221 73.5264 98.2079 74.6454 97.7674 75.8173C97.3268 76.9981 96.9127 78.1612 96.5073 79.3155C96.1108 80.4698 95.7407 81.5448 95.3971 82.5317C95.0534 83.5186 94.7803 84.338 94.56 84.9989C94.4807 85.2985 94.4014 85.554 94.3397 85.7743C94.2692 85.9946 94.234 86.2149 94.234 86.4352C94.234 86.911 94.4102 87.2723 94.7538 87.5102C95.1063 87.7481 95.5733 87.8714 96.1725 87.8714C96.4721 87.8714 96.7276 87.845 96.9479 87.8009C97.1682 87.7481 97.3708 87.6952 97.5471 87.6335C97.644 87.3163 97.7674 86.9374 97.9083 86.5145C98.0493 86.0827 98.1991 85.6245 98.3577 85.1399C98.5163 84.6553 98.6661 84.1706 98.8071 83.686C98.86 83.5098 98.9129 83.3423 98.9569 83.1749H105.918L106.94 86.4087C107.099 86.911 107.31 87.2723 107.583 87.519C107.856 87.7569 108.297 87.8803 108.914 87.8803C109.354 87.8803 109.733 87.8098 110.068 87.6688C110.394 87.5278 110.65 87.3516 110.835 87.1313C110.473 85.9594 110.059 84.6376 109.592 83.1837C109.125 81.7298 108.632 80.2319 108.13 78.6811H108.138ZM100.569 77.8352C100.922 76.8042 101.257 75.8173 101.583 74.8569C101.909 73.8964 102.208 73.0505 102.464 72.3192H102.614C102.816 72.9536 103.063 73.7202 103.363 74.6102C103.662 75.5001 103.979 76.4518 104.305 77.4827C104.605 78.4344 104.905 79.3948 105.204 80.3729H99.7059C99.979 79.5622 100.27 78.7251 100.569 77.844V77.8352Z" stroke="#E6E2DE" stroke-width="16" stroke-linejoin="round" mask="url(#path-5-outside-1_1195_340)"/>
<path d="M131.551 73.606C130.705 73.2712 129.753 73.095 128.696 73.095C127.559 73.095 126.563 73.28 125.718 73.6501C125.092 73.9233 124.537 74.2405 124.061 74.5929C123.603 74.1524 123.039 73.7999 122.352 73.5444C121.532 73.2448 120.633 73.095 119.664 73.095C118.695 73.095 117.814 73.2271 116.915 73.4827C116.016 73.7382 115.267 74.0731 114.668 74.4696C114.245 74.7251 113.945 75.0159 113.752 75.3243C113.558 75.6327 113.47 76.0204 113.47 76.4786V86.1976C113.47 86.7792 113.619 87.1845 113.937 87.4224C114.245 87.6603 114.721 87.7837 115.355 87.7837C115.69 87.7837 115.999 87.7573 116.28 87.7132C116.562 87.6603 116.783 87.6075 116.941 87.5458V76.6636C117.241 76.461 117.62 76.2759 118.078 76.1085C118.536 75.9411 119.038 75.853 119.576 75.853C120.334 75.853 120.951 76.0468 121.426 76.4345C121.902 76.8222 122.14 77.4302 122.14 78.2409V86.1976C122.14 86.7792 122.299 87.1845 122.607 87.4224C122.916 87.6603 123.391 87.7837 124.026 87.7837C124.361 87.7837 124.678 87.7573 124.969 87.7132C125.259 87.6603 125.471 87.6075 125.612 87.5458V77.8532C125.612 77.5448 125.568 77.2452 125.506 76.9544C125.85 76.6548 126.22 76.3993 126.643 76.2054C127.171 75.9675 127.718 75.8442 128.273 75.8442C129.048 75.8442 129.665 76.038 130.123 76.4257C130.582 76.8134 130.811 77.4214 130.811 78.2321V86.1888C130.811 86.7704 130.969 87.1757 131.278 87.4136C131.586 87.6515 132.071 87.7749 132.732 87.7749C133.049 87.7749 133.357 87.7485 133.648 87.7044C133.939 87.6515 134.15 87.5987 134.291 87.537V78.1175C134.291 76.9456 134.044 75.9763 133.56 75.2274C133.075 74.4784 132.405 73.9409 131.56 73.5972L131.551 73.606Z" stroke="#E6E2DE" stroke-width="16" stroke-linejoin="round" mask="url(#path-5-outside-1_1195_340)"/>
<path d="M139.93 67.297C139.349 67.297 138.873 67.4908 138.477 67.8609C138.089 68.2398 137.895 68.7068 137.895 69.2707C137.895 69.8347 138.089 70.2752 138.477 70.6629C138.864 71.0506 139.349 71.2445 139.93 71.2445C140.547 71.2445 141.041 71.0506 141.411 70.6629C141.781 70.2752 141.966 69.8082 141.966 69.2707C141.966 68.7332 141.781 68.2398 141.411 67.8609C141.041 67.482 140.547 67.297 139.93 67.297Z" stroke="#E6E2DE" stroke-width="16" stroke-linejoin="round" mask="url(#path-5-outside-1_1195_340)"/>
<path d="M139.816 73.3945C139.481 73.3945 139.164 73.4209 138.873 73.465C138.582 73.5178 138.362 73.5619 138.203 73.5971V86.1887C138.203 86.7703 138.362 87.1756 138.679 87.4135C138.996 87.6514 139.472 87.7748 140.115 87.7748C140.45 87.7748 140.759 87.7484 141.041 87.7043C141.323 87.6514 141.525 87.5986 141.666 87.5369V75.007C141.666 74.3902 141.516 73.9672 141.217 73.7381C140.917 73.509 140.45 73.3945 139.807 73.3945H139.816Z" stroke="#E6E2DE" stroke-width="16" stroke-linejoin="round" mask="url(#path-5-outside-1_1195_340)"/>
<path d="M156.936 74.3553C156.417 74.0205 155.738 73.7209 154.892 73.4742C154.046 73.2275 153.112 73.1041 152.099 73.1041C150.68 73.1041 149.429 73.3684 148.345 73.8971C147.261 74.4258 146.407 75.21 145.799 76.2586C145.191 77.3072 144.882 78.5936 144.882 80.1357C144.882 81.8275 145.182 83.1932 145.781 84.2154C146.38 85.2463 147.173 85.9865 148.178 86.4447C149.174 86.9029 150.249 87.132 151.412 87.132C152.31 87.132 153.068 87.0174 153.703 86.7883C154.09 86.6473 154.416 86.4975 154.707 86.3389V87.7664C154.707 88.8238 154.363 89.5992 153.694 90.0838C153.015 90.5684 152.073 90.8152 150.857 90.8152C150.002 90.8152 149.2 90.6918 148.451 90.4451C147.702 90.1984 147.094 89.9076 146.609 89.5904C146.389 89.7313 146.204 89.9252 146.037 90.1895C145.878 90.4451 145.799 90.7623 145.799 91.1147C145.799 91.7756 146.125 92.3043 146.786 92.7008C147.12 92.9035 147.676 93.0973 148.442 93.3C149.209 93.5027 150.099 93.5996 151.121 93.5996C152.416 93.5996 153.597 93.4057 154.654 93.018C155.712 92.6303 156.54 92.0135 157.148 91.1764C157.756 90.3393 158.064 89.2379 158.064 87.8897V76.2586C158.064 75.818 157.967 75.4568 157.765 75.166C157.562 74.8752 157.298 74.6109 156.954 74.373L156.936 74.3553ZM151.976 84.4092C150.936 84.4092 150.072 84.092 149.385 83.4488C148.698 82.8143 148.354 81.7041 148.354 80.1268C148.354 78.6906 148.707 77.6156 149.42 76.9107C150.125 76.2057 151.05 75.8445 152.187 75.8445C152.769 75.8445 153.253 75.9061 153.65 76.0383C154.046 76.1705 154.39 76.3203 154.663 76.5053V83.4488C154.416 83.6514 154.143 83.8365 153.826 84.0127C153.35 84.2682 152.733 84.4004 151.976 84.4004V84.4092Z" stroke="#E6E2DE" stroke-width="16" stroke-linejoin="round" mask="url(#path-5-outside-1_1195_340)"/>
<path d="M174.727 76.6019C174.128 75.4829 173.291 74.6194 172.216 74.0114C171.141 73.4034 169.881 73.095 168.444 73.095C167.008 73.095 165.722 73.4034 164.629 74.0114C163.545 74.6194 162.699 75.4741 162.1 76.5843C161.501 77.6946 161.201 79.0075 161.201 80.5495C161.201 82.0915 161.492 83.4132 162.082 84.5235C162.673 85.6425 163.51 86.506 164.594 87.114C165.678 87.722 166.955 88.0304 168.409 88.0304C169.863 88.0304 171.158 87.722 172.233 87.114C173.308 86.506 174.145 85.6425 174.727 84.5235C175.317 83.4044 175.608 82.0827 175.608 80.5495C175.608 79.0163 175.308 77.721 174.709 76.6019H174.727ZM171.123 84.0036C170.471 84.8319 169.572 85.246 168.418 85.246C167.264 85.246 166.365 84.8407 165.73 84.0212C165.096 83.2017 164.77 82.0474 164.77 80.5495C164.77 79.0515 165.096 77.9237 165.757 77.0954C166.418 76.2671 167.299 75.853 168.418 75.853C169.537 75.853 170.48 76.2759 171.123 77.113C171.766 77.9501 172.092 79.0956 172.092 80.5495C172.092 82.0034 171.766 83.1753 171.123 84.0036Z" stroke="#E6E2DE" stroke-width="16" stroke-linejoin="round" mask="url(#path-5-outside-1_1195_340)"/>
</svg>
