<svg width="242" height="182" viewBox="0 0 242 182" fill="none" xmlns="http://www.w3.org/2000/svg">
<rect y="21.0103" width="242" height="160" rx="12" fill="#E6E2DE"/>
<path d="M105.262 96.2173L104.398 93.7533H99.9341L99.0541 96.2173H96.6061L100.926 84.7293H103.582L107.87 96.2173H105.262ZM102.19 87.3853L100.622 91.8173H103.726L102.19 87.3853ZM111.142 96.2173H108.918V87.6733H110.966V88.8893C111.59 88.0253 112.39 87.5133 113.526 87.5133C114.694 87.5133 115.59 88.0573 116.022 89.0333C116.694 88.0893 117.558 87.5133 118.838 87.5133C120.566 87.5133 121.734 88.6493 121.734 90.6973V96.2173H119.526V91.4013C119.526 90.2013 119.014 89.4813 118.038 89.4813C117.158 89.4813 116.438 90.1693 116.438 91.4493V96.2173H114.23V91.4013C114.23 90.2013 113.718 89.4813 112.742 89.4813C111.846 89.4813 111.142 90.1693 111.142 91.4493V96.2173ZM126.052 85.6893C126.052 86.4413 125.444 87.0013 124.564 87.0013C123.7 87.0013 123.092 86.4413 123.092 85.6893C123.092 84.9053 123.7 84.3453 124.564 84.3453C125.444 84.3453 126.052 84.9053 126.052 85.6893ZM125.7 96.2173H123.476V87.6733H125.7V96.2173ZM131.152 99.4653C128.848 99.4653 127.312 98.2173 127.216 96.2493H129.36C129.456 97.2253 130.08 97.7373 131.136 97.7373C132.368 97.7373 133.008 97.0813 133.008 95.8493V94.6013C132.544 95.4173 131.664 95.8973 130.624 95.8973C128.528 95.8973 126.96 94.1213 126.96 91.7053C126.96 89.2253 128.432 87.5133 130.544 87.5133C131.696 87.5133 132.56 87.9613 133.184 88.8413V87.6733H135.216V95.8173C135.216 98.0893 133.68 99.4653 131.152 99.4653ZM129.184 91.7053C129.184 93.0973 129.904 93.9773 131.056 93.9773C132.224 93.9773 132.992 93.0653 132.992 91.7213C132.992 90.3293 132.224 89.4333 131.056 89.4333C129.92 89.4333 129.184 90.3133 129.184 91.7053ZM140.839 96.3773C138.359 96.3773 136.503 94.4253 136.503 91.9453C136.503 89.4493 138.359 87.5133 140.839 87.5133C143.319 87.5133 145.175 89.4493 145.175 91.9453C145.175 94.4253 143.319 96.3773 140.839 96.3773ZM140.839 94.4093C141.943 94.4093 142.887 93.5293 142.887 91.9453C142.887 90.3613 141.943 89.4973 140.839 89.4973C139.735 89.4973 138.791 90.3613 138.791 91.9453C138.791 93.5293 139.735 94.4093 140.839 94.4093Z" fill="#1A1A1A"/>
<path d="M79.3399 116.217L77.2119 108.335L75.0699 116.217H73.4879L70.8699 106.165H72.3819L74.3139 113.907L76.4279 106.165H78.0239L80.1099 113.921L82.0419 106.165H83.5539L80.9359 116.217H79.3399ZM86.961 116.357C84.819 116.357 83.377 114.803 83.377 112.465C83.377 110.267 84.875 108.657 86.919 108.657C89.131 108.657 90.601 110.449 90.349 112.857H84.819C84.931 114.369 85.687 115.251 86.933 115.251C87.983 115.251 88.711 114.677 88.949 113.711H90.349C89.985 115.363 88.711 116.357 86.961 116.357ZM86.891 109.721C85.757 109.721 84.987 110.533 84.833 111.919H88.851C88.781 110.547 88.039 109.721 86.891 109.721ZM98.6564 112.507C98.6564 114.733 97.3684 116.357 95.3664 116.357C94.3164 116.357 93.4204 115.825 92.8884 114.887V116.217H91.5724V106.165H92.9864V110.071C93.5044 109.161 94.3584 108.657 95.3664 108.657C97.3544 108.657 98.6564 110.253 98.6564 112.507ZM97.1864 112.507C97.1864 110.827 96.3044 109.903 95.0864 109.903C93.9104 109.903 92.9864 110.813 92.9864 112.479C92.9864 114.117 93.8824 115.097 95.0864 115.097C96.3044 115.097 97.1864 114.159 97.1864 112.507ZM105.69 114.005C105.69 115.461 104.556 116.357 102.582 116.357C100.622 116.357 99.46 115.391 99.32 113.795H100.678C100.734 114.719 101.476 115.293 102.61 115.293C103.604 115.293 104.262 114.943 104.262 114.243C104.262 113.627 103.884 113.361 102.96 113.179L101.756 112.955C100.384 112.689 99.614 111.989 99.614 110.869C99.614 109.567 100.748 108.657 102.47 108.657C104.248 108.657 105.452 109.609 105.578 111.135H104.22C104.136 110.239 103.478 109.721 102.484 109.721C101.588 109.721 100.986 110.099 100.986 110.743C100.986 111.345 101.364 111.625 102.26 111.793L103.52 112.031C104.99 112.297 105.69 112.941 105.69 114.005ZM108.676 107.075C108.676 107.607 108.256 108.013 107.654 108.013C107.052 108.013 106.618 107.607 106.618 107.075C106.618 106.529 107.052 106.137 107.654 106.137C108.256 106.137 108.676 106.529 108.676 107.075ZM108.368 116.217H106.954V108.797H108.368V116.217ZM114.237 114.845V116.091C113.803 116.287 113.425 116.357 112.977 116.357C111.605 116.357 110.653 115.615 110.653 113.977V110.001H109.015V108.797H110.653V106.599H112.067V108.797H114.307V110.001H112.067V113.655C112.067 114.677 112.557 115.041 113.313 115.041C113.649 115.041 113.943 114.985 114.237 114.845ZM118.223 116.357C116.081 116.357 114.639 114.803 114.639 112.465C114.639 110.267 116.137 108.657 118.181 108.657C120.393 108.657 121.863 110.449 121.611 112.857H116.081C116.193 114.369 116.949 115.251 118.195 115.251C119.245 115.251 119.973 114.677 120.211 113.711H121.611C121.247 115.363 119.973 116.357 118.223 116.357ZM118.153 109.721C117.019 109.721 116.249 110.533 116.095 111.919H120.113C120.043 110.547 119.301 109.721 118.153 109.721ZM128.77 116.217H125.592V106.165H128.77C131.976 106.165 133.824 108.209 133.824 111.149C133.824 114.047 131.906 116.217 128.77 116.217ZM127.132 107.495V114.887H128.7C131.01 114.887 132.256 113.459 132.256 111.149C132.256 108.881 131.024 107.495 128.7 107.495H127.132ZM138.096 116.357C135.954 116.357 134.512 114.803 134.512 112.465C134.512 110.267 136.01 108.657 138.054 108.657C140.266 108.657 141.736 110.449 141.484 112.857H135.954C136.066 114.369 136.822 115.251 138.068 115.251C139.118 115.251 139.846 114.677 140.084 113.711H141.484C141.12 115.363 139.846 116.357 138.096 116.357ZM138.026 109.721C136.892 109.721 136.122 110.533 135.968 111.919H139.986C139.916 110.547 139.174 109.721 138.026 109.721ZM148.587 114.005C148.587 115.461 147.453 116.357 145.479 116.357C143.519 116.357 142.357 115.391 142.217 113.795H143.575C143.631 114.719 144.373 115.293 145.507 115.293C146.501 115.293 147.159 114.943 147.159 114.243C147.159 113.627 146.781 113.361 145.857 113.179L144.653 112.955C143.281 112.689 142.511 111.989 142.511 110.869C142.511 109.567 143.645 108.657 145.367 108.657C147.145 108.657 148.349 109.609 148.475 111.135H147.117C147.033 110.239 146.375 109.721 145.381 109.721C144.485 109.721 143.883 110.099 143.883 110.743C143.883 111.345 144.261 111.625 145.157 111.793L146.417 112.031C147.887 112.297 148.587 112.941 148.587 114.005ZM151.573 107.075C151.573 107.607 151.153 108.013 150.551 108.013C149.949 108.013 149.515 107.607 149.515 107.075C149.515 106.529 149.949 106.137 150.551 106.137C151.153 106.137 151.573 106.529 151.573 107.075ZM151.265 116.217H149.851V108.797H151.265V116.217ZM155.916 119.073C153.97 119.073 152.71 118.037 152.626 116.357H153.998C154.082 117.393 154.754 117.953 155.902 117.953C157.176 117.953 157.848 117.267 157.848 115.993V114.649C157.428 115.545 156.588 116.063 155.58 116.063C153.732 116.063 152.416 114.537 152.416 112.353C152.416 110.141 153.676 108.657 155.538 108.657C156.602 108.657 157.442 109.175 157.946 110.113V108.797H159.262V115.965C159.262 117.911 158.016 119.073 155.916 119.073ZM153.844 112.353C153.844 113.893 154.6 114.831 155.832 114.831C157.036 114.831 157.848 113.865 157.848 112.395C157.848 110.855 157.05 109.875 155.832 109.875C154.614 109.875 153.844 110.827 153.844 112.353ZM162.354 112.031V116.217H160.94V108.797H162.256V110.029C162.76 109.203 163.6 108.657 164.622 108.657C166.148 108.657 167.156 109.637 167.156 111.415V116.217H165.742V111.891C165.742 110.617 165.182 109.903 164.132 109.903C163.166 109.903 162.354 110.715 162.354 112.031ZM170.671 115.615C170.671 116.945 169.621 117.981 168.081 118.009V117.211C168.991 117.183 169.607 116.693 169.691 116.007C169.565 116.049 169.481 116.063 169.383 116.063C168.851 116.063 168.459 115.629 168.459 115.111C168.459 114.509 168.907 114.117 169.481 114.117C170.251 114.117 170.671 114.677 170.671 115.615ZM77.4068 129.717H75.4608V133.217H73.9208V123.165H77.4068C79.6608 123.165 81.1168 124.313 81.1168 126.413C81.1168 128.527 79.6608 129.717 77.4068 129.717ZM77.3928 124.467H75.4608V128.415H77.3928C78.7508 128.415 79.5768 127.673 79.5768 126.427C79.5768 125.181 78.7508 124.467 77.3928 124.467ZM83.6791 129.423V133.217H82.2651V125.797H83.5811V127.365C84.0991 126.343 85.2191 125.699 86.4371 125.699V127.169C84.8411 127.085 83.6791 127.785 83.6791 129.423ZM90.3568 133.357C88.2568 133.357 86.7168 131.705 86.7168 129.507C86.7168 127.309 88.2568 125.657 90.3568 125.657C92.4568 125.657 93.9968 127.309 93.9968 129.507C93.9968 131.705 92.4568 133.357 90.3568 133.357ZM90.3568 132.111C91.5748 132.111 92.5408 131.131 92.5408 129.507C92.5408 127.883 91.5748 126.917 90.3568 126.917C89.1388 126.917 88.1868 127.883 88.1868 129.507C88.1868 131.131 89.1388 132.111 90.3568 132.111ZM94.6262 129.507C94.6262 127.253 95.9142 125.657 97.9162 125.657C98.9102 125.657 99.7782 126.161 100.296 127.071V123.165H101.71V133.217H100.394V131.887C99.8622 132.825 98.9662 133.357 97.9162 133.357C95.9142 133.357 94.6262 131.733 94.6262 129.507ZM96.0962 129.507C96.0962 131.159 96.9642 132.097 98.1962 132.097C99.4002 132.097 100.296 131.117 100.296 129.479C100.296 127.813 99.3722 126.903 98.1962 126.903C96.9642 126.903 96.0962 127.827 96.0962 129.507ZM108.03 130.165V125.797H109.444V133.217H108.128V132.041C107.736 132.811 106.868 133.357 105.86 133.357C104.362 133.357 103.326 132.475 103.326 130.571V125.797H104.74V130.291C104.74 131.579 105.384 132.111 106.308 132.111C107.26 132.111 108.03 131.327 108.03 130.165ZM114.054 133.371C112.024 133.371 110.596 131.775 110.596 129.507C110.596 127.267 112.052 125.657 114.054 125.657C115.888 125.657 117.218 126.875 117.484 128.807H116C115.846 127.617 115.104 126.903 114.068 126.903C112.85 126.903 112.052 127.939 112.052 129.507C112.052 131.089 112.85 132.111 114.068 132.111C115.118 132.111 115.846 131.411 116.014 130.207H117.484C117.232 132.167 115.916 133.371 114.054 133.371ZM122.813 131.845V133.091C122.379 133.287 122.001 133.357 121.553 133.357C120.181 133.357 119.229 132.615 119.229 130.977V127.001H117.591V125.797H119.229V123.599H120.643V125.797H122.883V127.001H120.643V130.655C120.643 131.677 121.133 132.041 121.889 132.041C122.225 132.041 122.519 131.985 122.813 131.845ZM129.888 133.217H126.71V123.165H129.888C133.094 123.165 134.942 125.209 134.942 128.149C134.942 131.047 133.024 133.217 129.888 133.217ZM128.25 124.495V131.887H129.818C132.128 131.887 133.374 130.459 133.374 128.149C133.374 125.881 132.142 124.495 129.818 124.495H128.25ZM139.214 133.357C137.072 133.357 135.63 131.803 135.63 129.465C135.63 127.267 137.128 125.657 139.172 125.657C141.384 125.657 142.854 127.449 142.602 129.857H137.072C137.184 131.369 137.94 132.251 139.186 132.251C140.236 132.251 140.964 131.677 141.202 130.711H142.602C142.238 132.363 140.964 133.357 139.214 133.357ZM139.144 126.721C138.01 126.721 137.24 127.533 137.086 128.919H141.104C141.034 127.547 140.292 126.721 139.144 126.721ZM149.705 131.005C149.705 132.461 148.571 133.357 146.597 133.357C144.637 133.357 143.475 132.391 143.335 130.795H144.693C144.749 131.719 145.491 132.293 146.625 132.293C147.619 132.293 148.277 131.943 148.277 131.243C148.277 130.627 147.899 130.361 146.975 130.179L145.771 129.955C144.399 129.689 143.629 128.989 143.629 127.869C143.629 126.567 144.763 125.657 146.485 125.657C148.263 125.657 149.467 126.609 149.593 128.135H148.235C148.151 127.239 147.493 126.721 146.499 126.721C145.603 126.721 145.001 127.099 145.001 127.743C145.001 128.345 145.379 128.625 146.275 128.793L147.535 129.031C149.005 129.297 149.705 129.941 149.705 131.005ZM152.691 124.075C152.691 124.607 152.271 125.013 151.669 125.013C151.067 125.013 150.633 124.607 150.633 124.075C150.633 123.529 151.067 123.137 151.669 123.137C152.271 123.137 152.691 123.529 152.691 124.075ZM152.383 133.217H150.969V125.797H152.383V133.217ZM157.034 136.073C155.088 136.073 153.828 135.037 153.744 133.357H155.116C155.2 134.393 155.872 134.953 157.02 134.953C158.294 134.953 158.966 134.267 158.966 132.993V131.649C158.546 132.545 157.706 133.063 156.698 133.063C154.85 133.063 153.534 131.537 153.534 129.353C153.534 127.141 154.794 125.657 156.656 125.657C157.72 125.657 158.56 126.175 159.064 127.113V125.797H160.38V132.965C160.38 134.911 159.134 136.073 157.034 136.073ZM154.962 129.353C154.962 130.893 155.718 131.831 156.95 131.831C158.154 131.831 158.966 130.865 158.966 129.395C158.966 127.855 158.168 126.875 156.95 126.875C155.732 126.875 154.962 127.827 154.962 129.353ZM163.471 129.031V133.217H162.057V125.797H163.373V127.029C163.877 126.203 164.717 125.657 165.739 125.657C167.265 125.657 168.273 126.637 168.273 128.415V133.217H166.859V128.891C166.859 127.617 166.299 126.903 165.249 126.903C164.283 126.903 163.471 127.715 163.471 129.031Z" fill="#1A1A1A"/>
<circle cx="139.5" cy="9.51025" r="6.5" fill="#E6E2DE"/>
<mask id="path-5-outside-1_1114_163" maskUnits="userSpaceOnUse" x="58" y="-0.989746" width="126" height="44" fill="black">
<rect fill="white" x="58" y="-0.989746" width="126" height="44"/>
<path d="M75.3952 8.13982L71.0336 9.97261C68.9452 10.8538 68.628 13.4884 70.0731 14.907L68.6104 15.5238C65.1299 16.9865 65.1299 21.9121 68.6104 23.3749L70.2405 24.0621C68.6016 25.4367 68.8659 28.2476 71.0336 29.1552L75.3952 30.988C76.3997 31.4109 77.51 30.6707 77.51 29.5781V9.54084C77.51 8.44822 76.3997 7.70806 75.3952 8.13101V8.13982Z"/>
<path d="M89.0264 15.7527L87.3963 15.0654C89.0353 13.6908 88.7709 10.88 86.6033 9.9724L82.2416 8.13961C81.2371 7.71666 80.1269 8.45683 80.1269 9.54945V29.5955C80.1269 30.6882 81.2371 31.4283 82.2416 31.0054L86.6033 29.1726C88.6916 28.2914 89.0088 25.6568 87.5637 24.2382L89.0264 23.6214C92.507 22.1587 92.507 17.2331 89.0264 15.7703V15.7527Z"/>
<path d="M108.138 19.6913C107.627 18.1493 107.134 16.6602 106.641 15.2327C106.156 13.8053 105.689 12.5452 105.248 11.4526C105.107 11.0297 104.772 10.7301 104.244 10.5362C103.715 10.3512 103.134 10.2542 102.49 10.2542C102.014 10.2542 101.539 10.3159 101.072 10.4305C100.605 10.545 100.252 10.6684 100.014 10.7917C99.7323 11.5319 99.3975 12.4307 99.0098 13.4792C98.6221 14.5366 98.2079 15.6557 97.7674 16.8276C97.3268 18.0083 96.9127 19.1715 96.5073 20.3258C96.1108 21.4801 95.7407 22.5551 95.3971 23.5419C95.0534 24.5288 94.7803 25.3483 94.56 26.0092C94.4807 26.3087 94.4014 26.5643 94.3397 26.7846C94.2692 27.0048 94.234 27.2251 94.234 27.4454C94.234 27.9212 94.4102 28.2825 94.7538 28.5204C95.1063 28.7583 95.5733 28.8817 96.1725 28.8817C96.4721 28.8817 96.7276 28.8553 96.9479 28.8112C97.1682 28.7583 97.3708 28.7055 97.5471 28.6438C97.644 28.3266 97.7674 27.9477 97.9083 27.5247C98.0493 27.093 98.1991 26.6348 98.3577 26.1501C98.5163 25.6655 98.6661 25.1809 98.8071 24.6962C98.86 24.52 98.9129 24.3526 98.9569 24.1852H105.918L106.94 27.419C107.099 27.9212 107.31 28.2825 107.583 28.5292C107.856 28.7671 108.297 28.8905 108.914 28.8905C109.354 28.8905 109.733 28.82 110.068 28.679C110.394 28.538 110.65 28.3618 110.835 28.1415C110.473 26.9696 110.059 25.6479 109.592 24.194C109.125 22.7401 108.632 21.2421 108.13 19.6913H108.138ZM100.569 18.8454C100.922 17.8145 101.257 16.8276 101.583 15.8672C101.909 14.9067 102.208 14.0608 102.464 13.3294H102.614C102.816 13.9639 103.063 14.7305 103.363 15.6204C103.662 16.5104 103.979 17.462 104.305 18.493C104.605 19.4446 104.905 20.4051 105.204 21.3831H99.7059C99.979 20.5725 100.27 19.7354 100.569 18.8542V18.8454Z"/>
<path d="M131.551 14.6163C130.705 14.2815 129.753 14.1052 128.696 14.1052C127.559 14.1052 126.563 14.2903 125.718 14.6604C125.092 14.9335 124.537 15.2507 124.061 15.6032C123.603 15.1626 123.039 14.8101 122.352 14.5546C121.532 14.255 120.633 14.1052 119.664 14.1052C118.695 14.1052 117.814 14.2374 116.915 14.4929C116.016 14.7485 115.267 15.0833 114.668 15.4798C114.245 15.7354 113.945 16.0261 113.752 16.3345C113.558 16.6429 113.47 17.0306 113.47 17.4888V27.2079C113.47 27.7894 113.619 28.1948 113.937 28.4327C114.245 28.6706 114.721 28.794 115.355 28.794C115.69 28.794 115.999 28.7675 116.28 28.7235C116.562 28.6706 116.783 28.6177 116.941 28.556V17.6739C117.241 17.4712 117.62 17.2862 118.078 17.1188C118.536 16.9513 119.038 16.8632 119.576 16.8632C120.334 16.8632 120.951 17.0571 121.426 17.4448C121.902 17.8325 122.14 18.4405 122.14 19.2511V27.2079C122.14 27.7894 122.299 28.1948 122.607 28.4327C122.916 28.6706 123.391 28.794 124.026 28.794C124.361 28.794 124.678 28.7675 124.969 28.7235C125.259 28.6706 125.471 28.6177 125.612 28.556V18.8634C125.612 18.555 125.568 18.2554 125.506 17.9647C125.85 17.6651 126.22 17.4095 126.643 17.2157C127.171 16.9778 127.718 16.8544 128.273 16.8544C129.048 16.8544 129.665 17.0483 130.123 17.436C130.582 17.8237 130.811 18.4317 130.811 19.2423V27.1991C130.811 27.7806 130.969 28.186 131.278 28.4239C131.586 28.6618 132.071 28.7851 132.732 28.7851C133.049 28.7851 133.357 28.7587 133.648 28.7146C133.939 28.6618 134.15 28.6089 134.291 28.5472V19.1278C134.291 17.9558 134.044 16.9866 133.56 16.2376C133.075 15.4886 132.405 14.9511 131.56 14.6075L131.551 14.6163Z"/>
<path d="M139.93 8.30721C139.349 8.30721 138.873 8.50107 138.477 8.87115C138.089 9.25004 137.895 9.71705 137.895 10.281C137.895 10.8449 138.089 11.2855 138.477 11.6732C138.864 12.0609 139.349 12.2548 139.93 12.2548C140.547 12.2548 141.041 12.0609 141.411 11.6732C141.781 11.2855 141.966 10.8185 141.966 10.281C141.966 9.74348 141.781 9.25004 141.411 8.87115C141.041 8.49225 140.547 8.30721 139.93 8.30721Z"/>
<path d="M139.816 14.4047C139.481 14.4047 139.164 14.4312 138.873 14.4752C138.582 14.5281 138.362 14.5722 138.203 14.6074V27.199C138.203 27.7805 138.362 28.1859 138.679 28.4238C138.996 28.6617 139.472 28.7851 140.115 28.7851C140.45 28.7851 140.759 28.7586 141.041 28.7146C141.323 28.6617 141.525 28.6088 141.666 28.5471V16.0172C141.666 15.4004 141.516 14.9775 141.217 14.7484C140.917 14.5193 140.45 14.4047 139.807 14.4047H139.816Z"/>
<path d="M156.936 15.3656C156.417 15.0307 155.738 14.7312 154.892 14.4844C154.046 14.2377 153.112 14.1144 152.099 14.1144C150.68 14.1144 149.429 14.3787 148.345 14.9074C147.261 15.4361 146.407 16.2203 145.799 17.2689C145.191 18.3174 144.882 19.6039 144.882 21.1459C144.882 22.8377 145.182 24.2035 145.781 25.2256C146.38 26.2566 147.173 26.9967 148.178 27.4549C149.174 27.9131 150.249 28.1422 151.412 28.1422C152.31 28.1422 153.068 28.0277 153.703 27.7986C154.09 27.6576 154.416 27.5078 154.707 27.3492V28.7766C154.707 29.834 154.363 30.6094 153.694 31.0941C153.015 31.5787 152.073 31.8254 150.857 31.8254C150.002 31.8254 149.2 31.702 148.451 31.4553C147.702 31.2086 147.094 30.9178 146.609 30.6006C146.389 30.7416 146.204 30.9354 146.037 31.1998C145.878 31.4553 145.799 31.7725 145.799 32.125C145.799 32.7859 146.125 33.3145 146.786 33.7111C147.12 33.9137 147.676 34.1076 148.442 34.3102C149.209 34.5129 150.099 34.6098 151.121 34.6098C152.416 34.6098 153.597 34.416 154.654 34.0283C155.712 33.6406 156.54 33.0238 157.148 32.1867C157.756 31.3496 158.064 30.2482 158.064 28.9V17.2689C158.064 16.8283 157.967 16.467 157.765 16.1762C157.562 15.8855 157.298 15.6211 156.954 15.3832L156.936 15.3656ZM151.976 25.4195C150.936 25.4195 150.072 25.1023 149.385 24.459C148.698 23.8246 148.354 22.7143 148.354 21.1371C148.354 19.7008 148.707 18.6258 149.42 17.9209C150.125 17.216 151.05 16.8547 152.187 16.8547C152.769 16.8547 153.253 16.9164 153.65 17.0486C154.046 17.1807 154.39 17.3305 154.663 17.5156V24.459C154.416 24.6617 154.143 24.8467 153.826 25.023C153.35 25.2785 152.733 25.4107 151.976 25.4107V25.4195Z"/>
<path d="M174.727 17.6122C174.128 16.4931 173.291 15.6296 172.216 15.0216C171.141 14.4136 169.881 14.1052 168.444 14.1052C167.008 14.1052 165.722 14.4136 164.629 15.0216C163.545 15.6296 162.699 16.4843 162.1 17.5946C161.501 18.7048 161.201 20.0177 161.201 21.5597C161.201 23.1017 161.492 24.4235 162.082 25.5337C162.673 26.6528 163.51 27.5163 164.594 28.1243C165.678 28.7323 166.955 29.0407 168.409 29.0407C169.863 29.0407 171.158 28.7323 172.233 28.1243C173.308 27.5163 174.145 26.6528 174.727 25.5337C175.317 24.4146 175.608 23.0929 175.608 21.5597C175.608 20.0265 175.308 18.7313 174.709 17.6122H174.727ZM171.123 25.0138C170.471 25.8421 169.572 26.2562 168.418 26.2562C167.264 26.2562 166.365 25.8509 165.73 25.0315C165.096 24.212 164.77 23.0577 164.77 21.5597C164.77 20.0618 165.096 18.9339 165.757 18.1056C166.418 17.2774 167.299 16.8632 168.418 16.8632C169.537 16.8632 170.48 17.2862 171.123 18.1233C171.766 18.9604 172.092 20.1058 172.092 21.5597C172.092 23.0136 171.766 24.1856 171.123 25.0138Z"/>
</mask>
<path d="M75.3952 8.13982L71.0336 9.97261C68.9452 10.8538 68.628 13.4884 70.0731 14.907L68.6104 15.5238C65.1299 16.9865 65.1299 21.9121 68.6104 23.3749L70.2405 24.0621C68.6016 25.4367 68.8659 28.2476 71.0336 29.1552L75.3952 30.988C76.3997 31.4109 77.51 30.6707 77.51 29.5781V9.54084C77.51 8.44822 76.3997 7.70806 75.3952 8.13101V8.13982Z" fill="#1A1A1A"/>
<path d="M89.0264 15.7527L87.3963 15.0654C89.0353 13.6908 88.7709 10.88 86.6033 9.9724L82.2416 8.13961C81.2371 7.71666 80.1269 8.45683 80.1269 9.54945V29.5955C80.1269 30.6882 81.2371 31.4283 82.2416 31.0054L86.6033 29.1726C88.6916 28.2914 89.0088 25.6568 87.5637 24.2382L89.0264 23.6214C92.507 22.1587 92.507 17.2331 89.0264 15.7703V15.7527Z" fill="#1A1A1A"/>
<path d="M108.138 19.6913C107.627 18.1493 107.134 16.6602 106.641 15.2327C106.156 13.8053 105.689 12.5452 105.248 11.4526C105.107 11.0297 104.772 10.7301 104.244 10.5362C103.715 10.3512 103.134 10.2542 102.49 10.2542C102.014 10.2542 101.539 10.3159 101.072 10.4305C100.605 10.545 100.252 10.6684 100.014 10.7917C99.7323 11.5319 99.3975 12.4307 99.0098 13.4792C98.6221 14.5366 98.2079 15.6557 97.7674 16.8276C97.3268 18.0083 96.9127 19.1715 96.5073 20.3258C96.1108 21.4801 95.7407 22.5551 95.3971 23.5419C95.0534 24.5288 94.7803 25.3483 94.56 26.0092C94.4807 26.3087 94.4014 26.5643 94.3397 26.7846C94.2692 27.0048 94.234 27.2251 94.234 27.4454C94.234 27.9212 94.4102 28.2825 94.7538 28.5204C95.1063 28.7583 95.5733 28.8817 96.1725 28.8817C96.4721 28.8817 96.7276 28.8553 96.9479 28.8112C97.1682 28.7583 97.3708 28.7055 97.5471 28.6438C97.644 28.3266 97.7674 27.9477 97.9083 27.5247C98.0493 27.093 98.1991 26.6348 98.3577 26.1501C98.5163 25.6655 98.6661 25.1809 98.8071 24.6962C98.86 24.52 98.9129 24.3526 98.9569 24.1852H105.918L106.94 27.419C107.099 27.9212 107.31 28.2825 107.583 28.5292C107.856 28.7671 108.297 28.8905 108.914 28.8905C109.354 28.8905 109.733 28.82 110.068 28.679C110.394 28.538 110.65 28.3618 110.835 28.1415C110.473 26.9696 110.059 25.6479 109.592 24.194C109.125 22.7401 108.632 21.2421 108.13 19.6913H108.138ZM100.569 18.8454C100.922 17.8145 101.257 16.8276 101.583 15.8672C101.909 14.9067 102.208 14.0608 102.464 13.3294H102.614C102.816 13.9639 103.063 14.7305 103.363 15.6204C103.662 16.5104 103.979 17.462 104.305 18.493C104.605 19.4446 104.905 20.4051 105.204 21.3831H99.7059C99.979 20.5725 100.27 19.7354 100.569 18.8542V18.8454Z" fill="#1A1A1A"/>
<path d="M131.551 14.6163C130.705 14.2815 129.753 14.1052 128.696 14.1052C127.559 14.1052 126.563 14.2903 125.718 14.6604C125.092 14.9335 124.537 15.2507 124.061 15.6032C123.603 15.1626 123.039 14.8101 122.352 14.5546C121.532 14.255 120.633 14.1052 119.664 14.1052C118.695 14.1052 117.814 14.2374 116.915 14.4929C116.016 14.7485 115.267 15.0833 114.668 15.4798C114.245 15.7354 113.945 16.0261 113.752 16.3345C113.558 16.6429 113.47 17.0306 113.47 17.4888V27.2079C113.47 27.7894 113.619 28.1948 113.937 28.4327C114.245 28.6706 114.721 28.794 115.355 28.794C115.69 28.794 115.999 28.7675 116.28 28.7235C116.562 28.6706 116.783 28.6177 116.941 28.556V17.6739C117.241 17.4712 117.62 17.2862 118.078 17.1188C118.536 16.9513 119.038 16.8632 119.576 16.8632C120.334 16.8632 120.951 17.0571 121.426 17.4448C121.902 17.8325 122.14 18.4405 122.14 19.2511V27.2079C122.14 27.7894 122.299 28.1948 122.607 28.4327C122.916 28.6706 123.391 28.794 124.026 28.794C124.361 28.794 124.678 28.7675 124.969 28.7235C125.259 28.6706 125.471 28.6177 125.612 28.556V18.8634C125.612 18.555 125.568 18.2554 125.506 17.9647C125.85 17.6651 126.22 17.4095 126.643 17.2157C127.171 16.9778 127.718 16.8544 128.273 16.8544C129.048 16.8544 129.665 17.0483 130.123 17.436C130.582 17.8237 130.811 18.4317 130.811 19.2423V27.1991C130.811 27.7806 130.969 28.186 131.278 28.4239C131.586 28.6618 132.071 28.7851 132.732 28.7851C133.049 28.7851 133.357 28.7587 133.648 28.7146C133.939 28.6618 134.15 28.6089 134.291 28.5472V19.1278C134.291 17.9558 134.044 16.9866 133.56 16.2376C133.075 15.4886 132.405 14.9511 131.56 14.6075L131.551 14.6163Z" fill="#1A1A1A"/>
<path d="M139.93 8.30721C139.349 8.30721 138.873 8.50107 138.477 8.87115C138.089 9.25004 137.895 9.71705 137.895 10.281C137.895 10.8449 138.089 11.2855 138.477 11.6732C138.864 12.0609 139.349 12.2548 139.93 12.2548C140.547 12.2548 141.041 12.0609 141.411 11.6732C141.781 11.2855 141.966 10.8185 141.966 10.281C141.966 9.74348 141.781 9.25004 141.411 8.87115C141.041 8.49225 140.547 8.30721 139.93 8.30721Z" fill="#1A1A1A"/>
<path d="M139.816 14.4047C139.481 14.4047 139.164 14.4312 138.873 14.4752C138.582 14.5281 138.362 14.5722 138.203 14.6074V27.199C138.203 27.7805 138.362 28.1859 138.679 28.4238C138.996 28.6617 139.472 28.7851 140.115 28.7851C140.45 28.7851 140.759 28.7586 141.041 28.7146C141.323 28.6617 141.525 28.6088 141.666 28.5471V16.0172C141.666 15.4004 141.516 14.9775 141.217 14.7484C140.917 14.5193 140.45 14.4047 139.807 14.4047H139.816Z" fill="#1A1A1A"/>
<path d="M156.936 15.3656C156.417 15.0307 155.738 14.7312 154.892 14.4844C154.046 14.2377 153.112 14.1144 152.099 14.1144C150.68 14.1144 149.429 14.3787 148.345 14.9074C147.261 15.4361 146.407 16.2203 145.799 17.2689C145.191 18.3174 144.882 19.6039 144.882 21.1459C144.882 22.8377 145.182 24.2035 145.781 25.2256C146.38 26.2566 147.173 26.9967 148.178 27.4549C149.174 27.9131 150.249 28.1422 151.412 28.1422C152.31 28.1422 153.068 28.0277 153.703 27.7986C154.09 27.6576 154.416 27.5078 154.707 27.3492V28.7766C154.707 29.834 154.363 30.6094 153.694 31.0941C153.015 31.5787 152.073 31.8254 150.857 31.8254C150.002 31.8254 149.2 31.702 148.451 31.4553C147.702 31.2086 147.094 30.9178 146.609 30.6006C146.389 30.7416 146.204 30.9354 146.037 31.1998C145.878 31.4553 145.799 31.7725 145.799 32.125C145.799 32.7859 146.125 33.3145 146.786 33.7111C147.12 33.9137 147.676 34.1076 148.442 34.3102C149.209 34.5129 150.099 34.6098 151.121 34.6098C152.416 34.6098 153.597 34.416 154.654 34.0283C155.712 33.6406 156.54 33.0238 157.148 32.1867C157.756 31.3496 158.064 30.2482 158.064 28.9V17.2689C158.064 16.8283 157.967 16.467 157.765 16.1762C157.562 15.8855 157.298 15.6211 156.954 15.3832L156.936 15.3656ZM151.976 25.4195C150.936 25.4195 150.072 25.1023 149.385 24.459C148.698 23.8246 148.354 22.7143 148.354 21.1371C148.354 19.7008 148.707 18.6258 149.42 17.9209C150.125 17.216 151.05 16.8547 152.187 16.8547C152.769 16.8547 153.253 16.9164 153.65 17.0486C154.046 17.1807 154.39 17.3305 154.663 17.5156V24.459C154.416 24.6617 154.143 24.8467 153.826 25.023C153.35 25.2785 152.733 25.4107 151.976 25.4107V25.4195Z" fill="#1A1A1A"/>
<path d="M174.727 17.6122C174.128 16.4931 173.291 15.6296 172.216 15.0216C171.141 14.4136 169.881 14.1052 168.444 14.1052C167.008 14.1052 165.722 14.4136 164.629 15.0216C163.545 15.6296 162.699 16.4843 162.1 17.5946C161.501 18.7048 161.201 20.0177 161.201 21.5597C161.201 23.1017 161.492 24.4235 162.082 25.5337C162.673 26.6528 163.51 27.5163 164.594 28.1243C165.678 28.7323 166.955 29.0407 168.409 29.0407C169.863 29.0407 171.158 28.7323 172.233 28.1243C173.308 27.5163 174.145 26.6528 174.727 25.5337C175.317 24.4146 175.608 23.0929 175.608 21.5597C175.608 20.0265 175.308 18.7313 174.709 17.6122H174.727ZM171.123 25.0138C170.471 25.8421 169.572 26.2562 168.418 26.2562C167.264 26.2562 166.365 25.8509 165.73 25.0315C165.096 24.212 164.77 23.0577 164.77 21.5597C164.77 20.0618 165.096 18.9339 165.757 18.1056C166.418 17.2774 167.299 16.8632 168.418 16.8632C169.537 16.8632 170.48 17.2862 171.123 18.1233C171.766 18.9604 172.092 20.1058 172.092 21.5597C172.092 23.0136 171.766 24.1856 171.123 25.0138Z" fill="#1A1A1A"/>
<path d="M75.3952 8.13982L71.0336 9.97261C68.9452 10.8538 68.628 13.4884 70.0731 14.907L68.6104 15.5238C65.1299 16.9865 65.1299 21.9121 68.6104 23.3749L70.2405 24.0621C68.6016 25.4367 68.8659 28.2476 71.0336 29.1552L75.3952 30.988C76.3997 31.4109 77.51 30.6707 77.51 29.5781V9.54084C77.51 8.44822 76.3997 7.70806 75.3952 8.13101V8.13982Z" stroke="#E6E2DE" stroke-width="16" stroke-linejoin="round" mask="url(#path-5-outside-1_1114_163)"/>
<path d="M89.0264 15.7527L87.3963 15.0654C89.0353 13.6908 88.7709 10.88 86.6033 9.9724L82.2416 8.13961C81.2371 7.71666 80.1269 8.45683 80.1269 9.54945V29.5955C80.1269 30.6882 81.2371 31.4283 82.2416 31.0054L86.6033 29.1726C88.6916 28.2914 89.0088 25.6568 87.5637 24.2382L89.0264 23.6214C92.507 22.1587 92.507 17.2331 89.0264 15.7703V15.7527Z" stroke="#E6E2DE" stroke-width="16" stroke-linejoin="round" mask="url(#path-5-outside-1_1114_163)"/>
<path d="M108.138 19.6913C107.627 18.1493 107.134 16.6602 106.641 15.2327C106.156 13.8053 105.689 12.5452 105.248 11.4526C105.107 11.0297 104.772 10.7301 104.244 10.5362C103.715 10.3512 103.134 10.2542 102.49 10.2542C102.014 10.2542 101.539 10.3159 101.072 10.4305C100.605 10.545 100.252 10.6684 100.014 10.7917C99.7323 11.5319 99.3975 12.4307 99.0098 13.4792C98.6221 14.5366 98.2079 15.6557 97.7674 16.8276C97.3268 18.0083 96.9127 19.1715 96.5073 20.3258C96.1108 21.4801 95.7407 22.5551 95.3971 23.5419C95.0534 24.5288 94.7803 25.3483 94.56 26.0092C94.4807 26.3087 94.4014 26.5643 94.3397 26.7846C94.2692 27.0048 94.234 27.2251 94.234 27.4454C94.234 27.9212 94.4102 28.2825 94.7538 28.5204C95.1063 28.7583 95.5733 28.8817 96.1725 28.8817C96.4721 28.8817 96.7276 28.8553 96.9479 28.8112C97.1682 28.7583 97.3708 28.7055 97.5471 28.6438C97.644 28.3266 97.7674 27.9477 97.9083 27.5247C98.0493 27.093 98.1991 26.6348 98.3577 26.1501C98.5163 25.6655 98.6661 25.1809 98.8071 24.6962C98.86 24.52 98.9129 24.3526 98.9569 24.1852H105.918L106.94 27.419C107.099 27.9212 107.31 28.2825 107.583 28.5292C107.856 28.7671 108.297 28.8905 108.914 28.8905C109.354 28.8905 109.733 28.82 110.068 28.679C110.394 28.538 110.65 28.3618 110.835 28.1415C110.473 26.9696 110.059 25.6479 109.592 24.194C109.125 22.7401 108.632 21.2421 108.13 19.6913H108.138ZM100.569 18.8454C100.922 17.8145 101.257 16.8276 101.583 15.8672C101.909 14.9067 102.208 14.0608 102.464 13.3294H102.614C102.816 13.9639 103.063 14.7305 103.363 15.6204C103.662 16.5104 103.979 17.462 104.305 18.493C104.605 19.4446 104.905 20.4051 105.204 21.3831H99.7059C99.979 20.5725 100.27 19.7354 100.569 18.8542V18.8454Z" stroke="#E6E2DE" stroke-width="16" stroke-linejoin="round" mask="url(#path-5-outside-1_1114_163)"/>
<path d="M131.551 14.6163C130.705 14.2815 129.753 14.1052 128.696 14.1052C127.559 14.1052 126.563 14.2903 125.718 14.6604C125.092 14.9335 124.537 15.2507 124.061 15.6032C123.603 15.1626 123.039 14.8101 122.352 14.5546C121.532 14.255 120.633 14.1052 119.664 14.1052C118.695 14.1052 117.814 14.2374 116.915 14.4929C116.016 14.7485 115.267 15.0833 114.668 15.4798C114.245 15.7354 113.945 16.0261 113.752 16.3345C113.558 16.6429 113.47 17.0306 113.47 17.4888V27.2079C113.47 27.7894 113.619 28.1948 113.937 28.4327C114.245 28.6706 114.721 28.794 115.355 28.794C115.69 28.794 115.999 28.7675 116.28 28.7235C116.562 28.6706 116.783 28.6177 116.941 28.556V17.6739C117.241 17.4712 117.62 17.2862 118.078 17.1188C118.536 16.9513 119.038 16.8632 119.576 16.8632C120.334 16.8632 120.951 17.0571 121.426 17.4448C121.902 17.8325 122.14 18.4405 122.14 19.2511V27.2079C122.14 27.7894 122.299 28.1948 122.607 28.4327C122.916 28.6706 123.391 28.794 124.026 28.794C124.361 28.794 124.678 28.7675 124.969 28.7235C125.259 28.6706 125.471 28.6177 125.612 28.556V18.8634C125.612 18.555 125.568 18.2554 125.506 17.9647C125.85 17.6651 126.22 17.4095 126.643 17.2157C127.171 16.9778 127.718 16.8544 128.273 16.8544C129.048 16.8544 129.665 17.0483 130.123 17.436C130.582 17.8237 130.811 18.4317 130.811 19.2423V27.1991C130.811 27.7806 130.969 28.186 131.278 28.4239C131.586 28.6618 132.071 28.7851 132.732 28.7851C133.049 28.7851 133.357 28.7587 133.648 28.7146C133.939 28.6618 134.15 28.6089 134.291 28.5472V19.1278C134.291 17.9558 134.044 16.9866 133.56 16.2376C133.075 15.4886 132.405 14.9511 131.56 14.6075L131.551 14.6163Z" stroke="#E6E2DE" stroke-width="16" stroke-linejoin="round" mask="url(#path-5-outside-1_1114_163)"/>
<path d="M139.93 8.30721C139.349 8.30721 138.873 8.50107 138.477 8.87115C138.089 9.25004 137.895 9.71705 137.895 10.281C137.895 10.8449 138.089 11.2855 138.477 11.6732C138.864 12.0609 139.349 12.2548 139.93 12.2548C140.547 12.2548 141.041 12.0609 141.411 11.6732C141.781 11.2855 141.966 10.8185 141.966 10.281C141.966 9.74348 141.781 9.25004 141.411 8.87115C141.041 8.49225 140.547 8.30721 139.93 8.30721Z" stroke="#E6E2DE" stroke-width="16" stroke-linejoin="round" mask="url(#path-5-outside-1_1114_163)"/>
<path d="M139.816 14.4047C139.481 14.4047 139.164 14.4312 138.873 14.4752C138.582 14.5281 138.362 14.5722 138.203 14.6074V27.199C138.203 27.7805 138.362 28.1859 138.679 28.4238C138.996 28.6617 139.472 28.7851 140.115 28.7851C140.45 28.7851 140.759 28.7586 141.041 28.7146C141.323 28.6617 141.525 28.6088 141.666 28.5471V16.0172C141.666 15.4004 141.516 14.9775 141.217 14.7484C140.917 14.5193 140.45 14.4047 139.807 14.4047H139.816Z" stroke="#E6E2DE" stroke-width="16" stroke-linejoin="round" mask="url(#path-5-outside-1_1114_163)"/>
<path d="M156.936 15.3656C156.417 15.0307 155.738 14.7312 154.892 14.4844C154.046 14.2377 153.112 14.1144 152.099 14.1144C150.68 14.1144 149.429 14.3787 148.345 14.9074C147.261 15.4361 146.407 16.2203 145.799 17.2689C145.191 18.3174 144.882 19.6039 144.882 21.1459C144.882 22.8377 145.182 24.2035 145.781 25.2256C146.38 26.2566 147.173 26.9967 148.178 27.4549C149.174 27.9131 150.249 28.1422 151.412 28.1422C152.31 28.1422 153.068 28.0277 153.703 27.7986C154.09 27.6576 154.416 27.5078 154.707 27.3492V28.7766C154.707 29.834 154.363 30.6094 153.694 31.0941C153.015 31.5787 152.073 31.8254 150.857 31.8254C150.002 31.8254 149.2 31.702 148.451 31.4553C147.702 31.2086 147.094 30.9178 146.609 30.6006C146.389 30.7416 146.204 30.9354 146.037 31.1998C145.878 31.4553 145.799 31.7725 145.799 32.125C145.799 32.7859 146.125 33.3145 146.786 33.7111C147.12 33.9137 147.676 34.1076 148.442 34.3102C149.209 34.5129 150.099 34.6098 151.121 34.6098C152.416 34.6098 153.597 34.416 154.654 34.0283C155.712 33.6406 156.54 33.0238 157.148 32.1867C157.756 31.3496 158.064 30.2482 158.064 28.9V17.2689C158.064 16.8283 157.967 16.467 157.765 16.1762C157.562 15.8855 157.298 15.6211 156.954 15.3832L156.936 15.3656ZM151.976 25.4195C150.936 25.4195 150.072 25.1023 149.385 24.459C148.698 23.8246 148.354 22.7143 148.354 21.1371C148.354 19.7008 148.707 18.6258 149.42 17.9209C150.125 17.216 151.05 16.8547 152.187 16.8547C152.769 16.8547 153.253 16.9164 153.65 17.0486C154.046 17.1807 154.39 17.3305 154.663 17.5156V24.459C154.416 24.6617 154.143 24.8467 153.826 25.023C153.35 25.2785 152.733 25.4107 151.976 25.4107V25.4195Z" stroke="#E6E2DE" stroke-width="16" stroke-linejoin="round" mask="url(#path-5-outside-1_1114_163)"/>
<path d="M174.727 17.6122C174.128 16.4931 173.291 15.6296 172.216 15.0216C171.141 14.4136 169.881 14.1052 168.444 14.1052C167.008 14.1052 165.722 14.4136 164.629 15.0216C163.545 15.6296 162.699 16.4843 162.1 17.5946C161.501 18.7048 161.201 20.0177 161.201 21.5597C161.201 23.1017 161.492 24.4235 162.082 25.5337C162.673 26.6528 163.51 27.5163 164.594 28.1243C165.678 28.7323 166.955 29.0407 168.409 29.0407C169.863 29.0407 171.158 28.7323 172.233 28.1243C173.308 27.5163 174.145 26.6528 174.727 25.5337C175.317 24.4146 175.608 23.0929 175.608 21.5597C175.608 20.0265 175.308 18.7313 174.709 17.6122H174.727ZM171.123 25.0138C170.471 25.8421 169.572 26.2562 168.418 26.2562C167.264 26.2562 166.365 25.8509 165.73 25.0315C165.096 24.212 164.77 23.0577 164.77 21.5597C164.77 20.0618 165.096 18.9339 165.757 18.1056C166.418 17.2774 167.299 16.8632 168.418 16.8632C169.537 16.8632 170.48 17.2862 171.123 18.1233C171.766 18.9604 172.092 20.1058 172.092 21.5597C172.092 23.0136 171.766 24.1856 171.123 25.0138Z" stroke="#E6E2DE" stroke-width="16" stroke-linejoin="round" mask="url(#path-5-outside-1_1114_163)"/>
</svg>
