<svg width="242" height="240" viewBox="0 0 242 240" fill="none" xmlns="http://www.w3.org/2000/svg">
<rect y="80" width="242" height="160" rx="12" fill="#E6E2DE"/>
<path d="M113.495 154.559L112.631 152.095H108.167L107.287 154.559H104.839L109.159 143.071H111.815L116.103 154.559H113.495ZM110.423 145.727L108.855 150.159H111.959L110.423 145.727ZM119.374 150.415V154.559H117.15V146.015H119.198V147.663C119.822 146.575 121.15 145.919 122.526 145.919V148.223C120.638 148.079 119.374 148.527 119.374 150.415ZM125.745 150.415V154.559H123.521V146.015H125.569V147.663C126.193 146.575 127.521 145.919 128.897 145.919V148.223C127.009 148.079 125.745 148.527 125.745 150.415ZM133.606 154.719C131.126 154.719 129.27 152.767 129.27 150.287C129.27 147.791 131.126 145.855 133.606 145.855C136.086 145.855 137.942 147.791 137.942 150.287C137.942 152.767 136.086 154.719 133.606 154.719ZM133.606 152.751C134.71 152.751 135.654 151.871 135.654 150.287C135.654 148.703 134.71 147.839 133.606 147.839C132.502 147.839 131.558 148.703 131.558 150.287C131.558 151.871 132.502 152.751 133.606 152.751Z" fill="#1A1A1A"/>
<path d="M79.8399 174.559L77.7119 166.677L75.5699 174.559H73.9879L71.3699 164.507H72.8819L74.8139 172.249L76.9279 164.507H78.5239L80.6099 172.263L82.5419 164.507H84.0539L81.4359 174.559H79.8399ZM87.461 174.699C85.319 174.699 83.877 173.145 83.877 170.807C83.877 168.609 85.375 166.999 87.419 166.999C89.631 166.999 91.101 168.791 90.849 171.199H85.319C85.431 172.711 86.187 173.593 87.433 173.593C88.483 173.593 89.211 173.019 89.449 172.053H90.849C90.485 173.705 89.211 174.699 87.461 174.699ZM87.391 168.063C86.257 168.063 85.487 168.875 85.333 170.261H89.351C89.281 168.889 88.539 168.063 87.391 168.063ZM99.1564 170.849C99.1564 173.075 97.8684 174.699 95.8664 174.699C94.8164 174.699 93.9204 174.167 93.3884 173.229V174.559H92.0724V164.507H93.4864V168.413C94.0044 167.503 94.8584 166.999 95.8664 166.999C97.8544 166.999 99.1564 168.595 99.1564 170.849ZM97.6864 170.849C97.6864 169.169 96.8044 168.245 95.5864 168.245C94.4104 168.245 93.4864 169.155 93.4864 170.821C93.4864 172.459 94.3824 173.439 95.5864 173.439C96.8044 173.439 97.6864 172.501 97.6864 170.849ZM106.19 172.347C106.19 173.803 105.056 174.699 103.082 174.699C101.122 174.699 99.96 173.733 99.82 172.137H101.178C101.234 173.061 101.976 173.635 103.11 173.635C104.104 173.635 104.762 173.285 104.762 172.585C104.762 171.969 104.384 171.703 103.46 171.521L102.256 171.297C100.884 171.031 100.114 170.331 100.114 169.211C100.114 167.909 101.248 166.999 102.97 166.999C104.748 166.999 105.952 167.951 106.078 169.477H104.72C104.636 168.581 103.978 168.063 102.984 168.063C102.088 168.063 101.486 168.441 101.486 169.085C101.486 169.687 101.864 169.967 102.76 170.135L104.02 170.373C105.49 170.639 106.19 171.283 106.19 172.347ZM109.176 165.417C109.176 165.949 108.756 166.355 108.154 166.355C107.552 166.355 107.118 165.949 107.118 165.417C107.118 164.871 107.552 164.479 108.154 164.479C108.756 164.479 109.176 164.871 109.176 165.417ZM108.868 174.559H107.454V167.139H108.868V174.559ZM114.737 173.187V174.433C114.303 174.629 113.925 174.699 113.477 174.699C112.105 174.699 111.153 173.957 111.153 172.319V168.343H109.515V167.139H111.153V164.941H112.567V167.139H114.807V168.343H112.567V171.997C112.567 173.019 113.057 173.383 113.813 173.383C114.149 173.383 114.443 173.327 114.737 173.187ZM118.723 174.699C116.581 174.699 115.139 173.145 115.139 170.807C115.139 168.609 116.637 166.999 118.681 166.999C120.893 166.999 122.363 168.791 122.111 171.199H116.581C116.693 172.711 117.449 173.593 118.695 173.593C119.745 173.593 120.473 173.019 120.711 172.053H122.111C121.747 173.705 120.473 174.699 118.723 174.699ZM118.653 168.063C117.519 168.063 116.749 168.875 116.595 170.261H120.613C120.543 168.889 119.801 168.063 118.653 168.063ZM129.27 174.559H126.092V164.507H129.27C132.476 164.507 134.324 166.551 134.324 169.491C134.324 172.389 132.406 174.559 129.27 174.559ZM127.632 165.837V173.229H129.2C131.51 173.229 132.756 171.801 132.756 169.491C132.756 167.223 131.524 165.837 129.2 165.837H127.632ZM138.596 174.699C136.454 174.699 135.012 173.145 135.012 170.807C135.012 168.609 136.51 166.999 138.554 166.999C140.766 166.999 142.236 168.791 141.984 171.199H136.454C136.566 172.711 137.322 173.593 138.568 173.593C139.618 173.593 140.346 173.019 140.584 172.053H141.984C141.62 173.705 140.346 174.699 138.596 174.699ZM138.526 168.063C137.392 168.063 136.622 168.875 136.468 170.261H140.486C140.416 168.889 139.674 168.063 138.526 168.063ZM149.087 172.347C149.087 173.803 147.953 174.699 145.979 174.699C144.019 174.699 142.857 173.733 142.717 172.137H144.075C144.131 173.061 144.873 173.635 146.007 173.635C147.001 173.635 147.659 173.285 147.659 172.585C147.659 171.969 147.281 171.703 146.357 171.521L145.153 171.297C143.781 171.031 143.011 170.331 143.011 169.211C143.011 167.909 144.145 166.999 145.867 166.999C147.645 166.999 148.849 167.951 148.975 169.477H147.617C147.533 168.581 146.875 168.063 145.881 168.063C144.985 168.063 144.383 168.441 144.383 169.085C144.383 169.687 144.761 169.967 145.657 170.135L146.917 170.373C148.387 170.639 149.087 171.283 149.087 172.347ZM152.073 165.417C152.073 165.949 151.653 166.355 151.051 166.355C150.449 166.355 150.015 165.949 150.015 165.417C150.015 164.871 150.449 164.479 151.051 164.479C151.653 164.479 152.073 164.871 152.073 165.417ZM151.765 174.559H150.351V167.139H151.765V174.559ZM156.416 177.415C154.47 177.415 153.21 176.379 153.126 174.699H154.498C154.582 175.735 155.254 176.295 156.402 176.295C157.676 176.295 158.348 175.609 158.348 174.335V172.991C157.928 173.887 157.088 174.405 156.08 174.405C154.232 174.405 152.916 172.879 152.916 170.695C152.916 168.483 154.176 166.999 156.038 166.999C157.102 166.999 157.942 167.517 158.446 168.455V167.139H159.762V174.307C159.762 176.253 158.516 177.415 156.416 177.415ZM154.344 170.695C154.344 172.235 155.1 173.173 156.332 173.173C157.536 173.173 158.348 172.207 158.348 170.737C158.348 169.197 157.55 168.217 156.332 168.217C155.114 168.217 154.344 169.169 154.344 170.695ZM162.854 170.373V174.559H161.44V167.139H162.756V168.371C163.26 167.545 164.1 166.999 165.122 166.999C166.648 166.999 167.656 167.979 167.656 169.757V174.559H166.242V170.233C166.242 168.959 165.682 168.245 164.632 168.245C163.666 168.245 162.854 169.057 162.854 170.373ZM171.171 173.957C171.171 175.287 170.121 176.323 168.581 176.351V175.553C169.491 175.525 170.107 175.035 170.191 174.349C170.065 174.391 169.981 174.405 169.883 174.405C169.351 174.405 168.959 173.971 168.959 173.453C168.959 172.851 169.407 172.459 169.981 172.459C170.751 172.459 171.171 173.019 171.171 173.957ZM66.6706 188.675C66.6706 190.509 65.3266 191.559 63.2406 191.559H59.5586V181.507H63.0446C65.0746 181.507 66.2926 182.445 66.2926 184.139C66.2926 185.091 65.7186 185.903 64.7526 186.323C65.9986 186.673 66.6706 187.527 66.6706 188.675ZM62.9466 182.739H60.9726V185.763H62.9466C64.1646 185.763 64.8226 185.189 64.8226 184.251C64.8226 183.313 64.1646 182.739 62.9466 182.739ZM63.1426 186.995H60.9726V190.327H63.1426C64.4586 190.327 65.2006 189.697 65.2006 188.633C65.2006 187.611 64.4586 186.995 63.1426 186.995ZM69.4674 187.765V191.559H68.0534V184.139H69.3694V185.707C69.8874 184.685 71.0074 184.041 72.2254 184.041V185.511C70.6294 185.427 69.4674 186.127 69.4674 187.765ZM77.5584 191.559V190.411C77.0964 191.237 76.2704 191.699 75.1784 191.699C73.6384 191.699 72.6304 190.817 72.6304 189.459C72.6304 188.003 73.7924 187.247 76.0044 187.247C76.4384 187.247 76.7884 187.261 77.3904 187.331V186.785C77.3904 185.721 76.8164 185.119 75.8364 185.119C74.8004 185.119 74.1704 185.735 74.1284 186.771H72.8404C72.9104 185.105 74.1004 183.999 75.8364 183.999C77.6704 183.999 78.7344 185.035 78.7344 186.799V191.559H77.5584ZM73.9744 189.417C73.9744 190.187 74.5484 190.691 75.4584 190.691C76.6484 190.691 77.3904 189.949 77.3904 188.815V188.213C76.8444 188.143 76.4524 188.129 76.0884 188.129C74.6744 188.129 73.9744 188.549 73.9744 189.417ZM81.7589 187.373V191.559H80.3449V184.139H81.6609V185.371C82.1649 184.545 83.0049 183.999 84.0269 183.999C85.5529 183.999 86.5609 184.979 86.5609 186.757V191.559H85.1469V187.233C85.1469 185.959 84.5869 185.245 83.5369 185.245C82.5709 185.245 81.7589 186.057 81.7589 187.373ZM87.6267 187.849C87.6267 185.595 88.9147 183.999 90.9167 183.999C91.9107 183.999 92.7787 184.503 93.2967 185.413V181.507H94.7107V191.559H93.3947V190.229C92.8627 191.167 91.9667 191.699 90.9167 191.699C88.9147 191.699 87.6267 190.075 87.6267 187.849ZM89.0967 187.849C89.0967 189.501 89.9647 190.439 91.1967 190.439C92.4007 190.439 93.2967 189.459 93.2967 187.821C93.2967 186.155 92.3727 185.245 91.1967 185.245C89.9647 185.245 89.0967 186.169 89.0967 187.849ZM98.1182 182.417C98.1182 182.949 97.6982 183.355 97.0962 183.355C96.4942 183.355 96.0602 182.949 96.0602 182.417C96.0602 181.871 96.4942 181.479 97.0962 181.479C97.6982 181.479 98.1182 181.871 98.1182 182.417ZM97.8102 191.559H96.3962V184.139H97.8102V191.559ZM100.907 187.373V191.559H99.4932V184.139H100.809V185.371C101.313 184.545 102.153 183.999 103.175 183.999C104.701 183.999 105.709 184.979 105.709 186.757V191.559H104.295V187.233C104.295 185.959 103.735 185.245 102.685 185.245C101.719 185.245 100.907 186.057 100.907 187.373ZM110.275 194.415C108.329 194.415 107.069 193.379 106.985 191.699H108.357C108.441 192.735 109.113 193.295 110.261 193.295C111.535 193.295 112.207 192.609 112.207 191.335V189.991C111.787 190.887 110.947 191.405 109.939 191.405C108.091 191.405 106.775 189.879 106.775 187.695C106.775 185.483 108.035 183.999 109.897 183.999C110.961 183.999 111.801 184.517 112.305 185.455V184.139H113.621V191.307C113.621 193.253 112.375 194.415 110.275 194.415ZM108.203 187.695C108.203 189.235 108.959 190.173 110.191 190.173C111.395 190.173 112.207 189.207 112.207 187.737C112.207 186.197 111.409 185.217 110.191 185.217C108.973 185.217 108.203 186.169 108.203 187.695ZM122.438 191.769C119.638 191.769 117.468 189.487 117.468 186.519C117.468 183.565 119.638 181.297 122.438 181.297C124.958 181.297 126.974 182.977 127.352 185.455H125.714C125.434 183.831 124.118 182.683 122.452 182.683C120.464 182.683 119.064 184.293 119.064 186.519C119.064 188.773 120.464 190.383 122.452 190.383C124.118 190.383 125.434 189.221 125.714 187.597H127.352C126.974 190.089 124.958 191.769 122.438 191.769ZM131.669 191.699C129.569 191.699 128.029 190.047 128.029 187.849C128.029 185.651 129.569 183.999 131.669 183.999C133.769 183.999 135.309 185.651 135.309 187.849C135.309 190.047 133.769 191.699 131.669 191.699ZM131.669 190.453C132.887 190.453 133.853 189.473 133.853 187.849C133.853 186.225 132.887 185.259 131.669 185.259C130.451 185.259 129.499 186.225 129.499 187.849C129.499 189.473 130.451 190.453 131.669 190.453ZM137.898 191.559H136.47V181.507H137.898V191.559ZM141.009 191.559H139.581V181.507H141.009V191.559ZM147.185 191.559V190.411C146.723 191.237 145.897 191.699 144.805 191.699C143.265 191.699 142.257 190.817 142.257 189.459C142.257 188.003 143.419 187.247 145.631 187.247C146.065 187.247 146.415 187.261 147.017 187.331V186.785C147.017 185.721 146.443 185.119 145.463 185.119C144.427 185.119 143.797 185.735 143.755 186.771H142.467C142.537 185.105 143.727 183.999 145.463 183.999C147.297 183.999 148.361 185.035 148.361 186.799V191.559H147.185ZM143.601 189.417C143.601 190.187 144.175 190.691 145.085 190.691C146.275 190.691 147.017 189.949 147.017 188.815V188.213C146.471 188.143 146.079 188.129 145.715 188.129C144.301 188.129 143.601 188.549 143.601 189.417ZM154.09 190.187V191.433C153.656 191.629 153.278 191.699 152.83 191.699C151.458 191.699 150.506 190.957 150.506 189.319V185.343H148.868V184.139H150.506V181.941H151.92V184.139H154.16V185.343H151.92V188.997C151.92 190.019 152.41 190.383 153.166 190.383C153.502 190.383 153.796 190.327 154.09 190.187ZM158.076 191.699C155.934 191.699 154.492 190.145 154.492 187.807C154.492 185.609 155.99 183.999 158.034 183.999C160.246 183.999 161.716 185.791 161.464 188.199H155.934C156.046 189.711 156.802 190.593 158.048 190.593C159.098 190.593 159.826 190.019 160.064 189.053H161.464C161.1 190.705 159.826 191.699 158.076 191.699ZM158.006 185.063C156.872 185.063 156.102 185.875 155.948 187.261H159.966C159.896 185.889 159.154 185.063 158.006 185.063ZM164.101 187.765V191.559H162.687V184.139H164.003V185.707C164.521 184.685 165.641 184.041 166.859 184.041V185.511C165.263 185.427 164.101 186.127 164.101 187.765ZM172.192 191.559V190.411C171.73 191.237 170.904 191.699 169.812 191.699C168.272 191.699 167.264 190.817 167.264 189.459C167.264 188.003 168.426 187.247 170.638 187.247C171.072 187.247 171.422 187.261 172.024 187.331V186.785C172.024 185.721 171.45 185.119 170.47 185.119C169.434 185.119 168.804 185.735 168.762 186.771H167.474C167.544 185.105 168.734 183.999 170.47 183.999C172.304 183.999 173.368 185.035 173.368 186.799V191.559H172.192ZM168.608 189.417C168.608 190.187 169.182 190.691 170.092 190.691C171.282 190.691 172.024 189.949 172.024 188.815V188.213C171.478 188.143 171.086 188.129 170.722 188.129C169.308 188.129 168.608 188.549 168.608 189.417ZM176.407 191.559H174.979V181.507H176.407V191.559ZM183.97 189.347C183.97 190.803 182.836 191.699 180.862 191.699C178.902 191.699 177.74 190.733 177.6 189.137H178.958C179.014 190.061 179.756 190.635 180.89 190.635C181.884 190.635 182.542 190.285 182.542 189.585C182.542 188.969 182.164 188.703 181.24 188.521L180.036 188.297C178.664 188.031 177.894 187.331 177.894 186.211C177.894 184.909 179.028 183.999 180.75 183.999C182.528 183.999 183.732 184.951 183.858 186.477H182.5C182.416 185.581 181.758 185.063 180.764 185.063C179.868 185.063 179.266 185.441 179.266 186.085C179.266 186.687 179.644 186.967 180.54 187.135L181.8 187.373C183.27 187.639 183.97 188.283 183.97 189.347Z" fill="#1A1A1A"/>
<mask id="path-4-outside-1_1195_510" maskUnits="userSpaceOnUse" x="70" y="60" width="102" height="39" fill="black">
<rect fill="white" x="70" y="60" width="102" height="39"/>
<path fill-rule="evenodd" clip-rule="evenodd" d="M149.173 86.3134L159.194 76.1723C159.808 77.3012 160.152 78.6201 160.152 80.0176V80.0773C160.152 84.1832 157.258 87.5047 153.11 87.5047C151.616 87.5047 150.275 87.0651 149.173 86.3107M157.017 73.7191L146.979 83.8765C146.354 82.7449 146.008 81.4233 146.008 80.0149V79.9552C146.008 75.8494 148.902 72.4953 153.051 72.4953C154.558 72.4953 155.909 72.9484 157.017 73.7191ZM122.83 90.5115H127.4V83.787H130.991L135.442 90.5115H140.784L135.711 83.0054C138.352 82.0149 140.162 79.882 140.162 76.4898V76.4301C140.162 74.4491 139.537 72.7965 138.382 71.6269C137.017 70.2456 134.968 69.4939 132.329 69.4939H122.833V73.6676H131.943C134.169 73.6676 135.534 74.6879 135.534 76.6689V76.7286C135.534 78.5007 134.257 79.7001 132.031 79.7001H122.833V90.5088L122.83 90.5115ZM103.112 90.5115H107.681V83.787H111.272L115.724 90.5115H121.066L115.992 83.0054C118.633 82.0149 120.444 79.882 120.444 76.4898V76.4301C120.444 74.4491 119.819 72.7965 118.663 71.6269C117.298 70.2456 115.249 69.4939 112.61 69.4939H103.114V73.6676H112.224C114.45 73.6676 115.815 74.6879 115.815 76.6689V76.7286C115.815 78.5007 114.538 79.7001 112.313 79.7001H103.114V90.5088L103.112 90.5115ZM78.0027 90.5115L87.3994 69.4939H92.2211L101.65 90.5115H96.528L89.7781 74.27L83.0014 90.5115H78H78.0027ZM161.678 69.0027L159.594 71.1113C157.829 69.8385 155.617 69.0841 153.107 69.0841C146.69 69.0841 142.155 74.0692 142.155 80.0149V80.0746C142.155 82.5224 142.914 84.7992 144.255 86.6282L142.235 88.6716L144.536 91L146.58 88.9322C148.341 90.1967 150.546 90.9457 153.048 90.9457C159.463 90.9457 164 85.9634 164 80.0149V79.9552C164 77.5129 163.246 75.2442 161.914 73.4179L163.979 71.3284L161.678 69V69.0027Z"/>
</mask>
<path fill-rule="evenodd" clip-rule="evenodd" d="M149.173 86.3134L159.194 76.1723C159.808 77.3012 160.152 78.6201 160.152 80.0176V80.0773C160.152 84.1832 157.258 87.5047 153.11 87.5047C151.616 87.5047 150.275 87.0651 149.173 86.3107M157.017 73.7191L146.979 83.8765C146.354 82.7449 146.008 81.4233 146.008 80.0149V79.9552C146.008 75.8494 148.902 72.4953 153.051 72.4953C154.558 72.4953 155.909 72.9484 157.017 73.7191ZM122.83 90.5115H127.4V83.787H130.991L135.442 90.5115H140.784L135.711 83.0054C138.352 82.0149 140.162 79.882 140.162 76.4898V76.4301C140.162 74.4491 139.537 72.7965 138.382 71.6269C137.017 70.2456 134.968 69.4939 132.329 69.4939H122.833V73.6676H131.943C134.169 73.6676 135.534 74.6879 135.534 76.6689V76.7286C135.534 78.5007 134.257 79.7001 132.031 79.7001H122.833V90.5088L122.83 90.5115ZM103.112 90.5115H107.681V83.787H111.272L115.724 90.5115H121.066L115.992 83.0054C118.633 82.0149 120.444 79.882 120.444 76.4898V76.4301C120.444 74.4491 119.819 72.7965 118.663 71.6269C117.298 70.2456 115.249 69.4939 112.61 69.4939H103.114V73.6676H112.224C114.45 73.6676 115.815 74.6879 115.815 76.6689V76.7286C115.815 78.5007 114.538 79.7001 112.313 79.7001H103.114V90.5088L103.112 90.5115ZM78.0027 90.5115L87.3994 69.4939H92.2211L101.65 90.5115H96.528L89.7781 74.27L83.0014 90.5115H78H78.0027ZM161.678 69.0027L159.594 71.1113C157.829 69.8385 155.617 69.0841 153.107 69.0841C146.69 69.0841 142.155 74.0692 142.155 80.0149V80.0746C142.155 82.5224 142.914 84.7992 144.255 86.6282L142.235 88.6716L144.536 91L146.58 88.9322C148.341 90.1967 150.546 90.9457 153.048 90.9457C159.463 90.9457 164 85.9634 164 80.0149V79.9552C164 77.5129 163.246 75.2442 161.914 73.4179L163.979 71.3284L161.678 69V69.0027Z" fill="#1A1A1A"/>
<path d="M159.194 76.1723L166.222 72.3494C165.012 70.126 162.822 68.6061 160.316 68.2513C157.809 67.8965 155.283 68.7487 153.504 70.5491L159.194 76.1723ZM157.017 73.7191L162.707 79.3424C164.366 77.6633 165.199 75.3372 164.983 72.9866C164.767 70.636 163.524 68.5008 161.586 67.1525L157.017 73.7191ZM146.979 83.8765L139.976 87.7435C141.195 89.9516 143.384 91.4554 145.883 91.801C148.381 92.1467 150.896 91.2938 152.669 89.4997L146.979 83.8765ZM122.83 90.5115L117.138 84.8905C114.871 87.1863 114.205 90.6193 115.449 93.5963C116.693 96.5733 119.604 98.5115 122.83 98.5115V90.5115ZM127.4 90.5115V98.5115C131.818 98.5115 135.4 94.9298 135.4 90.5115H127.4ZM127.4 83.787V75.787C122.982 75.787 119.4 79.3687 119.4 83.787H127.4ZM130.991 83.787L137.661 79.371C136.18 77.1329 133.675 75.787 130.991 75.787V83.787ZM135.442 90.5115L128.772 94.9276C130.253 97.1656 132.758 98.5115 135.442 98.5115V90.5115ZM140.784 90.5115V98.5115C143.744 98.5115 146.462 96.8776 147.85 94.2638C149.238 91.65 149.07 88.4833 147.412 86.0314L140.784 90.5115ZM135.711 83.0054L132.902 75.5147C130.607 76.3751 128.834 78.2395 128.089 80.574C127.344 82.9084 127.71 85.4555 129.083 87.4856L135.711 83.0054ZM122.833 69.4939V61.4939C118.415 61.4939 114.833 65.0756 114.833 69.4939H122.833ZM122.833 73.6676H114.833C114.833 78.0858 118.415 81.6676 122.833 81.6676V73.6676ZM122.833 79.7001V71.7001C118.415 71.7001 114.833 75.2819 114.833 79.7001H122.833ZM122.833 90.5088L128.525 96.1299C130.004 94.6326 130.833 92.6131 130.833 90.5088H122.833ZM103.112 90.5115L97.4213 84.8883C95.153 87.1837 94.4859 90.6171 95.7297 93.5949C96.9735 96.5726 99.8845 98.5115 103.112 98.5115V90.5115ZM107.681 90.5115V98.5115C112.1 98.5115 115.681 94.9298 115.681 90.5115H107.681ZM107.681 83.787V75.787C103.263 75.787 99.6812 79.3687 99.6812 83.787H107.681ZM111.272 83.787L117.943 79.371C116.461 77.1329 113.956 75.787 111.272 75.787V83.787ZM115.724 90.5115L109.053 94.9276C110.535 97.1656 113.04 98.5115 115.724 98.5115V90.5115ZM121.066 90.5115V98.5115C124.025 98.5115 126.743 96.8776 128.131 94.2638C129.519 91.65 129.351 88.4833 127.694 86.0314L121.066 90.5115ZM115.992 83.0054L113.183 75.5147C110.889 76.3751 109.115 78.2395 108.37 80.574C107.626 82.9084 107.992 85.4555 109.364 87.4856L115.992 83.0054ZM103.114 69.4939V61.4939C98.696 61.4939 95.1143 65.0756 95.1143 69.4939H103.114ZM103.114 73.6676H95.1143C95.1143 78.0858 98.696 81.6676 103.114 81.6676V73.6676ZM103.114 79.7001V71.7001C98.696 71.7001 95.1143 75.2819 95.1143 79.7001H103.114ZM103.114 90.5088L108.805 96.132C110.284 94.6346 111.114 92.6141 111.114 90.5088H103.114ZM78.0027 90.5115V98.5115C81.1578 98.5115 84.0182 96.6571 85.306 93.7768L78.0027 90.5115ZM87.3994 69.4939V61.4939C84.2443 61.4939 81.3839 63.3483 80.0961 66.2287L87.3994 69.4939ZM92.2211 69.4939L99.5203 66.2194C98.2304 63.344 95.3726 61.4939 92.2211 61.4939V69.4939ZM101.65 90.5115V98.5115C104.363 98.5115 106.891 97.1366 108.366 94.8592C109.84 92.5818 110.06 89.7123 108.949 87.237L101.65 90.5115ZM96.528 90.5115L89.1406 93.5817C90.381 96.5665 93.2957 98.5115 96.528 98.5115V90.5115ZM89.7781 74.27L97.1655 71.1998C95.9259 68.217 93.014 66.2723 89.7837 66.27C86.5535 66.2677 83.6389 68.2083 82.395 71.1894L89.7781 74.27ZM83.0014 90.5115V98.5115C86.2296 98.5115 89.1414 96.5713 90.3845 93.5921L83.0014 90.5115ZM78 82.5115C73.5817 82.5115 70 86.0933 70 90.5115C70 94.9298 73.5817 98.5115 78 98.5115V90.5115V82.5115ZM161.678 69.0027L167.368 74.6259C168.848 73.1285 169.678 71.108 169.678 69.0027H161.678ZM159.594 71.1113L154.914 77.5996C158.112 79.906 162.513 79.5388 165.284 76.7345L159.594 71.1113ZM144.255 86.6282L149.945 92.2514C152.707 89.456 153.03 85.0679 150.706 81.8983L144.255 86.6282ZM142.235 88.6716L136.545 83.0484C133.465 86.1648 133.465 91.1785 136.545 94.2949L142.235 88.6716ZM144.536 91L138.846 96.6232C140.349 98.1441 142.398 99 144.536 99C146.674 99 148.723 98.1441 150.226 96.6232L144.536 91ZM146.58 88.9322L151.244 82.4329C148.047 80.1381 143.656 80.5096 140.889 83.3089L146.58 88.9322ZM161.914 73.4179L156.223 67.7947C153.465 70.5855 153.139 74.9645 155.451 78.1339L161.914 73.4179ZM163.979 71.3284L169.669 76.9516C172.748 73.8352 172.748 68.8215 169.669 65.7051L163.979 71.3284ZM161.678 69L167.368 63.3768C165.087 61.0691 161.639 60.3673 158.638 61.5999C155.637 62.8326 153.678 65.7557 153.678 69H161.678ZM149.173 86.3134L154.863 91.9367L164.885 81.7955L159.194 76.1723L153.504 70.5491L143.482 80.6902L149.173 86.3134ZM159.194 76.1723L152.167 79.9952C152.148 79.961 152.145 79.944 152.146 79.9481C152.146 79.9514 152.152 79.9742 152.152 80.0176H160.152H168.152C168.152 77.3109 167.487 74.6744 166.222 72.3494L159.194 76.1723ZM160.152 80.0176H152.152V80.0773H160.152H168.152V80.0176H160.152ZM160.152 80.0773H152.152C152.152 80.2511 152.099 80.1306 152.312 79.9005C152.417 79.7868 152.564 79.6757 152.742 79.5975C152.925 79.5172 153.064 79.5047 153.11 79.5047V87.5047V95.5047C162.257 95.5047 168.152 87.9972 168.152 80.0773H160.152ZM153.11 87.5047V79.5047C153.153 79.5047 153.243 79.5121 153.36 79.5484C153.476 79.5843 153.59 79.6393 153.691 79.709L149.173 86.3107L144.654 92.9124C147.086 94.5772 150.002 95.5047 153.11 95.5047V87.5047ZM157.017 73.7191L151.327 68.0959L141.289 78.2533L146.979 83.8765L152.669 89.4997L162.707 79.3424L157.017 73.7191ZM146.979 83.8765L153.982 80.0095C154.005 80.0508 154.012 80.0762 154.013 80.0798C154.014 80.0839 154.008 80.0633 154.008 80.0149H146.008H138.008C138.008 82.7373 138.679 85.3946 139.976 87.7435L146.979 83.8765ZM146.008 80.0149H154.008V79.9552H146.008H138.008V80.0149H146.008ZM146.008 79.9552H154.008C154.008 79.7776 154.064 79.881 153.865 80.0981C153.765 80.2069 153.621 80.318 153.44 80.3979C153.254 80.4803 153.107 80.4953 153.051 80.4953V72.4953V64.4953C143.859 64.4953 138.008 72.0826 138.008 79.9552H146.008ZM153.051 72.4953V80.4953C152.996 80.4953 152.899 80.486 152.777 80.4478C152.658 80.4101 152.545 80.3538 152.447 80.2858L157.017 73.7191L161.586 67.1525C159.152 65.4584 156.208 64.4953 153.051 64.4953V72.4953ZM122.83 90.5115V98.5115H127.4V90.5115V82.5115H122.83V90.5115ZM127.4 90.5115H135.4V83.787H127.4H119.4V90.5115H127.4ZM127.4 83.787V91.787H130.991V83.787V75.787H127.4V83.787ZM130.991 83.787L124.32 88.203L128.772 94.9276L135.442 90.5115L142.113 86.0955L137.661 79.371L130.991 83.787ZM135.442 90.5115V98.5115H140.784V90.5115V82.5115H135.442V90.5115ZM140.784 90.5115L147.412 86.0314L142.338 78.5253L135.711 83.0054L129.083 87.4856L134.157 94.9917L140.784 90.5115ZM135.711 83.0054L138.519 90.4961C141.049 89.5474 143.55 87.9043 145.407 85.3398C147.29 82.7386 148.162 79.6682 148.162 76.4898H140.162H132.162C132.162 76.6229 132.145 76.6 132.185 76.4681C132.227 76.33 132.31 76.1456 132.447 75.9566C132.738 75.5543 133.013 75.4729 132.902 75.5147L135.711 83.0054ZM140.162 76.4898H148.162V76.4301H140.162H132.162V76.4898H140.162ZM140.162 76.4301H148.162C148.162 72.7404 146.965 68.931 144.072 66.0036L138.382 71.6269L132.691 77.2501C132.435 76.9909 132.284 76.7182 132.209 76.5175C132.139 76.3292 132.162 76.2784 132.162 76.4301H140.162ZM138.382 71.6269L144.072 66.0036C140.797 62.6893 136.447 61.4939 132.329 61.4939V69.4939V77.4939C132.901 77.4939 133.143 77.5766 133.149 77.5789C133.15 77.5791 133.136 77.5742 133.11 77.5619C133.084 77.5495 133.048 77.5303 133.003 77.5026C132.911 77.4452 132.802 77.3619 132.691 77.2501L138.382 71.6269ZM132.329 69.4939V61.4939H122.833V69.4939V77.4939H132.329V69.4939ZM122.833 69.4939H114.833V73.6676H122.833H130.833V69.4939H122.833ZM122.833 73.6676V81.6676H131.943V73.6676V65.6676H122.833V73.6676ZM131.943 73.6676V81.6676C131.906 81.6676 131.646 81.6652 131.235 81.5473C130.814 81.4264 130.186 81.1683 129.532 80.6373C128.853 80.086 128.302 79.3657 127.949 78.5546C127.608 77.7704 127.534 77.0928 127.534 76.6689H135.534H143.534C143.534 73.6879 142.409 70.4816 139.614 68.2135C137.077 66.1551 134.139 65.6676 131.943 65.6676V73.6676ZM135.534 76.6689H127.534V76.7286H135.534H143.534V76.6689H135.534ZM135.534 76.7286H127.534C127.534 75.5803 128.016 74.0221 129.357 72.8517C130.584 71.7806 131.76 71.7001 132.031 71.7001V79.7001V87.7001C134.528 87.7001 137.456 87.0199 139.878 84.9061C142.413 82.6929 143.534 79.649 143.534 76.7286H135.534ZM132.031 79.7001V71.7001H122.833V79.7001V87.7001H132.031V79.7001ZM122.833 79.7001H114.833V90.5088H122.833H130.833V79.7001H122.833ZM122.833 90.5088L117.141 84.8878L117.138 84.8905L122.83 90.5115L128.523 96.1326L128.525 96.1299L122.833 90.5088ZM103.112 90.5115V98.5115H107.681V90.5115V82.5115H103.112V90.5115ZM107.681 90.5115H115.681V83.787H107.681H99.6812V90.5115H107.681ZM107.681 83.787V91.787H111.272V83.787V75.787H107.681V83.787ZM111.272 83.787L104.601 88.203L109.053 94.9276L115.724 90.5115L122.394 86.0955L117.943 79.371L111.272 83.787ZM115.724 90.5115V98.5115H121.066V90.5115V82.5115H115.724V90.5115ZM121.066 90.5115L127.694 86.0314L122.62 78.5253L115.992 83.0054L109.364 87.4856L114.438 94.9917L121.066 90.5115ZM115.992 83.0054L118.801 90.4961C121.331 89.5474 123.831 87.9043 125.688 85.3398C127.572 82.7386 128.444 79.6682 128.444 76.4898H120.444H112.444C112.444 76.6229 112.427 76.6 112.467 76.4681C112.509 76.33 112.592 76.1456 112.728 75.9566C113.02 75.5543 113.295 75.4729 113.183 75.5147L115.992 83.0054ZM120.444 76.4898H128.444V76.4301H120.444H112.444V76.4898H120.444ZM120.444 76.4301H128.444C128.444 72.7404 127.246 68.931 124.353 66.0036L118.663 71.6269L112.973 77.2501C112.716 76.9909 112.565 76.7182 112.49 76.5175C112.42 76.3292 112.444 76.2784 112.444 76.4301H120.444ZM118.663 71.6269L124.353 66.0036C121.078 62.6893 116.728 61.4939 112.61 61.4939V69.4939V77.4939C113.183 77.4939 113.424 77.5766 113.431 77.5789C113.431 77.5791 113.417 77.5742 113.392 77.5619C113.366 77.5495 113.329 77.5303 113.285 77.5026C113.193 77.4452 113.083 77.3619 112.973 77.2501L118.663 71.6269ZM112.61 69.4939V61.4939H103.114V69.4939V77.4939H112.61V69.4939ZM103.114 69.4939H95.1143V73.6676H103.114H111.114V69.4939H103.114ZM103.114 73.6676V81.6676H112.224V73.6676V65.6676H103.114V73.6676ZM112.224 73.6676V81.6676C112.187 81.6676 111.927 81.6652 111.516 81.5473C111.095 81.4264 110.468 81.1683 109.813 80.6373C109.134 80.086 108.583 79.3656 108.231 78.5546C107.889 77.7704 107.815 77.0928 107.815 76.6689H115.815H123.815C123.815 73.6879 122.69 70.4816 119.895 68.2135C117.359 66.1551 114.42 65.6676 112.224 65.6676V73.6676ZM115.815 76.6689H107.815V76.7286H115.815H123.815V76.6689H115.815ZM115.815 76.7286H107.815C107.815 75.5803 108.297 74.0221 109.638 72.8517C110.865 71.7806 112.042 71.7001 112.313 71.7001V79.7001V87.7001C114.809 87.7001 117.737 87.0199 120.159 84.9061C122.695 82.6929 123.815 79.649 123.815 76.7286H115.815ZM112.313 79.7001V71.7001H103.114V79.7001V87.7001H112.313V79.7001ZM103.114 79.7001H95.1143V90.5088H103.114H111.114V79.7001H103.114ZM103.114 90.5088L97.424 84.8856L97.4213 84.8883L103.112 90.5115L108.802 96.1348L108.805 96.132L103.114 90.5088ZM78.0027 90.5115L85.306 93.7768L94.7027 72.7591L87.3994 69.4939L80.0961 66.2287L70.6994 87.2463L78.0027 90.5115ZM87.3994 69.4939V77.4939H92.2211V69.4939V61.4939H87.3994V69.4939ZM92.2211 69.4939L84.922 72.7684L94.3509 93.7861L101.65 90.5115L108.949 87.237L99.5203 66.2194L92.2211 69.4939ZM101.65 90.5115V82.5115H96.528V90.5115V98.5115H101.65V90.5115ZM96.528 90.5115L103.915 87.4414L97.1655 71.1998L89.7781 74.27L82.3907 77.3402L89.1406 93.5817L96.528 90.5115ZM89.7781 74.27L82.395 71.1894L75.6183 87.431L83.0014 90.5115L90.3845 93.5921L97.1612 77.3506L89.7781 74.27ZM83.0014 90.5115V82.5115H78V90.5115V98.5115H83.0014V90.5115ZM78 90.5115V98.5115H78.0027V90.5115V82.5115H78V90.5115ZM161.678 69.0027L155.987 63.3795L153.904 65.488L159.594 71.1113L165.284 76.7345L167.368 74.6259L161.678 69.0027ZM159.594 71.1113L164.274 64.6229C161.12 62.3481 157.264 61.0841 153.107 61.0841V69.0841V77.0841C153.97 77.0841 154.539 77.329 154.914 77.5996L159.594 71.1113ZM153.107 69.0841V61.0841C142.067 61.0841 134.155 69.8584 134.155 80.0149H142.155H150.155C150.155 79.0947 150.497 78.3726 150.958 77.8989C151.386 77.4588 152.056 77.0841 153.107 77.0841V69.0841ZM142.155 80.0149H134.155V80.0746H142.155H150.155V80.0149H142.155ZM142.155 80.0746H134.155C134.155 84.1873 135.435 88.1282 137.803 91.3581L144.255 86.6282L150.706 81.8983C150.393 81.4701 150.155 80.8575 150.155 80.0746H142.155ZM144.255 86.6282L138.564 81.005L136.545 83.0484L142.235 88.6716L147.925 94.2949L149.945 92.2514L144.255 86.6282ZM142.235 88.6716L136.545 94.2949L138.846 96.6232L144.536 91L150.226 85.3768L147.925 83.0484L142.235 88.6716ZM144.536 91L150.226 96.6232L152.27 94.5554L146.58 88.9322L140.889 83.3089L138.846 85.3768L144.536 91ZM146.58 88.9322L141.915 95.4314C145.063 97.6907 148.905 98.9457 153.048 98.9457V90.9457V82.9457C152.187 82.9457 151.62 82.7028 151.244 82.4329L146.58 88.9322ZM153.048 90.9457V98.9457C164.083 98.9457 172 90.1768 172 80.0149H164H156C156 80.9358 155.658 81.6575 155.197 82.1309C154.768 82.5712 154.098 82.9457 153.048 82.9457V90.9457ZM164 80.0149H172V79.9552H164H156V80.0149H164ZM164 79.9552H172C172 75.8543 170.729 71.9269 168.376 68.7019L161.914 73.4179L155.451 78.1339C155.764 78.5616 156 79.1715 156 79.9552H164ZM161.914 73.4179L167.604 79.0411L169.669 76.9516L163.979 71.3284L158.288 65.7051L156.223 67.7947L161.914 73.4179ZM163.979 71.3284L169.669 65.7051L167.368 63.3768L161.678 69L155.987 74.6232L158.288 76.9516L163.979 71.3284ZM161.678 69H153.678V69.0027H161.678H169.678V69H161.678Z" fill="#E6E2DE" mask="url(#path-4-outside-1_1195_510)"/>
</svg>
