<svg width="242" height="179" viewBox="0 0 242 179" fill="none" xmlns="http://www.w3.org/2000/svg">
<rect y="19.0005" width="242" height="160" rx="12" fill="#E6E2DE"/>
<path d="M113.495 93.5601L112.631 91.0961H108.167L107.287 93.5601H104.839L109.159 82.0721H111.815L116.103 93.5601H113.495ZM110.423 84.7281L108.855 89.1601H111.959L110.423 84.7281ZM119.374 89.4161V93.5601H117.15V85.0161H119.198V86.6641C119.822 85.5761 121.15 84.9201 122.526 84.9201V87.2241C120.638 87.0801 119.374 87.5281 119.374 89.4161ZM125.745 89.4161V93.5601H123.521V85.0161H125.569V86.6641C126.193 85.5761 127.521 84.9201 128.897 84.9201V87.2241C127.009 87.0801 125.745 87.5281 125.745 89.4161ZM133.606 93.7201C131.126 93.7201 129.27 91.7681 129.27 89.2881C129.27 86.7921 131.126 84.8561 133.606 84.8561C136.086 84.8561 137.942 86.7921 137.942 89.2881C137.942 91.7681 136.086 93.7201 133.606 93.7201ZM133.606 91.7521C134.71 91.7521 135.654 90.8721 135.654 89.2881C135.654 87.7041 134.71 86.8401 133.606 86.8401C132.502 86.8401 131.558 87.7041 131.558 89.2881C131.558 90.8721 132.502 91.7521 133.606 91.7521Z" fill="#1A1A1A"/>
<path d="M79.8399 113.56L77.7119 105.678L75.5699 113.56H73.9879L71.3699 103.508H72.8819L74.8139 111.25L76.9279 103.508H78.5239L80.6099 111.264L82.5419 103.508H84.0539L81.4359 113.56H79.8399ZM87.461 113.7C85.319 113.7 83.877 112.146 83.877 109.808C83.877 107.61 85.375 106 87.419 106C89.631 106 91.101 107.792 90.849 110.2H85.319C85.431 111.712 86.187 112.594 87.433 112.594C88.483 112.594 89.211 112.02 89.449 111.054H90.849C90.485 112.706 89.211 113.7 87.461 113.7ZM87.391 107.064C86.257 107.064 85.487 107.876 85.333 109.262H89.351C89.281 107.89 88.539 107.064 87.391 107.064ZM99.1564 109.85C99.1564 112.076 97.8684 113.7 95.8664 113.7C94.8164 113.7 93.9204 113.168 93.3884 112.23V113.56H92.0724V103.508H93.4864V107.414C94.0044 106.504 94.8584 106 95.8664 106C97.8544 106 99.1564 107.596 99.1564 109.85ZM97.6864 109.85C97.6864 108.17 96.8044 107.246 95.5864 107.246C94.4104 107.246 93.4864 108.156 93.4864 109.822C93.4864 111.46 94.3824 112.44 95.5864 112.44C96.8044 112.44 97.6864 111.502 97.6864 109.85ZM106.19 111.348C106.19 112.804 105.056 113.7 103.082 113.7C101.122 113.7 99.96 112.734 99.82 111.138H101.178C101.234 112.062 101.976 112.636 103.11 112.636C104.104 112.636 104.762 112.286 104.762 111.586C104.762 110.97 104.384 110.704 103.46 110.522L102.256 110.298C100.884 110.032 100.114 109.332 100.114 108.212C100.114 106.91 101.248 106 102.97 106C104.748 106 105.952 106.952 106.078 108.478H104.72C104.636 107.582 103.978 107.064 102.984 107.064C102.088 107.064 101.486 107.442 101.486 108.086C101.486 108.688 101.864 108.968 102.76 109.136L104.02 109.374C105.49 109.64 106.19 110.284 106.19 111.348ZM109.176 104.418C109.176 104.95 108.756 105.356 108.154 105.356C107.552 105.356 107.118 104.95 107.118 104.418C107.118 103.872 107.552 103.48 108.154 103.48C108.756 103.48 109.176 103.872 109.176 104.418ZM108.868 113.56H107.454V106.14H108.868V113.56ZM114.737 112.188V113.434C114.303 113.63 113.925 113.7 113.477 113.7C112.105 113.7 111.153 112.958 111.153 111.32V107.344H109.515V106.14H111.153V103.942H112.567V106.14H114.807V107.344H112.567V110.998C112.567 112.02 113.057 112.384 113.813 112.384C114.149 112.384 114.443 112.328 114.737 112.188ZM118.723 113.7C116.581 113.7 115.139 112.146 115.139 109.808C115.139 107.61 116.637 106 118.681 106C120.893 106 122.363 107.792 122.111 110.2H116.581C116.693 111.712 117.449 112.594 118.695 112.594C119.745 112.594 120.473 112.02 120.711 111.054H122.111C121.747 112.706 120.473 113.7 118.723 113.7ZM118.653 107.064C117.519 107.064 116.749 107.876 116.595 109.262H120.613C120.543 107.89 119.801 107.064 118.653 107.064ZM129.27 113.56H126.092V103.508H129.27C132.476 103.508 134.324 105.552 134.324 108.492C134.324 111.39 132.406 113.56 129.27 113.56ZM127.632 104.838V112.23H129.2C131.51 112.23 132.756 110.802 132.756 108.492C132.756 106.224 131.524 104.838 129.2 104.838H127.632ZM138.596 113.7C136.454 113.7 135.012 112.146 135.012 109.808C135.012 107.61 136.51 106 138.554 106C140.766 106 142.236 107.792 141.984 110.2H136.454C136.566 111.712 137.322 112.594 138.568 112.594C139.618 112.594 140.346 112.02 140.584 111.054H141.984C141.62 112.706 140.346 113.7 138.596 113.7ZM138.526 107.064C137.392 107.064 136.622 107.876 136.468 109.262H140.486C140.416 107.89 139.674 107.064 138.526 107.064ZM149.087 111.348C149.087 112.804 147.953 113.7 145.979 113.7C144.019 113.7 142.857 112.734 142.717 111.138H144.075C144.131 112.062 144.873 112.636 146.007 112.636C147.001 112.636 147.659 112.286 147.659 111.586C147.659 110.97 147.281 110.704 146.357 110.522L145.153 110.298C143.781 110.032 143.011 109.332 143.011 108.212C143.011 106.91 144.145 106 145.867 106C147.645 106 148.849 106.952 148.975 108.478H147.617C147.533 107.582 146.875 107.064 145.881 107.064C144.985 107.064 144.383 107.442 144.383 108.086C144.383 108.688 144.761 108.968 145.657 109.136L146.917 109.374C148.387 109.64 149.087 110.284 149.087 111.348ZM152.073 104.418C152.073 104.95 151.653 105.356 151.051 105.356C150.449 105.356 150.015 104.95 150.015 104.418C150.015 103.872 150.449 103.48 151.051 103.48C151.653 103.48 152.073 103.872 152.073 104.418ZM151.765 113.56H150.351V106.14H151.765V113.56ZM156.416 116.416C154.47 116.416 153.21 115.38 153.126 113.7H154.498C154.582 114.736 155.254 115.296 156.402 115.296C157.676 115.296 158.348 114.61 158.348 113.336V111.992C157.928 112.888 157.088 113.406 156.08 113.406C154.232 113.406 152.916 111.88 152.916 109.696C152.916 107.484 154.176 106 156.038 106C157.102 106 157.942 106.518 158.446 107.456V106.14H159.762V113.308C159.762 115.254 158.516 116.416 156.416 116.416ZM154.344 109.696C154.344 111.236 155.1 112.174 156.332 112.174C157.536 112.174 158.348 111.208 158.348 109.738C158.348 108.198 157.55 107.218 156.332 107.218C155.114 107.218 154.344 108.17 154.344 109.696ZM162.854 109.374V113.56H161.44V106.14H162.756V107.372C163.26 106.546 164.1 106 165.122 106C166.648 106 167.656 106.98 167.656 108.758V113.56H166.242V109.234C166.242 107.96 165.682 107.246 164.632 107.246C163.666 107.246 162.854 108.058 162.854 109.374ZM171.171 112.958C171.171 114.288 170.121 115.324 168.581 115.352V114.554C169.491 114.526 170.107 114.036 170.191 113.35C170.065 113.392 169.981 113.406 169.883 113.406C169.351 113.406 168.959 112.972 168.959 112.454C168.959 111.852 169.407 111.46 169.981 111.46C170.751 111.46 171.171 112.02 171.171 112.958ZM66.6706 127.676C66.6706 129.51 65.3266 130.56 63.2406 130.56H59.5586V120.508H63.0446C65.0746 120.508 66.2926 121.446 66.2926 123.14C66.2926 124.092 65.7186 124.904 64.7526 125.324C65.9986 125.674 66.6706 126.528 66.6706 127.676ZM62.9466 121.74H60.9726V124.764H62.9466C64.1646 124.764 64.8226 124.19 64.8226 123.252C64.8226 122.314 64.1646 121.74 62.9466 121.74ZM63.1426 125.996H60.9726V129.328H63.1426C64.4586 129.328 65.2006 128.698 65.2006 127.634C65.2006 126.612 64.4586 125.996 63.1426 125.996ZM69.4674 126.766V130.56H68.0534V123.14H69.3694V124.708C69.8874 123.686 71.0074 123.042 72.2254 123.042V124.512C70.6294 124.428 69.4674 125.128 69.4674 126.766ZM77.5584 130.56V129.412C77.0964 130.238 76.2704 130.7 75.1784 130.7C73.6384 130.7 72.6304 129.818 72.6304 128.46C72.6304 127.004 73.7924 126.248 76.0044 126.248C76.4384 126.248 76.7884 126.262 77.3904 126.332V125.786C77.3904 124.722 76.8164 124.12 75.8364 124.12C74.8004 124.12 74.1704 124.736 74.1284 125.772H72.8404C72.9104 124.106 74.1004 123 75.8364 123C77.6704 123 78.7344 124.036 78.7344 125.8V130.56H77.5584ZM73.9744 128.418C73.9744 129.188 74.5484 129.692 75.4584 129.692C76.6484 129.692 77.3904 128.95 77.3904 127.816V127.214C76.8444 127.144 76.4524 127.13 76.0884 127.13C74.6744 127.13 73.9744 127.55 73.9744 128.418ZM81.7589 126.374V130.56H80.3449V123.14H81.6609V124.372C82.1649 123.546 83.0049 123 84.0269 123C85.5529 123 86.5609 123.98 86.5609 125.758V130.56H85.1469V126.234C85.1469 124.96 84.5869 124.246 83.5369 124.246C82.5709 124.246 81.7589 125.058 81.7589 126.374ZM87.6267 126.85C87.6267 124.596 88.9147 123 90.9167 123C91.9107 123 92.7787 123.504 93.2967 124.414V120.508H94.7107V130.56H93.3947V129.23C92.8627 130.168 91.9667 130.7 90.9167 130.7C88.9147 130.7 87.6267 129.076 87.6267 126.85ZM89.0967 126.85C89.0967 128.502 89.9647 129.44 91.1967 129.44C92.4007 129.44 93.2967 128.46 93.2967 126.822C93.2967 125.156 92.3727 124.246 91.1967 124.246C89.9647 124.246 89.0967 125.17 89.0967 126.85ZM98.1182 121.418C98.1182 121.95 97.6982 122.356 97.0962 122.356C96.4942 122.356 96.0602 121.95 96.0602 121.418C96.0602 120.872 96.4942 120.48 97.0962 120.48C97.6982 120.48 98.1182 120.872 98.1182 121.418ZM97.8102 130.56H96.3962V123.14H97.8102V130.56ZM100.907 126.374V130.56H99.4932V123.14H100.809V124.372C101.313 123.546 102.153 123 103.175 123C104.701 123 105.709 123.98 105.709 125.758V130.56H104.295V126.234C104.295 124.96 103.735 124.246 102.685 124.246C101.719 124.246 100.907 125.058 100.907 126.374ZM110.275 133.416C108.329 133.416 107.069 132.38 106.985 130.7H108.357C108.441 131.736 109.113 132.296 110.261 132.296C111.535 132.296 112.207 131.61 112.207 130.336V128.992C111.787 129.888 110.947 130.406 109.939 130.406C108.091 130.406 106.775 128.88 106.775 126.696C106.775 124.484 108.035 123 109.897 123C110.961 123 111.801 123.518 112.305 124.456V123.14H113.621V130.308C113.621 132.254 112.375 133.416 110.275 133.416ZM108.203 126.696C108.203 128.236 108.959 129.174 110.191 129.174C111.395 129.174 112.207 128.208 112.207 126.738C112.207 125.198 111.409 124.218 110.191 124.218C108.973 124.218 108.203 125.17 108.203 126.696ZM122.438 130.77C119.638 130.77 117.468 128.488 117.468 125.52C117.468 122.566 119.638 120.298 122.438 120.298C124.958 120.298 126.974 121.978 127.352 124.456H125.714C125.434 122.832 124.118 121.684 122.452 121.684C120.464 121.684 119.064 123.294 119.064 125.52C119.064 127.774 120.464 129.384 122.452 129.384C124.118 129.384 125.434 128.222 125.714 126.598H127.352C126.974 129.09 124.958 130.77 122.438 130.77ZM131.669 130.7C129.569 130.7 128.029 129.048 128.029 126.85C128.029 124.652 129.569 123 131.669 123C133.769 123 135.309 124.652 135.309 126.85C135.309 129.048 133.769 130.7 131.669 130.7ZM131.669 129.454C132.887 129.454 133.853 128.474 133.853 126.85C133.853 125.226 132.887 124.26 131.669 124.26C130.451 124.26 129.499 125.226 129.499 126.85C129.499 128.474 130.451 129.454 131.669 129.454ZM137.898 130.56H136.47V120.508H137.898V130.56ZM141.009 130.56H139.581V120.508H141.009V130.56ZM147.185 130.56V129.412C146.723 130.238 145.897 130.7 144.805 130.7C143.265 130.7 142.257 129.818 142.257 128.46C142.257 127.004 143.419 126.248 145.631 126.248C146.065 126.248 146.415 126.262 147.017 126.332V125.786C147.017 124.722 146.443 124.12 145.463 124.12C144.427 124.12 143.797 124.736 143.755 125.772H142.467C142.537 124.106 143.727 123 145.463 123C147.297 123 148.361 124.036 148.361 125.8V130.56H147.185ZM143.601 128.418C143.601 129.188 144.175 129.692 145.085 129.692C146.275 129.692 147.017 128.95 147.017 127.816V127.214C146.471 127.144 146.079 127.13 145.715 127.13C144.301 127.13 143.601 127.55 143.601 128.418ZM154.09 129.188V130.434C153.656 130.63 153.278 130.7 152.83 130.7C151.458 130.7 150.506 129.958 150.506 128.32V124.344H148.868V123.14H150.506V120.942H151.92V123.14H154.16V124.344H151.92V127.998C151.92 129.02 152.41 129.384 153.166 129.384C153.502 129.384 153.796 129.328 154.09 129.188ZM158.076 130.7C155.934 130.7 154.492 129.146 154.492 126.808C154.492 124.61 155.99 123 158.034 123C160.246 123 161.716 124.792 161.464 127.2H155.934C156.046 128.712 156.802 129.594 158.048 129.594C159.098 129.594 159.826 129.02 160.064 128.054H161.464C161.1 129.706 159.826 130.7 158.076 130.7ZM158.006 124.064C156.872 124.064 156.102 124.876 155.948 126.262H159.966C159.896 124.89 159.154 124.064 158.006 124.064ZM164.101 126.766V130.56H162.687V123.14H164.003V124.708C164.521 123.686 165.641 123.042 166.859 123.042V124.512C165.263 124.428 164.101 125.128 164.101 126.766ZM172.192 130.56V129.412C171.73 130.238 170.904 130.7 169.812 130.7C168.272 130.7 167.264 129.818 167.264 128.46C167.264 127.004 168.426 126.248 170.638 126.248C171.072 126.248 171.422 126.262 172.024 126.332V125.786C172.024 124.722 171.45 124.12 170.47 124.12C169.434 124.12 168.804 124.736 168.762 125.772H167.474C167.544 124.106 168.734 123 170.47 123C172.304 123 173.368 124.036 173.368 125.8V130.56H172.192ZM168.608 128.418C168.608 129.188 169.182 129.692 170.092 129.692C171.282 129.692 172.024 128.95 172.024 127.816V127.214C171.478 127.144 171.086 127.13 170.722 127.13C169.308 127.13 168.608 127.55 168.608 128.418ZM176.407 130.56H174.979V120.508H176.407V130.56ZM183.97 128.348C183.97 129.804 182.836 130.7 180.862 130.7C178.902 130.7 177.74 129.734 177.6 128.138H178.958C179.014 129.062 179.756 129.636 180.89 129.636C181.884 129.636 182.542 129.286 182.542 128.586C182.542 127.97 182.164 127.704 181.24 127.522L180.036 127.298C178.664 127.032 177.894 126.332 177.894 125.212C177.894 123.91 179.028 123 180.75 123C182.528 123 183.732 123.952 183.858 125.478H182.5C182.416 124.582 181.758 124.064 180.764 124.064C179.868 124.064 179.266 124.442 179.266 125.086C179.266 125.688 179.644 125.968 180.54 126.136L181.8 126.374C183.27 126.64 183.97 127.284 183.97 128.348Z" fill="#1A1A1A"/>
<mask id="path-4-outside-1_1173_24" maskUnits="userSpaceOnUse" x="70" y="-0.999512" width="102" height="39" fill="black">
<rect fill="white" x="70" y="-0.999512" width="102" height="39"/>
<path fill-rule="evenodd" clip-rule="evenodd" d="M149.173 25.3139L159.194 15.1728C159.808 16.3017 160.152 17.6206 160.152 19.0181V19.0778C160.152 23.1837 157.258 26.5052 153.11 26.5052C151.616 26.5052 150.275 26.0656 149.173 25.3112M157.017 12.7196L146.979 22.877C146.354 21.7454 146.008 20.4238 146.008 19.0154V18.9557C146.008 14.8499 148.902 11.4957 153.051 11.4957C154.558 11.4957 155.909 11.9489 157.017 12.7196ZM122.83 29.512H127.4V22.7875H130.991L135.442 29.512H140.784L135.711 22.0059C138.352 21.0154 140.162 18.8824 140.162 15.4903V15.4306C140.162 13.4496 139.537 11.797 138.382 10.6274C137.017 9.24608 134.968 8.49438 132.329 8.49438H122.833V12.6681H131.943C134.169 12.6681 135.534 13.6884 135.534 15.6694V15.7291C135.534 17.5012 134.257 18.7006 132.031 18.7006H122.833V29.5093L122.83 29.512ZM103.112 29.512H107.681V22.7875H111.272L115.724 29.512H121.066L115.992 22.0059C118.633 21.0154 120.444 18.8824 120.444 15.4903V15.4306C120.444 13.4496 119.819 11.797 118.663 10.6274C117.298 9.24608 115.249 8.49438 112.61 8.49438H103.114V12.6681H112.224C114.45 12.6681 115.815 13.6884 115.815 15.6694V15.7291C115.815 17.5012 114.538 18.7006 112.313 18.7006H103.114V29.5093L103.112 29.512ZM78.0027 29.512L87.3994 8.49438H92.2211L101.65 29.512H96.528L89.7781 13.2705L83.0014 29.512H78H78.0027ZM161.678 8.0032L159.594 10.1118C157.829 8.83902 155.617 8.08461 153.107 8.08461C146.69 8.08461 142.155 13.0697 142.155 19.0154V19.0751C142.155 21.5229 142.914 23.7997 144.255 25.6287L142.235 27.6721L144.536 30.0005L146.58 27.9326C148.341 29.1972 150.546 29.9462 153.048 29.9462C159.463 29.9462 164 24.9639 164 19.0154V18.9557C164 16.5134 163.246 14.2447 161.914 12.4184L163.979 10.3288L161.678 8.00049V8.0032Z"/>
</mask>
<path fill-rule="evenodd" clip-rule="evenodd" d="M149.173 25.3139L159.194 15.1728C159.808 16.3017 160.152 17.6206 160.152 19.0181V19.0778C160.152 23.1837 157.258 26.5052 153.11 26.5052C151.616 26.5052 150.275 26.0656 149.173 25.3112M157.017 12.7196L146.979 22.877C146.354 21.7454 146.008 20.4238 146.008 19.0154V18.9557C146.008 14.8499 148.902 11.4957 153.051 11.4957C154.558 11.4957 155.909 11.9489 157.017 12.7196ZM122.83 29.512H127.4V22.7875H130.991L135.442 29.512H140.784L135.711 22.0059C138.352 21.0154 140.162 18.8824 140.162 15.4903V15.4306C140.162 13.4496 139.537 11.797 138.382 10.6274C137.017 9.24608 134.968 8.49438 132.329 8.49438H122.833V12.6681H131.943C134.169 12.6681 135.534 13.6884 135.534 15.6694V15.7291C135.534 17.5012 134.257 18.7006 132.031 18.7006H122.833V29.5093L122.83 29.512ZM103.112 29.512H107.681V22.7875H111.272L115.724 29.512H121.066L115.992 22.0059C118.633 21.0154 120.444 18.8824 120.444 15.4903V15.4306C120.444 13.4496 119.819 11.797 118.663 10.6274C117.298 9.24608 115.249 8.49438 112.61 8.49438H103.114V12.6681H112.224C114.45 12.6681 115.815 13.6884 115.815 15.6694V15.7291C115.815 17.5012 114.538 18.7006 112.313 18.7006H103.114V29.5093L103.112 29.512ZM78.0027 29.512L87.3994 8.49438H92.2211L101.65 29.512H96.528L89.7781 13.2705L83.0014 29.512H78H78.0027ZM161.678 8.0032L159.594 10.1118C157.829 8.83902 155.617 8.08461 153.107 8.08461C146.69 8.08461 142.155 13.0697 142.155 19.0154V19.0751C142.155 21.5229 142.914 23.7997 144.255 25.6287L142.235 27.6721L144.536 30.0005L146.58 27.9326C148.341 29.1972 150.546 29.9462 153.048 29.9462C159.463 29.9462 164 24.9639 164 19.0154V18.9557C164 16.5134 163.246 14.2447 161.914 12.4184L163.979 10.3288L161.678 8.00049V8.0032Z" fill="#1A1A1A"/>
<path d="M159.194 15.1728L166.222 11.3499C165.012 9.12644 162.822 7.60655 160.316 7.25178C157.809 6.89701 155.283 7.7492 153.504 9.54959L159.194 15.1728ZM157.017 12.7196L162.707 18.3428C164.366 16.6638 165.199 14.3377 164.983 11.9871C164.767 9.63646 163.524 7.50128 161.586 6.153L157.017 12.7196ZM146.979 22.877L139.976 26.744C141.195 28.9521 143.384 30.4558 145.883 30.8015C148.381 31.1472 150.896 30.2943 152.669 28.5002L146.979 22.877ZM122.83 29.512L117.138 23.891C114.871 26.1868 114.205 29.6198 115.449 32.5968C116.693 35.5738 119.604 37.512 122.83 37.512V29.512ZM127.4 29.512V37.512C131.818 37.512 135.4 33.9303 135.4 29.512H127.4ZM127.4 22.7875V14.7875C122.982 14.7875 119.4 18.3692 119.4 22.7875H127.4ZM130.991 22.7875L137.661 18.3714C136.18 16.1334 133.675 14.7875 130.991 14.7875V22.7875ZM135.442 29.512L128.772 33.928C130.253 36.1661 132.758 37.512 135.442 37.512V29.512ZM140.784 29.512V37.512C143.744 37.512 146.462 35.8781 147.85 33.2643C149.238 30.6505 149.07 27.4838 147.412 25.0319L140.784 29.512ZM135.711 22.0059L132.902 14.5152C130.607 15.3756 128.834 17.24 128.089 19.5744C127.344 21.9089 127.71 24.456 129.083 26.4861L135.711 22.0059ZM122.833 8.49438V0.494382C118.415 0.494382 114.833 4.0761 114.833 8.49438H122.833ZM122.833 12.6681H114.833C114.833 17.0863 118.415 20.6681 122.833 20.6681V12.6681ZM122.833 18.7006V10.7006C118.415 10.7006 114.833 14.2823 114.833 18.7006H122.833ZM122.833 29.5093L128.525 35.1304C130.004 33.6331 130.833 31.6136 130.833 29.5093H122.833ZM103.112 29.512L97.4213 23.8888C95.153 26.1842 94.4859 29.6176 95.7297 32.5954C96.9735 35.5731 99.8845 37.512 103.112 37.512V29.512ZM107.681 29.512V37.512C112.1 37.512 115.681 33.9303 115.681 29.512H107.681ZM107.681 22.7875V14.7875C103.263 14.7875 99.6812 18.3692 99.6812 22.7875H107.681ZM111.272 22.7875L117.943 18.3714C116.461 16.1334 113.956 14.7875 111.272 14.7875V22.7875ZM115.724 29.512L109.053 33.928C110.535 36.1661 113.04 37.512 115.724 37.512V29.512ZM121.066 29.512V37.512C124.025 37.512 126.743 35.8781 128.131 33.2643C129.519 30.6505 129.351 27.4838 127.694 25.0319L121.066 29.512ZM115.992 22.0059L113.183 14.5152C110.889 15.3756 109.115 17.24 108.37 19.5744C107.626 21.9089 107.992 24.456 109.364 26.4861L115.992 22.0059ZM103.114 8.49438V0.494382C98.696 0.494382 95.1143 4.0761 95.1143 8.49438H103.114ZM103.114 12.6681H95.1143C95.1143 17.0863 98.696 20.6681 103.114 20.6681V12.6681ZM103.114 18.7006V10.7006C98.696 10.7006 95.1143 14.2823 95.1143 18.7006H103.114ZM103.114 29.5093L108.805 35.1325C110.284 33.6351 111.114 31.6146 111.114 29.5093H103.114ZM78.0027 29.512V37.512C81.1578 37.512 84.0182 35.6576 85.306 32.7772L78.0027 29.512ZM87.3994 8.49438V0.494382C84.2443 0.494382 81.3839 2.34881 80.0961 5.22916L87.3994 8.49438ZM92.2211 8.49438L99.5203 5.21985C98.2304 2.34452 95.3726 0.494382 92.2211 0.494382V8.49438ZM101.65 29.512V37.512C104.363 37.512 106.891 36.137 108.366 33.8596C109.84 31.5823 110.06 28.7128 108.949 26.2375L101.65 29.512ZM96.528 29.512L89.1406 32.5822C90.381 35.567 93.2957 37.512 96.528 37.512V29.512ZM89.7781 13.2705L97.1655 10.2003C95.9259 7.21745 93.014 5.27278 89.7837 5.2705C86.5535 5.26823 83.6389 7.20881 82.395 10.1899L89.7781 13.2705ZM83.0014 29.512V37.512C86.2296 37.512 89.1414 35.5718 90.3845 32.5926L83.0014 29.512ZM78 21.512C73.5817 21.512 70 25.0937 70 29.512C70 33.9303 73.5817 37.512 78 37.512V29.512V21.512ZM161.678 8.0032L167.368 13.6264C168.848 12.1289 169.678 10.1085 169.678 8.0032H161.678ZM159.594 10.1118L154.914 16.6001C158.112 18.9065 162.513 18.5393 165.284 15.735L159.594 10.1118ZM144.255 25.6287L149.945 31.2519C152.707 28.4565 153.03 24.0684 150.706 20.8988L144.255 25.6287ZM142.235 27.6721L136.545 22.0489C133.465 25.1653 133.465 30.179 136.545 33.2954L142.235 27.6721ZM144.536 30.0005L138.846 35.6237C140.349 37.1446 142.398 38.0005 144.536 38.0005C146.674 38.0005 148.723 37.1446 150.226 35.6237L144.536 30.0005ZM146.58 27.9326L151.244 21.4334C148.047 19.1386 143.656 19.5101 140.889 22.3094L146.58 27.9326ZM161.914 12.4184L156.223 6.79519C153.465 9.58599 153.139 13.965 155.451 17.1344L161.914 12.4184ZM163.979 10.3288L169.669 15.9521C172.748 12.8357 172.748 7.82197 169.669 4.70563L163.979 10.3288ZM161.678 8.00049L167.368 2.37727C165.087 0.069622 161.639 -0.632253 158.638 0.600409C155.637 1.83307 153.678 4.75616 153.678 8.00049L161.678 8.00049ZM149.173 25.3139L154.863 30.9371L164.885 20.796L159.194 15.1728L153.504 9.54959L143.482 19.6907L149.173 25.3139ZM159.194 15.1728L152.167 18.9957C152.148 18.9615 152.145 18.9445 152.146 18.9486C152.146 18.9519 152.152 18.9747 152.152 19.0181H160.152H168.152C168.152 16.3114 167.487 13.6749 166.222 11.3499L159.194 15.1728ZM160.152 19.0181H152.152V19.0778H160.152H168.152V19.0181H160.152ZM160.152 19.0778H152.152C152.152 19.2516 152.099 19.131 152.312 18.901C152.417 18.7873 152.564 18.6762 152.742 18.598C152.925 18.5176 153.064 18.5052 153.11 18.5052V26.5052V34.5052C162.257 34.5052 168.152 26.9977 168.152 19.0778H160.152ZM153.11 26.5052V18.5052C153.153 18.5052 153.243 18.5126 153.36 18.5489C153.476 18.5847 153.59 18.6398 153.691 18.7095L149.173 25.3112L144.654 31.9129C147.086 33.5777 150.002 34.5052 153.11 34.5052V26.5052ZM157.017 12.7196L151.327 7.0964L141.289 17.2538L146.979 22.877L152.669 28.5002L162.707 18.3428L157.017 12.7196ZM146.979 22.877L153.982 19.01C154.005 19.0513 154.012 19.0767 154.013 19.0803C154.014 19.0843 154.008 19.0638 154.008 19.0154H146.008H138.008C138.008 21.7378 138.679 24.3951 139.976 26.744L146.979 22.877ZM146.008 19.0154H154.008V18.9557H146.008H138.008V19.0154H146.008ZM146.008 18.9557H154.008C154.008 18.778 154.064 18.8815 153.865 19.0986C153.765 19.2074 153.621 19.3185 153.44 19.3984C153.254 19.4808 153.107 19.4957 153.051 19.4957V11.4957V3.49574C143.859 3.49574 138.008 11.0831 138.008 18.9557H146.008ZM153.051 11.4957V19.4957C152.996 19.4957 152.899 19.4865 152.777 19.4483C152.658 19.4106 152.545 19.3543 152.447 19.2862L157.017 12.7196L161.586 6.153C159.152 4.4589 156.208 3.49574 153.051 3.49574V11.4957ZM122.83 29.512V37.512H127.4V29.512V21.512H122.83V29.512ZM127.4 29.512H135.4V22.7875H127.4H119.4V29.512H127.4ZM127.4 22.7875V30.7875H130.991V22.7875V14.7875H127.4V22.7875ZM130.991 22.7875L124.32 27.2035L128.772 33.928L135.442 29.512L142.113 25.096L137.661 18.3714L130.991 22.7875ZM135.442 29.512V37.512H140.784V29.512V21.512H135.442V29.512ZM140.784 29.512L147.412 25.0319L142.338 17.5258L135.711 22.0059L129.083 26.4861L134.157 33.9922L140.784 29.512ZM135.711 22.0059L138.519 29.4966C141.049 28.5479 143.55 26.9048 145.407 24.3403C147.29 21.739 148.162 18.6687 148.162 15.4903H140.162H132.162C132.162 15.6234 132.145 15.6005 132.185 15.4686C132.227 15.3305 132.31 15.1461 132.447 14.9571C132.738 14.5548 133.013 14.4734 132.902 14.5152L135.711 22.0059ZM140.162 15.4903H148.162V15.4306H140.162H132.162V15.4903H140.162ZM140.162 15.4306H148.162C148.162 11.7409 146.965 7.93146 144.072 5.00413L138.382 10.6274L132.691 16.2506C132.435 15.9914 132.284 15.7187 132.209 15.5179C132.139 15.3297 132.162 15.2789 132.162 15.4306H140.162ZM138.382 10.6274L144.072 5.00413C140.797 1.68982 136.447 0.494382 132.329 0.494382V8.49438V16.4944C132.901 16.4944 133.143 16.577 133.149 16.5794C133.15 16.5796 133.136 16.5747 133.11 16.5624C133.084 16.55 133.048 16.5308 133.003 16.503C132.911 16.4457 132.802 16.3624 132.691 16.2506L138.382 10.6274ZM132.329 8.49438V0.494382H122.833V8.49438V16.4944H132.329V8.49438ZM122.833 8.49438H114.833V12.6681H122.833H130.833V8.49438H122.833ZM122.833 12.6681V20.6681H131.943V12.6681V4.66806H122.833V12.6681ZM131.943 12.6681V20.6681C131.906 20.6681 131.646 20.6657 131.235 20.5478C130.814 20.4269 130.186 20.1688 129.532 19.6378C128.853 19.0865 128.302 18.3661 127.949 17.5551C127.608 16.7709 127.534 16.0933 127.534 15.6694H135.534H143.534C143.534 12.6884 142.409 9.48205 139.614 7.21395C137.077 5.15555 134.139 4.66806 131.943 4.66806V12.6681ZM135.534 15.6694H127.534V15.7291H135.534H143.534V15.6694H135.534ZM135.534 15.7291H127.534C127.534 14.5808 128.016 13.0226 129.357 11.8522C130.584 10.7811 131.76 10.7006 132.031 10.7006V18.7006V26.7006C134.528 26.7006 137.456 26.0204 139.878 23.9066C142.413 21.6934 143.534 18.6495 143.534 15.7291H135.534ZM132.031 18.7006V10.7006H122.833V18.7006V26.7006H132.031V18.7006ZM122.833 18.7006H114.833V29.5093H122.833H130.833V18.7006H122.833ZM122.833 29.5093L117.141 23.8883L117.138 23.891L122.83 29.512L128.523 35.1331L128.525 35.1304L122.833 29.5093ZM103.112 29.512V37.512H107.681V29.512V21.512H103.112V29.512ZM107.681 29.512H115.681V22.7875H107.681H99.6812V29.512H107.681ZM107.681 22.7875V30.7875H111.272V22.7875V14.7875H107.681V22.7875ZM111.272 22.7875L104.601 27.2035L109.053 33.928L115.724 29.512L122.394 25.096L117.943 18.3714L111.272 22.7875ZM115.724 29.512V37.512H121.066V29.512V21.512H115.724V29.512ZM121.066 29.512L127.694 25.0319L122.62 17.5258L115.992 22.0059L109.364 26.4861L114.438 33.9922L121.066 29.512ZM115.992 22.0059L118.801 29.4966C121.331 28.5479 123.831 26.9048 125.688 24.3403C127.572 21.739 128.444 18.6687 128.444 15.4903H120.444H112.444C112.444 15.6234 112.427 15.6005 112.467 15.4686C112.509 15.3305 112.592 15.1461 112.728 14.9571C113.02 14.5548 113.295 14.4734 113.183 14.5152L115.992 22.0059ZM120.444 15.4903H128.444V15.4306H120.444H112.444V15.4903H120.444ZM120.444 15.4306H128.444C128.444 11.7409 127.246 7.93146 124.353 5.00413L118.663 10.6274L112.973 16.2506C112.716 15.9914 112.565 15.7187 112.49 15.5179C112.42 15.3297 112.444 15.2789 112.444 15.4306H120.444ZM118.663 10.6274L124.353 5.00413C121.078 1.68982 116.728 0.494382 112.61 0.494382V8.49438V16.4944C113.183 16.4944 113.424 16.577 113.431 16.5794C113.431 16.5796 113.417 16.5747 113.392 16.5624C113.366 16.55 113.329 16.5308 113.285 16.503C113.193 16.4457 113.083 16.3624 112.973 16.2506L118.663 10.6274ZM112.61 8.49438V0.494382H103.114V8.49438V16.4944H112.61V8.49438ZM103.114 8.49438H95.1143V12.6681H103.114H111.114V8.49438H103.114ZM103.114 12.6681V20.6681H112.224V12.6681V4.66806H103.114V12.6681ZM112.224 12.6681V20.6681C112.187 20.6681 111.927 20.6657 111.516 20.5478C111.095 20.4269 110.468 20.1688 109.813 19.6378C109.134 19.0865 108.583 18.3661 108.231 17.5551C107.889 16.7709 107.815 16.0933 107.815 15.6694H115.815H123.815C123.815 12.6884 122.69 9.48206 119.895 7.21395C117.359 5.15555 114.42 4.66806 112.224 4.66806V12.6681ZM115.815 15.6694H107.815V15.7291H115.815H123.815V15.6694H115.815ZM115.815 15.7291H107.815C107.815 14.5808 108.297 13.0226 109.638 11.8522C110.865 10.7811 112.042 10.7006 112.313 10.7006V18.7006V26.7006C114.809 26.7006 117.737 26.0204 120.159 23.9066C122.695 21.6934 123.815 18.6495 123.815 15.7291H115.815ZM112.313 18.7006V10.7006H103.114V18.7006V26.7006H112.313V18.7006ZM103.114 18.7006H95.1143V29.5093H103.114H111.114V18.7006H103.114ZM103.114 29.5093L97.424 23.8861L97.4213 23.8888L103.112 29.512L108.802 35.1352L108.805 35.1325L103.114 29.5093ZM78.0027 29.512L85.306 32.7772L94.7027 11.7596L87.3994 8.49438L80.0961 5.22916L70.6994 26.2468L78.0027 29.512ZM87.3994 8.49438V16.4944H92.2211V8.49438V0.494382H87.3994V8.49438ZM92.2211 8.49438L84.922 11.7689L94.3509 32.7866L101.65 29.512L108.949 26.2375L99.5203 5.21985L92.2211 8.49438ZM101.65 29.512V21.512H96.528V29.512V37.512H101.65V29.512ZM96.528 29.512L103.915 26.4419L97.1655 10.2003L89.7781 13.2705L82.3907 16.3407L89.1406 32.5822L96.528 29.512ZM89.7781 13.2705L82.395 10.1899L75.6183 26.4315L83.0014 29.512L90.3845 32.5926L97.1612 16.3511L89.7781 13.2705ZM83.0014 29.512V21.512H78V29.512V37.512H83.0014V29.512ZM78 29.512V37.512H78.0027V29.512V21.512H78V29.512ZM161.678 8.0032L155.987 2.37999L153.904 4.48854L159.594 10.1118L165.284 15.735L167.368 13.6264L161.678 8.0032ZM159.594 10.1118L164.274 3.62338C161.12 1.34855 157.264 0.0846133 153.107 0.0846133V8.08461V16.0846C153.97 16.0846 154.539 16.3295 154.914 16.6001L159.594 10.1118ZM153.107 8.08461V0.0846133C142.067 0.0846133 134.155 8.85885 134.155 19.0154H142.155H150.155C150.155 18.0952 150.497 17.3731 150.958 16.8994C151.386 16.4593 152.056 16.0846 153.107 16.0846V8.08461ZM142.155 19.0154H134.155V19.0751H142.155H150.155V19.0154H142.155ZM142.155 19.0751H134.155C134.155 23.1878 135.435 27.1287 137.803 30.3586L144.255 25.6287L150.706 20.8988C150.393 20.4706 150.155 19.8579 150.155 19.0751H142.155ZM144.255 25.6287L138.564 20.0055L136.545 22.0489L142.235 27.6721L147.925 33.2953L149.945 31.2519L144.255 25.6287ZM142.235 27.6721L136.545 33.2954L138.846 35.6237L144.536 30.0005L150.226 24.3773L147.925 22.0489L142.235 27.6721ZM144.536 30.0005L150.226 35.6237L152.27 33.5559L146.58 27.9326L140.889 22.3094L138.846 24.3773L144.536 30.0005ZM146.58 27.9326L141.915 34.4319C145.063 36.6912 148.905 37.9462 153.048 37.9462V29.9462V21.9462C152.187 21.9462 151.62 21.7033 151.244 21.4334L146.58 27.9326ZM153.048 29.9462V37.9462C164.083 37.9462 172 29.1773 172 19.0154H164H156C156 19.9363 155.658 20.658 155.197 21.1314C154.768 21.5717 154.098 21.9462 153.048 21.9462V29.9462ZM164 19.0154H172V18.9557H164H156V19.0154H164ZM164 18.9557H172C172 14.8548 170.729 10.9274 168.376 7.70243L161.914 12.4184L155.451 17.1344C155.764 17.5621 156 18.172 156 18.9557H164ZM161.914 12.4184L167.604 18.0416L169.669 15.9521L163.979 10.3288L158.288 4.70563L156.223 6.79519L161.914 12.4184ZM163.979 10.3288L169.669 4.70563L167.368 2.37727L161.678 8.00049L155.987 13.6237L158.288 15.9521L163.979 10.3288ZM161.678 8.00049H153.678V8.0032H161.678H169.678V8.00049H161.678Z" fill="#E6E2DE" mask="url(#path-4-outside-1_1173_24)"/>
</svg>
