<svg width="242" height="240" viewBox="0 0 242 240" fill="none" xmlns="http://www.w3.org/2000/svg">
<rect y="80" width="242" height="160" rx="12" fill="#E6E2DE"/>
<path d="M78.1677 155L77.3037 152.536H72.8397L71.9597 155H69.5117L73.8317 143.512H76.4877L80.7757 155H78.1677ZM75.0957 146.168L73.5277 150.6H76.6317L75.0957 146.168ZM89.0392 152.264C89.0392 154.056 87.6792 155.16 85.2472 155.16C82.8152 155.16 81.4552 153.992 81.2792 152.088H83.4072C83.4232 152.968 84.1752 153.528 85.2792 153.528C86.1432 153.528 86.7992 153.256 86.7992 152.648C86.7992 152.104 86.4472 151.88 85.6312 151.72L84.0952 151.432C82.5592 151.16 81.6312 150.312 81.6312 148.984C81.6312 147.4 82.9912 146.296 85.1192 146.296C87.2632 146.296 88.7352 147.432 88.8952 149.272H86.7672C86.6872 148.44 86.0632 147.928 85.1192 147.928C84.3032 147.928 83.7592 148.232 83.7592 148.776C83.7592 149.288 84.1112 149.496 84.8792 149.64L86.5272 149.944C88.1912 150.264 89.0392 151.032 89.0392 152.264ZM95.5377 152.84V154.776C94.9937 155.048 94.4817 155.16 93.8257 155.16C92.0657 155.16 90.9617 154.152 90.9617 152.232V148.36H89.2337V146.456H90.9617V143.928H93.1697V146.456H95.6177V148.36H93.1697V151.72C93.1697 152.712 93.6177 153.112 94.4177 153.112C94.8337 153.112 95.2177 153.016 95.5377 152.84ZM100.404 155.16C97.9242 155.16 96.0682 153.208 96.0682 150.728C96.0682 148.232 97.9242 146.296 100.404 146.296C102.884 146.296 104.74 148.232 104.74 150.728C104.74 153.208 102.884 155.16 100.404 155.16ZM100.404 153.192C101.508 153.192 102.452 152.312 102.452 150.728C102.452 149.144 101.508 148.28 100.404 148.28C99.3002 148.28 98.3562 149.144 98.3562 150.728C98.3562 152.312 99.3002 153.192 100.404 153.192ZM108.223 150.856V155H105.999V146.456H108.047V148.104C108.671 147.016 109.999 146.36 111.376 146.36V148.664C109.487 148.52 108.223 148.968 108.223 150.856ZM118.179 155H115.747V143.512H118.179V148.04H123.155V143.512H125.587V155H123.155V150.136H118.179V155ZM131.374 155.16C128.894 155.16 127.038 153.208 127.038 150.728C127.038 148.232 128.894 146.296 131.374 146.296C133.854 146.296 135.71 148.232 135.71 150.728C135.71 153.208 133.854 155.16 131.374 155.16ZM131.374 153.192C132.478 153.192 133.422 152.312 133.422 150.728C133.422 149.144 132.478 148.28 131.374 148.28C130.27 148.28 129.326 149.144 129.326 150.728C129.326 152.312 130.27 153.192 131.374 153.192ZM144.185 152.264C144.185 154.056 142.825 155.16 140.393 155.16C137.961 155.16 136.601 153.992 136.425 152.088H138.553C138.569 152.968 139.321 153.528 140.425 153.528C141.289 153.528 141.945 153.256 141.945 152.648C141.945 152.104 141.593 151.88 140.777 151.72L139.241 151.432C137.705 151.16 136.777 150.312 136.777 148.984C136.777 147.4 138.137 146.296 140.265 146.296C142.409 146.296 143.881 147.432 144.041 149.272H141.913C141.833 148.44 141.209 147.928 140.265 147.928C139.449 147.928 138.905 148.232 138.905 148.776C138.905 149.288 139.257 149.496 140.025 149.64L141.673 149.944C143.337 150.264 144.185 151.032 144.185 152.264ZM150.683 152.84V154.776C150.139 155.048 149.627 155.16 148.971 155.16C147.211 155.16 146.107 154.152 146.107 152.232V148.36H144.379V146.456H146.107V143.928H148.315V146.456H150.763V148.36H148.315V151.72C148.315 152.712 148.763 153.112 149.563 153.112C149.979 153.112 150.363 153.016 150.683 152.84ZM155.486 155.144C152.926 155.144 151.214 153.368 151.214 150.696C151.214 148.152 152.99 146.296 155.454 146.296C158.158 146.296 159.95 148.488 159.55 151.272H153.486C153.63 152.664 154.302 153.432 155.438 153.432C156.414 153.432 157.07 152.952 157.326 152.104H159.534C159.054 154.04 157.566 155.144 155.486 155.144ZM155.406 147.928C154.366 147.928 153.71 148.6 153.518 149.864H157.198C157.134 148.68 156.462 147.928 155.406 147.928ZM163.119 155H160.879V143.512H163.119V155ZM172.17 152.264C172.17 154.056 170.81 155.16 168.378 155.16C165.946 155.16 164.586 153.992 164.41 152.088H166.538C166.554 152.968 167.306 153.528 168.41 153.528C169.274 153.528 169.93 153.256 169.93 152.648C169.93 152.104 169.578 151.88 168.762 151.72L167.226 151.432C165.69 151.16 164.762 150.312 164.762 148.984C164.762 147.4 166.122 146.296 168.25 146.296C170.394 146.296 171.866 147.432 172.026 149.272H169.898C169.818 148.44 169.194 147.928 168.25 147.928C167.434 147.928 166.89 148.232 166.89 148.776C166.89 149.288 167.242 149.496 168.01 149.64L169.658 149.944C171.322 150.264 172.17 151.032 172.17 152.264Z" fill="#1A1A1A"/>
<path d="M49.6191 175L47.4911 167.118L45.3491 175H43.7671L41.1491 164.948H42.6611L44.5931 172.69L46.7071 164.948H48.3031L50.3891 172.704L52.3211 164.948H53.8331L51.2151 175H49.6191ZM57.2403 175.14C55.0983 175.14 53.6563 173.586 53.6563 171.248C53.6563 169.05 55.1543 167.44 57.1983 167.44C59.4103 167.44 60.8803 169.232 60.6283 171.64H55.0983C55.2103 173.152 55.9663 174.034 57.2123 174.034C58.2623 174.034 58.9903 173.46 59.2283 172.494H60.6283C60.2643 174.146 58.9903 175.14 57.2403 175.14ZM57.1703 168.504C56.0363 168.504 55.2663 169.316 55.1123 170.702H59.1303C59.0603 169.33 58.3183 168.504 57.1703 168.504ZM68.9356 171.29C68.9356 173.516 67.6476 175.14 65.6456 175.14C64.5956 175.14 63.6996 174.608 63.1676 173.67V175H61.8516V164.948H63.2656V168.854C63.7836 167.944 64.6376 167.44 65.6456 167.44C67.6336 167.44 68.9356 169.036 68.9356 171.29ZM67.4656 171.29C67.4656 169.61 66.5836 168.686 65.3656 168.686C64.1896 168.686 63.2656 169.596 63.2656 171.262C63.2656 172.9 64.1616 173.88 65.3656 173.88C66.5836 173.88 67.4656 172.942 67.4656 171.29ZM75.9692 172.788C75.9692 174.244 74.8352 175.14 72.8612 175.14C70.9012 175.14 69.7392 174.174 69.5992 172.578H70.9572C71.0132 173.502 71.7552 174.076 72.8892 174.076C73.8832 174.076 74.5412 173.726 74.5412 173.026C74.5412 172.41 74.1632 172.144 73.2392 171.962L72.0352 171.738C70.6632 171.472 69.8932 170.772 69.8932 169.652C69.8932 168.35 71.0272 167.44 72.7492 167.44C74.5272 167.44 75.7312 168.392 75.8572 169.918H74.4992C74.4152 169.022 73.7572 168.504 72.7632 168.504C71.8672 168.504 71.2652 168.882 71.2652 169.526C71.2652 170.128 71.6432 170.408 72.5392 170.576L73.7992 170.814C75.2692 171.08 75.9692 171.724 75.9692 172.788ZM78.955 165.858C78.955 166.39 78.535 166.796 77.933 166.796C77.331 166.796 76.897 166.39 76.897 165.858C76.897 165.312 77.331 164.92 77.933 164.92C78.535 164.92 78.955 165.312 78.955 165.858ZM78.647 175H77.233V167.58H78.647V175ZM84.516 173.628V174.874C84.082 175.07 83.704 175.14 83.256 175.14C81.884 175.14 80.932 174.398 80.932 172.76V168.784H79.294V167.58H80.932V165.382H82.346V167.58H84.586V168.784H82.346V172.438C82.346 173.46 82.836 173.824 83.592 173.824C83.928 173.824 84.222 173.768 84.516 173.628ZM88.5024 175.14C86.3604 175.14 84.9184 173.586 84.9184 171.248C84.9184 169.05 86.4164 167.44 88.4604 167.44C90.6724 167.44 92.1424 169.232 91.8904 171.64H86.3604C86.4724 173.152 87.2284 174.034 88.4744 174.034C89.5244 174.034 90.2524 173.46 90.4904 172.494H91.8904C91.5264 174.146 90.2524 175.14 88.5024 175.14ZM88.4324 168.504C87.2984 168.504 86.5284 169.316 86.3744 170.702H90.3924C90.3224 169.33 89.5804 168.504 88.4324 168.504ZM99.0495 175H95.8715V164.948H99.0495C102.256 164.948 104.104 166.992 104.104 169.932C104.104 172.83 102.186 175 99.0495 175ZM97.4115 166.278V173.67H98.9795C101.29 173.67 102.536 172.242 102.536 169.932C102.536 167.664 101.304 166.278 98.9795 166.278H97.4115ZM108.375 175.14C106.233 175.14 104.791 173.586 104.791 171.248C104.791 169.05 106.289 167.44 108.333 167.44C110.545 167.44 112.015 169.232 111.763 171.64H106.233C106.345 173.152 107.101 174.034 108.347 174.034C109.397 174.034 110.125 173.46 110.363 172.494H111.763C111.399 174.146 110.125 175.14 108.375 175.14ZM108.305 168.504C107.171 168.504 106.401 169.316 106.247 170.702H110.265C110.195 169.33 109.453 168.504 108.305 168.504ZM118.867 172.788C118.867 174.244 117.733 175.14 115.759 175.14C113.799 175.14 112.637 174.174 112.497 172.578H113.855C113.911 173.502 114.653 174.076 115.787 174.076C116.781 174.076 117.439 173.726 117.439 173.026C117.439 172.41 117.061 172.144 116.137 171.962L114.933 171.738C113.561 171.472 112.791 170.772 112.791 169.652C112.791 168.35 113.925 167.44 115.647 167.44C117.425 167.44 118.629 168.392 118.755 169.918H117.397C117.313 169.022 116.655 168.504 115.661 168.504C114.765 168.504 114.163 168.882 114.163 169.526C114.163 170.128 114.541 170.408 115.437 170.576L116.697 170.814C118.167 171.08 118.867 171.724 118.867 172.788ZM121.852 165.858C121.852 166.39 121.432 166.796 120.83 166.796C120.228 166.796 119.794 166.39 119.794 165.858C119.794 165.312 120.228 164.92 120.83 164.92C121.432 164.92 121.852 165.312 121.852 165.858ZM121.544 175H120.13V167.58H121.544V175ZM126.195 177.856C124.249 177.856 122.989 176.82 122.905 175.14H124.277C124.361 176.176 125.033 176.736 126.181 176.736C127.455 176.736 128.127 176.05 128.127 174.776V173.432C127.707 174.328 126.867 174.846 125.859 174.846C124.011 174.846 122.695 173.32 122.695 171.136C122.695 168.924 123.955 167.44 125.817 167.44C126.881 167.44 127.721 167.958 128.225 168.896V167.58H129.541V174.748C129.541 176.694 128.295 177.856 126.195 177.856ZM124.123 171.136C124.123 172.676 124.879 173.614 126.111 173.614C127.315 173.614 128.127 172.648 128.127 171.178C128.127 169.638 127.329 168.658 126.111 168.658C124.893 168.658 124.123 169.61 124.123 171.136ZM132.633 170.814V175H131.219V167.58H132.535V168.812C133.039 167.986 133.879 167.44 134.901 167.44C136.427 167.44 137.435 168.42 137.435 170.198V175H136.021V170.674C136.021 169.4 135.461 168.686 134.411 168.686C133.445 168.686 132.633 169.498 132.633 170.814ZM140.951 174.398C140.951 175.728 139.901 176.764 138.361 176.792V175.994C139.271 175.966 139.887 175.476 139.971 174.79C139.845 174.832 139.761 174.846 139.663 174.846C139.131 174.846 138.739 174.412 138.739 173.894C138.739 173.292 139.187 172.9 139.761 172.9C140.531 172.9 140.951 173.46 140.951 174.398ZM151.517 173.656V175H145.147V164.948H151.419V166.292H146.687V169.148H150.999V170.492H146.687V173.656H151.517ZM154.345 175H152.931V167.58H154.247V168.812C154.751 167.958 155.549 167.44 156.571 167.44C157.663 167.44 158.489 168 158.825 168.98C159.343 168.028 160.197 167.44 161.331 167.44C162.857 167.44 163.837 168.434 163.837 170.198V175H162.423V170.646C162.423 169.414 161.877 168.686 160.841 168.686C159.875 168.686 159.091 169.498 159.091 170.744V175H157.677V170.646C157.677 169.414 157.131 168.686 156.095 168.686C155.115 168.686 154.345 169.498 154.345 170.744V175ZM169.942 175V173.852C169.48 174.678 168.654 175.14 167.562 175.14C166.022 175.14 165.014 174.258 165.014 172.9C165.014 171.444 166.176 170.688 168.388 170.688C168.822 170.688 169.172 170.702 169.774 170.772V170.226C169.774 169.162 169.2 168.56 168.22 168.56C167.184 168.56 166.554 169.176 166.512 170.212H165.224C165.294 168.546 166.484 167.44 168.22 167.44C170.054 167.44 171.118 168.476 171.118 170.24V175H169.942ZM166.358 172.858C166.358 173.628 166.932 174.132 167.842 174.132C169.032 174.132 169.774 173.39 169.774 172.256V171.654C169.228 171.584 168.836 171.57 168.472 171.57C167.058 171.57 166.358 171.99 166.358 172.858ZM174.45 165.858C174.45 166.39 174.03 166.796 173.428 166.796C172.826 166.796 172.392 166.39 172.392 165.858C172.392 165.312 172.826 164.92 173.428 164.92C174.03 164.92 174.45 165.312 174.45 165.858ZM174.142 175H172.728V167.58H174.142V175ZM177.253 175H175.825V164.948H177.253V175ZM181.988 175.14C179.846 175.14 178.404 173.586 178.404 171.248C178.404 169.05 179.902 167.44 181.946 167.44C184.158 167.44 185.628 169.232 185.376 171.64H179.846C179.958 173.152 180.714 174.034 181.96 174.034C183.01 174.034 183.738 173.46 183.976 172.494H185.376C185.012 174.146 183.738 175.14 181.988 175.14ZM181.918 168.504C180.784 168.504 180.014 169.316 179.86 170.702H183.878C183.808 169.33 183.066 168.504 181.918 168.504ZM188.013 171.206V175H186.599V167.58H187.915V169.148C188.433 168.126 189.553 167.482 190.771 167.482V168.952C189.175 168.868 188.013 169.568 188.013 171.206ZM197.49 172.788C197.49 174.244 196.356 175.14 194.382 175.14C192.422 175.14 191.26 174.174 191.12 172.578H192.478C192.534 173.502 193.276 174.076 194.41 174.076C195.404 174.076 196.062 173.726 196.062 173.026C196.062 172.41 195.684 172.144 194.76 171.962L193.556 171.738C192.184 171.472 191.414 170.772 191.414 169.652C191.414 168.35 192.548 167.44 194.27 167.44C196.048 167.44 197.252 168.392 197.378 169.918H196.02C195.936 169.022 195.278 168.504 194.284 168.504C193.388 168.504 192.786 168.882 192.786 169.526C192.786 170.128 193.164 170.408 194.06 170.576L195.32 170.814C196.79 171.08 197.49 171.724 197.49 172.788ZM200.672 174.398C200.672 175.728 199.622 176.764 198.082 176.792V175.994C198.992 175.966 199.608 175.476 199.692 174.79C199.566 174.832 199.482 174.846 199.384 174.846C198.852 174.846 198.46 174.412 198.46 173.894C198.46 173.292 198.908 172.9 199.482 172.9C200.252 172.9 200.672 173.46 200.672 174.398ZM70.6404 189.06C70.6404 190.81 69.2404 192.14 66.8044 192.14C64.3824 192.14 62.9124 190.81 62.7864 188.808H64.3544C64.4244 190.082 65.2364 190.908 66.7764 190.908C68.0504 190.908 69.0024 190.306 69.0024 189.27C69.0024 188.43 68.4564 188.01 67.2944 187.758L65.8384 187.478C64.4244 187.198 63.1364 186.484 63.1364 184.776C63.1364 183.082 64.6204 181.808 66.7064 181.808C68.7924 181.808 70.3744 183.082 70.5004 185.084H68.9324C68.8484 183.88 67.9804 183.04 66.7204 183.04C65.4184 183.04 64.7044 183.81 64.7044 184.678C64.7044 185.63 65.5304 185.966 66.4684 186.162L67.9524 186.456C69.6744 186.806 70.6404 187.562 70.6404 189.06ZM75.1392 192.14C73.0392 192.14 71.4992 190.488 71.4992 188.29C71.4992 186.092 73.0392 184.44 75.1392 184.44C77.2392 184.44 78.7792 186.092 78.7792 188.29C78.7792 190.488 77.2392 192.14 75.1392 192.14ZM75.1392 190.894C76.3572 190.894 77.3232 189.914 77.3232 188.29C77.3232 186.666 76.3572 185.7 75.1392 185.7C73.9212 185.7 72.9692 186.666 72.9692 188.29C72.9692 189.914 73.9212 190.894 75.1392 190.894ZM82.8666 192.154C80.8366 192.154 79.4086 190.558 79.4086 188.29C79.4086 186.05 80.8646 184.44 82.8666 184.44C84.7006 184.44 86.0306 185.658 86.2966 187.59H84.8126C84.6586 186.4 83.9166 185.686 82.8806 185.686C81.6626 185.686 80.8646 186.722 80.8646 188.29C80.8646 189.872 81.6626 190.894 82.8806 190.894C83.9306 190.894 84.6586 190.194 84.8266 188.99H86.2966C86.0446 190.95 84.7286 192.154 82.8666 192.154ZM89.1619 182.858C89.1619 183.39 88.7419 183.796 88.1399 183.796C87.5379 183.796 87.1039 183.39 87.1039 182.858C87.1039 182.312 87.5379 181.92 88.1399 181.92C88.7419 181.92 89.1619 182.312 89.1619 182.858ZM88.8539 192H87.4399V184.58H88.8539V192ZM95.0309 192V190.852C94.5689 191.678 93.7429 192.14 92.6509 192.14C91.1109 192.14 90.1029 191.258 90.1029 189.9C90.1029 188.444 91.2649 187.688 93.4769 187.688C93.9109 187.688 94.2609 187.702 94.8629 187.772V187.226C94.8629 186.162 94.2889 185.56 93.3089 185.56C92.2729 185.56 91.6429 186.176 91.6009 187.212H90.3129C90.3829 185.546 91.5729 184.44 93.3089 184.44C95.1429 184.44 96.2069 185.476 96.2069 187.24V192H95.0309ZM91.4469 189.858C91.4469 190.628 92.0209 191.132 92.9309 191.132C94.1209 191.132 94.8629 190.39 94.8629 189.256V188.654C94.3169 188.584 93.9249 188.57 93.5609 188.57C92.1469 188.57 91.4469 188.99 91.4469 189.858ZM99.2454 192H97.8174V181.948H99.2454V192ZM108.278 192L105.1 184.314V192H103.686V181.948H105.576L108.95 190.11L112.31 181.948H114.214V192H112.786V184.3L109.594 192H108.278ZM119.047 192.14C116.905 192.14 115.463 190.586 115.463 188.248C115.463 186.05 116.961 184.44 119.005 184.44C121.217 184.44 122.687 186.232 122.435 188.64H116.905C117.017 190.152 117.773 191.034 119.019 191.034C120.069 191.034 120.797 190.46 121.035 189.494H122.435C122.071 191.146 120.797 192.14 119.047 192.14ZM118.977 185.504C117.843 185.504 117.073 186.316 116.919 187.702H120.937C120.867 186.33 120.125 185.504 118.977 185.504ZM122.99 188.29C122.99 186.036 124.278 184.44 126.28 184.44C127.274 184.44 128.142 184.944 128.66 185.854V181.948H130.074V192H128.758V190.67C128.226 191.608 127.33 192.14 126.28 192.14C124.278 192.14 122.99 190.516 122.99 188.29ZM124.46 188.29C124.46 189.942 125.328 190.88 126.56 190.88C127.764 190.88 128.66 189.9 128.66 188.262C128.66 186.596 127.736 185.686 126.56 185.686C125.328 185.686 124.46 186.61 124.46 188.29ZM133.481 182.858C133.481 183.39 133.061 183.796 132.459 183.796C131.857 183.796 131.423 183.39 131.423 182.858C131.423 182.312 131.857 181.92 132.459 181.92C133.061 181.92 133.481 182.312 133.481 182.858ZM133.173 192H131.759V184.58H133.173V192ZM139.35 192V190.852C138.888 191.678 138.062 192.14 136.97 192.14C135.43 192.14 134.422 191.258 134.422 189.9C134.422 188.444 135.584 187.688 137.796 187.688C138.23 187.688 138.58 187.702 139.182 187.772V187.226C139.182 186.162 138.608 185.56 137.628 185.56C136.592 185.56 135.962 186.176 135.92 187.212H134.632C134.702 185.546 135.892 184.44 137.628 184.44C139.462 184.44 140.526 185.476 140.526 187.24V192H139.35ZM135.766 189.858C135.766 190.628 136.34 191.132 137.25 191.132C138.44 191.132 139.182 190.39 139.182 189.256V188.654C138.636 188.584 138.244 188.57 137.88 188.57C136.466 188.57 135.766 188.99 135.766 189.858ZM148.381 188.5H146.435V192H144.895V181.948H148.381C150.635 181.948 152.091 183.096 152.091 185.196C152.091 187.31 150.635 188.5 148.381 188.5ZM148.367 183.25H146.435V187.198H148.367C149.725 187.198 150.551 186.456 150.551 185.21C150.551 183.964 149.725 183.25 148.367 183.25ZM156.21 192.14C154.11 192.14 152.57 190.488 152.57 188.29C152.57 186.092 154.11 184.44 156.21 184.44C158.31 184.44 159.85 186.092 159.85 188.29C159.85 190.488 158.31 192.14 156.21 192.14ZM156.21 190.894C157.428 190.894 158.394 189.914 158.394 188.29C158.394 186.666 157.428 185.7 156.21 185.7C154.992 185.7 154.04 186.666 154.04 188.29C154.04 189.914 154.992 190.894 156.21 190.894ZM166.892 189.788C166.892 191.244 165.758 192.14 163.784 192.14C161.824 192.14 160.662 191.174 160.522 189.578H161.88C161.936 190.502 162.678 191.076 163.812 191.076C164.806 191.076 165.464 190.726 165.464 190.026C165.464 189.41 165.086 189.144 164.162 188.962L162.958 188.738C161.586 188.472 160.816 187.772 160.816 186.652C160.816 185.35 161.95 184.44 163.672 184.44C165.45 184.44 166.654 185.392 166.78 186.918H165.422C165.338 186.022 164.68 185.504 163.686 185.504C162.79 185.504 162.188 185.882 162.188 186.526C162.188 187.128 162.566 187.408 163.462 187.576L164.722 187.814C166.192 188.08 166.892 188.724 166.892 189.788ZM172.246 190.628V191.874C171.812 192.07 171.434 192.14 170.986 192.14C169.614 192.14 168.662 191.398 168.662 189.76V185.784H167.024V184.58H168.662V182.382H170.076V184.58H172.316V185.784H170.076V189.438C170.076 190.46 170.566 190.824 171.322 190.824C171.658 190.824 171.952 190.768 172.246 190.628ZM179.238 189.788C179.238 191.244 178.104 192.14 176.13 192.14C174.17 192.14 173.008 191.174 172.868 189.578H174.226C174.282 190.502 175.024 191.076 176.158 191.076C177.152 191.076 177.81 190.726 177.81 190.026C177.81 189.41 177.432 189.144 176.508 188.962L175.304 188.738C173.932 188.472 173.162 187.772 173.162 186.652C173.162 185.35 174.296 184.44 176.018 184.44C177.796 184.44 179 185.392 179.126 186.918H177.768C177.684 186.022 177.026 185.504 176.032 185.504C175.136 185.504 174.534 185.882 174.534 186.526C174.534 187.128 174.912 187.408 175.808 187.576L177.068 187.814C178.538 188.08 179.238 188.724 179.238 189.788Z" fill="#1A1A1A"/>
<mask id="path-4-outside-1_1195_213" maskUnits="userSpaceOnUse" x="56" y="51" width="129" height="58" fill="black">
<rect fill="white" x="56" y="51" width="129" height="58"/>
<path d="M83.351 60.3689C85.4225 59.0948 87.9218 58.6909 90.2952 59.2381C92.6685 59.7853 94.7256 61.2421 96.0143 63.2871L110.995 87.113C112.284 89.1582 112.698 91.6288 112.145 93.9752C111.591 96.3215 110.118 98.3557 108.044 99.6298C106.579 100.531 104.893 101 103.193 101C102.494 101 101.793 100.917 101.105 100.76C98.7316 100.213 96.6745 98.7559 95.3858 96.7108L90.6361 89.1608L90.6077 89.1691C89.9591 88.141 88.9278 87.4088 87.737 87.1352C86.5434 86.8616 85.2938 87.0657 84.2511 87.7013C83.214 88.3424 82.47 89.3626 82.1932 90.54C82.087 90.9931 82.0537 91.455 82.0872 91.9109H82.0761C82.0759 96.8467 78.0307 100.846 73.0381 100.846C68.0455 100.846 64.0002 96.8466 64 91.9109C64 86.975 68.0454 82.9755 73.0381 82.9754C74.5113 82.9754 75.901 83.3238 77.1254 83.9429C77.2204 83.9953 77.318 84.0482 77.4213 84.0951C77.7232 84.2416 78.0421 84.352 78.3719 84.4293C78.7185 84.5067 79.0709 84.5484 79.4203 84.5484C80.2757 84.5484 81.1227 84.3103 81.8551 83.857C82.895 83.2214 83.6362 82.1991 83.913 81.0246C84.1897 79.8446 83.9828 78.6091 83.34 77.5783H83.3483L80.3986 72.8884C79.1099 70.8405 78.7019 68.3691 79.2554 66.0227C79.8089 63.6765 81.2825 61.6429 83.351 60.3689Z"/>
<path fill-rule="evenodd" clip-rule="evenodd" d="M134.036 82.5526C136.999 82.5526 138.448 83.896 138.448 86.6099C138.447 89.3237 136.996 90.6666 134.036 90.6666C131.076 90.6665 129.639 89.3264 129.639 86.6099C129.639 83.8961 131.073 82.5526 134.036 82.5526ZM134.036 84.338C132.384 84.3381 131.63 85.0541 131.63 86.6099C131.63 88.1656 132.384 88.8811 134.036 88.8812C135.688 88.8812 136.443 88.1657 136.443 86.6099C136.443 85.054 135.688 84.338 134.036 84.338Z"/>
<path fill-rule="evenodd" clip-rule="evenodd" d="M159.877 82.5526C162.838 82.5526 164.244 83.8792 164.244 86.4715C164.244 86.7009 164.23 86.914 164.196 87.066V87.0687H157.44C157.501 88.4725 158.365 89.2493 159.877 89.2493C161.049 89.2493 161.837 88.8232 162.099 88.0438H164.104C163.548 89.7684 162.13 90.6666 159.986 90.6666C156.962 90.6666 155.435 89.3098 155.435 86.6099C155.435 83.9098 156.917 82.5526 159.877 82.5526ZM159.894 83.9124C158.477 83.9124 157.627 84.5235 157.473 85.803H162.223C162.083 84.5373 161.311 83.9124 159.894 83.9124Z"/>
<path d="M143.231 82.5526C145.652 82.5526 147.15 83.4235 147.304 84.9158H145.3C145.098 84.3051 144.282 83.9401 143.138 83.9401C142.121 83.9402 141.442 84.3655 141.442 84.9761C141.442 85.4486 141.719 85.6315 142.521 85.7228L144.28 85.8909C146.748 86.1507 147.441 86.654 147.441 88.1933C147.441 89.7327 145.898 90.6638 143.614 90.6638C141.022 90.6638 139.51 89.7628 139.217 88.0411L139.219 88.0438H141.224C141.47 88.837 142.272 89.2493 143.6 89.2493C144.696 89.2493 145.437 88.8068 145.437 88.1656C145.437 87.5245 145.143 87.3419 144.064 87.2341L142.258 87.0521C140.285 86.8532 139.435 86.2447 139.435 85.0397C139.435 83.5447 140.931 82.5526 143.231 82.5526Z"/>
<path d="M172.79 82.5526C175.211 82.5526 176.71 83.4235 176.863 84.9158H174.859C174.658 84.3051 173.841 83.9401 172.698 83.9401C171.681 83.9401 171.001 84.3655 171.001 84.9761C171.001 85.4486 171.278 85.6315 172.08 85.7228L173.838 85.8909C176.307 86.1507 177 86.6539 177 88.1933C177 89.7327 175.457 90.6638 173.173 90.6638C170.582 90.6638 169.07 89.7628 168.776 88.0411L168.779 88.0438H170.783C171.029 88.837 171.831 89.2493 173.159 89.2493C174.255 89.2493 174.996 88.8068 174.996 88.1656C174.996 87.5245 174.702 87.3419 173.624 87.2341L171.817 87.0521C169.844 86.8531 168.994 86.2446 168.994 85.0397C168.994 83.5447 170.49 82.5526 172.79 82.5526Z"/>
<path d="M151.408 82.7989H154.539V84.5844H151.408V87.3144C151.408 88.29 151.763 88.641 152.811 88.641H154.539V90.4265H152.596C150.236 90.4264 149.404 89.4507 149.404 87.3144V84.5844H148.123V83.1802L149.404 82.7989V81.1214H151.408V82.7989Z"/>
<path d="M122.173 83.8515C122.62 83.0585 123.638 82.5554 124.904 82.5553C127.263 82.5553 128.437 83.7135 128.437 86.0791L128.435 86.0764V90.4237H126.43V86.1843C126.43 84.8882 125.843 84.338 124.426 84.338C122.869 84.3381 122.173 85.0235 122.173 86.5047V90.4237H120.166V81.1214H122.173V83.8515Z"/>
<path d="M167.543 90.4237H165.539V81.1214H167.543V90.4237Z"/>
<path fill-rule="evenodd" clip-rule="evenodd" d="M148.765 70.7631C151.728 70.7632 153.176 72.1032 153.176 74.8198C153.176 77.5365 151.725 78.8772 148.765 78.8772C145.804 78.8772 144.368 77.5365 144.368 74.8198C144.368 72.1059 145.802 70.7631 148.765 70.7631ZM148.765 72.5479C147.113 72.5479 146.358 73.2639 146.358 74.8198C146.358 76.3758 147.113 77.0918 148.765 77.0918C150.417 77.0917 151.172 76.3757 151.172 74.8198C151.172 73.264 150.417 72.5479 148.765 72.5479Z"/>
<path fill-rule="evenodd" clip-rule="evenodd" d="M123.849 71.0033C126.057 71.0033 126.941 71.8714 127.036 73.7562L127.038 73.7534V73.7562H127.045V74.042C127.046 74.0655 127.047 74.0891 127.047 74.1126V78.6281L125.52 78.7499L125.339 77.3623C125.104 78.3241 124.109 78.8717 122.585 78.8717C120.612 78.8716 119.463 77.8795 119.463 76.3568C119.463 75.0165 120.078 74.3919 122.034 74.2233L124.71 74.0074C124.852 73.9991 124.958 73.9768 125.037 73.9409C124.995 73.0954 124.62 72.7859 123.636 72.7859H120.167V71.0033H123.849ZM125.227 74.9859C125.101 75.0937 124.916 75.1403 124.553 75.1679L122.261 75.3506C121.598 75.3976 121.277 75.6878 121.277 76.2212C121.277 76.9674 121.85 77.3955 122.904 77.3956C124.428 77.3956 125.224 76.6771 125.224 75.2897L125.227 75.2925V74.9859Z"/>
<path d="M132.15 70.7604C134.571 70.7604 136.069 71.6307 136.223 73.123H134.218C134.017 72.5122 133.2 72.1472 132.057 72.1472C131.04 72.1473 130.361 72.5759 130.361 73.1839C130.361 73.6564 130.637 73.8387 131.44 73.9299L133.198 74.0987C135.666 74.3585 136.36 74.8614 136.36 76.4004C136.36 77.9398 134.816 78.8717 132.532 78.8717C129.941 78.8716 128.429 77.9705 128.135 76.2489L128.138 76.2516H130.143C130.389 77.0447 131.191 77.4564 132.519 77.4565C133.614 77.4565 134.355 77.0144 134.355 76.3734C134.355 75.7323 134.062 75.5497 132.983 75.442L131.177 75.2593C129.204 75.0603 128.354 74.4524 128.354 73.2475C128.354 71.7524 129.849 70.7604 132.15 70.7604Z"/>
<path d="M140.327 71.006H143.457V72.7915H140.327V75.5215C140.327 76.4971 140.681 76.8482 141.73 76.8482H143.457V78.6336H141.514C139.155 78.6335 138.322 77.6578 138.322 75.5215V72.7915H137.042V71.3874L138.322 71.006V69.3286H140.327V71.006Z"/>
<path d="M160.012 72.7915H157.775C156.727 72.7915 156.372 73.1425 156.372 74.1181V78.6308H154.367V74.1181C154.367 71.9818 155.217 71.0061 157.56 71.006H160.012V72.7915Z"/>
</mask>
<path d="M83.351 60.3689C85.4225 59.0948 87.9218 58.6909 90.2952 59.2381C92.6685 59.7853 94.7256 61.2421 96.0143 63.2871L110.995 87.113C112.284 89.1582 112.698 91.6288 112.145 93.9752C111.591 96.3215 110.118 98.3557 108.044 99.6298C106.579 100.531 104.893 101 103.193 101C102.494 101 101.793 100.917 101.105 100.76C98.7316 100.213 96.6745 98.7559 95.3858 96.7108L90.6361 89.1608L90.6077 89.1691C89.9591 88.141 88.9278 87.4088 87.737 87.1352C86.5434 86.8616 85.2938 87.0657 84.2511 87.7013C83.214 88.3424 82.47 89.3626 82.1932 90.54C82.087 90.9931 82.0537 91.455 82.0872 91.9109H82.0761C82.0759 96.8467 78.0307 100.846 73.0381 100.846C68.0455 100.846 64.0002 96.8466 64 91.9109C64 86.975 68.0454 82.9755 73.0381 82.9754C74.5113 82.9754 75.901 83.3238 77.1254 83.9429C77.2204 83.9953 77.318 84.0482 77.4213 84.0951C77.7232 84.2416 78.0421 84.352 78.3719 84.4293C78.7185 84.5067 79.0709 84.5484 79.4203 84.5484C80.2757 84.5484 81.1227 84.3103 81.8551 83.857C82.895 83.2214 83.6362 82.1991 83.913 81.0246C84.1897 79.8446 83.9828 78.6091 83.34 77.5783H83.3483L80.3986 72.8884C79.1099 70.8405 78.7019 68.3691 79.2554 66.0227C79.8089 63.6765 81.2825 61.6429 83.351 60.3689Z" fill="black"/>
<path fill-rule="evenodd" clip-rule="evenodd" d="M134.036 82.5526C136.999 82.5526 138.448 83.896 138.448 86.6099C138.447 89.3237 136.996 90.6666 134.036 90.6666C131.076 90.6665 129.639 89.3264 129.639 86.6099C129.639 83.8961 131.073 82.5526 134.036 82.5526ZM134.036 84.338C132.384 84.3381 131.63 85.0541 131.63 86.6099C131.63 88.1656 132.384 88.8811 134.036 88.8812C135.688 88.8812 136.443 88.1657 136.443 86.6099C136.443 85.054 135.688 84.338 134.036 84.338Z" fill="black"/>
<path fill-rule="evenodd" clip-rule="evenodd" d="M159.877 82.5526C162.838 82.5526 164.244 83.8792 164.244 86.4715C164.244 86.7009 164.23 86.914 164.196 87.066V87.0687H157.44C157.501 88.4725 158.365 89.2493 159.877 89.2493C161.049 89.2493 161.837 88.8232 162.099 88.0438H164.104C163.548 89.7684 162.13 90.6666 159.986 90.6666C156.962 90.6666 155.435 89.3098 155.435 86.6099C155.435 83.9098 156.917 82.5526 159.877 82.5526ZM159.894 83.9124C158.477 83.9124 157.627 84.5235 157.473 85.803H162.223C162.083 84.5373 161.311 83.9124 159.894 83.9124Z" fill="black"/>
<path d="M143.231 82.5526C145.652 82.5526 147.15 83.4235 147.304 84.9158H145.3C145.098 84.3051 144.282 83.9401 143.138 83.9401C142.121 83.9402 141.442 84.3655 141.442 84.9761C141.442 85.4486 141.719 85.6315 142.521 85.7228L144.28 85.8909C146.748 86.1507 147.441 86.654 147.441 88.1933C147.441 89.7327 145.898 90.6638 143.614 90.6638C141.022 90.6638 139.51 89.7628 139.217 88.0411L139.219 88.0438H141.224C141.47 88.837 142.272 89.2493 143.6 89.2493C144.696 89.2493 145.437 88.8068 145.437 88.1656C145.437 87.5245 145.143 87.3419 144.064 87.2341L142.258 87.0521C140.285 86.8532 139.435 86.2447 139.435 85.0397C139.435 83.5447 140.931 82.5526 143.231 82.5526Z" fill="black"/>
<path d="M172.79 82.5526C175.211 82.5526 176.71 83.4235 176.863 84.9158H174.859C174.658 84.3051 173.841 83.9401 172.698 83.9401C171.681 83.9401 171.001 84.3655 171.001 84.9761C171.001 85.4486 171.278 85.6315 172.08 85.7228L173.838 85.8909C176.307 86.1507 177 86.6539 177 88.1933C177 89.7327 175.457 90.6638 173.173 90.6638C170.582 90.6638 169.07 89.7628 168.776 88.0411L168.779 88.0438H170.783C171.029 88.837 171.831 89.2493 173.159 89.2493C174.255 89.2493 174.996 88.8068 174.996 88.1656C174.996 87.5245 174.702 87.3419 173.624 87.2341L171.817 87.0521C169.844 86.8531 168.994 86.2446 168.994 85.0397C168.994 83.5447 170.49 82.5526 172.79 82.5526Z" fill="black"/>
<path d="M151.408 82.7989H154.539V84.5844H151.408V87.3144C151.408 88.29 151.763 88.641 152.811 88.641H154.539V90.4265H152.596C150.236 90.4264 149.404 89.4507 149.404 87.3144V84.5844H148.123V83.1802L149.404 82.7989V81.1214H151.408V82.7989Z" fill="black"/>
<path d="M122.173 83.8515C122.62 83.0585 123.638 82.5554 124.904 82.5553C127.263 82.5553 128.437 83.7135 128.437 86.0791L128.435 86.0764V90.4237H126.43V86.1843C126.43 84.8882 125.843 84.338 124.426 84.338C122.869 84.3381 122.173 85.0235 122.173 86.5047V90.4237H120.166V81.1214H122.173V83.8515Z" fill="black"/>
<path d="M167.543 90.4237H165.539V81.1214H167.543V90.4237Z" fill="black"/>
<path fill-rule="evenodd" clip-rule="evenodd" d="M148.765 70.7631C151.728 70.7632 153.176 72.1032 153.176 74.8198C153.176 77.5365 151.725 78.8772 148.765 78.8772C145.804 78.8772 144.368 77.5365 144.368 74.8198C144.368 72.1059 145.802 70.7631 148.765 70.7631ZM148.765 72.5479C147.113 72.5479 146.358 73.2639 146.358 74.8198C146.358 76.3758 147.113 77.0918 148.765 77.0918C150.417 77.0917 151.172 76.3757 151.172 74.8198C151.172 73.264 150.417 72.5479 148.765 72.5479Z" fill="black"/>
<path fill-rule="evenodd" clip-rule="evenodd" d="M123.849 71.0033C126.057 71.0033 126.941 71.8714 127.036 73.7562L127.038 73.7534V73.7562H127.045V74.042C127.046 74.0655 127.047 74.0891 127.047 74.1126V78.6281L125.52 78.7499L125.339 77.3623C125.104 78.3241 124.109 78.8717 122.585 78.8717C120.612 78.8716 119.463 77.8795 119.463 76.3568C119.463 75.0165 120.078 74.3919 122.034 74.2233L124.71 74.0074C124.852 73.9991 124.958 73.9768 125.037 73.9409C124.995 73.0954 124.62 72.7859 123.636 72.7859H120.167V71.0033H123.849ZM125.227 74.9859C125.101 75.0937 124.916 75.1403 124.553 75.1679L122.261 75.3506C121.598 75.3976 121.277 75.6878 121.277 76.2212C121.277 76.9674 121.85 77.3955 122.904 77.3956C124.428 77.3956 125.224 76.6771 125.224 75.2897L125.227 75.2925V74.9859Z" fill="black"/>
<path d="M132.15 70.7604C134.571 70.7604 136.069 71.6307 136.223 73.123H134.218C134.017 72.5122 133.2 72.1472 132.057 72.1472C131.04 72.1473 130.361 72.5759 130.361 73.1839C130.361 73.6564 130.637 73.8387 131.44 73.9299L133.198 74.0987C135.666 74.3585 136.36 74.8614 136.36 76.4004C136.36 77.9398 134.816 78.8717 132.532 78.8717C129.941 78.8716 128.429 77.9705 128.135 76.2489L128.138 76.2516H130.143C130.389 77.0447 131.191 77.4564 132.519 77.4565C133.614 77.4565 134.355 77.0144 134.355 76.3734C134.355 75.7323 134.062 75.5497 132.983 75.442L131.177 75.2593C129.204 75.0603 128.354 74.4524 128.354 73.2475C128.354 71.7524 129.849 70.7604 132.15 70.7604Z" fill="black"/>
<path d="M140.327 71.006H143.457V72.7915H140.327V75.5215C140.327 76.4971 140.681 76.8482 141.73 76.8482H143.457V78.6336H141.514C139.155 78.6335 138.322 77.6578 138.322 75.5215V72.7915H137.042V71.3874L138.322 71.006V69.3286H140.327V71.006Z" fill="black"/>
<path d="M160.012 72.7915H157.775C156.727 72.7915 156.372 73.1425 156.372 74.1181V78.6308H154.367V74.1181C154.367 71.9818 155.217 71.0061 157.56 71.006H160.012V72.7915Z" fill="black"/>
<path d="M83.351 60.3689C85.4225 59.0948 87.9218 58.6909 90.2952 59.2381C92.6685 59.7853 94.7256 61.2421 96.0143 63.2871L110.995 87.113C112.284 89.1582 112.698 91.6288 112.145 93.9752C111.591 96.3215 110.118 98.3557 108.044 99.6298C106.579 100.531 104.893 101 103.193 101C102.494 101 101.793 100.917 101.105 100.76C98.7316 100.213 96.6745 98.7559 95.3858 96.7108L90.6361 89.1608L90.6077 89.1691C89.9591 88.141 88.9278 87.4088 87.737 87.1352C86.5434 86.8616 85.2938 87.0657 84.2511 87.7013C83.214 88.3424 82.47 89.3626 82.1932 90.54C82.087 90.9931 82.0537 91.455 82.0872 91.9109H82.0761C82.0759 96.8467 78.0307 100.846 73.0381 100.846C68.0455 100.846 64.0002 96.8466 64 91.9109C64 86.975 68.0454 82.9755 73.0381 82.9754C74.5113 82.9754 75.901 83.3238 77.1254 83.9429C77.2204 83.9953 77.318 84.0482 77.4213 84.0951C77.7232 84.2416 78.0421 84.352 78.3719 84.4293C78.7185 84.5067 79.0709 84.5484 79.4203 84.5484C80.2757 84.5484 81.1227 84.3103 81.8551 83.857C82.895 83.2214 83.6362 82.1991 83.913 81.0246C84.1897 79.8446 83.9828 78.6091 83.34 77.5783H83.3483L80.3986 72.8884C79.1099 70.8405 78.7019 68.3691 79.2554 66.0227C79.8089 63.6765 81.2825 61.6429 83.351 60.3689Z" stroke="#E6E2DE" stroke-width="16" stroke-linejoin="round" mask="url(#path-4-outside-1_1195_213)"/>
<path fill-rule="evenodd" clip-rule="evenodd" d="M134.036 82.5526C136.999 82.5526 138.448 83.896 138.448 86.6099C138.447 89.3237 136.996 90.6666 134.036 90.6666C131.076 90.6665 129.639 89.3264 129.639 86.6099C129.639 83.8961 131.073 82.5526 134.036 82.5526ZM134.036 84.338C132.384 84.3381 131.63 85.0541 131.63 86.6099C131.63 88.1656 132.384 88.8811 134.036 88.8812C135.688 88.8812 136.443 88.1657 136.443 86.6099C136.443 85.054 135.688 84.338 134.036 84.338Z" stroke="#E6E2DE" stroke-width="16" stroke-linejoin="round" mask="url(#path-4-outside-1_1195_213)"/>
<path fill-rule="evenodd" clip-rule="evenodd" d="M159.877 82.5526C162.838 82.5526 164.244 83.8792 164.244 86.4715C164.244 86.7009 164.23 86.914 164.196 87.066V87.0687H157.44C157.501 88.4725 158.365 89.2493 159.877 89.2493C161.049 89.2493 161.837 88.8232 162.099 88.0438H164.104C163.548 89.7684 162.13 90.6666 159.986 90.6666C156.962 90.6666 155.435 89.3098 155.435 86.6099C155.435 83.9098 156.917 82.5526 159.877 82.5526ZM159.894 83.9124C158.477 83.9124 157.627 84.5235 157.473 85.803H162.223C162.083 84.5373 161.311 83.9124 159.894 83.9124Z" stroke="#E6E2DE" stroke-width="16" stroke-linejoin="round" mask="url(#path-4-outside-1_1195_213)"/>
<path d="M143.231 82.5526C145.652 82.5526 147.15 83.4235 147.304 84.9158H145.3C145.098 84.3051 144.282 83.9401 143.138 83.9401C142.121 83.9402 141.442 84.3655 141.442 84.9761C141.442 85.4486 141.719 85.6315 142.521 85.7228L144.28 85.8909C146.748 86.1507 147.441 86.654 147.441 88.1933C147.441 89.7327 145.898 90.6638 143.614 90.6638C141.022 90.6638 139.51 89.7628 139.217 88.0411L139.219 88.0438H141.224C141.47 88.837 142.272 89.2493 143.6 89.2493C144.696 89.2493 145.437 88.8068 145.437 88.1656C145.437 87.5245 145.143 87.3419 144.064 87.2341L142.258 87.0521C140.285 86.8532 139.435 86.2447 139.435 85.0397C139.435 83.5447 140.931 82.5526 143.231 82.5526Z" stroke="#E6E2DE" stroke-width="16" stroke-linejoin="round" mask="url(#path-4-outside-1_1195_213)"/>
<path d="M172.79 82.5526C175.211 82.5526 176.71 83.4235 176.863 84.9158H174.859C174.658 84.3051 173.841 83.9401 172.698 83.9401C171.681 83.9401 171.001 84.3655 171.001 84.9761C171.001 85.4486 171.278 85.6315 172.08 85.7228L173.838 85.8909C176.307 86.1507 177 86.6539 177 88.1933C177 89.7327 175.457 90.6638 173.173 90.6638C170.582 90.6638 169.07 89.7628 168.776 88.0411L168.779 88.0438H170.783C171.029 88.837 171.831 89.2493 173.159 89.2493C174.255 89.2493 174.996 88.8068 174.996 88.1656C174.996 87.5245 174.702 87.3419 173.624 87.2341L171.817 87.0521C169.844 86.8531 168.994 86.2446 168.994 85.0397C168.994 83.5447 170.49 82.5526 172.79 82.5526Z" stroke="#E6E2DE" stroke-width="16" stroke-linejoin="round" mask="url(#path-4-outside-1_1195_213)"/>
<path d="M151.408 82.7989H154.539V84.5844H151.408V87.3144C151.408 88.29 151.763 88.641 152.811 88.641H154.539V90.4265H152.596C150.236 90.4264 149.404 89.4507 149.404 87.3144V84.5844H148.123V83.1802L149.404 82.7989V81.1214H151.408V82.7989Z" stroke="#E6E2DE" stroke-width="16" stroke-linejoin="round" mask="url(#path-4-outside-1_1195_213)"/>
<path d="M122.173 83.8515C122.62 83.0585 123.638 82.5554 124.904 82.5553C127.263 82.5553 128.437 83.7135 128.437 86.0791L128.435 86.0764V90.4237H126.43V86.1843C126.43 84.8882 125.843 84.338 124.426 84.338C122.869 84.3381 122.173 85.0235 122.173 86.5047V90.4237H120.166V81.1214H122.173V83.8515Z" stroke="#E6E2DE" stroke-width="16" stroke-linejoin="round" mask="url(#path-4-outside-1_1195_213)"/>
<path d="M167.543 90.4237H165.539V81.1214H167.543V90.4237Z" stroke="#E6E2DE" stroke-width="16" stroke-linejoin="round" mask="url(#path-4-outside-1_1195_213)"/>
<path fill-rule="evenodd" clip-rule="evenodd" d="M148.765 70.7631C151.728 70.7632 153.176 72.1032 153.176 74.8198C153.176 77.5365 151.725 78.8772 148.765 78.8772C145.804 78.8772 144.368 77.5365 144.368 74.8198C144.368 72.1059 145.802 70.7631 148.765 70.7631ZM148.765 72.5479C147.113 72.5479 146.358 73.2639 146.358 74.8198C146.358 76.3758 147.113 77.0918 148.765 77.0918C150.417 77.0917 151.172 76.3757 151.172 74.8198C151.172 73.264 150.417 72.5479 148.765 72.5479Z" stroke="#E6E2DE" stroke-width="16" stroke-linejoin="round" mask="url(#path-4-outside-1_1195_213)"/>
<path fill-rule="evenodd" clip-rule="evenodd" d="M123.849 71.0033C126.057 71.0033 126.941 71.8714 127.036 73.7562L127.038 73.7534V73.7562H127.045V74.042C127.046 74.0655 127.047 74.0891 127.047 74.1126V78.6281L125.52 78.7499L125.339 77.3623C125.104 78.3241 124.109 78.8717 122.585 78.8717C120.612 78.8716 119.463 77.8795 119.463 76.3568C119.463 75.0165 120.078 74.3919 122.034 74.2233L124.71 74.0074C124.852 73.9991 124.958 73.9768 125.037 73.9409C124.995 73.0954 124.62 72.7859 123.636 72.7859H120.167V71.0033H123.849ZM125.227 74.9859C125.101 75.0937 124.916 75.1403 124.553 75.1679L122.261 75.3506C121.598 75.3976 121.277 75.6878 121.277 76.2212C121.277 76.9674 121.85 77.3955 122.904 77.3956C124.428 77.3956 125.224 76.6771 125.224 75.2897L125.227 75.2925V74.9859Z" stroke="#E6E2DE" stroke-width="16" stroke-linejoin="round" mask="url(#path-4-outside-1_1195_213)"/>
<path d="M132.15 70.7604C134.571 70.7604 136.069 71.6307 136.223 73.123H134.218C134.017 72.5122 133.2 72.1472 132.057 72.1472C131.04 72.1473 130.361 72.5759 130.361 73.1839C130.361 73.6564 130.637 73.8387 131.44 73.9299L133.198 74.0987C135.666 74.3585 136.36 74.8614 136.36 76.4004C136.36 77.9398 134.816 78.8717 132.532 78.8717C129.941 78.8716 128.429 77.9705 128.135 76.2489L128.138 76.2516H130.143C130.389 77.0447 131.191 77.4564 132.519 77.4565C133.614 77.4565 134.355 77.0144 134.355 76.3734C134.355 75.7323 134.062 75.5497 132.983 75.442L131.177 75.2593C129.204 75.0603 128.354 74.4524 128.354 73.2475C128.354 71.7524 129.849 70.7604 132.15 70.7604Z" stroke="#E6E2DE" stroke-width="16" stroke-linejoin="round" mask="url(#path-4-outside-1_1195_213)"/>
<path d="M140.327 71.006H143.457V72.7915H140.327V75.5215C140.327 76.4971 140.681 76.8482 141.73 76.8482H143.457V78.6336H141.514C139.155 78.6335 138.322 77.6578 138.322 75.5215V72.7915H137.042V71.3874L138.322 71.006V69.3286H140.327V71.006Z" stroke="#E6E2DE" stroke-width="16" stroke-linejoin="round" mask="url(#path-4-outside-1_1195_213)"/>
<path d="M160.012 72.7915H157.775C156.727 72.7915 156.372 73.1425 156.372 74.1181V78.6308H154.367V74.1181C154.367 71.9818 155.217 71.0061 157.56 71.006H160.012V72.7915Z" stroke="#E6E2DE" stroke-width="16" stroke-linejoin="round" mask="url(#path-4-outside-1_1195_213)"/>
</svg>
