<svg width="242" height="189" viewBox="0 0 242 189" fill="none" xmlns="http://www.w3.org/2000/svg">
<rect y="29" width="242" height="160" rx="12" fill="#E6E2DE"/>
<path d="M78.1677 104L77.3037 101.536H72.8397L71.9597 104H69.5117L73.8317 92.512H76.4877L80.7757 104H78.1677ZM75.0957 95.168L73.5277 99.6H76.6317L75.0957 95.168ZM89.0392 101.264C89.0392 103.056 87.6792 104.16 85.2472 104.16C82.8152 104.16 81.4552 102.992 81.2792 101.088H83.4072C83.4232 101.968 84.1752 102.528 85.2792 102.528C86.1432 102.528 86.7992 102.256 86.7992 101.648C86.7992 101.104 86.4472 100.88 85.6312 100.72L84.0952 100.432C82.5592 100.16 81.6312 99.312 81.6312 97.984C81.6312 96.4 82.9912 95.296 85.1192 95.296C87.2632 95.296 88.7352 96.432 88.8952 98.272H86.7672C86.6872 97.44 86.0632 96.928 85.1192 96.928C84.3032 96.928 83.7592 97.232 83.7592 97.776C83.7592 98.288 84.1112 98.496 84.8792 98.64L86.5272 98.944C88.1912 99.264 89.0392 100.032 89.0392 101.264ZM95.5377 101.84V103.776C94.9937 104.048 94.4817 104.16 93.8257 104.16C92.0657 104.16 90.9617 103.152 90.9617 101.232V97.36H89.2337V95.456H90.9617V92.928H93.1697V95.456H95.6177V97.36H93.1697V100.72C93.1697 101.712 93.6177 102.112 94.4177 102.112C94.8337 102.112 95.2177 102.016 95.5377 101.84ZM100.404 104.16C97.9242 104.16 96.0682 102.208 96.0682 99.728C96.0682 97.232 97.9242 95.296 100.404 95.296C102.884 95.296 104.74 97.232 104.74 99.728C104.74 102.208 102.884 104.16 100.404 104.16ZM100.404 102.192C101.508 102.192 102.452 101.312 102.452 99.728C102.452 98.144 101.508 97.28 100.404 97.28C99.3002 97.28 98.3562 98.144 98.3562 99.728C98.3562 101.312 99.3002 102.192 100.404 102.192ZM108.223 99.856V104H105.999V95.456H108.047V97.104C108.671 96.016 109.999 95.36 111.376 95.36V97.664C109.487 97.52 108.223 97.968 108.223 99.856ZM118.179 104H115.747V92.512H118.179V97.04H123.155V92.512H125.587V104H123.155V99.136H118.179V104ZM131.374 104.16C128.894 104.16 127.038 102.208 127.038 99.728C127.038 97.232 128.894 95.296 131.374 95.296C133.854 95.296 135.71 97.232 135.71 99.728C135.71 102.208 133.854 104.16 131.374 104.16ZM131.374 102.192C132.478 102.192 133.422 101.312 133.422 99.728C133.422 98.144 132.478 97.28 131.374 97.28C130.27 97.28 129.326 98.144 129.326 99.728C129.326 101.312 130.27 102.192 131.374 102.192ZM144.185 101.264C144.185 103.056 142.825 104.16 140.393 104.16C137.961 104.16 136.601 102.992 136.425 101.088H138.553C138.569 101.968 139.321 102.528 140.425 102.528C141.289 102.528 141.945 102.256 141.945 101.648C141.945 101.104 141.593 100.88 140.777 100.72L139.241 100.432C137.705 100.16 136.777 99.312 136.777 97.984C136.777 96.4 138.137 95.296 140.265 95.296C142.409 95.296 143.881 96.432 144.041 98.272H141.913C141.833 97.44 141.209 96.928 140.265 96.928C139.449 96.928 138.905 97.232 138.905 97.776C138.905 98.288 139.257 98.496 140.025 98.64L141.673 98.944C143.337 99.264 144.185 100.032 144.185 101.264ZM150.683 101.84V103.776C150.139 104.048 149.627 104.16 148.971 104.16C147.211 104.16 146.107 103.152 146.107 101.232V97.36H144.379V95.456H146.107V92.928H148.315V95.456H150.763V97.36H148.315V100.72C148.315 101.712 148.763 102.112 149.563 102.112C149.979 102.112 150.363 102.016 150.683 101.84ZM155.486 104.144C152.926 104.144 151.214 102.368 151.214 99.696C151.214 97.152 152.99 95.296 155.454 95.296C158.158 95.296 159.95 97.488 159.55 100.272H153.486C153.63 101.664 154.302 102.432 155.438 102.432C156.414 102.432 157.07 101.952 157.326 101.104H159.534C159.054 103.04 157.566 104.144 155.486 104.144ZM155.406 96.928C154.366 96.928 153.71 97.6 153.518 98.864H157.198C157.134 97.68 156.462 96.928 155.406 96.928ZM163.119 104H160.879V92.512H163.119V104ZM172.17 101.264C172.17 103.056 170.81 104.16 168.378 104.16C165.946 104.16 164.586 102.992 164.41 101.088H166.538C166.554 101.968 167.306 102.528 168.41 102.528C169.274 102.528 169.93 102.256 169.93 101.648C169.93 101.104 169.578 100.88 168.762 100.72L167.226 100.432C165.69 100.16 164.762 99.312 164.762 97.984C164.762 96.4 166.122 95.296 168.25 95.296C170.394 95.296 171.866 96.432 172.026 98.272H169.898C169.818 97.44 169.194 96.928 168.25 96.928C167.434 96.928 166.89 97.232 166.89 97.776C166.89 98.288 167.242 98.496 168.01 98.64L169.658 98.944C171.322 99.264 172.17 100.032 172.17 101.264Z" fill="#1A1A1A"/>
<path d="M49.6191 124L47.4911 116.118L45.3491 124H43.7671L41.1491 113.948H42.6611L44.5931 121.69L46.7071 113.948H48.3031L50.3891 121.704L52.3211 113.948H53.8331L51.2151 124H49.6191ZM57.2403 124.14C55.0983 124.14 53.6563 122.586 53.6563 120.248C53.6563 118.05 55.1543 116.44 57.1983 116.44C59.4103 116.44 60.8803 118.232 60.6283 120.64H55.0983C55.2103 122.152 55.9663 123.034 57.2123 123.034C58.2623 123.034 58.9903 122.46 59.2283 121.494H60.6283C60.2643 123.146 58.9903 124.14 57.2403 124.14ZM57.1703 117.504C56.0363 117.504 55.2663 118.316 55.1123 119.702H59.1303C59.0603 118.33 58.3183 117.504 57.1703 117.504ZM68.9356 120.29C68.9356 122.516 67.6476 124.14 65.6456 124.14C64.5956 124.14 63.6996 123.608 63.1676 122.67V124H61.8516V113.948H63.2656V117.854C63.7836 116.944 64.6376 116.44 65.6456 116.44C67.6336 116.44 68.9356 118.036 68.9356 120.29ZM67.4656 120.29C67.4656 118.61 66.5836 117.686 65.3656 117.686C64.1896 117.686 63.2656 118.596 63.2656 120.262C63.2656 121.9 64.1616 122.88 65.3656 122.88C66.5836 122.88 67.4656 121.942 67.4656 120.29ZM75.9692 121.788C75.9692 123.244 74.8352 124.14 72.8612 124.14C70.9012 124.14 69.7392 123.174 69.5992 121.578H70.9572C71.0132 122.502 71.7552 123.076 72.8892 123.076C73.8832 123.076 74.5412 122.726 74.5412 122.026C74.5412 121.41 74.1632 121.144 73.2392 120.962L72.0352 120.738C70.6632 120.472 69.8932 119.772 69.8932 118.652C69.8932 117.35 71.0272 116.44 72.7492 116.44C74.5272 116.44 75.7312 117.392 75.8572 118.918H74.4992C74.4152 118.022 73.7572 117.504 72.7632 117.504C71.8672 117.504 71.2652 117.882 71.2652 118.526C71.2652 119.128 71.6432 119.408 72.5392 119.576L73.7992 119.814C75.2692 120.08 75.9692 120.724 75.9692 121.788ZM78.955 114.858C78.955 115.39 78.535 115.796 77.933 115.796C77.331 115.796 76.897 115.39 76.897 114.858C76.897 114.312 77.331 113.92 77.933 113.92C78.535 113.92 78.955 114.312 78.955 114.858ZM78.647 124H77.233V116.58H78.647V124ZM84.516 122.628V123.874C84.082 124.07 83.704 124.14 83.256 124.14C81.884 124.14 80.932 123.398 80.932 121.76V117.784H79.294V116.58H80.932V114.382H82.346V116.58H84.586V117.784H82.346V121.438C82.346 122.46 82.836 122.824 83.592 122.824C83.928 122.824 84.222 122.768 84.516 122.628ZM88.5024 124.14C86.3604 124.14 84.9184 122.586 84.9184 120.248C84.9184 118.05 86.4164 116.44 88.4604 116.44C90.6724 116.44 92.1424 118.232 91.8904 120.64H86.3604C86.4724 122.152 87.2284 123.034 88.4744 123.034C89.5244 123.034 90.2524 122.46 90.4904 121.494H91.8904C91.5264 123.146 90.2524 124.14 88.5024 124.14ZM88.4324 117.504C87.2984 117.504 86.5284 118.316 86.3744 119.702H90.3924C90.3224 118.33 89.5804 117.504 88.4324 117.504ZM99.0495 124H95.8715V113.948H99.0495C102.256 113.948 104.104 115.992 104.104 118.932C104.104 121.83 102.186 124 99.0495 124ZM97.4115 115.278V122.67H98.9795C101.29 122.67 102.536 121.242 102.536 118.932C102.536 116.664 101.304 115.278 98.9795 115.278H97.4115ZM108.375 124.14C106.233 124.14 104.791 122.586 104.791 120.248C104.791 118.05 106.289 116.44 108.333 116.44C110.545 116.44 112.015 118.232 111.763 120.64H106.233C106.345 122.152 107.101 123.034 108.347 123.034C109.397 123.034 110.125 122.46 110.363 121.494H111.763C111.399 123.146 110.125 124.14 108.375 124.14ZM108.305 117.504C107.171 117.504 106.401 118.316 106.247 119.702H110.265C110.195 118.33 109.453 117.504 108.305 117.504ZM118.867 121.788C118.867 123.244 117.733 124.14 115.759 124.14C113.799 124.14 112.637 123.174 112.497 121.578H113.855C113.911 122.502 114.653 123.076 115.787 123.076C116.781 123.076 117.439 122.726 117.439 122.026C117.439 121.41 117.061 121.144 116.137 120.962L114.933 120.738C113.561 120.472 112.791 119.772 112.791 118.652C112.791 117.35 113.925 116.44 115.647 116.44C117.425 116.44 118.629 117.392 118.755 118.918H117.397C117.313 118.022 116.655 117.504 115.661 117.504C114.765 117.504 114.163 117.882 114.163 118.526C114.163 119.128 114.541 119.408 115.437 119.576L116.697 119.814C118.167 120.08 118.867 120.724 118.867 121.788ZM121.852 114.858C121.852 115.39 121.432 115.796 120.83 115.796C120.228 115.796 119.794 115.39 119.794 114.858C119.794 114.312 120.228 113.92 120.83 113.92C121.432 113.92 121.852 114.312 121.852 114.858ZM121.544 124H120.13V116.58H121.544V124ZM126.195 126.856C124.249 126.856 122.989 125.82 122.905 124.14H124.277C124.361 125.176 125.033 125.736 126.181 125.736C127.455 125.736 128.127 125.05 128.127 123.776V122.432C127.707 123.328 126.867 123.846 125.859 123.846C124.011 123.846 122.695 122.32 122.695 120.136C122.695 117.924 123.955 116.44 125.817 116.44C126.881 116.44 127.721 116.958 128.225 117.896V116.58H129.541V123.748C129.541 125.694 128.295 126.856 126.195 126.856ZM124.123 120.136C124.123 121.676 124.879 122.614 126.111 122.614C127.315 122.614 128.127 121.648 128.127 120.178C128.127 118.638 127.329 117.658 126.111 117.658C124.893 117.658 124.123 118.61 124.123 120.136ZM132.633 119.814V124H131.219V116.58H132.535V117.812C133.039 116.986 133.879 116.44 134.901 116.44C136.427 116.44 137.435 117.42 137.435 119.198V124H136.021V119.674C136.021 118.4 135.461 117.686 134.411 117.686C133.445 117.686 132.633 118.498 132.633 119.814ZM140.951 123.398C140.951 124.728 139.901 125.764 138.361 125.792V124.994C139.271 124.966 139.887 124.476 139.971 123.79C139.845 123.832 139.761 123.846 139.663 123.846C139.131 123.846 138.739 123.412 138.739 122.894C138.739 122.292 139.187 121.9 139.761 121.9C140.531 121.9 140.951 122.46 140.951 123.398ZM151.517 122.656V124H145.147V113.948H151.419V115.292H146.687V118.148H150.999V119.492H146.687V122.656H151.517ZM154.345 124H152.931V116.58H154.247V117.812C154.751 116.958 155.549 116.44 156.571 116.44C157.663 116.44 158.489 117 158.825 117.98C159.343 117.028 160.197 116.44 161.331 116.44C162.857 116.44 163.837 117.434 163.837 119.198V124H162.423V119.646C162.423 118.414 161.877 117.686 160.841 117.686C159.875 117.686 159.091 118.498 159.091 119.744V124H157.677V119.646C157.677 118.414 157.131 117.686 156.095 117.686C155.115 117.686 154.345 118.498 154.345 119.744V124ZM169.942 124V122.852C169.48 123.678 168.654 124.14 167.562 124.14C166.022 124.14 165.014 123.258 165.014 121.9C165.014 120.444 166.176 119.688 168.388 119.688C168.822 119.688 169.172 119.702 169.774 119.772V119.226C169.774 118.162 169.2 117.56 168.22 117.56C167.184 117.56 166.554 118.176 166.512 119.212H165.224C165.294 117.546 166.484 116.44 168.22 116.44C170.054 116.44 171.118 117.476 171.118 119.24V124H169.942ZM166.358 121.858C166.358 122.628 166.932 123.132 167.842 123.132C169.032 123.132 169.774 122.39 169.774 121.256V120.654C169.228 120.584 168.836 120.57 168.472 120.57C167.058 120.57 166.358 120.99 166.358 121.858ZM174.45 114.858C174.45 115.39 174.03 115.796 173.428 115.796C172.826 115.796 172.392 115.39 172.392 114.858C172.392 114.312 172.826 113.92 173.428 113.92C174.03 113.92 174.45 114.312 174.45 114.858ZM174.142 124H172.728V116.58H174.142V124ZM177.253 124H175.825V113.948H177.253V124ZM181.988 124.14C179.846 124.14 178.404 122.586 178.404 120.248C178.404 118.05 179.902 116.44 181.946 116.44C184.158 116.44 185.628 118.232 185.376 120.64H179.846C179.958 122.152 180.714 123.034 181.96 123.034C183.01 123.034 183.738 122.46 183.976 121.494H185.376C185.012 123.146 183.738 124.14 181.988 124.14ZM181.918 117.504C180.784 117.504 180.014 118.316 179.86 119.702H183.878C183.808 118.33 183.066 117.504 181.918 117.504ZM188.013 120.206V124H186.599V116.58H187.915V118.148C188.433 117.126 189.553 116.482 190.771 116.482V117.952C189.175 117.868 188.013 118.568 188.013 120.206ZM197.49 121.788C197.49 123.244 196.356 124.14 194.382 124.14C192.422 124.14 191.26 123.174 191.12 121.578H192.478C192.534 122.502 193.276 123.076 194.41 123.076C195.404 123.076 196.062 122.726 196.062 122.026C196.062 121.41 195.684 121.144 194.76 120.962L193.556 120.738C192.184 120.472 191.414 119.772 191.414 118.652C191.414 117.35 192.548 116.44 194.27 116.44C196.048 116.44 197.252 117.392 197.378 118.918H196.02C195.936 118.022 195.278 117.504 194.284 117.504C193.388 117.504 192.786 117.882 192.786 118.526C192.786 119.128 193.164 119.408 194.06 119.576L195.32 119.814C196.79 120.08 197.49 120.724 197.49 121.788ZM200.672 123.398C200.672 124.728 199.622 125.764 198.082 125.792V124.994C198.992 124.966 199.608 124.476 199.692 123.79C199.566 123.832 199.482 123.846 199.384 123.846C198.852 123.846 198.46 123.412 198.46 122.894C198.46 122.292 198.908 121.9 199.482 121.9C200.252 121.9 200.672 122.46 200.672 123.398ZM70.6404 138.06C70.6404 139.81 69.2404 141.14 66.8044 141.14C64.3824 141.14 62.9124 139.81 62.7864 137.808H64.3544C64.4244 139.082 65.2364 139.908 66.7764 139.908C68.0504 139.908 69.0024 139.306 69.0024 138.27C69.0024 137.43 68.4564 137.01 67.2944 136.758L65.8384 136.478C64.4244 136.198 63.1364 135.484 63.1364 133.776C63.1364 132.082 64.6204 130.808 66.7064 130.808C68.7924 130.808 70.3744 132.082 70.5004 134.084H68.9324C68.8484 132.88 67.9804 132.04 66.7204 132.04C65.4184 132.04 64.7044 132.81 64.7044 133.678C64.7044 134.63 65.5304 134.966 66.4684 135.162L67.9524 135.456C69.6744 135.806 70.6404 136.562 70.6404 138.06ZM75.1392 141.14C73.0392 141.14 71.4992 139.488 71.4992 137.29C71.4992 135.092 73.0392 133.44 75.1392 133.44C77.2392 133.44 78.7792 135.092 78.7792 137.29C78.7792 139.488 77.2392 141.14 75.1392 141.14ZM75.1392 139.894C76.3572 139.894 77.3232 138.914 77.3232 137.29C77.3232 135.666 76.3572 134.7 75.1392 134.7C73.9212 134.7 72.9692 135.666 72.9692 137.29C72.9692 138.914 73.9212 139.894 75.1392 139.894ZM82.8666 141.154C80.8366 141.154 79.4086 139.558 79.4086 137.29C79.4086 135.05 80.8646 133.44 82.8666 133.44C84.7006 133.44 86.0306 134.658 86.2966 136.59H84.8126C84.6586 135.4 83.9166 134.686 82.8806 134.686C81.6626 134.686 80.8646 135.722 80.8646 137.29C80.8646 138.872 81.6626 139.894 82.8806 139.894C83.9306 139.894 84.6586 139.194 84.8266 137.99H86.2966C86.0446 139.95 84.7286 141.154 82.8666 141.154ZM89.1619 131.858C89.1619 132.39 88.7419 132.796 88.1399 132.796C87.5379 132.796 87.1039 132.39 87.1039 131.858C87.1039 131.312 87.5379 130.92 88.1399 130.92C88.7419 130.92 89.1619 131.312 89.1619 131.858ZM88.8539 141H87.4399V133.58H88.8539V141ZM95.0309 141V139.852C94.5689 140.678 93.7429 141.14 92.6509 141.14C91.1109 141.14 90.1029 140.258 90.1029 138.9C90.1029 137.444 91.2649 136.688 93.4769 136.688C93.9109 136.688 94.2609 136.702 94.8629 136.772V136.226C94.8629 135.162 94.2889 134.56 93.3089 134.56C92.2729 134.56 91.6429 135.176 91.6009 136.212H90.3129C90.3829 134.546 91.5729 133.44 93.3089 133.44C95.1429 133.44 96.2069 134.476 96.2069 136.24V141H95.0309ZM91.4469 138.858C91.4469 139.628 92.0209 140.132 92.9309 140.132C94.1209 140.132 94.8629 139.39 94.8629 138.256V137.654C94.3169 137.584 93.9249 137.57 93.5609 137.57C92.1469 137.57 91.4469 137.99 91.4469 138.858ZM99.2454 141H97.8174V130.948H99.2454V141ZM108.278 141L105.1 133.314V141H103.686V130.948H105.576L108.95 139.11L112.31 130.948H114.214V141H112.786V133.3L109.594 141H108.278ZM119.047 141.14C116.905 141.14 115.463 139.586 115.463 137.248C115.463 135.05 116.961 133.44 119.005 133.44C121.217 133.44 122.687 135.232 122.435 137.64H116.905C117.017 139.152 117.773 140.034 119.019 140.034C120.069 140.034 120.797 139.46 121.035 138.494H122.435C122.071 140.146 120.797 141.14 119.047 141.14ZM118.977 134.504C117.843 134.504 117.073 135.316 116.919 136.702H120.937C120.867 135.33 120.125 134.504 118.977 134.504ZM122.99 137.29C122.99 135.036 124.278 133.44 126.28 133.44C127.274 133.44 128.142 133.944 128.66 134.854V130.948H130.074V141H128.758V139.67C128.226 140.608 127.33 141.14 126.28 141.14C124.278 141.14 122.99 139.516 122.99 137.29ZM124.46 137.29C124.46 138.942 125.328 139.88 126.56 139.88C127.764 139.88 128.66 138.9 128.66 137.262C128.66 135.596 127.736 134.686 126.56 134.686C125.328 134.686 124.46 135.61 124.46 137.29ZM133.481 131.858C133.481 132.39 133.061 132.796 132.459 132.796C131.857 132.796 131.423 132.39 131.423 131.858C131.423 131.312 131.857 130.92 132.459 130.92C133.061 130.92 133.481 131.312 133.481 131.858ZM133.173 141H131.759V133.58H133.173V141ZM139.35 141V139.852C138.888 140.678 138.062 141.14 136.97 141.14C135.43 141.14 134.422 140.258 134.422 138.9C134.422 137.444 135.584 136.688 137.796 136.688C138.23 136.688 138.58 136.702 139.182 136.772V136.226C139.182 135.162 138.608 134.56 137.628 134.56C136.592 134.56 135.962 135.176 135.92 136.212H134.632C134.702 134.546 135.892 133.44 137.628 133.44C139.462 133.44 140.526 134.476 140.526 136.24V141H139.35ZM135.766 138.858C135.766 139.628 136.34 140.132 137.25 140.132C138.44 140.132 139.182 139.39 139.182 138.256V137.654C138.636 137.584 138.244 137.57 137.88 137.57C136.466 137.57 135.766 137.99 135.766 138.858ZM148.381 137.5H146.435V141H144.895V130.948H148.381C150.635 130.948 152.091 132.096 152.091 134.196C152.091 136.31 150.635 137.5 148.381 137.5ZM148.367 132.25H146.435V136.198H148.367C149.725 136.198 150.551 135.456 150.551 134.21C150.551 132.964 149.725 132.25 148.367 132.25ZM156.21 141.14C154.11 141.14 152.57 139.488 152.57 137.29C152.57 135.092 154.11 133.44 156.21 133.44C158.31 133.44 159.85 135.092 159.85 137.29C159.85 139.488 158.31 141.14 156.21 141.14ZM156.21 139.894C157.428 139.894 158.394 138.914 158.394 137.29C158.394 135.666 157.428 134.7 156.21 134.7C154.992 134.7 154.04 135.666 154.04 137.29C154.04 138.914 154.992 139.894 156.21 139.894ZM166.892 138.788C166.892 140.244 165.758 141.14 163.784 141.14C161.824 141.14 160.662 140.174 160.522 138.578H161.88C161.936 139.502 162.678 140.076 163.812 140.076C164.806 140.076 165.464 139.726 165.464 139.026C165.464 138.41 165.086 138.144 164.162 137.962L162.958 137.738C161.586 137.472 160.816 136.772 160.816 135.652C160.816 134.35 161.95 133.44 163.672 133.44C165.45 133.44 166.654 134.392 166.78 135.918H165.422C165.338 135.022 164.68 134.504 163.686 134.504C162.79 134.504 162.188 134.882 162.188 135.526C162.188 136.128 162.566 136.408 163.462 136.576L164.722 136.814C166.192 137.08 166.892 137.724 166.892 138.788ZM172.246 139.628V140.874C171.812 141.07 171.434 141.14 170.986 141.14C169.614 141.14 168.662 140.398 168.662 138.76V134.784H167.024V133.58H168.662V131.382H170.076V133.58H172.316V134.784H170.076V138.438C170.076 139.46 170.566 139.824 171.322 139.824C171.658 139.824 171.952 139.768 172.246 139.628ZM179.238 138.788C179.238 140.244 178.104 141.14 176.13 141.14C174.17 141.14 173.008 140.174 172.868 138.578H174.226C174.282 139.502 175.024 140.076 176.158 140.076C177.152 140.076 177.81 139.726 177.81 139.026C177.81 138.41 177.432 138.144 176.508 137.962L175.304 137.738C173.932 137.472 173.162 136.772 173.162 135.652C173.162 134.35 174.296 133.44 176.018 133.44C177.796 133.44 179 134.392 179.126 135.918H177.768C177.684 135.022 177.026 134.504 176.032 134.504C175.136 134.504 174.534 134.882 174.534 135.526C174.534 136.128 174.912 136.408 175.808 136.576L177.068 136.814C178.538 137.08 179.238 137.724 179.238 138.788Z" fill="#1A1A1A"/>
<mask id="path-4-outside-1_0_1" maskUnits="userSpaceOnUse" x="56" y="0" width="129" height="58" fill="black">
<rect fill="white" x="56" width="129" height="58"/>
<path d="M83.351 9.36886C85.4225 8.0948 87.9218 7.69087 90.2952 8.23808C92.6685 8.78534 94.7256 10.2421 96.0143 12.2871L110.995 36.113C112.284 38.1582 112.698 40.6288 112.145 42.9752C111.591 45.3215 110.118 47.3557 108.044 48.6298C106.579 49.5307 104.893 50 103.193 50C102.494 50 101.793 49.9174 101.105 49.7599C98.7316 49.2126 96.6745 47.7559 95.3858 45.7108L90.6361 38.1608L90.6077 38.1691C89.9591 37.141 88.9278 36.4088 87.737 36.1352C86.5434 35.8616 85.2938 36.0657 84.2511 36.7013C83.214 37.3424 82.47 38.3626 82.1932 39.54C82.087 39.9931 82.0537 40.455 82.0872 40.9109H82.0761C82.0759 45.8467 78.0307 49.8457 73.0381 49.8457C68.0455 49.8456 64.0002 45.8466 64 40.9109C64 35.975 68.0454 31.9755 73.0381 31.9754C74.5113 31.9754 75.901 32.3238 77.1254 32.9429C77.2204 32.9953 77.318 33.0482 77.4213 33.0951C77.7232 33.2416 78.0421 33.352 78.3719 33.4293C78.7185 33.5067 79.0709 33.5484 79.4203 33.5484C80.2757 33.5484 81.1227 33.3103 81.8551 32.857C82.895 32.2214 83.6362 31.1991 83.913 30.0246C84.1897 28.8446 83.9828 27.6091 83.34 26.5783H83.3483L80.3986 21.8884C79.1099 19.8405 78.7019 17.3691 79.2554 15.0227C79.8089 12.6765 81.2825 10.6429 83.351 9.36886Z"/>
<path fill-rule="evenodd" clip-rule="evenodd" d="M134.036 31.5526C136.999 31.5526 138.448 32.896 138.448 35.6099C138.448 38.3237 136.996 39.6666 134.036 39.6666C131.076 39.6665 129.639 38.3264 129.639 35.6099C129.639 32.8961 131.073 31.5526 134.036 31.5526ZM134.036 33.338C132.384 33.3381 131.63 34.0541 131.63 35.6099C131.63 37.1656 132.384 37.8811 134.036 37.8812C135.688 37.8812 136.443 37.1657 136.443 35.6099C136.443 34.054 135.688 33.338 134.036 33.338Z"/>
<path fill-rule="evenodd" clip-rule="evenodd" d="M159.877 31.5526C162.838 31.5526 164.244 32.8792 164.244 35.4715C164.244 35.7009 164.23 35.914 164.196 36.066V36.0687H157.44C157.501 37.4725 158.365 38.2493 159.877 38.2493C161.049 38.2493 161.837 37.8232 162.099 37.0438H164.104C163.548 38.7684 162.13 39.6666 159.986 39.6666C156.962 39.6666 155.435 38.3098 155.435 35.6099C155.435 32.9098 156.917 31.5526 159.877 31.5526ZM159.894 32.9124C158.477 32.9124 157.627 33.5235 157.473 34.803H162.223C162.083 33.5373 161.311 32.9124 159.894 32.9124Z"/>
<path d="M143.231 31.5526C145.652 31.5526 147.15 32.4235 147.304 33.9158H145.3C145.098 33.3051 144.282 32.9401 143.138 32.9401C142.121 32.9402 141.442 33.3655 141.442 33.9761C141.442 34.4486 141.719 34.6315 142.521 34.7228L144.28 34.8909C146.748 35.1507 147.441 35.654 147.441 37.1933C147.441 38.7327 145.898 39.6638 143.614 39.6638C141.022 39.6638 139.51 38.7628 139.217 37.0411L139.219 37.0438H141.224C141.47 37.837 142.272 38.2493 143.6 38.2493C144.696 38.2493 145.437 37.8068 145.437 37.1656C145.437 36.5245 145.143 36.3419 144.064 36.2341L142.258 36.0521C140.285 35.8532 139.435 35.2447 139.435 34.0397C139.435 32.5447 140.931 31.5526 143.231 31.5526Z"/>
<path d="M172.79 31.5526C175.211 31.5526 176.71 32.4235 176.864 33.9158H174.859C174.658 33.3051 173.841 32.9401 172.698 32.9401C171.681 32.9401 171.001 33.3655 171.001 33.9761C171.001 34.4486 171.278 34.6315 172.08 34.7228L173.838 34.8909C176.307 35.1507 177 35.6539 177 37.1933C177 38.7327 175.457 39.6638 173.173 39.6638C170.582 39.6638 169.07 38.7628 168.776 37.0411L168.779 37.0438H170.783C171.029 37.837 171.831 38.2493 173.159 38.2493C174.255 38.2493 174.996 37.8068 174.996 37.1656C174.996 36.5245 174.702 36.3419 173.624 36.2341L171.817 36.0521C169.844 35.8531 168.994 35.2446 168.994 34.0397C168.994 32.5447 170.49 31.5526 172.79 31.5526Z"/>
<path d="M151.408 31.7989H154.539V33.5844H151.408V36.3144C151.408 37.29 151.763 37.641 152.811 37.641H154.539V39.4265H152.596C150.236 39.4264 149.404 38.4507 149.404 36.3144V33.5844H148.123V32.1802L149.404 31.7989V30.1214H151.408V31.7989Z"/>
<path d="M122.173 32.8515C122.62 32.0585 123.638 31.5554 124.904 31.5553C127.263 31.5553 128.437 32.7135 128.437 35.0791L128.435 35.0764V39.4237H126.43V35.1843C126.43 33.8882 125.843 33.338 124.426 33.338C122.869 33.3381 122.173 34.0235 122.173 35.5047V39.4237H120.166V30.1214H122.173V32.8515Z"/>
<path d="M167.543 39.4237H165.539V30.1214H167.543V39.4237Z"/>
<path fill-rule="evenodd" clip-rule="evenodd" d="M148.765 19.7631C151.728 19.7632 153.176 21.1032 153.176 23.8198C153.176 26.5365 151.725 27.8772 148.765 27.8772C145.804 27.8772 144.368 26.5365 144.368 23.8198C144.368 21.1059 145.802 19.7631 148.765 19.7631ZM148.765 21.5479C147.113 21.5479 146.358 22.2639 146.358 23.8198C146.358 25.3758 147.113 26.0918 148.765 26.0918C150.417 26.0917 151.172 25.3757 151.172 23.8198C151.172 22.264 150.417 21.5479 148.765 21.5479Z"/>
<path fill-rule="evenodd" clip-rule="evenodd" d="M123.849 20.0033C126.057 20.0033 126.941 20.8714 127.036 22.7562L127.038 22.7534V22.7562H127.045V23.042C127.046 23.0655 127.047 23.0891 127.047 23.1126V27.6281L125.52 27.7499L125.339 26.3623C125.104 27.3241 124.109 27.8717 122.585 27.8717C120.612 27.8716 119.463 26.8795 119.463 25.3568C119.463 24.0165 120.078 23.3919 122.034 23.2233L124.71 23.0074C124.852 22.9991 124.958 22.9768 125.037 22.9409C124.995 22.0954 124.62 21.7859 123.636 21.7859H120.167V20.0033H123.849ZM125.227 23.9859C125.101 24.0937 124.916 24.1403 124.553 24.1679L122.261 24.3506C121.598 24.3976 121.277 24.6878 121.277 25.2212C121.277 25.9674 121.85 26.3955 122.904 26.3956C124.428 26.3956 125.224 25.6771 125.224 24.2897L125.227 24.2925V23.9859Z"/>
<path d="M132.15 19.7604C134.571 19.7604 136.069 20.6307 136.223 22.123H134.218C134.017 21.5122 133.2 21.1472 132.057 21.1472C131.04 21.1473 130.361 21.5759 130.361 22.1839C130.361 22.6564 130.637 22.8387 131.44 22.9299L133.198 23.0987C135.666 23.3585 136.36 23.8614 136.36 25.4004C136.36 26.9398 134.816 27.8717 132.532 27.8717C129.941 27.8716 128.429 26.9705 128.135 25.2489L128.138 25.2516H130.143C130.389 26.0447 131.191 26.4564 132.519 26.4565C133.614 26.4565 134.355 26.0144 134.355 25.3734C134.355 24.7323 134.062 24.5497 132.983 24.442L131.177 24.2593C129.204 24.0603 128.354 23.4524 128.354 22.2475C128.354 20.7524 129.849 19.7604 132.15 19.7604Z"/>
<path d="M140.327 20.006H143.457V21.7915H140.327V24.5215C140.327 25.4971 140.681 25.8482 141.73 25.8482H143.457V27.6336H141.514C139.155 27.6335 138.322 26.6578 138.322 24.5215V21.7915H137.042V20.3874L138.322 20.006V18.3286H140.327V20.006Z"/>
<path d="M160.012 21.7915H157.775C156.727 21.7915 156.372 22.1425 156.372 23.1181V27.6308H154.367V23.1181C154.367 20.9818 155.217 20.0061 157.56 20.006H160.012V21.7915Z"/>
</mask>
<path d="M83.351 9.36886C85.4225 8.0948 87.9218 7.69087 90.2952 8.23808C92.6685 8.78534 94.7256 10.2421 96.0143 12.2871L110.995 36.113C112.284 38.1582 112.698 40.6288 112.145 42.9752C111.591 45.3215 110.118 47.3557 108.044 48.6298C106.579 49.5307 104.893 50 103.193 50C102.494 50 101.793 49.9174 101.105 49.7599C98.7316 49.2126 96.6745 47.7559 95.3858 45.7108L90.6361 38.1608L90.6077 38.1691C89.9591 37.141 88.9278 36.4088 87.737 36.1352C86.5434 35.8616 85.2938 36.0657 84.2511 36.7013C83.214 37.3424 82.47 38.3626 82.1932 39.54C82.087 39.9931 82.0537 40.455 82.0872 40.9109H82.0761C82.0759 45.8467 78.0307 49.8457 73.0381 49.8457C68.0455 49.8456 64.0002 45.8466 64 40.9109C64 35.975 68.0454 31.9755 73.0381 31.9754C74.5113 31.9754 75.901 32.3238 77.1254 32.9429C77.2204 32.9953 77.318 33.0482 77.4213 33.0951C77.7232 33.2416 78.0421 33.352 78.3719 33.4293C78.7185 33.5067 79.0709 33.5484 79.4203 33.5484C80.2757 33.5484 81.1227 33.3103 81.8551 32.857C82.895 32.2214 83.6362 31.1991 83.913 30.0246C84.1897 28.8446 83.9828 27.6091 83.34 26.5783H83.3483L80.3986 21.8884C79.1099 19.8405 78.7019 17.3691 79.2554 15.0227C79.8089 12.6765 81.2825 10.6429 83.351 9.36886Z" fill="black"/>
<path fill-rule="evenodd" clip-rule="evenodd" d="M134.036 31.5526C136.999 31.5526 138.448 32.896 138.448 35.6099C138.448 38.3237 136.996 39.6666 134.036 39.6666C131.076 39.6665 129.639 38.3264 129.639 35.6099C129.639 32.8961 131.073 31.5526 134.036 31.5526ZM134.036 33.338C132.384 33.3381 131.63 34.0541 131.63 35.6099C131.63 37.1656 132.384 37.8811 134.036 37.8812C135.688 37.8812 136.443 37.1657 136.443 35.6099C136.443 34.054 135.688 33.338 134.036 33.338Z" fill="black"/>
<path fill-rule="evenodd" clip-rule="evenodd" d="M159.877 31.5526C162.838 31.5526 164.244 32.8792 164.244 35.4715C164.244 35.7009 164.23 35.914 164.196 36.066V36.0687H157.44C157.501 37.4725 158.365 38.2493 159.877 38.2493C161.049 38.2493 161.837 37.8232 162.099 37.0438H164.104C163.548 38.7684 162.13 39.6666 159.986 39.6666C156.962 39.6666 155.435 38.3098 155.435 35.6099C155.435 32.9098 156.917 31.5526 159.877 31.5526ZM159.894 32.9124C158.477 32.9124 157.627 33.5235 157.473 34.803H162.223C162.083 33.5373 161.311 32.9124 159.894 32.9124Z" fill="black"/>
<path d="M143.231 31.5526C145.652 31.5526 147.15 32.4235 147.304 33.9158H145.3C145.098 33.3051 144.282 32.9401 143.138 32.9401C142.121 32.9402 141.442 33.3655 141.442 33.9761C141.442 34.4486 141.719 34.6315 142.521 34.7228L144.28 34.8909C146.748 35.1507 147.441 35.654 147.441 37.1933C147.441 38.7327 145.898 39.6638 143.614 39.6638C141.022 39.6638 139.51 38.7628 139.217 37.0411L139.219 37.0438H141.224C141.47 37.837 142.272 38.2493 143.6 38.2493C144.696 38.2493 145.437 37.8068 145.437 37.1656C145.437 36.5245 145.143 36.3419 144.064 36.2341L142.258 36.0521C140.285 35.8532 139.435 35.2447 139.435 34.0397C139.435 32.5447 140.931 31.5526 143.231 31.5526Z" fill="black"/>
<path d="M172.79 31.5526C175.211 31.5526 176.71 32.4235 176.864 33.9158H174.859C174.658 33.3051 173.841 32.9401 172.698 32.9401C171.681 32.9401 171.001 33.3655 171.001 33.9761C171.001 34.4486 171.278 34.6315 172.08 34.7228L173.838 34.8909C176.307 35.1507 177 35.6539 177 37.1933C177 38.7327 175.457 39.6638 173.173 39.6638C170.582 39.6638 169.07 38.7628 168.776 37.0411L168.779 37.0438H170.783C171.029 37.837 171.831 38.2493 173.159 38.2493C174.255 38.2493 174.996 37.8068 174.996 37.1656C174.996 36.5245 174.702 36.3419 173.624 36.2341L171.817 36.0521C169.844 35.8531 168.994 35.2446 168.994 34.0397C168.994 32.5447 170.49 31.5526 172.79 31.5526Z" fill="black"/>
<path d="M151.408 31.7989H154.539V33.5844H151.408V36.3144C151.408 37.29 151.763 37.641 152.811 37.641H154.539V39.4265H152.596C150.236 39.4264 149.404 38.4507 149.404 36.3144V33.5844H148.123V32.1802L149.404 31.7989V30.1214H151.408V31.7989Z" fill="black"/>
<path d="M122.173 32.8515C122.62 32.0585 123.638 31.5554 124.904 31.5553C127.263 31.5553 128.437 32.7135 128.437 35.0791L128.435 35.0764V39.4237H126.43V35.1843C126.43 33.8882 125.843 33.338 124.426 33.338C122.869 33.3381 122.173 34.0235 122.173 35.5047V39.4237H120.166V30.1214H122.173V32.8515Z" fill="black"/>
<path d="M167.543 39.4237H165.539V30.1214H167.543V39.4237Z" fill="black"/>
<path fill-rule="evenodd" clip-rule="evenodd" d="M148.765 19.7631C151.728 19.7632 153.176 21.1032 153.176 23.8198C153.176 26.5365 151.725 27.8772 148.765 27.8772C145.804 27.8772 144.368 26.5365 144.368 23.8198C144.368 21.1059 145.802 19.7631 148.765 19.7631ZM148.765 21.5479C147.113 21.5479 146.358 22.2639 146.358 23.8198C146.358 25.3758 147.113 26.0918 148.765 26.0918C150.417 26.0917 151.172 25.3757 151.172 23.8198C151.172 22.264 150.417 21.5479 148.765 21.5479Z" fill="black"/>
<path fill-rule="evenodd" clip-rule="evenodd" d="M123.849 20.0033C126.057 20.0033 126.941 20.8714 127.036 22.7562L127.038 22.7534V22.7562H127.045V23.042C127.046 23.0655 127.047 23.0891 127.047 23.1126V27.6281L125.52 27.7499L125.339 26.3623C125.104 27.3241 124.109 27.8717 122.585 27.8717C120.612 27.8716 119.463 26.8795 119.463 25.3568C119.463 24.0165 120.078 23.3919 122.034 23.2233L124.71 23.0074C124.852 22.9991 124.958 22.9768 125.037 22.9409C124.995 22.0954 124.62 21.7859 123.636 21.7859H120.167V20.0033H123.849ZM125.227 23.9859C125.101 24.0937 124.916 24.1403 124.553 24.1679L122.261 24.3506C121.598 24.3976 121.277 24.6878 121.277 25.2212C121.277 25.9674 121.85 26.3955 122.904 26.3956C124.428 26.3956 125.224 25.6771 125.224 24.2897L125.227 24.2925V23.9859Z" fill="black"/>
<path d="M132.15 19.7604C134.571 19.7604 136.069 20.6307 136.223 22.123H134.218C134.017 21.5122 133.2 21.1472 132.057 21.1472C131.04 21.1473 130.361 21.5759 130.361 22.1839C130.361 22.6564 130.637 22.8387 131.44 22.9299L133.198 23.0987C135.666 23.3585 136.36 23.8614 136.36 25.4004C136.36 26.9398 134.816 27.8717 132.532 27.8717C129.941 27.8716 128.429 26.9705 128.135 25.2489L128.138 25.2516H130.143C130.389 26.0447 131.191 26.4564 132.519 26.4565C133.614 26.4565 134.355 26.0144 134.355 25.3734C134.355 24.7323 134.062 24.5497 132.983 24.442L131.177 24.2593C129.204 24.0603 128.354 23.4524 128.354 22.2475C128.354 20.7524 129.849 19.7604 132.15 19.7604Z" fill="black"/>
<path d="M140.327 20.006H143.457V21.7915H140.327V24.5215C140.327 25.4971 140.681 25.8482 141.73 25.8482H143.457V27.6336H141.514C139.155 27.6335 138.322 26.6578 138.322 24.5215V21.7915H137.042V20.3874L138.322 20.006V18.3286H140.327V20.006Z" fill="black"/>
<path d="M160.012 21.7915H157.775C156.727 21.7915 156.372 22.1425 156.372 23.1181V27.6308H154.367V23.1181C154.367 20.9818 155.217 20.0061 157.56 20.006H160.012V21.7915Z" fill="black"/>
<path d="M83.351 9.36886C85.4225 8.0948 87.9218 7.69087 90.2952 8.23808C92.6685 8.78534 94.7256 10.2421 96.0143 12.2871L110.995 36.113C112.284 38.1582 112.698 40.6288 112.145 42.9752C111.591 45.3215 110.118 47.3557 108.044 48.6298C106.579 49.5307 104.893 50 103.193 50C102.494 50 101.793 49.9174 101.105 49.7599C98.7316 49.2126 96.6745 47.7559 95.3858 45.7108L90.6361 38.1608L90.6077 38.1691C89.9591 37.141 88.9278 36.4088 87.737 36.1352C86.5434 35.8616 85.2938 36.0657 84.2511 36.7013C83.214 37.3424 82.47 38.3626 82.1932 39.54C82.087 39.9931 82.0537 40.455 82.0872 40.9109H82.0761C82.0759 45.8467 78.0307 49.8457 73.0381 49.8457C68.0455 49.8456 64.0002 45.8466 64 40.9109C64 35.975 68.0454 31.9755 73.0381 31.9754C74.5113 31.9754 75.901 32.3238 77.1254 32.9429C77.2204 32.9953 77.318 33.0482 77.4213 33.0951C77.7232 33.2416 78.0421 33.352 78.3719 33.4293C78.7185 33.5067 79.0709 33.5484 79.4203 33.5484C80.2757 33.5484 81.1227 33.3103 81.8551 32.857C82.895 32.2214 83.6362 31.1991 83.913 30.0246C84.1897 28.8446 83.9828 27.6091 83.34 26.5783H83.3483L80.3986 21.8884C79.1099 19.8405 78.7019 17.3691 79.2554 15.0227C79.8089 12.6765 81.2825 10.6429 83.351 9.36886Z" stroke="#E6E2DE" stroke-width="16" stroke-linejoin="round" mask="url(#path-4-outside-1_0_1)"/>
<path fill-rule="evenodd" clip-rule="evenodd" d="M134.036 31.5526C136.999 31.5526 138.448 32.896 138.448 35.6099C138.448 38.3237 136.996 39.6666 134.036 39.6666C131.076 39.6665 129.639 38.3264 129.639 35.6099C129.639 32.8961 131.073 31.5526 134.036 31.5526ZM134.036 33.338C132.384 33.3381 131.63 34.0541 131.63 35.6099C131.63 37.1656 132.384 37.8811 134.036 37.8812C135.688 37.8812 136.443 37.1657 136.443 35.6099C136.443 34.054 135.688 33.338 134.036 33.338Z" stroke="#E6E2DE" stroke-width="16" stroke-linejoin="round" mask="url(#path-4-outside-1_0_1)"/>
<path fill-rule="evenodd" clip-rule="evenodd" d="M159.877 31.5526C162.838 31.5526 164.244 32.8792 164.244 35.4715C164.244 35.7009 164.23 35.914 164.196 36.066V36.0687H157.44C157.501 37.4725 158.365 38.2493 159.877 38.2493C161.049 38.2493 161.837 37.8232 162.099 37.0438H164.104C163.548 38.7684 162.13 39.6666 159.986 39.6666C156.962 39.6666 155.435 38.3098 155.435 35.6099C155.435 32.9098 156.917 31.5526 159.877 31.5526ZM159.894 32.9124C158.477 32.9124 157.627 33.5235 157.473 34.803H162.223C162.083 33.5373 161.311 32.9124 159.894 32.9124Z" stroke="#E6E2DE" stroke-width="16" stroke-linejoin="round" mask="url(#path-4-outside-1_0_1)"/>
<path d="M143.231 31.5526C145.652 31.5526 147.15 32.4235 147.304 33.9158H145.3C145.098 33.3051 144.282 32.9401 143.138 32.9401C142.121 32.9402 141.442 33.3655 141.442 33.9761C141.442 34.4486 141.719 34.6315 142.521 34.7228L144.28 34.8909C146.748 35.1507 147.441 35.654 147.441 37.1933C147.441 38.7327 145.898 39.6638 143.614 39.6638C141.022 39.6638 139.51 38.7628 139.217 37.0411L139.219 37.0438H141.224C141.47 37.837 142.272 38.2493 143.6 38.2493C144.696 38.2493 145.437 37.8068 145.437 37.1656C145.437 36.5245 145.143 36.3419 144.064 36.2341L142.258 36.0521C140.285 35.8532 139.435 35.2447 139.435 34.0397C139.435 32.5447 140.931 31.5526 143.231 31.5526Z" stroke="#E6E2DE" stroke-width="16" stroke-linejoin="round" mask="url(#path-4-outside-1_0_1)"/>
<path d="M172.79 31.5526C175.211 31.5526 176.71 32.4235 176.864 33.9158H174.859C174.658 33.3051 173.841 32.9401 172.698 32.9401C171.681 32.9401 171.001 33.3655 171.001 33.9761C171.001 34.4486 171.278 34.6315 172.08 34.7228L173.838 34.8909C176.307 35.1507 177 35.6539 177 37.1933C177 38.7327 175.457 39.6638 173.173 39.6638C170.582 39.6638 169.07 38.7628 168.776 37.0411L168.779 37.0438H170.783C171.029 37.837 171.831 38.2493 173.159 38.2493C174.255 38.2493 174.996 37.8068 174.996 37.1656C174.996 36.5245 174.702 36.3419 173.624 36.2341L171.817 36.0521C169.844 35.8531 168.994 35.2446 168.994 34.0397C168.994 32.5447 170.49 31.5526 172.79 31.5526Z" stroke="#E6E2DE" stroke-width="16" stroke-linejoin="round" mask="url(#path-4-outside-1_0_1)"/>
<path d="M151.408 31.7989H154.539V33.5844H151.408V36.3144C151.408 37.29 151.763 37.641 152.811 37.641H154.539V39.4265H152.596C150.236 39.4264 149.404 38.4507 149.404 36.3144V33.5844H148.123V32.1802L149.404 31.7989V30.1214H151.408V31.7989Z" stroke="#E6E2DE" stroke-width="16" stroke-linejoin="round" mask="url(#path-4-outside-1_0_1)"/>
<path d="M122.173 32.8515C122.62 32.0585 123.638 31.5554 124.904 31.5553C127.263 31.5553 128.437 32.7135 128.437 35.0791L128.435 35.0764V39.4237H126.43V35.1843C126.43 33.8882 125.843 33.338 124.426 33.338C122.869 33.3381 122.173 34.0235 122.173 35.5047V39.4237H120.166V30.1214H122.173V32.8515Z" stroke="#E6E2DE" stroke-width="16" stroke-linejoin="round" mask="url(#path-4-outside-1_0_1)"/>
<path d="M167.543 39.4237H165.539V30.1214H167.543V39.4237Z" stroke="#E6E2DE" stroke-width="16" stroke-linejoin="round" mask="url(#path-4-outside-1_0_1)"/>
<path fill-rule="evenodd" clip-rule="evenodd" d="M148.765 19.7631C151.728 19.7632 153.176 21.1032 153.176 23.8198C153.176 26.5365 151.725 27.8772 148.765 27.8772C145.804 27.8772 144.368 26.5365 144.368 23.8198C144.368 21.1059 145.802 19.7631 148.765 19.7631ZM148.765 21.5479C147.113 21.5479 146.358 22.2639 146.358 23.8198C146.358 25.3758 147.113 26.0918 148.765 26.0918C150.417 26.0917 151.172 25.3757 151.172 23.8198C151.172 22.264 150.417 21.5479 148.765 21.5479Z" stroke="#E6E2DE" stroke-width="16" stroke-linejoin="round" mask="url(#path-4-outside-1_0_1)"/>
<path fill-rule="evenodd" clip-rule="evenodd" d="M123.849 20.0033C126.057 20.0033 126.941 20.8714 127.036 22.7562L127.038 22.7534V22.7562H127.045V23.042C127.046 23.0655 127.047 23.0891 127.047 23.1126V27.6281L125.52 27.7499L125.339 26.3623C125.104 27.3241 124.109 27.8717 122.585 27.8717C120.612 27.8716 119.463 26.8795 119.463 25.3568C119.463 24.0165 120.078 23.3919 122.034 23.2233L124.71 23.0074C124.852 22.9991 124.958 22.9768 125.037 22.9409C124.995 22.0954 124.62 21.7859 123.636 21.7859H120.167V20.0033H123.849ZM125.227 23.9859C125.101 24.0937 124.916 24.1403 124.553 24.1679L122.261 24.3506C121.598 24.3976 121.277 24.6878 121.277 25.2212C121.277 25.9674 121.85 26.3955 122.904 26.3956C124.428 26.3956 125.224 25.6771 125.224 24.2897L125.227 24.2925V23.9859Z" stroke="#E6E2DE" stroke-width="16" stroke-linejoin="round" mask="url(#path-4-outside-1_0_1)"/>
<path d="M132.15 19.7604C134.571 19.7604 136.069 20.6307 136.223 22.123H134.218C134.017 21.5122 133.2 21.1472 132.057 21.1472C131.04 21.1473 130.361 21.5759 130.361 22.1839C130.361 22.6564 130.637 22.8387 131.44 22.9299L133.198 23.0987C135.666 23.3585 136.36 23.8614 136.36 25.4004C136.36 26.9398 134.816 27.8717 132.532 27.8717C129.941 27.8716 128.429 26.9705 128.135 25.2489L128.138 25.2516H130.143C130.389 26.0447 131.191 26.4564 132.519 26.4565C133.614 26.4565 134.355 26.0144 134.355 25.3734C134.355 24.7323 134.062 24.5497 132.983 24.442L131.177 24.2593C129.204 24.0603 128.354 23.4524 128.354 22.2475C128.354 20.7524 129.849 19.7604 132.15 19.7604Z" stroke="#E6E2DE" stroke-width="16" stroke-linejoin="round" mask="url(#path-4-outside-1_0_1)"/>
<path d="M140.327 20.006H143.457V21.7915H140.327V24.5215C140.327 25.4971 140.681 25.8482 141.73 25.8482H143.457V27.6336H141.514C139.155 27.6335 138.322 26.6578 138.322 24.5215V21.7915H137.042V20.3874L138.322 20.006V18.3286H140.327V20.006Z" stroke="#E6E2DE" stroke-width="16" stroke-linejoin="round" mask="url(#path-4-outside-1_0_1)"/>
<path d="M160.012 21.7915H157.775C156.727 21.7915 156.372 22.1425 156.372 23.1181V27.6308H154.367V23.1181C154.367 20.9818 155.217 20.0061 157.56 20.006H160.012V21.7915Z" stroke="#E6E2DE" stroke-width="16" stroke-linejoin="round" mask="url(#path-4-outside-1_0_1)"/>
</svg>
