<svg width="242" height="240" viewBox="0 0 242 240" fill="none" xmlns="http://www.w3.org/2000/svg">
<rect y="80" width="242" height="160" rx="12" fill="#E6E2DE"/>
<path d="M93.1251 151.624C93.1251 153.752 91.5571 155 89.0291 155H84.5331V143.512H88.8531C91.2691 143.512 92.7571 144.6 92.7571 146.568C92.7571 147.624 92.1651 148.472 91.1411 149C92.4211 149.448 93.1251 150.36 93.1251 151.624ZM88.6611 145.432H86.7411V148.104H88.6611C89.8451 148.104 90.4531 147.592 90.4531 146.76C90.4531 145.944 89.8451 145.432 88.6611 145.432ZM88.8371 150.04H86.7411V153.08H88.8371C90.1491 153.08 90.8371 152.504 90.8371 151.528C90.8371 150.616 90.1491 150.04 88.8371 150.04ZM99.6284 155V153.944C99.0684 154.744 98.2204 155.16 97.0524 155.16C95.2764 155.16 94.0924 154.12 94.0924 152.52C94.0924 150.856 95.4364 149.96 97.9324 149.96C98.4124 149.96 98.8284 149.992 99.3564 150.056V149.544C99.3564 148.584 98.8124 148.024 97.8844 148.024C96.9244 148.024 96.3484 148.584 96.2684 149.544H94.2684C94.3964 147.576 95.8204 146.296 97.8844 146.296C100.124 146.296 101.436 147.528 101.436 149.624V155H99.6284ZM96.1884 152.456C96.1884 153.176 96.7004 153.624 97.5324 153.624C98.6684 153.624 99.3564 153 99.3564 152.008V151.4C98.8284 151.32 98.4604 151.288 98.0764 151.288C96.8124 151.288 96.1884 151.688 96.1884 152.456ZM110.409 152.264C110.409 154.056 109.049 155.16 106.617 155.16C104.185 155.16 102.825 153.992 102.649 152.088H104.777C104.793 152.968 105.545 153.528 106.649 153.528C107.513 153.528 108.169 153.256 108.169 152.648C108.169 152.104 107.817 151.88 107.001 151.72L105.465 151.432C103.929 151.16 103.001 150.312 103.001 148.984C103.001 147.4 104.361 146.296 106.489 146.296C108.633 146.296 110.105 147.432 110.265 149.272H108.137C108.057 148.44 107.433 147.928 106.489 147.928C105.673 147.928 105.129 148.232 105.129 148.776C105.129 149.288 105.481 149.496 106.249 149.64L107.897 149.944C109.561 150.264 110.409 151.032 110.409 152.264ZM115.479 155.144C112.919 155.144 111.207 153.368 111.207 150.696C111.207 148.152 112.983 146.296 115.447 146.296C118.151 146.296 119.943 148.488 119.543 151.272H113.479C113.623 152.664 114.295 153.432 115.431 153.432C116.407 153.432 117.063 152.952 117.319 152.104H119.527C119.047 154.04 117.559 155.144 115.479 155.144ZM115.399 147.928C114.359 147.928 113.703 148.6 113.511 149.864H117.191C117.127 148.68 116.455 147.928 115.399 147.928ZM123.097 155H120.873V146.456H122.921V147.672C123.545 146.808 124.345 146.296 125.481 146.296C126.649 146.296 127.545 146.84 127.977 147.816C128.649 146.872 129.513 146.296 130.793 146.296C132.521 146.296 133.689 147.432 133.689 149.48V155H131.481V150.184C131.481 148.984 130.969 148.264 129.993 148.264C129.113 148.264 128.393 148.952 128.393 150.232V155H126.185V150.184C126.185 148.984 125.673 148.264 124.697 148.264C123.801 148.264 123.097 148.952 123.097 150.232V155ZM142.815 146.456L138.655 158.088H136.239L137.455 154.904L134.095 146.456H136.495L138.639 152.312L140.591 146.456H142.815ZM145.855 150.344V155H143.631V146.456H145.679V147.672C146.303 146.824 147.183 146.296 148.303 146.296C150.015 146.296 151.199 147.416 151.199 149.48V155H148.991V150.232C148.991 148.968 148.495 148.264 147.487 148.264C146.607 148.264 145.855 148.968 145.855 150.344ZM158.205 152.84V154.776C157.661 155.048 157.149 155.16 156.493 155.16C154.733 155.16 153.629 154.152 153.629 152.232V148.36H151.901V146.456H153.629V143.928H155.837V146.456H158.285V148.36H155.837V151.72C155.837 152.712 156.285 153.112 157.085 153.112C157.501 153.112 157.885 153.016 158.205 152.84Z" fill="#1A1A1A"/>
<path d="M91.646 172.116C91.646 173.95 90.302 175 88.216 175H84.534V164.948H88.02C90.05 164.948 91.268 165.886 91.268 167.58C91.268 168.532 90.694 169.344 89.728 169.764C90.974 170.114 91.646 170.968 91.646 172.116ZM87.922 166.18H85.948V169.204H87.922C89.14 169.204 89.798 168.63 89.798 167.692C89.798 166.754 89.14 166.18 87.922 166.18ZM88.118 170.436H85.948V173.768H88.118C89.434 173.768 90.176 173.138 90.176 172.074C90.176 171.052 89.434 170.436 88.118 170.436ZM94.4427 171.206V175H93.0287V167.58H94.3447V169.148C94.8627 168.126 95.9827 167.482 97.2007 167.482V168.952C95.6047 168.868 94.4427 169.568 94.4427 171.206ZM102.534 175V173.852C102.072 174.678 101.246 175.14 100.154 175.14C98.6137 175.14 97.6057 174.258 97.6057 172.9C97.6057 171.444 98.7677 170.688 100.98 170.688C101.414 170.688 101.764 170.702 102.366 170.772V170.226C102.366 169.162 101.792 168.56 100.812 168.56C99.7757 168.56 99.1457 169.176 99.1037 170.212H97.8157C97.8857 168.546 99.0757 167.44 100.812 167.44C102.646 167.44 103.71 168.476 103.71 170.24V175H102.534ZM98.9497 172.858C98.9497 173.628 99.5237 174.132 100.434 174.132C101.624 174.132 102.366 173.39 102.366 172.256V171.654C101.82 171.584 101.428 171.57 101.064 171.57C99.6497 171.57 98.9497 171.99 98.9497 172.858ZM106.734 170.814V175H105.32V167.58H106.636V168.812C107.14 167.986 107.98 167.44 109.002 167.44C110.528 167.44 111.536 168.42 111.536 170.198V175H110.122V170.674C110.122 169.4 109.562 168.686 108.512 168.686C107.546 168.686 106.734 169.498 106.734 170.814ZM112.602 171.29C112.602 169.036 113.89 167.44 115.892 167.44C116.886 167.44 117.754 167.944 118.272 168.854V164.948H119.686V175H118.37V173.67C117.838 174.608 116.942 175.14 115.892 175.14C113.89 175.14 112.602 173.516 112.602 171.29ZM114.072 171.29C114.072 172.942 114.94 173.88 116.172 173.88C117.376 173.88 118.272 172.9 118.272 171.262C118.272 169.596 117.348 168.686 116.172 168.686C114.94 168.686 114.072 169.61 114.072 171.29ZM127.307 175H124.129V164.948H127.307C130.513 164.948 132.361 166.992 132.361 169.932C132.361 172.83 130.443 175 127.307 175ZM125.669 166.278V173.67H127.237C129.547 173.67 130.793 172.242 130.793 169.932C130.793 167.664 129.561 166.278 127.237 166.278H125.669ZM136.633 175.14C134.491 175.14 133.049 173.586 133.049 171.248C133.049 169.05 134.547 167.44 136.591 167.44C138.803 167.44 140.273 169.232 140.021 171.64H134.491C134.603 173.152 135.359 174.034 136.605 174.034C137.655 174.034 138.383 173.46 138.621 172.494H140.021C139.657 174.146 138.383 175.14 136.633 175.14ZM136.563 168.504C135.429 168.504 134.659 169.316 134.505 170.702H138.523C138.453 169.33 137.711 168.504 136.563 168.504ZM144.034 175.154C142.004 175.154 140.576 173.558 140.576 171.29C140.576 169.05 142.032 167.44 144.034 167.44C145.868 167.44 147.198 168.658 147.464 170.59H145.98C145.826 169.4 145.084 168.686 144.048 168.686C142.83 168.686 142.032 169.722 142.032 171.29C142.032 172.872 142.83 173.894 144.048 173.894C145.098 173.894 145.826 173.194 145.994 171.99H147.464C147.212 173.95 145.896 175.154 144.034 175.154ZM150.021 175H148.607V164.948H150.021V170.898L153.199 167.58H154.865L151.435 171.178L155.187 175H153.367L150.021 171.486V175ZM157.819 174.398C157.819 175.728 156.769 176.764 155.229 176.792V175.994C156.139 175.966 156.755 175.476 156.839 174.79C156.713 174.832 156.629 174.846 156.531 174.846C155.999 174.846 155.607 174.412 155.607 173.894C155.607 173.292 156.055 172.9 156.629 172.9C157.399 172.9 157.819 173.46 157.819 174.398ZM81.0356 192H79.4956V181.948H81.0356V192ZM84.2364 187.814V192H82.8224V184.58H84.1384V185.812C84.6424 184.986 85.4824 184.44 86.5044 184.44C88.0304 184.44 89.0384 185.42 89.0384 187.198V192H87.6244V187.674C87.6244 186.4 87.0644 185.686 86.0144 185.686C85.0484 185.686 84.2364 186.498 84.2364 187.814ZM96.5227 184.58L93.7367 192H92.1967L89.4107 184.58H90.9367L92.9947 190.376L95.0807 184.58H96.5227ZM100.066 192.14C97.9243 192.14 96.4823 190.586 96.4823 188.248C96.4823 186.05 97.9803 184.44 100.024 184.44C102.236 184.44 103.706 186.232 103.454 188.64H97.9243C98.0363 190.152 98.7923 191.034 100.038 191.034C101.088 191.034 101.816 190.46 102.054 189.494H103.454C103.09 191.146 101.816 192.14 100.066 192.14ZM99.9963 185.504C98.8623 185.504 98.0923 186.316 97.9383 187.702H101.956C101.886 186.33 101.144 185.504 99.9963 185.504ZM110.558 189.788C110.558 191.244 109.424 192.14 107.45 192.14C105.49 192.14 104.328 191.174 104.188 189.578H105.546C105.602 190.502 106.344 191.076 107.478 191.076C108.472 191.076 109.13 190.726 109.13 190.026C109.13 189.41 108.752 189.144 107.828 188.962L106.624 188.738C105.252 188.472 104.482 187.772 104.482 186.652C104.482 185.35 105.616 184.44 107.338 184.44C109.116 184.44 110.32 185.392 110.446 186.918H109.088C109.004 186.022 108.346 185.504 107.352 185.504C106.456 185.504 105.854 185.882 105.854 186.526C105.854 187.128 106.232 187.408 107.128 187.576L108.388 187.814C109.858 188.08 110.558 188.724 110.558 189.788ZM115.912 190.628V191.874C115.478 192.07 115.1 192.14 114.652 192.14C113.28 192.14 112.328 191.398 112.328 189.76V185.784H110.69V184.58H112.328V182.382H113.742V184.58H115.982V185.784H113.742V189.438C113.742 190.46 114.232 190.824 114.988 190.824C115.324 190.824 115.618 190.768 115.912 190.628ZM119.954 192.14C117.854 192.14 116.314 190.488 116.314 188.29C116.314 186.092 117.854 184.44 119.954 184.44C122.054 184.44 123.594 186.092 123.594 188.29C123.594 190.488 122.054 192.14 119.954 192.14ZM119.954 190.894C121.172 190.894 122.138 189.914 122.138 188.29C122.138 186.666 121.172 185.7 119.954 185.7C118.736 185.7 117.784 186.666 117.784 188.29C117.784 189.914 118.736 190.894 119.954 190.894ZM126.17 188.206V192H124.756V184.58H126.072V186.148C126.59 185.126 127.71 184.482 128.928 184.482V185.952C127.332 185.868 126.17 186.568 126.17 188.206ZM135.702 192H132.524V181.948H135.702C138.908 181.948 140.756 183.992 140.756 186.932C140.756 189.83 138.838 192 135.702 192ZM134.064 183.278V190.67H135.632C137.942 190.67 139.188 189.242 139.188 186.932C139.188 184.664 137.956 183.278 135.632 183.278H134.064ZM145.028 192.14C142.886 192.14 141.444 190.586 141.444 188.248C141.444 186.05 142.942 184.44 144.986 184.44C147.198 184.44 148.668 186.232 148.416 188.64H142.886C142.998 190.152 143.754 191.034 145 191.034C146.05 191.034 146.778 190.46 147.016 189.494H148.416C148.052 191.146 146.778 192.14 145.028 192.14ZM144.958 185.504C143.824 185.504 143.054 186.316 142.9 187.702H146.918C146.848 186.33 146.106 185.504 144.958 185.504ZM152.429 192.154C150.399 192.154 148.971 190.558 148.971 188.29C148.971 186.05 150.427 184.44 152.429 184.44C154.263 184.44 155.593 185.658 155.859 187.59H154.375C154.221 186.4 153.479 185.686 152.443 185.686C151.225 185.686 150.427 186.722 150.427 188.29C150.427 189.872 151.225 190.894 152.443 190.894C153.493 190.894 154.221 190.194 154.389 188.99H155.859C155.607 190.95 154.291 192.154 152.429 192.154ZM158.416 192H157.002V181.948H158.416V187.898L161.594 184.58H163.26L159.83 188.178L163.582 192H161.762L158.416 188.486V192Z" fill="#1A1A1A"/>
<mask id="path-4-outside-1_1195_159" maskUnits="userSpaceOnUse" x="47" y="57" width="149" height="46" fill="black">
<rect fill="white" x="47" y="57" width="149" height="46"/>
<path d="M55 65H60.1685V73.4962L61.0726 72.4772C63.9212 70.1119 68.5075 70.7635 70.7385 73.6738C71.353 74.4735 71.7882 75.4369 72.0778 76.4019C72.5942 74.7175 73.5259 73.0994 75.0321 72.136C76.9567 70.904 79.9938 70.643 82.0073 71.784C82.7382 72.1993 83.2577 72.7567 83.7725 73.4098V71.4598H88.8982V74.6248L89.4667 73.6136C91.5108 70.6137 97.8592 70.5396 100.858 71.8427C102.821 72.6949 103.514 73.8745 104.047 75.8739C104.059 75.9186 104.039 75.9804 104.102 75.968C105.217 73.2847 107.657 71.5478 110.504 71.1633C114.623 70.606 118.346 72.2009 119.965 75.9032C120.208 76.4621 120.386 77.0472 120.512 77.6447L120.769 78.8722V71.4598H125.764V73.8436L126.452 72.9543C127.933 71.3054 129.799 70.8005 131.967 71.1772C133.746 71.486 135.058 72.4865 135.864 74.103C136.94 72.4633 138.644 71.205 140.645 71.0707C142.646 70.9364 144.834 71.6003 146.049 73.3681L145.317 71.4613H150.809L150.895 71.591C152.119 74.9815 153.156 78.4383 154.177 81.8983L154.339 82.2981L158.087 71.4613H167.24V73.8451L168.187 72.7397C170.513 70.484 174.96 70.4238 177.102 72.9589L177.663 73.7602V71.4629H180.204V66.3911H185.329V71.4629H188V75.2347H185.329V88.5418H180.204V75.2347H178.222C178.366 76.1718 178.44 77.1183 178.44 78.0662V88.5433H173.313V77.8578C173.313 76.9129 172.62 75.9279 171.728 75.6376C169.526 74.9197 167.418 76.388 167.367 78.7224V88.5418H162.243V74.3238L153.93 95H148.978L151.8 87.8918L146.954 75.6685L147.084 76.8157V88.5433H141.957V77.8578C141.957 76.6582 141.125 75.6747 139.949 75.5002C137.661 75.1621 136.483 76.9191 136.486 79.0266V88.5433H131.362V77.7281C131.362 76.9237 130.743 75.9758 130 75.6747C127.835 74.8008 125.898 76.4559 125.892 78.6792V88.5418H120.768V81.52H108.278C108.498 83.2554 109.506 84.7236 111.29 85.0556C112.96 85.3659 114.811 84.8363 115.578 83.2106H120.423C119.873 85.6253 118.022 87.4749 115.751 88.3256C113.446 89.1902 110.386 89.1593 108.132 88.145C106.62 87.4641 105.355 86.2815 104.508 84.858C104.353 85.2007 104.254 85.562 104.077 85.8986C102.45 89.0142 97.4363 89.2798 94.3916 88.9262C92.6447 88.7239 90.668 88.1373 89.5663 86.6736C89.3104 86.334 89.1434 85.9356 88.8951 85.5929V88.5402H83.8997V86.3726L83.3619 87.1105C81.8418 88.9339 79.3426 89.2195 77.1376 88.7363C74.4882 88.1558 72.824 86.1317 72.0778 83.5981C71.3745 86.0946 69.5908 88.1481 67.0181 88.7363C64.7379 89.2566 62.2004 88.8614 60.5991 87.0457C60.4229 86.8465 60.2835 86.5933 60.1195 86.4019C60.0812 86.3571 60.0781 86.3123 59.9969 86.3293V88.5402H55.0015V65H55ZM99.4054 76.9191C99.367 75.6809 98.7373 74.9259 97.5543 74.6434C96.5062 74.3932 94.1127 74.3361 93.7419 75.6623C93.3772 76.9654 94.4391 77.4718 95.4872 77.7219C96.6533 77.9998 97.9282 78.0616 99.1142 78.2762C100.625 78.551 102.18 79.0173 103.327 80.0826C103.334 79.0127 103.474 77.9566 103.714 76.9176H99.4069L99.4054 76.9191ZM115.771 78.2639C115.476 76.002 113.871 74.7375 111.612 74.8811C109.68 75.0031 108.533 76.4034 108.319 78.2639H115.771ZM63.5182 75.1992C61.0358 75.3304 60.1977 77.2063 60.0812 79.4558C59.9724 81.5601 60.4122 84.2296 62.8287 84.7097C66.6763 85.4724 67.6938 81.6528 67.2663 78.5958C66.966 76.4497 65.7968 75.0787 63.5182 75.1992ZM80.144 75.1992C77.8807 75.3057 77.0671 77.0828 76.8801 79.1099C76.638 81.7392 77.1835 84.861 80.4351 84.8116C83.3082 84.7669 83.9457 82.0156 83.8599 79.6287C83.7725 77.2341 82.8976 75.071 80.1455 75.2007L80.144 75.1992ZM93.3756 83.118C93.4952 84.1416 93.8568 84.9954 94.885 85.3489C96.0664 85.755 99.2889 85.8646 99.4866 84.1323C99.6643 82.5776 97.9726 82.312 96.8295 82.0912C94.2812 81.6003 91.2426 81.5632 89.5065 79.3184L88.8966 78.2639V83.0531L88.961 83.118H93.3756Z"/>
</mask>
<path d="M55 65H60.1685V73.4962L61.0726 72.4772C63.9212 70.1119 68.5075 70.7635 70.7385 73.6738C71.353 74.4735 71.7882 75.4369 72.0778 76.4019C72.5942 74.7175 73.5259 73.0994 75.0321 72.136C76.9567 70.904 79.9938 70.643 82.0073 71.784C82.7382 72.1993 83.2577 72.7567 83.7725 73.4098V71.4598H88.8982V74.6248L89.4667 73.6136C91.5108 70.6137 97.8592 70.5396 100.858 71.8427C102.821 72.6949 103.514 73.8745 104.047 75.8739C104.059 75.9186 104.039 75.9804 104.102 75.968C105.217 73.2847 107.657 71.5478 110.504 71.1633C114.623 70.606 118.346 72.2009 119.965 75.9032C120.208 76.4621 120.386 77.0472 120.512 77.6447L120.769 78.8722V71.4598H125.764V73.8436L126.452 72.9543C127.933 71.3054 129.799 70.8005 131.967 71.1772C133.746 71.486 135.058 72.4865 135.864 74.103C136.94 72.4633 138.644 71.205 140.645 71.0707C142.646 70.9364 144.834 71.6003 146.049 73.3681L145.317 71.4613H150.809L150.895 71.591C152.119 74.9815 153.156 78.4383 154.177 81.8983L154.339 82.2981L158.087 71.4613H167.24V73.8451L168.187 72.7397C170.513 70.484 174.96 70.4238 177.102 72.9589L177.663 73.7602V71.4629H180.204V66.3911H185.329V71.4629H188V75.2347H185.329V88.5418H180.204V75.2347H178.222C178.366 76.1718 178.44 77.1183 178.44 78.0662V88.5433H173.313V77.8578C173.313 76.9129 172.62 75.9279 171.728 75.6376C169.526 74.9197 167.418 76.388 167.367 78.7224V88.5418H162.243V74.3238L153.93 95H148.978L151.8 87.8918L146.954 75.6685L147.084 76.8157V88.5433H141.957V77.8578C141.957 76.6582 141.125 75.6747 139.949 75.5002C137.661 75.1621 136.483 76.9191 136.486 79.0266V88.5433H131.362V77.7281C131.362 76.9237 130.743 75.9758 130 75.6747C127.835 74.8008 125.898 76.4559 125.892 78.6792V88.5418H120.768V81.52H108.278C108.498 83.2554 109.506 84.7236 111.29 85.0556C112.96 85.3659 114.811 84.8363 115.578 83.2106H120.423C119.873 85.6253 118.022 87.4749 115.751 88.3256C113.446 89.1902 110.386 89.1593 108.132 88.145C106.62 87.4641 105.355 86.2815 104.508 84.858C104.353 85.2007 104.254 85.562 104.077 85.8986C102.45 89.0142 97.4363 89.2798 94.3916 88.9262C92.6447 88.7239 90.668 88.1373 89.5663 86.6736C89.3104 86.334 89.1434 85.9356 88.8951 85.5929V88.5402H83.8997V86.3726L83.3619 87.1105C81.8418 88.9339 79.3426 89.2195 77.1376 88.7363C74.4882 88.1558 72.824 86.1317 72.0778 83.5981C71.3745 86.0946 69.5908 88.1481 67.0181 88.7363C64.7379 89.2566 62.2004 88.8614 60.5991 87.0457C60.4229 86.8465 60.2835 86.5933 60.1195 86.4019C60.0812 86.3571 60.0781 86.3123 59.9969 86.3293V88.5402H55.0015V65H55ZM99.4054 76.9191C99.367 75.6809 98.7373 74.9259 97.5543 74.6434C96.5062 74.3932 94.1127 74.3361 93.7419 75.6623C93.3772 76.9654 94.4391 77.4718 95.4872 77.7219C96.6533 77.9998 97.9282 78.0616 99.1142 78.2762C100.625 78.551 102.18 79.0173 103.327 80.0826C103.334 79.0127 103.474 77.9566 103.714 76.9176H99.4069L99.4054 76.9191ZM115.771 78.2639C115.476 76.002 113.871 74.7375 111.612 74.8811C109.68 75.0031 108.533 76.4034 108.319 78.2639H115.771ZM63.5182 75.1992C61.0358 75.3304 60.1977 77.2063 60.0812 79.4558C59.9724 81.5601 60.4122 84.2296 62.8287 84.7097C66.6763 85.4724 67.6938 81.6528 67.2663 78.5958C66.966 76.4497 65.7968 75.0787 63.5182 75.1992ZM80.144 75.1992C77.8807 75.3057 77.0671 77.0828 76.8801 79.1099C76.638 81.7392 77.1835 84.861 80.4351 84.8116C83.3082 84.7669 83.9457 82.0156 83.8599 79.6287C83.7725 77.2341 82.8976 75.071 80.1455 75.2007L80.144 75.1992ZM93.3756 83.118C93.4952 84.1416 93.8568 84.9954 94.885 85.3489C96.0664 85.755 99.2889 85.8646 99.4866 84.1323C99.6643 82.5776 97.9726 82.312 96.8295 82.0912C94.2812 81.6003 91.2426 81.5632 89.5065 79.3184L88.8966 78.2639V83.0531L88.961 83.118H93.3756Z" fill="black"/>
<path d="M55 65H60.1685V73.4962L61.0726 72.4772C63.9212 70.1119 68.5075 70.7635 70.7385 73.6738C71.353 74.4735 71.7882 75.4369 72.0778 76.4019C72.5942 74.7175 73.5259 73.0994 75.0321 72.136C76.9567 70.904 79.9938 70.643 82.0073 71.784C82.7382 72.1993 83.2577 72.7567 83.7725 73.4098V71.4598H88.8982V74.6248L89.4667 73.6136C91.5108 70.6137 97.8592 70.5396 100.858 71.8427C102.821 72.6949 103.514 73.8745 104.047 75.8739C104.059 75.9186 104.039 75.9804 104.102 75.968C105.217 73.2847 107.657 71.5478 110.504 71.1633C114.623 70.606 118.346 72.2009 119.965 75.9032C120.208 76.4621 120.386 77.0472 120.512 77.6447L120.769 78.8722V71.4598H125.764V73.8436L126.452 72.9543C127.933 71.3054 129.799 70.8005 131.967 71.1772C133.746 71.486 135.058 72.4865 135.864 74.103C136.94 72.4633 138.644 71.205 140.645 71.0707C142.646 70.9364 144.834 71.6003 146.049 73.3681L145.317 71.4613H150.809L150.895 71.591C152.119 74.9815 153.156 78.4383 154.177 81.8983L154.339 82.2981L158.087 71.4613H167.24V73.8451L168.187 72.7397C170.513 70.484 174.96 70.4238 177.102 72.9589L177.663 73.7602V71.4629H180.204V66.3911H185.329V71.4629H188V75.2347H185.329V88.5418H180.204V75.2347H178.222C178.366 76.1718 178.44 77.1183 178.44 78.0662V88.5433H173.313V77.8578C173.313 76.9129 172.62 75.9279 171.728 75.6376C169.526 74.9197 167.418 76.388 167.367 78.7224V88.5418H162.243V74.3238L153.93 95H148.978L151.8 87.8918L146.954 75.6685L147.084 76.8157V88.5433H141.957V77.8578C141.957 76.6582 141.125 75.6747 139.949 75.5002C137.661 75.1621 136.483 76.9191 136.486 79.0266V88.5433H131.362V77.7281C131.362 76.9237 130.743 75.9758 130 75.6747C127.835 74.8008 125.898 76.4559 125.892 78.6792V88.5418H120.768V81.52H108.278C108.498 83.2554 109.506 84.7236 111.29 85.0556C112.96 85.3659 114.811 84.8363 115.578 83.2106H120.423C119.873 85.6253 118.022 87.4749 115.751 88.3256C113.446 89.1902 110.386 89.1593 108.132 88.145C106.62 87.4641 105.355 86.2815 104.508 84.858C104.353 85.2007 104.254 85.562 104.077 85.8986C102.45 89.0142 97.4363 89.2798 94.3916 88.9262C92.6447 88.7239 90.668 88.1373 89.5663 86.6736C89.3104 86.334 89.1434 85.9356 88.8951 85.5929V88.5402H83.8997V86.3726L83.3619 87.1105C81.8418 88.9339 79.3426 89.2195 77.1376 88.7363C74.4882 88.1558 72.824 86.1317 72.0778 83.5981C71.3745 86.0946 69.5908 88.1481 67.0181 88.7363C64.7379 89.2566 62.2004 88.8614 60.5991 87.0457C60.4229 86.8465 60.2835 86.5933 60.1195 86.4019C60.0812 86.3571 60.0781 86.3123 59.9969 86.3293V88.5402H55.0015V65H55ZM99.4054 76.9191C99.367 75.6809 98.7373 74.9259 97.5543 74.6434C96.5062 74.3932 94.1127 74.3361 93.7419 75.6623C93.3772 76.9654 94.4391 77.4718 95.4872 77.7219C96.6533 77.9998 97.9282 78.0616 99.1142 78.2762C100.625 78.551 102.18 79.0173 103.327 80.0826C103.334 79.0127 103.474 77.9566 103.714 76.9176H99.4069L99.4054 76.9191ZM115.771 78.2639C115.476 76.002 113.871 74.7375 111.612 74.8811C109.68 75.0031 108.533 76.4034 108.319 78.2639H115.771ZM63.5182 75.1992C61.0358 75.3304 60.1977 77.2063 60.0812 79.4558C59.9724 81.5601 60.4122 84.2296 62.8287 84.7097C66.6763 85.4724 67.6938 81.6528 67.2663 78.5958C66.966 76.4497 65.7968 75.0787 63.5182 75.1992ZM80.144 75.1992C77.8807 75.3057 77.0671 77.0828 76.8801 79.1099C76.638 81.7392 77.1835 84.861 80.4351 84.8116C83.3082 84.7669 83.9457 82.0156 83.8599 79.6287C83.7725 77.2341 82.8976 75.071 80.1455 75.2007L80.144 75.1992ZM93.3756 83.118C93.4952 84.1416 93.8568 84.9954 94.885 85.3489C96.0664 85.755 99.2889 85.8646 99.4866 84.1323C99.6643 82.5776 97.9726 82.312 96.8295 82.0912C94.2812 81.6003 91.2426 81.5632 89.5065 79.3184L88.8966 78.2639V83.0531L88.961 83.118H93.3756Z" stroke="#E6E2DE" stroke-width="16" stroke-linejoin="round" mask="url(#path-4-outside-1_1195_159)"/>
</svg>
