<svg width="242" height="180" viewBox="0 0 242 180" fill="none" xmlns="http://www.w3.org/2000/svg">
<rect y="20.0015" width="242" height="160" rx="12" fill="#E6E2DE"/>
<path d="M77.1832 91.185C77.1832 93.313 75.6152 94.561 73.0872 94.561H68.5912V83.073H72.9112C75.3272 83.073 76.8152 84.161 76.8152 86.129C76.8152 87.185 76.2232 88.033 75.1992 88.561C76.4792 89.009 77.1832 89.921 77.1832 91.185ZM72.7192 84.993H70.7992V87.665H72.7192C73.9032 87.665 74.5112 87.153 74.5112 86.321C74.5112 85.505 73.9032 84.993 72.7192 84.993ZM72.8952 89.601H70.7992V92.641H72.8952C74.2072 92.641 74.8952 92.065 74.8952 91.089C74.8952 90.177 74.2072 89.601 72.8952 89.601ZM80.8226 90.417V94.561H78.5986V86.017H80.6466V87.665C81.2706 86.577 82.5986 85.921 83.9746 85.921V88.225C82.0866 88.081 80.8226 88.529 80.8226 90.417ZM92.8221 86.017L88.6621 97.649H86.2461L87.4621 94.465L84.1021 86.017H86.5021L88.6461 91.873L90.5981 86.017H92.8221ZM98.5072 94.561V93.505C97.9472 94.305 97.0992 94.721 95.9312 94.721C94.1552 94.721 92.9712 93.681 92.9712 92.081C92.9712 90.417 94.3152 89.521 96.8112 89.521C97.2912 89.521 97.7072 89.553 98.2352 89.617V89.105C98.2352 88.145 97.6912 87.585 96.7632 87.585C95.8032 87.585 95.2272 88.145 95.1472 89.105H93.1472C93.2752 87.137 94.6992 85.857 96.7632 85.857C99.0032 85.857 100.315 87.089 100.315 89.185V94.561H98.5072ZM95.0672 92.017C95.0672 92.737 95.5792 93.185 96.4112 93.185C97.5472 93.185 98.2352 92.561 98.2352 91.569V90.961C97.7072 90.881 97.3392 90.849 96.9552 90.849C95.6912 90.849 95.0672 91.249 95.0672 92.017ZM104.296 89.905V94.561H102.072V86.017H104.12V87.233C104.744 86.385 105.624 85.857 106.744 85.857C108.456 85.857 109.64 86.977 109.64 89.041V94.561H107.432V89.793C107.432 88.529 106.936 87.825 105.928 87.825C105.048 87.825 104.296 88.529 104.296 89.905ZM113.62 89.905V94.561H111.396V86.017H113.444V87.233C114.068 86.385 114.948 85.857 116.068 85.857C117.78 85.857 118.964 86.977 118.964 89.041V94.561H116.756V89.793C116.756 88.529 116.26 87.825 115.252 87.825C114.372 87.825 113.62 88.529 113.62 89.905ZM125.808 94.561V93.505C125.248 94.305 124.4 94.721 123.232 94.721C121.456 94.721 120.272 93.681 120.272 92.081C120.272 90.417 121.616 89.521 124.112 89.521C124.592 89.521 125.008 89.553 125.536 89.617V89.105C125.536 88.145 124.992 87.585 124.064 87.585C123.104 87.585 122.528 88.145 122.448 89.105H120.448C120.576 87.137 122 85.857 124.064 85.857C126.304 85.857 127.616 87.089 127.616 89.185V94.561H125.808ZM122.368 92.017C122.368 92.737 122.88 93.185 123.712 93.185C124.848 93.185 125.536 92.561 125.536 91.569V90.961C125.008 90.881 124.64 90.849 124.256 90.849C122.992 90.849 122.368 91.249 122.368 92.017ZM137.837 94.801C134.605 94.801 132.077 92.177 132.077 88.801C132.077 85.441 134.605 82.833 137.837 82.833C140.861 82.833 143.229 84.849 143.629 87.793H141.053C140.781 86.145 139.501 85.009 137.869 85.009C135.901 85.009 134.573 86.561 134.573 88.801C134.573 91.057 135.901 92.625 137.869 92.625C139.501 92.625 140.765 91.473 141.053 89.825H143.629C143.229 92.801 140.861 94.801 137.837 94.801ZM147.215 94.561H144.975V83.073H147.215V94.561ZM154.137 94.561V93.505C153.577 94.305 152.729 94.721 151.561 94.721C149.785 94.721 148.601 93.681 148.601 92.081C148.601 90.417 149.945 89.521 152.441 89.521C152.921 89.521 153.337 89.553 153.865 89.617V89.105C153.865 88.145 153.321 87.585 152.393 87.585C151.433 87.585 150.857 88.145 150.777 89.105H148.777C148.905 87.137 150.329 85.857 152.393 85.857C154.633 85.857 155.945 87.089 155.945 89.185V94.561H154.137ZM150.697 92.017C150.697 92.737 151.209 93.185 152.041 93.185C153.177 93.185 153.865 92.561 153.865 91.569V90.961C153.337 90.881 152.969 90.849 152.585 90.849C151.321 90.849 150.697 91.249 150.697 92.017ZM159.926 90.417V94.561H157.702V86.017H159.75V87.665C160.374 86.577 161.702 85.921 163.078 85.921V88.225C161.19 88.081 159.926 88.529 159.926 90.417ZM166.649 84.033C166.649 84.785 166.041 85.345 165.161 85.345C164.297 85.345 163.689 84.785 163.689 84.033C163.689 83.249 164.297 82.689 165.161 82.689C166.041 82.689 166.649 83.249 166.649 84.033ZM166.297 94.561H164.073V86.017H166.297V94.561ZM175.028 94.561H167.748V92.769L172.148 87.937H167.732V86.017H174.9V87.841L170.484 92.625H175.028V94.561Z" fill="#1A1A1A"/>
<path d="M68.7114 114.561H62.6214V104.509H64.1614V113.175H68.7114V114.561ZM72.7339 114.701C70.6339 114.701 69.0939 113.049 69.0939 110.851C69.0939 108.653 70.6339 107.001 72.7339 107.001C74.8339 107.001 76.3739 108.653 76.3739 110.851C76.3739 113.049 74.8339 114.701 72.7339 114.701ZM72.7339 113.455C73.9519 113.455 74.9179 112.475 74.9179 110.851C74.9179 109.227 73.9519 108.261 72.7339 108.261C71.5159 108.261 70.5639 109.227 70.5639 110.851C70.5639 112.475 71.5159 113.455 72.7339 113.455ZM80.3666 117.417C78.4206 117.417 77.1606 116.381 77.0766 114.701H78.4486C78.5326 115.737 79.2046 116.297 80.3526 116.297C81.6266 116.297 82.2986 115.611 82.2986 114.337V112.993C81.8786 113.889 81.0386 114.407 80.0306 114.407C78.1826 114.407 76.8666 112.881 76.8666 110.697C76.8666 108.485 78.1266 107.001 79.9886 107.001C81.0526 107.001 81.8926 107.519 82.3966 108.457V107.141H83.7126V114.309C83.7126 116.255 82.4666 117.417 80.3666 117.417ZM78.2946 110.697C78.2946 112.237 79.0506 113.175 80.2826 113.175C81.4866 113.175 82.2986 112.209 82.2986 110.739C82.2986 109.199 81.5006 108.219 80.2826 108.219C79.0646 108.219 78.2946 109.171 78.2946 110.697ZM88.4981 114.701C86.3981 114.701 84.8581 113.049 84.8581 110.851C84.8581 108.653 86.3981 107.001 88.4981 107.001C90.5981 107.001 92.1381 108.653 92.1381 110.851C92.1381 113.049 90.5981 114.701 88.4981 114.701ZM88.4981 113.455C89.7161 113.455 90.6821 112.475 90.6821 110.851C90.6821 109.227 89.7161 108.261 88.4981 108.261C87.2801 108.261 86.3281 109.227 86.3281 110.851C86.3281 112.475 87.2801 113.455 88.4981 113.455ZM99.2354 114.561H96.0574V104.509H99.2354C102.441 104.509 104.289 106.553 104.289 109.493C104.289 112.391 102.371 114.561 99.2354 114.561ZM97.5974 105.839V113.231H99.1654C101.475 113.231 102.721 111.803 102.721 109.493C102.721 107.225 101.489 105.839 99.1654 105.839H97.5974ZM108.561 114.701C106.419 114.701 104.977 113.147 104.977 110.809C104.977 108.611 106.475 107.001 108.519 107.001C110.731 107.001 112.201 108.793 111.949 111.201H106.419C106.531 112.713 107.287 113.595 108.533 113.595C109.583 113.595 110.311 113.021 110.549 112.055H111.949C111.585 113.707 110.311 114.701 108.561 114.701ZM108.491 108.065C107.357 108.065 106.587 108.877 106.433 110.263H110.451C110.381 108.891 109.639 108.065 108.491 108.065ZM119.052 112.349C119.052 113.805 117.918 114.701 115.944 114.701C113.984 114.701 112.822 113.735 112.682 112.139H114.04C114.096 113.063 114.838 113.637 115.972 113.637C116.966 113.637 117.624 113.287 117.624 112.587C117.624 111.971 117.246 111.705 116.322 111.523L115.118 111.299C113.746 111.033 112.976 110.333 112.976 109.213C112.976 107.911 114.11 107.001 115.832 107.001C117.61 107.001 118.814 107.953 118.94 109.479H117.582C117.498 108.583 116.84 108.065 115.846 108.065C114.95 108.065 114.348 108.443 114.348 109.087C114.348 109.689 114.726 109.969 115.622 110.137L116.882 110.375C118.352 110.641 119.052 111.285 119.052 112.349ZM122.038 105.419C122.038 105.951 121.618 106.357 121.016 106.357C120.414 106.357 119.98 105.951 119.98 105.419C119.98 104.873 120.414 104.481 121.016 104.481C121.618 104.481 122.038 104.873 122.038 105.419ZM121.73 114.561H120.316V107.141H121.73V114.561ZM126.381 117.417C124.435 117.417 123.175 116.381 123.091 114.701H124.463C124.547 115.737 125.219 116.297 126.367 116.297C127.641 116.297 128.313 115.611 128.313 114.337V112.993C127.893 113.889 127.053 114.407 126.045 114.407C124.197 114.407 122.881 112.881 122.881 110.697C122.881 108.485 124.141 107.001 126.003 107.001C127.067 107.001 127.907 107.519 128.411 108.457V107.141H129.727V114.309C129.727 116.255 128.481 117.417 126.381 117.417ZM124.309 110.697C124.309 112.237 125.065 113.175 126.297 113.175C127.501 113.175 128.313 112.209 128.313 110.739C128.313 109.199 127.515 108.219 126.297 108.219C125.079 108.219 124.309 109.171 124.309 110.697ZM132.819 110.375V114.561H131.405V107.141H132.721V108.373C133.225 107.547 134.065 107.001 135.087 107.001C136.613 107.001 137.621 107.981 137.621 109.759V114.561H136.207V110.235C136.207 108.961 135.647 108.247 134.597 108.247C133.631 108.247 132.819 109.059 132.819 110.375ZM141.136 113.959C141.136 115.289 140.086 116.325 138.546 116.353V115.555C139.456 115.527 140.072 115.037 140.156 114.351C140.03 114.393 139.946 114.407 139.848 114.407C139.316 114.407 138.924 113.973 138.924 113.455C138.924 112.853 139.372 112.461 139.946 112.461C140.716 112.461 141.136 113.021 141.136 113.959ZM152.445 111.677C152.445 113.511 151.101 114.561 149.015 114.561H145.333V104.509H148.819C150.849 104.509 152.067 105.447 152.067 107.141C152.067 108.093 151.493 108.905 150.527 109.325C151.773 109.675 152.445 110.529 152.445 111.677ZM148.721 105.741H146.747V108.765H148.721C149.939 108.765 150.597 108.191 150.597 107.253C150.597 106.315 149.939 105.741 148.721 105.741ZM148.917 109.997H146.747V113.329H148.917C150.233 113.329 150.975 112.699 150.975 111.635C150.975 110.613 150.233 109.997 148.917 109.997ZM155.242 110.767V114.561H153.828V107.141H155.144V108.709C155.662 107.687 156.782 107.043 158 107.043V108.513C156.404 108.429 155.242 109.129 155.242 110.767ZM163.333 114.561V113.413C162.871 114.239 162.045 114.701 160.953 114.701C159.413 114.701 158.405 113.819 158.405 112.461C158.405 111.005 159.567 110.249 161.779 110.249C162.213 110.249 162.563 110.263 163.165 110.333V109.787C163.165 108.723 162.591 108.121 161.611 108.121C160.575 108.121 159.945 108.737 159.903 109.773H158.615C158.685 108.107 159.875 107.001 161.611 107.001C163.445 107.001 164.509 108.037 164.509 109.801V114.561H163.333ZM159.749 112.419C159.749 113.189 160.323 113.693 161.233 113.693C162.423 113.693 163.165 112.951 163.165 111.817V111.215C162.619 111.145 162.227 111.131 161.863 111.131C160.449 111.131 159.749 111.551 159.749 112.419ZM167.533 110.375V114.561H166.119V107.141H167.435V108.373C167.939 107.547 168.779 107.001 169.801 107.001C171.327 107.001 172.335 107.981 172.335 109.759V114.561H170.921V110.235C170.921 108.961 170.361 108.247 169.311 108.247C168.345 108.247 167.533 109.059 167.533 110.375ZM173.401 110.851C173.401 108.597 174.689 107.001 176.691 107.001C177.685 107.001 178.553 107.505 179.071 108.415V104.509H180.485V114.561H179.169V113.231C178.637 114.169 177.741 114.701 176.691 114.701C174.689 114.701 173.401 113.077 173.401 110.851ZM174.871 110.851C174.871 112.503 175.739 113.441 176.971 113.441C178.175 113.441 179.071 112.461 179.071 110.823C179.071 109.157 178.147 108.247 176.971 108.247C175.739 108.247 174.871 109.171 174.871 110.851ZM58.095 131.561H54.917V121.509H58.095C61.301 121.509 63.149 123.553 63.149 126.493C63.149 129.391 61.231 131.561 58.095 131.561ZM56.457 122.839V130.231H58.025C60.335 130.231 61.581 128.803 61.581 126.493C61.581 124.225 60.349 122.839 58.025 122.839H56.457ZM67.4208 131.701C65.2788 131.701 63.8368 130.147 63.8368 127.809C63.8368 125.611 65.3348 124.001 67.3788 124.001C69.5908 124.001 71.0608 125.793 70.8088 128.201H65.2788C65.3908 129.713 66.1468 130.595 67.3928 130.595C68.4428 130.595 69.1708 130.021 69.4088 129.055H70.8088C70.4448 130.707 69.1708 131.701 67.4208 131.701ZM67.3508 125.065C66.2168 125.065 65.4468 125.877 65.2928 127.263H69.3108C69.2408 125.891 68.4988 125.065 67.3508 125.065ZM74.8214 131.715C72.7914 131.715 71.3634 130.119 71.3634 127.851C71.3634 125.611 72.8194 124.001 74.8214 124.001C76.6554 124.001 77.9854 125.219 78.2514 127.151H76.7674C76.6134 125.961 75.8714 125.247 74.8354 125.247C73.6174 125.247 72.8194 126.283 72.8194 127.851C72.8194 129.433 73.6174 130.455 74.8354 130.455C75.8854 130.455 76.6134 129.755 76.7814 128.551H78.2514C77.9994 130.511 76.6834 131.715 74.8214 131.715ZM80.8087 131.561H79.3947V121.509H80.8087V127.459L83.9867 124.141H85.6527L82.2227 127.739L85.9747 131.561H84.1547L80.8087 128.047V131.561ZM88.6069 130.959C88.6069 132.289 87.5569 133.325 86.0169 133.353V132.555C86.9269 132.527 87.5429 132.037 87.6269 131.351C87.5009 131.393 87.4169 131.407 87.3189 131.407C86.7869 131.407 86.3949 130.973 86.3949 130.455C86.3949 129.853 86.8429 129.461 87.4169 129.461C88.1869 129.461 88.6069 130.021 88.6069 130.959ZM100.461 131.561L98.3334 123.679L96.1914 131.561H94.6094L91.9914 121.509H93.5034L95.4354 129.251L97.5494 121.509H99.1454L101.231 129.265L103.163 121.509H104.675L102.057 131.561H100.461ZM108.083 131.701C105.941 131.701 104.499 130.147 104.499 127.809C104.499 125.611 105.997 124.001 108.041 124.001C110.253 124.001 111.723 125.793 111.471 128.201H105.941C106.053 129.713 106.809 130.595 108.055 130.595C109.105 130.595 109.833 130.021 110.071 129.055H111.471C111.107 130.707 109.833 131.701 108.083 131.701ZM108.013 125.065C106.879 125.065 106.109 125.877 105.955 127.263H109.973C109.903 125.891 109.161 125.065 108.013 125.065ZM119.778 127.851C119.778 130.077 118.49 131.701 116.488 131.701C115.438 131.701 114.542 131.169 114.01 130.231V131.561H112.694V121.509H114.108V125.415C114.626 124.505 115.48 124.001 116.488 124.001C118.476 124.001 119.778 125.597 119.778 127.851ZM118.308 127.851C118.308 126.171 117.426 125.247 116.208 125.247C115.032 125.247 114.108 126.157 114.108 127.823C114.108 129.461 115.004 130.441 116.208 130.441C117.426 130.441 118.308 129.503 118.308 127.851ZM126.812 129.349C126.812 130.805 125.678 131.701 123.704 131.701C121.744 131.701 120.582 130.735 120.442 129.139H121.8C121.856 130.063 122.598 130.637 123.732 130.637C124.726 130.637 125.384 130.287 125.384 129.587C125.384 128.971 125.006 128.705 124.082 128.523L122.878 128.299C121.506 128.033 120.736 127.333 120.736 126.213C120.736 124.911 121.87 124.001 123.592 124.001C125.37 124.001 126.574 124.953 126.7 126.479H125.342C125.258 125.583 124.6 125.065 123.606 125.065C122.71 125.065 122.108 125.443 122.108 126.087C122.108 126.689 122.486 126.969 123.382 127.137L124.642 127.375C126.112 127.641 126.812 128.285 126.812 129.349ZM129.797 122.419C129.797 122.951 129.377 123.357 128.775 123.357C128.173 123.357 127.739 122.951 127.739 122.419C127.739 121.873 128.173 121.481 128.775 121.481C129.377 121.481 129.797 121.873 129.797 122.419ZM129.489 131.561H128.075V124.141H129.489V131.561ZM135.358 130.189V131.435C134.924 131.631 134.546 131.701 134.098 131.701C132.726 131.701 131.774 130.959 131.774 129.321V125.345H130.136V124.141H131.774V121.943H133.188V124.141H135.428V125.345H133.188V128.999C133.188 130.021 133.678 130.385 134.434 130.385C134.77 130.385 135.064 130.329 135.358 130.189ZM139.345 131.701C137.203 131.701 135.761 130.147 135.761 127.809C135.761 125.611 137.259 124.001 139.303 124.001C141.515 124.001 142.985 125.793 142.733 128.201H137.203C137.315 129.713 138.071 130.595 139.317 130.595C140.367 130.595 141.095 130.021 141.333 129.055H142.733C142.369 130.707 141.095 131.701 139.345 131.701ZM139.275 125.065C138.141 125.065 137.371 125.877 137.217 127.263H141.235C141.165 125.891 140.423 125.065 139.275 125.065ZM149.892 131.561H146.714V121.509H149.892C153.098 121.509 154.946 123.553 154.946 126.493C154.946 129.391 153.028 131.561 149.892 131.561ZM148.254 122.839V130.231H149.822C152.132 130.231 153.378 128.803 153.378 126.493C153.378 124.225 152.146 122.839 149.822 122.839H148.254ZM159.218 131.701C157.076 131.701 155.634 130.147 155.634 127.809C155.634 125.611 157.132 124.001 159.176 124.001C161.388 124.001 162.858 125.793 162.606 128.201H157.076C157.188 129.713 157.944 130.595 159.19 130.595C160.24 130.595 160.968 130.021 161.206 129.055H162.606C162.242 130.707 160.968 131.701 159.218 131.701ZM159.148 125.065C158.014 125.065 157.244 125.877 157.09 127.263H161.108C161.038 125.891 160.296 125.065 159.148 125.065ZM169.709 129.349C169.709 130.805 168.575 131.701 166.601 131.701C164.641 131.701 163.479 130.735 163.339 129.139H164.697C164.753 130.063 165.495 130.637 166.629 130.637C167.623 130.637 168.281 130.287 168.281 129.587C168.281 128.971 167.903 128.705 166.979 128.523L165.775 128.299C164.403 128.033 163.633 127.333 163.633 126.213C163.633 124.911 164.767 124.001 166.489 124.001C168.267 124.001 169.471 124.953 169.597 126.479H168.239C168.155 125.583 167.497 125.065 166.503 125.065C165.607 125.065 165.005 125.443 165.005 126.087C165.005 126.689 165.383 126.969 166.279 127.137L167.539 127.375C169.009 127.641 169.709 128.285 169.709 129.349ZM172.695 122.419C172.695 122.951 172.275 123.357 171.673 123.357C171.071 123.357 170.637 122.951 170.637 122.419C170.637 121.873 171.071 121.481 171.673 121.481C172.275 121.481 172.695 121.873 172.695 122.419ZM172.387 131.561H170.973V124.141H172.387V131.561ZM177.038 134.417C175.092 134.417 173.832 133.381 173.748 131.701H175.12C175.204 132.737 175.876 133.297 177.024 133.297C178.298 133.297 178.97 132.611 178.97 131.337V129.993C178.55 130.889 177.71 131.407 176.702 131.407C174.854 131.407 173.538 129.881 173.538 127.697C173.538 125.485 174.798 124.001 176.66 124.001C177.724 124.001 178.564 124.519 179.068 125.457V124.141H180.384V131.309C180.384 133.255 179.138 134.417 177.038 134.417ZM174.966 127.697C174.966 129.237 175.722 130.175 176.954 130.175C178.158 130.175 178.97 129.209 178.97 127.739C178.97 126.199 178.172 125.219 176.954 125.219C175.736 125.219 174.966 126.171 174.966 127.697ZM183.475 127.375V131.561H182.061V124.141H183.377V125.373C183.881 124.547 184.721 124.001 185.743 124.001C187.269 124.001 188.277 124.981 188.277 126.759V131.561H186.863V127.235C186.863 125.961 186.303 125.247 185.253 125.247C184.287 125.247 183.475 126.059 183.475 127.375Z" fill="#1A1A1A"/>
<mask id="path-4-outside-1_0_1" maskUnits="userSpaceOnUse" x="61" y="-0.998535" width="121" height="42" fill="black">
<rect fill="white" x="61" y="-0.998535" width="121" height="42"/>
<path d="M88.5947 26.8901C88.5947 30.2463 85.895 32.9843 82.5857 32.9843H69V32.7193C70.0451 32.7193 70.8869 31.8655 70.8869 30.8057V10.2269C70.8869 9.16706 70.0451 8.31329 69 8.31329V8.01889H81.7438C84.908 8.01889 87.5206 10.6391 87.5206 13.8481V13.9069C87.5206 17.2926 85.4886 19.0001 83.0211 19.5889C82.3534 19.7361 81.6567 19.8244 80.96 19.8244C80.0021 19.8244 79.2473 19.53 78.6377 19.1179C77.8249 18.5585 77.3024 17.6459 77.0701 16.6743C77.0411 16.5271 77.0121 16.3505 76.983 16.1738C76.954 15.9678 76.954 15.7617 76.954 15.5556C76.954 15.1729 76.983 14.7902 77.0992 14.378C77.0701 14.4074 77.0411 14.4958 76.983 14.6724C76.7798 15.2023 76.6927 15.7322 76.6927 16.2622C76.6927 18.1758 77.9991 19.9716 79.973 20.4721C80.5536 20.6193 81.2503 20.7371 82.0631 20.796C82.0631 20.796 88.5947 21.3848 88.5947 26.8901ZM84.0952 26.8901C84.0952 24.2994 82.6437 22.4446 80.1472 21.4142C79.3054 21.0904 78.4345 20.6488 77.7959 20.0011C77.0121 19.1768 76.3154 17.9991 76.3154 16.4683C76.3154 16.115 76.3444 15.7617 76.4315 15.379C76.5766 14.6724 76.954 13.7892 77.6217 13.0826C77.8829 12.8471 78.0281 12.7293 78.2894 12.5233L78.4926 12.7293C78.3764 12.8471 77.5346 13.6714 77.3314 14.8196C77.3024 15.0551 77.2733 15.2612 77.2733 15.4673C77.2733 17.3515 78.4055 18.5585 79.915 18.5585C82.7018 18.5585 83.0211 15.379 83.0211 13.5831C83.0211 10.168 81.0181 8.31329 78.5216 8.31329H77.2153C76.1992 8.31329 75.3864 9.13762 75.3864 10.168V30.8646C75.3864 31.8655 76.1992 32.7193 77.2153 32.7193H78.3474C79.944 32.7193 81.3664 32.0422 82.4115 31.0118C83.4566 29.9519 84.0952 28.4799 84.0952 26.8901Z"/>
<path d="M101.488 8.00146C102.564 8.00146 103.645 8.19324 104.73 8.57678C105.471 8.8441 105.974 9.02425 106.237 9.11723C106.511 9.2102 106.897 9.309 107.394 9.4136C107.902 9.50658 108.455 9.56469 109.054 9.58794L107.288 14.8878C106.689 14.6089 106.136 14.2718 105.629 13.8766C105.121 13.4815 104.715 13.1154 104.411 12.7783C104.106 12.4296 103.741 12.0577 103.315 11.6626C102.888 11.2558 102.467 10.9187 102.051 10.6514C99.9302 9.27994 98.0274 9.14628 96.3427 10.2504C95.196 10.9943 94.3689 12.1449 93.8615 13.7023C93.3642 15.2481 93.2323 16.9973 93.4657 18.9499C93.7092 20.8908 94.2978 22.7911 95.2315 24.6507C95.7795 25.7432 96.4696 26.7195 97.3018 27.5796C98.1339 28.4396 99.0371 29.1254 100.011 29.6368C100.996 30.1365 102 30.4736 103.025 30.6479C104.05 30.8222 105.24 30.7797 106.265 30.5008C107.29 30.2102 108.236 29.8836 109.068 29.163L109.206 29.3404C108.221 30.5026 107.059 31.4034 105.72 32.0426C104.39 32.6818 102.98 33.0015 101.488 33.0015C100.006 33.0015 98.5906 32.676 97.2409 32.0252C95.9013 31.3627 94.7444 30.4736 93.7701 29.3578C92.7959 28.2421 92.0195 26.9113 91.4411 25.3655C90.8626 23.8197 90.5734 22.1983 90.5734 20.5015C90.5734 18.8162 90.8626 17.2007 91.4411 15.6549C92.0195 14.1091 92.7959 12.7783 93.7701 11.6626C94.7444 10.5468 95.9064 9.65767 97.2561 8.99519C98.6058 8.33271 100.016 8.00146 101.488 8.00146Z"/>
<path d="M153.602 33.0013V32.8221L159.531 22.4569C155.45 22.5058 153.698 22.7992 153.698 22.7992V22.2613H160.576V22.4569L154.791 32.8058C158.872 32.7732 160.672 32.4635 160.672 32.4635V33.0013H153.602Z"/>
<path d="M151.33 33.0013C151.33 33.0013 151.474 31.8605 151.474 27.6395C151.474 23.3207 151.33 22.2613 151.33 22.2613H152.471C152.471 22.2613 152.326 23.3207 152.326 27.6395C152.326 31.8931 152.471 33.0013 152.471 33.0013H151.33Z"/>
<path d="M143.201 33.0013C143.201 33.0013 143.345 31.8605 143.345 27.6395C143.345 23.3207 143.201 22.2613 143.201 22.2613H144.502C146.415 22.2613 149.725 22.2613 149.725 24.9015C149.725 26.3683 148.777 27.1669 147.62 27.5417C147.138 27.7047 146.624 27.7699 146.109 27.8188C148.6 28.4055 149.42 30.2308 149.854 31.9583C149.998 32.545 150.047 32.985 150.047 32.985H148.938C148.938 32.985 148.922 32.5939 148.825 32.0561C148.488 30.1167 147.829 28.2751 145.451 27.884L145.258 27.8677L145.145 27.8514H144.229C144.245 31.9257 144.39 33.0013 144.39 33.0013H143.201ZM144.229 27.6884C146.511 27.6721 148.745 27.3298 148.745 24.8037C148.745 22.5547 146.238 22.4243 144.374 22.4243C144.326 22.8318 144.229 24.2007 144.229 27.6395V27.6884Z"/>
<path d="M132.824 33.0013C132.824 33.0013 133.322 32.2517 134.961 27.7699C136.809 22.7503 136.889 22.2613 136.889 22.2613H137.998C137.998 22.2613 138.207 23.2555 139.878 27.6395C141.566 32.0561 142.08 33.0013 142.08 33.0013H140.827C140.827 33.0013 140.698 32.4472 139.589 29.4648C138.93 29.4159 138.48 29.1389 138.046 28.9107C137.484 28.6336 136.922 28.3403 135.925 28.3403C135.652 28.3403 135.09 28.4544 135.025 28.4707C133.659 32.1702 133.579 33.0013 133.579 33.0013H132.824ZM139.493 29.204L137.13 22.9621L135.122 28.1936C135.266 28.161 135.716 28.0795 135.925 28.0795C136.986 28.0795 137.613 28.3566 138.175 28.6662C138.561 28.8944 138.962 29.1389 139.493 29.204Z"/>
<path d="M125.813 33.0013C125.813 33.0013 125.957 31.8605 125.957 27.6395C125.957 23.3207 125.813 22.2613 125.813 22.2613H126.841V27.6395C126.841 30.9479 126.938 32.3494 126.97 32.8058C130.875 32.7569 131.855 32.4635 131.855 32.4635V33.0013H125.813Z"/>
<path d="M120.231 33.0013C117.435 33.0013 115.169 30.5893 115.169 27.6395C115.169 24.6734 117.435 22.2613 120.231 22.2613C121.806 22.2613 123.204 23.0273 124.136 24.2007H123.107C122.063 22.9295 120.536 22.2613 119.074 22.6199C116.824 23.1577 115.619 25.8305 116.262 28.601C116.904 31.3716 119.154 33.1806 121.388 32.6428C122.625 32.3494 123.557 31.4205 124.056 30.1819H124.682C123.831 31.8605 122.159 33.0013 120.231 33.0013Z"/>
<path d="M164.744 18.7415C164.744 18.7415 165.242 17.9918 166.881 13.51C168.729 8.49039 168.809 8.00146 168.809 8.00146H169.918C169.918 8.00146 170.127 8.99561 171.798 13.3796C173.486 17.7962 174 18.7415 174 18.7415H172.747C172.747 18.7415 172.618 18.1873 171.509 15.2049C170.85 15.156 170.4 14.879 169.966 14.6508C169.404 14.3738 168.842 14.0804 167.845 14.0804C167.572 14.0804 167.01 14.1945 166.945 14.2108C165.579 17.9103 165.499 18.7415 165.499 18.7415H164.744ZM171.413 14.9442L169.05 8.70225L167.042 13.9337C167.186 13.9011 167.636 13.8196 167.845 13.8196C168.906 13.8196 169.533 14.0967 170.095 14.4063C170.481 14.6345 170.882 14.879 171.413 14.9442Z"/>
<path d="M156.987 18.7415C156.987 18.7415 157.148 17.6332 157.148 13.3796V9.0282L156.489 8.00146H157.55L163.335 17.0791V13.3796C163.335 9.10969 163.19 8.00146 163.19 8.00146H163.785C163.785 8.00146 163.64 9.12599 163.64 13.3796V18.7415H163.335L157.437 9.50083V13.3796C157.437 17.6169 157.582 18.7415 157.582 18.7415H156.987Z"/>
<path d="M148.733 18.7415C148.733 18.7415 148.893 17.6332 148.893 13.3796V9.0282L148.235 8.00146H149.295L155.08 17.0791V13.3796C155.08 9.10969 154.936 8.00146 154.936 8.00146H155.53C155.53 8.00146 155.386 9.12599 155.386 13.3796V18.7415H155.08L149.183 9.50083V13.3796C149.183 17.6169 149.327 18.7415 149.327 18.7415H148.733Z"/>
<path d="M138.018 18.7415C138.018 18.7415 138.516 17.9918 140.155 13.51C142.004 8.49039 142.084 8.00146 142.084 8.00146H143.193C143.193 8.00146 143.402 8.99561 145.073 13.3796C146.76 17.7962 147.274 18.7415 147.274 18.7415H146.021C146.021 18.7415 145.892 18.1873 144.784 15.2049C144.125 15.156 143.675 14.879 143.241 14.6508C142.678 14.3738 142.116 14.0804 141.12 14.0804C140.846 14.0804 140.284 14.1945 140.22 14.2108C138.854 17.9103 138.773 18.7415 138.773 18.7415H138.018ZM144.687 14.9442L142.325 8.70225L140.316 13.9337C140.461 13.9011 140.911 13.8196 141.12 13.8196C142.18 13.8196 142.807 14.0967 143.369 14.4063C143.755 14.6345 144.157 14.879 144.687 14.9442Z"/>
<path d="M134.311 18.7415C134.311 18.7415 134.456 17.6495 134.456 13.6567V13.4937L134.359 13.3144C132.125 9.35415 131.145 8.00146 131.145 8.00146H132.495C132.495 8.00146 133.057 9.19118 134.456 11.7499L134.504 11.8314L135.114 12.9559L135.355 12.581C137.525 9.0445 138.007 8.00146 138.007 8.00146H138.666C138.666 8.00146 137.557 9.54972 135.355 13.1351V13.3796C135.355 17.6332 135.5 18.7415 135.5 18.7415H134.311Z"/>
<path d="M123.82 18.7415C123.82 18.7415 123.964 17.6006 123.964 13.3796C123.964 9.0608 123.82 8.00146 123.82 8.00146H125.121C127.034 8.00146 130.344 8.00146 130.344 10.6416C130.344 12.1084 129.396 12.907 128.239 13.2818C127.757 13.4448 127.242 13.51 126.728 13.5589C129.219 14.1456 130.039 15.9709 130.473 17.6984C130.617 18.2851 130.665 18.7252 130.665 18.7252H129.557C129.557 18.7252 129.54 18.334 129.444 17.7962C129.107 15.8568 128.448 14.0152 126.069 13.6241L125.877 13.6078L125.764 13.5915H124.848C124.864 17.6658 125.009 18.7415 125.009 18.7415H123.82ZM124.848 13.4285C127.13 13.4122 129.364 13.07 129.364 10.5439C129.364 8.29482 126.857 8.16444 124.993 8.16444C124.944 8.57187 124.848 9.94086 124.848 13.3796V13.4285Z"/>
<path d="M115.33 18.7415C115.33 18.7415 115.474 17.8288 115.474 13.3796C115.474 8.84893 115.33 8.00146 115.33 8.00146L116.358 8.01776C117.146 8.00146 118.094 8.00146 119.026 8.14814C120.488 8.36001 121.709 9.0445 121.709 10.4787C121.709 12.0758 120.568 12.7114 119.138 12.9722C120.922 13.1351 122.69 13.7219 122.69 15.645C122.69 17.1769 121.661 18.0244 120.392 18.4155C119.106 18.8066 117.563 18.7252 116.503 18.7415H115.33ZM116.358 12.8907C118.254 12.907 120.745 12.9233 120.745 10.4624C120.745 8.16444 118.078 8.18074 116.358 8.19703V12.8907ZM116.487 18.5785C119.058 18.5785 121.613 18.2525 121.613 15.5635C121.613 13.0211 118.27 13.1514 116.358 13.1514V13.3796C116.358 16.7369 116.455 18.1385 116.487 18.5785Z"/>
</mask>
<path d="M88.5947 26.8901C88.5947 30.2463 85.895 32.9843 82.5857 32.9843H69V32.7193C70.0451 32.7193 70.8869 31.8655 70.8869 30.8057V10.2269C70.8869 9.16706 70.0451 8.31329 69 8.31329V8.01889H81.7438C84.908 8.01889 87.5206 10.6391 87.5206 13.8481V13.9069C87.5206 17.2926 85.4886 19.0001 83.0211 19.5889C82.3534 19.7361 81.6567 19.8244 80.96 19.8244C80.0021 19.8244 79.2473 19.53 78.6377 19.1179C77.8249 18.5585 77.3024 17.6459 77.0701 16.6743C77.0411 16.5271 77.0121 16.3505 76.983 16.1738C76.954 15.9678 76.954 15.7617 76.954 15.5556C76.954 15.1729 76.983 14.7902 77.0992 14.378C77.0701 14.4074 77.0411 14.4958 76.983 14.6724C76.7798 15.2023 76.6927 15.7322 76.6927 16.2622C76.6927 18.1758 77.9991 19.9716 79.973 20.4721C80.5536 20.6193 81.2503 20.7371 82.0631 20.796C82.0631 20.796 88.5947 21.3848 88.5947 26.8901ZM84.0952 26.8901C84.0952 24.2994 82.6437 22.4446 80.1472 21.4142C79.3054 21.0904 78.4345 20.6488 77.7959 20.0011C77.0121 19.1768 76.3154 17.9991 76.3154 16.4683C76.3154 16.115 76.3444 15.7617 76.4315 15.379C76.5766 14.6724 76.954 13.7892 77.6217 13.0826C77.8829 12.8471 78.0281 12.7293 78.2894 12.5233L78.4926 12.7293C78.3764 12.8471 77.5346 13.6714 77.3314 14.8196C77.3024 15.0551 77.2733 15.2612 77.2733 15.4673C77.2733 17.3515 78.4055 18.5585 79.915 18.5585C82.7018 18.5585 83.0211 15.379 83.0211 13.5831C83.0211 10.168 81.0181 8.31329 78.5216 8.31329H77.2153C76.1992 8.31329 75.3864 9.13762 75.3864 10.168V30.8646C75.3864 31.8655 76.1992 32.7193 77.2153 32.7193H78.3474C79.944 32.7193 81.3664 32.0422 82.4115 31.0118C83.4566 29.9519 84.0952 28.4799 84.0952 26.8901Z" fill="#1A1A1A"/>
<path d="M101.488 8.00146C102.564 8.00146 103.645 8.19324 104.73 8.57678C105.471 8.8441 105.974 9.02425 106.237 9.11723C106.511 9.2102 106.897 9.309 107.394 9.4136C107.902 9.50658 108.455 9.56469 109.054 9.58794L107.288 14.8878C106.689 14.6089 106.136 14.2718 105.629 13.8766C105.121 13.4815 104.715 13.1154 104.411 12.7783C104.106 12.4296 103.741 12.0577 103.315 11.6626C102.888 11.2558 102.467 10.9187 102.051 10.6514C99.9302 9.27994 98.0274 9.14628 96.3427 10.2504C95.196 10.9943 94.3689 12.1449 93.8615 13.7023C93.3642 15.2481 93.2323 16.9973 93.4657 18.9499C93.7092 20.8908 94.2978 22.7911 95.2315 24.6507C95.7795 25.7432 96.4696 26.7195 97.3018 27.5796C98.1339 28.4396 99.0371 29.1254 100.011 29.6368C100.996 30.1365 102 30.4736 103.025 30.6479C104.05 30.8222 105.24 30.7797 106.265 30.5008C107.29 30.2102 108.236 29.8836 109.068 29.163L109.206 29.3404C108.221 30.5026 107.059 31.4034 105.72 32.0426C104.39 32.6818 102.98 33.0015 101.488 33.0015C100.006 33.0015 98.5906 32.676 97.2409 32.0252C95.9013 31.3627 94.7444 30.4736 93.7701 29.3578C92.7959 28.2421 92.0195 26.9113 91.4411 25.3655C90.8626 23.8197 90.5734 22.1983 90.5734 20.5015C90.5734 18.8162 90.8626 17.2007 91.4411 15.6549C92.0195 14.1091 92.7959 12.7783 93.7701 11.6626C94.7444 10.5468 95.9064 9.65767 97.2561 8.99519C98.6058 8.33271 100.016 8.00146 101.488 8.00146Z" fill="#1A1A1A"/>
<path d="M153.602 33.0013V32.8221L159.531 22.4569C155.45 22.5058 153.698 22.7992 153.698 22.7992V22.2613H160.576V22.4569L154.791 32.8058C158.872 32.7732 160.672 32.4635 160.672 32.4635V33.0013H153.602Z" fill="#1A1A1A"/>
<path d="M151.33 33.0013C151.33 33.0013 151.474 31.8605 151.474 27.6395C151.474 23.3207 151.33 22.2613 151.33 22.2613H152.471C152.471 22.2613 152.326 23.3207 152.326 27.6395C152.326 31.8931 152.471 33.0013 152.471 33.0013H151.33Z" fill="#1A1A1A"/>
<path d="M143.201 33.0013C143.201 33.0013 143.345 31.8605 143.345 27.6395C143.345 23.3207 143.201 22.2613 143.201 22.2613H144.502C146.415 22.2613 149.725 22.2613 149.725 24.9015C149.725 26.3683 148.777 27.1669 147.62 27.5417C147.138 27.7047 146.624 27.7699 146.109 27.8188C148.6 28.4055 149.42 30.2308 149.854 31.9583C149.998 32.545 150.047 32.985 150.047 32.985H148.938C148.938 32.985 148.922 32.5939 148.825 32.0561C148.488 30.1167 147.829 28.2751 145.451 27.884L145.258 27.8677L145.145 27.8514H144.229C144.245 31.9257 144.39 33.0013 144.39 33.0013H143.201ZM144.229 27.6884C146.511 27.6721 148.745 27.3298 148.745 24.8037C148.745 22.5547 146.238 22.4243 144.374 22.4243C144.326 22.8318 144.229 24.2007 144.229 27.6395V27.6884Z" fill="#1A1A1A"/>
<path d="M132.824 33.0013C132.824 33.0013 133.322 32.2517 134.961 27.7699C136.809 22.7503 136.889 22.2613 136.889 22.2613H137.998C137.998 22.2613 138.207 23.2555 139.878 27.6395C141.566 32.0561 142.08 33.0013 142.08 33.0013H140.827C140.827 33.0013 140.698 32.4472 139.589 29.4648C138.93 29.4159 138.48 29.1389 138.046 28.9107C137.484 28.6336 136.922 28.3403 135.925 28.3403C135.652 28.3403 135.09 28.4544 135.025 28.4707C133.659 32.1702 133.579 33.0013 133.579 33.0013H132.824ZM139.493 29.204L137.13 22.9621L135.122 28.1936C135.266 28.161 135.716 28.0795 135.925 28.0795C136.986 28.0795 137.613 28.3566 138.175 28.6662C138.561 28.8944 138.962 29.1389 139.493 29.204Z" fill="#1A1A1A"/>
<path d="M125.813 33.0013C125.813 33.0013 125.957 31.8605 125.957 27.6395C125.957 23.3207 125.813 22.2613 125.813 22.2613H126.841V27.6395C126.841 30.9479 126.938 32.3494 126.97 32.8058C130.875 32.7569 131.855 32.4635 131.855 32.4635V33.0013H125.813Z" fill="#1A1A1A"/>
<path d="M120.231 33.0013C117.435 33.0013 115.169 30.5893 115.169 27.6395C115.169 24.6734 117.435 22.2613 120.231 22.2613C121.806 22.2613 123.204 23.0273 124.136 24.2007H123.107C122.063 22.9295 120.536 22.2613 119.074 22.6199C116.824 23.1577 115.619 25.8305 116.262 28.601C116.904 31.3716 119.154 33.1806 121.388 32.6428C122.625 32.3494 123.557 31.4205 124.056 30.1819H124.682C123.831 31.8605 122.159 33.0013 120.231 33.0013Z" fill="#1A1A1A"/>
<path d="M164.744 18.7415C164.744 18.7415 165.242 17.9918 166.881 13.51C168.729 8.49039 168.809 8.00146 168.809 8.00146H169.918C169.918 8.00146 170.127 8.99561 171.798 13.3796C173.486 17.7962 174 18.7415 174 18.7415H172.747C172.747 18.7415 172.618 18.1873 171.509 15.2049C170.85 15.156 170.4 14.879 169.966 14.6508C169.404 14.3738 168.842 14.0804 167.845 14.0804C167.572 14.0804 167.01 14.1945 166.945 14.2108C165.579 17.9103 165.499 18.7415 165.499 18.7415H164.744ZM171.413 14.9442L169.05 8.70225L167.042 13.9337C167.186 13.9011 167.636 13.8196 167.845 13.8196C168.906 13.8196 169.533 14.0967 170.095 14.4063C170.481 14.6345 170.882 14.879 171.413 14.9442Z" fill="#1A1A1A"/>
<path d="M156.987 18.7415C156.987 18.7415 157.148 17.6332 157.148 13.3796V9.0282L156.489 8.00146H157.55L163.335 17.0791V13.3796C163.335 9.10969 163.19 8.00146 163.19 8.00146H163.785C163.785 8.00146 163.64 9.12599 163.64 13.3796V18.7415H163.335L157.437 9.50083V13.3796C157.437 17.6169 157.582 18.7415 157.582 18.7415H156.987Z" fill="#1A1A1A"/>
<path d="M148.733 18.7415C148.733 18.7415 148.893 17.6332 148.893 13.3796V9.0282L148.235 8.00146H149.295L155.08 17.0791V13.3796C155.08 9.10969 154.936 8.00146 154.936 8.00146H155.53C155.53 8.00146 155.386 9.12599 155.386 13.3796V18.7415H155.08L149.183 9.50083V13.3796C149.183 17.6169 149.327 18.7415 149.327 18.7415H148.733Z" fill="#1A1A1A"/>
<path d="M138.018 18.7415C138.018 18.7415 138.516 17.9918 140.155 13.51C142.004 8.49039 142.084 8.00146 142.084 8.00146H143.193C143.193 8.00146 143.402 8.99561 145.073 13.3796C146.76 17.7962 147.274 18.7415 147.274 18.7415H146.021C146.021 18.7415 145.892 18.1873 144.784 15.2049C144.125 15.156 143.675 14.879 143.241 14.6508C142.678 14.3738 142.116 14.0804 141.12 14.0804C140.846 14.0804 140.284 14.1945 140.22 14.2108C138.854 17.9103 138.773 18.7415 138.773 18.7415H138.018ZM144.687 14.9442L142.325 8.70225L140.316 13.9337C140.461 13.9011 140.911 13.8196 141.12 13.8196C142.18 13.8196 142.807 14.0967 143.369 14.4063C143.755 14.6345 144.157 14.879 144.687 14.9442Z" fill="#1A1A1A"/>
<path d="M134.311 18.7415C134.311 18.7415 134.456 17.6495 134.456 13.6567V13.4937L134.359 13.3144C132.125 9.35415 131.145 8.00146 131.145 8.00146H132.495C132.495 8.00146 133.057 9.19118 134.456 11.7499L134.504 11.8314L135.114 12.9559L135.355 12.581C137.525 9.0445 138.007 8.00146 138.007 8.00146H138.666C138.666 8.00146 137.557 9.54972 135.355 13.1351V13.3796C135.355 17.6332 135.5 18.7415 135.5 18.7415H134.311Z" fill="#1A1A1A"/>
<path d="M123.82 18.7415C123.82 18.7415 123.964 17.6006 123.964 13.3796C123.964 9.0608 123.82 8.00146 123.82 8.00146H125.121C127.034 8.00146 130.344 8.00146 130.344 10.6416C130.344 12.1084 129.396 12.907 128.239 13.2818C127.757 13.4448 127.242 13.51 126.728 13.5589C129.219 14.1456 130.039 15.9709 130.473 17.6984C130.617 18.2851 130.665 18.7252 130.665 18.7252H129.557C129.557 18.7252 129.54 18.334 129.444 17.7962C129.107 15.8568 128.448 14.0152 126.069 13.6241L125.877 13.6078L125.764 13.5915H124.848C124.864 17.6658 125.009 18.7415 125.009 18.7415H123.82ZM124.848 13.4285C127.13 13.4122 129.364 13.07 129.364 10.5439C129.364 8.29482 126.857 8.16444 124.993 8.16444C124.944 8.57187 124.848 9.94086 124.848 13.3796V13.4285Z" fill="#1A1A1A"/>
<path d="M115.33 18.7415C115.33 18.7415 115.474 17.8288 115.474 13.3796C115.474 8.84893 115.33 8.00146 115.33 8.00146L116.358 8.01776C117.146 8.00146 118.094 8.00146 119.026 8.14814C120.488 8.36001 121.709 9.0445 121.709 10.4787C121.709 12.0758 120.568 12.7114 119.138 12.9722C120.922 13.1351 122.69 13.7219 122.69 15.645C122.69 17.1769 121.661 18.0244 120.392 18.4155C119.106 18.8066 117.563 18.7252 116.503 18.7415H115.33ZM116.358 12.8907C118.254 12.907 120.745 12.9233 120.745 10.4624C120.745 8.16444 118.078 8.18074 116.358 8.19703V12.8907ZM116.487 18.5785C119.058 18.5785 121.613 18.2525 121.613 15.5635C121.613 13.0211 118.27 13.1514 116.358 13.1514V13.3796C116.358 16.7369 116.455 18.1385 116.487 18.5785Z" fill="#1A1A1A"/>
<path d="M88.5947 26.8901C88.5947 30.2463 85.895 32.9843 82.5857 32.9843H69V32.7193C70.0451 32.7193 70.8869 31.8655 70.8869 30.8057V10.2269C70.8869 9.16706 70.0451 8.31329 69 8.31329V8.01889H81.7438C84.908 8.01889 87.5206 10.6391 87.5206 13.8481V13.9069C87.5206 17.2926 85.4886 19.0001 83.0211 19.5889C82.3534 19.7361 81.6567 19.8244 80.96 19.8244C80.0021 19.8244 79.2473 19.53 78.6377 19.1179C77.8249 18.5585 77.3024 17.6459 77.0701 16.6743C77.0411 16.5271 77.0121 16.3505 76.983 16.1738C76.954 15.9678 76.954 15.7617 76.954 15.5556C76.954 15.1729 76.983 14.7902 77.0992 14.378C77.0701 14.4074 77.0411 14.4958 76.983 14.6724C76.7798 15.2023 76.6927 15.7322 76.6927 16.2622C76.6927 18.1758 77.9991 19.9716 79.973 20.4721C80.5536 20.6193 81.2503 20.7371 82.0631 20.796C82.0631 20.796 88.5947 21.3848 88.5947 26.8901ZM84.0952 26.8901C84.0952 24.2994 82.6437 22.4446 80.1472 21.4142C79.3054 21.0904 78.4345 20.6488 77.7959 20.0011C77.0121 19.1768 76.3154 17.9991 76.3154 16.4683C76.3154 16.115 76.3444 15.7617 76.4315 15.379C76.5766 14.6724 76.954 13.7892 77.6217 13.0826C77.8829 12.8471 78.0281 12.7293 78.2894 12.5233L78.4926 12.7293C78.3764 12.8471 77.5346 13.6714 77.3314 14.8196C77.3024 15.0551 77.2733 15.2612 77.2733 15.4673C77.2733 17.3515 78.4055 18.5585 79.915 18.5585C82.7018 18.5585 83.0211 15.379 83.0211 13.5831C83.0211 10.168 81.0181 8.31329 78.5216 8.31329H77.2153C76.1992 8.31329 75.3864 9.13762 75.3864 10.168V30.8646C75.3864 31.8655 76.1992 32.7193 77.2153 32.7193H78.3474C79.944 32.7193 81.3664 32.0422 82.4115 31.0118C83.4566 29.9519 84.0952 28.4799 84.0952 26.8901Z" stroke="#E6E2DE" stroke-width="16" stroke-linejoin="round" mask="url(#path-4-outside-1_0_1)"/>
<path d="M101.488 8.00146C102.564 8.00146 103.645 8.19324 104.73 8.57678C105.471 8.8441 105.974 9.02425 106.237 9.11723C106.511 9.2102 106.897 9.309 107.394 9.4136C107.902 9.50658 108.455 9.56469 109.054 9.58794L107.288 14.8878C106.689 14.6089 106.136 14.2718 105.629 13.8766C105.121 13.4815 104.715 13.1154 104.411 12.7783C104.106 12.4296 103.741 12.0577 103.315 11.6626C102.888 11.2558 102.467 10.9187 102.051 10.6514C99.9302 9.27994 98.0274 9.14628 96.3427 10.2504C95.196 10.9943 94.3689 12.1449 93.8615 13.7023C93.3642 15.2481 93.2323 16.9973 93.4657 18.9499C93.7092 20.8908 94.2978 22.7911 95.2315 24.6507C95.7795 25.7432 96.4696 26.7195 97.3018 27.5796C98.1339 28.4396 99.0371 29.1254 100.011 29.6368C100.996 30.1365 102 30.4736 103.025 30.6479C104.05 30.8222 105.24 30.7797 106.265 30.5008C107.29 30.2102 108.236 29.8836 109.068 29.163L109.206 29.3404C108.221 30.5026 107.059 31.4034 105.72 32.0426C104.39 32.6818 102.98 33.0015 101.488 33.0015C100.006 33.0015 98.5906 32.676 97.2409 32.0252C95.9013 31.3627 94.7444 30.4736 93.7701 29.3578C92.7959 28.2421 92.0195 26.9113 91.4411 25.3655C90.8626 23.8197 90.5734 22.1983 90.5734 20.5015C90.5734 18.8162 90.8626 17.2007 91.4411 15.6549C92.0195 14.1091 92.7959 12.7783 93.7701 11.6626C94.7444 10.5468 95.9064 9.65767 97.2561 8.99519C98.6058 8.33271 100.016 8.00146 101.488 8.00146Z" stroke="#E6E2DE" stroke-width="16" stroke-linejoin="round" mask="url(#path-4-outside-1_0_1)"/>
<path d="M153.602 33.0013V32.8221L159.531 22.4569C155.45 22.5058 153.698 22.7992 153.698 22.7992V22.2613H160.576V22.4569L154.791 32.8058C158.872 32.7732 160.672 32.4635 160.672 32.4635V33.0013H153.602Z" stroke="#E6E2DE" stroke-width="16" stroke-linejoin="round" mask="url(#path-4-outside-1_0_1)"/>
<path d="M151.33 33.0013C151.33 33.0013 151.474 31.8605 151.474 27.6395C151.474 23.3207 151.33 22.2613 151.33 22.2613H152.471C152.471 22.2613 152.326 23.3207 152.326 27.6395C152.326 31.8931 152.471 33.0013 152.471 33.0013H151.33Z" stroke="#E6E2DE" stroke-width="16" stroke-linejoin="round" mask="url(#path-4-outside-1_0_1)"/>
<path d="M143.201 33.0013C143.201 33.0013 143.345 31.8605 143.345 27.6395C143.345 23.3207 143.201 22.2613 143.201 22.2613H144.502C146.415 22.2613 149.725 22.2613 149.725 24.9015C149.725 26.3683 148.777 27.1669 147.62 27.5417C147.138 27.7047 146.624 27.7699 146.109 27.8188C148.6 28.4055 149.42 30.2308 149.854 31.9583C149.998 32.545 150.047 32.985 150.047 32.985H148.938C148.938 32.985 148.922 32.5939 148.825 32.0561C148.488 30.1167 147.829 28.2751 145.451 27.884L145.258 27.8677L145.145 27.8514H144.229C144.245 31.9257 144.39 33.0013 144.39 33.0013H143.201ZM144.229 27.6884C146.511 27.6721 148.745 27.3298 148.745 24.8037C148.745 22.5547 146.238 22.4243 144.374 22.4243C144.326 22.8318 144.229 24.2007 144.229 27.6395V27.6884Z" stroke="#E6E2DE" stroke-width="16" stroke-linejoin="round" mask="url(#path-4-outside-1_0_1)"/>
<path d="M132.824 33.0013C132.824 33.0013 133.322 32.2517 134.961 27.7699C136.809 22.7503 136.889 22.2613 136.889 22.2613H137.998C137.998 22.2613 138.207 23.2555 139.878 27.6395C141.566 32.0561 142.08 33.0013 142.08 33.0013H140.827C140.827 33.0013 140.698 32.4472 139.589 29.4648C138.93 29.4159 138.48 29.1389 138.046 28.9107C137.484 28.6336 136.922 28.3403 135.925 28.3403C135.652 28.3403 135.09 28.4544 135.025 28.4707C133.659 32.1702 133.579 33.0013 133.579 33.0013H132.824ZM139.493 29.204L137.13 22.9621L135.122 28.1936C135.266 28.161 135.716 28.0795 135.925 28.0795C136.986 28.0795 137.613 28.3566 138.175 28.6662C138.561 28.8944 138.962 29.1389 139.493 29.204Z" stroke="#E6E2DE" stroke-width="16" stroke-linejoin="round" mask="url(#path-4-outside-1_0_1)"/>
<path d="M125.813 33.0013C125.813 33.0013 125.957 31.8605 125.957 27.6395C125.957 23.3207 125.813 22.2613 125.813 22.2613H126.841V27.6395C126.841 30.9479 126.938 32.3494 126.97 32.8058C130.875 32.7569 131.855 32.4635 131.855 32.4635V33.0013H125.813Z" stroke="#E6E2DE" stroke-width="16" stroke-linejoin="round" mask="url(#path-4-outside-1_0_1)"/>
<path d="M120.231 33.0013C117.435 33.0013 115.169 30.5893 115.169 27.6395C115.169 24.6734 117.435 22.2613 120.231 22.2613C121.806 22.2613 123.204 23.0273 124.136 24.2007H123.107C122.063 22.9295 120.536 22.2613 119.074 22.6199C116.824 23.1577 115.619 25.8305 116.262 28.601C116.904 31.3716 119.154 33.1806 121.388 32.6428C122.625 32.3494 123.557 31.4205 124.056 30.1819H124.682C123.831 31.8605 122.159 33.0013 120.231 33.0013Z" stroke="#E6E2DE" stroke-width="16" stroke-linejoin="round" mask="url(#path-4-outside-1_0_1)"/>
<path d="M164.744 18.7415C164.744 18.7415 165.242 17.9918 166.881 13.51C168.729 8.49039 168.809 8.00146 168.809 8.00146H169.918C169.918 8.00146 170.127 8.99561 171.798 13.3796C173.486 17.7962 174 18.7415 174 18.7415H172.747C172.747 18.7415 172.618 18.1873 171.509 15.2049C170.85 15.156 170.4 14.879 169.966 14.6508C169.404 14.3738 168.842 14.0804 167.845 14.0804C167.572 14.0804 167.01 14.1945 166.945 14.2108C165.579 17.9103 165.499 18.7415 165.499 18.7415H164.744ZM171.413 14.9442L169.05 8.70225L167.042 13.9337C167.186 13.9011 167.636 13.8196 167.845 13.8196C168.906 13.8196 169.533 14.0967 170.095 14.4063C170.481 14.6345 170.882 14.879 171.413 14.9442Z" stroke="#E6E2DE" stroke-width="16" stroke-linejoin="round" mask="url(#path-4-outside-1_0_1)"/>
<path d="M156.987 18.7415C156.987 18.7415 157.148 17.6332 157.148 13.3796V9.0282L156.489 8.00146H157.55L163.335 17.0791V13.3796C163.335 9.10969 163.19 8.00146 163.19 8.00146H163.785C163.785 8.00146 163.64 9.12599 163.64 13.3796V18.7415H163.335L157.437 9.50083V13.3796C157.437 17.6169 157.582 18.7415 157.582 18.7415H156.987Z" stroke="#E6E2DE" stroke-width="16" stroke-linejoin="round" mask="url(#path-4-outside-1_0_1)"/>
<path d="M148.733 18.7415C148.733 18.7415 148.893 17.6332 148.893 13.3796V9.0282L148.235 8.00146H149.295L155.08 17.0791V13.3796C155.08 9.10969 154.936 8.00146 154.936 8.00146H155.53C155.53 8.00146 155.386 9.12599 155.386 13.3796V18.7415H155.08L149.183 9.50083V13.3796C149.183 17.6169 149.327 18.7415 149.327 18.7415H148.733Z" stroke="#E6E2DE" stroke-width="16" stroke-linejoin="round" mask="url(#path-4-outside-1_0_1)"/>
<path d="M138.018 18.7415C138.018 18.7415 138.516 17.9918 140.155 13.51C142.004 8.49039 142.084 8.00146 142.084 8.00146H143.193C143.193 8.00146 143.402 8.99561 145.073 13.3796C146.76 17.7962 147.274 18.7415 147.274 18.7415H146.021C146.021 18.7415 145.892 18.1873 144.784 15.2049C144.125 15.156 143.675 14.879 143.241 14.6508C142.678 14.3738 142.116 14.0804 141.12 14.0804C140.846 14.0804 140.284 14.1945 140.22 14.2108C138.854 17.9103 138.773 18.7415 138.773 18.7415H138.018ZM144.687 14.9442L142.325 8.70225L140.316 13.9337C140.461 13.9011 140.911 13.8196 141.12 13.8196C142.18 13.8196 142.807 14.0967 143.369 14.4063C143.755 14.6345 144.157 14.879 144.687 14.9442Z" stroke="#E6E2DE" stroke-width="16" stroke-linejoin="round" mask="url(#path-4-outside-1_0_1)"/>
<path d="M134.311 18.7415C134.311 18.7415 134.456 17.6495 134.456 13.6567V13.4937L134.359 13.3144C132.125 9.35415 131.145 8.00146 131.145 8.00146H132.495C132.495 8.00146 133.057 9.19118 134.456 11.7499L134.504 11.8314L135.114 12.9559L135.355 12.581C137.525 9.0445 138.007 8.00146 138.007 8.00146H138.666C138.666 8.00146 137.557 9.54972 135.355 13.1351V13.3796C135.355 17.6332 135.5 18.7415 135.5 18.7415H134.311Z" stroke="#E6E2DE" stroke-width="16" stroke-linejoin="round" mask="url(#path-4-outside-1_0_1)"/>
<path d="M123.82 18.7415C123.82 18.7415 123.964 17.6006 123.964 13.3796C123.964 9.0608 123.82 8.00146 123.82 8.00146H125.121C127.034 8.00146 130.344 8.00146 130.344 10.6416C130.344 12.1084 129.396 12.907 128.239 13.2818C127.757 13.4448 127.242 13.51 126.728 13.5589C129.219 14.1456 130.039 15.9709 130.473 17.6984C130.617 18.2851 130.665 18.7252 130.665 18.7252H129.557C129.557 18.7252 129.54 18.334 129.444 17.7962C129.107 15.8568 128.448 14.0152 126.069 13.6241L125.877 13.6078L125.764 13.5915H124.848C124.864 17.6658 125.009 18.7415 125.009 18.7415H123.82ZM124.848 13.4285C127.13 13.4122 129.364 13.07 129.364 10.5439C129.364 8.29482 126.857 8.16444 124.993 8.16444C124.944 8.57187 124.848 9.94086 124.848 13.3796V13.4285Z" stroke="#E6E2DE" stroke-width="16" stroke-linejoin="round" mask="url(#path-4-outside-1_0_1)"/>
<path d="M115.33 18.7415C115.33 18.7415 115.474 17.8288 115.474 13.3796C115.474 8.84893 115.33 8.00146 115.33 8.00146L116.358 8.01776C117.146 8.00146 118.094 8.00146 119.026 8.14814C120.488 8.36001 121.709 9.0445 121.709 10.4787C121.709 12.0758 120.568 12.7114 119.138 12.9722C120.922 13.1351 122.69 13.7219 122.69 15.645C122.69 17.1769 121.661 18.0244 120.392 18.4155C119.106 18.8066 117.563 18.7252 116.503 18.7415H115.33ZM116.358 12.8907C118.254 12.907 120.745 12.9233 120.745 10.4624C120.745 8.16444 118.078 8.18074 116.358 8.19703V12.8907ZM116.487 18.5785C119.058 18.5785 121.613 18.2525 121.613 15.5635C121.613 13.0211 118.27 13.1514 116.358 13.1514V13.3796C116.358 16.7369 116.455 18.1385 116.487 18.5785Z" stroke="#E6E2DE" stroke-width="16" stroke-linejoin="round" mask="url(#path-4-outside-1_0_1)"/>
</svg>
