<svg width="242" height="240" viewBox="0 0 242 240" fill="none" xmlns="http://www.w3.org/2000/svg">
<rect y="80" width="242" height="160" rx="12" fill="#E6E2DE"/>
<path d="M77.1832 151.183C77.1832 153.311 75.6152 154.559 73.0872 154.559H68.5912V143.071H72.9112C75.3272 143.071 76.8152 144.159 76.8152 146.127C76.8152 147.183 76.2232 148.031 75.1992 148.559C76.4792 149.007 77.1832 149.919 77.1832 151.183ZM72.7192 144.991H70.7992V147.663H72.7192C73.9032 147.663 74.5112 147.151 74.5112 146.319C74.5112 145.503 73.9032 144.991 72.7192 144.991ZM72.8952 149.599H70.7992V152.639H72.8952C74.2072 152.639 74.8952 152.063 74.8952 151.087C74.8952 150.175 74.2072 149.599 72.8952 149.599ZM80.8226 150.415V154.559H78.5986V146.015H80.6466V147.663C81.2706 146.575 82.5986 145.919 83.9746 145.919V148.223C82.0866 148.079 80.8226 148.527 80.8226 150.415ZM92.8221 146.015L88.6621 157.647H86.2461L87.4621 154.463L84.1021 146.015H86.5021L88.6461 151.871L90.5981 146.015H92.8221ZM98.5072 154.559V153.503C97.9472 154.303 97.0992 154.719 95.9312 154.719C94.1552 154.719 92.9712 153.679 92.9712 152.079C92.9712 150.415 94.3152 149.519 96.8112 149.519C97.2912 149.519 97.7072 149.551 98.2352 149.615V149.103C98.2352 148.143 97.6912 147.583 96.7632 147.583C95.8032 147.583 95.2272 148.143 95.1472 149.103H93.1472C93.2752 147.135 94.6992 145.855 96.7632 145.855C99.0032 145.855 100.315 147.087 100.315 149.183V154.559H98.5072ZM95.0672 152.015C95.0672 152.735 95.5792 153.183 96.4112 153.183C97.5472 153.183 98.2352 152.559 98.2352 151.567V150.959C97.7072 150.879 97.3392 150.847 96.9552 150.847C95.6912 150.847 95.0672 151.247 95.0672 152.015ZM104.296 149.903V154.559H102.072V146.015H104.12V147.231C104.744 146.383 105.624 145.855 106.744 145.855C108.456 145.855 109.64 146.975 109.64 149.039V154.559H107.432V149.791C107.432 148.527 106.936 147.823 105.928 147.823C105.048 147.823 104.296 148.527 104.296 149.903ZM113.62 149.903V154.559H111.396V146.015H113.444V147.231C114.068 146.383 114.948 145.855 116.068 145.855C117.78 145.855 118.964 146.975 118.964 149.039V154.559H116.756V149.791C116.756 148.527 116.26 147.823 115.252 147.823C114.372 147.823 113.62 148.527 113.62 149.903ZM125.808 154.559V153.503C125.248 154.303 124.4 154.719 123.232 154.719C121.456 154.719 120.272 153.679 120.272 152.079C120.272 150.415 121.616 149.519 124.112 149.519C124.592 149.519 125.008 149.551 125.536 149.615V149.103C125.536 148.143 124.992 147.583 124.064 147.583C123.104 147.583 122.528 148.143 122.448 149.103H120.448C120.576 147.135 122 145.855 124.064 145.855C126.304 145.855 127.616 147.087 127.616 149.183V154.559H125.808ZM122.368 152.015C122.368 152.735 122.88 153.183 123.712 153.183C124.848 153.183 125.536 152.559 125.536 151.567V150.959C125.008 150.879 124.64 150.847 124.256 150.847C122.992 150.847 122.368 151.247 122.368 152.015ZM137.837 154.799C134.605 154.799 132.077 152.175 132.077 148.799C132.077 145.439 134.605 142.831 137.837 142.831C140.861 142.831 143.229 144.847 143.629 147.791H141.053C140.781 146.143 139.501 145.007 137.869 145.007C135.901 145.007 134.573 146.559 134.573 148.799C134.573 151.055 135.901 152.623 137.869 152.623C139.501 152.623 140.765 151.471 141.053 149.823H143.629C143.229 152.799 140.861 154.799 137.837 154.799ZM147.215 154.559H144.975V143.071H147.215V154.559ZM154.137 154.559V153.503C153.577 154.303 152.729 154.719 151.561 154.719C149.785 154.719 148.601 153.679 148.601 152.079C148.601 150.415 149.945 149.519 152.441 149.519C152.921 149.519 153.337 149.551 153.865 149.615V149.103C153.865 148.143 153.321 147.583 152.393 147.583C151.433 147.583 150.857 148.143 150.777 149.103H148.777C148.905 147.135 150.329 145.855 152.393 145.855C154.633 145.855 155.945 147.087 155.945 149.183V154.559H154.137ZM150.697 152.015C150.697 152.735 151.209 153.183 152.041 153.183C153.177 153.183 153.865 152.559 153.865 151.567V150.959C153.337 150.879 152.969 150.847 152.585 150.847C151.321 150.847 150.697 151.247 150.697 152.015ZM159.926 150.415V154.559H157.702V146.015H159.75V147.663C160.374 146.575 161.702 145.919 163.078 145.919V148.223C161.19 148.079 159.926 148.527 159.926 150.415ZM166.649 144.031C166.649 144.783 166.041 145.343 165.161 145.343C164.297 145.343 163.689 144.783 163.689 144.031C163.689 143.247 164.297 142.687 165.161 142.687C166.041 142.687 166.649 143.247 166.649 144.031ZM166.297 154.559H164.073V146.015H166.297V154.559ZM175.028 154.559H167.748V152.767L172.148 147.935H167.732V146.015H174.9V147.839L170.484 152.623H175.028V154.559Z" fill="#1A1A1A"/>
<path d="M68.7114 174.559H62.6214V164.507H64.1614V173.173H68.7114V174.559ZM72.7339 174.699C70.6339 174.699 69.0939 173.047 69.0939 170.849C69.0939 168.651 70.6339 166.999 72.7339 166.999C74.8339 166.999 76.3739 168.651 76.3739 170.849C76.3739 173.047 74.8339 174.699 72.7339 174.699ZM72.7339 173.453C73.9519 173.453 74.9179 172.473 74.9179 170.849C74.9179 169.225 73.9519 168.259 72.7339 168.259C71.5159 168.259 70.5639 169.225 70.5639 170.849C70.5639 172.473 71.5159 173.453 72.7339 173.453ZM80.3666 177.415C78.4206 177.415 77.1606 176.379 77.0766 174.699H78.4486C78.5326 175.735 79.2046 176.295 80.3526 176.295C81.6266 176.295 82.2986 175.609 82.2986 174.335V172.991C81.8786 173.887 81.0386 174.405 80.0306 174.405C78.1826 174.405 76.8666 172.879 76.8666 170.695C76.8666 168.483 78.1266 166.999 79.9886 166.999C81.0526 166.999 81.8926 167.517 82.3966 168.455V167.139H83.7126V174.307C83.7126 176.253 82.4666 177.415 80.3666 177.415ZM78.2946 170.695C78.2946 172.235 79.0506 173.173 80.2826 173.173C81.4866 173.173 82.2986 172.207 82.2986 170.737C82.2986 169.197 81.5006 168.217 80.2826 168.217C79.0646 168.217 78.2946 169.169 78.2946 170.695ZM88.4981 174.699C86.3981 174.699 84.8581 173.047 84.8581 170.849C84.8581 168.651 86.3981 166.999 88.4981 166.999C90.5981 166.999 92.1381 168.651 92.1381 170.849C92.1381 173.047 90.5981 174.699 88.4981 174.699ZM88.4981 173.453C89.7161 173.453 90.6821 172.473 90.6821 170.849C90.6821 169.225 89.7161 168.259 88.4981 168.259C87.2801 168.259 86.3281 169.225 86.3281 170.849C86.3281 172.473 87.2801 173.453 88.4981 173.453ZM99.2354 174.559H96.0574V164.507H99.2354C102.441 164.507 104.289 166.551 104.289 169.491C104.289 172.389 102.371 174.559 99.2354 174.559ZM97.5974 165.837V173.229H99.1654C101.475 173.229 102.721 171.801 102.721 169.491C102.721 167.223 101.489 165.837 99.1654 165.837H97.5974ZM108.561 174.699C106.419 174.699 104.977 173.145 104.977 170.807C104.977 168.609 106.475 166.999 108.519 166.999C110.731 166.999 112.201 168.791 111.949 171.199H106.419C106.531 172.711 107.287 173.593 108.533 173.593C109.583 173.593 110.311 173.019 110.549 172.053H111.949C111.585 173.705 110.311 174.699 108.561 174.699ZM108.491 168.063C107.357 168.063 106.587 168.875 106.433 170.261H110.451C110.381 168.889 109.639 168.063 108.491 168.063ZM119.052 172.347C119.052 173.803 117.918 174.699 115.944 174.699C113.984 174.699 112.822 173.733 112.682 172.137H114.04C114.096 173.061 114.838 173.635 115.972 173.635C116.966 173.635 117.624 173.285 117.624 172.585C117.624 171.969 117.246 171.703 116.322 171.521L115.118 171.297C113.746 171.031 112.976 170.331 112.976 169.211C112.976 167.909 114.11 166.999 115.832 166.999C117.61 166.999 118.814 167.951 118.94 169.477H117.582C117.498 168.581 116.84 168.063 115.846 168.063C114.95 168.063 114.348 168.441 114.348 169.085C114.348 169.687 114.726 169.967 115.622 170.135L116.882 170.373C118.352 170.639 119.052 171.283 119.052 172.347ZM122.038 165.417C122.038 165.949 121.618 166.355 121.016 166.355C120.414 166.355 119.98 165.949 119.98 165.417C119.98 164.871 120.414 164.479 121.016 164.479C121.618 164.479 122.038 164.871 122.038 165.417ZM121.73 174.559H120.316V167.139H121.73V174.559ZM126.381 177.415C124.435 177.415 123.175 176.379 123.091 174.699H124.463C124.547 175.735 125.219 176.295 126.367 176.295C127.641 176.295 128.313 175.609 128.313 174.335V172.991C127.893 173.887 127.053 174.405 126.045 174.405C124.197 174.405 122.881 172.879 122.881 170.695C122.881 168.483 124.141 166.999 126.003 166.999C127.067 166.999 127.907 167.517 128.411 168.455V167.139H129.727V174.307C129.727 176.253 128.481 177.415 126.381 177.415ZM124.309 170.695C124.309 172.235 125.065 173.173 126.297 173.173C127.501 173.173 128.313 172.207 128.313 170.737C128.313 169.197 127.515 168.217 126.297 168.217C125.079 168.217 124.309 169.169 124.309 170.695ZM132.819 170.373V174.559H131.405V167.139H132.721V168.371C133.225 167.545 134.065 166.999 135.087 166.999C136.613 166.999 137.621 167.979 137.621 169.757V174.559H136.207V170.233C136.207 168.959 135.647 168.245 134.597 168.245C133.631 168.245 132.819 169.057 132.819 170.373ZM141.136 173.957C141.136 175.287 140.086 176.323 138.546 176.351V175.553C139.456 175.525 140.072 175.035 140.156 174.349C140.03 174.391 139.946 174.405 139.848 174.405C139.316 174.405 138.924 173.971 138.924 173.453C138.924 172.851 139.372 172.459 139.946 172.459C140.716 172.459 141.136 173.019 141.136 173.957ZM152.445 171.675C152.445 173.509 151.101 174.559 149.015 174.559H145.333V164.507H148.819C150.849 164.507 152.067 165.445 152.067 167.139C152.067 168.091 151.493 168.903 150.527 169.323C151.773 169.673 152.445 170.527 152.445 171.675ZM148.721 165.739H146.747V168.763H148.721C149.939 168.763 150.597 168.189 150.597 167.251C150.597 166.313 149.939 165.739 148.721 165.739ZM148.917 169.995H146.747V173.327H148.917C150.233 173.327 150.975 172.697 150.975 171.633C150.975 170.611 150.233 169.995 148.917 169.995ZM155.242 170.765V174.559H153.828V167.139H155.144V168.707C155.662 167.685 156.782 167.041 158 167.041V168.511C156.404 168.427 155.242 169.127 155.242 170.765ZM163.333 174.559V173.411C162.871 174.237 162.045 174.699 160.953 174.699C159.413 174.699 158.405 173.817 158.405 172.459C158.405 171.003 159.567 170.247 161.779 170.247C162.213 170.247 162.563 170.261 163.165 170.331V169.785C163.165 168.721 162.591 168.119 161.611 168.119C160.575 168.119 159.945 168.735 159.903 169.771H158.615C158.685 168.105 159.875 166.999 161.611 166.999C163.445 166.999 164.509 168.035 164.509 169.799V174.559H163.333ZM159.749 172.417C159.749 173.187 160.323 173.691 161.233 173.691C162.423 173.691 163.165 172.949 163.165 171.815V171.213C162.619 171.143 162.227 171.129 161.863 171.129C160.449 171.129 159.749 171.549 159.749 172.417ZM167.533 170.373V174.559H166.119V167.139H167.435V168.371C167.939 167.545 168.779 166.999 169.801 166.999C171.327 166.999 172.335 167.979 172.335 169.757V174.559H170.921V170.233C170.921 168.959 170.361 168.245 169.311 168.245C168.345 168.245 167.533 169.057 167.533 170.373ZM173.401 170.849C173.401 168.595 174.689 166.999 176.691 166.999C177.685 166.999 178.553 167.503 179.071 168.413V164.507H180.485V174.559H179.169V173.229C178.637 174.167 177.741 174.699 176.691 174.699C174.689 174.699 173.401 173.075 173.401 170.849ZM174.871 170.849C174.871 172.501 175.739 173.439 176.971 173.439C178.175 173.439 179.071 172.459 179.071 170.821C179.071 169.155 178.147 168.245 176.971 168.245C175.739 168.245 174.871 169.169 174.871 170.849ZM58.095 191.559H54.917V181.507H58.095C61.301 181.507 63.149 183.551 63.149 186.491C63.149 189.389 61.231 191.559 58.095 191.559ZM56.457 182.837V190.229H58.025C60.335 190.229 61.581 188.801 61.581 186.491C61.581 184.223 60.349 182.837 58.025 182.837H56.457ZM67.4208 191.699C65.2788 191.699 63.8368 190.145 63.8368 187.807C63.8368 185.609 65.3348 183.999 67.3788 183.999C69.5908 183.999 71.0608 185.791 70.8088 188.199H65.2788C65.3908 189.711 66.1468 190.593 67.3928 190.593C68.4428 190.593 69.1708 190.019 69.4088 189.053H70.8088C70.4448 190.705 69.1708 191.699 67.4208 191.699ZM67.3508 185.063C66.2168 185.063 65.4468 185.875 65.2928 187.261H69.3108C69.2408 185.889 68.4988 185.063 67.3508 185.063ZM74.8214 191.713C72.7914 191.713 71.3634 190.117 71.3634 187.849C71.3634 185.609 72.8194 183.999 74.8214 183.999C76.6554 183.999 77.9854 185.217 78.2514 187.149H76.7674C76.6134 185.959 75.8714 185.245 74.8354 185.245C73.6174 185.245 72.8194 186.281 72.8194 187.849C72.8194 189.431 73.6174 190.453 74.8354 190.453C75.8854 190.453 76.6134 189.753 76.7814 188.549H78.2514C77.9994 190.509 76.6834 191.713 74.8214 191.713ZM80.8087 191.559H79.3947V181.507H80.8087V187.457L83.9867 184.139H85.6527L82.2227 187.737L85.9747 191.559H84.1547L80.8087 188.045V191.559ZM88.6069 190.957C88.6069 192.287 87.5569 193.323 86.0169 193.351V192.553C86.9269 192.525 87.5429 192.035 87.6269 191.349C87.5009 191.391 87.4169 191.405 87.3189 191.405C86.7869 191.405 86.3949 190.971 86.3949 190.453C86.3949 189.851 86.8429 189.459 87.4169 189.459C88.1869 189.459 88.6069 190.019 88.6069 190.957ZM100.461 191.559L98.3334 183.677L96.1914 191.559H94.6094L91.9914 181.507H93.5034L95.4354 189.249L97.5494 181.507H99.1454L101.231 189.263L103.163 181.507H104.675L102.057 191.559H100.461ZM108.083 191.699C105.941 191.699 104.499 190.145 104.499 187.807C104.499 185.609 105.997 183.999 108.041 183.999C110.253 183.999 111.723 185.791 111.471 188.199H105.941C106.053 189.711 106.809 190.593 108.055 190.593C109.105 190.593 109.833 190.019 110.071 189.053H111.471C111.107 190.705 109.833 191.699 108.083 191.699ZM108.013 185.063C106.879 185.063 106.109 185.875 105.955 187.261H109.973C109.903 185.889 109.161 185.063 108.013 185.063ZM119.778 187.849C119.778 190.075 118.49 191.699 116.488 191.699C115.438 191.699 114.542 191.167 114.01 190.229V191.559H112.694V181.507H114.108V185.413C114.626 184.503 115.48 183.999 116.488 183.999C118.476 183.999 119.778 185.595 119.778 187.849ZM118.308 187.849C118.308 186.169 117.426 185.245 116.208 185.245C115.032 185.245 114.108 186.155 114.108 187.821C114.108 189.459 115.004 190.439 116.208 190.439C117.426 190.439 118.308 189.501 118.308 187.849ZM126.812 189.347C126.812 190.803 125.678 191.699 123.704 191.699C121.744 191.699 120.582 190.733 120.442 189.137H121.8C121.856 190.061 122.598 190.635 123.732 190.635C124.726 190.635 125.384 190.285 125.384 189.585C125.384 188.969 125.006 188.703 124.082 188.521L122.878 188.297C121.506 188.031 120.736 187.331 120.736 186.211C120.736 184.909 121.87 183.999 123.592 183.999C125.37 183.999 126.574 184.951 126.7 186.477H125.342C125.258 185.581 124.6 185.063 123.606 185.063C122.71 185.063 122.108 185.441 122.108 186.085C122.108 186.687 122.486 186.967 123.382 187.135L124.642 187.373C126.112 187.639 126.812 188.283 126.812 189.347ZM129.797 182.417C129.797 182.949 129.377 183.355 128.775 183.355C128.173 183.355 127.739 182.949 127.739 182.417C127.739 181.871 128.173 181.479 128.775 181.479C129.377 181.479 129.797 181.871 129.797 182.417ZM129.489 191.559H128.075V184.139H129.489V191.559ZM135.358 190.187V191.433C134.924 191.629 134.546 191.699 134.098 191.699C132.726 191.699 131.774 190.957 131.774 189.319V185.343H130.136V184.139H131.774V181.941H133.188V184.139H135.428V185.343H133.188V188.997C133.188 190.019 133.678 190.383 134.434 190.383C134.77 190.383 135.064 190.327 135.358 190.187ZM139.345 191.699C137.203 191.699 135.761 190.145 135.761 187.807C135.761 185.609 137.259 183.999 139.303 183.999C141.515 183.999 142.985 185.791 142.733 188.199H137.203C137.315 189.711 138.071 190.593 139.317 190.593C140.367 190.593 141.095 190.019 141.333 189.053H142.733C142.369 190.705 141.095 191.699 139.345 191.699ZM139.275 185.063C138.141 185.063 137.371 185.875 137.217 187.261H141.235C141.165 185.889 140.423 185.063 139.275 185.063ZM149.892 191.559H146.714V181.507H149.892C153.098 181.507 154.946 183.551 154.946 186.491C154.946 189.389 153.028 191.559 149.892 191.559ZM148.254 182.837V190.229H149.822C152.132 190.229 153.378 188.801 153.378 186.491C153.378 184.223 152.146 182.837 149.822 182.837H148.254ZM159.218 191.699C157.076 191.699 155.634 190.145 155.634 187.807C155.634 185.609 157.132 183.999 159.176 183.999C161.388 183.999 162.858 185.791 162.606 188.199H157.076C157.188 189.711 157.944 190.593 159.19 190.593C160.24 190.593 160.968 190.019 161.206 189.053H162.606C162.242 190.705 160.968 191.699 159.218 191.699ZM159.148 185.063C158.014 185.063 157.244 185.875 157.09 187.261H161.108C161.038 185.889 160.296 185.063 159.148 185.063ZM169.709 189.347C169.709 190.803 168.575 191.699 166.601 191.699C164.641 191.699 163.479 190.733 163.339 189.137H164.697C164.753 190.061 165.495 190.635 166.629 190.635C167.623 190.635 168.281 190.285 168.281 189.585C168.281 188.969 167.903 188.703 166.979 188.521L165.775 188.297C164.403 188.031 163.633 187.331 163.633 186.211C163.633 184.909 164.767 183.999 166.489 183.999C168.267 183.999 169.471 184.951 169.597 186.477H168.239C168.155 185.581 167.497 185.063 166.503 185.063C165.607 185.063 165.005 185.441 165.005 186.085C165.005 186.687 165.383 186.967 166.279 187.135L167.539 187.373C169.009 187.639 169.709 188.283 169.709 189.347ZM172.695 182.417C172.695 182.949 172.275 183.355 171.673 183.355C171.071 183.355 170.637 182.949 170.637 182.417C170.637 181.871 171.071 181.479 171.673 181.479C172.275 181.479 172.695 181.871 172.695 182.417ZM172.387 191.559H170.973V184.139H172.387V191.559ZM177.038 194.415C175.092 194.415 173.832 193.379 173.748 191.699H175.12C175.204 192.735 175.876 193.295 177.024 193.295C178.298 193.295 178.97 192.609 178.97 191.335V189.991C178.55 190.887 177.71 191.405 176.702 191.405C174.854 191.405 173.538 189.879 173.538 187.695C173.538 185.483 174.798 183.999 176.66 183.999C177.724 183.999 178.564 184.517 179.068 185.455V184.139H180.384V191.307C180.384 193.253 179.138 194.415 177.038 194.415ZM174.966 187.695C174.966 189.235 175.722 190.173 176.954 190.173C178.158 190.173 178.97 189.207 178.97 187.737C178.97 186.197 178.172 185.217 176.954 185.217C175.736 185.217 174.966 186.169 174.966 187.695ZM183.475 187.373V191.559H182.061V184.139H183.377V185.371C183.881 184.545 184.721 183.999 185.743 183.999C187.269 183.999 188.277 184.979 188.277 186.757V191.559H186.863V187.233C186.863 185.959 186.303 185.245 185.253 185.245C184.287 185.245 183.475 186.057 183.475 187.373Z" fill="#1A1A1A"/>
<mask id="path-4-outside-1_1195_480" maskUnits="userSpaceOnUse" x="61" y="59" width="121" height="42" fill="black">
<rect fill="white" x="61" y="59" width="121" height="42"/>
<path d="M88.5947 86.8886C88.5947 90.2448 85.895 92.9828 82.5857 92.9828H69V92.7178C70.0451 92.7178 70.8869 91.8641 70.8869 90.8042V70.2254C70.8869 69.1656 70.0451 68.3118 69 68.3118V68.0174H81.7438C84.908 68.0174 87.5206 70.6376 87.5206 73.8466V73.9055C87.5206 77.2911 85.4886 78.9987 83.0211 79.5875C82.3534 79.7347 81.6567 79.823 80.96 79.823C80.0021 79.823 79.2473 79.5286 78.6377 79.1164C77.8249 78.557 77.3024 77.6444 77.0701 76.6729C77.0411 76.5257 77.0121 76.349 76.983 76.1724C76.954 75.9663 76.954 75.7602 76.954 75.5541C76.954 75.1714 76.983 74.7887 77.0992 74.3765C77.0701 74.406 77.0411 74.4943 76.983 74.6709C76.7798 75.2009 76.6927 75.7308 76.6927 76.2607C76.6927 78.1743 77.9991 79.9702 79.973 80.4707C80.5536 80.6179 81.2503 80.7356 82.0631 80.7945C82.0631 80.7945 88.5947 81.3833 88.5947 86.8886ZM84.0952 86.8886C84.0952 84.2979 82.6437 82.4432 80.1472 81.4128C79.3054 81.0889 78.4345 80.6473 77.7959 79.9996C77.0121 79.1753 76.3154 77.9977 76.3154 76.4668C76.3154 76.1135 76.3444 75.7602 76.4315 75.3775C76.5766 74.6709 76.954 73.7877 77.6217 73.0812C77.8829 72.8456 78.0281 72.7279 78.2894 72.5218L78.4926 72.7279C78.3764 72.8456 77.5346 73.67 77.3314 74.8181C77.3024 75.0537 77.2733 75.2597 77.2733 75.4658C77.2733 77.35 78.4055 78.557 79.915 78.557C82.7018 78.557 83.0211 75.3775 83.0211 73.5816C83.0211 70.1666 81.0181 68.3118 78.5216 68.3118H77.2153C76.1992 68.3118 75.3864 69.1362 75.3864 70.1666V90.8631C75.3864 91.8641 76.1992 92.7178 77.2153 92.7178H78.3474C79.944 92.7178 81.3664 92.0407 82.4115 91.0103C83.4566 89.9504 84.0952 88.4784 84.0952 86.8886Z"/>
<path d="M101.488 68C102.564 68 103.645 68.1918 104.73 68.5753C105.471 68.8426 105.974 69.0228 106.237 69.1158C106.511 69.2087 106.897 69.3075 107.394 69.4121C107.902 69.5051 108.455 69.5632 109.054 69.5865L107.288 74.8863C106.689 74.6074 106.136 74.2703 105.629 73.8752C105.121 73.48 104.715 73.1139 104.411 72.7768C104.106 72.4282 103.741 72.0563 103.315 71.6611C102.888 71.2543 102.467 70.9172 102.051 70.6499C99.9302 69.2785 98.0274 69.1448 96.3427 70.249C95.196 70.9928 94.3689 72.1434 93.8615 73.7008C93.3642 75.2466 93.2323 76.9958 93.4657 78.9484C93.7092 80.8894 94.2978 82.7896 95.2315 84.6492C95.7795 85.7417 96.4696 86.718 97.3018 87.5781C98.1339 88.4382 99.0371 89.1239 100.011 89.6353C100.996 90.1351 102 90.4721 103.025 90.6464C104.05 90.8208 105.24 90.7783 106.265 90.4993C107.29 90.2088 108.236 89.8821 109.068 89.1615L109.206 89.3389C108.221 90.5012 107.059 91.4019 105.72 92.0411C104.39 92.6804 102.98 93 101.488 93C100.006 93 98.5906 92.6746 97.2409 92.0237C95.9013 91.3612 94.7444 90.4721 93.7701 89.3563C92.7959 88.2406 92.0195 86.9098 91.4411 85.364C90.8626 83.8182 90.5734 82.1969 90.5734 80.5C90.5734 78.8147 90.8626 77.1992 91.4411 75.6534C92.0195 74.1076 92.7959 72.7768 93.7701 71.6611C94.7444 70.5453 95.9064 69.6562 97.2561 68.9937C98.6058 68.3312 100.016 68 101.488 68Z"/>
<path d="M153.602 92.9999V92.8206L159.531 82.4555C155.45 82.5043 153.698 82.7977 153.698 82.7977V82.2599H160.576V82.4555L154.791 92.8043C158.872 92.7717 160.672 92.4621 160.672 92.4621V92.9999H153.602Z"/>
<path d="M151.33 92.9999C151.33 92.9999 151.474 91.8591 151.474 87.638C151.474 83.3192 151.33 82.2599 151.33 82.2599H152.471C152.471 82.2599 152.326 83.3192 152.326 87.638C152.326 91.8917 152.471 92.9999 152.471 92.9999H151.33Z"/>
<path d="M143.201 92.9999C143.201 92.9999 143.345 91.8591 143.345 87.638C143.345 83.3192 143.201 82.2599 143.201 82.2599H144.502C146.415 82.2599 149.725 82.2599 149.725 84.9001C149.725 86.3668 148.777 87.1654 147.62 87.5402C147.138 87.7032 146.624 87.7684 146.109 87.8173C148.6 88.404 149.42 90.2293 149.854 91.9568C149.998 92.5435 150.047 92.9836 150.047 92.9836H148.938C148.938 92.9836 148.922 92.5924 148.825 92.0546C148.488 90.1152 147.829 88.2736 145.451 87.8825L145.258 87.8662L145.145 87.8499H144.229C144.245 91.9242 144.39 92.9999 144.39 92.9999H143.201ZM144.229 87.6869C146.511 87.6706 148.745 87.3284 148.745 84.8023C148.745 82.5532 146.238 82.4229 144.374 82.4229C144.326 82.8303 144.229 84.1993 144.229 87.638V87.6869Z"/>
<path d="M132.824 92.9999C132.824 92.9999 133.322 92.2502 134.961 87.7684C136.809 82.7488 136.889 82.2599 136.889 82.2599H137.998C137.998 82.2599 138.207 83.254 139.878 87.638C141.566 92.0546 142.08 92.9999 142.08 92.9999H140.827C140.827 92.9999 140.698 92.4458 139.589 89.4633C138.93 89.4144 138.48 89.1374 138.046 88.9092C137.484 88.6322 136.922 88.3388 135.925 88.3388C135.652 88.3388 135.09 88.4529 135.025 88.4692C133.659 92.1687 133.579 92.9999 133.579 92.9999H132.824ZM139.493 89.2026L137.13 82.9607L135.122 88.1921C135.266 88.1595 135.716 88.0781 135.925 88.0781C136.986 88.0781 137.613 88.3551 138.175 88.6648C138.561 88.8929 138.962 89.1374 139.493 89.2026Z"/>
<path d="M125.813 92.9999C125.813 92.9999 125.957 91.8591 125.957 87.638C125.957 83.3192 125.813 82.2599 125.813 82.2599H126.841V87.638C126.841 90.9464 126.938 92.348 126.97 92.8043C130.875 92.7554 131.855 92.4621 131.855 92.4621V92.9999H125.813Z"/>
<path d="M120.231 92.9999C117.435 92.9999 115.169 90.5879 115.169 87.638C115.169 84.6719 117.435 82.2599 120.231 82.2599C121.806 82.2599 123.204 83.0259 124.136 84.1993H123.107C122.063 82.9281 120.536 82.2599 119.074 82.6184C116.824 83.1562 115.619 85.829 116.262 88.5996C116.904 91.3701 119.154 93.1791 121.388 92.6413C122.625 92.348 123.557 91.419 124.056 90.1804H124.682C123.831 91.8591 122.159 92.9999 120.231 92.9999Z"/>
<path d="M164.744 78.74C164.744 78.74 165.242 77.9903 166.881 73.5085C168.729 68.4889 168.809 68 168.809 68H169.918C169.918 68 170.127 68.9941 171.798 73.3781C173.486 77.7947 174 78.74 174 78.74H172.747C172.747 78.74 172.618 78.1859 171.509 75.2035C170.85 75.1546 170.4 74.8775 169.966 74.6493C169.404 74.3723 168.842 74.0789 167.845 74.0789C167.572 74.0789 167.01 74.193 166.945 74.2093C165.579 77.9088 165.499 78.74 165.499 78.74H164.744ZM171.413 74.9427L169.05 68.7008L167.042 73.9323C167.186 73.8997 167.636 73.8182 167.845 73.8182C168.906 73.8182 169.533 74.0952 170.095 74.4049C170.481 74.633 170.882 74.8775 171.413 74.9427Z"/>
<path d="M156.987 78.74C156.987 78.74 157.148 77.6318 157.148 73.3781V69.0267L156.489 68H157.55L163.335 77.0777V73.3781C163.335 69.1082 163.19 68 163.19 68H163.785C163.785 68 163.64 69.1245 163.64 73.3781V78.74H163.335L157.437 69.4994V73.3781C157.437 77.6155 157.582 78.74 157.582 78.74H156.987Z"/>
<path d="M148.733 78.74C148.733 78.74 148.893 77.6318 148.893 73.3781V69.0267L148.235 68H149.295L155.08 77.0777V73.3781C155.08 69.1082 154.936 68 154.936 68H155.53C155.53 68 155.386 69.1245 155.386 73.3781V78.74H155.08L149.183 69.4994V73.3781C149.183 77.6155 149.327 78.74 149.327 78.74H148.733Z"/>
<path d="M138.018 78.74C138.018 78.74 138.516 77.9903 140.155 73.5085C142.004 68.4889 142.084 68 142.084 68H143.193C143.193 68 143.402 68.9941 145.073 73.3781C146.76 77.7947 147.274 78.74 147.274 78.74H146.021C146.021 78.74 145.892 78.1859 144.784 75.2035C144.125 75.1546 143.675 74.8775 143.241 74.6493C142.678 74.3723 142.116 74.0789 141.12 74.0789C140.846 74.0789 140.284 74.193 140.22 74.2093C138.854 77.9088 138.773 78.74 138.773 78.74H138.018ZM144.687 74.9427L142.325 68.7008L140.316 73.9323C140.461 73.8997 140.911 73.8182 141.12 73.8182C142.18 73.8182 142.807 74.0952 143.369 74.4049C143.755 74.633 144.157 74.8775 144.687 74.9427Z"/>
<path d="M134.311 78.74C134.311 78.74 134.456 77.6481 134.456 73.6552V73.4922L134.359 73.313C132.125 69.3527 131.145 68 131.145 68H132.495C132.495 68 133.057 69.1897 134.456 71.7484L134.504 71.8299L135.114 72.9544L135.355 72.5796C137.525 69.043 138.007 68 138.007 68H138.666C138.666 68 137.557 69.5483 135.355 73.1337V73.3781C135.355 77.6318 135.5 78.74 135.5 78.74H134.311Z"/>
<path d="M123.82 78.74C123.82 78.74 123.964 77.5992 123.964 73.3781C123.964 69.0593 123.82 68 123.82 68H125.121C127.034 68 130.344 68 130.344 70.6402C130.344 72.1069 129.396 72.9055 128.239 73.2804C127.757 73.4433 127.242 73.5085 126.728 73.5574C129.219 74.1441 130.039 75.9694 130.473 77.697C130.617 78.2837 130.665 78.7237 130.665 78.7237H129.557C129.557 78.7237 129.54 78.3326 129.444 77.7947C129.107 75.8554 128.448 74.0137 126.069 73.6226L125.877 73.6063L125.764 73.59H124.848C124.864 77.6644 125.009 78.74 125.009 78.74H123.82ZM124.848 73.427C127.13 73.4107 129.364 73.0685 129.364 70.5424C129.364 68.2934 126.857 68.163 124.993 68.163C124.944 68.5704 124.848 69.9394 124.848 73.3781V73.427Z"/>
<path d="M115.33 78.74C115.33 78.74 115.474 77.8273 115.474 73.3781C115.474 68.8475 115.33 68 115.33 68L116.358 68.0163C117.146 68 118.094 68 119.026 68.1467C120.488 68.3585 121.709 69.043 121.709 70.4772C121.709 72.0744 120.568 72.71 119.138 72.9707C120.922 73.1337 122.69 73.7204 122.69 75.6435C122.69 77.1754 121.661 78.0229 120.392 78.414C119.106 78.8052 117.563 78.7237 116.503 78.74H115.33ZM116.358 72.8892C118.254 72.9055 120.745 72.9218 120.745 70.4609C120.745 68.163 118.078 68.1793 116.358 68.1956V72.8892ZM116.487 78.577C119.058 78.577 121.613 78.2511 121.613 75.562C121.613 73.0196 118.27 73.15 116.358 73.15V73.3781C116.358 76.7354 116.455 78.137 116.487 78.577Z"/>
</mask>
<path d="M88.5947 86.8886C88.5947 90.2448 85.895 92.9828 82.5857 92.9828H69V92.7178C70.0451 92.7178 70.8869 91.8641 70.8869 90.8042V70.2254C70.8869 69.1656 70.0451 68.3118 69 68.3118V68.0174H81.7438C84.908 68.0174 87.5206 70.6376 87.5206 73.8466V73.9055C87.5206 77.2911 85.4886 78.9987 83.0211 79.5875C82.3534 79.7347 81.6567 79.823 80.96 79.823C80.0021 79.823 79.2473 79.5286 78.6377 79.1164C77.8249 78.557 77.3024 77.6444 77.0701 76.6729C77.0411 76.5257 77.0121 76.349 76.983 76.1724C76.954 75.9663 76.954 75.7602 76.954 75.5541C76.954 75.1714 76.983 74.7887 77.0992 74.3765C77.0701 74.406 77.0411 74.4943 76.983 74.6709C76.7798 75.2009 76.6927 75.7308 76.6927 76.2607C76.6927 78.1743 77.9991 79.9702 79.973 80.4707C80.5536 80.6179 81.2503 80.7356 82.0631 80.7945C82.0631 80.7945 88.5947 81.3833 88.5947 86.8886ZM84.0952 86.8886C84.0952 84.2979 82.6437 82.4432 80.1472 81.4128C79.3054 81.0889 78.4345 80.6473 77.7959 79.9996C77.0121 79.1753 76.3154 77.9977 76.3154 76.4668C76.3154 76.1135 76.3444 75.7602 76.4315 75.3775C76.5766 74.6709 76.954 73.7877 77.6217 73.0812C77.8829 72.8456 78.0281 72.7279 78.2894 72.5218L78.4926 72.7279C78.3764 72.8456 77.5346 73.67 77.3314 74.8181C77.3024 75.0537 77.2733 75.2597 77.2733 75.4658C77.2733 77.35 78.4055 78.557 79.915 78.557C82.7018 78.557 83.0211 75.3775 83.0211 73.5816C83.0211 70.1666 81.0181 68.3118 78.5216 68.3118H77.2153C76.1992 68.3118 75.3864 69.1362 75.3864 70.1666V90.8631C75.3864 91.8641 76.1992 92.7178 77.2153 92.7178H78.3474C79.944 92.7178 81.3664 92.0407 82.4115 91.0103C83.4566 89.9504 84.0952 88.4784 84.0952 86.8886Z" fill="#1A1A1A"/>
<path d="M101.488 68C102.564 68 103.645 68.1918 104.73 68.5753C105.471 68.8426 105.974 69.0228 106.237 69.1158C106.511 69.2087 106.897 69.3075 107.394 69.4121C107.902 69.5051 108.455 69.5632 109.054 69.5865L107.288 74.8863C106.689 74.6074 106.136 74.2703 105.629 73.8752C105.121 73.48 104.715 73.1139 104.411 72.7768C104.106 72.4282 103.741 72.0563 103.315 71.6611C102.888 71.2543 102.467 70.9172 102.051 70.6499C99.9302 69.2785 98.0274 69.1448 96.3427 70.249C95.196 70.9928 94.3689 72.1434 93.8615 73.7008C93.3642 75.2466 93.2323 76.9958 93.4657 78.9484C93.7092 80.8894 94.2978 82.7896 95.2315 84.6492C95.7795 85.7417 96.4696 86.718 97.3018 87.5781C98.1339 88.4382 99.0371 89.1239 100.011 89.6353C100.996 90.1351 102 90.4721 103.025 90.6464C104.05 90.8208 105.24 90.7783 106.265 90.4993C107.29 90.2088 108.236 89.8821 109.068 89.1615L109.206 89.3389C108.221 90.5012 107.059 91.4019 105.72 92.0411C104.39 92.6804 102.98 93 101.488 93C100.006 93 98.5906 92.6746 97.2409 92.0237C95.9013 91.3612 94.7444 90.4721 93.7701 89.3563C92.7959 88.2406 92.0195 86.9098 91.4411 85.364C90.8626 83.8182 90.5734 82.1969 90.5734 80.5C90.5734 78.8147 90.8626 77.1992 91.4411 75.6534C92.0195 74.1076 92.7959 72.7768 93.7701 71.6611C94.7444 70.5453 95.9064 69.6562 97.2561 68.9937C98.6058 68.3312 100.016 68 101.488 68Z" fill="#1A1A1A"/>
<path d="M153.602 92.9999V92.8206L159.531 82.4555C155.45 82.5043 153.698 82.7977 153.698 82.7977V82.2599H160.576V82.4555L154.791 92.8043C158.872 92.7717 160.672 92.4621 160.672 92.4621V92.9999H153.602Z" fill="#1A1A1A"/>
<path d="M151.33 92.9999C151.33 92.9999 151.474 91.8591 151.474 87.638C151.474 83.3192 151.33 82.2599 151.33 82.2599H152.471C152.471 82.2599 152.326 83.3192 152.326 87.638C152.326 91.8917 152.471 92.9999 152.471 92.9999H151.33Z" fill="#1A1A1A"/>
<path d="M143.201 92.9999C143.201 92.9999 143.345 91.8591 143.345 87.638C143.345 83.3192 143.201 82.2599 143.201 82.2599H144.502C146.415 82.2599 149.725 82.2599 149.725 84.9001C149.725 86.3668 148.777 87.1654 147.62 87.5402C147.138 87.7032 146.624 87.7684 146.109 87.8173C148.6 88.404 149.42 90.2293 149.854 91.9568C149.998 92.5435 150.047 92.9836 150.047 92.9836H148.938C148.938 92.9836 148.922 92.5924 148.825 92.0546C148.488 90.1152 147.829 88.2736 145.451 87.8825L145.258 87.8662L145.145 87.8499H144.229C144.245 91.9242 144.39 92.9999 144.39 92.9999H143.201ZM144.229 87.6869C146.511 87.6706 148.745 87.3284 148.745 84.8023C148.745 82.5532 146.238 82.4229 144.374 82.4229C144.326 82.8303 144.229 84.1993 144.229 87.638V87.6869Z" fill="#1A1A1A"/>
<path d="M132.824 92.9999C132.824 92.9999 133.322 92.2502 134.961 87.7684C136.809 82.7488 136.889 82.2599 136.889 82.2599H137.998C137.998 82.2599 138.207 83.254 139.878 87.638C141.566 92.0546 142.08 92.9999 142.08 92.9999H140.827C140.827 92.9999 140.698 92.4458 139.589 89.4633C138.93 89.4144 138.48 89.1374 138.046 88.9092C137.484 88.6322 136.922 88.3388 135.925 88.3388C135.652 88.3388 135.09 88.4529 135.025 88.4692C133.659 92.1687 133.579 92.9999 133.579 92.9999H132.824ZM139.493 89.2026L137.13 82.9607L135.122 88.1921C135.266 88.1595 135.716 88.0781 135.925 88.0781C136.986 88.0781 137.613 88.3551 138.175 88.6648C138.561 88.8929 138.962 89.1374 139.493 89.2026Z" fill="#1A1A1A"/>
<path d="M125.813 92.9999C125.813 92.9999 125.957 91.8591 125.957 87.638C125.957 83.3192 125.813 82.2599 125.813 82.2599H126.841V87.638C126.841 90.9464 126.938 92.348 126.97 92.8043C130.875 92.7554 131.855 92.4621 131.855 92.4621V92.9999H125.813Z" fill="#1A1A1A"/>
<path d="M120.231 92.9999C117.435 92.9999 115.169 90.5879 115.169 87.638C115.169 84.6719 117.435 82.2599 120.231 82.2599C121.806 82.2599 123.204 83.0259 124.136 84.1993H123.107C122.063 82.9281 120.536 82.2599 119.074 82.6184C116.824 83.1562 115.619 85.829 116.262 88.5996C116.904 91.3701 119.154 93.1791 121.388 92.6413C122.625 92.348 123.557 91.419 124.056 90.1804H124.682C123.831 91.8591 122.159 92.9999 120.231 92.9999Z" fill="#1A1A1A"/>
<path d="M164.744 78.74C164.744 78.74 165.242 77.9903 166.881 73.5085C168.729 68.4889 168.809 68 168.809 68H169.918C169.918 68 170.127 68.9941 171.798 73.3781C173.486 77.7947 174 78.74 174 78.74H172.747C172.747 78.74 172.618 78.1859 171.509 75.2035C170.85 75.1546 170.4 74.8775 169.966 74.6493C169.404 74.3723 168.842 74.0789 167.845 74.0789C167.572 74.0789 167.01 74.193 166.945 74.2093C165.579 77.9088 165.499 78.74 165.499 78.74H164.744ZM171.413 74.9427L169.05 68.7008L167.042 73.9323C167.186 73.8997 167.636 73.8182 167.845 73.8182C168.906 73.8182 169.533 74.0952 170.095 74.4049C170.481 74.633 170.882 74.8775 171.413 74.9427Z" fill="#1A1A1A"/>
<path d="M156.987 78.74C156.987 78.74 157.148 77.6318 157.148 73.3781V69.0267L156.489 68H157.55L163.335 77.0777V73.3781C163.335 69.1082 163.19 68 163.19 68H163.785C163.785 68 163.64 69.1245 163.64 73.3781V78.74H163.335L157.437 69.4994V73.3781C157.437 77.6155 157.582 78.74 157.582 78.74H156.987Z" fill="#1A1A1A"/>
<path d="M148.733 78.74C148.733 78.74 148.893 77.6318 148.893 73.3781V69.0267L148.235 68H149.295L155.08 77.0777V73.3781C155.08 69.1082 154.936 68 154.936 68H155.53C155.53 68 155.386 69.1245 155.386 73.3781V78.74H155.08L149.183 69.4994V73.3781C149.183 77.6155 149.327 78.74 149.327 78.74H148.733Z" fill="#1A1A1A"/>
<path d="M138.018 78.74C138.018 78.74 138.516 77.9903 140.155 73.5085C142.004 68.4889 142.084 68 142.084 68H143.193C143.193 68 143.402 68.9941 145.073 73.3781C146.76 77.7947 147.274 78.74 147.274 78.74H146.021C146.021 78.74 145.892 78.1859 144.784 75.2035C144.125 75.1546 143.675 74.8775 143.241 74.6493C142.678 74.3723 142.116 74.0789 141.12 74.0789C140.846 74.0789 140.284 74.193 140.22 74.2093C138.854 77.9088 138.773 78.74 138.773 78.74H138.018ZM144.687 74.9427L142.325 68.7008L140.316 73.9323C140.461 73.8997 140.911 73.8182 141.12 73.8182C142.18 73.8182 142.807 74.0952 143.369 74.4049C143.755 74.633 144.157 74.8775 144.687 74.9427Z" fill="#1A1A1A"/>
<path d="M134.311 78.74C134.311 78.74 134.456 77.6481 134.456 73.6552V73.4922L134.359 73.313C132.125 69.3527 131.145 68 131.145 68H132.495C132.495 68 133.057 69.1897 134.456 71.7484L134.504 71.8299L135.114 72.9544L135.355 72.5796C137.525 69.043 138.007 68 138.007 68H138.666C138.666 68 137.557 69.5483 135.355 73.1337V73.3781C135.355 77.6318 135.5 78.74 135.5 78.74H134.311Z" fill="#1A1A1A"/>
<path d="M123.82 78.74C123.82 78.74 123.964 77.5992 123.964 73.3781C123.964 69.0593 123.82 68 123.82 68H125.121C127.034 68 130.344 68 130.344 70.6402C130.344 72.1069 129.396 72.9055 128.239 73.2804C127.757 73.4433 127.242 73.5085 126.728 73.5574C129.219 74.1441 130.039 75.9694 130.473 77.697C130.617 78.2837 130.665 78.7237 130.665 78.7237H129.557C129.557 78.7237 129.54 78.3326 129.444 77.7947C129.107 75.8554 128.448 74.0137 126.069 73.6226L125.877 73.6063L125.764 73.59H124.848C124.864 77.6644 125.009 78.74 125.009 78.74H123.82ZM124.848 73.427C127.13 73.4107 129.364 73.0685 129.364 70.5424C129.364 68.2934 126.857 68.163 124.993 68.163C124.944 68.5704 124.848 69.9394 124.848 73.3781V73.427Z" fill="#1A1A1A"/>
<path d="M115.33 78.74C115.33 78.74 115.474 77.8273 115.474 73.3781C115.474 68.8475 115.33 68 115.33 68L116.358 68.0163C117.146 68 118.094 68 119.026 68.1467C120.488 68.3585 121.709 69.043 121.709 70.4772C121.709 72.0744 120.568 72.71 119.138 72.9707C120.922 73.1337 122.69 73.7204 122.69 75.6435C122.69 77.1754 121.661 78.0229 120.392 78.414C119.106 78.8052 117.563 78.7237 116.503 78.74H115.33ZM116.358 72.8892C118.254 72.9055 120.745 72.9218 120.745 70.4609C120.745 68.163 118.078 68.1793 116.358 68.1956V72.8892ZM116.487 78.577C119.058 78.577 121.613 78.2511 121.613 75.562C121.613 73.0196 118.27 73.15 116.358 73.15V73.3781C116.358 76.7354 116.455 78.137 116.487 78.577Z" fill="#1A1A1A"/>
<path d="M88.5947 86.8886C88.5947 90.2448 85.895 92.9828 82.5857 92.9828H69V92.7178C70.0451 92.7178 70.8869 91.8641 70.8869 90.8042V70.2254C70.8869 69.1656 70.0451 68.3118 69 68.3118V68.0174H81.7438C84.908 68.0174 87.5206 70.6376 87.5206 73.8466V73.9055C87.5206 77.2911 85.4886 78.9987 83.0211 79.5875C82.3534 79.7347 81.6567 79.823 80.96 79.823C80.0021 79.823 79.2473 79.5286 78.6377 79.1164C77.8249 78.557 77.3024 77.6444 77.0701 76.6729C77.0411 76.5257 77.0121 76.349 76.983 76.1724C76.954 75.9663 76.954 75.7602 76.954 75.5541C76.954 75.1714 76.983 74.7887 77.0992 74.3765C77.0701 74.406 77.0411 74.4943 76.983 74.6709C76.7798 75.2009 76.6927 75.7308 76.6927 76.2607C76.6927 78.1743 77.9991 79.9702 79.973 80.4707C80.5536 80.6179 81.2503 80.7356 82.0631 80.7945C82.0631 80.7945 88.5947 81.3833 88.5947 86.8886ZM84.0952 86.8886C84.0952 84.2979 82.6437 82.4432 80.1472 81.4128C79.3054 81.0889 78.4345 80.6473 77.7959 79.9996C77.0121 79.1753 76.3154 77.9977 76.3154 76.4668C76.3154 76.1135 76.3444 75.7602 76.4315 75.3775C76.5766 74.6709 76.954 73.7877 77.6217 73.0812C77.8829 72.8456 78.0281 72.7279 78.2894 72.5218L78.4926 72.7279C78.3764 72.8456 77.5346 73.67 77.3314 74.8181C77.3024 75.0537 77.2733 75.2597 77.2733 75.4658C77.2733 77.35 78.4055 78.557 79.915 78.557C82.7018 78.557 83.0211 75.3775 83.0211 73.5816C83.0211 70.1666 81.0181 68.3118 78.5216 68.3118H77.2153C76.1992 68.3118 75.3864 69.1362 75.3864 70.1666V90.8631C75.3864 91.8641 76.1992 92.7178 77.2153 92.7178H78.3474C79.944 92.7178 81.3664 92.0407 82.4115 91.0103C83.4566 89.9504 84.0952 88.4784 84.0952 86.8886Z" stroke="#E6E2DE" stroke-width="16" stroke-linejoin="round" mask="url(#path-4-outside-1_1195_480)"/>
<path d="M101.488 68C102.564 68 103.645 68.1918 104.73 68.5753C105.471 68.8426 105.974 69.0228 106.237 69.1158C106.511 69.2087 106.897 69.3075 107.394 69.4121C107.902 69.5051 108.455 69.5632 109.054 69.5865L107.288 74.8863C106.689 74.6074 106.136 74.2703 105.629 73.8752C105.121 73.48 104.715 73.1139 104.411 72.7768C104.106 72.4282 103.741 72.0563 103.315 71.6611C102.888 71.2543 102.467 70.9172 102.051 70.6499C99.9302 69.2785 98.0274 69.1448 96.3427 70.249C95.196 70.9928 94.3689 72.1434 93.8615 73.7008C93.3642 75.2466 93.2323 76.9958 93.4657 78.9484C93.7092 80.8894 94.2978 82.7896 95.2315 84.6492C95.7795 85.7417 96.4696 86.718 97.3018 87.5781C98.1339 88.4382 99.0371 89.1239 100.011 89.6353C100.996 90.1351 102 90.4721 103.025 90.6464C104.05 90.8208 105.24 90.7783 106.265 90.4993C107.29 90.2088 108.236 89.8821 109.068 89.1615L109.206 89.3389C108.221 90.5012 107.059 91.4019 105.72 92.0411C104.39 92.6804 102.98 93 101.488 93C100.006 93 98.5906 92.6746 97.2409 92.0237C95.9013 91.3612 94.7444 90.4721 93.7701 89.3563C92.7959 88.2406 92.0195 86.9098 91.4411 85.364C90.8626 83.8182 90.5734 82.1969 90.5734 80.5C90.5734 78.8147 90.8626 77.1992 91.4411 75.6534C92.0195 74.1076 92.7959 72.7768 93.7701 71.6611C94.7444 70.5453 95.9064 69.6562 97.2561 68.9937C98.6058 68.3312 100.016 68 101.488 68Z" stroke="#E6E2DE" stroke-width="16" stroke-linejoin="round" mask="url(#path-4-outside-1_1195_480)"/>
<path d="M153.602 92.9999V92.8206L159.531 82.4555C155.45 82.5043 153.698 82.7977 153.698 82.7977V82.2599H160.576V82.4555L154.791 92.8043C158.872 92.7717 160.672 92.4621 160.672 92.4621V92.9999H153.602Z" stroke="#E6E2DE" stroke-width="16" stroke-linejoin="round" mask="url(#path-4-outside-1_1195_480)"/>
<path d="M151.33 92.9999C151.33 92.9999 151.474 91.8591 151.474 87.638C151.474 83.3192 151.33 82.2599 151.33 82.2599H152.471C152.471 82.2599 152.326 83.3192 152.326 87.638C152.326 91.8917 152.471 92.9999 152.471 92.9999H151.33Z" stroke="#E6E2DE" stroke-width="16" stroke-linejoin="round" mask="url(#path-4-outside-1_1195_480)"/>
<path d="M143.201 92.9999C143.201 92.9999 143.345 91.8591 143.345 87.638C143.345 83.3192 143.201 82.2599 143.201 82.2599H144.502C146.415 82.2599 149.725 82.2599 149.725 84.9001C149.725 86.3668 148.777 87.1654 147.62 87.5402C147.138 87.7032 146.624 87.7684 146.109 87.8173C148.6 88.404 149.42 90.2293 149.854 91.9568C149.998 92.5435 150.047 92.9836 150.047 92.9836H148.938C148.938 92.9836 148.922 92.5924 148.825 92.0546C148.488 90.1152 147.829 88.2736 145.451 87.8825L145.258 87.8662L145.145 87.8499H144.229C144.245 91.9242 144.39 92.9999 144.39 92.9999H143.201ZM144.229 87.6869C146.511 87.6706 148.745 87.3284 148.745 84.8023C148.745 82.5532 146.238 82.4229 144.374 82.4229C144.326 82.8303 144.229 84.1993 144.229 87.638V87.6869Z" stroke="#E6E2DE" stroke-width="16" stroke-linejoin="round" mask="url(#path-4-outside-1_1195_480)"/>
<path d="M132.824 92.9999C132.824 92.9999 133.322 92.2502 134.961 87.7684C136.809 82.7488 136.889 82.2599 136.889 82.2599H137.998C137.998 82.2599 138.207 83.254 139.878 87.638C141.566 92.0546 142.08 92.9999 142.08 92.9999H140.827C140.827 92.9999 140.698 92.4458 139.589 89.4633C138.93 89.4144 138.48 89.1374 138.046 88.9092C137.484 88.6322 136.922 88.3388 135.925 88.3388C135.652 88.3388 135.09 88.4529 135.025 88.4692C133.659 92.1687 133.579 92.9999 133.579 92.9999H132.824ZM139.493 89.2026L137.13 82.9607L135.122 88.1921C135.266 88.1595 135.716 88.0781 135.925 88.0781C136.986 88.0781 137.613 88.3551 138.175 88.6648C138.561 88.8929 138.962 89.1374 139.493 89.2026Z" stroke="#E6E2DE" stroke-width="16" stroke-linejoin="round" mask="url(#path-4-outside-1_1195_480)"/>
<path d="M125.813 92.9999C125.813 92.9999 125.957 91.8591 125.957 87.638C125.957 83.3192 125.813 82.2599 125.813 82.2599H126.841V87.638C126.841 90.9464 126.938 92.348 126.97 92.8043C130.875 92.7554 131.855 92.4621 131.855 92.4621V92.9999H125.813Z" stroke="#E6E2DE" stroke-width="16" stroke-linejoin="round" mask="url(#path-4-outside-1_1195_480)"/>
<path d="M120.231 92.9999C117.435 92.9999 115.169 90.5879 115.169 87.638C115.169 84.6719 117.435 82.2599 120.231 82.2599C121.806 82.2599 123.204 83.0259 124.136 84.1993H123.107C122.063 82.9281 120.536 82.2599 119.074 82.6184C116.824 83.1562 115.619 85.829 116.262 88.5996C116.904 91.3701 119.154 93.1791 121.388 92.6413C122.625 92.348 123.557 91.419 124.056 90.1804H124.682C123.831 91.8591 122.159 92.9999 120.231 92.9999Z" stroke="#E6E2DE" stroke-width="16" stroke-linejoin="round" mask="url(#path-4-outside-1_1195_480)"/>
<path d="M164.744 78.74C164.744 78.74 165.242 77.9903 166.881 73.5085C168.729 68.4889 168.809 68 168.809 68H169.918C169.918 68 170.127 68.9941 171.798 73.3781C173.486 77.7947 174 78.74 174 78.74H172.747C172.747 78.74 172.618 78.1859 171.509 75.2035C170.85 75.1546 170.4 74.8775 169.966 74.6493C169.404 74.3723 168.842 74.0789 167.845 74.0789C167.572 74.0789 167.01 74.193 166.945 74.2093C165.579 77.9088 165.499 78.74 165.499 78.74H164.744ZM171.413 74.9427L169.05 68.7008L167.042 73.9323C167.186 73.8997 167.636 73.8182 167.845 73.8182C168.906 73.8182 169.533 74.0952 170.095 74.4049C170.481 74.633 170.882 74.8775 171.413 74.9427Z" stroke="#E6E2DE" stroke-width="16" stroke-linejoin="round" mask="url(#path-4-outside-1_1195_480)"/>
<path d="M156.987 78.74C156.987 78.74 157.148 77.6318 157.148 73.3781V69.0267L156.489 68H157.55L163.335 77.0777V73.3781C163.335 69.1082 163.19 68 163.19 68H163.785C163.785 68 163.64 69.1245 163.64 73.3781V78.74H163.335L157.437 69.4994V73.3781C157.437 77.6155 157.582 78.74 157.582 78.74H156.987Z" stroke="#E6E2DE" stroke-width="16" stroke-linejoin="round" mask="url(#path-4-outside-1_1195_480)"/>
<path d="M148.733 78.74C148.733 78.74 148.893 77.6318 148.893 73.3781V69.0267L148.235 68H149.295L155.08 77.0777V73.3781C155.08 69.1082 154.936 68 154.936 68H155.53C155.53 68 155.386 69.1245 155.386 73.3781V78.74H155.08L149.183 69.4994V73.3781C149.183 77.6155 149.327 78.74 149.327 78.74H148.733Z" stroke="#E6E2DE" stroke-width="16" stroke-linejoin="round" mask="url(#path-4-outside-1_1195_480)"/>
<path d="M138.018 78.74C138.018 78.74 138.516 77.9903 140.155 73.5085C142.004 68.4889 142.084 68 142.084 68H143.193C143.193 68 143.402 68.9941 145.073 73.3781C146.76 77.7947 147.274 78.74 147.274 78.74H146.021C146.021 78.74 145.892 78.1859 144.784 75.2035C144.125 75.1546 143.675 74.8775 143.241 74.6493C142.678 74.3723 142.116 74.0789 141.12 74.0789C140.846 74.0789 140.284 74.193 140.22 74.2093C138.854 77.9088 138.773 78.74 138.773 78.74H138.018ZM144.687 74.9427L142.325 68.7008L140.316 73.9323C140.461 73.8997 140.911 73.8182 141.12 73.8182C142.18 73.8182 142.807 74.0952 143.369 74.4049C143.755 74.633 144.157 74.8775 144.687 74.9427Z" stroke="#E6E2DE" stroke-width="16" stroke-linejoin="round" mask="url(#path-4-outside-1_1195_480)"/>
<path d="M134.311 78.74C134.311 78.74 134.456 77.6481 134.456 73.6552V73.4922L134.359 73.313C132.125 69.3527 131.145 68 131.145 68H132.495C132.495 68 133.057 69.1897 134.456 71.7484L134.504 71.8299L135.114 72.9544L135.355 72.5796C137.525 69.043 138.007 68 138.007 68H138.666C138.666 68 137.557 69.5483 135.355 73.1337V73.3781C135.355 77.6318 135.5 78.74 135.5 78.74H134.311Z" stroke="#E6E2DE" stroke-width="16" stroke-linejoin="round" mask="url(#path-4-outside-1_1195_480)"/>
<path d="M123.82 78.74C123.82 78.74 123.964 77.5992 123.964 73.3781C123.964 69.0593 123.82 68 123.82 68H125.121C127.034 68 130.344 68 130.344 70.6402C130.344 72.1069 129.396 72.9055 128.239 73.2804C127.757 73.4433 127.242 73.5085 126.728 73.5574C129.219 74.1441 130.039 75.9694 130.473 77.697C130.617 78.2837 130.665 78.7237 130.665 78.7237H129.557C129.557 78.7237 129.54 78.3326 129.444 77.7947C129.107 75.8554 128.448 74.0137 126.069 73.6226L125.877 73.6063L125.764 73.59H124.848C124.864 77.6644 125.009 78.74 125.009 78.74H123.82ZM124.848 73.427C127.13 73.4107 129.364 73.0685 129.364 70.5424C129.364 68.2934 126.857 68.163 124.993 68.163C124.944 68.5704 124.848 69.9394 124.848 73.3781V73.427Z" stroke="#E6E2DE" stroke-width="16" stroke-linejoin="round" mask="url(#path-4-outside-1_1195_480)"/>
<path d="M115.33 78.74C115.33 78.74 115.474 77.8273 115.474 73.3781C115.474 68.8475 115.33 68 115.33 68L116.358 68.0163C117.146 68 118.094 68 119.026 68.1467C120.488 68.3585 121.709 69.043 121.709 70.4772C121.709 72.0744 120.568 72.71 119.138 72.9707C120.922 73.1337 122.69 73.7204 122.69 75.6435C122.69 77.1754 121.661 78.0229 120.392 78.414C119.106 78.8052 117.563 78.7237 116.503 78.74H115.33ZM116.358 72.8892C118.254 72.9055 120.745 72.9218 120.745 70.4609C120.745 68.163 118.078 68.1793 116.358 68.1956V72.8892ZM116.487 78.577C119.058 78.577 121.613 78.2511 121.613 75.562C121.613 73.0196 118.27 73.15 116.358 73.15V73.3781C116.358 76.7354 116.455 78.137 116.487 78.577Z" stroke="#E6E2DE" stroke-width="16" stroke-linejoin="round" mask="url(#path-4-outside-1_1195_480)"/>
</svg>
