<svg width="242" height="240" viewBox="0 0 242 240" fill="none" xmlns="http://www.w3.org/2000/svg">
<rect y="80" width="242" height="160" rx="12" fill="#E6E2DE"/>
<path d="M107.065 151.624C107.065 153.752 105.497 155 102.969 155H98.4727V143.512H102.793C105.209 143.512 106.697 144.6 106.697 146.568C106.697 147.624 106.105 148.472 105.081 149C106.361 149.448 107.065 150.36 107.065 151.624ZM102.601 145.432H100.681V148.104H102.601C103.785 148.104 104.393 147.592 104.393 146.76C104.393 145.944 103.785 145.432 102.601 145.432ZM102.777 150.04H100.681V153.08H102.777C104.089 153.08 104.777 152.504 104.777 151.528C104.777 150.616 104.089 150.04 102.777 150.04ZM112.192 155.144C109.632 155.144 107.92 153.368 107.92 150.696C107.92 148.152 109.696 146.296 112.16 146.296C114.864 146.296 116.656 148.488 116.256 151.272H110.192C110.336 152.664 111.008 153.432 112.144 153.432C113.12 153.432 113.776 152.952 114.032 152.104H116.24C115.76 154.04 114.272 155.144 112.192 155.144ZM112.112 147.928C111.072 147.928 110.416 148.6 110.224 149.864H113.904C113.84 148.68 113.168 147.928 112.112 147.928ZM121.062 158.248C118.758 158.248 117.222 157 117.126 155.032H119.27C119.366 156.008 119.99 156.52 121.046 156.52C122.278 156.52 122.918 155.864 122.918 154.632V153.384C122.454 154.2 121.574 154.68 120.534 154.68C118.438 154.68 116.87 152.904 116.87 150.488C116.87 148.008 118.342 146.296 120.454 146.296C121.606 146.296 122.47 146.744 123.094 147.624V146.456H125.126V154.6C125.126 156.872 123.59 158.248 121.062 158.248ZM119.094 150.488C119.094 151.88 119.814 152.76 120.966 152.76C122.134 152.76 122.902 151.848 122.902 150.504C122.902 149.112 122.134 148.216 120.966 148.216C119.83 148.216 119.094 149.096 119.094 150.488ZM132.173 151.4V146.456H134.381V155H132.349V153.88C131.885 154.632 130.941 155.16 129.853 155.16C128.141 155.16 126.893 154.12 126.893 151.896V146.456H129.117V151.464C129.117 152.664 129.709 153.192 130.605 153.192C131.405 153.192 132.173 152.552 132.173 151.4ZM138.443 150.344V155H136.219V146.456H138.267V147.672C138.891 146.824 139.771 146.296 140.891 146.296C142.603 146.296 143.787 147.416 143.787 149.48V155H141.579V150.232C141.579 148.968 141.083 148.264 140.075 148.264C139.195 148.264 138.443 148.968 138.443 150.344Z" fill="#1A1A1A"/>
<path d="M91.4134 175H85.3234V164.948H86.8634V173.614H91.4134V175ZM95.4359 175.14C93.3359 175.14 91.7959 173.488 91.7959 171.29C91.7959 169.092 93.3359 167.44 95.4359 167.44C97.5359 167.44 99.0759 169.092 99.0759 171.29C99.0759 173.488 97.5359 175.14 95.4359 175.14ZM95.4359 173.894C96.6539 173.894 97.6199 172.914 97.6199 171.29C97.6199 169.666 96.6539 168.7 95.4359 168.7C94.2179 168.7 93.2659 169.666 93.2659 171.29C93.2659 172.914 94.2179 173.894 95.4359 173.894ZM103.069 177.856C101.123 177.856 99.8626 176.82 99.7786 175.14H101.151C101.235 176.176 101.907 176.736 103.055 176.736C104.329 176.736 105.001 176.05 105.001 174.776V173.432C104.581 174.328 103.741 174.846 102.733 174.846C100.885 174.846 99.5686 173.32 99.5686 171.136C99.5686 168.924 100.829 167.44 102.691 167.44C103.755 167.44 104.595 167.958 105.099 168.896V167.58H106.415V174.748C106.415 176.694 105.169 177.856 103.069 177.856ZM100.997 171.136C100.997 172.676 101.753 173.614 102.985 173.614C104.189 173.614 105.001 172.648 105.001 171.178C105.001 169.638 104.203 168.658 102.985 168.658C101.767 168.658 100.997 169.61 100.997 171.136ZM111.2 175.14C109.1 175.14 107.56 173.488 107.56 171.29C107.56 169.092 109.1 167.44 111.2 167.44C113.3 167.44 114.84 169.092 114.84 171.29C114.84 173.488 113.3 175.14 111.2 175.14ZM111.2 173.894C112.418 173.894 113.384 172.914 113.384 171.29C113.384 169.666 112.418 168.7 111.2 168.7C109.982 168.7 109.03 169.666 109.03 171.29C109.03 172.914 109.982 173.894 111.2 173.894ZM117.714 174.398C117.714 175.728 116.664 176.764 115.124 176.792V175.994C116.034 175.966 116.65 175.476 116.734 174.79C116.608 174.832 116.524 174.846 116.426 174.846C115.894 174.846 115.502 174.412 115.502 173.894C115.502 173.292 115.95 172.9 116.524 172.9C117.294 172.9 117.714 173.46 117.714 174.398ZM129.023 172.116C129.023 173.95 127.679 175 125.593 175H121.911V164.948H125.397C127.427 164.948 128.645 165.886 128.645 167.58C128.645 168.532 128.071 169.344 127.105 169.764C128.351 170.114 129.023 170.968 129.023 172.116ZM125.299 166.18H123.325V169.204H125.299C126.517 169.204 127.175 168.63 127.175 167.692C127.175 166.754 126.517 166.18 125.299 166.18ZM125.495 170.436H123.325V173.768H125.495C126.811 173.768 127.553 173.138 127.553 172.074C127.553 171.052 126.811 170.436 125.495 170.436ZM131.82 171.206V175H130.406V167.58H131.722V169.148C132.24 168.126 133.36 167.482 134.578 167.482V168.952C132.982 168.868 131.82 169.568 131.82 171.206ZM139.911 175V173.852C139.449 174.678 138.623 175.14 137.531 175.14C135.991 175.14 134.983 174.258 134.983 172.9C134.983 171.444 136.145 170.688 138.357 170.688C138.791 170.688 139.141 170.702 139.743 170.772V170.226C139.743 169.162 139.169 168.56 138.189 168.56C137.153 168.56 136.523 169.176 136.481 170.212H135.193C135.263 168.546 136.453 167.44 138.189 167.44C140.023 167.44 141.087 168.476 141.087 170.24V175H139.911ZM136.327 172.858C136.327 173.628 136.901 174.132 137.811 174.132C139.001 174.132 139.743 173.39 139.743 172.256V171.654C139.197 171.584 138.805 171.57 138.441 171.57C137.027 171.57 136.327 171.99 136.327 172.858ZM144.111 170.814V175H142.697V167.58H144.013V168.812C144.517 167.986 145.357 167.44 146.379 167.44C147.905 167.44 148.913 168.42 148.913 170.198V175H147.499V170.674C147.499 169.4 146.939 168.686 145.889 168.686C144.923 168.686 144.111 169.498 144.111 170.814ZM149.979 171.29C149.979 169.036 151.267 167.44 153.269 167.44C154.263 167.44 155.131 167.944 155.649 168.854V164.948H157.063V175H155.747V173.67C155.215 174.608 154.319 175.14 153.269 175.14C151.267 175.14 149.979 173.516 149.979 171.29ZM151.449 171.29C151.449 172.942 152.317 173.88 153.549 173.88C154.753 173.88 155.649 172.9 155.649 171.262C155.649 169.596 154.725 168.686 153.549 168.686C152.317 168.686 151.449 169.61 151.449 171.29ZM76.6535 192H75.1135V181.948H76.6535V192ZM77.9083 188.29C77.9083 186.036 79.1963 184.44 81.1983 184.44C82.1923 184.44 83.0603 184.944 83.5783 185.854V181.948H84.9923V192H83.6763V190.67C83.1443 191.608 82.2483 192.14 81.1983 192.14C79.1963 192.14 77.9083 190.516 77.9083 188.29ZM79.3783 188.29C79.3783 189.942 80.2463 190.88 81.4783 190.88C82.6823 190.88 83.5783 189.9 83.5783 188.262C83.5783 186.596 82.6543 185.686 81.4783 185.686C80.2463 185.686 79.3783 186.61 79.3783 188.29ZM89.7298 192.14C87.5878 192.14 86.1458 190.586 86.1458 188.248C86.1458 186.05 87.6438 184.44 89.6878 184.44C91.8998 184.44 93.3698 186.232 93.1178 188.64H87.5878C87.6998 190.152 88.4558 191.034 89.7018 191.034C90.7518 191.034 91.4798 190.46 91.7178 189.494H93.1178C92.7538 191.146 91.4798 192.14 89.7298 192.14ZM89.6598 185.504C88.5258 185.504 87.7558 186.316 87.6018 187.702H91.6198C91.5498 186.33 90.8078 185.504 89.6598 185.504ZM95.7552 187.814V192H94.3412V184.58H95.6572V185.812C96.1612 184.986 97.0012 184.44 98.0232 184.44C99.5492 184.44 100.557 185.42 100.557 187.198V192H99.1432V187.674C99.1432 186.4 98.5832 185.686 97.5332 185.686C96.5672 185.686 95.7552 186.498 95.7552 187.814ZM106.314 190.628V191.874C105.88 192.07 105.502 192.14 105.054 192.14C103.682 192.14 102.73 191.398 102.73 189.76V185.784H101.092V184.58H102.73V182.382H104.144V184.58H106.384V185.784H104.144V189.438C104.144 190.46 104.634 190.824 105.39 190.824C105.726 190.824 106.02 190.768 106.314 190.628ZM109.175 182.858C109.175 183.39 108.755 183.796 108.153 183.796C107.551 183.796 107.117 183.39 107.117 182.858C107.117 182.312 107.551 181.92 108.153 181.92C108.755 181.92 109.175 182.312 109.175 182.858ZM108.867 192H107.453V184.58H108.867V192ZM114.736 190.628V191.874C114.302 192.07 113.924 192.14 113.476 192.14C112.104 192.14 111.152 191.398 111.152 189.76V185.784H109.514V184.58H111.152V182.382H112.566V184.58H114.806V185.784H112.566V189.438C112.566 190.46 113.056 190.824 113.812 190.824C114.148 190.824 114.442 190.768 114.736 190.628ZM122.036 184.58L118.326 194.702H116.786L117.85 191.902L114.924 184.58H116.45L118.606 190.236L120.608 184.58H122.036ZM128.695 192H125.517V181.948H128.695C131.901 181.948 133.749 183.992 133.749 186.932C133.749 189.83 131.831 192 128.695 192ZM127.057 183.278V190.67H128.625C130.935 190.67 132.181 189.242 132.181 186.932C132.181 184.664 130.949 183.278 128.625 183.278H127.057ZM138.021 192.14C135.879 192.14 134.437 190.586 134.437 188.248C134.437 186.05 135.935 184.44 137.979 184.44C140.191 184.44 141.661 186.232 141.409 188.64H135.879C135.991 190.152 136.747 191.034 137.993 191.034C139.043 191.034 139.771 190.46 140.009 189.494H141.409C141.045 191.146 139.771 192.14 138.021 192.14ZM137.951 185.504C136.817 185.504 136.047 186.316 135.893 187.702H139.911C139.841 186.33 139.099 185.504 137.951 185.504ZM148.512 189.788C148.512 191.244 147.378 192.14 145.404 192.14C143.444 192.14 142.282 191.174 142.142 189.578H143.5C143.556 190.502 144.298 191.076 145.432 191.076C146.426 191.076 147.084 190.726 147.084 190.026C147.084 189.41 146.706 189.144 145.782 188.962L144.578 188.738C143.206 188.472 142.436 187.772 142.436 186.652C142.436 185.35 143.57 184.44 145.292 184.44C147.07 184.44 148.274 185.392 148.4 186.918H147.042C146.958 186.022 146.3 185.504 145.306 185.504C144.41 185.504 143.808 185.882 143.808 186.526C143.808 187.128 144.186 187.408 145.082 187.576L146.342 187.814C147.812 188.08 148.512 188.724 148.512 189.788ZM151.498 182.858C151.498 183.39 151.078 183.796 150.476 183.796C149.874 183.796 149.44 183.39 149.44 182.858C149.44 182.312 149.874 181.92 150.476 181.92C151.078 181.92 151.498 182.312 151.498 182.858ZM151.19 192H149.776V184.58H151.19V192ZM155.841 194.856C153.895 194.856 152.635 193.82 152.551 192.14H153.923C154.007 193.176 154.679 193.736 155.827 193.736C157.101 193.736 157.773 193.05 157.773 191.776V190.432C157.353 191.328 156.513 191.846 155.505 191.846C153.657 191.846 152.341 190.32 152.341 188.136C152.341 185.924 153.601 184.44 155.463 184.44C156.527 184.44 157.367 184.958 157.871 185.896V184.58H159.187V191.748C159.187 193.694 157.941 194.856 155.841 194.856ZM153.769 188.136C153.769 189.676 154.525 190.614 155.757 190.614C156.961 190.614 157.773 189.648 157.773 188.178C157.773 186.638 156.975 185.658 155.757 185.658C154.539 185.658 153.769 186.61 153.769 188.136ZM162.279 187.814V192H160.865V184.58H162.181V185.812C162.685 184.986 163.525 184.44 164.547 184.44C166.073 184.44 167.081 185.42 167.081 187.198V192H165.667V187.674C165.667 186.4 165.107 185.686 164.057 185.686C163.091 185.686 162.279 186.498 162.279 187.814Z" fill="#1A1A1A"/>
<mask id="path-4-outside-1_1195_165" maskUnits="userSpaceOnUse" x="62" y="55" width="118" height="50" fill="black">
<rect fill="white" x="62" y="55" width="118" height="50"/>
<path d="M122.901 69.043C125.16 69.0431 127.169 69.7507 128.93 71.166C129.191 71.3763 129.596 71.1976 129.596 70.8633V69.7422C129.596 69.5309 129.767 69.3594 129.979 69.3594H133.037C133.248 69.3594 133.419 69.5309 133.419 69.7422V86.8721C133.419 89.6202 132.412 91.9892 130.397 93.9785C128.396 95.9929 126.003 96.9999 123.219 97C121.503 97 119.868 96.5587 118.313 95.6758C116.919 94.8577 115.733 93.782 114.755 92.4512C114.628 92.2784 114.676 92.0354 114.856 91.918L117.437 90.2314C117.612 90.1171 117.848 90.1672 117.97 90.3369C119.333 92.2295 121.083 93.1768 123.219 93.1768C125.108 93.1767 126.618 92.5548 127.75 91.3115C128.619 90.3507 129.182 89.1488 129.437 87.708C129.497 87.3663 129.09 87.158 128.814 87.3701C127.094 88.6915 125.122 89.3525 122.901 89.3525C120.154 89.3525 117.822 88.3584 115.908 86.3691C113.994 84.3799 113.036 82.0113 113.036 79.2256C113.036 76.4401 113.994 74.0536 115.908 72.0645C117.822 70.0498 120.154 69.043 122.901 69.043ZM138.43 86.9707C138.558 86.8422 138.756 86.8162 138.913 86.9082C140.489 87.838 142.29 88.334 144.168 88.334C146.046 88.334 147.847 87.8381 149.423 86.9092C149.579 86.8172 149.778 86.844 149.905 86.9717L152.116 89.1826L152.115 89.1836C152.293 89.3611 152.265 89.6588 152.057 89.7979C149.8 91.3072 147.085 92.1855 144.167 92.1855C141.249 92.1855 138.533 91.3062 136.276 89.7979C136.067 89.6579 136.039 89.3611 136.218 89.1826L138.43 86.9707ZM73.4229 63C73.633 63.0002 73.8035 63.1708 73.8037 63.3818V70.8506C73.8037 71.1868 74.2145 71.3656 74.4756 71.1533C76.2065 69.7464 78.2149 69.043 80.499 69.043C83.2217 69.0431 85.5464 70.0499 87.4736 72.0645C89.4009 74.1035 90.3643 76.4662 90.3643 79.2266C90.3641 81.9867 89.4008 84.3678 87.4736 86.3691C85.5596 88.3583 83.2339 89.3525 80.499 89.3525C78.2131 89.3525 76.2036 88.6638 74.4717 87.2842C74.2097 87.0757 73.8038 87.2536 73.8037 87.5879V88.6543C73.8036 88.8654 73.633 89.036 73.4229 89.0361H70.3818C70.1708 89.0359 70.0001 88.8654 70 88.6543V63.3818C70.0002 63.1709 70.1709 63.0002 70.3818 63H73.4229ZM101.682 69.043C104.479 69.043 106.877 70.0435 108.88 72.0459C110.881 74.0473 111.882 76.4401 111.882 79.2256C111.882 79.7544 111.844 80.2837 111.766 80.8115C111.738 80.9956 111.579 81.1279 111.394 81.1279H96.1289C95.8689 81.1281 95.6847 81.3827 95.7842 81.6221C96.2397 82.7275 96.9568 83.6388 97.9336 84.3555C99.0521 85.1752 100.301 85.5859 101.682 85.5859C103.829 85.5859 105.584 84.6396 106.947 82.7471C107.07 82.5763 107.306 82.5273 107.481 82.6426L110.05 84.3301C110.227 84.4466 110.275 84.6857 110.152 84.8584C108.025 87.8545 105.202 89.3525 101.682 89.3525C98.8838 89.3525 96.4848 88.3711 94.4834 86.4062C92.4943 84.417 91.5 82.0234 91.5 79.2256C91.5001 76.4279 92.4944 74.035 94.4834 72.0459C96.4848 70.0435 98.8847 69.043 101.682 69.043ZM164.056 69.041C166.33 69.041 168.239 69.9238 169.78 71.6895V71.6904C171.26 73.3566 172 75.3395 172 77.6396V88.6533C172 88.8645 171.828 89.0352 171.617 89.0352H168.559C168.348 89.0352 168.177 88.8645 168.177 88.6533V77.6396C168.177 76.3473 167.705 75.228 166.76 74.2832C165.827 73.3384 164.697 72.8653 163.403 72.8652C162.11 72.8652 160.991 73.3383 160.046 74.2832C159.101 75.228 158.629 76.3465 158.629 77.6396V88.6533C158.629 88.8644 158.458 89.035 158.247 89.0352H155.206C154.995 89.0349 154.824 88.8644 154.824 88.6533V69.7412C154.824 69.53 154.995 69.3586 155.206 69.3584H158.247C158.458 69.3586 158.629 69.53 158.629 69.7412V70.3301C158.629 70.6632 159.033 70.8425 159.298 70.6406C160.695 69.5737 162.282 69.0411 164.056 69.041ZM139.031 69.3594C139.252 69.3594 139.431 69.5381 139.431 69.7588V77.9482C139.431 80.59 141.605 82.7332 144.258 82.6836C146.851 82.6348 148.903 80.4622 148.903 77.8682V69.7588C148.903 69.5381 149.082 69.3594 149.303 69.3594H152.355C152.576 69.3595 152.754 69.5382 152.754 69.7588V77.9482C152.754 82.7126 148.875 86.5687 144.104 86.5342C139.368 86.5004 135.58 82.5754 135.58 77.8398V69.7588C135.58 69.5382 135.758 69.3595 135.979 69.3594H139.031ZM80.1826 72.8652C78.4422 72.8652 76.9432 73.4943 75.6875 74.75C74.432 76.0057 73.8037 77.4863 73.8037 79.2266C73.8038 80.9667 74.4319 82.4651 75.6875 83.7207C76.9301 84.9642 78.4422 85.5859 80.1826 85.5859C81.9226 85.5858 83.4139 84.9639 84.6572 83.7207C85.9129 82.4651 86.5409 80.9545 86.541 79.2266C86.541 77.4984 85.913 76.0057 84.6572 74.75C83.4016 73.4944 81.9228 72.8653 80.1826 72.8652ZM123.219 72.8652C121.478 72.8652 119.968 73.5065 118.725 74.75C117.481 75.9934 116.86 77.4732 116.86 79.2256C116.86 80.9782 117.481 82.4781 118.725 83.7207C119.968 84.964 121.466 85.5859 123.219 85.5859C124.971 85.5859 126.469 84.9641 127.713 83.7207C128.969 82.465 129.596 80.9538 129.596 79.2256C129.596 77.4977 128.968 76.0056 127.713 74.75C126.457 73.4943 124.959 72.8653 123.219 72.8652ZM101.682 72.8652C100.277 72.8653 99.0268 73.2832 97.9336 74.1162C96.9493 74.8516 96.2332 75.7556 95.7852 76.8301C95.6847 77.0695 95.8689 77.3231 96.1289 77.3232H107.233C107.494 77.3232 107.678 77.0695 107.578 76.8291C107.123 75.7257 106.406 74.8215 105.43 74.1162C104.336 73.2831 103.087 72.8652 101.682 72.8652Z"/>
</mask>
<path d="M122.901 69.043C125.16 69.0431 127.169 69.7507 128.93 71.166C129.191 71.3763 129.596 71.1976 129.596 70.8633V69.7422C129.596 69.5309 129.767 69.3594 129.979 69.3594H133.037C133.248 69.3594 133.419 69.5309 133.419 69.7422V86.8721C133.419 89.6202 132.412 91.9892 130.397 93.9785C128.396 95.9929 126.003 96.9999 123.219 97C121.503 97 119.868 96.5587 118.313 95.6758C116.919 94.8577 115.733 93.782 114.755 92.4512C114.628 92.2784 114.676 92.0354 114.856 91.918L117.437 90.2314C117.612 90.1171 117.848 90.1672 117.97 90.3369C119.333 92.2295 121.083 93.1768 123.219 93.1768C125.108 93.1767 126.618 92.5548 127.75 91.3115C128.619 90.3507 129.182 89.1488 129.437 87.708C129.497 87.3663 129.09 87.158 128.814 87.3701C127.094 88.6915 125.122 89.3525 122.901 89.3525C120.154 89.3525 117.822 88.3584 115.908 86.3691C113.994 84.3799 113.036 82.0113 113.036 79.2256C113.036 76.4401 113.994 74.0536 115.908 72.0645C117.822 70.0498 120.154 69.043 122.901 69.043ZM138.43 86.9707C138.558 86.8422 138.756 86.8162 138.913 86.9082C140.489 87.838 142.29 88.334 144.168 88.334C146.046 88.334 147.847 87.8381 149.423 86.9092C149.579 86.8172 149.778 86.844 149.905 86.9717L152.116 89.1826L152.115 89.1836C152.293 89.3611 152.265 89.6588 152.057 89.7979C149.8 91.3072 147.085 92.1855 144.167 92.1855C141.249 92.1855 138.533 91.3062 136.276 89.7979C136.067 89.6579 136.039 89.3611 136.218 89.1826L138.43 86.9707ZM73.4229 63C73.633 63.0002 73.8035 63.1708 73.8037 63.3818V70.8506C73.8037 71.1868 74.2145 71.3656 74.4756 71.1533C76.2065 69.7464 78.2149 69.043 80.499 69.043C83.2217 69.0431 85.5464 70.0499 87.4736 72.0645C89.4009 74.1035 90.3643 76.4662 90.3643 79.2266C90.3641 81.9867 89.4008 84.3678 87.4736 86.3691C85.5596 88.3583 83.2339 89.3525 80.499 89.3525C78.2131 89.3525 76.2036 88.6638 74.4717 87.2842C74.2097 87.0757 73.8038 87.2536 73.8037 87.5879V88.6543C73.8036 88.8654 73.633 89.036 73.4229 89.0361H70.3818C70.1708 89.0359 70.0001 88.8654 70 88.6543V63.3818C70.0002 63.1709 70.1709 63.0002 70.3818 63H73.4229ZM101.682 69.043C104.479 69.043 106.877 70.0435 108.88 72.0459C110.881 74.0473 111.882 76.4401 111.882 79.2256C111.882 79.7544 111.844 80.2837 111.766 80.8115C111.738 80.9956 111.579 81.1279 111.394 81.1279H96.1289C95.8689 81.1281 95.6847 81.3827 95.7842 81.6221C96.2397 82.7275 96.9568 83.6388 97.9336 84.3555C99.0521 85.1752 100.301 85.5859 101.682 85.5859C103.829 85.5859 105.584 84.6396 106.947 82.7471C107.07 82.5763 107.306 82.5273 107.481 82.6426L110.05 84.3301C110.227 84.4466 110.275 84.6857 110.152 84.8584C108.025 87.8545 105.202 89.3525 101.682 89.3525C98.8838 89.3525 96.4848 88.3711 94.4834 86.4062C92.4943 84.417 91.5 82.0234 91.5 79.2256C91.5001 76.4279 92.4944 74.035 94.4834 72.0459C96.4848 70.0435 98.8847 69.043 101.682 69.043ZM164.056 69.041C166.33 69.041 168.239 69.9238 169.78 71.6895V71.6904C171.26 73.3566 172 75.3395 172 77.6396V88.6533C172 88.8645 171.828 89.0352 171.617 89.0352H168.559C168.348 89.0352 168.177 88.8645 168.177 88.6533V77.6396C168.177 76.3473 167.705 75.228 166.76 74.2832C165.827 73.3384 164.697 72.8653 163.403 72.8652C162.11 72.8652 160.991 73.3383 160.046 74.2832C159.101 75.228 158.629 76.3465 158.629 77.6396V88.6533C158.629 88.8644 158.458 89.035 158.247 89.0352H155.206C154.995 89.0349 154.824 88.8644 154.824 88.6533V69.7412C154.824 69.53 154.995 69.3586 155.206 69.3584H158.247C158.458 69.3586 158.629 69.53 158.629 69.7412V70.3301C158.629 70.6632 159.033 70.8425 159.298 70.6406C160.695 69.5737 162.282 69.0411 164.056 69.041ZM139.031 69.3594C139.252 69.3594 139.431 69.5381 139.431 69.7588V77.9482C139.431 80.59 141.605 82.7332 144.258 82.6836C146.851 82.6348 148.903 80.4622 148.903 77.8682V69.7588C148.903 69.5381 149.082 69.3594 149.303 69.3594H152.355C152.576 69.3595 152.754 69.5382 152.754 69.7588V77.9482C152.754 82.7126 148.875 86.5687 144.104 86.5342C139.368 86.5004 135.58 82.5754 135.58 77.8398V69.7588C135.58 69.5382 135.758 69.3595 135.979 69.3594H139.031ZM80.1826 72.8652C78.4422 72.8652 76.9432 73.4943 75.6875 74.75C74.432 76.0057 73.8037 77.4863 73.8037 79.2266C73.8038 80.9667 74.4319 82.4651 75.6875 83.7207C76.9301 84.9642 78.4422 85.5859 80.1826 85.5859C81.9226 85.5858 83.4139 84.9639 84.6572 83.7207C85.9129 82.4651 86.5409 80.9545 86.541 79.2266C86.541 77.4984 85.913 76.0057 84.6572 74.75C83.4016 73.4944 81.9228 72.8653 80.1826 72.8652ZM123.219 72.8652C121.478 72.8652 119.968 73.5065 118.725 74.75C117.481 75.9934 116.86 77.4732 116.86 79.2256C116.86 80.9782 117.481 82.4781 118.725 83.7207C119.968 84.964 121.466 85.5859 123.219 85.5859C124.971 85.5859 126.469 84.9641 127.713 83.7207C128.969 82.465 129.596 80.9538 129.596 79.2256C129.596 77.4977 128.968 76.0056 127.713 74.75C126.457 73.4943 124.959 72.8653 123.219 72.8652ZM101.682 72.8652C100.277 72.8653 99.0268 73.2832 97.9336 74.1162C96.9493 74.8516 96.2332 75.7556 95.7852 76.8301C95.6847 77.0695 95.8689 77.3231 96.1289 77.3232H107.233C107.494 77.3232 107.678 77.0695 107.578 76.8291C107.123 75.7257 106.406 74.8215 105.43 74.1162C104.336 73.2831 103.087 72.8652 101.682 72.8652Z" fill="black"/>
<path d="M122.901 69.043L122.902 61.043H122.901V69.043ZM128.93 71.166L133.948 64.9353L133.941 64.9304L128.93 71.166ZM129.596 70.8633L137.596 70.865V70.8633H129.596ZM133.037 69.3594L133.037 61.3594H133.037V69.3594ZM130.397 93.9785L124.777 88.2859C124.758 88.3039 124.74 88.3219 124.722 88.3401L130.397 93.9785ZM123.219 97V105H123.219L123.219 97ZM118.313 95.6758L114.266 102.576C114.298 102.595 114.33 102.614 114.362 102.632L118.313 95.6758ZM114.755 92.4512L108.302 97.1799L108.308 97.1876L114.755 92.4512ZM114.856 91.918L119.223 98.621L119.234 98.6143L114.856 91.918ZM117.437 90.2314L113.069 83.5286L113.059 83.5352L117.437 90.2314ZM117.97 90.3369L111.476 95.0092L111.479 95.0139L117.97 90.3369ZM123.219 93.1768V101.177H123.219L123.219 93.1768ZM127.75 91.3115L133.666 96.6967C133.672 96.6901 133.678 96.6836 133.684 96.677L127.75 91.3115ZM129.437 87.708L121.56 86.307L121.559 86.3163L129.437 87.708ZM128.814 87.3701L133.687 93.7148C133.691 93.7117 133.695 93.7086 133.699 93.7055L128.814 87.3701ZM122.901 89.3525V97.3525H122.902L122.901 89.3525ZM115.908 86.3691L110.144 91.9161L110.144 91.9161L115.908 86.3691ZM113.036 79.2256L105.036 79.2253V79.2256H113.036ZM115.908 72.0645L121.673 77.6113C121.685 77.5992 121.696 77.587 121.708 77.5748L115.908 72.0645ZM138.43 86.9707L132.776 81.311L132.773 81.3138L138.43 86.9707ZM138.913 86.9082L142.978 80.018C142.973 80.0148 142.967 80.0117 142.962 80.0085L138.913 86.9082ZM144.168 88.334V96.334H144.168L144.168 88.334ZM149.423 86.9092L153.485 93.8012L153.487 93.7997L149.423 86.9092ZM149.905 86.9717L155.562 81.3148L155.561 81.3138L149.905 86.9717ZM152.116 89.1826L157.773 94.8395C160.897 91.7153 160.897 86.65 157.773 83.5258L152.116 89.1826ZM152.115 89.1836L146.458 83.5267C143.334 86.6509 143.334 91.7163 146.458 94.8404L152.115 89.1836ZM152.057 89.7979L147.619 83.1417L147.609 83.1478L152.057 89.7979ZM144.167 92.1855V100.186H144.167L144.167 92.1855ZM136.276 89.7979L140.722 83.1465L140.721 83.146L136.276 89.7979ZM136.218 89.1826L130.561 83.5258V83.5258L136.218 89.1826ZM73.4229 63L73.4292 55H73.4229V63ZM73.8037 63.3818H81.8037L81.8037 63.3731L73.8037 63.3818ZM74.4756 71.1533L69.4298 64.9452L69.4292 64.9458L74.4756 71.1533ZM80.499 69.043L80.4993 61.043H80.499V69.043ZM87.4736 72.0645L93.2877 66.5693C93.2766 66.5576 93.2655 66.5459 93.2544 66.5343L87.4736 72.0645ZM90.3643 79.2266L98.3643 79.2269V79.2266H90.3643ZM87.4736 86.3691L81.711 80.8201L81.709 80.8222L87.4736 86.3691ZM80.499 89.3525V97.3525H80.4993L80.499 89.3525ZM74.4717 87.2842L79.4562 81.0268L79.4528 81.0241L74.4717 87.2842ZM73.8037 87.5879L65.8037 87.5855V87.5879H73.8037ZM73.8037 88.6543L81.8037 88.6597V88.6543H73.8037ZM73.4229 89.0361V97.0361L73.4292 97.0361L73.4229 89.0361ZM70.3818 89.0361L70.3731 97.0361H70.3818V89.0361ZM70 88.6543H62L62 88.6597L70 88.6543ZM70 63.3818L62 63.3731V63.3818H70ZM70.3818 63V55L70.3731 55L70.3818 63ZM101.682 69.043V61.043H101.682L101.682 69.043ZM108.88 72.0459L114.537 66.3891L114.537 66.389L108.88 72.0459ZM111.882 79.2256H119.882V79.2253L111.882 79.2256ZM111.766 80.8115L119.679 81.9826L119.68 81.9803L111.766 80.8115ZM111.394 81.1279V89.1279H111.396L111.394 81.1279ZM96.1289 81.1279V73.1279L96.1245 73.1279L96.1289 81.1279ZM95.7842 81.6221L103.181 78.5742C103.178 78.5669 103.175 78.5597 103.172 78.5525L95.7842 81.6221ZM97.9336 84.3555L93.2013 90.8057L93.2044 90.808L97.9336 84.3555ZM101.682 85.5859L101.681 93.5859H101.682V85.5859ZM106.947 82.7471L100.457 78.0704L100.455 78.0722L106.947 82.7471ZM107.481 82.6426L111.874 75.9566L111.872 75.9553L107.481 82.6426ZM110.05 84.3301L114.446 77.6466L114.443 77.6441L110.05 84.3301ZM110.152 84.8584L103.635 80.2185L103.629 80.2269L110.152 84.8584ZM101.682 89.3525L101.682 97.3525H101.682V89.3525ZM94.4834 86.4062L88.8264 92.063C88.8439 92.0804 88.8614 92.0978 88.879 92.1151L94.4834 86.4062ZM91.5 79.2256L83.5 79.2253V79.2256H91.5ZM94.4834 72.0459L100.14 77.7026L100.142 77.7014L94.4834 72.0459ZM164.056 69.041V61.041H164.055L164.056 69.041ZM169.78 71.6895H177.78C177.78 69.7549 177.079 67.8859 175.807 66.4285L169.78 71.6895ZM169.78 71.6904H161.78C161.78 73.6481 162.498 75.5378 163.798 77.0018L169.78 71.6904ZM172 88.6533L180 88.6597V88.6533H172ZM168.177 88.6533H160.177V88.6597L168.177 88.6533ZM166.76 74.2832L161.066 79.9032C161.078 79.9154 161.091 79.9277 161.103 79.9399L166.76 74.2832ZM163.403 72.8652L163.404 64.8652H163.403V72.8652ZM160.046 74.2832L154.389 68.6263L154.389 68.6269L160.046 74.2832ZM158.629 88.6533L166.629 88.6597V88.6533H158.629ZM158.247 89.0352V97.0352L158.253 97.0352L158.247 89.0352ZM155.206 89.0352L155.197 97.0352H155.206V89.0352ZM154.824 88.6533H146.824V88.6597L154.824 88.6533ZM155.206 69.3584V61.3584L155.197 61.3584L155.206 69.3584ZM158.247 69.3584L158.253 61.3584H158.247V69.3584ZM158.629 70.3301H150.629L150.629 70.3387L158.629 70.3301ZM159.298 70.6406L164.148 77.0025L164.152 76.9994L159.298 70.6406ZM139.431 77.9482H131.431V77.949L139.431 77.9482ZM144.258 82.6836L144.407 90.6822L144.408 90.6822L144.258 82.6836ZM148.903 77.8682L156.903 77.8685V77.8682H148.903ZM152.355 69.3594L152.361 61.3594H152.355V69.3594ZM152.754 77.9482L160.754 77.9487V77.9482H152.754ZM144.104 86.5342L144.161 78.5344L144.161 78.5344L144.104 86.5342ZM135.58 77.8398H127.58V77.8399L135.58 77.8398ZM135.979 69.3594V61.3594L135.972 61.3594L135.979 69.3594ZM80.1826 72.8652L80.1831 64.8652H80.1826V72.8652ZM75.6875 74.75L70.0306 69.0931L70.0303 69.0935L75.6875 74.75ZM73.8037 79.2266H65.8037V79.2271L73.8037 79.2266ZM75.6875 83.7207L81.3465 78.066L81.3444 78.0639L75.6875 83.7207ZM80.1826 85.5859V93.5859H80.1831L80.1826 85.5859ZM84.6572 83.7207L90.3137 89.378L90.3141 89.3776L84.6572 83.7207ZM86.541 79.2266L94.541 79.2271V79.2266H86.541ZM84.6572 74.75L90.3141 69.0931L90.314 69.0931L84.6572 74.75ZM123.219 72.8652L123.219 64.8652H123.219V72.8652ZM118.725 74.75L113.068 69.0931L113.068 69.0931L118.725 74.75ZM116.86 79.2256L108.86 79.2251V79.2256H116.86ZM118.725 83.7207L124.381 78.0634L124.379 78.0617L118.725 83.7207ZM123.219 85.5859V93.5859H123.219L123.219 85.5859ZM127.713 83.7207L133.37 89.3777L133.37 89.3776L127.713 83.7207ZM129.596 79.2256H137.596V79.2251L129.596 79.2256ZM127.713 74.75L133.37 69.0934L133.37 69.0931L127.713 74.75ZM101.682 72.8652V64.8652H101.681L101.682 72.8652ZM97.9336 74.1162L102.722 80.5249C102.742 80.5098 102.762 80.4946 102.782 80.4793L97.9336 74.1162ZM95.7852 76.8301L103.163 79.9242C103.165 79.9191 103.167 79.9139 103.169 79.9088L95.7852 76.8301ZM96.1289 77.3232L96.1245 85.3232H96.1289V77.3232ZM107.578 76.8291L100.183 79.8816L100.187 79.8896L107.578 76.8291ZM105.43 74.1162L100.581 80.4793C100.635 80.5208 100.69 80.5615 100.746 80.6016L105.43 74.1162ZM122.901 69.043L122.901 77.043C123.336 77.043 123.577 77.1273 123.918 77.4016L128.93 71.166L133.941 64.9304C130.761 62.374 126.984 61.0431 122.902 61.043L122.901 69.043ZM128.93 71.166L123.912 77.3967C128.946 81.4511 137.594 78.5025 137.596 70.865L129.596 70.8633L121.596 70.8615C121.597 63.8926 129.435 61.3015 133.948 64.9353L128.93 71.166ZM129.596 70.8633H137.596V69.7422H129.596H121.596V70.8633H129.596ZM129.596 69.7422H137.596C137.596 73.9491 134.185 77.3594 129.979 77.3594V69.3594V61.3594C125.349 61.3594 121.596 65.1126 121.596 69.7422H129.596ZM129.979 69.3594V77.3594H133.037V69.3594V61.3594H129.979V69.3594ZM133.037 69.3594L133.037 77.3594C128.804 77.3593 125.419 73.9226 125.419 69.7422H133.419H141.419C141.419 65.1391 137.693 61.3595 133.037 61.3594L133.037 69.3594ZM133.419 69.7422H125.419V86.8721H133.419H141.419V69.7422H133.419ZM133.419 86.8721H125.419C125.419 87.4107 125.32 87.7497 124.777 88.2859L130.397 93.9785L136.018 99.6711C139.505 96.2288 141.419 91.8298 141.419 86.8721H133.419ZM130.397 93.9785L124.722 88.3401C124.19 88.8763 123.826 89 123.219 89L123.219 97L123.219 105C128.181 105 132.603 103.11 136.073 99.617L130.397 93.9785ZM123.219 97V89C122.947 89 122.667 88.948 122.264 88.7195L118.313 95.6758L114.362 102.632C117.069 104.169 120.059 105 123.219 105V97ZM118.313 95.6758L122.361 88.7752C121.928 88.5213 121.551 88.1902 121.202 87.7147L114.755 92.4512L108.308 97.1876C109.914 99.3738 111.909 101.194 114.266 102.576L118.313 95.6758ZM114.755 92.4512L121.208 87.7225C123.885 91.3754 122.761 96.316 119.223 98.621L114.856 91.918L110.49 85.2149C106.591 87.7547 105.372 93.1814 108.302 97.1799L114.755 92.4512ZM114.856 91.918L119.234 98.6143L121.814 96.9277L117.437 90.2314L113.059 83.5352L110.479 85.2217L114.856 91.918ZM117.437 90.2314L121.804 96.9343C118.216 99.272 113.721 98.13 111.476 95.0092L117.97 90.3369L124.464 85.6646C121.974 82.2044 117.008 80.9622 113.069 83.5286L117.437 90.2314ZM117.97 90.3369L111.479 95.0139C114.183 98.7662 118.244 101.177 123.219 101.177V93.1768V85.1768C123.28 85.1768 123.409 85.1841 123.584 85.2267C123.761 85.27 123.943 85.3392 124.112 85.4306C124.467 85.6225 124.558 85.7962 124.46 85.6599L117.97 90.3369ZM123.219 93.1768L123.219 101.177C127.053 101.177 130.823 99.8201 133.666 96.6967L127.75 91.3115L121.834 85.9264C122.04 85.6998 122.351 85.4657 122.723 85.3127C123.073 85.1687 123.28 85.1768 123.218 85.1768L123.219 93.1768ZM127.75 91.3115L133.684 96.677C135.685 94.4638 136.832 91.8286 137.315 89.0998L129.437 87.708L121.559 86.3163C121.541 86.4142 121.533 86.3938 121.578 86.2978C121.626 86.196 121.705 86.0683 121.816 85.946L127.75 91.3115ZM129.437 87.708L137.313 89.109C138.026 85.1023 135.806 81.7525 133 80.264C130.319 78.8421 126.744 78.8647 123.929 81.0347L128.814 87.3701L133.699 93.7055C131.16 95.6634 127.926 95.6841 125.503 94.3987C122.954 93.0468 120.908 89.972 121.56 86.307L129.437 87.708ZM128.814 87.3701L123.942 81.0254C123.654 81.2462 123.405 81.3525 122.901 81.3525L122.901 89.3525L122.902 97.3525C126.84 97.3524 130.534 96.1369 133.687 93.7148L128.814 87.3701ZM122.901 89.3525V81.3525C122.339 81.3525 122.086 81.2513 121.673 80.8222L115.908 86.3691L110.144 91.9161C113.559 95.4655 117.969 97.3525 122.901 97.3525V89.3525ZM115.908 86.3691L121.673 80.8222C121.195 80.3258 121.036 79.9462 121.036 79.2256H113.036H105.036C105.036 84.0764 106.793 88.4339 110.144 91.9161L115.908 86.3691ZM113.036 79.2256L121.036 79.2259C121.036 78.4904 121.206 78.0969 121.673 77.6113L115.908 72.0645L110.143 66.5176C106.783 70.0103 105.036 74.3898 105.036 79.2253L113.036 79.2256ZM115.908 72.0645L121.708 77.5748C122.13 77.1304 122.373 77.043 122.901 77.043V69.043V61.043C117.935 61.043 113.515 62.9692 110.109 66.5541L115.908 72.0645ZM138.43 86.9707L144.084 92.6304C141.656 95.0556 137.87 95.572 134.864 93.8079L138.913 86.9082L142.962 80.0085C139.642 78.0603 135.461 78.6287 132.776 81.311L138.43 86.9707ZM138.913 86.9082L134.848 93.7984C137.661 95.4581 140.866 96.334 144.168 96.334V88.334V80.334C143.713 80.334 143.317 80.218 142.978 80.018L138.913 86.9082ZM144.168 88.334L144.168 96.334C147.47 96.334 150.673 95.4583 153.485 93.8012L149.423 86.9092L145.361 80.0172C145.02 80.2178 144.623 80.334 144.168 80.334L144.168 88.334ZM149.423 86.9092L153.487 93.7997C150.453 95.5898 146.662 95.0411 144.249 92.6296L149.905 86.9717L155.561 81.3138C152.893 78.647 148.705 78.0447 145.358 80.0186L149.423 86.9092ZM149.905 86.9717L144.248 92.6285L146.459 94.8395L152.116 89.1826L157.773 83.5258L155.562 81.3148L149.905 86.9717ZM152.116 89.1826L146.459 83.5258L146.458 83.5267L152.115 89.1836L157.772 94.8404L157.773 94.8395L152.116 89.1826ZM152.115 89.1836L146.458 94.8404C143.119 91.5012 143.565 85.8444 147.619 83.1417L152.057 89.7979L156.495 96.454C160.965 93.4733 161.466 87.2211 157.772 83.5267L152.115 89.1836ZM152.057 89.7979L147.609 83.1478C146.631 83.8023 145.457 84.1855 144.167 84.1855L144.167 92.1855L144.167 100.186C148.713 100.186 152.969 98.8121 156.504 96.4479L152.057 89.7979ZM144.167 92.1855V84.1855C142.878 84.1855 141.702 83.802 140.722 83.1466L136.276 89.7979L131.831 96.4492C135.364 98.8105 139.619 100.186 144.167 100.186V92.1855ZM136.276 89.7979L140.721 83.146C144.761 85.8458 145.216 91.4977 141.875 94.8395L136.218 89.1826L130.561 83.5258C126.862 87.2244 127.372 93.47 131.832 96.4497L136.276 89.7979ZM136.218 89.1826L141.875 94.8395L144.087 92.6276L138.43 86.9707L132.773 81.3138L130.561 83.5258L136.218 89.1826ZM73.4229 63L73.4165 71C69.197 70.9966 65.8083 67.5747 65.8037 63.3906L73.8037 63.3818L81.8037 63.3731C81.7987 58.7669 78.0689 55.0037 73.4292 55L73.4229 63ZM73.8037 63.3818H65.8037V70.8506H73.8037H81.8037V63.3818H73.8037ZM73.8037 70.8506H65.8037C65.8037 78.5566 74.53 81.4191 79.522 77.3609L74.4756 71.1533L69.4292 64.9458C73.899 61.312 81.8037 63.817 81.8037 70.8506H73.8037ZM74.4756 71.1533L79.5213 77.3614C79.7889 77.1439 80.0041 77.043 80.499 77.043V69.043V61.043C76.4257 61.043 72.6242 62.3489 69.4298 64.9452L74.4756 71.1533ZM80.499 69.043L80.4988 77.043C80.9808 77.043 81.2345 77.1155 81.6928 77.5946L87.4736 72.0645L93.2544 66.5343C89.8583 62.9843 85.4626 61.0431 80.4993 61.043L80.499 69.043ZM87.4736 72.0645L81.6596 77.5596C82.2297 78.1629 82.3643 78.577 82.3643 79.2266H90.3643H98.3643C98.3643 74.3555 96.572 70.0441 93.2877 66.5693L87.4736 72.0645ZM90.3643 79.2266L82.3643 79.2262C82.3642 79.9027 82.2128 80.2989 81.711 80.8201L87.4736 86.3691L93.2363 91.9182C96.5888 88.4366 98.3641 84.0708 98.3643 79.2269L90.3643 79.2266ZM87.4736 86.3691L81.709 80.8222C81.2885 81.2591 81.0378 81.3525 80.4988 81.3525L80.499 89.3525L80.4993 97.3525C85.43 97.3524 89.8306 95.4575 93.2383 91.9161L87.4736 86.3691ZM80.499 89.3525V81.3525C79.9573 81.3525 79.7204 81.2373 79.4562 81.0268L74.4717 87.2842L69.4871 93.5415C72.6867 96.0902 76.4688 97.3525 80.499 97.3525V89.3525ZM74.4717 87.2842L79.4528 81.0241C74.4835 77.0701 65.806 79.8815 65.8037 87.5855L73.8037 87.5879L81.8037 87.5902C81.8016 94.6257 73.9358 97.0813 69.4906 93.5442L74.4717 87.2842ZM73.8037 87.5879H65.8037V88.6543H73.8037H81.8037V87.5879H73.8037ZM73.8037 88.6543L65.8037 88.6489C65.8065 84.4588 69.2005 81.0395 73.4165 81.0361L73.4229 89.0361L73.4292 97.0361C78.0655 97.0324 81.8006 93.272 81.8037 88.6597L73.8037 88.6543ZM73.4229 89.0361V81.0361H70.3818V89.0361V97.0361H73.4229V89.0361ZM70.3818 89.0361L70.3906 81.0361C74.5876 81.0407 77.9972 84.4425 78 88.6489L70 88.6543L62 88.6597C62.0031 93.2882 65.754 97.0311 70.3731 97.0361L70.3818 89.0361ZM70 88.6543H78V63.3818H70H62V88.6543H70ZM70 63.3818L78 63.3906C77.9954 67.591 74.591 70.9954 70.3906 71L70.3818 63L70.3731 55C65.7507 55.0051 62.0051 58.7507 62 63.3731L70 63.3818ZM70.3818 63V71H73.4229V63V55H70.3818V63ZM101.682 69.043V77.043C102.328 77.043 102.7 77.1801 103.223 77.7028L108.88 72.0459L114.537 66.389C111.055 62.9068 106.629 61.043 101.682 61.043V69.043ZM108.88 72.0459L103.223 77.7027C103.751 78.231 103.882 78.6 103.882 79.2259L111.882 79.2256L119.882 79.2253C119.882 74.2801 118.011 69.8635 114.537 66.3891L108.88 72.0459ZM111.882 79.2256H103.882C103.882 79.3677 103.872 79.5063 103.851 79.6427L111.766 80.8115L119.68 81.9803C119.816 81.0611 119.882 80.1411 119.882 79.2256H111.882ZM111.766 80.8115L103.852 79.6404C104.426 75.757 107.761 73.129 111.391 73.1279L111.394 81.1279L111.396 89.1279C115.398 89.1267 119.05 86.2342 119.679 81.9826L111.766 80.8115ZM111.394 81.1279V73.1279H96.1289V81.1279V89.1279H111.394V81.1279ZM96.1289 81.1279L96.1245 73.1279C90.6803 73.131 85.913 78.7145 88.3965 84.6917L95.7842 81.6221L103.172 78.5525C105.456 84.0508 101.057 89.1252 96.1334 89.1279L96.1289 81.1279ZM95.7842 81.6221L88.3875 84.67C89.4111 87.1539 91.0599 89.2346 93.2013 90.8057L97.9336 84.3555L102.666 77.9052C102.735 77.956 102.842 78.0493 102.952 78.189C103.062 78.3294 103.137 78.4672 103.181 78.5742L95.7842 81.6221ZM97.9336 84.3555L93.2044 90.808C95.685 92.6261 98.5883 93.5859 101.681 93.5859L101.682 85.5859L101.682 77.5859C101.798 77.5859 101.986 77.6054 102.206 77.6775C102.425 77.7494 102.581 77.8428 102.663 77.903L97.9336 84.3555ZM101.682 85.5859V93.5859C106.649 93.5859 110.724 91.1931 113.439 87.4219L106.947 82.7471L100.455 78.0722C100.362 78.2012 100.458 78.0255 100.812 77.8343C100.981 77.7435 101.16 77.6758 101.333 77.6338C101.504 77.5925 101.627 77.5859 101.682 77.5859V85.5859ZM106.947 82.7471L113.438 87.4237C111.18 90.5575 106.669 91.6795 103.09 89.3298L107.481 82.6426L111.872 75.9553C107.943 73.3751 102.961 74.5952 100.457 78.0704L106.947 82.7471ZM107.481 82.6426L103.089 89.3286L105.657 91.0161L110.05 84.3301L114.443 77.6441L111.874 75.9566L107.481 82.6426ZM110.05 84.3301L105.653 91.0136C102.158 88.7145 101.049 83.8511 103.635 80.2185L110.152 84.8584L116.669 89.4982C119.501 85.5203 118.296 80.1787 114.446 77.6466L110.05 84.3301ZM110.152 84.8584L103.629 80.2269C102.924 81.2199 102.478 81.3525 101.682 81.3525V89.3525V97.3525C107.925 97.3525 113.126 94.4891 116.675 89.4899L110.152 84.8584ZM101.682 89.3525L101.682 81.3525C100.984 81.3525 100.596 81.1968 100.088 80.6974L94.4834 86.4062L88.879 92.1151C92.3732 95.5453 96.7833 97.3525 101.682 97.3525L101.682 89.3525ZM94.4834 86.4062L100.14 80.7495C99.6427 80.2518 99.5 79.8894 99.5 79.2256H91.5H83.5C83.5 84.1575 85.3458 88.5822 88.8264 92.063L94.4834 86.4062ZM91.5 79.2256L99.5 79.2259C99.5 78.5626 99.6424 78.2006 100.14 77.7026L94.4834 72.0459L88.8264 66.3892C85.3463 69.8694 83.5002 74.2932 83.5 79.2253L91.5 79.2256ZM94.4834 72.0459L100.142 77.7014C100.662 77.1809 101.034 77.043 101.682 77.043L101.682 69.043L101.682 61.043C96.7353 61.0431 92.3079 62.9061 88.8252 66.3904L94.4834 72.0459ZM164.056 69.041V77.041C164.105 77.041 164.095 77.0455 164.041 77.0341C163.985 77.0224 163.912 76.9999 163.834 76.9638C163.757 76.928 163.705 76.893 163.684 76.8764C163.664 76.8612 163.69 76.8773 163.753 76.9504L169.78 71.6895L175.807 66.4285C172.799 62.9823 168.719 61.041 164.056 61.041V69.041ZM169.78 71.6895H161.78V71.6904H169.78H177.78V71.6895H169.78ZM169.78 71.6904L163.798 77.0018C163.918 77.137 163.943 77.2056 163.95 77.2244C163.958 77.247 164 77.3621 164 77.6396H172H180C180 73.449 178.586 69.5587 175.763 66.3791L169.78 71.6904ZM172 77.6396H164V88.6533H172H180V77.6396H172ZM172 88.6533L164 88.6469C164.003 84.4246 167.43 81.0352 171.617 81.0352V89.0352V97.0352C176.226 97.0352 179.996 93.3044 180 88.6597L172 88.6533ZM171.617 89.0352V81.0352H168.559V89.0352V97.0352H171.617V89.0352ZM168.559 89.0352V81.0352C172.76 81.0352 176.173 84.4384 176.177 88.6469L168.177 88.6533L160.177 88.6597C160.18 93.2906 163.936 97.0352 168.559 97.0352V89.0352ZM168.177 88.6533H176.177V77.6396H168.177H160.177V88.6533H168.177ZM168.177 77.6396H176.177C176.177 74.1487 174.806 71.0163 172.417 68.6265L166.76 74.2832L161.103 79.9399C160.918 79.7551 160.656 79.4244 160.452 78.9421C160.247 78.4547 160.177 77.9923 160.177 77.6396H168.177ZM166.76 74.2832L172.453 68.6633C170.041 66.2195 166.87 64.8654 163.404 64.8652L163.403 72.8652L163.403 80.8652C163.053 80.8652 162.595 80.7966 162.11 80.592C161.626 80.3882 161.279 80.1185 161.066 79.9032L166.76 74.2832ZM163.403 72.8652V64.8652C159.908 64.8652 156.777 66.2388 154.389 68.6263L160.046 74.2832L165.703 79.9401C165.519 80.1238 165.189 80.3857 164.707 80.5893C164.22 80.7952 163.757 80.8652 163.403 80.8652V72.8652ZM160.046 74.2832L154.389 68.6269C152 71.0155 150.629 74.1466 150.629 77.6396H158.629H166.629C166.629 77.9919 166.559 78.4545 166.353 78.9425C166.149 79.4252 165.887 79.7557 165.703 79.9395L160.046 74.2832ZM158.629 77.6396H150.629V88.6533H158.629H166.629V77.6396H158.629ZM158.629 88.6533L150.629 88.6469C150.632 84.4448 154.038 81.0385 158.241 81.0352L158.247 89.0352L158.253 97.0352C162.878 97.0315 166.625 93.284 166.629 88.6597L158.629 88.6533ZM158.247 89.0352V81.0352H155.206V89.0352V97.0352H158.247V89.0352ZM155.206 89.0352L155.215 81.0352C159.413 81.0398 162.821 84.4423 162.824 88.6469L154.824 88.6533L146.824 88.6597C146.828 93.2864 150.577 97.0301 155.197 97.0352L155.206 89.0352ZM154.824 88.6533H162.824V69.7412H154.824H146.824V88.6533H154.824ZM154.824 69.7412H162.824C162.824 73.9304 159.433 77.3538 155.215 77.3584L155.206 69.3584L155.197 61.3584C150.557 61.3635 146.824 65.1296 146.824 69.7412H154.824ZM155.206 69.3584V77.3584H158.247V69.3584V61.3584H155.206V69.3584ZM158.247 69.3584L158.241 77.3584C154.018 77.3551 150.629 73.9279 150.629 69.7412H158.629H166.629C166.629 65.132 162.898 61.3621 158.253 61.3584L158.247 69.3584ZM158.629 69.7412H150.629V70.3301H158.629H166.629V69.7412H158.629ZM158.629 70.3301L150.629 70.3387C150.637 78.0247 159.215 80.7638 164.148 77.0025L159.298 70.6406L154.447 64.2787C156.922 62.3923 159.947 62.386 162.187 63.4086C164.478 64.4545 166.625 66.9204 166.629 70.3215L158.629 70.3301ZM159.298 70.6406L164.152 76.9994C164.176 76.9816 164.179 76.9819 164.162 76.991C164.144 77.0004 164.117 77.0128 164.084 77.0239C164.051 77.0349 164.026 77.0402 164.013 77.0422C164.002 77.0441 164.014 77.041 164.056 77.041L164.056 69.041L164.055 61.041C160.547 61.0411 157.251 62.1382 154.443 64.2819L159.298 70.6406ZM139.031 69.3594V77.3594C134.834 77.3594 131.431 73.9563 131.431 69.7588H139.431H147.431C147.431 65.1198 143.67 61.3594 139.031 61.3594V69.3594ZM139.431 69.7588H131.431V77.9482H139.431H147.431V69.7588H139.431ZM139.431 77.9482L131.431 77.949C131.431 85.0585 137.27 90.8156 144.407 90.6822L144.258 82.6836L144.108 74.685C145.94 74.6508 147.43 76.1214 147.431 77.9475L139.431 77.9482ZM144.258 82.6836L144.408 90.6822C151.536 90.5479 156.903 84.6445 156.903 77.8685L148.903 77.8682L140.903 77.8678C140.903 76.28 142.166 74.7216 144.107 74.685L144.258 82.6836ZM148.903 77.8682H156.903V69.7588H148.903H140.903V77.8682H148.903ZM148.903 69.7588H156.903C156.903 73.9563 153.5 77.3594 149.303 77.3594V69.3594V61.3594C144.664 61.3594 140.903 65.1198 140.903 69.7588H148.903ZM149.303 69.3594V77.3594H152.355V69.3594V61.3594H149.303V69.3594ZM152.355 69.3594L152.35 77.3594C148.136 77.3565 144.754 73.9363 144.754 69.7588H152.754H160.754C160.754 65.1401 157.016 61.3625 152.361 61.3594L152.355 69.3594ZM152.754 69.7588H144.754V77.9482H152.754H160.754V69.7588H152.754ZM152.754 77.9482L144.754 77.9478C144.754 78.2742 144.49 78.5368 144.161 78.5344L144.104 86.5342L144.046 94.534C153.261 94.6007 160.753 87.1511 160.754 77.9487L152.754 77.9482ZM144.104 86.5342L144.161 78.5344C144.043 78.5335 143.921 78.4954 143.792 78.3636C143.657 78.2248 143.58 78.0436 143.58 77.8398L135.58 77.8398L127.58 77.8399C127.58 86.8387 134.783 94.4678 144.046 94.534L144.104 86.5342ZM135.58 77.8398H143.58V69.7588H135.58H127.58V77.8398H135.58ZM135.58 69.7588H143.58C143.58 73.9372 140.197 77.3561 135.985 77.3594L135.979 69.3594L135.972 61.3594C131.319 61.363 127.58 65.1392 127.58 69.7588H135.58ZM135.979 69.3594V77.3594H139.031V69.3594V61.3594H135.979V69.3594ZM80.1826 72.8652V64.8652C76.27 64.8652 72.7506 66.3732 70.0306 69.0931L75.6875 74.75L81.3444 80.4069C81.3066 80.4447 81.1418 80.5907 80.8473 80.7142C80.5494 80.8391 80.2993 80.8652 80.1826 80.8652V72.8652ZM75.6875 74.75L70.0303 69.0935C67.3273 71.7968 65.8037 75.2916 65.8037 79.2266H73.8037H81.8037C81.8037 79.3447 81.7769 79.6052 81.6462 79.915C81.5178 80.2196 81.3691 80.3821 81.3447 80.4065L75.6875 74.75ZM73.8037 79.2266L65.8037 79.2271C65.804 83.1369 67.3092 86.6561 70.0306 89.3775L75.6875 83.7207L81.3444 78.0639C81.3827 78.1022 81.5291 78.2676 81.6528 78.5627C81.7779 78.861 81.8037 79.1108 81.8037 79.226L73.8037 79.2266ZM75.6875 83.7207L70.0285 89.3754C72.7747 92.1237 76.3239 93.5859 80.1826 93.5859V85.5859V77.5859C80.284 77.5859 80.5192 77.6083 80.8084 77.728C81.098 77.8479 81.2783 77.9977 81.3465 78.066L75.6875 83.7207ZM80.1826 85.5859L80.1831 93.5859C84.071 93.5857 87.589 92.1022 90.3137 89.378L84.6572 83.7207L79.0008 78.0634C79.0517 78.0125 79.2274 77.8607 79.5278 77.7355C79.8299 77.6095 80.0772 77.5859 80.1821 77.5859L80.1826 85.5859ZM84.6572 83.7207L90.3141 89.3776C93.0415 86.6501 94.5408 83.1164 94.541 79.2271L86.541 79.2266L78.541 79.226C78.541 79.0997 78.5687 78.8527 78.6896 78.5635C78.8096 78.2767 78.9533 78.1109 79.0004 78.0638L84.6572 83.7207ZM86.541 79.2266H94.541C94.541 75.3124 93.024 71.8031 90.3141 69.0931L84.6572 74.75L79.0004 80.4069C78.9671 80.3736 78.8211 80.2107 78.6963 79.914C78.5696 79.613 78.541 79.3554 78.541 79.2266H86.541ZM84.6572 74.75L90.314 69.0931C87.6143 66.3934 84.1228 64.8655 80.1831 64.8652L80.1826 72.8652L80.1821 80.8652C80.0626 80.8652 79.8006 80.838 79.4897 80.7067C79.1844 80.5778 79.0227 80.4292 79.0004 80.4069L84.6572 74.75ZM123.219 72.8652V64.8652C119.293 64.8652 115.766 66.3947 113.068 69.0931L118.725 74.75L124.381 80.4069C124.333 80.455 124.17 80.5966 123.888 80.7153C123.601 80.8357 123.353 80.8652 123.219 80.8652V72.8652ZM118.725 74.75L113.068 69.0931C110.345 71.8157 108.861 75.3215 108.86 79.2251L116.86 79.2256L124.86 79.2261C124.86 79.3175 124.839 79.5666 124.709 79.8776C124.58 80.1866 124.425 80.3632 124.381 80.4069L118.725 74.75ZM116.86 79.2256H108.86C108.86 83.1017 110.325 86.6371 113.07 89.3797L118.725 83.7207L124.379 78.0617C124.44 78.122 124.593 78.3027 124.716 78.6011C124.84 78.8995 124.86 79.137 124.86 79.2256H116.86ZM118.725 83.7207L113.068 89.378C115.806 92.1151 119.336 93.5859 123.219 93.5859V85.5859V77.5859C123.31 77.5859 123.549 77.6067 123.848 77.7307C124.146 77.8545 124.324 78.0066 124.381 78.0634L118.725 83.7207ZM123.219 85.5859L123.219 93.5859C127.101 93.5858 130.632 92.1157 133.37 89.3777L127.713 83.7207L122.056 78.0638C122.113 78.0067 122.292 77.8544 122.59 77.7306C122.889 77.6066 123.128 77.5859 123.218 77.5859L123.219 85.5859ZM127.713 83.7207L133.37 89.3776C136.1 86.6471 137.596 83.1114 137.596 79.2256H129.596H121.596C121.596 79.101 121.623 78.8549 121.744 78.5658C121.864 78.2788 122.008 78.1122 122.056 78.0638L127.713 83.7207ZM129.596 79.2256L137.596 79.2251C137.595 75.3135 136.081 71.8045 133.37 69.0934L127.713 74.75L122.056 80.4066C122.022 80.3728 121.876 80.2094 121.751 79.9123C121.624 79.6111 121.596 79.3539 121.596 79.2261L129.596 79.2256ZM127.713 74.75L133.37 69.0931C130.651 66.374 127.132 64.8654 123.219 64.8652L123.219 72.8652L123.218 80.8652C123.102 80.8652 122.851 80.8391 122.553 80.7139C122.258 80.5903 122.093 80.4441 122.056 80.4069L127.713 74.75ZM101.682 72.8652L101.681 64.8652C98.5621 64.8653 95.6009 65.8357 93.0848 67.7531L97.9336 74.1162L102.782 80.4793C102.661 80.5717 102.47 80.6845 102.224 80.7665C101.981 80.8479 101.784 80.8652 101.682 80.8652L101.682 72.8652ZM97.9336 74.1162L93.1452 67.7075C91.0819 69.2492 89.4327 71.2776 88.4013 73.7513L95.7852 76.8301L103.169 79.9088C103.113 80.0431 103.031 80.1844 102.93 80.3121C102.831 80.4376 102.748 80.5053 102.722 80.5249L97.9336 74.1162ZM95.7852 76.8301L88.4077 73.736C85.8849 79.7514 90.709 85.3202 96.1245 85.3232L96.1289 77.3232L96.1333 69.3232C101.029 69.326 105.485 74.3876 103.163 79.9242L95.7852 76.8301ZM96.1289 77.3232V85.3232H107.233V77.3232V69.3232H96.1289V77.3232ZM107.233 77.3232V85.3232C112.683 85.3232 117.442 79.7405 114.97 73.7686L107.578 76.8291L100.187 79.8896C97.9131 74.3986 102.304 69.3232 107.233 69.3232V77.3232ZM107.578 76.8291L114.973 73.7766C113.944 71.2843 112.282 69.1968 110.114 67.6308L105.43 74.1162L100.746 80.6016C100.664 80.5429 100.547 80.4404 100.428 80.2904C100.309 80.14 100.23 79.9936 100.183 79.8816L107.578 76.8291ZM105.43 74.1162L110.279 67.7531C107.762 65.8358 104.801 64.8652 101.682 64.8652V72.8652V80.8652C101.579 80.8652 101.383 80.8479 101.139 80.7664C100.893 80.6844 100.702 80.5715 100.581 80.4793L105.43 74.1162Z" fill="#E6E2DE" mask="url(#path-4-outside-1_1195_165)"/>
</svg>
