<svg width="242" height="185" viewBox="0 0 242 185" fill="none" xmlns="http://www.w3.org/2000/svg">
<rect y="25" width="242" height="160" rx="12" fill="#E6E2DE"/>
<path d="M107.065 96.624C107.065 98.752 105.497 100 102.969 100H98.4727V88.512H102.793C105.209 88.512 106.697 89.6 106.697 91.568C106.697 92.624 106.105 93.472 105.081 94C106.361 94.448 107.065 95.36 107.065 96.624ZM102.601 90.432H100.681V93.104H102.601C103.785 93.104 104.393 92.592 104.393 91.76C104.393 90.944 103.785 90.432 102.601 90.432ZM102.777 95.04H100.681V98.08H102.777C104.089 98.08 104.777 97.504 104.777 96.528C104.777 95.616 104.089 95.04 102.777 95.04ZM112.192 100.144C109.632 100.144 107.92 98.368 107.92 95.696C107.92 93.152 109.696 91.296 112.16 91.296C114.864 91.296 116.656 93.488 116.256 96.272H110.192C110.336 97.664 111.008 98.432 112.144 98.432C113.12 98.432 113.776 97.952 114.032 97.104H116.24C115.76 99.04 114.272 100.144 112.192 100.144ZM112.112 92.928C111.072 92.928 110.416 93.6 110.224 94.864H113.904C113.84 93.68 113.168 92.928 112.112 92.928ZM121.062 103.248C118.758 103.248 117.222 102 117.126 100.032H119.27C119.366 101.008 119.99 101.52 121.046 101.52C122.278 101.52 122.918 100.864 122.918 99.632V98.384C122.454 99.2 121.574 99.68 120.534 99.68C118.438 99.68 116.87 97.904 116.87 95.488C116.87 93.008 118.342 91.296 120.454 91.296C121.606 91.296 122.47 91.744 123.094 92.624V91.456H125.126V99.6C125.126 101.872 123.59 103.248 121.062 103.248ZM119.094 95.488C119.094 96.88 119.814 97.76 120.966 97.76C122.134 97.76 122.902 96.848 122.902 95.504C122.902 94.112 122.134 93.216 120.966 93.216C119.83 93.216 119.094 94.096 119.094 95.488ZM132.173 96.4V91.456H134.381V100H132.349V98.88C131.885 99.632 130.941 100.16 129.853 100.16C128.141 100.16 126.893 99.12 126.893 96.896V91.456H129.117V96.464C129.117 97.664 129.709 98.192 130.605 98.192C131.405 98.192 132.173 97.552 132.173 96.4ZM138.443 95.344V100H136.219V91.456H138.267V92.672C138.891 91.824 139.771 91.296 140.891 91.296C142.603 91.296 143.787 92.416 143.787 94.48V100H141.579V95.232C141.579 93.968 141.083 93.264 140.075 93.264C139.195 93.264 138.443 93.968 138.443 95.344Z" fill="#1A1A1A"/>
<path d="M91.4134 120H85.3234V109.948H86.8634V118.614H91.4134V120ZM95.4359 120.14C93.3359 120.14 91.7959 118.488 91.7959 116.29C91.7959 114.092 93.3359 112.44 95.4359 112.44C97.5359 112.44 99.0759 114.092 99.0759 116.29C99.0759 118.488 97.5359 120.14 95.4359 120.14ZM95.4359 118.894C96.6539 118.894 97.6199 117.914 97.6199 116.29C97.6199 114.666 96.6539 113.7 95.4359 113.7C94.2179 113.7 93.2659 114.666 93.2659 116.29C93.2659 117.914 94.2179 118.894 95.4359 118.894ZM103.069 122.856C101.123 122.856 99.8626 121.82 99.7786 120.14H101.151C101.235 121.176 101.907 121.736 103.055 121.736C104.329 121.736 105.001 121.05 105.001 119.776V118.432C104.581 119.328 103.741 119.846 102.733 119.846C100.885 119.846 99.5686 118.32 99.5686 116.136C99.5686 113.924 100.829 112.44 102.691 112.44C103.755 112.44 104.595 112.958 105.099 113.896V112.58H106.415V119.748C106.415 121.694 105.169 122.856 103.069 122.856ZM100.997 116.136C100.997 117.676 101.753 118.614 102.985 118.614C104.189 118.614 105.001 117.648 105.001 116.178C105.001 114.638 104.203 113.658 102.985 113.658C101.767 113.658 100.997 114.61 100.997 116.136ZM111.2 120.14C109.1 120.14 107.56 118.488 107.56 116.29C107.56 114.092 109.1 112.44 111.2 112.44C113.3 112.44 114.84 114.092 114.84 116.29C114.84 118.488 113.3 120.14 111.2 120.14ZM111.2 118.894C112.418 118.894 113.384 117.914 113.384 116.29C113.384 114.666 112.418 113.7 111.2 113.7C109.982 113.7 109.03 114.666 109.03 116.29C109.03 117.914 109.982 118.894 111.2 118.894ZM117.714 119.398C117.714 120.728 116.664 121.764 115.124 121.792V120.994C116.034 120.966 116.65 120.476 116.734 119.79C116.608 119.832 116.524 119.846 116.426 119.846C115.894 119.846 115.502 119.412 115.502 118.894C115.502 118.292 115.95 117.9 116.524 117.9C117.294 117.9 117.714 118.46 117.714 119.398ZM129.023 117.116C129.023 118.95 127.679 120 125.593 120H121.911V109.948H125.397C127.427 109.948 128.645 110.886 128.645 112.58C128.645 113.532 128.071 114.344 127.105 114.764C128.351 115.114 129.023 115.968 129.023 117.116ZM125.299 111.18H123.325V114.204H125.299C126.517 114.204 127.175 113.63 127.175 112.692C127.175 111.754 126.517 111.18 125.299 111.18ZM125.495 115.436H123.325V118.768H125.495C126.811 118.768 127.553 118.138 127.553 117.074C127.553 116.052 126.811 115.436 125.495 115.436ZM131.82 116.206V120H130.406V112.58H131.722V114.148C132.24 113.126 133.36 112.482 134.578 112.482V113.952C132.982 113.868 131.82 114.568 131.82 116.206ZM139.911 120V118.852C139.449 119.678 138.623 120.14 137.531 120.14C135.991 120.14 134.983 119.258 134.983 117.9C134.983 116.444 136.145 115.688 138.357 115.688C138.791 115.688 139.141 115.702 139.743 115.772V115.226C139.743 114.162 139.169 113.56 138.189 113.56C137.153 113.56 136.523 114.176 136.481 115.212H135.193C135.263 113.546 136.453 112.44 138.189 112.44C140.023 112.44 141.087 113.476 141.087 115.24V120H139.911ZM136.327 117.858C136.327 118.628 136.901 119.132 137.811 119.132C139.001 119.132 139.743 118.39 139.743 117.256V116.654C139.197 116.584 138.805 116.57 138.441 116.57C137.027 116.57 136.327 116.99 136.327 117.858ZM144.111 115.814V120H142.697V112.58H144.013V113.812C144.517 112.986 145.357 112.44 146.379 112.44C147.905 112.44 148.913 113.42 148.913 115.198V120H147.499V115.674C147.499 114.4 146.939 113.686 145.889 113.686C144.923 113.686 144.111 114.498 144.111 115.814ZM149.979 116.29C149.979 114.036 151.267 112.44 153.269 112.44C154.263 112.44 155.131 112.944 155.649 113.854V109.948H157.063V120H155.747V118.67C155.215 119.608 154.319 120.14 153.269 120.14C151.267 120.14 149.979 118.516 149.979 116.29ZM151.449 116.29C151.449 117.942 152.317 118.88 153.549 118.88C154.753 118.88 155.649 117.9 155.649 116.262C155.649 114.596 154.725 113.686 153.549 113.686C152.317 113.686 151.449 114.61 151.449 116.29ZM76.6535 137H75.1135V126.948H76.6535V137ZM77.9083 133.29C77.9083 131.036 79.1963 129.44 81.1983 129.44C82.1923 129.44 83.0603 129.944 83.5783 130.854V126.948H84.9923V137H83.6763V135.67C83.1443 136.608 82.2483 137.14 81.1983 137.14C79.1963 137.14 77.9083 135.516 77.9083 133.29ZM79.3783 133.29C79.3783 134.942 80.2463 135.88 81.4783 135.88C82.6823 135.88 83.5783 134.9 83.5783 133.262C83.5783 131.596 82.6543 130.686 81.4783 130.686C80.2463 130.686 79.3783 131.61 79.3783 133.29ZM89.7298 137.14C87.5878 137.14 86.1458 135.586 86.1458 133.248C86.1458 131.05 87.6438 129.44 89.6878 129.44C91.8998 129.44 93.3698 131.232 93.1178 133.64H87.5878C87.6998 135.152 88.4558 136.034 89.7018 136.034C90.7518 136.034 91.4798 135.46 91.7178 134.494H93.1178C92.7538 136.146 91.4798 137.14 89.7298 137.14ZM89.6598 130.504C88.5258 130.504 87.7558 131.316 87.6018 132.702H91.6198C91.5498 131.33 90.8078 130.504 89.6598 130.504ZM95.7552 132.814V137H94.3412V129.58H95.6572V130.812C96.1612 129.986 97.0012 129.44 98.0232 129.44C99.5492 129.44 100.557 130.42 100.557 132.198V137H99.1432V132.674C99.1432 131.4 98.5832 130.686 97.5332 130.686C96.5672 130.686 95.7552 131.498 95.7552 132.814ZM106.314 135.628V136.874C105.88 137.07 105.502 137.14 105.054 137.14C103.682 137.14 102.73 136.398 102.73 134.76V130.784H101.092V129.58H102.73V127.382H104.144V129.58H106.384V130.784H104.144V134.438C104.144 135.46 104.634 135.824 105.39 135.824C105.726 135.824 106.02 135.768 106.314 135.628ZM109.175 127.858C109.175 128.39 108.755 128.796 108.153 128.796C107.551 128.796 107.117 128.39 107.117 127.858C107.117 127.312 107.551 126.92 108.153 126.92C108.755 126.92 109.175 127.312 109.175 127.858ZM108.867 137H107.453V129.58H108.867V137ZM114.736 135.628V136.874C114.302 137.07 113.924 137.14 113.476 137.14C112.104 137.14 111.152 136.398 111.152 134.76V130.784H109.514V129.58H111.152V127.382H112.566V129.58H114.806V130.784H112.566V134.438C112.566 135.46 113.056 135.824 113.812 135.824C114.148 135.824 114.442 135.768 114.736 135.628ZM122.036 129.58L118.326 139.702H116.786L117.85 136.902L114.924 129.58H116.45L118.606 135.236L120.608 129.58H122.036ZM128.695 137H125.517V126.948H128.695C131.901 126.948 133.749 128.992 133.749 131.932C133.749 134.83 131.831 137 128.695 137ZM127.057 128.278V135.67H128.625C130.935 135.67 132.181 134.242 132.181 131.932C132.181 129.664 130.949 128.278 128.625 128.278H127.057ZM138.021 137.14C135.879 137.14 134.437 135.586 134.437 133.248C134.437 131.05 135.935 129.44 137.979 129.44C140.191 129.44 141.661 131.232 141.409 133.64H135.879C135.991 135.152 136.747 136.034 137.993 136.034C139.043 136.034 139.771 135.46 140.009 134.494H141.409C141.045 136.146 139.771 137.14 138.021 137.14ZM137.951 130.504C136.817 130.504 136.047 131.316 135.893 132.702H139.911C139.841 131.33 139.099 130.504 137.951 130.504ZM148.512 134.788C148.512 136.244 147.378 137.14 145.404 137.14C143.444 137.14 142.282 136.174 142.142 134.578H143.5C143.556 135.502 144.298 136.076 145.432 136.076C146.426 136.076 147.084 135.726 147.084 135.026C147.084 134.41 146.706 134.144 145.782 133.962L144.578 133.738C143.206 133.472 142.436 132.772 142.436 131.652C142.436 130.35 143.57 129.44 145.292 129.44C147.07 129.44 148.274 130.392 148.4 131.918H147.042C146.958 131.022 146.3 130.504 145.306 130.504C144.41 130.504 143.808 130.882 143.808 131.526C143.808 132.128 144.186 132.408 145.082 132.576L146.342 132.814C147.812 133.08 148.512 133.724 148.512 134.788ZM151.498 127.858C151.498 128.39 151.078 128.796 150.476 128.796C149.874 128.796 149.44 128.39 149.44 127.858C149.44 127.312 149.874 126.92 150.476 126.92C151.078 126.92 151.498 127.312 151.498 127.858ZM151.19 137H149.776V129.58H151.19V137ZM155.841 139.856C153.895 139.856 152.635 138.82 152.551 137.14H153.923C154.007 138.176 154.679 138.736 155.827 138.736C157.101 138.736 157.773 138.05 157.773 136.776V135.432C157.353 136.328 156.513 136.846 155.505 136.846C153.657 136.846 152.341 135.32 152.341 133.136C152.341 130.924 153.601 129.44 155.463 129.44C156.527 129.44 157.367 129.958 157.871 130.896V129.58H159.187V136.748C159.187 138.694 157.941 139.856 155.841 139.856ZM153.769 133.136C153.769 134.676 154.525 135.614 155.757 135.614C156.961 135.614 157.773 134.648 157.773 133.178C157.773 131.638 156.975 130.658 155.757 130.658C154.539 130.658 153.769 131.61 153.769 133.136ZM162.279 132.814V137H160.865V129.58H162.181V130.812C162.685 129.986 163.525 129.44 164.547 129.44C166.073 129.44 167.081 130.42 167.081 132.198V137H165.667V132.674C165.667 131.4 165.107 130.686 164.057 130.686C163.091 130.686 162.279 131.498 162.279 132.814Z" fill="#1A1A1A"/>
<mask id="path-4-outside-1_1173_4" maskUnits="userSpaceOnUse" x="62" y="0" width="118" height="50" fill="black">
<rect fill="white" x="62" width="118" height="50"/>
<path d="M122.901 14.043C125.16 14.0431 127.169 14.7507 128.93 16.166C129.191 16.3763 129.596 16.1976 129.596 15.8633V14.7422C129.596 14.5309 129.767 14.3594 129.979 14.3594H133.037C133.248 14.3594 133.419 14.5309 133.419 14.7422V31.8721C133.419 34.6202 132.412 36.9892 130.397 38.9785C128.396 40.9929 126.003 41.9999 123.219 42C121.503 42 119.868 41.5587 118.313 40.6758C116.919 39.8577 115.733 38.782 114.755 37.4512C114.628 37.2784 114.676 37.0354 114.856 36.918L117.437 35.2314C117.612 35.1171 117.848 35.1672 117.97 35.3369C119.333 37.2295 121.083 38.1768 123.219 38.1768C125.108 38.1767 126.618 37.5548 127.75 36.3115C128.619 35.3507 129.182 34.1488 129.437 32.708C129.497 32.3663 129.09 32.158 128.814 32.3701C127.094 33.6915 125.122 34.3525 122.901 34.3525C120.154 34.3525 117.822 33.3584 115.908 31.3691C113.994 29.3799 113.036 27.0113 113.036 24.2256C113.036 21.4401 113.994 19.0536 115.908 17.0645C117.822 15.0498 120.154 14.043 122.901 14.043ZM138.429 31.9707C138.557 31.842 138.756 31.8171 138.913 31.9092C140.489 32.8389 142.29 33.335 144.168 33.335C146.046 33.3349 147.847 32.839 149.423 31.9102C149.579 31.8182 149.778 31.8442 149.905 31.9717L152.116 34.1826L152.115 34.1836C152.293 34.361 152.265 34.6588 152.057 34.7979C149.8 36.3072 147.085 37.1855 144.167 37.1855C141.249 37.1855 138.533 36.3062 136.276 34.7979C136.067 34.6579 136.038 34.361 136.217 34.1826L138.429 31.9707ZM73.4229 8C73.633 8.00017 73.8035 8.17081 73.8037 8.38184V15.8506C73.8037 16.1868 74.2145 16.3656 74.4756 16.1533C76.2065 14.7464 78.2149 14.043 80.499 14.043C83.2217 14.0431 85.5464 15.0499 87.4736 17.0645C89.4009 19.1035 90.3643 21.4662 90.3643 24.2266C90.3641 26.9867 89.4008 29.3678 87.4736 31.3691C85.5596 33.3583 83.2339 34.3525 80.499 34.3525C78.2131 34.3525 76.2036 33.6638 74.4717 32.2842C74.2097 32.0757 73.8038 32.2536 73.8037 32.5879V33.6543C73.8036 33.8654 73.633 34.036 73.4229 34.0361H70.3818C70.1708 34.0359 70.0001 33.8654 70 33.6543V8.38184C70.0002 8.17085 70.1709 8.00023 70.3818 8H73.4229ZM101.682 14.043C104.479 14.043 106.877 15.0435 108.88 17.0459C110.881 19.0473 111.882 21.4401 111.882 24.2256C111.882 24.7544 111.844 25.2837 111.766 25.8115C111.738 25.9956 111.579 26.1279 111.394 26.1279H96.1289C95.8689 26.1281 95.6847 26.3827 95.7842 26.6221C96.2397 27.7275 96.9568 28.6388 97.9336 29.3555C99.0521 30.1752 100.301 30.5859 101.682 30.5859C103.829 30.5859 105.584 29.6396 106.947 27.7471C107.07 27.5763 107.306 27.5273 107.481 27.6426L110.05 29.3301C110.227 29.4466 110.275 29.6857 110.152 29.8584C108.025 32.8545 105.202 34.3525 101.682 34.3525C98.8838 34.3525 96.4848 33.3711 94.4834 31.4062C92.4943 29.417 91.5 27.0234 91.5 24.2256C91.5001 21.4279 92.4944 19.035 94.4834 17.0459C96.4848 15.0435 98.8847 14.043 101.682 14.043ZM164.056 14.042C166.33 14.042 168.239 14.9248 169.78 16.6904V16.6914C171.26 18.3576 172 20.3405 172 22.6406V33.6543C172 33.8654 171.828 34.0361 171.617 34.0361H168.559C168.348 34.0361 168.177 33.8654 168.177 33.6543V22.6406C168.177 21.3483 167.704 20.229 166.76 19.2842C165.827 18.3394 164.697 17.8663 163.403 17.8662C162.11 17.8662 160.991 18.3393 160.046 19.2842C159.101 20.229 158.629 21.3475 158.629 22.6406V33.6543C158.629 33.8653 158.458 34.0359 158.247 34.0361H155.206C154.995 34.0359 154.824 33.8653 154.824 33.6543V14.7412C154.824 14.5302 154.995 14.3596 155.206 14.3594H158.247C158.458 14.3596 158.629 14.5302 158.629 14.7412V15.3301C158.629 15.6635 159.033 15.8435 159.298 15.6416C160.695 14.5747 162.282 14.042 164.056 14.042ZM139.031 14.3594C139.252 14.3594 139.431 14.5381 139.431 14.7588V22.9482C139.431 25.59 141.605 27.7332 144.258 27.6836C146.851 27.6348 148.903 25.4622 148.903 22.8682V14.7588C148.903 14.5381 149.082 14.3594 149.303 14.3594H152.355C152.576 14.3595 152.754 14.5382 152.754 14.7588V22.9482C152.754 27.7126 148.875 31.5687 144.104 31.5342C139.368 31.5004 135.58 27.5754 135.58 22.8398V14.7588C135.58 14.5382 135.758 14.3595 135.979 14.3594H139.031ZM80.1826 17.8652C78.4422 17.8652 76.9432 18.4943 75.6875 19.75C74.432 21.0057 73.8037 22.4863 73.8037 24.2266C73.8038 25.9667 74.4319 27.4651 75.6875 28.7207C76.9301 29.9642 78.4422 30.5859 80.1826 30.5859C81.9226 30.5858 83.4139 29.9639 84.6572 28.7207C85.9129 27.4651 86.5409 25.9545 86.541 24.2266C86.541 22.4984 85.913 21.0057 84.6572 19.75C83.4016 18.4944 81.9228 17.8653 80.1826 17.8652ZM123.219 17.8652C121.478 17.8652 119.968 18.5065 118.725 19.75C117.481 20.9934 116.86 22.4732 116.86 24.2256C116.86 25.9782 117.481 27.4781 118.725 28.7207C119.968 29.964 121.466 30.5859 123.219 30.5859C124.971 30.5859 126.469 29.9641 127.713 28.7207C128.969 27.465 129.596 25.9538 129.596 24.2256C129.596 22.4977 128.968 21.0056 127.713 19.75C126.457 18.4943 124.959 17.8653 123.219 17.8652ZM101.682 17.8652C100.277 17.8653 99.0268 18.2832 97.9336 19.1162C96.9493 19.8516 96.2332 20.7556 95.7852 21.8301C95.6847 22.0695 95.8689 22.3231 96.1289 22.3232H107.233C107.494 22.3232 107.678 22.0695 107.578 21.8291C107.123 20.7257 106.406 19.8215 105.43 19.1162C104.336 18.2831 103.087 17.8652 101.682 17.8652Z"/>
</mask>
<path d="M122.901 14.043C125.16 14.0431 127.169 14.7507 128.93 16.166C129.191 16.3763 129.596 16.1976 129.596 15.8633V14.7422C129.596 14.5309 129.767 14.3594 129.979 14.3594H133.037C133.248 14.3594 133.419 14.5309 133.419 14.7422V31.8721C133.419 34.6202 132.412 36.9892 130.397 38.9785C128.396 40.9929 126.003 41.9999 123.219 42C121.503 42 119.868 41.5587 118.313 40.6758C116.919 39.8577 115.733 38.782 114.755 37.4512C114.628 37.2784 114.676 37.0354 114.856 36.918L117.437 35.2314C117.612 35.1171 117.848 35.1672 117.97 35.3369C119.333 37.2295 121.083 38.1768 123.219 38.1768C125.108 38.1767 126.618 37.5548 127.75 36.3115C128.619 35.3507 129.182 34.1488 129.437 32.708C129.497 32.3663 129.09 32.158 128.814 32.3701C127.094 33.6915 125.122 34.3525 122.901 34.3525C120.154 34.3525 117.822 33.3584 115.908 31.3691C113.994 29.3799 113.036 27.0113 113.036 24.2256C113.036 21.4401 113.994 19.0536 115.908 17.0645C117.822 15.0498 120.154 14.043 122.901 14.043ZM138.429 31.9707C138.557 31.842 138.756 31.8171 138.913 31.9092C140.489 32.8389 142.29 33.335 144.168 33.335C146.046 33.3349 147.847 32.839 149.423 31.9102C149.579 31.8182 149.778 31.8442 149.905 31.9717L152.116 34.1826L152.115 34.1836C152.293 34.361 152.265 34.6588 152.057 34.7979C149.8 36.3072 147.085 37.1855 144.167 37.1855C141.249 37.1855 138.533 36.3062 136.276 34.7979C136.067 34.6579 136.038 34.361 136.217 34.1826L138.429 31.9707ZM73.4229 8C73.633 8.00017 73.8035 8.17081 73.8037 8.38184V15.8506C73.8037 16.1868 74.2145 16.3656 74.4756 16.1533C76.2065 14.7464 78.2149 14.043 80.499 14.043C83.2217 14.0431 85.5464 15.0499 87.4736 17.0645C89.4009 19.1035 90.3643 21.4662 90.3643 24.2266C90.3641 26.9867 89.4008 29.3678 87.4736 31.3691C85.5596 33.3583 83.2339 34.3525 80.499 34.3525C78.2131 34.3525 76.2036 33.6638 74.4717 32.2842C74.2097 32.0757 73.8038 32.2536 73.8037 32.5879V33.6543C73.8036 33.8654 73.633 34.036 73.4229 34.0361H70.3818C70.1708 34.0359 70.0001 33.8654 70 33.6543V8.38184C70.0002 8.17085 70.1709 8.00023 70.3818 8H73.4229ZM101.682 14.043C104.479 14.043 106.877 15.0435 108.88 17.0459C110.881 19.0473 111.882 21.4401 111.882 24.2256C111.882 24.7544 111.844 25.2837 111.766 25.8115C111.738 25.9956 111.579 26.1279 111.394 26.1279H96.1289C95.8689 26.1281 95.6847 26.3827 95.7842 26.6221C96.2397 27.7275 96.9568 28.6388 97.9336 29.3555C99.0521 30.1752 100.301 30.5859 101.682 30.5859C103.829 30.5859 105.584 29.6396 106.947 27.7471C107.07 27.5763 107.306 27.5273 107.481 27.6426L110.05 29.3301C110.227 29.4466 110.275 29.6857 110.152 29.8584C108.025 32.8545 105.202 34.3525 101.682 34.3525C98.8838 34.3525 96.4848 33.3711 94.4834 31.4062C92.4943 29.417 91.5 27.0234 91.5 24.2256C91.5001 21.4279 92.4944 19.035 94.4834 17.0459C96.4848 15.0435 98.8847 14.043 101.682 14.043ZM164.056 14.042C166.33 14.042 168.239 14.9248 169.78 16.6904V16.6914C171.26 18.3576 172 20.3405 172 22.6406V33.6543C172 33.8654 171.828 34.0361 171.617 34.0361H168.559C168.348 34.0361 168.177 33.8654 168.177 33.6543V22.6406C168.177 21.3483 167.704 20.229 166.76 19.2842C165.827 18.3394 164.697 17.8663 163.403 17.8662C162.11 17.8662 160.991 18.3393 160.046 19.2842C159.101 20.229 158.629 21.3475 158.629 22.6406V33.6543C158.629 33.8653 158.458 34.0359 158.247 34.0361H155.206C154.995 34.0359 154.824 33.8653 154.824 33.6543V14.7412C154.824 14.5302 154.995 14.3596 155.206 14.3594H158.247C158.458 14.3596 158.629 14.5302 158.629 14.7412V15.3301C158.629 15.6635 159.033 15.8435 159.298 15.6416C160.695 14.5747 162.282 14.042 164.056 14.042ZM139.031 14.3594C139.252 14.3594 139.431 14.5381 139.431 14.7588V22.9482C139.431 25.59 141.605 27.7332 144.258 27.6836C146.851 27.6348 148.903 25.4622 148.903 22.8682V14.7588C148.903 14.5381 149.082 14.3594 149.303 14.3594H152.355C152.576 14.3595 152.754 14.5382 152.754 14.7588V22.9482C152.754 27.7126 148.875 31.5687 144.104 31.5342C139.368 31.5004 135.58 27.5754 135.58 22.8398V14.7588C135.58 14.5382 135.758 14.3595 135.979 14.3594H139.031ZM80.1826 17.8652C78.4422 17.8652 76.9432 18.4943 75.6875 19.75C74.432 21.0057 73.8037 22.4863 73.8037 24.2266C73.8038 25.9667 74.4319 27.4651 75.6875 28.7207C76.9301 29.9642 78.4422 30.5859 80.1826 30.5859C81.9226 30.5858 83.4139 29.9639 84.6572 28.7207C85.9129 27.4651 86.5409 25.9545 86.541 24.2266C86.541 22.4984 85.913 21.0057 84.6572 19.75C83.4016 18.4944 81.9228 17.8653 80.1826 17.8652ZM123.219 17.8652C121.478 17.8652 119.968 18.5065 118.725 19.75C117.481 20.9934 116.86 22.4732 116.86 24.2256C116.86 25.9782 117.481 27.4781 118.725 28.7207C119.968 29.964 121.466 30.5859 123.219 30.5859C124.971 30.5859 126.469 29.9641 127.713 28.7207C128.969 27.465 129.596 25.9538 129.596 24.2256C129.596 22.4977 128.968 21.0056 127.713 19.75C126.457 18.4943 124.959 17.8653 123.219 17.8652ZM101.682 17.8652C100.277 17.8653 99.0268 18.2832 97.9336 19.1162C96.9493 19.8516 96.2332 20.7556 95.7852 21.8301C95.6847 22.0695 95.8689 22.3231 96.1289 22.3232H107.233C107.494 22.3232 107.678 22.0695 107.578 21.8291C107.123 20.7257 106.406 19.8215 105.43 19.1162C104.336 18.2831 103.087 17.8652 101.682 17.8652Z" fill="black"/>
<path d="M122.901 14.043L122.902 6.04297H122.901V14.043ZM128.93 16.166L133.948 9.93533L133.941 9.93044L128.93 16.166ZM129.596 15.8633L137.596 15.865V15.8633H129.596ZM133.037 14.3594L133.037 6.35938H133.037V14.3594ZM130.397 38.9785L124.777 33.2859C124.758 33.3039 124.74 33.3219 124.722 33.3401L130.397 38.9785ZM123.219 42V50H123.219L123.219 42ZM118.313 40.6758L114.266 47.5763C114.298 47.5951 114.33 47.6137 114.362 47.632L118.313 40.6758ZM114.755 37.4512L108.302 42.1799L108.308 42.1876L114.755 37.4512ZM114.856 36.918L119.223 43.621L119.234 43.6143L114.856 36.918ZM117.437 35.2314L113.069 28.5286L113.059 28.5352L117.437 35.2314ZM117.97 35.3369L111.476 40.0092L111.479 40.0139L117.97 35.3369ZM123.219 38.1768V46.1768H123.219L123.219 38.1768ZM127.75 36.3115L133.666 41.6967C133.672 41.6901 133.678 41.6836 133.684 41.677L127.75 36.3115ZM129.437 32.708L121.56 31.307L121.559 31.3163L129.437 32.708ZM128.814 32.3701L133.687 38.7148C133.691 38.7117 133.695 38.7086 133.699 38.7055L128.814 32.3701ZM122.901 34.3525V42.3525H122.902L122.901 34.3525ZM115.908 31.3691L110.144 36.9161L110.144 36.9161L115.908 31.3691ZM113.036 24.2256L105.036 24.2253V24.2256H113.036ZM115.908 17.0645L121.673 22.6113C121.685 22.5992 121.696 22.587 121.708 22.5748L115.908 17.0645ZM138.429 31.9707L144.086 37.6276V37.6276L138.429 31.9707ZM138.913 31.9092L142.978 25.0189C142.973 25.0157 142.967 25.0126 142.962 25.0095L138.913 31.9092ZM144.168 33.335V41.335H144.168L144.168 33.335ZM149.423 31.9102L153.485 38.8022L153.49 38.7992L149.423 31.9102ZM149.905 31.9717L155.562 26.3148L155.556 26.3091L149.905 31.9717ZM152.116 34.1826L157.773 39.8395C160.897 36.7153 160.897 31.65 157.773 28.5258L152.116 34.1826ZM152.115 34.1836L146.458 28.5267C143.334 31.6509 143.334 36.7163 146.458 39.8404L152.115 34.1836ZM152.057 34.7979L147.613 28.1453L147.609 28.1478L152.057 34.7979ZM144.167 37.1855V45.1855H144.167L144.167 37.1855ZM136.276 34.7979L131.829 41.4474L131.831 41.4491L136.276 34.7979ZM136.217 34.1826L130.56 28.5258L130.558 28.5275L136.217 34.1826ZM73.4229 8L73.4292 0H73.4229V8ZM73.8037 8.38184H81.8037L81.8037 8.37307L73.8037 8.38184ZM74.4756 16.1533L69.4298 9.94524L69.4292 9.94577L74.4756 16.1533ZM80.499 14.043L80.4993 6.04297H80.499V14.043ZM87.4736 17.0645L93.2877 11.5693C93.2766 11.5576 93.2655 11.5459 93.2544 11.5343L87.4736 17.0645ZM90.3643 24.2266L98.3643 24.2269V24.2266H90.3643ZM87.4736 31.3691L81.711 25.8201L81.709 25.8222L87.4736 31.3691ZM80.499 34.3525V42.3525H80.4993L80.499 34.3525ZM74.4717 32.2842L79.4562 26.0268L79.4528 26.0241L74.4717 32.2842ZM73.8037 32.5879L65.8037 32.5855V32.5879H73.8037ZM73.8037 33.6543L81.8037 33.6597V33.6543H73.8037ZM73.4229 34.0361V42.0361L73.4292 42.0361L73.4229 34.0361ZM70.3818 34.0361L70.3731 42.0361H70.3818V34.0361ZM70 33.6543H62L62 33.6597L70 33.6543ZM70 8.38184L62 8.37307V8.38184H70ZM70.3818 8V-4.76837e-06L70.3731 4.76837e-06L70.3818 8ZM101.682 14.043V6.04297H101.682L101.682 14.043ZM108.88 17.0459L114.537 11.3891L114.537 11.389L108.88 17.0459ZM111.882 24.2256H119.882V24.2253L111.882 24.2256ZM111.766 25.8115L119.679 26.9826L119.68 26.9803L111.766 25.8115ZM111.394 26.1279V34.1279H111.396L111.394 26.1279ZM96.1289 26.1279V18.1279L96.1245 18.1279L96.1289 26.1279ZM95.7842 26.6221L103.181 23.5742C103.178 23.5669 103.175 23.5597 103.172 23.5525L95.7842 26.6221ZM97.9336 29.3555L93.2013 35.8057L93.2044 35.808L97.9336 29.3555ZM101.682 30.5859L101.681 38.5859H101.682V30.5859ZM106.947 27.7471L100.457 23.0704L100.455 23.0722L106.947 27.7471ZM107.481 27.6426L111.874 20.9566L111.872 20.9553L107.481 27.6426ZM110.05 29.3301L114.446 22.6466L114.443 22.6441L110.05 29.3301ZM110.152 29.8584L103.635 25.2185L103.629 25.2269L110.152 29.8584ZM101.682 34.3525L101.682 42.3525H101.682V34.3525ZM94.4834 31.4062L88.8264 37.063C88.8439 37.0804 88.8614 37.0978 88.879 37.1151L94.4834 31.4062ZM91.5 24.2256L83.5 24.2253V24.2256H91.5ZM94.4834 17.0459L100.14 22.7026L100.142 22.7014L94.4834 17.0459ZM164.056 14.042V6.04199H164.056L164.056 14.042ZM169.78 16.6904H177.78C177.78 14.7559 177.079 12.887 175.807 11.4296L169.78 16.6904ZM169.78 16.6914H161.78C161.78 18.6491 162.498 20.5388 163.798 22.0028L169.78 16.6914ZM172 33.6543L180 33.663V33.6543H172ZM168.177 33.6543H160.177L160.177 33.663L168.177 33.6543ZM166.76 19.2842L161.066 24.9041C161.078 24.9164 161.09 24.9286 161.103 24.9408L166.76 19.2842ZM163.403 17.8662L163.404 9.86621H163.403V17.8662ZM160.046 19.2842L154.389 13.6273L154.388 13.6279L160.046 19.2842ZM158.629 33.6543L166.629 33.6631V33.6543H158.629ZM158.247 34.0361V42.0361L158.255 42.0361L158.247 34.0361ZM155.206 34.0361L155.199 42.0361H155.206V34.0361ZM154.824 33.6543H146.824L146.824 33.6631L154.824 33.6543ZM154.824 14.7412L146.824 14.7333V14.7412H154.824ZM155.206 14.3594V6.35937L155.199 6.35938L155.206 14.3594ZM158.247 14.3594L158.255 6.35938H158.247V14.3594ZM158.629 14.7412H166.629L166.629 14.7333L158.629 14.7412ZM159.298 15.6416L164.148 22.0036L164.152 22.0003L159.298 15.6416ZM139.431 22.9482H131.431V22.949L139.431 22.9482ZM144.258 27.6836L144.407 35.6822L144.408 35.6822L144.258 27.6836ZM148.903 22.8682L156.903 22.8685V22.8682H148.903ZM152.355 14.3594L152.361 6.35938H152.355V14.3594ZM152.754 22.9482L160.754 22.9487V22.9482H152.754ZM144.104 31.5342L144.161 23.5344L144.161 23.5344L144.104 31.5342ZM135.58 22.8398H127.58V22.8399L135.58 22.8398ZM135.979 14.3594V6.35937L135.972 6.35938L135.979 14.3594ZM80.1826 17.8652L80.1831 9.86523H80.1826V17.8652ZM75.6875 19.75L70.0306 14.0931L70.0303 14.0935L75.6875 19.75ZM73.8037 24.2266H65.8037V24.2271L73.8037 24.2266ZM75.6875 28.7207L81.3465 23.066L81.3444 23.0639L75.6875 28.7207ZM80.1826 30.5859V38.5859H80.1831L80.1826 30.5859ZM84.6572 28.7207L90.3137 34.378L90.3141 34.3776L84.6572 28.7207ZM86.541 24.2266L94.541 24.2271V24.2266H86.541ZM84.6572 19.75L90.3141 14.0931L90.314 14.0931L84.6572 19.75ZM123.219 17.8652L123.219 9.86523H123.219V17.8652ZM118.725 19.75L113.068 14.0931L113.068 14.0931L118.725 19.75ZM116.86 24.2256L108.86 24.2251V24.2256H116.86ZM118.725 28.7207L124.381 23.0634L124.379 23.0617L118.725 28.7207ZM123.219 30.5859V38.5859H123.219L123.219 30.5859ZM127.713 28.7207L133.37 34.3777L133.37 34.3776L127.713 28.7207ZM129.596 24.2256H137.596V24.2251L129.596 24.2256ZM127.713 19.75L133.37 14.0934L133.37 14.0931L127.713 19.75ZM101.682 17.8652V9.86523H101.681L101.682 17.8652ZM97.9336 19.1162L102.722 25.5249C102.742 25.5098 102.762 25.4946 102.782 25.4793L97.9336 19.1162ZM95.7852 21.8301L103.163 24.9242C103.165 24.9191 103.167 24.9139 103.169 24.9088L95.7852 21.8301ZM96.1289 22.3232L96.1245 30.3232H96.1289V22.3232ZM107.578 21.8291L100.183 24.8816L100.187 24.8896L107.578 21.8291ZM105.43 19.1162L100.581 25.4793C100.635 25.5208 100.69 25.5615 100.746 25.6016L105.43 19.1162ZM122.901 14.043L122.901 22.043C123.336 22.043 123.577 22.1273 123.918 22.4016L128.93 16.166L133.941 9.93044C130.761 7.37404 126.984 6.04312 122.902 6.04297L122.901 14.043ZM128.93 16.166L123.912 22.3967C128.946 26.4511 137.594 23.5025 137.596 15.865L129.596 15.8633L121.596 15.8615C121.597 8.89257 129.435 6.30148 133.948 9.93533L128.93 16.166ZM129.596 15.8633H137.596V14.7422H129.596H121.596V15.8633H129.596ZM129.596 14.7422H137.596C137.596 18.9491 134.185 22.3594 129.979 22.3594V14.3594V6.35938C125.349 6.35938 121.596 10.1126 121.596 14.7422H129.596ZM129.979 14.3594V22.3594H133.037V14.3594V6.35938H129.979V14.3594ZM133.037 14.3594L133.037 22.3594C128.804 22.3593 125.419 18.9226 125.419 14.7422H133.419H141.419C141.419 10.1391 137.693 6.35946 133.037 6.35938L133.037 14.3594ZM133.419 14.7422H125.419V31.8721H133.419H141.419V14.7422H133.419ZM133.419 31.8721H125.419C125.419 32.4107 125.32 32.7497 124.777 33.2859L130.397 38.9785L136.018 44.6711C139.505 41.2288 141.419 36.8298 141.419 31.8721H133.419ZM130.397 38.9785L124.722 33.3401C124.19 33.8763 123.826 34 123.219 34L123.219 42L123.219 50C128.181 49.9999 132.603 48.1096 136.073 44.617L130.397 38.9785ZM123.219 42V34C122.947 34 122.667 33.948 122.264 33.7195L118.313 40.6758L114.362 47.632C117.069 49.1693 120.059 50 123.219 50V42ZM118.313 40.6758L122.361 33.7752C121.928 33.5213 121.551 33.1902 121.202 32.7147L114.755 37.4512L108.308 42.1876C109.914 44.3738 111.909 46.1941 114.266 47.5763L118.313 40.6758ZM114.755 37.4512L121.208 32.7225C123.885 36.3754 122.761 41.316 119.223 43.621L114.856 36.918L110.49 30.2149C106.591 32.7547 105.372 38.1814 108.302 42.1799L114.755 37.4512ZM114.856 36.918L119.234 43.6143L121.814 41.9277L117.437 35.2314L113.059 28.5352L110.479 30.2217L114.856 36.918ZM117.437 35.2314L121.804 41.9343C118.216 44.272 113.721 43.13 111.476 40.0092L117.97 35.3369L124.464 30.6646C121.974 27.2044 117.008 25.9622 113.069 28.5286L117.437 35.2314ZM117.97 35.3369L111.479 40.0139C114.183 43.7662 118.244 46.1768 123.219 46.1768V38.1768V30.1768C123.28 30.1768 123.409 30.1841 123.584 30.2267C123.761 30.27 123.943 30.3392 124.112 30.4306C124.467 30.6225 124.558 30.7962 124.46 30.6599L117.97 35.3369ZM123.219 38.1768L123.219 46.1768C127.053 46.1766 130.823 44.8201 133.666 41.6967L127.75 36.3115L121.834 30.9264C122.04 30.6998 122.351 30.4657 122.723 30.3127C123.073 30.1687 123.28 30.1768 123.218 30.1768L123.219 38.1768ZM127.75 36.3115L133.684 41.677C135.685 39.4638 136.832 36.8286 137.315 34.0998L129.437 32.708L121.559 31.3163C121.541 31.4142 121.533 31.3938 121.578 31.2978C121.626 31.196 121.705 31.0683 121.816 30.946L127.75 36.3115ZM129.437 32.708L137.313 34.109C138.026 30.1023 135.806 26.7525 133 25.264C130.319 23.8421 126.744 23.8647 123.929 26.0347L128.814 32.3701L133.699 38.7055C131.16 40.6634 127.926 40.6841 125.503 39.3987C122.954 38.0468 120.908 34.972 121.56 31.307L129.437 32.708ZM128.814 32.3701L123.942 26.0254C123.654 26.2462 123.405 26.3525 122.901 26.3525L122.901 34.3525L122.902 42.3525C126.84 42.3524 130.534 41.1369 133.687 38.7148L128.814 32.3701ZM122.901 34.3525V26.3525C122.339 26.3525 122.086 26.2513 121.673 25.8222L115.908 31.3691L110.144 36.9161C113.559 40.4655 117.969 42.3525 122.901 42.3525V34.3525ZM115.908 31.3691L121.673 25.8222C121.195 25.3258 121.036 24.9462 121.036 24.2256H113.036H105.036C105.036 29.0764 106.793 33.4339 110.144 36.9161L115.908 31.3691ZM113.036 24.2256L121.036 24.2259C121.036 23.4904 121.206 23.0969 121.673 22.6113L115.908 17.0645L110.143 11.5176C106.783 15.0103 105.036 19.3898 105.036 24.2253L113.036 24.2256ZM115.908 17.0645L121.708 22.5748C122.13 22.1304 122.373 22.043 122.901 22.043V14.043V6.04297C117.935 6.04297 113.515 7.96919 110.109 11.5541L115.908 17.0645ZM138.429 31.9707L144.086 37.6276C141.624 40.0888 137.83 40.5495 134.864 38.8089L138.913 31.9092L142.962 25.0095C139.682 23.0847 135.49 23.5952 132.772 26.3138L138.429 31.9707ZM138.913 31.9092L134.848 38.7995C137.661 40.4589 140.866 41.335 144.168 41.335V33.335V25.335C143.713 25.335 143.317 25.219 142.978 25.0189L138.913 31.9092ZM144.168 33.335L144.168 41.335C147.47 41.3349 150.673 40.4592 153.485 38.8022L149.423 31.9102L145.361 25.0182C145.02 25.2188 144.623 25.335 144.168 25.335L144.168 33.335ZM149.423 31.9102L153.49 38.7992C150.479 40.5765 146.686 40.0614 144.254 37.6343L149.905 31.9717L155.556 26.3091C152.869 23.627 148.678 23.0599 145.356 25.0211L149.423 31.9102ZM149.905 31.9717L144.248 37.6285L146.459 39.8395L152.116 34.1826L157.773 28.5258L155.562 26.3148L149.905 31.9717ZM152.116 34.1826L146.459 28.5258L146.458 28.5267L152.115 34.1836L157.772 39.8404L157.773 39.8395L152.116 34.1826ZM152.115 34.1836L146.458 39.8404C143.114 36.4957 143.572 30.8444 147.613 28.1453L152.057 34.7979L156.5 41.4504C160.957 38.4732 161.472 32.2263 157.772 28.5267L152.115 34.1836ZM152.057 34.7979L147.609 28.1478C146.631 28.8023 145.457 29.1855 144.167 29.1855L144.167 37.1855L144.167 45.1855C148.713 45.1855 152.969 43.8121 156.504 41.4479L152.057 34.7979ZM144.167 37.1855V29.1855C142.878 29.1855 141.702 28.802 140.722 28.1466L136.276 34.7979L131.831 41.4491C135.364 43.8105 139.619 45.1855 144.167 45.1855V37.1855ZM136.276 34.7979L140.724 28.1483C144.73 30.8276 145.241 36.4697 141.875 39.8377L136.217 34.1826L130.558 28.5275C126.836 32.2523 127.404 38.4882 131.829 41.4474L136.276 34.7979ZM136.217 34.1826L141.874 39.8395L144.086 37.6276L138.429 31.9707L132.772 26.3138L130.56 28.5258L136.217 34.1826ZM73.4229 8L73.4165 16C69.197 15.9966 65.8083 12.5747 65.8037 8.3906L73.8037 8.38184L81.8037 8.37307C81.7987 3.76688 78.0689 0.0037055 73.4292 2.38419e-06L73.4229 8ZM73.8037 8.38184H65.8037V15.8506H73.8037H81.8037V8.38184H73.8037ZM73.8037 15.8506H65.8037C65.8037 23.5566 74.53 26.4191 79.522 22.3609L74.4756 16.1533L69.4292 9.94577C73.899 6.31204 81.8037 8.81702 81.8037 15.8506H73.8037ZM74.4756 16.1533L79.5213 22.3614C79.7889 22.1439 80.0041 22.043 80.499 22.043V14.043V6.04297C76.4257 6.04297 72.6242 7.34894 69.4298 9.94524L74.4756 16.1533ZM80.499 14.043L80.4988 22.043C80.9808 22.043 81.2345 22.1155 81.6928 22.5946L87.4736 17.0645L93.2544 11.5343C89.8583 7.98429 85.4626 6.04313 80.4993 6.04297L80.499 14.043ZM87.4736 17.0645L81.6596 22.5596C82.2297 23.1629 82.3643 23.577 82.3643 24.2266H90.3643H98.3643C98.3643 19.3555 96.572 15.0441 93.2877 11.5693L87.4736 17.0645ZM90.3643 24.2266L82.3643 24.2262C82.3642 24.9027 82.2128 25.2989 81.711 25.8201L87.4736 31.3691L93.2363 36.9182C96.5888 33.4366 98.3641 29.0708 98.3643 24.2269L90.3643 24.2266ZM87.4736 31.3691L81.709 25.8222C81.2885 26.2591 81.0378 26.3525 80.4988 26.3525L80.499 34.3525L80.4993 42.3525C85.43 42.3524 89.8306 40.4575 93.2383 36.9161L87.4736 31.3691ZM80.499 34.3525V26.3525C79.9573 26.3525 79.7204 26.2373 79.4562 26.0268L74.4717 32.2842L69.4871 38.5415C72.6867 41.0902 76.4688 42.3525 80.499 42.3525V34.3525ZM74.4717 32.2842L79.4528 26.0241C74.4835 22.0701 65.806 24.8815 65.8037 32.5855L73.8037 32.5879L81.8037 32.5902C81.8016 39.6257 73.9358 42.0813 69.4906 38.5442L74.4717 32.2842ZM73.8037 32.5879H65.8037V33.6543H73.8037H81.8037V32.5879H73.8037ZM73.8037 33.6543L65.8037 33.6489C65.8065 29.4588 69.2005 26.0395 73.4165 26.0361L73.4229 34.0361L73.4292 42.0361C78.0655 42.0324 81.8006 38.272 81.8037 33.6597L73.8037 33.6543ZM73.4229 34.0361V26.0361H70.3818V34.0361V42.0361H73.4229V34.0361ZM70.3818 34.0361L70.3906 26.0361C74.5876 26.0407 77.9972 29.4425 78 33.6489L70 33.6543L62 33.6597C62.0031 38.2882 65.754 42.0311 70.3731 42.0361L70.3818 34.0361ZM70 33.6543H78V8.38184H70H62V33.6543H70ZM70 8.38184L78 8.3906C77.9954 12.591 74.591 15.9954 70.3906 16L70.3818 8L70.3731 4.76837e-06C65.7507 0.00506926 62.0051 3.75065 62 8.37307L70 8.38184ZM70.3818 8V16H73.4229V8V0H70.3818V8ZM101.682 14.043V22.043C102.328 22.043 102.7 22.1801 103.223 22.7028L108.88 17.0459L114.537 11.389C111.055 7.90684 106.629 6.04297 101.682 6.04297V14.043ZM108.88 17.0459L103.223 22.7027C103.751 23.231 103.882 23.6 103.882 24.2259L111.882 24.2256L119.882 24.2253C119.882 19.2801 118.011 14.8635 114.537 11.3891L108.88 17.0459ZM111.882 24.2256H103.882C103.882 24.3677 103.872 24.5063 103.851 24.6427L111.766 25.8115L119.68 26.9803C119.816 26.0611 119.882 25.1411 119.882 24.2256H111.882ZM111.766 25.8115L103.852 24.6404C104.426 20.757 107.761 18.129 111.391 18.1279L111.394 26.1279L111.396 34.1279C115.398 34.1267 119.05 31.2342 119.679 26.9826L111.766 25.8115ZM111.394 26.1279V18.1279H96.1289V26.1279V34.1279H111.394V26.1279ZM96.1289 26.1279L96.1245 18.1279C90.6803 18.131 85.913 23.7145 88.3965 29.6917L95.7842 26.6221L103.172 23.5525C105.456 29.0508 101.057 34.1252 96.1334 34.1279L96.1289 26.1279ZM95.7842 26.6221L88.3875 29.67C89.4111 32.1539 91.0599 34.2346 93.2013 35.8057L97.9336 29.3555L102.666 22.9052C102.735 22.956 102.842 23.0493 102.952 23.189C103.062 23.3294 103.137 23.4672 103.181 23.5742L95.7842 26.6221ZM97.9336 29.3555L93.2044 35.808C95.685 37.6261 98.5883 38.5859 101.681 38.5859L101.682 30.5859L101.682 22.5859C101.798 22.5859 101.986 22.6054 102.206 22.6775C102.425 22.7494 102.581 22.8428 102.663 22.903L97.9336 29.3555ZM101.682 30.5859V38.5859C106.649 38.5859 110.724 36.1931 113.439 32.4219L106.947 27.7471L100.455 23.0722C100.362 23.2012 100.458 23.0255 100.812 22.8343C100.981 22.7435 101.16 22.6758 101.333 22.6338C101.504 22.5925 101.627 22.5859 101.682 22.5859V30.5859ZM106.947 27.7471L113.438 32.4237C111.18 35.5575 106.669 36.6795 103.09 34.3298L107.481 27.6426L111.872 20.9553C107.943 18.3751 102.961 19.5952 100.457 23.0704L106.947 27.7471ZM107.481 27.6426L103.089 34.3286L105.657 36.0161L110.05 29.3301L114.443 22.6441L111.874 20.9566L107.481 27.6426ZM110.05 29.3301L105.653 36.0136C102.158 33.7145 101.049 28.8511 103.635 25.2185L110.152 29.8584L116.669 34.4982C119.501 30.5203 118.296 25.1787 114.446 22.6466L110.05 29.3301ZM110.152 29.8584L103.629 25.2269C102.924 26.2199 102.478 26.3525 101.682 26.3525V34.3525V42.3525C107.925 42.3525 113.126 39.4891 116.675 34.4899L110.152 29.8584ZM101.682 34.3525L101.682 26.3525C100.984 26.3525 100.596 26.1968 100.088 25.6974L94.4834 31.4062L88.879 37.1151C92.3732 40.5453 96.7833 42.3525 101.682 42.3525L101.682 34.3525ZM94.4834 31.4062L100.14 25.7495C99.6427 25.2518 99.5 24.8894 99.5 24.2256H91.5H83.5C83.5 29.1575 85.3458 33.5822 88.8264 37.063L94.4834 31.4062ZM91.5 24.2256L99.5 24.2259C99.5 23.5626 99.6424 23.2006 100.14 22.7026L94.4834 17.0459L88.8264 11.3892C85.3463 14.8694 83.5002 19.2932 83.5 24.2253L91.5 24.2256ZM94.4834 17.0459L100.142 22.7014C100.662 22.1809 101.034 22.043 101.682 22.043L101.682 14.043L101.682 6.04297C96.7353 6.04305 92.3079 7.90609 88.8252 11.3904L94.4834 17.0459ZM164.056 14.042V22.042C164.105 22.042 164.095 22.0465 164.041 22.0351C163.986 22.0234 163.912 22.0008 163.834 21.9648C163.757 21.9289 163.705 21.8939 163.684 21.8773C163.664 21.8621 163.69 21.8782 163.753 21.9513L169.78 16.6904L175.807 11.4296C172.799 7.98314 168.719 6.04199 164.056 6.04199V14.042ZM169.78 16.6904H161.78V16.6914H169.78H177.78V16.6904H169.78ZM169.78 16.6914L163.798 22.0028C163.918 22.1379 163.943 22.2066 163.95 22.2254C163.958 22.248 164 22.3631 164 22.6406H172H180C180 18.4499 178.586 14.5597 175.763 11.3801L169.78 16.6914ZM172 22.6406H164V33.6543H172H180V22.6406H172ZM172 33.6543L164 33.6455C164.005 29.4274 167.428 26.0361 171.617 26.0361V34.0361V42.0361C176.229 42.0361 179.995 38.3035 180 33.663L172 33.6543ZM171.617 34.0361V26.0361H168.559V34.0361V42.0361H171.617V34.0361ZM168.559 34.0361V26.0361C172.763 26.0361 176.172 29.4412 176.177 33.6456L168.177 33.6543L160.177 33.663C160.182 38.2897 163.934 42.0361 168.559 42.0361V34.0361ZM168.177 33.6543H176.177V22.6406H168.177H160.177V33.6543H168.177ZM168.177 22.6406H176.177C176.177 19.1495 174.806 16.0172 172.417 13.6276L166.76 19.2842L161.103 24.9408C160.918 24.756 160.656 24.4253 160.452 23.9432C160.247 23.4559 160.177 22.9935 160.177 22.6406H168.177ZM166.76 19.2842L172.453 13.6642C170.041 11.2205 166.87 9.86639 163.404 9.86621L163.403 17.8662L163.403 25.8662C163.053 25.8662 162.595 25.7975 162.11 25.593C161.626 25.3892 161.279 25.1196 161.066 24.9041L166.76 19.2842ZM163.403 17.8662V9.86621C159.908 9.86621 156.777 11.2397 154.389 13.6273L160.046 19.2842L165.703 24.941C165.519 25.1247 165.189 25.3867 164.707 25.5903C164.22 25.7962 163.757 25.8662 163.403 25.8662V17.8662ZM160.046 19.2842L154.388 13.6279C152 16.0164 150.629 19.1475 150.629 22.6406H158.629H166.629C166.629 22.9929 166.559 23.4556 166.353 23.9435C166.149 24.4262 165.887 24.7566 165.703 24.9405L160.046 19.2842ZM158.629 22.6406H150.629V33.6543H158.629H166.629V22.6406H158.629ZM158.629 33.6543L150.629 33.6455C150.634 29.4463 154.037 26.0401 158.239 26.0361L158.247 34.0361L158.255 42.0361C162.879 42.0318 166.624 38.2843 166.629 33.6631L158.629 33.6543ZM158.247 34.0361V26.0361H155.206V34.0361V42.0361H158.247V34.0361ZM155.206 34.0361L155.214 26.0361C159.416 26.0401 162.82 29.4463 162.824 33.6455L154.824 33.6543L146.824 33.6631C146.829 38.2843 150.574 42.0318 155.199 42.0361L155.206 34.0361ZM154.824 33.6543H162.824V14.7412H154.824H146.824V33.6543H154.824ZM154.824 14.7412L162.824 14.7492C162.82 18.9498 159.415 22.3554 155.214 22.3594L155.206 14.3594L155.199 6.35938C150.575 6.36373 146.829 10.1106 146.824 14.7333L154.824 14.7412ZM155.206 14.3594V22.3594H158.247V14.3594V6.35938H155.206V14.3594ZM158.247 14.3594L158.239 22.3594C154.038 22.3554 150.633 18.9498 150.629 14.7492L158.629 14.7412L166.629 14.7333C166.624 10.1105 162.878 6.36376 158.255 6.35938L158.247 14.3594ZM158.629 14.7412H150.629V15.3301H158.629H166.629V14.7412H158.629ZM158.629 15.3301H150.629C150.629 23.0041 159.198 25.7774 164.148 22.0036L159.298 15.6416L154.448 9.27959C156.927 7.38915 159.957 7.388 162.196 8.41342C164.485 9.46186 166.629 11.9295 166.629 15.3301H158.629ZM159.298 15.6416L164.152 22.0003C164.176 21.9826 164.179 21.9829 164.162 21.992C164.144 22.0014 164.117 22.0137 164.084 22.0248C164.051 22.0359 164.026 22.0412 164.013 22.0432C164.002 22.045 164.014 22.042 164.056 22.042L164.056 14.042L164.056 6.04199C160.547 6.04205 157.251 7.13921 154.443 9.28286L159.298 15.6416ZM139.031 14.3594V22.3594C134.834 22.3594 131.431 18.9563 131.431 14.7588H139.431H147.431C147.431 10.1198 143.67 6.35938 139.031 6.35938V14.3594ZM139.431 14.7588H131.431V22.9482H139.431H147.431V14.7588H139.431ZM139.431 22.9482L131.431 22.949C131.431 30.0585 137.27 35.8156 144.407 35.6822L144.258 27.6836L144.108 19.685C145.94 19.6508 147.43 21.1214 147.431 22.9475L139.431 22.9482ZM144.258 27.6836L144.408 35.6822C151.536 35.5479 156.903 29.6445 156.903 22.8685L148.903 22.8682L140.903 22.8678C140.903 21.28 142.166 19.7216 144.107 19.685L144.258 27.6836ZM148.903 22.8682H156.903V14.7588H148.903H140.903V22.8682H148.903ZM148.903 14.7588H156.903C156.903 18.9563 153.5 22.3594 149.303 22.3594V14.3594V6.35938C144.664 6.35938 140.903 10.1198 140.903 14.7588H148.903ZM149.303 14.3594V22.3594H152.355V14.3594V6.35938H149.303V14.3594ZM152.355 14.3594L152.35 22.3594C148.136 22.3565 144.754 18.9363 144.754 14.7588H152.754H160.754C160.754 10.1401 157.016 6.3625 152.361 6.35938L152.355 14.3594ZM152.754 14.7588H144.754V22.9482H152.754H160.754V14.7588H152.754ZM152.754 22.9482L144.754 22.9478C144.754 23.2742 144.49 23.5368 144.161 23.5344L144.104 31.5342L144.046 39.534C153.261 39.6007 160.753 32.1511 160.754 22.9487L152.754 22.9482ZM144.104 31.5342L144.161 23.5344C144.043 23.5335 143.921 23.4954 143.792 23.3636C143.657 23.2248 143.58 23.0436 143.58 22.8398L135.58 22.8398L127.58 22.8399C127.58 31.8387 134.783 39.4678 144.046 39.534L144.104 31.5342ZM135.58 22.8398H143.58V14.7588H135.58H127.58V22.8398H135.58ZM135.58 14.7588H143.58C143.58 18.9372 140.197 22.3561 135.985 22.3594L135.979 14.3594L135.972 6.35938C131.319 6.36303 127.58 10.1392 127.58 14.7588H135.58ZM135.979 14.3594V22.3594H139.031V14.3594V6.35938H135.979V14.3594ZM80.1826 17.8652V9.86523C76.27 9.86523 72.7506 11.3732 70.0306 14.0931L75.6875 19.75L81.3444 25.4069C81.3066 25.4447 81.1418 25.5907 80.8473 25.7142C80.5494 25.8391 80.2993 25.8652 80.1826 25.8652V17.8652ZM75.6875 19.75L70.0303 14.0935C67.3273 16.7968 65.8037 20.2916 65.8037 24.2266H73.8037H81.8037C81.8037 24.3447 81.7769 24.6052 81.6462 24.915C81.5178 25.2196 81.3691 25.3821 81.3447 25.4065L75.6875 19.75ZM73.8037 24.2266L65.8037 24.2271C65.804 28.1369 67.3092 31.6561 70.0306 34.3775L75.6875 28.7207L81.3444 23.0639C81.3827 23.1022 81.5291 23.2676 81.6528 23.5627C81.7779 23.861 81.8037 24.1108 81.8037 24.226L73.8037 24.2266ZM75.6875 28.7207L70.0285 34.3754C72.7747 37.1237 76.3239 38.5859 80.1826 38.5859V30.5859V22.5859C80.284 22.5859 80.5192 22.6083 80.8084 22.728C81.098 22.8479 81.2783 22.9977 81.3465 23.066L75.6875 28.7207ZM80.1826 30.5859L80.1831 38.5859C84.071 38.5857 87.589 37.1022 90.3137 34.378L84.6572 28.7207L79.0008 23.0634C79.0517 23.0125 79.2274 22.8607 79.5278 22.7355C79.8299 22.6095 80.0772 22.5859 80.1821 22.5859L80.1826 30.5859ZM84.6572 28.7207L90.3141 34.3776C93.0415 31.6501 94.5408 28.1164 94.541 24.2271L86.541 24.2266L78.541 24.226C78.541 24.0997 78.5687 23.8527 78.6896 23.5635C78.8096 23.2767 78.9533 23.1109 79.0004 23.0638L84.6572 28.7207ZM86.541 24.2266H94.541C94.541 20.3124 93.024 16.8031 90.3141 14.0931L84.6572 19.75L79.0004 25.4069C78.9671 25.3736 78.8211 25.2107 78.6963 24.914C78.5696 24.613 78.541 24.3554 78.541 24.2266H86.541ZM84.6572 19.75L90.314 14.0931C87.6143 11.3934 84.1228 9.86549 80.1831 9.86523L80.1826 17.8652L80.1821 25.8652C80.0626 25.8652 79.8006 25.838 79.4897 25.7067C79.1844 25.5778 79.0227 25.4292 79.0004 25.4069L84.6572 19.75ZM123.219 17.8652V9.86523C119.293 9.86523 115.766 11.3947 113.068 14.0931L118.725 19.75L124.381 25.4069C124.333 25.455 124.17 25.5966 123.888 25.7153C123.601 25.8357 123.353 25.8652 123.219 25.8652V17.8652ZM118.725 19.75L113.068 14.0931C110.345 16.8157 108.861 20.3215 108.86 24.2251L116.86 24.2256L124.86 24.2261C124.86 24.3175 124.839 24.5666 124.709 24.8776C124.58 25.1866 124.425 25.3632 124.381 25.4069L118.725 19.75ZM116.86 24.2256H108.86C108.86 28.1017 110.325 31.6371 113.07 34.3797L118.725 28.7207L124.379 23.0617C124.44 23.122 124.593 23.3027 124.716 23.6011C124.84 23.8995 124.86 24.137 124.86 24.2256H116.86ZM118.725 28.7207L113.068 34.378C115.806 37.1151 119.336 38.5859 123.219 38.5859V30.5859V22.5859C123.31 22.5859 123.549 22.6067 123.848 22.7307C124.146 22.8545 124.324 23.0066 124.381 23.0634L118.725 28.7207ZM123.219 30.5859L123.219 38.5859C127.101 38.5858 130.632 37.1157 133.37 34.3777L127.713 28.7207L122.056 23.0638C122.113 23.0067 122.292 22.8544 122.59 22.7306C122.889 22.6066 123.128 22.5859 123.218 22.5859L123.219 30.5859ZM127.713 28.7207L133.37 34.3776C136.1 31.6471 137.596 28.1114 137.596 24.2256H129.596H121.596C121.596 24.101 121.623 23.8549 121.744 23.5658C121.864 23.2788 122.008 23.1122 122.056 23.0638L127.713 28.7207ZM129.596 24.2256L137.596 24.2251C137.595 20.3135 136.081 16.8045 133.37 14.0934L127.713 19.75L122.056 25.4066C122.022 25.3728 121.876 25.2094 121.751 24.9123C121.624 24.6111 121.596 24.3539 121.596 24.2261L129.596 24.2256ZM127.713 19.75L133.37 14.0931C130.651 11.374 127.132 9.86541 123.219 9.86523L123.219 17.8652L123.218 25.8652C123.102 25.8652 122.851 25.8391 122.553 25.7139C122.258 25.5903 122.093 25.4441 122.056 25.4069L127.713 19.75ZM101.682 17.8652L101.681 9.86523C98.5621 9.86532 95.6009 10.8357 93.0848 12.7531L97.9336 19.1162L102.782 25.4793C102.661 25.5717 102.47 25.6845 102.224 25.7665C101.981 25.8479 101.784 25.8652 101.682 25.8652L101.682 17.8652ZM97.9336 19.1162L93.1452 12.7075C91.0819 14.2492 89.4327 16.2776 88.4013 18.7513L95.7852 21.8301L103.169 24.9088C103.113 25.0431 103.031 25.1844 102.93 25.3121C102.831 25.4376 102.748 25.5053 102.722 25.5249L97.9336 19.1162ZM95.7852 21.8301L88.4077 18.736C85.8849 24.7514 90.709 30.3202 96.1245 30.3232L96.1289 22.3232L96.1333 14.3232C101.029 14.326 105.485 19.3876 103.163 24.9242L95.7852 21.8301ZM96.1289 22.3232V30.3232H107.233V22.3232V14.3232H96.1289V22.3232ZM107.233 22.3232V30.3232C112.683 30.3232 117.442 24.7405 114.97 18.7686L107.578 21.8291L100.187 24.8896C97.9131 19.3986 102.304 14.3232 107.233 14.3232V22.3232ZM107.578 21.8291L114.973 18.7766C113.944 16.2843 112.282 14.1968 110.114 12.6308L105.43 19.1162L100.746 25.6016C100.664 25.5429 100.547 25.4404 100.428 25.2904C100.309 25.14 100.23 24.9936 100.183 24.8816L107.578 21.8291ZM105.43 19.1162L110.279 12.7531C107.762 10.8358 104.801 9.86523 101.682 9.86523V17.8652V25.8652C101.579 25.8652 101.383 25.8479 101.139 25.7664C100.893 25.6844 100.702 25.5715 100.581 25.4793L105.43 19.1162Z" fill="#E6E2DE" mask="url(#path-4-outside-1_1173_4)"/>
</svg>
