<svg width="242" height="240" viewBox="0 0 242 240" fill="none" xmlns="http://www.w3.org/2000/svg">
<rect y="80" width="242" height="160" rx="12" fill="#E6E2DE"/>
<path d="M102.717 151.624C102.717 153.752 101.149 155 98.6209 155H94.1249V143.512H98.4449C100.861 143.512 102.349 144.6 102.349 146.568C102.349 147.624 101.757 148.472 100.733 149C102.013 149.448 102.717 150.36 102.717 151.624ZM98.2529 145.432H96.3329V148.104H98.2529C99.4369 148.104 100.045 147.592 100.045 146.76C100.045 145.944 99.4369 145.432 98.2529 145.432ZM98.4289 150.04H96.3329V153.08H98.4289C99.7409 153.08 100.429 152.504 100.429 151.528C100.429 150.616 99.7409 150.04 98.4289 150.04ZM106.708 144.472C106.708 145.224 106.1 145.784 105.22 145.784C104.356 145.784 103.748 145.224 103.748 144.472C103.748 143.688 104.356 143.128 105.22 143.128C106.1 143.128 106.708 143.688 106.708 144.472ZM106.356 155H104.132V146.456H106.356V155ZM107.615 150.728C107.615 148.2 109.103 146.296 111.407 146.296C112.431 146.296 113.295 146.744 113.935 147.56V143.512H116.143V155H114.111V153.768C113.439 154.664 112.511 155.16 111.407 155.16C109.103 155.16 107.615 153.224 107.615 150.728ZM109.903 150.728C109.903 152.328 110.815 153.176 111.903 153.176C113.007 153.176 113.919 152.312 113.919 150.696C113.919 149.08 112.991 148.264 111.903 148.264C110.815 148.264 109.903 149.096 109.903 150.728ZM117.409 150.728C117.409 148.2 118.897 146.296 121.201 146.296C122.225 146.296 123.089 146.744 123.729 147.56V143.512H125.937V155H123.905V153.768C123.233 154.664 122.305 155.16 121.201 155.16C118.897 155.16 117.409 153.224 117.409 150.728ZM119.697 150.728C119.697 152.328 120.609 153.176 121.697 153.176C122.801 153.176 123.713 152.312 123.713 150.696C123.713 149.08 122.785 148.264 121.697 148.264C120.609 148.264 119.697 149.096 119.697 150.728ZM130.002 155H127.762V143.512H130.002V155ZM135.548 155.144C132.988 155.144 131.276 153.368 131.276 150.696C131.276 148.152 133.052 146.296 135.516 146.296C138.22 146.296 140.012 148.488 139.612 151.272H133.548C133.692 152.664 134.364 153.432 135.5 153.432C136.476 153.432 137.132 152.952 137.388 152.104H139.596C139.116 154.04 137.628 155.144 135.548 155.144ZM135.468 147.928C134.428 147.928 133.772 148.6 133.58 149.864H137.26C137.196 148.68 136.524 147.928 135.468 147.928ZM144.497 155.144C141.937 155.144 140.225 153.368 140.225 150.696C140.225 148.152 142.001 146.296 144.465 146.296C147.169 146.296 148.961 148.488 148.561 151.272H142.497C142.641 152.664 143.313 153.432 144.449 153.432C145.425 153.432 146.081 152.952 146.337 152.104H148.545C148.065 154.04 146.577 155.144 144.497 155.144ZM144.417 147.928C143.377 147.928 142.721 148.6 142.529 149.864H146.209C146.145 148.68 145.473 147.928 144.417 147.928Z" fill="#1A1A1A"/>
<path d="M49.2682 175H43.1782V164.948H44.7182V173.614H49.2682V175ZM53.2907 175.14C51.1907 175.14 49.6507 173.488 49.6507 171.29C49.6507 169.092 51.1907 167.44 53.2907 167.44C55.3907 167.44 56.9307 169.092 56.9307 171.29C56.9307 173.488 55.3907 175.14 53.2907 175.14ZM53.2907 173.894C54.5087 173.894 55.4747 172.914 55.4747 171.29C55.4747 169.666 54.5087 168.7 53.2907 168.7C52.0727 168.7 51.1207 169.666 51.1207 171.29C51.1207 172.914 52.0727 173.894 53.2907 173.894ZM60.9234 177.856C58.9774 177.856 57.7174 176.82 57.6334 175.14H59.0054C59.0894 176.176 59.7614 176.736 60.9094 176.736C62.1834 176.736 62.8554 176.05 62.8554 174.776V173.432C62.4354 174.328 61.5954 174.846 60.5874 174.846C58.7394 174.846 57.4234 173.32 57.4234 171.136C57.4234 168.924 58.6834 167.44 60.5454 167.44C61.6094 167.44 62.4494 167.958 62.9534 168.896V167.58H64.2694V174.748C64.2694 176.694 63.0234 177.856 60.9234 177.856ZM58.8514 171.136C58.8514 172.676 59.6074 173.614 60.8394 173.614C62.0434 173.614 62.8554 172.648 62.8554 171.178C62.8554 169.638 62.0574 168.658 60.8394 168.658C59.6214 168.658 58.8514 169.61 58.8514 171.136ZM69.0549 175.14C66.9549 175.14 65.4149 173.488 65.4149 171.29C65.4149 169.092 66.9549 167.44 69.0549 167.44C71.1549 167.44 72.6949 169.092 72.6949 171.29C72.6949 173.488 71.1549 175.14 69.0549 175.14ZM69.0549 173.894C70.2729 173.894 71.2389 172.914 71.2389 171.29C71.2389 169.666 70.2729 168.7 69.0549 168.7C67.8369 168.7 66.8849 169.666 66.8849 171.29C66.8849 172.914 67.8369 173.894 69.0549 173.894ZM79.7921 175H76.6141V164.948H79.7921C82.9981 164.948 84.8461 166.992 84.8461 169.932C84.8461 172.83 82.9281 175 79.7921 175ZM78.1541 166.278V173.67H79.7221C82.0321 173.67 83.2781 172.242 83.2781 169.932C83.2781 167.664 82.0461 166.278 79.7221 166.278H78.1541ZM89.1179 175.14C86.9759 175.14 85.5339 173.586 85.5339 171.248C85.5339 169.05 87.0319 167.44 89.0759 167.44C91.2879 167.44 92.7579 169.232 92.5059 171.64H86.9759C87.0879 173.152 87.8439 174.034 89.0899 174.034C90.1399 174.034 90.8679 173.46 91.1059 172.494H92.5059C92.1419 174.146 90.8679 175.14 89.1179 175.14ZM89.0479 168.504C87.9139 168.504 87.1439 169.316 86.9899 170.702H91.0079C90.9379 169.33 90.1959 168.504 89.0479 168.504ZM99.6093 172.788C99.6093 174.244 98.4753 175.14 96.5013 175.14C94.5413 175.14 93.3793 174.174 93.2393 172.578H94.5973C94.6533 173.502 95.3953 174.076 96.5293 174.076C97.5233 174.076 98.1813 173.726 98.1813 173.026C98.1813 172.41 97.8033 172.144 96.8793 171.962L95.6753 171.738C94.3033 171.472 93.5333 170.772 93.5333 169.652C93.5333 168.35 94.6673 167.44 96.3893 167.44C98.1673 167.44 99.3713 168.392 99.4973 169.918H98.1393C98.0553 169.022 97.3973 168.504 96.4033 168.504C95.5073 168.504 94.9053 168.882 94.9053 169.526C94.9053 170.128 95.2833 170.408 96.1793 170.576L97.4393 170.814C98.9093 171.08 99.6093 171.724 99.6093 172.788ZM102.595 165.858C102.595 166.39 102.175 166.796 101.573 166.796C100.971 166.796 100.537 166.39 100.537 165.858C100.537 165.312 100.971 164.92 101.573 164.92C102.175 164.92 102.595 165.312 102.595 165.858ZM102.287 175H100.873V167.58H102.287V175ZM106.938 177.856C104.992 177.856 103.732 176.82 103.648 175.14H105.02C105.104 176.176 105.776 176.736 106.924 176.736C108.198 176.736 108.87 176.05 108.87 174.776V173.432C108.45 174.328 107.61 174.846 106.602 174.846C104.754 174.846 103.438 173.32 103.438 171.136C103.438 168.924 104.698 167.44 106.56 167.44C107.624 167.44 108.464 167.958 108.968 168.896V167.58H110.284V174.748C110.284 176.694 109.038 177.856 106.938 177.856ZM104.866 171.136C104.866 172.676 105.622 173.614 106.854 173.614C108.058 173.614 108.87 172.648 108.87 171.178C108.87 169.638 108.072 168.658 106.854 168.658C105.636 168.658 104.866 169.61 104.866 171.136ZM113.376 170.814V175H111.962V167.58H113.278V168.812C113.782 167.986 114.622 167.44 115.644 167.44C117.17 167.44 118.178 168.42 118.178 170.198V175H116.764V170.674C116.764 169.4 116.204 168.686 115.154 168.686C114.188 168.686 113.376 169.498 113.376 170.814ZM121.693 174.398C121.693 175.728 120.643 176.764 119.103 176.792V175.994C120.013 175.966 120.629 175.476 120.713 174.79C120.587 174.832 120.503 174.846 120.405 174.846C119.873 174.846 119.481 174.412 119.481 173.894C119.481 173.292 119.929 172.9 120.503 172.9C121.273 172.9 121.693 173.46 121.693 174.398ZM133.002 172.116C133.002 173.95 131.658 175 129.572 175H125.89V164.948H129.376C131.406 164.948 132.624 165.886 132.624 167.58C132.624 168.532 132.05 169.344 131.084 169.764C132.33 170.114 133.002 170.968 133.002 172.116ZM129.278 166.18H127.304V169.204H129.278C130.496 169.204 131.154 168.63 131.154 167.692C131.154 166.754 130.496 166.18 129.278 166.18ZM129.474 170.436H127.304V173.768H129.474C130.79 173.768 131.532 173.138 131.532 172.074C131.532 171.052 130.79 170.436 129.474 170.436ZM135.798 171.206V175H134.384V167.58H135.7V169.148C136.218 168.126 137.338 167.482 138.556 167.482V168.952C136.96 168.868 135.798 169.568 135.798 171.206ZM143.89 175V173.852C143.428 174.678 142.602 175.14 141.51 175.14C139.97 175.14 138.962 174.258 138.962 172.9C138.962 171.444 140.124 170.688 142.336 170.688C142.77 170.688 143.12 170.702 143.722 170.772V170.226C143.722 169.162 143.148 168.56 142.168 168.56C141.132 168.56 140.502 169.176 140.46 170.212H139.172C139.242 168.546 140.432 167.44 142.168 167.44C144.002 167.44 145.066 168.476 145.066 170.24V175H143.89ZM140.306 172.858C140.306 173.628 140.88 174.132 141.79 174.132C142.98 174.132 143.722 173.39 143.722 172.256V171.654C143.176 171.584 142.784 171.57 142.42 171.57C141.006 171.57 140.306 171.99 140.306 172.858ZM148.09 170.814V175H146.676V167.58H147.992V168.812C148.496 167.986 149.336 167.44 150.358 167.44C151.884 167.44 152.892 168.42 152.892 170.198V175H151.478V170.674C151.478 169.4 150.918 168.686 149.868 168.686C148.902 168.686 148.09 169.498 148.09 170.814ZM153.958 171.29C153.958 169.036 155.246 167.44 157.248 167.44C158.242 167.44 159.11 167.944 159.628 168.854V164.948H161.042V175H159.726V173.67C159.194 174.608 158.298 175.14 157.248 175.14C155.246 175.14 153.958 173.516 153.958 171.29ZM155.428 171.29C155.428 172.942 156.296 173.88 157.528 173.88C158.732 173.88 159.628 172.9 159.628 171.262C159.628 169.596 158.704 168.686 157.528 168.686C156.296 168.686 155.428 169.61 155.428 171.29ZM168.663 175H165.485V164.948H168.663C171.869 164.948 173.717 166.992 173.717 169.932C173.717 172.83 171.799 175 168.663 175ZM167.025 166.278V173.67H168.593C170.903 173.67 172.149 172.242 172.149 169.932C172.149 167.664 170.917 166.278 168.593 166.278H167.025ZM177.989 175.14C175.847 175.14 174.405 173.586 174.405 171.248C174.405 169.05 175.903 167.44 177.947 167.44C180.159 167.44 181.629 169.232 181.377 171.64H175.847C175.959 173.152 176.715 174.034 177.961 174.034C179.011 174.034 179.739 173.46 179.977 172.494H181.377C181.013 174.146 179.739 175.14 177.989 175.14ZM177.919 168.504C176.785 168.504 176.015 169.316 175.861 170.702H179.879C179.809 169.33 179.067 168.504 177.919 168.504ZM185.39 175.154C183.36 175.154 181.932 173.558 181.932 171.29C181.932 169.05 183.388 167.44 185.39 167.44C187.224 167.44 188.554 168.658 188.82 170.59H187.336C187.182 169.4 186.44 168.686 185.404 168.686C184.186 168.686 183.388 169.722 183.388 171.29C183.388 172.872 184.186 173.894 185.404 173.894C186.454 173.894 187.182 173.194 187.35 171.99H188.82C188.568 173.95 187.252 175.154 185.39 175.154ZM191.377 175H189.963V164.948H191.377V170.898L194.555 167.58H196.221L192.791 171.178L196.543 175H194.723L191.377 171.486V175ZM199.175 174.398C199.175 175.728 198.125 176.764 196.585 176.792V175.994C197.495 175.966 198.111 175.476 198.195 174.79C198.069 174.832 197.985 174.846 197.887 174.846C197.355 174.846 196.963 174.412 196.963 173.894C196.963 173.292 197.411 172.9 197.985 172.9C198.755 172.9 199.175 173.46 199.175 174.398ZM75.6217 189.116C75.6217 190.95 74.2777 192 72.1917 192H68.5097V181.948H71.9957C74.0257 181.948 75.2437 182.886 75.2437 184.58C75.2437 185.532 74.6697 186.344 73.7037 186.764C74.9497 187.114 75.6217 187.968 75.6217 189.116ZM71.8977 183.18H69.9237V186.204H71.8977C73.1157 186.204 73.7737 185.63 73.7737 184.692C73.7737 183.754 73.1157 183.18 71.8977 183.18ZM72.0937 187.436H69.9237V190.768H72.0937C73.4097 190.768 74.1517 190.138 74.1517 189.074C74.1517 188.052 73.4097 187.436 72.0937 187.436ZM78.4185 188.206V192H77.0045V184.58H78.3205V186.148C78.8385 185.126 79.9585 184.482 81.1765 184.482V185.952C79.5805 185.868 78.4185 186.568 78.4185 188.206ZM86.5095 192V190.852C86.0475 191.678 85.2215 192.14 84.1295 192.14C82.5895 192.14 81.5815 191.258 81.5815 189.9C81.5815 188.444 82.7435 187.688 84.9555 187.688C85.3895 187.688 85.7395 187.702 86.3415 187.772V187.226C86.3415 186.162 85.7675 185.56 84.7875 185.56C83.7515 185.56 83.1215 186.176 83.0795 187.212H81.7915C81.8615 185.546 83.0515 184.44 84.7875 184.44C86.6215 184.44 87.6855 185.476 87.6855 187.24V192H86.5095ZM82.9255 189.858C82.9255 190.628 83.4995 191.132 84.4095 191.132C85.5995 191.132 86.3415 190.39 86.3415 189.256V188.654C85.7955 188.584 85.4035 188.57 85.0395 188.57C83.6255 188.57 82.9255 188.99 82.9255 189.858ZM90.71 187.814V192H89.296V184.58H90.612V185.812C91.116 184.986 91.956 184.44 92.978 184.44C94.504 184.44 95.512 185.42 95.512 187.198V192H94.098V187.674C94.098 186.4 93.538 185.686 92.488 185.686C91.522 185.686 90.71 186.498 90.71 187.814ZM96.5778 188.29C96.5778 186.036 97.8658 184.44 99.8678 184.44C100.862 184.44 101.73 184.944 102.248 185.854V181.948H103.662V192H102.346V190.67C101.814 191.608 100.918 192.14 99.8678 192.14C97.8658 192.14 96.5778 190.516 96.5778 188.29ZM98.0478 188.29C98.0478 189.942 98.9158 190.88 100.148 190.88C101.352 190.88 102.248 189.9 102.248 188.262C102.248 186.596 101.324 185.686 100.148 185.686C98.9158 185.686 98.0478 186.61 98.0478 188.29ZM112.487 192.21C109.687 192.21 107.517 189.928 107.517 186.96C107.517 184.006 109.687 181.738 112.487 181.738C115.007 181.738 117.023 183.418 117.401 185.896H115.763C115.483 184.272 114.167 183.124 112.501 183.124C110.513 183.124 109.113 184.734 109.113 186.96C109.113 189.214 110.513 190.824 112.501 190.824C114.167 190.824 115.483 189.662 115.763 188.038H117.401C117.023 190.53 115.007 192.21 112.487 192.21ZM121.718 192.14C119.618 192.14 118.078 190.488 118.078 188.29C118.078 186.092 119.618 184.44 121.718 184.44C123.818 184.44 125.358 186.092 125.358 188.29C125.358 190.488 123.818 192.14 121.718 192.14ZM121.718 190.894C122.936 190.894 123.902 189.914 123.902 188.29C123.902 186.666 122.936 185.7 121.718 185.7C120.5 185.7 119.548 186.666 119.548 188.29C119.548 189.914 120.5 190.894 121.718 190.894ZM127.947 192H126.519V181.948H127.947V192ZM131.058 192H129.63V181.948H131.058V192ZM137.234 192V190.852C136.772 191.678 135.946 192.14 134.854 192.14C133.314 192.14 132.306 191.258 132.306 189.9C132.306 188.444 133.468 187.688 135.68 187.688C136.114 187.688 136.464 187.702 137.066 187.772V187.226C137.066 186.162 136.492 185.56 135.512 185.56C134.476 185.56 133.846 186.176 133.804 187.212H132.516C132.586 185.546 133.776 184.44 135.512 184.44C137.346 184.44 138.41 185.476 138.41 187.24V192H137.234ZM133.65 189.858C133.65 190.628 134.224 191.132 135.134 191.132C136.324 191.132 137.066 190.39 137.066 189.256V188.654C136.52 188.584 136.128 188.57 135.764 188.57C134.35 188.57 133.65 188.99 133.65 189.858ZM144.139 190.628V191.874C143.705 192.07 143.327 192.14 142.879 192.14C141.507 192.14 140.555 191.398 140.555 189.76V185.784H138.917V184.58H140.555V182.382H141.969V184.58H144.209V185.784H141.969V189.438C141.969 190.46 142.459 190.824 143.215 190.824C143.551 190.824 143.845 190.768 144.139 190.628ZM148.125 192.14C145.983 192.14 144.541 190.586 144.541 188.248C144.541 186.05 146.039 184.44 148.083 184.44C150.295 184.44 151.765 186.232 151.513 188.64H145.983C146.095 190.152 146.851 191.034 148.097 191.034C149.147 191.034 149.875 190.46 150.113 189.494H151.513C151.149 191.146 149.875 192.14 148.125 192.14ZM148.055 185.504C146.921 185.504 146.151 186.316 145.997 187.702H150.015C149.945 186.33 149.203 185.504 148.055 185.504ZM154.15 188.206V192H152.736V184.58H154.052V186.148C154.57 185.126 155.69 184.482 156.908 184.482V185.952C155.312 185.868 154.15 186.568 154.15 188.206ZM162.241 192V190.852C161.779 191.678 160.953 192.14 159.861 192.14C158.321 192.14 157.313 191.258 157.313 189.9C157.313 188.444 158.475 187.688 160.687 187.688C161.121 187.688 161.471 187.702 162.073 187.772V187.226C162.073 186.162 161.499 185.56 160.519 185.56C159.483 185.56 158.853 186.176 158.811 187.212H157.523C157.593 185.546 158.783 184.44 160.519 184.44C162.353 184.44 163.417 185.476 163.417 187.24V192H162.241ZM158.657 189.858C158.657 190.628 159.231 191.132 160.141 191.132C161.331 191.132 162.073 190.39 162.073 189.256V188.654C161.527 188.584 161.135 188.57 160.771 188.57C159.357 188.57 158.657 188.99 158.657 189.858ZM166.456 192H165.028V181.948H166.456V192ZM174.018 189.788C174.018 191.244 172.884 192.14 170.91 192.14C168.95 192.14 167.788 191.174 167.648 189.578H169.006C169.062 190.502 169.804 191.076 170.938 191.076C171.932 191.076 172.59 190.726 172.59 190.026C172.59 189.41 172.212 189.144 171.288 188.962L170.084 188.738C168.712 188.472 167.942 187.772 167.942 186.652C167.942 185.35 169.076 184.44 170.798 184.44C172.576 184.44 173.78 185.392 173.906 186.918H172.548C172.464 186.022 171.806 185.504 170.812 185.504C169.916 185.504 169.314 185.882 169.314 186.526C169.314 187.128 169.692 187.408 170.588 187.576L171.848 187.814C173.318 188.08 174.018 188.724 174.018 189.788Z" fill="#1A1A1A"/>
<mask id="path-4-outside-1_1195_201" maskUnits="userSpaceOnUse" x="52" y="58" width="138" height="44" fill="black">
<rect fill="white" x="52" y="58" width="138" height="44"/>
<path fill-rule="evenodd" clip-rule="evenodd" d="M125.788 93.6787H122.781V91.2285C121.691 92.8805 119.932 93.9999 117.642 94C113.727 94 110.878 90.8299 110.878 86.3574C110.878 81.885 113.779 78.715 117.616 78.7148C119.932 78.7148 121.69 79.8588 122.784 81.5391V73.1768H125.788V93.6787ZM118.276 81.5889C115.721 81.589 113.91 83.558 113.91 86.3535C113.91 89.1492 115.749 91.1191 118.276 91.1191C120.804 91.1191 122.777 89.174 122.777 86.3535C122.777 83.558 120.832 81.5889 118.276 81.5889Z"/>
<path fill-rule="evenodd" clip-rule="evenodd" d="M142.831 93.6787H139.824V91.2285C138.734 92.8805 136.975 93.9999 134.685 94C130.77 94 127.921 90.8299 127.921 86.3574C127.921 81.885 130.822 78.715 134.659 78.7148C136.975 78.7148 138.733 79.8588 139.827 81.5391V73.1768H142.831V93.6787ZM135.323 81.5889C132.768 81.5889 130.956 83.558 130.956 86.3535C130.956 89.1493 132.796 91.1191 135.323 91.1191C137.851 91.119 139.824 89.1739 139.824 86.3535C139.824 83.558 137.879 81.589 135.323 81.5889Z"/>
<path fill-rule="evenodd" clip-rule="evenodd" d="M91.8652 81.5322C92.9313 79.8555 94.6892 78.708 97.0049 78.708C100.838 78.708 103.743 81.8781 103.743 86.3506L103.74 86.3545C103.74 90.8268 100.891 93.9961 96.9766 93.9961C94.6857 93.9961 92.9278 92.8776 91.8652 91.2256V93.6748H88.8574V73.1699H91.8652V81.5322ZM96.334 81.5889C93.7784 81.589 91.833 83.5588 91.833 86.3545C91.8332 89.1499 93.7785 91.119 96.334 91.1191C98.8896 91.1191 100.701 89.1747 100.701 86.3545C100.701 83.5587 98.8897 81.5889 96.334 81.5889Z"/>
<path d="M71.6494 66C72.5106 66.0001 73.2908 66.343 73.8555 66.8936L76.6152 69.6924L66.9502 79.1104C66.1263 79.9145 65.6875 80.9577 65.6357 82.0156L65.6338 82.2314C65.6339 83.3608 66.0754 84.49 66.9541 85.3477C67.8331 86.2054 68.9945 86.6367 70.1523 86.6367C71.3102 86.6367 72.4716 86.2054 73.3506 85.3477L76.0293 82.7354L83.3965 89.916V91.2285C83.3965 92.0757 83.0015 92.8354 82.3838 93.3438L76.7217 87.8262C76.3299 87.4449 75.6946 87.445 75.3027 87.8262C74.9109 88.2074 74.9109 88.8287 75.3027 89.21L80.2129 93.9932H75.9277L71.3633 89.5449C70.9716 89.1638 70.3362 89.164 69.9443 89.5449C69.5525 89.9262 69.5525 90.5475 69.9443 90.9287L73.0859 93.9932H68.7998L66.0049 91.2676C65.6132 90.8865 64.9778 90.8867 64.5859 91.2676C64.1941 91.6488 64.1941 92.2701 64.5859 92.6514L65.9619 93.9932H62.8379C61.2777 93.993 60 92.7499 60 91.2285V77.2998C60 76.4914 60.325 75.7565 60.8545 75.2129L69.4883 66.8506C70.046 66.3246 70.7881 66 71.6494 66Z"/>
<path fill-rule="evenodd" clip-rule="evenodd" d="M157.823 78.7051C162.536 78.7052 165.518 82.3546 165.226 87.1729V87.1797H153.322C153.562 89.8696 155.451 91.3594 157.904 91.3594C159.662 91.3593 161.127 90.615 161.819 89.1748H164.936C163.792 92.4503 160.997 93.993 157.88 93.9932C153.432 93.9932 150.262 90.7981 150.262 86.375C150.262 81.9521 153.404 78.7051 157.823 78.7051ZM157.826 81.3203C155.617 81.3205 153.993 82.7573 153.484 84.7305H162.006C161.554 82.7325 160.036 81.3203 157.826 81.3203Z"/>
<path fill-rule="evenodd" clip-rule="evenodd" d="M174.202 78.7051C178.915 78.7051 181.897 82.3545 181.604 87.1729V87.1797H169.701C169.941 89.8694 171.83 91.3592 174.283 91.3594C176.041 91.3594 177.506 90.6149 178.198 89.1748H181.315C180.172 92.4506 177.372 93.9932 174.259 93.9932C169.811 93.9931 166.642 90.7981 166.642 86.375C166.642 81.9521 169.783 78.7052 174.202 78.7051ZM174.202 81.3203C171.992 81.3204 170.369 82.7573 169.86 84.7305H178.382C177.93 82.7325 176.412 81.3203 174.202 81.3203Z"/>
<path d="M148.345 93.6787H145.31V73.1729H148.345V93.6787Z"/>
<path d="M108.742 93.6748H105.734V79.0293H108.742V93.6748Z"/>
<path d="M82.5635 75.7227C83.0823 76.2627 83.4004 76.9898 83.4004 77.791V87.1484L76.0508 79.9863L76.0293 79.9648L71.9316 83.9609C71.4445 84.4339 70.7983 84.6748 70.1523 84.6748C69.5064 84.6748 68.8602 84.4375 68.373 83.9609C67.8827 83.4845 67.6388 82.8566 67.6387 82.2285C67.6387 81.6003 67.886 80.9716 68.373 80.4951L69.0654 79.8203V79.8242L78.0098 71.1055L82.5635 75.7227Z"/>
<path d="M107.228 72.4248C108.322 72.4248 109.197 73.1976 109.197 74.2637C109.197 75.3543 108.371 76.1553 107.228 76.1553C106.084 76.1552 105.283 75.3578 105.283 74.2637C105.283 73.1694 106.133 72.4249 107.228 72.4248Z"/>
<path d="M125.792 73.1768H125.788V73.1729L125.792 73.1768Z"/>
<path d="M142.835 73.1768H142.831V73.1729L142.835 73.1768Z"/>
</mask>
<path fill-rule="evenodd" clip-rule="evenodd" d="M125.788 93.6787H122.781V91.2285C121.691 92.8805 119.932 93.9999 117.642 94C113.727 94 110.878 90.8299 110.878 86.3574C110.878 81.885 113.779 78.715 117.616 78.7148C119.932 78.7148 121.69 79.8588 122.784 81.5391V73.1768H125.788V93.6787ZM118.276 81.5889C115.721 81.589 113.91 83.558 113.91 86.3535C113.91 89.1492 115.749 91.1191 118.276 91.1191C120.804 91.1191 122.777 89.174 122.777 86.3535C122.777 83.558 120.832 81.5889 118.276 81.5889Z" fill="black"/>
<path fill-rule="evenodd" clip-rule="evenodd" d="M142.831 93.6787H139.824V91.2285C138.734 92.8805 136.975 93.9999 134.685 94C130.77 94 127.921 90.8299 127.921 86.3574C127.921 81.885 130.822 78.715 134.659 78.7148C136.975 78.7148 138.733 79.8588 139.827 81.5391V73.1768H142.831V93.6787ZM135.323 81.5889C132.768 81.5889 130.956 83.558 130.956 86.3535C130.956 89.1493 132.796 91.1191 135.323 91.1191C137.851 91.119 139.824 89.1739 139.824 86.3535C139.824 83.558 137.879 81.589 135.323 81.5889Z" fill="black"/>
<path fill-rule="evenodd" clip-rule="evenodd" d="M91.8652 81.5322C92.9313 79.8555 94.6892 78.708 97.0049 78.708C100.838 78.708 103.743 81.8781 103.743 86.3506L103.74 86.3545C103.74 90.8268 100.891 93.9961 96.9766 93.9961C94.6857 93.9961 92.9278 92.8776 91.8652 91.2256V93.6748H88.8574V73.1699H91.8652V81.5322ZM96.334 81.5889C93.7784 81.589 91.833 83.5588 91.833 86.3545C91.8332 89.1499 93.7785 91.119 96.334 91.1191C98.8896 91.1191 100.701 89.1747 100.701 86.3545C100.701 83.5587 98.8897 81.5889 96.334 81.5889Z" fill="black"/>
<path d="M71.6494 66C72.5106 66.0001 73.2908 66.343 73.8555 66.8936L76.6152 69.6924L66.9502 79.1104C66.1263 79.9145 65.6875 80.9577 65.6357 82.0156L65.6338 82.2314C65.6339 83.3608 66.0754 84.49 66.9541 85.3477C67.8331 86.2054 68.9945 86.6367 70.1523 86.6367C71.3102 86.6367 72.4716 86.2054 73.3506 85.3477L76.0293 82.7354L83.3965 89.916V91.2285C83.3965 92.0757 83.0015 92.8354 82.3838 93.3438L76.7217 87.8262C76.3299 87.4449 75.6946 87.445 75.3027 87.8262C74.9109 88.2074 74.9109 88.8287 75.3027 89.21L80.2129 93.9932H75.9277L71.3633 89.5449C70.9716 89.1638 70.3362 89.164 69.9443 89.5449C69.5525 89.9262 69.5525 90.5475 69.9443 90.9287L73.0859 93.9932H68.7998L66.0049 91.2676C65.6132 90.8865 64.9778 90.8867 64.5859 91.2676C64.1941 91.6488 64.1941 92.2701 64.5859 92.6514L65.9619 93.9932H62.8379C61.2777 93.993 60 92.7499 60 91.2285V77.2998C60 76.4914 60.325 75.7565 60.8545 75.2129L69.4883 66.8506C70.046 66.3246 70.7881 66 71.6494 66Z" fill="black"/>
<path fill-rule="evenodd" clip-rule="evenodd" d="M157.823 78.7051C162.536 78.7052 165.518 82.3546 165.226 87.1729V87.1797H153.322C153.562 89.8696 155.451 91.3594 157.904 91.3594C159.662 91.3593 161.127 90.615 161.819 89.1748H164.936C163.792 92.4503 160.997 93.993 157.88 93.9932C153.432 93.9932 150.262 90.7981 150.262 86.375C150.262 81.9521 153.404 78.7051 157.823 78.7051ZM157.826 81.3203C155.617 81.3205 153.993 82.7573 153.484 84.7305H162.006C161.554 82.7325 160.036 81.3203 157.826 81.3203Z" fill="black"/>
<path fill-rule="evenodd" clip-rule="evenodd" d="M174.202 78.7051C178.915 78.7051 181.897 82.3545 181.604 87.1729V87.1797H169.701C169.941 89.8694 171.83 91.3592 174.283 91.3594C176.041 91.3594 177.506 90.6149 178.198 89.1748H181.315C180.172 92.4506 177.372 93.9932 174.259 93.9932C169.811 93.9931 166.642 90.7981 166.642 86.375C166.642 81.9521 169.783 78.7052 174.202 78.7051ZM174.202 81.3203C171.992 81.3204 170.369 82.7573 169.86 84.7305H178.382C177.93 82.7325 176.412 81.3203 174.202 81.3203Z" fill="black"/>
<path d="M148.345 93.6787H145.31V73.1729H148.345V93.6787Z" fill="black"/>
<path d="M108.742 93.6748H105.734V79.0293H108.742V93.6748Z" fill="black"/>
<path d="M82.5635 75.7227C83.0823 76.2627 83.4004 76.9898 83.4004 77.791V87.1484L76.0508 79.9863L76.0293 79.9648L71.9316 83.9609C71.4445 84.4339 70.7983 84.6748 70.1523 84.6748C69.5064 84.6748 68.8602 84.4375 68.373 83.9609C67.8827 83.4845 67.6388 82.8566 67.6387 82.2285C67.6387 81.6003 67.886 80.9716 68.373 80.4951L69.0654 79.8203V79.8242L78.0098 71.1055L82.5635 75.7227Z" fill="black"/>
<path d="M107.228 72.4248C108.322 72.4248 109.197 73.1976 109.197 74.2637C109.197 75.3543 108.371 76.1553 107.228 76.1553C106.084 76.1552 105.283 75.3578 105.283 74.2637C105.283 73.1694 106.133 72.4249 107.228 72.4248Z" fill="black"/>
<path d="M125.792 73.1768H125.788V73.1729L125.792 73.1768Z" fill="black"/>
<path d="M142.835 73.1768H142.831V73.1729L142.835 73.1768Z" fill="black"/>
<path d="M125.788 93.6787V101.679C130.206 101.679 133.788 98.097 133.788 93.6787H125.788ZM122.781 93.6787H114.781C114.781 98.097 118.363 101.679 122.781 101.679V93.6787ZM122.781 91.2285H130.781C130.781 87.6966 128.465 84.5826 125.082 83.5666C121.7 82.5507 118.051 83.8732 116.105 86.8206L122.781 91.2285ZM117.642 94V102H117.642L117.642 94ZM110.878 86.3574L102.878 86.3574V86.3574H110.878ZM117.616 78.7148V70.7148H117.616L117.616 78.7148ZM122.784 81.5391L116.08 85.9049C118.013 88.8723 121.667 90.2161 125.061 89.2081C128.456 88.2002 130.784 85.0803 130.784 81.5391H122.784ZM122.784 73.1768V65.1768C118.366 65.1768 114.784 68.7585 114.784 73.1768H122.784ZM142.831 93.6787V101.679C147.249 101.679 150.831 98.097 150.831 93.6787H142.831ZM139.824 93.6787H131.824C131.824 98.097 135.406 101.679 139.824 101.679V93.6787ZM139.824 91.2285H147.824C147.824 87.6966 145.508 84.5826 142.125 83.5666C138.743 82.5507 135.094 83.8732 133.148 86.8206L139.824 91.2285ZM134.685 94V102H134.685L134.685 94ZM127.921 86.3574L119.921 86.3574V86.3574H127.921ZM134.659 78.7148V70.7148H134.659L134.659 78.7148ZM139.827 81.5391L133.123 85.9049C135.056 88.8723 138.71 90.2161 142.104 89.2081C145.499 88.2002 147.827 85.0803 147.827 81.5391H139.827ZM139.827 73.1768V65.1768C135.409 65.1768 131.827 68.7585 131.827 73.1768H139.827ZM91.8652 81.5322H83.8652C83.8652 85.0897 86.2143 88.2197 89.6301 89.2136C93.0459 90.2076 96.7076 88.8265 98.6163 85.8245L91.8652 81.5322ZM97.0049 78.708V70.708H97.0049L97.0049 78.708ZM103.743 86.3506L110.143 91.1506C111.182 89.7658 111.743 88.0815 111.743 86.3506H103.743ZM103.74 86.3545L97.3402 81.5545C96.3017 82.9392 95.7403 84.6233 95.7402 86.3541L103.74 86.3545ZM96.9766 93.9961L96.9765 101.996H96.9766V93.9961ZM91.8652 91.2256L98.5937 86.898C96.6735 83.9125 93.0156 82.5494 89.6099 83.5501C86.2043 84.5507 83.8652 87.6759 83.8652 91.2256H91.8652ZM91.8652 93.6748V101.675C96.2835 101.675 99.8652 98.0931 99.8652 93.6748H91.8652ZM88.8574 93.6748H80.8574C80.8574 98.0931 84.4391 101.675 88.8574 101.675V93.6748ZM88.8574 73.1699V65.1699C84.4391 65.1699 80.8574 68.7516 80.8574 73.1699H88.8574ZM91.8652 73.1699H99.8652C99.8652 68.7516 96.2835 65.1699 91.8652 65.1699V73.1699ZM71.6494 66L71.6505 58H71.6494V66ZM73.8555 66.8936L79.5519 61.2766C79.5151 61.2392 79.4779 61.2022 79.4403 61.1656L73.8555 66.8936ZM76.6152 69.6924L82.1984 75.422C83.7238 73.9355 84.5936 71.9021 84.6148 69.7723C84.6361 67.6424 83.8072 65.5921 82.3117 64.0754L76.6152 69.6924ZM66.9502 79.1104L61.367 73.3807L61.3625 73.3852L66.9502 79.1104ZM65.6357 82.0156L57.6453 81.625C57.6401 81.731 57.637 81.8371 57.6361 81.9432L65.6357 82.0156ZM65.6338 82.2314L57.6341 82.159C57.6339 82.1835 57.6338 82.2079 57.6338 82.2323L65.6338 82.2314ZM66.9541 85.3477L61.3664 91.0728L61.3666 91.0731L66.9541 85.3477ZM70.1523 86.6367V94.6367H70.1525L70.1523 86.6367ZM73.3506 85.3477L67.7652 79.6203L67.7631 79.6223L73.3506 85.3477ZM76.0293 82.7354L81.6132 77.0064C78.5058 73.9777 73.5504 73.9784 70.4439 77.008L76.0293 82.7354ZM83.3965 89.916H91.3965C91.3965 87.7587 90.5252 85.6929 88.9804 84.1871L83.3965 89.916ZM82.3838 93.3438L76.8005 99.0733C79.7219 101.92 84.3172 102.113 87.467 99.5212L82.3838 93.3438ZM76.7217 87.8262L82.3049 82.0967L82.3005 82.0924L76.7217 87.8262ZM75.3027 87.8262L69.7243 82.0919L69.7239 82.0924L75.3027 87.8262ZM75.3027 89.21L80.885 83.4795L80.8816 83.4762L75.3027 89.21ZM80.2129 93.9932V101.993C83.4677 101.993 86.398 100.021 87.6238 97.0062C88.8496 93.9911 88.1266 90.5339 85.7952 88.2627L80.2129 93.9932ZM75.9277 93.9932L70.3443 99.7225C71.8382 101.178 73.8417 101.993 75.9277 101.993V93.9932ZM71.3633 89.5449L76.9467 83.8156L76.9421 83.8111L71.3633 89.5449ZM69.9443 89.5449L64.3679 83.8088L64.3655 83.8111L69.9443 89.5449ZM69.9443 90.9287L75.5304 85.202L75.5232 85.1949L69.9443 90.9287ZM73.0859 93.9932V101.993C76.3397 101.993 79.2694 100.022 80.4959 97.0086C81.7223 93.9948 81.0012 90.5384 78.672 88.2664L73.0859 93.9932ZM68.7998 93.9932L63.2144 99.7206C64.7085 101.178 66.7129 101.993 68.7998 101.993V93.9932ZM66.0049 91.2676L71.5903 85.5401L71.5837 85.5338L66.0049 91.2676ZM64.5859 91.2676L59.0099 85.531L59.0071 85.5338L64.5859 91.2676ZM64.5859 92.6514L70.1712 86.9238L70.1648 86.9176L64.5859 92.6514ZM65.9619 93.9932V101.993C69.2159 101.993 72.1457 100.022 73.3721 97.0081C74.5984 93.994 73.8769 90.5374 71.5472 88.2656L65.9619 93.9932ZM62.8379 93.9932L62.8373 101.993H62.8379V93.9932ZM60.8545 75.2129L55.2887 69.4664C55.2329 69.5205 55.1779 69.5753 55.1237 69.631L60.8545 75.2129ZM69.4883 66.8506L63.9996 61.0304C63.9737 61.0548 63.948 61.0794 63.9225 61.1041L69.4883 66.8506ZM157.823 78.7051L157.823 70.7051H157.823V78.7051ZM165.226 87.1729L157.24 86.6875C157.23 86.8491 157.226 87.011 157.226 87.1729H165.226ZM165.226 87.1797V95.1797C169.644 95.1797 173.226 91.598 173.226 87.1797H165.226ZM153.322 87.1797V79.1797C151.077 79.1797 148.935 80.1233 147.419 81.7801C145.904 83.4369 145.154 85.6543 145.354 87.8908L153.322 87.1797ZM157.904 91.3594V99.3594H157.904L157.904 91.3594ZM161.819 89.1748V81.1748C158.744 81.1748 155.94 82.9382 154.608 85.7107L161.819 89.1748ZM164.936 89.1748L172.488 91.8121C173.343 89.3654 172.959 86.6564 171.459 84.5433C169.958 82.4302 167.527 81.1748 164.936 81.1748V89.1748ZM157.88 93.9932V101.993H157.88L157.88 93.9932ZM150.262 86.375L142.262 86.3747V86.375H150.262ZM174.202 78.7051V70.7051H174.202L174.202 78.7051ZM181.604 87.1729L173.619 86.6875C173.609 86.8491 173.604 87.0109 173.604 87.1729H181.604ZM181.604 87.1797V95.1797C186.023 95.1797 189.604 91.598 189.604 87.1797H181.604ZM169.701 87.1797V79.1797C167.456 79.1797 165.314 80.1233 163.798 81.7801C162.283 83.4369 161.533 85.6543 161.733 87.8908L169.701 87.1797ZM174.283 91.3594L174.283 99.3594H174.283V91.3594ZM178.198 89.1748V81.1748C175.123 81.1748 172.319 82.938 170.987 85.7103L178.198 89.1748ZM181.315 89.1748L188.868 91.8119C189.723 89.3652 189.339 86.6563 187.838 84.5432C186.338 82.4302 183.907 81.1748 181.315 81.1748V89.1748ZM174.259 93.9932L174.259 101.993H174.259V93.9932ZM166.642 86.375L158.642 86.3747V86.375H166.642ZM148.345 93.6787V101.679C152.763 101.679 156.345 98.097 156.345 93.6787H148.345ZM145.31 93.6787H137.31C137.31 98.097 140.891 101.679 145.31 101.679V93.6787ZM145.31 73.1729V65.1729C140.891 65.1729 137.31 68.7546 137.31 73.1729H145.31ZM148.345 73.1729H156.345C156.345 68.7546 152.763 65.1729 148.345 65.1729V73.1729ZM108.742 93.6748V101.675C113.16 101.675 116.742 98.0931 116.742 93.6748H108.742ZM105.734 93.6748H97.7344C97.7344 98.0931 101.316 101.675 105.734 101.675V93.6748ZM105.734 79.0293V71.0293C101.316 71.0293 97.7344 74.611 97.7344 79.0293H105.734ZM108.742 79.0293H116.742C116.742 74.611 113.16 71.0293 108.742 71.0293V79.0293ZM96.334 81.5889V73.5889H96.3337L96.334 81.5889ZM91.833 86.3545H83.833V86.3551L91.833 86.3545ZM96.334 91.1191L96.3337 99.1191H96.334V91.1191ZM100.701 86.3545L108.701 86.3551V86.3545H100.701ZM118.276 81.5889V73.5889H118.276L118.276 81.5889ZM113.91 86.3535L105.91 86.353V86.3535H113.91ZM118.276 91.1191L118.276 99.1191H118.276V91.1191ZM122.777 86.3535H130.777V86.353L122.777 86.3535ZM135.323 81.5889L135.324 73.5889H135.323V81.5889ZM130.956 86.3535L122.956 86.353V86.3535H130.956ZM135.323 91.1191V99.1191H135.324L135.323 91.1191ZM139.824 86.3535H147.824V86.353L139.824 86.3535ZM82.5635 75.7227L88.3326 70.1803C88.3083 70.1551 88.2839 70.13 88.2593 70.1051L82.5635 75.7227ZM83.4004 87.1484L77.8171 92.8779C80.121 95.123 83.5455 95.7698 86.5095 94.5195C89.4735 93.2693 91.4004 90.3653 91.4004 87.1484H83.4004ZM76.0508 79.9863L70.3939 85.6432C70.4183 85.6675 70.4428 85.6917 70.4675 85.7158L76.0508 79.9863ZM76.0293 79.9648L81.6862 74.308C78.5896 71.2115 73.579 71.18 70.4439 74.2375L76.0293 79.9648ZM71.9316 83.9609L77.5047 89.7003C77.5088 89.6963 77.513 89.6923 77.5171 89.6883L71.9316 83.9609ZM70.1523 84.6748V92.6748H70.1526L70.1523 84.6748ZM68.373 83.9609L73.9674 78.2423C73.9608 78.2358 73.9541 78.2293 73.9475 78.2228L68.373 83.9609ZM67.6387 82.2285H59.6387L59.6387 82.2301L67.6387 82.2285ZM68.373 80.4951L62.7894 74.766C62.7856 74.7697 62.7818 74.7734 62.778 74.7771L68.373 80.4951ZM69.0654 79.8203H77.0654C77.0654 76.6033 75.1385 73.6993 72.1743 72.4491C69.2102 71.1989 65.7856 71.8459 63.4818 74.0912L69.0654 79.8203ZM69.0654 79.8242H61.0654C61.0654 83.0413 62.9925 85.9455 65.9568 87.1956C68.9211 88.4456 72.3459 87.7985 74.6496 85.5529L69.0654 79.8242ZM78.0098 71.1055L83.7056 65.4879C80.616 62.3552 75.5764 62.3055 72.4256 65.3768L78.0098 71.1055ZM157.826 81.3203V73.3203H157.826L157.826 81.3203ZM153.484 84.7305L145.737 82.7348C145.12 85.1301 145.646 87.6762 147.161 89.6312C148.676 91.5863 151.011 92.7305 153.484 92.7305V84.7305ZM162.006 84.7305V92.7305C164.438 92.7305 166.737 91.6244 168.256 89.7246C169.774 87.8249 170.345 85.3378 169.809 82.9659L162.006 84.7305ZM174.202 81.3203V73.3203H174.202L174.202 81.3203ZM169.86 84.7305L162.113 82.7348C161.496 85.1301 162.022 87.6762 163.537 89.6312C165.052 91.5863 167.387 92.7305 169.86 92.7305V84.7305ZM178.382 84.7305V92.7305C180.814 92.7305 183.113 91.6244 184.632 89.7246C186.15 87.8249 186.721 85.3378 186.185 82.9659L178.382 84.7305ZM107.228 72.4248V64.4248H107.227L107.228 72.4248ZM109.197 74.2637L117.197 74.2645V74.2637H109.197ZM107.228 76.1553L107.227 84.1553H107.228V76.1553ZM105.283 74.2637H97.2832V74.2644L105.283 74.2637ZM125.792 73.1768V81.1768C129.028 81.1768 131.945 79.2276 133.183 76.2382C134.421 73.2488 133.737 69.8079 131.449 67.5199L125.792 73.1768ZM125.788 73.1729L131.445 67.516C129.157 65.228 125.716 64.5436 122.727 65.7818C119.737 67.0201 117.788 69.9372 117.788 73.1729H125.788ZM142.835 73.1768V81.1768C146.071 81.1768 148.988 79.2276 150.226 76.2382C151.464 73.2488 150.78 69.8079 148.492 67.5199L142.835 73.1768ZM142.831 73.1729L148.488 67.516C146.2 65.228 142.759 64.5436 139.77 65.7818C136.78 67.0201 134.831 69.9372 134.831 73.1729H142.831ZM125.788 93.6787V85.6787H122.781V93.6787V101.679H125.788V93.6787ZM122.781 93.6787H130.781V91.2285H122.781H114.781V93.6787H122.781ZM122.781 91.2285L116.105 86.8206C116.193 86.6882 116.387 86.4595 116.731 86.2658C117.096 86.0597 117.442 86 117.641 86L117.642 94L117.642 102C122.857 102 127.021 99.3258 129.457 95.6364L122.781 91.2285ZM117.642 94V86C117.757 86 117.965 86.0269 118.21 86.1366C118.452 86.2452 118.642 86.396 118.771 86.5406C119.038 86.8416 118.878 86.9014 118.878 86.3574H110.878H102.878C102.878 94.3375 108.45 102 117.642 102V94ZM110.878 86.3574L118.878 86.3574C118.878 85.8516 119.028 85.9037 118.78 86.1827C118.661 86.3155 118.481 86.461 118.242 86.5691C117.999 86.679 117.774 86.7148 117.616 86.7148L117.616 78.7148L117.616 70.7148C108.522 70.7151 102.878 78.3551 102.878 86.3574L110.878 86.3574ZM117.616 78.7148V86.7148C117.411 86.7148 117.054 86.652 116.681 86.4383C116.333 86.2389 116.15 86.0118 116.08 85.9049L122.784 81.5391L129.488 77.1732C127.076 73.4703 122.916 70.7148 117.616 70.7148V78.7148ZM122.784 81.5391H130.784V73.1768H122.784H114.784V81.5391H122.784ZM122.784 73.1768V81.1768H125.788V73.1768V65.1768H122.784V73.1768ZM125.788 73.1768H117.788V93.6787H125.788H133.788V73.1768H125.788ZM142.831 93.6787V85.6787H139.824V93.6787V101.679H142.831V93.6787ZM139.824 93.6787H147.824V91.2285H139.824H131.824V93.6787H139.824ZM139.824 91.2285L133.148 86.8206C133.236 86.6882 133.43 86.4595 133.774 86.2658C134.139 86.0597 134.485 86 134.684 86L134.685 94L134.685 102C139.9 102 144.064 99.3258 146.5 95.6364L139.824 91.2285ZM134.685 94V86C134.8 86 135.008 86.0269 135.253 86.1366C135.495 86.2452 135.685 86.396 135.814 86.5406C136.081 86.8416 135.921 86.9014 135.921 86.3574H127.921H119.921C119.921 94.3375 125.493 102 134.685 102V94ZM127.921 86.3574L135.921 86.3574C135.921 85.8516 136.071 85.9037 135.823 86.1827C135.704 86.3155 135.524 86.461 135.285 86.5691C135.042 86.679 134.817 86.7148 134.659 86.7148L134.659 78.7148L134.659 70.7148C125.565 70.7151 119.921 78.3551 119.921 86.3574L127.921 86.3574ZM134.659 78.7148V86.7148C134.454 86.7148 134.097 86.652 133.724 86.4383C133.376 86.2389 133.193 86.0118 133.123 85.9049L139.827 81.5391L146.531 77.1732C144.119 73.4703 139.959 70.7148 134.659 70.7148V78.7148ZM139.827 81.5391H147.827V73.1768H139.827H131.827V81.5391H139.827ZM139.827 73.1768V81.1768H142.831V73.1768V65.1768H139.827V73.1768ZM142.831 73.1768H134.831V93.6787H142.831H150.831V73.1768H142.831ZM91.8652 81.5322L98.6163 85.8245C98.5231 85.971 98.3188 86.2167 97.9584 86.4242C97.575 86.6449 97.2116 86.708 97.0049 86.708L97.0049 78.708L97.0049 70.708C91.7115 70.708 87.514 73.4653 85.1142 77.24L91.8652 81.5322ZM97.0049 78.708V86.708C96.8458 86.708 96.6201 86.6718 96.3776 86.562C96.1389 86.454 95.9589 86.309 95.8411 86.1768C95.5933 85.899 95.7432 85.8472 95.7432 86.3506H103.743H111.743C111.743 78.3455 106.093 70.708 97.0049 70.708V78.708ZM103.743 86.3506L97.3432 81.5506L97.3402 81.5545L103.74 86.3545L110.14 91.1545L110.143 91.1506L103.743 86.3506ZM103.74 86.3545L95.7402 86.3541C95.7402 86.898 95.58 86.8378 95.8478 86.5366C95.9764 86.392 96.1668 86.2412 96.4086 86.1326C96.653 86.0229 96.8611 85.9961 96.9766 85.9961V93.9961V101.996C106.167 101.996 111.74 94.3354 111.74 86.3548L103.74 86.3545ZM96.9766 93.9961L96.9767 85.9961C97.1717 85.9961 97.5231 86.0543 97.9016 86.2686C98.261 86.472 98.4808 86.7225 98.5937 86.898L91.8652 91.2256L85.1368 95.5532C87.5679 99.333 91.7781 101.996 96.9765 101.996L96.9766 93.9961ZM91.8652 91.2256H83.8652V93.6748H91.8652H99.8652V91.2256H91.8652ZM91.8652 93.6748V85.6748H88.8574V93.6748V101.675H91.8652V93.6748ZM88.8574 93.6748H96.8574V73.1699H88.8574H80.8574V93.6748H88.8574ZM88.8574 73.1699V81.1699H91.8652V73.1699V65.1699H88.8574V73.1699ZM91.8652 73.1699H83.8652V81.5322H91.8652H99.8652V73.1699H91.8652ZM71.6494 66L71.6483 74C70.3534 73.9998 69.149 73.478 68.2707 72.6215L73.8555 66.8936L79.4403 61.1656C77.4325 59.208 74.6677 58.0004 71.6505 58L71.6494 66ZM73.8555 66.8936L68.159 72.5105L70.9188 75.3093L76.6152 69.6924L82.3117 64.0754L79.5519 61.2766L73.8555 66.8936ZM66.9502 79.1104L61.3625 73.3852C59.0495 75.6426 57.7927 78.6106 57.6453 81.625L65.6357 82.0156L73.6262 82.4063C73.5823 83.3048 73.203 84.1864 72.5379 84.8355L66.9502 79.1104ZM65.6357 82.0156L57.6361 81.9432L57.6341 82.159L65.6338 82.2314L73.6335 82.3038L73.6354 82.088L65.6357 82.0156ZM65.6338 82.2314L57.6338 82.2323C57.6341 85.4531 58.9003 88.6659 61.3664 91.0728L66.9541 85.3477L72.5419 79.6225C73.2504 80.3141 73.6337 81.2686 73.6338 82.2306L65.6338 82.2314ZM66.9541 85.3477L61.3666 91.0731C63.8274 93.4746 67.0321 94.6367 70.1523 94.6367V86.6367V78.6367C70.9569 78.6367 71.8387 78.9363 72.5416 79.6223L66.9541 85.3477ZM70.1523 86.6367L70.1525 94.6367C73.2725 94.6367 76.4772 93.4746 78.9381 91.0731L73.3506 85.3477L67.7631 79.6223C68.4661 78.9363 69.3478 78.6367 70.1522 78.6367L70.1523 86.6367ZM73.3506 85.3477L78.936 91.0751L81.6147 88.4628L76.0293 82.7354L70.4439 77.008L67.7652 79.6203L73.3506 85.3477ZM76.0293 82.7354L70.4454 88.4643L77.8126 95.6449L83.3965 89.916L88.9804 84.1871L81.6132 77.0064L76.0293 82.7354ZM83.3965 89.916H75.3965V91.2285H83.3965H91.3965V89.916H83.3965ZM83.3965 91.2285H75.3965C75.3965 89.5194 76.2026 88.0697 77.3006 87.1663L82.3838 93.3438L87.467 99.5212C89.8004 97.6011 91.3965 94.6321 91.3965 91.2285H83.3965ZM82.3838 93.3438L87.967 87.6142L82.3049 82.0967L76.7217 87.8262L71.1384 93.5557L76.8005 99.0733L82.3838 93.3438ZM76.7217 87.8262L82.3005 82.0924C78.8028 78.6891 73.2211 78.6902 69.7243 82.0919L75.3027 87.8262L80.8811 93.5604C78.168 96.1998 73.857 96.2008 71.1428 93.56L76.7217 87.8262ZM75.3027 87.8262L69.7239 82.0924C66.1039 85.6146 66.1039 91.4215 69.7239 94.9438L75.3027 89.21L80.8816 83.4762C83.718 86.2359 83.718 90.8002 80.8816 93.56L75.3027 87.8262ZM75.3027 89.21L69.7204 94.9404L74.6306 99.7236L80.2129 93.9932L85.7952 88.2627L80.885 83.4795L75.3027 89.21ZM80.2129 93.9932V85.9932H75.9277V93.9932V101.993H80.2129V93.9932ZM75.9277 93.9932L81.5112 88.2638L76.9467 83.8156L71.3633 89.5449L65.7798 95.2742L70.3443 99.7225L75.9277 93.9932ZM71.3633 89.5449L76.9421 83.8111C73.4426 80.4061 67.8623 80.4116 64.3679 83.8088L69.9443 89.5449L75.5208 95.281C72.81 97.9164 68.5005 97.9214 65.7844 95.2787L71.3633 89.5449ZM69.9443 89.5449L64.3655 83.8111C60.7455 87.3333 60.7455 93.1403 64.3655 96.6625L69.9443 90.9287L75.5232 85.1949C78.3596 87.9546 78.3596 92.519 75.5232 95.2787L69.9443 89.5449ZM69.9443 90.9287L64.3582 96.6554L67.4998 99.7199L73.0859 93.9932L78.672 88.2664L75.5304 85.202L69.9443 90.9287ZM73.0859 93.9932V85.9932H68.7998V93.9932V101.993H73.0859V93.9932ZM68.7998 93.9932L74.3852 88.2657L71.5902 85.5401L66.0049 91.2676L60.4195 96.995L63.2144 99.7206L68.7998 93.9932ZM66.0049 91.2676L71.5837 85.5338C68.0837 82.1284 62.5038 82.1349 59.0099 85.531L64.5859 91.2676L70.1619 97.0041C67.4517 99.6385 63.1426 99.6445 60.426 97.0014L66.0049 91.2676ZM64.5859 91.2676L59.0071 85.5338C55.3871 89.056 55.3871 94.863 59.0071 98.3852L64.5859 92.6514L70.1648 86.9176C73.0012 89.6773 73.0012 94.2416 70.1648 97.0014L64.5859 91.2676ZM64.5859 92.6514L59.0007 98.3789L60.3766 99.7207L65.9619 93.9932L71.5472 88.2656L70.1712 86.9238L64.5859 92.6514ZM65.9619 93.9932V85.9932H62.8379V93.9932V101.993H65.9619V93.9932ZM62.8379 93.9932L62.8385 85.9932C65.4943 85.9934 68 88.1324 68 91.2285H60H52C52 97.3673 57.0612 101.993 62.8373 101.993L62.8379 93.9932ZM60 91.2285H68V77.2998H60H52V91.2285H60ZM60 77.2998H68C68 78.6881 67.4311 79.9264 66.5853 80.7948L60.8545 75.2129L55.1237 69.631C53.2189 71.5866 52 74.2947 52 77.2998H60ZM60.8545 75.2129L66.4203 80.9594L75.0541 72.5971L69.4883 66.8506L63.9225 61.1041L55.2887 69.4664L60.8545 75.2129ZM69.4883 66.8506L74.977 72.6708C74.1055 73.4925 72.9037 74 71.6494 74V66V58C68.6725 58 65.9865 59.1567 63.9996 61.0304L69.4883 66.8506ZM157.823 78.7051L157.823 86.7051C157.957 86.7051 157.91 86.7279 157.756 86.6592C157.599 86.5895 157.444 86.4743 157.327 86.3382C157.215 86.208 157.195 86.1254 157.205 86.1584C157.217 86.1947 157.26 86.3631 157.24 86.6875L165.226 87.1729L173.211 87.6582C173.464 83.4953 172.32 79.2453 169.476 75.9261C166.565 72.53 162.369 70.7052 157.823 70.7051L157.823 78.7051ZM165.226 87.1729H157.226V87.1797H165.226H173.226V87.1729H165.226ZM165.226 87.1797V79.1797H153.322V87.1797V95.1797H165.226V87.1797ZM153.322 87.1797L145.354 87.8908C145.634 91.0293 146.972 94.0701 149.511 96.2953C152.002 98.478 155.057 99.3594 157.904 99.3594V91.3594V83.3594C158.298 83.3594 159.182 83.4959 160.055 84.2612C160.977 85.069 161.251 86.02 161.291 86.4686L153.322 87.1797ZM157.904 91.3594L157.904 99.3594C161.905 99.3593 166.68 97.5307 169.03 92.6389L161.819 89.1748L154.608 85.7107C155.02 84.8545 155.697 84.1833 156.437 83.7808C157.123 83.4071 157.675 83.3594 157.904 83.3594L157.904 91.3594ZM161.819 89.1748V97.1748H164.936V89.1748V81.1748H161.819V89.1748ZM164.936 89.1748L157.383 86.5375C157.37 86.5749 157.388 86.5079 157.478 86.3925C157.568 86.2768 157.685 86.1712 157.808 86.0916C158.055 85.9322 158.135 85.9932 157.88 85.9932L157.88 93.9932L157.88 101.993C163.804 101.993 170.039 98.8263 172.488 91.8121L164.936 89.1748ZM157.88 93.9932V85.9932C157.732 85.9932 157.712 85.9681 157.781 85.9958C157.852 86.024 157.96 86.0856 158.066 86.1924C158.172 86.2989 158.233 86.4055 158.26 86.4734C158.286 86.5401 158.262 86.5197 158.262 86.375H150.262H142.262C142.262 95.1991 148.997 101.993 157.88 101.993V93.9932ZM150.262 86.375L158.262 86.3753C158.262 86.221 158.288 86.1846 158.269 86.2337C158.249 86.2837 158.198 86.3795 158.098 86.4822C157.996 86.5858 157.885 86.6538 157.798 86.6894C157.711 86.7249 157.705 86.7051 157.823 86.7051V78.7051V70.7051C148.837 70.7051 142.262 77.6835 142.262 86.3747L150.262 86.375ZM174.202 78.7051V86.7051C174.336 86.7051 174.289 86.7279 174.135 86.6592C173.978 86.5895 173.823 86.4742 173.706 86.3381C173.594 86.2079 173.574 86.1252 173.584 86.1582C173.595 86.1946 173.639 86.363 173.619 86.6875L181.604 87.1729L189.59 87.6582C189.843 83.4955 188.699 79.2453 185.855 75.9261C182.944 72.5298 178.747 70.7051 174.202 70.7051V78.7051ZM181.604 87.1729H173.604V87.1797H181.604H189.604V87.1729H181.604ZM181.604 87.1797V79.1797H169.701V87.1797V95.1797H181.604V87.1797ZM169.701 87.1797L161.733 87.8908C162.013 91.0296 163.351 94.0703 165.89 96.2953C168.381 98.4777 171.436 99.3592 174.283 99.3594L174.283 91.3594L174.284 83.3594C174.677 83.3594 175.561 83.4959 176.434 84.261C177.356 85.0686 177.629 86.0196 177.67 86.4686L169.701 87.1797ZM174.283 91.3594V99.3594C178.285 99.3594 183.059 97.5302 185.409 92.6393L178.198 89.1748L170.987 85.7103C171.399 84.8544 172.076 84.1833 172.815 83.7808C173.502 83.4072 174.054 83.3594 174.283 83.3594V91.3594ZM178.198 89.1748V97.1748H181.315V89.1748V81.1748H178.198V89.1748ZM181.315 89.1748L173.763 86.5377C173.75 86.5736 173.769 86.5059 173.859 86.3905C173.949 86.2748 174.065 86.1696 174.188 86.0907C174.432 85.9327 174.511 85.9932 174.259 85.9932V93.9932V101.993C180.176 101.993 186.418 98.8294 188.868 91.8119L181.315 89.1748ZM174.259 93.9932L174.259 85.9932C174.111 85.9932 174.091 85.9681 174.161 85.9959C174.231 86.0242 174.339 86.086 174.446 86.1928C174.553 86.2995 174.613 86.4062 174.64 86.474C174.666 86.5406 174.642 86.52 174.642 86.375H166.642H158.642C158.642 95.1978 165.374 101.993 174.259 101.993L174.259 93.9932ZM166.642 86.375L174.642 86.3753C174.642 86.2208 174.668 86.1842 174.649 86.2332C174.629 86.2831 174.578 86.379 174.478 86.4817C174.376 86.5855 174.265 86.6536 174.177 86.6893C174.09 86.7248 174.085 86.7051 174.202 86.7051L174.202 78.7051L174.202 70.7051C165.215 70.7053 158.642 77.6848 158.642 86.3747L166.642 86.375ZM148.345 93.6787V85.6787H145.31V93.6787V101.679H148.345V93.6787ZM145.31 93.6787H153.31V73.1729H145.31H137.31V93.6787H145.31ZM145.31 73.1729V81.1729H148.345V73.1729V65.1729H145.31V73.1729ZM148.345 73.1729H140.345V93.6787H148.345H156.345V73.1729H148.345ZM108.742 93.6748V85.6748H105.734V93.6748V101.675H108.742V93.6748ZM105.734 93.6748H113.734V79.0293H105.734H97.7344V93.6748H105.734ZM105.734 79.0293V87.0293H108.742V79.0293V71.0293H105.734V79.0293ZM108.742 79.0293H100.742V93.6748H108.742H116.742V79.0293H108.742ZM96.334 81.5889L96.3337 73.5889C89.0331 73.5892 83.833 79.4747 83.833 86.3545H91.833H99.833C99.833 86.8486 99.6367 87.6899 98.9047 88.4548C98.1635 89.2292 97.1835 89.5888 96.3343 89.5889L96.334 81.5889ZM91.833 86.3545L83.833 86.3551C83.8335 93.2357 89.0347 99.1188 96.3337 99.1191L96.334 91.1191L96.3343 83.1191C97.1828 83.1192 98.1627 83.4784 98.9041 84.2529C99.6365 85.018 99.833 85.8596 99.833 86.3539L91.833 86.3545ZM96.334 91.1191V99.1191C99.7409 99.1191 103.003 97.7743 105.361 95.2138C107.677 92.6985 108.701 89.4836 108.701 86.3551L100.701 86.3545L92.7012 86.3539C92.7012 86.0456 92.8193 85.2131 93.5911 84.375C94.4045 83.4918 95.4827 83.1191 96.334 83.1191V91.1191ZM100.701 86.3545H108.701C108.701 83.2243 107.669 80.0207 105.371 77.5153C103.03 74.963 99.7724 73.5889 96.334 73.5889V81.5889V89.5889C95.4512 89.5889 94.3773 89.1996 93.5807 88.3312C92.8271 87.5097 92.7012 86.6889 92.7012 86.3545H100.701ZM118.276 81.5889L118.276 73.5889C114.838 73.589 111.581 74.9625 109.24 77.5151C106.941 80.0206 105.91 83.2239 105.91 86.353L113.91 86.3535L121.91 86.354C121.91 86.6876 121.784 87.5087 121.03 88.3307C120.233 89.1999 119.159 89.5888 118.277 89.5889L118.276 81.5889ZM113.91 86.3535H105.91C105.91 92.9372 110.726 99.1189 118.276 99.1191L118.276 91.1191L118.277 83.1191C119.192 83.1192 120.252 83.5208 121.029 84.3642C121.771 85.1695 121.91 85.9869 121.91 86.3535H113.91ZM118.276 91.1191V99.1191C125.49 99.1191 130.777 93.3196 130.777 86.3535H122.777H114.777C114.777 85.8535 114.979 85.0043 115.717 84.2394C116.455 83.4749 117.426 83.1191 118.276 83.1191V91.1191ZM122.777 86.3535L130.777 86.353C130.777 79.4725 125.576 73.5889 118.276 73.5889V81.5889V89.5889C117.428 89.5889 116.448 89.2297 115.706 88.455C114.974 87.6898 114.777 86.848 114.777 86.354L122.777 86.3535ZM135.323 81.5889V73.5889C131.886 73.5889 128.628 74.9622 126.287 77.5142C123.988 80.0194 122.956 83.2229 122.956 86.353L130.956 86.3535L138.956 86.354C138.956 86.6886 138.83 87.5098 138.076 88.3315C137.279 89.2001 136.205 89.5889 135.323 89.5889V81.5889ZM130.956 86.3535H122.956C122.956 92.9394 127.774 99.1191 135.323 99.1191V91.1191V83.1191C136.238 83.1191 137.298 83.5205 138.075 84.3634C138.817 85.1684 138.956 85.9859 138.956 86.3535H130.956ZM135.323 91.1191L135.324 99.1191C142.537 99.1189 147.824 93.3198 147.824 86.3535H139.824H131.824C131.824 85.8532 132.026 85.0041 132.764 84.2393C133.502 83.4749 134.472 83.1192 135.323 83.1191L135.323 91.1191ZM139.824 86.3535L147.824 86.353C147.824 79.4722 142.622 73.5892 135.324 73.5889L135.323 81.5889L135.323 89.5889C134.475 89.5888 133.495 89.2296 132.753 88.4551C132.021 87.69 131.824 86.8482 131.824 86.354L139.824 86.3535ZM82.5635 75.7227L76.7944 81.265C75.9554 80.3916 75.4004 79.1598 75.4004 77.791H83.4004H91.4004C91.4004 74.8197 90.2093 72.1338 88.3326 70.1803L82.5635 75.7227ZM83.4004 77.791H75.4004V87.1484H83.4004H91.4004V77.791H83.4004ZM76.0508 79.9863L81.7076 74.3295L81.6862 74.308L76.0293 79.9648L70.3724 85.6217L70.3939 85.6432L76.0508 79.9863ZM76.0293 79.9648L70.4439 74.2375L66.3462 78.2336L71.9316 83.9609L77.5171 89.6883L81.6147 85.6922L76.0293 79.9648ZM71.9316 83.9609L66.3586 78.2215C67.4489 77.1628 68.8381 76.6748 70.1521 76.6748L70.1523 84.6748L70.1526 92.6748C72.7585 92.6747 75.4401 91.7051 77.5047 89.7003L71.9316 83.9609ZM70.1523 84.6748V76.6748C71.4399 76.6748 72.8505 77.1497 73.9674 78.2423L68.373 83.9609L62.7787 89.6796C64.8698 91.7253 67.5728 92.6748 70.1523 92.6748V84.6748ZM68.373 83.9609L73.9475 78.2228C75.0661 79.3095 75.6384 80.777 75.6387 82.227L67.6387 82.2285L59.6387 82.2301C59.6392 84.9362 60.6992 87.6595 62.7986 89.699L68.373 83.9609ZM67.6387 82.2285H75.6387C75.6387 83.7031 75.0539 85.1507 73.9681 86.2131L68.373 80.4951L62.778 74.7771C60.7182 76.7926 59.6387 79.4974 59.6387 82.2285H67.6387ZM68.373 80.4951L73.9567 86.2242L74.6491 85.5494L69.0654 79.8203L63.4818 74.0912L62.7894 74.766L68.373 80.4951ZM69.0654 79.8203H61.0654V79.8242H69.0654H77.0654V79.8203H69.0654ZM78.0098 71.1055L72.3139 76.723L76.8676 81.3402L82.5635 75.7227L88.2593 70.1051L83.7056 65.4879L78.0098 71.1055ZM157.826 81.3203L157.826 73.3203C151.662 73.3207 147.078 77.5316 145.737 82.7348L153.484 84.7305L161.231 86.7261C161.089 87.2797 160.736 87.9472 160.062 88.4945C159.355 89.0692 158.524 89.3203 157.827 89.3203L157.826 81.3203ZM153.484 84.7305V92.7305H162.006V84.7305V76.7305H153.484V84.7305ZM162.006 84.7305L169.809 82.9659C168.619 77.7034 164.152 73.3203 157.826 73.3203V81.3203V89.3203C157.149 89.3203 156.221 89.0717 155.407 88.3826C154.637 87.7308 154.313 86.9806 154.203 86.4951L162.006 84.7305ZM174.202 81.3203L174.202 73.3203C168.037 73.3206 163.454 77.5318 162.113 82.7348L169.86 84.7305L177.607 86.7261C177.465 87.2795 177.112 87.9471 176.438 88.4944C175.73 89.0692 174.899 89.3203 174.202 89.3203L174.202 81.3203ZM169.86 84.7305V92.7305H178.382V84.7305V76.7305H169.86V84.7305ZM178.382 84.7305L186.185 82.9659C184.995 77.7034 180.528 73.3203 174.202 73.3203V81.3203V89.3203C173.525 89.3203 172.597 89.0717 171.783 88.3826C171.013 87.7308 170.689 86.9806 170.579 86.4951L178.382 84.7305ZM107.228 72.4248V80.4248C104.562 80.4248 101.197 78.247 101.197 74.2637H109.197H117.197C117.197 68.1483 112.081 64.4248 107.228 64.4248V72.4248ZM109.197 74.2637L101.197 74.2629C101.197 72.715 101.819 71.0824 103.092 69.8563C104.35 68.6448 105.897 68.1553 107.228 68.1553V76.1553V84.1553C112.504 84.1553 117.197 80.0532 117.197 74.2645L109.197 74.2637ZM107.228 76.1553L107.228 68.1553C108.559 68.1554 110.142 68.6484 111.425 69.9048C112.713 71.1671 113.283 72.7978 113.283 74.2629L105.283 74.2637L97.2832 74.2644C97.2837 79.931 101.822 84.1548 107.227 84.1553L107.228 76.1553ZM105.283 74.2637H113.283C113.283 75.9017 112.598 77.5863 111.276 78.8083C110.008 79.9804 108.496 80.4247 107.228 80.4248L107.228 72.4248L107.227 64.4248C102.318 64.4252 97.2832 68.1709 97.2832 74.2637H105.283ZM125.792 73.1768V65.1768H125.788V73.1768V81.1768H125.792V73.1768ZM125.788 73.1768H133.788V73.1729H125.788H117.788V73.1768H125.788ZM125.788 73.1729L120.131 78.8297L120.135 78.8336L125.792 73.1768L131.449 67.5199L131.445 67.516L125.788 73.1729ZM142.835 73.1768V65.1768H142.831V73.1768V81.1768H142.835V73.1768ZM142.831 73.1768H150.831V73.1729H142.831H134.831V73.1768H142.831ZM142.831 73.1729L137.174 78.8297L137.178 78.8336L142.835 73.1768L148.492 67.5199L148.488 67.516L142.831 73.1729ZM76.6152 69.6924L71.0321 63.9628L61.367 73.3807L66.9502 79.1104L72.5333 84.84L82.1984 75.422L76.6152 69.6924ZM83.4004 87.1484L88.9837 81.419L81.6341 74.2569L76.0508 79.9863L70.4675 85.7158L77.8171 92.8779L83.4004 87.1484ZM69.0654 79.8242L74.6496 85.5529L83.5939 76.8341L78.0098 71.1055L72.4256 65.3768L63.4813 74.0956L69.0654 79.8242Z" fill="#E6E2DE" mask="url(#path-4-outside-1_1195_201)"/>
</svg>
