<svg width="242" height="182" viewBox="0 0 242 182" fill="none" xmlns="http://www.w3.org/2000/svg">
<rect y="22" width="242" height="160" rx="12" fill="#E6E2DE"/>
<path d="M102.717 93.624C102.717 95.752 101.149 97 98.6209 97H94.1249V85.512H98.4449C100.861 85.512 102.349 86.6 102.349 88.568C102.349 89.624 101.757 90.472 100.733 91C102.013 91.448 102.717 92.36 102.717 93.624ZM98.2529 87.432H96.3329V90.104H98.2529C99.4369 90.104 100.045 89.592 100.045 88.76C100.045 87.944 99.4369 87.432 98.2529 87.432ZM98.4289 92.04H96.3329V95.08H98.4289C99.7409 95.08 100.429 94.504 100.429 93.528C100.429 92.616 99.7409 92.04 98.4289 92.04ZM106.708 86.472C106.708 87.224 106.1 87.784 105.22 87.784C104.356 87.784 103.748 87.224 103.748 86.472C103.748 85.688 104.356 85.128 105.22 85.128C106.1 85.128 106.708 85.688 106.708 86.472ZM106.356 97H104.132V88.456H106.356V97ZM107.615 92.728C107.615 90.2 109.103 88.296 111.407 88.296C112.431 88.296 113.295 88.744 113.935 89.56V85.512H116.143V97H114.111V95.768C113.439 96.664 112.511 97.16 111.407 97.16C109.103 97.16 107.615 95.224 107.615 92.728ZM109.903 92.728C109.903 94.328 110.815 95.176 111.903 95.176C113.007 95.176 113.919 94.312 113.919 92.696C113.919 91.08 112.991 90.264 111.903 90.264C110.815 90.264 109.903 91.096 109.903 92.728ZM117.409 92.728C117.409 90.2 118.897 88.296 121.201 88.296C122.225 88.296 123.089 88.744 123.729 89.56V85.512H125.937V97H123.905V95.768C123.233 96.664 122.305 97.16 121.201 97.16C118.897 97.16 117.409 95.224 117.409 92.728ZM119.697 92.728C119.697 94.328 120.609 95.176 121.697 95.176C122.801 95.176 123.713 94.312 123.713 92.696C123.713 91.08 122.785 90.264 121.697 90.264C120.609 90.264 119.697 91.096 119.697 92.728ZM130.002 97H127.762V85.512H130.002V97ZM135.548 97.144C132.988 97.144 131.276 95.368 131.276 92.696C131.276 90.152 133.052 88.296 135.516 88.296C138.22 88.296 140.012 90.488 139.612 93.272H133.548C133.692 94.664 134.364 95.432 135.5 95.432C136.476 95.432 137.132 94.952 137.388 94.104H139.596C139.116 96.04 137.628 97.144 135.548 97.144ZM135.468 89.928C134.428 89.928 133.772 90.6 133.58 91.864H137.26C137.196 90.68 136.524 89.928 135.468 89.928ZM144.497 97.144C141.937 97.144 140.225 95.368 140.225 92.696C140.225 90.152 142.001 88.296 144.465 88.296C147.169 88.296 148.961 90.488 148.561 93.272H142.497C142.641 94.664 143.313 95.432 144.449 95.432C145.425 95.432 146.081 94.952 146.337 94.104H148.545C148.065 96.04 146.577 97.144 144.497 97.144ZM144.417 89.928C143.377 89.928 142.721 90.6 142.529 91.864H146.209C146.145 90.68 145.473 89.928 144.417 89.928Z" fill="#1A1A1A"/>
<path d="M49.2682 117H43.1782V106.948H44.7182V115.614H49.2682V117ZM53.2907 117.14C51.1907 117.14 49.6507 115.488 49.6507 113.29C49.6507 111.092 51.1907 109.44 53.2907 109.44C55.3907 109.44 56.9307 111.092 56.9307 113.29C56.9307 115.488 55.3907 117.14 53.2907 117.14ZM53.2907 115.894C54.5087 115.894 55.4747 114.914 55.4747 113.29C55.4747 111.666 54.5087 110.7 53.2907 110.7C52.0727 110.7 51.1207 111.666 51.1207 113.29C51.1207 114.914 52.0727 115.894 53.2907 115.894ZM60.9234 119.856C58.9774 119.856 57.7174 118.82 57.6334 117.14H59.0054C59.0894 118.176 59.7614 118.736 60.9094 118.736C62.1834 118.736 62.8554 118.05 62.8554 116.776V115.432C62.4354 116.328 61.5954 116.846 60.5874 116.846C58.7394 116.846 57.4234 115.32 57.4234 113.136C57.4234 110.924 58.6834 109.44 60.5454 109.44C61.6094 109.44 62.4494 109.958 62.9534 110.896V109.58H64.2694V116.748C64.2694 118.694 63.0234 119.856 60.9234 119.856ZM58.8514 113.136C58.8514 114.676 59.6074 115.614 60.8394 115.614C62.0434 115.614 62.8554 114.648 62.8554 113.178C62.8554 111.638 62.0574 110.658 60.8394 110.658C59.6214 110.658 58.8514 111.61 58.8514 113.136ZM69.0549 117.14C66.9549 117.14 65.4149 115.488 65.4149 113.29C65.4149 111.092 66.9549 109.44 69.0549 109.44C71.1549 109.44 72.6949 111.092 72.6949 113.29C72.6949 115.488 71.1549 117.14 69.0549 117.14ZM69.0549 115.894C70.2729 115.894 71.2389 114.914 71.2389 113.29C71.2389 111.666 70.2729 110.7 69.0549 110.7C67.8369 110.7 66.8849 111.666 66.8849 113.29C66.8849 114.914 67.8369 115.894 69.0549 115.894ZM79.7921 117H76.6141V106.948H79.7921C82.9981 106.948 84.8461 108.992 84.8461 111.932C84.8461 114.83 82.9281 117 79.7921 117ZM78.1541 108.278V115.67H79.7221C82.0321 115.67 83.2781 114.242 83.2781 111.932C83.2781 109.664 82.0461 108.278 79.7221 108.278H78.1541ZM89.1179 117.14C86.9759 117.14 85.5339 115.586 85.5339 113.248C85.5339 111.05 87.0319 109.44 89.0759 109.44C91.2879 109.44 92.7579 111.232 92.5059 113.64H86.9759C87.0879 115.152 87.8439 116.034 89.0899 116.034C90.1399 116.034 90.8679 115.46 91.1059 114.494H92.5059C92.1419 116.146 90.8679 117.14 89.1179 117.14ZM89.0479 110.504C87.9139 110.504 87.1439 111.316 86.9899 112.702H91.0079C90.9379 111.33 90.1959 110.504 89.0479 110.504ZM99.6093 114.788C99.6093 116.244 98.4753 117.14 96.5013 117.14C94.5413 117.14 93.3793 116.174 93.2393 114.578H94.5973C94.6533 115.502 95.3953 116.076 96.5293 116.076C97.5233 116.076 98.1813 115.726 98.1813 115.026C98.1813 114.41 97.8033 114.144 96.8793 113.962L95.6753 113.738C94.3033 113.472 93.5333 112.772 93.5333 111.652C93.5333 110.35 94.6673 109.44 96.3893 109.44C98.1673 109.44 99.3713 110.392 99.4973 111.918H98.1393C98.0553 111.022 97.3973 110.504 96.4033 110.504C95.5073 110.504 94.9053 110.882 94.9053 111.526C94.9053 112.128 95.2833 112.408 96.1793 112.576L97.4393 112.814C98.9093 113.08 99.6093 113.724 99.6093 114.788ZM102.595 107.858C102.595 108.39 102.175 108.796 101.573 108.796C100.971 108.796 100.537 108.39 100.537 107.858C100.537 107.312 100.971 106.92 101.573 106.92C102.175 106.92 102.595 107.312 102.595 107.858ZM102.287 117H100.873V109.58H102.287V117ZM106.938 119.856C104.992 119.856 103.732 118.82 103.648 117.14H105.02C105.104 118.176 105.776 118.736 106.924 118.736C108.198 118.736 108.87 118.05 108.87 116.776V115.432C108.45 116.328 107.61 116.846 106.602 116.846C104.754 116.846 103.438 115.32 103.438 113.136C103.438 110.924 104.698 109.44 106.56 109.44C107.624 109.44 108.464 109.958 108.968 110.896V109.58H110.284V116.748C110.284 118.694 109.038 119.856 106.938 119.856ZM104.866 113.136C104.866 114.676 105.622 115.614 106.854 115.614C108.058 115.614 108.87 114.648 108.87 113.178C108.87 111.638 108.072 110.658 106.854 110.658C105.636 110.658 104.866 111.61 104.866 113.136ZM113.376 112.814V117H111.962V109.58H113.278V110.812C113.782 109.986 114.622 109.44 115.644 109.44C117.17 109.44 118.178 110.42 118.178 112.198V117H116.764V112.674C116.764 111.4 116.204 110.686 115.154 110.686C114.188 110.686 113.376 111.498 113.376 112.814ZM121.693 116.398C121.693 117.728 120.643 118.764 119.103 118.792V117.994C120.013 117.966 120.629 117.476 120.713 116.79C120.587 116.832 120.503 116.846 120.405 116.846C119.873 116.846 119.481 116.412 119.481 115.894C119.481 115.292 119.929 114.9 120.503 114.9C121.273 114.9 121.693 115.46 121.693 116.398ZM133.002 114.116C133.002 115.95 131.658 117 129.572 117H125.89V106.948H129.376C131.406 106.948 132.624 107.886 132.624 109.58C132.624 110.532 132.05 111.344 131.084 111.764C132.33 112.114 133.002 112.968 133.002 114.116ZM129.278 108.18H127.304V111.204H129.278C130.496 111.204 131.154 110.63 131.154 109.692C131.154 108.754 130.496 108.18 129.278 108.18ZM129.474 112.436H127.304V115.768H129.474C130.79 115.768 131.532 115.138 131.532 114.074C131.532 113.052 130.79 112.436 129.474 112.436ZM135.798 113.206V117H134.384V109.58H135.7V111.148C136.218 110.126 137.338 109.482 138.556 109.482V110.952C136.96 110.868 135.798 111.568 135.798 113.206ZM143.89 117V115.852C143.428 116.678 142.602 117.14 141.51 117.14C139.97 117.14 138.962 116.258 138.962 114.9C138.962 113.444 140.124 112.688 142.336 112.688C142.77 112.688 143.12 112.702 143.722 112.772V112.226C143.722 111.162 143.148 110.56 142.168 110.56C141.132 110.56 140.502 111.176 140.46 112.212H139.172C139.242 110.546 140.432 109.44 142.168 109.44C144.002 109.44 145.066 110.476 145.066 112.24V117H143.89ZM140.306 114.858C140.306 115.628 140.88 116.132 141.79 116.132C142.98 116.132 143.722 115.39 143.722 114.256V113.654C143.176 113.584 142.784 113.57 142.42 113.57C141.006 113.57 140.306 113.99 140.306 114.858ZM148.09 112.814V117H146.676V109.58H147.992V110.812C148.496 109.986 149.336 109.44 150.358 109.44C151.884 109.44 152.892 110.42 152.892 112.198V117H151.478V112.674C151.478 111.4 150.918 110.686 149.868 110.686C148.902 110.686 148.09 111.498 148.09 112.814ZM153.958 113.29C153.958 111.036 155.246 109.44 157.248 109.44C158.242 109.44 159.11 109.944 159.628 110.854V106.948H161.042V117H159.726V115.67C159.194 116.608 158.298 117.14 157.248 117.14C155.246 117.14 153.958 115.516 153.958 113.29ZM155.428 113.29C155.428 114.942 156.296 115.88 157.528 115.88C158.732 115.88 159.628 114.9 159.628 113.262C159.628 111.596 158.704 110.686 157.528 110.686C156.296 110.686 155.428 111.61 155.428 113.29ZM168.663 117H165.485V106.948H168.663C171.869 106.948 173.717 108.992 173.717 111.932C173.717 114.83 171.799 117 168.663 117ZM167.025 108.278V115.67H168.593C170.903 115.67 172.149 114.242 172.149 111.932C172.149 109.664 170.917 108.278 168.593 108.278H167.025ZM177.989 117.14C175.847 117.14 174.405 115.586 174.405 113.248C174.405 111.05 175.903 109.44 177.947 109.44C180.159 109.44 181.629 111.232 181.377 113.64H175.847C175.959 115.152 176.715 116.034 177.961 116.034C179.011 116.034 179.739 115.46 179.977 114.494H181.377C181.013 116.146 179.739 117.14 177.989 117.14ZM177.919 110.504C176.785 110.504 176.015 111.316 175.861 112.702H179.879C179.809 111.33 179.067 110.504 177.919 110.504ZM185.39 117.154C183.36 117.154 181.932 115.558 181.932 113.29C181.932 111.05 183.388 109.44 185.39 109.44C187.224 109.44 188.554 110.658 188.82 112.59H187.336C187.182 111.4 186.44 110.686 185.404 110.686C184.186 110.686 183.388 111.722 183.388 113.29C183.388 114.872 184.186 115.894 185.404 115.894C186.454 115.894 187.182 115.194 187.35 113.99H188.82C188.568 115.95 187.252 117.154 185.39 117.154ZM191.377 117H189.963V106.948H191.377V112.898L194.555 109.58H196.221L192.791 113.178L196.543 117H194.723L191.377 113.486V117ZM199.175 116.398C199.175 117.728 198.125 118.764 196.585 118.792V117.994C197.495 117.966 198.111 117.476 198.195 116.79C198.069 116.832 197.985 116.846 197.887 116.846C197.355 116.846 196.963 116.412 196.963 115.894C196.963 115.292 197.411 114.9 197.985 114.9C198.755 114.9 199.175 115.46 199.175 116.398ZM75.6217 131.116C75.6217 132.95 74.2777 134 72.1917 134H68.5097V123.948H71.9957C74.0257 123.948 75.2437 124.886 75.2437 126.58C75.2437 127.532 74.6697 128.344 73.7037 128.764C74.9497 129.114 75.6217 129.968 75.6217 131.116ZM71.8977 125.18H69.9237V128.204H71.8977C73.1157 128.204 73.7737 127.63 73.7737 126.692C73.7737 125.754 73.1157 125.18 71.8977 125.18ZM72.0937 129.436H69.9237V132.768H72.0937C73.4097 132.768 74.1517 132.138 74.1517 131.074C74.1517 130.052 73.4097 129.436 72.0937 129.436ZM78.4185 130.206V134H77.0045V126.58H78.3205V128.148C78.8385 127.126 79.9585 126.482 81.1765 126.482V127.952C79.5805 127.868 78.4185 128.568 78.4185 130.206ZM86.5095 134V132.852C86.0475 133.678 85.2215 134.14 84.1295 134.14C82.5895 134.14 81.5815 133.258 81.5815 131.9C81.5815 130.444 82.7435 129.688 84.9555 129.688C85.3895 129.688 85.7395 129.702 86.3415 129.772V129.226C86.3415 128.162 85.7675 127.56 84.7875 127.56C83.7515 127.56 83.1215 128.176 83.0795 129.212H81.7915C81.8615 127.546 83.0515 126.44 84.7875 126.44C86.6215 126.44 87.6855 127.476 87.6855 129.24V134H86.5095ZM82.9255 131.858C82.9255 132.628 83.4995 133.132 84.4095 133.132C85.5995 133.132 86.3415 132.39 86.3415 131.256V130.654C85.7955 130.584 85.4035 130.57 85.0395 130.57C83.6255 130.57 82.9255 130.99 82.9255 131.858ZM90.71 129.814V134H89.296V126.58H90.612V127.812C91.116 126.986 91.956 126.44 92.978 126.44C94.504 126.44 95.512 127.42 95.512 129.198V134H94.098V129.674C94.098 128.4 93.538 127.686 92.488 127.686C91.522 127.686 90.71 128.498 90.71 129.814ZM96.5778 130.29C96.5778 128.036 97.8658 126.44 99.8678 126.44C100.862 126.44 101.73 126.944 102.248 127.854V123.948H103.662V134H102.346V132.67C101.814 133.608 100.918 134.14 99.8678 134.14C97.8658 134.14 96.5778 132.516 96.5778 130.29ZM98.0478 130.29C98.0478 131.942 98.9158 132.88 100.148 132.88C101.352 132.88 102.248 131.9 102.248 130.262C102.248 128.596 101.324 127.686 100.148 127.686C98.9158 127.686 98.0478 128.61 98.0478 130.29ZM112.487 134.21C109.687 134.21 107.517 131.928 107.517 128.96C107.517 126.006 109.687 123.738 112.487 123.738C115.007 123.738 117.023 125.418 117.401 127.896H115.763C115.483 126.272 114.167 125.124 112.501 125.124C110.513 125.124 109.113 126.734 109.113 128.96C109.113 131.214 110.513 132.824 112.501 132.824C114.167 132.824 115.483 131.662 115.763 130.038H117.401C117.023 132.53 115.007 134.21 112.487 134.21ZM121.718 134.14C119.618 134.14 118.078 132.488 118.078 130.29C118.078 128.092 119.618 126.44 121.718 126.44C123.818 126.44 125.358 128.092 125.358 130.29C125.358 132.488 123.818 134.14 121.718 134.14ZM121.718 132.894C122.936 132.894 123.902 131.914 123.902 130.29C123.902 128.666 122.936 127.7 121.718 127.7C120.5 127.7 119.548 128.666 119.548 130.29C119.548 131.914 120.5 132.894 121.718 132.894ZM127.947 134H126.519V123.948H127.947V134ZM131.058 134H129.63V123.948H131.058V134ZM137.234 134V132.852C136.772 133.678 135.946 134.14 134.854 134.14C133.314 134.14 132.306 133.258 132.306 131.9C132.306 130.444 133.468 129.688 135.68 129.688C136.114 129.688 136.464 129.702 137.066 129.772V129.226C137.066 128.162 136.492 127.56 135.512 127.56C134.476 127.56 133.846 128.176 133.804 129.212H132.516C132.586 127.546 133.776 126.44 135.512 126.44C137.346 126.44 138.41 127.476 138.41 129.24V134H137.234ZM133.65 131.858C133.65 132.628 134.224 133.132 135.134 133.132C136.324 133.132 137.066 132.39 137.066 131.256V130.654C136.52 130.584 136.128 130.57 135.764 130.57C134.35 130.57 133.65 130.99 133.65 131.858ZM144.139 132.628V133.874C143.705 134.07 143.327 134.14 142.879 134.14C141.507 134.14 140.555 133.398 140.555 131.76V127.784H138.917V126.58H140.555V124.382H141.969V126.58H144.209V127.784H141.969V131.438C141.969 132.46 142.459 132.824 143.215 132.824C143.551 132.824 143.845 132.768 144.139 132.628ZM148.125 134.14C145.983 134.14 144.541 132.586 144.541 130.248C144.541 128.05 146.039 126.44 148.083 126.44C150.295 126.44 151.765 128.232 151.513 130.64H145.983C146.095 132.152 146.851 133.034 148.097 133.034C149.147 133.034 149.875 132.46 150.113 131.494H151.513C151.149 133.146 149.875 134.14 148.125 134.14ZM148.055 127.504C146.921 127.504 146.151 128.316 145.997 129.702H150.015C149.945 128.33 149.203 127.504 148.055 127.504ZM154.15 130.206V134H152.736V126.58H154.052V128.148C154.57 127.126 155.69 126.482 156.908 126.482V127.952C155.312 127.868 154.15 128.568 154.15 130.206ZM162.241 134V132.852C161.779 133.678 160.953 134.14 159.861 134.14C158.321 134.14 157.313 133.258 157.313 131.9C157.313 130.444 158.475 129.688 160.687 129.688C161.121 129.688 161.471 129.702 162.073 129.772V129.226C162.073 128.162 161.499 127.56 160.519 127.56C159.483 127.56 158.853 128.176 158.811 129.212H157.523C157.593 127.546 158.783 126.44 160.519 126.44C162.353 126.44 163.417 127.476 163.417 129.24V134H162.241ZM158.657 131.858C158.657 132.628 159.231 133.132 160.141 133.132C161.331 133.132 162.073 132.39 162.073 131.256V130.654C161.527 130.584 161.135 130.57 160.771 130.57C159.357 130.57 158.657 130.99 158.657 131.858ZM166.456 134H165.028V123.948H166.456V134ZM174.018 131.788C174.018 133.244 172.884 134.14 170.91 134.14C168.95 134.14 167.788 133.174 167.648 131.578H169.006C169.062 132.502 169.804 133.076 170.938 133.076C171.932 133.076 172.59 132.726 172.59 132.026C172.59 131.41 172.212 131.144 171.288 130.962L170.084 130.738C168.712 130.472 167.942 129.772 167.942 128.652C167.942 127.35 169.076 126.44 170.798 126.44C172.576 126.44 173.78 127.392 173.906 128.918H172.548C172.464 128.022 171.806 127.504 170.812 127.504C169.916 127.504 169.314 127.882 169.314 128.526C169.314 129.128 169.692 129.408 170.588 129.576L171.848 129.814C173.318 130.08 174.018 130.724 174.018 131.788Z" fill="#1A1A1A"/>
<mask id="path-4-outside-1_1_1042" maskUnits="userSpaceOnUse" x="52" y="0" width="138" height="44" fill="black">
<rect fill="white" x="52" width="138" height="44"/>
<path fill-rule="evenodd" clip-rule="evenodd" d="M125.788 35.6787H122.781V33.2285C121.691 34.8805 119.932 35.9999 117.642 36C113.727 36 110.878 32.8299 110.878 28.3574C110.878 23.885 113.779 20.715 117.616 20.7148C119.932 20.7148 121.69 21.8588 122.784 23.5391V15.1768H125.788V35.6787ZM118.276 23.5889C115.721 23.589 113.91 25.558 113.91 28.3535C113.91 31.1492 115.749 33.1191 118.276 33.1191C120.804 33.1191 122.777 31.174 122.777 28.3535C122.777 25.558 120.832 23.5889 118.276 23.5889Z"/>
<path fill-rule="evenodd" clip-rule="evenodd" d="M142.831 35.6787H139.824V33.2285C138.734 34.8805 136.975 35.9999 134.685 36C130.77 36 127.921 32.8299 127.921 28.3574C127.921 23.885 130.822 20.715 134.659 20.7148C136.975 20.7148 138.733 21.8588 139.827 23.5391V15.1768H142.831V35.6787ZM135.323 23.5889C132.768 23.5889 130.956 25.558 130.956 28.3535C130.956 31.1493 132.796 33.1191 135.323 33.1191C137.851 33.119 139.824 31.1739 139.824 28.3535C139.824 25.558 137.879 23.589 135.323 23.5889Z"/>
<path fill-rule="evenodd" clip-rule="evenodd" d="M91.8652 23.5322C92.9313 21.8555 94.6892 20.708 97.0049 20.708C100.838 20.708 103.743 23.8781 103.743 28.3506L103.74 28.3545C103.74 32.8268 100.891 35.9961 96.9766 35.9961C94.6857 35.9961 92.9278 34.8776 91.8652 33.2256V35.6748H88.8574V15.1699H91.8652V23.5322ZM96.334 23.5889C93.7784 23.589 91.833 25.5588 91.833 28.3545C91.8332 31.1499 93.7785 33.119 96.334 33.1191C98.8896 33.1191 100.701 31.1747 100.701 28.3545C100.701 25.5587 98.8897 23.5889 96.334 23.5889Z"/>
<path d="M71.6494 8C72.5106 8.00012 73.2908 8.34297 73.8555 8.89355L76.6152 11.6924L66.9502 21.1104C66.1263 21.9145 65.6875 22.9577 65.6357 24.0156L65.6338 24.2314C65.6339 25.3608 66.0754 26.49 66.9541 27.3477C67.8331 28.2054 68.9945 28.6367 70.1523 28.6367C71.3102 28.6367 72.4716 28.2054 73.3506 27.3477L76.0293 24.7354L83.3965 31.916V33.2285C83.3965 34.0757 83.0015 34.8354 82.3838 35.3438L76.7217 29.8262C76.3299 29.4449 75.6946 29.445 75.3027 29.8262C74.9109 30.2074 74.9109 30.8287 75.3027 31.21L80.2129 35.9932H75.9277L71.3633 31.5449C70.9716 31.1638 70.3362 31.164 69.9443 31.5449C69.5525 31.9262 69.5525 32.5475 69.9443 32.9287L73.0859 35.9932H68.7998L66.0049 33.2676C65.6132 32.8865 64.9778 32.8867 64.5859 33.2676C64.1941 33.6488 64.1941 34.2701 64.5859 34.6514L65.9619 35.9932H62.8379C61.2777 35.993 60 34.7499 60 33.2285V19.2998C60 18.4914 60.325 17.7565 60.8545 17.2129L69.4883 8.85059C70.046 8.32461 70.7881 8 71.6494 8Z"/>
<path fill-rule="evenodd" clip-rule="evenodd" d="M157.823 20.7051C162.536 20.7052 165.518 24.3546 165.226 29.1729V29.1797H153.322C153.562 31.8696 155.451 33.3594 157.904 33.3594C159.662 33.3593 161.127 32.615 161.819 31.1748H164.936C163.792 34.4503 160.997 35.993 157.88 35.9932C153.432 35.9932 150.262 32.7981 150.262 28.375C150.262 23.9521 153.404 20.7051 157.823 20.7051ZM157.826 23.3203C155.617 23.3205 153.993 24.7573 153.484 26.7305H162.006C161.554 24.7325 160.036 23.3203 157.826 23.3203Z"/>
<path fill-rule="evenodd" clip-rule="evenodd" d="M174.202 20.7051C178.915 20.7051 181.897 24.3545 181.604 29.1729V29.1797H169.701C169.941 31.8694 171.83 33.3592 174.283 33.3594C176.041 33.3594 177.506 32.6149 178.198 31.1748H181.315C180.172 34.4506 177.372 35.9932 174.259 35.9932C169.811 35.9931 166.642 32.7981 166.642 28.375C166.642 23.9521 169.783 20.7052 174.202 20.7051ZM174.202 23.3203C171.992 23.3204 170.369 24.7573 169.86 26.7305H178.382C177.93 24.7325 176.412 23.3203 174.202 23.3203Z"/>
<path d="M148.345 35.6787H145.31V15.1729H148.345V35.6787Z"/>
<path d="M108.742 35.6748H105.734V21.0293H108.742V35.6748Z"/>
<path d="M82.5635 17.7227C83.0823 18.2627 83.4004 18.9898 83.4004 19.791V29.1484L76.0508 21.9863L76.0293 21.9648L71.9316 25.9609C71.4445 26.4339 70.7983 26.6748 70.1523 26.6748C69.5064 26.6748 68.8602 26.4375 68.373 25.9609C67.8827 25.4845 67.6388 24.8566 67.6387 24.2285C67.6387 23.6003 67.886 22.9716 68.373 22.4951L69.0654 21.8203V21.8242L78.0098 13.1055L82.5635 17.7227Z"/>
<path d="M107.228 14.4248C108.322 14.4248 109.197 15.1976 109.197 16.2637C109.197 17.3543 108.371 18.1553 107.228 18.1553C106.084 18.1552 105.283 17.3578 105.283 16.2637C105.283 15.1694 106.133 14.4249 107.228 14.4248Z"/>
<path d="M125.792 15.1768H125.788V15.1729L125.792 15.1768Z"/>
<path d="M142.835 15.1768H142.831V15.1729L142.835 15.1768Z"/>
</mask>
<path fill-rule="evenodd" clip-rule="evenodd" d="M125.788 35.6787H122.781V33.2285C121.691 34.8805 119.932 35.9999 117.642 36C113.727 36 110.878 32.8299 110.878 28.3574C110.878 23.885 113.779 20.715 117.616 20.7148C119.932 20.7148 121.69 21.8588 122.784 23.5391V15.1768H125.788V35.6787ZM118.276 23.5889C115.721 23.589 113.91 25.558 113.91 28.3535C113.91 31.1492 115.749 33.1191 118.276 33.1191C120.804 33.1191 122.777 31.174 122.777 28.3535C122.777 25.558 120.832 23.5889 118.276 23.5889Z" fill="black"/>
<path fill-rule="evenodd" clip-rule="evenodd" d="M142.831 35.6787H139.824V33.2285C138.734 34.8805 136.975 35.9999 134.685 36C130.77 36 127.921 32.8299 127.921 28.3574C127.921 23.885 130.822 20.715 134.659 20.7148C136.975 20.7148 138.733 21.8588 139.827 23.5391V15.1768H142.831V35.6787ZM135.323 23.5889C132.768 23.5889 130.956 25.558 130.956 28.3535C130.956 31.1493 132.796 33.1191 135.323 33.1191C137.851 33.119 139.824 31.1739 139.824 28.3535C139.824 25.558 137.879 23.589 135.323 23.5889Z" fill="black"/>
<path fill-rule="evenodd" clip-rule="evenodd" d="M91.8652 23.5322C92.9313 21.8555 94.6892 20.708 97.0049 20.708C100.838 20.708 103.743 23.8781 103.743 28.3506L103.74 28.3545C103.74 32.8268 100.891 35.9961 96.9766 35.9961C94.6857 35.9961 92.9278 34.8776 91.8652 33.2256V35.6748H88.8574V15.1699H91.8652V23.5322ZM96.334 23.5889C93.7784 23.589 91.833 25.5588 91.833 28.3545C91.8332 31.1499 93.7785 33.119 96.334 33.1191C98.8896 33.1191 100.701 31.1747 100.701 28.3545C100.701 25.5587 98.8897 23.5889 96.334 23.5889Z" fill="black"/>
<path d="M71.6494 8C72.5106 8.00012 73.2908 8.34297 73.8555 8.89355L76.6152 11.6924L66.9502 21.1104C66.1263 21.9145 65.6875 22.9577 65.6357 24.0156L65.6338 24.2314C65.6339 25.3608 66.0754 26.49 66.9541 27.3477C67.8331 28.2054 68.9945 28.6367 70.1523 28.6367C71.3102 28.6367 72.4716 28.2054 73.3506 27.3477L76.0293 24.7354L83.3965 31.916V33.2285C83.3965 34.0757 83.0015 34.8354 82.3838 35.3438L76.7217 29.8262C76.3299 29.4449 75.6946 29.445 75.3027 29.8262C74.9109 30.2074 74.9109 30.8287 75.3027 31.21L80.2129 35.9932H75.9277L71.3633 31.5449C70.9716 31.1638 70.3362 31.164 69.9443 31.5449C69.5525 31.9262 69.5525 32.5475 69.9443 32.9287L73.0859 35.9932H68.7998L66.0049 33.2676C65.6132 32.8865 64.9778 32.8867 64.5859 33.2676C64.1941 33.6488 64.1941 34.2701 64.5859 34.6514L65.9619 35.9932H62.8379C61.2777 35.993 60 34.7499 60 33.2285V19.2998C60 18.4914 60.325 17.7565 60.8545 17.2129L69.4883 8.85059C70.046 8.32461 70.7881 8 71.6494 8Z" fill="black"/>
<path fill-rule="evenodd" clip-rule="evenodd" d="M157.823 20.7051C162.536 20.7052 165.518 24.3546 165.226 29.1729V29.1797H153.322C153.562 31.8696 155.451 33.3594 157.904 33.3594C159.662 33.3593 161.127 32.615 161.819 31.1748H164.936C163.792 34.4503 160.997 35.993 157.88 35.9932C153.432 35.9932 150.262 32.7981 150.262 28.375C150.262 23.9521 153.404 20.7051 157.823 20.7051ZM157.826 23.3203C155.617 23.3205 153.993 24.7573 153.484 26.7305H162.006C161.554 24.7325 160.036 23.3203 157.826 23.3203Z" fill="black"/>
<path fill-rule="evenodd" clip-rule="evenodd" d="M174.202 20.7051C178.915 20.7051 181.897 24.3545 181.604 29.1729V29.1797H169.701C169.941 31.8694 171.83 33.3592 174.283 33.3594C176.041 33.3594 177.506 32.6149 178.198 31.1748H181.315C180.172 34.4506 177.372 35.9932 174.259 35.9932C169.811 35.9931 166.642 32.7981 166.642 28.375C166.642 23.9521 169.783 20.7052 174.202 20.7051ZM174.202 23.3203C171.992 23.3204 170.369 24.7573 169.86 26.7305H178.382C177.93 24.7325 176.412 23.3203 174.202 23.3203Z" fill="black"/>
<path d="M148.345 35.6787H145.31V15.1729H148.345V35.6787Z" fill="black"/>
<path d="M108.742 35.6748H105.734V21.0293H108.742V35.6748Z" fill="black"/>
<path d="M82.5635 17.7227C83.0823 18.2627 83.4004 18.9898 83.4004 19.791V29.1484L76.0508 21.9863L76.0293 21.9648L71.9316 25.9609C71.4445 26.4339 70.7983 26.6748 70.1523 26.6748C69.5064 26.6748 68.8602 26.4375 68.373 25.9609C67.8827 25.4845 67.6388 24.8566 67.6387 24.2285C67.6387 23.6003 67.886 22.9716 68.373 22.4951L69.0654 21.8203V21.8242L78.0098 13.1055L82.5635 17.7227Z" fill="black"/>
<path d="M107.228 14.4248C108.322 14.4248 109.197 15.1976 109.197 16.2637C109.197 17.3543 108.371 18.1553 107.228 18.1553C106.084 18.1552 105.283 17.3578 105.283 16.2637C105.283 15.1694 106.133 14.4249 107.228 14.4248Z" fill="black"/>
<path d="M125.792 15.1768H125.788V15.1729L125.792 15.1768Z" fill="black"/>
<path d="M142.835 15.1768H142.831V15.1729L142.835 15.1768Z" fill="black"/>
<path d="M125.788 35.6787V43.6787C130.206 43.6787 133.788 40.097 133.788 35.6787H125.788ZM122.781 35.6787H114.781C114.781 40.097 118.363 43.6787 122.781 43.6787V35.6787ZM122.781 33.2285H130.781C130.781 29.6966 128.465 26.5826 125.082 25.5666C121.7 24.5507 118.051 25.8732 116.105 28.8206L122.781 33.2285ZM117.642 36V44H117.642L117.642 36ZM110.878 28.3574L102.878 28.3574V28.3574H110.878ZM117.616 20.7148V12.7148H117.616L117.616 20.7148ZM122.784 23.5391L116.08 27.9049C118.013 30.8723 121.667 32.2161 125.061 31.2081C128.456 30.2002 130.784 27.0803 130.784 23.5391H122.784ZM122.784 15.1768V7.17676C118.366 7.17676 114.784 10.7585 114.784 15.1768H122.784ZM142.831 35.6787V43.6787C147.249 43.6787 150.831 40.097 150.831 35.6787H142.831ZM139.824 35.6787H131.824C131.824 40.097 135.406 43.6787 139.824 43.6787V35.6787ZM139.824 33.2285H147.824C147.824 29.6966 145.508 26.5826 142.125 25.5666C138.743 24.5507 135.094 25.8732 133.148 28.8206L139.824 33.2285ZM134.685 36V44H134.685L134.685 36ZM127.921 28.3574L119.921 28.3574V28.3574H127.921ZM134.659 20.7148V12.7148H134.659L134.659 20.7148ZM139.827 23.5391L133.123 27.9049C135.056 30.8723 138.71 32.2161 142.104 31.2081C145.499 30.2002 147.827 27.0803 147.827 23.5391H139.827ZM139.827 15.1768V7.17676C135.409 7.17676 131.827 10.7585 131.827 15.1768H139.827ZM91.8652 23.5322H83.8652C83.8652 27.0897 86.2143 30.2197 89.6301 31.2136C93.0459 32.2076 96.7076 30.8265 98.6163 27.8245L91.8652 23.5322ZM97.0049 20.708V12.708H97.0049L97.0049 20.708ZM103.743 28.3506L110.143 33.1506C111.182 31.7658 111.743 30.0815 111.743 28.3506H103.743ZM103.74 28.3545L97.3402 23.5545C96.3017 24.9392 95.7403 26.6233 95.7402 28.3541L103.74 28.3545ZM96.9766 35.9961L96.9765 43.9961H96.9766V35.9961ZM91.8652 33.2256L98.5937 28.898C96.6735 25.9125 93.0156 24.5494 89.6099 25.5501C86.2043 26.5507 83.8652 29.6759 83.8652 33.2256H91.8652ZM91.8652 35.6748V43.6748C96.2835 43.6748 99.8652 40.0931 99.8652 35.6748H91.8652ZM88.8574 35.6748H80.8574C80.8574 40.0931 84.4391 43.6748 88.8574 43.6748V35.6748ZM88.8574 15.1699V7.16992C84.4391 7.16992 80.8574 10.7516 80.8574 15.1699H88.8574ZM91.8652 15.1699H99.8652C99.8652 10.7516 96.2835 7.16992 91.8652 7.16992V15.1699ZM71.6494 8L71.6505 0H71.6494V8ZM73.8555 8.89355L79.5519 3.27659C79.5151 3.23922 79.4779 3.20221 79.4403 3.16557L73.8555 8.89355ZM76.6152 11.6924L82.1984 17.422C83.7238 15.9355 84.5936 13.9021 84.6148 11.7723C84.6361 9.64244 83.8072 7.59206 82.3117 6.07542L76.6152 11.6924ZM66.9502 21.1104L61.367 15.3807L61.3625 15.3852L66.9502 21.1104ZM65.6357 24.0156L57.6453 23.625C57.6401 23.731 57.637 23.8371 57.6361 23.9432L65.6357 24.0156ZM65.6338 24.2314L57.6341 24.159C57.6339 24.1835 57.6338 24.2079 57.6338 24.2323L65.6338 24.2314ZM66.9541 27.3477L61.3664 33.0728L61.3666 33.0731L66.9541 27.3477ZM70.1523 28.6367V36.6367H70.1525L70.1523 28.6367ZM73.3506 27.3477L67.7652 21.6203L67.7631 21.6223L73.3506 27.3477ZM76.0293 24.7354L81.6132 19.0064C78.5058 15.9777 73.5504 15.9784 70.4439 19.008L76.0293 24.7354ZM83.3965 31.916H91.3965C91.3965 29.7587 90.5252 27.6929 88.9804 26.1871L83.3965 31.916ZM82.3838 35.3438L76.8005 41.0733C79.7219 43.92 84.3172 44.113 87.467 41.5212L82.3838 35.3438ZM76.7217 29.8262L82.3049 24.0967L82.3005 24.0924L76.7217 29.8262ZM75.3027 29.8262L69.7243 24.0919L69.7239 24.0924L75.3027 29.8262ZM75.3027 31.21L80.885 25.4795L80.8816 25.4762L75.3027 31.21ZM80.2129 35.9932V43.9932C83.4677 43.9932 86.398 42.0213 87.6238 39.0062C88.8496 35.9911 88.1266 32.5339 85.7952 30.2627L80.2129 35.9932ZM75.9277 35.9932L70.3443 41.7225C71.8382 43.1784 73.8417 43.9932 75.9277 43.9932V35.9932ZM71.3633 31.5449L76.9467 25.8156L76.9421 25.8111L71.3633 31.5449ZM69.9443 31.5449L64.3679 25.8088L64.3655 25.8111L69.9443 31.5449ZM69.9443 32.9287L75.5304 27.202L75.5232 27.1949L69.9443 32.9287ZM73.0859 35.9932V43.9932C76.3397 43.9932 79.2694 42.0224 80.4959 39.0086C81.7223 35.9948 81.0012 32.5384 78.672 30.2664L73.0859 35.9932ZM68.7998 35.9932L63.2144 41.7206C64.7085 43.1777 66.7129 43.9932 68.7998 43.9932V35.9932ZM66.0049 33.2676L71.5903 27.5401L71.5837 27.5338L66.0049 33.2676ZM64.5859 33.2676L59.0099 27.531L59.0071 27.5338L64.5859 33.2676ZM64.5859 34.6514L70.1712 28.9238L70.1648 28.9176L64.5859 34.6514ZM65.9619 35.9932V43.9932C69.2159 43.9932 72.1457 42.0222 73.3721 39.0081C74.5984 35.994 73.8769 32.5374 71.5472 30.2656L65.9619 35.9932ZM62.8379 35.9932L62.8373 43.9932H62.8379V35.9932ZM60.8545 17.2129L55.2887 11.4664C55.2329 11.5205 55.1779 11.5753 55.1237 11.631L60.8545 17.2129ZM69.4883 8.85059L63.9996 3.03041C63.9737 3.05481 63.948 3.07937 63.9225 3.10411L69.4883 8.85059ZM157.823 20.7051L157.823 12.7051H157.823V20.7051ZM165.226 29.1729L157.24 28.6875C157.23 28.8491 157.226 29.011 157.226 29.1729H165.226ZM165.226 29.1797V37.1797C169.644 37.1797 173.226 33.598 173.226 29.1797H165.226ZM153.322 29.1797V21.1797C151.077 21.1797 148.935 22.1233 147.419 23.7801C145.904 25.4369 145.154 27.6543 145.354 29.8908L153.322 29.1797ZM157.904 33.3594V41.3594H157.904L157.904 33.3594ZM161.819 31.1748V23.1748C158.744 23.1748 155.94 24.9382 154.608 27.7107L161.819 31.1748ZM164.936 31.1748L172.488 33.8121C173.343 31.3654 172.959 28.6564 171.459 26.5433C169.958 24.4302 167.527 23.1748 164.936 23.1748V31.1748ZM157.88 35.9932V43.9932H157.88L157.88 35.9932ZM150.262 28.375L142.262 28.3747V28.375H150.262ZM174.202 20.7051V12.7051H174.202L174.202 20.7051ZM181.604 29.1729L173.619 28.6875C173.609 28.8491 173.604 29.0109 173.604 29.1729H181.604ZM181.604 29.1797V37.1797C186.023 37.1797 189.604 33.598 189.604 29.1797H181.604ZM169.701 29.1797V21.1797C167.456 21.1797 165.314 22.1233 163.798 23.7801C162.283 25.4369 161.533 27.6543 161.733 29.8908L169.701 29.1797ZM174.283 33.3594L174.283 41.3594H174.283V33.3594ZM178.198 31.1748V23.1748C175.123 23.1748 172.319 24.938 170.987 27.7103L178.198 31.1748ZM181.315 31.1748L188.868 33.8119C189.723 31.3652 189.339 28.6563 187.838 26.5432C186.338 24.4302 183.907 23.1748 181.315 23.1748V31.1748ZM174.259 35.9932L174.259 43.9932H174.259V35.9932ZM166.642 28.375L158.642 28.3747V28.375H166.642ZM148.345 35.6787V43.6787C152.763 43.6787 156.345 40.097 156.345 35.6787H148.345ZM145.31 35.6787H137.31C137.31 40.097 140.891 43.6787 145.31 43.6787V35.6787ZM145.31 15.1729V7.17285C140.891 7.17285 137.31 10.7546 137.31 15.1729H145.31ZM148.345 15.1729H156.345C156.345 10.7546 152.763 7.17285 148.345 7.17285V15.1729ZM108.742 35.6748V43.6748C113.16 43.6748 116.742 40.0931 116.742 35.6748H108.742ZM105.734 35.6748H97.7344C97.7344 40.0931 101.316 43.6748 105.734 43.6748V35.6748ZM105.734 21.0293V13.0293C101.316 13.0293 97.7344 16.611 97.7344 21.0293H105.734ZM108.742 21.0293H116.742C116.742 16.611 113.16 13.0293 108.742 13.0293V21.0293ZM96.334 23.5889V15.5889H96.3337L96.334 23.5889ZM91.833 28.3545H83.833V28.3551L91.833 28.3545ZM96.334 33.1191L96.3337 41.1191H96.334V33.1191ZM100.701 28.3545L108.701 28.3551V28.3545H100.701ZM118.276 23.5889V15.5889H118.276L118.276 23.5889ZM113.91 28.3535L105.91 28.353V28.3535H113.91ZM118.276 33.1191L118.276 41.1191H118.276V33.1191ZM122.777 28.3535H130.777V28.353L122.777 28.3535ZM135.323 23.5889L135.324 15.5889H135.323V23.5889ZM130.956 28.3535L122.956 28.353V28.3535H130.956ZM135.323 33.1191V41.1191H135.324L135.323 33.1191ZM139.824 28.3535H147.824V28.353L139.824 28.3535ZM82.5635 17.7227L88.3326 12.1803C88.3083 12.1551 88.2839 12.13 88.2593 12.1051L82.5635 17.7227ZM83.4004 29.1484L77.8171 34.8779C80.121 37.123 83.5455 37.7698 86.5095 36.5195C89.4735 35.2693 91.4004 32.3653 91.4004 29.1484H83.4004ZM76.0508 21.9863L70.3939 27.6432C70.4183 27.6675 70.4428 27.6917 70.4675 27.7158L76.0508 21.9863ZM76.0293 21.9648L81.6862 16.308C78.5896 13.2115 73.579 13.18 70.4439 16.2375L76.0293 21.9648ZM71.9316 25.9609L77.5047 31.7003C77.5088 31.6963 77.513 31.6923 77.5171 31.6883L71.9316 25.9609ZM70.1523 26.6748V34.6748H70.1526L70.1523 26.6748ZM68.373 25.9609L73.9674 20.2423C73.9608 20.2358 73.9541 20.2293 73.9475 20.2228L68.373 25.9609ZM67.6387 24.2285H59.6387L59.6387 24.2301L67.6387 24.2285ZM68.373 22.4951L62.7894 16.766C62.7856 16.7697 62.7818 16.7734 62.778 16.7771L68.373 22.4951ZM69.0654 21.8203H77.0654C77.0654 18.6033 75.1385 15.6993 72.1743 14.4491C69.2102 13.1989 65.7856 13.8459 63.4818 16.0912L69.0654 21.8203ZM69.0654 21.8242H61.0654C61.0654 25.0413 62.9925 27.9455 65.9568 29.1956C68.9211 30.4456 72.3459 29.7985 74.6496 27.5529L69.0654 21.8242ZM78.0098 13.1055L83.7056 7.4879C80.616 4.35516 75.5764 4.30554 72.4256 7.37683L78.0098 13.1055ZM157.826 23.3203V15.3203H157.826L157.826 23.3203ZM153.484 26.7305L145.737 24.7348C145.12 27.1301 145.646 29.6762 147.161 31.6312C148.676 33.5863 151.011 34.7305 153.484 34.7305V26.7305ZM162.006 26.7305V34.7305C164.438 34.7305 166.737 33.6244 168.256 31.7246C169.774 29.8249 170.345 27.3378 169.809 24.9659L162.006 26.7305ZM174.202 23.3203V15.3203H174.202L174.202 23.3203ZM169.86 26.7305L162.113 24.7348C161.496 27.1301 162.022 29.6762 163.537 31.6312C165.052 33.5863 167.387 34.7305 169.86 34.7305V26.7305ZM178.382 26.7305V34.7305C180.814 34.7305 183.113 33.6244 184.632 31.7246C186.15 29.8249 186.721 27.3378 186.185 24.9659L178.382 26.7305ZM107.228 14.4248V6.4248H107.227L107.228 14.4248ZM109.197 16.2637L117.197 16.2645V16.2637H109.197ZM107.228 18.1553L107.227 26.1553H107.228V18.1553ZM105.283 16.2637H97.2832V16.2644L105.283 16.2637ZM125.792 15.1768V23.1768C129.028 23.1768 131.945 21.2276 133.183 18.2382C134.421 15.2488 133.737 11.8079 131.449 9.5199L125.792 15.1768ZM125.788 15.1729L131.445 9.516C129.157 7.22801 125.716 6.54357 122.727 7.78182C119.737 9.02006 117.788 11.9372 117.788 15.1729H125.788ZM142.835 15.1768V23.1768C146.071 23.1768 148.988 21.2276 150.226 18.2382C151.464 15.2488 150.78 11.8079 148.492 9.5199L142.835 15.1768ZM142.831 15.1729L148.488 9.516C146.2 7.22801 142.759 6.54357 139.77 7.78182C136.78 9.02006 134.831 11.9372 134.831 15.1729H142.831ZM125.788 35.6787V27.6787H122.781V35.6787V43.6787H125.788V35.6787ZM122.781 35.6787H130.781V33.2285H122.781H114.781V35.6787H122.781ZM122.781 33.2285L116.105 28.8206C116.193 28.6882 116.387 28.4595 116.731 28.2658C117.096 28.0597 117.442 28 117.641 28L117.642 36L117.642 44C122.857 43.9997 127.021 41.3258 129.457 37.6364L122.781 33.2285ZM117.642 36V28C117.757 28 117.965 28.0269 118.21 28.1366C118.452 28.2452 118.642 28.396 118.771 28.5406C119.038 28.8416 118.878 28.9014 118.878 28.3574H110.878H102.878C102.878 36.3375 108.45 44 117.642 44V36ZM110.878 28.3574L118.878 28.3574C118.878 27.8516 119.028 27.9037 118.78 28.1827C118.661 28.3155 118.481 28.461 118.242 28.5691C117.999 28.679 117.774 28.7148 117.616 28.7148L117.616 20.7148L117.616 12.7148C108.522 12.7151 102.878 20.3551 102.878 28.3574L110.878 28.3574ZM117.616 20.7148V28.7148C117.411 28.7148 117.054 28.652 116.681 28.4383C116.333 28.2389 116.15 28.0118 116.08 27.9049L122.784 23.5391L129.488 19.1732C127.076 15.4703 122.916 12.7148 117.616 12.7148V20.7148ZM122.784 23.5391H130.784V15.1768H122.784H114.784V23.5391H122.784ZM122.784 15.1768V23.1768H125.788V15.1768V7.17676H122.784V15.1768ZM125.788 15.1768H117.788V35.6787H125.788H133.788V15.1768H125.788ZM142.831 35.6787V27.6787H139.824V35.6787V43.6787H142.831V35.6787ZM139.824 35.6787H147.824V33.2285H139.824H131.824V35.6787H139.824ZM139.824 33.2285L133.148 28.8206C133.236 28.6882 133.43 28.4595 133.774 28.2658C134.139 28.0597 134.485 28 134.684 28L134.685 36L134.685 44C139.9 43.9997 144.064 41.3258 146.5 37.6364L139.824 33.2285ZM134.685 36V28C134.8 28 135.008 28.0269 135.253 28.1366C135.495 28.2452 135.685 28.396 135.814 28.5406C136.081 28.8416 135.921 28.9014 135.921 28.3574H127.921H119.921C119.921 36.3375 125.493 44 134.685 44V36ZM127.921 28.3574L135.921 28.3574C135.921 27.8516 136.071 27.9037 135.823 28.1827C135.704 28.3155 135.524 28.461 135.285 28.5691C135.042 28.679 134.817 28.7148 134.659 28.7148L134.659 20.7148L134.659 12.7148C125.565 12.7151 119.921 20.3551 119.921 28.3574L127.921 28.3574ZM134.659 20.7148V28.7148C134.454 28.7148 134.097 28.652 133.724 28.4383C133.376 28.2389 133.193 28.0118 133.123 27.9049L139.827 23.5391L146.531 19.1732C144.119 15.4703 139.959 12.7148 134.659 12.7148V20.7148ZM139.827 23.5391H147.827V15.1768H139.827H131.827V23.5391H139.827ZM139.827 15.1768V23.1768H142.831V15.1768V7.17676H139.827V15.1768ZM142.831 15.1768H134.831V35.6787H142.831H150.831V15.1768H142.831ZM91.8652 23.5322L98.6163 27.8245C98.5231 27.971 98.3188 28.2167 97.9584 28.4242C97.575 28.6449 97.2116 28.708 97.0049 28.708L97.0049 20.708L97.0049 12.708C91.7115 12.708 87.514 15.4653 85.1142 19.24L91.8652 23.5322ZM97.0049 20.708V28.708C96.8458 28.708 96.6201 28.6718 96.3776 28.562C96.1389 28.454 95.9589 28.309 95.8411 28.1768C95.5933 27.899 95.7432 27.8472 95.7432 28.3506H103.743H111.743C111.743 20.3455 106.093 12.708 97.0049 12.708V20.708ZM103.743 28.3506L97.3432 23.5506L97.3402 23.5545L103.74 28.3545L110.14 33.1545L110.143 33.1506L103.743 28.3506ZM103.74 28.3545L95.7402 28.3541C95.7402 28.898 95.58 28.8378 95.8478 28.5366C95.9764 28.392 96.1668 28.2412 96.4086 28.1326C96.653 28.0229 96.8611 27.9961 96.9766 27.9961V35.9961V43.9961C106.167 43.9961 111.74 36.3354 111.74 28.3548L103.74 28.3545ZM96.9766 35.9961L96.9767 27.9961C97.1717 27.9961 97.5231 28.0543 97.9016 28.2686C98.261 28.472 98.4808 28.7225 98.5937 28.898L91.8652 33.2256L85.1368 37.5532C87.5679 41.333 91.7781 43.996 96.9765 43.9961L96.9766 35.9961ZM91.8652 33.2256H83.8652V35.6748H91.8652H99.8652V33.2256H91.8652ZM91.8652 35.6748V27.6748H88.8574V35.6748V43.6748H91.8652V35.6748ZM88.8574 35.6748H96.8574V15.1699H88.8574H80.8574V35.6748H88.8574ZM88.8574 15.1699V23.1699H91.8652V15.1699V7.16992H88.8574V15.1699ZM91.8652 15.1699H83.8652V23.5322H91.8652H99.8652V15.1699H91.8652ZM71.6494 8L71.6483 16C70.3534 15.9998 69.149 15.478 68.2707 14.6215L73.8555 8.89355L79.4403 3.16557C77.4325 1.20796 74.6677 0.000415802 71.6505 0L71.6494 8ZM73.8555 8.89355L68.159 14.5105L70.9188 17.3093L76.6152 11.6924L82.3117 6.07542L79.5519 3.27659L73.8555 8.89355ZM66.9502 21.1104L61.3625 15.3852C59.0495 17.6426 57.7927 20.6106 57.6453 23.625L65.6357 24.0156L73.6262 24.4063C73.5823 25.3048 73.203 26.1864 72.5379 26.8355L66.9502 21.1104ZM65.6357 24.0156L57.6361 23.9432L57.6341 24.159L65.6338 24.2314L73.6335 24.3038L73.6354 24.088L65.6357 24.0156ZM65.6338 24.2314L57.6338 24.2323C57.6341 27.4531 58.9003 30.6659 61.3664 33.0728L66.9541 27.3477L72.5419 21.6225C73.2504 22.3141 73.6337 23.2686 73.6338 24.2306L65.6338 24.2314ZM66.9541 27.3477L61.3666 33.0731C63.8274 35.4746 67.0321 36.6367 70.1523 36.6367V28.6367V20.6367C70.9569 20.6367 71.8387 20.9363 72.5416 21.6223L66.9541 27.3477ZM70.1523 28.6367L70.1525 36.6367C73.2725 36.6367 76.4772 35.4746 78.9381 33.0731L73.3506 27.3477L67.7631 21.6223C68.4661 20.9363 69.3478 20.6367 70.1522 20.6367L70.1523 28.6367ZM73.3506 27.3477L78.936 33.0751L81.6147 30.4628L76.0293 24.7354L70.4439 19.008L67.7652 21.6203L73.3506 27.3477ZM76.0293 24.7354L70.4454 30.4643L77.8126 37.6449L83.3965 31.916L88.9804 26.1871L81.6132 19.0064L76.0293 24.7354ZM83.3965 31.916H75.3965V33.2285H83.3965H91.3965V31.916H83.3965ZM83.3965 33.2285H75.3965C75.3965 31.5194 76.2026 30.0697 77.3006 29.1663L82.3838 35.3438L87.467 41.5212C89.8004 39.6011 91.3965 36.6321 91.3965 33.2285H83.3965ZM82.3838 35.3438L87.967 29.6142L82.3049 24.0967L76.7217 29.8262L71.1384 35.5557L76.8005 41.0733L82.3838 35.3438ZM76.7217 29.8262L82.3005 24.0924C78.8028 20.6891 73.2211 20.6902 69.7243 24.0919L75.3027 29.8262L80.8811 35.5604C78.168 38.1998 73.857 38.2008 71.1428 35.56L76.7217 29.8262ZM75.3027 29.8262L69.7239 24.0924C66.1039 27.6146 66.1039 33.4215 69.7239 36.9438L75.3027 31.21L80.8816 25.4762C83.718 28.2359 83.718 32.8002 80.8816 35.56L75.3027 29.8262ZM75.3027 31.21L69.7204 36.9404L74.6306 41.7236L80.2129 35.9932L85.7952 30.2627L80.885 25.4795L75.3027 31.21ZM80.2129 35.9932V27.9932H75.9277V35.9932V43.9932H80.2129V35.9932ZM75.9277 35.9932L81.5112 30.2638L76.9467 25.8156L71.3633 31.5449L65.7798 37.2742L70.3443 41.7225L75.9277 35.9932ZM71.3633 31.5449L76.9421 25.8111C73.4426 22.4061 67.8623 22.4116 64.3679 25.8088L69.9443 31.5449L75.5208 37.281C72.81 39.9164 68.5005 39.9214 65.7844 37.2787L71.3633 31.5449ZM69.9443 31.5449L64.3655 25.8111C60.7455 29.3333 60.7455 35.1403 64.3655 38.6625L69.9443 32.9287L75.5232 27.1949C78.3596 29.9546 78.3596 34.519 75.5232 37.2787L69.9443 31.5449ZM69.9443 32.9287L64.3582 38.6554L67.4998 41.7199L73.0859 35.9932L78.672 30.2664L75.5304 27.202L69.9443 32.9287ZM73.0859 35.9932V27.9932H68.7998V35.9932V43.9932H73.0859V35.9932ZM68.7998 35.9932L74.3852 30.2657L71.5902 27.5401L66.0049 33.2676L60.4195 38.995L63.2144 41.7206L68.7998 35.9932ZM66.0049 33.2676L71.5837 27.5338C68.0837 24.1284 62.5038 24.1349 59.0099 27.531L64.5859 33.2676L70.1619 39.0041C67.4517 41.6385 63.1426 41.6445 60.426 39.0014L66.0049 33.2676ZM64.5859 33.2676L59.0071 27.5338C55.3871 31.056 55.3871 36.863 59.0071 40.3852L64.5859 34.6514L70.1648 28.9176C73.0012 31.6773 73.0012 36.2416 70.1648 39.0014L64.5859 33.2676ZM64.5859 34.6514L59.0007 40.3789L60.3766 41.7207L65.9619 35.9932L71.5472 30.2656L70.1712 28.9238L64.5859 34.6514ZM65.9619 35.9932V27.9932H62.8379V35.9932V43.9932H65.9619V35.9932ZM62.8379 35.9932L62.8385 27.9932C65.4943 27.9934 68 30.1324 68 33.2285H60H52C52 39.3673 57.0612 43.9927 62.8373 43.9932L62.8379 35.9932ZM60 33.2285H68V19.2998H60H52V33.2285H60ZM60 19.2998H68C68 20.6881 67.4311 21.9264 66.5853 22.7948L60.8545 17.2129L55.1237 11.631C53.2189 13.5866 52 16.2947 52 19.2998H60ZM60.8545 17.2129L66.4203 22.9594L75.0541 14.5971L69.4883 8.85059L63.9225 3.10411L55.2887 11.4664L60.8545 17.2129ZM69.4883 8.85059L74.977 14.6708C74.1055 15.4925 72.9037 16 71.6494 16V8V0C68.6725 0 65.9865 1.15669 63.9996 3.03041L69.4883 8.85059ZM157.823 20.7051L157.823 28.7051C157.957 28.7051 157.91 28.7279 157.756 28.6592C157.599 28.5895 157.444 28.4743 157.327 28.3382C157.215 28.208 157.195 28.1254 157.205 28.1584C157.217 28.1947 157.26 28.3631 157.24 28.6875L165.226 29.1729L173.211 29.6582C173.464 25.4953 172.32 21.2453 169.476 17.9261C166.565 14.53 162.369 12.7052 157.823 12.7051L157.823 20.7051ZM165.226 29.1729H157.226V29.1797H165.226H173.226V29.1729H165.226ZM165.226 29.1797V21.1797H153.322V29.1797V37.1797H165.226V29.1797ZM153.322 29.1797L145.354 29.8908C145.634 33.0293 146.972 36.0701 149.511 38.2953C152.002 40.478 155.057 41.3594 157.904 41.3594V33.3594V25.3594C158.298 25.3594 159.182 25.4959 160.055 26.2612C160.977 27.069 161.251 28.02 161.291 28.4686L153.322 29.1797ZM157.904 33.3594L157.904 41.3594C161.905 41.3593 166.68 39.5307 169.03 34.6389L161.819 31.1748L154.608 27.7107C155.02 26.8545 155.697 26.1833 156.437 25.7808C157.123 25.4071 157.675 25.3594 157.904 25.3594L157.904 33.3594ZM161.819 31.1748V39.1748H164.936V31.1748V23.1748H161.819V31.1748ZM164.936 31.1748L157.383 28.5375C157.37 28.5749 157.388 28.5079 157.478 28.3925C157.568 28.2768 157.685 28.1712 157.808 28.0916C158.055 27.9322 158.135 27.9932 157.88 27.9932L157.88 35.9932L157.88 43.9932C163.804 43.9929 170.039 40.8263 172.488 33.8121L164.936 31.1748ZM157.88 35.9932V27.9932C157.732 27.9932 157.712 27.9681 157.781 27.9958C157.852 28.024 157.96 28.0856 158.066 28.1924C158.172 28.2989 158.233 28.4055 158.26 28.4734C158.286 28.5401 158.262 28.5197 158.262 28.375H150.262H142.262C142.262 37.1991 148.997 43.9932 157.88 43.9932V35.9932ZM150.262 28.375L158.262 28.3753C158.262 28.221 158.288 28.1846 158.269 28.2337C158.249 28.2837 158.198 28.3795 158.098 28.4822C157.996 28.5858 157.885 28.6538 157.798 28.6894C157.711 28.7249 157.705 28.7051 157.823 28.7051V20.7051V12.7051C148.837 12.7051 142.262 19.6835 142.262 28.3747L150.262 28.375ZM174.202 20.7051V28.7051C174.336 28.7051 174.289 28.7279 174.135 28.6592C173.978 28.5895 173.823 28.4742 173.706 28.3381C173.594 28.2079 173.574 28.1252 173.584 28.1582C173.595 28.1946 173.639 28.363 173.619 28.6875L181.604 29.1729L189.59 29.6582C189.843 25.4955 188.699 21.2453 185.855 17.9261C182.944 14.5298 178.747 12.7051 174.202 12.7051V20.7051ZM181.604 29.1729H173.604V29.1797H181.604H189.604V29.1729H181.604ZM181.604 29.1797V21.1797H169.701V29.1797V37.1797H181.604V29.1797ZM169.701 29.1797L161.733 29.8908C162.013 33.0296 163.351 36.0703 165.89 38.2953C168.381 40.4777 171.436 41.3592 174.283 41.3594L174.283 33.3594L174.284 25.3594C174.677 25.3594 175.561 25.4959 176.434 26.261C177.356 27.0686 177.629 28.0196 177.67 28.4686L169.701 29.1797ZM174.283 33.3594V41.3594C178.285 41.3594 183.059 39.5302 185.409 34.6393L178.198 31.1748L170.987 27.7103C171.399 26.8544 172.076 26.1833 172.815 25.7808C173.502 25.4072 174.054 25.3594 174.283 25.3594V33.3594ZM178.198 31.1748V39.1748H181.315V31.1748V23.1748H178.198V31.1748ZM181.315 31.1748L173.763 28.5377C173.75 28.5736 173.769 28.5059 173.859 28.3905C173.949 28.2748 174.065 28.1696 174.188 28.0907C174.432 27.9327 174.511 27.9932 174.259 27.9932V35.9932V43.9932C180.176 43.9932 186.418 40.8294 188.868 33.8119L181.315 31.1748ZM174.259 35.9932L174.259 27.9932C174.111 27.9932 174.091 27.9681 174.161 27.9959C174.231 28.0242 174.339 28.086 174.446 28.1928C174.553 28.2995 174.613 28.4062 174.64 28.474C174.666 28.5406 174.642 28.52 174.642 28.375H166.642H158.642C158.642 37.1978 165.374 43.9931 174.259 43.9932L174.259 35.9932ZM166.642 28.375L174.642 28.3753C174.642 28.2208 174.668 28.1842 174.649 28.2332C174.629 28.2831 174.578 28.379 174.478 28.4817C174.376 28.5855 174.265 28.6536 174.177 28.6893C174.09 28.7248 174.085 28.7051 174.202 28.7051L174.202 20.7051L174.202 12.7051C165.215 12.7053 158.642 19.6848 158.642 28.3747L166.642 28.375ZM148.345 35.6787V27.6787H145.31V35.6787V43.6787H148.345V35.6787ZM145.31 35.6787H153.31V15.1729H145.31H137.31V35.6787H145.31ZM145.31 15.1729V23.1729H148.345V15.1729V7.17285H145.31V15.1729ZM148.345 15.1729H140.345V35.6787H148.345H156.345V15.1729H148.345ZM108.742 35.6748V27.6748H105.734V35.6748V43.6748H108.742V35.6748ZM105.734 35.6748H113.734V21.0293H105.734H97.7344V35.6748H105.734ZM105.734 21.0293V29.0293H108.742V21.0293V13.0293H105.734V21.0293ZM108.742 21.0293H100.742V35.6748H108.742H116.742V21.0293H108.742ZM96.334 23.5889L96.3337 15.5889C89.0331 15.5892 83.833 21.4747 83.833 28.3545H91.833H99.833C99.833 28.8486 99.6367 29.6899 98.9047 30.4548C98.1635 31.2292 97.1835 31.5888 96.3343 31.5889L96.334 23.5889ZM91.833 28.3545L83.833 28.3551C83.8335 35.2357 89.0347 41.1188 96.3337 41.1191L96.334 33.1191L96.3343 25.1191C97.1828 25.1192 98.1627 25.4784 98.9041 26.2529C99.6365 27.018 99.833 27.8596 99.833 28.3539L91.833 28.3545ZM96.334 33.1191V41.1191C99.7409 41.1191 103.003 39.7743 105.361 37.2138C107.677 34.6985 108.701 31.4836 108.701 28.3551L100.701 28.3545L92.7012 28.3539C92.7012 28.0456 92.8193 27.2131 93.5911 26.375C94.4045 25.4918 95.4827 25.1191 96.334 25.1191V33.1191ZM100.701 28.3545H108.701C108.701 25.2243 107.669 22.0207 105.371 19.5153C103.03 16.963 99.7724 15.5889 96.334 15.5889V23.5889V31.5889C95.4512 31.5889 94.3773 31.1996 93.5807 30.3312C92.8271 29.5097 92.7012 28.6889 92.7012 28.3545H100.701ZM118.276 23.5889L118.276 15.5889C114.838 15.589 111.581 16.9625 109.24 19.5151C106.941 22.0206 105.91 25.2239 105.91 28.353L113.91 28.3535L121.91 28.354C121.91 28.6876 121.784 29.5087 121.03 30.3307C120.233 31.1999 119.159 31.5888 118.277 31.5889L118.276 23.5889ZM113.91 28.3535H105.91C105.91 34.9372 110.726 41.1189 118.276 41.1191L118.276 33.1191L118.277 25.1191C119.192 25.1192 120.252 25.5208 121.029 26.3642C121.771 27.1695 121.91 27.9869 121.91 28.3535H113.91ZM118.276 33.1191V41.1191C125.49 41.1191 130.777 35.3196 130.777 28.3535H122.777H114.777C114.777 27.8535 114.979 27.0043 115.717 26.2394C116.455 25.4749 117.426 25.1191 118.276 25.1191V33.1191ZM122.777 28.3535L130.777 28.353C130.777 21.4725 125.576 15.5889 118.276 15.5889V23.5889V31.5889C117.428 31.5889 116.448 31.2297 115.706 30.455C114.974 29.6898 114.777 28.848 114.777 28.354L122.777 28.3535ZM135.323 23.5889V15.5889C131.886 15.5889 128.628 16.9622 126.287 19.5142C123.988 22.0194 122.956 25.2229 122.956 28.353L130.956 28.3535L138.956 28.354C138.956 28.6886 138.83 29.5098 138.076 30.3315C137.279 31.2001 136.205 31.5889 135.323 31.5889V23.5889ZM130.956 28.3535H122.956C122.956 34.9394 127.774 41.1191 135.323 41.1191V33.1191V25.1191C136.238 25.1191 137.298 25.5205 138.075 26.3634C138.817 27.1684 138.956 27.9859 138.956 28.3535H130.956ZM135.323 33.1191L135.324 41.1191C142.537 41.1189 147.824 35.3198 147.824 28.3535H139.824H131.824C131.824 27.8532 132.026 27.0041 132.764 26.2393C133.502 25.4749 134.472 25.1192 135.323 25.1191L135.323 33.1191ZM139.824 28.3535L147.824 28.353C147.824 21.4722 142.622 15.5892 135.324 15.5889L135.323 23.5889L135.323 31.5889C134.475 31.5888 133.495 31.2296 132.753 30.4551C132.021 29.69 131.824 28.8482 131.824 28.354L139.824 28.3535ZM82.5635 17.7227L76.7944 23.265C75.9554 22.3916 75.4004 21.1598 75.4004 19.791H83.4004H91.4004C91.4004 16.8197 90.2093 14.1338 88.3326 12.1803L82.5635 17.7227ZM83.4004 19.791H75.4004V29.1484H83.4004H91.4004V19.791H83.4004ZM76.0508 21.9863L81.7076 16.3295L81.6862 16.308L76.0293 21.9648L70.3724 27.6217L70.3939 27.6432L76.0508 21.9863ZM76.0293 21.9648L70.4439 16.2375L66.3462 20.2336L71.9316 25.9609L77.5171 31.6883L81.6147 27.6922L76.0293 21.9648ZM71.9316 25.9609L66.3586 20.2215C67.4489 19.1628 68.8381 18.6748 70.1521 18.6748L70.1523 26.6748L70.1526 34.6748C72.7585 34.6747 75.4401 33.7051 77.5047 31.7003L71.9316 25.9609ZM70.1523 26.6748V18.6748C71.4399 18.6748 72.8505 19.1497 73.9674 20.2423L68.373 25.9609L62.7787 31.6796C64.8698 33.7253 67.5728 34.6748 70.1523 34.6748V26.6748ZM68.373 25.9609L73.9475 20.2228C75.0661 21.3095 75.6384 22.777 75.6387 24.227L67.6387 24.2285L59.6387 24.2301C59.6392 26.9362 60.6992 29.6595 62.7986 31.699L68.373 25.9609ZM67.6387 24.2285H75.6387C75.6387 25.7031 75.0539 27.1507 73.9681 28.2131L68.373 22.4951L62.778 16.7771C60.7182 18.7926 59.6387 21.4974 59.6387 24.2285H67.6387ZM68.373 22.4951L73.9567 28.2242L74.6491 27.5494L69.0654 21.8203L63.4818 16.0912L62.7894 16.766L68.373 22.4951ZM69.0654 21.8203H61.0654V21.8242H69.0654H77.0654V21.8203H69.0654ZM78.0098 13.1055L72.3139 18.723L76.8676 23.3402L82.5635 17.7227L88.2593 12.1051L83.7056 7.4879L78.0098 13.1055ZM157.826 23.3203L157.826 15.3203C151.662 15.3207 147.078 19.5316 145.737 24.7348L153.484 26.7305L161.231 28.7261C161.089 29.2797 160.736 29.9472 160.062 30.4945C159.355 31.0692 158.524 31.3203 157.827 31.3203L157.826 23.3203ZM153.484 26.7305V34.7305H162.006V26.7305V18.7305H153.484V26.7305ZM162.006 26.7305L169.809 24.9659C168.619 19.7034 164.152 15.3203 157.826 15.3203V23.3203V31.3203C157.149 31.3203 156.221 31.0717 155.407 30.3826C154.637 29.7308 154.313 28.9806 154.203 28.4951L162.006 26.7305ZM174.202 23.3203L174.202 15.3203C168.037 15.3206 163.454 19.5318 162.113 24.7348L169.86 26.7305L177.607 28.7261C177.465 29.2795 177.112 29.9471 176.438 30.4944C175.73 31.0692 174.899 31.3203 174.202 31.3203L174.202 23.3203ZM169.86 26.7305V34.7305H178.382V26.7305V18.7305H169.86V26.7305ZM178.382 26.7305L186.185 24.9659C184.995 19.7034 180.528 15.3203 174.202 15.3203V23.3203V31.3203C173.525 31.3203 172.597 31.0717 171.783 30.3826C171.013 29.7308 170.689 28.9806 170.579 28.4951L178.382 26.7305ZM107.228 14.4248V22.4248C104.562 22.4248 101.197 20.247 101.197 16.2637H109.197H117.197C117.197 10.1483 112.081 6.4248 107.228 6.4248V14.4248ZM109.197 16.2637L101.197 16.2629C101.197 14.715 101.819 13.0824 103.092 11.8563C104.35 10.6448 105.897 10.1553 107.228 10.1553V18.1553V26.1553C112.504 26.1553 117.197 22.0532 117.197 16.2645L109.197 16.2637ZM107.228 18.1553L107.228 10.1553C108.559 10.1554 110.142 10.6484 111.425 11.9048C112.713 13.1671 113.283 14.7978 113.283 16.2629L105.283 16.2637L97.2832 16.2644C97.2837 21.931 101.822 26.1548 107.227 26.1553L107.228 18.1553ZM105.283 16.2637H113.283C113.283 17.9017 112.598 19.5863 111.276 20.8083C110.008 21.9804 108.496 22.4247 107.228 22.4248L107.228 14.4248L107.227 6.4248C102.318 6.42522 97.2832 10.1709 97.2832 16.2637H105.283ZM125.792 15.1768V7.17676H125.788V15.1768V23.1768H125.792V15.1768ZM125.788 15.1768H133.788V15.1729H125.788H117.788V15.1768H125.788ZM125.788 15.1729L120.131 20.8297L120.135 20.8336L125.792 15.1768L131.449 9.5199L131.445 9.516L125.788 15.1729ZM142.835 15.1768V7.17676H142.831V15.1768V23.1768H142.835V15.1768ZM142.831 15.1768H150.831V15.1729H142.831H134.831V15.1768H142.831ZM142.831 15.1729L137.174 20.8297L137.178 20.8336L142.835 15.1768L148.492 9.5199L148.488 9.516L142.831 15.1729ZM76.6152 11.6924L71.0321 5.96277L61.367 15.3807L66.9502 21.1104L72.5333 26.84L82.1984 17.422L76.6152 11.6924ZM83.4004 29.1484L88.9837 23.419L81.6341 16.2569L76.0508 21.9863L70.4675 27.7158L77.8171 34.8779L83.4004 29.1484ZM69.0654 21.8242L74.6496 27.5529L83.5939 18.8341L78.0098 13.1055L72.4256 7.37683L63.4813 16.0956L69.0654 21.8242Z" fill="#E6E2DE" mask="url(#path-4-outside-1_1_1042)"/>
</svg>
