<svg width="242" height="180" viewBox="0 0 242 180" fill="none" xmlns="http://www.w3.org/2000/svg">
<rect y="20" width="242" height="160" rx="12" fill="#E6E2DE"/>
<path d="M98.9376 91.624C98.9376 93.752 97.3696 95 94.8416 95H90.3456V83.512H94.6656C97.0816 83.512 98.5696 84.6 98.5696 86.568C98.5696 87.624 97.9776 88.472 96.9536 89C98.2336 89.448 98.9376 90.36 98.9376 91.624ZM94.4736 85.432H92.5536V88.104H94.4736C95.6576 88.104 96.2656 87.592 96.2656 86.76C96.2656 85.944 95.6576 85.432 94.4736 85.432ZM94.6496 90.04H92.5536V93.08H94.6496C95.9616 93.08 96.6496 92.504 96.6496 91.528C96.6496 90.616 95.9616 90.04 94.6496 90.04ZM102.577 90.856V95H100.353V86.456H102.401V88.104C103.025 87.016 104.353 86.36 105.729 86.36V88.664C103.841 88.52 102.577 88.968 102.577 90.856ZM109.3 84.472C109.3 85.224 108.692 85.784 107.812 85.784C106.948 85.784 106.34 85.224 106.34 84.472C106.34 83.688 106.948 83.128 107.812 83.128C108.692 83.128 109.3 83.688 109.3 84.472ZM108.948 95H106.724V86.456H108.948V95ZM114.543 95.16C112.063 95.16 110.207 93.208 110.207 90.728C110.207 88.232 112.063 86.296 114.543 86.296C117.023 86.296 118.879 88.232 118.879 90.728C118.879 93.208 117.023 95.16 114.543 95.16ZM114.543 93.192C115.647 93.192 116.591 92.312 116.591 90.728C116.591 89.144 115.647 88.28 114.543 88.28C113.439 88.28 112.495 89.144 112.495 90.728C112.495 92.312 113.439 93.192 114.543 93.192ZM125.294 92.84V94.776C124.75 95.048 124.238 95.16 123.582 95.16C121.822 95.16 120.718 94.152 120.718 92.232V88.36H118.99V86.456H120.718V83.928H122.926V86.456H125.374V88.36H122.926V91.72C122.926 92.712 123.374 93.112 124.174 93.112C124.59 93.112 124.974 93.016 125.294 92.84ZM130.097 95.144C127.537 95.144 125.825 93.368 125.825 90.696C125.825 88.152 127.601 86.296 130.065 86.296C132.769 86.296 134.561 88.488 134.161 91.272H128.097C128.241 92.664 128.913 93.432 130.049 93.432C131.025 93.432 131.681 92.952 131.937 92.104H134.145C133.665 94.04 132.177 95.144 130.097 95.144ZM130.017 87.928C128.977 87.928 128.321 88.6 128.129 89.864H131.809C131.745 88.68 131.073 87.928 130.017 87.928ZM138.934 95.16C136.47 95.16 134.774 93.336 134.774 90.728C134.774 88.168 136.534 86.296 138.934 86.296C141.158 86.296 142.806 87.8 143.078 90.104H140.742C140.63 88.968 139.942 88.264 138.934 88.264C137.782 88.264 137.046 89.208 137.046 90.728C137.046 92.264 137.766 93.192 138.934 93.192C139.958 93.192 140.614 92.52 140.742 91.352H143.078C142.822 93.704 141.222 95.16 138.934 95.16ZM146.57 90.344V95H144.346V83.512H146.57V87.576C147.162 86.792 147.898 86.296 149.018 86.296C150.73 86.296 151.914 87.416 151.914 89.48V95H149.706V90.232C149.706 88.968 149.21 88.264 148.202 88.264C147.322 88.264 146.57 88.968 146.57 90.344Z" fill="#1A1A1A"/>
<path d="M57.0649 112.116C57.0649 113.95 55.7209 115 53.6349 115H49.9529V104.948H53.4389C55.4689 104.948 56.6869 105.886 56.6869 107.58C56.6869 108.532 56.1129 109.344 55.1469 109.764C56.3929 110.114 57.0649 110.968 57.0649 112.116ZM53.3409 106.18H51.3669V109.204H53.3409C54.5589 109.204 55.2169 108.63 55.2169 107.692C55.2169 106.754 54.5589 106.18 53.3409 106.18ZM53.5369 110.436H51.3669V113.768H53.5369C54.8529 113.768 55.5949 113.138 55.5949 112.074C55.5949 111.052 54.8529 110.436 53.5369 110.436ZM59.8616 111.206V115H58.4476V107.58H59.7636V109.148C60.2816 108.126 61.4016 107.482 62.6196 107.482V108.952C61.0236 108.868 59.8616 109.568 59.8616 111.206ZM67.9526 115V113.852C67.4906 114.678 66.6646 115.14 65.5726 115.14C64.0326 115.14 63.0246 114.258 63.0246 112.9C63.0246 111.444 64.1866 110.688 66.3986 110.688C66.8326 110.688 67.1826 110.702 67.7846 110.772V110.226C67.7846 109.162 67.2106 108.56 66.2306 108.56C65.1946 108.56 64.5646 109.176 64.5226 110.212H63.2346C63.3046 108.546 64.4946 107.44 66.2306 107.44C68.0646 107.44 69.1286 108.476 69.1286 110.24V115H67.9526ZM64.3686 112.858C64.3686 113.628 64.9426 114.132 65.8526 114.132C67.0426 114.132 67.7846 113.39 67.7846 112.256V111.654C67.2386 111.584 66.8466 111.57 66.4826 111.57C65.0686 111.57 64.3686 111.99 64.3686 112.858ZM72.1532 110.814V115H70.7392V107.58H72.0552V108.812C72.5592 107.986 73.3992 107.44 74.4212 107.44C75.9472 107.44 76.9552 108.42 76.9552 110.198V115H75.5412V110.674C75.5412 109.4 74.9812 108.686 73.9312 108.686C72.9652 108.686 72.1532 109.498 72.1532 110.814ZM78.0209 111.29C78.0209 109.036 79.3089 107.44 81.3109 107.44C82.3049 107.44 83.1729 107.944 83.6909 108.854V104.948H85.1049V115H83.7889V113.67C83.2569 114.608 82.3609 115.14 81.3109 115.14C79.3089 115.14 78.0209 113.516 78.0209 111.29ZM79.4909 111.29C79.4909 112.942 80.3589 113.88 81.5909 113.88C82.7949 113.88 83.6909 112.9 83.6909 111.262C83.6909 109.596 82.7669 108.686 81.5909 108.686C80.3589 108.686 79.4909 109.61 79.4909 111.29ZM92.7263 115H89.5483V104.948H92.7263C95.9323 104.948 97.7803 106.992 97.7803 109.932C97.7803 112.83 95.8623 115 92.7263 115ZM91.0883 106.278V113.67H92.6563C94.9663 113.67 96.2123 112.242 96.2123 109.932C96.2123 107.664 94.9803 106.278 92.6563 106.278H91.0883ZM102.052 115.14C99.91 115.14 98.468 113.586 98.468 111.248C98.468 109.05 99.966 107.44 102.01 107.44C104.222 107.44 105.692 109.232 105.44 111.64H99.91C100.022 113.152 100.778 114.034 102.024 114.034C103.074 114.034 103.802 113.46 104.04 112.494H105.44C105.076 114.146 103.802 115.14 102.052 115.14ZM101.982 108.504C100.848 108.504 100.078 109.316 99.924 110.702H103.942C103.872 109.33 103.13 108.504 101.982 108.504ZM109.453 115.154C107.423 115.154 105.995 113.558 105.995 111.29C105.995 109.05 107.451 107.44 109.453 107.44C111.287 107.44 112.617 108.658 112.883 110.59H111.399C111.245 109.4 110.503 108.686 109.467 108.686C108.249 108.686 107.451 109.722 107.451 111.29C107.451 112.872 108.249 113.894 109.467 113.894C110.517 113.894 111.245 113.194 111.413 111.99H112.883C112.631 113.95 111.315 115.154 109.453 115.154ZM115.44 115H114.026V104.948H115.44V110.898L118.618 107.58H120.284L116.854 111.178L120.606 115H118.786L115.44 111.486V115ZM123.238 114.398C123.238 115.728 122.188 116.764 120.648 116.792V115.994C121.558 115.966 122.174 115.476 122.258 114.79C122.132 114.832 122.048 114.846 121.95 114.846C121.418 114.846 121.026 114.412 121.026 113.894C121.026 113.292 121.474 112.9 122.048 112.9C122.818 112.9 123.238 113.46 123.238 114.398ZM130.921 111.5H128.975V115H127.435V104.948H130.921C133.175 104.948 134.631 106.096 134.631 108.196C134.631 110.31 133.175 111.5 130.921 111.5ZM130.907 106.25H128.975V110.198H130.907C132.265 110.198 133.091 109.456 133.091 108.21C133.091 106.964 132.265 106.25 130.907 106.25ZM137.501 105.858C137.501 106.39 137.081 106.796 136.479 106.796C135.877 106.796 135.443 106.39 135.443 105.858C135.443 105.312 135.877 104.92 136.479 104.92C137.081 104.92 137.501 105.312 137.501 105.858ZM137.193 115H135.779V107.58H137.193V115ZM143.062 113.628V114.874C142.628 115.07 142.25 115.14 141.802 115.14C140.43 115.14 139.478 114.398 139.478 112.76V108.784H137.84V107.58H139.478V105.382H140.892V107.58H143.132V108.784H140.892V112.438C140.892 113.46 141.382 113.824 142.138 113.824C142.474 113.824 142.768 113.768 143.062 113.628ZM146.922 115.154C144.892 115.154 143.464 113.558 143.464 111.29C143.464 109.05 144.92 107.44 146.922 107.44C148.756 107.44 150.086 108.658 150.352 110.59H148.868C148.714 109.4 147.972 108.686 146.936 108.686C145.718 108.686 144.92 109.722 144.92 111.29C144.92 112.872 145.718 113.894 146.936 113.894C147.986 113.894 148.714 113.194 148.882 111.99H150.352C150.1 113.95 148.784 115.154 146.922 115.154ZM152.91 110.814V115H151.496V104.948H152.91V108.77C153.4 107.972 154.156 107.44 155.178 107.44C156.704 107.44 157.712 108.42 157.712 110.198V115H156.298V110.674C156.298 109.4 155.738 108.686 154.688 108.686C153.722 108.686 152.91 109.498 152.91 110.814ZM165.245 115H162.067V104.948H165.245C168.451 104.948 170.299 106.992 170.299 109.932C170.299 112.83 168.381 115 165.245 115ZM163.607 106.278V113.67H165.175C167.485 113.67 168.731 112.242 168.731 109.932C168.731 107.664 167.499 106.278 165.175 106.278H163.607ZM174.571 115.14C172.429 115.14 170.987 113.586 170.987 111.248C170.987 109.05 172.485 107.44 174.529 107.44C176.741 107.44 178.211 109.232 177.959 111.64H172.429C172.541 113.152 173.297 114.034 174.543 114.034C175.593 114.034 176.321 113.46 176.559 112.494H177.959C177.595 114.146 176.321 115.14 174.571 115.14ZM174.501 108.504C173.367 108.504 172.597 109.316 172.443 110.702H176.461C176.391 109.33 175.649 108.504 174.501 108.504ZM181.972 115.154C179.942 115.154 178.514 113.558 178.514 111.29C178.514 109.05 179.97 107.44 181.972 107.44C183.806 107.44 185.136 108.658 185.402 110.59H183.918C183.764 109.4 183.022 108.686 181.986 108.686C180.768 108.686 179.97 109.722 179.97 111.29C179.97 112.872 180.768 113.894 181.986 113.894C183.036 113.894 183.764 113.194 183.932 111.99H185.402C185.15 113.95 183.834 115.154 181.972 115.154ZM187.959 115H186.545V104.948H187.959V110.898L191.137 107.58H192.803L189.373 111.178L193.125 115H191.305L187.959 111.486V115ZM66.1706 129.116C66.1706 130.95 64.8266 132 62.7406 132H59.0586V121.948H62.5446C64.5746 121.948 65.7926 122.886 65.7926 124.58C65.7926 125.532 65.2186 126.344 64.2526 126.764C65.4986 127.114 66.1706 127.968 66.1706 129.116ZM62.4466 123.18H60.4726V126.204H62.4466C63.6646 126.204 64.3226 125.63 64.3226 124.692C64.3226 123.754 63.6646 123.18 62.4466 123.18ZM62.6426 127.436H60.4726V130.768H62.6426C63.9586 130.768 64.7006 130.138 64.7006 129.074C64.7006 128.052 63.9586 127.436 62.6426 127.436ZM68.9674 128.206V132H67.5534V124.58H68.8694V126.148C69.3874 125.126 70.5074 124.482 71.7254 124.482V125.952C70.1294 125.868 68.9674 126.568 68.9674 128.206ZM77.0584 132V130.852C76.5964 131.678 75.7704 132.14 74.6784 132.14C73.1384 132.14 72.1304 131.258 72.1304 129.9C72.1304 128.444 73.2924 127.688 75.5044 127.688C75.9384 127.688 76.2884 127.702 76.8904 127.772V127.226C76.8904 126.162 76.3164 125.56 75.3364 125.56C74.3004 125.56 73.6704 126.176 73.6284 127.212H72.3404C72.4104 125.546 73.6004 124.44 75.3364 124.44C77.1704 124.44 78.2344 125.476 78.2344 127.24V132H77.0584ZM73.4744 129.858C73.4744 130.628 74.0484 131.132 74.9584 131.132C76.1484 131.132 76.8904 130.39 76.8904 129.256V128.654C76.3444 128.584 75.9524 128.57 75.5884 128.57C74.1744 128.57 73.4744 128.99 73.4744 129.858ZM81.2589 127.814V132H79.8449V124.58H81.1609V125.812C81.6649 124.986 82.5049 124.44 83.5269 124.44C85.0529 124.44 86.0609 125.42 86.0609 127.198V132H84.6469V127.674C84.6469 126.4 84.0869 125.686 83.0369 125.686C82.0709 125.686 81.2589 126.498 81.2589 127.814ZM87.1267 128.29C87.1267 126.036 88.4147 124.44 90.4167 124.44C91.4107 124.44 92.2787 124.944 92.7967 125.854V121.948H94.2107V132H92.8947V130.67C92.3627 131.608 91.4667 132.14 90.4167 132.14C88.4147 132.14 87.1267 130.516 87.1267 128.29ZM88.5967 128.29C88.5967 129.942 89.4647 130.88 90.6967 130.88C91.9007 130.88 92.7967 129.9 92.7967 128.262C92.7967 126.596 91.8727 125.686 90.6967 125.686C89.4647 125.686 88.5967 126.61 88.5967 128.29ZM97.6182 122.858C97.6182 123.39 97.1982 123.796 96.5962 123.796C95.9942 123.796 95.5602 123.39 95.5602 122.858C95.5602 122.312 95.9942 121.92 96.5962 121.92C97.1982 121.92 97.6182 122.312 97.6182 122.858ZM97.3102 132H95.8962V124.58H97.3102V132ZM100.407 127.814V132H98.9932V124.58H100.309V125.812C100.813 124.986 101.653 124.44 102.675 124.44C104.201 124.44 105.209 125.42 105.209 127.198V132H103.795V127.674C103.795 126.4 103.235 125.686 102.185 125.686C101.219 125.686 100.407 126.498 100.407 127.814ZM109.775 134.856C107.829 134.856 106.569 133.82 106.485 132.14H107.857C107.941 133.176 108.613 133.736 109.761 133.736C111.035 133.736 111.707 133.05 111.707 131.776V130.432C111.287 131.328 110.447 131.846 109.439 131.846C107.591 131.846 106.275 130.32 106.275 128.136C106.275 125.924 107.535 124.44 109.397 124.44C110.461 124.44 111.301 124.958 111.805 125.896V124.58H113.121V131.748C113.121 133.694 111.875 134.856 109.775 134.856ZM107.703 128.136C107.703 129.676 108.459 130.614 109.691 130.614C110.895 130.614 111.707 129.648 111.707 128.178C111.707 126.638 110.909 125.658 109.691 125.658C108.473 125.658 107.703 126.61 107.703 128.136ZM121.938 132.21C119.138 132.21 116.968 129.928 116.968 126.96C116.968 124.006 119.138 121.738 121.938 121.738C124.458 121.738 126.474 123.418 126.852 125.896H125.214C124.934 124.272 123.618 123.124 121.952 123.124C119.964 123.124 118.564 124.734 118.564 126.96C118.564 129.214 119.964 130.824 121.952 130.824C123.618 130.824 124.934 129.662 125.214 128.038H126.852C126.474 130.53 124.458 132.21 121.938 132.21ZM131.169 132.14C129.069 132.14 127.529 130.488 127.529 128.29C127.529 126.092 129.069 124.44 131.169 124.44C133.269 124.44 134.809 126.092 134.809 128.29C134.809 130.488 133.269 132.14 131.169 132.14ZM131.169 130.894C132.387 130.894 133.353 129.914 133.353 128.29C133.353 126.666 132.387 125.7 131.169 125.7C129.951 125.7 128.999 126.666 128.999 128.29C128.999 129.914 129.951 130.894 131.169 130.894ZM137.398 132H135.97V121.948H137.398V132ZM140.509 132H139.081V121.948H140.509V132ZM146.685 132V130.852C146.223 131.678 145.397 132.14 144.305 132.14C142.765 132.14 141.757 131.258 141.757 129.9C141.757 128.444 142.919 127.688 145.131 127.688C145.565 127.688 145.915 127.702 146.517 127.772V127.226C146.517 126.162 145.943 125.56 144.963 125.56C143.927 125.56 143.297 126.176 143.255 127.212H141.967C142.037 125.546 143.227 124.44 144.963 124.44C146.797 124.44 147.861 125.476 147.861 127.24V132H146.685ZM143.101 129.858C143.101 130.628 143.675 131.132 144.585 131.132C145.775 131.132 146.517 130.39 146.517 129.256V128.654C145.971 128.584 145.579 128.57 145.215 128.57C143.801 128.57 143.101 128.99 143.101 129.858ZM153.59 130.628V131.874C153.156 132.07 152.778 132.14 152.33 132.14C150.958 132.14 150.006 131.398 150.006 129.76V125.784H148.368V124.58H150.006V122.382H151.42V124.58H153.66V125.784H151.42V129.438C151.42 130.46 151.91 130.824 152.666 130.824C153.002 130.824 153.296 130.768 153.59 130.628ZM157.576 132.14C155.434 132.14 153.992 130.586 153.992 128.248C153.992 126.05 155.49 124.44 157.534 124.44C159.746 124.44 161.216 126.232 160.964 128.64H155.434C155.546 130.152 156.302 131.034 157.548 131.034C158.598 131.034 159.326 130.46 159.564 129.494H160.964C160.6 131.146 159.326 132.14 157.576 132.14ZM157.506 125.504C156.372 125.504 155.602 126.316 155.448 127.702H159.466C159.396 126.33 158.654 125.504 157.506 125.504ZM163.601 128.206V132H162.187V124.58H163.503V126.148C164.021 125.126 165.141 124.482 166.359 124.482V125.952C164.763 125.868 163.601 126.568 163.601 128.206ZM171.692 132V130.852C171.23 131.678 170.404 132.14 169.312 132.14C167.772 132.14 166.764 131.258 166.764 129.9C166.764 128.444 167.926 127.688 170.138 127.688C170.572 127.688 170.922 127.702 171.524 127.772V127.226C171.524 126.162 170.95 125.56 169.97 125.56C168.934 125.56 168.304 126.176 168.262 127.212H166.974C167.044 125.546 168.234 124.44 169.97 124.44C171.804 124.44 172.868 125.476 172.868 127.24V132H171.692ZM168.108 129.858C168.108 130.628 168.682 131.132 169.592 131.132C170.782 131.132 171.524 130.39 171.524 129.256V128.654C170.978 128.584 170.586 128.57 170.222 128.57C168.808 128.57 168.108 128.99 168.108 129.858ZM175.907 132H174.479V121.948H175.907V132ZM183.47 129.788C183.47 131.244 182.336 132.14 180.362 132.14C178.402 132.14 177.24 131.174 177.1 129.578H178.458C178.514 130.502 179.256 131.076 180.39 131.076C181.384 131.076 182.042 130.726 182.042 130.026C182.042 129.41 181.664 129.144 180.74 128.962L179.536 128.738C178.164 128.472 177.394 127.772 177.394 126.652C177.394 125.35 178.528 124.44 180.25 124.44C182.028 124.44 183.232 125.392 183.358 126.918H182C181.916 126.022 181.258 125.504 180.264 125.504C179.368 125.504 178.766 125.882 178.766 126.526C178.766 127.128 179.144 127.408 180.04 127.576L181.3 127.814C182.77 128.08 183.47 128.724 183.47 129.788Z" fill="#1A1A1A"/>
<mask id="path-4-outside-1_1115_3" maskUnits="userSpaceOnUse" x="56" y="0" width="129" height="40" fill="black">
<rect fill="white" x="56" width="129" height="40"/>
<path d="M144.636 21.436C145.522 16.8044 149.864 14.1225 154.464 14.9924C157.644 15.5939 160.139 17.9702 160.865 21.1086H155.676C155.195 20.1528 154.293 19.4079 153.191 19.3031C150.09 19.0088 149.144 21.8851 149.506 24.4498C149.786 26.4285 151.122 27.7084 153.195 27.5248C154.439 27.4141 155.189 26.4763 155.676 25.4277H160.865C160.161 29.0487 157.187 31.6772 153.484 31.969C147.349 32.452 143.529 27.2211 144.636 21.436Z"/>
<path fill-rule="evenodd" clip-rule="evenodd" d="M68.7948 16.8734C69.7762 15.8514 71.0155 15.1855 72.425 14.9521C77.0106 14.1901 80.5547 17.1993 81.2337 21.632C81.792 25.2736 80.7059 29.3382 77.2577 31.1564C74.5919 32.5618 70.8691 32.2374 68.7961 29.9559V31.5608H64V9.63287H68.7948V16.8734ZM76.1258 25.1341C77.2485 21.8271 75.0875 18.4202 71.3585 19.4438C68.5273 20.222 67.9913 24.5981 69.8437 26.485V26.4864C71.6884 28.3662 75.2434 27.7312 76.1258 25.1341Z"/>
<path fill-rule="evenodd" clip-rule="evenodd" d="M128.856 18.1911C132.014 13.7421 139.101 13.72 142.319 18.1156C143.799 20.138 144.042 22.4848 143.923 24.9336V24.9349H132.098C132.37 26.2287 133.348 27.2401 134.63 27.5782C135.732 27.8681 137.354 27.8288 138.114 26.8679H143.674C143.504 27.3218 143.275 27.7564 143.014 28.1648C139.92 33.0134 132.333 33.3178 128.922 28.6492C126.802 25.7481 126.778 21.1206 128.856 18.1911ZM135.592 18.6638C133.734 18.6638 132.575 19.897 132.139 21.6027H138.92C138.664 19.8755 137.374 18.6638 135.592 18.6638Z"/>
<path fill-rule="evenodd" clip-rule="evenodd" d="M108.092 15.2698C112.611 15.2698 116.275 18.918 116.275 23.4185C116.275 27.919 112.611 31.5672 108.092 31.5673C103.573 31.5673 99.9096 27.9191 99.9096 23.4185C99.9096 18.918 103.573 15.2698 108.092 15.2698ZM108.082 19.4679C106.931 18.0481 104.765 19.2839 105.275 20.951C105.362 21.2339 105.591 21.439 105.609 21.7186C105.635 22.0979 105.301 23.2832 105.022 23.55C104.783 23.7781 104.268 23.8855 103.956 24.1145C102.124 25.4566 103.319 28.31 105.557 27.9591C105.945 27.8981 106.414 27.6608 106.694 27.3881C107.359 26.7412 107.498 25.7733 107.107 24.9453C106.892 24.4888 106.408 24.181 106.454 23.6138C106.47 23.4259 106.788 22.3142 106.897 22.218C106.965 22.1588 107.479 22.0636 107.679 21.9478C107.753 21.9041 107.916 21.7815 107.977 21.7206C108.132 21.5618 108.174 21.3076 108.422 21.2733C108.726 21.2321 109.573 21.2475 109.886 21.2895C110.838 21.4174 111.154 22.6107 112.334 22.1242C113.69 21.5654 113.216 19.4201 111.586 19.5994C111.192 19.6424 110.923 19.9364 110.574 20.059C110.097 20.2264 109.204 20.1988 108.701 20.1105C108.327 20.0444 108.274 19.7047 108.082 19.4679Z"/>
<path d="M123.725 11.2547V15.2659L123.726 15.2672H127.158V19.5453H123.726V26.6009C123.726 26.8566 124.107 27.2797 124.367 27.28H126.869V31.5581C125.569 31.5221 124.228 31.6742 122.956 31.3576C120.736 30.805 119.129 29.0111 118.931 26.7227V19.544H116.511L116.449 19.4828V15.2659H118.93V11.1928H123.663L123.725 11.2547Z"/>
<path d="M86.8715 18.2582L87.0995 17.3298C88.5815 14.2476 93.2009 15.0868 92.951 18.5902C92.7261 21.753 88.0768 22.3853 87.0179 19.2654L86.8715 18.7328V31.5608H82.0754V15.2698H86.8715V18.2582Z"/>
<path d="M98.4039 31.5608H93.6085V15.2698H98.4039V31.5608Z"/>
<path d="M166.206 17.1598C167.399 15.7046 169.002 14.9166 170.899 14.8557C175.034 14.7237 176.857 17.5651 177 21.3748L176.998 31.5588H172.244L172.245 22.4035C172.243 20.0946 170.539 18.7775 168.274 19.4431C167.209 19.7563 166.207 20.8979 166.207 22.0357V31.5588H161.411V9.63157H166.206V17.1598Z"/>
<path d="M96.0042 8C97.5156 8 98.7411 9.21909 98.7411 10.7228C98.7411 12.2264 97.5155 13.4455 96.0042 13.4455C94.493 13.4454 93.2681 12.2263 93.268 10.7228C93.268 9.21913 94.493 8.00006 96.0042 8Z"/>
</mask>
<path d="M144.636 21.436C145.522 16.8044 149.864 14.1225 154.464 14.9924C157.644 15.5939 160.139 17.9702 160.865 21.1086H155.676C155.195 20.1528 154.293 19.4079 153.191 19.3031C150.09 19.0088 149.144 21.8851 149.506 24.4498C149.786 26.4285 151.122 27.7084 153.195 27.5248C154.439 27.4141 155.189 26.4763 155.676 25.4277H160.865C160.161 29.0487 157.187 31.6772 153.484 31.969C147.349 32.452 143.529 27.2211 144.636 21.436Z" fill="#1A1A1A"/>
<path fill-rule="evenodd" clip-rule="evenodd" d="M68.7948 16.8734C69.7762 15.8514 71.0155 15.1855 72.425 14.9521C77.0106 14.1901 80.5547 17.1993 81.2337 21.632C81.792 25.2736 80.7059 29.3382 77.2577 31.1564C74.5919 32.5618 70.8691 32.2374 68.7961 29.9559V31.5608H64V9.63287H68.7948V16.8734ZM76.1258 25.1341C77.2485 21.8271 75.0875 18.4202 71.3585 19.4438C68.5273 20.222 67.9913 24.5981 69.8437 26.485V26.4864C71.6884 28.3662 75.2434 27.7312 76.1258 25.1341Z" fill="#1A1A1A"/>
<path fill-rule="evenodd" clip-rule="evenodd" d="M128.856 18.1911C132.014 13.7421 139.101 13.72 142.319 18.1156C143.799 20.138 144.042 22.4848 143.923 24.9336V24.9349H132.098C132.37 26.2287 133.348 27.2401 134.63 27.5782C135.732 27.8681 137.354 27.8288 138.114 26.8679H143.674C143.504 27.3218 143.275 27.7564 143.014 28.1648C139.92 33.0134 132.333 33.3178 128.922 28.6492C126.802 25.7481 126.778 21.1206 128.856 18.1911ZM135.592 18.6638C133.734 18.6638 132.575 19.897 132.139 21.6027H138.92C138.664 19.8755 137.374 18.6638 135.592 18.6638Z" fill="#1A1A1A"/>
<path fill-rule="evenodd" clip-rule="evenodd" d="M108.092 15.2698C112.611 15.2698 116.275 18.918 116.275 23.4185C116.275 27.919 112.611 31.5672 108.092 31.5673C103.573 31.5673 99.9096 27.9191 99.9096 23.4185C99.9096 18.918 103.573 15.2698 108.092 15.2698ZM108.082 19.4679C106.931 18.0481 104.765 19.2839 105.275 20.951C105.362 21.2339 105.591 21.439 105.609 21.7186C105.635 22.0979 105.301 23.2832 105.022 23.55C104.783 23.7781 104.268 23.8855 103.956 24.1145C102.124 25.4566 103.319 28.31 105.557 27.9591C105.945 27.8981 106.414 27.6608 106.694 27.3881C107.359 26.7412 107.498 25.7733 107.107 24.9453C106.892 24.4888 106.408 24.181 106.454 23.6138C106.47 23.4259 106.788 22.3142 106.897 22.218C106.965 22.1588 107.479 22.0636 107.679 21.9478C107.753 21.9041 107.916 21.7815 107.977 21.7206C108.132 21.5618 108.174 21.3076 108.422 21.2733C108.726 21.2321 109.573 21.2475 109.886 21.2895C110.838 21.4174 111.154 22.6107 112.334 22.1242C113.69 21.5654 113.216 19.4201 111.586 19.5994C111.192 19.6424 110.923 19.9364 110.574 20.059C110.097 20.2264 109.204 20.1988 108.701 20.1105C108.327 20.0444 108.274 19.7047 108.082 19.4679Z" fill="#1A1A1A"/>
<path d="M123.725 11.2547V15.2659L123.726 15.2672H127.158V19.5453H123.726V26.6009C123.726 26.8566 124.107 27.2797 124.367 27.28H126.869V31.5581C125.569 31.5221 124.228 31.6742 122.956 31.3576C120.736 30.805 119.129 29.0111 118.931 26.7227V19.544H116.511L116.449 19.4828V15.2659H118.93V11.1928H123.663L123.725 11.2547Z" fill="#1A1A1A"/>
<path d="M86.8715 18.2582L87.0995 17.3298C88.5815 14.2476 93.2009 15.0868 92.951 18.5902C92.7261 21.753 88.0768 22.3853 87.0179 19.2654L86.8715 18.7328V31.5608H82.0754V15.2698H86.8715V18.2582Z" fill="#1A1A1A"/>
<path d="M98.4039 31.5608H93.6085V15.2698H98.4039V31.5608Z" fill="#1A1A1A"/>
<path d="M166.206 17.1598C167.399 15.7046 169.002 14.9166 170.899 14.8557C175.034 14.7237 176.857 17.5651 177 21.3748L176.998 31.5588H172.244L172.245 22.4035C172.243 20.0946 170.539 18.7775 168.274 19.4431C167.209 19.7563 166.207 20.8979 166.207 22.0357V31.5588H161.411V9.63157H166.206V17.1598Z" fill="#1A1A1A"/>
<path d="M96.0042 8C97.5156 8 98.7411 9.21909 98.7411 10.7228C98.7411 12.2264 97.5155 13.4455 96.0042 13.4455C94.493 13.4454 93.2681 12.2263 93.268 10.7228C93.268 9.21913 94.493 8.00006 96.0042 8Z" fill="#1A1A1A"/>
<path d="M144.636 21.436C145.522 16.8044 149.864 14.1225 154.464 14.9924C157.644 15.5939 160.139 17.9702 160.865 21.1086H155.676C155.195 20.1528 154.293 19.4079 153.191 19.3031C150.09 19.0088 149.144 21.8851 149.506 24.4498C149.786 26.4285 151.122 27.7084 153.195 27.5248C154.439 27.4141 155.189 26.4763 155.676 25.4277H160.865C160.161 29.0487 157.187 31.6772 153.484 31.969C147.349 32.452 143.529 27.2211 144.636 21.436Z" stroke="#E6E2DE" stroke-width="16" stroke-linejoin="round" mask="url(#path-4-outside-1_1115_3)"/>
<path fill-rule="evenodd" clip-rule="evenodd" d="M68.7948 16.8734C69.7762 15.8514 71.0155 15.1855 72.425 14.9521C77.0106 14.1901 80.5547 17.1993 81.2337 21.632C81.792 25.2736 80.7059 29.3382 77.2577 31.1564C74.5919 32.5618 70.8691 32.2374 68.7961 29.9559V31.5608H64V9.63287H68.7948V16.8734ZM76.1258 25.1341C77.2485 21.8271 75.0875 18.4202 71.3585 19.4438C68.5273 20.222 67.9913 24.5981 69.8437 26.485V26.4864C71.6884 28.3662 75.2434 27.7312 76.1258 25.1341Z" stroke="#E6E2DE" stroke-width="16" stroke-linejoin="round" mask="url(#path-4-outside-1_1115_3)"/>
<path fill-rule="evenodd" clip-rule="evenodd" d="M128.856 18.1911C132.014 13.7421 139.101 13.72 142.319 18.1156C143.799 20.138 144.042 22.4848 143.923 24.9336V24.9349H132.098C132.37 26.2287 133.348 27.2401 134.63 27.5782C135.732 27.8681 137.354 27.8288 138.114 26.8679H143.674C143.504 27.3218 143.275 27.7564 143.014 28.1648C139.92 33.0134 132.333 33.3178 128.922 28.6492C126.802 25.7481 126.778 21.1206 128.856 18.1911ZM135.592 18.6638C133.734 18.6638 132.575 19.897 132.139 21.6027H138.92C138.664 19.8755 137.374 18.6638 135.592 18.6638Z" stroke="#E6E2DE" stroke-width="16" stroke-linejoin="round" mask="url(#path-4-outside-1_1115_3)"/>
<path fill-rule="evenodd" clip-rule="evenodd" d="M108.092 15.2698C112.611 15.2698 116.275 18.918 116.275 23.4185C116.275 27.919 112.611 31.5672 108.092 31.5673C103.573 31.5673 99.9096 27.9191 99.9096 23.4185C99.9096 18.918 103.573 15.2698 108.092 15.2698ZM108.082 19.4679C106.931 18.0481 104.765 19.2839 105.275 20.951C105.362 21.2339 105.591 21.439 105.609 21.7186C105.635 22.0979 105.301 23.2832 105.022 23.55C104.783 23.7781 104.268 23.8855 103.956 24.1145C102.124 25.4566 103.319 28.31 105.557 27.9591C105.945 27.8981 106.414 27.6608 106.694 27.3881C107.359 26.7412 107.498 25.7733 107.107 24.9453C106.892 24.4888 106.408 24.181 106.454 23.6138C106.47 23.4259 106.788 22.3142 106.897 22.218C106.965 22.1588 107.479 22.0636 107.679 21.9478C107.753 21.9041 107.916 21.7815 107.977 21.7206C108.132 21.5618 108.174 21.3076 108.422 21.2733C108.726 21.2321 109.573 21.2475 109.886 21.2895C110.838 21.4174 111.154 22.6107 112.334 22.1242C113.69 21.5654 113.216 19.4201 111.586 19.5994C111.192 19.6424 110.923 19.9364 110.574 20.059C110.097 20.2264 109.204 20.1988 108.701 20.1105C108.327 20.0444 108.274 19.7047 108.082 19.4679Z" stroke="#E6E2DE" stroke-width="16" stroke-linejoin="round" mask="url(#path-4-outside-1_1115_3)"/>
<path d="M123.725 11.2547V15.2659L123.726 15.2672H127.158V19.5453H123.726V26.6009C123.726 26.8566 124.107 27.2797 124.367 27.28H126.869V31.5581C125.569 31.5221 124.228 31.6742 122.956 31.3576C120.736 30.805 119.129 29.0111 118.931 26.7227V19.544H116.511L116.449 19.4828V15.2659H118.93V11.1928H123.663L123.725 11.2547Z" stroke="#E6E2DE" stroke-width="16" stroke-linejoin="round" mask="url(#path-4-outside-1_1115_3)"/>
<path d="M86.8715 18.2582L87.0995 17.3298C88.5815 14.2476 93.2009 15.0868 92.951 18.5902C92.7261 21.753 88.0768 22.3853 87.0179 19.2654L86.8715 18.7328V31.5608H82.0754V15.2698H86.8715V18.2582Z" stroke="#E6E2DE" stroke-width="16" stroke-linejoin="round" mask="url(#path-4-outside-1_1115_3)"/>
<path d="M98.4039 31.5608H93.6085V15.2698H98.4039V31.5608Z" stroke="#E6E2DE" stroke-width="16" stroke-linejoin="round" mask="url(#path-4-outside-1_1115_3)"/>
<path d="M166.206 17.1598C167.399 15.7046 169.002 14.9166 170.899 14.8557C175.034 14.7237 176.857 17.5651 177 21.3748L176.998 31.5588H172.244L172.245 22.4035C172.243 20.0946 170.539 18.7775 168.274 19.4431C167.209 19.7563 166.207 20.8979 166.207 22.0357V31.5588H161.411V9.63157H166.206V17.1598Z" stroke="#E6E2DE" stroke-width="16" stroke-linejoin="round" mask="url(#path-4-outside-1_1115_3)"/>
<path d="M96.0042 8C97.5156 8 98.7411 9.21909 98.7411 10.7228C98.7411 12.2264 97.5155 13.4455 96.0042 13.4455C94.493 13.4454 93.2681 12.2263 93.268 10.7228C93.268 9.21913 94.493 8.00006 96.0042 8Z" stroke="#E6E2DE" stroke-width="16" stroke-linejoin="round" mask="url(#path-4-outside-1_1115_3)"/>
</svg>
