<svg width="242" height="240" viewBox="0 0 242 240" fill="none" xmlns="http://www.w3.org/2000/svg">
<rect y="80" width="242" height="160" rx="12" fill="#E6E2DE"/>
<path d="M98.9376 151.624C98.9376 153.752 97.3696 155 94.8416 155H90.3456V143.512H94.6656C97.0816 143.512 98.5696 144.6 98.5696 146.568C98.5696 147.624 97.9776 148.472 96.9536 149C98.2336 149.448 98.9376 150.36 98.9376 151.624ZM94.4736 145.432H92.5536V148.104H94.4736C95.6576 148.104 96.2656 147.592 96.2656 146.76C96.2656 145.944 95.6576 145.432 94.4736 145.432ZM94.6496 150.04H92.5536V153.08H94.6496C95.9616 153.08 96.6496 152.504 96.6496 151.528C96.6496 150.616 95.9616 150.04 94.6496 150.04ZM102.577 150.856V155H100.353V146.456H102.401V148.104C103.025 147.016 104.353 146.36 105.729 146.36V148.664C103.841 148.52 102.577 148.968 102.577 150.856ZM109.3 144.472C109.3 145.224 108.692 145.784 107.812 145.784C106.948 145.784 106.34 145.224 106.34 144.472C106.34 143.688 106.948 143.128 107.812 143.128C108.692 143.128 109.3 143.688 109.3 144.472ZM108.948 155H106.724V146.456H108.948V155ZM114.543 155.16C112.063 155.16 110.207 153.208 110.207 150.728C110.207 148.232 112.063 146.296 114.543 146.296C117.023 146.296 118.879 148.232 118.879 150.728C118.879 153.208 117.023 155.16 114.543 155.16ZM114.543 153.192C115.647 153.192 116.591 152.312 116.591 150.728C116.591 149.144 115.647 148.28 114.543 148.28C113.439 148.28 112.495 149.144 112.495 150.728C112.495 152.312 113.439 153.192 114.543 153.192ZM125.294 152.84V154.776C124.75 155.048 124.238 155.16 123.582 155.16C121.822 155.16 120.718 154.152 120.718 152.232V148.36H118.99V146.456H120.718V143.928H122.926V146.456H125.374V148.36H122.926V151.72C122.926 152.712 123.374 153.112 124.174 153.112C124.59 153.112 124.974 153.016 125.294 152.84ZM130.097 155.144C127.537 155.144 125.825 153.368 125.825 150.696C125.825 148.152 127.601 146.296 130.065 146.296C132.769 146.296 134.561 148.488 134.161 151.272H128.097C128.241 152.664 128.913 153.432 130.049 153.432C131.025 153.432 131.681 152.952 131.937 152.104H134.145C133.665 154.04 132.177 155.144 130.097 155.144ZM130.017 147.928C128.977 147.928 128.321 148.6 128.129 149.864H131.809C131.745 148.68 131.073 147.928 130.017 147.928ZM138.934 155.16C136.47 155.16 134.774 153.336 134.774 150.728C134.774 148.168 136.534 146.296 138.934 146.296C141.158 146.296 142.806 147.8 143.078 150.104H140.742C140.63 148.968 139.942 148.264 138.934 148.264C137.782 148.264 137.046 149.208 137.046 150.728C137.046 152.264 137.766 153.192 138.934 153.192C139.958 153.192 140.614 152.52 140.742 151.352H143.078C142.822 153.704 141.222 155.16 138.934 155.16ZM146.57 150.344V155H144.346V143.512H146.57V147.576C147.162 146.792 147.898 146.296 149.018 146.296C150.73 146.296 151.914 147.416 151.914 149.48V155H149.706V150.232C149.706 148.968 149.21 148.264 148.202 148.264C147.322 148.264 146.57 148.968 146.57 150.344Z" fill="#1A1A1A"/>
<path d="M57.0649 172.116C57.0649 173.95 55.7209 175 53.6349 175H49.9529V164.948H53.4389C55.4689 164.948 56.6869 165.886 56.6869 167.58C56.6869 168.532 56.1129 169.344 55.1469 169.764C56.3929 170.114 57.0649 170.968 57.0649 172.116ZM53.3409 166.18H51.3669V169.204H53.3409C54.5589 169.204 55.2169 168.63 55.2169 167.692C55.2169 166.754 54.5589 166.18 53.3409 166.18ZM53.5369 170.436H51.3669V173.768H53.5369C54.8529 173.768 55.5949 173.138 55.5949 172.074C55.5949 171.052 54.8529 170.436 53.5369 170.436ZM59.8616 171.206V175H58.4476V167.58H59.7636V169.148C60.2816 168.126 61.4016 167.482 62.6196 167.482V168.952C61.0236 168.868 59.8616 169.568 59.8616 171.206ZM67.9526 175V173.852C67.4906 174.678 66.6646 175.14 65.5726 175.14C64.0326 175.14 63.0246 174.258 63.0246 172.9C63.0246 171.444 64.1866 170.688 66.3986 170.688C66.8326 170.688 67.1826 170.702 67.7846 170.772V170.226C67.7846 169.162 67.2106 168.56 66.2306 168.56C65.1946 168.56 64.5646 169.176 64.5226 170.212H63.2346C63.3046 168.546 64.4946 167.44 66.2306 167.44C68.0646 167.44 69.1286 168.476 69.1286 170.24V175H67.9526ZM64.3686 172.858C64.3686 173.628 64.9426 174.132 65.8526 174.132C67.0426 174.132 67.7846 173.39 67.7846 172.256V171.654C67.2386 171.584 66.8466 171.57 66.4826 171.57C65.0686 171.57 64.3686 171.99 64.3686 172.858ZM72.1532 170.814V175H70.7392V167.58H72.0552V168.812C72.5592 167.986 73.3992 167.44 74.4212 167.44C75.9472 167.44 76.9552 168.42 76.9552 170.198V175H75.5412V170.674C75.5412 169.4 74.9812 168.686 73.9312 168.686C72.9652 168.686 72.1532 169.498 72.1532 170.814ZM78.0209 171.29C78.0209 169.036 79.3089 167.44 81.3109 167.44C82.3049 167.44 83.1729 167.944 83.6909 168.854V164.948H85.1049V175H83.7889V173.67C83.2569 174.608 82.3609 175.14 81.3109 175.14C79.3089 175.14 78.0209 173.516 78.0209 171.29ZM79.4909 171.29C79.4909 172.942 80.3589 173.88 81.5909 173.88C82.7949 173.88 83.6909 172.9 83.6909 171.262C83.6909 169.596 82.7669 168.686 81.5909 168.686C80.3589 168.686 79.4909 169.61 79.4909 171.29ZM92.7263 175H89.5483V164.948H92.7263C95.9323 164.948 97.7803 166.992 97.7803 169.932C97.7803 172.83 95.8623 175 92.7263 175ZM91.0883 166.278V173.67H92.6563C94.9663 173.67 96.2123 172.242 96.2123 169.932C96.2123 167.664 94.9803 166.278 92.6563 166.278H91.0883ZM102.052 175.14C99.91 175.14 98.468 173.586 98.468 171.248C98.468 169.05 99.966 167.44 102.01 167.44C104.222 167.44 105.692 169.232 105.44 171.64H99.91C100.022 173.152 100.778 174.034 102.024 174.034C103.074 174.034 103.802 173.46 104.04 172.494H105.44C105.076 174.146 103.802 175.14 102.052 175.14ZM101.982 168.504C100.848 168.504 100.078 169.316 99.924 170.702H103.942C103.872 169.33 103.13 168.504 101.982 168.504ZM109.453 175.154C107.423 175.154 105.995 173.558 105.995 171.29C105.995 169.05 107.451 167.44 109.453 167.44C111.287 167.44 112.617 168.658 112.883 170.59H111.399C111.245 169.4 110.503 168.686 109.467 168.686C108.249 168.686 107.451 169.722 107.451 171.29C107.451 172.872 108.249 173.894 109.467 173.894C110.517 173.894 111.245 173.194 111.413 171.99H112.883C112.631 173.95 111.315 175.154 109.453 175.154ZM115.44 175H114.026V164.948H115.44V170.898L118.618 167.58H120.284L116.854 171.178L120.606 175H118.786L115.44 171.486V175ZM123.238 174.398C123.238 175.728 122.188 176.764 120.648 176.792V175.994C121.558 175.966 122.174 175.476 122.258 174.79C122.132 174.832 122.048 174.846 121.95 174.846C121.418 174.846 121.026 174.412 121.026 173.894C121.026 173.292 121.474 172.9 122.048 172.9C122.818 172.9 123.238 173.46 123.238 174.398ZM130.921 171.5H128.975V175H127.435V164.948H130.921C133.175 164.948 134.631 166.096 134.631 168.196C134.631 170.31 133.175 171.5 130.921 171.5ZM130.907 166.25H128.975V170.198H130.907C132.265 170.198 133.091 169.456 133.091 168.21C133.091 166.964 132.265 166.25 130.907 166.25ZM137.501 165.858C137.501 166.39 137.081 166.796 136.479 166.796C135.877 166.796 135.443 166.39 135.443 165.858C135.443 165.312 135.877 164.92 136.479 164.92C137.081 164.92 137.501 165.312 137.501 165.858ZM137.193 175H135.779V167.58H137.193V175ZM143.062 173.628V174.874C142.628 175.07 142.25 175.14 141.802 175.14C140.43 175.14 139.478 174.398 139.478 172.76V168.784H137.84V167.58H139.478V165.382H140.892V167.58H143.132V168.784H140.892V172.438C140.892 173.46 141.382 173.824 142.138 173.824C142.474 173.824 142.768 173.768 143.062 173.628ZM146.922 175.154C144.892 175.154 143.464 173.558 143.464 171.29C143.464 169.05 144.92 167.44 146.922 167.44C148.756 167.44 150.086 168.658 150.352 170.59H148.868C148.714 169.4 147.972 168.686 146.936 168.686C145.718 168.686 144.92 169.722 144.92 171.29C144.92 172.872 145.718 173.894 146.936 173.894C147.986 173.894 148.714 173.194 148.882 171.99H150.352C150.1 173.95 148.784 175.154 146.922 175.154ZM152.91 170.814V175H151.496V164.948H152.91V168.77C153.4 167.972 154.156 167.44 155.178 167.44C156.704 167.44 157.712 168.42 157.712 170.198V175H156.298V170.674C156.298 169.4 155.738 168.686 154.688 168.686C153.722 168.686 152.91 169.498 152.91 170.814ZM165.245 175H162.067V164.948H165.245C168.451 164.948 170.299 166.992 170.299 169.932C170.299 172.83 168.381 175 165.245 175ZM163.607 166.278V173.67H165.175C167.485 173.67 168.731 172.242 168.731 169.932C168.731 167.664 167.499 166.278 165.175 166.278H163.607ZM174.571 175.14C172.429 175.14 170.987 173.586 170.987 171.248C170.987 169.05 172.485 167.44 174.529 167.44C176.741 167.44 178.211 169.232 177.959 171.64H172.429C172.541 173.152 173.297 174.034 174.543 174.034C175.593 174.034 176.321 173.46 176.559 172.494H177.959C177.595 174.146 176.321 175.14 174.571 175.14ZM174.501 168.504C173.367 168.504 172.597 169.316 172.443 170.702H176.461C176.391 169.33 175.649 168.504 174.501 168.504ZM181.972 175.154C179.942 175.154 178.514 173.558 178.514 171.29C178.514 169.05 179.97 167.44 181.972 167.44C183.806 167.44 185.136 168.658 185.402 170.59H183.918C183.764 169.4 183.022 168.686 181.986 168.686C180.768 168.686 179.97 169.722 179.97 171.29C179.97 172.872 180.768 173.894 181.986 173.894C183.036 173.894 183.764 173.194 183.932 171.99H185.402C185.15 173.95 183.834 175.154 181.972 175.154ZM187.959 175H186.545V164.948H187.959V170.898L191.137 167.58H192.803L189.373 171.178L193.125 175H191.305L187.959 171.486V175ZM66.1706 189.116C66.1706 190.95 64.8266 192 62.7406 192H59.0586V181.948H62.5446C64.5746 181.948 65.7926 182.886 65.7926 184.58C65.7926 185.532 65.2186 186.344 64.2526 186.764C65.4986 187.114 66.1706 187.968 66.1706 189.116ZM62.4466 183.18H60.4726V186.204H62.4466C63.6646 186.204 64.3226 185.63 64.3226 184.692C64.3226 183.754 63.6646 183.18 62.4466 183.18ZM62.6426 187.436H60.4726V190.768H62.6426C63.9586 190.768 64.7006 190.138 64.7006 189.074C64.7006 188.052 63.9586 187.436 62.6426 187.436ZM68.9674 188.206V192H67.5534V184.58H68.8694V186.148C69.3874 185.126 70.5074 184.482 71.7254 184.482V185.952C70.1294 185.868 68.9674 186.568 68.9674 188.206ZM77.0584 192V190.852C76.5964 191.678 75.7704 192.14 74.6784 192.14C73.1384 192.14 72.1304 191.258 72.1304 189.9C72.1304 188.444 73.2924 187.688 75.5044 187.688C75.9384 187.688 76.2884 187.702 76.8904 187.772V187.226C76.8904 186.162 76.3164 185.56 75.3364 185.56C74.3004 185.56 73.6704 186.176 73.6284 187.212H72.3404C72.4104 185.546 73.6004 184.44 75.3364 184.44C77.1704 184.44 78.2344 185.476 78.2344 187.24V192H77.0584ZM73.4744 189.858C73.4744 190.628 74.0484 191.132 74.9584 191.132C76.1484 191.132 76.8904 190.39 76.8904 189.256V188.654C76.3444 188.584 75.9524 188.57 75.5884 188.57C74.1744 188.57 73.4744 188.99 73.4744 189.858ZM81.2589 187.814V192H79.8449V184.58H81.1609V185.812C81.6649 184.986 82.5049 184.44 83.5269 184.44C85.0529 184.44 86.0609 185.42 86.0609 187.198V192H84.6469V187.674C84.6469 186.4 84.0869 185.686 83.0369 185.686C82.0709 185.686 81.2589 186.498 81.2589 187.814ZM87.1267 188.29C87.1267 186.036 88.4147 184.44 90.4167 184.44C91.4107 184.44 92.2787 184.944 92.7967 185.854V181.948H94.2107V192H92.8947V190.67C92.3627 191.608 91.4667 192.14 90.4167 192.14C88.4147 192.14 87.1267 190.516 87.1267 188.29ZM88.5967 188.29C88.5967 189.942 89.4647 190.88 90.6967 190.88C91.9007 190.88 92.7967 189.9 92.7967 188.262C92.7967 186.596 91.8727 185.686 90.6967 185.686C89.4647 185.686 88.5967 186.61 88.5967 188.29ZM97.6182 182.858C97.6182 183.39 97.1982 183.796 96.5962 183.796C95.9942 183.796 95.5602 183.39 95.5602 182.858C95.5602 182.312 95.9942 181.92 96.5962 181.92C97.1982 181.92 97.6182 182.312 97.6182 182.858ZM97.3102 192H95.8962V184.58H97.3102V192ZM100.407 187.814V192H98.9932V184.58H100.309V185.812C100.813 184.986 101.653 184.44 102.675 184.44C104.201 184.44 105.209 185.42 105.209 187.198V192H103.795V187.674C103.795 186.4 103.235 185.686 102.185 185.686C101.219 185.686 100.407 186.498 100.407 187.814ZM109.775 194.856C107.829 194.856 106.569 193.82 106.485 192.14H107.857C107.941 193.176 108.613 193.736 109.761 193.736C111.035 193.736 111.707 193.05 111.707 191.776V190.432C111.287 191.328 110.447 191.846 109.439 191.846C107.591 191.846 106.275 190.32 106.275 188.136C106.275 185.924 107.535 184.44 109.397 184.44C110.461 184.44 111.301 184.958 111.805 185.896V184.58H113.121V191.748C113.121 193.694 111.875 194.856 109.775 194.856ZM107.703 188.136C107.703 189.676 108.459 190.614 109.691 190.614C110.895 190.614 111.707 189.648 111.707 188.178C111.707 186.638 110.909 185.658 109.691 185.658C108.473 185.658 107.703 186.61 107.703 188.136ZM121.938 192.21C119.138 192.21 116.968 189.928 116.968 186.96C116.968 184.006 119.138 181.738 121.938 181.738C124.458 181.738 126.474 183.418 126.852 185.896H125.214C124.934 184.272 123.618 183.124 121.952 183.124C119.964 183.124 118.564 184.734 118.564 186.96C118.564 189.214 119.964 190.824 121.952 190.824C123.618 190.824 124.934 189.662 125.214 188.038H126.852C126.474 190.53 124.458 192.21 121.938 192.21ZM131.169 192.14C129.069 192.14 127.529 190.488 127.529 188.29C127.529 186.092 129.069 184.44 131.169 184.44C133.269 184.44 134.809 186.092 134.809 188.29C134.809 190.488 133.269 192.14 131.169 192.14ZM131.169 190.894C132.387 190.894 133.353 189.914 133.353 188.29C133.353 186.666 132.387 185.7 131.169 185.7C129.951 185.7 128.999 186.666 128.999 188.29C128.999 189.914 129.951 190.894 131.169 190.894ZM137.398 192H135.97V181.948H137.398V192ZM140.509 192H139.081V181.948H140.509V192ZM146.685 192V190.852C146.223 191.678 145.397 192.14 144.305 192.14C142.765 192.14 141.757 191.258 141.757 189.9C141.757 188.444 142.919 187.688 145.131 187.688C145.565 187.688 145.915 187.702 146.517 187.772V187.226C146.517 186.162 145.943 185.56 144.963 185.56C143.927 185.56 143.297 186.176 143.255 187.212H141.967C142.037 185.546 143.227 184.44 144.963 184.44C146.797 184.44 147.861 185.476 147.861 187.24V192H146.685ZM143.101 189.858C143.101 190.628 143.675 191.132 144.585 191.132C145.775 191.132 146.517 190.39 146.517 189.256V188.654C145.971 188.584 145.579 188.57 145.215 188.57C143.801 188.57 143.101 188.99 143.101 189.858ZM153.59 190.628V191.874C153.156 192.07 152.778 192.14 152.33 192.14C150.958 192.14 150.006 191.398 150.006 189.76V185.784H148.368V184.58H150.006V182.382H151.42V184.58H153.66V185.784H151.42V189.438C151.42 190.46 151.91 190.824 152.666 190.824C153.002 190.824 153.296 190.768 153.59 190.628ZM157.576 192.14C155.434 192.14 153.992 190.586 153.992 188.248C153.992 186.05 155.49 184.44 157.534 184.44C159.746 184.44 161.216 186.232 160.964 188.64H155.434C155.546 190.152 156.302 191.034 157.548 191.034C158.598 191.034 159.326 190.46 159.564 189.494H160.964C160.6 191.146 159.326 192.14 157.576 192.14ZM157.506 185.504C156.372 185.504 155.602 186.316 155.448 187.702H159.466C159.396 186.33 158.654 185.504 157.506 185.504ZM163.601 188.206V192H162.187V184.58H163.503V186.148C164.021 185.126 165.141 184.482 166.359 184.482V185.952C164.763 185.868 163.601 186.568 163.601 188.206ZM171.692 192V190.852C171.23 191.678 170.404 192.14 169.312 192.14C167.772 192.14 166.764 191.258 166.764 189.9C166.764 188.444 167.926 187.688 170.138 187.688C170.572 187.688 170.922 187.702 171.524 187.772V187.226C171.524 186.162 170.95 185.56 169.97 185.56C168.934 185.56 168.304 186.176 168.262 187.212H166.974C167.044 185.546 168.234 184.44 169.97 184.44C171.804 184.44 172.868 185.476 172.868 187.24V192H171.692ZM168.108 189.858C168.108 190.628 168.682 191.132 169.592 191.132C170.782 191.132 171.524 190.39 171.524 189.256V188.654C170.978 188.584 170.586 188.57 170.222 188.57C168.808 188.57 168.108 188.99 168.108 189.858ZM175.907 192H174.479V181.948H175.907V192ZM183.47 189.788C183.47 191.244 182.336 192.14 180.362 192.14C178.402 192.14 177.24 191.174 177.1 189.578H178.458C178.514 190.502 179.256 191.076 180.39 191.076C181.384 191.076 182.042 190.726 182.042 190.026C182.042 189.41 181.664 189.144 180.74 188.962L179.536 188.738C178.164 188.472 177.394 187.772 177.394 186.652C177.394 185.35 178.528 184.44 180.25 184.44C182.028 184.44 183.232 185.392 183.358 186.918H182C181.916 186.022 181.258 185.504 180.264 185.504C179.368 185.504 178.766 185.882 178.766 186.526C178.766 187.128 179.144 187.408 180.04 187.576L181.3 187.814C182.77 188.08 183.47 188.724 183.47 189.788Z" fill="#1A1A1A"/>
<mask id="path-4-outside-1_1195_228" maskUnits="userSpaceOnUse" x="56" y="60" width="129" height="40" fill="black">
<rect fill="white" x="56" y="60" width="129" height="40"/>
<path d="M144.636 81.436C145.522 76.8044 149.864 74.1225 154.464 74.9924C157.644 75.5939 160.139 77.9702 160.865 81.1086H155.676C155.195 80.1528 154.293 79.4079 153.191 79.3031C150.09 79.0088 149.144 81.8851 149.506 84.4498C149.786 86.4285 151.122 87.7084 153.195 87.5248C154.439 87.4141 155.189 86.4763 155.676 85.4277H160.865C160.161 89.0487 157.187 91.6772 153.484 91.969C147.349 92.452 143.529 87.2211 144.636 81.436Z"/>
<path fill-rule="evenodd" clip-rule="evenodd" d="M68.7948 76.8734C69.7762 75.8514 71.0155 75.1855 72.425 74.9521C77.0106 74.1901 80.5547 77.1993 81.2337 81.632C81.792 85.2736 80.7059 89.3382 77.2577 91.1564C74.5919 92.5618 70.8691 92.2374 68.7961 89.9559V91.5608H64V69.6329H68.7948V76.8734ZM76.1258 85.1341C77.2485 81.8271 75.0875 78.4202 71.3585 79.4438C68.5273 80.222 67.9913 84.5981 69.8437 86.485V86.4864C71.6884 88.3662 75.2434 87.7312 76.1258 85.1341Z"/>
<path fill-rule="evenodd" clip-rule="evenodd" d="M128.856 78.1911C132.014 73.7421 139.101 73.72 142.319 78.1156C143.799 80.138 144.042 82.4848 143.923 84.9336V84.9349H132.098C132.37 86.2287 133.348 87.2401 134.63 87.5782C135.732 87.8681 137.354 87.8288 138.114 86.8679H143.674C143.504 87.3218 143.275 87.7564 143.014 88.1648C139.92 93.0134 132.333 93.3178 128.922 88.6492C126.802 85.7481 126.778 81.1206 128.856 78.1911ZM135.592 78.6638C133.734 78.6638 132.575 79.897 132.139 81.6027H138.92C138.664 79.8755 137.374 78.6638 135.592 78.6638Z"/>
<path fill-rule="evenodd" clip-rule="evenodd" d="M108.092 75.2698C112.611 75.2698 116.275 78.918 116.275 83.4185C116.275 87.919 112.611 91.5672 108.092 91.5673C103.573 91.5673 99.9096 87.9191 99.9096 83.4185C99.9096 78.918 103.573 75.2698 108.092 75.2698ZM108.082 79.4679C106.931 78.0481 104.765 79.2839 105.275 80.951C105.362 81.2339 105.591 81.439 105.609 81.7186C105.635 82.0979 105.301 83.2832 105.022 83.55C104.783 83.7781 104.268 83.8855 103.956 84.1145C102.124 85.4566 103.319 88.31 105.557 87.9591C105.945 87.8981 106.414 87.6608 106.694 87.3881C107.359 86.7412 107.498 85.7733 107.107 84.9453C106.892 84.4888 106.408 84.181 106.454 83.6138C106.47 83.4259 106.788 82.3142 106.897 82.218C106.965 82.1588 107.479 82.0636 107.679 81.9478C107.753 81.9041 107.916 81.7815 107.977 81.7206C108.132 81.5618 108.174 81.3076 108.422 81.2733C108.726 81.2321 109.573 81.2475 109.886 81.2895C110.838 81.4174 111.154 82.6107 112.334 82.1242C113.69 81.5654 113.216 79.4201 111.586 79.5994C111.192 79.6424 110.923 79.9364 110.574 80.059C110.097 80.2264 109.204 80.1988 108.701 80.1105C108.327 80.0444 108.274 79.7047 108.082 79.4679Z"/>
<path d="M123.725 71.2547V75.2659L123.726 75.2672H127.158V79.5453H123.726V86.6009C123.726 86.8566 124.107 87.2797 124.367 87.28H126.869V91.5581C125.569 91.5221 124.228 91.6742 122.956 91.3576C120.736 90.805 119.129 89.0111 118.931 86.7227V79.544H116.511L116.449 79.4828V75.2659H118.93V71.1928H123.663L123.725 71.2547Z"/>
<path d="M86.8715 78.2582L87.0995 77.3298C88.5815 74.2476 93.2009 75.0868 92.9511 78.5902C92.7261 81.753 88.0768 82.3853 87.0179 79.2654L86.8715 78.7328V91.5608H82.0754V75.2698H86.8715V78.2582Z"/>
<path d="M98.4039 91.5608H93.6085V75.2698H98.4039V91.5608Z"/>
<path d="M166.206 77.1598C167.399 75.7046 169.002 74.9166 170.899 74.8557C175.034 74.7237 176.857 77.5651 177 81.3748L176.998 91.5588H172.244L172.245 82.4035C172.243 80.0946 170.539 78.7775 168.274 79.4431C167.209 79.7563 166.207 80.8979 166.207 82.0357V91.5588H161.411V69.6316H166.206V77.1598Z"/>
<path d="M96.0042 68C97.5156 68 98.7411 69.2191 98.7411 70.7228C98.7411 72.2264 97.5155 73.4455 96.0042 73.4455C94.493 73.4454 93.2681 72.2263 93.268 70.7228C93.268 69.2191 94.493 68.0001 96.0042 68Z"/>
</mask>
<path d="M144.636 81.436C145.522 76.8044 149.864 74.1225 154.464 74.9924C157.644 75.5939 160.139 77.9702 160.865 81.1086H155.676C155.195 80.1528 154.293 79.4079 153.191 79.3031C150.09 79.0088 149.144 81.8851 149.506 84.4498C149.786 86.4285 151.122 87.7084 153.195 87.5248C154.439 87.4141 155.189 86.4763 155.676 85.4277H160.865C160.161 89.0487 157.187 91.6772 153.484 91.969C147.349 92.452 143.529 87.2211 144.636 81.436Z" fill="#1A1A1A"/>
<path fill-rule="evenodd" clip-rule="evenodd" d="M68.7948 76.8734C69.7762 75.8514 71.0155 75.1855 72.425 74.9521C77.0106 74.1901 80.5547 77.1993 81.2337 81.632C81.792 85.2736 80.7059 89.3382 77.2577 91.1564C74.5919 92.5618 70.8691 92.2374 68.7961 89.9559V91.5608H64V69.6329H68.7948V76.8734ZM76.1258 85.1341C77.2485 81.8271 75.0875 78.4202 71.3585 79.4438C68.5273 80.222 67.9913 84.5981 69.8437 86.485V86.4864C71.6884 88.3662 75.2434 87.7312 76.1258 85.1341Z" fill="#1A1A1A"/>
<path fill-rule="evenodd" clip-rule="evenodd" d="M128.856 78.1911C132.014 73.7421 139.101 73.72 142.319 78.1156C143.799 80.138 144.042 82.4848 143.923 84.9336V84.9349H132.098C132.37 86.2287 133.348 87.2401 134.63 87.5782C135.732 87.8681 137.354 87.8288 138.114 86.8679H143.674C143.504 87.3218 143.275 87.7564 143.014 88.1648C139.92 93.0134 132.333 93.3178 128.922 88.6492C126.802 85.7481 126.778 81.1206 128.856 78.1911ZM135.592 78.6638C133.734 78.6638 132.575 79.897 132.139 81.6027H138.92C138.664 79.8755 137.374 78.6638 135.592 78.6638Z" fill="#1A1A1A"/>
<path fill-rule="evenodd" clip-rule="evenodd" d="M108.092 75.2698C112.611 75.2698 116.275 78.918 116.275 83.4185C116.275 87.919 112.611 91.5672 108.092 91.5673C103.573 91.5673 99.9096 87.9191 99.9096 83.4185C99.9096 78.918 103.573 75.2698 108.092 75.2698ZM108.082 79.4679C106.931 78.0481 104.765 79.2839 105.275 80.951C105.362 81.2339 105.591 81.439 105.609 81.7186C105.635 82.0979 105.301 83.2832 105.022 83.55C104.783 83.7781 104.268 83.8855 103.956 84.1145C102.124 85.4566 103.319 88.31 105.557 87.9591C105.945 87.8981 106.414 87.6608 106.694 87.3881C107.359 86.7412 107.498 85.7733 107.107 84.9453C106.892 84.4888 106.408 84.181 106.454 83.6138C106.47 83.4259 106.788 82.3142 106.897 82.218C106.965 82.1588 107.479 82.0636 107.679 81.9478C107.753 81.9041 107.916 81.7815 107.977 81.7206C108.132 81.5618 108.174 81.3076 108.422 81.2733C108.726 81.2321 109.573 81.2475 109.886 81.2895C110.838 81.4174 111.154 82.6107 112.334 82.1242C113.69 81.5654 113.216 79.4201 111.586 79.5994C111.192 79.6424 110.923 79.9364 110.574 80.059C110.097 80.2264 109.204 80.1988 108.701 80.1105C108.327 80.0444 108.274 79.7047 108.082 79.4679Z" fill="#1A1A1A"/>
<path d="M123.725 71.2547V75.2659L123.726 75.2672H127.158V79.5453H123.726V86.6009C123.726 86.8566 124.107 87.2797 124.367 87.28H126.869V91.5581C125.569 91.5221 124.228 91.6742 122.956 91.3576C120.736 90.805 119.129 89.0111 118.931 86.7227V79.544H116.511L116.449 79.4828V75.2659H118.93V71.1928H123.663L123.725 71.2547Z" fill="#1A1A1A"/>
<path d="M86.8715 78.2582L87.0995 77.3298C88.5815 74.2476 93.2009 75.0868 92.9511 78.5902C92.7261 81.753 88.0768 82.3853 87.0179 79.2654L86.8715 78.7328V91.5608H82.0754V75.2698H86.8715V78.2582Z" fill="#1A1A1A"/>
<path d="M98.4039 91.5608H93.6085V75.2698H98.4039V91.5608Z" fill="#1A1A1A"/>
<path d="M166.206 77.1598C167.399 75.7046 169.002 74.9166 170.899 74.8557C175.034 74.7237 176.857 77.5651 177 81.3748L176.998 91.5588H172.244L172.245 82.4035C172.243 80.0946 170.539 78.7775 168.274 79.4431C167.209 79.7563 166.207 80.8979 166.207 82.0357V91.5588H161.411V69.6316H166.206V77.1598Z" fill="#1A1A1A"/>
<path d="M96.0042 68C97.5156 68 98.7411 69.2191 98.7411 70.7228C98.7411 72.2264 97.5155 73.4455 96.0042 73.4455C94.493 73.4454 93.2681 72.2263 93.268 70.7228C93.268 69.2191 94.493 68.0001 96.0042 68Z" fill="#1A1A1A"/>
<path d="M144.636 81.436C145.522 76.8044 149.864 74.1225 154.464 74.9924C157.644 75.5939 160.139 77.9702 160.865 81.1086H155.676C155.195 80.1528 154.293 79.4079 153.191 79.3031C150.09 79.0088 149.144 81.8851 149.506 84.4498C149.786 86.4285 151.122 87.7084 153.195 87.5248C154.439 87.4141 155.189 86.4763 155.676 85.4277H160.865C160.161 89.0487 157.187 91.6772 153.484 91.969C147.349 92.452 143.529 87.2211 144.636 81.436Z" stroke="#E6E2DE" stroke-width="16" stroke-linejoin="round" mask="url(#path-4-outside-1_1195_228)"/>
<path fill-rule="evenodd" clip-rule="evenodd" d="M68.7948 76.8734C69.7762 75.8514 71.0155 75.1855 72.425 74.9521C77.0106 74.1901 80.5547 77.1993 81.2337 81.632C81.792 85.2736 80.7059 89.3382 77.2577 91.1564C74.5919 92.5618 70.8691 92.2374 68.7961 89.9559V91.5608H64V69.6329H68.7948V76.8734ZM76.1258 85.1341C77.2485 81.8271 75.0875 78.4202 71.3585 79.4438C68.5273 80.222 67.9913 84.5981 69.8437 86.485V86.4864C71.6884 88.3662 75.2434 87.7312 76.1258 85.1341Z" stroke="#E6E2DE" stroke-width="16" stroke-linejoin="round" mask="url(#path-4-outside-1_1195_228)"/>
<path fill-rule="evenodd" clip-rule="evenodd" d="M128.856 78.1911C132.014 73.7421 139.101 73.72 142.319 78.1156C143.799 80.138 144.042 82.4848 143.923 84.9336V84.9349H132.098C132.37 86.2287 133.348 87.2401 134.63 87.5782C135.732 87.8681 137.354 87.8288 138.114 86.8679H143.674C143.504 87.3218 143.275 87.7564 143.014 88.1648C139.92 93.0134 132.333 93.3178 128.922 88.6492C126.802 85.7481 126.778 81.1206 128.856 78.1911ZM135.592 78.6638C133.734 78.6638 132.575 79.897 132.139 81.6027H138.92C138.664 79.8755 137.374 78.6638 135.592 78.6638Z" stroke="#E6E2DE" stroke-width="16" stroke-linejoin="round" mask="url(#path-4-outside-1_1195_228)"/>
<path fill-rule="evenodd" clip-rule="evenodd" d="M108.092 75.2698C112.611 75.2698 116.275 78.918 116.275 83.4185C116.275 87.919 112.611 91.5672 108.092 91.5673C103.573 91.5673 99.9096 87.9191 99.9096 83.4185C99.9096 78.918 103.573 75.2698 108.092 75.2698ZM108.082 79.4679C106.931 78.0481 104.765 79.2839 105.275 80.951C105.362 81.2339 105.591 81.439 105.609 81.7186C105.635 82.0979 105.301 83.2832 105.022 83.55C104.783 83.7781 104.268 83.8855 103.956 84.1145C102.124 85.4566 103.319 88.31 105.557 87.9591C105.945 87.8981 106.414 87.6608 106.694 87.3881C107.359 86.7412 107.498 85.7733 107.107 84.9453C106.892 84.4888 106.408 84.181 106.454 83.6138C106.47 83.4259 106.788 82.3142 106.897 82.218C106.965 82.1588 107.479 82.0636 107.679 81.9478C107.753 81.9041 107.916 81.7815 107.977 81.7206C108.132 81.5618 108.174 81.3076 108.422 81.2733C108.726 81.2321 109.573 81.2475 109.886 81.2895C110.838 81.4174 111.154 82.6107 112.334 82.1242C113.69 81.5654 113.216 79.4201 111.586 79.5994C111.192 79.6424 110.923 79.9364 110.574 80.059C110.097 80.2264 109.204 80.1988 108.701 80.1105C108.327 80.0444 108.274 79.7047 108.082 79.4679Z" stroke="#E6E2DE" stroke-width="16" stroke-linejoin="round" mask="url(#path-4-outside-1_1195_228)"/>
<path d="M123.725 71.2547V75.2659L123.726 75.2672H127.158V79.5453H123.726V86.6009C123.726 86.8566 124.107 87.2797 124.367 87.28H126.869V91.5581C125.569 91.5221 124.228 91.6742 122.956 91.3576C120.736 90.805 119.129 89.0111 118.931 86.7227V79.544H116.511L116.449 79.4828V75.2659H118.93V71.1928H123.663L123.725 71.2547Z" stroke="#E6E2DE" stroke-width="16" stroke-linejoin="round" mask="url(#path-4-outside-1_1195_228)"/>
<path d="M86.8715 78.2582L87.0995 77.3298C88.5815 74.2476 93.2009 75.0868 92.9511 78.5902C92.7261 81.753 88.0768 82.3853 87.0179 79.2654L86.8715 78.7328V91.5608H82.0754V75.2698H86.8715V78.2582Z" stroke="#E6E2DE" stroke-width="16" stroke-linejoin="round" mask="url(#path-4-outside-1_1195_228)"/>
<path d="M98.4039 91.5608H93.6085V75.2698H98.4039V91.5608Z" stroke="#E6E2DE" stroke-width="16" stroke-linejoin="round" mask="url(#path-4-outside-1_1195_228)"/>
<path d="M166.206 77.1598C167.399 75.7046 169.002 74.9166 170.899 74.8557C175.034 74.7237 176.857 77.5651 177 81.3748L176.998 91.5588H172.244L172.245 82.4035C172.243 80.0946 170.539 78.7775 168.274 79.4431C167.209 79.7563 166.207 80.8979 166.207 82.0357V91.5588H161.411V69.6316H166.206V77.1598Z" stroke="#E6E2DE" stroke-width="16" stroke-linejoin="round" mask="url(#path-4-outside-1_1195_228)"/>
<path d="M96.0042 68C97.5156 68 98.7411 69.2191 98.7411 70.7228C98.7411 72.2264 97.5155 73.4455 96.0042 73.4455C94.493 73.4454 93.2681 72.2263 93.268 70.7228C93.268 69.2191 94.493 68.0001 96.0042 68Z" stroke="#E6E2DE" stroke-width="16" stroke-linejoin="round" mask="url(#path-4-outside-1_1195_228)"/>
</svg>
