<svg width="242" height="180" viewBox="0 0 242 180" fill="none" xmlns="http://www.w3.org/2000/svg">
<rect y="20" width="242" height="160" rx="12" fill="#E6E2DE"/>
<path d="M108.487 95.24C105.255 95.24 102.727 92.616 102.727 89.24C102.727 85.88 105.255 83.272 108.487 83.272C111.511 83.272 113.879 85.288 114.279 88.232H111.703C111.431 86.584 110.151 85.448 108.519 85.448C106.551 85.448 105.223 87 105.223 89.24C105.223 91.496 106.551 93.064 108.519 93.064C110.151 93.064 111.415 91.912 111.703 90.264H114.279C113.879 93.24 111.511 95.24 108.487 95.24ZM120.905 95.24C117.673 95.24 115.145 92.616 115.145 89.24C115.145 85.88 117.673 83.272 120.905 83.272C123.929 83.272 126.297 85.288 126.697 88.232H124.121C123.849 86.584 122.569 85.448 120.937 85.448C118.969 85.448 117.641 87 117.641 89.24C117.641 91.496 118.969 93.064 120.937 93.064C122.569 93.064 123.833 91.912 124.121 90.264H126.697C126.297 93.24 123.929 95.24 120.905 95.24ZM133.483 95.24C130.155 95.24 127.563 92.76 127.563 89.208C127.563 85.816 130.027 83.272 133.387 83.272C136.299 83.272 138.379 85 139.131 87.496H136.267C135.915 86.328 134.859 85.448 133.323 85.448C131.467 85.448 130.059 86.808 130.059 89.272C130.059 91.48 131.291 93.176 133.595 93.176C135.291 93.176 136.363 92.168 136.683 90.744H133.355V88.808H139.275C139.419 92.552 137.147 95.24 133.483 95.24Z" fill="#1A1A1A"/>
<path d="M81.0182 115L78.8902 107.118L76.7482 115H75.1662L72.5482 104.948H74.0602L75.9922 112.69L78.1062 104.948H79.7022L81.7882 112.704L83.7202 104.948H85.2322L82.6142 115H81.0182ZM88.6394 115.14C86.4974 115.14 85.0554 113.586 85.0554 111.248C85.0554 109.05 86.5534 107.44 88.5974 107.44C90.8094 107.44 92.2794 109.232 92.0274 111.64H86.4974C86.6094 113.152 87.3654 114.034 88.6114 114.034C89.6614 114.034 90.3894 113.46 90.6274 112.494H92.0274C91.6634 114.146 90.3894 115.14 88.6394 115.14ZM88.5694 108.504C87.4354 108.504 86.6654 109.316 86.5114 110.702H90.5294C90.4594 109.33 89.7174 108.504 88.5694 108.504ZM100.335 111.29C100.335 113.516 99.0467 115.14 97.0447 115.14C95.9947 115.14 95.0987 114.608 94.5667 113.67V115H93.2507V104.948H94.6647V108.854C95.1827 107.944 96.0367 107.44 97.0447 107.44C99.0327 107.44 100.335 109.036 100.335 111.29ZM98.8647 111.29C98.8647 109.61 97.9827 108.686 96.7647 108.686C95.5887 108.686 94.6647 109.596 94.6647 111.262C94.6647 112.9 95.5607 113.88 96.7647 113.88C97.9827 113.88 98.8647 112.942 98.8647 111.29ZM107.368 112.788C107.368 114.244 106.234 115.14 104.26 115.14C102.3 115.14 101.138 114.174 100.998 112.578H102.356C102.412 113.502 103.154 114.076 104.288 114.076C105.282 114.076 105.94 113.726 105.94 113.026C105.94 112.41 105.562 112.144 104.638 111.962L103.434 111.738C102.062 111.472 101.292 110.772 101.292 109.652C101.292 108.35 102.426 107.44 104.148 107.44C105.926 107.44 107.13 108.392 107.256 109.918H105.898C105.814 109.022 105.156 108.504 104.162 108.504C103.266 108.504 102.664 108.882 102.664 109.526C102.664 110.128 103.042 110.408 103.938 110.576L105.198 110.814C106.668 111.08 107.368 111.724 107.368 112.788ZM110.354 105.858C110.354 106.39 109.934 106.796 109.332 106.796C108.73 106.796 108.296 106.39 108.296 105.858C108.296 105.312 108.73 104.92 109.332 104.92C109.934 104.92 110.354 105.312 110.354 105.858ZM110.046 115H108.632V107.58H110.046V115ZM115.915 113.628V114.874C115.481 115.07 115.103 115.14 114.655 115.14C113.283 115.14 112.331 114.398 112.331 112.76V108.784H110.693V107.58H112.331V105.382H113.745V107.58H115.985V108.784H113.745V112.438C113.745 113.46 114.235 113.824 114.991 113.824C115.327 113.824 115.621 113.768 115.915 113.628ZM119.901 115.14C117.759 115.14 116.317 113.586 116.317 111.248C116.317 109.05 117.815 107.44 119.859 107.44C122.071 107.44 123.541 109.232 123.289 111.64H117.759C117.871 113.152 118.627 114.034 119.873 114.034C120.923 114.034 121.651 113.46 121.889 112.494H123.289C122.925 114.146 121.651 115.14 119.901 115.14ZM119.831 108.504C118.697 108.504 117.927 109.316 117.773 110.702H121.791C121.721 109.33 120.979 108.504 119.831 108.504ZM130.449 115H127.271V104.948H130.449C133.655 104.948 135.503 106.992 135.503 109.932C135.503 112.83 133.585 115 130.449 115ZM128.811 106.278V113.67H130.379C132.689 113.67 133.935 112.242 133.935 109.932C133.935 107.664 132.703 106.278 130.379 106.278H128.811ZM139.774 115.14C137.632 115.14 136.19 113.586 136.19 111.248C136.19 109.05 137.688 107.44 139.732 107.44C141.944 107.44 143.414 109.232 143.162 111.64H137.632C137.744 113.152 138.5 114.034 139.746 114.034C140.796 114.034 141.524 113.46 141.762 112.494H143.162C142.798 114.146 141.524 115.14 139.774 115.14ZM139.704 108.504C138.57 108.504 137.8 109.316 137.646 110.702H141.664C141.594 109.33 140.852 108.504 139.704 108.504ZM150.266 112.788C150.266 114.244 149.132 115.14 147.158 115.14C145.198 115.14 144.036 114.174 143.896 112.578H145.254C145.31 113.502 146.052 114.076 147.186 114.076C148.18 114.076 148.838 113.726 148.838 113.026C148.838 112.41 148.46 112.144 147.536 111.962L146.332 111.738C144.96 111.472 144.19 110.772 144.19 109.652C144.19 108.35 145.324 107.44 147.046 107.44C148.824 107.44 150.028 108.392 150.154 109.918H148.796C148.712 109.022 148.054 108.504 147.06 108.504C146.164 108.504 145.562 108.882 145.562 109.526C145.562 110.128 145.94 110.408 146.836 110.576L148.096 110.814C149.566 111.08 150.266 111.724 150.266 112.788ZM153.252 105.858C153.252 106.39 152.832 106.796 152.23 106.796C151.628 106.796 151.194 106.39 151.194 105.858C151.194 105.312 151.628 104.92 152.23 104.92C152.832 104.92 153.252 105.312 153.252 105.858ZM152.944 115H151.53V107.58H152.944V115ZM157.595 117.856C155.649 117.856 154.389 116.82 154.305 115.14H155.677C155.761 116.176 156.433 116.736 157.581 116.736C158.855 116.736 159.527 116.05 159.527 114.776V113.432C159.107 114.328 158.267 114.846 157.259 114.846C155.411 114.846 154.095 113.32 154.095 111.136C154.095 108.924 155.355 107.44 157.217 107.44C158.281 107.44 159.121 107.958 159.625 108.896V107.58H160.941V114.748C160.941 116.694 159.695 117.856 157.595 117.856ZM155.523 111.136C155.523 112.676 156.279 113.614 157.511 113.614C158.715 113.614 159.527 112.648 159.527 111.178C159.527 109.638 158.729 108.658 157.511 108.658C156.293 108.658 155.523 109.61 155.523 111.136ZM164.032 110.814V115H162.618V107.58H163.934V108.812C164.438 107.986 165.278 107.44 166.3 107.44C167.826 107.44 168.834 108.42 168.834 110.198V115H167.42V110.674C167.42 109.4 166.86 108.686 165.81 108.686C164.844 108.686 164.032 109.498 164.032 110.814Z" fill="#1A1A1A"/>
<mask id="path-4-outside-1_1173_13" maskUnits="userSpaceOnUse" x="65" y="0" width="113" height="40" fill="black">
<rect fill="white" x="65" width="113" height="40"/>
<path d="M116.064 8.54297C120.012 7.70958 124.532 7.82104 128.402 9.04102C130.988 9.86583 133.412 11.3521 134.979 13.6289C135.09 13.784 136.374 16.5156 136.297 16.5156H126.57V16.5244C126.485 16.344 126.391 16.172 126.279 16.0088C123.471 11.7988 113.847 14.0585 115.174 20.6396C116.064 25.0472 121.39 26.6193 124.935 24.248C125.428 23.9154 126.478 22.6347 126.493 22.6162H136.306C136.365 22.6181 135.577 24.9191 135.475 25.1338C131.501 33.1237 113.813 34.6612 108.033 26.9717C106.62 25.0901 105.875 22.3924 105.807 20.0898C105.712 16.825 106.809 13.9471 109.249 11.7734C111.158 10.0723 113.581 9.06707 116.064 8.54297ZM149.466 8.54297C153.413 7.70958 157.934 7.82104 161.804 9.04102C164.39 9.86583 166.813 11.3521 168.38 13.6289C168.491 13.784 169.775 16.5156 169.698 16.5156H159.972C159.886 16.3352 159.792 16.1632 159.681 16C156.872 11.7901 146.872 13.5605 148.438 20.8721C149.141 24.1626 153.645 27.0494 160.058 23.8877H156.958V20.0039H169.707V31.1387H165.648L164.955 29.1797C158.191 33.3639 146.041 33.0977 141.435 26.9717C140.022 25.0901 139.277 22.3924 139.208 20.0898C139.114 16.825 140.21 13.9471 142.65 11.7734C144.56 10.0723 146.983 9.06707 149.466 8.54297ZM83.2705 8.5332C87.2177 7.70839 91.7392 7.81238 95.6094 9.04102C98.195 9.86585 100.618 11.3522 102.185 13.6289C102.296 13.7836 103.576 16.5067 103.504 16.5156H93.7686C93.683 16.3353 93.5888 16.1632 93.4775 16C90.6691 11.79 81.045 14.0496 82.3721 20.6309C83.2625 25.0385 88.588 26.6106 92.1328 24.2393C92.6269 23.9058 93.6807 22.6205 93.6914 22.6074H103.504C103.559 22.6196 102.776 24.9079 102.673 25.124C98.7 33.1144 81.01 34.6526 75.2305 26.9629C73.8179 25.0813 73.0734 22.3835 73.0049 20.0811C72.9193 16.8163 74.0065 13.9383 76.4551 11.7646C78.3644 10.0635 80.7876 9.05732 83.2705 8.5332Z"/>
</mask>
<path d="M116.064 8.54297C120.012 7.70958 124.532 7.82104 128.402 9.04102C130.988 9.86583 133.412 11.3521 134.979 13.6289C135.09 13.784 136.374 16.5156 136.297 16.5156H126.57V16.5244C126.485 16.344 126.391 16.172 126.279 16.0088C123.471 11.7988 113.847 14.0585 115.174 20.6396C116.064 25.0472 121.39 26.6193 124.935 24.248C125.428 23.9154 126.478 22.6347 126.493 22.6162H136.306C136.365 22.6181 135.577 24.9191 135.475 25.1338C131.501 33.1237 113.813 34.6612 108.033 26.9717C106.62 25.0901 105.875 22.3924 105.807 20.0898C105.712 16.825 106.809 13.9471 109.249 11.7734C111.158 10.0723 113.581 9.06707 116.064 8.54297ZM149.466 8.54297C153.413 7.70958 157.934 7.82104 161.804 9.04102C164.39 9.86583 166.813 11.3521 168.38 13.6289C168.491 13.784 169.775 16.5156 169.698 16.5156H159.972C159.886 16.3352 159.792 16.1632 159.681 16C156.872 11.7901 146.872 13.5605 148.438 20.8721C149.141 24.1626 153.645 27.0494 160.058 23.8877H156.958V20.0039H169.707V31.1387H165.648L164.955 29.1797C158.191 33.3639 146.041 33.0977 141.435 26.9717C140.022 25.0901 139.277 22.3924 139.208 20.0898C139.114 16.825 140.21 13.9471 142.65 11.7734C144.56 10.0723 146.983 9.06707 149.466 8.54297ZM83.2705 8.5332C87.2177 7.70839 91.7392 7.81238 95.6094 9.04102C98.195 9.86585 100.618 11.3522 102.185 13.6289C102.296 13.7836 103.576 16.5067 103.504 16.5156H93.7686C93.683 16.3353 93.5888 16.1632 93.4775 16C90.6691 11.79 81.045 14.0496 82.3721 20.6309C83.2625 25.0385 88.588 26.6106 92.1328 24.2393C92.6269 23.9058 93.6807 22.6205 93.6914 22.6074H103.504C103.559 22.6196 102.776 24.9079 102.673 25.124C98.7 33.1144 81.01 34.6526 75.2305 26.9629C73.8179 25.0813 73.0734 22.3835 73.0049 20.0811C72.9193 16.8163 74.0065 13.9383 76.4551 11.7646C78.3644 10.0635 80.7876 9.05732 83.2705 8.5332Z" fill="black"/>
<path d="M116.064 8.54297L117.717 16.3705L117.717 16.3704L116.064 8.54297ZM128.402 9.04102L130.833 1.41937C130.825 1.41661 130.816 1.41386 130.808 1.41113L128.402 9.04102ZM134.979 13.6289L128.388 18.1642C128.419 18.2095 128.451 18.2545 128.483 18.2992L134.979 13.6289ZM126.57 16.5156V8.51562C122.152 8.51562 118.57 12.0973 118.57 16.5156H126.57ZM126.57 16.5244L119.343 19.9542C120.947 23.334 124.679 25.1509 128.328 24.3289C131.978 23.5069 134.57 20.2654 134.57 16.5244H126.57ZM126.279 16.0088L119.624 20.4483C119.639 20.4708 119.654 20.4933 119.67 20.5156L126.279 16.0088ZM115.174 20.6396L107.332 22.2208L107.332 22.2239L115.174 20.6396ZM124.935 24.248L129.383 30.8974C129.392 30.8915 129.4 30.8856 129.409 30.8797L124.935 24.248ZM126.493 22.6162V14.6162C124.095 14.6162 121.823 15.692 120.304 17.5473L126.493 22.6162ZM136.306 22.6162L136.557 14.6202C136.473 14.6175 136.389 14.6162 136.306 14.6162V22.6162ZM135.475 25.1338L142.638 28.696C142.656 28.6595 142.674 28.6228 142.691 28.5859L135.475 25.1338ZM108.033 26.9717L101.636 31.775L101.638 31.7782L108.033 26.9717ZM105.807 20.0898L97.81 20.3205L97.8102 20.3277L105.807 20.0898ZM109.249 11.7734L114.57 17.747L114.571 17.7466L109.249 11.7734ZM149.466 8.54297L151.118 16.3705L151.118 16.3704L149.466 8.54297ZM161.804 9.04102L164.235 1.41937C164.226 1.41661 164.218 1.41386 164.209 1.41113L161.804 9.04102ZM168.38 13.6289L161.79 18.1642C161.821 18.2093 161.852 18.2541 161.884 18.2985L168.38 13.6289ZM159.972 16.5156L152.744 19.9456C154.069 22.7367 156.882 24.5156 159.972 24.5156V16.5156ZM159.681 16L153.026 20.4397C153.041 20.4622 153.056 20.4846 153.071 20.5069L159.681 16ZM148.438 20.8721L156.262 19.2022L156.261 19.1957L148.438 20.8721ZM160.058 23.8877L163.595 31.063C166.93 29.4187 168.693 25.693 167.849 22.0715C167.005 18.45 163.776 15.8877 160.058 15.8877V23.8877ZM156.958 23.8877H148.958C148.958 28.306 152.54 31.8877 156.958 31.8877V23.8877ZM156.958 20.0039V12.0039C152.54 12.0039 148.958 15.5856 148.958 20.0039H156.958ZM169.707 20.0039H177.707C177.707 15.5856 174.125 12.0039 169.707 12.0039V20.0039ZM169.707 31.1387V39.1387C174.125 39.1387 177.707 35.5569 177.707 31.1387H169.707ZM165.648 31.1387L158.107 33.8079C159.238 37.003 162.259 39.1387 165.648 39.1387V31.1387ZM164.955 29.1797L172.497 26.5104C171.689 24.2294 169.893 22.4363 167.61 21.6332C165.328 20.8301 162.804 21.1032 160.747 22.3762L164.955 29.1797ZM141.435 26.9717L135.037 31.775L135.041 31.7797L141.435 26.9717ZM139.208 20.0898L131.211 20.3205L131.212 20.3277L139.208 20.0898ZM142.65 11.7734L147.972 17.747L147.972 17.7466L142.65 11.7734ZM83.2705 8.5332L81.6342 0.702344C81.6288 0.703454 81.6235 0.704569 81.6182 0.70569L83.2705 8.5332ZM95.6094 9.04102L98.0407 1.41941L98.03 1.41603L95.6094 9.04102ZM102.185 13.6289L95.5944 18.1642C95.6257 18.2098 95.6576 18.2551 95.6899 18.3L102.185 13.6289ZM103.504 16.5156V24.5156C103.83 24.5156 104.155 24.4957 104.479 24.456L103.504 16.5156ZM93.7686 16.5156L86.5411 19.9454C87.8656 22.7366 90.679 24.5156 93.7686 24.5156V16.5156ZM93.4775 16L86.8224 20.4395C86.8373 20.4618 86.8523 20.4841 86.8674 20.5063L93.4775 16ZM82.3721 20.6309L74.5299 22.2122L74.5305 22.2151L82.3721 20.6309ZM92.1328 24.2393L96.581 30.8886C96.59 30.8825 96.5991 30.8765 96.6081 30.8704L92.1328 24.2393ZM93.6914 22.6074V14.6074C91.293 14.6074 89.0211 15.6835 87.5016 17.5392L93.6914 22.6074ZM103.504 22.6074L105.219 14.7934C104.655 14.6698 104.081 14.6074 103.504 14.6074V22.6074ZM102.673 25.124L109.836 28.6857C109.856 28.6466 109.875 28.6074 109.894 28.568L102.673 25.124ZM75.2305 26.9629L68.8327 31.7659L68.8354 31.7694L75.2305 26.9629ZM73.0049 20.0811L65.0076 20.2908C65.0079 20.3002 65.0081 20.3095 65.0084 20.3189L73.0049 20.0811ZM76.4551 11.7646L81.7662 17.7473C81.7698 17.7441 81.7733 17.741 81.7769 17.7378L76.4551 11.7646ZM116.064 8.54297L117.717 16.3704C120.455 15.7923 123.569 15.9053 125.997 16.6709L128.402 9.04102L130.808 1.41113C125.496 -0.263242 119.568 -0.373105 114.412 0.715538L116.064 8.54297ZM128.402 9.04102L125.971 16.6627C127.378 17.1115 128.094 17.7368 128.388 18.1642L134.979 13.6289L141.569 9.09359C138.729 4.96734 134.598 2.62021 130.833 1.41937L128.402 9.04102ZM134.979 13.6289L128.483 18.2992C128.264 17.9939 128.117 17.7422 128.091 17.6972C128.038 17.6065 128 17.5374 127.984 17.5082C127.951 17.4479 127.935 17.4147 127.943 17.4298C127.954 17.4531 127.988 17.52 128.045 17.6377C128.155 17.8652 128.303 18.1771 128.449 18.4927C128.6 18.8176 128.722 19.0885 128.791 19.2493C128.835 19.3514 128.815 19.31 128.771 19.1918C128.767 19.1812 128.655 18.8915 128.552 18.4931C128.528 18.4015 128.335 17.6978 128.305 16.775C128.293 16.4393 128.244 15.0421 128.918 13.4282C129.299 12.5168 130.047 11.2138 131.469 10.1371C132.985 8.98911 134.72 8.51562 136.297 8.51562V16.5156V24.5156C137.875 24.5156 139.611 24.0418 141.128 22.8931C142.551 21.8158 143.299 20.5118 143.681 19.5991C144.356 17.9826 144.307 16.5814 144.296 16.2405C144.265 15.3075 144.069 14.5884 144.04 14.4767C143.926 14.0382 143.795 13.6897 143.763 13.6041C143.663 13.3359 143.555 13.0799 143.487 12.9235C143.334 12.5672 143.142 12.1455 142.968 11.7682C142.788 11.3814 142.599 10.9813 142.44 10.653C142.362 10.4928 142.278 10.3209 142.198 10.1651C142.16 10.0907 142.105 9.98286 142.041 9.8655C142.009 9.8078 141.958 9.71455 141.894 9.60449C141.856 9.54002 141.7 9.27364 141.474 8.9586L134.979 13.6289ZM136.297 16.5156V8.51562H126.57V16.5156V24.5156H136.297V16.5156ZM126.57 16.5156H118.57V16.5244H126.57H134.57V16.5156H126.57ZM126.57 16.5244L133.798 13.0946C133.584 12.6449 133.291 12.092 132.889 11.502L126.279 16.0088L119.67 20.5156C119.49 20.2521 119.385 20.0431 119.343 19.9542L126.57 16.5244ZM126.279 16.0088L132.934 11.5693C128.729 5.26464 121.066 5.21889 116.652 6.68595C114.098 7.5351 111.369 9.18209 109.428 11.9213C107.363 14.8342 106.574 18.4645 107.332 22.2208L115.174 20.6396L123.016 19.0585C123.048 19.2149 123.082 19.5527 122.988 20.0021C122.895 20.4514 122.708 20.8543 122.481 21.1739C122.264 21.4801 122.049 21.659 121.918 21.7496C121.789 21.8386 121.711 21.8653 121.699 21.8691C121.687 21.8733 121.687 21.8727 121.682 21.873C121.68 21.8731 121.612 21.8783 121.474 21.8484C121.233 21.7961 120.334 21.5127 119.624 20.4483L126.279 16.0088ZM115.174 20.6396L107.332 22.2239C108.411 27.5638 112.248 31.1057 116.461 32.5522C120.549 33.9561 125.396 33.564 129.383 30.8974L124.935 24.248L120.486 17.5986C120.928 17.3033 121.34 17.3108 121.657 17.4196C121.855 17.4876 122.145 17.6374 122.431 17.9447C122.74 18.2764 122.94 18.684 123.015 19.0554L115.174 20.6396ZM124.935 24.248L129.409 30.8797C130.632 30.0546 131.682 28.8416 131.852 28.6522C132.291 28.1616 132.642 27.7341 132.682 27.6851L126.493 22.6162L120.304 17.5473C120.323 17.5244 120.283 17.5732 120.208 17.6613C120.132 17.751 120.034 17.8646 119.934 17.9764C119.885 18.0315 119.841 18.0793 119.804 18.1187C119.766 18.1594 119.746 18.1799 119.743 18.1831C119.742 18.1839 119.75 18.176 119.766 18.1608C119.781 18.146 119.811 18.1181 119.854 18.0801C119.896 18.0433 119.964 17.9852 120.054 17.9136C120.1 17.8771 120.156 17.8336 120.221 17.7851C120.287 17.7368 120.366 17.6796 120.46 17.6164L124.935 24.248ZM126.493 22.6162V30.6162H136.306V22.6162V14.6162H126.493V22.6162ZM136.306 22.6162L136.054 30.6123C134.282 30.5566 132.601 29.9154 131.257 28.821C130.026 27.8196 129.368 26.6815 129.029 25.9384C128.408 24.577 128.339 23.3915 128.321 23.0639C128.274 22.2222 128.379 21.5671 128.395 21.4608C128.454 21.0671 128.53 20.7753 128.535 20.7541C128.569 20.6206 128.59 20.5588 128.565 20.6395C128.529 20.7574 128.459 20.9734 128.367 21.2478C128.279 21.5117 128.187 21.7756 128.118 21.9726C127.954 22.433 128.054 22.1067 128.258 21.6816L135.475 25.1338L142.691 28.5859C142.946 28.0535 143.184 27.3591 143.195 27.3276C143.3 27.0327 143.421 26.681 143.534 26.3426C143.645 26.0146 143.767 25.6416 143.865 25.3209C143.908 25.1822 143.981 24.9387 144.047 24.6781C144.068 24.5935 144.156 24.2518 144.219 23.8241C144.238 23.7007 144.344 23.0326 144.297 22.1821C144.278 21.8501 144.208 20.6612 143.586 19.2975C142.862 17.7098 140.71 14.7506 136.557 14.6202L136.306 22.6162ZM135.475 25.1338L128.311 21.5716C128.326 21.5418 128.05 22.0689 126.761 22.7101C125.517 23.3287 123.787 23.8087 121.834 23.9548C117.367 24.2889 114.927 22.8291 114.428 22.1652L108.033 26.9717L101.638 31.7782C106.918 38.8038 116.212 40.42 123.028 39.9102C126.716 39.6344 130.515 38.7126 133.886 37.036C137.211 35.3821 140.636 32.7208 142.638 28.696L135.475 25.1338ZM108.033 26.9717L114.431 22.1684C114.393 22.1177 114.221 21.8481 114.057 21.3182C113.897 20.8042 113.816 20.2712 113.803 19.852L105.807 20.0898L97.8102 20.3277C97.9151 23.8545 99.0032 28.2688 101.636 31.775L108.033 26.9717ZM105.807 20.0898L113.803 19.8592C113.77 18.6921 114.082 18.1816 114.57 17.747L109.249 11.7734L103.928 5.79985C99.5353 9.71267 97.6553 14.958 97.81 20.3205L105.807 20.0898ZM109.249 11.7734L114.571 17.7466C115.149 17.2318 116.158 16.6996 117.717 16.3705L116.064 8.54297L114.412 0.715436C111.005 1.43457 107.168 2.9127 103.927 5.8003L109.249 11.7734ZM149.466 8.54297L151.118 16.3704C153.857 15.7923 156.97 15.9053 159.399 16.6709L161.804 9.04102L164.209 1.41113C158.897 -0.263248 152.969 -0.373105 147.813 0.715538L149.466 8.54297ZM161.804 9.04102L159.373 16.6627C160.78 17.1115 161.496 17.7368 161.79 18.1642L168.38 13.6289L174.97 9.09359C172.13 4.96734 168 2.62021 164.235 1.41937L161.804 9.04102ZM168.38 13.6289L161.884 18.2985C161.665 17.9935 161.519 17.7421 161.492 17.697C161.439 17.6064 161.401 17.5373 161.386 17.5082C161.353 17.4479 161.336 17.4146 161.344 17.4298C161.356 17.4531 161.389 17.5201 161.446 17.6378C161.557 17.8652 161.704 18.1771 161.851 18.4927C162.001 18.8177 162.123 19.0885 162.192 19.2493C162.236 19.3514 162.216 19.31 162.172 19.1918C162.168 19.1812 162.057 18.8915 161.954 18.4931C161.93 18.4015 161.737 17.6977 161.706 16.775C161.695 16.4393 161.645 15.042 162.32 13.4282C162.701 12.5167 163.449 11.2137 164.871 10.1371C166.387 8.9891 168.121 8.51562 169.698 8.51562V16.5156V24.5156C171.276 24.5156 173.012 24.0418 174.529 22.8932C175.952 21.8158 176.7 20.5119 177.082 19.5991C177.758 17.9827 177.708 16.5815 177.697 16.2406C177.666 15.3075 177.47 14.5884 177.441 14.4767C177.328 14.0383 177.197 13.6897 177.165 13.6041C177.065 13.3359 176.956 13.0799 176.889 12.9235C176.735 12.5672 176.544 12.1455 176.369 11.7682C176.19 11.3815 176.001 10.9814 175.841 10.6531C175.763 10.4928 175.679 10.321 175.6 10.1651C175.562 10.0908 175.506 9.98293 175.442 9.8656C175.411 9.80791 175.36 9.71469 175.295 9.60468C175.257 9.54018 175.102 9.27405 174.876 8.95927L168.38 13.6289ZM169.698 16.5156V8.51562H159.972V16.5156V24.5156H169.698V16.5156ZM159.972 16.5156L167.199 13.0857C166.986 12.6362 166.693 12.0832 166.29 11.4931L159.681 16L153.071 20.5069C152.891 20.2432 152.786 20.0343 152.744 19.9456L159.972 16.5156ZM159.681 16L166.336 11.5603C164.241 8.42055 161.112 6.82772 158.374 6.17508C155.623 5.51941 152.693 5.64767 150.031 6.48008C147.365 7.31364 144.492 9.01697 142.507 11.9607C140.412 15.0666 139.815 18.809 140.616 22.5484L148.438 20.8721L156.261 19.1957C156.257 19.1754 156.303 19.3884 156.238 19.7647C156.17 20.1503 156.012 20.5516 155.771 20.9077C155.308 21.5947 154.817 21.7477 154.806 21.7509C154.8 21.753 154.798 21.7711 154.664 21.739C154.542 21.7099 153.716 21.4745 153.026 20.4397L159.681 16ZM148.438 20.8721L140.615 22.5419C142.754 32.5654 154.126 35.7314 163.595 31.063L160.058 23.8877L156.52 16.7124C154.862 17.5296 154.423 17.1282 154.857 17.2871C155.165 17.3997 155.984 17.8971 156.262 19.2022L148.438 20.8721ZM160.058 23.8877V15.8877H156.958V23.8877V31.8877H160.058V23.8877ZM156.958 23.8877H164.958V20.0039H156.958H148.958V23.8877H156.958ZM156.958 20.0039V28.0039H169.707V20.0039V12.0039H156.958V20.0039ZM169.707 20.0039H161.707V31.1387H169.707H177.707V20.0039H169.707ZM169.707 31.1387V23.1387H165.648V31.1387V39.1387H169.707V31.1387ZM165.648 31.1387L173.19 28.4694L172.497 26.5104L164.955 29.1797L157.414 31.8489L158.107 33.8079L165.648 31.1387ZM164.955 29.1797L160.747 22.3762C159.056 23.4218 156.069 24.1783 152.939 23.9612C149.664 23.734 148.176 22.6254 147.829 22.1637L141.435 26.9717L135.041 31.7797C139.3 37.4439 146.19 39.5315 151.832 39.9228C157.62 40.3243 164.09 39.1218 169.164 35.9832L164.955 29.1797ZM141.435 26.9717L147.832 22.1684C147.794 22.1177 147.622 21.8481 147.458 21.3182C147.299 20.8042 147.217 20.2713 147.204 19.852L139.208 20.0898L131.212 20.3277C131.316 23.8545 132.405 28.2688 135.037 31.775L141.435 26.9717ZM139.208 20.0898L147.205 19.8592C147.171 18.6921 147.484 18.1816 147.972 17.747L142.65 11.7734L137.329 5.79984C132.937 9.71267 131.057 14.958 131.211 20.3205L139.208 20.0898ZM142.65 11.7734L147.972 17.7466C148.55 17.2318 149.559 16.6996 151.118 16.3705L149.466 8.54297L147.814 0.715435C144.407 1.43457 140.57 2.9127 137.329 5.8003L142.65 11.7734ZM83.2705 8.5332L84.9069 16.3641C87.6666 15.7874 90.7782 15.9007 93.1887 16.666L95.6094 9.04102L98.03 1.41603C92.7003 -0.275973 86.7688 -0.370607 81.6342 0.702344L83.2705 8.5332ZM95.6094 9.04102L93.1781 16.6626C94.5839 17.1111 95.2998 17.7362 95.5944 18.1642L102.185 13.6289L108.775 9.09359C105.936 4.96818 101.806 2.62062 98.0407 1.41942L95.6094 9.04102ZM102.185 13.6289L95.6899 18.3C95.4705 17.995 95.3244 17.7436 95.2979 17.6985C95.2447 17.6079 95.2069 17.5387 95.191 17.5095C95.1581 17.4492 95.1414 17.4158 95.1491 17.4308C95.1608 17.4538 95.1941 17.5205 95.2511 17.6378C95.3612 17.8646 95.5087 18.1757 95.6548 18.4909C95.8051 18.8152 95.9273 19.0865 95.9972 19.2486C96.041 19.3504 96.0225 19.3126 95.98 19.1991C95.9753 19.1866 95.8696 18.9117 95.7691 18.5324C95.7427 18.4328 95.5658 17.7927 95.5191 16.9496C95.5011 16.6262 95.4369 15.4223 95.9173 13.982C96.1802 13.1939 96.7268 11.9683 97.8774 10.8293C99.1359 9.58353 100.772 8.79089 102.529 8.57522L103.504 16.5156L104.479 24.456C108.64 23.9453 110.524 20.7559 111.095 19.0444C111.577 17.6013 111.513 16.3932 111.495 16.0644C111.447 15.2105 111.267 14.5546 111.235 14.4345C111.124 14.0142 110.998 13.6798 110.965 13.5916C110.866 13.3269 110.759 13.0737 110.691 12.9165C110.538 12.5607 110.346 12.1399 110.172 11.763C109.993 11.377 109.804 10.9777 109.645 10.6501C109.567 10.4903 109.483 10.3188 109.403 10.1632C109.365 10.0889 109.31 9.98118 109.246 9.86392C109.215 9.80626 109.163 9.71307 109.099 9.60308C109.061 9.53858 108.906 9.27251 108.679 8.95781L102.185 13.6289ZM103.504 16.5156V8.51562H93.7686V16.5156V24.5156H103.504V16.5156ZM93.7686 16.5156L100.996 13.0858C100.782 12.6356 100.489 12.083 100.088 11.4937L93.4775 16L86.8674 20.5063C86.6882 20.2433 86.5836 20.0349 86.5411 19.9454L93.7686 16.5156ZM93.4775 16L100.133 11.5605C95.927 5.25588 88.2642 5.21004 83.8506 6.67709C81.296 7.52622 78.5674 9.17323 76.6258 11.9126C74.561 14.8256 73.7725 18.4559 74.5299 22.2122L82.3721 20.6309L90.2142 19.0495C90.2458 19.2059 90.2797 19.5437 90.1866 19.9931C90.0935 20.4424 89.9058 20.8454 89.6792 21.165C89.4622 21.4712 89.247 21.6501 89.1161 21.7408C88.9876 21.8298 88.9088 21.8565 88.8974 21.8603C88.8849 21.8644 88.8849 21.8639 88.8805 21.8641C88.878 21.8643 88.8098 21.8695 88.6722 21.8396C88.4316 21.7873 87.5325 21.5039 86.8224 20.4395L93.4775 16ZM82.3721 20.6309L74.5305 22.2151C75.6093 27.555 79.4463 31.0969 83.6588 32.5435C87.7472 33.9474 92.5947 33.5553 96.581 30.8886L92.1328 24.2393L87.6846 17.5899C88.1261 17.2946 88.5385 17.3021 88.8553 17.4108C89.0534 17.4789 89.3432 17.6287 89.6292 17.9359C89.9381 18.2677 90.1386 18.6753 90.2136 19.0466L82.3721 20.6309ZM92.1328 24.2393L96.6081 30.8704C97.8317 30.0446 98.8835 28.8294 99.053 28.6402C99.4927 28.1492 99.8432 27.722 99.8812 27.6756L93.6914 22.6074L87.5016 17.5392C87.5216 17.5148 87.4824 17.5629 87.408 17.6508C87.3323 17.7402 87.2343 17.854 87.1338 17.9662C87.0844 18.0214 87.0404 18.0695 87.0032 18.1091C86.9648 18.1501 86.9442 18.1708 86.9408 18.1743C86.9398 18.1752 86.9476 18.1674 86.9636 18.1523C86.979 18.1377 87.009 18.1098 87.0519 18.072C87.0937 18.0352 87.1611 17.9772 87.2511 17.9056C87.2971 17.869 87.3532 17.8255 87.4187 17.777C87.4839 17.7287 87.5639 17.6713 87.6575 17.6081L92.1328 24.2393ZM93.6914 22.6074V30.6074H103.504V22.6074V14.6074H93.6914V22.6074ZM103.504 22.6074L101.789 30.4215C97.8157 29.5495 96.3502 26.3562 95.9746 25.3077C95.5554 24.1377 95.519 23.1574 95.51 22.8471C95.4883 22.0967 95.5826 21.5165 95.6003 21.4029C95.6579 21.0333 95.7295 20.7605 95.7354 20.737C95.7679 20.6095 95.7872 20.5523 95.7626 20.6325C95.7261 20.7518 95.6561 20.9681 95.5643 21.2414C95.4759 21.5046 95.385 21.7676 95.3154 21.9637C95.2797 22.0642 95.2574 22.1249 95.2482 22.1497C95.1883 22.3095 95.2872 22.0259 95.4521 21.68L102.673 25.124L109.894 28.568C110.145 28.0406 110.38 27.3543 110.393 27.319C110.497 27.0249 110.618 26.6745 110.731 26.337C110.841 26.0097 110.963 25.6381 111.061 25.3183C111.104 25.1788 111.176 24.9392 111.241 24.6833C111.263 24.5957 111.346 24.2722 111.409 23.8677C111.43 23.7367 111.525 23.1428 111.503 22.3831C111.494 22.0681 111.457 21.0842 111.037 19.9116C110.661 18.8605 109.194 15.6657 105.219 14.7934L103.504 22.6074ZM102.673 25.124L95.5095 21.5623C95.5243 21.5324 95.2481 22.0595 93.9589 22.7008C92.7151 23.3195 90.9854 23.7996 89.0322 23.9458C84.5646 24.2801 82.1245 22.8202 81.6256 22.1564L75.2305 26.9629L68.8354 31.7694C74.116 38.7953 83.4106 40.4112 90.2261 39.9012C93.9144 39.6252 97.7134 38.7033 101.084 37.0265C104.41 35.3724 107.835 32.7108 109.836 28.6857L102.673 25.124ZM75.2305 26.9629L81.6282 22.1599C81.5906 22.1098 81.4191 21.8407 81.2548 21.3107C81.0955 20.7968 81.0138 20.2633 81.0013 19.8432L73.0049 20.0811L65.0084 20.3189C65.1133 23.8435 66.1996 28.2585 68.8328 31.7659L75.2305 26.9629ZM73.0049 20.0811L81.0021 19.8713C80.9707 18.6741 81.2899 18.1701 81.7662 17.7473L76.4551 11.7646L71.144 5.78199C66.7232 9.70654 64.8678 14.9586 65.0076 20.2908L73.0049 20.0811ZM76.4551 11.7646L81.7769 17.7378C82.3558 17.222 83.3658 16.6894 84.9228 16.3607L83.2705 8.5332L81.6182 0.70569C78.2093 1.42527 74.373 2.90504 71.1333 5.79152L76.4551 11.7646Z" fill="#E6E2DE" mask="url(#path-4-outside-1_1173_13)"/>
</svg>
