<svg width="242" height="240" viewBox="0 0 242 240" fill="none" xmlns="http://www.w3.org/2000/svg">
<rect y="80" width="242" height="160" rx="12" fill="#E6E2DE"/>
<path d="M108.487 155.24C105.255 155.24 102.727 152.616 102.727 149.24C102.727 145.88 105.255 143.272 108.487 143.272C111.511 143.272 113.879 145.288 114.279 148.232H111.703C111.431 146.584 110.151 145.448 108.519 145.448C106.551 145.448 105.223 147 105.223 149.24C105.223 151.496 106.551 153.064 108.519 153.064C110.151 153.064 111.415 151.912 111.703 150.264H114.279C113.879 153.24 111.511 155.24 108.487 155.24ZM120.905 155.24C117.673 155.24 115.145 152.616 115.145 149.24C115.145 145.88 117.673 143.272 120.905 143.272C123.929 143.272 126.297 145.288 126.697 148.232H124.121C123.849 146.584 122.569 145.448 120.937 145.448C118.969 145.448 117.641 147 117.641 149.24C117.641 151.496 118.969 153.064 120.937 153.064C122.569 153.064 123.833 151.912 124.121 150.264H126.697C126.297 153.24 123.929 155.24 120.905 155.24ZM133.483 155.24C130.155 155.24 127.563 152.76 127.563 149.208C127.563 145.816 130.027 143.272 133.387 143.272C136.299 143.272 138.379 145 139.131 147.496H136.267C135.915 146.328 134.859 145.448 133.323 145.448C131.467 145.448 130.059 146.808 130.059 149.272C130.059 151.48 131.291 153.176 133.595 153.176C135.291 153.176 136.363 152.168 136.683 150.744H133.355V148.808H139.275C139.419 152.552 137.147 155.24 133.483 155.24Z" fill="#1A1A1A"/>
<path d="M81.0182 175L78.8902 167.118L76.7482 175H75.1662L72.5482 164.948H74.0602L75.9922 172.69L78.1062 164.948H79.7022L81.7882 172.704L83.7202 164.948H85.2322L82.6142 175H81.0182ZM88.6394 175.14C86.4974 175.14 85.0554 173.586 85.0554 171.248C85.0554 169.05 86.5534 167.44 88.5974 167.44C90.8094 167.44 92.2794 169.232 92.0274 171.64H86.4974C86.6094 173.152 87.3654 174.034 88.6114 174.034C89.6614 174.034 90.3894 173.46 90.6274 172.494H92.0274C91.6634 174.146 90.3894 175.14 88.6394 175.14ZM88.5694 168.504C87.4354 168.504 86.6654 169.316 86.5114 170.702H90.5294C90.4594 169.33 89.7174 168.504 88.5694 168.504ZM100.335 171.29C100.335 173.516 99.0467 175.14 97.0447 175.14C95.9947 175.14 95.0987 174.608 94.5667 173.67V175H93.2507V164.948H94.6647V168.854C95.1827 167.944 96.0367 167.44 97.0447 167.44C99.0327 167.44 100.335 169.036 100.335 171.29ZM98.8647 171.29C98.8647 169.61 97.9827 168.686 96.7647 168.686C95.5887 168.686 94.6647 169.596 94.6647 171.262C94.6647 172.9 95.5607 173.88 96.7647 173.88C97.9827 173.88 98.8647 172.942 98.8647 171.29ZM107.368 172.788C107.368 174.244 106.234 175.14 104.26 175.14C102.3 175.14 101.138 174.174 100.998 172.578H102.356C102.412 173.502 103.154 174.076 104.288 174.076C105.282 174.076 105.94 173.726 105.94 173.026C105.94 172.41 105.562 172.144 104.638 171.962L103.434 171.738C102.062 171.472 101.292 170.772 101.292 169.652C101.292 168.35 102.426 167.44 104.148 167.44C105.926 167.44 107.13 168.392 107.256 169.918H105.898C105.814 169.022 105.156 168.504 104.162 168.504C103.266 168.504 102.664 168.882 102.664 169.526C102.664 170.128 103.042 170.408 103.938 170.576L105.198 170.814C106.668 171.08 107.368 171.724 107.368 172.788ZM110.354 165.858C110.354 166.39 109.934 166.796 109.332 166.796C108.73 166.796 108.296 166.39 108.296 165.858C108.296 165.312 108.73 164.92 109.332 164.92C109.934 164.92 110.354 165.312 110.354 165.858ZM110.046 175H108.632V167.58H110.046V175ZM115.915 173.628V174.874C115.481 175.07 115.103 175.14 114.655 175.14C113.283 175.14 112.331 174.398 112.331 172.76V168.784H110.693V167.58H112.331V165.382H113.745V167.58H115.985V168.784H113.745V172.438C113.745 173.46 114.235 173.824 114.991 173.824C115.327 173.824 115.621 173.768 115.915 173.628ZM119.901 175.14C117.759 175.14 116.317 173.586 116.317 171.248C116.317 169.05 117.815 167.44 119.859 167.44C122.071 167.44 123.541 169.232 123.289 171.64H117.759C117.871 173.152 118.627 174.034 119.873 174.034C120.923 174.034 121.651 173.46 121.889 172.494H123.289C122.925 174.146 121.651 175.14 119.901 175.14ZM119.831 168.504C118.697 168.504 117.927 169.316 117.773 170.702H121.791C121.721 169.33 120.979 168.504 119.831 168.504ZM130.449 175H127.271V164.948H130.449C133.655 164.948 135.503 166.992 135.503 169.932C135.503 172.83 133.585 175 130.449 175ZM128.811 166.278V173.67H130.379C132.689 173.67 133.935 172.242 133.935 169.932C133.935 167.664 132.703 166.278 130.379 166.278H128.811ZM139.774 175.14C137.632 175.14 136.19 173.586 136.19 171.248C136.19 169.05 137.688 167.44 139.732 167.44C141.944 167.44 143.414 169.232 143.162 171.64H137.632C137.744 173.152 138.5 174.034 139.746 174.034C140.796 174.034 141.524 173.46 141.762 172.494H143.162C142.798 174.146 141.524 175.14 139.774 175.14ZM139.704 168.504C138.57 168.504 137.8 169.316 137.646 170.702H141.664C141.594 169.33 140.852 168.504 139.704 168.504ZM150.266 172.788C150.266 174.244 149.132 175.14 147.158 175.14C145.198 175.14 144.036 174.174 143.896 172.578H145.254C145.31 173.502 146.052 174.076 147.186 174.076C148.18 174.076 148.838 173.726 148.838 173.026C148.838 172.41 148.46 172.144 147.536 171.962L146.332 171.738C144.96 171.472 144.19 170.772 144.19 169.652C144.19 168.35 145.324 167.44 147.046 167.44C148.824 167.44 150.028 168.392 150.154 169.918H148.796C148.712 169.022 148.054 168.504 147.06 168.504C146.164 168.504 145.562 168.882 145.562 169.526C145.562 170.128 145.94 170.408 146.836 170.576L148.096 170.814C149.566 171.08 150.266 171.724 150.266 172.788ZM153.252 165.858C153.252 166.39 152.832 166.796 152.23 166.796C151.628 166.796 151.194 166.39 151.194 165.858C151.194 165.312 151.628 164.92 152.23 164.92C152.832 164.92 153.252 165.312 153.252 165.858ZM152.944 175H151.53V167.58H152.944V175ZM157.595 177.856C155.649 177.856 154.389 176.82 154.305 175.14H155.677C155.761 176.176 156.433 176.736 157.581 176.736C158.855 176.736 159.527 176.05 159.527 174.776V173.432C159.107 174.328 158.267 174.846 157.259 174.846C155.411 174.846 154.095 173.32 154.095 171.136C154.095 168.924 155.355 167.44 157.217 167.44C158.281 167.44 159.121 167.958 159.625 168.896V167.58H160.941V174.748C160.941 176.694 159.695 177.856 157.595 177.856ZM155.523 171.136C155.523 172.676 156.279 173.614 157.511 173.614C158.715 173.614 159.527 172.648 159.527 171.178C159.527 169.638 158.729 168.658 157.511 168.658C156.293 168.658 155.523 169.61 155.523 171.136ZM164.032 170.814V175H162.618V167.58H163.934V168.812C164.438 167.986 165.278 167.44 166.3 167.44C167.826 167.44 168.834 168.42 168.834 170.198V175H167.42V170.674C167.42 169.4 166.86 168.686 165.81 168.686C164.844 168.686 164.032 169.498 164.032 170.814Z" fill="#1A1A1A"/>
<mask id="path-4-outside-1_1195_219" maskUnits="userSpaceOnUse" x="65" y="60" width="113" height="40" fill="black">
<rect fill="white" x="65" y="60" width="113" height="40"/>
<path d="M116.064 68.5421C120.011 67.7087 124.532 67.8202 128.402 69.0401C130.988 69.8649 133.411 71.3513 134.978 73.628C135.09 73.7827 136.374 76.5148 136.297 76.5148H126.57V76.5235C126.485 76.3432 126.39 76.1711 126.279 76.0079C123.471 71.7983 113.847 74.0579 115.174 80.6388C116.064 85.0462 121.39 86.6191 124.934 84.2482C125.429 83.9142 126.486 82.6238 126.493 82.6153H136.305C136.365 82.6166 135.577 84.9182 135.474 85.1329C131.501 93.1229 113.813 94.661 108.033 86.9718C106.62 85.0902 105.875 82.3916 105.806 80.089C105.712 76.8242 106.809 73.9462 109.249 71.7726C111.158 70.0714 113.581 69.0662 116.064 68.5421ZM149.466 68.5421C153.413 67.7087 157.933 67.8202 161.804 69.0401C164.389 69.8649 166.813 71.3513 168.38 73.628C168.491 73.7827 169.775 76.5148 169.698 76.5148H159.971C159.886 76.3346 159.792 76.1631 159.68 76.0001C156.872 71.7901 146.871 73.5596 148.438 80.8712C149.14 84.1619 153.644 87.0486 160.057 83.8868H156.958V80.003H169.707V91.1388H165.648L164.955 89.1798C158.191 93.3639 146.041 93.0974 141.434 86.9718C140.022 85.0902 139.276 82.3916 139.208 80.089C139.114 76.8242 140.21 73.9462 142.65 71.7726C144.56 70.0714 146.983 69.0662 149.466 68.5421ZM83.2703 68.5333C87.2175 67.7085 91.739 67.8125 95.6092 69.0411C98.1948 69.866 100.618 71.3523 102.184 73.629C102.296 73.7837 103.576 76.5068 103.504 76.5157H93.7683C93.6828 76.3354 93.5886 76.1633 93.4773 76.0001C90.6689 71.7901 81.0448 74.0497 82.3719 80.631C83.2623 85.0386 88.5878 86.6107 92.1326 84.2394C92.6267 83.9059 93.6805 82.6206 93.6912 82.6075H103.504C103.559 82.6197 102.776 84.908 102.673 85.1241C98.6998 93.1145 81.0098 94.6527 75.2303 86.963C73.8177 85.0814 73.0732 82.3836 73.0047 80.0812C72.9191 76.8164 74.0063 73.9384 76.4549 71.7648C78.3642 70.0636 80.7873 69.0574 83.2703 68.5333Z"/>
</mask>
<path d="M116.064 68.5421C120.011 67.7087 124.532 67.8202 128.402 69.0401C130.988 69.8649 133.411 71.3513 134.978 73.628C135.09 73.7827 136.374 76.5148 136.297 76.5148H126.57V76.5235C126.485 76.3432 126.39 76.1711 126.279 76.0079C123.471 71.7983 113.847 74.0579 115.174 80.6388C116.064 85.0462 121.39 86.6191 124.934 84.2482C125.429 83.9142 126.486 82.6238 126.493 82.6153H136.305C136.365 82.6166 135.577 84.9182 135.474 85.1329C131.501 93.1229 113.813 94.661 108.033 86.9718C106.62 85.0902 105.875 82.3916 105.806 80.089C105.712 76.8242 106.809 73.9462 109.249 71.7726C111.158 70.0714 113.581 69.0662 116.064 68.5421ZM149.466 68.5421C153.413 67.7087 157.933 67.8202 161.804 69.0401C164.389 69.8649 166.813 71.3513 168.38 73.628C168.491 73.7827 169.775 76.5148 169.698 76.5148H159.971C159.886 76.3346 159.792 76.1631 159.68 76.0001C156.872 71.7901 146.871 73.5596 148.438 80.8712C149.14 84.1619 153.644 87.0486 160.057 83.8868H156.958V80.003H169.707V91.1388H165.648L164.955 89.1798C158.191 93.3639 146.041 93.0974 141.434 86.9718C140.022 85.0902 139.276 82.3916 139.208 80.089C139.114 76.8242 140.21 73.9462 142.65 71.7726C144.56 70.0714 146.983 69.0662 149.466 68.5421ZM83.2703 68.5333C87.2175 67.7085 91.739 67.8125 95.6092 69.0411C98.1948 69.866 100.618 71.3523 102.184 73.629C102.296 73.7837 103.576 76.5068 103.504 76.5157H93.7683C93.6828 76.3354 93.5886 76.1633 93.4773 76.0001C90.6689 71.7901 81.0448 74.0497 82.3719 80.631C83.2623 85.0386 88.5878 86.6107 92.1326 84.2394C92.6267 83.9059 93.6805 82.6206 93.6912 82.6075H103.504C103.559 82.6197 102.776 84.908 102.673 85.1241C98.6998 93.1145 81.0098 94.6527 75.2303 86.963C73.8177 85.0814 73.0732 82.3836 73.0047 80.0812C72.9191 76.8164 74.0063 73.9384 76.4549 71.7648C78.3642 70.0636 80.7873 69.0574 83.2703 68.5333Z" fill="black"/>
<path d="M116.064 68.5421L117.716 76.3696L117.717 76.3695L116.064 68.5421ZM128.402 69.0401L130.833 61.4185C130.825 61.4157 130.816 61.413 130.807 61.4102L128.402 69.0401ZM134.978 73.628L128.388 78.1635C128.42 78.2098 128.452 78.2557 128.485 78.3013L134.978 73.628ZM126.57 76.5148V68.5148C122.152 68.5148 118.57 72.0965 118.57 76.5148H126.57ZM126.57 76.5235L119.343 79.9536C120.947 83.3332 124.679 85.1501 128.328 84.328C131.978 83.5059 134.57 80.2645 134.57 76.5235H126.57ZM126.279 76.0079L119.624 80.4478C119.639 80.4702 119.654 80.4925 119.669 80.5148L126.279 76.0079ZM115.174 80.6388L107.331 82.2196L107.332 82.223L115.174 80.6388ZM124.934 84.2481L129.382 90.8978C129.391 90.8918 129.4 90.8858 129.409 90.8798L124.934 84.2481ZM126.493 82.6153V74.6153C124.094 74.6153 121.822 75.6917 120.303 77.5477L126.493 82.6153ZM136.305 82.6153L136.473 74.6171C136.417 74.6159 136.361 74.6153 136.305 74.6153V82.6153ZM135.474 85.1329L142.638 88.6949C142.656 88.6585 142.674 88.6218 142.691 88.5851L135.474 85.1329ZM108.033 86.9718L101.636 91.7752L101.638 91.7786L108.033 86.9718ZM105.806 80.089L97.8098 80.3194L97.81 80.3268L105.806 80.089ZM109.249 71.7726L114.57 77.7462L114.571 77.7457L109.249 71.7726ZM149.466 68.5421L151.118 76.3696L151.118 76.3695L149.466 68.5421ZM161.804 69.0401L164.235 61.4185C164.226 61.4157 164.217 61.413 164.209 61.4102L161.804 69.0401ZM168.38 73.628L161.79 78.1635C161.821 78.2098 161.854 78.2557 161.887 78.3013L168.38 73.628ZM159.971 76.5148L152.744 79.9451C154.069 82.736 156.882 84.5148 159.971 84.5148V76.5148ZM159.68 76.0001L153.025 80.4396C153.04 80.4618 153.055 80.484 153.07 80.5061L159.68 76.0001ZM148.438 80.8712L156.262 79.2018L156.261 79.1948L148.438 80.8712ZM160.057 83.8868L163.595 91.0622C166.93 89.4178 168.693 85.6921 167.849 82.0706C167.004 78.4491 163.776 75.8868 160.057 75.8868V83.8868ZM156.958 83.8868H148.958C148.958 88.3051 152.54 91.8868 156.958 91.8868V83.8868ZM156.958 80.003V72.003C152.54 72.003 148.958 75.5848 148.958 80.003H156.958ZM169.707 80.003H177.707C177.707 75.5848 174.125 72.003 169.707 72.003V80.003ZM169.707 91.1388V99.1388C174.125 99.1388 177.707 95.5571 177.707 91.1388H169.707ZM165.648 91.1388L158.107 93.808C159.238 97.0031 162.259 99.1388 165.648 99.1388V91.1388ZM164.955 89.1798L172.496 86.5105C171.689 84.2295 169.893 82.4364 167.61 81.6333C165.328 80.8302 162.804 81.1033 160.746 82.3763L164.955 89.1798ZM141.434 86.9718L135.037 91.7752L135.041 91.7801L141.434 86.9718ZM139.208 80.089L131.211 80.3194L131.211 80.3268L139.208 80.089ZM142.65 71.7726L147.971 77.7462L147.972 77.7457L142.65 71.7726ZM83.2703 68.5333L81.634 60.7024C81.6286 60.7036 81.6233 60.7047 81.618 60.7058L83.2703 68.5333ZM95.6092 69.0411L98.0405 61.4195L98.0298 61.4161L95.6092 69.0411ZM102.184 73.629L95.5942 78.1643C95.6255 78.2099 95.6574 78.2552 95.6897 78.3001L102.184 73.629ZM103.504 76.5157V84.5157C103.829 84.5157 104.155 84.4958 104.478 84.4561L103.504 76.5157ZM93.7684 76.5157L86.5409 79.9455C87.8654 82.7367 90.6788 84.5157 93.7684 84.5157V76.5157ZM93.4773 76.0001L86.8222 80.4396C86.8371 80.462 86.8521 80.4842 86.8672 80.5064L93.4773 76.0001ZM82.3719 80.631L74.5297 82.2123L74.5303 82.2152L82.3719 80.631ZM92.1326 84.2394L96.5808 90.8887C96.5898 90.8826 96.5989 90.8766 96.6079 90.8705L92.1326 84.2394ZM93.6912 82.6075V74.6075C91.2928 74.6075 89.0209 75.6836 87.5014 77.5393L93.6912 82.6075ZM103.504 82.6075L105.218 74.7935C104.655 74.6699 104.08 74.6075 103.504 74.6075V82.6075ZM102.673 85.1241L109.836 88.6858C109.855 88.6467 109.875 88.6075 109.893 88.5681L102.673 85.1241ZM75.2303 86.963L68.8325 91.766L68.8352 91.7695L75.2303 86.963ZM73.0047 80.0812L65.0074 80.2909C65.0077 80.3003 65.0079 80.3097 65.0082 80.319L73.0047 80.0812ZM76.4549 71.7648L81.766 77.7474C81.7696 77.7442 81.7731 77.7411 81.7767 77.7379L76.4549 71.7648ZM116.064 68.5421L117.717 76.3695C120.455 75.7914 123.568 75.9045 125.997 76.67L128.402 69.0401L130.807 61.4102C125.496 59.7359 119.568 59.626 114.412 60.7147L116.064 68.5421ZM128.402 69.0401L125.971 76.6618C127.378 77.1105 128.094 77.736 128.388 78.1635L134.978 73.628L141.568 69.0926C138.729 64.9666 134.598 62.6194 130.833 61.4185L128.402 69.0401ZM134.978 73.628L128.485 78.3013C128.265 77.9948 128.118 77.742 128.091 77.6971C128.038 77.6062 128 77.5369 127.984 77.5077C127.951 77.4472 127.935 77.4138 127.942 77.429C127.954 77.4521 127.988 77.519 128.045 77.6367C128.155 77.8641 128.303 78.176 128.449 78.4916C128.6 78.8166 128.721 79.0875 128.791 79.2484C128.835 79.3505 128.814 79.3091 128.77 79.1909C128.766 79.1803 128.655 78.8907 128.552 78.4923C128.528 78.4007 128.335 77.697 128.304 76.7744C128.293 76.4387 128.244 75.0415 128.918 73.4277C129.299 72.5163 130.047 71.2132 131.469 70.1365C132.985 68.9883 134.72 68.5148 136.297 68.5148V76.5148V84.5148C137.875 84.5148 139.611 84.0409 141.128 82.8921C142.551 81.8146 143.299 80.5105 143.681 79.5978C144.356 77.9814 144.307 76.5803 144.296 76.2395C144.264 75.3064 144.069 74.5874 144.04 74.4758C143.926 74.0373 143.795 73.6888 143.763 73.6032C143.663 73.335 143.554 73.079 143.487 72.9225C143.334 72.5663 143.142 72.1445 142.967 71.7671C142.788 71.3804 142.599 70.9803 142.44 70.6519C142.362 70.4917 142.277 70.3199 142.198 70.164C142.16 70.0896 142.104 69.9817 142.04 69.8642C142.009 69.8065 141.958 69.713 141.893 69.6028C141.855 69.5384 141.699 69.2709 141.471 68.9547L134.978 73.628ZM136.297 76.5148V68.5148H126.57V76.5148V84.5148H136.297V76.5148ZM126.57 76.5148H118.57V76.5235H126.57H134.57V76.5148H126.57ZM126.57 76.5235L133.797 73.0935C133.584 72.6442 133.291 72.0912 132.889 71.5011L126.279 76.0079L119.669 80.5148C119.49 80.251 119.385 80.0422 119.343 79.9536L126.57 76.5235ZM126.279 76.0079L132.934 71.568C128.728 65.2639 121.066 65.2183 116.652 66.6853C114.098 67.5345 111.369 69.1814 109.428 71.9205C107.363 74.8332 106.574 78.4634 107.331 82.2196L115.174 80.6388L123.016 79.0579C123.047 79.2144 123.081 79.5523 122.988 80.0017C122.895 80.4509 122.707 80.8538 122.481 81.1733C122.264 81.4795 122.049 81.6584 121.918 81.749C121.789 81.838 121.711 81.8647 121.699 81.8685C121.687 81.8726 121.687 81.872 121.682 81.8723C121.68 81.8725 121.612 81.8776 121.474 81.8477C121.233 81.7955 120.334 81.5122 119.624 80.4478L126.279 76.0079ZM115.174 80.6388L107.332 82.223C108.411 87.5626 112.248 91.1045 116.46 92.5514C120.548 93.9557 125.395 93.5644 129.382 90.8978L124.934 84.2481L120.487 77.5985C120.929 77.3029 121.341 77.3106 121.658 77.4193C121.856 77.4873 122.145 77.637 122.431 77.9441C122.74 78.2756 122.94 78.6831 123.015 79.0545L115.174 80.6388ZM124.934 84.2481L129.409 90.8798C130.636 90.052 131.69 88.8323 131.859 88.6438C132.299 88.1516 132.649 87.7242 132.683 87.683L126.493 82.6153L120.303 77.5477C120.322 77.5246 120.283 77.5727 120.209 77.6598C120.133 77.749 120.035 77.863 119.935 77.9755C119.885 78.0309 119.841 78.0792 119.804 78.119C119.765 78.1601 119.744 78.181 119.741 78.1846C119.74 78.1856 119.748 78.1778 119.764 78.1626C119.779 78.148 119.809 78.1201 119.852 78.0821C119.894 78.0453 119.961 77.987 120.052 77.9152C120.098 77.8785 120.154 77.8348 120.22 77.7861C120.285 77.7376 120.366 77.68 120.46 77.6165L124.934 84.2481ZM126.493 82.6153V90.6153H136.305V82.6153V74.6153H126.493V82.6153ZM136.305 82.6153L136.138 90.6136C134.378 90.5768 132.687 89.9608 131.32 88.8716C130.069 87.8738 129.396 86.7292 129.048 85.9779C128.412 84.6045 128.34 83.405 128.322 83.0763C128.273 82.2288 128.379 81.5687 128.394 81.4629C128.453 81.0678 128.53 80.7747 128.535 80.7537C128.569 80.6198 128.59 80.5578 128.565 80.6384C128.529 80.7563 128.459 80.9722 128.367 81.2466C128.279 81.5105 128.187 81.7746 128.117 81.9715C127.954 82.4321 128.054 82.1058 128.258 81.6808L135.474 85.1329L142.691 88.5851C142.946 88.0526 143.183 87.3582 143.195 87.3267C143.299 87.0317 143.421 86.68 143.534 86.3415C143.645 86.0135 143.767 85.6404 143.865 85.3196C143.907 85.181 143.981 84.9373 144.047 84.6764C144.068 84.592 144.156 84.2491 144.22 83.82C144.238 83.6972 144.344 83.0242 144.296 82.1678C144.277 81.8348 144.204 80.6319 143.567 79.2562C142.815 77.6317 140.62 74.7039 136.473 74.6171L136.305 82.6153ZM135.474 85.1329L128.311 81.5709C128.326 81.5411 128.05 82.0682 126.761 82.7094C125.517 83.3281 123.787 83.8082 121.834 83.9544C117.367 84.2886 114.927 82.8289 114.428 82.165L108.033 86.9718L101.638 91.7786C106.919 98.8039 116.213 100.42 123.028 99.9098C126.716 99.6338 130.515 98.7119 133.886 97.0352C137.212 95.3811 140.636 92.7197 142.638 88.6949L135.474 85.1329ZM108.033 86.9718L114.43 82.1684C114.393 82.1182 114.221 81.8487 114.057 81.3183C113.897 80.804 113.815 80.2706 113.803 79.8511L105.806 80.089L97.81 80.3268C97.9149 83.8528 99.0025 88.2684 101.636 91.7752L108.033 86.9718ZM105.806 80.089L113.803 79.8585C113.769 78.6911 114.082 78.1806 114.57 77.7462L109.249 71.7726L103.928 65.7989C99.5349 69.7118 97.6552 74.9573 97.8098 80.3194L105.806 80.089ZM109.249 71.7726L114.571 77.7457C115.148 77.231 116.157 76.6987 117.716 76.3696L116.064 68.5421L114.412 60.7146C111.005 61.4337 107.168 62.9119 103.927 65.7994L109.249 71.7726ZM149.466 68.5421L151.118 76.3695C153.856 75.7914 156.97 75.9045 159.398 76.67L161.804 69.0401L164.209 61.4102C158.897 59.7359 152.969 59.626 147.813 60.7147L149.466 68.5421ZM161.804 69.0401L159.372 76.6618C160.779 77.1105 161.495 77.736 161.79 78.1635L168.38 73.628L174.97 69.0926C172.13 64.9666 167.999 62.6194 164.235 61.4185L161.804 69.0401ZM168.38 73.628L161.887 78.3013C161.666 77.9948 161.519 77.742 161.493 77.6971C161.439 77.6062 161.401 77.5369 161.386 77.5077C161.353 77.4472 161.336 77.4138 161.344 77.429C161.355 77.4521 161.389 77.519 161.446 77.6367C161.556 77.8641 161.704 78.176 161.85 78.4916C162.001 78.8166 162.123 79.0875 162.192 79.2484C162.236 79.3505 162.216 79.3091 162.172 79.1909C162.168 79.1803 162.057 78.8907 161.953 78.4923C161.93 78.4007 161.737 77.697 161.706 76.7744C161.695 76.4387 161.645 75.0415 162.319 73.4277C162.7 72.5163 163.448 71.2132 164.87 70.1365C166.386 68.9883 168.121 68.5148 169.698 68.5148V76.5148V84.5148C171.276 84.5148 173.012 84.0409 174.529 82.8921C175.952 81.8146 176.7 80.5105 177.082 79.5978C177.757 77.9814 177.708 76.5803 177.697 76.2395C177.666 75.3064 177.47 74.5874 177.441 74.4758C177.327 74.0373 177.196 73.6888 177.164 73.6032C177.064 73.335 176.956 73.079 176.888 72.9225C176.735 72.5663 176.543 72.1445 176.369 71.7671C176.19 71.3804 176 70.9803 175.841 70.6519C175.763 70.4917 175.679 70.3199 175.599 70.164C175.561 70.0896 175.506 69.9817 175.442 69.8642C175.41 69.8065 175.359 69.713 175.294 69.6028C175.256 69.5384 175.1 69.2709 174.873 68.9547L168.38 73.628ZM169.698 76.5148V68.5148H159.971V76.5148V84.5148H169.698V76.5148ZM159.971 76.5148L167.199 73.0844C166.979 72.6217 166.686 72.0738 166.291 71.4941L159.68 76.0001L153.07 80.5061C152.897 80.2525 152.793 80.0474 152.744 79.9451L159.971 76.5148ZM159.68 76.0001L166.336 71.5606C164.241 68.4209 161.112 66.8279 158.374 66.1751C155.624 65.5192 152.694 65.6472 150.032 66.4794C147.366 67.3128 144.492 69.0159 142.507 71.9597C140.412 75.0657 139.815 78.8082 140.616 82.5475L148.438 80.8712L156.261 79.1948C156.256 79.1745 156.303 79.3875 156.237 79.7639C156.17 80.1496 156.011 80.551 155.771 80.9072C155.308 81.5944 154.816 81.7474 154.806 81.7507C154.799 81.7528 154.798 81.7708 154.663 81.7387C154.541 81.7097 153.716 81.4743 153.025 80.4396L159.68 76.0001ZM148.438 80.8712L140.614 82.5406C142.753 92.565 154.126 95.7304 163.595 91.0622L160.057 83.8868L156.52 76.7115C154.862 77.5288 154.422 77.1274 154.856 77.2863C155.164 77.399 155.984 77.8965 156.262 79.2018L148.438 80.8712ZM160.057 83.8868V75.8868H156.958V83.8868V91.8868H160.057V83.8868ZM156.958 83.8868H164.958V80.003H156.958H148.958V83.8868H156.958ZM156.958 80.003V88.003H169.707V80.003V72.003H156.958V80.003ZM169.707 80.003H161.707V91.1388H169.707H177.707V80.003H169.707ZM169.707 91.1388V83.1388H165.648V91.1388V99.1388H169.707V91.1388ZM165.648 91.1388L173.19 88.4695L172.496 86.5105L164.955 89.1798L157.413 91.849L158.107 93.808L165.648 91.1388ZM164.955 89.1798L160.746 82.3763C159.056 83.4218 156.069 84.1783 152.939 83.9611C149.664 83.7339 148.175 82.6254 147.828 82.1635L141.434 86.9718L135.041 91.7801C139.3 97.4439 146.19 99.5314 151.832 99.9228C157.619 100.324 164.09 99.1219 169.163 95.9833L164.955 89.1798ZM141.434 86.9718L147.832 82.1684C147.794 82.1182 147.622 81.8487 147.458 81.3183C147.298 80.804 147.217 80.2706 147.204 79.8511L139.208 80.089L131.211 80.3268C131.316 83.8528 132.404 88.2684 135.037 91.7752L141.434 86.9718ZM139.208 80.089L147.204 79.8585C147.171 78.6911 147.484 78.1806 147.971 77.7462L142.65 71.7726L137.329 65.7989C132.936 69.7118 131.057 74.9573 131.211 80.3194L139.208 80.089ZM142.65 71.7726L147.972 77.7457C148.55 77.231 149.559 76.6987 151.118 76.3696L149.466 68.5421L147.813 60.7146C144.406 61.4337 140.569 62.9119 137.328 65.7994L142.65 71.7726ZM83.2703 68.5333L84.9067 76.3642C87.6664 75.7875 90.778 75.9008 93.1885 76.6661L95.6092 69.0411L98.0298 61.4161C92.7001 59.7241 86.7686 59.6295 81.634 60.7024L83.2703 68.5333ZM95.6092 69.0411L93.1778 76.6627C94.5837 77.1112 95.2996 77.7363 95.5942 78.1643L102.184 73.629L108.775 69.0937C105.936 64.9683 101.806 62.6207 98.0405 61.4195L95.6092 69.0411ZM102.184 73.629L95.6897 78.3001C95.4703 77.9951 95.3242 77.7437 95.2977 77.6986C95.2445 77.608 95.2067 77.5388 95.1908 77.5096C95.1579 77.4493 95.1412 77.4159 95.1489 77.4309C95.1606 77.4539 95.1939 77.5206 95.2509 77.6379C95.361 77.8647 95.5085 78.1758 95.6546 78.491C95.8049 78.8153 95.9271 79.0866 95.9969 79.2487C96.0408 79.3506 96.0223 79.3127 95.9798 79.1992C95.9751 79.1867 95.8694 78.9118 95.7689 78.5325C95.7425 78.4329 95.5656 77.7928 95.5189 76.9497C95.5009 76.6263 95.4367 75.4224 95.9171 73.9822C96.18 73.194 96.7266 71.9684 97.8772 70.8294C99.1357 69.5836 100.772 68.791 102.529 68.5753L103.504 76.5157L104.478 84.4561C108.64 83.9454 110.524 80.756 111.095 79.0445C111.576 77.6014 111.513 76.3933 111.494 76.0645C111.447 75.2106 111.267 74.5547 111.235 74.4346C111.124 74.0143 110.998 73.6799 110.965 73.5917C110.866 73.327 110.758 73.0738 110.691 72.9166C110.537 72.5608 110.346 72.14 110.171 71.7631C109.992 71.3771 109.803 70.9778 109.644 70.6502C109.567 70.4904 109.482 70.3189 109.403 70.1633C109.365 70.089 109.31 69.9813 109.246 69.864C109.214 69.8064 109.163 69.7132 109.099 69.6032C109.061 69.5387 108.905 69.2726 108.679 68.9579L102.184 73.629ZM103.504 76.5157V68.5157H93.7684V76.5157V84.5157H103.504V76.5157ZM93.7684 76.5157L100.996 73.0859C100.782 72.6357 100.489 72.0831 100.087 71.4938L93.4773 76.0001L86.8672 80.5064C86.688 80.2434 86.5833 80.035 86.5409 79.9455L93.7684 76.5157ZM93.4773 76.0001L100.132 71.5606C95.9268 65.256 88.264 65.2101 83.8504 66.6772C81.2958 67.5263 78.5672 69.1733 76.6256 71.9127C74.5608 74.8257 73.7723 78.456 74.5297 82.2123L82.3719 80.631L90.214 79.0496C90.2455 79.206 90.2795 79.5438 90.1864 79.9933C90.0933 80.4426 89.9056 80.8455 89.679 81.1651C89.462 81.4713 89.2468 81.6502 89.1159 81.7409C88.9874 81.8299 88.9086 81.8566 88.8972 81.8604C88.8847 81.8645 88.8847 81.864 88.8803 81.8642C88.8778 81.8644 88.8096 81.8696 88.672 81.8397C88.4314 81.7874 87.5323 81.504 86.8222 80.4396L93.4773 76.0001ZM82.3719 80.631L74.5303 82.2152C75.6091 87.5551 79.4461 91.097 83.6586 92.5436C87.747 93.9475 92.5945 93.5554 96.5808 90.8887L92.1326 84.2394L87.6844 77.59C88.1259 77.2947 88.5383 77.3022 88.8551 77.4109C89.0532 77.479 89.343 77.6288 89.629 77.936C89.9379 78.2678 90.1384 78.6754 90.2134 79.0467L82.3719 80.631ZM92.1326 84.2394L96.6079 90.8705C97.8315 90.0447 98.8833 88.8295 99.0528 88.6403C99.4925 88.1493 99.843 87.7222 99.881 87.6757L93.6912 82.6075L87.5014 77.5393C87.5214 77.5149 87.4822 77.563 87.4078 77.6509C87.3321 77.7403 87.2341 77.8541 87.1336 77.9663C87.0842 78.0215 87.0402 78.0696 87.003 78.1092C86.9646 78.1502 86.944 78.171 86.9405 78.1744C86.9396 78.1753 86.9474 78.1675 86.9634 78.1524C86.9788 78.1378 87.0088 78.1099 87.0517 78.0721C87.0935 78.0353 87.1609 77.9773 87.2509 77.9057C87.2969 77.8691 87.353 77.8256 87.4185 77.7771C87.4837 77.7288 87.5637 77.6714 87.6573 77.6082L92.1326 84.2394ZM93.6912 82.6075V90.6075H103.504V82.6075V74.6075H93.6912V82.6075ZM103.504 82.6075L101.789 90.4216C97.8155 89.5496 96.35 86.3563 95.9744 85.3078C95.5552 84.1378 95.5188 83.1575 95.5098 82.8472C95.4881 82.0969 95.5824 81.5166 95.6001 81.403C95.6577 81.0335 95.7293 80.7606 95.7352 80.7371C95.7677 80.6096 95.787 80.5524 95.7624 80.6326C95.7259 80.752 95.6559 80.9682 95.5641 81.2415C95.4757 81.5047 95.3848 81.7677 95.3152 81.9638C95.2795 82.0643 95.2572 82.1251 95.2479 82.1498C95.1881 82.3096 95.287 82.026 95.4519 81.6801L102.673 85.1241L109.893 88.5681C110.145 88.0407 110.38 87.3544 110.392 87.3191C110.497 87.025 110.618 86.6746 110.731 86.3371C110.841 86.0098 110.963 85.6382 111.061 85.3184C111.104 85.1789 111.176 84.9393 111.241 84.6834C111.263 84.5958 111.346 84.2723 111.409 83.8678C111.43 83.7368 111.525 83.1429 111.503 82.3832C111.494 82.0682 111.457 81.0843 111.037 79.9117C110.66 78.8606 109.194 75.6658 105.218 74.7935L103.504 82.6075ZM102.673 85.1241L95.5092 81.5624C95.5241 81.5325 95.2479 82.0596 93.9587 82.7009C92.7149 83.3196 90.9852 83.7997 89.032 83.9459C84.5644 84.2802 82.1243 82.8203 81.6254 82.1565L75.2303 86.963L68.8352 91.7695C74.1158 98.7954 83.4104 100.411 90.2259 99.9013C93.9142 99.6253 97.7132 98.7034 101.084 97.0266C104.41 95.3725 107.835 92.7109 109.836 88.6858L102.673 85.1241ZM75.2303 86.963L81.628 82.16C81.5904 82.1099 81.4189 81.8408 81.2546 81.3108C81.0953 80.7969 81.0136 80.2634 81.0011 79.8433L73.0047 80.0812L65.0082 80.319C65.1131 83.8436 66.1994 88.2586 68.8325 91.766L75.2303 86.963ZM73.0047 80.0812L81.0019 79.8714C80.9705 78.6742 81.2897 78.1702 81.766 77.7474L76.4549 71.7648L71.1438 65.7821C66.723 69.7066 64.8676 74.9587 65.0074 80.2909L73.0047 80.0812ZM76.4549 71.7648L81.7767 77.7379C82.3556 77.2221 83.3656 76.6895 84.9226 76.3608L83.2703 68.5333L81.618 60.7058C78.2091 61.4254 74.3728 62.9051 71.1331 65.7916L76.4549 71.7648Z" fill="#E6E2DE" mask="url(#path-4-outside-1_1195_219)"/>
</svg>
