<svg width="242" height="176" viewBox="0 0 242 176" fill="none" xmlns="http://www.w3.org/2000/svg">
<rect y="15.0557" width="242" height="160" rx="12" fill="#E6E2DE"/>
<path d="M75.4195 90.2957C72.1875 90.2957 69.6595 87.6717 69.6595 84.2957C69.6595 80.9357 72.1875 78.3277 75.4195 78.3277C78.4435 78.3277 80.8115 80.3437 81.2115 83.2877H78.6355C78.3635 81.6397 77.0835 80.5037 75.4515 80.5037C73.4835 80.5037 72.1555 82.0557 72.1555 84.2957C72.1555 86.5517 73.4835 88.1197 75.4515 88.1197C77.0835 88.1197 78.3475 86.9677 78.6355 85.3197H81.2115C80.8115 88.2957 78.4435 90.2957 75.4195 90.2957ZM86.3336 90.2157C83.8536 90.2157 81.9976 88.2637 81.9976 85.7837C81.9976 83.2877 83.8536 81.3517 86.3336 81.3517C88.8136 81.3517 90.6696 83.2877 90.6696 85.7837C90.6696 88.2637 88.8136 90.2157 86.3336 90.2157ZM86.3336 88.2477C87.4376 88.2477 88.3816 87.3677 88.3816 85.7837C88.3816 84.1997 87.4376 83.3357 86.3336 83.3357C85.2296 83.3357 84.2856 84.1997 84.2856 85.7837C84.2856 87.3677 85.2296 88.2477 86.3336 88.2477ZM95.5289 90.2157C93.0649 90.2157 91.3689 88.3917 91.3689 85.7837C91.3689 83.2237 93.1289 81.3517 95.5289 81.3517C97.7529 81.3517 99.4009 82.8557 99.6729 85.1597H97.3369C97.2249 84.0237 96.5369 83.3197 95.5289 83.3197C94.3769 83.3197 93.6409 84.2637 93.6409 85.7837C93.6409 87.3197 94.3609 88.2477 95.5289 88.2477C96.5529 88.2477 97.2089 87.5757 97.3369 86.4077H99.6729C99.4169 88.7597 97.8169 90.2157 95.5289 90.2157ZM103.517 79.5277C103.517 80.2797 102.909 80.8397 102.029 80.8397C101.165 80.8397 100.557 80.2797 100.557 79.5277C100.557 78.7437 101.165 78.1837 102.029 78.1837C102.909 78.1837 103.517 78.7437 103.517 79.5277ZM103.165 90.0557H100.941V81.5117H103.165V90.0557ZM107.208 85.3997V90.0557H104.984V81.5117H107.032V82.7277C107.656 81.8797 108.536 81.3517 109.656 81.3517C111.368 81.3517 112.552 82.4717 112.552 84.5357V90.0557H110.344V85.2877C110.344 84.0237 109.848 83.3197 108.84 83.3197C107.96 83.3197 107.208 84.0237 107.208 85.3997ZM119.396 90.0557V88.9997C118.836 89.7997 117.988 90.2157 116.82 90.2157C115.044 90.2157 113.86 89.1757 113.86 87.5757C113.86 85.9117 115.204 85.0157 117.7 85.0157C118.18 85.0157 118.596 85.0477 119.124 85.1117V84.5997C119.124 83.6397 118.58 83.0797 117.652 83.0797C116.692 83.0797 116.116 83.6397 116.036 84.5997H114.036C114.164 82.6317 115.588 81.3517 117.652 81.3517C119.892 81.3517 121.204 82.5837 121.204 84.6797V90.0557H119.396ZM115.956 87.5117C115.956 88.2317 116.468 88.6797 117.3 88.6797C118.436 88.6797 119.124 88.0557 119.124 87.0637V86.4557C118.596 86.3757 118.228 86.3437 117.844 86.3437C116.58 86.3437 115.956 86.7437 115.956 87.5117ZM130.177 87.3197C130.177 89.1117 128.817 90.2157 126.385 90.2157C123.953 90.2157 122.593 89.0477 122.417 87.1437H124.545C124.561 88.0237 125.313 88.5837 126.417 88.5837C127.281 88.5837 127.937 88.3117 127.937 87.7037C127.937 87.1597 127.585 86.9357 126.769 86.7757L125.233 86.4877C123.697 86.2157 122.769 85.3677 122.769 84.0397C122.769 82.4557 124.129 81.3517 126.257 81.3517C128.401 81.3517 129.873 82.4877 130.033 84.3277H127.905C127.825 83.4957 127.201 82.9837 126.257 82.9837C125.441 82.9837 124.897 83.2877 124.897 83.8317C124.897 84.3437 125.249 84.5517 126.017 84.6957L127.665 84.9997C129.329 85.3197 130.177 86.0877 130.177 87.3197ZM139.999 90.2957C136.767 90.2957 134.239 87.6717 134.239 84.2957C134.239 80.9357 136.767 78.3277 139.999 78.3277C143.023 78.3277 145.391 80.3437 145.791 83.2877H143.215C142.943 81.6397 141.663 80.5037 140.031 80.5037C138.063 80.5037 136.735 82.0557 136.735 84.2957C136.735 86.5517 138.063 88.1197 140.031 88.1197C141.663 88.1197 142.927 86.9677 143.215 85.3197H145.791C145.391 88.2957 143.023 90.2957 139.999 90.2957ZM149.361 85.3997V90.0557H147.137V78.5677H149.361V82.6317C149.953 81.8477 150.689 81.3517 151.809 81.3517C153.521 81.3517 154.705 82.4717 154.705 84.5357V90.0557H152.497V85.2877C152.497 84.0237 152.001 83.3197 150.993 83.3197C150.113 83.3197 149.361 84.0237 149.361 85.3997ZM159.037 79.5277C159.037 80.2797 158.429 80.8397 157.549 80.8397C156.685 80.8397 156.077 80.2797 156.077 79.5277C156.077 78.7437 156.685 78.1837 157.549 78.1837C158.429 78.1837 159.037 78.7437 159.037 79.5277ZM158.685 90.0557H156.461V81.5117H158.685V90.0557ZM162.744 90.0557H160.504V78.5677H162.744V90.0557ZM168.291 90.1997C165.731 90.1997 164.019 88.4237 164.019 85.7517C164.019 83.2077 165.795 81.3517 168.259 81.3517C170.963 81.3517 172.755 83.5437 172.355 86.3277H166.291C166.435 87.7197 167.107 88.4877 168.243 88.4877C169.219 88.4877 169.875 88.0077 170.131 87.1597H172.339C171.859 89.0957 170.371 90.1997 168.291 90.1997ZM168.211 82.9837C167.171 82.9837 166.515 83.6557 166.323 84.9197H170.003C169.939 83.7357 169.267 82.9837 168.211 82.9837Z" fill="#1A1A1A"/>
<path d="M81.0182 110.056L78.8902 102.174L76.7482 110.056H75.1662L72.5482 100.004H74.0602L75.9922 107.746L78.1062 100.004H79.7022L81.7882 107.76L83.7202 100.004H85.2322L82.6142 110.056H81.0182ZM88.6394 110.196C86.4974 110.196 85.0554 108.642 85.0554 106.304C85.0554 104.106 86.5534 102.496 88.5974 102.496C90.8094 102.496 92.2794 104.288 92.0274 106.696H86.4974C86.6094 108.208 87.3654 109.09 88.6114 109.09C89.6614 109.09 90.3894 108.516 90.6274 107.55H92.0274C91.6634 109.202 90.3894 110.196 88.6394 110.196ZM88.5694 103.56C87.4354 103.56 86.6654 104.372 86.5114 105.758H90.5294C90.4594 104.386 89.7174 103.56 88.5694 103.56ZM100.335 106.346C100.335 108.572 99.0467 110.196 97.0447 110.196C95.9947 110.196 95.0987 109.664 94.5667 108.726V110.056H93.2507V100.004H94.6647V103.91C95.1827 103 96.0367 102.496 97.0447 102.496C99.0327 102.496 100.335 104.092 100.335 106.346ZM98.8647 106.346C98.8647 104.666 97.9827 103.742 96.7647 103.742C95.5887 103.742 94.6647 104.652 94.6647 106.318C94.6647 107.956 95.5607 108.936 96.7647 108.936C97.9827 108.936 98.8647 107.998 98.8647 106.346ZM107.368 107.844C107.368 109.3 106.234 110.196 104.26 110.196C102.3 110.196 101.138 109.23 100.998 107.634H102.356C102.412 108.558 103.154 109.132 104.288 109.132C105.282 109.132 105.94 108.782 105.94 108.082C105.94 107.466 105.562 107.2 104.638 107.018L103.434 106.794C102.062 106.528 101.292 105.828 101.292 104.708C101.292 103.406 102.426 102.496 104.148 102.496C105.926 102.496 107.13 103.448 107.256 104.974H105.898C105.814 104.078 105.156 103.56 104.162 103.56C103.266 103.56 102.664 103.938 102.664 104.582C102.664 105.184 103.042 105.464 103.938 105.632L105.198 105.87C106.668 106.136 107.368 106.78 107.368 107.844ZM110.354 100.914C110.354 101.446 109.934 101.852 109.332 101.852C108.73 101.852 108.296 101.446 108.296 100.914C108.296 100.368 108.73 99.9757 109.332 99.9757C109.934 99.9757 110.354 100.368 110.354 100.914ZM110.046 110.056H108.632V102.636H110.046V110.056ZM115.915 108.684V109.93C115.481 110.126 115.103 110.196 114.655 110.196C113.283 110.196 112.331 109.454 112.331 107.816V103.84H110.693V102.636H112.331V100.438H113.745V102.636H115.985V103.84H113.745V107.494C113.745 108.516 114.235 108.88 114.991 108.88C115.327 108.88 115.621 108.824 115.915 108.684ZM119.901 110.196C117.759 110.196 116.317 108.642 116.317 106.304C116.317 104.106 117.815 102.496 119.859 102.496C122.071 102.496 123.541 104.288 123.289 106.696H117.759C117.871 108.208 118.627 109.09 119.873 109.09C120.923 109.09 121.651 108.516 121.889 107.55H123.289C122.925 109.202 121.651 110.196 119.901 110.196ZM119.831 103.56C118.697 103.56 117.927 104.372 117.773 105.758H121.791C121.721 104.386 120.979 103.56 119.831 103.56ZM130.449 110.056H127.271V100.004H130.449C133.655 100.004 135.503 102.048 135.503 104.988C135.503 107.886 133.585 110.056 130.449 110.056ZM128.811 101.334V108.726H130.379C132.689 108.726 133.935 107.298 133.935 104.988C133.935 102.72 132.703 101.334 130.379 101.334H128.811ZM139.774 110.196C137.632 110.196 136.19 108.642 136.19 106.304C136.19 104.106 137.688 102.496 139.732 102.496C141.944 102.496 143.414 104.288 143.162 106.696H137.632C137.744 108.208 138.5 109.09 139.746 109.09C140.796 109.09 141.524 108.516 141.762 107.55H143.162C142.798 109.202 141.524 110.196 139.774 110.196ZM139.704 103.56C138.57 103.56 137.8 104.372 137.646 105.758H141.664C141.594 104.386 140.852 103.56 139.704 103.56ZM150.266 107.844C150.266 109.3 149.132 110.196 147.158 110.196C145.198 110.196 144.036 109.23 143.896 107.634H145.254C145.31 108.558 146.052 109.132 147.186 109.132C148.18 109.132 148.838 108.782 148.838 108.082C148.838 107.466 148.46 107.2 147.536 107.018L146.332 106.794C144.96 106.528 144.19 105.828 144.19 104.708C144.19 103.406 145.324 102.496 147.046 102.496C148.824 102.496 150.028 103.448 150.154 104.974H148.796C148.712 104.078 148.054 103.56 147.06 103.56C146.164 103.56 145.562 103.938 145.562 104.582C145.562 105.184 145.94 105.464 146.836 105.632L148.096 105.87C149.566 106.136 150.266 106.78 150.266 107.844ZM153.252 100.914C153.252 101.446 152.832 101.852 152.23 101.852C151.628 101.852 151.194 101.446 151.194 100.914C151.194 100.368 151.628 99.9757 152.23 99.9757C152.832 99.9757 153.252 100.368 153.252 100.914ZM152.944 110.056H151.53V102.636H152.944V110.056ZM157.595 112.912C155.649 112.912 154.389 111.876 154.305 110.196H155.677C155.761 111.232 156.433 111.792 157.581 111.792C158.855 111.792 159.527 111.106 159.527 109.832V108.488C159.107 109.384 158.267 109.902 157.259 109.902C155.411 109.902 154.095 108.376 154.095 106.192C154.095 103.98 155.355 102.496 157.217 102.496C158.281 102.496 159.121 103.014 159.625 103.952V102.636H160.941V109.804C160.941 111.75 159.695 112.912 157.595 112.912ZM155.523 106.192C155.523 107.732 156.279 108.67 157.511 108.67C158.715 108.67 159.527 107.704 159.527 106.234C159.527 104.694 158.729 103.714 157.511 103.714C156.293 103.714 155.523 104.666 155.523 106.192ZM164.032 105.87V110.056H162.618V102.636H163.934V103.868C164.438 103.042 165.278 102.496 166.3 102.496C167.826 102.496 168.834 103.476 168.834 105.254V110.056H167.42V105.73C167.42 104.456 166.86 103.742 165.81 103.742C164.844 103.742 164.032 104.554 164.032 105.87Z" fill="#1A1A1A"/>
<mask id="path-4-outside-1_1116_39" maskUnits="userSpaceOnUse" x="37.25" y="0" width="167" height="32" fill="black">
<rect fill="white" x="37.25" width="167" height="32"/>
<path d="M52.7529 8C53.8074 8 54.7767 8.19969 55.6602 8.59863C56.5436 8.9976 57.3205 9.56048 57.9902 10.2871C58.66 10.9996 59.1947 11.8407 59.5938 12.8096H58.2256C57.6841 11.6983 56.936 10.8219 55.9814 10.1807C55.0266 9.53936 53.95 9.21875 52.7529 9.21875C51.6414 9.2188 50.6081 9.50422 49.6533 10.0742C48.7129 10.6442 47.9649 11.4211 47.4092 12.4043C46.8535 13.3876 46.5752 14.4851 46.5752 15.6963C46.5753 16.9075 46.8535 18.0051 47.4092 18.9883C47.965 19.9714 48.7129 20.7484 49.6533 21.3184C50.6081 21.8884 51.6414 22.1728 52.7529 22.1729C53.9785 22.1729 55.0759 21.8522 56.0449 21.2109C57.014 20.5697 57.7628 19.6935 58.29 18.582H59.6582C59.2734 19.551 58.7387 20.3992 58.0547 21.126C57.3849 21.8384 56.5936 22.394 55.6816 22.793C54.7839 23.192 53.8074 23.3916 52.7529 23.3916C51.3992 23.3916 50.1454 23.0492 48.9912 22.3652C47.8512 21.6813 46.9389 20.7481 46.2549 19.5654C45.5851 18.3827 45.2501 17.0927 45.25 15.6963C45.25 14.2998 45.5852 13.0099 46.2549 11.8271C46.9389 10.6443 47.8511 9.71042 48.9912 9.02637C50.1454 8.34244 51.3993 8.00005 52.7529 8ZM68.5381 8C69.9347 8 71.2181 8.34231 72.3867 9.02637C73.5552 9.71041 74.4738 10.6444 75.1436 11.8271C75.8133 13.0099 76.1484 14.2998 76.1484 15.6963C76.1484 17.0927 75.8133 18.3827 75.1436 19.5654C74.4738 20.7479 73.555 21.6813 72.3867 22.3652C71.2181 23.0493 69.9347 23.3916 68.5381 23.3916C67.1417 23.3915 65.8589 23.0492 64.6904 22.3652C63.5364 21.6813 62.6176 20.7479 61.9336 19.5654C61.2639 18.3827 60.9288 17.0927 60.9287 15.6963C60.9287 14.2997 61.2639 13.0099 61.9336 11.8271C62.6176 10.6444 63.5362 9.71041 64.6904 9.02637C65.8589 8.34239 67.1417 8.00008 68.5381 8ZM85.1543 8C86.2088 8.00004 87.178 8.19964 88.0615 8.59863C88.945 8.99764 89.7219 9.56039 90.3916 10.2871C91.0613 10.9995 91.5951 11.8407 91.9941 12.8096H90.626C90.0845 11.6982 89.3365 10.8219 88.3818 10.1807C87.4271 9.53943 86.3513 9.21881 85.1543 9.21875C84.0427 9.21875 83.0095 9.5042 82.0547 10.0742C81.1141 10.6443 80.3654 11.421 79.8096 12.4043C79.2539 13.3875 78.9766 14.4851 78.9766 15.6963C78.9766 16.9075 79.2538 18.0051 79.8096 18.9883C80.3654 19.9715 81.1142 20.7484 82.0547 21.3184C83.0094 21.8882 84.0429 22.1729 85.1543 22.1729C86.3798 22.1728 87.4773 21.8522 88.4463 21.2109C89.4152 20.5697 90.1632 19.6934 90.6904 18.582H92.0586C91.6738 19.551 91.1391 20.3992 90.4551 21.126C89.7854 21.8383 88.9948 22.394 88.083 22.793C87.1853 23.192 86.2088 23.3916 85.1543 23.3916C83.8004 23.3916 82.5459 23.0493 81.3916 22.3652C80.2516 21.6812 79.3393 20.7481 78.6553 19.5654C77.9855 18.3827 77.6505 17.0927 77.6504 15.6963C77.6504 14.2999 77.9856 13.0099 78.6553 11.8271C79.3393 10.6443 80.2515 9.71042 81.3916 9.02637C82.5459 8.34231 83.8004 8 85.1543 8ZM131.712 8C132.524 8 133.266 8.1852 133.936 8.55566C134.62 8.91194 135.169 9.41143 135.582 10.0527C135.995 10.6939 136.208 11.3996 136.223 12.1689H134.94C134.926 11.6274 134.776 11.1351 134.491 10.6934C134.22 10.2517 133.836 9.8957 133.337 9.625C132.838 9.35427 132.275 9.21878 131.648 9.21875C131.036 9.21875 130.486 9.3253 130.002 9.53906C129.532 9.75278 129.161 10.0664 128.891 10.4795C128.62 10.8784 128.484 11.342 128.484 11.8691C128.484 12.4819 128.642 12.9877 128.955 13.3867C129.269 13.7715 129.661 14.0714 130.131 14.2852C130.601 14.4989 131.243 14.741 132.055 15.0117C133.009 15.311 133.779 15.6099 134.363 15.9092C134.962 16.1942 135.46 16.6223 135.859 17.1924C136.273 17.7481 136.479 18.4889 136.479 19.415C136.479 20.1846 136.273 20.8765 135.859 21.4893C135.446 22.0876 134.876 22.5574 134.149 22.8994C133.437 23.2272 132.638 23.3916 131.755 23.3916C130.758 23.3916 129.888 23.1991 129.147 22.8145C128.406 22.4297 127.829 21.895 127.416 21.2109C127.017 20.5269 126.803 19.7574 126.774 18.9023H128.057C128.085 19.5009 128.242 20.05 128.527 20.5488C128.812 21.0474 129.226 21.4459 129.768 21.7451C130.323 22.03 130.986 22.1728 131.755 22.1729C132.467 22.1729 133.081 22.0518 133.594 21.8096C134.107 21.5673 134.492 21.2394 134.748 20.8262C135.019 20.3987 135.154 19.928 135.154 19.415C135.154 18.7597 134.99 18.2257 134.662 17.8125C134.334 17.3993 133.921 17.0786 133.423 16.8506C132.938 16.6226 132.283 16.3796 131.456 16.123C130.516 15.8096 129.76 15.5178 129.19 15.2471C128.635 14.9763 128.157 14.5699 127.758 14.0283C127.359 13.4725 127.159 12.7527 127.159 11.8691C127.159 11.1283 127.359 10.466 127.758 9.88184C128.157 9.29754 128.699 8.84145 129.383 8.51367C130.081 8.17179 130.857 8.00006 131.712 8ZM150.5 8C151.555 8.00001 152.524 8.19961 153.407 8.59863C154.291 8.99763 155.068 9.5604 155.737 10.2871C156.407 10.9996 156.942 11.8406 157.341 12.8096H155.973C155.431 11.6981 154.682 10.8219 153.728 10.1807C152.773 9.53946 151.697 9.21876 150.5 9.21875C149.388 9.21875 148.355 9.50417 147.4 10.0742C146.46 10.6443 145.712 11.421 145.156 12.4043C144.601 13.3876 144.322 14.485 144.322 15.6963C144.322 16.9075 144.601 18.0051 145.156 18.9883C145.712 19.9714 146.46 20.7484 147.4 21.3184C148.355 21.8883 149.389 22.1729 150.5 22.1729C151.726 22.1728 152.823 21.8522 153.792 21.2109C154.761 20.5697 155.509 19.6934 156.036 18.582H157.404C157.02 19.5509 156.486 20.3993 155.802 21.126C155.132 21.8385 154.341 22.3939 153.429 22.793C152.531 23.192 151.555 23.3916 150.5 23.3916C149.146 23.3916 147.892 23.0493 146.737 22.3652C145.597 21.6812 144.685 20.7481 144.001 19.5654C143.331 18.3827 142.997 17.0927 142.997 15.6963C142.997 14.2999 143.331 13.0098 144.001 11.8271C144.685 10.6444 145.597 9.71041 146.737 9.02637C147.892 8.34231 149.146 8 150.5 8ZM95.6162 23.1777H94.334V8.21387H95.6162V23.1777ZM110.274 20.8213V8.21387H111.535V23.1777H110.702L100.27 10.5693V23.1777H99.0088V8.21387H99.8428L110.274 20.8213ZM126.27 23.1777H124.88L123.196 18.9023H116.236L114.534 23.1777H113.188L119.236 8.21387H120.198L126.27 23.1777ZM160.855 14.7979H169.363V8.21387H170.646V23.1777H169.363V16.0166H160.855V23.1777H159.573V8.21387H160.855V14.7979ZM175.325 23.1777H174.043V8.21387H175.325V23.1777ZM180 21.959H186.156V23.1777H178.718V8.21387H180V21.959ZM195.786 9.43262H189.416V14.7979H195.572V16.0166H189.416V21.959H196V23.1777H188.134V8.21387H195.786V9.43262ZM68.5381 9.21875C67.384 9.21883 66.3224 9.51061 65.3535 10.0947C64.3988 10.6647 63.6437 11.4417 63.0879 12.4248C62.5321 13.4081 62.2539 14.4992 62.2539 15.6963C62.254 16.8932 62.5322 17.9836 63.0879 18.9668C63.6437 19.9499 64.3988 20.7341 65.3535 21.3184C66.3224 21.8882 67.384 22.1728 68.5381 22.1729C69.6923 22.1729 70.7474 21.8883 71.7021 21.3184C72.6711 20.7341 73.4335 19.9499 73.9893 18.9668C74.5592 17.9836 74.8447 16.8932 74.8447 15.6963C74.8447 14.4992 74.5593 13.4081 73.9893 12.4248C73.4335 11.4417 72.6711 10.6647 71.7021 10.0947C70.7474 9.51056 69.6923 9.21875 68.5381 9.21875ZM116.726 17.6836H122.709L119.707 10.1436L116.726 17.6836Z"/>
</mask>
<path d="M52.7529 8C53.8074 8 54.7767 8.19969 55.6602 8.59863C56.5436 8.9976 57.3205 9.56048 57.9902 10.2871C58.66 10.9996 59.1947 11.8407 59.5938 12.8096H58.2256C57.6841 11.6983 56.936 10.8219 55.9814 10.1807C55.0266 9.53936 53.95 9.21875 52.7529 9.21875C51.6414 9.2188 50.6081 9.50422 49.6533 10.0742C48.7129 10.6442 47.9649 11.4211 47.4092 12.4043C46.8535 13.3876 46.5752 14.4851 46.5752 15.6963C46.5753 16.9075 46.8535 18.0051 47.4092 18.9883C47.965 19.9714 48.7129 20.7484 49.6533 21.3184C50.6081 21.8884 51.6414 22.1728 52.7529 22.1729C53.9785 22.1729 55.0759 21.8522 56.0449 21.2109C57.014 20.5697 57.7628 19.6935 58.29 18.582H59.6582C59.2734 19.551 58.7387 20.3992 58.0547 21.126C57.3849 21.8384 56.5936 22.394 55.6816 22.793C54.7839 23.192 53.8074 23.3916 52.7529 23.3916C51.3992 23.3916 50.1454 23.0492 48.9912 22.3652C47.8512 21.6813 46.9389 20.7481 46.2549 19.5654C45.5851 18.3827 45.2501 17.0927 45.25 15.6963C45.25 14.2998 45.5852 13.0099 46.2549 11.8271C46.9389 10.6443 47.8511 9.71042 48.9912 9.02637C50.1454 8.34244 51.3993 8.00005 52.7529 8ZM68.5381 8C69.9347 8 71.2181 8.34231 72.3867 9.02637C73.5552 9.71041 74.4738 10.6444 75.1436 11.8271C75.8133 13.0099 76.1484 14.2998 76.1484 15.6963C76.1484 17.0927 75.8133 18.3827 75.1436 19.5654C74.4738 20.7479 73.555 21.6813 72.3867 22.3652C71.2181 23.0493 69.9347 23.3916 68.5381 23.3916C67.1417 23.3915 65.8589 23.0492 64.6904 22.3652C63.5364 21.6813 62.6176 20.7479 61.9336 19.5654C61.2639 18.3827 60.9288 17.0927 60.9287 15.6963C60.9287 14.2997 61.2639 13.0099 61.9336 11.8271C62.6176 10.6444 63.5362 9.71041 64.6904 9.02637C65.8589 8.34239 67.1417 8.00008 68.5381 8ZM85.1543 8C86.2088 8.00004 87.178 8.19964 88.0615 8.59863C88.945 8.99764 89.7219 9.56039 90.3916 10.2871C91.0613 10.9995 91.5951 11.8407 91.9941 12.8096H90.626C90.0845 11.6982 89.3365 10.8219 88.3818 10.1807C87.4271 9.53943 86.3513 9.21881 85.1543 9.21875C84.0427 9.21875 83.0095 9.5042 82.0547 10.0742C81.1141 10.6443 80.3654 11.421 79.8096 12.4043C79.2539 13.3875 78.9766 14.4851 78.9766 15.6963C78.9766 16.9075 79.2538 18.0051 79.8096 18.9883C80.3654 19.9715 81.1142 20.7484 82.0547 21.3184C83.0094 21.8882 84.0429 22.1729 85.1543 22.1729C86.3798 22.1728 87.4773 21.8522 88.4463 21.2109C89.4152 20.5697 90.1632 19.6934 90.6904 18.582H92.0586C91.6738 19.551 91.1391 20.3992 90.4551 21.126C89.7854 21.8383 88.9948 22.394 88.083 22.793C87.1853 23.192 86.2088 23.3916 85.1543 23.3916C83.8004 23.3916 82.5459 23.0493 81.3916 22.3652C80.2516 21.6812 79.3393 20.7481 78.6553 19.5654C77.9855 18.3827 77.6505 17.0927 77.6504 15.6963C77.6504 14.2999 77.9856 13.0099 78.6553 11.8271C79.3393 10.6443 80.2515 9.71042 81.3916 9.02637C82.5459 8.34231 83.8004 8 85.1543 8ZM131.712 8C132.524 8 133.266 8.1852 133.936 8.55566C134.62 8.91194 135.169 9.41143 135.582 10.0527C135.995 10.6939 136.208 11.3996 136.223 12.1689H134.94C134.926 11.6274 134.776 11.1351 134.491 10.6934C134.22 10.2517 133.836 9.8957 133.337 9.625C132.838 9.35427 132.275 9.21878 131.648 9.21875C131.036 9.21875 130.486 9.3253 130.002 9.53906C129.532 9.75278 129.161 10.0664 128.891 10.4795C128.62 10.8784 128.484 11.342 128.484 11.8691C128.484 12.4819 128.642 12.9877 128.955 13.3867C129.269 13.7715 129.661 14.0714 130.131 14.2852C130.601 14.4989 131.243 14.741 132.055 15.0117C133.009 15.311 133.779 15.6099 134.363 15.9092C134.962 16.1942 135.46 16.6223 135.859 17.1924C136.273 17.7481 136.479 18.4889 136.479 19.415C136.479 20.1846 136.273 20.8765 135.859 21.4893C135.446 22.0876 134.876 22.5574 134.149 22.8994C133.437 23.2272 132.638 23.3916 131.755 23.3916C130.758 23.3916 129.888 23.1991 129.147 22.8145C128.406 22.4297 127.829 21.895 127.416 21.2109C127.017 20.5269 126.803 19.7574 126.774 18.9023H128.057C128.085 19.5009 128.242 20.05 128.527 20.5488C128.812 21.0474 129.226 21.4459 129.768 21.7451C130.323 22.03 130.986 22.1728 131.755 22.1729C132.467 22.1729 133.081 22.0518 133.594 21.8096C134.107 21.5673 134.492 21.2394 134.748 20.8262C135.019 20.3987 135.154 19.928 135.154 19.415C135.154 18.7597 134.99 18.2257 134.662 17.8125C134.334 17.3993 133.921 17.0786 133.423 16.8506C132.938 16.6226 132.283 16.3796 131.456 16.123C130.516 15.8096 129.76 15.5178 129.19 15.2471C128.635 14.9763 128.157 14.5699 127.758 14.0283C127.359 13.4725 127.159 12.7527 127.159 11.8691C127.159 11.1283 127.359 10.466 127.758 9.88184C128.157 9.29754 128.699 8.84145 129.383 8.51367C130.081 8.17179 130.857 8.00006 131.712 8ZM150.5 8C151.555 8.00001 152.524 8.19961 153.407 8.59863C154.291 8.99763 155.068 9.5604 155.737 10.2871C156.407 10.9996 156.942 11.8406 157.341 12.8096H155.973C155.431 11.6981 154.682 10.8219 153.728 10.1807C152.773 9.53946 151.697 9.21876 150.5 9.21875C149.388 9.21875 148.355 9.50417 147.4 10.0742C146.46 10.6443 145.712 11.421 145.156 12.4043C144.601 13.3876 144.322 14.485 144.322 15.6963C144.322 16.9075 144.601 18.0051 145.156 18.9883C145.712 19.9714 146.46 20.7484 147.4 21.3184C148.355 21.8883 149.389 22.1729 150.5 22.1729C151.726 22.1728 152.823 21.8522 153.792 21.2109C154.761 20.5697 155.509 19.6934 156.036 18.582H157.404C157.02 19.5509 156.486 20.3993 155.802 21.126C155.132 21.8385 154.341 22.3939 153.429 22.793C152.531 23.192 151.555 23.3916 150.5 23.3916C149.146 23.3916 147.892 23.0493 146.737 22.3652C145.597 21.6812 144.685 20.7481 144.001 19.5654C143.331 18.3827 142.997 17.0927 142.997 15.6963C142.997 14.2999 143.331 13.0098 144.001 11.8271C144.685 10.6444 145.597 9.71041 146.737 9.02637C147.892 8.34231 149.146 8 150.5 8ZM95.6162 23.1777H94.334V8.21387H95.6162V23.1777ZM110.274 20.8213V8.21387H111.535V23.1777H110.702L100.27 10.5693V23.1777H99.0088V8.21387H99.8428L110.274 20.8213ZM126.27 23.1777H124.88L123.196 18.9023H116.236L114.534 23.1777H113.188L119.236 8.21387H120.198L126.27 23.1777ZM160.855 14.7979H169.363V8.21387H170.646V23.1777H169.363V16.0166H160.855V23.1777H159.573V8.21387H160.855V14.7979ZM175.325 23.1777H174.043V8.21387H175.325V23.1777ZM180 21.959H186.156V23.1777H178.718V8.21387H180V21.959ZM195.786 9.43262H189.416V14.7979H195.572V16.0166H189.416V21.959H196V23.1777H188.134V8.21387H195.786V9.43262ZM68.5381 9.21875C67.384 9.21883 66.3224 9.51061 65.3535 10.0947C64.3988 10.6647 63.6437 11.4417 63.0879 12.4248C62.5321 13.4081 62.2539 14.4992 62.2539 15.6963C62.254 16.8932 62.5322 17.9836 63.0879 18.9668C63.6437 19.9499 64.3988 20.7341 65.3535 21.3184C66.3224 21.8882 67.384 22.1728 68.5381 22.1729C69.6923 22.1729 70.7474 21.8883 71.7021 21.3184C72.6711 20.7341 73.4335 19.9499 73.9893 18.9668C74.5592 17.9836 74.8447 16.8932 74.8447 15.6963C74.8447 14.4992 74.5593 13.4081 73.9893 12.4248C73.4335 11.4417 72.6711 10.6647 71.7021 10.0947C70.7474 9.51056 69.6923 9.21875 68.5381 9.21875ZM116.726 17.6836H122.709L119.707 10.1436L116.726 17.6836Z" fill="#1A1A1A"/>
<path d="M52.7529 8V0H52.7526L52.7529 8ZM55.6602 8.59863L58.9529 1.30767L58.9525 1.3075L55.6602 8.59863ZM57.9902 10.2871L52.1077 15.7089C52.1255 15.7282 52.1433 15.7473 52.1612 15.7664L57.9902 10.2871ZM59.5938 12.8096V20.8096C62.2627 20.8096 64.7559 19.4786 66.2409 17.2609C67.726 15.0433 68.0074 12.2311 66.991 9.76326L59.5938 12.8096ZM58.2256 12.8096L51.0339 16.3137C52.3741 19.0643 55.1658 20.8096 58.2256 20.8096V12.8096ZM55.9814 10.1807L60.4422 3.53975L60.4419 3.53955L55.9814 10.1807ZM52.7529 9.21875V1.21875H52.7526L52.7529 9.21875ZM49.6533 10.0742L45.5524 3.20525C45.5371 3.21442 45.5217 3.22365 45.5064 3.23292L49.6533 10.0742ZM47.4092 12.4043L40.4447 8.46784L40.4445 8.46818L47.4092 12.4043ZM46.5752 15.6963H38.5752V15.6967L46.5752 15.6963ZM47.4092 18.9883L40.4447 22.9247L40.4449 22.9252L47.4092 18.9883ZM49.6533 21.3184L45.5069 28.1599C45.522 28.1691 45.5372 28.1783 45.5524 28.1873L49.6533 21.3184ZM52.7529 22.1729L52.7526 30.1729H52.7529V22.1729ZM56.0449 21.2109L60.4596 27.8825L60.4599 27.8824L56.0449 21.2109ZM58.29 18.582V10.582C55.2001 10.582 52.3865 12.3615 51.0621 15.1532L58.29 18.582ZM59.6582 18.582L67.0935 21.5344C68.0718 19.0706 67.7661 16.282 66.2771 14.0887C64.7881 11.8953 62.3092 10.582 59.6582 10.582V18.582ZM58.0547 21.126L52.2291 15.6431L52.2259 15.6465L58.0547 21.126ZM55.6816 22.793L52.4751 15.4637C52.461 15.4699 52.4468 15.4761 52.4327 15.4824L55.6816 22.793ZM52.7529 23.3916L52.7526 31.3916H52.7529V23.3916ZM48.9912 22.3652L44.8752 29.2252C44.8878 29.2327 44.9004 29.2402 44.9129 29.2477L48.9912 22.3652ZM46.2549 19.5654L39.2935 23.5074C39.3055 23.5286 39.3176 23.5497 39.3298 23.5708L46.2549 19.5654ZM45.25 15.6963H37.25V15.6967L45.25 15.6963ZM46.2549 11.8271L39.3296 7.82215C39.3174 7.84319 39.3053 7.86429 39.2934 7.88544L46.2549 11.8271ZM48.9912 9.02637L44.913 2.14391C44.9004 2.15138 44.8878 2.15889 44.8752 2.16643L48.9912 9.02637ZM68.5381 8V0H68.5376L68.5381 8ZM72.3867 9.02637L76.4284 2.12242L76.4282 2.12225L72.3867 9.02637ZM75.1436 11.8271L82.105 7.88535L82.1049 7.88516L75.1436 11.8271ZM76.1484 15.6963L84.1484 15.6967V15.6963H76.1484ZM75.1436 19.5654L82.1047 23.5079L82.1049 23.5074L75.1436 19.5654ZM72.3867 22.3652L76.4282 29.2694L76.4285 29.2692L72.3867 22.3652ZM68.5381 23.3916L68.5376 31.3916H68.5381V23.3916ZM64.6904 22.3652L60.6117 29.2474C60.6241 29.2547 60.6365 29.2621 60.649 29.2694L64.6904 22.3652ZM61.9336 19.5654L54.9722 23.5074C54.9842 23.5286 54.9963 23.5498 55.0085 23.5709L61.9336 19.5654ZM60.9287 15.6963H52.9287V15.6967L60.9287 15.6963ZM61.9336 11.8271L55.0083 7.82215C54.9961 7.84315 54.9841 7.86421 54.9721 7.88533L61.9336 11.8271ZM64.6904 9.02637L60.649 2.12225C60.6366 2.12953 60.6242 2.13684 60.6118 2.14418L64.6904 9.02637ZM85.1543 8L85.1546 0H85.1543V8ZM88.0615 8.59863L91.3544 1.30777L91.3542 1.30767L88.0615 8.59863ZM90.3916 10.2871L84.5088 15.7086C84.5266 15.728 84.5446 15.7472 84.5626 15.7664L90.3916 10.2871ZM91.9941 12.8096V20.8096C94.6631 20.8096 97.1563 19.4786 98.6414 17.2609C100.126 15.0432 100.408 12.231 99.3914 9.76314L91.9941 12.8096ZM90.626 12.8096L83.4343 16.3139C84.7746 19.0644 87.5663 20.8096 90.626 20.8096V12.8096ZM88.3818 10.1807L92.8423 3.53955L92.8423 3.53953L88.3818 10.1807ZM85.1543 9.21875L85.1547 1.21875H85.1543V9.21875ZM82.0547 10.0742L77.9539 3.20521C77.9386 3.2143 77.9234 3.22344 77.9083 3.23264L82.0547 10.0742ZM79.8096 12.4043L72.8451 8.46784L72.8448 8.46839L79.8096 12.4043ZM78.9766 15.6963H70.9766V15.6967L78.9766 15.6963ZM79.8096 18.9883L72.8451 22.9247L72.8452 22.925L79.8096 18.9883ZM82.0547 21.3184L77.9083 28.1599C77.9236 28.1692 77.939 28.1785 77.9543 28.1876L82.0547 21.3184ZM85.1543 22.1729V30.1729H85.1547L85.1543 22.1729ZM88.4463 21.2109L92.8612 27.8824L92.8615 27.8822L88.4463 21.2109ZM90.6904 18.582V10.582C87.6006 10.582 84.787 12.3614 83.4626 15.153L90.6904 18.582ZM92.0586 18.582L99.4938 21.5346C100.472 19.0707 100.167 16.2821 98.6775 14.0887C97.1885 11.8953 94.7096 10.582 92.0586 10.582V18.582ZM90.4551 21.126L84.6295 15.6431L84.6265 15.6463L90.4551 21.126ZM88.083 22.793L84.8761 15.4639C84.862 15.47 84.848 15.4762 84.8339 15.4825L88.083 22.793ZM85.1543 23.3916V31.3916H85.1546L85.1543 23.3916ZM81.3916 22.3652L77.2755 29.2251C77.288 29.2326 77.3006 29.2401 77.3132 29.2476L81.3916 22.3652ZM78.6553 19.5654L71.6939 23.5074C71.7059 23.5285 71.7179 23.5496 71.7301 23.5706L78.6553 19.5654ZM77.6504 15.6963H69.6504V15.6967L77.6504 15.6963ZM78.6553 11.8271L71.73 7.82215C71.7178 7.84324 71.7057 7.86439 71.6937 7.8856L78.6553 11.8271ZM81.3916 9.02637L77.3132 2.14403C77.3006 2.15148 77.2881 2.15896 77.2756 2.16647L81.3916 9.02637ZM131.712 8V0H131.711L131.712 8ZM133.936 8.55566L130.063 15.5561C130.122 15.5885 130.181 15.6201 130.24 15.651L133.936 8.55566ZM135.582 10.0527L142.307 5.71993L142.307 5.71912L135.582 10.0527ZM136.223 12.1689V20.1689C138.37 20.1689 140.427 19.3056 141.932 17.7732C143.436 16.2407 144.261 14.1679 144.221 12.0208L136.223 12.1689ZM134.94 12.1689L126.943 12.3794C127.057 16.7142 130.604 20.1689 134.94 20.1689V12.1689ZM134.491 10.6934L127.671 14.8748C127.703 14.927 127.736 14.9789 127.769 15.0304L134.491 10.6934ZM133.337 9.625L137.154 2.59417L137.154 2.59413L133.337 9.625ZM131.648 9.21875L131.649 1.21875H131.648V9.21875ZM130.002 9.53906L126.773 2.21972C126.746 2.23176 126.718 2.24395 126.691 2.25628L130.002 9.53906ZM128.891 10.4795L135.51 14.9715C135.534 14.9361 135.558 14.9004 135.582 14.8646L128.891 10.4795ZM128.484 11.8691L120.484 11.8684V11.8691H128.484ZM128.955 13.3867L122.664 18.3287C122.693 18.3661 122.723 18.4032 122.753 18.4401L128.955 13.3867ZM130.131 14.2852L126.82 21.5681L126.821 21.5682L130.131 14.2852ZM132.055 15.0117L129.525 22.6012C129.57 22.6164 129.616 22.6311 129.662 22.6455L132.055 15.0117ZM134.363 15.9092L130.716 23.0295C130.785 23.0647 130.854 23.0989 130.924 23.1321L134.363 15.9092ZM135.859 17.1924L129.306 21.7801C129.349 21.8426 129.394 21.9046 129.44 21.9658L135.859 17.1924ZM136.479 19.415H144.479V19.4146L136.479 19.415ZM135.859 21.4893L142.442 26.0353C142.459 26.0111 142.476 25.9868 142.492 25.9624L135.859 21.4893ZM134.149 22.8994L137.493 30.1673C137.514 30.1576 137.535 30.1477 137.556 30.1378L134.149 22.8994ZM131.755 23.3916L131.755 31.3916H131.755V23.3916ZM129.147 22.8145L125.461 29.9144L125.461 29.9147L129.147 22.8145ZM127.416 21.2109L120.506 25.2419C120.527 25.2774 120.548 25.3128 120.569 25.348L127.416 21.2109ZM126.774 18.9023V10.9023C124.606 10.9023 122.531 11.7822 121.024 13.3405C119.517 14.8988 118.707 17.0021 118.779 19.1689L126.774 18.9023ZM128.057 18.9023L136.048 18.5218C135.844 14.2563 132.327 10.9023 128.057 10.9023V18.9023ZM128.527 20.5488L121.581 24.5179L121.582 24.5189L128.527 20.5488ZM129.768 21.7451L125.898 28.747C125.971 28.7871 126.044 28.8261 126.118 28.8639L129.768 21.7451ZM131.755 22.1729L131.755 30.1729H131.755V22.1729ZM133.594 21.8096L137.01 29.0436L137.01 29.0434L133.594 21.8096ZM134.748 20.8262L127.989 16.5462C127.976 16.5665 127.964 16.5868 127.951 16.6073L134.748 20.8262ZM135.154 19.415H143.154V19.4143L135.154 19.415ZM134.662 17.8125L140.93 12.8417L140.93 12.8413L134.662 17.8125ZM133.423 16.8506L130.016 24.0891C130.043 24.1016 130.069 24.1138 130.096 24.126L133.423 16.8506ZM131.456 16.123L128.926 23.7125C128.979 23.7301 129.032 23.7471 129.085 23.7636L131.456 16.123ZM129.19 15.2471L125.687 22.439C125.711 22.4506 125.734 22.4621 125.758 22.4735L129.19 15.2471ZM127.758 14.0283L121.259 18.6938C121.278 18.7206 121.298 18.7473 121.317 18.7739L127.758 14.0283ZM127.159 11.8691L119.159 11.8686V11.8691H127.159ZM127.758 9.88184L121.151 5.37014L121.151 5.37069L127.758 9.88184ZM129.383 8.51367L132.84 15.7282C132.86 15.7183 132.881 15.7084 132.901 15.6984L129.383 8.51367ZM150.5 8L150.5 0H150.5V8ZM153.407 8.59863L156.7 1.30767L156.7 1.30766L153.407 8.59863ZM155.737 10.2871L149.855 15.7088C149.872 15.7281 149.89 15.7473 149.908 15.7664L155.737 10.2871ZM157.341 12.8096V20.8096C160.01 20.8096 162.503 19.4786 163.988 17.261C165.473 15.0434 165.754 12.2312 164.738 9.76336L157.341 12.8096ZM155.973 12.8096L148.781 16.3136C150.121 19.0643 152.913 20.8096 155.973 20.8096V12.8096ZM153.728 10.1807L158.188 3.53955L158.188 3.53937L153.728 10.1807ZM150.5 9.21875L150.5 1.21875H150.5V9.21875ZM147.4 10.0742L143.3 3.20525C143.284 3.21436 143.269 3.22352 143.254 3.23274L147.4 10.0742ZM145.156 12.4043L138.192 8.46784L138.192 8.468L145.156 12.4043ZM144.322 15.6963H136.322V15.6967L144.322 15.6963ZM145.156 18.9883L138.192 22.9247L138.192 22.9253L145.156 18.9883ZM147.4 21.3184L143.254 28.1599C143.269 28.1692 143.285 28.1784 143.3 28.1875L147.4 21.3184ZM150.5 22.1729V30.1729H150.5L150.5 22.1729ZM153.792 21.2109L158.207 27.8824L158.207 27.8823L153.792 21.2109ZM156.036 18.582V10.582C152.946 10.582 150.133 12.3614 148.808 15.1529L156.036 18.582ZM157.404 18.582L164.839 21.5346C165.818 19.0707 165.512 16.2822 164.023 14.0888C162.534 11.8953 160.055 10.582 157.404 10.582V18.582ZM155.802 21.126L149.976 15.6431L149.973 15.6467L155.802 21.126ZM153.429 22.793L150.222 15.4638C150.208 15.47 150.194 15.4762 150.18 15.4825L153.429 22.793ZM150.5 23.3916V31.3916H150.5L150.5 23.3916ZM146.737 22.3652L142.621 29.225C142.634 29.2326 142.646 29.2401 142.659 29.2476L146.737 22.3652ZM144.001 19.5654L137.04 23.5074C137.052 23.5285 137.064 23.5495 137.076 23.5705L144.001 19.5654ZM142.997 15.6963H134.997V15.6967L142.997 15.6963ZM144.001 11.8271L137.076 7.82215C137.063 7.84328 137.051 7.86447 137.039 7.88571L144.001 11.8271ZM146.737 9.02637L142.659 2.14403C142.646 2.15152 142.634 2.15903 142.621 2.16658L146.737 9.02637ZM95.6162 23.1777V31.1777C100.034 31.1777 103.616 27.596 103.616 23.1777H95.6162ZM94.334 23.1777H86.334C86.334 27.596 89.9157 31.1777 94.334 31.1777V23.1777ZM94.334 8.21387V0.213867C89.9157 0.213867 86.334 3.79559 86.334 8.21387H94.334ZM95.6162 8.21387H103.616C103.616 3.79559 100.034 0.213867 95.6162 0.213867V8.21387ZM110.274 20.8213L104.111 25.9212C106.261 28.5202 109.811 29.491 112.985 28.3482C116.158 27.2054 118.274 24.1946 118.274 20.8213H110.274ZM110.274 8.21387V0.213867C105.856 0.213867 102.274 3.79559 102.274 8.21387H110.274ZM111.535 8.21387H119.535C119.535 3.79559 115.953 0.213867 111.535 0.213867V8.21387ZM111.535 23.1777V31.1777C115.953 31.1777 119.535 27.596 119.535 23.1777H111.535ZM110.702 23.1777L104.539 28.2777C106.058 30.1145 108.318 31.1777 110.702 31.1777V23.1777ZM100.27 10.5693L106.433 5.46935C104.283 2.8704 100.733 1.89961 97.5593 3.04242C94.3855 4.18523 92.2695 7.19605 92.2695 10.5693H100.27ZM100.27 23.1777V31.1777C104.688 31.1777 108.27 27.596 108.27 23.1777H100.27ZM99.0088 23.1777H91.0088C91.0088 27.596 94.5905 31.1777 99.0088 31.1777V23.1777ZM99.0088 8.21387V0.213867C94.5905 0.213867 91.0088 3.79559 91.0088 8.21387H99.0088ZM99.8428 8.21387L106.006 3.11393C104.487 1.27713 102.227 0.213867 99.8428 0.213867V8.21387ZM126.27 23.1777V31.1777C128.931 31.1777 131.418 29.8541 132.905 27.6464C134.392 25.4388 134.683 22.6363 133.683 20.17L126.27 23.1777ZM124.88 23.1777L117.436 26.1089C118.641 29.1673 121.593 31.1777 124.88 31.1777V23.1777ZM123.196 18.9023L130.64 15.9711C129.436 12.9128 126.483 10.9023 123.196 10.9023V18.9023ZM116.236 18.9023V10.9023C112.96 10.9023 110.015 12.8996 108.804 15.9432L116.236 18.9023ZM114.534 23.1777V31.1777C117.81 31.1777 120.755 29.1805 121.967 26.1369L114.534 23.1777ZM113.188 23.1777L105.771 20.1796C104.774 22.6455 105.068 25.4455 106.555 27.6507C108.042 29.8559 110.528 31.1777 113.188 31.1777V23.1777ZM119.236 8.21387V0.213867C115.976 0.213867 113.041 2.19274 111.819 5.21572L119.236 8.21387ZM120.198 8.21387L127.611 5.20616C126.387 2.18824 123.455 0.213867 120.198 0.213867V8.21387ZM160.855 14.7979H152.855C152.855 19.2161 156.437 22.7979 160.855 22.7979V14.7979ZM169.363 14.7979V22.7979C173.782 22.7979 177.363 19.2161 177.363 14.7979H169.363ZM169.363 8.21387V0.213867C164.945 0.213867 161.363 3.79559 161.363 8.21387H169.363ZM170.646 8.21387H178.646C178.646 3.79559 175.064 0.213867 170.646 0.213867V8.21387ZM170.646 23.1777V31.1777C175.064 31.1777 178.646 27.596 178.646 23.1777H170.646ZM169.363 23.1777H161.363C161.363 27.596 164.945 31.1777 169.363 31.1777V23.1777ZM169.363 16.0166H177.363C177.363 11.5983 173.782 8.0166 169.363 8.0166V16.0166ZM160.855 16.0166V8.0166C156.437 8.0166 152.855 11.5983 152.855 16.0166H160.855ZM160.855 23.1777V31.1777C165.274 31.1777 168.855 27.596 168.855 23.1777H160.855ZM159.573 23.1777H151.573C151.573 27.596 155.155 31.1777 159.573 31.1777V23.1777ZM159.573 8.21387V0.213867C155.155 0.213867 151.573 3.79559 151.573 8.21387H159.573ZM160.855 8.21387H168.855C168.855 3.79559 165.274 0.213867 160.855 0.213867V8.21387ZM175.325 23.1777V31.1777C179.743 31.1777 183.325 27.596 183.325 23.1777H175.325ZM174.043 23.1777H166.043C166.043 27.596 169.625 31.1777 174.043 31.1777V23.1777ZM174.043 8.21387V0.213867C169.625 0.213867 166.043 3.79559 166.043 8.21387H174.043ZM175.325 8.21387H183.325C183.325 3.79559 179.743 0.213867 175.325 0.213867V8.21387ZM180 21.959H172C172 26.3773 175.582 29.959 180 29.959V21.959ZM186.156 21.959H194.156C194.156 17.5407 190.575 13.959 186.156 13.959V21.959ZM186.156 23.1777V31.1777C190.575 31.1777 194.156 27.596 194.156 23.1777H186.156ZM178.718 23.1777H170.718C170.718 27.596 174.299 31.1777 178.718 31.1777V23.1777ZM178.718 8.21387V0.213867C174.299 0.213867 170.718 3.79559 170.718 8.21387H178.718ZM180 8.21387H188C188 3.79559 184.418 0.213867 180 0.213867V8.21387ZM195.786 9.43262V17.4326C200.204 17.4326 203.786 13.8509 203.786 9.43262H195.786ZM189.416 9.43262V1.43262C184.998 1.43262 181.416 5.01434 181.416 9.43262H189.416ZM189.416 14.7979H181.416C181.416 19.2161 184.998 22.7979 189.416 22.7979V14.7979ZM195.572 14.7979H203.572C203.572 10.3796 199.991 6.79785 195.572 6.79785V14.7979ZM195.572 16.0166V24.0166C199.991 24.0166 203.572 20.4349 203.572 16.0166H195.572ZM189.416 16.0166V8.0166C184.998 8.0166 181.416 11.5983 181.416 16.0166H189.416ZM189.416 21.959H181.416C181.416 26.3773 184.998 29.959 189.416 29.959V21.959ZM196 21.959H204C204 17.5407 200.418 13.959 196 13.959V21.959ZM196 23.1777V31.1777C200.418 31.1777 204 27.596 204 23.1777H196ZM188.134 23.1777H180.134C180.134 27.596 183.716 31.1777 188.134 31.1777V23.1777ZM188.134 8.21387V0.213867C183.716 0.213867 180.134 3.79559 180.134 8.21387H188.134ZM195.786 8.21387H203.786C203.786 3.79559 200.204 0.213867 195.786 0.213867V8.21387ZM68.5381 9.21875V1.21875H68.5375L68.5381 9.21875ZM65.3535 10.0947L69.4544 16.9637C69.4643 16.9578 69.4741 16.9519 69.484 16.946L65.3535 10.0947ZM63.0879 12.4248L56.1237 8.48778L56.1234 8.48835L63.0879 12.4248ZM62.2539 15.6963H54.2539V15.6967L62.2539 15.6963ZM63.0879 18.9668L56.1234 22.9033L56.1236 22.9037L63.0879 18.9668ZM65.3535 21.3184L61.1778 28.1421C61.2175 28.1664 61.2575 28.1904 61.2977 28.214L65.3535 21.3184ZM68.5381 22.1729L68.5376 30.1729H68.5381V22.1729ZM71.7021 21.3184L75.8026 28.1876C75.8127 28.1815 75.8228 28.1755 75.8329 28.1694L71.7021 21.3184ZM73.9893 18.9668L67.0681 14.9546C67.0536 14.9796 67.0392 15.0047 67.025 15.0299L73.9893 18.9668ZM74.8447 15.6963L82.8447 15.6967V15.6963H74.8447ZM73.9893 12.4248L67.0251 16.3618C67.0393 16.387 67.0536 16.412 67.0681 16.437L73.9893 12.4248ZM71.7021 10.0947L67.5268 16.9187C67.5663 16.9429 67.6061 16.9667 67.646 16.9902L71.7021 10.0947ZM116.726 17.6836L109.286 14.7419C108.312 17.2053 108.621 19.9911 110.11 22.1817C111.599 24.3723 114.077 25.6836 116.726 25.6836V17.6836ZM122.709 17.6836V25.6836C125.361 25.6836 127.841 24.369 129.33 22.174C130.819 19.9789 131.123 17.1886 130.142 14.7244L122.709 17.6836ZM119.707 10.1436L127.14 7.18438C125.927 4.13762 122.977 2.13971 119.698 2.14356C116.418 2.14741 113.473 4.15225 112.268 7.20186L119.707 10.1436ZM52.7529 8V16C52.7731 16 52.7366 16.0017 52.657 15.9853C52.5755 15.9685 52.4748 15.9381 52.3678 15.8898L55.6602 8.59863L58.9525 1.3075C56.9469 0.401888 54.8428 0 52.7529 0V8ZM55.6602 8.59863L52.3675 15.8896C52.3211 15.8687 52.266 15.8378 52.2113 15.7981C52.1568 15.7586 52.1223 15.7247 52.1077 15.7089L57.9902 10.2871L63.8727 4.86527C62.4882 3.36307 60.8351 2.1577 58.9529 1.30767L55.6602 8.59863ZM57.9902 10.2871L52.1612 15.7664C52.1457 15.7499 52.1394 15.7396 52.1423 15.7441C52.1457 15.7495 52.1664 15.7828 52.1965 15.8559L59.5938 12.8096L66.991 9.76326C66.248 7.95886 65.2012 6.27801 63.8193 4.80783L57.9902 10.2871ZM59.5938 12.8096V4.80957H58.2256V12.8096V20.8096H59.5938V12.8096ZM58.2256 12.8096L65.4173 9.30543C64.306 7.02469 62.6556 5.02651 60.4422 3.53975L55.9814 10.1807L51.5207 16.8216C51.3921 16.7352 51.2717 16.6275 51.1738 16.5128C51.0781 16.4007 51.0378 16.3217 51.0339 16.3137L58.2256 12.8096ZM55.9814 10.1807L60.4419 3.53955C58.1115 1.97437 55.4691 1.21875 52.7529 1.21875V9.21875V17.2188C52.6292 17.2188 52.4245 17.2009 52.174 17.1262C51.9207 17.0508 51.6971 16.9401 51.521 16.8218L55.9814 10.1807ZM52.7529 9.21875L52.7526 1.21875C50.195 1.21886 47.745 1.89627 45.5524 3.20525L49.6533 10.0742L53.7542 16.9432C53.6384 17.0123 53.4745 17.0887 53.2731 17.1443C53.0716 17.2 52.8905 17.2187 52.7533 17.2188L52.7529 9.21875ZM49.6533 10.0742L45.5064 3.23292C43.3599 4.53403 41.6556 6.32543 40.4447 8.46784L47.4092 12.4043L54.3737 16.3408C54.336 16.4074 54.264 16.5146 54.1493 16.6337C54.0337 16.7537 53.9106 16.8486 53.8002 16.9155L49.6533 10.0742ZM47.4092 12.4043L40.4445 8.46818C39.162 10.7375 38.5752 13.207 38.5752 15.6963H46.5752H54.5752C54.5752 15.7077 54.5733 15.7935 54.5387 15.9299C54.5034 16.0691 54.4465 16.2119 54.3739 16.3404L47.4092 12.4043ZM46.5752 15.6963L38.5752 15.6967C38.5753 18.185 39.1617 20.6548 40.4447 22.9247L47.4092 18.9883L54.3737 15.0518C54.4465 15.1807 54.5035 15.3237 54.5388 15.4629C54.5733 15.5992 54.5752 15.6847 54.5752 15.6959L46.5752 15.6963ZM47.4092 18.9883L40.4449 22.9252C41.6554 25.0665 43.3594 26.8584 45.5069 28.1599L49.6533 21.3184L53.7997 14.4768C53.9105 14.5439 54.0339 14.639 54.1495 14.759C54.2642 14.8782 54.336 14.9853 54.3734 15.0514L47.4092 18.9883ZM49.6533 21.3184L45.5524 28.1873C47.7491 29.4988 50.1998 30.1727 52.7526 30.1729L52.7529 22.1729L52.7533 14.1729C52.8881 14.1729 53.0681 14.1913 53.2697 14.2468C53.4714 14.3024 53.6365 14.3791 53.7542 14.4494L49.6533 21.3184ZM52.7529 22.1729V30.1729C55.4582 30.1729 58.108 29.4387 60.4596 27.8825L56.0449 21.2109L51.6302 14.5393C51.8036 14.4246 52.0173 14.3219 52.2513 14.2535C52.482 14.1861 52.6608 14.1729 52.7529 14.1729V22.1729ZM56.0449 21.2109L60.4599 27.8824C62.7142 26.3906 64.4028 24.3617 65.518 22.0109L58.29 18.582L51.0621 15.1532C51.0806 15.1142 51.1372 15.0091 51.2502 14.8769C51.365 14.7425 51.4983 14.6266 51.63 14.5395L56.0449 21.2109ZM58.29 18.582V26.582H59.6582V18.582V10.582H58.29V18.582ZM59.6582 18.582L52.2229 15.6296C52.2137 15.653 52.2067 15.6674 52.2033 15.6743C52.1998 15.6812 52.1989 15.6822 52.201 15.6788C52.2032 15.6754 52.2071 15.6695 52.2128 15.6623C52.2184 15.655 52.2241 15.6484 52.2291 15.6431L58.0547 21.126L63.8803 26.6089C65.2858 25.1155 66.3531 23.399 67.0935 21.5344L59.6582 18.582ZM58.0547 21.126L52.2259 15.6465C52.2599 15.6102 52.3063 15.5688 52.3609 15.5305C52.4151 15.4924 52.4573 15.4715 52.4751 15.4637L55.6816 22.793L58.8882 30.1222C60.7699 29.299 62.4585 28.1213 63.8835 26.6055L58.0547 21.126ZM55.6816 22.793L52.4327 15.4824C52.5195 15.4438 52.6037 15.4183 52.6738 15.404C52.7424 15.39 52.773 15.3916 52.7529 15.3916V23.3916V31.3916C54.844 31.3916 56.937 30.9895 58.9306 30.1035L55.6816 22.793ZM52.7529 23.3916L52.7532 15.3916C52.7528 15.3916 52.7686 15.3916 52.7977 15.3955C52.8271 15.3993 52.8633 15.4061 52.9035 15.4171C52.9908 15.4409 53.05 15.4713 53.0695 15.4828L48.9912 22.3652L44.9129 29.2477C47.3118 30.6691 49.9759 31.3915 52.7526 31.3916L52.7529 23.3916ZM48.9912 22.3652L53.1072 15.5053C53.107 15.5052 53.1093 15.5066 53.1136 15.5095C53.1179 15.5125 53.1236 15.5166 53.1304 15.522C53.1447 15.5333 53.1595 15.5465 53.1732 15.5605C53.1867 15.5743 53.1947 15.5844 53.1971 15.5876C53.1994 15.5906 53.1931 15.5827 53.18 15.5601L46.2549 19.5654L39.3298 23.5708C40.6741 25.8952 42.5401 27.8241 44.8752 29.2252L48.9912 22.3652ZM46.2549 19.5654L53.2163 15.6234C53.2156 15.6223 53.2202 15.6303 53.2268 15.6466C53.2334 15.6629 53.2396 15.6814 53.2444 15.6999C53.2492 15.7184 53.251 15.7304 53.2513 15.7334C53.2517 15.7361 53.25 15.7245 53.25 15.6959L45.25 15.6963L37.25 15.6967C37.2501 18.4354 37.924 21.0889 39.2935 23.5074L46.2549 19.5654ZM45.25 15.6963H53.25C53.25 15.6678 53.2517 15.6563 53.2513 15.6592C53.2509 15.6623 53.2492 15.6744 53.2444 15.6928C53.2395 15.7114 53.2334 15.7299 53.2267 15.7461C53.2202 15.7623 53.2157 15.7702 53.2164 15.7689L46.2549 11.8271L39.2934 7.88544C37.9242 10.3035 37.25 12.9567 37.25 15.6963H45.25ZM46.2549 11.8271L53.1802 15.8321C53.1935 15.8091 53.2001 15.8008 53.198 15.8036C53.1958 15.8065 53.188 15.8164 53.1745 15.8302C53.1609 15.8441 53.1461 15.8574 53.1316 15.8688C53.1171 15.8802 53.108 15.8858 53.1072 15.8863L48.9912 9.02637L44.8752 2.16643C42.5378 3.56888 40.6727 5.49959 39.3296 7.82215L46.2549 11.8271ZM48.9912 9.02637L53.0694 15.9088C53.0499 15.9204 52.9908 15.9507 52.9035 15.9745C52.8633 15.9855 52.8271 15.9923 52.7978 15.9961C52.7687 16 52.7528 16 52.7532 16L52.7529 8L52.7526 0C49.9758 9.72748e-05 47.3118 0.722501 44.913 2.14391L48.9912 9.02637ZM68.5381 8V16C68.5762 16 68.5512 16.0038 68.4864 15.9865C68.4568 15.9786 68.4272 15.9685 68.3998 15.957C68.3725 15.9456 68.354 15.9356 68.3453 15.9305L72.3867 9.02637L76.4282 2.12225C73.9942 0.697472 71.3088 0 68.5381 0V8ZM72.3867 9.02637L68.345 15.9303C68.3458 15.9308 68.3345 15.9242 68.3151 15.9091C68.2956 15.894 68.2731 15.8744 68.2502 15.8511C68.1999 15.8 68.1789 15.7633 68.1822 15.7691L75.1436 11.8271L82.1049 7.88516C80.7445 5.48276 78.8219 3.52363 76.4284 2.12242L72.3867 9.02637ZM75.1436 11.8271L68.1821 15.7689C68.1828 15.7703 68.1783 15.7624 68.1717 15.7462C68.1651 15.7299 68.1589 15.7114 68.1541 15.6928C68.1493 15.6743 68.1475 15.6622 68.1471 15.6591C68.1468 15.6563 68.1484 15.6678 68.1484 15.6963H76.1484H84.1484C84.1484 12.9568 83.4743 10.3035 82.105 7.88535L75.1436 11.8271ZM76.1484 15.6963L68.1484 15.6959C68.1484 15.7245 68.1468 15.7361 68.1471 15.7334C68.1475 15.7304 68.1492 15.7184 68.154 15.6999C68.1588 15.6814 68.165 15.6629 68.1717 15.6466C68.1783 15.6303 68.1828 15.6223 68.1822 15.6234L75.1436 19.5654L82.1049 23.5074C83.4745 21.0889 84.1483 18.4354 84.1484 15.6967L76.1484 15.6963ZM75.1436 19.5654L68.1824 15.623C68.1797 15.6278 68.2011 15.5907 68.2515 15.5395C68.2744 15.5162 68.2968 15.4967 68.3161 15.4818C68.3353 15.4669 68.3462 15.4606 68.345 15.4613L72.3867 22.3652L76.4285 29.2692C78.8196 27.8693 80.7431 25.9119 82.1047 23.5079L75.1436 19.5654ZM72.3867 22.3652L68.3453 15.4611C68.354 15.456 68.3725 15.446 68.3998 15.4346C68.4272 15.4231 68.4568 15.413 68.4864 15.4051C68.5512 15.3878 68.5762 15.3916 68.5381 15.3916V23.3916V31.3916C71.3088 31.3916 73.9942 30.6941 76.4282 29.2694L72.3867 22.3652ZM68.5381 23.3916L68.5385 15.3916C68.5005 15.3916 68.5258 15.3879 68.5909 15.4052C68.6206 15.4131 68.6503 15.4233 68.6777 15.4348C68.705 15.4462 68.7234 15.4562 68.7319 15.4611L64.6904 22.3652L60.649 29.2694C63.0822 30.6937 65.7667 31.3915 68.5376 31.3916L68.5381 23.3916ZM64.6904 22.3652L68.7691 15.4831C68.7674 15.482 68.7755 15.4867 68.79 15.4981C68.8046 15.5095 68.8207 15.5237 68.8363 15.5395C68.8519 15.5553 68.8623 15.568 68.8674 15.5749C68.8725 15.5815 68.869 15.5778 68.8586 15.56L61.9336 19.5654L55.0085 23.5709C56.3655 25.9169 58.2549 27.8506 60.6117 29.2474L64.6904 22.3652ZM61.9336 19.5654L68.895 15.6234C68.8943 15.6223 68.8989 15.6303 68.9055 15.6466C68.9121 15.6629 68.9183 15.6814 68.9231 15.6999C68.9279 15.7184 68.9297 15.7304 68.93 15.7334C68.9304 15.7361 68.9287 15.7245 68.9287 15.6959L60.9287 15.6963L52.9287 15.6967C52.9288 18.4354 53.6027 21.0889 54.9722 23.5074L61.9336 19.5654ZM60.9287 15.6963H68.9287C68.9287 15.6678 68.9304 15.6563 68.93 15.6591C68.9296 15.6622 68.9279 15.6743 68.9231 15.6928C68.9182 15.7114 68.912 15.7299 68.9054 15.7462C68.8988 15.7624 68.8943 15.7703 68.8951 15.769L61.9336 11.8271L54.9721 7.88533C53.6029 10.3035 52.9287 12.9568 52.9287 15.6963H60.9287ZM61.9336 11.8271L68.8589 15.8321C68.8695 15.8138 68.8732 15.8098 68.8684 15.8162C68.8635 15.8227 68.8532 15.8353 68.8376 15.8511C68.8221 15.867 68.8059 15.8812 68.791 15.8928C68.7763 15.9043 68.7678 15.9093 68.7691 15.9086L64.6904 9.02637L60.6118 2.14418C58.2525 3.54236 56.3641 5.47779 55.0083 7.82215L61.9336 11.8271ZM64.6904 9.02637L68.7319 15.9305C68.7234 15.9354 68.705 15.9454 68.6777 15.9568C68.6503 15.9683 68.6206 15.9785 68.5909 15.9864C68.5258 16.0037 68.5005 16 68.5385 16L68.5381 8L68.5376 0C65.7667 0.000151157 63.0822 0.697911 60.649 2.12225L64.6904 9.02637ZM85.1543 8L85.154 16C85.1745 16 85.1382 16.0017 85.0586 15.9853C84.977 15.9685 84.8761 15.938 84.7688 15.8896L88.0615 8.59863L91.3542 1.30767C89.348 0.401645 87.2437 7.9155e-05 85.1546 0L85.1543 8ZM88.0615 8.59863L84.7686 15.8895C84.7226 15.8687 84.6676 15.8379 84.6128 15.7982C84.5582 15.7586 84.5235 15.7246 84.5088 15.7086L90.3916 10.2871L96.2744 4.86558C94.8893 3.3627 93.2361 2.15762 91.3544 1.30777L88.0615 8.59863ZM90.3916 10.2871L84.5626 15.7664C84.5456 15.7483 84.5386 15.7369 84.5414 15.7413C84.5447 15.7466 84.5659 15.7807 84.5969 15.856L91.9941 12.8096L99.3914 9.76314C98.6501 7.96327 97.6056 6.28119 96.2206 4.80783L90.3916 10.2871ZM91.9941 12.8096V4.80957H90.626V12.8096V20.8096H91.9941V12.8096ZM90.626 12.8096L97.8176 9.30528C96.7065 7.02499 95.0563 5.02658 92.8423 3.53955L88.3818 10.1807L83.9214 16.8218C83.7926 16.7353 83.6721 16.6274 83.5741 16.5127C83.4784 16.4005 83.4381 16.3216 83.4343 16.3139L90.626 12.8096ZM88.3818 10.1807L92.8423 3.53953C90.5129 1.97506 87.8716 1.21888 85.1547 1.21875L85.1543 9.21875L85.1539 17.2188C85.03 17.2187 84.825 17.2008 84.574 17.126C84.3203 17.0504 84.0968 16.9396 83.9214 16.8218L88.3818 10.1807ZM85.1543 9.21875V1.21875C82.5961 1.21875 80.1462 1.8964 77.9539 3.20521L82.0547 10.0742L86.1555 16.9432C86.04 17.0122 85.8761 17.0886 85.6746 17.1443C85.4729 17.1999 85.2916 17.2188 85.1543 17.2188V9.21875ZM82.0547 10.0742L77.9083 3.23264C75.7639 4.53224 74.0577 6.32247 72.8451 8.46784L79.8096 12.4043L86.7741 16.3408C86.7357 16.4087 86.6631 16.5164 86.5484 16.6355C86.4329 16.7553 86.3103 16.8496 86.2011 16.9158L82.0547 10.0742ZM79.8096 12.4043L72.8448 8.46839C71.5603 10.7413 70.9766 13.2117 70.9766 15.6963H78.9766H86.9766C86.9766 15.7057 86.9749 15.7904 86.9404 15.9267C86.9052 16.066 86.848 16.2099 86.7744 16.3402L79.8096 12.4043ZM78.9766 15.6963L70.9766 15.6967C70.9767 18.1803 71.5599 20.6509 72.8451 22.9247L79.8096 18.9883L86.7741 15.0518C86.848 15.1826 86.9052 15.3268 86.9405 15.4662C86.9749 15.6025 86.9766 15.687 86.9766 15.6959L78.9766 15.6963ZM79.8096 18.9883L72.8452 22.925C74.0576 25.0699 75.7638 26.8603 77.9083 28.1599L82.0547 21.3184L86.2011 14.4768C86.3105 14.5431 86.4331 14.6374 86.5485 14.7571C86.6631 14.876 86.7355 14.9837 86.7739 15.0516L79.8096 18.9883ZM82.0547 21.3184L77.9543 28.1876C80.1501 29.4983 82.6007 30.1729 85.1543 30.1729V22.1729V14.1729C85.2897 14.1729 85.4699 14.1913 85.6713 14.2469C85.8728 14.3024 86.0377 14.379 86.155 14.4491L82.0547 21.3184ZM85.1543 22.1729L85.1547 30.1729C87.8592 30.1727 90.5091 29.4389 92.8612 27.8824L88.4463 21.2109L84.0314 14.5395C84.2051 14.4245 84.4189 14.3218 84.6528 14.2534C84.8834 14.186 85.062 14.1729 85.1539 14.1729L85.1543 22.1729ZM88.4463 21.2109L92.8615 27.8822C95.1182 26.3886 96.8047 24.3584 97.9183 22.011L90.6904 18.582L83.4626 15.153C83.4804 15.1155 83.5365 15.011 83.6494 14.8788C83.7642 14.7443 83.8981 14.6277 84.031 14.5397L88.4463 21.2109ZM90.6904 18.582V26.582H92.0586V18.582V10.582H90.6904V18.582ZM92.0586 18.582L84.6234 15.6295C84.6141 15.6529 84.6072 15.6673 84.6037 15.6742C84.6002 15.6811 84.5993 15.6822 84.6014 15.6788C84.6035 15.6754 84.6075 15.6696 84.6131 15.6623C84.6187 15.6551 84.6244 15.6484 84.6295 15.6431L90.4551 21.126L96.2807 26.6089C97.6862 25.1155 98.7535 23.3989 99.4938 21.5346L92.0586 18.582ZM90.4551 21.126L84.6265 15.6463C84.6595 15.6112 84.7052 15.5701 84.7599 15.5317C84.8142 15.4935 84.857 15.4722 84.8761 15.4639L88.083 22.793L91.2899 30.1221C93.174 29.2977 94.861 28.119 96.2837 26.6057L90.4551 21.126ZM88.083 22.793L84.8339 15.4825C84.921 15.4438 85.0053 15.4183 85.0753 15.404C85.1439 15.3899 85.1742 15.3916 85.154 15.3916L85.1543 23.3916L85.1546 31.3916C87.245 31.3915 89.3381 30.9897 91.3321 30.1035L88.083 22.793ZM85.1543 23.3916V15.3916C85.1538 15.3916 85.1694 15.3916 85.1983 15.3954C85.2275 15.3992 85.2635 15.406 85.3036 15.417C85.3906 15.4407 85.45 15.471 85.47 15.4829L81.3916 22.3652L77.3132 29.2476C79.7132 30.6698 82.3782 31.3916 85.1543 31.3916V23.3916ZM81.3916 22.3652L85.5077 15.5054C85.5075 15.5052 85.5097 15.5066 85.514 15.5095C85.5183 15.5125 85.524 15.5166 85.5308 15.522C85.5451 15.5332 85.5599 15.5465 85.5735 15.5604C85.5871 15.5743 85.595 15.5843 85.5975 15.5876C85.5998 15.5906 85.5935 15.5828 85.5805 15.5602L78.6553 19.5654L71.7301 23.5706C73.0746 25.8954 74.9407 27.8242 77.2755 29.2251L81.3916 22.3652ZM78.6553 19.5654L85.6166 15.6234C85.616 15.6223 85.6206 15.6303 85.6272 15.6466C85.6338 15.6629 85.64 15.6814 85.6448 15.6999C85.6496 15.7184 85.6514 15.7304 85.6517 15.7334C85.6521 15.7361 85.6504 15.7245 85.6504 15.6959L77.6504 15.6963L69.6504 15.6967C69.6505 18.4354 70.3243 21.0888 71.6939 23.5074L78.6553 19.5654ZM77.6504 15.6963H85.6504C85.6504 15.6679 85.6521 15.6565 85.6517 15.6593C85.6513 15.6624 85.6495 15.6745 85.6448 15.6929C85.6399 15.7114 85.6338 15.7298 85.6272 15.746C85.6207 15.7621 85.6161 15.77 85.6169 15.7687L78.6553 11.8271L71.6937 7.8856C70.3248 10.3034 69.6504 12.9567 69.6504 15.6963H77.6504ZM78.6553 11.8271L85.5806 15.8321C85.5939 15.8091 85.6004 15.8009 85.5984 15.8036C85.5962 15.8066 85.5884 15.8164 85.5749 15.8302C85.5613 15.8441 85.5465 15.8574 85.532 15.8688C85.5176 15.8802 85.5085 15.8858 85.5076 15.8863L81.3916 9.02637L77.2756 2.16647C74.9383 3.56887 73.0731 5.49956 71.73 7.82215L78.6553 11.8271ZM81.3916 9.02637L85.47 15.9087C85.45 15.9206 85.3906 15.9509 85.3036 15.9746C85.2635 15.9856 85.2275 15.9924 85.1983 15.9962C85.1694 16 85.1538 16 85.1543 16V8V0C82.3782 0 79.7132 0.721834 77.3132 2.14403L81.3916 9.02637ZM131.712 8V16C131.257 16 130.653 15.8822 130.063 15.5561L133.936 8.55566L137.808 1.55522C135.879 0.48823 133.792 0 131.712 0V8ZM133.936 8.55566L130.24 15.651C129.705 15.3721 129.205 14.9252 128.857 14.3863L135.582 10.0527L142.307 5.71912C141.133 3.89771 139.535 2.45182 137.631 1.46035L133.936 8.55566ZM135.582 10.0527L128.857 14.3855C128.674 14.1019 128.511 13.7627 128.395 13.3798C128.279 12.9975 128.23 12.6343 128.224 12.3171L136.223 12.1689L144.221 12.0208C144.18 9.78293 143.535 7.62534 142.307 5.71993L135.582 10.0527ZM136.223 12.1689V4.16895H134.94V12.1689V20.1689H136.223V12.1689ZM134.94 12.1689L142.938 11.9585C142.886 9.99606 142.318 8.06844 141.214 6.35634L134.491 10.6934L127.769 15.0304C127.234 14.2018 126.966 13.2587 126.943 12.3794L134.94 12.1689ZM134.491 10.6934L141.311 6.51194C140.237 4.75947 138.763 3.46789 137.154 2.59417L133.337 9.625L129.52 16.6558C128.908 16.3235 128.204 15.744 127.671 14.8748L134.491 10.6934ZM133.337 9.625L137.154 2.59413C135.365 1.62325 133.467 1.21883 131.649 1.21875L131.648 9.21875L131.648 17.2188C131.083 17.2187 130.311 17.0853 129.52 16.6559L133.337 9.625ZM131.648 9.21875V1.21875C130.102 1.21875 128.426 1.49049 126.773 2.21972L130.002 9.53906L133.231 16.8584C132.547 17.1601 131.97 17.2188 131.648 17.2188V9.21875ZM130.002 9.53906L126.691 2.25628C124.907 3.06716 123.338 4.35686 122.2 6.09437L128.891 10.4795L135.582 14.8646C134.984 15.7759 134.156 16.4384 133.313 16.8218L130.002 9.53906ZM128.891 10.4795L122.271 5.98748C121.017 7.83571 120.485 9.89654 120.484 11.8684L128.484 11.8691L136.484 11.8699C136.484 12.7874 136.223 13.9212 135.51 14.9715L128.891 10.4795ZM128.484 11.8691H120.484C120.484 13.8961 121.031 16.2493 122.664 18.3287L128.955 13.3867L135.246 8.44474C136.253 9.72608 136.484 11.0676 136.484 11.8691H128.484ZM128.955 13.3867L122.753 18.4401C123.875 19.8166 125.27 20.8633 126.82 21.5681L130.131 14.2852L133.441 7.00223C134.051 7.27948 134.662 7.72639 135.157 8.33334L128.955 13.3867ZM130.131 14.2852L126.821 21.5682C127.657 21.9483 128.597 22.2919 129.525 22.6012L132.055 15.0117L134.585 7.42225C133.888 7.19017 133.545 7.04943 133.441 7.00208L130.131 14.2852ZM132.055 15.0117L129.662 22.6455C130.004 22.7526 130.262 22.8441 130.45 22.917C130.642 22.9916 130.721 23.0319 130.716 23.0295L134.363 15.9092L138.01 8.78882C136.871 8.20533 135.633 7.74941 134.447 7.37793L132.055 15.0117ZM134.363 15.9092L130.924 23.1321C130.206 22.7905 129.655 22.28 129.306 21.7801L135.859 17.1924L142.413 12.6047C141.265 10.9647 139.717 9.59794 137.803 8.68629L134.363 15.9092ZM135.859 17.1924L129.44 21.9658C128.531 20.7437 128.48 19.6361 128.479 19.4155L136.479 19.415L144.479 19.4146C144.479 17.3417 144.014 14.7525 142.279 12.4189L135.859 17.1924ZM136.479 19.415H128.479C128.479 19.0749 128.527 18.6647 128.66 18.2195C128.794 17.7715 128.992 17.3644 129.227 17.0161L135.859 21.4893L142.492 25.9624C143.835 23.9716 144.479 21.7091 144.479 19.415H136.479ZM135.859 21.4893L129.277 16.9432C129.749 16.2587 130.331 15.8547 130.743 15.661L134.149 22.8994L137.556 30.1378C139.421 29.2602 141.143 27.9165 142.442 26.0353L135.859 21.4893ZM134.149 22.8994L130.806 15.6315C131.265 15.4204 131.628 15.3916 131.755 15.3916V23.3916V31.3916C133.649 31.3916 135.609 31.034 137.493 30.1673L134.149 22.8994ZM131.755 23.3916L131.755 15.3916C131.793 15.3916 132.235 15.4034 132.833 15.7142L129.147 22.8145L125.461 29.9147C127.542 30.9948 129.722 31.3915 131.755 31.3916L131.755 23.3916ZM129.147 22.8145L132.834 15.7145C133.061 15.8322 133.327 16.0076 133.595 16.2557C133.865 16.5053 134.089 16.786 134.263 17.0739L127.416 21.2109L120.569 25.348C121.777 27.3478 123.473 28.8825 125.461 29.9144L129.147 22.8145ZM127.416 21.2109L134.326 17.18C134.647 17.7305 134.758 18.2726 134.77 18.6358L126.774 18.9023L118.779 19.1689C118.848 21.2423 119.387 23.3233 120.506 25.2419L127.416 21.2109ZM126.774 18.9023V26.9023H128.057V18.9023V10.9023H126.774V18.9023ZM128.057 18.9023L120.066 19.2829C120.152 21.0899 120.644 22.8767 121.581 24.5179L128.527 20.5488L135.473 16.5797C135.841 17.2234 136.019 17.9119 136.048 18.5218L128.057 18.9023ZM128.527 20.5488L121.582 24.5189C122.654 26.395 124.182 27.7986 125.898 28.747L129.768 21.7451L133.637 14.7432C134.27 15.0932 134.97 15.6998 135.473 16.5787L128.527 20.5488ZM129.768 21.7451L126.118 28.8639C128.033 29.8458 130.002 30.1728 131.755 30.1729L131.755 22.1729L131.755 14.1729C131.969 14.1729 132.614 14.2143 133.418 14.6263L129.768 21.7451ZM131.755 22.1729V30.1729C133.353 30.1729 135.19 29.9029 137.01 29.0436L133.594 21.8096L130.178 14.5756C130.971 14.2008 131.582 14.1729 131.755 14.1729V22.1729ZM133.594 21.8096L137.01 29.0434C138.681 28.2545 140.348 26.9737 141.545 25.0451L134.748 20.8262L127.951 16.6073C128.635 15.5052 129.533 14.8802 130.177 14.5758L133.594 21.8096ZM134.748 20.8262L141.507 25.1062C142.6 23.3804 143.154 21.422 143.154 19.415H135.154H127.154C127.154 18.434 127.438 17.417 127.989 16.5462L134.748 20.8262ZM135.154 19.415L143.154 19.4143C143.154 17.3957 142.626 14.9796 140.93 12.8417L134.662 17.8125L128.394 22.7833C127.354 21.4718 127.154 20.1237 127.154 19.4158L135.154 19.415ZM134.662 17.8125L140.93 12.8413C139.788 11.4008 138.352 10.3079 136.75 9.5752L133.423 16.8506L130.096 24.126C129.491 23.8493 128.881 23.3979 128.394 22.7837L134.662 17.8125ZM133.423 16.8506L136.829 9.61204C135.873 9.162 134.826 8.79263 133.827 8.48254L131.456 16.123L129.085 23.7636C129.391 23.8586 129.623 23.9381 129.791 24.0002C129.964 24.0643 130.03 24.0956 130.016 24.0891L133.423 16.8506ZM131.456 16.123L133.986 8.53358C133.199 8.27125 132.782 8.09644 132.623 8.02068L129.19 15.2471L125.758 22.4735C126.739 22.9391 127.833 23.348 128.926 23.7125L131.456 16.123ZM129.19 15.2471L132.694 8.05515C133.401 8.3993 133.899 8.87695 134.198 9.28273L127.758 14.0283L121.317 18.7739C122.414 20.2628 123.869 21.5533 125.687 22.439L129.19 15.2471ZM127.758 14.0283L134.257 9.36282C135.084 10.515 135.159 11.5654 135.159 11.8691H127.159H119.159C119.159 13.9399 119.634 16.4301 121.259 18.6938L127.758 14.0283ZM127.159 11.8691L135.159 11.8697C135.159 12.2262 135.11 12.6568 134.969 13.1247C134.827 13.5956 134.616 14.0247 134.365 14.393L127.758 9.88184L121.151 5.37069C119.801 7.34715 119.159 9.5965 119.159 11.8686L127.159 11.8691ZM127.758 9.88184L134.364 14.3935C133.911 15.0565 133.329 15.4938 132.84 15.7282L129.383 8.51367L125.926 1.29914C124.069 2.1891 122.402 3.53862 121.151 5.37014L127.758 9.88184ZM129.383 8.51367L132.901 15.6984C132.403 15.9422 131.96 16 131.713 16L131.712 8L131.711 0C129.755 0.000145912 127.758 0.40133 125.864 1.32897L129.383 8.51367ZM150.5 8L150.5 16C150.52 16 150.484 16.0017 150.404 15.9853C150.323 15.9685 150.222 15.938 150.115 15.8896L153.407 8.59863L156.7 1.30766C154.694 0.401693 152.59 1.4782e-05 150.5 0L150.5 8ZM153.407 8.59863L150.115 15.8896C150.068 15.8687 150.013 15.8379 149.958 15.7981C149.904 15.7586 149.869 15.7245 149.855 15.7088L155.737 10.2871L161.62 4.86545C160.235 3.36289 158.582 2.15766 156.7 1.30767L153.407 8.59863ZM155.737 10.2871L149.908 15.7664C149.893 15.7499 149.887 15.7396 149.889 15.7441C149.893 15.7495 149.913 15.7827 149.943 15.8558L157.341 12.8096L164.738 9.76336C163.995 7.95877 162.948 6.27799 161.566 4.80783L155.737 10.2871ZM157.341 12.8096V4.80957H155.973V12.8096V20.8096H157.341V12.8096ZM155.973 12.8096L163.164 9.30557C162.052 7.02138 160.399 5.02459 158.188 3.53955L153.728 10.1807L149.267 16.8218C149.14 16.7363 149.02 16.6292 148.922 16.5147C148.826 16.4026 148.785 16.3231 148.781 16.3136L155.973 12.8096ZM153.728 10.1807L158.188 3.53937C155.859 1.97533 153.218 1.21877 150.5 1.21875L150.5 9.21875L150.5 17.2188C150.376 17.2187 150.171 17.2008 149.92 17.126C149.666 17.0504 149.443 16.9396 149.267 16.822L153.728 10.1807ZM150.5 9.21875V1.21875C147.942 1.21875 145.492 1.89635 143.3 3.20525L147.4 10.0742L151.501 16.9432C151.386 17.0122 151.222 17.0886 151.02 17.1443C150.819 17.2 150.637 17.2188 150.5 17.2188V9.21875ZM147.4 10.0742L143.254 3.23274C141.107 4.53406 139.403 6.32557 138.192 8.46784L145.156 12.4043L152.121 16.3408C152.083 16.4071 152.011 16.5144 151.896 16.6337C151.781 16.7538 151.657 16.8488 151.547 16.9157L147.4 10.0742ZM145.156 12.4043L138.192 8.468C136.909 10.7376 136.322 13.2071 136.322 15.6963H144.322H152.322C152.322 15.7076 152.32 15.7933 152.286 15.9298C152.25 16.0692 152.193 16.2121 152.121 16.3406L145.156 12.4043ZM144.322 15.6963L136.322 15.6967C136.322 18.185 136.909 20.6548 138.192 22.9247L145.156 18.9883L152.121 15.0518C152.194 15.1807 152.251 15.3237 152.286 15.4629C152.32 15.5992 152.322 15.6847 152.322 15.6959L144.322 15.6963ZM145.156 18.9883L138.192 22.9253C139.402 25.0664 141.106 26.8584 143.254 28.1599L147.4 21.3184L151.547 14.4768C151.658 14.544 151.781 14.6391 151.897 14.7591C152.011 14.8781 152.083 14.9851 152.12 15.0512L145.156 18.9883ZM147.4 21.3184L143.3 28.1875C145.496 29.4985 147.946 30.1729 150.5 30.1729V22.1729V14.1729C150.635 14.1729 150.815 14.1913 151.017 14.2469C151.219 14.3025 151.384 14.3791 151.501 14.4492L147.4 21.3184ZM150.5 22.1729L150.5 30.1729C153.205 30.1728 155.855 29.4389 158.207 27.8824L153.792 21.2109L149.377 14.5395C149.551 14.4247 149.764 14.3219 149.998 14.2535C150.229 14.186 150.408 14.1729 150.5 14.1729L150.5 22.1729ZM153.792 21.2109L158.207 27.8823C160.464 26.3886 162.15 24.3582 163.264 22.0111L156.036 18.582L148.808 15.1529C148.826 15.1156 148.882 15.0112 148.995 14.8789C149.11 14.7443 149.244 14.6276 149.377 14.5395L153.792 21.2109ZM156.036 18.582V26.582H157.404V18.582V10.582H156.036V18.582ZM157.404 18.582L149.969 15.6294C149.959 15.6539 149.952 15.6691 149.948 15.6765C149.945 15.6838 149.944 15.6851 149.946 15.6816C149.948 15.6781 149.952 15.672 149.958 15.6642C149.964 15.6564 149.97 15.6492 149.976 15.6431L155.802 21.126L161.627 26.6089C163.036 25.1123 164.101 23.3946 164.839 21.5346L157.404 18.582ZM155.802 21.126L149.973 15.6467C150.007 15.6103 150.053 15.5688 150.108 15.5304C150.162 15.4923 150.204 15.4715 150.222 15.4638L153.429 22.793L156.635 30.1222C158.517 29.299 160.205 28.1215 161.631 26.6053L155.802 21.126ZM153.429 22.793L150.18 15.4825C150.266 15.4439 150.351 15.4183 150.421 15.404C150.49 15.39 150.52 15.3916 150.5 15.3916L150.5 23.3916L150.5 31.3916C152.591 31.3916 154.684 30.9896 156.678 30.1035L153.429 22.793ZM150.5 23.3916V15.3916C150.499 15.3916 150.515 15.3916 150.544 15.3954C150.573 15.3992 150.609 15.406 150.649 15.417C150.736 15.4407 150.796 15.471 150.816 15.4829L146.737 22.3652L142.659 29.2476C145.059 30.6698 147.724 31.3916 150.5 31.3916V23.3916ZM146.737 22.3652L150.854 15.5055C150.853 15.5053 150.856 15.5067 150.86 15.5096C150.864 15.5125 150.87 15.5166 150.877 15.522C150.891 15.5332 150.906 15.5464 150.919 15.5603C150.933 15.5742 150.941 15.5842 150.943 15.5875C150.945 15.5906 150.939 15.5828 150.926 15.5603L144.001 19.5654L137.076 23.5705C138.42 25.8955 140.287 27.8242 142.621 29.225L146.737 22.3652ZM144.001 19.5654L150.962 15.6234C150.962 15.623 150.967 15.6317 150.974 15.6484C150.981 15.6653 150.987 15.6841 150.992 15.7027C150.997 15.7212 150.998 15.733 150.999 15.7355C150.999 15.7378 150.997 15.7254 150.997 15.6959L142.997 15.6963L134.997 15.6967C134.997 18.4314 135.668 21.0855 137.04 23.5074L144.001 19.5654ZM142.997 15.6963H150.997C150.997 15.667 150.999 15.6549 150.998 15.6573C150.998 15.6599 150.996 15.6717 150.992 15.6902C150.987 15.7087 150.981 15.7274 150.974 15.7441C150.967 15.7607 150.962 15.7692 150.963 15.7686L144.001 11.8271L137.039 7.88571C135.669 10.3067 134.997 12.9606 134.997 15.6963H142.997ZM144.001 11.8271L150.926 15.8321C150.94 15.8092 150.946 15.801 150.944 15.8038C150.942 15.8067 150.934 15.8165 150.921 15.8303C150.907 15.8441 150.892 15.8574 150.878 15.8687C150.863 15.8801 150.854 15.8857 150.854 15.8862L146.737 9.02637L142.621 2.16658C140.284 3.56885 138.419 5.49949 137.076 7.82215L144.001 11.8271ZM146.737 9.02637L150.816 15.9087C150.796 15.9206 150.736 15.9509 150.649 15.9746C150.609 15.9856 150.573 15.9924 150.544 15.9962C150.515 16 150.499 16 150.5 16V8V0C147.724 0 145.059 0.721834 142.659 2.14403L146.737 9.02637ZM95.6162 23.1777V15.1777H94.334V23.1777V31.1777H95.6162V23.1777ZM94.334 23.1777H102.334V8.21387H94.334H86.334V23.1777H94.334ZM94.334 8.21387V16.2139H95.6162V8.21387V0.213867H94.334V8.21387ZM95.6162 8.21387H87.6162V23.1777H95.6162H103.616V8.21387H95.6162ZM110.274 20.8213H118.274V8.21387H110.274H102.274V20.8213H110.274ZM110.274 8.21387V16.2139H111.535V8.21387V0.213867H110.274V8.21387ZM111.535 8.21387H103.535V23.1777H111.535H119.535V8.21387H111.535ZM111.535 23.1777V15.1777H110.702V23.1777V31.1777H111.535V23.1777ZM110.702 23.1777L116.866 18.0777L106.433 5.46935L100.27 10.5693L94.1059 15.6693L104.539 28.2777L110.702 23.1777ZM100.27 10.5693H92.2695V23.1777H100.27H108.27V10.5693H100.27ZM100.27 23.1777V15.1777H99.0088V23.1777V31.1777H100.27V23.1777ZM99.0088 23.1777H107.009V8.21387H99.0088H91.0088V23.1777H99.0088ZM99.0088 8.21387V16.2139H99.8428V8.21387V0.213867H99.0088V8.21387ZM99.8428 8.21387L93.6791 13.3138L104.111 25.9212L110.274 20.8213L116.438 15.7214L106.006 3.11393L99.8428 8.21387ZM126.27 23.1777V15.1777H124.88V23.1777V31.1777H126.27V23.1777ZM124.88 23.1777L132.324 20.2465L130.64 15.9711L123.196 18.9023L115.753 21.8336L117.436 26.1089L124.88 23.1777ZM123.196 18.9023V10.9023H116.236V18.9023V26.9023H123.196V18.9023ZM116.236 18.9023L108.804 15.9432L107.102 20.2186L114.534 23.1777L121.967 26.1369L123.669 21.8615L116.236 18.9023ZM114.534 23.1777V15.1777H113.188V23.1777V31.1777H114.534V23.1777ZM113.188 23.1777L120.604 26.1759L126.653 11.212L119.236 8.21387L111.819 5.21572L105.771 20.1796L113.188 23.1777ZM119.236 8.21387V16.2139H120.198V8.21387V0.213867H119.236V8.21387ZM120.198 8.21387L112.785 11.2216L118.856 26.1854L126.27 23.1777L133.683 20.17L127.611 5.20616L120.198 8.21387ZM160.855 14.7979V22.7979H169.363V14.7979V6.79785H160.855V14.7979ZM169.363 14.7979H177.363V8.21387H169.363H161.363V14.7979H169.363ZM169.363 8.21387V16.2139H170.646V8.21387V0.213867H169.363V8.21387ZM170.646 8.21387H162.646V23.1777H170.646H178.646V8.21387H170.646ZM170.646 23.1777V15.1777H169.363V23.1777V31.1777H170.646V23.1777ZM169.363 23.1777H177.363V16.0166H169.363H161.363V23.1777H169.363ZM169.363 16.0166V8.0166H160.855V16.0166V24.0166H169.363V16.0166ZM160.855 16.0166H152.855V23.1777H160.855H168.855V16.0166H160.855ZM160.855 23.1777V15.1777H159.573V23.1777V31.1777H160.855V23.1777ZM159.573 23.1777H167.573V8.21387H159.573H151.573V23.1777H159.573ZM159.573 8.21387V16.2139H160.855V8.21387V0.213867H159.573V8.21387ZM160.855 8.21387H152.855V14.7979H160.855H168.855V8.21387H160.855ZM175.325 23.1777V15.1777H174.043V23.1777V31.1777H175.325V23.1777ZM174.043 23.1777H182.043V8.21387H174.043H166.043V23.1777H174.043ZM174.043 8.21387V16.2139H175.325V8.21387V0.213867H174.043V8.21387ZM175.325 8.21387H167.325V23.1777H175.325H183.325V8.21387H175.325ZM180 21.959V29.959H186.156V21.959V13.959H180V21.959ZM186.156 21.959H178.156V23.1777H186.156H194.156V21.959H186.156ZM186.156 23.1777V15.1777H178.718V23.1777V31.1777H186.156V23.1777ZM178.718 23.1777H186.718V8.21387H178.718H170.718V23.1777H178.718ZM178.718 8.21387V16.2139H180V8.21387V0.213867H178.718V8.21387ZM180 8.21387H172V21.959H180H188V8.21387H180ZM195.786 9.43262V1.43262H189.416V9.43262V17.4326H195.786V9.43262ZM189.416 9.43262H181.416V14.7979H189.416H197.416V9.43262H189.416ZM189.416 14.7979V22.7979H195.572V14.7979V6.79785H189.416V14.7979ZM195.572 14.7979H187.572V16.0166H195.572H203.572V14.7979H195.572ZM195.572 16.0166V8.0166H189.416V16.0166V24.0166H195.572V16.0166ZM189.416 16.0166H181.416V21.959H189.416H197.416V16.0166H189.416ZM189.416 21.959V29.959H196V21.959V13.959H189.416V21.959ZM196 21.959H188V23.1777H196H204V21.959H196ZM196 23.1777V15.1777H188.134V23.1777V31.1777H196V23.1777ZM188.134 23.1777H196.134V8.21387H188.134H180.134V23.1777H188.134ZM188.134 8.21387V16.2139H195.786V8.21387V0.213867H188.134V8.21387ZM195.786 8.21387H187.786V9.43262H195.786H203.786V8.21387H195.786ZM68.5381 9.21875L68.5375 1.21875C65.9605 1.21893 63.466 1.89128 61.2231 3.24349L65.3535 10.0947L69.484 16.946C69.3584 17.0217 69.1919 17.0979 68.9977 17.1513C68.8046 17.2044 68.6432 17.2187 68.5386 17.2188L68.5381 9.21875ZM65.3535 10.0947L61.2526 3.22575C59.0841 4.52043 57.351 6.31691 56.1237 8.48778L63.0879 12.4248L70.0521 16.3618C70.007 16.4415 69.9276 16.5575 69.8071 16.6815C69.686 16.806 69.5607 16.9002 69.4544 16.9637L65.3535 10.0947ZM63.0879 12.4248L56.1234 8.48835C54.8481 10.7446 54.2539 13.2048 54.2539 15.6963H62.2539H70.2539C70.2539 15.7223 70.2502 15.8167 70.2145 15.9567C70.1782 16.0991 70.1213 16.2394 70.0524 16.3613L63.0879 12.4248ZM62.2539 15.6963L54.2539 15.6967C54.254 18.1886 54.8486 20.6479 56.1234 22.9033L63.0879 18.9668L70.0524 15.0303C70.121 15.1517 70.178 15.2919 70.2144 15.4347C70.2502 15.575 70.2539 15.6697 70.2539 15.6958L62.2539 15.6963ZM63.0879 18.9668L56.1236 22.9037C57.3411 25.0574 59.0507 26.8404 61.1778 28.1421L65.3535 21.3184L69.5292 14.4946C69.6165 14.548 69.7251 14.6304 69.8326 14.7419C69.9398 14.8532 70.0113 14.9577 70.0521 15.0299L63.0879 18.9668ZM65.3535 21.3184L61.2977 28.214C63.5316 29.528 65.9997 30.1727 68.5376 30.1729L68.5381 22.1729L68.5386 14.1729C68.6257 14.1729 68.7705 14.1846 68.9491 14.2324C69.1289 14.2807 69.2869 14.3507 69.4094 14.4227L65.3535 21.3184ZM68.5381 22.1729V30.1729C71.0758 30.1729 73.5574 29.5278 75.8026 28.1876L71.7021 21.3184L67.6017 14.4492C67.7431 14.3647 67.9176 14.2877 68.1098 14.2358C68.3001 14.1845 68.4513 14.1729 68.5381 14.1729V22.1729ZM71.7021 21.3184L75.8329 28.1694C77.9807 26.8744 79.7194 25.0868 80.9535 22.9037L73.9893 18.9668L67.025 15.0299C67.0735 14.9442 67.1526 14.8308 67.2655 14.7148C67.3783 14.5987 67.4887 14.5172 67.5714 14.4673L71.7021 21.3184ZM73.9893 18.9668L80.9104 22.979C82.2243 20.7125 82.8446 18.2262 82.8447 15.6967L74.8447 15.6963L66.8447 15.6958C66.8447 15.653 66.8506 15.542 66.8912 15.3869C66.9324 15.2295 66.9954 15.08 67.0681 14.9546L73.9893 18.9668ZM74.8447 15.6963H82.8447C82.8447 13.1672 82.2248 10.68 80.9104 8.41256L73.9893 12.4248L67.0681 16.437C66.9951 16.3111 66.9321 16.1615 66.8911 16.0045C66.8506 15.8497 66.8447 15.739 66.8447 15.6963H74.8447ZM73.9893 12.4248L80.9534 8.4878C79.7094 6.28725 77.947 4.48673 75.7583 3.19925L71.7021 10.0947L67.646 16.9902C67.5446 16.9306 67.4176 16.8374 67.2911 16.7085C67.1648 16.5798 67.0778 16.455 67.0251 16.3618L73.9893 12.4248ZM71.7021 10.0947L75.8775 3.27075C73.6234 1.89156 71.1153 1.21875 68.5381 1.21875V9.21875V17.2188C68.4339 17.2188 68.2659 17.2045 68.0609 17.1478C67.8542 17.0906 67.6713 17.0071 67.5268 16.9187L71.7021 10.0947ZM116.726 17.6836V25.6836H122.709V17.6836V9.68359H116.726V17.6836ZM122.709 17.6836L130.142 14.7244L127.14 7.18438L119.707 10.1436L112.274 13.1027L115.276 20.6428L122.709 17.6836ZM119.707 10.1436L112.268 7.20186L109.286 14.7419L116.726 17.6836L124.165 20.6253L127.147 13.0853L119.707 10.1436Z" fill="#E6E2DE" mask="url(#path-4-outside-1_1116_39)"/>
</svg>
