<svg width="242" height="240" viewBox="0 0 242 240" fill="none" xmlns="http://www.w3.org/2000/svg">
<g clip-path="url(#clip0_1195_234)">
<rect y="80.0547" width="242" height="160" rx="12" fill="#E6E2DE"/>
<path d="M75.4195 155.295C72.1875 155.295 69.6595 152.671 69.6595 149.295C69.6595 145.935 72.1875 143.327 75.4195 143.327C78.4435 143.327 80.8115 145.343 81.2115 148.287H78.6355C78.3635 146.639 77.0835 145.503 75.4515 145.503C73.4835 145.503 72.1555 147.055 72.1555 149.295C72.1555 151.551 73.4835 153.119 75.4515 153.119C77.0835 153.119 78.3475 151.967 78.6355 150.319H81.2115C80.8115 153.295 78.4435 155.295 75.4195 155.295ZM86.3336 155.215C83.8536 155.215 81.9976 153.263 81.9976 150.783C81.9976 148.287 83.8536 146.351 86.3336 146.351C88.8136 146.351 90.6696 148.287 90.6696 150.783C90.6696 153.263 88.8136 155.215 86.3336 155.215ZM86.3336 153.247C87.4376 153.247 88.3816 152.367 88.3816 150.783C88.3816 149.199 87.4376 148.335 86.3336 148.335C85.2296 148.335 84.2856 149.199 84.2856 150.783C84.2856 152.367 85.2296 153.247 86.3336 153.247ZM95.5289 155.215C93.0649 155.215 91.3689 153.391 91.3689 150.783C91.3689 148.223 93.1289 146.351 95.5289 146.351C97.7529 146.351 99.4009 147.855 99.6729 150.159H97.3369C97.2249 149.023 96.5369 148.319 95.5289 148.319C94.3769 148.319 93.6409 149.263 93.6409 150.783C93.6409 152.319 94.3609 153.247 95.5289 153.247C96.5529 153.247 97.2089 152.575 97.3369 151.407H99.6729C99.4169 153.759 97.8169 155.215 95.5289 155.215ZM103.517 144.527C103.517 145.279 102.909 145.839 102.029 145.839C101.165 145.839 100.557 145.279 100.557 144.527C100.557 143.743 101.165 143.183 102.029 143.183C102.909 143.183 103.517 143.743 103.517 144.527ZM103.165 155.055H100.941V146.511H103.165V155.055ZM107.208 150.399V155.055H104.984V146.511H107.032V147.727C107.656 146.879 108.536 146.351 109.656 146.351C111.368 146.351 112.552 147.471 112.552 149.535V155.055H110.344V150.287C110.344 149.023 109.848 148.319 108.84 148.319C107.96 148.319 107.208 149.023 107.208 150.399ZM119.396 155.055V153.999C118.836 154.799 117.988 155.215 116.82 155.215C115.044 155.215 113.86 154.175 113.86 152.575C113.86 150.911 115.204 150.015 117.7 150.015C118.18 150.015 118.596 150.047 119.124 150.111V149.599C119.124 148.639 118.58 148.079 117.652 148.079C116.692 148.079 116.116 148.639 116.036 149.599H114.036C114.164 147.631 115.588 146.351 117.652 146.351C119.892 146.351 121.204 147.583 121.204 149.679V155.055H119.396ZM115.956 152.511C115.956 153.231 116.468 153.679 117.3 153.679C118.436 153.679 119.124 153.055 119.124 152.063V151.455C118.596 151.375 118.228 151.343 117.844 151.343C116.58 151.343 115.956 151.743 115.956 152.511ZM130.177 152.319C130.177 154.111 128.817 155.215 126.385 155.215C123.953 155.215 122.593 154.047 122.417 152.143H124.545C124.561 153.023 125.313 153.583 126.417 153.583C127.281 153.583 127.937 153.311 127.937 152.703C127.937 152.159 127.585 151.935 126.769 151.775L125.233 151.487C123.697 151.215 122.769 150.367 122.769 149.039C122.769 147.455 124.129 146.351 126.257 146.351C128.401 146.351 129.873 147.487 130.033 149.327H127.905C127.825 148.495 127.201 147.983 126.257 147.983C125.441 147.983 124.897 148.287 124.897 148.831C124.897 149.343 125.249 149.551 126.017 149.695L127.665 149.999C129.329 150.319 130.177 151.087 130.177 152.319ZM139.999 155.295C136.767 155.295 134.239 152.671 134.239 149.295C134.239 145.935 136.767 143.327 139.999 143.327C143.023 143.327 145.391 145.343 145.791 148.287H143.215C142.943 146.639 141.663 145.503 140.031 145.503C138.063 145.503 136.735 147.055 136.735 149.295C136.735 151.551 138.063 153.119 140.031 153.119C141.663 153.119 142.927 151.967 143.215 150.319H145.791C145.391 153.295 143.023 155.295 139.999 155.295ZM149.361 150.399V155.055H147.137V143.567H149.361V147.631C149.953 146.847 150.689 146.351 151.809 146.351C153.521 146.351 154.705 147.471 154.705 149.535V155.055H152.497V150.287C152.497 149.023 152.001 148.319 150.993 148.319C150.113 148.319 149.361 149.023 149.361 150.399ZM159.037 144.527C159.037 145.279 158.429 145.839 157.549 145.839C156.685 145.839 156.077 145.279 156.077 144.527C156.077 143.743 156.685 143.183 157.549 143.183C158.429 143.183 159.037 143.743 159.037 144.527ZM158.685 155.055H156.461V146.511H158.685V155.055ZM162.744 155.055H160.504V143.567H162.744V155.055ZM168.291 155.199C165.731 155.199 164.019 153.423 164.019 150.751C164.019 148.207 165.795 146.351 168.259 146.351C170.963 146.351 172.755 148.543 172.355 151.327H166.291C166.435 152.719 167.107 153.487 168.243 153.487C169.219 153.487 169.875 153.007 170.131 152.159H172.339C171.859 154.095 170.371 155.199 168.291 155.199ZM168.211 147.983C167.171 147.983 166.515 148.655 166.323 149.919H170.003C169.939 148.735 169.267 147.983 168.211 147.983Z" fill="#1A1A1A"/>
<path d="M81.0182 175.055L78.8902 167.173L76.7482 175.055H75.1662L72.5482 165.003H74.0602L75.9922 172.745L78.1062 165.003H79.7022L81.7882 172.759L83.7202 165.003H85.2322L82.6142 175.055H81.0182ZM88.6394 175.195C86.4974 175.195 85.0554 173.641 85.0554 171.303C85.0554 169.105 86.5534 167.495 88.5974 167.495C90.8094 167.495 92.2794 169.287 92.0274 171.695H86.4974C86.6094 173.207 87.3654 174.089 88.6114 174.089C89.6614 174.089 90.3894 173.515 90.6274 172.549H92.0274C91.6634 174.201 90.3894 175.195 88.6394 175.195ZM88.5694 168.559C87.4354 168.559 86.6654 169.371 86.5114 170.757H90.5294C90.4594 169.385 89.7174 168.559 88.5694 168.559ZM100.335 171.345C100.335 173.571 99.0467 175.195 97.0447 175.195C95.9947 175.195 95.0987 174.663 94.5667 173.725V175.055H93.2507V165.003H94.6647V168.909C95.1827 167.999 96.0367 167.495 97.0447 167.495C99.0327 167.495 100.335 169.091 100.335 171.345ZM98.8647 171.345C98.8647 169.665 97.9827 168.741 96.7647 168.741C95.5887 168.741 94.6647 169.651 94.6647 171.317C94.6647 172.955 95.5607 173.935 96.7647 173.935C97.9827 173.935 98.8647 172.997 98.8647 171.345ZM107.368 172.843C107.368 174.299 106.234 175.195 104.26 175.195C102.3 175.195 101.138 174.229 100.998 172.633H102.356C102.412 173.557 103.154 174.131 104.288 174.131C105.282 174.131 105.94 173.781 105.94 173.081C105.94 172.465 105.562 172.199 104.638 172.017L103.434 171.793C102.062 171.527 101.292 170.827 101.292 169.707C101.292 168.405 102.426 167.495 104.148 167.495C105.926 167.495 107.13 168.447 107.256 169.973H105.898C105.814 169.077 105.156 168.559 104.162 168.559C103.266 168.559 102.664 168.937 102.664 169.581C102.664 170.183 103.042 170.463 103.938 170.631L105.198 170.869C106.668 171.135 107.368 171.779 107.368 172.843ZM110.354 165.913C110.354 166.445 109.934 166.851 109.332 166.851C108.73 166.851 108.296 166.445 108.296 165.913C108.296 165.367 108.73 164.975 109.332 164.975C109.934 164.975 110.354 165.367 110.354 165.913ZM110.046 175.055H108.632V167.635H110.046V175.055ZM115.915 173.683V174.929C115.481 175.125 115.103 175.195 114.655 175.195C113.283 175.195 112.331 174.453 112.331 172.815V168.839H110.693V167.635H112.331V165.437H113.745V167.635H115.985V168.839H113.745V172.493C113.745 173.515 114.235 173.879 114.991 173.879C115.327 173.879 115.621 173.823 115.915 173.683ZM119.901 175.195C117.759 175.195 116.317 173.641 116.317 171.303C116.317 169.105 117.815 167.495 119.859 167.495C122.071 167.495 123.541 169.287 123.289 171.695H117.759C117.871 173.207 118.627 174.089 119.873 174.089C120.923 174.089 121.651 173.515 121.889 172.549H123.289C122.925 174.201 121.651 175.195 119.901 175.195ZM119.831 168.559C118.697 168.559 117.927 169.371 117.773 170.757H121.791C121.721 169.385 120.979 168.559 119.831 168.559ZM130.449 175.055H127.271V165.003H130.449C133.655 165.003 135.503 167.047 135.503 169.987C135.503 172.885 133.585 175.055 130.449 175.055ZM128.811 166.333V173.725H130.379C132.689 173.725 133.935 172.297 133.935 169.987C133.935 167.719 132.703 166.333 130.379 166.333H128.811ZM139.774 175.195C137.632 175.195 136.19 173.641 136.19 171.303C136.19 169.105 137.688 167.495 139.732 167.495C141.944 167.495 143.414 169.287 143.162 171.695H137.632C137.744 173.207 138.5 174.089 139.746 174.089C140.796 174.089 141.524 173.515 141.762 172.549H143.162C142.798 174.201 141.524 175.195 139.774 175.195ZM139.704 168.559C138.57 168.559 137.8 169.371 137.646 170.757H141.664C141.594 169.385 140.852 168.559 139.704 168.559ZM150.266 172.843C150.266 174.299 149.132 175.195 147.158 175.195C145.198 175.195 144.036 174.229 143.896 172.633H145.254C145.31 173.557 146.052 174.131 147.186 174.131C148.18 174.131 148.838 173.781 148.838 173.081C148.838 172.465 148.46 172.199 147.536 172.017L146.332 171.793C144.96 171.527 144.19 170.827 144.19 169.707C144.19 168.405 145.324 167.495 147.046 167.495C148.824 167.495 150.028 168.447 150.154 169.973H148.796C148.712 169.077 148.054 168.559 147.06 168.559C146.164 168.559 145.562 168.937 145.562 169.581C145.562 170.183 145.94 170.463 146.836 170.631L148.096 170.869C149.566 171.135 150.266 171.779 150.266 172.843ZM153.252 165.913C153.252 166.445 152.832 166.851 152.23 166.851C151.628 166.851 151.194 166.445 151.194 165.913C151.194 165.367 151.628 164.975 152.23 164.975C152.832 164.975 153.252 165.367 153.252 165.913ZM152.944 175.055H151.53V167.635H152.944V175.055ZM157.595 177.911C155.649 177.911 154.389 176.875 154.305 175.195H155.677C155.761 176.231 156.433 176.791 157.581 176.791C158.855 176.791 159.527 176.105 159.527 174.831V173.487C159.107 174.383 158.267 174.901 157.259 174.901C155.411 174.901 154.095 173.375 154.095 171.191C154.095 168.979 155.355 167.495 157.217 167.495C158.281 167.495 159.121 168.013 159.625 168.951V167.635H160.941V174.803C160.941 176.749 159.695 177.911 157.595 177.911ZM155.523 171.191C155.523 172.731 156.279 173.669 157.511 173.669C158.715 173.669 159.527 172.703 159.527 171.233C159.527 169.693 158.729 168.713 157.511 168.713C156.293 168.713 155.523 169.665 155.523 171.191ZM164.032 170.869V175.055H162.618V167.635H163.934V168.867C164.438 168.041 165.278 167.495 166.3 167.495C167.826 167.495 168.834 168.475 168.834 170.253V175.055H167.42V170.729C167.42 169.455 166.86 168.741 165.81 168.741C164.844 168.741 164.032 169.553 164.032 170.869Z" fill="#1A1A1A"/>
<mask id="path-4-outside-1_1195_234" maskUnits="userSpaceOnUse" x="37.25" y="65" width="167" height="32" fill="black">
<rect fill="white" x="37.25" y="65" width="167" height="32"/>
<path d="M52.7529 73C53.8074 73 54.7766 73.1997 55.6602 73.5986C56.5436 73.9976 57.3205 74.5604 57.9902 75.2871C58.66 75.9996 59.1947 76.8406 59.5938 77.8096H58.2256C57.6841 76.6982 56.9361 75.8219 55.9814 75.1807C55.0266 74.5394 53.95 74.2188 52.7529 74.2188C51.6414 74.2188 50.6081 74.5032 49.6533 75.0732C48.7129 75.6432 47.9649 76.4201 47.4092 77.4033C46.8534 78.3866 46.5752 79.4841 46.5752 80.6953C46.5752 81.9066 46.8535 83.004 47.4092 83.9873C47.9649 84.9705 48.7129 85.7474 49.6533 86.3174C50.6081 86.8874 51.6414 87.1728 52.7529 87.1729C53.9784 87.1729 55.0759 86.8521 56.0449 86.2109C57.014 85.5696 57.7627 84.6926 58.29 83.5811H59.6582C59.2735 84.5501 58.7387 85.3982 58.0547 86.125C57.3849 86.8376 56.5937 87.3939 55.6816 87.793C54.7839 88.1919 53.8074 88.3916 52.7529 88.3916C51.3993 88.3916 50.1454 88.0491 48.9912 87.3652C47.8511 86.6812 46.9389 85.7473 46.2549 84.5645C45.5851 83.3817 45.25 82.0919 45.25 80.6953C45.25 79.2988 45.5851 78.0089 46.2549 76.8262C46.9389 75.6435 47.8512 74.7104 48.9912 74.0264C50.1454 73.3424 51.3992 73 52.7529 73ZM68.5381 73C69.9347 73 71.2181 73.3423 72.3867 74.0264C73.555 74.7103 74.4738 75.6436 75.1436 76.8262C75.8133 78.0089 76.1484 79.2988 76.1484 80.6953C76.1484 82.0919 75.8133 83.3816 75.1436 84.5645C74.4738 85.7472 73.5552 86.6812 72.3867 87.3652C71.2181 88.0493 69.9347 88.3916 68.5381 88.3916C67.1417 88.3915 65.8589 88.0492 64.6904 87.3652C63.5362 86.6812 62.6176 85.7472 61.9336 84.5645C61.2638 83.3816 60.9287 82.0919 60.9287 80.6953C60.9288 79.2988 61.2638 78.0089 61.9336 76.8262C62.6176 75.6436 63.5364 74.7103 64.6904 74.0264C65.8589 73.3424 67.1417 73.0001 68.5381 73ZM85.1543 73C86.2088 73 87.178 73.1996 88.0615 73.5986C88.945 73.9977 89.7219 74.5604 90.3916 75.2871C91.0613 75.9996 91.5951 76.8406 91.9941 77.8096H90.627C90.0854 76.698 89.3366 75.822 88.3818 75.1807C87.4271 74.5394 86.3513 74.2188 85.1543 74.2188C84.0428 74.2188 83.0094 74.5033 82.0547 75.0732C81.1141 75.6433 80.3654 76.42 79.8096 77.4033C79.2538 78.3866 78.9766 79.4841 78.9766 80.6953C78.9766 81.9065 79.2539 83.0041 79.8096 83.9873C80.3654 84.9706 81.1141 85.7473 82.0547 86.3174C83.0095 86.8874 84.0427 87.1729 85.1543 87.1729C86.3798 87.1728 87.4773 86.8522 88.4463 86.2109C89.4153 85.5696 90.1631 84.6926 90.6904 83.5811H92.0586C91.6738 84.5501 91.1391 85.3982 90.4551 86.125C89.7853 86.8375 88.995 87.394 88.083 87.793C87.1852 88.192 86.2088 88.3916 85.1543 88.3916C83.8004 88.3916 82.5459 88.0493 81.3916 87.3652C80.2516 86.6812 79.3393 85.7473 78.6553 84.5645C77.9856 83.3817 77.6514 82.0918 77.6514 80.6953C77.6514 79.2988 77.9855 78.0089 78.6553 76.8262C79.3393 75.6434 80.2517 74.7104 81.3916 74.0264C82.5459 73.3423 83.8004 73 85.1543 73ZM131.713 73C132.525 73.0001 133.266 73.1852 133.936 73.5557C134.62 73.9119 135.169 74.4105 135.582 75.0518C135.995 75.6929 136.208 76.3986 136.223 77.168H134.94C134.926 76.6266 134.776 76.135 134.491 75.6934C134.22 75.2517 133.836 74.8957 133.337 74.625C132.838 74.3542 132.275 74.2188 131.648 74.2188C131.036 74.2188 130.486 74.3253 130.002 74.5391C129.532 74.7528 129.161 75.0663 128.891 75.4795C128.62 75.8785 128.484 76.3419 128.484 76.8691C128.484 77.4819 128.642 77.9877 128.955 78.3867C129.269 78.7715 129.661 79.0714 130.131 79.2852C130.601 79.4989 131.243 79.741 132.055 80.0117C133.009 80.311 133.779 80.6099 134.363 80.9092C134.962 81.1942 135.46 81.6224 135.859 82.1924C136.273 82.7481 136.479 83.4889 136.479 84.415C136.479 85.1845 136.273 85.8755 135.859 86.4883C135.446 87.0868 134.876 87.5574 134.149 87.8994C133.437 88.2272 132.638 88.3916 131.755 88.3916C130.758 88.3916 129.888 88.1991 129.147 87.8145C128.406 87.4297 127.829 86.8949 127.416 86.2109C127.017 85.5269 126.803 84.7573 126.774 83.9023H128.057C128.085 84.5007 128.242 85.0492 128.527 85.5479C128.812 86.0466 129.226 86.4458 129.768 86.7451C130.323 87.03 130.986 87.1728 131.755 87.1729C132.467 87.1729 133.081 87.0518 133.594 86.8096C134.107 86.5673 134.492 86.2394 134.748 85.8262C135.019 85.3986 135.154 84.9281 135.154 84.415C135.154 83.7595 134.99 83.2248 134.662 82.8115C134.334 82.3985 133.921 82.0776 133.423 81.8496C132.938 81.6216 132.283 81.3796 131.456 81.123C130.516 80.8096 129.76 80.5178 129.19 80.2471C128.635 79.9763 128.157 79.5698 127.758 79.0283C127.359 78.4725 127.159 77.7527 127.159 76.8691C127.159 76.1281 127.359 75.4651 127.758 74.8809C128.157 74.2967 128.699 73.8404 129.383 73.5127C130.081 73.1708 130.858 73 131.713 73ZM150.5 73C151.555 73 152.524 73.1996 153.407 73.5986C154.291 73.9976 155.068 74.5604 155.737 75.2871C156.407 75.9996 156.942 76.8405 157.341 77.8096H155.973C155.431 76.698 154.682 75.822 153.728 75.1807C152.773 74.5394 151.697 74.2188 150.5 74.2188C149.388 74.2188 148.355 74.5032 147.4 75.0732C146.46 75.6432 145.712 76.4202 145.156 77.4033C144.601 78.3866 144.322 79.4841 144.322 80.6953C144.322 81.9066 144.6 83.004 145.156 83.9873C145.712 84.9706 146.46 85.7473 147.4 86.3174C148.355 86.8874 149.388 87.1728 150.5 87.1729C151.726 87.1729 152.823 86.8522 153.792 86.2109C154.761 85.5696 155.509 84.6926 156.036 83.5811H157.404C157.02 84.55 156.486 85.3983 155.802 86.125C155.132 86.8376 154.341 87.3939 153.429 87.793C152.531 88.192 151.555 88.3916 150.5 88.3916C149.146 88.3916 147.892 88.0493 146.737 87.3652C145.597 86.6812 144.686 85.7472 144.002 84.5645C143.332 83.3816 142.997 82.0919 142.997 80.6953C142.997 79.2988 143.332 78.0089 144.002 76.8262C144.686 75.6437 145.598 74.7103 146.737 74.0264C147.892 73.3423 149.146 73 150.5 73ZM95.6162 88.1787H94.334V73.2148H95.6162V88.1787ZM110.274 85.8223V73.2148H111.535V88.1787H110.702L100.27 75.5703V88.1787H99.0088V73.2148H99.8428L110.274 85.8223ZM126.27 88.1787H124.88L123.196 83.9033H116.236L114.534 88.1787H113.188L119.236 73.2148H120.198L126.27 88.1787ZM160.855 79.7988H169.363V73.2148H170.646V88.1787H169.363V81.0176H160.855V88.1787H159.573V73.2148H160.855V79.7988ZM175.325 88.1787H174.043V73.2148H175.325V88.1787ZM180 86.96H186.156V88.1787H178.718V73.2148H180V86.96ZM195.786 74.4336H189.416V79.7988H195.572V81.0176H189.416V86.96H196V88.1787H188.134V73.2148H195.786V74.4336ZM68.5381 74.2188C67.384 74.2188 66.3224 74.5106 65.3535 75.0947C64.3988 75.6647 63.6437 76.4416 63.0879 77.4248C62.5321 78.4081 62.254 79.4983 62.2539 80.6953C62.2539 81.8923 62.5322 82.9825 63.0879 83.9658C63.6437 84.9491 64.3987 85.7331 65.3535 86.3174C66.3225 86.8873 67.3839 87.1728 68.5381 87.1729C69.6924 87.1729 70.7473 86.8874 71.7021 86.3174C72.6712 85.7331 73.4335 84.9491 73.9893 83.9658C74.5592 82.9825 74.8447 81.8923 74.8447 80.6953C74.8447 79.4983 74.5593 78.4081 73.9893 77.4248C73.4335 76.4416 72.6711 75.6647 71.7021 75.0947C70.7474 74.5105 69.6923 74.2188 68.5381 74.2188ZM116.726 82.6846H122.709L119.707 75.1436L116.726 82.6846Z"/>
</mask>
<path d="M52.7529 73C53.8074 73 54.7766 73.1997 55.6602 73.5986C56.5436 73.9976 57.3205 74.5604 57.9902 75.2871C58.66 75.9996 59.1947 76.8406 59.5938 77.8096H58.2256C57.6841 76.6982 56.9361 75.8219 55.9814 75.1807C55.0266 74.5394 53.95 74.2188 52.7529 74.2188C51.6414 74.2188 50.6081 74.5032 49.6533 75.0732C48.7129 75.6432 47.9649 76.4201 47.4092 77.4033C46.8534 78.3866 46.5752 79.4841 46.5752 80.6953C46.5752 81.9066 46.8535 83.004 47.4092 83.9873C47.9649 84.9705 48.7129 85.7474 49.6533 86.3174C50.6081 86.8874 51.6414 87.1728 52.7529 87.1729C53.9784 87.1729 55.0759 86.8521 56.0449 86.2109C57.014 85.5696 57.7627 84.6926 58.29 83.5811H59.6582C59.2735 84.5501 58.7387 85.3982 58.0547 86.125C57.3849 86.8376 56.5937 87.3939 55.6816 87.793C54.7839 88.1919 53.8074 88.3916 52.7529 88.3916C51.3993 88.3916 50.1454 88.0491 48.9912 87.3652C47.8511 86.6812 46.9389 85.7473 46.2549 84.5645C45.5851 83.3817 45.25 82.0919 45.25 80.6953C45.25 79.2988 45.5851 78.0089 46.2549 76.8262C46.9389 75.6435 47.8512 74.7104 48.9912 74.0264C50.1454 73.3424 51.3992 73 52.7529 73ZM68.5381 73C69.9347 73 71.2181 73.3423 72.3867 74.0264C73.555 74.7103 74.4738 75.6436 75.1436 76.8262C75.8133 78.0089 76.1484 79.2988 76.1484 80.6953C76.1484 82.0919 75.8133 83.3816 75.1436 84.5645C74.4738 85.7472 73.5552 86.6812 72.3867 87.3652C71.2181 88.0493 69.9347 88.3916 68.5381 88.3916C67.1417 88.3915 65.8589 88.0492 64.6904 87.3652C63.5362 86.6812 62.6176 85.7472 61.9336 84.5645C61.2638 83.3816 60.9287 82.0919 60.9287 80.6953C60.9288 79.2988 61.2638 78.0089 61.9336 76.8262C62.6176 75.6436 63.5364 74.7103 64.6904 74.0264C65.8589 73.3424 67.1417 73.0001 68.5381 73ZM85.1543 73C86.2088 73 87.178 73.1996 88.0615 73.5986C88.945 73.9977 89.7219 74.5604 90.3916 75.2871C91.0613 75.9996 91.5951 76.8406 91.9941 77.8096H90.627C90.0854 76.698 89.3366 75.822 88.3818 75.1807C87.4271 74.5394 86.3513 74.2188 85.1543 74.2188C84.0428 74.2188 83.0094 74.5033 82.0547 75.0732C81.1141 75.6433 80.3654 76.42 79.8096 77.4033C79.2538 78.3866 78.9766 79.4841 78.9766 80.6953C78.9766 81.9065 79.2539 83.0041 79.8096 83.9873C80.3654 84.9706 81.1141 85.7473 82.0547 86.3174C83.0095 86.8874 84.0427 87.1729 85.1543 87.1729C86.3798 87.1728 87.4773 86.8522 88.4463 86.2109C89.4153 85.5696 90.1631 84.6926 90.6904 83.5811H92.0586C91.6738 84.5501 91.1391 85.3982 90.4551 86.125C89.7853 86.8375 88.995 87.394 88.083 87.793C87.1852 88.192 86.2088 88.3916 85.1543 88.3916C83.8004 88.3916 82.5459 88.0493 81.3916 87.3652C80.2516 86.6812 79.3393 85.7473 78.6553 84.5645C77.9856 83.3817 77.6514 82.0918 77.6514 80.6953C77.6514 79.2988 77.9855 78.0089 78.6553 76.8262C79.3393 75.6434 80.2517 74.7104 81.3916 74.0264C82.5459 73.3423 83.8004 73 85.1543 73ZM131.713 73C132.525 73.0001 133.266 73.1852 133.936 73.5557C134.62 73.9119 135.169 74.4105 135.582 75.0518C135.995 75.6929 136.208 76.3986 136.223 77.168H134.94C134.926 76.6266 134.776 76.135 134.491 75.6934C134.22 75.2517 133.836 74.8957 133.337 74.625C132.838 74.3542 132.275 74.2188 131.648 74.2188C131.036 74.2188 130.486 74.3253 130.002 74.5391C129.532 74.7528 129.161 75.0663 128.891 75.4795C128.62 75.8785 128.484 76.3419 128.484 76.8691C128.484 77.4819 128.642 77.9877 128.955 78.3867C129.269 78.7715 129.661 79.0714 130.131 79.2852C130.601 79.4989 131.243 79.741 132.055 80.0117C133.009 80.311 133.779 80.6099 134.363 80.9092C134.962 81.1942 135.46 81.6224 135.859 82.1924C136.273 82.7481 136.479 83.4889 136.479 84.415C136.479 85.1845 136.273 85.8755 135.859 86.4883C135.446 87.0868 134.876 87.5574 134.149 87.8994C133.437 88.2272 132.638 88.3916 131.755 88.3916C130.758 88.3916 129.888 88.1991 129.147 87.8145C128.406 87.4297 127.829 86.8949 127.416 86.2109C127.017 85.5269 126.803 84.7573 126.774 83.9023H128.057C128.085 84.5007 128.242 85.0492 128.527 85.5479C128.812 86.0466 129.226 86.4458 129.768 86.7451C130.323 87.03 130.986 87.1728 131.755 87.1729C132.467 87.1729 133.081 87.0518 133.594 86.8096C134.107 86.5673 134.492 86.2394 134.748 85.8262C135.019 85.3986 135.154 84.9281 135.154 84.415C135.154 83.7595 134.99 83.2248 134.662 82.8115C134.334 82.3985 133.921 82.0776 133.423 81.8496C132.938 81.6216 132.283 81.3796 131.456 81.123C130.516 80.8096 129.76 80.5178 129.19 80.2471C128.635 79.9763 128.157 79.5698 127.758 79.0283C127.359 78.4725 127.159 77.7527 127.159 76.8691C127.159 76.1281 127.359 75.4651 127.758 74.8809C128.157 74.2967 128.699 73.8404 129.383 73.5127C130.081 73.1708 130.858 73 131.713 73ZM150.5 73C151.555 73 152.524 73.1996 153.407 73.5986C154.291 73.9976 155.068 74.5604 155.737 75.2871C156.407 75.9996 156.942 76.8405 157.341 77.8096H155.973C155.431 76.698 154.682 75.822 153.728 75.1807C152.773 74.5394 151.697 74.2188 150.5 74.2188C149.388 74.2188 148.355 74.5032 147.4 75.0732C146.46 75.6432 145.712 76.4202 145.156 77.4033C144.601 78.3866 144.322 79.4841 144.322 80.6953C144.322 81.9066 144.6 83.004 145.156 83.9873C145.712 84.9706 146.46 85.7473 147.4 86.3174C148.355 86.8874 149.388 87.1728 150.5 87.1729C151.726 87.1729 152.823 86.8522 153.792 86.2109C154.761 85.5696 155.509 84.6926 156.036 83.5811H157.404C157.02 84.55 156.486 85.3983 155.802 86.125C155.132 86.8376 154.341 87.3939 153.429 87.793C152.531 88.192 151.555 88.3916 150.5 88.3916C149.146 88.3916 147.892 88.0493 146.737 87.3652C145.597 86.6812 144.686 85.7472 144.002 84.5645C143.332 83.3816 142.997 82.0919 142.997 80.6953C142.997 79.2988 143.332 78.0089 144.002 76.8262C144.686 75.6437 145.598 74.7103 146.737 74.0264C147.892 73.3423 149.146 73 150.5 73ZM95.6162 88.1787H94.334V73.2148H95.6162V88.1787ZM110.274 85.8223V73.2148H111.535V88.1787H110.702L100.27 75.5703V88.1787H99.0088V73.2148H99.8428L110.274 85.8223ZM126.27 88.1787H124.88L123.196 83.9033H116.236L114.534 88.1787H113.188L119.236 73.2148H120.198L126.27 88.1787ZM160.855 79.7988H169.363V73.2148H170.646V88.1787H169.363V81.0176H160.855V88.1787H159.573V73.2148H160.855V79.7988ZM175.325 88.1787H174.043V73.2148H175.325V88.1787ZM180 86.96H186.156V88.1787H178.718V73.2148H180V86.96ZM195.786 74.4336H189.416V79.7988H195.572V81.0176H189.416V86.96H196V88.1787H188.134V73.2148H195.786V74.4336ZM68.5381 74.2188C67.384 74.2188 66.3224 74.5106 65.3535 75.0947C64.3988 75.6647 63.6437 76.4416 63.0879 77.4248C62.5321 78.4081 62.254 79.4983 62.2539 80.6953C62.2539 81.8923 62.5322 82.9825 63.0879 83.9658C63.6437 84.9491 64.3987 85.7331 65.3535 86.3174C66.3225 86.8873 67.3839 87.1728 68.5381 87.1729C69.6924 87.1729 70.7473 86.8874 71.7021 86.3174C72.6712 85.7331 73.4335 84.9491 73.9893 83.9658C74.5592 82.9825 74.8447 81.8923 74.8447 80.6953C74.8447 79.4983 74.5593 78.4081 73.9893 77.4248C73.4335 76.4416 72.6711 75.6647 71.7021 75.0947C70.7474 74.5105 69.6923 74.2188 68.5381 74.2188ZM116.726 82.6846H122.709L119.707 75.1436L116.726 82.6846Z" fill="#1A1A1A"/>
<path d="M52.7529 73V65H52.7526L52.7529 73ZM55.6602 73.5986L58.9529 66.3077L58.9526 66.3076L55.6602 73.5986ZM57.9902 75.2871L52.1076 80.7088C52.1254 80.7281 52.1433 80.7473 52.1612 80.7664L57.9902 75.2871ZM59.5938 77.8096V85.8096C62.2627 85.8096 64.7558 84.4786 66.2409 82.261C67.726 80.0434 68.0074 77.2313 66.9911 74.7634L59.5938 77.8096ZM58.2256 77.8096L51.0338 81.3135C52.3739 84.0642 55.1657 85.8096 58.2256 85.8096V77.8096ZM55.9814 75.1807L60.4423 68.5399L60.4419 68.5396L55.9814 75.1807ZM52.7529 74.2188V66.2188H52.7526L52.7529 74.2188ZM49.6533 75.0732L45.5524 68.2043C45.5372 68.2134 45.522 68.2225 45.5068 68.2317L49.6533 75.0732ZM47.4092 77.4033L40.4448 73.4666L40.4447 73.4669L47.4092 77.4033ZM46.5752 80.6953L38.5752 80.695V80.6953H46.5752ZM47.4092 83.9873L40.4446 87.9235L40.4447 87.9238L47.4092 83.9873ZM49.6533 86.3174L45.5065 93.1587C45.5218 93.168 45.5371 93.1772 45.5524 93.1864L49.6533 86.3174ZM52.7529 87.1729L52.7526 95.1729H52.7529V87.1729ZM56.0449 86.2109L60.4595 92.8826L60.4599 92.8824L56.0449 86.2109ZM58.29 83.5811V75.5811C55.2001 75.5811 52.3863 77.3606 51.062 80.1524L58.29 83.5811ZM59.6582 83.5811L67.0935 86.5333C68.0718 84.0694 67.7661 81.2809 66.277 79.0876C64.788 76.8943 62.3092 75.5811 59.6582 75.5811V83.5811ZM58.0547 86.125L52.2289 80.6423L52.2257 80.6457L58.0547 86.125ZM55.6816 87.793L52.4751 80.4637C52.461 80.4699 52.4469 80.4761 52.4328 80.4823L55.6816 87.793ZM52.7529 88.3916L52.7526 96.3916H52.7529V88.3916ZM48.9912 87.3652L44.8752 94.2252C44.8878 94.2327 44.9004 94.2402 44.9131 94.2477L48.9912 87.3652ZM46.2549 84.5645L39.2934 88.5063C39.3054 88.5274 39.3174 88.5484 39.3296 88.5695L46.2549 84.5645ZM45.25 80.6953L37.25 80.695V80.6953H45.25ZM46.2549 76.8262L39.3297 72.8209C39.3175 72.842 39.3055 72.863 39.2935 72.8842L46.2549 76.8262ZM48.9912 74.0264L44.9129 67.144C44.9003 67.1514 44.8878 67.1589 44.8752 67.1664L48.9912 74.0264ZM68.5381 73V65H68.5376L68.5381 73ZM72.3867 74.0264L76.4285 67.1225L76.4282 67.1223L72.3867 74.0264ZM75.1436 76.8262L82.1049 72.8842L82.1047 72.8838L75.1436 76.8262ZM76.1484 80.6953H84.1484V80.695L76.1484 80.6953ZM75.1436 84.5645L82.1049 88.5064L82.105 88.5064L75.1436 84.5645ZM72.3867 87.3652L76.4282 94.2694L76.4284 94.2692L72.3867 87.3652ZM68.5381 88.3916L68.5376 96.3916H68.5381V88.3916ZM64.6904 87.3652L60.6118 94.2475C60.6242 94.2548 60.6366 94.2621 60.649 94.2694L64.6904 87.3652ZM61.9336 84.5645L54.9722 88.5064C54.9841 88.5275 54.9962 88.5485 55.0083 88.5695L61.9336 84.5645ZM60.9287 80.6953L52.9287 80.695V80.6953H60.9287ZM61.9336 76.8262L55.0085 72.8208C54.9963 72.8419 54.9842 72.863 54.9722 72.8842L61.9336 76.8262ZM64.6904 74.0264L60.649 67.1223C60.6365 67.1296 60.6241 67.1369 60.6116 67.1443L64.6904 74.0264ZM85.1543 73L85.1545 65H85.1543V73ZM88.0615 73.5986L91.3544 66.3078L91.3542 66.3077L88.0615 73.5986ZM90.3916 75.2871L84.5088 80.7086C84.5266 80.7279 84.5445 80.7472 84.5626 80.7664L90.3916 75.2871ZM91.9941 77.8096V85.8096C94.6631 85.8096 97.1563 84.4786 98.6413 82.261C100.126 80.0433 100.408 77.2312 99.3915 74.7633L91.9941 77.8096ZM90.627 77.8096L83.435 81.3133C84.7752 84.0642 87.567 85.8096 90.627 85.8096V77.8096ZM88.3818 75.1807L92.8423 68.5396L92.8423 68.5396L88.3818 75.1807ZM85.1543 74.2188L85.1545 66.2188H85.1543V74.2188ZM82.0547 75.0732L77.9542 68.2041C77.9388 68.2132 77.9235 68.2224 77.9083 68.2317L82.0547 75.0732ZM79.8096 77.4033L72.8451 73.4668L72.8451 73.4669L79.8096 77.4033ZM78.9766 80.6953L70.9766 80.695V80.6953H78.9766ZM79.8096 83.9873L72.8448 87.9233L72.8451 87.9238L79.8096 83.9873ZM82.0547 86.3174L77.9083 93.159C77.9234 93.1682 77.9386 93.1773 77.9538 93.1864L82.0547 86.3174ZM85.1543 87.1729V95.1729H85.1545L85.1543 87.1729ZM88.4463 86.2109L92.8612 92.8824L92.8613 92.8823L88.4463 86.2109ZM90.6904 83.5811V75.5811C87.6004 75.5811 84.7867 77.3606 83.4624 80.1524L90.6904 83.5811ZM92.0586 83.5811L99.4939 86.5333C100.472 84.0694 100.166 81.2809 98.6774 79.0876C97.1884 76.8943 94.7096 75.5811 92.0586 75.5811V83.5811ZM90.4551 86.125L84.6295 80.6421L84.6261 80.6456L90.4551 86.125ZM88.083 87.793L84.8763 80.4638C84.8622 80.47 84.848 80.4762 84.8339 80.4825L88.083 87.793ZM85.1543 88.3916V96.3916H85.1545L85.1543 88.3916ZM81.3916 87.3652L77.2755 94.2251C77.2881 94.2326 77.3006 94.2401 77.3132 94.2476L81.3916 87.3652ZM78.6553 84.5645L71.6937 88.5061C71.7057 88.5272 71.7178 88.5484 71.73 88.5695L78.6553 84.5645ZM77.6514 80.6953L69.6514 80.695V80.6953H77.6514ZM78.6553 76.8262L71.73 72.8211C71.7179 72.8421 71.7058 72.8631 71.6939 72.8842L78.6553 76.8262ZM81.3916 74.0264L77.3132 67.144C77.3006 67.1515 77.2879 67.159 77.2754 67.1666L81.3916 74.0264ZM131.713 73L131.714 65H131.713V73ZM133.936 73.5557L130.063 80.556C130.122 80.5884 130.181 80.6201 130.24 80.651L133.936 73.5557ZM135.582 75.0518L142.307 70.7181L142.306 70.718L135.582 75.0518ZM136.223 77.168V85.168C138.37 85.168 140.428 84.3045 141.932 82.7719C143.436 81.2393 144.261 79.1662 144.221 77.019L136.223 77.168ZM134.94 77.168L126.943 77.3796C127.058 81.7139 130.605 85.168 134.94 85.168V77.168ZM134.491 75.6934L127.671 79.8743C127.703 79.9267 127.736 79.9787 127.769 80.0304L134.491 75.6934ZM133.337 74.625L137.154 67.5942L137.154 67.5942L133.337 74.625ZM131.648 74.2188L131.649 66.2188H131.648V74.2188ZM130.002 74.5391L126.773 67.2197C126.745 67.2318 126.718 67.244 126.691 67.2564L130.002 74.5391ZM128.891 75.4795L135.51 79.9715C135.535 79.9359 135.559 79.9 135.582 79.864L128.891 75.4795ZM128.484 76.8691L120.484 76.869V76.8691H128.484ZM128.955 78.3867L122.665 83.3293C122.694 83.3665 122.723 83.4034 122.753 83.4401L128.955 78.3867ZM130.131 79.2852L126.82 86.5681L126.821 86.5683L130.131 79.2852ZM132.055 80.0117L129.525 87.6012C129.57 87.6164 129.616 87.6311 129.662 87.6455L132.055 80.0117ZM134.363 80.9092L130.716 88.0295C130.785 88.0647 130.854 88.0989 130.924 88.132L134.363 80.9092ZM135.859 82.1924L129.306 86.7801C129.349 86.8425 129.394 86.9042 129.439 86.9654L135.859 82.1924ZM136.479 84.415H144.479V84.4149L136.479 84.415ZM135.859 86.4883L142.443 91.0338C142.459 91.0096 142.476 90.9853 142.492 90.961L135.859 86.4883ZM134.149 87.8994L137.493 95.1673C137.514 95.1576 137.535 95.1478 137.556 95.1379L134.149 87.8994ZM131.755 88.3916L131.755 96.3916H131.755V88.3916ZM129.147 87.8145L125.461 94.9144L125.462 94.9147L129.147 87.8145ZM127.416 86.2109L120.506 90.2419C120.527 90.2775 120.548 90.313 120.569 90.3483L127.416 86.2109ZM126.774 83.9023V75.9023C124.606 75.9023 122.531 76.7823 121.024 78.3406C119.517 79.899 118.707 82.0024 118.779 84.1692L126.774 83.9023ZM128.057 83.9023L136.048 83.5214C135.844 79.2561 132.327 75.9023 128.057 75.9023V83.9023ZM128.527 85.5479L121.581 89.5166L121.581 89.517L128.527 85.5479ZM129.768 86.7451L125.898 93.747C125.971 93.7872 126.044 93.8262 126.118 93.864L129.768 86.7451ZM131.755 87.1729L131.755 95.1729H131.755V87.1729ZM133.594 86.8096L137.01 94.0436L137.01 94.0435L133.594 86.8096ZM134.748 85.8262L127.989 81.5458C127.977 81.5661 127.964 81.5866 127.951 81.607L134.748 85.8262ZM135.154 84.415H143.154V84.4148L135.154 84.415ZM134.662 82.8115L140.93 77.8404L140.929 77.8395L134.662 82.8115ZM133.423 81.8496L130.016 89.0882C130.043 89.1007 130.07 89.1131 130.097 89.1253L133.423 81.8496ZM131.456 81.123L128.926 88.7125C128.979 88.7301 129.032 88.7471 129.085 88.7636L131.456 81.123ZM129.19 80.2471L125.687 87.439C125.711 87.4506 125.734 87.4621 125.758 87.4735L129.19 80.2471ZM127.758 79.0283L121.259 83.694C121.278 83.7208 121.298 83.7475 121.317 83.7741L127.758 79.0283ZM127.159 76.8691L119.159 76.8691V76.8691H127.159ZM127.758 74.8809L121.152 70.3687L121.151 70.3692L127.758 74.8809ZM129.383 73.5127L132.84 80.7272C132.86 80.7174 132.881 80.7076 132.901 80.6976L129.383 73.5127ZM150.5 73V65H150.5L150.5 73ZM153.407 73.5986L156.7 66.3077L156.7 66.3077L153.407 73.5986ZM155.737 75.2871L149.855 80.7087C149.872 80.728 149.89 80.7472 149.908 80.7664L155.737 75.2871ZM157.341 77.8096V85.8096C160.01 85.8096 162.503 84.4786 163.988 82.2611C165.473 80.0435 165.754 77.2314 164.738 74.7635L157.341 77.8096ZM155.973 77.8096L148.781 81.3134C150.121 84.0642 152.913 85.8096 155.973 85.8096V77.8096ZM153.728 75.1807L158.188 68.5396L158.188 68.5394L153.728 75.1807ZM150.5 74.2188V66.2188H150.5L150.5 74.2188ZM147.4 75.0732L143.3 68.2042C143.284 68.2133 143.269 68.2225 143.254 68.2317L147.4 75.0732ZM145.156 77.4033L138.192 73.4664L138.192 73.4669L145.156 77.4033ZM144.322 80.6953L136.322 80.695V80.6953H144.322ZM145.156 83.9873L138.192 87.9237L138.192 87.9238L145.156 83.9873ZM147.4 86.3174L143.254 93.1589C143.269 93.1681 143.284 93.1772 143.3 93.1864L147.4 86.3174ZM150.5 87.1729L150.5 95.1729H150.5V87.1729ZM153.792 86.2109L158.207 92.8825L158.207 92.8824L153.792 86.2109ZM156.036 83.5811V75.5811C152.946 75.5811 150.132 77.3606 148.808 80.1524L156.036 83.5811ZM157.404 83.5811L164.84 86.5333C165.818 84.0694 165.512 81.2809 164.023 79.0876C162.534 76.8943 160.055 75.5811 157.404 75.5811V83.5811ZM155.802 86.125L149.976 80.6424L149.973 80.6457L155.802 86.125ZM153.429 87.793L150.222 80.4637C150.208 80.4699 150.194 80.4762 150.18 80.4824L153.429 87.793ZM150.5 88.3916L150.5 96.3916H150.5V88.3916ZM146.737 87.3652L142.621 94.225C142.634 94.2326 142.646 94.2401 142.659 94.2476L146.737 87.3652ZM144.002 84.5645L137.041 88.5064C137.052 88.5275 137.065 88.5485 137.077 88.5695L144.002 84.5645ZM142.997 80.6953L134.997 80.695V80.6953H142.997ZM144.002 76.8262L137.077 72.8208C137.065 72.8419 137.053 72.863 137.041 72.8842L144.002 76.8262ZM146.737 74.0264L142.659 67.144C142.646 67.1516 142.634 67.1591 142.621 67.1667L146.737 74.0264ZM95.6162 88.1787V96.1787C100.034 96.1787 103.616 92.597 103.616 88.1787H95.6162ZM94.334 88.1787H86.334C86.334 92.597 89.9157 96.1787 94.334 96.1787V88.1787ZM94.334 73.2148V65.2148C89.9157 65.2148 86.334 68.7966 86.334 73.2148H94.334ZM95.6162 73.2148H103.616C103.616 68.7966 100.034 65.2148 95.6162 65.2148V73.2148ZM110.274 85.8223L104.111 90.9222C106.261 93.5212 109.811 94.492 112.985 93.3492C116.158 92.2064 118.274 89.1956 118.274 85.8223H110.274ZM110.274 73.2148V65.2148C105.856 65.2148 102.274 68.7966 102.274 73.2148H110.274ZM111.535 73.2148H119.535C119.535 68.7966 115.953 65.2148 111.535 65.2148V73.2148ZM111.535 88.1787V96.1787C115.953 96.1787 119.535 92.597 119.535 88.1787H111.535ZM110.702 88.1787L104.539 93.2787C106.058 95.1155 108.318 96.1787 110.702 96.1787V88.1787ZM100.27 75.5703L106.433 70.4703C104.283 67.8714 100.733 66.9006 97.5593 68.0434C94.3855 69.1862 92.2695 72.197 92.2695 75.5703H100.27ZM100.27 88.1787V96.1787C104.688 96.1787 108.27 92.597 108.27 88.1787H100.27ZM99.0088 88.1787H91.0088C91.0088 92.597 94.5905 96.1787 99.0088 96.1787V88.1787ZM99.0088 73.2148V65.2148C94.5905 65.2148 91.0088 68.7966 91.0088 73.2148H99.0088ZM99.8428 73.2148L106.006 68.1149C104.487 66.2781 102.227 65.2148 99.8428 65.2148V73.2148ZM126.27 88.1787V96.1787C128.931 96.1787 131.418 94.855 132.905 92.6474C134.392 90.4398 134.683 87.6373 133.683 85.171L126.27 88.1787ZM124.88 88.1787L117.436 91.1099C118.641 94.1682 121.593 96.1787 124.88 96.1787V88.1787ZM123.196 83.9033L130.64 80.9721C129.436 77.9138 126.483 75.9033 123.196 75.9033V83.9033ZM116.236 83.9033V75.9033C112.96 75.9033 110.015 77.9006 108.804 80.9442L116.236 83.9033ZM114.534 88.1787V96.1787C117.81 96.1787 120.755 94.1814 121.967 91.1378L114.534 88.1787ZM113.188 88.1787L105.771 85.1806C104.774 87.6465 105.068 90.4465 106.555 92.6517C108.042 94.8568 110.528 96.1787 113.188 96.1787V88.1787ZM119.236 73.2148V65.2148C115.976 65.2148 113.041 67.1937 111.819 70.2167L119.236 73.2148ZM120.198 73.2148L127.611 70.2071C126.387 67.1892 123.455 65.2148 120.198 65.2148V73.2148ZM160.855 79.7988H152.855C152.855 84.2171 156.437 87.7988 160.855 87.7988V79.7988ZM169.363 79.7988V87.7988C173.782 87.7988 177.363 84.2171 177.363 79.7988H169.363ZM169.363 73.2148V65.2148C164.945 65.2148 161.363 68.7966 161.363 73.2148H169.363ZM170.646 73.2148H178.646C178.646 68.7966 175.064 65.2148 170.646 65.2148V73.2148ZM170.646 88.1787V96.1787C175.064 96.1787 178.646 92.597 178.646 88.1787H170.646ZM169.363 88.1787H161.363C161.363 92.597 164.945 96.1787 169.363 96.1787V88.1787ZM169.363 81.0176H177.363C177.363 76.5993 173.782 73.0176 169.363 73.0176V81.0176ZM160.855 81.0176V73.0176C156.437 73.0176 152.855 76.5993 152.855 81.0176H160.855ZM160.855 88.1787V96.1787C165.274 96.1787 168.855 92.597 168.855 88.1787H160.855ZM159.573 88.1787H151.573C151.573 92.597 155.155 96.1787 159.573 96.1787V88.1787ZM159.573 73.2148V65.2148C155.155 65.2148 151.573 68.7966 151.573 73.2148H159.573ZM160.855 73.2148H168.855C168.855 68.7966 165.274 65.2148 160.855 65.2148V73.2148ZM175.325 88.1787V96.1787C179.743 96.1787 183.325 92.597 183.325 88.1787H175.325ZM174.043 88.1787H166.043C166.043 92.597 169.625 96.1787 174.043 96.1787V88.1787ZM174.043 73.2148V65.2148C169.625 65.2148 166.043 68.7966 166.043 73.2148H174.043ZM175.325 73.2148H183.325C183.325 68.7966 179.743 65.2148 175.325 65.2148V73.2148ZM180 86.96H172C172 91.3782 175.582 94.96 180 94.96V86.96ZM186.156 86.96H194.156C194.156 82.5417 190.575 78.96 186.156 78.96V86.96ZM186.156 88.1787V96.1787C190.575 96.1787 194.156 92.597 194.156 88.1787H186.156ZM178.718 88.1787H170.718C170.718 92.597 174.299 96.1787 178.718 96.1787V88.1787ZM178.718 73.2148V65.2148C174.299 65.2148 170.718 68.7966 170.718 73.2148H178.718ZM180 73.2148H188C188 68.7966 184.418 65.2148 180 65.2148V73.2148ZM195.786 74.4336V82.4336C200.204 82.4336 203.786 78.8519 203.786 74.4336H195.786ZM189.416 74.4336V66.4336C184.998 66.4336 181.416 70.0153 181.416 74.4336H189.416ZM189.416 79.7988H181.416C181.416 84.2171 184.998 87.7988 189.416 87.7988V79.7988ZM195.572 79.7988H203.572C203.572 75.3806 199.991 71.7988 195.572 71.7988V79.7988ZM195.572 81.0176V89.0176C199.991 89.0176 203.572 85.4359 203.572 81.0176H195.572ZM189.416 81.0176V73.0176C184.998 73.0176 181.416 76.5993 181.416 81.0176H189.416ZM189.416 86.96H181.416C181.416 91.3782 184.998 94.96 189.416 94.96V86.96ZM196 86.96H204C204 82.5417 200.418 78.96 196 78.96V86.96ZM196 88.1787V96.1787C200.418 96.1787 204 92.597 204 88.1787H196ZM188.134 88.1787H180.134C180.134 92.597 183.716 96.1787 188.134 96.1787V88.1787ZM188.134 73.2148V65.2148C183.716 65.2148 180.134 68.7966 180.134 73.2148H188.134ZM195.786 73.2148H203.786C203.786 68.7966 200.204 65.2148 195.786 65.2148V73.2148ZM68.5381 74.2188V66.2188H68.5375L68.5381 74.2188ZM65.3535 75.0947L69.4544 81.9637C69.4643 81.9578 69.4742 81.9518 69.4841 81.9459L65.3535 75.0947ZM63.0879 77.4248L56.1236 73.488L56.1234 73.4883L63.0879 77.4248ZM62.2539 80.6953L54.2539 80.695V80.6953H62.2539ZM63.0879 83.9658L56.1233 87.9021L56.1234 87.9023L63.0879 83.9658ZM65.3535 86.3174L61.1777 93.1411C61.2174 93.1653 61.2573 93.1893 61.2974 93.2129L65.3535 86.3174ZM68.5381 87.1729L68.5375 95.1729H68.5381V87.1729ZM71.7021 86.3174L75.803 93.1864C75.813 93.1804 75.823 93.1744 75.8329 93.1684L71.7021 86.3174ZM73.9893 83.9658L67.068 79.9538C67.0535 79.9789 67.039 80.0041 67.0248 80.0294L73.9893 83.9658ZM74.8447 80.6953H82.8447V80.695L74.8447 80.6953ZM73.9893 77.4248L67.0249 81.3616C67.0392 81.3868 67.0536 81.412 67.0681 81.437L73.9893 77.4248ZM71.7021 75.0947L67.5267 81.9186C67.5662 81.9428 67.606 81.9667 67.646 81.9902L71.7021 75.0947ZM116.726 82.6846L109.286 79.7432C108.312 82.2066 108.621 84.9923 110.11 87.1829C111.599 89.3734 114.077 90.6846 116.726 90.6846V82.6846ZM122.709 82.6846V90.6846C125.361 90.6846 127.841 89.3701 129.33 87.1751C130.819 84.9801 131.123 82.1899 130.142 79.7257L122.709 82.6846ZM119.707 75.1436L127.14 72.1847C125.927 69.1378 122.977 67.1397 119.698 67.1436C116.418 67.1474 113.473 69.1524 112.267 72.2022L119.707 75.1436ZM52.7529 73V81C52.7732 81 52.7367 81.0017 52.657 80.9853C52.5755 80.9685 52.4747 80.938 52.3677 80.8897L55.6602 73.5986L58.9526 66.3076C56.9469 65.4018 54.8427 65 52.7529 65V73ZM55.6602 73.5986L52.3675 80.8896C52.3213 80.8687 52.2662 80.8379 52.2113 80.7981C52.1568 80.7586 52.1221 80.7246 52.1076 80.7088L57.9902 75.2871L63.8729 69.8654C62.4881 68.3629 60.835 67.1577 58.9529 66.3077L55.6602 73.5986ZM57.9902 75.2871L52.1612 80.7664C52.1458 80.75 52.1395 80.7397 52.1423 80.7442C52.1457 80.7494 52.1663 80.7826 52.1964 80.8557L59.5938 77.8096L66.9911 74.7634C66.2479 72.9587 65.2012 71.278 63.8193 69.8078L57.9902 75.2871ZM59.5938 77.8096V69.8096H58.2256V77.8096V85.8096H59.5938V77.8096ZM58.2256 77.8096L65.4174 74.3056C64.306 72.0244 62.6554 70.0264 60.4423 68.5399L55.9814 75.1807L51.5205 81.8215C51.3922 81.7352 51.2718 81.6276 51.1739 81.5129C51.0782 81.4007 51.0377 81.3217 51.0338 81.3135L58.2256 77.8096ZM55.9814 75.1807L60.4419 68.5396C58.1115 66.9744 55.4691 66.2188 52.7529 66.2188V74.2188V82.2188C52.6292 82.2188 52.4245 82.2009 52.174 82.1262C51.9207 82.0508 51.6971 81.9401 51.521 81.8218L55.9814 75.1807ZM52.7529 74.2188L52.7526 66.2188C50.1998 66.2189 47.7491 66.8928 45.5524 68.2043L49.6533 75.0732L53.7542 81.9422C53.6365 82.0125 53.4714 82.0892 53.2697 82.1448C53.0681 82.2003 52.8881 82.2187 52.7533 82.2188L52.7529 74.2188ZM49.6533 75.0732L45.5068 68.2317C43.3595 69.5332 41.6555 71.3249 40.4448 73.4666L47.4092 77.4033L54.3735 81.3401C54.3361 81.4063 54.2642 81.5135 54.1494 81.6326C54.0338 81.7526 53.9105 81.8477 53.7998 81.9148L49.6533 75.0732ZM47.4092 77.4033L40.4447 73.4669C39.1617 75.7368 38.5753 78.2064 38.5752 80.695L46.5752 80.6953L54.5752 80.6956C54.5752 80.7067 54.5733 80.7923 54.5387 80.9287C54.5035 81.068 54.4465 81.211 54.3737 81.3398L47.4092 77.4033ZM46.5752 80.6953H38.5752C38.5752 83.1845 39.1619 85.6541 40.4446 87.9235L47.4092 83.9873L54.3738 80.0511C54.4464 80.1796 54.5034 80.3224 54.5387 80.4618C54.5733 80.5982 54.5752 80.684 54.5752 80.6953H46.5752ZM47.4092 83.9873L40.4447 87.9238C41.6556 90.0661 43.3599 91.8576 45.5065 93.1587L49.6533 86.3174L53.8001 79.476C53.9105 79.5429 54.0337 79.6379 54.1493 79.7579C54.264 79.877 54.3361 79.9843 54.3737 80.0508L47.4092 83.9873ZM49.6533 86.3174L45.5524 93.1864C47.745 94.4953 50.195 95.1727 52.7526 95.1729L52.7529 87.1729L52.7533 79.1729C52.8905 79.1729 53.0716 79.1917 53.2731 79.2473C53.4745 79.3029 53.6384 79.3793 53.7542 79.4484L49.6533 86.3174ZM52.7529 87.1729V95.1729C55.4583 95.1729 58.108 94.4386 60.4595 92.8826L56.0449 86.2109L51.6304 79.5392C51.8038 79.4245 52.0173 79.3218 52.2513 79.2535C52.4819 79.1861 52.6606 79.1729 52.7529 79.1729V87.1729ZM56.0449 86.2109L60.4599 92.8824C62.7166 91.389 64.4041 89.358 65.5181 87.0097L58.29 83.5811L51.062 80.1524C51.0801 80.1143 51.1362 80.0099 51.2488 79.8781C51.3633 79.744 51.4969 79.6276 51.63 79.5395L56.0449 86.2109ZM58.29 83.5811V91.5811H59.6582V83.5811V75.5811H58.29V83.5811ZM59.6582 83.5811L52.2229 80.6288C52.2136 80.6521 52.2068 80.6664 52.2033 80.6733C52.1998 80.6801 52.1989 80.6811 52.2011 80.6777C52.2032 80.6743 52.2071 80.6685 52.2127 80.6613C52.2183 80.6541 52.224 80.6475 52.2289 80.6423L58.0547 86.125L63.8805 91.6077C65.2856 90.1147 66.353 88.3983 67.0935 86.5333L59.6582 83.5811ZM58.0547 86.125L52.2257 80.6457C52.2584 80.6109 52.3039 80.5701 52.3583 80.5318C52.4124 80.4938 52.4553 80.4724 52.4751 80.4637L55.6816 87.793L58.8882 95.1222C60.7739 94.2972 62.4615 93.1173 63.8837 91.6043L58.0547 86.125ZM55.6816 87.793L52.4328 80.4823C52.5196 80.4438 52.6037 80.4183 52.6738 80.404C52.7423 80.39 52.7729 80.3916 52.7529 80.3916V88.3916V96.3916C54.844 96.3916 56.937 95.9895 58.9304 95.1036L55.6816 87.793ZM52.7529 88.3916L52.7532 80.3916C52.7529 80.3916 52.7687 80.3916 52.7978 80.3955C52.8272 80.3993 52.8633 80.4061 52.9035 80.4171C52.9908 80.4409 53.0499 80.4712 53.0694 80.4827L48.9912 87.3652L44.9131 94.2477C47.3118 95.6691 49.9758 96.3915 52.7526 96.3916L52.7529 88.3916ZM48.9912 87.3652L53.1072 80.5053C53.108 80.5058 53.1171 80.5114 53.1316 80.5228C53.1461 80.5342 53.1609 80.5475 53.1745 80.5614C53.188 80.5752 53.1958 80.5851 53.198 80.588C53.2001 80.5908 53.1935 80.5825 53.1802 80.5595L46.2549 84.5645L39.3296 88.5695C40.6727 90.892 42.5378 92.8227 44.8752 94.2252L48.9912 87.3652ZM46.2549 84.5645L53.2164 80.6226C53.2156 80.6213 53.2201 80.6292 53.2267 80.6454C53.2333 80.6617 53.2395 80.6802 53.2443 80.6988C53.2492 80.7173 53.2509 80.7294 53.2513 80.7325C53.2517 80.7353 53.25 80.7238 53.25 80.6953H45.25H37.25C37.25 83.4348 37.9242 86.0881 39.2934 88.5063L46.2549 84.5645ZM45.25 80.6953L53.25 80.6956C53.25 80.667 53.2517 80.6554 53.2513 80.6582C53.251 80.6612 53.2492 80.6732 53.2444 80.6917C53.2396 80.7103 53.2334 80.7288 53.2267 80.7451C53.2201 80.7614 53.2156 80.7694 53.2163 80.7682L46.2549 76.8262L39.2935 72.8842C37.924 75.3027 37.2501 77.9561 37.25 80.695L45.25 80.6953ZM46.2549 76.8262L53.1801 80.8314C53.1931 80.8088 53.1994 80.8009 53.1971 80.804C53.1947 80.8072 53.1867 80.8173 53.1731 80.8312C53.1595 80.8451 53.1447 80.8584 53.1304 80.8696C53.1235 80.875 53.1178 80.8792 53.1135 80.8821C53.1092 80.8851 53.107 80.8864 53.1072 80.8863L48.9912 74.0264L44.8752 67.1664C42.5402 68.5675 40.6742 70.4963 39.3297 72.8209L46.2549 76.8262ZM48.9912 74.0264L53.0695 80.9088C53.0501 80.9203 52.9908 80.9506 52.9034 80.9745C52.8632 80.9855 52.827 80.9923 52.7977 80.9961C52.7686 81 52.7528 81 52.7532 81L52.7529 73L52.7526 65C49.9759 65.0001 47.3119 65.7224 44.9129 67.144L48.9912 74.0264ZM68.5381 73V81C68.5762 81 68.5512 81.0038 68.4864 80.9865C68.4568 80.9786 68.4272 80.9685 68.3998 80.957C68.3725 80.9456 68.354 80.9356 68.3453 80.9305L72.3867 74.0264L76.4282 67.1223C73.9942 65.6975 71.3088 65 68.5381 65V73ZM72.3867 74.0264L68.3449 80.9303C68.3462 80.931 68.3353 80.9247 68.3162 80.9099C68.2969 80.8949 68.2745 80.8754 68.2516 80.8521C68.2012 80.8009 68.1797 80.7637 68.1824 80.7685L75.1436 76.8262L82.1047 72.8838C80.7431 70.4796 78.8195 68.5222 76.4285 67.1225L72.3867 74.0264ZM75.1436 76.8262L68.1822 80.7682C68.1829 80.7694 68.1783 80.7614 68.1717 80.7451C68.1651 80.7288 68.1589 80.7103 68.1541 80.6917C68.1493 80.6732 68.1475 80.6612 68.1471 80.6582C68.1468 80.6554 68.1484 80.667 68.1484 80.6956L76.1484 80.6953L84.1484 80.695C84.1483 77.9561 83.4745 75.3027 82.1049 72.8842L75.1436 76.8262ZM76.1484 80.6953H68.1484C68.1484 80.7239 68.1468 80.7354 68.1471 80.7326C68.1475 80.7295 68.1493 80.7174 68.1541 80.6988C68.1589 80.6802 68.1651 80.6617 68.1718 80.6454C68.1784 80.6292 68.1829 80.6212 68.1821 80.6225L75.1436 84.5645L82.105 88.5064C83.4743 86.088 84.1484 83.4348 84.1484 80.6953H76.1484ZM75.1436 84.5645L68.1822 80.6225C68.1788 80.6284 68.1999 80.5916 68.2502 80.5405C68.2731 80.5172 68.2956 80.4976 68.3151 80.4825C68.3345 80.4674 68.3458 80.4608 68.3451 80.4612L72.3867 87.3652L76.4284 94.2692C78.822 92.868 80.7446 90.9088 82.1049 88.5064L75.1436 84.5645ZM72.3867 87.3652L68.3453 80.4611C68.354 80.456 68.3725 80.446 68.3998 80.4346C68.4272 80.4231 68.4568 80.413 68.4864 80.4051C68.5512 80.3878 68.5762 80.3916 68.5381 80.3916V88.3916V96.3916C71.3088 96.3916 73.9942 95.6941 76.4282 94.2694L72.3867 87.3652ZM68.5381 88.3916L68.5385 80.3916C68.5005 80.3916 68.5258 80.3879 68.5909 80.4052C68.6206 80.4131 68.6503 80.4233 68.6777 80.4348C68.705 80.4462 68.7234 80.4562 68.7319 80.4611L64.6904 87.3652L60.649 94.2694C63.0822 95.6937 65.7667 96.3914 68.5376 96.3916L68.5381 88.3916ZM64.6904 87.3652L68.769 80.483C68.7678 80.4823 68.7762 80.4872 68.791 80.4988C68.8058 80.5104 68.8221 80.5247 68.8376 80.5405C68.8532 80.5563 68.8635 80.5689 68.8684 80.5755C68.8733 80.5818 68.8695 80.5778 68.8589 80.5595L61.9336 84.5645L55.0083 88.5695C56.364 90.9138 58.2525 92.8492 60.6118 94.2475L64.6904 87.3652ZM61.9336 84.5645L68.895 80.6225C68.8942 80.6212 68.8988 80.6291 68.9054 80.6454C68.912 80.6617 68.9182 80.6802 68.923 80.6988C68.9279 80.7174 68.9296 80.7295 68.93 80.7326C68.9304 80.7354 68.9287 80.7239 68.9287 80.6953H60.9287H52.9287C52.9287 83.4348 53.6028 86.088 54.9722 88.5064L61.9336 84.5645ZM60.9287 80.6953L68.9287 80.6956C68.9287 80.667 68.9304 80.6554 68.93 80.6582C68.9297 80.6612 68.9279 80.6732 68.9231 80.6917C68.9183 80.7103 68.9121 80.7288 68.9054 80.7451C68.8988 80.7614 68.8943 80.7694 68.895 80.7682L61.9336 76.8262L54.9722 72.8842C53.6027 75.3027 52.9288 77.9561 52.9287 80.695L60.9287 80.6953ZM61.9336 76.8262L68.8587 80.8315C68.869 80.8137 68.8725 80.8101 68.8674 80.8167C68.8623 80.8236 68.8518 80.8363 68.8363 80.8521C68.8207 80.868 68.8046 80.8822 68.79 80.8936C68.7755 80.9049 68.7674 80.9095 68.7692 80.9085L64.6904 74.0264L60.6116 67.1443C58.255 68.541 56.3655 70.4746 55.0085 72.8208L61.9336 76.8262ZM64.6904 74.0264L68.7319 80.9305C68.7234 80.9354 68.705 80.9454 68.6777 80.9568C68.6503 80.9683 68.6206 80.9785 68.5909 80.9864C68.5258 81.0037 68.5005 81 68.5385 81L68.5381 73L68.5376 65C65.7667 65.0002 63.0822 65.6979 60.649 67.1223L64.6904 74.0264ZM85.1543 73L85.1541 81C85.1746 81 85.1382 81.0017 85.0585 80.9853C84.9769 80.9685 84.876 80.938 84.7688 80.8896L88.0615 73.5986L91.3542 66.3077C89.3481 65.4017 87.2438 65.0001 85.1545 65L85.1543 73ZM88.0615 73.5986L84.7686 80.8895C84.7227 80.8688 84.6677 80.838 84.6128 80.7982C84.5582 80.7586 84.5234 80.7245 84.5088 80.7086L90.3916 75.2871L96.2744 69.8657C94.8893 68.3626 93.2361 67.1576 91.3544 66.3078L88.0615 73.5986ZM90.3916 75.2871L84.5626 80.7664C84.5457 80.7484 84.5387 80.737 84.5414 80.7413C84.5447 80.7466 84.5658 80.7806 84.5968 80.8558L91.9941 77.8096L99.3915 74.7633C98.6501 72.9631 97.6055 71.2812 96.2206 69.8078L90.3916 75.2871ZM91.9941 77.8096V69.8096H90.627V77.8096V85.8096H91.9941V77.8096ZM90.627 77.8096L97.8189 74.3058C96.7058 72.0211 95.0532 70.0245 92.8423 68.5396L88.3818 75.1807L83.9214 81.8218C83.7943 81.7364 83.6744 81.6294 83.5765 81.5147C83.4806 81.4025 83.4397 81.3229 83.435 81.3133L90.627 77.8096ZM88.3818 75.1807L92.8423 68.5396C90.5129 66.9751 87.8717 66.2188 85.1545 66.2188L85.1543 74.2188L85.154 82.2188C85.0301 82.2187 84.8251 82.2008 84.574 82.126C84.3202 82.0504 84.0967 81.9395 83.9214 81.8218L88.3818 75.1807ZM85.1543 74.2188V66.2188C82.6008 66.2188 80.1502 66.8931 77.9542 68.2041L82.0547 75.0732L86.1552 81.9424C86.0379 82.0125 85.8729 82.0892 85.6713 82.1447C85.4697 82.2003 85.2895 82.2188 85.1543 82.2188V74.2188ZM82.0547 75.0732L77.9083 68.2317C75.7639 69.5313 74.0577 71.3216 72.8451 73.4668L79.8096 77.4033L86.774 81.3398C86.7356 81.4078 86.6631 81.5155 86.5484 81.6345C86.433 81.7543 86.3104 81.8486 86.2011 81.9148L82.0547 75.0732ZM79.8096 77.4033L72.8451 73.4669C71.5599 75.7406 70.9767 78.2112 70.9766 80.695L78.9766 80.6953L86.9766 80.6956C86.9766 80.7045 86.9749 80.7891 86.9404 80.9255C86.9052 81.0649 86.8479 81.2091 86.7741 81.3398L79.8096 77.4033ZM78.9766 80.6953H70.9766C70.9766 83.1799 71.5603 85.6503 72.8448 87.9233L79.8096 83.9873L86.7743 80.0513C86.848 80.1816 86.9052 80.3256 86.9404 80.4649C86.9749 80.6013 86.9766 80.686 86.9766 80.6953H78.9766ZM79.8096 83.9873L72.8451 87.9238C74.0577 90.0691 75.7639 91.8594 77.9083 93.159L82.0547 86.3174L86.2011 79.4758C86.3103 79.542 86.4329 79.6363 86.5484 79.7561C86.6631 79.8752 86.7357 79.9829 86.7741 80.0508L79.8096 83.9873ZM82.0547 86.3174L77.9538 93.1864C80.1462 94.4952 82.5961 95.1729 85.1543 95.1729V87.1729V79.1729C85.2916 79.1729 85.4729 79.1917 85.6746 79.2473C85.8761 79.303 86.04 79.3794 86.1555 79.4484L82.0547 86.3174ZM85.1543 87.1729L85.1545 95.1729C87.8593 95.1728 90.5092 94.4389 92.8612 92.8824L88.4463 86.2109L84.0314 79.5395C84.205 79.4246 84.4188 79.3218 84.6528 79.2534C84.8835 79.186 85.0621 79.1729 85.1541 79.1729L85.1543 87.1729ZM88.4463 86.2109L92.8613 92.8823C95.1208 91.3871 96.8061 89.3548 97.9184 87.0097L90.6904 83.5811L83.4624 80.1524C83.4797 80.116 83.5353 80.0121 83.648 79.88C83.7627 79.7455 83.897 79.6284 84.0313 79.5395L88.4463 86.2109ZM90.6904 83.5811V91.5811H92.0586V83.5811V75.5811H90.6904V83.5811ZM92.0586 83.5811L84.6233 80.6288C84.614 80.6522 84.6071 80.6666 84.6036 80.6734C84.6002 80.6802 84.5993 80.6813 84.6014 80.6778C84.6036 80.6743 84.6076 80.6685 84.6132 80.6612C84.6189 80.6539 84.6245 80.6474 84.6295 80.6421L90.4551 86.125L96.2807 91.6079C97.6862 90.1146 98.7535 88.3982 99.4939 86.5333L92.0586 83.5811ZM90.4551 86.125L84.6261 80.6456C84.6577 80.6121 84.7026 80.5716 84.7573 80.5332C84.8117 80.4949 84.8554 80.4729 84.8763 80.4638L88.083 87.793L91.2897 95.1222C93.1781 94.2959 94.864 93.115 96.284 91.6044L90.4551 86.125ZM88.083 87.793L84.8339 80.4825C84.9209 80.4438 85.0052 80.4183 85.0753 80.404C85.1439 80.3899 85.1743 80.3916 85.1541 80.3916L85.1543 88.3916L85.1545 96.3916C87.2451 96.3916 89.3382 95.9897 91.3321 95.1035L88.083 87.793ZM85.1543 88.3916V80.3916C85.1538 80.3916 85.1694 80.3916 85.1983 80.3954C85.2275 80.3992 85.2635 80.406 85.3036 80.417C85.3906 80.4407 85.45 80.471 85.47 80.4829L81.3916 87.3652L77.3132 94.2476C79.7132 95.6698 82.3782 96.3916 85.1543 96.3916V88.3916ZM81.3916 87.3652L85.5077 80.5053C85.5085 80.5058 85.5176 80.5115 85.532 80.5228C85.5465 80.5342 85.5613 80.5475 85.5749 80.5614C85.5884 80.5752 85.5962 80.585 85.5984 80.588C85.6004 80.5907 85.5939 80.5825 85.5806 80.5595L78.6553 84.5645L71.73 88.5695C73.0731 90.892 74.9383 92.8227 77.2755 94.2251L81.3916 87.3652ZM78.6553 84.5645L85.6169 80.6228C85.6165 80.6222 85.6213 80.6308 85.6281 80.6474C85.6349 80.6642 85.6411 80.6829 85.646 80.7015C85.6507 80.72 85.6525 80.7319 85.6528 80.7345C85.6531 80.7368 85.6514 80.7246 85.6514 80.6953H77.6514H69.6514C69.6514 83.4309 70.3228 86.0848 71.6937 88.5061L78.6553 84.5645ZM77.6514 80.6953L85.6514 80.6956C85.6514 80.666 85.6531 80.6537 85.6528 80.656C85.6525 80.6585 85.6508 80.6704 85.646 80.689C85.6411 80.7076 85.6349 80.7264 85.628 80.7432C85.6212 80.76 85.6164 80.7686 85.6166 80.7682L78.6553 76.8262L71.6939 72.8842C70.3225 75.3061 69.6515 77.9601 69.6514 80.695L77.6514 80.6953ZM78.6553 76.8262L85.5806 80.8312C85.5936 80.8087 85.5998 80.8009 85.5975 80.804C85.595 80.8073 85.587 80.8174 85.5734 80.8313C85.5598 80.8452 85.545 80.8584 85.5308 80.8696C85.524 80.875 85.5183 80.8791 85.5141 80.882C85.5098 80.885 85.5076 80.8863 85.5078 80.8861L81.3916 74.0264L77.2754 67.1666C74.9409 68.5674 73.0746 70.496 71.73 72.8211L78.6553 76.8262ZM81.3916 74.0264L85.47 80.9087C85.45 80.9206 85.3906 80.9509 85.3036 80.9746C85.2635 80.9856 85.2275 80.9924 85.1983 80.9962C85.1694 81 85.1538 81 85.1543 81V73V65C82.3782 65 79.7132 65.7218 77.3132 67.144L81.3916 74.0264ZM131.713 73L131.712 81C131.256 81 130.652 80.8817 130.063 80.556L133.936 73.5557L137.808 66.5553C135.88 65.4888 133.794 65.0002 131.714 65L131.713 73ZM133.936 73.5557L130.24 80.651C129.709 80.3745 129.208 79.9286 128.858 79.3855L135.582 75.0518L142.306 70.718C141.13 68.8924 139.53 67.4494 137.631 66.4604L133.936 73.5557ZM135.582 75.0518L128.857 79.3854C128.674 79.101 128.511 78.7614 128.395 78.3784C128.279 77.9961 128.23 77.6333 128.224 77.317L136.223 77.168L144.221 77.019C144.18 74.783 143.536 72.6251 142.307 70.7181L135.582 75.0518ZM136.223 77.168V69.168H134.94V77.168V85.168H136.223V77.168ZM134.94 77.168L142.938 76.9563C142.886 74.9927 142.317 73.0665 141.214 71.3563L134.491 75.6934L127.769 80.0304C127.235 79.2035 126.967 78.2606 126.943 77.3796L134.94 77.168ZM134.491 75.6934L141.312 71.5124C140.237 69.7591 138.763 68.4677 137.154 67.5942L133.337 74.625L129.52 81.6558C128.908 81.3238 128.204 80.7442 127.671 79.8743L134.491 75.6934ZM133.337 74.625L137.154 67.5942C135.365 66.6232 133.467 66.2188 131.649 66.2188L131.648 74.2188L131.648 82.2188C131.084 82.2187 130.311 82.0853 129.52 81.6558L133.337 74.625ZM131.648 74.2188V66.2188C130.102 66.2188 128.426 66.4905 126.773 67.2197L130.002 74.5391L133.231 81.8584C132.547 82.1601 131.97 82.2188 131.648 82.2188V74.2188ZM130.002 74.5391L126.691 67.2564C124.908 68.067 123.338 69.3563 122.199 71.095L128.891 75.4795L135.582 79.864C134.984 80.7764 134.156 81.4386 133.313 81.8217L130.002 74.5391ZM128.891 75.4795L122.271 70.9875C121.017 72.8354 120.484 74.8961 120.484 76.869L128.484 76.8691L136.484 76.8692C136.484 77.7876 136.223 78.9217 135.51 79.9715L128.891 75.4795ZM128.484 76.8691H120.484C120.484 78.8956 121.03 81.2493 122.665 83.3293L128.955 78.3867L135.246 73.4442C136.253 74.7261 136.484 76.0683 136.484 76.8691H128.484ZM128.955 78.3867L122.753 83.4401C123.875 84.8166 125.27 85.8633 126.82 86.5681L130.131 79.2852L133.441 72.0022C134.051 72.2795 134.662 72.7264 135.157 73.3333L128.955 78.3867ZM130.131 79.2852L126.821 86.5683C127.657 86.9483 128.597 87.2918 129.525 87.6012L132.055 80.0117L134.585 72.4223C133.888 72.1902 133.545 72.0494 133.441 72.0021L130.131 79.2852ZM132.055 80.0117L129.662 87.6455C130.004 87.7526 130.262 87.8441 130.45 87.917C130.642 87.9916 130.721 88.0319 130.716 88.0295L134.363 80.9092L138.01 73.7888C136.871 73.2053 135.633 72.7494 134.447 72.3779L132.055 80.0117ZM134.363 80.9092L130.924 88.132C130.206 87.7905 129.655 87.28 129.306 86.7801L135.859 82.1924L142.413 77.6047C141.265 75.9647 139.717 74.5979 137.803 73.6863L134.363 80.9092ZM135.859 82.1924L129.439 86.9654C128.531 85.744 128.479 84.6368 128.479 84.4152L136.479 84.415L144.479 84.4149C144.479 82.341 144.014 79.7523 142.28 77.4194L135.859 82.1924ZM136.479 84.415H128.479C128.479 84.0743 128.527 83.6633 128.66 83.2173C128.794 82.7688 128.993 82.3623 129.226 82.0156L135.859 86.4883L142.492 90.961C143.833 88.9725 144.479 86.7116 144.479 84.415H136.479ZM135.859 86.4883L129.276 81.9428C129.746 81.2622 130.326 80.8569 130.743 80.6609L134.149 87.8994L137.556 95.1379C139.426 94.2578 141.146 92.9114 142.443 91.0338L135.859 86.4883ZM134.149 87.8994L130.806 80.6315C131.265 80.4204 131.628 80.3916 131.755 80.3916V88.3916V96.3916C133.649 96.3916 135.609 96.034 137.493 95.1673L134.149 87.8994ZM131.755 88.3916L131.755 80.3916C131.794 80.3916 132.235 80.4034 132.833 80.7142L129.147 87.8145L125.462 94.9147C127.542 95.9947 129.722 96.3915 131.755 96.3916L131.755 88.3916ZM129.147 87.8145L132.834 80.7145C133.061 80.8323 133.327 81.0078 133.595 81.2557C133.864 81.5052 134.089 81.7857 134.263 82.0736L127.416 86.2109L120.569 90.3483C121.777 92.3476 123.473 93.8824 125.461 94.9144L129.147 87.8145ZM127.416 86.2109L134.326 82.18C134.648 82.7307 134.758 83.2726 134.77 83.6355L126.774 83.9023L118.779 84.1692C118.848 86.242 119.387 88.3232 120.506 90.2419L127.416 86.2109ZM126.774 83.9023V91.9023H128.057V83.9023V75.9023H126.774V83.9023ZM128.057 83.9023L120.066 84.2833C120.152 86.0925 120.645 87.8779 121.581 89.5166L128.527 85.5479L135.474 81.5791C135.84 82.2205 136.018 82.909 136.048 83.5214L128.057 83.9023ZM128.527 85.5479L121.581 89.517C122.651 91.389 124.176 92.7955 125.898 93.747L129.768 86.7451L133.637 79.7432C134.276 80.0961 134.974 80.7043 135.473 81.5787L128.527 85.5479ZM129.768 86.7451L126.118 93.864C128.033 94.8457 130.002 95.1728 131.755 95.1729L131.755 87.1729L131.755 79.1729C131.969 79.1729 132.614 79.2143 133.417 79.6262L129.768 86.7451ZM131.755 87.1729V95.1729C133.353 95.1729 135.19 94.9029 137.01 94.0436L133.594 86.8096L130.178 79.5756C130.971 79.2008 131.582 79.1729 131.755 79.1729V87.1729ZM133.594 86.8096L137.01 94.0435C138.681 93.2543 140.348 91.9734 141.545 90.0453L134.748 85.8262L127.951 81.607C128.635 80.5054 129.532 79.8803 130.178 79.5756L133.594 86.8096ZM134.748 85.8262L141.507 90.1066C142.6 88.3802 143.154 86.4217 143.154 84.415H135.154H127.154C127.154 83.4344 127.438 82.4171 127.989 81.5458L134.748 85.8262ZM135.154 84.415L143.154 84.4148C143.154 82.3987 142.627 79.9805 140.93 77.8404L134.662 82.8115L128.394 87.7827C127.352 86.4691 127.154 85.1204 127.154 84.4152L135.154 84.415ZM134.662 82.8115L140.929 77.8395C139.788 76.4007 138.353 75.3072 136.749 74.5739L133.423 81.8496L130.097 89.1253C129.49 88.8479 128.881 88.3962 128.395 87.7836L134.662 82.8115ZM133.423 81.8496L136.829 74.6111C135.868 74.1587 134.818 73.7901 133.827 73.4825L131.456 81.123L129.085 88.7636C129.394 88.8595 129.628 88.9393 129.796 89.0015C129.97 89.0658 130.034 89.0963 130.016 89.0882L133.423 81.8496ZM131.456 81.123L133.986 73.5336C133.199 73.2713 132.782 73.0964 132.622 73.0207L129.19 80.2471L125.758 87.4735C126.739 87.9391 127.833 88.348 128.926 88.7125L131.456 81.123ZM129.19 80.2471L132.694 73.0552C133.401 73.3994 133.899 73.877 134.198 74.2826L127.758 79.0283L121.317 83.7741C122.414 85.2626 123.869 86.5533 125.687 87.439L129.19 80.2471ZM127.758 79.0283L134.256 74.3627C135.084 75.515 135.159 76.5656 135.159 76.8691H127.159H119.159C119.159 78.9398 119.634 81.4301 121.259 83.694L127.758 79.0283ZM127.159 76.8691L135.159 76.8692C135.159 77.225 135.11 77.6551 134.969 78.1226C134.827 78.5933 134.617 79.023 134.364 79.3926L127.758 74.8809L121.151 70.3692C119.8 72.348 119.159 74.5989 119.159 76.8691L127.159 76.8691ZM127.758 74.8809L134.364 79.393C133.911 80.0554 133.329 80.4926 132.84 80.7272L129.383 73.5127L125.926 66.2982C124.068 67.1883 122.402 68.538 121.152 70.3687L127.758 74.8809ZM129.383 73.5127L132.901 80.6976C132.397 80.9443 131.953 81 131.713 81V73V65C129.763 65 127.765 65.3973 125.865 66.3278L129.383 73.5127ZM150.5 73V81C150.521 81 150.484 81.0017 150.404 80.9853C150.322 80.9684 150.222 80.9379 150.115 80.8896L153.407 73.5986L156.7 66.3077C154.694 65.4017 152.59 65 150.5 65V73ZM153.407 73.5986L150.115 80.8896C150.068 80.8688 150.013 80.8379 149.958 80.7981C149.904 80.7585 149.869 80.7245 149.855 80.7087L155.737 75.2871L161.62 69.8655C160.235 68.3628 158.582 67.1576 156.7 66.3077L153.407 73.5986ZM155.737 75.2871L149.908 80.7664C149.893 80.7501 149.887 80.7398 149.889 80.7442C149.893 80.7494 149.913 80.7825 149.943 80.8556L157.341 77.8096L164.738 74.7635C163.995 72.9586 162.948 71.2779 161.566 69.8078L155.737 75.2871ZM157.341 77.8096V69.8096H155.973V77.8096V85.8096H157.341V77.8096ZM155.973 77.8096L163.165 74.3057C162.052 72.0212 160.399 70.0245 158.188 68.5396L153.728 75.1807L149.267 81.8218C149.14 81.7364 149.02 81.6294 148.922 81.5147C148.826 81.4026 148.785 81.3229 148.781 81.3134L155.973 77.8096ZM153.728 75.1807L158.188 68.5394C155.859 66.9753 153.218 66.2188 150.5 66.2188V74.2188V82.2188C150.376 82.2188 150.171 82.2008 149.92 82.126C149.666 82.0503 149.442 81.9395 149.267 81.8219L153.728 75.1807ZM150.5 74.2188L150.5 66.2188C147.947 66.2188 145.496 66.893 143.3 68.2042L147.4 75.0732L151.501 81.9423C151.384 82.0124 151.219 82.0891 151.017 82.1447C150.815 82.2003 150.635 82.2187 150.5 82.2188L150.5 74.2188ZM147.4 75.0732L143.254 68.2317C141.106 69.5332 139.403 71.3251 138.192 73.4664L145.156 77.4033L152.121 81.3402C152.083 81.4063 152.011 81.5134 151.897 81.6326C151.781 81.7526 151.658 81.8477 151.547 81.9148L147.4 75.0732ZM145.156 77.4033L138.192 73.4669C136.909 75.7368 136.322 78.2064 136.322 80.695L144.322 80.6953L152.322 80.6956C152.322 80.7067 152.32 80.7923 152.286 80.9287C152.251 81.068 152.194 81.211 152.121 81.3398L145.156 77.4033ZM144.322 80.6953H136.322C136.322 83.1845 136.909 85.654 138.192 87.9237L145.156 83.9873L152.121 80.0509C152.193 80.1795 152.25 80.3224 152.286 80.4618C152.32 80.5984 152.322 80.6841 152.322 80.6953H144.322ZM145.156 83.9873L138.192 87.9238C139.403 90.066 141.107 91.8575 143.254 93.1589L147.4 86.3174L151.547 79.4759C151.657 79.5428 151.781 79.6378 151.896 79.7579C152.011 79.8772 152.083 79.9845 152.121 80.0508L145.156 83.9873ZM147.4 86.3174L143.3 93.1864C145.492 94.4953 147.942 95.1728 150.5 95.1729L150.5 87.1729L150.5 79.1729C150.637 79.1729 150.819 79.1916 151.02 79.2473C151.222 79.303 151.386 79.3794 151.501 79.4484L147.4 86.3174ZM150.5 87.1729V95.1729C153.205 95.1729 155.855 94.4387 158.207 92.8825L153.792 86.2109L149.377 79.5394C149.551 79.4246 149.764 79.3219 149.998 79.2535C150.229 79.186 150.408 79.1729 150.5 79.1729V87.1729ZM153.792 86.2109L158.207 92.8824C160.467 91.3871 162.152 89.3547 163.264 87.0097L156.036 83.5811L148.808 80.1524C148.825 80.1161 148.881 80.0122 148.994 79.88C149.108 79.7455 149.243 79.6283 149.377 79.5395L153.792 86.2109ZM156.036 83.5811V91.5811H157.404V83.5811V75.5811H156.036V83.5811ZM157.404 83.5811L149.969 80.6288C149.959 80.6531 149.952 80.6681 149.948 80.6755C149.945 80.6827 149.944 80.6839 149.946 80.6805C149.948 80.677 149.952 80.6709 149.958 80.6632C149.964 80.6555 149.97 80.6484 149.976 80.6424L155.802 86.125L161.628 91.6076C163.036 90.1115 164.101 88.3941 164.84 86.5333L157.404 83.5811ZM155.802 86.125L149.973 80.6457C150.005 80.6109 150.051 80.5701 150.105 80.5318C150.159 80.4938 150.202 80.4724 150.222 80.4637L153.429 87.793L156.635 95.1222C158.521 94.2972 160.209 93.1173 161.631 91.6043L155.802 86.125ZM153.429 87.793L150.18 80.4824C150.266 80.4439 150.351 80.4184 150.421 80.404C150.49 80.39 150.52 80.3916 150.5 80.3916V88.3916V96.3916C152.591 96.3916 154.684 95.9896 156.678 95.1035L153.429 87.793ZM150.5 88.3916L150.5 80.3916C150.5 80.3916 150.515 80.3916 150.544 80.3954C150.573 80.3992 150.609 80.406 150.649 80.417C150.736 80.4407 150.796 80.471 150.816 80.4829L146.737 87.3652L142.659 94.2476C145.059 95.6698 147.724 96.3916 150.5 96.3916L150.5 88.3916ZM146.737 87.3652L150.854 80.5055C150.855 80.5062 150.864 80.5121 150.879 80.5237C150.894 80.5354 150.909 80.5489 150.923 80.5629C150.936 80.5768 150.944 80.5866 150.946 80.5892C150.948 80.5917 150.941 80.5831 150.927 80.5595L144.002 84.5645L137.077 88.5695C138.418 90.8895 140.282 92.8213 142.621 94.225L146.737 87.3652ZM144.002 84.5645L150.963 80.6225C150.963 80.6212 150.967 80.6291 150.974 80.6454C150.98 80.6617 150.987 80.6802 150.991 80.6988C150.996 80.7174 150.998 80.7295 150.998 80.7326C150.999 80.7354 150.997 80.7239 150.997 80.6953H142.997H134.997C134.997 83.4348 135.671 86.088 137.041 88.5064L144.002 84.5645ZM142.997 80.6953L150.997 80.6956C150.997 80.667 150.999 80.6554 150.998 80.6582C150.998 80.6612 150.996 80.6732 150.991 80.6917C150.987 80.7103 150.98 80.7288 150.974 80.7451C150.967 80.7614 150.963 80.7694 150.963 80.7682L144.002 76.8262L137.041 72.8842C135.671 75.3027 134.997 77.9561 134.997 80.695L142.997 80.6953ZM144.002 76.8262L150.927 80.8315C150.94 80.8084 150.947 80.8002 150.945 80.8029C150.943 80.8059 150.935 80.8159 150.921 80.8298C150.908 80.8437 150.893 80.8571 150.878 80.8686C150.871 80.8741 150.865 80.8783 150.861 80.8814C150.859 80.8829 150.857 80.8841 150.856 80.8849C150.854 80.8857 150.854 80.886 150.854 80.886L146.737 74.0264L142.621 67.1667C140.284 68.5689 138.42 70.4989 137.077 72.8208L144.002 76.8262ZM146.737 74.0264L150.816 80.9087C150.796 80.9206 150.736 80.9509 150.649 80.9746C150.609 80.9856 150.573 80.9924 150.544 80.9962C150.515 81 150.5 81 150.5 81L150.5 73L150.5 65C147.724 65 145.059 65.7218 142.659 67.144L146.737 74.0264ZM95.6162 88.1787V80.1787H94.334V88.1787V96.1787H95.6162V88.1787ZM94.334 88.1787H102.334V73.2148H94.334H86.334V88.1787H94.334ZM94.334 73.2148V81.2148H95.6162V73.2148V65.2148H94.334V73.2148ZM95.6162 73.2148H87.6162V88.1787H95.6162H103.616V73.2148H95.6162ZM110.274 85.8223H118.274V73.2148H110.274H102.274V85.8223H110.274ZM110.274 73.2148V81.2148H111.535V73.2148V65.2148H110.274V73.2148ZM111.535 73.2148H103.535V88.1787H111.535H119.535V73.2148H111.535ZM111.535 88.1787V80.1787H110.702V88.1787V96.1787H111.535V88.1787ZM110.702 88.1787L116.866 83.0787L106.433 70.4703L100.27 75.5703L94.1059 80.6703L104.539 93.2787L110.702 88.1787ZM100.27 75.5703H92.2695V88.1787H100.27H108.27V75.5703H100.27ZM100.27 88.1787V80.1787H99.0088V88.1787V96.1787H100.27V88.1787ZM99.0088 88.1787H107.009V73.2148H99.0088H91.0088V88.1787H99.0088ZM99.0088 73.2148V81.2148H99.8428V73.2148V65.2148H99.0088V73.2148ZM99.8428 73.2148L93.6791 78.3148L104.111 90.9222L110.274 85.8223L116.438 80.7223L106.006 68.1149L99.8428 73.2148ZM126.27 88.1787V80.1787H124.88V88.1787V96.1787H126.27V88.1787ZM124.88 88.1787L132.324 85.2475L130.64 80.9721L123.196 83.9033L115.753 86.8345L117.436 91.1099L124.88 88.1787ZM123.196 83.9033V75.9033H116.236V83.9033V91.9033H123.196V83.9033ZM116.236 83.9033L108.804 80.9442L107.102 85.2196L114.534 88.1787L121.967 91.1378L123.669 86.8624L116.236 83.9033ZM114.534 88.1787V80.1787H113.188V88.1787V96.1787H114.534V88.1787ZM113.188 88.1787L120.604 91.1769L126.653 76.213L119.236 73.2148L111.819 70.2167L105.771 85.1806L113.188 88.1787ZM119.236 73.2148V81.2148H120.198V73.2148V65.2148H119.236V73.2148ZM120.198 73.2148L112.785 76.2226L118.856 91.1864L126.27 88.1787L133.683 85.171L127.611 70.2071L120.198 73.2148ZM160.855 79.7988V87.7988H169.363V79.7988V71.7988H160.855V79.7988ZM169.363 79.7988H177.363V73.2148H169.363H161.363V79.7988H169.363ZM169.363 73.2148V81.2148H170.646V73.2148V65.2148H169.363V73.2148ZM170.646 73.2148H162.646V88.1787H170.646H178.646V73.2148H170.646ZM170.646 88.1787V80.1787H169.363V88.1787V96.1787H170.646V88.1787ZM169.363 88.1787H177.363V81.0176H169.363H161.363V88.1787H169.363ZM169.363 81.0176V73.0176H160.855V81.0176V89.0176H169.363V81.0176ZM160.855 81.0176H152.855V88.1787H160.855H168.855V81.0176H160.855ZM160.855 88.1787V80.1787H159.573V88.1787V96.1787H160.855V88.1787ZM159.573 88.1787H167.573V73.2148H159.573H151.573V88.1787H159.573ZM159.573 73.2148V81.2148H160.855V73.2148V65.2148H159.573V73.2148ZM160.855 73.2148H152.855V79.7988H160.855H168.855V73.2148H160.855ZM175.325 88.1787V80.1787H174.043V88.1787V96.1787H175.325V88.1787ZM174.043 88.1787H182.043V73.2148H174.043H166.043V88.1787H174.043ZM174.043 73.2148V81.2148H175.325V73.2148V65.2148H174.043V73.2148ZM175.325 73.2148H167.325V88.1787H175.325H183.325V73.2148H175.325ZM180 86.96V94.96H186.156V86.96V78.96H180V86.96ZM186.156 86.96H178.156V88.1787H186.156H194.156V86.96H186.156ZM186.156 88.1787V80.1787H178.718V88.1787V96.1787H186.156V88.1787ZM178.718 88.1787H186.718V73.2148H178.718H170.718V88.1787H178.718ZM178.718 73.2148V81.2148H180V73.2148V65.2148H178.718V73.2148ZM180 73.2148H172V86.96H180H188V73.2148H180ZM195.786 74.4336V66.4336H189.416V74.4336V82.4336H195.786V74.4336ZM189.416 74.4336H181.416V79.7988H189.416H197.416V74.4336H189.416ZM189.416 79.7988V87.7988H195.572V79.7988V71.7988H189.416V79.7988ZM195.572 79.7988H187.572V81.0176H195.572H203.572V79.7988H195.572ZM195.572 81.0176V73.0176H189.416V81.0176V89.0176H195.572V81.0176ZM189.416 81.0176H181.416V86.96H189.416H197.416V81.0176H189.416ZM189.416 86.96V94.96H196V86.96V78.96H189.416V86.96ZM196 86.96H188V88.1787H196H204V86.96H196ZM196 88.1787V80.1787H188.134V88.1787V96.1787H196V88.1787ZM188.134 88.1787H196.134V73.2148H188.134H180.134V88.1787H188.134ZM188.134 73.2148V81.2148H195.786V73.2148V65.2148H188.134V73.2148ZM195.786 73.2148H187.786V74.4336H195.786H203.786V73.2148H195.786ZM68.5381 74.2188L68.5375 66.2188C65.9606 66.2189 63.4661 66.8912 61.2229 68.2436L65.3535 75.0947L69.4841 81.9459C69.3585 82.0216 69.1919 82.0979 68.9976 82.1513C68.8045 82.2045 68.643 82.2187 68.5386 82.2188L68.5381 74.2188ZM65.3535 75.0947L61.2526 68.2258C59.0842 69.5204 57.351 71.3167 56.1236 73.488L63.0879 77.4248L70.0522 81.3616C70.0072 81.4413 69.9277 81.5574 69.807 81.6815C69.6858 81.8062 69.5605 81.9004 69.4544 81.9637L65.3535 75.0947ZM63.0879 77.4248L56.1234 73.4883C54.8486 75.7437 54.254 78.2029 54.2539 80.695L62.2539 80.6953L70.2539 80.6956C70.2539 80.7217 70.2502 80.8165 70.2144 80.9569C70.1779 81.0998 70.1209 81.24 70.0524 81.3613L63.0879 77.4248ZM62.2539 80.6953H54.2539C54.2539 83.1881 54.8488 85.6471 56.1233 87.9021L63.0879 83.9658L70.0525 80.0295C70.1209 80.1505 70.1779 80.2906 70.2143 80.4336C70.2502 80.5741 70.2539 80.669 70.2539 80.6953H62.2539ZM63.0879 83.9658L56.1234 87.9023C57.3412 90.0569 59.0509 91.8396 61.1777 93.1411L65.3535 86.3174L69.5293 79.4937C69.6162 79.5469 69.7248 79.6291 69.8325 79.7409C69.9399 79.8524 70.0115 79.957 70.0524 80.0294L63.0879 83.9658ZM65.3535 86.3174L61.2974 93.2129C63.5277 94.5249 65.9951 95.1727 68.5375 95.1729L68.5381 87.1729L68.5386 79.1729C68.6278 79.1729 68.7736 79.1849 68.9523 79.2329C69.1321 79.2812 69.289 79.3509 69.4097 79.4219L65.3535 86.3174ZM68.5381 87.1729V95.1729C71.0805 95.1729 73.5612 94.5247 75.803 93.1864L71.7021 86.3174L67.6013 79.4484C67.7409 79.365 67.9143 79.2883 68.1066 79.2363C68.297 79.1848 68.4493 79.1729 68.5381 79.1729V87.1729ZM71.7021 86.3174L75.8329 93.1684C77.9805 91.8736 79.7194 90.0862 80.9538 87.9023L73.9893 83.9658L67.0248 80.0294C67.0732 79.9436 67.1525 79.83 67.2656 79.7137C67.3787 79.5974 67.4891 79.516 67.5714 79.4664L71.7021 86.3174ZM73.9893 83.9658L80.9105 87.9779C82.2241 85.7118 82.8447 83.2257 82.8447 80.6953H74.8447H66.8447C66.8447 80.6523 66.8506 80.541 66.8913 80.3857C66.9325 80.2281 66.9956 80.0788 67.068 79.9538L73.9893 83.9658ZM74.8447 80.6953L82.8447 80.695C82.8446 78.1652 82.2243 75.6791 80.9104 73.4126L73.9893 77.4248L67.0681 81.437C66.9955 81.3117 66.9324 81.1623 66.8912 81.0048C66.8506 80.8496 66.8447 80.7384 66.8447 80.6956L74.8447 80.6953ZM73.9893 77.4248L80.9536 73.488C79.7094 71.287 77.9469 69.4867 75.7583 68.1993L71.7021 75.0947L67.646 81.9902C67.5448 81.9307 67.4178 81.8376 67.2912 81.7086C67.1648 81.5798 67.0776 81.4548 67.0249 81.3616L73.9893 77.4248ZM71.7021 75.0947L75.8776 68.2708C73.6233 66.8915 71.1152 66.2188 68.5381 66.2188V74.2188V82.2188C68.434 82.2188 68.266 82.2046 68.061 82.1478C67.8542 82.0906 67.6711 82.007 67.5267 81.9186L71.7021 75.0947ZM116.726 82.6846V90.6846H122.709V82.6846V74.6846H116.726V82.6846ZM122.709 82.6846L130.142 79.7257L127.14 72.1847L119.707 75.1436L112.274 78.1024L115.276 85.6434L122.709 82.6846ZM119.707 75.1436L112.267 72.2022L109.286 79.7432L116.726 82.6846L124.165 85.6259L127.147 78.0849L119.707 75.1436Z" fill="#E6E2DE" mask="url(#path-4-outside-1_1195_234)"/>
</g>
<defs>
<clipPath id="clip0_1195_234">
<rect width="242" height="240" fill="white"/>
</clipPath>
</defs>
</svg>
