<svg width="242" height="180" viewBox="0 0 242 180" fill="none" xmlns="http://www.w3.org/2000/svg">
<rect y="20" width="242" height="160" rx="12" fill="#E6E2DE"/>
<path d="M84.1325 90.728C84.1325 93.224 82.6445 95.16 80.3405 95.16C79.2365 95.16 78.3085 94.664 77.6525 93.768V95H75.6045V83.512H77.8285V87.56C78.4525 86.728 79.3165 86.296 80.3405 86.296C82.6445 86.296 84.1325 88.2 84.1325 90.728ZM81.8445 90.728C81.8445 89.096 80.9325 88.264 79.8445 88.264C78.7725 88.264 77.8445 89.08 77.8445 90.696C77.8445 92.312 78.7405 93.176 79.8445 93.176C80.9325 93.176 81.8445 92.328 81.8445 90.728ZM92.7968 86.456L88.6367 98.088H86.2207L87.4367 94.904L84.0767 86.456H86.4767L88.6207 92.312L90.5727 86.456H92.7968ZM102.076 95.24C98.8444 95.24 96.3164 92.616 96.3164 89.24C96.3164 85.88 98.8444 83.272 102.076 83.272C105.1 83.272 107.468 85.288 107.868 88.232H105.292C105.02 86.584 103.74 85.448 102.108 85.448C100.14 85.448 98.8124 87 98.8124 89.24C98.8124 91.496 100.14 93.064 102.108 93.064C103.74 93.064 105.004 91.912 105.292 90.264H107.868C107.468 93.24 105.1 95.24 102.076 95.24ZM111.438 90.856V95H109.214V86.456H111.263V88.104C111.887 87.016 113.214 86.36 114.591 86.36V88.664C112.702 88.52 111.438 88.968 111.438 90.856ZM120.674 95V93.944C120.114 94.744 119.266 95.16 118.098 95.16C116.322 95.16 115.138 94.12 115.138 92.52C115.138 90.856 116.482 89.96 118.978 89.96C119.458 89.96 119.874 89.992 120.402 90.056V89.544C120.402 88.584 119.858 88.024 118.93 88.024C117.97 88.024 117.394 88.584 117.314 89.544H115.314C115.442 87.576 116.866 86.296 118.93 86.296C121.17 86.296 122.482 87.528 122.482 89.624V95H120.674ZM117.234 92.456C117.234 93.176 117.746 93.624 118.578 93.624C119.714 93.624 120.402 93 120.402 92.008V91.4C119.874 91.32 119.506 91.288 119.122 91.288C117.858 91.288 117.234 91.688 117.234 92.456ZM130.949 95L129.333 89.448L127.733 95H125.509L123.077 86.456H125.237L126.693 91.864L128.261 86.456H130.453L131.973 91.864L133.413 86.456H135.605L133.157 95H130.949ZM139.774 95H137.566V88.36H135.838V86.456H137.566V85.992C137.566 84.296 138.478 83.336 140.254 83.336C140.798 83.336 141.262 83.432 141.63 83.592V85.352C141.39 85.256 141.07 85.208 140.782 85.208C140.174 85.208 139.774 85.448 139.774 86.04V86.456H141.998V88.36H139.774V95ZM146.522 95.16C144.042 95.16 142.186 93.208 142.186 90.728C142.186 88.232 144.042 86.296 146.522 86.296C149.002 86.296 150.858 88.232 150.858 90.728C150.858 93.208 149.002 95.16 146.522 95.16ZM146.522 93.192C147.626 93.192 148.57 92.312 148.57 90.728C148.57 89.144 147.626 88.28 146.522 88.28C145.418 88.28 144.474 89.144 144.474 90.728C144.474 92.312 145.418 93.192 146.522 93.192ZM154.342 90.856V95H152.118V86.456H154.166V88.104C154.79 87.016 156.118 86.36 157.494 86.36V88.664C155.606 88.52 154.342 88.968 154.342 90.856ZM157.866 90.728C157.866 88.2 159.354 86.296 161.658 86.296C162.682 86.296 163.546 86.744 164.186 87.56V83.512H166.394V95H164.362V93.768C163.69 94.664 162.762 95.16 161.658 95.16C159.354 95.16 157.866 93.224 157.866 90.728ZM160.154 90.728C160.154 92.328 161.066 93.176 162.154 93.176C163.258 93.176 164.17 92.312 164.17 90.696C164.17 89.08 163.242 88.264 162.154 88.264C161.066 88.264 160.154 89.096 160.154 90.728Z" fill="#1A1A1A"/>
<path d="M59.6822 115L57.5542 107.118L55.4122 115H53.8302L51.2122 104.948H52.7242L54.6562 112.69L56.7702 104.948H58.3662L60.4522 112.704L62.3842 104.948H63.8962L61.2782 115H59.6822ZM67.3033 115.14C65.1613 115.14 63.7193 113.586 63.7193 111.248C63.7193 109.05 65.2173 107.44 67.2613 107.44C69.4733 107.44 70.9433 109.232 70.6913 111.64H65.1613C65.2733 113.152 66.0293 114.034 67.2753 114.034C68.3253 114.034 69.0533 113.46 69.2913 112.494H70.6913C70.3273 114.146 69.0533 115.14 67.3033 115.14ZM67.2333 108.504C66.0993 108.504 65.3293 109.316 65.1753 110.702H69.1933C69.1233 109.33 68.3813 108.504 67.2333 108.504ZM78.9987 111.29C78.9987 113.516 77.7107 115.14 75.7087 115.14C74.6587 115.14 73.7627 114.608 73.2307 113.67V115H71.9147V104.948H73.3287V108.854C73.8467 107.944 74.7007 107.44 75.7087 107.44C77.6967 107.44 78.9987 109.036 78.9987 111.29ZM77.5287 111.29C77.5287 109.61 76.6467 108.686 75.4287 108.686C74.2527 108.686 73.3287 109.596 73.3287 111.262C73.3287 112.9 74.2247 113.88 75.4287 113.88C76.6467 113.88 77.5287 112.942 77.5287 111.29ZM86.0323 112.788C86.0323 114.244 84.8983 115.14 82.9243 115.14C80.9643 115.14 79.8023 114.174 79.6623 112.578H81.0203C81.0763 113.502 81.8183 114.076 82.9523 114.076C83.9463 114.076 84.6043 113.726 84.6043 113.026C84.6043 112.41 84.2263 112.144 83.3023 111.962L82.0983 111.738C80.7263 111.472 79.9563 110.772 79.9563 109.652C79.9563 108.35 81.0903 107.44 82.8123 107.44C84.5903 107.44 85.7943 108.392 85.9203 109.918H84.5623C84.4783 109.022 83.8203 108.504 82.8263 108.504C81.9303 108.504 81.3283 108.882 81.3283 109.526C81.3283 110.128 81.7063 110.408 82.6023 110.576L83.8623 110.814C85.3323 111.08 86.0323 111.724 86.0323 112.788ZM89.0181 105.858C89.0181 106.39 88.5981 106.796 87.9961 106.796C87.3941 106.796 86.9601 106.39 86.9601 105.858C86.9601 105.312 87.3941 104.92 87.9961 104.92C88.5981 104.92 89.0181 105.312 89.0181 105.858ZM88.7101 115H87.2961V107.58H88.7101V115ZM94.579 113.628V114.874C94.145 115.07 93.767 115.14 93.319 115.14C91.947 115.14 90.995 114.398 90.995 112.76V108.784H89.357V107.58H90.995V105.382H92.409V107.58H94.649V108.784H92.409V112.438C92.409 113.46 92.899 113.824 93.655 113.824C93.991 113.824 94.285 113.768 94.579 113.628ZM98.5654 115.14C96.4234 115.14 94.9814 113.586 94.9814 111.248C94.9814 109.05 96.4794 107.44 98.5234 107.44C100.735 107.44 102.205 109.232 101.953 111.64H96.4234C96.5354 113.152 97.2914 114.034 98.5374 114.034C99.5874 114.034 100.315 113.46 100.553 112.494H101.953C101.589 114.146 100.315 115.14 98.5654 115.14ZM98.4954 108.504C97.3614 108.504 96.5914 109.316 96.4374 110.702H100.455C100.385 109.33 99.6434 108.504 98.4954 108.504ZM109.113 115H105.935V104.948H109.113C112.319 104.948 114.167 106.992 114.167 109.932C114.167 112.83 112.249 115 109.113 115ZM107.475 106.278V113.67H109.043C111.353 113.67 112.599 112.242 112.599 109.932C112.599 107.664 111.367 106.278 109.043 106.278H107.475ZM118.438 115.14C116.296 115.14 114.854 113.586 114.854 111.248C114.854 109.05 116.352 107.44 118.396 107.44C120.608 107.44 122.078 109.232 121.826 111.64H116.296C116.408 113.152 117.164 114.034 118.41 114.034C119.46 114.034 120.188 113.46 120.426 112.494H121.826C121.462 114.146 120.188 115.14 118.438 115.14ZM118.368 108.504C117.234 108.504 116.464 109.316 116.31 110.702H120.328C120.258 109.33 119.516 108.504 118.368 108.504ZM128.93 112.788C128.93 114.244 127.796 115.14 125.822 115.14C123.862 115.14 122.7 114.174 122.56 112.578H123.918C123.974 113.502 124.716 114.076 125.85 114.076C126.844 114.076 127.502 113.726 127.502 113.026C127.502 112.41 127.124 112.144 126.2 111.962L124.996 111.738C123.624 111.472 122.854 110.772 122.854 109.652C122.854 108.35 123.988 107.44 125.71 107.44C127.488 107.44 128.692 108.392 128.818 109.918H127.46C127.376 109.022 126.718 108.504 125.724 108.504C124.828 108.504 124.226 108.882 124.226 109.526C124.226 110.128 124.604 110.408 125.5 110.576L126.76 110.814C128.23 111.08 128.93 111.724 128.93 112.788ZM131.916 105.858C131.916 106.39 131.496 106.796 130.894 106.796C130.292 106.796 129.858 106.39 129.858 105.858C129.858 105.312 130.292 104.92 130.894 104.92C131.496 104.92 131.916 105.312 131.916 105.858ZM131.608 115H130.194V107.58H131.608V115ZM136.258 117.856C134.312 117.856 133.052 116.82 132.968 115.14H134.34C134.424 116.176 135.096 116.736 136.244 116.736C137.518 116.736 138.19 116.05 138.19 114.776V113.432C137.77 114.328 136.93 114.846 135.922 114.846C134.074 114.846 132.758 113.32 132.758 111.136C132.758 108.924 134.018 107.44 135.88 107.44C136.944 107.44 137.784 107.958 138.288 108.896V107.58H139.604V114.748C139.604 116.694 138.358 117.856 136.258 117.856ZM134.186 111.136C134.186 112.676 134.942 113.614 136.174 113.614C137.378 113.614 138.19 112.648 138.19 111.178C138.19 109.638 137.392 108.658 136.174 108.658C134.956 108.658 134.186 109.61 134.186 111.136ZM142.696 110.814V115H141.282V107.58H142.598V108.812C143.102 107.986 143.942 107.44 144.964 107.44C146.49 107.44 147.498 108.42 147.498 110.198V115H146.084V110.674C146.084 109.4 145.524 108.686 144.474 108.686C143.508 108.686 142.696 109.498 142.696 110.814ZM151.014 114.398C151.014 115.728 149.964 116.764 148.424 116.792V115.994C149.334 115.966 149.95 115.476 150.034 114.79C149.908 114.832 149.824 114.846 149.726 114.846C149.194 114.846 148.802 114.412 148.802 113.894C148.802 113.292 149.25 112.9 149.824 112.9C150.594 112.9 151.014 113.46 151.014 114.398ZM162.322 112.116C162.322 113.95 160.978 115 158.892 115H155.21V104.948H158.696C160.726 104.948 161.944 105.886 161.944 107.58C161.944 108.532 161.37 109.344 160.404 109.764C161.65 110.114 162.322 110.968 162.322 112.116ZM158.598 106.18H156.624V109.204H158.598C159.816 109.204 160.474 108.63 160.474 107.692C160.474 106.754 159.816 106.18 158.598 106.18ZM158.794 110.436H156.624V113.768H158.794C160.11 113.768 160.852 113.138 160.852 112.074C160.852 111.052 160.11 110.436 158.794 110.436ZM165.119 111.206V115H163.705V107.58H165.021V109.148C165.539 108.126 166.659 107.482 167.877 107.482V108.952C166.281 108.868 165.119 109.568 165.119 111.206ZM173.21 115V113.852C172.748 114.678 171.922 115.14 170.83 115.14C169.29 115.14 168.282 114.258 168.282 112.9C168.282 111.444 169.444 110.688 171.656 110.688C172.09 110.688 172.44 110.702 173.042 110.772V110.226C173.042 109.162 172.468 108.56 171.488 108.56C170.452 108.56 169.822 109.176 169.78 110.212H168.492C168.562 108.546 169.752 107.44 171.488 107.44C173.322 107.44 174.386 108.476 174.386 110.24V115H173.21ZM169.626 112.858C169.626 113.628 170.2 114.132 171.11 114.132C172.3 114.132 173.042 113.39 173.042 112.256V111.654C172.496 111.584 172.104 111.57 171.74 111.57C170.326 111.57 169.626 111.99 169.626 112.858ZM177.41 110.814V115H175.996V107.58H177.312V108.812C177.816 107.986 178.656 107.44 179.678 107.44C181.204 107.44 182.212 108.42 182.212 110.198V115H180.798V110.674C180.798 109.4 180.238 108.686 179.188 108.686C178.222 108.686 177.41 109.498 177.41 110.814ZM183.278 111.29C183.278 109.036 184.566 107.44 186.568 107.44C187.562 107.44 188.43 107.944 188.948 108.854V104.948H190.362V115H189.046V113.67C188.514 114.608 187.618 115.14 186.568 115.14C184.566 115.14 183.278 113.516 183.278 111.29ZM184.748 111.29C184.748 112.942 185.616 113.88 186.848 113.88C188.052 113.88 188.948 112.9 188.948 111.262C188.948 109.596 188.024 108.686 186.848 108.686C185.616 108.686 184.748 109.61 184.748 111.29ZM76.6535 132H75.1135V121.948H76.6535V132ZM77.9083 128.29C77.9083 126.036 79.1963 124.44 81.1983 124.44C82.1923 124.44 83.0603 124.944 83.5783 125.854V121.948H84.9923V132H83.6763V130.67C83.1443 131.608 82.2483 132.14 81.1983 132.14C79.1963 132.14 77.9083 130.516 77.9083 128.29ZM79.3783 128.29C79.3783 129.942 80.2463 130.88 81.4783 130.88C82.6823 130.88 83.5783 129.9 83.5783 128.262C83.5783 126.596 82.6543 125.686 81.4783 125.686C80.2463 125.686 79.3783 126.61 79.3783 128.29ZM89.7298 132.14C87.5878 132.14 86.1458 130.586 86.1458 128.248C86.1458 126.05 87.6438 124.44 89.6878 124.44C91.8998 124.44 93.3698 126.232 93.1178 128.64H87.5878C87.6998 130.152 88.4558 131.034 89.7018 131.034C90.7518 131.034 91.4798 130.46 91.7178 129.494H93.1178C92.7538 131.146 91.4798 132.14 89.7298 132.14ZM89.6598 125.504C88.5258 125.504 87.7558 126.316 87.6018 127.702H91.6198C91.5498 126.33 90.8078 125.504 89.6598 125.504ZM95.7552 127.814V132H94.3412V124.58H95.6572V125.812C96.1612 124.986 97.0012 124.44 98.0232 124.44C99.5492 124.44 100.557 125.42 100.557 127.198V132H99.1432V127.674C99.1432 126.4 98.5832 125.686 97.5332 125.686C96.5672 125.686 95.7552 126.498 95.7552 127.814ZM106.314 130.628V131.874C105.88 132.07 105.502 132.14 105.054 132.14C103.682 132.14 102.73 131.398 102.73 129.76V125.784H101.092V124.58H102.73V122.382H104.144V124.58H106.384V125.784H104.144V129.438C104.144 130.46 104.634 130.824 105.39 130.824C105.726 130.824 106.02 130.768 106.314 130.628ZM109.175 122.858C109.175 123.39 108.755 123.796 108.153 123.796C107.551 123.796 107.117 123.39 107.117 122.858C107.117 122.312 107.551 121.92 108.153 121.92C108.755 121.92 109.175 122.312 109.175 122.858ZM108.867 132H107.453V124.58H108.867V132ZM114.736 130.628V131.874C114.302 132.07 113.924 132.14 113.476 132.14C112.104 132.14 111.152 131.398 111.152 129.76V125.784H109.514V124.58H111.152V122.382H112.566V124.58H114.806V125.784H112.566V129.438C112.566 130.46 113.056 130.824 113.812 130.824C114.148 130.824 114.442 130.768 114.736 130.628ZM122.036 124.58L118.326 134.702H116.786L117.85 131.902L114.924 124.58H116.45L118.606 130.236L120.608 124.58H122.036ZM128.695 132H125.517V121.948H128.695C131.901 121.948 133.749 123.992 133.749 126.932C133.749 129.83 131.831 132 128.695 132ZM127.057 123.278V130.67H128.625C130.935 130.67 132.181 129.242 132.181 126.932C132.181 124.664 130.949 123.278 128.625 123.278H127.057ZM138.021 132.14C135.879 132.14 134.437 130.586 134.437 128.248C134.437 126.05 135.935 124.44 137.979 124.44C140.191 124.44 141.661 126.232 141.409 128.64H135.879C135.991 130.152 136.747 131.034 137.993 131.034C139.043 131.034 139.771 130.46 140.009 129.494H141.409C141.045 131.146 139.771 132.14 138.021 132.14ZM137.951 125.504C136.817 125.504 136.047 126.316 135.893 127.702H139.911C139.841 126.33 139.099 125.504 137.951 125.504ZM148.512 129.788C148.512 131.244 147.378 132.14 145.404 132.14C143.444 132.14 142.282 131.174 142.142 129.578H143.5C143.556 130.502 144.298 131.076 145.432 131.076C146.426 131.076 147.084 130.726 147.084 130.026C147.084 129.41 146.706 129.144 145.782 128.962L144.578 128.738C143.206 128.472 142.436 127.772 142.436 126.652C142.436 125.35 143.57 124.44 145.292 124.44C147.07 124.44 148.274 125.392 148.4 126.918H147.042C146.958 126.022 146.3 125.504 145.306 125.504C144.41 125.504 143.808 125.882 143.808 126.526C143.808 127.128 144.186 127.408 145.082 127.576L146.342 127.814C147.812 128.08 148.512 128.724 148.512 129.788ZM151.498 122.858C151.498 123.39 151.078 123.796 150.476 123.796C149.874 123.796 149.44 123.39 149.44 122.858C149.44 122.312 149.874 121.92 150.476 121.92C151.078 121.92 151.498 122.312 151.498 122.858ZM151.19 132H149.776V124.58H151.19V132ZM155.841 134.856C153.895 134.856 152.635 133.82 152.551 132.14H153.923C154.007 133.176 154.679 133.736 155.827 133.736C157.101 133.736 157.773 133.05 157.773 131.776V130.432C157.353 131.328 156.513 131.846 155.505 131.846C153.657 131.846 152.341 130.32 152.341 128.136C152.341 125.924 153.601 124.44 155.463 124.44C156.527 124.44 157.367 124.958 157.871 125.896V124.58H159.187V131.748C159.187 133.694 157.941 134.856 155.841 134.856ZM153.769 128.136C153.769 129.676 154.525 130.614 155.757 130.614C156.961 130.614 157.773 129.648 157.773 128.178C157.773 126.638 156.975 125.658 155.757 125.658C154.539 125.658 153.769 126.61 153.769 128.136ZM162.279 127.814V132H160.865V124.58H162.181V125.812C162.685 124.986 163.525 124.44 164.547 124.44C166.073 124.44 167.081 125.42 167.081 127.198V132H165.667V127.674C165.667 126.4 165.107 125.686 164.057 125.686C163.091 125.686 162.279 126.498 162.279 127.814Z" fill="#1A1A1A"/>
<mask id="path-4-outside-1_1115_4" maskUnits="userSpaceOnUse" x="48" y="0" width="146" height="40" fill="black">
<rect fill="white" x="48" width="146" height="40"/>
<path d="M186 8.1591V26.7022H184.185L183.904 24.53C182.805 26.0929 181.323 26.8612 179.432 26.8612C178.205 26.8612 177.132 26.5963 176.186 26.04C175.241 25.5102 174.499 24.7155 173.963 23.6559C173.426 22.6227 173.171 21.3777 173.171 19.9472C173.171 18.5962 173.426 17.4042 173.963 16.3446C174.499 15.3114 175.241 14.4902 176.212 13.9075C177.157 13.3247 178.231 13.0333 179.432 13.0333C180.48 13.0333 181.374 13.2452 182.141 13.6426C182.882 14.0399 183.47 14.5697 183.904 15.2585V8.1591H186ZM181.86 24.3181C182.524 23.8943 183.035 23.3115 183.393 22.5698C183.751 21.828 183.93 20.9539 183.93 20.0002C183.93 19.0466 183.751 18.1724 183.393 17.4042C183.035 16.636 182.524 16.0267 181.86 15.6028C181.195 15.179 180.454 14.9671 179.636 14.9671C178.333 14.9671 177.285 15.4439 176.493 16.3711C175.701 17.2982 175.317 18.4903 175.317 19.9472C175.317 21.4307 175.701 22.6227 176.493 23.5499C177.285 24.477 178.333 24.9274 179.636 24.9274C180.454 24.9274 181.195 24.7419 181.86 24.3181Z"/>
<path d="M172.974 13.192V15.3112H171.926C170.674 15.3112 169.779 15.7615 169.243 16.6092C168.706 17.4834 168.451 18.543 168.451 19.8145V26.702H166.355V13.192H168.169L168.451 15.2317C168.808 14.6224 169.294 14.1191 169.907 13.7483C170.495 13.3774 171.313 13.192 172.386 13.192H172.974Z"/>
<path d="M154.624 25.9866C153.652 25.4038 152.886 24.6091 152.349 23.5495C151.787 22.5164 151.531 21.3243 151.531 19.9468C151.531 18.5958 151.787 17.4038 152.349 16.3441C152.886 15.311 153.652 14.4898 154.624 13.9071C155.595 13.3243 156.719 13.0329 157.997 13.0329C159.249 13.0329 160.374 13.3243 161.345 13.9071C162.316 14.4898 163.083 15.311 163.645 16.3441C164.182 17.4038 164.463 18.5958 164.463 19.9468C164.463 21.3243 164.182 22.5164 163.645 23.5495C163.083 24.6091 162.316 25.4038 161.345 25.9866C160.374 26.5694 159.249 26.8608 157.997 26.8608C156.719 26.8608 155.595 26.5694 154.624 25.9866ZM160.246 24.2912C160.911 23.8674 161.422 23.2846 161.779 22.5164C162.137 21.7746 162.316 20.9005 162.316 19.9468C162.316 18.9932 162.137 18.1455 161.779 17.3773C161.422 16.6355 160.911 16.0263 160.246 15.6024C159.582 15.1786 158.84 14.9667 157.997 14.9667C157.128 14.9667 156.387 15.1786 155.723 15.6024C155.058 16.0263 154.573 16.6355 154.215 17.3773C153.857 18.1455 153.678 18.9932 153.678 19.9468C153.678 20.9005 153.857 21.7746 154.215 22.5164C154.573 23.2846 155.058 23.8674 155.723 24.2912C156.387 24.715 157.128 24.927 157.997 24.927C158.84 24.927 159.582 24.715 160.246 24.2912Z"/>
<path d="M146.706 9.03327C147.243 8.45049 148.111 8.1591 149.313 8.1591H151.715V10.1459H149.44C148.929 10.1459 148.546 10.2783 148.341 10.4902C148.111 10.7286 148.009 11.0995 148.009 11.6293V13.1922H151.689V15.179H148.009V26.7022H145.914V11.6823C145.914 10.4902 146.169 9.61606 146.706 9.03327Z"/>
<path d="M125.207 13.192H127.405L130.65 24.1854L134.075 13.192H136.017L139.263 24.1854L142.662 13.192H144.783L140.439 26.702H138.138L134.995 16.6622L131.724 26.702L129.424 26.7285L125.207 13.192Z"/>
<path d="M125.708 24.715V26.7018H124.558C123.715 26.7018 123.127 26.5429 122.769 26.172C122.411 25.8276 122.207 25.2978 122.207 24.6091C121.184 26.119 119.728 26.8608 117.836 26.8608C116.38 26.8608 115.204 26.5164 114.335 25.8011C113.466 25.1124 113.032 24.1323 113.032 22.9137C113.032 21.5627 113.466 20.5296 114.361 19.7879C115.255 19.0726 116.559 18.7018 118.271 18.7018H122.104V17.7746C122.104 16.9004 121.798 16.2117 121.236 15.7084C120.673 15.2316 119.881 14.9667 118.859 14.9667C117.939 14.9667 117.198 15.1786 116.61 15.6024C116.022 16.0263 115.664 16.5561 115.536 17.2448H113.441C113.594 15.9203 114.156 14.8872 115.127 14.1455C116.099 13.4037 117.376 13.0329 118.961 13.0329C120.622 13.0329 121.9 13.4567 122.82 14.3044C123.74 15.1521 124.2 16.3441 124.2 17.9071V23.7349C124.2 24.3972 124.481 24.715 125.069 24.715H125.708ZM122.104 20.5296H118.066C116.124 20.5296 115.153 21.2978 115.153 22.7813C115.153 23.47 115.409 23.9998 115.92 24.3972C116.431 24.821 117.121 25.0064 117.99 25.0064C119.268 25.0064 120.264 24.6621 121.005 23.9733C121.721 23.2846 122.104 22.3574 122.104 21.1919V20.5296Z"/>
<path d="M112.736 13.192V15.3112H111.688C110.436 15.3112 109.542 15.7615 109.005 16.6092C108.468 17.4834 108.213 18.543 108.213 19.8145V26.702H106.117V13.192H107.931L108.213 15.2317C108.57 14.6224 109.056 14.1191 109.669 13.7483C110.257 13.3774 111.075 13.192 112.148 13.192H112.736Z"/>
<path d="M89.1737 12.5033C89.8637 11.0729 90.8604 9.98676 92.1638 9.19206C93.4417 8.39735 94.9495 8 96.6618 8C98.6297 8 100.291 8.55629 101.62 9.66888C102.949 10.7815 103.792 12.3179 104.15 14.2252H101.926C101.594 12.9537 100.955 11.947 100.01 11.2053C99.0641 10.4901 97.9141 10.1192 96.5596 10.1192C95.3329 10.1192 94.2339 10.4371 93.3139 11.0464C92.3683 11.6821 91.6527 12.5298 91.1416 13.6424C90.6304 14.755 90.4004 16 90.4004 17.4305C90.4004 18.861 90.6304 20.106 91.1416 21.2186C91.6527 22.3312 92.3683 23.2054 93.3139 23.8146C94.2339 24.4504 95.3329 24.7418 96.5596 24.7418C97.9397 24.7418 99.0897 24.3974 100.01 23.6822C100.93 22.967 101.543 21.9603 101.901 20.6358H104.124C103.767 22.5696 102.949 24.0795 101.62 25.1921C100.291 26.3047 98.6552 26.861 96.6618 26.861C94.9495 26.861 93.4417 26.4901 92.1638 25.6954C90.8604 24.9007 89.8637 23.8146 89.1737 22.3842C88.4581 20.9537 88.1259 19.3113 88.1259 17.4305C88.1259 15.5762 88.4581 13.9338 89.1737 12.5033Z"/>
<path d="M71.1337 13.192L75.1461 24.2119L79.0308 13.192H81.2542L75.2484 28.9801C74.9417 29.8013 74.6606 30.4106 74.4306 30.8079C74.175 31.2318 73.8939 31.5232 73.5361 31.7086C73.1783 31.9205 72.6927 32 72.1049 32H69.6003V30.0132H71.466C71.8749 30.0132 72.1816 29.9867 72.386 29.8808C72.5905 29.8013 72.7438 29.6689 72.8716 29.4569C72.9994 29.245 73.1527 28.9007 73.3572 28.4238L74.0217 26.8079L68.9103 13.192H71.1337Z"/>
<path d="M65.7882 13.8545C66.7338 14.4108 67.475 15.2055 68.0116 16.2386C68.5483 17.2982 68.8295 18.5168 68.8295 19.9472C68.8295 21.3247 68.5483 22.5168 68.0116 23.5499C67.475 24.6095 66.7338 25.4042 65.7882 25.987C64.8171 26.5698 63.7437 26.8612 62.5681 26.8612C61.4947 26.8612 60.6002 26.6757 59.8591 26.2784C59.0924 25.881 58.5046 25.3247 58.0956 24.636L57.8145 26.7022H56V8.1591H58.0956V15.3644C59.169 13.828 60.6769 13.0333 62.5681 13.0333C63.7692 13.0333 64.8426 13.3247 65.7882 13.8545ZM65.4815 23.5499C66.2738 22.6227 66.6827 21.4307 66.6827 19.9472C66.6827 18.4903 66.2738 17.2982 65.4815 16.3711C64.6893 15.4439 63.6415 14.9671 62.3636 14.9671C61.5202 14.9671 60.7791 15.179 60.1146 15.6028C59.4502 16.0267 58.9646 16.6095 58.6068 17.3512C58.249 18.0929 58.0701 18.9406 58.0701 19.8942C58.0701 20.8744 58.249 21.7486 58.6068 22.5168C58.9646 23.285 59.4502 23.8678 60.1146 24.2916C60.7791 24.7155 61.5202 24.9274 62.3636 24.9274C63.6415 24.9274 64.6893 24.477 65.4815 23.5499Z"/>
</mask>
<path d="M186 8.1591V26.7022H184.185L183.904 24.53C182.805 26.0929 181.323 26.8612 179.432 26.8612C178.205 26.8612 177.132 26.5963 176.186 26.04C175.241 25.5102 174.499 24.7155 173.963 23.6559C173.426 22.6227 173.171 21.3777 173.171 19.9472C173.171 18.5962 173.426 17.4042 173.963 16.3446C174.499 15.3114 175.241 14.4902 176.212 13.9075C177.157 13.3247 178.231 13.0333 179.432 13.0333C180.48 13.0333 181.374 13.2452 182.141 13.6426C182.882 14.0399 183.47 14.5697 183.904 15.2585V8.1591H186ZM181.86 24.3181C182.524 23.8943 183.035 23.3115 183.393 22.5698C183.751 21.828 183.93 20.9539 183.93 20.0002C183.93 19.0466 183.751 18.1724 183.393 17.4042C183.035 16.636 182.524 16.0267 181.86 15.6028C181.195 15.179 180.454 14.9671 179.636 14.9671C178.333 14.9671 177.285 15.4439 176.493 16.3711C175.701 17.2982 175.317 18.4903 175.317 19.9472C175.317 21.4307 175.701 22.6227 176.493 23.5499C177.285 24.477 178.333 24.9274 179.636 24.9274C180.454 24.9274 181.195 24.7419 181.86 24.3181Z" fill="#1A1A1A"/>
<path d="M172.974 13.192V15.3112H171.926C170.674 15.3112 169.779 15.7615 169.243 16.6092C168.706 17.4834 168.451 18.543 168.451 19.8145V26.702H166.355V13.192H168.169L168.451 15.2317C168.808 14.6224 169.294 14.1191 169.907 13.7483C170.495 13.3774 171.313 13.192 172.386 13.192H172.974Z" fill="#1A1A1A"/>
<path d="M154.624 25.9866C153.652 25.4038 152.886 24.6091 152.349 23.5495C151.787 22.5164 151.531 21.3243 151.531 19.9468C151.531 18.5958 151.787 17.4038 152.349 16.3441C152.886 15.311 153.652 14.4898 154.624 13.9071C155.595 13.3243 156.719 13.0329 157.997 13.0329C159.249 13.0329 160.374 13.3243 161.345 13.9071C162.316 14.4898 163.083 15.311 163.645 16.3441C164.182 17.4038 164.463 18.5958 164.463 19.9468C164.463 21.3243 164.182 22.5164 163.645 23.5495C163.083 24.6091 162.316 25.4038 161.345 25.9866C160.374 26.5694 159.249 26.8608 157.997 26.8608C156.719 26.8608 155.595 26.5694 154.624 25.9866ZM160.246 24.2912C160.911 23.8674 161.422 23.2846 161.779 22.5164C162.137 21.7746 162.316 20.9005 162.316 19.9468C162.316 18.9932 162.137 18.1455 161.779 17.3773C161.422 16.6355 160.911 16.0263 160.246 15.6024C159.582 15.1786 158.84 14.9667 157.997 14.9667C157.128 14.9667 156.387 15.1786 155.723 15.6024C155.058 16.0263 154.573 16.6355 154.215 17.3773C153.857 18.1455 153.678 18.9932 153.678 19.9468C153.678 20.9005 153.857 21.7746 154.215 22.5164C154.573 23.2846 155.058 23.8674 155.723 24.2912C156.387 24.715 157.128 24.927 157.997 24.927C158.84 24.927 159.582 24.715 160.246 24.2912Z" fill="#1A1A1A"/>
<path d="M146.706 9.03327C147.243 8.45049 148.111 8.1591 149.313 8.1591H151.715V10.1459H149.44C148.929 10.1459 148.546 10.2783 148.341 10.4902C148.111 10.7286 148.009 11.0995 148.009 11.6293V13.1922H151.689V15.179H148.009V26.7022H145.914V11.6823C145.914 10.4902 146.169 9.61606 146.706 9.03327Z" fill="#1A1A1A"/>
<path d="M125.207 13.192H127.405L130.65 24.1854L134.075 13.192H136.017L139.263 24.1854L142.662 13.192H144.783L140.439 26.702H138.138L134.995 16.6622L131.724 26.702L129.424 26.7285L125.207 13.192Z" fill="#1A1A1A"/>
<path d="M125.708 24.715V26.7018H124.558C123.715 26.7018 123.127 26.5429 122.769 26.172C122.411 25.8276 122.207 25.2978 122.207 24.6091C121.184 26.119 119.728 26.8608 117.836 26.8608C116.38 26.8608 115.204 26.5164 114.335 25.8011C113.466 25.1124 113.032 24.1323 113.032 22.9137C113.032 21.5627 113.466 20.5296 114.361 19.7879C115.255 19.0726 116.559 18.7018 118.271 18.7018H122.104V17.7746C122.104 16.9004 121.798 16.2117 121.236 15.7084C120.673 15.2316 119.881 14.9667 118.859 14.9667C117.939 14.9667 117.198 15.1786 116.61 15.6024C116.022 16.0263 115.664 16.5561 115.536 17.2448H113.441C113.594 15.9203 114.156 14.8872 115.127 14.1455C116.099 13.4037 117.376 13.0329 118.961 13.0329C120.622 13.0329 121.9 13.4567 122.82 14.3044C123.74 15.1521 124.2 16.3441 124.2 17.9071V23.7349C124.2 24.3972 124.481 24.715 125.069 24.715H125.708ZM122.104 20.5296H118.066C116.124 20.5296 115.153 21.2978 115.153 22.7813C115.153 23.47 115.409 23.9998 115.92 24.3972C116.431 24.821 117.121 25.0064 117.99 25.0064C119.268 25.0064 120.264 24.6621 121.005 23.9733C121.721 23.2846 122.104 22.3574 122.104 21.1919V20.5296Z" fill="#1A1A1A"/>
<path d="M112.736 13.192V15.3112H111.688C110.436 15.3112 109.542 15.7615 109.005 16.6092C108.468 17.4834 108.213 18.543 108.213 19.8145V26.702H106.117V13.192H107.931L108.213 15.2317C108.57 14.6224 109.056 14.1191 109.669 13.7483C110.257 13.3774 111.075 13.192 112.148 13.192H112.736Z" fill="#1A1A1A"/>
<path d="M89.1737 12.5033C89.8637 11.0729 90.8604 9.98676 92.1638 9.19206C93.4417 8.39735 94.9495 8 96.6618 8C98.6297 8 100.291 8.55629 101.62 9.66888C102.949 10.7815 103.792 12.3179 104.15 14.2252H101.926C101.594 12.9537 100.955 11.947 100.01 11.2053C99.0641 10.4901 97.9141 10.1192 96.5596 10.1192C95.3329 10.1192 94.2339 10.4371 93.3139 11.0464C92.3683 11.6821 91.6527 12.5298 91.1416 13.6424C90.6304 14.755 90.4004 16 90.4004 17.4305C90.4004 18.861 90.6304 20.106 91.1416 21.2186C91.6527 22.3312 92.3683 23.2054 93.3139 23.8146C94.2339 24.4504 95.3329 24.7418 96.5596 24.7418C97.9397 24.7418 99.0897 24.3974 100.01 23.6822C100.93 22.967 101.543 21.9603 101.901 20.6358H104.124C103.767 22.5696 102.949 24.0795 101.62 25.1921C100.291 26.3047 98.6552 26.861 96.6618 26.861C94.9495 26.861 93.4417 26.4901 92.1638 25.6954C90.8604 24.9007 89.8637 23.8146 89.1737 22.3842C88.4581 20.9537 88.1259 19.3113 88.1259 17.4305C88.1259 15.5762 88.4581 13.9338 89.1737 12.5033Z" fill="#1A1A1A"/>
<path d="M71.1337 13.192L75.1461 24.2119L79.0308 13.192H81.2542L75.2484 28.9801C74.9417 29.8013 74.6606 30.4106 74.4306 30.8079C74.175 31.2318 73.8939 31.5232 73.5361 31.7086C73.1783 31.9205 72.6927 32 72.1049 32H69.6003V30.0132H71.466C71.8749 30.0132 72.1816 29.9867 72.386 29.8808C72.5905 29.8013 72.7438 29.6689 72.8716 29.4569C72.9994 29.245 73.1527 28.9007 73.3572 28.4238L74.0217 26.8079L68.9103 13.192H71.1337Z" fill="#1A1A1A"/>
<path d="M65.7882 13.8545C66.7338 14.4108 67.475 15.2055 68.0116 16.2386C68.5483 17.2982 68.8295 18.5168 68.8295 19.9472C68.8295 21.3247 68.5483 22.5168 68.0116 23.5499C67.475 24.6095 66.7338 25.4042 65.7882 25.987C64.8171 26.5698 63.7437 26.8612 62.5681 26.8612C61.4947 26.8612 60.6002 26.6757 59.8591 26.2784C59.0924 25.881 58.5046 25.3247 58.0956 24.636L57.8145 26.7022H56V8.1591H58.0956V15.3644C59.169 13.828 60.6769 13.0333 62.5681 13.0333C63.7692 13.0333 64.8426 13.3247 65.7882 13.8545ZM65.4815 23.5499C66.2738 22.6227 66.6827 21.4307 66.6827 19.9472C66.6827 18.4903 66.2738 17.2982 65.4815 16.3711C64.6893 15.4439 63.6415 14.9671 62.3636 14.9671C61.5202 14.9671 60.7791 15.179 60.1146 15.6028C59.4502 16.0267 58.9646 16.6095 58.6068 17.3512C58.249 18.0929 58.0701 18.9406 58.0701 19.8942C58.0701 20.8744 58.249 21.7486 58.6068 22.5168C58.9646 23.285 59.4502 23.8678 60.1146 24.2916C60.7791 24.7155 61.5202 24.9274 62.3636 24.9274C63.6415 24.9274 64.6893 24.477 65.4815 23.5499Z" fill="#1A1A1A"/>
<path d="M186 8.1591V26.7022H184.185L183.904 24.53C182.805 26.0929 181.323 26.8612 179.432 26.8612C178.205 26.8612 177.132 26.5963 176.186 26.04C175.241 25.5102 174.499 24.7155 173.963 23.6559C173.426 22.6227 173.171 21.3777 173.171 19.9472C173.171 18.5962 173.426 17.4042 173.963 16.3446C174.499 15.3114 175.241 14.4902 176.212 13.9075C177.157 13.3247 178.231 13.0333 179.432 13.0333C180.48 13.0333 181.374 13.2452 182.141 13.6426C182.882 14.0399 183.47 14.5697 183.904 15.2585V8.1591H186ZM181.86 24.3181C182.524 23.8943 183.035 23.3115 183.393 22.5698C183.751 21.828 183.93 20.9539 183.93 20.0002C183.93 19.0466 183.751 18.1724 183.393 17.4042C183.035 16.636 182.524 16.0267 181.86 15.6028C181.195 15.179 180.454 14.9671 179.636 14.9671C178.333 14.9671 177.285 15.4439 176.493 16.3711C175.701 17.2982 175.317 18.4903 175.317 19.9472C175.317 21.4307 175.701 22.6227 176.493 23.5499C177.285 24.477 178.333 24.9274 179.636 24.9274C180.454 24.9274 181.195 24.7419 181.86 24.3181Z" stroke="#E6E2DE" stroke-width="16" stroke-linejoin="round" mask="url(#path-4-outside-1_1115_4)"/>
<path d="M172.974 13.192V15.3112H171.926C170.674 15.3112 169.779 15.7615 169.243 16.6092C168.706 17.4834 168.451 18.543 168.451 19.8145V26.702H166.355V13.192H168.169L168.451 15.2317C168.808 14.6224 169.294 14.1191 169.907 13.7483C170.495 13.3774 171.313 13.192 172.386 13.192H172.974Z" stroke="#E6E2DE" stroke-width="16" stroke-linejoin="round" mask="url(#path-4-outside-1_1115_4)"/>
<path d="M154.624 25.9866C153.652 25.4038 152.886 24.6091 152.349 23.5495C151.787 22.5164 151.531 21.3243 151.531 19.9468C151.531 18.5958 151.787 17.4038 152.349 16.3441C152.886 15.311 153.652 14.4898 154.624 13.9071C155.595 13.3243 156.719 13.0329 157.997 13.0329C159.249 13.0329 160.374 13.3243 161.345 13.9071C162.316 14.4898 163.083 15.311 163.645 16.3441C164.182 17.4038 164.463 18.5958 164.463 19.9468C164.463 21.3243 164.182 22.5164 163.645 23.5495C163.083 24.6091 162.316 25.4038 161.345 25.9866C160.374 26.5694 159.249 26.8608 157.997 26.8608C156.719 26.8608 155.595 26.5694 154.624 25.9866ZM160.246 24.2912C160.911 23.8674 161.422 23.2846 161.779 22.5164C162.137 21.7746 162.316 20.9005 162.316 19.9468C162.316 18.9932 162.137 18.1455 161.779 17.3773C161.422 16.6355 160.911 16.0263 160.246 15.6024C159.582 15.1786 158.84 14.9667 157.997 14.9667C157.128 14.9667 156.387 15.1786 155.723 15.6024C155.058 16.0263 154.573 16.6355 154.215 17.3773C153.857 18.1455 153.678 18.9932 153.678 19.9468C153.678 20.9005 153.857 21.7746 154.215 22.5164C154.573 23.2846 155.058 23.8674 155.723 24.2912C156.387 24.715 157.128 24.927 157.997 24.927C158.84 24.927 159.582 24.715 160.246 24.2912Z" stroke="#E6E2DE" stroke-width="16" stroke-linejoin="round" mask="url(#path-4-outside-1_1115_4)"/>
<path d="M146.706 9.03327C147.243 8.45049 148.111 8.1591 149.313 8.1591H151.715V10.1459H149.44C148.929 10.1459 148.546 10.2783 148.341 10.4902C148.111 10.7286 148.009 11.0995 148.009 11.6293V13.1922H151.689V15.179H148.009V26.7022H145.914V11.6823C145.914 10.4902 146.169 9.61606 146.706 9.03327Z" stroke="#E6E2DE" stroke-width="16" stroke-linejoin="round" mask="url(#path-4-outside-1_1115_4)"/>
<path d="M125.207 13.192H127.405L130.65 24.1854L134.075 13.192H136.017L139.263 24.1854L142.662 13.192H144.783L140.439 26.702H138.138L134.995 16.6622L131.724 26.702L129.424 26.7285L125.207 13.192Z" stroke="#E6E2DE" stroke-width="16" stroke-linejoin="round" mask="url(#path-4-outside-1_1115_4)"/>
<path d="M125.708 24.715V26.7018H124.558C123.715 26.7018 123.127 26.5429 122.769 26.172C122.411 25.8276 122.207 25.2978 122.207 24.6091C121.184 26.119 119.728 26.8608 117.836 26.8608C116.38 26.8608 115.204 26.5164 114.335 25.8011C113.466 25.1124 113.032 24.1323 113.032 22.9137C113.032 21.5627 113.466 20.5296 114.361 19.7879C115.255 19.0726 116.559 18.7018 118.271 18.7018H122.104V17.7746C122.104 16.9004 121.798 16.2117 121.236 15.7084C120.673 15.2316 119.881 14.9667 118.859 14.9667C117.939 14.9667 117.198 15.1786 116.61 15.6024C116.022 16.0263 115.664 16.5561 115.536 17.2448H113.441C113.594 15.9203 114.156 14.8872 115.127 14.1455C116.099 13.4037 117.376 13.0329 118.961 13.0329C120.622 13.0329 121.9 13.4567 122.82 14.3044C123.74 15.1521 124.2 16.3441 124.2 17.9071V23.7349C124.2 24.3972 124.481 24.715 125.069 24.715H125.708ZM122.104 20.5296H118.066C116.124 20.5296 115.153 21.2978 115.153 22.7813C115.153 23.47 115.409 23.9998 115.92 24.3972C116.431 24.821 117.121 25.0064 117.99 25.0064C119.268 25.0064 120.264 24.6621 121.005 23.9733C121.721 23.2846 122.104 22.3574 122.104 21.1919V20.5296Z" stroke="#E6E2DE" stroke-width="16" stroke-linejoin="round" mask="url(#path-4-outside-1_1115_4)"/>
<path d="M112.736 13.192V15.3112H111.688C110.436 15.3112 109.542 15.7615 109.005 16.6092C108.468 17.4834 108.213 18.543 108.213 19.8145V26.702H106.117V13.192H107.931L108.213 15.2317C108.57 14.6224 109.056 14.1191 109.669 13.7483C110.257 13.3774 111.075 13.192 112.148 13.192H112.736Z" stroke="#E6E2DE" stroke-width="16" stroke-linejoin="round" mask="url(#path-4-outside-1_1115_4)"/>
<path d="M89.1737 12.5033C89.8637 11.0729 90.8604 9.98676 92.1638 9.19206C93.4417 8.39735 94.9495 8 96.6618 8C98.6297 8 100.291 8.55629 101.62 9.66888C102.949 10.7815 103.792 12.3179 104.15 14.2252H101.926C101.594 12.9537 100.955 11.947 100.01 11.2053C99.0641 10.4901 97.9141 10.1192 96.5596 10.1192C95.3329 10.1192 94.2339 10.4371 93.3139 11.0464C92.3683 11.6821 91.6527 12.5298 91.1416 13.6424C90.6304 14.755 90.4004 16 90.4004 17.4305C90.4004 18.861 90.6304 20.106 91.1416 21.2186C91.6527 22.3312 92.3683 23.2054 93.3139 23.8146C94.2339 24.4504 95.3329 24.7418 96.5596 24.7418C97.9397 24.7418 99.0897 24.3974 100.01 23.6822C100.93 22.967 101.543 21.9603 101.901 20.6358H104.124C103.767 22.5696 102.949 24.0795 101.62 25.1921C100.291 26.3047 98.6552 26.861 96.6618 26.861C94.9495 26.861 93.4417 26.4901 92.1638 25.6954C90.8604 24.9007 89.8637 23.8146 89.1737 22.3842C88.4581 20.9537 88.1259 19.3113 88.1259 17.4305C88.1259 15.5762 88.4581 13.9338 89.1737 12.5033Z" stroke="#E6E2DE" stroke-width="16" stroke-linejoin="round" mask="url(#path-4-outside-1_1115_4)"/>
<path d="M71.1337 13.192L75.1461 24.2119L79.0308 13.192H81.2542L75.2484 28.9801C74.9417 29.8013 74.6606 30.4106 74.4306 30.8079C74.175 31.2318 73.8939 31.5232 73.5361 31.7086C73.1783 31.9205 72.6927 32 72.1049 32H69.6003V30.0132H71.466C71.8749 30.0132 72.1816 29.9867 72.386 29.8808C72.5905 29.8013 72.7438 29.6689 72.8716 29.4569C72.9994 29.245 73.1527 28.9007 73.3572 28.4238L74.0217 26.8079L68.9103 13.192H71.1337Z" stroke="#E6E2DE" stroke-width="16" stroke-linejoin="round" mask="url(#path-4-outside-1_1115_4)"/>
<path d="M65.7882 13.8545C66.7338 14.4108 67.475 15.2055 68.0116 16.2386C68.5483 17.2982 68.8295 18.5168 68.8295 19.9472C68.8295 21.3247 68.5483 22.5168 68.0116 23.5499C67.475 24.6095 66.7338 25.4042 65.7882 25.987C64.8171 26.5698 63.7437 26.8612 62.5681 26.8612C61.4947 26.8612 60.6002 26.6757 59.8591 26.2784C59.0924 25.881 58.5046 25.3247 58.0956 24.636L57.8145 26.7022H56V8.1591H58.0956V15.3644C59.169 13.828 60.6769 13.0333 62.5681 13.0333C63.7692 13.0333 64.8426 13.3247 65.7882 13.8545ZM65.4815 23.5499C66.2738 22.6227 66.6827 21.4307 66.6827 19.9472C66.6827 18.4903 66.2738 17.2982 65.4815 16.3711C64.6893 15.4439 63.6415 14.9671 62.3636 14.9671C61.5202 14.9671 60.7791 15.179 60.1146 15.6028C59.4502 16.0267 58.9646 16.6095 58.6068 17.3512C58.249 18.0929 58.0701 18.9406 58.0701 19.8942C58.0701 20.8744 58.249 21.7486 58.6068 22.5168C58.9646 23.285 59.4502 23.8678 60.1146 24.2916C60.7791 24.7155 61.5202 24.9274 62.3636 24.9274C63.6415 24.9274 64.6893 24.477 65.4815 23.5499Z" stroke="#E6E2DE" stroke-width="16" stroke-linejoin="round" mask="url(#path-4-outside-1_1115_4)"/>
</svg>
