<svg width="242" height="240" viewBox="0 0 242 240" fill="none" xmlns="http://www.w3.org/2000/svg">
<rect y="80" width="242" height="160" rx="12" fill="#E6E2DE"/>
<path d="M84.1325 150.728C84.1325 153.224 82.6445 155.16 80.3405 155.16C79.2365 155.16 78.3085 154.664 77.6525 153.768V155H75.6045V143.512H77.8285V147.56C78.4525 146.728 79.3165 146.296 80.3405 146.296C82.6445 146.296 84.1325 148.2 84.1325 150.728ZM81.8445 150.728C81.8445 149.096 80.9325 148.264 79.8445 148.264C78.7725 148.264 77.8445 149.08 77.8445 150.696C77.8445 152.312 78.7405 153.176 79.8445 153.176C80.9325 153.176 81.8445 152.328 81.8445 150.728ZM92.7968 146.456L88.6367 158.088H86.2207L87.4367 154.904L84.0767 146.456H86.4767L88.6207 152.312L90.5727 146.456H92.7968ZM102.076 155.24C98.8444 155.24 96.3164 152.616 96.3164 149.24C96.3164 145.88 98.8444 143.272 102.076 143.272C105.1 143.272 107.468 145.288 107.868 148.232H105.292C105.02 146.584 103.74 145.448 102.108 145.448C100.14 145.448 98.8124 147 98.8124 149.24C98.8124 151.496 100.14 153.064 102.108 153.064C103.74 153.064 105.004 151.912 105.292 150.264H107.868C107.468 153.24 105.1 155.24 102.076 155.24ZM111.438 150.856V155H109.214V146.456H111.263V148.104C111.887 147.016 113.214 146.36 114.591 146.36V148.664C112.702 148.52 111.438 148.968 111.438 150.856ZM120.674 155V153.944C120.114 154.744 119.266 155.16 118.098 155.16C116.322 155.16 115.138 154.12 115.138 152.52C115.138 150.856 116.482 149.96 118.978 149.96C119.458 149.96 119.874 149.992 120.402 150.056V149.544C120.402 148.584 119.858 148.024 118.93 148.024C117.97 148.024 117.394 148.584 117.314 149.544H115.314C115.442 147.576 116.866 146.296 118.93 146.296C121.17 146.296 122.482 147.528 122.482 149.624V155H120.674ZM117.234 152.456C117.234 153.176 117.746 153.624 118.578 153.624C119.714 153.624 120.402 153 120.402 152.008V151.4C119.874 151.32 119.506 151.288 119.122 151.288C117.858 151.288 117.234 151.688 117.234 152.456ZM130.949 155L129.333 149.448L127.733 155H125.509L123.077 146.456H125.237L126.693 151.864L128.261 146.456H130.453L131.973 151.864L133.413 146.456H135.605L133.157 155H130.949ZM139.774 155H137.566V148.36H135.838V146.456H137.566V145.992C137.566 144.296 138.478 143.336 140.254 143.336C140.798 143.336 141.262 143.432 141.63 143.592V145.352C141.39 145.256 141.07 145.208 140.782 145.208C140.174 145.208 139.774 145.448 139.774 146.04V146.456H141.998V148.36H139.774V155ZM146.522 155.16C144.042 155.16 142.186 153.208 142.186 150.728C142.186 148.232 144.042 146.296 146.522 146.296C149.002 146.296 150.858 148.232 150.858 150.728C150.858 153.208 149.002 155.16 146.522 155.16ZM146.522 153.192C147.626 153.192 148.57 152.312 148.57 150.728C148.57 149.144 147.626 148.28 146.522 148.28C145.418 148.28 144.474 149.144 144.474 150.728C144.474 152.312 145.418 153.192 146.522 153.192ZM154.342 150.856V155H152.118V146.456H154.166V148.104C154.79 147.016 156.118 146.36 157.494 146.36V148.664C155.606 148.52 154.342 148.968 154.342 150.856ZM157.866 150.728C157.866 148.2 159.354 146.296 161.658 146.296C162.682 146.296 163.546 146.744 164.186 147.56V143.512H166.394V155H164.362V153.768C163.69 154.664 162.762 155.16 161.658 155.16C159.354 155.16 157.866 153.224 157.866 150.728ZM160.154 150.728C160.154 152.328 161.066 153.176 162.154 153.176C163.258 153.176 164.17 152.312 164.17 150.696C164.17 149.08 163.242 148.264 162.154 148.264C161.066 148.264 160.154 149.096 160.154 150.728Z" fill="#1A1A1A"/>
<path d="M59.6822 175L57.5542 167.118L55.4122 175H53.8302L51.2122 164.948H52.7242L54.6562 172.69L56.7702 164.948H58.3662L60.4522 172.704L62.3842 164.948H63.8962L61.2782 175H59.6822ZM67.3033 175.14C65.1613 175.14 63.7193 173.586 63.7193 171.248C63.7193 169.05 65.2173 167.44 67.2613 167.44C69.4733 167.44 70.9433 169.232 70.6913 171.64H65.1613C65.2733 173.152 66.0293 174.034 67.2753 174.034C68.3253 174.034 69.0533 173.46 69.2913 172.494H70.6913C70.3273 174.146 69.0533 175.14 67.3033 175.14ZM67.2333 168.504C66.0993 168.504 65.3293 169.316 65.1753 170.702H69.1933C69.1233 169.33 68.3813 168.504 67.2333 168.504ZM78.9987 171.29C78.9987 173.516 77.7107 175.14 75.7087 175.14C74.6587 175.14 73.7627 174.608 73.2307 173.67V175H71.9147V164.948H73.3287V168.854C73.8467 167.944 74.7007 167.44 75.7087 167.44C77.6967 167.44 78.9987 169.036 78.9987 171.29ZM77.5287 171.29C77.5287 169.61 76.6467 168.686 75.4287 168.686C74.2527 168.686 73.3287 169.596 73.3287 171.262C73.3287 172.9 74.2247 173.88 75.4287 173.88C76.6467 173.88 77.5287 172.942 77.5287 171.29ZM86.0323 172.788C86.0323 174.244 84.8983 175.14 82.9243 175.14C80.9643 175.14 79.8023 174.174 79.6623 172.578H81.0203C81.0763 173.502 81.8183 174.076 82.9523 174.076C83.9463 174.076 84.6043 173.726 84.6043 173.026C84.6043 172.41 84.2263 172.144 83.3023 171.962L82.0983 171.738C80.7263 171.472 79.9563 170.772 79.9563 169.652C79.9563 168.35 81.0903 167.44 82.8123 167.44C84.5903 167.44 85.7943 168.392 85.9203 169.918H84.5623C84.4783 169.022 83.8203 168.504 82.8263 168.504C81.9303 168.504 81.3283 168.882 81.3283 169.526C81.3283 170.128 81.7063 170.408 82.6023 170.576L83.8623 170.814C85.3323 171.08 86.0323 171.724 86.0323 172.788ZM89.0181 165.858C89.0181 166.39 88.5981 166.796 87.9961 166.796C87.3941 166.796 86.9601 166.39 86.9601 165.858C86.9601 165.312 87.3941 164.92 87.9961 164.92C88.5981 164.92 89.0181 165.312 89.0181 165.858ZM88.7101 175H87.2961V167.58H88.7101V175ZM94.579 173.628V174.874C94.145 175.07 93.767 175.14 93.319 175.14C91.947 175.14 90.995 174.398 90.995 172.76V168.784H89.357V167.58H90.995V165.382H92.409V167.58H94.649V168.784H92.409V172.438C92.409 173.46 92.899 173.824 93.655 173.824C93.991 173.824 94.285 173.768 94.579 173.628ZM98.5654 175.14C96.4234 175.14 94.9814 173.586 94.9814 171.248C94.9814 169.05 96.4794 167.44 98.5234 167.44C100.735 167.44 102.205 169.232 101.953 171.64H96.4234C96.5354 173.152 97.2914 174.034 98.5374 174.034C99.5874 174.034 100.315 173.46 100.553 172.494H101.953C101.589 174.146 100.315 175.14 98.5654 175.14ZM98.4954 168.504C97.3614 168.504 96.5914 169.316 96.4374 170.702H100.455C100.385 169.33 99.6434 168.504 98.4954 168.504ZM109.113 175H105.935V164.948H109.113C112.319 164.948 114.167 166.992 114.167 169.932C114.167 172.83 112.249 175 109.113 175ZM107.475 166.278V173.67H109.043C111.353 173.67 112.599 172.242 112.599 169.932C112.599 167.664 111.367 166.278 109.043 166.278H107.475ZM118.438 175.14C116.296 175.14 114.854 173.586 114.854 171.248C114.854 169.05 116.352 167.44 118.396 167.44C120.608 167.44 122.078 169.232 121.826 171.64H116.296C116.408 173.152 117.164 174.034 118.41 174.034C119.46 174.034 120.188 173.46 120.426 172.494H121.826C121.462 174.146 120.188 175.14 118.438 175.14ZM118.368 168.504C117.234 168.504 116.464 169.316 116.31 170.702H120.328C120.258 169.33 119.516 168.504 118.368 168.504ZM128.93 172.788C128.93 174.244 127.796 175.14 125.822 175.14C123.862 175.14 122.7 174.174 122.56 172.578H123.918C123.974 173.502 124.716 174.076 125.85 174.076C126.844 174.076 127.502 173.726 127.502 173.026C127.502 172.41 127.124 172.144 126.2 171.962L124.996 171.738C123.624 171.472 122.854 170.772 122.854 169.652C122.854 168.35 123.988 167.44 125.71 167.44C127.488 167.44 128.692 168.392 128.818 169.918H127.46C127.376 169.022 126.718 168.504 125.724 168.504C124.828 168.504 124.226 168.882 124.226 169.526C124.226 170.128 124.604 170.408 125.5 170.576L126.76 170.814C128.23 171.08 128.93 171.724 128.93 172.788ZM131.916 165.858C131.916 166.39 131.496 166.796 130.894 166.796C130.292 166.796 129.858 166.39 129.858 165.858C129.858 165.312 130.292 164.92 130.894 164.92C131.496 164.92 131.916 165.312 131.916 165.858ZM131.608 175H130.194V167.58H131.608V175ZM136.258 177.856C134.312 177.856 133.052 176.82 132.968 175.14H134.34C134.424 176.176 135.096 176.736 136.244 176.736C137.518 176.736 138.19 176.05 138.19 174.776V173.432C137.77 174.328 136.93 174.846 135.922 174.846C134.074 174.846 132.758 173.32 132.758 171.136C132.758 168.924 134.018 167.44 135.88 167.44C136.944 167.44 137.784 167.958 138.288 168.896V167.58H139.604V174.748C139.604 176.694 138.358 177.856 136.258 177.856ZM134.186 171.136C134.186 172.676 134.942 173.614 136.174 173.614C137.378 173.614 138.19 172.648 138.19 171.178C138.19 169.638 137.392 168.658 136.174 168.658C134.956 168.658 134.186 169.61 134.186 171.136ZM142.696 170.814V175H141.282V167.58H142.598V168.812C143.102 167.986 143.942 167.44 144.964 167.44C146.49 167.44 147.498 168.42 147.498 170.198V175H146.084V170.674C146.084 169.4 145.524 168.686 144.474 168.686C143.508 168.686 142.696 169.498 142.696 170.814ZM151.014 174.398C151.014 175.728 149.964 176.764 148.424 176.792V175.994C149.334 175.966 149.95 175.476 150.034 174.79C149.908 174.832 149.824 174.846 149.726 174.846C149.194 174.846 148.802 174.412 148.802 173.894C148.802 173.292 149.25 172.9 149.824 172.9C150.594 172.9 151.014 173.46 151.014 174.398ZM162.322 172.116C162.322 173.95 160.978 175 158.892 175H155.21V164.948H158.696C160.726 164.948 161.944 165.886 161.944 167.58C161.944 168.532 161.37 169.344 160.404 169.764C161.65 170.114 162.322 170.968 162.322 172.116ZM158.598 166.18H156.624V169.204H158.598C159.816 169.204 160.474 168.63 160.474 167.692C160.474 166.754 159.816 166.18 158.598 166.18ZM158.794 170.436H156.624V173.768H158.794C160.11 173.768 160.852 173.138 160.852 172.074C160.852 171.052 160.11 170.436 158.794 170.436ZM165.119 171.206V175H163.705V167.58H165.021V169.148C165.539 168.126 166.659 167.482 167.877 167.482V168.952C166.281 168.868 165.119 169.568 165.119 171.206ZM173.21 175V173.852C172.748 174.678 171.922 175.14 170.83 175.14C169.29 175.14 168.282 174.258 168.282 172.9C168.282 171.444 169.444 170.688 171.656 170.688C172.09 170.688 172.44 170.702 173.042 170.772V170.226C173.042 169.162 172.468 168.56 171.488 168.56C170.452 168.56 169.822 169.176 169.78 170.212H168.492C168.562 168.546 169.752 167.44 171.488 167.44C173.322 167.44 174.386 168.476 174.386 170.24V175H173.21ZM169.626 172.858C169.626 173.628 170.2 174.132 171.11 174.132C172.3 174.132 173.042 173.39 173.042 172.256V171.654C172.496 171.584 172.104 171.57 171.74 171.57C170.326 171.57 169.626 171.99 169.626 172.858ZM177.41 170.814V175H175.996V167.58H177.312V168.812C177.816 167.986 178.656 167.44 179.678 167.44C181.204 167.44 182.212 168.42 182.212 170.198V175H180.798V170.674C180.798 169.4 180.238 168.686 179.188 168.686C178.222 168.686 177.41 169.498 177.41 170.814ZM183.278 171.29C183.278 169.036 184.566 167.44 186.568 167.44C187.562 167.44 188.43 167.944 188.948 168.854V164.948H190.362V175H189.046V173.67C188.514 174.608 187.618 175.14 186.568 175.14C184.566 175.14 183.278 173.516 183.278 171.29ZM184.748 171.29C184.748 172.942 185.616 173.88 186.848 173.88C188.052 173.88 188.948 172.9 188.948 171.262C188.948 169.596 188.024 168.686 186.848 168.686C185.616 168.686 184.748 169.61 184.748 171.29ZM76.6535 192H75.1135V181.948H76.6535V192ZM77.9083 188.29C77.9083 186.036 79.1963 184.44 81.1983 184.44C82.1923 184.44 83.0603 184.944 83.5783 185.854V181.948H84.9923V192H83.6763V190.67C83.1443 191.608 82.2483 192.14 81.1983 192.14C79.1963 192.14 77.9083 190.516 77.9083 188.29ZM79.3783 188.29C79.3783 189.942 80.2463 190.88 81.4783 190.88C82.6823 190.88 83.5783 189.9 83.5783 188.262C83.5783 186.596 82.6543 185.686 81.4783 185.686C80.2463 185.686 79.3783 186.61 79.3783 188.29ZM89.7298 192.14C87.5878 192.14 86.1458 190.586 86.1458 188.248C86.1458 186.05 87.6438 184.44 89.6878 184.44C91.8998 184.44 93.3698 186.232 93.1178 188.64H87.5878C87.6998 190.152 88.4558 191.034 89.7018 191.034C90.7518 191.034 91.4798 190.46 91.7178 189.494H93.1178C92.7538 191.146 91.4798 192.14 89.7298 192.14ZM89.6598 185.504C88.5258 185.504 87.7558 186.316 87.6018 187.702H91.6198C91.5498 186.33 90.8078 185.504 89.6598 185.504ZM95.7552 187.814V192H94.3412V184.58H95.6572V185.812C96.1612 184.986 97.0012 184.44 98.0232 184.44C99.5492 184.44 100.557 185.42 100.557 187.198V192H99.1432V187.674C99.1432 186.4 98.5832 185.686 97.5332 185.686C96.5672 185.686 95.7552 186.498 95.7552 187.814ZM106.314 190.628V191.874C105.88 192.07 105.502 192.14 105.054 192.14C103.682 192.14 102.73 191.398 102.73 189.76V185.784H101.092V184.58H102.73V182.382H104.144V184.58H106.384V185.784H104.144V189.438C104.144 190.46 104.634 190.824 105.39 190.824C105.726 190.824 106.02 190.768 106.314 190.628ZM109.175 182.858C109.175 183.39 108.755 183.796 108.153 183.796C107.551 183.796 107.117 183.39 107.117 182.858C107.117 182.312 107.551 181.92 108.153 181.92C108.755 181.92 109.175 182.312 109.175 182.858ZM108.867 192H107.453V184.58H108.867V192ZM114.736 190.628V191.874C114.302 192.07 113.924 192.14 113.476 192.14C112.104 192.14 111.152 191.398 111.152 189.76V185.784H109.514V184.58H111.152V182.382H112.566V184.58H114.806V185.784H112.566V189.438C112.566 190.46 113.056 190.824 113.812 190.824C114.148 190.824 114.442 190.768 114.736 190.628ZM122.036 184.58L118.326 194.702H116.786L117.85 191.902L114.924 184.58H116.45L118.606 190.236L120.608 184.58H122.036ZM128.695 192H125.517V181.948H128.695C131.901 181.948 133.749 183.992 133.749 186.932C133.749 189.83 131.831 192 128.695 192ZM127.057 183.278V190.67H128.625C130.935 190.67 132.181 189.242 132.181 186.932C132.181 184.664 130.949 183.278 128.625 183.278H127.057ZM138.021 192.14C135.879 192.14 134.437 190.586 134.437 188.248C134.437 186.05 135.935 184.44 137.979 184.44C140.191 184.44 141.661 186.232 141.409 188.64H135.879C135.991 190.152 136.747 191.034 137.993 191.034C139.043 191.034 139.771 190.46 140.009 189.494H141.409C141.045 191.146 139.771 192.14 138.021 192.14ZM137.951 185.504C136.817 185.504 136.047 186.316 135.893 187.702H139.911C139.841 186.33 139.099 185.504 137.951 185.504ZM148.512 189.788C148.512 191.244 147.378 192.14 145.404 192.14C143.444 192.14 142.282 191.174 142.142 189.578H143.5C143.556 190.502 144.298 191.076 145.432 191.076C146.426 191.076 147.084 190.726 147.084 190.026C147.084 189.41 146.706 189.144 145.782 188.962L144.578 188.738C143.206 188.472 142.436 187.772 142.436 186.652C142.436 185.35 143.57 184.44 145.292 184.44C147.07 184.44 148.274 185.392 148.4 186.918H147.042C146.958 186.022 146.3 185.504 145.306 185.504C144.41 185.504 143.808 185.882 143.808 186.526C143.808 187.128 144.186 187.408 145.082 187.576L146.342 187.814C147.812 188.08 148.512 188.724 148.512 189.788ZM151.498 182.858C151.498 183.39 151.078 183.796 150.476 183.796C149.874 183.796 149.44 183.39 149.44 182.858C149.44 182.312 149.874 181.92 150.476 181.92C151.078 181.92 151.498 182.312 151.498 182.858ZM151.19 192H149.776V184.58H151.19V192ZM155.841 194.856C153.895 194.856 152.635 193.82 152.551 192.14H153.923C154.007 193.176 154.679 193.736 155.827 193.736C157.101 193.736 157.773 193.05 157.773 191.776V190.432C157.353 191.328 156.513 191.846 155.505 191.846C153.657 191.846 152.341 190.32 152.341 188.136C152.341 185.924 153.601 184.44 155.463 184.44C156.527 184.44 157.367 184.958 157.871 185.896V184.58H159.187V191.748C159.187 193.694 157.941 194.856 155.841 194.856ZM153.769 188.136C153.769 189.676 154.525 190.614 155.757 190.614C156.961 190.614 157.773 189.648 157.773 188.178C157.773 186.638 156.975 185.658 155.757 185.658C154.539 185.658 153.769 186.61 153.769 188.136ZM162.279 187.814V192H160.865V184.58H162.181V185.812C162.685 184.986 163.525 184.44 164.547 184.44C166.073 184.44 167.081 185.42 167.081 187.198V192H165.667V187.674C165.667 186.4 165.107 185.686 164.057 185.686C163.091 185.686 162.279 186.498 162.279 187.814Z" fill="#1A1A1A"/>
<mask id="path-4-outside-1_1195_456" maskUnits="userSpaceOnUse" x="48" y="60" width="146" height="40" fill="black">
<rect fill="white" x="48" y="60" width="146" height="40"/>
<path d="M186 68.1591V86.7022H184.185L183.904 84.53C182.805 86.0929 181.323 86.8612 179.432 86.8612C178.205 86.8612 177.132 86.5963 176.186 86.04C175.241 85.5102 174.499 84.7155 173.963 83.6559C173.426 82.6227 173.171 81.3777 173.171 79.9472C173.171 78.5962 173.426 77.4042 173.963 76.3446C174.499 75.3114 175.241 74.4902 176.212 73.9075C177.157 73.3247 178.231 73.0333 179.432 73.0333C180.48 73.0333 181.374 73.2452 182.141 73.6426C182.882 74.0399 183.47 74.5697 183.904 75.2585V68.1591H186ZM181.86 84.3181C182.524 83.8943 183.035 83.3115 183.393 82.5698C183.751 81.828 183.93 80.9539 183.93 80.0002C183.93 79.0466 183.751 78.1724 183.393 77.4042C183.035 76.636 182.524 76.0267 181.86 75.6028C181.195 75.179 180.454 74.9671 179.636 74.9671C178.333 74.9671 177.285 75.4439 176.493 76.3711C175.701 77.2982 175.317 78.4903 175.317 79.9472C175.317 81.4307 175.701 82.6227 176.493 83.5499C177.285 84.477 178.333 84.9274 179.636 84.9274C180.454 84.9274 181.195 84.7419 181.86 84.3181Z"/>
<path d="M172.974 73.192V75.3112H171.926C170.674 75.3112 169.779 75.7615 169.243 76.6092C168.706 77.4834 168.451 78.543 168.451 79.8145V86.702H166.355V73.192H168.169L168.451 75.2317C168.808 74.6224 169.294 74.1191 169.907 73.7483C170.495 73.3774 171.313 73.192 172.386 73.192H172.974Z"/>
<path d="M154.624 85.9866C153.652 85.4038 152.886 84.6091 152.349 83.5495C151.787 82.5164 151.531 81.3243 151.531 79.9468C151.531 78.5958 151.787 77.4038 152.349 76.3441C152.886 75.311 153.652 74.4898 154.624 73.9071C155.595 73.3243 156.719 73.0329 157.997 73.0329C159.249 73.0329 160.374 73.3243 161.345 73.9071C162.316 74.4898 163.083 75.311 163.645 76.3441C164.182 77.4038 164.463 78.5958 164.463 79.9468C164.463 81.3243 164.182 82.5164 163.645 83.5495C163.083 84.6091 162.316 85.4038 161.345 85.9866C160.374 86.5694 159.249 86.8608 157.997 86.8608C156.719 86.8608 155.595 86.5694 154.624 85.9866ZM160.246 84.2912C160.911 83.8674 161.422 83.2846 161.779 82.5164C162.137 81.7746 162.316 80.9005 162.316 79.9468C162.316 78.9932 162.137 78.1455 161.779 77.3773C161.422 76.6355 160.911 76.0263 160.246 75.6024C159.582 75.1786 158.84 74.9667 157.997 74.9667C157.128 74.9667 156.387 75.1786 155.723 75.6024C155.058 76.0263 154.573 76.6355 154.215 77.3773C153.857 78.1455 153.678 78.9932 153.678 79.9468C153.678 80.9005 153.857 81.7746 154.215 82.5164C154.573 83.2846 155.058 83.8674 155.723 84.2912C156.387 84.715 157.128 84.927 157.997 84.927C158.84 84.927 159.582 84.715 160.246 84.2912Z"/>
<path d="M146.706 69.0333C147.243 68.4505 148.111 68.1591 149.313 68.1591H151.715V70.1459H149.44C148.929 70.1459 148.546 70.2783 148.341 70.4902C148.111 70.7286 148.009 71.0995 148.009 71.6293V73.1922H151.689V75.179H148.009V86.7022H145.914V71.6823C145.914 70.4902 146.169 69.6161 146.706 69.0333Z"/>
<path d="M125.207 73.192H127.405L130.65 84.1854L134.075 73.192H136.017L139.263 84.1854L142.662 73.192H144.783L140.439 86.702H138.138L134.995 76.6622L131.724 86.702L129.424 86.7285L125.207 73.192Z"/>
<path d="M125.708 84.715V86.7018H124.558C123.715 86.7018 123.127 86.5429 122.769 86.172C122.411 85.8276 122.207 85.2978 122.207 84.6091C121.184 86.119 119.728 86.8608 117.836 86.8608C116.38 86.8608 115.204 86.5164 114.335 85.8011C113.466 85.1124 113.032 84.1323 113.032 82.9137C113.032 81.5627 113.466 80.5296 114.361 79.7879C115.255 79.0726 116.559 78.7018 118.271 78.7018H122.104V77.7746C122.104 76.9004 121.798 76.2117 121.236 75.7084C120.673 75.2316 119.881 74.9667 118.859 74.9667C117.939 74.9667 117.198 75.1786 116.61 75.6024C116.022 76.0263 115.664 76.5561 115.536 77.2448H113.441C113.594 75.9203 114.156 74.8872 115.127 74.1455C116.099 73.4037 117.376 73.0329 118.961 73.0329C120.622 73.0329 121.9 73.4567 122.82 74.3044C123.74 75.1521 124.2 76.3441 124.2 77.9071V83.7349C124.2 84.3972 124.481 84.715 125.069 84.715H125.708ZM122.104 80.5296H118.066C116.124 80.5296 115.153 81.2978 115.153 82.7813C115.153 83.47 115.409 83.9998 115.92 84.3972C116.431 84.821 117.121 85.0064 117.99 85.0064C119.268 85.0064 120.264 84.6621 121.005 83.9733C121.721 83.2846 122.104 82.3574 122.104 81.1919V80.5296Z"/>
<path d="M112.736 73.192V75.3112H111.688C110.436 75.3112 109.542 75.7615 109.005 76.6092C108.468 77.4834 108.213 78.543 108.213 79.8145V86.702H106.117V73.192H107.931L108.213 75.2317C108.57 74.6224 109.056 74.1191 109.669 73.7483C110.257 73.3774 111.075 73.192 112.148 73.192H112.736Z"/>
<path d="M89.1737 72.5033C89.8637 71.0729 90.8604 69.9868 92.1638 69.1921C93.4417 68.3974 94.9495 68 96.6618 68C98.6297 68 100.291 68.5563 101.62 69.6689C102.949 70.7815 103.792 72.3179 104.15 74.2252H101.926C101.594 72.9537 100.955 71.947 100.01 71.2053C99.0641 70.4901 97.9141 70.1192 96.5596 70.1192C95.3329 70.1192 94.2339 70.4371 93.3139 71.0464C92.3683 71.6821 91.6527 72.5298 91.1416 73.6424C90.6304 74.755 90.4004 76 90.4004 77.4305C90.4004 78.861 90.6304 80.106 91.1416 81.2186C91.6527 82.3312 92.3683 83.2054 93.3139 83.8146C94.2339 84.4504 95.3329 84.7418 96.5596 84.7418C97.9397 84.7418 99.0897 84.3974 100.01 83.6822C100.93 82.967 101.543 81.9603 101.901 80.6358H104.124C103.767 82.5696 102.949 84.0795 101.62 85.1921C100.291 86.3047 98.6552 86.861 96.6618 86.861C94.9495 86.861 93.4417 86.4901 92.1638 85.6954C90.8604 84.9007 89.8637 83.8146 89.1737 82.3842C88.4581 80.9537 88.1259 79.3113 88.1259 77.4305C88.1259 75.5762 88.4581 73.9338 89.1737 72.5033Z"/>
<path d="M71.1337 73.192L75.1461 84.2119L79.0308 73.192H81.2542L75.2484 88.9801C74.9417 89.8013 74.6606 90.4106 74.4306 90.8079C74.175 91.2318 73.8939 91.5232 73.5361 91.7086C73.1783 91.9205 72.6927 92 72.1049 92H69.6003V90.0132H71.466C71.8749 90.0132 72.1816 89.9867 72.386 89.8808C72.5905 89.8013 72.7438 89.6689 72.8716 89.4569C72.9994 89.245 73.1527 88.9006 73.3572 88.4238L74.0217 86.8079L68.9103 73.192H71.1337Z"/>
<path d="M65.7882 73.8545C66.7338 74.4108 67.475 75.2055 68.0116 76.2386C68.5483 77.2982 68.8295 78.5168 68.8295 79.9472C68.8295 81.3247 68.5483 82.5168 68.0116 83.5499C67.475 84.6095 66.7338 85.4042 65.7882 85.987C64.8171 86.5698 63.7437 86.8612 62.5681 86.8612C61.4947 86.8612 60.6002 86.6757 59.8591 86.2784C59.0924 85.881 58.5046 85.3247 58.0956 84.636L57.8145 86.7022H56V68.1591H58.0956V75.3644C59.169 73.828 60.6769 73.0333 62.5681 73.0333C63.7692 73.0333 64.8426 73.3247 65.7882 73.8545ZM65.4815 83.5499C66.2738 82.6227 66.6827 81.4307 66.6827 79.9472C66.6827 78.4903 66.2738 77.2982 65.4815 76.3711C64.6893 75.4439 63.6415 74.9671 62.3636 74.9671C61.5202 74.9671 60.7791 75.179 60.1146 75.6028C59.4502 76.0267 58.9646 76.6095 58.6068 77.3512C58.249 78.0929 58.0701 78.9406 58.0701 79.8942C58.0701 80.8744 58.249 81.7486 58.6068 82.5168C58.9646 83.285 59.4502 83.8678 60.1146 84.2916C60.7791 84.7155 61.5202 84.9274 62.3636 84.9274C63.6415 84.9274 64.6893 84.477 65.4815 83.5499Z"/>
</mask>
<path d="M186 68.1591V86.7022H184.185L183.904 84.53C182.805 86.0929 181.323 86.8612 179.432 86.8612C178.205 86.8612 177.132 86.5963 176.186 86.04C175.241 85.5102 174.499 84.7155 173.963 83.6559C173.426 82.6227 173.171 81.3777 173.171 79.9472C173.171 78.5962 173.426 77.4042 173.963 76.3446C174.499 75.3114 175.241 74.4902 176.212 73.9075C177.157 73.3247 178.231 73.0333 179.432 73.0333C180.48 73.0333 181.374 73.2452 182.141 73.6426C182.882 74.0399 183.47 74.5697 183.904 75.2585V68.1591H186ZM181.86 84.3181C182.524 83.8943 183.035 83.3115 183.393 82.5698C183.751 81.828 183.93 80.9539 183.93 80.0002C183.93 79.0466 183.751 78.1724 183.393 77.4042C183.035 76.636 182.524 76.0267 181.86 75.6028C181.195 75.179 180.454 74.9671 179.636 74.9671C178.333 74.9671 177.285 75.4439 176.493 76.3711C175.701 77.2982 175.317 78.4903 175.317 79.9472C175.317 81.4307 175.701 82.6227 176.493 83.5499C177.285 84.477 178.333 84.9274 179.636 84.9274C180.454 84.9274 181.195 84.7419 181.86 84.3181Z" fill="#1A1A1A"/>
<path d="M172.974 73.192V75.3112H171.926C170.674 75.3112 169.779 75.7615 169.243 76.6092C168.706 77.4834 168.451 78.543 168.451 79.8145V86.702H166.355V73.192H168.169L168.451 75.2317C168.808 74.6224 169.294 74.1191 169.907 73.7483C170.495 73.3774 171.313 73.192 172.386 73.192H172.974Z" fill="#1A1A1A"/>
<path d="M154.624 85.9866C153.652 85.4038 152.886 84.6091 152.349 83.5495C151.787 82.5164 151.531 81.3243 151.531 79.9468C151.531 78.5958 151.787 77.4038 152.349 76.3441C152.886 75.311 153.652 74.4898 154.624 73.9071C155.595 73.3243 156.719 73.0329 157.997 73.0329C159.249 73.0329 160.374 73.3243 161.345 73.9071C162.316 74.4898 163.083 75.311 163.645 76.3441C164.182 77.4038 164.463 78.5958 164.463 79.9468C164.463 81.3243 164.182 82.5164 163.645 83.5495C163.083 84.6091 162.316 85.4038 161.345 85.9866C160.374 86.5694 159.249 86.8608 157.997 86.8608C156.719 86.8608 155.595 86.5694 154.624 85.9866ZM160.246 84.2912C160.911 83.8674 161.422 83.2846 161.779 82.5164C162.137 81.7746 162.316 80.9005 162.316 79.9468C162.316 78.9932 162.137 78.1455 161.779 77.3773C161.422 76.6355 160.911 76.0263 160.246 75.6024C159.582 75.1786 158.84 74.9667 157.997 74.9667C157.128 74.9667 156.387 75.1786 155.723 75.6024C155.058 76.0263 154.573 76.6355 154.215 77.3773C153.857 78.1455 153.678 78.9932 153.678 79.9468C153.678 80.9005 153.857 81.7746 154.215 82.5164C154.573 83.2846 155.058 83.8674 155.723 84.2912C156.387 84.715 157.128 84.927 157.997 84.927C158.84 84.927 159.582 84.715 160.246 84.2912Z" fill="#1A1A1A"/>
<path d="M146.706 69.0333C147.243 68.4505 148.111 68.1591 149.313 68.1591H151.715V70.1459H149.44C148.929 70.1459 148.546 70.2783 148.341 70.4902C148.111 70.7286 148.009 71.0995 148.009 71.6293V73.1922H151.689V75.179H148.009V86.7022H145.914V71.6823C145.914 70.4902 146.169 69.6161 146.706 69.0333Z" fill="#1A1A1A"/>
<path d="M125.207 73.192H127.405L130.65 84.1854L134.075 73.192H136.017L139.263 84.1854L142.662 73.192H144.783L140.439 86.702H138.138L134.995 76.6622L131.724 86.702L129.424 86.7285L125.207 73.192Z" fill="#1A1A1A"/>
<path d="M125.708 84.715V86.7018H124.558C123.715 86.7018 123.127 86.5429 122.769 86.172C122.411 85.8276 122.207 85.2978 122.207 84.6091C121.184 86.119 119.728 86.8608 117.836 86.8608C116.38 86.8608 115.204 86.5164 114.335 85.8011C113.466 85.1124 113.032 84.1323 113.032 82.9137C113.032 81.5627 113.466 80.5296 114.361 79.7879C115.255 79.0726 116.559 78.7018 118.271 78.7018H122.104V77.7746C122.104 76.9004 121.798 76.2117 121.236 75.7084C120.673 75.2316 119.881 74.9667 118.859 74.9667C117.939 74.9667 117.198 75.1786 116.61 75.6024C116.022 76.0263 115.664 76.5561 115.536 77.2448H113.441C113.594 75.9203 114.156 74.8872 115.127 74.1455C116.099 73.4037 117.376 73.0329 118.961 73.0329C120.622 73.0329 121.9 73.4567 122.82 74.3044C123.74 75.1521 124.2 76.3441 124.2 77.9071V83.7349C124.2 84.3972 124.481 84.715 125.069 84.715H125.708ZM122.104 80.5296H118.066C116.124 80.5296 115.153 81.2978 115.153 82.7813C115.153 83.47 115.409 83.9998 115.92 84.3972C116.431 84.821 117.121 85.0064 117.99 85.0064C119.268 85.0064 120.264 84.6621 121.005 83.9733C121.721 83.2846 122.104 82.3574 122.104 81.1919V80.5296Z" fill="#1A1A1A"/>
<path d="M112.736 73.192V75.3112H111.688C110.436 75.3112 109.542 75.7615 109.005 76.6092C108.468 77.4834 108.213 78.543 108.213 79.8145V86.702H106.117V73.192H107.931L108.213 75.2317C108.57 74.6224 109.056 74.1191 109.669 73.7483C110.257 73.3774 111.075 73.192 112.148 73.192H112.736Z" fill="#1A1A1A"/>
<path d="M89.1737 72.5033C89.8637 71.0729 90.8604 69.9868 92.1638 69.1921C93.4417 68.3974 94.9495 68 96.6618 68C98.6297 68 100.291 68.5563 101.62 69.6689C102.949 70.7815 103.792 72.3179 104.15 74.2252H101.926C101.594 72.9537 100.955 71.947 100.01 71.2053C99.0641 70.4901 97.9141 70.1192 96.5596 70.1192C95.3329 70.1192 94.2339 70.4371 93.3139 71.0464C92.3683 71.6821 91.6527 72.5298 91.1416 73.6424C90.6304 74.755 90.4004 76 90.4004 77.4305C90.4004 78.861 90.6304 80.106 91.1416 81.2186C91.6527 82.3312 92.3683 83.2054 93.3139 83.8146C94.2339 84.4504 95.3329 84.7418 96.5596 84.7418C97.9397 84.7418 99.0897 84.3974 100.01 83.6822C100.93 82.967 101.543 81.9603 101.901 80.6358H104.124C103.767 82.5696 102.949 84.0795 101.62 85.1921C100.291 86.3047 98.6552 86.861 96.6618 86.861C94.9495 86.861 93.4417 86.4901 92.1638 85.6954C90.8604 84.9007 89.8637 83.8146 89.1737 82.3842C88.4581 80.9537 88.1259 79.3113 88.1259 77.4305C88.1259 75.5762 88.4581 73.9338 89.1737 72.5033Z" fill="#1A1A1A"/>
<path d="M71.1337 73.192L75.1461 84.2119L79.0308 73.192H81.2542L75.2484 88.9801C74.9417 89.8013 74.6606 90.4106 74.4306 90.8079C74.175 91.2318 73.8939 91.5232 73.5361 91.7086C73.1783 91.9205 72.6927 92 72.1049 92H69.6003V90.0132H71.466C71.8749 90.0132 72.1816 89.9867 72.386 89.8808C72.5905 89.8013 72.7438 89.6689 72.8716 89.4569C72.9994 89.245 73.1527 88.9006 73.3572 88.4238L74.0217 86.8079L68.9103 73.192H71.1337Z" fill="#1A1A1A"/>
<path d="M65.7882 73.8545C66.7338 74.4108 67.475 75.2055 68.0116 76.2386C68.5483 77.2982 68.8295 78.5168 68.8295 79.9472C68.8295 81.3247 68.5483 82.5168 68.0116 83.5499C67.475 84.6095 66.7338 85.4042 65.7882 85.987C64.8171 86.5698 63.7437 86.8612 62.5681 86.8612C61.4947 86.8612 60.6002 86.6757 59.8591 86.2784C59.0924 85.881 58.5046 85.3247 58.0956 84.636L57.8145 86.7022H56V68.1591H58.0956V75.3644C59.169 73.828 60.6769 73.0333 62.5681 73.0333C63.7692 73.0333 64.8426 73.3247 65.7882 73.8545ZM65.4815 83.5499C66.2738 82.6227 66.6827 81.4307 66.6827 79.9472C66.6827 78.4903 66.2738 77.2982 65.4815 76.3711C64.6893 75.4439 63.6415 74.9671 62.3636 74.9671C61.5202 74.9671 60.7791 75.179 60.1146 75.6028C59.4502 76.0267 58.9646 76.6095 58.6068 77.3512C58.249 78.0929 58.0701 78.9406 58.0701 79.8942C58.0701 80.8744 58.249 81.7486 58.6068 82.5168C58.9646 83.285 59.4502 83.8678 60.1146 84.2916C60.7791 84.7155 61.5202 84.9274 62.3636 84.9274C63.6415 84.9274 64.6893 84.477 65.4815 83.5499Z" fill="#1A1A1A"/>
<path d="M186 68.1591V86.7022H184.185L183.904 84.53C182.805 86.0929 181.323 86.8612 179.432 86.8612C178.205 86.8612 177.132 86.5963 176.186 86.04C175.241 85.5102 174.499 84.7155 173.963 83.6559C173.426 82.6227 173.171 81.3777 173.171 79.9472C173.171 78.5962 173.426 77.4042 173.963 76.3446C174.499 75.3114 175.241 74.4902 176.212 73.9075C177.157 73.3247 178.231 73.0333 179.432 73.0333C180.48 73.0333 181.374 73.2452 182.141 73.6426C182.882 74.0399 183.47 74.5697 183.904 75.2585V68.1591H186ZM181.86 84.3181C182.524 83.8943 183.035 83.3115 183.393 82.5698C183.751 81.828 183.93 80.9539 183.93 80.0002C183.93 79.0466 183.751 78.1724 183.393 77.4042C183.035 76.636 182.524 76.0267 181.86 75.6028C181.195 75.179 180.454 74.9671 179.636 74.9671C178.333 74.9671 177.285 75.4439 176.493 76.3711C175.701 77.2982 175.317 78.4903 175.317 79.9472C175.317 81.4307 175.701 82.6227 176.493 83.5499C177.285 84.477 178.333 84.9274 179.636 84.9274C180.454 84.9274 181.195 84.7419 181.86 84.3181Z" stroke="#E6E2DE" stroke-width="16" stroke-linejoin="round" mask="url(#path-4-outside-1_1195_456)"/>
<path d="M172.974 73.192V75.3112H171.926C170.674 75.3112 169.779 75.7615 169.243 76.6092C168.706 77.4834 168.451 78.543 168.451 79.8145V86.702H166.355V73.192H168.169L168.451 75.2317C168.808 74.6224 169.294 74.1191 169.907 73.7483C170.495 73.3774 171.313 73.192 172.386 73.192H172.974Z" stroke="#E6E2DE" stroke-width="16" stroke-linejoin="round" mask="url(#path-4-outside-1_1195_456)"/>
<path d="M154.624 85.9866C153.652 85.4038 152.886 84.6091 152.349 83.5495C151.787 82.5164 151.531 81.3243 151.531 79.9468C151.531 78.5958 151.787 77.4038 152.349 76.3441C152.886 75.311 153.652 74.4898 154.624 73.9071C155.595 73.3243 156.719 73.0329 157.997 73.0329C159.249 73.0329 160.374 73.3243 161.345 73.9071C162.316 74.4898 163.083 75.311 163.645 76.3441C164.182 77.4038 164.463 78.5958 164.463 79.9468C164.463 81.3243 164.182 82.5164 163.645 83.5495C163.083 84.6091 162.316 85.4038 161.345 85.9866C160.374 86.5694 159.249 86.8608 157.997 86.8608C156.719 86.8608 155.595 86.5694 154.624 85.9866ZM160.246 84.2912C160.911 83.8674 161.422 83.2846 161.779 82.5164C162.137 81.7746 162.316 80.9005 162.316 79.9468C162.316 78.9932 162.137 78.1455 161.779 77.3773C161.422 76.6355 160.911 76.0263 160.246 75.6024C159.582 75.1786 158.84 74.9667 157.997 74.9667C157.128 74.9667 156.387 75.1786 155.723 75.6024C155.058 76.0263 154.573 76.6355 154.215 77.3773C153.857 78.1455 153.678 78.9932 153.678 79.9468C153.678 80.9005 153.857 81.7746 154.215 82.5164C154.573 83.2846 155.058 83.8674 155.723 84.2912C156.387 84.715 157.128 84.927 157.997 84.927C158.84 84.927 159.582 84.715 160.246 84.2912Z" stroke="#E6E2DE" stroke-width="16" stroke-linejoin="round" mask="url(#path-4-outside-1_1195_456)"/>
<path d="M146.706 69.0333C147.243 68.4505 148.111 68.1591 149.313 68.1591H151.715V70.1459H149.44C148.929 70.1459 148.546 70.2783 148.341 70.4902C148.111 70.7286 148.009 71.0995 148.009 71.6293V73.1922H151.689V75.179H148.009V86.7022H145.914V71.6823C145.914 70.4902 146.169 69.6161 146.706 69.0333Z" stroke="#E6E2DE" stroke-width="16" stroke-linejoin="round" mask="url(#path-4-outside-1_1195_456)"/>
<path d="M125.207 73.192H127.405L130.65 84.1854L134.075 73.192H136.017L139.263 84.1854L142.662 73.192H144.783L140.439 86.702H138.138L134.995 76.6622L131.724 86.702L129.424 86.7285L125.207 73.192Z" stroke="#E6E2DE" stroke-width="16" stroke-linejoin="round" mask="url(#path-4-outside-1_1195_456)"/>
<path d="M125.708 84.715V86.7018H124.558C123.715 86.7018 123.127 86.5429 122.769 86.172C122.411 85.8276 122.207 85.2978 122.207 84.6091C121.184 86.119 119.728 86.8608 117.836 86.8608C116.38 86.8608 115.204 86.5164 114.335 85.8011C113.466 85.1124 113.032 84.1323 113.032 82.9137C113.032 81.5627 113.466 80.5296 114.361 79.7879C115.255 79.0726 116.559 78.7018 118.271 78.7018H122.104V77.7746C122.104 76.9004 121.798 76.2117 121.236 75.7084C120.673 75.2316 119.881 74.9667 118.859 74.9667C117.939 74.9667 117.198 75.1786 116.61 75.6024C116.022 76.0263 115.664 76.5561 115.536 77.2448H113.441C113.594 75.9203 114.156 74.8872 115.127 74.1455C116.099 73.4037 117.376 73.0329 118.961 73.0329C120.622 73.0329 121.9 73.4567 122.82 74.3044C123.74 75.1521 124.2 76.3441 124.2 77.9071V83.7349C124.2 84.3972 124.481 84.715 125.069 84.715H125.708ZM122.104 80.5296H118.066C116.124 80.5296 115.153 81.2978 115.153 82.7813C115.153 83.47 115.409 83.9998 115.92 84.3972C116.431 84.821 117.121 85.0064 117.99 85.0064C119.268 85.0064 120.264 84.6621 121.005 83.9733C121.721 83.2846 122.104 82.3574 122.104 81.1919V80.5296Z" stroke="#E6E2DE" stroke-width="16" stroke-linejoin="round" mask="url(#path-4-outside-1_1195_456)"/>
<path d="M112.736 73.192V75.3112H111.688C110.436 75.3112 109.542 75.7615 109.005 76.6092C108.468 77.4834 108.213 78.543 108.213 79.8145V86.702H106.117V73.192H107.931L108.213 75.2317C108.57 74.6224 109.056 74.1191 109.669 73.7483C110.257 73.3774 111.075 73.192 112.148 73.192H112.736Z" stroke="#E6E2DE" stroke-width="16" stroke-linejoin="round" mask="url(#path-4-outside-1_1195_456)"/>
<path d="M89.1737 72.5033C89.8637 71.0729 90.8604 69.9868 92.1638 69.1921C93.4417 68.3974 94.9495 68 96.6618 68C98.6297 68 100.291 68.5563 101.62 69.6689C102.949 70.7815 103.792 72.3179 104.15 74.2252H101.926C101.594 72.9537 100.955 71.947 100.01 71.2053C99.0641 70.4901 97.9141 70.1192 96.5596 70.1192C95.3329 70.1192 94.2339 70.4371 93.3139 71.0464C92.3683 71.6821 91.6527 72.5298 91.1416 73.6424C90.6304 74.755 90.4004 76 90.4004 77.4305C90.4004 78.861 90.6304 80.106 91.1416 81.2186C91.6527 82.3312 92.3683 83.2054 93.3139 83.8146C94.2339 84.4504 95.3329 84.7418 96.5596 84.7418C97.9397 84.7418 99.0897 84.3974 100.01 83.6822C100.93 82.967 101.543 81.9603 101.901 80.6358H104.124C103.767 82.5696 102.949 84.0795 101.62 85.1921C100.291 86.3047 98.6552 86.861 96.6618 86.861C94.9495 86.861 93.4417 86.4901 92.1638 85.6954C90.8604 84.9007 89.8637 83.8146 89.1737 82.3842C88.4581 80.9537 88.1259 79.3113 88.1259 77.4305C88.1259 75.5762 88.4581 73.9338 89.1737 72.5033Z" stroke="#E6E2DE" stroke-width="16" stroke-linejoin="round" mask="url(#path-4-outside-1_1195_456)"/>
<path d="M71.1337 73.192L75.1461 84.2119L79.0308 73.192H81.2542L75.2484 88.9801C74.9417 89.8013 74.6606 90.4106 74.4306 90.8079C74.175 91.2318 73.8939 91.5232 73.5361 91.7086C73.1783 91.9205 72.6927 92 72.1049 92H69.6003V90.0132H71.466C71.8749 90.0132 72.1816 89.9867 72.386 89.8808C72.5905 89.8013 72.7438 89.6689 72.8716 89.4569C72.9994 89.245 73.1527 88.9006 73.3572 88.4238L74.0217 86.8079L68.9103 73.192H71.1337Z" stroke="#E6E2DE" stroke-width="16" stroke-linejoin="round" mask="url(#path-4-outside-1_1195_456)"/>
<path d="M65.7882 73.8545C66.7338 74.4108 67.475 75.2055 68.0116 76.2386C68.5483 77.2982 68.8295 78.5168 68.8295 79.9472C68.8295 81.3247 68.5483 82.5168 68.0116 83.5499C67.475 84.6095 66.7338 85.4042 65.7882 85.987C64.8171 86.5698 63.7437 86.8612 62.5681 86.8612C61.4947 86.8612 60.6002 86.6757 59.8591 86.2784C59.0924 85.881 58.5046 85.3247 58.0956 84.636L57.8145 86.7022H56V68.1591H58.0956V75.3644C59.169 73.828 60.6769 73.0333 62.5681 73.0333C63.7692 73.0333 64.8426 73.3247 65.7882 73.8545ZM65.4815 83.5499C66.2738 82.6227 66.6827 81.4307 66.6827 79.9472C66.6827 78.4903 66.2738 77.2982 65.4815 76.3711C64.6893 75.4439 63.6415 74.9671 62.3636 74.9671C61.5202 74.9671 60.7791 75.179 60.1146 75.6028C59.4502 76.0267 58.9646 76.6095 58.6068 77.3512C58.249 78.0929 58.0701 78.9406 58.0701 79.8942C58.0701 80.8744 58.249 81.7486 58.6068 82.5168C58.9646 83.285 59.4502 83.8678 60.1146 84.2916C60.7791 84.7155 61.5202 84.9274 62.3636 84.9274C63.6415 84.9274 64.6893 84.477 65.4815 83.5499Z" stroke="#E6E2DE" stroke-width="16" stroke-linejoin="round" mask="url(#path-4-outside-1_1195_456)"/>
</svg>
