<svg width="242" height="180" viewBox="0 0 242 180" fill="none" xmlns="http://www.w3.org/2000/svg">
<rect y="20" width="242" height="160" rx="12" fill="#E6E2DE"/>
<path d="M50.3818 95H46.3018V83.512H50.3818C54.0298 83.512 56.2378 85.848 56.2378 89.192C56.2378 92.536 53.9498 95 50.3818 95ZM48.7338 85.608V92.904H50.2538C52.5418 92.904 53.7418 91.576 53.7418 89.192C53.7418 86.904 52.5418 85.608 50.2538 85.608H48.7338ZM61.2868 95.144C58.7268 95.144 57.0148 93.368 57.0148 90.696C57.0148 88.152 58.7908 86.296 61.2548 86.296C63.9588 86.296 65.7508 88.488 65.3508 91.272H59.2868C59.4308 92.664 60.1028 93.432 61.2388 93.432C62.2148 93.432 62.8708 92.952 63.1268 92.104H65.3348C64.8548 94.04 63.3668 95.144 61.2868 95.144ZM61.2068 87.928C60.1668 87.928 59.5108 88.6 59.3188 89.864H62.9988C62.9348 88.68 62.2628 87.928 61.2068 87.928ZM74.0796 86.456L70.9436 95H68.5116L65.3596 86.456H67.7596L69.7916 92.472L71.8396 86.456H74.0796ZM77.4714 84.472C77.4714 85.224 76.8634 85.784 75.9834 85.784C75.1194 85.784 74.5114 85.224 74.5114 84.472C74.5114 83.688 75.1194 83.128 75.9834 83.128C76.8634 83.128 77.4714 83.688 77.4714 84.472ZM77.1194 95H74.8954V86.456H77.1194V95ZM84.2506 92.84V94.776C83.7066 95.048 83.1946 95.16 82.5386 95.16C80.7786 95.16 79.6746 94.152 79.6746 92.232V88.36H77.9466V86.456H79.6746V83.928H81.8826V86.456H84.3306V88.36H81.8826V91.72C81.8826 92.712 82.3306 93.112 83.1306 93.112C83.5466 93.112 83.9306 93.016 84.2506 92.84ZM90.6166 95V93.944C90.0566 94.744 89.2086 95.16 88.0406 95.16C86.2646 95.16 85.0806 94.12 85.0806 92.52C85.0806 90.856 86.4246 89.96 88.9206 89.96C89.4006 89.96 89.8166 89.992 90.3446 90.056V89.544C90.3446 88.584 89.8006 88.024 88.8726 88.024C87.9126 88.024 87.3366 88.584 87.2566 89.544H85.2566C85.3846 87.576 86.8086 86.296 88.8726 86.296C91.1126 86.296 92.4246 87.528 92.4246 89.624V95H90.6166ZM87.1766 92.456C87.1766 93.176 87.6886 93.624 88.5206 93.624C89.6566 93.624 90.3446 93 90.3446 92.008V91.4C89.8166 91.32 89.4486 91.288 89.0646 91.288C87.8006 91.288 87.1766 91.688 87.1766 92.456ZM101.637 95H97.5568V83.512H101.637C105.285 83.512 107.493 85.848 107.493 89.192C107.493 92.536 105.205 95 101.637 95ZM99.9888 85.608V92.904H101.509C103.797 92.904 104.997 91.576 104.997 89.192C104.997 86.904 103.797 85.608 101.509 85.608H99.9888ZM112.542 95.144C109.982 95.144 108.27 93.368 108.27 90.696C108.27 88.152 110.046 86.296 112.51 86.296C115.214 86.296 117.006 88.488 116.606 91.272H110.542C110.686 92.664 111.358 93.432 112.494 93.432C113.47 93.432 114.126 92.952 114.382 92.104H116.59C116.11 94.04 114.622 95.144 112.542 95.144ZM112.462 87.928C111.422 87.928 110.766 88.6 110.574 89.864H114.254C114.19 88.68 113.518 87.928 112.462 87.928ZM125.335 86.456L122.199 95H119.767L116.615 86.456H119.015L121.047 92.472L123.095 86.456H125.335ZM129.566 95.144C127.006 95.144 125.294 93.368 125.294 90.696C125.294 88.152 127.07 86.296 129.534 86.296C132.238 86.296 134.03 88.488 133.63 91.272H127.566C127.71 92.664 128.382 93.432 129.518 93.432C130.494 93.432 131.15 92.952 131.406 92.104H133.614C133.134 94.04 131.646 95.144 129.566 95.144ZM129.486 87.928C128.446 87.928 127.79 88.6 127.598 89.864H131.278C131.214 88.68 130.542 87.928 129.486 87.928ZM137.199 95H134.959V83.512H137.199V95ZM142.81 95.16C140.33 95.16 138.474 93.208 138.474 90.728C138.474 88.232 140.33 86.296 142.81 86.296C145.29 86.296 147.146 88.232 147.146 90.728C147.146 93.208 145.29 95.16 142.81 95.16ZM142.81 93.192C143.914 93.192 144.858 92.312 144.858 90.728C144.858 89.144 143.914 88.28 142.81 88.28C141.706 88.28 140.762 89.144 140.762 90.728C140.762 92.312 141.706 93.192 142.81 93.192ZM156.933 90.728C156.933 93.256 155.445 95.16 153.141 95.16C152.133 95.16 151.269 94.728 150.629 93.896V98.088H148.405V86.456H150.453V87.704C151.109 86.792 152.053 86.296 153.141 86.296C155.445 86.296 156.933 88.216 156.933 90.728ZM154.645 90.728C154.645 89.128 153.733 88.264 152.645 88.264C151.557 88.264 150.645 89.112 150.645 90.728C150.645 92.344 151.557 93.176 152.645 93.176C153.733 93.176 154.645 92.36 154.645 90.728ZM160.422 95H158.198V86.456H160.246V87.672C160.87 86.808 161.67 86.296 162.806 86.296C163.974 86.296 164.87 86.84 165.302 87.816C165.974 86.872 166.838 86.296 168.118 86.296C169.846 86.296 171.014 87.432 171.014 89.48V95H168.806V90.184C168.806 88.984 168.294 88.264 167.318 88.264C166.438 88.264 165.718 88.952 165.718 90.232V95H163.51V90.184C163.51 88.984 162.998 88.264 162.022 88.264C161.126 88.264 160.422 88.952 160.422 90.232V95ZM176.469 95.144C173.909 95.144 172.197 93.368 172.197 90.696C172.197 88.152 173.973 86.296 176.437 86.296C179.141 86.296 180.933 88.488 180.533 91.272H174.469C174.613 92.664 175.285 93.432 176.421 93.432C177.397 93.432 178.053 92.952 178.309 92.104H180.517C180.037 94.04 178.549 95.144 176.469 95.144ZM176.389 87.928C175.349 87.928 174.693 88.6 174.501 89.864H178.181C178.117 88.68 177.445 87.928 176.389 87.928ZM184.086 90.344V95H181.862V86.456H183.91V87.672C184.534 86.824 185.414 86.296 186.534 86.296C188.246 86.296 189.43 87.416 189.43 89.48V95H187.222V90.232C187.222 88.968 186.726 88.264 185.718 88.264C184.838 88.264 184.086 88.968 184.086 90.344ZM196.436 92.84V94.776C195.892 95.048 195.38 95.16 194.724 95.16C192.964 95.16 191.86 94.152 191.86 92.232V88.36H190.132V86.456H191.86V83.928H194.068V86.456H196.516V88.36H194.068V91.72C194.068 92.712 194.516 93.112 195.316 93.112C195.732 93.112 196.116 93.016 196.436 92.84Z" fill="#1A1A1A"/>
<path d="M49.4082 115H43.3182V104.948H44.8582V113.614H49.4082V115ZM53.4307 115.14C51.3307 115.14 49.7907 113.488 49.7907 111.29C49.7907 109.092 51.3307 107.44 53.4307 107.44C55.5307 107.44 57.0707 109.092 57.0707 111.29C57.0707 113.488 55.5307 115.14 53.4307 115.14ZM53.4307 113.894C54.6487 113.894 55.6147 112.914 55.6147 111.29C55.6147 109.666 54.6487 108.7 53.4307 108.7C52.2127 108.7 51.2607 109.666 51.2607 111.29C51.2607 112.914 52.2127 113.894 53.4307 113.894ZM61.0634 117.856C59.1174 117.856 57.8574 116.82 57.7734 115.14H59.1454C59.2294 116.176 59.9014 116.736 61.0494 116.736C62.3234 116.736 62.9954 116.05 62.9954 114.776V113.432C62.5754 114.328 61.7354 114.846 60.7274 114.846C58.8794 114.846 57.5634 113.32 57.5634 111.136C57.5634 108.924 58.8234 107.44 60.6854 107.44C61.7494 107.44 62.5894 107.958 63.0934 108.896V107.58H64.4094V114.748C64.4094 116.694 63.1634 117.856 61.0634 117.856ZM58.9914 111.136C58.9914 112.676 59.7474 113.614 60.9794 113.614C62.1834 113.614 62.9954 112.648 62.9954 111.178C62.9954 109.638 62.1974 108.658 60.9794 108.658C59.7614 108.658 58.9914 109.61 58.9914 111.136ZM69.1949 115.14C67.0949 115.14 65.5549 113.488 65.5549 111.29C65.5549 109.092 67.0949 107.44 69.1949 107.44C71.2949 107.44 72.8349 109.092 72.8349 111.29C72.8349 113.488 71.2949 115.14 69.1949 115.14ZM69.1949 113.894C70.4129 113.894 71.3789 112.914 71.3789 111.29C71.3789 109.666 70.4129 108.7 69.1949 108.7C67.9769 108.7 67.0249 109.666 67.0249 111.29C67.0249 112.914 67.9769 113.894 69.1949 113.894ZM79.9321 115H76.7541V104.948H79.9321C83.1381 104.948 84.9861 106.992 84.9861 109.932C84.9861 112.83 83.0681 115 79.9321 115ZM78.2941 106.278V113.67H79.8621C82.1721 113.67 83.4181 112.242 83.4181 109.932C83.4181 107.664 82.1861 106.278 79.8621 106.278H78.2941ZM89.2579 115.14C87.1159 115.14 85.6739 113.586 85.6739 111.248C85.6739 109.05 87.1719 107.44 89.2159 107.44C91.4279 107.44 92.8979 109.232 92.6459 111.64H87.1159C87.2279 113.152 87.9839 114.034 89.2299 114.034C90.2799 114.034 91.0079 113.46 91.2459 112.494H92.6459C92.2819 114.146 91.0079 115.14 89.2579 115.14ZM89.1879 108.504C88.0539 108.504 87.2839 109.316 87.1299 110.702H91.1479C91.0779 109.33 90.3359 108.504 89.1879 108.504ZM99.7493 112.788C99.7493 114.244 98.6153 115.14 96.6413 115.14C94.6813 115.14 93.5193 114.174 93.3793 112.578H94.7373C94.7933 113.502 95.5353 114.076 96.6693 114.076C97.6633 114.076 98.3213 113.726 98.3213 113.026C98.3213 112.41 97.9433 112.144 97.0193 111.962L95.8153 111.738C94.4433 111.472 93.6733 110.772 93.6733 109.652C93.6733 108.35 94.8073 107.44 96.5293 107.44C98.3073 107.44 99.5113 108.392 99.6373 109.918H98.2793C98.1953 109.022 97.5373 108.504 96.5433 108.504C95.6473 108.504 95.0453 108.882 95.0453 109.526C95.0453 110.128 95.4233 110.408 96.3193 110.576L97.5793 110.814C99.0493 111.08 99.7493 111.724 99.7493 112.788ZM102.735 105.858C102.735 106.39 102.315 106.796 101.713 106.796C101.111 106.796 100.677 106.39 100.677 105.858C100.677 105.312 101.111 104.92 101.713 104.92C102.315 104.92 102.735 105.312 102.735 105.858ZM102.427 115H101.013V107.58H102.427V115ZM107.078 117.856C105.132 117.856 103.872 116.82 103.788 115.14H105.16C105.244 116.176 105.916 116.736 107.064 116.736C108.338 116.736 109.01 116.05 109.01 114.776V113.432C108.59 114.328 107.75 114.846 106.742 114.846C104.894 114.846 103.578 113.32 103.578 111.136C103.578 108.924 104.838 107.44 106.7 107.44C107.764 107.44 108.604 107.958 109.108 108.896V107.58H110.424V114.748C110.424 116.694 109.178 117.856 107.078 117.856ZM105.006 111.136C105.006 112.676 105.762 113.614 106.994 113.614C108.198 113.614 109.01 112.648 109.01 111.178C109.01 109.638 108.212 108.658 106.994 108.658C105.776 108.658 105.006 109.61 105.006 111.136ZM113.516 110.814V115H112.102V107.58H113.418V108.812C113.922 107.986 114.762 107.44 115.784 107.44C117.31 107.44 118.318 108.42 118.318 110.198V115H116.904V110.674C116.904 109.4 116.344 108.686 115.294 108.686C114.328 108.686 113.516 109.498 113.516 110.814ZM121.833 114.398C121.833 115.728 120.783 116.764 119.243 116.792V115.994C120.153 115.966 120.769 115.476 120.853 114.79C120.727 114.832 120.643 114.846 120.545 114.846C120.013 114.846 119.621 114.412 119.621 113.894C119.621 113.292 120.069 112.9 120.643 112.9C121.413 112.9 121.833 113.46 121.833 114.398ZM133.142 112.116C133.142 113.95 131.798 115 129.712 115H126.03V104.948H129.516C131.546 104.948 132.764 105.886 132.764 107.58C132.764 108.532 132.19 109.344 131.224 109.764C132.47 110.114 133.142 110.968 133.142 112.116ZM129.418 106.18H127.444V109.204H129.418C130.636 109.204 131.294 108.63 131.294 107.692C131.294 106.754 130.636 106.18 129.418 106.18ZM129.614 110.436H127.444V113.768H129.614C130.93 113.768 131.672 113.138 131.672 112.074C131.672 111.052 130.93 110.436 129.614 110.436ZM135.938 111.206V115H134.524V107.58H135.84V109.148C136.358 108.126 137.478 107.482 138.696 107.482V108.952C137.1 108.868 135.938 109.568 135.938 111.206ZM144.03 115V113.852C143.568 114.678 142.742 115.14 141.65 115.14C140.11 115.14 139.102 114.258 139.102 112.9C139.102 111.444 140.264 110.688 142.476 110.688C142.91 110.688 143.26 110.702 143.862 110.772V110.226C143.862 109.162 143.288 108.56 142.308 108.56C141.272 108.56 140.642 109.176 140.6 110.212H139.312C139.382 108.546 140.572 107.44 142.308 107.44C144.142 107.44 145.206 108.476 145.206 110.24V115H144.03ZM140.446 112.858C140.446 113.628 141.02 114.132 141.93 114.132C143.12 114.132 143.862 113.39 143.862 112.256V111.654C143.316 111.584 142.924 111.57 142.56 111.57C141.146 111.57 140.446 111.99 140.446 112.858ZM148.23 110.814V115H146.816V107.58H148.132V108.812C148.636 107.986 149.476 107.44 150.498 107.44C152.024 107.44 153.032 108.42 153.032 110.198V115H151.618V110.674C151.618 109.4 151.058 108.686 150.008 108.686C149.042 108.686 148.23 109.498 148.23 110.814ZM154.098 111.29C154.098 109.036 155.386 107.44 157.388 107.44C158.382 107.44 159.25 107.944 159.768 108.854V104.948H161.182V115H159.866V113.67C159.334 114.608 158.438 115.14 157.388 115.14C155.386 115.14 154.098 113.516 154.098 111.29ZM155.568 111.29C155.568 112.942 156.436 113.88 157.668 113.88C158.872 113.88 159.768 112.9 159.768 111.262C159.768 109.596 158.844 108.686 157.668 108.686C156.436 108.686 155.568 109.61 155.568 111.29ZM168.803 115H165.625V104.948H168.803C172.009 104.948 173.857 106.992 173.857 109.932C173.857 112.83 171.939 115 168.803 115ZM167.165 106.278V113.67H168.733C171.043 113.67 172.289 112.242 172.289 109.932C172.289 107.664 171.057 106.278 168.733 106.278H167.165ZM178.129 115.14C175.987 115.14 174.545 113.586 174.545 111.248C174.545 109.05 176.043 107.44 178.087 107.44C180.299 107.44 181.769 109.232 181.517 111.64H175.987C176.099 113.152 176.855 114.034 178.101 114.034C179.151 114.034 179.879 113.46 180.117 112.494H181.517C181.153 114.146 179.879 115.14 178.129 115.14ZM178.059 108.504C176.925 108.504 176.155 109.316 176.001 110.702H180.019C179.949 109.33 179.207 108.504 178.059 108.504ZM185.53 115.154C183.5 115.154 182.072 113.558 182.072 111.29C182.072 109.05 183.528 107.44 185.53 107.44C187.364 107.44 188.694 108.658 188.96 110.59H187.476C187.322 109.4 186.58 108.686 185.544 108.686C184.326 108.686 183.528 109.722 183.528 111.29C183.528 112.872 184.326 113.894 185.544 113.894C186.594 113.894 187.322 113.194 187.49 111.99H188.96C188.708 113.95 187.392 115.154 185.53 115.154ZM191.517 115H190.103V104.948H191.517V110.898L194.695 107.58H196.361L192.931 111.178L196.683 115H194.863L191.517 111.486V115ZM199.315 114.398C199.315 115.728 198.265 116.764 196.725 116.792V115.994C197.635 115.966 198.251 115.476 198.335 114.79C198.209 114.832 198.125 114.846 198.027 114.846C197.495 114.846 197.103 114.412 197.103 113.894C197.103 113.292 197.551 112.9 198.125 112.9C198.895 112.9 199.315 113.46 199.315 114.398ZM66.1706 129.116C66.1706 130.95 64.8266 132 62.7406 132H59.0586V121.948H62.5446C64.5746 121.948 65.7926 122.886 65.7926 124.58C65.7926 125.532 65.2186 126.344 64.2526 126.764C65.4986 127.114 66.1706 127.968 66.1706 129.116ZM62.4466 123.18H60.4726V126.204H62.4466C63.6646 126.204 64.3226 125.63 64.3226 124.692C64.3226 123.754 63.6646 123.18 62.4466 123.18ZM62.6426 127.436H60.4726V130.768H62.6426C63.9586 130.768 64.7006 130.138 64.7006 129.074C64.7006 128.052 63.9586 127.436 62.6426 127.436ZM68.9674 128.206V132H67.5534V124.58H68.8694V126.148C69.3874 125.126 70.5074 124.482 71.7254 124.482V125.952C70.1294 125.868 68.9674 126.568 68.9674 128.206ZM77.0584 132V130.852C76.5964 131.678 75.7704 132.14 74.6784 132.14C73.1384 132.14 72.1304 131.258 72.1304 129.9C72.1304 128.444 73.2924 127.688 75.5044 127.688C75.9384 127.688 76.2884 127.702 76.8904 127.772V127.226C76.8904 126.162 76.3164 125.56 75.3364 125.56C74.3004 125.56 73.6704 126.176 73.6284 127.212H72.3404C72.4104 125.546 73.6004 124.44 75.3364 124.44C77.1704 124.44 78.2344 125.476 78.2344 127.24V132H77.0584ZM73.4744 129.858C73.4744 130.628 74.0484 131.132 74.9584 131.132C76.1484 131.132 76.8904 130.39 76.8904 129.256V128.654C76.3444 128.584 75.9524 128.57 75.5884 128.57C74.1744 128.57 73.4744 128.99 73.4744 129.858ZM81.2589 127.814V132H79.8449V124.58H81.1609V125.812C81.6649 124.986 82.5049 124.44 83.5269 124.44C85.0529 124.44 86.0609 125.42 86.0609 127.198V132H84.6469V127.674C84.6469 126.4 84.0869 125.686 83.0369 125.686C82.0709 125.686 81.2589 126.498 81.2589 127.814ZM87.1267 128.29C87.1267 126.036 88.4147 124.44 90.4167 124.44C91.4107 124.44 92.2787 124.944 92.7967 125.854V121.948H94.2107V132H92.8947V130.67C92.3627 131.608 91.4667 132.14 90.4167 132.14C88.4147 132.14 87.1267 130.516 87.1267 128.29ZM88.5967 128.29C88.5967 129.942 89.4647 130.88 90.6967 130.88C91.9007 130.88 92.7967 129.9 92.7967 128.262C92.7967 126.596 91.8727 125.686 90.6967 125.686C89.4647 125.686 88.5967 126.61 88.5967 128.29ZM97.6182 122.858C97.6182 123.39 97.1982 123.796 96.5962 123.796C95.9942 123.796 95.5602 123.39 95.5602 122.858C95.5602 122.312 95.9942 121.92 96.5962 121.92C97.1982 121.92 97.6182 122.312 97.6182 122.858ZM97.3102 132H95.8962V124.58H97.3102V132ZM100.407 127.814V132H98.9932V124.58H100.309V125.812C100.813 124.986 101.653 124.44 102.675 124.44C104.201 124.44 105.209 125.42 105.209 127.198V132H103.795V127.674C103.795 126.4 103.235 125.686 102.185 125.686C101.219 125.686 100.407 126.498 100.407 127.814ZM109.775 134.856C107.829 134.856 106.569 133.82 106.485 132.14H107.857C107.941 133.176 108.613 133.736 109.761 133.736C111.035 133.736 111.707 133.05 111.707 131.776V130.432C111.287 131.328 110.447 131.846 109.439 131.846C107.591 131.846 106.275 130.32 106.275 128.136C106.275 125.924 107.535 124.44 109.397 124.44C110.461 124.44 111.301 124.958 111.805 125.896V124.58H113.121V131.748C113.121 133.694 111.875 134.856 109.775 134.856ZM107.703 128.136C107.703 129.676 108.459 130.614 109.691 130.614C110.895 130.614 111.707 129.648 111.707 128.178C111.707 126.638 110.909 125.658 109.691 125.658C108.473 125.658 107.703 126.61 107.703 128.136ZM121.938 132.21C119.138 132.21 116.968 129.928 116.968 126.96C116.968 124.006 119.138 121.738 121.938 121.738C124.458 121.738 126.474 123.418 126.852 125.896H125.214C124.934 124.272 123.618 123.124 121.952 123.124C119.964 123.124 118.564 124.734 118.564 126.96C118.564 129.214 119.964 130.824 121.952 130.824C123.618 130.824 124.934 129.662 125.214 128.038H126.852C126.474 130.53 124.458 132.21 121.938 132.21ZM131.169 132.14C129.069 132.14 127.529 130.488 127.529 128.29C127.529 126.092 129.069 124.44 131.169 124.44C133.269 124.44 134.809 126.092 134.809 128.29C134.809 130.488 133.269 132.14 131.169 132.14ZM131.169 130.894C132.387 130.894 133.353 129.914 133.353 128.29C133.353 126.666 132.387 125.7 131.169 125.7C129.951 125.7 128.999 126.666 128.999 128.29C128.999 129.914 129.951 130.894 131.169 130.894ZM137.398 132H135.97V121.948H137.398V132ZM140.509 132H139.081V121.948H140.509V132ZM146.685 132V130.852C146.223 131.678 145.397 132.14 144.305 132.14C142.765 132.14 141.757 131.258 141.757 129.9C141.757 128.444 142.919 127.688 145.131 127.688C145.565 127.688 145.915 127.702 146.517 127.772V127.226C146.517 126.162 145.943 125.56 144.963 125.56C143.927 125.56 143.297 126.176 143.255 127.212H141.967C142.037 125.546 143.227 124.44 144.963 124.44C146.797 124.44 147.861 125.476 147.861 127.24V132H146.685ZM143.101 129.858C143.101 130.628 143.675 131.132 144.585 131.132C145.775 131.132 146.517 130.39 146.517 129.256V128.654C145.971 128.584 145.579 128.57 145.215 128.57C143.801 128.57 143.101 128.99 143.101 129.858ZM153.59 130.628V131.874C153.156 132.07 152.778 132.14 152.33 132.14C150.958 132.14 150.006 131.398 150.006 129.76V125.784H148.368V124.58H150.006V122.382H151.42V124.58H153.66V125.784H151.42V129.438C151.42 130.46 151.91 130.824 152.666 130.824C153.002 130.824 153.296 130.768 153.59 130.628ZM157.576 132.14C155.434 132.14 153.992 130.586 153.992 128.248C153.992 126.05 155.49 124.44 157.534 124.44C159.746 124.44 161.216 126.232 160.964 128.64H155.434C155.546 130.152 156.302 131.034 157.548 131.034C158.598 131.034 159.326 130.46 159.564 129.494H160.964C160.6 131.146 159.326 132.14 157.576 132.14ZM157.506 125.504C156.372 125.504 155.602 126.316 155.448 127.702H159.466C159.396 126.33 158.654 125.504 157.506 125.504ZM163.601 128.206V132H162.187V124.58H163.503V126.148C164.021 125.126 165.141 124.482 166.359 124.482V125.952C164.763 125.868 163.601 126.568 163.601 128.206ZM171.692 132V130.852C171.23 131.678 170.404 132.14 169.312 132.14C167.772 132.14 166.764 131.258 166.764 129.9C166.764 128.444 167.926 127.688 170.138 127.688C170.572 127.688 170.922 127.702 171.524 127.772V127.226C171.524 126.162 170.95 125.56 169.97 125.56C168.934 125.56 168.304 126.176 168.262 127.212H166.974C167.044 125.546 168.234 124.44 169.97 124.44C171.804 124.44 172.868 125.476 172.868 127.24V132H171.692ZM168.108 129.858C168.108 130.628 168.682 131.132 169.592 131.132C170.782 131.132 171.524 130.39 171.524 129.256V128.654C170.978 128.584 170.586 128.57 170.222 128.57C168.808 128.57 168.108 128.99 168.108 129.858ZM175.907 132H174.479V121.948H175.907V132ZM183.47 129.788C183.47 131.244 182.336 132.14 180.362 132.14C178.402 132.14 177.24 131.174 177.1 129.578H178.458C178.514 130.502 179.256 131.076 180.39 131.076C181.384 131.076 182.042 130.726 182.042 130.026C182.042 129.41 181.664 129.144 180.74 128.962L179.536 128.738C178.164 128.472 177.394 127.772 177.394 126.652C177.394 125.35 178.528 124.44 180.25 124.44C182.028 124.44 183.232 125.392 183.358 126.918H182C181.916 126.022 181.258 125.504 180.264 125.504C179.368 125.504 178.766 125.882 178.766 126.526C178.766 127.128 179.144 127.408 180.04 127.576L181.3 127.814C182.77 128.08 183.47 128.724 183.47 129.788Z" fill="#1A1A1A"/>
<mask id="path-4-outside-1_0_1" maskUnits="userSpaceOnUse" x="39" y="0" width="164" height="39" fill="black">
<rect fill="white" x="39" width="164" height="39"/>
<path d="M60.442 16.9621L66.0051 26.4034H60.0084L57.4067 30.8224H73.8931L60.442 8L47 30.8224H52.2771L60.442 16.9621Z"/>
<path d="M96.57 30.8224H79.0134L76.4117 26.4035H93.9684L96.57 30.8224Z"/>
<path d="M91.1544 21.6205H73.5978L70.9961 17.2016H88.5528L91.1544 21.6205Z"/>
<path d="M85.5637 12.4189H68.1731L65.5714 8H82.962L85.5637 12.4189Z"/>
<path d="M102.576 8H105.75C107.032 8 108.019 8.31944 108.72 8.94945C109.412 9.57946 109.763 10.5289 109.763 11.8067V13.5547C109.763 14.8236 109.412 15.7731 108.72 16.4031C108.029 17.0331 107.041 17.3437 105.75 17.3437H102.576V8ZM104.071 16.0304H105.759C106.599 16.0304 107.226 15.8263 107.632 15.4182C108.038 15.01 108.241 14.3977 108.241 13.5902V11.7534C108.241 10.9371 108.038 10.3248 107.632 9.92553C107.226 9.52622 106.599 9.32213 105.759 9.32213H104.071V16.0304Z"/>
<path d="M111.267 17.3348V8H117.383V9.30439H112.77V11.9842H116.996V13.2885H112.77V16.0215H117.457V17.3259H111.276L111.267 17.3348Z"/>
<path d="M121.111 17.3348L118.408 8H119.957L122.31 16.4297H122.495L124.838 8H126.388L123.694 17.3348H121.101H121.111Z"/>
<path d="M127.615 17.3348V8H129.109V17.3348H127.615Z"/>
<path d="M133.335 17.3348V9.30439H130.355V8H137.809V9.30439H134.829V17.3348H133.335Z"/>
<path d="M137.459 17.3348L140.236 8H142.865L145.624 17.3348H144.083L143.446 15.1342H139.645L139.009 17.3348H137.459ZM140.024 13.8032H143.077L141.666 8.89621H141.444L140.033 13.8032H140.024Z"/>
<path d="M102.576 30.8225V21.4877H105.75C107.032 21.4877 108.019 21.8071 108.72 22.4371C109.412 23.0672 109.763 24.0166 109.763 25.2855V27.0336C109.763 28.3025 109.422 29.2519 108.72 29.8819C108.029 30.5119 107.041 30.8225 105.759 30.8225H102.576ZM104.08 29.5181H105.768C106.608 29.5181 107.235 29.314 107.641 28.9058C108.047 28.4977 108.25 27.8854 108.25 27.0779V25.2411C108.25 24.4248 108.047 23.8125 107.641 23.4132C107.235 23.0139 106.608 22.8098 105.768 22.8098H104.08V29.5181Z"/>
<path d="M111.276 30.8225V21.4877H117.383V22.7921H112.771V25.4718H116.996V26.7762H112.771V29.5092H117.457V30.8136H111.276V30.8225Z"/>
<path d="M121.12 30.8136L118.417 21.4787H119.967L122.329 29.8996H122.513L124.856 21.4699H126.406L123.722 30.8047H121.129L121.12 30.8136Z"/>
<path d="M127.615 30.8136V21.4788H133.722V22.7832H129.109V25.4629H133.335V26.7673H129.109V29.5003H133.796V30.8047H127.615V30.8136Z"/>
<path d="M135.134 30.8136V21.4788H136.628V29.5092H141.306V30.8136H135.134Z"/>
<path d="M146.066 31C144.876 31 143.926 30.6806 143.225 30.0328C142.524 29.385 142.173 28.4622 142.173 27.2377V25.0548C142.173 23.8392 142.524 22.9075 143.225 22.2597C143.926 21.612 144.876 21.2925 146.066 21.2925C147.256 21.2925 148.207 21.612 148.917 22.2597C149.627 22.9075 149.978 23.8392 149.978 25.0548V27.2377C149.978 28.4533 149.627 29.385 148.917 30.0328C148.207 30.6806 147.256 31 146.066 31ZM146.066 29.7045C146.832 29.7045 147.423 29.4915 147.838 29.0567C148.253 28.6219 148.465 28.0363 148.465 27.2909V25.0016C148.465 24.2562 148.253 23.6706 147.838 23.2358C147.423 22.801 146.832 22.588 146.066 22.588C145.301 22.588 144.729 22.801 144.304 23.2358C143.88 23.6706 143.668 24.2562 143.668 25.0016V27.2909C143.668 28.0363 143.88 28.6308 144.304 29.0567C144.729 29.4915 145.319 29.7045 146.066 29.7045Z"/>
<path d="M151.51 30.8136V21.4788H155.357C155.947 21.4788 156.473 21.5941 156.944 21.816C157.414 22.0467 157.774 22.3661 158.041 22.7743C158.309 23.1913 158.438 23.6794 158.438 24.265V24.4425C158.438 25.0193 158.3 25.5162 158.032 25.9332C157.755 26.3503 157.396 26.6697 156.934 26.8916C156.473 27.1134 155.947 27.2287 155.366 27.2287H153.013V30.8136H151.51ZM153.004 25.9155H155.209C155.735 25.9155 156.159 25.7824 156.473 25.5162C156.787 25.25 156.944 24.8862 156.944 24.4247V24.2916C156.944 23.8214 156.787 23.4487 156.473 23.1825C156.159 22.9163 155.735 22.7832 155.209 22.7832H153.004V25.9155Z"/>
<path d="M159.702 21.4699H162.516L164.638 29.8464H164.859L166.981 21.4699H169.795V30.8047H168.338V22.4814H168.116L166.013 30.8047H163.494L161.381 22.4903H161.16V30.8136H159.702V21.4699Z"/>
<path d="M171.566 30.8047V21.4699H177.674V22.7743H173.061V25.454H177.286V26.7584H173.061V29.4914H177.748V30.7958H171.566V30.8047Z"/>
<path d="M179.085 30.8046V21.4698H181.964L184.602 29.8374H184.824V21.461H186.309V30.7958H183.422L180.783 22.4104H180.562V30.7958H179.076L179.085 30.8046Z"/>
<path d="M190.526 30.7958V22.7654H187.546V21.461H195V22.7654H192.02V30.7958H190.526Z"/>
</mask>
<path d="M60.442 16.9621L66.0051 26.4034H60.0084L57.4067 30.8224H73.8931L60.442 8L47 30.8224H52.2771L60.442 16.9621Z" fill="#1A1A1A"/>
<path d="M96.57 30.8224H79.0134L76.4117 26.4035H93.9684L96.57 30.8224Z" fill="#1A1A1A"/>
<path d="M91.1544 21.6205H73.5978L70.9961 17.2016H88.5528L91.1544 21.6205Z" fill="#1A1A1A"/>
<path d="M85.5637 12.4189H68.1731L65.5714 8H82.962L85.5637 12.4189Z" fill="#1A1A1A"/>
<path d="M102.576 8H105.75C107.032 8 108.019 8.31944 108.72 8.94945C109.412 9.57946 109.763 10.5289 109.763 11.8067V13.5547C109.763 14.8236 109.412 15.7731 108.72 16.4031C108.029 17.0331 107.041 17.3437 105.75 17.3437H102.576V8ZM104.071 16.0304H105.759C106.599 16.0304 107.226 15.8263 107.632 15.4182C108.038 15.01 108.241 14.3977 108.241 13.5902V11.7534C108.241 10.9371 108.038 10.3248 107.632 9.92553C107.226 9.52622 106.599 9.32213 105.759 9.32213H104.071V16.0304Z" fill="#1A1A1A"/>
<path d="M111.267 17.3348V8H117.383V9.30439H112.77V11.9842H116.996V13.2885H112.77V16.0215H117.457V17.3259H111.276L111.267 17.3348Z" fill="#1A1A1A"/>
<path d="M121.111 17.3348L118.408 8H119.957L122.31 16.4297H122.495L124.838 8H126.388L123.694 17.3348H121.101H121.111Z" fill="#1A1A1A"/>
<path d="M127.615 17.3348V8H129.109V17.3348H127.615Z" fill="#1A1A1A"/>
<path d="M133.335 17.3348V9.30439H130.355V8H137.809V9.30439H134.829V17.3348H133.335Z" fill="#1A1A1A"/>
<path d="M137.459 17.3348L140.236 8H142.865L145.624 17.3348H144.083L143.446 15.1342H139.645L139.009 17.3348H137.459ZM140.024 13.8032H143.077L141.666 8.89621H141.444L140.033 13.8032H140.024Z" fill="#1A1A1A"/>
<path d="M102.576 30.8225V21.4877H105.75C107.032 21.4877 108.019 21.8071 108.72 22.4371C109.412 23.0672 109.763 24.0166 109.763 25.2855V27.0336C109.763 28.3025 109.422 29.2519 108.72 29.8819C108.029 30.5119 107.041 30.8225 105.759 30.8225H102.576ZM104.08 29.5181H105.768C106.608 29.5181 107.235 29.314 107.641 28.9058C108.047 28.4977 108.25 27.8854 108.25 27.0779V25.2411C108.25 24.4248 108.047 23.8125 107.641 23.4132C107.235 23.0139 106.608 22.8098 105.768 22.8098H104.08V29.5181Z" fill="#1A1A1A"/>
<path d="M111.276 30.8225V21.4877H117.383V22.7921H112.771V25.4718H116.996V26.7762H112.771V29.5092H117.457V30.8136H111.276V30.8225Z" fill="#1A1A1A"/>
<path d="M121.12 30.8136L118.417 21.4787H119.967L122.329 29.8996H122.513L124.856 21.4699H126.406L123.722 30.8047H121.129L121.12 30.8136Z" fill="#1A1A1A"/>
<path d="M127.615 30.8136V21.4788H133.722V22.7832H129.109V25.4629H133.335V26.7673H129.109V29.5003H133.796V30.8047H127.615V30.8136Z" fill="#1A1A1A"/>
<path d="M135.134 30.8136V21.4788H136.628V29.5092H141.306V30.8136H135.134Z" fill="#1A1A1A"/>
<path d="M146.066 31C144.876 31 143.926 30.6806 143.225 30.0328C142.524 29.385 142.173 28.4622 142.173 27.2377V25.0548C142.173 23.8392 142.524 22.9075 143.225 22.2597C143.926 21.612 144.876 21.2925 146.066 21.2925C147.256 21.2925 148.207 21.612 148.917 22.2597C149.627 22.9075 149.978 23.8392 149.978 25.0548V27.2377C149.978 28.4533 149.627 29.385 148.917 30.0328C148.207 30.6806 147.256 31 146.066 31ZM146.066 29.7045C146.832 29.7045 147.423 29.4915 147.838 29.0567C148.253 28.6219 148.465 28.0363 148.465 27.2909V25.0016C148.465 24.2562 148.253 23.6706 147.838 23.2358C147.423 22.801 146.832 22.588 146.066 22.588C145.301 22.588 144.729 22.801 144.304 23.2358C143.88 23.6706 143.668 24.2562 143.668 25.0016V27.2909C143.668 28.0363 143.88 28.6308 144.304 29.0567C144.729 29.4915 145.319 29.7045 146.066 29.7045Z" fill="#1A1A1A"/>
<path d="M151.51 30.8136V21.4788H155.357C155.947 21.4788 156.473 21.5941 156.944 21.816C157.414 22.0467 157.774 22.3661 158.041 22.7743C158.309 23.1913 158.438 23.6794 158.438 24.265V24.4425C158.438 25.0193 158.3 25.5162 158.032 25.9332C157.755 26.3503 157.396 26.6697 156.934 26.8916C156.473 27.1134 155.947 27.2287 155.366 27.2287H153.013V30.8136H151.51ZM153.004 25.9155H155.209C155.735 25.9155 156.159 25.7824 156.473 25.5162C156.787 25.25 156.944 24.8862 156.944 24.4247V24.2916C156.944 23.8214 156.787 23.4487 156.473 23.1825C156.159 22.9163 155.735 22.7832 155.209 22.7832H153.004V25.9155Z" fill="#1A1A1A"/>
<path d="M159.702 21.4699H162.516L164.638 29.8464H164.859L166.981 21.4699H169.795V30.8047H168.338V22.4814H168.116L166.013 30.8047H163.494L161.381 22.4903H161.16V30.8136H159.702V21.4699Z" fill="#1A1A1A"/>
<path d="M171.566 30.8047V21.4699H177.674V22.7743H173.061V25.454H177.286V26.7584H173.061V29.4914H177.748V30.7958H171.566V30.8047Z" fill="#1A1A1A"/>
<path d="M179.085 30.8046V21.4698H181.964L184.602 29.8374H184.824V21.461H186.309V30.7958H183.422L180.783 22.4104H180.562V30.7958H179.076L179.085 30.8046Z" fill="#1A1A1A"/>
<path d="M190.526 30.7958V22.7654H187.546V21.461H195V22.7654H192.02V30.7958H190.526Z" fill="#1A1A1A"/>
<path d="M60.442 16.9621L66.0051 26.4034H60.0084L57.4067 30.8224H73.8931L60.442 8L47 30.8224H52.2771L60.442 16.9621Z" stroke="#E6E2DE" stroke-width="16" stroke-linejoin="round" mask="url(#path-4-outside-1_0_1)"/>
<path d="M96.57 30.8224H79.0134L76.4117 26.4035H93.9684L96.57 30.8224Z" stroke="#E6E2DE" stroke-width="16" stroke-linejoin="round" mask="url(#path-4-outside-1_0_1)"/>
<path d="M91.1544 21.6205H73.5978L70.9961 17.2016H88.5528L91.1544 21.6205Z" stroke="#E6E2DE" stroke-width="16" stroke-linejoin="round" mask="url(#path-4-outside-1_0_1)"/>
<path d="M85.5637 12.4189H68.1731L65.5714 8H82.962L85.5637 12.4189Z" stroke="#E6E2DE" stroke-width="16" stroke-linejoin="round" mask="url(#path-4-outside-1_0_1)"/>
<path d="M102.576 8H105.75C107.032 8 108.019 8.31944 108.72 8.94945C109.412 9.57946 109.763 10.5289 109.763 11.8067V13.5547C109.763 14.8236 109.412 15.7731 108.72 16.4031C108.029 17.0331 107.041 17.3437 105.75 17.3437H102.576V8ZM104.071 16.0304H105.759C106.599 16.0304 107.226 15.8263 107.632 15.4182C108.038 15.01 108.241 14.3977 108.241 13.5902V11.7534C108.241 10.9371 108.038 10.3248 107.632 9.92553C107.226 9.52622 106.599 9.32213 105.759 9.32213H104.071V16.0304Z" stroke="#E6E2DE" stroke-width="16" stroke-linejoin="round" mask="url(#path-4-outside-1_0_1)"/>
<path d="M111.267 17.3348V8H117.383V9.30439H112.77V11.9842H116.996V13.2885H112.77V16.0215H117.457V17.3259H111.276L111.267 17.3348Z" stroke="#E6E2DE" stroke-width="16" stroke-linejoin="round" mask="url(#path-4-outside-1_0_1)"/>
<path d="M121.111 17.3348L118.408 8H119.957L122.31 16.4297H122.495L124.838 8H126.388L123.694 17.3348H121.101H121.111Z" stroke="#E6E2DE" stroke-width="16" stroke-linejoin="round" mask="url(#path-4-outside-1_0_1)"/>
<path d="M127.615 17.3348V8H129.109V17.3348H127.615Z" stroke="#E6E2DE" stroke-width="16" stroke-linejoin="round" mask="url(#path-4-outside-1_0_1)"/>
<path d="M133.335 17.3348V9.30439H130.355V8H137.809V9.30439H134.829V17.3348H133.335Z" stroke="#E6E2DE" stroke-width="16" stroke-linejoin="round" mask="url(#path-4-outside-1_0_1)"/>
<path d="M137.459 17.3348L140.236 8H142.865L145.624 17.3348H144.083L143.446 15.1342H139.645L139.009 17.3348H137.459ZM140.024 13.8032H143.077L141.666 8.89621H141.444L140.033 13.8032H140.024Z" stroke="#E6E2DE" stroke-width="16" stroke-linejoin="round" mask="url(#path-4-outside-1_0_1)"/>
<path d="M102.576 30.8225V21.4877H105.75C107.032 21.4877 108.019 21.8071 108.72 22.4371C109.412 23.0672 109.763 24.0166 109.763 25.2855V27.0336C109.763 28.3025 109.422 29.2519 108.72 29.8819C108.029 30.5119 107.041 30.8225 105.759 30.8225H102.576ZM104.08 29.5181H105.768C106.608 29.5181 107.235 29.314 107.641 28.9058C108.047 28.4977 108.25 27.8854 108.25 27.0779V25.2411C108.25 24.4248 108.047 23.8125 107.641 23.4132C107.235 23.0139 106.608 22.8098 105.768 22.8098H104.08V29.5181Z" stroke="#E6E2DE" stroke-width="16" stroke-linejoin="round" mask="url(#path-4-outside-1_0_1)"/>
<path d="M111.276 30.8225V21.4877H117.383V22.7921H112.771V25.4718H116.996V26.7762H112.771V29.5092H117.457V30.8136H111.276V30.8225Z" stroke="#E6E2DE" stroke-width="16" stroke-linejoin="round" mask="url(#path-4-outside-1_0_1)"/>
<path d="M121.12 30.8136L118.417 21.4787H119.967L122.329 29.8996H122.513L124.856 21.4699H126.406L123.722 30.8047H121.129L121.12 30.8136Z" stroke="#E6E2DE" stroke-width="16" stroke-linejoin="round" mask="url(#path-4-outside-1_0_1)"/>
<path d="M127.615 30.8136V21.4788H133.722V22.7832H129.109V25.4629H133.335V26.7673H129.109V29.5003H133.796V30.8047H127.615V30.8136Z" stroke="#E6E2DE" stroke-width="16" stroke-linejoin="round" mask="url(#path-4-outside-1_0_1)"/>
<path d="M135.134 30.8136V21.4788H136.628V29.5092H141.306V30.8136H135.134Z" stroke="#E6E2DE" stroke-width="16" stroke-linejoin="round" mask="url(#path-4-outside-1_0_1)"/>
<path d="M146.066 31C144.876 31 143.926 30.6806 143.225 30.0328C142.524 29.385 142.173 28.4622 142.173 27.2377V25.0548C142.173 23.8392 142.524 22.9075 143.225 22.2597C143.926 21.612 144.876 21.2925 146.066 21.2925C147.256 21.2925 148.207 21.612 148.917 22.2597C149.627 22.9075 149.978 23.8392 149.978 25.0548V27.2377C149.978 28.4533 149.627 29.385 148.917 30.0328C148.207 30.6806 147.256 31 146.066 31ZM146.066 29.7045C146.832 29.7045 147.423 29.4915 147.838 29.0567C148.253 28.6219 148.465 28.0363 148.465 27.2909V25.0016C148.465 24.2562 148.253 23.6706 147.838 23.2358C147.423 22.801 146.832 22.588 146.066 22.588C145.301 22.588 144.729 22.801 144.304 23.2358C143.88 23.6706 143.668 24.2562 143.668 25.0016V27.2909C143.668 28.0363 143.88 28.6308 144.304 29.0567C144.729 29.4915 145.319 29.7045 146.066 29.7045Z" stroke="#E6E2DE" stroke-width="16" stroke-linejoin="round" mask="url(#path-4-outside-1_0_1)"/>
<path d="M151.51 30.8136V21.4788H155.357C155.947 21.4788 156.473 21.5941 156.944 21.816C157.414 22.0467 157.774 22.3661 158.041 22.7743C158.309 23.1913 158.438 23.6794 158.438 24.265V24.4425C158.438 25.0193 158.3 25.5162 158.032 25.9332C157.755 26.3503 157.396 26.6697 156.934 26.8916C156.473 27.1134 155.947 27.2287 155.366 27.2287H153.013V30.8136H151.51ZM153.004 25.9155H155.209C155.735 25.9155 156.159 25.7824 156.473 25.5162C156.787 25.25 156.944 24.8862 156.944 24.4247V24.2916C156.944 23.8214 156.787 23.4487 156.473 23.1825C156.159 22.9163 155.735 22.7832 155.209 22.7832H153.004V25.9155Z" stroke="#E6E2DE" stroke-width="16" stroke-linejoin="round" mask="url(#path-4-outside-1_0_1)"/>
<path d="M159.702 21.4699H162.516L164.638 29.8464H164.859L166.981 21.4699H169.795V30.8047H168.338V22.4814H168.116L166.013 30.8047H163.494L161.381 22.4903H161.16V30.8136H159.702V21.4699Z" stroke="#E6E2DE" stroke-width="16" stroke-linejoin="round" mask="url(#path-4-outside-1_0_1)"/>
<path d="M171.566 30.8047V21.4699H177.674V22.7743H173.061V25.454H177.286V26.7584H173.061V29.4914H177.748V30.7958H171.566V30.8047Z" stroke="#E6E2DE" stroke-width="16" stroke-linejoin="round" mask="url(#path-4-outside-1_0_1)"/>
<path d="M179.085 30.8046V21.4698H181.964L184.602 29.8374H184.824V21.461H186.309V30.7958H183.422L180.783 22.4104H180.562V30.7958H179.076L179.085 30.8046Z" stroke="#E6E2DE" stroke-width="16" stroke-linejoin="round" mask="url(#path-4-outside-1_0_1)"/>
<path d="M190.526 30.7958V22.7654H187.546V21.461H195V22.7654H192.02V30.7958H190.526Z" stroke="#E6E2DE" stroke-width="16" stroke-linejoin="round" mask="url(#path-4-outside-1_0_1)"/>
</svg>
