<svg width="242" height="240" viewBox="0 0 242 240" fill="none" xmlns="http://www.w3.org/2000/svg">
<rect y="80" width="242" height="160" rx="12" fill="#E6E2DE"/>
<path d="M50.3818 155H46.3018V143.512H50.3818C54.0298 143.512 56.2378 145.848 56.2378 149.192C56.2378 152.536 53.9498 155 50.3818 155ZM48.7338 145.608V152.904H50.2538C52.5418 152.904 53.7418 151.576 53.7418 149.192C53.7418 146.904 52.5418 145.608 50.2538 145.608H48.7338ZM61.2868 155.144C58.7268 155.144 57.0148 153.368 57.0148 150.696C57.0148 148.152 58.7908 146.296 61.2548 146.296C63.9588 146.296 65.7508 148.488 65.3508 151.272H59.2868C59.4308 152.664 60.1028 153.432 61.2388 153.432C62.2148 153.432 62.8708 152.952 63.1268 152.104H65.3348C64.8548 154.04 63.3668 155.144 61.2868 155.144ZM61.2068 147.928C60.1668 147.928 59.5108 148.6 59.3188 149.864H62.9988C62.9348 148.68 62.2628 147.928 61.2068 147.928ZM74.0796 146.456L70.9436 155H68.5116L65.3596 146.456H67.7596L69.7916 152.472L71.8396 146.456H74.0796ZM77.4714 144.472C77.4714 145.224 76.8634 145.784 75.9834 145.784C75.1194 145.784 74.5114 145.224 74.5114 144.472C74.5114 143.688 75.1194 143.128 75.9834 143.128C76.8634 143.128 77.4714 143.688 77.4714 144.472ZM77.1194 155H74.8954V146.456H77.1194V155ZM84.2506 152.84V154.776C83.7066 155.048 83.1946 155.16 82.5386 155.16C80.7786 155.16 79.6746 154.152 79.6746 152.232V148.36H77.9466V146.456H79.6746V143.928H81.8826V146.456H84.3306V148.36H81.8826V151.72C81.8826 152.712 82.3306 153.112 83.1306 153.112C83.5466 153.112 83.9306 153.016 84.2506 152.84ZM90.6166 155V153.944C90.0566 154.744 89.2086 155.16 88.0406 155.16C86.2646 155.16 85.0806 154.12 85.0806 152.52C85.0806 150.856 86.4246 149.96 88.9206 149.96C89.4006 149.96 89.8166 149.992 90.3446 150.056V149.544C90.3446 148.584 89.8006 148.024 88.8726 148.024C87.9126 148.024 87.3366 148.584 87.2566 149.544H85.2566C85.3846 147.576 86.8086 146.296 88.8726 146.296C91.1126 146.296 92.4246 147.528 92.4246 149.624V155H90.6166ZM87.1766 152.456C87.1766 153.176 87.6886 153.624 88.5206 153.624C89.6566 153.624 90.3446 153 90.3446 152.008V151.4C89.8166 151.32 89.4486 151.288 89.0646 151.288C87.8006 151.288 87.1766 151.688 87.1766 152.456ZM101.637 155H97.5568V143.512H101.637C105.285 143.512 107.493 145.848 107.493 149.192C107.493 152.536 105.205 155 101.637 155ZM99.9888 145.608V152.904H101.509C103.797 152.904 104.997 151.576 104.997 149.192C104.997 146.904 103.797 145.608 101.509 145.608H99.9888ZM112.542 155.144C109.982 155.144 108.27 153.368 108.27 150.696C108.27 148.152 110.046 146.296 112.51 146.296C115.214 146.296 117.006 148.488 116.606 151.272H110.542C110.686 152.664 111.358 153.432 112.494 153.432C113.47 153.432 114.126 152.952 114.382 152.104H116.59C116.11 154.04 114.622 155.144 112.542 155.144ZM112.462 147.928C111.422 147.928 110.766 148.6 110.574 149.864H114.254C114.19 148.68 113.518 147.928 112.462 147.928ZM125.335 146.456L122.199 155H119.767L116.615 146.456H119.015L121.047 152.472L123.095 146.456H125.335ZM129.566 155.144C127.006 155.144 125.294 153.368 125.294 150.696C125.294 148.152 127.07 146.296 129.534 146.296C132.238 146.296 134.03 148.488 133.63 151.272H127.566C127.71 152.664 128.382 153.432 129.518 153.432C130.494 153.432 131.15 152.952 131.406 152.104H133.614C133.134 154.04 131.646 155.144 129.566 155.144ZM129.486 147.928C128.446 147.928 127.79 148.6 127.598 149.864H131.278C131.214 148.68 130.542 147.928 129.486 147.928ZM137.199 155H134.959V143.512H137.199V155ZM142.81 155.16C140.33 155.16 138.474 153.208 138.474 150.728C138.474 148.232 140.33 146.296 142.81 146.296C145.29 146.296 147.146 148.232 147.146 150.728C147.146 153.208 145.29 155.16 142.81 155.16ZM142.81 153.192C143.914 153.192 144.858 152.312 144.858 150.728C144.858 149.144 143.914 148.28 142.81 148.28C141.706 148.28 140.762 149.144 140.762 150.728C140.762 152.312 141.706 153.192 142.81 153.192ZM156.933 150.728C156.933 153.256 155.445 155.16 153.141 155.16C152.133 155.16 151.269 154.728 150.629 153.896V158.088H148.405V146.456H150.453V147.704C151.109 146.792 152.053 146.296 153.141 146.296C155.445 146.296 156.933 148.216 156.933 150.728ZM154.645 150.728C154.645 149.128 153.733 148.264 152.645 148.264C151.557 148.264 150.645 149.112 150.645 150.728C150.645 152.344 151.557 153.176 152.645 153.176C153.733 153.176 154.645 152.36 154.645 150.728ZM160.422 155H158.198V146.456H160.246V147.672C160.87 146.808 161.67 146.296 162.806 146.296C163.974 146.296 164.87 146.84 165.302 147.816C165.974 146.872 166.838 146.296 168.118 146.296C169.846 146.296 171.014 147.432 171.014 149.48V155H168.806V150.184C168.806 148.984 168.294 148.264 167.318 148.264C166.438 148.264 165.718 148.952 165.718 150.232V155H163.51V150.184C163.51 148.984 162.998 148.264 162.022 148.264C161.126 148.264 160.422 148.952 160.422 150.232V155ZM176.469 155.144C173.909 155.144 172.197 153.368 172.197 150.696C172.197 148.152 173.973 146.296 176.437 146.296C179.141 146.296 180.933 148.488 180.533 151.272H174.469C174.613 152.664 175.285 153.432 176.421 153.432C177.397 153.432 178.053 152.952 178.309 152.104H180.517C180.037 154.04 178.549 155.144 176.469 155.144ZM176.389 147.928C175.349 147.928 174.693 148.6 174.501 149.864H178.181C178.117 148.68 177.445 147.928 176.389 147.928ZM184.086 150.344V155H181.862V146.456H183.91V147.672C184.534 146.824 185.414 146.296 186.534 146.296C188.246 146.296 189.43 147.416 189.43 149.48V155H187.222V150.232C187.222 148.968 186.726 148.264 185.718 148.264C184.838 148.264 184.086 148.968 184.086 150.344ZM196.436 152.84V154.776C195.892 155.048 195.38 155.16 194.724 155.16C192.964 155.16 191.86 154.152 191.86 152.232V148.36H190.132V146.456H191.86V143.928H194.068V146.456H196.516V148.36H194.068V151.72C194.068 152.712 194.516 153.112 195.316 153.112C195.732 153.112 196.116 153.016 196.436 152.84Z" fill="#1A1A1A"/>
<path d="M49.4082 175H43.3182V164.948H44.8582V173.614H49.4082V175ZM53.4307 175.14C51.3307 175.14 49.7907 173.488 49.7907 171.29C49.7907 169.092 51.3307 167.44 53.4307 167.44C55.5307 167.44 57.0707 169.092 57.0707 171.29C57.0707 173.488 55.5307 175.14 53.4307 175.14ZM53.4307 173.894C54.6487 173.894 55.6147 172.914 55.6147 171.29C55.6147 169.666 54.6487 168.7 53.4307 168.7C52.2127 168.7 51.2607 169.666 51.2607 171.29C51.2607 172.914 52.2127 173.894 53.4307 173.894ZM61.0634 177.856C59.1174 177.856 57.8574 176.82 57.7734 175.14H59.1454C59.2294 176.176 59.9014 176.736 61.0494 176.736C62.3234 176.736 62.9954 176.05 62.9954 174.776V173.432C62.5754 174.328 61.7354 174.846 60.7274 174.846C58.8794 174.846 57.5634 173.32 57.5634 171.136C57.5634 168.924 58.8234 167.44 60.6854 167.44C61.7494 167.44 62.5894 167.958 63.0934 168.896V167.58H64.4094V174.748C64.4094 176.694 63.1634 177.856 61.0634 177.856ZM58.9914 171.136C58.9914 172.676 59.7474 173.614 60.9794 173.614C62.1834 173.614 62.9954 172.648 62.9954 171.178C62.9954 169.638 62.1974 168.658 60.9794 168.658C59.7614 168.658 58.9914 169.61 58.9914 171.136ZM69.1949 175.14C67.0949 175.14 65.5549 173.488 65.5549 171.29C65.5549 169.092 67.0949 167.44 69.1949 167.44C71.2949 167.44 72.8349 169.092 72.8349 171.29C72.8349 173.488 71.2949 175.14 69.1949 175.14ZM69.1949 173.894C70.4129 173.894 71.3789 172.914 71.3789 171.29C71.3789 169.666 70.4129 168.7 69.1949 168.7C67.9769 168.7 67.0249 169.666 67.0249 171.29C67.0249 172.914 67.9769 173.894 69.1949 173.894ZM79.9321 175H76.7541V164.948H79.9321C83.1381 164.948 84.9861 166.992 84.9861 169.932C84.9861 172.83 83.0681 175 79.9321 175ZM78.2941 166.278V173.67H79.8621C82.1721 173.67 83.4181 172.242 83.4181 169.932C83.4181 167.664 82.1861 166.278 79.8621 166.278H78.2941ZM89.2579 175.14C87.1159 175.14 85.6739 173.586 85.6739 171.248C85.6739 169.05 87.1719 167.44 89.2159 167.44C91.4279 167.44 92.8979 169.232 92.6459 171.64H87.1159C87.2279 173.152 87.9839 174.034 89.2299 174.034C90.2799 174.034 91.0079 173.46 91.2459 172.494H92.6459C92.2819 174.146 91.0079 175.14 89.2579 175.14ZM89.1879 168.504C88.0539 168.504 87.2839 169.316 87.1299 170.702H91.1479C91.0779 169.33 90.3359 168.504 89.1879 168.504ZM99.7493 172.788C99.7493 174.244 98.6153 175.14 96.6413 175.14C94.6813 175.14 93.5193 174.174 93.3793 172.578H94.7373C94.7933 173.502 95.5353 174.076 96.6693 174.076C97.6633 174.076 98.3213 173.726 98.3213 173.026C98.3213 172.41 97.9433 172.144 97.0193 171.962L95.8153 171.738C94.4433 171.472 93.6733 170.772 93.6733 169.652C93.6733 168.35 94.8073 167.44 96.5293 167.44C98.3073 167.44 99.5113 168.392 99.6373 169.918H98.2793C98.1953 169.022 97.5373 168.504 96.5433 168.504C95.6473 168.504 95.0453 168.882 95.0453 169.526C95.0453 170.128 95.4233 170.408 96.3193 170.576L97.5793 170.814C99.0493 171.08 99.7493 171.724 99.7493 172.788ZM102.735 165.858C102.735 166.39 102.315 166.796 101.713 166.796C101.111 166.796 100.677 166.39 100.677 165.858C100.677 165.312 101.111 164.92 101.713 164.92C102.315 164.92 102.735 165.312 102.735 165.858ZM102.427 175H101.013V167.58H102.427V175ZM107.078 177.856C105.132 177.856 103.872 176.82 103.788 175.14H105.16C105.244 176.176 105.916 176.736 107.064 176.736C108.338 176.736 109.01 176.05 109.01 174.776V173.432C108.59 174.328 107.75 174.846 106.742 174.846C104.894 174.846 103.578 173.32 103.578 171.136C103.578 168.924 104.838 167.44 106.7 167.44C107.764 167.44 108.604 167.958 109.108 168.896V167.58H110.424V174.748C110.424 176.694 109.178 177.856 107.078 177.856ZM105.006 171.136C105.006 172.676 105.762 173.614 106.994 173.614C108.198 173.614 109.01 172.648 109.01 171.178C109.01 169.638 108.212 168.658 106.994 168.658C105.776 168.658 105.006 169.61 105.006 171.136ZM113.516 170.814V175H112.102V167.58H113.418V168.812C113.922 167.986 114.762 167.44 115.784 167.44C117.31 167.44 118.318 168.42 118.318 170.198V175H116.904V170.674C116.904 169.4 116.344 168.686 115.294 168.686C114.328 168.686 113.516 169.498 113.516 170.814ZM121.833 174.398C121.833 175.728 120.783 176.764 119.243 176.792V175.994C120.153 175.966 120.769 175.476 120.853 174.79C120.727 174.832 120.643 174.846 120.545 174.846C120.013 174.846 119.621 174.412 119.621 173.894C119.621 173.292 120.069 172.9 120.643 172.9C121.413 172.9 121.833 173.46 121.833 174.398ZM133.142 172.116C133.142 173.95 131.798 175 129.712 175H126.03V164.948H129.516C131.546 164.948 132.764 165.886 132.764 167.58C132.764 168.532 132.19 169.344 131.224 169.764C132.47 170.114 133.142 170.968 133.142 172.116ZM129.418 166.18H127.444V169.204H129.418C130.636 169.204 131.294 168.63 131.294 167.692C131.294 166.754 130.636 166.18 129.418 166.18ZM129.614 170.436H127.444V173.768H129.614C130.93 173.768 131.672 173.138 131.672 172.074C131.672 171.052 130.93 170.436 129.614 170.436ZM135.938 171.206V175H134.524V167.58H135.84V169.148C136.358 168.126 137.478 167.482 138.696 167.482V168.952C137.1 168.868 135.938 169.568 135.938 171.206ZM144.03 175V173.852C143.568 174.678 142.742 175.14 141.65 175.14C140.11 175.14 139.102 174.258 139.102 172.9C139.102 171.444 140.264 170.688 142.476 170.688C142.91 170.688 143.26 170.702 143.862 170.772V170.226C143.862 169.162 143.288 168.56 142.308 168.56C141.272 168.56 140.642 169.176 140.6 170.212H139.312C139.382 168.546 140.572 167.44 142.308 167.44C144.142 167.44 145.206 168.476 145.206 170.24V175H144.03ZM140.446 172.858C140.446 173.628 141.02 174.132 141.93 174.132C143.12 174.132 143.862 173.39 143.862 172.256V171.654C143.316 171.584 142.924 171.57 142.56 171.57C141.146 171.57 140.446 171.99 140.446 172.858ZM148.23 170.814V175H146.816V167.58H148.132V168.812C148.636 167.986 149.476 167.44 150.498 167.44C152.024 167.44 153.032 168.42 153.032 170.198V175H151.618V170.674C151.618 169.4 151.058 168.686 150.008 168.686C149.042 168.686 148.23 169.498 148.23 170.814ZM154.098 171.29C154.098 169.036 155.386 167.44 157.388 167.44C158.382 167.44 159.25 167.944 159.768 168.854V164.948H161.182V175H159.866V173.67C159.334 174.608 158.438 175.14 157.388 175.14C155.386 175.14 154.098 173.516 154.098 171.29ZM155.568 171.29C155.568 172.942 156.436 173.88 157.668 173.88C158.872 173.88 159.768 172.9 159.768 171.262C159.768 169.596 158.844 168.686 157.668 168.686C156.436 168.686 155.568 169.61 155.568 171.29ZM168.803 175H165.625V164.948H168.803C172.009 164.948 173.857 166.992 173.857 169.932C173.857 172.83 171.939 175 168.803 175ZM167.165 166.278V173.67H168.733C171.043 173.67 172.289 172.242 172.289 169.932C172.289 167.664 171.057 166.278 168.733 166.278H167.165ZM178.129 175.14C175.987 175.14 174.545 173.586 174.545 171.248C174.545 169.05 176.043 167.44 178.087 167.44C180.299 167.44 181.769 169.232 181.517 171.64H175.987C176.099 173.152 176.855 174.034 178.101 174.034C179.151 174.034 179.879 173.46 180.117 172.494H181.517C181.153 174.146 179.879 175.14 178.129 175.14ZM178.059 168.504C176.925 168.504 176.155 169.316 176.001 170.702H180.019C179.949 169.33 179.207 168.504 178.059 168.504ZM185.53 175.154C183.5 175.154 182.072 173.558 182.072 171.29C182.072 169.05 183.528 167.44 185.53 167.44C187.364 167.44 188.694 168.658 188.96 170.59H187.476C187.322 169.4 186.58 168.686 185.544 168.686C184.326 168.686 183.528 169.722 183.528 171.29C183.528 172.872 184.326 173.894 185.544 173.894C186.594 173.894 187.322 173.194 187.49 171.99H188.96C188.708 173.95 187.392 175.154 185.53 175.154ZM191.517 175H190.103V164.948H191.517V170.898L194.695 167.58H196.361L192.931 171.178L196.683 175H194.863L191.517 171.486V175ZM199.315 174.398C199.315 175.728 198.265 176.764 196.725 176.792V175.994C197.635 175.966 198.251 175.476 198.335 174.79C198.209 174.832 198.125 174.846 198.027 174.846C197.495 174.846 197.103 174.412 197.103 173.894C197.103 173.292 197.551 172.9 198.125 172.9C198.895 172.9 199.315 173.46 199.315 174.398ZM66.1706 189.116C66.1706 190.95 64.8266 192 62.7406 192H59.0586V181.948H62.5446C64.5746 181.948 65.7926 182.886 65.7926 184.58C65.7926 185.532 65.2186 186.344 64.2526 186.764C65.4986 187.114 66.1706 187.968 66.1706 189.116ZM62.4466 183.18H60.4726V186.204H62.4466C63.6646 186.204 64.3226 185.63 64.3226 184.692C64.3226 183.754 63.6646 183.18 62.4466 183.18ZM62.6426 187.436H60.4726V190.768H62.6426C63.9586 190.768 64.7006 190.138 64.7006 189.074C64.7006 188.052 63.9586 187.436 62.6426 187.436ZM68.9674 188.206V192H67.5534V184.58H68.8694V186.148C69.3874 185.126 70.5074 184.482 71.7254 184.482V185.952C70.1294 185.868 68.9674 186.568 68.9674 188.206ZM77.0584 192V190.852C76.5964 191.678 75.7704 192.14 74.6784 192.14C73.1384 192.14 72.1304 191.258 72.1304 189.9C72.1304 188.444 73.2924 187.688 75.5044 187.688C75.9384 187.688 76.2884 187.702 76.8904 187.772V187.226C76.8904 186.162 76.3164 185.56 75.3364 185.56C74.3004 185.56 73.6704 186.176 73.6284 187.212H72.3404C72.4104 185.546 73.6004 184.44 75.3364 184.44C77.1704 184.44 78.2344 185.476 78.2344 187.24V192H77.0584ZM73.4744 189.858C73.4744 190.628 74.0484 191.132 74.9584 191.132C76.1484 191.132 76.8904 190.39 76.8904 189.256V188.654C76.3444 188.584 75.9524 188.57 75.5884 188.57C74.1744 188.57 73.4744 188.99 73.4744 189.858ZM81.2589 187.814V192H79.8449V184.58H81.1609V185.812C81.6649 184.986 82.5049 184.44 83.5269 184.44C85.0529 184.44 86.0609 185.42 86.0609 187.198V192H84.6469V187.674C84.6469 186.4 84.0869 185.686 83.0369 185.686C82.0709 185.686 81.2589 186.498 81.2589 187.814ZM87.1267 188.29C87.1267 186.036 88.4147 184.44 90.4167 184.44C91.4107 184.44 92.2787 184.944 92.7967 185.854V181.948H94.2107V192H92.8947V190.67C92.3627 191.608 91.4667 192.14 90.4167 192.14C88.4147 192.14 87.1267 190.516 87.1267 188.29ZM88.5967 188.29C88.5967 189.942 89.4647 190.88 90.6967 190.88C91.9007 190.88 92.7967 189.9 92.7967 188.262C92.7967 186.596 91.8727 185.686 90.6967 185.686C89.4647 185.686 88.5967 186.61 88.5967 188.29ZM97.6182 182.858C97.6182 183.39 97.1982 183.796 96.5962 183.796C95.9942 183.796 95.5602 183.39 95.5602 182.858C95.5602 182.312 95.9942 181.92 96.5962 181.92C97.1982 181.92 97.6182 182.312 97.6182 182.858ZM97.3102 192H95.8962V184.58H97.3102V192ZM100.407 187.814V192H98.9932V184.58H100.309V185.812C100.813 184.986 101.653 184.44 102.675 184.44C104.201 184.44 105.209 185.42 105.209 187.198V192H103.795V187.674C103.795 186.4 103.235 185.686 102.185 185.686C101.219 185.686 100.407 186.498 100.407 187.814ZM109.775 194.856C107.829 194.856 106.569 193.82 106.485 192.14H107.857C107.941 193.176 108.613 193.736 109.761 193.736C111.035 193.736 111.707 193.05 111.707 191.776V190.432C111.287 191.328 110.447 191.846 109.439 191.846C107.591 191.846 106.275 190.32 106.275 188.136C106.275 185.924 107.535 184.44 109.397 184.44C110.461 184.44 111.301 184.958 111.805 185.896V184.58H113.121V191.748C113.121 193.694 111.875 194.856 109.775 194.856ZM107.703 188.136C107.703 189.676 108.459 190.614 109.691 190.614C110.895 190.614 111.707 189.648 111.707 188.178C111.707 186.638 110.909 185.658 109.691 185.658C108.473 185.658 107.703 186.61 107.703 188.136ZM121.938 192.21C119.138 192.21 116.968 189.928 116.968 186.96C116.968 184.006 119.138 181.738 121.938 181.738C124.458 181.738 126.474 183.418 126.852 185.896H125.214C124.934 184.272 123.618 183.124 121.952 183.124C119.964 183.124 118.564 184.734 118.564 186.96C118.564 189.214 119.964 190.824 121.952 190.824C123.618 190.824 124.934 189.662 125.214 188.038H126.852C126.474 190.53 124.458 192.21 121.938 192.21ZM131.169 192.14C129.069 192.14 127.529 190.488 127.529 188.29C127.529 186.092 129.069 184.44 131.169 184.44C133.269 184.44 134.809 186.092 134.809 188.29C134.809 190.488 133.269 192.14 131.169 192.14ZM131.169 190.894C132.387 190.894 133.353 189.914 133.353 188.29C133.353 186.666 132.387 185.7 131.169 185.7C129.951 185.7 128.999 186.666 128.999 188.29C128.999 189.914 129.951 190.894 131.169 190.894ZM137.398 192H135.97V181.948H137.398V192ZM140.509 192H139.081V181.948H140.509V192ZM146.685 192V190.852C146.223 191.678 145.397 192.14 144.305 192.14C142.765 192.14 141.757 191.258 141.757 189.9C141.757 188.444 142.919 187.688 145.131 187.688C145.565 187.688 145.915 187.702 146.517 187.772V187.226C146.517 186.162 145.943 185.56 144.963 185.56C143.927 185.56 143.297 186.176 143.255 187.212H141.967C142.037 185.546 143.227 184.44 144.963 184.44C146.797 184.44 147.861 185.476 147.861 187.24V192H146.685ZM143.101 189.858C143.101 190.628 143.675 191.132 144.585 191.132C145.775 191.132 146.517 190.39 146.517 189.256V188.654C145.971 188.584 145.579 188.57 145.215 188.57C143.801 188.57 143.101 188.99 143.101 189.858ZM153.59 190.628V191.874C153.156 192.07 152.778 192.14 152.33 192.14C150.958 192.14 150.006 191.398 150.006 189.76V185.784H148.368V184.58H150.006V182.382H151.42V184.58H153.66V185.784H151.42V189.438C151.42 190.46 151.91 190.824 152.666 190.824C153.002 190.824 153.296 190.768 153.59 190.628ZM157.576 192.14C155.434 192.14 153.992 190.586 153.992 188.248C153.992 186.05 155.49 184.44 157.534 184.44C159.746 184.44 161.216 186.232 160.964 188.64H155.434C155.546 190.152 156.302 191.034 157.548 191.034C158.598 191.034 159.326 190.46 159.564 189.494H160.964C160.6 191.146 159.326 192.14 157.576 192.14ZM157.506 185.504C156.372 185.504 155.602 186.316 155.448 187.702H159.466C159.396 186.33 158.654 185.504 157.506 185.504ZM163.601 188.206V192H162.187V184.58H163.503V186.148C164.021 185.126 165.141 184.482 166.359 184.482V185.952C164.763 185.868 163.601 186.568 163.601 188.206ZM171.692 192V190.852C171.23 191.678 170.404 192.14 169.312 192.14C167.772 192.14 166.764 191.258 166.764 189.9C166.764 188.444 167.926 187.688 170.138 187.688C170.572 187.688 170.922 187.702 171.524 187.772V187.226C171.524 186.162 170.95 185.56 169.97 185.56C168.934 185.56 168.304 186.176 168.262 187.212H166.974C167.044 185.546 168.234 184.44 169.97 184.44C171.804 184.44 172.868 185.476 172.868 187.24V192H171.692ZM168.108 189.858C168.108 190.628 168.682 191.132 169.592 191.132C170.782 191.132 171.524 190.39 171.524 189.256V188.654C170.978 188.584 170.586 188.57 170.222 188.57C168.808 188.57 168.108 188.99 168.108 189.858ZM175.907 192H174.479V181.948H175.907V192ZM183.47 189.788C183.47 191.244 182.336 192.14 180.362 192.14C178.402 192.14 177.24 191.174 177.1 189.578H178.458C178.514 190.502 179.256 191.076 180.39 191.076C181.384 191.076 182.042 190.726 182.042 190.026C182.042 189.41 181.664 189.144 180.74 188.962L179.536 188.738C178.164 188.472 177.394 187.772 177.394 186.652C177.394 185.35 178.528 184.44 180.25 184.44C182.028 184.44 183.232 185.392 183.358 186.918H182C181.916 186.022 181.258 185.504 180.264 185.504C179.368 185.504 178.766 185.882 178.766 186.526C178.766 187.128 179.144 187.408 180.04 187.576L181.3 187.814C182.77 188.08 183.47 188.724 183.47 189.788Z" fill="#1A1A1A"/>
<mask id="path-4-outside-1_1195_438" maskUnits="userSpaceOnUse" x="39" y="60" width="164" height="39" fill="black">
<rect fill="white" x="39" y="60" width="164" height="39"/>
<path d="M60.442 76.9621L66.0051 86.4034H60.0084L57.4067 90.8224H73.8931L60.442 68L47 90.8224H52.2771L60.442 76.9621Z"/>
<path d="M96.57 90.8224H79.0134L76.4117 86.4035H93.9684L96.57 90.8224Z"/>
<path d="M91.1544 81.6205H73.5978L70.9961 77.2016H88.5528L91.1544 81.6205Z"/>
<path d="M85.5637 72.4189H68.1731L65.5714 68H82.962L85.5637 72.4189Z"/>
<path d="M102.576 68H105.75C107.032 68 108.019 68.3194 108.72 68.9495C109.412 69.5795 109.763 70.5289 109.763 71.8067V73.5547C109.763 74.8236 109.412 75.7731 108.72 76.4031C108.029 77.0331 107.041 77.3437 105.75 77.3437H102.576V68ZM104.071 76.0304H105.759C106.599 76.0304 107.226 75.8263 107.632 75.4182C108.038 75.01 108.241 74.3977 108.241 73.5902V71.7534C108.241 70.9371 108.038 70.3248 107.632 69.9255C107.226 69.5262 106.599 69.3221 105.759 69.3221H104.071V76.0304Z"/>
<path d="M111.267 77.3348V68H117.383V69.3044H112.77V71.9842H116.996V73.2885H112.77V76.0215H117.457V77.3259H111.276L111.267 77.3348Z"/>
<path d="M121.111 77.3348L118.408 68H119.957L122.31 76.4297H122.495L124.838 68H126.388L123.694 77.3348H121.101H121.111Z"/>
<path d="M127.615 77.3348V68H129.109V77.3348H127.615Z"/>
<path d="M133.335 77.3348V69.3044H130.355V68H137.809V69.3044H134.829V77.3348H133.335Z"/>
<path d="M137.459 77.3348L140.236 68H142.865L145.624 77.3348H144.083L143.446 75.1342H139.645L139.009 77.3348H137.459ZM140.024 73.8032H143.077L141.666 68.8962H141.444L140.033 73.8032H140.024Z"/>
<path d="M102.576 90.8225V81.4877H105.75C107.032 81.4877 108.019 81.8071 108.72 82.4371C109.412 83.0672 109.763 84.0166 109.763 85.2855V87.0336C109.763 88.3025 109.422 89.2519 108.72 89.8819C108.029 90.5119 107.041 90.8225 105.759 90.8225H102.576ZM104.08 89.5181H105.768C106.608 89.5181 107.235 89.314 107.641 88.9058C108.047 88.4977 108.25 87.8854 108.25 87.0779V85.2411C108.25 84.4248 108.047 83.8125 107.641 83.4132C107.235 83.0139 106.608 82.8098 105.768 82.8098H104.08V89.5181Z"/>
<path d="M111.276 90.8225V81.4877H117.383V82.7921H112.771V85.4718H116.996V86.7762H112.771V89.5092H117.457V90.8136H111.276V90.8225Z"/>
<path d="M121.12 90.8136L118.417 81.4787H119.967L122.329 89.8996H122.513L124.856 81.4699H126.406L123.722 90.8047H121.129L121.12 90.8136Z"/>
<path d="M127.615 90.8136V81.4788H133.722V82.7832H129.109V85.4629H133.335V86.7673H129.109V89.5003H133.796V90.8047H127.615V90.8136Z"/>
<path d="M135.134 90.8136V81.4788H136.628V89.5092H141.306V90.8136H135.134Z"/>
<path d="M146.066 91C144.876 91 143.926 90.6806 143.225 90.0328C142.524 89.385 142.173 88.4622 142.173 87.2377V85.0548C142.173 83.8392 142.524 82.9075 143.225 82.2597C143.926 81.612 144.876 81.2925 146.066 81.2925C147.256 81.2925 148.207 81.612 148.917 82.2597C149.627 82.9075 149.978 83.8392 149.978 85.0548V87.2377C149.978 88.4533 149.627 89.385 148.917 90.0328C148.207 90.6806 147.256 91 146.066 91ZM146.066 89.7045C146.832 89.7045 147.423 89.4915 147.838 89.0567C148.253 88.6219 148.465 88.0363 148.465 87.2909V85.0016C148.465 84.2562 148.253 83.6706 147.838 83.2358C147.423 82.801 146.832 82.588 146.066 82.588C145.301 82.588 144.729 82.801 144.304 83.2358C143.88 83.6706 143.668 84.2562 143.668 85.0016V87.2909C143.668 88.0363 143.88 88.6308 144.304 89.0567C144.729 89.4915 145.319 89.7045 146.066 89.7045Z"/>
<path d="M151.51 90.8136V81.4788H155.357C155.947 81.4788 156.473 81.5941 156.944 81.816C157.414 82.0467 157.774 82.3661 158.041 82.7743C158.309 83.1913 158.438 83.6794 158.438 84.265V84.4425C158.438 85.0193 158.3 85.5162 158.032 85.9332C157.755 86.3503 157.396 86.6697 156.934 86.8916C156.473 87.1134 155.947 87.2287 155.366 87.2287H153.013V90.8136H151.51ZM153.004 85.9155H155.209C155.735 85.9155 156.159 85.7824 156.473 85.5162C156.787 85.25 156.944 84.8862 156.944 84.4247V84.2916C156.944 83.8214 156.787 83.4487 156.473 83.1825C156.159 82.9163 155.735 82.7832 155.209 82.7832H153.004V85.9155Z"/>
<path d="M159.702 81.4699H162.516L164.638 89.8464H164.859L166.981 81.4699H169.795V90.8047H168.338V82.4814H168.116L166.013 90.8047H163.494L161.381 82.4903H161.16V90.8136H159.702V81.4699Z"/>
<path d="M171.566 90.8047V81.4699H177.674V82.7743H173.061V85.454H177.286V86.7584H173.061V89.4914H177.748V90.7958H171.566V90.8047Z"/>
<path d="M179.085 90.8046V81.4698H181.964L184.602 89.8374H184.824V81.461H186.309V90.7958H183.422L180.783 82.4104H180.562V90.7958H179.076L179.085 90.8046Z"/>
<path d="M190.526 90.7958V82.7654H187.546V81.461H195V82.7654H192.02V90.7958H190.526Z"/>
</mask>
<path d="M60.442 76.9621L66.0051 86.4034H60.0084L57.4067 90.8224H73.8931L60.442 68L47 90.8224H52.2771L60.442 76.9621Z" fill="#1A1A1A"/>
<path d="M96.57 90.8224H79.0134L76.4117 86.4035H93.9684L96.57 90.8224Z" fill="#1A1A1A"/>
<path d="M91.1544 81.6205H73.5978L70.9961 77.2016H88.5528L91.1544 81.6205Z" fill="#1A1A1A"/>
<path d="M85.5637 72.4189H68.1731L65.5714 68H82.962L85.5637 72.4189Z" fill="#1A1A1A"/>
<path d="M102.576 68H105.75C107.032 68 108.019 68.3194 108.72 68.9495C109.412 69.5795 109.763 70.5289 109.763 71.8067V73.5547C109.763 74.8236 109.412 75.7731 108.72 76.4031C108.029 77.0331 107.041 77.3437 105.75 77.3437H102.576V68ZM104.071 76.0304H105.759C106.599 76.0304 107.226 75.8263 107.632 75.4182C108.038 75.01 108.241 74.3977 108.241 73.5902V71.7534C108.241 70.9371 108.038 70.3248 107.632 69.9255C107.226 69.5262 106.599 69.3221 105.759 69.3221H104.071V76.0304Z" fill="#1A1A1A"/>
<path d="M111.267 77.3348V68H117.383V69.3044H112.77V71.9842H116.996V73.2885H112.77V76.0215H117.457V77.3259H111.276L111.267 77.3348Z" fill="#1A1A1A"/>
<path d="M121.111 77.3348L118.408 68H119.957L122.31 76.4297H122.495L124.838 68H126.388L123.694 77.3348H121.101H121.111Z" fill="#1A1A1A"/>
<path d="M127.615 77.3348V68H129.109V77.3348H127.615Z" fill="#1A1A1A"/>
<path d="M133.335 77.3348V69.3044H130.355V68H137.809V69.3044H134.829V77.3348H133.335Z" fill="#1A1A1A"/>
<path d="M137.459 77.3348L140.236 68H142.865L145.624 77.3348H144.083L143.446 75.1342H139.645L139.009 77.3348H137.459ZM140.024 73.8032H143.077L141.666 68.8962H141.444L140.033 73.8032H140.024Z" fill="#1A1A1A"/>
<path d="M102.576 90.8225V81.4877H105.75C107.032 81.4877 108.019 81.8071 108.72 82.4371C109.412 83.0672 109.763 84.0166 109.763 85.2855V87.0336C109.763 88.3025 109.422 89.2519 108.72 89.8819C108.029 90.5119 107.041 90.8225 105.759 90.8225H102.576ZM104.08 89.5181H105.768C106.608 89.5181 107.235 89.314 107.641 88.9058C108.047 88.4977 108.25 87.8854 108.25 87.0779V85.2411C108.25 84.4248 108.047 83.8125 107.641 83.4132C107.235 83.0139 106.608 82.8098 105.768 82.8098H104.08V89.5181Z" fill="#1A1A1A"/>
<path d="M111.276 90.8225V81.4877H117.383V82.7921H112.771V85.4718H116.996V86.7762H112.771V89.5092H117.457V90.8136H111.276V90.8225Z" fill="#1A1A1A"/>
<path d="M121.12 90.8136L118.417 81.4787H119.967L122.329 89.8996H122.513L124.856 81.4699H126.406L123.722 90.8047H121.129L121.12 90.8136Z" fill="#1A1A1A"/>
<path d="M127.615 90.8136V81.4788H133.722V82.7832H129.109V85.4629H133.335V86.7673H129.109V89.5003H133.796V90.8047H127.615V90.8136Z" fill="#1A1A1A"/>
<path d="M135.134 90.8136V81.4788H136.628V89.5092H141.306V90.8136H135.134Z" fill="#1A1A1A"/>
<path d="M146.066 91C144.876 91 143.926 90.6806 143.225 90.0328C142.524 89.385 142.173 88.4622 142.173 87.2377V85.0548C142.173 83.8392 142.524 82.9075 143.225 82.2597C143.926 81.612 144.876 81.2925 146.066 81.2925C147.256 81.2925 148.207 81.612 148.917 82.2597C149.627 82.9075 149.978 83.8392 149.978 85.0548V87.2377C149.978 88.4533 149.627 89.385 148.917 90.0328C148.207 90.6806 147.256 91 146.066 91ZM146.066 89.7045C146.832 89.7045 147.423 89.4915 147.838 89.0567C148.253 88.6219 148.465 88.0363 148.465 87.2909V85.0016C148.465 84.2562 148.253 83.6706 147.838 83.2358C147.423 82.801 146.832 82.588 146.066 82.588C145.301 82.588 144.729 82.801 144.304 83.2358C143.88 83.6706 143.668 84.2562 143.668 85.0016V87.2909C143.668 88.0363 143.88 88.6308 144.304 89.0567C144.729 89.4915 145.319 89.7045 146.066 89.7045Z" fill="#1A1A1A"/>
<path d="M151.51 90.8136V81.4788H155.357C155.947 81.4788 156.473 81.5941 156.944 81.816C157.414 82.0467 157.774 82.3661 158.041 82.7743C158.309 83.1913 158.438 83.6794 158.438 84.265V84.4425C158.438 85.0193 158.3 85.5162 158.032 85.9332C157.755 86.3503 157.396 86.6697 156.934 86.8916C156.473 87.1134 155.947 87.2287 155.366 87.2287H153.013V90.8136H151.51ZM153.004 85.9155H155.209C155.735 85.9155 156.159 85.7824 156.473 85.5162C156.787 85.25 156.944 84.8862 156.944 84.4247V84.2916C156.944 83.8214 156.787 83.4487 156.473 83.1825C156.159 82.9163 155.735 82.7832 155.209 82.7832H153.004V85.9155Z" fill="#1A1A1A"/>
<path d="M159.702 81.4699H162.516L164.638 89.8464H164.859L166.981 81.4699H169.795V90.8047H168.338V82.4814H168.116L166.013 90.8047H163.494L161.381 82.4903H161.16V90.8136H159.702V81.4699Z" fill="#1A1A1A"/>
<path d="M171.566 90.8047V81.4699H177.674V82.7743H173.061V85.454H177.286V86.7584H173.061V89.4914H177.748V90.7958H171.566V90.8047Z" fill="#1A1A1A"/>
<path d="M179.085 90.8046V81.4698H181.964L184.602 89.8374H184.824V81.461H186.309V90.7958H183.422L180.783 82.4104H180.562V90.7958H179.076L179.085 90.8046Z" fill="#1A1A1A"/>
<path d="M190.526 90.7958V82.7654H187.546V81.461H195V82.7654H192.02V90.7958H190.526Z" fill="#1A1A1A"/>
<path d="M60.442 76.9621L66.0051 86.4034H60.0084L57.4067 90.8224H73.8931L60.442 68L47 90.8224H52.2771L60.442 76.9621Z" stroke="#E6E2DE" stroke-width="16" stroke-linejoin="round" mask="url(#path-4-outside-1_1195_438)"/>
<path d="M96.57 90.8224H79.0134L76.4117 86.4035H93.9684L96.57 90.8224Z" stroke="#E6E2DE" stroke-width="16" stroke-linejoin="round" mask="url(#path-4-outside-1_1195_438)"/>
<path d="M91.1544 81.6205H73.5978L70.9961 77.2016H88.5528L91.1544 81.6205Z" stroke="#E6E2DE" stroke-width="16" stroke-linejoin="round" mask="url(#path-4-outside-1_1195_438)"/>
<path d="M85.5637 72.4189H68.1731L65.5714 68H82.962L85.5637 72.4189Z" stroke="#E6E2DE" stroke-width="16" stroke-linejoin="round" mask="url(#path-4-outside-1_1195_438)"/>
<path d="M102.576 68H105.75C107.032 68 108.019 68.3194 108.72 68.9495C109.412 69.5795 109.763 70.5289 109.763 71.8067V73.5547C109.763 74.8236 109.412 75.7731 108.72 76.4031C108.029 77.0331 107.041 77.3437 105.75 77.3437H102.576V68ZM104.071 76.0304H105.759C106.599 76.0304 107.226 75.8263 107.632 75.4182C108.038 75.01 108.241 74.3977 108.241 73.5902V71.7534C108.241 70.9371 108.038 70.3248 107.632 69.9255C107.226 69.5262 106.599 69.3221 105.759 69.3221H104.071V76.0304Z" stroke="#E6E2DE" stroke-width="16" stroke-linejoin="round" mask="url(#path-4-outside-1_1195_438)"/>
<path d="M111.267 77.3348V68H117.383V69.3044H112.77V71.9842H116.996V73.2885H112.77V76.0215H117.457V77.3259H111.276L111.267 77.3348Z" stroke="#E6E2DE" stroke-width="16" stroke-linejoin="round" mask="url(#path-4-outside-1_1195_438)"/>
<path d="M121.111 77.3348L118.408 68H119.957L122.31 76.4297H122.495L124.838 68H126.388L123.694 77.3348H121.101H121.111Z" stroke="#E6E2DE" stroke-width="16" stroke-linejoin="round" mask="url(#path-4-outside-1_1195_438)"/>
<path d="M127.615 77.3348V68H129.109V77.3348H127.615Z" stroke="#E6E2DE" stroke-width="16" stroke-linejoin="round" mask="url(#path-4-outside-1_1195_438)"/>
<path d="M133.335 77.3348V69.3044H130.355V68H137.809V69.3044H134.829V77.3348H133.335Z" stroke="#E6E2DE" stroke-width="16" stroke-linejoin="round" mask="url(#path-4-outside-1_1195_438)"/>
<path d="M137.459 77.3348L140.236 68H142.865L145.624 77.3348H144.083L143.446 75.1342H139.645L139.009 77.3348H137.459ZM140.024 73.8032H143.077L141.666 68.8962H141.444L140.033 73.8032H140.024Z" stroke="#E6E2DE" stroke-width="16" stroke-linejoin="round" mask="url(#path-4-outside-1_1195_438)"/>
<path d="M102.576 90.8225V81.4877H105.75C107.032 81.4877 108.019 81.8071 108.72 82.4371C109.412 83.0672 109.763 84.0166 109.763 85.2855V87.0336C109.763 88.3025 109.422 89.2519 108.72 89.8819C108.029 90.5119 107.041 90.8225 105.759 90.8225H102.576ZM104.08 89.5181H105.768C106.608 89.5181 107.235 89.314 107.641 88.9058C108.047 88.4977 108.25 87.8854 108.25 87.0779V85.2411C108.25 84.4248 108.047 83.8125 107.641 83.4132C107.235 83.0139 106.608 82.8098 105.768 82.8098H104.08V89.5181Z" stroke="#E6E2DE" stroke-width="16" stroke-linejoin="round" mask="url(#path-4-outside-1_1195_438)"/>
<path d="M111.276 90.8225V81.4877H117.383V82.7921H112.771V85.4718H116.996V86.7762H112.771V89.5092H117.457V90.8136H111.276V90.8225Z" stroke="#E6E2DE" stroke-width="16" stroke-linejoin="round" mask="url(#path-4-outside-1_1195_438)"/>
<path d="M121.12 90.8136L118.417 81.4787H119.967L122.329 89.8996H122.513L124.856 81.4699H126.406L123.722 90.8047H121.129L121.12 90.8136Z" stroke="#E6E2DE" stroke-width="16" stroke-linejoin="round" mask="url(#path-4-outside-1_1195_438)"/>
<path d="M127.615 90.8136V81.4788H133.722V82.7832H129.109V85.4629H133.335V86.7673H129.109V89.5003H133.796V90.8047H127.615V90.8136Z" stroke="#E6E2DE" stroke-width="16" stroke-linejoin="round" mask="url(#path-4-outside-1_1195_438)"/>
<path d="M135.134 90.8136V81.4788H136.628V89.5092H141.306V90.8136H135.134Z" stroke="#E6E2DE" stroke-width="16" stroke-linejoin="round" mask="url(#path-4-outside-1_1195_438)"/>
<path d="M146.066 91C144.876 91 143.926 90.6806 143.225 90.0328C142.524 89.385 142.173 88.4622 142.173 87.2377V85.0548C142.173 83.8392 142.524 82.9075 143.225 82.2597C143.926 81.612 144.876 81.2925 146.066 81.2925C147.256 81.2925 148.207 81.612 148.917 82.2597C149.627 82.9075 149.978 83.8392 149.978 85.0548V87.2377C149.978 88.4533 149.627 89.385 148.917 90.0328C148.207 90.6806 147.256 91 146.066 91ZM146.066 89.7045C146.832 89.7045 147.423 89.4915 147.838 89.0567C148.253 88.6219 148.465 88.0363 148.465 87.2909V85.0016C148.465 84.2562 148.253 83.6706 147.838 83.2358C147.423 82.801 146.832 82.588 146.066 82.588C145.301 82.588 144.729 82.801 144.304 83.2358C143.88 83.6706 143.668 84.2562 143.668 85.0016V87.2909C143.668 88.0363 143.88 88.6308 144.304 89.0567C144.729 89.4915 145.319 89.7045 146.066 89.7045Z" stroke="#E6E2DE" stroke-width="16" stroke-linejoin="round" mask="url(#path-4-outside-1_1195_438)"/>
<path d="M151.51 90.8136V81.4788H155.357C155.947 81.4788 156.473 81.5941 156.944 81.816C157.414 82.0467 157.774 82.3661 158.041 82.7743C158.309 83.1913 158.438 83.6794 158.438 84.265V84.4425C158.438 85.0193 158.3 85.5162 158.032 85.9332C157.755 86.3503 157.396 86.6697 156.934 86.8916C156.473 87.1134 155.947 87.2287 155.366 87.2287H153.013V90.8136H151.51ZM153.004 85.9155H155.209C155.735 85.9155 156.159 85.7824 156.473 85.5162C156.787 85.25 156.944 84.8862 156.944 84.4247V84.2916C156.944 83.8214 156.787 83.4487 156.473 83.1825C156.159 82.9163 155.735 82.7832 155.209 82.7832H153.004V85.9155Z" stroke="#E6E2DE" stroke-width="16" stroke-linejoin="round" mask="url(#path-4-outside-1_1195_438)"/>
<path d="M159.702 81.4699H162.516L164.638 89.8464H164.859L166.981 81.4699H169.795V90.8047H168.338V82.4814H168.116L166.013 90.8047H163.494L161.381 82.4903H161.16V90.8136H159.702V81.4699Z" stroke="#E6E2DE" stroke-width="16" stroke-linejoin="round" mask="url(#path-4-outside-1_1195_438)"/>
<path d="M171.566 90.8047V81.4699H177.674V82.7743H173.061V85.454H177.286V86.7584H173.061V89.4914H177.748V90.7958H171.566V90.8047Z" stroke="#E6E2DE" stroke-width="16" stroke-linejoin="round" mask="url(#path-4-outside-1_1195_438)"/>
<path d="M179.085 90.8046V81.4698H181.964L184.602 89.8374H184.824V81.461H186.309V90.7958H183.422L180.783 82.4104H180.562V90.7958H179.076L179.085 90.8046Z" stroke="#E6E2DE" stroke-width="16" stroke-linejoin="round" mask="url(#path-4-outside-1_1195_438)"/>
<path d="M190.526 90.7958V82.7654H187.546V81.461H195V82.7654H192.02V90.7958H190.526Z" stroke="#E6E2DE" stroke-width="16" stroke-linejoin="round" mask="url(#path-4-outside-1_1195_438)"/>
</svg>
