<svg width="242" height="176" viewBox="0 0 242 176" fill="none" xmlns="http://www.w3.org/2000/svg">
<rect y="16" width="242" height="160" rx="12" fill="#E6E2DE"/>
<path d="M103.5 91H99.4199V79.512H103.5C107.148 79.512 109.356 81.848 109.356 85.192C109.356 88.536 107.068 91 103.5 91ZM101.852 81.608V88.904H103.372C105.66 88.904 106.86 87.576 106.86 85.192C106.86 82.904 105.66 81.608 103.372 81.608H101.852ZM113.269 80.472C113.269 81.224 112.661 81.784 111.781 81.784C110.917 81.784 110.309 81.224 110.309 80.472C110.309 79.688 110.917 79.128 111.781 79.128C112.661 79.128 113.269 79.688 113.269 80.472ZM112.917 91H110.693V82.456H112.917V91ZM118.448 91.144C115.888 91.144 114.176 89.368 114.176 86.696C114.176 84.152 115.952 82.296 118.416 82.296C121.12 82.296 122.912 84.488 122.512 87.272H116.448C116.592 88.664 117.264 89.432 118.4 89.432C119.376 89.432 120.032 88.952 120.288 88.104H122.496C122.016 90.04 120.528 91.144 118.448 91.144ZM118.368 83.928C117.328 83.928 116.672 84.6 116.48 85.864H120.16C120.096 84.68 119.424 83.928 118.368 83.928ZM131.058 88.264C131.058 90.056 129.698 91.16 127.266 91.16C124.834 91.16 123.474 89.992 123.298 88.088H125.426C125.442 88.968 126.194 89.528 127.298 89.528C128.162 89.528 128.818 89.256 128.818 88.648C128.818 88.104 128.466 87.88 127.65 87.72L126.114 87.432C124.578 87.16 123.65 86.312 123.65 84.984C123.65 83.4 125.01 82.296 127.138 82.296C129.282 82.296 130.754 83.432 130.914 85.272H128.786C128.706 84.44 128.082 83.928 127.138 83.928C126.322 83.928 125.778 84.232 125.778 84.776C125.778 85.288 126.13 85.496 126.898 85.64L128.546 85.944C130.21 86.264 131.058 87.032 131.058 88.264ZM136.128 91.144C133.568 91.144 131.856 89.368 131.856 86.696C131.856 84.152 133.632 82.296 136.096 82.296C138.8 82.296 140.592 84.488 140.192 87.272H134.128C134.272 88.664 134.944 89.432 136.08 89.432C137.056 89.432 137.712 88.952 137.968 88.104H140.176C139.696 90.04 138.208 91.144 136.128 91.144ZM136.048 83.928C135.008 83.928 134.352 84.6 134.16 85.864H137.84C137.776 84.68 137.104 83.928 136.048 83.928ZM143.762 91H141.522V79.512H143.762V91Z" fill="#1A1A1A"/>
<path d="M51.6575 111L49.5295 103.118L47.3875 111H45.8055L43.1875 100.948H44.6995L46.6315 108.69L48.7455 100.948H50.3415L52.4275 108.704L54.3595 100.948H55.8715L53.2535 111H51.6575ZM59.2786 111.14C57.1366 111.14 55.6946 109.586 55.6946 107.248C55.6946 105.05 57.1926 103.44 59.2366 103.44C61.4486 103.44 62.9186 105.232 62.6666 107.64H57.1366C57.2486 109.152 58.0046 110.034 59.2506 110.034C60.3006 110.034 61.0286 109.46 61.2666 108.494H62.6666C62.3026 110.146 61.0286 111.14 59.2786 111.14ZM59.2086 104.504C58.0746 104.504 57.3046 105.316 57.1506 106.702H61.1686C61.0986 105.33 60.3566 104.504 59.2086 104.504ZM70.974 107.29C70.974 109.516 69.686 111.14 67.684 111.14C66.634 111.14 65.738 110.608 65.206 109.67V111H63.89V100.948H65.304V104.854C65.822 103.944 66.676 103.44 67.684 103.44C69.672 103.44 70.974 105.036 70.974 107.29ZM69.504 107.29C69.504 105.61 68.622 104.686 67.404 104.686C66.228 104.686 65.304 105.596 65.304 107.262C65.304 108.9 66.2 109.88 67.404 109.88C68.622 109.88 69.504 108.942 69.504 107.29ZM78.0076 108.788C78.0076 110.244 76.8736 111.14 74.8996 111.14C72.9396 111.14 71.7776 110.174 71.6376 108.578H72.9956C73.0516 109.502 73.7936 110.076 74.9276 110.076C75.9216 110.076 76.5796 109.726 76.5796 109.026C76.5796 108.41 76.2016 108.144 75.2776 107.962L74.0736 107.738C72.7016 107.472 71.9316 106.772 71.9316 105.652C71.9316 104.35 73.0656 103.44 74.7876 103.44C76.5656 103.44 77.7696 104.392 77.8956 105.918H76.5376C76.4536 105.022 75.7956 104.504 74.8016 104.504C73.9056 104.504 73.3036 104.882 73.3036 105.526C73.3036 106.128 73.6816 106.408 74.5776 106.576L75.8376 106.814C77.3076 107.08 78.0076 107.724 78.0076 108.788ZM80.9934 101.858C80.9934 102.39 80.5734 102.796 79.9714 102.796C79.3694 102.796 78.9354 102.39 78.9354 101.858C78.9354 101.312 79.3694 100.92 79.9714 100.92C80.5734 100.92 80.9934 101.312 80.9934 101.858ZM80.6854 111H79.2714V103.58H80.6854V111ZM86.5544 109.628V110.874C86.1204 111.07 85.7424 111.14 85.2944 111.14C83.9224 111.14 82.9704 110.398 82.9704 108.76V104.784H81.3324V103.58H82.9704V101.382H84.3844V103.58H86.6244V104.784H84.3844V108.438C84.3844 109.46 84.8744 109.824 85.6304 109.824C85.9664 109.824 86.2604 109.768 86.5544 109.628ZM90.5408 111.14C88.3988 111.14 86.9568 109.586 86.9568 107.248C86.9568 105.05 88.4548 103.44 90.4988 103.44C92.7108 103.44 94.1808 105.232 93.9288 107.64H88.3988C88.5108 109.152 89.2668 110.034 90.5128 110.034C91.5628 110.034 92.2908 109.46 92.5288 108.494H93.9288C93.5648 110.146 92.2908 111.14 90.5408 111.14ZM90.4708 104.504C89.3368 104.504 88.5668 105.316 88.4128 106.702H92.4308C92.3608 105.33 91.6188 104.504 90.4708 104.504ZM101.088 111H97.9099V100.948H101.088C104.294 100.948 106.142 102.992 106.142 105.932C106.142 108.83 104.224 111 101.088 111ZM99.4499 102.278V109.67H101.018C103.328 109.67 104.574 108.242 104.574 105.932C104.574 103.664 103.342 102.278 101.018 102.278H99.4499ZM110.414 111.14C108.272 111.14 106.83 109.586 106.83 107.248C106.83 105.05 108.328 103.44 110.372 103.44C112.584 103.44 114.054 105.232 113.802 107.64H108.272C108.384 109.152 109.14 110.034 110.386 110.034C111.436 110.034 112.164 109.46 112.402 108.494H113.802C113.438 110.146 112.164 111.14 110.414 111.14ZM110.344 104.504C109.21 104.504 108.44 105.316 108.286 106.702H112.304C112.234 105.33 111.492 104.504 110.344 104.504ZM120.905 108.788C120.905 110.244 119.771 111.14 117.797 111.14C115.837 111.14 114.675 110.174 114.535 108.578H115.893C115.949 109.502 116.691 110.076 117.825 110.076C118.819 110.076 119.477 109.726 119.477 109.026C119.477 108.41 119.099 108.144 118.175 107.962L116.971 107.738C115.599 107.472 114.829 106.772 114.829 105.652C114.829 104.35 115.963 103.44 117.685 103.44C119.463 103.44 120.667 104.392 120.793 105.918H119.435C119.351 105.022 118.693 104.504 117.699 104.504C116.803 104.504 116.201 104.882 116.201 105.526C116.201 106.128 116.579 106.408 117.475 106.576L118.735 106.814C120.205 107.08 120.905 107.724 120.905 108.788ZM123.891 101.858C123.891 102.39 123.471 102.796 122.869 102.796C122.267 102.796 121.833 102.39 121.833 101.858C121.833 101.312 122.267 100.92 122.869 100.92C123.471 100.92 123.891 101.312 123.891 101.858ZM123.583 111H122.169V103.58H123.583V111ZM128.234 113.856C126.288 113.856 125.028 112.82 124.944 111.14H126.316C126.4 112.176 127.072 112.736 128.22 112.736C129.494 112.736 130.166 112.05 130.166 110.776V109.432C129.746 110.328 128.906 110.846 127.898 110.846C126.05 110.846 124.734 109.32 124.734 107.136C124.734 104.924 125.994 103.44 127.856 103.44C128.92 103.44 129.76 103.958 130.264 104.896V103.58H131.58V110.748C131.58 112.694 130.334 113.856 128.234 113.856ZM126.162 107.136C126.162 108.676 126.918 109.614 128.15 109.614C129.354 109.614 130.166 108.648 130.166 107.178C130.166 105.638 129.368 104.658 128.15 104.658C126.932 104.658 126.162 105.61 126.162 107.136ZM134.671 106.814V111H133.257V103.58H134.573V104.812C135.077 103.986 135.917 103.44 136.939 103.44C138.465 103.44 139.473 104.42 139.473 106.198V111H138.059V106.674C138.059 105.4 137.499 104.686 136.449 104.686C135.483 104.686 134.671 105.498 134.671 106.814ZM142.989 110.398C142.989 111.728 141.939 112.764 140.399 112.792V111.994C141.309 111.966 141.925 111.476 142.009 110.79C141.883 110.832 141.799 110.846 141.701 110.846C141.169 110.846 140.777 110.412 140.777 109.894C140.777 109.292 141.225 108.9 141.799 108.9C142.569 108.9 142.989 109.46 142.989 110.398ZM153.556 109.656V111H147.186V100.948H153.458V102.292H148.726V105.148H153.038V106.492H148.726V109.656H153.556ZM156.383 111H154.969V103.58H156.285V104.812C156.789 103.958 157.587 103.44 158.609 103.44C159.701 103.44 160.527 104 160.863 104.98C161.381 104.028 162.235 103.44 163.369 103.44C164.895 103.44 165.875 104.434 165.875 106.198V111H164.461V106.646C164.461 105.414 163.915 104.686 162.879 104.686C161.913 104.686 161.129 105.498 161.129 106.744V111H159.715V106.646C159.715 105.414 159.169 104.686 158.133 104.686C157.153 104.686 156.383 105.498 156.383 106.744V111ZM171.98 111V109.852C171.518 110.678 170.692 111.14 169.6 111.14C168.06 111.14 167.052 110.258 167.052 108.9C167.052 107.444 168.214 106.688 170.426 106.688C170.86 106.688 171.21 106.702 171.812 106.772V106.226C171.812 105.162 171.238 104.56 170.258 104.56C169.222 104.56 168.592 105.176 168.55 106.212H167.262C167.332 104.546 168.522 103.44 170.258 103.44C172.092 103.44 173.156 104.476 173.156 106.24V111H171.98ZM168.396 108.858C168.396 109.628 168.97 110.132 169.88 110.132C171.07 110.132 171.812 109.39 171.812 108.256V107.654C171.266 107.584 170.874 107.57 170.51 107.57C169.096 107.57 168.396 107.99 168.396 108.858ZM176.489 101.858C176.489 102.39 176.069 102.796 175.467 102.796C174.865 102.796 174.431 102.39 174.431 101.858C174.431 101.312 174.865 100.92 175.467 100.92C176.069 100.92 176.489 101.312 176.489 101.858ZM176.181 111H174.767V103.58H176.181V111ZM179.292 111H177.864V100.948H179.292V111ZM184.026 111.14C181.884 111.14 180.442 109.586 180.442 107.248C180.442 105.05 181.94 103.44 183.984 103.44C186.196 103.44 187.666 105.232 187.414 107.64H181.884C181.996 109.152 182.752 110.034 183.998 110.034C185.048 110.034 185.776 109.46 186.014 108.494H187.414C187.05 110.146 185.776 111.14 184.026 111.14ZM183.956 104.504C182.822 104.504 182.052 105.316 181.898 106.702H185.916C185.846 105.33 185.104 104.504 183.956 104.504ZM190.052 107.206V111H188.638V103.58H189.954V105.148C190.472 104.126 191.592 103.482 192.81 103.482V104.952C191.214 104.868 190.052 105.568 190.052 107.206ZM199.529 108.788C199.529 110.244 198.395 111.14 196.421 111.14C194.461 111.14 193.299 110.174 193.159 108.578H194.517C194.573 109.502 195.315 110.076 196.449 110.076C197.443 110.076 198.101 109.726 198.101 109.026C198.101 108.41 197.723 108.144 196.799 107.962L195.595 107.738C194.223 107.472 193.453 106.772 193.453 105.652C193.453 104.35 194.587 103.44 196.309 103.44C198.087 103.44 199.291 104.392 199.417 105.918H198.059C197.975 105.022 197.317 104.504 196.323 104.504C195.427 104.504 194.825 104.882 194.825 105.526C194.825 106.128 195.203 106.408 196.099 106.576L197.359 106.814C198.829 107.08 199.529 107.724 199.529 108.788ZM66.6706 125.116C66.6706 126.95 65.3266 128 63.2406 128H59.5586V117.948H63.0446C65.0746 117.948 66.2926 118.886 66.2926 120.58C66.2926 121.532 65.7186 122.344 64.7526 122.764C65.9986 123.114 66.6706 123.968 66.6706 125.116ZM62.9466 119.18H60.9726V122.204H62.9466C64.1646 122.204 64.8226 121.63 64.8226 120.692C64.8226 119.754 64.1646 119.18 62.9466 119.18ZM63.1426 123.436H60.9726V126.768H63.1426C64.4586 126.768 65.2006 126.138 65.2006 125.074C65.2006 124.052 64.4586 123.436 63.1426 123.436ZM69.4674 124.206V128H68.0534V120.58H69.3694V122.148C69.8874 121.126 71.0074 120.482 72.2254 120.482V121.952C70.6294 121.868 69.4674 122.568 69.4674 124.206ZM77.5584 128V126.852C77.0964 127.678 76.2704 128.14 75.1784 128.14C73.6384 128.14 72.6304 127.258 72.6304 125.9C72.6304 124.444 73.7924 123.688 76.0044 123.688C76.4384 123.688 76.7884 123.702 77.3904 123.772V123.226C77.3904 122.162 76.8164 121.56 75.8364 121.56C74.8004 121.56 74.1704 122.176 74.1284 123.212H72.8404C72.9104 121.546 74.1004 120.44 75.8364 120.44C77.6704 120.44 78.7344 121.476 78.7344 123.24V128H77.5584ZM73.9744 125.858C73.9744 126.628 74.5484 127.132 75.4584 127.132C76.6484 127.132 77.3904 126.39 77.3904 125.256V124.654C76.8444 124.584 76.4524 124.57 76.0884 124.57C74.6744 124.57 73.9744 124.99 73.9744 125.858ZM81.7589 123.814V128H80.3449V120.58H81.6609V121.812C82.1649 120.986 83.0049 120.44 84.0269 120.44C85.5529 120.44 86.5609 121.42 86.5609 123.198V128H85.1469V123.674C85.1469 122.4 84.5869 121.686 83.5369 121.686C82.5709 121.686 81.7589 122.498 81.7589 123.814ZM87.6267 124.29C87.6267 122.036 88.9147 120.44 90.9167 120.44C91.9107 120.44 92.7787 120.944 93.2967 121.854V117.948H94.7107V128H93.3947V126.67C92.8627 127.608 91.9667 128.14 90.9167 128.14C88.9147 128.14 87.6267 126.516 87.6267 124.29ZM89.0967 124.29C89.0967 125.942 89.9647 126.88 91.1967 126.88C92.4007 126.88 93.2967 125.9 93.2967 124.262C93.2967 122.596 92.3727 121.686 91.1967 121.686C89.9647 121.686 89.0967 122.61 89.0967 124.29ZM98.1182 118.858C98.1182 119.39 97.6982 119.796 97.0962 119.796C96.4942 119.796 96.0602 119.39 96.0602 118.858C96.0602 118.312 96.4942 117.92 97.0962 117.92C97.6982 117.92 98.1182 118.312 98.1182 118.858ZM97.8102 128H96.3962V120.58H97.8102V128ZM100.907 123.814V128H99.4932V120.58H100.809V121.812C101.313 120.986 102.153 120.44 103.175 120.44C104.701 120.44 105.709 121.42 105.709 123.198V128H104.295V123.674C104.295 122.4 103.735 121.686 102.685 121.686C101.719 121.686 100.907 122.498 100.907 123.814ZM110.275 130.856C108.329 130.856 107.069 129.82 106.985 128.14H108.357C108.441 129.176 109.113 129.736 110.261 129.736C111.535 129.736 112.207 129.05 112.207 127.776V126.432C111.787 127.328 110.947 127.846 109.939 127.846C108.091 127.846 106.775 126.32 106.775 124.136C106.775 121.924 108.035 120.44 109.897 120.44C110.961 120.44 111.801 120.958 112.305 121.896V120.58H113.621V127.748C113.621 129.694 112.375 130.856 110.275 130.856ZM108.203 124.136C108.203 125.676 108.959 126.614 110.191 126.614C111.395 126.614 112.207 125.648 112.207 124.178C112.207 122.638 111.409 121.658 110.191 121.658C108.973 121.658 108.203 122.61 108.203 124.136ZM122.438 128.21C119.638 128.21 117.468 125.928 117.468 122.96C117.468 120.006 119.638 117.738 122.438 117.738C124.958 117.738 126.974 119.418 127.352 121.896H125.714C125.434 120.272 124.118 119.124 122.452 119.124C120.464 119.124 119.064 120.734 119.064 122.96C119.064 125.214 120.464 126.824 122.452 126.824C124.118 126.824 125.434 125.662 125.714 124.038H127.352C126.974 126.53 124.958 128.21 122.438 128.21ZM131.669 128.14C129.569 128.14 128.029 126.488 128.029 124.29C128.029 122.092 129.569 120.44 131.669 120.44C133.769 120.44 135.309 122.092 135.309 124.29C135.309 126.488 133.769 128.14 131.669 128.14ZM131.669 126.894C132.887 126.894 133.853 125.914 133.853 124.29C133.853 122.666 132.887 121.7 131.669 121.7C130.451 121.7 129.499 122.666 129.499 124.29C129.499 125.914 130.451 126.894 131.669 126.894ZM137.898 128H136.47V117.948H137.898V128ZM141.009 128H139.581V117.948H141.009V128ZM147.185 128V126.852C146.723 127.678 145.897 128.14 144.805 128.14C143.265 128.14 142.257 127.258 142.257 125.9C142.257 124.444 143.419 123.688 145.631 123.688C146.065 123.688 146.415 123.702 147.017 123.772V123.226C147.017 122.162 146.443 121.56 145.463 121.56C144.427 121.56 143.797 122.176 143.755 123.212H142.467C142.537 121.546 143.727 120.44 145.463 120.44C147.297 120.44 148.361 121.476 148.361 123.24V128H147.185ZM143.601 125.858C143.601 126.628 144.175 127.132 145.085 127.132C146.275 127.132 147.017 126.39 147.017 125.256V124.654C146.471 124.584 146.079 124.57 145.715 124.57C144.301 124.57 143.601 124.99 143.601 125.858ZM154.09 126.628V127.874C153.656 128.07 153.278 128.14 152.83 128.14C151.458 128.14 150.506 127.398 150.506 125.76V121.784H148.868V120.58H150.506V118.382H151.92V120.58H154.16V121.784H151.92V125.438C151.92 126.46 152.41 126.824 153.166 126.824C153.502 126.824 153.796 126.768 154.09 126.628ZM158.076 128.14C155.934 128.14 154.492 126.586 154.492 124.248C154.492 122.05 155.99 120.44 158.034 120.44C160.246 120.44 161.716 122.232 161.464 124.64H155.934C156.046 126.152 156.802 127.034 158.048 127.034C159.098 127.034 159.826 126.46 160.064 125.494H161.464C161.1 127.146 159.826 128.14 158.076 128.14ZM158.006 121.504C156.872 121.504 156.102 122.316 155.948 123.702H159.966C159.896 122.33 159.154 121.504 158.006 121.504ZM164.101 124.206V128H162.687V120.58H164.003V122.148C164.521 121.126 165.641 120.482 166.859 120.482V121.952C165.263 121.868 164.101 122.568 164.101 124.206ZM172.192 128V126.852C171.73 127.678 170.904 128.14 169.812 128.14C168.272 128.14 167.264 127.258 167.264 125.9C167.264 124.444 168.426 123.688 170.638 123.688C171.072 123.688 171.422 123.702 172.024 123.772V123.226C172.024 122.162 171.45 121.56 170.47 121.56C169.434 121.56 168.804 122.176 168.762 123.212H167.474C167.544 121.546 168.734 120.44 170.47 120.44C172.304 120.44 173.368 121.476 173.368 123.24V128H172.192ZM168.608 125.858C168.608 126.628 169.182 127.132 170.092 127.132C171.282 127.132 172.024 126.39 172.024 125.256V124.654C171.478 124.584 171.086 124.57 170.722 124.57C169.308 124.57 168.608 124.99 168.608 125.858ZM176.407 128H174.979V117.948H176.407V128ZM183.97 125.788C183.97 127.244 182.836 128.14 180.862 128.14C178.902 128.14 177.74 127.174 177.6 125.578H178.958C179.014 126.502 179.756 127.076 180.89 127.076C181.884 127.076 182.542 126.726 182.542 126.026C182.542 125.41 182.164 125.144 181.24 124.962L180.036 124.738C178.664 124.472 177.894 123.772 177.894 122.652C177.894 121.35 179.028 120.44 180.75 120.44C182.528 120.44 183.732 121.392 183.858 122.918H182.5C182.416 122.022 181.758 121.504 180.764 121.504C179.868 121.504 179.266 121.882 179.266 122.526C179.266 123.128 179.644 123.408 180.54 123.576L181.8 123.814C183.27 124.08 183.97 124.724 183.97 125.788Z" fill="#1A1A1A"/>
<path d="M87.4112 0.179042C91.267 -0.0596844 96.7381 -0.0596771 100.594 0.179042C103.613 0.366402 106.53 1.43032 108.974 3.07943C111.524 1.2993 114.502 0.356144 117.639 0.176113L119.129 0.103847C122.74 -0.0419116 127.199 -0.0259945 130.561 0.177089H130.565C133.456 0.35334 136.479 1.25151 139.11 3.07553C141.545 1.42721 144.449 0.366697 147.475 0.179042L148.99 0.100917C152.673 -0.0557735 157.285 -0.029873 160.659 0.179042C162.681 0.304411 164.514 0.730918 166.15 1.39389C167.383 0.618266 168.841 0.16835 170.404 0.1683H172.993L173.386 0.178066C175.344 0.274307 177.205 1.08721 178.608 2.47006L178.77 2.62924C180.295 4.13274 181.154 6.18548 181.154 8.32748V13.1097H188.786C191.117 10.771 194.743 10.047 197.872 11.5267L200.411 12.7279C203.547 14.2109 205.364 17.5428 204.925 20.9749C204.923 20.9873 204.923 20.9997 204.921 21.0121C204.918 21.0375 204.913 21.0628 204.909 21.0882C204.897 21.1795 204.884 21.2709 204.868 21.3617C204.661 22.547 204.224 23.4223 204.147 23.5814C203.986 23.9127 203.829 24.183 203.731 24.348C203.527 24.6882 203.32 24.9942 203.174 25.2044C202.926 25.5597 202.527 26.1057 202.153 26.5335L202.149 26.5374C200.072 28.9147 197.061 30.7348 194.008 31.4798C193.855 31.5172 193.7 31.5502 193.545 31.5785L191.949 31.8685C191.476 31.9547 190.996 31.9984 190.516 31.9984H170.351C168.848 31.9984 167.391 31.5735 166.135 30.7943C164.625 31.4054 162.946 31.8154 161.103 31.971C160.879 31.9899 160.654 31.9994 160.43 31.9994H147.704C147.339 31.9993 146.973 31.975 146.611 31.9251C144.339 31.6117 141.621 30.8909 139.054 29.1165C136.599 30.7983 133.74 31.7564 130.97 31.974C130.762 31.9903 130.553 31.9993 130.344 31.9994H118.491C117.448 31.9994 116.404 31.8969 115.373 31.6917C114.382 31.4951 111.681 30.913 108.996 29.139C106.546 30.7893 103.646 31.7504 101.038 31.971C100.814 31.99 100.589 31.9993 100.364 31.9994H87.6387C87.3772 31.9994 87.118 31.9843 86.8614 31.9593V31.9613C86.841 31.9593 86.8202 31.9565 86.7999 31.9544C86.7598 31.9502 86.7197 31.9456 86.6798 31.9408C84.9621 31.7564 83.3889 31.3549 81.9649 30.7747C80.7019 31.5661 79.2333 31.9983 77.7188 31.9984H75.0225C74.6045 31.9984 74.1901 31.9637 73.7823 31.8997C73.3748 31.9637 72.9607 31.9984 72.543 31.9984H53.4669C52.0441 31.9984 50.4996 31.851 48.9093 31.4603C48.918 31.4622 48.9275 31.464 48.9376 31.4662C48.9085 31.4598 48.8834 31.4541 48.8634 31.4496C48.773 31.4271 48.6816 31.4072 48.5909 31.3831C48.577 31.3795 48.5628 31.3761 48.5489 31.3724C39.4054 28.9112 36.2276 20.5618 37.1544 13.9124C38.0368 7.58226 43.1157 0.1683 52.3233 0.1683H72.4893L72.8995 0.178066C73.1985 0.193184 73.4929 0.226701 73.7823 0.273769C74.2036 0.205233 74.6357 0.168306 75.0762 0.1683H77.6651L78.0753 0.178066C79.4839 0.249295 80.7957 0.687038 81.92 1.39486C83.5581 0.730798 85.3918 0.304191 87.4112 0.179042ZM48.8048 31.4369C48.8162 31.4396 48.8344 31.4435 48.8565 31.4486C48.8587 31.4491 48.8611 31.449 48.8634 31.4496C48.8728 31.4519 48.8822 31.4541 48.8917 31.4564C48.8663 31.4507 48.8447 31.4463 48.8292 31.4427C48.8119 31.4387 48.798 31.4356 48.7911 31.4339L48.8048 31.4369ZM204.911 21.0892C204.915 21.0635 204.918 21.0377 204.921 21.0121C204.923 21.0001 204.925 20.9878 204.927 20.9759C204.923 21.0098 204.917 21.0483 204.911 21.0892Z" fill="#E6E2DE"/>
<path fill-rule="evenodd" clip-rule="evenodd" d="M87.9051 8.16426C91.4316 7.94591 96.5723 7.94592 100.099 8.16426C103.88 8.39884 107.913 11.509 107.913 15.4956V17.4754H83.5957C82.8918 17.4758 83.7058 18.7528 83.884 19.0082C84.6232 20.0719 86.0536 20.9809 87.3723 21.1106C90.4888 21.4197 96.3124 21.3454 99.17 21.2848C100.6 21.2545 101.999 20.8091 103.154 19.9637C103.475 19.7292 103.825 19.4619 103.995 19.2145C104.12 19.2254 106.279 20.6583 106.302 20.6739C106.302 20.6739 105.779 21.4434 105.503 21.7161C104.236 22.9679 102.14 23.8502 100.364 24.0005H87.6387L87.6395 23.9997C77.636 23.0213 77.7008 8.79666 87.9051 8.16426ZM99.8254 10.8346C96 10.7914 91.8612 10.6915 88.1199 10.9456C84.9161 11.1628 83.2015 13.5608 83.3223 14.6019C83.3287 14.657 83.375 14.6995 83.4301 14.6995V14.698H104.566C104.609 14.6979 104.65 14.6733 104.666 14.6323C104.901 14.0292 103.311 10.8737 99.8254 10.8346Z" fill="#1A1A1A"/>
<path fill-rule="evenodd" clip-rule="evenodd" d="M147.969 8.16426C151.496 7.9459 156.637 7.9459 160.164 8.16426C170.432 8.80099 170.397 23.1593 160.429 24.0005H147.704C145.988 23.7638 144.404 23.2471 143.066 22.1294C142.868 21.9629 142.016 21.1842 141.837 20.7723L144.182 19.2809C144.821 20.151 146.158 20.9768 147.23 21.1012C151.433 21.5877 156.513 20.7606 160.807 21.1129C161.86 20.8903 163.043 20.3629 163.768 19.5621C163.926 19.387 165.297 17.4759 164.581 17.4754H140.156V15.6027C140.156 11.5718 144.115 8.40332 147.969 8.16426ZM159.841 10.944C156.51 10.7386 151.506 10.7199 148.186 10.9448C146.362 11.0691 144.589 11.9192 143.697 13.5526C143.347 14.1935 143.05 14.632 143.979 14.698C150.5 15.1639 157.576 14.3348 164.154 14.698L164.729 14.573C164.828 14.1947 164.601 13.8682 164.437 13.5526C163.557 11.8554 161.698 11.0597 159.841 10.944Z" fill="#1A1A1A"/>
<path d="M118.098 8.16348C121.611 7.96133 126.571 7.9516 130.078 8.16348C132.331 8.30082 134.46 9.19475 135.947 10.8995C136.172 11.1561 137.205 12.5332 137.267 13.0401L134.66 13.9456C134.335 13.3857 133.777 12.8808 133.157 12.4495C131.639 11.3923 129.84 10.6696 127.993 10.7323C124.638 10.8458 118.246 10.426 115.926 11.4635C115.446 11.6787 113.704 12.7153 114.897 13.0612L138 17.1543C137.52 18.6416 136.991 20.0718 135.947 21.2684C134.574 22.8445 132.437 23.8353 130.343 23.9997H118.491C117.967 23.9997 117.444 23.9485 116.929 23.8458C115.359 23.5344 112.023 22.6135 110.881 19.1457L113.437 18.2059C113.538 18.4231 113.688 18.6396 113.87 18.8504C114.052 19.0623 114.269 19.2674 114.503 19.4653C115.887 20.6317 117.645 21.258 119.454 21.2926C122.415 21.3499 127.778 21.4017 130.72 21.1098C131.351 21.0479 133.654 20.2035 133.586 19.4567L133.408 19.1942L110.069 15.0128C111.127 10.9968 113.814 8.40889 118.098 8.16348Z" fill="#1A1A1A"/>
<path fill-rule="evenodd" clip-rule="evenodd" d="M72.5426 23.9989H53.4668C52.5161 23.9989 51.5643 23.8963 50.6449 23.652C50.6396 23.651 50.633 23.6492 50.6277 23.6481C41.8004 21.272 44.0892 8.16895 52.323 8.16895H72.4887L72.5426 23.9989ZM69.9965 10.9456C69.9231 10.9434 58.1225 10.5889 52.8566 10.9456C47.3889 11.3166 46.1441 17.3704 49.6199 20.0481C50.5295 20.7485 51.6596 21.1007 52.8066 21.0997L69.9965 21.0942V10.9456Z" fill="#1A1A1A"/>
<path d="M77.7184 23.9989H75.0223L75.0762 8.16895H77.6644L77.7184 23.9989Z" fill="#1A1A1A"/>
<path d="M173.154 8.32833V20.9504L173.316 21.1106H191.109C191.232 21.1104 192.205 20.7557 192.39 20.67C193.179 20.3024 194.03 19.5413 194.452 18.7598L196.991 19.9606C196.99 19.968 196.989 19.9755 196.988 19.984C196.951 20.1937 196.306 21.0674 196.126 21.2739C195.139 22.4023 193.573 23.3515 192.111 23.7083L190.515 23.9989H170.351L170.404 8.16895H172.993L173.154 8.32833Z" fill="#1A1A1A"/>
</svg>
