<svg width="242" height="240" viewBox="0 0 242 240" fill="none" xmlns="http://www.w3.org/2000/svg">
<rect y="80" width="242" height="160" rx="12" fill="#E6E2DE"/>
<path d="M103.5 155H99.4199V143.512H103.5C107.148 143.512 109.356 145.848 109.356 149.192C109.356 152.536 107.068 155 103.5 155ZM101.852 145.608V152.904H103.372C105.66 152.904 106.86 151.576 106.86 149.192C106.86 146.904 105.66 145.608 103.372 145.608H101.852ZM113.269 144.472C113.269 145.224 112.661 145.784 111.781 145.784C110.917 145.784 110.309 145.224 110.309 144.472C110.309 143.688 110.917 143.128 111.781 143.128C112.661 143.128 113.269 143.688 113.269 144.472ZM112.917 155H110.693V146.456H112.917V155ZM118.448 155.144C115.888 155.144 114.176 153.368 114.176 150.696C114.176 148.152 115.952 146.296 118.416 146.296C121.12 146.296 122.912 148.488 122.512 151.272H116.448C116.592 152.664 117.264 153.432 118.4 153.432C119.376 153.432 120.032 152.952 120.288 152.104H122.496C122.016 154.04 120.528 155.144 118.448 155.144ZM118.368 147.928C117.328 147.928 116.672 148.6 116.48 149.864H120.16C120.096 148.68 119.424 147.928 118.368 147.928ZM131.058 152.264C131.058 154.056 129.698 155.16 127.266 155.16C124.834 155.16 123.474 153.992 123.298 152.088H125.426C125.442 152.968 126.194 153.528 127.298 153.528C128.162 153.528 128.818 153.256 128.818 152.648C128.818 152.104 128.466 151.88 127.65 151.72L126.114 151.432C124.578 151.16 123.65 150.312 123.65 148.984C123.65 147.4 125.01 146.296 127.138 146.296C129.282 146.296 130.754 147.432 130.914 149.272H128.786C128.706 148.44 128.082 147.928 127.138 147.928C126.322 147.928 125.778 148.232 125.778 148.776C125.778 149.288 126.13 149.496 126.898 149.64L128.546 149.944C130.21 150.264 131.058 151.032 131.058 152.264ZM136.128 155.144C133.568 155.144 131.856 153.368 131.856 150.696C131.856 148.152 133.632 146.296 136.096 146.296C138.8 146.296 140.592 148.488 140.192 151.272H134.128C134.272 152.664 134.944 153.432 136.08 153.432C137.056 153.432 137.712 152.952 137.968 152.104H140.176C139.696 154.04 138.208 155.144 136.128 155.144ZM136.048 147.928C135.008 147.928 134.352 148.6 134.16 149.864H137.84C137.776 148.68 137.104 147.928 136.048 147.928ZM143.762 155H141.522V143.512H143.762V155Z" fill="#1A1A1A"/>
<path d="M51.6575 175L49.5295 167.118L47.3875 175H45.8055L43.1875 164.948H44.6995L46.6315 172.69L48.7455 164.948H50.3415L52.4275 172.704L54.3595 164.948H55.8715L53.2535 175H51.6575ZM59.2786 175.14C57.1366 175.14 55.6946 173.586 55.6946 171.248C55.6946 169.05 57.1926 167.44 59.2366 167.44C61.4486 167.44 62.9186 169.232 62.6666 171.64H57.1366C57.2486 173.152 58.0046 174.034 59.2506 174.034C60.3006 174.034 61.0286 173.46 61.2666 172.494H62.6666C62.3026 174.146 61.0286 175.14 59.2786 175.14ZM59.2086 168.504C58.0746 168.504 57.3046 169.316 57.1506 170.702H61.1686C61.0986 169.33 60.3566 168.504 59.2086 168.504ZM70.974 171.29C70.974 173.516 69.686 175.14 67.684 175.14C66.634 175.14 65.738 174.608 65.206 173.67V175H63.89V164.948H65.304V168.854C65.822 167.944 66.676 167.44 67.684 167.44C69.672 167.44 70.974 169.036 70.974 171.29ZM69.504 171.29C69.504 169.61 68.622 168.686 67.404 168.686C66.228 168.686 65.304 169.596 65.304 171.262C65.304 172.9 66.2 173.88 67.404 173.88C68.622 173.88 69.504 172.942 69.504 171.29ZM78.0076 172.788C78.0076 174.244 76.8736 175.14 74.8996 175.14C72.9396 175.14 71.7776 174.174 71.6376 172.578H72.9956C73.0516 173.502 73.7936 174.076 74.9276 174.076C75.9216 174.076 76.5796 173.726 76.5796 173.026C76.5796 172.41 76.2016 172.144 75.2776 171.962L74.0736 171.738C72.7016 171.472 71.9316 170.772 71.9316 169.652C71.9316 168.35 73.0656 167.44 74.7876 167.44C76.5656 167.44 77.7696 168.392 77.8956 169.918H76.5376C76.4536 169.022 75.7956 168.504 74.8016 168.504C73.9056 168.504 73.3036 168.882 73.3036 169.526C73.3036 170.128 73.6816 170.408 74.5776 170.576L75.8376 170.814C77.3076 171.08 78.0076 171.724 78.0076 172.788ZM80.9934 165.858C80.9934 166.39 80.5734 166.796 79.9714 166.796C79.3694 166.796 78.9354 166.39 78.9354 165.858C78.9354 165.312 79.3694 164.92 79.9714 164.92C80.5734 164.92 80.9934 165.312 80.9934 165.858ZM80.6854 175H79.2714V167.58H80.6854V175ZM86.5544 173.628V174.874C86.1204 175.07 85.7424 175.14 85.2944 175.14C83.9224 175.14 82.9704 174.398 82.9704 172.76V168.784H81.3324V167.58H82.9704V165.382H84.3844V167.58H86.6244V168.784H84.3844V172.438C84.3844 173.46 84.8744 173.824 85.6304 173.824C85.9664 173.824 86.2604 173.768 86.5544 173.628ZM90.5408 175.14C88.3988 175.14 86.9568 173.586 86.9568 171.248C86.9568 169.05 88.4548 167.44 90.4988 167.44C92.7108 167.44 94.1808 169.232 93.9288 171.64H88.3988C88.5108 173.152 89.2668 174.034 90.5128 174.034C91.5628 174.034 92.2908 173.46 92.5288 172.494H93.9288C93.5648 174.146 92.2908 175.14 90.5408 175.14ZM90.4708 168.504C89.3368 168.504 88.5668 169.316 88.4128 170.702H92.4308C92.3608 169.33 91.6188 168.504 90.4708 168.504ZM101.088 175H97.9099V164.948H101.088C104.294 164.948 106.142 166.992 106.142 169.932C106.142 172.83 104.224 175 101.088 175ZM99.4499 166.278V173.67H101.018C103.328 173.67 104.574 172.242 104.574 169.932C104.574 167.664 103.342 166.278 101.018 166.278H99.4499ZM110.414 175.14C108.272 175.14 106.83 173.586 106.83 171.248C106.83 169.05 108.328 167.44 110.372 167.44C112.584 167.44 114.054 169.232 113.802 171.64H108.272C108.384 173.152 109.14 174.034 110.386 174.034C111.436 174.034 112.164 173.46 112.402 172.494H113.802C113.438 174.146 112.164 175.14 110.414 175.14ZM110.344 168.504C109.21 168.504 108.44 169.316 108.286 170.702H112.304C112.234 169.33 111.492 168.504 110.344 168.504ZM120.905 172.788C120.905 174.244 119.771 175.14 117.797 175.14C115.837 175.14 114.675 174.174 114.535 172.578H115.893C115.949 173.502 116.691 174.076 117.825 174.076C118.819 174.076 119.477 173.726 119.477 173.026C119.477 172.41 119.099 172.144 118.175 171.962L116.971 171.738C115.599 171.472 114.829 170.772 114.829 169.652C114.829 168.35 115.963 167.44 117.685 167.44C119.463 167.44 120.667 168.392 120.793 169.918H119.435C119.351 169.022 118.693 168.504 117.699 168.504C116.803 168.504 116.201 168.882 116.201 169.526C116.201 170.128 116.579 170.408 117.475 170.576L118.735 170.814C120.205 171.08 120.905 171.724 120.905 172.788ZM123.891 165.858C123.891 166.39 123.471 166.796 122.869 166.796C122.267 166.796 121.833 166.39 121.833 165.858C121.833 165.312 122.267 164.92 122.869 164.92C123.471 164.92 123.891 165.312 123.891 165.858ZM123.583 175H122.169V167.58H123.583V175ZM128.234 177.856C126.288 177.856 125.028 176.82 124.944 175.14H126.316C126.4 176.176 127.072 176.736 128.22 176.736C129.494 176.736 130.166 176.05 130.166 174.776V173.432C129.746 174.328 128.906 174.846 127.898 174.846C126.05 174.846 124.734 173.32 124.734 171.136C124.734 168.924 125.994 167.44 127.856 167.44C128.92 167.44 129.76 167.958 130.264 168.896V167.58H131.58V174.748C131.58 176.694 130.334 177.856 128.234 177.856ZM126.162 171.136C126.162 172.676 126.918 173.614 128.15 173.614C129.354 173.614 130.166 172.648 130.166 171.178C130.166 169.638 129.368 168.658 128.15 168.658C126.932 168.658 126.162 169.61 126.162 171.136ZM134.671 170.814V175H133.257V167.58H134.573V168.812C135.077 167.986 135.917 167.44 136.939 167.44C138.465 167.44 139.473 168.42 139.473 170.198V175H138.059V170.674C138.059 169.4 137.499 168.686 136.449 168.686C135.483 168.686 134.671 169.498 134.671 170.814ZM142.989 174.398C142.989 175.728 141.939 176.764 140.399 176.792V175.994C141.309 175.966 141.925 175.476 142.009 174.79C141.883 174.832 141.799 174.846 141.701 174.846C141.169 174.846 140.777 174.412 140.777 173.894C140.777 173.292 141.225 172.9 141.799 172.9C142.569 172.9 142.989 173.46 142.989 174.398ZM153.556 173.656V175H147.186V164.948H153.458V166.292H148.726V169.148H153.038V170.492H148.726V173.656H153.556ZM156.383 175H154.969V167.58H156.285V168.812C156.789 167.958 157.587 167.44 158.609 167.44C159.701 167.44 160.527 168 160.863 168.98C161.381 168.028 162.235 167.44 163.369 167.44C164.895 167.44 165.875 168.434 165.875 170.198V175H164.461V170.646C164.461 169.414 163.915 168.686 162.879 168.686C161.913 168.686 161.129 169.498 161.129 170.744V175H159.715V170.646C159.715 169.414 159.169 168.686 158.133 168.686C157.153 168.686 156.383 169.498 156.383 170.744V175ZM171.98 175V173.852C171.518 174.678 170.692 175.14 169.6 175.14C168.06 175.14 167.052 174.258 167.052 172.9C167.052 171.444 168.214 170.688 170.426 170.688C170.86 170.688 171.21 170.702 171.812 170.772V170.226C171.812 169.162 171.238 168.56 170.258 168.56C169.222 168.56 168.592 169.176 168.55 170.212H167.262C167.332 168.546 168.522 167.44 170.258 167.44C172.092 167.44 173.156 168.476 173.156 170.24V175H171.98ZM168.396 172.858C168.396 173.628 168.97 174.132 169.88 174.132C171.07 174.132 171.812 173.39 171.812 172.256V171.654C171.266 171.584 170.874 171.57 170.51 171.57C169.096 171.57 168.396 171.99 168.396 172.858ZM176.489 165.858C176.489 166.39 176.069 166.796 175.467 166.796C174.865 166.796 174.431 166.39 174.431 165.858C174.431 165.312 174.865 164.92 175.467 164.92C176.069 164.92 176.489 165.312 176.489 165.858ZM176.181 175H174.767V167.58H176.181V175ZM179.292 175H177.864V164.948H179.292V175ZM184.026 175.14C181.884 175.14 180.442 173.586 180.442 171.248C180.442 169.05 181.94 167.44 183.984 167.44C186.196 167.44 187.666 169.232 187.414 171.64H181.884C181.996 173.152 182.752 174.034 183.998 174.034C185.048 174.034 185.776 173.46 186.014 172.494H187.414C187.05 174.146 185.776 175.14 184.026 175.14ZM183.956 168.504C182.822 168.504 182.052 169.316 181.898 170.702H185.916C185.846 169.33 185.104 168.504 183.956 168.504ZM190.052 171.206V175H188.638V167.58H189.954V169.148C190.472 168.126 191.592 167.482 192.81 167.482V168.952C191.214 168.868 190.052 169.568 190.052 171.206ZM199.529 172.788C199.529 174.244 198.395 175.14 196.421 175.14C194.461 175.14 193.299 174.174 193.159 172.578H194.517C194.573 173.502 195.315 174.076 196.449 174.076C197.443 174.076 198.101 173.726 198.101 173.026C198.101 172.41 197.723 172.144 196.799 171.962L195.595 171.738C194.223 171.472 193.453 170.772 193.453 169.652C193.453 168.35 194.587 167.44 196.309 167.44C198.087 167.44 199.291 168.392 199.417 169.918H198.059C197.975 169.022 197.317 168.504 196.323 168.504C195.427 168.504 194.825 168.882 194.825 169.526C194.825 170.128 195.203 170.408 196.099 170.576L197.359 170.814C198.829 171.08 199.529 171.724 199.529 172.788ZM66.6706 189.116C66.6706 190.95 65.3266 192 63.2406 192H59.5586V181.948H63.0446C65.0746 181.948 66.2926 182.886 66.2926 184.58C66.2926 185.532 65.7186 186.344 64.7526 186.764C65.9986 187.114 66.6706 187.968 66.6706 189.116ZM62.9466 183.18H60.9726V186.204H62.9466C64.1646 186.204 64.8226 185.63 64.8226 184.692C64.8226 183.754 64.1646 183.18 62.9466 183.18ZM63.1426 187.436H60.9726V190.768H63.1426C64.4586 190.768 65.2006 190.138 65.2006 189.074C65.2006 188.052 64.4586 187.436 63.1426 187.436ZM69.4674 188.206V192H68.0534V184.58H69.3694V186.148C69.8874 185.126 71.0074 184.482 72.2254 184.482V185.952C70.6294 185.868 69.4674 186.568 69.4674 188.206ZM77.5584 192V190.852C77.0964 191.678 76.2704 192.14 75.1784 192.14C73.6384 192.14 72.6304 191.258 72.6304 189.9C72.6304 188.444 73.7924 187.688 76.0044 187.688C76.4384 187.688 76.7884 187.702 77.3904 187.772V187.226C77.3904 186.162 76.8164 185.56 75.8364 185.56C74.8004 185.56 74.1704 186.176 74.1284 187.212H72.8404C72.9104 185.546 74.1004 184.44 75.8364 184.44C77.6704 184.44 78.7344 185.476 78.7344 187.24V192H77.5584ZM73.9744 189.858C73.9744 190.628 74.5484 191.132 75.4584 191.132C76.6484 191.132 77.3904 190.39 77.3904 189.256V188.654C76.8444 188.584 76.4524 188.57 76.0884 188.57C74.6744 188.57 73.9744 188.99 73.9744 189.858ZM81.7589 187.814V192H80.3449V184.58H81.6609V185.812C82.1649 184.986 83.0049 184.44 84.0269 184.44C85.5529 184.44 86.5609 185.42 86.5609 187.198V192H85.1469V187.674C85.1469 186.4 84.5869 185.686 83.5369 185.686C82.5709 185.686 81.7589 186.498 81.7589 187.814ZM87.6267 188.29C87.6267 186.036 88.9147 184.44 90.9167 184.44C91.9107 184.44 92.7787 184.944 93.2967 185.854V181.948H94.7107V192H93.3947V190.67C92.8627 191.608 91.9667 192.14 90.9167 192.14C88.9147 192.14 87.6267 190.516 87.6267 188.29ZM89.0967 188.29C89.0967 189.942 89.9647 190.88 91.1967 190.88C92.4007 190.88 93.2967 189.9 93.2967 188.262C93.2967 186.596 92.3727 185.686 91.1967 185.686C89.9647 185.686 89.0967 186.61 89.0967 188.29ZM98.1182 182.858C98.1182 183.39 97.6982 183.796 97.0962 183.796C96.4942 183.796 96.0602 183.39 96.0602 182.858C96.0602 182.312 96.4942 181.92 97.0962 181.92C97.6982 181.92 98.1182 182.312 98.1182 182.858ZM97.8102 192H96.3962V184.58H97.8102V192ZM100.907 187.814V192H99.4932V184.58H100.809V185.812C101.313 184.986 102.153 184.44 103.175 184.44C104.701 184.44 105.709 185.42 105.709 187.198V192H104.295V187.674C104.295 186.4 103.735 185.686 102.685 185.686C101.719 185.686 100.907 186.498 100.907 187.814ZM110.275 194.856C108.329 194.856 107.069 193.82 106.985 192.14H108.357C108.441 193.176 109.113 193.736 110.261 193.736C111.535 193.736 112.207 193.05 112.207 191.776V190.432C111.787 191.328 110.947 191.846 109.939 191.846C108.091 191.846 106.775 190.32 106.775 188.136C106.775 185.924 108.035 184.44 109.897 184.44C110.961 184.44 111.801 184.958 112.305 185.896V184.58H113.621V191.748C113.621 193.694 112.375 194.856 110.275 194.856ZM108.203 188.136C108.203 189.676 108.959 190.614 110.191 190.614C111.395 190.614 112.207 189.648 112.207 188.178C112.207 186.638 111.409 185.658 110.191 185.658C108.973 185.658 108.203 186.61 108.203 188.136ZM122.438 192.21C119.638 192.21 117.468 189.928 117.468 186.96C117.468 184.006 119.638 181.738 122.438 181.738C124.958 181.738 126.974 183.418 127.352 185.896H125.714C125.434 184.272 124.118 183.124 122.452 183.124C120.464 183.124 119.064 184.734 119.064 186.96C119.064 189.214 120.464 190.824 122.452 190.824C124.118 190.824 125.434 189.662 125.714 188.038H127.352C126.974 190.53 124.958 192.21 122.438 192.21ZM131.669 192.14C129.569 192.14 128.029 190.488 128.029 188.29C128.029 186.092 129.569 184.44 131.669 184.44C133.769 184.44 135.309 186.092 135.309 188.29C135.309 190.488 133.769 192.14 131.669 192.14ZM131.669 190.894C132.887 190.894 133.853 189.914 133.853 188.29C133.853 186.666 132.887 185.7 131.669 185.7C130.451 185.7 129.499 186.666 129.499 188.29C129.499 189.914 130.451 190.894 131.669 190.894ZM137.898 192H136.47V181.948H137.898V192ZM141.009 192H139.581V181.948H141.009V192ZM147.185 192V190.852C146.723 191.678 145.897 192.14 144.805 192.14C143.265 192.14 142.257 191.258 142.257 189.9C142.257 188.444 143.419 187.688 145.631 187.688C146.065 187.688 146.415 187.702 147.017 187.772V187.226C147.017 186.162 146.443 185.56 145.463 185.56C144.427 185.56 143.797 186.176 143.755 187.212H142.467C142.537 185.546 143.727 184.44 145.463 184.44C147.297 184.44 148.361 185.476 148.361 187.24V192H147.185ZM143.601 189.858C143.601 190.628 144.175 191.132 145.085 191.132C146.275 191.132 147.017 190.39 147.017 189.256V188.654C146.471 188.584 146.079 188.57 145.715 188.57C144.301 188.57 143.601 188.99 143.601 189.858ZM154.09 190.628V191.874C153.656 192.07 153.278 192.14 152.83 192.14C151.458 192.14 150.506 191.398 150.506 189.76V185.784H148.868V184.58H150.506V182.382H151.92V184.58H154.16V185.784H151.92V189.438C151.92 190.46 152.41 190.824 153.166 190.824C153.502 190.824 153.796 190.768 154.09 190.628ZM158.076 192.14C155.934 192.14 154.492 190.586 154.492 188.248C154.492 186.05 155.99 184.44 158.034 184.44C160.246 184.44 161.716 186.232 161.464 188.64H155.934C156.046 190.152 156.802 191.034 158.048 191.034C159.098 191.034 159.826 190.46 160.064 189.494H161.464C161.1 191.146 159.826 192.14 158.076 192.14ZM158.006 185.504C156.872 185.504 156.102 186.316 155.948 187.702H159.966C159.896 186.33 159.154 185.504 158.006 185.504ZM164.101 188.206V192H162.687V184.58H164.003V186.148C164.521 185.126 165.641 184.482 166.859 184.482V185.952C165.263 185.868 164.101 186.568 164.101 188.206ZM172.192 192V190.852C171.73 191.678 170.904 192.14 169.812 192.14C168.272 192.14 167.264 191.258 167.264 189.9C167.264 188.444 168.426 187.688 170.638 187.688C171.072 187.688 171.422 187.702 172.024 187.772V187.226C172.024 186.162 171.45 185.56 170.47 185.56C169.434 185.56 168.804 186.176 168.762 187.212H167.474C167.544 185.546 168.734 184.44 170.47 184.44C172.304 184.44 173.368 185.476 173.368 187.24V192H172.192ZM168.608 189.858C168.608 190.628 169.182 191.132 170.092 191.132C171.282 191.132 172.024 190.39 172.024 189.256V188.654C171.478 188.584 171.086 188.57 170.722 188.57C169.308 188.57 168.608 188.99 168.608 189.858ZM176.407 192H174.979V181.948H176.407V192ZM183.97 189.788C183.97 191.244 182.836 192.14 180.862 192.14C178.902 192.14 177.74 191.174 177.6 189.578H178.958C179.014 190.502 179.756 191.076 180.89 191.076C181.884 191.076 182.542 190.726 182.542 190.026C182.542 189.41 182.164 189.144 181.24 188.962L180.036 188.738C178.664 188.472 177.894 187.772 177.894 186.652C177.894 185.35 179.028 184.44 180.75 184.44C182.528 184.44 183.732 185.392 183.858 186.918H182.5C182.416 186.022 181.758 185.504 180.764 185.504C179.868 185.504 179.266 185.882 179.266 186.526C179.266 187.128 179.644 187.408 180.54 187.576L181.8 187.814C183.27 188.08 183.97 188.724 183.97 189.788Z" fill="#1A1A1A"/>
<path d="M87.4112 64.179C91.267 63.9403 96.7381 63.9403 100.594 64.179C103.613 64.3664 106.53 65.4303 108.974 67.0794C111.524 65.2993 114.502 64.3561 117.639 64.1761L119.129 64.1038C122.74 63.9581 127.199 63.974 130.561 64.1771H130.565C133.456 64.3533 136.479 65.2515 139.11 67.0755C141.545 65.4272 144.449 64.3667 147.475 64.179L148.99 64.1009C152.673 63.9442 157.285 63.9701 160.659 64.179C162.681 64.3044 164.514 64.7309 166.15 65.3939C167.383 64.6183 168.841 64.1684 170.404 64.1683H172.993L173.386 64.1781C175.344 64.2743 177.205 65.0872 178.608 66.4701L178.77 66.6292C180.295 68.1327 181.154 70.1855 181.154 72.3275V77.1097H188.786C191.117 74.771 194.743 74.047 197.872 75.5267L200.411 76.7279C203.547 78.2109 205.364 81.5428 204.925 84.9749C204.923 84.9873 204.923 84.9997 204.921 85.0121C204.918 85.0375 204.913 85.0628 204.909 85.0882C204.897 85.1795 204.884 85.2709 204.868 85.3617C204.661 86.547 204.224 87.4223 204.147 87.5814C203.986 87.9127 203.829 88.183 203.731 88.348C203.527 88.6882 203.32 88.9942 203.174 89.2044C202.926 89.5597 202.527 90.1057 202.153 90.5335L202.149 90.5374C200.072 92.9147 197.061 94.7348 194.008 95.4798C193.855 95.5172 193.7 95.5502 193.545 95.5785L191.949 95.8685C191.476 95.9547 190.996 95.9984 190.516 95.9984H170.351C168.848 95.9984 167.391 95.5735 166.135 94.7943C164.625 95.4054 162.946 95.8154 161.103 95.971C160.879 95.9899 160.654 95.9994 160.43 95.9994H147.704C147.339 95.9993 146.973 95.9751 146.611 95.9251C144.339 95.6117 141.621 94.8909 139.054 93.1165C136.599 94.7983 133.74 95.7564 130.97 95.974C130.762 95.9903 130.553 95.9994 130.344 95.9994H118.491C117.448 95.9994 116.404 95.8969 115.373 95.6917C114.382 95.4951 111.681 94.913 108.996 93.139C106.546 94.7893 103.646 95.7504 101.038 95.971C100.814 95.99 100.589 95.9993 100.364 95.9994H87.6387C87.3772 95.9994 87.118 95.9843 86.8614 95.9593V95.9613C86.841 95.9593 86.8202 95.9565 86.7999 95.9544C86.7598 95.9502 86.7197 95.9456 86.6798 95.9408C84.9621 95.7564 83.3889 95.3549 81.9649 94.7747C80.7019 95.5661 79.2333 95.9983 77.7188 95.9984H75.0225C74.6045 95.9984 74.1901 95.9637 73.7823 95.8997C73.3748 95.9637 72.9607 95.9984 72.543 95.9984H53.4669C52.0441 95.9984 50.4996 95.851 48.9093 95.4603C48.918 95.4622 48.9275 95.464 48.9376 95.4662C48.9085 95.4598 48.8834 95.4541 48.8634 95.4496C48.773 95.4271 48.6816 95.4072 48.5909 95.3831C48.577 95.3795 48.5628 95.3761 48.5489 95.3724C39.4054 92.9112 36.2276 84.5618 37.1544 77.9124C38.0368 71.5823 43.1157 64.1683 52.3233 64.1683H72.4893L72.8995 64.1781C73.1985 64.1932 73.4929 64.2267 73.7823 64.2738C74.2036 64.2052 74.6356 64.1683 75.0762 64.1683H77.6651L78.0753 64.1781C79.4839 64.2493 80.7957 64.687 81.92 65.3949C83.5581 64.7308 85.3918 64.3042 87.4112 64.179ZM48.8048 95.4369C48.8162 95.4396 48.8344 95.4435 48.8565 95.4486C48.8587 95.4491 48.8611 95.449 48.8634 95.4496C48.8728 95.4519 48.8823 95.4541 48.8917 95.4564C48.8663 95.4507 48.8447 95.4463 48.8292 95.4427C48.8119 95.4387 48.798 95.4356 48.7911 95.4339L48.8048 95.4369ZM204.911 85.0892C204.915 85.0635 204.918 85.0377 204.921 85.0121C204.923 85.0001 204.925 84.9878 204.927 84.9759C204.923 85.0098 204.917 85.0483 204.911 85.0892Z" fill="#E6E2DE"/>
<path fill-rule="evenodd" clip-rule="evenodd" d="M87.9051 72.1643C91.4316 71.9459 96.5723 71.9459 100.099 72.1643C103.88 72.3988 107.913 75.509 107.913 79.4956V81.4754H83.5957C82.8918 81.4758 83.7058 82.7528 83.884 83.0082C84.6232 84.0719 86.0536 84.9809 87.3723 85.1106C90.4888 85.4197 96.3124 85.3453 99.17 85.2848C100.6 85.2545 101.999 84.8091 103.154 83.9637C103.475 83.7292 103.825 83.4619 103.995 83.2145C104.12 83.2254 106.279 84.6583 106.302 84.6739C106.302 84.6739 105.779 85.4434 105.503 85.7161C104.236 86.9679 102.14 87.8502 100.364 88.0005H87.6387L87.6395 87.9997C77.636 87.0213 77.7008 72.7967 87.9051 72.1643ZM99.8254 74.8346C96 74.7914 91.8612 74.6915 88.1199 74.9456C84.9161 75.1628 83.2015 77.5608 83.3223 78.6019C83.3287 78.657 83.375 78.6995 83.4301 78.6995V78.698H104.566C104.609 78.6979 104.65 78.6733 104.666 78.6323C104.901 78.0292 103.311 74.8737 99.8254 74.8346Z" fill="#1A1A1A"/>
<path fill-rule="evenodd" clip-rule="evenodd" d="M147.969 72.1643C151.496 71.9459 156.637 71.9459 160.164 72.1643C170.432 72.801 170.397 87.1593 160.429 88.0005H147.704C145.988 87.7638 144.404 87.2471 143.066 86.1294C142.868 85.9629 142.016 85.1842 141.837 84.7723L144.182 83.2809C144.821 84.151 146.158 84.9768 147.23 85.1012C151.433 85.5877 156.513 84.7606 160.807 85.1129C161.86 84.8903 163.043 84.3629 163.768 83.5621C163.926 83.387 165.297 81.4759 164.581 81.4754H140.156V79.6027C140.156 75.5718 144.115 72.4033 147.969 72.1643ZM159.841 74.944C156.51 74.7386 151.506 74.7199 148.186 74.9448C146.362 75.0691 144.589 75.9192 143.697 77.5526C143.347 78.1935 143.05 78.632 143.979 78.698C150.5 79.1639 157.576 78.3348 164.154 78.698L164.729 78.573C164.828 78.1947 164.601 77.8682 164.437 77.5526C163.557 75.8554 161.698 75.0597 159.841 74.944Z" fill="#1A1A1A"/>
<path d="M118.098 72.1635C121.611 71.9613 126.571 71.9516 130.078 72.1635C132.331 72.3008 134.46 73.1947 135.947 74.8995C136.172 75.1561 137.205 76.5332 137.267 77.0401L134.66 77.9456C134.335 77.3857 133.777 76.8808 133.157 76.4495C131.639 75.3923 129.84 74.6696 127.993 74.7323C124.638 74.8458 118.246 74.426 115.926 75.4635C115.446 75.6787 113.704 76.7153 114.897 77.0612L138 81.1543C137.52 82.6416 136.991 84.0718 135.947 85.2684C134.574 86.8445 132.437 87.8353 130.343 87.9997H118.491C117.967 87.9997 117.444 87.9485 116.929 87.8458C115.359 87.5344 112.023 86.6135 110.881 83.1457L113.437 82.2059C113.538 82.4231 113.688 82.6396 113.87 82.8504C114.052 83.0623 114.269 83.2674 114.503 83.4653C115.887 84.6317 117.645 85.258 119.454 85.2926C122.415 85.3499 127.778 85.4017 130.72 85.1098C131.351 85.0479 133.654 84.2035 133.586 83.4567L133.408 83.1942L110.069 79.0128C111.127 74.9968 113.814 72.4089 118.098 72.1635Z" fill="#1A1A1A"/>
<path fill-rule="evenodd" clip-rule="evenodd" d="M72.5426 87.9989H53.4668C52.5161 87.9989 51.5643 87.8963 50.6449 87.652C50.6396 87.651 50.633 87.6492 50.6277 87.6481C41.8004 85.272 44.0892 72.169 52.323 72.169H72.4887L72.5426 87.9989ZM69.9965 74.9456C69.9231 74.9434 58.1225 74.5889 52.8566 74.9456C47.3889 75.3166 46.1441 81.3704 49.6199 84.0481C50.5295 84.7485 51.6596 85.1007 52.8066 85.0997L69.9965 85.0942V74.9456Z" fill="#1A1A1A"/>
<path d="M77.7184 87.9989H75.0223L75.0762 72.169H77.6644L77.7184 87.9989Z" fill="#1A1A1A"/>
<path d="M173.154 72.3283V84.9504L173.316 85.1106H191.109C191.232 85.1104 192.205 84.7557 192.39 84.67C193.179 84.3024 194.03 83.5413 194.452 82.7598L196.991 83.9606C196.99 83.968 196.989 83.9755 196.988 83.984C196.951 84.1937 196.306 85.0674 196.126 85.2739C195.139 86.4023 193.573 87.3515 192.111 87.7083L190.515 87.9989H170.351L170.404 72.169H172.993L173.154 72.3283Z" fill="#1A1A1A"/>
</svg>
