<svg width="242" height="186" viewBox="0 0 242 186" fill="none" xmlns="http://www.w3.org/2000/svg">
<rect y="26" width="242" height="160" rx="12" fill="#E6E2DE"/>
<path d="M71.7474 101H67.6674V89.512H71.7474C75.3954 89.512 77.6034 91.848 77.6034 95.192C77.6034 98.536 75.3154 101 71.7474 101ZM70.0994 91.608V98.904H71.6194C73.9074 98.904 75.1074 97.576 75.1074 95.192C75.1074 92.904 73.9074 91.608 71.6194 91.608H70.0994ZM81.5164 90.472C81.5164 91.224 80.9084 91.784 80.0284 91.784C79.1644 91.784 78.5564 91.224 78.5564 90.472C78.5564 89.688 79.1644 89.128 80.0284 89.128C80.9084 89.128 81.5164 89.688 81.5164 90.472ZM81.1644 101H78.9404V92.456H81.1644V101ZM85.2076 96.856V101H82.9836V92.456H85.0316V94.104C85.6556 93.016 86.9836 92.36 88.3596 92.36V94.664C86.4716 94.52 85.2076 94.968 85.2076 96.856ZM95.2137 98.84V100.776C94.6697 101.048 94.1577 101.16 93.5017 101.16C91.7417 101.16 90.6377 100.152 90.6377 98.232V94.36H88.9097V92.456H90.6377V89.928H92.8457V92.456H95.2937V94.36H92.8457V97.72C92.8457 98.712 93.2937 99.112 94.0937 99.112C94.5097 99.112 94.8937 99.016 95.2137 98.84ZM105.02 96.728C105.02 99.224 103.532 101.16 101.228 101.16C100.124 101.16 99.1957 100.664 98.5397 99.768V101H96.4917V89.512H98.7157V93.56C99.3397 92.728 100.204 92.296 101.228 92.296C103.532 92.296 105.02 94.2 105.02 96.728ZM102.732 96.728C102.732 95.096 101.82 94.264 100.732 94.264C99.6597 94.264 98.7317 95.08 98.7317 96.696C98.7317 98.312 99.6277 99.176 100.732 99.176C101.82 99.176 102.732 98.328 102.732 96.728ZM111.373 101V99.944C110.813 100.744 109.965 101.16 108.797 101.16C107.021 101.16 105.837 100.12 105.837 98.52C105.837 96.856 107.181 95.96 109.677 95.96C110.157 95.96 110.573 95.992 111.101 96.056V95.544C111.101 94.584 110.557 94.024 109.629 94.024C108.669 94.024 108.093 94.584 108.013 95.544H106.013C106.141 93.576 107.565 92.296 109.629 92.296C111.869 92.296 113.181 93.528 113.181 95.624V101H111.373ZM107.933 98.456C107.933 99.176 108.445 99.624 109.277 99.624C110.413 99.624 111.101 99 111.101 98.008V97.4C110.573 97.32 110.205 97.288 109.821 97.288C108.557 97.288 107.933 97.688 107.933 98.456ZM118.569 104.248C116.265 104.248 114.729 103 114.633 101.032H116.777C116.873 102.008 117.497 102.52 118.553 102.52C119.785 102.52 120.425 101.864 120.425 100.632V99.384C119.961 100.2 119.081 100.68 118.041 100.68C115.945 100.68 114.377 98.904 114.377 96.488C114.377 94.008 115.849 92.296 117.961 92.296C119.113 92.296 119.977 92.744 120.601 93.624V92.456H122.633V100.6C122.633 102.872 121.097 104.248 118.569 104.248ZM116.601 96.488C116.601 97.88 117.321 98.76 118.473 98.76C119.641 98.76 120.409 97.848 120.409 96.504C120.409 95.112 119.641 94.216 118.473 94.216C117.337 94.216 116.601 95.096 116.601 96.488ZM133.104 101.24C129.776 101.24 127.184 98.76 127.184 95.208C127.184 91.816 129.648 89.272 133.008 89.272C135.92 89.272 138 91 138.752 93.496H135.888C135.536 92.328 134.48 91.448 132.944 91.448C131.088 91.448 129.68 92.808 129.68 95.272C129.68 97.48 130.912 99.176 133.216 99.176C134.912 99.176 135.984 98.168 136.304 96.744H132.976V94.808H138.896C139.04 98.552 136.768 101.24 133.104 101.24ZM144.015 101.16C141.535 101.16 139.679 99.208 139.679 96.728C139.679 94.232 141.535 92.296 144.015 92.296C146.495 92.296 148.351 94.232 148.351 96.728C148.351 99.208 146.495 101.16 144.015 101.16ZM144.015 99.192C145.119 99.192 146.063 98.312 146.063 96.728C146.063 95.144 145.119 94.28 144.015 94.28C142.911 94.28 141.967 95.144 141.967 96.728C141.967 98.312 142.911 99.192 144.015 99.192ZM153.386 101.16C150.906 101.16 149.05 99.208 149.05 96.728C149.05 94.232 150.906 92.296 153.386 92.296C155.866 92.296 157.722 94.232 157.722 96.728C157.722 99.208 155.866 101.16 153.386 101.16ZM153.386 99.192C154.49 99.192 155.434 98.312 155.434 96.728C155.434 95.144 154.49 94.28 153.386 94.28C152.282 94.28 151.338 95.144 151.338 96.728C151.338 98.312 152.282 99.192 153.386 99.192ZM158.421 96.728C158.421 94.2 159.909 92.296 162.213 92.296C163.237 92.296 164.101 92.744 164.741 93.56V89.512H166.949V101H164.917V99.768C164.245 100.664 163.317 101.16 162.213 101.16C159.909 101.16 158.421 99.224 158.421 96.728ZM160.709 96.728C160.709 98.328 161.621 99.176 162.709 99.176C163.813 99.176 164.725 98.312 164.725 96.696C164.725 95.08 163.797 94.264 162.709 94.264C161.621 94.264 160.709 95.096 160.709 96.728ZM175.99 98.264C175.99 100.056 174.63 101.16 172.198 101.16C169.766 101.16 168.406 99.992 168.23 98.088H170.358C170.374 98.968 171.126 99.528 172.23 99.528C173.094 99.528 173.75 99.256 173.75 98.648C173.75 98.104 173.398 97.88 172.582 97.72L171.046 97.432C169.51 97.16 168.582 96.312 168.582 94.984C168.582 93.4 169.942 92.296 172.07 92.296C174.214 92.296 175.686 93.432 175.846 95.272H173.718C173.638 94.44 173.014 93.928 172.07 93.928C171.254 93.928 170.71 94.232 170.71 94.776C170.71 95.288 171.062 95.496 171.83 95.64L173.478 95.944C175.142 96.264 175.99 97.032 175.99 98.264Z" fill="#1A1A1A"/>
<path d="M62.9278 118.116C62.9278 119.95 61.5838 121 59.4978 121H55.8158V110.948H59.3018C61.3318 110.948 62.5498 111.886 62.5498 113.58C62.5498 114.532 61.9758 115.344 61.0098 115.764C62.2558 116.114 62.9278 116.968 62.9278 118.116ZM59.2038 112.18H57.2298V115.204H59.2038C60.4218 115.204 61.0798 114.63 61.0798 113.692C61.0798 112.754 60.4218 112.18 59.2038 112.18ZM59.3998 116.436H57.2298V119.768H59.3998C60.7158 119.768 61.4578 119.138 61.4578 118.074C61.4578 117.052 60.7158 116.436 59.3998 116.436ZM65.7246 117.206V121H64.3106V113.58H65.6266V115.148C66.1446 114.126 67.2646 113.482 68.4826 113.482V114.952C66.8866 114.868 65.7246 115.568 65.7246 117.206ZM73.8156 121V119.852C73.3536 120.678 72.5276 121.14 71.4356 121.14C69.8956 121.14 68.8876 120.258 68.8876 118.9C68.8876 117.444 70.0496 116.688 72.2616 116.688C72.6956 116.688 73.0456 116.702 73.6476 116.772V116.226C73.6476 115.162 73.0736 114.56 72.0936 114.56C71.0576 114.56 70.4276 115.176 70.3856 116.212H69.0976C69.1676 114.546 70.3576 113.44 72.0936 113.44C73.9276 113.44 74.9916 114.476 74.9916 116.24V121H73.8156ZM70.2316 118.858C70.2316 119.628 70.8056 120.132 71.7156 120.132C72.9056 120.132 73.6476 119.39 73.6476 118.256V117.654C73.1016 117.584 72.7096 117.57 72.3456 117.57C70.9316 117.57 70.2316 117.99 70.2316 118.858ZM78.0161 116.814V121H76.6021V113.58H77.9181V114.812C78.4221 113.986 79.2621 113.44 80.2841 113.44C81.8101 113.44 82.8181 114.42 82.8181 116.198V121H81.4041V116.674C81.4041 115.4 80.8441 114.686 79.7941 114.686C78.8281 114.686 78.0161 115.498 78.0161 116.814ZM83.8839 117.29C83.8839 115.036 85.1719 113.44 87.1739 113.44C88.1679 113.44 89.0359 113.944 89.5539 114.854V110.948H90.9679V121H89.6519V119.67C89.1199 120.608 88.2239 121.14 87.1739 121.14C85.1719 121.14 83.8839 119.516 83.8839 117.29ZM85.3539 117.29C85.3539 118.942 86.2219 119.88 87.4539 119.88C88.6579 119.88 89.5539 118.9 89.5539 117.262C89.5539 115.596 88.6299 114.686 87.4539 114.686C86.2219 114.686 85.3539 115.61 85.3539 117.29ZM96.9512 121H95.4112V110.948H96.9512V121ZM98.206 117.29C98.206 115.036 99.494 113.44 101.496 113.44C102.49 113.44 103.358 113.944 103.876 114.854V110.948H105.29V121H103.974V119.67C103.442 120.608 102.546 121.14 101.496 121.14C99.494 121.14 98.206 119.516 98.206 117.29ZM99.676 117.29C99.676 118.942 100.544 119.88 101.776 119.88C102.98 119.88 103.876 118.9 103.876 117.262C103.876 115.596 102.952 114.686 101.776 114.686C100.544 114.686 99.676 115.61 99.676 117.29ZM110.028 121.14C107.886 121.14 106.444 119.586 106.444 117.248C106.444 115.05 107.942 113.44 109.986 113.44C112.198 113.44 113.668 115.232 113.416 117.64H107.886C107.998 119.152 108.754 120.034 110 120.034C111.05 120.034 111.778 119.46 112.016 118.494H113.416C113.052 120.146 111.778 121.14 110.028 121.14ZM109.958 114.504C108.824 114.504 108.054 115.316 107.9 116.702H111.918C111.848 115.33 111.106 114.504 109.958 114.504ZM116.053 116.814V121H114.639V113.58H115.955V114.812C116.459 113.986 117.299 113.44 118.321 113.44C119.847 113.44 120.855 114.42 120.855 116.198V121H119.441V116.674C119.441 115.4 118.881 114.686 117.831 114.686C116.865 114.686 116.053 115.498 116.053 116.814ZM126.611 119.628V120.874C126.177 121.07 125.799 121.14 125.351 121.14C123.979 121.14 123.027 120.398 123.027 118.76V114.784H121.389V113.58H123.027V111.382H124.441V113.58H126.681V114.784H124.441V118.438C124.441 119.46 124.931 119.824 125.687 119.824C126.023 119.824 126.317 119.768 126.611 119.628ZM129.473 111.858C129.473 112.39 129.053 112.796 128.451 112.796C127.849 112.796 127.415 112.39 127.415 111.858C127.415 111.312 127.849 110.92 128.451 110.92C129.053 110.92 129.473 111.312 129.473 111.858ZM129.165 121H127.751V113.58H129.165V121ZM135.034 119.628V120.874C134.6 121.07 134.222 121.14 133.774 121.14C132.402 121.14 131.45 120.398 131.45 118.76V114.784H129.812V113.58H131.45V111.382H132.864V113.58H135.104V114.784H132.864V118.438C132.864 119.46 133.354 119.824 134.11 119.824C134.446 119.824 134.74 119.768 135.034 119.628ZM142.333 113.58L138.623 123.702H137.083L138.147 120.902L135.221 113.58H136.747L138.903 119.236L140.905 113.58H142.333ZM148.993 121H145.815V110.948H148.993C152.199 110.948 154.047 112.992 154.047 115.932C154.047 118.83 152.129 121 148.993 121ZM147.355 112.278V119.67H148.923C151.233 119.67 152.479 118.242 152.479 115.932C152.479 113.664 151.247 112.278 148.923 112.278H147.355ZM158.319 121.14C156.177 121.14 154.735 119.586 154.735 117.248C154.735 115.05 156.233 113.44 158.277 113.44C160.489 113.44 161.959 115.232 161.707 117.64H156.177C156.289 119.152 157.045 120.034 158.291 120.034C159.341 120.034 160.069 119.46 160.307 118.494H161.707C161.343 120.146 160.069 121.14 158.319 121.14ZM158.249 114.504C157.115 114.504 156.345 115.316 156.191 116.702H160.209C160.139 115.33 159.397 114.504 158.249 114.504ZM168.81 118.788C168.81 120.244 167.676 121.14 165.702 121.14C163.742 121.14 162.58 120.174 162.44 118.578H163.798C163.854 119.502 164.596 120.076 165.73 120.076C166.724 120.076 167.382 119.726 167.382 119.026C167.382 118.41 167.004 118.144 166.08 117.962L164.876 117.738C163.504 117.472 162.734 116.772 162.734 115.652C162.734 114.35 163.868 113.44 165.59 113.44C167.368 113.44 168.572 114.392 168.698 115.918H167.34C167.256 115.022 166.598 114.504 165.604 114.504C164.708 114.504 164.106 114.882 164.106 115.526C164.106 116.128 164.484 116.408 165.38 116.576L166.64 116.814C168.11 117.08 168.81 117.724 168.81 118.788ZM171.796 111.858C171.796 112.39 171.376 112.796 170.774 112.796C170.172 112.796 169.738 112.39 169.738 111.858C169.738 111.312 170.172 110.92 170.774 110.92C171.376 110.92 171.796 111.312 171.796 111.858ZM171.488 121H170.074V113.58H171.488V121ZM176.139 123.856C174.193 123.856 172.933 122.82 172.849 121.14H174.221C174.305 122.176 174.977 122.736 176.125 122.736C177.399 122.736 178.071 122.05 178.071 120.776V119.432C177.651 120.328 176.811 120.846 175.803 120.846C173.955 120.846 172.639 119.32 172.639 117.136C172.639 114.924 173.899 113.44 175.761 113.44C176.825 113.44 177.665 113.958 178.169 114.896V113.58H179.485V120.748C179.485 122.694 178.239 123.856 176.139 123.856ZM174.067 117.136C174.067 118.676 174.823 119.614 176.055 119.614C177.259 119.614 178.071 118.648 178.071 117.178C178.071 115.638 177.273 114.658 176.055 114.658C174.837 114.658 174.067 115.61 174.067 117.136ZM182.576 116.814V121H181.162V113.58H182.478V114.812C182.982 113.986 183.822 113.44 184.844 113.44C186.37 113.44 187.378 114.42 187.378 116.198V121H185.964V116.674C185.964 115.4 185.404 114.686 184.354 114.686C183.388 114.686 182.576 115.498 182.576 116.814ZM79.8399 138L77.7119 130.118L75.5699 138H73.9879L71.3699 127.948H72.8819L74.8139 135.69L76.9279 127.948H78.5239L80.6099 135.704L82.5419 127.948H84.0539L81.4359 138H79.8399ZM87.461 138.14C85.319 138.14 83.877 136.586 83.877 134.248C83.877 132.05 85.375 130.44 87.419 130.44C89.631 130.44 91.101 132.232 90.849 134.64H85.319C85.431 136.152 86.187 137.034 87.433 137.034C88.483 137.034 89.211 136.46 89.449 135.494H90.849C90.485 137.146 89.211 138.14 87.461 138.14ZM87.391 131.504C86.257 131.504 85.487 132.316 85.333 133.702H89.351C89.281 132.33 88.539 131.504 87.391 131.504ZM99.1564 134.29C99.1564 136.516 97.8684 138.14 95.8664 138.14C94.8164 138.14 93.9204 137.608 93.3884 136.67V138H92.0724V127.948H93.4864V131.854C94.0044 130.944 94.8584 130.44 95.8664 130.44C97.8544 130.44 99.1564 132.036 99.1564 134.29ZM97.6864 134.29C97.6864 132.61 96.8044 131.686 95.5864 131.686C94.4104 131.686 93.4864 132.596 93.4864 134.262C93.4864 135.9 94.3824 136.88 95.5864 136.88C96.8044 136.88 97.6864 135.942 97.6864 134.29ZM106.19 135.788C106.19 137.244 105.056 138.14 103.082 138.14C101.122 138.14 99.96 137.174 99.82 135.578H101.178C101.234 136.502 101.976 137.076 103.11 137.076C104.104 137.076 104.762 136.726 104.762 136.026C104.762 135.41 104.384 135.144 103.46 134.962L102.256 134.738C100.884 134.472 100.114 133.772 100.114 132.652C100.114 131.35 101.248 130.44 102.97 130.44C104.748 130.44 105.952 131.392 106.078 132.918H104.72C104.636 132.022 103.978 131.504 102.984 131.504C102.088 131.504 101.486 131.882 101.486 132.526C101.486 133.128 101.864 133.408 102.76 133.576L104.02 133.814C105.49 134.08 106.19 134.724 106.19 135.788ZM109.176 128.858C109.176 129.39 108.756 129.796 108.154 129.796C107.552 129.796 107.118 129.39 107.118 128.858C107.118 128.312 107.552 127.92 108.154 127.92C108.756 127.92 109.176 128.312 109.176 128.858ZM108.868 138H107.454V130.58H108.868V138ZM114.737 136.628V137.874C114.303 138.07 113.925 138.14 113.477 138.14C112.105 138.14 111.153 137.398 111.153 135.76V131.784H109.515V130.58H111.153V128.382H112.567V130.58H114.807V131.784H112.567V135.438C112.567 136.46 113.057 136.824 113.813 136.824C114.149 136.824 114.443 136.768 114.737 136.628ZM118.723 138.14C116.581 138.14 115.139 136.586 115.139 134.248C115.139 132.05 116.637 130.44 118.681 130.44C120.893 130.44 122.363 132.232 122.111 134.64H116.581C116.693 136.152 117.449 137.034 118.695 137.034C119.745 137.034 120.473 136.46 120.711 135.494H122.111C121.747 137.146 120.473 138.14 118.723 138.14ZM118.653 131.504C117.519 131.504 116.749 132.316 116.595 133.702H120.613C120.543 132.33 119.801 131.504 118.653 131.504ZM129.27 138H126.092V127.948H129.27C132.476 127.948 134.324 129.992 134.324 132.932C134.324 135.83 132.406 138 129.27 138ZM127.632 129.278V136.67H129.2C131.51 136.67 132.756 135.242 132.756 132.932C132.756 130.664 131.524 129.278 129.2 129.278H127.632ZM138.596 138.14C136.454 138.14 135.012 136.586 135.012 134.248C135.012 132.05 136.51 130.44 138.554 130.44C140.766 130.44 142.236 132.232 141.984 134.64H136.454C136.566 136.152 137.322 137.034 138.568 137.034C139.618 137.034 140.346 136.46 140.584 135.494H141.984C141.62 137.146 140.346 138.14 138.596 138.14ZM138.526 131.504C137.392 131.504 136.622 132.316 136.468 133.702H140.486C140.416 132.33 139.674 131.504 138.526 131.504ZM149.087 135.788C149.087 137.244 147.953 138.14 145.979 138.14C144.019 138.14 142.857 137.174 142.717 135.578H144.075C144.131 136.502 144.873 137.076 146.007 137.076C147.001 137.076 147.659 136.726 147.659 136.026C147.659 135.41 147.281 135.144 146.357 134.962L145.153 134.738C143.781 134.472 143.011 133.772 143.011 132.652C143.011 131.35 144.145 130.44 145.867 130.44C147.645 130.44 148.849 131.392 148.975 132.918H147.617C147.533 132.022 146.875 131.504 145.881 131.504C144.985 131.504 144.383 131.882 144.383 132.526C144.383 133.128 144.761 133.408 145.657 133.576L146.917 133.814C148.387 134.08 149.087 134.724 149.087 135.788ZM152.073 128.858C152.073 129.39 151.653 129.796 151.051 129.796C150.449 129.796 150.015 129.39 150.015 128.858C150.015 128.312 150.449 127.92 151.051 127.92C151.653 127.92 152.073 128.312 152.073 128.858ZM151.765 138H150.351V130.58H151.765V138ZM156.416 140.856C154.47 140.856 153.21 139.82 153.126 138.14H154.498C154.582 139.176 155.254 139.736 156.402 139.736C157.676 139.736 158.348 139.05 158.348 137.776V136.432C157.928 137.328 157.088 137.846 156.08 137.846C154.232 137.846 152.916 136.32 152.916 134.136C152.916 131.924 154.176 130.44 156.038 130.44C157.102 130.44 157.942 130.958 158.446 131.896V130.58H159.762V137.748C159.762 139.694 158.516 140.856 156.416 140.856ZM154.344 134.136C154.344 135.676 155.1 136.614 156.332 136.614C157.536 136.614 158.348 135.648 158.348 134.178C158.348 132.638 157.55 131.658 156.332 131.658C155.114 131.658 154.344 132.61 154.344 134.136ZM162.854 133.814V138H161.44V130.58H162.756V131.812C163.26 130.986 164.1 130.44 165.122 130.44C166.648 130.44 167.656 131.42 167.656 133.198V138H166.242V133.674C166.242 132.4 165.682 131.686 164.632 131.686C163.666 131.686 162.854 132.498 162.854 133.814ZM171.171 137.398C171.171 138.728 170.121 139.764 168.581 139.792V138.994C169.491 138.966 170.107 138.476 170.191 137.79C170.065 137.832 169.981 137.846 169.883 137.846C169.351 137.846 168.959 137.412 168.959 136.894C168.959 136.292 169.407 135.9 169.981 135.9C170.751 135.9 171.171 136.46 171.171 137.398Z" fill="#1A1A1A"/>
<mask id="path-4-outside-1_1116_38" maskUnits="userSpaceOnUse" x="68" y="0" width="106" height="52" fill="black">
<rect fill="white" x="68" width="106" height="52"/>
<path d="M139.16 30.7754C139.508 27.9544 141.672 26.1765 145.511 26.6465V26.6533C149.491 27.1428 151.456 29.5778 151.205 32.5986L148.074 32.2119C148.106 30.5823 147.23 29.6803 145.24 29.4355C143.392 29.2102 142.343 29.7515 142.194 30.9365C142.072 31.9349 142.69 32.5854 144.391 33.2295C146.117 33.8736 147.798 34.5114 148.893 35.1748C150.194 35.9606 151.16 37.0624 150.89 39.291C150.464 42.7559 147.668 43.9733 143.997 43.5225C140.107 43.0458 137.621 40.9781 137.981 37.4424L141.157 37.835C141.009 39.4516 142.24 40.6105 144.346 40.8682C146.291 41.1064 147.502 40.4113 147.676 39.0137C147.792 38.0862 147.391 37.3906 145.479 36.7207C143.585 36.0573 142.361 35.6126 141.312 34.9814C139.727 34.0217 138.915 32.7656 139.16 30.7754ZM158.851 28.3408C158.754 27.6774 159.63 27.362 159.978 27.9287L160.603 28.9395C160.661 29.0361 160.802 29.0361 160.86 28.9395L161.485 27.9287C161.833 27.3621 162.709 27.6839 162.612 28.3408L162.438 29.5195C162.419 29.629 162.529 29.7129 162.632 29.6807L163.759 29.3008C164.39 29.0883 164.853 29.8935 164.357 30.3379L163.469 31.123C163.385 31.1939 163.411 31.3363 163.514 31.375L164.622 31.8125C165.246 32.0574 165.079 32.9715 164.416 32.9912L163.224 33.0234C163.108 33.0237 163.044 33.1457 163.095 33.2422L163.662 34.2861C163.977 34.8722 163.263 35.4706 162.741 35.0586L161.607 34.3184C161.524 34.254 161.389 34.2988 161.369 34.4082V37.9336C162.22 36.5797 163.532 35.5225 165.466 35.5225V36.9844C162.033 36.9844 161.504 41.8528 161.459 42.3369H165.466V43.6064H155.991V42.3369H159.997C159.952 41.8528 159.423 36.9848 155.991 36.9844V35.5225C157.93 35.5226 159.244 36.5854 160.094 37.9443V34.4082C160.074 34.2987 159.946 34.2475 159.855 34.3184L158.722 35.0586C158.2 35.4708 157.485 34.8722 157.801 34.2861L158.367 33.2422C158.419 33.1456 158.348 33.0234 158.238 33.0234L157.047 32.9912C156.384 32.9781 156.223 32.0573 156.841 31.8125L157.949 31.375C158.052 31.3363 158.078 31.2003 157.994 31.123L157.105 30.3379C156.603 29.8999 157.073 29.0882 157.704 29.3008L158.831 29.6807C158.934 29.7193 159.044 29.629 159.024 29.5195L158.851 28.3408ZM99.5674 26.6338C104.437 26.6338 107.136 29.8545 107.136 35.2969C107.136 40.7395 104.437 43.5547 99.5674 43.5547C94.6982 43.5545 91.9541 40.5914 91.9541 35.2197C91.9542 29.8482 94.6983 26.6281 99.5674 26.6279V26.6338ZM115.67 26.6338C120.539 26.6338 123.238 29.8545 123.238 35.2969C123.238 40.7395 120.539 43.5547 115.67 43.5547C110.801 43.5546 108.057 40.5914 108.057 35.2197C108.057 29.8482 110.801 26.6281 115.67 26.6279V26.6338ZM83.8066 26.6279C87.581 26.6279 90.4922 28.8695 90.7305 32.0449H87.3877C87.2202 30.5635 85.623 29.3711 83.8066 29.3711C81.153 29.3712 79.3887 31.42 79.3887 35.1943C79.3887 37.7965 80.7025 40.7588 83.7812 40.7588C85.9517 40.7587 87.6455 39.1166 87.6455 37.1328H84.1348L84.1416 37.127V34.4795H90.7568V43.001H88.0127L87.9414 41.4229C87.1748 42.7624 85.3589 43.5478 83.1885 43.5479C78.7958 43.5479 76.0001 39.4712 76 35.0527C76 30.3766 78.6733 26.628 83.8066 26.6279ZM130.362 27.1562C134.665 27.1563 137.718 30.1002 137.718 34.918C137.718 39.7356 134.973 43.0078 130.864 43.0078H124.23V27.1562H130.362ZM99.5674 29.5645C96.7723 29.5646 95.2198 31.5486 95.2197 35.2969C95.2197 39.0454 96.8237 40.7137 99.5674 40.7139C101.951 40.7139 103.864 39.0455 103.864 35.2969C103.864 31.5485 102.363 29.5645 99.5674 29.5645ZM115.67 29.5645C112.875 29.5646 111.322 31.5486 111.322 35.2969C111.322 39.0454 112.926 40.7137 115.67 40.7139C118.053 40.7139 119.967 39.0455 119.967 35.2969C119.967 31.5485 118.465 29.5645 115.67 29.5645ZM127.457 40.3086H130.207C133.093 40.3086 134.336 38.4923 134.336 34.9111C134.336 31.3301 133.093 29.9005 129.918 29.9004H127.457V40.3086ZM159.05 8C162.824 8 165.735 10.2417 165.974 13.417H162.631C162.463 11.9357 160.866 10.7441 159.05 10.7441C156.396 10.7442 154.632 12.7923 154.632 16.5664C154.632 19.1686 155.946 22.1318 159.024 22.1318C161.195 22.1317 162.889 20.4895 162.889 18.5059H159.379V15.8584L159.385 15.8516H166V24.373H163.256L163.185 22.7949C162.418 24.1346 160.602 24.9209 158.432 24.9209C154.039 24.9209 151.243 20.8433 151.243 16.4248C151.243 11.7489 153.917 8.00006 159.05 8ZM82.3193 8.53516C86.6152 8.53536 89.6748 11.4659 89.6748 16.29V16.2959C89.6748 21.1137 86.9306 24.3857 82.8213 24.3857H76.1875V8.53516H82.3193ZM94.2988 24.3857H90.9824V8.53516H94.2988V24.3857ZM104.103 8.52832C107.039 8.52844 108.972 10.4864 108.972 13.1143C108.972 14.8082 108.134 16.2445 106.607 16.792C108.012 17.2493 108.54 18.0351 108.54 19.8965V24.3857H105.294V20.3027C105.294 18.7763 104.727 18.1768 102.814 18.1768H99.2783V24.3799H96.0576V8.52832H104.103ZM122.459 11.2979H117.66V24.3857H114.344V11.2979H109.57V8.53516H122.459V11.2979ZM151.495 24.3857H147.888L146.883 21.1143H141.034L139.914 24.3857H136.403L142.059 8.53516H145.904L151.495 24.3857ZM131.167 8.52832C134.272 8.52832 135.939 10.2033 135.939 12.8506C135.939 14.2158 135.109 15.3626 134.008 15.8135C135.341 16.3159 136.416 17.3913 136.416 19.6582L136.411 19.9199C136.294 22.6568 134.359 24.3799 130.497 24.3799H123.36V8.52832H131.167ZM79.4072 21.6875H82.1582C85.0434 21.6874 86.2861 19.8709 86.2861 16.29C86.2861 12.7089 85.0434 11.2784 81.8682 11.2783H79.4072V21.6875ZM126.562 21.6807H130.762C132.288 21.6805 133.196 20.7012 133.196 19.4131C133.196 18.0287 132.288 17.4102 130.807 17.4102H126.562V21.6807ZM141.892 18.3896H145.93L143.946 12.084H143.92L141.892 18.3896ZM99.2783 15.5039H103.433C105.197 15.5038 105.867 14.6472 105.867 13.4043C105.867 12.1613 105.197 11.2785 103.549 11.2783H99.2783V15.5039ZM126.556 14.7178H130.735C132.049 14.7178 132.738 14.1188 132.738 12.998C132.738 11.7809 132.094 11.2783 130.542 11.2783H126.556V14.7178Z"/>
</mask>
<path d="M139.16 30.7754C139.508 27.9544 141.672 26.1765 145.511 26.6465V26.6533C149.491 27.1428 151.456 29.5778 151.205 32.5986L148.074 32.2119C148.106 30.5823 147.23 29.6803 145.24 29.4355C143.392 29.2102 142.343 29.7515 142.194 30.9365C142.072 31.9349 142.69 32.5854 144.391 33.2295C146.117 33.8736 147.798 34.5114 148.893 35.1748C150.194 35.9606 151.16 37.0624 150.89 39.291C150.464 42.7559 147.668 43.9733 143.997 43.5225C140.107 43.0458 137.621 40.9781 137.981 37.4424L141.157 37.835C141.009 39.4516 142.24 40.6105 144.346 40.8682C146.291 41.1064 147.502 40.4113 147.676 39.0137C147.792 38.0862 147.391 37.3906 145.479 36.7207C143.585 36.0573 142.361 35.6126 141.312 34.9814C139.727 34.0217 138.915 32.7656 139.16 30.7754ZM158.851 28.3408C158.754 27.6774 159.63 27.362 159.978 27.9287L160.603 28.9395C160.661 29.0361 160.802 29.0361 160.86 28.9395L161.485 27.9287C161.833 27.3621 162.709 27.6839 162.612 28.3408L162.438 29.5195C162.419 29.629 162.529 29.7129 162.632 29.6807L163.759 29.3008C164.39 29.0883 164.853 29.8935 164.357 30.3379L163.469 31.123C163.385 31.1939 163.411 31.3363 163.514 31.375L164.622 31.8125C165.246 32.0574 165.079 32.9715 164.416 32.9912L163.224 33.0234C163.108 33.0237 163.044 33.1457 163.095 33.2422L163.662 34.2861C163.977 34.8722 163.263 35.4706 162.741 35.0586L161.607 34.3184C161.524 34.254 161.389 34.2988 161.369 34.4082V37.9336C162.22 36.5797 163.532 35.5225 165.466 35.5225V36.9844C162.033 36.9844 161.504 41.8528 161.459 42.3369H165.466V43.6064H155.991V42.3369H159.997C159.952 41.8528 159.423 36.9848 155.991 36.9844V35.5225C157.93 35.5226 159.244 36.5854 160.094 37.9443V34.4082C160.074 34.2987 159.946 34.2475 159.855 34.3184L158.722 35.0586C158.2 35.4708 157.485 34.8722 157.801 34.2861L158.367 33.2422C158.419 33.1456 158.348 33.0234 158.238 33.0234L157.047 32.9912C156.384 32.9781 156.223 32.0573 156.841 31.8125L157.949 31.375C158.052 31.3363 158.078 31.2003 157.994 31.123L157.105 30.3379C156.603 29.8999 157.073 29.0882 157.704 29.3008L158.831 29.6807C158.934 29.7193 159.044 29.629 159.024 29.5195L158.851 28.3408ZM99.5674 26.6338C104.437 26.6338 107.136 29.8545 107.136 35.2969C107.136 40.7395 104.437 43.5547 99.5674 43.5547C94.6982 43.5545 91.9541 40.5914 91.9541 35.2197C91.9542 29.8482 94.6983 26.6281 99.5674 26.6279V26.6338ZM115.67 26.6338C120.539 26.6338 123.238 29.8545 123.238 35.2969C123.238 40.7395 120.539 43.5547 115.67 43.5547C110.801 43.5546 108.057 40.5914 108.057 35.2197C108.057 29.8482 110.801 26.6281 115.67 26.6279V26.6338ZM83.8066 26.6279C87.581 26.6279 90.4922 28.8695 90.7305 32.0449H87.3877C87.2202 30.5635 85.623 29.3711 83.8066 29.3711C81.153 29.3712 79.3887 31.42 79.3887 35.1943C79.3887 37.7965 80.7025 40.7588 83.7812 40.7588C85.9517 40.7587 87.6455 39.1166 87.6455 37.1328H84.1348L84.1416 37.127V34.4795H90.7568V43.001H88.0127L87.9414 41.4229C87.1748 42.7624 85.3589 43.5478 83.1885 43.5479C78.7958 43.5479 76.0001 39.4712 76 35.0527C76 30.3766 78.6733 26.628 83.8066 26.6279ZM130.362 27.1562C134.665 27.1563 137.718 30.1002 137.718 34.918C137.718 39.7356 134.973 43.0078 130.864 43.0078H124.23V27.1562H130.362ZM99.5674 29.5645C96.7723 29.5646 95.2198 31.5486 95.2197 35.2969C95.2197 39.0454 96.8237 40.7137 99.5674 40.7139C101.951 40.7139 103.864 39.0455 103.864 35.2969C103.864 31.5485 102.363 29.5645 99.5674 29.5645ZM115.67 29.5645C112.875 29.5646 111.322 31.5486 111.322 35.2969C111.322 39.0454 112.926 40.7137 115.67 40.7139C118.053 40.7139 119.967 39.0455 119.967 35.2969C119.967 31.5485 118.465 29.5645 115.67 29.5645ZM127.457 40.3086H130.207C133.093 40.3086 134.336 38.4923 134.336 34.9111C134.336 31.3301 133.093 29.9005 129.918 29.9004H127.457V40.3086ZM159.05 8C162.824 8 165.735 10.2417 165.974 13.417H162.631C162.463 11.9357 160.866 10.7441 159.05 10.7441C156.396 10.7442 154.632 12.7923 154.632 16.5664C154.632 19.1686 155.946 22.1318 159.024 22.1318C161.195 22.1317 162.889 20.4895 162.889 18.5059H159.379V15.8584L159.385 15.8516H166V24.373H163.256L163.185 22.7949C162.418 24.1346 160.602 24.9209 158.432 24.9209C154.039 24.9209 151.243 20.8433 151.243 16.4248C151.243 11.7489 153.917 8.00006 159.05 8ZM82.3193 8.53516C86.6152 8.53536 89.6748 11.4659 89.6748 16.29V16.2959C89.6748 21.1137 86.9306 24.3857 82.8213 24.3857H76.1875V8.53516H82.3193ZM94.2988 24.3857H90.9824V8.53516H94.2988V24.3857ZM104.103 8.52832C107.039 8.52844 108.972 10.4864 108.972 13.1143C108.972 14.8082 108.134 16.2445 106.607 16.792C108.012 17.2493 108.54 18.0351 108.54 19.8965V24.3857H105.294V20.3027C105.294 18.7763 104.727 18.1768 102.814 18.1768H99.2783V24.3799H96.0576V8.52832H104.103ZM122.459 11.2979H117.66V24.3857H114.344V11.2979H109.57V8.53516H122.459V11.2979ZM151.495 24.3857H147.888L146.883 21.1143H141.034L139.914 24.3857H136.403L142.059 8.53516H145.904L151.495 24.3857ZM131.167 8.52832C134.272 8.52832 135.939 10.2033 135.939 12.8506C135.939 14.2158 135.109 15.3626 134.008 15.8135C135.341 16.3159 136.416 17.3913 136.416 19.6582L136.411 19.9199C136.294 22.6568 134.359 24.3799 130.497 24.3799H123.36V8.52832H131.167ZM79.4072 21.6875H82.1582C85.0434 21.6874 86.2861 19.8709 86.2861 16.29C86.2861 12.7089 85.0434 11.2784 81.8682 11.2783H79.4072V21.6875ZM126.562 21.6807H130.762C132.288 21.6805 133.196 20.7012 133.196 19.4131C133.196 18.0287 132.288 17.4102 130.807 17.4102H126.562V21.6807ZM141.892 18.3896H145.93L143.946 12.084H143.92L141.892 18.3896ZM99.2783 15.5039H103.433C105.197 15.5038 105.867 14.6472 105.867 13.4043C105.867 12.1613 105.197 11.2785 103.549 11.2783H99.2783V15.5039ZM126.556 14.7178H130.735C132.049 14.7178 132.738 14.1188 132.738 12.998C132.738 11.7809 132.094 11.2783 130.542 11.2783H126.556V14.7178Z" fill="#1A1A1A"/>
<path d="M139.16 30.7754L131.22 29.7963L131.22 29.7989L139.16 30.7754ZM145.511 26.6465H153.511C153.511 22.6042 150.495 19.1971 146.483 18.7058L145.511 26.6465ZM145.511 26.6533H137.511C137.511 30.694 140.524 34.1003 144.534 34.5935L145.511 26.6533ZM151.205 32.5986L150.224 40.5383C152.385 40.8052 154.561 40.1799 156.251 38.8068C157.94 37.4336 158.997 35.4312 159.178 33.2616L151.205 32.5986ZM148.074 32.2119L140.076 32.0538C139.995 36.1524 143.025 39.649 147.094 40.1516L148.074 32.2119ZM145.24 29.4355L146.217 21.4954L146.208 21.4943L145.24 29.4355ZM142.194 30.9365L134.256 29.9439C134.255 29.9503 134.255 29.9567 134.254 29.9632L142.194 30.9365ZM144.391 33.2295L141.557 40.7108C141.569 40.7154 141.582 40.7201 141.594 40.7247L144.391 33.2295ZM148.893 35.1748L144.747 42.0169L144.757 42.0228L148.893 35.1748ZM150.89 39.291L158.83 40.2656L158.831 40.255L150.89 39.291ZM143.997 43.5225L144.972 35.5821L144.97 35.5819L143.997 43.5225ZM137.981 37.4424L138.963 29.5028C136.828 29.2389 134.676 29.846 132.994 31.1873C131.312 32.5285 130.241 34.4907 130.023 36.631L137.981 37.4424ZM141.157 37.835L149.124 38.5648C149.518 34.263 146.426 30.4254 142.139 29.8954L141.157 37.835ZM144.346 40.8682L145.318 32.9275L145.317 32.9274L144.346 40.8682ZM147.676 39.0137L139.738 38.0214L139.737 38.0258L147.676 39.0137ZM145.479 36.7207L142.833 44.2708L142.835 44.2712L145.479 36.7207ZM141.312 34.9814L137.167 41.8241C137.174 41.8286 137.182 41.8332 137.189 41.8377L141.312 34.9814ZM158.851 28.3408L150.934 29.4934C150.935 29.4982 150.935 29.5031 150.936 29.508L158.851 28.3408ZM159.978 27.9287L153.159 32.1133C153.164 32.1209 153.169 32.1285 153.173 32.1362L159.978 27.9287ZM160.603 28.9395L167.462 24.8235C167.444 24.7929 167.426 24.7624 167.407 24.732L160.603 28.9395ZM160.86 28.9395L154.056 24.732C154.037 24.7624 154.019 24.7929 154 24.8235L160.86 28.9395ZM161.485 27.9287L168.29 32.1362C168.294 32.1288 168.299 32.1215 168.303 32.1142L161.485 27.9287ZM162.612 28.3408L170.527 29.508L170.527 29.5041L162.612 28.3408ZM162.438 29.5195L170.317 30.9098C170.33 30.8356 170.342 30.7612 170.353 30.6867L162.438 29.5195ZM162.632 29.6807L165.018 37.3165C165.075 37.2988 165.131 37.2805 165.187 37.2615L162.632 29.6807ZM163.759 29.3008L161.207 21.7187L161.203 21.7199L163.759 29.3008ZM164.357 30.3379L169.654 36.3331C169.668 36.3207 169.682 36.3083 169.696 36.2958L164.357 30.3379ZM163.469 31.123L168.636 37.2301C168.68 37.1933 168.723 37.156 168.766 37.1183L163.469 31.123ZM163.514 31.375L166.451 23.9337C166.409 23.917 166.366 23.9007 166.324 23.8847L163.514 31.375ZM164.622 31.8125L161.685 39.2538C161.69 39.2559 161.695 39.258 161.701 39.26L164.622 31.8125ZM164.416 32.9912L164.632 40.9883C164.639 40.9881 164.646 40.9879 164.654 40.9877L164.416 32.9912ZM163.224 33.0234L163.242 41.0234C163.308 41.0233 163.374 41.0223 163.44 41.0205L163.224 33.0234ZM163.095 33.2422L156.025 36.9871C156.039 37.0123 156.052 37.0374 156.066 37.0624L163.095 33.2422ZM163.662 34.2861L170.707 30.496C170.702 30.486 170.696 30.4759 170.691 30.4659L163.662 34.2861ZM162.741 35.0586L167.7 28.7809C167.511 28.6318 167.316 28.4914 167.115 28.3599L162.741 35.0586ZM161.607 34.3184L156.73 40.6593C156.893 40.785 157.061 40.9044 157.234 41.0171L161.607 34.3184ZM161.369 34.4082L153.492 33.0138C153.41 33.4742 153.369 33.9407 153.369 34.4082H161.369ZM161.369 37.9336H153.369C153.369 41.4992 155.729 44.6343 159.155 45.6211C162.581 46.6079 166.247 45.2081 168.144 42.1887L161.369 37.9336ZM165.466 35.5225H173.466C173.466 31.1042 169.884 27.5225 165.466 27.5225V35.5225ZM165.466 36.9844V44.9844C169.884 44.9844 173.466 41.4027 173.466 36.9844H165.466ZM161.459 42.3369L153.494 41.5932C153.284 43.8345 154.029 46.0603 155.545 47.7244C157.061 49.3885 159.208 50.3369 161.459 50.3369V42.3369ZM165.466 42.3369H173.466C173.466 37.9186 169.884 34.3369 165.466 34.3369V42.3369ZM165.466 43.6064V51.6064C169.884 51.6064 173.466 48.0247 173.466 43.6064H165.466ZM155.991 43.6064H147.991C147.991 48.0247 151.573 51.6064 155.991 51.6064V43.6064ZM155.991 42.3369V34.3369C151.573 34.3369 147.991 37.9186 147.991 42.3369H155.991ZM159.997 42.3369V50.3369C162.248 50.3369 164.395 49.3885 165.911 47.7244C167.427 46.0603 168.172 43.8345 167.962 41.5932L159.997 42.3369ZM155.991 36.9844H147.991C147.991 41.4023 151.572 44.9839 155.99 44.9844L155.991 36.9844ZM155.991 35.5225L155.992 27.5225C153.87 27.5223 151.835 28.3651 150.335 29.8654C148.834 31.3657 147.991 33.4006 147.991 35.5225H155.991ZM160.094 37.9443L153.312 42.1872C155.204 45.2123 158.871 46.6183 162.301 45.6339C165.731 44.6494 168.094 41.5126 168.094 37.9443H160.094ZM160.094 34.4082H168.094C168.094 33.9413 168.053 33.4753 167.972 33.0156L160.094 34.4082ZM159.855 34.3184L164.229 41.0171C164.425 40.8894 164.614 40.7532 164.798 40.6089L159.855 34.3184ZM158.722 35.0586L154.348 28.3599C154.147 28.4915 153.951 28.6322 153.762 28.7815L158.722 35.0586ZM157.801 34.2861L150.769 30.471C150.765 30.4791 150.76 30.4871 150.756 30.4952L157.801 34.2861ZM158.367 33.2422L165.399 37.0573C165.409 37.0395 165.418 37.0216 165.428 37.0037L158.367 33.2422ZM158.238 33.0234L158.022 41.0205C158.094 41.0225 158.166 41.0234 158.238 41.0234V33.0234ZM157.047 32.9912L157.263 24.9941C157.244 24.9936 157.224 24.9932 157.205 24.9928L157.047 32.9912ZM156.841 31.8125L153.904 24.3712L153.895 24.3747L156.841 31.8125ZM157.949 31.375L155.131 23.8877C155.091 23.9027 155.052 23.9181 155.012 23.9337L157.949 31.375ZM157.994 31.123L163.42 25.2446C163.378 25.2052 163.335 25.1663 163.291 25.1278L157.994 31.123ZM157.105 30.3379L162.402 24.3426C162.389 24.331 162.376 24.3193 162.363 24.3077L157.105 30.3379ZM157.704 29.3008L160.26 21.7199L160.257 21.7191L157.704 29.3008ZM158.831 29.6807L161.64 22.19C161.556 22.1585 161.472 22.1284 161.386 22.0998L158.831 29.6807ZM159.024 29.5195L151.11 30.6867C151.121 30.7612 151.133 30.8356 151.146 30.9098L159.024 29.5195ZM99.5674 26.6338H91.5674C91.5674 31.0521 95.1491 34.6338 99.5674 34.6338V26.6338ZM107.136 35.2969H115.136V35.2967L107.136 35.2969ZM99.5674 43.5547L99.5671 51.5547H99.5674V43.5547ZM91.9541 35.2197L83.9541 35.2196V35.2197H91.9541ZM99.5674 26.6279H107.567C107.567 24.5062 106.724 22.4713 105.224 20.971C103.724 19.4707 101.689 18.6279 99.5671 18.6279L99.5674 26.6279ZM115.67 26.6338H107.67C107.67 31.0521 111.252 34.6338 115.67 34.6338V26.6338ZM123.238 35.2969H131.238V35.2967L123.238 35.2969ZM115.67 43.5547L115.67 51.5547H115.67V43.5547ZM108.057 35.2197L100.057 35.2196V35.2197H108.057ZM115.67 26.6279H123.67C123.67 24.5062 122.827 22.4713 121.327 20.971C119.826 19.4707 117.791 18.6279 115.67 18.6279L115.67 26.6279ZM83.8066 26.6279V18.6279H83.8065L83.8066 26.6279ZM90.7305 32.0449V40.0449C92.9562 40.0449 95.0814 39.1177 96.5952 37.486C98.109 35.8543 98.8746 33.6657 98.708 31.4462L90.7305 32.0449ZM87.3877 32.0449L79.4383 32.9435C79.8956 36.9883 83.3171 40.0449 87.3877 40.0449V32.0449ZM83.8066 29.3711V21.3711H83.8065L83.8066 29.3711ZM79.3887 35.1943H71.3887V35.1945L79.3887 35.1943ZM83.7812 40.7588V48.7588H83.7817L83.7812 40.7588ZM87.6455 37.1328H95.6455C95.6455 32.7145 92.0638 29.1328 87.6455 29.1328V37.1328ZM84.1348 37.1328L78.9284 31.0588C76.3866 33.2375 75.4702 36.7685 76.6317 39.9084C77.7932 43.0482 80.787 45.1328 84.1348 45.1328V37.1328ZM84.1416 37.127L89.3479 43.201C91.1211 41.6811 92.1416 39.4624 92.1416 37.127H84.1416ZM84.1416 34.4795V26.4795C79.7233 26.4795 76.1416 30.0612 76.1416 34.4795H84.1416ZM90.7568 34.4795H98.7568C98.7568 30.0612 95.1751 26.4795 90.7568 26.4795V34.4795ZM90.7568 43.001V51.001C95.1751 51.001 98.7568 47.4193 98.7568 43.001H90.7568ZM88.0127 43.001L80.0208 43.362C80.2139 47.6355 83.7348 51.001 88.0127 51.001V43.001ZM87.9414 41.4229L95.9333 41.0618C95.7726 37.506 93.282 34.4839 89.8222 33.6471C86.3625 32.8102 82.766 34.3599 80.998 37.4492L87.9414 41.4229ZM83.1885 43.5479V51.5479H83.1885L83.1885 43.5479ZM76 35.0527H68V35.0529L76 35.0527ZM130.362 27.1562L130.362 19.1562H130.362V27.1562ZM137.718 34.918L145.718 34.9182V34.918H137.718ZM124.23 43.0078H116.23C116.23 47.4261 119.812 51.0078 124.23 51.0078V43.0078ZM124.23 27.1562V19.1562C119.812 19.1562 116.23 22.738 116.23 27.1562H124.23ZM99.5674 29.5645V21.5645H99.5669L99.5674 29.5645ZM95.2197 35.2969L87.2197 35.2966V35.2969H95.2197ZM99.5674 40.7139L99.567 48.7139H99.5674V40.7139ZM103.864 35.2969H111.864V35.2966L103.864 35.2969ZM115.67 29.5645V21.5645H115.669L115.67 29.5645ZM111.322 35.2969L103.322 35.2966V35.2969H111.322ZM115.67 40.7139L115.67 48.7139H115.67V40.7139ZM119.967 35.2969H127.967V35.2966L119.967 35.2969ZM127.457 40.3086H119.457C119.457 44.7269 123.039 48.3086 127.457 48.3086V40.3086ZM134.336 34.9111L142.336 34.9111V34.9111H134.336ZM129.918 29.9004L129.918 21.9004H129.918V29.9004ZM127.457 29.9004V21.9004C123.039 21.9004 119.457 25.4821 119.457 29.9004H127.457ZM159.05 8V0H159.05L159.05 8ZM165.974 13.417V21.417C168.199 21.417 170.325 20.4897 171.838 18.8579C173.352 17.2261 174.118 15.0375 173.951 12.8179L165.974 13.417ZM162.631 13.417L154.682 14.3165C155.139 18.3609 158.561 21.417 162.631 21.417V13.417ZM159.05 10.7441V2.74414H159.05L159.05 10.7441ZM154.632 16.5664L146.632 16.5661V16.5664H154.632ZM159.024 22.1318V30.1318H159.025L159.024 22.1318ZM162.889 18.5059L170.889 18.5064C170.889 16.3846 170.046 14.3496 168.546 12.8492C167.045 11.3488 165.011 10.5059 162.889 10.5059V18.5059ZM159.379 18.5059H151.379C151.379 22.9241 154.961 26.5059 159.379 26.5059V18.5059ZM159.379 15.8584L153.305 10.6521C152.062 12.102 151.379 13.9487 151.379 15.8584H159.379ZM159.385 15.8516V7.85156C157.049 7.85156 154.831 8.87206 153.311 10.6452L159.385 15.8516ZM166 15.8516H174C174 11.4333 170.418 7.85156 166 7.85156V15.8516ZM166 24.373V32.373C170.418 32.373 174 28.7913 174 24.373H166ZM163.256 24.373L155.264 24.7341C155.457 29.0076 158.978 32.373 163.256 32.373V24.373ZM163.185 22.7949L171.176 22.4339C171.016 18.8779 168.525 15.8557 165.065 15.019C161.605 14.1824 158.008 15.7325 156.241 18.8222L163.185 22.7949ZM158.432 24.9209V32.9209H158.432L158.432 24.9209ZM151.243 16.4248L143.243 16.4246V16.4248H151.243ZM82.3193 8.53516L82.3197 0.535156H82.3193V8.53516ZM82.8213 24.3857V32.3857H82.8213L82.8213 24.3857ZM76.1875 24.3857H68.1875C68.1875 28.804 71.7692 32.3857 76.1875 32.3857V24.3857ZM76.1875 8.53516V0.535156C71.7692 0.535156 68.1875 4.11688 68.1875 8.53516H76.1875ZM94.2988 24.3857V32.3857C98.7171 32.3857 102.299 28.804 102.299 24.3857H94.2988ZM90.9824 24.3857H82.9824C82.9824 28.804 86.5641 32.3857 90.9824 32.3857V24.3857ZM90.9824 8.53516V0.535156C86.5641 0.535156 82.9824 4.11688 82.9824 8.53516H90.9824ZM94.2988 8.53516H102.299C102.299 4.11688 98.7171 0.535156 94.2988 0.535156V8.53516ZM104.103 8.52832L104.103 0.52832H104.103V8.52832ZM108.972 13.1143L116.972 13.1143V13.1143H108.972ZM106.607 16.792L103.907 9.26166C100.687 10.4163 98.5578 13.4901 98.6083 16.91C98.6588 20.33 100.878 23.3395 104.13 24.3987L106.607 16.792ZM108.54 19.8965H116.54V19.8964L108.54 19.8965ZM108.54 24.3857V32.3857C112.958 32.3857 116.54 28.804 116.54 24.3857H108.54ZM105.294 24.3857H97.2939C97.2939 28.804 100.876 32.3857 105.294 32.3857V24.3857ZM102.814 18.1768L102.815 10.1768H102.814V18.1768ZM99.2783 18.1768V10.1768C94.86 10.1768 91.2783 13.7585 91.2783 18.1768H99.2783ZM99.2783 24.3799V32.3799C103.697 32.3799 107.278 28.7982 107.278 24.3799H99.2783ZM96.0576 24.3799H88.0576C88.0576 28.7982 91.6393 32.3799 96.0576 32.3799V24.3799ZM96.0576 8.52832V0.52832C91.6393 0.52832 88.0576 4.11004 88.0576 8.52832H96.0576ZM122.459 11.2979V19.2979C126.877 19.2979 130.459 15.7161 130.459 11.2979H122.459ZM117.66 11.2979V3.29785C113.242 3.29785 109.66 6.87957 109.66 11.2979H117.66ZM117.66 24.3857V32.3857C122.078 32.3857 125.66 28.804 125.66 24.3857H117.66ZM114.344 24.3857H106.344C106.344 28.804 109.925 32.3857 114.344 32.3857V24.3857ZM114.344 11.2979H122.344C122.344 6.87957 118.762 3.29785 114.344 3.29785V11.2979ZM109.57 11.2979H101.57C101.57 15.7161 105.152 19.2979 109.57 19.2979V11.2979ZM109.57 8.53516V0.535156C105.152 0.535156 101.57 4.11688 101.57 8.53516H109.57ZM122.459 8.53516H130.459C130.459 4.11688 126.877 0.535156 122.459 0.535156V8.53516ZM151.495 24.3857V32.3857C154.091 32.3857 156.526 31.1261 158.025 29.007C159.525 26.8879 159.903 24.1729 159.04 21.7247L151.495 24.3857ZM147.888 24.3857L140.24 26.7347C141.272 30.0933 144.374 32.3857 147.888 32.3857V24.3857ZM146.883 21.1143L154.53 18.7653C153.499 15.4067 150.396 13.1143 146.883 13.1143V21.1143ZM141.034 21.1143V13.1143C137.615 13.1143 134.573 15.2877 133.466 18.5228L141.034 21.1143ZM139.914 24.3857V32.3857C143.334 32.3857 146.375 30.2123 147.483 26.9772L139.914 24.3857ZM136.403 24.3857L128.869 21.6974C127.994 24.1473 128.366 26.8692 129.865 28.9952C131.363 31.1211 133.802 32.3857 136.403 32.3857V24.3857ZM142.059 8.53516V0.535156C138.677 0.535156 135.66 2.66167 134.524 5.84685L142.059 8.53516ZM145.904 8.53516L153.449 5.87408C152.32 2.67482 149.297 0.535156 145.904 0.535156V8.53516ZM135.939 12.8506L143.939 12.8516V12.8506H135.939ZM134.008 15.8135L130.977 8.40991C127.933 9.65594 125.962 12.6376 126.009 15.926C126.055 19.2144 128.109 22.1395 131.186 23.2994L134.008 15.8135ZM136.416 19.6582L144.415 19.8074C144.416 19.7577 144.416 19.7079 144.416 19.6581L136.416 19.6582ZM136.411 19.9199L144.404 20.262C144.407 20.1977 144.409 20.1335 144.41 20.0691L136.411 19.9199ZM123.36 24.3799H115.36C115.36 28.7982 118.942 32.3799 123.36 32.3799V24.3799ZM123.36 8.52832V0.52832C118.942 0.52832 115.36 4.11004 115.36 8.52832H123.36ZM79.4072 21.6875H71.4072C71.4072 26.1058 74.9889 29.6875 79.4072 29.6875V21.6875ZM82.1582 21.6875V29.6875H82.1586L82.1582 21.6875ZM86.2861 16.29L94.2861 16.2902V16.29H86.2861ZM81.8682 11.2783L81.8683 3.27832H81.8682V11.2783ZM79.4072 11.2783V3.27832C74.9889 3.27832 71.4072 6.86004 71.4072 11.2783H79.4072ZM126.562 21.6807H118.562C118.562 26.0989 122.143 29.6807 126.562 29.6807V21.6807ZM130.762 21.6807V29.6807H130.763L130.762 21.6807ZM133.196 19.4131H141.196V19.412L133.196 19.4131ZM130.807 17.4102L130.807 9.41016H130.807V17.4102ZM126.562 17.4102V9.41016C122.143 9.41016 118.562 12.9919 118.562 17.4102H126.562ZM141.892 18.3896L134.276 15.9399C133.493 18.3738 133.921 21.0353 135.426 23.1015C136.932 25.1676 139.335 26.3896 141.892 26.3896V18.3896ZM145.93 18.3896V26.3896C148.477 26.3896 150.873 25.1763 152.38 23.1223C153.887 21.0684 154.325 18.4194 153.561 15.9893L145.93 18.3896ZM143.946 12.084L151.578 9.68359C150.529 6.35097 147.44 4.08398 143.946 4.08398V12.084ZM143.92 12.084V4.08398C140.445 4.08398 137.368 6.32668 136.304 9.63427L143.92 12.084ZM99.2783 15.5039H91.2783C91.2783 19.9222 94.86 23.5039 99.2783 23.5039V15.5039ZM103.433 15.5039V23.5039H103.433L103.433 15.5039ZM105.867 13.4043L113.867 13.4048V13.4043H105.867ZM103.549 11.2783L103.55 3.27832H103.549V11.2783ZM99.2783 11.2783V3.27832C94.86 3.27832 91.2783 6.86004 91.2783 11.2783H99.2783ZM126.556 14.7178H118.556C118.556 19.1361 122.137 22.7178 126.556 22.7178V14.7178ZM132.738 12.998H140.738V12.9975L132.738 12.998ZM126.556 11.2783V3.27832C122.137 3.27832 118.556 6.86004 118.556 11.2783H126.556ZM139.16 30.7754L147.1 31.7545C147.076 31.9469 146.995 32.3264 146.737 32.7868C146.469 33.2651 146.074 33.7115 145.586 34.05C144.588 34.7424 143.948 34.5149 144.538 34.5872L145.511 26.6465L146.483 18.7058C143.235 18.308 139.593 18.7346 136.467 20.9036C133.23 23.1487 131.625 26.5148 131.22 29.7963L139.16 30.7754ZM145.511 26.6465H137.511V26.6533H145.511H153.511V26.6465H145.511ZM145.511 26.6533L144.534 34.5935C145.118 34.6652 144.665 34.7586 144.04 34.0739C143.737 33.7422 143.499 33.3335 143.361 32.8987C143.225 32.4741 143.216 32.1324 143.233 31.9357L151.205 32.5986L159.178 33.2616C159.468 29.763 158.46 26.1353 155.85 23.2796C153.309 20.4998 149.884 19.1309 146.487 18.7131L145.511 26.6533ZM151.205 32.5986L152.186 24.659L149.055 24.2723L148.074 32.2119L147.094 40.1516L150.224 40.5383L151.205 32.5986ZM148.074 32.2119L156.073 32.37C156.119 30.0483 155.491 27.0457 153.048 24.6235C150.813 22.4072 148.087 21.7254 146.217 21.4954L145.24 29.4355L144.264 37.3757C144.255 37.3747 144.188 37.3661 144.074 37.3388C143.96 37.3115 143.782 37.2614 143.559 37.1723C143.106 36.9913 142.441 36.6375 141.783 35.9853C140.268 34.4828 140.062 32.746 140.076 32.0538L148.074 32.2119ZM145.24 29.4355L146.208 21.4943C144.548 21.2919 142.016 21.2479 139.51 22.498C136.488 24.005 134.646 26.8232 134.256 29.9439L142.194 30.9365L150.133 31.9291C150.032 32.7315 149.733 33.7381 149.05 34.725C148.359 35.7226 147.481 36.4019 146.65 36.8164C145.862 37.2094 145.197 37.3275 144.835 37.3653C144.644 37.3852 144.5 37.3868 144.412 37.3849C144.323 37.383 144.275 37.3771 144.272 37.3768L145.24 29.4355ZM142.194 30.9365L134.254 29.9632C133.919 32.698 134.718 35.5392 136.827 37.7446C138.449 39.4407 140.412 40.277 141.557 40.7108L144.391 33.2295L147.224 25.7482C146.669 25.5379 147.473 25.7269 148.391 26.6871C148.948 27.2697 149.523 28.1081 149.87 29.1984C150.212 30.2731 150.218 31.2308 150.135 31.9099L142.194 30.9365ZM144.391 33.2295L141.594 40.7247C142.47 41.0515 143.184 41.3215 143.794 41.5766C144.091 41.7003 144.321 41.8036 144.497 41.8883C144.678 41.9756 144.751 42.0192 144.747 42.0169L148.893 35.1748L153.038 28.3327C151.158 27.1935 148.666 26.2862 147.187 25.7343L144.391 33.2295ZM148.893 35.1748L144.757 42.0228C144.755 42.0214 144.715 41.9975 144.65 41.9498C144.584 41.9018 144.484 41.8244 144.365 41.7146C144.12 41.4879 143.804 41.135 143.524 40.6427C142.892 39.5291 142.918 38.5703 142.948 38.327L150.89 39.291L158.831 40.255C159.131 37.7832 158.81 35.1592 157.437 32.741C156.129 30.4382 154.297 29.0927 153.028 28.3269L148.893 35.1748ZM150.89 39.291L142.949 38.3164C142.966 38.1768 143.052 37.7276 143.406 37.1736C143.771 36.6007 144.262 36.1707 144.739 35.9022C145.18 35.6542 145.485 35.6117 145.504 35.6092C145.521 35.607 145.354 35.629 144.972 35.5821L143.997 43.5225L143.022 51.4628C145.792 51.803 149.333 51.6755 152.582 49.8481C156.237 47.7925 158.341 44.2526 158.83 40.2656L150.89 39.291ZM143.997 43.5225L144.97 35.5819C144.069 35.4715 144.334 35.2815 144.931 35.8537C145.267 36.1756 145.585 36.6343 145.778 37.1868C145.965 37.7253 145.953 38.1236 145.94 38.2537L137.981 37.4424L130.023 36.631C129.614 40.64 130.87 44.5403 133.86 47.4054C136.583 50.0145 140.035 51.0968 143.024 51.4631L143.997 43.5225ZM137.981 37.4424L137 45.382L140.176 45.7745L141.157 37.835L142.139 29.8954L138.963 29.5028L137.981 37.4424ZM141.157 37.835L133.191 37.1051C132.895 40.3343 134.057 43.4417 136.4 45.665C138.547 47.7019 141.173 48.5397 143.374 48.809L144.346 40.8682L145.317 32.9274C145.412 32.939 146.37 33.0685 147.412 34.0574C148.651 35.2326 149.272 36.9523 149.124 38.5648L141.157 37.835ZM144.346 40.8682L143.373 48.8088C145.328 49.0482 148.018 48.9751 150.591 47.5301C153.51 45.8913 155.234 43.0632 155.615 40.0016L147.676 39.0137L139.737 38.0258C139.826 37.3109 140.085 36.4297 140.656 35.5537C141.235 34.6673 141.989 34.0108 142.758 33.5785C144.197 32.771 145.309 32.9263 145.318 32.9275L144.346 40.8682ZM147.676 39.0137L155.614 40.0059C155.873 37.9308 155.57 35.0474 153.376 32.5226C151.661 30.5492 149.467 29.6412 148.122 29.1702L145.479 36.7207L142.835 44.2712C143.403 44.4701 142.366 44.2448 141.3 43.0186C140.666 42.2889 140.151 41.3552 139.886 40.2837C139.636 39.277 139.683 38.4588 139.738 38.0214L147.676 39.0137ZM145.479 36.7207L148.124 29.1706C146.051 28.4446 145.65 28.2551 145.434 28.1252L141.312 34.9814L137.189 41.8377C139.073 42.9701 141.119 43.67 142.833 44.2708L145.479 36.7207ZM141.312 34.9814L145.456 28.1388C145.458 28.1401 145.495 28.1621 145.556 28.208C145.617 28.2542 145.709 28.3281 145.818 28.4334C146.044 28.6507 146.33 28.986 146.582 29.4502C147.147 30.492 147.142 31.4156 147.1 31.7519L139.16 30.7754L131.22 29.7989C130.934 32.1254 131.212 34.6722 132.518 37.0795C133.775 39.3962 135.602 40.8761 137.167 41.8241L141.312 34.9814ZM158.851 28.3408L166.767 27.1883C167.916 35.0787 157.386 39.0011 153.159 32.1133L159.978 27.9287L166.796 23.7442C161.873 15.7229 149.592 20.2761 150.934 29.4934L158.851 28.3408ZM159.978 27.9287L153.173 32.1362L153.798 33.1469L160.603 28.9395L167.407 24.732L166.782 23.7213L159.978 27.9287ZM160.603 28.9395L153.743 33.0554C156.908 38.3307 164.555 38.3307 167.72 33.0554L160.86 28.9395L154 24.8235C157.05 19.7414 164.413 19.7414 167.462 24.8235L160.603 28.9395ZM160.86 28.9395L167.665 33.1469L168.29 32.1362L161.485 27.9287L154.681 23.7213L154.056 24.732L160.86 28.9395ZM161.485 27.9287L168.303 32.1142C164.015 39.0999 153.552 34.9692 154.697 27.1775L162.612 28.3408L170.527 29.5041C171.866 20.3986 159.652 15.6243 154.668 23.7433L161.485 27.9287ZM162.612 28.3408L154.698 27.1737L154.524 28.3524L162.438 29.5195L170.353 30.6867L170.527 29.508L162.612 28.3408ZM162.438 29.5195L154.56 28.1293C153.353 34.9685 160.012 38.8808 165.018 37.3165L162.632 29.6807L160.246 22.0448C165.045 20.545 171.485 24.2895 170.317 30.9098L162.438 29.5195ZM162.632 29.6807L165.187 37.2615L166.314 36.8817L163.759 29.3008L161.203 21.7199L160.076 22.0998L162.632 29.6807ZM163.759 29.3008L166.311 36.8828C158.465 39.5236 153.225 29.5715 159.019 24.38L164.357 30.3379L169.696 36.2958C176.482 30.2155 170.315 18.6531 161.207 21.7187L163.759 29.3008ZM164.357 30.3379L159.061 24.3426L158.172 25.1278L163.469 31.123L168.766 37.1183L169.654 36.3331L164.357 30.3379ZM163.469 31.123L158.301 25.016C153.469 29.1045 154.985 36.7201 160.704 38.8653L163.514 31.375L166.324 23.8847C171.836 25.9526 173.301 33.2833 168.636 37.2301L163.469 31.123ZM163.514 31.375L160.576 38.8163L161.685 39.2538L164.622 31.8125L167.559 24.3712L166.451 23.9337L163.514 31.375ZM164.622 31.8125L161.701 39.26C153.997 36.238 156.38 25.2265 164.178 24.9947L164.416 32.9912L164.654 40.9877C173.778 40.7166 176.496 27.8768 167.543 24.365L164.622 31.8125ZM164.416 32.9912L164.2 24.9941L163.007 25.0264L163.224 33.0234L163.44 41.0205L164.632 40.9883L164.416 32.9912ZM163.224 33.0234L163.205 25.0235C156.565 25.0385 153.395 32.0215 156.025 36.9871L163.095 33.2422L170.164 29.4972C172.692 34.27 169.652 41.0089 163.242 41.0234L163.224 33.0234ZM163.095 33.2422L156.066 37.0624L156.633 38.1063L163.662 34.2861L170.691 30.4659L170.124 29.422L163.095 33.2422ZM163.662 34.2861L156.617 38.0762C152.813 31.0045 161.418 23.8187 167.7 28.7809L162.741 35.0586L157.782 41.3363C165.108 47.1226 175.142 38.7398 170.707 30.496L163.662 34.2861ZM162.741 35.0586L167.115 28.3599L165.981 27.6197L161.607 34.3184L157.234 41.0171L158.368 41.7573L162.741 35.0586ZM161.607 34.3184L166.485 27.9774C162.034 24.5535 154.643 26.5086 153.492 33.0138L161.369 34.4082L169.247 35.8026C168.69 38.9497 166.441 41.0078 164.177 41.824C161.991 42.6123 159.117 42.4959 156.73 40.6593L161.607 34.3184ZM161.369 34.4082H153.369V37.9336H161.369H169.369V34.4082H161.369ZM161.369 37.9336L168.144 42.1887C168.096 42.2653 167.861 42.6139 167.329 42.9549C166.73 43.3391 166.045 43.5225 165.466 43.5225V35.5225V27.5225C160.033 27.5225 156.462 30.7059 154.595 33.6785L161.369 37.9336ZM165.466 35.5225H157.466V36.9844H165.466H173.466V35.5225H165.466ZM165.466 36.9844V28.9844C159.005 28.9844 155.934 33.8589 154.88 36.2341C153.777 38.7189 153.54 41.0992 153.494 41.5932L161.459 42.3369L169.424 43.0806C169.417 43.1633 169.421 43.0809 169.452 42.9325C169.489 42.7589 169.521 42.6868 169.504 42.7242C169.491 42.7544 169.437 42.8715 169.321 43.0432C169.204 43.2151 168.992 43.4898 168.651 43.7867C168.299 44.0928 167.823 44.411 167.222 44.6457C166.612 44.884 166.006 44.9844 165.466 44.9844V36.9844ZM161.459 42.3369V50.3369H165.466V42.3369V34.3369H161.459V42.3369ZM165.466 42.3369H157.466V43.6064H165.466H173.466V42.3369H165.466ZM165.466 43.6064V35.6064H155.991V43.6064V51.6064H165.466V43.6064ZM155.991 43.6064H163.991V42.3369H155.991H147.991V43.6064H155.991ZM155.991 42.3369V50.3369H159.997V42.3369V34.3369H155.991V42.3369ZM159.997 42.3369L167.962 41.5932C167.916 41.1001 167.679 38.7198 166.577 36.235C165.523 33.8599 162.453 28.9851 155.992 28.9844L155.991 36.9844L155.99 44.9844C155.45 44.9843 154.844 44.8839 154.234 44.6455C153.633 44.4107 153.157 44.0924 152.805 43.7863C152.464 43.4893 152.252 43.2146 152.135 43.0426C152.019 42.8709 151.965 42.7537 151.952 42.7235C151.935 42.6861 151.967 42.7582 152.004 42.9318C152.035 43.0801 152.039 43.1626 152.032 43.0807L159.997 42.3369ZM155.991 36.9844H163.991V35.5225H155.991H147.991V36.9844H155.991ZM155.991 35.5225L155.991 43.5225C155.409 43.5224 154.722 43.3377 154.122 42.9518C153.591 42.6098 153.358 42.2611 153.312 42.1872L160.094 37.9443L166.876 33.7015C165.014 30.7249 161.441 27.5229 155.992 27.5225L155.991 35.5225ZM160.094 37.9443H168.094V34.4082H160.094H152.094V37.9443H160.094ZM160.094 34.4082L167.972 33.0156C166.907 26.9959 159.787 24.198 154.913 28.0278L159.855 34.3184L164.798 40.6089C160.104 44.297 153.241 41.6016 152.216 35.8008L160.094 34.4082ZM159.855 34.3184L155.482 27.6197L154.348 28.3599L158.722 35.0586L163.095 41.7573L164.229 41.0171L159.855 34.3184ZM158.722 35.0586L153.762 28.7815C160.044 23.8176 168.651 31.0053 164.846 38.0771L157.801 34.2861L150.756 30.4952C146.32 38.7392 156.356 47.1239 163.681 41.3357L158.722 35.0586ZM157.801 34.2861L164.832 38.1013L165.399 37.0573L158.367 33.2422L151.335 29.427L150.769 30.471L157.801 34.2861ZM158.367 33.2422L165.428 37.0037C168.216 31.7709 164.602 25.0234 158.238 25.0234V33.0234V41.0234C152.093 41.0234 148.622 34.5203 151.307 29.4806L158.367 33.2422ZM158.238 33.0234L158.455 25.0264L157.263 24.9941L157.047 32.9912L156.831 40.9883L158.022 41.0205L158.238 33.0234ZM157.047 32.9912L157.205 24.9928C165.579 25.1582 167.007 36.3904 159.787 39.2503L156.841 31.8125L153.895 24.3747C145.438 27.7243 147.188 40.798 156.889 40.9897L157.047 32.9912ZM156.841 31.8125L159.778 39.2538L160.886 38.8163L157.949 31.375L155.012 23.9337L153.904 24.3712L156.841 31.8125ZM157.949 31.375L160.767 38.8623C166.682 36.6363 167.689 29.1846 163.42 25.2446L157.994 31.123L152.568 37.0015C148.467 33.216 149.423 26.0362 155.131 23.8877L157.949 31.375ZM157.994 31.123L163.291 25.1278L162.402 24.3426L157.105 30.3379L151.809 36.3331L152.697 37.1183L157.994 31.123ZM157.105 30.3379L162.363 24.3077C168.589 29.7357 162.657 39.4098 155.151 36.8825L157.704 29.3008L160.257 21.7191C151.489 18.7666 144.617 30.0641 151.848 36.3681L157.105 30.3379ZM157.704 29.3008L155.149 36.8817L156.276 37.2615L158.831 29.6807L161.386 22.0998L160.26 21.7199L157.704 29.3008ZM158.831 29.6807L156.022 37.1713C161.91 39.3793 168.001 34.3529 166.903 28.1293L159.024 29.5195L151.146 30.9098C150.087 24.9052 155.958 20.0593 161.64 22.19L158.831 29.6807ZM159.024 29.5195L166.939 28.3524L166.765 27.1737L158.851 28.3408L150.936 29.508L151.11 30.6867L159.024 29.5195ZM99.5674 26.6338V34.6338C99.9052 34.6338 99.9262 34.6888 99.7525 34.6172C99.667 34.5819 99.5555 34.5241 99.4346 34.4373C99.3134 34.3503 99.2083 34.2522 99.1239 34.1546C98.9489 33.952 98.9451 33.8491 98.9931 34.0048C99.0455 34.1747 99.1357 34.5824 99.1357 35.2971L107.136 35.2969L115.136 35.2967C115.136 31.3552 114.162 27.0872 111.231 23.6943C108.15 20.1288 103.865 18.6338 99.5674 18.6338V26.6338ZM107.136 35.2969H99.1357C99.1357 36.0155 99.0445 36.3638 99.018 36.4468C99.0067 36.4821 99.0147 36.4459 99.0625 36.3614C99.1116 36.2747 99.1921 36.156 99.3113 36.0273C99.4313 35.8979 99.566 35.7851 99.7031 35.6948C99.8387 35.6056 99.9498 35.556 100.014 35.5321C100.136 35.4868 100.028 35.5547 99.5674 35.5547V43.5547V51.5547C103.544 51.5547 107.837 50.365 111.044 46.9062C114.159 43.5468 115.136 39.2381 115.136 35.2969H107.136ZM99.5674 43.5547L99.5676 35.5547C99.1526 35.5547 99.0656 35.491 99.1916 35.5394C99.2563 35.5643 99.36 35.6125 99.4835 35.6955C99.6081 35.7793 99.7274 35.8815 99.8318 35.9955C99.9356 36.1087 100.004 36.2105 100.044 36.2811C100.083 36.3499 100.086 36.3736 100.073 36.3318C100.042 36.2384 99.9541 35.8975 99.9541 35.2197H91.9541H83.9541C83.9541 39.1824 84.9697 43.4608 88.0378 46.8075C91.2032 50.2605 95.4768 51.5546 99.5671 51.5547L99.5674 43.5547ZM91.9541 35.2197L99.9541 35.2199C99.9541 34.5443 100.042 34.1657 100.089 34.0168C100.131 33.8822 100.122 33.9879 99.9499 34.1839C99.8675 34.278 99.7664 34.3707 99.6518 34.4521C99.5375 34.5333 99.4336 34.5864 99.356 34.6181C99.198 34.6829 99.2303 34.6279 99.5676 34.6279L99.5674 26.6279L99.5671 18.6279C95.276 18.6281 91.0053 20.1164 87.9198 23.6352C84.9659 27.0039 83.9542 31.2592 83.9541 35.2196L91.9541 35.2197ZM99.5674 26.6279H91.5674V26.6338H99.5674H107.567V26.6279H99.5674ZM115.67 26.6338V34.6338C116.008 34.6338 116.029 34.6888 115.855 34.6172C115.77 34.5819 115.658 34.5241 115.537 34.4373C115.416 34.3503 115.311 34.2522 115.226 34.1546C115.051 33.952 115.048 33.8491 115.096 34.0048C115.148 34.1747 115.238 34.5824 115.238 35.2971L123.238 35.2969L131.238 35.2967C131.238 31.3552 130.265 27.0872 127.334 23.6943C124.253 20.1288 119.968 18.6338 115.67 18.6338V26.6338ZM123.238 35.2969H115.238C115.238 36.0155 115.147 36.3638 115.121 36.4468C115.109 36.4821 115.117 36.4459 115.165 36.3614C115.214 36.2747 115.295 36.156 115.414 36.0273C115.534 35.8979 115.668 35.7851 115.806 35.6948C115.941 35.6056 116.052 35.556 116.117 35.5321C116.238 35.4868 116.13 35.5547 115.67 35.5547V43.5547V51.5547C119.647 51.5547 123.939 50.365 127.146 46.9062C130.261 43.5468 131.238 39.2381 131.238 35.2969H123.238ZM115.67 43.5547L115.67 35.5547C115.255 35.5547 115.168 35.491 115.294 35.5394C115.359 35.5643 115.463 35.6125 115.586 35.6955C115.711 35.7793 115.83 35.8815 115.934 35.9955C116.038 36.1087 116.106 36.2105 116.146 36.2811C116.185 36.3499 116.189 36.3736 116.175 36.3318C116.145 36.2384 116.057 35.8975 116.057 35.2197H108.057H100.057C100.057 39.1824 101.072 43.4608 104.14 46.8075C107.306 50.2605 111.579 51.5546 115.67 51.5547L115.67 43.5547ZM108.057 35.2197L116.057 35.2199C116.057 34.5443 116.144 34.1657 116.191 34.0168C116.234 33.8822 116.224 33.9879 116.052 34.1839C115.97 34.278 115.869 34.3707 115.754 34.4521C115.64 34.5333 115.536 34.5864 115.459 34.6181C115.301 34.6829 115.333 34.6279 115.67 34.6279L115.67 26.6279L115.67 18.6279C111.378 18.6281 107.108 20.1164 104.022 23.6352C101.068 27.0039 100.057 31.2592 100.057 35.2196L108.057 35.2197ZM115.67 26.6279H107.67V26.6338H115.67H123.67V26.6279H115.67ZM83.8066 26.6279V34.6279C84.14 34.6279 84.0239 34.7259 83.6794 34.4576C83.5018 34.3193 83.2779 34.0897 83.0882 33.7487C82.8938 33.3993 82.7806 33.0127 82.7529 32.6436L90.7305 32.0449L98.708 31.4462C98.0669 22.9039 90.4543 18.6279 83.8066 18.6279V26.6279ZM90.7305 32.0449V24.0449H87.3877V32.0449V40.0449H90.7305V32.0449ZM87.3877 32.0449L95.3371 31.1463C94.5784 24.4354 88.378 21.3711 83.8066 21.3711V29.3711V37.3711C83.0023 37.3711 82.1743 37.1191 81.4294 36.5628C80.708 36.0243 79.6539 34.8508 79.4383 32.9435L87.3877 32.0449ZM83.8066 29.3711L83.8065 21.3711C80.2211 21.3712 76.7179 22.8613 74.3109 25.9262C72.0837 28.7621 71.3887 32.1737 71.3887 35.1943H79.3887H87.3887C87.3887 34.4406 87.5758 34.9406 86.8942 35.8085C86.5336 36.2677 86.0181 36.7022 85.3769 37.0011C84.7478 37.2944 84.1844 37.3711 83.8068 37.3711L83.8066 29.3711ZM79.3887 35.1943L71.3887 35.1945C71.3887 37.6695 71.9841 40.7154 73.7819 43.4018C75.7767 46.3824 79.2259 48.7588 83.7812 48.7588V40.7588V32.7588C84.3477 32.7588 85.0672 32.9097 85.7708 33.3125C86.4423 33.697 86.8562 34.17 87.079 34.503C87.2914 34.8205 87.3574 35.0455 87.373 35.1043C87.3903 35.1691 87.3887 35.19 87.3887 35.1942L79.3887 35.1943ZM83.7812 40.7588L83.7817 48.7588C89.9606 48.7584 95.6455 43.9335 95.6455 37.1328H87.6455H79.6455C79.6455 34.2996 81.9429 32.7589 83.7808 32.7588L83.7812 40.7588ZM87.6455 37.1328V29.1328H84.1348V37.1328V45.1328H87.6455V37.1328ZM84.1348 37.1328L89.3411 43.2069L89.3479 43.201L84.1416 37.127L78.9353 31.0529L78.9284 31.0588L84.1348 37.1328ZM84.1416 37.127H92.1416V34.4795H84.1416H76.1416V37.127H84.1416ZM84.1416 34.4795V42.4795H90.7568V34.4795V26.4795H84.1416V34.4795ZM90.7568 34.4795H82.7568V43.001H90.7568H98.7568V34.4795H90.7568ZM90.7568 43.001V35.001H88.0127V43.001V51.001H90.7568V43.001ZM88.0127 43.001L96.0045 42.64L95.9333 41.0618L87.9414 41.4229L79.9496 41.7839L80.0208 43.362L88.0127 43.001ZM87.9414 41.4229L80.998 37.4492C81.6485 36.3127 82.4966 35.8303 82.8506 35.6734C83.2119 35.5134 83.3491 35.5479 83.1884 35.5479L83.1885 43.5479L83.1885 51.5479C86.7687 51.5478 92.0924 50.2757 94.8848 45.3965L87.9414 41.4229ZM83.1885 43.5479V35.5479C83.3626 35.5479 83.6153 35.5964 83.8629 35.7234C84.0919 35.8408 84.1964 35.9626 84.2117 35.9819C84.2223 35.9953 84.1641 35.9239 84.1035 35.74C84.0437 35.5585 84 35.3214 84 35.0526L76 35.0527L68 35.0529C68.0001 42.0718 72.7565 51.5479 83.1885 51.5479V43.5479ZM76 35.0527H84C84 34.637 84.0603 34.3764 84.0997 34.2561C84.1374 34.1412 84.1438 34.1869 84.0411 34.3062C83.9909 34.3646 83.9247 34.4282 83.844 34.488C83.763 34.5481 83.6852 34.5909 83.6217 34.6187C83.4825 34.6794 83.5074 34.6279 83.8067 34.6279L83.8066 26.6279L83.8065 18.6279C79.1312 18.628 74.8835 20.4198 71.9155 23.8674C69.0844 27.156 68 31.2605 68 35.0527H76ZM130.362 27.1562L130.362 35.1562C130.524 35.1563 130.516 35.1829 130.393 35.1343C130.262 35.0825 130.083 34.9771 129.918 34.8072C129.753 34.6378 129.687 34.4917 129.672 34.4533C129.661 34.4236 129.718 34.5578 129.718 34.918H137.718H145.718C145.718 30.7928 144.379 26.7289 141.389 23.6538C138.392 20.5704 134.385 19.1563 130.362 19.1562L130.362 27.1562ZM137.718 34.918L129.718 34.9177C129.718 35.8534 129.456 35.9197 129.72 35.6071C129.855 35.4475 130.067 35.2713 130.341 35.1464C130.613 35.0219 130.814 35.0078 130.864 35.0078V43.0078V51.0078C135.208 51.0078 139.181 49.202 141.943 45.9319C144.607 42.7788 145.718 38.8002 145.718 34.9182L137.718 34.918ZM130.864 43.0078V35.0078H124.23V43.0078V51.0078H130.864V43.0078ZM124.23 43.0078H132.23V27.1562H124.23H116.23V43.0078H124.23ZM124.23 27.1562V35.1562H130.362V27.1562V19.1562H124.23V27.1562ZM99.5674 29.5645L99.5669 21.5645C96.0802 21.5647 92.4702 22.9226 89.9903 26.1659C87.7733 29.0654 87.2198 32.4951 87.2197 35.2966L95.2197 35.2969L103.22 35.2971C103.22 34.3505 103.443 34.914 102.701 35.8844C102.29 36.4217 101.709 36.9028 101.017 37.2172C100.354 37.5181 99.817 37.5644 99.5679 37.5645L99.5674 29.5645ZM95.2197 35.2969H87.2197C87.2197 38.1314 87.8006 41.6536 90.239 44.5565C92.8928 47.7158 96.5139 48.7137 99.567 48.7139L99.5674 40.7139L99.5678 32.7139C99.6783 32.7139 100.11 32.7295 100.708 32.9692C101.351 33.2269 101.988 33.667 102.49 34.2655C103.441 35.3971 103.22 36.2108 103.22 35.2969H95.2197ZM99.5674 40.7139V48.7139C102.703 48.7139 106.108 47.5567 108.626 44.6844C111.05 41.9182 111.864 38.4661 111.864 35.2969H103.864H95.8643C95.8643 35.8763 95.7215 35.1327 96.5935 34.1378C97.5585 33.0369 98.8147 32.7139 99.5674 32.7139V40.7139ZM103.864 35.2969L111.864 35.2966C111.864 32.546 111.344 29.126 109.16 26.2192C106.691 22.9342 103.066 21.5645 99.5674 21.5645V29.5645V37.5645C99.319 37.5645 98.7675 37.5183 98.086 37.2061C97.3726 36.8793 96.7814 36.3805 96.3684 35.8309C95.6337 34.8531 95.8642 34.2993 95.8643 35.2971L103.864 35.2969ZM115.67 29.5645L115.669 21.5645C112.183 21.5647 108.573 22.9226 106.093 26.1659C103.876 29.0654 103.322 32.4951 103.322 35.2966L111.322 35.2969L119.322 35.2971C119.322 34.3504 119.545 34.914 118.803 35.8844C118.392 36.4217 117.812 36.9028 117.119 37.2172C116.457 37.5181 115.919 37.5644 115.67 37.5645L115.67 29.5645ZM111.322 35.2969H103.322C103.322 38.1314 103.903 41.6536 106.342 44.5565C108.995 47.7158 112.616 48.7137 115.67 48.7139L115.67 40.7139L115.67 32.7139C115.781 32.7139 116.213 32.7295 116.81 32.9692C117.453 33.2269 118.09 33.667 118.593 34.2655C119.543 35.3971 119.322 36.2108 119.322 35.2969H111.322ZM115.67 40.7139V48.7139C118.806 48.7139 122.21 47.5567 124.728 44.6844C127.153 41.9182 127.967 38.4661 127.967 35.2969H119.967H111.967C111.967 35.8763 111.824 35.1327 112.696 34.1378C113.661 33.0369 114.917 32.7139 115.67 32.7139V40.7139ZM119.967 35.2969L127.967 35.2966C127.967 32.546 127.446 29.126 125.262 26.2192C122.794 22.9342 119.169 21.5645 115.67 21.5645V29.5645V37.5645C115.422 37.5645 114.87 37.5183 114.189 37.2061C113.475 36.8793 112.884 36.3805 112.471 35.8309C111.736 34.8531 111.967 34.2993 111.967 35.2971L119.967 35.2969ZM127.457 40.3086V48.3086H130.207V40.3086V32.3086H127.457V40.3086ZM130.207 40.3086V48.3086C133.464 48.3086 137.208 47.1712 139.77 43.7311C141.965 40.7841 142.336 37.3523 142.336 34.9111L134.336 34.9111L126.336 34.9111C126.336 35.3742 126.293 35.5018 126.317 35.3992C126.344 35.2871 126.48 34.7881 126.937 34.1745C127.435 33.5061 128.124 32.9596 128.89 32.6278C129.594 32.3227 130.107 32.3086 130.207 32.3086V40.3086ZM134.336 34.9111H142.336C142.336 32.5475 142 28.8229 139.326 25.7814C136.417 22.4715 132.516 21.9005 129.918 21.9004L129.918 29.9004L129.918 37.9004C130.495 37.9004 128.803 38.0442 127.309 36.3444C126.658 35.6035 126.422 34.9094 126.351 34.6344C126.289 34.3992 126.336 34.4323 126.336 34.9111H134.336ZM129.918 29.9004V21.9004H127.457V29.9004V37.9004H129.918V29.9004ZM127.457 29.9004H119.457V40.3086H127.457H135.457V29.9004H127.457ZM159.05 8V16C159.383 16 159.267 16.0979 158.922 15.8297C158.745 15.6914 158.521 15.4619 158.331 15.121C158.137 14.7717 158.024 14.3852 157.996 14.0161L165.974 13.417L173.951 12.8179C173.31 4.27634 165.698 0 159.05 0V8ZM165.974 13.417V5.41699H162.631V13.417V21.417H165.974V13.417ZM162.631 13.417L170.58 12.5174C169.821 5.80503 163.618 2.74414 159.05 2.74414V10.7441V18.7441C158.247 18.7441 157.419 18.4927 156.674 17.9365C155.952 17.3979 154.897 16.2242 154.682 14.3165L162.631 13.417ZM159.05 10.7441L159.05 2.74414C155.465 2.74422 151.962 4.23359 149.555 7.29824C147.327 10.134 146.632 13.5456 146.632 16.5661L154.632 16.5664L162.632 16.5667C162.632 15.8131 162.819 16.3136 162.137 17.1818C161.776 17.6411 161.261 18.0755 160.619 18.3744C159.99 18.6675 159.427 18.7441 159.05 18.7441L159.05 10.7441ZM154.632 16.5664H146.632C146.632 19.0414 147.227 22.0872 149.025 24.7736C151.019 27.7542 154.468 30.1318 159.024 30.1318V22.1318V14.1318C159.591 14.1318 160.311 14.2829 161.015 14.6859C161.686 15.0705 162.1 15.5435 162.323 15.8762C162.535 16.1935 162.601 16.4183 162.616 16.4768C162.633 16.5415 162.632 16.5622 162.632 16.5664H154.632ZM159.024 22.1318L159.025 30.1318C165.204 30.1315 170.888 25.306 170.889 18.5064L162.889 18.5059L154.889 18.5053C154.889 15.6729 157.185 14.1319 159.024 14.1318L159.024 22.1318ZM162.889 18.5059V10.5059H159.379V18.5059V26.5059H162.889V18.5059ZM159.379 18.5059H167.379V15.8584H159.379H151.379V18.5059H159.379ZM159.379 15.8584L165.453 21.0647L165.459 21.0579L159.385 15.8516L153.311 10.6452L153.305 10.6521L159.379 15.8584ZM159.385 15.8516V23.8516H166V15.8516V7.85156H159.385V15.8516ZM166 15.8516H158V24.373H166H174V15.8516H166ZM166 24.373V16.373H163.256V24.373V32.373H166V24.373ZM163.256 24.373L171.248 24.012L171.176 22.4339L163.185 22.7949L155.193 23.1559L155.264 24.7341L163.256 24.373ZM163.185 22.7949L156.241 18.8222C156.891 17.6863 157.738 17.2039 158.092 17.0468C158.454 16.8866 158.591 16.9209 158.432 16.9209L158.432 24.9209L158.432 32.9209C162.015 32.9209 167.337 31.6464 170.128 26.7676L163.185 22.7949ZM158.432 24.9209V16.9209C158.606 16.9209 158.859 16.9696 159.107 17.0966C159.336 17.214 159.44 17.3358 159.455 17.355C159.466 17.3682 159.407 17.2967 159.347 17.1125C159.287 16.9309 159.243 16.6937 159.243 16.4248H151.243H143.243C143.243 23.4428 147.999 32.9209 158.432 32.9209V24.9209ZM151.243 16.4248L159.243 16.425C159.243 16.0093 159.303 15.7487 159.343 15.6283C159.381 15.5134 159.387 15.5591 159.284 15.6783C159.234 15.7366 159.168 15.8003 159.087 15.86C159.006 15.9201 158.929 15.963 158.865 15.9907C158.726 16.0515 158.751 16 159.05 16L159.05 8L159.05 0C154.374 5.29289e-05 150.127 1.79204 147.159 5.2396C144.328 8.52808 143.243 12.6324 143.243 16.4246L151.243 16.4248ZM82.3193 8.53516L82.3189 16.5352C82.4821 16.5352 82.4765 16.562 82.3548 16.5142C82.2248 16.4631 82.0455 16.3582 81.8792 16.1875C81.7131 16.0172 81.6452 15.8691 81.6301 15.8282C81.6181 15.7962 81.6748 15.929 81.6748 16.29H89.6748H97.6748C97.6748 12.1587 96.3325 8.09304 93.3369 5.01972C90.3359 1.94079 86.3309 0.535351 82.3197 0.535156L82.3193 8.53516ZM89.6748 16.29H81.6748V16.2959H89.6748H97.6748V16.29H89.6748ZM89.6748 16.2959H81.6748C81.6748 17.2317 81.4135 17.2978 81.6777 16.985C81.8126 16.8253 82.0247 16.6492 82.2979 16.5242C82.57 16.3997 82.7714 16.3857 82.8213 16.3857L82.8213 24.3857L82.8213 32.3857C87.1645 32.3857 91.138 30.5802 93.9004 27.31C96.564 24.1568 97.6748 20.178 97.6748 16.2959H89.6748ZM82.8213 24.3857V16.3857H76.1875V24.3857V32.3857H82.8213V24.3857ZM76.1875 24.3857H84.1875V8.53516H76.1875H68.1875V24.3857H76.1875ZM76.1875 8.53516V16.5352H82.3193V8.53516V0.535156H76.1875V8.53516ZM94.2988 24.3857V16.3857H90.9824V24.3857V32.3857H94.2988V24.3857ZM90.9824 24.3857H98.9824V8.53516H90.9824H82.9824V24.3857H90.9824ZM90.9824 8.53516V16.5352H94.2988V8.53516V0.535156H90.9824V8.53516ZM94.2988 8.53516H86.2988V24.3857H94.2988H102.299V8.53516H94.2988ZM104.103 8.52832L104.102 16.5283C103.758 16.5283 102.906 16.3844 102.092 15.6008C101.269 14.809 100.972 13.8245 100.972 13.1143H108.972H116.972C116.972 9.77617 115.708 6.4988 113.185 4.07099C110.67 1.6514 107.384 0.528455 104.103 0.52832L104.103 8.52832ZM108.972 13.1143L100.972 13.1142C100.972 12.6591 101.085 11.9301 101.581 11.1376C102.109 10.2955 102.936 9.60994 103.907 9.26166L106.607 16.792L109.308 24.3223C114.649 22.407 116.972 17.4569 116.972 13.1143L108.972 13.1143ZM106.607 16.792L104.13 24.3987C103.837 24.3035 102.392 23.7582 101.34 22.0947C100.445 20.6802 100.54 19.5219 100.54 19.8966L108.54 19.8965L116.54 19.8964C116.54 18.4097 116.371 15.9278 114.861 13.5407C113.193 10.9046 110.781 9.73783 109.085 9.18526L106.607 16.792ZM108.54 19.8965H100.54V24.3857H108.54H116.54V19.8965H108.54ZM108.54 24.3857V16.3857H105.294V24.3857V32.3857H108.54V24.3857ZM105.294 24.3857H113.294V20.3027H105.294H97.2939V24.3857H105.294ZM105.294 20.3027H113.294C113.294 18.8948 113.104 15.3879 110.106 12.7053C107.392 10.2773 104.137 10.1768 102.815 10.1768L102.814 18.1768L102.814 26.1768C102.932 26.1768 102.618 26.1921 102.079 26.0581C101.495 25.9129 100.46 25.5448 99.4373 24.6295C98.3678 23.6726 97.7975 22.5544 97.5268 21.6712C97.2894 20.8967 97.2939 20.3484 97.2939 20.3027H105.294ZM102.814 18.1768V10.1768H99.2783V18.1768V26.1768H102.814V18.1768ZM99.2783 18.1768H91.2783V24.3799H99.2783H107.278V18.1768H99.2783ZM99.2783 24.3799V16.3799H96.0576V24.3799V32.3799H99.2783V24.3799ZM96.0576 24.3799H104.058V8.52832H96.0576H88.0576V24.3799H96.0576ZM96.0576 8.52832V16.5283H104.103V8.52832V0.52832H96.0576V8.52832ZM122.459 11.2979V3.29785H117.66V11.2979V19.2979H122.459V11.2979ZM117.66 11.2979H109.66V24.3857H117.66H125.66V11.2979H117.66ZM117.66 24.3857V16.3857H114.344V24.3857V32.3857H117.66V24.3857ZM114.344 24.3857H122.344V11.2979H114.344H106.344V24.3857H114.344ZM114.344 11.2979V3.29785H109.57V11.2979V19.2979H114.344V11.2979ZM109.57 11.2979H117.57V8.53516H109.57H101.57V11.2979H109.57ZM109.57 8.53516V16.5352H122.459V8.53516V0.535156H109.57V8.53516ZM122.459 8.53516H114.459V11.2979H122.459H130.459V8.53516H122.459ZM151.495 24.3857V16.3857H147.888V24.3857V32.3857H151.495V24.3857ZM147.888 24.3857L155.535 22.0367L154.53 18.7653L146.883 21.1143L139.235 23.4633L140.24 26.7347L147.888 24.3857ZM146.883 21.1143V13.1143H141.034V21.1143V29.1143H146.883V21.1143ZM141.034 21.1143L133.466 18.5228L132.345 21.7943L139.914 24.3857L147.483 26.9772L148.603 23.7057L141.034 21.1143ZM139.914 24.3857V16.3857H136.403V24.3857V32.3857H139.914V24.3857ZM136.403 24.3857L143.938 27.0741L149.593 11.2235L142.059 8.53516L134.524 5.84685L128.869 21.6974L136.403 24.3857ZM142.059 8.53516V16.5352H145.904V8.53516V0.535156H142.059V8.53516ZM145.904 8.53516L138.36 11.1962L143.951 27.0468L151.495 24.3857L159.04 21.7247L153.449 5.87408L145.904 8.53516ZM131.167 8.52832V16.5283C131.331 16.5283 130.348 16.5598 129.266 15.5514C128.111 14.4767 127.939 13.2458 127.939 12.8506H135.939H143.939C143.939 9.80812 142.934 6.4161 140.169 3.84207C137.476 1.33439 134.107 0.52832 131.167 0.52832V8.52832ZM135.939 12.8506L127.939 12.8496C127.94 10.9605 129.079 9.18674 130.977 8.40991L134.008 15.8135L137.039 23.217C141.139 21.5385 143.939 17.4712 143.939 12.8516L135.939 12.8506ZM134.008 15.8135L131.186 23.2994C130.746 23.1333 129.883 22.6857 129.183 21.6968C128.471 20.6923 128.416 19.819 128.416 19.6583L136.416 19.6582L144.416 19.6581C144.416 17.2305 143.823 14.686 142.241 12.4516C140.67 10.2327 138.603 8.99608 136.829 8.32758L134.008 15.8135ZM136.416 19.6582L128.417 19.509L128.413 19.7707L136.411 19.9199L144.41 20.0691L144.415 19.8074L136.416 19.6582ZM136.411 19.9199L128.418 19.5778C128.428 19.3571 128.486 18.907 128.748 18.3536C129.02 17.7768 129.43 17.2689 129.908 16.892C130.819 16.1741 131.36 16.3799 130.497 16.3799V24.3799V32.3799C133.496 32.3799 136.936 31.7241 139.809 29.4605C142.904 27.0223 144.262 23.5748 144.404 20.262L136.411 19.9199ZM130.497 24.3799V16.3799H123.36V24.3799V32.3799H130.497V24.3799ZM123.36 24.3799H131.36V8.52832H123.36H115.36V24.3799H123.36ZM123.36 8.52832V16.5283H131.167V8.52832V0.52832H123.36V8.52832ZM79.4072 21.6875V29.6875H82.1582V21.6875V13.6875H79.4072V21.6875ZM82.1582 21.6875L82.1586 29.6875C85.4158 29.6873 89.1597 28.5493 91.7211 25.1088C93.915 22.1619 94.2861 18.7305 94.2861 16.2902L86.2861 16.29L78.2861 16.2899C78.2861 16.7532 78.2429 16.8809 78.2674 16.7786C78.2942 16.6667 78.4303 16.1679 78.8871 15.5543C79.3848 14.8858 80.0736 14.3391 80.84 14.007C81.5447 13.7017 82.0578 13.6875 82.1578 13.6875L82.1582 21.6875ZM86.2861 16.29H94.2861C94.2861 13.9264 93.95 10.2022 91.2775 7.16074C88.3687 3.85024 84.4678 3.27836 81.8683 3.27832L81.8682 11.2783L81.868 19.2783C82.4438 19.2783 80.7519 19.4217 79.2582 17.7218C78.6074 16.9811 78.3722 16.2874 78.3007 16.0128C78.2395 15.7779 78.2861 15.8112 78.2861 16.29H86.2861ZM81.8682 11.2783V3.27832H79.4072V11.2783V19.2783H81.8682V11.2783ZM79.4072 11.2783H71.4072V21.6875H79.4072H87.4072V11.2783H79.4072ZM126.562 21.6807V29.6807H130.762V21.6807V13.6807H126.562V21.6807ZM130.762 21.6807L130.763 29.6807C133.273 29.6803 135.991 28.8413 138.125 26.7685C140.256 24.6984 141.196 21.9818 141.196 19.4131H133.196H125.196C125.196 18.1324 125.682 16.5495 126.978 15.2912C128.276 14.0301 129.777 13.6808 130.761 13.6807L130.762 21.6807ZM133.196 19.4131L141.196 19.412C141.196 16.8339 140.251 13.7885 137.535 11.6298C135.145 9.73014 132.474 9.41025 130.807 9.41016L130.807 17.4102L130.806 25.4102C130.62 25.4101 129.145 25.3995 127.579 24.1552C125.688 22.6518 125.196 20.6078 125.196 19.4142L133.196 19.4131ZM130.807 17.4102V9.41016H126.562V17.4102V25.4102H130.807V17.4102ZM126.562 17.4102H118.562V21.6807H126.562H134.562V17.4102H126.562ZM141.892 18.3896V26.3896H145.93V18.3896V10.3896H141.892V18.3896ZM145.93 18.3896L153.561 15.9893L151.578 9.68359L143.946 12.084L136.315 14.4844L138.298 20.79L145.93 18.3896ZM143.946 12.084V4.08398H143.92V12.084V20.084H143.946V12.084ZM143.92 12.084L136.304 9.63427L134.276 15.9399L141.892 18.3896L149.507 20.8394L151.536 14.5337L143.92 12.084ZM99.2783 15.5039V23.5039H103.433V15.5039V7.50391H99.2783V15.5039ZM103.433 15.5039L103.433 23.5039C105.494 23.5038 108.421 23.0059 110.828 20.7137C113.302 18.3578 113.867 15.4123 113.867 13.4048L105.867 13.4043L97.8672 13.4038C97.8672 12.6393 98.0968 10.7435 99.7948 9.12665C101.426 7.57354 103.136 7.50392 103.432 7.50391L103.433 15.5039ZM105.867 13.4043H113.867C113.867 11.4105 113.315 8.56656 111.002 6.23787C108.671 3.88988 105.755 3.27855 103.55 3.27832L103.549 11.2783L103.548 19.2783C102.991 19.2783 101.235 19.1084 99.6499 17.5126C98.0843 15.9361 97.8672 14.1551 97.8672 13.4043H105.867ZM103.549 11.2783V3.27832H99.2783V11.2783V19.2783H103.549V11.2783ZM99.2783 11.2783H91.2783V15.5039H99.2783H107.278V11.2783H99.2783ZM126.556 14.7178V22.7178H130.735V14.7178V6.71777H126.556V14.7178ZM130.735 14.7178V22.7178C132.461 22.7178 135.128 22.3401 137.451 20.3396C139.979 18.162 140.738 15.2568 140.738 12.998H132.738H124.738C124.738 11.86 125.153 9.81472 127.008 8.21681C128.658 6.7959 130.324 6.71777 130.735 6.71777V14.7178ZM132.738 12.998L140.738 12.9975C140.738 11.0036 140.158 7.73286 137.152 5.3811C134.638 3.41409 131.83 3.27832 130.542 3.27832V11.2783V19.2783C130.539 19.2783 130.209 19.2821 129.693 19.1596C129.158 19.0328 128.244 18.7272 127.292 17.9824C124.997 16.1862 124.738 13.7753 124.738 12.9986L132.738 12.998ZM130.542 11.2783V3.27832H126.556V11.2783V19.2783H130.542V11.2783ZM126.556 11.2783H118.556V14.7178H126.556H134.556V11.2783H126.556Z" fill="#E6E2DE" mask="url(#path-4-outside-1_1116_38)"/>
</svg>
