<svg width="242" height="240" viewBox="0 0 242 240" fill="none" xmlns="http://www.w3.org/2000/svg">
<rect y="80" width="242" height="160" rx="12" fill="#E6E2DE"/>
<path d="M71.7474 155H67.6674V143.512H71.7474C75.3954 143.512 77.6034 145.848 77.6034 149.192C77.6034 152.536 75.3154 155 71.7474 155ZM70.0994 145.608V152.904H71.6194C73.9074 152.904 75.1074 151.576 75.1074 149.192C75.1074 146.904 73.9074 145.608 71.6194 145.608H70.0994ZM81.5164 144.472C81.5164 145.224 80.9084 145.784 80.0284 145.784C79.1644 145.784 78.5564 145.224 78.5564 144.472C78.5564 143.688 79.1644 143.128 80.0284 143.128C80.9084 143.128 81.5164 143.688 81.5164 144.472ZM81.1644 155H78.9404V146.456H81.1644V155ZM85.2076 150.856V155H82.9836V146.456H85.0316V148.104C85.6556 147.016 86.9836 146.36 88.3596 146.36V148.664C86.4716 148.52 85.2076 148.968 85.2076 150.856ZM95.2137 152.84V154.776C94.6697 155.048 94.1577 155.16 93.5017 155.16C91.7417 155.16 90.6377 154.152 90.6377 152.232V148.36H88.9097V146.456H90.6377V143.928H92.8457V146.456H95.2937V148.36H92.8457V151.72C92.8457 152.712 93.2937 153.112 94.0937 153.112C94.5097 153.112 94.8937 153.016 95.2137 152.84ZM105.02 150.728C105.02 153.224 103.532 155.16 101.228 155.16C100.124 155.16 99.1957 154.664 98.5397 153.768V155H96.4917V143.512H98.7157V147.56C99.3397 146.728 100.204 146.296 101.228 146.296C103.532 146.296 105.02 148.2 105.02 150.728ZM102.732 150.728C102.732 149.096 101.82 148.264 100.732 148.264C99.6597 148.264 98.7317 149.08 98.7317 150.696C98.7317 152.312 99.6277 153.176 100.732 153.176C101.82 153.176 102.732 152.328 102.732 150.728ZM111.373 155V153.944C110.813 154.744 109.965 155.16 108.797 155.16C107.021 155.16 105.837 154.12 105.837 152.52C105.837 150.856 107.181 149.96 109.677 149.96C110.157 149.96 110.573 149.992 111.101 150.056V149.544C111.101 148.584 110.557 148.024 109.629 148.024C108.669 148.024 108.093 148.584 108.013 149.544H106.013C106.141 147.576 107.565 146.296 109.629 146.296C111.869 146.296 113.181 147.528 113.181 149.624V155H111.373ZM107.933 152.456C107.933 153.176 108.445 153.624 109.277 153.624C110.413 153.624 111.101 153 111.101 152.008V151.4C110.573 151.32 110.205 151.288 109.821 151.288C108.557 151.288 107.933 151.688 107.933 152.456ZM118.569 158.248C116.265 158.248 114.729 157 114.633 155.032H116.777C116.873 156.008 117.497 156.52 118.553 156.52C119.785 156.52 120.425 155.864 120.425 154.632V153.384C119.961 154.2 119.081 154.68 118.041 154.68C115.945 154.68 114.377 152.904 114.377 150.488C114.377 148.008 115.849 146.296 117.961 146.296C119.113 146.296 119.977 146.744 120.601 147.624V146.456H122.633V154.6C122.633 156.872 121.097 158.248 118.569 158.248ZM116.601 150.488C116.601 151.88 117.321 152.76 118.473 152.76C119.641 152.76 120.409 151.848 120.409 150.504C120.409 149.112 119.641 148.216 118.473 148.216C117.337 148.216 116.601 149.096 116.601 150.488ZM133.104 155.24C129.776 155.24 127.184 152.76 127.184 149.208C127.184 145.816 129.648 143.272 133.008 143.272C135.92 143.272 138 145 138.752 147.496H135.888C135.536 146.328 134.48 145.448 132.944 145.448C131.088 145.448 129.68 146.808 129.68 149.272C129.68 151.48 130.912 153.176 133.216 153.176C134.912 153.176 135.984 152.168 136.304 150.744H132.976V148.808H138.896C139.04 152.552 136.768 155.24 133.104 155.24ZM144.015 155.16C141.535 155.16 139.679 153.208 139.679 150.728C139.679 148.232 141.535 146.296 144.015 146.296C146.495 146.296 148.351 148.232 148.351 150.728C148.351 153.208 146.495 155.16 144.015 155.16ZM144.015 153.192C145.119 153.192 146.063 152.312 146.063 150.728C146.063 149.144 145.119 148.28 144.015 148.28C142.911 148.28 141.967 149.144 141.967 150.728C141.967 152.312 142.911 153.192 144.015 153.192ZM153.386 155.16C150.906 155.16 149.05 153.208 149.05 150.728C149.05 148.232 150.906 146.296 153.386 146.296C155.866 146.296 157.722 148.232 157.722 150.728C157.722 153.208 155.866 155.16 153.386 155.16ZM153.386 153.192C154.49 153.192 155.434 152.312 155.434 150.728C155.434 149.144 154.49 148.28 153.386 148.28C152.282 148.28 151.338 149.144 151.338 150.728C151.338 152.312 152.282 153.192 153.386 153.192ZM158.421 150.728C158.421 148.2 159.909 146.296 162.213 146.296C163.237 146.296 164.101 146.744 164.741 147.56V143.512H166.949V155H164.917V153.768C164.245 154.664 163.317 155.16 162.213 155.16C159.909 155.16 158.421 153.224 158.421 150.728ZM160.709 150.728C160.709 152.328 161.621 153.176 162.709 153.176C163.813 153.176 164.725 152.312 164.725 150.696C164.725 149.08 163.797 148.264 162.709 148.264C161.621 148.264 160.709 149.096 160.709 150.728ZM175.99 152.264C175.99 154.056 174.63 155.16 172.198 155.16C169.766 155.16 168.406 153.992 168.23 152.088H170.358C170.374 152.968 171.126 153.528 172.23 153.528C173.094 153.528 173.75 153.256 173.75 152.648C173.75 152.104 173.398 151.88 172.582 151.72L171.046 151.432C169.51 151.16 168.582 150.312 168.582 148.984C168.582 147.4 169.942 146.296 172.07 146.296C174.214 146.296 175.686 147.432 175.846 149.272H173.718C173.638 148.44 173.014 147.928 172.07 147.928C171.254 147.928 170.71 148.232 170.71 148.776C170.71 149.288 171.062 149.496 171.83 149.64L173.478 149.944C175.142 150.264 175.99 151.032 175.99 152.264Z" fill="#1A1A1A"/>
<path d="M62.9278 172.116C62.9278 173.95 61.5838 175 59.4978 175H55.8158V164.948H59.3018C61.3318 164.948 62.5498 165.886 62.5498 167.58C62.5498 168.532 61.9758 169.344 61.0098 169.764C62.2558 170.114 62.9278 170.968 62.9278 172.116ZM59.2038 166.18H57.2298V169.204H59.2038C60.4218 169.204 61.0798 168.63 61.0798 167.692C61.0798 166.754 60.4218 166.18 59.2038 166.18ZM59.3998 170.436H57.2298V173.768H59.3998C60.7158 173.768 61.4578 173.138 61.4578 172.074C61.4578 171.052 60.7158 170.436 59.3998 170.436ZM65.7246 171.206V175H64.3106V167.58H65.6266V169.148C66.1446 168.126 67.2646 167.482 68.4826 167.482V168.952C66.8866 168.868 65.7246 169.568 65.7246 171.206ZM73.8156 175V173.852C73.3536 174.678 72.5276 175.14 71.4356 175.14C69.8956 175.14 68.8876 174.258 68.8876 172.9C68.8876 171.444 70.0496 170.688 72.2616 170.688C72.6956 170.688 73.0456 170.702 73.6476 170.772V170.226C73.6476 169.162 73.0736 168.56 72.0936 168.56C71.0576 168.56 70.4276 169.176 70.3856 170.212H69.0976C69.1676 168.546 70.3576 167.44 72.0936 167.44C73.9276 167.44 74.9916 168.476 74.9916 170.24V175H73.8156ZM70.2316 172.858C70.2316 173.628 70.8056 174.132 71.7156 174.132C72.9056 174.132 73.6476 173.39 73.6476 172.256V171.654C73.1016 171.584 72.7096 171.57 72.3456 171.57C70.9316 171.57 70.2316 171.99 70.2316 172.858ZM78.0161 170.814V175H76.6021V167.58H77.9181V168.812C78.4221 167.986 79.2621 167.44 80.2841 167.44C81.8101 167.44 82.8181 168.42 82.8181 170.198V175H81.4041V170.674C81.4041 169.4 80.8441 168.686 79.7941 168.686C78.8281 168.686 78.0161 169.498 78.0161 170.814ZM83.8839 171.29C83.8839 169.036 85.1719 167.44 87.1739 167.44C88.1679 167.44 89.0359 167.944 89.5539 168.854V164.948H90.9679V175H89.6519V173.67C89.1199 174.608 88.2239 175.14 87.1739 175.14C85.1719 175.14 83.8839 173.516 83.8839 171.29ZM85.3539 171.29C85.3539 172.942 86.2219 173.88 87.4539 173.88C88.6579 173.88 89.5539 172.9 89.5539 171.262C89.5539 169.596 88.6299 168.686 87.4539 168.686C86.2219 168.686 85.3539 169.61 85.3539 171.29ZM96.9512 175H95.4112V164.948H96.9512V175ZM98.206 171.29C98.206 169.036 99.494 167.44 101.496 167.44C102.49 167.44 103.358 167.944 103.876 168.854V164.948H105.29V175H103.974V173.67C103.442 174.608 102.546 175.14 101.496 175.14C99.494 175.14 98.206 173.516 98.206 171.29ZM99.676 171.29C99.676 172.942 100.544 173.88 101.776 173.88C102.98 173.88 103.876 172.9 103.876 171.262C103.876 169.596 102.952 168.686 101.776 168.686C100.544 168.686 99.676 169.61 99.676 171.29ZM110.028 175.14C107.886 175.14 106.444 173.586 106.444 171.248C106.444 169.05 107.942 167.44 109.986 167.44C112.198 167.44 113.668 169.232 113.416 171.64H107.886C107.998 173.152 108.754 174.034 110 174.034C111.05 174.034 111.778 173.46 112.016 172.494H113.416C113.052 174.146 111.778 175.14 110.028 175.14ZM109.958 168.504C108.824 168.504 108.054 169.316 107.9 170.702H111.918C111.848 169.33 111.106 168.504 109.958 168.504ZM116.053 170.814V175H114.639V167.58H115.955V168.812C116.459 167.986 117.299 167.44 118.321 167.44C119.847 167.44 120.855 168.42 120.855 170.198V175H119.441V170.674C119.441 169.4 118.881 168.686 117.831 168.686C116.865 168.686 116.053 169.498 116.053 170.814ZM126.611 173.628V174.874C126.177 175.07 125.799 175.14 125.351 175.14C123.979 175.14 123.027 174.398 123.027 172.76V168.784H121.389V167.58H123.027V165.382H124.441V167.58H126.681V168.784H124.441V172.438C124.441 173.46 124.931 173.824 125.687 173.824C126.023 173.824 126.317 173.768 126.611 173.628ZM129.473 165.858C129.473 166.39 129.053 166.796 128.451 166.796C127.849 166.796 127.415 166.39 127.415 165.858C127.415 165.312 127.849 164.92 128.451 164.92C129.053 164.92 129.473 165.312 129.473 165.858ZM129.165 175H127.751V167.58H129.165V175ZM135.034 173.628V174.874C134.6 175.07 134.222 175.14 133.774 175.14C132.402 175.14 131.45 174.398 131.45 172.76V168.784H129.812V167.58H131.45V165.382H132.864V167.58H135.104V168.784H132.864V172.438C132.864 173.46 133.354 173.824 134.11 173.824C134.446 173.824 134.74 173.768 135.034 173.628ZM142.333 167.58L138.623 177.702H137.083L138.147 174.902L135.221 167.58H136.747L138.903 173.236L140.905 167.58H142.333ZM148.993 175H145.815V164.948H148.993C152.199 164.948 154.047 166.992 154.047 169.932C154.047 172.83 152.129 175 148.993 175ZM147.355 166.278V173.67H148.923C151.233 173.67 152.479 172.242 152.479 169.932C152.479 167.664 151.247 166.278 148.923 166.278H147.355ZM158.319 175.14C156.177 175.14 154.735 173.586 154.735 171.248C154.735 169.05 156.233 167.44 158.277 167.44C160.489 167.44 161.959 169.232 161.707 171.64H156.177C156.289 173.152 157.045 174.034 158.291 174.034C159.341 174.034 160.069 173.46 160.307 172.494H161.707C161.343 174.146 160.069 175.14 158.319 175.14ZM158.249 168.504C157.115 168.504 156.345 169.316 156.191 170.702H160.209C160.139 169.33 159.397 168.504 158.249 168.504ZM168.81 172.788C168.81 174.244 167.676 175.14 165.702 175.14C163.742 175.14 162.58 174.174 162.44 172.578H163.798C163.854 173.502 164.596 174.076 165.73 174.076C166.724 174.076 167.382 173.726 167.382 173.026C167.382 172.41 167.004 172.144 166.08 171.962L164.876 171.738C163.504 171.472 162.734 170.772 162.734 169.652C162.734 168.35 163.868 167.44 165.59 167.44C167.368 167.44 168.572 168.392 168.698 169.918H167.34C167.256 169.022 166.598 168.504 165.604 168.504C164.708 168.504 164.106 168.882 164.106 169.526C164.106 170.128 164.484 170.408 165.38 170.576L166.64 170.814C168.11 171.08 168.81 171.724 168.81 172.788ZM171.796 165.858C171.796 166.39 171.376 166.796 170.774 166.796C170.172 166.796 169.738 166.39 169.738 165.858C169.738 165.312 170.172 164.92 170.774 164.92C171.376 164.92 171.796 165.312 171.796 165.858ZM171.488 175H170.074V167.58H171.488V175ZM176.139 177.856C174.193 177.856 172.933 176.82 172.849 175.14H174.221C174.305 176.176 174.977 176.736 176.125 176.736C177.399 176.736 178.071 176.05 178.071 174.776V173.432C177.651 174.328 176.811 174.846 175.803 174.846C173.955 174.846 172.639 173.32 172.639 171.136C172.639 168.924 173.899 167.44 175.761 167.44C176.825 167.44 177.665 167.958 178.169 168.896V167.58H179.485V174.748C179.485 176.694 178.239 177.856 176.139 177.856ZM174.067 171.136C174.067 172.676 174.823 173.614 176.055 173.614C177.259 173.614 178.071 172.648 178.071 171.178C178.071 169.638 177.273 168.658 176.055 168.658C174.837 168.658 174.067 169.61 174.067 171.136ZM182.576 170.814V175H181.162V167.58H182.478V168.812C182.982 167.986 183.822 167.44 184.844 167.44C186.37 167.44 187.378 168.42 187.378 170.198V175H185.964V170.674C185.964 169.4 185.404 168.686 184.354 168.686C183.388 168.686 182.576 169.498 182.576 170.814ZM79.8399 192L77.7119 184.118L75.5699 192H73.9879L71.3699 181.948H72.8819L74.8139 189.69L76.9279 181.948H78.5239L80.6099 189.704L82.5419 181.948H84.0539L81.4359 192H79.8399ZM87.461 192.14C85.319 192.14 83.877 190.586 83.877 188.248C83.877 186.05 85.375 184.44 87.419 184.44C89.631 184.44 91.101 186.232 90.849 188.64H85.319C85.431 190.152 86.187 191.034 87.433 191.034C88.483 191.034 89.211 190.46 89.449 189.494H90.849C90.485 191.146 89.211 192.14 87.461 192.14ZM87.391 185.504C86.257 185.504 85.487 186.316 85.333 187.702H89.351C89.281 186.33 88.539 185.504 87.391 185.504ZM99.1564 188.29C99.1564 190.516 97.8684 192.14 95.8664 192.14C94.8164 192.14 93.9204 191.608 93.3884 190.67V192H92.0724V181.948H93.4864V185.854C94.0044 184.944 94.8584 184.44 95.8664 184.44C97.8544 184.44 99.1564 186.036 99.1564 188.29ZM97.6864 188.29C97.6864 186.61 96.8044 185.686 95.5864 185.686C94.4104 185.686 93.4864 186.596 93.4864 188.262C93.4864 189.9 94.3824 190.88 95.5864 190.88C96.8044 190.88 97.6864 189.942 97.6864 188.29ZM106.19 189.788C106.19 191.244 105.056 192.14 103.082 192.14C101.122 192.14 99.96 191.174 99.82 189.578H101.178C101.234 190.502 101.976 191.076 103.11 191.076C104.104 191.076 104.762 190.726 104.762 190.026C104.762 189.41 104.384 189.144 103.46 188.962L102.256 188.738C100.884 188.472 100.114 187.772 100.114 186.652C100.114 185.35 101.248 184.44 102.97 184.44C104.748 184.44 105.952 185.392 106.078 186.918H104.72C104.636 186.022 103.978 185.504 102.984 185.504C102.088 185.504 101.486 185.882 101.486 186.526C101.486 187.128 101.864 187.408 102.76 187.576L104.02 187.814C105.49 188.08 106.19 188.724 106.19 189.788ZM109.176 182.858C109.176 183.39 108.756 183.796 108.154 183.796C107.552 183.796 107.118 183.39 107.118 182.858C107.118 182.312 107.552 181.92 108.154 181.92C108.756 181.92 109.176 182.312 109.176 182.858ZM108.868 192H107.454V184.58H108.868V192ZM114.737 190.628V191.874C114.303 192.07 113.925 192.14 113.477 192.14C112.105 192.14 111.153 191.398 111.153 189.76V185.784H109.515V184.58H111.153V182.382H112.567V184.58H114.807V185.784H112.567V189.438C112.567 190.46 113.057 190.824 113.813 190.824C114.149 190.824 114.443 190.768 114.737 190.628ZM118.723 192.14C116.581 192.14 115.139 190.586 115.139 188.248C115.139 186.05 116.637 184.44 118.681 184.44C120.893 184.44 122.363 186.232 122.111 188.64H116.581C116.693 190.152 117.449 191.034 118.695 191.034C119.745 191.034 120.473 190.46 120.711 189.494H122.111C121.747 191.146 120.473 192.14 118.723 192.14ZM118.653 185.504C117.519 185.504 116.749 186.316 116.595 187.702H120.613C120.543 186.33 119.801 185.504 118.653 185.504ZM129.27 192H126.092V181.948H129.27C132.476 181.948 134.324 183.992 134.324 186.932C134.324 189.83 132.406 192 129.27 192ZM127.632 183.278V190.67H129.2C131.51 190.67 132.756 189.242 132.756 186.932C132.756 184.664 131.524 183.278 129.2 183.278H127.632ZM138.596 192.14C136.454 192.14 135.012 190.586 135.012 188.248C135.012 186.05 136.51 184.44 138.554 184.44C140.766 184.44 142.236 186.232 141.984 188.64H136.454C136.566 190.152 137.322 191.034 138.568 191.034C139.618 191.034 140.346 190.46 140.584 189.494H141.984C141.62 191.146 140.346 192.14 138.596 192.14ZM138.526 185.504C137.392 185.504 136.622 186.316 136.468 187.702H140.486C140.416 186.33 139.674 185.504 138.526 185.504ZM149.087 189.788C149.087 191.244 147.953 192.14 145.979 192.14C144.019 192.14 142.857 191.174 142.717 189.578H144.075C144.131 190.502 144.873 191.076 146.007 191.076C147.001 191.076 147.659 190.726 147.659 190.026C147.659 189.41 147.281 189.144 146.357 188.962L145.153 188.738C143.781 188.472 143.011 187.772 143.011 186.652C143.011 185.35 144.145 184.44 145.867 184.44C147.645 184.44 148.849 185.392 148.975 186.918H147.617C147.533 186.022 146.875 185.504 145.881 185.504C144.985 185.504 144.383 185.882 144.383 186.526C144.383 187.128 144.761 187.408 145.657 187.576L146.917 187.814C148.387 188.08 149.087 188.724 149.087 189.788ZM152.073 182.858C152.073 183.39 151.653 183.796 151.051 183.796C150.449 183.796 150.015 183.39 150.015 182.858C150.015 182.312 150.449 181.92 151.051 181.92C151.653 181.92 152.073 182.312 152.073 182.858ZM151.765 192H150.351V184.58H151.765V192ZM156.416 194.856C154.47 194.856 153.21 193.82 153.126 192.14H154.498C154.582 193.176 155.254 193.736 156.402 193.736C157.676 193.736 158.348 193.05 158.348 191.776V190.432C157.928 191.328 157.088 191.846 156.08 191.846C154.232 191.846 152.916 190.32 152.916 188.136C152.916 185.924 154.176 184.44 156.038 184.44C157.102 184.44 157.942 184.958 158.446 185.896V184.58H159.762V191.748C159.762 193.694 158.516 194.856 156.416 194.856ZM154.344 188.136C154.344 189.676 155.1 190.614 156.332 190.614C157.536 190.614 158.348 189.648 158.348 188.178C158.348 186.638 157.55 185.658 156.332 185.658C155.114 185.658 154.344 186.61 154.344 188.136ZM162.854 187.814V192H161.44V184.58H162.756V185.812C163.26 184.986 164.1 184.44 165.122 184.44C166.648 184.44 167.656 185.42 167.656 187.198V192H166.242V187.674C166.242 186.4 165.682 185.686 164.632 185.686C163.666 185.686 162.854 186.498 162.854 187.814ZM171.171 191.398C171.171 192.728 170.121 193.764 168.581 193.792V192.994C169.491 192.966 170.107 192.476 170.191 191.79C170.065 191.832 169.981 191.846 169.883 191.846C169.351 191.846 168.959 191.412 168.959 190.894C168.959 190.292 169.407 189.9 169.981 189.9C170.751 189.9 171.171 190.46 171.171 191.398Z" fill="#1A1A1A"/>
<mask id="path-4-outside-1_1195_303" maskUnits="userSpaceOnUse" x="68" y="54" width="106" height="52" fill="black">
<rect fill="white" x="68" y="54" width="106" height="52"/>
<path d="M139.16 84.7744C139.508 81.9534 141.672 80.1755 145.511 80.6455V80.6523C149.491 81.1418 151.456 83.576 151.205 86.5967L148.074 86.2109C148.106 84.5814 147.23 83.6793 145.24 83.4346C143.392 83.2093 142.342 83.7505 142.194 84.9355C142.072 85.9337 142.69 86.5845 144.391 87.2285C146.117 87.8726 147.798 88.5104 148.893 89.1738C150.194 89.9596 151.16 91.0606 150.89 93.2891C150.465 96.7543 147.668 97.9714 143.997 97.5205C140.107 97.0438 137.621 94.9764 137.981 91.4404L141.157 91.834C141.009 93.4504 142.24 94.6096 144.346 94.8672C146.291 95.1054 147.502 94.4093 147.676 93.0117C147.792 92.0845 147.391 91.3885 145.479 90.7188C143.585 90.0554 142.361 89.6116 141.312 88.9805C139.727 88.0208 138.915 86.7645 139.16 84.7744ZM158.851 82.3408C158.754 81.6776 159.63 81.3621 159.978 81.9287L160.603 82.9404C160.661 83.0366 160.802 83.0367 160.86 82.9404L161.485 81.9287C161.833 81.3623 162.709 81.6841 162.612 82.3408L162.438 83.5195C162.419 83.629 162.529 83.7129 162.632 83.6807L163.759 83.3008C164.39 83.0885 164.853 83.8935 164.357 84.3379L163.469 85.123C163.385 85.1939 163.411 85.3364 163.514 85.375L164.622 85.8125C165.246 86.0574 165.078 86.9719 164.415 86.9912L163.224 87.0234C163.108 87.0236 163.044 87.1457 163.095 87.2422L163.662 88.2861C163.977 88.8722 163.263 89.4707 162.741 89.0586L161.607 88.3184C161.524 88.254 161.389 88.2989 161.369 88.4082V91.9336C162.22 90.5797 163.532 89.5225 165.466 89.5225V90.9844C162.034 90.9844 161.504 95.852 161.459 96.3369H165.466V97.6064H155.991V96.3369H159.997C159.952 95.852 159.423 90.9848 155.991 90.9844V89.5225C157.93 89.5226 159.244 90.5854 160.094 91.9443V88.4082C160.074 88.2988 159.946 88.2476 159.855 88.3184L158.722 89.0586C158.2 89.4708 157.485 88.8723 157.801 88.2861L158.367 87.2422C158.419 87.1456 158.348 87.0234 158.238 87.0234L157.047 86.9912C156.384 86.9782 156.223 86.0573 156.841 85.8125L157.949 85.375C158.052 85.3362 158.078 85.2003 157.994 85.123L157.105 84.3379C156.603 83.8999 157.073 83.0882 157.704 83.3008L158.831 83.6807C158.934 83.7193 159.044 83.629 159.024 83.5195L158.851 82.3408ZM99.5674 80.6338C104.437 80.6338 107.136 83.8542 107.136 89.2969C107.136 94.7393 104.437 97.5537 99.5674 97.5537C94.6983 97.5535 91.9551 94.5904 91.9551 89.2188C91.9552 83.8474 94.6984 80.6271 99.5674 80.627V80.6338ZM115.67 80.6338C120.539 80.6338 123.238 83.8542 123.238 89.2969C123.238 94.7393 120.539 97.5537 115.67 97.5537C110.801 97.5535 108.058 94.5904 108.058 89.2188C108.058 83.8474 110.801 80.6271 115.67 80.627V80.6338ZM83.8066 80.627C87.581 80.627 90.4922 82.8685 90.7305 86.0439H87.3877C87.2202 84.5625 85.623 83.3711 83.8066 83.3711C81.153 83.3711 79.3887 85.419 79.3887 89.1934C79.3887 91.7955 80.7025 94.7588 83.7812 94.7588C85.9517 94.7586 87.6455 93.1156 87.6455 91.1318H84.1348L84.1416 91.126V88.4785H90.7568V97H88.0127L87.9414 95.4219C87.1749 96.7615 85.3589 97.5478 83.1885 97.5479C78.7957 97.5479 76 93.4703 76 89.0518C76 84.3756 78.6732 80.627 83.8066 80.627ZM130.362 81.1562C134.665 81.1564 137.718 84.1002 137.718 88.918C137.718 93.7356 134.974 97.0078 130.864 97.0078H124.23V81.1562H130.362ZM99.5674 83.5645C96.7723 83.5647 95.2197 85.5484 95.2197 89.2969C95.2198 93.0451 96.8239 94.7137 99.5674 94.7139C101.95 94.7139 103.864 93.0453 103.864 89.2969C103.864 85.5482 102.363 83.5645 99.5674 83.5645ZM115.67 83.5645C112.875 83.5647 111.322 85.5484 111.322 89.2969C111.322 93.0451 112.926 94.7137 115.67 94.7139C118.053 94.7139 119.967 93.0453 119.967 89.2969C119.967 85.5482 118.465 83.5645 115.67 83.5645ZM127.457 94.3086H130.207C133.093 94.3086 134.336 92.4923 134.336 88.9111C134.336 85.3301 133.093 83.9005 129.918 83.9004H127.457V94.3086ZM159.05 62C162.824 62 165.735 64.2416 165.974 67.417H162.631C162.463 65.9356 160.866 64.7441 159.05 64.7441C156.396 64.7442 154.632 66.7921 154.632 70.5664C154.632 73.1686 155.946 76.1318 159.024 76.1318C161.195 76.1317 162.889 74.4886 162.889 72.5049H159.378V69.8584L159.385 69.8516H166V78.373H163.256L163.185 76.7949C162.418 78.1345 160.602 78.9199 158.432 78.9199C154.039 78.9199 151.243 74.8433 151.243 70.4248C151.243 65.7487 153.916 62 159.05 62ZM82.3184 62.5352C86.6145 62.5352 89.6748 65.4658 89.6748 70.29V70.2969C89.6747 75.1145 86.9305 78.3867 82.8213 78.3867H76.1875V62.5352H82.3184ZM94.2988 78.3867H90.9824V62.5352H94.2988V78.3867ZM122.459 65.2979H117.66V78.3867H114.344V65.2979H109.57V62.5352H122.459V65.2979ZM151.495 78.3867H147.888L146.883 75.1143H141.034L139.914 78.3867H136.403L142.059 62.5352H145.904L151.495 78.3867ZM104.103 62.5273C107.039 62.5275 108.972 64.4855 108.972 67.1133C108.972 68.8073 108.134 70.2435 106.607 70.791C108.012 71.2483 108.54 72.0342 108.54 73.8955V78.3848H105.294V74.3018C105.294 72.7752 104.726 72.1758 102.813 72.1758H99.2783V78.3789H96.0576V62.5273H104.103ZM131.167 62.5273C134.272 62.5273 135.939 64.2024 135.939 66.8496C135.939 68.2149 135.109 69.3616 134.008 69.8125C135.341 70.3149 136.416 71.3903 136.416 73.6572L136.411 73.9189C136.294 76.6559 134.359 78.3789 130.497 78.3789H123.36V62.5273H131.167ZM79.4072 75.6875H82.1582C85.0435 75.6873 86.2861 73.8711 86.2861 70.29C86.2861 66.709 85.0434 65.2794 81.8682 65.2793H79.4072V75.6875ZM126.562 75.6797H130.762C132.288 75.6795 133.196 74.7009 133.196 73.4131C133.196 72.0284 132.288 71.4093 130.807 71.4092H126.562V75.6797ZM141.892 72.3896H145.93L143.946 66.084H143.92L141.892 72.3896ZM99.2783 69.5029H103.433C105.197 69.5028 105.867 68.6463 105.867 67.4033C105.867 66.1602 105.197 65.2773 103.548 65.2773H99.2783V69.5029ZM126.556 68.7168H130.735C132.049 68.7168 132.738 68.1178 132.738 66.9971C132.738 65.78 132.094 65.2773 130.542 65.2773H126.556V68.7168Z"/>
</mask>
<path d="M139.16 84.7744C139.508 81.9534 141.672 80.1755 145.511 80.6455V80.6523C149.491 81.1418 151.456 83.576 151.205 86.5967L148.074 86.2109C148.106 84.5814 147.23 83.6793 145.24 83.4346C143.392 83.2093 142.342 83.7505 142.194 84.9355C142.072 85.9337 142.69 86.5845 144.391 87.2285C146.117 87.8726 147.798 88.5104 148.893 89.1738C150.194 89.9596 151.16 91.0606 150.89 93.2891C150.465 96.7543 147.668 97.9714 143.997 97.5205C140.107 97.0438 137.621 94.9764 137.981 91.4404L141.157 91.834C141.009 93.4504 142.24 94.6096 144.346 94.8672C146.291 95.1054 147.502 94.4093 147.676 93.0117C147.792 92.0845 147.391 91.3885 145.479 90.7188C143.585 90.0554 142.361 89.6116 141.312 88.9805C139.727 88.0208 138.915 86.7645 139.16 84.7744ZM158.851 82.3408C158.754 81.6776 159.63 81.3621 159.978 81.9287L160.603 82.9404C160.661 83.0366 160.802 83.0367 160.86 82.9404L161.485 81.9287C161.833 81.3623 162.709 81.6841 162.612 82.3408L162.438 83.5195C162.419 83.629 162.529 83.7129 162.632 83.6807L163.759 83.3008C164.39 83.0885 164.853 83.8935 164.357 84.3379L163.469 85.123C163.385 85.1939 163.411 85.3364 163.514 85.375L164.622 85.8125C165.246 86.0574 165.078 86.9719 164.415 86.9912L163.224 87.0234C163.108 87.0236 163.044 87.1457 163.095 87.2422L163.662 88.2861C163.977 88.8722 163.263 89.4707 162.741 89.0586L161.607 88.3184C161.524 88.254 161.389 88.2989 161.369 88.4082V91.9336C162.22 90.5797 163.532 89.5225 165.466 89.5225V90.9844C162.034 90.9844 161.504 95.852 161.459 96.3369H165.466V97.6064H155.991V96.3369H159.997C159.952 95.852 159.423 90.9848 155.991 90.9844V89.5225C157.93 89.5226 159.244 90.5854 160.094 91.9443V88.4082C160.074 88.2988 159.946 88.2476 159.855 88.3184L158.722 89.0586C158.2 89.4708 157.485 88.8723 157.801 88.2861L158.367 87.2422C158.419 87.1456 158.348 87.0234 158.238 87.0234L157.047 86.9912C156.384 86.9782 156.223 86.0573 156.841 85.8125L157.949 85.375C158.052 85.3362 158.078 85.2003 157.994 85.123L157.105 84.3379C156.603 83.8999 157.073 83.0882 157.704 83.3008L158.831 83.6807C158.934 83.7193 159.044 83.629 159.024 83.5195L158.851 82.3408ZM99.5674 80.6338C104.437 80.6338 107.136 83.8542 107.136 89.2969C107.136 94.7393 104.437 97.5537 99.5674 97.5537C94.6983 97.5535 91.9551 94.5904 91.9551 89.2188C91.9552 83.8474 94.6984 80.6271 99.5674 80.627V80.6338ZM115.67 80.6338C120.539 80.6338 123.238 83.8542 123.238 89.2969C123.238 94.7393 120.539 97.5537 115.67 97.5537C110.801 97.5535 108.058 94.5904 108.058 89.2188C108.058 83.8474 110.801 80.6271 115.67 80.627V80.6338ZM83.8066 80.627C87.581 80.627 90.4922 82.8685 90.7305 86.0439H87.3877C87.2202 84.5625 85.623 83.3711 83.8066 83.3711C81.153 83.3711 79.3887 85.419 79.3887 89.1934C79.3887 91.7955 80.7025 94.7588 83.7812 94.7588C85.9517 94.7586 87.6455 93.1156 87.6455 91.1318H84.1348L84.1416 91.126V88.4785H90.7568V97H88.0127L87.9414 95.4219C87.1749 96.7615 85.3589 97.5478 83.1885 97.5479C78.7957 97.5479 76 93.4703 76 89.0518C76 84.3756 78.6732 80.627 83.8066 80.627ZM130.362 81.1562C134.665 81.1564 137.718 84.1002 137.718 88.918C137.718 93.7356 134.974 97.0078 130.864 97.0078H124.23V81.1562H130.362ZM99.5674 83.5645C96.7723 83.5647 95.2197 85.5484 95.2197 89.2969C95.2198 93.0451 96.8239 94.7137 99.5674 94.7139C101.95 94.7139 103.864 93.0453 103.864 89.2969C103.864 85.5482 102.363 83.5645 99.5674 83.5645ZM115.67 83.5645C112.875 83.5647 111.322 85.5484 111.322 89.2969C111.322 93.0451 112.926 94.7137 115.67 94.7139C118.053 94.7139 119.967 93.0453 119.967 89.2969C119.967 85.5482 118.465 83.5645 115.67 83.5645ZM127.457 94.3086H130.207C133.093 94.3086 134.336 92.4923 134.336 88.9111C134.336 85.3301 133.093 83.9005 129.918 83.9004H127.457V94.3086ZM159.05 62C162.824 62 165.735 64.2416 165.974 67.417H162.631C162.463 65.9356 160.866 64.7441 159.05 64.7441C156.396 64.7442 154.632 66.7921 154.632 70.5664C154.632 73.1686 155.946 76.1318 159.024 76.1318C161.195 76.1317 162.889 74.4886 162.889 72.5049H159.378V69.8584L159.385 69.8516H166V78.373H163.256L163.185 76.7949C162.418 78.1345 160.602 78.9199 158.432 78.9199C154.039 78.9199 151.243 74.8433 151.243 70.4248C151.243 65.7487 153.916 62 159.05 62ZM82.3184 62.5352C86.6145 62.5352 89.6748 65.4658 89.6748 70.29V70.2969C89.6747 75.1145 86.9305 78.3867 82.8213 78.3867H76.1875V62.5352H82.3184ZM94.2988 78.3867H90.9824V62.5352H94.2988V78.3867ZM122.459 65.2979H117.66V78.3867H114.344V65.2979H109.57V62.5352H122.459V65.2979ZM151.495 78.3867H147.888L146.883 75.1143H141.034L139.914 78.3867H136.403L142.059 62.5352H145.904L151.495 78.3867ZM104.103 62.5273C107.039 62.5275 108.972 64.4855 108.972 67.1133C108.972 68.8073 108.134 70.2435 106.607 70.791C108.012 71.2483 108.54 72.0342 108.54 73.8955V78.3848H105.294V74.3018C105.294 72.7752 104.726 72.1758 102.813 72.1758H99.2783V78.3789H96.0576V62.5273H104.103ZM131.167 62.5273C134.272 62.5273 135.939 64.2024 135.939 66.8496C135.939 68.2149 135.109 69.3616 134.008 69.8125C135.341 70.3149 136.416 71.3903 136.416 73.6572L136.411 73.9189C136.294 76.6559 134.359 78.3789 130.497 78.3789H123.36V62.5273H131.167ZM79.4072 75.6875H82.1582C85.0435 75.6873 86.2861 73.8711 86.2861 70.29C86.2861 66.709 85.0434 65.2794 81.8682 65.2793H79.4072V75.6875ZM126.562 75.6797H130.762C132.288 75.6795 133.196 74.7009 133.196 73.4131C133.196 72.0284 132.288 71.4093 130.807 71.4092H126.562V75.6797ZM141.892 72.3896H145.93L143.946 66.084H143.92L141.892 72.3896ZM99.2783 69.5029H103.433C105.197 69.5028 105.867 68.6463 105.867 67.4033C105.867 66.1602 105.197 65.2773 103.548 65.2773H99.2783V69.5029ZM126.556 68.7168H130.735C132.049 68.7168 132.738 68.1178 132.738 66.9971C132.738 65.78 132.094 65.2773 130.542 65.2773H126.556V68.7168Z" fill="#1A1A1A"/>
<path d="M139.16 84.7744L131.22 83.7955L131.22 83.7983L139.16 84.7744ZM145.511 80.6455H153.511C153.511 76.6032 150.495 73.1961 146.483 72.7048L145.511 80.6455ZM145.511 80.6523H137.511C137.511 84.693 140.524 88.0993 144.534 88.5925L145.511 80.6523ZM151.205 86.5967L150.227 94.5366C152.387 94.8028 154.563 94.1771 156.252 92.8039C157.941 91.4307 158.997 89.4285 159.178 87.2593L151.205 86.5967ZM148.074 86.2109L140.076 86.0529C139.995 90.1524 143.026 93.6495 147.096 94.1509L148.074 86.2109ZM145.24 83.4346L146.217 75.4944L146.208 75.4934L145.24 83.4346ZM142.194 84.9355L134.256 83.9433C134.255 83.9499 134.254 83.9566 134.254 83.9633L142.194 84.9355ZM144.391 87.2285L141.557 94.7098C141.569 94.7145 141.582 94.7191 141.594 94.7237L144.391 87.2285ZM148.893 89.1738L144.747 96.016L144.757 96.0217L148.893 89.1738ZM150.89 93.2891L158.83 94.2632L158.831 94.2529L150.89 93.2891ZM143.997 97.5205L144.972 89.5802L144.97 89.5799L143.997 97.5205ZM137.981 91.4404L138.965 83.5012C136.83 83.2365 134.678 83.8433 132.995 85.1844C131.313 86.5255 130.241 88.488 130.023 90.6286L137.981 91.4404ZM141.157 91.834L149.124 92.5627C149.517 88.2623 146.427 84.4258 142.141 83.8947L141.157 91.834ZM144.346 94.8672L145.318 86.9265L145.317 86.9264L144.346 94.8672ZM147.676 93.0117L139.737 92.021L139.737 92.0239L147.676 93.0117ZM145.479 90.7188L142.833 98.2688L142.835 98.2692L145.479 90.7188ZM141.312 88.9805L137.167 95.8232C137.174 95.8277 137.182 95.8322 137.189 95.8367L141.312 88.9805ZM158.851 82.3408L150.934 83.4919C150.935 83.4973 150.935 83.5026 150.936 83.508L158.851 82.3408ZM159.978 81.9287L153.16 86.1141C153.164 86.1205 153.168 86.1268 153.172 86.1332L159.978 81.9287ZM160.603 82.9404L167.452 78.807C167.438 78.7832 167.423 78.7595 167.409 78.7359L160.603 82.9404ZM160.86 82.9404L154.054 78.7359C154.038 78.762 154.022 78.7883 154.006 78.8146L160.86 82.9404ZM161.485 81.9287L168.291 86.1332C168.295 86.1274 168.299 86.1216 168.302 86.1157L161.485 81.9287ZM162.612 82.3408L170.527 83.508L170.528 83.5024L162.612 82.3408ZM162.438 83.5195L170.317 84.9098C170.33 84.8356 170.342 84.7612 170.353 84.6867L162.438 83.5195ZM162.632 83.6807L165.018 91.3165C165.075 91.2988 165.131 91.2805 165.187 91.2615L162.632 83.6807ZM163.759 83.3008L161.208 75.7183L161.203 75.7199L163.759 83.3008ZM164.357 84.3379L169.654 90.3331C169.668 90.3207 169.682 90.3083 169.696 90.2958L164.357 84.3379ZM163.469 85.123L168.636 91.2301C168.68 91.1933 168.723 91.156 168.766 91.1183L163.469 85.123ZM163.514 85.375L166.451 77.9337C166.408 77.9169 166.366 77.9004 166.323 77.8844L163.514 85.375ZM164.622 85.8125L161.685 93.2538C161.69 93.2559 161.695 93.2579 161.701 93.26L164.622 85.8125ZM164.415 86.9912L164.631 94.9883C164.637 94.9881 164.642 94.988 164.648 94.9878L164.415 86.9912ZM163.224 87.0234L163.238 95.0234C163.305 95.0233 163.373 95.0223 163.44 95.0205L163.224 87.0234ZM163.095 87.2422L156.023 90.9828C156.037 91.0094 156.051 91.036 156.066 91.0624L163.095 87.2422ZM163.662 88.2861L170.707 84.4951C170.702 84.4854 170.696 84.4756 170.691 84.4659L163.662 88.2861ZM162.741 89.0586L167.7 82.7811C167.512 82.632 167.316 82.4914 167.115 82.3599L162.741 89.0586ZM161.607 88.3184L156.73 94.6593C156.893 94.785 157.061 94.9044 157.234 95.0171L161.607 88.3184ZM161.369 88.4082L153.493 87.0053C153.411 87.4684 153.369 87.9378 153.369 88.4082H161.369ZM161.369 91.9336H153.369C153.369 95.4991 155.729 98.6343 159.155 99.6211C162.581 100.608 166.247 99.2082 168.144 96.1889L161.369 91.9336ZM165.466 89.5225H173.466C173.466 85.1042 169.884 81.5225 165.466 81.5225V89.5225ZM165.466 90.9844V98.9844C169.884 98.9844 173.466 95.4027 173.466 90.9844H165.466ZM161.459 96.3369L153.494 95.5929C153.284 97.8343 154.029 100.06 155.545 101.724C157.061 103.388 159.208 104.337 161.459 104.337V96.3369ZM165.466 96.3369H173.466C173.466 91.9186 169.884 88.3369 165.466 88.3369V96.3369ZM165.466 97.6064V105.606C169.884 105.606 173.466 102.025 173.466 97.6064H165.466ZM155.991 97.6064H147.991C147.991 102.025 151.573 105.606 155.991 105.606V97.6064ZM155.991 96.3369V88.3369C151.573 88.3369 147.991 91.9186 147.991 96.3369H155.991ZM159.997 96.3369V104.337C162.248 104.337 164.395 103.388 165.911 101.724C167.427 100.06 168.172 97.8343 167.962 95.5929L159.997 96.3369ZM155.991 90.9844H147.991C147.991 95.4022 151.572 98.9838 155.99 98.9844L155.991 90.9844ZM155.991 89.5225L155.992 81.5225C153.87 81.5223 151.835 82.365 150.335 83.8653C148.834 85.3657 147.991 87.4006 147.991 89.5225H155.991ZM160.094 91.9443L153.312 96.1873C155.204 99.2123 158.871 100.618 162.301 99.6338C165.731 98.6494 168.094 95.5126 168.094 91.9443H160.094ZM160.094 88.4082H168.094C168.094 87.9391 168.052 87.4708 167.97 87.0089L160.094 88.4082ZM159.855 88.3184L164.229 95.0171C164.424 94.8898 164.613 94.7541 164.796 94.6104L159.855 88.3184ZM158.722 89.0586L154.348 82.3599C154.147 82.4915 153.951 82.6322 153.762 82.7815L158.722 89.0586ZM157.801 88.2861L150.769 84.471C150.765 84.4785 150.761 84.4861 150.757 84.4936L157.801 88.2861ZM158.367 87.2422L165.399 91.0573C165.41 91.0369 165.421 91.0164 165.432 90.9958L158.367 87.2422ZM158.238 87.0234L158.022 95.0205C158.094 95.0225 158.166 95.0234 158.238 95.0234V87.0234ZM157.047 86.9912L157.263 78.9941C157.243 78.9936 157.224 78.9931 157.204 78.9928L157.047 86.9912ZM156.841 85.8125L153.904 78.3712L153.896 78.3742L156.841 85.8125ZM157.949 85.375L155.125 77.89C155.087 77.9043 155.05 77.9188 155.012 77.9337L157.949 85.375ZM157.994 85.123L163.42 79.2446C163.378 79.2052 163.335 79.1663 163.291 79.1278L157.994 85.123ZM157.105 84.3379L162.402 78.3426C162.389 78.331 162.376 78.3193 162.363 78.3077L157.105 84.3379ZM157.704 83.3008L160.26 75.7199L160.257 75.7191L157.704 83.3008ZM158.831 83.6807L161.64 76.19C161.556 76.1585 161.472 76.1284 161.386 76.0998L158.831 83.6807ZM159.024 83.5195L151.11 84.6867C151.121 84.7612 151.133 84.8356 151.146 84.9098L159.024 83.5195ZM99.5674 80.6338H91.5674C91.5674 85.0521 95.1491 88.6338 99.5674 88.6338V80.6338ZM107.136 89.2969L115.136 89.2971V89.2969H107.136ZM99.5674 97.5537L99.5671 105.554H99.5674V97.5537ZM91.9551 89.2188L83.9551 89.2185V89.2188H91.9551ZM99.5674 80.627H107.567C107.567 78.5052 106.724 76.4703 105.224 74.97C103.724 73.4697 101.689 72.6269 99.5671 72.627L99.5674 80.627ZM115.67 80.6338H107.67C107.67 85.0521 111.252 88.6338 115.67 88.6338V80.6338ZM123.238 89.2969L131.238 89.2971V89.2969H123.238ZM115.67 97.5537L115.67 105.554H115.67V97.5537ZM108.058 89.2188L100.058 89.2185V89.2188H108.058ZM115.67 80.627H123.67C123.67 78.5052 122.827 76.4703 121.327 74.97C119.826 73.4697 117.791 72.6269 115.67 72.627L115.67 80.627ZM83.8066 80.627V72.627H83.8066L83.8066 80.627ZM90.7305 86.0439V94.0439C92.9562 94.0439 95.0814 93.1167 96.5952 91.485C98.109 89.8533 98.8746 87.6647 98.708 85.4452L90.7305 86.0439ZM87.3877 86.0439L79.4383 86.9426C79.8956 90.9874 83.3171 94.0439 87.3877 94.0439V86.0439ZM83.8066 83.3711V75.3711H83.8065L83.8066 83.3711ZM79.3887 89.1934L71.3887 89.1933V89.1934H79.3887ZM83.7812 94.7588V102.759H83.7818L83.7812 94.7588ZM87.6455 91.1318H95.6455C95.6455 86.7136 92.0638 83.1318 87.6455 83.1318V91.1318ZM84.1348 91.1318L78.9284 85.0578C76.3866 87.2365 75.4702 90.7675 76.6317 93.9074C77.7932 97.0473 80.787 99.1318 84.1348 99.1318V91.1318ZM84.1416 91.126L89.3479 97.2C91.1211 95.6802 92.1416 93.4614 92.1416 91.126H84.1416ZM84.1416 88.4785V80.4785C79.7233 80.4785 76.1416 84.0602 76.1416 88.4785H84.1416ZM90.7568 88.4785H98.7568C98.7568 84.0602 95.1751 80.4785 90.7568 80.4785V88.4785ZM90.7568 97V105C95.1751 105 98.7568 101.418 98.7568 97H90.7568ZM88.0127 97L80.0208 97.361C80.2139 101.635 83.7348 105 88.0127 105V97ZM87.9414 95.4219L95.9333 95.0609C95.7726 91.5049 93.2818 88.4828 89.822 87.646C86.3621 86.8093 82.7656 88.3592 80.9978 91.4488L87.9414 95.4219ZM83.1885 97.5479V105.548H83.1886L83.1885 97.5479ZM76 89.0518L68 89.0518V89.0518H76ZM130.362 81.1562L130.363 73.1562H130.362V81.1562ZM137.718 88.918L145.718 88.9182V88.918H137.718ZM124.23 97.0078H116.23C116.23 101.426 119.812 105.008 124.23 105.008V97.0078ZM124.23 81.1562V73.1562C119.812 73.1562 116.23 76.738 116.23 81.1562H124.23ZM99.5674 83.5645V75.5645H99.5668L99.5674 83.5645ZM95.2197 89.2969H87.2197V89.2971L95.2197 89.2969ZM99.5674 94.7139L99.5669 102.714H99.5674V94.7139ZM103.864 89.2969L111.864 89.2971V89.2969H103.864ZM115.67 83.5645V75.5645H115.669L115.67 83.5645ZM111.322 89.2969H103.322V89.2971L111.322 89.2969ZM115.67 94.7139L115.669 102.714H115.67V94.7139ZM119.967 89.2969L127.967 89.2971V89.2969H119.967ZM127.457 94.3086H119.457C119.457 98.7269 123.039 102.309 127.457 102.309V94.3086ZM134.336 88.9111H142.336V88.9111L134.336 88.9111ZM129.918 83.9004L129.918 75.9004H129.918V83.9004ZM127.457 83.9004V75.9004C123.039 75.9004 119.457 79.4821 119.457 83.9004H127.457ZM159.05 62V54H159.05L159.05 62ZM165.974 67.417V75.417C168.199 75.417 170.325 74.4897 171.838 72.8581C173.352 71.2264 174.118 69.0378 173.951 66.8183L165.974 67.417ZM162.631 67.417L154.681 68.3156C155.139 72.3604 158.56 75.417 162.631 75.417V67.417ZM159.05 64.7441V56.7441H159.05L159.05 64.7441ZM154.632 70.5664L146.632 70.5664V70.5664H154.632ZM159.024 76.1318V84.1318H159.025L159.024 76.1318ZM162.889 72.5049H170.889C170.889 68.0866 167.307 64.5049 162.889 64.5049V72.5049ZM159.378 72.5049H151.378C151.378 76.9232 154.96 80.5049 159.378 80.5049V72.5049ZM159.378 69.8584L153.721 64.2015C152.221 65.7018 151.378 67.7367 151.378 69.8584H159.378ZM159.385 69.8516V61.8516C157.263 61.8516 155.228 62.6944 153.728 64.1947L159.385 69.8516ZM166 69.8516H174C174 65.4333 170.418 61.8516 166 61.8516V69.8516ZM166 78.373V86.373C170.418 86.373 174 82.7913 174 78.373H166ZM163.256 78.373L155.264 78.7341C155.457 83.0076 158.978 86.373 163.256 86.373V78.373ZM163.185 76.7949L171.176 76.4339C171.016 72.878 168.525 69.8559 165.065 69.0191C161.605 68.1823 158.009 69.7321 156.241 72.8216L163.185 76.7949ZM158.432 78.9199V86.9199H158.432L158.432 78.9199ZM151.243 70.4248H143.243V70.4249L151.243 70.4248ZM89.6748 70.29H97.6748V70.29L89.6748 70.29ZM89.6748 70.2969L97.6748 70.2971V70.2969H89.6748ZM82.8213 78.3867V86.3867H82.8214L82.8213 78.3867ZM76.1875 78.3867H68.1875C68.1875 82.805 71.7692 86.3867 76.1875 86.3867V78.3867ZM76.1875 62.5352V54.5352C71.7692 54.5352 68.1875 58.1169 68.1875 62.5352H76.1875ZM94.2988 78.3867V86.3867C98.7171 86.3867 102.299 82.805 102.299 78.3867H94.2988ZM90.9824 78.3867H82.9824C82.9824 82.805 86.5641 86.3867 90.9824 86.3867V78.3867ZM90.9824 62.5352V54.5352C86.5641 54.5352 82.9824 58.1169 82.9824 62.5352H90.9824ZM94.2988 62.5352H102.299C102.299 58.1169 98.7171 54.5352 94.2988 54.5352V62.5352ZM122.459 65.2979V73.2979C126.877 73.2979 130.459 69.7161 130.459 65.2979H122.459ZM117.66 65.2979V57.2979C113.242 57.2979 109.66 60.8796 109.66 65.2979H117.66ZM117.66 78.3867V86.3867C122.078 86.3867 125.66 82.805 125.66 78.3867H117.66ZM114.344 78.3867H106.344C106.344 82.805 109.925 86.3867 114.344 86.3867V78.3867ZM114.344 65.2979H122.344C122.344 60.8796 118.762 57.2979 114.344 57.2979V65.2979ZM109.57 65.2979H101.57C101.57 69.7161 105.152 73.2979 109.57 73.2979V65.2979ZM109.57 62.5352V54.5352C105.152 54.5352 101.57 58.1169 101.57 62.5352H109.57ZM122.459 62.5352H130.459C130.459 58.1169 126.877 54.5352 122.459 54.5352V62.5352ZM151.495 78.3867V86.3867C154.091 86.3867 156.526 85.1271 158.025 83.008C159.525 80.8889 159.903 78.174 159.04 75.7258L151.495 78.3867ZM147.888 78.3867L140.24 80.7351C141.272 84.094 144.374 86.3867 147.888 86.3867V78.3867ZM146.883 75.1143L154.53 72.7659C153.499 69.407 150.397 67.1143 146.883 67.1143V75.1143ZM141.034 75.1143V67.1143C137.614 67.1143 134.573 69.288 133.465 72.5235L141.034 75.1143ZM139.914 78.3867V86.3867C143.334 86.3867 146.375 84.213 147.483 80.9774L139.914 78.3867ZM136.403 78.3867L128.868 75.6986C127.994 78.1484 128.366 80.8703 129.865 82.9962C131.363 85.1221 133.802 86.3867 136.403 86.3867V78.3867ZM142.059 62.5352V54.5352C138.677 54.5352 135.66 56.6617 134.524 59.847L142.059 62.5352ZM145.904 62.5352L153.449 59.8742C152.32 56.6749 149.297 54.5352 145.904 54.5352V62.5352ZM104.103 62.5273L104.103 54.5273H104.103V62.5273ZM108.972 67.1133H116.972V67.1132L108.972 67.1133ZM106.607 70.791L103.907 63.2607C100.687 64.4154 98.5578 67.4891 98.6083 70.909C98.6588 74.329 100.878 77.3385 104.13 78.3977L106.607 70.791ZM108.54 73.8955H116.54V73.8954L108.54 73.8955ZM108.54 78.3848V86.3848C112.958 86.3848 116.54 82.803 116.54 78.3848H108.54ZM105.294 78.3848H97.2939C97.2939 82.803 100.876 86.3848 105.294 86.3848V78.3848ZM99.2783 72.1758V64.1758C94.86 64.1758 91.2783 67.7575 91.2783 72.1758H99.2783ZM99.2783 78.3789V86.3789C103.697 86.3789 107.278 82.7972 107.278 78.3789H99.2783ZM96.0576 78.3789H88.0576C88.0576 82.7972 91.6393 86.3789 96.0576 86.3789V78.3789ZM96.0576 62.5273V54.5273C91.6393 54.5273 88.0576 58.1091 88.0576 62.5273H96.0576ZM135.939 66.8496L143.939 66.8505V66.8496H135.939ZM134.008 69.8125L130.977 62.4089C127.933 63.655 125.962 66.6367 126.009 69.9251C126.055 73.2135 128.109 76.1385 131.186 77.2984L134.008 69.8125ZM136.416 73.6572L144.415 73.8065C144.416 73.7567 144.416 73.7069 144.416 73.6571L136.416 73.6572ZM136.411 73.9189L144.404 74.2609C144.407 74.1967 144.409 74.1325 144.41 74.0682L136.411 73.9189ZM123.36 78.3789H115.36C115.36 82.7972 118.942 86.3789 123.36 86.3789V78.3789ZM123.36 62.5273V54.5273C118.942 54.5273 115.36 58.1091 115.36 62.5273H123.36ZM79.4072 75.6875H71.4072C71.4072 80.1058 74.9889 83.6875 79.4072 83.6875V75.6875ZM82.1582 75.6875V83.6875H82.1587L82.1582 75.6875ZM86.2861 70.29H94.2861V70.29L86.2861 70.29ZM81.8682 65.2793L81.8683 57.2793H81.8682V65.2793ZM79.4072 65.2793V57.2793C74.9889 57.2793 71.4072 60.861 71.4072 65.2793H79.4072ZM126.562 75.6797H118.562C118.562 80.098 122.143 83.6797 126.562 83.6797V75.6797ZM130.762 75.6797V83.6797H130.763L130.762 75.6797ZM133.196 73.4131L141.196 73.4145V73.4131H133.196ZM130.807 71.4092L130.807 63.4092H130.807V71.4092ZM126.562 71.4092V63.4092C122.143 63.4092 118.562 66.9909 118.562 71.4092H126.562ZM141.892 72.3896L134.276 69.9399C133.493 72.3738 133.921 75.0353 135.426 77.1015C136.932 79.1676 139.335 80.3896 141.892 80.3896V72.3896ZM145.93 72.3896V80.3896C148.477 80.3896 150.873 79.1763 152.38 77.1223C153.887 75.0684 154.325 72.4194 153.561 69.9893L145.93 72.3896ZM143.946 66.084L151.578 63.6836C150.529 60.351 147.44 58.084 143.946 58.084V66.084ZM143.92 66.084V58.084C140.445 58.084 137.368 60.3267 136.304 63.6343L143.92 66.084ZM99.2783 69.5029H91.2783C91.2783 73.9212 94.86 77.5029 99.2783 77.5029V69.5029ZM103.433 69.5029V77.5029H103.433L103.433 69.5029ZM105.867 67.4033L113.867 67.4037V67.4033H105.867ZM99.2783 65.2773V57.2773C94.86 57.2773 91.2783 60.8591 91.2783 65.2773H99.2783ZM126.556 68.7168H118.556C118.556 73.1351 122.137 76.7168 126.556 76.7168V68.7168ZM132.738 66.9971H140.738V66.9963L132.738 66.9971ZM126.556 65.2773V57.2773C122.137 57.2773 118.556 60.8591 118.556 65.2773H126.556ZM139.16 84.7744L147.1 85.7533C147.076 85.9457 146.995 86.3252 146.737 86.7857C146.469 87.264 146.074 87.7105 145.586 88.049C144.588 88.7414 143.948 88.5139 144.538 88.5862L145.511 80.6455L146.483 72.7048C143.235 72.3071 139.593 72.7335 136.467 74.9026C133.23 77.1477 131.625 80.514 131.22 83.7955L139.16 84.7744ZM145.511 80.6455H137.511V80.6523H145.511H153.511V80.6455H145.511ZM145.511 80.6523L144.534 88.5925C145.118 88.6643 144.666 88.7578 144.04 88.0731C143.737 87.7414 143.5 87.3325 143.361 86.8975C143.225 86.4727 143.216 86.1308 143.233 85.9341L151.205 86.5967L159.178 87.2593C159.468 83.7607 158.46 80.133 155.849 77.2776C153.308 74.4982 149.884 73.1299 146.487 72.7122L145.511 80.6523ZM151.205 86.5967L152.183 78.6567L149.052 78.271L148.074 86.2109L147.096 94.1509L150.227 94.5366L151.205 86.5967ZM148.074 86.2109L156.073 86.369C156.119 84.0473 155.491 81.0447 153.048 78.6225C150.813 76.4062 148.087 75.7244 146.217 75.4944L145.24 83.4346L144.264 91.3748C144.255 91.3737 144.188 91.3652 144.074 91.3378C143.96 91.3105 143.782 91.2605 143.559 91.1714C143.106 90.9903 142.441 90.6365 141.783 89.9844C140.268 88.4818 140.062 86.745 140.076 86.0529L148.074 86.2109ZM145.24 83.4346L146.208 75.4934C144.548 75.2909 142.016 75.2469 139.51 76.4969C136.487 78.0041 134.646 80.8225 134.256 83.9433L142.194 84.9355L150.133 85.9278C150.032 86.7301 149.733 87.7368 149.05 88.7238C148.359 89.7216 147.481 90.4009 146.65 90.8154C145.862 91.2085 145.197 91.3265 144.834 91.3643C144.644 91.3842 144.5 91.3858 144.412 91.3839C144.323 91.382 144.275 91.3761 144.272 91.3758L145.24 83.4346ZM142.194 84.9355L134.254 83.9633C133.919 86.6981 134.719 89.5386 136.827 91.7434C138.448 93.4394 140.411 94.2759 141.557 94.7098L144.391 87.2285L147.224 79.7472C146.67 79.5371 147.473 79.7262 148.391 80.6863C148.948 81.2687 149.522 82.1068 149.87 83.1966C150.212 84.2709 150.218 85.2285 150.135 85.9078L142.194 84.9355ZM144.391 87.2285L141.594 94.7237C142.47 95.0505 143.184 95.3205 143.794 95.5756C144.091 95.6994 144.321 95.8026 144.497 95.8873C144.678 95.9746 144.751 96.0182 144.747 96.0159L148.893 89.1738L153.038 82.3317C151.158 81.1925 148.666 80.2852 147.187 79.7333L144.391 87.2285ZM148.893 89.1738L144.757 96.0217C144.755 96.0205 144.715 95.9967 144.65 95.9492C144.584 95.9012 144.485 95.824 144.366 95.7143C144.121 95.4877 143.804 95.1348 143.525 94.6424C142.892 93.5281 142.918 92.5686 142.948 92.3252L150.89 93.2891L158.831 94.2529C159.131 91.7811 158.81 89.1569 157.436 86.7386C156.128 84.4359 154.295 83.0911 153.029 82.326L148.893 89.1738ZM150.89 93.2891L142.949 92.315C142.966 92.1755 143.052 91.7262 143.406 91.172C143.771 90.599 144.262 90.1689 144.739 89.9003C145.18 89.6523 145.485 89.6098 145.504 89.6073C145.521 89.605 145.354 89.6271 144.972 89.5802L143.997 97.5205L143.022 105.461C145.792 105.801 149.332 105.674 152.582 103.846C156.238 101.791 158.341 98.2503 158.83 94.2632L150.89 93.2891ZM143.997 97.5205L144.97 89.5799C144.069 89.4695 144.333 89.2795 144.93 89.8517C145.266 90.1736 145.585 90.6325 145.778 91.1851C145.965 91.7238 145.953 92.1222 145.94 92.2522L137.981 91.4404L130.023 90.6286C129.614 94.6378 130.87 98.5384 133.86 101.404C136.583 104.013 140.035 105.095 143.024 105.461L143.997 97.5205ZM137.981 91.4404L136.998 99.3797L140.173 99.7733L141.157 91.834L142.141 83.8947L138.965 83.5012L137.981 91.4404ZM141.157 91.834L133.19 91.1052C132.895 94.3341 134.057 97.4409 136.4 99.6638C138.547 101.701 141.172 102.539 143.374 102.808L144.346 94.8672L145.317 86.9264C145.413 86.9381 146.37 87.0678 147.412 88.0565C148.651 89.2313 149.271 90.9503 149.124 92.5627L141.157 91.834ZM144.346 94.8672L143.373 102.808C145.33 103.047 148.02 102.973 150.594 101.527C153.511 99.888 155.234 97.0603 155.615 93.9995L147.676 93.0117L139.737 92.0239C139.826 91.3092 140.084 90.4285 140.656 89.553C141.234 88.6672 141.987 88.0107 142.756 87.5783C144.195 86.7702 145.307 86.9251 145.318 86.9265L144.346 94.8672ZM147.676 93.0117L155.614 94.0024C155.873 91.9267 155.569 89.0445 153.376 86.5209C151.661 84.5478 149.468 83.6395 148.122 83.1683L145.479 90.7188L142.835 98.2692C143.401 98.4677 142.365 98.2423 141.299 97.0164C140.666 96.2872 140.151 95.354 139.886 94.2833C139.636 93.2769 139.683 92.4589 139.737 92.021L147.676 93.0117ZM145.479 90.7188L148.124 83.1687C146.047 82.4411 145.648 82.2533 145.434 82.1242L141.312 88.9805L137.189 95.8367C139.074 96.9699 141.124 97.6698 142.833 98.2688L145.479 90.7188ZM141.312 88.9805L145.456 82.1378C145.458 82.139 145.495 82.1611 145.556 82.2071C145.617 82.2533 145.709 82.3272 145.818 82.4326C146.044 82.6499 146.33 82.9853 146.582 83.4494C147.147 84.4909 147.142 85.4144 147.1 85.7506L139.16 84.7744L131.22 83.7983C130.934 86.1246 131.212 88.6712 132.518 91.0783C133.775 93.395 135.602 94.8751 137.167 95.8232L141.312 88.9805ZM158.851 82.3408L166.767 81.1897C167.914 89.0767 157.388 93.0025 153.16 86.1141L159.978 81.9287L166.795 77.7433C161.871 69.7217 149.594 74.2784 150.934 83.4919L158.851 82.3408ZM159.978 81.9287L153.172 86.1332L153.797 87.1449L160.603 82.9404L167.409 78.7359L166.784 77.7242L159.978 81.9287ZM160.603 82.9404L153.753 87.0739C156.916 92.3147 164.54 92.3389 167.714 87.0663L160.86 82.9404L154.006 78.8146C157.064 73.7345 164.405 73.7586 167.452 78.807L160.603 82.9404ZM160.86 82.9404L167.666 87.1449L168.291 86.1332L161.485 81.9287L154.679 77.7242L154.054 78.7359L160.86 82.9404ZM161.485 81.9287L168.302 86.1157C164.013 93.0984 153.554 88.97 154.697 81.1792L162.612 82.3408L170.528 83.5024C171.864 74.3981 159.653 69.6263 154.669 77.7417L161.485 81.9287ZM162.612 82.3408L154.698 81.1737L154.524 82.3524L162.438 83.5195L170.353 84.6867L170.527 83.508L162.612 82.3408ZM162.438 83.5195L154.56 82.1293C153.353 88.9685 160.012 92.8808 165.018 91.3165L162.632 83.6807L160.246 76.0448C165.045 74.545 171.485 78.2895 170.317 84.9098L162.438 83.5195ZM162.632 83.6807L165.187 91.2615L166.314 90.8817L163.759 83.3008L161.203 75.7199L160.076 76.0998L162.632 83.6807ZM163.759 83.3008L166.31 90.8832C158.47 93.5205 153.221 83.5753 159.019 78.38L164.357 84.3379L169.696 90.2958C176.486 84.2117 170.31 72.6565 161.208 75.7183L163.759 83.3008ZM164.357 84.3379L159.061 78.3426L158.172 79.1278L163.469 85.123L168.766 91.1183L169.654 90.3331L164.357 84.3379ZM163.469 85.123L158.301 79.016C153.47 83.1036 154.984 90.7203 160.705 92.8656L163.514 85.375L166.323 77.8844C171.837 79.9524 173.3 87.2842 168.636 91.2301L163.469 85.123ZM163.514 85.375L160.576 92.8163L161.685 93.2538L164.622 85.8125L167.559 78.3712L166.451 77.9337L163.514 85.375ZM164.622 85.8125L161.701 93.26C153.971 90.2277 156.407 79.2211 164.182 78.9946L164.415 86.9912L164.648 94.9878C173.75 94.7227 176.522 81.8872 167.544 78.365L164.622 85.8125ZM164.415 86.9912L164.199 78.9941L163.007 79.0264L163.224 87.0234L163.44 95.0205L164.631 94.9883L164.415 86.9912ZM163.224 87.0234L163.209 79.0235C156.553 79.0355 153.404 86.0305 156.023 90.9828L163.095 87.2422L170.166 83.5015C172.684 88.2609 169.663 95.0118 163.238 95.0234L163.224 87.0234ZM163.095 87.2422L156.066 91.0624L156.633 92.1063L163.662 88.2861L170.691 84.4659L170.124 83.422L163.095 87.2422ZM163.662 88.2861L156.617 92.0772C152.81 85.0024 161.421 77.8202 167.7 82.7811L162.741 89.0586L157.782 95.3361C165.105 101.121 175.145 92.7419 170.707 84.4951L163.662 88.2861ZM162.741 89.0586L167.115 82.3599L165.981 81.6197L161.607 88.3184L157.234 95.0171L158.368 95.7573L162.741 89.0586ZM161.607 88.3184L166.485 81.9774C162.024 78.5456 154.648 80.5214 153.493 87.0053L161.369 88.4082L169.245 89.8111C168.685 92.954 166.439 95.008 164.179 95.8234C161.995 96.6114 159.12 96.4981 156.73 94.6593L161.607 88.3184ZM161.369 88.4082H153.369V91.9336H161.369H169.369V88.4082H161.369ZM161.369 91.9336L168.144 96.1889C168.095 96.2655 167.861 96.614 167.329 96.9549C166.73 97.3391 166.046 97.5225 165.466 97.5225V89.5225V81.5225C160.033 81.5225 156.462 84.706 154.595 87.6783L161.369 91.9336ZM165.466 89.5225H157.466V90.9844H165.466H173.466V89.5225H165.466ZM165.466 90.9844V82.9844C159.006 82.9844 155.934 87.8582 154.88 90.2334C153.777 92.7181 153.54 95.0985 153.494 95.5929L161.459 96.3369L169.424 97.0809C169.417 97.1634 169.421 97.0809 169.452 96.9325C169.489 96.7589 169.521 96.6868 169.504 96.7242C169.491 96.7545 169.437 96.8716 169.321 97.0433C169.204 97.2153 168.992 97.49 168.65 97.7869C168.299 98.0929 167.822 98.4111 167.222 98.6458C166.612 98.884 166.006 98.9844 165.466 98.9844V90.9844ZM161.459 96.3369V104.337H165.466V96.3369V88.3369H161.459V96.3369ZM165.466 96.3369H157.466V97.6064H165.466H173.466V96.3369H165.466ZM165.466 97.6064V89.6064H155.991V97.6064V105.606H165.466V97.6064ZM155.991 97.6064H163.991V96.3369H155.991H147.991V97.6064H155.991ZM155.991 96.3369V104.337H159.997V96.3369V88.3369H155.991V96.3369ZM159.997 96.3369L167.962 95.5929C167.916 95.0993 167.679 92.719 166.577 90.2343C165.523 87.8593 162.452 82.9852 155.992 82.9844L155.991 90.9844L155.99 98.9844C155.45 98.9843 154.844 98.8839 154.234 98.6455C153.633 98.4107 153.157 98.0925 152.805 97.7864C152.464 97.4894 152.252 97.2147 152.135 97.0428C152.019 96.8711 151.965 96.7539 151.952 96.7236C151.935 96.6862 151.967 96.7583 152.004 96.9319C152.035 97.0802 152.039 97.1628 152.032 97.0809L159.997 96.3369ZM155.991 90.9844H163.991V89.5225H155.991H147.991V90.9844H155.991ZM155.991 89.5225L155.99 97.5225C155.409 97.5224 154.722 97.3377 154.122 96.9518C153.591 96.6099 153.358 96.2613 153.312 96.1873L160.094 91.9443L166.876 87.7014C165.014 84.7249 161.441 81.523 155.992 81.5225L155.991 89.5225ZM160.094 91.9443H168.094V88.4082H160.094H152.094V91.9443H160.094ZM160.094 88.4082L167.97 87.0089C166.903 81.002 159.793 78.1957 154.915 82.0263L159.855 88.3184L164.796 94.6104C160.098 98.2995 153.245 95.5957 152.217 89.8075L160.094 88.4082ZM159.855 88.3184L155.482 81.6197L154.348 82.3599L158.722 89.0586L163.095 95.7573L164.229 95.0171L159.855 88.3184ZM158.722 89.0586L153.762 82.7815C160.038 77.8225 168.656 84.9993 164.845 92.0787L157.801 88.2861L150.757 84.4936C146.314 92.7452 156.362 101.119 163.681 95.3357L158.722 89.0586ZM157.801 88.2861L164.832 92.1013L165.399 91.0573L158.367 87.2422L151.335 83.427L150.769 84.471L157.801 88.2861ZM158.367 87.2422L165.432 90.9958C168.204 85.7779 164.614 79.0234 158.238 79.0234V87.0234V95.0234C152.081 95.0234 148.633 88.5133 151.302 83.4885L158.367 87.2422ZM158.238 87.0234L158.455 79.0264L157.263 78.9941L157.047 86.9912L156.831 94.9883L158.022 95.0205L158.238 87.0234ZM157.047 86.9912L157.204 78.9928C165.577 79.1573 167.01 90.3908 159.786 93.2508L156.841 85.8125L153.896 78.3742C145.435 81.7237 147.19 94.799 156.89 94.9897L157.047 86.9912ZM156.841 85.8125L159.778 93.2538L160.886 92.8163L157.949 85.375L155.012 77.9337L153.904 78.3712L156.841 85.8125ZM157.949 85.375L160.773 92.86C166.672 90.6345 167.695 83.1908 163.42 79.2446L157.994 85.123L152.568 91.0015C148.46 87.2097 149.432 80.0379 155.125 77.89L157.949 85.375ZM157.994 85.123L163.291 79.1278L162.402 78.3426L157.105 84.3379L151.809 90.3331L152.697 91.1183L157.994 85.123ZM157.105 84.3379L162.363 78.3077C168.589 83.7357 162.657 93.4098 155.151 90.8825L157.704 83.3008L160.257 75.7191C151.489 72.7666 144.617 84.0641 151.848 90.3681L157.105 84.3379ZM157.704 83.3008L155.149 90.8817L156.276 91.2615L158.831 83.6807L161.386 76.0998L160.26 75.7199L157.704 83.3008ZM158.831 83.6807L156.022 91.1713C161.91 93.3793 168.001 88.3529 166.903 82.1293L159.024 83.5195L151.146 84.9098C150.087 78.9052 155.958 74.0593 161.64 76.19L158.831 83.6807ZM159.024 83.5195L166.939 82.3524L166.765 81.1737L158.851 82.3408L150.936 83.508L151.11 84.6867L159.024 83.5195ZM99.5674 80.6338V88.6338C99.9053 88.6338 99.9264 88.6889 99.7527 88.6172C99.6673 88.5819 99.5557 88.5242 99.4349 88.4374C99.3137 88.3503 99.2085 88.2522 99.1241 88.1546C98.949 87.9519 98.9452 87.849 98.9932 88.0045C99.0455 88.1744 99.1357 88.5822 99.1357 89.2969H107.136H115.136C115.136 85.3553 114.163 81.0871 111.231 77.6941C108.15 74.1285 103.865 72.6338 99.5674 72.6338V80.6338ZM107.136 89.2969L99.1357 89.2967C99.1357 90.0153 99.0445 90.3634 99.018 90.4462C99.0068 90.4815 99.0148 90.4451 99.0627 90.3606C99.1118 90.2737 99.1923 90.155 99.3117 90.0263C99.4317 89.8969 99.5664 89.784 99.7036 89.6937C99.8392 89.6045 99.9502 89.555 100.015 89.531C100.136 89.4858 100.028 89.5537 99.5674 89.5537V97.5537V105.554C103.544 105.554 107.836 104.365 111.043 100.906C114.159 97.5468 115.136 93.2382 115.136 89.2971L107.136 89.2969ZM99.5674 97.5537L99.5677 89.5537C99.1526 89.5537 99.0658 89.4901 99.1921 89.5386C99.2569 89.5634 99.3607 89.6117 99.4843 89.6948C99.6089 89.7787 99.7283 89.881 99.8328 89.995C99.9366 90.1083 100.005 90.2102 100.045 90.2808C100.084 90.3496 100.087 90.3732 100.074 90.3314C100.043 90.2378 99.9551 89.8967 99.9551 89.2188H91.9551H83.9551C83.9551 93.1808 84.9701 97.4591 88.0378 100.806C91.203 104.259 95.4767 105.554 99.5671 105.554L99.5674 97.5537ZM91.9551 89.2188L99.9551 89.219C99.9551 88.5432 100.043 88.1644 100.09 88.0154C100.132 87.8807 100.123 87.9863 99.951 88.1825C99.8685 88.2765 99.7674 88.3693 99.6527 88.4508C99.5383 88.5321 99.4343 88.5852 99.3566 88.617C99.1983 88.6819 99.2304 88.627 99.5677 88.627L99.5674 80.627L99.5671 72.627C95.2757 72.6271 91.0051 74.1157 87.9199 77.6349C84.9664 81.0037 83.9552 85.2588 83.9551 89.2185L91.9551 89.2188ZM99.5674 80.627H91.5674V80.6338H99.5674H107.567V80.627H99.5674ZM115.67 80.6338V88.6338C116.008 88.6338 116.029 88.6889 115.855 88.6172C115.77 88.5819 115.658 88.5242 115.537 88.4374C115.416 88.3503 115.311 88.2522 115.227 88.1546C115.052 87.9519 115.048 87.849 115.096 88.0045C115.148 88.1744 115.238 88.5822 115.238 89.2969H123.238H131.238C131.238 85.3553 130.265 81.0871 127.334 77.6941C124.253 74.1285 119.968 72.6338 115.67 72.6338V80.6338ZM123.238 89.2969L115.238 89.2967C115.238 90.0153 115.147 90.3634 115.121 90.4462C115.109 90.4815 115.117 90.4451 115.165 90.3606C115.214 90.2737 115.295 90.155 115.414 90.0263C115.534 89.8969 115.669 89.784 115.806 89.6937C115.942 89.6045 116.053 89.555 116.117 89.531C116.239 89.4858 116.131 89.5537 115.67 89.5537V97.5537V105.554C119.646 105.554 123.939 104.365 127.146 100.906C130.261 97.5468 131.238 93.2382 131.238 89.2971L123.238 89.2969ZM115.67 97.5537L115.67 89.5537C115.255 89.5537 115.168 89.4901 115.295 89.5386C115.359 89.5634 115.463 89.6117 115.587 89.6948C115.711 89.7787 115.831 89.881 115.935 89.995C116.039 90.1083 116.107 90.2102 116.147 90.2808C116.186 90.3496 116.19 90.3732 116.176 90.3314C116.146 90.2378 116.058 89.8967 116.058 89.2188H108.058H100.058C100.058 93.1808 101.073 97.4591 104.14 100.806C107.306 104.259 111.579 105.554 115.67 105.554L115.67 97.5537ZM108.058 89.2188L116.058 89.219C116.058 88.5432 116.145 88.1644 116.192 88.0154C116.235 87.8807 116.226 87.9863 116.054 88.1825C115.971 88.2765 115.87 88.3693 115.755 88.4508C115.641 88.5321 115.537 88.5852 115.459 88.617C115.301 88.6819 115.333 88.627 115.67 88.627L115.67 80.627L115.67 72.627C111.378 72.6271 107.108 74.1157 104.022 77.6349C101.069 81.0037 100.058 85.2588 100.058 89.2185L108.058 89.2188ZM115.67 80.627H107.67V80.6338H115.67H123.67V80.627H115.67ZM83.8066 80.627V88.627C84.14 88.627 84.0239 88.7249 83.6794 88.4566C83.5018 88.3183 83.2779 88.0887 83.0882 87.7477C82.8938 87.3983 82.7806 87.0118 82.7529 86.6427L90.7305 86.0439L98.708 85.4452C98.0669 76.9029 90.4543 72.627 83.8066 72.627V80.627ZM90.7305 86.0439V78.0439H87.3877V86.0439V94.0439H90.7305V86.0439ZM87.3877 86.0439L95.3371 85.1453C94.5781 78.4313 88.3742 75.3711 83.8066 75.3711V83.3711V91.3711C83.0039 91.3711 82.1763 91.1198 81.4309 90.5635C80.7089 90.0247 79.654 88.8506 79.4383 86.9426L87.3877 86.0439ZM83.8066 83.3711L83.8065 75.3711C80.2224 75.3711 76.719 76.8601 74.3115 79.925C72.0837 82.7609 71.3887 86.1728 71.3887 89.1933L79.3887 89.1934L87.3887 89.1934C87.3887 88.4396 87.5758 88.9403 86.8937 89.8087C86.5328 90.2682 86.0171 90.7026 85.3759 91.0014C84.7469 91.2945 84.1838 91.3711 83.8067 91.3711L83.8066 83.3711ZM79.3887 89.1934H71.3887C71.3887 91.6683 71.984 94.7142 73.7814 97.4006C75.7757 100.381 79.2249 102.759 83.7812 102.759V94.7588V86.7588C84.3482 86.7588 85.0679 86.9099 85.7716 87.3128C86.4431 87.6974 86.8568 88.1705 87.0794 88.5032C87.2917 88.8205 87.3575 89.0453 87.3731 89.1038C87.3903 89.1684 87.3887 89.1892 87.3887 89.1934H79.3887ZM83.7812 94.7588L83.7818 102.759C89.9633 102.758 95.6455 97.9299 95.6455 91.1318H87.6455H79.6455C79.6455 88.3012 81.9401 86.7589 83.7807 86.7588L83.7812 94.7588ZM87.6455 91.1318V83.1318H84.1348V91.1318V99.1318H87.6455V91.1318ZM84.1348 91.1318L89.3411 97.2059L89.3479 97.2L84.1416 91.126L78.9353 85.0519L78.9284 85.0578L84.1348 91.1318ZM84.1416 91.126H92.1416V88.4785H84.1416H76.1416V91.126H84.1416ZM84.1416 88.4785V96.4785H90.7568V88.4785V80.4785H84.1416V88.4785ZM90.7568 88.4785H82.7568V97H90.7568H98.7568V88.4785H90.7568ZM90.7568 97V89H88.0127V97V105H90.7568V97ZM88.0127 97L96.0045 96.639L95.9333 95.0609L87.9414 95.4219L79.9496 95.7829L80.0208 97.361L88.0127 97ZM87.9414 95.4219L80.9978 91.4488C81.6476 90.313 82.495 89.8307 82.849 89.6737C83.2103 89.5136 83.3479 89.5478 83.1884 89.5479L83.1885 97.5479L83.1886 105.548C86.7719 105.548 92.0939 104.273 94.8851 99.395L87.9414 95.4219ZM83.1885 97.5479V89.5479C83.3628 89.5479 83.6158 89.5965 83.8634 89.7235C84.0924 89.841 84.1968 89.9628 84.212 89.9819C84.2225 89.9951 84.1642 89.9236 84.1035 89.7395C84.0437 89.5578 84 89.3206 84 89.0518H76H68C68 96.0698 72.7555 105.548 83.1885 105.548V97.5479ZM76 89.0518L84 89.0518C84 88.636 84.0603 88.3754 84.0997 88.255C84.1374 88.1402 84.1438 88.1859 84.0411 88.3052C83.9909 88.3636 83.9246 88.4272 83.844 88.487C83.763 88.5471 83.6852 88.59 83.6216 88.6177C83.4824 88.6785 83.5074 88.627 83.8067 88.627L83.8066 80.627L83.8066 72.627C79.1312 72.627 74.8835 74.4188 71.9154 77.8664C69.0844 81.155 68 85.2595 68 89.0518L76 89.0518ZM130.362 81.1562L130.362 89.1562C130.524 89.1563 130.516 89.1829 130.393 89.1343C130.262 89.0825 130.083 88.9771 129.918 88.8072C129.753 88.6379 129.687 88.4917 129.672 88.4534C129.661 88.4236 129.718 88.5578 129.718 88.918H137.718H145.718C145.718 84.7928 144.379 80.7289 141.389 77.6538C138.392 74.5705 134.385 73.1564 130.363 73.1562L130.362 81.1562ZM137.718 88.918L129.718 88.9178C129.718 89.8535 129.456 89.9197 129.721 89.6071C129.855 89.4475 130.067 89.2713 130.341 89.1464C130.613 89.0218 130.814 89.0078 130.864 89.0078V97.0078V105.008C135.208 105.008 139.181 103.202 141.943 99.9319C144.607 96.7788 145.718 92.8002 145.718 88.9182L137.718 88.918ZM130.864 97.0078V89.0078H124.23V97.0078V105.008H130.864V97.0078ZM124.23 97.0078H132.23V81.1562H124.23H116.23V97.0078H124.23ZM124.23 81.1562V89.1562H130.362V81.1562V73.1562H124.23V81.1562ZM99.5674 83.5645L99.5668 75.5645C96.0805 75.5647 92.4704 76.9223 89.9904 80.1657C87.7731 83.0653 87.2197 86.4952 87.2197 89.2969H95.2197H103.22C103.22 88.3501 103.443 88.9138 102.7 89.8845C102.289 90.4219 101.709 90.903 101.017 91.2173C100.354 91.5182 99.8169 91.5644 99.568 91.5645L99.5674 83.5645ZM95.2197 89.2969L87.2197 89.2971C87.2198 92.1317 87.8008 95.6535 90.2391 98.5563C92.8926 101.715 96.5134 102.714 99.5669 102.714L99.5674 94.7139L99.5679 86.7139C99.6786 86.7139 100.111 86.7296 100.708 86.9693C101.351 87.227 101.988 87.6671 102.491 88.2654C103.441 89.3968 103.22 90.2103 103.22 89.2967L95.2197 89.2969ZM99.5674 94.7139V102.714C102.704 102.714 106.108 101.556 108.626 98.6842C111.05 95.9182 111.864 92.4662 111.864 89.2971L103.864 89.2969L95.8643 89.2966C95.8642 89.8759 95.7215 89.1325 96.5933 88.1379C97.5581 87.0371 98.8142 86.7139 99.5674 86.7139V94.7139ZM103.864 89.2969H111.864C111.864 86.5462 111.344 83.126 109.16 80.219C106.691 76.9338 103.066 75.5645 99.5674 75.5645V83.5645V91.5645C99.3192 91.5645 98.7679 91.5184 98.0864 91.2062C97.373 90.8794 96.7816 90.3806 96.3686 89.8309C95.6337 88.8529 95.8643 88.2989 95.8643 89.2969H103.864ZM115.67 83.5645L115.669 75.5645C112.183 75.5647 108.573 76.9223 106.093 80.1657C103.876 83.0653 103.322 86.4952 103.322 89.2969H111.322H119.322C119.322 88.3501 119.545 88.9138 118.803 89.8845C118.392 90.4219 117.811 90.903 117.119 91.2173C116.456 91.5182 115.919 91.5644 115.671 91.5645L115.67 83.5645ZM111.322 89.2969L103.322 89.2971C103.322 92.1317 103.903 95.6535 106.342 98.5563C108.995 101.715 112.616 102.714 115.669 102.714L115.67 94.7139L115.67 86.7139C115.781 86.7139 116.213 86.7296 116.811 86.9693C117.454 87.227 118.09 87.6671 118.593 88.2654C119.543 89.3968 119.322 90.2103 119.322 89.2967L111.322 89.2969ZM115.67 94.7139V102.714C118.806 102.714 122.211 101.556 124.728 98.6842C127.153 95.9182 127.967 92.4662 127.967 89.2971L119.967 89.2969L111.967 89.2966C111.967 89.8759 111.824 89.1325 112.696 88.1379C113.661 87.0371 114.917 86.7139 115.67 86.7139V94.7139ZM119.967 89.2969H127.967C127.967 86.5462 127.447 83.126 125.262 80.219C122.793 76.9338 119.169 75.5645 115.67 75.5645V83.5645V91.5645C115.422 91.5645 114.87 91.5184 114.189 91.2062C113.475 90.8794 112.884 90.3806 112.471 89.8309C111.736 88.8529 111.967 88.2989 111.967 89.2969H119.967ZM127.457 94.3086V102.309H130.207V94.3086V86.3086H127.457V94.3086ZM130.207 94.3086V102.309C133.464 102.309 137.208 101.171 139.77 97.7311C141.965 94.7841 142.336 91.3523 142.336 88.9111H134.336H126.336C126.336 89.3742 126.293 89.5018 126.317 89.3992C126.344 89.2871 126.48 88.7882 126.937 88.1745C127.435 87.5061 128.124 86.9596 128.89 86.6278C129.594 86.3227 130.107 86.3086 130.207 86.3086V94.3086ZM134.336 88.9111L142.336 88.9111C142.336 86.5474 142 82.8229 139.326 79.7814C136.417 76.4716 132.517 75.9005 129.918 75.9004L129.918 83.9004L129.918 91.9004C130.495 91.9004 128.803 92.0442 127.309 90.3444C126.658 89.6035 126.422 88.9096 126.351 88.6346C126.289 88.3993 126.336 88.4324 126.336 88.9112L134.336 88.9111ZM129.918 83.9004V75.9004H127.457V83.9004V91.9004H129.918V83.9004ZM127.457 83.9004H119.457V94.3086H127.457H135.457V83.9004H127.457ZM159.05 62V70C159.383 70 159.267 70.0979 158.923 69.8297C158.745 69.6914 158.521 69.4618 158.331 69.1208C158.137 68.7714 158.024 68.3848 157.996 68.0157L165.974 67.417L173.951 66.8183C173.31 58.2759 165.697 54 159.05 54V62ZM165.974 67.417V59.417H162.631V67.417V75.417H165.974V67.417ZM162.631 67.417L170.58 66.5184C169.821 59.8043 163.617 56.7441 159.05 56.7441V64.7441V72.7441C158.247 72.7441 157.419 72.4928 156.674 71.9366C155.952 71.3978 154.897 70.2237 154.681 68.3156L162.631 67.417ZM159.05 64.7441L159.05 56.7441C155.466 56.7442 151.962 58.2331 149.555 61.298C147.327 64.134 146.632 67.5458 146.632 70.5664L154.632 70.5664L162.632 70.5664C162.632 69.8126 162.819 70.3134 162.137 71.1818C161.776 71.6412 161.26 72.0757 160.619 72.3745C159.99 72.6676 159.427 72.7441 159.05 72.7441L159.05 64.7441ZM154.632 70.5664H146.632C146.632 73.0414 147.227 76.0872 149.025 78.7736C151.019 81.7542 154.468 84.1318 159.024 84.1318V76.1318V68.1318C159.591 68.1318 160.311 68.2829 161.015 68.6859C161.686 69.0705 162.1 69.5435 162.323 69.8762C162.535 70.1935 162.601 70.4183 162.616 70.4768C162.633 70.5415 162.632 70.5622 162.632 70.5664H154.632ZM159.024 76.1318L159.025 84.1318C165.207 84.1314 170.889 79.3029 170.889 72.5049H162.889H154.889C154.889 69.6743 157.183 68.132 159.024 68.1318L159.024 76.1318ZM162.889 72.5049V64.5049H159.378V72.5049V80.5049H162.889V72.5049ZM159.378 72.5049H167.378V69.8584H159.378H151.378V72.5049H159.378ZM159.378 69.8584L165.035 75.5153L165.042 75.5084L159.385 69.8516L153.728 64.1947L153.721 64.2015L159.378 69.8584ZM159.385 69.8516V77.8516H166V69.8516V61.8516H159.385V69.8516ZM166 69.8516H158V78.373H166H174V69.8516H166ZM166 78.373V70.373H163.256V78.373V86.373H166V78.373ZM163.256 78.373L171.248 78.012L171.176 76.4339L163.185 76.7949L155.193 77.1559L155.264 78.7341L163.256 78.373ZM163.185 76.7949L156.241 72.8216C156.891 71.6849 157.74 71.2024 158.094 71.0455C158.455 70.8854 158.592 70.9199 158.432 70.9199L158.432 78.9199L158.432 86.9199C162.012 86.9199 167.336 85.6481 170.128 80.7682L163.185 76.7949ZM158.432 78.9199V70.9199C158.606 70.9199 158.858 70.9685 159.106 71.0955C159.335 71.2129 159.439 71.3347 159.455 71.354C159.465 71.3674 159.407 71.2961 159.347 71.1121C159.287 70.9307 159.243 70.6936 159.243 70.4248L151.243 70.4248L143.243 70.4249C143.243 77.4441 148 86.9199 158.432 86.9199V78.9199ZM151.243 70.4248H159.243C159.243 70.009 159.303 69.7485 159.343 69.6281C159.381 69.5133 159.387 69.559 159.284 69.6783C159.234 69.7366 159.168 69.8003 159.087 69.86C159.006 69.9201 158.928 69.963 158.865 69.9907C158.726 70.0515 158.751 70 159.05 70L159.05 62L159.05 54C154.374 54 150.127 55.7918 147.159 59.2395C144.328 62.5281 143.243 66.6326 143.243 70.4248H151.243ZM82.3184 62.5352V70.5352C82.4815 70.5352 82.476 70.562 82.3545 70.5143C82.2247 70.4632 82.0455 70.3585 81.8792 70.1879C81.7132 70.0176 81.6453 69.8695 81.6301 69.8286C81.6182 69.7965 81.6748 69.9292 81.6748 70.2901L89.6748 70.29L97.6748 70.29C97.6748 66.1582 96.3319 62.0923 93.336 59.0191C90.3348 55.9404 86.3296 54.5352 82.3184 54.5352V62.5352ZM89.6748 70.29H81.6748V70.2969H89.6748H97.6748V70.29H89.6748ZM89.6748 70.2969L81.6748 70.2967C81.6748 71.2323 81.4135 71.2986 81.6775 70.986C81.8124 70.8263 82.0245 70.6502 82.2976 70.5253C82.5698 70.4008 82.7712 70.3867 82.8212 70.3867L82.8213 78.3867L82.8214 86.3867C87.1647 86.3867 91.1381 84.5809 93.9004 81.3108C96.5638 78.1577 97.6747 74.1791 97.6748 70.2971L89.6748 70.2969ZM82.8213 78.3867V70.3867H76.1875V78.3867V86.3867H82.8213V78.3867ZM76.1875 78.3867H84.1875V62.5352H76.1875H68.1875V78.3867H76.1875ZM76.1875 62.5352V70.5352H82.3184V62.5352V54.5352H76.1875V62.5352ZM94.2988 78.3867V70.3867H90.9824V78.3867V86.3867H94.2988V78.3867ZM90.9824 78.3867H98.9824V62.5352H90.9824H82.9824V78.3867H90.9824ZM90.9824 62.5352V70.5352H94.2988V62.5352V54.5352H90.9824V62.5352ZM94.2988 62.5352H86.2988V78.3867H94.2988H102.299V62.5352H94.2988ZM122.459 65.2979V57.2979H117.66V65.2979V73.2979H122.459V65.2979ZM117.66 65.2979H109.66V78.3867H117.66H125.66V65.2979H117.66ZM117.66 78.3867V70.3867H114.344V78.3867V86.3867H117.66V78.3867ZM114.344 78.3867H122.344V65.2979H114.344H106.344V78.3867H114.344ZM114.344 65.2979V57.2979H109.57V65.2979V73.2979H114.344V65.2979ZM109.57 65.2979H117.57V62.5352H109.57H101.57V65.2979H109.57ZM109.57 62.5352V70.5352H122.459V62.5352V54.5352H109.57V62.5352ZM122.459 62.5352H114.459V65.2979H122.459H130.459V62.5352H122.459ZM151.495 78.3867V70.3867H147.888V78.3867V86.3867H151.495V78.3867ZM147.888 78.3867L155.535 76.0384L154.53 72.7659L146.883 75.1143L139.235 77.4626L140.24 80.7351L147.888 78.3867ZM146.883 75.1143V67.1143H141.034V75.1143V83.1143H146.883V75.1143ZM141.034 75.1143L133.465 72.5235L132.345 75.796L139.914 78.3867L147.483 80.9774L148.603 77.705L141.034 75.1143ZM139.914 78.3867V70.3867H136.403V78.3867V86.3867H139.914V78.3867ZM136.403 78.3867L143.938 81.0749L149.593 65.2233L142.059 62.5352L134.524 59.847L128.868 75.6986L136.403 78.3867ZM142.059 62.5352V70.5352H145.904V62.5352V54.5352H142.059V62.5352ZM145.904 62.5352L138.36 65.1961L143.951 81.0477L151.495 78.3867L159.04 75.7258L153.449 59.8742L145.904 62.5352ZM104.103 62.5273L104.102 70.5273C103.757 70.5273 102.906 70.3834 102.092 69.5999C101.269 68.8081 100.972 67.8237 100.972 67.1133L108.972 67.1133L116.972 67.1132C116.972 63.7751 115.708 60.4978 113.185 58.07C110.67 55.6505 107.385 54.5275 104.103 54.5273L104.103 62.5273ZM108.972 67.1133H100.972C100.972 66.6581 101.085 65.9291 101.581 65.1366C102.109 64.2945 102.936 63.609 103.907 63.2607L106.607 70.791L109.308 78.3213C114.648 76.406 116.972 71.4559 116.972 67.1133H108.972ZM106.607 70.791L104.13 78.3977C103.837 78.3024 102.392 77.7572 101.34 76.0937C100.445 74.6792 100.54 73.5211 100.54 73.8956L108.54 73.8955L116.54 73.8954C116.54 72.4086 116.371 69.9269 114.861 67.5398C113.193 64.9037 110.782 63.7369 109.085 63.1843L106.607 70.791ZM108.54 73.8955H100.54V78.3848H108.54H116.54V73.8955H108.54ZM108.54 78.3848V70.3848H105.294V78.3848V86.3848H108.54V78.3848ZM105.294 78.3848H113.294V74.3018H105.294H97.2939V78.3848H105.294ZM105.294 74.3018H113.294C113.294 72.8918 113.103 69.3849 110.104 66.7028C107.39 64.2762 104.136 64.1758 102.813 64.1758V72.1758V80.1758C102.931 80.1758 102.618 80.1911 102.079 80.0573C101.496 79.9123 100.461 79.5446 99.4386 78.6299C98.369 77.6735 97.7983 76.5556 97.5272 75.6718C97.2894 74.8968 97.2939 74.348 97.2939 74.3018H105.294ZM102.813 72.1758V64.1758H99.2783V72.1758V80.1758H102.813V72.1758ZM99.2783 72.1758H91.2783V78.3789H99.2783H107.278V72.1758H99.2783ZM99.2783 78.3789V70.3789H96.0576V78.3789V86.3789H99.2783V78.3789ZM96.0576 78.3789H104.058V62.5273H96.0576H88.0576V78.3789H96.0576ZM96.0576 62.5273V70.5273H104.103V62.5273V54.5273H96.0576V62.5273ZM131.167 62.5273V70.5273C131.331 70.5273 130.348 70.5588 129.266 69.5504C128.111 68.4757 127.939 67.2448 127.939 66.8496H135.939H143.939C143.939 63.8071 142.934 60.4151 140.169 57.8411C137.476 55.3334 134.107 54.5273 131.167 54.5273V62.5273ZM135.939 66.8496L127.939 66.8487C127.94 64.9595 129.079 63.1857 130.977 62.4089L134.008 69.8125L137.039 77.2161C141.139 75.5376 143.939 71.4703 143.939 66.8505L135.939 66.8496ZM134.008 69.8125L131.186 77.2984C130.746 77.1323 129.883 76.6846 129.182 75.6958C128.471 74.6913 128.416 73.8181 128.416 73.6574L136.416 73.6572L144.416 73.6571C144.416 71.2295 143.823 68.6851 142.241 66.4506C140.67 64.2317 138.603 62.9951 136.829 62.3266L134.008 69.8125ZM136.416 73.6572L128.417 73.508L128.413 73.7697L136.411 73.9189L144.41 74.0682L144.415 73.8065L136.416 73.6572ZM136.411 73.9189L128.418 73.5769C128.428 73.3562 128.486 72.9061 128.748 72.3527C129.02 71.7759 129.43 71.2679 129.908 70.891C130.819 70.1731 131.36 70.3789 130.497 70.3789V78.3789V86.3789C133.496 86.3789 136.936 85.7232 139.809 83.4595C142.904 81.0213 144.262 77.5738 144.404 74.2609L136.411 73.9189ZM130.497 78.3789V70.3789H123.36V78.3789V86.3789H130.497V78.3789ZM123.36 78.3789H131.36V62.5273H123.36H115.36V78.3789H123.36ZM123.36 62.5273V70.5273H131.167V62.5273V54.5273H123.36V62.5273ZM79.4072 75.6875V83.6875H82.1582V75.6875V67.6875H79.4072V75.6875ZM82.1582 75.6875L82.1587 83.6875C85.4156 83.6873 89.1596 82.5495 91.7211 79.109C93.9151 76.1619 94.2861 72.7305 94.2861 70.29H86.2861H78.2861C78.2861 70.7534 78.2429 70.8811 78.2674 70.7787C78.2942 70.6668 78.4303 70.1679 78.8872 69.5542C79.385 68.8857 80.0738 68.339 80.8402 68.0069C81.5448 67.7017 82.0579 67.6875 82.1577 67.6875L82.1582 75.6875ZM86.2861 70.29L94.2861 70.29C94.2861 67.9265 93.95 64.2018 91.2767 61.1604C88.3674 57.8504 84.4666 57.2793 81.8683 57.2793L81.8682 65.2793L81.868 73.2793C82.445 73.2793 80.7531 73.4231 79.259 71.7232C78.6078 70.9823 78.3724 70.2883 78.3008 70.0133C78.2395 69.7781 78.2861 69.8112 78.2861 70.2901L86.2861 70.29ZM81.8682 65.2793V57.2793H79.4072V65.2793V73.2793H81.8682V65.2793ZM79.4072 65.2793H71.4072V75.6875H79.4072H87.4072V65.2793H79.4072ZM126.562 75.6797V83.6797H130.762V75.6797V67.6797H126.562V75.6797ZM130.762 75.6797L130.763 83.6797C133.272 83.6794 135.989 82.8414 138.124 80.7694C140.256 78.6997 141.196 75.9832 141.196 73.4145L133.196 73.4131L125.196 73.4117C125.197 72.1308 125.683 70.5475 126.979 69.2891C128.278 68.0284 129.778 67.6798 130.761 67.6797L130.762 75.6797ZM133.196 73.4131H141.196C141.196 70.8354 140.252 67.7901 137.537 65.6307C135.147 63.7299 132.476 63.4093 130.807 63.4092L130.807 71.4092L130.806 79.4092C130.619 79.4092 129.143 79.3981 127.577 78.1531C125.687 76.6495 125.196 74.606 125.196 73.4131H133.196ZM130.807 71.4092V63.4092H126.562V71.4092V79.4092H130.807V71.4092ZM126.562 71.4092H118.562V75.6797H126.562H134.562V71.4092H126.562ZM141.892 72.3896V80.3896H145.93V72.3896V64.3896H141.892V72.3896ZM145.93 72.3896L153.561 69.9893L151.578 63.6836L143.946 66.084L136.315 68.4844L138.298 74.79L145.93 72.3896ZM143.946 66.084V58.084H143.92V66.084V74.084H143.946V66.084ZM143.92 66.084L136.304 63.6343L134.276 69.9399L141.892 72.3896L149.507 74.8394L151.536 68.5337L143.92 66.084ZM99.2783 69.5029V77.5029H103.433V69.5029V61.5029H99.2783V69.5029ZM103.433 69.5029L103.433 77.5029C105.494 77.5028 108.421 77.0048 110.828 74.7128C113.302 72.357 113.867 69.4115 113.867 67.4037L105.867 67.4033L97.8672 67.403C97.8672 66.6381 98.0969 64.7424 99.7949 63.1255C101.426 61.5726 103.136 61.5029 103.432 61.5029L103.433 69.5029ZM105.867 67.4033H113.867C113.867 65.4078 113.314 62.5636 111.001 60.2353C108.668 57.8883 105.753 57.2773 103.548 57.2773V65.2773V73.2773C102.991 73.2773 101.236 73.1079 99.6511 71.513C98.085 69.937 97.8672 68.1557 97.8672 67.4033H105.867ZM103.548 65.2773V57.2773H99.2783V65.2773V73.2773H103.548V65.2773ZM99.2783 65.2773H91.2783V69.5029H99.2783H107.278V65.2773H99.2783ZM126.556 68.7168V76.7168H130.735V68.7168V60.7168H126.556V68.7168ZM130.735 68.7168V76.7168C132.461 76.7168 135.128 76.3392 137.451 74.3386C139.979 72.161 140.738 69.2558 140.738 66.9971H132.738H124.738C124.738 65.859 125.153 63.8137 127.008 62.2158C128.658 60.7949 130.324 60.7168 130.735 60.7168V68.7168ZM132.738 66.9971L140.738 66.9963C140.738 65.0024 140.158 61.7319 137.152 59.3802C134.638 57.4132 131.831 57.2773 130.542 57.2773V65.2773V73.2773C130.539 73.2773 130.209 73.2811 129.692 73.1587C129.158 73.0318 128.244 72.7262 127.292 71.9814C124.997 70.1853 124.738 67.7746 124.738 66.9978L132.738 66.9971ZM130.542 65.2773V57.2773H126.556V65.2773V73.2773H130.542V65.2773ZM126.556 65.2773H118.556V68.7168H126.556H134.556V65.2773H126.556Z" fill="#E6E2DE" mask="url(#path-4-outside-1_1195_303)"/>
</svg>
