<svg width="242" height="240" viewBox="0 0 242 240" fill="none" xmlns="http://www.w3.org/2000/svg">
<rect y="80" width="242" height="160" rx="12" fill="#E6E2DE"/>
<path d="M90.4817 152.447V154.559H82.7537V143.071H90.3697V145.183H85.1857V147.599H89.8897V149.695H85.1857V152.447H90.4817ZM93.6911 154.559H91.2111L94.0911 150.207L91.4031 146.015H93.9631L95.7071 148.959L97.4671 146.015H99.8031L97.1471 150.287L100.011 154.559H97.4831L95.5631 151.487L93.6911 154.559ZM106.111 154.559V153.503C105.551 154.303 104.703 154.719 103.535 154.719C101.759 154.719 100.575 153.679 100.575 152.079C100.575 150.415 101.919 149.519 104.415 149.519C104.895 149.519 105.311 149.551 105.839 149.615V149.103C105.839 148.143 105.295 147.583 104.367 147.583C103.407 147.583 102.831 148.143 102.751 149.103H100.751C100.879 147.135 102.303 145.855 104.367 145.855C106.607 145.855 107.919 147.087 107.919 149.183V154.559H106.111ZM102.671 152.015C102.671 152.735 103.183 153.183 104.015 153.183C105.151 153.183 105.839 152.559 105.839 151.567V150.959C105.311 150.879 104.943 150.847 104.559 150.847C103.295 150.847 102.671 151.247 102.671 152.015ZM111.899 154.559H109.675V146.015H111.723V147.231C112.347 146.367 113.147 145.855 114.283 145.855C115.451 145.855 116.347 146.399 116.779 147.375C117.451 146.431 118.315 145.855 119.595 145.855C121.323 145.855 122.491 146.991 122.491 149.039V154.559H120.283V149.743C120.283 148.543 119.771 147.823 118.795 147.823C117.915 147.823 117.195 148.511 117.195 149.791V154.559H114.987V149.743C114.987 148.543 114.475 147.823 113.499 147.823C112.603 147.823 111.899 148.511 111.899 149.791V154.559ZM128.01 154.719C125.53 154.719 123.674 152.767 123.674 150.287C123.674 147.791 125.53 145.855 128.01 145.855C130.49 145.855 132.346 147.791 132.346 150.287C132.346 152.767 130.49 154.719 128.01 154.719ZM128.01 152.751C129.114 152.751 130.058 151.871 130.058 150.287C130.058 148.703 129.114 147.839 128.01 147.839C126.906 147.839 125.962 148.703 125.962 150.287C125.962 151.871 126.906 152.751 128.01 152.751ZM135.829 149.903V154.559H133.605V146.015H135.653V147.231C136.277 146.383 137.157 145.855 138.277 145.855C139.989 145.855 141.173 146.975 141.173 149.039V154.559H138.965V149.791C138.965 148.527 138.469 147.823 137.461 147.823C136.581 147.823 135.829 148.527 135.829 149.903ZM153.986 154.559L153.122 152.095H148.658L147.778 154.559H145.33L149.65 143.071H152.306L156.594 154.559H153.986ZM150.914 145.727L149.346 150.159H152.45L150.914 145.727ZM160.265 154.559H157.833V143.071H160.265V154.559Z" fill="#1A1A1A"/>
<path d="M79.8399 174.559L77.7119 166.677L75.5699 174.559H73.9879L71.3699 164.507H72.8819L74.8139 172.249L76.9279 164.507H78.5239L80.6099 172.263L82.5419 164.507H84.0539L81.4359 174.559H79.8399ZM87.461 174.699C85.319 174.699 83.877 173.145 83.877 170.807C83.877 168.609 85.375 166.999 87.419 166.999C89.631 166.999 91.101 168.791 90.849 171.199H85.319C85.431 172.711 86.187 173.593 87.433 173.593C88.483 173.593 89.211 173.019 89.449 172.053H90.849C90.485 173.705 89.211 174.699 87.461 174.699ZM87.391 168.063C86.257 168.063 85.487 168.875 85.333 170.261H89.351C89.281 168.889 88.539 168.063 87.391 168.063ZM99.1564 170.849C99.1564 173.075 97.8684 174.699 95.8664 174.699C94.8164 174.699 93.9204 174.167 93.3884 173.229V174.559H92.0724V164.507H93.4864V168.413C94.0044 167.503 94.8584 166.999 95.8664 166.999C97.8544 166.999 99.1564 168.595 99.1564 170.849ZM97.6864 170.849C97.6864 169.169 96.8044 168.245 95.5864 168.245C94.4104 168.245 93.4864 169.155 93.4864 170.821C93.4864 172.459 94.3824 173.439 95.5864 173.439C96.8044 173.439 97.6864 172.501 97.6864 170.849ZM106.19 172.347C106.19 173.803 105.056 174.699 103.082 174.699C101.122 174.699 99.96 173.733 99.82 172.137H101.178C101.234 173.061 101.976 173.635 103.11 173.635C104.104 173.635 104.762 173.285 104.762 172.585C104.762 171.969 104.384 171.703 103.46 171.521L102.256 171.297C100.884 171.031 100.114 170.331 100.114 169.211C100.114 167.909 101.248 166.999 102.97 166.999C104.748 166.999 105.952 167.951 106.078 169.477H104.72C104.636 168.581 103.978 168.063 102.984 168.063C102.088 168.063 101.486 168.441 101.486 169.085C101.486 169.687 101.864 169.967 102.76 170.135L104.02 170.373C105.49 170.639 106.19 171.283 106.19 172.347ZM109.176 165.417C109.176 165.949 108.756 166.355 108.154 166.355C107.552 166.355 107.118 165.949 107.118 165.417C107.118 164.871 107.552 164.479 108.154 164.479C108.756 164.479 109.176 164.871 109.176 165.417ZM108.868 174.559H107.454V167.139H108.868V174.559ZM114.737 173.187V174.433C114.303 174.629 113.925 174.699 113.477 174.699C112.105 174.699 111.153 173.957 111.153 172.319V168.343H109.515V167.139H111.153V164.941H112.567V167.139H114.807V168.343H112.567V171.997C112.567 173.019 113.057 173.383 113.813 173.383C114.149 173.383 114.443 173.327 114.737 173.187ZM118.723 174.699C116.581 174.699 115.139 173.145 115.139 170.807C115.139 168.609 116.637 166.999 118.681 166.999C120.893 166.999 122.363 168.791 122.111 171.199H116.581C116.693 172.711 117.449 173.593 118.695 173.593C119.745 173.593 120.473 173.019 120.711 172.053H122.111C121.747 173.705 120.473 174.699 118.723 174.699ZM118.653 168.063C117.519 168.063 116.749 168.875 116.595 170.261H120.613C120.543 168.889 119.801 168.063 118.653 168.063ZM129.27 174.559H126.092V164.507H129.27C132.476 164.507 134.324 166.551 134.324 169.491C134.324 172.389 132.406 174.559 129.27 174.559ZM127.632 165.837V173.229H129.2C131.51 173.229 132.756 171.801 132.756 169.491C132.756 167.223 131.524 165.837 129.2 165.837H127.632ZM138.596 174.699C136.454 174.699 135.012 173.145 135.012 170.807C135.012 168.609 136.51 166.999 138.554 166.999C140.766 166.999 142.236 168.791 141.984 171.199H136.454C136.566 172.711 137.322 173.593 138.568 173.593C139.618 173.593 140.346 173.019 140.584 172.053H141.984C141.62 173.705 140.346 174.699 138.596 174.699ZM138.526 168.063C137.392 168.063 136.622 168.875 136.468 170.261H140.486C140.416 168.889 139.674 168.063 138.526 168.063ZM149.087 172.347C149.087 173.803 147.953 174.699 145.979 174.699C144.019 174.699 142.857 173.733 142.717 172.137H144.075C144.131 173.061 144.873 173.635 146.007 173.635C147.001 173.635 147.659 173.285 147.659 172.585C147.659 171.969 147.281 171.703 146.357 171.521L145.153 171.297C143.781 171.031 143.011 170.331 143.011 169.211C143.011 167.909 144.145 166.999 145.867 166.999C147.645 166.999 148.849 167.951 148.975 169.477H147.617C147.533 168.581 146.875 168.063 145.881 168.063C144.985 168.063 144.383 168.441 144.383 169.085C144.383 169.687 144.761 169.967 145.657 170.135L146.917 170.373C148.387 170.639 149.087 171.283 149.087 172.347ZM152.073 165.417C152.073 165.949 151.653 166.355 151.051 166.355C150.449 166.355 150.015 165.949 150.015 165.417C150.015 164.871 150.449 164.479 151.051 164.479C151.653 164.479 152.073 164.871 152.073 165.417ZM151.765 174.559H150.351V167.139H151.765V174.559ZM156.416 177.415C154.47 177.415 153.21 176.379 153.126 174.699H154.498C154.582 175.735 155.254 176.295 156.402 176.295C157.676 176.295 158.348 175.609 158.348 174.335V172.991C157.928 173.887 157.088 174.405 156.08 174.405C154.232 174.405 152.916 172.879 152.916 170.695C152.916 168.483 154.176 166.999 156.038 166.999C157.102 166.999 157.942 167.517 158.446 168.455V167.139H159.762V174.307C159.762 176.253 158.516 177.415 156.416 177.415ZM154.344 170.695C154.344 172.235 155.1 173.173 156.332 173.173C157.536 173.173 158.348 172.207 158.348 170.737C158.348 169.197 157.55 168.217 156.332 168.217C155.114 168.217 154.344 169.169 154.344 170.695ZM162.854 170.373V174.559H161.44V167.139H162.756V168.371C163.26 167.545 164.1 166.999 165.122 166.999C166.648 166.999 167.656 167.979 167.656 169.757V174.559H166.242V170.233C166.242 168.959 165.682 168.245 164.632 168.245C163.666 168.245 162.854 169.057 162.854 170.373ZM171.171 173.957C171.171 175.287 170.121 176.323 168.581 176.351V175.553C169.491 175.525 170.107 175.035 170.191 174.349C170.065 174.391 169.981 174.405 169.883 174.405C169.351 174.405 168.959 173.971 168.959 173.453C168.959 172.851 169.407 172.459 169.981 172.459C170.751 172.459 171.171 173.019 171.171 173.957ZM77.9068 188.059H75.9608V191.559H74.4208V181.507H77.9068C80.1608 181.507 81.6168 182.655 81.6168 184.755C81.6168 186.869 80.1608 188.059 77.9068 188.059ZM77.8928 182.809H75.9608V186.757H77.8928C79.2508 186.757 80.0768 186.015 80.0768 184.769C80.0768 183.523 79.2508 182.809 77.8928 182.809ZM84.1791 187.765V191.559H82.7651V184.139H84.0811V185.707C84.5991 184.685 85.7191 184.041 86.9371 184.041V185.511C85.3411 185.427 84.1791 186.127 84.1791 187.765ZM90.8568 191.699C88.7568 191.699 87.2168 190.047 87.2168 187.849C87.2168 185.651 88.7568 183.999 90.8568 183.999C92.9568 183.999 94.4968 185.651 94.4968 187.849C94.4968 190.047 92.9568 191.699 90.8568 191.699ZM90.8568 190.453C92.0748 190.453 93.0408 189.473 93.0408 187.849C93.0408 186.225 92.0748 185.259 90.8568 185.259C89.6388 185.259 88.6868 186.225 88.6868 187.849C88.6868 189.473 89.6388 190.453 90.8568 190.453ZM95.1262 187.849C95.1262 185.595 96.4142 183.999 98.4162 183.999C99.4102 183.999 100.278 184.503 100.796 185.413V181.507H102.21V191.559H100.894V190.229C100.362 191.167 99.4662 191.699 98.4162 191.699C96.4142 191.699 95.1262 190.075 95.1262 187.849ZM96.5962 187.849C96.5962 189.501 97.4642 190.439 98.6962 190.439C99.9002 190.439 100.796 189.459 100.796 187.821C100.796 186.155 99.8722 185.245 98.6962 185.245C97.4642 185.245 96.5962 186.169 96.5962 187.849ZM108.53 188.507V184.139H109.944V191.559H108.628V190.383C108.236 191.153 107.368 191.699 106.36 191.699C104.862 191.699 103.826 190.817 103.826 188.913V184.139H105.24V188.633C105.24 189.921 105.884 190.453 106.808 190.453C107.76 190.453 108.53 189.669 108.53 188.507ZM114.554 191.713C112.524 191.713 111.096 190.117 111.096 187.849C111.096 185.609 112.552 183.999 114.554 183.999C116.388 183.999 117.718 185.217 117.984 187.149H116.5C116.346 185.959 115.604 185.245 114.568 185.245C113.35 185.245 112.552 186.281 112.552 187.849C112.552 189.431 113.35 190.453 114.568 190.453C115.618 190.453 116.346 189.753 116.514 188.549H117.984C117.732 190.509 116.416 191.713 114.554 191.713ZM123.313 190.187V191.433C122.879 191.629 122.501 191.699 122.053 191.699C120.681 191.699 119.729 190.957 119.729 189.319V185.343H118.091V184.139H119.729V181.941H121.143V184.139H123.383V185.343H121.143V188.997C121.143 190.019 121.633 190.383 122.389 190.383C122.725 190.383 123.019 190.327 123.313 190.187ZM130.388 191.559H127.21V181.507H130.388C133.594 181.507 135.442 183.551 135.442 186.491C135.442 189.389 133.524 191.559 130.388 191.559ZM128.75 182.837V190.229H130.318C132.628 190.229 133.874 188.801 133.874 186.491C133.874 184.223 132.642 182.837 130.318 182.837H128.75ZM139.714 191.699C137.572 191.699 136.13 190.145 136.13 187.807C136.13 185.609 137.628 183.999 139.672 183.999C141.884 183.999 143.354 185.791 143.102 188.199H137.572C137.684 189.711 138.44 190.593 139.686 190.593C140.736 190.593 141.464 190.019 141.702 189.053H143.102C142.738 190.705 141.464 191.699 139.714 191.699ZM139.644 185.063C138.51 185.063 137.74 185.875 137.586 187.261H141.604C141.534 185.889 140.792 185.063 139.644 185.063ZM150.205 189.347C150.205 190.803 149.071 191.699 147.097 191.699C145.137 191.699 143.975 190.733 143.835 189.137H145.193C145.249 190.061 145.991 190.635 147.125 190.635C148.119 190.635 148.777 190.285 148.777 189.585C148.777 188.969 148.399 188.703 147.475 188.521L146.271 188.297C144.899 188.031 144.129 187.331 144.129 186.211C144.129 184.909 145.263 183.999 146.985 183.999C148.763 183.999 149.967 184.951 150.093 186.477H148.735C148.651 185.581 147.993 185.063 146.999 185.063C146.103 185.063 145.501 185.441 145.501 186.085C145.501 186.687 145.879 186.967 146.775 187.135L148.035 187.373C149.505 187.639 150.205 188.283 150.205 189.347ZM153.191 182.417C153.191 182.949 152.771 183.355 152.169 183.355C151.567 183.355 151.133 182.949 151.133 182.417C151.133 181.871 151.567 181.479 152.169 181.479C152.771 181.479 153.191 181.871 153.191 182.417ZM152.883 191.559H151.469V184.139H152.883V191.559ZM157.534 194.415C155.588 194.415 154.328 193.379 154.244 191.699H155.616C155.7 192.735 156.372 193.295 157.52 193.295C158.794 193.295 159.466 192.609 159.466 191.335V189.991C159.046 190.887 158.206 191.405 157.198 191.405C155.35 191.405 154.034 189.879 154.034 187.695C154.034 185.483 155.294 183.999 157.156 183.999C158.22 183.999 159.06 184.517 159.564 185.455V184.139H160.88V191.307C160.88 193.253 159.634 194.415 157.534 194.415ZM155.462 187.695C155.462 189.235 156.218 190.173 157.45 190.173C158.654 190.173 159.466 189.207 159.466 187.737C159.466 186.197 158.668 185.217 157.45 185.217C156.232 185.217 155.462 186.169 155.462 187.695ZM163.971 187.373V191.559H162.557V184.139H163.873V185.371C164.377 184.545 165.217 183.999 166.239 183.999C167.765 183.999 168.773 184.979 168.773 186.757V191.559H167.359V187.233C167.359 185.959 166.799 185.245 165.749 185.245C164.783 185.245 163.971 186.057 163.971 187.373Z" fill="#1A1A1A"/>
<mask id="path-4-outside-1_1195_474" maskUnits="userSpaceOnUse" x="38" y="62" width="165" height="40" fill="black">
<rect fill="white" x="38" y="62" width="165" height="40"/>
<path d="M188.901 90.0002V87.6722H190.341V76.4882H188.901V74.1602H194.325V76.4882H192.885V87.6722H194.325V90.0002H188.901Z"/>
<path d="M172.044 90.0002L179.028 74.1602H180.876L187.596 90.0002H184.908L182.94 85.4642H176.796L174.756 90.0002H172.044ZM177.9 82.9922H181.86L179.964 78.2882L177.9 82.9922Z"/>
<path d="M150.166 90V77.832H152.686V79.896C153.286 78.576 154.582 77.64 156.286 77.592C159.718 77.448 161.542 79.872 161.542 83.736V90H159.022V83.736C159.022 80.952 157.942 79.92 155.878 79.92C154.102 79.92 152.662 81.168 152.662 83.856L152.686 90H150.166Z"/>
<path d="M142.734 90.3838C138.99 90.3358 136.566 87.6478 136.566 83.9998C136.566 80.3038 138.966 77.5918 142.734 77.5918C146.502 77.5918 148.878 80.3038 148.878 83.9998C148.878 87.6478 146.454 90.4078 142.734 90.3838ZM139.086 83.9998C139.086 86.3038 140.55 88.0558 142.71 88.0318C144.894 88.0318 146.358 86.3038 146.358 83.9998C146.358 81.6238 144.894 79.9438 142.71 79.9198C140.55 79.8958 139.086 81.5758 139.086 83.9998Z"/>
<path d="M115.209 89.9998V77.8318H117.729V79.6798C118.569 78.4078 119.721 77.6398 121.209 77.5918C123.297 77.5198 124.809 78.7918 125.481 80.4478C126.201 78.5998 128.001 77.5918 129.825 77.5918C132.897 77.5918 135.273 79.6078 135.273 83.6158V89.9998H132.753V83.8318C132.753 81.1198 131.937 79.9198 129.825 79.9198C127.761 79.9198 126.657 81.2638 126.657 83.8318L126.681 89.9998H124.137V83.8318C124.137 81.1918 123.369 79.9198 121.209 79.9198C119.121 79.9198 117.753 81.3598 117.753 83.6638V89.9998H115.209Z"/>
<path d="M106.239 90.2398C102.879 90.1678 100.719 87.5758 100.719 83.9758C100.719 80.2558 102.879 77.5918 106.239 77.5918C108.303 77.5918 109.671 78.4558 110.439 79.8478V77.8318H112.959V87.6718H113.919V89.9998H112.071C110.703 89.9998 110.439 89.6398 110.439 88.4398V87.8398C109.527 89.4238 108.303 90.2878 106.239 90.2398ZM103.239 83.9758C103.239 86.2318 104.631 87.9118 106.839 87.9118C109.023 87.9118 110.439 86.2318 110.439 83.9758C110.439 81.5758 108.975 79.9438 106.839 79.9198C104.679 79.8958 103.239 81.5758 103.239 83.9758Z"/>
<path d="M90.1196 90L94.4396 83.904L90.1916 77.832H92.9516L95.8556 82.368L98.9756 77.832H101.736L97.1276 83.904L101.64 90H98.8796L95.8556 85.344L92.8796 90H90.1196Z"/>
<path d="M79.16 90.0002C77.72 90.0002 77.528 89.5682 77.528 88.2482V75.8642C77.528 74.5442 77.72 74.1602 79.16 74.1602H88.856V76.4882H80.048V81.2402H87.704V83.5682H80.048V87.6722H88.832V90.0002H79.16Z"/>
<path d="M47.8388 71.0058C48.626 72.3023 49.662 73.3152 50.8601 74.166C52.1392 75.0689 53.5515 75.694 55.0216 76.2034C56.1619 76.5969 57.3079 76.9847 58.3729 77.5693C59.3279 78.096 60.1961 78.7327 60.9832 79.4793C62.465 80.8858 63.5705 82.547 64.3345 84.4338C64.7107 85.3657 65.0117 86.3265 65.2027 87.3162C65.3531 88.0918 65.4921 88.8674 65.602 89.643C65.6946 90.2681 65.7467 90.9048 65.8104 91.5356C65.8104 91.5704 65.8046 91.6051 65.793 91.6861C65.7236 91.6109 65.6831 91.5762 65.6483 91.5299C64.6644 90.2507 63.4547 89.261 61.9498 88.6648C61.3132 88.4102 60.6475 88.2307 59.9877 88.0513C58.9169 87.7677 57.8172 87.5709 56.7696 87.1889C55.0159 86.5406 53.4936 85.5509 52.1798 84.2313C50.3392 82.3849 49.0832 80.2028 48.3944 77.6909C48.1108 76.649 47.9025 75.5956 47.7867 74.5191C47.6825 73.5756 47.7173 72.6322 47.7346 71.683C47.7346 71.5093 47.7462 71.3357 47.7636 71.1621C47.7636 71.1158 47.8041 71.0695 47.833 71L47.8388 71.0058Z"/>
<path d="M47.0514 80.0117C47.0804 80.0812 47.1093 80.1448 47.1383 80.2143C47.4219 80.932 47.6708 81.6613 47.9833 82.3674C48.9036 84.4106 50.2059 86.1585 52.0291 87.4898C52.9841 88.1843 54.0317 88.6994 55.1604 89.0293C56.4742 89.4114 57.7939 89.7702 59.1078 90.1406C60.4274 90.5111 61.7297 90.9336 62.9857 91.4776C63.8191 91.8365 64.6295 92.2417 65.3587 92.7915C65.4224 92.8378 65.4745 92.8957 65.5382 92.9536C65.5324 92.9709 65.5208 92.9883 65.515 92.9999C65.324 92.9594 65.133 92.9246 64.942 92.8841C63.7497 92.6121 62.5458 92.5253 61.3245 92.5658C60.74 92.5831 60.1612 92.6121 59.5766 92.6237C58.9167 92.641 58.2569 92.67 57.5971 92.6468C55.4266 92.5774 53.5166 91.8481 51.8728 90.4127C50.7789 89.4577 49.957 88.2885 49.2798 87.0094C48.4984 85.5392 47.937 83.988 47.5261 82.379C47.3351 81.6381 47.1788 80.8915 47.0051 80.1448C46.9936 80.1043 47.0051 80.0638 47.0051 80.0233C47.0167 80.0233 47.0283 80.0175 47.0399 80.0117H47.0514Z"/>
<path d="M66.2732 84.295C66.2501 84.2429 66.2212 84.1966 66.198 84.1387C65.243 81.7714 63.6976 79.8614 61.6892 78.3045C60.0107 77.0022 58.2222 75.8793 56.3759 74.8317C55.2183 74.1719 54.0722 73.4947 52.9204 72.8233C52.8741 72.7943 52.8336 72.7654 52.8047 72.6959C52.8452 72.6959 52.8857 72.6901 52.9204 72.6959C54.599 73.1358 56.2717 73.6104 57.8518 74.3455C59.8023 75.2542 61.4866 76.516 62.8873 78.1598C64.398 79.9367 65.5208 81.9335 66.3022 84.1329C66.3196 84.1734 66.3253 84.2197 66.3369 84.266C66.3138 84.2718 66.2964 84.2834 66.2732 84.2892V84.295Z"/>
</mask>
<path d="M188.901 90.0002V87.6722H190.341V76.4882H188.901V74.1602H194.325V76.4882H192.885V87.6722H194.325V90.0002H188.901Z" fill="#1A1A1A"/>
<path d="M172.044 90.0002L179.028 74.1602H180.876L187.596 90.0002H184.908L182.94 85.4642H176.796L174.756 90.0002H172.044ZM177.9 82.9922H181.86L179.964 78.2882L177.9 82.9922Z" fill="#1A1A1A"/>
<path d="M150.166 90V77.832H152.686V79.896C153.286 78.576 154.582 77.64 156.286 77.592C159.718 77.448 161.542 79.872 161.542 83.736V90H159.022V83.736C159.022 80.952 157.942 79.92 155.878 79.92C154.102 79.92 152.662 81.168 152.662 83.856L152.686 90H150.166Z" fill="#1A1A1A"/>
<path d="M142.734 90.3838C138.99 90.3358 136.566 87.6478 136.566 83.9998C136.566 80.3038 138.966 77.5918 142.734 77.5918C146.502 77.5918 148.878 80.3038 148.878 83.9998C148.878 87.6478 146.454 90.4078 142.734 90.3838ZM139.086 83.9998C139.086 86.3038 140.55 88.0558 142.71 88.0318C144.894 88.0318 146.358 86.3038 146.358 83.9998C146.358 81.6238 144.894 79.9438 142.71 79.9198C140.55 79.8958 139.086 81.5758 139.086 83.9998Z" fill="#1A1A1A"/>
<path d="M115.209 89.9998V77.8318H117.729V79.6798C118.569 78.4078 119.721 77.6398 121.209 77.5918C123.297 77.5198 124.809 78.7918 125.481 80.4478C126.201 78.5998 128.001 77.5918 129.825 77.5918C132.897 77.5918 135.273 79.6078 135.273 83.6158V89.9998H132.753V83.8318C132.753 81.1198 131.937 79.9198 129.825 79.9198C127.761 79.9198 126.657 81.2638 126.657 83.8318L126.681 89.9998H124.137V83.8318C124.137 81.1918 123.369 79.9198 121.209 79.9198C119.121 79.9198 117.753 81.3598 117.753 83.6638V89.9998H115.209Z" fill="#1A1A1A"/>
<path d="M106.239 90.2398C102.879 90.1678 100.719 87.5758 100.719 83.9758C100.719 80.2558 102.879 77.5918 106.239 77.5918C108.303 77.5918 109.671 78.4558 110.439 79.8478V77.8318H112.959V87.6718H113.919V89.9998H112.071C110.703 89.9998 110.439 89.6398 110.439 88.4398V87.8398C109.527 89.4238 108.303 90.2878 106.239 90.2398ZM103.239 83.9758C103.239 86.2318 104.631 87.9118 106.839 87.9118C109.023 87.9118 110.439 86.2318 110.439 83.9758C110.439 81.5758 108.975 79.9438 106.839 79.9198C104.679 79.8958 103.239 81.5758 103.239 83.9758Z" fill="#1A1A1A"/>
<path d="M90.1196 90L94.4396 83.904L90.1916 77.832H92.9516L95.8556 82.368L98.9756 77.832H101.736L97.1276 83.904L101.64 90H98.8796L95.8556 85.344L92.8796 90H90.1196Z" fill="#1A1A1A"/>
<path d="M79.16 90.0002C77.72 90.0002 77.528 89.5682 77.528 88.2482V75.8642C77.528 74.5442 77.72 74.1602 79.16 74.1602H88.856V76.4882H80.048V81.2402H87.704V83.5682H80.048V87.6722H88.832V90.0002H79.16Z" fill="#1A1A1A"/>
<path d="M47.8388 71.0058C48.626 72.3023 49.662 73.3152 50.8601 74.166C52.1392 75.0689 53.5515 75.694 55.0216 76.2034C56.1619 76.5969 57.3079 76.9847 58.3729 77.5693C59.3279 78.096 60.1961 78.7327 60.9832 79.4793C62.465 80.8858 63.5705 82.547 64.3345 84.4338C64.7107 85.3657 65.0117 86.3265 65.2027 87.3162C65.3531 88.0918 65.4921 88.8674 65.602 89.643C65.6946 90.2681 65.7467 90.9048 65.8104 91.5356C65.8104 91.5704 65.8046 91.6051 65.793 91.6861C65.7236 91.6109 65.6831 91.5762 65.6483 91.5299C64.6644 90.2507 63.4547 89.261 61.9498 88.6648C61.3132 88.4102 60.6475 88.2307 59.9877 88.0513C58.9169 87.7677 57.8172 87.5709 56.7696 87.1889C55.0159 86.5406 53.4936 85.5509 52.1798 84.2313C50.3392 82.3849 49.0832 80.2028 48.3944 77.6909C48.1108 76.649 47.9025 75.5956 47.7867 74.5191C47.6825 73.5756 47.7173 72.6322 47.7346 71.683C47.7346 71.5093 47.7462 71.3357 47.7636 71.1621C47.7636 71.1158 47.8041 71.0695 47.833 71L47.8388 71.0058Z" fill="#1A1A1A"/>
<path d="M47.0514 80.0117C47.0804 80.0812 47.1093 80.1448 47.1383 80.2143C47.4219 80.932 47.6708 81.6613 47.9833 82.3674C48.9036 84.4106 50.2059 86.1585 52.0291 87.4898C52.9841 88.1843 54.0317 88.6994 55.1604 89.0293C56.4742 89.4114 57.7939 89.7702 59.1078 90.1406C60.4274 90.5111 61.7297 90.9336 62.9857 91.4776C63.8191 91.8365 64.6295 92.2417 65.3587 92.7915C65.4224 92.8378 65.4745 92.8957 65.5382 92.9536C65.5324 92.9709 65.5208 92.9883 65.515 92.9999C65.324 92.9594 65.133 92.9246 64.942 92.8841C63.7497 92.6121 62.5458 92.5253 61.3245 92.5658C60.74 92.5831 60.1612 92.6121 59.5766 92.6237C58.9167 92.641 58.2569 92.67 57.5971 92.6468C55.4266 92.5774 53.5166 91.8481 51.8728 90.4127C50.7789 89.4577 49.957 88.2885 49.2798 87.0094C48.4984 85.5392 47.937 83.988 47.5261 82.379C47.3351 81.6381 47.1788 80.8915 47.0051 80.1448C46.9936 80.1043 47.0051 80.0638 47.0051 80.0233C47.0167 80.0233 47.0283 80.0175 47.0399 80.0117H47.0514Z" fill="#1A1A1A"/>
<path d="M66.2732 84.295C66.2501 84.2429 66.2212 84.1966 66.198 84.1387C65.243 81.7714 63.6976 79.8614 61.6892 78.3045C60.0107 77.0022 58.2222 75.8793 56.3759 74.8317C55.2183 74.1719 54.0722 73.4947 52.9204 72.8233C52.8741 72.7943 52.8336 72.7654 52.8047 72.6959C52.8452 72.6959 52.8857 72.6901 52.9204 72.6959C54.599 73.1358 56.2717 73.6104 57.8518 74.3455C59.8023 75.2542 61.4866 76.516 62.8873 78.1598C64.398 79.9367 65.5208 81.9335 66.3022 84.1329C66.3196 84.1734 66.3253 84.2197 66.3369 84.266C66.3138 84.2718 66.2964 84.2834 66.2732 84.2892V84.295Z" fill="#1A1A1A"/>
<path d="M188.901 90.0002V87.6722H190.341V76.4882H188.901V74.1602H194.325V76.4882H192.885V87.6722H194.325V90.0002H188.901Z" stroke="#E6E2DE" stroke-width="16" stroke-linejoin="round" mask="url(#path-4-outside-1_1195_474)"/>
<path d="M172.044 90.0002L179.028 74.1602H180.876L187.596 90.0002H184.908L182.94 85.4642H176.796L174.756 90.0002H172.044ZM177.9 82.9922H181.86L179.964 78.2882L177.9 82.9922Z" stroke="#E6E2DE" stroke-width="16" stroke-linejoin="round" mask="url(#path-4-outside-1_1195_474)"/>
<path d="M150.166 90V77.832H152.686V79.896C153.286 78.576 154.582 77.64 156.286 77.592C159.718 77.448 161.542 79.872 161.542 83.736V90H159.022V83.736C159.022 80.952 157.942 79.92 155.878 79.92C154.102 79.92 152.662 81.168 152.662 83.856L152.686 90H150.166Z" stroke="#E6E2DE" stroke-width="16" stroke-linejoin="round" mask="url(#path-4-outside-1_1195_474)"/>
<path d="M142.734 90.3838C138.99 90.3358 136.566 87.6478 136.566 83.9998C136.566 80.3038 138.966 77.5918 142.734 77.5918C146.502 77.5918 148.878 80.3038 148.878 83.9998C148.878 87.6478 146.454 90.4078 142.734 90.3838ZM139.086 83.9998C139.086 86.3038 140.55 88.0558 142.71 88.0318C144.894 88.0318 146.358 86.3038 146.358 83.9998C146.358 81.6238 144.894 79.9438 142.71 79.9198C140.55 79.8958 139.086 81.5758 139.086 83.9998Z" stroke="#E6E2DE" stroke-width="16" stroke-linejoin="round" mask="url(#path-4-outside-1_1195_474)"/>
<path d="M115.209 89.9998V77.8318H117.729V79.6798C118.569 78.4078 119.721 77.6398 121.209 77.5918C123.297 77.5198 124.809 78.7918 125.481 80.4478C126.201 78.5998 128.001 77.5918 129.825 77.5918C132.897 77.5918 135.273 79.6078 135.273 83.6158V89.9998H132.753V83.8318C132.753 81.1198 131.937 79.9198 129.825 79.9198C127.761 79.9198 126.657 81.2638 126.657 83.8318L126.681 89.9998H124.137V83.8318C124.137 81.1918 123.369 79.9198 121.209 79.9198C119.121 79.9198 117.753 81.3598 117.753 83.6638V89.9998H115.209Z" stroke="#E6E2DE" stroke-width="16" stroke-linejoin="round" mask="url(#path-4-outside-1_1195_474)"/>
<path d="M106.239 90.2398C102.879 90.1678 100.719 87.5758 100.719 83.9758C100.719 80.2558 102.879 77.5918 106.239 77.5918C108.303 77.5918 109.671 78.4558 110.439 79.8478V77.8318H112.959V87.6718H113.919V89.9998H112.071C110.703 89.9998 110.439 89.6398 110.439 88.4398V87.8398C109.527 89.4238 108.303 90.2878 106.239 90.2398ZM103.239 83.9758C103.239 86.2318 104.631 87.9118 106.839 87.9118C109.023 87.9118 110.439 86.2318 110.439 83.9758C110.439 81.5758 108.975 79.9438 106.839 79.9198C104.679 79.8958 103.239 81.5758 103.239 83.9758Z" stroke="#E6E2DE" stroke-width="16" stroke-linejoin="round" mask="url(#path-4-outside-1_1195_474)"/>
<path d="M90.1196 90L94.4396 83.904L90.1916 77.832H92.9516L95.8556 82.368L98.9756 77.832H101.736L97.1276 83.904L101.64 90H98.8796L95.8556 85.344L92.8796 90H90.1196Z" stroke="#E6E2DE" stroke-width="16" stroke-linejoin="round" mask="url(#path-4-outside-1_1195_474)"/>
<path d="M79.16 90.0002C77.72 90.0002 77.528 89.5682 77.528 88.2482V75.8642C77.528 74.5442 77.72 74.1602 79.16 74.1602H88.856V76.4882H80.048V81.2402H87.704V83.5682H80.048V87.6722H88.832V90.0002H79.16Z" stroke="#E6E2DE" stroke-width="16" stroke-linejoin="round" mask="url(#path-4-outside-1_1195_474)"/>
<path d="M47.8388 71.0058C48.626 72.3023 49.662 73.3152 50.8601 74.166C52.1392 75.0689 53.5515 75.694 55.0216 76.2034C56.1619 76.5969 57.3079 76.9847 58.3729 77.5693C59.3279 78.096 60.1961 78.7327 60.9832 79.4793C62.465 80.8858 63.5705 82.547 64.3345 84.4338C64.7107 85.3657 65.0117 86.3265 65.2027 87.3162C65.3531 88.0918 65.4921 88.8674 65.602 89.643C65.6946 90.2681 65.7467 90.9048 65.8104 91.5356C65.8104 91.5704 65.8046 91.6051 65.793 91.6861C65.7236 91.6109 65.6831 91.5762 65.6483 91.5299C64.6644 90.2507 63.4547 89.261 61.9498 88.6648C61.3132 88.4102 60.6475 88.2307 59.9877 88.0513C58.9169 87.7677 57.8172 87.5709 56.7696 87.1889C55.0159 86.5406 53.4936 85.5509 52.1798 84.2313C50.3392 82.3849 49.0832 80.2028 48.3944 77.6909C48.1108 76.649 47.9025 75.5956 47.7867 74.5191C47.6825 73.5756 47.7173 72.6322 47.7346 71.683C47.7346 71.5093 47.7462 71.3357 47.7636 71.1621C47.7636 71.1158 47.8041 71.0695 47.833 71L47.8388 71.0058Z" stroke="#E6E2DE" stroke-width="16" stroke-linejoin="round" mask="url(#path-4-outside-1_1195_474)"/>
<path d="M47.0514 80.0117C47.0804 80.0812 47.1093 80.1448 47.1383 80.2143C47.4219 80.932 47.6708 81.6613 47.9833 82.3674C48.9036 84.4106 50.2059 86.1585 52.0291 87.4898C52.9841 88.1843 54.0317 88.6994 55.1604 89.0293C56.4742 89.4114 57.7939 89.7702 59.1078 90.1406C60.4274 90.5111 61.7297 90.9336 62.9857 91.4776C63.8191 91.8365 64.6295 92.2417 65.3587 92.7915C65.4224 92.8378 65.4745 92.8957 65.5382 92.9536C65.5324 92.9709 65.5208 92.9883 65.515 92.9999C65.324 92.9594 65.133 92.9246 64.942 92.8841C63.7497 92.6121 62.5458 92.5253 61.3245 92.5658C60.74 92.5831 60.1612 92.6121 59.5766 92.6237C58.9167 92.641 58.2569 92.67 57.5971 92.6468C55.4266 92.5774 53.5166 91.8481 51.8728 90.4127C50.7789 89.4577 49.957 88.2885 49.2798 87.0094C48.4984 85.5392 47.937 83.988 47.5261 82.379C47.3351 81.6381 47.1788 80.8915 47.0051 80.1448C46.9936 80.1043 47.0051 80.0638 47.0051 80.0233C47.0167 80.0233 47.0283 80.0175 47.0399 80.0117H47.0514Z" stroke="#E6E2DE" stroke-width="16" stroke-linejoin="round" mask="url(#path-4-outside-1_1195_474)"/>
<path d="M66.2732 84.295C66.2501 84.2429 66.2212 84.1966 66.198 84.1387C65.243 81.7714 63.6976 79.8614 61.6892 78.3045C60.0107 77.0022 58.2222 75.8793 56.3759 74.8317C55.2183 74.1719 54.0722 73.4947 52.9204 72.8233C52.8741 72.7943 52.8336 72.7654 52.8047 72.6959C52.8452 72.6959 52.8857 72.6901 52.9204 72.6959C54.599 73.1358 56.2717 73.6104 57.8518 74.3455C59.8023 75.2542 61.4866 76.516 62.8873 78.1598C64.398 79.9367 65.5208 81.9335 66.3022 84.1329C66.3196 84.1734 66.3253 84.2197 66.3369 84.266C66.3138 84.2718 66.2964 84.2834 66.2732 84.2892V84.295Z" stroke="#E6E2DE" stroke-width="16" stroke-linejoin="round" mask="url(#path-4-outside-1_1195_474)"/>
</svg>
