<svg width="242" height="177" viewBox="0 0 242 177" fill="none" xmlns="http://www.w3.org/2000/svg">
<rect y="17" width="242" height="160" rx="12" fill="#E6E2DE"/>
<path d="M90.4817 89.4476V91.5596H82.7537V80.0716H90.3697V82.1836H85.1857V84.5996H89.8897V86.6956H85.1857V89.4476H90.4817ZM93.6911 91.5596H91.2111L94.0911 87.2076L91.4031 83.0156H93.9631L95.7071 85.9596L97.4671 83.0156H99.8031L97.1471 87.2876L100.011 91.5596H97.4831L95.5631 88.4876L93.6911 91.5596ZM106.111 91.5596V90.5036C105.551 91.3036 104.703 91.7196 103.535 91.7196C101.759 91.7196 100.575 90.6796 100.575 89.0796C100.575 87.4156 101.919 86.5196 104.415 86.5196C104.895 86.5196 105.311 86.5516 105.839 86.6156V86.1036C105.839 85.1436 105.295 84.5836 104.367 84.5836C103.407 84.5836 102.831 85.1436 102.751 86.1036H100.751C100.879 84.1356 102.303 82.8556 104.367 82.8556C106.607 82.8556 107.919 84.0876 107.919 86.1836V91.5596H106.111ZM102.671 89.0156C102.671 89.7356 103.183 90.1836 104.015 90.1836C105.151 90.1836 105.839 89.5596 105.839 88.5676V87.9596C105.311 87.8796 104.943 87.8476 104.559 87.8476C103.295 87.8476 102.671 88.2476 102.671 89.0156ZM111.899 91.5596H109.675V83.0156H111.723V84.2316C112.347 83.3676 113.147 82.8556 114.283 82.8556C115.451 82.8556 116.347 83.3996 116.779 84.3756C117.451 83.4316 118.315 82.8556 119.595 82.8556C121.323 82.8556 122.491 83.9916 122.491 86.0396V91.5596H120.283V86.7436C120.283 85.5436 119.771 84.8236 118.795 84.8236C117.915 84.8236 117.195 85.5116 117.195 86.7916V91.5596H114.987V86.7436C114.987 85.5436 114.475 84.8236 113.499 84.8236C112.603 84.8236 111.899 85.5116 111.899 86.7916V91.5596ZM128.01 91.7196C125.53 91.7196 123.674 89.7676 123.674 87.2876C123.674 84.7916 125.53 82.8556 128.01 82.8556C130.49 82.8556 132.346 84.7916 132.346 87.2876C132.346 89.7676 130.49 91.7196 128.01 91.7196ZM128.01 89.7516C129.114 89.7516 130.058 88.8716 130.058 87.2876C130.058 85.7036 129.114 84.8396 128.01 84.8396C126.906 84.8396 125.962 85.7036 125.962 87.2876C125.962 88.8716 126.906 89.7516 128.01 89.7516ZM135.829 86.9036V91.5596H133.605V83.0156H135.653V84.2316C136.277 83.3836 137.157 82.8556 138.277 82.8556C139.989 82.8556 141.173 83.9756 141.173 86.0396V91.5596H138.965V86.7916C138.965 85.5276 138.469 84.8236 137.461 84.8236C136.581 84.8236 135.829 85.5276 135.829 86.9036ZM153.986 91.5596L153.122 89.0956H148.658L147.778 91.5596H145.33L149.65 80.0716H152.306L156.594 91.5596H153.986ZM150.914 82.7276L149.346 87.1596H152.45L150.914 82.7276ZM160.265 91.5596H157.833V80.0716H160.265V91.5596Z" fill="#1A1A1A"/>
<path d="M79.8399 111.56L77.7119 103.678L75.5699 111.56H73.9879L71.3699 101.508H72.8819L74.8139 109.25L76.9279 101.508H78.5239L80.6099 109.264L82.5419 101.508H84.0539L81.4359 111.56H79.8399ZM87.461 111.7C85.319 111.7 83.877 110.146 83.877 107.808C83.877 105.61 85.375 104 87.419 104C89.631 104 91.101 105.792 90.849 108.2H85.319C85.431 109.712 86.187 110.594 87.433 110.594C88.483 110.594 89.211 110.02 89.449 109.054H90.849C90.485 110.706 89.211 111.7 87.461 111.7ZM87.391 105.064C86.257 105.064 85.487 105.876 85.333 107.262H89.351C89.281 105.89 88.539 105.064 87.391 105.064ZM99.1564 107.85C99.1564 110.076 97.8684 111.7 95.8664 111.7C94.8164 111.7 93.9204 111.168 93.3884 110.23V111.56H92.0724V101.508H93.4864V105.414C94.0044 104.504 94.8584 104 95.8664 104C97.8544 104 99.1564 105.596 99.1564 107.85ZM97.6864 107.85C97.6864 106.17 96.8044 105.246 95.5864 105.246C94.4104 105.246 93.4864 106.156 93.4864 107.822C93.4864 109.46 94.3824 110.44 95.5864 110.44C96.8044 110.44 97.6864 109.502 97.6864 107.85ZM106.19 109.348C106.19 110.804 105.056 111.7 103.082 111.7C101.122 111.7 99.96 110.734 99.82 109.138H101.178C101.234 110.062 101.976 110.636 103.11 110.636C104.104 110.636 104.762 110.286 104.762 109.586C104.762 108.97 104.384 108.704 103.46 108.522L102.256 108.298C100.884 108.032 100.114 107.332 100.114 106.212C100.114 104.91 101.248 104 102.97 104C104.748 104 105.952 104.952 106.078 106.478H104.72C104.636 105.582 103.978 105.064 102.984 105.064C102.088 105.064 101.486 105.442 101.486 106.086C101.486 106.688 101.864 106.968 102.76 107.136L104.02 107.374C105.49 107.64 106.19 108.284 106.19 109.348ZM109.176 102.418C109.176 102.95 108.756 103.356 108.154 103.356C107.552 103.356 107.118 102.95 107.118 102.418C107.118 101.872 107.552 101.48 108.154 101.48C108.756 101.48 109.176 101.872 109.176 102.418ZM108.868 111.56H107.454V104.14H108.868V111.56ZM114.737 110.188V111.434C114.303 111.63 113.925 111.7 113.477 111.7C112.105 111.7 111.153 110.958 111.153 109.32V105.344H109.515V104.14H111.153V101.942H112.567V104.14H114.807V105.344H112.567V108.998C112.567 110.02 113.057 110.384 113.813 110.384C114.149 110.384 114.443 110.328 114.737 110.188ZM118.723 111.7C116.581 111.7 115.139 110.146 115.139 107.808C115.139 105.61 116.637 104 118.681 104C120.893 104 122.363 105.792 122.111 108.2H116.581C116.693 109.712 117.449 110.594 118.695 110.594C119.745 110.594 120.473 110.02 120.711 109.054H122.111C121.747 110.706 120.473 111.7 118.723 111.7ZM118.653 105.064C117.519 105.064 116.749 105.876 116.595 107.262H120.613C120.543 105.89 119.801 105.064 118.653 105.064ZM129.27 111.56H126.092V101.508H129.27C132.476 101.508 134.324 103.552 134.324 106.492C134.324 109.39 132.406 111.56 129.27 111.56ZM127.632 102.838V110.23H129.2C131.51 110.23 132.756 108.802 132.756 106.492C132.756 104.224 131.524 102.838 129.2 102.838H127.632ZM138.596 111.7C136.454 111.7 135.012 110.146 135.012 107.808C135.012 105.61 136.51 104 138.554 104C140.766 104 142.236 105.792 141.984 108.2H136.454C136.566 109.712 137.322 110.594 138.568 110.594C139.618 110.594 140.346 110.02 140.584 109.054H141.984C141.62 110.706 140.346 111.7 138.596 111.7ZM138.526 105.064C137.392 105.064 136.622 105.876 136.468 107.262H140.486C140.416 105.89 139.674 105.064 138.526 105.064ZM149.087 109.348C149.087 110.804 147.953 111.7 145.979 111.7C144.019 111.7 142.857 110.734 142.717 109.138H144.075C144.131 110.062 144.873 110.636 146.007 110.636C147.001 110.636 147.659 110.286 147.659 109.586C147.659 108.97 147.281 108.704 146.357 108.522L145.153 108.298C143.781 108.032 143.011 107.332 143.011 106.212C143.011 104.91 144.145 104 145.867 104C147.645 104 148.849 104.952 148.975 106.478H147.617C147.533 105.582 146.875 105.064 145.881 105.064C144.985 105.064 144.383 105.442 144.383 106.086C144.383 106.688 144.761 106.968 145.657 107.136L146.917 107.374C148.387 107.64 149.087 108.284 149.087 109.348ZM152.073 102.418C152.073 102.95 151.653 103.356 151.051 103.356C150.449 103.356 150.015 102.95 150.015 102.418C150.015 101.872 150.449 101.48 151.051 101.48C151.653 101.48 152.073 101.872 152.073 102.418ZM151.765 111.56H150.351V104.14H151.765V111.56ZM156.416 114.416C154.47 114.416 153.21 113.38 153.126 111.7H154.498C154.582 112.736 155.254 113.296 156.402 113.296C157.676 113.296 158.348 112.61 158.348 111.336V109.992C157.928 110.888 157.088 111.406 156.08 111.406C154.232 111.406 152.916 109.88 152.916 107.696C152.916 105.484 154.176 104 156.038 104C157.102 104 157.942 104.518 158.446 105.456V104.14H159.762V111.308C159.762 113.254 158.516 114.416 156.416 114.416ZM154.344 107.696C154.344 109.236 155.1 110.174 156.332 110.174C157.536 110.174 158.348 109.208 158.348 107.738C158.348 106.198 157.55 105.218 156.332 105.218C155.114 105.218 154.344 106.17 154.344 107.696ZM162.854 107.374V111.56H161.44V104.14H162.756V105.372C163.26 104.546 164.1 104 165.122 104C166.648 104 167.656 104.98 167.656 106.758V111.56H166.242V107.234C166.242 105.96 165.682 105.246 164.632 105.246C163.666 105.246 162.854 106.058 162.854 107.374ZM171.171 110.958C171.171 112.288 170.121 113.324 168.581 113.352V112.554C169.491 112.526 170.107 112.036 170.191 111.35C170.065 111.392 169.981 111.406 169.883 111.406C169.351 111.406 168.959 110.972 168.959 110.454C168.959 109.852 169.407 109.46 169.981 109.46C170.751 109.46 171.171 110.02 171.171 110.958ZM77.9068 125.06H75.9608V128.56H74.4208V118.508H77.9068C80.1608 118.508 81.6168 119.656 81.6168 121.756C81.6168 123.87 80.1608 125.06 77.9068 125.06ZM77.8928 119.81H75.9608V123.758H77.8928C79.2508 123.758 80.0768 123.016 80.0768 121.77C80.0768 120.524 79.2508 119.81 77.8928 119.81ZM84.1791 124.766V128.56H82.7651V121.14H84.0811V122.708C84.5991 121.686 85.7191 121.042 86.9371 121.042V122.512C85.3411 122.428 84.1791 123.128 84.1791 124.766ZM90.8568 128.7C88.7568 128.7 87.2168 127.048 87.2168 124.85C87.2168 122.652 88.7568 121 90.8568 121C92.9568 121 94.4968 122.652 94.4968 124.85C94.4968 127.048 92.9568 128.7 90.8568 128.7ZM90.8568 127.454C92.0748 127.454 93.0408 126.474 93.0408 124.85C93.0408 123.226 92.0748 122.26 90.8568 122.26C89.6388 122.26 88.6868 123.226 88.6868 124.85C88.6868 126.474 89.6388 127.454 90.8568 127.454ZM95.1262 124.85C95.1262 122.596 96.4142 121 98.4162 121C99.4102 121 100.278 121.504 100.796 122.414V118.508H102.21V128.56H100.894V127.23C100.362 128.168 99.4662 128.7 98.4162 128.7C96.4142 128.7 95.1262 127.076 95.1262 124.85ZM96.5962 124.85C96.5962 126.502 97.4642 127.44 98.6962 127.44C99.9002 127.44 100.796 126.46 100.796 124.822C100.796 123.156 99.8722 122.246 98.6962 122.246C97.4642 122.246 96.5962 123.17 96.5962 124.85ZM108.53 125.508V121.14H109.944V128.56H108.628V127.384C108.236 128.154 107.368 128.7 106.36 128.7C104.862 128.7 103.826 127.818 103.826 125.914V121.14H105.24V125.634C105.24 126.922 105.884 127.454 106.808 127.454C107.76 127.454 108.53 126.67 108.53 125.508ZM114.554 128.714C112.524 128.714 111.096 127.118 111.096 124.85C111.096 122.61 112.552 121 114.554 121C116.388 121 117.718 122.218 117.984 124.15H116.5C116.346 122.96 115.604 122.246 114.568 122.246C113.35 122.246 112.552 123.282 112.552 124.85C112.552 126.432 113.35 127.454 114.568 127.454C115.618 127.454 116.346 126.754 116.514 125.55H117.984C117.732 127.51 116.416 128.714 114.554 128.714ZM123.313 127.188V128.434C122.879 128.63 122.501 128.7 122.053 128.7C120.681 128.7 119.729 127.958 119.729 126.32V122.344H118.091V121.14H119.729V118.942H121.143V121.14H123.383V122.344H121.143V125.998C121.143 127.02 121.633 127.384 122.389 127.384C122.725 127.384 123.019 127.328 123.313 127.188ZM130.388 128.56H127.21V118.508H130.388C133.594 118.508 135.442 120.552 135.442 123.492C135.442 126.39 133.524 128.56 130.388 128.56ZM128.75 119.838V127.23H130.318C132.628 127.23 133.874 125.802 133.874 123.492C133.874 121.224 132.642 119.838 130.318 119.838H128.75ZM139.714 128.7C137.572 128.7 136.13 127.146 136.13 124.808C136.13 122.61 137.628 121 139.672 121C141.884 121 143.354 122.792 143.102 125.2H137.572C137.684 126.712 138.44 127.594 139.686 127.594C140.736 127.594 141.464 127.02 141.702 126.054H143.102C142.738 127.706 141.464 128.7 139.714 128.7ZM139.644 122.064C138.51 122.064 137.74 122.876 137.586 124.262H141.604C141.534 122.89 140.792 122.064 139.644 122.064ZM150.205 126.348C150.205 127.804 149.071 128.7 147.097 128.7C145.137 128.7 143.975 127.734 143.835 126.138H145.193C145.249 127.062 145.991 127.636 147.125 127.636C148.119 127.636 148.777 127.286 148.777 126.586C148.777 125.97 148.399 125.704 147.475 125.522L146.271 125.298C144.899 125.032 144.129 124.332 144.129 123.212C144.129 121.91 145.263 121 146.985 121C148.763 121 149.967 121.952 150.093 123.478H148.735C148.651 122.582 147.993 122.064 146.999 122.064C146.103 122.064 145.501 122.442 145.501 123.086C145.501 123.688 145.879 123.968 146.775 124.136L148.035 124.374C149.505 124.64 150.205 125.284 150.205 126.348ZM153.191 119.418C153.191 119.95 152.771 120.356 152.169 120.356C151.567 120.356 151.133 119.95 151.133 119.418C151.133 118.872 151.567 118.48 152.169 118.48C152.771 118.48 153.191 118.872 153.191 119.418ZM152.883 128.56H151.469V121.14H152.883V128.56ZM157.534 131.416C155.588 131.416 154.328 130.38 154.244 128.7H155.616C155.7 129.736 156.372 130.296 157.52 130.296C158.794 130.296 159.466 129.61 159.466 128.336V126.992C159.046 127.888 158.206 128.406 157.198 128.406C155.35 128.406 154.034 126.88 154.034 124.696C154.034 122.484 155.294 121 157.156 121C158.22 121 159.06 121.518 159.564 122.456V121.14H160.88V128.308C160.88 130.254 159.634 131.416 157.534 131.416ZM155.462 124.696C155.462 126.236 156.218 127.174 157.45 127.174C158.654 127.174 159.466 126.208 159.466 124.738C159.466 123.198 158.668 122.218 157.45 122.218C156.232 122.218 155.462 123.17 155.462 124.696ZM163.971 124.374V128.56H162.557V121.14H163.873V122.372C164.377 121.546 165.217 121 166.239 121C167.765 121 168.773 121.98 168.773 123.758V128.56H167.359V124.234C167.359 122.96 166.799 122.246 165.749 122.246C164.783 122.246 163.971 123.058 163.971 124.374Z" fill="#1A1A1A"/>
<mask id="path-4-outside-1_1173_17" maskUnits="userSpaceOnUse" x="38" y="-1" width="165" height="40" fill="black">
<rect fill="white" x="38" y="-1" width="165" height="40"/>
<path d="M188.901 27.0002V24.6722H190.341V13.4882H188.901V11.1602H194.325V13.4882H192.885V24.6722H194.325V27.0002H188.901Z"/>
<path d="M172.044 27.0002L179.028 11.1602H180.876L187.596 27.0002H184.908L182.94 22.4642H176.796L174.756 27.0002H172.044ZM177.9 19.9922H181.86L179.964 15.2882L177.9 19.9922Z"/>
<path d="M150.166 27V14.832H152.686V16.896C153.286 15.576 154.582 14.64 156.286 14.592C159.718 14.448 161.542 16.872 161.542 20.736V27H159.022V20.736C159.022 17.952 157.942 16.92 155.878 16.92C154.102 16.92 152.662 18.168 152.662 20.856L152.686 27H150.166Z"/>
<path d="M142.734 27.3838C138.99 27.3358 136.566 24.6478 136.566 20.9998C136.566 17.3038 138.966 14.5918 142.734 14.5918C146.502 14.5918 148.878 17.3038 148.878 20.9998C148.878 24.6478 146.454 27.4078 142.734 27.3838ZM139.086 20.9998C139.086 23.3038 140.55 25.0558 142.71 25.0318C144.894 25.0318 146.358 23.3038 146.358 20.9998C146.358 18.6238 144.894 16.9438 142.71 16.9198C140.55 16.8958 139.086 18.5758 139.086 20.9998Z"/>
<path d="M115.209 26.9998V14.8318H117.729V16.6798C118.569 15.4078 119.721 14.6398 121.209 14.5918C123.297 14.5198 124.809 15.7918 125.481 17.4478C126.201 15.5998 128.001 14.5918 129.825 14.5918C132.897 14.5918 135.273 16.6078 135.273 20.6158V26.9998H132.753V20.8318C132.753 18.1198 131.937 16.9198 129.825 16.9198C127.761 16.9198 126.657 18.2638 126.657 20.8318L126.681 26.9998H124.137V20.8318C124.137 18.1918 123.369 16.9198 121.209 16.9198C119.121 16.9198 117.753 18.3598 117.753 20.6638V26.9998H115.209Z"/>
<path d="M106.239 27.2398C102.879 27.1678 100.719 24.5758 100.719 20.9758C100.719 17.2558 102.879 14.5918 106.239 14.5918C108.303 14.5918 109.671 15.4558 110.439 16.8478V14.8318H112.959V24.6718H113.919V26.9998H112.071C110.703 26.9998 110.439 26.6398 110.439 25.4398V24.8398C109.527 26.4238 108.303 27.2878 106.239 27.2398ZM103.239 20.9758C103.239 23.2318 104.631 24.9118 106.839 24.9118C109.023 24.9118 110.439 23.2318 110.439 20.9758C110.439 18.5758 108.975 16.9438 106.839 16.9198C104.679 16.8958 103.239 18.5758 103.239 20.9758Z"/>
<path d="M90.1196 27L94.4396 20.904L90.1916 14.832H92.9516L95.8556 19.368L98.9756 14.832H101.736L97.1276 20.904L101.64 27H98.8796L95.8556 22.344L92.8796 27H90.1196Z"/>
<path d="M79.16 27.0002C77.72 27.0002 77.528 26.5682 77.528 25.2482V12.8642C77.528 11.5442 77.72 11.1602 79.16 11.1602H88.856V13.4882H80.048V18.2402H87.704V20.5682H80.048V24.6722H88.832V27.0002H79.16Z"/>
<path d="M47.8388 8.00579C48.626 9.30229 49.662 10.3152 50.8601 11.166C52.1392 12.0689 53.5515 12.694 55.0216 13.2034C56.1619 13.5969 57.3079 13.9847 58.3729 14.5693C59.3279 15.096 60.1961 15.7327 60.9832 16.4793C62.465 17.8858 63.5705 19.547 64.3345 21.4338C64.7107 22.3657 65.0117 23.3265 65.2027 24.3162C65.3531 25.0918 65.4921 25.8674 65.602 26.643C65.6946 27.2681 65.7467 27.9048 65.8104 28.5356C65.8104 28.5704 65.8046 28.6051 65.793 28.6861C65.7236 28.6109 65.6831 28.5762 65.6483 28.5299C64.6644 27.2507 63.4547 26.261 61.9498 25.6648C61.3132 25.4102 60.6475 25.2307 59.9877 25.0513C58.9169 24.7677 57.8172 24.5709 56.7696 24.1889C55.0159 23.5406 53.4936 22.5509 52.1798 21.2313C50.3392 19.3849 49.0832 17.2028 48.3944 14.6909C48.1108 13.649 47.9025 12.5956 47.7867 11.5191C47.6825 10.5756 47.7173 9.6322 47.7346 8.68298C47.7346 8.50934 47.7462 8.3357 47.7636 8.16206C47.7636 8.11576 47.8041 8.06946 47.833 8L47.8388 8.00579Z"/>
<path d="M47.0514 17.0117C47.0804 17.0812 47.1093 17.1448 47.1383 17.2143C47.4219 17.932 47.6708 18.6613 47.9833 19.3674C48.9036 21.4106 50.2059 23.1585 52.0291 24.4898C52.9841 25.1843 54.0317 25.6994 55.1604 26.0293C56.4742 26.4114 57.7939 26.7702 59.1078 27.1406C60.4274 27.5111 61.7297 27.9336 62.9857 28.4776C63.8191 28.8365 64.6295 29.2417 65.3587 29.7915C65.4224 29.8378 65.4745 29.8957 65.5382 29.9536C65.5324 29.9709 65.5208 29.9883 65.515 29.9999C65.324 29.9594 65.133 29.9246 64.942 29.8841C63.7497 29.6121 62.5458 29.5253 61.3245 29.5658C60.74 29.5831 60.1612 29.6121 59.5766 29.6237C58.9167 29.641 58.2569 29.67 57.5971 29.6468C55.4266 29.5774 53.5166 28.8481 51.8728 27.4127C50.7789 26.4577 49.957 25.2885 49.2798 24.0094C48.4984 22.5392 47.937 20.988 47.5261 19.379C47.3351 18.6381 47.1788 17.8915 47.0051 17.1448C46.9936 17.1043 47.0051 17.0638 47.0051 17.0233C47.0167 17.0233 47.0283 17.0175 47.0399 17.0117H47.0514Z"/>
<path d="M66.2732 21.295C66.2501 21.2429 66.2212 21.1966 66.198 21.1387C65.243 18.7714 63.6976 16.8614 61.6892 15.3045C60.0107 14.0022 58.2222 12.8793 56.3759 11.8317C55.2183 11.1719 54.0722 10.4947 52.9204 9.82327C52.8741 9.79433 52.8336 9.76539 52.8047 9.69593C52.8452 9.69593 52.8857 9.69014 52.9204 9.69593C54.599 10.1358 56.2717 10.6104 57.8518 11.3455C59.8023 12.2542 61.4866 13.516 62.8873 15.1598C64.398 16.9367 65.5208 18.9335 66.3022 21.1329C66.3196 21.1734 66.3253 21.2197 66.3369 21.266C66.3138 21.2718 66.2964 21.2834 66.2732 21.2892V21.295Z"/>
</mask>
<path d="M188.901 27.0002V24.6722H190.341V13.4882H188.901V11.1602H194.325V13.4882H192.885V24.6722H194.325V27.0002H188.901Z" fill="#1A1A1A"/>
<path d="M172.044 27.0002L179.028 11.1602H180.876L187.596 27.0002H184.908L182.94 22.4642H176.796L174.756 27.0002H172.044ZM177.9 19.9922H181.86L179.964 15.2882L177.9 19.9922Z" fill="#1A1A1A"/>
<path d="M150.166 27V14.832H152.686V16.896C153.286 15.576 154.582 14.64 156.286 14.592C159.718 14.448 161.542 16.872 161.542 20.736V27H159.022V20.736C159.022 17.952 157.942 16.92 155.878 16.92C154.102 16.92 152.662 18.168 152.662 20.856L152.686 27H150.166Z" fill="#1A1A1A"/>
<path d="M142.734 27.3838C138.99 27.3358 136.566 24.6478 136.566 20.9998C136.566 17.3038 138.966 14.5918 142.734 14.5918C146.502 14.5918 148.878 17.3038 148.878 20.9998C148.878 24.6478 146.454 27.4078 142.734 27.3838ZM139.086 20.9998C139.086 23.3038 140.55 25.0558 142.71 25.0318C144.894 25.0318 146.358 23.3038 146.358 20.9998C146.358 18.6238 144.894 16.9438 142.71 16.9198C140.55 16.8958 139.086 18.5758 139.086 20.9998Z" fill="#1A1A1A"/>
<path d="M115.209 26.9998V14.8318H117.729V16.6798C118.569 15.4078 119.721 14.6398 121.209 14.5918C123.297 14.5198 124.809 15.7918 125.481 17.4478C126.201 15.5998 128.001 14.5918 129.825 14.5918C132.897 14.5918 135.273 16.6078 135.273 20.6158V26.9998H132.753V20.8318C132.753 18.1198 131.937 16.9198 129.825 16.9198C127.761 16.9198 126.657 18.2638 126.657 20.8318L126.681 26.9998H124.137V20.8318C124.137 18.1918 123.369 16.9198 121.209 16.9198C119.121 16.9198 117.753 18.3598 117.753 20.6638V26.9998H115.209Z" fill="#1A1A1A"/>
<path d="M106.239 27.2398C102.879 27.1678 100.719 24.5758 100.719 20.9758C100.719 17.2558 102.879 14.5918 106.239 14.5918C108.303 14.5918 109.671 15.4558 110.439 16.8478V14.8318H112.959V24.6718H113.919V26.9998H112.071C110.703 26.9998 110.439 26.6398 110.439 25.4398V24.8398C109.527 26.4238 108.303 27.2878 106.239 27.2398ZM103.239 20.9758C103.239 23.2318 104.631 24.9118 106.839 24.9118C109.023 24.9118 110.439 23.2318 110.439 20.9758C110.439 18.5758 108.975 16.9438 106.839 16.9198C104.679 16.8958 103.239 18.5758 103.239 20.9758Z" fill="#1A1A1A"/>
<path d="M90.1196 27L94.4396 20.904L90.1916 14.832H92.9516L95.8556 19.368L98.9756 14.832H101.736L97.1276 20.904L101.64 27H98.8796L95.8556 22.344L92.8796 27H90.1196Z" fill="#1A1A1A"/>
<path d="M79.16 27.0002C77.72 27.0002 77.528 26.5682 77.528 25.2482V12.8642C77.528 11.5442 77.72 11.1602 79.16 11.1602H88.856V13.4882H80.048V18.2402H87.704V20.5682H80.048V24.6722H88.832V27.0002H79.16Z" fill="#1A1A1A"/>
<path d="M47.8388 8.00579C48.626 9.30229 49.662 10.3152 50.8601 11.166C52.1392 12.0689 53.5515 12.694 55.0216 13.2034C56.1619 13.5969 57.3079 13.9847 58.3729 14.5693C59.3279 15.096 60.1961 15.7327 60.9832 16.4793C62.465 17.8858 63.5705 19.547 64.3345 21.4338C64.7107 22.3657 65.0117 23.3265 65.2027 24.3162C65.3531 25.0918 65.4921 25.8674 65.602 26.643C65.6946 27.2681 65.7467 27.9048 65.8104 28.5356C65.8104 28.5704 65.8046 28.6051 65.793 28.6861C65.7236 28.6109 65.6831 28.5762 65.6483 28.5299C64.6644 27.2507 63.4547 26.261 61.9498 25.6648C61.3132 25.4102 60.6475 25.2307 59.9877 25.0513C58.9169 24.7677 57.8172 24.5709 56.7696 24.1889C55.0159 23.5406 53.4936 22.5509 52.1798 21.2313C50.3392 19.3849 49.0832 17.2028 48.3944 14.6909C48.1108 13.649 47.9025 12.5956 47.7867 11.5191C47.6825 10.5756 47.7173 9.6322 47.7346 8.68298C47.7346 8.50934 47.7462 8.3357 47.7636 8.16206C47.7636 8.11576 47.8041 8.06946 47.833 8L47.8388 8.00579Z" fill="#1A1A1A"/>
<path d="M47.0514 17.0117C47.0804 17.0812 47.1093 17.1448 47.1383 17.2143C47.4219 17.932 47.6708 18.6613 47.9833 19.3674C48.9036 21.4106 50.2059 23.1585 52.0291 24.4898C52.9841 25.1843 54.0317 25.6994 55.1604 26.0293C56.4742 26.4114 57.7939 26.7702 59.1078 27.1406C60.4274 27.5111 61.7297 27.9336 62.9857 28.4776C63.8191 28.8365 64.6295 29.2417 65.3587 29.7915C65.4224 29.8378 65.4745 29.8957 65.5382 29.9536C65.5324 29.9709 65.5208 29.9883 65.515 29.9999C65.324 29.9594 65.133 29.9246 64.942 29.8841C63.7497 29.6121 62.5458 29.5253 61.3245 29.5658C60.74 29.5831 60.1612 29.6121 59.5766 29.6237C58.9167 29.641 58.2569 29.67 57.5971 29.6468C55.4266 29.5774 53.5166 28.8481 51.8728 27.4127C50.7789 26.4577 49.957 25.2885 49.2798 24.0094C48.4984 22.5392 47.937 20.988 47.5261 19.379C47.3351 18.6381 47.1788 17.8915 47.0051 17.1448C46.9936 17.1043 47.0051 17.0638 47.0051 17.0233C47.0167 17.0233 47.0283 17.0175 47.0399 17.0117H47.0514Z" fill="#1A1A1A"/>
<path d="M66.2732 21.295C66.2501 21.2429 66.2212 21.1966 66.198 21.1387C65.243 18.7714 63.6976 16.8614 61.6892 15.3045C60.0107 14.0022 58.2222 12.8793 56.3759 11.8317C55.2183 11.1719 54.0722 10.4947 52.9204 9.82327C52.8741 9.79433 52.8336 9.76539 52.8047 9.69593C52.8452 9.69593 52.8857 9.69014 52.9204 9.69593C54.599 10.1358 56.2717 10.6104 57.8518 11.3455C59.8023 12.2542 61.4866 13.516 62.8873 15.1598C64.398 16.9367 65.5208 18.9335 66.3022 21.1329C66.3196 21.1734 66.3253 21.2197 66.3369 21.266C66.3138 21.2718 66.2964 21.2834 66.2732 21.2892V21.295Z" fill="#1A1A1A"/>
<path d="M188.901 27.0002V24.6722H190.341V13.4882H188.901V11.1602H194.325V13.4882H192.885V24.6722H194.325V27.0002H188.901Z" stroke="#E6E2DE" stroke-width="16" stroke-linejoin="round" mask="url(#path-4-outside-1_1173_17)"/>
<path d="M172.044 27.0002L179.028 11.1602H180.876L187.596 27.0002H184.908L182.94 22.4642H176.796L174.756 27.0002H172.044ZM177.9 19.9922H181.86L179.964 15.2882L177.9 19.9922Z" stroke="#E6E2DE" stroke-width="16" stroke-linejoin="round" mask="url(#path-4-outside-1_1173_17)"/>
<path d="M150.166 27V14.832H152.686V16.896C153.286 15.576 154.582 14.64 156.286 14.592C159.718 14.448 161.542 16.872 161.542 20.736V27H159.022V20.736C159.022 17.952 157.942 16.92 155.878 16.92C154.102 16.92 152.662 18.168 152.662 20.856L152.686 27H150.166Z" stroke="#E6E2DE" stroke-width="16" stroke-linejoin="round" mask="url(#path-4-outside-1_1173_17)"/>
<path d="M142.734 27.3838C138.99 27.3358 136.566 24.6478 136.566 20.9998C136.566 17.3038 138.966 14.5918 142.734 14.5918C146.502 14.5918 148.878 17.3038 148.878 20.9998C148.878 24.6478 146.454 27.4078 142.734 27.3838ZM139.086 20.9998C139.086 23.3038 140.55 25.0558 142.71 25.0318C144.894 25.0318 146.358 23.3038 146.358 20.9998C146.358 18.6238 144.894 16.9438 142.71 16.9198C140.55 16.8958 139.086 18.5758 139.086 20.9998Z" stroke="#E6E2DE" stroke-width="16" stroke-linejoin="round" mask="url(#path-4-outside-1_1173_17)"/>
<path d="M115.209 26.9998V14.8318H117.729V16.6798C118.569 15.4078 119.721 14.6398 121.209 14.5918C123.297 14.5198 124.809 15.7918 125.481 17.4478C126.201 15.5998 128.001 14.5918 129.825 14.5918C132.897 14.5918 135.273 16.6078 135.273 20.6158V26.9998H132.753V20.8318C132.753 18.1198 131.937 16.9198 129.825 16.9198C127.761 16.9198 126.657 18.2638 126.657 20.8318L126.681 26.9998H124.137V20.8318C124.137 18.1918 123.369 16.9198 121.209 16.9198C119.121 16.9198 117.753 18.3598 117.753 20.6638V26.9998H115.209Z" stroke="#E6E2DE" stroke-width="16" stroke-linejoin="round" mask="url(#path-4-outside-1_1173_17)"/>
<path d="M106.239 27.2398C102.879 27.1678 100.719 24.5758 100.719 20.9758C100.719 17.2558 102.879 14.5918 106.239 14.5918C108.303 14.5918 109.671 15.4558 110.439 16.8478V14.8318H112.959V24.6718H113.919V26.9998H112.071C110.703 26.9998 110.439 26.6398 110.439 25.4398V24.8398C109.527 26.4238 108.303 27.2878 106.239 27.2398ZM103.239 20.9758C103.239 23.2318 104.631 24.9118 106.839 24.9118C109.023 24.9118 110.439 23.2318 110.439 20.9758C110.439 18.5758 108.975 16.9438 106.839 16.9198C104.679 16.8958 103.239 18.5758 103.239 20.9758Z" stroke="#E6E2DE" stroke-width="16" stroke-linejoin="round" mask="url(#path-4-outside-1_1173_17)"/>
<path d="M90.1196 27L94.4396 20.904L90.1916 14.832H92.9516L95.8556 19.368L98.9756 14.832H101.736L97.1276 20.904L101.64 27H98.8796L95.8556 22.344L92.8796 27H90.1196Z" stroke="#E6E2DE" stroke-width="16" stroke-linejoin="round" mask="url(#path-4-outside-1_1173_17)"/>
<path d="M79.16 27.0002C77.72 27.0002 77.528 26.5682 77.528 25.2482V12.8642C77.528 11.5442 77.72 11.1602 79.16 11.1602H88.856V13.4882H80.048V18.2402H87.704V20.5682H80.048V24.6722H88.832V27.0002H79.16Z" stroke="#E6E2DE" stroke-width="16" stroke-linejoin="round" mask="url(#path-4-outside-1_1173_17)"/>
<path d="M47.8388 8.00579C48.626 9.30229 49.662 10.3152 50.8601 11.166C52.1392 12.0689 53.5515 12.694 55.0216 13.2034C56.1619 13.5969 57.3079 13.9847 58.3729 14.5693C59.3279 15.096 60.1961 15.7327 60.9832 16.4793C62.465 17.8858 63.5705 19.547 64.3345 21.4338C64.7107 22.3657 65.0117 23.3265 65.2027 24.3162C65.3531 25.0918 65.4921 25.8674 65.602 26.643C65.6946 27.2681 65.7467 27.9048 65.8104 28.5356C65.8104 28.5704 65.8046 28.6051 65.793 28.6861C65.7236 28.6109 65.6831 28.5762 65.6483 28.5299C64.6644 27.2507 63.4547 26.261 61.9498 25.6648C61.3132 25.4102 60.6475 25.2307 59.9877 25.0513C58.9169 24.7677 57.8172 24.5709 56.7696 24.1889C55.0159 23.5406 53.4936 22.5509 52.1798 21.2313C50.3392 19.3849 49.0832 17.2028 48.3944 14.6909C48.1108 13.649 47.9025 12.5956 47.7867 11.5191C47.6825 10.5756 47.7173 9.6322 47.7346 8.68298C47.7346 8.50934 47.7462 8.3357 47.7636 8.16206C47.7636 8.11576 47.8041 8.06946 47.833 8L47.8388 8.00579Z" stroke="#E6E2DE" stroke-width="16" stroke-linejoin="round" mask="url(#path-4-outside-1_1173_17)"/>
<path d="M47.0514 17.0117C47.0804 17.0812 47.1093 17.1448 47.1383 17.2143C47.4219 17.932 47.6708 18.6613 47.9833 19.3674C48.9036 21.4106 50.2059 23.1585 52.0291 24.4898C52.9841 25.1843 54.0317 25.6994 55.1604 26.0293C56.4742 26.4114 57.7939 26.7702 59.1078 27.1406C60.4274 27.5111 61.7297 27.9336 62.9857 28.4776C63.8191 28.8365 64.6295 29.2417 65.3587 29.7915C65.4224 29.8378 65.4745 29.8957 65.5382 29.9536C65.5324 29.9709 65.5208 29.9883 65.515 29.9999C65.324 29.9594 65.133 29.9246 64.942 29.8841C63.7497 29.6121 62.5458 29.5253 61.3245 29.5658C60.74 29.5831 60.1612 29.6121 59.5766 29.6237C58.9167 29.641 58.2569 29.67 57.5971 29.6468C55.4266 29.5774 53.5166 28.8481 51.8728 27.4127C50.7789 26.4577 49.957 25.2885 49.2798 24.0094C48.4984 22.5392 47.937 20.988 47.5261 19.379C47.3351 18.6381 47.1788 17.8915 47.0051 17.1448C46.9936 17.1043 47.0051 17.0638 47.0051 17.0233C47.0167 17.0233 47.0283 17.0175 47.0399 17.0117H47.0514Z" stroke="#E6E2DE" stroke-width="16" stroke-linejoin="round" mask="url(#path-4-outside-1_1173_17)"/>
<path d="M66.2732 21.295C66.2501 21.2429 66.2212 21.1966 66.198 21.1387C65.243 18.7714 63.6976 16.8614 61.6892 15.3045C60.0107 14.0022 58.2222 12.8793 56.3759 11.8317C55.2183 11.1719 54.0722 10.4947 52.9204 9.82327C52.8741 9.79433 52.8336 9.76539 52.8047 9.69593C52.8452 9.69593 52.8857 9.69014 52.9204 9.69593C54.599 10.1358 56.2717 10.6104 57.8518 11.3455C59.8023 12.2542 61.4866 13.516 62.8873 15.1598C64.398 16.9367 65.5208 18.9335 66.3022 21.1329C66.3196 21.1734 66.3253 21.2197 66.3369 21.266C66.3138 21.2718 66.2964 21.2834 66.2732 21.2892V21.295Z" stroke="#E6E2DE" stroke-width="16" stroke-linejoin="round" mask="url(#path-4-outside-1_1173_17)"/>
</svg>
