<svg width="242" height="181" viewBox="0 0 242 181" fill="none" xmlns="http://www.w3.org/2000/svg">
<rect y="21" width="242" height="160" rx="12" fill="#E6E2DE"/>
<path d="M86.7638 95.5596H84.3318V84.0716H86.7638V88.5996H91.7398V84.0716H94.1718V95.5596H91.7398V90.6956H86.7638V95.5596ZM99.8949 95.7036C97.3349 95.7036 95.6229 93.9276 95.6229 91.2556C95.6229 88.7116 97.3989 86.8556 99.8629 86.8556C102.567 86.8556 104.359 89.0476 103.959 91.8316H97.8949C98.0389 93.2236 98.7109 93.9916 99.8469 93.9916C100.823 93.9916 101.479 93.5116 101.735 92.6636H103.943C103.463 94.5996 101.975 95.7036 99.8949 95.7036ZM99.8149 88.4876C98.7749 88.4876 98.1189 89.1596 97.9269 90.4236H101.607C101.543 89.2396 100.871 88.4876 99.8149 88.4876ZM107.529 95.5596H105.289V84.0716H107.529V95.5596ZM111.603 95.5596H109.363V84.0716H111.603V95.5596ZM117.213 95.7196C114.733 95.7196 112.877 93.7676 112.877 91.2876C112.877 88.7916 114.733 86.8556 117.213 86.8556C119.693 86.8556 121.549 88.7916 121.549 91.2876C121.549 93.7676 119.693 95.7196 117.213 95.7196ZM117.213 93.7516C118.317 93.7516 119.261 92.8716 119.261 91.2876C119.261 89.7036 118.317 88.8396 117.213 88.8396C116.109 88.8396 115.165 89.7036 115.165 91.2876C115.165 92.8716 116.109 93.7516 117.213 93.7516ZM131.593 92.1836C131.593 94.3116 130.025 95.5596 127.497 95.5596H123.001V84.0716H127.321C129.737 84.0716 131.225 85.1596 131.225 87.1276C131.225 88.1836 130.633 89.0316 129.609 89.5596C130.889 90.0076 131.593 90.9196 131.593 92.1836ZM127.129 85.9916H125.209V88.6636H127.129C128.313 88.6636 128.921 88.1516 128.921 87.3196C128.921 86.5036 128.313 85.9916 127.129 85.9916ZM127.305 90.5996H125.209V93.6396H127.305C128.617 93.6396 129.305 93.0636 129.305 92.0876C129.305 91.1756 128.617 90.5996 127.305 90.5996ZM136.784 95.7196C134.304 95.7196 132.448 93.7676 132.448 91.2876C132.448 88.7916 134.304 86.8556 136.784 86.8556C139.264 86.8556 141.12 88.7916 141.12 91.2876C141.12 93.7676 139.264 95.7196 136.784 95.7196ZM136.784 93.7516C137.888 93.7516 138.832 92.8716 138.832 91.2876C138.832 89.7036 137.888 88.8396 136.784 88.8396C135.68 88.8396 134.736 89.7036 134.736 91.2876C134.736 92.8716 135.68 93.7516 136.784 93.7516ZM141.819 91.2876C141.819 88.7596 143.307 86.8556 145.611 86.8556C146.635 86.8556 147.499 87.3036 148.139 88.1196V84.0716H150.347V95.5596H148.315V94.3276C147.643 95.2236 146.715 95.7196 145.611 95.7196C143.307 95.7196 141.819 93.7836 141.819 91.2876ZM144.107 91.2876C144.107 92.8876 145.019 93.7356 146.107 93.7356C147.211 93.7356 148.123 92.8716 148.123 91.2556C148.123 89.6396 147.195 88.8236 146.107 88.8236C145.019 88.8236 144.107 89.6556 144.107 91.2876ZM159.868 87.0156L155.708 98.6476H153.292L154.508 95.4636L151.148 87.0156H153.548L155.692 92.8716L157.644 87.0156H159.868Z" fill="#1A1A1A"/>
<path d="M88.5091 115.56H82.4191V105.508H83.9591V114.174H88.5091V115.56ZM92.5316 115.7C90.4316 115.7 88.8916 114.048 88.8916 111.85C88.8916 109.652 90.4316 108 92.5316 108C94.6316 108 96.1716 109.652 96.1716 111.85C96.1716 114.048 94.6316 115.7 92.5316 115.7ZM92.5316 114.454C93.7496 114.454 94.7156 113.474 94.7156 111.85C94.7156 110.226 93.7496 109.26 92.5316 109.26C91.3136 109.26 90.3616 110.226 90.3616 111.85C90.3616 113.474 91.3136 114.454 92.5316 114.454ZM100.164 118.416C98.2183 118.416 96.9583 117.38 96.8743 115.7H98.2463C98.3303 116.736 99.0023 117.296 100.15 117.296C101.424 117.296 102.096 116.61 102.096 115.336V113.992C101.676 114.888 100.836 115.406 99.8283 115.406C97.9803 115.406 96.6643 113.88 96.6643 111.696C96.6643 109.484 97.9243 108 99.7863 108C100.85 108 101.69 108.518 102.194 109.456V108.14H103.51V115.308C103.51 117.254 102.264 118.416 100.164 118.416ZM98.0923 111.696C98.0923 113.236 98.8483 114.174 100.08 114.174C101.284 114.174 102.096 113.208 102.096 111.738C102.096 110.198 101.298 109.218 100.08 109.218C98.8623 109.218 98.0923 110.17 98.0923 111.696ZM108.296 115.7C106.196 115.7 104.656 114.048 104.656 111.85C104.656 109.652 106.196 108 108.296 108C110.396 108 111.936 109.652 111.936 111.85C111.936 114.048 110.396 115.7 108.296 115.7ZM108.296 114.454C109.514 114.454 110.48 113.474 110.48 111.85C110.48 110.226 109.514 109.26 108.296 109.26C107.078 109.26 106.126 110.226 106.126 111.85C106.126 113.474 107.078 114.454 108.296 114.454ZM119.033 115.56H115.855V105.508H119.033C122.239 105.508 124.087 107.552 124.087 110.492C124.087 113.39 122.169 115.56 119.033 115.56ZM117.395 106.838V114.23H118.963C121.273 114.23 122.519 112.802 122.519 110.492C122.519 108.224 121.287 106.838 118.963 106.838H117.395ZM128.359 115.7C126.217 115.7 124.775 114.146 124.775 111.808C124.775 109.61 126.273 108 128.317 108C130.529 108 131.999 109.792 131.747 112.2H126.217C126.329 113.712 127.085 114.594 128.331 114.594C129.381 114.594 130.109 114.02 130.347 113.054H131.747C131.383 114.706 130.109 115.7 128.359 115.7ZM128.289 109.064C127.155 109.064 126.385 109.876 126.231 111.262H130.249C130.179 109.89 129.437 109.064 128.289 109.064ZM138.85 113.348C138.85 114.804 137.716 115.7 135.742 115.7C133.782 115.7 132.62 114.734 132.48 113.138H133.838C133.894 114.062 134.636 114.636 135.77 114.636C136.764 114.636 137.422 114.286 137.422 113.586C137.422 112.97 137.044 112.704 136.12 112.522L134.916 112.298C133.544 112.032 132.774 111.332 132.774 110.212C132.774 108.91 133.908 108 135.63 108C137.408 108 138.612 108.952 138.738 110.478H137.38C137.296 109.582 136.638 109.064 135.644 109.064C134.748 109.064 134.146 109.442 134.146 110.086C134.146 110.688 134.524 110.968 135.42 111.136L136.68 111.374C138.15 111.64 138.85 112.284 138.85 113.348ZM141.836 106.418C141.836 106.95 141.416 107.356 140.814 107.356C140.212 107.356 139.778 106.95 139.778 106.418C139.778 105.872 140.212 105.48 140.814 105.48C141.416 105.48 141.836 105.872 141.836 106.418ZM141.528 115.56H140.114V108.14H141.528V115.56ZM146.179 118.416C144.233 118.416 142.973 117.38 142.889 115.7H144.261C144.345 116.736 145.017 117.296 146.165 117.296C147.439 117.296 148.111 116.61 148.111 115.336V113.992C147.691 114.888 146.851 115.406 145.843 115.406C143.995 115.406 142.679 113.88 142.679 111.696C142.679 109.484 143.939 108 145.801 108C146.865 108 147.705 108.518 148.209 109.456V108.14H149.525V115.308C149.525 117.254 148.279 118.416 146.179 118.416ZM144.107 111.696C144.107 113.236 144.863 114.174 146.095 114.174C147.299 114.174 148.111 113.208 148.111 111.738C148.111 110.198 147.313 109.218 146.095 109.218C144.877 109.218 144.107 110.17 144.107 111.696ZM152.616 111.374V115.56H151.202V108.14H152.518V109.372C153.022 108.546 153.862 108 154.884 108C156.41 108 157.418 108.98 157.418 110.758V115.56H156.004V111.234C156.004 109.96 155.444 109.246 154.394 109.246C153.428 109.246 152.616 110.058 152.616 111.374ZM160.934 114.958C160.934 116.288 159.884 117.324 158.344 117.352V116.554C159.254 116.526 159.87 116.036 159.954 115.35C159.828 115.392 159.744 115.406 159.646 115.406C159.114 115.406 158.722 114.972 158.722 114.454C158.722 113.852 159.17 113.46 159.744 113.46C160.514 113.46 160.934 114.02 160.934 114.958ZM62.9278 129.676C62.9278 131.51 61.5838 132.56 59.4978 132.56H55.8158V122.508H59.3018C61.3318 122.508 62.5498 123.446 62.5498 125.14C62.5498 126.092 61.9758 126.904 61.0098 127.324C62.2558 127.674 62.9278 128.528 62.9278 129.676ZM59.2038 123.74H57.2298V126.764H59.2038C60.4218 126.764 61.0798 126.19 61.0798 125.252C61.0798 124.314 60.4218 123.74 59.2038 123.74ZM59.3998 127.996H57.2298V131.328H59.3998C60.7158 131.328 61.4578 130.698 61.4578 129.634C61.4578 128.612 60.7158 127.996 59.3998 127.996ZM65.7246 128.766V132.56H64.3106V125.14H65.6266V126.708C66.1446 125.686 67.2646 125.042 68.4826 125.042V126.512C66.8866 126.428 65.7246 127.128 65.7246 128.766ZM73.8156 132.56V131.412C73.3536 132.238 72.5276 132.7 71.4356 132.7C69.8956 132.7 68.8876 131.818 68.8876 130.46C68.8876 129.004 70.0496 128.248 72.2616 128.248C72.6956 128.248 73.0456 128.262 73.6476 128.332V127.786C73.6476 126.722 73.0736 126.12 72.0936 126.12C71.0576 126.12 70.4276 126.736 70.3856 127.772H69.0976C69.1676 126.106 70.3576 125 72.0936 125C73.9276 125 74.9916 126.036 74.9916 127.8V132.56H73.8156ZM70.2316 130.418C70.2316 131.188 70.8056 131.692 71.7156 131.692C72.9056 131.692 73.6476 130.95 73.6476 129.816V129.214C73.1016 129.144 72.7096 129.13 72.3456 129.13C70.9316 129.13 70.2316 129.55 70.2316 130.418ZM78.0161 128.374V132.56H76.6021V125.14H77.9181V126.372C78.4221 125.546 79.2621 125 80.2841 125C81.8101 125 82.8181 125.98 82.8181 127.758V132.56H81.4041V128.234C81.4041 126.96 80.8441 126.246 79.7941 126.246C78.8281 126.246 78.0161 127.058 78.0161 128.374ZM83.8839 128.85C83.8839 126.596 85.1719 125 87.1739 125C88.1679 125 89.0359 125.504 89.5539 126.414V122.508H90.9679V132.56H89.6519V131.23C89.1199 132.168 88.2239 132.7 87.1739 132.7C85.1719 132.7 83.8839 131.076 83.8839 128.85ZM85.3539 128.85C85.3539 130.502 86.2219 131.44 87.4539 131.44C88.6579 131.44 89.5539 130.46 89.5539 128.822C89.5539 127.156 88.6299 126.246 87.4539 126.246C86.2219 126.246 85.3539 127.17 85.3539 128.85ZM96.9512 132.56H95.4112V122.508H96.9512V132.56ZM98.206 128.85C98.206 126.596 99.494 125 101.496 125C102.49 125 103.358 125.504 103.876 126.414V122.508H105.29V132.56H103.974V131.23C103.442 132.168 102.546 132.7 101.496 132.7C99.494 132.7 98.206 131.076 98.206 128.85ZM99.676 128.85C99.676 130.502 100.544 131.44 101.776 131.44C102.98 131.44 103.876 130.46 103.876 128.822C103.876 127.156 102.952 126.246 101.776 126.246C100.544 126.246 99.676 127.17 99.676 128.85ZM110.028 132.7C107.886 132.7 106.444 131.146 106.444 128.808C106.444 126.61 107.942 125 109.986 125C112.198 125 113.668 126.792 113.416 129.2H107.886C107.998 130.712 108.754 131.594 110 131.594C111.05 131.594 111.778 131.02 112.016 130.054H113.416C113.052 131.706 111.778 132.7 110.028 132.7ZM109.958 126.064C108.824 126.064 108.054 126.876 107.9 128.262H111.918C111.848 126.89 111.106 126.064 109.958 126.064ZM116.053 128.374V132.56H114.639V125.14H115.955V126.372C116.459 125.546 117.299 125 118.321 125C119.847 125 120.855 125.98 120.855 127.758V132.56H119.441V128.234C119.441 126.96 118.881 126.246 117.831 126.246C116.865 126.246 116.053 127.058 116.053 128.374ZM126.611 131.188V132.434C126.177 132.63 125.799 132.7 125.351 132.7C123.979 132.7 123.027 131.958 123.027 130.32V126.344H121.389V125.14H123.027V122.942H124.441V125.14H126.681V126.344H124.441V129.998C124.441 131.02 124.931 131.384 125.687 131.384C126.023 131.384 126.317 131.328 126.611 131.188ZM129.473 123.418C129.473 123.95 129.053 124.356 128.451 124.356C127.849 124.356 127.415 123.95 127.415 123.418C127.415 122.872 127.849 122.48 128.451 122.48C129.053 122.48 129.473 122.872 129.473 123.418ZM129.165 132.56H127.751V125.14H129.165V132.56ZM135.034 131.188V132.434C134.6 132.63 134.222 132.7 133.774 132.7C132.402 132.7 131.45 131.958 131.45 130.32V126.344H129.812V125.14H131.45V122.942H132.864V125.14H135.104V126.344H132.864V129.998C132.864 131.02 133.354 131.384 134.11 131.384C134.446 131.384 134.74 131.328 135.034 131.188ZM142.333 125.14L138.623 135.262H137.083L138.147 132.462L135.221 125.14H136.747L138.903 130.796L140.905 125.14H142.333ZM148.993 132.56H145.815V122.508H148.993C152.199 122.508 154.047 124.552 154.047 127.492C154.047 130.39 152.129 132.56 148.993 132.56ZM147.355 123.838V131.23H148.923C151.233 131.23 152.479 129.802 152.479 127.492C152.479 125.224 151.247 123.838 148.923 123.838H147.355ZM158.319 132.7C156.177 132.7 154.735 131.146 154.735 128.808C154.735 126.61 156.233 125 158.277 125C160.489 125 161.959 126.792 161.707 129.2H156.177C156.289 130.712 157.045 131.594 158.291 131.594C159.341 131.594 160.069 131.02 160.307 130.054H161.707C161.343 131.706 160.069 132.7 158.319 132.7ZM158.249 126.064C157.115 126.064 156.345 126.876 156.191 128.262H160.209C160.139 126.89 159.397 126.064 158.249 126.064ZM168.81 130.348C168.81 131.804 167.676 132.7 165.702 132.7C163.742 132.7 162.58 131.734 162.44 130.138H163.798C163.854 131.062 164.596 131.636 165.73 131.636C166.724 131.636 167.382 131.286 167.382 130.586C167.382 129.97 167.004 129.704 166.08 129.522L164.876 129.298C163.504 129.032 162.734 128.332 162.734 127.212C162.734 125.91 163.868 125 165.59 125C167.368 125 168.572 125.952 168.698 127.478H167.34C167.256 126.582 166.598 126.064 165.604 126.064C164.708 126.064 164.106 126.442 164.106 127.086C164.106 127.688 164.484 127.968 165.38 128.136L166.64 128.374C168.11 128.64 168.81 129.284 168.81 130.348ZM171.796 123.418C171.796 123.95 171.376 124.356 170.774 124.356C170.172 124.356 169.738 123.95 169.738 123.418C169.738 122.872 170.172 122.48 170.774 122.48C171.376 122.48 171.796 122.872 171.796 123.418ZM171.488 132.56H170.074V125.14H171.488V132.56ZM176.139 135.416C174.193 135.416 172.933 134.38 172.849 132.7H174.221C174.305 133.736 174.977 134.296 176.125 134.296C177.399 134.296 178.071 133.61 178.071 132.336V130.992C177.651 131.888 176.811 132.406 175.803 132.406C173.955 132.406 172.639 130.88 172.639 128.696C172.639 126.484 173.899 125 175.761 125C176.825 125 177.665 125.518 178.169 126.456V125.14H179.485V132.308C179.485 134.254 178.239 135.416 176.139 135.416ZM174.067 128.696C174.067 130.236 174.823 131.174 176.055 131.174C177.259 131.174 178.071 130.208 178.071 128.738C178.071 127.198 177.273 126.218 176.055 126.218C174.837 126.218 174.067 127.17 174.067 128.696ZM182.576 128.374V132.56H181.162V125.14H182.478V126.372C182.982 125.546 183.822 125 184.844 125C186.37 125 187.378 125.98 187.378 127.758V132.56H185.964V128.234C185.964 126.96 185.404 126.246 184.354 126.246C183.388 126.246 182.576 127.058 182.576 128.374Z" fill="#1A1A1A"/>
<mask id="path-4-outside-1_1173_19" maskUnits="userSpaceOnUse" x="49" y="0" width="145" height="42" fill="black">
<rect fill="white" x="49" width="145" height="42"/>
<path d="M174.184 28.6628C174.399 28.2156 174.399 27.6789 174.246 27.2018L169.504 14.088C169.387 13.7648 169.634 13.4266 169.987 13.4266H175.221C175.46 13.4266 175.667 13.587 175.72 13.8132L176.712 18.038C176.832 18.5502 177.583 18.5548 177.71 18.0442L178.764 13.8071C178.819 13.5839 179.025 13.4266 179.262 13.4266H184.487C184.835 13.4266 185.082 13.756 184.975 14.077L180.119 28.5734C179.135 31.6445 178.151 34 175.137 34C173.05 34 171.893 33.4327 171.717 33.3293C171.701 33.3198 171.685 33.31 171.668 33.3018C171.608 33.2729 171.571 33.2137 171.571 33.149V29.275C171.571 29.1066 171.756 28.9997 171.909 29.0803C171.909 29.0803 172.924 29.617 173.662 29.2294C173.877 29.1101 174.061 28.9312 174.184 28.6628Z"/>
<path d="M159.471 29.0803C157.35 29.0803 155.505 28.3647 154.152 26.9633C152.768 25.5321 152.03 23.4748 152.03 21.0597C152.03 18.9427 152.737 17.0046 153.998 15.5436C155.382 13.9633 157.288 13.1284 159.502 13.1284C160.521 13.1284 161.349 13.3556 162.037 13.6826C162.41 13.8598 162.885 13.6173 162.885 13.2147V8.49694C162.885 8.22249 163.114 8 163.397 8H167.938C168.221 8 168.45 8.22249 168.45 8.49694V28.2554C168.45 28.5298 168.221 28.7523 167.938 28.7523H163.862C163.679 28.7523 163.53 28.6082 163.53 28.4305C163.53 28.162 163.206 28.0059 162.971 28.1471C162.123 28.6551 160.957 29.0803 159.471 29.0803ZM157.749 21.0298C157.749 22.3716 158.918 23.5046 160.332 23.5046C161.778 23.5046 162.946 22.3716 162.946 21.0298C162.946 19.6583 161.778 18.5551 160.332 18.5551C158.918 18.5551 157.749 19.6583 157.749 21.0298Z"/>
<path d="M143.131 29.3187C138.58 29.3187 134.86 25.7109 134.86 21.2981C134.86 16.8852 138.58 13.2774 143.131 13.2774C147.682 13.2774 151.403 16.8852 151.403 21.2981C151.403 25.7109 147.682 29.3187 143.131 29.3187ZM140.425 21.2981C140.425 22.7293 141.655 23.9219 143.131 23.9219C144.607 23.9219 145.837 22.7293 145.837 21.2981C145.837 19.8669 144.607 18.6742 143.131 18.6742C141.655 18.6742 140.425 19.8669 140.425 21.2981Z"/>
<path d="M123.48 28.1698C123.255 28.0385 122.953 28.1884 122.953 28.4427C122.953 28.6137 122.81 28.7523 122.634 28.7523H118.576C118.293 28.7523 118.064 28.5298 118.064 28.2554V8.49694C118.064 8.22249 118.293 8 118.576 8H123.117C123.4 8 123.63 8.22249 123.63 8.49694V13.2454C123.63 13.6589 124.133 13.9052 124.514 13.7189C125.233 13.367 126.121 13.1284 127.196 13.1284C129.318 13.1284 131.102 13.9335 132.393 15.4541C133.592 16.8555 134.238 18.7638 134.238 20.8509C134.238 23.2959 133.531 25.3831 132.147 26.8739C130.825 28.3051 128.918 29.0803 126.827 29.0803C125.433 29.0803 124.301 28.6501 123.48 28.1698ZM123.568 21.0298C123.568 22.3716 124.706 23.4748 126.089 23.4748C127.504 23.4748 128.642 22.3716 128.642 21.0298C128.642 19.6583 127.504 18.5551 126.089 18.5551C124.706 18.5551 123.568 19.6583 123.568 21.0298Z"/>
<path d="M108.857 29.3187C104.307 29.3187 100.586 25.7109 100.586 21.2981C100.586 16.8852 104.307 13.2774 108.857 13.2774C113.408 13.2774 117.129 16.8852 117.129 21.2981C117.129 25.7109 113.408 29.3187 108.857 29.3187ZM106.152 21.2981C106.152 22.7293 107.381 23.9219 108.857 23.9219C110.333 23.9219 111.563 22.7293 111.563 21.2981C111.563 19.8669 110.333 18.6742 108.857 18.6742C107.381 18.6742 106.152 19.8669 106.152 21.2981Z"/>
<path d="M94.2065 8.52671C94.2065 8.25225 94.4359 8.02976 94.7189 8.02976H99.2903C99.5733 8.02976 99.8028 8.25225 99.8028 8.52671V28.2851C99.8028 28.5596 99.5733 28.7821 99.2903 28.7821H94.7189C94.4359 28.7821 94.2065 28.5596 94.2065 28.2851V8.52671Z"/>
<path d="M87.5195 8.52671C87.5195 8.25225 87.7489 8.02976 88.032 8.02976H92.6033C92.8864 8.02976 93.1158 8.25225 93.1158 8.52671V28.2851C93.1158 28.5596 92.8864 28.7821 92.6033 28.7821H88.032C87.7489 28.7821 87.5195 28.5596 87.5195 28.2851V8.52671Z"/>
<path d="M79.6949 29.289C77.6347 29.289 75.6053 28.4839 74.1601 27.1422C72.5611 25.6513 71.7002 23.594 71.7002 21.3279C71.7002 18.1972 73.0224 16.2889 74.1601 15.2454C75.6053 13.9036 77.6347 13.188 79.6642 13.2775C84.2458 13.4862 85.937 16.3486 86.552 18.7339C86.5708 18.8251 86.5343 18.9188 86.4581 18.9752L80.0679 23.7013C79.7589 23.9298 79.8617 24.3769 80.2484 24.3394C82.9851 24.1605 84.7685 21.8348 84.7993 21.805C84.9189 21.6543 85.1659 21.7107 85.2036 21.8973L86.1658 26.6695C86.1768 26.724 86.1652 26.7805 86.1334 26.8267C86.1255 26.8382 86.1165 26.849 86.1067 26.859C85.8918 27.0793 83.7453 29.289 79.6949 29.289ZM77.4195 18.8234C76.866 19.3899 76.5893 20.1651 76.62 20.9701C76.62 21.0813 76.7818 21.1427 76.8734 21.0758L79.9878 18.7992C80.2916 18.5771 80.2465 18.1168 79.8737 18.0433C79.7049 18.0101 79.5128 17.9885 79.2952 17.9885C78.6187 17.9885 77.9422 18.2867 77.4195 18.8234Z"/>
<path d="M62.5648 19.9564V28.2554C62.5648 28.5298 62.3354 28.7523 62.0524 28.7523H57.5125C57.2292 28.7523 56.9996 28.5294 57 28.2547L57.0293 8.49623C57.0297 8.22205 57.259 8 57.5418 8H62.0524C62.3354 8 62.5648 8.22249 62.5648 8.49694V13.1457C62.5648 13.5759 63.1136 13.8254 63.5071 13.6265C64.0991 13.3272 64.8704 13.0986 65.855 13.0986C68.2534 13.0986 70.7749 14.5298 70.7749 18.5252V28.2554C70.7749 28.5298 70.5454 28.7523 70.2624 28.7523H65.6295C65.3465 28.7523 65.117 28.5298 65.117 28.2554V20.1353C65.117 19.0918 64.6558 18.406 63.9178 18.406C63.5488 18.406 63.2106 18.5551 62.9646 18.8532C62.7186 19.1514 62.5648 19.539 62.5648 19.9564Z"/>
</mask>
<path d="M174.184 28.6628C174.399 28.2156 174.399 27.6789 174.246 27.2018L169.504 14.088C169.387 13.7648 169.634 13.4266 169.987 13.4266H175.221C175.46 13.4266 175.667 13.587 175.72 13.8132L176.712 18.038C176.832 18.5502 177.583 18.5548 177.71 18.0442L178.764 13.8071C178.819 13.5839 179.025 13.4266 179.262 13.4266H184.487C184.835 13.4266 185.082 13.756 184.975 14.077L180.119 28.5734C179.135 31.6445 178.151 34 175.137 34C173.05 34 171.893 33.4327 171.717 33.3293C171.701 33.3198 171.685 33.31 171.668 33.3018C171.608 33.2729 171.571 33.2137 171.571 33.149V29.275C171.571 29.1066 171.756 28.9997 171.909 29.0803C171.909 29.0803 172.924 29.617 173.662 29.2294C173.877 29.1101 174.061 28.9312 174.184 28.6628Z" fill="#1A1A1A"/>
<path d="M159.471 29.0803C157.35 29.0803 155.505 28.3647 154.152 26.9633C152.768 25.5321 152.03 23.4748 152.03 21.0597C152.03 18.9427 152.737 17.0046 153.998 15.5436C155.382 13.9633 157.288 13.1284 159.502 13.1284C160.521 13.1284 161.349 13.3556 162.037 13.6826C162.41 13.8598 162.885 13.6173 162.885 13.2147V8.49694C162.885 8.22249 163.114 8 163.397 8H167.938C168.221 8 168.45 8.22249 168.45 8.49694V28.2554C168.45 28.5298 168.221 28.7523 167.938 28.7523H163.862C163.679 28.7523 163.53 28.6082 163.53 28.4305C163.53 28.162 163.206 28.0059 162.971 28.1471C162.123 28.6551 160.957 29.0803 159.471 29.0803ZM157.749 21.0298C157.749 22.3716 158.918 23.5046 160.332 23.5046C161.778 23.5046 162.946 22.3716 162.946 21.0298C162.946 19.6583 161.778 18.5551 160.332 18.5551C158.918 18.5551 157.749 19.6583 157.749 21.0298Z" fill="#1A1A1A"/>
<path d="M143.131 29.3187C138.58 29.3187 134.86 25.7109 134.86 21.2981C134.86 16.8852 138.58 13.2774 143.131 13.2774C147.682 13.2774 151.403 16.8852 151.403 21.2981C151.403 25.7109 147.682 29.3187 143.131 29.3187ZM140.425 21.2981C140.425 22.7293 141.655 23.9219 143.131 23.9219C144.607 23.9219 145.837 22.7293 145.837 21.2981C145.837 19.8669 144.607 18.6742 143.131 18.6742C141.655 18.6742 140.425 19.8669 140.425 21.2981Z" fill="#1A1A1A"/>
<path d="M123.48 28.1698C123.255 28.0385 122.953 28.1884 122.953 28.4427C122.953 28.6137 122.81 28.7523 122.634 28.7523H118.576C118.293 28.7523 118.064 28.5298 118.064 28.2554V8.49694C118.064 8.22249 118.293 8 118.576 8H123.117C123.4 8 123.63 8.22249 123.63 8.49694V13.2454C123.63 13.6589 124.133 13.9052 124.514 13.7189C125.233 13.367 126.121 13.1284 127.196 13.1284C129.318 13.1284 131.102 13.9335 132.393 15.4541C133.592 16.8555 134.238 18.7638 134.238 20.8509C134.238 23.2959 133.531 25.3831 132.147 26.8739C130.825 28.3051 128.918 29.0803 126.827 29.0803C125.433 29.0803 124.301 28.6501 123.48 28.1698ZM123.568 21.0298C123.568 22.3716 124.706 23.4748 126.089 23.4748C127.504 23.4748 128.642 22.3716 128.642 21.0298C128.642 19.6583 127.504 18.5551 126.089 18.5551C124.706 18.5551 123.568 19.6583 123.568 21.0298Z" fill="#1A1A1A"/>
<path d="M108.857 29.3187C104.307 29.3187 100.586 25.7109 100.586 21.2981C100.586 16.8852 104.307 13.2774 108.857 13.2774C113.408 13.2774 117.129 16.8852 117.129 21.2981C117.129 25.7109 113.408 29.3187 108.857 29.3187ZM106.152 21.2981C106.152 22.7293 107.381 23.9219 108.857 23.9219C110.333 23.9219 111.563 22.7293 111.563 21.2981C111.563 19.8669 110.333 18.6742 108.857 18.6742C107.381 18.6742 106.152 19.8669 106.152 21.2981Z" fill="#1A1A1A"/>
<path d="M94.2065 8.52671C94.2065 8.25225 94.4359 8.02976 94.7189 8.02976H99.2903C99.5733 8.02976 99.8028 8.25225 99.8028 8.52671V28.2851C99.8028 28.5596 99.5733 28.7821 99.2903 28.7821H94.7189C94.4359 28.7821 94.2065 28.5596 94.2065 28.2851V8.52671Z" fill="#1A1A1A"/>
<path d="M87.5195 8.52671C87.5195 8.25225 87.7489 8.02976 88.032 8.02976H92.6033C92.8864 8.02976 93.1158 8.25225 93.1158 8.52671V28.2851C93.1158 28.5596 92.8864 28.7821 92.6033 28.7821H88.032C87.7489 28.7821 87.5195 28.5596 87.5195 28.2851V8.52671Z" fill="#1A1A1A"/>
<path d="M79.6949 29.289C77.6347 29.289 75.6053 28.4839 74.1601 27.1422C72.5611 25.6513 71.7002 23.594 71.7002 21.3279C71.7002 18.1972 73.0224 16.2889 74.1601 15.2454C75.6053 13.9036 77.6347 13.188 79.6642 13.2775C84.2458 13.4862 85.937 16.3486 86.552 18.7339C86.5708 18.8251 86.5343 18.9188 86.4581 18.9752L80.0679 23.7013C79.7589 23.9298 79.8617 24.3769 80.2484 24.3394C82.9851 24.1605 84.7685 21.8348 84.7993 21.805C84.9189 21.6543 85.1659 21.7107 85.2036 21.8973L86.1658 26.6695C86.1768 26.724 86.1652 26.7805 86.1334 26.8267C86.1255 26.8382 86.1165 26.849 86.1067 26.859C85.8918 27.0793 83.7453 29.289 79.6949 29.289ZM77.4195 18.8234C76.866 19.3899 76.5893 20.1651 76.62 20.9701C76.62 21.0813 76.7818 21.1427 76.8734 21.0758L79.9878 18.7992C80.2916 18.5771 80.2465 18.1168 79.8737 18.0433C79.7049 18.0101 79.5128 17.9885 79.2952 17.9885C78.6187 17.9885 77.9422 18.2867 77.4195 18.8234Z" fill="#1A1A1A"/>
<path d="M62.5648 19.9564V28.2554C62.5648 28.5298 62.3354 28.7523 62.0524 28.7523H57.5125C57.2292 28.7523 56.9996 28.5294 57 28.2547L57.0293 8.49623C57.0297 8.22205 57.259 8 57.5418 8H62.0524C62.3354 8 62.5648 8.22249 62.5648 8.49694V13.1457C62.5648 13.5759 63.1136 13.8254 63.5071 13.6265C64.0991 13.3272 64.8704 13.0986 65.855 13.0986C68.2534 13.0986 70.7749 14.5298 70.7749 18.5252V28.2554C70.7749 28.5298 70.5454 28.7523 70.2624 28.7523H65.6295C65.3465 28.7523 65.117 28.5298 65.117 28.2554V20.1353C65.117 19.0918 64.6558 18.406 63.9178 18.406C63.5488 18.406 63.2106 18.5551 62.9646 18.8532C62.7186 19.1514 62.5648 19.539 62.5648 19.9564Z" fill="#1A1A1A"/>
<path d="M174.184 28.6628C174.399 28.2156 174.399 27.6789 174.246 27.2018L169.504 14.088C169.387 13.7648 169.634 13.4266 169.987 13.4266H175.221C175.46 13.4266 175.667 13.587 175.72 13.8132L176.712 18.038C176.832 18.5502 177.583 18.5548 177.71 18.0442L178.764 13.8071C178.819 13.5839 179.025 13.4266 179.262 13.4266H184.487C184.835 13.4266 185.082 13.756 184.975 14.077L180.119 28.5734C179.135 31.6445 178.151 34 175.137 34C173.05 34 171.893 33.4327 171.717 33.3293C171.701 33.3198 171.685 33.31 171.668 33.3018C171.608 33.2729 171.571 33.2137 171.571 33.149V29.275C171.571 29.1066 171.756 28.9997 171.909 29.0803C171.909 29.0803 172.924 29.617 173.662 29.2294C173.877 29.1101 174.061 28.9312 174.184 28.6628Z" stroke="#E6E2DE" stroke-width="16" stroke-linejoin="round" mask="url(#path-4-outside-1_1173_19)"/>
<path d="M159.471 29.0803C157.35 29.0803 155.505 28.3647 154.152 26.9633C152.768 25.5321 152.03 23.4748 152.03 21.0597C152.03 18.9427 152.737 17.0046 153.998 15.5436C155.382 13.9633 157.288 13.1284 159.502 13.1284C160.521 13.1284 161.349 13.3556 162.037 13.6826C162.41 13.8598 162.885 13.6173 162.885 13.2147V8.49694C162.885 8.22249 163.114 8 163.397 8H167.938C168.221 8 168.45 8.22249 168.45 8.49694V28.2554C168.45 28.5298 168.221 28.7523 167.938 28.7523H163.862C163.679 28.7523 163.53 28.6082 163.53 28.4305C163.53 28.162 163.206 28.0059 162.971 28.1471C162.123 28.6551 160.957 29.0803 159.471 29.0803ZM157.749 21.0298C157.749 22.3716 158.918 23.5046 160.332 23.5046C161.778 23.5046 162.946 22.3716 162.946 21.0298C162.946 19.6583 161.778 18.5551 160.332 18.5551C158.918 18.5551 157.749 19.6583 157.749 21.0298Z" stroke="#E6E2DE" stroke-width="16" stroke-linejoin="round" mask="url(#path-4-outside-1_1173_19)"/>
<path d="M143.131 29.3187C138.58 29.3187 134.86 25.7109 134.86 21.2981C134.86 16.8852 138.58 13.2774 143.131 13.2774C147.682 13.2774 151.403 16.8852 151.403 21.2981C151.403 25.7109 147.682 29.3187 143.131 29.3187ZM140.425 21.2981C140.425 22.7293 141.655 23.9219 143.131 23.9219C144.607 23.9219 145.837 22.7293 145.837 21.2981C145.837 19.8669 144.607 18.6742 143.131 18.6742C141.655 18.6742 140.425 19.8669 140.425 21.2981Z" stroke="#E6E2DE" stroke-width="16" stroke-linejoin="round" mask="url(#path-4-outside-1_1173_19)"/>
<path d="M123.48 28.1698C123.255 28.0385 122.953 28.1884 122.953 28.4427C122.953 28.6137 122.81 28.7523 122.634 28.7523H118.576C118.293 28.7523 118.064 28.5298 118.064 28.2554V8.49694C118.064 8.22249 118.293 8 118.576 8H123.117C123.4 8 123.63 8.22249 123.63 8.49694V13.2454C123.63 13.6589 124.133 13.9052 124.514 13.7189C125.233 13.367 126.121 13.1284 127.196 13.1284C129.318 13.1284 131.102 13.9335 132.393 15.4541C133.592 16.8555 134.238 18.7638 134.238 20.8509C134.238 23.2959 133.531 25.3831 132.147 26.8739C130.825 28.3051 128.918 29.0803 126.827 29.0803C125.433 29.0803 124.301 28.6501 123.48 28.1698ZM123.568 21.0298C123.568 22.3716 124.706 23.4748 126.089 23.4748C127.504 23.4748 128.642 22.3716 128.642 21.0298C128.642 19.6583 127.504 18.5551 126.089 18.5551C124.706 18.5551 123.568 19.6583 123.568 21.0298Z" stroke="#E6E2DE" stroke-width="16" stroke-linejoin="round" mask="url(#path-4-outside-1_1173_19)"/>
<path d="M108.857 29.3187C104.307 29.3187 100.586 25.7109 100.586 21.2981C100.586 16.8852 104.307 13.2774 108.857 13.2774C113.408 13.2774 117.129 16.8852 117.129 21.2981C117.129 25.7109 113.408 29.3187 108.857 29.3187ZM106.152 21.2981C106.152 22.7293 107.381 23.9219 108.857 23.9219C110.333 23.9219 111.563 22.7293 111.563 21.2981C111.563 19.8669 110.333 18.6742 108.857 18.6742C107.381 18.6742 106.152 19.8669 106.152 21.2981Z" stroke="#E6E2DE" stroke-width="16" stroke-linejoin="round" mask="url(#path-4-outside-1_1173_19)"/>
<path d="M94.2065 8.52671C94.2065 8.25225 94.4359 8.02976 94.7189 8.02976H99.2903C99.5733 8.02976 99.8028 8.25225 99.8028 8.52671V28.2851C99.8028 28.5596 99.5733 28.7821 99.2903 28.7821H94.7189C94.4359 28.7821 94.2065 28.5596 94.2065 28.2851V8.52671Z" stroke="#E6E2DE" stroke-width="16" stroke-linejoin="round" mask="url(#path-4-outside-1_1173_19)"/>
<path d="M87.5195 8.52671C87.5195 8.25225 87.7489 8.02976 88.032 8.02976H92.6033C92.8864 8.02976 93.1158 8.25225 93.1158 8.52671V28.2851C93.1158 28.5596 92.8864 28.7821 92.6033 28.7821H88.032C87.7489 28.7821 87.5195 28.5596 87.5195 28.2851V8.52671Z" stroke="#E6E2DE" stroke-width="16" stroke-linejoin="round" mask="url(#path-4-outside-1_1173_19)"/>
<path d="M79.6949 29.289C77.6347 29.289 75.6053 28.4839 74.1601 27.1422C72.5611 25.6513 71.7002 23.594 71.7002 21.3279C71.7002 18.1972 73.0224 16.2889 74.1601 15.2454C75.6053 13.9036 77.6347 13.188 79.6642 13.2775C84.2458 13.4862 85.937 16.3486 86.552 18.7339C86.5708 18.8251 86.5343 18.9188 86.4581 18.9752L80.0679 23.7013C79.7589 23.9298 79.8617 24.3769 80.2484 24.3394C82.9851 24.1605 84.7685 21.8348 84.7993 21.805C84.9189 21.6543 85.1659 21.7107 85.2036 21.8973L86.1658 26.6695C86.1768 26.724 86.1652 26.7805 86.1334 26.8267C86.1255 26.8382 86.1165 26.849 86.1067 26.859C85.8918 27.0793 83.7453 29.289 79.6949 29.289ZM77.4195 18.8234C76.866 19.3899 76.5893 20.1651 76.62 20.9701C76.62 21.0813 76.7818 21.1427 76.8734 21.0758L79.9878 18.7992C80.2916 18.5771 80.2465 18.1168 79.8737 18.0433C79.7049 18.0101 79.5128 17.9885 79.2952 17.9885C78.6187 17.9885 77.9422 18.2867 77.4195 18.8234Z" stroke="#E6E2DE" stroke-width="16" stroke-linejoin="round" mask="url(#path-4-outside-1_1173_19)"/>
<path d="M62.5648 19.9564V28.2554C62.5648 28.5298 62.3354 28.7523 62.0524 28.7523H57.5125C57.2292 28.7523 56.9996 28.5294 57 28.2547L57.0293 8.49623C57.0297 8.22205 57.259 8 57.5418 8H62.0524C62.3354 8 62.5648 8.22249 62.5648 8.49694V13.1457C62.5648 13.5759 63.1136 13.8254 63.5071 13.6265C64.0991 13.3272 64.8704 13.0986 65.855 13.0986C68.2534 13.0986 70.7749 14.5298 70.7749 18.5252V28.2554C70.7749 28.5298 70.5454 28.7523 70.2624 28.7523H65.6295C65.3465 28.7523 65.117 28.5298 65.117 28.2554V20.1353C65.117 19.0918 64.6558 18.406 63.9178 18.406C63.5488 18.406 63.2106 18.5551 62.9646 18.8532C62.7186 19.1514 62.5648 19.539 62.5648 19.9564Z" stroke="#E6E2DE" stroke-width="16" stroke-linejoin="round" mask="url(#path-4-outside-1_1173_19)"/>
</svg>
