<svg width="242" height="240" viewBox="0 0 242 240" fill="none" xmlns="http://www.w3.org/2000/svg">
<rect y="80" width="242" height="160" rx="12" fill="#E6E2DE"/>
<path d="M86.7638 154.559H84.3318V143.071H86.7638V147.599H91.7398V143.071H94.1718V154.559H91.7398V149.695H86.7638V154.559ZM99.8949 154.703C97.3349 154.703 95.6229 152.927 95.6229 150.255C95.6229 147.711 97.3989 145.855 99.8629 145.855C102.567 145.855 104.359 148.047 103.959 150.831H97.8949C98.0389 152.223 98.7109 152.991 99.8469 152.991C100.823 152.991 101.479 152.511 101.735 151.663H103.943C103.463 153.599 101.975 154.703 99.8949 154.703ZM99.8149 147.487C98.7749 147.487 98.1189 148.159 97.9269 149.423H101.607C101.543 148.239 100.871 147.487 99.8149 147.487ZM107.529 154.559H105.289V143.071H107.529V154.559ZM111.603 154.559H109.363V143.071H111.603V154.559ZM117.213 154.719C114.733 154.719 112.877 152.767 112.877 150.287C112.877 147.791 114.733 145.855 117.213 145.855C119.693 145.855 121.549 147.791 121.549 150.287C121.549 152.767 119.693 154.719 117.213 154.719ZM117.213 152.751C118.317 152.751 119.261 151.871 119.261 150.287C119.261 148.703 118.317 147.839 117.213 147.839C116.109 147.839 115.165 148.703 115.165 150.287C115.165 151.871 116.109 152.751 117.213 152.751ZM131.593 151.183C131.593 153.311 130.025 154.559 127.497 154.559H123.001V143.071H127.321C129.737 143.071 131.225 144.159 131.225 146.127C131.225 147.183 130.633 148.031 129.609 148.559C130.889 149.007 131.593 149.919 131.593 151.183ZM127.129 144.991H125.209V147.663H127.129C128.313 147.663 128.921 147.151 128.921 146.319C128.921 145.503 128.313 144.991 127.129 144.991ZM127.305 149.599H125.209V152.639H127.305C128.617 152.639 129.305 152.063 129.305 151.087C129.305 150.175 128.617 149.599 127.305 149.599ZM136.784 154.719C134.304 154.719 132.448 152.767 132.448 150.287C132.448 147.791 134.304 145.855 136.784 145.855C139.264 145.855 141.12 147.791 141.12 150.287C141.12 152.767 139.264 154.719 136.784 154.719ZM136.784 152.751C137.888 152.751 138.832 151.871 138.832 150.287C138.832 148.703 137.888 147.839 136.784 147.839C135.68 147.839 134.736 148.703 134.736 150.287C134.736 151.871 135.68 152.751 136.784 152.751ZM141.819 150.287C141.819 147.759 143.307 145.855 145.611 145.855C146.635 145.855 147.499 146.303 148.139 147.119V143.071H150.347V154.559H148.315V153.327C147.643 154.223 146.715 154.719 145.611 154.719C143.307 154.719 141.819 152.783 141.819 150.287ZM144.107 150.287C144.107 151.887 145.019 152.735 146.107 152.735C147.211 152.735 148.123 151.871 148.123 150.255C148.123 148.639 147.195 147.823 146.107 147.823C145.019 147.823 144.107 148.655 144.107 150.287ZM159.868 146.015L155.708 157.647H153.292L154.508 154.463L151.148 146.015H153.548L155.692 151.871L157.644 146.015H159.868Z" fill="#1A1A1A"/>
<path d="M88.5091 174.559H82.4191V164.507H83.9591V173.173H88.5091V174.559ZM92.5316 174.699C90.4316 174.699 88.8916 173.047 88.8916 170.849C88.8916 168.651 90.4316 166.999 92.5316 166.999C94.6316 166.999 96.1716 168.651 96.1716 170.849C96.1716 173.047 94.6316 174.699 92.5316 174.699ZM92.5316 173.453C93.7496 173.453 94.7156 172.473 94.7156 170.849C94.7156 169.225 93.7496 168.259 92.5316 168.259C91.3136 168.259 90.3616 169.225 90.3616 170.849C90.3616 172.473 91.3136 173.453 92.5316 173.453ZM100.164 177.415C98.2183 177.415 96.9583 176.379 96.8743 174.699H98.2463C98.3303 175.735 99.0023 176.295 100.15 176.295C101.424 176.295 102.096 175.609 102.096 174.335V172.991C101.676 173.887 100.836 174.405 99.8283 174.405C97.9803 174.405 96.6643 172.879 96.6643 170.695C96.6643 168.483 97.9243 166.999 99.7863 166.999C100.85 166.999 101.69 167.517 102.194 168.455V167.139H103.51V174.307C103.51 176.253 102.264 177.415 100.164 177.415ZM98.0923 170.695C98.0923 172.235 98.8483 173.173 100.08 173.173C101.284 173.173 102.096 172.207 102.096 170.737C102.096 169.197 101.298 168.217 100.08 168.217C98.8623 168.217 98.0923 169.169 98.0923 170.695ZM108.296 174.699C106.196 174.699 104.656 173.047 104.656 170.849C104.656 168.651 106.196 166.999 108.296 166.999C110.396 166.999 111.936 168.651 111.936 170.849C111.936 173.047 110.396 174.699 108.296 174.699ZM108.296 173.453C109.514 173.453 110.48 172.473 110.48 170.849C110.48 169.225 109.514 168.259 108.296 168.259C107.078 168.259 106.126 169.225 106.126 170.849C106.126 172.473 107.078 173.453 108.296 173.453ZM119.033 174.559H115.855V164.507H119.033C122.239 164.507 124.087 166.551 124.087 169.491C124.087 172.389 122.169 174.559 119.033 174.559ZM117.395 165.837V173.229H118.963C121.273 173.229 122.519 171.801 122.519 169.491C122.519 167.223 121.287 165.837 118.963 165.837H117.395ZM128.359 174.699C126.217 174.699 124.775 173.145 124.775 170.807C124.775 168.609 126.273 166.999 128.317 166.999C130.529 166.999 131.999 168.791 131.747 171.199H126.217C126.329 172.711 127.085 173.593 128.331 173.593C129.381 173.593 130.109 173.019 130.347 172.053H131.747C131.383 173.705 130.109 174.699 128.359 174.699ZM128.289 168.063C127.155 168.063 126.385 168.875 126.231 170.261H130.249C130.179 168.889 129.437 168.063 128.289 168.063ZM138.85 172.347C138.85 173.803 137.716 174.699 135.742 174.699C133.782 174.699 132.62 173.733 132.48 172.137H133.838C133.894 173.061 134.636 173.635 135.77 173.635C136.764 173.635 137.422 173.285 137.422 172.585C137.422 171.969 137.044 171.703 136.12 171.521L134.916 171.297C133.544 171.031 132.774 170.331 132.774 169.211C132.774 167.909 133.908 166.999 135.63 166.999C137.408 166.999 138.612 167.951 138.738 169.477H137.38C137.296 168.581 136.638 168.063 135.644 168.063C134.748 168.063 134.146 168.441 134.146 169.085C134.146 169.687 134.524 169.967 135.42 170.135L136.68 170.373C138.15 170.639 138.85 171.283 138.85 172.347ZM141.836 165.417C141.836 165.949 141.416 166.355 140.814 166.355C140.212 166.355 139.778 165.949 139.778 165.417C139.778 164.871 140.212 164.479 140.814 164.479C141.416 164.479 141.836 164.871 141.836 165.417ZM141.528 174.559H140.114V167.139H141.528V174.559ZM146.179 177.415C144.233 177.415 142.973 176.379 142.889 174.699H144.261C144.345 175.735 145.017 176.295 146.165 176.295C147.439 176.295 148.111 175.609 148.111 174.335V172.991C147.691 173.887 146.851 174.405 145.843 174.405C143.995 174.405 142.679 172.879 142.679 170.695C142.679 168.483 143.939 166.999 145.801 166.999C146.865 166.999 147.705 167.517 148.209 168.455V167.139H149.525V174.307C149.525 176.253 148.279 177.415 146.179 177.415ZM144.107 170.695C144.107 172.235 144.863 173.173 146.095 173.173C147.299 173.173 148.111 172.207 148.111 170.737C148.111 169.197 147.313 168.217 146.095 168.217C144.877 168.217 144.107 169.169 144.107 170.695ZM152.616 170.373V174.559H151.202V167.139H152.518V168.371C153.022 167.545 153.862 166.999 154.884 166.999C156.41 166.999 157.418 167.979 157.418 169.757V174.559H156.004V170.233C156.004 168.959 155.444 168.245 154.394 168.245C153.428 168.245 152.616 169.057 152.616 170.373ZM160.934 173.957C160.934 175.287 159.884 176.323 158.344 176.351V175.553C159.254 175.525 159.87 175.035 159.954 174.349C159.828 174.391 159.744 174.405 159.646 174.405C159.114 174.405 158.722 173.971 158.722 173.453C158.722 172.851 159.17 172.459 159.744 172.459C160.514 172.459 160.934 173.019 160.934 173.957ZM62.9278 188.675C62.9278 190.509 61.5838 191.559 59.4978 191.559H55.8158V181.507H59.3018C61.3318 181.507 62.5498 182.445 62.5498 184.139C62.5498 185.091 61.9758 185.903 61.0098 186.323C62.2558 186.673 62.9278 187.527 62.9278 188.675ZM59.2038 182.739H57.2298V185.763H59.2038C60.4218 185.763 61.0798 185.189 61.0798 184.251C61.0798 183.313 60.4218 182.739 59.2038 182.739ZM59.3998 186.995H57.2298V190.327H59.3998C60.7158 190.327 61.4578 189.697 61.4578 188.633C61.4578 187.611 60.7158 186.995 59.3998 186.995ZM65.7246 187.765V191.559H64.3106V184.139H65.6266V185.707C66.1446 184.685 67.2646 184.041 68.4826 184.041V185.511C66.8866 185.427 65.7246 186.127 65.7246 187.765ZM73.8156 191.559V190.411C73.3536 191.237 72.5276 191.699 71.4356 191.699C69.8956 191.699 68.8876 190.817 68.8876 189.459C68.8876 188.003 70.0496 187.247 72.2616 187.247C72.6956 187.247 73.0456 187.261 73.6476 187.331V186.785C73.6476 185.721 73.0736 185.119 72.0936 185.119C71.0576 185.119 70.4276 185.735 70.3856 186.771H69.0976C69.1676 185.105 70.3576 183.999 72.0936 183.999C73.9276 183.999 74.9916 185.035 74.9916 186.799V191.559H73.8156ZM70.2316 189.417C70.2316 190.187 70.8056 190.691 71.7156 190.691C72.9056 190.691 73.6476 189.949 73.6476 188.815V188.213C73.1016 188.143 72.7096 188.129 72.3456 188.129C70.9316 188.129 70.2316 188.549 70.2316 189.417ZM78.0161 187.373V191.559H76.6021V184.139H77.9181V185.371C78.4221 184.545 79.2621 183.999 80.2841 183.999C81.8101 183.999 82.8181 184.979 82.8181 186.757V191.559H81.4041V187.233C81.4041 185.959 80.8441 185.245 79.7941 185.245C78.8281 185.245 78.0161 186.057 78.0161 187.373ZM83.8839 187.849C83.8839 185.595 85.1719 183.999 87.1739 183.999C88.1679 183.999 89.0359 184.503 89.5539 185.413V181.507H90.9679V191.559H89.6519V190.229C89.1199 191.167 88.2239 191.699 87.1739 191.699C85.1719 191.699 83.8839 190.075 83.8839 187.849ZM85.3539 187.849C85.3539 189.501 86.2219 190.439 87.4539 190.439C88.6579 190.439 89.5539 189.459 89.5539 187.821C89.5539 186.155 88.6299 185.245 87.4539 185.245C86.2219 185.245 85.3539 186.169 85.3539 187.849ZM96.9512 191.559H95.4112V181.507H96.9512V191.559ZM98.206 187.849C98.206 185.595 99.494 183.999 101.496 183.999C102.49 183.999 103.358 184.503 103.876 185.413V181.507H105.29V191.559H103.974V190.229C103.442 191.167 102.546 191.699 101.496 191.699C99.494 191.699 98.206 190.075 98.206 187.849ZM99.676 187.849C99.676 189.501 100.544 190.439 101.776 190.439C102.98 190.439 103.876 189.459 103.876 187.821C103.876 186.155 102.952 185.245 101.776 185.245C100.544 185.245 99.676 186.169 99.676 187.849ZM110.028 191.699C107.886 191.699 106.444 190.145 106.444 187.807C106.444 185.609 107.942 183.999 109.986 183.999C112.198 183.999 113.668 185.791 113.416 188.199H107.886C107.998 189.711 108.754 190.593 110 190.593C111.05 190.593 111.778 190.019 112.016 189.053H113.416C113.052 190.705 111.778 191.699 110.028 191.699ZM109.958 185.063C108.824 185.063 108.054 185.875 107.9 187.261H111.918C111.848 185.889 111.106 185.063 109.958 185.063ZM116.053 187.373V191.559H114.639V184.139H115.955V185.371C116.459 184.545 117.299 183.999 118.321 183.999C119.847 183.999 120.855 184.979 120.855 186.757V191.559H119.441V187.233C119.441 185.959 118.881 185.245 117.831 185.245C116.865 185.245 116.053 186.057 116.053 187.373ZM126.611 190.187V191.433C126.177 191.629 125.799 191.699 125.351 191.699C123.979 191.699 123.027 190.957 123.027 189.319V185.343H121.389V184.139H123.027V181.941H124.441V184.139H126.681V185.343H124.441V188.997C124.441 190.019 124.931 190.383 125.687 190.383C126.023 190.383 126.317 190.327 126.611 190.187ZM129.473 182.417C129.473 182.949 129.053 183.355 128.451 183.355C127.849 183.355 127.415 182.949 127.415 182.417C127.415 181.871 127.849 181.479 128.451 181.479C129.053 181.479 129.473 181.871 129.473 182.417ZM129.165 191.559H127.751V184.139H129.165V191.559ZM135.034 190.187V191.433C134.6 191.629 134.222 191.699 133.774 191.699C132.402 191.699 131.45 190.957 131.45 189.319V185.343H129.812V184.139H131.45V181.941H132.864V184.139H135.104V185.343H132.864V188.997C132.864 190.019 133.354 190.383 134.11 190.383C134.446 190.383 134.74 190.327 135.034 190.187ZM142.333 184.139L138.623 194.261H137.083L138.147 191.461L135.221 184.139H136.747L138.903 189.795L140.905 184.139H142.333ZM148.993 191.559H145.815V181.507H148.993C152.199 181.507 154.047 183.551 154.047 186.491C154.047 189.389 152.129 191.559 148.993 191.559ZM147.355 182.837V190.229H148.923C151.233 190.229 152.479 188.801 152.479 186.491C152.479 184.223 151.247 182.837 148.923 182.837H147.355ZM158.319 191.699C156.177 191.699 154.735 190.145 154.735 187.807C154.735 185.609 156.233 183.999 158.277 183.999C160.489 183.999 161.959 185.791 161.707 188.199H156.177C156.289 189.711 157.045 190.593 158.291 190.593C159.341 190.593 160.069 190.019 160.307 189.053H161.707C161.343 190.705 160.069 191.699 158.319 191.699ZM158.249 185.063C157.115 185.063 156.345 185.875 156.191 187.261H160.209C160.139 185.889 159.397 185.063 158.249 185.063ZM168.81 189.347C168.81 190.803 167.676 191.699 165.702 191.699C163.742 191.699 162.58 190.733 162.44 189.137H163.798C163.854 190.061 164.596 190.635 165.73 190.635C166.724 190.635 167.382 190.285 167.382 189.585C167.382 188.969 167.004 188.703 166.08 188.521L164.876 188.297C163.504 188.031 162.734 187.331 162.734 186.211C162.734 184.909 163.868 183.999 165.59 183.999C167.368 183.999 168.572 184.951 168.698 186.477H167.34C167.256 185.581 166.598 185.063 165.604 185.063C164.708 185.063 164.106 185.441 164.106 186.085C164.106 186.687 164.484 186.967 165.38 187.135L166.64 187.373C168.11 187.639 168.81 188.283 168.81 189.347ZM171.796 182.417C171.796 182.949 171.376 183.355 170.774 183.355C170.172 183.355 169.738 182.949 169.738 182.417C169.738 181.871 170.172 181.479 170.774 181.479C171.376 181.479 171.796 181.871 171.796 182.417ZM171.488 191.559H170.074V184.139H171.488V191.559ZM176.139 194.415C174.193 194.415 172.933 193.379 172.849 191.699H174.221C174.305 192.735 174.977 193.295 176.125 193.295C177.399 193.295 178.071 192.609 178.071 191.335V189.991C177.651 190.887 176.811 191.405 175.803 191.405C173.955 191.405 172.639 189.879 172.639 187.695C172.639 185.483 173.899 183.999 175.761 183.999C176.825 183.999 177.665 184.517 178.169 185.455V184.139H179.485V191.307C179.485 193.253 178.239 194.415 176.139 194.415ZM174.067 187.695C174.067 189.235 174.823 190.173 176.055 190.173C177.259 190.173 178.071 189.207 178.071 187.737C178.071 186.197 177.273 185.217 176.055 185.217C174.837 185.217 174.067 186.169 174.067 187.695ZM182.576 187.373V191.559H181.162V184.139H182.478V185.371C182.982 184.545 183.822 183.999 184.844 183.999C186.37 183.999 187.378 184.979 187.378 186.757V191.559H185.964V187.233C185.964 185.959 185.404 185.245 184.354 185.245C183.388 185.245 182.576 186.057 182.576 187.373Z" fill="#1A1A1A"/>
<mask id="path-4-outside-1_1195_462" maskUnits="userSpaceOnUse" x="49" y="59" width="145" height="42" fill="black">
<rect fill="white" x="49" y="59" width="145" height="42"/>
<path d="M174.184 87.6628C174.399 87.2156 174.399 86.6789 174.246 86.2018L169.504 73.088C169.387 72.7648 169.634 72.4266 169.987 72.4266H175.221C175.46 72.4266 175.667 72.587 175.72 72.8132L176.712 77.038C176.832 77.5502 177.583 77.5548 177.71 77.0442L178.764 72.8071C178.819 72.5839 179.025 72.4266 179.262 72.4266H184.487C184.835 72.4266 185.082 72.756 184.975 73.077L180.119 87.5734C179.135 90.6445 178.151 93 175.137 93C173.05 93 171.893 92.4327 171.717 92.3293C171.701 92.3198 171.685 92.31 171.668 92.3018C171.608 92.2729 171.571 92.2137 171.571 92.149V88.275C171.571 88.1066 171.756 87.9997 171.909 88.0803C171.909 88.0803 172.924 88.617 173.662 88.2294C173.877 88.1101 174.061 87.9312 174.184 87.6628Z"/>
<path d="M159.471 88.0803C157.35 88.0803 155.505 87.3647 154.152 85.9633C152.768 84.5321 152.03 82.4748 152.03 80.0597C152.03 77.9427 152.737 76.0046 153.998 74.5436C155.382 72.9633 157.288 72.1284 159.502 72.1284C160.521 72.1284 161.349 72.3556 162.037 72.6826C162.41 72.8598 162.885 72.6173 162.885 72.2147V67.4969C162.885 67.2225 163.114 67 163.397 67H167.938C168.221 67 168.45 67.2225 168.45 67.4969V87.2554C168.45 87.5298 168.221 87.7523 167.938 87.7523H163.862C163.679 87.7523 163.53 87.6082 163.53 87.4305C163.53 87.162 163.206 87.0059 162.971 87.1471C162.123 87.6551 160.957 88.0803 159.471 88.0803ZM157.749 80.0298C157.749 81.3716 158.918 82.5046 160.332 82.5046C161.778 82.5046 162.946 81.3716 162.946 80.0298C162.946 78.6583 161.778 77.5551 160.332 77.5551C158.918 77.5551 157.749 78.6583 157.749 80.0298Z"/>
<path d="M143.131 88.3187C138.58 88.3187 134.86 84.7109 134.86 80.2981C134.86 75.8852 138.58 72.2774 143.131 72.2774C147.682 72.2774 151.403 75.8852 151.403 80.2981C151.403 84.7109 147.682 88.3187 143.131 88.3187ZM140.425 80.2981C140.425 81.7293 141.655 82.9219 143.131 82.9219C144.607 82.9219 145.837 81.7293 145.837 80.2981C145.837 78.8669 144.607 77.6742 143.131 77.6742C141.655 77.6742 140.425 78.8669 140.425 80.2981Z"/>
<path d="M123.48 87.1698C123.255 87.0385 122.953 87.1884 122.953 87.4427C122.953 87.6137 122.81 87.7523 122.634 87.7523H118.576C118.293 87.7523 118.064 87.5298 118.064 87.2554V67.4969C118.064 67.2225 118.293 67 118.576 67H123.117C123.4 67 123.63 67.2225 123.63 67.4969V72.2454C123.63 72.6589 124.133 72.9052 124.514 72.7189C125.233 72.367 126.121 72.1284 127.196 72.1284C129.318 72.1284 131.102 72.9335 132.393 74.4541C133.592 75.8555 134.238 77.7638 134.238 79.8509C134.238 82.2959 133.531 84.3831 132.147 85.8739C130.825 87.3051 128.918 88.0803 126.827 88.0803C125.433 88.0803 124.301 87.6501 123.48 87.1698ZM123.568 80.0298C123.568 81.3716 124.706 82.4748 126.089 82.4748C127.504 82.4748 128.642 81.3716 128.642 80.0298C128.642 78.6583 127.504 77.5551 126.089 77.5551C124.706 77.5551 123.568 78.6583 123.568 80.0298Z"/>
<path d="M108.857 88.3187C104.307 88.3187 100.586 84.7109 100.586 80.2981C100.586 75.8852 104.307 72.2774 108.857 72.2774C113.408 72.2774 117.129 75.8852 117.129 80.2981C117.129 84.7109 113.408 88.3187 108.857 88.3187ZM106.152 80.2981C106.152 81.7293 107.381 82.9219 108.857 82.9219C110.333 82.9219 111.563 81.7293 111.563 80.2981C111.563 78.8669 110.333 77.6742 108.857 77.6742C107.381 77.6742 106.152 78.8669 106.152 80.2981Z"/>
<path d="M94.2065 67.5267C94.2065 67.2523 94.4359 67.0298 94.7189 67.0298H99.2903C99.5733 67.0298 99.8028 67.2523 99.8028 67.5267V87.2851C99.8028 87.5596 99.5733 87.7821 99.2903 87.7821H94.7189C94.4359 87.7821 94.2065 87.5596 94.2065 87.2851V67.5267Z"/>
<path d="M87.5195 67.5267C87.5195 67.2523 87.7489 67.0298 88.032 67.0298H92.6033C92.8864 67.0298 93.1158 67.2523 93.1158 67.5267V87.2851C93.1158 87.5596 92.8864 87.7821 92.6033 87.7821H88.032C87.7489 87.7821 87.5195 87.5596 87.5195 87.2851V67.5267Z"/>
<path d="M79.6949 88.289C77.6347 88.289 75.6053 87.4839 74.1601 86.1422C72.5611 84.6513 71.7002 82.594 71.7002 80.3279C71.7002 77.1972 73.0224 75.2889 74.1601 74.2454C75.6053 72.9036 77.6347 72.188 79.6642 72.2775C84.2458 72.4862 85.937 75.3486 86.552 77.7339C86.5708 77.8251 86.5343 77.9188 86.4581 77.9752L80.0679 82.7013C79.7589 82.9298 79.8617 83.3769 80.2484 83.3394C82.9851 83.1605 84.7685 80.8348 84.7993 80.805C84.9189 80.6543 85.1659 80.7107 85.2035 80.8973L86.1658 85.6695C86.1768 85.724 86.1652 85.7805 86.1334 85.8267C86.1255 85.8382 86.1165 85.849 86.1067 85.859C85.8918 86.0793 83.7453 88.289 79.6949 88.289ZM77.4195 77.8234C76.866 78.3899 76.5893 79.1651 76.62 79.9701C76.62 80.0813 76.7818 80.1427 76.8734 80.0758L79.9878 77.7992C80.2916 77.5771 80.2465 77.1168 79.8737 77.0433C79.7049 77.0101 79.5128 76.9885 79.2952 76.9885C78.6187 76.9885 77.9422 77.2867 77.4195 77.8234Z"/>
<path d="M62.5648 78.9564V87.2554C62.5648 87.5298 62.3354 87.7523 62.0524 87.7523H57.5125C57.2292 87.7523 56.9996 87.5294 57 87.2547L57.0293 67.4962C57.0297 67.2221 57.259 67 57.5418 67H62.0524C62.3354 67 62.5648 67.2225 62.5648 67.4969V72.1457C62.5648 72.5759 63.1136 72.8254 63.5071 72.6265C64.0991 72.3272 64.8704 72.0986 65.855 72.0986C68.2534 72.0986 70.7749 73.5298 70.7749 77.5252V87.2554C70.7749 87.5298 70.5454 87.7523 70.2624 87.7523H65.6295C65.3465 87.7523 65.117 87.5298 65.117 87.2554V79.1353C65.117 78.0918 64.6558 77.406 63.9178 77.406C63.5488 77.406 63.2106 77.5551 62.9646 77.8532C62.7186 78.1514 62.5648 78.539 62.5648 78.9564Z"/>
</mask>
<path d="M174.184 87.6628C174.399 87.2156 174.399 86.6789 174.246 86.2018L169.504 73.088C169.387 72.7648 169.634 72.4266 169.987 72.4266H175.221C175.46 72.4266 175.667 72.587 175.72 72.8132L176.712 77.038C176.832 77.5502 177.583 77.5548 177.71 77.0442L178.764 72.8071C178.819 72.5839 179.025 72.4266 179.262 72.4266H184.487C184.835 72.4266 185.082 72.756 184.975 73.077L180.119 87.5734C179.135 90.6445 178.151 93 175.137 93C173.05 93 171.893 92.4327 171.717 92.3293C171.701 92.3198 171.685 92.31 171.668 92.3018C171.608 92.2729 171.571 92.2137 171.571 92.149V88.275C171.571 88.1066 171.756 87.9997 171.909 88.0803C171.909 88.0803 172.924 88.617 173.662 88.2294C173.877 88.1101 174.061 87.9312 174.184 87.6628Z" fill="#1A1A1A"/>
<path d="M159.471 88.0803C157.35 88.0803 155.505 87.3647 154.152 85.9633C152.768 84.5321 152.03 82.4748 152.03 80.0597C152.03 77.9427 152.737 76.0046 153.998 74.5436C155.382 72.9633 157.288 72.1284 159.502 72.1284C160.521 72.1284 161.349 72.3556 162.037 72.6826C162.41 72.8598 162.885 72.6173 162.885 72.2147V67.4969C162.885 67.2225 163.114 67 163.397 67H167.938C168.221 67 168.45 67.2225 168.45 67.4969V87.2554C168.45 87.5298 168.221 87.7523 167.938 87.7523H163.862C163.679 87.7523 163.53 87.6082 163.53 87.4305C163.53 87.162 163.206 87.0059 162.971 87.1471C162.123 87.6551 160.957 88.0803 159.471 88.0803ZM157.749 80.0298C157.749 81.3716 158.918 82.5046 160.332 82.5046C161.778 82.5046 162.946 81.3716 162.946 80.0298C162.946 78.6583 161.778 77.5551 160.332 77.5551C158.918 77.5551 157.749 78.6583 157.749 80.0298Z" fill="#1A1A1A"/>
<path d="M143.131 88.3187C138.58 88.3187 134.86 84.7109 134.86 80.2981C134.86 75.8852 138.58 72.2774 143.131 72.2774C147.682 72.2774 151.403 75.8852 151.403 80.2981C151.403 84.7109 147.682 88.3187 143.131 88.3187ZM140.425 80.2981C140.425 81.7293 141.655 82.9219 143.131 82.9219C144.607 82.9219 145.837 81.7293 145.837 80.2981C145.837 78.8669 144.607 77.6742 143.131 77.6742C141.655 77.6742 140.425 78.8669 140.425 80.2981Z" fill="#1A1A1A"/>
<path d="M123.48 87.1698C123.255 87.0385 122.953 87.1884 122.953 87.4427C122.953 87.6137 122.81 87.7523 122.634 87.7523H118.576C118.293 87.7523 118.064 87.5298 118.064 87.2554V67.4969C118.064 67.2225 118.293 67 118.576 67H123.117C123.4 67 123.63 67.2225 123.63 67.4969V72.2454C123.63 72.6589 124.133 72.9052 124.514 72.7189C125.233 72.367 126.121 72.1284 127.196 72.1284C129.318 72.1284 131.102 72.9335 132.393 74.4541C133.592 75.8555 134.238 77.7638 134.238 79.8509C134.238 82.2959 133.531 84.3831 132.147 85.8739C130.825 87.3051 128.918 88.0803 126.827 88.0803C125.433 88.0803 124.301 87.6501 123.48 87.1698ZM123.568 80.0298C123.568 81.3716 124.706 82.4748 126.089 82.4748C127.504 82.4748 128.642 81.3716 128.642 80.0298C128.642 78.6583 127.504 77.5551 126.089 77.5551C124.706 77.5551 123.568 78.6583 123.568 80.0298Z" fill="#1A1A1A"/>
<path d="M108.857 88.3187C104.307 88.3187 100.586 84.7109 100.586 80.2981C100.586 75.8852 104.307 72.2774 108.857 72.2774C113.408 72.2774 117.129 75.8852 117.129 80.2981C117.129 84.7109 113.408 88.3187 108.857 88.3187ZM106.152 80.2981C106.152 81.7293 107.381 82.9219 108.857 82.9219C110.333 82.9219 111.563 81.7293 111.563 80.2981C111.563 78.8669 110.333 77.6742 108.857 77.6742C107.381 77.6742 106.152 78.8669 106.152 80.2981Z" fill="#1A1A1A"/>
<path d="M94.2065 67.5267C94.2065 67.2523 94.4359 67.0298 94.7189 67.0298H99.2903C99.5733 67.0298 99.8028 67.2523 99.8028 67.5267V87.2851C99.8028 87.5596 99.5733 87.7821 99.2903 87.7821H94.7189C94.4359 87.7821 94.2065 87.5596 94.2065 87.2851V67.5267Z" fill="#1A1A1A"/>
<path d="M87.5195 67.5267C87.5195 67.2523 87.7489 67.0298 88.032 67.0298H92.6033C92.8864 67.0298 93.1158 67.2523 93.1158 67.5267V87.2851C93.1158 87.5596 92.8864 87.7821 92.6033 87.7821H88.032C87.7489 87.7821 87.5195 87.5596 87.5195 87.2851V67.5267Z" fill="#1A1A1A"/>
<path d="M79.6949 88.289C77.6347 88.289 75.6053 87.4839 74.1601 86.1422C72.5611 84.6513 71.7002 82.594 71.7002 80.3279C71.7002 77.1972 73.0224 75.2889 74.1601 74.2454C75.6053 72.9036 77.6347 72.188 79.6642 72.2775C84.2458 72.4862 85.937 75.3486 86.552 77.7339C86.5708 77.8251 86.5343 77.9188 86.4581 77.9752L80.0679 82.7013C79.7589 82.9298 79.8617 83.3769 80.2484 83.3394C82.9851 83.1605 84.7685 80.8348 84.7993 80.805C84.9189 80.6543 85.1659 80.7107 85.2035 80.8973L86.1658 85.6695C86.1768 85.724 86.1652 85.7805 86.1334 85.8267C86.1255 85.8382 86.1165 85.849 86.1067 85.859C85.8918 86.0793 83.7453 88.289 79.6949 88.289ZM77.4195 77.8234C76.866 78.3899 76.5893 79.1651 76.62 79.9701C76.62 80.0813 76.7818 80.1427 76.8734 80.0758L79.9878 77.7992C80.2916 77.5771 80.2465 77.1168 79.8737 77.0433C79.7049 77.0101 79.5128 76.9885 79.2952 76.9885C78.6187 76.9885 77.9422 77.2867 77.4195 77.8234Z" fill="#1A1A1A"/>
<path d="M62.5648 78.9564V87.2554C62.5648 87.5298 62.3354 87.7523 62.0524 87.7523H57.5125C57.2292 87.7523 56.9996 87.5294 57 87.2547L57.0293 67.4962C57.0297 67.2221 57.259 67 57.5418 67H62.0524C62.3354 67 62.5648 67.2225 62.5648 67.4969V72.1457C62.5648 72.5759 63.1136 72.8254 63.5071 72.6265C64.0991 72.3272 64.8704 72.0986 65.855 72.0986C68.2534 72.0986 70.7749 73.5298 70.7749 77.5252V87.2554C70.7749 87.5298 70.5454 87.7523 70.2624 87.7523H65.6295C65.3465 87.7523 65.117 87.5298 65.117 87.2554V79.1353C65.117 78.0918 64.6558 77.406 63.9178 77.406C63.5488 77.406 63.2106 77.5551 62.9646 77.8532C62.7186 78.1514 62.5648 78.539 62.5648 78.9564Z" fill="#1A1A1A"/>
<path d="M174.184 87.6628C174.399 87.2156 174.399 86.6789 174.246 86.2018L169.504 73.088C169.387 72.7648 169.634 72.4266 169.987 72.4266H175.221C175.46 72.4266 175.667 72.587 175.72 72.8132L176.712 77.038C176.832 77.5502 177.583 77.5548 177.71 77.0442L178.764 72.8071C178.819 72.5839 179.025 72.4266 179.262 72.4266H184.487C184.835 72.4266 185.082 72.756 184.975 73.077L180.119 87.5734C179.135 90.6445 178.151 93 175.137 93C173.05 93 171.893 92.4327 171.717 92.3293C171.701 92.3198 171.685 92.31 171.668 92.3018C171.608 92.2729 171.571 92.2137 171.571 92.149V88.275C171.571 88.1066 171.756 87.9997 171.909 88.0803C171.909 88.0803 172.924 88.617 173.662 88.2294C173.877 88.1101 174.061 87.9312 174.184 87.6628Z" stroke="#E6E2DE" stroke-width="16" stroke-linejoin="round" mask="url(#path-4-outside-1_1195_462)"/>
<path d="M159.471 88.0803C157.35 88.0803 155.505 87.3647 154.152 85.9633C152.768 84.5321 152.03 82.4748 152.03 80.0597C152.03 77.9427 152.737 76.0046 153.998 74.5436C155.382 72.9633 157.288 72.1284 159.502 72.1284C160.521 72.1284 161.349 72.3556 162.037 72.6826C162.41 72.8598 162.885 72.6173 162.885 72.2147V67.4969C162.885 67.2225 163.114 67 163.397 67H167.938C168.221 67 168.45 67.2225 168.45 67.4969V87.2554C168.45 87.5298 168.221 87.7523 167.938 87.7523H163.862C163.679 87.7523 163.53 87.6082 163.53 87.4305C163.53 87.162 163.206 87.0059 162.971 87.1471C162.123 87.6551 160.957 88.0803 159.471 88.0803ZM157.749 80.0298C157.749 81.3716 158.918 82.5046 160.332 82.5046C161.778 82.5046 162.946 81.3716 162.946 80.0298C162.946 78.6583 161.778 77.5551 160.332 77.5551C158.918 77.5551 157.749 78.6583 157.749 80.0298Z" stroke="#E6E2DE" stroke-width="16" stroke-linejoin="round" mask="url(#path-4-outside-1_1195_462)"/>
<path d="M143.131 88.3187C138.58 88.3187 134.86 84.7109 134.86 80.2981C134.86 75.8852 138.58 72.2774 143.131 72.2774C147.682 72.2774 151.403 75.8852 151.403 80.2981C151.403 84.7109 147.682 88.3187 143.131 88.3187ZM140.425 80.2981C140.425 81.7293 141.655 82.9219 143.131 82.9219C144.607 82.9219 145.837 81.7293 145.837 80.2981C145.837 78.8669 144.607 77.6742 143.131 77.6742C141.655 77.6742 140.425 78.8669 140.425 80.2981Z" stroke="#E6E2DE" stroke-width="16" stroke-linejoin="round" mask="url(#path-4-outside-1_1195_462)"/>
<path d="M123.48 87.1698C123.255 87.0385 122.953 87.1884 122.953 87.4427C122.953 87.6137 122.81 87.7523 122.634 87.7523H118.576C118.293 87.7523 118.064 87.5298 118.064 87.2554V67.4969C118.064 67.2225 118.293 67 118.576 67H123.117C123.4 67 123.63 67.2225 123.63 67.4969V72.2454C123.63 72.6589 124.133 72.9052 124.514 72.7189C125.233 72.367 126.121 72.1284 127.196 72.1284C129.318 72.1284 131.102 72.9335 132.393 74.4541C133.592 75.8555 134.238 77.7638 134.238 79.8509C134.238 82.2959 133.531 84.3831 132.147 85.8739C130.825 87.3051 128.918 88.0803 126.827 88.0803C125.433 88.0803 124.301 87.6501 123.48 87.1698ZM123.568 80.0298C123.568 81.3716 124.706 82.4748 126.089 82.4748C127.504 82.4748 128.642 81.3716 128.642 80.0298C128.642 78.6583 127.504 77.5551 126.089 77.5551C124.706 77.5551 123.568 78.6583 123.568 80.0298Z" stroke="#E6E2DE" stroke-width="16" stroke-linejoin="round" mask="url(#path-4-outside-1_1195_462)"/>
<path d="M108.857 88.3187C104.307 88.3187 100.586 84.7109 100.586 80.2981C100.586 75.8852 104.307 72.2774 108.857 72.2774C113.408 72.2774 117.129 75.8852 117.129 80.2981C117.129 84.7109 113.408 88.3187 108.857 88.3187ZM106.152 80.2981C106.152 81.7293 107.381 82.9219 108.857 82.9219C110.333 82.9219 111.563 81.7293 111.563 80.2981C111.563 78.8669 110.333 77.6742 108.857 77.6742C107.381 77.6742 106.152 78.8669 106.152 80.2981Z" stroke="#E6E2DE" stroke-width="16" stroke-linejoin="round" mask="url(#path-4-outside-1_1195_462)"/>
<path d="M94.2065 67.5267C94.2065 67.2523 94.4359 67.0298 94.7189 67.0298H99.2903C99.5733 67.0298 99.8028 67.2523 99.8028 67.5267V87.2851C99.8028 87.5596 99.5733 87.7821 99.2903 87.7821H94.7189C94.4359 87.7821 94.2065 87.5596 94.2065 87.2851V67.5267Z" stroke="#E6E2DE" stroke-width="16" stroke-linejoin="round" mask="url(#path-4-outside-1_1195_462)"/>
<path d="M87.5195 67.5267C87.5195 67.2523 87.7489 67.0298 88.032 67.0298H92.6033C92.8864 67.0298 93.1158 67.2523 93.1158 67.5267V87.2851C93.1158 87.5596 92.8864 87.7821 92.6033 87.7821H88.032C87.7489 87.7821 87.5195 87.5596 87.5195 87.2851V67.5267Z" stroke="#E6E2DE" stroke-width="16" stroke-linejoin="round" mask="url(#path-4-outside-1_1195_462)"/>
<path d="M79.6949 88.289C77.6347 88.289 75.6053 87.4839 74.1601 86.1422C72.5611 84.6513 71.7002 82.594 71.7002 80.3279C71.7002 77.1972 73.0224 75.2889 74.1601 74.2454C75.6053 72.9036 77.6347 72.188 79.6642 72.2775C84.2458 72.4862 85.937 75.3486 86.552 77.7339C86.5708 77.8251 86.5343 77.9188 86.4581 77.9752L80.0679 82.7013C79.7589 82.9298 79.8617 83.3769 80.2484 83.3394C82.9851 83.1605 84.7685 80.8348 84.7993 80.805C84.9189 80.6543 85.1659 80.7107 85.2035 80.8973L86.1658 85.6695C86.1768 85.724 86.1652 85.7805 86.1334 85.8267C86.1255 85.8382 86.1165 85.849 86.1067 85.859C85.8918 86.0793 83.7453 88.289 79.6949 88.289ZM77.4195 77.8234C76.866 78.3899 76.5893 79.1651 76.62 79.9701C76.62 80.0813 76.7818 80.1427 76.8734 80.0758L79.9878 77.7992C80.2916 77.5771 80.2465 77.1168 79.8737 77.0433C79.7049 77.0101 79.5128 76.9885 79.2952 76.9885C78.6187 76.9885 77.9422 77.2867 77.4195 77.8234Z" stroke="#E6E2DE" stroke-width="16" stroke-linejoin="round" mask="url(#path-4-outside-1_1195_462)"/>
<path d="M62.5648 78.9564V87.2554C62.5648 87.5298 62.3354 87.7523 62.0524 87.7523H57.5125C57.2292 87.7523 56.9996 87.5294 57 87.2547L57.0293 67.4962C57.0297 67.2221 57.259 67 57.5418 67H62.0524C62.3354 67 62.5648 67.2225 62.5648 67.4969V72.1457C62.5648 72.5759 63.1136 72.8254 63.5071 72.6265C64.0991 72.3272 64.8704 72.0986 65.855 72.0986C68.2534 72.0986 70.7749 73.5298 70.7749 77.5252V87.2554C70.7749 87.5298 70.5454 87.7523 70.2624 87.7523H65.6295C65.3465 87.7523 65.117 87.5298 65.117 87.2554V79.1353C65.117 78.0918 64.6558 77.406 63.9178 77.406C63.5488 77.406 63.2106 77.5551 62.9646 77.8532C62.7186 78.1514 62.5648 78.539 62.5648 78.9564Z" stroke="#E6E2DE" stroke-width="16" stroke-linejoin="round" mask="url(#path-4-outside-1_1195_462)"/>
</svg>
