<svg width="242" height="184" viewBox="0 0 242 184" fill="none" xmlns="http://www.w3.org/2000/svg">
<rect y="23.9985" width="242" height="160" rx="12" fill="#E6E2DE"/>
<path d="M107.739 98.5581H105.307V87.0701H107.739V91.5981H112.715V87.0701H115.147V98.5581H112.715V93.6941H107.739V98.5581ZM120.87 98.7021C118.31 98.7021 116.598 96.9261 116.598 94.2541C116.598 91.7101 118.374 89.8541 120.838 89.8541C123.542 89.8541 125.334 92.0461 124.934 94.8301H118.87C119.014 96.2221 119.686 96.9901 120.822 96.9901C121.798 96.9901 122.454 96.5101 122.71 95.6621H124.918C124.438 97.5981 122.95 98.7021 120.87 98.7021ZM120.79 91.4861C119.75 91.4861 119.094 92.1581 118.902 93.4221H122.582C122.518 92.2381 121.846 91.4861 120.79 91.4861ZM128.504 98.5581H126.264V87.0701H128.504V98.5581ZM134.114 98.7181C131.634 98.7181 129.778 96.7661 129.778 94.2861C129.778 91.7901 131.634 89.8541 134.114 89.8541C136.594 89.8541 138.45 91.7901 138.45 94.2861C138.45 96.7661 136.594 98.7181 134.114 98.7181ZM134.114 96.7501C135.218 96.7501 136.162 95.8701 136.162 94.2861C136.162 92.7021 135.218 91.8381 134.114 91.8381C133.01 91.8381 132.066 92.7021 132.066 94.2861C132.066 95.8701 133.01 96.7501 134.114 96.7501Z" fill="#1A1A1A"/>
<path d="M79.8399 118.558L77.7119 110.676L75.5699 118.558H73.9879L71.3699 108.506H72.8819L74.8139 116.248L76.9279 108.506H78.5239L80.6099 116.262L82.5419 108.506H84.0539L81.4359 118.558H79.8399ZM87.461 118.698C85.319 118.698 83.877 117.144 83.877 114.806C83.877 112.608 85.375 110.998 87.419 110.998C89.631 110.998 91.101 112.79 90.849 115.198H85.319C85.431 116.71 86.187 117.592 87.433 117.592C88.483 117.592 89.211 117.018 89.449 116.052H90.849C90.485 117.704 89.211 118.698 87.461 118.698ZM87.391 112.062C86.257 112.062 85.487 112.874 85.333 114.26H89.351C89.281 112.888 88.539 112.062 87.391 112.062ZM99.1564 114.848C99.1564 117.074 97.8684 118.698 95.8664 118.698C94.8164 118.698 93.9204 118.166 93.3884 117.228V118.558H92.0724V108.506H93.4864V112.412C94.0044 111.502 94.8584 110.998 95.8664 110.998C97.8544 110.998 99.1564 112.594 99.1564 114.848ZM97.6864 114.848C97.6864 113.168 96.8044 112.244 95.5864 112.244C94.4104 112.244 93.4864 113.154 93.4864 114.82C93.4864 116.458 94.3824 117.438 95.5864 117.438C96.8044 117.438 97.6864 116.5 97.6864 114.848ZM106.19 116.346C106.19 117.802 105.056 118.698 103.082 118.698C101.122 118.698 99.96 117.732 99.82 116.136H101.178C101.234 117.06 101.976 117.634 103.11 117.634C104.104 117.634 104.762 117.284 104.762 116.584C104.762 115.968 104.384 115.702 103.46 115.52L102.256 115.296C100.884 115.03 100.114 114.33 100.114 113.21C100.114 111.908 101.248 110.998 102.97 110.998C104.748 110.998 105.952 111.95 106.078 113.476H104.72C104.636 112.58 103.978 112.062 102.984 112.062C102.088 112.062 101.486 112.44 101.486 113.084C101.486 113.686 101.864 113.966 102.76 114.134L104.02 114.372C105.49 114.638 106.19 115.282 106.19 116.346ZM109.176 109.416C109.176 109.948 108.756 110.354 108.154 110.354C107.552 110.354 107.118 109.948 107.118 109.416C107.118 108.87 107.552 108.478 108.154 108.478C108.756 108.478 109.176 108.87 109.176 109.416ZM108.868 118.558H107.454V111.138H108.868V118.558ZM114.737 117.186V118.432C114.303 118.628 113.925 118.698 113.477 118.698C112.105 118.698 111.153 117.956 111.153 116.318V112.342H109.515V111.138H111.153V108.94H112.567V111.138H114.807V112.342H112.567V115.996C112.567 117.018 113.057 117.382 113.813 117.382C114.149 117.382 114.443 117.326 114.737 117.186ZM118.723 118.698C116.581 118.698 115.139 117.144 115.139 114.806C115.139 112.608 116.637 110.998 118.681 110.998C120.893 110.998 122.363 112.79 122.111 115.198H116.581C116.693 116.71 117.449 117.592 118.695 117.592C119.745 117.592 120.473 117.018 120.711 116.052H122.111C121.747 117.704 120.473 118.698 118.723 118.698ZM118.653 112.062C117.519 112.062 116.749 112.874 116.595 114.26H120.613C120.543 112.888 119.801 112.062 118.653 112.062ZM129.27 118.558H126.092V108.506H129.27C132.476 108.506 134.324 110.55 134.324 113.49C134.324 116.388 132.406 118.558 129.27 118.558ZM127.632 109.836V117.228H129.2C131.51 117.228 132.756 115.8 132.756 113.49C132.756 111.222 131.524 109.836 129.2 109.836H127.632ZM138.596 118.698C136.454 118.698 135.012 117.144 135.012 114.806C135.012 112.608 136.51 110.998 138.554 110.998C140.766 110.998 142.236 112.79 141.984 115.198H136.454C136.566 116.71 137.322 117.592 138.568 117.592C139.618 117.592 140.346 117.018 140.584 116.052H141.984C141.62 117.704 140.346 118.698 138.596 118.698ZM138.526 112.062C137.392 112.062 136.622 112.874 136.468 114.26H140.486C140.416 112.888 139.674 112.062 138.526 112.062ZM149.087 116.346C149.087 117.802 147.953 118.698 145.979 118.698C144.019 118.698 142.857 117.732 142.717 116.136H144.075C144.131 117.06 144.873 117.634 146.007 117.634C147.001 117.634 147.659 117.284 147.659 116.584C147.659 115.968 147.281 115.702 146.357 115.52L145.153 115.296C143.781 115.03 143.011 114.33 143.011 113.21C143.011 111.908 144.145 110.998 145.867 110.998C147.645 110.998 148.849 111.95 148.975 113.476H147.617C147.533 112.58 146.875 112.062 145.881 112.062C144.985 112.062 144.383 112.44 144.383 113.084C144.383 113.686 144.761 113.966 145.657 114.134L146.917 114.372C148.387 114.638 149.087 115.282 149.087 116.346ZM152.073 109.416C152.073 109.948 151.653 110.354 151.051 110.354C150.449 110.354 150.015 109.948 150.015 109.416C150.015 108.87 150.449 108.478 151.051 108.478C151.653 108.478 152.073 108.87 152.073 109.416ZM151.765 118.558H150.351V111.138H151.765V118.558ZM156.416 121.414C154.47 121.414 153.21 120.378 153.126 118.698H154.498C154.582 119.734 155.254 120.294 156.402 120.294C157.676 120.294 158.348 119.608 158.348 118.334V116.99C157.928 117.886 157.088 118.404 156.08 118.404C154.232 118.404 152.916 116.878 152.916 114.694C152.916 112.482 154.176 110.998 156.038 110.998C157.102 110.998 157.942 111.516 158.446 112.454V111.138H159.762V118.306C159.762 120.252 158.516 121.414 156.416 121.414ZM154.344 114.694C154.344 116.234 155.1 117.172 156.332 117.172C157.536 117.172 158.348 116.206 158.348 114.736C158.348 113.196 157.55 112.216 156.332 112.216C155.114 112.216 154.344 113.168 154.344 114.694ZM162.854 114.372V118.558H161.44V111.138H162.756V112.37C163.26 111.544 164.1 110.998 165.122 110.998C166.648 110.998 167.656 111.978 167.656 113.756V118.558H166.242V114.232C166.242 112.958 165.682 112.244 164.632 112.244C163.666 112.244 162.854 113.056 162.854 114.372ZM171.171 117.956C171.171 119.286 170.121 120.322 168.581 120.35V119.552C169.491 119.524 170.107 119.034 170.191 118.348C170.065 118.39 169.981 118.404 169.883 118.404C169.351 118.404 168.959 117.97 168.959 117.452C168.959 116.85 169.407 116.458 169.981 116.458C170.751 116.458 171.171 117.018 171.171 117.956ZM66.6706 132.674C66.6706 134.508 65.3266 135.558 63.2406 135.558H59.5586V125.506H63.0446C65.0746 125.506 66.2926 126.444 66.2926 128.138C66.2926 129.09 65.7186 129.902 64.7526 130.322C65.9986 130.672 66.6706 131.526 66.6706 132.674ZM62.9466 126.738H60.9726V129.762H62.9466C64.1646 129.762 64.8226 129.188 64.8226 128.25C64.8226 127.312 64.1646 126.738 62.9466 126.738ZM63.1426 130.994H60.9726V134.326H63.1426C64.4586 134.326 65.2006 133.696 65.2006 132.632C65.2006 131.61 64.4586 130.994 63.1426 130.994ZM69.4674 131.764V135.558H68.0534V128.138H69.3694V129.706C69.8874 128.684 71.0074 128.04 72.2254 128.04V129.51C70.6294 129.426 69.4674 130.126 69.4674 131.764ZM77.5584 135.558V134.41C77.0964 135.236 76.2704 135.698 75.1784 135.698C73.6384 135.698 72.6304 134.816 72.6304 133.458C72.6304 132.002 73.7924 131.246 76.0044 131.246C76.4384 131.246 76.7884 131.26 77.3904 131.33V130.784C77.3904 129.72 76.8164 129.118 75.8364 129.118C74.8004 129.118 74.1704 129.734 74.1284 130.77H72.8404C72.9104 129.104 74.1004 127.998 75.8364 127.998C77.6704 127.998 78.7344 129.034 78.7344 130.798V135.558H77.5584ZM73.9744 133.416C73.9744 134.186 74.5484 134.69 75.4584 134.69C76.6484 134.69 77.3904 133.948 77.3904 132.814V132.212C76.8444 132.142 76.4524 132.128 76.0884 132.128C74.6744 132.128 73.9744 132.548 73.9744 133.416ZM81.7589 131.372V135.558H80.3449V128.138H81.6609V129.37C82.1649 128.544 83.0049 127.998 84.0269 127.998C85.5529 127.998 86.5609 128.978 86.5609 130.756V135.558H85.1469V131.232C85.1469 129.958 84.5869 129.244 83.5369 129.244C82.5709 129.244 81.7589 130.056 81.7589 131.372ZM87.6267 131.848C87.6267 129.594 88.9147 127.998 90.9167 127.998C91.9107 127.998 92.7787 128.502 93.2967 129.412V125.506H94.7107V135.558H93.3947V134.228C92.8627 135.166 91.9667 135.698 90.9167 135.698C88.9147 135.698 87.6267 134.074 87.6267 131.848ZM89.0967 131.848C89.0967 133.5 89.9647 134.438 91.1967 134.438C92.4007 134.438 93.2967 133.458 93.2967 131.82C93.2967 130.154 92.3727 129.244 91.1967 129.244C89.9647 129.244 89.0967 130.168 89.0967 131.848ZM98.1182 126.416C98.1182 126.948 97.6982 127.354 97.0962 127.354C96.4942 127.354 96.0602 126.948 96.0602 126.416C96.0602 125.87 96.4942 125.478 97.0962 125.478C97.6982 125.478 98.1182 125.87 98.1182 126.416ZM97.8102 135.558H96.3962V128.138H97.8102V135.558ZM100.907 131.372V135.558H99.4932V128.138H100.809V129.37C101.313 128.544 102.153 127.998 103.175 127.998C104.701 127.998 105.709 128.978 105.709 130.756V135.558H104.295V131.232C104.295 129.958 103.735 129.244 102.685 129.244C101.719 129.244 100.907 130.056 100.907 131.372ZM110.275 138.414C108.329 138.414 107.069 137.378 106.985 135.698H108.357C108.441 136.734 109.113 137.294 110.261 137.294C111.535 137.294 112.207 136.608 112.207 135.334V133.99C111.787 134.886 110.947 135.404 109.939 135.404C108.091 135.404 106.775 133.878 106.775 131.694C106.775 129.482 108.035 127.998 109.897 127.998C110.961 127.998 111.801 128.516 112.305 129.454V128.138H113.621V135.306C113.621 137.252 112.375 138.414 110.275 138.414ZM108.203 131.694C108.203 133.234 108.959 134.172 110.191 134.172C111.395 134.172 112.207 133.206 112.207 131.736C112.207 130.196 111.409 129.216 110.191 129.216C108.973 129.216 108.203 130.168 108.203 131.694ZM122.438 135.768C119.638 135.768 117.468 133.486 117.468 130.518C117.468 127.564 119.638 125.296 122.438 125.296C124.958 125.296 126.974 126.976 127.352 129.454H125.714C125.434 127.83 124.118 126.682 122.452 126.682C120.464 126.682 119.064 128.292 119.064 130.518C119.064 132.772 120.464 134.382 122.452 134.382C124.118 134.382 125.434 133.22 125.714 131.596H127.352C126.974 134.088 124.958 135.768 122.438 135.768ZM131.669 135.698C129.569 135.698 128.029 134.046 128.029 131.848C128.029 129.65 129.569 127.998 131.669 127.998C133.769 127.998 135.309 129.65 135.309 131.848C135.309 134.046 133.769 135.698 131.669 135.698ZM131.669 134.452C132.887 134.452 133.853 133.472 133.853 131.848C133.853 130.224 132.887 129.258 131.669 129.258C130.451 129.258 129.499 130.224 129.499 131.848C129.499 133.472 130.451 134.452 131.669 134.452ZM137.898 135.558H136.47V125.506H137.898V135.558ZM141.009 135.558H139.581V125.506H141.009V135.558ZM147.185 135.558V134.41C146.723 135.236 145.897 135.698 144.805 135.698C143.265 135.698 142.257 134.816 142.257 133.458C142.257 132.002 143.419 131.246 145.631 131.246C146.065 131.246 146.415 131.26 147.017 131.33V130.784C147.017 129.72 146.443 129.118 145.463 129.118C144.427 129.118 143.797 129.734 143.755 130.77H142.467C142.537 129.104 143.727 127.998 145.463 127.998C147.297 127.998 148.361 129.034 148.361 130.798V135.558H147.185ZM143.601 133.416C143.601 134.186 144.175 134.69 145.085 134.69C146.275 134.69 147.017 133.948 147.017 132.814V132.212C146.471 132.142 146.079 132.128 145.715 132.128C144.301 132.128 143.601 132.548 143.601 133.416ZM154.09 134.186V135.432C153.656 135.628 153.278 135.698 152.83 135.698C151.458 135.698 150.506 134.956 150.506 133.318V129.342H148.868V128.138H150.506V125.94H151.92V128.138H154.16V129.342H151.92V132.996C151.92 134.018 152.41 134.382 153.166 134.382C153.502 134.382 153.796 134.326 154.09 134.186ZM158.076 135.698C155.934 135.698 154.492 134.144 154.492 131.806C154.492 129.608 155.99 127.998 158.034 127.998C160.246 127.998 161.716 129.79 161.464 132.198H155.934C156.046 133.71 156.802 134.592 158.048 134.592C159.098 134.592 159.826 134.018 160.064 133.052H161.464C161.1 134.704 159.826 135.698 158.076 135.698ZM158.006 129.062C156.872 129.062 156.102 129.874 155.948 131.26H159.966C159.896 129.888 159.154 129.062 158.006 129.062ZM164.101 131.764V135.558H162.687V128.138H164.003V129.706C164.521 128.684 165.641 128.04 166.859 128.04V129.51C165.263 129.426 164.101 130.126 164.101 131.764ZM172.192 135.558V134.41C171.73 135.236 170.904 135.698 169.812 135.698C168.272 135.698 167.264 134.816 167.264 133.458C167.264 132.002 168.426 131.246 170.638 131.246C171.072 131.246 171.422 131.26 172.024 131.33V130.784C172.024 129.72 171.45 129.118 170.47 129.118C169.434 129.118 168.804 129.734 168.762 130.77H167.474C167.544 129.104 168.734 127.998 170.47 127.998C172.304 127.998 173.368 129.034 173.368 130.798V135.558H172.192ZM168.608 133.416C168.608 134.186 169.182 134.69 170.092 134.69C171.282 134.69 172.024 133.948 172.024 132.814V132.212C171.478 132.142 171.086 132.128 170.722 132.128C169.308 132.128 168.608 132.548 168.608 133.416ZM176.407 135.558H174.979V125.506H176.407V135.558ZM183.97 133.346C183.97 134.802 182.836 135.698 180.862 135.698C178.902 135.698 177.74 134.732 177.6 133.136H178.958C179.014 134.06 179.756 134.634 180.89 134.634C181.884 134.634 182.542 134.284 182.542 133.584C182.542 132.968 182.164 132.702 181.24 132.52L180.036 132.296C178.664 132.03 177.894 131.33 177.894 130.21C177.894 128.908 179.028 127.998 180.75 127.998C182.528 127.998 183.732 128.95 183.858 130.476H182.5C182.416 129.58 181.758 129.062 180.764 129.062C179.868 129.062 179.266 129.44 179.266 130.084C179.266 130.686 179.644 130.966 180.54 131.134L181.8 131.372C183.27 131.638 183.97 132.282 183.97 133.346Z" fill="#1A1A1A"/>
<mask id="path-4-outside-1_0_1" maskUnits="userSpaceOnUse" x="70" y="-0.00146484" width="103" height="48" fill="black">
<rect fill="white" x="70" y="-0.00146484" width="103" height="48"/>
<path d="M136.233 29.5475C134.089 29.4498 132.035 30.3037 130.183 31.3785C130.637 29.7233 131.152 28.1854 131.674 26.5967L133.414 21.305C133.949 19.6811 134.371 18.0767 134.712 16.4021C135.006 14.954 135.201 13.5354 135.207 12.058C135.215 10.3071 134.708 8.6598 132.836 8.15955C131.67 7.82539 129.82 8.05207 128.682 8.50933C128.688 11.1181 127.852 14.6863 127.039 17.1798L125.384 22.2527L123.773 27.3471C123.077 29.5494 122.448 32.846 122.477 35.1519C122.497 36.7367 123.02 38.2727 124.67 38.7885C126.035 39.2165 128.313 38.8921 129.769 38.6791C132.599 38.2629 135.899 38.1007 138.633 38.9898C139.108 38.3254 139.396 37.6669 139.613 36.936C139.925 35.83 140.035 34.7103 139.98 33.5593C139.785 31.441 138.487 29.696 136.237 29.5455L136.233 29.5475Z"/>
<path d="M121.515 15.2004C122.307 15.3841 123.031 15.6889 123.743 16.0895C124.682 14.9893 124.976 13.6527 124.879 12.2379C124.726 9.97895 122.954 8.10494 120.653 8.00724C118.319 7.90953 116.499 9.09178 114.903 10.7C114.808 10.3561 114.726 10.0532 114.58 9.74446C113.83 8.14207 112.092 7.86068 110.481 8.05023C109.795 8.13035 109.132 8.24369 108.487 8.5114C108.499 11.1065 107.658 14.6864 106.852 17.1565L105.201 22.2157L103.678 27.0385C102.923 29.5456 102.252 32.5022 102.282 35.152C102.299 36.8013 102.871 38.3587 104.613 38.8297C106.558 39.3554 110.098 38.4858 112.355 38.3705C114.203 38.2767 116.591 38.3607 118.422 38.9899C119.483 37.6357 119.883 35.3631 119.779 33.7099C119.649 31.6326 118.055 30.04 115.982 29.8075C114.761 29.6766 113.57 29.8759 112.422 30.3058C111.536 30.636 110.761 31.0913 109.923 31.617L111.236 27.316C112.087 26.8177 112.935 26.4268 113.862 26.1259C114.836 25.8191 115.81 25.653 116.838 25.6686C117.781 25.6823 118.627 26.0028 119.373 26.5695C120.463 25.4029 120.974 23.8181 120.706 22.288C120.444 20.7911 119.203 19.732 117.696 19.646C116.824 19.605 116.025 19.7515 115.223 20.0642C114.53 20.3261 113.941 20.7052 113.282 21.1233C113.702 19.7027 114.092 18.3622 114.398 16.9571C116.343 15.6987 119.209 14.62 121.515 15.2004Z"/>
<path d="M101.408 8.17521C100.23 7.81956 98.3704 8.0521 97.2027 8.50546C97.1672 12.06 96.0272 15.767 94.9404 19.1359C94.9088 19.2356 94.8773 19.304 94.7372 19.2883C93.2441 19.1574 91.5636 19.7319 90.2066 20.4413C90.5419 19.259 90.8615 18.1491 91.1139 16.9707C91.3467 15.8842 91.5696 14.8251 91.6228 13.7015C91.7865 12.5056 91.8358 10.9989 91.3427 9.84013C90.6425 8.18694 88.9049 7.86841 87.2678 8.04233C86.7313 8.06383 86.2086 8.16153 85.6504 8.25533C83.9107 8.5504 81.8023 8.68915 80.1139 8.00325C79.1671 9.50793 78.7943 11.2706 79.1099 13.0058C79.3229 14.1744 79.9758 15.2589 81.3072 15.2452C82.3664 15.2335 83.4591 14.7509 84.3821 14.2467C83.9699 15.8999 83.4946 17.473 82.964 19.0734L81.3585 23.9138C80.532 26.4053 79.6385 29.4009 79.248 31.9765C79.0843 33.0571 78.9837 34.1045 79.0034 35.1969C79.035 36.8677 79.6385 38.4134 81.4117 38.8492C82.6326 39.1481 84.2875 38.9527 85.5202 38.4974C85.5577 35.6131 86.2579 32.8422 87.0804 30.081C87.0843 29.9716 87.1119 29.8934 87.1652 29.8035L88.3013 26.29C89.749 25.8366 91.2303 25.6783 92.7846 25.6901C92.2777 27.353 91.8181 28.9613 91.4788 30.6496C91.1968 32.0586 91.0055 33.4343 90.9936 34.8686C90.9857 35.5916 91.0567 36.2678 91.2895 36.9361C91.9897 38.943 94.0627 39.1911 95.9207 38.8921C96.4651 38.8042 96.9838 38.7085 97.5144 38.4916C97.538 37.2214 97.6623 35.9864 97.9069 34.7259C98.1593 33.4206 98.4414 32.1797 98.8359 30.9056L100.191 26.5186L102.073 20.8595C102.905 18.3562 103.71 14.7313 103.729 12.103C103.743 10.3619 103.268 8.70087 101.412 8.17326L101.408 8.17521Z"/>
<path d="M163.749 17.9458C163.615 15.384 162.893 12.5505 161.241 10.5358C160.055 9.09168 158.389 8.20256 156.505 8.056C153.964 7.85863 151.456 8.54257 149.331 9.93391C147.01 11.4542 145.244 13.6897 144.002 16.1324C143.39 17.215 142.929 18.3816 142.534 19.5951C141.54 22.6651 141.106 25.8737 141.278 29.0941C141.361 30.6223 141.637 32.084 142.144 33.5144C143.179 36.4397 145.308 38.7319 148.574 38.9683C151.195 39.1579 153.763 38.4114 155.925 36.9321C157.266 36.0137 158.389 34.8725 159.361 33.571C160.558 31.9706 161.501 30.1963 162.193 28.291C163.396 24.9787 163.935 21.4594 163.749 17.9439V17.9458ZM149.091 33.8563C149.037 33.9169 148.951 33.8896 148.915 33.8681C148.878 33.8466 148.834 33.7743 148.86 33.6902L151.442 25.4047L145.83 25.9929C145.755 26.0008 145.692 25.9617 145.684 25.9206C145.676 25.8894 145.637 25.7975 145.678 25.7506L148.694 22.2273L156.548 13.1543C156.613 13.0801 156.694 13.0937 156.751 13.1348C156.787 13.1602 156.818 13.2188 156.793 13.297L153.98 22.3309L159.132 21.7935C159.221 21.7935 159.28 21.8248 159.3 21.8893C159.31 21.9225 159.316 21.9753 159.268 22.028L154.647 27.4234L149.091 33.8563Z"/>
<path d="M162.659 9.05464H162.254V8.77129H163.41V9.05464H163.008V10.147H162.659V9.05464Z"/>
<path d="M163.568 8.77129H163.996L164.282 9.64869H164.286L164.572 8.77129H165V10.147H164.671V9.29109H164.667L164.408 10.147H164.164L163.905 9.29109H163.901V10.147H163.572V8.77129H163.568Z"/>
</mask>
<path d="M136.233 29.5475C134.089 29.4498 132.035 30.3037 130.183 31.3785C130.637 29.7233 131.152 28.1854 131.674 26.5967L133.414 21.305C133.949 19.6811 134.371 18.0767 134.712 16.4021C135.006 14.954 135.201 13.5354 135.207 12.058C135.215 10.3071 134.708 8.6598 132.836 8.15955C131.67 7.82539 129.82 8.05207 128.682 8.50933C128.688 11.1181 127.852 14.6863 127.039 17.1798L125.384 22.2527L123.773 27.3471C123.077 29.5494 122.448 32.846 122.477 35.1519C122.497 36.7367 123.02 38.2727 124.67 38.7885C126.035 39.2165 128.313 38.8921 129.769 38.6791C132.599 38.2629 135.899 38.1007 138.633 38.9898C139.108 38.3254 139.396 37.6669 139.613 36.936C139.925 35.83 140.035 34.7103 139.98 33.5593C139.785 31.441 138.487 29.696 136.237 29.5455L136.233 29.5475Z" fill="#1A1A1A"/>
<path d="M121.515 15.2004C122.307 15.3841 123.031 15.6889 123.743 16.0895C124.682 14.9893 124.976 13.6527 124.879 12.2379C124.726 9.97895 122.954 8.10494 120.653 8.00724C118.319 7.90953 116.499 9.09178 114.903 10.7C114.808 10.3561 114.726 10.0532 114.58 9.74446C113.83 8.14207 112.092 7.86068 110.481 8.05023C109.795 8.13035 109.132 8.24369 108.487 8.5114C108.499 11.1065 107.658 14.6864 106.852 17.1565L105.201 22.2157L103.678 27.0385C102.923 29.5456 102.252 32.5022 102.282 35.152C102.299 36.8013 102.871 38.3587 104.613 38.8297C106.558 39.3554 110.098 38.4858 112.355 38.3705C114.203 38.2767 116.591 38.3607 118.422 38.9899C119.483 37.6357 119.883 35.3631 119.779 33.7099C119.649 31.6326 118.055 30.04 115.982 29.8075C114.761 29.6766 113.57 29.8759 112.422 30.3058C111.536 30.636 110.761 31.0913 109.923 31.617L111.236 27.316C112.087 26.8177 112.935 26.4268 113.862 26.1259C114.836 25.8191 115.81 25.653 116.838 25.6686C117.781 25.6823 118.627 26.0028 119.373 26.5695C120.463 25.4029 120.974 23.8181 120.706 22.288C120.444 20.7911 119.203 19.732 117.696 19.646C116.824 19.605 116.025 19.7515 115.223 20.0642C114.53 20.3261 113.941 20.7052 113.282 21.1233C113.702 19.7027 114.092 18.3622 114.398 16.9571C116.343 15.6987 119.209 14.62 121.515 15.2004Z" fill="#1A1A1A"/>
<path d="M101.408 8.17521C100.23 7.81956 98.3704 8.0521 97.2027 8.50546C97.1672 12.06 96.0272 15.767 94.9404 19.1359C94.9088 19.2356 94.8773 19.304 94.7372 19.2883C93.2441 19.1574 91.5636 19.7319 90.2066 20.4413C90.5419 19.259 90.8615 18.1491 91.1139 16.9707C91.3467 15.8842 91.5696 14.8251 91.6228 13.7015C91.7865 12.5056 91.8358 10.9989 91.3427 9.84013C90.6425 8.18694 88.9049 7.86841 87.2678 8.04233C86.7313 8.06383 86.2086 8.16153 85.6504 8.25533C83.9107 8.5504 81.8023 8.68915 80.1139 8.00325C79.1671 9.50793 78.7943 11.2706 79.1099 13.0058C79.3229 14.1744 79.9758 15.2589 81.3072 15.2452C82.3664 15.2335 83.4591 14.7509 84.3821 14.2467C83.9699 15.8999 83.4946 17.473 82.964 19.0734L81.3585 23.9138C80.532 26.4053 79.6385 29.4009 79.248 31.9765C79.0843 33.0571 78.9837 34.1045 79.0034 35.1969C79.035 36.8677 79.6385 38.4134 81.4117 38.8492C82.6326 39.1481 84.2875 38.9527 85.5202 38.4974C85.5577 35.6131 86.2579 32.8422 87.0804 30.081C87.0843 29.9716 87.1119 29.8934 87.1652 29.8035L88.3013 26.29C89.749 25.8366 91.2303 25.6783 92.7846 25.6901C92.2777 27.353 91.8181 28.9613 91.4788 30.6496C91.1968 32.0586 91.0055 33.4343 90.9936 34.8686C90.9857 35.5916 91.0567 36.2678 91.2895 36.9361C91.9897 38.943 94.0627 39.1911 95.9207 38.8921C96.4651 38.8042 96.9838 38.7085 97.5144 38.4916C97.538 37.2214 97.6623 35.9864 97.9069 34.7259C98.1593 33.4206 98.4414 32.1797 98.8359 30.9056L100.191 26.5186L102.073 20.8595C102.905 18.3562 103.71 14.7313 103.729 12.103C103.743 10.3619 103.268 8.70087 101.412 8.17326L101.408 8.17521Z" fill="#1A1A1A"/>
<path d="M163.749 17.9458C163.615 15.384 162.893 12.5505 161.241 10.5358C160.055 9.09168 158.389 8.20256 156.505 8.056C153.964 7.85863 151.456 8.54257 149.331 9.93391C147.01 11.4542 145.244 13.6897 144.002 16.1324C143.39 17.215 142.929 18.3816 142.534 19.5951C141.54 22.6651 141.106 25.8737 141.278 29.0941C141.361 30.6223 141.637 32.084 142.144 33.5144C143.179 36.4397 145.308 38.7319 148.574 38.9683C151.195 39.1579 153.763 38.4114 155.925 36.9321C157.266 36.0137 158.389 34.8725 159.361 33.571C160.558 31.9706 161.501 30.1963 162.193 28.291C163.396 24.9787 163.935 21.4594 163.749 17.9439V17.9458ZM149.091 33.8563C149.037 33.9169 148.951 33.8896 148.915 33.8681C148.878 33.8466 148.834 33.7743 148.86 33.6902L151.442 25.4047L145.83 25.9929C145.755 26.0008 145.692 25.9617 145.684 25.9206C145.676 25.8894 145.637 25.7975 145.678 25.7506L148.694 22.2273L156.548 13.1543C156.613 13.0801 156.694 13.0937 156.751 13.1348C156.787 13.1602 156.818 13.2188 156.793 13.297L153.98 22.3309L159.132 21.7935C159.221 21.7935 159.28 21.8248 159.3 21.8893C159.31 21.9225 159.316 21.9753 159.268 22.028L154.647 27.4234L149.091 33.8563Z" fill="#1A1A1A"/>
<path d="M162.659 9.05464H162.254V8.77129H163.41V9.05464H163.008V10.147H162.659V9.05464Z" fill="#1A1A1A"/>
<path d="M163.568 8.77129H163.996L164.282 9.64869H164.286L164.572 8.77129H165V10.147H164.671V9.29109H164.667L164.408 10.147H164.164L163.905 9.29109H163.901V10.147H163.572V8.77129H163.568Z" fill="#1A1A1A"/>
<path d="M136.233 29.5475C134.089 29.4498 132.035 30.3037 130.183 31.3785C130.637 29.7233 131.152 28.1854 131.674 26.5967L133.414 21.305C133.949 19.6811 134.371 18.0767 134.712 16.4021C135.006 14.954 135.201 13.5354 135.207 12.058C135.215 10.3071 134.708 8.6598 132.836 8.15955C131.67 7.82539 129.82 8.05207 128.682 8.50933C128.688 11.1181 127.852 14.6863 127.039 17.1798L125.384 22.2527L123.773 27.3471C123.077 29.5494 122.448 32.846 122.477 35.1519C122.497 36.7367 123.02 38.2727 124.67 38.7885C126.035 39.2165 128.313 38.8921 129.769 38.6791C132.599 38.2629 135.899 38.1007 138.633 38.9898C139.108 38.3254 139.396 37.6669 139.613 36.936C139.925 35.83 140.035 34.7103 139.98 33.5593C139.785 31.441 138.487 29.696 136.237 29.5455L136.233 29.5475Z" stroke="#E6E2DE" stroke-width="16" stroke-linejoin="round" mask="url(#path-4-outside-1_0_1)"/>
<path d="M121.515 15.2004C122.307 15.3841 123.031 15.6889 123.743 16.0895C124.682 14.9893 124.976 13.6527 124.879 12.2379C124.726 9.97895 122.954 8.10494 120.653 8.00724C118.319 7.90953 116.499 9.09178 114.903 10.7C114.808 10.3561 114.726 10.0532 114.58 9.74446C113.83 8.14207 112.092 7.86068 110.481 8.05023C109.795 8.13035 109.132 8.24369 108.487 8.5114C108.499 11.1065 107.658 14.6864 106.852 17.1565L105.201 22.2157L103.678 27.0385C102.923 29.5456 102.252 32.5022 102.282 35.152C102.299 36.8013 102.871 38.3587 104.613 38.8297C106.558 39.3554 110.098 38.4858 112.355 38.3705C114.203 38.2767 116.591 38.3607 118.422 38.9899C119.483 37.6357 119.883 35.3631 119.779 33.7099C119.649 31.6326 118.055 30.04 115.982 29.8075C114.761 29.6766 113.57 29.8759 112.422 30.3058C111.536 30.636 110.761 31.0913 109.923 31.617L111.236 27.316C112.087 26.8177 112.935 26.4268 113.862 26.1259C114.836 25.8191 115.81 25.653 116.838 25.6686C117.781 25.6823 118.627 26.0028 119.373 26.5695C120.463 25.4029 120.974 23.8181 120.706 22.288C120.444 20.7911 119.203 19.732 117.696 19.646C116.824 19.605 116.025 19.7515 115.223 20.0642C114.53 20.3261 113.941 20.7052 113.282 21.1233C113.702 19.7027 114.092 18.3622 114.398 16.9571C116.343 15.6987 119.209 14.62 121.515 15.2004Z" stroke="#E6E2DE" stroke-width="16" stroke-linejoin="round" mask="url(#path-4-outside-1_0_1)"/>
<path d="M101.408 8.17521C100.23 7.81956 98.3704 8.0521 97.2027 8.50546C97.1672 12.06 96.0272 15.767 94.9404 19.1359C94.9088 19.2356 94.8773 19.304 94.7372 19.2883C93.2441 19.1574 91.5636 19.7319 90.2066 20.4413C90.5419 19.259 90.8615 18.1491 91.1139 16.9707C91.3467 15.8842 91.5696 14.8251 91.6228 13.7015C91.7865 12.5056 91.8358 10.9989 91.3427 9.84013C90.6425 8.18694 88.9049 7.86841 87.2678 8.04233C86.7313 8.06383 86.2086 8.16153 85.6504 8.25533C83.9107 8.5504 81.8023 8.68915 80.1139 8.00325C79.1671 9.50793 78.7943 11.2706 79.1099 13.0058C79.3229 14.1744 79.9758 15.2589 81.3072 15.2452C82.3664 15.2335 83.4591 14.7509 84.3821 14.2467C83.9699 15.8999 83.4946 17.473 82.964 19.0734L81.3585 23.9138C80.532 26.4053 79.6385 29.4009 79.248 31.9765C79.0843 33.0571 78.9837 34.1045 79.0034 35.1969C79.035 36.8677 79.6385 38.4134 81.4117 38.8492C82.6326 39.1481 84.2875 38.9527 85.5202 38.4974C85.5577 35.6131 86.2579 32.8422 87.0804 30.081C87.0843 29.9716 87.1119 29.8934 87.1652 29.8035L88.3013 26.29C89.749 25.8366 91.2303 25.6783 92.7846 25.6901C92.2777 27.353 91.8181 28.9613 91.4788 30.6496C91.1968 32.0586 91.0055 33.4343 90.9936 34.8686C90.9857 35.5916 91.0567 36.2678 91.2895 36.9361C91.9897 38.943 94.0627 39.1911 95.9207 38.8921C96.4651 38.8042 96.9838 38.7085 97.5144 38.4916C97.538 37.2214 97.6623 35.9864 97.9069 34.7259C98.1593 33.4206 98.4414 32.1797 98.8359 30.9056L100.191 26.5186L102.073 20.8595C102.905 18.3562 103.71 14.7313 103.729 12.103C103.743 10.3619 103.268 8.70087 101.412 8.17326L101.408 8.17521Z" stroke="#E6E2DE" stroke-width="16" stroke-linejoin="round" mask="url(#path-4-outside-1_0_1)"/>
<path d="M163.749 17.9458C163.615 15.384 162.893 12.5505 161.241 10.5358C160.055 9.09168 158.389 8.20256 156.505 8.056C153.964 7.85863 151.456 8.54257 149.331 9.93391C147.01 11.4542 145.244 13.6897 144.002 16.1324C143.39 17.215 142.929 18.3816 142.534 19.5951C141.54 22.6651 141.106 25.8737 141.278 29.0941C141.361 30.6223 141.637 32.084 142.144 33.5144C143.179 36.4397 145.308 38.7319 148.574 38.9683C151.195 39.1579 153.763 38.4114 155.925 36.9321C157.266 36.0137 158.389 34.8725 159.361 33.571C160.558 31.9706 161.501 30.1963 162.193 28.291C163.396 24.9787 163.935 21.4594 163.749 17.9439V17.9458ZM149.091 33.8563C149.037 33.9169 148.951 33.8896 148.915 33.8681C148.878 33.8466 148.834 33.7743 148.86 33.6902L151.442 25.4047L145.83 25.9929C145.755 26.0008 145.692 25.9617 145.684 25.9206C145.676 25.8894 145.637 25.7975 145.678 25.7506L148.694 22.2273L156.548 13.1543C156.613 13.0801 156.694 13.0937 156.751 13.1348C156.787 13.1602 156.818 13.2188 156.793 13.297L153.98 22.3309L159.132 21.7935C159.221 21.7935 159.28 21.8248 159.3 21.8893C159.31 21.9225 159.316 21.9753 159.268 22.028L154.647 27.4234L149.091 33.8563Z" stroke="#E6E2DE" stroke-width="16" stroke-linejoin="round" mask="url(#path-4-outside-1_0_1)"/>
<path d="M162.659 9.05464H162.254V8.77129H163.41V9.05464H163.008V10.147H162.659V9.05464Z" stroke="#E6E2DE" stroke-width="16" stroke-linejoin="round" mask="url(#path-4-outside-1_0_1)"/>
<path d="M163.568 8.77129H163.996L164.282 9.64869H164.286L164.572 8.77129H165V10.147H164.671V9.29109H164.667L164.408 10.147H164.164L163.905 9.29109H163.901V10.147H163.572V8.77129H163.568Z" stroke="#E6E2DE" stroke-width="16" stroke-linejoin="round" mask="url(#path-4-outside-1_0_1)"/>
</svg>
