<svg width="242" height="240" viewBox="0 0 242 240" fill="none" xmlns="http://www.w3.org/2000/svg">
<rect y="80" width="242" height="160" rx="12" fill="#E6E2DE"/>
<path d="M107.739 154.559H105.307V143.071H107.739V147.599H112.715V143.071H115.147V154.559H112.715V149.695H107.739V154.559ZM120.87 154.703C118.31 154.703 116.598 152.927 116.598 150.255C116.598 147.711 118.374 145.855 120.838 145.855C123.542 145.855 125.334 148.047 124.934 150.831H118.87C119.014 152.223 119.686 152.991 120.822 152.991C121.798 152.991 122.454 152.511 122.71 151.663H124.918C124.438 153.599 122.95 154.703 120.87 154.703ZM120.79 147.487C119.75 147.487 119.094 148.159 118.902 149.423H122.582C122.518 148.239 121.846 147.487 120.79 147.487ZM128.504 154.559H126.264V143.071H128.504V154.559ZM134.114 154.719C131.634 154.719 129.778 152.767 129.778 150.287C129.778 147.791 131.634 145.855 134.114 145.855C136.594 145.855 138.45 147.791 138.45 150.287C138.45 152.767 136.594 154.719 134.114 154.719ZM134.114 152.751C135.218 152.751 136.162 151.871 136.162 150.287C136.162 148.703 135.218 147.839 134.114 147.839C133.01 147.839 132.066 148.703 132.066 150.287C132.066 151.871 133.01 152.751 134.114 152.751Z" fill="#1A1A1A"/>
<path d="M79.8399 174.559L77.7119 166.677L75.5699 174.559H73.9879L71.3699 164.507H72.8819L74.8139 172.249L76.9279 164.507H78.5239L80.6099 172.263L82.5419 164.507H84.0539L81.4359 174.559H79.8399ZM87.461 174.699C85.319 174.699 83.877 173.145 83.877 170.807C83.877 168.609 85.375 166.999 87.419 166.999C89.631 166.999 91.101 168.791 90.849 171.199H85.319C85.431 172.711 86.187 173.593 87.433 173.593C88.483 173.593 89.211 173.019 89.449 172.053H90.849C90.485 173.705 89.211 174.699 87.461 174.699ZM87.391 168.063C86.257 168.063 85.487 168.875 85.333 170.261H89.351C89.281 168.889 88.539 168.063 87.391 168.063ZM99.1564 170.849C99.1564 173.075 97.8684 174.699 95.8664 174.699C94.8164 174.699 93.9204 174.167 93.3884 173.229V174.559H92.0724V164.507H93.4864V168.413C94.0044 167.503 94.8584 166.999 95.8664 166.999C97.8544 166.999 99.1564 168.595 99.1564 170.849ZM97.6864 170.849C97.6864 169.169 96.8044 168.245 95.5864 168.245C94.4104 168.245 93.4864 169.155 93.4864 170.821C93.4864 172.459 94.3824 173.439 95.5864 173.439C96.8044 173.439 97.6864 172.501 97.6864 170.849ZM106.19 172.347C106.19 173.803 105.056 174.699 103.082 174.699C101.122 174.699 99.96 173.733 99.82 172.137H101.178C101.234 173.061 101.976 173.635 103.11 173.635C104.104 173.635 104.762 173.285 104.762 172.585C104.762 171.969 104.384 171.703 103.46 171.521L102.256 171.297C100.884 171.031 100.114 170.331 100.114 169.211C100.114 167.909 101.248 166.999 102.97 166.999C104.748 166.999 105.952 167.951 106.078 169.477H104.72C104.636 168.581 103.978 168.063 102.984 168.063C102.088 168.063 101.486 168.441 101.486 169.085C101.486 169.687 101.864 169.967 102.76 170.135L104.02 170.373C105.49 170.639 106.19 171.283 106.19 172.347ZM109.176 165.417C109.176 165.949 108.756 166.355 108.154 166.355C107.552 166.355 107.118 165.949 107.118 165.417C107.118 164.871 107.552 164.479 108.154 164.479C108.756 164.479 109.176 164.871 109.176 165.417ZM108.868 174.559H107.454V167.139H108.868V174.559ZM114.737 173.187V174.433C114.303 174.629 113.925 174.699 113.477 174.699C112.105 174.699 111.153 173.957 111.153 172.319V168.343H109.515V167.139H111.153V164.941H112.567V167.139H114.807V168.343H112.567V171.997C112.567 173.019 113.057 173.383 113.813 173.383C114.149 173.383 114.443 173.327 114.737 173.187ZM118.723 174.699C116.581 174.699 115.139 173.145 115.139 170.807C115.139 168.609 116.637 166.999 118.681 166.999C120.893 166.999 122.363 168.791 122.111 171.199H116.581C116.693 172.711 117.449 173.593 118.695 173.593C119.745 173.593 120.473 173.019 120.711 172.053H122.111C121.747 173.705 120.473 174.699 118.723 174.699ZM118.653 168.063C117.519 168.063 116.749 168.875 116.595 170.261H120.613C120.543 168.889 119.801 168.063 118.653 168.063ZM129.27 174.559H126.092V164.507H129.27C132.476 164.507 134.324 166.551 134.324 169.491C134.324 172.389 132.406 174.559 129.27 174.559ZM127.632 165.837V173.229H129.2C131.51 173.229 132.756 171.801 132.756 169.491C132.756 167.223 131.524 165.837 129.2 165.837H127.632ZM138.596 174.699C136.454 174.699 135.012 173.145 135.012 170.807C135.012 168.609 136.51 166.999 138.554 166.999C140.766 166.999 142.236 168.791 141.984 171.199H136.454C136.566 172.711 137.322 173.593 138.568 173.593C139.618 173.593 140.346 173.019 140.584 172.053H141.984C141.62 173.705 140.346 174.699 138.596 174.699ZM138.526 168.063C137.392 168.063 136.622 168.875 136.468 170.261H140.486C140.416 168.889 139.674 168.063 138.526 168.063ZM149.087 172.347C149.087 173.803 147.953 174.699 145.979 174.699C144.019 174.699 142.857 173.733 142.717 172.137H144.075C144.131 173.061 144.873 173.635 146.007 173.635C147.001 173.635 147.659 173.285 147.659 172.585C147.659 171.969 147.281 171.703 146.357 171.521L145.153 171.297C143.781 171.031 143.011 170.331 143.011 169.211C143.011 167.909 144.145 166.999 145.867 166.999C147.645 166.999 148.849 167.951 148.975 169.477H147.617C147.533 168.581 146.875 168.063 145.881 168.063C144.985 168.063 144.383 168.441 144.383 169.085C144.383 169.687 144.761 169.967 145.657 170.135L146.917 170.373C148.387 170.639 149.087 171.283 149.087 172.347ZM152.073 165.417C152.073 165.949 151.653 166.355 151.051 166.355C150.449 166.355 150.015 165.949 150.015 165.417C150.015 164.871 150.449 164.479 151.051 164.479C151.653 164.479 152.073 164.871 152.073 165.417ZM151.765 174.559H150.351V167.139H151.765V174.559ZM156.416 177.415C154.47 177.415 153.21 176.379 153.126 174.699H154.498C154.582 175.735 155.254 176.295 156.402 176.295C157.676 176.295 158.348 175.609 158.348 174.335V172.991C157.928 173.887 157.088 174.405 156.08 174.405C154.232 174.405 152.916 172.879 152.916 170.695C152.916 168.483 154.176 166.999 156.038 166.999C157.102 166.999 157.942 167.517 158.446 168.455V167.139H159.762V174.307C159.762 176.253 158.516 177.415 156.416 177.415ZM154.344 170.695C154.344 172.235 155.1 173.173 156.332 173.173C157.536 173.173 158.348 172.207 158.348 170.737C158.348 169.197 157.55 168.217 156.332 168.217C155.114 168.217 154.344 169.169 154.344 170.695ZM162.854 170.373V174.559H161.44V167.139H162.756V168.371C163.26 167.545 164.1 166.999 165.122 166.999C166.648 166.999 167.656 167.979 167.656 169.757V174.559H166.242V170.233C166.242 168.959 165.682 168.245 164.632 168.245C163.666 168.245 162.854 169.057 162.854 170.373ZM171.171 173.957C171.171 175.287 170.121 176.323 168.581 176.351V175.553C169.491 175.525 170.107 175.035 170.191 174.349C170.065 174.391 169.981 174.405 169.883 174.405C169.351 174.405 168.959 173.971 168.959 173.453C168.959 172.851 169.407 172.459 169.981 172.459C170.751 172.459 171.171 173.019 171.171 173.957ZM66.6706 188.675C66.6706 190.509 65.3266 191.559 63.2406 191.559H59.5586V181.507H63.0446C65.0746 181.507 66.2926 182.445 66.2926 184.139C66.2926 185.091 65.7186 185.903 64.7526 186.323C65.9986 186.673 66.6706 187.527 66.6706 188.675ZM62.9466 182.739H60.9726V185.763H62.9466C64.1646 185.763 64.8226 185.189 64.8226 184.251C64.8226 183.313 64.1646 182.739 62.9466 182.739ZM63.1426 186.995H60.9726V190.327H63.1426C64.4586 190.327 65.2006 189.697 65.2006 188.633C65.2006 187.611 64.4586 186.995 63.1426 186.995ZM69.4674 187.765V191.559H68.0534V184.139H69.3694V185.707C69.8874 184.685 71.0074 184.041 72.2254 184.041V185.511C70.6294 185.427 69.4674 186.127 69.4674 187.765ZM77.5584 191.559V190.411C77.0964 191.237 76.2704 191.699 75.1784 191.699C73.6384 191.699 72.6304 190.817 72.6304 189.459C72.6304 188.003 73.7924 187.247 76.0044 187.247C76.4384 187.247 76.7884 187.261 77.3904 187.331V186.785C77.3904 185.721 76.8164 185.119 75.8364 185.119C74.8004 185.119 74.1704 185.735 74.1284 186.771H72.8404C72.9104 185.105 74.1004 183.999 75.8364 183.999C77.6704 183.999 78.7344 185.035 78.7344 186.799V191.559H77.5584ZM73.9744 189.417C73.9744 190.187 74.5484 190.691 75.4584 190.691C76.6484 190.691 77.3904 189.949 77.3904 188.815V188.213C76.8444 188.143 76.4524 188.129 76.0884 188.129C74.6744 188.129 73.9744 188.549 73.9744 189.417ZM81.7589 187.373V191.559H80.3449V184.139H81.6609V185.371C82.1649 184.545 83.0049 183.999 84.0269 183.999C85.5529 183.999 86.5609 184.979 86.5609 186.757V191.559H85.1469V187.233C85.1469 185.959 84.5869 185.245 83.5369 185.245C82.5709 185.245 81.7589 186.057 81.7589 187.373ZM87.6267 187.849C87.6267 185.595 88.9147 183.999 90.9167 183.999C91.9107 183.999 92.7787 184.503 93.2967 185.413V181.507H94.7107V191.559H93.3947V190.229C92.8627 191.167 91.9667 191.699 90.9167 191.699C88.9147 191.699 87.6267 190.075 87.6267 187.849ZM89.0967 187.849C89.0967 189.501 89.9647 190.439 91.1967 190.439C92.4007 190.439 93.2967 189.459 93.2967 187.821C93.2967 186.155 92.3727 185.245 91.1967 185.245C89.9647 185.245 89.0967 186.169 89.0967 187.849ZM98.1182 182.417C98.1182 182.949 97.6982 183.355 97.0962 183.355C96.4942 183.355 96.0602 182.949 96.0602 182.417C96.0602 181.871 96.4942 181.479 97.0962 181.479C97.6982 181.479 98.1182 181.871 98.1182 182.417ZM97.8102 191.559H96.3962V184.139H97.8102V191.559ZM100.907 187.373V191.559H99.4932V184.139H100.809V185.371C101.313 184.545 102.153 183.999 103.175 183.999C104.701 183.999 105.709 184.979 105.709 186.757V191.559H104.295V187.233C104.295 185.959 103.735 185.245 102.685 185.245C101.719 185.245 100.907 186.057 100.907 187.373ZM110.275 194.415C108.329 194.415 107.069 193.379 106.985 191.699H108.357C108.441 192.735 109.113 193.295 110.261 193.295C111.535 193.295 112.207 192.609 112.207 191.335V189.991C111.787 190.887 110.947 191.405 109.939 191.405C108.091 191.405 106.775 189.879 106.775 187.695C106.775 185.483 108.035 183.999 109.897 183.999C110.961 183.999 111.801 184.517 112.305 185.455V184.139H113.621V191.307C113.621 193.253 112.375 194.415 110.275 194.415ZM108.203 187.695C108.203 189.235 108.959 190.173 110.191 190.173C111.395 190.173 112.207 189.207 112.207 187.737C112.207 186.197 111.409 185.217 110.191 185.217C108.973 185.217 108.203 186.169 108.203 187.695ZM122.438 191.769C119.638 191.769 117.468 189.487 117.468 186.519C117.468 183.565 119.638 181.297 122.438 181.297C124.958 181.297 126.974 182.977 127.352 185.455H125.714C125.434 183.831 124.118 182.683 122.452 182.683C120.464 182.683 119.064 184.293 119.064 186.519C119.064 188.773 120.464 190.383 122.452 190.383C124.118 190.383 125.434 189.221 125.714 187.597H127.352C126.974 190.089 124.958 191.769 122.438 191.769ZM131.669 191.699C129.569 191.699 128.029 190.047 128.029 187.849C128.029 185.651 129.569 183.999 131.669 183.999C133.769 183.999 135.309 185.651 135.309 187.849C135.309 190.047 133.769 191.699 131.669 191.699ZM131.669 190.453C132.887 190.453 133.853 189.473 133.853 187.849C133.853 186.225 132.887 185.259 131.669 185.259C130.451 185.259 129.499 186.225 129.499 187.849C129.499 189.473 130.451 190.453 131.669 190.453ZM137.898 191.559H136.47V181.507H137.898V191.559ZM141.009 191.559H139.581V181.507H141.009V191.559ZM147.185 191.559V190.411C146.723 191.237 145.897 191.699 144.805 191.699C143.265 191.699 142.257 190.817 142.257 189.459C142.257 188.003 143.419 187.247 145.631 187.247C146.065 187.247 146.415 187.261 147.017 187.331V186.785C147.017 185.721 146.443 185.119 145.463 185.119C144.427 185.119 143.797 185.735 143.755 186.771H142.467C142.537 185.105 143.727 183.999 145.463 183.999C147.297 183.999 148.361 185.035 148.361 186.799V191.559H147.185ZM143.601 189.417C143.601 190.187 144.175 190.691 145.085 190.691C146.275 190.691 147.017 189.949 147.017 188.815V188.213C146.471 188.143 146.079 188.129 145.715 188.129C144.301 188.129 143.601 188.549 143.601 189.417ZM154.09 190.187V191.433C153.656 191.629 153.278 191.699 152.83 191.699C151.458 191.699 150.506 190.957 150.506 189.319V185.343H148.868V184.139H150.506V181.941H151.92V184.139H154.16V185.343H151.92V188.997C151.92 190.019 152.41 190.383 153.166 190.383C153.502 190.383 153.796 190.327 154.09 190.187ZM158.076 191.699C155.934 191.699 154.492 190.145 154.492 187.807C154.492 185.609 155.99 183.999 158.034 183.999C160.246 183.999 161.716 185.791 161.464 188.199H155.934C156.046 189.711 156.802 190.593 158.048 190.593C159.098 190.593 159.826 190.019 160.064 189.053H161.464C161.1 190.705 159.826 191.699 158.076 191.699ZM158.006 185.063C156.872 185.063 156.102 185.875 155.948 187.261H159.966C159.896 185.889 159.154 185.063 158.006 185.063ZM164.101 187.765V191.559H162.687V184.139H164.003V185.707C164.521 184.685 165.641 184.041 166.859 184.041V185.511C165.263 185.427 164.101 186.127 164.101 187.765ZM172.192 191.559V190.411C171.73 191.237 170.904 191.699 169.812 191.699C168.272 191.699 167.264 190.817 167.264 189.459C167.264 188.003 168.426 187.247 170.638 187.247C171.072 187.247 171.422 187.261 172.024 187.331V186.785C172.024 185.721 171.45 185.119 170.47 185.119C169.434 185.119 168.804 185.735 168.762 186.771H167.474C167.544 185.105 168.734 183.999 170.47 183.999C172.304 183.999 173.368 185.035 173.368 186.799V191.559H172.192ZM168.608 189.417C168.608 190.187 169.182 190.691 170.092 190.691C171.282 190.691 172.024 189.949 172.024 188.815V188.213C171.478 188.143 171.086 188.129 170.722 188.129C169.308 188.129 168.608 188.549 168.608 189.417ZM176.407 191.559H174.979V181.507H176.407V191.559ZM183.97 189.347C183.97 190.803 182.836 191.699 180.862 191.699C178.902 191.699 177.74 190.733 177.6 189.137H178.958C179.014 190.061 179.756 190.635 180.89 190.635C181.884 190.635 182.542 190.285 182.542 189.585C182.542 188.969 182.164 188.703 181.24 188.521L180.036 188.297C178.664 188.031 177.894 187.331 177.894 186.211C177.894 184.909 179.028 183.999 180.75 183.999C182.528 183.999 183.732 184.951 183.858 186.477H182.5C182.416 185.581 181.758 185.063 180.764 185.063C179.868 185.063 179.266 185.441 179.266 186.085C179.266 186.687 179.644 186.967 180.54 187.135L181.8 187.373C183.27 187.639 183.97 188.283 183.97 189.347Z" fill="#1A1A1A"/>
<mask id="path-4-outside-1_1195_516" maskUnits="userSpaceOnUse" x="70" y="56" width="103" height="48" fill="black">
<rect fill="white" x="70" y="56" width="103" height="48"/>
<path d="M136.233 85.5489C134.089 85.4512 132.035 86.3052 130.183 87.38C130.637 85.7248 131.152 84.1869 131.674 82.5982L133.414 77.3064C133.949 75.6825 134.371 74.0782 134.712 72.4035C135.006 70.9555 135.201 69.5368 135.207 68.0595C135.215 66.3086 134.708 64.6613 132.836 64.161C131.67 63.8269 129.82 64.0535 128.682 64.5108C128.688 67.1196 127.852 70.6878 127.039 73.1813L125.384 78.2542L123.773 83.3486C123.077 85.5509 122.448 88.8475 122.477 91.1534C122.497 92.7382 123.019 94.2741 124.67 94.79C126.035 95.218 128.313 94.8936 129.769 94.6806C132.599 94.2644 135.899 94.1022 138.633 94.9913C139.108 94.3269 139.396 93.6683 139.613 92.9375C139.925 91.8315 140.035 90.7117 139.98 89.5608C139.785 87.4425 138.487 85.6975 136.237 85.547L136.233 85.5489Z"/>
<path d="M121.515 71.2018C122.307 71.3855 123.031 71.6904 123.743 72.091C124.682 70.9908 124.976 69.6542 124.879 68.2394C124.726 65.9804 122.954 64.1064 120.653 64.0087C118.319 63.911 116.499 65.0932 114.903 66.7015C114.808 66.3576 114.726 66.0547 114.58 65.7459C113.83 64.1435 112.092 63.8621 110.481 64.0517C109.795 64.1318 109.132 64.2452 108.487 64.5129C108.499 67.1079 107.658 70.6879 106.852 73.1579L105.201 78.2172L103.678 83.04C102.923 85.5471 102.252 88.5037 102.282 91.1535C102.299 92.8028 102.871 94.3602 104.613 94.8312C106.558 95.3568 110.098 94.4872 112.355 94.3719C114.203 94.2781 116.591 94.3622 118.422 94.9914C119.483 93.6372 119.883 91.3645 119.779 89.7113C119.649 87.6341 118.055 86.0415 115.982 85.809C114.761 85.678 113.57 85.8773 112.422 86.3073C111.536 86.6375 110.761 87.0928 109.923 87.6185L111.236 83.3174C112.087 82.8191 112.935 82.4283 113.862 82.1274C114.836 81.8206 115.81 81.6545 116.838 81.6701C117.781 81.6838 118.627 82.0043 119.373 82.571C120.463 81.4043 120.974 79.8195 120.706 78.2895C120.444 76.7926 119.203 75.7335 117.696 75.6475C116.824 75.6064 116.025 75.753 115.223 76.0657C114.53 76.3275 113.941 76.7066 113.282 77.1248C113.702 75.7042 114.092 74.3636 114.398 72.9586C116.343 71.7001 119.209 70.6215 121.515 71.2018Z"/>
<path d="M101.408 64.1767C100.23 63.821 98.3704 64.0536 97.2027 64.5069C97.1672 68.0615 96.0272 71.7685 94.9404 75.1374C94.9088 75.237 94.8773 75.3054 94.7372 75.2898C93.2441 75.1589 91.5636 75.7334 90.2066 76.4427C90.5419 75.2605 90.8615 74.1505 91.1139 72.9722C91.3467 71.8857 91.5696 70.8266 91.6228 69.703C91.7865 68.507 91.8358 67.0004 91.3427 65.8416C90.6425 64.1884 88.9049 63.8699 87.2678 64.0438C86.7313 64.0653 86.2086 64.163 85.6504 64.2568C83.9107 64.5519 81.8023 64.6906 80.1139 64.0047C79.1671 65.5094 78.7943 67.272 79.1099 69.0073C79.3229 70.1758 79.9758 71.2604 81.3072 71.2467C82.3664 71.235 83.4591 70.7523 84.3821 70.2482C83.9699 71.9013 83.4946 73.4744 82.964 75.0748L81.3585 79.9152C80.532 82.4067 79.6385 85.4024 79.248 87.978C79.0843 89.0586 78.9837 90.106 79.0034 91.1984C79.035 92.8691 79.6385 94.4149 81.4117 94.8506C82.6326 95.1496 84.2875 94.9542 85.5202 94.4989C85.5577 91.6146 86.2579 88.8436 87.0804 86.0825C87.0843 85.973 87.1119 85.8949 87.1652 85.805L88.3013 82.2914C89.749 81.8381 91.2303 81.6798 92.7846 81.6915C92.2777 83.3545 91.8181 84.9627 91.4788 86.6511C91.1968 88.06 91.0055 89.4357 90.9936 90.8701C90.9857 91.5931 91.0567 92.2692 91.2895 92.9375C91.9897 94.9444 94.0627 95.1926 95.9207 94.8936C96.4651 94.8057 96.9838 94.7099 97.5144 94.493C97.538 93.2228 97.6623 91.9878 97.9069 90.7274C98.1593 89.4221 98.4414 88.1812 98.8359 86.9071L100.191 82.5201L102.073 76.8609C102.905 74.3577 103.71 70.7328 103.729 68.1045C103.743 66.3633 103.268 64.7023 101.412 64.1747L101.408 64.1767Z"/>
<path d="M163.749 73.9473C163.615 71.3854 162.893 68.552 161.241 66.5373C160.055 65.0931 158.389 64.204 156.505 64.0575C153.964 63.8601 151.456 64.544 149.331 65.9354C147.01 67.4557 145.244 69.6912 144.002 72.1339C143.39 73.2165 142.929 74.3831 142.534 75.5966C141.54 78.6665 141.106 81.8752 141.278 85.0956C141.361 86.6237 141.637 88.0854 142.144 89.5158C143.179 92.4412 145.308 94.7334 148.574 94.9698C151.195 95.1594 153.763 94.4129 155.925 92.9336C157.266 92.0152 158.389 90.874 159.361 89.5725C160.558 87.9721 161.501 86.1977 162.193 84.2925C163.396 80.9802 163.935 77.4608 163.749 73.9453V73.9473ZM149.091 89.8578C149.037 89.9184 148.951 89.891 148.915 89.8695C148.878 89.848 148.834 89.7757 148.86 89.6917L151.442 81.4062L145.83 81.9944C145.755 82.0022 145.692 81.9631 145.684 81.9221C145.676 81.8908 145.637 81.799 145.678 81.7521L148.694 78.2288L156.548 69.1558C156.613 69.0815 156.694 69.0952 156.751 69.1362C156.787 69.1616 156.818 69.2203 156.793 69.2984L153.98 78.3324L159.132 77.795C159.221 77.795 159.28 77.8262 159.3 77.8907C159.31 77.924 159.316 77.9767 159.268 78.0295L154.647 83.4248L149.091 89.8578Z"/>
<path d="M162.659 65.0561H162.254V64.7728H163.41V65.0561H163.008V66.1485H162.659V65.0561Z"/>
<path d="M163.568 64.7728H163.996L164.282 65.6502H164.286L164.572 64.7728H165V66.1485H164.671V65.2926H164.667L164.408 66.1485H164.164L163.905 65.2926H163.901V66.1485H163.572V64.7728H163.568Z"/>
</mask>
<path d="M136.233 85.5489C134.089 85.4512 132.035 86.3052 130.183 87.38C130.637 85.7248 131.152 84.1869 131.674 82.5982L133.414 77.3064C133.949 75.6825 134.371 74.0782 134.712 72.4035C135.006 70.9555 135.201 69.5368 135.207 68.0595C135.215 66.3086 134.708 64.6613 132.836 64.161C131.67 63.8269 129.82 64.0535 128.682 64.5108C128.688 67.1196 127.852 70.6878 127.039 73.1813L125.384 78.2542L123.773 83.3486C123.077 85.5509 122.448 88.8475 122.477 91.1534C122.497 92.7382 123.019 94.2741 124.67 94.79C126.035 95.218 128.313 94.8936 129.769 94.6806C132.599 94.2644 135.899 94.1022 138.633 94.9913C139.108 94.3269 139.396 93.6683 139.613 92.9375C139.925 91.8315 140.035 90.7117 139.98 89.5608C139.785 87.4425 138.487 85.6975 136.237 85.547L136.233 85.5489Z" fill="#1A1A1A"/>
<path d="M121.515 71.2018C122.307 71.3855 123.031 71.6904 123.743 72.091C124.682 70.9908 124.976 69.6542 124.879 68.2394C124.726 65.9804 122.954 64.1064 120.653 64.0087C118.319 63.911 116.499 65.0932 114.903 66.7015C114.808 66.3576 114.726 66.0547 114.58 65.7459C113.83 64.1435 112.092 63.8621 110.481 64.0517C109.795 64.1318 109.132 64.2452 108.487 64.5129C108.499 67.1079 107.658 70.6879 106.852 73.1579L105.201 78.2172L103.678 83.04C102.923 85.5471 102.252 88.5037 102.282 91.1535C102.299 92.8028 102.871 94.3602 104.613 94.8312C106.558 95.3568 110.098 94.4872 112.355 94.3719C114.203 94.2781 116.591 94.3622 118.422 94.9914C119.483 93.6372 119.883 91.3645 119.779 89.7113C119.649 87.6341 118.055 86.0415 115.982 85.809C114.761 85.678 113.57 85.8773 112.422 86.3073C111.536 86.6375 110.761 87.0928 109.923 87.6185L111.236 83.3174C112.087 82.8191 112.935 82.4283 113.862 82.1274C114.836 81.8206 115.81 81.6545 116.838 81.6701C117.781 81.6838 118.627 82.0043 119.373 82.571C120.463 81.4043 120.974 79.8195 120.706 78.2895C120.444 76.7926 119.203 75.7335 117.696 75.6475C116.824 75.6064 116.025 75.753 115.223 76.0657C114.53 76.3275 113.941 76.7066 113.282 77.1248C113.702 75.7042 114.092 74.3636 114.398 72.9586C116.343 71.7001 119.209 70.6215 121.515 71.2018Z" fill="#1A1A1A"/>
<path d="M101.408 64.1767C100.23 63.821 98.3704 64.0536 97.2027 64.5069C97.1672 68.0615 96.0272 71.7685 94.9404 75.1374C94.9088 75.237 94.8773 75.3054 94.7372 75.2898C93.2441 75.1589 91.5636 75.7334 90.2066 76.4427C90.5419 75.2605 90.8615 74.1505 91.1139 72.9722C91.3467 71.8857 91.5696 70.8266 91.6228 69.703C91.7865 68.507 91.8358 67.0004 91.3427 65.8416C90.6425 64.1884 88.9049 63.8699 87.2678 64.0438C86.7313 64.0653 86.2086 64.163 85.6504 64.2568C83.9107 64.5519 81.8023 64.6906 80.1139 64.0047C79.1671 65.5094 78.7943 67.272 79.1099 69.0073C79.3229 70.1758 79.9758 71.2604 81.3072 71.2467C82.3664 71.235 83.4591 70.7523 84.3821 70.2482C83.9699 71.9013 83.4946 73.4744 82.964 75.0748L81.3585 79.9152C80.532 82.4067 79.6385 85.4024 79.248 87.978C79.0843 89.0586 78.9837 90.106 79.0034 91.1984C79.035 92.8691 79.6385 94.4149 81.4117 94.8506C82.6326 95.1496 84.2875 94.9542 85.5202 94.4989C85.5577 91.6146 86.2579 88.8436 87.0804 86.0825C87.0843 85.973 87.1119 85.8949 87.1652 85.805L88.3013 82.2914C89.749 81.8381 91.2303 81.6798 92.7846 81.6915C92.2777 83.3545 91.8181 84.9627 91.4788 86.6511C91.1968 88.06 91.0055 89.4357 90.9936 90.8701C90.9857 91.5931 91.0567 92.2692 91.2895 92.9375C91.9897 94.9444 94.0627 95.1926 95.9207 94.8936C96.4651 94.8057 96.9838 94.7099 97.5144 94.493C97.538 93.2228 97.6623 91.9878 97.9069 90.7274C98.1593 89.4221 98.4414 88.1812 98.8359 86.9071L100.191 82.5201L102.073 76.8609C102.905 74.3577 103.71 70.7328 103.729 68.1045C103.743 66.3633 103.268 64.7023 101.412 64.1747L101.408 64.1767Z" fill="#1A1A1A"/>
<path d="M163.749 73.9473C163.615 71.3854 162.893 68.552 161.241 66.5373C160.055 65.0931 158.389 64.204 156.505 64.0575C153.964 63.8601 151.456 64.544 149.331 65.9354C147.01 67.4557 145.244 69.6912 144.002 72.1339C143.39 73.2165 142.929 74.3831 142.534 75.5966C141.54 78.6665 141.106 81.8752 141.278 85.0956C141.361 86.6237 141.637 88.0854 142.144 89.5158C143.179 92.4412 145.308 94.7334 148.574 94.9698C151.195 95.1594 153.763 94.4129 155.925 92.9336C157.266 92.0152 158.389 90.874 159.361 89.5725C160.558 87.9721 161.501 86.1977 162.193 84.2925C163.396 80.9802 163.935 77.4608 163.749 73.9453V73.9473ZM149.091 89.8578C149.037 89.9184 148.951 89.891 148.915 89.8695C148.878 89.848 148.834 89.7757 148.86 89.6917L151.442 81.4062L145.83 81.9944C145.755 82.0022 145.692 81.9631 145.684 81.9221C145.676 81.8908 145.637 81.799 145.678 81.7521L148.694 78.2288L156.548 69.1558C156.613 69.0815 156.694 69.0952 156.751 69.1362C156.787 69.1616 156.818 69.2203 156.793 69.2984L153.98 78.3324L159.132 77.795C159.221 77.795 159.28 77.8262 159.3 77.8907C159.31 77.924 159.316 77.9767 159.268 78.0295L154.647 83.4248L149.091 89.8578Z" fill="#1A1A1A"/>
<path d="M162.659 65.0561H162.254V64.7728H163.41V65.0561H163.008V66.1485H162.659V65.0561Z" fill="#1A1A1A"/>
<path d="M163.568 64.7728H163.996L164.282 65.6502H164.286L164.572 64.7728H165V66.1485H164.671V65.2926H164.667L164.408 66.1485H164.164L163.905 65.2926H163.901V66.1485H163.572V64.7728H163.568Z" fill="#1A1A1A"/>
<path d="M136.233 85.5489C134.089 85.4512 132.035 86.3052 130.183 87.38C130.637 85.7248 131.152 84.1869 131.674 82.5982L133.414 77.3064C133.949 75.6825 134.371 74.0782 134.712 72.4035C135.006 70.9555 135.201 69.5368 135.207 68.0595C135.215 66.3086 134.708 64.6613 132.836 64.161C131.67 63.8269 129.82 64.0535 128.682 64.5108C128.688 67.1196 127.852 70.6878 127.039 73.1813L125.384 78.2542L123.773 83.3486C123.077 85.5509 122.448 88.8475 122.477 91.1534C122.497 92.7382 123.019 94.2741 124.67 94.79C126.035 95.218 128.313 94.8936 129.769 94.6806C132.599 94.2644 135.899 94.1022 138.633 94.9913C139.108 94.3269 139.396 93.6683 139.613 92.9375C139.925 91.8315 140.035 90.7117 139.98 89.5608C139.785 87.4425 138.487 85.6975 136.237 85.547L136.233 85.5489Z" stroke="#E6E2DE" stroke-width="16" stroke-linejoin="round" mask="url(#path-4-outside-1_1195_516)"/>
<path d="M121.515 71.2018C122.307 71.3855 123.031 71.6904 123.743 72.091C124.682 70.9908 124.976 69.6542 124.879 68.2394C124.726 65.9804 122.954 64.1064 120.653 64.0087C118.319 63.911 116.499 65.0932 114.903 66.7015C114.808 66.3576 114.726 66.0547 114.58 65.7459C113.83 64.1435 112.092 63.8621 110.481 64.0517C109.795 64.1318 109.132 64.2452 108.487 64.5129C108.499 67.1079 107.658 70.6879 106.852 73.1579L105.201 78.2172L103.678 83.04C102.923 85.5471 102.252 88.5037 102.282 91.1535C102.299 92.8028 102.871 94.3602 104.613 94.8312C106.558 95.3568 110.098 94.4872 112.355 94.3719C114.203 94.2781 116.591 94.3622 118.422 94.9914C119.483 93.6372 119.883 91.3645 119.779 89.7113C119.649 87.6341 118.055 86.0415 115.982 85.809C114.761 85.678 113.57 85.8773 112.422 86.3073C111.536 86.6375 110.761 87.0928 109.923 87.6185L111.236 83.3174C112.087 82.8191 112.935 82.4283 113.862 82.1274C114.836 81.8206 115.81 81.6545 116.838 81.6701C117.781 81.6838 118.627 82.0043 119.373 82.571C120.463 81.4043 120.974 79.8195 120.706 78.2895C120.444 76.7926 119.203 75.7335 117.696 75.6475C116.824 75.6064 116.025 75.753 115.223 76.0657C114.53 76.3275 113.941 76.7066 113.282 77.1248C113.702 75.7042 114.092 74.3636 114.398 72.9586C116.343 71.7001 119.209 70.6215 121.515 71.2018Z" stroke="#E6E2DE" stroke-width="16" stroke-linejoin="round" mask="url(#path-4-outside-1_1195_516)"/>
<path d="M101.408 64.1767C100.23 63.821 98.3704 64.0536 97.2027 64.5069C97.1672 68.0615 96.0272 71.7685 94.9404 75.1374C94.9088 75.237 94.8773 75.3054 94.7372 75.2898C93.2441 75.1589 91.5636 75.7334 90.2066 76.4427C90.5419 75.2605 90.8615 74.1505 91.1139 72.9722C91.3467 71.8857 91.5696 70.8266 91.6228 69.703C91.7865 68.507 91.8358 67.0004 91.3427 65.8416C90.6425 64.1884 88.9049 63.8699 87.2678 64.0438C86.7313 64.0653 86.2086 64.163 85.6504 64.2568C83.9107 64.5519 81.8023 64.6906 80.1139 64.0047C79.1671 65.5094 78.7943 67.272 79.1099 69.0073C79.3229 70.1758 79.9758 71.2604 81.3072 71.2467C82.3664 71.235 83.4591 70.7523 84.3821 70.2482C83.9699 71.9013 83.4946 73.4744 82.964 75.0748L81.3585 79.9152C80.532 82.4067 79.6385 85.4024 79.248 87.978C79.0843 89.0586 78.9837 90.106 79.0034 91.1984C79.035 92.8691 79.6385 94.4149 81.4117 94.8506C82.6326 95.1496 84.2875 94.9542 85.5202 94.4989C85.5577 91.6146 86.2579 88.8436 87.0804 86.0825C87.0843 85.973 87.1119 85.8949 87.1652 85.805L88.3013 82.2914C89.749 81.8381 91.2303 81.6798 92.7846 81.6915C92.2777 83.3545 91.8181 84.9627 91.4788 86.6511C91.1968 88.06 91.0055 89.4357 90.9936 90.8701C90.9857 91.5931 91.0567 92.2692 91.2895 92.9375C91.9897 94.9444 94.0627 95.1926 95.9207 94.8936C96.4651 94.8057 96.9838 94.7099 97.5144 94.493C97.538 93.2228 97.6623 91.9878 97.9069 90.7274C98.1593 89.4221 98.4414 88.1812 98.8359 86.9071L100.191 82.5201L102.073 76.8609C102.905 74.3577 103.71 70.7328 103.729 68.1045C103.743 66.3633 103.268 64.7023 101.412 64.1747L101.408 64.1767Z" stroke="#E6E2DE" stroke-width="16" stroke-linejoin="round" mask="url(#path-4-outside-1_1195_516)"/>
<path d="M163.749 73.9473C163.615 71.3854 162.893 68.552 161.241 66.5373C160.055 65.0931 158.389 64.204 156.505 64.0575C153.964 63.8601 151.456 64.544 149.331 65.9354C147.01 67.4557 145.244 69.6912 144.002 72.1339C143.39 73.2165 142.929 74.3831 142.534 75.5966C141.54 78.6665 141.106 81.8752 141.278 85.0956C141.361 86.6237 141.637 88.0854 142.144 89.5158C143.179 92.4412 145.308 94.7334 148.574 94.9698C151.195 95.1594 153.763 94.4129 155.925 92.9336C157.266 92.0152 158.389 90.874 159.361 89.5725C160.558 87.9721 161.501 86.1977 162.193 84.2925C163.396 80.9802 163.935 77.4608 163.749 73.9453V73.9473ZM149.091 89.8578C149.037 89.9184 148.951 89.891 148.915 89.8695C148.878 89.848 148.834 89.7757 148.86 89.6917L151.442 81.4062L145.83 81.9944C145.755 82.0022 145.692 81.9631 145.684 81.9221C145.676 81.8908 145.637 81.799 145.678 81.7521L148.694 78.2288L156.548 69.1558C156.613 69.0815 156.694 69.0952 156.751 69.1362C156.787 69.1616 156.818 69.2203 156.793 69.2984L153.98 78.3324L159.132 77.795C159.221 77.795 159.28 77.8262 159.3 77.8907C159.31 77.924 159.316 77.9767 159.268 78.0295L154.647 83.4248L149.091 89.8578Z" stroke="#E6E2DE" stroke-width="16" stroke-linejoin="round" mask="url(#path-4-outside-1_1195_516)"/>
<path d="M162.659 65.0561H162.254V64.7728H163.41V65.0561H163.008V66.1485H162.659V65.0561Z" stroke="#E6E2DE" stroke-width="16" stroke-linejoin="round" mask="url(#path-4-outside-1_1195_516)"/>
<path d="M163.568 64.7728H163.996L164.282 65.6502H164.286L164.572 64.7728H165V66.1485H164.671V65.2926H164.667L164.408 66.1485H164.164L163.905 65.2926H163.901V66.1485H163.572V64.7728H163.568Z" stroke="#E6E2DE" stroke-width="16" stroke-linejoin="round" mask="url(#path-4-outside-1_1195_516)"/>
</svg>
