<svg width="242" height="200" viewBox="0 0 242 200" fill="none" xmlns="http://www.w3.org/2000/svg">
<rect y="39.9985" width="242" height="160" rx="12" fill="#E6E2DE"/>
<path d="M67.4294 114.999H64.9974V103.511H67.4294V108.039H72.4054V103.511H74.8374V114.999H72.4054V110.135H67.4294V114.999ZM80.6246 115.159C78.1446 115.159 76.2886 113.207 76.2886 110.727C76.2886 108.231 78.1446 106.295 80.6246 106.295C83.1046 106.295 84.9606 108.231 84.9606 110.727C84.9606 113.207 83.1046 115.159 80.6246 115.159ZM80.6246 113.191C81.7286 113.191 82.6726 112.311 82.6726 110.727C82.6726 109.143 81.7286 108.279 80.6246 108.279C79.5206 108.279 78.5766 109.143 78.5766 110.727C78.5766 112.311 79.5206 113.191 80.6246 113.191ZM93.0091 114.999L91.3931 109.447L89.7931 114.999H87.5691L85.1371 106.455H87.2971L88.7531 111.863L90.3211 106.455H92.5131L94.0331 111.863L95.4731 106.455H97.6651L95.2171 114.999H93.0091ZM100.862 114.999H98.6223V103.511H100.862V114.999ZM109.913 112.263C109.913 114.055 108.553 115.159 106.121 115.159C103.689 115.159 102.329 113.991 102.153 112.087H104.281C104.297 112.967 105.049 113.527 106.153 113.527C107.017 113.527 107.673 113.255 107.673 112.647C107.673 112.103 107.321 111.879 106.505 111.719L104.969 111.431C103.433 111.159 102.505 110.311 102.505 108.983C102.505 107.399 103.865 106.295 105.993 106.295C108.137 106.295 109.609 107.431 109.769 109.271H107.641C107.561 108.439 106.937 107.927 105.993 107.927C105.177 107.927 104.633 108.231 104.633 108.775C104.633 109.287 104.985 109.495 105.753 109.639L107.401 109.943C109.065 110.263 109.913 111.031 109.913 112.263ZM120.055 110.679V114.999H117.623V110.679L113.559 103.511H116.183L118.919 108.455L121.703 103.511H124.151L120.055 110.679ZM127.29 115.159C124.81 115.159 122.954 113.207 122.954 110.727C122.954 108.231 124.81 106.295 127.29 106.295C129.77 106.295 131.626 108.231 131.626 110.727C131.626 113.207 129.77 115.159 127.29 115.159ZM127.29 113.191C128.394 113.191 129.338 112.311 129.338 110.727C129.338 109.143 128.394 108.279 127.29 108.279C126.186 108.279 125.242 109.143 125.242 110.727C125.242 112.311 126.186 113.191 127.29 113.191ZM138.085 111.399V106.455H140.293V114.999H138.261V113.879C137.797 114.631 136.853 115.159 135.765 115.159C134.053 115.159 132.805 114.119 132.805 111.895V106.455H135.029V111.463C135.029 112.663 135.621 113.191 136.517 113.191C137.317 113.191 138.085 112.551 138.085 111.399ZM144.355 110.855V114.999H142.131V106.455H144.179V108.103C144.803 107.015 146.131 106.359 147.507 106.359V108.663C145.619 108.519 144.355 108.967 144.355 110.855ZM155.958 114.999H151.878V103.511H155.958C159.606 103.511 161.814 105.847 161.814 109.191C161.814 112.535 159.526 114.999 155.958 114.999ZM154.31 105.607V112.903H155.83C158.118 112.903 159.318 111.575 159.318 109.191C159.318 106.903 158.118 105.607 155.83 105.607H154.31ZM168.239 114.999V113.943C167.679 114.743 166.831 115.159 165.663 115.159C163.887 115.159 162.703 114.119 162.703 112.519C162.703 110.855 164.047 109.959 166.543 109.959C167.023 109.959 167.439 109.991 167.967 110.055V109.543C167.967 108.583 167.423 108.023 166.495 108.023C165.535 108.023 164.959 108.583 164.879 109.543H162.879C163.007 107.575 164.431 106.295 166.495 106.295C168.735 106.295 170.047 107.527 170.047 109.623V114.999H168.239ZM164.799 112.455C164.799 113.175 165.311 113.623 166.143 113.623C167.279 113.623 167.967 112.999 167.967 112.007V111.399C167.439 111.319 167.071 111.287 166.687 111.287C165.423 111.287 164.799 111.687 164.799 112.455ZM179.203 106.455L175.043 118.087H172.627L173.843 114.903L170.483 106.455H172.883L175.027 112.311L176.979 106.455H179.203Z" fill="#1A1A1A"/>
<path d="M43.5095 134.999H37.4195V124.947H38.9595V133.613H43.5095V134.999ZM47.532 135.139C45.432 135.139 43.892 133.487 43.892 131.289C43.892 129.091 45.432 127.439 47.532 127.439C49.632 127.439 51.172 129.091 51.172 131.289C51.172 133.487 49.632 135.139 47.532 135.139ZM47.532 133.893C48.75 133.893 49.716 132.913 49.716 131.289C49.716 129.665 48.75 128.699 47.532 128.699C46.314 128.699 45.362 129.665 45.362 131.289C45.362 132.913 46.314 133.893 47.532 133.893ZM55.1647 137.855C53.2187 137.855 51.9587 136.819 51.8747 135.139H53.2467C53.3307 136.175 54.0027 136.735 55.1507 136.735C56.4247 136.735 57.0967 136.049 57.0967 134.775V133.431C56.6767 134.327 55.8367 134.845 54.8287 134.845C52.9807 134.845 51.6647 133.319 51.6647 131.135C51.6647 128.923 52.9247 127.439 54.7867 127.439C55.8507 127.439 56.6907 127.957 57.1947 128.895V127.579H58.5107V134.747C58.5107 136.693 57.2647 137.855 55.1647 137.855ZM53.0927 131.135C53.0927 132.675 53.8487 133.613 55.0807 133.613C56.2847 133.613 57.0967 132.647 57.0967 131.177C57.0967 129.637 56.2987 128.657 55.0807 128.657C53.8627 128.657 53.0927 129.609 53.0927 131.135ZM63.2962 135.139C61.1962 135.139 59.6562 133.487 59.6562 131.289C59.6562 129.091 61.1962 127.439 63.2962 127.439C65.3962 127.439 66.9362 129.091 66.9362 131.289C66.9362 133.487 65.3962 135.139 63.2962 135.139ZM63.2962 133.893C64.5142 133.893 65.4802 132.913 65.4802 131.289C65.4802 129.665 64.5142 128.699 63.2962 128.699C62.0782 128.699 61.1262 129.665 61.1262 131.289C61.1262 132.913 62.0782 133.893 63.2962 133.893ZM74.0334 134.999H70.8554V124.947H74.0334C77.2394 124.947 79.0874 126.991 79.0874 129.931C79.0874 132.829 77.1694 134.999 74.0334 134.999ZM72.3954 126.277V133.669H73.9634C76.2734 133.669 77.5194 132.241 77.5194 129.931C77.5194 127.663 76.2874 126.277 73.9634 126.277H72.3954ZM83.3592 135.139C81.2172 135.139 79.7752 133.585 79.7752 131.247C79.7752 129.049 81.2732 127.439 83.3172 127.439C85.5292 127.439 86.9992 129.231 86.7472 131.639H81.2172C81.3292 133.151 82.0852 134.033 83.3312 134.033C84.3812 134.033 85.1092 133.459 85.3472 132.493H86.7472C86.3832 134.145 85.1092 135.139 83.3592 135.139ZM83.2892 128.503C82.1552 128.503 81.3852 129.315 81.2312 130.701H85.2492C85.1792 129.329 84.4372 128.503 83.2892 128.503ZM93.8505 132.787C93.8505 134.243 92.7165 135.139 90.7425 135.139C88.7825 135.139 87.6205 134.173 87.4805 132.577H88.8385C88.8945 133.501 89.6365 134.075 90.7705 134.075C91.7645 134.075 92.4225 133.725 92.4225 133.025C92.4225 132.409 92.0445 132.143 91.1205 131.961L89.9165 131.737C88.5445 131.471 87.7745 130.771 87.7745 129.651C87.7745 128.349 88.9085 127.439 90.6305 127.439C92.4085 127.439 93.6125 128.391 93.7385 129.917H92.3805C92.2965 129.021 91.6385 128.503 90.6445 128.503C89.7485 128.503 89.1465 128.881 89.1465 129.525C89.1465 130.127 89.5245 130.407 90.4205 130.575L91.6805 130.813C93.1505 131.079 93.8505 131.723 93.8505 132.787ZM96.8364 125.857C96.8364 126.389 96.4164 126.795 95.8144 126.795C95.2124 126.795 94.7784 126.389 94.7784 125.857C94.7784 125.311 95.2124 124.919 95.8144 124.919C96.4164 124.919 96.8364 125.311 96.8364 125.857ZM96.5284 134.999H95.1144V127.579H96.5284V134.999ZM101.179 137.855C99.2333 137.855 97.9733 136.819 97.8893 135.139H99.2613C99.3453 136.175 100.017 136.735 101.165 136.735C102.439 136.735 103.111 136.049 103.111 134.775V133.431C102.691 134.327 101.851 134.845 100.843 134.845C98.9953 134.845 97.6793 133.319 97.6793 131.135C97.6793 128.923 98.9393 127.439 100.801 127.439C101.865 127.439 102.705 127.957 103.209 128.895V127.579H104.525V134.747C104.525 136.693 103.279 137.855 101.179 137.855ZM99.1073 131.135C99.1073 132.675 99.8633 133.613 101.095 133.613C102.299 133.613 103.111 132.647 103.111 131.177C103.111 129.637 102.313 128.657 101.095 128.657C99.8773 128.657 99.1073 129.609 99.1073 131.135ZM107.617 130.813V134.999H106.203V127.579H107.519V128.811C108.023 127.985 108.863 127.439 109.885 127.439C111.411 127.439 112.419 128.419 112.419 130.197V134.999H111.005V130.673C111.005 129.399 110.445 128.685 109.395 128.685C108.429 128.685 107.617 129.497 107.617 130.813ZM115.935 134.397C115.935 135.727 114.885 136.763 113.345 136.791V135.993C114.255 135.965 114.871 135.475 114.955 134.789C114.829 134.831 114.745 134.845 114.647 134.845C114.115 134.845 113.723 134.411 113.723 133.893C113.723 133.291 114.171 132.899 114.745 132.899C115.515 132.899 115.935 133.459 115.935 134.397ZM127.243 132.115C127.243 133.949 125.899 134.999 123.813 134.999H120.131V124.947H123.617C125.647 124.947 126.865 125.885 126.865 127.579C126.865 128.531 126.291 129.343 125.325 129.763C126.571 130.113 127.243 130.967 127.243 132.115ZM123.519 126.179H121.545V129.203H123.519C124.737 129.203 125.395 128.629 125.395 127.691C125.395 126.753 124.737 126.179 123.519 126.179ZM123.715 130.435H121.545V133.767H123.715C125.031 133.767 125.773 133.137 125.773 132.073C125.773 131.051 125.031 130.435 123.715 130.435ZM130.04 131.205V134.999H128.626V127.579H129.942V129.147C130.46 128.125 131.58 127.481 132.798 127.481V128.951C131.202 128.867 130.04 129.567 130.04 131.205ZM138.131 134.999V133.851C137.669 134.677 136.843 135.139 135.751 135.139C134.211 135.139 133.203 134.257 133.203 132.899C133.203 131.443 134.365 130.687 136.577 130.687C137.011 130.687 137.361 130.701 137.963 130.771V130.225C137.963 129.161 137.389 128.559 136.409 128.559C135.373 128.559 134.743 129.175 134.701 130.211H133.413C133.483 128.545 134.673 127.439 136.409 127.439C138.243 127.439 139.307 128.475 139.307 130.239V134.999H138.131ZM134.547 132.857C134.547 133.627 135.121 134.131 136.031 134.131C137.221 134.131 137.963 133.389 137.963 132.255V131.653C137.417 131.583 137.025 131.569 136.661 131.569C135.247 131.569 134.547 131.989 134.547 132.857ZM142.331 130.813V134.999H140.917V127.579H142.233V128.811C142.737 127.985 143.577 127.439 144.599 127.439C146.125 127.439 147.133 128.419 147.133 130.197V134.999H145.719V130.673C145.719 129.399 145.159 128.685 144.109 128.685C143.143 128.685 142.331 129.497 142.331 130.813ZM148.199 131.289C148.199 129.035 149.487 127.439 151.489 127.439C152.483 127.439 153.351 127.943 153.869 128.853V124.947H155.283V134.999H153.967V133.669C153.435 134.607 152.539 135.139 151.489 135.139C149.487 135.139 148.199 133.515 148.199 131.289ZM149.669 131.289C149.669 132.941 150.537 133.879 151.769 133.879C152.973 133.879 153.869 132.899 153.869 131.261C153.869 129.595 152.945 128.685 151.769 128.685C150.537 128.685 149.669 129.609 149.669 131.289ZM161.266 134.999H159.726V124.947H161.266V134.999ZM162.521 131.289C162.521 129.035 163.809 127.439 165.811 127.439C166.805 127.439 167.673 127.943 168.191 128.853V124.947H169.605V134.999H168.289V133.669C167.757 134.607 166.861 135.139 165.811 135.139C163.809 135.139 162.521 133.515 162.521 131.289ZM163.991 131.289C163.991 132.941 164.859 133.879 166.091 133.879C167.295 133.879 168.191 132.899 168.191 131.261C168.191 129.595 167.267 128.685 166.091 128.685C164.859 128.685 163.991 129.609 163.991 131.289ZM174.343 135.139C172.201 135.139 170.759 133.585 170.759 131.247C170.759 129.049 172.257 127.439 174.301 127.439C176.513 127.439 177.983 129.231 177.731 131.639H172.201C172.313 133.151 173.069 134.033 174.315 134.033C175.365 134.033 176.093 133.459 176.331 132.493H177.731C177.367 134.145 176.093 135.139 174.343 135.139ZM174.273 128.503C173.139 128.503 172.369 129.315 172.215 130.701H176.233C176.163 129.329 175.421 128.503 174.273 128.503ZM180.368 130.813V134.999H178.954V127.579H180.27V128.811C180.774 127.985 181.614 127.439 182.636 127.439C184.162 127.439 185.17 128.419 185.17 130.197V134.999H183.756V130.673C183.756 129.399 183.196 128.685 182.146 128.685C181.18 128.685 180.368 129.497 180.368 130.813ZM190.927 133.627V134.873C190.493 135.069 190.115 135.139 189.667 135.139C188.295 135.139 187.343 134.397 187.343 132.759V128.783H185.705V127.579H187.343V125.381H188.757V127.579H190.997V128.783H188.757V132.437C188.757 133.459 189.247 133.823 190.003 133.823C190.339 133.823 190.633 133.767 190.927 133.627ZM193.788 125.857C193.788 126.389 193.368 126.795 192.766 126.795C192.164 126.795 191.73 126.389 191.73 125.857C191.73 125.311 192.164 124.919 192.766 124.919C193.368 124.919 193.788 125.311 193.788 125.857ZM193.48 134.999H192.066V127.579H193.48V134.999ZM199.349 133.627V134.873C198.915 135.069 198.537 135.139 198.089 135.139C196.717 135.139 195.765 134.397 195.765 132.759V128.783H194.127V127.579H195.765V125.381H197.179V127.579H199.419V128.783H197.179V132.437C197.179 133.459 197.669 133.823 198.425 133.823C198.761 133.823 199.055 133.767 199.349 133.627ZM206.648 127.579L202.938 137.701H201.398L202.462 134.901L199.536 127.579H201.062L203.218 133.235L205.22 127.579H206.648ZM52.4004 151.999H49.2224V141.947H52.4004C55.6064 141.947 57.4544 143.991 57.4544 146.931C57.4544 149.829 55.5364 151.999 52.4004 151.999ZM50.7624 143.277V150.669H52.3304C54.6404 150.669 55.8864 149.241 55.8864 146.931C55.8864 144.663 54.6544 143.277 52.3304 143.277H50.7624ZM61.7262 152.139C59.5842 152.139 58.1422 150.585 58.1422 148.247C58.1422 146.049 59.6402 144.439 61.6842 144.439C63.8962 144.439 65.3662 146.231 65.1142 148.639H59.5842C59.6962 150.151 60.4522 151.033 61.6982 151.033C62.7482 151.033 63.4762 150.459 63.7142 149.493H65.1142C64.7502 151.145 63.4762 152.139 61.7262 152.139ZM61.6562 145.503C60.5222 145.503 59.7522 146.315 59.5982 147.701H63.6162C63.5462 146.329 62.8042 145.503 61.6562 145.503ZM72.2175 149.787C72.2175 151.243 71.0835 152.139 69.1095 152.139C67.1495 152.139 65.9875 151.173 65.8475 149.577H67.2055C67.2615 150.501 68.0035 151.075 69.1375 151.075C70.1315 151.075 70.7895 150.725 70.7895 150.025C70.7895 149.409 70.4115 149.143 69.4875 148.961L68.2835 148.737C66.9115 148.471 66.1415 147.771 66.1415 146.651C66.1415 145.349 67.2755 144.439 68.9975 144.439C70.7755 144.439 71.9795 145.391 72.1055 146.917H70.7475C70.6635 146.021 70.0055 145.503 69.0115 145.503C68.1155 145.503 67.5135 145.881 67.5135 146.525C67.5135 147.127 67.8915 147.407 68.7875 147.575L70.0475 147.813C71.5175 148.079 72.2175 148.723 72.2175 149.787ZM75.2034 142.857C75.2034 143.389 74.7834 143.795 74.1814 143.795C73.5794 143.795 73.1454 143.389 73.1454 142.857C73.1454 142.311 73.5794 141.919 74.1814 141.919C74.7834 141.919 75.2034 142.311 75.2034 142.857ZM74.8954 151.999H73.4814V144.579H74.8954V151.999ZM79.5463 154.855C77.6003 154.855 76.3403 153.819 76.2563 152.139H77.6283C77.7123 153.175 78.3843 153.735 79.5323 153.735C80.8063 153.735 81.4783 153.049 81.4783 151.775V150.431C81.0583 151.327 80.2183 151.845 79.2103 151.845C77.3623 151.845 76.0463 150.319 76.0463 148.135C76.0463 145.923 77.3063 144.439 79.1683 144.439C80.2323 144.439 81.0723 144.957 81.5763 145.895V144.579H82.8923V151.747C82.8923 153.693 81.6463 154.855 79.5463 154.855ZM77.4743 148.135C77.4743 149.675 78.2303 150.613 79.4623 150.613C80.6663 150.613 81.4783 149.647 81.4783 148.177C81.4783 146.637 80.6803 145.657 79.4623 145.657C78.2443 145.657 77.4743 146.609 77.4743 148.135ZM85.9838 147.813V151.999H84.5698V144.579H85.8858V145.811C86.3898 144.985 87.2298 144.439 88.2518 144.439C89.7778 144.439 90.7858 145.419 90.7858 147.197V151.999H89.3718V147.673C89.3718 146.399 88.8118 145.685 87.7618 145.685C86.7958 145.685 85.9838 146.497 85.9838 147.813ZM94.3016 151.397C94.3016 152.727 93.2516 153.763 91.7116 153.791V152.993C92.6216 152.965 93.2376 152.475 93.3216 151.789C93.1956 151.831 93.1116 151.845 93.0136 151.845C92.4816 151.845 92.0896 151.411 92.0896 150.893C92.0896 150.291 92.5376 149.899 93.1116 149.899C93.8816 149.899 94.3016 150.459 94.3016 151.397ZM106.156 151.999L104.028 144.117L101.886 151.999H100.304L97.6861 141.947H99.1981L101.13 149.689L103.244 141.947H104.84L106.926 149.703L108.858 141.947H110.37L107.752 151.999H106.156ZM113.777 152.139C111.635 152.139 110.193 150.585 110.193 148.247C110.193 146.049 111.691 144.439 113.735 144.439C115.947 144.439 117.417 146.231 117.165 148.639H111.635C111.747 150.151 112.503 151.033 113.749 151.033C114.799 151.033 115.527 150.459 115.765 149.493H117.165C116.801 151.145 115.527 152.139 113.777 152.139ZM113.707 145.503C112.573 145.503 111.803 146.315 111.649 147.701H115.667C115.597 146.329 114.855 145.503 113.707 145.503ZM125.473 148.289C125.473 150.515 124.185 152.139 122.183 152.139C121.133 152.139 120.237 151.607 119.705 150.669V151.999H118.389V141.947H119.803V145.853C120.321 144.943 121.175 144.439 122.183 144.439C124.171 144.439 125.473 146.035 125.473 148.289ZM124.003 148.289C124.003 146.609 123.121 145.685 121.903 145.685C120.727 145.685 119.803 146.595 119.803 148.261C119.803 149.899 120.699 150.879 121.903 150.879C123.121 150.879 124.003 149.941 124.003 148.289ZM132.506 149.787C132.506 151.243 131.372 152.139 129.398 152.139C127.438 152.139 126.276 151.173 126.136 149.577H127.494C127.55 150.501 128.292 151.075 129.426 151.075C130.42 151.075 131.078 150.725 131.078 150.025C131.078 149.409 130.7 149.143 129.776 148.961L128.572 148.737C127.2 148.471 126.43 147.771 126.43 146.651C126.43 145.349 127.564 144.439 129.286 144.439C131.064 144.439 132.268 145.391 132.394 146.917H131.036C130.952 146.021 130.294 145.503 129.3 145.503C128.404 145.503 127.802 145.881 127.802 146.525C127.802 147.127 128.18 147.407 129.076 147.575L130.336 147.813C131.806 148.079 132.506 148.723 132.506 149.787ZM135.492 142.857C135.492 143.389 135.072 143.795 134.47 143.795C133.868 143.795 133.434 143.389 133.434 142.857C133.434 142.311 133.868 141.919 134.47 141.919C135.072 141.919 135.492 142.311 135.492 142.857ZM135.184 151.999H133.77V144.579H135.184V151.999ZM141.053 150.627V151.873C140.619 152.069 140.241 152.139 139.793 152.139C138.421 152.139 137.469 151.397 137.469 149.759V145.783H135.831V144.579H137.469V142.381H138.883V144.579H141.123V145.783H138.883V149.437C138.883 150.459 139.373 150.823 140.129 150.823C140.465 150.823 140.759 150.767 141.053 150.627ZM145.039 152.139C142.897 152.139 141.455 150.585 141.455 148.247C141.455 146.049 142.953 144.439 144.997 144.439C147.209 144.439 148.679 146.231 148.427 148.639H142.897C143.009 150.151 143.765 151.033 145.011 151.033C146.061 151.033 146.789 150.459 147.027 149.493H148.427C148.063 151.145 146.789 152.139 145.039 152.139ZM144.969 145.503C143.835 145.503 143.065 146.315 142.911 147.701H146.929C146.859 146.329 146.117 145.503 144.969 145.503ZM155.586 151.999H152.408V141.947H155.586C158.792 141.947 160.64 143.991 160.64 146.931C160.64 149.829 158.722 151.999 155.586 151.999ZM153.948 143.277V150.669H155.516C157.826 150.669 159.072 149.241 159.072 146.931C159.072 144.663 157.84 143.277 155.516 143.277H153.948ZM164.912 152.139C162.77 152.139 161.328 150.585 161.328 148.247C161.328 146.049 162.826 144.439 164.87 144.439C167.082 144.439 168.552 146.231 168.3 148.639H162.77C162.882 150.151 163.638 151.033 164.884 151.033C165.934 151.033 166.662 150.459 166.9 149.493H168.3C167.936 151.145 166.662 152.139 164.912 152.139ZM164.842 145.503C163.708 145.503 162.938 146.315 162.784 147.701H166.802C166.732 146.329 165.99 145.503 164.842 145.503ZM175.404 149.787C175.404 151.243 174.27 152.139 172.296 152.139C170.336 152.139 169.174 151.173 169.034 149.577H170.392C170.448 150.501 171.19 151.075 172.324 151.075C173.318 151.075 173.976 150.725 173.976 150.025C173.976 149.409 173.598 149.143 172.674 148.961L171.47 148.737C170.098 148.471 169.328 147.771 169.328 146.651C169.328 145.349 170.462 144.439 172.184 144.439C173.962 144.439 175.166 145.391 175.292 146.917H173.934C173.85 146.021 173.192 145.503 172.198 145.503C171.302 145.503 170.7 145.881 170.7 146.525C170.7 147.127 171.078 147.407 171.974 147.575L173.234 147.813C174.704 148.079 175.404 148.723 175.404 149.787ZM178.389 142.857C178.389 143.389 177.969 143.795 177.367 143.795C176.765 143.795 176.331 143.389 176.331 142.857C176.331 142.311 176.765 141.919 177.367 141.919C177.969 141.919 178.389 142.311 178.389 142.857ZM178.081 151.999H176.667V144.579H178.081V151.999ZM182.732 154.855C180.786 154.855 179.526 153.819 179.442 152.139H180.814C180.898 153.175 181.57 153.735 182.718 153.735C183.992 153.735 184.664 153.049 184.664 151.775V150.431C184.244 151.327 183.404 151.845 182.396 151.845C180.548 151.845 179.232 150.319 179.232 148.135C179.232 145.923 180.492 144.439 182.354 144.439C183.418 144.439 184.258 144.957 184.762 145.895V144.579H186.078V151.747C186.078 153.693 184.832 154.855 182.732 154.855ZM180.66 148.135C180.66 149.675 181.416 150.613 182.648 150.613C183.852 150.613 184.664 149.647 184.664 148.177C184.664 146.637 183.866 145.657 182.648 145.657C181.43 145.657 180.66 146.609 180.66 148.135ZM189.17 147.813V151.999H187.756V144.579H189.072V145.811C189.576 144.985 190.416 144.439 191.438 144.439C192.964 144.439 193.972 145.419 193.972 147.197V151.999H192.558V147.673C192.558 146.399 191.998 145.685 190.948 145.685C189.982 145.685 189.17 146.497 189.17 147.813Z" fill="#1A1A1A"/>
<mask id="path-4-outside-1_0_1" maskUnits="userSpaceOnUse" x="80" y="-0.00146484" width="82" height="81" fill="black">
<rect fill="white" x="80" y="-0.00146484" width="82" height="81"/>
<path d="M109.438 20.0734C109.4 20.4235 109.109 20.7352 108.814 20.9142C108.64 21.0391 108.421 21.057 108.201 21.0748C107.923 21.0901 107.638 20.9361 107.418 20.762C107.246 20.6358 107.163 20.4358 107.053 20.2528C106.784 19.8391 105.257 17.3422 105.016 16.9115C103.783 17.6024 102.531 18.2286 101.338 18.9533C101.61 19.4037 103.14 21.8412 103.468 22.2575C103.606 22.4234 103.72 22.6431 103.774 22.8602C104.007 24.1037 102.491 24.8326 101.62 23.8993C101.369 23.6097 100.324 21.9744 100.128 21.6507C99.6125 20.8288 96.7482 16.1815 96.185 15.4078C95.9954 15.1574 95.7692 14.91 95.6498 14.617C95.2266 13.6621 96.0636 12.6341 97.0636 12.8924C97.2749 12.9564 97.4752 13.0656 97.6193 13.2089C97.7464 13.3241 97.8259 13.4874 97.9109 13.6282C98.0184 13.7745 98.1315 13.8982 98.2305 14.0304C98.4881 14.3934 99.7998 16.5017 100.035 16.8591C101.242 16.1259 102.508 15.4912 103.74 14.8002C103.273 14.0261 102.8 13.2746 102.36 12.4834C102.19 12.2019 102.057 11.9174 101.901 11.6274C101.856 11.5204 101.552 11.0503 101.516 10.9574C101.413 10.6925 101.44 10.3876 101.506 10.1164C101.556 9.91299 101.705 9.74586 101.862 9.5928C102.052 9.40009 102.361 9.30848 102.631 9.27912C102.924 9.25531 103.2 9.39526 103.434 9.56078C103.745 9.75702 104.338 10.9934 104.511 11.3116C105.109 12.3335 108.674 18.2676 109.314 19.264C109.472 19.4947 109.468 19.8052 109.438 20.0734Z"/>
<path d="M114.552 18.2831C114.246 18.4902 113.89 18.6247 113.531 18.6754C112.865 18.7814 112.131 18.6669 111.51 18.3904C110.726 18.0677 110.043 17.451 109.591 16.7459C108.934 15.7344 108.702 14.3859 108.93 13.1998C109.076 12.5233 109.392 11.8574 109.834 11.297C111.037 9.81377 113.275 9.43928 114.795 10.603C115.141 10.8595 115.825 11.6958 115.843 12.1311C115.835 12.1669 115.928 12.28 115.952 12.3083C116.064 12.5015 116.275 13.3309 116.296 13.5627C116.452 14.5908 116.277 15.7138 115.877 16.6699C115.589 17.3124 115.138 17.9085 114.552 18.2831ZM112.898 16.2553C113.001 16.2648 113.117 16.2545 113.209 16.2159C113.361 16.1463 113.447 16.0078 113.532 15.8694C113.827 15.3268 113.94 14.6579 113.881 14.0463C113.87 13.7109 113.695 13.397 113.649 13.0531C113.622 12.9409 113.388 12.6581 113.301 12.577C113.184 12.4356 112.986 12.3808 112.803 12.3901C112.377 12.3719 111.956 12.5893 111.668 12.9443C111.413 13.2919 111.306 13.7733 111.308 14.2124C111.306 15.1424 111.98 16.1501 112.898 16.2553Z"/>
<path d="M121.018 17.8061C120.561 18.0113 119.988 18.085 119.495 17.9368C119.097 17.8178 118.734 17.5542 118.459 17.2523C117.985 16.7082 117.733 15.9779 117.61 15.281C117.287 13.5786 117.407 11.7853 117.681 10.0787C117.721 9.76869 117.795 9.463 117.931 9.18224C118.451 8.12228 120.003 8.27754 120.266 9.42436C120.305 9.62873 120.291 9.85929 120.231 10.0671C120.2 10.1791 120.138 10.2706 120.121 10.4011C119.896 11.7324 119.795 13.1299 119.968 14.4639C120.006 14.801 120.079 15.126 120.203 15.4412C120.465 15.2102 120.671 14.9054 120.874 14.6169C120.938 14.5092 121.167 14.0249 121.215 13.915C121.482 13.1371 121.671 12.3321 121.841 11.5413C121.894 11.2661 122.014 10.9832 122.206 10.7763C122.755 10.2513 123.654 10.3369 124.083 10.9745C124.251 11.2124 124.31 11.519 124.306 11.8006C124.306 12.4313 124.238 13.0697 124.273 13.6884C124.299 14.1234 124.495 15.5269 124.747 15.8756C124.763 15.8777 124.763 15.8777 124.763 15.8777C124.899 15.7296 125.022 15.5468 125.129 15.3617C125.8 14.1558 126.227 12.8013 126.374 11.4266C126.415 11.1166 126.362 10.7611 126.484 10.4619C126.952 9.29542 128.664 9.48849 128.849 10.7246C128.896 10.9964 128.769 12.0916 128.735 12.3527C128.485 13.7471 128.053 15.1506 127.361 16.387C127.079 16.8974 126.762 17.4199 126.33 17.8109C126.012 18.0844 125.632 18.3329 125.223 18.4281C124.864 18.5135 124.469 18.4945 124.12 18.382C123.363 18.0994 122.74 17.4196 122.407 16.6785C122.016 17.1413 121.563 17.5628 121.018 17.8061Z"/>
<path d="M129.449 20.1511C129.198 20.2739 128.873 20.2382 128.62 20.1621C128.285 20.0679 128.012 19.7497 127.865 19.4327C127.789 19.2374 127.8 19.0085 127.804 18.7946C127.843 18.5422 128.315 17.5098 128.399 17.2773C128.806 16.2702 129.228 15.2697 129.664 14.2758C129.864 13.8608 130.992 11.2123 131.178 10.7907C131.29 10.5347 131.987 8.99031 132.092 8.74938C132.163 8.54698 132.324 8.3844 132.494 8.24352C132.642 8.11105 132.867 8.04852 133.078 8.01611C133.296 7.96863 133.504 8.02478 133.706 8.09599C133.968 8.19374 134.179 8.44871 134.323 8.6922C134.452 8.92905 134.46 9.23813 134.407 9.52066C134.379 9.70621 134.034 10.4525 133.946 10.6115C133.628 11.3343 131.703 15.7163 131.394 16.4608C131.222 16.8523 130.271 19.2196 130.099 19.6111C129.972 19.8604 129.716 20.035 129.449 20.1511Z"/>
<path d="M133.062 22.3517C132.321 22.0929 131.629 21.5065 131.258 20.8042C130.974 20.2637 130.756 19.6287 130.802 19.018C130.811 18.8037 130.916 18.5961 131.038 18.4208C131.222 18.1282 131.608 17.9772 131.955 17.9394C132.521 17.8747 133.151 18.3774 133.216 18.945C133.251 19.2106 133.326 19.5044 133.485 19.7363C133.653 19.9547 133.967 20.1353 134.185 19.9667C133.872 19.3251 133.425 18.7306 133.177 18.0539C132.902 17.299 132.924 16.3499 133.291 15.6232C133.539 15.0948 134.05 14.6498 134.601 14.4341C135.074 14.2439 135.608 14.1967 136.116 14.2721C136.611 14.3381 137.101 14.5821 137.518 14.8746C138.132 15.2857 138.548 16.0392 138.736 16.7739C138.807 17.0449 138.732 17.3536 138.622 17.5976C138.526 17.7918 138.341 17.9428 138.174 18.0668C138.008 18.1909 137.779 18.2313 137.569 18.2448C137.291 18.2705 136.998 18.1451 136.77 17.9847C136.649 17.8998 136.569 17.7839 136.49 17.668C136.366 17.5008 136.362 17.277 136.261 17.1058C136.139 16.8794 136.018 16.7945 135.783 16.7298C135.683 16.7001 135.515 16.6826 135.468 16.75C135.407 16.8673 135.482 17.1612 135.515 17.2852C135.567 17.4416 135.993 18.1223 136.076 18.2612C136.369 18.7883 136.657 19.3517 136.707 19.9692C136.74 20.2941 136.687 20.658 136.525 20.9466C136.188 21.5735 135.566 22.1209 134.887 22.3474C134.309 22.5443 133.649 22.543 133.062 22.3517Z"/>
<path d="M89.9831 61.141C89.3482 60.4698 88.7147 58.9787 89.1363 58.1609C89.6174 57.2329 90.9649 57.2959 91.3678 58.2564C91.4412 58.429 91.4429 58.6166 91.4703 58.7838C91.5718 59.5219 92.4838 60.1199 93.2138 60.1697C93.7697 60.2109 94.3421 60.008 94.8582 59.7869C94.3007 59.5581 93.7335 59.211 93.4053 58.716C93.1838 58.4091 93.0009 58.0715 92.9258 57.7114C92.8281 57.2432 92.7791 56.7572 92.8685 56.2873C92.9606 55.7943 93.0885 55.2938 93.2931 54.8373C93.982 53.3244 95.0954 51.9779 96.2924 50.8169C96.5963 50.5125 96.9564 50.2264 97.3669 50.1102C97.6338 50.0241 97.9383 50.1181 98.194 50.2298C98.3832 50.3104 98.5259 50.491 98.6583 50.6586C98.8187 50.8881 98.8531 51.1967 98.8312 51.487C98.8253 51.6386 98.753 51.759 98.7139 51.8951C98.6079 52.1053 98.4021 52.2688 98.2118 52.3989C98.0859 52.478 97.5683 53.0152 97.4729 53.133C96.6435 54.0439 95.7931 55.0344 95.4006 56.207C95.3069 56.5124 95.2078 56.864 95.3242 57.1704C95.4079 57.3558 95.6432 57.4417 95.8352 57.4992C96.2624 57.6426 96.7416 57.6398 97.1929 57.5751C97.8827 57.4679 98.5403 57.1344 99.1517 56.7956C99.7761 56.4465 100.294 55.9093 100.928 55.5731C101.152 55.4585 101.434 55.4444 101.685 55.497C102.655 55.6919 102.982 56.9013 102.269 57.6149C101.926 57.95 101.492 58.1689 101.132 58.455C99.9003 59.4128 98.6758 60.4067 97.365 61.2382C96.7739 61.6028 96.1522 61.9288 95.4925 62.1801C94.6119 62.5228 93.6424 62.7263 92.7 62.5933C91.6885 62.4522 90.679 61.8896 89.9831 61.141Z"/>
<path d="M100.964 67.9308C100.605 67.8461 100.264 67.6749 99.9839 67.4448C99.4544 67.0257 99.04 66.4067 98.8215 65.7617C98.5266 64.9655 98.5148 64.0434 98.7251 63.2325C99.0199 62.0616 99.8511 60.9765 100.875 60.3401C101.469 59.9882 102.171 59.7694 102.881 59.715C104.785 59.5959 106.577 60.9913 106.755 62.9003C106.802 63.3296 106.654 64.4012 106.346 64.7094C106.315 64.7274 106.295 64.8734 106.291 64.9098C106.225 65.1239 105.761 65.8418 105.605 66.0142C104.958 66.8266 104.016 67.4591 103.044 67.8129C102.378 68.0365 101.636 68.1089 100.964 67.9308ZM101.327 65.3363C101.39 65.4189 101.476 65.4971 101.567 65.5388C101.721 65.6038 101.881 65.573 102.04 65.5421C102.638 65.3911 103.204 65.0208 103.613 64.5626C103.851 64.3269 103.962 63.9854 104.183 63.7177C104.247 63.6223 104.295 63.2575 104.296 63.1388C104.32 62.9564 104.226 62.7732 104.094 62.6445C103.819 62.3185 103.374 62.1557 102.919 62.1845C102.491 62.2317 102.066 62.4798 101.745 62.7788C101.063 63.4085 100.782 64.5886 101.327 65.3363Z"/>
<path d="M113.551 71.6107C113.445 72.4725 112.471 72.9156 111.723 72.4988C111.49 72.3594 111.287 72.1255 111.181 71.8525C111.097 71.6205 111.11 71.3495 111.134 71.0989C110.639 71.378 110.078 71.5859 109.519 71.622C109.187 71.6415 108.838 71.6042 108.529 71.4929C108.126 71.353 107.745 71.0823 107.486 70.7458C106.996 70.0981 106.735 69.2619 106.687 68.4563C106.631 67.1668 107.006 65.8708 107.367 64.622C107.481 64.244 107.652 63.8489 107.892 63.5092C108.056 63.2496 108.394 63.0946 108.699 63.0499C109.724 62.949 110.455 64.0482 109.897 64.9276C109.613 65.357 109.218 67.2315 109.164 67.7483C109.125 68.2179 109.135 68.7538 109.374 69.1533C110.348 69.1058 111.508 67.4812 111.931 66.5951C112.034 66.3684 112.475 65.2475 112.636 65.0557C113.398 64.0667 114.958 64.7476 114.821 65.9955C114.8 66.1783 114.716 66.3419 114.648 66.5104C114.191 67.6265 114.031 68.8334 113.83 70.0102C113.735 70.5489 113.625 71.0829 113.551 71.6107Z"/>
<path d="M116.806 72.9776C116.542 73.0398 116.232 72.9533 115.987 72.8512C115.677 72.6988 115.469 72.3503 115.358 72.0197C115.311 71.8545 115.338 71.1307 115.34 70.9662C115.366 70.2424 115.551 66.3281 115.495 65.6197C115.481 65.4056 115.566 65.1928 115.651 64.9965C115.769 64.7512 116.05 64.574 116.298 64.4458C116.546 64.334 116.874 64.3714 117.135 64.4408C117.577 64.5621 117.914 65.0769 117.941 65.5216C118.374 65.0338 118.938 64.6301 119.564 64.4412C119.976 64.3152 120.435 64.2886 120.877 64.3769C122.252 64.6261 122.756 66.2129 122.507 67.6084C122.455 67.8052 122.321 68.0008 122.188 68.1636C121.954 68.4237 121.559 68.517 121.215 68.5287C120.936 68.5249 120.659 68.3566 120.448 68.1726C120.237 67.9887 120.127 67.691 120.081 67.4106C120.066 67.3445 120.104 66.9665 120.105 66.8843C119.691 67.1419 119.439 67.5828 119.171 67.9741C118.752 68.6102 118.317 69.2461 118.077 69.9669C117.872 70.5894 117.846 71.2638 117.788 71.9378C117.769 72.1515 117.651 72.3473 117.534 72.5268C117.383 72.7551 117.086 72.8827 116.806 72.9776Z"/>
<path d="M132.453 71.0487C131.74 71.5585 130.885 71.8959 130.019 72.0776C129.69 72.1427 129.303 72.1076 129.014 71.9247C128.769 71.7596 128.552 71.4933 128.485 71.2008C128.472 71.1704 128.449 70.9842 128.436 70.9538C128.157 70.3216 126.528 66.6344 126.271 66.0111C126.076 65.5398 124.944 62.6259 124.735 62.1609C124.722 62.1304 124.638 61.9695 124.61 61.9454C124.473 61.6995 124.481 61.3755 124.545 61.0997C124.594 60.8302 124.795 60.5863 125.021 60.4033C125.184 60.2821 125.409 60.2244 125.625 60.1881C125.892 60.1482 126.186 60.2577 126.426 60.4076C126.702 60.5601 126.864 60.8668 126.99 61.1709C127.293 60.5285 127.733 59.9181 128.32 59.532C128.728 59.2734 129.176 59.0693 129.66 58.9932C130.329 58.8934 131.049 59.0038 131.701 59.2496C132.488 59.564 133.184 60.1301 133.734 60.7743C134.114 61.222 134.422 61.753 134.663 62.2941C134.999 63.0632 135.219 63.8978 135.247 64.7409C135.311 66.2284 134.964 67.7973 134.19 69.0627C133.739 69.8199 133.16 70.5237 132.453 71.0487ZM128.958 63.4879C128.962 65.517 129.665 67.5223 130.446 69.3709C130.849 69.1857 131.221 68.9245 131.509 68.5909C132.619 67.3643 133.057 65.5437 132.654 63.9656C132.498 63.3716 132.216 62.776 131.815 62.3195C131.543 62.0049 131.21 61.7156 130.824 61.5552C130.588 61.4573 130.329 61.3871 130.076 61.4207C129.273 61.5404 128.964 62.6841 128.958 63.4879Z"/>
<path d="M143.952 62.2792C143.78 62.5092 143.492 62.6003 143.219 62.6578C142.946 62.7152 142.641 62.6063 142.397 62.4677C142.185 62.367 142.029 62.1546 141.869 61.9884C141.828 62.5806 141.739 63.1918 141.505 63.7316C141.287 64.2145 140.98 64.6661 140.545 64.9661C140.172 65.2366 139.691 65.404 139.235 65.4218C138.488 65.4486 137.697 65.1679 137.133 64.6971C136.407 64.0833 135.838 63.2733 135.486 62.3891C135.306 61.9175 135.139 61.4354 135.09 60.9404C134.981 60.0662 135.074 59.1516 135.381 58.3145C135.644 57.5787 136.239 56.9074 136.936 56.5373C137.341 56.3047 137.807 56.171 138.277 56.1195C138.369 55.8707 138.577 55.6322 138.799 55.4885C139.034 55.3342 139.351 55.304 139.629 55.3288C139.917 55.3661 140.19 55.5657 140.392 55.7823C140.51 55.8979 140.911 56.6345 141.003 56.7713C141.777 58.0318 142.672 59.233 143.683 60.316C143.788 60.4422 143.931 60.5368 144.024 60.6735C144.19 60.8986 144.302 61.2123 144.288 61.5031C144.274 61.7939 144.134 62.0618 143.952 62.2792ZM139.058 62.9528C139.081 62.9549 139.127 62.959 139.153 62.9379C139.283 62.7859 139.314 62.5667 139.353 62.3834C139.472 61.8332 139.393 61.2771 139.312 60.7442C139.189 60.0323 139.017 59.3395 138.82 58.6678C138.812 58.632 138.722 58.6006 138.688 58.5859C138.644 58.5586 138.467 58.5779 138.419 58.597C138.194 58.6354 137.987 58.7453 137.844 58.9079C137.702 59.0704 137.635 59.2981 137.581 59.5152C137.485 59.9389 137.469 60.3814 137.558 60.8216C137.63 61.1901 137.774 61.5417 137.955 61.8616C138.145 62.2173 138.663 62.941 139.058 62.9528Z"/>
<path d="M152.976 58.4495C152.93 58.9108 152.788 59.3684 152.563 59.7718C151.993 60.7348 150.559 60.6184 150.259 59.5162C150.16 59.1564 150.217 58.8 150.446 58.4787C150.563 58.2998 150.545 57.7568 150.489 57.5427C150.39 57.1829 150.256 56.8188 150.08 56.4871C149.826 56.0053 149.445 55.5975 149.069 55.2126C149.114 55.7143 149.059 56.2487 148.844 56.6977C148.602 57.188 148.123 57.6208 147.606 57.812C146.912 58.064 146.101 58.0431 145.363 57.912C144.178 57.6841 143.072 57.0356 142.083 56.3269C141.9 56.1868 140.934 55.4734 140.769 55.3058C140.618 55.1473 140.48 54.9977 140.337 54.8254C140.195 54.6531 140.148 54.4253 140.119 54.2293C140.071 53.9421 140.187 53.6445 140.326 53.4015C140.479 53.1675 140.755 53.0147 141.019 52.9122C141.35 52.7955 141.742 52.9156 142.039 53.0913C142.241 53.2038 142.352 53.4539 142.535 53.5939C143.451 54.2941 144.38 55.0626 145.48 55.3917C145.849 55.5165 146.246 55.6001 146.623 55.5332C146.604 54.8716 146.272 54.2398 145.93 53.6811C145.456 52.9364 144.863 52.2519 144.154 51.7463C143.788 51.4662 143.584 50.9978 143.667 50.5407C143.728 50.207 143.971 49.8947 144.261 49.6916C144.478 49.5393 144.792 49.5094 145.069 49.5346C145.311 49.5555 145.517 49.6908 145.709 49.817C146.852 50.5291 148.013 51.2136 149.107 52.0311C150.298 52.9116 151.475 53.9611 152.218 55.256C152.758 56.2011 153.095 57.3668 152.976 58.4495Z"/>
<path d="M120.785 43.4316C120.592 43.4753 120.381 43.4794 120.14 43.4575C120.355 43.463 120.572 43.4548 120.785 43.4316Z"/>
<path d="M135.269 33.5908C134.89 31.144 133.654 29.0792 131.789 27.7763C128.843 25.719 125.662 26.3807 124.758 26.6317C123.433 27.0008 122.243 27.7374 121.238 28.6699C120.974 28.9148 119.998 30.3125 119.707 30.307C119.409 30.3009 119.012 29.4372 118.326 28.7995C116.299 26.9162 113.375 26.0042 110.647 26.511C107.353 27.1215 104.523 29.7736 103.691 33.0287C103.599 33.3916 103.526 33.7688 103.328 34.0874C102.937 34.7197 102.152 34.9755 101.418 35.088C99.7844 35.3377 96.4735 35.028 96.0593 37.2538C95.8376 38.4448 96.717 39.8274 97.2604 40.545C98.0895 41.6392 99.2906 42.5859 100.734 43.2831C102.995 44.3749 105.342 44.789 107.726 44.5183C107.975 44.49 108.223 44.5918 108.375 44.7919C109.588 46.3878 111.146 48.1839 113.018 50.1459C114.997 52.2203 117.11 54.2469 119.297 56.1698L119.314 56.1847C119.522 56.3627 119.829 56.3566 120.029 56.1705C122.216 54.2476 124.329 52.221 126.308 50.1459C131.418 44.7906 132.823 42.0812 133.285 41.191C134.537 38.7783 135.718 36.5 135.269 33.5908ZM119.816 33.5314C120.837 35.0253 122.13 37.4032 122.371 38.7469C122.539 39.6726 122.433 40.6323 121.634 41.2435C121.012 41.719 120.14 41.8226 119.405 41.5539C119.081 41.4359 118.778 41.2463 118.559 40.9795C118.279 40.6378 118.156 40.1937 118.095 39.7558C117.945 38.6508 118.166 37.5416 118.525 36.498C118.707 35.9639 118.929 35.4427 119.16 34.9291C119.219 34.7988 119.869 33.6078 119.816 33.5314ZM131.718 40.3738C131.286 41.2081 129.968 43.7483 125.031 48.9215C123.468 50.5598 121.821 52.1688 120.117 53.7172C119.859 53.9519 119.466 53.9518 119.208 53.7169C117.505 52.167 115.857 50.5592 114.295 48.9215C112.193 46.7189 110.505 44.7401 109.276 43.0382L109.179 42.8954C109.026 42.6694 108.754 42.5561 108.487 42.6071L108.357 42.6316C106.025 43.0764 103.717 42.7578 101.5 41.6876C100.307 41.1119 99.3273 40.3465 98.6669 39.4741C98.1345 38.7705 97.8873 37.9363 97.8173 37.667C97.8021 37.6083 97.7989 37.5396 97.8501 37.5075C98.501 37.1058 99.377 37.045 100.303 36.9816C101.019 36.9325 101.759 36.882 102.474 36.6712C103.794 36.2817 104.753 35.5089 105.174 34.4925C105.348 34.073 105.414 33.6501 105.472 33.2777C105.499 33.0935 105.527 32.9189 105.564 32.7593C105.667 32.32 105.885 31.8664 106.21 31.4121C107.413 29.734 109.359 28.5321 111.419 28.1972C112.617 28.0014 114.388 28.0171 116.02 29.2013C116.975 29.8938 117.667 30.7005 118.377 31.6162C118.547 31.836 118.565 32.1368 118.428 32.379C117.001 34.9028 115.336 38.6467 116.787 41.3738C117.5 42.7115 119.026 43.5682 120.536 43.4741C123.151 43.309 124.544 40.8438 124.11 38.4325C123.749 36.4321 121.931 33.402 120.905 32.0118C120.848 31.9352 120.846 31.831 120.9 31.7531C122.187 29.9284 123.644 28.7797 125.229 28.3391C125.74 28.1972 128.406 27.5724 130.78 29.2299C132.757 30.6106 133.347 32.7251 133.523 33.8629C133.867 36.0846 133.062 37.7838 131.718 40.3738Z"/>
<path d="M124.869 26.2481C126.015 25.9658 129.103 25.4831 131.984 27.4948C133.933 28.8561 135.214 31.0075 135.606 33.5378C136.075 36.5734 134.834 38.9489 133.589 41.3492C133.111 42.2694 131.687 45.0054 126.555 50.3832C124.569 52.4656 122.449 54.4988 120.254 56.4282L120.253 56.4276C119.926 56.7257 119.428 56.7343 119.092 56.445L119.074 56.4302L119.072 56.4276C116.877 54.4982 114.758 52.4648 112.771 50.3832C110.893 48.4149 109.326 46.6087 108.103 44.9998C108.026 44.8989 107.898 44.8441 107.764 44.8592C105.314 45.1375 102.902 44.7102 100.585 43.5916C99.1945 42.9197 98.0118 42.0177 97.1552 40.9649L96.9883 40.7526C96.7082 40.3827 96.3357 39.8339 96.0609 39.2166C95.7888 38.6052 95.5939 37.8857 95.7231 37.1911C95.9703 35.8629 97.0929 35.3338 98.21 35.0946C98.7762 34.9734 99.376 34.918 99.9245 34.877C100.484 34.8352 100.975 34.8089 101.367 34.7491L101.632 34.7016C102.242 34.5753 102.77 34.3391 103.038 33.9068C103.2 33.6456 103.26 33.3374 103.36 32.9433C104.225 29.559 107.16 26.8086 110.585 26.1738C113.424 25.6463 116.456 26.5948 118.558 28.5481C118.929 28.8922 119.219 29.2957 119.435 29.584C119.548 29.735 119.634 29.8457 119.705 29.9187C119.706 29.9194 119.707 29.9201 119.707 29.9207C119.732 29.9 119.76 29.8746 119.792 29.8431C119.915 29.7221 120.064 29.5516 120.219 29.3637C120.374 29.1761 120.526 28.9837 120.662 28.8146C120.789 28.6572 120.917 28.5003 121.005 28.4182C122.042 27.4562 123.279 26.688 124.666 26.3016L124.869 26.2481ZM131.594 28.058C128.775 26.0898 125.722 26.7195 124.849 26.9619C123.587 27.3136 122.443 28.0189 121.47 28.9217C121.426 28.9621 121.334 29.0719 121.194 29.2451C121.064 29.4068 120.904 29.6091 120.746 29.8009C120.587 29.9923 120.421 30.186 120.271 30.3332C120.197 30.4062 120.117 30.476 120.039 30.5301C119.977 30.573 119.852 30.6528 119.7 30.6499C119.477 30.6452 119.309 30.4923 119.218 30.3988C119.11 30.2884 118.998 30.1416 118.889 29.9964C118.661 29.692 118.41 29.3444 118.094 29.051C116.142 27.2377 113.326 26.362 110.71 26.848C107.546 27.4343 104.821 29.9883 104.022 33.114C103.938 33.4454 103.851 33.892 103.618 34.2677C103.141 35.0382 102.217 35.3121 101.47 35.4267C101.044 35.4918 100.509 35.5208 99.9752 35.5607C99.4305 35.6014 98.8703 35.6541 98.3529 35.7649C97.3026 35.9897 96.5624 36.4194 96.3954 37.317C96.3031 37.8132 96.4373 38.3804 96.6852 38.9374C96.9304 39.4883 97.2691 39.9898 97.5324 40.3375C98.3236 41.3816 99.4792 42.2967 100.882 42.9743C103.087 44.0394 105.371 44.4406 107.687 44.1775C108.052 44.1361 108.419 44.2848 108.646 44.584C109.85 46.1669 111.399 47.9533 113.266 49.9092C115.237 51.975 117.34 53.9938 119.519 55.9093L119.537 55.924C119.612 55.9887 119.724 55.9868 119.796 55.9194L119.8 55.916L119.804 55.9127C121.983 53.9962 124.089 51.9768 126.061 49.9092C131.15 44.5763 132.536 41.8927 132.982 41.0325C134.24 38.6077 135.36 36.4263 134.93 33.6436L134.852 33.2051C134.428 31.1082 133.339 29.3455 131.759 28.1765L131.594 28.058ZM111.605 27.8236C112.846 27.6614 114.596 27.7452 116.22 28.9237C117.215 29.6453 117.931 30.4829 118.647 31.4059C118.904 31.7382 118.928 32.189 118.725 32.5482C118.017 33.8002 117.261 35.3369 116.859 36.8864C116.456 38.4397 116.421 39.957 117.088 41.2119L117.218 41.4356C117.913 42.5267 119.225 43.2121 120.515 43.1316C122.874 42.9825 124.181 40.7579 123.773 38.4934C123.603 37.5477 123.079 36.3287 122.455 35.1549C121.835 33.9878 121.133 32.897 120.63 32.2161C120.488 32.0239 120.479 31.7577 120.621 31.5559L120.621 31.5552C121.938 29.6888 123.453 28.4766 125.138 28.0084C125.671 27.8604 128.47 27.1992 130.975 28.9485C133.064 30.4073 133.679 32.6337 133.861 33.8104L133.892 34.0286C134.17 36.2707 133.317 38.0338 132.022 40.5323C131.601 41.3436 130.399 43.6498 126.166 48.2151L125.278 49.1586C123.71 50.8027 122.056 52.4171 120.347 53.9709C119.958 54.3241 119.366 54.3243 118.978 53.9709C117.483 52.6102 116.03 51.2044 114.64 49.7732L114.048 49.1586C111.939 46.9492 110.241 44.9582 108.999 43.2394L108.996 43.2354L108.993 43.2307L108.897 43.0881C108.82 42.9751 108.684 42.9187 108.55 42.9442L108.421 42.9683C106.014 43.4272 103.632 43.0975 101.352 41.9967C100.12 41.4024 99.0942 40.6051 98.3949 39.6813C97.8215 38.9235 97.56 38.0371 97.4863 37.7535C97.4735 37.7044 97.4579 37.6238 97.4696 37.5332C97.4825 37.4339 97.5333 37.3015 97.6692 37.2165L97.6712 37.2159C98.4085 36.7608 99.3798 36.701 100.28 36.6394C101.002 36.5898 101.704 36.5405 102.378 36.3421C103.626 35.9736 104.487 35.2576 104.858 34.3608C105.015 33.9852 105.075 33.6017 105.134 33.2251C105.162 33.0417 105.191 32.8556 105.231 32.6821L105.231 32.6808C105.347 32.1888 105.587 31.6944 105.932 31.2124C107.188 29.4596 109.216 28.2085 111.363 27.8591L111.605 27.8236ZM115.82 29.4788C114.288 28.3679 112.622 28.3479 111.474 28.5354C109.503 28.8559 107.637 30.009 106.487 31.6121L106.486 31.6115C106.182 32.0379 105.988 32.4516 105.897 32.8381L105.896 32.8375C105.863 32.9825 105.837 33.145 105.81 33.3289V33.3303C105.752 33.6984 105.682 34.1613 105.489 34.6246C105.018 35.7601 103.961 36.5898 102.571 37.0003C101.814 37.2233 101.036 37.275 100.326 37.3237C99.4598 37.383 98.7354 37.4402 98.1866 37.7127C98.2848 38.0467 98.515 38.7064 98.939 39.2668L99.0592 39.4195C99.6779 40.1786 100.565 40.8564 101.648 41.3787C103.801 42.4183 106.036 42.7251 108.294 42.2947L108.423 42.2706C108.824 42.1942 109.232 42.3636 109.462 42.7024L109.553 42.837C110.77 44.5221 112.446 46.4887 114.542 48.6845L115.13 49.2952C116.51 50.716 117.953 52.1119 119.438 53.4633C119.565 53.5794 119.76 53.5793 119.888 53.4633C121.585 51.9203 123.227 50.3169 124.785 48.6845L125.665 47.7491C129.859 43.2255 131.024 40.9688 131.415 40.2156C132.722 37.6957 133.462 36.1124 133.213 34.1103L133.185 33.9155C133.015 32.8165 132.449 30.8134 130.584 29.511C128.343 27.9458 125.81 28.5334 125.321 28.6693C123.855 29.0768 122.475 30.1391 121.231 31.8793C121.75 32.5911 122.444 33.6759 123.058 34.8321C123.69 36.0209 124.256 37.317 124.446 38.3716C124.907 40.9296 123.429 43.6346 120.557 43.816C118.966 43.9151 117.365 43.0481 116.561 41.6706L116.485 41.5354C115.702 40.0632 115.774 38.3449 116.198 36.7137C116.622 35.0788 117.412 33.4817 118.131 32.2101C118.202 32.0849 118.19 31.9336 118.107 31.8264C117.402 30.9181 116.734 30.1423 115.82 29.4788ZM120.098 33.3376L120.296 33.6323C120.762 34.3418 121.264 35.198 121.691 36.0401C122.174 36.994 122.577 37.9616 122.708 38.6856L122.738 38.8704C122.87 39.8019 122.732 40.8345 121.841 41.5159C121.119 42.0678 120.123 42.1816 119.288 41.8762C118.966 41.759 118.651 41.5753 118.399 41.3137L118.295 41.1972C117.956 40.7832 117.82 40.2646 117.757 39.8031C117.596 38.6241 117.834 37.456 118.201 36.3863C118.342 35.9748 118.505 35.5727 118.676 35.179L118.849 34.788C118.882 34.7142 119.073 34.357 119.225 34.0554C119.306 33.8949 119.381 33.7416 119.431 33.6262C119.457 33.5675 119.472 33.5268 119.48 33.5037C119.484 33.4909 119.482 33.4946 119.48 33.5091C119.479 33.5162 119.476 33.5377 119.478 33.5666C119.48 33.5903 119.487 33.6558 119.534 33.7247L120.097 33.3356C120.097 33.3363 120.097 33.337 120.098 33.3376ZM119.835 34.3648C119.752 34.5288 119.666 34.6944 119.598 34.8255C119.564 34.8913 119.534 34.9479 119.511 34.9922C119.5 35.0141 119.491 35.0323 119.484 35.0464C119.48 35.0535 119.477 35.0595 119.475 35.0638C119.473 35.0675 119.473 35.0694 119.472 35.0699L119.472 35.0705C119.242 35.58 119.025 36.0899 118.847 36.6092C118.498 37.6265 118.294 38.6781 118.434 39.7087L118.458 39.8621C118.521 40.214 118.63 40.5263 118.823 40.762L118.891 40.8376C119.056 41.0092 119.276 41.1419 119.522 41.2314L119.522 41.232C120.156 41.464 120.904 41.3697 121.426 40.9709C122.074 40.4754 122.193 39.6824 122.035 38.8081C121.923 38.1884 121.56 37.2948 121.081 36.3508C120.715 35.6285 120.291 34.8952 119.886 34.2603C119.869 34.295 119.852 34.3302 119.835 34.3648Z"/>
<path d="M110.929 36.8054C111.503 36.2306 111.503 35.2985 110.929 34.7237C110.356 34.1488 109.427 34.1488 108.854 34.7237C108.281 35.2985 108.281 36.2306 108.854 36.8054C109.427 37.3803 110.356 37.3803 110.929 36.8054Z"/>
</mask>
<path d="M109.438 20.0734C109.4 20.4235 109.109 20.7352 108.814 20.9142C108.64 21.0391 108.421 21.057 108.201 21.0748C107.923 21.0901 107.638 20.9361 107.418 20.762C107.246 20.6358 107.163 20.4358 107.053 20.2528C106.784 19.8391 105.257 17.3422 105.016 16.9115C103.783 17.6024 102.531 18.2286 101.338 18.9533C101.61 19.4037 103.14 21.8412 103.468 22.2575C103.606 22.4234 103.72 22.6431 103.774 22.8602C104.007 24.1037 102.491 24.8326 101.62 23.8993C101.369 23.6097 100.324 21.9744 100.128 21.6507C99.6125 20.8288 96.7482 16.1815 96.185 15.4078C95.9954 15.1574 95.7692 14.91 95.6498 14.617C95.2266 13.6621 96.0636 12.6341 97.0636 12.8924C97.2749 12.9564 97.4752 13.0656 97.6193 13.2089C97.7464 13.3241 97.8259 13.4874 97.9109 13.6282C98.0184 13.7745 98.1315 13.8982 98.2305 14.0304C98.4881 14.3934 99.7998 16.5017 100.035 16.8591C101.242 16.1259 102.508 15.4912 103.74 14.8002C103.273 14.0261 102.8 13.2746 102.36 12.4834C102.19 12.2019 102.057 11.9174 101.901 11.6274C101.856 11.5204 101.552 11.0503 101.516 10.9574C101.413 10.6925 101.44 10.3876 101.506 10.1164C101.556 9.91299 101.705 9.74586 101.862 9.5928C102.052 9.40009 102.361 9.30848 102.631 9.27912C102.924 9.25531 103.2 9.39526 103.434 9.56078C103.745 9.75702 104.338 10.9934 104.511 11.3116C105.109 12.3335 108.674 18.2676 109.314 19.264C109.472 19.4947 109.468 19.8052 109.438 20.0734Z" fill="#1A1A1A"/>
<path d="M114.552 18.2831C114.246 18.4902 113.89 18.6247 113.531 18.6754C112.865 18.7814 112.131 18.6669 111.51 18.3904C110.726 18.0677 110.043 17.451 109.591 16.7459C108.934 15.7344 108.702 14.3859 108.93 13.1998C109.076 12.5233 109.392 11.8574 109.834 11.297C111.037 9.81377 113.275 9.43928 114.795 10.603C115.141 10.8595 115.825 11.6958 115.843 12.1311C115.835 12.1669 115.928 12.28 115.952 12.3083C116.064 12.5015 116.275 13.3309 116.296 13.5627C116.452 14.5908 116.277 15.7138 115.877 16.6699C115.589 17.3124 115.138 17.9085 114.552 18.2831ZM112.898 16.2553C113.001 16.2648 113.117 16.2545 113.209 16.2159C113.361 16.1463 113.447 16.0078 113.532 15.8694C113.827 15.3268 113.94 14.6579 113.881 14.0463C113.87 13.7109 113.695 13.397 113.649 13.0531C113.622 12.9409 113.388 12.6581 113.301 12.577C113.184 12.4356 112.986 12.3808 112.803 12.3901C112.377 12.3719 111.956 12.5893 111.668 12.9443C111.413 13.2919 111.306 13.7733 111.308 14.2124C111.306 15.1424 111.98 16.1501 112.898 16.2553Z" fill="#1A1A1A"/>
<path d="M121.018 17.8061C120.561 18.0113 119.988 18.085 119.495 17.9368C119.097 17.8178 118.734 17.5542 118.459 17.2523C117.985 16.7082 117.733 15.9779 117.61 15.281C117.287 13.5786 117.407 11.7853 117.681 10.0787C117.721 9.76869 117.795 9.463 117.931 9.18224C118.451 8.12228 120.003 8.27754 120.266 9.42436C120.305 9.62873 120.291 9.85929 120.231 10.0671C120.2 10.1791 120.138 10.2706 120.121 10.4011C119.896 11.7324 119.795 13.1299 119.968 14.4639C120.006 14.801 120.079 15.126 120.203 15.4412C120.465 15.2102 120.671 14.9054 120.874 14.6169C120.938 14.5092 121.167 14.0249 121.215 13.915C121.482 13.1371 121.671 12.3321 121.841 11.5413C121.894 11.2661 122.014 10.9832 122.206 10.7763C122.755 10.2513 123.654 10.3369 124.083 10.9745C124.251 11.2124 124.31 11.519 124.306 11.8006C124.306 12.4313 124.238 13.0697 124.273 13.6884C124.299 14.1234 124.495 15.5269 124.747 15.8756C124.763 15.8777 124.763 15.8777 124.763 15.8777C124.899 15.7296 125.022 15.5468 125.129 15.3617C125.8 14.1558 126.227 12.8013 126.374 11.4266C126.415 11.1166 126.362 10.7611 126.484 10.4619C126.952 9.29542 128.664 9.48849 128.849 10.7246C128.896 10.9964 128.769 12.0916 128.735 12.3527C128.485 13.7471 128.053 15.1506 127.361 16.387C127.079 16.8974 126.762 17.4199 126.33 17.8109C126.012 18.0844 125.632 18.3329 125.223 18.4281C124.864 18.5135 124.469 18.4945 124.12 18.382C123.363 18.0994 122.74 17.4196 122.407 16.6785C122.016 17.1413 121.563 17.5628 121.018 17.8061Z" fill="#1A1A1A"/>
<path d="M129.449 20.1511C129.198 20.2739 128.873 20.2382 128.62 20.1621C128.285 20.0679 128.012 19.7497 127.865 19.4327C127.789 19.2374 127.8 19.0085 127.804 18.7946C127.843 18.5422 128.315 17.5098 128.399 17.2773C128.806 16.2702 129.228 15.2697 129.664 14.2758C129.864 13.8608 130.992 11.2123 131.178 10.7907C131.29 10.5347 131.987 8.99031 132.092 8.74938C132.163 8.54698 132.324 8.3844 132.494 8.24352C132.642 8.11105 132.867 8.04852 133.078 8.01611C133.296 7.96863 133.504 8.02478 133.706 8.09599C133.968 8.19374 134.179 8.44871 134.323 8.6922C134.452 8.92905 134.46 9.23813 134.407 9.52066C134.379 9.70621 134.034 10.4525 133.946 10.6115C133.628 11.3343 131.703 15.7163 131.394 16.4608C131.222 16.8523 130.271 19.2196 130.099 19.6111C129.972 19.8604 129.716 20.035 129.449 20.1511Z" fill="#1A1A1A"/>
<path d="M133.062 22.3517C132.321 22.0929 131.629 21.5065 131.258 20.8042C130.974 20.2637 130.756 19.6287 130.802 19.018C130.811 18.8037 130.916 18.5961 131.038 18.4208C131.222 18.1282 131.608 17.9772 131.955 17.9394C132.521 17.8747 133.151 18.3774 133.216 18.945C133.251 19.2106 133.326 19.5044 133.485 19.7363C133.653 19.9547 133.967 20.1353 134.185 19.9667C133.872 19.3251 133.425 18.7306 133.177 18.0539C132.902 17.299 132.924 16.3499 133.291 15.6232C133.539 15.0948 134.05 14.6498 134.601 14.4341C135.074 14.2439 135.608 14.1967 136.116 14.2721C136.611 14.3381 137.101 14.5821 137.518 14.8746C138.132 15.2857 138.548 16.0392 138.736 16.7739C138.807 17.0449 138.732 17.3536 138.622 17.5976C138.526 17.7918 138.341 17.9428 138.174 18.0668C138.008 18.1909 137.779 18.2313 137.569 18.2448C137.291 18.2705 136.998 18.1451 136.77 17.9847C136.649 17.8998 136.569 17.7839 136.49 17.668C136.366 17.5008 136.362 17.277 136.261 17.1058C136.139 16.8794 136.018 16.7945 135.783 16.7298C135.683 16.7001 135.515 16.6826 135.468 16.75C135.407 16.8673 135.482 17.1612 135.515 17.2852C135.567 17.4416 135.993 18.1223 136.076 18.2612C136.369 18.7883 136.657 19.3517 136.707 19.9692C136.74 20.2941 136.687 20.658 136.525 20.9466C136.188 21.5735 135.566 22.1209 134.887 22.3474C134.309 22.5443 133.649 22.543 133.062 22.3517Z" fill="#1A1A1A"/>
<path d="M89.9831 61.141C89.3482 60.4698 88.7147 58.9787 89.1363 58.1609C89.6174 57.2329 90.9649 57.2959 91.3678 58.2564C91.4412 58.429 91.4429 58.6166 91.4703 58.7838C91.5718 59.5219 92.4838 60.1199 93.2138 60.1697C93.7697 60.2109 94.3421 60.008 94.8582 59.7869C94.3007 59.5581 93.7335 59.211 93.4053 58.716C93.1838 58.4091 93.0009 58.0715 92.9258 57.7114C92.8281 57.2432 92.7791 56.7572 92.8685 56.2873C92.9606 55.7943 93.0885 55.2938 93.2931 54.8373C93.982 53.3244 95.0954 51.9779 96.2924 50.8169C96.5963 50.5125 96.9564 50.2264 97.3669 50.1102C97.6338 50.0241 97.9383 50.1181 98.194 50.2298C98.3832 50.3104 98.5259 50.491 98.6583 50.6586C98.8187 50.8881 98.8531 51.1967 98.8312 51.487C98.8253 51.6386 98.753 51.759 98.7139 51.8951C98.6079 52.1053 98.4021 52.2688 98.2118 52.3989C98.0859 52.478 97.5683 53.0152 97.4729 53.133C96.6435 54.0439 95.7931 55.0344 95.4006 56.207C95.3069 56.5124 95.2078 56.864 95.3242 57.1704C95.4079 57.3558 95.6432 57.4417 95.8352 57.4992C96.2624 57.6426 96.7416 57.6398 97.1929 57.5751C97.8827 57.4679 98.5403 57.1344 99.1517 56.7956C99.7761 56.4465 100.294 55.9093 100.928 55.5731C101.152 55.4585 101.434 55.4444 101.685 55.497C102.655 55.6919 102.982 56.9013 102.269 57.6149C101.926 57.95 101.492 58.1689 101.132 58.455C99.9003 59.4128 98.6758 60.4067 97.365 61.2382C96.7739 61.6028 96.1522 61.9288 95.4925 62.1801C94.6119 62.5228 93.6424 62.7263 92.7 62.5933C91.6885 62.4522 90.679 61.8896 89.9831 61.141Z" fill="#1A1A1A"/>
<path d="M100.964 67.9308C100.605 67.8461 100.264 67.6749 99.9839 67.4448C99.4544 67.0257 99.04 66.4067 98.8215 65.7617C98.5266 64.9655 98.5148 64.0434 98.7251 63.2325C99.0199 62.0616 99.8511 60.9765 100.875 60.3401C101.469 59.9882 102.171 59.7694 102.881 59.715C104.785 59.5959 106.577 60.9913 106.755 62.9003C106.802 63.3296 106.654 64.4012 106.346 64.7094C106.315 64.7274 106.295 64.8734 106.291 64.9098C106.225 65.1239 105.761 65.8418 105.605 66.0142C104.958 66.8266 104.016 67.4591 103.044 67.8129C102.378 68.0365 101.636 68.1089 100.964 67.9308ZM101.327 65.3363C101.39 65.4189 101.476 65.4971 101.567 65.5388C101.721 65.6038 101.881 65.573 102.04 65.5421C102.638 65.3911 103.204 65.0208 103.613 64.5626C103.851 64.3269 103.962 63.9854 104.183 63.7177C104.247 63.6223 104.295 63.2575 104.296 63.1388C104.32 62.9564 104.226 62.7732 104.094 62.6445C103.819 62.3185 103.374 62.1557 102.919 62.1845C102.491 62.2317 102.066 62.4798 101.745 62.7788C101.063 63.4085 100.782 64.5886 101.327 65.3363Z" fill="#1A1A1A"/>
<path d="M113.551 71.6107C113.445 72.4725 112.471 72.9156 111.723 72.4988C111.49 72.3594 111.287 72.1255 111.181 71.8525C111.097 71.6205 111.11 71.3495 111.134 71.0989C110.639 71.378 110.078 71.5859 109.519 71.622C109.187 71.6415 108.838 71.6042 108.529 71.4929C108.126 71.353 107.745 71.0823 107.486 70.7458C106.996 70.0981 106.735 69.2619 106.687 68.4563C106.631 67.1668 107.006 65.8708 107.367 64.622C107.481 64.244 107.652 63.8489 107.892 63.5092C108.056 63.2496 108.394 63.0946 108.699 63.0499C109.724 62.949 110.455 64.0482 109.897 64.9276C109.613 65.357 109.218 67.2315 109.164 67.7483C109.125 68.2179 109.135 68.7538 109.374 69.1533C110.348 69.1058 111.508 67.4812 111.931 66.5951C112.034 66.3684 112.475 65.2475 112.636 65.0557C113.398 64.0667 114.958 64.7476 114.821 65.9955C114.8 66.1783 114.716 66.3419 114.648 66.5104C114.191 67.6265 114.031 68.8334 113.83 70.0102C113.735 70.5489 113.625 71.0829 113.551 71.6107Z" fill="#1A1A1A"/>
<path d="M116.806 72.9776C116.542 73.0398 116.232 72.9533 115.987 72.8512C115.677 72.6988 115.469 72.3503 115.358 72.0197C115.311 71.8545 115.338 71.1307 115.34 70.9662C115.366 70.2424 115.551 66.3281 115.495 65.6197C115.481 65.4056 115.566 65.1928 115.651 64.9965C115.769 64.7512 116.05 64.574 116.298 64.4458C116.546 64.334 116.874 64.3714 117.135 64.4408C117.577 64.5621 117.914 65.0769 117.941 65.5216C118.374 65.0338 118.938 64.6301 119.564 64.4412C119.976 64.3152 120.435 64.2886 120.877 64.3769C122.252 64.6261 122.756 66.2129 122.507 67.6084C122.455 67.8052 122.321 68.0008 122.188 68.1636C121.954 68.4237 121.559 68.517 121.215 68.5287C120.936 68.5249 120.659 68.3566 120.448 68.1726C120.237 67.9887 120.127 67.691 120.081 67.4106C120.066 67.3445 120.104 66.9665 120.105 66.8843C119.691 67.1419 119.439 67.5828 119.171 67.9741C118.752 68.6102 118.317 69.2461 118.077 69.9669C117.872 70.5894 117.846 71.2638 117.788 71.9378C117.769 72.1515 117.651 72.3473 117.534 72.5268C117.383 72.7551 117.086 72.8827 116.806 72.9776Z" fill="#1A1A1A"/>
<path d="M132.453 71.0487C131.74 71.5585 130.885 71.8959 130.019 72.0776C129.69 72.1427 129.303 72.1076 129.014 71.9247C128.769 71.7596 128.552 71.4933 128.485 71.2008C128.472 71.1704 128.449 70.9842 128.436 70.9538C128.157 70.3216 126.528 66.6344 126.271 66.0111C126.076 65.5398 124.944 62.6259 124.735 62.1609C124.722 62.1304 124.638 61.9695 124.61 61.9454C124.473 61.6995 124.481 61.3755 124.545 61.0997C124.594 60.8302 124.795 60.5863 125.021 60.4033C125.184 60.2821 125.409 60.2244 125.625 60.1881C125.892 60.1482 126.186 60.2577 126.426 60.4076C126.702 60.5601 126.864 60.8668 126.99 61.1709C127.293 60.5285 127.733 59.9181 128.32 59.532C128.728 59.2734 129.176 59.0693 129.66 58.9932C130.329 58.8934 131.049 59.0038 131.701 59.2496C132.488 59.564 133.184 60.1301 133.734 60.7743C134.114 61.222 134.422 61.753 134.663 62.2941C134.999 63.0632 135.219 63.8978 135.247 64.7409C135.311 66.2284 134.964 67.7973 134.19 69.0627C133.739 69.8199 133.16 70.5237 132.453 71.0487ZM128.958 63.4879C128.962 65.517 129.665 67.5223 130.446 69.3709C130.849 69.1857 131.221 68.9245 131.509 68.5909C132.619 67.3643 133.057 65.5437 132.654 63.9656C132.498 63.3716 132.216 62.776 131.815 62.3195C131.543 62.0049 131.21 61.7156 130.824 61.5552C130.588 61.4573 130.329 61.3871 130.076 61.4207C129.273 61.5404 128.964 62.6841 128.958 63.4879Z" fill="#1A1A1A"/>
<path d="M143.952 62.2792C143.78 62.5092 143.492 62.6003 143.219 62.6578C142.946 62.7152 142.641 62.6063 142.397 62.4677C142.185 62.367 142.029 62.1546 141.869 61.9884C141.828 62.5806 141.739 63.1918 141.505 63.7316C141.287 64.2145 140.98 64.6661 140.545 64.9661C140.172 65.2366 139.691 65.404 139.235 65.4218C138.488 65.4486 137.697 65.1679 137.133 64.6971C136.407 64.0833 135.838 63.2733 135.486 62.3891C135.306 61.9175 135.139 61.4354 135.09 60.9404C134.981 60.0662 135.074 59.1516 135.381 58.3145C135.644 57.5787 136.239 56.9074 136.936 56.5373C137.341 56.3047 137.807 56.171 138.277 56.1195C138.369 55.8707 138.577 55.6322 138.799 55.4885C139.034 55.3342 139.351 55.304 139.629 55.3288C139.917 55.3661 140.19 55.5657 140.392 55.7823C140.51 55.8979 140.911 56.6345 141.003 56.7713C141.777 58.0318 142.672 59.233 143.683 60.316C143.788 60.4422 143.931 60.5368 144.024 60.6735C144.19 60.8986 144.302 61.2123 144.288 61.5031C144.274 61.7939 144.134 62.0618 143.952 62.2792ZM139.058 62.9528C139.081 62.9549 139.127 62.959 139.153 62.9379C139.283 62.7859 139.314 62.5667 139.353 62.3834C139.472 61.8332 139.393 61.2771 139.312 60.7442C139.189 60.0323 139.017 59.3395 138.82 58.6678C138.812 58.632 138.722 58.6006 138.688 58.5859C138.644 58.5586 138.467 58.5779 138.419 58.597C138.194 58.6354 137.987 58.7453 137.844 58.9079C137.702 59.0704 137.635 59.2981 137.581 59.5152C137.485 59.9389 137.469 60.3814 137.558 60.8216C137.63 61.1901 137.774 61.5417 137.955 61.8616C138.145 62.2173 138.663 62.941 139.058 62.9528Z" fill="#1A1A1A"/>
<path d="M152.976 58.4495C152.93 58.9108 152.788 59.3684 152.563 59.7718C151.993 60.7348 150.559 60.6184 150.259 59.5162C150.16 59.1564 150.217 58.8 150.446 58.4787C150.563 58.2998 150.545 57.7568 150.489 57.5427C150.39 57.1829 150.256 56.8188 150.08 56.4871C149.826 56.0053 149.445 55.5975 149.069 55.2126C149.114 55.7143 149.059 56.2487 148.844 56.6977C148.602 57.188 148.123 57.6208 147.606 57.812C146.912 58.064 146.101 58.0431 145.363 57.912C144.178 57.6841 143.072 57.0356 142.083 56.3269C141.9 56.1868 140.934 55.4734 140.769 55.3058C140.618 55.1473 140.48 54.9977 140.337 54.8254C140.195 54.6531 140.148 54.4253 140.119 54.2293C140.071 53.9421 140.187 53.6445 140.326 53.4015C140.479 53.1675 140.755 53.0147 141.019 52.9122C141.35 52.7955 141.742 52.9156 142.039 53.0913C142.241 53.2038 142.352 53.4539 142.535 53.5939C143.451 54.2941 144.38 55.0626 145.48 55.3917C145.849 55.5165 146.246 55.6001 146.623 55.5332C146.604 54.8716 146.272 54.2398 145.93 53.6811C145.456 52.9364 144.863 52.2519 144.154 51.7463C143.788 51.4662 143.584 50.9978 143.667 50.5407C143.728 50.207 143.971 49.8947 144.261 49.6916C144.478 49.5393 144.792 49.5094 145.069 49.5346C145.311 49.5555 145.517 49.6908 145.709 49.817C146.852 50.5291 148.013 51.2136 149.107 52.0311C150.298 52.9116 151.475 53.9611 152.218 55.256C152.758 56.2011 153.095 57.3668 152.976 58.4495Z" fill="#1A1A1A"/>
<path d="M120.785 43.4316C120.592 43.4753 120.381 43.4794 120.14 43.4575C120.355 43.463 120.572 43.4548 120.785 43.4316Z" fill="#1A1A1A"/>
<path d="M135.269 33.5908C134.89 31.144 133.654 29.0792 131.789 27.7763C128.843 25.719 125.662 26.3807 124.758 26.6317C123.433 27.0008 122.243 27.7374 121.238 28.6699C120.974 28.9148 119.998 30.3125 119.707 30.307C119.409 30.3009 119.012 29.4372 118.326 28.7995C116.299 26.9162 113.375 26.0042 110.647 26.511C107.353 27.1215 104.523 29.7736 103.691 33.0287C103.599 33.3916 103.526 33.7688 103.328 34.0874C102.937 34.7197 102.152 34.9755 101.418 35.088C99.7844 35.3377 96.4735 35.028 96.0593 37.2538C95.8376 38.4448 96.717 39.8274 97.2604 40.545C98.0895 41.6392 99.2906 42.5859 100.734 43.2831C102.995 44.3749 105.342 44.789 107.726 44.5183C107.975 44.49 108.223 44.5918 108.375 44.7919C109.588 46.3878 111.146 48.1839 113.018 50.1459C114.997 52.2203 117.11 54.2469 119.297 56.1698L119.314 56.1847C119.522 56.3627 119.829 56.3566 120.029 56.1705C122.216 54.2476 124.329 52.221 126.308 50.1459C131.418 44.7906 132.823 42.0812 133.285 41.191C134.537 38.7783 135.718 36.5 135.269 33.5908ZM119.816 33.5314C120.837 35.0253 122.13 37.4032 122.371 38.7469C122.539 39.6726 122.433 40.6323 121.634 41.2435C121.012 41.719 120.14 41.8226 119.405 41.5539C119.081 41.4359 118.778 41.2463 118.559 40.9795C118.279 40.6378 118.156 40.1937 118.095 39.7558C117.945 38.6508 118.166 37.5416 118.525 36.498C118.707 35.9639 118.929 35.4427 119.16 34.9291C119.219 34.7988 119.869 33.6078 119.816 33.5314ZM131.718 40.3738C131.286 41.2081 129.968 43.7483 125.031 48.9215C123.468 50.5598 121.821 52.1688 120.117 53.7172C119.859 53.9519 119.466 53.9518 119.208 53.7169C117.505 52.167 115.857 50.5592 114.295 48.9215C112.193 46.7189 110.505 44.7401 109.276 43.0382L109.179 42.8954C109.026 42.6694 108.754 42.5561 108.487 42.6071L108.357 42.6316C106.025 43.0764 103.717 42.7578 101.5 41.6876C100.307 41.1119 99.3273 40.3465 98.6669 39.4741C98.1345 38.7705 97.8873 37.9363 97.8173 37.667C97.8021 37.6083 97.7989 37.5396 97.8501 37.5075C98.501 37.1058 99.377 37.045 100.303 36.9816C101.019 36.9325 101.759 36.882 102.474 36.6712C103.794 36.2817 104.753 35.5089 105.174 34.4925C105.348 34.073 105.414 33.6501 105.472 33.2777C105.499 33.0935 105.527 32.9189 105.564 32.7593C105.667 32.32 105.885 31.8664 106.21 31.4121C107.413 29.734 109.359 28.5321 111.419 28.1972C112.617 28.0014 114.388 28.0171 116.02 29.2013C116.975 29.8938 117.667 30.7005 118.377 31.6162C118.547 31.836 118.565 32.1368 118.428 32.379C117.001 34.9028 115.336 38.6467 116.787 41.3738C117.5 42.7115 119.026 43.5682 120.536 43.4741C123.151 43.309 124.544 40.8438 124.11 38.4325C123.749 36.4321 121.931 33.402 120.905 32.0118C120.848 31.9352 120.846 31.831 120.9 31.7531C122.187 29.9284 123.644 28.7797 125.229 28.3391C125.74 28.1972 128.406 27.5724 130.78 29.2299C132.757 30.6106 133.347 32.7251 133.523 33.8629C133.867 36.0846 133.062 37.7838 131.718 40.3738Z" fill="#1A1A1A"/>
<path d="M124.869 26.2481C126.015 25.9658 129.103 25.4831 131.984 27.4948C133.933 28.8561 135.214 31.0075 135.606 33.5378C136.075 36.5734 134.834 38.9489 133.589 41.3492C133.111 42.2694 131.687 45.0054 126.555 50.3832C124.569 52.4656 122.449 54.4988 120.254 56.4282L120.253 56.4276C119.926 56.7257 119.428 56.7343 119.092 56.445L119.074 56.4302L119.072 56.4276C116.877 54.4982 114.758 52.4648 112.771 50.3832C110.893 48.4149 109.326 46.6087 108.103 44.9998C108.026 44.8989 107.898 44.8441 107.764 44.8592C105.314 45.1375 102.902 44.7102 100.585 43.5916C99.1945 42.9197 98.0118 42.0177 97.1552 40.9649L96.9883 40.7526C96.7082 40.3827 96.3357 39.8339 96.0609 39.2166C95.7888 38.6052 95.5939 37.8857 95.7231 37.1911C95.9703 35.8629 97.0929 35.3338 98.21 35.0946C98.7762 34.9734 99.376 34.918 99.9245 34.877C100.484 34.8352 100.975 34.8089 101.367 34.7491L101.632 34.7016C102.242 34.5753 102.77 34.3391 103.038 33.9068C103.2 33.6456 103.26 33.3374 103.36 32.9433C104.225 29.559 107.16 26.8086 110.585 26.1738C113.424 25.6463 116.456 26.5948 118.558 28.5481C118.929 28.8922 119.219 29.2957 119.435 29.584C119.548 29.735 119.634 29.8457 119.705 29.9187C119.706 29.9194 119.707 29.9201 119.707 29.9207C119.732 29.9 119.76 29.8746 119.792 29.8431C119.915 29.7221 120.064 29.5516 120.219 29.3637C120.374 29.1761 120.526 28.9837 120.662 28.8146C120.789 28.6572 120.917 28.5003 121.005 28.4182C122.042 27.4562 123.279 26.688 124.666 26.3016L124.869 26.2481ZM131.594 28.058C128.775 26.0898 125.722 26.7195 124.849 26.9619C123.587 27.3136 122.443 28.0189 121.47 28.9217C121.426 28.9621 121.334 29.0719 121.194 29.2451C121.064 29.4068 120.904 29.6091 120.746 29.8009C120.587 29.9923 120.421 30.186 120.271 30.3332C120.197 30.4062 120.117 30.476 120.039 30.5301C119.977 30.573 119.852 30.6528 119.7 30.6499C119.477 30.6452 119.309 30.4923 119.218 30.3988C119.11 30.2884 118.998 30.1416 118.889 29.9964C118.661 29.692 118.41 29.3444 118.094 29.051C116.142 27.2377 113.326 26.362 110.71 26.848C107.546 27.4343 104.821 29.9883 104.022 33.114C103.938 33.4454 103.851 33.892 103.618 34.2677C103.141 35.0382 102.217 35.3121 101.47 35.4267C101.044 35.4918 100.509 35.5208 99.9752 35.5607C99.4305 35.6014 98.8703 35.6541 98.3529 35.7649C97.3026 35.9897 96.5624 36.4194 96.3954 37.317C96.3031 37.8132 96.4373 38.3804 96.6852 38.9374C96.9304 39.4883 97.2691 39.9898 97.5324 40.3375C98.3236 41.3816 99.4792 42.2967 100.882 42.9743C103.087 44.0394 105.371 44.4406 107.687 44.1775C108.052 44.1361 108.419 44.2848 108.646 44.584C109.85 46.1669 111.399 47.9533 113.266 49.9092C115.237 51.975 117.34 53.9938 119.519 55.9093L119.537 55.924C119.612 55.9887 119.724 55.9868 119.796 55.9194L119.8 55.916L119.804 55.9127C121.983 53.9962 124.089 51.9768 126.061 49.9092C131.15 44.5763 132.536 41.8927 132.982 41.0325C134.24 38.6077 135.36 36.4263 134.93 33.6436L134.852 33.2051C134.428 31.1082 133.339 29.3455 131.759 28.1765L131.594 28.058ZM111.605 27.8236C112.846 27.6614 114.596 27.7452 116.22 28.9237C117.215 29.6453 117.931 30.4829 118.647 31.4059C118.904 31.7382 118.928 32.189 118.725 32.5482C118.017 33.8002 117.261 35.3369 116.859 36.8864C116.456 38.4397 116.421 39.957 117.088 41.2119L117.218 41.4356C117.913 42.5267 119.225 43.2121 120.515 43.1316C122.874 42.9825 124.181 40.7579 123.773 38.4934C123.603 37.5477 123.079 36.3287 122.455 35.1549C121.835 33.9878 121.133 32.897 120.63 32.2161C120.488 32.0239 120.479 31.7577 120.621 31.5559L120.621 31.5552C121.938 29.6888 123.453 28.4766 125.138 28.0084C125.671 27.8604 128.47 27.1992 130.975 28.9485C133.064 30.4073 133.679 32.6337 133.861 33.8104L133.892 34.0286C134.17 36.2707 133.317 38.0338 132.022 40.5323C131.601 41.3436 130.399 43.6498 126.166 48.2151L125.278 49.1586C123.71 50.8027 122.056 52.4171 120.347 53.9709C119.958 54.3241 119.366 54.3243 118.978 53.9709C117.483 52.6102 116.03 51.2044 114.64 49.7732L114.048 49.1586C111.939 46.9492 110.241 44.9582 108.999 43.2394L108.996 43.2354L108.993 43.2307L108.897 43.0881C108.82 42.9751 108.684 42.9187 108.55 42.9442L108.421 42.9683C106.014 43.4272 103.632 43.0975 101.352 41.9967C100.12 41.4024 99.0942 40.6051 98.3949 39.6813C97.8215 38.9235 97.56 38.0371 97.4863 37.7535C97.4735 37.7044 97.4579 37.6238 97.4696 37.5332C97.4825 37.4339 97.5333 37.3015 97.6692 37.2165L97.6712 37.2159C98.4085 36.7608 99.3798 36.701 100.28 36.6394C101.002 36.5898 101.704 36.5405 102.378 36.3421C103.626 35.9736 104.487 35.2576 104.858 34.3608C105.015 33.9852 105.075 33.6017 105.134 33.2251C105.162 33.0417 105.191 32.8556 105.231 32.6821L105.231 32.6808C105.347 32.1888 105.587 31.6944 105.932 31.2124C107.188 29.4596 109.216 28.2085 111.363 27.8591L111.605 27.8236ZM115.82 29.4788C114.288 28.3679 112.622 28.3479 111.474 28.5354C109.503 28.8559 107.637 30.009 106.487 31.6121L106.486 31.6115C106.182 32.0379 105.988 32.4516 105.897 32.8381L105.896 32.8375C105.863 32.9825 105.837 33.145 105.81 33.3289V33.3303C105.752 33.6984 105.682 34.1613 105.489 34.6246C105.018 35.7601 103.961 36.5898 102.571 37.0003C101.814 37.2233 101.036 37.275 100.326 37.3237C99.4598 37.383 98.7354 37.4402 98.1866 37.7127C98.2848 38.0467 98.515 38.7064 98.939 39.2668L99.0592 39.4195C99.6779 40.1786 100.565 40.8564 101.648 41.3787C103.801 42.4183 106.036 42.7251 108.294 42.2947L108.423 42.2706C108.824 42.1942 109.232 42.3636 109.462 42.7024L109.553 42.837C110.77 44.5221 112.446 46.4887 114.542 48.6845L115.13 49.2952C116.51 50.716 117.953 52.1119 119.438 53.4633C119.565 53.5794 119.76 53.5793 119.888 53.4633C121.585 51.9203 123.227 50.3169 124.785 48.6845L125.665 47.7491C129.859 43.2255 131.024 40.9688 131.415 40.2156C132.722 37.6957 133.462 36.1124 133.213 34.1103L133.185 33.9155C133.015 32.8165 132.449 30.8134 130.584 29.511C128.343 27.9458 125.81 28.5334 125.321 28.6693C123.855 29.0768 122.475 30.1391 121.231 31.8793C121.75 32.5911 122.444 33.6759 123.058 34.8321C123.69 36.0209 124.256 37.317 124.446 38.3716C124.907 40.9296 123.429 43.6346 120.557 43.816C118.966 43.9151 117.365 43.0481 116.561 41.6706L116.485 41.5354C115.702 40.0632 115.774 38.3449 116.198 36.7137C116.622 35.0788 117.412 33.4817 118.131 32.2101C118.202 32.0849 118.19 31.9336 118.107 31.8264C117.402 30.9181 116.734 30.1423 115.82 29.4788ZM120.098 33.3376L120.296 33.6323C120.762 34.3418 121.264 35.198 121.691 36.0401C122.174 36.994 122.577 37.9616 122.708 38.6856L122.738 38.8704C122.87 39.8019 122.732 40.8345 121.841 41.5159C121.119 42.0678 120.123 42.1816 119.288 41.8762C118.966 41.759 118.651 41.5753 118.399 41.3137L118.295 41.1972C117.956 40.7832 117.82 40.2646 117.757 39.8031C117.596 38.6241 117.834 37.456 118.201 36.3863C118.342 35.9748 118.505 35.5727 118.676 35.179L118.849 34.788C118.882 34.7142 119.073 34.357 119.225 34.0554C119.306 33.8949 119.381 33.7416 119.431 33.6262C119.457 33.5675 119.472 33.5268 119.48 33.5037C119.484 33.4909 119.482 33.4946 119.48 33.5091C119.479 33.5162 119.476 33.5377 119.478 33.5666C119.48 33.5903 119.487 33.6558 119.534 33.7247L120.097 33.3356C120.097 33.3363 120.097 33.337 120.098 33.3376ZM119.835 34.3648C119.752 34.5288 119.666 34.6944 119.598 34.8255C119.564 34.8913 119.534 34.9479 119.511 34.9922C119.5 35.0141 119.491 35.0323 119.484 35.0464C119.48 35.0535 119.477 35.0595 119.475 35.0638C119.473 35.0675 119.473 35.0694 119.472 35.0699L119.472 35.0705C119.242 35.58 119.025 36.0899 118.847 36.6092C118.498 37.6265 118.294 38.6781 118.434 39.7087L118.458 39.8621C118.521 40.214 118.63 40.5263 118.823 40.762L118.891 40.8376C119.056 41.0092 119.276 41.1419 119.522 41.2314L119.522 41.232C120.156 41.464 120.904 41.3697 121.426 40.9709C122.074 40.4754 122.193 39.6824 122.035 38.8081C121.923 38.1884 121.56 37.2948 121.081 36.3508C120.715 35.6285 120.291 34.8952 119.886 34.2603C119.869 34.295 119.852 34.3302 119.835 34.3648Z" fill="#1A1A1A"/>
<path d="M110.929 36.8054C111.503 36.2306 111.503 35.2985 110.929 34.7237C110.356 34.1488 109.427 34.1488 108.854 34.7237C108.281 35.2985 108.281 36.2306 108.854 36.8054C109.427 37.3803 110.356 37.3803 110.929 36.8054Z" fill="#1A1A1A"/>
<path d="M109.438 20.0734C109.4 20.4235 109.109 20.7352 108.814 20.9142C108.64 21.0391 108.421 21.057 108.201 21.0748C107.923 21.0901 107.638 20.9361 107.418 20.762C107.246 20.6358 107.163 20.4358 107.053 20.2528C106.784 19.8391 105.257 17.3422 105.016 16.9115C103.783 17.6024 102.531 18.2286 101.338 18.9533C101.61 19.4037 103.14 21.8412 103.468 22.2575C103.606 22.4234 103.72 22.6431 103.774 22.8602C104.007 24.1037 102.491 24.8326 101.62 23.8993C101.369 23.6097 100.324 21.9744 100.128 21.6507C99.6125 20.8288 96.7482 16.1815 96.185 15.4078C95.9954 15.1574 95.7692 14.91 95.6498 14.617C95.2266 13.6621 96.0636 12.6341 97.0636 12.8924C97.2749 12.9564 97.4752 13.0656 97.6193 13.2089C97.7464 13.3241 97.8259 13.4874 97.9109 13.6282C98.0184 13.7745 98.1315 13.8982 98.2305 14.0304C98.4881 14.3934 99.7998 16.5017 100.035 16.8591C101.242 16.1259 102.508 15.4912 103.74 14.8002C103.273 14.0261 102.8 13.2746 102.36 12.4834C102.19 12.2019 102.057 11.9174 101.901 11.6274C101.856 11.5204 101.552 11.0503 101.516 10.9574C101.413 10.6925 101.44 10.3876 101.506 10.1164C101.556 9.91299 101.705 9.74586 101.862 9.5928C102.052 9.40009 102.361 9.30848 102.631 9.27912C102.924 9.25531 103.2 9.39526 103.434 9.56078C103.745 9.75702 104.338 10.9934 104.511 11.3116C105.109 12.3335 108.674 18.2676 109.314 19.264C109.472 19.4947 109.468 19.8052 109.438 20.0734Z" stroke="#E6E2DE" stroke-width="16" stroke-linejoin="round" mask="url(#path-4-outside-1_0_1)"/>
<path d="M114.552 18.2831C114.246 18.4902 113.89 18.6247 113.531 18.6754C112.865 18.7814 112.131 18.6669 111.51 18.3904C110.726 18.0677 110.043 17.451 109.591 16.7459C108.934 15.7344 108.702 14.3859 108.93 13.1998C109.076 12.5233 109.392 11.8574 109.834 11.297C111.037 9.81377 113.275 9.43928 114.795 10.603C115.141 10.8595 115.825 11.6958 115.843 12.1311C115.835 12.1669 115.928 12.28 115.952 12.3083C116.064 12.5015 116.275 13.3309 116.296 13.5627C116.452 14.5908 116.277 15.7138 115.877 16.6699C115.589 17.3124 115.138 17.9085 114.552 18.2831ZM112.898 16.2553C113.001 16.2648 113.117 16.2545 113.209 16.2159C113.361 16.1463 113.447 16.0078 113.532 15.8694C113.827 15.3268 113.94 14.6579 113.881 14.0463C113.87 13.7109 113.695 13.397 113.649 13.0531C113.622 12.9409 113.388 12.6581 113.301 12.577C113.184 12.4356 112.986 12.3808 112.803 12.3901C112.377 12.3719 111.956 12.5893 111.668 12.9443C111.413 13.2919 111.306 13.7733 111.308 14.2124C111.306 15.1424 111.98 16.1501 112.898 16.2553Z" stroke="#E6E2DE" stroke-width="16" stroke-linejoin="round" mask="url(#path-4-outside-1_0_1)"/>
<path d="M121.018 17.8061C120.561 18.0113 119.988 18.085 119.495 17.9368C119.097 17.8178 118.734 17.5542 118.459 17.2523C117.985 16.7082 117.733 15.9779 117.61 15.281C117.287 13.5786 117.407 11.7853 117.681 10.0787C117.721 9.76869 117.795 9.463 117.931 9.18224C118.451 8.12228 120.003 8.27754 120.266 9.42436C120.305 9.62873 120.291 9.85929 120.231 10.0671C120.2 10.1791 120.138 10.2706 120.121 10.4011C119.896 11.7324 119.795 13.1299 119.968 14.4639C120.006 14.801 120.079 15.126 120.203 15.4412C120.465 15.2102 120.671 14.9054 120.874 14.6169C120.938 14.5092 121.167 14.0249 121.215 13.915C121.482 13.1371 121.671 12.3321 121.841 11.5413C121.894 11.2661 122.014 10.9832 122.206 10.7763C122.755 10.2513 123.654 10.3369 124.083 10.9745C124.251 11.2124 124.31 11.519 124.306 11.8006C124.306 12.4313 124.238 13.0697 124.273 13.6884C124.299 14.1234 124.495 15.5269 124.747 15.8756C124.763 15.8777 124.763 15.8777 124.763 15.8777C124.899 15.7296 125.022 15.5468 125.129 15.3617C125.8 14.1558 126.227 12.8013 126.374 11.4266C126.415 11.1166 126.362 10.7611 126.484 10.4619C126.952 9.29542 128.664 9.48849 128.849 10.7246C128.896 10.9964 128.769 12.0916 128.735 12.3527C128.485 13.7471 128.053 15.1506 127.361 16.387C127.079 16.8974 126.762 17.4199 126.33 17.8109C126.012 18.0844 125.632 18.3329 125.223 18.4281C124.864 18.5135 124.469 18.4945 124.12 18.382C123.363 18.0994 122.74 17.4196 122.407 16.6785C122.016 17.1413 121.563 17.5628 121.018 17.8061Z" stroke="#E6E2DE" stroke-width="16" stroke-linejoin="round" mask="url(#path-4-outside-1_0_1)"/>
<path d="M129.449 20.1511C129.198 20.2739 128.873 20.2382 128.62 20.1621C128.285 20.0679 128.012 19.7497 127.865 19.4327C127.789 19.2374 127.8 19.0085 127.804 18.7946C127.843 18.5422 128.315 17.5098 128.399 17.2773C128.806 16.2702 129.228 15.2697 129.664 14.2758C129.864 13.8608 130.992 11.2123 131.178 10.7907C131.29 10.5347 131.987 8.99031 132.092 8.74938C132.163 8.54698 132.324 8.3844 132.494 8.24352C132.642 8.11105 132.867 8.04852 133.078 8.01611C133.296 7.96863 133.504 8.02478 133.706 8.09599C133.968 8.19374 134.179 8.44871 134.323 8.6922C134.452 8.92905 134.46 9.23813 134.407 9.52066C134.379 9.70621 134.034 10.4525 133.946 10.6115C133.628 11.3343 131.703 15.7163 131.394 16.4608C131.222 16.8523 130.271 19.2196 130.099 19.6111C129.972 19.8604 129.716 20.035 129.449 20.1511Z" stroke="#E6E2DE" stroke-width="16" stroke-linejoin="round" mask="url(#path-4-outside-1_0_1)"/>
<path d="M133.062 22.3517C132.321 22.0929 131.629 21.5065 131.258 20.8042C130.974 20.2637 130.756 19.6287 130.802 19.018C130.811 18.8037 130.916 18.5961 131.038 18.4208C131.222 18.1282 131.608 17.9772 131.955 17.9394C132.521 17.8747 133.151 18.3774 133.216 18.945C133.251 19.2106 133.326 19.5044 133.485 19.7363C133.653 19.9547 133.967 20.1353 134.185 19.9667C133.872 19.3251 133.425 18.7306 133.177 18.0539C132.902 17.299 132.924 16.3499 133.291 15.6232C133.539 15.0948 134.05 14.6498 134.601 14.4341C135.074 14.2439 135.608 14.1967 136.116 14.2721C136.611 14.3381 137.101 14.5821 137.518 14.8746C138.132 15.2857 138.548 16.0392 138.736 16.7739C138.807 17.0449 138.732 17.3536 138.622 17.5976C138.526 17.7918 138.341 17.9428 138.174 18.0668C138.008 18.1909 137.779 18.2313 137.569 18.2448C137.291 18.2705 136.998 18.1451 136.77 17.9847C136.649 17.8998 136.569 17.7839 136.49 17.668C136.366 17.5008 136.362 17.277 136.261 17.1058C136.139 16.8794 136.018 16.7945 135.783 16.7298C135.683 16.7001 135.515 16.6826 135.468 16.75C135.407 16.8673 135.482 17.1612 135.515 17.2852C135.567 17.4416 135.993 18.1223 136.076 18.2612C136.369 18.7883 136.657 19.3517 136.707 19.9692C136.74 20.2941 136.687 20.658 136.525 20.9466C136.188 21.5735 135.566 22.1209 134.887 22.3474C134.309 22.5443 133.649 22.543 133.062 22.3517Z" stroke="#E6E2DE" stroke-width="16" stroke-linejoin="round" mask="url(#path-4-outside-1_0_1)"/>
<path d="M89.9831 61.141C89.3482 60.4698 88.7147 58.9787 89.1363 58.1609C89.6174 57.2329 90.9649 57.2959 91.3678 58.2564C91.4412 58.429 91.4429 58.6166 91.4703 58.7838C91.5718 59.5219 92.4838 60.1199 93.2138 60.1697C93.7697 60.2109 94.3421 60.008 94.8582 59.7869C94.3007 59.5581 93.7335 59.211 93.4053 58.716C93.1838 58.4091 93.0009 58.0715 92.9258 57.7114C92.8281 57.2432 92.7791 56.7572 92.8685 56.2873C92.9606 55.7943 93.0885 55.2938 93.2931 54.8373C93.982 53.3244 95.0954 51.9779 96.2924 50.8169C96.5963 50.5125 96.9564 50.2264 97.3669 50.1102C97.6338 50.0241 97.9383 50.1181 98.194 50.2298C98.3832 50.3104 98.5259 50.491 98.6583 50.6586C98.8187 50.8881 98.8531 51.1967 98.8312 51.487C98.8253 51.6386 98.753 51.759 98.7139 51.8951C98.6079 52.1053 98.4021 52.2688 98.2118 52.3989C98.0859 52.478 97.5683 53.0152 97.4729 53.133C96.6435 54.0439 95.7931 55.0344 95.4006 56.207C95.3069 56.5124 95.2078 56.864 95.3242 57.1704C95.4079 57.3558 95.6432 57.4417 95.8352 57.4992C96.2624 57.6426 96.7416 57.6398 97.1929 57.5751C97.8827 57.4679 98.5403 57.1344 99.1517 56.7956C99.7761 56.4465 100.294 55.9093 100.928 55.5731C101.152 55.4585 101.434 55.4444 101.685 55.497C102.655 55.6919 102.982 56.9013 102.269 57.6149C101.926 57.95 101.492 58.1689 101.132 58.455C99.9003 59.4128 98.6758 60.4067 97.365 61.2382C96.7739 61.6028 96.1522 61.9288 95.4925 62.1801C94.6119 62.5228 93.6424 62.7263 92.7 62.5933C91.6885 62.4522 90.679 61.8896 89.9831 61.141Z" stroke="#E6E2DE" stroke-width="16" stroke-linejoin="round" mask="url(#path-4-outside-1_0_1)"/>
<path d="M100.964 67.9308C100.605 67.8461 100.264 67.6749 99.9839 67.4448C99.4544 67.0257 99.04 66.4067 98.8215 65.7617C98.5266 64.9655 98.5148 64.0434 98.7251 63.2325C99.0199 62.0616 99.8511 60.9765 100.875 60.3401C101.469 59.9882 102.171 59.7694 102.881 59.715C104.785 59.5959 106.577 60.9913 106.755 62.9003C106.802 63.3296 106.654 64.4012 106.346 64.7094C106.315 64.7274 106.295 64.8734 106.291 64.9098C106.225 65.1239 105.761 65.8418 105.605 66.0142C104.958 66.8266 104.016 67.4591 103.044 67.8129C102.378 68.0365 101.636 68.1089 100.964 67.9308ZM101.327 65.3363C101.39 65.4189 101.476 65.4971 101.567 65.5388C101.721 65.6038 101.881 65.573 102.04 65.5421C102.638 65.3911 103.204 65.0208 103.613 64.5626C103.851 64.3269 103.962 63.9854 104.183 63.7177C104.247 63.6223 104.295 63.2575 104.296 63.1388C104.32 62.9564 104.226 62.7732 104.094 62.6445C103.819 62.3185 103.374 62.1557 102.919 62.1845C102.491 62.2317 102.066 62.4798 101.745 62.7788C101.063 63.4085 100.782 64.5886 101.327 65.3363Z" stroke="#E6E2DE" stroke-width="16" stroke-linejoin="round" mask="url(#path-4-outside-1_0_1)"/>
<path d="M113.551 71.6107C113.445 72.4725 112.471 72.9156 111.723 72.4988C111.49 72.3594 111.287 72.1255 111.181 71.8525C111.097 71.6205 111.11 71.3495 111.134 71.0989C110.639 71.378 110.078 71.5859 109.519 71.622C109.187 71.6415 108.838 71.6042 108.529 71.4929C108.126 71.353 107.745 71.0823 107.486 70.7458C106.996 70.0981 106.735 69.2619 106.687 68.4563C106.631 67.1668 107.006 65.8708 107.367 64.622C107.481 64.244 107.652 63.8489 107.892 63.5092C108.056 63.2496 108.394 63.0946 108.699 63.0499C109.724 62.949 110.455 64.0482 109.897 64.9276C109.613 65.357 109.218 67.2315 109.164 67.7483C109.125 68.2179 109.135 68.7538 109.374 69.1533C110.348 69.1058 111.508 67.4812 111.931 66.5951C112.034 66.3684 112.475 65.2475 112.636 65.0557C113.398 64.0667 114.958 64.7476 114.821 65.9955C114.8 66.1783 114.716 66.3419 114.648 66.5104C114.191 67.6265 114.031 68.8334 113.83 70.0102C113.735 70.5489 113.625 71.0829 113.551 71.6107Z" stroke="#E6E2DE" stroke-width="16" stroke-linejoin="round" mask="url(#path-4-outside-1_0_1)"/>
<path d="M116.806 72.9776C116.542 73.0398 116.232 72.9533 115.987 72.8512C115.677 72.6988 115.469 72.3503 115.358 72.0197C115.311 71.8545 115.338 71.1307 115.34 70.9662C115.366 70.2424 115.551 66.3281 115.495 65.6197C115.481 65.4056 115.566 65.1928 115.651 64.9965C115.769 64.7512 116.05 64.574 116.298 64.4458C116.546 64.334 116.874 64.3714 117.135 64.4408C117.577 64.5621 117.914 65.0769 117.941 65.5216C118.374 65.0338 118.938 64.6301 119.564 64.4412C119.976 64.3152 120.435 64.2886 120.877 64.3769C122.252 64.6261 122.756 66.2129 122.507 67.6084C122.455 67.8052 122.321 68.0008 122.188 68.1636C121.954 68.4237 121.559 68.517 121.215 68.5287C120.936 68.5249 120.659 68.3566 120.448 68.1726C120.237 67.9887 120.127 67.691 120.081 67.4106C120.066 67.3445 120.104 66.9665 120.105 66.8843C119.691 67.1419 119.439 67.5828 119.171 67.9741C118.752 68.6102 118.317 69.2461 118.077 69.9669C117.872 70.5894 117.846 71.2638 117.788 71.9378C117.769 72.1515 117.651 72.3473 117.534 72.5268C117.383 72.7551 117.086 72.8827 116.806 72.9776Z" stroke="#E6E2DE" stroke-width="16" stroke-linejoin="round" mask="url(#path-4-outside-1_0_1)"/>
<path d="M132.453 71.0487C131.74 71.5585 130.885 71.8959 130.019 72.0776C129.69 72.1427 129.303 72.1076 129.014 71.9247C128.769 71.7596 128.552 71.4933 128.485 71.2008C128.472 71.1704 128.449 70.9842 128.436 70.9538C128.157 70.3216 126.528 66.6344 126.271 66.0111C126.076 65.5398 124.944 62.6259 124.735 62.1609C124.722 62.1304 124.638 61.9695 124.61 61.9454C124.473 61.6995 124.481 61.3755 124.545 61.0997C124.594 60.8302 124.795 60.5863 125.021 60.4033C125.184 60.2821 125.409 60.2244 125.625 60.1881C125.892 60.1482 126.186 60.2577 126.426 60.4076C126.702 60.5601 126.864 60.8668 126.99 61.1709C127.293 60.5285 127.733 59.9181 128.32 59.532C128.728 59.2734 129.176 59.0693 129.66 58.9932C130.329 58.8934 131.049 59.0038 131.701 59.2496C132.488 59.564 133.184 60.1301 133.734 60.7743C134.114 61.222 134.422 61.753 134.663 62.2941C134.999 63.0632 135.219 63.8978 135.247 64.7409C135.311 66.2284 134.964 67.7973 134.19 69.0627C133.739 69.8199 133.16 70.5237 132.453 71.0487ZM128.958 63.4879C128.962 65.517 129.665 67.5223 130.446 69.3709C130.849 69.1857 131.221 68.9245 131.509 68.5909C132.619 67.3643 133.057 65.5437 132.654 63.9656C132.498 63.3716 132.216 62.776 131.815 62.3195C131.543 62.0049 131.21 61.7156 130.824 61.5552C130.588 61.4573 130.329 61.3871 130.076 61.4207C129.273 61.5404 128.964 62.6841 128.958 63.4879Z" stroke="#E6E2DE" stroke-width="16" stroke-linejoin="round" mask="url(#path-4-outside-1_0_1)"/>
<path d="M143.952 62.2792C143.78 62.5092 143.492 62.6003 143.219 62.6578C142.946 62.7152 142.641 62.6063 142.397 62.4677C142.185 62.367 142.029 62.1546 141.869 61.9884C141.828 62.5806 141.739 63.1918 141.505 63.7316C141.287 64.2145 140.98 64.6661 140.545 64.9661C140.172 65.2366 139.691 65.404 139.235 65.4218C138.488 65.4486 137.697 65.1679 137.133 64.6971C136.407 64.0833 135.838 63.2733 135.486 62.3891C135.306 61.9175 135.139 61.4354 135.09 60.9404C134.981 60.0662 135.074 59.1516 135.381 58.3145C135.644 57.5787 136.239 56.9074 136.936 56.5373C137.341 56.3047 137.807 56.171 138.277 56.1195C138.369 55.8707 138.577 55.6322 138.799 55.4885C139.034 55.3342 139.351 55.304 139.629 55.3288C139.917 55.3661 140.19 55.5657 140.392 55.7823C140.51 55.8979 140.911 56.6345 141.003 56.7713C141.777 58.0318 142.672 59.233 143.683 60.316C143.788 60.4422 143.931 60.5368 144.024 60.6735C144.19 60.8986 144.302 61.2123 144.288 61.5031C144.274 61.7939 144.134 62.0618 143.952 62.2792ZM139.058 62.9528C139.081 62.9549 139.127 62.959 139.153 62.9379C139.283 62.7859 139.314 62.5667 139.353 62.3834C139.472 61.8332 139.393 61.2771 139.312 60.7442C139.189 60.0323 139.017 59.3395 138.82 58.6678C138.812 58.632 138.722 58.6006 138.688 58.5859C138.644 58.5586 138.467 58.5779 138.419 58.597C138.194 58.6354 137.987 58.7453 137.844 58.9079C137.702 59.0704 137.635 59.2981 137.581 59.5152C137.485 59.9389 137.469 60.3814 137.558 60.8216C137.63 61.1901 137.774 61.5417 137.955 61.8616C138.145 62.2173 138.663 62.941 139.058 62.9528Z" stroke="#E6E2DE" stroke-width="16" stroke-linejoin="round" mask="url(#path-4-outside-1_0_1)"/>
<path d="M152.976 58.4495C152.93 58.9108 152.788 59.3684 152.563 59.7718C151.993 60.7348 150.559 60.6184 150.259 59.5162C150.16 59.1564 150.217 58.8 150.446 58.4787C150.563 58.2998 150.545 57.7568 150.489 57.5427C150.39 57.1829 150.256 56.8188 150.08 56.4871C149.826 56.0053 149.445 55.5975 149.069 55.2126C149.114 55.7143 149.059 56.2487 148.844 56.6977C148.602 57.188 148.123 57.6208 147.606 57.812C146.912 58.064 146.101 58.0431 145.363 57.912C144.178 57.6841 143.072 57.0356 142.083 56.3269C141.9 56.1868 140.934 55.4734 140.769 55.3058C140.618 55.1473 140.48 54.9977 140.337 54.8254C140.195 54.6531 140.148 54.4253 140.119 54.2293C140.071 53.9421 140.187 53.6445 140.326 53.4015C140.479 53.1675 140.755 53.0147 141.019 52.9122C141.35 52.7955 141.742 52.9156 142.039 53.0913C142.241 53.2038 142.352 53.4539 142.535 53.5939C143.451 54.2941 144.38 55.0626 145.48 55.3917C145.849 55.5165 146.246 55.6001 146.623 55.5332C146.604 54.8716 146.272 54.2398 145.93 53.6811C145.456 52.9364 144.863 52.2519 144.154 51.7463C143.788 51.4662 143.584 50.9978 143.667 50.5407C143.728 50.207 143.971 49.8947 144.261 49.6916C144.478 49.5393 144.792 49.5094 145.069 49.5346C145.311 49.5555 145.517 49.6908 145.709 49.817C146.852 50.5291 148.013 51.2136 149.107 52.0311C150.298 52.9116 151.475 53.9611 152.218 55.256C152.758 56.2011 153.095 57.3668 152.976 58.4495Z" stroke="#E6E2DE" stroke-width="16" stroke-linejoin="round" mask="url(#path-4-outside-1_0_1)"/>
<path d="M120.785 43.4316C120.592 43.4753 120.381 43.4794 120.14 43.4575C120.355 43.463 120.572 43.4548 120.785 43.4316Z" stroke="#E6E2DE" stroke-width="16" stroke-linejoin="round" mask="url(#path-4-outside-1_0_1)"/>
<path d="M135.269 33.5908C134.89 31.144 133.654 29.0792 131.789 27.7763C128.843 25.719 125.662 26.3807 124.758 26.6317C123.433 27.0008 122.243 27.7374 121.238 28.6699C120.974 28.9148 119.998 30.3125 119.707 30.307C119.409 30.3009 119.012 29.4372 118.326 28.7995C116.299 26.9162 113.375 26.0042 110.647 26.511C107.353 27.1215 104.523 29.7736 103.691 33.0287C103.599 33.3916 103.526 33.7688 103.328 34.0874C102.937 34.7197 102.152 34.9755 101.418 35.088C99.7844 35.3377 96.4735 35.028 96.0593 37.2538C95.8376 38.4448 96.717 39.8274 97.2604 40.545C98.0895 41.6392 99.2906 42.5859 100.734 43.2831C102.995 44.3749 105.342 44.789 107.726 44.5183C107.975 44.49 108.223 44.5918 108.375 44.7919C109.588 46.3878 111.146 48.1839 113.018 50.1459C114.997 52.2203 117.11 54.2469 119.297 56.1698L119.314 56.1847C119.522 56.3627 119.829 56.3566 120.029 56.1705C122.216 54.2476 124.329 52.221 126.308 50.1459C131.418 44.7906 132.823 42.0812 133.285 41.191C134.537 38.7783 135.718 36.5 135.269 33.5908ZM119.816 33.5314C120.837 35.0253 122.13 37.4032 122.371 38.7469C122.539 39.6726 122.433 40.6323 121.634 41.2435C121.012 41.719 120.14 41.8226 119.405 41.5539C119.081 41.4359 118.778 41.2463 118.559 40.9795C118.279 40.6378 118.156 40.1937 118.095 39.7558C117.945 38.6508 118.166 37.5416 118.525 36.498C118.707 35.9639 118.929 35.4427 119.16 34.9291C119.219 34.7988 119.869 33.6078 119.816 33.5314ZM131.718 40.3738C131.286 41.2081 129.968 43.7483 125.031 48.9215C123.468 50.5598 121.821 52.1688 120.117 53.7172C119.859 53.9519 119.466 53.9518 119.208 53.7169C117.505 52.167 115.857 50.5592 114.295 48.9215C112.193 46.7189 110.505 44.7401 109.276 43.0382L109.179 42.8954C109.026 42.6694 108.754 42.5561 108.487 42.6071L108.357 42.6316C106.025 43.0764 103.717 42.7578 101.5 41.6876C100.307 41.1119 99.3273 40.3465 98.6669 39.4741C98.1345 38.7705 97.8873 37.9363 97.8173 37.667C97.8021 37.6083 97.7989 37.5396 97.8501 37.5075C98.501 37.1058 99.377 37.045 100.303 36.9816C101.019 36.9325 101.759 36.882 102.474 36.6712C103.794 36.2817 104.753 35.5089 105.174 34.4925C105.348 34.073 105.414 33.6501 105.472 33.2777C105.499 33.0935 105.527 32.9189 105.564 32.7593C105.667 32.32 105.885 31.8664 106.21 31.4121C107.413 29.734 109.359 28.5321 111.419 28.1972C112.617 28.0014 114.388 28.0171 116.02 29.2013C116.975 29.8938 117.667 30.7005 118.377 31.6162C118.547 31.836 118.565 32.1368 118.428 32.379C117.001 34.9028 115.336 38.6467 116.787 41.3738C117.5 42.7115 119.026 43.5682 120.536 43.4741C123.151 43.309 124.544 40.8438 124.11 38.4325C123.749 36.4321 121.931 33.402 120.905 32.0118C120.848 31.9352 120.846 31.831 120.9 31.7531C122.187 29.9284 123.644 28.7797 125.229 28.3391C125.74 28.1972 128.406 27.5724 130.78 29.2299C132.757 30.6106 133.347 32.7251 133.523 33.8629C133.867 36.0846 133.062 37.7838 131.718 40.3738Z" stroke="#E6E2DE" stroke-width="16" stroke-linejoin="round" mask="url(#path-4-outside-1_0_1)"/>
<path d="M124.869 26.2481C126.015 25.9658 129.103 25.4831 131.984 27.4948C133.933 28.8561 135.214 31.0075 135.606 33.5378C136.075 36.5734 134.834 38.9489 133.589 41.3492C133.111 42.2694 131.687 45.0054 126.555 50.3832C124.569 52.4656 122.449 54.4988 120.254 56.4282L120.253 56.4276C119.926 56.7257 119.428 56.7343 119.092 56.445L119.074 56.4302L119.072 56.4276C116.877 54.4982 114.758 52.4648 112.771 50.3832C110.893 48.4149 109.326 46.6087 108.103 44.9998C108.026 44.8989 107.898 44.8441 107.764 44.8592C105.314 45.1375 102.902 44.7102 100.585 43.5916C99.1945 42.9197 98.0118 42.0177 97.1552 40.9649L96.9883 40.7526C96.7082 40.3827 96.3357 39.8339 96.0609 39.2166C95.7888 38.6052 95.5939 37.8857 95.7231 37.1911C95.9703 35.8629 97.0929 35.3338 98.21 35.0946C98.7762 34.9734 99.376 34.918 99.9245 34.877C100.484 34.8352 100.975 34.8089 101.367 34.7491L101.632 34.7016C102.242 34.5753 102.77 34.3391 103.038 33.9068C103.2 33.6456 103.26 33.3374 103.36 32.9433C104.225 29.559 107.16 26.8086 110.585 26.1738C113.424 25.6463 116.456 26.5948 118.558 28.5481C118.929 28.8922 119.219 29.2957 119.435 29.584C119.548 29.735 119.634 29.8457 119.705 29.9187C119.706 29.9194 119.707 29.9201 119.707 29.9207C119.732 29.9 119.76 29.8746 119.792 29.8431C119.915 29.7221 120.064 29.5516 120.219 29.3637C120.374 29.1761 120.526 28.9837 120.662 28.8146C120.789 28.6572 120.917 28.5003 121.005 28.4182C122.042 27.4562 123.279 26.688 124.666 26.3016L124.869 26.2481ZM131.594 28.058C128.775 26.0898 125.722 26.7195 124.849 26.9619C123.587 27.3136 122.443 28.0189 121.47 28.9217C121.426 28.9621 121.334 29.0719 121.194 29.2451C121.064 29.4068 120.904 29.6091 120.746 29.8009C120.587 29.9923 120.421 30.186 120.271 30.3332C120.197 30.4062 120.117 30.476 120.039 30.5301C119.977 30.573 119.852 30.6528 119.7 30.6499C119.477 30.6452 119.309 30.4923 119.218 30.3988C119.11 30.2884 118.998 30.1416 118.889 29.9964C118.661 29.692 118.41 29.3444 118.094 29.051C116.142 27.2377 113.326 26.362 110.71 26.848C107.546 27.4343 104.821 29.9883 104.022 33.114C103.938 33.4454 103.851 33.892 103.618 34.2677C103.141 35.0382 102.217 35.3121 101.47 35.4267C101.044 35.4918 100.509 35.5208 99.9752 35.5607C99.4305 35.6014 98.8703 35.6541 98.3529 35.7649C97.3026 35.9897 96.5624 36.4194 96.3954 37.317C96.3031 37.8132 96.4373 38.3804 96.6852 38.9374C96.9304 39.4883 97.2691 39.9898 97.5324 40.3375C98.3236 41.3816 99.4792 42.2967 100.882 42.9743C103.087 44.0394 105.371 44.4406 107.687 44.1775C108.052 44.1361 108.419 44.2848 108.646 44.584C109.85 46.1669 111.399 47.9533 113.266 49.9092C115.237 51.975 117.34 53.9938 119.519 55.9093L119.537 55.924C119.612 55.9887 119.724 55.9868 119.796 55.9194L119.8 55.916L119.804 55.9127C121.983 53.9962 124.089 51.9768 126.061 49.9092C131.15 44.5763 132.536 41.8927 132.982 41.0325C134.24 38.6077 135.36 36.4263 134.93 33.6436L134.852 33.2051C134.428 31.1082 133.339 29.3455 131.759 28.1765L131.594 28.058ZM111.605 27.8236C112.846 27.6614 114.596 27.7452 116.22 28.9237C117.215 29.6453 117.931 30.4829 118.647 31.4059C118.904 31.7382 118.928 32.189 118.725 32.5482C118.017 33.8002 117.261 35.3369 116.859 36.8864C116.456 38.4397 116.421 39.957 117.088 41.2119L117.218 41.4356C117.913 42.5267 119.225 43.2121 120.515 43.1316C122.874 42.9825 124.181 40.7579 123.773 38.4934C123.603 37.5477 123.079 36.3287 122.455 35.1549C121.835 33.9878 121.133 32.897 120.63 32.2161C120.488 32.0239 120.479 31.7577 120.621 31.5559L120.621 31.5552C121.938 29.6888 123.453 28.4766 125.138 28.0084C125.671 27.8604 128.47 27.1992 130.975 28.9485C133.064 30.4073 133.679 32.6337 133.861 33.8104L133.892 34.0286C134.17 36.2707 133.317 38.0338 132.022 40.5323C131.601 41.3436 130.399 43.6498 126.166 48.2151L125.278 49.1586C123.71 50.8027 122.056 52.4171 120.347 53.9709C119.958 54.3241 119.366 54.3243 118.978 53.9709C117.483 52.6102 116.03 51.2044 114.64 49.7732L114.048 49.1586C111.939 46.9492 110.241 44.9582 108.999 43.2394L108.996 43.2354L108.993 43.2307L108.897 43.0881C108.82 42.9751 108.684 42.9187 108.55 42.9442L108.421 42.9683C106.014 43.4272 103.632 43.0975 101.352 41.9967C100.12 41.4024 99.0942 40.6051 98.3949 39.6813C97.8215 38.9235 97.56 38.0371 97.4863 37.7535C97.4735 37.7044 97.4579 37.6238 97.4696 37.5332C97.4825 37.4339 97.5333 37.3015 97.6692 37.2165L97.6712 37.2159C98.4085 36.7608 99.3798 36.701 100.28 36.6394C101.002 36.5898 101.704 36.5405 102.378 36.3421C103.626 35.9736 104.487 35.2576 104.858 34.3608C105.015 33.9852 105.075 33.6017 105.134 33.2251C105.162 33.0417 105.191 32.8556 105.231 32.6821L105.231 32.6808C105.347 32.1888 105.587 31.6944 105.932 31.2124C107.188 29.4596 109.216 28.2085 111.363 27.8591L111.605 27.8236ZM115.82 29.4788C114.288 28.3679 112.622 28.3479 111.474 28.5354C109.503 28.8559 107.637 30.009 106.487 31.6121L106.486 31.6115C106.182 32.0379 105.988 32.4516 105.897 32.8381L105.896 32.8375C105.863 32.9825 105.837 33.145 105.81 33.3289V33.3303C105.752 33.6984 105.682 34.1613 105.489 34.6246C105.018 35.7601 103.961 36.5898 102.571 37.0003C101.814 37.2233 101.036 37.275 100.326 37.3237C99.4598 37.383 98.7354 37.4402 98.1866 37.7127C98.2848 38.0467 98.515 38.7064 98.939 39.2668L99.0592 39.4195C99.6779 40.1786 100.565 40.8564 101.648 41.3787C103.801 42.4183 106.036 42.7251 108.294 42.2947L108.423 42.2706C108.824 42.1942 109.232 42.3636 109.462 42.7024L109.553 42.837C110.77 44.5221 112.446 46.4887 114.542 48.6845L115.13 49.2952C116.51 50.716 117.953 52.1119 119.438 53.4633C119.565 53.5794 119.76 53.5793 119.888 53.4633C121.585 51.9203 123.227 50.3169 124.785 48.6845L125.665 47.7491C129.859 43.2255 131.024 40.9688 131.415 40.2156C132.722 37.6957 133.462 36.1124 133.213 34.1103L133.185 33.9155C133.015 32.8165 132.449 30.8134 130.584 29.511C128.343 27.9458 125.81 28.5334 125.321 28.6693C123.855 29.0768 122.475 30.1391 121.231 31.8793C121.75 32.5911 122.444 33.6759 123.058 34.8321C123.69 36.0209 124.256 37.317 124.446 38.3716C124.907 40.9296 123.429 43.6346 120.557 43.816C118.966 43.9151 117.365 43.0481 116.561 41.6706L116.485 41.5354C115.702 40.0632 115.774 38.3449 116.198 36.7137C116.622 35.0788 117.412 33.4817 118.131 32.2101C118.202 32.0849 118.19 31.9336 118.107 31.8264C117.402 30.9181 116.734 30.1423 115.82 29.4788ZM120.098 33.3376L120.296 33.6323C120.762 34.3418 121.264 35.198 121.691 36.0401C122.174 36.994 122.577 37.9616 122.708 38.6856L122.738 38.8704C122.87 39.8019 122.732 40.8345 121.841 41.5159C121.119 42.0678 120.123 42.1816 119.288 41.8762C118.966 41.759 118.651 41.5753 118.399 41.3137L118.295 41.1972C117.956 40.7832 117.82 40.2646 117.757 39.8031C117.596 38.6241 117.834 37.456 118.201 36.3863C118.342 35.9748 118.505 35.5727 118.676 35.179L118.849 34.788C118.882 34.7142 119.073 34.357 119.225 34.0554C119.306 33.8949 119.381 33.7416 119.431 33.6262C119.457 33.5675 119.472 33.5268 119.48 33.5037C119.484 33.4909 119.482 33.4946 119.48 33.5091C119.479 33.5162 119.476 33.5377 119.478 33.5666C119.48 33.5903 119.487 33.6558 119.534 33.7247L120.097 33.3356C120.097 33.3363 120.097 33.337 120.098 33.3376ZM119.835 34.3648C119.752 34.5288 119.666 34.6944 119.598 34.8255C119.564 34.8913 119.534 34.9479 119.511 34.9922C119.5 35.0141 119.491 35.0323 119.484 35.0464C119.48 35.0535 119.477 35.0595 119.475 35.0638C119.473 35.0675 119.473 35.0694 119.472 35.0699L119.472 35.0705C119.242 35.58 119.025 36.0899 118.847 36.6092C118.498 37.6265 118.294 38.6781 118.434 39.7087L118.458 39.8621C118.521 40.214 118.63 40.5263 118.823 40.762L118.891 40.8376C119.056 41.0092 119.276 41.1419 119.522 41.2314L119.522 41.232C120.156 41.464 120.904 41.3697 121.426 40.9709C122.074 40.4754 122.193 39.6824 122.035 38.8081C121.923 38.1884 121.56 37.2948 121.081 36.3508C120.715 35.6285 120.291 34.8952 119.886 34.2603C119.869 34.295 119.852 34.3302 119.835 34.3648Z" stroke="#E6E2DE" stroke-width="16" stroke-linejoin="round" mask="url(#path-4-outside-1_0_1)"/>
<path d="M110.929 36.8054C111.503 36.2306 111.503 35.2985 110.929 34.7237C110.356 34.1488 109.427 34.1488 108.854 34.7237C108.281 35.2985 108.281 36.2306 108.854 36.8054C109.427 37.3803 110.356 37.3803 110.929 36.8054Z" stroke="#E6E2DE" stroke-width="16" stroke-linejoin="round" mask="url(#path-4-outside-1_0_1)"/>
</svg>
