<svg width="242" height="240" viewBox="0 0 242 240" fill="none" xmlns="http://www.w3.org/2000/svg">
<rect y="80" width="242" height="160" rx="12" fill="#E6E2DE"/>
<path d="M67.4294 155H64.9974V143.512H67.4294V148.04H72.4054V143.512H74.8374V155H72.4054V150.136H67.4294V155ZM80.6246 155.16C78.1446 155.16 76.2886 153.208 76.2886 150.728C76.2886 148.232 78.1446 146.296 80.6246 146.296C83.1046 146.296 84.9606 148.232 84.9606 150.728C84.9606 153.208 83.1046 155.16 80.6246 155.16ZM80.6246 153.192C81.7286 153.192 82.6726 152.312 82.6726 150.728C82.6726 149.144 81.7286 148.28 80.6246 148.28C79.5206 148.28 78.5766 149.144 78.5766 150.728C78.5766 152.312 79.5206 153.192 80.6246 153.192ZM93.0091 155L91.3931 149.448L89.7931 155H87.5691L85.1371 146.456H87.2971L88.7531 151.864L90.3211 146.456H92.5131L94.0331 151.864L95.4731 146.456H97.6651L95.2171 155H93.0091ZM100.862 155H98.6223V143.512H100.862V155ZM109.913 152.264C109.913 154.056 108.553 155.16 106.121 155.16C103.689 155.16 102.329 153.992 102.153 152.088H104.281C104.297 152.968 105.049 153.528 106.153 153.528C107.017 153.528 107.673 153.256 107.673 152.648C107.673 152.104 107.321 151.88 106.505 151.72L104.969 151.432C103.433 151.16 102.505 150.312 102.505 148.984C102.505 147.4 103.865 146.296 105.993 146.296C108.137 146.296 109.609 147.432 109.769 149.272H107.641C107.561 148.44 106.937 147.928 105.993 147.928C105.177 147.928 104.633 148.232 104.633 148.776C104.633 149.288 104.985 149.496 105.753 149.64L107.401 149.944C109.065 150.264 109.913 151.032 109.913 152.264ZM120.055 150.68V155H117.623V150.68L113.559 143.512H116.183L118.919 148.456L121.703 143.512H124.151L120.055 150.68ZM127.29 155.16C124.81 155.16 122.954 153.208 122.954 150.728C122.954 148.232 124.81 146.296 127.29 146.296C129.77 146.296 131.626 148.232 131.626 150.728C131.626 153.208 129.77 155.16 127.29 155.16ZM127.29 153.192C128.394 153.192 129.338 152.312 129.338 150.728C129.338 149.144 128.394 148.28 127.29 148.28C126.186 148.28 125.242 149.144 125.242 150.728C125.242 152.312 126.186 153.192 127.29 153.192ZM138.085 151.4V146.456H140.293V155H138.261V153.88C137.797 154.632 136.853 155.16 135.765 155.16C134.053 155.16 132.805 154.12 132.805 151.896V146.456H135.029V151.464C135.029 152.664 135.621 153.192 136.517 153.192C137.317 153.192 138.085 152.552 138.085 151.4ZM144.355 150.856V155H142.131V146.456H144.179V148.104C144.803 147.016 146.131 146.36 147.507 146.36V148.664C145.619 148.52 144.355 148.968 144.355 150.856ZM155.958 155H151.878V143.512H155.958C159.606 143.512 161.814 145.848 161.814 149.192C161.814 152.536 159.526 155 155.958 155ZM154.31 145.608V152.904H155.83C158.118 152.904 159.318 151.576 159.318 149.192C159.318 146.904 158.118 145.608 155.83 145.608H154.31ZM168.239 155V153.944C167.679 154.744 166.831 155.16 165.663 155.16C163.887 155.16 162.703 154.12 162.703 152.52C162.703 150.856 164.047 149.96 166.543 149.96C167.023 149.96 167.439 149.992 167.967 150.056V149.544C167.967 148.584 167.423 148.024 166.495 148.024C165.535 148.024 164.959 148.584 164.879 149.544H162.879C163.007 147.576 164.431 146.296 166.495 146.296C168.735 146.296 170.047 147.528 170.047 149.624V155H168.239ZM164.799 152.456C164.799 153.176 165.311 153.624 166.143 153.624C167.279 153.624 167.967 153 167.967 152.008V151.4C167.439 151.32 167.071 151.288 166.687 151.288C165.423 151.288 164.799 151.688 164.799 152.456ZM179.203 146.456L175.043 158.088H172.627L173.843 154.904L170.483 146.456H172.883L175.027 152.312L176.979 146.456H179.203Z" fill="#1A1A1A"/>
<path d="M43.5095 175H37.4195V164.948H38.9595V173.614H43.5095V175ZM47.532 175.14C45.432 175.14 43.892 173.488 43.892 171.29C43.892 169.092 45.432 167.44 47.532 167.44C49.632 167.44 51.172 169.092 51.172 171.29C51.172 173.488 49.632 175.14 47.532 175.14ZM47.532 173.894C48.75 173.894 49.716 172.914 49.716 171.29C49.716 169.666 48.75 168.7 47.532 168.7C46.314 168.7 45.362 169.666 45.362 171.29C45.362 172.914 46.314 173.894 47.532 173.894ZM55.1647 177.856C53.2187 177.856 51.9587 176.82 51.8747 175.14H53.2467C53.3307 176.176 54.0027 176.736 55.1507 176.736C56.4247 176.736 57.0967 176.05 57.0967 174.776V173.432C56.6767 174.328 55.8367 174.846 54.8287 174.846C52.9807 174.846 51.6647 173.32 51.6647 171.136C51.6647 168.924 52.9247 167.44 54.7867 167.44C55.8507 167.44 56.6907 167.958 57.1947 168.896V167.58H58.5107V174.748C58.5107 176.694 57.2647 177.856 55.1647 177.856ZM53.0927 171.136C53.0927 172.676 53.8487 173.614 55.0807 173.614C56.2847 173.614 57.0967 172.648 57.0967 171.178C57.0967 169.638 56.2987 168.658 55.0807 168.658C53.8627 168.658 53.0927 169.61 53.0927 171.136ZM63.2962 175.14C61.1962 175.14 59.6562 173.488 59.6562 171.29C59.6562 169.092 61.1962 167.44 63.2962 167.44C65.3962 167.44 66.9362 169.092 66.9362 171.29C66.9362 173.488 65.3962 175.14 63.2962 175.14ZM63.2962 173.894C64.5142 173.894 65.4802 172.914 65.4802 171.29C65.4802 169.666 64.5142 168.7 63.2962 168.7C62.0782 168.7 61.1262 169.666 61.1262 171.29C61.1262 172.914 62.0782 173.894 63.2962 173.894ZM74.0334 175H70.8554V164.948H74.0334C77.2394 164.948 79.0874 166.992 79.0874 169.932C79.0874 172.83 77.1694 175 74.0334 175ZM72.3954 166.278V173.67H73.9634C76.2734 173.67 77.5194 172.242 77.5194 169.932C77.5194 167.664 76.2874 166.278 73.9634 166.278H72.3954ZM83.3592 175.14C81.2172 175.14 79.7752 173.586 79.7752 171.248C79.7752 169.05 81.2732 167.44 83.3172 167.44C85.5292 167.44 86.9992 169.232 86.7472 171.64H81.2172C81.3292 173.152 82.0852 174.034 83.3312 174.034C84.3812 174.034 85.1092 173.46 85.3472 172.494H86.7472C86.3832 174.146 85.1092 175.14 83.3592 175.14ZM83.2892 168.504C82.1552 168.504 81.3852 169.316 81.2312 170.702H85.2492C85.1792 169.33 84.4372 168.504 83.2892 168.504ZM93.8505 172.788C93.8505 174.244 92.7165 175.14 90.7425 175.14C88.7825 175.14 87.6205 174.174 87.4805 172.578H88.8385C88.8945 173.502 89.6365 174.076 90.7705 174.076C91.7645 174.076 92.4225 173.726 92.4225 173.026C92.4225 172.41 92.0445 172.144 91.1205 171.962L89.9165 171.738C88.5445 171.472 87.7745 170.772 87.7745 169.652C87.7745 168.35 88.9085 167.44 90.6305 167.44C92.4085 167.44 93.6125 168.392 93.7385 169.918H92.3805C92.2965 169.022 91.6385 168.504 90.6445 168.504C89.7485 168.504 89.1465 168.882 89.1465 169.526C89.1465 170.128 89.5245 170.408 90.4205 170.576L91.6805 170.814C93.1505 171.08 93.8505 171.724 93.8505 172.788ZM96.8364 165.858C96.8364 166.39 96.4164 166.796 95.8144 166.796C95.2124 166.796 94.7784 166.39 94.7784 165.858C94.7784 165.312 95.2124 164.92 95.8144 164.92C96.4164 164.92 96.8364 165.312 96.8364 165.858ZM96.5284 175H95.1144V167.58H96.5284V175ZM101.179 177.856C99.2333 177.856 97.9733 176.82 97.8893 175.14H99.2613C99.3453 176.176 100.017 176.736 101.165 176.736C102.439 176.736 103.111 176.05 103.111 174.776V173.432C102.691 174.328 101.851 174.846 100.843 174.846C98.9953 174.846 97.6793 173.32 97.6793 171.136C97.6793 168.924 98.9393 167.44 100.801 167.44C101.865 167.44 102.705 167.958 103.209 168.896V167.58H104.525V174.748C104.525 176.694 103.279 177.856 101.179 177.856ZM99.1073 171.136C99.1073 172.676 99.8633 173.614 101.095 173.614C102.299 173.614 103.111 172.648 103.111 171.178C103.111 169.638 102.313 168.658 101.095 168.658C99.8773 168.658 99.1073 169.61 99.1073 171.136ZM107.617 170.814V175H106.203V167.58H107.519V168.812C108.023 167.986 108.863 167.44 109.885 167.44C111.411 167.44 112.419 168.42 112.419 170.198V175H111.005V170.674C111.005 169.4 110.445 168.686 109.395 168.686C108.429 168.686 107.617 169.498 107.617 170.814ZM115.935 174.398C115.935 175.728 114.885 176.764 113.345 176.792V175.994C114.255 175.966 114.871 175.476 114.955 174.79C114.829 174.832 114.745 174.846 114.647 174.846C114.115 174.846 113.723 174.412 113.723 173.894C113.723 173.292 114.171 172.9 114.745 172.9C115.515 172.9 115.935 173.46 115.935 174.398ZM127.243 172.116C127.243 173.95 125.899 175 123.813 175H120.131V164.948H123.617C125.647 164.948 126.865 165.886 126.865 167.58C126.865 168.532 126.291 169.344 125.325 169.764C126.571 170.114 127.243 170.968 127.243 172.116ZM123.519 166.18H121.545V169.204H123.519C124.737 169.204 125.395 168.63 125.395 167.692C125.395 166.754 124.737 166.18 123.519 166.18ZM123.715 170.436H121.545V173.768H123.715C125.031 173.768 125.773 173.138 125.773 172.074C125.773 171.052 125.031 170.436 123.715 170.436ZM130.04 171.206V175H128.626V167.58H129.942V169.148C130.46 168.126 131.58 167.482 132.798 167.482V168.952C131.202 168.868 130.04 169.568 130.04 171.206ZM138.131 175V173.852C137.669 174.678 136.843 175.14 135.751 175.14C134.211 175.14 133.203 174.258 133.203 172.9C133.203 171.444 134.365 170.688 136.577 170.688C137.011 170.688 137.361 170.702 137.963 170.772V170.226C137.963 169.162 137.389 168.56 136.409 168.56C135.373 168.56 134.743 169.176 134.701 170.212H133.413C133.483 168.546 134.673 167.44 136.409 167.44C138.243 167.44 139.307 168.476 139.307 170.24V175H138.131ZM134.547 172.858C134.547 173.628 135.121 174.132 136.031 174.132C137.221 174.132 137.963 173.39 137.963 172.256V171.654C137.417 171.584 137.025 171.57 136.661 171.57C135.247 171.57 134.547 171.99 134.547 172.858ZM142.331 170.814V175H140.917V167.58H142.233V168.812C142.737 167.986 143.577 167.44 144.599 167.44C146.125 167.44 147.133 168.42 147.133 170.198V175H145.719V170.674C145.719 169.4 145.159 168.686 144.109 168.686C143.143 168.686 142.331 169.498 142.331 170.814ZM148.199 171.29C148.199 169.036 149.487 167.44 151.489 167.44C152.483 167.44 153.351 167.944 153.869 168.854V164.948H155.283V175H153.967V173.67C153.435 174.608 152.539 175.14 151.489 175.14C149.487 175.14 148.199 173.516 148.199 171.29ZM149.669 171.29C149.669 172.942 150.537 173.88 151.769 173.88C152.973 173.88 153.869 172.9 153.869 171.262C153.869 169.596 152.945 168.686 151.769 168.686C150.537 168.686 149.669 169.61 149.669 171.29ZM161.266 175H159.726V164.948H161.266V175ZM162.521 171.29C162.521 169.036 163.809 167.44 165.811 167.44C166.805 167.44 167.673 167.944 168.191 168.854V164.948H169.605V175H168.289V173.67C167.757 174.608 166.861 175.14 165.811 175.14C163.809 175.14 162.521 173.516 162.521 171.29ZM163.991 171.29C163.991 172.942 164.859 173.88 166.091 173.88C167.295 173.88 168.191 172.9 168.191 171.262C168.191 169.596 167.267 168.686 166.091 168.686C164.859 168.686 163.991 169.61 163.991 171.29ZM174.343 175.14C172.201 175.14 170.759 173.586 170.759 171.248C170.759 169.05 172.257 167.44 174.301 167.44C176.513 167.44 177.983 169.232 177.731 171.64H172.201C172.313 173.152 173.069 174.034 174.315 174.034C175.365 174.034 176.093 173.46 176.331 172.494H177.731C177.367 174.146 176.093 175.14 174.343 175.14ZM174.273 168.504C173.139 168.504 172.369 169.316 172.215 170.702H176.233C176.163 169.33 175.421 168.504 174.273 168.504ZM180.368 170.814V175H178.954V167.58H180.27V168.812C180.774 167.986 181.614 167.44 182.636 167.44C184.162 167.44 185.17 168.42 185.17 170.198V175H183.756V170.674C183.756 169.4 183.196 168.686 182.146 168.686C181.18 168.686 180.368 169.498 180.368 170.814ZM190.927 173.628V174.874C190.493 175.07 190.115 175.14 189.667 175.14C188.295 175.14 187.343 174.398 187.343 172.76V168.784H185.705V167.58H187.343V165.382H188.757V167.58H190.997V168.784H188.757V172.438C188.757 173.46 189.247 173.824 190.003 173.824C190.339 173.824 190.633 173.768 190.927 173.628ZM193.788 165.858C193.788 166.39 193.368 166.796 192.766 166.796C192.164 166.796 191.73 166.39 191.73 165.858C191.73 165.312 192.164 164.92 192.766 164.92C193.368 164.92 193.788 165.312 193.788 165.858ZM193.48 175H192.066V167.58H193.48V175ZM199.349 173.628V174.874C198.915 175.07 198.537 175.14 198.089 175.14C196.717 175.14 195.765 174.398 195.765 172.76V168.784H194.127V167.58H195.765V165.382H197.179V167.58H199.419V168.784H197.179V172.438C197.179 173.46 197.669 173.824 198.425 173.824C198.761 173.824 199.055 173.768 199.349 173.628ZM206.648 167.58L202.938 177.702H201.398L202.462 174.902L199.536 167.58H201.062L203.218 173.236L205.22 167.58H206.648ZM52.4004 192H49.2224V181.948H52.4004C55.6064 181.948 57.4544 183.992 57.4544 186.932C57.4544 189.83 55.5364 192 52.4004 192ZM50.7624 183.278V190.67H52.3304C54.6404 190.67 55.8864 189.242 55.8864 186.932C55.8864 184.664 54.6544 183.278 52.3304 183.278H50.7624ZM61.7262 192.14C59.5842 192.14 58.1422 190.586 58.1422 188.248C58.1422 186.05 59.6402 184.44 61.6842 184.44C63.8962 184.44 65.3662 186.232 65.1142 188.64H59.5842C59.6962 190.152 60.4522 191.034 61.6982 191.034C62.7482 191.034 63.4762 190.46 63.7142 189.494H65.1142C64.7502 191.146 63.4762 192.14 61.7262 192.14ZM61.6562 185.504C60.5222 185.504 59.7522 186.316 59.5982 187.702H63.6162C63.5462 186.33 62.8042 185.504 61.6562 185.504ZM72.2175 189.788C72.2175 191.244 71.0835 192.14 69.1095 192.14C67.1495 192.14 65.9875 191.174 65.8475 189.578H67.2055C67.2615 190.502 68.0035 191.076 69.1375 191.076C70.1315 191.076 70.7895 190.726 70.7895 190.026C70.7895 189.41 70.4115 189.144 69.4875 188.962L68.2835 188.738C66.9115 188.472 66.1415 187.772 66.1415 186.652C66.1415 185.35 67.2755 184.44 68.9975 184.44C70.7755 184.44 71.9795 185.392 72.1055 186.918H70.7475C70.6635 186.022 70.0055 185.504 69.0115 185.504C68.1155 185.504 67.5135 185.882 67.5135 186.526C67.5135 187.128 67.8915 187.408 68.7875 187.576L70.0475 187.814C71.5175 188.08 72.2175 188.724 72.2175 189.788ZM75.2034 182.858C75.2034 183.39 74.7834 183.796 74.1814 183.796C73.5794 183.796 73.1454 183.39 73.1454 182.858C73.1454 182.312 73.5794 181.92 74.1814 181.92C74.7834 181.92 75.2034 182.312 75.2034 182.858ZM74.8954 192H73.4814V184.58H74.8954V192ZM79.5463 194.856C77.6003 194.856 76.3403 193.82 76.2563 192.14H77.6283C77.7123 193.176 78.3843 193.736 79.5323 193.736C80.8063 193.736 81.4783 193.05 81.4783 191.776V190.432C81.0583 191.328 80.2183 191.846 79.2103 191.846C77.3623 191.846 76.0463 190.32 76.0463 188.136C76.0463 185.924 77.3063 184.44 79.1683 184.44C80.2323 184.44 81.0723 184.958 81.5763 185.896V184.58H82.8923V191.748C82.8923 193.694 81.6463 194.856 79.5463 194.856ZM77.4743 188.136C77.4743 189.676 78.2303 190.614 79.4623 190.614C80.6663 190.614 81.4783 189.648 81.4783 188.178C81.4783 186.638 80.6803 185.658 79.4623 185.658C78.2443 185.658 77.4743 186.61 77.4743 188.136ZM85.9838 187.814V192H84.5698V184.58H85.8858V185.812C86.3898 184.986 87.2298 184.44 88.2518 184.44C89.7778 184.44 90.7858 185.42 90.7858 187.198V192H89.3718V187.674C89.3718 186.4 88.8118 185.686 87.7618 185.686C86.7958 185.686 85.9838 186.498 85.9838 187.814ZM94.3016 191.398C94.3016 192.728 93.2516 193.764 91.7116 193.792V192.994C92.6216 192.966 93.2376 192.476 93.3216 191.79C93.1956 191.832 93.1116 191.846 93.0136 191.846C92.4816 191.846 92.0896 191.412 92.0896 190.894C92.0896 190.292 92.5376 189.9 93.1116 189.9C93.8816 189.9 94.3016 190.46 94.3016 191.398ZM106.156 192L104.028 184.118L101.886 192H100.304L97.6861 181.948H99.1981L101.13 189.69L103.244 181.948H104.84L106.926 189.704L108.858 181.948H110.37L107.752 192H106.156ZM113.777 192.14C111.635 192.14 110.193 190.586 110.193 188.248C110.193 186.05 111.691 184.44 113.735 184.44C115.947 184.44 117.417 186.232 117.165 188.64H111.635C111.747 190.152 112.503 191.034 113.749 191.034C114.799 191.034 115.527 190.46 115.765 189.494H117.165C116.801 191.146 115.527 192.14 113.777 192.14ZM113.707 185.504C112.573 185.504 111.803 186.316 111.649 187.702H115.667C115.597 186.33 114.855 185.504 113.707 185.504ZM125.473 188.29C125.473 190.516 124.185 192.14 122.183 192.14C121.133 192.14 120.237 191.608 119.705 190.67V192H118.389V181.948H119.803V185.854C120.321 184.944 121.175 184.44 122.183 184.44C124.171 184.44 125.473 186.036 125.473 188.29ZM124.003 188.29C124.003 186.61 123.121 185.686 121.903 185.686C120.727 185.686 119.803 186.596 119.803 188.262C119.803 189.9 120.699 190.88 121.903 190.88C123.121 190.88 124.003 189.942 124.003 188.29ZM132.506 189.788C132.506 191.244 131.372 192.14 129.398 192.14C127.438 192.14 126.276 191.174 126.136 189.578H127.494C127.55 190.502 128.292 191.076 129.426 191.076C130.42 191.076 131.078 190.726 131.078 190.026C131.078 189.41 130.7 189.144 129.776 188.962L128.572 188.738C127.2 188.472 126.43 187.772 126.43 186.652C126.43 185.35 127.564 184.44 129.286 184.44C131.064 184.44 132.268 185.392 132.394 186.918H131.036C130.952 186.022 130.294 185.504 129.3 185.504C128.404 185.504 127.802 185.882 127.802 186.526C127.802 187.128 128.18 187.408 129.076 187.576L130.336 187.814C131.806 188.08 132.506 188.724 132.506 189.788ZM135.492 182.858C135.492 183.39 135.072 183.796 134.47 183.796C133.868 183.796 133.434 183.39 133.434 182.858C133.434 182.312 133.868 181.92 134.47 181.92C135.072 181.92 135.492 182.312 135.492 182.858ZM135.184 192H133.77V184.58H135.184V192ZM141.053 190.628V191.874C140.619 192.07 140.241 192.14 139.793 192.14C138.421 192.14 137.469 191.398 137.469 189.76V185.784H135.831V184.58H137.469V182.382H138.883V184.58H141.123V185.784H138.883V189.438C138.883 190.46 139.373 190.824 140.129 190.824C140.465 190.824 140.759 190.768 141.053 190.628ZM145.039 192.14C142.897 192.14 141.455 190.586 141.455 188.248C141.455 186.05 142.953 184.44 144.997 184.44C147.209 184.44 148.679 186.232 148.427 188.64H142.897C143.009 190.152 143.765 191.034 145.011 191.034C146.061 191.034 146.789 190.46 147.027 189.494H148.427C148.063 191.146 146.789 192.14 145.039 192.14ZM144.969 185.504C143.835 185.504 143.065 186.316 142.911 187.702H146.929C146.859 186.33 146.117 185.504 144.969 185.504ZM155.586 192H152.408V181.948H155.586C158.792 181.948 160.64 183.992 160.64 186.932C160.64 189.83 158.722 192 155.586 192ZM153.948 183.278V190.67H155.516C157.826 190.67 159.072 189.242 159.072 186.932C159.072 184.664 157.84 183.278 155.516 183.278H153.948ZM164.912 192.14C162.77 192.14 161.328 190.586 161.328 188.248C161.328 186.05 162.826 184.44 164.87 184.44C167.082 184.44 168.552 186.232 168.3 188.64H162.77C162.882 190.152 163.638 191.034 164.884 191.034C165.934 191.034 166.662 190.46 166.9 189.494H168.3C167.936 191.146 166.662 192.14 164.912 192.14ZM164.842 185.504C163.708 185.504 162.938 186.316 162.784 187.702H166.802C166.732 186.33 165.99 185.504 164.842 185.504ZM175.404 189.788C175.404 191.244 174.27 192.14 172.296 192.14C170.336 192.14 169.174 191.174 169.034 189.578H170.392C170.448 190.502 171.19 191.076 172.324 191.076C173.318 191.076 173.976 190.726 173.976 190.026C173.976 189.41 173.598 189.144 172.674 188.962L171.47 188.738C170.098 188.472 169.328 187.772 169.328 186.652C169.328 185.35 170.462 184.44 172.184 184.44C173.962 184.44 175.166 185.392 175.292 186.918H173.934C173.85 186.022 173.192 185.504 172.198 185.504C171.302 185.504 170.7 185.882 170.7 186.526C170.7 187.128 171.078 187.408 171.974 187.576L173.234 187.814C174.704 188.08 175.404 188.724 175.404 189.788ZM178.389 182.858C178.389 183.39 177.969 183.796 177.367 183.796C176.765 183.796 176.331 183.39 176.331 182.858C176.331 182.312 176.765 181.92 177.367 181.92C177.969 181.92 178.389 182.312 178.389 182.858ZM178.081 192H176.667V184.58H178.081V192ZM182.732 194.856C180.786 194.856 179.526 193.82 179.442 192.14H180.814C180.898 193.176 181.57 193.736 182.718 193.736C183.992 193.736 184.664 193.05 184.664 191.776V190.432C184.244 191.328 183.404 191.846 182.396 191.846C180.548 191.846 179.232 190.32 179.232 188.136C179.232 185.924 180.492 184.44 182.354 184.44C183.418 184.44 184.258 184.958 184.762 185.896V184.58H186.078V191.748C186.078 193.694 184.832 194.856 182.732 194.856ZM180.66 188.136C180.66 189.676 181.416 190.614 182.648 190.614C183.852 190.614 184.664 189.648 184.664 188.178C184.664 186.638 183.866 185.658 182.648 185.658C181.43 185.658 180.66 186.61 180.66 188.136ZM189.17 187.814V192H187.756V184.58H189.072V185.812C189.576 184.986 190.416 184.44 191.438 184.44C192.964 184.44 193.972 185.42 193.972 187.198V192H192.558V187.674C192.558 186.4 191.998 185.686 190.948 185.686C189.982 185.686 189.17 186.498 189.17 187.814Z" fill="#1A1A1A"/>
<mask id="path-4-outside-1_1195_444" maskUnits="userSpaceOnUse" x="80" y="40" width="82" height="81" fill="black">
<rect fill="white" x="80" y="40" width="82" height="81"/>
<path d="M109.438 60.0749C109.4 60.425 109.109 60.7366 108.814 60.9157C108.64 61.0406 108.421 61.0584 108.201 61.0763C107.923 61.0916 107.638 60.9376 107.418 60.7635C107.246 60.6372 107.163 60.4372 107.053 60.2542C106.784 59.8405 105.257 57.3437 105.016 56.9129C103.783 57.6039 102.531 58.2301 101.338 58.9547C101.61 59.4051 103.14 61.8427 103.468 62.259C103.606 62.4249 103.72 62.6445 103.774 62.8616C104.007 64.1052 102.491 64.8341 101.62 63.9008C101.369 63.6112 100.324 61.9759 100.128 61.6522C99.6125 60.8303 96.7482 56.183 96.185 55.4092C95.9954 55.1589 95.7692 54.9115 95.6498 54.6185C95.2266 53.6635 96.0636 52.6356 97.0636 52.8938C97.2749 52.9578 97.4752 53.0671 97.6193 53.2104C97.7464 53.3256 97.8259 53.4889 97.9109 53.6297C98.0184 53.776 98.1315 53.8997 98.2305 54.0319C98.4881 54.3949 99.7998 56.5031 100.035 56.8605C101.242 56.1273 102.508 55.4927 103.74 54.8017C103.273 54.0276 102.8 53.276 102.36 52.4849C102.19 52.2034 102.057 51.9189 101.901 51.6289C101.856 51.5218 101.552 51.0518 101.516 50.9588C101.413 50.694 101.44 50.3891 101.506 50.1179C101.556 49.9145 101.705 49.7473 101.862 49.5943C102.052 49.4016 102.361 49.3099 102.631 49.2806C102.924 49.2568 103.2 49.3967 103.434 49.5622C103.745 49.7585 104.338 50.9949 104.511 51.3131C105.109 52.335 108.674 58.2691 109.314 59.2654C109.472 59.4962 109.468 59.8066 109.438 60.0749Z"/>
<path d="M114.552 58.2846C114.246 58.4917 113.89 58.6262 113.531 58.6769C112.865 58.7829 112.131 58.6684 111.51 58.3919C110.726 58.0691 110.043 57.4525 109.591 56.7474C108.934 55.7359 108.702 54.3874 108.93 53.2012C109.076 52.5248 109.392 51.8588 109.834 51.2985C111.037 49.8152 113.275 49.4407 114.795 50.6045C115.141 50.861 115.825 51.6972 115.843 52.1326C115.835 52.1684 115.928 52.2815 115.952 52.3098C116.064 52.503 116.275 53.3323 116.296 53.5641C116.452 54.5922 116.277 55.7153 115.877 56.6714C115.589 57.3138 115.138 57.91 114.552 58.2846ZM112.898 56.2567C113.001 56.2662 113.117 56.2559 113.209 56.2174C113.361 56.1477 113.447 56.0093 113.532 55.8708C113.827 55.3283 113.94 54.6594 113.881 54.0478C113.87 53.7124 113.695 53.3985 113.649 53.0545C113.622 52.9424 113.388 52.6596 113.301 52.5785C113.184 52.437 112.986 52.3823 112.803 52.3916C112.377 52.3734 111.956 52.5908 111.668 52.9458C111.413 53.2933 111.306 53.7748 111.308 54.2138C111.306 55.1438 111.98 56.1515 112.898 56.2567Z"/>
<path d="M121.018 57.8076C120.561 58.0128 119.988 58.0865 119.495 57.9383C119.097 57.8193 118.734 57.5556 118.459 57.2537C117.985 56.7097 117.733 55.9793 117.61 55.2825C117.287 53.5801 117.407 51.7867 117.681 50.0801C117.721 49.7701 117.795 49.4645 117.931 49.1837C118.451 48.1237 120.003 48.279 120.266 49.4258C120.305 49.6302 120.291 49.8608 120.231 50.0685C120.2 50.1806 120.138 50.272 120.121 50.4026C119.896 51.7339 119.795 53.1314 119.968 54.4654C120.006 54.8025 120.079 55.1275 120.203 55.4426C120.465 55.2117 120.671 54.9069 120.874 54.6184C120.938 54.5107 121.167 54.0264 121.215 53.9165C121.482 53.1386 121.671 52.3336 121.841 51.5428C121.894 51.2676 122.014 50.9846 122.206 50.7777C122.755 50.2527 123.654 50.3383 124.083 50.976C124.251 51.2139 124.31 51.5204 124.306 51.8021C124.306 52.4328 124.238 53.0712 124.273 53.6899C124.299 54.1248 124.495 55.5284 124.747 55.8771C124.763 55.8792 124.763 55.8792 124.763 55.8792C124.899 55.7311 125.022 55.5482 125.129 55.3632C125.8 54.1573 126.227 52.8028 126.374 51.428C126.415 51.1181 126.362 50.7626 126.484 50.4633C126.952 49.2969 128.664 49.49 128.849 50.7261C128.896 50.9978 128.769 52.0931 128.735 52.3541C128.485 53.7486 128.053 55.152 127.361 56.3884C127.079 56.8989 126.762 57.4213 126.33 57.8124C126.012 58.0858 125.632 58.3343 125.223 58.4296C124.864 58.515 124.469 58.496 124.12 58.3835C123.363 58.1008 122.74 57.4211 122.407 56.68C122.016 57.1427 121.563 57.5643 121.018 57.8076Z"/>
<path d="M129.449 60.1526C129.198 60.2754 128.873 60.2396 128.62 60.1636C128.285 60.0694 128.012 59.7511 127.865 59.4341C127.789 59.2389 127.8 59.01 127.804 58.7961C127.843 58.5437 128.315 57.5113 128.399 57.2788C128.806 56.2716 129.228 55.2711 129.664 54.2773C129.864 53.8623 130.992 51.2138 131.178 50.7922C131.29 50.5362 131.987 48.9918 132.092 48.7508C132.163 48.5484 132.324 48.3859 132.494 48.245C132.642 48.1125 132.867 48.05 133.078 48.0176C133.296 47.9701 133.504 48.0262 133.706 48.0975C133.968 48.1952 134.179 48.4502 134.323 48.6937C134.452 48.9305 134.46 49.2396 134.407 49.5221C134.379 49.7077 134.034 50.454 133.946 50.613C133.628 51.3358 131.703 55.7178 131.394 56.4623C131.222 56.8538 130.271 59.221 130.099 59.6125C129.972 59.8619 129.716 60.0365 129.449 60.1526Z"/>
<path d="M133.062 62.3531C132.321 62.0944 131.629 61.508 131.258 60.8057C130.974 60.2651 130.756 59.6302 130.802 59.0195C130.811 58.8051 130.916 58.5975 131.038 58.4223C131.222 58.1297 131.608 57.9787 131.955 57.9409C132.521 57.8761 133.151 58.3789 133.216 58.9464C133.251 59.212 133.326 59.5059 133.485 59.7378C133.653 59.9561 133.967 60.1367 134.185 59.9682C133.872 59.3265 133.425 58.7321 133.177 58.0554C132.902 57.3004 132.924 56.3514 133.291 55.6247C133.539 55.0962 134.05 54.6513 134.601 54.4355C135.074 54.2454 135.608 54.1982 136.116 54.2736C136.611 54.3396 137.101 54.5836 137.518 54.8761C138.132 55.2872 138.548 56.0407 138.736 56.7754C138.807 57.0464 138.732 57.3551 138.622 57.5991C138.526 57.7932 138.341 57.9443 138.174 58.0683C138.008 58.1923 137.779 58.2328 137.569 58.2463C137.291 58.272 136.998 58.1466 136.77 57.9862C136.649 57.9013 136.569 57.7854 136.49 57.6694C136.366 57.5023 136.362 57.2785 136.261 57.1073C136.139 56.8808 136.018 56.7959 135.783 56.7312C135.683 56.7016 135.515 56.6841 135.468 56.7515C135.407 56.8688 135.482 57.1627 135.515 57.2867C135.567 57.4431 135.993 58.1238 136.076 58.2626C136.369 58.7897 136.657 59.3532 136.707 59.9706C136.74 60.2955 136.687 60.6595 136.525 60.948C136.188 61.5749 135.566 62.1223 134.887 62.3489C134.309 62.5458 133.649 62.5445 133.062 62.3531Z"/>
<path d="M89.9831 101.142C89.3482 100.471 88.7147 98.9802 89.1363 98.1624C89.6174 97.2344 90.9649 97.2974 91.3678 98.2579C91.4412 98.4304 91.4429 98.6181 91.4703 98.7852C91.5718 99.5233 92.4838 100.121 93.2138 100.171C93.7697 100.212 94.3421 100.01 94.8582 99.7884C94.3007 99.5596 93.7335 99.2125 93.4053 98.7174C93.1838 98.4106 93.0009 98.073 92.9258 97.7128C92.8281 97.2446 92.7791 96.7587 92.8685 96.2888C92.9606 95.7958 93.0885 95.2953 93.2931 94.8388C93.982 93.3258 95.0954 91.9794 96.2924 90.8184C96.5963 90.514 96.9564 90.2279 97.3669 90.1116C97.6338 90.0255 97.9383 90.1195 98.194 90.2313C98.3832 90.3118 98.5259 90.4924 98.6583 90.6601C98.8187 90.8896 98.8531 91.1982 98.8312 91.4885C98.8253 91.6401 98.753 91.7605 98.7139 91.8965C98.6079 92.1068 98.4021 92.2703 98.2118 92.4004C98.0859 92.4795 97.5683 93.0167 97.4729 93.1344C96.6435 94.0454 95.7931 95.0359 95.4006 96.2085C95.3069 96.5138 95.2078 96.8654 95.3242 97.1718C95.4079 97.3573 95.6432 97.4432 95.8352 97.5007C96.2624 97.6441 96.7416 97.6412 97.1929 97.5766C97.8827 97.4694 98.5403 97.1359 99.1517 96.797C99.7761 96.4479 100.294 95.9107 100.928 95.5745C101.152 95.46 101.434 95.4459 101.685 95.4985C102.655 95.6933 102.982 96.9028 102.269 97.6164C101.926 97.9514 101.492 98.1704 101.132 98.4565C99.9003 99.4143 98.6758 100.408 97.365 101.24C96.7739 101.604 96.1522 101.93 95.4925 102.182C94.6119 102.524 93.6424 102.728 92.7 102.595C91.6885 102.454 90.679 101.891 89.9831 101.142Z"/>
<path d="M100.964 107.932C100.605 107.848 100.264 107.676 99.9839 107.446C99.4544 107.027 99.04 106.408 98.8215 105.763C98.5266 104.967 98.5148 104.045 98.7251 103.234C99.0199 102.063 99.8511 100.978 100.875 100.342C101.469 99.9897 102.171 99.7709 102.881 99.7165C104.784 99.5974 106.577 100.993 106.755 102.902C106.802 103.331 106.654 104.403 106.346 104.711C106.315 104.729 106.295 104.875 106.291 104.911C106.225 105.125 105.761 105.843 105.605 106.016C104.958 106.828 104.016 107.461 103.044 107.814C102.378 108.038 101.636 108.11 100.964 107.932ZM101.327 105.338C101.39 105.42 101.476 105.499 101.567 105.54C101.721 105.605 101.881 105.574 102.04 105.544C102.638 105.393 103.204 105.022 103.613 104.564C103.851 104.328 103.962 103.987 104.183 103.719C104.247 103.624 104.295 103.259 104.296 103.14C104.32 102.958 104.226 102.775 104.094 102.646C103.819 102.32 103.374 102.157 102.919 102.186C102.491 102.233 102.066 102.481 101.745 102.78C101.063 103.41 100.782 104.59 101.327 105.338Z"/>
<path d="M113.551 111.612C113.445 112.474 112.471 112.917 111.723 112.5C111.49 112.361 111.287 112.127 111.181 111.854C111.097 111.622 111.11 111.351 111.134 111.1C110.639 111.379 110.078 111.587 109.519 111.624C109.187 111.643 108.838 111.606 108.529 111.494C108.126 111.354 107.745 111.084 107.486 110.747C106.996 110.1 106.735 109.263 106.687 108.458C106.631 107.168 107.006 105.872 107.367 104.623C107.481 104.245 107.652 103.85 107.892 103.511C108.056 103.251 108.394 103.096 108.699 103.051C109.724 102.95 110.455 104.05 109.897 104.929C109.613 105.358 109.218 107.233 109.164 107.75C109.125 108.219 109.135 108.755 109.374 109.155C110.348 109.107 111.508 107.483 111.931 106.597C112.034 106.37 112.475 105.249 112.636 105.057C113.398 104.068 114.958 104.749 114.821 105.997C114.8 106.18 114.716 106.343 114.648 106.512C114.191 107.628 114.031 108.835 113.83 110.012C113.735 110.55 113.625 111.084 113.551 111.612Z"/>
<path d="M116.806 112.979C116.542 113.041 116.232 112.955 115.987 112.853C115.677 112.7 115.469 112.352 115.358 112.021C115.311 111.856 115.338 111.132 115.34 110.968C115.366 110.244 115.551 106.33 115.495 105.621C115.481 105.407 115.566 105.194 115.651 104.998C115.769 104.753 116.05 104.576 116.298 104.447C116.546 104.335 116.874 104.373 117.135 104.442C117.577 104.564 117.914 105.078 117.941 105.523C118.374 105.035 118.938 104.632 119.564 104.443C119.976 104.317 120.435 104.29 120.877 104.378C122.252 104.628 122.756 106.214 122.507 107.61C122.455 107.807 122.321 108.002 122.188 108.165C121.954 108.425 121.559 108.518 121.215 108.53C120.936 108.526 120.659 108.358 120.448 108.174C120.237 107.99 120.127 107.692 120.081 107.412C120.066 107.346 120.104 106.968 120.105 106.886C119.691 107.143 119.439 107.584 119.171 107.976C118.752 108.612 118.317 109.248 118.077 109.968C117.872 110.591 117.846 111.265 117.788 111.939C117.769 112.153 117.651 112.349 117.534 112.528C117.383 112.757 117.086 112.884 116.806 112.979Z"/>
<path d="M132.453 111.05C131.74 111.56 130.885 111.897 130.019 112.079C129.69 112.144 129.303 112.109 129.014 111.926C128.769 111.761 128.552 111.495 128.485 111.202C128.472 111.172 128.449 110.986 128.436 110.955C128.157 110.323 126.528 106.636 126.271 106.013C126.076 105.541 124.944 102.627 124.735 102.162C124.722 102.132 124.638 101.971 124.61 101.947C124.473 101.701 124.481 101.377 124.545 101.101C124.594 100.832 124.795 100.588 125.021 100.405C125.184 100.284 125.409 100.226 125.625 100.19C125.892 100.15 126.186 100.259 126.426 100.409C126.702 100.562 126.864 100.868 126.99 101.172C127.293 100.53 127.733 99.9195 128.32 99.5335C128.728 99.2749 129.176 99.0708 129.66 98.9947C130.329 98.8949 131.049 99.0053 131.701 99.251C132.488 99.5654 133.184 100.132 133.734 100.776C134.114 101.223 134.422 101.754 134.663 102.296C134.999 103.065 135.219 103.899 135.247 104.742C135.311 106.23 134.964 107.799 134.19 109.064C133.739 109.821 133.16 110.525 132.453 111.05ZM128.958 103.489C128.962 105.518 129.665 107.524 130.446 109.372C130.849 109.187 131.221 108.926 131.509 108.592C132.619 107.366 133.057 105.545 132.654 103.967C132.498 103.373 132.216 102.777 131.815 102.321C131.543 102.006 131.21 101.717 130.824 101.557C130.588 101.459 130.329 101.389 130.076 101.422C129.273 101.542 128.964 102.686 128.958 103.489Z"/>
<path d="M143.952 102.281C143.78 102.511 143.492 102.602 143.219 102.659C142.946 102.717 142.641 102.608 142.397 102.469C142.185 102.369 142.029 102.156 141.869 101.99C141.828 102.582 141.739 103.193 141.505 103.733C141.287 104.216 140.98 104.668 140.545 104.968C140.172 105.238 139.691 105.405 139.235 105.423C138.488 105.45 137.697 105.169 137.133 104.699C136.407 104.085 135.838 103.275 135.486 102.391C135.306 101.919 135.139 101.437 135.09 100.942C134.981 100.068 135.074 99.1531 135.381 98.316C135.644 97.5801 136.239 96.9089 136.936 96.5388C137.341 96.3062 137.807 96.1725 138.277 96.121C138.369 95.8722 138.577 95.6337 138.799 95.4899C139.034 95.3356 139.351 95.3055 139.629 95.3302C139.917 95.3676 140.19 95.5672 140.392 95.7838C140.51 95.8994 140.911 96.636 141.003 96.7728C141.777 98.0333 142.672 99.2345 143.683 100.318C143.788 100.444 143.931 100.538 144.024 100.675C144.19 100.9 144.302 101.214 144.288 101.505C144.274 101.795 144.134 102.063 143.952 102.281ZM139.058 102.954C139.081 102.956 139.127 102.96 139.153 102.939C139.283 102.787 139.314 102.568 139.353 102.385C139.472 101.835 139.393 101.279 139.312 100.746C139.189 100.034 139.017 99.341 138.82 98.6693C138.812 98.6335 138.722 98.602 138.688 98.5874C138.644 98.5601 138.467 98.5794 138.419 98.5984C138.194 98.6368 137.987 98.7468 137.844 98.9093C137.702 99.0719 137.635 99.2995 137.581 99.5167C137.485 99.9404 137.469 100.383 137.558 100.823C137.63 101.192 137.774 101.543 137.955 101.863C138.145 102.219 138.663 102.942 139.058 102.954Z"/>
<path d="M152.976 98.4509C152.93 98.9123 152.788 99.3698 152.563 99.7732C151.993 100.736 150.559 100.62 150.259 99.5177C150.16 99.1579 150.217 98.8015 150.446 98.4801C150.563 98.3012 150.545 97.7582 150.489 97.5442C150.39 97.1844 150.256 96.8203 150.08 96.4885C149.826 96.0067 149.445 95.599 149.069 95.214C149.114 95.7157 149.059 96.2502 148.844 96.6992C148.602 97.1894 148.123 97.6223 147.606 97.8135C146.912 98.0655 146.101 98.0445 145.363 97.9135C144.178 97.6855 143.072 97.0371 142.083 96.3283C141.9 96.1883 140.934 95.4748 140.769 95.3073C140.618 95.1487 140.48 94.9992 140.337 94.8269C140.195 94.6546 140.148 94.4268 140.119 94.2307C140.071 93.9436 140.187 93.646 140.326 93.403C140.479 93.169 140.755 93.0162 141.019 92.9137C141.35 92.797 141.742 92.9171 142.039 93.0927C142.241 93.2052 142.352 93.4554 142.535 93.5954C143.451 94.2956 144.38 95.0641 145.48 95.3931C145.849 95.518 146.246 95.6016 146.623 95.5347C146.604 94.873 146.272 94.2412 145.93 93.6826C145.456 92.9378 144.863 92.2533 144.154 91.7478C143.788 91.4677 143.584 90.9992 143.667 90.5422C143.728 90.2085 143.971 89.8962 144.261 89.6931C144.478 89.5407 144.792 89.5109 145.069 89.536C145.311 89.5569 145.517 89.6922 145.709 89.8185C146.852 90.5306 148.013 91.2151 149.107 92.0325C150.298 92.9131 151.475 93.9626 152.218 95.2575C152.758 96.2026 153.095 97.3683 152.976 98.4509Z"/>
<path d="M120.785 83.4331C120.592 83.4767 120.381 83.4808 120.14 83.459C120.355 83.4645 120.572 83.4563 120.785 83.4331Z"/>
<path d="M135.269 73.5922C134.89 71.1454 133.654 69.0807 131.789 67.7778C128.843 65.7205 125.662 66.3822 124.758 66.6332C123.433 67.0022 122.243 67.7389 121.238 68.6714C120.974 68.9163 119.998 70.3139 119.707 70.3085C119.409 70.3023 119.012 69.4387 118.326 68.801C116.299 66.9176 113.375 66.0056 110.647 66.5125C107.353 67.123 104.523 69.7751 103.691 73.0302C103.599 73.393 103.526 73.7703 103.328 74.0888C102.937 74.7211 102.152 74.9769 101.418 75.0895C99.7844 75.3392 96.4735 75.0295 96.0593 77.2552C95.8376 78.4462 96.717 79.8289 97.2604 80.5465C98.0895 81.6406 99.2906 82.5874 100.734 83.2845C102.995 84.3764 105.342 84.7904 107.726 84.5197C107.975 84.4914 108.223 84.5933 108.375 84.7934C109.588 86.3893 111.146 88.1853 113.018 90.1474C114.997 92.2217 117.11 94.2483 119.297 96.1713L119.314 96.1861C119.522 96.3642 119.829 96.3581 120.029 96.1719C122.216 94.249 124.329 92.2224 126.308 90.1474C131.418 84.792 132.823 82.0826 133.285 81.1925C134.537 78.7798 135.718 76.5015 135.269 73.5922ZM119.816 73.5329C120.837 75.0267 122.13 77.4046 122.371 78.7484C122.539 79.6741 122.433 80.6338 121.634 81.245C121.012 81.7204 120.14 81.8241 119.405 81.5554C119.081 81.4373 118.778 81.2477 118.559 80.981C118.279 80.6393 118.156 80.1952 118.095 79.7573C117.945 78.6522 118.166 77.5431 118.525 76.4994C118.707 75.9653 118.929 75.4442 119.16 74.9306C119.219 74.8003 119.869 73.6093 119.816 73.5329ZM131.718 80.3753C131.286 81.2095 129.968 83.7498 125.031 88.923C123.468 90.5613 121.821 92.1702 120.117 93.7186C119.859 93.9534 119.466 93.9532 119.208 93.7183C117.505 92.1685 115.857 90.5607 114.295 88.923C112.193 86.7204 110.505 84.7416 109.276 83.0397L109.179 82.8968C109.026 82.6709 108.754 82.5576 108.487 82.6085L108.357 82.6331C106.025 83.0779 103.717 82.7593 101.5 81.6891C100.307 81.1133 99.3273 80.348 98.6669 79.4756C98.1345 78.772 97.8873 77.9377 97.8173 77.6684C97.8021 77.6098 97.7989 77.541 97.8501 77.509C98.501 77.1072 99.377 77.0465 100.303 76.9831C101.019 76.934 101.759 76.8835 102.474 76.6727C103.794 76.2832 104.753 75.5104 105.174 74.494C105.348 74.0745 105.414 73.6516 105.472 73.2791C105.499 73.095 105.527 72.9203 105.564 72.7607C105.667 72.3214 105.885 71.8678 106.21 71.4135C107.413 69.7355 109.359 68.5336 111.419 68.1987C112.617 68.0029 114.388 68.0186 116.02 69.2028C116.975 69.8953 117.667 70.702 118.377 71.6177C118.547 71.8374 118.565 72.1383 118.428 72.3805C117.001 74.9043 115.336 78.6482 116.787 81.3753C117.5 82.7129 119.026 83.5697 120.536 83.4755C123.151 83.3105 124.544 80.8453 124.11 78.434C123.749 76.4335 121.931 73.4035 120.905 72.0132C120.848 71.9367 120.846 71.8325 120.9 71.7546C122.187 69.9299 123.644 68.7812 125.229 68.3405C125.74 68.1987 128.406 67.5738 130.78 69.2314C132.757 70.612 133.347 72.7266 133.523 73.8644C133.867 76.0861 133.062 77.7853 131.718 80.3753Z"/>
<path d="M124.869 66.2495C126.015 65.9673 129.103 65.4846 131.984 67.4963C133.933 68.8575 135.214 71.009 135.606 73.5393C136.075 76.5748 134.834 78.9504 133.589 81.3507C133.111 82.2708 131.687 85.0069 126.555 90.3847C124.569 92.4671 122.449 94.5003 120.254 96.4297L120.253 96.429C119.926 96.7272 119.428 96.7358 119.092 96.4464L119.074 96.4317L119.072 96.429C116.877 94.4997 114.758 92.4663 112.771 90.3847C110.893 88.4164 109.326 86.6102 108.103 85.0012C108.026 84.9004 107.898 84.8455 107.764 84.8606C105.314 85.1389 102.902 84.7117 100.585 83.5931C99.1945 82.9212 98.0118 82.0191 97.1552 80.9663L96.9883 80.7541C96.7082 80.3842 96.3357 79.8354 96.0609 79.218C95.7888 78.6067 95.5939 77.8872 95.7231 77.1926C95.9703 75.8644 97.0929 75.3353 98.21 75.0961C98.7762 74.9749 99.376 74.9195 99.9245 74.8785C100.484 74.8367 100.975 74.8104 101.367 74.7506L101.632 74.703C102.242 74.5767 102.77 74.3406 103.038 73.9082C103.2 73.6471 103.26 73.3389 103.36 72.9447C104.225 69.5605 107.16 66.81 110.585 66.1752C113.424 65.6477 116.456 66.5962 118.558 68.5496C118.929 68.8937 119.219 69.2971 119.435 69.5854C119.548 69.7365 119.634 69.8471 119.705 69.9202C119.706 69.9209 119.707 69.9216 119.707 69.9222C119.731 69.9015 119.76 69.8761 119.792 69.8445C119.915 69.7236 120.064 69.553 120.219 69.3651C120.374 69.1776 120.526 68.9851 120.662 68.8161C120.789 68.6587 120.917 68.5018 121.005 68.4197C122.042 67.4576 123.279 66.6894 124.666 66.3031L124.869 66.2495ZM131.594 68.0594C128.775 66.0912 125.722 66.7209 124.849 66.9633C123.587 67.315 122.443 68.0203 121.47 68.9232C121.426 68.9635 121.334 69.0733 121.194 69.2466C121.064 69.4082 120.904 69.6106 120.746 69.8024C120.587 69.9937 120.421 70.1875 120.271 70.3347C120.197 70.4077 120.117 70.4775 120.039 70.5315C119.977 70.5745 119.852 70.6542 119.7 70.6514C119.477 70.6467 119.31 70.4938 119.218 70.4003C119.11 70.2899 118.998 70.1431 118.889 69.9979C118.661 69.6934 118.41 69.3459 118.094 69.0524C116.142 67.2391 113.326 66.3635 110.71 66.8495C107.546 67.4358 104.821 69.9898 104.022 73.1155C103.938 73.4469 103.851 73.8935 103.618 74.2692C103.141 75.0397 102.217 75.3135 101.47 75.4282C101.044 75.4932 100.509 75.5222 99.9752 75.5621C99.4305 75.6028 98.8703 75.6556 98.3529 75.7663C97.3026 75.9912 96.5624 76.4209 96.3954 77.3184C96.3031 77.8147 96.4373 78.3819 96.6852 78.9388C96.9304 79.4897 97.2691 79.9913 97.5324 80.3389C98.3236 81.3831 99.4792 82.2982 100.882 82.9758C103.087 84.0409 105.371 84.442 107.687 84.179C108.052 84.1376 108.419 84.2863 108.646 84.5854C109.85 86.1683 111.399 87.9548 113.266 89.9106C115.237 91.9765 117.34 93.9953 119.519 95.9108L119.537 95.9255C119.612 95.9901 119.724 95.9882 119.796 95.9208L119.8 95.9175L119.804 95.9141C121.983 93.9977 124.089 91.9783 126.061 89.9106C131.15 84.5778 132.536 81.8941 132.982 81.034C134.24 78.6092 135.36 76.4277 134.93 73.6451L134.852 73.2065C134.428 71.1097 133.339 69.347 131.759 68.1779L131.594 68.0594ZM111.605 67.8251C112.846 67.6629 114.596 67.7467 116.22 68.9252C117.215 69.6467 117.931 70.4844 118.647 71.4074C118.904 71.7396 118.928 72.1905 118.725 72.5497C118.017 73.8017 117.261 75.3384 116.859 76.8879C116.456 78.4411 116.421 79.9585 117.088 81.2134L117.218 81.437C117.913 82.5281 119.225 83.2135 120.515 83.1331C122.874 82.984 124.181 80.7593 123.773 78.4949C123.603 77.5491 123.079 76.3302 122.455 75.1564C121.835 73.9892 121.133 72.8984 120.63 72.2176C120.488 72.0254 120.479 71.7592 120.621 71.5573L120.621 71.5567C121.938 69.6903 123.453 68.4781 125.138 68.0099C125.671 67.8618 128.47 67.2007 130.975 68.95C133.064 70.4088 133.679 72.6352 133.861 73.8118L133.892 74.0301C134.17 76.2722 133.317 78.0353 132.022 80.5338C131.601 81.3451 130.399 83.6513 126.166 88.2166L125.278 89.16C123.71 90.8041 122.056 92.4186 120.347 93.9723C119.958 94.3256 119.366 94.3258 118.978 93.9723C117.483 92.6116 116.03 91.2059 114.64 89.7747L114.048 89.16C111.939 86.9507 110.241 84.9596 108.999 83.2409L108.996 83.2369L108.993 83.2322L108.897 83.0896C108.82 82.9766 108.684 82.9202 108.55 82.9456L108.421 82.9697C106.014 83.4287 103.632 83.099 101.352 81.9982C100.12 81.4039 99.0942 80.6065 98.3949 79.6827C97.8215 78.925 97.56 78.0385 97.4863 77.755C97.4735 77.7059 97.4579 77.6253 97.4696 77.5347C97.4825 77.4354 97.5333 77.303 97.6692 77.218L97.6712 77.2173C98.4085 76.7623 99.3798 76.7025 100.28 76.6408C101.002 76.5913 101.704 76.542 102.378 76.3435C103.626 75.975 104.487 75.259 104.858 74.3622C105.015 73.9867 105.075 73.6032 105.134 73.2266C105.162 73.0431 105.191 72.857 105.231 72.6836L105.231 72.6822C105.347 72.1903 105.587 71.6959 105.932 71.2138C107.188 69.4611 109.216 68.21 111.363 67.8606L111.605 67.8251ZM115.82 69.4803C114.288 68.3693 112.622 68.3493 111.474 68.5368C109.503 68.8574 107.637 70.0105 106.487 71.6136L106.486 71.6129C106.182 72.0393 105.988 72.4531 105.897 72.8396L105.896 72.8389C105.863 72.984 105.837 73.1465 105.81 73.3304V73.3317C105.752 73.6999 105.682 74.1627 105.489 74.626C105.018 75.7616 103.961 76.5913 102.571 77.0017C101.814 77.2248 101.036 77.2764 100.326 77.3251C99.4598 77.3845 98.7354 77.4417 98.1866 77.7142C98.2848 78.0482 98.515 78.7079 98.939 79.2683L99.0592 79.4209C99.6779 80.1801 100.565 80.8578 101.648 81.3801C103.801 82.4198 106.036 82.7266 108.294 82.2961L108.423 82.272C108.824 82.1956 109.232 82.3651 109.462 82.7039L109.553 82.8385C110.77 84.5235 112.446 86.4902 114.542 88.686L115.13 89.2966C116.51 90.7175 117.953 92.1133 119.438 93.4648C119.565 93.5808 119.76 93.5808 119.888 93.4648C121.585 91.9218 123.227 90.3183 124.785 88.686L125.665 87.7506C129.859 83.2269 131.024 80.9702 131.415 80.2171C132.722 77.6972 133.462 76.1139 133.213 74.1118L133.185 73.917C133.015 72.818 132.449 70.8148 130.584 69.5124C128.343 67.9473 125.81 68.5349 125.321 68.6708C123.855 69.0783 122.475 70.1406 121.231 71.8807C121.75 72.5926 122.444 73.6774 123.058 74.8336C123.69 76.0223 124.256 77.3184 124.446 78.373C124.907 80.931 123.429 83.6361 120.557 83.8174C118.966 83.9166 117.365 83.0495 116.561 81.6721L116.485 81.5368C115.702 80.0647 115.774 78.3464 116.198 76.7151C116.622 75.0802 117.412 73.4832 118.131 72.2115C118.202 72.0863 118.19 71.9351 118.107 71.8279C117.402 70.9196 116.734 70.1438 115.82 69.4803ZM120.098 73.3391L120.296 73.6337C120.762 74.3433 121.264 75.1994 121.691 76.0415C122.174 76.9954 122.577 77.9631 122.708 78.6871L122.738 78.8719C122.87 79.8034 122.732 80.8359 121.841 81.5174C121.119 82.0693 120.123 82.1831 119.288 81.8776C118.966 81.7605 118.651 81.5767 118.399 81.3152L118.295 81.1987C117.956 80.7846 117.82 80.266 117.757 79.8046C117.596 78.6255 117.834 77.4575 118.201 76.3877C118.342 75.9762 118.505 75.5742 118.676 75.1805L118.849 74.7894C118.882 74.7157 119.073 74.3584 119.225 74.0569C119.306 73.8963 119.381 73.7431 119.431 73.6277C119.457 73.5689 119.472 73.5283 119.48 73.5052C119.484 73.4924 119.482 73.4961 119.48 73.5105C119.479 73.5177 119.476 73.5392 119.478 73.5681C119.48 73.5917 119.487 73.6572 119.534 73.7261L120.097 73.3371C120.097 73.3378 120.097 73.3384 120.098 73.3391ZM119.835 74.3662C119.752 74.5303 119.666 74.6959 119.598 74.8269C119.564 74.8928 119.534 74.9494 119.511 74.9936C119.5 75.0156 119.491 75.0337 119.484 75.0479C119.48 75.055 119.477 75.061 119.475 75.0653C119.473 75.069 119.473 75.0709 119.472 75.0713L119.472 75.072C119.242 75.5815 119.025 76.0914 118.847 76.6107C118.498 77.6279 118.294 78.6795 118.434 79.7102L118.458 79.8635C118.521 80.2154 118.63 80.5278 118.823 80.7634L118.891 80.8391C119.056 81.0107 119.276 81.1434 119.522 81.2328L119.522 81.2335C120.156 81.4654 120.904 81.3711 121.426 80.9724C122.074 80.4769 122.193 79.6838 122.035 78.8096C121.923 78.1899 121.56 77.2963 121.081 76.3522C120.715 75.63 120.291 74.8967 119.886 74.2618C119.869 74.2964 119.852 74.3316 119.835 74.3662Z"/>
<path d="M110.929 76.8069C111.503 76.232 111.503 75.3 110.929 74.7251C110.356 74.1503 109.427 74.1503 108.854 74.7251C108.281 75.3 108.281 76.232 108.854 76.8069C109.427 77.3818 110.356 77.3818 110.929 76.8069Z"/>
</mask>
<path d="M109.438 60.0749C109.4 60.425 109.109 60.7366 108.814 60.9157C108.64 61.0406 108.421 61.0584 108.201 61.0763C107.923 61.0916 107.638 60.9376 107.418 60.7635C107.246 60.6372 107.163 60.4372 107.053 60.2542C106.784 59.8405 105.257 57.3437 105.016 56.9129C103.783 57.6039 102.531 58.2301 101.338 58.9547C101.61 59.4051 103.14 61.8427 103.468 62.259C103.606 62.4249 103.72 62.6445 103.774 62.8616C104.007 64.1052 102.491 64.8341 101.62 63.9008C101.369 63.6112 100.324 61.9759 100.128 61.6522C99.6125 60.8303 96.7482 56.183 96.185 55.4092C95.9954 55.1589 95.7692 54.9115 95.6498 54.6185C95.2266 53.6635 96.0636 52.6356 97.0636 52.8938C97.2749 52.9578 97.4752 53.0671 97.6193 53.2104C97.7464 53.3256 97.8259 53.4889 97.9109 53.6297C98.0184 53.776 98.1315 53.8997 98.2305 54.0319C98.4881 54.3949 99.7998 56.5031 100.035 56.8605C101.242 56.1273 102.508 55.4927 103.74 54.8017C103.273 54.0276 102.8 53.276 102.36 52.4849C102.19 52.2034 102.057 51.9189 101.901 51.6289C101.856 51.5218 101.552 51.0518 101.516 50.9588C101.413 50.694 101.44 50.3891 101.506 50.1179C101.556 49.9145 101.705 49.7473 101.862 49.5943C102.052 49.4016 102.361 49.3099 102.631 49.2806C102.924 49.2568 103.2 49.3967 103.434 49.5622C103.745 49.7585 104.338 50.9949 104.511 51.3131C105.109 52.335 108.674 58.2691 109.314 59.2654C109.472 59.4962 109.468 59.8066 109.438 60.0749Z" fill="#1A1A1A"/>
<path d="M114.552 58.2846C114.246 58.4917 113.89 58.6262 113.531 58.6769C112.865 58.7829 112.131 58.6684 111.51 58.3919C110.726 58.0691 110.043 57.4525 109.591 56.7474C108.934 55.7359 108.702 54.3874 108.93 53.2012C109.076 52.5248 109.392 51.8588 109.834 51.2985C111.037 49.8152 113.275 49.4407 114.795 50.6045C115.141 50.861 115.825 51.6972 115.843 52.1326C115.835 52.1684 115.928 52.2815 115.952 52.3098C116.064 52.503 116.275 53.3323 116.296 53.5641C116.452 54.5922 116.277 55.7153 115.877 56.6714C115.589 57.3138 115.138 57.91 114.552 58.2846ZM112.898 56.2567C113.001 56.2662 113.117 56.2559 113.209 56.2174C113.361 56.1477 113.447 56.0093 113.532 55.8708C113.827 55.3283 113.94 54.6594 113.881 54.0478C113.87 53.7124 113.695 53.3985 113.649 53.0545C113.622 52.9424 113.388 52.6596 113.301 52.5785C113.184 52.437 112.986 52.3823 112.803 52.3916C112.377 52.3734 111.956 52.5908 111.668 52.9458C111.413 53.2933 111.306 53.7748 111.308 54.2138C111.306 55.1438 111.98 56.1515 112.898 56.2567Z" fill="#1A1A1A"/>
<path d="M121.018 57.8076C120.561 58.0128 119.988 58.0865 119.495 57.9383C119.097 57.8193 118.734 57.5556 118.459 57.2537C117.985 56.7097 117.733 55.9793 117.61 55.2825C117.287 53.5801 117.407 51.7867 117.681 50.0801C117.721 49.7701 117.795 49.4645 117.931 49.1837C118.451 48.1237 120.003 48.279 120.266 49.4258C120.305 49.6302 120.291 49.8608 120.231 50.0685C120.2 50.1806 120.138 50.272 120.121 50.4026C119.896 51.7339 119.795 53.1314 119.968 54.4654C120.006 54.8025 120.079 55.1275 120.203 55.4426C120.465 55.2117 120.671 54.9069 120.874 54.6184C120.938 54.5107 121.167 54.0264 121.215 53.9165C121.482 53.1386 121.671 52.3336 121.841 51.5428C121.894 51.2676 122.014 50.9846 122.206 50.7777C122.755 50.2527 123.654 50.3383 124.083 50.976C124.251 51.2139 124.31 51.5204 124.306 51.8021C124.306 52.4328 124.238 53.0712 124.273 53.6899C124.299 54.1248 124.495 55.5284 124.747 55.8771C124.763 55.8792 124.763 55.8792 124.763 55.8792C124.899 55.7311 125.022 55.5482 125.129 55.3632C125.8 54.1573 126.227 52.8028 126.374 51.428C126.415 51.1181 126.362 50.7626 126.484 50.4633C126.952 49.2969 128.664 49.49 128.849 50.7261C128.896 50.9978 128.769 52.0931 128.735 52.3541C128.485 53.7486 128.053 55.152 127.361 56.3884C127.079 56.8989 126.762 57.4213 126.33 57.8124C126.012 58.0858 125.632 58.3343 125.223 58.4296C124.864 58.515 124.469 58.496 124.12 58.3835C123.363 58.1008 122.74 57.4211 122.407 56.68C122.016 57.1427 121.563 57.5643 121.018 57.8076Z" fill="#1A1A1A"/>
<path d="M129.449 60.1526C129.198 60.2754 128.873 60.2396 128.62 60.1636C128.285 60.0694 128.012 59.7511 127.865 59.4341C127.789 59.2389 127.8 59.01 127.804 58.7961C127.843 58.5437 128.315 57.5113 128.399 57.2788C128.806 56.2716 129.228 55.2711 129.664 54.2773C129.864 53.8623 130.992 51.2138 131.178 50.7922C131.29 50.5362 131.987 48.9918 132.092 48.7508C132.163 48.5484 132.324 48.3859 132.494 48.245C132.642 48.1125 132.867 48.05 133.078 48.0176C133.296 47.9701 133.504 48.0262 133.706 48.0975C133.968 48.1952 134.179 48.4502 134.323 48.6937C134.452 48.9305 134.46 49.2396 134.407 49.5221C134.379 49.7077 134.034 50.454 133.946 50.613C133.628 51.3358 131.703 55.7178 131.394 56.4623C131.222 56.8538 130.271 59.221 130.099 59.6125C129.972 59.8619 129.716 60.0365 129.449 60.1526Z" fill="#1A1A1A"/>
<path d="M133.062 62.3531C132.321 62.0944 131.629 61.508 131.258 60.8057C130.974 60.2651 130.756 59.6302 130.802 59.0195C130.811 58.8051 130.916 58.5975 131.038 58.4223C131.222 58.1297 131.608 57.9787 131.955 57.9409C132.521 57.8761 133.151 58.3789 133.216 58.9464C133.251 59.212 133.326 59.5059 133.485 59.7378C133.653 59.9561 133.967 60.1367 134.185 59.9682C133.872 59.3265 133.425 58.7321 133.177 58.0554C132.902 57.3004 132.924 56.3514 133.291 55.6247C133.539 55.0962 134.05 54.6513 134.601 54.4355C135.074 54.2454 135.608 54.1982 136.116 54.2736C136.611 54.3396 137.101 54.5836 137.518 54.8761C138.132 55.2872 138.548 56.0407 138.736 56.7754C138.807 57.0464 138.732 57.3551 138.622 57.5991C138.526 57.7932 138.341 57.9443 138.174 58.0683C138.008 58.1923 137.779 58.2328 137.569 58.2463C137.291 58.272 136.998 58.1466 136.77 57.9862C136.649 57.9013 136.569 57.7854 136.49 57.6694C136.366 57.5023 136.362 57.2785 136.261 57.1073C136.139 56.8808 136.018 56.7959 135.783 56.7312C135.683 56.7016 135.515 56.6841 135.468 56.7515C135.407 56.8688 135.482 57.1627 135.515 57.2867C135.567 57.4431 135.993 58.1238 136.076 58.2626C136.369 58.7897 136.657 59.3532 136.707 59.9706C136.74 60.2955 136.687 60.6595 136.525 60.948C136.188 61.5749 135.566 62.1223 134.887 62.3489C134.309 62.5458 133.649 62.5445 133.062 62.3531Z" fill="#1A1A1A"/>
<path d="M89.9831 101.142C89.3482 100.471 88.7147 98.9802 89.1363 98.1624C89.6174 97.2344 90.9649 97.2974 91.3678 98.2579C91.4412 98.4304 91.4429 98.6181 91.4703 98.7852C91.5718 99.5233 92.4838 100.121 93.2138 100.171C93.7697 100.212 94.3421 100.01 94.8582 99.7884C94.3007 99.5596 93.7335 99.2125 93.4053 98.7174C93.1838 98.4106 93.0009 98.073 92.9258 97.7128C92.8281 97.2446 92.7791 96.7587 92.8685 96.2888C92.9606 95.7958 93.0885 95.2953 93.2931 94.8388C93.982 93.3258 95.0954 91.9794 96.2924 90.8184C96.5963 90.514 96.9564 90.2279 97.3669 90.1116C97.6338 90.0255 97.9383 90.1195 98.194 90.2313C98.3832 90.3118 98.5259 90.4924 98.6583 90.6601C98.8187 90.8896 98.8531 91.1982 98.8312 91.4885C98.8253 91.6401 98.753 91.7605 98.7139 91.8965C98.6079 92.1068 98.4021 92.2703 98.2118 92.4004C98.0859 92.4795 97.5683 93.0167 97.4729 93.1344C96.6435 94.0454 95.7931 95.0359 95.4006 96.2085C95.3069 96.5138 95.2078 96.8654 95.3242 97.1718C95.4079 97.3573 95.6432 97.4432 95.8352 97.5007C96.2624 97.6441 96.7416 97.6412 97.1929 97.5766C97.8827 97.4694 98.5403 97.1359 99.1517 96.797C99.7761 96.4479 100.294 95.9107 100.928 95.5745C101.152 95.46 101.434 95.4459 101.685 95.4985C102.655 95.6933 102.982 96.9028 102.269 97.6164C101.926 97.9514 101.492 98.1704 101.132 98.4565C99.9003 99.4143 98.6758 100.408 97.365 101.24C96.7739 101.604 96.1522 101.93 95.4925 102.182C94.6119 102.524 93.6424 102.728 92.7 102.595C91.6885 102.454 90.679 101.891 89.9831 101.142Z" fill="#1A1A1A"/>
<path d="M100.964 107.932C100.605 107.848 100.264 107.676 99.9839 107.446C99.4544 107.027 99.04 106.408 98.8215 105.763C98.5266 104.967 98.5148 104.045 98.7251 103.234C99.0199 102.063 99.8511 100.978 100.875 100.342C101.469 99.9897 102.171 99.7709 102.881 99.7165C104.784 99.5974 106.577 100.993 106.755 102.902C106.802 103.331 106.654 104.403 106.346 104.711C106.315 104.729 106.295 104.875 106.291 104.911C106.225 105.125 105.761 105.843 105.605 106.016C104.958 106.828 104.016 107.461 103.044 107.814C102.378 108.038 101.636 108.11 100.964 107.932ZM101.327 105.338C101.39 105.42 101.476 105.499 101.567 105.54C101.721 105.605 101.881 105.574 102.04 105.544C102.638 105.393 103.204 105.022 103.613 104.564C103.851 104.328 103.962 103.987 104.183 103.719C104.247 103.624 104.295 103.259 104.296 103.14C104.32 102.958 104.226 102.775 104.094 102.646C103.819 102.32 103.374 102.157 102.919 102.186C102.491 102.233 102.066 102.481 101.745 102.78C101.063 103.41 100.782 104.59 101.327 105.338Z" fill="#1A1A1A"/>
<path d="M113.551 111.612C113.445 112.474 112.471 112.917 111.723 112.5C111.49 112.361 111.287 112.127 111.181 111.854C111.097 111.622 111.11 111.351 111.134 111.1C110.639 111.379 110.078 111.587 109.519 111.624C109.187 111.643 108.838 111.606 108.529 111.494C108.126 111.354 107.745 111.084 107.486 110.747C106.996 110.1 106.735 109.263 106.687 108.458C106.631 107.168 107.006 105.872 107.367 104.623C107.481 104.245 107.652 103.85 107.892 103.511C108.056 103.251 108.394 103.096 108.699 103.051C109.724 102.95 110.455 104.05 109.897 104.929C109.613 105.358 109.218 107.233 109.164 107.75C109.125 108.219 109.135 108.755 109.374 109.155C110.348 109.107 111.508 107.483 111.931 106.597C112.034 106.37 112.475 105.249 112.636 105.057C113.398 104.068 114.958 104.749 114.821 105.997C114.8 106.18 114.716 106.343 114.648 106.512C114.191 107.628 114.031 108.835 113.83 110.012C113.735 110.55 113.625 111.084 113.551 111.612Z" fill="#1A1A1A"/>
<path d="M116.806 112.979C116.542 113.041 116.232 112.955 115.987 112.853C115.677 112.7 115.469 112.352 115.358 112.021C115.311 111.856 115.338 111.132 115.34 110.968C115.366 110.244 115.551 106.33 115.495 105.621C115.481 105.407 115.566 105.194 115.651 104.998C115.769 104.753 116.05 104.576 116.298 104.447C116.546 104.335 116.874 104.373 117.135 104.442C117.577 104.564 117.914 105.078 117.941 105.523C118.374 105.035 118.938 104.632 119.564 104.443C119.976 104.317 120.435 104.29 120.877 104.378C122.252 104.628 122.756 106.214 122.507 107.61C122.455 107.807 122.321 108.002 122.188 108.165C121.954 108.425 121.559 108.518 121.215 108.53C120.936 108.526 120.659 108.358 120.448 108.174C120.237 107.99 120.127 107.692 120.081 107.412C120.066 107.346 120.104 106.968 120.105 106.886C119.691 107.143 119.439 107.584 119.171 107.976C118.752 108.612 118.317 109.248 118.077 109.968C117.872 110.591 117.846 111.265 117.788 111.939C117.769 112.153 117.651 112.349 117.534 112.528C117.383 112.757 117.086 112.884 116.806 112.979Z" fill="#1A1A1A"/>
<path d="M132.453 111.05C131.74 111.56 130.885 111.897 130.019 112.079C129.69 112.144 129.303 112.109 129.014 111.926C128.769 111.761 128.552 111.495 128.485 111.202C128.472 111.172 128.449 110.986 128.436 110.955C128.157 110.323 126.528 106.636 126.271 106.013C126.076 105.541 124.944 102.627 124.735 102.162C124.722 102.132 124.638 101.971 124.61 101.947C124.473 101.701 124.481 101.377 124.545 101.101C124.594 100.832 124.795 100.588 125.021 100.405C125.184 100.284 125.409 100.226 125.625 100.19C125.892 100.15 126.186 100.259 126.426 100.409C126.702 100.562 126.864 100.868 126.99 101.172C127.293 100.53 127.733 99.9195 128.32 99.5335C128.728 99.2749 129.176 99.0708 129.66 98.9947C130.329 98.8949 131.049 99.0053 131.701 99.251C132.488 99.5654 133.184 100.132 133.734 100.776C134.114 101.223 134.422 101.754 134.663 102.296C134.999 103.065 135.219 103.899 135.247 104.742C135.311 106.23 134.964 107.799 134.19 109.064C133.739 109.821 133.16 110.525 132.453 111.05ZM128.958 103.489C128.962 105.518 129.665 107.524 130.446 109.372C130.849 109.187 131.221 108.926 131.509 108.592C132.619 107.366 133.057 105.545 132.654 103.967C132.498 103.373 132.216 102.777 131.815 102.321C131.543 102.006 131.21 101.717 130.824 101.557C130.588 101.459 130.329 101.389 130.076 101.422C129.273 101.542 128.964 102.686 128.958 103.489Z" fill="#1A1A1A"/>
<path d="M143.952 102.281C143.78 102.511 143.492 102.602 143.219 102.659C142.946 102.717 142.641 102.608 142.397 102.469C142.185 102.369 142.029 102.156 141.869 101.99C141.828 102.582 141.739 103.193 141.505 103.733C141.287 104.216 140.98 104.668 140.545 104.968C140.172 105.238 139.691 105.405 139.235 105.423C138.488 105.45 137.697 105.169 137.133 104.699C136.407 104.085 135.838 103.275 135.486 102.391C135.306 101.919 135.139 101.437 135.09 100.942C134.981 100.068 135.074 99.1531 135.381 98.316C135.644 97.5801 136.239 96.9089 136.936 96.5388C137.341 96.3062 137.807 96.1725 138.277 96.121C138.369 95.8722 138.577 95.6337 138.799 95.4899C139.034 95.3356 139.351 95.3055 139.629 95.3302C139.917 95.3676 140.19 95.5672 140.392 95.7838C140.51 95.8994 140.911 96.636 141.003 96.7728C141.777 98.0333 142.672 99.2345 143.683 100.318C143.788 100.444 143.931 100.538 144.024 100.675C144.19 100.9 144.302 101.214 144.288 101.505C144.274 101.795 144.134 102.063 143.952 102.281ZM139.058 102.954C139.081 102.956 139.127 102.96 139.153 102.939C139.283 102.787 139.314 102.568 139.353 102.385C139.472 101.835 139.393 101.279 139.312 100.746C139.189 100.034 139.017 99.341 138.82 98.6693C138.812 98.6335 138.722 98.602 138.688 98.5874C138.644 98.5601 138.467 98.5794 138.419 98.5984C138.194 98.6368 137.987 98.7468 137.844 98.9093C137.702 99.0719 137.635 99.2995 137.581 99.5167C137.485 99.9404 137.469 100.383 137.558 100.823C137.63 101.192 137.774 101.543 137.955 101.863C138.145 102.219 138.663 102.942 139.058 102.954Z" fill="#1A1A1A"/>
<path d="M152.976 98.4509C152.93 98.9123 152.788 99.3698 152.563 99.7732C151.993 100.736 150.559 100.62 150.259 99.5177C150.16 99.1579 150.217 98.8015 150.446 98.4801C150.563 98.3012 150.545 97.7582 150.489 97.5442C150.39 97.1844 150.256 96.8203 150.08 96.4885C149.826 96.0067 149.445 95.599 149.069 95.214C149.114 95.7157 149.059 96.2502 148.844 96.6992C148.602 97.1894 148.123 97.6223 147.606 97.8135C146.912 98.0655 146.101 98.0445 145.363 97.9135C144.178 97.6855 143.072 97.0371 142.083 96.3283C141.9 96.1883 140.934 95.4748 140.769 95.3073C140.618 95.1487 140.48 94.9992 140.337 94.8269C140.195 94.6546 140.148 94.4268 140.119 94.2307C140.071 93.9436 140.187 93.646 140.326 93.403C140.479 93.169 140.755 93.0162 141.019 92.9137C141.35 92.797 141.742 92.9171 142.039 93.0927C142.241 93.2052 142.352 93.4554 142.535 93.5954C143.451 94.2956 144.38 95.0641 145.48 95.3931C145.849 95.518 146.246 95.6016 146.623 95.5347C146.604 94.873 146.272 94.2412 145.93 93.6826C145.456 92.9378 144.863 92.2533 144.154 91.7478C143.788 91.4677 143.584 90.9992 143.667 90.5422C143.728 90.2085 143.971 89.8962 144.261 89.6931C144.478 89.5407 144.792 89.5109 145.069 89.536C145.311 89.5569 145.517 89.6922 145.709 89.8185C146.852 90.5306 148.013 91.2151 149.107 92.0325C150.298 92.9131 151.475 93.9626 152.218 95.2575C152.758 96.2026 153.095 97.3683 152.976 98.4509Z" fill="#1A1A1A"/>
<path d="M120.785 83.4331C120.592 83.4767 120.381 83.4808 120.14 83.459C120.355 83.4645 120.572 83.4563 120.785 83.4331Z" fill="#1A1A1A"/>
<path d="M135.269 73.5922C134.89 71.1454 133.654 69.0807 131.789 67.7778C128.843 65.7205 125.662 66.3822 124.758 66.6332C123.433 67.0022 122.243 67.7389 121.238 68.6714C120.974 68.9163 119.998 70.3139 119.707 70.3085C119.409 70.3023 119.012 69.4387 118.326 68.801C116.299 66.9176 113.375 66.0056 110.647 66.5125C107.353 67.123 104.523 69.7751 103.691 73.0302C103.599 73.393 103.526 73.7703 103.328 74.0888C102.937 74.7211 102.152 74.9769 101.418 75.0895C99.7844 75.3392 96.4735 75.0295 96.0593 77.2552C95.8376 78.4462 96.717 79.8289 97.2604 80.5465C98.0895 81.6406 99.2906 82.5874 100.734 83.2845C102.995 84.3764 105.342 84.7904 107.726 84.5197C107.975 84.4914 108.223 84.5933 108.375 84.7934C109.588 86.3893 111.146 88.1853 113.018 90.1474C114.997 92.2217 117.11 94.2483 119.297 96.1713L119.314 96.1861C119.522 96.3642 119.829 96.3581 120.029 96.1719C122.216 94.249 124.329 92.2224 126.308 90.1474C131.418 84.792 132.823 82.0826 133.285 81.1925C134.537 78.7798 135.718 76.5015 135.269 73.5922ZM119.816 73.5329C120.837 75.0267 122.13 77.4046 122.371 78.7484C122.539 79.6741 122.433 80.6338 121.634 81.245C121.012 81.7204 120.14 81.8241 119.405 81.5554C119.081 81.4373 118.778 81.2477 118.559 80.981C118.279 80.6393 118.156 80.1952 118.095 79.7573C117.945 78.6522 118.166 77.5431 118.525 76.4994C118.707 75.9653 118.929 75.4442 119.16 74.9306C119.219 74.8003 119.869 73.6093 119.816 73.5329ZM131.718 80.3753C131.286 81.2095 129.968 83.7498 125.031 88.923C123.468 90.5613 121.821 92.1702 120.117 93.7186C119.859 93.9534 119.466 93.9532 119.208 93.7183C117.505 92.1685 115.857 90.5607 114.295 88.923C112.193 86.7204 110.505 84.7416 109.276 83.0397L109.179 82.8968C109.026 82.6709 108.754 82.5576 108.487 82.6085L108.357 82.6331C106.025 83.0779 103.717 82.7593 101.5 81.6891C100.307 81.1133 99.3273 80.348 98.6669 79.4756C98.1345 78.772 97.8873 77.9377 97.8173 77.6684C97.8021 77.6098 97.7989 77.541 97.8501 77.509C98.501 77.1072 99.377 77.0465 100.303 76.9831C101.019 76.934 101.759 76.8835 102.474 76.6727C103.794 76.2832 104.753 75.5104 105.174 74.494C105.348 74.0745 105.414 73.6516 105.472 73.2791C105.499 73.095 105.527 72.9203 105.564 72.7607C105.667 72.3214 105.885 71.8678 106.21 71.4135C107.413 69.7355 109.359 68.5336 111.419 68.1987C112.617 68.0029 114.388 68.0186 116.02 69.2028C116.975 69.8953 117.667 70.702 118.377 71.6177C118.547 71.8374 118.565 72.1383 118.428 72.3805C117.001 74.9043 115.336 78.6482 116.787 81.3753C117.5 82.7129 119.026 83.5697 120.536 83.4755C123.151 83.3105 124.544 80.8453 124.11 78.434C123.749 76.4335 121.931 73.4035 120.905 72.0132C120.848 71.9367 120.846 71.8325 120.9 71.7546C122.187 69.9299 123.644 68.7812 125.229 68.3405C125.74 68.1987 128.406 67.5738 130.78 69.2314C132.757 70.612 133.347 72.7266 133.523 73.8644C133.867 76.0861 133.062 77.7853 131.718 80.3753Z" fill="#1A1A1A"/>
<path d="M124.869 66.2495C126.015 65.9673 129.103 65.4846 131.984 67.4963C133.933 68.8575 135.214 71.009 135.606 73.5393C136.075 76.5748 134.834 78.9504 133.589 81.3507C133.111 82.2708 131.687 85.0069 126.555 90.3847C124.569 92.4671 122.449 94.5003 120.254 96.4297L120.253 96.429C119.926 96.7272 119.428 96.7358 119.092 96.4464L119.074 96.4317L119.072 96.429C116.877 94.4997 114.758 92.4663 112.771 90.3847C110.893 88.4164 109.326 86.6102 108.103 85.0012C108.026 84.9004 107.898 84.8455 107.764 84.8606C105.314 85.1389 102.902 84.7117 100.585 83.5931C99.1945 82.9212 98.0118 82.0191 97.1552 80.9663L96.9883 80.7541C96.7082 80.3842 96.3357 79.8354 96.0609 79.218C95.7888 78.6067 95.5939 77.8872 95.7231 77.1926C95.9703 75.8644 97.0929 75.3353 98.21 75.0961C98.7762 74.9749 99.376 74.9195 99.9245 74.8785C100.484 74.8367 100.975 74.8104 101.367 74.7506L101.632 74.703C102.242 74.5767 102.77 74.3406 103.038 73.9082C103.2 73.6471 103.26 73.3389 103.36 72.9447C104.225 69.5605 107.16 66.81 110.585 66.1752C113.424 65.6477 116.456 66.5962 118.558 68.5496C118.929 68.8937 119.219 69.2971 119.435 69.5854C119.548 69.7365 119.634 69.8471 119.705 69.9202C119.706 69.9209 119.707 69.9216 119.707 69.9222C119.731 69.9015 119.76 69.8761 119.792 69.8445C119.915 69.7236 120.064 69.553 120.219 69.3651C120.374 69.1776 120.526 68.9851 120.662 68.8161C120.789 68.6587 120.917 68.5018 121.005 68.4197C122.042 67.4576 123.279 66.6894 124.666 66.3031L124.869 66.2495ZM131.594 68.0594C128.775 66.0912 125.722 66.7209 124.849 66.9633C123.587 67.315 122.443 68.0203 121.47 68.9232C121.426 68.9635 121.334 69.0733 121.194 69.2466C121.064 69.4082 120.904 69.6106 120.746 69.8024C120.587 69.9937 120.421 70.1875 120.271 70.3347C120.197 70.4077 120.117 70.4775 120.039 70.5315C119.977 70.5745 119.852 70.6542 119.7 70.6514C119.477 70.6467 119.31 70.4938 119.218 70.4003C119.11 70.2899 118.998 70.1431 118.889 69.9979C118.661 69.6934 118.41 69.3459 118.094 69.0524C116.142 67.2391 113.326 66.3635 110.71 66.8495C107.546 67.4358 104.821 69.9898 104.022 73.1155C103.938 73.4469 103.851 73.8935 103.618 74.2692C103.141 75.0397 102.217 75.3135 101.47 75.4282C101.044 75.4932 100.509 75.5222 99.9752 75.5621C99.4305 75.6028 98.8703 75.6556 98.3529 75.7663C97.3026 75.9912 96.5624 76.4209 96.3954 77.3184C96.3031 77.8147 96.4373 78.3819 96.6852 78.9388C96.9304 79.4897 97.2691 79.9913 97.5324 80.3389C98.3236 81.3831 99.4792 82.2982 100.882 82.9758C103.087 84.0409 105.371 84.442 107.687 84.179C108.052 84.1376 108.419 84.2863 108.646 84.5854C109.85 86.1683 111.399 87.9548 113.266 89.9106C115.237 91.9765 117.34 93.9953 119.519 95.9108L119.537 95.9255C119.612 95.9901 119.724 95.9882 119.796 95.9208L119.8 95.9175L119.804 95.9141C121.983 93.9977 124.089 91.9783 126.061 89.9106C131.15 84.5778 132.536 81.8941 132.982 81.034C134.24 78.6092 135.36 76.4277 134.93 73.6451L134.852 73.2065C134.428 71.1097 133.339 69.347 131.759 68.1779L131.594 68.0594ZM111.605 67.8251C112.846 67.6629 114.596 67.7467 116.22 68.9252C117.215 69.6467 117.931 70.4844 118.647 71.4074C118.904 71.7396 118.928 72.1905 118.725 72.5497C118.017 73.8017 117.261 75.3384 116.859 76.8879C116.456 78.4411 116.421 79.9585 117.088 81.2134L117.218 81.437C117.913 82.5281 119.225 83.2135 120.515 83.1331C122.874 82.984 124.181 80.7593 123.773 78.4949C123.603 77.5491 123.079 76.3302 122.455 75.1564C121.835 73.9892 121.133 72.8984 120.63 72.2176C120.488 72.0254 120.479 71.7592 120.621 71.5573L120.621 71.5567C121.938 69.6903 123.453 68.4781 125.138 68.0099C125.671 67.8618 128.47 67.2007 130.975 68.95C133.064 70.4088 133.679 72.6352 133.861 73.8118L133.892 74.0301C134.17 76.2722 133.317 78.0353 132.022 80.5338C131.601 81.3451 130.399 83.6513 126.166 88.2166L125.278 89.16C123.71 90.8041 122.056 92.4186 120.347 93.9723C119.958 94.3256 119.366 94.3258 118.978 93.9723C117.483 92.6116 116.03 91.2059 114.64 89.7747L114.048 89.16C111.939 86.9507 110.241 84.9596 108.999 83.2409L108.996 83.2369L108.993 83.2322L108.897 83.0896C108.82 82.9766 108.684 82.9202 108.55 82.9456L108.421 82.9697C106.014 83.4287 103.632 83.099 101.352 81.9982C100.12 81.4039 99.0942 80.6065 98.3949 79.6827C97.8215 78.925 97.56 78.0385 97.4863 77.755C97.4735 77.7059 97.4579 77.6253 97.4696 77.5347C97.4825 77.4354 97.5333 77.303 97.6692 77.218L97.6712 77.2173C98.4085 76.7623 99.3798 76.7025 100.28 76.6408C101.002 76.5913 101.704 76.542 102.378 76.3435C103.626 75.975 104.487 75.259 104.858 74.3622C105.015 73.9867 105.075 73.6032 105.134 73.2266C105.162 73.0431 105.191 72.857 105.231 72.6836L105.231 72.6822C105.347 72.1903 105.587 71.6959 105.932 71.2138C107.188 69.4611 109.216 68.21 111.363 67.8606L111.605 67.8251ZM115.82 69.4803C114.288 68.3693 112.622 68.3493 111.474 68.5368C109.503 68.8574 107.637 70.0105 106.487 71.6136L106.486 71.6129C106.182 72.0393 105.988 72.4531 105.897 72.8396L105.896 72.8389C105.863 72.984 105.837 73.1465 105.81 73.3304V73.3317C105.752 73.6999 105.682 74.1627 105.489 74.626C105.018 75.7616 103.961 76.5913 102.571 77.0017C101.814 77.2248 101.036 77.2764 100.326 77.3251C99.4598 77.3845 98.7354 77.4417 98.1866 77.7142C98.2848 78.0482 98.515 78.7079 98.939 79.2683L99.0592 79.4209C99.6779 80.1801 100.565 80.8578 101.648 81.3801C103.801 82.4198 106.036 82.7266 108.294 82.2961L108.423 82.272C108.824 82.1956 109.232 82.3651 109.462 82.7039L109.553 82.8385C110.77 84.5235 112.446 86.4902 114.542 88.686L115.13 89.2966C116.51 90.7175 117.953 92.1133 119.438 93.4648C119.565 93.5808 119.76 93.5808 119.888 93.4648C121.585 91.9218 123.227 90.3183 124.785 88.686L125.665 87.7506C129.859 83.2269 131.024 80.9702 131.415 80.2171C132.722 77.6972 133.462 76.1139 133.213 74.1118L133.185 73.917C133.015 72.818 132.449 70.8148 130.584 69.5124C128.343 67.9473 125.81 68.5349 125.321 68.6708C123.855 69.0783 122.475 70.1406 121.231 71.8807C121.75 72.5926 122.444 73.6774 123.058 74.8336C123.69 76.0223 124.256 77.3184 124.446 78.373C124.907 80.931 123.429 83.6361 120.557 83.8174C118.966 83.9166 117.365 83.0495 116.561 81.6721L116.485 81.5368C115.702 80.0647 115.774 78.3464 116.198 76.7151C116.622 75.0802 117.412 73.4832 118.131 72.2115C118.202 72.0863 118.19 71.9351 118.107 71.8279C117.402 70.9196 116.734 70.1438 115.82 69.4803ZM120.098 73.3391L120.296 73.6337C120.762 74.3433 121.264 75.1994 121.691 76.0415C122.174 76.9954 122.577 77.9631 122.708 78.6871L122.738 78.8719C122.87 79.8034 122.732 80.8359 121.841 81.5174C121.119 82.0693 120.123 82.1831 119.288 81.8776C118.966 81.7605 118.651 81.5767 118.399 81.3152L118.295 81.1987C117.956 80.7846 117.82 80.266 117.757 79.8046C117.596 78.6255 117.834 77.4575 118.201 76.3877C118.342 75.9762 118.505 75.5742 118.676 75.1805L118.849 74.7894C118.882 74.7157 119.073 74.3584 119.225 74.0569C119.306 73.8963 119.381 73.7431 119.431 73.6277C119.457 73.5689 119.472 73.5283 119.48 73.5052C119.484 73.4924 119.482 73.4961 119.48 73.5105C119.479 73.5177 119.476 73.5392 119.478 73.5681C119.48 73.5917 119.487 73.6572 119.534 73.7261L120.097 73.3371C120.097 73.3378 120.097 73.3384 120.098 73.3391ZM119.835 74.3662C119.752 74.5303 119.666 74.6959 119.598 74.8269C119.564 74.8928 119.534 74.9494 119.511 74.9936C119.5 75.0156 119.491 75.0337 119.484 75.0479C119.48 75.055 119.477 75.061 119.475 75.0653C119.473 75.069 119.473 75.0709 119.472 75.0713L119.472 75.072C119.242 75.5815 119.025 76.0914 118.847 76.6107C118.498 77.6279 118.294 78.6795 118.434 79.7102L118.458 79.8635C118.521 80.2154 118.63 80.5278 118.823 80.7634L118.891 80.8391C119.056 81.0107 119.276 81.1434 119.522 81.2328L119.522 81.2335C120.156 81.4654 120.904 81.3711 121.426 80.9724C122.074 80.4769 122.193 79.6838 122.035 78.8096C121.923 78.1899 121.56 77.2963 121.081 76.3522C120.715 75.63 120.291 74.8967 119.886 74.2618C119.869 74.2964 119.852 74.3316 119.835 74.3662Z" fill="#1A1A1A"/>
<path d="M110.929 76.8069C111.503 76.232 111.503 75.3 110.929 74.7251C110.356 74.1503 109.427 74.1503 108.854 74.7251C108.281 75.3 108.281 76.232 108.854 76.8069C109.427 77.3818 110.356 77.3818 110.929 76.8069Z" fill="#1A1A1A"/>
<path d="M109.438 60.0749C109.4 60.425 109.109 60.7366 108.814 60.9157C108.64 61.0406 108.421 61.0584 108.201 61.0763C107.923 61.0916 107.638 60.9376 107.418 60.7635C107.246 60.6372 107.163 60.4372 107.053 60.2542C106.784 59.8405 105.257 57.3437 105.016 56.9129C103.783 57.6039 102.531 58.2301 101.338 58.9547C101.61 59.4051 103.14 61.8427 103.468 62.259C103.606 62.4249 103.72 62.6445 103.774 62.8616C104.007 64.1052 102.491 64.8341 101.62 63.9008C101.369 63.6112 100.324 61.9759 100.128 61.6522C99.6125 60.8303 96.7482 56.183 96.185 55.4092C95.9954 55.1589 95.7692 54.9115 95.6498 54.6185C95.2266 53.6635 96.0636 52.6356 97.0636 52.8938C97.2749 52.9578 97.4752 53.0671 97.6193 53.2104C97.7464 53.3256 97.8259 53.4889 97.9109 53.6297C98.0184 53.776 98.1315 53.8997 98.2305 54.0319C98.4881 54.3949 99.7998 56.5031 100.035 56.8605C101.242 56.1273 102.508 55.4927 103.74 54.8017C103.273 54.0276 102.8 53.276 102.36 52.4849C102.19 52.2034 102.057 51.9189 101.901 51.6289C101.856 51.5218 101.552 51.0518 101.516 50.9588C101.413 50.694 101.44 50.3891 101.506 50.1179C101.556 49.9145 101.705 49.7473 101.862 49.5943C102.052 49.4016 102.361 49.3099 102.631 49.2806C102.924 49.2568 103.2 49.3967 103.434 49.5622C103.745 49.7585 104.338 50.9949 104.511 51.3131C105.109 52.335 108.674 58.2691 109.314 59.2654C109.472 59.4962 109.468 59.8066 109.438 60.0749Z" stroke="#E6E2DE" stroke-width="16" stroke-linejoin="round" mask="url(#path-4-outside-1_1195_444)"/>
<path d="M114.552 58.2846C114.246 58.4917 113.89 58.6262 113.531 58.6769C112.865 58.7829 112.131 58.6684 111.51 58.3919C110.726 58.0691 110.043 57.4525 109.591 56.7474C108.934 55.7359 108.702 54.3874 108.93 53.2012C109.076 52.5248 109.392 51.8588 109.834 51.2985C111.037 49.8152 113.275 49.4407 114.795 50.6045C115.141 50.861 115.825 51.6972 115.843 52.1326C115.835 52.1684 115.928 52.2815 115.952 52.3098C116.064 52.503 116.275 53.3323 116.296 53.5641C116.452 54.5922 116.277 55.7153 115.877 56.6714C115.589 57.3138 115.138 57.91 114.552 58.2846ZM112.898 56.2567C113.001 56.2662 113.117 56.2559 113.209 56.2174C113.361 56.1477 113.447 56.0093 113.532 55.8708C113.827 55.3283 113.94 54.6594 113.881 54.0478C113.87 53.7124 113.695 53.3985 113.649 53.0545C113.622 52.9424 113.388 52.6596 113.301 52.5785C113.184 52.437 112.986 52.3823 112.803 52.3916C112.377 52.3734 111.956 52.5908 111.668 52.9458C111.413 53.2933 111.306 53.7748 111.308 54.2138C111.306 55.1438 111.98 56.1515 112.898 56.2567Z" stroke="#E6E2DE" stroke-width="16" stroke-linejoin="round" mask="url(#path-4-outside-1_1195_444)"/>
<path d="M121.018 57.8076C120.561 58.0128 119.988 58.0865 119.495 57.9383C119.097 57.8193 118.734 57.5556 118.459 57.2537C117.985 56.7097 117.733 55.9793 117.61 55.2825C117.287 53.5801 117.407 51.7867 117.681 50.0801C117.721 49.7701 117.795 49.4645 117.931 49.1837C118.451 48.1237 120.003 48.279 120.266 49.4258C120.305 49.6302 120.291 49.8608 120.231 50.0685C120.2 50.1806 120.138 50.272 120.121 50.4026C119.896 51.7339 119.795 53.1314 119.968 54.4654C120.006 54.8025 120.079 55.1275 120.203 55.4426C120.465 55.2117 120.671 54.9069 120.874 54.6184C120.938 54.5107 121.167 54.0264 121.215 53.9165C121.482 53.1386 121.671 52.3336 121.841 51.5428C121.894 51.2676 122.014 50.9846 122.206 50.7777C122.755 50.2527 123.654 50.3383 124.083 50.976C124.251 51.2139 124.31 51.5204 124.306 51.8021C124.306 52.4328 124.238 53.0712 124.273 53.6899C124.299 54.1248 124.495 55.5284 124.747 55.8771C124.763 55.8792 124.763 55.8792 124.763 55.8792C124.899 55.7311 125.022 55.5482 125.129 55.3632C125.8 54.1573 126.227 52.8028 126.374 51.428C126.415 51.1181 126.362 50.7626 126.484 50.4633C126.952 49.2969 128.664 49.49 128.849 50.7261C128.896 50.9978 128.769 52.0931 128.735 52.3541C128.485 53.7486 128.053 55.152 127.361 56.3884C127.079 56.8989 126.762 57.4213 126.33 57.8124C126.012 58.0858 125.632 58.3343 125.223 58.4296C124.864 58.515 124.469 58.496 124.12 58.3835C123.363 58.1008 122.74 57.4211 122.407 56.68C122.016 57.1427 121.563 57.5643 121.018 57.8076Z" stroke="#E6E2DE" stroke-width="16" stroke-linejoin="round" mask="url(#path-4-outside-1_1195_444)"/>
<path d="M129.449 60.1526C129.198 60.2754 128.873 60.2396 128.62 60.1636C128.285 60.0694 128.012 59.7511 127.865 59.4341C127.789 59.2389 127.8 59.01 127.804 58.7961C127.843 58.5437 128.315 57.5113 128.399 57.2788C128.806 56.2716 129.228 55.2711 129.664 54.2773C129.864 53.8623 130.992 51.2138 131.178 50.7922C131.29 50.5362 131.987 48.9918 132.092 48.7508C132.163 48.5484 132.324 48.3859 132.494 48.245C132.642 48.1125 132.867 48.05 133.078 48.0176C133.296 47.9701 133.504 48.0262 133.706 48.0975C133.968 48.1952 134.179 48.4502 134.323 48.6937C134.452 48.9305 134.46 49.2396 134.407 49.5221C134.379 49.7077 134.034 50.454 133.946 50.613C133.628 51.3358 131.703 55.7178 131.394 56.4623C131.222 56.8538 130.271 59.221 130.099 59.6125C129.972 59.8619 129.716 60.0365 129.449 60.1526Z" stroke="#E6E2DE" stroke-width="16" stroke-linejoin="round" mask="url(#path-4-outside-1_1195_444)"/>
<path d="M133.062 62.3531C132.321 62.0944 131.629 61.508 131.258 60.8057C130.974 60.2651 130.756 59.6302 130.802 59.0195C130.811 58.8051 130.916 58.5975 131.038 58.4223C131.222 58.1297 131.608 57.9787 131.955 57.9409C132.521 57.8761 133.151 58.3789 133.216 58.9464C133.251 59.212 133.326 59.5059 133.485 59.7378C133.653 59.9561 133.967 60.1367 134.185 59.9682C133.872 59.3265 133.425 58.7321 133.177 58.0554C132.902 57.3004 132.924 56.3514 133.291 55.6247C133.539 55.0962 134.05 54.6513 134.601 54.4355C135.074 54.2454 135.608 54.1982 136.116 54.2736C136.611 54.3396 137.101 54.5836 137.518 54.8761C138.132 55.2872 138.548 56.0407 138.736 56.7754C138.807 57.0464 138.732 57.3551 138.622 57.5991C138.526 57.7932 138.341 57.9443 138.174 58.0683C138.008 58.1923 137.779 58.2328 137.569 58.2463C137.291 58.272 136.998 58.1466 136.77 57.9862C136.649 57.9013 136.569 57.7854 136.49 57.6694C136.366 57.5023 136.362 57.2785 136.261 57.1073C136.139 56.8808 136.018 56.7959 135.783 56.7312C135.683 56.7016 135.515 56.6841 135.468 56.7515C135.407 56.8688 135.482 57.1627 135.515 57.2867C135.567 57.4431 135.993 58.1238 136.076 58.2626C136.369 58.7897 136.657 59.3532 136.707 59.9706C136.74 60.2955 136.687 60.6595 136.525 60.948C136.188 61.5749 135.566 62.1223 134.887 62.3489C134.309 62.5458 133.649 62.5445 133.062 62.3531Z" stroke="#E6E2DE" stroke-width="16" stroke-linejoin="round" mask="url(#path-4-outside-1_1195_444)"/>
<path d="M89.9831 101.142C89.3482 100.471 88.7147 98.9802 89.1363 98.1624C89.6174 97.2344 90.9649 97.2974 91.3678 98.2579C91.4412 98.4304 91.4429 98.6181 91.4703 98.7852C91.5718 99.5233 92.4838 100.121 93.2138 100.171C93.7697 100.212 94.3421 100.01 94.8582 99.7884C94.3007 99.5596 93.7335 99.2125 93.4053 98.7174C93.1838 98.4106 93.0009 98.073 92.9258 97.7128C92.8281 97.2446 92.7791 96.7587 92.8685 96.2888C92.9606 95.7958 93.0885 95.2953 93.2931 94.8388C93.982 93.3258 95.0954 91.9794 96.2924 90.8184C96.5963 90.514 96.9564 90.2279 97.3669 90.1116C97.6338 90.0255 97.9383 90.1195 98.194 90.2313C98.3832 90.3118 98.5259 90.4924 98.6583 90.6601C98.8187 90.8896 98.8531 91.1982 98.8312 91.4885C98.8253 91.6401 98.753 91.7605 98.7139 91.8965C98.6079 92.1068 98.4021 92.2703 98.2118 92.4004C98.0859 92.4795 97.5683 93.0167 97.4729 93.1344C96.6435 94.0454 95.7931 95.0359 95.4006 96.2085C95.3069 96.5138 95.2078 96.8654 95.3242 97.1718C95.4079 97.3573 95.6432 97.4432 95.8352 97.5007C96.2624 97.6441 96.7416 97.6412 97.1929 97.5766C97.8827 97.4694 98.5403 97.1359 99.1517 96.797C99.7761 96.4479 100.294 95.9107 100.928 95.5745C101.152 95.46 101.434 95.4459 101.685 95.4985C102.655 95.6933 102.982 96.9028 102.269 97.6164C101.926 97.9514 101.492 98.1704 101.132 98.4565C99.9003 99.4143 98.6758 100.408 97.365 101.24C96.7739 101.604 96.1522 101.93 95.4925 102.182C94.6119 102.524 93.6424 102.728 92.7 102.595C91.6885 102.454 90.679 101.891 89.9831 101.142Z" stroke="#E6E2DE" stroke-width="16" stroke-linejoin="round" mask="url(#path-4-outside-1_1195_444)"/>
<path d="M100.964 107.932C100.605 107.848 100.264 107.676 99.9839 107.446C99.4544 107.027 99.04 106.408 98.8215 105.763C98.5266 104.967 98.5148 104.045 98.7251 103.234C99.0199 102.063 99.8511 100.978 100.875 100.342C101.469 99.9897 102.171 99.7709 102.881 99.7165C104.784 99.5974 106.577 100.993 106.755 102.902C106.802 103.331 106.654 104.403 106.346 104.711C106.315 104.729 106.295 104.875 106.291 104.911C106.225 105.125 105.761 105.843 105.605 106.016C104.958 106.828 104.016 107.461 103.044 107.814C102.378 108.038 101.636 108.11 100.964 107.932ZM101.327 105.338C101.39 105.42 101.476 105.499 101.567 105.54C101.721 105.605 101.881 105.574 102.04 105.544C102.638 105.393 103.204 105.022 103.613 104.564C103.851 104.328 103.962 103.987 104.183 103.719C104.247 103.624 104.295 103.259 104.296 103.14C104.32 102.958 104.226 102.775 104.094 102.646C103.819 102.32 103.374 102.157 102.919 102.186C102.491 102.233 102.066 102.481 101.745 102.78C101.063 103.41 100.782 104.59 101.327 105.338Z" stroke="#E6E2DE" stroke-width="16" stroke-linejoin="round" mask="url(#path-4-outside-1_1195_444)"/>
<path d="M113.551 111.612C113.445 112.474 112.471 112.917 111.723 112.5C111.49 112.361 111.287 112.127 111.181 111.854C111.097 111.622 111.11 111.351 111.134 111.1C110.639 111.379 110.078 111.587 109.519 111.624C109.187 111.643 108.838 111.606 108.529 111.494C108.126 111.354 107.745 111.084 107.486 110.747C106.996 110.1 106.735 109.263 106.687 108.458C106.631 107.168 107.006 105.872 107.367 104.623C107.481 104.245 107.652 103.85 107.892 103.511C108.056 103.251 108.394 103.096 108.699 103.051C109.724 102.95 110.455 104.05 109.897 104.929C109.613 105.358 109.218 107.233 109.164 107.75C109.125 108.219 109.135 108.755 109.374 109.155C110.348 109.107 111.508 107.483 111.931 106.597C112.034 106.37 112.475 105.249 112.636 105.057C113.398 104.068 114.958 104.749 114.821 105.997C114.8 106.18 114.716 106.343 114.648 106.512C114.191 107.628 114.031 108.835 113.83 110.012C113.735 110.55 113.625 111.084 113.551 111.612Z" stroke="#E6E2DE" stroke-width="16" stroke-linejoin="round" mask="url(#path-4-outside-1_1195_444)"/>
<path d="M116.806 112.979C116.542 113.041 116.232 112.955 115.987 112.853C115.677 112.7 115.469 112.352 115.358 112.021C115.311 111.856 115.338 111.132 115.34 110.968C115.366 110.244 115.551 106.33 115.495 105.621C115.481 105.407 115.566 105.194 115.651 104.998C115.769 104.753 116.05 104.576 116.298 104.447C116.546 104.335 116.874 104.373 117.135 104.442C117.577 104.564 117.914 105.078 117.941 105.523C118.374 105.035 118.938 104.632 119.564 104.443C119.976 104.317 120.435 104.29 120.877 104.378C122.252 104.628 122.756 106.214 122.507 107.61C122.455 107.807 122.321 108.002 122.188 108.165C121.954 108.425 121.559 108.518 121.215 108.53C120.936 108.526 120.659 108.358 120.448 108.174C120.237 107.99 120.127 107.692 120.081 107.412C120.066 107.346 120.104 106.968 120.105 106.886C119.691 107.143 119.439 107.584 119.171 107.976C118.752 108.612 118.317 109.248 118.077 109.968C117.872 110.591 117.846 111.265 117.788 111.939C117.769 112.153 117.651 112.349 117.534 112.528C117.383 112.757 117.086 112.884 116.806 112.979Z" stroke="#E6E2DE" stroke-width="16" stroke-linejoin="round" mask="url(#path-4-outside-1_1195_444)"/>
<path d="M132.453 111.05C131.74 111.56 130.885 111.897 130.019 112.079C129.69 112.144 129.303 112.109 129.014 111.926C128.769 111.761 128.552 111.495 128.485 111.202C128.472 111.172 128.449 110.986 128.436 110.955C128.157 110.323 126.528 106.636 126.271 106.013C126.076 105.541 124.944 102.627 124.735 102.162C124.722 102.132 124.638 101.971 124.61 101.947C124.473 101.701 124.481 101.377 124.545 101.101C124.594 100.832 124.795 100.588 125.021 100.405C125.184 100.284 125.409 100.226 125.625 100.19C125.892 100.15 126.186 100.259 126.426 100.409C126.702 100.562 126.864 100.868 126.99 101.172C127.293 100.53 127.733 99.9195 128.32 99.5335C128.728 99.2749 129.176 99.0708 129.66 98.9947C130.329 98.8949 131.049 99.0053 131.701 99.251C132.488 99.5654 133.184 100.132 133.734 100.776C134.114 101.223 134.422 101.754 134.663 102.296C134.999 103.065 135.219 103.899 135.247 104.742C135.311 106.23 134.964 107.799 134.19 109.064C133.739 109.821 133.16 110.525 132.453 111.05ZM128.958 103.489C128.962 105.518 129.665 107.524 130.446 109.372C130.849 109.187 131.221 108.926 131.509 108.592C132.619 107.366 133.057 105.545 132.654 103.967C132.498 103.373 132.216 102.777 131.815 102.321C131.543 102.006 131.21 101.717 130.824 101.557C130.588 101.459 130.329 101.389 130.076 101.422C129.273 101.542 128.964 102.686 128.958 103.489Z" stroke="#E6E2DE" stroke-width="16" stroke-linejoin="round" mask="url(#path-4-outside-1_1195_444)"/>
<path d="M143.952 102.281C143.78 102.511 143.492 102.602 143.219 102.659C142.946 102.717 142.641 102.608 142.397 102.469C142.185 102.369 142.029 102.156 141.869 101.99C141.828 102.582 141.739 103.193 141.505 103.733C141.287 104.216 140.98 104.668 140.545 104.968C140.172 105.238 139.691 105.405 139.235 105.423C138.488 105.45 137.697 105.169 137.133 104.699C136.407 104.085 135.838 103.275 135.486 102.391C135.306 101.919 135.139 101.437 135.09 100.942C134.981 100.068 135.074 99.1531 135.381 98.316C135.644 97.5801 136.239 96.9089 136.936 96.5388C137.341 96.3062 137.807 96.1725 138.277 96.121C138.369 95.8722 138.577 95.6337 138.799 95.4899C139.034 95.3356 139.351 95.3055 139.629 95.3302C139.917 95.3676 140.19 95.5672 140.392 95.7838C140.51 95.8994 140.911 96.636 141.003 96.7728C141.777 98.0333 142.672 99.2345 143.683 100.318C143.788 100.444 143.931 100.538 144.024 100.675C144.19 100.9 144.302 101.214 144.288 101.505C144.274 101.795 144.134 102.063 143.952 102.281ZM139.058 102.954C139.081 102.956 139.127 102.96 139.153 102.939C139.283 102.787 139.314 102.568 139.353 102.385C139.472 101.835 139.393 101.279 139.312 100.746C139.189 100.034 139.017 99.341 138.82 98.6693C138.812 98.6335 138.722 98.602 138.688 98.5874C138.644 98.5601 138.467 98.5794 138.419 98.5984C138.194 98.6368 137.987 98.7468 137.844 98.9093C137.702 99.0719 137.635 99.2995 137.581 99.5167C137.485 99.9404 137.469 100.383 137.558 100.823C137.63 101.192 137.774 101.543 137.955 101.863C138.145 102.219 138.663 102.942 139.058 102.954Z" stroke="#E6E2DE" stroke-width="16" stroke-linejoin="round" mask="url(#path-4-outside-1_1195_444)"/>
<path d="M152.976 98.4509C152.93 98.9123 152.788 99.3698 152.563 99.7732C151.993 100.736 150.559 100.62 150.259 99.5177C150.16 99.1579 150.217 98.8015 150.446 98.4801C150.563 98.3012 150.545 97.7582 150.489 97.5442C150.39 97.1844 150.256 96.8203 150.08 96.4885C149.826 96.0067 149.445 95.599 149.069 95.214C149.114 95.7157 149.059 96.2502 148.844 96.6992C148.602 97.1894 148.123 97.6223 147.606 97.8135C146.912 98.0655 146.101 98.0445 145.363 97.9135C144.178 97.6855 143.072 97.0371 142.083 96.3283C141.9 96.1883 140.934 95.4748 140.769 95.3073C140.618 95.1487 140.48 94.9992 140.337 94.8269C140.195 94.6546 140.148 94.4268 140.119 94.2307C140.071 93.9436 140.187 93.646 140.326 93.403C140.479 93.169 140.755 93.0162 141.019 92.9137C141.35 92.797 141.742 92.9171 142.039 93.0927C142.241 93.2052 142.352 93.4554 142.535 93.5954C143.451 94.2956 144.38 95.0641 145.48 95.3931C145.849 95.518 146.246 95.6016 146.623 95.5347C146.604 94.873 146.272 94.2412 145.93 93.6826C145.456 92.9378 144.863 92.2533 144.154 91.7478C143.788 91.4677 143.584 90.9992 143.667 90.5422C143.728 90.2085 143.971 89.8962 144.261 89.6931C144.478 89.5407 144.792 89.5109 145.069 89.536C145.311 89.5569 145.517 89.6922 145.709 89.8185C146.852 90.5306 148.013 91.2151 149.107 92.0325C150.298 92.9131 151.475 93.9626 152.218 95.2575C152.758 96.2026 153.095 97.3683 152.976 98.4509Z" stroke="#E6E2DE" stroke-width="16" stroke-linejoin="round" mask="url(#path-4-outside-1_1195_444)"/>
<path d="M120.785 83.4331C120.592 83.4767 120.381 83.4808 120.14 83.459C120.355 83.4645 120.572 83.4563 120.785 83.4331Z" stroke="#E6E2DE" stroke-width="16" stroke-linejoin="round" mask="url(#path-4-outside-1_1195_444)"/>
<path d="M135.269 73.5922C134.89 71.1454 133.654 69.0807 131.789 67.7778C128.843 65.7205 125.662 66.3822 124.758 66.6332C123.433 67.0022 122.243 67.7389 121.238 68.6714C120.974 68.9163 119.998 70.3139 119.707 70.3085C119.409 70.3023 119.012 69.4387 118.326 68.801C116.299 66.9176 113.375 66.0056 110.647 66.5125C107.353 67.123 104.523 69.7751 103.691 73.0302C103.599 73.393 103.526 73.7703 103.328 74.0888C102.937 74.7211 102.152 74.9769 101.418 75.0895C99.7844 75.3392 96.4735 75.0295 96.0593 77.2552C95.8376 78.4462 96.717 79.8289 97.2604 80.5465C98.0895 81.6406 99.2906 82.5874 100.734 83.2845C102.995 84.3764 105.342 84.7904 107.726 84.5197C107.975 84.4914 108.223 84.5933 108.375 84.7934C109.588 86.3893 111.146 88.1853 113.018 90.1474C114.997 92.2217 117.11 94.2483 119.297 96.1713L119.314 96.1861C119.522 96.3642 119.829 96.3581 120.029 96.1719C122.216 94.249 124.329 92.2224 126.308 90.1474C131.418 84.792 132.823 82.0826 133.285 81.1925C134.537 78.7798 135.718 76.5015 135.269 73.5922ZM119.816 73.5329C120.837 75.0267 122.13 77.4046 122.371 78.7484C122.539 79.6741 122.433 80.6338 121.634 81.245C121.012 81.7204 120.14 81.8241 119.405 81.5554C119.081 81.4373 118.778 81.2477 118.559 80.981C118.279 80.6393 118.156 80.1952 118.095 79.7573C117.945 78.6522 118.166 77.5431 118.525 76.4994C118.707 75.9653 118.929 75.4442 119.16 74.9306C119.219 74.8003 119.869 73.6093 119.816 73.5329ZM131.718 80.3753C131.286 81.2095 129.968 83.7498 125.031 88.923C123.468 90.5613 121.821 92.1702 120.117 93.7186C119.859 93.9534 119.466 93.9532 119.208 93.7183C117.505 92.1685 115.857 90.5607 114.295 88.923C112.193 86.7204 110.505 84.7416 109.276 83.0397L109.179 82.8968C109.026 82.6709 108.754 82.5576 108.487 82.6085L108.357 82.6331C106.025 83.0779 103.717 82.7593 101.5 81.6891C100.307 81.1133 99.3273 80.348 98.6669 79.4756C98.1345 78.772 97.8873 77.9377 97.8173 77.6684C97.8021 77.6098 97.7989 77.541 97.8501 77.509C98.501 77.1072 99.377 77.0465 100.303 76.9831C101.019 76.934 101.759 76.8835 102.474 76.6727C103.794 76.2832 104.753 75.5104 105.174 74.494C105.348 74.0745 105.414 73.6516 105.472 73.2791C105.499 73.095 105.527 72.9203 105.564 72.7607C105.667 72.3214 105.885 71.8678 106.21 71.4135C107.413 69.7355 109.359 68.5336 111.419 68.1987C112.617 68.0029 114.388 68.0186 116.02 69.2028C116.975 69.8953 117.667 70.702 118.377 71.6177C118.547 71.8374 118.565 72.1383 118.428 72.3805C117.001 74.9043 115.336 78.6482 116.787 81.3753C117.5 82.7129 119.026 83.5697 120.536 83.4755C123.151 83.3105 124.544 80.8453 124.11 78.434C123.749 76.4335 121.931 73.4035 120.905 72.0132C120.848 71.9367 120.846 71.8325 120.9 71.7546C122.187 69.9299 123.644 68.7812 125.229 68.3405C125.74 68.1987 128.406 67.5738 130.78 69.2314C132.757 70.612 133.347 72.7266 133.523 73.8644C133.867 76.0861 133.062 77.7853 131.718 80.3753Z" stroke="#E6E2DE" stroke-width="16" stroke-linejoin="round" mask="url(#path-4-outside-1_1195_444)"/>
<path d="M124.869 66.2495C126.015 65.9673 129.103 65.4846 131.984 67.4963C133.933 68.8575 135.214 71.009 135.606 73.5393C136.075 76.5748 134.834 78.9504 133.589 81.3507C133.111 82.2708 131.687 85.0069 126.555 90.3847C124.569 92.4671 122.449 94.5003 120.254 96.4297L120.253 96.429C119.926 96.7272 119.428 96.7358 119.092 96.4464L119.074 96.4317L119.072 96.429C116.877 94.4997 114.758 92.4663 112.771 90.3847C110.893 88.4164 109.326 86.6102 108.103 85.0012C108.026 84.9004 107.898 84.8455 107.764 84.8606C105.314 85.1389 102.902 84.7117 100.585 83.5931C99.1945 82.9212 98.0118 82.0191 97.1552 80.9663L96.9883 80.7541C96.7082 80.3842 96.3357 79.8354 96.0609 79.218C95.7888 78.6067 95.5939 77.8872 95.7231 77.1926C95.9703 75.8644 97.0929 75.3353 98.21 75.0961C98.7762 74.9749 99.376 74.9195 99.9245 74.8785C100.484 74.8367 100.975 74.8104 101.367 74.7506L101.632 74.703C102.242 74.5767 102.77 74.3406 103.038 73.9082C103.2 73.6471 103.26 73.3389 103.36 72.9447C104.225 69.5605 107.16 66.81 110.585 66.1752C113.424 65.6477 116.456 66.5962 118.558 68.5496C118.929 68.8937 119.219 69.2971 119.435 69.5854C119.548 69.7365 119.634 69.8471 119.705 69.9202C119.706 69.9209 119.707 69.9216 119.707 69.9222C119.731 69.9015 119.76 69.8761 119.792 69.8445C119.915 69.7236 120.064 69.553 120.219 69.3651C120.374 69.1776 120.526 68.9851 120.662 68.8161C120.789 68.6587 120.917 68.5018 121.005 68.4197C122.042 67.4576 123.279 66.6894 124.666 66.3031L124.869 66.2495ZM131.594 68.0594C128.775 66.0912 125.722 66.7209 124.849 66.9633C123.587 67.315 122.443 68.0203 121.47 68.9232C121.426 68.9635 121.334 69.0733 121.194 69.2466C121.064 69.4082 120.904 69.6106 120.746 69.8024C120.587 69.9937 120.421 70.1875 120.271 70.3347C120.197 70.4077 120.117 70.4775 120.039 70.5315C119.977 70.5745 119.852 70.6542 119.7 70.6514C119.477 70.6467 119.31 70.4938 119.218 70.4003C119.11 70.2899 118.998 70.1431 118.889 69.9979C118.661 69.6934 118.41 69.3459 118.094 69.0524C116.142 67.2391 113.326 66.3635 110.71 66.8495C107.546 67.4358 104.821 69.9898 104.022 73.1155C103.938 73.4469 103.851 73.8935 103.618 74.2692C103.141 75.0397 102.217 75.3135 101.47 75.4282C101.044 75.4932 100.509 75.5222 99.9752 75.5621C99.4305 75.6028 98.8703 75.6556 98.3529 75.7663C97.3026 75.9912 96.5624 76.4209 96.3954 77.3184C96.3031 77.8147 96.4373 78.3819 96.6852 78.9388C96.9304 79.4897 97.2691 79.9913 97.5324 80.3389C98.3236 81.3831 99.4792 82.2982 100.882 82.9758C103.087 84.0409 105.371 84.442 107.687 84.179C108.052 84.1376 108.419 84.2863 108.646 84.5854C109.85 86.1683 111.399 87.9548 113.266 89.9106C115.237 91.9765 117.34 93.9953 119.519 95.9108L119.537 95.9255C119.612 95.9901 119.724 95.9882 119.796 95.9208L119.8 95.9175L119.804 95.9141C121.983 93.9977 124.089 91.9783 126.061 89.9106C131.15 84.5778 132.536 81.8941 132.982 81.034C134.24 78.6092 135.36 76.4277 134.93 73.6451L134.852 73.2065C134.428 71.1097 133.339 69.347 131.759 68.1779L131.594 68.0594ZM111.605 67.8251C112.846 67.6629 114.596 67.7467 116.22 68.9252C117.215 69.6467 117.931 70.4844 118.647 71.4074C118.904 71.7396 118.928 72.1905 118.725 72.5497C118.017 73.8017 117.261 75.3384 116.859 76.8879C116.456 78.4411 116.421 79.9585 117.088 81.2134L117.218 81.437C117.913 82.5281 119.225 83.2135 120.515 83.1331C122.874 82.984 124.181 80.7593 123.773 78.4949C123.603 77.5491 123.079 76.3302 122.455 75.1564C121.835 73.9892 121.133 72.8984 120.63 72.2176C120.488 72.0254 120.479 71.7592 120.621 71.5573L120.621 71.5567C121.938 69.6903 123.453 68.4781 125.138 68.0099C125.671 67.8618 128.47 67.2007 130.975 68.95C133.064 70.4088 133.679 72.6352 133.861 73.8118L133.892 74.0301C134.17 76.2722 133.317 78.0353 132.022 80.5338C131.601 81.3451 130.399 83.6513 126.166 88.2166L125.278 89.16C123.71 90.8041 122.056 92.4186 120.347 93.9723C119.958 94.3256 119.366 94.3258 118.978 93.9723C117.483 92.6116 116.03 91.2059 114.64 89.7747L114.048 89.16C111.939 86.9507 110.241 84.9596 108.999 83.2409L108.996 83.2369L108.993 83.2322L108.897 83.0896C108.82 82.9766 108.684 82.9202 108.55 82.9456L108.421 82.9697C106.014 83.4287 103.632 83.099 101.352 81.9982C100.12 81.4039 99.0942 80.6065 98.3949 79.6827C97.8215 78.925 97.56 78.0385 97.4863 77.755C97.4735 77.7059 97.4579 77.6253 97.4696 77.5347C97.4825 77.4354 97.5333 77.303 97.6692 77.218L97.6712 77.2173C98.4085 76.7623 99.3798 76.7025 100.28 76.6408C101.002 76.5913 101.704 76.542 102.378 76.3435C103.626 75.975 104.487 75.259 104.858 74.3622C105.015 73.9867 105.075 73.6032 105.134 73.2266C105.162 73.0431 105.191 72.857 105.231 72.6836L105.231 72.6822C105.347 72.1903 105.587 71.6959 105.932 71.2138C107.188 69.4611 109.216 68.21 111.363 67.8606L111.605 67.8251ZM115.82 69.4803C114.288 68.3693 112.622 68.3493 111.474 68.5368C109.503 68.8574 107.637 70.0105 106.487 71.6136L106.486 71.6129C106.182 72.0393 105.988 72.4531 105.897 72.8396L105.896 72.8389C105.863 72.984 105.837 73.1465 105.81 73.3304V73.3317C105.752 73.6999 105.682 74.1627 105.489 74.626C105.018 75.7616 103.961 76.5913 102.571 77.0017C101.814 77.2248 101.036 77.2764 100.326 77.3251C99.4598 77.3845 98.7354 77.4417 98.1866 77.7142C98.2848 78.0482 98.515 78.7079 98.939 79.2683L99.0592 79.4209C99.6779 80.1801 100.565 80.8578 101.648 81.3801C103.801 82.4198 106.036 82.7266 108.294 82.2961L108.423 82.272C108.824 82.1956 109.232 82.3651 109.462 82.7039L109.553 82.8385C110.77 84.5235 112.446 86.4902 114.542 88.686L115.13 89.2966C116.51 90.7175 117.953 92.1133 119.438 93.4648C119.565 93.5808 119.76 93.5808 119.888 93.4648C121.585 91.9218 123.227 90.3183 124.785 88.686L125.665 87.7506C129.859 83.2269 131.024 80.9702 131.415 80.2171C132.722 77.6972 133.462 76.1139 133.213 74.1118L133.185 73.917C133.015 72.818 132.449 70.8148 130.584 69.5124C128.343 67.9473 125.81 68.5349 125.321 68.6708C123.855 69.0783 122.475 70.1406 121.231 71.8807C121.75 72.5926 122.444 73.6774 123.058 74.8336C123.69 76.0223 124.256 77.3184 124.446 78.373C124.907 80.931 123.429 83.6361 120.557 83.8174C118.966 83.9166 117.365 83.0495 116.561 81.6721L116.485 81.5368C115.702 80.0647 115.774 78.3464 116.198 76.7151C116.622 75.0802 117.412 73.4832 118.131 72.2115C118.202 72.0863 118.19 71.9351 118.107 71.8279C117.402 70.9196 116.734 70.1438 115.82 69.4803ZM120.098 73.3391L120.296 73.6337C120.762 74.3433 121.264 75.1994 121.691 76.0415C122.174 76.9954 122.577 77.9631 122.708 78.6871L122.738 78.8719C122.87 79.8034 122.732 80.8359 121.841 81.5174C121.119 82.0693 120.123 82.1831 119.288 81.8776C118.966 81.7605 118.651 81.5767 118.399 81.3152L118.295 81.1987C117.956 80.7846 117.82 80.266 117.757 79.8046C117.596 78.6255 117.834 77.4575 118.201 76.3877C118.342 75.9762 118.505 75.5742 118.676 75.1805L118.849 74.7894C118.882 74.7157 119.073 74.3584 119.225 74.0569C119.306 73.8963 119.381 73.7431 119.431 73.6277C119.457 73.5689 119.472 73.5283 119.48 73.5052C119.484 73.4924 119.482 73.4961 119.48 73.5105C119.479 73.5177 119.476 73.5392 119.478 73.5681C119.48 73.5917 119.487 73.6572 119.534 73.7261L120.097 73.3371C120.097 73.3378 120.097 73.3384 120.098 73.3391ZM119.835 74.3662C119.752 74.5303 119.666 74.6959 119.598 74.8269C119.564 74.8928 119.534 74.9494 119.511 74.9936C119.5 75.0156 119.491 75.0337 119.484 75.0479C119.48 75.055 119.477 75.061 119.475 75.0653C119.473 75.069 119.473 75.0709 119.472 75.0713L119.472 75.072C119.242 75.5815 119.025 76.0914 118.847 76.6107C118.498 77.6279 118.294 78.6795 118.434 79.7102L118.458 79.8635C118.521 80.2154 118.63 80.5278 118.823 80.7634L118.891 80.8391C119.056 81.0107 119.276 81.1434 119.522 81.2328L119.522 81.2335C120.156 81.4654 120.904 81.3711 121.426 80.9724C122.074 80.4769 122.193 79.6838 122.035 78.8096C121.923 78.1899 121.56 77.2963 121.081 76.3522C120.715 75.63 120.291 74.8967 119.886 74.2618C119.869 74.2964 119.852 74.3316 119.835 74.3662Z" stroke="#E6E2DE" stroke-width="16" stroke-linejoin="round" mask="url(#path-4-outside-1_1195_444)"/>
<path d="M110.929 76.8069C111.503 76.232 111.503 75.3 110.929 74.7251C110.356 74.1503 109.427 74.1503 108.854 74.7251C108.281 75.3 108.281 76.232 108.854 76.8069C109.427 77.3818 110.356 77.3818 110.929 76.8069Z" stroke="#E6E2DE" stroke-width="16" stroke-linejoin="round" mask="url(#path-4-outside-1_1195_444)"/>
</svg>
