<svg width="242" height="186" viewBox="0 0 242 186" fill="none" xmlns="http://www.w3.org/2000/svg">
<rect y="25.6309" width="242" height="160" rx="12" fill="#E6E2DE"/>
<path d="M76.2974 100.631L74.1534 92.5989L72.0094 100.631H69.5454L66.6014 89.1429H68.9694L70.8254 96.9349L72.9374 89.1429H75.4174L77.4654 96.9669L79.3374 89.1429H81.7214L78.7614 100.631H76.2974ZM85.7812 100.775C83.2212 100.775 81.5092 98.9989 81.5092 96.3269C81.5092 93.7829 83.2852 91.9269 85.7492 91.9269C88.4532 91.9269 90.2452 94.1189 89.8452 96.9029H83.7812C83.9252 98.2949 84.5972 99.0629 85.7332 99.0629C86.7092 99.0629 87.3652 98.5829 87.6212 97.7349H89.8292C89.3492 99.6709 87.8612 100.775 85.7812 100.775ZM85.7012 93.5589C84.6612 93.5589 84.0052 94.2309 83.8132 95.4949H87.4932C87.4292 94.3109 86.7572 93.5589 85.7012 93.5589ZM93.6783 90.8549C93.6783 92.5509 92.1103 93.7829 90.3343 93.5429V92.4389C91.2943 92.5509 91.9983 92.1989 92.2063 91.4469C92.0783 91.4949 91.9503 91.5109 91.8383 91.5109C91.1343 91.5109 90.6063 90.9829 90.6063 90.3109C90.6063 89.5589 91.1823 89.0309 92.0623 89.0309C93.0383 89.0309 93.6783 89.7189 93.6783 90.8549ZM97.2388 96.4869V100.631H95.0148V92.0869H97.0628V93.7349C97.6868 92.6469 99.0148 91.9909 100.391 91.9909V94.2949C98.5028 94.1509 97.2388 94.5989 97.2388 96.4869ZM105.036 100.775C102.476 100.775 100.764 98.9989 100.764 96.3269C100.764 93.7829 102.54 91.9269 105.004 91.9269C107.708 91.9269 109.5 94.1189 109.1 96.9029H103.036C103.18 98.2949 103.852 99.0629 104.988 99.0629C105.964 99.0629 106.62 98.5829 106.876 97.7349H109.084C108.604 99.6709 107.116 100.775 105.036 100.775ZM104.956 93.5589C103.916 93.5589 103.26 94.2309 103.068 95.4949H106.748C106.684 94.3109 106.012 93.5589 104.956 93.5589ZM116.237 100.631H113.805V89.1429H116.237V100.631ZM120.458 95.9749V100.631H118.234V92.0869H120.282V93.3029C120.906 92.4549 121.786 91.9269 122.906 91.9269C124.618 91.9269 125.802 93.0469 125.802 95.1109V100.631H123.594V95.8629C123.594 94.5989 123.098 93.8949 122.09 93.8949C121.21 93.8949 120.458 94.5989 120.458 95.9749ZM131.159 100.791C128.695 100.791 126.999 98.9669 126.999 96.3589C126.999 93.7989 128.759 91.9269 131.159 91.9269C133.383 91.9269 135.031 93.4309 135.303 95.7349H132.967C132.855 94.5989 132.167 93.8949 131.159 93.8949C130.007 93.8949 129.271 94.8389 129.271 96.3589C129.271 97.8949 129.991 98.8229 131.159 98.8229C132.183 98.8229 132.839 98.1509 132.967 96.9829H135.303C135.047 99.3349 133.447 100.791 131.159 100.791ZM140.315 100.791C137.835 100.791 135.979 98.8389 135.979 96.3589C135.979 93.8629 137.835 91.9269 140.315 91.9269C142.795 91.9269 144.651 93.8629 144.651 96.3589C144.651 98.8389 142.795 100.791 140.315 100.791ZM140.315 98.8229C141.419 98.8229 142.363 97.9429 142.363 96.3589C142.363 94.7749 141.419 93.9109 140.315 93.9109C139.211 93.9109 138.267 94.7749 138.267 96.3589C138.267 97.9429 139.211 98.8229 140.315 98.8229ZM149.386 103.879C147.082 103.879 145.546 102.631 145.45 100.663H147.594C147.69 101.639 148.314 102.151 149.37 102.151C150.602 102.151 151.242 101.495 151.242 100.263V99.0149C150.778 99.8309 149.898 100.311 148.858 100.311C146.762 100.311 145.194 98.5349 145.194 96.1189C145.194 93.6389 146.666 91.9269 148.778 91.9269C149.93 91.9269 150.794 92.3749 151.418 93.2549V92.0869H153.45V100.231C153.45 102.503 151.914 103.879 149.386 103.879ZM147.418 96.1189C147.418 97.5109 148.138 98.3909 149.29 98.3909C150.458 98.3909 151.226 97.4789 151.226 96.1349C151.226 94.7429 150.458 93.8469 149.29 93.8469C148.154 93.8469 147.418 94.7269 147.418 96.1189ZM157.521 95.9749V100.631H155.297V92.0869H157.345V93.3029C157.969 92.4549 158.849 91.9269 159.969 91.9269C161.681 91.9269 162.865 93.0469 162.865 95.1109V100.631H160.657V95.8629C160.657 94.5989 160.161 93.8949 159.153 93.8949C158.273 93.8949 157.521 94.5989 157.521 95.9749ZM167.198 90.1029C167.198 90.8549 166.59 91.4149 165.71 91.4149C164.846 91.4149 164.238 90.8549 164.238 90.1029C164.238 89.3189 164.846 88.7589 165.71 88.7589C166.59 88.7589 167.198 89.3189 167.198 90.1029ZM166.846 100.631H164.622V92.0869H166.846V100.631ZM173.977 98.4709V100.407C173.433 100.679 172.921 100.791 172.265 100.791C170.505 100.791 169.401 99.7829 169.401 97.8629V93.9909H167.673V92.0869H169.401V89.5589H171.609V92.0869H174.057V93.9909H171.609V97.3509C171.609 98.3429 172.057 98.7429 172.857 98.7429C173.273 98.7429 173.657 98.6469 173.977 98.4709ZM178.843 100.791C176.363 100.791 174.507 98.8389 174.507 96.3589C174.507 93.8629 176.363 91.9269 178.843 91.9269C181.323 91.9269 183.179 93.8629 183.179 96.3589C183.179 98.8389 181.323 100.791 178.843 100.791ZM178.843 98.8229C179.947 98.8229 180.891 97.9429 180.891 96.3589C180.891 94.7749 179.947 93.9109 178.843 93.9109C177.739 93.9109 176.795 94.7749 176.795 96.3589C176.795 97.9429 177.739 98.8229 178.843 98.8229Z" fill="#1A1A1A"/>
<path d="M47.1495 120.631H41.0595V110.579H42.5995V119.245H47.1495V120.631ZM51.172 120.771C49.072 120.771 47.532 119.119 47.532 116.921C47.532 114.723 49.072 113.071 51.172 113.071C53.272 113.071 54.812 114.723 54.812 116.921C54.812 119.119 53.272 120.771 51.172 120.771ZM51.172 119.525C52.39 119.525 53.356 118.545 53.356 116.921C53.356 115.297 52.39 114.331 51.172 114.331C49.954 114.331 49.002 115.297 49.002 116.921C49.002 118.545 49.954 119.525 51.172 119.525ZM58.8047 123.487C56.8587 123.487 55.5987 122.451 55.5147 120.771H56.8867C56.9707 121.807 57.6427 122.367 58.7907 122.367C60.0647 122.367 60.7367 121.681 60.7367 120.407V119.063C60.3167 119.959 59.4767 120.477 58.4687 120.477C56.6207 120.477 55.3047 118.951 55.3047 116.767C55.3047 114.555 56.5647 113.071 58.4267 113.071C59.4907 113.071 60.3307 113.589 60.8347 114.527V113.211H62.1507V120.379C62.1507 122.325 60.9047 123.487 58.8047 123.487ZM56.7327 116.767C56.7327 118.307 57.4887 119.245 58.7207 119.245C59.9247 119.245 60.7367 118.279 60.7367 116.809C60.7367 115.269 59.9387 114.289 58.7207 114.289C57.5027 114.289 56.7327 115.241 56.7327 116.767ZM66.9362 120.771C64.8362 120.771 63.2962 119.119 63.2962 116.921C63.2962 114.723 64.8362 113.071 66.9362 113.071C69.0362 113.071 70.5762 114.723 70.5762 116.921C70.5762 119.119 69.0362 120.771 66.9362 120.771ZM66.9362 119.525C68.1542 119.525 69.1202 118.545 69.1202 116.921C69.1202 115.297 68.1542 114.331 66.9362 114.331C65.7182 114.331 64.7662 115.297 64.7662 116.921C64.7662 118.545 65.7182 119.525 66.9362 119.525ZM77.6734 120.631H74.4954V110.579H77.6734C80.8794 110.579 82.7274 112.623 82.7274 115.563C82.7274 118.461 80.8094 120.631 77.6734 120.631ZM76.0354 111.909V119.301H77.6034C79.9134 119.301 81.1594 117.873 81.1594 115.563C81.1594 113.295 79.9274 111.909 77.6034 111.909H76.0354ZM86.9992 120.771C84.8572 120.771 83.4152 119.217 83.4152 116.879C83.4152 114.681 84.9132 113.071 86.9572 113.071C89.1692 113.071 90.6392 114.863 90.3872 117.271H84.8572C84.9692 118.783 85.7252 119.665 86.9712 119.665C88.0212 119.665 88.7492 119.091 88.9872 118.125H90.3872C90.0232 119.777 88.7492 120.771 86.9992 120.771ZM86.9292 114.135C85.7952 114.135 85.0252 114.947 84.8712 116.333H88.8892C88.8192 114.961 88.0772 114.135 86.9292 114.135ZM97.4905 118.419C97.4905 119.875 96.3565 120.771 94.3825 120.771C92.4225 120.771 91.2605 119.805 91.1205 118.209H92.4785C92.5345 119.133 93.2765 119.707 94.4105 119.707C95.4045 119.707 96.0625 119.357 96.0625 118.657C96.0625 118.041 95.6845 117.775 94.7605 117.593L93.5565 117.369C92.1845 117.103 91.4145 116.403 91.4145 115.283C91.4145 113.981 92.5485 113.071 94.2705 113.071C96.0485 113.071 97.2525 114.023 97.3785 115.549H96.0205C95.9365 114.653 95.2785 114.135 94.2845 114.135C93.3885 114.135 92.7865 114.513 92.7865 115.157C92.7865 115.759 93.1645 116.039 94.0605 116.207L95.3205 116.445C96.7905 116.711 97.4905 117.355 97.4905 118.419ZM100.476 111.489C100.476 112.021 100.056 112.427 99.4544 112.427C98.8524 112.427 98.4184 112.021 98.4184 111.489C98.4184 110.943 98.8524 110.551 99.4544 110.551C100.056 110.551 100.476 110.943 100.476 111.489ZM100.168 120.631H98.7544V113.211H100.168V120.631ZM104.819 123.487C102.873 123.487 101.613 122.451 101.529 120.771H102.901C102.985 121.807 103.657 122.367 104.805 122.367C106.079 122.367 106.751 121.681 106.751 120.407V119.063C106.331 119.959 105.491 120.477 104.483 120.477C102.635 120.477 101.319 118.951 101.319 116.767C101.319 114.555 102.579 113.071 104.441 113.071C105.505 113.071 106.345 113.589 106.849 114.527V113.211H108.165V120.379C108.165 122.325 106.919 123.487 104.819 123.487ZM102.747 116.767C102.747 118.307 103.503 119.245 104.735 119.245C105.939 119.245 106.751 118.279 106.751 116.809C106.751 115.269 105.953 114.289 104.735 114.289C103.517 114.289 102.747 115.241 102.747 116.767ZM111.257 116.445V120.631H109.843V113.211H111.159V114.443C111.663 113.617 112.503 113.071 113.525 113.071C115.051 113.071 116.059 114.051 116.059 115.829V120.631H114.645V116.305C114.645 115.031 114.085 114.317 113.035 114.317C112.069 114.317 111.257 115.129 111.257 116.445ZM119.575 120.029C119.575 121.359 118.525 122.395 116.985 122.423V121.625C117.895 121.597 118.511 121.107 118.595 120.421C118.469 120.463 118.385 120.477 118.287 120.477C117.755 120.477 117.363 120.043 117.363 119.525C117.363 118.923 117.811 118.531 118.385 118.531C119.155 118.531 119.575 119.091 119.575 120.029ZM130.883 117.747C130.883 119.581 129.539 120.631 127.453 120.631H123.771V110.579H127.257C129.287 110.579 130.505 111.517 130.505 113.211C130.505 114.163 129.931 114.975 128.965 115.395C130.211 115.745 130.883 116.599 130.883 117.747ZM127.159 111.811H125.185V114.835H127.159C128.377 114.835 129.035 114.261 129.035 113.323C129.035 112.385 128.377 111.811 127.159 111.811ZM127.355 116.067H125.185V119.399H127.355C128.671 119.399 129.413 118.769 129.413 117.705C129.413 116.683 128.671 116.067 127.355 116.067ZM133.68 116.837V120.631H132.266V113.211H133.582V114.779C134.1 113.757 135.22 113.113 136.438 113.113V114.583C134.842 114.499 133.68 115.199 133.68 116.837ZM141.771 120.631V119.483C141.309 120.309 140.483 120.771 139.391 120.771C137.851 120.771 136.843 119.889 136.843 118.531C136.843 117.075 138.005 116.319 140.217 116.319C140.651 116.319 141.001 116.333 141.603 116.403V115.857C141.603 114.793 141.029 114.191 140.049 114.191C139.013 114.191 138.383 114.807 138.341 115.843H137.053C137.123 114.177 138.313 113.071 140.049 113.071C141.883 113.071 142.947 114.107 142.947 115.871V120.631H141.771ZM138.187 118.489C138.187 119.259 138.761 119.763 139.671 119.763C140.861 119.763 141.603 119.021 141.603 117.887V117.285C141.057 117.215 140.665 117.201 140.301 117.201C138.887 117.201 138.187 117.621 138.187 118.489ZM145.971 116.445V120.631H144.557V113.211H145.873V114.443C146.377 113.617 147.217 113.071 148.239 113.071C149.765 113.071 150.773 114.051 150.773 115.829V120.631H149.359V116.305C149.359 115.031 148.799 114.317 147.749 114.317C146.783 114.317 145.971 115.129 145.971 116.445ZM151.839 116.921C151.839 114.667 153.127 113.071 155.129 113.071C156.123 113.071 156.991 113.575 157.509 114.485V110.579H158.923V120.631H157.607V119.301C157.075 120.239 156.179 120.771 155.129 120.771C153.127 120.771 151.839 119.147 151.839 116.921ZM153.309 116.921C153.309 118.573 154.177 119.511 155.409 119.511C156.613 119.511 157.509 118.531 157.509 116.893C157.509 115.227 156.585 114.317 155.409 114.317C154.177 114.317 153.309 115.241 153.309 116.921ZM164.906 120.631H163.366V110.579H164.906V120.631ZM166.161 116.921C166.161 114.667 167.449 113.071 169.451 113.071C170.445 113.071 171.313 113.575 171.831 114.485V110.579H173.245V120.631H171.929V119.301C171.397 120.239 170.501 120.771 169.451 120.771C167.449 120.771 166.161 119.147 166.161 116.921ZM167.631 116.921C167.631 118.573 168.499 119.511 169.731 119.511C170.935 119.511 171.831 118.531 171.831 116.893C171.831 115.227 170.907 114.317 169.731 114.317C168.499 114.317 167.631 115.241 167.631 116.921ZM177.983 120.771C175.841 120.771 174.399 119.217 174.399 116.879C174.399 114.681 175.897 113.071 177.941 113.071C180.153 113.071 181.623 114.863 181.371 117.271H175.841C175.953 118.783 176.709 119.665 177.955 119.665C179.005 119.665 179.733 119.091 179.971 118.125H181.371C181.007 119.777 179.733 120.771 177.983 120.771ZM177.913 114.135C176.779 114.135 176.009 114.947 175.855 116.333H179.873C179.803 114.961 179.061 114.135 177.913 114.135ZM184.008 116.445V120.631H182.594V113.211H183.91V114.443C184.414 113.617 185.254 113.071 186.276 113.071C187.802 113.071 188.81 114.051 188.81 115.829V120.631H187.396V116.305C187.396 115.031 186.836 114.317 185.786 114.317C184.82 114.317 184.008 115.129 184.008 116.445ZM194.567 119.259V120.505C194.133 120.701 193.755 120.771 193.307 120.771C191.935 120.771 190.983 120.029 190.983 118.391V114.415H189.345V113.211H190.983V111.013H192.397V113.211H194.637V114.415H192.397V118.069C192.397 119.091 192.887 119.455 193.643 119.455C193.979 119.455 194.273 119.399 194.567 119.259ZM197.428 111.489C197.428 112.021 197.008 112.427 196.406 112.427C195.804 112.427 195.37 112.021 195.37 111.489C195.37 110.943 195.804 110.551 196.406 110.551C197.008 110.551 197.428 110.943 197.428 111.489ZM197.12 120.631H195.706V113.211H197.12V120.631ZM202.989 119.259V120.505C202.555 120.701 202.177 120.771 201.729 120.771C200.357 120.771 199.405 120.029 199.405 118.391V114.415H197.767V113.211H199.405V111.013H200.819V113.211H203.059V114.415H200.819V118.069C200.819 119.091 201.309 119.455 202.065 119.455C202.401 119.455 202.695 119.399 202.989 119.259ZM210.288 113.211L206.578 123.333H205.038L206.102 120.533L203.176 113.211H204.702L206.858 118.867L208.86 113.211H210.288ZM54.2221 137.631H51.0441V127.579H54.2221C57.4281 127.579 59.2761 129.623 59.2761 132.563C59.2761 135.461 57.3581 137.631 54.2221 137.631ZM52.5841 128.909V136.301H54.1521C56.4621 136.301 57.7081 134.873 57.7081 132.563C57.7081 130.295 56.4761 128.909 54.1521 128.909H52.5841ZM63.5478 137.771C61.4058 137.771 59.9638 136.217 59.9638 133.879C59.9638 131.681 61.4618 130.071 63.5058 130.071C65.7178 130.071 67.1878 131.863 66.9358 134.271H61.4058C61.5178 135.783 62.2738 136.665 63.5198 136.665C64.5698 136.665 65.2978 136.091 65.5358 135.125H66.9358C66.5718 136.777 65.2978 137.771 63.5478 137.771ZM63.4778 131.135C62.3438 131.135 61.5738 131.947 61.4198 133.333H65.4378C65.3678 131.961 64.6258 131.135 63.4778 131.135ZM74.0392 135.419C74.0392 136.875 72.9052 137.771 70.9312 137.771C68.9712 137.771 67.8092 136.805 67.6692 135.209H69.0272C69.0832 136.133 69.8252 136.707 70.9592 136.707C71.9532 136.707 72.6112 136.357 72.6112 135.657C72.6112 135.041 72.2332 134.775 71.3092 134.593L70.1052 134.369C68.7332 134.103 67.9632 133.403 67.9632 132.283C67.9632 130.981 69.0972 130.071 70.8192 130.071C72.5972 130.071 73.8012 131.023 73.9272 132.549H72.5692C72.4852 131.653 71.8272 131.135 70.8332 131.135C69.9372 131.135 69.3352 131.513 69.3352 132.157C69.3352 132.759 69.7132 133.039 70.6092 133.207L71.8692 133.445C73.3392 133.711 74.0392 134.355 74.0392 135.419ZM77.025 128.489C77.025 129.021 76.605 129.427 76.003 129.427C75.401 129.427 74.967 129.021 74.967 128.489C74.967 127.943 75.401 127.551 76.003 127.551C76.605 127.551 77.025 127.943 77.025 128.489ZM76.717 137.631H75.303V130.211H76.717V137.631ZM81.368 140.487C79.422 140.487 78.162 139.451 78.078 137.771H79.45C79.534 138.807 80.206 139.367 81.354 139.367C82.628 139.367 83.3 138.681 83.3 137.407V136.063C82.88 136.959 82.04 137.477 81.032 137.477C79.184 137.477 77.868 135.951 77.868 133.767C77.868 131.555 79.128 130.071 80.99 130.071C82.054 130.071 82.894 130.589 83.398 131.527V130.211H84.714V137.379C84.714 139.325 83.468 140.487 81.368 140.487ZM79.296 133.767C79.296 135.307 80.052 136.245 81.284 136.245C82.488 136.245 83.3 135.279 83.3 133.809C83.3 132.269 82.502 131.289 81.284 131.289C80.066 131.289 79.296 132.241 79.296 133.767ZM87.8054 133.445V137.631H86.3914V130.211H87.7074V131.443C88.2114 130.617 89.0514 130.071 90.0734 130.071C91.5994 130.071 92.6074 131.051 92.6074 132.829V137.631H91.1934V133.305C91.1934 132.031 90.6334 131.317 89.5834 131.317C88.6174 131.317 87.8054 132.129 87.8054 133.445ZM96.1232 137.029C96.1232 138.359 95.0732 139.395 93.5332 139.423V138.625C94.4432 138.597 95.0592 138.107 95.1432 137.421C95.0172 137.463 94.9332 137.477 94.8352 137.477C94.3032 137.477 93.9112 137.043 93.9112 136.525C93.9112 135.923 94.3592 135.531 94.9332 135.531C95.7032 135.531 96.1232 136.091 96.1232 137.029ZM107.978 137.631L105.85 129.749L103.708 137.631H102.126L99.5077 127.579H101.02L102.952 135.321L105.066 127.579H106.662L108.748 135.335L110.68 127.579H112.192L109.574 137.631H107.978ZM115.599 137.771C113.457 137.771 112.015 136.217 112.015 133.879C112.015 131.681 113.513 130.071 115.557 130.071C117.769 130.071 119.239 131.863 118.987 134.271H113.457C113.569 135.783 114.325 136.665 115.571 136.665C116.621 136.665 117.349 136.091 117.587 135.125H118.987C118.623 136.777 117.349 137.771 115.599 137.771ZM115.529 131.135C114.395 131.135 113.625 131.947 113.471 133.333H117.489C117.419 131.961 116.677 131.135 115.529 131.135ZM127.294 133.921C127.294 136.147 126.006 137.771 124.004 137.771C122.954 137.771 122.058 137.239 121.526 136.301V137.631H120.21V127.579H121.624V131.485C122.142 130.575 122.996 130.071 124.004 130.071C125.992 130.071 127.294 131.667 127.294 133.921ZM125.824 133.921C125.824 132.241 124.942 131.317 123.724 131.317C122.548 131.317 121.624 132.227 121.624 133.893C121.624 135.531 122.52 136.511 123.724 136.511C124.942 136.511 125.824 135.573 125.824 133.921ZM134.328 135.419C134.328 136.875 133.194 137.771 131.22 137.771C129.26 137.771 128.098 136.805 127.958 135.209H129.316C129.372 136.133 130.114 136.707 131.248 136.707C132.242 136.707 132.9 136.357 132.9 135.657C132.9 135.041 132.522 134.775 131.598 134.593L130.394 134.369C129.022 134.103 128.252 133.403 128.252 132.283C128.252 130.981 129.386 130.071 131.108 130.071C132.886 130.071 134.09 131.023 134.216 132.549H132.858C132.774 131.653 132.116 131.135 131.122 131.135C130.226 131.135 129.624 131.513 129.624 132.157C129.624 132.759 130.002 133.039 130.898 133.207L132.158 133.445C133.628 133.711 134.328 134.355 134.328 135.419ZM137.314 128.489C137.314 129.021 136.894 129.427 136.292 129.427C135.69 129.427 135.256 129.021 135.256 128.489C135.256 127.943 135.69 127.551 136.292 127.551C136.894 127.551 137.314 127.943 137.314 128.489ZM137.006 137.631H135.592V130.211H137.006V137.631ZM142.875 136.259V137.505C142.441 137.701 142.063 137.771 141.615 137.771C140.243 137.771 139.291 137.029 139.291 135.391V131.415H137.653V130.211H139.291V128.013H140.705V130.211H142.945V131.415H140.705V135.069C140.705 136.091 141.195 136.455 141.951 136.455C142.287 136.455 142.581 136.399 142.875 136.259ZM146.861 137.771C144.719 137.771 143.277 136.217 143.277 133.879C143.277 131.681 144.775 130.071 146.819 130.071C149.031 130.071 150.501 131.863 150.249 134.271H144.719C144.831 135.783 145.587 136.665 146.833 136.665C147.883 136.665 148.611 136.091 148.849 135.125H150.249C149.885 136.777 148.611 137.771 146.861 137.771ZM146.791 131.135C145.657 131.135 144.887 131.947 144.733 133.333H148.751C148.681 131.961 147.939 131.135 146.791 131.135ZM157.408 137.631H154.23V127.579H157.408C160.614 127.579 162.462 129.623 162.462 132.563C162.462 135.461 160.544 137.631 157.408 137.631ZM155.77 128.909V136.301H157.338C159.648 136.301 160.894 134.873 160.894 132.563C160.894 130.295 159.662 128.909 157.338 128.909H155.77ZM166.734 137.771C164.592 137.771 163.15 136.217 163.15 133.879C163.15 131.681 164.648 130.071 166.692 130.071C168.904 130.071 170.374 131.863 170.122 134.271H164.592C164.704 135.783 165.46 136.665 166.706 136.665C167.756 136.665 168.484 136.091 168.722 135.125H170.122C169.758 136.777 168.484 137.771 166.734 137.771ZM166.664 131.135C165.53 131.135 164.76 131.947 164.606 133.333H168.624C168.554 131.961 167.812 131.135 166.664 131.135ZM177.225 135.419C177.225 136.875 176.091 137.771 174.117 137.771C172.157 137.771 170.995 136.805 170.855 135.209H172.213C172.269 136.133 173.011 136.707 174.145 136.707C175.139 136.707 175.797 136.357 175.797 135.657C175.797 135.041 175.419 134.775 174.495 134.593L173.291 134.369C171.919 134.103 171.149 133.403 171.149 132.283C171.149 130.981 172.283 130.071 174.005 130.071C175.783 130.071 176.987 131.023 177.113 132.549H175.755C175.671 131.653 175.013 131.135 174.019 131.135C173.123 131.135 172.521 131.513 172.521 132.157C172.521 132.759 172.899 133.039 173.795 133.207L175.055 133.445C176.525 133.711 177.225 134.355 177.225 135.419ZM180.211 128.489C180.211 129.021 179.791 129.427 179.189 129.427C178.587 129.427 178.153 129.021 178.153 128.489C178.153 127.943 178.587 127.551 179.189 127.551C179.791 127.551 180.211 127.943 180.211 128.489ZM179.903 137.631H178.489V130.211H179.903V137.631ZM184.554 140.487C182.608 140.487 181.348 139.451 181.264 137.771H182.636C182.72 138.807 183.392 139.367 184.54 139.367C185.814 139.367 186.486 138.681 186.486 137.407V136.063C186.066 136.959 185.226 137.477 184.218 137.477C182.37 137.477 181.054 135.951 181.054 133.767C181.054 131.555 182.314 130.071 184.176 130.071C185.24 130.071 186.08 130.589 186.584 131.527V130.211H187.9V137.379C187.9 139.325 186.654 140.487 184.554 140.487ZM182.482 133.767C182.482 135.307 183.238 136.245 184.47 136.245C185.674 136.245 186.486 135.279 186.486 133.809C186.486 132.269 185.688 131.289 184.47 131.289C183.252 131.289 182.482 132.241 182.482 133.767ZM190.991 133.445V137.631H189.577V130.211H190.893V131.443C191.397 130.617 192.237 130.071 193.259 130.071C194.785 130.071 195.793 131.051 195.793 132.829V137.631H194.379V133.305C194.379 132.031 193.819 131.317 192.769 131.317C191.803 131.317 190.991 132.129 190.991 133.445ZM199.309 137.029C199.309 138.359 198.259 139.395 196.719 139.423V138.625C197.629 138.597 198.245 138.107 198.329 137.421C198.203 137.463 198.119 137.477 198.021 137.477C197.489 137.477 197.097 137.043 197.097 136.525C197.097 135.923 197.545 135.531 198.119 135.531C198.889 135.531 199.309 136.091 199.309 137.029Z" fill="#1A1A1A"/>
<mask id="path-4-outside-1_0_1" maskUnits="userSpaceOnUse" x="41.166" y="0" width="160" height="56" fill="black">
<rect fill="white" x="41.166" width="160" height="56"/>
<path d="M83.6719 14.6729C86.7439 18.15 88.6083 22.7179 88.6084 27.7217C88.6084 38.6133 79.7783 47.4433 68.8867 47.4434C63.8829 47.4434 59.3141 45.5792 55.8369 42.5078L61.7949 36.5488C63.7991 38.1653 66.2753 39.0439 68.8867 39.0439C71.9109 39.0439 74.7541 37.8659 76.8926 35.7275C79.0311 33.589 80.209 30.746 80.209 27.7217C80.2089 25.1103 79.3312 22.634 77.7148 20.6299L83.6719 14.6729ZM120.406 30.0049C123.368 30.005 125.539 31.6884 125.858 34.2295H123.217C123.049 33.0011 121.887 32.1759 120.406 32.1758C118.505 32.1758 117.04 33.5059 117.04 36.0303C117.04 38.5545 118.505 39.8672 120.406 39.8672C121.921 39.8671 123.082 39.0425 123.284 37.8311H125.808C125.589 40.3551 123.418 42.0546 120.406 42.0547C117.209 42.0547 114.499 40.0017 114.499 36.0303C114.499 32.0587 117.259 30.0049 120.406 30.0049ZM132.378 30.0049C135.828 30.005 138.386 32.5636 138.386 36.0303C138.386 39.4968 135.828 42.0546 132.378 42.0547C128.911 42.0547 126.353 39.4969 126.353 36.0303C126.353 32.5635 128.911 30.0049 132.378 30.0049ZM144.986 30.0049C147.948 30.0049 150.068 31.7386 150.22 34.2627H147.713C147.528 33.0008 146.484 32.1759 144.97 32.1758C142.967 32.1758 141.419 33.5901 141.419 36.0303C141.419 38.4703 142.967 40.002 144.919 40.002C146.383 40.0019 147.83 38.9415 147.83 37.8477C147.83 37.5617 147.645 37.3761 147.359 37.376H145.087V35.4746H148.284C149.378 35.4746 150.186 36.3496 150.187 37.376V41.9199H147.948V40.1191C147.561 41.2803 146.315 42.0547 144.801 42.0547C141.789 42.0546 139.012 40.0521 139.012 36.0303C139.012 32.0082 141.873 30.0049 144.986 30.0049ZM181.54 30.0049C184.99 30.0051 187.548 32.5637 187.548 36.0303C187.548 39.4968 184.99 42.0545 181.54 42.0547C178.073 42.0547 175.515 39.4969 175.515 36.0303C175.515 32.5635 178.073 30.0049 181.54 30.0049ZM101.71 41.9199H99.1689V30.1396H101.71V41.9199ZM110.818 37.9316V30.1396H113.343V41.9199H110.65L105.922 34.1279V41.9199H103.397V30.1396H106.09L110.818 37.9316ZM159.007 37.9316V30.1396H161.531V41.9199H158.838L154.109 34.1279V41.9199H151.585V30.1396H154.277L159.007 37.9316ZM165.75 41.9199H163.209V30.1396H165.75V41.9199ZM175.969 32.3105H172.485V41.9199H169.961V32.3105H166.478V30.1396H175.969V32.3105ZM68.8867 8C73.8906 8.00002 78.4593 9.86443 81.9365 12.9365L75.9785 18.8936C73.9744 17.2772 71.498 16.3994 68.8867 16.3994C65.8624 16.3994 63.0194 17.5773 60.8809 19.7158C58.7425 21.8543 57.5645 24.6975 57.5645 27.7217C57.5645 30.3331 58.4431 32.8093 60.0596 34.8135L54.1006 40.7715C51.0286 37.2943 49.166 32.7255 49.166 27.7217C49.1661 16.8302 57.9952 8 68.8867 8ZM132.361 32.1758C130.342 32.1758 128.895 33.8257 128.895 36.0303C128.895 38.2347 130.342 39.8672 132.361 39.8672C134.381 39.867 135.845 38.2346 135.845 36.0303C135.845 33.8258 134.381 32.176 132.361 32.1758ZM181.522 32.1758C179.503 32.176 178.056 33.8258 178.056 36.0303C178.056 38.2346 179.503 39.867 181.522 39.8672C183.542 39.8672 185.007 38.2347 185.007 36.0303C185.007 33.8257 183.542 32.1758 181.522 32.1758ZM68.8867 18.8438C70.8953 18.8438 72.7491 19.5119 74.2363 20.6367L61.8018 33.0703C60.677 31.5831 60.0098 29.7302 60.0098 27.7217C60.0099 22.8187 63.9843 18.8438 68.8867 18.8438ZM190.567 25.2227C191.911 25.2227 193 26.312 193 27.6553C193 28.9985 191.911 30.0869 190.567 30.0869C189.224 30.0868 188.136 28.9984 188.136 27.6553C188.136 26.312 189.224 25.2228 190.567 25.2227ZM190.567 25.5186C189.388 25.5187 188.431 26.4754 188.431 27.6553C188.431 28.835 189.388 29.7909 190.567 29.791C191.747 29.791 192.704 28.8351 192.704 27.6553C192.704 26.4753 191.747 25.5186 190.567 25.5186ZM190.714 26.5645C191.184 26.5645 191.459 26.8541 191.459 27.2578C191.459 27.4787 191.351 27.6304 191.181 27.7188C191.323 27.8166 191.415 27.9716 191.434 28.1641L191.493 28.7725H191.02L190.96 28.2266C190.944 28.0753 190.837 27.9717 190.688 27.9717H190.26V28.7725H189.783V26.5645H190.714ZM190.26 27.5645H190.688C190.906 27.5645 191.001 27.4187 191.001 27.2578C191.001 27.1002 190.906 26.958 190.688 26.958H190.26V27.5645ZM103.156 21.6357L105.563 13.5742H107.7L110.124 21.6357L112.396 13.5742H114.954L111.47 25.3545H108.979L106.641 17.5127L104.301 25.3545H101.844L98.3438 13.5742H100.901L103.156 21.6357ZM123.799 15.7451H118.312V18.2363H122.688V20.4238H118.312V23.167H123.983V25.3545H115.788V13.5742H123.799V15.7451ZM134.402 13.5742C136.91 13.5742 138.374 15.1225 138.374 17.2764C138.374 18.4544 137.801 19.2622 136.893 19.7334C137.65 20.255 138.138 21.08 138.239 22.1064L138.559 25.3545H136.035L135.715 22.4434C135.631 21.6356 135.059 21.0801 134.268 21.0801H131.979V25.3545H129.438V13.5742H134.402ZM148.201 15.7451H142.715V18.2363H147.09V20.4238H142.715V23.167H148.386V25.3545H140.19V13.5742H148.201V15.7451ZM131.979 18.9092H134.268C135.429 18.9092 135.934 18.1346 135.934 17.2764C135.933 16.4351 135.429 15.6777 134.268 15.6777H131.979V18.9092ZM128.14 15.5254C128.14 17.1746 127.146 18.2012 125.413 18.2012H124.74V16.3672H125.026C125.548 16.367 125.8 15.9462 125.8 15.2734V13.4385H128.14V15.5254Z"/>
</mask>
<path d="M83.6719 14.6729C86.7439 18.15 88.6083 22.7179 88.6084 27.7217C88.6084 38.6133 79.7783 47.4433 68.8867 47.4434C63.8829 47.4434 59.3141 45.5792 55.8369 42.5078L61.7949 36.5488C63.7991 38.1653 66.2753 39.0439 68.8867 39.0439C71.9109 39.0439 74.7541 37.8659 76.8926 35.7275C79.0311 33.589 80.209 30.746 80.209 27.7217C80.2089 25.1103 79.3312 22.634 77.7148 20.6299L83.6719 14.6729ZM120.406 30.0049C123.368 30.005 125.539 31.6884 125.858 34.2295H123.217C123.049 33.0011 121.887 32.1759 120.406 32.1758C118.505 32.1758 117.04 33.5059 117.04 36.0303C117.04 38.5545 118.505 39.8672 120.406 39.8672C121.921 39.8671 123.082 39.0425 123.284 37.8311H125.808C125.589 40.3551 123.418 42.0546 120.406 42.0547C117.209 42.0547 114.499 40.0017 114.499 36.0303C114.499 32.0587 117.259 30.0049 120.406 30.0049ZM132.378 30.0049C135.828 30.005 138.386 32.5636 138.386 36.0303C138.386 39.4968 135.828 42.0546 132.378 42.0547C128.911 42.0547 126.353 39.4969 126.353 36.0303C126.353 32.5635 128.911 30.0049 132.378 30.0049ZM144.986 30.0049C147.948 30.0049 150.068 31.7386 150.22 34.2627H147.713C147.528 33.0008 146.484 32.1759 144.97 32.1758C142.967 32.1758 141.419 33.5901 141.419 36.0303C141.419 38.4703 142.967 40.002 144.919 40.002C146.383 40.0019 147.83 38.9415 147.83 37.8477C147.83 37.5617 147.645 37.3761 147.359 37.376H145.087V35.4746H148.284C149.378 35.4746 150.186 36.3496 150.187 37.376V41.9199H147.948V40.1191C147.561 41.2803 146.315 42.0547 144.801 42.0547C141.789 42.0546 139.012 40.0521 139.012 36.0303C139.012 32.0082 141.873 30.0049 144.986 30.0049ZM181.54 30.0049C184.99 30.0051 187.548 32.5637 187.548 36.0303C187.548 39.4968 184.99 42.0545 181.54 42.0547C178.073 42.0547 175.515 39.4969 175.515 36.0303C175.515 32.5635 178.073 30.0049 181.54 30.0049ZM101.71 41.9199H99.1689V30.1396H101.71V41.9199ZM110.818 37.9316V30.1396H113.343V41.9199H110.65L105.922 34.1279V41.9199H103.397V30.1396H106.09L110.818 37.9316ZM159.007 37.9316V30.1396H161.531V41.9199H158.838L154.109 34.1279V41.9199H151.585V30.1396H154.277L159.007 37.9316ZM165.75 41.9199H163.209V30.1396H165.75V41.9199ZM175.969 32.3105H172.485V41.9199H169.961V32.3105H166.478V30.1396H175.969V32.3105ZM68.8867 8C73.8906 8.00002 78.4593 9.86443 81.9365 12.9365L75.9785 18.8936C73.9744 17.2772 71.498 16.3994 68.8867 16.3994C65.8624 16.3994 63.0194 17.5773 60.8809 19.7158C58.7425 21.8543 57.5645 24.6975 57.5645 27.7217C57.5645 30.3331 58.4431 32.8093 60.0596 34.8135L54.1006 40.7715C51.0286 37.2943 49.166 32.7255 49.166 27.7217C49.1661 16.8302 57.9952 8 68.8867 8ZM132.361 32.1758C130.342 32.1758 128.895 33.8257 128.895 36.0303C128.895 38.2347 130.342 39.8672 132.361 39.8672C134.381 39.867 135.845 38.2346 135.845 36.0303C135.845 33.8258 134.381 32.176 132.361 32.1758ZM181.522 32.1758C179.503 32.176 178.056 33.8258 178.056 36.0303C178.056 38.2346 179.503 39.867 181.522 39.8672C183.542 39.8672 185.007 38.2347 185.007 36.0303C185.007 33.8257 183.542 32.1758 181.522 32.1758ZM68.8867 18.8438C70.8953 18.8438 72.7491 19.5119 74.2363 20.6367L61.8018 33.0703C60.677 31.5831 60.0098 29.7302 60.0098 27.7217C60.0099 22.8187 63.9843 18.8438 68.8867 18.8438ZM190.567 25.2227C191.911 25.2227 193 26.312 193 27.6553C193 28.9985 191.911 30.0869 190.567 30.0869C189.224 30.0868 188.136 28.9984 188.136 27.6553C188.136 26.312 189.224 25.2228 190.567 25.2227ZM190.567 25.5186C189.388 25.5187 188.431 26.4754 188.431 27.6553C188.431 28.835 189.388 29.7909 190.567 29.791C191.747 29.791 192.704 28.8351 192.704 27.6553C192.704 26.4753 191.747 25.5186 190.567 25.5186ZM190.714 26.5645C191.184 26.5645 191.459 26.8541 191.459 27.2578C191.459 27.4787 191.351 27.6304 191.181 27.7188C191.323 27.8166 191.415 27.9716 191.434 28.1641L191.493 28.7725H191.02L190.96 28.2266C190.944 28.0753 190.837 27.9717 190.688 27.9717H190.26V28.7725H189.783V26.5645H190.714ZM190.26 27.5645H190.688C190.906 27.5645 191.001 27.4187 191.001 27.2578C191.001 27.1002 190.906 26.958 190.688 26.958H190.26V27.5645ZM103.156 21.6357L105.563 13.5742H107.7L110.124 21.6357L112.396 13.5742H114.954L111.47 25.3545H108.979L106.641 17.5127L104.301 25.3545H101.844L98.3438 13.5742H100.901L103.156 21.6357ZM123.799 15.7451H118.312V18.2363H122.688V20.4238H118.312V23.167H123.983V25.3545H115.788V13.5742H123.799V15.7451ZM134.402 13.5742C136.91 13.5742 138.374 15.1225 138.374 17.2764C138.374 18.4544 137.801 19.2622 136.893 19.7334C137.65 20.255 138.138 21.08 138.239 22.1064L138.559 25.3545H136.035L135.715 22.4434C135.631 21.6356 135.059 21.0801 134.268 21.0801H131.979V25.3545H129.438V13.5742H134.402ZM148.201 15.7451H142.715V18.2363H147.09V20.4238H142.715V23.167H148.386V25.3545H140.19V13.5742H148.201V15.7451ZM131.979 18.9092H134.268C135.429 18.9092 135.934 18.1346 135.934 17.2764C135.933 16.4351 135.429 15.6777 134.268 15.6777H131.979V18.9092ZM128.14 15.5254C128.14 17.1746 127.146 18.2012 125.413 18.2012H124.74V16.3672H125.026C125.548 16.367 125.8 15.9462 125.8 15.2734V13.4385H128.14V15.5254Z" fill="#1A1A1A"/>
<path d="M83.6719 14.6729L89.6672 9.37606C88.2056 7.72172 86.1254 6.74485 83.919 6.67667C81.7125 6.60849 79.576 7.45506 78.015 9.016L83.6719 14.6729ZM88.6084 27.7217H96.6084V27.7216L88.6084 27.7217ZM68.8867 47.4434V55.4434H68.8868L68.8867 47.4434ZM55.8369 42.5078L50.1796 36.8514C48.6188 38.4125 47.7724 40.5492 47.8408 42.7556C47.9091 44.9621 48.8862 47.0422 50.5407 48.5037L55.8369 42.5078ZM61.7949 36.5488L66.8174 30.3219C63.6348 27.7549 59.0286 28.0009 56.1376 30.8924L61.7949 36.5488ZM68.8867 39.0439V47.0439H68.8868L68.8867 39.0439ZM76.8926 35.7275L82.5493 41.3845L82.5494 41.3844L76.8926 35.7275ZM80.209 27.7217H88.209V27.7215L80.209 27.7217ZM77.7148 20.6299L72.058 14.973C69.1669 17.8641 68.921 22.4699 71.4879 25.6523L77.7148 20.6299ZM120.406 30.0049L120.407 22.0049H120.406V30.0049ZM125.858 34.2295V42.2295C128.154 42.2295 130.339 41.2432 131.858 39.5215C133.377 37.7997 134.082 35.5086 133.796 33.2307L125.858 34.2295ZM123.217 34.2295L115.291 35.3152C115.834 39.277 119.218 42.2295 123.217 42.2295V34.2295ZM120.406 32.1758L120.407 24.1758H120.406V32.1758ZM117.04 36.0303H109.04V36.0305L117.04 36.0303ZM120.406 39.8672V47.8672H120.407L120.406 39.8672ZM123.284 37.8311V29.8311C119.374 29.8311 116.036 32.6579 115.393 36.515L123.284 37.8311ZM125.808 37.8311L133.778 38.5224C133.971 36.2889 133.219 34.0765 131.704 32.4241C130.189 30.7718 128.05 29.8311 125.808 29.8311V37.8311ZM120.406 42.0547V50.0547H120.407L120.406 42.0547ZM114.499 36.0303H106.499V36.0305L114.499 36.0303ZM132.378 30.0049L132.378 22.0049H132.378V30.0049ZM138.386 36.0303L146.386 36.0305V36.0303H138.386ZM132.378 42.0547V50.0547H132.378L132.378 42.0547ZM126.353 36.0303H118.353V36.0305L126.353 36.0303ZM144.986 30.0049L144.986 22.0049H144.986V30.0049ZM150.22 34.2627V42.2627C152.425 42.2627 154.532 41.3526 156.044 39.7473C157.555 38.1421 158.338 35.984 158.205 33.783L150.22 34.2627ZM147.713 34.2627L139.798 35.4244C140.374 39.3519 143.743 42.2627 147.713 42.2627V34.2627ZM144.97 32.1758L144.97 24.1758H144.97V32.1758ZM141.419 36.0303H133.419V36.0306L141.419 36.0303ZM144.919 40.002V48.002H144.919L144.919 40.002ZM147.83 37.8477L155.83 37.8483V37.8477H147.83ZM147.359 37.376L147.363 29.376H147.359V37.376ZM145.087 37.376H137.087C137.087 41.7943 140.669 45.376 145.087 45.376V37.376ZM145.087 35.4746V27.4746C140.669 27.4746 137.087 31.0563 137.087 35.4746H145.087ZM150.187 37.376H158.187V37.3744L150.187 37.376ZM150.187 41.9199V49.9199C154.605 49.9199 158.187 46.3382 158.187 41.9199H150.187ZM147.948 41.9199H139.948C139.948 46.3382 143.53 49.9199 147.948 49.9199V41.9199ZM147.948 40.1191H155.948C155.948 36.1955 153.103 32.8509 149.23 32.2224C145.357 31.5939 141.6 33.867 140.359 37.5893L147.948 40.1191ZM144.801 42.0547L144.8 50.0547H144.801V42.0547ZM139.012 36.0303H131.012V36.0305L139.012 36.0303ZM181.54 30.0049L181.541 22.0049H181.54V30.0049ZM187.548 36.0303L195.548 36.0305V36.0303H187.548ZM181.54 42.0547V50.0547H181.541L181.54 42.0547ZM175.515 36.0303H167.515V36.0305L175.515 36.0303ZM101.71 41.9199V49.9199C106.128 49.9199 109.71 46.3382 109.71 41.9199H101.71ZM99.1689 41.9199H91.1689C91.1689 46.3382 94.7507 49.9199 99.1689 49.9199V41.9199ZM99.1689 30.1396V22.1396C94.7507 22.1396 91.1689 25.7214 91.1689 30.1396H99.1689ZM101.71 30.1396H109.71C109.71 25.7214 106.128 22.1396 101.71 22.1396V30.1396ZM110.818 37.9316L103.979 42.082C105.841 45.1497 109.517 46.6025 112.973 45.636C116.429 44.6694 118.818 41.52 118.818 37.9316H110.818ZM110.818 30.1396V22.1396C106.4 22.1396 102.818 25.7214 102.818 30.1396H110.818ZM113.343 30.1396H121.343C121.343 25.7214 117.761 22.1396 113.343 22.1396V30.1396ZM113.343 41.9199V49.9199C117.761 49.9199 121.343 46.3382 121.343 41.9199H113.343ZM110.65 41.9199L103.811 46.0702C105.262 48.4604 107.855 49.9199 110.65 49.9199V41.9199ZM105.922 34.1279L112.761 29.9776C110.899 26.9099 107.223 25.4571 103.767 26.4236C100.311 27.3901 97.9219 30.5395 97.9219 34.1279H105.922ZM105.922 41.9199V49.9199C110.34 49.9199 113.922 46.3382 113.922 41.9199H105.922ZM103.397 41.9199H95.3975C95.3975 46.3382 98.9792 49.9199 103.397 49.9199V41.9199ZM103.397 30.1396V22.1396C98.9792 22.1396 95.3975 25.7214 95.3975 30.1396H103.397ZM106.09 30.1396L112.929 25.9893C111.479 23.5992 108.886 22.1396 106.09 22.1396V30.1396ZM159.007 37.9316L152.168 42.0826C154.03 45.15 157.706 46.6025 161.162 45.6359C164.618 44.6692 167.007 41.5199 167.007 37.9316H159.007ZM159.007 30.1396V22.1396C154.589 22.1396 151.007 25.7214 151.007 30.1396H159.007ZM161.531 30.1396H169.531C169.531 25.7214 165.95 22.1396 161.531 22.1396V30.1396ZM161.531 41.9199V49.9199C165.95 49.9199 169.531 46.3382 169.531 41.9199H161.531ZM158.838 41.9199L151.999 46.0702C153.449 48.4604 156.042 49.9199 158.838 49.9199V41.9199ZM154.109 34.1279L160.949 29.9776C159.087 26.9099 155.41 25.4571 151.955 26.4236C148.499 27.3901 146.109 30.5395 146.109 34.1279H154.109ZM154.109 41.9199V49.9199C158.528 49.9199 162.109 46.3382 162.109 41.9199H154.109ZM151.585 41.9199H143.585C143.585 46.3382 147.167 49.9199 151.585 49.9199V41.9199ZM151.585 30.1396V22.1396C147.167 22.1396 143.585 25.7214 143.585 30.1396H151.585ZM154.277 30.1396L161.116 25.9887C159.666 23.5989 157.073 22.1396 154.277 22.1396V30.1396ZM165.75 41.9199V49.9199C170.168 49.9199 173.75 46.3382 173.75 41.9199H165.75ZM163.209 41.9199H155.209C155.209 46.3382 158.791 49.9199 163.209 49.9199V41.9199ZM163.209 30.1396V22.1396C158.791 22.1396 155.209 25.7214 155.209 30.1396H163.209ZM165.75 30.1396H173.75C173.75 25.7214 170.168 22.1396 165.75 22.1396V30.1396ZM175.969 32.3105V40.3105C180.387 40.3105 183.969 36.7288 183.969 32.3105H175.969ZM172.485 32.3105V24.3105C168.067 24.3105 164.485 27.8923 164.485 32.3105H172.485ZM172.485 41.9199V49.9199C176.904 49.9199 180.485 46.3382 180.485 41.9199H172.485ZM169.961 41.9199H161.961C161.961 46.3382 165.543 49.9199 169.961 49.9199V41.9199ZM169.961 32.3105H177.961C177.961 27.8923 174.379 24.3105 169.961 24.3105V32.3105ZM166.478 32.3105H158.478C158.478 36.7288 162.059 40.3105 166.478 40.3105V32.3105ZM166.478 30.1396V22.1396C162.059 22.1396 158.478 25.7214 158.478 30.1396H166.478ZM175.969 30.1396H183.969C183.969 25.7214 180.387 22.1396 175.969 22.1396V30.1396ZM68.8867 8L68.8868 0H68.8867V8ZM81.9365 12.9365L87.5929 18.5938C89.1541 17.033 90.0008 14.8963 89.9327 12.6898C89.8646 10.4832 88.8878 8.4029 87.2334 6.94124L81.9365 12.9365ZM75.9785 18.8936L70.9562 25.1206C74.1384 27.6872 78.7438 27.4415 81.6349 24.5509L75.9785 18.8936ZM68.8867 16.3994L68.8868 8.39941H68.8867V16.3994ZM60.8809 19.7158L55.224 14.059L55.2239 14.0591L60.8809 19.7158ZM57.5645 27.7217L49.5645 27.7215V27.7217H57.5645ZM60.0596 34.8135L65.716 40.4708C68.6075 37.5798 68.8535 32.9736 66.2865 29.791L60.0596 34.8135ZM54.1006 40.7715L48.1052 46.0682C49.5667 47.7225 51.6468 48.6994 53.8531 48.7677C56.0595 48.8359 58.196 47.9895 59.757 46.4288L54.1006 40.7715ZM49.166 27.7217L41.166 27.7216V27.7217H49.166ZM132.361 32.1758L132.362 24.1758H132.361V32.1758ZM128.895 36.0303H120.895V36.0306L128.895 36.0303ZM132.361 39.8672V47.8672H132.362L132.361 39.8672ZM135.845 36.0303L143.845 36.0306V36.0303H135.845ZM181.522 32.1758V24.1758H181.522L181.522 32.1758ZM178.056 36.0303H170.056V36.0306L178.056 36.0303ZM181.522 39.8672L181.522 47.8672H181.522V39.8672ZM185.007 36.0303L193.007 36.0306V36.0303H185.007ZM68.8867 18.8438L68.8868 10.8438H68.8867V18.8438ZM74.2363 20.6367L79.893 26.2938C81.529 24.6579 82.3767 22.3939 82.2173 20.0858C82.058 17.7777 80.9073 15.6516 79.062 14.2561L74.2363 20.6367ZM61.8018 33.0703L55.4209 37.8958C56.8164 39.741 58.9424 40.8918 61.2504 41.0513C63.5584 41.2107 65.8224 40.3632 67.4584 38.7274L61.8018 33.0703ZM60.0098 27.7217L52.0098 27.7215V27.7217H60.0098ZM190.567 25.2227V17.2227H190.567L190.567 25.2227ZM193 27.6553L201 27.6561V27.6553H193ZM190.567 30.0869L190.567 38.0869H190.567V30.0869ZM188.136 27.6553H180.136V27.6561L188.136 27.6553ZM190.567 25.5186V17.5186H190.567L190.567 25.5186ZM188.431 27.6553H180.431V27.6562L188.431 27.6553ZM190.567 29.791L190.567 37.791H190.567V29.791ZM192.704 27.6553L200.704 27.6562V27.6553H192.704ZM191.459 27.2578H199.459V27.2543L191.459 27.2578ZM191.181 27.7188L187.498 20.6167C185.004 21.9098 183.372 24.416 183.196 27.2196C183.021 30.0231 184.329 32.7132 186.642 34.3068L191.181 27.7188ZM191.434 28.1641L199.396 27.3845L199.395 27.381L191.434 28.1641ZM191.493 28.7725V36.7725C193.751 36.7725 195.903 35.8188 197.419 34.1466C198.936 32.4745 199.675 30.2395 199.455 27.9929L191.493 28.7725ZM191.02 28.7725L183.067 29.6403C183.51 33.6986 186.937 36.7725 191.02 36.7725V28.7725ZM190.96 28.2266L183.004 29.0632C183.005 29.0736 183.006 29.084 183.007 29.0944L190.96 28.2266ZM190.26 27.9717V19.9717C185.841 19.9717 182.26 23.5534 182.26 27.9717H190.26ZM190.26 28.7725V36.7725C194.678 36.7725 198.26 33.1907 198.26 28.7725H190.26ZM189.783 28.7725H181.783C181.783 33.1907 185.365 36.7725 189.783 36.7725V28.7725ZM189.783 26.5645V18.5645C185.365 18.5645 181.783 22.1462 181.783 26.5645H189.783ZM190.26 27.5645H182.26C182.26 31.9827 185.841 35.5645 190.26 35.5645V27.5645ZM191.001 27.2578H199.001V27.2498L191.001 27.2578ZM190.26 26.958V18.958C185.841 18.958 182.26 22.5397 182.26 26.958H190.26ZM103.156 21.6357L95.452 23.7907C96.4116 27.2215 99.5242 29.6044 103.086 29.6354C106.649 29.6665 109.802 27.3383 110.822 23.9247L103.156 21.6357ZM105.563 13.5742V5.57422C102.027 5.57422 98.9099 7.89644 97.8979 11.2852L105.563 13.5742ZM107.7 13.5742L115.361 11.2708C114.345 7.88923 111.231 5.57422 107.7 5.57422V13.5742ZM110.124 21.6357L102.463 23.9392C103.487 27.3454 106.637 29.6664 110.194 29.6354C113.75 29.6045 116.86 27.2289 117.824 23.8054L110.124 21.6357ZM112.396 13.5742V5.57422C108.813 5.57422 105.667 7.95615 104.695 11.4046L112.396 13.5742ZM114.954 13.5742L122.626 15.8433C123.341 13.4235 122.873 10.8079 121.363 8.78635C119.853 6.76477 117.477 5.57422 114.954 5.57422V13.5742ZM111.47 25.3545V33.3545C115.014 33.3545 118.136 31.0223 119.141 27.6236L111.47 25.3545ZM108.979 25.3545L101.313 27.641C102.324 31.031 105.442 33.3545 108.979 33.3545V25.3545ZM106.641 17.5127L114.307 15.2262C113.296 11.8363 110.179 9.5129 106.641 9.5127C103.104 9.51249 99.986 11.8355 98.9746 15.2253L106.641 17.5127ZM104.301 25.3545V33.3545C107.838 33.3545 110.955 31.0315 111.967 27.6419L104.301 25.3545ZM101.844 25.3545L94.1751 27.6329C95.1835 31.027 98.303 33.3545 101.844 33.3545V25.3545ZM98.3438 13.5742V5.57422C95.8186 5.57422 93.4418 6.76638 91.9318 8.79025C90.4218 10.8141 89.9559 13.4321 90.6751 15.8526L98.3438 13.5742ZM100.901 13.5742L108.606 11.4193C107.639 7.96355 104.49 5.57422 100.901 5.57422V13.5742ZM123.799 15.7451V23.7451C128.217 23.7451 131.799 20.1634 131.799 15.7451H123.799ZM118.312 15.7451V7.74512C113.894 7.74512 110.312 11.3268 110.312 15.7451H118.312ZM118.312 18.2363H110.312C110.312 22.6546 113.894 26.2363 118.312 26.2363V18.2363ZM122.688 18.2363H130.688C130.688 13.818 127.106 10.2363 122.688 10.2363V18.2363ZM122.688 20.4238V28.4238C127.106 28.4238 130.688 24.8421 130.688 20.4238H122.688ZM118.312 20.4238V12.4238C113.894 12.4238 110.312 16.0056 110.312 20.4238H118.312ZM118.312 23.167H110.312C110.312 27.5853 113.894 31.167 118.312 31.167V23.167ZM123.983 23.167H131.983C131.983 18.7487 128.402 15.167 123.983 15.167V23.167ZM123.983 25.3545V33.3545C128.402 33.3545 131.983 29.7728 131.983 25.3545H123.983ZM115.788 25.3545H107.788C107.788 29.7728 111.37 33.3545 115.788 33.3545V25.3545ZM115.788 13.5742V5.57422C111.37 5.57422 107.788 9.15594 107.788 13.5742H115.788ZM123.799 13.5742H131.799C131.799 9.15594 128.217 5.57422 123.799 5.57422V13.5742ZM134.402 13.5742L134.402 5.57422H134.402V13.5742ZM138.374 17.2764H146.374V17.2756L138.374 17.2764ZM136.893 19.7334L133.21 12.6314C130.716 13.9244 129.083 16.4306 128.908 19.2342C128.733 22.0378 130.041 24.7279 132.354 26.3215L136.893 19.7334ZM138.239 22.1064L146.201 21.3237L146.201 21.3228L138.239 22.1064ZM138.559 25.3545V33.3545C140.817 33.3545 142.969 32.4003 144.486 30.7275C146.002 29.0546 146.741 26.8188 146.52 24.5717L138.559 25.3545ZM136.035 25.3545L128.083 26.2295C128.529 30.2846 131.955 33.3545 136.035 33.3545V25.3545ZM135.715 22.4434L127.758 23.2722C127.759 23.2876 127.761 23.303 127.763 23.3183L135.715 22.4434ZM131.979 21.0801V13.0801C127.56 13.0801 123.979 16.6618 123.979 21.0801H131.979ZM131.979 25.3545V33.3545C136.397 33.3545 139.979 29.7728 139.979 25.3545H131.979ZM129.438 25.3545H121.438C121.438 29.7728 125.019 33.3545 129.438 33.3545V25.3545ZM129.438 13.5742V5.57422C125.019 5.57422 121.438 9.15594 121.438 13.5742H129.438ZM148.201 15.7451V23.7451C152.619 23.7451 156.201 20.1634 156.201 15.7451H148.201ZM142.715 15.7451V7.74512C138.297 7.74512 134.715 11.3268 134.715 15.7451H142.715ZM142.715 18.2363H134.715C134.715 22.6546 138.297 26.2363 142.715 26.2363V18.2363ZM147.09 18.2363H155.09C155.09 13.818 151.508 10.2363 147.09 10.2363V18.2363ZM147.09 20.4238V28.4238C151.508 28.4238 155.09 24.8421 155.09 20.4238H147.09ZM142.715 20.4238V12.4238C138.297 12.4238 134.715 16.0056 134.715 20.4238H142.715ZM142.715 23.167H134.715C134.715 27.5853 138.297 31.167 142.715 31.167V23.167ZM148.386 23.167H156.386C156.386 18.7487 152.804 15.167 148.386 15.167V23.167ZM148.386 25.3545V33.3545C152.804 33.3545 156.386 29.7728 156.386 25.3545H148.386ZM140.19 25.3545H132.19C132.19 29.7728 135.772 33.3545 140.19 33.3545V25.3545ZM140.19 13.5742V5.57422C135.772 5.57422 132.19 9.15594 132.19 13.5742H140.19ZM148.201 13.5742H156.201C156.201 9.15594 152.619 5.57422 148.201 5.57422V13.5742ZM131.979 18.9092H123.979C123.979 23.3275 127.56 26.9092 131.979 26.9092V18.9092ZM135.934 17.2764H143.934V17.2745L135.934 17.2764ZM131.979 15.6777V7.67773C127.56 7.67773 123.979 11.2595 123.979 15.6777H131.979ZM124.74 18.2012H116.74C116.74 22.6194 120.322 26.2012 124.74 26.2012V18.2012ZM124.74 16.3672V8.36719C120.322 8.36719 116.74 11.9489 116.74 16.3672H124.74ZM125.026 16.3672V24.3672H125.029L125.026 16.3672ZM125.8 15.2734L133.8 15.2746V15.2734H125.8ZM125.8 13.4385V5.43848C121.382 5.43848 117.8 9.0202 117.8 13.4385H125.8ZM128.14 13.4385H136.14C136.14 9.0202 132.558 5.43848 128.14 5.43848V13.4385ZM83.6719 14.6729L77.6765 19.9696C79.5072 22.0417 80.6084 24.7437 80.6084 27.7218L88.6084 27.7217L96.6084 27.7216C96.6083 20.6922 93.9806 14.2583 89.6672 9.37606L83.6719 14.6729ZM88.6084 27.7217H80.6084C80.6084 34.195 75.3601 39.4433 68.8867 39.4434L68.8867 47.4434L68.8868 55.4434C84.1966 55.4433 96.6084 43.0316 96.6084 27.7217H88.6084ZM68.8867 47.4434V39.4434C65.9078 39.4434 63.2049 38.342 61.1331 36.5119L55.8369 42.5078L50.5407 48.5037C55.4233 52.8165 61.8579 55.4434 68.8867 55.4434V47.4434ZM55.8369 42.5078L61.4942 48.1642L67.4522 42.2052L61.7949 36.5488L56.1376 30.8924L50.1796 36.8514L55.8369 42.5078ZM61.7949 36.5488L56.7724 42.7758C60.2024 45.5423 64.452 47.0439 68.8867 47.0439V39.0439V31.0439C68.0986 31.0439 67.3958 30.7884 66.8174 30.3219L61.7949 36.5488ZM68.8867 39.0439L68.8868 47.0439C74.0332 47.0439 78.911 45.0227 82.5493 41.3845L76.8926 35.7275L71.2358 30.0706C70.5972 30.7092 69.7886 31.0439 68.8867 31.0439L68.8867 39.0439ZM76.8926 35.7275L82.5494 41.3844C86.1879 37.7459 88.209 32.8682 88.209 27.7217H80.209H72.209C72.209 28.6238 71.8743 29.4321 71.2357 30.0707L76.8926 35.7275ZM80.209 27.7217L88.209 27.7215C88.2089 23.2891 86.7095 19.0389 83.9418 15.6075L77.7148 20.6299L71.4879 25.6523C71.953 26.229 72.209 26.9316 72.209 27.7218L80.209 27.7217ZM77.7148 20.6299L83.3717 26.2867L89.3287 20.3297L83.6719 14.6729L78.015 9.016L72.058 14.973L77.7148 20.6299ZM120.406 30.0049L120.406 38.0049C120.387 38.0049 119.874 37.9929 119.222 37.4875C118.509 36.9344 118.028 36.0809 117.921 35.2282L125.858 34.2295L133.796 33.2307C132.864 25.8261 126.465 22.0051 120.407 22.0049L120.406 30.0049ZM125.858 34.2295V26.2295H123.217V34.2295V42.2295H125.858V34.2295ZM123.217 34.2295L131.143 33.1437C130.268 26.7561 124.545 24.1761 120.407 24.1758L120.406 32.1758L120.406 40.1758C119.695 40.1757 118.656 39.9787 117.609 39.2195C116.5 38.4156 115.529 37.0543 115.291 35.3152L123.217 34.2295ZM120.406 32.1758V24.1758C117.535 24.1758 114.467 25.2236 112.157 27.7028C109.877 30.15 109.04 33.2257 109.04 36.0303H117.04H125.04C125.04 36.3105 124.936 37.459 123.863 38.61C122.761 39.7931 121.375 40.1758 120.406 40.1758V32.1758ZM117.04 36.0303L109.04 36.0305C109.04 38.8363 109.878 41.9198 112.175 44.3686C114.498 46.8449 117.567 47.8672 120.406 47.8672V39.8672V31.8672C121.344 31.8672 122.729 32.2331 123.845 33.422C124.934 34.5834 125.04 35.7484 125.04 36.03L117.04 36.0303ZM120.406 39.8672L120.407 47.8672C124.56 47.8669 130.141 45.3471 131.175 39.1471L123.284 37.8311L115.393 36.515C115.674 34.8339 116.636 33.538 117.714 32.7747C118.739 32.0485 119.74 31.8672 120.406 31.8672L120.406 39.8672ZM123.284 37.8311V45.8311H125.808V37.8311V29.8311H123.284V37.8311ZM125.808 37.8311L117.838 37.1397C117.924 36.147 118.459 35.1876 119.225 34.5883C119.912 34.0507 120.436 34.0547 120.406 34.0547L120.406 42.0547L120.407 50.0547C126.388 50.0545 133.106 46.261 133.778 38.5224L125.808 37.8311ZM120.406 42.0547V34.0547C120.489 34.0547 121.082 34.0923 121.725 34.6951C122.041 34.9917 122.262 35.333 122.388 35.6451C122.51 35.9478 122.499 36.1077 122.499 36.0301L114.499 36.0303L106.499 36.0305C106.499 39.9384 107.892 43.6594 110.782 46.3684C113.58 48.9906 117.126 50.0547 120.406 50.0547V42.0547ZM114.499 36.0303H122.499C122.499 35.9714 122.507 36.142 122.381 36.4482C122.253 36.7619 122.033 37.0948 121.727 37.3802C121.112 37.9538 120.538 38.0049 120.406 38.0049V30.0049V22.0049C117.127 22.0049 113.6 23.0828 110.818 25.6763C107.935 28.363 106.499 32.0771 106.499 36.0303H114.499ZM132.378 30.0049L132.378 38.0049C132.07 38.0049 131.507 37.8633 131.013 37.3685C130.519 36.8738 130.386 36.3179 130.386 36.0303H138.386H146.386C146.386 28.1612 140.262 22.0051 132.378 22.0049L132.378 30.0049ZM138.386 36.0303L130.386 36.03C130.386 35.7422 130.519 35.1859 131.013 34.691C131.507 34.1959 132.071 34.0547 132.378 34.0547L132.378 42.0547L132.378 50.0547C140.26 50.0545 146.385 43.9007 146.386 36.0305L138.386 36.0303ZM132.378 42.0547V34.0547C132.666 34.0547 133.225 34.1886 133.722 34.685C134.218 35.1816 134.353 35.7411 134.353 36.03L126.353 36.0303L118.353 36.0305C118.353 43.9167 124.494 50.0547 132.378 50.0547V42.0547ZM126.353 36.0303H134.353C134.353 36.319 134.218 36.8781 133.722 37.3744C133.226 37.8707 132.667 38.0049 132.378 38.0049V30.0049V22.0049C124.493 22.0049 118.353 28.1453 118.353 36.0303H126.353ZM144.986 30.0049L144.986 38.0049C144.928 38.0049 144.33 37.981 143.604 37.3893C142.804 36.7381 142.294 35.7348 142.234 34.7424L150.22 34.2627L158.205 33.783C157.739 26.0265 151.09 22.005 144.986 22.0049L144.986 30.0049ZM150.22 34.2627V26.2627H147.713V34.2627V42.2627H150.22V34.2627ZM147.713 34.2627L155.628 33.101C154.754 27.1426 149.623 24.1762 144.97 24.1758L144.97 32.1758L144.969 40.1758C144.287 40.1757 143.125 39.9815 141.963 39.088C140.739 38.1464 139.997 36.7851 139.798 35.4244L147.713 34.2627ZM144.97 32.1758V24.1758C142.043 24.1758 138.999 25.2432 136.695 27.6245C134.387 30.0093 133.419 33.0841 133.419 36.0303H141.419H149.419C149.419 36.5363 149.225 37.6839 148.192 38.7514C147.162 39.8155 145.894 40.1758 144.97 40.1758V32.1758ZM141.419 36.0303L133.419 36.0306C133.419 38.9593 134.371 41.9723 136.541 44.3387C138.731 46.7264 141.767 48.002 144.919 48.002V40.002V32.002C146.119 32.002 147.404 32.5117 148.333 33.5235C149.241 34.5141 149.419 35.5413 149.419 36.03L141.419 36.0303ZM144.919 40.002L144.919 48.002C147.481 48.0019 149.853 47.115 151.672 45.773C153.301 44.5718 155.83 41.9303 155.83 37.8483L147.83 37.8477L139.83 37.8471C139.83 34.8589 141.636 33.2945 142.175 32.897C142.904 32.3586 143.82 32.002 144.919 32.002L144.919 40.002ZM147.83 37.8477H155.83C155.83 35.9508 155.183 33.6767 153.366 31.8553C151.548 30.0319 149.27 29.3769 147.363 29.376L147.359 37.376L147.356 45.376C145.735 45.3752 143.692 44.813 142.038 43.1539C140.385 41.4969 139.83 39.4585 139.83 37.8477H147.83ZM147.359 37.376V29.376H145.087V37.376V45.376H147.359V37.376ZM145.087 37.376H153.087V35.4746H145.087H137.087V37.376H145.087ZM145.087 35.4746V43.4746H148.284V35.4746V27.4746H145.087V35.4746ZM148.284 35.4746V43.4746C144.78 43.4746 142.187 40.586 142.187 37.3775L150.187 37.376L158.187 37.3744C158.186 32.1132 153.976 27.4746 148.284 27.4746V35.4746ZM150.187 37.376H142.187V41.9199H150.187H158.187V37.376H150.187ZM150.187 41.9199V33.9199H147.948V41.9199V49.9199H150.187V41.9199ZM147.948 41.9199H155.948V40.1191H147.948H139.948V41.9199H147.948ZM147.948 40.1191L140.359 37.5893C141.344 34.6333 143.862 34.0547 144.801 34.0547V42.0547V50.0547C148.768 50.0547 153.778 47.9274 155.538 42.649L147.948 40.1191ZM144.801 42.0547L144.801 34.0547C145.028 34.0547 145.63 34.1354 146.247 34.7131C146.556 35.0024 146.774 35.3364 146.9 35.6457C147.023 35.9475 147.012 36.1077 147.012 36.0301L139.012 36.0303L131.012 36.0305C131.012 39.9971 132.444 43.7057 135.306 46.3881C138.064 48.9726 141.562 50.0545 144.8 50.0547L144.801 42.0547ZM139.012 36.0303H147.012C147.012 35.9829 147.017 36.1711 146.882 36.4936C146.743 36.8227 146.514 37.155 146.211 37.4301C145.618 37.9695 145.092 38.0049 144.986 38.0049V30.0049V22.0049C141.768 22.0049 138.254 23.0419 135.452 25.5885C132.522 28.2501 131.012 31.9845 131.012 36.0303H139.012ZM181.54 30.0049L181.54 38.0049C181.232 38.0049 180.669 37.8633 180.175 37.3686C179.681 36.874 179.548 36.3181 179.548 36.0303H187.548H195.548C195.548 28.161 189.424 22.0054 181.541 22.0049L181.54 30.0049ZM187.548 36.0303L179.548 36.03C179.548 35.742 179.681 35.1857 180.175 34.6908C180.669 34.1959 181.233 34.0547 181.54 34.0547L181.54 42.0547L181.541 50.0547C189.422 50.0542 195.548 43.9009 195.548 36.0305L187.548 36.0303ZM181.54 42.0547V34.0547C181.828 34.0547 182.387 34.1886 182.884 34.685C183.38 35.1816 183.515 35.7411 183.515 36.03L175.515 36.0303L167.515 36.0305C167.515 43.9167 173.657 50.0547 181.54 50.0547V42.0547ZM175.515 36.0303H183.515C183.515 36.319 183.38 36.8781 182.884 37.3744C182.388 37.8707 181.829 38.0049 181.54 38.0049V30.0049V22.0049C173.655 22.0049 167.515 28.1453 167.515 36.0303H175.515ZM101.71 41.9199V33.9199H99.1689V41.9199V49.9199H101.71V41.9199ZM99.1689 41.9199H107.169V30.1396H99.1689H91.1689V41.9199H99.1689ZM99.1689 30.1396V38.1396H101.71V30.1396V22.1396H99.1689V30.1396ZM101.71 30.1396H93.71V41.9199H101.71H109.71V30.1396H101.71ZM110.818 37.9316H118.818V30.1396H110.818H102.818V37.9316H110.818ZM110.818 30.1396V38.1396H113.343V30.1396V22.1396H110.818V30.1396ZM113.343 30.1396H105.343V41.9199H113.343H121.343V30.1396H113.343ZM113.343 41.9199V33.9199H110.65V41.9199V49.9199H113.343V41.9199ZM110.65 41.9199L117.49 37.7696L112.761 29.9776L105.922 34.1279L99.0827 38.2783L103.811 46.0702L110.65 41.9199ZM105.922 34.1279H97.9219V41.9199H105.922H113.922V34.1279H105.922ZM105.922 41.9199V33.9199H103.397V41.9199V49.9199H105.922V41.9199ZM103.397 41.9199H111.397V30.1396H103.397H95.3975V41.9199H103.397ZM103.397 30.1396V38.1396H106.09V30.1396V22.1396H103.397V30.1396ZM106.09 30.1396L99.2506 34.29L103.979 42.082L110.818 37.9316L117.658 33.7813L112.929 25.9893L106.09 30.1396ZM159.007 37.9316H167.007V30.1396H159.007H151.007V37.9316H159.007ZM159.007 30.1396V38.1396H161.531V30.1396V22.1396H159.007V30.1396ZM161.531 30.1396H153.531V41.9199H161.531H169.531V30.1396H161.531ZM161.531 41.9199V33.9199H158.838V41.9199V49.9199H161.531V41.9199ZM158.838 41.9199L165.677 37.7696L160.949 29.9776L154.109 34.1279L147.27 38.2783L151.999 46.0702L158.838 41.9199ZM154.109 34.1279H146.109V41.9199H154.109H162.109V34.1279H154.109ZM154.109 41.9199V33.9199H151.585V41.9199V49.9199H154.109V41.9199ZM151.585 41.9199H159.585V30.1396H151.585H143.585V41.9199H151.585ZM151.585 30.1396V38.1396H154.277V30.1396V22.1396H151.585V30.1396ZM154.277 30.1396L147.439 34.2906L152.168 42.0826L159.007 37.9316L165.846 33.7807L161.116 25.9887L154.277 30.1396ZM165.75 41.9199V33.9199H163.209V41.9199V49.9199H165.75V41.9199ZM163.209 41.9199H171.209V30.1396H163.209H155.209V41.9199H163.209ZM163.209 30.1396V38.1396H165.75V30.1396V22.1396H163.209V30.1396ZM165.75 30.1396H157.75V41.9199H165.75H173.75V30.1396H165.75ZM175.969 32.3105V24.3105H172.485V32.3105V40.3105H175.969V32.3105ZM172.485 32.3105H164.485V41.9199H172.485H180.485V32.3105H172.485ZM172.485 41.9199V33.9199H169.961V41.9199V49.9199H172.485V41.9199ZM169.961 41.9199H177.961V32.3105H169.961H161.961V41.9199H169.961ZM169.961 32.3105V24.3105H166.478V32.3105V40.3105H169.961V32.3105ZM166.478 32.3105H174.478V30.1396H166.478H158.478V32.3105H166.478ZM166.478 30.1396V38.1396H175.969V30.1396V22.1396H166.478V30.1396ZM175.969 30.1396H167.969V32.3105H175.969H183.969V30.1396H175.969ZM68.8867 8L68.8867 16C71.8652 16 74.5679 17.1014 76.6397 18.9318L81.9365 12.9365L87.2334 6.94124C82.3508 2.62745 75.9159 3.38554e-05 68.8868 0L68.8867 8ZM81.9365 12.9365L76.2801 7.27921L70.3221 13.2362L75.9785 18.8936L81.6349 24.5509L87.5929 18.5938L81.9365 12.9365ZM75.9785 18.8936L81.0008 12.6665C77.5695 9.89904 73.3194 8.39945 68.8868 8.39941L68.8867 16.3994L68.8867 24.3994C69.6767 24.3994 70.3793 24.6554 70.9562 25.1206L75.9785 18.8936ZM68.8867 16.3994V8.39941C63.7402 8.39941 58.8625 10.4205 55.224 14.059L60.8809 19.7158L66.5377 25.3727C67.1763 24.7341 67.9846 24.3994 68.8867 24.3994V16.3994ZM60.8809 19.7158L55.2239 14.0591C51.5857 17.6974 49.5646 22.5753 49.5645 27.7215L57.5645 27.7217L65.5645 27.7218C65.5645 26.8198 65.8993 26.0111 66.5378 25.3726L60.8809 19.7158ZM57.5645 27.7217H49.5645C49.5645 32.1564 51.0661 36.406 53.8326 39.836L60.0596 34.8135L66.2865 29.791C65.82 29.2126 65.5645 28.5098 65.5645 27.7217H57.5645ZM60.0596 34.8135L54.4032 29.1562L48.4442 35.1142L54.1006 40.7715L59.757 46.4288L65.716 40.4708L60.0596 34.8135ZM54.1006 40.7715L60.096 35.4747C58.267 33.4045 57.166 30.7022 57.166 27.7217H49.166H41.166C41.166 34.7487 43.7902 41.1841 48.1052 46.0682L54.1006 40.7715ZM49.166 27.7217L57.166 27.7218C57.1661 21.2478 62.4141 16 68.8867 16V8V0C53.5763 0 41.1662 12.4125 41.166 27.7216L49.166 27.7217ZM132.361 32.1758V24.1758C125.094 24.1758 120.895 30.2849 120.895 36.0303H128.895H136.895C136.895 36.6717 136.673 37.6689 135.838 38.6041C134.954 39.5953 133.659 40.1758 132.361 40.1758V32.1758ZM128.895 36.0303L120.895 36.0306C120.895 41.8259 125.139 47.8672 132.361 47.8672V39.8672V31.8672C133.631 31.8672 134.924 32.4301 135.822 33.4287C136.671 34.3739 136.895 35.3854 136.895 36.0299L128.895 36.0303ZM132.361 39.8672L132.362 47.8672C139.534 47.8664 143.844 41.8798 143.845 36.0306L135.845 36.0303L127.845 36.0299C127.845 35.3602 128.08 34.3451 128.927 33.4085C129.817 32.4249 131.097 31.8673 132.36 31.8672L132.361 39.8672ZM135.845 36.0303H143.845C143.845 30.2308 139.58 24.1766 132.362 24.1758L132.361 32.1758L132.36 40.1758C131.069 40.1756 129.788 39.6006 128.91 38.6244C128.077 37.6977 127.845 36.6968 127.845 36.0303H135.845ZM181.522 32.1758L181.522 24.1758C174.256 24.1764 170.056 30.2842 170.056 36.0303H178.056H186.056C186.056 36.6721 185.834 37.6693 184.999 38.6044C184.115 39.5952 182.82 40.1757 181.523 40.1758L181.522 32.1758ZM178.056 36.0303L170.056 36.0306C170.056 41.8265 174.301 47.8666 181.522 47.8672L181.522 39.8672L181.523 31.8672C182.792 31.8673 184.086 32.4302 184.983 33.4285C185.832 34.3735 186.056 35.3849 186.056 36.0299L178.056 36.0303ZM181.522 39.8672V47.8672C188.694 47.8672 193.007 41.882 193.007 36.0306L185.007 36.0303L177.007 36.0299C177.007 35.3593 177.243 34.344 178.09 33.4076C178.98 32.4244 180.259 31.8672 181.522 31.8672V39.8672ZM185.007 36.0303H193.007C193.007 30.2286 188.739 24.1758 181.522 24.1758V32.1758V40.1758C180.232 40.1758 178.95 39.601 178.073 38.6252C177.24 37.6988 177.007 36.6977 177.007 36.0303H185.007ZM68.8867 18.8438L68.8866 26.8438C69.0924 26.8438 69.2633 26.906 69.4106 27.0174L74.2363 20.6367L79.062 14.2561C76.2348 12.1179 72.6983 10.8438 68.8868 10.8438L68.8867 18.8438ZM74.2363 20.6367L68.5797 14.9796L56.1451 27.4132L61.8018 33.0703L67.4584 38.7274L79.893 26.2938L74.2363 20.6367ZM61.8018 33.0703L68.1826 28.2449C68.072 28.0987 68.0098 27.9288 68.0098 27.7217H60.0098H52.0098C52.0098 31.5317 53.2821 35.0675 55.4209 37.8958L61.8018 33.0703ZM60.0098 27.7217L68.0098 27.7219C68.0098 27.236 68.4035 26.8438 68.8867 26.8438V18.8438V10.8438C59.5651 10.8438 52.01 18.4013 52.0098 27.7215L60.0098 27.7217ZM190.567 25.2227V33.2227C187.492 33.2227 185 30.7302 185 27.6553H193H201C201 21.8937 196.329 17.2227 190.567 17.2227V25.2227ZM193 27.6553L185 27.6545C185 24.5766 187.496 22.0869 190.567 22.0869V30.0869V38.0869C196.326 38.0869 200.999 33.4203 201 27.6561L193 27.6553ZM190.567 30.0869L190.568 22.0869C193.643 22.0871 196.135 24.5802 196.136 27.6545L188.136 27.6553L180.136 27.6561C180.136 33.4166 184.806 38.0865 190.567 38.0869L190.567 30.0869ZM188.136 27.6553H196.136C196.136 30.7267 193.646 33.2224 190.568 33.2227L190.567 25.2227L190.567 17.2227C184.802 17.2231 180.136 21.8973 180.136 27.6553H188.136ZM190.567 25.5186L190.567 17.5186C184.97 17.519 180.431 22.0565 180.431 27.6553H188.431H196.431C196.431 30.8943 193.805 33.5183 190.568 33.5186L190.567 25.5186ZM188.431 27.6553L180.431 27.6562C180.431 33.258 184.974 37.7906 190.567 37.791L190.567 29.791L190.568 21.791C193.802 21.7913 196.43 24.4121 196.431 27.6544L188.431 27.6553ZM190.567 29.791V37.791C196.162 37.791 200.703 33.2574 200.704 27.6562L192.704 27.6553L184.704 27.6544C184.704 24.4128 187.333 21.791 190.567 21.791V29.791ZM192.704 27.6553H200.704C200.704 22.0571 196.166 17.5186 190.567 17.5186V25.5186V33.5186C187.329 33.5186 184.704 30.8936 184.704 27.6553H192.704ZM190.714 26.5645V34.5645C189.288 34.5645 187.345 34.095 185.711 32.5202C184.064 30.9331 183.46 28.9203 183.459 27.2613L191.459 27.2578L199.459 27.2543C199.458 25.1916 198.716 22.8322 196.814 20.9993C194.925 19.1787 192.61 18.5645 190.714 18.5645V26.5645ZM191.459 27.2578H183.459C183.459 26.0166 183.779 24.5999 184.616 23.2714C185.439 21.9666 186.524 21.122 187.498 20.6167L191.181 27.7188L194.863 34.8208C197.503 33.452 199.459 30.6672 199.459 27.2578H191.459ZM191.181 27.7188L186.642 34.3068C184.736 32.9937 183.671 30.9656 183.472 28.9472L191.434 28.1641L199.395 27.381C199.159 24.9776 197.909 22.6395 195.719 21.1307L191.181 27.7188ZM191.434 28.1641L183.472 28.9436L183.531 29.552L191.493 28.7725L199.455 27.9929L199.396 27.3845L191.434 28.1641ZM191.493 28.7725V20.7725H191.02V28.7725V36.7725H191.493V28.7725ZM191.02 28.7725L198.972 27.9046L198.913 27.3587L190.96 28.2266L183.007 29.0944L183.067 29.6403L191.02 28.7725ZM190.96 28.2266L198.916 27.3899C198.51 23.525 195.281 19.9717 190.688 19.9717V27.9717V35.9717C188.823 35.9717 186.888 35.285 185.375 33.8534C183.891 32.4488 183.173 30.6767 183.004 29.0632L190.96 28.2266ZM190.688 27.9717V19.9717H190.26V27.9717V35.9717H190.688V27.9717ZM190.26 27.9717H182.26V28.7725H190.26H198.26V27.9717H190.26ZM190.26 28.7725V20.7725H189.783V28.7725V36.7725H190.26V28.7725ZM189.783 28.7725H197.783V26.5645H189.783H181.783V28.7725H189.783ZM189.783 26.5645V34.5645H190.714V26.5645V18.5645H189.783V26.5645ZM190.26 27.5645V35.5645H190.688V27.5645V19.5645H190.26V27.5645ZM190.688 27.5645V35.5645C192.7 35.5645 195.075 34.8194 196.872 32.8243C198.535 30.9765 199.001 28.8339 199.001 27.2578H191.001H183.001C183.001 25.8426 183.419 23.8534 184.981 22.1186C186.676 20.2366 188.895 19.5645 190.688 19.5645V27.5645ZM191.001 27.2578L199.001 27.2498C198.999 25.6335 198.507 23.4697 196.809 21.6276C194.996 19.6599 192.639 18.958 190.688 18.958V26.958V34.958C188.956 34.958 186.755 34.3272 185.043 32.47C183.447 30.7384 183.002 28.7245 183.001 27.2658L191.001 27.2578ZM190.688 26.958V18.958H190.26V26.958V34.958H190.688V26.958ZM190.26 26.958H182.26V27.5645H190.26H198.26V26.958H190.26ZM103.156 21.6357L110.822 23.9247L113.229 15.8632L105.563 13.5742L97.8979 11.2852L95.4907 19.3468L103.156 21.6357ZM105.563 13.5742V21.5742H107.7V13.5742V5.57422H105.563V13.5742ZM107.7 13.5742L100.039 15.8777L102.463 23.9392L110.124 21.6357L117.785 19.3323L115.361 11.2708L107.7 13.5742ZM110.124 21.6357L117.824 23.8054L120.096 15.7439L112.396 13.5742L104.695 11.4046L102.424 19.4661L110.124 21.6357ZM112.396 13.5742V21.5742H114.954V13.5742V5.57422H112.396V13.5742ZM114.954 13.5742L107.283 11.3052L103.798 23.0854L111.47 25.3545L119.141 27.6236L122.626 15.8433L114.954 13.5742ZM111.47 25.3545V17.3545H108.979V25.3545V33.3545H111.47V25.3545ZM108.979 25.3545L116.646 23.068L114.307 15.2262L106.641 17.5127L98.9743 19.7992L101.313 27.641L108.979 25.3545ZM106.641 17.5127L98.9746 15.2253L96.6348 23.0671L104.301 25.3545L111.967 27.6419L114.307 19.8001L106.641 17.5127ZM104.301 25.3545V17.3545H101.844V25.3545V33.3545H104.301V25.3545ZM101.844 25.3545L109.512 23.0761L106.012 11.2958L98.3438 13.5742L90.6751 15.8526L94.1751 27.6329L101.844 25.3545ZM98.3438 13.5742V21.5742H100.901V13.5742V5.57422H98.3438V13.5742ZM100.901 13.5742L93.1971 15.7292L95.452 23.7907L103.156 21.6357L110.861 19.4808L108.606 11.4193L100.901 13.5742ZM123.799 15.7451V7.74512H118.312V15.7451V23.7451H123.799V15.7451ZM118.312 15.7451H110.312V18.2363H118.312H126.312V15.7451H118.312ZM118.312 18.2363V26.2363H122.688V18.2363V10.2363H118.312V18.2363ZM122.688 18.2363H114.688V20.4238H122.688H130.688V18.2363H122.688ZM122.688 20.4238V12.4238H118.312V20.4238V28.4238H122.688V20.4238ZM118.312 20.4238H110.312V23.167H118.312H126.312V20.4238H118.312ZM118.312 23.167V31.167H123.983V23.167V15.167H118.312V23.167ZM123.983 23.167H115.983V25.3545H123.983H131.983V23.167H123.983ZM123.983 25.3545V17.3545H115.788V25.3545V33.3545H123.983V25.3545ZM115.788 25.3545H123.788V13.5742H115.788H107.788V25.3545H115.788ZM115.788 13.5742V21.5742H123.799V13.5742V5.57422H115.788V13.5742ZM123.799 13.5742H115.799V15.7451H123.799H131.799V13.5742H123.799ZM134.402 13.5742L134.402 21.5742C133.99 21.5742 132.852 21.4166 131.77 20.3717C130.678 19.3164 130.374 18.0569 130.374 17.2772L138.374 17.2764L146.374 17.2756C146.374 14.342 145.338 11.2315 142.886 8.86348C140.446 6.50601 137.322 5.57423 134.402 5.57422L134.402 13.5742ZM138.374 17.2764H130.374C130.374 16.5214 130.574 15.5092 131.203 14.5097C131.818 13.5326 132.603 12.9459 133.21 12.6314L136.893 19.7334L140.575 26.8354C143.964 25.0783 146.374 21.6317 146.374 17.2764H138.374ZM136.893 19.7334L132.354 26.3215C131.058 25.4284 130.394 24.0671 130.278 22.8901L138.239 22.1064L146.201 21.3228C145.883 18.0929 144.242 15.0817 141.431 13.1453L136.893 19.7334ZM138.239 22.1064L130.278 22.8892L130.597 26.1372L138.559 25.3545L146.52 24.5717L146.201 21.3237L138.239 22.1064ZM138.559 25.3545V17.3545H136.035V25.3545V33.3545H138.559V25.3545ZM136.035 25.3545L143.987 24.4795L143.667 21.5684L135.715 22.4434L127.763 23.3183L128.083 26.2295L136.035 25.3545ZM135.715 22.4434L143.672 21.6145C143.203 17.1131 139.529 13.0801 134.268 13.0801V21.0801V29.0801C132.713 29.0801 131.051 28.4989 129.746 27.2583C128.471 26.0467 127.891 24.5531 127.758 23.2722L135.715 22.4434ZM134.268 21.0801V13.0801H131.979V21.0801V29.0801H134.268V21.0801ZM131.979 21.0801H123.979V25.3545H131.979H139.979V21.0801H131.979ZM131.979 25.3545V17.3545H129.438V25.3545V33.3545H131.979V25.3545ZM129.438 25.3545H137.438V13.5742H129.438H121.438V25.3545H129.438ZM129.438 13.5742V21.5742H134.402V13.5742V5.57422H129.438V13.5742ZM148.201 15.7451V7.74512H142.715V15.7451V23.7451H148.201V15.7451ZM142.715 15.7451H134.715V18.2363H142.715H150.715V15.7451H142.715ZM142.715 18.2363V26.2363H147.09V18.2363V10.2363H142.715V18.2363ZM147.09 18.2363H139.09V20.4238H147.09H155.09V18.2363H147.09ZM147.09 20.4238V12.4238H142.715V20.4238V28.4238H147.09V20.4238ZM142.715 20.4238H134.715V23.167H142.715H150.715V20.4238H142.715ZM142.715 23.167V31.167H148.386V23.167V15.167H142.715V23.167ZM148.386 23.167H140.386V25.3545H148.386H156.386V23.167H148.386ZM148.386 25.3545V17.3545H140.19V25.3545V33.3545H148.386V25.3545ZM140.19 25.3545H148.19V13.5742H140.19H132.19V25.3545H140.19ZM140.19 13.5742V21.5742H148.201V13.5742V5.57422H140.19V13.5742ZM148.201 13.5742H140.201V15.7451H148.201H156.201V13.5742H148.201ZM131.979 18.9092V26.9092H134.268V18.9092V10.9092H131.979V18.9092ZM134.268 18.9092V26.9092C136.742 26.9092 139.457 26.0126 141.477 23.7721C143.366 21.6773 143.934 19.1996 143.934 17.2764H135.934H127.934C127.934 16.2114 128.249 14.5501 129.595 13.0572C131.073 11.4185 132.954 10.9092 134.268 10.9092V18.9092ZM135.934 17.2764L143.934 17.2745C143.933 15.3182 143.341 12.8259 141.419 10.7406C139.383 8.53036 136.685 7.67773 134.268 7.67773V15.6777V23.6777C133.011 23.6777 131.146 23.2038 129.653 21.5825C128.274 20.0863 127.934 18.3933 127.934 17.2782L135.934 17.2764ZM134.268 15.6777V7.67773H131.979V15.6777V23.6777H134.268V15.6777ZM131.979 15.6777H123.979V18.9092H131.979H139.979V15.6777H131.979ZM128.14 15.5254H120.14C120.14 14.7412 120.407 13.1807 121.783 11.8116C123.158 10.443 124.7 10.2012 125.413 10.2012V18.2012V26.2012C127.86 26.2012 130.765 25.4461 133.07 23.1519C135.375 20.8572 136.14 17.9588 136.14 15.5254H128.14ZM125.413 18.2012V10.2012H124.74V18.2012V26.2012H125.413V18.2012ZM124.74 18.2012H132.74V16.3672H124.74H116.74V18.2012H124.74ZM124.74 16.3672V24.3672H125.026V16.3672V8.36719H124.74V16.3672ZM125.026 16.3672L125.029 24.3672C127.798 24.3662 130.537 23.062 132.233 20.5576C133.62 18.5091 133.8 16.4097 133.8 15.2746L125.8 15.2734L117.8 15.2722C117.8 14.81 117.853 13.2573 118.984 11.5875C119.602 10.6749 120.503 9.7981 121.701 9.18044C122.887 8.56895 124.059 8.36752 125.024 8.36719L125.026 16.3672ZM125.8 15.2734H133.8V13.4385H125.8H117.8V15.2734H125.8ZM125.8 13.4385V21.4385H128.14V13.4385V5.43848H125.8V13.4385ZM128.14 13.4385H120.14V15.5254H128.14H136.14V13.4385H128.14Z" fill="#E6E2DE" mask="url(#path-4-outside-1_0_1)"/>
</svg>
