<svg width="242" height="240" viewBox="0 0 242 240" fill="none" xmlns="http://www.w3.org/2000/svg">
<rect y="80" width="242" height="160" rx="12" fill="#E6E2DE"/>
<path d="M76.2974 155L74.1534 146.968L72.0094 155H69.5454L66.6014 143.512H68.9694L70.8254 151.304L72.9374 143.512H75.4174L77.4654 151.336L79.3374 143.512H81.7214L78.7614 155H76.2974ZM85.7812 155.144C83.2212 155.144 81.5092 153.368 81.5092 150.696C81.5092 148.152 83.2852 146.296 85.7492 146.296C88.4532 146.296 90.2452 148.488 89.8452 151.272H83.7812C83.9252 152.664 84.5972 153.432 85.7332 153.432C86.7092 153.432 87.3652 152.952 87.6212 152.104H89.8292C89.3492 154.04 87.8612 155.144 85.7812 155.144ZM85.7012 147.928C84.6612 147.928 84.0052 148.6 83.8132 149.864H87.4932C87.4292 148.68 86.7572 147.928 85.7012 147.928ZM93.6783 145.224C93.6783 146.92 92.1103 148.152 90.3343 147.912V146.808C91.2943 146.92 91.9983 146.568 92.2063 145.816C92.0783 145.864 91.9503 145.88 91.8383 145.88C91.1343 145.88 90.6063 145.352 90.6063 144.68C90.6063 143.928 91.1823 143.4 92.0623 143.4C93.0383 143.4 93.6783 144.088 93.6783 145.224ZM97.2388 150.856V155H95.0148V146.456H97.0628V148.104C97.6868 147.016 99.0148 146.36 100.391 146.36V148.664C98.5028 148.52 97.2388 148.968 97.2388 150.856ZM105.036 155.144C102.476 155.144 100.764 153.368 100.764 150.696C100.764 148.152 102.54 146.296 105.004 146.296C107.708 146.296 109.5 148.488 109.1 151.272H103.036C103.18 152.664 103.852 153.432 104.988 153.432C105.964 153.432 106.62 152.952 106.876 152.104H109.084C108.604 154.04 107.116 155.144 105.036 155.144ZM104.956 147.928C103.916 147.928 103.26 148.6 103.068 149.864H106.748C106.684 148.68 106.012 147.928 104.956 147.928ZM116.237 155H113.805V143.512H116.237V155ZM120.458 150.344V155H118.234V146.456H120.282V147.672C120.906 146.824 121.786 146.296 122.906 146.296C124.618 146.296 125.802 147.416 125.802 149.48V155H123.594V150.232C123.594 148.968 123.098 148.264 122.09 148.264C121.21 148.264 120.458 148.968 120.458 150.344ZM131.159 155.16C128.695 155.16 126.999 153.336 126.999 150.728C126.999 148.168 128.759 146.296 131.159 146.296C133.383 146.296 135.031 147.8 135.303 150.104H132.967C132.855 148.968 132.167 148.264 131.159 148.264C130.007 148.264 129.271 149.208 129.271 150.728C129.271 152.264 129.991 153.192 131.159 153.192C132.183 153.192 132.839 152.52 132.967 151.352H135.303C135.047 153.704 133.447 155.16 131.159 155.16ZM140.315 155.16C137.835 155.16 135.979 153.208 135.979 150.728C135.979 148.232 137.835 146.296 140.315 146.296C142.795 146.296 144.651 148.232 144.651 150.728C144.651 153.208 142.795 155.16 140.315 155.16ZM140.315 153.192C141.419 153.192 142.363 152.312 142.363 150.728C142.363 149.144 141.419 148.28 140.315 148.28C139.211 148.28 138.267 149.144 138.267 150.728C138.267 152.312 139.211 153.192 140.315 153.192ZM149.386 158.248C147.082 158.248 145.546 157 145.45 155.032H147.594C147.69 156.008 148.314 156.52 149.37 156.52C150.602 156.52 151.242 155.864 151.242 154.632V153.384C150.778 154.2 149.898 154.68 148.858 154.68C146.762 154.68 145.194 152.904 145.194 150.488C145.194 148.008 146.666 146.296 148.778 146.296C149.93 146.296 150.794 146.744 151.418 147.624V146.456H153.45V154.6C153.45 156.872 151.914 158.248 149.386 158.248ZM147.418 150.488C147.418 151.88 148.138 152.76 149.29 152.76C150.458 152.76 151.226 151.848 151.226 150.504C151.226 149.112 150.458 148.216 149.29 148.216C148.154 148.216 147.418 149.096 147.418 150.488ZM157.521 150.344V155H155.297V146.456H157.345V147.672C157.969 146.824 158.849 146.296 159.969 146.296C161.681 146.296 162.865 147.416 162.865 149.48V155H160.657V150.232C160.657 148.968 160.161 148.264 159.153 148.264C158.273 148.264 157.521 148.968 157.521 150.344ZM167.198 144.472C167.198 145.224 166.59 145.784 165.71 145.784C164.846 145.784 164.238 145.224 164.238 144.472C164.238 143.688 164.846 143.128 165.71 143.128C166.59 143.128 167.198 143.688 167.198 144.472ZM166.846 155H164.622V146.456H166.846V155ZM173.977 152.84V154.776C173.433 155.048 172.921 155.16 172.265 155.16C170.505 155.16 169.401 154.152 169.401 152.232V148.36H167.673V146.456H169.401V143.928H171.609V146.456H174.057V148.36H171.609V151.72C171.609 152.712 172.057 153.112 172.857 153.112C173.273 153.112 173.657 153.016 173.977 152.84ZM178.843 155.16C176.363 155.16 174.507 153.208 174.507 150.728C174.507 148.232 176.363 146.296 178.843 146.296C181.323 146.296 183.179 148.232 183.179 150.728C183.179 153.208 181.323 155.16 178.843 155.16ZM178.843 153.192C179.947 153.192 180.891 152.312 180.891 150.728C180.891 149.144 179.947 148.28 178.843 148.28C177.739 148.28 176.795 149.144 176.795 150.728C176.795 152.312 177.739 153.192 178.843 153.192Z" fill="#1A1A1A"/>
<path d="M47.1495 175H41.0595V164.948H42.5995V173.614H47.1495V175ZM51.172 175.14C49.072 175.14 47.532 173.488 47.532 171.29C47.532 169.092 49.072 167.44 51.172 167.44C53.272 167.44 54.812 169.092 54.812 171.29C54.812 173.488 53.272 175.14 51.172 175.14ZM51.172 173.894C52.39 173.894 53.356 172.914 53.356 171.29C53.356 169.666 52.39 168.7 51.172 168.7C49.954 168.7 49.002 169.666 49.002 171.29C49.002 172.914 49.954 173.894 51.172 173.894ZM58.8047 177.856C56.8587 177.856 55.5987 176.82 55.5147 175.14H56.8867C56.9707 176.176 57.6427 176.736 58.7907 176.736C60.0647 176.736 60.7367 176.05 60.7367 174.776V173.432C60.3167 174.328 59.4767 174.846 58.4687 174.846C56.6207 174.846 55.3047 173.32 55.3047 171.136C55.3047 168.924 56.5647 167.44 58.4267 167.44C59.4907 167.44 60.3307 167.958 60.8347 168.896V167.58H62.1507V174.748C62.1507 176.694 60.9047 177.856 58.8047 177.856ZM56.7327 171.136C56.7327 172.676 57.4887 173.614 58.7207 173.614C59.9247 173.614 60.7367 172.648 60.7367 171.178C60.7367 169.638 59.9387 168.658 58.7207 168.658C57.5027 168.658 56.7327 169.61 56.7327 171.136ZM66.9362 175.14C64.8362 175.14 63.2962 173.488 63.2962 171.29C63.2962 169.092 64.8362 167.44 66.9362 167.44C69.0362 167.44 70.5762 169.092 70.5762 171.29C70.5762 173.488 69.0362 175.14 66.9362 175.14ZM66.9362 173.894C68.1542 173.894 69.1202 172.914 69.1202 171.29C69.1202 169.666 68.1542 168.7 66.9362 168.7C65.7182 168.7 64.7662 169.666 64.7662 171.29C64.7662 172.914 65.7182 173.894 66.9362 173.894ZM77.6734 175H74.4954V164.948H77.6734C80.8794 164.948 82.7274 166.992 82.7274 169.932C82.7274 172.83 80.8094 175 77.6734 175ZM76.0354 166.278V173.67H77.6034C79.9134 173.67 81.1594 172.242 81.1594 169.932C81.1594 167.664 79.9274 166.278 77.6034 166.278H76.0354ZM86.9992 175.14C84.8572 175.14 83.4152 173.586 83.4152 171.248C83.4152 169.05 84.9132 167.44 86.9572 167.44C89.1692 167.44 90.6392 169.232 90.3872 171.64H84.8572C84.9692 173.152 85.7252 174.034 86.9712 174.034C88.0212 174.034 88.7492 173.46 88.9872 172.494H90.3872C90.0232 174.146 88.7492 175.14 86.9992 175.14ZM86.9292 168.504C85.7952 168.504 85.0252 169.316 84.8712 170.702H88.8892C88.8192 169.33 88.0772 168.504 86.9292 168.504ZM97.4905 172.788C97.4905 174.244 96.3565 175.14 94.3825 175.14C92.4225 175.14 91.2605 174.174 91.1205 172.578H92.4785C92.5345 173.502 93.2765 174.076 94.4105 174.076C95.4045 174.076 96.0625 173.726 96.0625 173.026C96.0625 172.41 95.6845 172.144 94.7605 171.962L93.5565 171.738C92.1845 171.472 91.4145 170.772 91.4145 169.652C91.4145 168.35 92.5485 167.44 94.2705 167.44C96.0485 167.44 97.2525 168.392 97.3785 169.918H96.0205C95.9365 169.022 95.2785 168.504 94.2845 168.504C93.3885 168.504 92.7865 168.882 92.7865 169.526C92.7865 170.128 93.1645 170.408 94.0605 170.576L95.3205 170.814C96.7905 171.08 97.4905 171.724 97.4905 172.788ZM100.476 165.858C100.476 166.39 100.056 166.796 99.4544 166.796C98.8524 166.796 98.4184 166.39 98.4184 165.858C98.4184 165.312 98.8524 164.92 99.4544 164.92C100.056 164.92 100.476 165.312 100.476 165.858ZM100.168 175H98.7544V167.58H100.168V175ZM104.819 177.856C102.873 177.856 101.613 176.82 101.529 175.14H102.901C102.985 176.176 103.657 176.736 104.805 176.736C106.079 176.736 106.751 176.05 106.751 174.776V173.432C106.331 174.328 105.491 174.846 104.483 174.846C102.635 174.846 101.319 173.32 101.319 171.136C101.319 168.924 102.579 167.44 104.441 167.44C105.505 167.44 106.345 167.958 106.849 168.896V167.58H108.165V174.748C108.165 176.694 106.919 177.856 104.819 177.856ZM102.747 171.136C102.747 172.676 103.503 173.614 104.735 173.614C105.939 173.614 106.751 172.648 106.751 171.178C106.751 169.638 105.953 168.658 104.735 168.658C103.517 168.658 102.747 169.61 102.747 171.136ZM111.257 170.814V175H109.843V167.58H111.159V168.812C111.663 167.986 112.503 167.44 113.525 167.44C115.051 167.44 116.059 168.42 116.059 170.198V175H114.645V170.674C114.645 169.4 114.085 168.686 113.035 168.686C112.069 168.686 111.257 169.498 111.257 170.814ZM119.575 174.398C119.575 175.728 118.525 176.764 116.985 176.792V175.994C117.895 175.966 118.511 175.476 118.595 174.79C118.469 174.832 118.385 174.846 118.287 174.846C117.755 174.846 117.363 174.412 117.363 173.894C117.363 173.292 117.811 172.9 118.385 172.9C119.155 172.9 119.575 173.46 119.575 174.398ZM130.883 172.116C130.883 173.95 129.539 175 127.453 175H123.771V164.948H127.257C129.287 164.948 130.505 165.886 130.505 167.58C130.505 168.532 129.931 169.344 128.965 169.764C130.211 170.114 130.883 170.968 130.883 172.116ZM127.159 166.18H125.185V169.204H127.159C128.377 169.204 129.035 168.63 129.035 167.692C129.035 166.754 128.377 166.18 127.159 166.18ZM127.355 170.436H125.185V173.768H127.355C128.671 173.768 129.413 173.138 129.413 172.074C129.413 171.052 128.671 170.436 127.355 170.436ZM133.68 171.206V175H132.266V167.58H133.582V169.148C134.1 168.126 135.22 167.482 136.438 167.482V168.952C134.842 168.868 133.68 169.568 133.68 171.206ZM141.771 175V173.852C141.309 174.678 140.483 175.14 139.391 175.14C137.851 175.14 136.843 174.258 136.843 172.9C136.843 171.444 138.005 170.688 140.217 170.688C140.651 170.688 141.001 170.702 141.603 170.772V170.226C141.603 169.162 141.029 168.56 140.049 168.56C139.013 168.56 138.383 169.176 138.341 170.212H137.053C137.123 168.546 138.313 167.44 140.049 167.44C141.883 167.44 142.947 168.476 142.947 170.24V175H141.771ZM138.187 172.858C138.187 173.628 138.761 174.132 139.671 174.132C140.861 174.132 141.603 173.39 141.603 172.256V171.654C141.057 171.584 140.665 171.57 140.301 171.57C138.887 171.57 138.187 171.99 138.187 172.858ZM145.971 170.814V175H144.557V167.58H145.873V168.812C146.377 167.986 147.217 167.44 148.239 167.44C149.765 167.44 150.773 168.42 150.773 170.198V175H149.359V170.674C149.359 169.4 148.799 168.686 147.749 168.686C146.783 168.686 145.971 169.498 145.971 170.814ZM151.839 171.29C151.839 169.036 153.127 167.44 155.129 167.44C156.123 167.44 156.991 167.944 157.509 168.854V164.948H158.923V175H157.607V173.67C157.075 174.608 156.179 175.14 155.129 175.14C153.127 175.14 151.839 173.516 151.839 171.29ZM153.309 171.29C153.309 172.942 154.177 173.88 155.409 173.88C156.613 173.88 157.509 172.9 157.509 171.262C157.509 169.596 156.585 168.686 155.409 168.686C154.177 168.686 153.309 169.61 153.309 171.29ZM164.906 175H163.366V164.948H164.906V175ZM166.161 171.29C166.161 169.036 167.449 167.44 169.451 167.44C170.445 167.44 171.313 167.944 171.831 168.854V164.948H173.245V175H171.929V173.67C171.397 174.608 170.501 175.14 169.451 175.14C167.449 175.14 166.161 173.516 166.161 171.29ZM167.631 171.29C167.631 172.942 168.499 173.88 169.731 173.88C170.935 173.88 171.831 172.9 171.831 171.262C171.831 169.596 170.907 168.686 169.731 168.686C168.499 168.686 167.631 169.61 167.631 171.29ZM177.983 175.14C175.841 175.14 174.399 173.586 174.399 171.248C174.399 169.05 175.897 167.44 177.941 167.44C180.153 167.44 181.623 169.232 181.371 171.64H175.841C175.953 173.152 176.709 174.034 177.955 174.034C179.005 174.034 179.733 173.46 179.971 172.494H181.371C181.007 174.146 179.733 175.14 177.983 175.14ZM177.913 168.504C176.779 168.504 176.009 169.316 175.855 170.702H179.873C179.803 169.33 179.061 168.504 177.913 168.504ZM184.008 170.814V175H182.594V167.58H183.91V168.812C184.414 167.986 185.254 167.44 186.276 167.44C187.802 167.44 188.81 168.42 188.81 170.198V175H187.396V170.674C187.396 169.4 186.836 168.686 185.786 168.686C184.82 168.686 184.008 169.498 184.008 170.814ZM194.567 173.628V174.874C194.133 175.07 193.755 175.14 193.307 175.14C191.935 175.14 190.983 174.398 190.983 172.76V168.784H189.345V167.58H190.983V165.382H192.397V167.58H194.637V168.784H192.397V172.438C192.397 173.46 192.887 173.824 193.643 173.824C193.979 173.824 194.273 173.768 194.567 173.628ZM197.428 165.858C197.428 166.39 197.008 166.796 196.406 166.796C195.804 166.796 195.37 166.39 195.37 165.858C195.37 165.312 195.804 164.92 196.406 164.92C197.008 164.92 197.428 165.312 197.428 165.858ZM197.12 175H195.706V167.58H197.12V175ZM202.989 173.628V174.874C202.555 175.07 202.177 175.14 201.729 175.14C200.357 175.14 199.405 174.398 199.405 172.76V168.784H197.767V167.58H199.405V165.382H200.819V167.58H203.059V168.784H200.819V172.438C200.819 173.46 201.309 173.824 202.065 173.824C202.401 173.824 202.695 173.768 202.989 173.628ZM210.288 167.58L206.578 177.702H205.038L206.102 174.902L203.176 167.58H204.702L206.858 173.236L208.86 167.58H210.288ZM54.2221 192H51.0441V181.948H54.2221C57.4281 181.948 59.2761 183.992 59.2761 186.932C59.2761 189.83 57.3581 192 54.2221 192ZM52.5841 183.278V190.67H54.1521C56.4621 190.67 57.7081 189.242 57.7081 186.932C57.7081 184.664 56.4761 183.278 54.1521 183.278H52.5841ZM63.5478 192.14C61.4058 192.14 59.9638 190.586 59.9638 188.248C59.9638 186.05 61.4618 184.44 63.5058 184.44C65.7178 184.44 67.1878 186.232 66.9358 188.64H61.4058C61.5178 190.152 62.2738 191.034 63.5198 191.034C64.5698 191.034 65.2978 190.46 65.5358 189.494H66.9358C66.5718 191.146 65.2978 192.14 63.5478 192.14ZM63.4778 185.504C62.3438 185.504 61.5738 186.316 61.4198 187.702H65.4378C65.3678 186.33 64.6258 185.504 63.4778 185.504ZM74.0392 189.788C74.0392 191.244 72.9052 192.14 70.9312 192.14C68.9712 192.14 67.8092 191.174 67.6692 189.578H69.0272C69.0832 190.502 69.8252 191.076 70.9592 191.076C71.9532 191.076 72.6112 190.726 72.6112 190.026C72.6112 189.41 72.2332 189.144 71.3092 188.962L70.1052 188.738C68.7332 188.472 67.9632 187.772 67.9632 186.652C67.9632 185.35 69.0972 184.44 70.8192 184.44C72.5972 184.44 73.8012 185.392 73.9272 186.918H72.5692C72.4852 186.022 71.8272 185.504 70.8332 185.504C69.9372 185.504 69.3352 185.882 69.3352 186.526C69.3352 187.128 69.7132 187.408 70.6092 187.576L71.8692 187.814C73.3392 188.08 74.0392 188.724 74.0392 189.788ZM77.025 182.858C77.025 183.39 76.605 183.796 76.003 183.796C75.401 183.796 74.967 183.39 74.967 182.858C74.967 182.312 75.401 181.92 76.003 181.92C76.605 181.92 77.025 182.312 77.025 182.858ZM76.717 192H75.303V184.58H76.717V192ZM81.368 194.856C79.422 194.856 78.162 193.82 78.078 192.14H79.45C79.534 193.176 80.206 193.736 81.354 193.736C82.628 193.736 83.3 193.05 83.3 191.776V190.432C82.88 191.328 82.04 191.846 81.032 191.846C79.184 191.846 77.868 190.32 77.868 188.136C77.868 185.924 79.128 184.44 80.99 184.44C82.054 184.44 82.894 184.958 83.398 185.896V184.58H84.714V191.748C84.714 193.694 83.468 194.856 81.368 194.856ZM79.296 188.136C79.296 189.676 80.052 190.614 81.284 190.614C82.488 190.614 83.3 189.648 83.3 188.178C83.3 186.638 82.502 185.658 81.284 185.658C80.066 185.658 79.296 186.61 79.296 188.136ZM87.8054 187.814V192H86.3914V184.58H87.7074V185.812C88.2114 184.986 89.0514 184.44 90.0734 184.44C91.5994 184.44 92.6074 185.42 92.6074 187.198V192H91.1934V187.674C91.1934 186.4 90.6334 185.686 89.5834 185.686C88.6174 185.686 87.8054 186.498 87.8054 187.814ZM96.1232 191.398C96.1232 192.728 95.0732 193.764 93.5332 193.792V192.994C94.4432 192.966 95.0592 192.476 95.1432 191.79C95.0172 191.832 94.9332 191.846 94.8352 191.846C94.3032 191.846 93.9112 191.412 93.9112 190.894C93.9112 190.292 94.3592 189.9 94.9332 189.9C95.7032 189.9 96.1232 190.46 96.1232 191.398ZM107.978 192L105.85 184.118L103.708 192H102.126L99.5077 181.948H101.02L102.952 189.69L105.066 181.948H106.662L108.748 189.704L110.68 181.948H112.192L109.574 192H107.978ZM115.599 192.14C113.457 192.14 112.015 190.586 112.015 188.248C112.015 186.05 113.513 184.44 115.557 184.44C117.769 184.44 119.239 186.232 118.987 188.64H113.457C113.569 190.152 114.325 191.034 115.571 191.034C116.621 191.034 117.349 190.46 117.587 189.494H118.987C118.623 191.146 117.349 192.14 115.599 192.14ZM115.529 185.504C114.395 185.504 113.625 186.316 113.471 187.702H117.489C117.419 186.33 116.677 185.504 115.529 185.504ZM127.294 188.29C127.294 190.516 126.006 192.14 124.004 192.14C122.954 192.14 122.058 191.608 121.526 190.67V192H120.21V181.948H121.624V185.854C122.142 184.944 122.996 184.44 124.004 184.44C125.992 184.44 127.294 186.036 127.294 188.29ZM125.824 188.29C125.824 186.61 124.942 185.686 123.724 185.686C122.548 185.686 121.624 186.596 121.624 188.262C121.624 189.9 122.52 190.88 123.724 190.88C124.942 190.88 125.824 189.942 125.824 188.29ZM134.328 189.788C134.328 191.244 133.194 192.14 131.22 192.14C129.26 192.14 128.098 191.174 127.958 189.578H129.316C129.372 190.502 130.114 191.076 131.248 191.076C132.242 191.076 132.9 190.726 132.9 190.026C132.9 189.41 132.522 189.144 131.598 188.962L130.394 188.738C129.022 188.472 128.252 187.772 128.252 186.652C128.252 185.35 129.386 184.44 131.108 184.44C132.886 184.44 134.09 185.392 134.216 186.918H132.858C132.774 186.022 132.116 185.504 131.122 185.504C130.226 185.504 129.624 185.882 129.624 186.526C129.624 187.128 130.002 187.408 130.898 187.576L132.158 187.814C133.628 188.08 134.328 188.724 134.328 189.788ZM137.314 182.858C137.314 183.39 136.894 183.796 136.292 183.796C135.69 183.796 135.256 183.39 135.256 182.858C135.256 182.312 135.69 181.92 136.292 181.92C136.894 181.92 137.314 182.312 137.314 182.858ZM137.006 192H135.592V184.58H137.006V192ZM142.875 190.628V191.874C142.441 192.07 142.063 192.14 141.615 192.14C140.243 192.14 139.291 191.398 139.291 189.76V185.784H137.653V184.58H139.291V182.382H140.705V184.58H142.945V185.784H140.705V189.438C140.705 190.46 141.195 190.824 141.951 190.824C142.287 190.824 142.581 190.768 142.875 190.628ZM146.861 192.14C144.719 192.14 143.277 190.586 143.277 188.248C143.277 186.05 144.775 184.44 146.819 184.44C149.031 184.44 150.501 186.232 150.249 188.64H144.719C144.831 190.152 145.587 191.034 146.833 191.034C147.883 191.034 148.611 190.46 148.849 189.494H150.249C149.885 191.146 148.611 192.14 146.861 192.14ZM146.791 185.504C145.657 185.504 144.887 186.316 144.733 187.702H148.751C148.681 186.33 147.939 185.504 146.791 185.504ZM157.408 192H154.23V181.948H157.408C160.614 181.948 162.462 183.992 162.462 186.932C162.462 189.83 160.544 192 157.408 192ZM155.77 183.278V190.67H157.338C159.648 190.67 160.894 189.242 160.894 186.932C160.894 184.664 159.662 183.278 157.338 183.278H155.77ZM166.734 192.14C164.592 192.14 163.15 190.586 163.15 188.248C163.15 186.05 164.648 184.44 166.692 184.44C168.904 184.44 170.374 186.232 170.122 188.64H164.592C164.704 190.152 165.46 191.034 166.706 191.034C167.756 191.034 168.484 190.46 168.722 189.494H170.122C169.758 191.146 168.484 192.14 166.734 192.14ZM166.664 185.504C165.53 185.504 164.76 186.316 164.606 187.702H168.624C168.554 186.33 167.812 185.504 166.664 185.504ZM177.225 189.788C177.225 191.244 176.091 192.14 174.117 192.14C172.157 192.14 170.995 191.174 170.855 189.578H172.213C172.269 190.502 173.011 191.076 174.145 191.076C175.139 191.076 175.797 190.726 175.797 190.026C175.797 189.41 175.419 189.144 174.495 188.962L173.291 188.738C171.919 188.472 171.149 187.772 171.149 186.652C171.149 185.35 172.283 184.44 174.005 184.44C175.783 184.44 176.987 185.392 177.113 186.918H175.755C175.671 186.022 175.013 185.504 174.019 185.504C173.123 185.504 172.521 185.882 172.521 186.526C172.521 187.128 172.899 187.408 173.795 187.576L175.055 187.814C176.525 188.08 177.225 188.724 177.225 189.788ZM180.211 182.858C180.211 183.39 179.791 183.796 179.189 183.796C178.587 183.796 178.153 183.39 178.153 182.858C178.153 182.312 178.587 181.92 179.189 181.92C179.791 181.92 180.211 182.312 180.211 182.858ZM179.903 192H178.489V184.58H179.903V192ZM184.554 194.856C182.608 194.856 181.348 193.82 181.264 192.14H182.636C182.72 193.176 183.392 193.736 184.54 193.736C185.814 193.736 186.486 193.05 186.486 191.776V190.432C186.066 191.328 185.226 191.846 184.218 191.846C182.37 191.846 181.054 190.32 181.054 188.136C181.054 185.924 182.314 184.44 184.176 184.44C185.24 184.44 186.08 184.958 186.584 185.896V184.58H187.9V191.748C187.9 193.694 186.654 194.856 184.554 194.856ZM182.482 188.136C182.482 189.676 183.238 190.614 184.47 190.614C185.674 190.614 186.486 189.648 186.486 188.178C186.486 186.638 185.688 185.658 184.47 185.658C183.252 185.658 182.482 186.61 182.482 188.136ZM190.991 187.814V192H189.577V184.58H190.893V185.812C191.397 184.986 192.237 184.44 193.259 184.44C194.785 184.44 195.793 185.42 195.793 187.198V192H194.379V187.674C194.379 186.4 193.819 185.686 192.769 185.686C191.803 185.686 190.991 186.498 190.991 187.814ZM199.309 191.398C199.309 192.728 198.259 193.764 196.719 193.792V192.994C197.629 192.966 198.245 192.476 198.329 191.79C198.203 191.832 198.119 191.846 198.021 191.846C197.489 191.846 197.097 191.412 197.097 190.894C197.097 190.292 197.545 189.9 198.119 189.9C198.889 189.9 199.309 190.46 199.309 191.398Z" fill="#1A1A1A"/>
<mask id="path-4-outside-1_1195_252" maskUnits="userSpaceOnUse" x="41.166" y="54.3691" width="160" height="56" fill="black">
<rect fill="white" x="41.166" y="54.3691" width="160" height="56"/>
<path d="M83.6719 69.041C86.744 72.5182 88.6084 77.0869 88.6084 82.0908C88.6084 92.9824 79.7783 101.811 68.8867 101.812C63.8828 101.812 59.3141 99.9474 55.8369 96.876L61.7949 90.918C63.7991 92.5345 66.2753 93.4131 68.8867 93.4131C71.9108 93.4131 74.7541 92.235 76.8926 90.0967C79.0311 87.9582 80.209 85.1151 80.209 82.0908C80.209 79.4795 79.3312 77.0031 77.7148 74.999L83.6719 69.041ZM120.406 84.375C123.368 84.3751 125.538 86.0578 125.858 88.5986H123.217C123.048 87.3704 121.887 86.546 120.406 86.5459C118.505 86.5459 117.04 87.8753 117.04 90.3994C117.04 92.9237 118.505 94.2363 120.406 94.2363C121.921 94.2362 123.081 93.4118 123.283 92.2002H125.808C125.589 94.7244 123.418 96.4247 120.406 96.4248C117.209 96.4248 114.499 94.371 114.499 90.3994C114.499 86.428 117.259 84.375 120.406 84.375ZM132.378 84.375C135.828 84.3751 138.386 86.9329 138.386 90.3994C138.386 93.8661 135.828 96.4247 132.378 96.4248C128.911 96.4248 126.353 93.8662 126.353 90.3994C126.353 86.9328 128.911 84.375 132.378 84.375ZM144.986 84.375C147.948 84.3751 150.068 86.1085 150.22 88.6328H147.713C147.528 87.3708 146.484 86.546 144.97 86.5459C142.967 86.5459 141.418 87.9594 141.418 90.3994C141.418 92.8396 142.967 94.3711 144.919 94.3711C146.383 94.371 147.83 93.3106 147.83 92.2168C147.83 91.9311 147.645 91.7462 147.359 91.7461H145.087V89.8447H148.284C149.378 89.8447 150.187 90.7195 150.187 91.7461V96.29H147.948V94.4893C147.561 95.6504 146.315 96.4248 144.801 96.4248C141.789 96.4247 139.012 94.4214 139.012 90.3994C139.012 86.3775 141.873 84.375 144.986 84.375ZM181.54 84.375C184.99 84.3752 187.548 86.933 187.548 90.3994C187.548 93.866 184.99 96.4246 181.54 96.4248C178.073 96.4248 175.515 93.8662 175.515 90.3994C175.515 86.9328 178.073 84.375 181.54 84.375ZM101.71 96.29H99.1689V84.5098H101.71V96.29ZM110.818 92.3018V84.5098H113.343V96.29H110.65L105.922 88.498V96.29H103.397V84.5098H106.09L110.818 92.3018ZM159.007 92.3018V84.5098H161.531V96.29H158.838L154.109 88.498V96.29H151.585V84.5098H154.277L159.007 92.3018ZM165.75 96.29H163.209V84.5098H165.75V96.29ZM175.969 86.6807H172.485V96.29H169.961V86.6807H166.478V84.5098H175.969V86.6807ZM68.8867 62.3691C73.8906 62.3692 78.4593 64.2336 81.9365 67.3057L75.9785 73.2627C73.9744 71.6463 71.4981 70.7686 68.8867 70.7686C65.8624 70.7686 63.0194 71.9464 60.8809 74.085C58.7425 76.2235 57.5645 79.0667 57.5645 82.0908C57.5645 84.7023 58.4431 87.1785 60.0596 89.1826L54.1006 95.1406C51.0285 91.6634 49.166 87.0947 49.166 82.0908C49.166 71.1992 57.9951 62.3691 68.8867 62.3691ZM132.361 86.5459C130.342 86.5459 128.895 88.195 128.895 90.3994C128.895 92.604 130.342 94.2363 132.361 94.2363C134.381 94.2361 135.845 92.6038 135.845 90.3994C135.845 88.1951 134.38 86.5461 132.361 86.5459ZM181.522 86.5459C179.503 86.5461 178.056 88.1951 178.056 90.3994C178.056 92.6039 179.503 94.2362 181.522 94.2363C183.542 94.2363 185.006 92.604 185.006 90.3994C185.006 88.195 183.542 86.5459 181.522 86.5459ZM68.8867 73.2129C70.8953 73.2129 72.7491 73.8801 74.2363 75.0049L61.8018 87.4395C60.677 85.9522 60.0098 84.0994 60.0098 82.0908C60.0098 77.1877 63.9843 73.2129 68.8867 73.2129ZM190.567 79.5918C191.911 79.5918 193 80.6811 193 82.0244C193 83.3676 191.911 84.4561 190.567 84.4561C189.224 84.456 188.136 83.3676 188.136 82.0244C188.136 80.6812 189.224 79.5919 190.567 79.5918ZM190.567 79.8877C189.388 79.8878 188.431 80.8445 188.431 82.0244C188.431 83.2042 189.388 84.1601 190.567 84.1602C191.747 84.1602 192.704 83.2042 192.704 82.0244C192.704 80.8445 191.747 79.8877 190.567 79.8877ZM190.714 80.9336C191.184 80.9336 191.458 81.2241 191.458 81.6279C191.458 81.8488 191.351 82.0005 191.181 82.0889C191.323 82.1866 191.415 82.3408 191.434 82.5332L191.493 83.1426H191.02L190.96 82.5967C190.944 82.4452 190.837 82.3408 190.688 82.3408H190.26V83.1426H189.783V80.9336H190.714ZM190.26 81.9336H190.688C190.906 81.9336 191.001 81.7888 191.001 81.6279C191.001 81.4702 190.906 81.3281 190.688 81.3281H190.26V81.9336ZM103.156 76.0059L105.563 67.9453H107.7L110.124 76.0059L112.396 67.9453H114.953L111.47 79.7256H108.979L106.64 71.8828L104.301 79.7256H101.844L98.3438 67.9453H100.901L103.156 76.0059ZM123.799 70.1162H118.312V72.6064H122.688V74.7949H118.312V77.5381H123.983V79.7256H115.788V67.9453H123.799V70.1162ZM134.402 67.9453C136.91 67.9454 138.374 69.4935 138.374 71.6475C138.374 72.8255 137.801 73.6333 136.893 74.1045C137.65 74.6262 138.138 75.451 138.239 76.4775L138.559 79.7256H136.034L135.715 76.8145C135.631 76.0067 135.059 75.4512 134.268 75.4512H131.979V79.7256H129.438V67.9453H134.402ZM148.201 70.1162H142.715V72.6064H147.09V74.7949H142.715V77.5381H148.386V79.7256H140.19V67.9453H148.201V70.1162ZM131.979 73.2803H134.268C135.429 73.2803 135.934 72.5057 135.934 71.6475C135.934 70.8061 135.429 70.0488 134.268 70.0488H131.979V73.2803ZM128.14 69.8955C128.14 71.5447 127.146 72.5713 125.413 72.5713H124.74V70.7373H125.026C125.548 70.7371 125.8 70.3156 125.8 69.6426V67.8086H128.14V69.8955Z"/>
</mask>
<path d="M83.6719 69.041C86.744 72.5182 88.6084 77.0869 88.6084 82.0908C88.6084 92.9824 79.7783 101.811 68.8867 101.812C63.8828 101.812 59.3141 99.9474 55.8369 96.876L61.7949 90.918C63.7991 92.5345 66.2753 93.4131 68.8867 93.4131C71.9108 93.4131 74.7541 92.235 76.8926 90.0967C79.0311 87.9582 80.209 85.1151 80.209 82.0908C80.209 79.4795 79.3312 77.0031 77.7148 74.999L83.6719 69.041ZM120.406 84.375C123.368 84.3751 125.538 86.0578 125.858 88.5986H123.217C123.048 87.3704 121.887 86.546 120.406 86.5459C118.505 86.5459 117.04 87.8753 117.04 90.3994C117.04 92.9237 118.505 94.2363 120.406 94.2363C121.921 94.2362 123.081 93.4118 123.283 92.2002H125.808C125.589 94.7244 123.418 96.4247 120.406 96.4248C117.209 96.4248 114.499 94.371 114.499 90.3994C114.499 86.428 117.259 84.375 120.406 84.375ZM132.378 84.375C135.828 84.3751 138.386 86.9329 138.386 90.3994C138.386 93.8661 135.828 96.4247 132.378 96.4248C128.911 96.4248 126.353 93.8662 126.353 90.3994C126.353 86.9328 128.911 84.375 132.378 84.375ZM144.986 84.375C147.948 84.3751 150.068 86.1085 150.22 88.6328H147.713C147.528 87.3708 146.484 86.546 144.97 86.5459C142.967 86.5459 141.418 87.9594 141.418 90.3994C141.418 92.8396 142.967 94.3711 144.919 94.3711C146.383 94.371 147.83 93.3106 147.83 92.2168C147.83 91.9311 147.645 91.7462 147.359 91.7461H145.087V89.8447H148.284C149.378 89.8447 150.187 90.7195 150.187 91.7461V96.29H147.948V94.4893C147.561 95.6504 146.315 96.4248 144.801 96.4248C141.789 96.4247 139.012 94.4214 139.012 90.3994C139.012 86.3775 141.873 84.375 144.986 84.375ZM181.54 84.375C184.99 84.3752 187.548 86.933 187.548 90.3994C187.548 93.866 184.99 96.4246 181.54 96.4248C178.073 96.4248 175.515 93.8662 175.515 90.3994C175.515 86.9328 178.073 84.375 181.54 84.375ZM101.71 96.29H99.1689V84.5098H101.71V96.29ZM110.818 92.3018V84.5098H113.343V96.29H110.65L105.922 88.498V96.29H103.397V84.5098H106.09L110.818 92.3018ZM159.007 92.3018V84.5098H161.531V96.29H158.838L154.109 88.498V96.29H151.585V84.5098H154.277L159.007 92.3018ZM165.75 96.29H163.209V84.5098H165.75V96.29ZM175.969 86.6807H172.485V96.29H169.961V86.6807H166.478V84.5098H175.969V86.6807ZM68.8867 62.3691C73.8906 62.3692 78.4593 64.2336 81.9365 67.3057L75.9785 73.2627C73.9744 71.6463 71.4981 70.7686 68.8867 70.7686C65.8624 70.7686 63.0194 71.9464 60.8809 74.085C58.7425 76.2235 57.5645 79.0667 57.5645 82.0908C57.5645 84.7023 58.4431 87.1785 60.0596 89.1826L54.1006 95.1406C51.0285 91.6634 49.166 87.0947 49.166 82.0908C49.166 71.1992 57.9951 62.3691 68.8867 62.3691ZM132.361 86.5459C130.342 86.5459 128.895 88.195 128.895 90.3994C128.895 92.604 130.342 94.2363 132.361 94.2363C134.381 94.2361 135.845 92.6038 135.845 90.3994C135.845 88.1951 134.38 86.5461 132.361 86.5459ZM181.522 86.5459C179.503 86.5461 178.056 88.1951 178.056 90.3994C178.056 92.6039 179.503 94.2362 181.522 94.2363C183.542 94.2363 185.006 92.604 185.006 90.3994C185.006 88.195 183.542 86.5459 181.522 86.5459ZM68.8867 73.2129C70.8953 73.2129 72.7491 73.8801 74.2363 75.0049L61.8018 87.4395C60.677 85.9522 60.0098 84.0994 60.0098 82.0908C60.0098 77.1877 63.9843 73.2129 68.8867 73.2129ZM190.567 79.5918C191.911 79.5918 193 80.6811 193 82.0244C193 83.3676 191.911 84.4561 190.567 84.4561C189.224 84.456 188.136 83.3676 188.136 82.0244C188.136 80.6812 189.224 79.5919 190.567 79.5918ZM190.567 79.8877C189.388 79.8878 188.431 80.8445 188.431 82.0244C188.431 83.2042 189.388 84.1601 190.567 84.1602C191.747 84.1602 192.704 83.2042 192.704 82.0244C192.704 80.8445 191.747 79.8877 190.567 79.8877ZM190.714 80.9336C191.184 80.9336 191.458 81.2241 191.458 81.6279C191.458 81.8488 191.351 82.0005 191.181 82.0889C191.323 82.1866 191.415 82.3408 191.434 82.5332L191.493 83.1426H191.02L190.96 82.5967C190.944 82.4452 190.837 82.3408 190.688 82.3408H190.26V83.1426H189.783V80.9336H190.714ZM190.26 81.9336H190.688C190.906 81.9336 191.001 81.7888 191.001 81.6279C191.001 81.4702 190.906 81.3281 190.688 81.3281H190.26V81.9336ZM103.156 76.0059L105.563 67.9453H107.7L110.124 76.0059L112.396 67.9453H114.953L111.47 79.7256H108.979L106.64 71.8828L104.301 79.7256H101.844L98.3438 67.9453H100.901L103.156 76.0059ZM123.799 70.1162H118.312V72.6064H122.688V74.7949H118.312V77.5381H123.983V79.7256H115.788V67.9453H123.799V70.1162ZM134.402 67.9453C136.91 67.9454 138.374 69.4935 138.374 71.6475C138.374 72.8255 137.801 73.6333 136.893 74.1045C137.65 74.6262 138.138 75.451 138.239 76.4775L138.559 79.7256H136.034L135.715 76.8145C135.631 76.0067 135.059 75.4512 134.268 75.4512H131.979V79.7256H129.438V67.9453H134.402ZM148.201 70.1162H142.715V72.6064H147.09V74.7949H142.715V77.5381H148.386V79.7256H140.19V67.9453H148.201V70.1162ZM131.979 73.2803H134.268C135.429 73.2803 135.934 72.5057 135.934 71.6475C135.934 70.8061 135.429 70.0488 134.268 70.0488H131.979V73.2803ZM128.14 69.8955C128.14 71.5447 127.146 72.5713 125.413 72.5713H124.74V70.7373H125.026C125.548 70.7371 125.8 70.3156 125.8 69.6426V67.8086H128.14V69.8955Z" fill="#1A1A1A"/>
<path d="M83.6719 69.041L89.6672 63.7442C88.2055 62.0898 86.1252 61.1129 83.9186 61.0448C81.7121 60.9767 79.5754 61.8235 78.0146 63.3846L83.6719 69.041ZM88.6084 82.0908L96.6084 82.0908V82.0908H88.6084ZM68.8867 101.812V109.812H68.8868L68.8867 101.812ZM55.8369 96.876L50.1801 91.2191C48.619 92.7802 47.7725 94.9169 47.8407 97.1234C47.909 99.33 48.8861 101.41 50.5407 102.872L55.8369 96.876ZM61.7949 90.918L66.8174 84.691C63.635 82.1242 59.0292 82.37 56.1381 85.2611L61.7949 90.918ZM68.8867 93.4131V101.413H68.8868L68.8867 93.4131ZM76.8926 90.0967L82.5492 95.7537L82.5494 95.7535L76.8926 90.0967ZM80.209 82.0908L88.209 82.0909V82.0908H80.209ZM77.7148 74.999L72.0575 69.3426C69.1669 72.2337 68.9212 76.8391 71.4878 80.0213L77.7148 74.999ZM120.406 84.375L120.407 76.375H120.406V84.375ZM125.858 88.5986V96.5986C128.154 96.5986 130.34 95.6122 131.858 93.8904C133.377 92.1685 134.083 89.8772 133.796 87.5993L125.858 88.5986ZM123.217 88.5986L115.291 89.6855C115.834 93.6467 119.219 96.5986 123.217 96.5986V88.5986ZM120.406 86.5459L120.407 78.5459H120.406V86.5459ZM117.04 90.3994L109.04 90.3991V90.3994H117.04ZM120.406 94.2363V102.236H120.407L120.406 94.2363ZM123.283 92.2002V84.2002C119.372 84.2002 116.035 87.0275 115.392 90.885L123.283 92.2002ZM125.808 92.2002L133.778 92.8909C133.971 90.6575 133.219 88.4453 131.704 86.7931C130.188 85.1408 128.049 84.2002 125.808 84.2002V92.2002ZM120.406 96.4248V104.425H120.407L120.406 96.4248ZM114.499 90.3994L106.499 90.3991V90.3994H114.499ZM132.378 84.375L132.378 76.375H132.378V84.375ZM138.386 90.3994H146.386V90.3991L138.386 90.3994ZM132.378 96.4248V104.425H132.378L132.378 96.4248ZM126.353 90.3994L118.353 90.3991V90.3994H126.353ZM144.986 84.375L144.986 76.375H144.986V84.375ZM150.22 88.6328V96.6328C152.425 96.6328 154.532 95.7228 156.044 94.1177C157.555 92.5125 158.337 90.3546 158.205 88.1537L150.22 88.6328ZM147.713 88.6328L139.798 89.7937C140.374 93.7216 143.743 96.6328 147.713 96.6328V88.6328ZM144.97 86.5459L144.97 78.5459H144.97V86.5459ZM141.418 90.3994L133.418 90.399V90.3994H141.418ZM144.919 94.3711V102.371H144.919L144.919 94.3711ZM147.83 92.2168H155.83V92.2117L147.83 92.2168ZM147.359 91.7461L147.364 83.7461H147.359V91.7461ZM145.087 91.7461H137.087C137.087 96.1644 140.669 99.7461 145.087 99.7461V91.7461ZM145.087 89.8447V81.8447C140.669 81.8447 137.087 85.4264 137.087 89.8447H145.087ZM150.187 96.29V104.29C154.605 104.29 158.187 100.708 158.187 96.29H150.187ZM147.948 96.29H139.948C139.948 100.708 143.53 104.29 147.948 104.29V96.29ZM147.948 94.4893H155.948C155.948 90.5657 153.103 87.2211 149.23 86.5926C145.357 85.964 141.6 88.237 140.359 91.9592L147.948 94.4893ZM144.801 96.4248L144.8 104.425H144.801V96.4248ZM139.012 90.3994L131.012 90.3991V90.3994H139.012ZM181.54 84.375L181.541 76.375H181.54V84.375ZM187.548 90.3994H195.548V90.3991L187.548 90.3994ZM181.54 96.4248V104.425H181.541L181.54 96.4248ZM175.515 90.3994L167.515 90.3991V90.3994H175.515ZM101.71 96.29V104.29C106.128 104.29 109.71 100.708 109.71 96.29H101.71ZM99.1689 96.29H91.1689C91.1689 100.708 94.7507 104.29 99.1689 104.29V96.29ZM99.1689 84.5098V76.5098C94.7507 76.5098 91.1689 80.0915 91.1689 84.5098H99.1689ZM101.71 84.5098H109.71C109.71 80.0915 106.128 76.5098 101.71 76.5098V84.5098ZM110.818 92.3018L103.979 96.4521C105.841 99.5198 109.517 100.973 112.973 100.006C116.429 99.0396 118.818 95.8902 118.818 92.3018H110.818ZM110.818 84.5098V76.5098C106.4 76.5098 102.818 80.0915 102.818 84.5098H110.818ZM113.343 84.5098H121.343C121.343 80.0915 117.761 76.5098 113.343 76.5098V84.5098ZM113.343 96.29V104.29C117.761 104.29 121.343 100.708 121.343 96.29H113.343ZM110.65 96.29L103.811 100.44C105.262 102.831 107.855 104.29 110.65 104.29V96.29ZM105.922 88.498L112.761 84.3477C110.899 81.28 107.223 79.8272 103.767 80.7937C100.311 81.7602 97.9219 84.9096 97.9219 88.498H105.922ZM105.922 96.29V104.29C110.34 104.29 113.922 100.708 113.922 96.29H105.922ZM103.397 96.29H95.3975C95.3975 100.708 98.9792 104.29 103.397 104.29V96.29ZM103.397 84.5098V76.5098C98.9792 76.5098 95.3975 80.0915 95.3975 84.5098H103.397ZM106.09 84.5098L112.929 80.3594C111.479 77.9693 108.886 76.5098 106.09 76.5098V84.5098ZM159.007 92.3018L152.168 96.4527C154.03 99.5202 157.706 100.973 161.162 100.006C164.618 99.0393 167.007 95.89 167.007 92.3018H159.007ZM159.007 84.5098V76.5098C154.589 76.5098 151.007 80.0915 151.007 84.5098H159.007ZM161.531 84.5098H169.531C169.531 80.0915 165.95 76.5098 161.531 76.5098V84.5098ZM161.531 96.29V104.29C165.95 104.29 169.531 100.708 169.531 96.29H161.531ZM158.838 96.29L151.999 100.44C153.449 102.831 156.042 104.29 158.838 104.29V96.29ZM154.109 88.498L160.949 84.3477C159.087 81.28 155.41 79.8272 151.955 80.7937C148.499 81.7602 146.109 84.9096 146.109 88.498H154.109ZM154.109 96.29V104.29C158.528 104.29 162.109 100.708 162.109 96.29H154.109ZM151.585 96.29H143.585C143.585 100.708 147.167 104.29 151.585 104.29V96.29ZM151.585 84.5098V76.5098C147.167 76.5098 143.585 80.0915 143.585 84.5098H151.585ZM154.277 84.5098L161.116 80.3588C159.666 77.969 157.073 76.5098 154.277 76.5098V84.5098ZM165.75 96.29V104.29C170.168 104.29 173.75 100.708 173.75 96.29H165.75ZM163.209 96.29H155.209C155.209 100.708 158.791 104.29 163.209 104.29V96.29ZM163.209 84.5098V76.5098C158.791 76.5098 155.209 80.0915 155.209 84.5098H163.209ZM165.75 84.5098H173.75C173.75 80.0915 170.168 76.5098 165.75 76.5098V84.5098ZM175.969 86.6807V94.6807C180.387 94.6807 183.969 91.0989 183.969 86.6807H175.969ZM172.485 86.6807V78.6807C168.067 78.6807 164.485 82.2624 164.485 86.6807H172.485ZM172.485 96.29V104.29C176.904 104.29 180.485 100.708 180.485 96.29H172.485ZM169.961 96.29H161.961C161.961 100.708 165.543 104.29 169.961 104.29V96.29ZM169.961 86.6807H177.961C177.961 82.2624 174.379 78.6807 169.961 78.6807V86.6807ZM166.478 86.6807H158.478C158.478 91.0989 162.059 94.6807 166.478 94.6807V86.6807ZM166.478 84.5098V76.5098C162.059 76.5098 158.478 80.0915 158.478 84.5098H166.478ZM175.969 84.5098H183.969C183.969 80.0915 180.387 76.5098 175.969 76.5098V84.5098ZM68.8867 62.3691L68.8868 54.3691H68.8867V62.3691ZM81.9365 67.3057L87.5929 72.963C89.1541 71.4021 90.0008 69.2655 89.9327 67.0589C89.8646 64.8524 88.8878 62.772 87.2334 61.3104L81.9365 67.3057ZM75.9785 73.2627L70.9561 79.4897C74.1383 82.0563 78.7438 81.8107 81.6349 78.92L75.9785 73.2627ZM68.8867 70.7686L68.8868 62.7686H68.8867V70.7686ZM60.8809 74.085L55.224 68.4281L55.2238 68.4283L60.8809 74.085ZM57.5645 82.0908H49.5645V82.0909L57.5645 82.0908ZM60.0596 89.1826L65.716 94.8399C68.6075 91.9489 68.8535 87.3428 66.2865 84.1601L60.0596 89.1826ZM54.1006 95.1406L48.1053 100.437C49.5668 102.092 51.6469 103.069 53.8532 103.137C56.0595 103.205 58.196 102.359 59.757 100.798L54.1006 95.1406ZM49.166 82.0908H41.166V82.0908L49.166 82.0908ZM132.361 86.5459L132.362 78.5459H132.361V86.5459ZM128.895 90.3994L120.895 90.399V90.3994H128.895ZM132.361 94.2363V102.236H132.362L132.361 94.2363ZM135.845 90.3994H143.845V90.399L135.845 90.3994ZM181.522 86.5459V78.5459H181.522L181.522 86.5459ZM178.056 90.3994L170.056 90.399V90.3994H178.056ZM181.522 94.2363L181.522 102.236H181.522V94.2363ZM185.006 90.3994H193.006V90.399L185.006 90.3994ZM68.8867 73.2129L68.8868 65.2129H68.8867V73.2129ZM74.2363 75.0049L79.8932 80.6617C81.5291 79.0258 82.3767 76.7618 82.2173 74.4538C82.058 72.1458 80.9072 70.0198 79.062 68.6242L74.2363 75.0049ZM61.8018 87.4395L55.4211 92.2651C56.8166 94.1103 58.9426 95.2611 61.2506 95.4204C63.5587 95.5798 65.8227 94.7322 67.4586 93.0963L61.8018 87.4395ZM60.0098 82.0908H52.0098V82.0909L60.0098 82.0908ZM190.567 79.5918V71.5918H190.567L190.567 79.5918ZM193 82.0244L201 82.0252V82.0244H193ZM190.567 84.4561L190.567 92.4561H190.567V84.4561ZM188.136 82.0244H180.136V82.0252L188.136 82.0244ZM190.567 79.8877V71.8877H190.567L190.567 79.8877ZM188.431 82.0244H180.431V82.0253L188.431 82.0244ZM190.567 84.1602L190.567 92.1602H190.567V84.1602ZM192.704 82.0244L200.704 82.0253V82.0244H192.704ZM190.714 80.9336L190.714 72.9336H190.714V80.9336ZM191.458 81.6279L199.458 81.6288V81.6279H191.458ZM191.181 82.0889L187.498 74.9868C185.005 76.2798 183.372 78.7859 183.196 81.5893C183.021 84.3927 184.329 87.0828 186.642 88.6765L191.181 82.0889ZM191.434 82.5332L199.396 81.7549L199.395 81.7477L191.434 82.5332ZM191.493 83.1426V91.1426C193.75 91.1426 195.902 90.1891 197.419 88.5172C198.935 86.8453 199.675 84.6107 199.455 82.3642L191.493 83.1426ZM191.02 83.1426L183.067 84.0104C183.51 88.0687 186.937 91.1426 191.02 91.1426V83.1426ZM190.96 82.5967L183.003 83.4255C183.004 83.4385 183.006 83.4515 183.007 83.4645L190.96 82.5967ZM190.26 82.3408V74.3408C185.841 74.3408 182.26 77.9225 182.26 82.3408H190.26ZM190.26 83.1426V91.1426C194.678 91.1426 198.26 87.5609 198.26 83.1426H190.26ZM189.783 83.1426H181.783C181.783 87.5609 185.365 91.1426 189.783 91.1426V83.1426ZM189.783 80.9336V72.9336C185.365 72.9336 181.783 76.5153 181.783 80.9336H189.783ZM190.26 81.9336H182.26C182.26 86.3519 185.841 89.9336 190.26 89.9336V81.9336ZM191.001 81.6279L199.001 81.6294V81.6279H191.001ZM190.26 81.3281V73.3281C185.841 73.3281 182.26 76.9098 182.26 81.3281H190.26ZM103.156 76.0059L95.452 78.1611C96.4117 81.5917 99.5242 83.9745 103.086 84.0056C106.649 84.0366 109.802 81.7085 110.822 78.2951L103.156 76.0059ZM105.563 67.9453V59.9453C102.027 59.9453 98.91 62.2674 97.898 65.6561L105.563 67.9453ZM107.7 67.9453L115.361 65.6416C114.345 62.2602 111.231 59.9453 107.7 59.9453V67.9453ZM110.124 76.0059L102.463 78.3096C103.487 81.7157 106.637 84.0365 110.194 84.0056C113.75 83.9746 116.859 81.5992 117.824 78.1758L110.124 76.0059ZM112.396 67.9453V59.9453C108.813 59.9453 105.667 62.3271 104.695 65.7754L112.396 67.9453ZM114.953 67.9453L122.625 70.2138C123.34 67.7941 122.872 65.1786 121.362 63.1572C119.852 61.1358 117.476 59.9453 114.953 59.9453V67.9453ZM111.47 79.7256V87.7256C115.014 87.7256 118.136 85.3931 119.141 81.9941L111.47 79.7256ZM108.979 79.7256L101.313 82.0127C102.325 85.4024 105.442 87.7256 108.979 87.7256V79.7256ZM106.64 71.8828L114.306 69.5957C113.294 66.2058 110.177 63.8826 106.639 63.8828C103.102 63.883 99.9843 66.2066 98.9733 69.5966L106.64 71.8828ZM104.301 79.7256V87.7256C107.838 87.7256 110.956 85.402 111.967 82.0118L104.301 79.7256ZM101.844 79.7256L94.1751 82.004C95.1835 85.3981 98.303 87.7256 101.844 87.7256V79.7256ZM98.3438 67.9453V59.9453C95.8186 59.9453 93.4418 61.1375 91.9318 63.1613C90.4218 65.1852 89.9559 67.8032 90.6751 70.2237L98.3438 67.9453ZM100.901 67.9453L108.606 65.7901C107.639 62.3345 104.49 59.9453 100.901 59.9453V67.9453ZM123.799 70.1162V78.1162C128.217 78.1162 131.799 74.5345 131.799 70.1162H123.799ZM118.312 70.1162V62.1162C113.894 62.1162 110.312 65.6979 110.312 70.1162H118.312ZM118.312 72.6064H110.312C110.312 77.0247 113.894 80.6064 118.312 80.6064V72.6064ZM122.688 72.6064H130.688C130.688 68.1882 127.106 64.6064 122.688 64.6064V72.6064ZM122.688 74.7949V82.7949C127.106 82.7949 130.688 79.2132 130.688 74.7949H122.688ZM118.312 74.7949V66.7949C113.894 66.7949 110.312 70.3766 110.312 74.7949H118.312ZM118.312 77.5381H110.312C110.312 81.9564 113.894 85.5381 118.312 85.5381V77.5381ZM123.983 77.5381H131.983C131.983 73.1198 128.402 69.5381 123.983 69.5381V77.5381ZM123.983 79.7256V87.7256C128.402 87.7256 131.983 84.1439 131.983 79.7256H123.983ZM115.788 79.7256H107.788C107.788 84.1439 111.37 87.7256 115.788 87.7256V79.7256ZM115.788 67.9453V59.9453C111.37 59.9453 107.788 63.527 107.788 67.9453H115.788ZM123.799 67.9453H131.799C131.799 63.527 128.217 59.9453 123.799 59.9453V67.9453ZM134.402 67.9453L134.402 59.9453H134.402V67.9453ZM138.374 71.6475H146.374V71.6471L138.374 71.6475ZM136.893 74.1045L133.21 67.0025C130.716 68.2955 129.083 70.8017 128.908 73.6053C128.733 76.4089 130.041 79.099 132.354 80.6926L136.893 74.1045ZM138.239 76.4775L146.201 75.6948L146.201 75.6944L138.239 76.4775ZM138.559 79.7256V87.7256C140.817 87.7256 142.969 86.7714 144.486 85.0986C146.002 83.4257 146.741 81.1899 146.52 78.9428L138.559 79.7256ZM136.034 79.7256L128.082 80.5979C128.527 84.6543 131.954 87.7256 136.034 87.7256V79.7256ZM135.715 76.8145L127.758 77.6433C127.759 77.6578 127.761 77.6723 127.763 77.6868L135.715 76.8145ZM131.979 75.4512V67.4512C127.56 67.4512 123.979 71.0329 123.979 75.4512H131.979ZM131.979 79.7256V87.7256C136.397 87.7256 139.979 84.1439 139.979 79.7256H131.979ZM129.438 79.7256H121.438C121.438 84.1439 125.019 87.7256 129.438 87.7256V79.7256ZM129.438 67.9453V59.9453C125.019 59.9453 121.438 63.527 121.438 67.9453H129.438ZM148.201 70.1162V78.1162C152.619 78.1162 156.201 74.5345 156.201 70.1162H148.201ZM142.715 70.1162V62.1162C138.297 62.1162 134.715 65.6979 134.715 70.1162H142.715ZM142.715 72.6064H134.715C134.715 77.0247 138.297 80.6064 142.715 80.6064V72.6064ZM147.09 72.6064H155.09C155.09 68.1882 151.508 64.6064 147.09 64.6064V72.6064ZM147.09 74.7949V82.7949C151.508 82.7949 155.09 79.2132 155.09 74.7949H147.09ZM142.715 74.7949V66.7949C138.297 66.7949 134.715 70.3766 134.715 74.7949H142.715ZM142.715 77.5381H134.715C134.715 81.9564 138.297 85.5381 142.715 85.5381V77.5381ZM148.386 77.5381H156.386C156.386 73.1198 152.804 69.5381 148.386 69.5381V77.5381ZM148.386 79.7256V87.7256C152.804 87.7256 156.386 84.1439 156.386 79.7256H148.386ZM140.19 79.7256H132.19C132.19 84.1439 135.772 87.7256 140.19 87.7256V79.7256ZM140.19 67.9453V59.9453C135.772 59.9453 132.19 63.527 132.19 67.9453H140.19ZM148.201 67.9453H156.201C156.201 63.527 152.619 59.9453 148.201 59.9453V67.9453ZM131.979 73.2803H123.979C123.979 77.6986 127.56 81.2803 131.979 81.2803V73.2803ZM135.934 71.6475H143.934V71.6467L135.934 71.6475ZM131.979 70.0488V62.0488C127.56 62.0488 123.979 65.6306 123.979 70.0488H131.979ZM128.14 69.8955L136.14 69.8956V69.8955H128.14ZM125.413 72.5713V80.5713H125.413L125.413 72.5713ZM124.74 72.5713H116.74C116.74 76.9896 120.322 80.5713 124.74 80.5713V72.5713ZM124.74 70.7373V62.7373C120.322 62.7373 116.74 66.319 116.74 70.7373H124.74ZM125.026 70.7373V78.7373H125.03L125.026 70.7373ZM125.8 67.8086V59.8086C121.382 59.8086 117.8 63.3903 117.8 67.8086H125.8ZM128.14 67.8086H136.14C136.14 63.3903 132.558 59.8086 128.14 59.8086V67.8086ZM83.6719 69.041L77.6766 74.3379C79.507 76.4097 80.6084 79.1123 80.6084 82.0908H88.6084H96.6084C96.6084 75.0616 93.9809 68.6268 89.6672 63.7442L83.6719 69.041ZM88.6084 82.0908L80.6084 82.0908C80.6084 88.5636 75.3605 93.8115 68.8867 93.8115L68.8867 101.812L68.8868 109.812C84.196 109.811 96.6084 97.4012 96.6084 82.0908L88.6084 82.0908ZM68.8867 101.812V93.8115C65.9077 93.8115 63.2049 92.7102 61.1331 90.8801L55.8369 96.876L50.5407 102.872C55.4233 107.185 61.8579 109.812 68.8867 109.812V101.812ZM55.8369 96.876L61.4938 102.533L67.4518 96.5748L61.7949 90.918L56.1381 85.2611L50.1801 91.2191L55.8369 96.876ZM61.7949 90.918L56.7724 97.1449C60.2024 99.9114 64.452 101.413 68.8867 101.413V93.4131V85.4131C68.0986 85.4131 67.3958 85.1575 66.8174 84.691L61.7949 90.918ZM68.8867 93.4131L68.8868 101.413C74.0332 101.413 78.911 99.3917 82.5492 95.7537L76.8926 90.0967L71.2359 84.4396C70.5972 85.0783 69.7884 85.4131 68.8866 85.4131L68.8867 93.4131ZM76.8926 90.0967L82.5494 95.7535C86.1879 92.115 88.209 87.2373 88.209 82.0909L80.209 82.0908L72.209 82.0908C72.209 82.9929 71.8743 83.8013 71.2357 84.4398L76.8926 90.0967ZM80.209 82.0908H88.209C88.209 77.6581 86.7093 73.408 83.9419 69.9767L77.7148 74.999L71.4878 80.0213C71.9531 80.5983 72.209 81.3009 72.209 82.0908H80.209ZM77.7148 74.999L83.3722 80.6554L89.3292 74.6974L83.6719 69.041L78.0146 63.3846L72.0575 69.3426L77.7148 74.999ZM120.406 84.375L120.406 92.375C120.388 92.375 119.875 92.3633 119.223 91.8579C118.509 91.3048 118.028 90.451 117.921 89.598L125.858 88.5986L133.796 87.5993C132.863 80.1938 126.463 76.3752 120.407 76.375L120.406 84.375ZM125.858 88.5986V80.5986H123.217V88.5986V96.5986H125.858V88.5986ZM123.217 88.5986L131.143 87.5117C130.266 81.1221 124.541 78.5462 120.407 78.5459L120.406 86.5459L120.406 94.5459C119.696 94.5458 118.658 94.3494 117.611 93.5906C116.501 92.7868 115.53 91.4252 115.291 89.6855L123.217 88.5986ZM120.406 86.5459V78.5459C117.537 78.5459 114.468 79.5926 112.158 82.0716C109.877 84.5187 109.04 87.5945 109.04 90.3991L117.04 90.3994L125.04 90.3998C125.04 90.6802 124.935 91.8293 123.862 92.9806C122.759 94.1639 121.374 94.5459 120.406 94.5459V86.5459ZM117.04 90.3994H109.04C109.04 93.2052 109.878 96.289 112.175 98.7379C114.499 101.214 117.567 102.236 120.406 102.236V94.2363V86.2363C121.344 86.2363 122.729 86.6021 123.845 87.7911C124.934 88.9526 125.04 90.1179 125.04 90.3994H117.04ZM120.406 94.2363L120.407 102.236C124.563 102.236 130.141 99.7141 131.174 93.5154L123.283 92.2002L115.392 90.885C115.672 89.2058 116.633 87.9093 117.712 87.1449C118.739 86.4176 119.741 86.2364 120.406 86.2363L120.406 94.2363ZM123.283 92.2002V100.2H125.808V92.2002V84.2002H123.283V92.2002ZM125.808 92.2002L117.837 91.5095C117.924 90.517 118.459 89.5579 119.224 88.9587C119.912 88.421 120.435 88.4248 120.406 88.4248L120.406 96.4248L120.407 104.425C126.39 104.425 133.107 100.629 133.778 92.8909L125.808 92.2002ZM120.406 96.4248V88.4248C120.49 88.4248 121.083 88.4627 121.725 89.0654C122.042 89.3619 122.262 89.703 122.388 90.0148C122.51 90.3173 122.499 90.4771 122.499 90.3994H114.499H106.499C106.499 94.3073 107.892 98.0283 110.782 100.738C113.579 103.36 117.125 104.425 120.406 104.425V96.4248ZM114.499 90.3994L122.499 90.3997C122.499 90.3409 122.507 90.5116 122.381 90.818C122.253 91.1319 122.033 91.465 121.727 91.7505C121.111 92.3242 120.538 92.375 120.406 92.375V84.375V76.375C117.128 76.375 113.601 77.4523 110.818 80.0454C107.936 82.7319 106.499 86.446 106.499 90.3991L114.499 90.3994ZM132.378 84.375L132.378 92.375C132.071 92.375 131.507 92.2338 131.013 91.7387C130.519 91.2439 130.386 90.6876 130.386 90.3997L138.386 90.3994L146.386 90.3991C146.385 82.529 140.26 76.3752 132.378 76.375L132.378 84.375ZM138.386 90.3994H130.386C130.386 90.1117 130.519 89.5558 131.013 89.0612C131.506 88.5663 132.07 88.4248 132.378 88.4248L132.378 96.4248L132.378 104.425C140.262 104.425 146.386 98.2685 146.386 90.3994H138.386ZM132.378 96.4248V88.4248C132.667 88.4248 133.226 88.559 133.722 89.0553C134.218 89.5516 134.353 90.1107 134.353 90.3994H126.353H118.353C118.353 98.2844 124.493 104.425 132.378 104.425V96.4248ZM126.353 90.3994L134.353 90.3997C134.353 90.6887 134.218 91.2481 133.722 91.7447C133.225 92.2411 132.666 92.375 132.378 92.375V84.375V76.375C124.494 76.375 118.353 82.5131 118.353 90.3991L126.353 90.3994ZM144.986 84.375L144.986 92.375C144.929 92.375 144.33 92.3512 143.604 91.7594C142.804 91.108 142.294 90.1045 142.234 89.112L150.22 88.6328L158.205 88.1537C157.74 80.3959 151.09 76.3751 144.986 76.375L144.986 84.375ZM150.22 88.6328V80.6328H147.713V88.6328V96.6328H150.22V88.6328ZM147.713 88.6328L155.628 87.4719C154.754 81.5119 149.623 78.5463 144.97 78.5459L144.97 86.5459L144.969 94.5459C144.288 94.5458 143.126 94.3518 141.963 93.4582C140.738 92.5163 139.997 91.1546 139.798 89.7937L147.713 88.6328ZM144.97 86.5459V78.5459C142.044 78.5459 139.001 79.6121 136.696 81.9922C134.387 84.3763 133.418 87.4514 133.418 90.399L141.418 90.3994L149.418 90.3998C149.418 90.9074 149.223 92.0558 148.19 93.1231C147.16 94.1864 145.893 94.5459 144.97 94.5459V86.5459ZM141.418 90.3994H133.418C133.418 93.3296 134.371 96.343 136.542 98.7092C138.732 101.096 141.768 102.371 144.919 102.371V94.3711V86.3711C146.118 86.3711 147.403 86.8803 148.331 87.8915C149.24 88.8818 149.418 89.9094 149.418 90.3994H141.418ZM144.919 94.3711L144.919 102.371C147.481 102.371 149.853 101.484 151.672 100.142C153.301 98.941 155.83 96.2992 155.83 92.2168H147.83H139.83C139.83 89.2282 141.636 87.6636 142.175 87.2661C142.905 86.7277 143.821 86.3711 144.919 86.3711L144.919 94.3711ZM147.83 92.2168L155.83 92.2117C155.829 90.3138 155.179 88.0383 153.359 86.2177C151.538 84.3969 149.262 83.7471 147.364 83.7461L147.359 91.7461L147.355 99.7461C145.742 99.7453 143.702 99.1879 142.045 97.531C140.388 95.8742 139.831 93.834 139.83 92.2219L147.83 92.2168ZM147.359 91.7461V83.7461H145.087V91.7461V99.7461H147.359V91.7461ZM145.087 91.7461H153.087V89.8447H145.087H137.087V91.7461H145.087ZM145.087 89.8447V97.8447H148.284V89.8447V81.8447H145.087V89.8447ZM148.284 89.8447V97.8447C144.781 97.8447 142.187 94.9571 142.187 91.7461H150.187H158.187C158.187 86.482 153.975 81.8447 148.284 81.8447V89.8447ZM150.187 91.7461H142.187V96.29H150.187H158.187V91.7461H150.187ZM150.187 96.29V88.29H147.948V96.29V104.29H150.187V96.29ZM147.948 96.29H155.948V94.4893H147.948H139.948V96.29H147.948ZM147.948 94.4893L140.359 91.9592C141.344 89.0035 143.862 88.4248 144.801 88.4248V96.4248V104.425C148.768 104.425 153.778 102.297 155.538 97.0193L147.948 94.4893ZM144.801 96.4248L144.801 88.4248C145.028 88.4248 145.631 88.5058 146.248 89.0834C146.556 89.3726 146.774 89.7064 146.9 90.0155C147.023 90.3171 147.012 90.477 147.012 90.3994H139.012H131.012C131.012 94.366 132.444 98.0746 135.306 100.757C138.063 103.342 141.561 104.425 144.8 104.425L144.801 96.4248ZM139.012 90.3994L147.012 90.3997C147.012 90.3524 147.017 90.5407 146.882 90.8635C146.743 91.1928 146.514 91.5252 146.211 91.8004C145.617 92.3399 145.091 92.375 144.986 92.375V84.375V76.375C141.769 76.375 138.255 77.4114 135.452 79.9576C132.523 82.619 131.012 86.3534 131.012 90.3991L139.012 90.3994ZM181.54 84.375L181.54 92.375C181.233 92.375 180.669 92.2338 180.175 91.7389C179.681 91.2441 179.548 90.6878 179.548 90.3997L187.548 90.3994L195.548 90.3991C195.548 82.5288 189.422 76.3755 181.541 76.375L181.54 84.375ZM187.548 90.3994H179.548C179.548 90.1115 179.681 89.5556 180.175 89.0611C180.668 88.5663 181.232 88.4248 181.54 88.4248L181.54 96.4248L181.541 104.425C189.424 104.424 195.548 98.2687 195.548 90.3994H187.548ZM181.54 96.4248V88.4248C181.829 88.4248 182.388 88.559 182.884 89.0553C183.38 89.5516 183.515 90.1107 183.515 90.3994H175.515H167.515C167.515 98.2844 173.655 104.425 181.54 104.425V96.4248ZM175.515 90.3994L183.515 90.3997C183.515 90.6887 183.38 91.2481 182.884 91.7447C182.387 92.2411 181.828 92.375 181.54 92.375V84.375V76.375C173.656 76.375 167.515 82.5131 167.515 90.3991L175.515 90.3994ZM101.71 96.29V88.29H99.1689V96.29V104.29H101.71V96.29ZM99.1689 96.29H107.169V84.5098H99.1689H91.1689V96.29H99.1689ZM99.1689 84.5098V92.5098H101.71V84.5098V76.5098H99.1689V84.5098ZM101.71 84.5098H93.71V96.29H101.71H109.71V84.5098H101.71ZM110.818 92.3018H118.818V84.5098H110.818H102.818V92.3018H110.818ZM110.818 84.5098V92.5098H113.343V84.5098V76.5098H110.818V84.5098ZM113.343 84.5098H105.343V96.29H113.343H121.343V84.5098H113.343ZM113.343 96.29V88.29H110.65V96.29V104.29H113.343V96.29ZM110.65 96.29L117.49 92.1397L112.761 84.3477L105.922 88.498L99.0827 92.6484L103.811 100.44L110.65 96.29ZM105.922 88.498H97.9219V96.29H105.922H113.922V88.498H105.922ZM105.922 96.29V88.29H103.397V96.29V104.29H105.922V96.29ZM103.397 96.29H111.397V84.5098H103.397H95.3975V96.29H103.397ZM103.397 84.5098V92.5098H106.09V84.5098V76.5098H103.397V84.5098ZM106.09 84.5098L99.2506 88.6601L103.979 96.4521L110.818 92.3018L117.658 88.1514L112.929 80.3594L106.09 84.5098ZM159.007 92.3018H167.007V84.5098H159.007H151.007V92.3018H159.007ZM159.007 84.5098V92.5098H161.531V84.5098V76.5098H159.007V84.5098ZM161.531 84.5098H153.531V96.29H161.531H169.531V84.5098H161.531ZM161.531 96.29V88.29H158.838V96.29V104.29H161.531V96.29ZM158.838 96.29L165.677 92.1397L160.949 84.3477L154.109 88.498L147.27 92.6484L151.999 100.44L158.838 96.29ZM154.109 88.498H146.109V96.29H154.109H162.109V88.498H154.109ZM154.109 96.29V88.29H151.585V96.29V104.29H154.109V96.29ZM151.585 96.29H159.585V84.5098H151.585H143.585V96.29H151.585ZM151.585 84.5098V92.5098H154.277V84.5098V76.5098H151.585V84.5098ZM154.277 84.5098L147.439 88.6607L152.168 96.4527L159.007 92.3018L165.846 88.1508L161.116 80.3588L154.277 84.5098ZM165.75 96.29V88.29H163.209V96.29V104.29H165.75V96.29ZM163.209 96.29H171.209V84.5098H163.209H155.209V96.29H163.209ZM163.209 84.5098V92.5098H165.75V84.5098V76.5098H163.209V84.5098ZM165.75 84.5098H157.75V96.29H165.75H173.75V84.5098H165.75ZM175.969 86.6807V78.6807H172.485V86.6807V94.6807H175.969V86.6807ZM172.485 86.6807H164.485V96.29H172.485H180.485V86.6807H172.485ZM172.485 96.29V88.29H169.961V96.29V104.29H172.485V96.29ZM169.961 96.29H177.961V86.6807H169.961H161.961V96.29H169.961ZM169.961 86.6807V78.6807H166.478V86.6807V94.6807H169.961V86.6807ZM166.478 86.6807H174.478V84.5098H166.478H158.478V86.6807H166.478ZM166.478 84.5098V92.5098H175.969V84.5098V76.5098H166.478V84.5098ZM175.969 84.5098H167.969V86.6807H175.969H183.969V84.5098H175.969ZM68.8867 62.3691L68.8867 70.3691C71.8652 70.3692 74.5679 71.4705 76.6397 73.301L81.9365 67.3057L87.2334 61.3104C82.3508 56.9966 75.9159 54.3692 68.8868 54.3691L68.8867 62.3691ZM81.9365 67.3057L76.2801 61.6483L70.3221 67.6054L75.9785 73.2627L81.6349 78.92L87.5929 72.963L81.9365 67.3057ZM75.9785 73.2627L81.0009 67.0357C77.5695 64.2681 73.3194 62.7686 68.8868 62.7686L68.8867 70.7686L68.8866 78.7686C69.6768 78.7686 70.3793 79.0245 70.9561 79.4897L75.9785 73.2627ZM68.8867 70.7686V62.7686C63.7402 62.7686 58.8625 64.7896 55.224 68.4281L60.8809 74.085L66.5377 79.7418C67.1763 79.1032 67.9846 78.7686 68.8867 78.7686V70.7686ZM60.8809 74.085L55.2238 68.4283C51.5859 72.0665 49.5645 76.9442 49.5645 82.0908H57.5645H65.5645C65.5645 81.1891 65.8992 80.3804 66.5379 79.7416L60.8809 74.085ZM57.5645 82.0908L49.5645 82.0909C49.5645 86.5255 51.0661 90.7752 53.8326 94.2051L60.0596 89.1826L66.2865 84.1601C65.82 83.5818 65.5645 82.879 65.5645 82.0908L57.5645 82.0908ZM60.0596 89.1826L54.4032 83.5253L48.4442 89.4833L54.1006 95.1406L59.757 100.798L65.716 94.8399L60.0596 89.1826ZM54.1006 95.1406L60.0959 89.8438C58.267 87.7737 57.166 85.0715 57.166 82.0908L49.166 82.0908L41.166 82.0908C41.166 89.1179 43.7901 95.5532 48.1053 100.437L54.1006 95.1406ZM49.166 82.0908H57.166C57.166 75.617 62.4139 70.3691 68.8867 70.3691V62.3691V54.3691C53.5763 54.3691 41.166 66.7814 41.166 82.0908H49.166ZM132.361 86.5459V78.5459C125.097 78.5459 120.895 84.6518 120.895 90.399L128.895 90.3994L136.895 90.3999C136.894 91.0414 136.673 92.0391 135.838 92.9748C134.952 93.9661 133.657 94.5459 132.361 94.5459V86.5459ZM128.895 90.3994H120.895C120.895 96.1954 125.14 102.236 132.361 102.236V94.2363V86.2363C133.63 86.2363 134.924 86.799 135.821 87.7978C136.671 88.7432 136.895 89.7548 136.895 90.3994H128.895ZM132.361 94.2363L132.362 102.236C139.534 102.235 143.845 96.2494 143.845 90.3994H135.845H127.845C127.845 89.7296 128.08 88.7143 128.928 87.7776C129.817 86.7938 131.098 86.2365 132.36 86.2363L132.361 94.2363ZM135.845 90.3994L143.845 90.399C143.844 84.5976 139.577 78.5468 132.362 78.5459L132.361 86.5459L132.36 94.5459C131.07 94.5457 129.789 93.9715 128.911 92.995C128.078 92.068 127.845 91.0666 127.845 90.3999L135.845 90.3994ZM181.522 86.5459L181.522 78.5459C174.258 78.5465 170.056 84.6511 170.056 90.399L178.056 90.3994L186.056 90.3999C186.056 91.0418 185.834 92.0395 184.999 92.975C184.114 93.966 182.819 94.5458 181.523 94.5459L181.522 86.5459ZM178.056 90.3994H170.056C170.056 96.196 174.302 102.236 181.522 102.236L181.522 94.2363L181.523 86.2363C182.792 86.2364 184.085 86.7991 184.982 87.7976C185.832 88.7428 186.056 89.7544 186.056 90.3994H178.056ZM181.522 94.2363V102.236C188.696 102.236 193.006 96.2485 193.006 90.3994H185.006H177.006C177.006 89.7302 177.241 88.7149 178.089 87.7779C178.979 86.7937 180.259 86.2363 181.522 86.2363V94.2363ZM185.006 90.3994L193.006 90.399C193.006 84.5986 188.74 78.5459 181.522 78.5459V86.5459V94.5459C180.232 94.5459 178.951 93.9716 178.072 92.9947C177.239 92.0674 177.006 91.066 177.006 90.3999L185.006 90.3994ZM68.8867 73.2129L68.8866 81.2129C69.095 81.2129 69.2655 81.2758 69.4107 81.3855L74.2363 75.0049L79.062 68.6242C76.2326 66.4844 72.6956 65.2129 68.8868 65.2129L68.8867 73.2129ZM74.2363 75.0049L68.5795 69.348L56.1449 81.7826L61.8018 87.4395L67.4586 93.0963L79.8932 80.6617L74.2363 75.0049ZM61.8018 87.4395L68.1825 82.6138C68.0721 82.4679 68.0098 82.2982 68.0098 82.0907L60.0098 82.0908L52.0098 82.0909C52.0098 85.9007 53.2819 89.4365 55.4211 92.2651L61.8018 87.4395ZM60.0098 82.0908H68.0098C68.0098 81.6052 68.4033 81.2129 68.8867 81.2129V73.2129V65.2129C59.5652 65.2129 52.0098 72.7702 52.0098 82.0908H60.0098ZM190.567 79.5918V87.5918C187.492 87.5918 185 85.0994 185 82.0244H193H201C201 76.2628 196.329 71.5918 190.567 71.5918V79.5918ZM193 82.0244L185 82.0236C185 78.9458 187.496 76.4561 190.567 76.4561V84.4561V92.4561C196.326 92.4561 200.999 87.7894 201 82.0252L193 82.0244ZM190.567 84.4561L190.568 76.4561C193.643 76.4563 196.135 78.9493 196.136 82.0236L188.136 82.0244L180.136 82.0252C180.136 87.7858 184.806 92.4556 190.567 92.4561L190.567 84.4561ZM188.136 82.0244H196.136C196.136 85.0958 193.646 87.5916 190.568 87.5918L190.567 79.5918L190.567 71.5918C184.802 71.5922 180.136 76.2665 180.136 82.0244H188.136ZM190.567 79.8877L190.567 71.8877C184.97 71.8882 180.431 76.4256 180.431 82.0244H188.431H196.431C196.431 85.2635 193.805 87.8874 190.568 87.8877L190.567 79.8877ZM188.431 82.0244L180.431 82.0253C180.431 87.6272 184.974 92.1597 190.567 92.1602L190.567 84.1602L190.568 76.1602C193.802 76.1604 196.43 78.7812 196.431 82.0235L188.431 82.0244ZM190.567 84.1602V92.1602C196.162 92.1602 200.703 87.6266 200.704 82.0253L192.704 82.0244L184.704 82.0235C184.704 78.7819 187.333 76.1602 190.567 76.1602V84.1602ZM192.704 82.0244H200.704C200.704 76.4262 196.166 71.8877 190.567 71.8877V79.8877V87.8877C187.329 87.8877 184.704 85.2628 184.704 82.0244H192.704ZM190.714 80.9336L190.714 88.9336C189.282 88.9335 187.335 88.4605 185.7 86.8796C184.056 85.2892 183.458 83.2781 183.458 81.6279H191.458H199.458C199.458 79.5739 198.723 77.2156 196.824 75.379C194.935 73.5519 192.616 72.9337 190.714 72.9336L190.714 80.9336ZM191.458 81.6279L183.458 81.6271C183.458 80.4001 183.771 78.988 184.606 77.6573C185.428 76.3472 186.515 75.4965 187.498 74.9868L191.181 82.0889L194.863 89.1909C197.53 87.8082 199.458 85.0088 199.458 81.6288L191.458 81.6279ZM191.181 82.0889L186.642 88.6765C184.748 87.3718 183.673 85.3508 183.472 83.3187L191.434 82.5332L199.395 81.7477C199.156 79.3308 197.897 77.0015 195.72 75.5012L191.181 82.0889ZM191.434 82.5332L183.472 83.3115L183.531 83.9209L191.493 83.1426L199.455 82.3642L199.396 81.7549L191.434 82.5332ZM191.493 83.1426V75.1426H191.02V83.1426V91.1426H191.493V83.1426ZM191.02 83.1426L198.972 82.2747L198.913 81.7288L190.96 82.5967L183.007 83.4645L183.067 84.0104L191.02 83.1426ZM190.96 82.5967L198.917 81.7678C198.517 77.928 195.312 74.3408 190.688 74.3408V82.3408V90.3408C188.807 90.3408 186.87 89.6436 185.361 88.2095C183.884 86.8047 183.171 85.0359 183.003 83.4255L190.96 82.5967ZM190.688 82.3408V74.3408H190.26V82.3408V90.3408H190.688V82.3408ZM190.26 82.3408H182.26V83.1426H190.26H198.26V82.3408H190.26ZM190.26 83.1426V75.1426H189.783V83.1426V91.1426H190.26V83.1426ZM189.783 83.1426H197.783V80.9336H189.783H181.783V83.1426H189.783ZM189.783 80.9336V88.9336H190.714V80.9336V72.9336H189.783V80.9336ZM190.26 81.9336V89.9336H190.688V81.9336V73.9336H190.26V81.9336ZM190.688 81.9336V89.9336C192.683 89.9336 195.058 89.2 196.86 87.2066C198.533 85.3562 199.001 83.2072 199.001 81.6294L191.001 81.6279L183.001 81.6265C183.001 80.2095 183.421 78.2134 184.992 76.4756C186.693 74.5949 188.911 73.9336 190.688 73.9336V81.9336ZM191.001 81.6279H199.001C199.001 80.0107 198.51 77.8424 196.809 75.9968C194.993 74.0267 192.634 73.3281 190.688 73.3281V81.3281V89.3281C188.961 89.3281 186.758 88.7006 185.044 86.841C183.445 85.1058 183.001 83.0874 183.001 81.6279H191.001ZM190.688 81.3281V73.3281H190.26V81.3281V89.3281H190.688V81.3281ZM190.26 81.3281H182.26V81.9336H190.26H198.26V81.3281H190.26ZM103.156 76.0059L110.822 78.2951L113.229 70.2346L105.563 67.9453L97.898 65.6561L95.4908 73.7166L103.156 76.0059ZM105.563 67.9453V75.9453H107.7V67.9453V59.9453H105.563V67.9453ZM107.7 67.9453L100.039 70.249L102.463 78.3096L110.124 76.0059L117.785 73.7021L115.361 65.6416L107.7 67.9453ZM110.124 76.0059L117.824 78.1758L120.096 70.1152L112.396 67.9453L104.695 65.7754L102.424 73.836L110.124 76.0059ZM112.396 67.9453V75.9453H114.953V67.9453V59.9453H112.396V67.9453ZM114.953 67.9453L107.281 65.6768L103.798 77.4571L111.47 79.7256L119.141 81.9941L122.625 70.2138L114.953 67.9453ZM111.47 79.7256V71.7256H108.979V79.7256V87.7256H111.47V79.7256ZM108.979 79.7256L116.646 77.4385L114.306 69.5957L106.64 71.8828L98.9736 74.1699L101.313 82.0127L108.979 79.7256ZM106.64 71.8828L98.9733 69.5966L96.6344 77.4393L104.301 79.7256L111.967 82.0118L114.306 74.1691L106.64 71.8828ZM104.301 79.7256V71.7256H101.844V79.7256V87.7256H104.301V79.7256ZM101.844 79.7256L109.512 77.4472L106.012 65.6669L98.3438 67.9453L90.6751 70.2237L94.1751 82.004L101.844 79.7256ZM98.3438 67.9453V75.9453H100.901V67.9453V59.9453H98.3438V67.9453ZM100.901 67.9453L93.1971 70.1005L95.452 78.1611L103.156 76.0059L110.86 73.8507L108.606 65.7901L100.901 67.9453ZM123.799 70.1162V62.1162H118.312V70.1162V78.1162H123.799V70.1162ZM118.312 70.1162H110.312V72.6064H118.312H126.312V70.1162H118.312ZM118.312 72.6064V80.6064H122.688V72.6064V64.6064H118.312V72.6064ZM122.688 72.6064H114.688V74.7949H122.688H130.688V72.6064H122.688ZM122.688 74.7949V66.7949H118.312V74.7949V82.7949H122.688V74.7949ZM118.312 74.7949H110.312V77.5381H118.312H126.312V74.7949H118.312ZM118.312 77.5381V85.5381H123.983V77.5381V69.5381H118.312V77.5381ZM123.983 77.5381H115.983V79.7256H123.983H131.983V77.5381H123.983ZM123.983 79.7256V71.7256H115.788V79.7256V87.7256H123.983V79.7256ZM115.788 79.7256H123.788V67.9453H115.788H107.788V79.7256H115.788ZM115.788 67.9453V75.9453H123.799V67.9453V59.9453H115.788V67.9453ZM123.799 67.9453H115.799V70.1162H123.799H131.799V67.9453H123.799ZM134.402 67.9453L134.402 75.9453C133.991 75.9453 132.853 75.7878 131.771 74.7429C130.678 73.6873 130.374 72.4276 130.374 71.6478L138.374 71.6475L146.374 71.6471C146.374 68.7134 145.338 65.6026 142.886 63.2344C140.445 60.8769 137.322 59.9454 134.402 59.9453L134.402 67.9453ZM138.374 71.6475H130.374C130.374 70.8924 130.574 69.8802 131.203 68.8808C131.818 67.9037 132.603 67.317 133.21 67.0025L136.893 74.1045L140.575 81.2065C143.964 79.4494 146.374 76.0027 146.374 71.6475H138.374ZM136.893 74.1045L132.354 80.6926C131.058 79.7998 130.394 78.4384 130.278 77.2606L138.239 76.4775L146.201 75.6944C145.883 72.4635 144.242 69.4526 141.431 67.5164L136.893 74.1045ZM138.239 76.4775L130.278 77.2603L130.597 80.5083L138.559 79.7256L146.52 78.9428L146.201 75.6948L138.239 76.4775ZM138.559 79.7256V71.7256H136.034V79.7256V87.7256H138.559V79.7256ZM136.034 79.7256L143.986 78.8533L143.667 75.9421L135.715 76.8145L127.763 77.6868L128.082 80.5979L136.034 79.7256ZM135.715 76.8145L143.672 75.9856C143.203 71.4842 139.529 67.4512 134.268 67.4512V75.4512V83.4512C132.713 83.4512 131.051 82.87 129.746 81.6294C128.471 80.4178 127.891 78.9242 127.758 77.6433L135.715 76.8145ZM134.268 75.4512V67.4512H131.979V75.4512V83.4512H134.268V75.4512ZM131.979 75.4512H123.979V79.7256H131.979H139.979V75.4512H131.979ZM131.979 79.7256V71.7256H129.438V79.7256V87.7256H131.979V79.7256ZM129.438 79.7256H137.438V67.9453H129.438H121.438V79.7256H129.438ZM129.438 67.9453V75.9453H134.402V67.9453V59.9453H129.438V67.9453ZM148.201 70.1162V62.1162H142.715V70.1162V78.1162H148.201V70.1162ZM142.715 70.1162H134.715V72.6064H142.715H150.715V70.1162H142.715ZM142.715 72.6064V80.6064H147.09V72.6064V64.6064H142.715V72.6064ZM147.09 72.6064H139.09V74.7949H147.09H155.09V72.6064H147.09ZM147.09 74.7949V66.7949H142.715V74.7949V82.7949H147.09V74.7949ZM142.715 74.7949H134.715V77.5381H142.715H150.715V74.7949H142.715ZM142.715 77.5381V85.5381H148.386V77.5381V69.5381H142.715V77.5381ZM148.386 77.5381H140.386V79.7256H148.386H156.386V77.5381H148.386ZM148.386 79.7256V71.7256H140.19V79.7256V87.7256H148.386V79.7256ZM140.19 79.7256H148.19V67.9453H140.19H132.19V79.7256H140.19ZM140.19 67.9453V75.9453H148.201V67.9453V59.9453H140.19V67.9453ZM148.201 67.9453H140.201V70.1162H148.201H156.201V67.9453H148.201ZM131.979 73.2803V81.2803H134.268V73.2803V65.2803H131.979V73.2803ZM134.268 73.2803V81.2803C136.742 81.2803 139.457 80.3837 141.477 78.1432C143.366 76.0484 143.934 73.5707 143.934 71.6475H135.934H127.934C127.934 70.5825 128.249 68.9212 129.595 67.4282C131.073 65.7896 132.954 65.2803 134.268 65.2803V73.2803ZM135.934 71.6475L143.934 71.6467C143.933 69.6902 143.341 67.1973 141.419 65.1116C139.382 62.901 136.684 62.0488 134.268 62.0488V70.0488V78.0488C133.012 78.0488 131.147 77.5753 129.653 75.9537C128.274 74.457 127.934 72.7634 127.934 71.6482L135.934 71.6475ZM134.268 70.0488V62.0488H131.979V70.0488V78.0488H134.268V70.0488ZM131.979 70.0488H123.979V73.2803H131.979H139.979V70.0488H131.979ZM128.14 69.8955L120.14 69.8954C120.14 69.1111 120.407 67.5508 121.783 66.1817C123.158 64.8132 124.699 64.5713 125.413 64.5713L125.413 72.5713L125.413 80.5713C127.86 80.5713 130.765 79.8161 133.07 77.522C135.375 75.2273 136.14 72.3291 136.14 69.8956L128.14 69.8955ZM125.413 72.5713V64.5713H124.74V72.5713V80.5713H125.413V72.5713ZM124.74 72.5713H132.74V70.7373H124.74H116.74V72.5713H124.74ZM124.74 70.7373V78.7373H125.026V70.7373V62.7373H124.74V70.7373ZM125.026 70.7373L125.03 78.7373C127.803 78.7362 130.542 77.4276 132.235 74.9239C133.62 72.8762 133.8 70.778 133.8 69.6426H125.8H117.8C117.8 69.1801 117.853 67.6292 118.982 65.9605C119.599 65.0486 120.499 64.1711 121.697 63.5525C122.883 62.94 124.057 62.7377 125.023 62.7373L125.026 70.7373ZM125.8 69.6426H133.8V67.8086H125.8H117.8V69.6426H125.8ZM125.8 67.8086V75.8086H128.14V67.8086V59.8086H125.8V67.8086ZM128.14 67.8086H120.14V69.8955H128.14H136.14V67.8086H128.14Z" fill="#E6E2DE" mask="url(#path-4-outside-1_1195_252)"/>
</svg>
