<svg width="242" height="240" viewBox="0 0 242 240" fill="none" xmlns="http://www.w3.org/2000/svg">
<path d="M230 80H12C5.37258 80 0 85.3726 0 92V228C0 234.627 5.37258 240 12 240H230C236.627 240 242 234.627 242 228V92C242 85.3726 236.627 80 230 80Z" fill="#E6E2DE"/>
<path d="M101.917 155L98.9092 147.368V155H96.7012V143.512H99.6132L102.941 152.024L106.285 143.512H109.197V155H106.989V147.304L103.949 155H101.917ZM114.969 155.16C112.489 155.16 110.633 153.208 110.633 150.728C110.633 148.232 112.489 146.296 114.969 146.296C117.449 146.296 119.305 148.232 119.305 150.728C119.305 153.208 117.449 155.16 114.969 155.16ZM114.969 153.192C116.073 153.192 117.017 152.312 117.017 150.728C117.017 149.144 116.073 148.28 114.969 148.28C113.865 148.28 112.921 149.144 112.921 150.728C112.921 152.312 113.865 153.192 114.969 153.192ZM120.004 150.728C120.004 148.2 121.492 146.296 123.796 146.296C124.82 146.296 125.684 146.744 126.324 147.56V143.512H128.532V155H126.5V153.768C125.828 154.664 124.9 155.16 123.796 155.16C121.492 155.16 120.004 153.224 120.004 150.728ZM122.292 150.728C122.292 152.328 123.204 153.176 124.292 153.176C125.396 153.176 126.308 152.312 126.308 150.696C126.308 149.08 125.38 148.264 124.292 148.264C123.204 148.264 122.292 149.096 122.292 150.728ZM132.581 150.344V155H130.357V146.456H132.405V147.672C133.029 146.824 133.909 146.296 135.029 146.296C136.741 146.296 137.925 147.416 137.925 149.48V155H135.717V150.232C135.717 148.968 135.221 148.264 134.213 148.264C133.333 148.264 132.581 148.968 132.581 150.344ZM143.394 155.144C140.834 155.144 139.122 153.368 139.122 150.696C139.122 148.152 140.898 146.296 143.362 146.296C146.066 146.296 147.858 148.488 147.458 151.272H141.394C141.538 152.664 142.21 153.432 143.346 153.432C144.322 153.432 144.978 152.952 145.234 152.104H147.442C146.962 154.04 145.474 155.144 143.394 155.144ZM143.314 147.928C142.274 147.928 141.618 148.6 141.426 149.864H145.106C145.042 148.68 144.37 147.928 143.314 147.928ZM154.037 152.84V154.776C153.493 155.048 152.981 155.16 152.325 155.16C150.565 155.16 149.461 154.152 149.461 152.232V148.36H147.733V146.456H149.461V143.928H151.669V146.456H154.117V148.36H151.669V151.72C151.669 152.712 152.117 153.112 152.917 153.112C153.333 153.112 153.717 153.016 154.037 152.84Z" fill="#1A1A1A"/>
<path d="M65.0539 175H58.9639V164.948H60.5039V173.614H65.0539V175ZM69.0764 175.14C66.9764 175.14 65.4364 173.488 65.4364 171.29C65.4364 169.092 66.9764 167.44 69.0764 167.44C71.1764 167.44 72.7164 169.092 72.7164 171.29C72.7164 173.488 71.1764 175.14 69.0764 175.14ZM69.0764 173.894C70.2944 173.894 71.2604 172.914 71.2604 171.29C71.2604 169.666 70.2944 168.7 69.0764 168.7C67.8584 168.7 66.9064 169.666 66.9064 171.29C66.9064 172.914 67.8584 173.894 69.0764 173.894ZM76.7091 177.856C74.7631 177.856 73.5031 176.82 73.4191 175.14H74.7911C74.8751 176.176 75.5471 176.736 76.6951 176.736C77.9691 176.736 78.6411 176.05 78.6411 174.776V173.432C78.2211 174.328 77.3811 174.846 76.3731 174.846C74.5251 174.846 73.2091 173.32 73.2091 171.136C73.2091 168.924 74.4691 167.44 76.3311 167.44C77.3951 167.44 78.2351 167.958 78.7391 168.896V167.58H80.0551V174.748C80.0551 176.694 78.8091 177.856 76.7091 177.856ZM74.6371 171.136C74.6371 172.676 75.3931 173.614 76.6251 173.614C77.8291 173.614 78.6411 172.648 78.6411 171.178C78.6411 169.638 77.8431 168.658 76.6251 168.658C75.4071 168.658 74.6371 169.61 74.6371 171.136ZM84.8406 175.14C82.7406 175.14 81.2006 173.488 81.2006 171.29C81.2006 169.092 82.7406 167.44 84.8406 167.44C86.9406 167.44 88.4806 169.092 88.4806 171.29C88.4806 173.488 86.9406 175.14 84.8406 175.14ZM84.8406 173.894C86.0586 173.894 87.0246 172.914 87.0246 171.29C87.0246 169.666 86.0586 168.7 84.8406 168.7C83.6226 168.7 82.6706 169.666 82.6706 171.29C82.6706 172.914 83.6226 173.894 84.8406 173.894ZM95.5779 175H92.3999V164.948H95.5779C98.7839 164.948 100.632 166.992 100.632 169.932C100.632 172.83 98.7139 175 95.5779 175ZM93.9399 166.278V173.67H95.5079C97.8179 173.67 99.0639 172.242 99.0639 169.932C99.0639 167.664 97.8319 166.278 95.5079 166.278H93.9399ZM104.904 175.14C102.762 175.14 101.32 173.586 101.32 171.248C101.32 169.05 102.818 167.44 104.862 167.44C107.074 167.44 108.544 169.232 108.292 171.64H102.762C102.874 173.152 103.63 174.034 104.876 174.034C105.926 174.034 106.654 173.46 106.892 172.494H108.292C107.928 174.146 106.654 175.14 104.904 175.14ZM104.834 168.504C103.7 168.504 102.93 169.316 102.776 170.702H106.794C106.724 169.33 105.982 168.504 104.834 168.504ZM115.395 172.788C115.395 174.244 114.261 175.14 112.287 175.14C110.327 175.14 109.165 174.174 109.025 172.578H110.383C110.439 173.502 111.181 174.076 112.315 174.076C113.309 174.076 113.967 173.726 113.967 173.026C113.967 172.41 113.589 172.144 112.665 171.962L111.461 171.738C110.089 171.472 109.319 170.772 109.319 169.652C109.319 168.35 110.453 167.44 112.175 167.44C113.953 167.44 115.157 168.392 115.283 169.918H113.925C113.841 169.022 113.183 168.504 112.189 168.504C111.293 168.504 110.691 168.882 110.691 169.526C110.691 170.128 111.069 170.408 111.965 170.576L113.225 170.814C114.695 171.08 115.395 171.724 115.395 172.788ZM118.381 165.858C118.381 166.39 117.961 166.796 117.359 166.796C116.757 166.796 116.323 166.39 116.323 165.858C116.323 165.312 116.757 164.92 117.359 164.92C117.961 164.92 118.381 165.312 118.381 165.858ZM118.073 175H116.659V167.58H118.073V175ZM122.724 177.856C120.778 177.856 119.518 176.82 119.434 175.14H120.806C120.89 176.176 121.562 176.736 122.71 176.736C123.984 176.736 124.656 176.05 124.656 174.776V173.432C124.236 174.328 123.396 174.846 122.388 174.846C120.54 174.846 119.224 173.32 119.224 171.136C119.224 168.924 120.484 167.44 122.346 167.44C123.41 167.44 124.25 167.958 124.754 168.896V167.58H126.07V174.748C126.07 176.694 124.824 177.856 122.724 177.856ZM120.652 171.136C120.652 172.676 121.408 173.614 122.64 173.614C123.844 173.614 124.656 172.648 124.656 171.178C124.656 169.638 123.858 168.658 122.64 168.658C121.422 168.658 120.652 169.61 120.652 171.136ZM129.161 170.814V175H127.747V167.58H129.063V168.812C129.567 167.986 130.407 167.44 131.429 167.44C132.955 167.44 133.963 168.42 133.963 170.198V175H132.549V170.674C132.549 169.4 131.989 168.686 130.939 168.686C129.973 168.686 129.161 169.498 129.161 170.814ZM137.479 174.398C137.479 175.728 136.429 176.764 134.889 176.792V175.994C135.799 175.966 136.415 175.476 136.499 174.79C136.373 174.832 136.289 174.846 136.191 174.846C135.659 174.846 135.267 174.412 135.267 173.894C135.267 173.292 135.715 172.9 136.289 172.9C137.059 172.9 137.479 173.46 137.479 174.398ZM149.333 175L147.205 167.118L145.063 175H143.481L140.863 164.948H142.375L144.307 172.69L146.421 164.948H148.017L150.103 172.704L152.035 164.948H153.547L150.929 175H149.333ZM156.955 175.14C154.813 175.14 153.371 173.586 153.371 171.248C153.371 169.05 154.869 167.44 156.913 167.44C159.125 167.44 160.595 169.232 160.343 171.64H154.813C154.925 173.152 155.681 174.034 156.927 174.034C157.977 174.034 158.705 173.46 158.943 172.494H160.343C159.979 174.146 158.705 175.14 156.955 175.14ZM156.885 168.504C155.751 168.504 154.981 169.316 154.827 170.702H158.845C158.775 169.33 158.033 168.504 156.885 168.504ZM168.65 171.29C168.65 173.516 167.362 175.14 165.36 175.14C164.31 175.14 163.414 174.608 162.882 173.67V175H161.566V164.948H162.98V168.854C163.498 167.944 164.352 167.44 165.36 167.44C167.348 167.44 168.65 169.036 168.65 171.29ZM167.18 171.29C167.18 169.61 166.298 168.686 165.08 168.686C163.904 168.686 162.98 169.596 162.98 171.262C162.98 172.9 163.876 173.88 165.08 173.88C166.298 173.88 167.18 172.942 167.18 171.29ZM175.684 172.788C175.684 174.244 174.55 175.14 172.576 175.14C170.616 175.14 169.454 174.174 169.314 172.578H170.672C170.728 173.502 171.47 174.076 172.604 174.076C173.598 174.076 174.256 173.726 174.256 173.026C174.256 172.41 173.878 172.144 172.954 171.962L171.75 171.738C170.378 171.472 169.608 170.772 169.608 169.652C169.608 168.35 170.742 167.44 172.464 167.44C174.242 167.44 175.446 168.392 175.572 169.918H174.214C174.13 169.022 173.472 168.504 172.478 168.504C171.582 168.504 170.98 168.882 170.98 169.526C170.98 170.128 171.358 170.408 172.254 170.576L173.514 170.814C174.984 171.08 175.684 171.724 175.684 172.788ZM178.669 165.858C178.669 166.39 178.249 166.796 177.647 166.796C177.045 166.796 176.611 166.39 176.611 165.858C176.611 165.312 177.045 164.92 177.647 164.92C178.249 164.92 178.669 165.312 178.669 165.858ZM178.361 175H176.947V167.58H178.361V175ZM184.23 173.628V174.874C183.796 175.07 183.418 175.14 182.97 175.14C181.598 175.14 180.646 174.398 180.646 172.76V168.784H179.008V167.58H180.646V165.382H182.06V167.58H184.3V168.784H182.06V172.438C182.06 173.46 182.55 173.824 183.306 173.824C183.642 173.824 183.936 173.768 184.23 173.628ZM188.217 175.14C186.075 175.14 184.633 173.586 184.633 171.248C184.633 169.05 186.131 167.44 188.175 167.44C190.387 167.44 191.857 169.232 191.605 171.64H186.075C186.187 173.152 186.943 174.034 188.189 174.034C189.239 174.034 189.967 173.46 190.205 172.494H191.605C191.241 174.146 189.967 175.14 188.217 175.14ZM188.147 168.504C187.013 168.504 186.243 169.316 186.089 170.702H190.107C190.037 169.33 189.295 168.504 188.147 168.504ZM56.461 192H53.283V181.948H56.461C59.667 181.948 61.515 183.992 61.515 186.932C61.515 189.83 59.597 192 56.461 192ZM54.823 183.278V190.67H56.391C58.701 190.67 59.947 189.242 59.947 186.932C59.947 184.664 58.715 183.278 56.391 183.278H54.823ZM65.7867 192.14C63.6447 192.14 62.2027 190.586 62.2027 188.248C62.2027 186.05 63.7007 184.44 65.7447 184.44C67.9567 184.44 69.4267 186.232 69.1747 188.64H63.6447C63.7567 190.152 64.5127 191.034 65.7587 191.034C66.8087 191.034 67.5367 190.46 67.7747 189.494H69.1747C68.8107 191.146 67.5367 192.14 65.7867 192.14ZM65.7167 185.504C64.5827 185.504 63.8127 186.316 63.6587 187.702H67.6767C67.6067 186.33 66.8647 185.504 65.7167 185.504ZM76.2781 189.788C76.2781 191.244 75.1441 192.14 73.1701 192.14C71.2101 192.14 70.0481 191.174 69.9081 189.578H71.2661C71.3221 190.502 72.0641 191.076 73.1981 191.076C74.1921 191.076 74.8501 190.726 74.8501 190.026C74.8501 189.41 74.4721 189.144 73.5481 188.962L72.3441 188.738C70.9721 188.472 70.2021 187.772 70.2021 186.652C70.2021 185.35 71.3361 184.44 73.0581 184.44C74.8361 184.44 76.0401 185.392 76.1661 186.918H74.8081C74.7241 186.022 74.0661 185.504 73.0721 185.504C72.1761 185.504 71.5741 185.882 71.5741 186.526C71.5741 187.128 71.9521 187.408 72.8481 187.576L74.1081 187.814C75.5781 188.08 76.2781 188.724 76.2781 189.788ZM79.2639 182.858C79.2639 183.39 78.8439 183.796 78.2419 183.796C77.6399 183.796 77.2059 183.39 77.2059 182.858C77.2059 182.312 77.6399 181.92 78.2419 181.92C78.8439 181.92 79.2639 182.312 79.2639 182.858ZM78.9559 192H77.5419V184.58H78.9559V192ZM83.6069 194.856C81.6609 194.856 80.4009 193.82 80.3169 192.14H81.6889C81.7729 193.176 82.4449 193.736 83.5929 193.736C84.8669 193.736 85.5389 193.05 85.5389 191.776V190.432C85.1189 191.328 84.2789 191.846 83.2709 191.846C81.4229 191.846 80.1069 190.32 80.1069 188.136C80.1069 185.924 81.3669 184.44 83.2289 184.44C84.2929 184.44 85.1329 184.958 85.6369 185.896V184.58H86.9529V191.748C86.9529 193.694 85.7069 194.856 83.6069 194.856ZM81.5349 188.136C81.5349 189.676 82.2909 190.614 83.5229 190.614C84.7269 190.614 85.5389 189.648 85.5389 188.178C85.5389 186.638 84.7409 185.658 83.5229 185.658C82.3049 185.658 81.5349 186.61 81.5349 188.136ZM90.0444 187.814V192H88.6304V184.58H89.9464V185.812C90.4504 184.986 91.2904 184.44 92.3124 184.44C93.8384 184.44 94.8464 185.42 94.8464 187.198V192H93.4324V187.674C93.4324 186.4 92.8724 185.686 91.8224 185.686C90.8564 185.686 90.0444 186.498 90.0444 187.814ZM98.3621 191.398C98.3621 192.728 97.3121 193.764 95.7721 193.792V192.994C96.6821 192.966 97.2981 192.476 97.3821 191.79C97.2561 191.832 97.1721 191.846 97.0741 191.846C96.5421 191.846 96.1501 191.412 96.1501 190.894C96.1501 190.292 96.5981 189.9 97.1721 189.9C97.9421 189.9 98.3621 190.46 98.3621 191.398ZM106.045 188.5H104.099V192H102.559V181.948H106.045C108.299 181.948 109.755 183.096 109.755 185.196C109.755 187.31 108.299 188.5 106.045 188.5ZM106.031 183.25H104.099V187.198H106.031C107.389 187.198 108.215 186.456 108.215 185.21C108.215 183.964 107.389 183.25 106.031 183.25ZM112.317 188.206V192H110.903V184.58H112.219V186.148C112.737 185.126 113.857 184.482 115.075 184.482V185.952C113.479 185.868 112.317 186.568 112.317 188.206ZM118.995 192.14C116.895 192.14 115.355 190.488 115.355 188.29C115.355 186.092 116.895 184.44 118.995 184.44C121.095 184.44 122.635 186.092 122.635 188.29C122.635 190.488 121.095 192.14 118.995 192.14ZM118.995 190.894C120.213 190.894 121.179 189.914 121.179 188.29C121.179 186.666 120.213 185.7 118.995 185.7C117.777 185.7 116.825 186.666 116.825 188.29C116.825 189.914 117.777 190.894 118.995 190.894ZM123.264 188.29C123.264 186.036 124.552 184.44 126.554 184.44C127.548 184.44 128.416 184.944 128.934 185.854V181.948H130.348V192H129.032V190.67C128.5 191.608 127.604 192.14 126.554 192.14C124.552 192.14 123.264 190.516 123.264 188.29ZM124.734 188.29C124.734 189.942 125.602 190.88 126.834 190.88C128.038 190.88 128.934 189.9 128.934 188.262C128.934 186.596 128.01 185.686 126.834 185.686C125.602 185.686 124.734 186.61 124.734 188.29ZM136.668 188.948V184.58H138.082V192H136.766V190.824C136.374 191.594 135.506 192.14 134.498 192.14C133 192.14 131.964 191.258 131.964 189.354V184.58H133.378V189.074C133.378 190.362 134.022 190.894 134.946 190.894C135.898 190.894 136.668 190.11 136.668 188.948ZM142.691 192.154C140.661 192.154 139.233 190.558 139.233 188.29C139.233 186.05 140.689 184.44 142.691 184.44C144.525 184.44 145.855 185.658 146.121 187.59H144.637C144.483 186.4 143.741 185.686 142.705 185.686C141.487 185.686 140.689 186.722 140.689 188.29C140.689 189.872 141.487 190.894 142.705 190.894C143.755 190.894 144.483 190.194 144.651 188.99H146.121C145.869 190.95 144.553 192.154 142.691 192.154ZM151.451 190.628V191.874C151.017 192.07 150.639 192.14 150.191 192.14C148.819 192.14 147.867 191.398 147.867 189.76V185.784H146.229V184.58H147.867V182.382H149.281V184.58H151.521V185.784H149.281V189.438C149.281 190.46 149.771 190.824 150.527 190.824C150.863 190.824 151.157 190.768 151.451 190.628ZM158.526 192H155.348V181.948H158.526C161.732 181.948 163.58 183.992 163.58 186.932C163.58 189.83 161.662 192 158.526 192ZM156.888 183.278V190.67H158.456C160.766 190.67 162.012 189.242 162.012 186.932C162.012 184.664 160.78 183.278 158.456 183.278H156.888ZM167.852 192.14C165.71 192.14 164.268 190.586 164.268 188.248C164.268 186.05 165.766 184.44 167.81 184.44C170.022 184.44 171.492 186.232 171.24 188.64H165.71C165.822 190.152 166.578 191.034 167.824 191.034C168.874 191.034 169.602 190.46 169.84 189.494H171.24C170.876 191.146 169.602 192.14 167.852 192.14ZM167.782 185.504C166.648 185.504 165.878 186.316 165.724 187.702H169.742C169.672 186.33 168.93 185.504 167.782 185.504ZM178.343 189.788C178.343 191.244 177.209 192.14 175.235 192.14C173.275 192.14 172.113 191.174 171.973 189.578H173.331C173.387 190.502 174.129 191.076 175.263 191.076C176.257 191.076 176.915 190.726 176.915 190.026C176.915 189.41 176.537 189.144 175.613 188.962L174.409 188.738C173.037 188.472 172.267 187.772 172.267 186.652C172.267 185.35 173.401 184.44 175.123 184.44C176.901 184.44 178.105 185.392 178.231 186.918H176.873C176.789 186.022 176.131 185.504 175.137 185.504C174.241 185.504 173.639 185.882 173.639 186.526C173.639 187.128 174.017 187.408 174.913 187.576L176.173 187.814C177.643 188.08 178.343 188.724 178.343 189.788ZM181.329 182.858C181.329 183.39 180.909 183.796 180.307 183.796C179.705 183.796 179.271 183.39 179.271 182.858C179.271 182.312 179.705 181.92 180.307 181.92C180.909 181.92 181.329 182.312 181.329 182.858ZM181.021 192H179.607V184.58H181.021V192ZM185.672 194.856C183.726 194.856 182.466 193.82 182.382 192.14H183.754C183.838 193.176 184.51 193.736 185.658 193.736C186.932 193.736 187.604 193.05 187.604 191.776V190.432C187.184 191.328 186.344 191.846 185.336 191.846C183.488 191.846 182.172 190.32 182.172 188.136C182.172 185.924 183.432 184.44 185.294 184.44C186.358 184.44 187.198 184.958 187.702 185.896V184.58H189.018V191.748C189.018 193.694 187.772 194.856 185.672 194.856ZM183.6 188.136C183.6 189.676 184.356 190.614 185.588 190.614C186.792 190.614 187.604 189.648 187.604 188.178C187.604 186.638 186.806 185.658 185.588 185.658C184.37 185.658 183.6 186.61 183.6 188.136ZM192.109 187.814V192H190.695V184.58H192.011V185.812C192.515 184.986 193.355 184.44 194.377 184.44C195.903 184.44 196.911 185.42 196.911 187.198V192H195.497V187.674C195.497 186.4 194.937 185.686 193.887 185.686C192.921 185.686 192.109 186.498 192.109 187.814Z" fill="#1A1A1A"/>
<path d="M128.698 60C132.845 60.0002 136.254 63.1561 136.657 67.1973C137.077 67.2134 137.489 67.2622 137.89 67.3408C139.072 67.0614 140.27 66.9278 141.438 66.9277L141.8 66.9316C144.476 66.9931 147.074 67.7377 149.311 69.1816C151.764 67.7232 154.668 66.9278 157.854 66.9277C159.442 66.9277 160.96 67.1159 162.387 67.4815C163.526 64.453 166.449 62.2979 169.876 62.2978H174.505C178.057 62.298 181.065 64.6135 182.11 67.8164C184.983 69.0298 187 71.875 187 75.1904V78.998C187 80.6443 186.502 82.1743 185.65 83.4463C186.503 84.7184 187 86.2489 187 87.8955V91.7373C187 96.1554 183.418 99.7372 179 99.7373H176.237C173.399 99.7373 170.322 99.06 167.662 97.2334C164.874 99.0683 161.513 100 158.187 100C155.702 100 153.49 99.5417 151.554 98.7461C150.41 99.3767 149.096 99.7373 147.698 99.7373H143.036C141.841 99.7373 140.708 99.4728 139.69 99.0029C138.671 99.4728 137.538 99.7373 136.343 99.7373H131.682C131.171 99.7373 130.673 99.6871 130.189 99.5957C129.705 99.6869 129.207 99.7373 128.698 99.7373H124.069C123.623 99.7373 123.185 99.6991 122.759 99.6289C121.656 99.88 120.546 100 119.474 100C116.226 100 113.059 99.141 110.38 97.3271C107.7 99.0338 104.475 99.9999 100.998 100C98.5981 100 96.3173 99.5387 94.2532 98.6924C93.0875 99.3558 91.7401 99.7373 90.303 99.7373H85.8635C84.6183 99.7373 83.4398 99.4519 82.3889 98.9443C81.3232 99.4564 80.1437 99.7373 78.926 99.7373H73.9309C72.686 99.7372 71.5079 99.4517 70.4573 98.9443C69.3916 99.4564 68.212 99.7373 66.9944 99.7373H62.0002C59.0407 99.7373 56.3229 98.1031 54.9348 95.4893C53.5468 92.8752 53.7146 89.7077 55.3723 87.2559L56.9202 84.9658C55.4599 83.5165 54.5549 81.5081 54.5549 79.2881V74.9111C54.5549 70.4929 58.1367 66.9111 62.5549 66.9111H78.3713C79.6162 66.9112 80.7944 67.1958 81.845 67.7031C82.9108 67.1909 84.091 66.9111 85.3088 66.9111H90.303C91.8567 66.9111 93.306 67.3556 94.5335 68.1221C96.523 67.3474 98.7064 66.9277 100.998 66.9277C104.471 66.9278 107.693 67.8908 110.371 69.5938C112.111 68.4131 114.06 67.6353 116.106 67.2393C116.489 63.1779 119.907 60.0001 124.069 60H128.698ZM100.998 82.9277C100.645 82.9277 100.431 82.9882 100.327 83.0283C100.273 83.0492 100.24 83.0678 100.222 83.0791C100.206 83.0893 100.198 83.0977 100.198 83.0977L100.19 83.1143C100.18 83.1371 100.141 83.242 100.141 83.4639C100.141 83.6861 100.18 83.791 100.19 83.8135C100.193 83.8223 100.196 83.8276 100.198 83.8301L100.222 83.8486C100.24 83.8599 100.273 83.8785 100.327 83.8994C100.431 83.9396 100.645 84 100.998 84C101.351 84 101.565 83.9395 101.668 83.8994C101.722 83.8785 101.756 83.8599 101.774 83.8486C101.787 83.84 101.794 83.8336 101.797 83.8311C101.797 83.8311 101.802 83.8241 101.806 83.8135C101.815 83.791 101.855 83.6862 101.855 83.4639C101.855 83.2418 101.815 83.1369 101.806 83.1143C101.801 83.1015 101.797 83.0957 101.797 83.0957C101.794 83.093 101.787 83.0873 101.774 83.0791C101.756 83.0678 101.722 83.0492 101.668 83.0283C101.565 82.9882 101.351 82.9278 100.998 82.9277Z" fill="#E6E2DE"/>
<path d="M169.876 70.2988H174.505V75.1907H179V78.9992H174.505V85.5326C174.505 87.1414 175.371 87.8965 176.869 87.8965H179V91.7378H176.236C172.374 91.7378 169.876 89.5709 169.876 85.7296V78.9992H166.647V75.1907H169.876V70.2988Z" fill="#1A1A1A"/>
<path d="M161.65 86.1232H166.178C165.512 89.7019 162.316 92.0001 158.187 92.0001C152.493 92.0001 149.563 87.6007 149.563 83.4311C149.563 79.2286 152.16 74.9277 157.854 74.9277C163.781 74.9277 166.145 79.2286 166.145 83.0042C166.145 83.628 166.112 84.1205 166.078 84.4817H154.025C154.358 86.8127 155.856 88.2573 158.187 88.2573C160.052 88.2573 161.284 87.535 161.65 86.1232ZM157.854 78.2765C155.756 78.2765 154.491 79.2943 154.091 81.5925H161.517C161.383 79.7539 160.085 78.2765 157.854 78.2765Z" fill="#1A1A1A"/>
<path d="M131.682 91.7374V75.1903H136.343V77.4885C137.276 75.8798 139.14 74.9277 141.438 74.9277C145.234 74.9277 147.698 77.6199 147.698 81.4283V91.7374H143.036V82.4461C143.036 80.4434 141.738 78.9988 139.806 78.9988C137.775 78.9988 136.343 80.5419 136.343 82.6759V91.7374H131.682Z" fill="#1A1A1A"/>
<path d="M119.474 91.9999C114.546 91.9999 111.549 88.6182 111.549 83.4637C111.549 78.3091 114.546 74.9275 119.407 74.9275C121.505 74.9275 123.137 75.7154 124.069 76.9302V68H128.697V91.7372H124.069V89.9315C123.137 91.2119 121.405 91.9999 119.474 91.9999ZM120.24 88.0601C122.704 88.0601 124.335 86.2215 124.335 83.4637C124.335 80.673 122.704 78.8344 120.24 78.8344C117.776 78.8344 116.144 80.673 116.144 83.4637C116.144 86.2215 117.776 88.0601 120.24 88.0601Z" fill="#1A1A1A"/>
<path d="M100.998 92.0001C95.8369 92.0001 92.1409 88.3886 92.1409 83.4639C92.1409 78.5391 95.8369 74.9277 100.998 74.9277C106.159 74.9277 109.855 78.5391 109.855 83.4639C109.855 88.3886 106.159 92.0001 100.998 92.0001ZM100.998 88.0603C103.495 88.0603 105.193 86.1889 105.193 83.4639C105.193 80.706 103.495 78.8346 100.998 78.8346C98.5007 78.8346 96.8025 80.706 96.8025 83.4639C96.8025 86.1889 98.5007 88.0603 100.998 88.0603Z" fill="#1A1A1A"/>
<path d="M78.3711 85.1696L85.3086 74.9102H90.3032V91.7365H85.8635V81.4763L78.926 91.7365H73.9313V81.4763L66.9946 91.7365H62L70.4166 79.2878H62.5549V74.9102H78.3711V85.1696Z" fill="#1A1A1A"/>
</svg>
