<svg width="242" height="180" viewBox="0 0 242 180" fill="none" xmlns="http://www.w3.org/2000/svg">
<rect y="20" width="242" height="160" rx="12" fill="#E6E2DE"/>
<path d="M101.917 95L98.9092 87.368V95H96.7012V83.512H99.6132L102.941 92.024L106.285 83.512H109.197V95H106.989V87.304L103.949 95H101.917ZM114.969 95.16C112.489 95.16 110.633 93.208 110.633 90.728C110.633 88.232 112.489 86.296 114.969 86.296C117.449 86.296 119.305 88.232 119.305 90.728C119.305 93.208 117.449 95.16 114.969 95.16ZM114.969 93.192C116.073 93.192 117.017 92.312 117.017 90.728C117.017 89.144 116.073 88.28 114.969 88.28C113.865 88.28 112.921 89.144 112.921 90.728C112.921 92.312 113.865 93.192 114.969 93.192ZM120.004 90.728C120.004 88.2 121.492 86.296 123.796 86.296C124.82 86.296 125.684 86.744 126.324 87.56V83.512H128.532V95H126.5V93.768C125.828 94.664 124.9 95.16 123.796 95.16C121.492 95.16 120.004 93.224 120.004 90.728ZM122.292 90.728C122.292 92.328 123.204 93.176 124.292 93.176C125.396 93.176 126.308 92.312 126.308 90.696C126.308 89.08 125.38 88.264 124.292 88.264C123.204 88.264 122.292 89.096 122.292 90.728ZM132.581 90.344V95H130.357V86.456H132.405V87.672C133.029 86.824 133.909 86.296 135.029 86.296C136.741 86.296 137.925 87.416 137.925 89.48V95H135.717V90.232C135.717 88.968 135.221 88.264 134.213 88.264C133.333 88.264 132.581 88.968 132.581 90.344ZM143.394 95.144C140.834 95.144 139.122 93.368 139.122 90.696C139.122 88.152 140.898 86.296 143.362 86.296C146.066 86.296 147.858 88.488 147.458 91.272H141.394C141.538 92.664 142.21 93.432 143.346 93.432C144.322 93.432 144.978 92.952 145.234 92.104H147.442C146.962 94.04 145.474 95.144 143.394 95.144ZM143.314 87.928C142.274 87.928 141.618 88.6 141.426 89.864H145.106C145.042 88.68 144.37 87.928 143.314 87.928ZM154.037 92.84V94.776C153.493 95.048 152.981 95.16 152.325 95.16C150.565 95.16 149.461 94.152 149.461 92.232V88.36H147.733V86.456H149.461V83.928H151.669V86.456H154.117V88.36H151.669V91.72C151.669 92.712 152.117 93.112 152.917 93.112C153.333 93.112 153.717 93.016 154.037 92.84Z" fill="#1A1A1A"/>
<path d="M65.0539 115H58.9639V104.948H60.5039V113.614H65.0539V115ZM69.0764 115.14C66.9764 115.14 65.4364 113.488 65.4364 111.29C65.4364 109.092 66.9764 107.44 69.0764 107.44C71.1764 107.44 72.7164 109.092 72.7164 111.29C72.7164 113.488 71.1764 115.14 69.0764 115.14ZM69.0764 113.894C70.2944 113.894 71.2604 112.914 71.2604 111.29C71.2604 109.666 70.2944 108.7 69.0764 108.7C67.8584 108.7 66.9064 109.666 66.9064 111.29C66.9064 112.914 67.8584 113.894 69.0764 113.894ZM76.7091 117.856C74.7631 117.856 73.5031 116.82 73.4191 115.14H74.7911C74.8751 116.176 75.5471 116.736 76.6951 116.736C77.9691 116.736 78.6411 116.05 78.6411 114.776V113.432C78.2211 114.328 77.3811 114.846 76.3731 114.846C74.5251 114.846 73.2091 113.32 73.2091 111.136C73.2091 108.924 74.4691 107.44 76.3311 107.44C77.3951 107.44 78.2351 107.958 78.7391 108.896V107.58H80.0551V114.748C80.0551 116.694 78.8091 117.856 76.7091 117.856ZM74.6371 111.136C74.6371 112.676 75.3931 113.614 76.6251 113.614C77.8291 113.614 78.6411 112.648 78.6411 111.178C78.6411 109.638 77.8431 108.658 76.6251 108.658C75.4071 108.658 74.6371 109.61 74.6371 111.136ZM84.8406 115.14C82.7406 115.14 81.2006 113.488 81.2006 111.29C81.2006 109.092 82.7406 107.44 84.8406 107.44C86.9406 107.44 88.4806 109.092 88.4806 111.29C88.4806 113.488 86.9406 115.14 84.8406 115.14ZM84.8406 113.894C86.0586 113.894 87.0246 112.914 87.0246 111.29C87.0246 109.666 86.0586 108.7 84.8406 108.7C83.6226 108.7 82.6706 109.666 82.6706 111.29C82.6706 112.914 83.6226 113.894 84.8406 113.894ZM95.5779 115H92.3999V104.948H95.5779C98.7839 104.948 100.632 106.992 100.632 109.932C100.632 112.83 98.7139 115 95.5779 115ZM93.9399 106.278V113.67H95.5079C97.8179 113.67 99.0639 112.242 99.0639 109.932C99.0639 107.664 97.8319 106.278 95.5079 106.278H93.9399ZM104.904 115.14C102.762 115.14 101.32 113.586 101.32 111.248C101.32 109.05 102.818 107.44 104.862 107.44C107.074 107.44 108.544 109.232 108.292 111.64H102.762C102.874 113.152 103.63 114.034 104.876 114.034C105.926 114.034 106.654 113.46 106.892 112.494H108.292C107.928 114.146 106.654 115.14 104.904 115.14ZM104.834 108.504C103.7 108.504 102.93 109.316 102.776 110.702H106.794C106.724 109.33 105.982 108.504 104.834 108.504ZM115.395 112.788C115.395 114.244 114.261 115.14 112.287 115.14C110.327 115.14 109.165 114.174 109.025 112.578H110.383C110.439 113.502 111.181 114.076 112.315 114.076C113.309 114.076 113.967 113.726 113.967 113.026C113.967 112.41 113.589 112.144 112.665 111.962L111.461 111.738C110.089 111.472 109.319 110.772 109.319 109.652C109.319 108.35 110.453 107.44 112.175 107.44C113.953 107.44 115.157 108.392 115.283 109.918H113.925C113.841 109.022 113.183 108.504 112.189 108.504C111.293 108.504 110.691 108.882 110.691 109.526C110.691 110.128 111.069 110.408 111.965 110.576L113.225 110.814C114.695 111.08 115.395 111.724 115.395 112.788ZM118.381 105.858C118.381 106.39 117.961 106.796 117.359 106.796C116.757 106.796 116.323 106.39 116.323 105.858C116.323 105.312 116.757 104.92 117.359 104.92C117.961 104.92 118.381 105.312 118.381 105.858ZM118.073 115H116.659V107.58H118.073V115ZM122.724 117.856C120.778 117.856 119.518 116.82 119.434 115.14H120.806C120.89 116.176 121.562 116.736 122.71 116.736C123.984 116.736 124.656 116.05 124.656 114.776V113.432C124.236 114.328 123.396 114.846 122.388 114.846C120.54 114.846 119.224 113.32 119.224 111.136C119.224 108.924 120.484 107.44 122.346 107.44C123.41 107.44 124.25 107.958 124.754 108.896V107.58H126.07V114.748C126.07 116.694 124.824 117.856 122.724 117.856ZM120.652 111.136C120.652 112.676 121.408 113.614 122.64 113.614C123.844 113.614 124.656 112.648 124.656 111.178C124.656 109.638 123.858 108.658 122.64 108.658C121.422 108.658 120.652 109.61 120.652 111.136ZM129.161 110.814V115H127.747V107.58H129.063V108.812C129.567 107.986 130.407 107.44 131.429 107.44C132.955 107.44 133.963 108.42 133.963 110.198V115H132.549V110.674C132.549 109.4 131.989 108.686 130.939 108.686C129.973 108.686 129.161 109.498 129.161 110.814ZM137.479 114.398C137.479 115.728 136.429 116.764 134.889 116.792V115.994C135.799 115.966 136.415 115.476 136.499 114.79C136.373 114.832 136.289 114.846 136.191 114.846C135.659 114.846 135.267 114.412 135.267 113.894C135.267 113.292 135.715 112.9 136.289 112.9C137.059 112.9 137.479 113.46 137.479 114.398ZM149.333 115L147.205 107.118L145.063 115H143.481L140.863 104.948H142.375L144.307 112.69L146.421 104.948H148.017L150.103 112.704L152.035 104.948H153.547L150.929 115H149.333ZM156.955 115.14C154.813 115.14 153.371 113.586 153.371 111.248C153.371 109.05 154.869 107.44 156.913 107.44C159.125 107.44 160.595 109.232 160.343 111.64H154.813C154.925 113.152 155.681 114.034 156.927 114.034C157.977 114.034 158.705 113.46 158.943 112.494H160.343C159.979 114.146 158.705 115.14 156.955 115.14ZM156.885 108.504C155.751 108.504 154.981 109.316 154.827 110.702H158.845C158.775 109.33 158.033 108.504 156.885 108.504ZM168.65 111.29C168.65 113.516 167.362 115.14 165.36 115.14C164.31 115.14 163.414 114.608 162.882 113.67V115H161.566V104.948H162.98V108.854C163.498 107.944 164.352 107.44 165.36 107.44C167.348 107.44 168.65 109.036 168.65 111.29ZM167.18 111.29C167.18 109.61 166.298 108.686 165.08 108.686C163.904 108.686 162.98 109.596 162.98 111.262C162.98 112.9 163.876 113.88 165.08 113.88C166.298 113.88 167.18 112.942 167.18 111.29ZM175.684 112.788C175.684 114.244 174.55 115.14 172.576 115.14C170.616 115.14 169.454 114.174 169.314 112.578H170.672C170.728 113.502 171.47 114.076 172.604 114.076C173.598 114.076 174.256 113.726 174.256 113.026C174.256 112.41 173.878 112.144 172.954 111.962L171.75 111.738C170.378 111.472 169.608 110.772 169.608 109.652C169.608 108.35 170.742 107.44 172.464 107.44C174.242 107.44 175.446 108.392 175.572 109.918H174.214C174.13 109.022 173.472 108.504 172.478 108.504C171.582 108.504 170.98 108.882 170.98 109.526C170.98 110.128 171.358 110.408 172.254 110.576L173.514 110.814C174.984 111.08 175.684 111.724 175.684 112.788ZM178.669 105.858C178.669 106.39 178.249 106.796 177.647 106.796C177.045 106.796 176.611 106.39 176.611 105.858C176.611 105.312 177.045 104.92 177.647 104.92C178.249 104.92 178.669 105.312 178.669 105.858ZM178.361 115H176.947V107.58H178.361V115ZM184.23 113.628V114.874C183.796 115.07 183.418 115.14 182.97 115.14C181.598 115.14 180.646 114.398 180.646 112.76V108.784H179.008V107.58H180.646V105.382H182.06V107.58H184.3V108.784H182.06V112.438C182.06 113.46 182.55 113.824 183.306 113.824C183.642 113.824 183.936 113.768 184.23 113.628ZM188.217 115.14C186.075 115.14 184.633 113.586 184.633 111.248C184.633 109.05 186.131 107.44 188.175 107.44C190.387 107.44 191.857 109.232 191.605 111.64H186.075C186.187 113.152 186.943 114.034 188.189 114.034C189.239 114.034 189.967 113.46 190.205 112.494H191.605C191.241 114.146 189.967 115.14 188.217 115.14ZM188.147 108.504C187.013 108.504 186.243 109.316 186.089 110.702H190.107C190.037 109.33 189.295 108.504 188.147 108.504ZM56.461 132H53.283V121.948H56.461C59.667 121.948 61.515 123.992 61.515 126.932C61.515 129.83 59.597 132 56.461 132ZM54.823 123.278V130.67H56.391C58.701 130.67 59.947 129.242 59.947 126.932C59.947 124.664 58.715 123.278 56.391 123.278H54.823ZM65.7867 132.14C63.6447 132.14 62.2027 130.586 62.2027 128.248C62.2027 126.05 63.7007 124.44 65.7447 124.44C67.9567 124.44 69.4267 126.232 69.1747 128.64H63.6447C63.7567 130.152 64.5127 131.034 65.7587 131.034C66.8087 131.034 67.5367 130.46 67.7747 129.494H69.1747C68.8107 131.146 67.5367 132.14 65.7867 132.14ZM65.7167 125.504C64.5827 125.504 63.8127 126.316 63.6587 127.702H67.6767C67.6067 126.33 66.8647 125.504 65.7167 125.504ZM76.2781 129.788C76.2781 131.244 75.1441 132.14 73.1701 132.14C71.2101 132.14 70.0481 131.174 69.9081 129.578H71.2661C71.3221 130.502 72.0641 131.076 73.1981 131.076C74.1921 131.076 74.8501 130.726 74.8501 130.026C74.8501 129.41 74.4721 129.144 73.5481 128.962L72.3441 128.738C70.9721 128.472 70.2021 127.772 70.2021 126.652C70.2021 125.35 71.3361 124.44 73.0581 124.44C74.8361 124.44 76.0401 125.392 76.1661 126.918H74.8081C74.7241 126.022 74.0661 125.504 73.0721 125.504C72.1761 125.504 71.5741 125.882 71.5741 126.526C71.5741 127.128 71.9521 127.408 72.8481 127.576L74.1081 127.814C75.5781 128.08 76.2781 128.724 76.2781 129.788ZM79.2639 122.858C79.2639 123.39 78.8439 123.796 78.2419 123.796C77.6399 123.796 77.2059 123.39 77.2059 122.858C77.2059 122.312 77.6399 121.92 78.2419 121.92C78.8439 121.92 79.2639 122.312 79.2639 122.858ZM78.9559 132H77.5419V124.58H78.9559V132ZM83.6069 134.856C81.6609 134.856 80.4009 133.82 80.3169 132.14H81.6889C81.7729 133.176 82.4449 133.736 83.5929 133.736C84.8669 133.736 85.5389 133.05 85.5389 131.776V130.432C85.1189 131.328 84.2789 131.846 83.2709 131.846C81.4229 131.846 80.1069 130.32 80.1069 128.136C80.1069 125.924 81.3669 124.44 83.2289 124.44C84.2929 124.44 85.1329 124.958 85.6369 125.896V124.58H86.9529V131.748C86.9529 133.694 85.7069 134.856 83.6069 134.856ZM81.5349 128.136C81.5349 129.676 82.2909 130.614 83.5229 130.614C84.7269 130.614 85.5389 129.648 85.5389 128.178C85.5389 126.638 84.7409 125.658 83.5229 125.658C82.3049 125.658 81.5349 126.61 81.5349 128.136ZM90.0444 127.814V132H88.6304V124.58H89.9464V125.812C90.4504 124.986 91.2904 124.44 92.3124 124.44C93.8384 124.44 94.8464 125.42 94.8464 127.198V132H93.4324V127.674C93.4324 126.4 92.8724 125.686 91.8224 125.686C90.8564 125.686 90.0444 126.498 90.0444 127.814ZM98.3621 131.398C98.3621 132.728 97.3121 133.764 95.7721 133.792V132.994C96.6821 132.966 97.2981 132.476 97.3821 131.79C97.2561 131.832 97.1721 131.846 97.0741 131.846C96.5421 131.846 96.1501 131.412 96.1501 130.894C96.1501 130.292 96.5981 129.9 97.1721 129.9C97.9421 129.9 98.3621 130.46 98.3621 131.398ZM106.045 128.5H104.099V132H102.559V121.948H106.045C108.299 121.948 109.755 123.096 109.755 125.196C109.755 127.31 108.299 128.5 106.045 128.5ZM106.031 123.25H104.099V127.198H106.031C107.389 127.198 108.215 126.456 108.215 125.21C108.215 123.964 107.389 123.25 106.031 123.25ZM112.317 128.206V132H110.903V124.58H112.219V126.148C112.737 125.126 113.857 124.482 115.075 124.482V125.952C113.479 125.868 112.317 126.568 112.317 128.206ZM118.995 132.14C116.895 132.14 115.355 130.488 115.355 128.29C115.355 126.092 116.895 124.44 118.995 124.44C121.095 124.44 122.635 126.092 122.635 128.29C122.635 130.488 121.095 132.14 118.995 132.14ZM118.995 130.894C120.213 130.894 121.179 129.914 121.179 128.29C121.179 126.666 120.213 125.7 118.995 125.7C117.777 125.7 116.825 126.666 116.825 128.29C116.825 129.914 117.777 130.894 118.995 130.894ZM123.264 128.29C123.264 126.036 124.552 124.44 126.554 124.44C127.548 124.44 128.416 124.944 128.934 125.854V121.948H130.348V132H129.032V130.67C128.5 131.608 127.604 132.14 126.554 132.14C124.552 132.14 123.264 130.516 123.264 128.29ZM124.734 128.29C124.734 129.942 125.602 130.88 126.834 130.88C128.038 130.88 128.934 129.9 128.934 128.262C128.934 126.596 128.01 125.686 126.834 125.686C125.602 125.686 124.734 126.61 124.734 128.29ZM136.668 128.948V124.58H138.082V132H136.766V130.824C136.374 131.594 135.506 132.14 134.498 132.14C133 132.14 131.964 131.258 131.964 129.354V124.58H133.378V129.074C133.378 130.362 134.022 130.894 134.946 130.894C135.898 130.894 136.668 130.11 136.668 128.948ZM142.691 132.154C140.661 132.154 139.233 130.558 139.233 128.29C139.233 126.05 140.689 124.44 142.691 124.44C144.525 124.44 145.855 125.658 146.121 127.59H144.637C144.483 126.4 143.741 125.686 142.705 125.686C141.487 125.686 140.689 126.722 140.689 128.29C140.689 129.872 141.487 130.894 142.705 130.894C143.755 130.894 144.483 130.194 144.651 128.99H146.121C145.869 130.95 144.553 132.154 142.691 132.154ZM151.451 130.628V131.874C151.017 132.07 150.639 132.14 150.191 132.14C148.819 132.14 147.867 131.398 147.867 129.76V125.784H146.229V124.58H147.867V122.382H149.281V124.58H151.521V125.784H149.281V129.438C149.281 130.46 149.771 130.824 150.527 130.824C150.863 130.824 151.157 130.768 151.451 130.628ZM158.526 132H155.348V121.948H158.526C161.732 121.948 163.58 123.992 163.58 126.932C163.58 129.83 161.662 132 158.526 132ZM156.888 123.278V130.67H158.456C160.766 130.67 162.012 129.242 162.012 126.932C162.012 124.664 160.78 123.278 158.456 123.278H156.888ZM167.852 132.14C165.71 132.14 164.268 130.586 164.268 128.248C164.268 126.05 165.766 124.44 167.81 124.44C170.022 124.44 171.492 126.232 171.24 128.64H165.71C165.822 130.152 166.578 131.034 167.824 131.034C168.874 131.034 169.602 130.46 169.84 129.494H171.24C170.876 131.146 169.602 132.14 167.852 132.14ZM167.782 125.504C166.648 125.504 165.878 126.316 165.724 127.702H169.742C169.672 126.33 168.93 125.504 167.782 125.504ZM178.343 129.788C178.343 131.244 177.209 132.14 175.235 132.14C173.275 132.14 172.113 131.174 171.973 129.578H173.331C173.387 130.502 174.129 131.076 175.263 131.076C176.257 131.076 176.915 130.726 176.915 130.026C176.915 129.41 176.537 129.144 175.613 128.962L174.409 128.738C173.037 128.472 172.267 127.772 172.267 126.652C172.267 125.35 173.401 124.44 175.123 124.44C176.901 124.44 178.105 125.392 178.231 126.918H176.873C176.789 126.022 176.131 125.504 175.137 125.504C174.241 125.504 173.639 125.882 173.639 126.526C173.639 127.128 174.017 127.408 174.913 127.576L176.173 127.814C177.643 128.08 178.343 128.724 178.343 129.788ZM181.329 122.858C181.329 123.39 180.909 123.796 180.307 123.796C179.705 123.796 179.271 123.39 179.271 122.858C179.271 122.312 179.705 121.92 180.307 121.92C180.909 121.92 181.329 122.312 181.329 122.858ZM181.021 132H179.607V124.58H181.021V132ZM185.672 134.856C183.726 134.856 182.466 133.82 182.382 132.14H183.754C183.838 133.176 184.51 133.736 185.658 133.736C186.932 133.736 187.604 133.05 187.604 131.776V130.432C187.184 131.328 186.344 131.846 185.336 131.846C183.488 131.846 182.172 130.32 182.172 128.136C182.172 125.924 183.432 124.44 185.294 124.44C186.358 124.44 187.198 124.958 187.702 125.896V124.58H189.018V131.748C189.018 133.694 187.772 134.856 185.672 134.856ZM183.6 128.136C183.6 129.676 184.356 130.614 185.588 130.614C186.792 130.614 187.604 129.648 187.604 128.178C187.604 126.638 186.806 125.658 185.588 125.658C184.37 125.658 183.6 126.61 183.6 128.136ZM192.109 127.814V132H190.695V124.58H192.011V125.812C192.515 124.986 193.355 124.44 194.377 124.44C195.903 124.44 196.911 125.42 196.911 127.198V132H195.497V127.674C195.497 126.4 194.937 125.686 193.887 125.686C192.921 125.686 192.109 126.498 192.109 127.814Z" fill="#1A1A1A"/>
<path d="M128.698 0C132.845 0.000167278 136.254 3.15607 136.657 7.19727C137.077 7.21344 137.489 7.26222 137.89 7.34082C139.072 7.06137 140.27 6.92775 141.438 6.92773L141.8 6.93164C144.476 6.99314 147.074 7.73766 149.311 9.18164C151.764 7.72318 154.668 6.92776 157.854 6.92773C159.442 6.92773 160.96 7.11594 162.387 7.48145C163.526 4.45302 166.449 2.29794 169.876 2.29785H174.505C178.057 2.29799 181.065 4.6135 182.11 7.81641C184.983 9.02981 187 11.875 187 15.1904V18.998C187 20.6443 186.502 22.1743 185.65 23.4463C186.503 24.7184 187 26.2489 187 27.8955V31.7373C187 36.1554 183.418 39.7372 179 39.7373H176.237C173.399 39.7373 170.322 39.06 167.662 37.2334C164.874 39.0683 161.513 40 158.187 40C155.702 40 153.49 39.5417 151.554 38.7461C150.41 39.3767 149.096 39.7373 147.698 39.7373H143.036C141.841 39.7373 140.708 39.4728 139.69 39.0029C138.671 39.4728 137.538 39.7373 136.343 39.7373H131.682C131.171 39.7373 130.673 39.6871 130.189 39.5957C129.705 39.6869 129.207 39.7373 128.698 39.7373H124.069C123.623 39.7373 123.185 39.6991 122.759 39.6289C121.656 39.88 120.546 40 119.474 40C116.226 40 113.059 39.141 110.38 37.3271C107.7 39.0338 104.475 39.9999 100.998 40C98.5981 40 96.3173 39.5387 94.2532 38.6924C93.0875 39.3558 91.7401 39.7373 90.303 39.7373H85.8635C84.6183 39.7373 83.4398 39.4519 82.3889 38.9443C81.3232 39.4564 80.1437 39.7373 78.926 39.7373H73.9309C72.686 39.7372 71.5079 39.4517 70.4573 38.9443C69.3916 39.4564 68.212 39.7373 66.9944 39.7373H62.0002C59.0407 39.7373 56.3229 38.1031 54.9348 35.4893C53.5468 32.8752 53.7146 29.7077 55.3723 27.2559L56.9202 24.9658C55.4599 23.5165 54.5549 21.5081 54.5549 19.2881V14.9111C54.5549 10.4929 58.1367 6.91113 62.5549 6.91113H78.3713C79.6162 6.91117 80.7944 7.19584 81.845 7.70312C82.9108 7.19093 84.091 6.91113 85.3088 6.91113H90.303C91.8567 6.91113 93.306 7.35562 94.5335 8.12207C96.523 7.34736 98.7064 6.92773 100.998 6.92773C104.471 6.92781 107.693 7.89076 110.371 9.59375C112.111 8.41308 114.06 7.63533 116.106 7.23926C116.489 3.17792 119.907 0.000105222 124.069 0H128.698ZM100.998 22.9277C100.645 22.9277 100.431 22.9882 100.327 23.0283C100.273 23.0492 100.24 23.0678 100.222 23.0791C100.206 23.0893 100.199 23.0962 100.198 23.0977L100.19 23.1143C100.18 23.1371 100.141 23.242 100.141 23.4639C100.141 23.6861 100.18 23.791 100.19 23.8135C100.193 23.8223 100.196 23.8276 100.198 23.8301L100.222 23.8486C100.24 23.8599 100.273 23.8785 100.327 23.8994C100.431 23.9396 100.645 24 100.998 24C101.351 24 101.565 23.9395 101.668 23.8994C101.722 23.8785 101.756 23.8599 101.774 23.8486C101.787 23.84 101.794 23.8336 101.797 23.8311C101.797 23.8311 101.802 23.8241 101.806 23.8135C101.815 23.791 101.855 23.6862 101.855 23.4639C101.855 23.2418 101.815 23.1369 101.806 23.1143C101.801 23.1015 101.797 23.0957 101.797 23.0957C101.794 23.093 101.787 23.0873 101.774 23.0791C101.756 23.0678 101.722 23.0492 101.668 23.0283C101.565 22.9882 101.351 22.9278 100.998 22.9277Z" fill="#E6E2DE"/>
<path d="M169.876 10.2981H174.505V15.19H179V18.9985H174.505V25.5319C174.505 27.1407 175.371 27.8958 176.869 27.8958H179V31.7371H176.236C172.374 31.7371 169.876 29.5702 169.876 25.7289V18.9985H166.647V15.19H169.876V10.2981Z" fill="#1A1A1A"/>
<path d="M161.65 26.1231H166.178C165.512 29.7018 162.316 32 158.187 32C152.493 32 149.563 27.6006 149.563 23.431C149.563 19.2285 152.16 14.9276 157.854 14.9276C163.781 14.9276 166.145 19.2285 166.145 23.0041C166.145 23.6279 166.112 24.1204 166.078 24.4816H154.025C154.358 26.8126 155.856 28.2572 158.187 28.2572C160.052 28.2572 161.284 27.5349 161.65 26.1231ZM157.854 18.2764C155.756 18.2764 154.491 19.2942 154.091 21.5924H161.517C161.383 19.7538 160.085 18.2764 157.854 18.2764Z" fill="#1A1A1A"/>
<path d="M131.682 31.7373V15.1902H136.343V17.4884C137.276 15.8797 139.14 14.9276 141.438 14.9276C145.234 14.9276 147.698 17.6198 147.698 21.4282V31.7373H143.036V22.446C143.036 20.4433 141.738 18.9987 139.806 18.9987C137.775 18.9987 136.343 20.5418 136.343 22.6758V31.7373H131.682Z" fill="#1A1A1A"/>
<path d="M119.474 31.9999C114.546 31.9999 111.549 28.6182 111.549 23.4637C111.549 18.3091 114.546 14.9275 119.407 14.9275C121.505 14.9275 123.137 15.7154 124.069 16.9302V8H128.697V31.7372H124.069V29.9315C123.137 31.2119 121.405 31.9999 119.474 31.9999ZM120.24 28.0601C122.704 28.0601 124.335 26.2215 124.335 23.4637C124.335 20.673 122.704 18.8344 120.24 18.8344C117.776 18.8344 116.144 20.673 116.144 23.4637C116.144 26.2215 117.776 28.0601 120.24 28.0601Z" fill="#1A1A1A"/>
<path d="M100.998 32C95.8368 32 92.1408 28.3885 92.1408 23.4638C92.1408 18.539 95.8368 14.9276 100.998 14.9276C106.159 14.9276 109.855 18.539 109.855 23.4638C109.855 28.3885 106.159 32 100.998 32ZM100.998 28.0602C103.495 28.0602 105.193 26.1888 105.193 23.4638C105.193 20.7059 103.495 18.8345 100.998 18.8345C98.5006 18.8345 96.8024 20.7059 96.8024 23.4638C96.8024 26.1888 98.5006 28.0602 100.998 28.0602Z" fill="#1A1A1A"/>
<path d="M78.3711 25.1703L85.3086 14.9109H90.3032V31.7372H85.8635V21.477L78.926 31.7372H73.9313V21.477L66.9946 31.7372H62L70.4166 19.2885H62.5549V14.9109H78.3711V25.1703Z" fill="#1A1A1A"/>
</svg>
