<svg width="242" height="180" viewBox="0 0 242 180" fill="none" xmlns="http://www.w3.org/2000/svg">
<rect y="20" width="242" height="160" rx="12" fill="#E6E2DE"/>
<path d="M101.917 95L98.9092 87.368V95H96.7012V83.512H99.6132L102.941 92.024L106.285 83.512H109.197V95H106.989V87.304L103.949 95H101.917ZM114.969 95.16C112.489 95.16 110.633 93.208 110.633 90.728C110.633 88.232 112.489 86.296 114.969 86.296C117.449 86.296 119.305 88.232 119.305 90.728C119.305 93.208 117.449 95.16 114.969 95.16ZM114.969 93.192C116.073 93.192 117.017 92.312 117.017 90.728C117.017 89.144 116.073 88.28 114.969 88.28C113.865 88.28 112.921 89.144 112.921 90.728C112.921 92.312 113.865 93.192 114.969 93.192ZM120.004 90.728C120.004 88.2 121.492 86.296 123.796 86.296C124.82 86.296 125.684 86.744 126.324 87.56V83.512H128.532V95H126.5V93.768C125.828 94.664 124.9 95.16 123.796 95.16C121.492 95.16 120.004 93.224 120.004 90.728ZM122.292 90.728C122.292 92.328 123.204 93.176 124.292 93.176C125.396 93.176 126.308 92.312 126.308 90.696C126.308 89.08 125.38 88.264 124.292 88.264C123.204 88.264 122.292 89.096 122.292 90.728ZM132.581 90.344V95H130.357V86.456H132.405V87.672C133.029 86.824 133.909 86.296 135.029 86.296C136.741 86.296 137.925 87.416 137.925 89.48V95H135.717V90.232C135.717 88.968 135.221 88.264 134.213 88.264C133.333 88.264 132.581 88.968 132.581 90.344ZM143.394 95.144C140.834 95.144 139.122 93.368 139.122 90.696C139.122 88.152 140.898 86.296 143.362 86.296C146.066 86.296 147.858 88.488 147.458 91.272H141.394C141.538 92.664 142.21 93.432 143.346 93.432C144.322 93.432 144.978 92.952 145.234 92.104H147.442C146.962 94.04 145.474 95.144 143.394 95.144ZM143.314 87.928C142.274 87.928 141.618 88.6 141.426 89.864H145.106C145.042 88.68 144.37 87.928 143.314 87.928ZM154.037 92.84V94.776C153.493 95.048 152.981 95.16 152.325 95.16C150.565 95.16 149.461 94.152 149.461 92.232V88.36H147.733V86.456H149.461V83.928H151.669V86.456H154.117V88.36H151.669V91.72C151.669 92.712 152.117 93.112 152.917 93.112C153.333 93.112 153.717 93.016 154.037 92.84Z" fill="#1A1A1A"/>
<path d="M65.0539 115H58.9639V104.948H60.5039V113.614H65.0539V115ZM69.0764 115.14C66.9764 115.14 65.4364 113.488 65.4364 111.29C65.4364 109.092 66.9764 107.44 69.0764 107.44C71.1764 107.44 72.7164 109.092 72.7164 111.29C72.7164 113.488 71.1764 115.14 69.0764 115.14ZM69.0764 113.894C70.2944 113.894 71.2604 112.914 71.2604 111.29C71.2604 109.666 70.2944 108.7 69.0764 108.7C67.8584 108.7 66.9064 109.666 66.9064 111.29C66.9064 112.914 67.8584 113.894 69.0764 113.894ZM76.7091 117.856C74.7631 117.856 73.5031 116.82 73.4191 115.14H74.7911C74.8751 116.176 75.5471 116.736 76.6951 116.736C77.9691 116.736 78.6411 116.05 78.6411 114.776V113.432C78.2211 114.328 77.3811 114.846 76.3731 114.846C74.5251 114.846 73.2091 113.32 73.2091 111.136C73.2091 108.924 74.4691 107.44 76.3311 107.44C77.3951 107.44 78.2351 107.958 78.7391 108.896V107.58H80.0551V114.748C80.0551 116.694 78.8091 117.856 76.7091 117.856ZM74.6371 111.136C74.6371 112.676 75.3931 113.614 76.6251 113.614C77.8291 113.614 78.6411 112.648 78.6411 111.178C78.6411 109.638 77.8431 108.658 76.6251 108.658C75.4071 108.658 74.6371 109.61 74.6371 111.136ZM84.8406 115.14C82.7406 115.14 81.2006 113.488 81.2006 111.29C81.2006 109.092 82.7406 107.44 84.8406 107.44C86.9406 107.44 88.4806 109.092 88.4806 111.29C88.4806 113.488 86.9406 115.14 84.8406 115.14ZM84.8406 113.894C86.0586 113.894 87.0246 112.914 87.0246 111.29C87.0246 109.666 86.0586 108.7 84.8406 108.7C83.6226 108.7 82.6706 109.666 82.6706 111.29C82.6706 112.914 83.6226 113.894 84.8406 113.894ZM95.5779 115H92.3999V104.948H95.5779C98.7839 104.948 100.632 106.992 100.632 109.932C100.632 112.83 98.7139 115 95.5779 115ZM93.9399 106.278V113.67H95.5079C97.8179 113.67 99.0639 112.242 99.0639 109.932C99.0639 107.664 97.8319 106.278 95.5079 106.278H93.9399ZM104.904 115.14C102.762 115.14 101.32 113.586 101.32 111.248C101.32 109.05 102.818 107.44 104.862 107.44C107.074 107.44 108.544 109.232 108.292 111.64H102.762C102.874 113.152 103.63 114.034 104.876 114.034C105.926 114.034 106.654 113.46 106.892 112.494H108.292C107.928 114.146 106.654 115.14 104.904 115.14ZM104.834 108.504C103.7 108.504 102.93 109.316 102.776 110.702H106.794C106.724 109.33 105.982 108.504 104.834 108.504ZM115.395 112.788C115.395 114.244 114.261 115.14 112.287 115.14C110.327 115.14 109.165 114.174 109.025 112.578H110.383C110.439 113.502 111.181 114.076 112.315 114.076C113.309 114.076 113.967 113.726 113.967 113.026C113.967 112.41 113.589 112.144 112.665 111.962L111.461 111.738C110.089 111.472 109.319 110.772 109.319 109.652C109.319 108.35 110.453 107.44 112.175 107.44C113.953 107.44 115.157 108.392 115.283 109.918H113.925C113.841 109.022 113.183 108.504 112.189 108.504C111.293 108.504 110.691 108.882 110.691 109.526C110.691 110.128 111.069 110.408 111.965 110.576L113.225 110.814C114.695 111.08 115.395 111.724 115.395 112.788ZM118.381 105.858C118.381 106.39 117.961 106.796 117.359 106.796C116.757 106.796 116.323 106.39 116.323 105.858C116.323 105.312 116.757 104.92 117.359 104.92C117.961 104.92 118.381 105.312 118.381 105.858ZM118.073 115H116.659V107.58H118.073V115ZM122.724 117.856C120.778 117.856 119.518 116.82 119.434 115.14H120.806C120.89 116.176 121.562 116.736 122.71 116.736C123.984 116.736 124.656 116.05 124.656 114.776V113.432C124.236 114.328 123.396 114.846 122.388 114.846C120.54 114.846 119.224 113.32 119.224 111.136C119.224 108.924 120.484 107.44 122.346 107.44C123.41 107.44 124.25 107.958 124.754 108.896V107.58H126.07V114.748C126.07 116.694 124.824 117.856 122.724 117.856ZM120.652 111.136C120.652 112.676 121.408 113.614 122.64 113.614C123.844 113.614 124.656 112.648 124.656 111.178C124.656 109.638 123.858 108.658 122.64 108.658C121.422 108.658 120.652 109.61 120.652 111.136ZM129.161 110.814V115H127.747V107.58H129.063V108.812C129.567 107.986 130.407 107.44 131.429 107.44C132.955 107.44 133.963 108.42 133.963 110.198V115H132.549V110.674C132.549 109.4 131.989 108.686 130.939 108.686C129.973 108.686 129.161 109.498 129.161 110.814ZM137.479 114.398C137.479 115.728 136.429 116.764 134.889 116.792V115.994C135.799 115.966 136.415 115.476 136.499 114.79C136.373 114.832 136.289 114.846 136.191 114.846C135.659 114.846 135.267 114.412 135.267 113.894C135.267 113.292 135.715 112.9 136.289 112.9C137.059 112.9 137.479 113.46 137.479 114.398ZM149.333 115L147.205 107.118L145.063 115H143.481L140.863 104.948H142.375L144.307 112.69L146.421 104.948H148.017L150.103 112.704L152.035 104.948H153.547L150.929 115H149.333ZM156.955 115.14C154.813 115.14 153.371 113.586 153.371 111.248C153.371 109.05 154.869 107.44 156.913 107.44C159.125 107.44 160.595 109.232 160.343 111.64H154.813C154.925 113.152 155.681 114.034 156.927 114.034C157.977 114.034 158.705 113.46 158.943 112.494H160.343C159.979 114.146 158.705 115.14 156.955 115.14ZM156.885 108.504C155.751 108.504 154.981 109.316 154.827 110.702H158.845C158.775 109.33 158.033 108.504 156.885 108.504ZM168.65 111.29C168.65 113.516 167.362 115.14 165.36 115.14C164.31 115.14 163.414 114.608 162.882 113.67V115H161.566V104.948H162.98V108.854C163.498 107.944 164.352 107.44 165.36 107.44C167.348 107.44 168.65 109.036 168.65 111.29ZM167.18 111.29C167.18 109.61 166.298 108.686 165.08 108.686C163.904 108.686 162.98 109.596 162.98 111.262C162.98 112.9 163.876 113.88 165.08 113.88C166.298 113.88 167.18 112.942 167.18 111.29ZM175.684 112.788C175.684 114.244 174.55 115.14 172.576 115.14C170.616 115.14 169.454 114.174 169.314 112.578H170.672C170.728 113.502 171.47 114.076 172.604 114.076C173.598 114.076 174.256 113.726 174.256 113.026C174.256 112.41 173.878 112.144 172.954 111.962L171.75 111.738C170.378 111.472 169.608 110.772 169.608 109.652C169.608 108.35 170.742 107.44 172.464 107.44C174.242 107.44 175.446 108.392 175.572 109.918H174.214C174.13 109.022 173.472 108.504 172.478 108.504C171.582 108.504 170.98 108.882 170.98 109.526C170.98 110.128 171.358 110.408 172.254 110.576L173.514 110.814C174.984 111.08 175.684 111.724 175.684 112.788ZM178.669 105.858C178.669 106.39 178.249 106.796 177.647 106.796C177.045 106.796 176.611 106.39 176.611 105.858C176.611 105.312 177.045 104.92 177.647 104.92C178.249 104.92 178.669 105.312 178.669 105.858ZM178.361 115H176.947V107.58H178.361V115ZM184.23 113.628V114.874C183.796 115.07 183.418 115.14 182.97 115.14C181.598 115.14 180.646 114.398 180.646 112.76V108.784H179.008V107.58H180.646V105.382H182.06V107.58H184.3V108.784H182.06V112.438C182.06 113.46 182.55 113.824 183.306 113.824C183.642 113.824 183.936 113.768 184.23 113.628ZM188.217 115.14C186.075 115.14 184.633 113.586 184.633 111.248C184.633 109.05 186.131 107.44 188.175 107.44C190.387 107.44 191.857 109.232 191.605 111.64H186.075C186.187 113.152 186.943 114.034 188.189 114.034C189.239 114.034 189.967 113.46 190.205 112.494H191.605C191.241 114.146 189.967 115.14 188.217 115.14ZM188.147 108.504C187.013 108.504 186.243 109.316 186.089 110.702H190.107C190.037 109.33 189.295 108.504 188.147 108.504ZM56.461 132H53.283V121.948H56.461C59.667 121.948 61.515 123.992 61.515 126.932C61.515 129.83 59.597 132 56.461 132ZM54.823 123.278V130.67H56.391C58.701 130.67 59.947 129.242 59.947 126.932C59.947 124.664 58.715 123.278 56.391 123.278H54.823ZM65.7867 132.14C63.6447 132.14 62.2027 130.586 62.2027 128.248C62.2027 126.05 63.7007 124.44 65.7447 124.44C67.9567 124.44 69.4267 126.232 69.1747 128.64H63.6447C63.7567 130.152 64.5127 131.034 65.7587 131.034C66.8087 131.034 67.5367 130.46 67.7747 129.494H69.1747C68.8107 131.146 67.5367 132.14 65.7867 132.14ZM65.7167 125.504C64.5827 125.504 63.8127 126.316 63.6587 127.702H67.6767C67.6067 126.33 66.8647 125.504 65.7167 125.504ZM76.2781 129.788C76.2781 131.244 75.1441 132.14 73.1701 132.14C71.2101 132.14 70.0481 131.174 69.9081 129.578H71.2661C71.3221 130.502 72.0641 131.076 73.1981 131.076C74.1921 131.076 74.8501 130.726 74.8501 130.026C74.8501 129.41 74.4721 129.144 73.5481 128.962L72.3441 128.738C70.9721 128.472 70.2021 127.772 70.2021 126.652C70.2021 125.35 71.3361 124.44 73.0581 124.44C74.8361 124.44 76.0401 125.392 76.1661 126.918H74.8081C74.7241 126.022 74.0661 125.504 73.0721 125.504C72.1761 125.504 71.5741 125.882 71.5741 126.526C71.5741 127.128 71.9521 127.408 72.8481 127.576L74.1081 127.814C75.5781 128.08 76.2781 128.724 76.2781 129.788ZM79.2639 122.858C79.2639 123.39 78.8439 123.796 78.2419 123.796C77.6399 123.796 77.2059 123.39 77.2059 122.858C77.2059 122.312 77.6399 121.92 78.2419 121.92C78.8439 121.92 79.2639 122.312 79.2639 122.858ZM78.9559 132H77.5419V124.58H78.9559V132ZM83.6069 134.856C81.6609 134.856 80.4009 133.82 80.3169 132.14H81.6889C81.7729 133.176 82.4449 133.736 83.5929 133.736C84.8669 133.736 85.5389 133.05 85.5389 131.776V130.432C85.1189 131.328 84.2789 131.846 83.2709 131.846C81.4229 131.846 80.1069 130.32 80.1069 128.136C80.1069 125.924 81.3669 124.44 83.2289 124.44C84.2929 124.44 85.1329 124.958 85.6369 125.896V124.58H86.9529V131.748C86.9529 133.694 85.7069 134.856 83.6069 134.856ZM81.5349 128.136C81.5349 129.676 82.2909 130.614 83.5229 130.614C84.7269 130.614 85.5389 129.648 85.5389 128.178C85.5389 126.638 84.7409 125.658 83.5229 125.658C82.3049 125.658 81.5349 126.61 81.5349 128.136ZM90.0444 127.814V132H88.6304V124.58H89.9464V125.812C90.4504 124.986 91.2904 124.44 92.3124 124.44C93.8384 124.44 94.8464 125.42 94.8464 127.198V132H93.4324V127.674C93.4324 126.4 92.8724 125.686 91.8224 125.686C90.8564 125.686 90.0444 126.498 90.0444 127.814ZM98.3621 131.398C98.3621 132.728 97.3121 133.764 95.7721 133.792V132.994C96.6821 132.966 97.2981 132.476 97.3821 131.79C97.2561 131.832 97.1721 131.846 97.0741 131.846C96.5421 131.846 96.1501 131.412 96.1501 130.894C96.1501 130.292 96.5981 129.9 97.1721 129.9C97.9421 129.9 98.3621 130.46 98.3621 131.398ZM106.045 128.5H104.099V132H102.559V121.948H106.045C108.299 121.948 109.755 123.096 109.755 125.196C109.755 127.31 108.299 128.5 106.045 128.5ZM106.031 123.25H104.099V127.198H106.031C107.389 127.198 108.215 126.456 108.215 125.21C108.215 123.964 107.389 123.25 106.031 123.25ZM112.317 128.206V132H110.903V124.58H112.219V126.148C112.737 125.126 113.857 124.482 115.075 124.482V125.952C113.479 125.868 112.317 126.568 112.317 128.206ZM118.995 132.14C116.895 132.14 115.355 130.488 115.355 128.29C115.355 126.092 116.895 124.44 118.995 124.44C121.095 124.44 122.635 126.092 122.635 128.29C122.635 130.488 121.095 132.14 118.995 132.14ZM118.995 130.894C120.213 130.894 121.179 129.914 121.179 128.29C121.179 126.666 120.213 125.7 118.995 125.7C117.777 125.7 116.825 126.666 116.825 128.29C116.825 129.914 117.777 130.894 118.995 130.894ZM123.264 128.29C123.264 126.036 124.552 124.44 126.554 124.44C127.548 124.44 128.416 124.944 128.934 125.854V121.948H130.348V132H129.032V130.67C128.5 131.608 127.604 132.14 126.554 132.14C124.552 132.14 123.264 130.516 123.264 128.29ZM124.734 128.29C124.734 129.942 125.602 130.88 126.834 130.88C128.038 130.88 128.934 129.9 128.934 128.262C128.934 126.596 128.01 125.686 126.834 125.686C125.602 125.686 124.734 126.61 124.734 128.29ZM136.668 128.948V124.58H138.082V132H136.766V130.824C136.374 131.594 135.506 132.14 134.498 132.14C133 132.14 131.964 131.258 131.964 129.354V124.58H133.378V129.074C133.378 130.362 134.022 130.894 134.946 130.894C135.898 130.894 136.668 130.11 136.668 128.948ZM142.691 132.154C140.661 132.154 139.233 130.558 139.233 128.29C139.233 126.05 140.689 124.44 142.691 124.44C144.525 124.44 145.855 125.658 146.121 127.59H144.637C144.483 126.4 143.741 125.686 142.705 125.686C141.487 125.686 140.689 126.722 140.689 128.29C140.689 129.872 141.487 130.894 142.705 130.894C143.755 130.894 144.483 130.194 144.651 128.99H146.121C145.869 130.95 144.553 132.154 142.691 132.154ZM151.451 130.628V131.874C151.017 132.07 150.639 132.14 150.191 132.14C148.819 132.14 147.867 131.398 147.867 129.76V125.784H146.229V124.58H147.867V122.382H149.281V124.58H151.521V125.784H149.281V129.438C149.281 130.46 149.771 130.824 150.527 130.824C150.863 130.824 151.157 130.768 151.451 130.628ZM158.526 132H155.348V121.948H158.526C161.732 121.948 163.58 123.992 163.58 126.932C163.58 129.83 161.662 132 158.526 132ZM156.888 123.278V130.67H158.456C160.766 130.67 162.012 129.242 162.012 126.932C162.012 124.664 160.78 123.278 158.456 123.278H156.888ZM167.852 132.14C165.71 132.14 164.268 130.586 164.268 128.248C164.268 126.05 165.766 124.44 167.81 124.44C170.022 124.44 171.492 126.232 171.24 128.64H165.71C165.822 130.152 166.578 131.034 167.824 131.034C168.874 131.034 169.602 130.46 169.84 129.494H171.24C170.876 131.146 169.602 132.14 167.852 132.14ZM167.782 125.504C166.648 125.504 165.878 126.316 165.724 127.702H169.742C169.672 126.33 168.93 125.504 167.782 125.504ZM178.343 129.788C178.343 131.244 177.209 132.14 175.235 132.14C173.275 132.14 172.113 131.174 171.973 129.578H173.331C173.387 130.502 174.129 131.076 175.263 131.076C176.257 131.076 176.915 130.726 176.915 130.026C176.915 129.41 176.537 129.144 175.613 128.962L174.409 128.738C173.037 128.472 172.267 127.772 172.267 126.652C172.267 125.35 173.401 124.44 175.123 124.44C176.901 124.44 178.105 125.392 178.231 126.918H176.873C176.789 126.022 176.131 125.504 175.137 125.504C174.241 125.504 173.639 125.882 173.639 126.526C173.639 127.128 174.017 127.408 174.913 127.576L176.173 127.814C177.643 128.08 178.343 128.724 178.343 129.788ZM181.329 122.858C181.329 123.39 180.909 123.796 180.307 123.796C179.705 123.796 179.271 123.39 179.271 122.858C179.271 122.312 179.705 121.92 180.307 121.92C180.909 121.92 181.329 122.312 181.329 122.858ZM181.021 132H179.607V124.58H181.021V132ZM185.672 134.856C183.726 134.856 182.466 133.82 182.382 132.14H183.754C183.838 133.176 184.51 133.736 185.658 133.736C186.932 133.736 187.604 133.05 187.604 131.776V130.432C187.184 131.328 186.344 131.846 185.336 131.846C183.488 131.846 182.172 130.32 182.172 128.136C182.172 125.924 183.432 124.44 185.294 124.44C186.358 124.44 187.198 124.958 187.702 125.896V124.58H189.018V131.748C189.018 133.694 187.772 134.856 185.672 134.856ZM183.6 128.136C183.6 129.676 184.356 130.614 185.588 130.614C186.792 130.614 187.604 129.648 187.604 128.178C187.604 126.638 186.806 125.658 185.588 125.658C184.37 125.658 183.6 126.61 183.6 128.136ZM192.109 127.814V132H190.695V124.58H192.011V125.812C192.515 124.986 193.355 124.44 194.377 124.44C195.903 124.44 196.911 125.42 196.911 127.198V132H195.497V127.674C195.497 126.4 194.937 125.686 193.887 125.686C192.921 125.686 192.109 126.498 192.109 127.814Z" fill="#1A1A1A"/>
<path d="M128.697 4C130.906 4.00003 132.697 5.79088 132.697 8V11.1904H136.344C136.887 11.1905 137.404 11.2991 137.876 11.4951C139.016 11.1131 140.227 10.9278 141.438 10.9277C144.323 10.9277 146.974 11.9749 148.893 13.9961C148.99 14.0984 149.083 14.2039 149.175 14.3096C151.309 12.1879 154.277 10.9278 157.854 10.9277C160.141 10.9277 162.168 11.4148 163.888 12.2949C164.429 11.7791 165.114 11.4134 165.877 11.2646V10.2979C165.877 8.08882 167.668 6.29785 169.877 6.29785H174.505C176.714 6.29788 178.505 8.08883 178.505 10.2979V11.1904H179C181.209 11.1904 183 12.9813 183 15.1904V18.998C183 21.2072 181.209 22.998 179 22.998H178.505V23.8955H179C181.209 23.8955 183 25.6865 183 27.8955V31.7373C183 33.9464 181.209 35.7373 179 35.7373H176.236C173.58 35.7373 170.924 34.986 168.895 33.1133C168.471 32.7222 168.097 32.2983 167.766 31.8506C165.478 34.5521 161.919 36 158.187 36C155.322 35.9999 152.934 35.214 151.034 33.9414C150.318 35.0229 149.092 35.7372 147.698 35.7373H143.036C141.635 35.7373 140.404 35.0168 139.689 33.9268C138.975 35.0165 137.744 35.7372 136.344 35.7373H131.682C131.154 35.7373 130.651 35.633 130.189 35.4473C129.728 35.633 129.225 35.7373 128.697 35.7373H124.068C123.593 35.7372 123.138 35.6529 122.716 35.501C121.661 35.8357 120.557 36 119.474 36C116.05 36 112.939 34.7958 110.714 32.3672C110.636 32.282 110.559 32.1956 110.484 32.1084C108.157 34.5425 104.803 36 100.998 36C98.2469 36 95.7322 35.2371 93.6699 33.8955C92.9586 35.0027 91.7174 35.7371 90.3037 35.7373H85.8633C84.3835 35.7372 83.0922 34.9329 82.4004 33.7383L82.2393 33.9775C81.4953 35.0777 80.2539 35.7373 78.9258 35.7373H73.9316C72.4521 35.7373 71.1607 34.9334 70.4688 33.7393L70.3086 33.9775C69.5648 35.0778 68.3232 35.7371 66.9951 35.7373H62C60.5201 35.7373 59.1608 34.9203 58.4668 33.6133C57.7728 32.3063 57.8577 30.723 58.6865 29.4971L62.8838 23.2881H62.5547C60.3456 23.288 58.5547 21.4972 58.5547 19.2881V14.9111C58.5547 12.7021 60.3456 10.9112 62.5547 10.9111H78.3711C79.8503 10.9111 81.1409 11.7144 81.833 12.9082L81.9951 12.6699L82.1406 12.4688C82.8949 11.4901 84.0637 10.9111 85.3086 10.9111H90.3037C91.8012 10.9113 93.1056 11.7347 93.791 12.9531C95.8303 11.6601 98.3007 10.9277 100.998 10.9277C104.801 10.9278 108.153 12.383 110.48 14.8145C110.551 14.7317 110.625 14.6503 110.698 14.5693C112.909 12.1425 116.001 10.9277 119.407 10.9277C119.629 10.9277 119.849 10.9351 120.068 10.9473V8C120.068 5.79102 121.859 4.00026 124.068 4H128.697ZM100.908 22.8408C100.87 22.9199 100.803 23.1077 100.803 23.4639C100.803 23.8003 100.867 23.9777 100.903 24.0527C100.926 24.0557 100.957 24.0605 100.998 24.0605C101.039 24.0605 101.069 24.0556 101.092 24.0527C101.128 23.9779 101.193 23.8007 101.193 23.4639C101.193 23.1073 101.125 22.9197 101.087 22.8408C101.065 22.8382 101.036 22.835 100.998 22.835C100.96 22.835 100.93 22.8382 100.908 22.8408ZM120.23 22.834C120.193 22.9378 120.144 23.1351 120.144 23.4639C120.144 23.7724 120.19 23.9589 120.226 24.0586C120.23 24.0587 120.235 24.0605 120.239 24.0605C120.244 24.0605 120.249 24.0587 120.253 24.0586C120.289 23.959 120.335 23.7726 120.335 23.4639C120.335 23.1349 120.286 22.9378 120.248 22.834H120.23Z" fill="#1A1A1A" stroke="#E6E2DE" stroke-width="8" stroke-linejoin="round"/>
</svg>
