<svg width="242" height="240" viewBox="0 0 242 240" fill="none" xmlns="http://www.w3.org/2000/svg">
<g clip-path="url(#clip0_1216_449)">
<path d="M230 80.002H12C5.37258 80.002 0 85.3745 0 92.002V228.002C0 234.629 5.37258 240.002 12 240.002H230C236.627 240.002 242 234.629 242 228.002V92.002C242 85.3745 236.627 80.002 230 80.002Z" fill="#E6E2DE"/>
<path d="M105.666 151.619H103.858V155.363H101.426V143.875H105.666C108.466 143.875 110.21 145.203 110.21 147.699C110.21 150.195 108.466 151.619 105.666 151.619ZM105.65 145.923H103.858V149.571H105.65C107.026 149.571 107.794 148.851 107.794 147.715C107.794 146.579 107.026 145.923 105.65 145.923ZM115.067 155.507C112.507 155.507 110.795 153.731 110.795 151.059C110.795 148.515 112.571 146.659 115.035 146.659C117.739 146.659 119.531 148.851 119.131 151.635H113.067C113.211 153.027 113.883 153.795 115.019 153.795C115.995 153.795 116.651 153.315 116.907 152.467H119.115C118.635 154.403 117.147 155.507 115.067 155.507ZM114.987 148.291C113.947 148.291 113.291 148.963 113.099 150.227H116.779C116.715 149.043 116.043 148.291 114.987 148.291ZM124.016 155.507C121.457 155.507 119.745 153.731 119.745 151.059C119.745 148.515 121.521 146.659 123.985 146.659C126.689 146.659 128.481 148.851 128.081 151.635H122.017C122.161 153.027 122.833 153.795 123.969 153.795C124.945 153.795 125.601 153.315 125.857 152.467H128.065C127.585 154.403 126.097 155.507 124.016 155.507ZM123.937 148.291C122.897 148.291 122.241 148.963 122.049 150.227H125.729C125.665 149.043 124.993 148.291 123.937 148.291ZM131.65 155.363H129.41V143.875H131.65V155.363ZM137.197 155.507C134.637 155.507 132.925 153.731 132.925 151.059C132.925 148.515 134.701 146.659 137.165 146.659C139.869 146.659 141.661 148.851 141.261 151.635H135.197C135.341 153.027 136.013 153.795 137.149 153.795C138.125 153.795 138.781 153.315 139.037 152.467H141.245C140.765 154.403 139.277 155.507 137.197 155.507ZM137.117 148.291C136.077 148.291 135.421 148.963 135.229 150.227H138.909C138.845 149.043 138.173 148.291 137.117 148.291Z" fill="#1A1A1A"/>
<path d="M73.3031 172.422C73.3031 174.172 71.9031 175.502 69.4671 175.502C67.0451 175.502 65.5751 174.172 65.4491 172.17H67.0171C67.0871 173.444 67.8991 174.27 69.4391 174.27C70.7131 174.27 71.6651 173.668 71.6651 172.632C71.6651 171.792 71.1191 171.372 69.9571 171.12L68.5011 170.84C67.0871 170.56 65.7991 169.846 65.7991 168.138C65.7991 166.444 67.2831 165.17 69.3691 165.17C71.4551 165.17 73.0371 166.444 73.1631 168.446H71.5951C71.5111 167.242 70.6431 166.402 69.3831 166.402C68.0811 166.402 67.3671 167.172 67.3671 168.04C67.3671 168.992 68.1931 169.328 69.1311 169.524L70.6151 169.818C72.3371 170.168 73.3031 170.924 73.3031 172.422ZM79.1879 175.362V174.214C78.7259 175.04 77.8999 175.502 76.8079 175.502C75.2679 175.502 74.2599 174.62 74.2599 173.262C74.2599 171.806 75.4219 171.05 77.6339 171.05C78.0679 171.05 78.4179 171.064 79.0199 171.134V170.588C79.0199 169.524 78.4459 168.922 77.4659 168.922C76.4299 168.922 75.7999 169.538 75.7579 170.574H74.4699C74.5399 168.908 75.7299 167.802 77.4659 167.802C79.2999 167.802 80.3639 168.838 80.3639 170.602V175.362H79.1879ZM75.6039 173.22C75.6039 173.99 76.1779 174.494 77.0879 174.494C78.2779 174.494 79.0199 173.752 79.0199 172.618V172.016C78.4739 171.946 78.0819 171.932 77.7179 171.932C76.3039 171.932 75.6039 172.352 75.6039 173.22ZM83.4025 175.362H81.9745V165.31H83.4025V175.362ZM88.1371 175.502C85.9951 175.502 84.5531 173.948 84.5531 171.61C84.5531 169.412 86.0511 167.802 88.0951 167.802C90.3071 167.802 91.7771 169.594 91.5251 172.002H85.9951C86.1071 173.514 86.8631 174.396 88.1091 174.396C89.1591 174.396 89.8871 173.822 90.1251 172.856H91.5251C91.1611 174.508 89.8871 175.502 88.1371 175.502ZM88.0671 168.866C86.9331 168.866 86.1631 169.678 86.0091 171.064H90.0271C89.9571 169.692 89.2151 168.866 88.0671 168.866ZM98.6284 173.15C98.6284 174.606 97.4944 175.502 95.5204 175.502C93.5604 175.502 92.3984 174.536 92.2584 172.94H93.6164C93.6724 173.864 94.4144 174.438 95.5484 174.438C96.5424 174.438 97.2004 174.088 97.2004 173.388C97.2004 172.772 96.8224 172.506 95.8984 172.324L94.6944 172.1C93.3224 171.834 92.5524 171.134 92.5524 170.014C92.5524 168.712 93.6864 167.802 95.4084 167.802C97.1864 167.802 98.3904 168.754 98.5164 170.28H97.1584C97.0744 169.384 96.4164 168.866 95.4224 168.866C94.5264 168.866 93.9244 169.244 93.9244 169.888C93.9244 170.49 94.3024 170.77 95.1984 170.938L96.4584 171.176C97.9284 171.442 98.6284 172.086 98.6284 173.15ZM104.19 175.362H102.65V165.31H108.754V166.654H104.19V169.93H108.082V171.274H104.19V175.362ZM114.439 172.31V167.942H115.853V175.362H114.537V174.186C114.145 174.956 113.277 175.502 112.269 175.502C110.771 175.502 109.735 174.62 109.735 172.716V167.942H111.149V172.436C111.149 173.724 111.793 174.256 112.717 174.256C113.669 174.256 114.439 173.472 114.439 172.31ZM118.951 171.176V175.362H117.537V167.942H118.853V169.174C119.357 168.348 120.197 167.802 121.219 167.802C122.745 167.802 123.753 168.782 123.753 170.56V175.362H122.339V171.036C122.339 169.762 121.779 169.048 120.729 169.048C119.763 169.048 118.951 169.86 118.951 171.176ZM126.764 171.176V175.362H125.35V167.942H126.666V169.174C127.17 168.348 128.01 167.802 129.032 167.802C130.558 167.802 131.566 168.782 131.566 170.56V175.362H130.152V171.036C130.152 169.762 129.592 169.048 128.542 169.048C127.576 169.048 126.764 169.86 126.764 171.176ZM136.216 175.502C134.074 175.502 132.632 173.948 132.632 171.61C132.632 169.412 134.13 167.802 136.174 167.802C138.386 167.802 139.856 169.594 139.604 172.002H134.074C134.186 173.514 134.942 174.396 136.188 174.396C137.238 174.396 137.966 173.822 138.204 172.856H139.604C139.24 174.508 137.966 175.502 136.216 175.502ZM136.146 168.866C135.012 168.866 134.242 169.678 134.088 171.064H138.106C138.036 169.692 137.294 168.866 136.146 168.866ZM142.256 175.362H140.828V165.31H142.256V175.362ZM150.182 171.862H148.236V175.362H146.696V165.31H150.182C152.436 165.31 153.892 166.458 153.892 168.558C153.892 170.672 152.436 171.862 150.182 171.862ZM150.168 166.612H148.236V170.56H150.168C151.526 170.56 152.352 169.818 152.352 168.572C152.352 167.326 151.526 166.612 150.168 166.612ZM159.398 175.362V174.214C158.936 175.04 158.11 175.502 157.018 175.502C155.478 175.502 154.47 174.62 154.47 173.262C154.47 171.806 155.632 171.05 157.844 171.05C158.278 171.05 158.628 171.064 159.23 171.134V170.588C159.23 169.524 158.656 168.922 157.676 168.922C156.64 168.922 156.01 169.538 155.968 170.574H154.68C154.75 168.908 155.94 167.802 157.676 167.802C159.51 167.802 160.574 168.838 160.574 170.602V175.362H159.398ZM155.814 173.22C155.814 173.99 156.388 174.494 157.298 174.494C158.488 174.494 159.23 173.752 159.23 172.618V172.016C158.684 171.946 158.292 171.932 157.928 171.932C156.514 171.932 155.814 172.352 155.814 173.22ZM165.152 178.218C163.206 178.218 161.946 177.182 161.862 175.502H163.234C163.318 176.538 163.99 177.098 165.138 177.098C166.412 177.098 167.084 176.412 167.084 175.138V173.794C166.664 174.69 165.824 175.208 164.816 175.208C162.968 175.208 161.652 173.682 161.652 171.498C161.652 169.286 162.912 167.802 164.774 167.802C165.838 167.802 166.678 168.32 167.182 169.258V167.942H168.498V175.11C168.498 177.056 167.252 178.218 165.152 178.218ZM163.08 171.498C163.08 173.038 163.836 173.976 165.068 173.976C166.272 173.976 167.084 173.01 167.084 171.54C167.084 170 166.286 169.02 165.068 169.02C163.85 169.02 163.08 169.972 163.08 171.498ZM173.228 175.502C171.086 175.502 169.644 173.948 169.644 171.61C169.644 169.412 171.142 167.802 173.186 167.802C175.398 167.802 176.868 169.594 176.616 172.002H171.086C171.198 173.514 171.954 174.396 173.2 174.396C174.25 174.396 174.978 173.822 175.216 172.856H176.616C176.252 174.508 174.978 175.502 173.228 175.502ZM173.158 168.866C172.024 168.866 171.254 169.678 171.1 171.064H175.118C175.048 169.692 174.306 168.866 173.158 168.866Z" fill="#1A1A1A"/>
<path d="M139.391 59.6368C141.032 58.999 143.286 58.6549 145.68 59.5099C147.987 60.3343 149.368 61.8987 150.095 63.0167C150.802 64.1048 151.133 65.1246 151.29 65.7042C151.377 66.0272 151.436 66.3121 151.477 66.5392C151.497 66.6544 151.514 66.76 151.527 66.8536C151.534 66.9006 151.541 66.9457 151.546 66.9874C151.549 67.0082 151.55 67.0285 151.553 67.0479C151.554 67.0577 151.556 67.0678 151.557 67.0772C151.557 67.0818 151.557 67.0864 151.558 67.0909V67.0948C154.016 66.6813 156.575 66.7945 159.04 67.5099L159.645 67.6983L159.656 67.7022C163.623 69.0288 167.871 72.33 169.315 77.5958H169.317C169.843 79.5046 170.03 81.9353 169.516 84.2472L169.517 84.2481C169.513 84.2628 169.51 84.2775 169.507 84.2921L169.506 84.2911C169.468 84.4587 169.427 84.6229 169.383 84.7843C169.552 85.2054 169.67 85.5932 169.75 85.921C170.078 87.2661 170.009 88.4055 169.952 88.9737L169.95 88.9874C169.484 93.5659 166.851 96.8831 163.941 98.8565C161.144 100.754 157.844 101.63 154.797 101.65L154.798 101.651L154.794 101.65L154.792 101.651L154.791 101.65C152.509 101.664 150.225 101.225 148.096 100.36C147.084 100.886 145.955 101.201 144.773 101.255L144.466 101.264H144.405C144.366 101.264 144.308 101.265 144.235 101.266C144.089 101.267 143.879 101.268 143.624 101.27C143.115 101.273 142.422 101.276 141.691 101.278C140.328 101.283 138.549 101.286 137.779 101.259C136.389 101.211 135.128 100.885 134.02 100.373C131.956 101.228 129.773 101.636 127.705 101.65L127.706 101.651L127.702 101.65L127.7 101.651L127.699 101.65C124.548 101.67 121.406 100.83 118.671 99.2022C115.994 100.86 112.919 101.631 110.064 101.65L110.065 101.651L110.062 101.65L110.06 101.651L110.059 101.65C106.493 101.673 102.923 100.59 99.9492 98.504C99.945 98.501 99.9407 98.4982 99.9365 98.4952C98.5929 97.5485 97.4278 96.4349 96.4443 95.2042C95.8326 96.4629 95.0425 97.458 94.2871 98.2013C93.1701 99.3003 92.0184 99.976 91.2432 100.363C90.8347 100.567 90.4707 100.72 90.1807 100.832C90.0341 100.889 89.9021 100.936 89.7881 100.975C89.7309 100.994 89.6775 101.012 89.6289 101.027C89.6047 101.035 89.5816 101.043 89.5596 101.05C89.5486 101.053 89.5378 101.056 89.5273 101.06C89.5221 101.061 89.5168 101.063 89.5117 101.065C89.5091 101.065 89.5039 101.068 89.5039 101.068C89.5005 101.068 89.4789 101.005 88.0351 96.2716L88.0342 96.2735L89.4961 101.069C88.7402 101.3 87.9543 101.417 87.1641 101.417H80.3428C76.8392 101.417 73.743 99.1369 72.7031 95.7911C72.0935 93.8294 72.275 91.7694 73.1103 90.0001V70.9327C72.2374 69.085 72.0835 66.9263 72.7803 64.9054C73.893 61.6789 76.9298 59.5138 80.3428 59.5138H92.5039L92.749 59.5177C92.8308 59.5202 92.9125 59.5234 92.9941 59.5284L92.6787 64.6622H92.6807C92.9831 59.7492 92.9971 59.5383 93 59.5294H93.0058C93.0098 59.5296 93.0144 59.5301 93.0185 59.5304C93.0267 59.5309 93.0351 59.5308 93.0439 59.5313C93.0619 59.5326 93.0817 59.5347 93.1025 59.5362C93.1441 59.5393 93.1916 59.5425 93.2441 59.547C93.3491 59.556 93.4759 59.5686 93.6221 59.5851C93.9133 59.6179 94.2894 59.668 94.7275 59.7462C95.5828 59.8989 96.7824 60.176 98.1016 60.6866C100.256 61.5207 103.733 63.4019 105.711 67.3185C108.503 66.6587 111.468 66.6857 114.308 67.5099L114.912 67.6983L114.924 67.7022C116.075 68.0873 117.246 68.6381 118.364 69.3517C121.179 67.6536 124.471 66.7684 127.787 66.8624C128.594 65.0435 130.067 63.5489 131.974 62.7394C131.974 62.7394 131.977 62.738 131.979 62.7374C131.981 62.7362 131.986 62.7348 131.991 62.7325C132.003 62.7276 132.021 62.7196 132.043 62.7101C132.088 62.691 132.154 62.6635 132.237 62.628C132.405 62.5568 132.647 62.4542 132.939 62.3302C133.525 62.0823 134.318 61.7468 135.149 61.3966C136.738 60.7271 138.672 59.916 139.391 59.6368ZM143.896 67.9679L151.406 67.1212C151.441 67.1151 151.475 67.1086 151.51 67.1026C151.295 67.1296 150.137 67.2641 143.896 67.9679Z" fill="#E6E2DE"/>
<path d="M98.8646 71.6385C97.6098 67.8274 92.5039 67.5137 92.5039 67.5137H80.343C80.343 67.5137 81.1106 68.1144 81.1106 69.2357V91.5818C81.1106 91.5818 81.0705 92.9167 80.343 93.4173H87.1643C87.1643 93.4173 90.5149 92.3961 89.2067 89.1323C87.8985 85.8618 83.1663 83.6592 82.7191 81.6769C82.2719 79.6946 84.2809 80.7959 84.2809 80.7959C84.2809 80.7959 88.9797 84.5936 94.1324 82.8449C99.2918 81.1029 100.113 75.443 98.8646 71.6385ZM90.2546 78.1595C86.023 78.1595 82.5856 76.9047 82.5856 75.3562C82.5856 73.8077 86.023 72.5596 90.2546 72.5596C94.4862 72.5596 97.9235 73.8144 97.9235 75.3562C97.9235 76.898 94.4928 78.1595 90.2546 78.1595Z" fill="#1A1A1A"/>
<path d="M117.086 87.5896C116.672 87.3627 115.631 88.6042 114.776 88.8444C110.818 89.9324 104.845 85.02 106.513 85.0266C108.209 85.0266 109.904 85.0266 111.599 85.0266C113.542 85.1001 116.458 84.8531 116.972 82.5237C117.166 81.6694 117.106 80.5681 116.872 79.7205C116.285 77.5913 114.443 75.9761 112.387 75.2886C109.056 74.1807 105.178 75.2552 102.842 77.8583C101.608 79.2399 100.8 81.0086 100.593 82.8508C100.206 86.3081 101.674 89.9324 104.544 91.9547C106.133 93.0694 108.075 93.6634 110.011 93.65C113.261 93.63 116.892 91.7211 117.253 88.177C117.279 87.91 117.253 87.6764 117.086 87.5896ZM104.07 82.457C103.063 81.1154 103.169 78.9529 104.678 78.0318C105.886 77.291 107.561 77.6514 108.789 78.1787C109.604 78.5257 110.425 79.1331 110.959 79.8406C111.252 80.2144 111.499 80.6148 111.579 81.062C111.626 81.289 111.626 81.5292 111.579 81.7829C111.312 82.9509 110.064 83.3914 109.036 83.645C107.708 83.9788 106.046 83.9854 104.871 83.2045C104.564 83.0043 104.297 82.7507 104.077 82.457H104.07Z" fill="#1A1A1A"/>
<path d="M134.726 87.5896C134.306 87.3627 133.271 88.6042 132.41 88.8444C128.452 89.9324 122.485 85.02 124.154 85.0266C125.849 85.0266 127.545 85.0266 129.24 85.0266C131.182 85.1001 134.092 84.8531 134.613 82.5237C134.8 81.6694 134.746 80.5681 134.513 79.7205C133.925 77.5913 132.077 75.9761 130.021 75.2886C126.697 74.1807 122.819 75.2552 120.483 77.8583C119.248 79.2399 118.441 81.0086 118.234 82.8508C117.847 86.3081 119.315 89.9324 122.185 91.9547C123.774 93.0694 125.709 93.6634 127.651 93.65C130.902 93.63 134.533 91.7211 134.893 88.177C134.92 87.91 134.893 87.6764 134.726 87.5896ZM121.711 82.457C120.703 81.1154 120.803 78.9529 122.319 78.0318C123.527 77.291 125.202 77.6514 126.43 78.1787C127.244 78.5257 128.059 79.1331 128.599 79.8406C128.886 80.2144 129.133 80.6148 129.22 81.062C129.26 81.289 129.267 81.5292 129.207 81.7829C128.946 82.9509 127.698 83.3914 126.67 83.645C125.342 83.9788 123.68 83.9854 122.499 83.2045C122.198 83.0043 121.931 82.7507 121.711 82.457Z" fill="#1A1A1A"/>
<path d="M161.825 87.5896C161.404 87.3627 160.363 88.6042 159.509 88.8444C155.551 89.9324 149.577 85.02 151.252 85.0266C152.941 85.0266 154.636 85.0266 156.332 85.0266C158.274 85.1001 161.191 84.8531 161.705 82.5237C161.898 81.6694 161.838 80.5681 161.604 79.7205C161.024 77.5913 159.175 75.9761 157.119 75.2886C153.789 74.1807 149.911 75.2552 147.575 77.8583C146.34 79.2399 145.532 81.0086 145.325 82.8508C144.945 86.3081 146.407 89.9324 149.277 91.9547C150.865 93.0694 152.808 93.6634 154.743 93.65C157.994 93.63 161.631 91.7211 161.992 88.177C162.018 87.91 161.985 87.6764 161.825 87.5896ZM148.81 82.457C147.795 81.1154 147.902 78.9529 149.41 78.0318C150.618 77.291 152.3 77.6514 153.522 78.1787C154.336 78.5257 155.157 79.1331 155.698 79.8406C155.985 80.2144 156.231 80.6148 156.312 81.062C156.358 81.289 156.358 81.5292 156.305 81.7829C156.045 82.9509 154.796 83.3914 153.762 83.645C152.434 83.9788 150.772 83.9854 149.597 83.2045C149.29 83.0043 149.023 82.7507 148.81 82.457Z" fill="#1A1A1A"/>
<path d="M136.649 72.3454V92.3287C136.649 92.3287 136.902 93.2231 138.057 93.2631C139.212 93.3032 144.404 93.2631 144.404 93.2631C144.404 93.2631 143.61 92.5356 143.61 91.6613V68.0004C143.61 68.0004 143.457 66.6388 142.288 67.0926C141.12 67.5465 135.1 70.1028 135.1 70.1028C135.1 70.1028 136.609 70.7102 136.609 71.3643C136.609 72.0184 136.649 72.3454 136.649 72.3454Z" fill="#1A1A1A"/>
</g>
<defs>
<clipPath id="clip0_1216_449">
<rect width="242" height="240" fill="white"/>
</clipPath>
</defs>
</svg>
