<svg width="242" height="181" viewBox="0 0 242 181" fill="none" xmlns="http://www.w3.org/2000/svg">
<rect y="21.001" width="242" height="160" rx="12" fill="#E6E2DE"/>
<path d="M105.666 92.6183H103.858V96.3623H101.426V84.8743H105.666C108.466 84.8743 110.21 86.2023 110.21 88.6983C110.21 91.1943 108.466 92.6183 105.666 92.6183ZM105.65 86.9223H103.858V90.5703H105.65C107.026 90.5703 107.794 89.8503 107.794 88.7143C107.794 87.5783 107.026 86.9223 105.65 86.9223ZM115.067 96.5063C112.507 96.5063 110.795 94.7303 110.795 92.0583C110.795 89.5143 112.571 87.6583 115.035 87.6583C117.739 87.6583 119.531 89.8503 119.131 92.6343H113.067C113.211 94.0263 113.883 94.7943 115.019 94.7943C115.995 94.7943 116.651 94.3143 116.907 93.4663H119.115C118.635 95.4023 117.147 96.5063 115.067 96.5063ZM114.987 89.2903C113.947 89.2903 113.291 89.9623 113.099 91.2263H116.779C116.715 90.0423 116.043 89.2903 114.987 89.2903ZM124.016 96.5063C121.457 96.5063 119.745 94.7303 119.745 92.0583C119.745 89.5143 121.521 87.6583 123.985 87.6583C126.689 87.6583 128.481 89.8503 128.081 92.6343H122.017C122.161 94.0263 122.833 94.7943 123.969 94.7943C124.945 94.7943 125.601 94.3143 125.857 93.4663H128.065C127.585 95.4023 126.097 96.5063 124.016 96.5063ZM123.937 89.2903C122.897 89.2903 122.241 89.9623 122.049 91.2263H125.729C125.665 90.0423 124.993 89.2903 123.937 89.2903ZM131.65 96.3623H129.41V84.8743H131.65V96.3623ZM137.197 96.5063C134.637 96.5063 132.925 94.7303 132.925 92.0583C132.925 89.5143 134.701 87.6583 137.165 87.6583C139.869 87.6583 141.661 89.8503 141.261 92.6343H135.197C135.341 94.0263 136.013 94.7943 137.149 94.7943C138.125 94.7943 138.781 94.3143 139.037 93.4663H141.245C140.765 95.4023 139.277 96.5063 137.197 96.5063ZM137.117 89.2903C136.077 89.2903 135.421 89.9623 135.229 91.2263H138.909C138.845 90.0423 138.173 89.2903 137.117 89.2903Z" fill="#1A1A1A"/>
<path d="M73.3031 113.422C73.3031 115.172 71.9031 116.502 69.4671 116.502C67.0451 116.502 65.5751 115.172 65.4491 113.17H67.0171C67.0871 114.444 67.8991 115.27 69.4391 115.27C70.7131 115.27 71.6651 114.668 71.6651 113.632C71.6651 112.792 71.1191 112.372 69.9571 112.12L68.5011 111.84C67.0871 111.56 65.7991 110.846 65.7991 109.138C65.7991 107.444 67.2831 106.17 69.3691 106.17C71.4551 106.17 73.0371 107.444 73.1631 109.446H71.5951C71.5111 108.242 70.6431 107.402 69.3831 107.402C68.0811 107.402 67.3671 108.172 67.3671 109.04C67.3671 109.992 68.1931 110.328 69.1311 110.524L70.6151 110.818C72.3371 111.168 73.3031 111.924 73.3031 113.422ZM79.1879 116.362V115.214C78.7259 116.04 77.8999 116.502 76.8079 116.502C75.2679 116.502 74.2599 115.62 74.2599 114.262C74.2599 112.806 75.4219 112.05 77.6339 112.05C78.0679 112.05 78.4179 112.064 79.0199 112.134V111.588C79.0199 110.524 78.4459 109.922 77.4659 109.922C76.4299 109.922 75.7999 110.538 75.7579 111.574H74.4699C74.5399 109.908 75.7299 108.802 77.4659 108.802C79.2999 108.802 80.3639 109.838 80.3639 111.602V116.362H79.1879ZM75.6039 114.22C75.6039 114.99 76.1779 115.494 77.0879 115.494C78.2779 115.494 79.0199 114.752 79.0199 113.618V113.016C78.4739 112.946 78.0819 112.932 77.7179 112.932C76.3039 112.932 75.6039 113.352 75.6039 114.22ZM83.4025 116.362H81.9745V106.31H83.4025V116.362ZM88.1371 116.502C85.9951 116.502 84.5531 114.948 84.5531 112.61C84.5531 110.412 86.0511 108.802 88.0951 108.802C90.3071 108.802 91.7771 110.594 91.5251 113.002H85.9951C86.1071 114.514 86.8631 115.396 88.1091 115.396C89.1591 115.396 89.8871 114.822 90.1251 113.856H91.5251C91.1611 115.508 89.8871 116.502 88.1371 116.502ZM88.0671 109.866C86.9331 109.866 86.1631 110.678 86.0091 112.064H90.0271C89.9571 110.692 89.2151 109.866 88.0671 109.866ZM98.6284 114.15C98.6284 115.606 97.4944 116.502 95.5204 116.502C93.5604 116.502 92.3984 115.536 92.2584 113.94H93.6164C93.6724 114.864 94.4144 115.438 95.5484 115.438C96.5424 115.438 97.2004 115.088 97.2004 114.388C97.2004 113.772 96.8224 113.506 95.8984 113.324L94.6944 113.1C93.3224 112.834 92.5524 112.134 92.5524 111.014C92.5524 109.712 93.6864 108.802 95.4084 108.802C97.1864 108.802 98.3904 109.754 98.5164 111.28H97.1584C97.0744 110.384 96.4164 109.866 95.4224 109.866C94.5264 109.866 93.9244 110.244 93.9244 110.888C93.9244 111.49 94.3024 111.77 95.1984 111.938L96.4584 112.176C97.9284 112.442 98.6284 113.086 98.6284 114.15ZM104.19 116.362H102.65V106.31H108.754V107.654H104.19V110.93H108.082V112.274H104.19V116.362ZM114.439 113.31V108.942H115.853V116.362H114.537V115.186C114.145 115.956 113.277 116.502 112.269 116.502C110.771 116.502 109.735 115.62 109.735 113.716V108.942H111.149V113.436C111.149 114.724 111.793 115.256 112.717 115.256C113.669 115.256 114.439 114.472 114.439 113.31ZM118.951 112.176V116.362H117.537V108.942H118.853V110.174C119.357 109.348 120.197 108.802 121.219 108.802C122.745 108.802 123.753 109.782 123.753 111.56V116.362H122.339V112.036C122.339 110.762 121.779 110.048 120.729 110.048C119.763 110.048 118.951 110.86 118.951 112.176ZM126.764 112.176V116.362H125.35V108.942H126.666V110.174C127.17 109.348 128.01 108.802 129.032 108.802C130.558 108.802 131.566 109.782 131.566 111.56V116.362H130.152V112.036C130.152 110.762 129.592 110.048 128.542 110.048C127.576 110.048 126.764 110.86 126.764 112.176ZM136.216 116.502C134.074 116.502 132.632 114.948 132.632 112.61C132.632 110.412 134.13 108.802 136.174 108.802C138.386 108.802 139.856 110.594 139.604 113.002H134.074C134.186 114.514 134.942 115.396 136.188 115.396C137.238 115.396 137.966 114.822 138.204 113.856H139.604C139.24 115.508 137.966 116.502 136.216 116.502ZM136.146 109.866C135.012 109.866 134.242 110.678 134.088 112.064H138.106C138.036 110.692 137.294 109.866 136.146 109.866ZM142.256 116.362H140.828V106.31H142.256V116.362ZM150.182 112.862H148.236V116.362H146.696V106.31H150.182C152.436 106.31 153.892 107.458 153.892 109.558C153.892 111.672 152.436 112.862 150.182 112.862ZM150.168 107.612H148.236V111.56H150.168C151.526 111.56 152.352 110.818 152.352 109.572C152.352 108.326 151.526 107.612 150.168 107.612ZM159.398 116.362V115.214C158.936 116.04 158.11 116.502 157.018 116.502C155.478 116.502 154.47 115.62 154.47 114.262C154.47 112.806 155.632 112.05 157.844 112.05C158.278 112.05 158.628 112.064 159.23 112.134V111.588C159.23 110.524 158.656 109.922 157.676 109.922C156.64 109.922 156.01 110.538 155.968 111.574H154.68C154.75 109.908 155.94 108.802 157.676 108.802C159.51 108.802 160.574 109.838 160.574 111.602V116.362H159.398ZM155.814 114.22C155.814 114.99 156.388 115.494 157.298 115.494C158.488 115.494 159.23 114.752 159.23 113.618V113.016C158.684 112.946 158.292 112.932 157.928 112.932C156.514 112.932 155.814 113.352 155.814 114.22ZM165.152 119.218C163.206 119.218 161.946 118.182 161.862 116.502H163.234C163.318 117.538 163.99 118.098 165.138 118.098C166.412 118.098 167.084 117.412 167.084 116.138V114.794C166.664 115.69 165.824 116.208 164.816 116.208C162.968 116.208 161.652 114.682 161.652 112.498C161.652 110.286 162.912 108.802 164.774 108.802C165.838 108.802 166.678 109.32 167.182 110.258V108.942H168.498V116.11C168.498 118.056 167.252 119.218 165.152 119.218ZM163.08 112.498C163.08 114.038 163.836 114.976 165.068 114.976C166.272 114.976 167.084 114.01 167.084 112.54C167.084 111 166.286 110.02 165.068 110.02C163.85 110.02 163.08 110.972 163.08 112.498ZM173.228 116.502C171.086 116.502 169.644 114.948 169.644 112.61C169.644 110.412 171.142 108.802 173.186 108.802C175.398 108.802 176.868 110.594 176.616 113.002H171.086C171.198 114.514 171.954 115.396 173.2 115.396C174.25 115.396 174.978 114.822 175.216 113.856H176.616C176.252 115.508 174.978 116.502 173.228 116.502ZM173.158 109.866C172.024 109.866 171.254 110.678 171.1 112.064H175.118C175.048 110.692 174.306 109.866 173.158 109.866Z" fill="#1A1A1A"/>
<path d="M141.215 4.23389C142.118 3.95573 143.208 3.87503 144.333 4.27686C145.577 4.72103 146.332 5.56681 146.741 6.19678C147.141 6.81166 147.334 7.39947 147.429 7.74951C147.481 7.94124 147.516 8.10995 147.539 8.2417C147.551 8.30815 147.56 8.36784 147.568 8.41943C147.571 8.44529 147.575 8.46962 147.577 8.4917C147.579 8.50279 147.58 8.5138 147.581 8.52393C147.582 8.52894 147.583 8.5338 147.583 8.53857C147.584 8.54088 147.584 8.54316 147.584 8.54541C147.584 8.54658 147.584 8.54873 147.584 8.54932C147.577 8.55178 147.412 8.57191 143.611 9.00049L147.585 8.55225C147.602 8.70093 147.611 8.85087 147.611 9.00049V13.7241C150.664 11.9145 154.436 11.3402 157.923 12.3511L158.382 12.4937L158.388 12.4956C161.399 13.5025 164.446 15.9604 165.459 19.6577H165.461C165.841 21.0356 165.964 22.8012 165.61 24.3853L165.611 24.3862C165.469 25.0267 165.254 25.5964 164.986 26.103C165.502 26.7298 165.751 27.4027 165.865 27.8687C166.041 28.5924 166.007 29.2249 165.972 29.5757L165.971 29.5825C165.648 32.7578 163.832 35.0984 161.697 36.5464C159.617 37.9564 157.106 38.6342 154.77 38.6489L154.771 38.6499L154.769 38.6489L154.768 38.6499L154.767 38.6489C152.267 38.6654 149.763 37.9732 147.615 36.645C146.879 37.637 145.711 38.2533 144.435 38.2632H144.42C144.41 38.2633 144.395 38.264 144.375 38.2642C144.337 38.2644 144.28 38.2646 144.207 38.2651C144.062 38.2662 143.854 38.2675 143.6 38.269C143.093 38.2722 142.404 38.2763 141.678 38.2788C140.275 38.2837 138.592 38.2846 137.918 38.2612C136.366 38.2074 135.127 37.59 134.255 36.77C132.248 38.0275 129.886 38.635 127.678 38.6489L127.679 38.6499L127.677 38.6489L127.676 38.6499L127.675 38.6489C124.917 38.6671 122.168 37.8287 119.888 36.229L119.881 36.2251C119.424 35.9028 118.994 35.5526 118.589 35.1812C118.084 35.6985 117.536 36.1547 116.962 36.5444C114.884 37.9555 112.374 38.6342 110.037 38.6489L110.038 38.6499L110.036 38.6489L110.035 38.6499L110.034 38.6489C107.284 38.6671 104.528 37.8294 102.247 36.229L102.24 36.2251C99.1475 34.0456 97.2524 30.6684 96.7014 27.1157C96.2939 27.3068 95.8662 27.4795 95.4172 27.6313L95.4182 27.6323C94.5039 27.9426 93.6067 28.1313 92.7395 28.2271C92.8025 28.3641 92.8627 28.503 92.9192 28.644L93.0237 28.9175C93.5225 30.2887 93.6578 31.7089 93.3333 33.0923C92.9927 34.5435 92.2257 35.617 91.4817 36.3491C90.7547 37.0645 89.9898 37.5176 89.4553 37.7847C89.1778 37.9233 88.933 38.0261 88.7434 38.0991C88.648 38.1359 88.5644 38.1663 88.4954 38.1899C88.4607 38.2018 88.4291 38.2123 88.4016 38.2212C88.3881 38.2256 88.3753 38.2292 88.3635 38.2329C88.3576 38.2348 88.3514 38.2371 88.3459 38.2388L88.3342 38.2417C88.3323 38.2423 88.3305 38.2427 87.1643 34.4165L88.3303 38.2427C87.9523 38.3579 87.5595 38.4165 87.1643 38.4165H80.343C78.5912 38.4165 77.0436 37.2769 76.5237 35.604C76.141 34.3726 76.3817 33.0643 77.1106 32.063V10.8647C76.3554 9.82656 76.1286 8.46577 76.5618 7.20947C77.1181 5.59613 78.6364 4.51318 80.343 4.51318H92.5042L92.7493 4.521L92.5042 8.51318C92.7494 4.52086 92.7507 4.52091 92.7522 4.521H92.7551C92.7572 4.52113 92.7597 4.52183 92.762 4.52197C92.7662 4.52225 92.7708 4.52262 92.7756 4.52295C92.7859 4.52364 92.798 4.52396 92.8108 4.5249C92.8364 4.52678 92.867 4.52967 92.9026 4.53271C92.9739 4.53882 93.0654 4.54683 93.1741 4.55908C93.3907 4.58351 93.6811 4.62274 94.0247 4.68408C94.7014 4.80492 95.6397 5.02254 96.6575 5.4165C98.5455 6.1473 101.319 7.74425 102.55 11.061L102.664 11.3872L102.665 11.3911C102.889 12.0723 103.064 12.7959 103.186 13.5464C106.183 11.8773 109.82 11.374 113.191 12.3511L113.65 12.4937L113.656 12.4956C115.302 13.0462 116.951 14.0283 118.276 15.4038C121.566 12.3273 126.425 11.0726 130.827 12.3511L131.285 12.4946L131.289 12.4956C131.313 12.5036 131.338 12.5118 131.362 12.52C131.197 12.0868 131.105 11.6218 131.101 11.1411C131.086 9.52256 132.047 8.05401 133.537 7.42139H133.538C133.539 7.42107 133.54 7.42002 133.541 7.41943C133.544 7.41818 133.549 7.41603 133.555 7.41357C133.566 7.40868 133.584 7.40143 133.606 7.39209C133.65 7.37317 133.716 7.34545 133.799 7.31006C133.967 7.23903 134.207 7.13687 134.499 7.01318C135.083 6.76587 135.875 6.43161 136.703 6.08252C138.323 5.39986 140.189 4.61772 140.84 4.36475L141.215 4.23389ZM77.7219 11.5337C77.7446 11.5538 77.7685 11.5748 77.7942 11.5962L77.8557 11.646C77.8593 11.6488 77.8628 11.6519 77.8665 11.6548C77.8682 11.6562 77.8705 11.6573 77.8723 11.6587C77.8732 11.6594 77.8748 11.6613 77.8752 11.6616L77.8762 11.6606C77.8141 11.6119 77.7552 11.5601 77.6965 11.5083C77.7052 11.5162 77.7129 11.5257 77.7219 11.5337Z" fill="#1A1A1A" stroke="#E6E2DE" stroke-width="8" stroke-linejoin="round"/>
</svg>
