<svg width="242" height="181" viewBox="0 0 242 181" fill="none" xmlns="http://www.w3.org/2000/svg">
<rect y="21.001" width="242" height="160" rx="12" fill="#E6E2DE"/>
<path d="M105.666 92.6183H103.858V96.3623H101.426V84.8743H105.666C108.466 84.8743 110.21 86.2023 110.21 88.6983C110.21 91.1943 108.466 92.6183 105.666 92.6183ZM105.65 86.9223H103.858V90.5703H105.65C107.026 90.5703 107.794 89.8503 107.794 88.7143C107.794 87.5783 107.026 86.9223 105.65 86.9223ZM115.067 96.5063C112.507 96.5063 110.795 94.7303 110.795 92.0583C110.795 89.5143 112.571 87.6583 115.035 87.6583C117.739 87.6583 119.531 89.8503 119.131 92.6343H113.067C113.211 94.0263 113.883 94.7943 115.019 94.7943C115.995 94.7943 116.651 94.3143 116.907 93.4663H119.115C118.635 95.4023 117.147 96.5063 115.067 96.5063ZM114.987 89.2903C113.947 89.2903 113.291 89.9623 113.099 91.2263H116.779C116.715 90.0423 116.043 89.2903 114.987 89.2903ZM124.016 96.5063C121.457 96.5063 119.745 94.7303 119.745 92.0583C119.745 89.5143 121.521 87.6583 123.985 87.6583C126.689 87.6583 128.481 89.8503 128.081 92.6343H122.017C122.161 94.0263 122.833 94.7943 123.969 94.7943C124.945 94.7943 125.601 94.3143 125.857 93.4663H128.065C127.585 95.4023 126.097 96.5063 124.016 96.5063ZM123.937 89.2903C122.897 89.2903 122.241 89.9623 122.049 91.2263H125.729C125.665 90.0423 124.993 89.2903 123.937 89.2903ZM131.65 96.3623H129.41V84.8743H131.65V96.3623ZM137.197 96.5063C134.637 96.5063 132.925 94.7303 132.925 92.0583C132.925 89.5143 134.701 87.6583 137.165 87.6583C139.869 87.6583 141.661 89.8503 141.261 92.6343H135.197C135.341 94.0263 136.013 94.7943 137.149 94.7943C138.125 94.7943 138.781 94.3143 139.037 93.4663H141.245C140.765 95.4023 139.277 96.5063 137.197 96.5063ZM137.117 89.2903C136.077 89.2903 135.421 89.9623 135.229 91.2263H138.909C138.845 90.0423 138.173 89.2903 137.117 89.2903Z" fill="#1A1A1A"/>
<path d="M73.3031 113.422C73.3031 115.172 71.9031 116.502 69.4671 116.502C67.0451 116.502 65.5751 115.172 65.4491 113.17H67.0171C67.0871 114.444 67.8991 115.27 69.4391 115.27C70.7131 115.27 71.6651 114.668 71.6651 113.632C71.6651 112.792 71.1191 112.372 69.9571 112.12L68.5011 111.84C67.0871 111.56 65.7991 110.846 65.7991 109.138C65.7991 107.444 67.2831 106.17 69.3691 106.17C71.4551 106.17 73.0371 107.444 73.1631 109.446H71.5951C71.5111 108.242 70.6431 107.402 69.3831 107.402C68.0811 107.402 67.3671 108.172 67.3671 109.04C67.3671 109.992 68.1931 110.328 69.1311 110.524L70.6151 110.818C72.3371 111.168 73.3031 111.924 73.3031 113.422ZM79.1879 116.362V115.214C78.7259 116.04 77.8999 116.502 76.8079 116.502C75.2679 116.502 74.2599 115.62 74.2599 114.262C74.2599 112.806 75.4219 112.05 77.6339 112.05C78.0679 112.05 78.4179 112.064 79.0199 112.134V111.588C79.0199 110.524 78.4459 109.922 77.4659 109.922C76.4299 109.922 75.7999 110.538 75.7579 111.574H74.4699C74.5399 109.908 75.7299 108.802 77.4659 108.802C79.2999 108.802 80.3639 109.838 80.3639 111.602V116.362H79.1879ZM75.6039 114.22C75.6039 114.99 76.1779 115.494 77.0879 115.494C78.2779 115.494 79.0199 114.752 79.0199 113.618V113.016C78.4739 112.946 78.0819 112.932 77.7179 112.932C76.3039 112.932 75.6039 113.352 75.6039 114.22ZM83.4025 116.362H81.9745V106.31H83.4025V116.362ZM88.1371 116.502C85.9951 116.502 84.5531 114.948 84.5531 112.61C84.5531 110.412 86.0511 108.802 88.0951 108.802C90.3071 108.802 91.7771 110.594 91.5251 113.002H85.9951C86.1071 114.514 86.8631 115.396 88.1091 115.396C89.1591 115.396 89.8871 114.822 90.1251 113.856H91.5251C91.1611 115.508 89.8871 116.502 88.1371 116.502ZM88.0671 109.866C86.9331 109.866 86.1631 110.678 86.0091 112.064H90.0271C89.9571 110.692 89.2151 109.866 88.0671 109.866ZM98.6284 114.15C98.6284 115.606 97.4944 116.502 95.5204 116.502C93.5604 116.502 92.3984 115.536 92.2584 113.94H93.6164C93.6724 114.864 94.4144 115.438 95.5484 115.438C96.5424 115.438 97.2004 115.088 97.2004 114.388C97.2004 113.772 96.8224 113.506 95.8984 113.324L94.6944 113.1C93.3224 112.834 92.5524 112.134 92.5524 111.014C92.5524 109.712 93.6864 108.802 95.4084 108.802C97.1864 108.802 98.3904 109.754 98.5164 111.28H97.1584C97.0744 110.384 96.4164 109.866 95.4224 109.866C94.5264 109.866 93.9244 110.244 93.9244 110.888C93.9244 111.49 94.3024 111.77 95.1984 111.938L96.4584 112.176C97.9284 112.442 98.6284 113.086 98.6284 114.15ZM104.19 116.362H102.65V106.31H108.754V107.654H104.19V110.93H108.082V112.274H104.19V116.362ZM114.439 113.31V108.942H115.853V116.362H114.537V115.186C114.145 115.956 113.277 116.502 112.269 116.502C110.771 116.502 109.735 115.62 109.735 113.716V108.942H111.149V113.436C111.149 114.724 111.793 115.256 112.717 115.256C113.669 115.256 114.439 114.472 114.439 113.31ZM118.951 112.176V116.362H117.537V108.942H118.853V110.174C119.357 109.348 120.197 108.802 121.219 108.802C122.745 108.802 123.753 109.782 123.753 111.56V116.362H122.339V112.036C122.339 110.762 121.779 110.048 120.729 110.048C119.763 110.048 118.951 110.86 118.951 112.176ZM126.764 112.176V116.362H125.35V108.942H126.666V110.174C127.17 109.348 128.01 108.802 129.032 108.802C130.558 108.802 131.566 109.782 131.566 111.56V116.362H130.152V112.036C130.152 110.762 129.592 110.048 128.542 110.048C127.576 110.048 126.764 110.86 126.764 112.176ZM136.216 116.502C134.074 116.502 132.632 114.948 132.632 112.61C132.632 110.412 134.13 108.802 136.174 108.802C138.386 108.802 139.856 110.594 139.604 113.002H134.074C134.186 114.514 134.942 115.396 136.188 115.396C137.238 115.396 137.966 114.822 138.204 113.856H139.604C139.24 115.508 137.966 116.502 136.216 116.502ZM136.146 109.866C135.012 109.866 134.242 110.678 134.088 112.064H138.106C138.036 110.692 137.294 109.866 136.146 109.866ZM142.256 116.362H140.828V106.31H142.256V116.362ZM150.182 112.862H148.236V116.362H146.696V106.31H150.182C152.436 106.31 153.892 107.458 153.892 109.558C153.892 111.672 152.436 112.862 150.182 112.862ZM150.168 107.612H148.236V111.56H150.168C151.526 111.56 152.352 110.818 152.352 109.572C152.352 108.326 151.526 107.612 150.168 107.612ZM159.398 116.362V115.214C158.936 116.04 158.11 116.502 157.018 116.502C155.478 116.502 154.47 115.62 154.47 114.262C154.47 112.806 155.632 112.05 157.844 112.05C158.278 112.05 158.628 112.064 159.23 112.134V111.588C159.23 110.524 158.656 109.922 157.676 109.922C156.64 109.922 156.01 110.538 155.968 111.574H154.68C154.75 109.908 155.94 108.802 157.676 108.802C159.51 108.802 160.574 109.838 160.574 111.602V116.362H159.398ZM155.814 114.22C155.814 114.99 156.388 115.494 157.298 115.494C158.488 115.494 159.23 114.752 159.23 113.618V113.016C158.684 112.946 158.292 112.932 157.928 112.932C156.514 112.932 155.814 113.352 155.814 114.22ZM165.152 119.218C163.206 119.218 161.946 118.182 161.862 116.502H163.234C163.318 117.538 163.99 118.098 165.138 118.098C166.412 118.098 167.084 117.412 167.084 116.138V114.794C166.664 115.69 165.824 116.208 164.816 116.208C162.968 116.208 161.652 114.682 161.652 112.498C161.652 110.286 162.912 108.802 164.774 108.802C165.838 108.802 166.678 109.32 167.182 110.258V108.942H168.498V116.11C168.498 118.056 167.252 119.218 165.152 119.218ZM163.08 112.498C163.08 114.038 163.836 114.976 165.068 114.976C166.272 114.976 167.084 114.01 167.084 112.54C167.084 111 166.286 110.02 165.068 110.02C163.85 110.02 163.08 110.972 163.08 112.498ZM173.228 116.502C171.086 116.502 169.644 114.948 169.644 112.61C169.644 110.412 171.142 108.802 173.186 108.802C175.398 108.802 176.868 110.594 176.616 113.002H171.086C171.198 114.514 171.954 115.396 173.2 115.396C174.25 115.396 174.978 114.822 175.216 113.856H176.616C176.252 115.508 174.978 116.502 173.228 116.502ZM173.158 109.866C172.024 109.866 171.254 110.678 171.1 112.064H175.118C175.048 110.692 174.306 109.866 173.158 109.866Z" fill="#1A1A1A"/>
<path d="M139.391 0.636818C141.032 -0.00102305 143.286 -0.345149 145.68 0.509865C147.987 1.33435 149.368 2.89867 150.095 4.0167C150.802 5.10481 151.133 6.12465 151.29 6.7042C151.377 7.02724 151.436 7.31206 151.477 7.53916C151.497 7.65441 151.514 7.75998 151.527 7.85361C151.534 7.90062 151.541 7.94565 151.546 7.9874C151.549 8.00818 151.55 8.02846 151.553 8.04795C151.554 8.05773 151.556 8.06779 151.557 8.07725C151.557 8.08182 151.557 8.08642 151.558 8.09092C151.558 8.09206 151.557 8.09354 151.558 8.09483C154.016 7.68131 156.575 7.79449 159.04 8.50986L159.645 8.69834L159.656 8.70225C163.623 10.0288 167.871 13.33 169.315 18.5958H169.317C169.843 20.5046 170.03 22.9353 169.516 25.2472L169.517 25.2481C169.513 25.2628 169.51 25.2775 169.507 25.2921L169.506 25.2911C169.468 25.4587 169.427 25.6229 169.383 25.7843C169.552 26.2054 169.67 26.5932 169.75 26.921C170.078 28.2661 170.009 29.4055 169.952 29.9737L169.95 29.9874C169.484 34.5659 166.851 37.8831 163.941 39.8565C161.144 41.7536 157.844 42.6299 154.797 42.6495L154.798 42.6505C154.797 42.6505 154.795 42.6495 154.794 42.6495L154.792 42.6505L154.791 42.6495C152.509 42.6643 150.225 42.2245 148.096 41.3595C147.084 41.886 145.955 42.2007 144.773 42.255L144.466 42.2638H144.405C144.366 42.2641 144.308 42.2652 144.235 42.2657C144.089 42.2668 143.879 42.2681 143.624 42.2696C143.115 42.2728 142.422 42.2759 141.691 42.2784C140.328 42.2832 138.549 42.2856 137.779 42.2589C136.389 42.2106 135.128 41.8851 134.02 41.3731C131.956 42.2275 129.773 42.6362 127.705 42.6495L127.706 42.6505C127.705 42.6505 127.703 42.6495 127.702 42.6495L127.7 42.6505L127.699 42.6495C124.548 42.6699 121.406 41.8296 118.671 40.2022C115.994 41.8604 112.919 42.6311 110.064 42.6495L110.065 42.6505C110.064 42.6505 110.063 42.6495 110.062 42.6495L110.06 42.6505L110.059 42.6495C106.493 42.6726 102.923 41.5904 99.9492 39.504C99.945 39.501 99.9407 39.4982 99.9365 39.4952C98.5929 38.5485 97.4278 37.4349 96.4443 36.2042C95.8326 37.4629 95.0425 38.458 94.2871 39.2013C93.1701 40.3003 92.0184 40.976 91.2432 41.3634C90.8347 41.5674 90.4707 41.7204 90.1807 41.8321C90.0341 41.8886 89.9021 41.9357 89.7881 41.9747C89.7309 41.9942 89.6775 42.0118 89.6289 42.0274C89.6047 42.0353 89.5816 42.043 89.5596 42.0499C89.5486 42.0533 89.5378 42.0564 89.5273 42.0597C89.5221 42.0613 89.5168 42.063 89.5117 42.0646C89.5091 42.0653 89.5052 42.0671 89.5039 42.0675C89.5005 42.0676 89.4789 42.0054 88.0351 37.2716L88.0342 37.2735L89.4961 42.0694C88.7402 42.2998 87.9543 42.4171 87.1641 42.4171H80.3428C76.8392 42.417 73.743 40.1369 72.7031 36.7911C72.0935 34.8294 72.275 32.7694 73.1103 31.0001V11.9327C72.2374 10.085 72.0835 7.92625 72.7803 5.90537C73.893 2.67892 76.9298 0.513816 80.3428 0.513771H92.5039L92.749 0.517677C92.8308 0.520185 92.9125 0.523406 92.9941 0.52842L92.6787 5.66221H92.6807C92.9831 0.749221 92.9971 0.538314 93 0.529396C93.001 0.529457 93.0039 0.529272 93.0058 0.529396C93.0098 0.529646 93.0144 0.530106 93.0185 0.530373C93.0267 0.530895 93.0351 0.530759 93.0439 0.531349C93.0619 0.53256 93.0817 0.534708 93.1025 0.536232C93.1441 0.539277 93.1916 0.542481 93.2441 0.546974C93.3491 0.555963 93.4759 0.568577 93.6221 0.58506C93.9133 0.6179 94.2894 0.667978 94.7275 0.746193C95.5828 0.898899 96.7824 1.17601 98.1016 1.68662C100.256 2.52068 103.733 4.40188 105.711 8.31846C108.503 7.65873 111.468 7.68569 114.308 8.50986L114.912 8.69834L114.924 8.70225C116.075 9.08735 117.246 9.63809 118.364 10.3517C121.179 8.65363 124.471 7.76844 127.787 7.8624C128.594 6.04352 130.067 4.54891 131.974 3.73936C131.974 3.73902 131.977 3.73804 131.979 3.7374C131.981 3.73615 131.986 3.73481 131.991 3.73252C132.003 3.72757 132.021 3.71959 132.043 3.71006C132.088 3.69103 132.154 3.66354 132.237 3.62803C132.405 3.55676 132.647 3.45419 132.939 3.33018C133.525 3.0823 134.318 2.74683 135.149 2.39658C136.738 1.72715 138.672 0.916008 139.391 0.636818ZM143.896 8.96787L151.406 8.12119C151.441 8.11507 151.475 8.10855 151.51 8.10264C151.295 8.12956 150.137 8.26407 143.896 8.96787Z" fill="#E6E2DE"/>
<path d="M98.8645 12.6386C97.6097 8.8275 92.5038 8.5138 92.5038 8.5138H80.3429C80.3429 8.5138 81.1105 9.1145 81.1105 10.2358V32.5819C81.1105 32.5819 81.0704 33.9168 80.3429 34.4174H87.1642C87.1642 34.4174 90.5148 33.3962 89.2066 30.1324C87.8984 26.8619 83.1662 24.6593 82.719 22.677C82.2718 20.6947 84.2808 21.796 84.2808 21.796C84.2808 21.796 88.9796 25.5937 94.1323 23.845C99.2917 22.103 100.113 16.4431 98.8645 12.6386ZM90.2545 19.1596C86.0229 19.1596 82.5855 17.9048 82.5855 16.3563C82.5855 14.8078 86.0229 13.5597 90.2545 13.5597C94.4861 13.5597 97.9234 14.8145 97.9234 16.3563C97.9234 17.8981 94.4927 19.1596 90.2545 19.1596Z" fill="#1A1A1A"/>
<path d="M117.086 28.5905C116.672 28.3636 115.631 29.6051 114.776 29.8453C110.818 30.9333 104.845 26.0209 106.513 26.0275C108.209 26.0275 109.904 26.0275 111.599 26.0275C113.542 26.101 116.458 25.854 116.972 23.5246C117.166 22.6703 117.106 21.569 116.872 20.7214C116.285 18.5922 114.443 16.977 112.387 16.2895C109.056 15.1816 105.178 16.2561 102.842 18.8592C101.608 20.2408 100.8 22.0095 100.593 23.8517C100.206 27.309 101.674 30.9333 104.544 32.9556C106.133 34.0703 108.075 34.6643 110.011 34.6509C113.261 34.6309 116.892 32.722 117.253 29.1779C117.279 28.9109 117.253 28.6773 117.086 28.5905ZM104.07 23.4579C103.063 22.1163 103.169 19.9538 104.678 19.0327C105.886 18.2919 107.561 18.6523 108.789 19.1796C109.604 19.5266 110.425 20.134 110.959 20.8415C111.252 21.2153 111.499 21.6157 111.579 22.0629C111.626 22.2899 111.626 22.5301 111.579 22.7838C111.312 23.9518 110.064 24.3923 109.036 24.6459C107.708 24.9797 106.046 24.9863 104.871 24.2054C104.564 24.0052 104.297 23.7516 104.077 23.4579H104.07Z" fill="#1A1A1A"/>
<path d="M134.726 28.5905C134.306 28.3636 133.271 29.6051 132.41 29.8453C128.452 30.9333 122.485 26.0209 124.154 26.0275C125.849 26.0275 127.545 26.0275 129.24 26.0275C131.182 26.101 134.092 25.854 134.613 23.5246C134.8 22.6703 134.746 21.569 134.513 20.7214C133.925 18.5922 132.077 16.977 130.021 16.2895C126.697 15.1816 122.819 16.2561 120.483 18.8592C119.248 20.2408 118.441 22.0095 118.234 23.8517C117.847 27.309 119.315 30.9333 122.185 32.9556C123.774 34.0703 125.709 34.6643 127.651 34.6509C130.902 34.6309 134.533 32.722 134.893 29.1779C134.92 28.9109 134.893 28.6773 134.726 28.5905ZM121.711 23.4579C120.703 22.1163 120.803 19.9538 122.319 19.0327C123.527 18.2919 125.202 18.6523 126.43 19.1796C127.244 19.5266 128.059 20.134 128.599 20.8415C128.886 21.2153 129.133 21.6157 129.22 22.0629C129.26 22.2899 129.267 22.5301 129.207 22.7838C128.946 23.9518 127.698 24.3923 126.67 24.6459C125.342 24.9797 123.68 24.9863 122.499 24.2054C122.198 24.0052 121.931 23.7516 121.711 23.4579Z" fill="#1A1A1A"/>
<path d="M161.825 28.5905C161.404 28.3636 160.363 29.6051 159.509 29.8453C155.551 30.9333 149.577 26.0209 151.252 26.0275C152.941 26.0275 154.636 26.0275 156.332 26.0275C158.274 26.101 161.191 25.854 161.705 23.5246C161.898 22.6703 161.838 21.569 161.604 20.7214C161.024 18.5922 159.175 16.977 157.119 16.2895C153.789 15.1816 149.911 16.2561 147.575 18.8592C146.34 20.2408 145.532 22.0095 145.325 23.8517C144.945 27.309 146.407 30.9333 149.277 32.9556C150.865 34.0703 152.808 34.6643 154.743 34.6509C157.994 34.6309 161.631 32.722 161.992 29.1779C162.018 28.9109 161.985 28.6773 161.825 28.5905ZM148.81 23.4579C147.795 22.1163 147.902 19.9538 149.41 19.0327C150.618 18.2919 152.3 18.6523 153.522 19.1796C154.336 19.5266 155.157 20.134 155.698 20.8415C155.985 21.2153 156.231 21.6157 156.312 22.0629C156.358 22.2899 156.358 22.5301 156.305 22.7838C156.045 23.9518 154.796 24.3923 153.762 24.6459C152.434 24.9797 150.772 24.9863 149.597 24.2054C149.29 24.0052 149.023 23.7516 148.81 23.4579Z" fill="#1A1A1A"/>
<path d="M136.649 13.3464V33.3297C136.649 33.3297 136.902 34.2241 138.057 34.2641C139.212 34.3042 144.404 34.2641 144.404 34.2641C144.404 34.2641 143.61 33.5366 143.61 32.6623V9.00133C143.61 9.00133 143.457 7.63974 142.288 8.0936C141.12 8.54746 135.1 11.1038 135.1 11.1038C135.1 11.1038 136.609 11.7112 136.609 12.3653C136.609 13.0194 136.649 13.3464 136.649 13.3464Z" fill="#1A1A1A"/>
</svg>
