<svg width="242" height="181" viewBox="0 0 242 181" fill="none" xmlns="http://www.w3.org/2000/svg">
<rect y="21" width="242" height="160" rx="12" fill="#E6E2DE"/>
<path d="M90.9059 91.8156H89.0979V95.5596H86.6659V84.0716H90.9059C93.7059 84.0716 95.4499 85.3996 95.4499 87.8956C95.4499 90.3916 93.7059 91.8156 90.9059 91.8156ZM90.8899 86.1196H89.0979V89.7676H90.8899C92.2659 89.7676 93.0339 89.0476 93.0339 87.9116C93.0339 86.7756 92.2659 86.1196 90.8899 86.1196ZM101.951 91.9596V87.0156H104.159V95.5596H102.127V94.4396C101.663 95.1916 100.719 95.7196 99.6314 95.7196C97.9194 95.7196 96.6714 94.6796 96.6714 92.4556V87.0156H98.8954V92.0236C98.8954 93.2236 99.4874 93.7516 100.383 93.7516C101.183 93.7516 101.951 93.1116 101.951 91.9596ZM108.222 91.4156V95.5596H105.998V87.0156H108.046V88.6636C108.67 87.5756 109.998 86.9196 111.374 86.9196V89.2236C109.486 89.0796 108.222 89.5276 108.222 91.4156ZM116.018 95.7036C113.458 95.7036 111.746 93.9276 111.746 91.2556C111.746 88.7116 113.522 86.8556 115.986 86.8556C118.69 86.8556 120.482 89.0476 120.082 91.8316H114.018C114.162 93.2236 114.834 93.9916 115.97 93.9916C116.946 93.9916 117.602 93.5116 117.858 92.6636H120.066C119.586 94.5996 118.098 95.7036 116.018 95.7036ZM115.938 88.4876C114.898 88.4876 114.242 89.1596 114.05 90.4236H117.73C117.666 89.2396 116.994 88.4876 115.938 88.4876ZM129.94 91.2876C129.94 93.8156 128.452 95.7196 126.148 95.7196C125.14 95.7196 124.276 95.2876 123.636 94.4556V98.6476H121.412V87.0156H123.46V88.2636C124.116 87.3516 125.06 86.8556 126.148 86.8556C128.452 86.8556 129.94 88.7756 129.94 91.2876ZM127.652 91.2876C127.652 89.6876 126.74 88.8236 125.652 88.8236C124.564 88.8236 123.652 89.6716 123.652 91.2876C123.652 92.9036 124.564 93.7356 125.652 93.7356C126.74 93.7356 127.652 92.9196 127.652 91.2876ZM136.405 91.9596V87.0156H138.613V95.5596H136.581V94.4396C136.117 95.1916 135.173 95.7196 134.085 95.7196C132.373 95.7196 131.125 94.6796 131.125 92.4556V87.0156H133.349V92.0236C133.349 93.2236 133.941 93.7516 134.837 93.7516C135.637 93.7516 136.405 93.1116 136.405 91.9596ZM147.667 92.8236C147.667 94.6156 146.307 95.7196 143.875 95.7196C141.443 95.7196 140.083 94.5516 139.907 92.6476H142.035C142.051 93.5276 142.803 94.0876 143.907 94.0876C144.771 94.0876 145.427 93.8156 145.427 93.2076C145.427 92.6636 145.075 92.4396 144.259 92.2796L142.723 91.9916C141.187 91.7196 140.259 90.8716 140.259 89.5436C140.259 87.9596 141.619 86.8556 143.747 86.8556C145.891 86.8556 147.363 87.9916 147.523 89.8316H145.395C145.315 88.9996 144.691 88.4876 143.747 88.4876C142.931 88.4876 142.387 88.7916 142.387 89.3356C142.387 89.8476 142.739 90.0556 143.507 90.1996L145.155 90.5036C146.819 90.8236 147.667 91.5916 147.667 92.8236ZM151.25 90.9036V95.5596H149.026V84.0716H151.25V88.1356C151.842 87.3516 152.578 86.8556 153.698 86.8556C155.41 86.8556 156.594 87.9756 156.594 90.0396V95.5596H154.386V90.7916C154.386 89.5276 153.89 88.8236 152.882 88.8236C152.002 88.8236 151.25 89.5276 151.25 90.9036Z" fill="#1A1A1A"/>
<path d="M79.8399 115.56L77.7119 107.678L75.5699 115.56H73.9879L71.3699 105.508H72.8819L74.8139 113.25L76.9279 105.508H78.5239L80.6099 113.264L82.5419 105.508H84.0539L81.4359 115.56H79.8399ZM87.461 115.7C85.319 115.7 83.877 114.146 83.877 111.808C83.877 109.61 85.375 108 87.419 108C89.631 108 91.101 109.792 90.849 112.2H85.319C85.431 113.712 86.187 114.594 87.433 114.594C88.483 114.594 89.211 114.02 89.449 113.054H90.849C90.485 114.706 89.211 115.7 87.461 115.7ZM87.391 109.064C86.257 109.064 85.487 109.876 85.333 111.262H89.351C89.281 109.89 88.539 109.064 87.391 109.064ZM99.1564 111.85C99.1564 114.076 97.8684 115.7 95.8664 115.7C94.8164 115.7 93.9204 115.168 93.3884 114.23V115.56H92.0724V105.508H93.4864V109.414C94.0044 108.504 94.8584 108 95.8664 108C97.8544 108 99.1564 109.596 99.1564 111.85ZM97.6864 111.85C97.6864 110.17 96.8044 109.246 95.5864 109.246C94.4104 109.246 93.4864 110.156 93.4864 111.822C93.4864 113.46 94.3824 114.44 95.5864 114.44C96.8044 114.44 97.6864 113.502 97.6864 111.85ZM106.19 113.348C106.19 114.804 105.056 115.7 103.082 115.7C101.122 115.7 99.96 114.734 99.82 113.138H101.178C101.234 114.062 101.976 114.636 103.11 114.636C104.104 114.636 104.762 114.286 104.762 113.586C104.762 112.97 104.384 112.704 103.46 112.522L102.256 112.298C100.884 112.032 100.114 111.332 100.114 110.212C100.114 108.91 101.248 108 102.97 108C104.748 108 105.952 108.952 106.078 110.478H104.72C104.636 109.582 103.978 109.064 102.984 109.064C102.088 109.064 101.486 109.442 101.486 110.086C101.486 110.688 101.864 110.968 102.76 111.136L104.02 111.374C105.49 111.64 106.19 112.284 106.19 113.348ZM109.176 106.418C109.176 106.95 108.756 107.356 108.154 107.356C107.552 107.356 107.118 106.95 107.118 106.418C107.118 105.872 107.552 105.48 108.154 105.48C108.756 105.48 109.176 105.872 109.176 106.418ZM108.868 115.56H107.454V108.14H108.868V115.56ZM114.737 114.188V115.434C114.303 115.63 113.925 115.7 113.477 115.7C112.105 115.7 111.153 114.958 111.153 113.32V109.344H109.515V108.14H111.153V105.942H112.567V108.14H114.807V109.344H112.567V112.998C112.567 114.02 113.057 114.384 113.813 114.384C114.149 114.384 114.443 114.328 114.737 114.188ZM118.723 115.7C116.581 115.7 115.139 114.146 115.139 111.808C115.139 109.61 116.637 108 118.681 108C120.893 108 122.363 109.792 122.111 112.2H116.581C116.693 113.712 117.449 114.594 118.695 114.594C119.745 114.594 120.473 114.02 120.711 113.054H122.111C121.747 114.706 120.473 115.7 118.723 115.7ZM118.653 109.064C117.519 109.064 116.749 109.876 116.595 111.262H120.613C120.543 109.89 119.801 109.064 118.653 109.064ZM129.27 115.56H126.092V105.508H129.27C132.476 105.508 134.324 107.552 134.324 110.492C134.324 113.39 132.406 115.56 129.27 115.56ZM127.632 106.838V114.23H129.2C131.51 114.23 132.756 112.802 132.756 110.492C132.756 108.224 131.524 106.838 129.2 106.838H127.632ZM138.596 115.7C136.454 115.7 135.012 114.146 135.012 111.808C135.012 109.61 136.51 108 138.554 108C140.766 108 142.236 109.792 141.984 112.2H136.454C136.566 113.712 137.322 114.594 138.568 114.594C139.618 114.594 140.346 114.02 140.584 113.054H141.984C141.62 114.706 140.346 115.7 138.596 115.7ZM138.526 109.064C137.392 109.064 136.622 109.876 136.468 111.262H140.486C140.416 109.89 139.674 109.064 138.526 109.064ZM149.087 113.348C149.087 114.804 147.953 115.7 145.979 115.7C144.019 115.7 142.857 114.734 142.717 113.138H144.075C144.131 114.062 144.873 114.636 146.007 114.636C147.001 114.636 147.659 114.286 147.659 113.586C147.659 112.97 147.281 112.704 146.357 112.522L145.153 112.298C143.781 112.032 143.011 111.332 143.011 110.212C143.011 108.91 144.145 108 145.867 108C147.645 108 148.849 108.952 148.975 110.478H147.617C147.533 109.582 146.875 109.064 145.881 109.064C144.985 109.064 144.383 109.442 144.383 110.086C144.383 110.688 144.761 110.968 145.657 111.136L146.917 111.374C148.387 111.64 149.087 112.284 149.087 113.348ZM152.073 106.418C152.073 106.95 151.653 107.356 151.051 107.356C150.449 107.356 150.015 106.95 150.015 106.418C150.015 105.872 150.449 105.48 151.051 105.48C151.653 105.48 152.073 105.872 152.073 106.418ZM151.765 115.56H150.351V108.14H151.765V115.56ZM156.416 118.416C154.47 118.416 153.21 117.38 153.126 115.7H154.498C154.582 116.736 155.254 117.296 156.402 117.296C157.676 117.296 158.348 116.61 158.348 115.336V113.992C157.928 114.888 157.088 115.406 156.08 115.406C154.232 115.406 152.916 113.88 152.916 111.696C152.916 109.484 154.176 108 156.038 108C157.102 108 157.942 108.518 158.446 109.456V108.14H159.762V115.308C159.762 117.254 158.516 118.416 156.416 118.416ZM154.344 111.696C154.344 113.236 155.1 114.174 156.332 114.174C157.536 114.174 158.348 113.208 158.348 111.738C158.348 110.198 157.55 109.218 156.332 109.218C155.114 109.218 154.344 110.17 154.344 111.696ZM162.854 111.374V115.56H161.44V108.14H162.756V109.372C163.26 108.546 164.1 108 165.122 108C166.648 108 167.656 108.98 167.656 110.758V115.56H166.242V111.234C166.242 109.96 165.682 109.246 164.632 109.246C163.666 109.246 162.854 110.058 162.854 111.374ZM171.171 114.958C171.171 116.288 170.121 117.324 168.581 117.352V116.554C169.491 116.526 170.107 116.036 170.191 115.35C170.065 115.392 169.981 115.406 169.883 115.406C169.351 115.406 168.959 114.972 168.959 114.454C168.959 113.852 169.407 113.46 169.981 113.46C170.751 113.46 171.171 114.02 171.171 114.958ZM66.6706 129.676C66.6706 131.51 65.3266 132.56 63.2406 132.56H59.5586V122.508H63.0446C65.0746 122.508 66.2926 123.446 66.2926 125.14C66.2926 126.092 65.7186 126.904 64.7526 127.324C65.9986 127.674 66.6706 128.528 66.6706 129.676ZM62.9466 123.74H60.9726V126.764H62.9466C64.1646 126.764 64.8226 126.19 64.8226 125.252C64.8226 124.314 64.1646 123.74 62.9466 123.74ZM63.1426 127.996H60.9726V131.328H63.1426C64.4586 131.328 65.2006 130.698 65.2006 129.634C65.2006 128.612 64.4586 127.996 63.1426 127.996ZM69.4674 128.766V132.56H68.0534V125.14H69.3694V126.708C69.8874 125.686 71.0074 125.042 72.2254 125.042V126.512C70.6294 126.428 69.4674 127.128 69.4674 128.766ZM77.5584 132.56V131.412C77.0964 132.238 76.2704 132.7 75.1784 132.7C73.6384 132.7 72.6304 131.818 72.6304 130.46C72.6304 129.004 73.7924 128.248 76.0044 128.248C76.4384 128.248 76.7884 128.262 77.3904 128.332V127.786C77.3904 126.722 76.8164 126.12 75.8364 126.12C74.8004 126.12 74.1704 126.736 74.1284 127.772H72.8404C72.9104 126.106 74.1004 125 75.8364 125C77.6704 125 78.7344 126.036 78.7344 127.8V132.56H77.5584ZM73.9744 130.418C73.9744 131.188 74.5484 131.692 75.4584 131.692C76.6484 131.692 77.3904 130.95 77.3904 129.816V129.214C76.8444 129.144 76.4524 129.13 76.0884 129.13C74.6744 129.13 73.9744 129.55 73.9744 130.418ZM81.7589 128.374V132.56H80.3449V125.14H81.6609V126.372C82.1649 125.546 83.0049 125 84.0269 125C85.5529 125 86.5609 125.98 86.5609 127.758V132.56H85.1469V128.234C85.1469 126.96 84.5869 126.246 83.5369 126.246C82.5709 126.246 81.7589 127.058 81.7589 128.374ZM87.6267 128.85C87.6267 126.596 88.9147 125 90.9167 125C91.9107 125 92.7787 125.504 93.2967 126.414V122.508H94.7107V132.56H93.3947V131.23C92.8627 132.168 91.9667 132.7 90.9167 132.7C88.9147 132.7 87.6267 131.076 87.6267 128.85ZM89.0967 128.85C89.0967 130.502 89.9647 131.44 91.1967 131.44C92.4007 131.44 93.2967 130.46 93.2967 128.822C93.2967 127.156 92.3727 126.246 91.1967 126.246C89.9647 126.246 89.0967 127.17 89.0967 128.85ZM98.1182 123.418C98.1182 123.95 97.6982 124.356 97.0962 124.356C96.4942 124.356 96.0602 123.95 96.0602 123.418C96.0602 122.872 96.4942 122.48 97.0962 122.48C97.6982 122.48 98.1182 122.872 98.1182 123.418ZM97.8102 132.56H96.3962V125.14H97.8102V132.56ZM100.907 128.374V132.56H99.4932V125.14H100.809V126.372C101.313 125.546 102.153 125 103.175 125C104.701 125 105.709 125.98 105.709 127.758V132.56H104.295V128.234C104.295 126.96 103.735 126.246 102.685 126.246C101.719 126.246 100.907 127.058 100.907 128.374ZM110.275 135.416C108.329 135.416 107.069 134.38 106.985 132.7H108.357C108.441 133.736 109.113 134.296 110.261 134.296C111.535 134.296 112.207 133.61 112.207 132.336V130.992C111.787 131.888 110.947 132.406 109.939 132.406C108.091 132.406 106.775 130.88 106.775 128.696C106.775 126.484 108.035 125 109.897 125C110.961 125 111.801 125.518 112.305 126.456V125.14H113.621V132.308C113.621 134.254 112.375 135.416 110.275 135.416ZM108.203 128.696C108.203 130.236 108.959 131.174 110.191 131.174C111.395 131.174 112.207 130.208 112.207 128.738C112.207 127.198 111.409 126.218 110.191 126.218C108.973 126.218 108.203 127.17 108.203 128.696ZM122.438 132.77C119.638 132.77 117.468 130.488 117.468 127.52C117.468 124.566 119.638 122.298 122.438 122.298C124.958 122.298 126.974 123.978 127.352 126.456H125.714C125.434 124.832 124.118 123.684 122.452 123.684C120.464 123.684 119.064 125.294 119.064 127.52C119.064 129.774 120.464 131.384 122.452 131.384C124.118 131.384 125.434 130.222 125.714 128.598H127.352C126.974 131.09 124.958 132.77 122.438 132.77ZM131.669 132.7C129.569 132.7 128.029 131.048 128.029 128.85C128.029 126.652 129.569 125 131.669 125C133.769 125 135.309 126.652 135.309 128.85C135.309 131.048 133.769 132.7 131.669 132.7ZM131.669 131.454C132.887 131.454 133.853 130.474 133.853 128.85C133.853 127.226 132.887 126.26 131.669 126.26C130.451 126.26 129.499 127.226 129.499 128.85C129.499 130.474 130.451 131.454 131.669 131.454ZM137.898 132.56H136.47V122.508H137.898V132.56ZM141.009 132.56H139.581V122.508H141.009V132.56ZM147.185 132.56V131.412C146.723 132.238 145.897 132.7 144.805 132.7C143.265 132.7 142.257 131.818 142.257 130.46C142.257 129.004 143.419 128.248 145.631 128.248C146.065 128.248 146.415 128.262 147.017 128.332V127.786C147.017 126.722 146.443 126.12 145.463 126.12C144.427 126.12 143.797 126.736 143.755 127.772H142.467C142.537 126.106 143.727 125 145.463 125C147.297 125 148.361 126.036 148.361 127.8V132.56H147.185ZM143.601 130.418C143.601 131.188 144.175 131.692 145.085 131.692C146.275 131.692 147.017 130.95 147.017 129.816V129.214C146.471 129.144 146.079 129.13 145.715 129.13C144.301 129.13 143.601 129.55 143.601 130.418ZM154.09 131.188V132.434C153.656 132.63 153.278 132.7 152.83 132.7C151.458 132.7 150.506 131.958 150.506 130.32V126.344H148.868V125.14H150.506V122.942H151.92V125.14H154.16V126.344H151.92V129.998C151.92 131.02 152.41 131.384 153.166 131.384C153.502 131.384 153.796 131.328 154.09 131.188ZM158.076 132.7C155.934 132.7 154.492 131.146 154.492 128.808C154.492 126.61 155.99 125 158.034 125C160.246 125 161.716 126.792 161.464 129.2H155.934C156.046 130.712 156.802 131.594 158.048 131.594C159.098 131.594 159.826 131.02 160.064 130.054H161.464C161.1 131.706 159.826 132.7 158.076 132.7ZM158.006 126.064C156.872 126.064 156.102 126.876 155.948 128.262H159.966C159.896 126.89 159.154 126.064 158.006 126.064ZM164.101 128.766V132.56H162.687V125.14H164.003V126.708C164.521 125.686 165.641 125.042 166.859 125.042V126.512C165.263 126.428 164.101 127.128 164.101 128.766ZM172.192 132.56V131.412C171.73 132.238 170.904 132.7 169.812 132.7C168.272 132.7 167.264 131.818 167.264 130.46C167.264 129.004 168.426 128.248 170.638 128.248C171.072 128.248 171.422 128.262 172.024 128.332V127.786C172.024 126.722 171.45 126.12 170.47 126.12C169.434 126.12 168.804 126.736 168.762 127.772H167.474C167.544 126.106 168.734 125 170.47 125C172.304 125 173.368 126.036 173.368 127.8V132.56H172.192ZM168.608 130.418C168.608 131.188 169.182 131.692 170.092 131.692C171.282 131.692 172.024 130.95 172.024 129.816V129.214C171.478 129.144 171.086 129.13 170.722 129.13C169.308 129.13 168.608 129.55 168.608 130.418ZM176.407 132.56H174.979V122.508H176.407V132.56ZM183.97 130.348C183.97 131.804 182.836 132.7 180.862 132.7C178.902 132.7 177.74 131.734 177.6 130.138H178.958C179.014 131.062 179.756 131.636 180.89 131.636C181.884 131.636 182.542 131.286 182.542 130.586C182.542 129.97 182.164 129.704 181.24 129.522L180.036 129.298C178.664 129.032 177.894 128.332 177.894 127.212C177.894 125.91 179.028 125 180.75 125C182.528 125 183.732 125.952 183.858 127.478H182.5C182.416 126.582 181.758 126.064 180.764 126.064C179.868 126.064 179.266 126.442 179.266 127.086C179.266 127.688 179.644 127.968 180.54 128.136L181.8 128.374C183.27 128.64 183.97 129.284 183.97 130.348Z" fill="#1A1A1A"/>
<mask id="path-4-outside-1_1173_18" maskUnits="userSpaceOnUse" x="60" y="0" width="123" height="41" fill="black">
<rect fill="white" x="60" width="123" height="41"/>
<path d="M154.685 32.9549C151.38 32.6439 149.646 30.1645 149.649 26.9894C149.65 25.9365 149.651 24.8845 149.653 23.8334C149.653 23.8213 149.659 23.8152 149.671 23.8152H153.467C153.471 23.8152 153.475 23.8171 153.479 23.8203C153.482 23.8235 153.484 23.8279 153.484 23.8325C153.484 24.8709 153.483 25.9112 153.483 26.9535C153.482 27.7094 153.591 28.6197 154.353 28.9596C154.996 29.2462 156.192 29.255 156.768 28.8118C157.222 28.4627 157.346 27.8611 157.372 27.3106C157.385 27.0418 157.388 26.5835 157.382 25.9358C157.378 25.4596 157.37 25.1642 157.358 25.0494C157.307 24.5383 157.153 24.0687 156.894 23.6404C156.618 23.1823 156.316 22.8274 155.989 22.5757C155.842 22.4622 155.535 22.2744 155.071 22.0123C154.591 21.7423 154.114 21.4696 153.638 21.1943C152.632 20.6136 151.818 19.9552 151.085 18.9641C150.297 17.8991 149.835 16.722 149.696 15.4328C149.633 14.8499 149.638 14.141 149.662 13.5811C149.77 11.0915 151.083 8.87908 153.604 8.23271C154.705 7.95056 155.821 7.92498 156.953 8.15596C159.805 8.73845 161.215 11.1993 161.215 13.9799C161.215 14.6918 161.213 15.4038 161.21 16.116C161.21 16.1293 161.203 16.136 161.19 16.136L157.407 16.1355C157.403 16.1355 157.4 16.1349 157.397 16.1336C157.394 16.1323 157.391 16.1304 157.389 16.128C157.386 16.1256 157.384 16.1228 157.383 16.1197C157.382 16.1165 157.381 16.1132 157.381 16.1098C157.382 15.3518 157.381 14.5953 157.377 13.8402C157.373 13.0048 157.139 12.1407 156.222 11.933C155.733 11.8224 155.242 11.8137 154.75 11.9069C153.364 12.169 153.452 13.7133 153.495 14.7785C153.518 15.3876 153.689 15.939 154.011 16.4652C154.235 16.8307 154.498 17.1356 154.8 17.3799C154.988 17.5316 155.286 17.7202 155.693 17.9456C156.338 18.3034 156.847 18.5921 157.22 18.8115C157.671 19.0773 158.166 19.4038 158.561 19.7418C160.24 21.1801 161.194 23.1365 161.207 25.3702C161.214 26.6824 161.277 27.7369 160.991 28.8793C160.229 31.9221 157.658 33.2348 154.685 32.9549Z"/>
<path d="M126.394 22.9734V32.6893C126.394 32.7053 126.386 32.7133 126.37 32.7133H122.586C122.571 32.7133 122.564 32.706 122.564 32.6915V8.31138C122.564 8.29304 122.573 8.28388 122.592 8.28388C124.496 8.28033 126.397 8.28033 128.293 8.28388C129.702 8.28654 130.979 8.61394 132.084 9.49055C133.539 10.6467 134.12 12.3821 134.124 14.2024C134.127 15.1077 134.129 16.0133 134.13 16.9191C134.131 17.5586 134.063 18.1796 133.927 18.7824C133.315 21.4779 131.071 22.9512 128.394 22.9414C127.737 22.9391 127.08 22.9397 126.424 22.9432C126.404 22.9432 126.394 22.9533 126.394 22.9734ZM130.095 13.0569C129.818 12.3759 129.259 12.1479 128.56 12.1355C127.843 12.1231 127.127 12.1186 126.411 12.1222C126.407 12.1222 126.402 12.124 126.399 12.1272C126.396 12.1305 126.394 12.1349 126.394 12.1395V19.0712C126.394 19.0901 126.403 19.0996 126.422 19.0996C127.028 19.1058 127.634 19.1098 128.24 19.1116C129.106 19.1142 129.942 18.9155 130.176 17.9595C130.238 17.7079 130.284 17.4262 130.288 17.1521C130.3 16.087 130.299 15.0225 130.286 13.9584C130.282 13.6599 130.218 13.3595 130.095 13.0569Z"/>
<path d="M140.83 32.9311C139.258 32.7377 137.894 31.9844 137.018 30.6455C136.261 29.4881 136.041 28.2069 136.04 26.8454C136.038 20.665 136.038 14.4848 136.04 8.30474C136.04 8.28966 136.047 8.28212 136.062 8.28212H139.845C139.861 8.28212 139.868 8.28981 139.868 8.30519C139.869 14.5187 139.867 20.732 139.863 26.9452C139.862 27.7815 139.966 28.7912 140.938 29.0445C141.58 29.2113 142.57 29.2361 143.132 28.828C143.789 28.3511 143.768 27.3423 143.768 26.5921C143.769 20.4942 143.769 14.3965 143.768 8.29898C143.768 8.28774 143.774 8.28212 143.785 8.28212H147.58C147.585 8.28212 147.589 8.28413 147.593 8.2877C147.596 8.29128 147.598 8.29613 147.598 8.30119C147.599 14.5165 147.6 20.7348 147.6 26.9563C147.601 28.5889 147.167 30.0821 146.096 31.3128C145.927 31.5071 145.719 31.6946 145.472 31.8753C144.119 32.8668 142.476 33.1339 140.83 32.9311Z"/>
<path d="M171.171 18.2461V8.29942C171.171 8.29483 171.172 8.29043 171.176 8.28719C171.179 8.28394 171.183 8.28212 171.188 8.28212H174.983C174.987 8.28212 174.992 8.28394 174.995 8.28719C174.998 8.29043 175 8.29483 175 8.29942V32.696C175 32.7006 174.998 32.705 174.995 32.7082C174.992 32.7115 174.987 32.7133 174.983 32.7133H171.188C171.183 32.7133 171.179 32.7115 171.176 32.7082C171.172 32.705 171.171 32.7006 171.171 32.696V22.1194C171.171 22.1148 171.169 22.1104 171.166 22.1072C171.162 22.1039 171.158 22.1021 171.153 22.1021L167.286 22.103C167.281 22.103 167.277 22.1048 167.274 22.1081C167.27 22.1113 167.269 22.1157 167.269 22.1203V32.6955C167.269 32.7001 167.267 32.7045 167.264 32.7078C167.26 32.711 167.256 32.7129 167.251 32.7129L163.455 32.7133C163.451 32.7133 163.446 32.7115 163.443 32.7082C163.44 32.705 163.438 32.7006 163.438 32.696V8.29942C163.438 8.29483 163.44 8.29043 163.443 8.28719C163.446 8.28394 163.451 8.28212 163.455 8.28212L167.251 8.28256C167.256 8.28256 167.26 8.28438 167.264 8.28763C167.267 8.29087 167.269 8.29527 167.269 8.29986V18.2461C167.269 18.2506 167.27 18.255 167.274 18.2583C167.277 18.2615 167.281 18.2634 167.286 18.2634H171.153C171.158 18.2634 171.162 18.2615 171.166 18.2583C171.169 18.255 171.171 18.2506 171.171 18.2461Z"/>
<path d="M71.902 22.9744V32.7063C71.902 32.7163 71.897 32.7214 71.8869 32.7214H68.0257C68.0086 32.7214 68 32.7128 68 32.6956V8.31238C68 8.29848 68.0069 8.29153 68.0208 8.29153C69.9981 8.28857 71.9726 8.28709 73.9446 8.28709C74.6507 8.28739 75.3295 8.38779 75.981 8.58832C77.6191 9.09317 78.9336 10.3739 79.4554 12.0052C79.6434 12.5925 79.7511 13.2101 79.7785 13.8578C79.7823 13.9477 79.785 14.2433 79.7865 14.7446C79.7888 15.5431 79.7871 16.3416 79.7812 17.1402C79.7533 20.7309 77.3716 23.0041 73.7901 22.9473C73.4062 22.9414 72.7839 22.9433 71.9232 22.9531C71.9091 22.9531 71.902 22.9602 71.902 22.9744ZM75.0436 12.3454C74.5625 12.1298 74.184 12.132 73.5573 12.128C73.0129 12.1248 72.4679 12.1252 71.9223 12.1294C71.9088 12.1294 71.902 12.1362 71.902 12.1498V19.0811C71.902 19.0973 71.9101 19.1056 71.9263 19.1059C72.5979 19.1118 73.2695 19.1114 73.941 19.1046C74.265 19.1015 74.5536 19.0713 74.8316 18.9799C75.7384 18.6831 75.8774 17.7666 75.8796 16.9184C75.8823 16.0199 75.8818 15.1215 75.8783 14.2233C75.8756 13.569 75.7256 12.6515 75.0436 12.3454Z"/>
<path d="M86.6697 32.9424C84.504 32.6975 82.7734 31.4118 82.083 29.2993C81.8307 28.5269 81.7426 27.751 81.7422 26.9112C81.7392 20.7128 81.7389 14.5142 81.7413 8.31554C81.7416 8.29868 81.7502 8.29026 81.767 8.29026H85.6265C85.6403 8.29026 85.6473 8.29721 85.6473 8.31111C85.6473 14.6337 85.6476 20.9558 85.6481 27.2772C85.6481 27.3792 85.6628 27.5154 85.692 27.6858C85.8252 28.4617 86.081 28.9399 86.9339 29.0943C87.4571 29.1892 87.9573 29.1795 88.4348 29.065C89.4842 28.8135 89.6338 27.8215 89.6329 26.9116C89.6267 20.7121 89.6231 14.5126 89.6223 8.31332C89.6223 8.31029 89.6229 8.3073 89.624 8.3045C89.6252 8.3017 89.6269 8.29915 89.629 8.29701C89.6311 8.29487 89.6337 8.29317 89.6365 8.29201C89.6393 8.29085 89.6423 8.29026 89.6453 8.29026H93.5065C93.5219 8.29026 93.5295 8.29795 93.5295 8.31332C93.5304 14.6351 93.5303 20.9565 93.5291 27.2776C93.5291 27.8495 93.4074 28.5571 93.2303 29.1254C92.6116 31.1105 91.2892 32.3433 89.2633 32.8239C88.4246 33.0227 87.5274 33.0395 86.6697 32.9424Z"/>
<path d="M100.102 22.9326V32.7009C100.102 32.7151 100.095 32.7222 100.081 32.7222H96.2177C96.2032 32.7222 96.196 32.7149 96.196 32.7004V8.31408C96.196 8.30136 96.2023 8.295 96.215 8.295C99.3427 8.28376 101.406 8.2845 102.406 8.29722C103.404 8.30964 104.342 8.55748 105.218 9.04074C106.883 9.95906 107.775 11.5974 107.948 13.4487C107.967 13.6453 107.978 13.9408 107.982 14.335C107.994 15.6857 107.993 16.6728 107.978 17.2963C107.934 19.1506 107.196 20.8391 105.662 21.9295C105.65 21.9384 105.645 21.9504 105.648 21.9655L107.877 32.7102L107.877 32.7146L107.875 32.7186L107.872 32.7213L107.867 32.7222H103.922C103.908 32.7222 103.9 32.7158 103.898 32.7031L101.881 22.9295C101.88 22.9247 101.878 22.9204 101.874 22.9174C101.87 22.9143 101.865 22.9126 101.86 22.9126L100.122 22.9122C100.109 22.9122 100.102 22.919 100.102 22.9326ZM103.826 12.9527C103.429 12.1129 102.528 12.1324 101.745 12.1289C101.206 12.1265 100.665 12.1266 100.124 12.1293C100.109 12.1293 100.102 12.1365 100.102 12.151V19.0482C100.102 19.0621 100.109 19.069 100.123 19.069C101.047 19.0782 101.785 19.0774 102.337 19.0668C102.732 19.0592 103.227 18.9341 103.529 18.6689C103.909 18.337 104.049 17.7275 104.071 17.2275C104.092 16.7581 104.092 15.6869 104.071 14.0138C104.066 13.643 103.985 13.2892 103.826 12.9527Z"/>
<path d="M114.2 22.1266V28.8645C114.2 28.8691 114.202 28.8735 114.205 28.8767C114.208 28.88 114.213 28.8818 114.217 28.8818H120.576C120.581 28.8818 120.585 28.8836 120.588 28.8869C120.592 28.8901 120.593 28.8945 120.593 28.8991V32.7041C120.593 32.7087 120.592 32.7131 120.588 32.7164C120.585 32.7196 120.581 32.7214 120.576 32.7214H110.311C110.307 32.7214 110.302 32.7196 110.299 32.7164C110.296 32.7131 110.294 32.7087 110.294 32.7041V8.30756C110.294 8.30297 110.296 8.29857 110.299 8.29532C110.302 8.29208 110.307 8.29026 110.311 8.29026H120.576C120.581 8.29026 120.585 8.29208 120.588 8.29532C120.592 8.29857 120.593 8.30297 120.593 8.30756V12.1104C120.593 12.1149 120.592 12.1193 120.588 12.1226C120.585 12.1258 120.581 12.1277 120.576 12.1277H114.217C114.213 12.1277 114.208 12.1295 114.205 12.1327C114.202 12.136 114.2 12.1404 114.2 12.145V18.2546C114.2 18.2592 114.202 18.2636 114.205 18.2669C114.208 18.2701 114.213 18.2719 114.217 18.2719H118.586C118.59 18.2719 118.595 18.2738 118.598 18.277C118.601 18.2803 118.603 18.2847 118.603 18.2892V22.092C118.603 22.0966 118.601 22.101 118.598 22.1043C118.595 22.1075 118.59 22.1093 118.586 22.1093H114.217C114.213 22.1093 114.208 22.1112 114.205 22.1144C114.202 22.1177 114.2 22.1221 114.2 22.1266Z"/>
</mask>
<path d="M154.685 32.9549C151.38 32.6439 149.646 30.1645 149.649 26.9894C149.65 25.9365 149.651 24.8845 149.653 23.8334C149.653 23.8213 149.659 23.8152 149.671 23.8152H153.467C153.471 23.8152 153.475 23.8171 153.479 23.8203C153.482 23.8235 153.484 23.8279 153.484 23.8325C153.484 24.8709 153.483 25.9112 153.483 26.9535C153.482 27.7094 153.591 28.6197 154.353 28.9596C154.996 29.2462 156.192 29.255 156.768 28.8118C157.222 28.4627 157.346 27.8611 157.372 27.3106C157.385 27.0418 157.388 26.5835 157.382 25.9358C157.378 25.4596 157.37 25.1642 157.358 25.0494C157.307 24.5383 157.153 24.0687 156.894 23.6404C156.618 23.1823 156.316 22.8274 155.989 22.5757C155.842 22.4622 155.535 22.2744 155.071 22.0123C154.591 21.7423 154.114 21.4696 153.638 21.1943C152.632 20.6136 151.818 19.9552 151.085 18.9641C150.297 17.8991 149.835 16.722 149.696 15.4328C149.633 14.8499 149.638 14.141 149.662 13.5811C149.77 11.0915 151.083 8.87908 153.604 8.23271C154.705 7.95056 155.821 7.92498 156.953 8.15596C159.805 8.73845 161.215 11.1993 161.215 13.9799C161.215 14.6918 161.213 15.4038 161.21 16.116C161.21 16.1293 161.203 16.136 161.19 16.136L157.407 16.1355C157.403 16.1355 157.4 16.1349 157.397 16.1336C157.394 16.1323 157.391 16.1304 157.389 16.128C157.386 16.1256 157.384 16.1228 157.383 16.1197C157.382 16.1165 157.381 16.1132 157.381 16.1098C157.382 15.3518 157.381 14.5953 157.377 13.8402C157.373 13.0048 157.139 12.1407 156.222 11.933C155.733 11.8224 155.242 11.8137 154.75 11.9069C153.364 12.169 153.452 13.7133 153.495 14.7785C153.518 15.3876 153.689 15.939 154.011 16.4652C154.235 16.8307 154.498 17.1356 154.8 17.3799C154.988 17.5316 155.286 17.7202 155.693 17.9456C156.338 18.3034 156.847 18.5921 157.22 18.8115C157.671 19.0773 158.166 19.4038 158.561 19.7418C160.24 21.1801 161.194 23.1365 161.207 25.3702C161.214 26.6824 161.277 27.7369 160.991 28.8793C160.229 31.9221 157.658 33.2348 154.685 32.9549Z" fill="#1A1A1A"/>
<path d="M126.394 22.9734V32.6893C126.394 32.7053 126.386 32.7133 126.37 32.7133H122.586C122.571 32.7133 122.564 32.706 122.564 32.6915V8.31138C122.564 8.29304 122.573 8.28388 122.592 8.28388C124.496 8.28033 126.397 8.28033 128.293 8.28388C129.702 8.28654 130.979 8.61394 132.084 9.49055C133.539 10.6467 134.12 12.3821 134.124 14.2024C134.127 15.1077 134.129 16.0133 134.13 16.9191C134.131 17.5586 134.063 18.1796 133.927 18.7824C133.315 21.4779 131.071 22.9512 128.394 22.9414C127.737 22.9391 127.08 22.9397 126.424 22.9432C126.404 22.9432 126.394 22.9533 126.394 22.9734ZM130.095 13.0569C129.818 12.3759 129.259 12.1479 128.56 12.1355C127.843 12.1231 127.127 12.1186 126.411 12.1222C126.407 12.1222 126.402 12.124 126.399 12.1272C126.396 12.1305 126.394 12.1349 126.394 12.1395V19.0712C126.394 19.0901 126.403 19.0996 126.422 19.0996C127.028 19.1058 127.634 19.1098 128.24 19.1116C129.106 19.1142 129.942 18.9155 130.176 17.9595C130.238 17.7079 130.284 17.4262 130.288 17.1521C130.3 16.087 130.299 15.0225 130.286 13.9584C130.282 13.6599 130.218 13.3595 130.095 13.0569Z" fill="#1A1A1A"/>
<path d="M140.83 32.9311C139.258 32.7377 137.894 31.9844 137.018 30.6455C136.261 29.4881 136.041 28.2069 136.04 26.8454C136.038 20.665 136.038 14.4848 136.04 8.30474C136.04 8.28966 136.047 8.28212 136.062 8.28212H139.845C139.861 8.28212 139.868 8.28981 139.868 8.30519C139.869 14.5187 139.867 20.732 139.863 26.9452C139.862 27.7815 139.966 28.7912 140.938 29.0445C141.58 29.2113 142.57 29.2361 143.132 28.828C143.789 28.3511 143.768 27.3423 143.768 26.5921C143.769 20.4942 143.769 14.3965 143.768 8.29898C143.768 8.28774 143.774 8.28212 143.785 8.28212H147.58C147.585 8.28212 147.589 8.28413 147.593 8.2877C147.596 8.29128 147.598 8.29613 147.598 8.30119C147.599 14.5165 147.6 20.7348 147.6 26.9563C147.601 28.5889 147.167 30.0821 146.096 31.3128C145.927 31.5071 145.719 31.6946 145.472 31.8753C144.119 32.8668 142.476 33.1339 140.83 32.9311Z" fill="#1A1A1A"/>
<path d="M171.171 18.2461V8.29942C171.171 8.29483 171.172 8.29043 171.176 8.28719C171.179 8.28394 171.183 8.28212 171.188 8.28212H174.983C174.987 8.28212 174.992 8.28394 174.995 8.28719C174.998 8.29043 175 8.29483 175 8.29942V32.696C175 32.7006 174.998 32.705 174.995 32.7082C174.992 32.7115 174.987 32.7133 174.983 32.7133H171.188C171.183 32.7133 171.179 32.7115 171.176 32.7082C171.172 32.705 171.171 32.7006 171.171 32.696V22.1194C171.171 22.1148 171.169 22.1104 171.166 22.1072C171.162 22.1039 171.158 22.1021 171.153 22.1021L167.286 22.103C167.281 22.103 167.277 22.1048 167.274 22.1081C167.27 22.1113 167.269 22.1157 167.269 22.1203V32.6955C167.269 32.7001 167.267 32.7045 167.264 32.7078C167.26 32.711 167.256 32.7129 167.251 32.7129L163.455 32.7133C163.451 32.7133 163.446 32.7115 163.443 32.7082C163.44 32.705 163.438 32.7006 163.438 32.696V8.29942C163.438 8.29483 163.44 8.29043 163.443 8.28719C163.446 8.28394 163.451 8.28212 163.455 8.28212L167.251 8.28256C167.256 8.28256 167.26 8.28438 167.264 8.28763C167.267 8.29087 167.269 8.29527 167.269 8.29986V18.2461C167.269 18.2506 167.27 18.255 167.274 18.2583C167.277 18.2615 167.281 18.2634 167.286 18.2634H171.153C171.158 18.2634 171.162 18.2615 171.166 18.2583C171.169 18.255 171.171 18.2506 171.171 18.2461Z" fill="#1A1A1A"/>
<path d="M71.902 22.9744V32.7063C71.902 32.7163 71.897 32.7214 71.8869 32.7214H68.0257C68.0086 32.7214 68 32.7128 68 32.6956V8.31238C68 8.29848 68.0069 8.29153 68.0208 8.29153C69.9981 8.28857 71.9726 8.28709 73.9446 8.28709C74.6507 8.28739 75.3295 8.38779 75.981 8.58832C77.6191 9.09317 78.9336 10.3739 79.4554 12.0052C79.6434 12.5925 79.7511 13.2101 79.7785 13.8578C79.7823 13.9477 79.785 14.2433 79.7865 14.7446C79.7888 15.5431 79.7871 16.3416 79.7812 17.1402C79.7533 20.7309 77.3716 23.0041 73.7901 22.9473C73.4062 22.9414 72.7839 22.9433 71.9232 22.9531C71.9091 22.9531 71.902 22.9602 71.902 22.9744ZM75.0436 12.3454C74.5625 12.1298 74.184 12.132 73.5573 12.128C73.0129 12.1248 72.4679 12.1252 71.9223 12.1294C71.9088 12.1294 71.902 12.1362 71.902 12.1498V19.0811C71.902 19.0973 71.9101 19.1056 71.9263 19.1059C72.5979 19.1118 73.2695 19.1114 73.941 19.1046C74.265 19.1015 74.5536 19.0713 74.8316 18.9799C75.7384 18.6831 75.8774 17.7666 75.8796 16.9184C75.8823 16.0199 75.8818 15.1215 75.8783 14.2233C75.8756 13.569 75.7256 12.6515 75.0436 12.3454Z" fill="#1A1A1A"/>
<path d="M86.6697 32.9424C84.504 32.6975 82.7734 31.4118 82.083 29.2993C81.8307 28.5269 81.7426 27.751 81.7422 26.9112C81.7392 20.7128 81.7389 14.5142 81.7413 8.31554C81.7416 8.29868 81.7502 8.29026 81.767 8.29026H85.6265C85.6403 8.29026 85.6473 8.29721 85.6473 8.31111C85.6473 14.6337 85.6476 20.9558 85.6481 27.2772C85.6481 27.3792 85.6628 27.5154 85.692 27.6858C85.8252 28.4617 86.081 28.9399 86.9339 29.0943C87.4571 29.1892 87.9573 29.1795 88.4348 29.065C89.4842 28.8135 89.6338 27.8215 89.6329 26.9116C89.6267 20.7121 89.6231 14.5126 89.6223 8.31332C89.6223 8.31029 89.6229 8.3073 89.624 8.3045C89.6252 8.3017 89.6269 8.29915 89.629 8.29701C89.6311 8.29487 89.6337 8.29317 89.6365 8.29201C89.6393 8.29085 89.6423 8.29026 89.6453 8.29026H93.5065C93.5219 8.29026 93.5295 8.29795 93.5295 8.31332C93.5304 14.6351 93.5303 20.9565 93.5291 27.2776C93.5291 27.8495 93.4074 28.5571 93.2303 29.1254C92.6116 31.1105 91.2892 32.3433 89.2633 32.8239C88.4246 33.0227 87.5274 33.0395 86.6697 32.9424Z" fill="#1A1A1A"/>
<path d="M100.102 22.9326V32.7009C100.102 32.7151 100.095 32.7222 100.081 32.7222H96.2177C96.2032 32.7222 96.196 32.7149 96.196 32.7004V8.31408C96.196 8.30136 96.2023 8.295 96.215 8.295C99.3427 8.28376 101.406 8.2845 102.406 8.29722C103.404 8.30964 104.342 8.55748 105.218 9.04074C106.883 9.95906 107.775 11.5974 107.948 13.4487C107.967 13.6453 107.978 13.9408 107.982 14.335C107.994 15.6857 107.993 16.6728 107.978 17.2963C107.934 19.1506 107.196 20.8391 105.662 21.9295C105.65 21.9384 105.645 21.9504 105.648 21.9655L107.877 32.7102L107.877 32.7146L107.875 32.7186L107.872 32.7213L107.867 32.7222H103.922C103.908 32.7222 103.9 32.7158 103.898 32.7031L101.881 22.9295C101.88 22.9247 101.878 22.9204 101.874 22.9174C101.87 22.9143 101.865 22.9126 101.86 22.9126L100.122 22.9122C100.109 22.9122 100.102 22.919 100.102 22.9326ZM103.826 12.9527C103.429 12.1129 102.528 12.1324 101.745 12.1289C101.206 12.1265 100.665 12.1266 100.124 12.1293C100.109 12.1293 100.102 12.1365 100.102 12.151V19.0482C100.102 19.0621 100.109 19.069 100.123 19.069C101.047 19.0782 101.785 19.0774 102.337 19.0668C102.732 19.0592 103.227 18.9341 103.529 18.6689C103.909 18.337 104.049 17.7275 104.071 17.2275C104.092 16.7581 104.092 15.6869 104.071 14.0138C104.066 13.643 103.985 13.2892 103.826 12.9527Z" fill="#1A1A1A"/>
<path d="M114.2 22.1266V28.8645C114.2 28.8691 114.202 28.8735 114.205 28.8767C114.208 28.88 114.213 28.8818 114.217 28.8818H120.576C120.581 28.8818 120.585 28.8836 120.588 28.8869C120.592 28.8901 120.593 28.8945 120.593 28.8991V32.7041C120.593 32.7087 120.592 32.7131 120.588 32.7164C120.585 32.7196 120.581 32.7214 120.576 32.7214H110.311C110.307 32.7214 110.302 32.7196 110.299 32.7164C110.296 32.7131 110.294 32.7087 110.294 32.7041V8.30756C110.294 8.30297 110.296 8.29857 110.299 8.29532C110.302 8.29208 110.307 8.29026 110.311 8.29026H120.576C120.581 8.29026 120.585 8.29208 120.588 8.29532C120.592 8.29857 120.593 8.30297 120.593 8.30756V12.1104C120.593 12.1149 120.592 12.1193 120.588 12.1226C120.585 12.1258 120.581 12.1277 120.576 12.1277H114.217C114.213 12.1277 114.208 12.1295 114.205 12.1327C114.202 12.136 114.2 12.1404 114.2 12.145V18.2546C114.2 18.2592 114.202 18.2636 114.205 18.2669C114.208 18.2701 114.213 18.2719 114.217 18.2719H118.586C118.59 18.2719 118.595 18.2738 118.598 18.277C118.601 18.2803 118.603 18.2847 118.603 18.2892V22.092C118.603 22.0966 118.601 22.101 118.598 22.1043C118.595 22.1075 118.59 22.1093 118.586 22.1093H114.217C114.213 22.1093 114.208 22.1112 114.205 22.1144C114.202 22.1177 114.2 22.1221 114.2 22.1266Z" fill="#1A1A1A"/>
<path d="M154.685 32.9549C151.38 32.6439 149.646 30.1645 149.649 26.9894C149.65 25.9365 149.651 24.8845 149.653 23.8334C149.653 23.8213 149.659 23.8152 149.671 23.8152H153.467C153.471 23.8152 153.475 23.8171 153.479 23.8203C153.482 23.8235 153.484 23.8279 153.484 23.8325C153.484 24.8709 153.483 25.9112 153.483 26.9535C153.482 27.7094 153.591 28.6197 154.353 28.9596C154.996 29.2462 156.192 29.255 156.768 28.8118C157.222 28.4627 157.346 27.8611 157.372 27.3106C157.385 27.0418 157.388 26.5835 157.382 25.9358C157.378 25.4596 157.37 25.1642 157.358 25.0494C157.307 24.5383 157.153 24.0687 156.894 23.6404C156.618 23.1823 156.316 22.8274 155.989 22.5757C155.842 22.4622 155.535 22.2744 155.071 22.0123C154.591 21.7423 154.114 21.4696 153.638 21.1943C152.632 20.6136 151.818 19.9552 151.085 18.9641C150.297 17.8991 149.835 16.722 149.696 15.4328C149.633 14.8499 149.638 14.141 149.662 13.5811C149.77 11.0915 151.083 8.87908 153.604 8.23271C154.705 7.95056 155.821 7.92498 156.953 8.15596C159.805 8.73845 161.215 11.1993 161.215 13.9799C161.215 14.6918 161.213 15.4038 161.21 16.116C161.21 16.1293 161.203 16.136 161.19 16.136L157.407 16.1355C157.403 16.1355 157.4 16.1349 157.397 16.1336C157.394 16.1323 157.391 16.1304 157.389 16.128C157.386 16.1256 157.384 16.1228 157.383 16.1197C157.382 16.1165 157.381 16.1132 157.381 16.1098C157.382 15.3518 157.381 14.5953 157.377 13.8402C157.373 13.0048 157.139 12.1407 156.222 11.933C155.733 11.8224 155.242 11.8137 154.75 11.9069C153.364 12.169 153.452 13.7133 153.495 14.7785C153.518 15.3876 153.689 15.939 154.011 16.4652C154.235 16.8307 154.498 17.1356 154.8 17.3799C154.988 17.5316 155.286 17.7202 155.693 17.9456C156.338 18.3034 156.847 18.5921 157.22 18.8115C157.671 19.0773 158.166 19.4038 158.561 19.7418C160.24 21.1801 161.194 23.1365 161.207 25.3702C161.214 26.6824 161.277 27.7369 160.991 28.8793C160.229 31.9221 157.658 33.2348 154.685 32.9549Z" stroke="#E6E2DE" stroke-width="16" stroke-linejoin="round" mask="url(#path-4-outside-1_1173_18)"/>
<path d="M126.394 22.9734V32.6893C126.394 32.7053 126.386 32.7133 126.37 32.7133H122.586C122.571 32.7133 122.564 32.706 122.564 32.6915V8.31138C122.564 8.29304 122.573 8.28388 122.592 8.28388C124.496 8.28033 126.397 8.28033 128.293 8.28388C129.702 8.28654 130.979 8.61394 132.084 9.49055C133.539 10.6467 134.12 12.3821 134.124 14.2024C134.127 15.1077 134.129 16.0133 134.13 16.9191C134.131 17.5586 134.063 18.1796 133.927 18.7824C133.315 21.4779 131.071 22.9512 128.394 22.9414C127.737 22.9391 127.08 22.9397 126.424 22.9432C126.404 22.9432 126.394 22.9533 126.394 22.9734ZM130.095 13.0569C129.818 12.3759 129.259 12.1479 128.56 12.1355C127.843 12.1231 127.127 12.1186 126.411 12.1222C126.407 12.1222 126.402 12.124 126.399 12.1272C126.396 12.1305 126.394 12.1349 126.394 12.1395V19.0712C126.394 19.0901 126.403 19.0996 126.422 19.0996C127.028 19.1058 127.634 19.1098 128.24 19.1116C129.106 19.1142 129.942 18.9155 130.176 17.9595C130.238 17.7079 130.284 17.4262 130.288 17.1521C130.3 16.087 130.299 15.0225 130.286 13.9584C130.282 13.6599 130.218 13.3595 130.095 13.0569Z" stroke="#E6E2DE" stroke-width="16" stroke-linejoin="round" mask="url(#path-4-outside-1_1173_18)"/>
<path d="M140.83 32.9311C139.258 32.7377 137.894 31.9844 137.018 30.6455C136.261 29.4881 136.041 28.2069 136.04 26.8454C136.038 20.665 136.038 14.4848 136.04 8.30474C136.04 8.28966 136.047 8.28212 136.062 8.28212H139.845C139.861 8.28212 139.868 8.28981 139.868 8.30519C139.869 14.5187 139.867 20.732 139.863 26.9452C139.862 27.7815 139.966 28.7912 140.938 29.0445C141.58 29.2113 142.57 29.2361 143.132 28.828C143.789 28.3511 143.768 27.3423 143.768 26.5921C143.769 20.4942 143.769 14.3965 143.768 8.29898C143.768 8.28774 143.774 8.28212 143.785 8.28212H147.58C147.585 8.28212 147.589 8.28413 147.593 8.2877C147.596 8.29128 147.598 8.29613 147.598 8.30119C147.599 14.5165 147.6 20.7348 147.6 26.9563C147.601 28.5889 147.167 30.0821 146.096 31.3128C145.927 31.5071 145.719 31.6946 145.472 31.8753C144.119 32.8668 142.476 33.1339 140.83 32.9311Z" stroke="#E6E2DE" stroke-width="16" stroke-linejoin="round" mask="url(#path-4-outside-1_1173_18)"/>
<path d="M171.171 18.2461V8.29942C171.171 8.29483 171.172 8.29043 171.176 8.28719C171.179 8.28394 171.183 8.28212 171.188 8.28212H174.983C174.987 8.28212 174.992 8.28394 174.995 8.28719C174.998 8.29043 175 8.29483 175 8.29942V32.696C175 32.7006 174.998 32.705 174.995 32.7082C174.992 32.7115 174.987 32.7133 174.983 32.7133H171.188C171.183 32.7133 171.179 32.7115 171.176 32.7082C171.172 32.705 171.171 32.7006 171.171 32.696V22.1194C171.171 22.1148 171.169 22.1104 171.166 22.1072C171.162 22.1039 171.158 22.1021 171.153 22.1021L167.286 22.103C167.281 22.103 167.277 22.1048 167.274 22.1081C167.27 22.1113 167.269 22.1157 167.269 22.1203V32.6955C167.269 32.7001 167.267 32.7045 167.264 32.7078C167.26 32.711 167.256 32.7129 167.251 32.7129L163.455 32.7133C163.451 32.7133 163.446 32.7115 163.443 32.7082C163.44 32.705 163.438 32.7006 163.438 32.696V8.29942C163.438 8.29483 163.44 8.29043 163.443 8.28719C163.446 8.28394 163.451 8.28212 163.455 8.28212L167.251 8.28256C167.256 8.28256 167.26 8.28438 167.264 8.28763C167.267 8.29087 167.269 8.29527 167.269 8.29986V18.2461C167.269 18.2506 167.27 18.255 167.274 18.2583C167.277 18.2615 167.281 18.2634 167.286 18.2634H171.153C171.158 18.2634 171.162 18.2615 171.166 18.2583C171.169 18.255 171.171 18.2506 171.171 18.2461Z" stroke="#E6E2DE" stroke-width="16" stroke-linejoin="round" mask="url(#path-4-outside-1_1173_18)"/>
<path d="M71.902 22.9744V32.7063C71.902 32.7163 71.897 32.7214 71.8869 32.7214H68.0257C68.0086 32.7214 68 32.7128 68 32.6956V8.31238C68 8.29848 68.0069 8.29153 68.0208 8.29153C69.9981 8.28857 71.9726 8.28709 73.9446 8.28709C74.6507 8.28739 75.3295 8.38779 75.981 8.58832C77.6191 9.09317 78.9336 10.3739 79.4554 12.0052C79.6434 12.5925 79.7511 13.2101 79.7785 13.8578C79.7823 13.9477 79.785 14.2433 79.7865 14.7446C79.7888 15.5431 79.7871 16.3416 79.7812 17.1402C79.7533 20.7309 77.3716 23.0041 73.7901 22.9473C73.4062 22.9414 72.7839 22.9433 71.9232 22.9531C71.9091 22.9531 71.902 22.9602 71.902 22.9744ZM75.0436 12.3454C74.5625 12.1298 74.184 12.132 73.5573 12.128C73.0129 12.1248 72.4679 12.1252 71.9223 12.1294C71.9088 12.1294 71.902 12.1362 71.902 12.1498V19.0811C71.902 19.0973 71.9101 19.1056 71.9263 19.1059C72.5979 19.1118 73.2695 19.1114 73.941 19.1046C74.265 19.1015 74.5536 19.0713 74.8316 18.9799C75.7384 18.6831 75.8774 17.7666 75.8796 16.9184C75.8823 16.0199 75.8818 15.1215 75.8783 14.2233C75.8756 13.569 75.7256 12.6515 75.0436 12.3454Z" stroke="#E6E2DE" stroke-width="16" stroke-linejoin="round" mask="url(#path-4-outside-1_1173_18)"/>
<path d="M86.6697 32.9424C84.504 32.6975 82.7734 31.4118 82.083 29.2993C81.8307 28.5269 81.7426 27.751 81.7422 26.9112C81.7392 20.7128 81.7389 14.5142 81.7413 8.31554C81.7416 8.29868 81.7502 8.29026 81.767 8.29026H85.6265C85.6403 8.29026 85.6473 8.29721 85.6473 8.31111C85.6473 14.6337 85.6476 20.9558 85.6481 27.2772C85.6481 27.3792 85.6628 27.5154 85.692 27.6858C85.8252 28.4617 86.081 28.9399 86.9339 29.0943C87.4571 29.1892 87.9573 29.1795 88.4348 29.065C89.4842 28.8135 89.6338 27.8215 89.6329 26.9116C89.6267 20.7121 89.6231 14.5126 89.6223 8.31332C89.6223 8.31029 89.6229 8.3073 89.624 8.3045C89.6252 8.3017 89.6269 8.29915 89.629 8.29701C89.6311 8.29487 89.6337 8.29317 89.6365 8.29201C89.6393 8.29085 89.6423 8.29026 89.6453 8.29026H93.5065C93.5219 8.29026 93.5295 8.29795 93.5295 8.31332C93.5304 14.6351 93.5303 20.9565 93.5291 27.2776C93.5291 27.8495 93.4074 28.5571 93.2303 29.1254C92.6116 31.1105 91.2892 32.3433 89.2633 32.8239C88.4246 33.0227 87.5274 33.0395 86.6697 32.9424Z" stroke="#E6E2DE" stroke-width="16" stroke-linejoin="round" mask="url(#path-4-outside-1_1173_18)"/>
<path d="M100.102 22.9326V32.7009C100.102 32.7151 100.095 32.7222 100.081 32.7222H96.2177C96.2032 32.7222 96.196 32.7149 96.196 32.7004V8.31408C96.196 8.30136 96.2023 8.295 96.215 8.295C99.3427 8.28376 101.406 8.2845 102.406 8.29722C103.404 8.30964 104.342 8.55748 105.218 9.04074C106.883 9.95906 107.775 11.5974 107.948 13.4487C107.967 13.6453 107.978 13.9408 107.982 14.335C107.994 15.6857 107.993 16.6728 107.978 17.2963C107.934 19.1506 107.196 20.8391 105.662 21.9295C105.65 21.9384 105.645 21.9504 105.648 21.9655L107.877 32.7102L107.877 32.7146L107.875 32.7186L107.872 32.7213L107.867 32.7222H103.922C103.908 32.7222 103.9 32.7158 103.898 32.7031L101.881 22.9295C101.88 22.9247 101.878 22.9204 101.874 22.9174C101.87 22.9143 101.865 22.9126 101.86 22.9126L100.122 22.9122C100.109 22.9122 100.102 22.919 100.102 22.9326ZM103.826 12.9527C103.429 12.1129 102.528 12.1324 101.745 12.1289C101.206 12.1265 100.665 12.1266 100.124 12.1293C100.109 12.1293 100.102 12.1365 100.102 12.151V19.0482C100.102 19.0621 100.109 19.069 100.123 19.069C101.047 19.0782 101.785 19.0774 102.337 19.0668C102.732 19.0592 103.227 18.9341 103.529 18.6689C103.909 18.337 104.049 17.7275 104.071 17.2275C104.092 16.7581 104.092 15.6869 104.071 14.0138C104.066 13.643 103.985 13.2892 103.826 12.9527Z" stroke="#E6E2DE" stroke-width="16" stroke-linejoin="round" mask="url(#path-4-outside-1_1173_18)"/>
<path d="M114.2 22.1266V28.8645C114.2 28.8691 114.202 28.8735 114.205 28.8767C114.208 28.88 114.213 28.8818 114.217 28.8818H120.576C120.581 28.8818 120.585 28.8836 120.588 28.8869C120.592 28.8901 120.593 28.8945 120.593 28.8991V32.7041C120.593 32.7087 120.592 32.7131 120.588 32.7164C120.585 32.7196 120.581 32.7214 120.576 32.7214H110.311C110.307 32.7214 110.302 32.7196 110.299 32.7164C110.296 32.7131 110.294 32.7087 110.294 32.7041V8.30756C110.294 8.30297 110.296 8.29857 110.299 8.29532C110.302 8.29208 110.307 8.29026 110.311 8.29026H120.576C120.581 8.29026 120.585 8.29208 120.588 8.29532C120.592 8.29857 120.593 8.30297 120.593 8.30756V12.1104C120.593 12.1149 120.592 12.1193 120.588 12.1226C120.585 12.1258 120.581 12.1277 120.576 12.1277H114.217C114.213 12.1277 114.208 12.1295 114.205 12.1327C114.202 12.136 114.2 12.1404 114.2 12.145V18.2546C114.2 18.2592 114.202 18.2636 114.205 18.2669C114.208 18.2701 114.213 18.2719 114.217 18.2719H118.586C118.59 18.2719 118.595 18.2738 118.598 18.277C118.601 18.2803 118.603 18.2847 118.603 18.2892V22.092C118.603 22.0966 118.601 22.101 118.598 22.1043C118.595 22.1075 118.59 22.1093 118.586 22.1093H114.217C114.213 22.1093 114.208 22.1112 114.205 22.1144C114.202 22.1177 114.2 22.1221 114.2 22.1266Z" stroke="#E6E2DE" stroke-width="16" stroke-linejoin="round" mask="url(#path-4-outside-1_1173_18)"/>
</svg>
