<svg width="242" height="240" viewBox="0 0 242 240" fill="none" xmlns="http://www.w3.org/2000/svg">
<rect y="80" width="242" height="160" rx="12" fill="#E6E2DE"/>
<path d="M90.9059 150.815H89.0979V154.559H86.6659V143.071H90.9059C93.7059 143.071 95.4499 144.399 95.4499 146.895C95.4499 149.391 93.7059 150.815 90.9059 150.815ZM90.8899 145.119H89.0979V148.767H90.8899C92.2659 148.767 93.0339 148.047 93.0339 146.911C93.0339 145.775 92.2659 145.119 90.8899 145.119ZM101.951 150.959V146.015H104.159V154.559H102.127V153.439C101.663 154.191 100.719 154.719 99.6314 154.719C97.9194 154.719 96.6714 153.679 96.6714 151.455V146.015H98.8954V151.023C98.8954 152.223 99.4874 152.751 100.383 152.751C101.183 152.751 101.951 152.111 101.951 150.959ZM108.222 150.415V154.559H105.998V146.015H108.046V147.663C108.67 146.575 109.998 145.919 111.374 145.919V148.223C109.486 148.079 108.222 148.527 108.222 150.415ZM116.018 154.703C113.458 154.703 111.746 152.927 111.746 150.255C111.746 147.711 113.522 145.855 115.986 145.855C118.69 145.855 120.482 148.047 120.082 150.831H114.018C114.162 152.223 114.834 152.991 115.97 152.991C116.946 152.991 117.602 152.511 117.858 151.663H120.066C119.586 153.599 118.098 154.703 116.018 154.703ZM115.938 147.487C114.898 147.487 114.242 148.159 114.05 149.423H117.73C117.666 148.239 116.994 147.487 115.938 147.487ZM129.94 150.287C129.94 152.815 128.452 154.719 126.148 154.719C125.14 154.719 124.276 154.287 123.636 153.455V157.647H121.412V146.015H123.46V147.263C124.116 146.351 125.06 145.855 126.148 145.855C128.452 145.855 129.94 147.775 129.94 150.287ZM127.652 150.287C127.652 148.687 126.74 147.823 125.652 147.823C124.564 147.823 123.652 148.671 123.652 150.287C123.652 151.903 124.564 152.735 125.652 152.735C126.74 152.735 127.652 151.919 127.652 150.287ZM136.405 150.959V146.015H138.613V154.559H136.581V153.439C136.117 154.191 135.173 154.719 134.085 154.719C132.373 154.719 131.125 153.679 131.125 151.455V146.015H133.349V151.023C133.349 152.223 133.941 152.751 134.837 152.751C135.637 152.751 136.405 152.111 136.405 150.959ZM147.667 151.823C147.667 153.615 146.307 154.719 143.875 154.719C141.443 154.719 140.083 153.551 139.907 151.647H142.035C142.051 152.527 142.803 153.087 143.907 153.087C144.771 153.087 145.427 152.815 145.427 152.207C145.427 151.663 145.075 151.439 144.259 151.279L142.723 150.991C141.187 150.719 140.259 149.871 140.259 148.543C140.259 146.959 141.619 145.855 143.747 145.855C145.891 145.855 147.363 146.991 147.523 148.831H145.395C145.315 147.999 144.691 147.487 143.747 147.487C142.931 147.487 142.387 147.791 142.387 148.335C142.387 148.847 142.739 149.055 143.507 149.199L145.155 149.503C146.819 149.823 147.667 150.591 147.667 151.823ZM151.25 149.903V154.559H149.026V143.071H151.25V147.135C151.842 146.351 152.578 145.855 153.698 145.855C155.41 145.855 156.594 146.975 156.594 149.039V154.559H154.386V149.791C154.386 148.527 153.89 147.823 152.882 147.823C152.002 147.823 151.25 148.527 151.25 149.903Z" fill="#1A1A1A"/>
<path d="M79.8399 174.559L77.7119 166.677L75.5699 174.559H73.9879L71.3699 164.507H72.8819L74.8139 172.249L76.9279 164.507H78.5239L80.6099 172.263L82.5419 164.507H84.0539L81.4359 174.559H79.8399ZM87.461 174.699C85.319 174.699 83.877 173.145 83.877 170.807C83.877 168.609 85.375 166.999 87.419 166.999C89.631 166.999 91.101 168.791 90.849 171.199H85.319C85.431 172.711 86.187 173.593 87.433 173.593C88.483 173.593 89.211 173.019 89.449 172.053H90.849C90.485 173.705 89.211 174.699 87.461 174.699ZM87.391 168.063C86.257 168.063 85.487 168.875 85.333 170.261H89.351C89.281 168.889 88.539 168.063 87.391 168.063ZM99.1564 170.849C99.1564 173.075 97.8684 174.699 95.8664 174.699C94.8164 174.699 93.9204 174.167 93.3884 173.229V174.559H92.0724V164.507H93.4864V168.413C94.0044 167.503 94.8584 166.999 95.8664 166.999C97.8544 166.999 99.1564 168.595 99.1564 170.849ZM97.6864 170.849C97.6864 169.169 96.8044 168.245 95.5864 168.245C94.4104 168.245 93.4864 169.155 93.4864 170.821C93.4864 172.459 94.3824 173.439 95.5864 173.439C96.8044 173.439 97.6864 172.501 97.6864 170.849ZM106.19 172.347C106.19 173.803 105.056 174.699 103.082 174.699C101.122 174.699 99.96 173.733 99.82 172.137H101.178C101.234 173.061 101.976 173.635 103.11 173.635C104.104 173.635 104.762 173.285 104.762 172.585C104.762 171.969 104.384 171.703 103.46 171.521L102.256 171.297C100.884 171.031 100.114 170.331 100.114 169.211C100.114 167.909 101.248 166.999 102.97 166.999C104.748 166.999 105.952 167.951 106.078 169.477H104.72C104.636 168.581 103.978 168.063 102.984 168.063C102.088 168.063 101.486 168.441 101.486 169.085C101.486 169.687 101.864 169.967 102.76 170.135L104.02 170.373C105.49 170.639 106.19 171.283 106.19 172.347ZM109.176 165.417C109.176 165.949 108.756 166.355 108.154 166.355C107.552 166.355 107.118 165.949 107.118 165.417C107.118 164.871 107.552 164.479 108.154 164.479C108.756 164.479 109.176 164.871 109.176 165.417ZM108.868 174.559H107.454V167.139H108.868V174.559ZM114.737 173.187V174.433C114.303 174.629 113.925 174.699 113.477 174.699C112.105 174.699 111.153 173.957 111.153 172.319V168.343H109.515V167.139H111.153V164.941H112.567V167.139H114.807V168.343H112.567V171.997C112.567 173.019 113.057 173.383 113.813 173.383C114.149 173.383 114.443 173.327 114.737 173.187ZM118.723 174.699C116.581 174.699 115.139 173.145 115.139 170.807C115.139 168.609 116.637 166.999 118.681 166.999C120.893 166.999 122.363 168.791 122.111 171.199H116.581C116.693 172.711 117.449 173.593 118.695 173.593C119.745 173.593 120.473 173.019 120.711 172.053H122.111C121.747 173.705 120.473 174.699 118.723 174.699ZM118.653 168.063C117.519 168.063 116.749 168.875 116.595 170.261H120.613C120.543 168.889 119.801 168.063 118.653 168.063ZM129.27 174.559H126.092V164.507H129.27C132.476 164.507 134.324 166.551 134.324 169.491C134.324 172.389 132.406 174.559 129.27 174.559ZM127.632 165.837V173.229H129.2C131.51 173.229 132.756 171.801 132.756 169.491C132.756 167.223 131.524 165.837 129.2 165.837H127.632ZM138.596 174.699C136.454 174.699 135.012 173.145 135.012 170.807C135.012 168.609 136.51 166.999 138.554 166.999C140.766 166.999 142.236 168.791 141.984 171.199H136.454C136.566 172.711 137.322 173.593 138.568 173.593C139.618 173.593 140.346 173.019 140.584 172.053H141.984C141.62 173.705 140.346 174.699 138.596 174.699ZM138.526 168.063C137.392 168.063 136.622 168.875 136.468 170.261H140.486C140.416 168.889 139.674 168.063 138.526 168.063ZM149.087 172.347C149.087 173.803 147.953 174.699 145.979 174.699C144.019 174.699 142.857 173.733 142.717 172.137H144.075C144.131 173.061 144.873 173.635 146.007 173.635C147.001 173.635 147.659 173.285 147.659 172.585C147.659 171.969 147.281 171.703 146.357 171.521L145.153 171.297C143.781 171.031 143.011 170.331 143.011 169.211C143.011 167.909 144.145 166.999 145.867 166.999C147.645 166.999 148.849 167.951 148.975 169.477H147.617C147.533 168.581 146.875 168.063 145.881 168.063C144.985 168.063 144.383 168.441 144.383 169.085C144.383 169.687 144.761 169.967 145.657 170.135L146.917 170.373C148.387 170.639 149.087 171.283 149.087 172.347ZM152.073 165.417C152.073 165.949 151.653 166.355 151.051 166.355C150.449 166.355 150.015 165.949 150.015 165.417C150.015 164.871 150.449 164.479 151.051 164.479C151.653 164.479 152.073 164.871 152.073 165.417ZM151.765 174.559H150.351V167.139H151.765V174.559ZM156.416 177.415C154.47 177.415 153.21 176.379 153.126 174.699H154.498C154.582 175.735 155.254 176.295 156.402 176.295C157.676 176.295 158.348 175.609 158.348 174.335V172.991C157.928 173.887 157.088 174.405 156.08 174.405C154.232 174.405 152.916 172.879 152.916 170.695C152.916 168.483 154.176 166.999 156.038 166.999C157.102 166.999 157.942 167.517 158.446 168.455V167.139H159.762V174.307C159.762 176.253 158.516 177.415 156.416 177.415ZM154.344 170.695C154.344 172.235 155.1 173.173 156.332 173.173C157.536 173.173 158.348 172.207 158.348 170.737C158.348 169.197 157.55 168.217 156.332 168.217C155.114 168.217 154.344 169.169 154.344 170.695ZM162.854 170.373V174.559H161.44V167.139H162.756V168.371C163.26 167.545 164.1 166.999 165.122 166.999C166.648 166.999 167.656 167.979 167.656 169.757V174.559H166.242V170.233C166.242 168.959 165.682 168.245 164.632 168.245C163.666 168.245 162.854 169.057 162.854 170.373ZM171.171 173.957C171.171 175.287 170.121 176.323 168.581 176.351V175.553C169.491 175.525 170.107 175.035 170.191 174.349C170.065 174.391 169.981 174.405 169.883 174.405C169.351 174.405 168.959 173.971 168.959 173.453C168.959 172.851 169.407 172.459 169.981 172.459C170.751 172.459 171.171 173.019 171.171 173.957ZM66.6706 188.675C66.6706 190.509 65.3266 191.559 63.2406 191.559H59.5586V181.507H63.0446C65.0746 181.507 66.2926 182.445 66.2926 184.139C66.2926 185.091 65.7186 185.903 64.7526 186.323C65.9986 186.673 66.6706 187.527 66.6706 188.675ZM62.9466 182.739H60.9726V185.763H62.9466C64.1646 185.763 64.8226 185.189 64.8226 184.251C64.8226 183.313 64.1646 182.739 62.9466 182.739ZM63.1426 186.995H60.9726V190.327H63.1426C64.4586 190.327 65.2006 189.697 65.2006 188.633C65.2006 187.611 64.4586 186.995 63.1426 186.995ZM69.4674 187.765V191.559H68.0534V184.139H69.3694V185.707C69.8874 184.685 71.0074 184.041 72.2254 184.041V185.511C70.6294 185.427 69.4674 186.127 69.4674 187.765ZM77.5584 191.559V190.411C77.0964 191.237 76.2704 191.699 75.1784 191.699C73.6384 191.699 72.6304 190.817 72.6304 189.459C72.6304 188.003 73.7924 187.247 76.0044 187.247C76.4384 187.247 76.7884 187.261 77.3904 187.331V186.785C77.3904 185.721 76.8164 185.119 75.8364 185.119C74.8004 185.119 74.1704 185.735 74.1284 186.771H72.8404C72.9104 185.105 74.1004 183.999 75.8364 183.999C77.6704 183.999 78.7344 185.035 78.7344 186.799V191.559H77.5584ZM73.9744 189.417C73.9744 190.187 74.5484 190.691 75.4584 190.691C76.6484 190.691 77.3904 189.949 77.3904 188.815V188.213C76.8444 188.143 76.4524 188.129 76.0884 188.129C74.6744 188.129 73.9744 188.549 73.9744 189.417ZM81.7589 187.373V191.559H80.3449V184.139H81.6609V185.371C82.1649 184.545 83.0049 183.999 84.0269 183.999C85.5529 183.999 86.5609 184.979 86.5609 186.757V191.559H85.1469V187.233C85.1469 185.959 84.5869 185.245 83.5369 185.245C82.5709 185.245 81.7589 186.057 81.7589 187.373ZM87.6267 187.849C87.6267 185.595 88.9147 183.999 90.9167 183.999C91.9107 183.999 92.7787 184.503 93.2967 185.413V181.507H94.7107V191.559H93.3947V190.229C92.8627 191.167 91.9667 191.699 90.9167 191.699C88.9147 191.699 87.6267 190.075 87.6267 187.849ZM89.0967 187.849C89.0967 189.501 89.9647 190.439 91.1967 190.439C92.4007 190.439 93.2967 189.459 93.2967 187.821C93.2967 186.155 92.3727 185.245 91.1967 185.245C89.9647 185.245 89.0967 186.169 89.0967 187.849ZM98.1182 182.417C98.1182 182.949 97.6982 183.355 97.0962 183.355C96.4942 183.355 96.0602 182.949 96.0602 182.417C96.0602 181.871 96.4942 181.479 97.0962 181.479C97.6982 181.479 98.1182 181.871 98.1182 182.417ZM97.8102 191.559H96.3962V184.139H97.8102V191.559ZM100.907 187.373V191.559H99.4932V184.139H100.809V185.371C101.313 184.545 102.153 183.999 103.175 183.999C104.701 183.999 105.709 184.979 105.709 186.757V191.559H104.295V187.233C104.295 185.959 103.735 185.245 102.685 185.245C101.719 185.245 100.907 186.057 100.907 187.373ZM110.275 194.415C108.329 194.415 107.069 193.379 106.985 191.699H108.357C108.441 192.735 109.113 193.295 110.261 193.295C111.535 193.295 112.207 192.609 112.207 191.335V189.991C111.787 190.887 110.947 191.405 109.939 191.405C108.091 191.405 106.775 189.879 106.775 187.695C106.775 185.483 108.035 183.999 109.897 183.999C110.961 183.999 111.801 184.517 112.305 185.455V184.139H113.621V191.307C113.621 193.253 112.375 194.415 110.275 194.415ZM108.203 187.695C108.203 189.235 108.959 190.173 110.191 190.173C111.395 190.173 112.207 189.207 112.207 187.737C112.207 186.197 111.409 185.217 110.191 185.217C108.973 185.217 108.203 186.169 108.203 187.695ZM122.438 191.769C119.638 191.769 117.468 189.487 117.468 186.519C117.468 183.565 119.638 181.297 122.438 181.297C124.958 181.297 126.974 182.977 127.352 185.455H125.714C125.434 183.831 124.118 182.683 122.452 182.683C120.464 182.683 119.064 184.293 119.064 186.519C119.064 188.773 120.464 190.383 122.452 190.383C124.118 190.383 125.434 189.221 125.714 187.597H127.352C126.974 190.089 124.958 191.769 122.438 191.769ZM131.669 191.699C129.569 191.699 128.029 190.047 128.029 187.849C128.029 185.651 129.569 183.999 131.669 183.999C133.769 183.999 135.309 185.651 135.309 187.849C135.309 190.047 133.769 191.699 131.669 191.699ZM131.669 190.453C132.887 190.453 133.853 189.473 133.853 187.849C133.853 186.225 132.887 185.259 131.669 185.259C130.451 185.259 129.499 186.225 129.499 187.849C129.499 189.473 130.451 190.453 131.669 190.453ZM137.898 191.559H136.47V181.507H137.898V191.559ZM141.009 191.559H139.581V181.507H141.009V191.559ZM147.185 191.559V190.411C146.723 191.237 145.897 191.699 144.805 191.699C143.265 191.699 142.257 190.817 142.257 189.459C142.257 188.003 143.419 187.247 145.631 187.247C146.065 187.247 146.415 187.261 147.017 187.331V186.785C147.017 185.721 146.443 185.119 145.463 185.119C144.427 185.119 143.797 185.735 143.755 186.771H142.467C142.537 185.105 143.727 183.999 145.463 183.999C147.297 183.999 148.361 185.035 148.361 186.799V191.559H147.185ZM143.601 189.417C143.601 190.187 144.175 190.691 145.085 190.691C146.275 190.691 147.017 189.949 147.017 188.815V188.213C146.471 188.143 146.079 188.129 145.715 188.129C144.301 188.129 143.601 188.549 143.601 189.417ZM154.09 190.187V191.433C153.656 191.629 153.278 191.699 152.83 191.699C151.458 191.699 150.506 190.957 150.506 189.319V185.343H148.868V184.139H150.506V181.941H151.92V184.139H154.16V185.343H151.92V188.997C151.92 190.019 152.41 190.383 153.166 190.383C153.502 190.383 153.796 190.327 154.09 190.187ZM158.076 191.699C155.934 191.699 154.492 190.145 154.492 187.807C154.492 185.609 155.99 183.999 158.034 183.999C160.246 183.999 161.716 185.791 161.464 188.199H155.934C156.046 189.711 156.802 190.593 158.048 190.593C159.098 190.593 159.826 190.019 160.064 189.053H161.464C161.1 190.705 159.826 191.699 158.076 191.699ZM158.006 185.063C156.872 185.063 156.102 185.875 155.948 187.261H159.966C159.896 185.889 159.154 185.063 158.006 185.063ZM164.101 187.765V191.559H162.687V184.139H164.003V185.707C164.521 184.685 165.641 184.041 166.859 184.041V185.511C165.263 185.427 164.101 186.127 164.101 187.765ZM172.192 191.559V190.411C171.73 191.237 170.904 191.699 169.812 191.699C168.272 191.699 167.264 190.817 167.264 189.459C167.264 188.003 168.426 187.247 170.638 187.247C171.072 187.247 171.422 187.261 172.024 187.331V186.785C172.024 185.721 171.45 185.119 170.47 185.119C169.434 185.119 168.804 185.735 168.762 186.771H167.474C167.544 185.105 168.734 183.999 170.47 183.999C172.304 183.999 173.368 185.035 173.368 186.799V191.559H172.192ZM168.608 189.417C168.608 190.187 169.182 190.691 170.092 190.691C171.282 190.691 172.024 189.949 172.024 188.815V188.213C171.478 188.143 171.086 188.129 170.722 188.129C169.308 188.129 168.608 188.549 168.608 189.417ZM176.407 191.559H174.979V181.507H176.407V191.559ZM183.97 189.347C183.97 190.803 182.836 191.699 180.862 191.699C178.902 191.699 177.74 190.733 177.6 189.137H178.958C179.014 190.061 179.756 190.635 180.89 190.635C181.884 190.635 182.542 190.285 182.542 189.585C182.542 188.969 182.164 188.703 181.24 188.521L180.036 188.297C178.664 188.031 177.894 187.331 177.894 186.211C177.894 184.909 179.028 183.999 180.75 183.999C182.528 183.999 183.732 184.951 183.858 186.477H182.5C182.416 185.581 181.758 185.063 180.764 185.063C179.868 185.063 179.266 185.441 179.266 186.085C179.266 186.687 179.644 186.967 180.54 187.135L181.8 187.373C183.27 187.639 183.97 188.283 183.97 189.347Z" fill="#1A1A1A"/>
<mask id="path-4-outside-1_1195_468" maskUnits="userSpaceOnUse" x="60" y="59" width="123" height="41" fill="black">
<rect fill="white" x="60" y="59" width="123" height="41"/>
<path d="M154.685 91.9549C151.38 91.6439 149.646 89.1645 149.649 85.9894C149.65 84.9365 149.651 83.8845 149.653 82.8334C149.653 82.8213 149.659 82.8152 149.671 82.8152H153.467C153.471 82.8152 153.475 82.8171 153.479 82.8203C153.482 82.8235 153.484 82.8279 153.484 82.8325C153.484 83.8709 153.483 84.9112 153.483 85.9535C153.482 86.7094 153.591 87.6197 154.353 87.9596C154.996 88.2462 156.192 88.255 156.768 87.8118C157.222 87.4627 157.346 86.8611 157.372 86.3106C157.385 86.0418 157.388 85.5835 157.382 84.9358C157.378 84.4596 157.37 84.1642 157.358 84.0494C157.307 83.5383 157.153 83.0687 156.894 82.6404C156.618 82.1823 156.316 81.8274 155.989 81.5757C155.842 81.4622 155.535 81.2744 155.071 81.0123C154.591 80.7423 154.114 80.4696 153.638 80.1943C152.632 79.6136 151.818 78.9552 151.085 77.9641C150.297 76.8991 149.835 75.722 149.696 74.4328C149.633 73.8499 149.638 73.141 149.662 72.5811C149.77 70.0915 151.083 67.8791 153.604 67.2327C154.705 66.9506 155.821 66.925 156.953 67.156C159.805 67.7385 161.215 70.1993 161.215 72.9799C161.215 73.6918 161.213 74.4038 161.21 75.116C161.21 75.1293 161.203 75.136 161.19 75.136L157.407 75.1355C157.403 75.1355 157.4 75.1349 157.397 75.1336C157.394 75.1323 157.391 75.1304 157.389 75.128C157.386 75.1256 157.384 75.1228 157.383 75.1197C157.382 75.1165 157.381 75.1132 157.381 75.1098C157.382 74.3518 157.381 73.5953 157.377 72.8402C157.373 72.0048 157.139 71.1407 156.222 70.933C155.733 70.8224 155.242 70.8137 154.75 70.9069C153.364 71.169 153.452 72.7133 153.495 73.7785C153.518 74.3876 153.689 74.939 154.011 75.4652C154.235 75.8307 154.498 76.1356 154.8 76.3799C154.988 76.5316 155.286 76.7202 155.693 76.9456C156.338 77.3034 156.847 77.5921 157.22 77.8115C157.671 78.0773 158.166 78.4038 158.561 78.7418C160.24 80.1801 161.194 82.1365 161.207 84.3702C161.214 85.6824 161.277 86.7369 160.991 87.8793C160.229 90.9221 157.658 92.2348 154.685 91.9549Z"/>
<path d="M126.394 81.9734V91.6893C126.394 91.7053 126.386 91.7133 126.37 91.7133H122.586C122.571 91.7133 122.564 91.706 122.564 91.6915V67.3114C122.564 67.293 122.573 67.2839 122.592 67.2839C124.496 67.2803 126.397 67.2803 128.293 67.2839C129.702 67.2865 130.979 67.6139 132.084 68.4906C133.539 69.6467 134.12 71.3821 134.124 73.2024C134.127 74.1077 134.129 75.0133 134.13 75.9191C134.131 76.5586 134.063 77.1796 133.927 77.7824C133.315 80.4779 131.071 81.9512 128.394 81.9414C127.737 81.9391 127.08 81.9397 126.424 81.9432C126.404 81.9432 126.394 81.9533 126.394 81.9734ZM130.095 72.0569C129.818 71.3759 129.259 71.1479 128.56 71.1355C127.843 71.1231 127.127 71.1186 126.411 71.1222C126.407 71.1222 126.402 71.124 126.399 71.1272C126.396 71.1305 126.394 71.1349 126.394 71.1395V78.0712C126.394 78.0901 126.403 78.0996 126.422 78.0996C127.028 78.1058 127.634 78.1098 128.24 78.1116C129.106 78.1142 129.942 77.9155 130.176 76.9595C130.238 76.7079 130.284 76.4262 130.288 76.152C130.3 75.087 130.299 74.0225 130.286 72.9584C130.282 72.6599 130.218 72.3595 130.095 72.0569Z"/>
<path d="M140.83 91.9311C139.258 91.7377 137.894 90.9844 137.018 89.6455C136.261 88.4881 136.041 87.2069 136.04 85.8454C136.038 79.665 136.038 73.4848 136.04 67.3047C136.04 67.2897 136.047 67.2821 136.062 67.2821H139.845C139.861 67.2821 139.868 67.2898 139.868 67.3052C139.869 73.5187 139.867 79.732 139.863 85.9452C139.862 86.7815 139.966 87.7912 140.938 88.0445C141.58 88.2113 142.57 88.2361 143.132 87.828C143.789 87.3511 143.768 86.3423 143.768 85.5921C143.769 79.4942 143.769 73.3965 143.768 67.299C143.768 67.2877 143.774 67.2821 143.785 67.2821H147.58C147.585 67.2821 147.589 67.2841 147.593 67.2877C147.596 67.2913 147.598 67.2961 147.598 67.3012C147.599 73.5165 147.6 79.7348 147.6 85.9563C147.601 87.5889 147.167 89.0821 146.096 90.3128C145.927 90.5071 145.719 90.6946 145.472 90.8753C144.119 91.8668 142.476 92.1339 140.83 91.9311Z"/>
<path d="M171.171 77.2461V67.2994C171.171 67.2948 171.172 67.2904 171.176 67.2872C171.179 67.2839 171.183 67.2821 171.188 67.2821H174.983C174.987 67.2821 174.992 67.2839 174.995 67.2872C174.998 67.2904 175 67.2948 175 67.2994V91.696C175 91.7006 174.998 91.705 174.995 91.7082C174.992 91.7115 174.987 91.7133 174.983 91.7133H171.188C171.183 91.7133 171.179 91.7115 171.176 91.7082C171.172 91.705 171.171 91.7006 171.171 91.696V81.1194C171.171 81.1148 171.169 81.1104 171.166 81.1072C171.162 81.1039 171.158 81.1021 171.153 81.1021L167.286 81.103C167.281 81.103 167.277 81.1048 167.274 81.1081C167.27 81.1113 167.269 81.1157 167.269 81.1203V91.6955C167.269 91.7001 167.267 91.7045 167.264 91.7078C167.26 91.711 167.256 91.7129 167.251 91.7129L163.455 91.7133C163.451 91.7133 163.446 91.7115 163.443 91.7082C163.44 91.705 163.438 91.7006 163.438 91.696V67.2994C163.438 67.2948 163.44 67.2904 163.443 67.2872C163.446 67.2839 163.451 67.2821 163.455 67.2821L167.251 67.2826C167.256 67.2826 167.26 67.2844 167.264 67.2876C167.267 67.2909 167.269 67.2953 167.269 67.2999V77.2461C167.269 77.2506 167.27 77.255 167.274 77.2583C167.277 77.2615 167.281 77.2634 167.286 77.2634H171.153C171.158 77.2634 171.162 77.2615 171.166 77.2583C171.169 77.255 171.171 77.2506 171.171 77.2461Z"/>
<path d="M71.902 81.9744V91.7063C71.902 91.7163 71.897 91.7214 71.8869 91.7214H68.0257C68.0086 91.7214 68 91.7128 68 91.6956V67.3124C68 67.2985 68.0069 67.2915 68.0208 67.2915C69.9981 67.2886 71.9726 67.2871 73.9446 67.2871C74.6507 67.2874 75.3295 67.3878 75.981 67.5883C77.6191 68.0932 78.9336 69.3739 79.4554 71.0052C79.6434 71.5925 79.7511 72.2101 79.7785 72.8578C79.7823 72.9477 79.785 73.2433 79.7865 73.7446C79.7888 74.5431 79.7871 75.3416 79.7812 76.1402C79.7533 79.7309 77.3716 82.0041 73.7901 81.9473C73.4062 81.9414 72.7839 81.9433 71.9232 81.9531C71.9091 81.9531 71.902 81.9602 71.902 81.9744ZM75.0436 71.3454C74.5625 71.1298 74.184 71.132 73.5573 71.128C73.0129 71.1248 72.4679 71.1252 71.9223 71.1294C71.9088 71.1294 71.902 71.1362 71.902 71.1498V78.0811C71.902 78.0973 71.9101 78.1056 71.9263 78.1059C72.5979 78.1118 73.2695 78.1114 73.941 78.1046C74.265 78.1015 74.5536 78.0713 74.8316 77.9799C75.7384 77.6831 75.8774 76.7666 75.8796 75.9184C75.8823 75.0199 75.8818 74.1215 75.8783 73.2233C75.8756 72.569 75.7256 71.6515 75.0436 71.3454Z"/>
<path d="M86.6697 91.9424C84.504 91.6975 82.7735 90.4118 82.083 88.2993C81.8307 87.5269 81.7426 86.751 81.7422 85.9112C81.7392 79.7128 81.7389 73.5142 81.7413 67.3155C81.7416 67.2987 81.7502 67.2903 81.767 67.2903H85.6265C85.6403 67.2903 85.6473 67.2972 85.6473 67.3111C85.6473 73.6337 85.6476 79.9558 85.6481 86.2772C85.6481 86.3792 85.6628 86.5154 85.692 86.6858C85.8252 87.4617 86.081 87.9399 86.9339 88.0943C87.4571 88.1892 87.9573 88.1795 88.4348 88.065C89.4842 87.8135 89.6338 86.8215 89.6329 85.9116C89.6267 79.7121 89.6231 73.5126 89.6223 67.3133C89.6223 67.3103 89.6229 67.3073 89.624 67.3045C89.6252 67.3017 89.6269 67.2992 89.629 67.297C89.6311 67.2949 89.6337 67.2932 89.6365 67.292C89.6393 67.2909 89.6423 67.2903 89.6453 67.2903H93.5065C93.5219 67.2903 93.5295 67.2979 93.5295 67.3133C93.5304 73.6351 93.5303 79.9565 93.5291 86.2776C93.5291 86.8495 93.4074 87.5571 93.2303 88.1254C92.6116 90.1105 91.2892 91.3433 89.2633 91.8239C88.4246 92.0227 87.5274 92.0395 86.6697 91.9424Z"/>
<path d="M100.102 81.9326V91.7009C100.102 91.7151 100.095 91.7222 100.081 91.7222H96.2177C96.2032 91.7222 96.196 91.7149 96.196 91.7004V67.3141C96.196 67.3014 96.2023 67.295 96.215 67.295C99.3427 67.2838 101.406 67.2845 102.406 67.2972C103.404 67.3096 104.342 67.5575 105.218 68.0407C106.883 68.9591 107.775 70.5974 107.948 72.4487C107.967 72.6453 107.978 72.9408 107.982 73.335C107.994 74.6857 107.993 75.6728 107.978 76.2963C107.934 78.1506 107.196 79.8391 105.662 80.9295C105.65 80.9384 105.645 80.9504 105.648 80.9655L107.877 91.7102L107.877 91.7146L107.875 91.7186L107.872 91.7213L107.867 91.7222H103.922C103.908 91.7222 103.9 91.7158 103.898 91.7031L101.881 81.9295C101.88 81.9247 101.878 81.9204 101.874 81.9174C101.87 81.9143 101.865 81.9126 101.86 81.9126L100.122 81.9122C100.109 81.9122 100.102 81.919 100.102 81.9326ZM103.826 71.9527C103.429 71.1129 102.528 71.1324 101.745 71.1289C101.206 71.1265 100.665 71.1266 100.124 71.1293C100.109 71.1293 100.102 71.1365 100.102 71.151V78.0482C100.102 78.0621 100.109 78.069 100.123 78.069C101.047 78.0782 101.785 78.0774 102.337 78.0668C102.732 78.0593 103.227 77.9341 103.529 77.6689C103.909 77.337 104.049 76.7275 104.071 76.2275C104.092 75.7581 104.092 74.6869 104.071 73.0138C104.066 72.643 103.985 72.2892 103.826 71.9527Z"/>
<path d="M114.2 81.1266V87.8645C114.2 87.8691 114.202 87.8735 114.205 87.8767C114.208 87.88 114.213 87.8818 114.217 87.8818H120.576C120.581 87.8818 120.585 87.8836 120.588 87.8869C120.592 87.8901 120.593 87.8945 120.593 87.8991V91.7041C120.593 91.7087 120.592 91.7131 120.588 91.7164C120.585 91.7196 120.581 91.7214 120.576 91.7214H110.311C110.307 91.7214 110.302 91.7196 110.299 91.7164C110.296 91.7131 110.294 91.7087 110.294 91.7041V67.3076C110.294 67.303 110.296 67.2986 110.299 67.2953C110.302 67.2921 110.307 67.2903 110.311 67.2903H120.576C120.581 67.2903 120.585 67.2921 120.588 67.2953C120.592 67.2986 120.593 67.303 120.593 67.3076V71.1104C120.593 71.1149 120.592 71.1193 120.588 71.1226C120.585 71.1258 120.581 71.1277 120.576 71.1277H114.217C114.213 71.1277 114.208 71.1295 114.205 71.1327C114.202 71.136 114.2 71.1404 114.2 71.145V77.2546C114.2 77.2592 114.202 77.2636 114.205 77.2669C114.208 77.2701 114.213 77.2719 114.217 77.2719H118.586C118.59 77.2719 118.595 77.2738 118.598 77.277C118.601 77.2803 118.603 77.2847 118.603 77.2892V81.092C118.603 81.0966 118.601 81.101 118.598 81.1043C118.595 81.1075 118.59 81.1093 118.586 81.1093H114.217C114.213 81.1093 114.208 81.1112 114.205 81.1144C114.202 81.1177 114.2 81.1221 114.2 81.1266Z"/>
</mask>
<path d="M154.685 91.9549C151.38 91.6439 149.646 89.1645 149.649 85.9894C149.65 84.9365 149.651 83.8845 149.653 82.8334C149.653 82.8213 149.659 82.8152 149.671 82.8152H153.467C153.471 82.8152 153.475 82.8171 153.479 82.8203C153.482 82.8235 153.484 82.8279 153.484 82.8325C153.484 83.8709 153.483 84.9112 153.483 85.9535C153.482 86.7094 153.591 87.6197 154.353 87.9596C154.996 88.2462 156.192 88.255 156.768 87.8118C157.222 87.4627 157.346 86.8611 157.372 86.3106C157.385 86.0418 157.388 85.5835 157.382 84.9358C157.378 84.4596 157.37 84.1642 157.358 84.0494C157.307 83.5383 157.153 83.0687 156.894 82.6404C156.618 82.1823 156.316 81.8274 155.989 81.5757C155.842 81.4622 155.535 81.2744 155.071 81.0123C154.591 80.7423 154.114 80.4696 153.638 80.1943C152.632 79.6136 151.818 78.9552 151.085 77.9641C150.297 76.8991 149.835 75.722 149.696 74.4328C149.633 73.8499 149.638 73.141 149.662 72.5811C149.77 70.0915 151.083 67.8791 153.604 67.2327C154.705 66.9506 155.821 66.925 156.953 67.156C159.805 67.7385 161.215 70.1993 161.215 72.9799C161.215 73.6918 161.213 74.4038 161.21 75.116C161.21 75.1293 161.203 75.136 161.19 75.136L157.407 75.1355C157.403 75.1355 157.4 75.1349 157.397 75.1336C157.394 75.1323 157.391 75.1304 157.389 75.128C157.386 75.1256 157.384 75.1228 157.383 75.1197C157.382 75.1165 157.381 75.1132 157.381 75.1098C157.382 74.3518 157.381 73.5953 157.377 72.8402C157.373 72.0048 157.139 71.1407 156.222 70.933C155.733 70.8224 155.242 70.8137 154.75 70.9069C153.364 71.169 153.452 72.7133 153.495 73.7785C153.518 74.3876 153.689 74.939 154.011 75.4652C154.235 75.8307 154.498 76.1356 154.8 76.3799C154.988 76.5316 155.286 76.7202 155.693 76.9456C156.338 77.3034 156.847 77.5921 157.22 77.8115C157.671 78.0773 158.166 78.4038 158.561 78.7418C160.24 80.1801 161.194 82.1365 161.207 84.3702C161.214 85.6824 161.277 86.7369 160.991 87.8793C160.229 90.9221 157.658 92.2348 154.685 91.9549Z" fill="#1A1A1A"/>
<path d="M126.394 81.9734V91.6893C126.394 91.7053 126.386 91.7133 126.37 91.7133H122.586C122.571 91.7133 122.564 91.706 122.564 91.6915V67.3114C122.564 67.293 122.573 67.2839 122.592 67.2839C124.496 67.2803 126.397 67.2803 128.293 67.2839C129.702 67.2865 130.979 67.6139 132.084 68.4906C133.539 69.6467 134.12 71.3821 134.124 73.2024C134.127 74.1077 134.129 75.0133 134.13 75.9191C134.131 76.5586 134.063 77.1796 133.927 77.7824C133.315 80.4779 131.071 81.9512 128.394 81.9414C127.737 81.9391 127.08 81.9397 126.424 81.9432C126.404 81.9432 126.394 81.9533 126.394 81.9734ZM130.095 72.0569C129.818 71.3759 129.259 71.1479 128.56 71.1355C127.843 71.1231 127.127 71.1186 126.411 71.1222C126.407 71.1222 126.402 71.124 126.399 71.1272C126.396 71.1305 126.394 71.1349 126.394 71.1395V78.0712C126.394 78.0901 126.403 78.0996 126.422 78.0996C127.028 78.1058 127.634 78.1098 128.24 78.1116C129.106 78.1142 129.942 77.9155 130.176 76.9595C130.238 76.7079 130.284 76.4262 130.288 76.152C130.3 75.087 130.299 74.0225 130.286 72.9584C130.282 72.6599 130.218 72.3595 130.095 72.0569Z" fill="#1A1A1A"/>
<path d="M140.83 91.9311C139.258 91.7377 137.894 90.9844 137.018 89.6455C136.261 88.4881 136.041 87.2069 136.04 85.8454C136.038 79.665 136.038 73.4848 136.04 67.3047C136.04 67.2897 136.047 67.2821 136.062 67.2821H139.845C139.861 67.2821 139.868 67.2898 139.868 67.3052C139.869 73.5187 139.867 79.732 139.863 85.9452C139.862 86.7815 139.966 87.7912 140.938 88.0445C141.58 88.2113 142.57 88.2361 143.132 87.828C143.789 87.3511 143.768 86.3423 143.768 85.5921C143.769 79.4942 143.769 73.3965 143.768 67.299C143.768 67.2877 143.774 67.2821 143.785 67.2821H147.58C147.585 67.2821 147.589 67.2841 147.593 67.2877C147.596 67.2913 147.598 67.2961 147.598 67.3012C147.599 73.5165 147.6 79.7348 147.6 85.9563C147.601 87.5889 147.167 89.0821 146.096 90.3128C145.927 90.5071 145.719 90.6946 145.472 90.8753C144.119 91.8668 142.476 92.1339 140.83 91.9311Z" fill="#1A1A1A"/>
<path d="M171.171 77.2461V67.2994C171.171 67.2948 171.172 67.2904 171.176 67.2872C171.179 67.2839 171.183 67.2821 171.188 67.2821H174.983C174.987 67.2821 174.992 67.2839 174.995 67.2872C174.998 67.2904 175 67.2948 175 67.2994V91.696C175 91.7006 174.998 91.705 174.995 91.7082C174.992 91.7115 174.987 91.7133 174.983 91.7133H171.188C171.183 91.7133 171.179 91.7115 171.176 91.7082C171.172 91.705 171.171 91.7006 171.171 91.696V81.1194C171.171 81.1148 171.169 81.1104 171.166 81.1072C171.162 81.1039 171.158 81.1021 171.153 81.1021L167.286 81.103C167.281 81.103 167.277 81.1048 167.274 81.1081C167.27 81.1113 167.269 81.1157 167.269 81.1203V91.6955C167.269 91.7001 167.267 91.7045 167.264 91.7078C167.26 91.711 167.256 91.7129 167.251 91.7129L163.455 91.7133C163.451 91.7133 163.446 91.7115 163.443 91.7082C163.44 91.705 163.438 91.7006 163.438 91.696V67.2994C163.438 67.2948 163.44 67.2904 163.443 67.2872C163.446 67.2839 163.451 67.2821 163.455 67.2821L167.251 67.2826C167.256 67.2826 167.26 67.2844 167.264 67.2876C167.267 67.2909 167.269 67.2953 167.269 67.2999V77.2461C167.269 77.2506 167.27 77.255 167.274 77.2583C167.277 77.2615 167.281 77.2634 167.286 77.2634H171.153C171.158 77.2634 171.162 77.2615 171.166 77.2583C171.169 77.255 171.171 77.2506 171.171 77.2461Z" fill="#1A1A1A"/>
<path d="M71.902 81.9744V91.7063C71.902 91.7163 71.897 91.7214 71.8869 91.7214H68.0257C68.0086 91.7214 68 91.7128 68 91.6956V67.3124C68 67.2985 68.0069 67.2915 68.0208 67.2915C69.9981 67.2886 71.9726 67.2871 73.9446 67.2871C74.6507 67.2874 75.3295 67.3878 75.981 67.5883C77.6191 68.0932 78.9336 69.3739 79.4554 71.0052C79.6434 71.5925 79.7511 72.2101 79.7785 72.8578C79.7823 72.9477 79.785 73.2433 79.7865 73.7446C79.7888 74.5431 79.7871 75.3416 79.7812 76.1402C79.7533 79.7309 77.3716 82.0041 73.7901 81.9473C73.4062 81.9414 72.7839 81.9433 71.9232 81.9531C71.9091 81.9531 71.902 81.9602 71.902 81.9744ZM75.0436 71.3454C74.5625 71.1298 74.184 71.132 73.5573 71.128C73.0129 71.1248 72.4679 71.1252 71.9223 71.1294C71.9088 71.1294 71.902 71.1362 71.902 71.1498V78.0811C71.902 78.0973 71.9101 78.1056 71.9263 78.1059C72.5979 78.1118 73.2695 78.1114 73.941 78.1046C74.265 78.1015 74.5536 78.0713 74.8316 77.9799C75.7384 77.6831 75.8774 76.7666 75.8796 75.9184C75.8823 75.0199 75.8818 74.1215 75.8783 73.2233C75.8756 72.569 75.7256 71.6515 75.0436 71.3454Z" fill="#1A1A1A"/>
<path d="M86.6697 91.9424C84.504 91.6975 82.7735 90.4118 82.083 88.2993C81.8307 87.5269 81.7426 86.751 81.7422 85.9112C81.7392 79.7128 81.7389 73.5142 81.7413 67.3155C81.7416 67.2987 81.7502 67.2903 81.767 67.2903H85.6265C85.6403 67.2903 85.6473 67.2972 85.6473 67.3111C85.6473 73.6337 85.6476 79.9558 85.6481 86.2772C85.6481 86.3792 85.6628 86.5154 85.692 86.6858C85.8252 87.4617 86.081 87.9399 86.9339 88.0943C87.4571 88.1892 87.9573 88.1795 88.4348 88.065C89.4842 87.8135 89.6338 86.8215 89.6329 85.9116C89.6267 79.7121 89.6231 73.5126 89.6223 67.3133C89.6223 67.3103 89.6229 67.3073 89.624 67.3045C89.6252 67.3017 89.6269 67.2992 89.629 67.297C89.6311 67.2949 89.6337 67.2932 89.6365 67.292C89.6393 67.2909 89.6423 67.2903 89.6453 67.2903H93.5065C93.5219 67.2903 93.5295 67.2979 93.5295 67.3133C93.5304 73.6351 93.5303 79.9565 93.5291 86.2776C93.5291 86.8495 93.4074 87.5571 93.2303 88.1254C92.6116 90.1105 91.2892 91.3433 89.2633 91.8239C88.4246 92.0227 87.5274 92.0395 86.6697 91.9424Z" fill="#1A1A1A"/>
<path d="M100.102 81.9326V91.7009C100.102 91.7151 100.095 91.7222 100.081 91.7222H96.2177C96.2032 91.7222 96.196 91.7149 96.196 91.7004V67.3141C96.196 67.3014 96.2023 67.295 96.215 67.295C99.3427 67.2838 101.406 67.2845 102.406 67.2972C103.404 67.3096 104.342 67.5575 105.218 68.0407C106.883 68.9591 107.775 70.5974 107.948 72.4487C107.967 72.6453 107.978 72.9408 107.982 73.335C107.994 74.6857 107.993 75.6728 107.978 76.2963C107.934 78.1506 107.196 79.8391 105.662 80.9295C105.65 80.9384 105.645 80.9504 105.648 80.9655L107.877 91.7102L107.877 91.7146L107.875 91.7186L107.872 91.7213L107.867 91.7222H103.922C103.908 91.7222 103.9 91.7158 103.898 91.7031L101.881 81.9295C101.88 81.9247 101.878 81.9204 101.874 81.9174C101.87 81.9143 101.865 81.9126 101.86 81.9126L100.122 81.9122C100.109 81.9122 100.102 81.919 100.102 81.9326ZM103.826 71.9527C103.429 71.1129 102.528 71.1324 101.745 71.1289C101.206 71.1265 100.665 71.1266 100.124 71.1293C100.109 71.1293 100.102 71.1365 100.102 71.151V78.0482C100.102 78.0621 100.109 78.069 100.123 78.069C101.047 78.0782 101.785 78.0774 102.337 78.0668C102.732 78.0593 103.227 77.9341 103.529 77.6689C103.909 77.337 104.049 76.7275 104.071 76.2275C104.092 75.7581 104.092 74.6869 104.071 73.0138C104.066 72.643 103.985 72.2892 103.826 71.9527Z" fill="#1A1A1A"/>
<path d="M114.2 81.1266V87.8645C114.2 87.8691 114.202 87.8735 114.205 87.8767C114.208 87.88 114.213 87.8818 114.217 87.8818H120.576C120.581 87.8818 120.585 87.8836 120.588 87.8869C120.592 87.8901 120.593 87.8945 120.593 87.8991V91.7041C120.593 91.7087 120.592 91.7131 120.588 91.7164C120.585 91.7196 120.581 91.7214 120.576 91.7214H110.311C110.307 91.7214 110.302 91.7196 110.299 91.7164C110.296 91.7131 110.294 91.7087 110.294 91.7041V67.3076C110.294 67.303 110.296 67.2986 110.299 67.2953C110.302 67.2921 110.307 67.2903 110.311 67.2903H120.576C120.581 67.2903 120.585 67.2921 120.588 67.2953C120.592 67.2986 120.593 67.303 120.593 67.3076V71.1104C120.593 71.1149 120.592 71.1193 120.588 71.1226C120.585 71.1258 120.581 71.1277 120.576 71.1277H114.217C114.213 71.1277 114.208 71.1295 114.205 71.1327C114.202 71.136 114.2 71.1404 114.2 71.145V77.2546C114.2 77.2592 114.202 77.2636 114.205 77.2669C114.208 77.2701 114.213 77.2719 114.217 77.2719H118.586C118.59 77.2719 118.595 77.2738 118.598 77.277C118.601 77.2803 118.603 77.2847 118.603 77.2892V81.092C118.603 81.0966 118.601 81.101 118.598 81.1043C118.595 81.1075 118.59 81.1093 118.586 81.1093H114.217C114.213 81.1093 114.208 81.1112 114.205 81.1144C114.202 81.1177 114.2 81.1221 114.2 81.1266Z" fill="#1A1A1A"/>
<path d="M154.685 91.9549C151.38 91.6439 149.646 89.1645 149.649 85.9894C149.65 84.9365 149.651 83.8845 149.653 82.8334C149.653 82.8213 149.659 82.8152 149.671 82.8152H153.467C153.471 82.8152 153.475 82.8171 153.479 82.8203C153.482 82.8235 153.484 82.8279 153.484 82.8325C153.484 83.8709 153.483 84.9112 153.483 85.9535C153.482 86.7094 153.591 87.6197 154.353 87.9596C154.996 88.2462 156.192 88.255 156.768 87.8118C157.222 87.4627 157.346 86.8611 157.372 86.3106C157.385 86.0418 157.388 85.5835 157.382 84.9358C157.378 84.4596 157.37 84.1642 157.358 84.0494C157.307 83.5383 157.153 83.0687 156.894 82.6404C156.618 82.1823 156.316 81.8274 155.989 81.5757C155.842 81.4622 155.535 81.2744 155.071 81.0123C154.591 80.7423 154.114 80.4696 153.638 80.1943C152.632 79.6136 151.818 78.9552 151.085 77.9641C150.297 76.8991 149.835 75.722 149.696 74.4328C149.633 73.8499 149.638 73.141 149.662 72.5811C149.77 70.0915 151.083 67.8791 153.604 67.2327C154.705 66.9506 155.821 66.925 156.953 67.156C159.805 67.7385 161.215 70.1993 161.215 72.9799C161.215 73.6918 161.213 74.4038 161.21 75.116C161.21 75.1293 161.203 75.136 161.19 75.136L157.407 75.1355C157.403 75.1355 157.4 75.1349 157.397 75.1336C157.394 75.1323 157.391 75.1304 157.389 75.128C157.386 75.1256 157.384 75.1228 157.383 75.1197C157.382 75.1165 157.381 75.1132 157.381 75.1098C157.382 74.3518 157.381 73.5953 157.377 72.8402C157.373 72.0048 157.139 71.1407 156.222 70.933C155.733 70.8224 155.242 70.8137 154.75 70.9069C153.364 71.169 153.452 72.7133 153.495 73.7785C153.518 74.3876 153.689 74.939 154.011 75.4652C154.235 75.8307 154.498 76.1356 154.8 76.3799C154.988 76.5316 155.286 76.7202 155.693 76.9456C156.338 77.3034 156.847 77.5921 157.22 77.8115C157.671 78.0773 158.166 78.4038 158.561 78.7418C160.24 80.1801 161.194 82.1365 161.207 84.3702C161.214 85.6824 161.277 86.7369 160.991 87.8793C160.229 90.9221 157.658 92.2348 154.685 91.9549Z" stroke="#E6E2DE" stroke-width="16" stroke-linejoin="round" mask="url(#path-4-outside-1_1195_468)"/>
<path d="M126.394 81.9734V91.6893C126.394 91.7053 126.386 91.7133 126.37 91.7133H122.586C122.571 91.7133 122.564 91.706 122.564 91.6915V67.3114C122.564 67.293 122.573 67.2839 122.592 67.2839C124.496 67.2803 126.397 67.2803 128.293 67.2839C129.702 67.2865 130.979 67.6139 132.084 68.4906C133.539 69.6467 134.12 71.3821 134.124 73.2024C134.127 74.1077 134.129 75.0133 134.13 75.9191C134.131 76.5586 134.063 77.1796 133.927 77.7824C133.315 80.4779 131.071 81.9512 128.394 81.9414C127.737 81.9391 127.08 81.9397 126.424 81.9432C126.404 81.9432 126.394 81.9533 126.394 81.9734ZM130.095 72.0569C129.818 71.3759 129.259 71.1479 128.56 71.1355C127.843 71.1231 127.127 71.1186 126.411 71.1222C126.407 71.1222 126.402 71.124 126.399 71.1272C126.396 71.1305 126.394 71.1349 126.394 71.1395V78.0712C126.394 78.0901 126.403 78.0996 126.422 78.0996C127.028 78.1058 127.634 78.1098 128.24 78.1116C129.106 78.1142 129.942 77.9155 130.176 76.9595C130.238 76.7079 130.284 76.4262 130.288 76.152C130.3 75.087 130.299 74.0225 130.286 72.9584C130.282 72.6599 130.218 72.3595 130.095 72.0569Z" stroke="#E6E2DE" stroke-width="16" stroke-linejoin="round" mask="url(#path-4-outside-1_1195_468)"/>
<path d="M140.83 91.9311C139.258 91.7377 137.894 90.9844 137.018 89.6455C136.261 88.4881 136.041 87.2069 136.04 85.8454C136.038 79.665 136.038 73.4848 136.04 67.3047C136.04 67.2897 136.047 67.2821 136.062 67.2821H139.845C139.861 67.2821 139.868 67.2898 139.868 67.3052C139.869 73.5187 139.867 79.732 139.863 85.9452C139.862 86.7815 139.966 87.7912 140.938 88.0445C141.58 88.2113 142.57 88.2361 143.132 87.828C143.789 87.3511 143.768 86.3423 143.768 85.5921C143.769 79.4942 143.769 73.3965 143.768 67.299C143.768 67.2877 143.774 67.2821 143.785 67.2821H147.58C147.585 67.2821 147.589 67.2841 147.593 67.2877C147.596 67.2913 147.598 67.2961 147.598 67.3012C147.599 73.5165 147.6 79.7348 147.6 85.9563C147.601 87.5889 147.167 89.0821 146.096 90.3128C145.927 90.5071 145.719 90.6946 145.472 90.8753C144.119 91.8668 142.476 92.1339 140.83 91.9311Z" stroke="#E6E2DE" stroke-width="16" stroke-linejoin="round" mask="url(#path-4-outside-1_1195_468)"/>
<path d="M171.171 77.2461V67.2994C171.171 67.2948 171.172 67.2904 171.176 67.2872C171.179 67.2839 171.183 67.2821 171.188 67.2821H174.983C174.987 67.2821 174.992 67.2839 174.995 67.2872C174.998 67.2904 175 67.2948 175 67.2994V91.696C175 91.7006 174.998 91.705 174.995 91.7082C174.992 91.7115 174.987 91.7133 174.983 91.7133H171.188C171.183 91.7133 171.179 91.7115 171.176 91.7082C171.172 91.705 171.171 91.7006 171.171 91.696V81.1194C171.171 81.1148 171.169 81.1104 171.166 81.1072C171.162 81.1039 171.158 81.1021 171.153 81.1021L167.286 81.103C167.281 81.103 167.277 81.1048 167.274 81.1081C167.27 81.1113 167.269 81.1157 167.269 81.1203V91.6955C167.269 91.7001 167.267 91.7045 167.264 91.7078C167.26 91.711 167.256 91.7129 167.251 91.7129L163.455 91.7133C163.451 91.7133 163.446 91.7115 163.443 91.7082C163.44 91.705 163.438 91.7006 163.438 91.696V67.2994C163.438 67.2948 163.44 67.2904 163.443 67.2872C163.446 67.2839 163.451 67.2821 163.455 67.2821L167.251 67.2826C167.256 67.2826 167.26 67.2844 167.264 67.2876C167.267 67.2909 167.269 67.2953 167.269 67.2999V77.2461C167.269 77.2506 167.27 77.255 167.274 77.2583C167.277 77.2615 167.281 77.2634 167.286 77.2634H171.153C171.158 77.2634 171.162 77.2615 171.166 77.2583C171.169 77.255 171.171 77.2506 171.171 77.2461Z" stroke="#E6E2DE" stroke-width="16" stroke-linejoin="round" mask="url(#path-4-outside-1_1195_468)"/>
<path d="M71.902 81.9744V91.7063C71.902 91.7163 71.897 91.7214 71.8869 91.7214H68.0257C68.0086 91.7214 68 91.7128 68 91.6956V67.3124C68 67.2985 68.0069 67.2915 68.0208 67.2915C69.9981 67.2886 71.9726 67.2871 73.9446 67.2871C74.6507 67.2874 75.3295 67.3878 75.981 67.5883C77.6191 68.0932 78.9336 69.3739 79.4554 71.0052C79.6434 71.5925 79.7511 72.2101 79.7785 72.8578C79.7823 72.9477 79.785 73.2433 79.7865 73.7446C79.7888 74.5431 79.7871 75.3416 79.7812 76.1402C79.7533 79.7309 77.3716 82.0041 73.7901 81.9473C73.4062 81.9414 72.7839 81.9433 71.9232 81.9531C71.9091 81.9531 71.902 81.9602 71.902 81.9744ZM75.0436 71.3454C74.5625 71.1298 74.184 71.132 73.5573 71.128C73.0129 71.1248 72.4679 71.1252 71.9223 71.1294C71.9088 71.1294 71.902 71.1362 71.902 71.1498V78.0811C71.902 78.0973 71.9101 78.1056 71.9263 78.1059C72.5979 78.1118 73.2695 78.1114 73.941 78.1046C74.265 78.1015 74.5536 78.0713 74.8316 77.9799C75.7384 77.6831 75.8774 76.7666 75.8796 75.9184C75.8823 75.0199 75.8818 74.1215 75.8783 73.2233C75.8756 72.569 75.7256 71.6515 75.0436 71.3454Z" stroke="#E6E2DE" stroke-width="16" stroke-linejoin="round" mask="url(#path-4-outside-1_1195_468)"/>
<path d="M86.6697 91.9424C84.504 91.6975 82.7735 90.4118 82.083 88.2993C81.8307 87.5269 81.7426 86.751 81.7422 85.9112C81.7392 79.7128 81.7389 73.5142 81.7413 67.3155C81.7416 67.2987 81.7502 67.2903 81.767 67.2903H85.6265C85.6403 67.2903 85.6473 67.2972 85.6473 67.3111C85.6473 73.6337 85.6476 79.9558 85.6481 86.2772C85.6481 86.3792 85.6628 86.5154 85.692 86.6858C85.8252 87.4617 86.081 87.9399 86.9339 88.0943C87.4571 88.1892 87.9573 88.1795 88.4348 88.065C89.4842 87.8135 89.6338 86.8215 89.6329 85.9116C89.6267 79.7121 89.6231 73.5126 89.6223 67.3133C89.6223 67.3103 89.6229 67.3073 89.624 67.3045C89.6252 67.3017 89.6269 67.2992 89.629 67.297C89.6311 67.2949 89.6337 67.2932 89.6365 67.292C89.6393 67.2909 89.6423 67.2903 89.6453 67.2903H93.5065C93.5219 67.2903 93.5295 67.2979 93.5295 67.3133C93.5304 73.6351 93.5303 79.9565 93.5291 86.2776C93.5291 86.8495 93.4074 87.5571 93.2303 88.1254C92.6116 90.1105 91.2892 91.3433 89.2633 91.8239C88.4246 92.0227 87.5274 92.0395 86.6697 91.9424Z" stroke="#E6E2DE" stroke-width="16" stroke-linejoin="round" mask="url(#path-4-outside-1_1195_468)"/>
<path d="M100.102 81.9326V91.7009C100.102 91.7151 100.095 91.7222 100.081 91.7222H96.2177C96.2032 91.7222 96.196 91.7149 96.196 91.7004V67.3141C96.196 67.3014 96.2023 67.295 96.215 67.295C99.3427 67.2838 101.406 67.2845 102.406 67.2972C103.404 67.3096 104.342 67.5575 105.218 68.0407C106.883 68.9591 107.775 70.5974 107.948 72.4487C107.967 72.6453 107.978 72.9408 107.982 73.335C107.994 74.6857 107.993 75.6728 107.978 76.2963C107.934 78.1506 107.196 79.8391 105.662 80.9295C105.65 80.9384 105.645 80.9504 105.648 80.9655L107.877 91.7102L107.877 91.7146L107.875 91.7186L107.872 91.7213L107.867 91.7222H103.922C103.908 91.7222 103.9 91.7158 103.898 91.7031L101.881 81.9295C101.88 81.9247 101.878 81.9204 101.874 81.9174C101.87 81.9143 101.865 81.9126 101.86 81.9126L100.122 81.9122C100.109 81.9122 100.102 81.919 100.102 81.9326ZM103.826 71.9527C103.429 71.1129 102.528 71.1324 101.745 71.1289C101.206 71.1265 100.665 71.1266 100.124 71.1293C100.109 71.1293 100.102 71.1365 100.102 71.151V78.0482C100.102 78.0621 100.109 78.069 100.123 78.069C101.047 78.0782 101.785 78.0774 102.337 78.0668C102.732 78.0593 103.227 77.9341 103.529 77.6689C103.909 77.337 104.049 76.7275 104.071 76.2275C104.092 75.7581 104.092 74.6869 104.071 73.0138C104.066 72.643 103.985 72.2892 103.826 71.9527Z" stroke="#E6E2DE" stroke-width="16" stroke-linejoin="round" mask="url(#path-4-outside-1_1195_468)"/>
<path d="M114.2 81.1266V87.8645C114.2 87.8691 114.202 87.8735 114.205 87.8767C114.208 87.88 114.213 87.8818 114.217 87.8818H120.576C120.581 87.8818 120.585 87.8836 120.588 87.8869C120.592 87.8901 120.593 87.8945 120.593 87.8991V91.7041C120.593 91.7087 120.592 91.7131 120.588 91.7164C120.585 91.7196 120.581 91.7214 120.576 91.7214H110.311C110.307 91.7214 110.302 91.7196 110.299 91.7164C110.296 91.7131 110.294 91.7087 110.294 91.7041V67.3076C110.294 67.303 110.296 67.2986 110.299 67.2953C110.302 67.2921 110.307 67.2903 110.311 67.2903H120.576C120.581 67.2903 120.585 67.2921 120.588 67.2953C120.592 67.2986 120.593 67.303 120.593 67.3076V71.1104C120.593 71.1149 120.592 71.1193 120.588 71.1226C120.585 71.1258 120.581 71.1277 120.576 71.1277H114.217C114.213 71.1277 114.208 71.1295 114.205 71.1327C114.202 71.136 114.2 71.1404 114.2 71.145V77.2546C114.2 77.2592 114.202 77.2636 114.205 77.2669C114.208 77.2701 114.213 77.2719 114.217 77.2719H118.586C118.59 77.2719 118.595 77.2738 118.598 77.277C118.601 77.2803 118.603 77.2847 118.603 77.2892V81.092C118.603 81.0966 118.601 81.101 118.598 81.1043C118.595 81.1075 118.59 81.1093 118.586 81.1093H114.217C114.213 81.1093 114.208 81.1112 114.205 81.1144C114.202 81.1177 114.2 81.1221 114.2 81.1266Z" stroke="#E6E2DE" stroke-width="16" stroke-linejoin="round" mask="url(#path-4-outside-1_1195_468)"/>
</svg>
