<svg width="242" height="240" viewBox="0 0 242 240" fill="none" xmlns="http://www.w3.org/2000/svg">
<rect y="80" width="242" height="160" rx="12" fill="#E6E2DE"/>
<path d="M101.047 155H98.6152V143.512H103.111C106.007 143.512 107.687 144.856 107.687 147.24C107.687 148.792 106.727 150.024 105.095 150.568L108.055 155H105.159L102.567 150.936H101.047V155ZM101.047 145.528V148.936H102.999C104.471 148.936 105.255 148.36 105.255 147.24C105.255 146.104 104.471 145.528 102.999 145.528H101.047ZM112.569 155.144C110.009 155.144 108.297 153.368 108.297 150.696C108.297 148.152 110.073 146.296 112.537 146.296C115.241 146.296 117.033 148.488 116.633 151.272H110.569C110.713 152.664 111.385 153.432 112.521 153.432C113.497 153.432 114.153 152.952 114.409 152.104H116.617C116.137 154.04 114.649 155.144 112.569 155.144ZM112.489 147.928C111.449 147.928 110.793 148.6 110.601 149.864H114.281C114.217 148.68 113.545 147.928 112.489 147.928ZM120.187 150.344V155H117.963V146.456H120.011V147.672C120.635 146.824 121.515 146.296 122.635 146.296C124.347 146.296 125.531 147.416 125.531 149.48V155H123.323V150.232C123.323 148.968 122.827 148.264 121.819 148.264C120.939 148.264 120.187 148.968 120.187 150.344ZM132.537 152.84V154.776C131.993 155.048 131.481 155.16 130.825 155.16C129.065 155.16 127.961 154.152 127.961 152.232V148.36H126.233V146.456H127.961V143.928H130.169V146.456H132.617V148.36H130.169V151.72C130.169 152.712 130.617 153.112 131.417 153.112C131.833 153.112 132.217 153.016 132.537 152.84ZM136.055 155H133.815V143.512H136.055V155ZM145.585 146.456L141.425 158.088H139.009L140.225 154.904L136.865 146.456H139.265L141.409 152.312L143.361 146.456H145.585Z" fill="#1A1A1A"/>
<path d="M91.6629 175L90.7529 172.508H86.4129L85.4889 175H83.9349L87.7849 164.948H89.4789L93.3009 175H91.6629ZM88.5969 166.628L86.8749 171.262H90.2909L88.5969 166.628ZM101.378 171.29C101.378 173.53 100.09 175.14 98.1023 175.14C97.0943 175.14 96.2403 174.636 95.7083 173.74V177.702H94.2943V167.58H95.6103V168.938C96.1423 167.986 97.0523 167.44 98.1023 167.44C100.076 167.44 101.378 169.05 101.378 171.29ZM99.9083 171.29C99.9083 169.624 99.0263 168.686 97.8083 168.686C96.6323 168.686 95.7083 169.624 95.7083 171.29C95.7083 172.928 96.6183 173.88 97.8083 173.88C99.0263 173.88 99.9083 172.956 99.9083 171.29ZM109.616 171.29C109.616 173.53 108.328 175.14 106.34 175.14C105.332 175.14 104.478 174.636 103.946 173.74V177.702H102.532V167.58H103.848V168.938C104.38 167.986 105.29 167.44 106.34 167.44C108.314 167.44 109.616 169.05 109.616 171.29ZM108.146 171.29C108.146 169.624 107.264 168.686 106.046 168.686C104.87 168.686 103.946 169.624 103.946 171.29C103.946 172.928 104.856 173.88 106.046 173.88C107.264 173.88 108.146 172.956 108.146 171.29ZM116.705 175H113.527V164.948H116.705C119.911 164.948 121.759 166.992 121.759 169.932C121.759 172.83 119.841 175 116.705 175ZM115.067 166.278V173.67H116.635C118.945 173.67 120.191 172.242 120.191 169.932C120.191 167.664 118.959 166.278 116.635 166.278H115.067ZM126.031 175.14C123.889 175.14 122.447 173.586 122.447 171.248C122.447 169.05 123.945 167.44 125.989 167.44C128.201 167.44 129.671 169.232 129.419 171.64H123.889C124.001 173.152 124.757 174.034 126.003 174.034C127.053 174.034 127.781 173.46 128.019 172.494H129.419C129.055 174.146 127.781 175.14 126.031 175.14ZM125.961 168.504C124.827 168.504 124.057 169.316 123.903 170.702H127.921C127.851 169.33 127.109 168.504 125.961 168.504ZM136.522 172.788C136.522 174.244 135.388 175.14 133.414 175.14C131.454 175.14 130.292 174.174 130.152 172.578H131.51C131.566 173.502 132.308 174.076 133.442 174.076C134.436 174.076 135.094 173.726 135.094 173.026C135.094 172.41 134.716 172.144 133.792 171.962L132.588 171.738C131.216 171.472 130.446 170.772 130.446 169.652C130.446 168.35 131.58 167.44 133.302 167.44C135.08 167.44 136.284 168.392 136.41 169.918H135.052C134.968 169.022 134.31 168.504 133.316 168.504C132.42 168.504 131.818 168.882 131.818 169.526C131.818 170.128 132.196 170.408 133.092 170.576L134.352 170.814C135.822 171.08 136.522 171.724 136.522 172.788ZM139.508 165.858C139.508 166.39 139.088 166.796 138.486 166.796C137.884 166.796 137.45 166.39 137.45 165.858C137.45 165.312 137.884 164.92 138.486 164.92C139.088 164.92 139.508 165.312 139.508 165.858ZM139.2 175H137.786V167.58H139.2V175ZM143.851 177.856C141.905 177.856 140.645 176.82 140.561 175.14H141.933C142.017 176.176 142.689 176.736 143.837 176.736C145.111 176.736 145.783 176.05 145.783 174.776V173.432C145.363 174.328 144.523 174.846 143.515 174.846C141.667 174.846 140.351 173.32 140.351 171.136C140.351 168.924 141.611 167.44 143.473 167.44C144.537 167.44 145.377 167.958 145.881 168.896V167.58H147.197V174.748C147.197 176.694 145.951 177.856 143.851 177.856ZM141.779 171.136C141.779 172.676 142.535 173.614 143.767 173.614C144.971 173.614 145.783 172.648 145.783 171.178C145.783 169.638 144.985 168.658 143.767 168.658C142.549 168.658 141.779 169.61 141.779 171.136ZM150.289 170.814V175H148.875V167.58H150.191V168.812C150.695 167.986 151.535 167.44 152.557 167.44C154.083 167.44 155.091 168.42 155.091 170.198V175H153.677V170.674C153.677 169.4 153.117 168.686 152.067 168.686C151.101 168.686 150.289 169.498 150.289 170.814ZM158.606 174.398C158.606 175.728 157.556 176.764 156.016 176.792V175.994C156.926 175.966 157.542 175.476 157.626 174.79C157.5 174.832 157.416 174.846 157.318 174.846C156.786 174.846 156.394 174.412 156.394 173.894C156.394 173.292 156.842 172.9 157.416 172.9C158.186 172.9 158.606 173.46 158.606 174.398ZM79.8399 192L77.7119 184.118L75.5699 192H73.9879L71.3699 181.948H72.8819L74.8139 189.69L76.9279 181.948H78.5239L80.6099 189.704L82.5419 181.948H84.0539L81.4359 192H79.8399ZM87.461 192.14C85.319 192.14 83.877 190.586 83.877 188.248C83.877 186.05 85.375 184.44 87.419 184.44C89.631 184.44 91.101 186.232 90.849 188.64H85.319C85.431 190.152 86.187 191.034 87.433 191.034C88.483 191.034 89.211 190.46 89.449 189.494H90.849C90.485 191.146 89.211 192.14 87.461 192.14ZM87.391 185.504C86.257 185.504 85.487 186.316 85.333 187.702H89.351C89.281 186.33 88.539 185.504 87.391 185.504ZM99.1564 188.29C99.1564 190.516 97.8684 192.14 95.8664 192.14C94.8164 192.14 93.9204 191.608 93.3884 190.67V192H92.0724V181.948H93.4864V185.854C94.0044 184.944 94.8584 184.44 95.8664 184.44C97.8544 184.44 99.1564 186.036 99.1564 188.29ZM97.6864 188.29C97.6864 186.61 96.8044 185.686 95.5864 185.686C94.4104 185.686 93.4864 186.596 93.4864 188.262C93.4864 189.9 94.3824 190.88 95.5864 190.88C96.8044 190.88 97.6864 189.942 97.6864 188.29ZM106.19 189.788C106.19 191.244 105.056 192.14 103.082 192.14C101.122 192.14 99.96 191.174 99.82 189.578H101.178C101.234 190.502 101.976 191.076 103.11 191.076C104.104 191.076 104.762 190.726 104.762 190.026C104.762 189.41 104.384 189.144 103.46 188.962L102.256 188.738C100.884 188.472 100.114 187.772 100.114 186.652C100.114 185.35 101.248 184.44 102.97 184.44C104.748 184.44 105.952 185.392 106.078 186.918H104.72C104.636 186.022 103.978 185.504 102.984 185.504C102.088 185.504 101.486 185.882 101.486 186.526C101.486 187.128 101.864 187.408 102.76 187.576L104.02 187.814C105.49 188.08 106.19 188.724 106.19 189.788ZM109.176 182.858C109.176 183.39 108.756 183.796 108.154 183.796C107.552 183.796 107.118 183.39 107.118 182.858C107.118 182.312 107.552 181.92 108.154 181.92C108.756 181.92 109.176 182.312 109.176 182.858ZM108.868 192H107.454V184.58H108.868V192ZM114.737 190.628V191.874C114.303 192.07 113.925 192.14 113.477 192.14C112.105 192.14 111.153 191.398 111.153 189.76V185.784H109.515V184.58H111.153V182.382H112.567V184.58H114.807V185.784H112.567V189.438C112.567 190.46 113.057 190.824 113.813 190.824C114.149 190.824 114.443 190.768 114.737 190.628ZM118.723 192.14C116.581 192.14 115.139 190.586 115.139 188.248C115.139 186.05 116.637 184.44 118.681 184.44C120.893 184.44 122.363 186.232 122.111 188.64H116.581C116.693 190.152 117.449 191.034 118.695 191.034C119.745 191.034 120.473 190.46 120.711 189.494H122.111C121.747 191.146 120.473 192.14 118.723 192.14ZM118.653 185.504C117.519 185.504 116.749 186.316 116.595 187.702H120.613C120.543 186.33 119.801 185.504 118.653 185.504ZM129.27 192H126.092V181.948H129.27C132.476 181.948 134.324 183.992 134.324 186.932C134.324 189.83 132.406 192 129.27 192ZM127.632 183.278V190.67H129.2C131.51 190.67 132.756 189.242 132.756 186.932C132.756 184.664 131.524 183.278 129.2 183.278H127.632ZM138.596 192.14C136.454 192.14 135.012 190.586 135.012 188.248C135.012 186.05 136.51 184.44 138.554 184.44C140.766 184.44 142.236 186.232 141.984 188.64H136.454C136.566 190.152 137.322 191.034 138.568 191.034C139.618 191.034 140.346 190.46 140.584 189.494H141.984C141.62 191.146 140.346 192.14 138.596 192.14ZM138.526 185.504C137.392 185.504 136.622 186.316 136.468 187.702H140.486C140.416 186.33 139.674 185.504 138.526 185.504ZM149.087 189.788C149.087 191.244 147.953 192.14 145.979 192.14C144.019 192.14 142.857 191.174 142.717 189.578H144.075C144.131 190.502 144.873 191.076 146.007 191.076C147.001 191.076 147.659 190.726 147.659 190.026C147.659 189.41 147.281 189.144 146.357 188.962L145.153 188.738C143.781 188.472 143.011 187.772 143.011 186.652C143.011 185.35 144.145 184.44 145.867 184.44C147.645 184.44 148.849 185.392 148.975 186.918H147.617C147.533 186.022 146.875 185.504 145.881 185.504C144.985 185.504 144.383 185.882 144.383 186.526C144.383 187.128 144.761 187.408 145.657 187.576L146.917 187.814C148.387 188.08 149.087 188.724 149.087 189.788ZM152.073 182.858C152.073 183.39 151.653 183.796 151.051 183.796C150.449 183.796 150.015 183.39 150.015 182.858C150.015 182.312 150.449 181.92 151.051 181.92C151.653 181.92 152.073 182.312 152.073 182.858ZM151.765 192H150.351V184.58H151.765V192ZM156.416 194.856C154.47 194.856 153.21 193.82 153.126 192.14H154.498C154.582 193.176 155.254 193.736 156.402 193.736C157.676 193.736 158.348 193.05 158.348 191.776V190.432C157.928 191.328 157.088 191.846 156.08 191.846C154.232 191.846 152.916 190.32 152.916 188.136C152.916 185.924 154.176 184.44 156.038 184.44C157.102 184.44 157.942 184.958 158.446 185.896V184.58H159.762V191.748C159.762 193.694 158.516 194.856 156.416 194.856ZM154.344 188.136C154.344 189.676 155.1 190.614 156.332 190.614C157.536 190.614 158.348 189.648 158.348 188.178C158.348 186.638 157.55 185.658 156.332 185.658C155.114 185.658 154.344 186.61 154.344 188.136ZM162.854 187.814V192H161.44V184.58H162.756V185.812C163.26 184.986 164.1 184.44 165.122 184.44C166.648 184.44 167.656 185.42 167.656 187.198V192H166.242V187.674C166.242 186.4 165.682 185.686 164.632 185.686C163.666 185.686 162.854 186.498 162.854 187.814ZM171.171 191.398C171.171 192.728 170.121 193.764 168.581 193.792V192.994C169.491 192.966 170.107 192.476 170.191 191.79C170.065 191.832 169.981 191.846 169.883 191.846C169.351 191.846 168.959 191.412 168.959 190.894C168.959 190.292 169.407 189.9 169.981 189.9C170.751 189.9 171.171 190.46 171.171 191.398Z" fill="#1A1A1A"/>
<mask id="path-4-outside-1_1195_183" maskUnits="userSpaceOnUse" x="79" y="60" width="84" height="41" fill="black">
<rect fill="white" x="79" y="60" width="84" height="41"/>
<path d="M154.947 72.8627C154.961 72.87 154.973 72.8806 154.982 72.8935C154.991 72.9063 154.997 72.9214 154.999 72.937C155.001 72.9523 155 72.968 154.995 72.9826C153.183 78.1407 151.365 83.306 149.54 88.4771C149.142 89.6039 148.752 90.6057 147.951 91.426C146.26 93.1574 143.586 93.3107 141.381 92.6063C141.33 92.59 141.313 92.5562 141.329 92.5055L142.204 89.6437C142.221 89.5894 142.258 89.5691 142.312 89.5832C144.051 90.0347 144.85 89.754 145.429 87.9931C145.443 87.9497 145.441 87.9037 145.427 87.8615L140.236 72.9731C140.216 72.9155 140.236 72.886 140.298 72.885L144.359 72.8627C144.428 72.8616 144.472 72.894 144.49 72.9603L147.493 83.5614C147.499 83.581 147.511 83.5979 147.527 83.6102C147.543 83.6225 147.563 83.6293 147.584 83.6293C147.604 83.6293 147.624 83.6225 147.64 83.6102C147.656 83.5979 147.668 83.5808 147.673 83.5614L150.709 72.9338C150.725 72.8787 150.762 72.8511 150.819 72.851H154.901C154.917 72.8512 154.933 72.8553 154.947 72.8627Z"/>
<path fill-rule="evenodd" clip-rule="evenodd" d="M95.9626 75.8922C97.8423 72.7533 101.997 71.8381 105.237 73.3902C108.215 74.817 109.049 78.0217 108.835 81.1476C108.832 81.1867 108.812 81.206 108.773 81.206L98.975 81.2166C98.9282 81.2166 98.9037 81.2399 98.9016 81.2866C98.8232 83.0247 99.7979 84.3731 101.504 84.7025C102.851 84.9632 104.375 84.5069 104.983 83.157C105.01 83.0983 105.056 83.0709 105.121 83.0752L108.657 83.3119C108.674 83.3132 108.69 83.3175 108.705 83.3257C108.719 83.3341 108.732 83.3459 108.742 83.3597C108.752 83.3736 108.758 83.3898 108.761 83.4064C108.764 83.423 108.763 83.4401 108.758 83.4563C108.165 85.4522 106.869 86.763 104.868 87.387C100.914 88.6196 96.4677 87.2083 95.2156 82.9606C94.5772 80.7887 94.7194 78.614 95.6434 76.4367C95.6706 76.3726 95.6503 76.3351 95.5817 76.3231C92.7604 75.8046 91.065 76.8871 91.052 79.7783C91.04 82.3209 91.04 84.8635 91.052 87.4061C91.0519 87.4604 91.0245 87.4878 90.97 87.4878L87.0787 87.4889C87.0266 87.4889 87.0001 87.4633 87 87.4114V72.9327C87 72.9111 87.0081 72.8896 87.0234 72.8743C87.0387 72.8591 87.0603 72.851 87.0819 72.851H90.8349C90.8849 72.851 90.9104 72.8764 90.9115 72.9264L90.9509 75.4028C90.9516 75.4176 90.957 75.4321 90.9668 75.4431C90.9767 75.4542 90.9905 75.4619 91.0051 75.4644C91.0197 75.4668 91.0348 75.464 91.0477 75.4569C91.0607 75.4497 91.0708 75.4378 91.0764 75.424C91.8425 73.2205 93.4186 72.3396 95.8041 72.782C95.8444 72.7896 95.8647 72.814 95.8647 72.8542L95.8743 75.8677C95.8742 75.8781 95.8776 75.8881 95.8839 75.8964C95.8902 75.9047 95.8993 75.9106 95.9094 75.9134C95.9193 75.916 95.9297 75.9161 95.9392 75.9123C95.9489 75.9084 95.9573 75.9011 95.9626 75.8922ZM101.956 75.7064C101.153 75.7082 100.383 76.0183 99.8156 76.5683C99.2483 77.1183 98.9302 77.863 98.9314 78.6393V78.6563C98.9314 78.6639 98.9344 78.671 98.9399 78.6764C98.9453 78.6819 98.9524 78.6848 98.9601 78.6849L105.021 78.6754C105.029 78.6754 105.037 78.6724 105.042 78.6669C105.048 78.6615 105.051 78.6543 105.051 78.6467V78.6297C105.05 78.2451 104.971 77.8639 104.818 77.5088C104.665 77.1538 104.441 76.8312 104.159 76.5598C103.877 76.2884 103.542 76.0737 103.174 75.9272C102.805 75.7807 102.41 75.7055 102.012 75.7064H101.956Z"/>
<path d="M131.974 69.346C132.044 69.346 132.08 69.3806 132.08 69.4511L132.059 72.7862C132.059 72.834 132.083 72.8574 132.131 72.8574L134.688 72.8478C134.721 72.8479 134.752 72.8609 134.775 72.8839C134.799 72.9071 134.812 72.9391 134.812 72.972V75.8274C134.812 75.8816 134.784 75.9091 134.73 75.9091H132.153C132.139 75.9091 132.126 75.9115 132.114 75.9166C132.102 75.9216 132.091 75.9286 132.082 75.9378C132.073 75.9471 132.066 75.9586 132.061 75.9707C132.056 75.9825 132.054 75.9952 132.055 76.0079C132.077 78.3526 132.084 80.6976 132.073 83.0423C132.066 84.5001 133.212 84.5967 134.353 84.3129C134.408 84.299 134.442 84.3203 134.454 84.3766L135.064 87.232C135.074 87.2776 135.055 87.3081 135.01 87.3233C132.033 88.2657 127.985 87.6114 127.985 83.623C127.986 81.0805 127.987 78.5376 127.989 75.9941C127.989 75.9375 127.96 75.9091 127.904 75.9091H126.067C126.013 75.9091 125.985 75.8816 125.985 75.8274V72.9317C125.985 72.9209 125.987 72.9098 125.992 72.8998C125.996 72.8897 126.002 72.8799 126.01 72.8722C126.017 72.8646 126.026 72.8583 126.036 72.8542C126.046 72.85 126.057 72.8478 126.068 72.8478L127.921 72.8574C127.968 72.8573 127.992 72.8339 127.992 72.7862L127.986 69.4479C127.985 69.3796 128.019 69.346 128.089 69.346H131.974Z"/>
<path d="M117.617 69.192C117.665 69.1443 117.713 69.1442 117.761 69.192L124.539 75.9537C124.58 75.9961 124.602 76.0469 124.602 76.1055L124.554 87.4029C124.554 87.4626 124.524 87.493 124.465 87.4942L120.66 87.5314C120.571 87.5324 120.527 87.4899 120.527 87.404L120.511 77.7253C120.511 77.6711 120.491 77.6243 120.453 77.5852L117.72 74.8604C117.713 74.8537 117.706 74.8481 117.697 74.8445C117.689 74.8409 117.68 74.8392 117.671 74.8392C117.661 74.8392 117.652 74.841 117.644 74.8445C117.635 74.8481 117.627 74.8537 117.621 74.8604L114.837 77.6383C114.819 77.6562 114.805 77.6781 114.795 77.702C114.786 77.7259 114.782 77.7517 114.784 77.7774C114.861 78.8747 114.77 80.1076 114.788 81.0435C114.831 83.1545 114.821 85.2725 114.761 87.3976C114.76 87.4585 114.73 87.4889 114.67 87.4878C113.406 87.4824 112.142 87.4834 110.878 87.4921C110.814 87.4932 110.783 87.4627 110.783 87.3997V76.0907C110.783 76.0376 110.802 75.9917 110.84 75.9527L117.617 69.192Z"/>
<path d="M139.916 68C139.939 68 139.958 68.019 139.958 68.0425V87.4443C139.958 87.4675 139.939 87.4857 139.916 87.4857H135.957C135.933 87.4855 135.915 87.4673 135.915 87.4443V68.0425C135.915 68.0192 135.933 68.0003 135.957 68H139.916Z"/>
</mask>
<path d="M154.947 72.8627C154.961 72.87 154.973 72.8806 154.982 72.8935C154.991 72.9063 154.997 72.9214 154.999 72.937C155.001 72.9523 155 72.968 154.995 72.9826C153.183 78.1407 151.365 83.306 149.54 88.4771C149.142 89.6039 148.752 90.6057 147.951 91.426C146.26 93.1574 143.586 93.3107 141.381 92.6063C141.33 92.59 141.313 92.5562 141.329 92.5055L142.204 89.6437C142.221 89.5894 142.258 89.5691 142.312 89.5832C144.051 90.0347 144.85 89.754 145.429 87.9931C145.443 87.9497 145.441 87.9037 145.427 87.8615L140.236 72.9731C140.216 72.9155 140.236 72.886 140.298 72.885L144.359 72.8627C144.428 72.8616 144.472 72.894 144.49 72.9603L147.493 83.5614C147.499 83.581 147.511 83.5979 147.527 83.6102C147.543 83.6225 147.563 83.6293 147.584 83.6293C147.604 83.6293 147.624 83.6225 147.64 83.6102C147.656 83.5979 147.668 83.5808 147.673 83.5614L150.709 72.9338C150.725 72.8787 150.762 72.8511 150.819 72.851H154.901C154.917 72.8512 154.933 72.8553 154.947 72.8627Z" fill="#1A1A1A"/>
<path fill-rule="evenodd" clip-rule="evenodd" d="M95.9626 75.8922C97.8423 72.7533 101.997 71.8381 105.237 73.3902C108.215 74.817 109.049 78.0217 108.835 81.1476C108.832 81.1867 108.812 81.206 108.773 81.206L98.975 81.2166C98.9282 81.2166 98.9037 81.2399 98.9016 81.2866C98.8232 83.0247 99.7979 84.3731 101.504 84.7025C102.851 84.9632 104.375 84.5069 104.983 83.157C105.01 83.0983 105.056 83.0709 105.121 83.0752L108.657 83.3119C108.674 83.3132 108.69 83.3175 108.705 83.3257C108.719 83.3341 108.732 83.3459 108.742 83.3597C108.752 83.3736 108.758 83.3898 108.761 83.4064C108.764 83.423 108.763 83.4401 108.758 83.4563C108.165 85.4522 106.869 86.763 104.868 87.387C100.914 88.6196 96.4677 87.2083 95.2156 82.9606C94.5772 80.7887 94.7194 78.614 95.6434 76.4367C95.6706 76.3726 95.6503 76.3351 95.5817 76.3231C92.7604 75.8046 91.065 76.8871 91.052 79.7783C91.04 82.3209 91.04 84.8635 91.052 87.4061C91.0519 87.4604 91.0245 87.4878 90.97 87.4878L87.0787 87.4889C87.0266 87.4889 87.0001 87.4633 87 87.4114V72.9327C87 72.9111 87.0081 72.8896 87.0234 72.8743C87.0387 72.8591 87.0603 72.851 87.0819 72.851H90.8349C90.8849 72.851 90.9104 72.8764 90.9115 72.9264L90.9509 75.4028C90.9516 75.4176 90.957 75.4321 90.9668 75.4431C90.9767 75.4542 90.9905 75.4619 91.0051 75.4644C91.0197 75.4668 91.0348 75.464 91.0477 75.4569C91.0607 75.4497 91.0708 75.4378 91.0764 75.424C91.8425 73.2205 93.4186 72.3396 95.8041 72.782C95.8444 72.7896 95.8647 72.814 95.8647 72.8542L95.8743 75.8677C95.8742 75.8781 95.8776 75.8881 95.8839 75.8964C95.8902 75.9047 95.8993 75.9106 95.9094 75.9134C95.9193 75.916 95.9297 75.9161 95.9392 75.9123C95.9489 75.9084 95.9573 75.9011 95.9626 75.8922ZM101.956 75.7064C101.153 75.7082 100.383 76.0183 99.8156 76.5683C99.2483 77.1183 98.9302 77.863 98.9314 78.6393V78.6563C98.9314 78.6639 98.9344 78.671 98.9399 78.6764C98.9453 78.6819 98.9524 78.6848 98.9601 78.6849L105.021 78.6754C105.029 78.6754 105.037 78.6724 105.042 78.6669C105.048 78.6615 105.051 78.6543 105.051 78.6467V78.6297C105.05 78.2451 104.971 77.8639 104.818 77.5088C104.665 77.1538 104.441 76.8312 104.159 76.5598C103.877 76.2884 103.542 76.0737 103.174 75.9272C102.805 75.7807 102.41 75.7055 102.012 75.7064H101.956Z" fill="#1A1A1A"/>
<path d="M131.974 69.346C132.044 69.346 132.08 69.3806 132.08 69.4511L132.059 72.7862C132.059 72.834 132.083 72.8574 132.131 72.8574L134.688 72.8478C134.721 72.8479 134.752 72.8609 134.775 72.8839C134.799 72.9071 134.812 72.9391 134.812 72.972V75.8274C134.812 75.8816 134.784 75.9091 134.73 75.9091H132.153C132.139 75.9091 132.126 75.9115 132.114 75.9166C132.102 75.9216 132.091 75.9286 132.082 75.9378C132.073 75.9471 132.066 75.9586 132.061 75.9707C132.056 75.9825 132.054 75.9952 132.055 76.0079C132.077 78.3526 132.084 80.6976 132.073 83.0423C132.066 84.5001 133.212 84.5967 134.353 84.3129C134.408 84.299 134.442 84.3203 134.454 84.3766L135.064 87.232C135.074 87.2776 135.055 87.3081 135.01 87.3233C132.033 88.2657 127.985 87.6114 127.985 83.623C127.986 81.0805 127.987 78.5376 127.989 75.9941C127.989 75.9375 127.96 75.9091 127.904 75.9091H126.067C126.013 75.9091 125.985 75.8816 125.985 75.8274V72.9317C125.985 72.9209 125.987 72.9098 125.992 72.8998C125.996 72.8897 126.002 72.8799 126.01 72.8722C126.017 72.8646 126.026 72.8583 126.036 72.8542C126.046 72.85 126.057 72.8478 126.068 72.8478L127.921 72.8574C127.968 72.8573 127.992 72.8339 127.992 72.7862L127.986 69.4479C127.985 69.3796 128.019 69.346 128.089 69.346H131.974Z" fill="#1A1A1A"/>
<path d="M117.617 69.192C117.665 69.1443 117.713 69.1442 117.761 69.192L124.539 75.9537C124.58 75.9961 124.602 76.0469 124.602 76.1055L124.554 87.4029C124.554 87.4626 124.524 87.493 124.465 87.4942L120.66 87.5314C120.571 87.5324 120.527 87.4899 120.527 87.404L120.511 77.7253C120.511 77.6711 120.491 77.6243 120.453 77.5852L117.72 74.8604C117.713 74.8537 117.706 74.8481 117.697 74.8445C117.689 74.8409 117.68 74.8392 117.671 74.8392C117.661 74.8392 117.652 74.841 117.644 74.8445C117.635 74.8481 117.627 74.8537 117.621 74.8604L114.837 77.6383C114.819 77.6562 114.805 77.6781 114.795 77.702C114.786 77.7259 114.782 77.7517 114.784 77.7774C114.861 78.8747 114.77 80.1076 114.788 81.0435C114.831 83.1545 114.821 85.2725 114.761 87.3976C114.76 87.4585 114.73 87.4889 114.67 87.4878C113.406 87.4824 112.142 87.4834 110.878 87.4921C110.814 87.4932 110.783 87.4627 110.783 87.3997V76.0907C110.783 76.0376 110.802 75.9917 110.84 75.9527L117.617 69.192Z" fill="#1A1A1A"/>
<path d="M139.916 68C139.939 68 139.958 68.019 139.958 68.0425V87.4443C139.958 87.4675 139.939 87.4857 139.916 87.4857H135.957C135.933 87.4855 135.915 87.4673 135.915 87.4443V68.0425C135.915 68.0192 135.933 68.0003 135.957 68H139.916Z" fill="#1A1A1A"/>
<path d="M154.947 72.8627C154.961 72.87 154.973 72.8806 154.982 72.8935C154.991 72.9063 154.997 72.9214 154.999 72.937C155.001 72.9523 155 72.968 154.995 72.9826C153.183 78.1407 151.365 83.306 149.54 88.4771C149.142 89.6039 148.752 90.6057 147.951 91.426C146.26 93.1574 143.586 93.3107 141.381 92.6063C141.33 92.59 141.313 92.5562 141.329 92.5055L142.204 89.6437C142.221 89.5894 142.258 89.5691 142.312 89.5832C144.051 90.0347 144.85 89.754 145.429 87.9931C145.443 87.9497 145.441 87.9037 145.427 87.8615L140.236 72.9731C140.216 72.9155 140.236 72.886 140.298 72.885L144.359 72.8627C144.428 72.8616 144.472 72.894 144.49 72.9603L147.493 83.5614C147.499 83.581 147.511 83.5979 147.527 83.6102C147.543 83.6225 147.563 83.6293 147.584 83.6293C147.604 83.6293 147.624 83.6225 147.64 83.6102C147.656 83.5979 147.668 83.5808 147.673 83.5614L150.709 72.9338C150.725 72.8787 150.762 72.8511 150.819 72.851H154.901C154.917 72.8512 154.933 72.8553 154.947 72.8627Z" stroke="#E6E2DE" stroke-width="16" stroke-linejoin="round" mask="url(#path-4-outside-1_1195_183)"/>
<path fill-rule="evenodd" clip-rule="evenodd" d="M95.9626 75.8922C97.8423 72.7533 101.997 71.8381 105.237 73.3902C108.215 74.817 109.049 78.0217 108.835 81.1476C108.832 81.1867 108.812 81.206 108.773 81.206L98.975 81.2166C98.9282 81.2166 98.9037 81.2399 98.9016 81.2866C98.8232 83.0247 99.7979 84.3731 101.504 84.7025C102.851 84.9632 104.375 84.5069 104.983 83.157C105.01 83.0983 105.056 83.0709 105.121 83.0752L108.657 83.3119C108.674 83.3132 108.69 83.3175 108.705 83.3257C108.719 83.3341 108.732 83.3459 108.742 83.3597C108.752 83.3736 108.758 83.3898 108.761 83.4064C108.764 83.423 108.763 83.4401 108.758 83.4563C108.165 85.4522 106.869 86.763 104.868 87.387C100.914 88.6196 96.4677 87.2083 95.2156 82.9606C94.5772 80.7887 94.7194 78.614 95.6434 76.4367C95.6706 76.3726 95.6503 76.3351 95.5817 76.3231C92.7604 75.8046 91.065 76.8871 91.052 79.7783C91.04 82.3209 91.04 84.8635 91.052 87.4061C91.0519 87.4604 91.0245 87.4878 90.97 87.4878L87.0787 87.4889C87.0266 87.4889 87.0001 87.4633 87 87.4114V72.9327C87 72.9111 87.0081 72.8896 87.0234 72.8743C87.0387 72.8591 87.0603 72.851 87.0819 72.851H90.8349C90.8849 72.851 90.9104 72.8764 90.9115 72.9264L90.9509 75.4028C90.9516 75.4176 90.957 75.4321 90.9668 75.4431C90.9767 75.4542 90.9905 75.4619 91.0051 75.4644C91.0197 75.4668 91.0348 75.464 91.0477 75.4569C91.0607 75.4497 91.0708 75.4378 91.0764 75.424C91.8425 73.2205 93.4186 72.3396 95.8041 72.782C95.8444 72.7896 95.8647 72.814 95.8647 72.8542L95.8743 75.8677C95.8742 75.8781 95.8776 75.8881 95.8839 75.8964C95.8902 75.9047 95.8993 75.9106 95.9094 75.9134C95.9193 75.916 95.9297 75.9161 95.9392 75.9123C95.9489 75.9084 95.9573 75.9011 95.9626 75.8922ZM101.956 75.7064C101.153 75.7082 100.383 76.0183 99.8156 76.5683C99.2483 77.1183 98.9302 77.863 98.9314 78.6393V78.6563C98.9314 78.6639 98.9344 78.671 98.9399 78.6764C98.9453 78.6819 98.9524 78.6848 98.9601 78.6849L105.021 78.6754C105.029 78.6754 105.037 78.6724 105.042 78.6669C105.048 78.6615 105.051 78.6543 105.051 78.6467V78.6297C105.05 78.2451 104.971 77.8639 104.818 77.5088C104.665 77.1538 104.441 76.8312 104.159 76.5598C103.877 76.2884 103.542 76.0737 103.174 75.9272C102.805 75.7807 102.41 75.7055 102.012 75.7064H101.956Z" stroke="#E6E2DE" stroke-width="16" stroke-linejoin="round" mask="url(#path-4-outside-1_1195_183)"/>
<path d="M131.974 69.346C132.044 69.346 132.08 69.3806 132.08 69.4511L132.059 72.7862C132.059 72.834 132.083 72.8574 132.131 72.8574L134.688 72.8478C134.721 72.8479 134.752 72.8609 134.775 72.8839C134.799 72.9071 134.812 72.9391 134.812 72.972V75.8274C134.812 75.8816 134.784 75.9091 134.73 75.9091H132.153C132.139 75.9091 132.126 75.9115 132.114 75.9166C132.102 75.9216 132.091 75.9286 132.082 75.9378C132.073 75.9471 132.066 75.9586 132.061 75.9707C132.056 75.9825 132.054 75.9952 132.055 76.0079C132.077 78.3526 132.084 80.6976 132.073 83.0423C132.066 84.5001 133.212 84.5967 134.353 84.3129C134.408 84.299 134.442 84.3203 134.454 84.3766L135.064 87.232C135.074 87.2776 135.055 87.3081 135.01 87.3233C132.033 88.2657 127.985 87.6114 127.985 83.623C127.986 81.0805 127.987 78.5376 127.989 75.9941C127.989 75.9375 127.96 75.9091 127.904 75.9091H126.067C126.013 75.9091 125.985 75.8816 125.985 75.8274V72.9317C125.985 72.9209 125.987 72.9098 125.992 72.8998C125.996 72.8897 126.002 72.8799 126.01 72.8722C126.017 72.8646 126.026 72.8583 126.036 72.8542C126.046 72.85 126.057 72.8478 126.068 72.8478L127.921 72.8574C127.968 72.8573 127.992 72.8339 127.992 72.7862L127.986 69.4479C127.985 69.3796 128.019 69.346 128.089 69.346H131.974Z" stroke="#E6E2DE" stroke-width="16" stroke-linejoin="round" mask="url(#path-4-outside-1_1195_183)"/>
<path d="M117.617 69.192C117.665 69.1443 117.713 69.1442 117.761 69.192L124.539 75.9537C124.58 75.9961 124.602 76.0469 124.602 76.1055L124.554 87.4029C124.554 87.4626 124.524 87.493 124.465 87.4942L120.66 87.5314C120.571 87.5324 120.527 87.4899 120.527 87.404L120.511 77.7253C120.511 77.6711 120.491 77.6243 120.453 77.5852L117.72 74.8604C117.713 74.8537 117.706 74.8481 117.697 74.8445C117.689 74.8409 117.68 74.8392 117.671 74.8392C117.661 74.8392 117.652 74.841 117.644 74.8445C117.635 74.8481 117.627 74.8537 117.621 74.8604L114.837 77.6383C114.819 77.6562 114.805 77.6781 114.795 77.702C114.786 77.7259 114.782 77.7517 114.784 77.7774C114.861 78.8747 114.77 80.1076 114.788 81.0435C114.831 83.1545 114.821 85.2725 114.761 87.3976C114.76 87.4585 114.73 87.4889 114.67 87.4878C113.406 87.4824 112.142 87.4834 110.878 87.4921C110.814 87.4932 110.783 87.4627 110.783 87.3997V76.0907C110.783 76.0376 110.802 75.9917 110.84 75.9527L117.617 69.192Z" stroke="#E6E2DE" stroke-width="16" stroke-linejoin="round" mask="url(#path-4-outside-1_1195_183)"/>
<path d="M139.916 68C139.939 68 139.958 68.019 139.958 68.0425V87.4443C139.958 87.4675 139.939 87.4857 139.916 87.4857H135.957C135.933 87.4855 135.915 87.4673 135.915 87.4443V68.0425C135.915 68.0192 135.933 68.0003 135.957 68H139.916Z" stroke="#E6E2DE" stroke-width="16" stroke-linejoin="round" mask="url(#path-4-outside-1_1195_183)"/>
</svg>
