<svg width="242" height="180" viewBox="0 0 242 180" fill="none" xmlns="http://www.w3.org/2000/svg">
<rect y="20" width="242" height="160" rx="12" fill="#E6E2DE"/>
<path d="M101.047 95H98.6152V83.512H103.111C106.007 83.512 107.687 84.856 107.687 87.24C107.687 88.792 106.727 90.024 105.095 90.568L108.055 95H105.159L102.567 90.936H101.047V95ZM101.047 85.528V88.936H102.999C104.471 88.936 105.255 88.36 105.255 87.24C105.255 86.104 104.471 85.528 102.999 85.528H101.047ZM112.569 95.144C110.009 95.144 108.297 93.368 108.297 90.696C108.297 88.152 110.073 86.296 112.537 86.296C115.241 86.296 117.033 88.488 116.633 91.272H110.569C110.713 92.664 111.385 93.432 112.521 93.432C113.497 93.432 114.153 92.952 114.409 92.104H116.617C116.137 94.04 114.649 95.144 112.569 95.144ZM112.489 87.928C111.449 87.928 110.793 88.6 110.601 89.864H114.281C114.217 88.68 113.545 87.928 112.489 87.928ZM120.187 90.344V95H117.963V86.456H120.011V87.672C120.635 86.824 121.515 86.296 122.635 86.296C124.347 86.296 125.531 87.416 125.531 89.48V95H123.323V90.232C123.323 88.968 122.827 88.264 121.819 88.264C120.939 88.264 120.187 88.968 120.187 90.344ZM132.537 92.84V94.776C131.993 95.048 131.481 95.16 130.825 95.16C129.065 95.16 127.961 94.152 127.961 92.232V88.36H126.233V86.456H127.961V83.928H130.169V86.456H132.617V88.36H130.169V91.72C130.169 92.712 130.617 93.112 131.417 93.112C131.833 93.112 132.217 93.016 132.537 92.84ZM136.055 95H133.815V83.512H136.055V95ZM145.585 86.456L141.425 98.088H139.009L140.225 94.904L136.865 86.456H139.265L141.409 92.312L143.361 86.456H145.585Z" fill="#1A1A1A"/>
<path d="M91.6629 115L90.7529 112.508H86.4129L85.4889 115H83.9349L87.7849 104.948H89.4789L93.3009 115H91.6629ZM88.5969 106.628L86.8749 111.262H90.2909L88.5969 106.628ZM101.378 111.29C101.378 113.53 100.09 115.14 98.1023 115.14C97.0943 115.14 96.2403 114.636 95.7083 113.74V117.702H94.2943V107.58H95.6103V108.938C96.1423 107.986 97.0523 107.44 98.1023 107.44C100.076 107.44 101.378 109.05 101.378 111.29ZM99.9083 111.29C99.9083 109.624 99.0263 108.686 97.8083 108.686C96.6323 108.686 95.7083 109.624 95.7083 111.29C95.7083 112.928 96.6183 113.88 97.8083 113.88C99.0263 113.88 99.9083 112.956 99.9083 111.29ZM109.616 111.29C109.616 113.53 108.328 115.14 106.34 115.14C105.332 115.14 104.478 114.636 103.946 113.74V117.702H102.532V107.58H103.848V108.938C104.38 107.986 105.29 107.44 106.34 107.44C108.314 107.44 109.616 109.05 109.616 111.29ZM108.146 111.29C108.146 109.624 107.264 108.686 106.046 108.686C104.87 108.686 103.946 109.624 103.946 111.29C103.946 112.928 104.856 113.88 106.046 113.88C107.264 113.88 108.146 112.956 108.146 111.29ZM116.705 115H113.527V104.948H116.705C119.911 104.948 121.759 106.992 121.759 109.932C121.759 112.83 119.841 115 116.705 115ZM115.067 106.278V113.67H116.635C118.945 113.67 120.191 112.242 120.191 109.932C120.191 107.664 118.959 106.278 116.635 106.278H115.067ZM126.031 115.14C123.889 115.14 122.447 113.586 122.447 111.248C122.447 109.05 123.945 107.44 125.989 107.44C128.201 107.44 129.671 109.232 129.419 111.64H123.889C124.001 113.152 124.757 114.034 126.003 114.034C127.053 114.034 127.781 113.46 128.019 112.494H129.419C129.055 114.146 127.781 115.14 126.031 115.14ZM125.961 108.504C124.827 108.504 124.057 109.316 123.903 110.702H127.921C127.851 109.33 127.109 108.504 125.961 108.504ZM136.522 112.788C136.522 114.244 135.388 115.14 133.414 115.14C131.454 115.14 130.292 114.174 130.152 112.578H131.51C131.566 113.502 132.308 114.076 133.442 114.076C134.436 114.076 135.094 113.726 135.094 113.026C135.094 112.41 134.716 112.144 133.792 111.962L132.588 111.738C131.216 111.472 130.446 110.772 130.446 109.652C130.446 108.35 131.58 107.44 133.302 107.44C135.08 107.44 136.284 108.392 136.41 109.918H135.052C134.968 109.022 134.31 108.504 133.316 108.504C132.42 108.504 131.818 108.882 131.818 109.526C131.818 110.128 132.196 110.408 133.092 110.576L134.352 110.814C135.822 111.08 136.522 111.724 136.522 112.788ZM139.508 105.858C139.508 106.39 139.088 106.796 138.486 106.796C137.884 106.796 137.45 106.39 137.45 105.858C137.45 105.312 137.884 104.92 138.486 104.92C139.088 104.92 139.508 105.312 139.508 105.858ZM139.2 115H137.786V107.58H139.2V115ZM143.851 117.856C141.905 117.856 140.645 116.82 140.561 115.14H141.933C142.017 116.176 142.689 116.736 143.837 116.736C145.111 116.736 145.783 116.05 145.783 114.776V113.432C145.363 114.328 144.523 114.846 143.515 114.846C141.667 114.846 140.351 113.32 140.351 111.136C140.351 108.924 141.611 107.44 143.473 107.44C144.537 107.44 145.377 107.958 145.881 108.896V107.58H147.197V114.748C147.197 116.694 145.951 117.856 143.851 117.856ZM141.779 111.136C141.779 112.676 142.535 113.614 143.767 113.614C144.971 113.614 145.783 112.648 145.783 111.178C145.783 109.638 144.985 108.658 143.767 108.658C142.549 108.658 141.779 109.61 141.779 111.136ZM150.289 110.814V115H148.875V107.58H150.191V108.812C150.695 107.986 151.535 107.44 152.557 107.44C154.083 107.44 155.091 108.42 155.091 110.198V115H153.677V110.674C153.677 109.4 153.117 108.686 152.067 108.686C151.101 108.686 150.289 109.498 150.289 110.814ZM158.606 114.398C158.606 115.728 157.556 116.764 156.016 116.792V115.994C156.926 115.966 157.542 115.476 157.626 114.79C157.5 114.832 157.416 114.846 157.318 114.846C156.786 114.846 156.394 114.412 156.394 113.894C156.394 113.292 156.842 112.9 157.416 112.9C158.186 112.9 158.606 113.46 158.606 114.398ZM79.8399 132L77.7119 124.118L75.5699 132H73.9879L71.3699 121.948H72.8819L74.8139 129.69L76.9279 121.948H78.5239L80.6099 129.704L82.5419 121.948H84.0539L81.4359 132H79.8399ZM87.461 132.14C85.319 132.14 83.877 130.586 83.877 128.248C83.877 126.05 85.375 124.44 87.419 124.44C89.631 124.44 91.101 126.232 90.849 128.64H85.319C85.431 130.152 86.187 131.034 87.433 131.034C88.483 131.034 89.211 130.46 89.449 129.494H90.849C90.485 131.146 89.211 132.14 87.461 132.14ZM87.391 125.504C86.257 125.504 85.487 126.316 85.333 127.702H89.351C89.281 126.33 88.539 125.504 87.391 125.504ZM99.1564 128.29C99.1564 130.516 97.8684 132.14 95.8664 132.14C94.8164 132.14 93.9204 131.608 93.3884 130.67V132H92.0724V121.948H93.4864V125.854C94.0044 124.944 94.8584 124.44 95.8664 124.44C97.8544 124.44 99.1564 126.036 99.1564 128.29ZM97.6864 128.29C97.6864 126.61 96.8044 125.686 95.5864 125.686C94.4104 125.686 93.4864 126.596 93.4864 128.262C93.4864 129.9 94.3824 130.88 95.5864 130.88C96.8044 130.88 97.6864 129.942 97.6864 128.29ZM106.19 129.788C106.19 131.244 105.056 132.14 103.082 132.14C101.122 132.14 99.96 131.174 99.82 129.578H101.178C101.234 130.502 101.976 131.076 103.11 131.076C104.104 131.076 104.762 130.726 104.762 130.026C104.762 129.41 104.384 129.144 103.46 128.962L102.256 128.738C100.884 128.472 100.114 127.772 100.114 126.652C100.114 125.35 101.248 124.44 102.97 124.44C104.748 124.44 105.952 125.392 106.078 126.918H104.72C104.636 126.022 103.978 125.504 102.984 125.504C102.088 125.504 101.486 125.882 101.486 126.526C101.486 127.128 101.864 127.408 102.76 127.576L104.02 127.814C105.49 128.08 106.19 128.724 106.19 129.788ZM109.176 122.858C109.176 123.39 108.756 123.796 108.154 123.796C107.552 123.796 107.118 123.39 107.118 122.858C107.118 122.312 107.552 121.92 108.154 121.92C108.756 121.92 109.176 122.312 109.176 122.858ZM108.868 132H107.454V124.58H108.868V132ZM114.737 130.628V131.874C114.303 132.07 113.925 132.14 113.477 132.14C112.105 132.14 111.153 131.398 111.153 129.76V125.784H109.515V124.58H111.153V122.382H112.567V124.58H114.807V125.784H112.567V129.438C112.567 130.46 113.057 130.824 113.813 130.824C114.149 130.824 114.443 130.768 114.737 130.628ZM118.723 132.14C116.581 132.14 115.139 130.586 115.139 128.248C115.139 126.05 116.637 124.44 118.681 124.44C120.893 124.44 122.363 126.232 122.111 128.64H116.581C116.693 130.152 117.449 131.034 118.695 131.034C119.745 131.034 120.473 130.46 120.711 129.494H122.111C121.747 131.146 120.473 132.14 118.723 132.14ZM118.653 125.504C117.519 125.504 116.749 126.316 116.595 127.702H120.613C120.543 126.33 119.801 125.504 118.653 125.504ZM129.27 132H126.092V121.948H129.27C132.476 121.948 134.324 123.992 134.324 126.932C134.324 129.83 132.406 132 129.27 132ZM127.632 123.278V130.67H129.2C131.51 130.67 132.756 129.242 132.756 126.932C132.756 124.664 131.524 123.278 129.2 123.278H127.632ZM138.596 132.14C136.454 132.14 135.012 130.586 135.012 128.248C135.012 126.05 136.51 124.44 138.554 124.44C140.766 124.44 142.236 126.232 141.984 128.64H136.454C136.566 130.152 137.322 131.034 138.568 131.034C139.618 131.034 140.346 130.46 140.584 129.494H141.984C141.62 131.146 140.346 132.14 138.596 132.14ZM138.526 125.504C137.392 125.504 136.622 126.316 136.468 127.702H140.486C140.416 126.33 139.674 125.504 138.526 125.504ZM149.087 129.788C149.087 131.244 147.953 132.14 145.979 132.14C144.019 132.14 142.857 131.174 142.717 129.578H144.075C144.131 130.502 144.873 131.076 146.007 131.076C147.001 131.076 147.659 130.726 147.659 130.026C147.659 129.41 147.281 129.144 146.357 128.962L145.153 128.738C143.781 128.472 143.011 127.772 143.011 126.652C143.011 125.35 144.145 124.44 145.867 124.44C147.645 124.44 148.849 125.392 148.975 126.918H147.617C147.533 126.022 146.875 125.504 145.881 125.504C144.985 125.504 144.383 125.882 144.383 126.526C144.383 127.128 144.761 127.408 145.657 127.576L146.917 127.814C148.387 128.08 149.087 128.724 149.087 129.788ZM152.073 122.858C152.073 123.39 151.653 123.796 151.051 123.796C150.449 123.796 150.015 123.39 150.015 122.858C150.015 122.312 150.449 121.92 151.051 121.92C151.653 121.92 152.073 122.312 152.073 122.858ZM151.765 132H150.351V124.58H151.765V132ZM156.416 134.856C154.47 134.856 153.21 133.82 153.126 132.14H154.498C154.582 133.176 155.254 133.736 156.402 133.736C157.676 133.736 158.348 133.05 158.348 131.776V130.432C157.928 131.328 157.088 131.846 156.08 131.846C154.232 131.846 152.916 130.32 152.916 128.136C152.916 125.924 154.176 124.44 156.038 124.44C157.102 124.44 157.942 124.958 158.446 125.896V124.58H159.762V131.748C159.762 133.694 158.516 134.856 156.416 134.856ZM154.344 128.136C154.344 129.676 155.1 130.614 156.332 130.614C157.536 130.614 158.348 129.648 158.348 128.178C158.348 126.638 157.55 125.658 156.332 125.658C155.114 125.658 154.344 126.61 154.344 128.136ZM162.854 127.814V132H161.44V124.58H162.756V125.812C163.26 124.986 164.1 124.44 165.122 124.44C166.648 124.44 167.656 125.42 167.656 127.198V132H166.242V127.674C166.242 126.4 165.682 125.686 164.632 125.686C163.666 125.686 162.854 126.498 162.854 127.814ZM171.171 131.398C171.171 132.728 170.121 133.764 168.581 133.792V132.994C169.491 132.966 170.107 132.476 170.191 131.79C170.065 131.832 169.981 131.846 169.883 131.846C169.351 131.846 168.959 131.412 168.959 130.894C168.959 130.292 169.407 129.9 169.981 129.9C170.751 129.9 171.171 130.46 171.171 131.398Z" fill="#1A1A1A"/>
<mask id="path-4-outside-1_1173_5" maskUnits="userSpaceOnUse" x="79" y="0" width="84" height="41" fill="black">
<rect fill="white" x="79" width="84" height="41"/>
<path d="M154.947 12.8627C154.961 12.87 154.973 12.8806 154.982 12.8935C154.991 12.9063 154.997 12.9214 154.999 12.937C155.001 12.9523 155 12.968 154.995 12.9826C153.183 18.1407 151.365 23.306 149.54 28.4771C149.142 29.6039 148.752 30.6057 147.951 31.426C146.26 33.1574 143.586 33.3107 141.381 32.6063C141.33 32.59 141.313 32.5562 141.329 32.5055L142.204 29.6437C142.221 29.5894 142.258 29.5691 142.312 29.5832C144.051 30.0347 144.85 29.754 145.429 27.9931C145.443 27.9497 145.441 27.9037 145.427 27.8615L140.236 12.9731C140.216 12.9155 140.236 12.886 140.298 12.885L144.359 12.8627C144.428 12.8616 144.472 12.894 144.49 12.9603L147.493 23.5614C147.499 23.581 147.511 23.5979 147.527 23.6102C147.543 23.6225 147.563 23.6293 147.584 23.6293C147.604 23.6293 147.624 23.6225 147.64 23.6102C147.656 23.5979 147.668 23.5808 147.673 23.5614L150.709 12.9338C150.725 12.8787 150.762 12.8511 150.819 12.851H154.901C154.917 12.8512 154.933 12.8553 154.947 12.8627Z"/>
<path fill-rule="evenodd" clip-rule="evenodd" d="M95.9626 15.8922C97.8423 12.7533 101.997 11.8381 105.237 13.3902C108.215 14.817 109.049 18.0217 108.835 21.1476C108.832 21.1867 108.812 21.206 108.773 21.206L98.975 21.2166C98.9282 21.2166 98.9037 21.2399 98.9016 21.2866C98.8232 23.0247 99.7979 24.3731 101.504 24.7025C102.851 24.9632 104.375 24.5069 104.983 23.157C105.01 23.0983 105.056 23.0709 105.121 23.0752L108.657 23.3119C108.674 23.3132 108.69 23.3175 108.705 23.3257C108.719 23.3341 108.732 23.3459 108.742 23.3597C108.752 23.3736 108.758 23.3898 108.761 23.4064C108.764 23.423 108.763 23.4401 108.758 23.4563C108.165 25.4522 106.869 26.763 104.868 27.387C100.914 28.6196 96.4677 27.2083 95.2156 22.9606C94.5772 20.7887 94.7194 18.614 95.6434 16.4367C95.6706 16.3726 95.6503 16.3351 95.5817 16.3231C92.7604 15.8046 91.065 16.8871 91.052 19.7783C91.04 22.3209 91.04 24.8635 91.052 27.4061C91.0519 27.4604 91.0245 27.4878 90.97 27.4878L87.0787 27.4889C87.0266 27.4889 87.0001 27.4633 87 27.4114V12.9327C87 12.9111 87.0081 12.8896 87.0234 12.8743C87.0387 12.8591 87.0603 12.851 87.0819 12.851H90.8349C90.8849 12.851 90.9104 12.8764 90.9115 12.9264L90.9509 15.4028C90.9516 15.4176 90.957 15.4321 90.9668 15.4431C90.9767 15.4542 90.9905 15.4619 91.0051 15.4644C91.0197 15.4668 91.0348 15.464 91.0477 15.4569C91.0607 15.4497 91.0708 15.4378 91.0764 15.424C91.8425 13.2205 93.4186 12.3396 95.8041 12.782C95.8444 12.7896 95.8647 12.814 95.8647 12.8542L95.8743 15.8677C95.8742 15.8781 95.8776 15.8881 95.8839 15.8964C95.8902 15.9047 95.8993 15.9106 95.9094 15.9134C95.9193 15.916 95.9297 15.9161 95.9392 15.9123C95.9489 15.9084 95.9573 15.9011 95.9626 15.8922ZM101.956 15.7064C101.153 15.7082 100.383 16.0183 99.8156 16.5683C99.2483 17.1183 98.9302 17.863 98.9314 18.6393V18.6563C98.9314 18.6639 98.9344 18.671 98.9399 18.6764C98.9453 18.6819 98.9524 18.6848 98.9601 18.6849L105.021 18.6754C105.029 18.6754 105.037 18.6724 105.042 18.6669C105.048 18.6615 105.051 18.6543 105.051 18.6467V18.6297C105.05 18.2451 104.971 17.8639 104.818 17.5088C104.665 17.1538 104.441 16.8312 104.159 16.5598C103.877 16.2884 103.542 16.0737 103.174 15.9272C102.805 15.7807 102.41 15.7055 102.012 15.7064H101.956Z"/>
<path d="M131.974 9.34597C132.044 9.34597 132.08 9.38064 132.08 9.45105L132.059 12.7862C132.059 12.834 132.083 12.8574 132.131 12.8574L134.688 12.8478C134.721 12.8479 134.752 12.8609 134.775 12.8839C134.799 12.9071 134.812 12.9391 134.812 12.972V15.8274C134.812 15.8816 134.784 15.9091 134.73 15.9091H132.153C132.139 15.9091 132.126 15.9116 132.114 15.9166C132.102 15.9216 132.091 15.9286 132.082 15.9378C132.073 15.9471 132.066 15.9586 132.061 15.9707C132.056 15.9825 132.054 15.9952 132.055 16.0079C132.077 18.3526 132.084 20.6976 132.073 23.0423C132.066 24.5001 133.212 24.5967 134.353 24.3129C134.408 24.299 134.442 24.3203 134.454 24.3766L135.064 27.232C135.074 27.2776 135.055 27.3081 135.01 27.3233C132.033 28.2657 127.985 27.6114 127.985 23.623C127.986 21.0805 127.987 18.5376 127.989 15.9941C127.989 15.9375 127.96 15.9091 127.904 15.9091H126.067C126.013 15.9091 125.985 15.8816 125.985 15.8274V12.9317C125.985 12.9209 125.987 12.9098 125.992 12.8998C125.996 12.8897 126.002 12.8799 126.01 12.8722C126.017 12.8646 126.026 12.8583 126.036 12.8542C126.046 12.85 126.057 12.8478 126.068 12.8478L127.921 12.8574C127.968 12.8573 127.992 12.8339 127.992 12.7862L127.986 9.44787C127.985 9.37958 128.019 9.34597 128.089 9.34597H131.974Z"/>
<path d="M117.617 9.19205C117.665 9.14428 117.713 9.14424 117.761 9.19205L124.539 15.9537C124.58 15.9961 124.602 16.0469 124.602 16.1055L124.554 27.4029C124.554 27.4626 124.524 27.493 124.465 27.4942L120.66 27.5314C120.571 27.5324 120.527 27.4899 120.527 27.404L120.511 17.7253C120.511 17.6711 120.491 17.6243 120.453 17.5852L117.72 14.8604C117.713 14.8537 117.706 14.8481 117.697 14.8445C117.689 14.8409 117.68 14.8392 117.671 14.8392C117.661 14.8392 117.652 14.841 117.644 14.8445C117.635 14.8481 117.627 14.8537 117.621 14.8604L114.837 17.6383C114.819 17.6562 114.805 17.6781 114.795 17.702C114.786 17.7259 114.782 17.7517 114.784 17.7774C114.861 18.8747 114.77 20.1076 114.788 21.0435C114.831 23.1545 114.821 25.2725 114.761 27.3976C114.76 27.4585 114.73 27.4889 114.67 27.4878C113.406 27.4824 112.142 27.4834 110.878 27.4921C110.814 27.4932 110.783 27.4627 110.783 27.3997V16.0907C110.783 16.0376 110.802 15.9917 110.84 15.9527L117.617 9.19205Z"/>
<path d="M139.916 8C139.939 8 139.958 8.01904 139.958 8.04246V27.4443C139.958 27.4675 139.939 27.4857 139.916 27.4857H135.957C135.933 27.4855 135.915 27.4673 135.915 27.4443V8.04246C135.915 8.0192 135.933 8.00025 135.957 8H139.916Z"/>
</mask>
<path d="M154.947 12.8627C154.961 12.87 154.973 12.8806 154.982 12.8935C154.991 12.9063 154.997 12.9214 154.999 12.937C155.001 12.9523 155 12.968 154.995 12.9826C153.183 18.1407 151.365 23.306 149.54 28.4771C149.142 29.6039 148.752 30.6057 147.951 31.426C146.26 33.1574 143.586 33.3107 141.381 32.6063C141.33 32.59 141.313 32.5562 141.329 32.5055L142.204 29.6437C142.221 29.5894 142.258 29.5691 142.312 29.5832C144.051 30.0347 144.85 29.754 145.429 27.9931C145.443 27.9497 145.441 27.9037 145.427 27.8615L140.236 12.9731C140.216 12.9155 140.236 12.886 140.298 12.885L144.359 12.8627C144.428 12.8616 144.472 12.894 144.49 12.9603L147.493 23.5614C147.499 23.581 147.511 23.5979 147.527 23.6102C147.543 23.6225 147.563 23.6293 147.584 23.6293C147.604 23.6293 147.624 23.6225 147.64 23.6102C147.656 23.5979 147.668 23.5808 147.673 23.5614L150.709 12.9338C150.725 12.8787 150.762 12.8511 150.819 12.851H154.901C154.917 12.8512 154.933 12.8553 154.947 12.8627Z" fill="#1A1A1A"/>
<path fill-rule="evenodd" clip-rule="evenodd" d="M95.9626 15.8922C97.8423 12.7533 101.997 11.8381 105.237 13.3902C108.215 14.817 109.049 18.0217 108.835 21.1476C108.832 21.1867 108.812 21.206 108.773 21.206L98.975 21.2166C98.9282 21.2166 98.9037 21.2399 98.9016 21.2866C98.8232 23.0247 99.7979 24.3731 101.504 24.7025C102.851 24.9632 104.375 24.5069 104.983 23.157C105.01 23.0983 105.056 23.0709 105.121 23.0752L108.657 23.3119C108.674 23.3132 108.69 23.3175 108.705 23.3257C108.719 23.3341 108.732 23.3459 108.742 23.3597C108.752 23.3736 108.758 23.3898 108.761 23.4064C108.764 23.423 108.763 23.4401 108.758 23.4563C108.165 25.4522 106.869 26.763 104.868 27.387C100.914 28.6196 96.4677 27.2083 95.2156 22.9606C94.5772 20.7887 94.7194 18.614 95.6434 16.4367C95.6706 16.3726 95.6503 16.3351 95.5817 16.3231C92.7604 15.8046 91.065 16.8871 91.052 19.7783C91.04 22.3209 91.04 24.8635 91.052 27.4061C91.0519 27.4604 91.0245 27.4878 90.97 27.4878L87.0787 27.4889C87.0266 27.4889 87.0001 27.4633 87 27.4114V12.9327C87 12.9111 87.0081 12.8896 87.0234 12.8743C87.0387 12.8591 87.0603 12.851 87.0819 12.851H90.8349C90.8849 12.851 90.9104 12.8764 90.9115 12.9264L90.9509 15.4028C90.9516 15.4176 90.957 15.4321 90.9668 15.4431C90.9767 15.4542 90.9905 15.4619 91.0051 15.4644C91.0197 15.4668 91.0348 15.464 91.0477 15.4569C91.0607 15.4497 91.0708 15.4378 91.0764 15.424C91.8425 13.2205 93.4186 12.3396 95.8041 12.782C95.8444 12.7896 95.8647 12.814 95.8647 12.8542L95.8743 15.8677C95.8742 15.8781 95.8776 15.8881 95.8839 15.8964C95.8902 15.9047 95.8993 15.9106 95.9094 15.9134C95.9193 15.916 95.9297 15.9161 95.9392 15.9123C95.9489 15.9084 95.9573 15.9011 95.9626 15.8922ZM101.956 15.7064C101.153 15.7082 100.383 16.0183 99.8156 16.5683C99.2483 17.1183 98.9302 17.863 98.9314 18.6393V18.6563C98.9314 18.6639 98.9344 18.671 98.9399 18.6764C98.9453 18.6819 98.9524 18.6848 98.9601 18.6849L105.021 18.6754C105.029 18.6754 105.037 18.6724 105.042 18.6669C105.048 18.6615 105.051 18.6543 105.051 18.6467V18.6297C105.05 18.2451 104.971 17.8639 104.818 17.5088C104.665 17.1538 104.441 16.8312 104.159 16.5598C103.877 16.2884 103.542 16.0737 103.174 15.9272C102.805 15.7807 102.41 15.7055 102.012 15.7064H101.956Z" fill="#1A1A1A"/>
<path d="M131.974 9.34597C132.044 9.34597 132.08 9.38064 132.08 9.45105L132.059 12.7862C132.059 12.834 132.083 12.8574 132.131 12.8574L134.688 12.8478C134.721 12.8479 134.752 12.8609 134.775 12.8839C134.799 12.9071 134.812 12.9391 134.812 12.972V15.8274C134.812 15.8816 134.784 15.9091 134.73 15.9091H132.153C132.139 15.9091 132.126 15.9116 132.114 15.9166C132.102 15.9216 132.091 15.9286 132.082 15.9378C132.073 15.9471 132.066 15.9586 132.061 15.9707C132.056 15.9825 132.054 15.9952 132.055 16.0079C132.077 18.3526 132.084 20.6976 132.073 23.0423C132.066 24.5001 133.212 24.5967 134.353 24.3129C134.408 24.299 134.442 24.3203 134.454 24.3766L135.064 27.232C135.074 27.2776 135.055 27.3081 135.01 27.3233C132.033 28.2657 127.985 27.6114 127.985 23.623C127.986 21.0805 127.987 18.5376 127.989 15.9941C127.989 15.9375 127.96 15.9091 127.904 15.9091H126.067C126.013 15.9091 125.985 15.8816 125.985 15.8274V12.9317C125.985 12.9209 125.987 12.9098 125.992 12.8998C125.996 12.8897 126.002 12.8799 126.01 12.8722C126.017 12.8646 126.026 12.8583 126.036 12.8542C126.046 12.85 126.057 12.8478 126.068 12.8478L127.921 12.8574C127.968 12.8573 127.992 12.8339 127.992 12.7862L127.986 9.44787C127.985 9.37958 128.019 9.34597 128.089 9.34597H131.974Z" fill="#1A1A1A"/>
<path d="M117.617 9.19205C117.665 9.14428 117.713 9.14424 117.761 9.19205L124.539 15.9537C124.58 15.9961 124.602 16.0469 124.602 16.1055L124.554 27.4029C124.554 27.4626 124.524 27.493 124.465 27.4942L120.66 27.5314C120.571 27.5324 120.527 27.4899 120.527 27.404L120.511 17.7253C120.511 17.6711 120.491 17.6243 120.453 17.5852L117.72 14.8604C117.713 14.8537 117.706 14.8481 117.697 14.8445C117.689 14.8409 117.68 14.8392 117.671 14.8392C117.661 14.8392 117.652 14.841 117.644 14.8445C117.635 14.8481 117.627 14.8537 117.621 14.8604L114.837 17.6383C114.819 17.6562 114.805 17.6781 114.795 17.702C114.786 17.7259 114.782 17.7517 114.784 17.7774C114.861 18.8747 114.77 20.1076 114.788 21.0435C114.831 23.1545 114.821 25.2725 114.761 27.3976C114.76 27.4585 114.73 27.4889 114.67 27.4878C113.406 27.4824 112.142 27.4834 110.878 27.4921C110.814 27.4932 110.783 27.4627 110.783 27.3997V16.0907C110.783 16.0376 110.802 15.9917 110.84 15.9527L117.617 9.19205Z" fill="#1A1A1A"/>
<path d="M139.916 8C139.939 8 139.958 8.01904 139.958 8.04246V27.4443C139.958 27.4675 139.939 27.4857 139.916 27.4857H135.957C135.933 27.4855 135.915 27.4673 135.915 27.4443V8.04246C135.915 8.0192 135.933 8.00025 135.957 8H139.916Z" fill="#1A1A1A"/>
<path d="M154.947 12.8627C154.961 12.87 154.973 12.8806 154.982 12.8935C154.991 12.9063 154.997 12.9214 154.999 12.937C155.001 12.9523 155 12.968 154.995 12.9826C153.183 18.1407 151.365 23.306 149.54 28.4771C149.142 29.6039 148.752 30.6057 147.951 31.426C146.26 33.1574 143.586 33.3107 141.381 32.6063C141.33 32.59 141.313 32.5562 141.329 32.5055L142.204 29.6437C142.221 29.5894 142.258 29.5691 142.312 29.5832C144.051 30.0347 144.85 29.754 145.429 27.9931C145.443 27.9497 145.441 27.9037 145.427 27.8615L140.236 12.9731C140.216 12.9155 140.236 12.886 140.298 12.885L144.359 12.8627C144.428 12.8616 144.472 12.894 144.49 12.9603L147.493 23.5614C147.499 23.581 147.511 23.5979 147.527 23.6102C147.543 23.6225 147.563 23.6293 147.584 23.6293C147.604 23.6293 147.624 23.6225 147.64 23.6102C147.656 23.5979 147.668 23.5808 147.673 23.5614L150.709 12.9338C150.725 12.8787 150.762 12.8511 150.819 12.851H154.901C154.917 12.8512 154.933 12.8553 154.947 12.8627Z" stroke="#E6E2DE" stroke-width="16" stroke-linejoin="round" mask="url(#path-4-outside-1_1173_5)"/>
<path fill-rule="evenodd" clip-rule="evenodd" d="M95.9626 15.8922C97.8423 12.7533 101.997 11.8381 105.237 13.3902C108.215 14.817 109.049 18.0217 108.835 21.1476C108.832 21.1867 108.812 21.206 108.773 21.206L98.975 21.2166C98.9282 21.2166 98.9037 21.2399 98.9016 21.2866C98.8232 23.0247 99.7979 24.3731 101.504 24.7025C102.851 24.9632 104.375 24.5069 104.983 23.157C105.01 23.0983 105.056 23.0709 105.121 23.0752L108.657 23.3119C108.674 23.3132 108.69 23.3175 108.705 23.3257C108.719 23.3341 108.732 23.3459 108.742 23.3597C108.752 23.3736 108.758 23.3898 108.761 23.4064C108.764 23.423 108.763 23.4401 108.758 23.4563C108.165 25.4522 106.869 26.763 104.868 27.387C100.914 28.6196 96.4677 27.2083 95.2156 22.9606C94.5772 20.7887 94.7194 18.614 95.6434 16.4367C95.6706 16.3726 95.6503 16.3351 95.5817 16.3231C92.7604 15.8046 91.065 16.8871 91.052 19.7783C91.04 22.3209 91.04 24.8635 91.052 27.4061C91.0519 27.4604 91.0245 27.4878 90.97 27.4878L87.0787 27.4889C87.0266 27.4889 87.0001 27.4633 87 27.4114V12.9327C87 12.9111 87.0081 12.8896 87.0234 12.8743C87.0387 12.8591 87.0603 12.851 87.0819 12.851H90.8349C90.8849 12.851 90.9104 12.8764 90.9115 12.9264L90.9509 15.4028C90.9516 15.4176 90.957 15.4321 90.9668 15.4431C90.9767 15.4542 90.9905 15.4619 91.0051 15.4644C91.0197 15.4668 91.0348 15.464 91.0477 15.4569C91.0607 15.4497 91.0708 15.4378 91.0764 15.424C91.8425 13.2205 93.4186 12.3396 95.8041 12.782C95.8444 12.7896 95.8647 12.814 95.8647 12.8542L95.8743 15.8677C95.8742 15.8781 95.8776 15.8881 95.8839 15.8964C95.8902 15.9047 95.8993 15.9106 95.9094 15.9134C95.9193 15.916 95.9297 15.9161 95.9392 15.9123C95.9489 15.9084 95.9573 15.9011 95.9626 15.8922ZM101.956 15.7064C101.153 15.7082 100.383 16.0183 99.8156 16.5683C99.2483 17.1183 98.9302 17.863 98.9314 18.6393V18.6563C98.9314 18.6639 98.9344 18.671 98.9399 18.6764C98.9453 18.6819 98.9524 18.6848 98.9601 18.6849L105.021 18.6754C105.029 18.6754 105.037 18.6724 105.042 18.6669C105.048 18.6615 105.051 18.6543 105.051 18.6467V18.6297C105.05 18.2451 104.971 17.8639 104.818 17.5088C104.665 17.1538 104.441 16.8312 104.159 16.5598C103.877 16.2884 103.542 16.0737 103.174 15.9272C102.805 15.7807 102.41 15.7055 102.012 15.7064H101.956Z" stroke="#E6E2DE" stroke-width="16" stroke-linejoin="round" mask="url(#path-4-outside-1_1173_5)"/>
<path d="M131.974 9.34597C132.044 9.34597 132.08 9.38064 132.08 9.45105L132.059 12.7862C132.059 12.834 132.083 12.8574 132.131 12.8574L134.688 12.8478C134.721 12.8479 134.752 12.8609 134.775 12.8839C134.799 12.9071 134.812 12.9391 134.812 12.972V15.8274C134.812 15.8816 134.784 15.9091 134.73 15.9091H132.153C132.139 15.9091 132.126 15.9116 132.114 15.9166C132.102 15.9216 132.091 15.9286 132.082 15.9378C132.073 15.9471 132.066 15.9586 132.061 15.9707C132.056 15.9825 132.054 15.9952 132.055 16.0079C132.077 18.3526 132.084 20.6976 132.073 23.0423C132.066 24.5001 133.212 24.5967 134.353 24.3129C134.408 24.299 134.442 24.3203 134.454 24.3766L135.064 27.232C135.074 27.2776 135.055 27.3081 135.01 27.3233C132.033 28.2657 127.985 27.6114 127.985 23.623C127.986 21.0805 127.987 18.5376 127.989 15.9941C127.989 15.9375 127.96 15.9091 127.904 15.9091H126.067C126.013 15.9091 125.985 15.8816 125.985 15.8274V12.9317C125.985 12.9209 125.987 12.9098 125.992 12.8998C125.996 12.8897 126.002 12.8799 126.01 12.8722C126.017 12.8646 126.026 12.8583 126.036 12.8542C126.046 12.85 126.057 12.8478 126.068 12.8478L127.921 12.8574C127.968 12.8573 127.992 12.8339 127.992 12.7862L127.986 9.44787C127.985 9.37958 128.019 9.34597 128.089 9.34597H131.974Z" stroke="#E6E2DE" stroke-width="16" stroke-linejoin="round" mask="url(#path-4-outside-1_1173_5)"/>
<path d="M117.617 9.19205C117.665 9.14428 117.713 9.14424 117.761 9.19205L124.539 15.9537C124.58 15.9961 124.602 16.0469 124.602 16.1055L124.554 27.4029C124.554 27.4626 124.524 27.493 124.465 27.4942L120.66 27.5314C120.571 27.5324 120.527 27.4899 120.527 27.404L120.511 17.7253C120.511 17.6711 120.491 17.6243 120.453 17.5852L117.72 14.8604C117.713 14.8537 117.706 14.8481 117.697 14.8445C117.689 14.8409 117.68 14.8392 117.671 14.8392C117.661 14.8392 117.652 14.841 117.644 14.8445C117.635 14.8481 117.627 14.8537 117.621 14.8604L114.837 17.6383C114.819 17.6562 114.805 17.6781 114.795 17.702C114.786 17.7259 114.782 17.7517 114.784 17.7774C114.861 18.8747 114.77 20.1076 114.788 21.0435C114.831 23.1545 114.821 25.2725 114.761 27.3976C114.76 27.4585 114.73 27.4889 114.67 27.4878C113.406 27.4824 112.142 27.4834 110.878 27.4921C110.814 27.4932 110.783 27.4627 110.783 27.3997V16.0907C110.783 16.0376 110.802 15.9917 110.84 15.9527L117.617 9.19205Z" stroke="#E6E2DE" stroke-width="16" stroke-linejoin="round" mask="url(#path-4-outside-1_1173_5)"/>
<path d="M139.916 8C139.939 8 139.958 8.01904 139.958 8.04246V27.4443C139.958 27.4675 139.939 27.4857 139.916 27.4857H135.957C135.933 27.4855 135.915 27.4673 135.915 27.4443V8.04246C135.915 8.0192 135.933 8.00025 135.957 8H139.916Z" stroke="#E6E2DE" stroke-width="16" stroke-linejoin="round" mask="url(#path-4-outside-1_1173_5)"/>
</svg>
