<svg width="242" height="182" viewBox="0 0 242 182" fill="none" xmlns="http://www.w3.org/2000/svg">
<rect y="22" width="242" height="160" rx="12" fill="#E6E2DE"/>
<path d="M93.3822 93.432C93.3822 95.624 91.6222 97.16 88.7422 97.16C85.8462 97.16 84.0382 95.608 83.8622 93.176H86.3262C86.3902 94.44 87.2062 95.256 88.6942 95.256C89.9262 95.256 90.8062 94.712 90.8062 93.784C90.8062 93.064 90.2462 92.632 89.2702 92.44L87.3822 92.072C85.6382 91.736 84.2942 90.792 84.2942 88.888C84.2942 86.84 86.1022 85.368 88.5822 85.368C91.1582 85.368 93.0462 86.872 93.2062 89.272H90.7422C90.6622 88.072 89.8302 87.256 88.6142 87.256C87.4302 87.256 86.7582 87.928 86.7582 88.728C86.7582 89.512 87.4782 89.848 88.3102 90.008L90.2782 90.408C92.2942 90.808 93.3822 91.736 93.3822 93.432ZM98.5356 97.144C95.9756 97.144 94.2636 95.368 94.2636 92.696C94.2636 90.152 96.0396 88.296 98.5036 88.296C101.208 88.296 103 90.488 102.6 93.272H96.5356C96.6796 94.664 97.3516 95.432 98.4876 95.432C99.4636 95.432 100.12 94.952 100.376 94.104H102.584C102.104 96.04 100.616 97.144 98.5356 97.144ZM98.4556 89.928C97.4156 89.928 96.7596 90.6 96.5676 91.864H100.248C100.184 90.68 99.5116 89.928 98.4556 89.928ZM111.328 88.456L108.192 97H105.76L102.608 88.456H105.008L107.04 94.472L109.088 88.456H111.328ZM115.559 97.144C112.999 97.144 111.287 95.368 111.287 92.696C111.287 90.152 113.063 88.296 115.527 88.296C118.231 88.296 120.023 90.488 119.623 93.272H113.559C113.703 94.664 114.375 95.432 115.511 95.432C116.487 95.432 117.143 94.952 117.399 94.104H119.607C119.127 96.04 117.639 97.144 115.559 97.144ZM115.479 89.928C114.439 89.928 113.783 90.6 113.591 91.864H117.271C117.207 90.68 116.535 89.928 115.479 89.928ZM123.177 92.344V97H120.953V88.456H123.001V89.672C123.625 88.824 124.505 88.296 125.625 88.296C127.337 88.296 128.521 89.416 128.521 91.48V97H126.313V92.232C126.313 90.968 125.817 90.264 124.809 90.264C123.929 90.264 123.177 90.968 123.177 92.344ZM133.239 97H131.031V90.36H129.303V88.456H131.031V87.992C131.031 86.296 131.943 85.336 133.719 85.336C134.263 85.336 134.727 85.432 135.095 85.592V87.352C134.855 87.256 134.535 87.208 134.247 87.208C133.639 87.208 133.239 87.448 133.239 88.04V88.456H135.463V90.36H133.239V97ZM139.987 97.16C137.507 97.16 135.651 95.208 135.651 92.728C135.651 90.232 137.507 88.296 139.987 88.296C142.467 88.296 144.323 90.232 144.323 92.728C144.323 95.208 142.467 97.16 139.987 97.16ZM139.987 95.192C141.091 95.192 142.035 94.312 142.035 92.728C142.035 91.144 141.091 90.28 139.987 90.28C138.883 90.28 137.939 91.144 137.939 92.728C137.939 94.312 138.883 95.192 139.987 95.192ZM147.822 97H145.582V85.512H147.822V97ZM149.097 92.728C149.097 90.2 150.585 88.296 152.889 88.296C153.913 88.296 154.777 88.744 155.417 89.56V85.512H157.625V97H155.593V95.768C154.921 96.664 153.993 97.16 152.889 97.16C150.585 97.16 149.097 95.224 149.097 92.728ZM151.385 92.728C151.385 94.328 152.297 95.176 153.385 95.176C154.489 95.176 155.401 94.312 155.401 92.696C155.401 91.08 154.473 90.264 153.385 90.264C152.297 90.264 151.385 91.096 151.385 92.728Z" fill="#1A1A1A"/>
<path d="M59.6822 117L57.5542 109.118L55.4122 117H53.8302L51.2122 106.948H52.7242L54.6562 114.69L56.7702 106.948H58.3662L60.4522 114.704L62.3842 106.948H63.8962L61.2782 117H59.6822ZM67.3033 117.14C65.1613 117.14 63.7193 115.586 63.7193 113.248C63.7193 111.05 65.2173 109.44 67.2613 109.44C69.4733 109.44 70.9433 111.232 70.6913 113.64H65.1613C65.2733 115.152 66.0293 116.034 67.2753 116.034C68.3253 116.034 69.0533 115.46 69.2913 114.494H70.6913C70.3273 116.146 69.0533 117.14 67.3033 117.14ZM67.2333 110.504C66.0993 110.504 65.3293 111.316 65.1753 112.702H69.1933C69.1233 111.33 68.3813 110.504 67.2333 110.504ZM78.9987 113.29C78.9987 115.516 77.7107 117.14 75.7087 117.14C74.6587 117.14 73.7627 116.608 73.2307 115.67V117H71.9147V106.948H73.3287V110.854C73.8467 109.944 74.7007 109.44 75.7087 109.44C77.6967 109.44 78.9987 111.036 78.9987 113.29ZM77.5287 113.29C77.5287 111.61 76.6467 110.686 75.4287 110.686C74.2527 110.686 73.3287 111.596 73.3287 113.262C73.3287 114.9 74.2247 115.88 75.4287 115.88C76.6467 115.88 77.5287 114.942 77.5287 113.29ZM86.0323 114.788C86.0323 116.244 84.8983 117.14 82.9243 117.14C80.9643 117.14 79.8023 116.174 79.6623 114.578H81.0203C81.0763 115.502 81.8183 116.076 82.9523 116.076C83.9463 116.076 84.6043 115.726 84.6043 115.026C84.6043 114.41 84.2263 114.144 83.3023 113.962L82.0983 113.738C80.7263 113.472 79.9563 112.772 79.9563 111.652C79.9563 110.35 81.0903 109.44 82.8123 109.44C84.5903 109.44 85.7943 110.392 85.9203 111.918H84.5623C84.4783 111.022 83.8203 110.504 82.8263 110.504C81.9303 110.504 81.3283 110.882 81.3283 111.526C81.3283 112.128 81.7063 112.408 82.6023 112.576L83.8623 112.814C85.3323 113.08 86.0323 113.724 86.0323 114.788ZM89.0181 107.858C89.0181 108.39 88.5981 108.796 87.9961 108.796C87.3941 108.796 86.9601 108.39 86.9601 107.858C86.9601 107.312 87.3941 106.92 87.9961 106.92C88.5981 106.92 89.0181 107.312 89.0181 107.858ZM88.7101 117H87.2961V109.58H88.7101V117ZM94.579 115.628V116.874C94.145 117.07 93.767 117.14 93.319 117.14C91.947 117.14 90.995 116.398 90.995 114.76V110.784H89.357V109.58H90.995V107.382H92.409V109.58H94.649V110.784H92.409V114.438C92.409 115.46 92.899 115.824 93.655 115.824C93.991 115.824 94.285 115.768 94.579 115.628ZM98.5654 117.14C96.4234 117.14 94.9814 115.586 94.9814 113.248C94.9814 111.05 96.4794 109.44 98.5234 109.44C100.735 109.44 102.205 111.232 101.953 113.64H96.4234C96.5354 115.152 97.2914 116.034 98.5374 116.034C99.5874 116.034 100.315 115.46 100.553 114.494H101.953C101.589 116.146 100.315 117.14 98.5654 117.14ZM98.4954 110.504C97.3614 110.504 96.5914 111.316 96.4374 112.702H100.455C100.385 111.33 99.6434 110.504 98.4954 110.504ZM109.113 117H105.935V106.948H109.113C112.319 106.948 114.167 108.992 114.167 111.932C114.167 114.83 112.249 117 109.113 117ZM107.475 108.278V115.67H109.043C111.353 115.67 112.599 114.242 112.599 111.932C112.599 109.664 111.367 108.278 109.043 108.278H107.475ZM118.438 117.14C116.296 117.14 114.854 115.586 114.854 113.248C114.854 111.05 116.352 109.44 118.396 109.44C120.608 109.44 122.078 111.232 121.826 113.64H116.296C116.408 115.152 117.164 116.034 118.41 116.034C119.46 116.034 120.188 115.46 120.426 114.494H121.826C121.462 116.146 120.188 117.14 118.438 117.14ZM118.368 110.504C117.234 110.504 116.464 111.316 116.31 112.702H120.328C120.258 111.33 119.516 110.504 118.368 110.504ZM128.93 114.788C128.93 116.244 127.796 117.14 125.822 117.14C123.862 117.14 122.7 116.174 122.56 114.578H123.918C123.974 115.502 124.716 116.076 125.85 116.076C126.844 116.076 127.502 115.726 127.502 115.026C127.502 114.41 127.124 114.144 126.2 113.962L124.996 113.738C123.624 113.472 122.854 112.772 122.854 111.652C122.854 110.35 123.988 109.44 125.71 109.44C127.488 109.44 128.692 110.392 128.818 111.918H127.46C127.376 111.022 126.718 110.504 125.724 110.504C124.828 110.504 124.226 110.882 124.226 111.526C124.226 112.128 124.604 112.408 125.5 112.576L126.76 112.814C128.23 113.08 128.93 113.724 128.93 114.788ZM131.916 107.858C131.916 108.39 131.496 108.796 130.894 108.796C130.292 108.796 129.858 108.39 129.858 107.858C129.858 107.312 130.292 106.92 130.894 106.92C131.496 106.92 131.916 107.312 131.916 107.858ZM131.608 117H130.194V109.58H131.608V117ZM136.258 119.856C134.312 119.856 133.052 118.82 132.968 117.14H134.34C134.424 118.176 135.096 118.736 136.244 118.736C137.518 118.736 138.19 118.05 138.19 116.776V115.432C137.77 116.328 136.93 116.846 135.922 116.846C134.074 116.846 132.758 115.32 132.758 113.136C132.758 110.924 134.018 109.44 135.88 109.44C136.944 109.44 137.784 109.958 138.288 110.896V109.58H139.604V116.748C139.604 118.694 138.358 119.856 136.258 119.856ZM134.186 113.136C134.186 114.676 134.942 115.614 136.174 115.614C137.378 115.614 138.19 114.648 138.19 113.178C138.19 111.638 137.392 110.658 136.174 110.658C134.956 110.658 134.186 111.61 134.186 113.136ZM142.696 112.814V117H141.282V109.58H142.598V110.812C143.102 109.986 143.942 109.44 144.964 109.44C146.49 109.44 147.498 110.42 147.498 112.198V117H146.084V112.674C146.084 111.4 145.524 110.686 144.474 110.686C143.508 110.686 142.696 111.498 142.696 112.814ZM151.014 116.398C151.014 117.728 149.964 118.764 148.424 118.792V117.994C149.334 117.966 149.95 117.476 150.034 116.79C149.908 116.832 149.824 116.846 149.726 116.846C149.194 116.846 148.802 116.412 148.802 115.894C148.802 115.292 149.25 114.9 149.824 114.9C150.594 114.9 151.014 115.46 151.014 116.398ZM162.322 114.116C162.322 115.95 160.978 117 158.892 117H155.21V106.948H158.696C160.726 106.948 161.944 107.886 161.944 109.58C161.944 110.532 161.37 111.344 160.404 111.764C161.65 112.114 162.322 112.968 162.322 114.116ZM158.598 108.18H156.624V111.204H158.598C159.816 111.204 160.474 110.63 160.474 109.692C160.474 108.754 159.816 108.18 158.598 108.18ZM158.794 112.436H156.624V115.768H158.794C160.11 115.768 160.852 115.138 160.852 114.074C160.852 113.052 160.11 112.436 158.794 112.436ZM165.119 113.206V117H163.705V109.58H165.021V111.148C165.539 110.126 166.659 109.482 167.877 109.482V110.952C166.281 110.868 165.119 111.568 165.119 113.206ZM173.21 117V115.852C172.748 116.678 171.922 117.14 170.83 117.14C169.29 117.14 168.282 116.258 168.282 114.9C168.282 113.444 169.444 112.688 171.656 112.688C172.09 112.688 172.44 112.702 173.042 112.772V112.226C173.042 111.162 172.468 110.56 171.488 110.56C170.452 110.56 169.822 111.176 169.78 112.212H168.492C168.562 110.546 169.752 109.44 171.488 109.44C173.322 109.44 174.386 110.476 174.386 112.24V117H173.21ZM169.626 114.858C169.626 115.628 170.2 116.132 171.11 116.132C172.3 116.132 173.042 115.39 173.042 114.256V113.654C172.496 113.584 172.104 113.57 171.74 113.57C170.326 113.57 169.626 113.99 169.626 114.858ZM177.41 112.814V117H175.996V109.58H177.312V110.812C177.816 109.986 178.656 109.44 179.678 109.44C181.204 109.44 182.212 110.42 182.212 112.198V117H180.798V112.674C180.798 111.4 180.238 110.686 179.188 110.686C178.222 110.686 177.41 111.498 177.41 112.814ZM183.278 113.29C183.278 111.036 184.566 109.44 186.568 109.44C187.562 109.44 188.43 109.944 188.948 110.854V106.948H190.362V117H189.046V115.67C188.514 116.608 187.618 117.14 186.568 117.14C184.566 117.14 183.278 115.516 183.278 113.29ZM184.748 113.29C184.748 114.942 185.616 115.88 186.848 115.88C188.052 115.88 188.948 114.9 188.948 113.262C188.948 111.596 188.024 110.686 186.848 110.686C185.616 110.686 184.748 111.61 184.748 113.29ZM63.8115 134H62.2715V123.948H63.8115V134ZM65.0663 130.29C65.0663 128.036 66.3543 126.44 68.3563 126.44C69.3503 126.44 70.2183 126.944 70.7363 127.854V123.948H72.1503V134H70.8343V132.67C70.3023 133.608 69.4063 134.14 68.3563 134.14C66.3543 134.14 65.0663 132.516 65.0663 130.29ZM66.5363 130.29C66.5363 131.942 67.4043 132.88 68.6363 132.88C69.8403 132.88 70.7363 131.9 70.7363 130.262C70.7363 128.596 69.8123 127.686 68.6363 127.686C67.4043 127.686 66.5363 128.61 66.5363 130.29ZM76.8879 134.14C74.7459 134.14 73.3039 132.586 73.3039 130.248C73.3039 128.05 74.8019 126.44 76.8459 126.44C79.0579 126.44 80.5279 128.232 80.2759 130.64H74.7459C74.8579 132.152 75.6139 133.034 76.8599 133.034C77.9099 133.034 78.6379 132.46 78.8759 131.494H80.2759C79.9119 133.146 78.6379 134.14 76.8879 134.14ZM76.8179 127.504C75.6839 127.504 74.9139 128.316 74.7599 129.702H78.7779C78.7079 128.33 77.9659 127.504 76.8179 127.504ZM82.9132 129.814V134H81.4992V126.58H82.8152V127.812C83.3192 126.986 84.1592 126.44 85.1812 126.44C86.7072 126.44 87.7152 127.42 87.7152 129.198V134H86.3012V129.674C86.3012 128.4 85.7412 127.686 84.6912 127.686C83.7252 127.686 82.9132 128.498 82.9132 129.814ZM93.4716 132.628V133.874C93.0376 134.07 92.6596 134.14 92.2116 134.14C90.8396 134.14 89.8876 133.398 89.8876 131.76V127.784H88.2496V126.58H89.8876V124.382H91.3016V126.58H93.5416V127.784H91.3016V131.438C91.3016 132.46 91.7916 132.824 92.5476 132.824C92.8836 132.824 93.1776 132.768 93.4716 132.628ZM96.3331 124.858C96.3331 125.39 95.9131 125.796 95.3111 125.796C94.7091 125.796 94.2751 125.39 94.2751 124.858C94.2751 124.312 94.7091 123.92 95.3111 123.92C95.9131 123.92 96.3331 124.312 96.3331 124.858ZM96.0251 134H94.6111V126.58H96.0251V134ZM101.894 132.628V133.874C101.46 134.07 101.082 134.14 100.634 134.14C99.262 134.14 98.31 133.398 98.31 131.76V127.784H96.672V126.58H98.31V124.382H99.724V126.58H101.964V127.784H99.724V131.438C99.724 132.46 100.214 132.824 100.97 132.824C101.306 132.824 101.6 132.768 101.894 132.628ZM109.194 126.58L105.484 136.702H103.944L105.008 133.902L102.082 126.58H103.608L105.764 132.236L107.766 126.58H109.194ZM110.92 133.398C110.92 134.728 109.87 135.764 108.33 135.792V134.994C109.24 134.966 109.856 134.476 109.94 133.79C109.814 133.832 109.73 133.846 109.632 133.846C109.1 133.846 108.708 133.412 108.708 132.894C108.708 132.292 109.156 131.9 109.73 131.9C110.5 131.9 110.92 132.46 110.92 133.398ZM118.602 130.5H116.656V134H115.116V123.948H118.602C120.856 123.948 122.312 125.096 122.312 127.196C122.312 129.31 120.856 130.5 118.602 130.5ZM118.588 125.25H116.656V129.198H118.588C119.946 129.198 120.772 128.456 120.772 127.21C120.772 125.964 119.946 125.25 118.588 125.25ZM125.182 124.858C125.182 125.39 124.762 125.796 124.16 125.796C123.558 125.796 123.124 125.39 123.124 124.858C123.124 124.312 123.558 123.92 124.16 123.92C124.762 123.92 125.182 124.312 125.182 124.858ZM124.874 134H123.46V126.58H124.874V134ZM130.743 132.628V133.874C130.309 134.07 129.931 134.14 129.483 134.14C128.111 134.14 127.159 133.398 127.159 131.76V127.784H125.521V126.58H127.159V124.382H128.573V126.58H130.813V127.784H128.573V131.438C128.573 132.46 129.063 132.824 129.819 132.824C130.155 132.824 130.449 132.768 130.743 132.628ZM134.604 134.154C132.574 134.154 131.146 132.558 131.146 130.29C131.146 128.05 132.602 126.44 134.604 126.44C136.438 126.44 137.768 127.658 138.034 129.59H136.55C136.396 128.4 135.654 127.686 134.618 127.686C133.4 127.686 132.602 128.722 132.602 130.29C132.602 131.872 133.4 132.894 134.618 132.894C135.668 132.894 136.396 132.194 136.564 130.99H138.034C137.782 132.95 136.466 134.154 134.604 134.154ZM140.591 129.814V134H139.177V123.948H140.591V127.77C141.081 126.972 141.837 126.44 142.859 126.44C144.385 126.44 145.393 127.42 145.393 129.198V134H143.979V129.674C143.979 128.4 143.419 127.686 142.369 127.686C141.403 127.686 140.591 128.498 140.591 129.814ZM152.927 134H149.749V123.948H152.927C156.133 123.948 157.981 125.992 157.981 128.932C157.981 131.83 156.063 134 152.927 134ZM151.289 125.278V132.67H152.857C155.167 132.67 156.413 131.242 156.413 128.932C156.413 126.664 155.181 125.278 152.857 125.278H151.289ZM162.252 134.14C160.11 134.14 158.668 132.586 158.668 130.248C158.668 128.05 160.166 126.44 162.21 126.44C164.422 126.44 165.892 128.232 165.64 130.64H160.11C160.222 132.152 160.978 133.034 162.224 133.034C163.274 133.034 164.002 132.46 164.24 131.494H165.64C165.276 133.146 164.002 134.14 162.252 134.14ZM162.182 127.504C161.048 127.504 160.278 128.316 160.124 129.702H164.142C164.072 128.33 163.33 127.504 162.182 127.504ZM169.653 134.154C167.623 134.154 166.195 132.558 166.195 130.29C166.195 128.05 167.651 126.44 169.653 126.44C171.487 126.44 172.817 127.658 173.083 129.59H171.599C171.445 128.4 170.703 127.686 169.667 127.686C168.449 127.686 167.651 128.722 167.651 130.29C167.651 131.872 168.449 132.894 169.667 132.894C170.717 132.894 171.445 132.194 171.613 130.99H173.083C172.831 132.95 171.515 134.154 169.653 134.154ZM175.64 134H174.226V123.948H175.64V129.898L178.818 126.58H180.484L177.054 130.178L180.806 134H178.986L175.64 130.486V134Z" fill="#1A1A1A"/>
<mask id="path-4-outside-1_0_1" maskUnits="userSpaceOnUse" x="39" y="0" width="164" height="44" fill="black">
<rect fill="white" x="39" width="164" height="44"/>
<path d="M62.46 20.2969L57.249 29.2598L54.6328 30.7549L55.3545 31.9951L57.9668 30.4971H74.6387L71.4375 36H55.1455L51.0352 28.9336L59.2568 14.7998L62.46 20.2969Z"/>
<path d="M95.0117 12.7959C96.081 12.7959 97.0549 12.9871 97.9326 13.3701C98.8102 13.7372 99.5603 14.2481 100.183 14.9023C100.821 15.5567 101.284 16.315 101.571 17.1768L99.2246 18.2061C98.8735 17.2645 98.3233 16.5381 97.5732 16.0273C96.8391 15.5167 95.9852 15.2608 95.0117 15.2607C94.4212 15.2607 93.902 15.3648 93.4551 15.5723C93.0083 15.7638 92.6576 16.0516 92.4023 16.4346C92.1631 16.8015 92.043 17.232 92.043 17.7266C92.043 18.301 92.2268 18.812 92.5938 19.2588C92.9608 19.7057 93.5194 20.0412 94.2695 20.2646L97.3818 21.2461C98.8022 21.677 99.8717 22.2994 100.59 23.1133C101.308 23.9112 101.667 24.9087 101.667 26.1055C101.667 27.0949 101.404 27.9732 100.877 28.7393C100.366 29.5053 99.6558 30.1117 98.7461 30.5586C97.8364 30.9895 96.7829 31.2051 95.5859 31.2051C94.4688 31.2051 93.4312 30.9979 92.4736 30.583C91.5161 30.1521 90.7025 29.5691 90.0322 28.835C89.362 28.1009 88.8671 27.2553 88.5479 26.2979L90.9414 25.292C91.3723 26.3931 92.0032 27.2386 92.833 27.8291C93.6629 28.4196 94.6208 28.7148 95.7061 28.7148C96.3443 28.7148 96.9031 28.6192 97.3818 28.4277C97.8603 28.2203 98.2271 27.9332 98.4824 27.5664C98.7537 27.1994 98.8896 26.7765 98.8896 26.2979C98.8896 25.6435 98.7059 25.1242 98.3389 24.7412C97.9718 24.3583 97.429 24.0554 96.7109 23.832L93.3594 22.7783C92.0189 22.3634 90.9981 21.7325 90.2959 20.8867C89.5938 20.025 89.2423 19.02 89.2422 17.8711C89.2422 16.8656 89.4896 15.9874 89.9844 15.2373C90.4791 14.4713 91.1577 13.8723 92.0195 13.4414C92.8972 13.0107 93.8947 12.7959 95.0117 12.7959Z"/>
<path fill-rule="evenodd" clip-rule="evenodd" d="M109.243 17.6787C110.217 17.6787 111.087 17.8465 111.853 18.1816C112.619 18.5168 113.265 18.9798 113.792 19.5703C114.318 20.1447 114.717 20.8069 114.988 21.5566C115.276 22.3068 115.419 23.1053 115.419 23.9512C115.419 24.1586 115.411 24.3743 115.396 24.5977C115.38 24.8209 115.348 25.0283 115.3 25.2197H105.662C105.693 25.7751 105.816 26.2777 106.035 26.7275C106.37 27.3819 106.833 27.8927 107.424 28.2598C108.03 28.6268 108.716 28.8105 109.482 28.8105C110.264 28.8105 110.927 28.6353 111.47 28.2842C112.028 27.9331 112.467 27.4783 112.786 26.9199L114.988 27.9971C114.733 28.6033 114.334 29.1539 113.792 29.6484C113.265 30.1272 112.626 30.5106 111.876 30.7979C111.142 31.0691 110.336 31.2051 109.458 31.2051C108.165 31.205 107.016 30.9098 106.011 30.3193C105.021 29.7129 104.247 28.8984 103.688 27.877C103.13 26.8398 102.852 25.6827 102.852 24.4062C102.852 23.0977 103.13 21.94 103.688 20.9346C104.263 19.9291 105.03 19.139 105.987 18.5645C106.945 17.974 108.03 17.6787 109.243 17.6787ZM109.243 19.9531C108.525 19.9531 107.887 20.1369 107.328 20.5039C106.77 20.855 106.338 21.3658 106.035 22.0361C105.891 22.3468 105.79 22.69 105.729 23.0654H112.558C112.541 22.6708 112.46 22.3034 112.308 21.9639C112.052 21.3415 111.653 20.855 111.11 20.5039C110.584 20.1369 109.961 19.9532 109.243 19.9531Z"/>
<path fill-rule="evenodd" clip-rule="evenodd" d="M134.226 17.6787C135.199 17.6787 136.069 17.8465 136.835 18.1816C137.601 18.5168 138.248 18.9798 138.774 19.5703C139.301 20.1447 139.699 20.8069 139.971 21.5566C140.258 22.3068 140.401 23.1053 140.401 23.9512C140.401 24.1586 140.394 24.3743 140.378 24.5977C140.362 24.8209 140.33 25.0283 140.282 25.2197H130.645C130.675 25.7751 130.798 26.2777 131.018 26.7275C131.353 27.3819 131.816 27.8927 132.406 28.2598C133.013 28.6268 133.699 28.8105 134.465 28.8105C135.247 28.8105 135.91 28.6353 136.452 28.2842C137.011 27.9331 137.449 27.4783 137.769 26.9199L139.971 27.9971C139.715 28.6033 139.317 29.1539 138.774 29.6484C138.248 30.1272 137.609 30.5106 136.858 30.7979C136.124 31.0691 135.318 31.2051 134.44 31.2051C133.148 31.205 131.999 30.9098 130.993 30.3193C130.004 29.7129 129.229 28.8984 128.671 27.877C128.112 26.8398 127.834 25.6827 127.834 24.4062C127.834 23.0977 128.112 21.94 128.671 20.9346C129.245 19.9291 130.012 19.139 130.97 18.5645C131.927 17.974 133.013 17.6787 134.226 17.6787ZM134.226 19.9531C133.507 19.9531 132.869 20.1369 132.311 20.5039C131.752 20.855 131.321 21.3658 131.018 22.0361C130.874 22.3468 130.772 22.69 130.711 23.0654H137.54C137.523 22.6708 137.442 22.3034 137.29 21.9639C137.035 21.3415 136.635 20.855 136.093 20.5039C135.566 20.1369 134.944 19.9532 134.226 19.9531Z"/>
<path fill-rule="evenodd" clip-rule="evenodd" d="M168.891 17.6787C170.167 17.6787 171.309 17.9739 172.314 18.5645C173.336 19.139 174.142 19.9367 174.732 20.958C175.339 21.9635 175.642 23.121 175.642 24.4297C175.642 25.7383 175.339 26.9034 174.732 27.9248C174.126 28.9462 173.311 29.7523 172.29 30.3428C171.269 30.9173 170.135 31.2051 168.891 31.2051C167.646 31.2051 166.504 30.9098 165.467 30.3193C164.446 29.7289 163.632 28.9226 163.025 27.9014C162.419 26.8799 162.116 25.7224 162.116 24.4297C162.116 23.121 162.419 21.9635 163.025 20.958C163.632 19.9368 164.446 19.1389 165.467 18.5645C166.488 17.9739 167.63 17.6787 168.891 17.6787ZM168.891 20.1924C168.141 20.1924 167.462 20.3761 166.855 20.7432C166.265 21.1102 165.794 21.6128 165.443 22.251C165.108 22.8894 164.94 23.6157 164.94 24.4297C164.94 25.2435 165.108 25.9775 165.443 26.6318C165.794 27.2702 166.265 27.7736 166.855 28.1406C167.462 28.5077 168.141 28.6914 168.891 28.6914C169.657 28.6914 170.335 28.5077 170.926 28.1406C171.516 27.7736 171.979 27.2702 172.314 26.6318C172.665 25.9776 172.841 25.2435 172.841 24.4297C172.841 23.6158 172.666 22.8894 172.314 22.251C171.979 21.6127 171.516 21.1102 170.926 20.7432C170.335 20.3761 169.657 20.1924 168.891 20.1924Z"/>
<path fill-rule="evenodd" clip-rule="evenodd" d="M194.636 30.918H192.074V29.2568C191.658 29.8123 191.125 30.2558 190.471 30.583C189.641 30.9979 188.731 31.2051 187.741 31.2051C186.496 31.205 185.379 30.9098 184.39 30.3193C183.416 29.7129 182.643 28.8983 182.068 27.877C181.51 26.8556 181.23 25.7064 181.23 24.4297C181.231 23.1531 181.517 22.0037 182.092 20.9824C182.666 19.9611 183.441 19.1549 184.414 18.5645C185.388 17.974 186.489 17.6787 187.718 17.6787C188.755 17.6787 189.673 17.8868 190.471 18.3018C191.056 18.6061 191.55 18.9967 191.955 19.4727V12.7959H194.636V30.918ZM188.005 20.1924C187.255 20.1924 186.576 20.3761 185.97 20.7432C185.363 21.1102 184.893 21.6136 184.558 22.252C184.223 22.8902 184.055 23.616 184.055 24.4297C184.055 25.2436 184.222 25.9785 184.558 26.6328C184.893 27.2711 185.356 27.7736 185.946 28.1406C186.553 28.5077 187.239 28.6914 188.005 28.6914C188.755 28.6914 189.425 28.5077 190.016 28.1406C190.622 27.7736 191.094 27.2712 191.429 26.6328C191.78 25.9785 191.955 25.2436 191.955 24.4297C191.955 23.6161 191.78 22.8901 191.429 22.252C191.094 21.6136 190.622 21.1102 190.016 20.7432C189.425 20.3762 188.755 20.1924 188.005 20.1924Z"/>
<path d="M121.62 27.0654L124.984 17.9658H127.952L122.854 30.918H120.388L115.312 17.9658H118.257L121.62 27.0654Z"/>
<path d="M160.852 12.7959C161.027 12.7959 161.227 12.8118 161.45 12.8438C161.674 12.8597 161.857 12.8831 162.001 12.915V15.2607C161.873 15.2288 161.729 15.2129 161.569 15.2129C161.41 15.197 161.282 15.1895 161.187 15.1895C160.468 15.1895 159.894 15.3573 159.463 15.6924C159.032 16.0116 158.816 16.546 158.816 17.2959V17.9668H161.785V20.4082H158.816V30.918H156.136V20.4082H153.741V17.9668H156.136V17.2959C156.136 16.3224 156.335 15.5088 156.734 14.8545C157.133 14.1842 157.684 13.6734 158.386 13.3223C159.104 12.9711 159.926 12.7959 160.852 12.7959Z"/>
<path d="M179.791 30.918H177.086V12.7959H179.791V30.918Z"/>
<path d="M148.093 17.6787C149.05 17.6787 149.897 17.8858 150.631 18.3008C151.365 18.7157 151.94 19.2904 152.354 20.0244C152.769 20.7586 152.977 21.6049 152.977 22.5625V30.917H150.296V23.2803C150.296 22.6262 150.176 22.0757 149.937 21.6289C149.697 21.1661 149.354 20.8146 148.907 20.5752C148.476 20.3199 147.981 20.1924 147.423 20.1924C146.864 20.1924 146.361 20.3198 145.914 20.5752C145.483 20.8146 145.149 21.1662 144.909 21.6289C144.67 22.0917 144.55 22.642 144.55 23.2803V30.917H141.845V17.9658H144.431V19.5381C144.738 19.03 145.144 18.625 145.651 18.3252C146.354 17.8944 147.167 17.6787 148.093 17.6787Z"/>
<path d="M79.582 22L75.4688 29.0684L59.0234 29.0664L62.2227 23.5654L72.6455 23.5635L75.2617 25.0635L75.9834 23.8252L73.3672 22.3271L65.0361 8H71.4375L79.582 22Z"/>
<path d="M71.5947 22.1328L65.1914 22.1367L59.9785 13.1797V10.1807H58.5371V13.1797L50.2002 27.5029L47 22.002L55.1455 8H63.3701L71.5947 22.1328Z"/>
</mask>
<path d="M62.46 20.2969L57.249 29.2598L54.6328 30.7549L55.3545 31.9951L57.9668 30.4971H74.6387L71.4375 36H55.1455L51.0352 28.9336L59.2568 14.7998L62.46 20.2969Z" fill="#1A1A1A"/>
<path d="M95.0117 12.7959C96.081 12.7959 97.0549 12.9871 97.9326 13.3701C98.8102 13.7372 99.5603 14.2481 100.183 14.9023C100.821 15.5567 101.284 16.315 101.571 17.1768L99.2246 18.2061C98.8735 17.2645 98.3233 16.5381 97.5732 16.0273C96.8391 15.5167 95.9852 15.2608 95.0117 15.2607C94.4212 15.2607 93.902 15.3648 93.4551 15.5723C93.0083 15.7638 92.6576 16.0516 92.4023 16.4346C92.1631 16.8015 92.043 17.232 92.043 17.7266C92.043 18.301 92.2268 18.812 92.5938 19.2588C92.9608 19.7057 93.5194 20.0412 94.2695 20.2646L97.3818 21.2461C98.8022 21.677 99.8717 22.2994 100.59 23.1133C101.308 23.9112 101.667 24.9087 101.667 26.1055C101.667 27.0949 101.404 27.9732 100.877 28.7393C100.366 29.5053 99.6558 30.1117 98.7461 30.5586C97.8364 30.9895 96.7829 31.2051 95.5859 31.2051C94.4688 31.2051 93.4312 30.9979 92.4736 30.583C91.5161 30.1521 90.7025 29.5691 90.0322 28.835C89.362 28.1009 88.8671 27.2553 88.5479 26.2979L90.9414 25.292C91.3723 26.3931 92.0032 27.2386 92.833 27.8291C93.6629 28.4196 94.6208 28.7148 95.7061 28.7148C96.3443 28.7148 96.9031 28.6192 97.3818 28.4277C97.8603 28.2203 98.2271 27.9332 98.4824 27.5664C98.7537 27.1994 98.8896 26.7765 98.8896 26.2979C98.8896 25.6435 98.7059 25.1242 98.3389 24.7412C97.9718 24.3583 97.429 24.0554 96.7109 23.832L93.3594 22.7783C92.0189 22.3634 90.9981 21.7325 90.2959 20.8867C89.5938 20.025 89.2423 19.02 89.2422 17.8711C89.2422 16.8656 89.4896 15.9874 89.9844 15.2373C90.4791 14.4713 91.1577 13.8723 92.0195 13.4414C92.8972 13.0107 93.8947 12.7959 95.0117 12.7959Z" fill="#1A1A1A"/>
<path fill-rule="evenodd" clip-rule="evenodd" d="M109.243 17.6787C110.217 17.6787 111.087 17.8465 111.853 18.1816C112.619 18.5168 113.265 18.9798 113.792 19.5703C114.318 20.1447 114.717 20.8069 114.988 21.5566C115.276 22.3068 115.419 23.1053 115.419 23.9512C115.419 24.1586 115.411 24.3743 115.396 24.5977C115.38 24.8209 115.348 25.0283 115.3 25.2197H105.662C105.693 25.7751 105.816 26.2777 106.035 26.7275C106.37 27.3819 106.833 27.8927 107.424 28.2598C108.03 28.6268 108.716 28.8105 109.482 28.8105C110.264 28.8105 110.927 28.6353 111.47 28.2842C112.028 27.9331 112.467 27.4783 112.786 26.9199L114.988 27.9971C114.733 28.6033 114.334 29.1539 113.792 29.6484C113.265 30.1272 112.626 30.5106 111.876 30.7979C111.142 31.0691 110.336 31.2051 109.458 31.2051C108.165 31.205 107.016 30.9098 106.011 30.3193C105.021 29.7129 104.247 28.8984 103.688 27.877C103.13 26.8398 102.852 25.6827 102.852 24.4062C102.852 23.0977 103.13 21.94 103.688 20.9346C104.263 19.9291 105.03 19.139 105.987 18.5645C106.945 17.974 108.03 17.6787 109.243 17.6787ZM109.243 19.9531C108.525 19.9531 107.887 20.1369 107.328 20.5039C106.77 20.855 106.338 21.3658 106.035 22.0361C105.891 22.3468 105.79 22.69 105.729 23.0654H112.558C112.541 22.6708 112.46 22.3034 112.308 21.9639C112.052 21.3415 111.653 20.855 111.11 20.5039C110.584 20.1369 109.961 19.9532 109.243 19.9531Z" fill="#1A1A1A"/>
<path fill-rule="evenodd" clip-rule="evenodd" d="M134.226 17.6787C135.199 17.6787 136.069 17.8465 136.835 18.1816C137.601 18.5168 138.248 18.9798 138.774 19.5703C139.301 20.1447 139.699 20.8069 139.971 21.5566C140.258 22.3068 140.401 23.1053 140.401 23.9512C140.401 24.1586 140.394 24.3743 140.378 24.5977C140.362 24.8209 140.33 25.0283 140.282 25.2197H130.645C130.675 25.7751 130.798 26.2777 131.018 26.7275C131.353 27.3819 131.816 27.8927 132.406 28.2598C133.013 28.6268 133.699 28.8105 134.465 28.8105C135.247 28.8105 135.91 28.6353 136.452 28.2842C137.011 27.9331 137.449 27.4783 137.769 26.9199L139.971 27.9971C139.715 28.6033 139.317 29.1539 138.774 29.6484C138.248 30.1272 137.609 30.5106 136.858 30.7979C136.124 31.0691 135.318 31.2051 134.44 31.2051C133.148 31.205 131.999 30.9098 130.993 30.3193C130.004 29.7129 129.229 28.8984 128.671 27.877C128.112 26.8398 127.834 25.6827 127.834 24.4062C127.834 23.0977 128.112 21.94 128.671 20.9346C129.245 19.9291 130.012 19.139 130.97 18.5645C131.927 17.974 133.013 17.6787 134.226 17.6787ZM134.226 19.9531C133.507 19.9531 132.869 20.1369 132.311 20.5039C131.752 20.855 131.321 21.3658 131.018 22.0361C130.874 22.3468 130.772 22.69 130.711 23.0654H137.54C137.523 22.6708 137.442 22.3034 137.29 21.9639C137.035 21.3415 136.635 20.855 136.093 20.5039C135.566 20.1369 134.944 19.9532 134.226 19.9531Z" fill="#1A1A1A"/>
<path fill-rule="evenodd" clip-rule="evenodd" d="M168.891 17.6787C170.167 17.6787 171.309 17.9739 172.314 18.5645C173.336 19.139 174.142 19.9367 174.732 20.958C175.339 21.9635 175.642 23.121 175.642 24.4297C175.642 25.7383 175.339 26.9034 174.732 27.9248C174.126 28.9462 173.311 29.7523 172.29 30.3428C171.269 30.9173 170.135 31.2051 168.891 31.2051C167.646 31.2051 166.504 30.9098 165.467 30.3193C164.446 29.7289 163.632 28.9226 163.025 27.9014C162.419 26.8799 162.116 25.7224 162.116 24.4297C162.116 23.121 162.419 21.9635 163.025 20.958C163.632 19.9368 164.446 19.1389 165.467 18.5645C166.488 17.9739 167.63 17.6787 168.891 17.6787ZM168.891 20.1924C168.141 20.1924 167.462 20.3761 166.855 20.7432C166.265 21.1102 165.794 21.6128 165.443 22.251C165.108 22.8894 164.94 23.6157 164.94 24.4297C164.94 25.2435 165.108 25.9775 165.443 26.6318C165.794 27.2702 166.265 27.7736 166.855 28.1406C167.462 28.5077 168.141 28.6914 168.891 28.6914C169.657 28.6914 170.335 28.5077 170.926 28.1406C171.516 27.7736 171.979 27.2702 172.314 26.6318C172.665 25.9776 172.841 25.2435 172.841 24.4297C172.841 23.6158 172.666 22.8894 172.314 22.251C171.979 21.6127 171.516 21.1102 170.926 20.7432C170.335 20.3761 169.657 20.1924 168.891 20.1924Z" fill="#1A1A1A"/>
<path fill-rule="evenodd" clip-rule="evenodd" d="M194.636 30.918H192.074V29.2568C191.658 29.8123 191.125 30.2558 190.471 30.583C189.641 30.9979 188.731 31.2051 187.741 31.2051C186.496 31.205 185.379 30.9098 184.39 30.3193C183.416 29.7129 182.643 28.8983 182.068 27.877C181.51 26.8556 181.23 25.7064 181.23 24.4297C181.231 23.1531 181.517 22.0037 182.092 20.9824C182.666 19.9611 183.441 19.1549 184.414 18.5645C185.388 17.974 186.489 17.6787 187.718 17.6787C188.755 17.6787 189.673 17.8868 190.471 18.3018C191.056 18.6061 191.55 18.9967 191.955 19.4727V12.7959H194.636V30.918ZM188.005 20.1924C187.255 20.1924 186.576 20.3761 185.97 20.7432C185.363 21.1102 184.893 21.6136 184.558 22.252C184.223 22.8902 184.055 23.616 184.055 24.4297C184.055 25.2436 184.222 25.9785 184.558 26.6328C184.893 27.2711 185.356 27.7736 185.946 28.1406C186.553 28.5077 187.239 28.6914 188.005 28.6914C188.755 28.6914 189.425 28.5077 190.016 28.1406C190.622 27.7736 191.094 27.2712 191.429 26.6328C191.78 25.9785 191.955 25.2436 191.955 24.4297C191.955 23.6161 191.78 22.8901 191.429 22.252C191.094 21.6136 190.622 21.1102 190.016 20.7432C189.425 20.3762 188.755 20.1924 188.005 20.1924Z" fill="#1A1A1A"/>
<path d="M121.62 27.0654L124.984 17.9658H127.952L122.854 30.918H120.388L115.312 17.9658H118.257L121.62 27.0654Z" fill="#1A1A1A"/>
<path d="M160.852 12.7959C161.027 12.7959 161.227 12.8118 161.45 12.8438C161.674 12.8597 161.857 12.8831 162.001 12.915V15.2607C161.873 15.2288 161.729 15.2129 161.569 15.2129C161.41 15.197 161.282 15.1895 161.187 15.1895C160.468 15.1895 159.894 15.3573 159.463 15.6924C159.032 16.0116 158.816 16.546 158.816 17.2959V17.9668H161.785V20.4082H158.816V30.918H156.136V20.4082H153.741V17.9668H156.136V17.2959C156.136 16.3224 156.335 15.5088 156.734 14.8545C157.133 14.1842 157.684 13.6734 158.386 13.3223C159.104 12.9711 159.926 12.7959 160.852 12.7959Z" fill="#1A1A1A"/>
<path d="M179.791 30.918H177.086V12.7959H179.791V30.918Z" fill="#1A1A1A"/>
<path d="M148.093 17.6787C149.05 17.6787 149.897 17.8858 150.631 18.3008C151.365 18.7157 151.94 19.2904 152.354 20.0244C152.769 20.7586 152.977 21.6049 152.977 22.5625V30.917H150.296V23.2803C150.296 22.6262 150.176 22.0757 149.937 21.6289C149.697 21.1661 149.354 20.8146 148.907 20.5752C148.476 20.3199 147.981 20.1924 147.423 20.1924C146.864 20.1924 146.361 20.3198 145.914 20.5752C145.483 20.8146 145.149 21.1662 144.909 21.6289C144.67 22.0917 144.55 22.642 144.55 23.2803V30.917H141.845V17.9658H144.431V19.5381C144.738 19.03 145.144 18.625 145.651 18.3252C146.354 17.8944 147.167 17.6787 148.093 17.6787Z" fill="#1A1A1A"/>
<path d="M79.582 22L75.4688 29.0684L59.0234 29.0664L62.2227 23.5654L72.6455 23.5635L75.2617 25.0635L75.9834 23.8252L73.3672 22.3271L65.0361 8H71.4375L79.582 22Z" fill="#1A1A1A"/>
<path d="M71.5947 22.1328L65.1914 22.1367L59.9785 13.1797V10.1807H58.5371V13.1797L50.2002 27.5029L47 22.002L55.1455 8H63.3701L71.5947 22.1328Z" fill="#1A1A1A"/>
<path d="M62.46 20.2969L57.249 29.2598L54.6328 30.7549L55.3545 31.9951L57.9668 30.4971H74.6387L71.4375 36H55.1455L51.0352 28.9336L59.2568 14.7998L62.46 20.2969Z" stroke="#E6E2DE" stroke-width="16" stroke-linejoin="round" mask="url(#path-4-outside-1_0_1)"/>
<path d="M95.0117 12.7959C96.081 12.7959 97.0549 12.9871 97.9326 13.3701C98.8102 13.7372 99.5603 14.2481 100.183 14.9023C100.821 15.5567 101.284 16.315 101.571 17.1768L99.2246 18.2061C98.8735 17.2645 98.3233 16.5381 97.5732 16.0273C96.8391 15.5167 95.9852 15.2608 95.0117 15.2607C94.4212 15.2607 93.902 15.3648 93.4551 15.5723C93.0083 15.7638 92.6576 16.0516 92.4023 16.4346C92.1631 16.8015 92.043 17.232 92.043 17.7266C92.043 18.301 92.2268 18.812 92.5938 19.2588C92.9608 19.7057 93.5194 20.0412 94.2695 20.2646L97.3818 21.2461C98.8022 21.677 99.8717 22.2994 100.59 23.1133C101.308 23.9112 101.667 24.9087 101.667 26.1055C101.667 27.0949 101.404 27.9732 100.877 28.7393C100.366 29.5053 99.6558 30.1117 98.7461 30.5586C97.8364 30.9895 96.7829 31.2051 95.5859 31.2051C94.4688 31.2051 93.4312 30.9979 92.4736 30.583C91.5161 30.1521 90.7025 29.5691 90.0322 28.835C89.362 28.1009 88.8671 27.2553 88.5479 26.2979L90.9414 25.292C91.3723 26.3931 92.0032 27.2386 92.833 27.8291C93.6629 28.4196 94.6208 28.7148 95.7061 28.7148C96.3443 28.7148 96.9031 28.6192 97.3818 28.4277C97.8603 28.2203 98.2271 27.9332 98.4824 27.5664C98.7537 27.1994 98.8896 26.7765 98.8896 26.2979C98.8896 25.6435 98.7059 25.1242 98.3389 24.7412C97.9718 24.3583 97.429 24.0554 96.7109 23.832L93.3594 22.7783C92.0189 22.3634 90.9981 21.7325 90.2959 20.8867C89.5938 20.025 89.2423 19.02 89.2422 17.8711C89.2422 16.8656 89.4896 15.9874 89.9844 15.2373C90.4791 14.4713 91.1577 13.8723 92.0195 13.4414C92.8972 13.0107 93.8947 12.7959 95.0117 12.7959Z" stroke="#E6E2DE" stroke-width="16" stroke-linejoin="round" mask="url(#path-4-outside-1_0_1)"/>
<path fill-rule="evenodd" clip-rule="evenodd" d="M109.243 17.6787C110.217 17.6787 111.087 17.8465 111.853 18.1816C112.619 18.5168 113.265 18.9798 113.792 19.5703C114.318 20.1447 114.717 20.8069 114.988 21.5566C115.276 22.3068 115.419 23.1053 115.419 23.9512C115.419 24.1586 115.411 24.3743 115.396 24.5977C115.38 24.8209 115.348 25.0283 115.3 25.2197H105.662C105.693 25.7751 105.816 26.2777 106.035 26.7275C106.37 27.3819 106.833 27.8927 107.424 28.2598C108.03 28.6268 108.716 28.8105 109.482 28.8105C110.264 28.8105 110.927 28.6353 111.47 28.2842C112.028 27.9331 112.467 27.4783 112.786 26.9199L114.988 27.9971C114.733 28.6033 114.334 29.1539 113.792 29.6484C113.265 30.1272 112.626 30.5106 111.876 30.7979C111.142 31.0691 110.336 31.2051 109.458 31.2051C108.165 31.205 107.016 30.9098 106.011 30.3193C105.021 29.7129 104.247 28.8984 103.688 27.877C103.13 26.8398 102.852 25.6827 102.852 24.4062C102.852 23.0977 103.13 21.94 103.688 20.9346C104.263 19.9291 105.03 19.139 105.987 18.5645C106.945 17.974 108.03 17.6787 109.243 17.6787ZM109.243 19.9531C108.525 19.9531 107.887 20.1369 107.328 20.5039C106.77 20.855 106.338 21.3658 106.035 22.0361C105.891 22.3468 105.79 22.69 105.729 23.0654H112.558C112.541 22.6708 112.46 22.3034 112.308 21.9639C112.052 21.3415 111.653 20.855 111.11 20.5039C110.584 20.1369 109.961 19.9532 109.243 19.9531Z" stroke="#E6E2DE" stroke-width="16" stroke-linejoin="round" mask="url(#path-4-outside-1_0_1)"/>
<path fill-rule="evenodd" clip-rule="evenodd" d="M134.226 17.6787C135.199 17.6787 136.069 17.8465 136.835 18.1816C137.601 18.5168 138.248 18.9798 138.774 19.5703C139.301 20.1447 139.699 20.8069 139.971 21.5566C140.258 22.3068 140.401 23.1053 140.401 23.9512C140.401 24.1586 140.394 24.3743 140.378 24.5977C140.362 24.8209 140.33 25.0283 140.282 25.2197H130.645C130.675 25.7751 130.798 26.2777 131.018 26.7275C131.353 27.3819 131.816 27.8927 132.406 28.2598C133.013 28.6268 133.699 28.8105 134.465 28.8105C135.247 28.8105 135.91 28.6353 136.452 28.2842C137.011 27.9331 137.449 27.4783 137.769 26.9199L139.971 27.9971C139.715 28.6033 139.317 29.1539 138.774 29.6484C138.248 30.1272 137.609 30.5106 136.858 30.7979C136.124 31.0691 135.318 31.2051 134.44 31.2051C133.148 31.205 131.999 30.9098 130.993 30.3193C130.004 29.7129 129.229 28.8984 128.671 27.877C128.112 26.8398 127.834 25.6827 127.834 24.4062C127.834 23.0977 128.112 21.94 128.671 20.9346C129.245 19.9291 130.012 19.139 130.97 18.5645C131.927 17.974 133.013 17.6787 134.226 17.6787ZM134.226 19.9531C133.507 19.9531 132.869 20.1369 132.311 20.5039C131.752 20.855 131.321 21.3658 131.018 22.0361C130.874 22.3468 130.772 22.69 130.711 23.0654H137.54C137.523 22.6708 137.442 22.3034 137.29 21.9639C137.035 21.3415 136.635 20.855 136.093 20.5039C135.566 20.1369 134.944 19.9532 134.226 19.9531Z" stroke="#E6E2DE" stroke-width="16" stroke-linejoin="round" mask="url(#path-4-outside-1_0_1)"/>
<path fill-rule="evenodd" clip-rule="evenodd" d="M168.891 17.6787C170.167 17.6787 171.309 17.9739 172.314 18.5645C173.336 19.139 174.142 19.9367 174.732 20.958C175.339 21.9635 175.642 23.121 175.642 24.4297C175.642 25.7383 175.339 26.9034 174.732 27.9248C174.126 28.9462 173.311 29.7523 172.29 30.3428C171.269 30.9173 170.135 31.2051 168.891 31.2051C167.646 31.2051 166.504 30.9098 165.467 30.3193C164.446 29.7289 163.632 28.9226 163.025 27.9014C162.419 26.8799 162.116 25.7224 162.116 24.4297C162.116 23.121 162.419 21.9635 163.025 20.958C163.632 19.9368 164.446 19.1389 165.467 18.5645C166.488 17.9739 167.63 17.6787 168.891 17.6787ZM168.891 20.1924C168.141 20.1924 167.462 20.3761 166.855 20.7432C166.265 21.1102 165.794 21.6128 165.443 22.251C165.108 22.8894 164.94 23.6157 164.94 24.4297C164.94 25.2435 165.108 25.9775 165.443 26.6318C165.794 27.2702 166.265 27.7736 166.855 28.1406C167.462 28.5077 168.141 28.6914 168.891 28.6914C169.657 28.6914 170.335 28.5077 170.926 28.1406C171.516 27.7736 171.979 27.2702 172.314 26.6318C172.665 25.9776 172.841 25.2435 172.841 24.4297C172.841 23.6158 172.666 22.8894 172.314 22.251C171.979 21.6127 171.516 21.1102 170.926 20.7432C170.335 20.3761 169.657 20.1924 168.891 20.1924Z" stroke="#E6E2DE" stroke-width="16" stroke-linejoin="round" mask="url(#path-4-outside-1_0_1)"/>
<path fill-rule="evenodd" clip-rule="evenodd" d="M194.636 30.918H192.074V29.2568C191.658 29.8123 191.125 30.2558 190.471 30.583C189.641 30.9979 188.731 31.2051 187.741 31.2051C186.496 31.205 185.379 30.9098 184.39 30.3193C183.416 29.7129 182.643 28.8983 182.068 27.877C181.51 26.8556 181.23 25.7064 181.23 24.4297C181.231 23.1531 181.517 22.0037 182.092 20.9824C182.666 19.9611 183.441 19.1549 184.414 18.5645C185.388 17.974 186.489 17.6787 187.718 17.6787C188.755 17.6787 189.673 17.8868 190.471 18.3018C191.056 18.6061 191.55 18.9967 191.955 19.4727V12.7959H194.636V30.918ZM188.005 20.1924C187.255 20.1924 186.576 20.3761 185.97 20.7432C185.363 21.1102 184.893 21.6136 184.558 22.252C184.223 22.8902 184.055 23.616 184.055 24.4297C184.055 25.2436 184.222 25.9785 184.558 26.6328C184.893 27.2711 185.356 27.7736 185.946 28.1406C186.553 28.5077 187.239 28.6914 188.005 28.6914C188.755 28.6914 189.425 28.5077 190.016 28.1406C190.622 27.7736 191.094 27.2712 191.429 26.6328C191.78 25.9785 191.955 25.2436 191.955 24.4297C191.955 23.6161 191.78 22.8901 191.429 22.252C191.094 21.6136 190.622 21.1102 190.016 20.7432C189.425 20.3762 188.755 20.1924 188.005 20.1924Z" stroke="#E6E2DE" stroke-width="16" stroke-linejoin="round" mask="url(#path-4-outside-1_0_1)"/>
<path d="M121.62 27.0654L124.984 17.9658H127.952L122.854 30.918H120.388L115.312 17.9658H118.257L121.62 27.0654Z" stroke="#E6E2DE" stroke-width="16" stroke-linejoin="round" mask="url(#path-4-outside-1_0_1)"/>
<path d="M160.852 12.7959C161.027 12.7959 161.227 12.8118 161.45 12.8438C161.674 12.8597 161.857 12.8831 162.001 12.915V15.2607C161.873 15.2288 161.729 15.2129 161.569 15.2129C161.41 15.197 161.282 15.1895 161.187 15.1895C160.468 15.1895 159.894 15.3573 159.463 15.6924C159.032 16.0116 158.816 16.546 158.816 17.2959V17.9668H161.785V20.4082H158.816V30.918H156.136V20.4082H153.741V17.9668H156.136V17.2959C156.136 16.3224 156.335 15.5088 156.734 14.8545C157.133 14.1842 157.684 13.6734 158.386 13.3223C159.104 12.9711 159.926 12.7959 160.852 12.7959Z" stroke="#E6E2DE" stroke-width="16" stroke-linejoin="round" mask="url(#path-4-outside-1_0_1)"/>
<path d="M179.791 30.918H177.086V12.7959H179.791V30.918Z" stroke="#E6E2DE" stroke-width="16" stroke-linejoin="round" mask="url(#path-4-outside-1_0_1)"/>
<path d="M148.093 17.6787C149.05 17.6787 149.897 17.8858 150.631 18.3008C151.365 18.7157 151.94 19.2904 152.354 20.0244C152.769 20.7586 152.977 21.6049 152.977 22.5625V30.917H150.296V23.2803C150.296 22.6262 150.176 22.0757 149.937 21.6289C149.697 21.1661 149.354 20.8146 148.907 20.5752C148.476 20.3199 147.981 20.1924 147.423 20.1924C146.864 20.1924 146.361 20.3198 145.914 20.5752C145.483 20.8146 145.149 21.1662 144.909 21.6289C144.67 22.0917 144.55 22.642 144.55 23.2803V30.917H141.845V17.9658H144.431V19.5381C144.738 19.03 145.144 18.625 145.651 18.3252C146.354 17.8944 147.167 17.6787 148.093 17.6787Z" stroke="#E6E2DE" stroke-width="16" stroke-linejoin="round" mask="url(#path-4-outside-1_0_1)"/>
<path d="M79.582 22L75.4688 29.0684L59.0234 29.0664L62.2227 23.5654L72.6455 23.5635L75.2617 25.0635L75.9834 23.8252L73.3672 22.3271L65.0361 8H71.4375L79.582 22Z" stroke="#E6E2DE" stroke-width="16" stroke-linejoin="round" mask="url(#path-4-outside-1_0_1)"/>
<path d="M71.5947 22.1328L65.1914 22.1367L59.9785 13.1797V10.1807H58.5371V13.1797L50.2002 27.5029L47 22.002L55.1455 8H63.3701L71.5947 22.1328Z" stroke="#E6E2DE" stroke-width="16" stroke-linejoin="round" mask="url(#path-4-outside-1_0_1)"/>
</svg>
