<svg width="242" height="240" viewBox="0 0 242 240" fill="none" xmlns="http://www.w3.org/2000/svg">
<rect y="80" width="242" height="160" rx="12" fill="#E6E2DE"/>
<path d="M93.3822 151.432C93.3822 153.624 91.6222 155.16 88.7422 155.16C85.8462 155.16 84.0382 153.608 83.8622 151.176H86.3262C86.3902 152.44 87.2062 153.256 88.6942 153.256C89.9262 153.256 90.8062 152.712 90.8062 151.784C90.8062 151.064 90.2462 150.632 89.2702 150.44L87.3822 150.072C85.6382 149.736 84.2942 148.792 84.2942 146.888C84.2942 144.84 86.1022 143.368 88.5822 143.368C91.1582 143.368 93.0462 144.872 93.2062 147.272H90.7422C90.6622 146.072 89.8302 145.256 88.6142 145.256C87.4302 145.256 86.7582 145.928 86.7582 146.728C86.7582 147.512 87.4782 147.848 88.3102 148.008L90.2782 148.408C92.2942 148.808 93.3822 149.736 93.3822 151.432ZM98.5356 155.144C95.9756 155.144 94.2636 153.368 94.2636 150.696C94.2636 148.152 96.0396 146.296 98.5036 146.296C101.208 146.296 103 148.488 102.6 151.272H96.5356C96.6796 152.664 97.3516 153.432 98.4876 153.432C99.4636 153.432 100.12 152.952 100.376 152.104H102.584C102.104 154.04 100.616 155.144 98.5356 155.144ZM98.4556 147.928C97.4156 147.928 96.7596 148.6 96.5676 149.864H100.248C100.184 148.68 99.5116 147.928 98.4556 147.928ZM111.328 146.456L108.192 155H105.76L102.608 146.456H105.008L107.04 152.472L109.088 146.456H111.328ZM115.559 155.144C112.999 155.144 111.287 153.368 111.287 150.696C111.287 148.152 113.063 146.296 115.527 146.296C118.231 146.296 120.023 148.488 119.623 151.272H113.559C113.703 152.664 114.375 153.432 115.511 153.432C116.487 153.432 117.143 152.952 117.399 152.104H119.607C119.127 154.04 117.639 155.144 115.559 155.144ZM115.479 147.928C114.439 147.928 113.783 148.6 113.591 149.864H117.271C117.207 148.68 116.535 147.928 115.479 147.928ZM123.177 150.344V155H120.953V146.456H123.001V147.672C123.625 146.824 124.505 146.296 125.625 146.296C127.337 146.296 128.521 147.416 128.521 149.48V155H126.313V150.232C126.313 148.968 125.817 148.264 124.809 148.264C123.929 148.264 123.177 148.968 123.177 150.344ZM133.239 155H131.031V148.36H129.303V146.456H131.031V145.992C131.031 144.296 131.943 143.336 133.719 143.336C134.263 143.336 134.727 143.432 135.095 143.592V145.352C134.855 145.256 134.535 145.208 134.247 145.208C133.639 145.208 133.239 145.448 133.239 146.04V146.456H135.463V148.36H133.239V155ZM139.987 155.16C137.507 155.16 135.651 153.208 135.651 150.728C135.651 148.232 137.507 146.296 139.987 146.296C142.467 146.296 144.323 148.232 144.323 150.728C144.323 153.208 142.467 155.16 139.987 155.16ZM139.987 153.192C141.091 153.192 142.035 152.312 142.035 150.728C142.035 149.144 141.091 148.28 139.987 148.28C138.883 148.28 137.939 149.144 137.939 150.728C137.939 152.312 138.883 153.192 139.987 153.192ZM147.822 155H145.582V143.512H147.822V155ZM149.097 150.728C149.097 148.2 150.585 146.296 152.889 146.296C153.913 146.296 154.777 146.744 155.417 147.56V143.512H157.625V155H155.593V153.768C154.921 154.664 153.993 155.16 152.889 155.16C150.585 155.16 149.097 153.224 149.097 150.728ZM151.385 150.728C151.385 152.328 152.297 153.176 153.385 153.176C154.489 153.176 155.401 152.312 155.401 150.696C155.401 149.08 154.473 148.264 153.385 148.264C152.297 148.264 151.385 149.096 151.385 150.728Z" fill="#1A1A1A"/>
<path d="M59.6822 175L57.5542 167.118L55.4122 175H53.8302L51.2122 164.948H52.7242L54.6562 172.69L56.7702 164.948H58.3662L60.4522 172.704L62.3842 164.948H63.8962L61.2782 175H59.6822ZM67.3033 175.14C65.1613 175.14 63.7193 173.586 63.7193 171.248C63.7193 169.05 65.2173 167.44 67.2613 167.44C69.4733 167.44 70.9433 169.232 70.6913 171.64H65.1613C65.2733 173.152 66.0293 174.034 67.2753 174.034C68.3253 174.034 69.0533 173.46 69.2913 172.494H70.6913C70.3273 174.146 69.0533 175.14 67.3033 175.14ZM67.2333 168.504C66.0993 168.504 65.3293 169.316 65.1753 170.702H69.1933C69.1233 169.33 68.3813 168.504 67.2333 168.504ZM78.9987 171.29C78.9987 173.516 77.7107 175.14 75.7087 175.14C74.6587 175.14 73.7627 174.608 73.2307 173.67V175H71.9147V164.948H73.3287V168.854C73.8467 167.944 74.7007 167.44 75.7087 167.44C77.6967 167.44 78.9987 169.036 78.9987 171.29ZM77.5287 171.29C77.5287 169.61 76.6467 168.686 75.4287 168.686C74.2527 168.686 73.3287 169.596 73.3287 171.262C73.3287 172.9 74.2247 173.88 75.4287 173.88C76.6467 173.88 77.5287 172.942 77.5287 171.29ZM86.0323 172.788C86.0323 174.244 84.8983 175.14 82.9243 175.14C80.9643 175.14 79.8023 174.174 79.6623 172.578H81.0203C81.0763 173.502 81.8183 174.076 82.9523 174.076C83.9463 174.076 84.6043 173.726 84.6043 173.026C84.6043 172.41 84.2263 172.144 83.3023 171.962L82.0983 171.738C80.7263 171.472 79.9563 170.772 79.9563 169.652C79.9563 168.35 81.0903 167.44 82.8123 167.44C84.5903 167.44 85.7943 168.392 85.9203 169.918H84.5623C84.4783 169.022 83.8203 168.504 82.8263 168.504C81.9303 168.504 81.3283 168.882 81.3283 169.526C81.3283 170.128 81.7063 170.408 82.6023 170.576L83.8623 170.814C85.3323 171.08 86.0323 171.724 86.0323 172.788ZM89.0181 165.858C89.0181 166.39 88.5981 166.796 87.9961 166.796C87.3941 166.796 86.9601 166.39 86.9601 165.858C86.9601 165.312 87.3941 164.92 87.9961 164.92C88.5981 164.92 89.0181 165.312 89.0181 165.858ZM88.7101 175H87.2961V167.58H88.7101V175ZM94.579 173.628V174.874C94.145 175.07 93.767 175.14 93.319 175.14C91.947 175.14 90.995 174.398 90.995 172.76V168.784H89.357V167.58H90.995V165.382H92.409V167.58H94.649V168.784H92.409V172.438C92.409 173.46 92.899 173.824 93.655 173.824C93.991 173.824 94.285 173.768 94.579 173.628ZM98.5654 175.14C96.4234 175.14 94.9814 173.586 94.9814 171.248C94.9814 169.05 96.4794 167.44 98.5234 167.44C100.735 167.44 102.205 169.232 101.953 171.64H96.4234C96.5354 173.152 97.2914 174.034 98.5374 174.034C99.5874 174.034 100.315 173.46 100.553 172.494H101.953C101.589 174.146 100.315 175.14 98.5654 175.14ZM98.4954 168.504C97.3614 168.504 96.5914 169.316 96.4374 170.702H100.455C100.385 169.33 99.6434 168.504 98.4954 168.504ZM109.113 175H105.935V164.948H109.113C112.319 164.948 114.167 166.992 114.167 169.932C114.167 172.83 112.249 175 109.113 175ZM107.475 166.278V173.67H109.043C111.353 173.67 112.599 172.242 112.599 169.932C112.599 167.664 111.367 166.278 109.043 166.278H107.475ZM118.438 175.14C116.296 175.14 114.854 173.586 114.854 171.248C114.854 169.05 116.352 167.44 118.396 167.44C120.608 167.44 122.078 169.232 121.826 171.64H116.296C116.408 173.152 117.164 174.034 118.41 174.034C119.46 174.034 120.188 173.46 120.426 172.494H121.826C121.462 174.146 120.188 175.14 118.438 175.14ZM118.368 168.504C117.234 168.504 116.464 169.316 116.31 170.702H120.328C120.258 169.33 119.516 168.504 118.368 168.504ZM128.93 172.788C128.93 174.244 127.796 175.14 125.822 175.14C123.862 175.14 122.7 174.174 122.56 172.578H123.918C123.974 173.502 124.716 174.076 125.85 174.076C126.844 174.076 127.502 173.726 127.502 173.026C127.502 172.41 127.124 172.144 126.2 171.962L124.996 171.738C123.624 171.472 122.854 170.772 122.854 169.652C122.854 168.35 123.988 167.44 125.71 167.44C127.488 167.44 128.692 168.392 128.818 169.918H127.46C127.376 169.022 126.718 168.504 125.724 168.504C124.828 168.504 124.226 168.882 124.226 169.526C124.226 170.128 124.604 170.408 125.5 170.576L126.76 170.814C128.23 171.08 128.93 171.724 128.93 172.788ZM131.916 165.858C131.916 166.39 131.496 166.796 130.894 166.796C130.292 166.796 129.858 166.39 129.858 165.858C129.858 165.312 130.292 164.92 130.894 164.92C131.496 164.92 131.916 165.312 131.916 165.858ZM131.608 175H130.194V167.58H131.608V175ZM136.258 177.856C134.312 177.856 133.052 176.82 132.968 175.14H134.34C134.424 176.176 135.096 176.736 136.244 176.736C137.518 176.736 138.19 176.05 138.19 174.776V173.432C137.77 174.328 136.93 174.846 135.922 174.846C134.074 174.846 132.758 173.32 132.758 171.136C132.758 168.924 134.018 167.44 135.88 167.44C136.944 167.44 137.784 167.958 138.288 168.896V167.58H139.604V174.748C139.604 176.694 138.358 177.856 136.258 177.856ZM134.186 171.136C134.186 172.676 134.942 173.614 136.174 173.614C137.378 173.614 138.19 172.648 138.19 171.178C138.19 169.638 137.392 168.658 136.174 168.658C134.956 168.658 134.186 169.61 134.186 171.136ZM142.696 170.814V175H141.282V167.58H142.598V168.812C143.102 167.986 143.942 167.44 144.964 167.44C146.49 167.44 147.498 168.42 147.498 170.198V175H146.084V170.674C146.084 169.4 145.524 168.686 144.474 168.686C143.508 168.686 142.696 169.498 142.696 170.814ZM151.014 174.398C151.014 175.728 149.964 176.764 148.424 176.792V175.994C149.334 175.966 149.95 175.476 150.034 174.79C149.908 174.832 149.824 174.846 149.726 174.846C149.194 174.846 148.802 174.412 148.802 173.894C148.802 173.292 149.25 172.9 149.824 172.9C150.594 172.9 151.014 173.46 151.014 174.398ZM162.322 172.116C162.322 173.95 160.978 175 158.892 175H155.21V164.948H158.696C160.726 164.948 161.944 165.886 161.944 167.58C161.944 168.532 161.37 169.344 160.404 169.764C161.65 170.114 162.322 170.968 162.322 172.116ZM158.598 166.18H156.624V169.204H158.598C159.816 169.204 160.474 168.63 160.474 167.692C160.474 166.754 159.816 166.18 158.598 166.18ZM158.794 170.436H156.624V173.768H158.794C160.11 173.768 160.852 173.138 160.852 172.074C160.852 171.052 160.11 170.436 158.794 170.436ZM165.119 171.206V175H163.705V167.58H165.021V169.148C165.539 168.126 166.659 167.482 167.877 167.482V168.952C166.281 168.868 165.119 169.568 165.119 171.206ZM173.21 175V173.852C172.748 174.678 171.922 175.14 170.83 175.14C169.29 175.14 168.282 174.258 168.282 172.9C168.282 171.444 169.444 170.688 171.656 170.688C172.09 170.688 172.44 170.702 173.042 170.772V170.226C173.042 169.162 172.468 168.56 171.488 168.56C170.452 168.56 169.822 169.176 169.78 170.212H168.492C168.562 168.546 169.752 167.44 171.488 167.44C173.322 167.44 174.386 168.476 174.386 170.24V175H173.21ZM169.626 172.858C169.626 173.628 170.2 174.132 171.11 174.132C172.3 174.132 173.042 173.39 173.042 172.256V171.654C172.496 171.584 172.104 171.57 171.74 171.57C170.326 171.57 169.626 171.99 169.626 172.858ZM177.41 170.814V175H175.996V167.58H177.312V168.812C177.816 167.986 178.656 167.44 179.678 167.44C181.204 167.44 182.212 168.42 182.212 170.198V175H180.798V170.674C180.798 169.4 180.238 168.686 179.188 168.686C178.222 168.686 177.41 169.498 177.41 170.814ZM183.278 171.29C183.278 169.036 184.566 167.44 186.568 167.44C187.562 167.44 188.43 167.944 188.948 168.854V164.948H190.362V175H189.046V173.67C188.514 174.608 187.618 175.14 186.568 175.14C184.566 175.14 183.278 173.516 183.278 171.29ZM184.748 171.29C184.748 172.942 185.616 173.88 186.848 173.88C188.052 173.88 188.948 172.9 188.948 171.262C188.948 169.596 188.024 168.686 186.848 168.686C185.616 168.686 184.748 169.61 184.748 171.29ZM63.8115 192H62.2715V181.948H63.8115V192ZM65.0663 188.29C65.0663 186.036 66.3543 184.44 68.3563 184.44C69.3503 184.44 70.2183 184.944 70.7363 185.854V181.948H72.1503V192H70.8343V190.67C70.3023 191.608 69.4063 192.14 68.3563 192.14C66.3543 192.14 65.0663 190.516 65.0663 188.29ZM66.5363 188.29C66.5363 189.942 67.4043 190.88 68.6363 190.88C69.8403 190.88 70.7363 189.9 70.7363 188.262C70.7363 186.596 69.8123 185.686 68.6363 185.686C67.4043 185.686 66.5363 186.61 66.5363 188.29ZM76.8879 192.14C74.7459 192.14 73.3039 190.586 73.3039 188.248C73.3039 186.05 74.8019 184.44 76.8459 184.44C79.0579 184.44 80.5279 186.232 80.2759 188.64H74.7459C74.8579 190.152 75.6139 191.034 76.8599 191.034C77.9099 191.034 78.6379 190.46 78.8759 189.494H80.2759C79.9119 191.146 78.6379 192.14 76.8879 192.14ZM76.8179 185.504C75.6839 185.504 74.9139 186.316 74.7599 187.702H78.7779C78.7079 186.33 77.9659 185.504 76.8179 185.504ZM82.9132 187.814V192H81.4992V184.58H82.8152V185.812C83.3192 184.986 84.1592 184.44 85.1812 184.44C86.7072 184.44 87.7152 185.42 87.7152 187.198V192H86.3012V187.674C86.3012 186.4 85.7412 185.686 84.6912 185.686C83.7252 185.686 82.9132 186.498 82.9132 187.814ZM93.4716 190.628V191.874C93.0376 192.07 92.6596 192.14 92.2116 192.14C90.8396 192.14 89.8876 191.398 89.8876 189.76V185.784H88.2496V184.58H89.8876V182.382H91.3016V184.58H93.5416V185.784H91.3016V189.438C91.3016 190.46 91.7916 190.824 92.5476 190.824C92.8836 190.824 93.1776 190.768 93.4716 190.628ZM96.3331 182.858C96.3331 183.39 95.9131 183.796 95.3111 183.796C94.7091 183.796 94.2751 183.39 94.2751 182.858C94.2751 182.312 94.7091 181.92 95.3111 181.92C95.9131 181.92 96.3331 182.312 96.3331 182.858ZM96.0251 192H94.6111V184.58H96.0251V192ZM101.894 190.628V191.874C101.46 192.07 101.082 192.14 100.634 192.14C99.262 192.14 98.31 191.398 98.31 189.76V185.784H96.672V184.58H98.31V182.382H99.724V184.58H101.964V185.784H99.724V189.438C99.724 190.46 100.214 190.824 100.97 190.824C101.306 190.824 101.6 190.768 101.894 190.628ZM109.194 184.58L105.484 194.702H103.944L105.008 191.902L102.082 184.58H103.608L105.764 190.236L107.766 184.58H109.194ZM110.92 191.398C110.92 192.728 109.87 193.764 108.33 193.792V192.994C109.24 192.966 109.856 192.476 109.94 191.79C109.814 191.832 109.73 191.846 109.632 191.846C109.1 191.846 108.708 191.412 108.708 190.894C108.708 190.292 109.156 189.9 109.73 189.9C110.5 189.9 110.92 190.46 110.92 191.398ZM118.602 188.5H116.656V192H115.116V181.948H118.602C120.856 181.948 122.312 183.096 122.312 185.196C122.312 187.31 120.856 188.5 118.602 188.5ZM118.588 183.25H116.656V187.198H118.588C119.946 187.198 120.772 186.456 120.772 185.21C120.772 183.964 119.946 183.25 118.588 183.25ZM125.182 182.858C125.182 183.39 124.762 183.796 124.16 183.796C123.558 183.796 123.124 183.39 123.124 182.858C123.124 182.312 123.558 181.92 124.16 181.92C124.762 181.92 125.182 182.312 125.182 182.858ZM124.874 192H123.46V184.58H124.874V192ZM130.743 190.628V191.874C130.309 192.07 129.931 192.14 129.483 192.14C128.111 192.14 127.159 191.398 127.159 189.76V185.784H125.521V184.58H127.159V182.382H128.573V184.58H130.813V185.784H128.573V189.438C128.573 190.46 129.063 190.824 129.819 190.824C130.155 190.824 130.449 190.768 130.743 190.628ZM134.604 192.154C132.574 192.154 131.146 190.558 131.146 188.29C131.146 186.05 132.602 184.44 134.604 184.44C136.438 184.44 137.768 185.658 138.034 187.59H136.55C136.396 186.4 135.654 185.686 134.618 185.686C133.4 185.686 132.602 186.722 132.602 188.29C132.602 189.872 133.4 190.894 134.618 190.894C135.668 190.894 136.396 190.194 136.564 188.99H138.034C137.782 190.95 136.466 192.154 134.604 192.154ZM140.591 187.814V192H139.177V181.948H140.591V185.77C141.081 184.972 141.837 184.44 142.859 184.44C144.385 184.44 145.393 185.42 145.393 187.198V192H143.979V187.674C143.979 186.4 143.419 185.686 142.369 185.686C141.403 185.686 140.591 186.498 140.591 187.814ZM152.927 192H149.749V181.948H152.927C156.133 181.948 157.981 183.992 157.981 186.932C157.981 189.83 156.063 192 152.927 192ZM151.289 183.278V190.67H152.857C155.167 190.67 156.413 189.242 156.413 186.932C156.413 184.664 155.181 183.278 152.857 183.278H151.289ZM162.252 192.14C160.11 192.14 158.668 190.586 158.668 188.248C158.668 186.05 160.166 184.44 162.21 184.44C164.422 184.44 165.892 186.232 165.64 188.64H160.11C160.222 190.152 160.978 191.034 162.224 191.034C163.274 191.034 164.002 190.46 164.24 189.494H165.64C165.276 191.146 164.002 192.14 162.252 192.14ZM162.182 185.504C161.048 185.504 160.278 186.316 160.124 187.702H164.142C164.072 186.33 163.33 185.504 162.182 185.504ZM169.653 192.154C167.623 192.154 166.195 190.558 166.195 188.29C166.195 186.05 167.651 184.44 169.653 184.44C171.487 184.44 172.817 185.658 173.083 187.59H171.599C171.445 186.4 170.703 185.686 169.667 185.686C168.449 185.686 167.651 186.722 167.651 188.29C167.651 189.872 168.449 190.894 169.667 190.894C170.717 190.894 171.445 190.194 171.613 188.99H173.083C172.831 190.95 171.515 192.154 169.653 192.154ZM175.64 192H174.226V181.948H175.64V187.898L178.818 184.58H180.484L177.054 188.178L180.806 192H178.986L175.64 188.486V192Z" fill="#1A1A1A"/>
<mask id="path-4-outside-1_1195_195" maskUnits="userSpaceOnUse" x="39" y="58" width="164" height="44" fill="black">
<rect fill="white" x="39" y="58" width="164" height="44"/>
<path d="M62.46 78.2969L57.249 87.2598L54.6328 88.7549L55.3545 89.9951L57.9668 88.4971H74.6387L71.4375 94H55.1455L51.0352 86.9336L59.2568 72.7998L62.46 78.2969Z"/>
<path d="M95.0117 70.7959C96.081 70.7959 97.0549 70.9871 97.9326 71.3701C98.8102 71.7372 99.5603 72.2481 100.183 72.9023C100.821 73.5567 101.284 74.315 101.571 75.1768L99.2246 76.2061C98.8735 75.2645 98.3233 74.5381 97.5732 74.0273C96.8391 73.5167 95.9852 73.2608 95.0117 73.2607C94.4212 73.2607 93.902 73.3648 93.4551 73.5723C93.0083 73.7638 92.6576 74.0516 92.4023 74.4346C92.1631 74.8015 92.043 75.232 92.043 75.7266C92.043 76.301 92.2268 76.812 92.5938 77.2588C92.9608 77.7057 93.5194 78.0412 94.2695 78.2646L97.3818 79.2461C98.8022 79.677 99.8717 80.2994 100.59 81.1133C101.308 81.9112 101.667 82.9087 101.667 84.1055C101.667 85.0949 101.404 85.9732 100.877 86.7393C100.366 87.5053 99.6558 88.1117 98.7461 88.5586C97.8364 88.9895 96.7829 89.2051 95.5859 89.2051C94.4688 89.2051 93.4312 88.9979 92.4736 88.583C91.5161 88.1521 90.7025 87.5691 90.0322 86.835C89.362 86.1009 88.8671 85.2553 88.5479 84.2979L90.9414 83.292C91.3723 84.3931 92.0032 85.2386 92.833 85.8291C93.6629 86.4196 94.6208 86.7148 95.7061 86.7148C96.3443 86.7148 96.9031 86.6192 97.3818 86.4277C97.8603 86.2203 98.2271 85.9332 98.4824 85.5664C98.7537 85.1994 98.8896 84.7765 98.8896 84.2979C98.8896 83.6435 98.7059 83.1242 98.3389 82.7412C97.9718 82.3583 97.429 82.0554 96.7109 81.832L93.3594 80.7783C92.0189 80.3634 90.9981 79.7325 90.2959 78.8867C89.5938 78.025 89.2423 77.02 89.2422 75.8711C89.2422 74.8656 89.4896 73.9874 89.9844 73.2373C90.4791 72.4713 91.1577 71.8723 92.0195 71.4414C92.8972 71.0107 93.8947 70.7959 95.0117 70.7959Z"/>
<path fill-rule="evenodd" clip-rule="evenodd" d="M109.243 75.6787C110.217 75.6787 111.087 75.8465 111.853 76.1816C112.619 76.5168 113.265 76.9798 113.792 77.5703C114.318 78.1447 114.717 78.8069 114.988 79.5566C115.276 80.3068 115.419 81.1053 115.419 81.9512C115.419 82.1586 115.411 82.3743 115.396 82.5977C115.38 82.8209 115.348 83.0283 115.3 83.2197H105.662C105.693 83.7751 105.816 84.2777 106.035 84.7275C106.37 85.3819 106.833 85.8927 107.424 86.2598C108.03 86.6268 108.716 86.8105 109.482 86.8105C110.264 86.8105 110.927 86.6353 111.47 86.2842C112.028 85.9331 112.467 85.4783 112.786 84.9199L114.988 85.9971C114.733 86.6033 114.334 87.1539 113.792 87.6484C113.265 88.1272 112.626 88.5106 111.876 88.7979C111.142 89.0691 110.336 89.2051 109.458 89.2051C108.165 89.205 107.016 88.9098 106.011 88.3193C105.021 87.7129 104.247 86.8984 103.688 85.877C103.13 84.8398 102.852 83.6827 102.852 82.4062C102.852 81.0977 103.13 79.94 103.688 78.9346C104.263 77.9291 105.03 77.139 105.987 76.5645C106.945 75.974 108.03 75.6787 109.243 75.6787ZM109.243 77.9531C108.525 77.9531 107.887 78.1369 107.328 78.5039C106.77 78.855 106.338 79.3658 106.035 80.0361C105.891 80.3468 105.79 80.69 105.729 81.0654H112.558C112.541 80.6708 112.46 80.3034 112.308 79.9639C112.052 79.3415 111.653 78.855 111.11 78.5039C110.584 78.1369 109.961 77.9532 109.243 77.9531Z"/>
<path fill-rule="evenodd" clip-rule="evenodd" d="M134.226 75.6787C135.199 75.6787 136.069 75.8465 136.835 76.1816C137.601 76.5168 138.248 76.9798 138.774 77.5703C139.301 78.1447 139.699 78.8069 139.971 79.5566C140.258 80.3068 140.401 81.1053 140.401 81.9512C140.401 82.1586 140.394 82.3743 140.378 82.5977C140.362 82.8209 140.33 83.0283 140.282 83.2197H130.645C130.675 83.7751 130.798 84.2777 131.018 84.7275C131.353 85.3819 131.816 85.8927 132.406 86.2598C133.013 86.6268 133.699 86.8105 134.465 86.8105C135.247 86.8105 135.91 86.6353 136.452 86.2842C137.011 85.9331 137.449 85.4783 137.769 84.9199L139.971 85.9971C139.715 86.6033 139.317 87.1539 138.774 87.6484C138.248 88.1272 137.609 88.5106 136.858 88.7979C136.124 89.0691 135.318 89.2051 134.44 89.2051C133.148 89.205 131.999 88.9098 130.993 88.3193C130.004 87.7129 129.229 86.8984 128.671 85.877C128.112 84.8398 127.834 83.6827 127.834 82.4062C127.834 81.0977 128.112 79.94 128.671 78.9346C129.245 77.9291 130.012 77.139 130.97 76.5645C131.927 75.974 133.013 75.6787 134.226 75.6787ZM134.226 77.9531C133.507 77.9531 132.869 78.1369 132.311 78.5039C131.752 78.855 131.321 79.3658 131.018 80.0361C130.874 80.3468 130.772 80.69 130.711 81.0654H137.54C137.523 80.6708 137.442 80.3034 137.29 79.9639C137.035 79.3415 136.635 78.855 136.093 78.5039C135.566 78.1369 134.944 77.9532 134.226 77.9531Z"/>
<path fill-rule="evenodd" clip-rule="evenodd" d="M168.891 75.6787C170.167 75.6787 171.309 75.9739 172.314 76.5645C173.336 77.139 174.142 77.9367 174.732 78.958C175.339 79.9635 175.642 81.121 175.642 82.4297C175.642 83.7383 175.339 84.9034 174.732 85.9248C174.126 86.9462 173.311 87.7523 172.29 88.3428C171.269 88.9173 170.135 89.2051 168.891 89.2051C167.646 89.2051 166.504 88.9098 165.467 88.3193C164.446 87.7289 163.632 86.9226 163.025 85.9014C162.419 84.8799 162.116 83.7224 162.116 82.4297C162.116 81.121 162.419 79.9635 163.025 78.958C163.632 77.9368 164.446 77.1389 165.467 76.5645C166.488 75.9739 167.63 75.6787 168.891 75.6787ZM168.891 78.1924C168.141 78.1924 167.462 78.3761 166.855 78.7432C166.265 79.1102 165.794 79.6128 165.443 80.251C165.108 80.8894 164.94 81.6157 164.94 82.4297C164.94 83.2435 165.108 83.9775 165.443 84.6318C165.794 85.2702 166.265 85.7736 166.855 86.1406C167.462 86.5077 168.141 86.6914 168.891 86.6914C169.657 86.6914 170.335 86.5077 170.926 86.1406C171.516 85.7736 171.979 85.2702 172.314 84.6318C172.665 83.9776 172.841 83.2435 172.841 82.4297C172.841 81.6158 172.666 80.8894 172.314 80.251C171.979 79.6127 171.516 79.1102 170.926 78.7432C170.335 78.3761 169.657 78.1924 168.891 78.1924Z"/>
<path fill-rule="evenodd" clip-rule="evenodd" d="M194.636 88.918H192.074V87.2568C191.658 87.8123 191.125 88.2558 190.471 88.583C189.641 88.9979 188.731 89.2051 187.741 89.2051C186.496 89.205 185.379 88.9098 184.39 88.3193C183.416 87.7129 182.643 86.8983 182.068 85.877C181.51 84.8556 181.23 83.7064 181.23 82.4297C181.231 81.1531 181.517 80.0037 182.092 78.9824C182.666 77.9611 183.441 77.1549 184.414 76.5645C185.388 75.974 186.489 75.6787 187.718 75.6787C188.755 75.6787 189.673 75.8868 190.471 76.3018C191.056 76.6061 191.55 76.9967 191.955 77.4727V70.7959H194.636V88.918ZM188.005 78.1924C187.255 78.1924 186.576 78.3761 185.97 78.7432C185.363 79.1102 184.893 79.6136 184.558 80.252C184.223 80.8902 184.055 81.616 184.055 82.4297C184.055 83.2436 184.222 83.9785 184.558 84.6328C184.893 85.2711 185.356 85.7736 185.946 86.1406C186.553 86.5077 187.239 86.6914 188.005 86.6914C188.755 86.6914 189.425 86.5077 190.016 86.1406C190.622 85.7736 191.094 85.2712 191.429 84.6328C191.78 83.9785 191.955 83.2436 191.955 82.4297C191.955 81.6161 191.78 80.8901 191.429 80.252C191.094 79.6136 190.622 79.1102 190.016 78.7432C189.425 78.3762 188.755 78.1924 188.005 78.1924Z"/>
<path d="M121.62 85.0654L124.984 75.9658H127.952L122.854 88.918H120.388L115.312 75.9658H118.257L121.62 85.0654Z"/>
<path d="M160.852 70.7959C161.027 70.7959 161.227 70.8118 161.45 70.8438C161.674 70.8597 161.857 70.8831 162.001 70.915V73.2607C161.873 73.2288 161.729 73.2129 161.569 73.2129C161.41 73.197 161.282 73.1895 161.187 73.1895C160.468 73.1895 159.894 73.3573 159.463 73.6924C159.032 74.0116 158.816 74.546 158.816 75.2959V75.9668H161.785V78.4082H158.816V88.918H156.136V78.4082H153.741V75.9668H156.136V75.2959C156.136 74.3224 156.335 73.5088 156.734 72.8545C157.133 72.1842 157.684 71.6734 158.386 71.3223C159.104 70.9711 159.926 70.7959 160.852 70.7959Z"/>
<path d="M179.791 88.918H177.086V70.7959H179.791V88.918Z"/>
<path d="M148.093 75.6787C149.05 75.6787 149.897 75.8858 150.631 76.3008C151.365 76.7157 151.94 77.2904 152.354 78.0244C152.769 78.7586 152.977 79.6049 152.977 80.5625V88.917H150.296V81.2803C150.296 80.6262 150.176 80.0757 149.937 79.6289C149.697 79.1661 149.354 78.8146 148.907 78.5752C148.476 78.3199 147.981 78.1924 147.423 78.1924C146.864 78.1924 146.361 78.3198 145.914 78.5752C145.483 78.8146 145.149 79.1662 144.909 79.6289C144.67 80.0917 144.55 80.642 144.55 81.2803V88.917H141.845V75.9658H144.431V77.5381C144.738 77.03 145.144 76.625 145.651 76.3252C146.354 75.8944 147.167 75.6787 148.093 75.6787Z"/>
<path d="M79.582 80L75.4688 87.0684L59.0234 87.0664L62.2227 81.5654L72.6455 81.5635L75.2617 83.0635L75.9834 81.8252L73.3672 80.3271L65.0361 66H71.4375L79.582 80Z"/>
<path d="M71.5947 80.1328L65.1914 80.1367L59.9785 71.1797V68.1807H58.5371V71.1797L50.2002 85.5029L47 80.002L55.1455 66H63.3701L71.5947 80.1328Z"/>
</mask>
<path d="M62.46 78.2969L57.249 87.2598L54.6328 88.7549L55.3545 89.9951L57.9668 88.4971H74.6387L71.4375 94H55.1455L51.0352 86.9336L59.2568 72.7998L62.46 78.2969Z" fill="#1A1A1A"/>
<path d="M95.0117 70.7959C96.081 70.7959 97.0549 70.9871 97.9326 71.3701C98.8102 71.7372 99.5603 72.2481 100.183 72.9023C100.821 73.5567 101.284 74.315 101.571 75.1768L99.2246 76.2061C98.8735 75.2645 98.3233 74.5381 97.5732 74.0273C96.8391 73.5167 95.9852 73.2608 95.0117 73.2607C94.4212 73.2607 93.902 73.3648 93.4551 73.5723C93.0083 73.7638 92.6576 74.0516 92.4023 74.4346C92.1631 74.8015 92.043 75.232 92.043 75.7266C92.043 76.301 92.2268 76.812 92.5938 77.2588C92.9608 77.7057 93.5194 78.0412 94.2695 78.2646L97.3818 79.2461C98.8022 79.677 99.8717 80.2994 100.59 81.1133C101.308 81.9112 101.667 82.9087 101.667 84.1055C101.667 85.0949 101.404 85.9732 100.877 86.7393C100.366 87.5053 99.6558 88.1117 98.7461 88.5586C97.8364 88.9895 96.7829 89.2051 95.5859 89.2051C94.4688 89.2051 93.4312 88.9979 92.4736 88.583C91.5161 88.1521 90.7025 87.5691 90.0322 86.835C89.362 86.1009 88.8671 85.2553 88.5479 84.2979L90.9414 83.292C91.3723 84.3931 92.0032 85.2386 92.833 85.8291C93.6629 86.4196 94.6208 86.7148 95.7061 86.7148C96.3443 86.7148 96.9031 86.6192 97.3818 86.4277C97.8603 86.2203 98.2271 85.9332 98.4824 85.5664C98.7537 85.1994 98.8896 84.7765 98.8896 84.2979C98.8896 83.6435 98.7059 83.1242 98.3389 82.7412C97.9718 82.3583 97.429 82.0554 96.7109 81.832L93.3594 80.7783C92.0189 80.3634 90.9981 79.7325 90.2959 78.8867C89.5938 78.025 89.2423 77.02 89.2422 75.8711C89.2422 74.8656 89.4896 73.9874 89.9844 73.2373C90.4791 72.4713 91.1577 71.8723 92.0195 71.4414C92.8972 71.0107 93.8947 70.7959 95.0117 70.7959Z" fill="#1A1A1A"/>
<path fill-rule="evenodd" clip-rule="evenodd" d="M109.243 75.6787C110.217 75.6787 111.087 75.8465 111.853 76.1816C112.619 76.5168 113.265 76.9798 113.792 77.5703C114.318 78.1447 114.717 78.8069 114.988 79.5566C115.276 80.3068 115.419 81.1053 115.419 81.9512C115.419 82.1586 115.411 82.3743 115.396 82.5977C115.38 82.8209 115.348 83.0283 115.3 83.2197H105.662C105.693 83.7751 105.816 84.2777 106.035 84.7275C106.37 85.3819 106.833 85.8927 107.424 86.2598C108.03 86.6268 108.716 86.8105 109.482 86.8105C110.264 86.8105 110.927 86.6353 111.47 86.2842C112.028 85.9331 112.467 85.4783 112.786 84.9199L114.988 85.9971C114.733 86.6033 114.334 87.1539 113.792 87.6484C113.265 88.1272 112.626 88.5106 111.876 88.7979C111.142 89.0691 110.336 89.2051 109.458 89.2051C108.165 89.205 107.016 88.9098 106.011 88.3193C105.021 87.7129 104.247 86.8984 103.688 85.877C103.13 84.8398 102.852 83.6827 102.852 82.4062C102.852 81.0977 103.13 79.94 103.688 78.9346C104.263 77.9291 105.03 77.139 105.987 76.5645C106.945 75.974 108.03 75.6787 109.243 75.6787ZM109.243 77.9531C108.525 77.9531 107.887 78.1369 107.328 78.5039C106.77 78.855 106.338 79.3658 106.035 80.0361C105.891 80.3468 105.79 80.69 105.729 81.0654H112.558C112.541 80.6708 112.46 80.3034 112.308 79.9639C112.052 79.3415 111.653 78.855 111.11 78.5039C110.584 78.1369 109.961 77.9532 109.243 77.9531Z" fill="#1A1A1A"/>
<path fill-rule="evenodd" clip-rule="evenodd" d="M134.226 75.6787C135.199 75.6787 136.069 75.8465 136.835 76.1816C137.601 76.5168 138.248 76.9798 138.774 77.5703C139.301 78.1447 139.699 78.8069 139.971 79.5566C140.258 80.3068 140.401 81.1053 140.401 81.9512C140.401 82.1586 140.394 82.3743 140.378 82.5977C140.362 82.8209 140.33 83.0283 140.282 83.2197H130.645C130.675 83.7751 130.798 84.2777 131.018 84.7275C131.353 85.3819 131.816 85.8927 132.406 86.2598C133.013 86.6268 133.699 86.8105 134.465 86.8105C135.247 86.8105 135.91 86.6353 136.452 86.2842C137.011 85.9331 137.449 85.4783 137.769 84.9199L139.971 85.9971C139.715 86.6033 139.317 87.1539 138.774 87.6484C138.248 88.1272 137.609 88.5106 136.858 88.7979C136.124 89.0691 135.318 89.2051 134.44 89.2051C133.148 89.205 131.999 88.9098 130.993 88.3193C130.004 87.7129 129.229 86.8984 128.671 85.877C128.112 84.8398 127.834 83.6827 127.834 82.4062C127.834 81.0977 128.112 79.94 128.671 78.9346C129.245 77.9291 130.012 77.139 130.97 76.5645C131.927 75.974 133.013 75.6787 134.226 75.6787ZM134.226 77.9531C133.507 77.9531 132.869 78.1369 132.311 78.5039C131.752 78.855 131.321 79.3658 131.018 80.0361C130.874 80.3468 130.772 80.69 130.711 81.0654H137.54C137.523 80.6708 137.442 80.3034 137.29 79.9639C137.035 79.3415 136.635 78.855 136.093 78.5039C135.566 78.1369 134.944 77.9532 134.226 77.9531Z" fill="#1A1A1A"/>
<path fill-rule="evenodd" clip-rule="evenodd" d="M168.891 75.6787C170.167 75.6787 171.309 75.9739 172.314 76.5645C173.336 77.139 174.142 77.9367 174.732 78.958C175.339 79.9635 175.642 81.121 175.642 82.4297C175.642 83.7383 175.339 84.9034 174.732 85.9248C174.126 86.9462 173.311 87.7523 172.29 88.3428C171.269 88.9173 170.135 89.2051 168.891 89.2051C167.646 89.2051 166.504 88.9098 165.467 88.3193C164.446 87.7289 163.632 86.9226 163.025 85.9014C162.419 84.8799 162.116 83.7224 162.116 82.4297C162.116 81.121 162.419 79.9635 163.025 78.958C163.632 77.9368 164.446 77.1389 165.467 76.5645C166.488 75.9739 167.63 75.6787 168.891 75.6787ZM168.891 78.1924C168.141 78.1924 167.462 78.3761 166.855 78.7432C166.265 79.1102 165.794 79.6128 165.443 80.251C165.108 80.8894 164.94 81.6157 164.94 82.4297C164.94 83.2435 165.108 83.9775 165.443 84.6318C165.794 85.2702 166.265 85.7736 166.855 86.1406C167.462 86.5077 168.141 86.6914 168.891 86.6914C169.657 86.6914 170.335 86.5077 170.926 86.1406C171.516 85.7736 171.979 85.2702 172.314 84.6318C172.665 83.9776 172.841 83.2435 172.841 82.4297C172.841 81.6158 172.666 80.8894 172.314 80.251C171.979 79.6127 171.516 79.1102 170.926 78.7432C170.335 78.3761 169.657 78.1924 168.891 78.1924Z" fill="#1A1A1A"/>
<path fill-rule="evenodd" clip-rule="evenodd" d="M194.636 88.918H192.074V87.2568C191.658 87.8123 191.125 88.2558 190.471 88.583C189.641 88.9979 188.731 89.2051 187.741 89.2051C186.496 89.205 185.379 88.9098 184.39 88.3193C183.416 87.7129 182.643 86.8983 182.068 85.877C181.51 84.8556 181.23 83.7064 181.23 82.4297C181.231 81.1531 181.517 80.0037 182.092 78.9824C182.666 77.9611 183.441 77.1549 184.414 76.5645C185.388 75.974 186.489 75.6787 187.718 75.6787C188.755 75.6787 189.673 75.8868 190.471 76.3018C191.056 76.6061 191.55 76.9967 191.955 77.4727V70.7959H194.636V88.918ZM188.005 78.1924C187.255 78.1924 186.576 78.3761 185.97 78.7432C185.363 79.1102 184.893 79.6136 184.558 80.252C184.223 80.8902 184.055 81.616 184.055 82.4297C184.055 83.2436 184.222 83.9785 184.558 84.6328C184.893 85.2711 185.356 85.7736 185.946 86.1406C186.553 86.5077 187.239 86.6914 188.005 86.6914C188.755 86.6914 189.425 86.5077 190.016 86.1406C190.622 85.7736 191.094 85.2712 191.429 84.6328C191.78 83.9785 191.955 83.2436 191.955 82.4297C191.955 81.6161 191.78 80.8901 191.429 80.252C191.094 79.6136 190.622 79.1102 190.016 78.7432C189.425 78.3762 188.755 78.1924 188.005 78.1924Z" fill="#1A1A1A"/>
<path d="M121.62 85.0654L124.984 75.9658H127.952L122.854 88.918H120.388L115.312 75.9658H118.257L121.62 85.0654Z" fill="#1A1A1A"/>
<path d="M160.852 70.7959C161.027 70.7959 161.227 70.8118 161.45 70.8438C161.674 70.8597 161.857 70.8831 162.001 70.915V73.2607C161.873 73.2288 161.729 73.2129 161.569 73.2129C161.41 73.197 161.282 73.1895 161.187 73.1895C160.468 73.1895 159.894 73.3573 159.463 73.6924C159.032 74.0116 158.816 74.546 158.816 75.2959V75.9668H161.785V78.4082H158.816V88.918H156.136V78.4082H153.741V75.9668H156.136V75.2959C156.136 74.3224 156.335 73.5088 156.734 72.8545C157.133 72.1842 157.684 71.6734 158.386 71.3223C159.104 70.9711 159.926 70.7959 160.852 70.7959Z" fill="#1A1A1A"/>
<path d="M179.791 88.918H177.086V70.7959H179.791V88.918Z" fill="#1A1A1A"/>
<path d="M148.093 75.6787C149.05 75.6787 149.897 75.8858 150.631 76.3008C151.365 76.7157 151.94 77.2904 152.354 78.0244C152.769 78.7586 152.977 79.6049 152.977 80.5625V88.917H150.296V81.2803C150.296 80.6262 150.176 80.0757 149.937 79.6289C149.697 79.1661 149.354 78.8146 148.907 78.5752C148.476 78.3199 147.981 78.1924 147.423 78.1924C146.864 78.1924 146.361 78.3198 145.914 78.5752C145.483 78.8146 145.149 79.1662 144.909 79.6289C144.67 80.0917 144.55 80.642 144.55 81.2803V88.917H141.845V75.9658H144.431V77.5381C144.738 77.03 145.144 76.625 145.651 76.3252C146.354 75.8944 147.167 75.6787 148.093 75.6787Z" fill="#1A1A1A"/>
<path d="M79.582 80L75.4688 87.0684L59.0234 87.0664L62.2227 81.5654L72.6455 81.5635L75.2617 83.0635L75.9834 81.8252L73.3672 80.3271L65.0361 66H71.4375L79.582 80Z" fill="#1A1A1A"/>
<path d="M71.5947 80.1328L65.1914 80.1367L59.9785 71.1797V68.1807H58.5371V71.1797L50.2002 85.5029L47 80.002L55.1455 66H63.3701L71.5947 80.1328Z" fill="#1A1A1A"/>
<path d="M62.46 78.2969L57.249 87.2598L54.6328 88.7549L55.3545 89.9951L57.9668 88.4971H74.6387L71.4375 94H55.1455L51.0352 86.9336L59.2568 72.7998L62.46 78.2969Z" stroke="#E6E2DE" stroke-width="16" stroke-linejoin="round" mask="url(#path-4-outside-1_1195_195)"/>
<path d="M95.0117 70.7959C96.081 70.7959 97.0549 70.9871 97.9326 71.3701C98.8102 71.7372 99.5603 72.2481 100.183 72.9023C100.821 73.5567 101.284 74.315 101.571 75.1768L99.2246 76.2061C98.8735 75.2645 98.3233 74.5381 97.5732 74.0273C96.8391 73.5167 95.9852 73.2608 95.0117 73.2607C94.4212 73.2607 93.902 73.3648 93.4551 73.5723C93.0083 73.7638 92.6576 74.0516 92.4023 74.4346C92.1631 74.8015 92.043 75.232 92.043 75.7266C92.043 76.301 92.2268 76.812 92.5938 77.2588C92.9608 77.7057 93.5194 78.0412 94.2695 78.2646L97.3818 79.2461C98.8022 79.677 99.8717 80.2994 100.59 81.1133C101.308 81.9112 101.667 82.9087 101.667 84.1055C101.667 85.0949 101.404 85.9732 100.877 86.7393C100.366 87.5053 99.6558 88.1117 98.7461 88.5586C97.8364 88.9895 96.7829 89.2051 95.5859 89.2051C94.4688 89.2051 93.4312 88.9979 92.4736 88.583C91.5161 88.1521 90.7025 87.5691 90.0322 86.835C89.362 86.1009 88.8671 85.2553 88.5479 84.2979L90.9414 83.292C91.3723 84.3931 92.0032 85.2386 92.833 85.8291C93.6629 86.4196 94.6208 86.7148 95.7061 86.7148C96.3443 86.7148 96.9031 86.6192 97.3818 86.4277C97.8603 86.2203 98.2271 85.9332 98.4824 85.5664C98.7537 85.1994 98.8896 84.7765 98.8896 84.2979C98.8896 83.6435 98.7059 83.1242 98.3389 82.7412C97.9718 82.3583 97.429 82.0554 96.7109 81.832L93.3594 80.7783C92.0189 80.3634 90.9981 79.7325 90.2959 78.8867C89.5938 78.025 89.2423 77.02 89.2422 75.8711C89.2422 74.8656 89.4896 73.9874 89.9844 73.2373C90.4791 72.4713 91.1577 71.8723 92.0195 71.4414C92.8972 71.0107 93.8947 70.7959 95.0117 70.7959Z" stroke="#E6E2DE" stroke-width="16" stroke-linejoin="round" mask="url(#path-4-outside-1_1195_195)"/>
<path fill-rule="evenodd" clip-rule="evenodd" d="M109.243 75.6787C110.217 75.6787 111.087 75.8465 111.853 76.1816C112.619 76.5168 113.265 76.9798 113.792 77.5703C114.318 78.1447 114.717 78.8069 114.988 79.5566C115.276 80.3068 115.419 81.1053 115.419 81.9512C115.419 82.1586 115.411 82.3743 115.396 82.5977C115.38 82.8209 115.348 83.0283 115.3 83.2197H105.662C105.693 83.7751 105.816 84.2777 106.035 84.7275C106.37 85.3819 106.833 85.8927 107.424 86.2598C108.03 86.6268 108.716 86.8105 109.482 86.8105C110.264 86.8105 110.927 86.6353 111.47 86.2842C112.028 85.9331 112.467 85.4783 112.786 84.9199L114.988 85.9971C114.733 86.6033 114.334 87.1539 113.792 87.6484C113.265 88.1272 112.626 88.5106 111.876 88.7979C111.142 89.0691 110.336 89.2051 109.458 89.2051C108.165 89.205 107.016 88.9098 106.011 88.3193C105.021 87.7129 104.247 86.8984 103.688 85.877C103.13 84.8398 102.852 83.6827 102.852 82.4062C102.852 81.0977 103.13 79.94 103.688 78.9346C104.263 77.9291 105.03 77.139 105.987 76.5645C106.945 75.974 108.03 75.6787 109.243 75.6787ZM109.243 77.9531C108.525 77.9531 107.887 78.1369 107.328 78.5039C106.77 78.855 106.338 79.3658 106.035 80.0361C105.891 80.3468 105.79 80.69 105.729 81.0654H112.558C112.541 80.6708 112.46 80.3034 112.308 79.9639C112.052 79.3415 111.653 78.855 111.11 78.5039C110.584 78.1369 109.961 77.9532 109.243 77.9531Z" stroke="#E6E2DE" stroke-width="16" stroke-linejoin="round" mask="url(#path-4-outside-1_1195_195)"/>
<path fill-rule="evenodd" clip-rule="evenodd" d="M134.226 75.6787C135.199 75.6787 136.069 75.8465 136.835 76.1816C137.601 76.5168 138.248 76.9798 138.774 77.5703C139.301 78.1447 139.699 78.8069 139.971 79.5566C140.258 80.3068 140.401 81.1053 140.401 81.9512C140.401 82.1586 140.394 82.3743 140.378 82.5977C140.362 82.8209 140.33 83.0283 140.282 83.2197H130.645C130.675 83.7751 130.798 84.2777 131.018 84.7275C131.353 85.3819 131.816 85.8927 132.406 86.2598C133.013 86.6268 133.699 86.8105 134.465 86.8105C135.247 86.8105 135.91 86.6353 136.452 86.2842C137.011 85.9331 137.449 85.4783 137.769 84.9199L139.971 85.9971C139.715 86.6033 139.317 87.1539 138.774 87.6484C138.248 88.1272 137.609 88.5106 136.858 88.7979C136.124 89.0691 135.318 89.2051 134.44 89.2051C133.148 89.205 131.999 88.9098 130.993 88.3193C130.004 87.7129 129.229 86.8984 128.671 85.877C128.112 84.8398 127.834 83.6827 127.834 82.4062C127.834 81.0977 128.112 79.94 128.671 78.9346C129.245 77.9291 130.012 77.139 130.97 76.5645C131.927 75.974 133.013 75.6787 134.226 75.6787ZM134.226 77.9531C133.507 77.9531 132.869 78.1369 132.311 78.5039C131.752 78.855 131.321 79.3658 131.018 80.0361C130.874 80.3468 130.772 80.69 130.711 81.0654H137.54C137.523 80.6708 137.442 80.3034 137.29 79.9639C137.035 79.3415 136.635 78.855 136.093 78.5039C135.566 78.1369 134.944 77.9532 134.226 77.9531Z" stroke="#E6E2DE" stroke-width="16" stroke-linejoin="round" mask="url(#path-4-outside-1_1195_195)"/>
<path fill-rule="evenodd" clip-rule="evenodd" d="M168.891 75.6787C170.167 75.6787 171.309 75.9739 172.314 76.5645C173.336 77.139 174.142 77.9367 174.732 78.958C175.339 79.9635 175.642 81.121 175.642 82.4297C175.642 83.7383 175.339 84.9034 174.732 85.9248C174.126 86.9462 173.311 87.7523 172.29 88.3428C171.269 88.9173 170.135 89.2051 168.891 89.2051C167.646 89.2051 166.504 88.9098 165.467 88.3193C164.446 87.7289 163.632 86.9226 163.025 85.9014C162.419 84.8799 162.116 83.7224 162.116 82.4297C162.116 81.121 162.419 79.9635 163.025 78.958C163.632 77.9368 164.446 77.1389 165.467 76.5645C166.488 75.9739 167.63 75.6787 168.891 75.6787ZM168.891 78.1924C168.141 78.1924 167.462 78.3761 166.855 78.7432C166.265 79.1102 165.794 79.6128 165.443 80.251C165.108 80.8894 164.94 81.6157 164.94 82.4297C164.94 83.2435 165.108 83.9775 165.443 84.6318C165.794 85.2702 166.265 85.7736 166.855 86.1406C167.462 86.5077 168.141 86.6914 168.891 86.6914C169.657 86.6914 170.335 86.5077 170.926 86.1406C171.516 85.7736 171.979 85.2702 172.314 84.6318C172.665 83.9776 172.841 83.2435 172.841 82.4297C172.841 81.6158 172.666 80.8894 172.314 80.251C171.979 79.6127 171.516 79.1102 170.926 78.7432C170.335 78.3761 169.657 78.1924 168.891 78.1924Z" stroke="#E6E2DE" stroke-width="16" stroke-linejoin="round" mask="url(#path-4-outside-1_1195_195)"/>
<path fill-rule="evenodd" clip-rule="evenodd" d="M194.636 88.918H192.074V87.2568C191.658 87.8123 191.125 88.2558 190.471 88.583C189.641 88.9979 188.731 89.2051 187.741 89.2051C186.496 89.205 185.379 88.9098 184.39 88.3193C183.416 87.7129 182.643 86.8983 182.068 85.877C181.51 84.8556 181.23 83.7064 181.23 82.4297C181.231 81.1531 181.517 80.0037 182.092 78.9824C182.666 77.9611 183.441 77.1549 184.414 76.5645C185.388 75.974 186.489 75.6787 187.718 75.6787C188.755 75.6787 189.673 75.8868 190.471 76.3018C191.056 76.6061 191.55 76.9967 191.955 77.4727V70.7959H194.636V88.918ZM188.005 78.1924C187.255 78.1924 186.576 78.3761 185.97 78.7432C185.363 79.1102 184.893 79.6136 184.558 80.252C184.223 80.8902 184.055 81.616 184.055 82.4297C184.055 83.2436 184.222 83.9785 184.558 84.6328C184.893 85.2711 185.356 85.7736 185.946 86.1406C186.553 86.5077 187.239 86.6914 188.005 86.6914C188.755 86.6914 189.425 86.5077 190.016 86.1406C190.622 85.7736 191.094 85.2712 191.429 84.6328C191.78 83.9785 191.955 83.2436 191.955 82.4297C191.955 81.6161 191.78 80.8901 191.429 80.252C191.094 79.6136 190.622 79.1102 190.016 78.7432C189.425 78.3762 188.755 78.1924 188.005 78.1924Z" stroke="#E6E2DE" stroke-width="16" stroke-linejoin="round" mask="url(#path-4-outside-1_1195_195)"/>
<path d="M121.62 85.0654L124.984 75.9658H127.952L122.854 88.918H120.388L115.312 75.9658H118.257L121.62 85.0654Z" stroke="#E6E2DE" stroke-width="16" stroke-linejoin="round" mask="url(#path-4-outside-1_1195_195)"/>
<path d="M160.852 70.7959C161.027 70.7959 161.227 70.8118 161.45 70.8438C161.674 70.8597 161.857 70.8831 162.001 70.915V73.2607C161.873 73.2288 161.729 73.2129 161.569 73.2129C161.41 73.197 161.282 73.1895 161.187 73.1895C160.468 73.1895 159.894 73.3573 159.463 73.6924C159.032 74.0116 158.816 74.546 158.816 75.2959V75.9668H161.785V78.4082H158.816V88.918H156.136V78.4082H153.741V75.9668H156.136V75.2959C156.136 74.3224 156.335 73.5088 156.734 72.8545C157.133 72.1842 157.684 71.6734 158.386 71.3223C159.104 70.9711 159.926 70.7959 160.852 70.7959Z" stroke="#E6E2DE" stroke-width="16" stroke-linejoin="round" mask="url(#path-4-outside-1_1195_195)"/>
<path d="M179.791 88.918H177.086V70.7959H179.791V88.918Z" stroke="#E6E2DE" stroke-width="16" stroke-linejoin="round" mask="url(#path-4-outside-1_1195_195)"/>
<path d="M148.093 75.6787C149.05 75.6787 149.897 75.8858 150.631 76.3008C151.365 76.7157 151.94 77.2904 152.354 78.0244C152.769 78.7586 152.977 79.6049 152.977 80.5625V88.917H150.296V81.2803C150.296 80.6262 150.176 80.0757 149.937 79.6289C149.697 79.1661 149.354 78.8146 148.907 78.5752C148.476 78.3199 147.981 78.1924 147.423 78.1924C146.864 78.1924 146.361 78.3198 145.914 78.5752C145.483 78.8146 145.149 79.1662 144.909 79.6289C144.67 80.0917 144.55 80.642 144.55 81.2803V88.917H141.845V75.9658H144.431V77.5381C144.738 77.03 145.144 76.625 145.651 76.3252C146.354 75.8944 147.167 75.6787 148.093 75.6787Z" stroke="#E6E2DE" stroke-width="16" stroke-linejoin="round" mask="url(#path-4-outside-1_1195_195)"/>
<path d="M79.582 80L75.4688 87.0684L59.0234 87.0664L62.2227 81.5654L72.6455 81.5635L75.2617 83.0635L75.9834 81.8252L73.3672 80.3271L65.0361 66H71.4375L79.582 80Z" stroke="#E6E2DE" stroke-width="16" stroke-linejoin="round" mask="url(#path-4-outside-1_1195_195)"/>
<path d="M71.5947 80.1328L65.1914 80.1367L59.9785 71.1797V68.1807H58.5371V71.1797L50.2002 85.5029L47 80.002L55.1455 66H63.3701L71.5947 80.1328Z" stroke="#E6E2DE" stroke-width="16" stroke-linejoin="round" mask="url(#path-4-outside-1_1195_195)"/>
</svg>
