<svg width="242" height="181" viewBox="0 0 242 181" fill="none" xmlns="http://www.w3.org/2000/svg">
<rect y="21" width="242" height="160" rx="12" fill="#E6E2DE"/>
<path d="M104.595 92.7269C104.595 94.9189 102.835 96.4549 99.9553 96.4549C97.0593 96.4549 95.2513 94.9029 95.0753 92.4709H97.5393C97.6033 93.7349 98.4193 94.5509 99.9073 94.5509C101.139 94.5509 102.019 94.0069 102.019 93.0789C102.019 92.3589 101.459 91.9269 100.483 91.7349L98.5953 91.3669C96.8513 91.0309 95.5073 90.0869 95.5073 88.1829C95.5073 86.1349 97.3153 84.6629 99.7953 84.6629C102.371 84.6629 104.259 86.1669 104.419 88.5669H101.955C101.875 87.3669 101.043 86.5509 99.8273 86.5509C98.6433 86.5509 97.9713 87.2229 97.9713 88.0229C97.9713 88.8069 98.6913 89.1429 99.5233 89.3029L101.491 89.7029C103.507 90.1029 104.595 91.0309 104.595 92.7269ZM111.159 92.6949V87.7509H113.367V96.2949H111.335V95.1749C110.871 95.9269 109.927 96.4549 108.839 96.4549C107.127 96.4549 105.879 95.4149 105.879 93.1909V87.7509H108.103V92.7589C108.103 93.9589 108.695 94.4869 109.591 94.4869C110.391 94.4869 111.159 93.8469 111.159 92.6949ZM123.733 92.0229C123.733 94.5509 122.245 96.4549 119.941 96.4549C118.933 96.4549 118.069 96.0229 117.429 95.1909V99.3829H115.205V87.7509H117.253V88.9989C117.909 88.0869 118.853 87.5909 119.941 87.5909C122.245 87.5909 123.733 89.5109 123.733 92.0229ZM121.445 92.0229C121.445 90.4229 120.533 89.5589 119.445 89.5589C118.357 89.5589 117.445 90.4069 117.445 92.0229C117.445 93.6389 118.357 94.4709 119.445 94.4709C120.533 94.4709 121.445 93.6549 121.445 92.0229ZM133.526 92.0229C133.526 94.5509 132.038 96.4549 129.734 96.4549C128.726 96.4549 127.862 96.0229 127.222 95.1909V99.3829H124.998V87.7509H127.046V88.9989C127.702 88.0869 128.646 87.5909 129.734 87.5909C132.038 87.5909 133.526 89.5109 133.526 92.0229ZM131.238 92.0229C131.238 90.4229 130.326 89.5589 129.238 89.5589C128.15 89.5589 127.238 90.4069 127.238 92.0229C127.238 93.6389 128.15 94.4709 129.238 94.4709C130.326 94.4709 131.238 93.6549 131.238 92.0229ZM137.031 96.2949H134.791V84.8069H137.031V96.2949ZM142.641 96.4549C140.161 96.4549 138.305 94.5029 138.305 92.0229C138.305 89.5269 140.161 87.5909 142.641 87.5909C145.121 87.5909 146.977 89.5269 146.977 92.0229C146.977 94.5029 145.121 96.4549 142.641 96.4549ZM142.641 94.4869C143.745 94.4869 144.689 93.6069 144.689 92.0229C144.689 90.4389 143.745 89.5749 142.641 89.5749C141.537 89.5749 140.593 90.4389 140.593 92.0229C140.593 93.6069 141.537 94.4869 142.641 94.4869Z" fill="#1A1A1A"/>
<path d="M81.0182 116.295L78.8902 108.413L76.7482 116.295H75.1662L72.5482 106.243H74.0602L75.9922 113.985L78.1062 106.243H79.7022L81.7882 113.999L83.7202 106.243H85.2322L82.6142 116.295H81.0182ZM88.6394 116.435C86.4974 116.435 85.0554 114.881 85.0554 112.543C85.0554 110.345 86.5534 108.735 88.5974 108.735C90.8094 108.735 92.2794 110.527 92.0274 112.935H86.4974C86.6094 114.447 87.3654 115.329 88.6114 115.329C89.6614 115.329 90.3894 114.755 90.6274 113.789H92.0274C91.6634 115.441 90.3894 116.435 88.6394 116.435ZM88.5694 109.799C87.4354 109.799 86.6654 110.611 86.5114 111.997H90.5294C90.4594 110.625 89.7174 109.799 88.5694 109.799ZM100.335 112.585C100.335 114.811 99.0467 116.435 97.0447 116.435C95.9947 116.435 95.0987 115.903 94.5667 114.965V116.295H93.2507V106.243H94.6647V110.149C95.1827 109.239 96.0367 108.735 97.0447 108.735C99.0327 108.735 100.335 110.331 100.335 112.585ZM98.8647 112.585C98.8647 110.905 97.9827 109.981 96.7647 109.981C95.5887 109.981 94.6647 110.891 94.6647 112.557C94.6647 114.195 95.5607 115.175 96.7647 115.175C97.9827 115.175 98.8647 114.237 98.8647 112.585ZM107.368 114.083C107.368 115.539 106.234 116.435 104.26 116.435C102.3 116.435 101.138 115.469 100.998 113.873H102.356C102.412 114.797 103.154 115.371 104.288 115.371C105.282 115.371 105.94 115.021 105.94 114.321C105.94 113.705 105.562 113.439 104.638 113.257L103.434 113.033C102.062 112.767 101.292 112.067 101.292 110.947C101.292 109.645 102.426 108.735 104.148 108.735C105.926 108.735 107.13 109.687 107.256 111.213H105.898C105.814 110.317 105.156 109.799 104.162 109.799C103.266 109.799 102.664 110.177 102.664 110.821C102.664 111.423 103.042 111.703 103.938 111.871L105.198 112.109C106.668 112.375 107.368 113.019 107.368 114.083ZM110.354 107.153C110.354 107.685 109.934 108.091 109.332 108.091C108.73 108.091 108.296 107.685 108.296 107.153C108.296 106.607 108.73 106.215 109.332 106.215C109.934 106.215 110.354 106.607 110.354 107.153ZM110.046 116.295H108.632V108.875H110.046V116.295ZM115.915 114.923V116.169C115.481 116.365 115.103 116.435 114.655 116.435C113.283 116.435 112.331 115.693 112.331 114.055V110.079H110.693V108.875H112.331V106.677H113.745V108.875H115.985V110.079H113.745V113.733C113.745 114.755 114.235 115.119 114.991 115.119C115.327 115.119 115.621 115.063 115.915 114.923ZM119.901 116.435C117.759 116.435 116.317 114.881 116.317 112.543C116.317 110.345 117.815 108.735 119.859 108.735C122.071 108.735 123.541 110.527 123.289 112.935H117.759C117.871 114.447 118.627 115.329 119.873 115.329C120.923 115.329 121.651 114.755 121.889 113.789H123.289C122.925 115.441 121.651 116.435 119.901 116.435ZM119.831 109.799C118.697 109.799 117.927 110.611 117.773 111.997H121.791C121.721 110.625 120.979 109.799 119.831 109.799ZM130.449 116.295H127.271V106.243H130.449C133.655 106.243 135.503 108.287 135.503 111.227C135.503 114.125 133.585 116.295 130.449 116.295ZM128.811 107.573V114.965H130.379C132.689 114.965 133.935 113.537 133.935 111.227C133.935 108.959 132.703 107.573 130.379 107.573H128.811ZM139.774 116.435C137.632 116.435 136.19 114.881 136.19 112.543C136.19 110.345 137.688 108.735 139.732 108.735C141.944 108.735 143.414 110.527 143.162 112.935H137.632C137.744 114.447 138.5 115.329 139.746 115.329C140.796 115.329 141.524 114.755 141.762 113.789H143.162C142.798 115.441 141.524 116.435 139.774 116.435ZM139.704 109.799C138.57 109.799 137.8 110.611 137.646 111.997H141.664C141.594 110.625 140.852 109.799 139.704 109.799ZM150.266 114.083C150.266 115.539 149.132 116.435 147.158 116.435C145.198 116.435 144.036 115.469 143.896 113.873H145.254C145.31 114.797 146.052 115.371 147.186 115.371C148.18 115.371 148.838 115.021 148.838 114.321C148.838 113.705 148.46 113.439 147.536 113.257L146.332 113.033C144.96 112.767 144.19 112.067 144.19 110.947C144.19 109.645 145.324 108.735 147.046 108.735C148.824 108.735 150.028 109.687 150.154 111.213H148.796C148.712 110.317 148.054 109.799 147.06 109.799C146.164 109.799 145.562 110.177 145.562 110.821C145.562 111.423 145.94 111.703 146.836 111.871L148.096 112.109C149.566 112.375 150.266 113.019 150.266 114.083ZM153.252 107.153C153.252 107.685 152.832 108.091 152.23 108.091C151.628 108.091 151.194 107.685 151.194 107.153C151.194 106.607 151.628 106.215 152.23 106.215C152.832 106.215 153.252 106.607 153.252 107.153ZM152.944 116.295H151.53V108.875H152.944V116.295ZM157.595 119.151C155.649 119.151 154.389 118.115 154.305 116.435H155.677C155.761 117.471 156.433 118.031 157.581 118.031C158.855 118.031 159.527 117.345 159.527 116.071V114.727C159.107 115.623 158.267 116.141 157.259 116.141C155.411 116.141 154.095 114.615 154.095 112.431C154.095 110.219 155.355 108.735 157.217 108.735C158.281 108.735 159.121 109.253 159.625 110.191V108.875H160.941V116.043C160.941 117.989 159.695 119.151 157.595 119.151ZM155.523 112.431C155.523 113.971 156.279 114.909 157.511 114.909C158.715 114.909 159.527 113.943 159.527 112.473C159.527 110.933 158.729 109.953 157.511 109.953C156.293 109.953 155.523 110.905 155.523 112.431ZM164.032 112.109V116.295H162.618V108.875H163.934V110.107C164.438 109.281 165.278 108.735 166.3 108.735C167.826 108.735 168.834 109.715 168.834 111.493V116.295H167.42V111.969C167.42 110.695 166.86 109.981 165.81 109.981C164.844 109.981 164.032 110.793 164.032 112.109Z" fill="#1A1A1A"/>
<mask id="path-4-outside-1_1114_164" maskUnits="userSpaceOnUse" x="59.7822" y="0" width="123" height="43" fill="black">
<rect fill="white" x="59.7822" width="123" height="43"/>
<path d="M71.2334 12.873C73.7628 10.3436 77.2776 9.10526 80.8721 9.49121C86.1974 10.0637 90.5509 14.3243 91.2432 19.623C91.323 20.262 91.3635 20.9147 91.3369 21.5537C91.3369 21.793 91.3102 22.0323 91.2969 22.2451C91.1371 23.9759 89.7392 25.3472 88.1416 25.2939C87.9419 25.2939 87.7554 25.2675 87.5557 25.2275C85.7985 24.868 84.5468 23.0977 84.6797 21.1143C84.6797 18.3717 82.3902 16.0811 79.5811 16.0811C78.0367 16.0811 76.5985 16.7735 75.6133 17.9717C74.6281 19.1832 74.256 20.7279 74.5889 22.2988C74.9883 24.2292 76.5592 25.7871 78.5029 26.1865C80.0205 26.4926 81.5251 26.1467 82.71 25.2148C83.2025 24.8288 83.9078 24.9215 84.2939 25.4141C84.6799 25.9065 84.587 26.6119 84.0947 26.998C82.3907 28.316 80.1938 28.8357 78.0371 28.3965C75.228 27.824 72.951 25.5601 72.3652 22.751C71.8994 20.5279 72.4451 18.2648 73.8428 16.5342C75.2539 14.8035 77.3309 13.8048 79.5674 13.8047C83.6279 13.8047 86.9296 17.1065 86.9297 21.167C86.8764 22.1788 87.4363 22.8847 88.0088 22.9912C88.0752 22.9913 88.1289 23.0172 88.1953 23.0039C88.6743 23.0036 89.0073 22.485 89.0605 22.0059C89.0739 21.8195 89.0869 21.6327 89.0869 21.4463C89.1002 20.9273 89.0867 20.395 89.0068 19.876C88.4477 15.6024 84.933 12.1671 80.6328 11.7012C77.7305 11.3817 74.895 12.3805 72.8447 14.4307C70.7945 16.4809 69.7958 19.3165 70.1152 22.2188C70.5812 26.5056 74.0028 30.0336 78.2764 30.5928C80.5396 30.8857 82.7368 30.4199 84.6406 29.2217C85.9452 28.3966 87.5821 28.5696 88.6338 29.6211L91.5361 32.5234C91.9755 32.9628 91.9755 33.6818 91.5361 34.1211C91.3098 34.3473 91.0301 34.4541 90.7373 34.4541L90.7246 34.4805C90.4317 34.4805 90.1388 34.3738 89.9258 34.1475L87.0234 31.2451C86.7173 30.939 86.2249 30.8996 85.8389 31.1523C83.4825 32.6434 80.7528 33.2292 77.957 32.8564C72.6716 32.1641 68.424 27.8101 67.8516 22.498C67.4656 18.917 68.7041 15.4025 71.2334 12.873ZM129.693 13.8447C133.461 13.845 136.522 17.0003 136.522 20.9141C136.522 24.8281 133.461 27.9841 129.693 27.9844C127.976 27.9844 126.404 27.3313 125.206 26.2529V33.1494H121.878V14.2578H125.206V15.5889C126.404 14.5105 127.976 13.8447 129.693 13.8447ZM145.922 13.8447C149.689 13.8449 152.751 17.0002 152.751 20.9141C152.751 24.8281 149.689 27.9842 145.922 27.9844C144.205 27.9844 142.634 27.3312 141.436 26.2529V33.1494H138.106V14.2578H141.436V15.5879C142.634 14.51 144.205 13.8447 145.922 13.8447ZM166.638 13.5654C170.698 13.5654 174 16.8402 174 20.9141C174 24.988 170.712 28.2764 166.638 28.2764C162.564 28.2763 159.275 24.9746 159.275 20.9141C159.275 16.8535 162.564 13.5655 166.638 13.5654ZM110.708 20.5947C110.708 21.9527 110.561 23.4574 111.573 24.5225C111.946 24.9085 112.492 25.2008 113.251 25.1875H113.331C114.089 25.2007 114.635 24.9083 115.008 24.5225C116.02 23.4574 115.873 21.9527 115.873 20.5947V14.2578H119.295V22.2988C119.295 22.3121 119.375 28.2366 113.331 28.0771H113.251C107.207 28.2369 107.286 22.2988 107.286 22.2988V14.2578H110.708V20.5947ZM97.3145 15.4951C98.4727 14.0173 100.644 13.8181 102.388 14.0977C103.08 14.2175 103.759 14.4041 104.397 14.6836C104.464 14.7103 105.142 14.9622 105.144 15.0557V17.9717C104.811 17.7587 104.451 17.5989 104.104 17.4258C103.612 17.1862 103.172 16.9201 102.653 16.7471C102.134 16.574 101.601 16.4544 101.056 16.4277C100.75 16.4144 100.444 16.4277 100.164 16.5342C99.6848 16.7206 99.3385 17.2265 99.4717 17.7324C99.6183 18.3047 100.151 18.744 100.63 19.0635C101.615 19.7291 102.814 19.9824 103.799 20.6348C105.463 21.7399 106.181 24.1227 105.116 25.8799C104.544 26.8249 103.559 27.4903 102.494 27.7832C100.803 28.2492 98.7927 27.8769 97.2217 27.1846C97.1551 27.1579 96.543 26.9314 96.543 26.8516V23.8965C97.8475 24.8016 99.2586 25.2139 100.803 25.4668C101.175 25.52 101.575 25.5467 101.921 25.4004C102.573 25.1208 102.84 24.349 102.627 23.71C102.334 22.8048 101.309 22.4184 100.497 22.0723C99.3389 21.5797 98.1937 21.0205 97.4082 20.0088C96.6893 19.0636 96.3561 17.8252 96.7021 16.667C96.8353 16.241 97.0482 15.8413 97.3145 15.4951ZM157.891 27.7969H154.469V8H157.891V27.7969ZM129.28 16.8408C127.03 16.8408 125.206 18.651 125.206 20.9141C125.206 23.1773 127.03 25.002 129.28 25.002C131.53 25.0019 133.367 23.164 133.367 20.9141C133.367 18.6643 131.53 16.8409 129.28 16.8408ZM145.509 16.8408C143.271 16.8409 141.455 18.6323 141.436 20.8789V20.9492C141.454 23.1963 143.27 25.0019 145.509 25.002C147.759 25.002 149.596 23.164 149.596 20.9141C149.595 18.6643 147.759 16.8408 145.509 16.8408ZM166.638 16.8398C164.374 16.8399 162.551 18.6508 162.551 20.9141C162.551 23.1773 164.374 25.0009 166.638 25.001C168.888 25.001 170.712 23.164 170.712 20.9141C170.712 18.6641 168.901 16.8398 166.638 16.8398Z"/>
</mask>
<path d="M71.2334 12.873C73.7628 10.3436 77.2776 9.10526 80.8721 9.49121C86.1974 10.0637 90.5509 14.3243 91.2432 19.623C91.323 20.262 91.3635 20.9147 91.3369 21.5537C91.3369 21.793 91.3102 22.0323 91.2969 22.2451C91.1371 23.9759 89.7392 25.3472 88.1416 25.2939C87.9419 25.2939 87.7554 25.2675 87.5557 25.2275C85.7985 24.868 84.5468 23.0977 84.6797 21.1143C84.6797 18.3717 82.3902 16.0811 79.5811 16.0811C78.0367 16.0811 76.5985 16.7735 75.6133 17.9717C74.6281 19.1832 74.256 20.7279 74.5889 22.2988C74.9883 24.2292 76.5592 25.7871 78.5029 26.1865C80.0205 26.4926 81.5251 26.1467 82.71 25.2148C83.2025 24.8288 83.9078 24.9215 84.2939 25.4141C84.6799 25.9065 84.587 26.6119 84.0947 26.998C82.3907 28.316 80.1938 28.8357 78.0371 28.3965C75.228 27.824 72.951 25.5601 72.3652 22.751C71.8994 20.5279 72.4451 18.2648 73.8428 16.5342C75.2539 14.8035 77.3309 13.8048 79.5674 13.8047C83.6279 13.8047 86.9296 17.1065 86.9297 21.167C86.8764 22.1788 87.4363 22.8847 88.0088 22.9912C88.0752 22.9913 88.1289 23.0172 88.1953 23.0039C88.6743 23.0036 89.0073 22.485 89.0605 22.0059C89.0739 21.8195 89.0869 21.6327 89.0869 21.4463C89.1002 20.9273 89.0867 20.395 89.0068 19.876C88.4477 15.6024 84.933 12.1671 80.6328 11.7012C77.7305 11.3817 74.895 12.3805 72.8447 14.4307C70.7945 16.4809 69.7958 19.3165 70.1152 22.2188C70.5812 26.5056 74.0028 30.0336 78.2764 30.5928C80.5396 30.8857 82.7368 30.4199 84.6406 29.2217C85.9452 28.3966 87.5821 28.5696 88.6338 29.6211L91.5361 32.5234C91.9755 32.9628 91.9755 33.6818 91.5361 34.1211C91.3098 34.3473 91.0301 34.4541 90.7373 34.4541L90.7246 34.4805C90.4317 34.4805 90.1388 34.3738 89.9258 34.1475L87.0234 31.2451C86.7173 30.939 86.2249 30.8996 85.8389 31.1523C83.4825 32.6434 80.7528 33.2292 77.957 32.8564C72.6716 32.1641 68.424 27.8101 67.8516 22.498C67.4656 18.917 68.7041 15.4025 71.2334 12.873ZM129.693 13.8447C133.461 13.845 136.522 17.0003 136.522 20.9141C136.522 24.8281 133.461 27.9841 129.693 27.9844C127.976 27.9844 126.404 27.3313 125.206 26.2529V33.1494H121.878V14.2578H125.206V15.5889C126.404 14.5105 127.976 13.8447 129.693 13.8447ZM145.922 13.8447C149.689 13.8449 152.751 17.0002 152.751 20.9141C152.751 24.8281 149.689 27.9842 145.922 27.9844C144.205 27.9844 142.634 27.3312 141.436 26.2529V33.1494H138.106V14.2578H141.436V15.5879C142.634 14.51 144.205 13.8447 145.922 13.8447ZM166.638 13.5654C170.698 13.5654 174 16.8402 174 20.9141C174 24.988 170.712 28.2764 166.638 28.2764C162.564 28.2763 159.275 24.9746 159.275 20.9141C159.275 16.8535 162.564 13.5655 166.638 13.5654ZM110.708 20.5947C110.708 21.9527 110.561 23.4574 111.573 24.5225C111.946 24.9085 112.492 25.2008 113.251 25.1875H113.331C114.089 25.2007 114.635 24.9083 115.008 24.5225C116.02 23.4574 115.873 21.9527 115.873 20.5947V14.2578H119.295V22.2988C119.295 22.3121 119.375 28.2366 113.331 28.0771H113.251C107.207 28.2369 107.286 22.2988 107.286 22.2988V14.2578H110.708V20.5947ZM97.3145 15.4951C98.4727 14.0173 100.644 13.8181 102.388 14.0977C103.08 14.2175 103.759 14.4041 104.397 14.6836C104.464 14.7103 105.142 14.9622 105.144 15.0557V17.9717C104.811 17.7587 104.451 17.5989 104.104 17.4258C103.612 17.1862 103.172 16.9201 102.653 16.7471C102.134 16.574 101.601 16.4544 101.056 16.4277C100.75 16.4144 100.444 16.4277 100.164 16.5342C99.6848 16.7206 99.3385 17.2265 99.4717 17.7324C99.6183 18.3047 100.151 18.744 100.63 19.0635C101.615 19.7291 102.814 19.9824 103.799 20.6348C105.463 21.7399 106.181 24.1227 105.116 25.8799C104.544 26.8249 103.559 27.4903 102.494 27.7832C100.803 28.2492 98.7927 27.8769 97.2217 27.1846C97.1551 27.1579 96.543 26.9314 96.543 26.8516V23.8965C97.8475 24.8016 99.2586 25.2139 100.803 25.4668C101.175 25.52 101.575 25.5467 101.921 25.4004C102.573 25.1208 102.84 24.349 102.627 23.71C102.334 22.8048 101.309 22.4184 100.497 22.0723C99.3389 21.5797 98.1937 21.0205 97.4082 20.0088C96.6893 19.0636 96.3561 17.8252 96.7021 16.667C96.8353 16.241 97.0482 15.8413 97.3145 15.4951ZM157.891 27.7969H154.469V8H157.891V27.7969ZM129.28 16.8408C127.03 16.8408 125.206 18.651 125.206 20.9141C125.206 23.1773 127.03 25.002 129.28 25.002C131.53 25.0019 133.367 23.164 133.367 20.9141C133.367 18.6643 131.53 16.8409 129.28 16.8408ZM145.509 16.8408C143.271 16.8409 141.455 18.6323 141.436 20.8789V20.9492C141.454 23.1963 143.27 25.0019 145.509 25.002C147.759 25.002 149.596 23.164 149.596 20.9141C149.595 18.6643 147.759 16.8408 145.509 16.8408ZM166.638 16.8398C164.374 16.8399 162.551 18.6508 162.551 20.9141C162.551 23.1773 164.374 25.0009 166.638 25.001C168.888 25.001 170.712 23.164 170.712 20.9141C170.712 18.6641 168.901 16.8398 166.638 16.8398Z" fill="#1A1A1A"/>
<path d="M71.2334 12.873L65.5765 7.21619L65.5764 7.21631L71.2334 12.873ZM80.8721 9.49121L81.7271 1.53704L81.7261 1.53693L80.8721 9.49121ZM91.2432 19.623L99.1814 18.6309C99.1796 18.6161 99.1777 18.6014 99.1757 18.5866L91.2432 19.623ZM91.3369 21.5537L83.3438 21.2207C83.3392 21.3312 83.3369 21.4419 83.3369 21.5525L91.3369 21.5537ZM91.2969 22.2451L99.263 22.9805C99.2703 22.902 99.2763 22.8234 99.2813 22.7447L91.2969 22.2451ZM88.1416 25.2939L88.4081 17.2984C88.3193 17.2954 88.2305 17.2939 88.1416 17.2939V25.2939ZM87.5557 25.2275L85.9521 33.0652C85.9636 33.0675 85.9752 33.0699 85.9867 33.0722L87.5557 25.2275ZM84.6797 21.1143L92.6618 21.6492C92.6737 21.4712 92.6797 21.2927 92.6797 21.1143H84.6797ZM79.5811 16.0811V8.08105H79.581L79.5811 16.0811ZM75.6133 17.9717L69.4339 12.8908C69.4247 12.902 69.4155 12.9132 69.4064 12.9245L75.6133 17.9717ZM74.5889 22.2988L82.4229 20.6778C82.4204 20.6654 82.4178 20.6531 82.4151 20.6407L74.5889 22.2988ZM78.5029 26.1865L76.8927 34.0228C76.9022 34.0247 76.9117 34.0267 76.9211 34.0286L78.5029 26.1865ZM82.71 25.2148L77.7749 18.9184L77.7644 18.9267L82.71 25.2148ZM84.2939 25.4141L90.5904 20.479L90.59 20.4786L84.2939 25.4141ZM84.0947 26.998L88.9891 33.3262C89.0037 33.3149 89.0182 33.3036 89.0326 33.2923L84.0947 26.998ZM78.0371 28.3965L76.4396 36.2354L76.4407 36.2356L78.0371 28.3965ZM72.3652 22.751L80.1968 21.1179L80.1952 21.1104L72.3652 22.751ZM73.8428 16.5342L67.6426 11.4787C67.6348 11.4883 67.6269 11.498 67.6191 11.5077L73.8428 16.5342ZM79.5674 13.8047V5.80469H79.567L79.5674 13.8047ZM86.9297 21.167L94.9186 21.5875C94.926 21.4474 94.9297 21.3071 94.9297 21.1668L86.9297 21.167ZM88.0088 22.9912L86.5455 30.8563C87.0247 30.9454 87.511 30.9906 87.9983 30.9912L88.0088 22.9912ZM88.1953 23.0039L88.1897 15.0039C87.6648 15.0043 87.1411 15.0563 86.6264 15.1593L88.1953 23.0039ZM89.0605 22.0059L97.0116 22.8893C97.0232 22.785 97.0327 22.6805 97.0402 22.5758L89.0605 22.0059ZM89.0869 21.4463L81.0895 21.2415C81.0878 21.3097 81.0869 21.378 81.0869 21.4463H89.0869ZM89.0068 19.876L81.0744 20.9139C81.0822 20.9734 81.0907 21.0328 81.0998 21.0922L89.0068 19.876ZM80.6328 11.7012L79.7574 19.6531L79.771 19.6546L80.6328 11.7012ZM72.8447 14.4307L67.1879 8.77376L67.1879 8.77381L72.8447 14.4307ZM70.1152 22.2188L78.0684 21.3543L78.0672 21.3434L70.1152 22.2188ZM78.2764 30.5928L77.2384 38.5252L77.2496 38.5266L78.2764 30.5928ZM84.6406 29.2217L88.9019 35.9923C88.9069 35.9892 88.9119 35.986 88.917 35.9828L84.6406 29.2217ZM88.6338 29.6211L94.2906 23.9642L94.2901 23.9637L88.6338 29.6211ZM91.5361 32.5234L85.8793 38.1803V38.1803L91.5361 32.5234ZM91.5361 34.1211L97.1917 39.7793L97.193 39.7779L91.5361 34.1211ZM90.7373 34.4541V26.4541C87.6641 26.4541 84.8625 28.2146 83.5293 30.9836L90.7373 34.4541ZM90.7246 34.4805V42.4805C93.7978 42.4805 96.5994 40.72 97.9326 37.951L90.7246 34.4805ZM89.9258 34.1475L95.7514 28.6645C95.696 28.6057 95.6398 28.5477 95.5826 28.4906L89.9258 34.1475ZM87.0234 31.2451L92.6803 25.5883L92.6799 25.5879L87.0234 31.2451ZM85.8389 31.1523L90.1166 37.9126C90.1516 37.8905 90.1864 37.868 90.2211 37.8453L85.8389 31.1523ZM77.957 32.8564L79.0142 24.9266C79.0082 24.9258 79.0021 24.925 78.996 24.9242L77.957 32.8564ZM67.8516 22.498L59.8976 23.3552L59.8976 23.3552L67.8516 22.498ZM129.693 13.8447L129.694 5.84473H129.693V13.8447ZM136.522 20.9141H144.522V20.9136L136.522 20.9141ZM129.693 27.9844V35.9844H129.694L129.693 27.9844ZM125.206 26.2529L130.558 20.3066C128.209 18.1931 124.837 17.6596 121.951 18.9449C119.065 20.2302 117.206 23.0936 117.206 26.2529H125.206ZM125.206 33.1494V41.1494C129.624 41.1494 133.206 37.5677 133.206 33.1494H125.206ZM121.878 33.1494H113.878C113.878 37.5677 117.46 41.1494 121.878 41.1494V33.1494ZM121.878 14.2578V6.25781C117.46 6.25781 113.878 9.83953 113.878 14.2578H121.878ZM125.206 14.2578H133.206C133.206 9.83953 129.624 6.25781 125.206 6.25781V14.2578ZM125.206 15.5889H117.206C117.206 18.7482 119.065 21.6115 121.951 22.8969C124.837 24.1822 128.209 23.6487 130.558 21.5352L125.206 15.5889ZM145.922 13.8447L145.922 5.84473H145.922V13.8447ZM152.751 20.9141H160.751V20.9136L152.751 20.9141ZM145.922 27.9844V35.9844H145.922L145.922 27.9844ZM141.436 26.2529L146.787 20.3064C144.439 18.1931 141.067 17.6596 138.181 18.945C135.295 20.2303 133.436 23.0937 133.436 26.2529H141.436ZM141.436 33.1494V41.1494C145.854 41.1494 149.436 37.5677 149.436 33.1494H141.436ZM138.106 33.1494H130.106C130.106 37.5677 133.688 41.1494 138.106 41.1494V33.1494ZM138.106 14.2578V6.25781C133.688 6.25781 130.106 9.83953 130.106 14.2578H138.106ZM141.436 14.2578H149.436C149.436 9.83953 145.854 6.25781 141.436 6.25781V14.2578ZM141.436 15.5879H133.436C133.436 18.7469 135.295 21.6101 138.18 22.8956C141.066 24.1811 144.438 23.648 146.786 21.5352L141.436 15.5879ZM166.638 13.5654V5.56543H166.638L166.638 13.5654ZM174 20.9141H182V20.914L174 20.9141ZM166.638 28.2764L166.638 36.2764H166.638V28.2764ZM159.275 20.9141L151.275 20.914V20.9141H159.275ZM110.708 20.5947L118.708 20.5947V20.5947H110.708ZM111.573 24.5225L105.773 30.0325C105.788 30.0483 105.803 30.0641 105.819 30.0798L111.573 24.5225ZM113.251 25.1875V17.1875C113.204 17.1875 113.157 17.1879 113.111 17.1887L113.251 25.1875ZM113.331 25.1875L113.47 17.1887C113.424 17.1879 113.377 17.1875 113.331 17.1875V25.1875ZM115.008 24.5225L120.762 30.0802C120.777 30.0643 120.793 30.0484 120.808 30.0325L115.008 24.5225ZM115.873 20.5947H107.873V20.5947L115.873 20.5947ZM115.873 14.2578V6.25781C111.455 6.25781 107.873 9.83953 107.873 14.2578H115.873ZM119.295 14.2578H127.295C127.295 9.83953 123.713 6.25781 119.295 6.25781V14.2578ZM113.331 28.0771L113.542 20.0799C113.472 20.0781 113.401 20.0771 113.331 20.0771V28.0771ZM113.251 28.0771V20.0771C113.181 20.0771 113.11 20.0781 113.04 20.0799L113.251 28.0771ZM107.286 22.2988L115.285 22.4058C115.286 22.3702 115.286 22.3345 115.286 22.2988H107.286ZM107.286 14.2578V6.25781C102.868 6.25781 99.2861 9.83953 99.2861 14.2578H107.286ZM110.708 14.2578H118.708C118.708 9.83953 115.126 6.25781 110.708 6.25781V14.2578ZM97.3145 15.4951L91.018 10.5601C91.003 10.5791 90.9882 10.5983 90.9734 10.6175L97.3145 15.4951ZM102.388 14.0977L103.752 6.21491C103.72 6.20924 103.687 6.20377 103.654 6.19851L102.388 14.0977ZM104.397 14.6836L101.191 22.0129C101.269 22.0471 101.348 22.08 101.427 22.1117L104.397 14.6836ZM105.144 15.0557H113.144C113.144 15.0098 113.143 14.9639 113.142 14.9181L105.144 15.0557ZM105.144 17.9717L100.831 24.7099C103.294 26.2858 106.42 26.393 108.984 24.9895C111.549 23.586 113.144 20.8952 113.144 17.9717H105.144ZM104.104 17.4258L107.682 10.2704C107.656 10.2574 107.63 10.2446 107.604 10.232L104.104 17.4258ZM102.653 16.7471L105.183 9.1576L105.183 9.15758L102.653 16.7471ZM101.056 16.4277L101.445 8.43724C101.431 8.43654 101.417 8.43589 101.403 8.43527L101.056 16.4277ZM100.164 16.5342L97.3162 9.05824C97.2989 9.06482 97.2817 9.07145 97.2645 9.07814L100.164 16.5342ZM99.4717 17.7324L107.221 15.7471C107.217 15.7302 107.213 15.7134 107.208 15.6965L99.4717 17.7324ZM100.63 19.0635L105.109 12.4347C105.095 12.4254 105.081 12.4162 105.067 12.4071L100.63 19.0635ZM103.799 20.6348L108.225 13.9708L108.216 13.9645L103.799 20.6348ZM105.116 25.8799L98.2746 21.7335L98.2736 21.7352L105.116 25.8799ZM102.494 27.7832L100.372 20.0698L100.369 20.0707L102.494 27.7832ZM97.2217 27.1846L100.448 19.8639C100.363 19.8267 100.278 19.791 100.193 19.7568L97.2217 27.1846ZM96.543 23.8965L101.103 17.3235C98.6573 15.6265 95.4713 15.4281 92.8337 16.8084C90.196 18.1887 88.543 20.9195 88.543 23.8965H96.543ZM100.803 25.4668L99.5095 33.3616C99.5634 33.3704 99.6173 33.3787 99.6714 33.3864L100.803 25.4668ZM101.921 25.4004L105.036 32.7689C105.048 32.7638 105.06 32.7587 105.072 32.7536L101.921 25.4004ZM102.627 23.71L95.0154 26.1725C95.0225 26.1945 95.0297 26.2164 95.037 26.2383L102.627 23.71ZM100.497 22.0723L103.634 14.7128L103.628 14.7104L100.497 22.0723ZM97.4082 20.0088L91.0406 24.8517C91.0567 24.8729 91.0729 24.894 91.0892 24.9149L97.4082 20.0088ZM96.7021 16.667L89.0663 14.2808C89.0563 14.3127 89.0466 14.3446 89.037 14.3766L96.7021 16.667ZM157.891 27.7969V35.7969C162.309 35.7969 165.891 32.2152 165.891 27.7969H157.891ZM154.469 27.7969H146.469C146.469 32.2152 150.05 35.7969 154.469 35.7969V27.7969ZM154.469 8V0C150.05 0 146.469 3.58172 146.469 8L154.469 8ZM157.891 8H165.891C165.891 3.58172 162.309 0 157.891 0V8ZM129.28 16.8408L129.28 8.84082H129.28V16.8408ZM125.206 20.9141L117.206 20.9132V20.9141H125.206ZM129.28 25.002V33.002H129.28L129.28 25.002ZM133.367 20.9141H141.367V20.9132L133.367 20.9141ZM145.509 16.8408V8.84082H145.509L145.509 16.8408ZM141.436 20.8789L133.436 20.8112C133.436 20.8338 133.436 20.8563 133.436 20.8789H141.436ZM141.436 20.9492H133.436C133.436 20.9712 133.436 20.9932 133.436 21.0152L141.436 20.9492ZM145.509 25.002L145.509 33.002H145.509V25.002ZM149.596 20.9141H157.596V20.9132L149.596 20.9141ZM166.638 16.8398V8.83984H166.638L166.638 16.8398ZM162.551 20.9141L154.551 20.914V20.9141H162.551ZM166.638 25.001L166.638 33.001H166.638V25.001ZM170.712 20.9141H178.712V20.914L170.712 20.9141ZM71.2334 12.873L76.8903 18.5299C77.6966 17.7235 78.8128 17.3161 80.018 17.4455L80.8721 9.49121L81.7261 1.53693C75.7424 0.894444 69.829 2.9637 65.5765 7.21619L71.2334 12.873ZM80.8721 9.49121L80.017 17.4454C81.6686 17.6229 83.0969 19.0242 83.3106 20.6595L91.2432 19.623L99.1757 18.5866C98.0048 9.62444 90.7262 2.50444 81.7271 1.53704L80.8721 9.49121ZM91.2432 19.623L83.3049 20.6152C83.3448 20.9342 83.3476 21.1301 83.3438 21.2207L91.3369 21.5537L99.33 21.8868C99.3795 20.6994 99.3013 19.5899 99.1814 18.6309L91.2432 19.623ZM91.3369 21.5537L83.3369 21.5525C83.3369 21.4657 83.3393 21.4012 83.3409 21.3676C83.3424 21.3346 83.3436 21.3199 83.3424 21.3373C83.3418 21.3455 83.3408 21.3579 83.3392 21.3787C83.3371 21.4062 83.3361 21.4182 83.333 21.4589C83.3283 21.5189 83.3199 21.6264 83.3125 21.7455L91.2969 22.2451L99.2813 22.7447C99.2805 22.7575 99.2805 22.7552 99.2845 22.703C99.2873 22.668 99.2949 22.5723 99.3014 22.4815C99.3148 22.2939 99.3369 21.9554 99.3369 21.5549L91.3369 21.5537ZM91.2969 22.2451L83.3307 21.5098C83.4285 20.4506 83.9034 19.4582 84.686 18.6985C85.4757 17.9319 86.7709 17.2438 88.4081 17.2984L88.1416 25.2939L87.8751 33.2895C94.3895 33.5067 98.78 28.213 99.263 22.9805L91.2969 22.2451ZM88.1416 25.2939V17.2939C88.6695 17.2939 89.0513 17.3682 89.1246 17.3829L87.5557 25.2275L85.9867 33.0722C86.4595 33.1667 87.2143 33.2939 88.1416 33.2939V25.2939ZM87.5557 25.2275L89.1593 17.3899C91.8556 17.9416 92.7585 20.2061 92.6618 21.6492L84.6797 21.1143L76.6976 20.5793C76.335 25.9893 79.7414 31.7945 85.9521 33.0652L87.5557 25.2275ZM84.6797 21.1143H92.6797C92.6797 13.8876 86.7424 8.08105 79.5811 8.08105V16.0811V24.0811C78.038 24.0811 76.6797 22.8558 76.6797 21.1143H84.6797ZM79.5811 16.0811L79.581 8.08105C75.5922 8.08108 71.9055 9.88483 69.4339 12.8908L75.6133 17.9717L81.7927 23.0525C81.2914 23.6621 80.4812 24.081 79.5811 24.0811L79.5811 16.0811ZM75.6133 17.9717L69.4064 12.9245C66.8702 16.0434 65.9373 20.0614 66.7626 23.9569L74.5889 22.2988L82.4151 20.6407C82.4866 20.9778 82.4975 21.3982 82.3897 21.8515C82.2818 22.3055 82.075 22.7055 81.8202 23.0189L75.6133 17.9717ZM74.5889 22.2988L66.7548 23.9199C67.8092 29.0152 71.8559 32.9878 76.8927 34.0228L78.5029 26.1865L80.1131 18.3502C81.2625 18.5864 82.1674 19.4432 82.4229 20.6778L74.5889 22.2988ZM78.5029 26.1865L76.9211 34.0286C80.6561 34.7819 84.5638 33.9347 87.6555 31.503L82.71 25.2148L77.7644 18.9267C78.4865 18.3587 79.385 18.2033 80.0847 18.3445L78.5029 26.1865ZM82.71 25.2148L87.645 31.5113C84.5862 33.9087 80.2789 33.2595 77.9979 30.3496L84.2939 25.4141L90.59 20.4786C87.5368 16.5836 81.8189 15.7488 77.7749 18.9184L82.71 25.2148ZM84.2939 25.4141L77.9975 30.3491C75.5981 27.2878 76.2519 22.9828 79.1568 20.7038L84.0947 26.998L89.0326 33.2923C92.922 30.241 93.7617 24.5252 90.5904 20.479L84.2939 25.4141ZM84.0947 26.998L79.2003 20.6699C79.2647 20.6201 79.3427 20.5829 79.4249 20.5638C79.5082 20.5445 79.5819 20.5469 79.6335 20.5574L78.0371 28.3965L76.4407 36.2356C80.8732 37.1382 85.4406 36.0707 88.9891 33.3262L84.0947 26.998ZM78.0371 28.3965L79.6346 20.5576C79.8372 20.5989 79.9523 20.684 80.0102 20.7416C80.0683 20.7994 80.1544 20.9148 80.1968 21.1179L72.3652 22.751L64.5337 24.3841C65.7723 30.3238 70.5023 35.0254 76.4396 36.2354L78.0371 28.3965ZM72.3652 22.751L80.1952 21.1104C80.2037 21.151 80.2084 21.2238 80.1868 21.3145C80.1652 21.4049 80.1225 21.4913 80.0665 21.5607L73.8428 16.5342L67.6191 11.5077C64.6959 15.1272 63.5823 19.8433 64.5353 24.3915L72.3652 22.751ZM73.8428 16.5342L80.0429 21.5897C80.0067 21.6341 79.9411 21.6927 79.845 21.7386C79.7477 21.7851 79.6481 21.8047 79.5678 21.8047L79.5674 13.8047L79.567 5.80469C74.8982 5.80493 70.555 7.90687 67.6426 11.4787L73.8428 16.5342ZM79.5674 13.8047V21.8047C79.2095 21.8047 78.9297 21.5246 78.9297 21.1671L86.9297 21.167L94.9297 21.1668C94.9295 12.6883 88.0463 5.80469 79.5674 5.80469V13.8047ZM86.9297 21.167L78.9407 20.7465C78.7489 24.3914 80.8097 29.7891 86.5455 30.8563L88.0088 22.9912L89.4721 15.1262C91.8108 15.5613 93.2451 16.9826 93.9489 18.0691C94.7202 19.2597 94.9748 20.5204 94.9186 21.5875L86.9297 21.167ZM88.0088 22.9912L87.9983 30.9912C87.4994 30.9906 87.1076 30.9411 86.9093 30.9124C86.8141 30.8986 86.7411 30.886 86.7348 30.8849C86.7 30.879 86.7751 30.892 86.8327 30.9012C87.1213 30.9476 88.2979 31.1418 89.7642 30.8486L88.1953 23.0039L86.6264 15.1593C88.0263 14.8793 89.1428 15.0672 89.3713 15.1039C89.414 15.1108 89.474 15.1211 89.4242 15.1126C89.4028 15.1089 89.3145 15.0938 89.2039 15.0778C88.9748 15.0446 88.5514 14.9919 88.0193 14.9912L88.0088 22.9912ZM88.1953 23.0039L88.2009 31.0039C91.5806 31.0015 93.8896 29.1315 95.0649 27.6438C96.2156 26.1874 96.833 24.4969 97.0116 22.8893L89.0605 22.0059L81.1095 21.1224C81.2349 19.994 81.6592 18.8023 82.5103 17.7251C83.3861 16.6165 85.2891 15.0059 88.1897 15.0039L88.1953 23.0039ZM89.0605 22.0059L97.0402 22.5758C97.0509 22.4257 97.0869 21.9617 97.0869 21.4463H89.0869H81.0869C81.0869 21.3999 81.0877 21.3639 81.0884 21.3406C81.0891 21.3175 81.0899 21.3043 81.0899 21.3041C81.0899 21.3039 81.0898 21.3062 81.0894 21.3116C81.0891 21.3171 81.0886 21.325 81.0879 21.3361C81.0871 21.3473 81.0862 21.3607 81.085 21.3775C81.0838 21.3947 81.0825 21.4131 81.0809 21.4359L89.0605 22.0059ZM89.0869 21.4463L97.0843 21.6511C97.104 20.8818 97.0936 19.8286 96.9139 18.6598L89.0068 19.876L81.0998 21.0922C81.0881 21.016 81.0883 20.9861 81.0897 21.017C81.0911 21.0481 81.0927 21.1177 81.0895 21.2415L89.0869 21.4463ZM89.0068 19.876L96.9392 18.8381C95.8998 10.8936 89.4546 4.61026 81.4946 3.74773L80.6328 11.7012L79.771 19.6546C80.0483 19.6847 80.3613 19.8186 80.6333 20.0842C80.9056 20.3501 81.0404 20.6535 81.0744 20.9139L89.0068 19.876ZM80.6328 11.7012L81.5082 3.74921C76.1973 3.16455 70.9576 5.00412 67.1879 8.77376L72.8447 14.4307L78.5015 20.0876C78.8323 19.7568 79.2637 19.5988 79.7574 19.6531L80.6328 11.7012ZM72.8447 14.4307L67.1879 8.77381C63.4181 12.5436 61.5787 17.7834 62.1633 23.0941L70.1152 22.2188L78.0672 21.3434C78.0128 20.8496 78.1709 20.4182 78.5016 20.0875L72.8447 14.4307ZM70.1152 22.2188L62.1621 23.0832C63.0229 31.003 69.2695 37.4825 77.2385 38.5252L78.2764 30.5928L79.3143 22.6604C79.065 22.6278 78.7671 22.4975 78.5012 22.2242C78.2341 21.9497 78.0986 21.6322 78.0684 21.3543L70.1152 22.2188ZM78.2764 30.5928L77.2496 38.5266C81.2986 39.0506 85.3749 38.2121 88.9019 35.9923L84.6406 29.2217L80.3794 22.451C80.0987 22.6277 79.7806 22.7207 79.3031 22.6589L78.2764 30.5928ZM84.6406 29.2217L88.917 35.9828C87.1682 37.0889 84.661 36.9617 82.9775 35.2785L88.6338 29.6211L94.2901 23.9637C90.5032 20.1776 84.7222 19.7042 80.3643 22.4605L84.6406 29.2217ZM88.6338 29.6211L82.9769 35.2779L85.8793 38.1803L91.5361 32.5234L97.193 26.8666L94.2906 23.9642L88.6338 29.6211ZM91.5361 32.5234L85.8793 38.1803C83.1944 35.4954 83.1944 31.1491 85.8793 28.4642L91.5361 34.1211L97.193 39.7779C100.757 36.2144 100.757 30.4301 97.193 26.8666L91.5361 32.5234ZM91.5361 34.1211L85.8806 28.4629C87.1981 27.146 88.9715 26.4541 90.7373 26.4541V34.4541V42.4541C93.0887 42.4541 95.4216 41.5485 97.1917 39.7792L91.5361 34.1211ZM90.7373 34.4541L83.5293 30.9836L83.5166 31.0099L90.7246 34.4805L97.9326 37.951L97.9453 37.9246L90.7373 34.4541ZM90.7246 34.4805V26.4805C92.3389 26.4805 94.2594 27.0793 95.7514 28.6645L89.9258 34.1475L84.1002 39.6304C86.0182 41.6682 88.5245 42.4805 90.7246 42.4805V34.4805ZM89.9258 34.1475L95.5826 28.4906L92.6803 25.5883L87.0234 31.2451L81.3666 36.902L84.2689 39.8043L89.9258 34.1475ZM87.0234 31.2451L92.6799 25.5879C89.4637 22.3721 84.7303 22.3159 81.4567 24.4593L85.8389 31.1523L90.2211 37.8453C87.7195 39.4833 83.9709 39.5059 81.367 36.9024L87.0234 31.2451ZM85.8389 31.1523L81.5612 24.3921C80.8221 24.8597 79.9866 25.0562 79.0142 24.9266L77.957 32.8564L76.8998 40.7863C81.5189 41.4021 86.1428 40.4271 90.1166 37.9126L85.8389 31.1523ZM77.957 32.8564L78.996 24.9242C77.3847 24.7131 75.9836 23.2936 75.8055 21.6409L67.8516 22.498L59.8976 23.3552C60.8645 32.3265 67.9585 39.6152 76.918 40.7887L77.957 32.8564ZM67.8516 22.498L75.8055 21.6409C75.6779 20.4564 76.0803 19.3399 76.8904 18.5298L71.2334 12.873L65.5764 7.21631C61.3279 11.465 59.2534 17.3776 59.8976 23.3552L67.8516 22.498ZM129.693 13.8447L129.693 21.8447C129.283 21.8447 128.951 21.661 128.771 21.474C128.593 21.2904 128.522 21.0749 128.522 20.9145L136.522 20.9141L144.522 20.9136C144.522 12.8344 138.127 5.84527 129.694 5.84473L129.693 13.8447ZM136.522 20.9141H128.522C128.522 20.7538 128.593 20.5385 128.77 20.3552C128.951 20.1684 129.283 19.9844 129.693 19.9844L129.693 27.9844L129.694 35.9844C138.129 35.9838 144.522 28.9928 144.522 20.9141H136.522ZM129.693 27.9844V19.9844C130.049 19.9844 130.36 20.1287 130.558 20.3066L125.206 26.2529L119.854 32.1993C122.448 34.5339 125.903 35.9844 129.693 35.9844V27.9844ZM125.206 26.2529H117.206V33.1494H125.206H133.206V26.2529H125.206ZM125.206 33.1494V25.1494H121.878V33.1494V41.1494H125.206V33.1494ZM121.878 33.1494H129.878V14.2578H121.878H113.878V33.1494H121.878ZM121.878 14.2578V22.2578H125.206V14.2578V6.25781H121.878V14.2578ZM125.206 14.2578H117.206V15.5889H125.206H133.206V14.2578H125.206ZM125.206 15.5889L130.558 21.5352C130.392 21.6846 130.089 21.8447 129.693 21.8447V13.8447V5.84473C125.863 5.84473 122.417 7.33635 119.854 9.64251L125.206 15.5889ZM145.922 13.8447L145.922 21.8447C145.512 21.8447 145.18 21.661 144.999 21.4739C144.821 21.2903 144.751 21.0747 144.751 20.9145L152.751 20.9141L160.751 20.9136C160.751 12.8346 154.356 5.84501 145.922 5.84473L145.922 13.8447ZM152.751 20.9141H144.751C144.751 20.754 144.821 20.5387 144.999 20.3553C145.18 20.1684 145.511 19.9844 145.922 19.9844L145.922 27.9844L145.922 35.9844C154.357 35.9841 160.751 28.9927 160.751 20.9141H152.751ZM145.922 27.9844V19.9844C146.279 19.9844 146.591 20.1296 146.787 20.3064L141.436 26.2529L136.084 32.1995C138.677 34.5328 142.13 35.9844 145.922 35.9844V27.9844ZM141.436 26.2529H133.436V33.1494H141.436H149.436V26.2529H141.436ZM141.436 33.1494V25.1494H138.106V33.1494V41.1494H141.436V33.1494ZM138.106 33.1494H146.106V14.2578H138.106H130.106V33.1494H138.106ZM138.106 14.2578V22.2578H141.436V14.2578V6.25781H138.106V14.2578ZM141.436 14.2578H133.436V15.5879H141.436H149.436V14.2578H141.436ZM141.436 15.5879L146.786 21.5352C146.62 21.6848 146.317 21.8447 145.922 21.8447V13.8447V5.84473C142.093 5.84473 138.647 7.33514 136.085 9.64061L141.436 15.5879ZM166.638 13.5654V21.5654C166.309 21.5654 166 21.2872 166 20.9141L174 20.9141L182 20.914C182 12.3932 175.088 5.56543 166.638 5.56543V13.5654ZM174 20.9141H166C166 20.5697 166.293 20.2764 166.638 20.2764V28.2764V36.2764C175.13 36.2764 182 29.4062 182 20.9141H174ZM166.638 28.2764L166.638 20.2764C166.991 20.2764 167.275 20.5657 167.275 20.9141H159.275H151.275C151.275 29.3835 158.136 36.2763 166.638 36.2764L166.638 28.2764ZM159.275 20.9141L167.275 20.9141C167.275 21.2818 166.972 21.5654 166.638 21.5654L166.638 13.5654L166.638 5.56543C158.156 5.56549 151.275 12.4253 151.275 20.914L159.275 20.9141ZM110.708 20.5947L102.708 20.5947C102.708 20.6949 102.649 22.345 102.83 23.7176C103.054 25.4096 103.716 27.8668 105.773 30.0325L111.573 24.5225L117.373 19.0125C117.859 19.5239 118.195 20.0858 118.408 20.6034C118.609 21.0917 118.672 21.4689 118.692 21.6193C118.71 21.7572 118.702 21.7862 118.701 21.5841C118.7 21.4876 118.701 21.3763 118.703 21.2036C118.705 21.052 118.708 20.823 118.708 20.5947L110.708 20.5947ZM111.573 24.5225L105.819 30.0798C107.619 31.9441 110.255 33.2413 113.391 33.1863L113.251 25.1875L113.111 17.1887C113.822 17.1763 114.626 17.3103 115.431 17.6567C116.222 17.9973 116.853 18.4738 117.328 18.9651L111.573 24.5225ZM113.251 25.1875V33.1875H113.331V25.1875V17.1875H113.251V25.1875ZM113.331 25.1875L113.192 33.1863C116.329 33.2408 118.964 31.942 120.762 30.0802L115.008 24.5225L109.254 18.9647C109.727 18.4748 110.357 17.9983 111.149 17.6574C111.954 17.3107 112.758 17.1763 113.47 17.1887L113.331 25.1875ZM115.008 24.5225L120.808 30.0325C122.865 27.8668 123.527 25.4096 123.751 23.7176C123.932 22.345 123.873 20.6949 123.873 20.5947L115.873 20.5947L107.873 20.5947C107.873 20.823 107.876 21.052 107.878 21.2036C107.88 21.3763 107.881 21.4876 107.88 21.5841C107.879 21.7862 107.871 21.7572 107.889 21.6193C107.909 21.4689 107.972 21.0917 108.173 20.6034C108.386 20.0858 108.722 19.5239 109.208 19.0125L115.008 24.5225ZM115.873 20.5947H123.873V14.2578H115.873H107.873V20.5947H115.873ZM115.873 14.2578V22.2578H119.295V14.2578V6.25781H115.873V14.2578ZM119.295 14.2578H111.295V22.2988H119.295H127.295V14.2578H119.295ZM119.295 22.2988H111.295C111.295 22.3506 111.295 22.2654 111.296 22.2062C111.297 22.1543 111.299 22.115 111.3 22.0861C111.304 22.0313 111.307 22.004 111.309 21.9912C111.311 21.9799 111.315 21.9561 111.327 21.9158C111.339 21.8767 111.368 21.7866 111.432 21.6592C111.566 21.3927 111.897 20.8871 112.534 20.4837C113.211 20.0554 113.692 20.0839 113.542 20.0799L113.331 28.0771L113.12 36.0744C115.992 36.1501 118.73 35.4978 121.091 34.0032C123.413 32.5333 124.857 30.5757 125.727 28.8464C126.576 27.1572 126.945 25.5624 127.117 24.4683C127.205 23.9007 127.25 23.4096 127.273 23.0289C127.284 22.837 127.29 22.6692 127.293 22.5292C127.296 22.3818 127.295 22.2488 127.295 22.2988H119.295ZM113.331 28.0771V20.0771H113.251V28.0771V36.0771H113.331V28.0771ZM113.251 28.0771L113.04 20.0799C112.893 20.0838 113.376 20.0563 114.053 20.4854C114.69 20.889 115.018 21.3935 115.151 21.6569C115.214 21.7831 115.243 21.872 115.254 21.9102C115.266 21.9495 115.27 21.9726 115.271 21.9836C115.273 21.9961 115.277 22.0234 115.28 22.079C115.282 22.1082 115.284 22.1481 115.285 22.2009C115.286 22.2275 115.286 22.2576 115.286 22.2915C115.286 22.3085 115.286 22.3265 115.286 22.3455C115.286 22.355 115.286 22.3648 115.286 22.3749C115.286 22.3799 115.286 22.385 115.286 22.3901C115.286 22.3927 115.286 22.3967 115.286 22.3979C115.285 22.4019 115.285 22.4058 107.286 22.2988C99.2868 22.1918 99.2868 22.1958 99.2867 22.1999C99.2867 22.2012 99.2867 22.2053 99.2866 22.208C99.2866 22.2136 99.2865 22.2192 99.2865 22.2249C99.2864 22.2364 99.2863 22.2484 99.2862 22.2607C99.2861 22.2855 99.286 22.312 99.2861 22.3402C99.2863 22.3966 99.287 22.46 99.2884 22.53C99.2913 22.6697 99.2973 22.8371 99.3086 23.0284C99.3312 23.408 99.376 23.8981 99.4649 24.4648C99.6364 25.5571 100.005 27.1505 100.853 28.8389C101.721 30.5668 103.163 32.5259 105.485 33.998C107.847 35.4955 110.587 36.1504 113.462 36.0744L113.251 28.0771ZM107.286 22.2988H115.286V14.2578H107.286H99.2861V22.2988H107.286ZM107.286 14.2578V22.2578H110.708V14.2578V6.25781H107.286V14.2578ZM110.708 14.2578H102.708V20.5947H110.708H118.708V14.2578H110.708ZM97.3145 15.4951L103.611 20.4302C102.734 21.5495 101.697 21.8742 101.353 21.9499C101.041 22.0187 100.972 21.9728 101.121 21.9968L102.388 14.0977L103.654 6.19851C101.198 5.80478 95.0033 5.47542 91.018 10.5601L97.3145 15.4951ZM102.388 14.0977L101.023 21.9804C101.116 21.9965 101.174 22.0113 101.203 22.0196C101.232 22.0278 101.225 22.0279 101.191 22.0129L104.397 14.6836L107.604 7.35434C106.262 6.76739 104.944 6.42119 103.752 6.21491L102.388 14.0977ZM104.397 14.6836L101.427 22.1117C101.483 22.1339 101.534 22.1536 101.534 22.1537C101.541 22.1564 101.549 22.1593 101.553 22.161C101.558 22.163 101.562 22.1646 101.566 22.1661C101.582 22.172 101.592 22.1761 101.601 22.1798C101.628 22.1904 101.62 22.1875 101.584 22.1718C101.564 22.1633 101.515 22.1413 101.444 22.1071C101.383 22.0775 101.24 22.0075 101.055 21.9012C100.932 21.8305 100.477 21.5691 99.9534 21.1271C99.6975 20.9111 99.1777 20.4473 98.6608 19.7349C98.2115 19.1158 97.1848 17.5221 97.1447 15.1932L105.144 15.0557L113.142 14.9181C113.102 12.5776 112.07 10.9709 111.61 10.3378C111.083 9.61154 110.549 9.13272 110.274 8.90083C109.713 8.42698 109.204 8.13043 109.016 8.02256C108.571 7.76694 108.168 7.58848 108.006 7.51739C107.673 7.37157 107.155 7.17053 107.368 7.25545L104.397 14.6836ZM105.144 15.0557H97.1436V17.9717H105.144H113.144V15.0557H105.144ZM105.144 17.9717L109.456 11.2335C108.963 10.9183 108.52 10.6862 108.232 10.5409C108.087 10.4681 107.952 10.4024 107.867 10.3608C107.766 10.3116 107.722 10.2902 107.682 10.2704L104.104 17.4258L100.527 24.5812C100.66 24.6479 100.791 24.7114 100.865 24.7475C100.955 24.7911 100.996 24.8112 101.026 24.8266C101.053 24.8399 101.043 24.8355 101.012 24.8183C100.98 24.8005 100.916 24.7641 100.831 24.7099L105.144 17.9717ZM104.104 17.4258L107.604 10.232C107.232 10.0506 107.695 10.2702 106.965 9.90518C106.581 9.7132 105.958 9.41597 105.183 9.1576L102.653 16.7471L100.123 24.3365C99.8676 24.2512 99.7245 24.1735 99.8129 24.2178C99.8672 24.2448 99.9183 24.2715 100.067 24.3485C100.192 24.4128 100.386 24.5134 100.605 24.6196L104.104 17.4258ZM102.653 16.7471L105.183 9.15758C104.168 8.81919 102.9 8.5082 101.445 8.43724L101.056 16.4277L100.666 24.4182C100.303 24.4005 100.1 24.3288 100.124 24.3366L102.653 16.7471ZM101.056 16.4277L101.403 8.43527C100.764 8.40752 99.1407 8.36321 97.3162 9.05824L100.164 16.5342L103.012 24.0101C102.347 24.2633 101.776 24.3584 101.396 24.3964C101.027 24.4332 100.766 24.4227 100.708 24.4202L101.056 16.4277ZM100.164 16.5342L97.2645 9.07814C94.0498 10.3283 90.3022 14.3232 91.7351 19.7684L99.4717 17.7324L107.208 15.6965C107.775 17.8503 107.247 19.8183 106.42 21.1768C105.624 22.4826 104.439 23.4554 103.064 23.9902L100.164 16.5342ZM99.4717 17.7324L91.7219 19.7177C92.6914 23.5022 95.7116 25.3994 96.1923 25.7199L100.63 19.0635L105.067 12.4071C105.078 12.4141 105.145 12.459 105.245 12.5385C105.343 12.6164 105.511 12.758 105.712 12.9677C106.071 13.344 106.841 14.2607 107.221 15.7471L99.4717 17.7324ZM100.63 19.0635L96.1512 25.6923C97.4074 26.5411 98.6892 27.0514 99.1305 27.2358C99.8159 27.5221 99.6337 27.4716 99.382 27.305L103.799 20.6348L108.216 13.9645C106.979 13.1456 105.705 12.6422 105.298 12.4724C104.648 12.2006 104.838 12.2515 105.109 12.4347L100.63 19.0635ZM103.799 20.6348L99.3725 27.2987C98.4725 26.7009 97.966 25.8799 97.7514 25.0758C97.5272 24.2357 97.5217 22.9758 98.2746 21.7335L105.116 25.8799L111.958 30.0263C115.553 24.0937 112.946 17.1068 108.225 13.9708L103.799 20.6348ZM105.116 25.8799L98.2736 21.7352C98.9241 20.6613 99.7917 20.2295 100.372 20.0698L102.494 27.7832L104.616 35.4966C107.326 34.7511 110.164 32.9885 111.959 30.0246L105.116 25.8799ZM102.494 27.7832L100.369 20.0707C100.597 20.0079 100.757 19.9944 100.827 19.9913C100.897 19.9882 100.912 19.994 100.87 19.9884C100.829 19.9829 100.762 19.9703 100.676 19.9456C100.59 19.921 100.51 19.8915 100.448 19.8639L97.2217 27.1846L93.9957 34.5053C96.5851 35.6464 100.559 36.6148 104.62 35.4957L102.494 27.7832ZM97.2217 27.1846L100.193 19.7568C100.137 19.7343 100.086 19.715 100.083 19.7137C100.072 19.7094 100.051 19.7012 100.048 19.7002C100.032 19.6939 100.022 19.69 100.013 19.6867C99.9884 19.677 100 19.6812 100.039 19.6979C100.06 19.7069 100.11 19.7288 100.18 19.7623C100.241 19.7913 100.381 19.8593 100.563 19.9618C100.682 20.0286 101.133 20.2826 101.655 20.712C101.906 20.9193 102.439 21.3803 102.97 22.0956C103.418 22.6973 104.543 24.3754 104.543 26.8516H96.543H88.543C88.543 29.3377 89.6731 31.0269 90.1294 31.6408C90.6701 32.3681 91.2155 32.8423 91.484 33.0634C92.0393 33.5206 92.5389 33.8056 92.716 33.9053C93.1433 34.1458 93.5267 34.3136 93.6758 34.3782C93.9638 34.503 94.4926 34.7092 94.2506 34.6124L97.2217 27.1846ZM96.543 26.8516H104.543V23.8965H96.543H88.543V26.8516H96.543ZM96.543 23.8965L91.9827 30.4695C94.6506 32.3204 97.3661 33.0105 99.5095 33.3616L100.803 25.4668L102.096 17.572C101.612 17.4928 101.357 17.4212 101.223 17.3744C101.161 17.3527 101.13 17.3378 101.119 17.3322C101.109 17.3272 101.105 17.3251 101.103 17.3235L96.543 23.8965ZM100.803 25.4668L99.6714 33.3864C100.149 33.4547 102.498 33.8421 105.036 32.7689L101.921 25.4004L98.8056 18.0319C99.8098 17.6073 100.675 17.5239 101.162 17.5112C101.414 17.5046 101.61 17.5158 101.731 17.5255C101.85 17.5351 101.927 17.5462 101.934 17.5472L100.803 25.4668ZM101.921 25.4004L105.072 32.7536C110.145 30.5795 111.529 25.12 110.217 21.1816L102.627 23.71L95.037 26.2383C94.1508 23.5779 95.0013 19.6622 98.7695 18.0472L101.921 25.4004ZM102.627 23.71L110.239 21.2474C109.304 18.3585 107.304 16.7358 106.077 15.9481C104.974 15.2406 103.736 14.7566 103.634 14.7128L100.497 22.0723L97.3604 29.4317C97.6837 29.5695 97.7076 29.5777 97.7824 29.6122C97.8198 29.6294 97.669 29.5638 97.4367 29.4148C96.9978 29.1332 95.6572 28.1562 95.0154 26.1725L102.627 23.71ZM100.497 22.0723L103.628 14.7104C103.395 14.6115 103.246 14.544 103.137 14.4911C103.032 14.4397 103.004 14.421 103.026 14.4342C103.075 14.4646 103.39 14.6683 103.727 15.1026L97.4082 20.0088L91.0892 24.9149C93.2629 27.7146 96.1857 28.9321 97.3662 29.4342L100.497 22.0723ZM97.4082 20.0088L103.776 15.1658C104.278 15.8259 104.894 17.193 104.367 18.9574L96.7021 16.667L89.037 14.3766C87.8176 18.4575 89.1008 22.3013 91.0406 24.8517L97.4082 20.0088ZM96.7021 16.667L104.338 19.0532C104.176 19.5707 103.936 20.008 103.656 20.3727L97.3145 15.4951L90.9734 10.6175C90.1603 11.6745 89.4943 12.9112 89.0663 14.2808L96.7021 16.667ZM157.891 27.7969V19.7969H154.469V27.7969V35.7969H157.891V27.7969ZM154.469 27.7969H162.469V8H154.469H146.469V27.7969H154.469ZM154.469 8V16H157.891V8V0H154.469V8ZM157.891 8H149.891V27.7969H157.891H165.891V8H157.891ZM129.28 16.8408V8.84082C122.631 8.84082 117.207 14.2138 117.206 20.9132L125.206 20.9141L133.206 20.9149C133.206 23.0882 131.43 24.8408 129.28 24.8408V16.8408ZM125.206 20.9141H117.206C117.206 27.5777 122.594 33.002 129.28 33.002V25.002V17.002C131.466 17.002 133.206 18.777 133.206 20.9141H125.206ZM129.28 25.002L129.28 33.002C135.951 33.0019 141.367 27.5799 141.367 20.9141H133.367H125.367C125.367 18.7481 127.11 17.002 129.28 17.002L129.28 25.002ZM133.367 20.9141L141.367 20.9132C141.366 14.2117 135.914 8.84092 129.28 8.84082L129.28 16.8408L129.28 24.8408C127.146 24.8408 125.367 23.1169 125.367 20.9149L133.367 20.9141ZM145.509 16.8408L145.509 8.84082C138.892 8.84105 133.492 14.1596 133.436 20.8112L141.436 20.8789L149.435 20.9466C149.417 23.1051 147.649 24.8407 145.509 24.8408L145.509 16.8408ZM141.436 20.8789H133.436V20.9492H141.436H149.436V20.8789H141.436ZM141.436 20.9492L133.436 21.0152C133.49 27.6329 138.856 33.0017 145.509 33.002L145.509 25.002L145.509 17.002C147.685 17.002 149.418 18.7598 149.435 20.8832L141.436 20.9492ZM145.509 25.002V33.002C152.18 33.002 157.596 27.5798 157.596 20.9141H149.596H141.596C141.596 18.7482 143.338 17.002 145.509 17.002V25.002ZM149.596 20.9141L157.596 20.9132C157.595 14.2118 152.143 8.84082 145.509 8.84082V16.8408V24.8408C143.374 24.8408 141.596 23.1168 141.596 20.9149L149.596 20.9141ZM166.638 16.8398L166.638 8.83984C159.989 8.83992 154.551 14.2001 154.551 20.914L162.551 20.9141L170.551 20.9141C170.551 23.1016 168.76 24.8398 166.638 24.8398L166.638 16.8398ZM162.551 20.9141H154.551C154.551 27.5957 159.956 33.0009 166.638 33.001L166.638 25.001L166.638 17.001C168.793 17.001 170.551 18.7589 170.551 20.9141H162.551ZM166.638 25.001V33.001C173.338 33.001 178.712 27.5499 178.712 20.9141H170.712H162.712C162.712 18.7782 164.437 17.001 166.638 17.001V25.001ZM170.712 20.9141L178.712 20.914C178.712 14.263 173.336 8.83984 166.638 8.83984V16.8398V24.8398C164.466 24.8398 162.712 23.0653 162.712 20.9141L170.712 20.9141Z" fill="#E6E2DE" mask="url(#path-4-outside-1_1114_164)"/>
</svg>
