<svg width="242" height="240" viewBox="0 0 242 240" fill="none" xmlns="http://www.w3.org/2000/svg">
<rect y="80" width="242" height="160" rx="12" fill="#E6E2DE"/>
<path d="M104.595 151.727C104.595 153.919 102.835 155.455 99.9553 155.455C97.0593 155.455 95.2513 153.903 95.0753 151.471H97.5393C97.6033 152.735 98.4193 153.551 99.9073 153.551C101.139 153.551 102.019 153.007 102.019 152.079C102.019 151.359 101.459 150.927 100.483 150.735L98.5953 150.367C96.8513 150.031 95.5073 149.087 95.5073 147.183C95.5073 145.135 97.3153 143.663 99.7953 143.663C102.371 143.663 104.259 145.167 104.419 147.567H101.955C101.875 146.367 101.043 145.551 99.8273 145.551C98.6433 145.551 97.9713 146.223 97.9713 147.023C97.9713 147.807 98.6913 148.143 99.5233 148.303L101.491 148.703C103.507 149.103 104.595 150.031 104.595 151.727ZM111.159 151.695V146.751H113.367V155.295H111.335V154.175C110.871 154.927 109.927 155.455 108.839 155.455C107.127 155.455 105.879 154.415 105.879 152.191V146.751H108.103V151.759C108.103 152.959 108.695 153.487 109.591 153.487C110.391 153.487 111.159 152.847 111.159 151.695ZM123.733 151.023C123.733 153.551 122.245 155.455 119.941 155.455C118.933 155.455 118.069 155.023 117.429 154.191V158.383H115.205V146.751H117.253V147.999C117.909 147.087 118.853 146.591 119.941 146.591C122.245 146.591 123.733 148.511 123.733 151.023ZM121.445 151.023C121.445 149.423 120.533 148.559 119.445 148.559C118.357 148.559 117.445 149.407 117.445 151.023C117.445 152.639 118.357 153.471 119.445 153.471C120.533 153.471 121.445 152.655 121.445 151.023ZM133.526 151.023C133.526 153.551 132.038 155.455 129.734 155.455C128.726 155.455 127.862 155.023 127.222 154.191V158.383H124.998V146.751H127.046V147.999C127.702 147.087 128.646 146.591 129.734 146.591C132.038 146.591 133.526 148.511 133.526 151.023ZM131.238 151.023C131.238 149.423 130.326 148.559 129.238 148.559C128.15 148.559 127.238 149.407 127.238 151.023C127.238 152.639 128.15 153.471 129.238 153.471C130.326 153.471 131.238 152.655 131.238 151.023ZM137.031 155.295H134.791V143.807H137.031V155.295ZM142.641 155.455C140.161 155.455 138.305 153.503 138.305 151.023C138.305 148.527 140.161 146.591 142.641 146.591C145.121 146.591 146.977 148.527 146.977 151.023C146.977 153.503 145.121 155.455 142.641 155.455ZM142.641 153.487C143.745 153.487 144.689 152.607 144.689 151.023C144.689 149.439 143.745 148.575 142.641 148.575C141.537 148.575 140.593 149.439 140.593 151.023C140.593 152.607 141.537 153.487 142.641 153.487Z" fill="#1A1A1A"/>
<path d="M81.0182 175.295L78.8902 167.413L76.7482 175.295H75.1662L72.5482 165.243H74.0602L75.9922 172.985L78.1062 165.243H79.7022L81.7882 172.999L83.7202 165.243H85.2322L82.6142 175.295H81.0182ZM88.6394 175.435C86.4974 175.435 85.0554 173.881 85.0554 171.543C85.0554 169.345 86.5534 167.735 88.5974 167.735C90.8094 167.735 92.2794 169.527 92.0274 171.935H86.4974C86.6094 173.447 87.3654 174.329 88.6114 174.329C89.6614 174.329 90.3894 173.755 90.6274 172.789H92.0274C91.6634 174.441 90.3894 175.435 88.6394 175.435ZM88.5694 168.799C87.4354 168.799 86.6654 169.611 86.5114 170.997H90.5294C90.4594 169.625 89.7174 168.799 88.5694 168.799ZM100.335 171.585C100.335 173.811 99.0467 175.435 97.0447 175.435C95.9947 175.435 95.0987 174.903 94.5667 173.965V175.295H93.2507V165.243H94.6647V169.149C95.1827 168.239 96.0367 167.735 97.0447 167.735C99.0327 167.735 100.335 169.331 100.335 171.585ZM98.8647 171.585C98.8647 169.905 97.9827 168.981 96.7647 168.981C95.5887 168.981 94.6647 169.891 94.6647 171.557C94.6647 173.195 95.5607 174.175 96.7647 174.175C97.9827 174.175 98.8647 173.237 98.8647 171.585ZM107.368 173.083C107.368 174.539 106.234 175.435 104.26 175.435C102.3 175.435 101.138 174.469 100.998 172.873H102.356C102.412 173.797 103.154 174.371 104.288 174.371C105.282 174.371 105.94 174.021 105.94 173.321C105.94 172.705 105.562 172.439 104.638 172.257L103.434 172.033C102.062 171.767 101.292 171.067 101.292 169.947C101.292 168.645 102.426 167.735 104.148 167.735C105.926 167.735 107.13 168.687 107.256 170.213H105.898C105.814 169.317 105.156 168.799 104.162 168.799C103.266 168.799 102.664 169.177 102.664 169.821C102.664 170.423 103.042 170.703 103.938 170.871L105.198 171.109C106.668 171.375 107.368 172.019 107.368 173.083ZM110.354 166.153C110.354 166.685 109.934 167.091 109.332 167.091C108.73 167.091 108.296 166.685 108.296 166.153C108.296 165.607 108.73 165.215 109.332 165.215C109.934 165.215 110.354 165.607 110.354 166.153ZM110.046 175.295H108.632V167.875H110.046V175.295ZM115.915 173.923V175.169C115.481 175.365 115.103 175.435 114.655 175.435C113.283 175.435 112.331 174.693 112.331 173.055V169.079H110.693V167.875H112.331V165.677H113.745V167.875H115.985V169.079H113.745V172.733C113.745 173.755 114.235 174.119 114.991 174.119C115.327 174.119 115.621 174.063 115.915 173.923ZM119.901 175.435C117.759 175.435 116.317 173.881 116.317 171.543C116.317 169.345 117.815 167.735 119.859 167.735C122.071 167.735 123.541 169.527 123.289 171.935H117.759C117.871 173.447 118.627 174.329 119.873 174.329C120.923 174.329 121.651 173.755 121.889 172.789H123.289C122.925 174.441 121.651 175.435 119.901 175.435ZM119.831 168.799C118.697 168.799 117.927 169.611 117.773 170.997H121.791C121.721 169.625 120.979 168.799 119.831 168.799ZM130.449 175.295H127.271V165.243H130.449C133.655 165.243 135.503 167.287 135.503 170.227C135.503 173.125 133.585 175.295 130.449 175.295ZM128.811 166.573V173.965H130.379C132.689 173.965 133.935 172.537 133.935 170.227C133.935 167.959 132.703 166.573 130.379 166.573H128.811ZM139.774 175.435C137.632 175.435 136.19 173.881 136.19 171.543C136.19 169.345 137.688 167.735 139.732 167.735C141.944 167.735 143.414 169.527 143.162 171.935H137.632C137.744 173.447 138.5 174.329 139.746 174.329C140.796 174.329 141.524 173.755 141.762 172.789H143.162C142.798 174.441 141.524 175.435 139.774 175.435ZM139.704 168.799C138.57 168.799 137.8 169.611 137.646 170.997H141.664C141.594 169.625 140.852 168.799 139.704 168.799ZM150.266 173.083C150.266 174.539 149.132 175.435 147.158 175.435C145.198 175.435 144.036 174.469 143.896 172.873H145.254C145.31 173.797 146.052 174.371 147.186 174.371C148.18 174.371 148.838 174.021 148.838 173.321C148.838 172.705 148.46 172.439 147.536 172.257L146.332 172.033C144.96 171.767 144.19 171.067 144.19 169.947C144.19 168.645 145.324 167.735 147.046 167.735C148.824 167.735 150.028 168.687 150.154 170.213H148.796C148.712 169.317 148.054 168.799 147.06 168.799C146.164 168.799 145.562 169.177 145.562 169.821C145.562 170.423 145.94 170.703 146.836 170.871L148.096 171.109C149.566 171.375 150.266 172.019 150.266 173.083ZM153.252 166.153C153.252 166.685 152.832 167.091 152.23 167.091C151.628 167.091 151.194 166.685 151.194 166.153C151.194 165.607 151.628 165.215 152.23 165.215C152.832 165.215 153.252 165.607 153.252 166.153ZM152.944 175.295H151.53V167.875H152.944V175.295ZM157.595 178.151C155.649 178.151 154.389 177.115 154.305 175.435H155.677C155.761 176.471 156.433 177.031 157.581 177.031C158.855 177.031 159.527 176.345 159.527 175.071V173.727C159.107 174.623 158.267 175.141 157.259 175.141C155.411 175.141 154.095 173.615 154.095 171.431C154.095 169.219 155.355 167.735 157.217 167.735C158.281 167.735 159.121 168.253 159.625 169.191V167.875H160.941V175.043C160.941 176.989 159.695 178.151 157.595 178.151ZM155.523 171.431C155.523 172.971 156.279 173.909 157.511 173.909C158.715 173.909 159.527 172.943 159.527 171.473C159.527 169.933 158.729 168.953 157.511 168.953C156.293 168.953 155.523 169.905 155.523 171.431ZM164.032 171.109V175.295H162.618V167.875H163.934V169.107C164.438 168.281 165.278 167.735 166.3 167.735C167.826 167.735 168.834 168.715 168.834 170.493V175.295H167.42V170.969C167.42 169.695 166.86 168.981 165.81 168.981C164.844 168.981 164.032 169.793 164.032 171.109Z" fill="#1A1A1A"/>
<mask id="path-4-outside-1_1195_324" maskUnits="userSpaceOnUse" x="59.7822" y="59" width="123" height="43" fill="black">
<rect fill="white" x="59.7822" y="59" width="123" height="43"/>
<path d="M71.2334 71.873C73.7629 69.3436 77.2776 68.1052 80.8721 68.4912C86.1974 69.0637 90.5509 73.3243 91.2432 78.623C91.323 79.2619 91.3635 79.9139 91.3369 80.5527C91.3369 80.7922 91.3102 81.0322 91.2969 81.2451C91.1371 82.9758 89.7392 84.3471 88.1416 84.2939C87.9419 84.2939 87.7554 84.2675 87.5557 84.2275C85.7985 83.8681 84.5468 82.0978 84.6797 80.1143C84.6797 77.3717 82.3901 75.0811 79.5811 75.0811C78.0367 75.0811 76.5985 75.7735 75.6133 76.9717C74.6281 78.1832 74.256 79.7279 74.5889 81.2988C74.9883 83.2292 76.5592 84.7871 78.5029 85.1865C80.0205 85.4926 81.5252 85.1467 82.71 84.2148C83.2026 83.8288 83.9079 83.9215 84.294 84.4141C84.68 84.9067 84.5863 85.612 84.0938 85.998C82.3897 87.316 80.1929 87.8358 78.0361 87.3965C75.2272 86.8239 72.951 84.56 72.3652 81.751C71.8994 79.5278 72.445 77.2648 73.8428 75.5342C75.2539 73.8035 77.3308 72.8048 79.5674 72.8047C83.6279 72.8047 86.9296 76.1065 86.9297 80.167C86.8764 81.1788 87.4363 81.8847 88.0088 81.9912C88.0751 81.9913 88.1281 82.0171 88.1943 82.0039C88.6736 82.0039 89.0073 81.4851 89.0606 81.0059C89.0739 80.8195 89.0869 80.6327 89.0869 80.4463C89.1002 79.9273 89.0867 79.395 89.0068 78.876C88.4477 74.6024 84.933 71.1672 80.6328 70.7012C77.7305 70.3817 74.895 71.3805 72.8447 73.4307C70.7945 75.4809 69.7958 78.3165 70.1152 81.2188C70.5812 85.5057 74.0028 89.0336 78.2764 89.5928C80.5395 89.8856 82.7359 89.4197 84.6397 88.2217C85.9443 87.3963 87.582 87.5695 88.6338 88.6211L91.5361 91.5234C91.9755 91.9628 91.9755 92.6818 91.5361 93.1211C91.3098 93.3473 91.0301 93.4541 90.7373 93.4541L90.7246 93.4805C90.4317 93.4805 90.1388 93.3738 89.9258 93.1475L87.0234 90.2451C86.7172 89.9389 86.224 89.8994 85.8379 90.1523C83.4816 91.6432 80.7526 92.2291 77.957 91.8564C72.6716 91.1641 68.424 86.8101 67.8516 81.498C67.4656 77.917 68.704 74.4025 71.2334 71.873ZM129.692 72.8457C133.46 72.8457 136.522 76.0009 136.522 79.915C136.522 83.8292 133.46 86.9844 129.692 86.9844C128.083 86.9843 126.602 86.4112 125.436 85.4512L125.206 85.2539V92.1494H121.878V73.2578H125.206V74.5898C126.404 73.5115 127.975 72.8458 129.692 72.8457ZM145.922 72.8457C149.689 72.8459 152.751 76.001 152.751 79.915C152.751 83.8291 149.689 86.9842 145.922 86.9844C144.205 86.9844 142.634 86.3321 141.436 85.2539V92.1494H138.106V73.2578H141.436V74.5889C142.634 73.5109 144.205 72.8457 145.922 72.8457ZM166.638 72.5664C170.698 72.5664 174 75.8413 174 79.915C174 83.9889 170.712 87.2773 166.638 87.2773C162.564 87.2773 159.275 83.9756 159.275 79.915C159.276 75.8546 162.564 72.5664 166.638 72.5664ZM110.708 79.5947C110.708 80.9527 110.561 82.4574 111.573 83.5225C111.946 83.9085 112.492 84.2018 113.251 84.1885H113.33C114.089 84.2018 114.635 83.9085 115.008 83.5225C116.02 82.4574 115.873 80.9527 115.873 79.5947V73.2578H119.295V81.2988C119.295 81.3121 119.374 87.2369 113.33 87.0771H113.251C107.207 87.2369 107.286 81.2988 107.286 81.2988V73.2578H110.708V79.5947ZM97.3145 74.4961C98.4726 73.0184 100.643 72.8182 102.387 73.0977C103.079 73.2175 103.758 73.404 104.397 73.6836C104.464 73.7102 105.143 73.9634 105.143 74.0566V76.9717C104.81 76.7588 104.45 76.5988 104.104 76.4258C103.612 76.1862 103.172 75.9201 102.653 75.7471C102.134 75.574 101.601 75.4544 101.056 75.4277C100.75 75.4144 100.444 75.4278 100.164 75.5342C99.6848 75.7206 99.3386 76.2265 99.4717 76.7324C99.6182 77.3048 100.151 77.744 100.63 78.0635C101.615 78.7291 102.814 78.9824 103.799 79.6348C105.463 80.7399 106.181 83.1226 105.116 84.8799C104.544 85.825 103.559 86.4912 102.494 86.7842C100.803 87.2501 98.7927 86.8769 97.2217 86.1846C97.155 86.1579 96.543 85.9314 96.543 85.8516V82.8965C97.8476 83.8016 99.2585 84.2148 100.803 84.4678C101.175 84.521 101.575 84.5468 101.921 84.4004C102.573 84.1208 102.84 83.349 102.627 82.71C102.334 81.8048 101.309 81.4184 100.497 81.0723C99.3388 80.5797 98.1937 80.0206 97.4082 79.0088C96.6893 78.0635 96.356 76.8253 96.7022 75.667C96.8352 75.2412 97.0484 74.8421 97.3145 74.4961ZM157.891 86.7969H154.469V67H157.891V86.7969ZM166.638 75.8418C164.375 75.8418 162.551 77.6519 162.551 79.915C162.551 82.1783 164.374 84.0029 166.638 84.0029C168.888 84.0029 170.712 82.165 170.712 79.915C170.712 77.6652 168.901 75.8418 166.638 75.8418ZM129.28 75.8408C127.03 75.8408 125.206 77.6518 125.206 79.915C125.206 82.1783 127.03 84.002 129.28 84.002C131.53 84.0019 133.367 82.1649 133.367 79.915C133.367 77.6652 131.53 75.8409 129.28 75.8408ZM145.509 75.8408C143.271 75.8409 141.454 77.6331 141.436 79.8799V79.9502C141.454 82.1972 143.27 84.0019 145.509 84.002C147.759 84.002 149.596 82.165 149.596 79.915C149.596 77.6651 147.759 75.8408 145.509 75.8408Z"/>
</mask>
<path d="M71.2334 71.873C73.7629 69.3436 77.2776 68.1052 80.8721 68.4912C86.1974 69.0637 90.5509 73.3243 91.2432 78.623C91.323 79.2619 91.3635 79.9139 91.3369 80.5527C91.3369 80.7922 91.3102 81.0322 91.2969 81.2451C91.1371 82.9758 89.7392 84.3471 88.1416 84.2939C87.9419 84.2939 87.7554 84.2675 87.5557 84.2275C85.7985 83.8681 84.5468 82.0978 84.6797 80.1143C84.6797 77.3717 82.3901 75.0811 79.5811 75.0811C78.0367 75.0811 76.5985 75.7735 75.6133 76.9717C74.6281 78.1832 74.256 79.7279 74.5889 81.2988C74.9883 83.2292 76.5592 84.7871 78.5029 85.1865C80.0205 85.4926 81.5252 85.1467 82.71 84.2148C83.2026 83.8288 83.9079 83.9215 84.294 84.4141C84.68 84.9067 84.5863 85.612 84.0938 85.998C82.3897 87.316 80.1929 87.8358 78.0361 87.3965C75.2272 86.8239 72.951 84.56 72.3652 81.751C71.8994 79.5278 72.445 77.2648 73.8428 75.5342C75.2539 73.8035 77.3308 72.8048 79.5674 72.8047C83.6279 72.8047 86.9296 76.1065 86.9297 80.167C86.8764 81.1788 87.4363 81.8847 88.0088 81.9912C88.0751 81.9913 88.1281 82.0171 88.1943 82.0039C88.6736 82.0039 89.0073 81.4851 89.0606 81.0059C89.0739 80.8195 89.0869 80.6327 89.0869 80.4463C89.1002 79.9273 89.0867 79.395 89.0068 78.876C88.4477 74.6024 84.933 71.1672 80.6328 70.7012C77.7305 70.3817 74.895 71.3805 72.8447 73.4307C70.7945 75.4809 69.7958 78.3165 70.1152 81.2188C70.5812 85.5057 74.0028 89.0336 78.2764 89.5928C80.5395 89.8856 82.7359 89.4197 84.6397 88.2217C85.9443 87.3963 87.582 87.5695 88.6338 88.6211L91.5361 91.5234C91.9755 91.9628 91.9755 92.6818 91.5361 93.1211C91.3098 93.3473 91.0301 93.4541 90.7373 93.4541L90.7246 93.4805C90.4317 93.4805 90.1388 93.3738 89.9258 93.1475L87.0234 90.2451C86.7172 89.9389 86.224 89.8994 85.8379 90.1523C83.4816 91.6432 80.7526 92.2291 77.957 91.8564C72.6716 91.1641 68.424 86.8101 67.8516 81.498C67.4656 77.917 68.704 74.4025 71.2334 71.873ZM129.692 72.8457C133.46 72.8457 136.522 76.0009 136.522 79.915C136.522 83.8292 133.46 86.9844 129.692 86.9844C128.083 86.9843 126.602 86.4112 125.436 85.4512L125.206 85.2539V92.1494H121.878V73.2578H125.206V74.5898C126.404 73.5115 127.975 72.8458 129.692 72.8457ZM145.922 72.8457C149.689 72.8459 152.751 76.001 152.751 79.915C152.751 83.8291 149.689 86.9842 145.922 86.9844C144.205 86.9844 142.634 86.3321 141.436 85.2539V92.1494H138.106V73.2578H141.436V74.5889C142.634 73.5109 144.205 72.8457 145.922 72.8457ZM166.638 72.5664C170.698 72.5664 174 75.8413 174 79.915C174 83.9889 170.712 87.2773 166.638 87.2773C162.564 87.2773 159.275 83.9756 159.275 79.915C159.276 75.8546 162.564 72.5664 166.638 72.5664ZM110.708 79.5947C110.708 80.9527 110.561 82.4574 111.573 83.5225C111.946 83.9085 112.492 84.2018 113.251 84.1885H113.33C114.089 84.2018 114.635 83.9085 115.008 83.5225C116.02 82.4574 115.873 80.9527 115.873 79.5947V73.2578H119.295V81.2988C119.295 81.3121 119.374 87.2369 113.33 87.0771H113.251C107.207 87.2369 107.286 81.2988 107.286 81.2988V73.2578H110.708V79.5947ZM97.3145 74.4961C98.4726 73.0184 100.643 72.8182 102.387 73.0977C103.079 73.2175 103.758 73.404 104.397 73.6836C104.464 73.7102 105.143 73.9634 105.143 74.0566V76.9717C104.81 76.7588 104.45 76.5988 104.104 76.4258C103.612 76.1862 103.172 75.9201 102.653 75.7471C102.134 75.574 101.601 75.4544 101.056 75.4277C100.75 75.4144 100.444 75.4278 100.164 75.5342C99.6848 75.7206 99.3386 76.2265 99.4717 76.7324C99.6182 77.3048 100.151 77.744 100.63 78.0635C101.615 78.7291 102.814 78.9824 103.799 79.6348C105.463 80.7399 106.181 83.1226 105.116 84.8799C104.544 85.825 103.559 86.4912 102.494 86.7842C100.803 87.2501 98.7927 86.8769 97.2217 86.1846C97.155 86.1579 96.543 85.9314 96.543 85.8516V82.8965C97.8476 83.8016 99.2585 84.2148 100.803 84.4678C101.175 84.521 101.575 84.5468 101.921 84.4004C102.573 84.1208 102.84 83.349 102.627 82.71C102.334 81.8048 101.309 81.4184 100.497 81.0723C99.3388 80.5797 98.1937 80.0206 97.4082 79.0088C96.6893 78.0635 96.356 76.8253 96.7022 75.667C96.8352 75.2412 97.0484 74.8421 97.3145 74.4961ZM157.891 86.7969H154.469V67H157.891V86.7969ZM166.638 75.8418C164.375 75.8418 162.551 77.6519 162.551 79.915C162.551 82.1783 164.374 84.0029 166.638 84.0029C168.888 84.0029 170.712 82.165 170.712 79.915C170.712 77.6652 168.901 75.8418 166.638 75.8418ZM129.28 75.8408C127.03 75.8408 125.206 77.6518 125.206 79.915C125.206 82.1783 127.03 84.002 129.28 84.002C131.53 84.0019 133.367 82.1649 133.367 79.915C133.367 77.6652 131.53 75.8409 129.28 75.8408ZM145.509 75.8408C143.271 75.8409 141.454 77.6331 141.436 79.8799V79.9502C141.454 82.1972 143.27 84.0019 145.509 84.002C147.759 84.002 149.596 82.165 149.596 79.915C149.596 77.6651 147.759 75.8408 145.509 75.8408Z" fill="#1A1A1A"/>
<path d="M71.2334 71.873L65.5765 66.2162L65.5765 66.2163L71.2334 71.873ZM80.8721 68.4912L81.7271 60.537L81.7262 60.5369L80.8721 68.4912ZM91.2432 78.623L99.1814 77.6309C99.1796 77.6161 99.1777 77.6014 99.1758 77.5866L91.2432 78.623ZM91.3369 80.5527L83.3438 80.2201C83.3392 80.3309 83.3369 80.4418 83.3369 80.5527H91.3369ZM91.2969 81.2451L99.263 81.9805C99.2703 81.902 99.2763 81.8234 99.2813 81.7447L91.2969 81.2451ZM88.1416 84.2939L88.4078 76.2984C88.3191 76.2954 88.2304 76.2939 88.1416 76.2939V84.2939ZM87.5557 84.2275L85.9524 92.0652C85.9638 92.0676 85.9753 92.0699 85.9867 92.0722L87.5557 84.2275ZM84.6797 80.1143L92.6618 80.6492C92.6737 80.4711 92.6797 80.2927 92.6797 80.1143H84.6797ZM79.5811 75.0811L79.5812 67.0811H79.5811V75.0811ZM75.6133 76.9717L69.4339 71.8908C69.4247 71.902 69.4156 71.9132 69.4064 71.9244L75.6133 76.9717ZM74.5889 81.2988L82.4229 79.6777C82.4203 79.6654 82.4178 79.653 82.4152 79.6407L74.5889 81.2988ZM78.5029 85.1865L76.8927 93.0228C76.9023 93.0248 76.9118 93.0267 76.9213 93.0286L78.5029 85.1865ZM82.71 84.2148L77.7749 77.9184L77.7643 77.9267L82.71 84.2148ZM84.294 84.4141L90.5904 79.479L90.5904 79.479L84.294 84.4141ZM84.0938 85.998L88.988 92.3263C89.0016 92.3157 89.0152 92.3051 89.0288 92.2945L84.0938 85.998ZM78.0361 87.3965L76.4382 95.2353L76.4393 95.2355L78.0361 87.3965ZM72.3652 81.751L80.1968 80.1179L80.1952 80.1104L72.3652 81.751ZM73.8428 75.5342L67.6426 70.4787C67.6348 70.4883 67.6269 70.498 67.6191 70.5076L73.8428 75.5342ZM79.5674 72.8047V64.8047H79.5671L79.5674 72.8047ZM86.9297 80.167L94.9186 80.5875C94.926 80.4474 94.9297 80.3071 94.9297 80.1669L86.9297 80.167ZM88.0088 81.9912L86.5455 89.8563C87.0234 89.9452 87.5084 89.9903 87.9945 89.9912L88.0088 81.9912ZM88.1943 82.0039V74.0039C87.6717 74.0039 87.1504 74.0551 86.6377 74.1568L88.1943 82.0039ZM89.0606 81.0059L97.0116 81.8893C97.0232 81.785 97.0327 81.6805 97.0402 81.5758L89.0606 81.0059ZM89.0869 80.4463L81.0895 80.2414C81.0878 80.3097 81.0869 80.378 81.0869 80.4463H89.0869ZM89.0068 78.876L81.0745 79.9139C81.0822 79.9734 81.0907 80.0328 81.0998 80.0921L89.0068 78.876ZM80.6328 70.7012L79.7574 78.6531L79.7709 78.6546L80.6328 70.7012ZM72.8447 73.4307L67.188 67.7737L67.1879 67.7738L72.8447 73.4307ZM70.1152 81.2188L78.0684 80.3543L78.0672 80.3434L70.1152 81.2188ZM78.2764 89.5928L77.2385 97.5252L77.2497 97.5266L78.2764 89.5928ZM84.6397 88.2217L88.9007 94.9925C88.9061 94.9891 88.9114 94.9857 88.9168 94.9823L84.6397 88.2217ZM88.6338 88.6211L94.2906 82.9642L94.2903 82.9639L88.6338 88.6211ZM91.5361 91.5234L85.8793 97.1803V97.1803L91.5361 91.5234ZM91.5361 93.1211L97.192 98.7789L97.193 98.7779L91.5361 93.1211ZM90.7373 93.4541V85.4541C87.6641 85.4541 84.8625 87.2146 83.5293 89.9836L90.7373 93.4541ZM90.7246 93.4805V101.48C93.7978 101.48 96.5994 99.72 97.9326 96.951L90.7246 93.4805ZM89.9258 93.1475L95.7511 87.6642C95.6958 87.6055 95.6397 87.5476 95.5826 87.4906L89.9258 93.1475ZM87.0234 90.2451L92.6803 84.5883H92.6803L87.0234 90.2451ZM85.8379 90.1523L90.1154 96.9128C90.1511 96.8901 90.1867 96.8672 90.2221 96.844L85.8379 90.1523ZM77.957 91.8564L79.0141 83.9266C79.0081 83.9258 79.0021 83.925 78.996 83.9242L77.957 91.8564ZM67.8516 81.498L75.8055 80.6409V80.6409L67.8516 81.498ZM129.692 72.8457V64.8457H129.692L129.692 72.8457ZM136.522 79.915H144.522V79.915L136.522 79.915ZM129.692 86.9844L129.692 94.9844H129.692V86.9844ZM125.436 85.4512L120.221 91.5179C120.264 91.5549 120.307 91.5913 120.351 91.6273L125.436 85.4512ZM125.206 85.2539L130.421 79.1871C128.05 77.1493 124.709 76.6791 121.868 77.9835C119.027 79.2878 117.206 82.1276 117.206 85.2539H125.206ZM125.206 92.1494V100.149C129.624 100.149 133.206 96.5677 133.206 92.1494H125.206ZM121.878 92.1494H113.878C113.878 96.5677 117.46 100.149 121.878 100.149V92.1494ZM121.878 73.2578V65.2578C117.46 65.2578 113.878 68.8395 113.878 73.2578H121.878ZM125.206 73.2578H133.206C133.206 68.8395 129.624 65.2578 125.206 65.2578V73.2578ZM125.206 74.5898H117.206C117.206 77.7491 119.065 80.6125 121.951 81.8978C124.837 83.1832 128.209 82.6496 130.558 80.5362L125.206 74.5898ZM145.922 72.8457L145.922 64.8457H145.922V72.8457ZM152.751 79.915H160.751V79.915L152.751 79.915ZM145.922 86.9844V94.9844H145.922L145.922 86.9844ZM141.436 85.2539L146.787 79.3071C144.438 77.1939 141.066 76.6606 138.181 77.946C135.295 79.2314 133.436 82.0947 133.436 85.2539H141.436ZM141.436 92.1494V100.149C145.854 100.149 149.436 96.5677 149.436 92.1494H141.436ZM138.106 92.1494H130.106C130.106 96.5677 133.688 100.149 138.106 100.149V92.1494ZM138.106 73.2578V65.2578C133.688 65.2578 130.106 68.8395 130.106 73.2578H138.106ZM141.436 73.2578H149.436C149.436 68.8395 145.854 65.2578 141.436 65.2578V73.2578ZM141.436 74.5889H133.436C133.436 77.7479 135.295 80.6112 138.18 81.8966C141.066 83.1821 144.438 82.649 146.786 80.536L141.436 74.5889ZM166.638 72.5664V64.5664V64.5664V72.5664ZM174 79.915H182V79.9147L174 79.915ZM166.638 87.2773V95.2773V95.2773V87.2773ZM159.275 79.915L151.275 79.9147V79.915H159.275ZM111.573 83.5225L105.773 89.0325C105.788 89.0481 105.803 89.0637 105.818 89.0793L111.573 83.5225ZM113.251 84.1885V76.1885C113.204 76.1885 113.157 76.1889 113.111 76.1897L113.251 84.1885ZM113.33 84.1885L113.47 76.1897C113.424 76.1889 113.377 76.1885 113.33 76.1885V84.1885ZM115.008 83.5225L120.763 89.0794C120.778 89.0638 120.793 89.0482 120.808 89.0325L115.008 83.5225ZM115.873 73.2578V65.2578C111.455 65.2578 107.873 68.8395 107.873 73.2578H115.873ZM119.295 73.2578H127.295C127.295 68.8395 123.713 65.2578 119.295 65.2578V73.2578ZM113.33 87.0771L113.541 79.0799C113.471 79.0781 113.401 79.0771 113.33 79.0771V87.0771ZM113.251 87.0771V79.0771C113.181 79.0771 113.11 79.0781 113.04 79.0799L113.251 87.0771ZM107.286 81.2988L115.285 81.4058C115.286 81.3702 115.286 81.3345 115.286 81.2988H107.286ZM107.286 73.2578V65.2578C102.868 65.2578 99.2861 68.8395 99.2861 73.2578H107.286ZM110.708 73.2578H118.708C118.708 68.8395 115.126 65.2578 110.708 65.2578V73.2578ZM97.3145 74.4961L91.018 69.561C91.0029 69.5804 90.9878 69.5998 90.9728 69.6192L97.3145 74.4961ZM102.387 73.0977L103.751 65.2149C103.718 65.2092 103.685 65.2037 103.653 65.1984L102.387 73.0977ZM104.397 73.6836L101.191 81.0129C101.269 81.047 101.347 81.0798 101.426 81.1114L104.397 73.6836ZM105.143 76.9717L100.831 83.7105C103.294 85.286 106.419 85.3928 108.984 83.9892C111.548 82.5856 113.143 79.895 113.143 76.9717H105.143ZM104.104 76.4258L107.682 69.2704C107.656 69.2574 107.63 69.2446 107.604 69.232L104.104 76.4258ZM102.653 75.7471L105.183 68.1576L105.183 68.1576L102.653 75.7471ZM101.056 75.4277L101.445 67.4372C101.431 67.4365 101.417 67.4359 101.403 67.4353L101.056 75.4277ZM100.164 75.5342L97.3172 68.0579C97.2996 68.0646 97.282 68.0713 97.2645 68.0781L100.164 75.5342ZM99.4717 76.7324L107.222 74.7492C107.217 74.7316 107.213 74.714 107.208 74.6965L99.4717 76.7324ZM100.63 78.0635L105.109 71.4348C105.095 71.4255 105.081 71.4163 105.068 71.4071L100.63 78.0635ZM103.799 79.6348L108.225 72.9707L108.216 72.9645L103.799 79.6348ZM105.116 84.8799L98.2745 80.7337L98.2733 80.7356L105.116 84.8799ZM102.494 86.7842L100.372 79.0707L100.369 79.0717L102.494 86.7842ZM97.2217 86.1846L100.448 78.8639C100.363 78.8267 100.278 78.7909 100.193 78.7567L97.2217 86.1846ZM96.543 82.8965L101.103 76.3236C98.6574 74.6265 95.4714 74.428 92.8337 75.8084C90.196 77.1887 88.543 79.9195 88.543 82.8965H96.543ZM100.803 84.4678L99.5096 92.3626C99.5634 92.3714 99.6174 92.3797 99.6714 92.3874L100.803 84.4678ZM101.921 84.4004L105.037 91.7684C105.049 91.7635 105.061 91.7585 105.072 91.7536L101.921 84.4004ZM102.627 82.71L95.0155 85.1728C95.0227 85.1952 95.0301 85.2175 95.0375 85.2398L102.627 82.71ZM100.497 81.0723L103.634 73.7128L103.628 73.7104L100.497 81.0723ZM97.4082 79.0088L91.0406 83.8517C91.0566 83.8728 91.0727 83.8937 91.0889 83.9146L97.4082 79.0088ZM96.7022 75.667L89.0665 73.2803C89.0565 73.3123 89.0467 73.3442 89.0371 73.3763L96.7022 75.667ZM157.891 86.7969V94.7969C162.309 94.7969 165.891 91.2152 165.891 86.7969H157.891ZM154.469 86.7969H146.469C146.469 91.2152 150.05 94.7969 154.469 94.7969V86.7969ZM154.469 67V59C150.05 59 146.469 62.5817 146.469 67H154.469ZM157.891 67H165.891C165.891 62.5817 162.309 59 157.891 59V67ZM166.638 75.8418V67.8418V67.8418V75.8418ZM162.551 79.915L154.551 79.9144V79.915H162.551ZM166.638 84.0029V92.0029V92.0029V84.0029ZM170.712 79.915H178.712V79.9144L170.712 79.915ZM129.28 75.8408L129.281 67.8408H129.28V75.8408ZM125.206 79.915L117.206 79.9149V79.915H125.206ZM129.28 84.002V92.002H129.281L129.28 84.002ZM133.367 79.915H141.367V79.9149L133.367 79.915ZM145.509 75.8408V67.8408H145.509L145.509 75.8408ZM141.436 79.8799L133.436 79.8129C133.436 79.8352 133.436 79.8576 133.436 79.8799H141.436ZM141.436 79.9502H133.436C133.436 79.9724 133.436 79.9947 133.436 80.0169L141.436 79.9502ZM145.509 84.002L145.509 92.002H145.509V84.002ZM149.596 79.915H157.596V79.9149L149.596 79.915ZM71.2334 71.873L76.8903 77.5299C77.6967 76.7234 78.8128 76.3161 80.0179 76.4455L80.8721 68.4912L81.7262 60.5369C75.7423 59.8944 69.829 61.9637 65.5765 66.2162L71.2334 71.873ZM80.8721 68.4912L80.017 76.4454C81.6686 76.6229 83.0969 78.0242 83.3106 79.6595L91.2432 78.623L99.1758 77.5866C98.0048 68.6244 90.7262 61.5044 81.7271 60.537L80.8721 68.4912ZM91.2432 78.623L83.3049 79.6152C83.3448 79.9342 83.3476 80.1296 83.3438 80.2201L91.3369 80.5527L99.33 80.8854C99.3794 79.6983 99.3012 78.5896 99.1814 77.6309L91.2432 78.623ZM91.3369 80.5527H83.3369C83.3369 80.4657 83.3393 80.4012 83.3408 80.3676C83.3423 80.3348 83.3436 80.3201 83.3423 80.3376C83.3417 80.3458 83.3408 80.3582 83.3392 80.3791C83.3371 80.4063 83.3361 80.4188 83.3329 80.4592C83.3283 80.5191 83.3199 80.6265 83.3125 80.7456L91.2969 81.2451L99.2813 81.7447C99.2805 81.7573 99.2805 81.7548 99.2846 81.7023C99.2873 81.667 99.2949 81.5713 99.3015 81.4802C99.3149 81.2925 99.3369 80.9535 99.3369 80.5527H91.3369ZM91.2969 81.2451L83.3307 80.5098C83.4285 79.4504 83.9035 78.458 84.6861 77.6984C85.4756 76.9319 86.7707 76.2439 88.4078 76.2984L88.1416 84.2939L87.8754 92.2895C94.3892 92.5064 98.78 87.2133 99.263 81.9805L91.2969 81.2451ZM88.1416 84.2939V76.2939C88.6696 76.2939 89.0513 76.3682 89.1246 76.3829L87.5557 84.2275L85.9867 92.0722C86.4595 92.1667 87.2143 92.2939 88.1416 92.2939V84.2939ZM87.5557 84.2275L89.159 76.3898C91.8558 76.9415 92.7585 79.2065 92.6618 80.6492L84.6797 80.1143L76.6976 79.5793C76.335 84.989 79.7411 90.7946 85.9524 92.0652L87.5557 84.2275ZM84.6797 80.1143H92.6797C92.6797 72.8875 86.7423 67.0812 79.5812 67.0811L79.5811 75.0811L79.5809 83.0811C78.038 83.081 76.6797 81.8559 76.6797 80.1143H84.6797ZM79.5811 75.0811V67.0811C75.5922 67.0811 71.9055 68.8849 69.4339 71.8908L75.6133 76.9717L81.7927 82.0525C81.2915 82.6621 80.4812 83.0811 79.5811 83.0811V75.0811ZM75.6133 76.9717L69.4064 71.9244C66.8701 75.0434 65.9373 79.0614 66.7626 82.9569L74.5889 81.2988L82.4152 79.6407C82.4866 79.9778 82.4976 80.3981 82.3897 80.8514C82.2818 81.3055 82.075 81.7055 81.8201 82.019L75.6133 76.9717ZM74.5889 81.2988L66.7548 82.9199C67.8092 88.0152 71.8559 91.9878 76.8927 93.0228L78.5029 85.1865L80.1131 77.3502C81.2626 77.5864 82.1674 78.4432 82.4229 79.6777L74.5889 81.2988ZM78.5029 85.1865L76.9213 93.0286C80.6559 93.7818 84.5637 92.9348 87.6556 90.5029L82.71 84.2148L77.7643 77.9267C78.4867 77.3586 79.3851 77.2034 80.0845 77.3444L78.5029 85.1865ZM82.71 84.2148L87.645 90.5113C84.5867 92.9084 80.279 92.26 77.9975 89.3491L84.294 84.4141L90.5904 79.479C87.5367 75.583 81.8185 74.7491 77.7749 77.9184L82.71 84.2148ZM84.294 84.4141L77.9975 89.3491C75.5927 86.2809 76.2578 81.9752 79.1587 79.7016L84.0938 85.998L89.0288 92.2945C92.9148 89.2487 93.7674 83.5325 90.5904 79.479L84.294 84.4141ZM84.0938 85.998L79.1995 79.6698C79.2636 79.6203 79.3414 79.583 79.4238 79.5639C79.5073 79.5445 79.5811 79.5469 79.633 79.5575L78.0361 87.3965L76.4393 95.2355C80.8725 96.1386 85.4398 95.0704 88.988 92.3263L84.0938 85.998ZM78.0361 87.3965L79.6341 79.5577C79.837 79.5991 79.9523 79.6843 80.0104 79.7421C80.0686 79.8 80.1545 79.9153 80.1968 80.1179L72.3652 81.751L64.5337 83.3841C65.772 89.3225 70.5003 94.0248 76.4382 95.2353L78.0361 87.3965ZM72.3652 81.751L80.1952 80.1104C80.2037 80.1509 80.2084 80.2237 80.1868 80.3144C80.1652 80.4049 80.1224 80.4914 80.0664 80.5607L73.8428 75.5342L67.6191 70.5076C64.6958 74.1272 63.5823 78.8433 64.5353 83.3916L72.3652 81.751ZM73.8428 75.5342L80.0429 80.5897C80.0068 80.6341 79.9412 80.6926 79.845 80.7386C79.7477 80.7851 79.648 80.8047 79.5677 80.8047L79.5674 72.8047L79.5671 64.8047C74.8981 64.8049 70.555 66.9069 67.6426 70.4787L73.8428 75.5342ZM79.5674 72.8047V80.8047C79.2095 80.8047 78.9297 80.5246 78.9297 80.1671L86.9297 80.167L94.9297 80.1669C94.9296 71.6883 88.0463 64.8047 79.5674 64.8047V72.8047ZM86.9297 80.167L78.9408 79.7465C78.7489 83.3914 80.8097 88.7891 86.5455 89.8563L88.0088 81.9912L89.4721 74.1262C91.8108 74.5613 93.2451 75.9826 93.9489 77.0691C94.7202 78.2597 94.9748 79.5204 94.9186 80.5875L86.9297 80.167ZM88.0088 81.9912L87.9945 89.9912C87.4977 89.9903 87.1073 89.9411 86.9078 89.9122C86.8123 89.8983 86.739 89.8857 86.7323 89.8846C86.697 89.8785 86.7723 89.8915 86.8295 89.9008C87.121 89.9477 88.2913 90.1405 89.7509 89.851L88.1943 82.0039L86.6377 74.1568C88.0311 73.8804 89.1418 74.067 89.3736 74.1043C89.4159 74.1111 89.4763 74.1215 89.426 74.1129C89.4043 74.1092 89.3159 74.0941 89.205 74.078C88.9749 74.0446 88.553 73.9922 88.0231 73.9912L88.0088 81.9912ZM88.1943 82.0039V90.0039C91.5745 90.0039 93.885 88.135 95.0614 86.6479C96.2133 85.1918 96.8326 83.5001 97.0116 81.8893L89.0606 81.0059L81.1095 80.1224C81.2352 78.9909 81.6611 77.7982 82.513 76.7213C83.3894 75.6134 85.2935 74.0039 88.1943 74.0039V82.0039ZM89.0606 81.0059L97.0402 81.5758C97.0509 81.4257 97.0869 80.9617 97.0869 80.4463H89.0869H81.0869C81.0869 80.3999 81.0877 80.3639 81.0884 80.3406C81.0891 80.3175 81.0899 80.3043 81.0899 80.3041C81.0899 80.3039 81.0898 80.3062 81.0894 80.3116C81.0891 80.3171 81.0886 80.325 81.0879 80.3361C81.0871 80.3473 81.0862 80.3607 81.085 80.3775C81.0838 80.3947 81.0825 80.4131 81.0809 80.4359L89.0606 81.0059ZM89.0869 80.4463L97.0843 80.6511C97.104 79.8818 97.0936 78.8286 96.9139 77.6598L89.0068 78.876L81.0998 80.0921C81.0881 80.016 81.0883 79.9861 81.0897 80.017C81.0911 80.0481 81.0927 80.1178 81.0895 80.2414L89.0869 80.4463ZM89.0068 78.876L96.9392 77.8381C95.8998 69.8936 89.4545 63.6103 81.4947 62.7477L80.6328 70.7012L79.7709 78.6546C80.0482 78.6847 80.3613 78.8186 80.6333 79.0843C80.9056 79.3502 81.0404 79.6536 81.0745 79.9139L89.0068 78.876ZM80.6328 70.7012L81.5083 62.7492C76.1973 62.1645 70.9576 64.0042 67.188 67.7737L72.8447 73.4307L78.5015 79.0876C78.8324 78.7568 79.2638 78.5988 79.7574 78.6531L80.6328 70.7012ZM72.8447 73.4307L67.1879 67.7738C63.4181 71.5436 61.5787 76.7833 62.1633 82.0941L70.1152 81.2188L78.0672 80.3434C78.0128 79.8496 78.1709 79.4182 78.5016 79.0875L72.8447 73.4307ZM70.1152 81.2188L62.1621 82.0832C63.0229 90.003 69.2695 96.4825 77.2385 97.5252L78.2764 89.5928L79.3143 81.6604C79.0649 81.6278 78.7671 81.4975 78.5012 81.2242C78.2341 80.9498 78.0986 80.6322 78.0684 80.3543L70.1152 81.2188ZM78.2764 89.5928L77.2497 97.5266C81.2992 98.0506 85.3745 97.2116 88.9007 94.9925L84.6397 88.2217L80.3786 81.4509C80.0974 81.6279 79.7798 81.7206 79.303 81.6589L78.2764 89.5928ZM84.6397 88.2217L88.9168 94.9823C87.1676 96.0889 84.6607 95.9614 82.9773 94.2783L88.6338 88.6211L94.2903 82.9639C90.5034 79.1775 84.721 78.7036 80.3625 81.461L84.6397 88.2217ZM88.6338 88.6211L82.9769 94.2779L85.8793 97.1803L91.5361 91.5234L97.193 85.8666L94.2906 82.9642L88.6338 88.6211ZM91.5361 91.5234L85.8793 97.1803C83.1944 94.4954 83.1944 90.1491 85.8793 87.4642L91.5361 93.1211L97.193 98.7779C100.757 95.2144 100.757 89.4301 97.193 85.8666L91.5361 91.5234ZM91.5361 93.1211L85.8803 87.4633C87.1982 86.1458 88.9719 85.4541 90.7373 85.4541V93.4541V101.454C93.0884 101.454 95.4215 100.549 97.192 98.7789L91.5361 93.1211ZM90.7373 93.4541L83.5293 89.9836L83.5166 90.0099L90.7246 93.4805L97.9326 96.951L97.9453 96.9246L90.7373 93.4541ZM90.7246 93.4805V85.4805C92.3394 85.4805 94.2594 86.0796 95.7511 87.6642L89.9258 93.1475L84.1005 98.6307C86.0181 100.668 88.5241 101.48 90.7246 101.48V93.4805ZM89.9258 93.1475L95.5826 87.4906L92.6803 84.5883L87.0234 90.2451L81.3666 95.902L84.2689 98.8043L89.9258 93.1475ZM87.0234 90.2451L92.6803 84.5883C89.4642 81.3722 84.7287 81.3149 81.4537 83.4607L85.8379 90.1523L90.2221 96.844C87.7192 98.4839 83.9703 98.5057 81.3666 95.902L87.0234 90.2451ZM85.8379 90.1523L81.5604 83.3919C80.8209 83.8598 79.9859 84.0561 79.0141 83.9266L77.957 91.8564L76.8999 99.7863C81.5193 100.402 86.1423 99.4266 90.1154 96.9128L85.8379 90.1523ZM77.957 91.8564L78.996 83.9242C77.3847 83.7131 75.9836 82.2936 75.8055 80.6409L67.8516 81.498L59.8976 82.3552C60.8645 91.3265 67.9585 98.6152 76.9181 99.7887L77.957 91.8564ZM67.8516 81.498L75.8055 80.6409C75.6779 79.4564 76.0802 78.3399 76.8903 77.5298L71.2334 71.873L65.5765 66.2163C61.3278 70.465 59.2534 76.3776 59.8976 82.3552L67.8516 81.498ZM129.692 72.8457V80.8457C129.283 80.8457 128.952 80.6622 128.771 80.4753C128.593 80.2918 128.522 80.0759 128.522 79.9151L136.522 79.915L144.522 79.915C144.522 71.8337 138.125 64.8457 129.692 64.8457V72.8457ZM136.522 79.915H128.522C128.522 79.7542 128.593 79.5383 128.771 79.3548C128.952 79.1679 129.283 78.9844 129.692 78.9844V86.9844V94.9844C138.125 94.9844 144.522 87.9964 144.522 79.915H136.522ZM129.692 86.9844L129.693 78.9844C130.021 78.9844 130.32 79.1098 130.52 79.275L125.436 85.4512L120.351 91.6273C122.883 93.7125 126.144 94.9842 129.692 94.9844L129.692 86.9844ZM125.436 85.4512L130.65 79.3844L130.421 79.1871L125.206 85.2539L119.991 91.3207L120.221 91.5179L125.436 85.4512ZM125.206 85.2539H117.206V92.1494H125.206H133.206V85.2539H125.206ZM125.206 92.1494V84.1494H121.878V92.1494V100.149H125.206V92.1494ZM121.878 92.1494H129.878V73.2578H121.878H113.878V92.1494H121.878ZM121.878 73.2578V81.2578H125.206V73.2578V65.2578H121.878V73.2578ZM125.206 73.2578H117.206V74.5898H125.206H133.206V73.2578H125.206ZM125.206 74.5898L130.558 80.5362C130.392 80.6851 130.089 80.8457 129.693 80.8457L129.692 72.8457L129.692 64.8457C125.861 64.8459 122.416 66.338 119.854 68.6435L125.206 74.5898ZM145.922 72.8457L145.922 80.8457C145.512 80.8457 145.18 80.6621 144.999 80.4749C144.822 80.2912 144.751 80.0754 144.751 79.9151L152.751 79.915L160.751 79.915C160.751 71.835 154.356 64.8461 145.922 64.8457L145.922 72.8457ZM152.751 79.915H144.751C144.751 79.7547 144.822 79.539 144.999 79.3552C145.18 79.168 145.512 78.9844 145.922 78.9844L145.922 86.9844L145.922 94.9844C154.356 94.984 160.751 87.9952 160.751 79.915H152.751ZM145.922 86.9844V78.9844C146.276 78.9844 146.588 79.1285 146.787 79.3071L141.436 85.2539L136.084 91.2007C138.679 93.5357 142.133 94.9844 145.922 94.9844V86.9844ZM141.436 85.2539H133.436V92.1494H141.436H149.436V85.2539H141.436ZM141.436 92.1494V84.1494H138.106V92.1494V100.149H141.436V92.1494ZM138.106 92.1494H146.106V73.2578H138.106H130.106V92.1494H138.106ZM138.106 73.2578V81.2578H141.436V73.2578V65.2578H138.106V73.2578ZM141.436 73.2578H133.436V74.5889H141.436H149.436V73.2578H141.436ZM141.436 74.5889L146.786 80.536C146.62 80.6858 146.317 80.8457 145.922 80.8457V72.8457V64.8457C142.093 64.8457 138.647 66.336 136.085 68.6417L141.436 74.5889ZM166.638 72.5664L166.638 80.5664C166.308 80.5664 166 80.2881 166 79.9154L174 79.915L182 79.9147C182 71.3945 175.088 64.5664 166.638 64.5664V72.5664ZM174 79.915H166C166 79.5707 166.293 79.2773 166.638 79.2773L166.638 87.2773V95.2773C175.13 95.2773 182 88.4072 182 79.915H174ZM166.638 87.2773V79.2773C166.992 79.2773 167.275 79.5668 167.275 79.915H159.275H151.275C151.275 88.3845 158.136 95.2773 166.638 95.2773V87.2773ZM159.275 79.915L167.275 79.9154C167.275 80.2825 166.973 80.5664 166.638 80.5664V72.5664V64.5664C158.155 64.5664 151.276 71.4267 151.275 79.9147L159.275 79.915ZM110.708 79.5947H102.708C102.708 79.6949 102.649 81.345 102.83 82.7176C103.054 84.4096 103.716 86.8668 105.773 89.0325L111.573 83.5225L117.373 78.0125C117.859 78.5239 118.195 79.0858 118.408 79.6034C118.609 80.0917 118.672 80.4689 118.692 80.6193C118.71 80.7572 118.702 80.7862 118.701 80.5841C118.7 80.4876 118.701 80.3763 118.703 80.2036C118.705 80.052 118.708 79.823 118.708 79.5947H110.708ZM111.573 83.5225L105.818 89.0793C107.613 90.938 110.247 92.2424 113.391 92.1872L113.251 84.1885L113.111 76.1897C113.825 76.1772 114.631 76.3124 115.436 76.6595C116.227 77.0007 116.857 77.4769 117.328 77.9657L111.573 83.5225ZM113.251 84.1885V92.1885H113.33V84.1885V76.1885H113.251V84.1885ZM113.33 84.1885L113.19 92.1872C116.334 92.2424 118.968 90.9379 120.763 89.0794L115.008 83.5225L109.253 77.9655C109.725 77.4768 110.354 77.0006 111.145 76.6595C111.95 76.3124 112.756 76.1772 113.47 76.1897L113.33 84.1885ZM115.008 83.5225L120.808 89.0325C122.865 86.8668 123.527 84.4096 123.751 82.7176C123.932 81.345 123.873 79.6949 123.873 79.5947H115.873H107.873C107.873 79.823 107.876 80.052 107.878 80.2036C107.88 80.3763 107.881 80.4876 107.88 80.5841C107.879 80.7862 107.871 80.7572 107.889 80.6193C107.909 80.4689 107.972 80.0917 108.173 79.6034C108.386 79.0858 108.722 78.5239 109.208 78.0125L115.008 83.5225ZM115.873 79.5947H123.873V73.2578H115.873H107.873V79.5947H115.873ZM115.873 73.2578V81.2578H119.295V73.2578V65.2578H115.873V73.2578ZM119.295 73.2578H111.295V81.2988H119.295H127.295V73.2578H119.295ZM119.295 81.2988H111.295C111.295 81.3495 111.295 81.265 111.296 81.2055C111.297 81.1537 111.299 81.1143 111.3 81.0854C111.304 81.0306 111.307 81.0033 111.309 80.9905C111.311 80.9793 111.315 80.9555 111.327 80.9152C111.339 80.8761 111.368 80.7861 111.432 80.6586C111.566 80.3923 111.897 79.8868 112.534 79.4835C113.21 79.0554 113.691 79.0839 113.541 79.0799L113.33 87.0771L113.119 95.0744C115.991 95.1503 118.728 94.4981 121.09 93.0036C123.412 91.5339 124.857 89.5764 125.726 87.8471C126.576 86.158 126.945 84.5632 127.116 83.469C127.205 82.9014 127.25 82.4103 127.273 82.0296C127.284 81.8377 127.29 81.6698 127.293 81.5298C127.296 81.3822 127.295 81.2498 127.295 81.2988H119.295ZM113.33 87.0771V79.0771H113.251V87.0771V95.0771H113.33V87.0771ZM113.251 87.0771L113.04 79.0799C112.893 79.0838 113.376 79.0563 114.053 79.4854C114.69 79.889 115.018 80.3935 115.151 80.6569C115.214 80.7831 115.243 80.872 115.254 80.9102C115.266 80.9495 115.27 80.9726 115.271 80.9836C115.273 80.9961 115.277 81.0234 115.28 81.079C115.282 81.1082 115.284 81.1481 115.285 81.2009C115.286 81.2275 115.286 81.2576 115.286 81.2915C115.286 81.3085 115.286 81.3265 115.286 81.3455C115.286 81.355 115.286 81.3648 115.286 81.3749C115.286 81.3799 115.286 81.385 115.286 81.3901C115.286 81.3927 115.286 81.3967 115.286 81.3979C115.285 81.4019 115.285 81.4058 107.286 81.2988C99.2869 81.1918 99.2868 81.1958 99.2868 81.1999C99.2867 81.2012 99.2867 81.2053 99.2867 81.208C99.2866 81.2136 99.2865 81.2192 99.2865 81.2249C99.2864 81.2364 99.2863 81.2484 99.2862 81.2607C99.2861 81.2855 99.286 81.312 99.2861 81.3402C99.2863 81.3966 99.287 81.46 99.2884 81.53C99.2913 81.6697 99.2973 81.8371 99.3086 82.0284C99.3312 82.408 99.376 82.8981 99.4649 83.4648C99.6364 84.5571 100.005 86.1505 100.853 87.8389C101.721 89.5668 103.163 91.5259 105.485 92.998C107.847 94.4955 110.587 95.1504 113.462 95.0744L113.251 87.0771ZM107.286 81.2988H115.286V73.2578H107.286H99.2861V81.2988H107.286ZM107.286 73.2578V81.2578H110.708V73.2578V65.2578H107.286V73.2578ZM110.708 73.2578H102.708V79.5947H110.708H118.708V73.2578H110.708ZM97.3145 74.4961L103.611 79.4311C102.735 80.5491 101.699 80.874 101.355 80.9499C101.043 81.0189 100.972 80.9731 101.121 80.9969L102.387 73.0977L103.653 65.1984C101.192 64.8042 95.0015 64.4787 91.018 69.561L97.3145 74.4961ZM102.387 73.0977L101.022 80.9805C101.116 80.9966 101.175 81.0116 101.204 81.02C101.233 81.0283 101.226 81.0283 101.191 81.0129L104.397 73.6836L107.604 66.3543C106.261 65.7667 104.941 65.4208 103.751 65.2149L102.387 73.0977ZM104.397 73.6836L101.426 81.1114C101.46 81.1247 101.487 81.1353 101.497 81.1394C101.51 81.1445 101.522 81.149 101.528 81.1515C101.565 81.1657 101.53 81.1519 101.559 81.1634C101.574 81.169 101.584 81.173 101.593 81.1766C101.619 81.187 101.61 81.1839 101.574 81.1679C101.554 81.1593 101.504 81.137 101.433 81.1024C101.371 81.0725 101.228 81.0017 101.041 80.8941C100.917 80.823 100.458 80.5576 99.9295 80.1083C99.6718 79.889 99.1452 79.4155 98.6251 78.6873C98.1705 78.0509 97.1426 76.4209 97.1426 74.0566H105.143H113.143C113.143 71.6807 112.109 70.0379 111.645 69.3874C111.115 68.6453 110.573 68.1568 110.297 67.9216C109.731 67.4405 109.218 67.1399 109.03 67.0315C108.583 66.7736 108.178 66.5937 108.016 66.5224C107.675 66.3723 107.173 66.1775 107.369 66.2558L104.397 73.6836ZM105.143 74.0566H97.1426V76.9717H105.143H113.143V74.0566H105.143ZM105.143 76.9717L109.454 70.2329C108.965 69.9197 108.524 69.6886 108.236 69.5431C108.091 69.4702 107.957 69.4045 107.87 69.3624C107.768 69.3128 107.724 69.2911 107.682 69.2704L104.104 76.4258L100.527 83.5812C100.658 83.647 100.788 83.7101 100.862 83.7458C100.95 83.789 100.991 83.8091 101.021 83.8244C101.048 83.8377 101.038 83.8336 101.008 83.8167C100.977 83.7993 100.914 83.7637 100.831 83.7105L105.143 76.9717ZM104.104 76.4258L107.604 69.232C107.231 69.0504 107.696 69.2704 106.965 68.9052C106.581 68.7132 105.958 68.416 105.183 68.1576L102.653 75.7471L100.124 83.3365C99.8676 83.2512 99.7245 83.1735 99.813 83.2178C99.8672 83.2449 99.9184 83.2715 100.067 83.3485C100.192 83.4128 100.386 83.5133 100.605 83.6196L104.104 76.4258ZM102.653 75.7471L105.183 68.1576C104.168 67.8192 102.9 67.5082 101.445 67.4372L101.056 75.4277L100.666 83.4182C100.303 83.4005 100.1 83.3288 100.124 83.3366L102.653 75.7471ZM101.056 75.4277L101.403 67.4353C100.763 67.4075 99.1406 67.3635 97.3172 68.0579L100.164 75.5342L103.011 83.0105C102.347 83.2634 101.776 83.3584 101.396 83.3964C101.028 83.4332 100.767 83.4227 100.708 83.4202L101.056 75.4277ZM100.164 75.5342L97.2645 68.0781C94.0498 69.3283 90.3022 73.3232 91.7351 78.7684L99.4717 76.7324L107.208 74.6965C107.775 76.8503 107.247 78.8183 106.42 80.1768C105.624 81.4826 104.439 82.4554 103.064 82.9902L100.164 75.5342ZM99.4717 76.7324L91.7214 78.7157C92.6905 82.5027 95.7135 84.4007 96.1922 84.7198L100.63 78.0635L105.068 71.4071C105.078 71.4139 105.145 71.4586 105.244 71.538C105.342 71.6158 105.511 71.7575 105.711 71.9674C106.071 72.344 106.841 73.2616 107.222 74.7492L99.4717 76.7324ZM100.63 78.0635L96.151 84.6922C97.4074 85.5411 98.6892 86.0515 99.1306 86.2359C99.8159 86.5222 99.6337 86.4716 99.3821 86.305L103.799 79.6348L108.216 72.9645C106.979 72.1455 105.705 71.6422 105.298 71.4724C104.648 71.2006 104.838 71.2516 105.109 71.4348L100.63 78.0635ZM103.799 79.6348L99.3728 86.2989C98.4725 85.701 97.966 84.8798 97.7514 84.0756C97.5271 83.2355 97.5218 81.9758 98.2745 80.7337L105.116 84.8799L111.958 89.0261C115.553 83.0939 112.947 76.1069 108.225 72.9707L103.799 79.6348ZM105.116 84.8799L98.2733 80.7356C98.922 79.6645 99.7878 79.2315 100.372 79.0707L102.494 86.7842L104.616 94.4977C107.33 93.751 110.166 91.9855 111.959 89.0242L105.116 84.8799ZM102.494 86.7842L100.369 79.0717C100.597 79.0087 100.758 78.9951 100.828 78.9921C100.899 78.989 100.914 78.9948 100.872 78.9892C100.831 78.9837 100.764 78.971 100.677 78.9462C100.591 78.9214 100.511 78.8918 100.448 78.8639L97.2217 86.1846L93.9956 93.5053C96.5819 94.645 100.556 95.6165 104.62 94.4967L102.494 86.7842ZM97.2217 86.1846L100.193 78.7567C100.137 78.7342 100.086 78.715 100.083 78.7137C100.072 78.7094 100.051 78.7012 100.048 78.7002C100.032 78.6939 100.022 78.69 100.013 78.6867C99.9884 78.677 100.001 78.6812 100.039 78.6979C100.06 78.7069 100.11 78.7288 100.18 78.7624C100.241 78.7913 100.381 78.8593 100.563 78.9619C100.682 79.0287 101.133 79.2827 101.655 79.7121C101.907 79.9194 102.439 80.3804 102.97 81.0957C103.418 81.6975 104.543 83.3755 104.543 85.8516H96.543H88.543C88.543 88.3376 89.673 90.0268 90.1293 90.6406C90.67 91.368 91.2154 91.8422 91.484 92.0633C92.0392 92.5205 92.5388 92.8055 92.7159 92.9052C93.1432 93.1457 93.5267 93.3135 93.6758 93.3782C93.964 93.5031 94.4922 93.709 94.2508 93.6125L97.2217 86.1846ZM96.543 85.8516H104.543V82.8965H96.543H88.543V85.8516H96.543ZM96.543 82.8965L91.9826 89.4694C94.6485 91.319 97.3622 92.0108 99.5096 92.3626L100.803 84.4678L102.096 76.573C101.614 76.494 101.359 76.4225 101.225 76.3757C101.164 76.354 101.132 76.339 101.12 76.3333C101.11 76.328 101.106 76.3256 101.103 76.3236L96.543 82.8965ZM100.803 84.4678L99.6714 92.3874C100.167 92.4582 102.506 92.8391 105.037 91.7684L101.921 84.4004L98.8044 77.0324C99.8031 76.61 100.664 76.5254 101.153 76.512C101.404 76.5051 101.602 76.516 101.724 76.5258C101.845 76.5355 101.924 76.5468 101.934 76.5482L100.803 84.4678ZM101.921 84.4004L105.072 91.7536C110.144 89.5799 111.53 84.1208 110.216 80.1801L102.627 82.71L95.0375 85.2398C94.15 82.5772 95.0025 78.6617 98.7695 77.0472L101.921 84.4004ZM102.627 82.71L110.238 80.2471C109.304 77.3584 107.304 75.7358 106.077 74.9482C104.974 74.2406 103.737 73.7567 103.634 73.7128L100.497 81.0723L97.3604 88.4317C97.6836 88.5695 97.7076 88.5777 97.7823 88.6122C97.8197 88.6294 97.669 88.5638 97.4367 88.4148C96.9977 88.1331 95.6573 87.1563 95.0155 85.1728L102.627 82.71ZM100.497 81.0723L103.628 73.7104C103.395 73.6114 103.246 73.5439 103.137 73.491C103.031 73.4396 103.004 73.4209 103.025 73.4342C103.075 73.4647 103.39 73.6685 103.727 74.103L97.4082 79.0088L91.0889 83.9146C93.2628 86.7148 96.1862 87.9323 97.3662 88.4342L100.497 81.0723ZM97.4082 79.0088L103.776 74.1658C104.278 74.8256 104.895 76.1929 104.367 77.9577L96.7022 75.667L89.0371 73.3763C87.8174 77.4576 89.101 81.3015 91.0406 83.8517L97.4082 79.0088ZM96.7022 75.667L104.338 78.0537C104.174 78.5765 103.933 79.0133 103.656 79.373L97.3145 74.4961L90.9728 69.6192C90.164 70.6709 89.4961 71.9059 89.0665 73.2803L96.7022 75.667ZM157.891 86.7969V78.7969H154.469V86.7969V94.7969H157.891V86.7969ZM154.469 86.7969H162.469V67H154.469H146.469V86.7969H154.469ZM154.469 67V75H157.891V67V59H154.469V67ZM157.891 67H149.891V86.7969H157.891H165.891V67H157.891ZM166.638 75.8418V67.8418C159.991 67.8418 154.551 73.1993 154.551 79.9144L162.551 79.915L170.551 79.9157C170.551 82.1046 168.758 83.8418 166.638 83.8418V75.8418ZM162.551 79.915H154.551C154.551 86.5941 159.954 92.0029 166.638 92.0029V84.0029V76.0029C168.795 76.0029 170.551 77.7625 170.551 79.915H162.551ZM166.638 84.0029V92.0029C173.341 92.0029 178.712 86.5484 178.712 79.915H170.712H162.712C162.712 77.7816 164.435 76.0029 166.638 76.0029L166.638 84.0029ZM170.712 79.915L178.712 79.9144C178.711 73.262 173.334 67.8418 166.638 67.8418V75.8418L166.638 83.8418C164.467 83.8418 162.712 82.0684 162.712 79.9157L170.712 79.915ZM129.28 75.8408V67.8408C122.629 67.8408 117.206 73.2166 117.206 79.9149L125.206 79.915L133.206 79.9152C133.206 82.087 131.432 83.8408 129.28 83.8408V75.8408ZM125.206 79.915H117.206C117.206 86.5812 122.597 92.002 129.28 92.002V84.002V76.002C131.464 76.002 133.206 77.7755 133.206 79.915H125.206ZM129.28 84.002L129.281 92.002C135.948 92.0017 141.367 86.5836 141.367 79.915H133.367H125.367C125.367 77.7463 127.112 76.002 129.28 76.002L129.28 84.002ZM133.367 79.915L141.367 79.9149C141.367 73.2143 135.916 67.8411 129.281 67.8408L129.28 75.8408L129.28 83.8408C127.144 83.8407 125.367 82.116 125.367 79.9152L133.367 79.915ZM145.509 75.8408L145.509 67.8408C138.89 67.8409 133.492 73.1625 133.436 79.8129L141.436 79.8799L149.435 79.9469C149.417 82.1037 147.651 83.8408 145.509 83.8408L145.509 75.8408ZM141.436 79.8799H133.436V79.9502H141.436H149.436V79.8799H141.436ZM141.436 79.9502L133.436 80.0169C133.491 86.6356 138.858 92.0019 145.509 92.002L145.509 84.002L145.509 76.002C147.683 76.002 149.418 77.7588 149.435 79.8835L141.436 79.9502ZM145.509 84.002V92.002C152.177 92.002 157.596 86.5833 157.596 79.915H149.596H141.596C141.596 77.7467 143.34 76.002 145.509 76.002V84.002ZM149.596 79.915L157.596 79.9149C157.596 73.2146 152.145 67.8408 145.509 67.8408V75.8408V83.8408C143.373 83.8408 141.596 82.1156 141.596 79.9152L149.596 79.915Z" fill="#E6E2DE" mask="url(#path-4-outside-1_1195_324)"/>
</svg>
