<svg width="242" height="182" viewBox="0 0 242 182" fill="none" xmlns="http://www.w3.org/2000/svg">
<rect y="22" width="242" height="160" rx="12" fill="#E6E2DE"/>
<path d="M77.5184 96.5596H75.0864V87.2636H71.4704V85.0716H81.1504V87.2636H77.5184V96.5596ZM84.8732 96.5596H82.4412V85.0716H89.8652V87.1836H84.8732V90.0796H89.0812V92.1756H84.8732V96.5596ZM93.8069 96.5596H91.3749V85.0716H93.8069V89.5996H98.7829V85.0716H101.215V96.5596H98.7829V91.6956H93.8069V96.5596ZM111.85 96.7996C108.522 96.7996 105.93 94.3196 105.93 90.7676C105.93 87.3756 108.394 84.8316 111.754 84.8316C114.666 84.8316 116.746 86.5596 117.498 89.0556H114.634C114.282 87.8876 113.226 87.0076 111.69 87.0076C109.834 87.0076 108.426 88.3676 108.426 90.8316C108.426 93.0396 109.658 94.7356 111.962 94.7356C113.658 94.7356 114.73 93.7276 115.05 92.3036H111.722V90.3676H117.642C117.786 94.1116 115.514 96.7996 111.85 96.7996ZM124.072 96.5596V95.5036C123.512 96.3036 122.664 96.7196 121.496 96.7196C119.72 96.7196 118.536 95.6796 118.536 94.0796C118.536 92.4156 119.88 91.5196 122.376 91.5196C122.856 91.5196 123.272 91.5516 123.8 91.6156V91.1036C123.8 90.1436 123.256 89.5836 122.328 89.5836C121.368 89.5836 120.792 90.1436 120.712 91.1036H118.712C118.84 89.1356 120.264 87.8556 122.328 87.8556C124.568 87.8556 125.88 89.0876 125.88 91.1836V96.5596H124.072ZM120.632 94.0156C120.632 94.7356 121.144 95.1836 121.976 95.1836C123.112 95.1836 123.8 94.5596 123.8 93.5676V92.9596C123.272 92.8796 122.904 92.8476 122.52 92.8476C121.256 92.8476 120.632 93.2476 120.632 94.0156ZM134.549 96.5596H127.269V94.7676L131.669 89.9356H127.253V88.0156H134.421V89.8396L130.005 94.6236H134.549V96.5596ZM139.501 96.7036C136.941 96.7036 135.229 94.9276 135.229 92.2556C135.229 89.7116 137.005 87.8556 139.469 87.8556C142.173 87.8556 143.965 90.0476 143.565 92.8316H137.501C137.645 94.2236 138.317 94.9916 139.453 94.9916C140.429 94.9916 141.085 94.5116 141.341 93.6636H143.549C143.069 95.5996 141.581 96.7036 139.501 96.7036ZM139.421 89.4876C138.381 89.4876 137.725 90.1596 137.533 91.4236H141.213C141.149 90.2396 140.477 89.4876 139.421 89.4876ZM153.423 92.2876C153.423 94.7836 151.935 96.7196 149.631 96.7196C148.527 96.7196 147.599 96.2236 146.943 95.3276V96.5596H144.895V85.0716H147.119V89.1196C147.743 88.2876 148.607 87.8556 149.631 87.8556C151.935 87.8556 153.423 89.7596 153.423 92.2876ZM151.135 92.2876C151.135 90.6556 150.223 89.8236 149.135 89.8236C148.063 89.8236 147.135 90.6396 147.135 92.2556C147.135 93.8716 148.031 94.7356 149.135 94.7356C150.223 94.7356 151.135 93.8876 151.135 92.2876ZM158.464 96.7196C155.984 96.7196 154.128 94.7676 154.128 92.2876C154.128 89.7916 155.984 87.8556 158.464 87.8556C160.944 87.8556 162.8 89.7916 162.8 92.2876C162.8 94.7676 160.944 96.7196 158.464 96.7196ZM158.464 94.7516C159.568 94.7516 160.512 93.8716 160.512 92.2876C160.512 90.7036 159.568 89.8396 158.464 89.8396C157.36 89.8396 156.416 90.7036 156.416 92.2876C156.416 93.8716 157.36 94.7516 158.464 94.7516ZM171.275 93.8236C171.275 95.6156 169.915 96.7196 167.483 96.7196C165.051 96.7196 163.691 95.5516 163.515 93.6476H165.643C165.659 94.5276 166.411 95.0876 167.515 95.0876C168.379 95.0876 169.035 94.8156 169.035 94.2076C169.035 93.6636 168.683 93.4396 167.867 93.2796L166.331 92.9916C164.795 92.7196 163.867 91.8716 163.867 90.5436C163.867 88.9596 165.227 87.8556 167.355 87.8556C169.499 87.8556 170.971 88.9916 171.131 90.8316H169.003C168.923 89.9996 168.299 89.4876 167.355 89.4876C166.539 89.4876 165.995 89.7916 165.995 90.3356C165.995 90.8476 166.347 91.0556 167.115 91.1996L168.763 91.5036C170.427 91.8236 171.275 92.5916 171.275 93.8236Z" fill="#1A1A1A"/>
<path d="M79.8399 116.56L77.7119 108.678L75.5699 116.56H73.9879L71.3699 106.508H72.8819L74.8139 114.25L76.9279 106.508H78.5239L80.6099 114.264L82.5419 106.508H84.0539L81.4359 116.56H79.8399ZM87.461 116.7C85.319 116.7 83.877 115.146 83.877 112.808C83.877 110.61 85.375 109 87.419 109C89.631 109 91.101 110.792 90.849 113.2H85.319C85.431 114.712 86.187 115.594 87.433 115.594C88.483 115.594 89.211 115.02 89.449 114.054H90.849C90.485 115.706 89.211 116.7 87.461 116.7ZM87.391 110.064C86.257 110.064 85.487 110.876 85.333 112.262H89.351C89.281 110.89 88.539 110.064 87.391 110.064ZM99.1564 112.85C99.1564 115.076 97.8684 116.7 95.8664 116.7C94.8164 116.7 93.9204 116.168 93.3884 115.23V116.56H92.0724V106.508H93.4864V110.414C94.0044 109.504 94.8584 109 95.8664 109C97.8544 109 99.1564 110.596 99.1564 112.85ZM97.6864 112.85C97.6864 111.17 96.8044 110.246 95.5864 110.246C94.4104 110.246 93.4864 111.156 93.4864 112.822C93.4864 114.46 94.3824 115.44 95.5864 115.44C96.8044 115.44 97.6864 114.502 97.6864 112.85ZM106.19 114.348C106.19 115.804 105.056 116.7 103.082 116.7C101.122 116.7 99.96 115.734 99.82 114.138H101.178C101.234 115.062 101.976 115.636 103.11 115.636C104.104 115.636 104.762 115.286 104.762 114.586C104.762 113.97 104.384 113.704 103.46 113.522L102.256 113.298C100.884 113.032 100.114 112.332 100.114 111.212C100.114 109.91 101.248 109 102.97 109C104.748 109 105.952 109.952 106.078 111.478H104.72C104.636 110.582 103.978 110.064 102.984 110.064C102.088 110.064 101.486 110.442 101.486 111.086C101.486 111.688 101.864 111.968 102.76 112.136L104.02 112.374C105.49 112.64 106.19 113.284 106.19 114.348ZM109.176 107.418C109.176 107.95 108.756 108.356 108.154 108.356C107.552 108.356 107.118 107.95 107.118 107.418C107.118 106.872 107.552 106.48 108.154 106.48C108.756 106.48 109.176 106.872 109.176 107.418ZM108.868 116.56H107.454V109.14H108.868V116.56ZM114.737 115.188V116.434C114.303 116.63 113.925 116.7 113.477 116.7C112.105 116.7 111.153 115.958 111.153 114.32V110.344H109.515V109.14H111.153V106.942H112.567V109.14H114.807V110.344H112.567V113.998C112.567 115.02 113.057 115.384 113.813 115.384C114.149 115.384 114.443 115.328 114.737 115.188ZM118.723 116.7C116.581 116.7 115.139 115.146 115.139 112.808C115.139 110.61 116.637 109 118.681 109C120.893 109 122.363 110.792 122.111 113.2H116.581C116.693 114.712 117.449 115.594 118.695 115.594C119.745 115.594 120.473 115.02 120.711 114.054H122.111C121.747 115.706 120.473 116.7 118.723 116.7ZM118.653 110.064C117.519 110.064 116.749 110.876 116.595 112.262H120.613C120.543 110.89 119.801 110.064 118.653 110.064ZM129.27 116.56H126.092V106.508H129.27C132.476 106.508 134.324 108.552 134.324 111.492C134.324 114.39 132.406 116.56 129.27 116.56ZM127.632 107.838V115.23H129.2C131.51 115.23 132.756 113.802 132.756 111.492C132.756 109.224 131.524 107.838 129.2 107.838H127.632ZM138.596 116.7C136.454 116.7 135.012 115.146 135.012 112.808C135.012 110.61 136.51 109 138.554 109C140.766 109 142.236 110.792 141.984 113.2H136.454C136.566 114.712 137.322 115.594 138.568 115.594C139.618 115.594 140.346 115.02 140.584 114.054H141.984C141.62 115.706 140.346 116.7 138.596 116.7ZM138.526 110.064C137.392 110.064 136.622 110.876 136.468 112.262H140.486C140.416 110.89 139.674 110.064 138.526 110.064ZM149.087 114.348C149.087 115.804 147.953 116.7 145.979 116.7C144.019 116.7 142.857 115.734 142.717 114.138H144.075C144.131 115.062 144.873 115.636 146.007 115.636C147.001 115.636 147.659 115.286 147.659 114.586C147.659 113.97 147.281 113.704 146.357 113.522L145.153 113.298C143.781 113.032 143.011 112.332 143.011 111.212C143.011 109.91 144.145 109 145.867 109C147.645 109 148.849 109.952 148.975 111.478H147.617C147.533 110.582 146.875 110.064 145.881 110.064C144.985 110.064 144.383 110.442 144.383 111.086C144.383 111.688 144.761 111.968 145.657 112.136L146.917 112.374C148.387 112.64 149.087 113.284 149.087 114.348ZM152.073 107.418C152.073 107.95 151.653 108.356 151.051 108.356C150.449 108.356 150.015 107.95 150.015 107.418C150.015 106.872 150.449 106.48 151.051 106.48C151.653 106.48 152.073 106.872 152.073 107.418ZM151.765 116.56H150.351V109.14H151.765V116.56ZM156.416 119.416C154.47 119.416 153.21 118.38 153.126 116.7H154.498C154.582 117.736 155.254 118.296 156.402 118.296C157.676 118.296 158.348 117.61 158.348 116.336V114.992C157.928 115.888 157.088 116.406 156.08 116.406C154.232 116.406 152.916 114.88 152.916 112.696C152.916 110.484 154.176 109 156.038 109C157.102 109 157.942 109.518 158.446 110.456V109.14H159.762V116.308C159.762 118.254 158.516 119.416 156.416 119.416ZM154.344 112.696C154.344 114.236 155.1 115.174 156.332 115.174C157.536 115.174 158.348 114.208 158.348 112.738C158.348 111.198 157.55 110.218 156.332 110.218C155.114 110.218 154.344 111.17 154.344 112.696ZM162.854 112.374V116.56H161.44V109.14H162.756V110.372C163.26 109.546 164.1 109 165.122 109C166.648 109 167.656 109.98 167.656 111.758V116.56H166.242V112.234C166.242 110.96 165.682 110.246 164.632 110.246C163.666 110.246 162.854 111.058 162.854 112.374ZM171.171 115.958C171.171 117.288 170.121 118.324 168.581 118.352V117.554C169.491 117.526 170.107 117.036 170.191 116.35C170.065 116.392 169.981 116.406 169.883 116.406C169.351 116.406 168.959 115.972 168.959 115.454C168.959 114.852 169.407 114.46 169.981 114.46C170.751 114.46 171.171 115.02 171.171 115.958ZM66.6706 130.676C66.6706 132.51 65.3266 133.56 63.2406 133.56H59.5586V123.508H63.0446C65.0746 123.508 66.2926 124.446 66.2926 126.14C66.2926 127.092 65.7186 127.904 64.7526 128.324C65.9986 128.674 66.6706 129.528 66.6706 130.676ZM62.9466 124.74H60.9726V127.764H62.9466C64.1646 127.764 64.8226 127.19 64.8226 126.252C64.8226 125.314 64.1646 124.74 62.9466 124.74ZM63.1426 128.996H60.9726V132.328H63.1426C64.4586 132.328 65.2006 131.698 65.2006 130.634C65.2006 129.612 64.4586 128.996 63.1426 128.996ZM69.4674 129.766V133.56H68.0534V126.14H69.3694V127.708C69.8874 126.686 71.0074 126.042 72.2254 126.042V127.512C70.6294 127.428 69.4674 128.128 69.4674 129.766ZM77.5584 133.56V132.412C77.0964 133.238 76.2704 133.7 75.1784 133.7C73.6384 133.7 72.6304 132.818 72.6304 131.46C72.6304 130.004 73.7924 129.248 76.0044 129.248C76.4384 129.248 76.7884 129.262 77.3904 129.332V128.786C77.3904 127.722 76.8164 127.12 75.8364 127.12C74.8004 127.12 74.1704 127.736 74.1284 128.772H72.8404C72.9104 127.106 74.1004 126 75.8364 126C77.6704 126 78.7344 127.036 78.7344 128.8V133.56H77.5584ZM73.9744 131.418C73.9744 132.188 74.5484 132.692 75.4584 132.692C76.6484 132.692 77.3904 131.95 77.3904 130.816V130.214C76.8444 130.144 76.4524 130.13 76.0884 130.13C74.6744 130.13 73.9744 130.55 73.9744 131.418ZM81.7589 129.374V133.56H80.3449V126.14H81.6609V127.372C82.1649 126.546 83.0049 126 84.0269 126C85.5529 126 86.5609 126.98 86.5609 128.758V133.56H85.1469V129.234C85.1469 127.96 84.5869 127.246 83.5369 127.246C82.5709 127.246 81.7589 128.058 81.7589 129.374ZM87.6267 129.85C87.6267 127.596 88.9147 126 90.9167 126C91.9107 126 92.7787 126.504 93.2967 127.414V123.508H94.7107V133.56H93.3947V132.23C92.8627 133.168 91.9667 133.7 90.9167 133.7C88.9147 133.7 87.6267 132.076 87.6267 129.85ZM89.0967 129.85C89.0967 131.502 89.9647 132.44 91.1967 132.44C92.4007 132.44 93.2967 131.46 93.2967 129.822C93.2967 128.156 92.3727 127.246 91.1967 127.246C89.9647 127.246 89.0967 128.17 89.0967 129.85ZM98.1182 124.418C98.1182 124.95 97.6982 125.356 97.0962 125.356C96.4942 125.356 96.0602 124.95 96.0602 124.418C96.0602 123.872 96.4942 123.48 97.0962 123.48C97.6982 123.48 98.1182 123.872 98.1182 124.418ZM97.8102 133.56H96.3962V126.14H97.8102V133.56ZM100.907 129.374V133.56H99.4932V126.14H100.809V127.372C101.313 126.546 102.153 126 103.175 126C104.701 126 105.709 126.98 105.709 128.758V133.56H104.295V129.234C104.295 127.96 103.735 127.246 102.685 127.246C101.719 127.246 100.907 128.058 100.907 129.374ZM110.275 136.416C108.329 136.416 107.069 135.38 106.985 133.7H108.357C108.441 134.736 109.113 135.296 110.261 135.296C111.535 135.296 112.207 134.61 112.207 133.336V131.992C111.787 132.888 110.947 133.406 109.939 133.406C108.091 133.406 106.775 131.88 106.775 129.696C106.775 127.484 108.035 126 109.897 126C110.961 126 111.801 126.518 112.305 127.456V126.14H113.621V133.308C113.621 135.254 112.375 136.416 110.275 136.416ZM108.203 129.696C108.203 131.236 108.959 132.174 110.191 132.174C111.395 132.174 112.207 131.208 112.207 129.738C112.207 128.198 111.409 127.218 110.191 127.218C108.973 127.218 108.203 128.17 108.203 129.696ZM122.438 133.77C119.638 133.77 117.468 131.488 117.468 128.52C117.468 125.566 119.638 123.298 122.438 123.298C124.958 123.298 126.974 124.978 127.352 127.456H125.714C125.434 125.832 124.118 124.684 122.452 124.684C120.464 124.684 119.064 126.294 119.064 128.52C119.064 130.774 120.464 132.384 122.452 132.384C124.118 132.384 125.434 131.222 125.714 129.598H127.352C126.974 132.09 124.958 133.77 122.438 133.77ZM131.669 133.7C129.569 133.7 128.029 132.048 128.029 129.85C128.029 127.652 129.569 126 131.669 126C133.769 126 135.309 127.652 135.309 129.85C135.309 132.048 133.769 133.7 131.669 133.7ZM131.669 132.454C132.887 132.454 133.853 131.474 133.853 129.85C133.853 128.226 132.887 127.26 131.669 127.26C130.451 127.26 129.499 128.226 129.499 129.85C129.499 131.474 130.451 132.454 131.669 132.454ZM137.898 133.56H136.47V123.508H137.898V133.56ZM141.009 133.56H139.581V123.508H141.009V133.56ZM147.185 133.56V132.412C146.723 133.238 145.897 133.7 144.805 133.7C143.265 133.7 142.257 132.818 142.257 131.46C142.257 130.004 143.419 129.248 145.631 129.248C146.065 129.248 146.415 129.262 147.017 129.332V128.786C147.017 127.722 146.443 127.12 145.463 127.12C144.427 127.12 143.797 127.736 143.755 128.772H142.467C142.537 127.106 143.727 126 145.463 126C147.297 126 148.361 127.036 148.361 128.8V133.56H147.185ZM143.601 131.418C143.601 132.188 144.175 132.692 145.085 132.692C146.275 132.692 147.017 131.95 147.017 130.816V130.214C146.471 130.144 146.079 130.13 145.715 130.13C144.301 130.13 143.601 130.55 143.601 131.418ZM154.09 132.188V133.434C153.656 133.63 153.278 133.7 152.83 133.7C151.458 133.7 150.506 132.958 150.506 131.32V127.344H148.868V126.14H150.506V123.942H151.92V126.14H154.16V127.344H151.92V130.998C151.92 132.02 152.41 132.384 153.166 132.384C153.502 132.384 153.796 132.328 154.09 132.188ZM158.076 133.7C155.934 133.7 154.492 132.146 154.492 129.808C154.492 127.61 155.99 126 158.034 126C160.246 126 161.716 127.792 161.464 130.2H155.934C156.046 131.712 156.802 132.594 158.048 132.594C159.098 132.594 159.826 132.02 160.064 131.054H161.464C161.1 132.706 159.826 133.7 158.076 133.7ZM158.006 127.064C156.872 127.064 156.102 127.876 155.948 129.262H159.966C159.896 127.89 159.154 127.064 158.006 127.064ZM164.101 129.766V133.56H162.687V126.14H164.003V127.708C164.521 126.686 165.641 126.042 166.859 126.042V127.512C165.263 127.428 164.101 128.128 164.101 129.766ZM172.192 133.56V132.412C171.73 133.238 170.904 133.7 169.812 133.7C168.272 133.7 167.264 132.818 167.264 131.46C167.264 130.004 168.426 129.248 170.638 129.248C171.072 129.248 171.422 129.262 172.024 129.332V128.786C172.024 127.722 171.45 127.12 170.47 127.12C169.434 127.12 168.804 127.736 168.762 128.772H167.474C167.544 127.106 168.734 126 170.47 126C172.304 126 173.368 127.036 173.368 128.8V133.56H172.192ZM168.608 131.418C168.608 132.188 169.182 132.692 170.092 132.692C171.282 132.692 172.024 131.95 172.024 130.816V130.214C171.478 130.144 171.086 130.13 170.722 130.13C169.308 130.13 168.608 130.55 168.608 131.418ZM176.407 133.56H174.979V123.508H176.407V133.56ZM183.97 131.348C183.97 132.804 182.836 133.7 180.862 133.7C178.902 133.7 177.74 132.734 177.6 131.138H178.958C179.014 132.062 179.756 132.636 180.89 132.636C181.884 132.636 182.542 132.286 182.542 131.586C182.542 130.97 182.164 130.704 181.24 130.522L180.036 130.298C178.664 130.032 177.894 129.332 177.894 128.212C177.894 126.91 179.028 126 180.75 126C182.528 126 183.732 126.952 183.858 128.478H182.5C182.416 127.582 181.758 127.064 180.764 127.064C179.868 127.064 179.266 127.442 179.266 128.086C179.266 128.688 179.644 128.968 180.54 129.136L181.8 129.374C183.27 129.64 183.97 130.284 183.97 131.348Z" fill="#1A1A1A"/>
<mask id="path-4-outside-1_1173_22" maskUnits="userSpaceOnUse" x="38" y="0" width="165" height="45" fill="black">
<rect fill="white" x="38" width="165" height="45"/>
<path d="M96.8553 21.5127H93.6828V19.6848H102.099V21.5127H98.9262V28.8194H96.8553V21.5127Z"/>
<path d="M102.904 19.6849H110.762V21.5127H104.975V23.3382H109.855V25.1637H104.975V28.817H102.904V19.6824V19.6849Z"/>
<path d="M111.568 19.6848H113.639V23.3382H118.74V19.6848H120.811V28.8194H118.74V25.166H113.639V28.8194H111.568V19.6848Z"/>
<path d="M125.215 24.2545C125.215 21.3309 127.132 19.4909 130.225 19.4909C133.318 19.4909 134.925 20.7951 134.925 23.0012H132.984C132.984 21.8666 131.755 21.3842 130.213 21.3842C128.556 21.3842 127.351 22.4678 127.351 24.2545C127.351 26.0412 128.683 27.1248 130.55 27.1248C131.74 27.1248 132.609 26.5648 132.958 25.6897H130.367V23.8618H135.182V28.8218H133.111V27.2169C132.594 28.1697 131.673 29.0181 130.069 29.0181C127.31 29.0181 125.213 27.1781 125.213 24.2545H125.215Z"/>
<path d="M142.028 19.6848L146.092 28.8194H143.815L143.011 27.0061H138.764L137.96 28.8194H135.683L139.747 19.6848H142.028ZM142.196 25.1806L140.888 22.2448L139.579 25.1806H142.196Z"/>
<path d="M151.764 21.5127H146.521V19.6848H154.677V21.5127L149.433 26.9939H154.677V28.8194H146.521V26.9939L151.764 21.5127Z"/>
<path d="M155.891 19.6849H163.879V21.5127H157.962V23.3382H162.972V25.1637H157.962V26.9915H163.879V28.817H155.891V19.6824V19.6849Z"/>
<path d="M170.08 19.6848C172.838 19.6848 173.743 20.6764 173.743 22.3467C173.743 22.9988 173.483 23.5588 173.004 23.9903C173.728 24.4727 174.118 25.1515 174.118 26C174.118 27.7624 173.161 28.8315 170.272 28.8315H166V28.8194H165.132V19.6848H170.08ZM170.248 23.183C171.232 23.183 171.607 22.8703 171.607 22.3491C171.607 21.8279 171.232 21.5151 170.248 21.5151H167.205V23.1854H170.248V23.183ZM170.532 27.0061C171.568 27.0061 171.982 26.6279 171.982 26.0024C171.982 25.377 171.568 25.0109 170.532 25.0109H167.205V27.0061H170.532Z"/>
<path d="M180.162 19.4909C183.722 19.4909 185.459 21.3963 185.459 24.2545C185.459 27.1127 183.724 29.0181 180.162 29.0181C176.6 29.0181 174.866 27.1127 174.866 24.2545C174.866 21.3963 176.73 19.4909 180.162 19.4909ZM180.162 27.1248C182.286 27.1248 183.32 25.9757 183.32 24.2545C183.32 22.5333 182.284 21.3842 180.162 21.3842C178.041 21.3842 177.004 22.5333 177.004 24.2545C177.004 25.9757 178.118 27.1248 180.162 27.1248Z"/>
<path d="M190.259 25.2048C188.59 25.0885 186.286 24.9576 186.286 22.4388C186.286 20.6376 187.633 19.4885 190.469 19.4885C193.485 19.4885 194.87 20.7927 194.87 22.9988H192.929C192.929 21.8642 191.828 21.3818 190.534 21.3818C189.24 21.3818 188.424 21.6557 188.424 22.2545C188.424 22.9333 189.511 22.9333 190.87 23.0885C192.746 23.3115 195 23.377 195 26.1285C195 27.9806 193.523 29.0133 190.69 29.0133C187.674 29.0133 186.288 27.7091 186.288 25.503H188.229C188.229 26.6376 189.331 27.1224 190.625 27.1224C191.919 27.1224 192.864 26.8339 192.864 26.1309C192.864 25.1927 191.517 25.297 190.262 25.2048H190.259Z"/>
<path d="M71.1026 8C64.7938 18.7394 56.6064 28.2255 47 36C54.0545 35.023 62.2058 34.3297 71.2518 34.337C80.1751 34.3442 88.2229 35.0327 95.2053 36C85.5965 28.2255 77.4115 18.7394 71.1026 8ZM71.1026 31.6194C65.7679 31.6194 60.4716 31.8691 55.221 32.3661C55.9041 31.7164 56.5776 31.0545 57.2438 30.383C60.3104 27.2897 63.1678 24.0364 65.8112 20.6303C67.8171 22.3248 70.1694 24.0921 72.8849 25.7988C78.0393 29.0352 82.9483 31.0642 86.9867 32.3661C81.7337 31.8691 76.4374 31.6194 71.1026 31.6194Z"/>
</mask>
<path d="M96.8553 21.5127H93.6828V19.6848H102.099V21.5127H98.9262V28.8194H96.8553V21.5127Z" fill="#1A1A1A"/>
<path d="M102.904 19.6849H110.762V21.5127H104.975V23.3382H109.855V25.1637H104.975V28.817H102.904V19.6824V19.6849Z" fill="#1A1A1A"/>
<path d="M111.568 19.6848H113.639V23.3382H118.74V19.6848H120.811V28.8194H118.74V25.166H113.639V28.8194H111.568V19.6848Z" fill="#1A1A1A"/>
<path d="M125.215 24.2545C125.215 21.3309 127.132 19.4909 130.225 19.4909C133.318 19.4909 134.925 20.7951 134.925 23.0012H132.984C132.984 21.8666 131.755 21.3842 130.213 21.3842C128.556 21.3842 127.351 22.4678 127.351 24.2545C127.351 26.0412 128.683 27.1248 130.55 27.1248C131.74 27.1248 132.609 26.5648 132.958 25.6897H130.367V23.8618H135.182V28.8218H133.111V27.2169C132.594 28.1697 131.673 29.0181 130.069 29.0181C127.31 29.0181 125.213 27.1781 125.213 24.2545H125.215Z" fill="#1A1A1A"/>
<path d="M142.028 19.6848L146.092 28.8194H143.815L143.011 27.0061H138.764L137.96 28.8194H135.683L139.747 19.6848H142.028ZM142.196 25.1806L140.888 22.2448L139.579 25.1806H142.196Z" fill="#1A1A1A"/>
<path d="M151.764 21.5127H146.521V19.6848H154.677V21.5127L149.433 26.9939H154.677V28.8194H146.521V26.9939L151.764 21.5127Z" fill="#1A1A1A"/>
<path d="M155.891 19.6849H163.879V21.5127H157.962V23.3382H162.972V25.1637H157.962V26.9915H163.879V28.817H155.891V19.6824V19.6849Z" fill="#1A1A1A"/>
<path d="M170.08 19.6848C172.838 19.6848 173.743 20.6764 173.743 22.3467C173.743 22.9988 173.483 23.5588 173.004 23.9903C173.728 24.4727 174.118 25.1515 174.118 26C174.118 27.7624 173.161 28.8315 170.272 28.8315H166V28.8194H165.132V19.6848H170.08ZM170.248 23.183C171.232 23.183 171.607 22.8703 171.607 22.3491C171.607 21.8279 171.232 21.5151 170.248 21.5151H167.205V23.1854H170.248V23.183ZM170.532 27.0061C171.568 27.0061 171.982 26.6279 171.982 26.0024C171.982 25.377 171.568 25.0109 170.532 25.0109H167.205V27.0061H170.532Z" fill="#1A1A1A"/>
<path d="M180.162 19.4909C183.722 19.4909 185.459 21.3963 185.459 24.2545C185.459 27.1127 183.724 29.0181 180.162 29.0181C176.6 29.0181 174.866 27.1127 174.866 24.2545C174.866 21.3963 176.73 19.4909 180.162 19.4909ZM180.162 27.1248C182.286 27.1248 183.32 25.9757 183.32 24.2545C183.32 22.5333 182.284 21.3842 180.162 21.3842C178.041 21.3842 177.004 22.5333 177.004 24.2545C177.004 25.9757 178.118 27.1248 180.162 27.1248Z" fill="#1A1A1A"/>
<path d="M190.259 25.2048C188.59 25.0885 186.286 24.9576 186.286 22.4388C186.286 20.6376 187.633 19.4885 190.469 19.4885C193.485 19.4885 194.87 20.7927 194.87 22.9988H192.929C192.929 21.8642 191.828 21.3818 190.534 21.3818C189.24 21.3818 188.424 21.6557 188.424 22.2545C188.424 22.9333 189.511 22.9333 190.87 23.0885C192.746 23.3115 195 23.377 195 26.1285C195 27.9806 193.523 29.0133 190.69 29.0133C187.674 29.0133 186.288 27.7091 186.288 25.503H188.229C188.229 26.6376 189.331 27.1224 190.625 27.1224C191.919 27.1224 192.864 26.8339 192.864 26.1309C192.864 25.1927 191.517 25.297 190.262 25.2048H190.259Z" fill="#1A1A1A"/>
<path d="M71.1026 8C64.7938 18.7394 56.6064 28.2255 47 36C54.0545 35.023 62.2058 34.3297 71.2518 34.337C80.1751 34.3442 88.2229 35.0327 95.2053 36C85.5965 28.2255 77.4115 18.7394 71.1026 8ZM71.1026 31.6194C65.7679 31.6194 60.4716 31.8691 55.221 32.3661C55.9041 31.7164 56.5776 31.0545 57.2438 30.383C60.3104 27.2897 63.1678 24.0364 65.8112 20.6303C67.8171 22.3248 70.1694 24.0921 72.8849 25.7988C78.0393 29.0352 82.9483 31.0642 86.9867 32.3661C81.7337 31.8691 76.4374 31.6194 71.1026 31.6194Z" fill="#1A1A1A"/>
<path d="M96.8553 21.5127H93.6828V19.6848H102.099V21.5127H98.9262V28.8194H96.8553V21.5127Z" stroke="#E6E2DE" stroke-width="16" stroke-linejoin="round" mask="url(#path-4-outside-1_1173_22)"/>
<path d="M102.904 19.6849H110.762V21.5127H104.975V23.3382H109.855V25.1637H104.975V28.817H102.904V19.6824V19.6849Z" stroke="#E6E2DE" stroke-width="16" stroke-linejoin="round" mask="url(#path-4-outside-1_1173_22)"/>
<path d="M111.568 19.6848H113.639V23.3382H118.74V19.6848H120.811V28.8194H118.74V25.166H113.639V28.8194H111.568V19.6848Z" stroke="#E6E2DE" stroke-width="16" stroke-linejoin="round" mask="url(#path-4-outside-1_1173_22)"/>
<path d="M125.215 24.2545C125.215 21.3309 127.132 19.4909 130.225 19.4909C133.318 19.4909 134.925 20.7951 134.925 23.0012H132.984C132.984 21.8666 131.755 21.3842 130.213 21.3842C128.556 21.3842 127.351 22.4678 127.351 24.2545C127.351 26.0412 128.683 27.1248 130.55 27.1248C131.74 27.1248 132.609 26.5648 132.958 25.6897H130.367V23.8618H135.182V28.8218H133.111V27.2169C132.594 28.1697 131.673 29.0181 130.069 29.0181C127.31 29.0181 125.213 27.1781 125.213 24.2545H125.215Z" stroke="#E6E2DE" stroke-width="16" stroke-linejoin="round" mask="url(#path-4-outside-1_1173_22)"/>
<path d="M142.028 19.6848L146.092 28.8194H143.815L143.011 27.0061H138.764L137.96 28.8194H135.683L139.747 19.6848H142.028ZM142.196 25.1806L140.888 22.2448L139.579 25.1806H142.196Z" stroke="#E6E2DE" stroke-width="16" stroke-linejoin="round" mask="url(#path-4-outside-1_1173_22)"/>
<path d="M151.764 21.5127H146.521V19.6848H154.677V21.5127L149.433 26.9939H154.677V28.8194H146.521V26.9939L151.764 21.5127Z" stroke="#E6E2DE" stroke-width="16" stroke-linejoin="round" mask="url(#path-4-outside-1_1173_22)"/>
<path d="M155.891 19.6849H163.879V21.5127H157.962V23.3382H162.972V25.1637H157.962V26.9915H163.879V28.817H155.891V19.6824V19.6849Z" stroke="#E6E2DE" stroke-width="16" stroke-linejoin="round" mask="url(#path-4-outside-1_1173_22)"/>
<path d="M170.08 19.6848C172.838 19.6848 173.743 20.6764 173.743 22.3467C173.743 22.9988 173.483 23.5588 173.004 23.9903C173.728 24.4727 174.118 25.1515 174.118 26C174.118 27.7624 173.161 28.8315 170.272 28.8315H166V28.8194H165.132V19.6848H170.08ZM170.248 23.183C171.232 23.183 171.607 22.8703 171.607 22.3491C171.607 21.8279 171.232 21.5151 170.248 21.5151H167.205V23.1854H170.248V23.183ZM170.532 27.0061C171.568 27.0061 171.982 26.6279 171.982 26.0024C171.982 25.377 171.568 25.0109 170.532 25.0109H167.205V27.0061H170.532Z" stroke="#E6E2DE" stroke-width="16" stroke-linejoin="round" mask="url(#path-4-outside-1_1173_22)"/>
<path d="M180.162 19.4909C183.722 19.4909 185.459 21.3963 185.459 24.2545C185.459 27.1127 183.724 29.0181 180.162 29.0181C176.6 29.0181 174.866 27.1127 174.866 24.2545C174.866 21.3963 176.73 19.4909 180.162 19.4909ZM180.162 27.1248C182.286 27.1248 183.32 25.9757 183.32 24.2545C183.32 22.5333 182.284 21.3842 180.162 21.3842C178.041 21.3842 177.004 22.5333 177.004 24.2545C177.004 25.9757 178.118 27.1248 180.162 27.1248Z" stroke="#E6E2DE" stroke-width="16" stroke-linejoin="round" mask="url(#path-4-outside-1_1173_22)"/>
<path d="M190.259 25.2048C188.59 25.0885 186.286 24.9576 186.286 22.4388C186.286 20.6376 187.633 19.4885 190.469 19.4885C193.485 19.4885 194.87 20.7927 194.87 22.9988H192.929C192.929 21.8642 191.828 21.3818 190.534 21.3818C189.24 21.3818 188.424 21.6557 188.424 22.2545C188.424 22.9333 189.511 22.9333 190.87 23.0885C192.746 23.3115 195 23.377 195 26.1285C195 27.9806 193.523 29.0133 190.69 29.0133C187.674 29.0133 186.288 27.7091 186.288 25.503H188.229C188.229 26.6376 189.331 27.1224 190.625 27.1224C191.919 27.1224 192.864 26.8339 192.864 26.1309C192.864 25.1927 191.517 25.297 190.262 25.2048H190.259Z" stroke="#E6E2DE" stroke-width="16" stroke-linejoin="round" mask="url(#path-4-outside-1_1173_22)"/>
<path d="M71.1026 8C64.7938 18.7394 56.6064 28.2255 47 36C54.0545 35.023 62.2058 34.3297 71.2518 34.337C80.1751 34.3442 88.2229 35.0327 95.2053 36C85.5965 28.2255 77.4115 18.7394 71.1026 8ZM71.1026 31.6194C65.7679 31.6194 60.4716 31.8691 55.221 32.3661C55.9041 31.7164 56.5776 31.0545 57.2438 30.383C60.3104 27.2897 63.1678 24.0364 65.8112 20.6303C67.8171 22.3248 70.1694 24.0921 72.8849 25.7988C78.0393 29.0352 82.9483 31.0642 86.9867 32.3661C81.7337 31.8691 76.4374 31.6194 71.1026 31.6194Z" stroke="#E6E2DE" stroke-width="16" stroke-linejoin="round" mask="url(#path-4-outside-1_1173_22)"/>
</svg>
