<svg width="242" height="240" viewBox="0 0 242 240" fill="none" xmlns="http://www.w3.org/2000/svg">
<rect y="80" width="242" height="160" rx="12" fill="#E6E2DE"/>
<path d="M77.5184 154.559H75.0864V145.263H71.4704V143.071H81.1504V145.263H77.5184V154.559ZM84.8732 154.559H82.4412V143.071H89.8652V145.183H84.8732V148.079H89.0812V150.175H84.8732V154.559ZM93.8069 154.559H91.3749V143.071H93.8069V147.599H98.7829V143.071H101.215V154.559H98.7829V149.695H93.8069V154.559ZM111.85 154.799C108.522 154.799 105.93 152.319 105.93 148.767C105.93 145.375 108.394 142.831 111.754 142.831C114.666 142.831 116.746 144.559 117.498 147.055H114.634C114.282 145.887 113.226 145.007 111.69 145.007C109.834 145.007 108.426 146.367 108.426 148.831C108.426 151.039 109.658 152.735 111.962 152.735C113.658 152.735 114.73 151.727 115.05 150.303H111.722V148.367H117.642C117.786 152.111 115.514 154.799 111.85 154.799ZM124.072 154.559V153.503C123.512 154.303 122.664 154.719 121.496 154.719C119.72 154.719 118.536 153.679 118.536 152.079C118.536 150.415 119.88 149.519 122.376 149.519C122.856 149.519 123.272 149.551 123.8 149.615V149.103C123.8 148.143 123.256 147.583 122.328 147.583C121.368 147.583 120.792 148.143 120.712 149.103H118.712C118.84 147.135 120.264 145.855 122.328 145.855C124.568 145.855 125.88 147.087 125.88 149.183V154.559H124.072ZM120.632 152.015C120.632 152.735 121.144 153.183 121.976 153.183C123.112 153.183 123.8 152.559 123.8 151.567V150.959C123.272 150.879 122.904 150.847 122.52 150.847C121.256 150.847 120.632 151.247 120.632 152.015ZM134.549 154.559H127.269V152.767L131.669 147.935H127.253V146.015H134.421V147.839L130.005 152.623H134.549V154.559ZM139.501 154.703C136.941 154.703 135.229 152.927 135.229 150.255C135.229 147.711 137.005 145.855 139.469 145.855C142.173 145.855 143.965 148.047 143.565 150.831H137.501C137.645 152.223 138.317 152.991 139.453 152.991C140.429 152.991 141.085 152.511 141.341 151.663H143.549C143.069 153.599 141.581 154.703 139.501 154.703ZM139.421 147.487C138.381 147.487 137.725 148.159 137.533 149.423H141.213C141.149 148.239 140.477 147.487 139.421 147.487ZM153.423 150.287C153.423 152.783 151.935 154.719 149.631 154.719C148.527 154.719 147.599 154.223 146.943 153.327V154.559H144.895V143.071H147.119V147.119C147.743 146.287 148.607 145.855 149.631 145.855C151.935 145.855 153.423 147.759 153.423 150.287ZM151.135 150.287C151.135 148.655 150.223 147.823 149.135 147.823C148.063 147.823 147.135 148.639 147.135 150.255C147.135 151.871 148.031 152.735 149.135 152.735C150.223 152.735 151.135 151.887 151.135 150.287ZM158.464 154.719C155.984 154.719 154.128 152.767 154.128 150.287C154.128 147.791 155.984 145.855 158.464 145.855C160.944 145.855 162.8 147.791 162.8 150.287C162.8 152.767 160.944 154.719 158.464 154.719ZM158.464 152.751C159.568 152.751 160.512 151.871 160.512 150.287C160.512 148.703 159.568 147.839 158.464 147.839C157.36 147.839 156.416 148.703 156.416 150.287C156.416 151.871 157.36 152.751 158.464 152.751ZM171.275 151.823C171.275 153.615 169.915 154.719 167.483 154.719C165.051 154.719 163.691 153.551 163.515 151.647H165.643C165.659 152.527 166.411 153.087 167.515 153.087C168.379 153.087 169.035 152.815 169.035 152.207C169.035 151.663 168.683 151.439 167.867 151.279L166.331 150.991C164.795 150.719 163.867 149.871 163.867 148.543C163.867 146.959 165.227 145.855 167.355 145.855C169.499 145.855 170.971 146.991 171.131 148.831H169.003C168.923 147.999 168.299 147.487 167.355 147.487C166.539 147.487 165.995 147.791 165.995 148.335C165.995 148.847 166.347 149.055 167.115 149.199L168.763 149.503C170.427 149.823 171.275 150.591 171.275 151.823Z" fill="#1A1A1A"/>
<path d="M79.8399 174.559L77.7119 166.677L75.5699 174.559H73.9879L71.3699 164.507H72.8819L74.8139 172.249L76.9279 164.507H78.5239L80.6099 172.263L82.5419 164.507H84.0539L81.4359 174.559H79.8399ZM87.461 174.699C85.319 174.699 83.877 173.145 83.877 170.807C83.877 168.609 85.375 166.999 87.419 166.999C89.631 166.999 91.101 168.791 90.849 171.199H85.319C85.431 172.711 86.187 173.593 87.433 173.593C88.483 173.593 89.211 173.019 89.449 172.053H90.849C90.485 173.705 89.211 174.699 87.461 174.699ZM87.391 168.063C86.257 168.063 85.487 168.875 85.333 170.261H89.351C89.281 168.889 88.539 168.063 87.391 168.063ZM99.1564 170.849C99.1564 173.075 97.8684 174.699 95.8664 174.699C94.8164 174.699 93.9204 174.167 93.3884 173.229V174.559H92.0724V164.507H93.4864V168.413C94.0044 167.503 94.8584 166.999 95.8664 166.999C97.8544 166.999 99.1564 168.595 99.1564 170.849ZM97.6864 170.849C97.6864 169.169 96.8044 168.245 95.5864 168.245C94.4104 168.245 93.4864 169.155 93.4864 170.821C93.4864 172.459 94.3824 173.439 95.5864 173.439C96.8044 173.439 97.6864 172.501 97.6864 170.849ZM106.19 172.347C106.19 173.803 105.056 174.699 103.082 174.699C101.122 174.699 99.96 173.733 99.82 172.137H101.178C101.234 173.061 101.976 173.635 103.11 173.635C104.104 173.635 104.762 173.285 104.762 172.585C104.762 171.969 104.384 171.703 103.46 171.521L102.256 171.297C100.884 171.031 100.114 170.331 100.114 169.211C100.114 167.909 101.248 166.999 102.97 166.999C104.748 166.999 105.952 167.951 106.078 169.477H104.72C104.636 168.581 103.978 168.063 102.984 168.063C102.088 168.063 101.486 168.441 101.486 169.085C101.486 169.687 101.864 169.967 102.76 170.135L104.02 170.373C105.49 170.639 106.19 171.283 106.19 172.347ZM109.176 165.417C109.176 165.949 108.756 166.355 108.154 166.355C107.552 166.355 107.118 165.949 107.118 165.417C107.118 164.871 107.552 164.479 108.154 164.479C108.756 164.479 109.176 164.871 109.176 165.417ZM108.868 174.559H107.454V167.139H108.868V174.559ZM114.737 173.187V174.433C114.303 174.629 113.925 174.699 113.477 174.699C112.105 174.699 111.153 173.957 111.153 172.319V168.343H109.515V167.139H111.153V164.941H112.567V167.139H114.807V168.343H112.567V171.997C112.567 173.019 113.057 173.383 113.813 173.383C114.149 173.383 114.443 173.327 114.737 173.187ZM118.723 174.699C116.581 174.699 115.139 173.145 115.139 170.807C115.139 168.609 116.637 166.999 118.681 166.999C120.893 166.999 122.363 168.791 122.111 171.199H116.581C116.693 172.711 117.449 173.593 118.695 173.593C119.745 173.593 120.473 173.019 120.711 172.053H122.111C121.747 173.705 120.473 174.699 118.723 174.699ZM118.653 168.063C117.519 168.063 116.749 168.875 116.595 170.261H120.613C120.543 168.889 119.801 168.063 118.653 168.063ZM129.27 174.559H126.092V164.507H129.27C132.476 164.507 134.324 166.551 134.324 169.491C134.324 172.389 132.406 174.559 129.27 174.559ZM127.632 165.837V173.229H129.2C131.51 173.229 132.756 171.801 132.756 169.491C132.756 167.223 131.524 165.837 129.2 165.837H127.632ZM138.596 174.699C136.454 174.699 135.012 173.145 135.012 170.807C135.012 168.609 136.51 166.999 138.554 166.999C140.766 166.999 142.236 168.791 141.984 171.199H136.454C136.566 172.711 137.322 173.593 138.568 173.593C139.618 173.593 140.346 173.019 140.584 172.053H141.984C141.62 173.705 140.346 174.699 138.596 174.699ZM138.526 168.063C137.392 168.063 136.622 168.875 136.468 170.261H140.486C140.416 168.889 139.674 168.063 138.526 168.063ZM149.087 172.347C149.087 173.803 147.953 174.699 145.979 174.699C144.019 174.699 142.857 173.733 142.717 172.137H144.075C144.131 173.061 144.873 173.635 146.007 173.635C147.001 173.635 147.659 173.285 147.659 172.585C147.659 171.969 147.281 171.703 146.357 171.521L145.153 171.297C143.781 171.031 143.011 170.331 143.011 169.211C143.011 167.909 144.145 166.999 145.867 166.999C147.645 166.999 148.849 167.951 148.975 169.477H147.617C147.533 168.581 146.875 168.063 145.881 168.063C144.985 168.063 144.383 168.441 144.383 169.085C144.383 169.687 144.761 169.967 145.657 170.135L146.917 170.373C148.387 170.639 149.087 171.283 149.087 172.347ZM152.073 165.417C152.073 165.949 151.653 166.355 151.051 166.355C150.449 166.355 150.015 165.949 150.015 165.417C150.015 164.871 150.449 164.479 151.051 164.479C151.653 164.479 152.073 164.871 152.073 165.417ZM151.765 174.559H150.351V167.139H151.765V174.559ZM156.416 177.415C154.47 177.415 153.21 176.379 153.126 174.699H154.498C154.582 175.735 155.254 176.295 156.402 176.295C157.676 176.295 158.348 175.609 158.348 174.335V172.991C157.928 173.887 157.088 174.405 156.08 174.405C154.232 174.405 152.916 172.879 152.916 170.695C152.916 168.483 154.176 166.999 156.038 166.999C157.102 166.999 157.942 167.517 158.446 168.455V167.139H159.762V174.307C159.762 176.253 158.516 177.415 156.416 177.415ZM154.344 170.695C154.344 172.235 155.1 173.173 156.332 173.173C157.536 173.173 158.348 172.207 158.348 170.737C158.348 169.197 157.55 168.217 156.332 168.217C155.114 168.217 154.344 169.169 154.344 170.695ZM162.854 170.373V174.559H161.44V167.139H162.756V168.371C163.26 167.545 164.1 166.999 165.122 166.999C166.648 166.999 167.656 167.979 167.656 169.757V174.559H166.242V170.233C166.242 168.959 165.682 168.245 164.632 168.245C163.666 168.245 162.854 169.057 162.854 170.373ZM171.171 173.957C171.171 175.287 170.121 176.323 168.581 176.351V175.553C169.491 175.525 170.107 175.035 170.191 174.349C170.065 174.391 169.981 174.405 169.883 174.405C169.351 174.405 168.959 173.971 168.959 173.453C168.959 172.851 169.407 172.459 169.981 172.459C170.751 172.459 171.171 173.019 171.171 173.957ZM66.6706 188.675C66.6706 190.509 65.3266 191.559 63.2406 191.559H59.5586V181.507H63.0446C65.0746 181.507 66.2926 182.445 66.2926 184.139C66.2926 185.091 65.7186 185.903 64.7526 186.323C65.9986 186.673 66.6706 187.527 66.6706 188.675ZM62.9466 182.739H60.9726V185.763H62.9466C64.1646 185.763 64.8226 185.189 64.8226 184.251C64.8226 183.313 64.1646 182.739 62.9466 182.739ZM63.1426 186.995H60.9726V190.327H63.1426C64.4586 190.327 65.2006 189.697 65.2006 188.633C65.2006 187.611 64.4586 186.995 63.1426 186.995ZM69.4674 187.765V191.559H68.0534V184.139H69.3694V185.707C69.8874 184.685 71.0074 184.041 72.2254 184.041V185.511C70.6294 185.427 69.4674 186.127 69.4674 187.765ZM77.5584 191.559V190.411C77.0964 191.237 76.2704 191.699 75.1784 191.699C73.6384 191.699 72.6304 190.817 72.6304 189.459C72.6304 188.003 73.7924 187.247 76.0044 187.247C76.4384 187.247 76.7884 187.261 77.3904 187.331V186.785C77.3904 185.721 76.8164 185.119 75.8364 185.119C74.8004 185.119 74.1704 185.735 74.1284 186.771H72.8404C72.9104 185.105 74.1004 183.999 75.8364 183.999C77.6704 183.999 78.7344 185.035 78.7344 186.799V191.559H77.5584ZM73.9744 189.417C73.9744 190.187 74.5484 190.691 75.4584 190.691C76.6484 190.691 77.3904 189.949 77.3904 188.815V188.213C76.8444 188.143 76.4524 188.129 76.0884 188.129C74.6744 188.129 73.9744 188.549 73.9744 189.417ZM81.7589 187.373V191.559H80.3449V184.139H81.6609V185.371C82.1649 184.545 83.0049 183.999 84.0269 183.999C85.5529 183.999 86.5609 184.979 86.5609 186.757V191.559H85.1469V187.233C85.1469 185.959 84.5869 185.245 83.5369 185.245C82.5709 185.245 81.7589 186.057 81.7589 187.373ZM87.6267 187.849C87.6267 185.595 88.9147 183.999 90.9167 183.999C91.9107 183.999 92.7787 184.503 93.2967 185.413V181.507H94.7107V191.559H93.3947V190.229C92.8627 191.167 91.9667 191.699 90.9167 191.699C88.9147 191.699 87.6267 190.075 87.6267 187.849ZM89.0967 187.849C89.0967 189.501 89.9647 190.439 91.1967 190.439C92.4007 190.439 93.2967 189.459 93.2967 187.821C93.2967 186.155 92.3727 185.245 91.1967 185.245C89.9647 185.245 89.0967 186.169 89.0967 187.849ZM98.1182 182.417C98.1182 182.949 97.6982 183.355 97.0962 183.355C96.4942 183.355 96.0602 182.949 96.0602 182.417C96.0602 181.871 96.4942 181.479 97.0962 181.479C97.6982 181.479 98.1182 181.871 98.1182 182.417ZM97.8102 191.559H96.3962V184.139H97.8102V191.559ZM100.907 187.373V191.559H99.4932V184.139H100.809V185.371C101.313 184.545 102.153 183.999 103.175 183.999C104.701 183.999 105.709 184.979 105.709 186.757V191.559H104.295V187.233C104.295 185.959 103.735 185.245 102.685 185.245C101.719 185.245 100.907 186.057 100.907 187.373ZM110.275 194.415C108.329 194.415 107.069 193.379 106.985 191.699H108.357C108.441 192.735 109.113 193.295 110.261 193.295C111.535 193.295 112.207 192.609 112.207 191.335V189.991C111.787 190.887 110.947 191.405 109.939 191.405C108.091 191.405 106.775 189.879 106.775 187.695C106.775 185.483 108.035 183.999 109.897 183.999C110.961 183.999 111.801 184.517 112.305 185.455V184.139H113.621V191.307C113.621 193.253 112.375 194.415 110.275 194.415ZM108.203 187.695C108.203 189.235 108.959 190.173 110.191 190.173C111.395 190.173 112.207 189.207 112.207 187.737C112.207 186.197 111.409 185.217 110.191 185.217C108.973 185.217 108.203 186.169 108.203 187.695ZM122.438 191.769C119.638 191.769 117.468 189.487 117.468 186.519C117.468 183.565 119.638 181.297 122.438 181.297C124.958 181.297 126.974 182.977 127.352 185.455H125.714C125.434 183.831 124.118 182.683 122.452 182.683C120.464 182.683 119.064 184.293 119.064 186.519C119.064 188.773 120.464 190.383 122.452 190.383C124.118 190.383 125.434 189.221 125.714 187.597H127.352C126.974 190.089 124.958 191.769 122.438 191.769ZM131.669 191.699C129.569 191.699 128.029 190.047 128.029 187.849C128.029 185.651 129.569 183.999 131.669 183.999C133.769 183.999 135.309 185.651 135.309 187.849C135.309 190.047 133.769 191.699 131.669 191.699ZM131.669 190.453C132.887 190.453 133.853 189.473 133.853 187.849C133.853 186.225 132.887 185.259 131.669 185.259C130.451 185.259 129.499 186.225 129.499 187.849C129.499 189.473 130.451 190.453 131.669 190.453ZM137.898 191.559H136.47V181.507H137.898V191.559ZM141.009 191.559H139.581V181.507H141.009V191.559ZM147.185 191.559V190.411C146.723 191.237 145.897 191.699 144.805 191.699C143.265 191.699 142.257 190.817 142.257 189.459C142.257 188.003 143.419 187.247 145.631 187.247C146.065 187.247 146.415 187.261 147.017 187.331V186.785C147.017 185.721 146.443 185.119 145.463 185.119C144.427 185.119 143.797 185.735 143.755 186.771H142.467C142.537 185.105 143.727 183.999 145.463 183.999C147.297 183.999 148.361 185.035 148.361 186.799V191.559H147.185ZM143.601 189.417C143.601 190.187 144.175 190.691 145.085 190.691C146.275 190.691 147.017 189.949 147.017 188.815V188.213C146.471 188.143 146.079 188.129 145.715 188.129C144.301 188.129 143.601 188.549 143.601 189.417ZM154.09 190.187V191.433C153.656 191.629 153.278 191.699 152.83 191.699C151.458 191.699 150.506 190.957 150.506 189.319V185.343H148.868V184.139H150.506V181.941H151.92V184.139H154.16V185.343H151.92V188.997C151.92 190.019 152.41 190.383 153.166 190.383C153.502 190.383 153.796 190.327 154.09 190.187ZM158.076 191.699C155.934 191.699 154.492 190.145 154.492 187.807C154.492 185.609 155.99 183.999 158.034 183.999C160.246 183.999 161.716 185.791 161.464 188.199H155.934C156.046 189.711 156.802 190.593 158.048 190.593C159.098 190.593 159.826 190.019 160.064 189.053H161.464C161.1 190.705 159.826 191.699 158.076 191.699ZM158.006 185.063C156.872 185.063 156.102 185.875 155.948 187.261H159.966C159.896 185.889 159.154 185.063 158.006 185.063ZM164.101 187.765V191.559H162.687V184.139H164.003V185.707C164.521 184.685 165.641 184.041 166.859 184.041V185.511C165.263 185.427 164.101 186.127 164.101 187.765ZM172.192 191.559V190.411C171.73 191.237 170.904 191.699 169.812 191.699C168.272 191.699 167.264 190.817 167.264 189.459C167.264 188.003 168.426 187.247 170.638 187.247C171.072 187.247 171.422 187.261 172.024 187.331V186.785C172.024 185.721 171.45 185.119 170.47 185.119C169.434 185.119 168.804 185.735 168.762 186.771H167.474C167.544 185.105 168.734 183.999 170.47 183.999C172.304 183.999 173.368 185.035 173.368 186.799V191.559H172.192ZM168.608 189.417C168.608 190.187 169.182 190.691 170.092 190.691C171.282 190.691 172.024 189.949 172.024 188.815V188.213C171.478 188.143 171.086 188.129 170.722 188.129C169.308 188.129 168.608 188.549 168.608 189.417ZM176.407 191.559H174.979V181.507H176.407V191.559ZM183.97 189.347C183.97 190.803 182.836 191.699 180.862 191.699C178.902 191.699 177.74 190.733 177.6 189.137H178.958C179.014 190.061 179.756 190.635 180.89 190.635C181.884 190.635 182.542 190.285 182.542 189.585C182.542 188.969 182.164 188.703 181.24 188.521L180.036 188.297C178.664 188.031 177.894 187.331 177.894 186.211C177.894 184.909 179.028 183.999 180.75 183.999C182.528 183.999 183.732 184.951 183.858 186.477H182.5C182.416 185.581 181.758 185.063 180.764 185.063C179.868 185.063 179.266 185.441 179.266 186.085C179.266 186.687 179.644 186.967 180.54 187.135L181.8 187.373C183.27 187.639 183.97 188.283 183.97 189.347Z" fill="#1A1A1A"/>
<mask id="path-4-outside-1_1195_498" maskUnits="userSpaceOnUse" x="38" y="58" width="165" height="45" fill="black">
<rect fill="white" x="38" y="58" width="165" height="45"/>
<path d="M96.8553 79.5127H93.6828V77.6848H102.099V79.5127H98.9262V86.8194H96.8553V79.5127Z"/>
<path d="M102.904 77.6849H110.762V79.5127H104.975V81.3382H109.855V83.1637H104.975V86.817H102.904V77.6824V77.6849Z"/>
<path d="M111.568 77.6848H113.639V81.3382H118.74V77.6848H120.811V86.8194H118.74V83.166H113.639V86.8194H111.568V77.6848Z"/>
<path d="M125.215 82.2545C125.215 79.3309 127.132 77.4909 130.225 77.4909C133.318 77.4909 134.925 78.7951 134.925 81.0012H132.984C132.984 79.8666 131.755 79.3842 130.213 79.3842C128.556 79.3842 127.351 80.4678 127.351 82.2545C127.351 84.0412 128.683 85.1248 130.55 85.1248C131.74 85.1248 132.609 84.5648 132.958 83.6897H130.367V81.8618H135.182V86.8218H133.111V85.2169C132.594 86.1697 131.673 87.0181 130.069 87.0181C127.31 87.0181 125.213 85.1781 125.213 82.2545H125.215Z"/>
<path d="M142.028 77.6848L146.092 86.8194H143.815L143.011 85.0061H138.764L137.96 86.8194H135.683L139.747 77.6848H142.028ZM142.196 83.1806L140.888 80.2448L139.579 83.1806H142.196Z"/>
<path d="M151.764 79.5127H146.521V77.6848H154.677V79.5127L149.433 84.9939H154.677V86.8194H146.521V84.9939L151.764 79.5127Z"/>
<path d="M155.891 77.6849H163.879V79.5127H157.962V81.3382H162.972V83.1637H157.962V84.9915H163.879V86.817H155.891V77.6824V77.6849Z"/>
<path d="M170.08 77.6848C172.838 77.6848 173.743 78.6764 173.743 80.3467C173.743 80.9988 173.483 81.5588 173.004 81.9903C173.728 82.4727 174.118 83.1515 174.118 84C174.118 85.7624 173.161 86.8315 170.272 86.8315H166V86.8194H165.132V77.6848H170.08ZM170.248 81.183C171.232 81.183 171.607 80.8703 171.607 80.3491C171.607 79.8279 171.232 79.5151 170.248 79.5151H167.205V81.1854H170.248V81.183ZM170.532 85.0061C171.568 85.0061 171.982 84.6279 171.982 84.0024C171.982 83.377 171.568 83.0109 170.532 83.0109H167.205V85.0061H170.532Z"/>
<path d="M180.162 77.4909C183.722 77.4909 185.459 79.3963 185.459 82.2545C185.459 85.1127 183.724 87.0181 180.162 87.0181C176.6 87.0181 174.866 85.1127 174.866 82.2545C174.866 79.3963 176.73 77.4909 180.162 77.4909ZM180.162 85.1248C182.286 85.1248 183.32 83.9757 183.32 82.2545C183.32 80.5333 182.284 79.3842 180.162 79.3842C178.041 79.3842 177.004 80.5333 177.004 82.2545C177.004 83.9757 178.118 85.1248 180.162 85.1248Z"/>
<path d="M190.259 83.2048C188.59 83.0885 186.286 82.9576 186.286 80.4388C186.286 78.6376 187.633 77.4885 190.469 77.4885C193.485 77.4885 194.87 78.7927 194.87 80.9988H192.929C192.929 79.8642 191.828 79.3818 190.534 79.3818C189.24 79.3818 188.424 79.6557 188.424 80.2545C188.424 80.9333 189.511 80.9333 190.87 81.0885C192.746 81.3115 195 81.377 195 84.1285C195 85.9806 193.523 87.0133 190.69 87.0133C187.674 87.0133 186.288 85.7091 186.288 83.503H188.229C188.229 84.6376 189.331 85.1224 190.625 85.1224C191.919 85.1224 192.864 84.8339 192.864 84.1309C192.864 83.1927 191.517 83.297 190.262 83.2048H190.259Z"/>
<path d="M71.1026 66C64.7938 76.7394 56.6064 86.2255 47 94C54.0545 93.023 62.2058 92.3297 71.2518 92.337C80.1751 92.3442 88.2229 93.0327 95.2053 94C85.5965 86.2255 77.4115 76.7394 71.1026 66ZM71.1026 89.6194C65.7679 89.6194 60.4716 89.8691 55.221 90.3661C55.9041 89.7164 56.5776 89.0545 57.2438 88.383C60.3104 85.2897 63.1678 82.0364 65.8112 78.6303C67.8171 80.3248 70.1694 82.0921 72.8849 83.7988C78.0393 87.0352 82.9483 89.0642 86.9867 90.3661C81.7337 89.8691 76.4374 89.6194 71.1026 89.6194Z"/>
</mask>
<path d="M96.8553 79.5127H93.6828V77.6848H102.099V79.5127H98.9262V86.8194H96.8553V79.5127Z" fill="#1A1A1A"/>
<path d="M102.904 77.6849H110.762V79.5127H104.975V81.3382H109.855V83.1637H104.975V86.817H102.904V77.6824V77.6849Z" fill="#1A1A1A"/>
<path d="M111.568 77.6848H113.639V81.3382H118.74V77.6848H120.811V86.8194H118.74V83.166H113.639V86.8194H111.568V77.6848Z" fill="#1A1A1A"/>
<path d="M125.215 82.2545C125.215 79.3309 127.132 77.4909 130.225 77.4909C133.318 77.4909 134.925 78.7951 134.925 81.0012H132.984C132.984 79.8666 131.755 79.3842 130.213 79.3842C128.556 79.3842 127.351 80.4678 127.351 82.2545C127.351 84.0412 128.683 85.1248 130.55 85.1248C131.74 85.1248 132.609 84.5648 132.958 83.6897H130.367V81.8618H135.182V86.8218H133.111V85.2169C132.594 86.1697 131.673 87.0181 130.069 87.0181C127.31 87.0181 125.213 85.1781 125.213 82.2545H125.215Z" fill="#1A1A1A"/>
<path d="M142.028 77.6848L146.092 86.8194H143.815L143.011 85.0061H138.764L137.96 86.8194H135.683L139.747 77.6848H142.028ZM142.196 83.1806L140.888 80.2448L139.579 83.1806H142.196Z" fill="#1A1A1A"/>
<path d="M151.764 79.5127H146.521V77.6848H154.677V79.5127L149.433 84.9939H154.677V86.8194H146.521V84.9939L151.764 79.5127Z" fill="#1A1A1A"/>
<path d="M155.891 77.6849H163.879V79.5127H157.962V81.3382H162.972V83.1637H157.962V84.9915H163.879V86.817H155.891V77.6824V77.6849Z" fill="#1A1A1A"/>
<path d="M170.08 77.6848C172.838 77.6848 173.743 78.6764 173.743 80.3467C173.743 80.9988 173.483 81.5588 173.004 81.9903C173.728 82.4727 174.118 83.1515 174.118 84C174.118 85.7624 173.161 86.8315 170.272 86.8315H166V86.8194H165.132V77.6848H170.08ZM170.248 81.183C171.232 81.183 171.607 80.8703 171.607 80.3491C171.607 79.8279 171.232 79.5151 170.248 79.5151H167.205V81.1854H170.248V81.183ZM170.532 85.0061C171.568 85.0061 171.982 84.6279 171.982 84.0024C171.982 83.377 171.568 83.0109 170.532 83.0109H167.205V85.0061H170.532Z" fill="#1A1A1A"/>
<path d="M180.162 77.4909C183.722 77.4909 185.459 79.3963 185.459 82.2545C185.459 85.1127 183.724 87.0181 180.162 87.0181C176.6 87.0181 174.866 85.1127 174.866 82.2545C174.866 79.3963 176.73 77.4909 180.162 77.4909ZM180.162 85.1248C182.286 85.1248 183.32 83.9757 183.32 82.2545C183.32 80.5333 182.284 79.3842 180.162 79.3842C178.041 79.3842 177.004 80.5333 177.004 82.2545C177.004 83.9757 178.118 85.1248 180.162 85.1248Z" fill="#1A1A1A"/>
<path d="M190.259 83.2048C188.59 83.0885 186.286 82.9576 186.286 80.4388C186.286 78.6376 187.633 77.4885 190.469 77.4885C193.485 77.4885 194.87 78.7927 194.87 80.9988H192.929C192.929 79.8642 191.828 79.3818 190.534 79.3818C189.24 79.3818 188.424 79.6557 188.424 80.2545C188.424 80.9333 189.511 80.9333 190.87 81.0885C192.746 81.3115 195 81.377 195 84.1285C195 85.9806 193.523 87.0133 190.69 87.0133C187.674 87.0133 186.288 85.7091 186.288 83.503H188.229C188.229 84.6376 189.331 85.1224 190.625 85.1224C191.919 85.1224 192.864 84.8339 192.864 84.1309C192.864 83.1927 191.517 83.297 190.262 83.2048H190.259Z" fill="#1A1A1A"/>
<path d="M71.1026 66C64.7938 76.7394 56.6064 86.2255 47 94C54.0545 93.023 62.2058 92.3297 71.2518 92.337C80.1751 92.3442 88.2229 93.0327 95.2053 94C85.5965 86.2255 77.4115 76.7394 71.1026 66ZM71.1026 89.6194C65.7679 89.6194 60.4716 89.8691 55.221 90.3661C55.9041 89.7164 56.5776 89.0545 57.2438 88.383C60.3104 85.2897 63.1678 82.0364 65.8112 78.6303C67.8171 80.3248 70.1694 82.0921 72.8849 83.7988C78.0393 87.0352 82.9483 89.0642 86.9867 90.3661C81.7337 89.8691 76.4374 89.6194 71.1026 89.6194Z" fill="#1A1A1A"/>
<path d="M96.8553 79.5127H93.6828V77.6848H102.099V79.5127H98.9262V86.8194H96.8553V79.5127Z" stroke="#E6E2DE" stroke-width="16" stroke-linejoin="round" mask="url(#path-4-outside-1_1195_498)"/>
<path d="M102.904 77.6849H110.762V79.5127H104.975V81.3382H109.855V83.1637H104.975V86.817H102.904V77.6824V77.6849Z" stroke="#E6E2DE" stroke-width="16" stroke-linejoin="round" mask="url(#path-4-outside-1_1195_498)"/>
<path d="M111.568 77.6848H113.639V81.3382H118.74V77.6848H120.811V86.8194H118.74V83.166H113.639V86.8194H111.568V77.6848Z" stroke="#E6E2DE" stroke-width="16" stroke-linejoin="round" mask="url(#path-4-outside-1_1195_498)"/>
<path d="M125.215 82.2545C125.215 79.3309 127.132 77.4909 130.225 77.4909C133.318 77.4909 134.925 78.7951 134.925 81.0012H132.984C132.984 79.8666 131.755 79.3842 130.213 79.3842C128.556 79.3842 127.351 80.4678 127.351 82.2545C127.351 84.0412 128.683 85.1248 130.55 85.1248C131.74 85.1248 132.609 84.5648 132.958 83.6897H130.367V81.8618H135.182V86.8218H133.111V85.2169C132.594 86.1697 131.673 87.0181 130.069 87.0181C127.31 87.0181 125.213 85.1781 125.213 82.2545H125.215Z" stroke="#E6E2DE" stroke-width="16" stroke-linejoin="round" mask="url(#path-4-outside-1_1195_498)"/>
<path d="M142.028 77.6848L146.092 86.8194H143.815L143.011 85.0061H138.764L137.96 86.8194H135.683L139.747 77.6848H142.028ZM142.196 83.1806L140.888 80.2448L139.579 83.1806H142.196Z" stroke="#E6E2DE" stroke-width="16" stroke-linejoin="round" mask="url(#path-4-outside-1_1195_498)"/>
<path d="M151.764 79.5127H146.521V77.6848H154.677V79.5127L149.433 84.9939H154.677V86.8194H146.521V84.9939L151.764 79.5127Z" stroke="#E6E2DE" stroke-width="16" stroke-linejoin="round" mask="url(#path-4-outside-1_1195_498)"/>
<path d="M155.891 77.6849H163.879V79.5127H157.962V81.3382H162.972V83.1637H157.962V84.9915H163.879V86.817H155.891V77.6824V77.6849Z" stroke="#E6E2DE" stroke-width="16" stroke-linejoin="round" mask="url(#path-4-outside-1_1195_498)"/>
<path d="M170.08 77.6848C172.838 77.6848 173.743 78.6764 173.743 80.3467C173.743 80.9988 173.483 81.5588 173.004 81.9903C173.728 82.4727 174.118 83.1515 174.118 84C174.118 85.7624 173.161 86.8315 170.272 86.8315H166V86.8194H165.132V77.6848H170.08ZM170.248 81.183C171.232 81.183 171.607 80.8703 171.607 80.3491C171.607 79.8279 171.232 79.5151 170.248 79.5151H167.205V81.1854H170.248V81.183ZM170.532 85.0061C171.568 85.0061 171.982 84.6279 171.982 84.0024C171.982 83.377 171.568 83.0109 170.532 83.0109H167.205V85.0061H170.532Z" stroke="#E6E2DE" stroke-width="16" stroke-linejoin="round" mask="url(#path-4-outside-1_1195_498)"/>
<path d="M180.162 77.4909C183.722 77.4909 185.459 79.3963 185.459 82.2545C185.459 85.1127 183.724 87.0181 180.162 87.0181C176.6 87.0181 174.866 85.1127 174.866 82.2545C174.866 79.3963 176.73 77.4909 180.162 77.4909ZM180.162 85.1248C182.286 85.1248 183.32 83.9757 183.32 82.2545C183.32 80.5333 182.284 79.3842 180.162 79.3842C178.041 79.3842 177.004 80.5333 177.004 82.2545C177.004 83.9757 178.118 85.1248 180.162 85.1248Z" stroke="#E6E2DE" stroke-width="16" stroke-linejoin="round" mask="url(#path-4-outside-1_1195_498)"/>
<path d="M190.259 83.2048C188.59 83.0885 186.286 82.9576 186.286 80.4388C186.286 78.6376 187.633 77.4885 190.469 77.4885C193.485 77.4885 194.87 78.7927 194.87 80.9988H192.929C192.929 79.8642 191.828 79.3818 190.534 79.3818C189.24 79.3818 188.424 79.6557 188.424 80.2545C188.424 80.9333 189.511 80.9333 190.87 81.0885C192.746 81.3115 195 81.377 195 84.1285C195 85.9806 193.523 87.0133 190.69 87.0133C187.674 87.0133 186.288 85.7091 186.288 83.503H188.229C188.229 84.6376 189.331 85.1224 190.625 85.1224C191.919 85.1224 192.864 84.8339 192.864 84.1309C192.864 83.1927 191.517 83.297 190.262 83.2048H190.259Z" stroke="#E6E2DE" stroke-width="16" stroke-linejoin="round" mask="url(#path-4-outside-1_1195_498)"/>
<path d="M71.1026 66C64.7938 76.7394 56.6064 86.2255 47 94C54.0545 93.023 62.2058 92.3297 71.2518 92.337C80.1751 92.3442 88.2229 93.0327 95.2053 94C85.5965 86.2255 77.4115 76.7394 71.1026 66ZM71.1026 89.6194C65.7679 89.6194 60.4716 89.8691 55.221 90.3661C55.9041 89.7164 56.5776 89.0545 57.2438 88.383C60.3104 85.2897 63.1678 82.0364 65.8112 78.6303C67.8171 80.3248 70.1694 82.0921 72.8849 83.7988C78.0393 87.0352 82.9483 89.0642 86.9867 90.3661C81.7337 89.8691 76.4374 89.6194 71.1026 89.6194Z" stroke="#E6E2DE" stroke-width="16" stroke-linejoin="round" mask="url(#path-4-outside-1_1195_498)"/>
</svg>
