<svg width="242" height="183" viewBox="0 0 242 183" fill="none" xmlns="http://www.w3.org/2000/svg">
<rect y="23" width="242" height="160" rx="12" fill="#E6E2DE"/>
<path d="M79.4578 98H77.0258V88.704H73.4098V86.512H83.0898V88.704H79.4578V98ZM86.9177 98.16C84.4377 98.16 82.5817 96.208 82.5817 93.728C82.5817 91.232 84.4377 89.296 86.9177 89.296C89.3977 89.296 91.2537 91.232 91.2537 93.728C91.2537 96.208 89.3977 98.16 86.9177 98.16ZM86.9177 96.192C88.0217 96.192 88.9657 95.312 88.9657 93.728C88.9657 92.144 88.0217 91.28 86.9177 91.28C85.8137 91.28 84.8697 92.144 84.8697 93.728C84.8697 95.312 85.8137 96.192 86.9177 96.192ZM94.7369 98H92.5129V89.456H94.5609V90.672C95.1849 89.808 95.9849 89.296 97.1209 89.296C98.2889 89.296 99.1849 89.84 99.6169 90.816C100.289 89.872 101.153 89.296 102.433 89.296C104.161 89.296 105.329 90.432 105.329 92.48V98H103.121V93.184C103.121 91.984 102.609 91.264 101.633 91.264C100.753 91.264 100.033 91.952 100.033 93.232V98H97.8249V93.184C97.8249 91.984 97.3129 91.264 96.3369 91.264C95.4409 91.264 94.7369 91.952 94.7369 93.232V98ZM110.848 98.16C108.368 98.16 106.512 96.208 106.512 93.728C106.512 91.232 108.368 89.296 110.848 89.296C113.328 89.296 115.184 91.232 115.184 93.728C115.184 96.208 113.328 98.16 110.848 98.16ZM110.848 96.192C111.952 96.192 112.896 95.312 112.896 93.728C112.896 92.144 111.952 91.28 110.848 91.28C109.744 91.28 108.8 92.144 108.8 93.728C108.8 95.312 109.744 96.192 110.848 96.192ZM118.667 93.856V98H116.443V89.456H118.491V91.104C119.115 90.016 120.443 89.36 121.819 89.36V91.664C119.931 91.52 118.667 91.968 118.667 93.856ZM125.038 93.856V98H122.814V89.456H124.862V91.104C125.486 90.016 126.814 89.36 128.19 89.36V91.664C126.302 91.52 125.038 91.968 125.038 93.856ZM132.899 98.16C130.419 98.16 128.563 96.208 128.563 93.728C128.563 91.232 130.419 89.296 132.899 89.296C135.379 89.296 137.235 91.232 137.235 93.728C137.235 96.208 135.379 98.16 132.899 98.16ZM132.899 96.192C134.003 96.192 134.947 95.312 134.947 93.728C134.947 92.144 134.003 91.28 132.899 91.28C131.795 91.28 130.851 92.144 130.851 93.728C130.851 95.312 131.795 96.192 132.899 96.192ZM145.283 98L143.667 92.448L142.067 98H139.843L137.411 89.456H139.571L141.027 94.864L142.595 89.456H144.787L146.307 94.864L147.747 89.456H149.939L147.491 98H145.283ZM162.864 94.624C162.864 96.752 161.296 98 158.768 98H154.272V86.512H158.592C161.008 86.512 162.496 87.6 162.496 89.568C162.496 90.624 161.904 91.472 160.88 92C162.16 92.448 162.864 93.36 162.864 94.624ZM158.4 88.432H156.48V91.104H158.4C159.584 91.104 160.192 90.592 160.192 89.76C160.192 88.944 159.584 88.432 158.4 88.432ZM158.576 93.04H156.48V96.08H158.576C159.888 96.08 160.576 95.504 160.576 94.528C160.576 93.616 159.888 93.04 158.576 93.04ZM166.856 87.472C166.856 88.224 166.248 88.784 165.368 88.784C164.504 88.784 163.896 88.224 163.896 87.472C163.896 86.688 164.504 86.128 165.368 86.128C166.248 86.128 166.856 86.688 166.856 87.472ZM166.504 98H164.28V89.456H166.504V98ZM172.099 98.16C169.619 98.16 167.763 96.208 167.763 93.728C167.763 91.232 169.619 89.296 172.099 89.296C174.579 89.296 176.435 91.232 176.435 93.728C176.435 96.208 174.579 98.16 172.099 98.16ZM172.099 96.192C173.203 96.192 174.147 95.312 174.147 93.728C174.147 92.144 173.203 91.28 172.099 91.28C170.995 91.28 170.051 92.144 170.051 93.728C170.051 95.312 170.995 96.192 172.099 96.192Z" fill="#1A1A1A"/>
<path d="M57.8062 115.06C57.8062 116.81 56.4062 118.14 53.9702 118.14C51.5482 118.14 50.0782 116.81 49.9522 114.808H51.5202C51.5902 116.082 52.4022 116.908 53.9422 116.908C55.2162 116.908 56.1682 116.306 56.1682 115.27C56.1682 114.43 55.6222 114.01 54.4602 113.758L53.0042 113.478C51.5902 113.198 50.3022 112.484 50.3022 110.776C50.3022 109.082 51.7862 107.808 53.8722 107.808C55.9582 107.808 57.5402 109.082 57.6662 111.084H56.0982C56.0142 109.88 55.1462 109.04 53.8862 109.04C52.5842 109.04 51.8702 109.81 51.8702 110.678C51.8702 111.63 52.6962 111.966 53.6342 112.162L55.1182 112.456C56.8402 112.806 57.8062 113.562 57.8062 115.06ZM62.305 118.14C60.205 118.14 58.665 116.488 58.665 114.29C58.665 112.092 60.205 110.44 62.305 110.44C64.405 110.44 65.945 112.092 65.945 114.29C65.945 116.488 64.405 118.14 62.305 118.14ZM62.305 116.894C63.523 116.894 64.489 115.914 64.489 114.29C64.489 112.666 63.523 111.7 62.305 111.7C61.087 111.7 60.135 112.666 60.135 114.29C60.135 115.914 61.087 116.894 62.305 116.894ZM70.0324 118.154C68.0024 118.154 66.5744 116.558 66.5744 114.29C66.5744 112.05 68.0304 110.44 70.0324 110.44C71.8664 110.44 73.1964 111.658 73.4624 113.59H71.9784C71.8244 112.4 71.0824 111.686 70.0464 111.686C68.8284 111.686 68.0304 112.722 68.0304 114.29C68.0304 115.872 68.8284 116.894 70.0464 116.894C71.0964 116.894 71.8244 116.194 71.9924 114.99H73.4624C73.2104 116.95 71.8944 118.154 70.0324 118.154ZM76.3277 108.858C76.3277 109.39 75.9077 109.796 75.3057 109.796C74.7037 109.796 74.2697 109.39 74.2697 108.858C74.2697 108.312 74.7037 107.92 75.3057 107.92C75.9077 107.92 76.3277 108.312 76.3277 108.858ZM76.0197 118H74.6057V110.58H76.0197V118ZM82.1967 118V116.852C81.7347 117.678 80.9087 118.14 79.8167 118.14C78.2767 118.14 77.2687 117.258 77.2687 115.9C77.2687 114.444 78.4307 113.688 80.6427 113.688C81.0767 113.688 81.4267 113.702 82.0287 113.772V113.226C82.0287 112.162 81.4547 111.56 80.4747 111.56C79.4387 111.56 78.8087 112.176 78.7667 113.212H77.4787C77.5487 111.546 78.7387 110.44 80.4747 110.44C82.3087 110.44 83.3727 111.476 83.3727 113.24V118H82.1967ZM78.6127 115.858C78.6127 116.628 79.1867 117.132 80.0967 117.132C81.2867 117.132 82.0287 116.39 82.0287 115.256V114.654C81.4827 114.584 81.0907 114.57 80.7267 114.57C79.3127 114.57 78.6127 114.99 78.6127 115.858ZM86.4112 118H84.9832V107.948H86.4112V118ZM95.4437 118L92.2657 110.314V118H90.8517V107.948H92.7417L96.1157 116.11L99.4757 107.948H101.38V118H99.9517V110.3L96.7597 118H95.4437ZM106.213 118.14C104.071 118.14 102.629 116.586 102.629 114.248C102.629 112.05 104.127 110.44 106.171 110.44C108.383 110.44 109.853 112.232 109.601 114.64H104.071C104.183 116.152 104.939 117.034 106.185 117.034C107.235 117.034 107.963 116.46 108.201 115.494H109.601C109.237 117.146 107.963 118.14 106.213 118.14ZM106.143 111.504C105.009 111.504 104.239 112.316 104.085 113.702H108.103C108.033 112.33 107.291 111.504 106.143 111.504ZM110.155 114.29C110.155 112.036 111.443 110.44 113.445 110.44C114.439 110.44 115.307 110.944 115.825 111.854V107.948H117.239V118H115.923V116.67C115.391 117.608 114.495 118.14 113.445 118.14C111.443 118.14 110.155 116.516 110.155 114.29ZM111.625 114.29C111.625 115.942 112.493 116.88 113.725 116.88C114.929 116.88 115.825 115.9 115.825 114.262C115.825 112.596 114.901 111.686 113.725 111.686C112.493 111.686 111.625 112.61 111.625 114.29ZM120.647 108.858C120.647 109.39 120.227 109.796 119.625 109.796C119.023 109.796 118.589 109.39 118.589 108.858C118.589 108.312 119.023 107.92 119.625 107.92C120.227 107.92 120.647 108.312 120.647 108.858ZM120.339 118H118.925V110.58H120.339V118ZM126.516 118V116.852C126.054 117.678 125.228 118.14 124.136 118.14C122.596 118.14 121.588 117.258 121.588 115.9C121.588 114.444 122.75 113.688 124.962 113.688C125.396 113.688 125.746 113.702 126.348 113.772V113.226C126.348 112.162 125.774 111.56 124.794 111.56C123.758 111.56 123.128 112.176 123.086 113.212H121.798C121.868 111.546 123.058 110.44 124.794 110.44C126.628 110.44 127.692 111.476 127.692 113.24V118H126.516ZM122.932 115.858C122.932 116.628 123.506 117.132 124.416 117.132C125.606 117.132 126.348 116.39 126.348 115.256V114.654C125.802 114.584 125.41 114.57 125.046 114.57C123.632 114.57 122.932 114.99 122.932 115.858ZM136.05 118H134.51V109.334H131.234V107.948H139.326V109.334H136.05V118ZM142.363 118.14C140.221 118.14 138.779 116.586 138.779 114.248C138.779 112.05 140.277 110.44 142.321 110.44C144.533 110.44 146.003 112.232 145.751 114.64H140.221C140.333 116.152 141.089 117.034 142.335 117.034C143.385 117.034 144.113 116.46 144.351 115.494H145.751C145.387 117.146 144.113 118.14 142.363 118.14ZM142.293 111.504C141.159 111.504 140.389 112.316 140.235 113.702H144.253C144.183 112.33 143.441 111.504 142.293 111.504ZM148.388 118H146.974V110.58H148.29V111.812C148.794 110.958 149.592 110.44 150.614 110.44C151.706 110.44 152.532 111 152.868 111.98C153.386 111.028 154.24 110.44 155.374 110.44C156.9 110.44 157.88 111.434 157.88 113.198V118H156.466V113.646C156.466 112.414 155.92 111.686 154.884 111.686C153.918 111.686 153.134 112.498 153.134 113.744V118H151.72V113.646C151.72 112.414 151.174 111.686 150.138 111.686C149.158 111.686 148.388 112.498 148.388 113.744V118ZM166.575 114.29C166.575 116.53 165.287 118.14 163.299 118.14C162.291 118.14 161.437 117.636 160.905 116.74V120.702H159.491V110.58H160.807V111.938C161.339 110.986 162.249 110.44 163.299 110.44C165.273 110.44 166.575 112.05 166.575 114.29ZM165.105 114.29C165.105 112.624 164.223 111.686 163.005 111.686C161.829 111.686 160.905 112.624 160.905 114.29C160.905 115.928 161.815 116.88 163.005 116.88C164.223 116.88 165.105 115.956 165.105 114.29ZM169.157 118H167.729V107.948H169.157V118ZM175.333 118V116.852C174.871 117.678 174.045 118.14 172.953 118.14C171.413 118.14 170.405 117.258 170.405 115.9C170.405 114.444 171.567 113.688 173.779 113.688C174.213 113.688 174.563 113.702 175.165 113.772V113.226C175.165 112.162 174.591 111.56 173.611 111.56C172.575 111.56 171.945 112.176 171.903 113.212H170.615C170.685 111.546 171.875 110.44 173.611 110.44C175.445 110.44 176.509 111.476 176.509 113.24V118H175.333ZM171.749 115.858C171.749 116.628 172.323 117.132 173.233 117.132C174.423 117.132 175.165 116.39 175.165 115.256V114.654C174.619 114.584 174.227 114.57 173.863 114.57C172.449 114.57 171.749 114.99 171.749 115.858ZM182.238 116.628V117.874C181.804 118.07 181.426 118.14 180.978 118.14C179.606 118.14 178.654 117.398 178.654 115.76V111.784H177.016V110.58H178.654V108.382H180.068V110.58H182.308V111.784H180.068V115.438C180.068 116.46 180.558 116.824 181.314 116.824C181.65 116.824 181.944 116.768 182.238 116.628ZM186.224 118.14C184.082 118.14 182.64 116.586 182.64 114.248C182.64 112.05 184.138 110.44 186.182 110.44C188.394 110.44 189.864 112.232 189.612 114.64H184.082C184.194 116.152 184.95 117.034 186.196 117.034C187.246 117.034 187.974 116.46 188.212 115.494H189.612C189.248 117.146 187.974 118.14 186.224 118.14ZM186.154 111.504C185.02 111.504 184.25 112.316 184.096 113.702H188.114C188.044 112.33 187.302 111.504 186.154 111.504ZM196.715 115.788C196.715 117.244 195.581 118.14 193.607 118.14C191.647 118.14 190.485 117.174 190.345 115.578H191.703C191.759 116.502 192.501 117.076 193.635 117.076C194.629 117.076 195.287 116.726 195.287 116.026C195.287 115.41 194.909 115.144 193.985 114.962L192.781 114.738C191.409 114.472 190.639 113.772 190.639 112.652C190.639 111.35 191.773 110.44 193.495 110.44C195.273 110.44 196.477 111.392 196.603 112.918H195.245C195.161 112.022 194.503 111.504 193.509 111.504C192.613 111.504 192.011 111.882 192.011 112.526C192.011 113.128 192.389 113.408 193.285 113.576L194.545 113.814C196.015 114.08 196.715 114.724 196.715 115.788ZM199.897 117.398C199.897 118.728 198.847 119.764 197.307 119.792V118.994C198.217 118.966 198.833 118.476 198.917 117.79C198.791 117.832 198.707 117.846 198.609 117.846C198.077 117.846 197.685 117.412 197.685 116.894C197.685 116.292 198.133 115.9 198.707 115.9C199.477 115.9 199.897 116.46 199.897 117.398ZM89.3873 132.116C89.3873 133.95 88.0433 135 85.9573 135H82.2753V124.948H85.7613C87.7913 124.948 89.0093 125.886 89.0093 127.58C89.0093 128.532 88.4353 129.344 87.4693 129.764C88.7153 130.114 89.3873 130.968 89.3873 132.116ZM85.6633 126.18H83.6893V129.204H85.6633C86.8813 129.204 87.5393 128.63 87.5393 127.692C87.5393 126.754 86.8813 126.18 85.6633 126.18ZM85.8593 130.436H83.6893V133.768H85.8593C87.1753 133.768 87.9173 133.138 87.9173 132.074C87.9173 131.052 87.1753 130.436 85.8593 130.436ZM92.184 131.206V135H90.77V127.58H92.086V129.148C92.604 128.126 93.724 127.482 94.942 127.482V128.952C93.346 128.868 92.184 129.568 92.184 131.206ZM100.275 135V133.852C99.813 134.678 98.987 135.14 97.895 135.14C96.355 135.14 95.347 134.258 95.347 132.9C95.347 131.444 96.509 130.688 98.721 130.688C99.155 130.688 99.505 130.702 100.107 130.772V130.226C100.107 129.162 99.533 128.56 98.553 128.56C97.517 128.56 96.887 129.176 96.845 130.212H95.557C95.627 128.546 96.817 127.44 98.553 127.44C100.387 127.44 101.451 128.476 101.451 130.24V135H100.275ZM96.691 132.858C96.691 133.628 97.265 134.132 98.175 134.132C99.365 134.132 100.107 133.39 100.107 132.256V131.654C99.561 131.584 99.169 131.57 98.805 131.57C97.391 131.57 96.691 131.99 96.691 132.858ZM104.476 130.814V135H103.062V127.58H104.378V128.812C104.882 127.986 105.722 127.44 106.744 127.44C108.27 127.44 109.278 128.42 109.278 130.198V135H107.864V130.674C107.864 129.4 107.304 128.686 106.254 128.686C105.288 128.686 104.476 129.498 104.476 130.814ZM110.343 131.29C110.343 129.036 111.631 127.44 113.633 127.44C114.627 127.44 115.495 127.944 116.013 128.854V124.948H117.427V135H116.111V133.67C115.579 134.608 114.683 135.14 113.633 135.14C111.631 135.14 110.343 133.516 110.343 131.29ZM111.813 131.29C111.813 132.942 112.681 133.88 113.913 133.88C115.117 133.88 116.013 132.9 116.013 131.262C116.013 129.596 115.089 128.686 113.913 128.686C112.681 128.686 111.813 129.61 111.813 131.29ZM123.411 135H121.871V124.948H123.411V135ZM124.665 131.29C124.665 129.036 125.953 127.44 127.955 127.44C128.949 127.44 129.817 127.944 130.335 128.854V124.948H131.749V135H130.433V133.67C129.901 134.608 129.005 135.14 127.955 135.14C125.953 135.14 124.665 133.516 124.665 131.29ZM126.135 131.29C126.135 132.942 127.003 133.88 128.235 133.88C129.439 133.88 130.335 132.9 130.335 131.262C130.335 129.596 129.411 128.686 128.235 128.686C127.003 128.686 126.135 129.61 126.135 131.29ZM136.487 135.14C134.345 135.14 132.903 133.586 132.903 131.248C132.903 129.05 134.401 127.44 136.445 127.44C138.657 127.44 140.127 129.232 139.875 131.64H134.345C134.457 133.152 135.213 134.034 136.459 134.034C137.509 134.034 138.237 133.46 138.475 132.494H139.875C139.511 134.146 138.237 135.14 136.487 135.14ZM136.417 128.504C135.283 128.504 134.513 129.316 134.359 130.702H138.377C138.307 129.33 137.565 128.504 136.417 128.504ZM142.512 130.814V135H141.098V127.58H142.414V128.812C142.918 127.986 143.758 127.44 144.78 127.44C146.306 127.44 147.314 128.42 147.314 130.198V135H145.9V130.674C145.9 129.4 145.34 128.686 144.29 128.686C143.324 128.686 142.512 129.498 142.512 130.814ZM153.071 133.628V134.874C152.637 135.07 152.259 135.14 151.811 135.14C150.439 135.14 149.487 134.398 149.487 132.76V128.784H147.849V127.58H149.487V125.382H150.901V127.58H153.141V128.784H150.901V132.438C150.901 133.46 151.391 133.824 152.147 133.824C152.483 133.824 152.777 133.768 153.071 133.628ZM155.932 125.858C155.932 126.39 155.512 126.796 154.91 126.796C154.308 126.796 153.874 126.39 153.874 125.858C153.874 125.312 154.308 124.92 154.91 124.92C155.512 124.92 155.932 125.312 155.932 125.858ZM155.624 135H154.21V127.58H155.624V135ZM161.493 133.628V134.874C161.059 135.07 160.681 135.14 160.233 135.14C158.861 135.14 157.909 134.398 157.909 132.76V128.784H156.271V127.58H157.909V125.382H159.323V127.58H161.563V128.784H159.323V132.438C159.323 133.46 159.813 133.824 160.569 133.824C160.905 133.824 161.199 133.768 161.493 133.628ZM168.793 127.58L165.083 137.702H163.543L164.607 134.902L161.681 127.58H163.207L165.363 133.236L167.365 127.58H168.793Z" fill="#1A1A1A"/>
<mask id="path-4-outside-1_1173_6" maskUnits="userSpaceOnUse" x="29.0002" y="0" width="184" height="44" fill="black">
<rect fill="white" x="29.0002" width="184" height="44"/>
<path d="M46.0797 18.024C50.7895 13.3725 58.3771 13.42 63.028 18.1315C64.3033 19.4227 65.2697 20.9901 65.8532 22.7135C65.9025 22.8615 65.9226 23.0178 65.9118 23.1734C65.9009 23.3292 65.8591 23.4811 65.7897 23.6207C65.7202 23.7604 65.6239 23.8848 65.5065 23.9869C65.389 24.089 65.2525 24.1666 65.1051 24.2154L65.0417 24.235C64.7452 24.3119 64.4305 24.2723 64.1618 24.1246C63.8932 23.9769 63.6903 23.7316 63.5944 23.4391C62.9462 21.5394 61.723 19.892 60.0973 18.7272C58.4716 17.5624 56.5245 16.9384 54.529 16.944C49.6932 16.944 45.6827 20.5175 45.0446 25.1451C45.0414 25.167 45.043 25.1892 45.0485 25.2106C45.0541 25.2322 45.0642 25.2525 45.0778 25.2701C45.0914 25.2877 45.1082 25.3023 45.1276 25.3131C45.1469 25.3238 45.1681 25.3314 45.1901 25.3336C45.1977 25.3344 45.2059 25.3344 45.2135 25.3336L62.5807 25.3395C64.3617 25.3395 65.8606 26.7421 65.904 28.5289C65.9125 28.9591 65.8371 29.387 65.6813 29.7877C65.5256 30.1884 65.2921 30.5538 64.9958 30.8639C64.6995 31.1739 64.3454 31.4221 63.9538 31.5943C63.5621 31.7666 63.1408 31.8596 62.7135 31.8678L45.8747 31.861C45.6509 31.8579 45.4337 31.9391 45.2653 32.0875C45.0971 32.2358 44.9893 32.4412 44.9626 32.6647C44.9519 32.7814 44.9642 32.8994 44.9987 33.0113C45.0332 33.1234 45.0892 33.2278 45.1637 33.318C45.2382 33.4081 45.3292 33.4831 45.4323 33.5377C45.5353 33.5923 45.6484 33.6255 45.7643 33.6363H53.3883C53.6965 33.6312 53.9955 33.7457 54.2223 33.9557C54.4491 34.1656 54.5873 34.4558 54.6081 34.7652C54.6203 35.0798 54.5076 35.3863 54.2956 35.6178C54.0833 35.8494 53.7881 35.9868 53.4752 35.9996H45.9098C44.1288 35.9996 42.6311 34.5973 42.5885 32.817C42.5801 32.3871 42.6555 31.9597 42.8112 31.5592C42.967 31.1585 43.1995 30.7922 43.4958 30.482C43.792 30.172 44.1462 29.9239 44.5377 29.7516C44.9294 29.5792 45.3516 29.4855 45.779 29.4772L62.6149 29.484C62.8387 29.4868 63.056 29.406 63.2243 29.2574C63.3924 29.1089 63.5006 28.9029 63.527 28.6793C63.5377 28.5626 63.5253 28.4446 63.4909 28.3326C63.4564 28.2206 63.4003 28.1162 63.3258 28.026C63.2513 27.9358 63.1594 27.8618 63.0563 27.8072C62.9532 27.7527 62.8403 27.7183 62.7243 27.7076L43.8522 27.7018C43.5169 27.7029 43.1946 27.5694 42.9567 27.3317C42.7188 27.0939 42.5849 26.7707 42.5836 26.4332C42.5777 24.8674 42.8835 23.3162 43.484 21.8717C44.0846 20.4272 44.9675 19.1189 46.0797 18.024Z"/>
<path d="M175.229 30.6012C175.32 30.6011 175.411 30.6189 175.496 30.6539C175.58 30.6891 175.657 30.7413 175.721 30.8063C175.786 30.8712 175.838 30.9479 175.873 31.0328C175.908 31.1178 175.926 31.2094 175.925 31.3014V31.3287C175.925 31.5141 175.852 31.6917 175.721 31.8229C175.591 31.9541 175.414 32.0279 175.229 32.0279C175.045 32.0278 174.868 31.954 174.738 31.8229C174.608 31.6917 174.534 31.5141 174.534 31.3287V31.3014C174.534 31.1158 174.608 30.9375 174.738 30.8063C174.868 30.6751 175.045 30.6013 175.229 30.6012Z"/>
<path d="M80.0876 18.1432C80.4128 18.1432 80.7247 18.273 80.9547 18.5045C81.1848 18.736 81.314 19.0501 81.3141 19.3776V22.2818C81.9285 22.2835 82.5943 22.2927 82.987 22.2984C83.148 22.301 83.3069 22.3357 83.4547 22.4C83.6026 22.4644 83.7361 22.558 83.8483 22.6744C83.9604 22.7908 84.0487 22.9281 84.1081 23.0787C84.1674 23.2296 84.1975 23.3911 84.195 23.5533C84.1924 23.7154 84.1574 23.8752 84.0934 24.024C84.0295 24.1728 83.9375 24.3077 83.8219 24.4205C83.7063 24.5333 83.5693 24.6225 83.4196 24.6822C83.2697 24.742 83.1091 24.7717 82.9479 24.7692C82.4048 24.7609 81.8111 24.7526 81.3122 24.7526V27.5524C81.3123 28.57 82.0532 29.3931 82.9645 29.3932L82.9674 29.3942C83.2926 29.3943 83.6046 29.5241 83.8346 29.7555C84.0648 29.9871 84.194 30.3019 84.194 30.6295C84.1939 30.957 84.0647 31.271 83.8346 31.5026C83.6046 31.7341 83.2927 31.8648 82.9674 31.8649C80.7031 31.8649 78.8602 29.9304 78.86 27.5533V19.3776C78.8601 19.0501 78.9894 18.736 79.2194 18.5045C79.4495 18.2729 79.7621 18.1432 80.0876 18.1432Z"/>
<path d="M107.686 21.6774C108.735 21.6785 109.74 22.098 110.482 22.8443C111.224 23.5906 111.641 24.6024 111.642 25.6578V30.6285C111.642 30.956 111.513 31.27 111.283 31.5016C111.053 31.7332 110.74 31.8639 110.415 31.8639C110.089 31.8638 109.778 31.7331 109.548 31.5016C109.317 31.27 109.188 30.9561 109.188 30.6285V25.6578C109.179 25.2632 109.017 24.8878 108.736 24.6119C108.455 24.336 108.078 24.1813 107.686 24.1813C107.294 24.1813 106.917 24.336 106.636 24.6119C106.356 24.8877 106.193 25.2633 106.184 25.6578V30.6285C106.184 30.9561 106.055 31.27 105.825 31.5016C105.595 31.7331 105.283 31.8638 104.958 31.8639H104.934C104.609 31.8639 104.296 31.7332 104.066 31.5016C103.836 31.27 103.707 30.956 103.707 30.6285V25.6578C103.697 25.2632 103.535 24.8878 103.255 24.6119C102.974 24.3361 102.597 24.1813 102.205 24.1813C101.813 24.1813 101.435 24.3361 101.155 24.6119C100.875 24.8877 100.713 25.2633 100.704 25.6578V30.6285C100.704 30.9559 100.574 31.27 100.344 31.5016C100.114 31.7332 99.8017 31.8639 99.4762 31.8639C99.1508 31.8639 98.8382 31.7332 98.6081 31.5016C98.3782 31.27 98.2487 30.9559 98.2487 30.6285V25.6578C98.2483 24.8773 98.4764 24.1138 98.904 23.4625C99.3317 22.8111 99.941 22.3004 100.655 21.9947C101.369 21.6892 102.156 21.6013 102.919 21.7428C103.681 21.8844 104.386 22.249 104.945 22.7906C105.68 22.0756 106.664 21.6769 107.686 21.6774Z"/>
<path d="M130.183 21.6774C131.232 21.6784 132.238 22.098 132.98 22.8443C133.722 23.5906 134.139 24.6025 134.14 25.6578C134.14 25.9854 134.011 26.3002 133.781 26.5318C133.551 26.7635 133.238 26.8932 132.913 26.8932C132.587 26.8932 132.275 26.7635 132.045 26.5318C131.815 26.3002 131.685 25.9853 131.685 25.6578C131.676 25.2633 131.514 24.8877 131.234 24.6119C130.953 24.3361 130.576 24.1813 130.184 24.1813C129.792 24.1813 129.415 24.3361 129.134 24.6119C128.854 24.8878 128.692 25.2632 128.682 25.6578V30.6285C128.682 30.956 128.553 31.27 128.323 31.5016C128.093 31.7331 127.781 31.8638 127.456 31.8639C127.13 31.8639 126.818 31.7332 126.588 31.5016C126.358 31.27 126.228 30.956 126.228 30.6285V25.6578C126.23 24.6025 126.647 23.5906 127.388 22.8443C128.13 22.0982 129.135 21.6788 130.183 21.6774Z"/>
<path d="M140.203 21.6774C141.252 21.6784 142.257 22.098 142.999 22.8443C143.74 23.5906 144.157 24.6023 144.159 25.6578C144.159 25.9854 144.03 26.3002 143.799 26.5318C143.569 26.7633 143.258 26.8931 142.932 26.8932C142.607 26.8932 142.294 26.7635 142.064 26.5318C141.834 26.3002 141.705 25.9854 141.705 25.6578C141.695 25.2632 141.533 24.8877 141.253 24.6119C140.972 24.3363 140.596 24.1814 140.204 24.1813C139.812 24.1813 139.435 24.3362 139.154 24.6119C138.873 24.8878 138.711 25.2632 138.702 25.6578V30.6285C138.702 30.956 138.572 31.27 138.342 31.5016C138.112 31.7332 137.8 31.8639 137.474 31.8639C137.149 31.8638 136.837 31.7331 136.607 31.5016C136.377 31.27 136.248 30.9561 136.248 30.6285V25.6578C136.249 24.6026 136.666 23.5906 137.407 22.8443C138.148 22.098 139.154 21.6787 140.203 21.6774Z"/>
<path d="M191.431 22.8707C191.593 22.8725 191.748 22.939 191.862 23.0553C191.976 23.1716 192.04 23.3286 192.039 23.4918L191.998 31.2496C191.997 31.4127 191.931 31.5692 191.816 31.6842C191.701 31.799 191.545 31.8639 191.383 31.8639C191.303 31.8634 191.223 31.8464 191.149 31.8151C191.075 31.7836 191.007 31.7379 190.951 31.6803C190.894 31.6226 190.849 31.5542 190.819 31.4791C190.789 31.4041 190.773 31.3238 190.773 31.2428L190.814 23.485C190.815 23.4039 190.831 23.3234 190.862 23.2486C190.893 23.174 190.939 23.1064 190.997 23.0494C191.054 22.9925 191.121 22.9472 191.196 22.9166C191.271 22.886 191.351 22.8703 191.431 22.8707Z"/>
<path fill-rule="evenodd" clip-rule="evenodd" d="M179.116 17.1442C179.279 17.1442 179.434 17.2091 179.549 17.3248C179.664 17.4406 179.729 17.5976 179.729 17.7613V23.5631C180.196 23.0226 180.772 22.5896 181.42 22.2926C182.067 21.9956 182.77 21.8414 183.481 21.8414C184.466 21.8414 185.428 22.1356 186.247 22.6861C187.066 23.2368 187.704 24.0195 188.081 24.9352C188.458 25.8509 188.556 26.8586 188.364 27.8307C188.172 28.8026 187.698 29.6953 187.002 30.3961C186.305 31.0969 185.418 31.5748 184.453 31.7682C183.487 31.9615 182.486 31.8622 181.576 31.483C180.666 31.1038 179.889 30.4613 179.341 29.6373C178.794 28.8133 178.502 27.8442 178.502 26.8531V17.7613C178.502 17.5977 178.566 17.4406 178.681 17.3248C178.796 17.209 178.953 17.1442 179.116 17.1442ZM184.918 23.3639C184.232 23.078 183.477 23.0025 182.75 23.1481C182.022 23.2936 181.354 23.6534 180.829 24.1813C180.304 24.7093 179.946 25.3824 179.801 26.1149C179.657 26.8472 179.731 27.6066 180.014 28.2965C180.298 28.9865 180.779 29.5768 181.396 29.9918C182.013 30.4068 182.739 30.6285 183.481 30.6285C184.476 30.6274 185.429 30.2288 186.132 29.5211C186.836 28.8134 187.232 27.854 187.233 26.8531C187.233 26.1063 187.013 25.3756 186.601 24.7545C186.189 24.1335 185.603 23.6498 184.918 23.3639Z"/>
<path fill-rule="evenodd" clip-rule="evenodd" d="M199.294 21.8414C200.614 21.8428 201.879 22.3717 202.812 23.3111C203.746 24.2507 204.271 25.5245 204.272 26.8531C204.272 27.8442 203.98 28.8133 203.433 29.6373C202.886 30.4613 202.109 31.1037 201.199 31.483C200.289 31.8623 199.288 31.9615 198.322 31.7682C197.356 31.5748 196.468 31.097 195.772 30.3961C195.076 29.6953 194.602 28.8026 194.41 27.8307C194.218 26.8586 194.316 25.8508 194.693 24.9352C195.07 24.0195 195.708 23.2368 196.527 22.6861C197.346 22.1355 198.309 21.8414 199.294 21.8414ZM200.729 23.3639C200.044 23.0781 199.29 23.0026 198.562 23.1481C197.834 23.2937 197.165 23.6532 196.64 24.1813C196.116 24.7093 195.759 25.3824 195.614 26.1149C195.469 26.8474 195.543 27.6074 195.827 28.2975C196.111 28.9874 196.592 29.5769 197.209 29.9918C197.826 30.4068 198.552 30.6285 199.294 30.6285C200.288 30.6276 201.242 30.2297 201.945 29.5221C202.648 28.8143 203.043 27.8542 203.045 26.8531C203.045 26.1062 202.825 25.3756 202.413 24.7545C202.001 24.1336 201.415 23.6498 200.729 23.3639Z"/>
<path fill-rule="evenodd" clip-rule="evenodd" d="M90.8834 21.7359C92.2174 21.7375 93.4969 22.271 94.4401 23.2203C95.3832 24.1696 95.9131 25.457 95.9147 26.7994C95.9147 27.801 95.6198 28.7801 95.067 29.6129C94.5142 30.4456 93.7285 31.0948 92.8092 31.4781C91.8899 31.8614 90.878 31.9616 89.902 31.7662C88.9261 31.5708 88.0294 31.0887 87.3258 30.3805C86.6223 29.6723 86.143 28.77 85.9489 27.7877C85.7548 26.8055 85.8543 25.7872 86.235 24.8619C86.6158 23.9366 87.2612 23.1459 88.0885 22.5895C88.9159 22.0331 89.8884 21.736 90.8834 21.7359ZM91.8698 24.4029C91.3989 24.2067 90.8803 24.1554 90.3805 24.2555C89.8808 24.3556 89.4215 24.6028 89.0612 24.9654C88.7008 25.3282 88.4555 25.7905 88.3561 26.2936C88.2567 26.7967 88.3075 27.3186 88.5026 27.7926C88.6976 28.2665 89.0281 28.6717 89.4518 28.9567C89.8755 29.2416 90.3739 29.3931 90.8834 29.3932C91.5665 29.3925 92.2216 29.1194 92.7047 28.6334C93.1879 28.1471 93.4599 27.4871 93.4606 26.7994C93.4606 26.2865 93.3091 25.7855 93.026 25.359C92.7429 24.9324 92.3407 24.5993 91.8698 24.4029Z"/>
<path fill-rule="evenodd" clip-rule="evenodd" d="M118.944 21.7359C120.278 21.7375 121.557 22.271 122.501 23.2203C123.444 24.1696 123.975 25.4569 123.976 26.7994C123.976 27.801 123.68 28.7801 123.128 29.6129C122.575 30.4457 121.789 31.0948 120.87 31.4781C119.95 31.8614 118.939 31.9616 117.963 31.7662C116.987 31.5708 116.09 31.0886 115.386 30.3805C114.683 29.6723 114.204 28.7699 114.009 27.7877C113.815 26.8054 113.916 25.7873 114.297 24.8619C114.677 23.9367 115.322 23.1459 116.149 22.5895C116.976 22.0331 117.949 21.736 118.944 21.7359ZM119.93 24.4029C119.46 24.2068 118.942 24.1555 118.442 24.2555C117.942 24.3555 117.483 24.6029 117.123 24.9654C116.762 25.3282 116.516 25.7904 116.417 26.2936C116.317 26.7967 116.368 27.3186 116.563 27.7926C116.758 28.2665 117.089 28.6717 117.512 28.9567C117.936 29.2416 118.434 29.3931 118.944 29.3932C119.627 29.3925 120.283 29.1197 120.766 28.6334C121.249 28.1471 121.521 27.4871 121.521 26.7994C121.521 26.2867 121.37 25.7854 121.088 25.359C120.804 24.9324 120.401 24.5993 119.93 24.4029Z"/>
<path fill-rule="evenodd" clip-rule="evenodd" d="M151.259 21.7359C152.593 21.7375 153.872 22.2711 154.815 23.2203C155.758 24.1696 156.289 25.4569 156.291 26.7994C156.291 27.8009 155.996 28.7802 155.443 29.6129C154.89 30.4456 154.104 31.0948 153.185 31.4781C152.266 31.8614 151.254 31.9616 150.278 31.7662C149.302 31.5708 148.405 31.0887 147.702 30.3805C146.998 29.6723 146.519 28.77 146.325 27.7877C146.131 26.8054 146.23 25.7872 146.611 24.8619C146.992 23.9366 147.637 23.1459 148.465 22.5895C149.292 22.033 150.264 21.7359 151.259 21.7359ZM152.246 24.4029C151.775 24.2066 151.256 24.1554 150.757 24.2555C150.257 24.3556 149.798 24.6027 149.437 24.9654C149.077 25.3282 148.832 25.7905 148.732 26.2936C148.633 26.7967 148.684 27.3186 148.879 27.7926C149.074 28.2664 149.404 28.6717 149.828 28.9567C150.252 29.2416 150.75 29.3932 151.259 29.3932C151.943 29.3925 152.598 29.1195 153.081 28.6334C153.564 28.1471 153.836 27.4871 153.837 26.7994C153.837 26.2866 153.685 25.7854 153.402 25.359C153.119 24.9325 152.717 24.5993 152.246 24.4029Z"/>
<path d="M165.252 21.6774C165.577 21.6774 165.889 21.8072 166.119 22.0387C166.349 22.2702 166.478 22.5843 166.478 22.9117V27.8824C166.487 28.2771 166.65 28.6524 166.93 28.9283C167.211 29.2042 167.588 29.359 167.98 29.359C168.372 29.359 168.749 29.2043 169.03 28.9283C169.31 28.6524 169.473 28.2771 169.482 27.8824V22.9117C169.482 22.5843 169.611 22.2702 169.841 22.0387C170.072 21.8072 170.383 21.6774 170.709 21.6774C171.034 21.6774 171.347 21.807 171.577 22.0387C171.807 22.2702 171.936 22.5843 171.936 22.9117V27.8824C171.937 28.6634 171.709 29.4271 171.281 30.0787C170.853 30.7303 170.244 31.2408 169.53 31.5465C168.816 31.8521 168.028 31.9402 167.265 31.7985C166.502 31.6567 165.797 31.2917 165.239 30.7496C164.68 31.2914 163.975 31.6559 163.213 31.7975C162.45 31.939 161.663 31.8511 160.949 31.5455C160.235 31.2399 159.626 30.7301 159.198 30.0787C158.77 29.4273 158.542 28.6633 158.543 27.8824V22.9117C158.543 22.5844 158.672 22.2702 158.902 22.0387C159.132 21.8071 159.445 21.6774 159.77 21.6774C160.096 21.6774 160.408 21.807 160.638 22.0387C160.868 22.2702 160.998 22.5844 160.998 22.9117V27.8824C161.007 28.277 161.168 28.6525 161.449 28.9283C161.729 29.2042 162.106 29.3589 162.499 29.359C162.891 29.359 163.268 29.2043 163.548 28.9283C163.829 28.6524 163.991 28.2771 164.001 27.8824V22.9117C164.001 22.5843 164.13 22.2702 164.36 22.0387C164.59 21.8071 164.903 21.6774 165.228 21.6774H165.252Z"/>
<path d="M38.0915 19.9938C38.2459 19.982 38.4013 20.0008 38.5485 20.0494L41.8522 21.1197C42.1195 21.2063 42.3475 21.386 42.4948 21.6266C42.6421 21.8674 42.6986 22.1539 42.6549 22.4332C42.6112 22.7124 42.47 22.9665 42.2565 23.15C42.0429 23.3337 41.7708 23.4345 41.4899 23.4342L41.4782 23.4332C41.3554 23.4324 41.2327 23.4125 41.1159 23.3746L37.8122 22.3053C37.5151 22.2071 37.2688 21.9943 37.1276 21.7135C37.0578 21.5745 37.0153 21.4225 37.0036 21.2672C36.9919 21.1119 37.011 20.9553 37.0592 20.8072C37.1569 20.508 37.3689 20.2599 37.6481 20.1178C37.7863 20.0475 37.937 20.0055 38.0915 19.9938Z"/>
<path d="M71.1344 19.9723C71.2907 19.9784 71.4448 20.0153 71.5866 20.0817C71.7283 20.148 71.8553 20.2427 71.9606 20.359C72.0659 20.4752 72.1473 20.6113 72.1999 20.7594C72.2524 20.9076 72.2746 21.0652 72.2663 21.2223C72.2579 21.3794 72.2191 21.5337 72.151 21.6754C72.083 21.8171 71.9879 21.9442 71.8708 22.0484C71.7536 22.1527 71.6165 22.2321 71.4684 22.2828C71.4488 22.2902 71.4292 22.2966 71.4088 22.3024L68.1061 23.3736C67.9591 23.4216 67.8041 23.4396 67.6501 23.4274C67.4959 23.415 67.3454 23.3721 67.2077 23.3014C67.0699 23.2306 66.9467 23.1328 66.8463 23.0143C66.7461 22.8959 66.6694 22.7589 66.6217 22.6109C66.574 22.4628 66.5558 22.3062 66.568 22.151C66.5803 21.9958 66.6237 21.8443 66.694 21.7057C66.7643 21.5671 66.8605 21.4434 66.9782 21.3424C67.0959 21.2414 67.2324 21.1648 67.3795 21.1168L70.6754 20.0465C70.8219 19.9914 70.9782 19.9662 71.1344 19.9723Z"/>
<path d="M191.387 20.3873C191.478 20.3872 191.569 20.4051 191.653 20.4401C191.737 20.4752 191.814 20.5274 191.879 20.5924C191.943 20.6573 191.995 20.7341 192.03 20.819C192.065 20.9039 192.083 20.9956 192.083 21.0875V21.1149C192.083 21.3003 192.009 21.4778 191.879 21.609C191.748 21.7402 191.572 21.814 191.387 21.8141C191.203 21.8141 191.026 21.7403 190.895 21.609C190.765 21.4778 190.692 21.3002 190.692 21.1149V21.0875C190.692 20.9019 190.765 20.7236 190.895 20.5924C191.026 20.4611 191.203 20.3873 191.387 20.3873Z"/>
<path d="M67.5045 13.7399C67.8187 13.7466 68.118 13.8788 68.3366 14.1061C68.444 14.2182 68.5282 14.3507 68.5846 14.4957C68.6411 14.6409 68.669 14.7959 68.6657 14.9518C68.6623 15.1078 68.6278 15.2622 68.5651 15.4049C68.5025 15.5475 68.4127 15.6764 68.3004 15.7838C68.2825 15.8002 68.2645 15.817 68.2458 15.8326L65.6637 18.1568C65.4461 18.3531 65.1639 18.4617 64.8717 18.4615C64.6327 18.4631 64.3985 18.3918 64.2008 18.2565C64.0033 18.1211 63.8515 17.928 63.7653 17.7037C63.6791 17.4793 63.6627 17.2336 63.7184 16.9996C63.7742 16.7657 63.8989 16.5538 64.0768 16.3932L66.6579 14.069C66.8859 13.8513 67.1904 13.7331 67.5045 13.7399Z"/>
<path d="M41.6442 13.7447C41.9571 13.7185 42.2677 13.8173 42.5085 14.0201L42.5631 14.0699L45.1442 16.3932C45.2597 16.497 45.3536 16.6228 45.4206 16.7633C45.4875 16.9039 45.5267 17.0568 45.5348 17.2125C45.5429 17.3683 45.5195 17.5245 45.4674 17.6715C45.4153 17.8185 45.3345 17.9535 45.2301 18.069C45.019 18.3026 44.7251 18.4432 44.4118 18.4596C44.0983 18.4759 43.7904 18.3674 43.5563 18.1568L40.9762 15.8317C40.8577 15.7317 40.7594 15.6094 40.6881 15.4713C40.6168 15.333 40.5742 15.1813 40.5612 15.026C40.5482 14.8707 40.5656 14.7144 40.6129 14.566C40.6603 14.4177 40.7363 14.2804 40.8366 14.1617C41.0406 13.9211 41.331 13.7711 41.6442 13.7447Z"/>
<path d="M47.1002 9.64122C47.3875 9.51304 47.7139 9.50499 48.0075 9.61779C48.3011 9.73071 48.5394 9.95629 48.6686 10.2447L50.0807 13.4166C50.2079 13.7063 50.2158 14.0354 50.1022 14.3307C49.9886 14.626 49.763 14.8638 49.4752 14.9918C49.1874 15.1198 48.8605 15.1276 48.567 15.0133C48.2739 14.899 48.0379 14.6719 47.9108 14.3824L46.4977 11.2057C46.4349 11.0634 46.4009 10.9101 46.3971 10.7545C46.3934 10.5986 46.4202 10.4429 46.4762 10.2975C46.5323 10.1522 46.6161 10.0194 46.7233 9.90685C46.8304 9.79432 46.9584 9.70375 47.1002 9.64122Z"/>
<path d="M61.2126 9.61974C61.5061 9.50685 61.8324 9.51604 62.1198 9.64415C62.2616 9.70677 62.3906 9.79717 62.4977 9.90978C62.6047 10.0223 62.6888 10.1552 62.7448 10.3004C62.8007 10.4457 62.8275 10.6007 62.8239 10.7565C62.8202 10.9123 62.7861 11.0661 62.7233 11.2086L61.3112 14.3824C61.2172 14.5925 61.0641 14.7703 60.8717 14.8951C60.6793 15.02 60.4552 15.0871 60.2262 15.0865V15.0885C60.0288 15.0906 59.834 15.0424 59.6598 14.9488C59.4857 14.8553 59.3373 14.7195 59.2292 14.5533C59.121 14.3871 59.0562 14.1958 59.0407 13.9977C59.0252 13.7997 59.0595 13.6008 59.1403 13.4195L60.5524 10.2467C60.6816 9.95833 60.919 9.7327 61.2126 9.61974Z"/>
<path d="M54.5749 8.0006C54.8894 7.99057 55.195 8.10706 55.4245 8.32384C55.654 8.54063 55.7885 8.84021 55.7985 9.15685V12.7057C55.7982 12.8618 55.7673 13.0166 55.7077 13.1608C55.648 13.3048 55.5607 13.4354 55.4508 13.5455C55.3409 13.6557 55.2105 13.7439 55.067 13.8033C54.9237 13.8627 54.7699 13.8925 54.6149 13.8922C54.4594 13.8931 54.3048 13.8635 54.1608 13.8043C54.017 13.7451 53.8864 13.6576 53.776 13.5475C53.6656 13.4373 53.5782 13.3061 53.5182 13.1617C53.4582 13.0173 53.4268 12.8622 53.4264 12.7057V9.23302C53.4164 8.91649 53.5315 8.60854 53.7467 8.37755C53.9621 8.14653 54.2602 8.01064 54.5749 8.0006Z"/>
</mask>
<path d="M46.0797 18.024C50.7895 13.3725 58.3771 13.42 63.028 18.1315C64.3033 19.4227 65.2697 20.9901 65.8532 22.7135C65.9025 22.8615 65.9226 23.0178 65.9118 23.1734C65.9009 23.3292 65.8591 23.4811 65.7897 23.6207C65.7202 23.7604 65.6239 23.8848 65.5065 23.9869C65.389 24.089 65.2525 24.1666 65.1051 24.2154L65.0417 24.235C64.7452 24.3119 64.4305 24.2723 64.1618 24.1246C63.8932 23.9769 63.6903 23.7316 63.5944 23.4391C62.9462 21.5394 61.723 19.892 60.0973 18.7272C58.4716 17.5624 56.5245 16.9384 54.529 16.944C49.6932 16.944 45.6827 20.5175 45.0446 25.1451C45.0414 25.167 45.043 25.1892 45.0485 25.2106C45.0541 25.2322 45.0642 25.2525 45.0778 25.2701C45.0914 25.2877 45.1082 25.3023 45.1276 25.3131C45.1469 25.3238 45.1681 25.3314 45.1901 25.3336C45.1977 25.3344 45.2059 25.3344 45.2135 25.3336L62.5807 25.3395C64.3617 25.3395 65.8606 26.7421 65.904 28.5289C65.9125 28.9591 65.8371 29.387 65.6813 29.7877C65.5256 30.1884 65.2921 30.5538 64.9958 30.8639C64.6995 31.1739 64.3454 31.4221 63.9538 31.5943C63.5621 31.7666 63.1408 31.8596 62.7135 31.8678L45.8747 31.861C45.6509 31.8579 45.4337 31.9391 45.2653 32.0875C45.0971 32.2358 44.9893 32.4412 44.9626 32.6647C44.9519 32.7814 44.9642 32.8994 44.9987 33.0113C45.0332 33.1234 45.0892 33.2278 45.1637 33.318C45.2382 33.4081 45.3292 33.4831 45.4323 33.5377C45.5353 33.5923 45.6484 33.6255 45.7643 33.6363H53.3883C53.6965 33.6312 53.9955 33.7457 54.2223 33.9557C54.4491 34.1656 54.5873 34.4558 54.6081 34.7652C54.6203 35.0798 54.5076 35.3863 54.2956 35.6178C54.0833 35.8494 53.7881 35.9868 53.4752 35.9996H45.9098C44.1288 35.9996 42.6311 34.5973 42.5885 32.817C42.5801 32.3871 42.6555 31.9597 42.8112 31.5592C42.967 31.1585 43.1995 30.7922 43.4958 30.482C43.792 30.172 44.1462 29.9239 44.5377 29.7516C44.9294 29.5792 45.3516 29.4855 45.779 29.4772L62.6149 29.484C62.8387 29.4868 63.056 29.406 63.2243 29.2574C63.3924 29.1089 63.5006 28.9029 63.527 28.6793C63.5377 28.5626 63.5253 28.4446 63.4909 28.3326C63.4564 28.2206 63.4003 28.1162 63.3258 28.026C63.2513 27.9358 63.1594 27.8618 63.0563 27.8072C62.9532 27.7527 62.8403 27.7183 62.7243 27.7076L43.8522 27.7018C43.5169 27.7029 43.1946 27.5694 42.9567 27.3317C42.7188 27.0939 42.5849 26.7707 42.5836 26.4332C42.5777 24.8674 42.8835 23.3162 43.484 21.8717C44.0846 20.4272 44.9675 19.1189 46.0797 18.024Z" fill="#1A1A1A"/>
<path d="M175.229 30.6012C175.32 30.6011 175.411 30.6189 175.496 30.6539C175.58 30.6891 175.657 30.7413 175.721 30.8063C175.786 30.8712 175.838 30.9479 175.873 31.0328C175.908 31.1178 175.926 31.2094 175.925 31.3014V31.3287C175.925 31.5141 175.852 31.6917 175.721 31.8229C175.591 31.9541 175.414 32.0279 175.229 32.0279C175.045 32.0278 174.868 31.954 174.738 31.8229C174.608 31.6917 174.534 31.5141 174.534 31.3287V31.3014C174.534 31.1158 174.608 30.9375 174.738 30.8063C174.868 30.6751 175.045 30.6013 175.229 30.6012Z" fill="#1A1A1A"/>
<path d="M80.0876 18.1432C80.4128 18.1432 80.7247 18.273 80.9547 18.5045C81.1848 18.736 81.314 19.0501 81.3141 19.3776V22.2818C81.9285 22.2835 82.5943 22.2927 82.987 22.2984C83.148 22.301 83.3069 22.3357 83.4547 22.4C83.6026 22.4644 83.7361 22.558 83.8483 22.6744C83.9604 22.7908 84.0487 22.9281 84.1081 23.0787C84.1674 23.2296 84.1975 23.3911 84.195 23.5533C84.1924 23.7154 84.1574 23.8752 84.0934 24.024C84.0295 24.1728 83.9375 24.3077 83.8219 24.4205C83.7063 24.5333 83.5693 24.6225 83.4196 24.6822C83.2697 24.742 83.1091 24.7717 82.9479 24.7692C82.4048 24.7609 81.8111 24.7526 81.3122 24.7526V27.5524C81.3123 28.57 82.0532 29.3931 82.9645 29.3932L82.9674 29.3942C83.2926 29.3943 83.6046 29.5241 83.8346 29.7555C84.0648 29.9871 84.194 30.3019 84.194 30.6295C84.1939 30.957 84.0647 31.271 83.8346 31.5026C83.6046 31.7341 83.2927 31.8648 82.9674 31.8649C80.7031 31.8649 78.8602 29.9304 78.86 27.5533V19.3776C78.8601 19.0501 78.9894 18.736 79.2194 18.5045C79.4495 18.2729 79.7621 18.1432 80.0876 18.1432Z" fill="#1A1A1A"/>
<path d="M107.686 21.6774C108.735 21.6785 109.74 22.098 110.482 22.8443C111.224 23.5906 111.641 24.6024 111.642 25.6578V30.6285C111.642 30.956 111.513 31.27 111.283 31.5016C111.053 31.7332 110.74 31.8639 110.415 31.8639C110.089 31.8638 109.778 31.7331 109.548 31.5016C109.317 31.27 109.188 30.9561 109.188 30.6285V25.6578C109.179 25.2632 109.017 24.8878 108.736 24.6119C108.455 24.336 108.078 24.1813 107.686 24.1813C107.294 24.1813 106.917 24.336 106.636 24.6119C106.356 24.8877 106.193 25.2633 106.184 25.6578V30.6285C106.184 30.9561 106.055 31.27 105.825 31.5016C105.595 31.7331 105.283 31.8638 104.958 31.8639H104.934C104.609 31.8639 104.296 31.7332 104.066 31.5016C103.836 31.27 103.707 30.956 103.707 30.6285V25.6578C103.697 25.2632 103.535 24.8878 103.255 24.6119C102.974 24.3361 102.597 24.1813 102.205 24.1813C101.813 24.1813 101.435 24.3361 101.155 24.6119C100.875 24.8877 100.713 25.2633 100.704 25.6578V30.6285C100.704 30.9559 100.574 31.27 100.344 31.5016C100.114 31.7332 99.8017 31.8639 99.4762 31.8639C99.1508 31.8639 98.8382 31.7332 98.6081 31.5016C98.3782 31.27 98.2487 30.9559 98.2487 30.6285V25.6578C98.2483 24.8773 98.4764 24.1138 98.904 23.4625C99.3317 22.8111 99.941 22.3004 100.655 21.9947C101.369 21.6892 102.156 21.6013 102.919 21.7428C103.681 21.8844 104.386 22.249 104.945 22.7906C105.68 22.0756 106.664 21.6769 107.686 21.6774Z" fill="#1A1A1A"/>
<path d="M130.183 21.6774C131.232 21.6784 132.238 22.098 132.98 22.8443C133.722 23.5906 134.139 24.6025 134.14 25.6578C134.14 25.9854 134.011 26.3002 133.781 26.5318C133.551 26.7635 133.238 26.8932 132.913 26.8932C132.587 26.8932 132.275 26.7635 132.045 26.5318C131.815 26.3002 131.685 25.9853 131.685 25.6578C131.676 25.2633 131.514 24.8877 131.234 24.6119C130.953 24.3361 130.576 24.1813 130.184 24.1813C129.792 24.1813 129.415 24.3361 129.134 24.6119C128.854 24.8878 128.692 25.2632 128.682 25.6578V30.6285C128.682 30.956 128.553 31.27 128.323 31.5016C128.093 31.7331 127.781 31.8638 127.456 31.8639C127.13 31.8639 126.818 31.7332 126.588 31.5016C126.358 31.27 126.228 30.956 126.228 30.6285V25.6578C126.23 24.6025 126.647 23.5906 127.388 22.8443C128.13 22.0982 129.135 21.6788 130.183 21.6774Z" fill="#1A1A1A"/>
<path d="M140.203 21.6774C141.252 21.6784 142.257 22.098 142.999 22.8443C143.74 23.5906 144.157 24.6023 144.159 25.6578C144.159 25.9854 144.03 26.3002 143.799 26.5318C143.569 26.7633 143.258 26.8931 142.932 26.8932C142.607 26.8932 142.294 26.7635 142.064 26.5318C141.834 26.3002 141.705 25.9854 141.705 25.6578C141.695 25.2632 141.533 24.8877 141.253 24.6119C140.972 24.3363 140.596 24.1814 140.204 24.1813C139.812 24.1813 139.435 24.3362 139.154 24.6119C138.873 24.8878 138.711 25.2632 138.702 25.6578V30.6285C138.702 30.956 138.572 31.27 138.342 31.5016C138.112 31.7332 137.8 31.8639 137.474 31.8639C137.149 31.8638 136.837 31.7331 136.607 31.5016C136.377 31.27 136.248 30.9561 136.248 30.6285V25.6578C136.249 24.6026 136.666 23.5906 137.407 22.8443C138.148 22.098 139.154 21.6787 140.203 21.6774Z" fill="#1A1A1A"/>
<path d="M191.431 22.8707C191.593 22.8725 191.748 22.939 191.862 23.0553C191.976 23.1716 192.04 23.3286 192.039 23.4918L191.998 31.2496C191.997 31.4127 191.931 31.5692 191.816 31.6842C191.701 31.799 191.545 31.8639 191.383 31.8639C191.303 31.8634 191.223 31.8464 191.149 31.8151C191.075 31.7836 191.007 31.7379 190.951 31.6803C190.894 31.6226 190.849 31.5542 190.819 31.4791C190.789 31.4041 190.773 31.3238 190.773 31.2428L190.814 23.485C190.815 23.4039 190.831 23.3234 190.862 23.2486C190.893 23.174 190.939 23.1064 190.997 23.0494C191.054 22.9925 191.121 22.9472 191.196 22.9166C191.271 22.886 191.351 22.8703 191.431 22.8707Z" fill="#1A1A1A"/>
<path fill-rule="evenodd" clip-rule="evenodd" d="M179.116 17.1442C179.279 17.1442 179.434 17.2091 179.549 17.3248C179.664 17.4406 179.729 17.5976 179.729 17.7613V23.5631C180.196 23.0226 180.772 22.5896 181.42 22.2926C182.067 21.9956 182.77 21.8414 183.481 21.8414C184.466 21.8414 185.428 22.1356 186.247 22.6861C187.066 23.2368 187.704 24.0195 188.081 24.9352C188.458 25.8509 188.556 26.8586 188.364 27.8307C188.172 28.8026 187.698 29.6953 187.002 30.3961C186.305 31.0969 185.418 31.5748 184.453 31.7682C183.487 31.9615 182.486 31.8622 181.576 31.483C180.666 31.1038 179.889 30.4613 179.341 29.6373C178.794 28.8133 178.502 27.8442 178.502 26.8531V17.7613C178.502 17.5977 178.566 17.4406 178.681 17.3248C178.796 17.209 178.953 17.1442 179.116 17.1442ZM184.918 23.3639C184.232 23.078 183.477 23.0025 182.75 23.1481C182.022 23.2936 181.354 23.6534 180.829 24.1813C180.304 24.7093 179.946 25.3824 179.801 26.1149C179.657 26.8472 179.731 27.6066 180.014 28.2965C180.298 28.9865 180.779 29.5768 181.396 29.9918C182.013 30.4068 182.739 30.6285 183.481 30.6285C184.476 30.6274 185.429 30.2288 186.132 29.5211C186.836 28.8134 187.232 27.854 187.233 26.8531C187.233 26.1063 187.013 25.3756 186.601 24.7545C186.189 24.1335 185.603 23.6498 184.918 23.3639Z" fill="#1A1A1A"/>
<path fill-rule="evenodd" clip-rule="evenodd" d="M199.294 21.8414C200.614 21.8428 201.879 22.3717 202.812 23.3111C203.746 24.2507 204.271 25.5245 204.272 26.8531C204.272 27.8442 203.98 28.8133 203.433 29.6373C202.886 30.4613 202.109 31.1037 201.199 31.483C200.289 31.8623 199.288 31.9615 198.322 31.7682C197.356 31.5748 196.468 31.097 195.772 30.3961C195.076 29.6953 194.602 28.8026 194.41 27.8307C194.218 26.8586 194.316 25.8508 194.693 24.9352C195.07 24.0195 195.708 23.2368 196.527 22.6861C197.346 22.1355 198.309 21.8414 199.294 21.8414ZM200.729 23.3639C200.044 23.0781 199.29 23.0026 198.562 23.1481C197.834 23.2937 197.165 23.6532 196.64 24.1813C196.116 24.7093 195.759 25.3824 195.614 26.1149C195.469 26.8474 195.543 27.6074 195.827 28.2975C196.111 28.9874 196.592 29.5769 197.209 29.9918C197.826 30.4068 198.552 30.6285 199.294 30.6285C200.288 30.6276 201.242 30.2297 201.945 29.5221C202.648 28.8143 203.043 27.8542 203.045 26.8531C203.045 26.1062 202.825 25.3756 202.413 24.7545C202.001 24.1336 201.415 23.6498 200.729 23.3639Z" fill="#1A1A1A"/>
<path fill-rule="evenodd" clip-rule="evenodd" d="M90.8834 21.7359C92.2174 21.7375 93.4969 22.271 94.4401 23.2203C95.3832 24.1696 95.9131 25.457 95.9147 26.7994C95.9147 27.801 95.6198 28.7801 95.067 29.6129C94.5142 30.4456 93.7285 31.0948 92.8092 31.4781C91.8899 31.8614 90.878 31.9616 89.902 31.7662C88.9261 31.5708 88.0294 31.0887 87.3258 30.3805C86.6223 29.6723 86.143 28.77 85.9489 27.7877C85.7548 26.8055 85.8543 25.7872 86.235 24.8619C86.6158 23.9366 87.2612 23.1459 88.0885 22.5895C88.9159 22.0331 89.8884 21.736 90.8834 21.7359ZM91.8698 24.4029C91.3989 24.2067 90.8803 24.1554 90.3805 24.2555C89.8808 24.3556 89.4215 24.6028 89.0612 24.9654C88.7008 25.3282 88.4555 25.7905 88.3561 26.2936C88.2567 26.7967 88.3075 27.3186 88.5026 27.7926C88.6976 28.2665 89.0281 28.6717 89.4518 28.9567C89.8755 29.2416 90.3739 29.3931 90.8834 29.3932C91.5665 29.3925 92.2216 29.1194 92.7047 28.6334C93.1879 28.1471 93.4599 27.4871 93.4606 26.7994C93.4606 26.2865 93.3091 25.7855 93.026 25.359C92.7429 24.9324 92.3407 24.5993 91.8698 24.4029Z" fill="#1A1A1A"/>
<path fill-rule="evenodd" clip-rule="evenodd" d="M118.944 21.7359C120.278 21.7375 121.557 22.271 122.501 23.2203C123.444 24.1696 123.975 25.4569 123.976 26.7994C123.976 27.801 123.68 28.7801 123.128 29.6129C122.575 30.4457 121.789 31.0948 120.87 31.4781C119.95 31.8614 118.939 31.9616 117.963 31.7662C116.987 31.5708 116.09 31.0886 115.386 30.3805C114.683 29.6723 114.204 28.7699 114.009 27.7877C113.815 26.8054 113.916 25.7873 114.297 24.8619C114.677 23.9367 115.322 23.1459 116.149 22.5895C116.976 22.0331 117.949 21.736 118.944 21.7359ZM119.93 24.4029C119.46 24.2068 118.942 24.1555 118.442 24.2555C117.942 24.3555 117.483 24.6029 117.123 24.9654C116.762 25.3282 116.516 25.7904 116.417 26.2936C116.317 26.7967 116.368 27.3186 116.563 27.7926C116.758 28.2665 117.089 28.6717 117.512 28.9567C117.936 29.2416 118.434 29.3931 118.944 29.3932C119.627 29.3925 120.283 29.1197 120.766 28.6334C121.249 28.1471 121.521 27.4871 121.521 26.7994C121.521 26.2867 121.37 25.7854 121.088 25.359C120.804 24.9324 120.401 24.5993 119.93 24.4029Z" fill="#1A1A1A"/>
<path fill-rule="evenodd" clip-rule="evenodd" d="M151.259 21.7359C152.593 21.7375 153.872 22.2711 154.815 23.2203C155.758 24.1696 156.289 25.4569 156.291 26.7994C156.291 27.8009 155.996 28.7802 155.443 29.6129C154.89 30.4456 154.104 31.0948 153.185 31.4781C152.266 31.8614 151.254 31.9616 150.278 31.7662C149.302 31.5708 148.405 31.0887 147.702 30.3805C146.998 29.6723 146.519 28.77 146.325 27.7877C146.131 26.8054 146.23 25.7872 146.611 24.8619C146.992 23.9366 147.637 23.1459 148.465 22.5895C149.292 22.033 150.264 21.7359 151.259 21.7359ZM152.246 24.4029C151.775 24.2066 151.256 24.1554 150.757 24.2555C150.257 24.3556 149.798 24.6027 149.437 24.9654C149.077 25.3282 148.832 25.7905 148.732 26.2936C148.633 26.7967 148.684 27.3186 148.879 27.7926C149.074 28.2664 149.404 28.6717 149.828 28.9567C150.252 29.2416 150.75 29.3932 151.259 29.3932C151.943 29.3925 152.598 29.1195 153.081 28.6334C153.564 28.1471 153.836 27.4871 153.837 26.7994C153.837 26.2866 153.685 25.7854 153.402 25.359C153.119 24.9325 152.717 24.5993 152.246 24.4029Z" fill="#1A1A1A"/>
<path d="M165.252 21.6774C165.577 21.6774 165.889 21.8072 166.119 22.0387C166.349 22.2702 166.478 22.5843 166.478 22.9117V27.8824C166.487 28.2771 166.65 28.6524 166.93 28.9283C167.211 29.2042 167.588 29.359 167.98 29.359C168.372 29.359 168.749 29.2043 169.03 28.9283C169.31 28.6524 169.473 28.2771 169.482 27.8824V22.9117C169.482 22.5843 169.611 22.2702 169.841 22.0387C170.072 21.8072 170.383 21.6774 170.709 21.6774C171.034 21.6774 171.347 21.807 171.577 22.0387C171.807 22.2702 171.936 22.5843 171.936 22.9117V27.8824C171.937 28.6634 171.709 29.4271 171.281 30.0787C170.853 30.7303 170.244 31.2408 169.53 31.5465C168.816 31.8521 168.028 31.9402 167.265 31.7985C166.502 31.6567 165.797 31.2917 165.239 30.7496C164.68 31.2914 163.975 31.6559 163.213 31.7975C162.45 31.939 161.663 31.8511 160.949 31.5455C160.235 31.2399 159.626 30.7301 159.198 30.0787C158.77 29.4273 158.542 28.6633 158.543 27.8824V22.9117C158.543 22.5844 158.672 22.2702 158.902 22.0387C159.132 21.8071 159.445 21.6774 159.77 21.6774C160.096 21.6774 160.408 21.807 160.638 22.0387C160.868 22.2702 160.998 22.5844 160.998 22.9117V27.8824C161.007 28.277 161.168 28.6525 161.449 28.9283C161.729 29.2042 162.106 29.3589 162.499 29.359C162.891 29.359 163.268 29.2043 163.548 28.9283C163.829 28.6524 163.991 28.2771 164.001 27.8824V22.9117C164.001 22.5843 164.13 22.2702 164.36 22.0387C164.59 21.8071 164.903 21.6774 165.228 21.6774H165.252Z" fill="#1A1A1A"/>
<path d="M38.0915 19.9938C38.2459 19.982 38.4013 20.0008 38.5485 20.0494L41.8522 21.1197C42.1195 21.2063 42.3475 21.386 42.4948 21.6266C42.6421 21.8674 42.6986 22.1539 42.6549 22.4332C42.6112 22.7124 42.47 22.9665 42.2565 23.15C42.0429 23.3337 41.7708 23.4345 41.4899 23.4342L41.4782 23.4332C41.3554 23.4324 41.2327 23.4125 41.1159 23.3746L37.8122 22.3053C37.5151 22.2071 37.2688 21.9943 37.1276 21.7135C37.0578 21.5745 37.0153 21.4225 37.0036 21.2672C36.9919 21.1119 37.011 20.9553 37.0592 20.8072C37.1569 20.508 37.3689 20.2599 37.6481 20.1178C37.7863 20.0475 37.937 20.0055 38.0915 19.9938Z" fill="#1A1A1A"/>
<path d="M71.1344 19.9723C71.2907 19.9784 71.4448 20.0153 71.5866 20.0817C71.7283 20.148 71.8553 20.2427 71.9606 20.359C72.0659 20.4752 72.1473 20.6113 72.1999 20.7594C72.2524 20.9076 72.2746 21.0652 72.2663 21.2223C72.2579 21.3794 72.2191 21.5337 72.151 21.6754C72.083 21.8171 71.9879 21.9442 71.8708 22.0484C71.7536 22.1527 71.6165 22.2321 71.4684 22.2828C71.4488 22.2902 71.4292 22.2966 71.4088 22.3024L68.1061 23.3736C67.9591 23.4216 67.8041 23.4396 67.6501 23.4274C67.4959 23.415 67.3454 23.3721 67.2077 23.3014C67.0699 23.2306 66.9467 23.1328 66.8463 23.0143C66.7461 22.8959 66.6694 22.7589 66.6217 22.6109C66.574 22.4628 66.5558 22.3062 66.568 22.151C66.5803 21.9958 66.6237 21.8443 66.694 21.7057C66.7643 21.5671 66.8605 21.4434 66.9782 21.3424C67.0959 21.2414 67.2324 21.1648 67.3795 21.1168L70.6754 20.0465C70.8219 19.9914 70.9782 19.9662 71.1344 19.9723Z" fill="#1A1A1A"/>
<path d="M191.387 20.3873C191.478 20.3872 191.569 20.4051 191.653 20.4401C191.737 20.4752 191.814 20.5274 191.879 20.5924C191.943 20.6573 191.995 20.7341 192.03 20.819C192.065 20.9039 192.083 20.9956 192.083 21.0875V21.1149C192.083 21.3003 192.009 21.4778 191.879 21.609C191.748 21.7402 191.572 21.814 191.387 21.8141C191.203 21.8141 191.026 21.7403 190.895 21.609C190.765 21.4778 190.692 21.3002 190.692 21.1149V21.0875C190.692 20.9019 190.765 20.7236 190.895 20.5924C191.026 20.4611 191.203 20.3873 191.387 20.3873Z" fill="#1A1A1A"/>
<path d="M67.5045 13.7399C67.8187 13.7466 68.118 13.8788 68.3366 14.1061C68.444 14.2182 68.5282 14.3507 68.5846 14.4957C68.6411 14.6409 68.669 14.7959 68.6657 14.9518C68.6623 15.1078 68.6278 15.2622 68.5651 15.4049C68.5025 15.5475 68.4127 15.6764 68.3004 15.7838C68.2825 15.8002 68.2645 15.817 68.2458 15.8326L65.6637 18.1568C65.4461 18.3531 65.1639 18.4617 64.8717 18.4615C64.6327 18.4631 64.3985 18.3918 64.2008 18.2565C64.0033 18.1211 63.8515 17.928 63.7653 17.7037C63.6791 17.4793 63.6627 17.2336 63.7184 16.9996C63.7742 16.7657 63.8989 16.5538 64.0768 16.3932L66.6579 14.069C66.8859 13.8513 67.1904 13.7331 67.5045 13.7399Z" fill="#1A1A1A"/>
<path d="M41.6442 13.7447C41.9571 13.7185 42.2677 13.8173 42.5085 14.0201L42.5631 14.0699L45.1442 16.3932C45.2597 16.497 45.3536 16.6228 45.4206 16.7633C45.4875 16.9039 45.5267 17.0568 45.5348 17.2125C45.5429 17.3683 45.5195 17.5245 45.4674 17.6715C45.4153 17.8185 45.3345 17.9535 45.2301 18.069C45.019 18.3026 44.7251 18.4432 44.4118 18.4596C44.0983 18.4759 43.7904 18.3674 43.5563 18.1568L40.9762 15.8317C40.8577 15.7317 40.7594 15.6094 40.6881 15.4713C40.6168 15.333 40.5742 15.1813 40.5612 15.026C40.5482 14.8707 40.5656 14.7144 40.6129 14.566C40.6603 14.4177 40.7363 14.2804 40.8366 14.1617C41.0406 13.9211 41.331 13.7711 41.6442 13.7447Z" fill="#1A1A1A"/>
<path d="M47.1002 9.64122C47.3875 9.51304 47.7139 9.50499 48.0075 9.61779C48.3011 9.73071 48.5394 9.95629 48.6686 10.2447L50.0807 13.4166C50.2079 13.7063 50.2158 14.0354 50.1022 14.3307C49.9886 14.626 49.763 14.8638 49.4752 14.9918C49.1874 15.1198 48.8605 15.1276 48.567 15.0133C48.2739 14.899 48.0379 14.6719 47.9108 14.3824L46.4977 11.2057C46.4349 11.0634 46.4009 10.9101 46.3971 10.7545C46.3934 10.5986 46.4202 10.4429 46.4762 10.2975C46.5323 10.1522 46.6161 10.0194 46.7233 9.90685C46.8304 9.79432 46.9584 9.70375 47.1002 9.64122Z" fill="#1A1A1A"/>
<path d="M61.2126 9.61974C61.5061 9.50685 61.8324 9.51604 62.1198 9.64415C62.2616 9.70677 62.3906 9.79717 62.4977 9.90978C62.6047 10.0223 62.6888 10.1552 62.7448 10.3004C62.8007 10.4457 62.8275 10.6007 62.8239 10.7565C62.8202 10.9123 62.7861 11.0661 62.7233 11.2086L61.3112 14.3824C61.2172 14.5925 61.0641 14.7703 60.8717 14.8951C60.6793 15.02 60.4552 15.0871 60.2262 15.0865V15.0885C60.0288 15.0906 59.834 15.0424 59.6598 14.9488C59.4857 14.8553 59.3373 14.7195 59.2292 14.5533C59.121 14.3871 59.0562 14.1958 59.0407 13.9977C59.0252 13.7997 59.0595 13.6008 59.1403 13.4195L60.5524 10.2467C60.6816 9.95833 60.919 9.7327 61.2126 9.61974Z" fill="#1A1A1A"/>
<path d="M54.5749 8.0006C54.8894 7.99057 55.195 8.10706 55.4245 8.32384C55.654 8.54063 55.7885 8.84021 55.7985 9.15685V12.7057C55.7982 12.8618 55.7673 13.0166 55.7077 13.1608C55.648 13.3048 55.5607 13.4354 55.4508 13.5455C55.3409 13.6557 55.2105 13.7439 55.067 13.8033C54.9237 13.8627 54.7699 13.8925 54.6149 13.8922C54.4594 13.8931 54.3048 13.8635 54.1608 13.8043C54.017 13.7451 53.8864 13.6576 53.776 13.5475C53.6656 13.4373 53.5782 13.3061 53.5182 13.1617C53.4582 13.0173 53.4268 12.8622 53.4264 12.7057V9.23302C53.4164 8.91649 53.5315 8.60854 53.7467 8.37755C53.9621 8.14653 54.2602 8.01064 54.5749 8.0006Z" fill="#1A1A1A"/>
<path d="M46.0797 18.024C50.7895 13.3725 58.3771 13.42 63.028 18.1315C64.3033 19.4227 65.2697 20.9901 65.8532 22.7135C65.9025 22.8615 65.9226 23.0178 65.9118 23.1734C65.9009 23.3292 65.8591 23.4811 65.7897 23.6207C65.7202 23.7604 65.6239 23.8848 65.5065 23.9869C65.389 24.089 65.2525 24.1666 65.1051 24.2154L65.0417 24.235C64.7452 24.3119 64.4305 24.2723 64.1618 24.1246C63.8932 23.9769 63.6903 23.7316 63.5944 23.4391C62.9462 21.5394 61.723 19.892 60.0973 18.7272C58.4716 17.5624 56.5245 16.9384 54.529 16.944C49.6932 16.944 45.6827 20.5175 45.0446 25.1451C45.0414 25.167 45.043 25.1892 45.0485 25.2106C45.0541 25.2322 45.0642 25.2525 45.0778 25.2701C45.0914 25.2877 45.1082 25.3023 45.1276 25.3131C45.1469 25.3238 45.1681 25.3314 45.1901 25.3336C45.1977 25.3344 45.2059 25.3344 45.2135 25.3336L62.5807 25.3395C64.3617 25.3395 65.8606 26.7421 65.904 28.5289C65.9125 28.9591 65.8371 29.387 65.6813 29.7877C65.5256 30.1884 65.2921 30.5538 64.9958 30.8639C64.6995 31.1739 64.3454 31.4221 63.9538 31.5943C63.5621 31.7666 63.1408 31.8596 62.7135 31.8678L45.8747 31.861C45.6509 31.8579 45.4337 31.9391 45.2653 32.0875C45.0971 32.2358 44.9893 32.4412 44.9626 32.6647C44.9519 32.7814 44.9642 32.8994 44.9987 33.0113C45.0332 33.1234 45.0892 33.2278 45.1637 33.318C45.2382 33.4081 45.3292 33.4831 45.4323 33.5377C45.5353 33.5923 45.6484 33.6255 45.7643 33.6363H53.3883C53.6965 33.6312 53.9955 33.7457 54.2223 33.9557C54.4491 34.1656 54.5873 34.4558 54.6081 34.7652C54.6203 35.0798 54.5076 35.3863 54.2956 35.6178C54.0833 35.8494 53.7881 35.9868 53.4752 35.9996H45.9098C44.1288 35.9996 42.6311 34.5973 42.5885 32.817C42.5801 32.3871 42.6555 31.9597 42.8112 31.5592C42.967 31.1585 43.1995 30.7922 43.4958 30.482C43.792 30.172 44.1462 29.9239 44.5377 29.7516C44.9294 29.5792 45.3516 29.4855 45.779 29.4772L62.6149 29.484C62.8387 29.4868 63.056 29.406 63.2243 29.2574C63.3924 29.1089 63.5006 28.9029 63.527 28.6793C63.5377 28.5626 63.5253 28.4446 63.4909 28.3326C63.4564 28.2206 63.4003 28.1162 63.3258 28.026C63.2513 27.9358 63.1594 27.8618 63.0563 27.8072C62.9532 27.7527 62.8403 27.7183 62.7243 27.7076L43.8522 27.7018C43.5169 27.7029 43.1946 27.5694 42.9567 27.3317C42.7188 27.0939 42.5849 26.7707 42.5836 26.4332C42.5777 24.8674 42.8835 23.3162 43.484 21.8717C44.0846 20.4272 44.9675 19.1189 46.0797 18.024Z" stroke="#E6E2DE" stroke-width="16" stroke-linejoin="round" mask="url(#path-4-outside-1_1173_6)"/>
<path d="M175.229 30.6012C175.32 30.6011 175.411 30.6189 175.496 30.6539C175.58 30.6891 175.657 30.7413 175.721 30.8063C175.786 30.8712 175.838 30.9479 175.873 31.0328C175.908 31.1178 175.926 31.2094 175.925 31.3014V31.3287C175.925 31.5141 175.852 31.6917 175.721 31.8229C175.591 31.9541 175.414 32.0279 175.229 32.0279C175.045 32.0278 174.868 31.954 174.738 31.8229C174.608 31.6917 174.534 31.5141 174.534 31.3287V31.3014C174.534 31.1158 174.608 30.9375 174.738 30.8063C174.868 30.6751 175.045 30.6013 175.229 30.6012Z" stroke="#E6E2DE" stroke-width="16" stroke-linejoin="round" mask="url(#path-4-outside-1_1173_6)"/>
<path d="M80.0876 18.1432C80.4128 18.1432 80.7247 18.273 80.9547 18.5045C81.1848 18.736 81.314 19.0501 81.3141 19.3776V22.2818C81.9285 22.2835 82.5943 22.2927 82.987 22.2984C83.148 22.301 83.3069 22.3357 83.4547 22.4C83.6026 22.4644 83.7361 22.558 83.8483 22.6744C83.9604 22.7908 84.0487 22.9281 84.1081 23.0787C84.1674 23.2296 84.1975 23.3911 84.195 23.5533C84.1924 23.7154 84.1574 23.8752 84.0934 24.024C84.0295 24.1728 83.9375 24.3077 83.8219 24.4205C83.7063 24.5333 83.5693 24.6225 83.4196 24.6822C83.2697 24.742 83.1091 24.7717 82.9479 24.7692C82.4048 24.7609 81.8111 24.7526 81.3122 24.7526V27.5524C81.3123 28.57 82.0532 29.3931 82.9645 29.3932L82.9674 29.3942C83.2926 29.3943 83.6046 29.5241 83.8346 29.7555C84.0648 29.9871 84.194 30.3019 84.194 30.6295C84.1939 30.957 84.0647 31.271 83.8346 31.5026C83.6046 31.7341 83.2927 31.8648 82.9674 31.8649C80.7031 31.8649 78.8602 29.9304 78.86 27.5533V19.3776C78.8601 19.0501 78.9894 18.736 79.2194 18.5045C79.4495 18.2729 79.7621 18.1432 80.0876 18.1432Z" stroke="#E6E2DE" stroke-width="16" stroke-linejoin="round" mask="url(#path-4-outside-1_1173_6)"/>
<path d="M107.686 21.6774C108.735 21.6785 109.74 22.098 110.482 22.8443C111.224 23.5906 111.641 24.6024 111.642 25.6578V30.6285C111.642 30.956 111.513 31.27 111.283 31.5016C111.053 31.7332 110.74 31.8639 110.415 31.8639C110.089 31.8638 109.778 31.7331 109.548 31.5016C109.317 31.27 109.188 30.9561 109.188 30.6285V25.6578C109.179 25.2632 109.017 24.8878 108.736 24.6119C108.455 24.336 108.078 24.1813 107.686 24.1813C107.294 24.1813 106.917 24.336 106.636 24.6119C106.356 24.8877 106.193 25.2633 106.184 25.6578V30.6285C106.184 30.9561 106.055 31.27 105.825 31.5016C105.595 31.7331 105.283 31.8638 104.958 31.8639H104.934C104.609 31.8639 104.296 31.7332 104.066 31.5016C103.836 31.27 103.707 30.956 103.707 30.6285V25.6578C103.697 25.2632 103.535 24.8878 103.255 24.6119C102.974 24.3361 102.597 24.1813 102.205 24.1813C101.813 24.1813 101.435 24.3361 101.155 24.6119C100.875 24.8877 100.713 25.2633 100.704 25.6578V30.6285C100.704 30.9559 100.574 31.27 100.344 31.5016C100.114 31.7332 99.8017 31.8639 99.4762 31.8639C99.1508 31.8639 98.8382 31.7332 98.6081 31.5016C98.3782 31.27 98.2487 30.9559 98.2487 30.6285V25.6578C98.2483 24.8773 98.4764 24.1138 98.904 23.4625C99.3317 22.8111 99.941 22.3004 100.655 21.9947C101.369 21.6892 102.156 21.6013 102.919 21.7428C103.681 21.8844 104.386 22.249 104.945 22.7906C105.68 22.0756 106.664 21.6769 107.686 21.6774Z" stroke="#E6E2DE" stroke-width="16" stroke-linejoin="round" mask="url(#path-4-outside-1_1173_6)"/>
<path d="M130.183 21.6774C131.232 21.6784 132.238 22.098 132.98 22.8443C133.722 23.5906 134.139 24.6025 134.14 25.6578C134.14 25.9854 134.011 26.3002 133.781 26.5318C133.551 26.7635 133.238 26.8932 132.913 26.8932C132.587 26.8932 132.275 26.7635 132.045 26.5318C131.815 26.3002 131.685 25.9853 131.685 25.6578C131.676 25.2633 131.514 24.8877 131.234 24.6119C130.953 24.3361 130.576 24.1813 130.184 24.1813C129.792 24.1813 129.415 24.3361 129.134 24.6119C128.854 24.8878 128.692 25.2632 128.682 25.6578V30.6285C128.682 30.956 128.553 31.27 128.323 31.5016C128.093 31.7331 127.781 31.8638 127.456 31.8639C127.13 31.8639 126.818 31.7332 126.588 31.5016C126.358 31.27 126.228 30.956 126.228 30.6285V25.6578C126.23 24.6025 126.647 23.5906 127.388 22.8443C128.13 22.0982 129.135 21.6788 130.183 21.6774Z" stroke="#E6E2DE" stroke-width="16" stroke-linejoin="round" mask="url(#path-4-outside-1_1173_6)"/>
<path d="M140.203 21.6774C141.252 21.6784 142.257 22.098 142.999 22.8443C143.74 23.5906 144.157 24.6023 144.159 25.6578C144.159 25.9854 144.03 26.3002 143.799 26.5318C143.569 26.7633 143.258 26.8931 142.932 26.8932C142.607 26.8932 142.294 26.7635 142.064 26.5318C141.834 26.3002 141.705 25.9854 141.705 25.6578C141.695 25.2632 141.533 24.8877 141.253 24.6119C140.972 24.3363 140.596 24.1814 140.204 24.1813C139.812 24.1813 139.435 24.3362 139.154 24.6119C138.873 24.8878 138.711 25.2632 138.702 25.6578V30.6285C138.702 30.956 138.572 31.27 138.342 31.5016C138.112 31.7332 137.8 31.8639 137.474 31.8639C137.149 31.8638 136.837 31.7331 136.607 31.5016C136.377 31.27 136.248 30.9561 136.248 30.6285V25.6578C136.249 24.6026 136.666 23.5906 137.407 22.8443C138.148 22.098 139.154 21.6787 140.203 21.6774Z" stroke="#E6E2DE" stroke-width="16" stroke-linejoin="round" mask="url(#path-4-outside-1_1173_6)"/>
<path d="M191.431 22.8707C191.593 22.8725 191.748 22.939 191.862 23.0553C191.976 23.1716 192.04 23.3286 192.039 23.4918L191.998 31.2496C191.997 31.4127 191.931 31.5692 191.816 31.6842C191.701 31.799 191.545 31.8639 191.383 31.8639C191.303 31.8634 191.223 31.8464 191.149 31.8151C191.075 31.7836 191.007 31.7379 190.951 31.6803C190.894 31.6226 190.849 31.5542 190.819 31.4791C190.789 31.4041 190.773 31.3238 190.773 31.2428L190.814 23.485C190.815 23.4039 190.831 23.3234 190.862 23.2486C190.893 23.174 190.939 23.1064 190.997 23.0494C191.054 22.9925 191.121 22.9472 191.196 22.9166C191.271 22.886 191.351 22.8703 191.431 22.8707Z" stroke="#E6E2DE" stroke-width="16" stroke-linejoin="round" mask="url(#path-4-outside-1_1173_6)"/>
<path fill-rule="evenodd" clip-rule="evenodd" d="M179.116 17.1442C179.279 17.1442 179.434 17.2091 179.549 17.3248C179.664 17.4406 179.729 17.5976 179.729 17.7613V23.5631C180.196 23.0226 180.772 22.5896 181.42 22.2926C182.067 21.9956 182.77 21.8414 183.481 21.8414C184.466 21.8414 185.428 22.1356 186.247 22.6861C187.066 23.2368 187.704 24.0195 188.081 24.9352C188.458 25.8509 188.556 26.8586 188.364 27.8307C188.172 28.8026 187.698 29.6953 187.002 30.3961C186.305 31.0969 185.418 31.5748 184.453 31.7682C183.487 31.9615 182.486 31.8622 181.576 31.483C180.666 31.1038 179.889 30.4613 179.341 29.6373C178.794 28.8133 178.502 27.8442 178.502 26.8531V17.7613C178.502 17.5977 178.566 17.4406 178.681 17.3248C178.796 17.209 178.953 17.1442 179.116 17.1442ZM184.918 23.3639C184.232 23.078 183.477 23.0025 182.75 23.1481C182.022 23.2936 181.354 23.6534 180.829 24.1813C180.304 24.7093 179.946 25.3824 179.801 26.1149C179.657 26.8472 179.731 27.6066 180.014 28.2965C180.298 28.9865 180.779 29.5768 181.396 29.9918C182.013 30.4068 182.739 30.6285 183.481 30.6285C184.476 30.6274 185.429 30.2288 186.132 29.5211C186.836 28.8134 187.232 27.854 187.233 26.8531C187.233 26.1063 187.013 25.3756 186.601 24.7545C186.189 24.1335 185.603 23.6498 184.918 23.3639Z" stroke="#E6E2DE" stroke-width="16" stroke-linejoin="round" mask="url(#path-4-outside-1_1173_6)"/>
<path fill-rule="evenodd" clip-rule="evenodd" d="M199.294 21.8414C200.614 21.8428 201.879 22.3717 202.812 23.3111C203.746 24.2507 204.271 25.5245 204.272 26.8531C204.272 27.8442 203.98 28.8133 203.433 29.6373C202.886 30.4613 202.109 31.1037 201.199 31.483C200.289 31.8623 199.288 31.9615 198.322 31.7682C197.356 31.5748 196.468 31.097 195.772 30.3961C195.076 29.6953 194.602 28.8026 194.41 27.8307C194.218 26.8586 194.316 25.8508 194.693 24.9352C195.07 24.0195 195.708 23.2368 196.527 22.6861C197.346 22.1355 198.309 21.8414 199.294 21.8414ZM200.729 23.3639C200.044 23.0781 199.29 23.0026 198.562 23.1481C197.834 23.2937 197.165 23.6532 196.64 24.1813C196.116 24.7093 195.759 25.3824 195.614 26.1149C195.469 26.8474 195.543 27.6074 195.827 28.2975C196.111 28.9874 196.592 29.5769 197.209 29.9918C197.826 30.4068 198.552 30.6285 199.294 30.6285C200.288 30.6276 201.242 30.2297 201.945 29.5221C202.648 28.8143 203.043 27.8542 203.045 26.8531C203.045 26.1062 202.825 25.3756 202.413 24.7545C202.001 24.1336 201.415 23.6498 200.729 23.3639Z" stroke="#E6E2DE" stroke-width="16" stroke-linejoin="round" mask="url(#path-4-outside-1_1173_6)"/>
<path fill-rule="evenodd" clip-rule="evenodd" d="M90.8834 21.7359C92.2174 21.7375 93.4969 22.271 94.4401 23.2203C95.3832 24.1696 95.9131 25.457 95.9147 26.7994C95.9147 27.801 95.6198 28.7801 95.067 29.6129C94.5142 30.4456 93.7285 31.0948 92.8092 31.4781C91.8899 31.8614 90.878 31.9616 89.902 31.7662C88.9261 31.5708 88.0294 31.0887 87.3258 30.3805C86.6223 29.6723 86.143 28.77 85.9489 27.7877C85.7548 26.8055 85.8543 25.7872 86.235 24.8619C86.6158 23.9366 87.2612 23.1459 88.0885 22.5895C88.9159 22.0331 89.8884 21.736 90.8834 21.7359ZM91.8698 24.4029C91.3989 24.2067 90.8803 24.1554 90.3805 24.2555C89.8808 24.3556 89.4215 24.6028 89.0612 24.9654C88.7008 25.3282 88.4555 25.7905 88.3561 26.2936C88.2567 26.7967 88.3075 27.3186 88.5026 27.7926C88.6976 28.2665 89.0281 28.6717 89.4518 28.9567C89.8755 29.2416 90.3739 29.3931 90.8834 29.3932C91.5665 29.3925 92.2216 29.1194 92.7047 28.6334C93.1879 28.1471 93.4599 27.4871 93.4606 26.7994C93.4606 26.2865 93.3091 25.7855 93.026 25.359C92.7429 24.9324 92.3407 24.5993 91.8698 24.4029Z" stroke="#E6E2DE" stroke-width="16" stroke-linejoin="round" mask="url(#path-4-outside-1_1173_6)"/>
<path fill-rule="evenodd" clip-rule="evenodd" d="M118.944 21.7359C120.278 21.7375 121.557 22.271 122.501 23.2203C123.444 24.1696 123.975 25.4569 123.976 26.7994C123.976 27.801 123.68 28.7801 123.128 29.6129C122.575 30.4457 121.789 31.0948 120.87 31.4781C119.95 31.8614 118.939 31.9616 117.963 31.7662C116.987 31.5708 116.09 31.0886 115.386 30.3805C114.683 29.6723 114.204 28.7699 114.009 27.7877C113.815 26.8054 113.916 25.7873 114.297 24.8619C114.677 23.9367 115.322 23.1459 116.149 22.5895C116.976 22.0331 117.949 21.736 118.944 21.7359ZM119.93 24.4029C119.46 24.2068 118.942 24.1555 118.442 24.2555C117.942 24.3555 117.483 24.6029 117.123 24.9654C116.762 25.3282 116.516 25.7904 116.417 26.2936C116.317 26.7967 116.368 27.3186 116.563 27.7926C116.758 28.2665 117.089 28.6717 117.512 28.9567C117.936 29.2416 118.434 29.3931 118.944 29.3932C119.627 29.3925 120.283 29.1197 120.766 28.6334C121.249 28.1471 121.521 27.4871 121.521 26.7994C121.521 26.2867 121.37 25.7854 121.088 25.359C120.804 24.9324 120.401 24.5993 119.93 24.4029Z" stroke="#E6E2DE" stroke-width="16" stroke-linejoin="round" mask="url(#path-4-outside-1_1173_6)"/>
<path fill-rule="evenodd" clip-rule="evenodd" d="M151.259 21.7359C152.593 21.7375 153.872 22.2711 154.815 23.2203C155.758 24.1696 156.289 25.4569 156.291 26.7994C156.291 27.8009 155.996 28.7802 155.443 29.6129C154.89 30.4456 154.104 31.0948 153.185 31.4781C152.266 31.8614 151.254 31.9616 150.278 31.7662C149.302 31.5708 148.405 31.0887 147.702 30.3805C146.998 29.6723 146.519 28.77 146.325 27.7877C146.131 26.8054 146.23 25.7872 146.611 24.8619C146.992 23.9366 147.637 23.1459 148.465 22.5895C149.292 22.033 150.264 21.7359 151.259 21.7359ZM152.246 24.4029C151.775 24.2066 151.256 24.1554 150.757 24.2555C150.257 24.3556 149.798 24.6027 149.437 24.9654C149.077 25.3282 148.832 25.7905 148.732 26.2936C148.633 26.7967 148.684 27.3186 148.879 27.7926C149.074 28.2664 149.404 28.6717 149.828 28.9567C150.252 29.2416 150.75 29.3932 151.259 29.3932C151.943 29.3925 152.598 29.1195 153.081 28.6334C153.564 28.1471 153.836 27.4871 153.837 26.7994C153.837 26.2866 153.685 25.7854 153.402 25.359C153.119 24.9325 152.717 24.5993 152.246 24.4029Z" stroke="#E6E2DE" stroke-width="16" stroke-linejoin="round" mask="url(#path-4-outside-1_1173_6)"/>
<path d="M165.252 21.6774C165.577 21.6774 165.889 21.8072 166.119 22.0387C166.349 22.2702 166.478 22.5843 166.478 22.9117V27.8824C166.487 28.2771 166.65 28.6524 166.93 28.9283C167.211 29.2042 167.588 29.359 167.98 29.359C168.372 29.359 168.749 29.2043 169.03 28.9283C169.31 28.6524 169.473 28.2771 169.482 27.8824V22.9117C169.482 22.5843 169.611 22.2702 169.841 22.0387C170.072 21.8072 170.383 21.6774 170.709 21.6774C171.034 21.6774 171.347 21.807 171.577 22.0387C171.807 22.2702 171.936 22.5843 171.936 22.9117V27.8824C171.937 28.6634 171.709 29.4271 171.281 30.0787C170.853 30.7303 170.244 31.2408 169.53 31.5465C168.816 31.8521 168.028 31.9402 167.265 31.7985C166.502 31.6567 165.797 31.2917 165.239 30.7496C164.68 31.2914 163.975 31.6559 163.213 31.7975C162.45 31.939 161.663 31.8511 160.949 31.5455C160.235 31.2399 159.626 30.7301 159.198 30.0787C158.77 29.4273 158.542 28.6633 158.543 27.8824V22.9117C158.543 22.5844 158.672 22.2702 158.902 22.0387C159.132 21.8071 159.445 21.6774 159.77 21.6774C160.096 21.6774 160.408 21.807 160.638 22.0387C160.868 22.2702 160.998 22.5844 160.998 22.9117V27.8824C161.007 28.277 161.168 28.6525 161.449 28.9283C161.729 29.2042 162.106 29.3589 162.499 29.359C162.891 29.359 163.268 29.2043 163.548 28.9283C163.829 28.6524 163.991 28.2771 164.001 27.8824V22.9117C164.001 22.5843 164.13 22.2702 164.36 22.0387C164.59 21.8071 164.903 21.6774 165.228 21.6774H165.252Z" stroke="#E6E2DE" stroke-width="16" stroke-linejoin="round" mask="url(#path-4-outside-1_1173_6)"/>
<path d="M38.0915 19.9938C38.2459 19.982 38.4013 20.0008 38.5485 20.0494L41.8522 21.1197C42.1195 21.2063 42.3475 21.386 42.4948 21.6266C42.6421 21.8674 42.6986 22.1539 42.6549 22.4332C42.6112 22.7124 42.47 22.9665 42.2565 23.15C42.0429 23.3337 41.7708 23.4345 41.4899 23.4342L41.4782 23.4332C41.3554 23.4324 41.2327 23.4125 41.1159 23.3746L37.8122 22.3053C37.5151 22.2071 37.2688 21.9943 37.1276 21.7135C37.0578 21.5745 37.0153 21.4225 37.0036 21.2672C36.9919 21.1119 37.011 20.9553 37.0592 20.8072C37.1569 20.508 37.3689 20.2599 37.6481 20.1178C37.7863 20.0475 37.937 20.0055 38.0915 19.9938Z" stroke="#E6E2DE" stroke-width="16" stroke-linejoin="round" mask="url(#path-4-outside-1_1173_6)"/>
<path d="M71.1344 19.9723C71.2907 19.9784 71.4448 20.0153 71.5866 20.0817C71.7283 20.148 71.8553 20.2427 71.9606 20.359C72.0659 20.4752 72.1473 20.6113 72.1999 20.7594C72.2524 20.9076 72.2746 21.0652 72.2663 21.2223C72.2579 21.3794 72.2191 21.5337 72.151 21.6754C72.083 21.8171 71.9879 21.9442 71.8708 22.0484C71.7536 22.1527 71.6165 22.2321 71.4684 22.2828C71.4488 22.2902 71.4292 22.2966 71.4088 22.3024L68.1061 23.3736C67.9591 23.4216 67.8041 23.4396 67.6501 23.4274C67.4959 23.415 67.3454 23.3721 67.2077 23.3014C67.0699 23.2306 66.9467 23.1328 66.8463 23.0143C66.7461 22.8959 66.6694 22.7589 66.6217 22.6109C66.574 22.4628 66.5558 22.3062 66.568 22.151C66.5803 21.9958 66.6237 21.8443 66.694 21.7057C66.7643 21.5671 66.8605 21.4434 66.9782 21.3424C67.0959 21.2414 67.2324 21.1648 67.3795 21.1168L70.6754 20.0465C70.8219 19.9914 70.9782 19.9662 71.1344 19.9723Z" stroke="#E6E2DE" stroke-width="16" stroke-linejoin="round" mask="url(#path-4-outside-1_1173_6)"/>
<path d="M191.387 20.3873C191.478 20.3872 191.569 20.4051 191.653 20.4401C191.737 20.4752 191.814 20.5274 191.879 20.5924C191.943 20.6573 191.995 20.7341 192.03 20.819C192.065 20.9039 192.083 20.9956 192.083 21.0875V21.1149C192.083 21.3003 192.009 21.4778 191.879 21.609C191.748 21.7402 191.572 21.814 191.387 21.8141C191.203 21.8141 191.026 21.7403 190.895 21.609C190.765 21.4778 190.692 21.3002 190.692 21.1149V21.0875C190.692 20.9019 190.765 20.7236 190.895 20.5924C191.026 20.4611 191.203 20.3873 191.387 20.3873Z" stroke="#E6E2DE" stroke-width="16" stroke-linejoin="round" mask="url(#path-4-outside-1_1173_6)"/>
<path d="M67.5045 13.7399C67.8187 13.7466 68.118 13.8788 68.3366 14.1061C68.444 14.2182 68.5282 14.3507 68.5846 14.4957C68.6411 14.6409 68.669 14.7959 68.6657 14.9518C68.6623 15.1078 68.6278 15.2622 68.5651 15.4049C68.5025 15.5475 68.4127 15.6764 68.3004 15.7838C68.2825 15.8002 68.2645 15.817 68.2458 15.8326L65.6637 18.1568C65.4461 18.3531 65.1639 18.4617 64.8717 18.4615C64.6327 18.4631 64.3985 18.3918 64.2008 18.2565C64.0033 18.1211 63.8515 17.928 63.7653 17.7037C63.6791 17.4793 63.6627 17.2336 63.7184 16.9996C63.7742 16.7657 63.8989 16.5538 64.0768 16.3932L66.6579 14.069C66.8859 13.8513 67.1904 13.7331 67.5045 13.7399Z" stroke="#E6E2DE" stroke-width="16" stroke-linejoin="round" mask="url(#path-4-outside-1_1173_6)"/>
<path d="M41.6442 13.7447C41.9571 13.7185 42.2677 13.8173 42.5085 14.0201L42.5631 14.0699L45.1442 16.3932C45.2597 16.497 45.3536 16.6228 45.4206 16.7633C45.4875 16.9039 45.5267 17.0568 45.5348 17.2125C45.5429 17.3683 45.5195 17.5245 45.4674 17.6715C45.4153 17.8185 45.3345 17.9535 45.2301 18.069C45.019 18.3026 44.7251 18.4432 44.4118 18.4596C44.0983 18.4759 43.7904 18.3674 43.5563 18.1568L40.9762 15.8317C40.8577 15.7317 40.7594 15.6094 40.6881 15.4713C40.6168 15.333 40.5742 15.1813 40.5612 15.026C40.5482 14.8707 40.5656 14.7144 40.6129 14.566C40.6603 14.4177 40.7363 14.2804 40.8366 14.1617C41.0406 13.9211 41.331 13.7711 41.6442 13.7447Z" stroke="#E6E2DE" stroke-width="16" stroke-linejoin="round" mask="url(#path-4-outside-1_1173_6)"/>
<path d="M47.1002 9.64122C47.3875 9.51304 47.7139 9.50499 48.0075 9.61779C48.3011 9.73071 48.5394 9.95629 48.6686 10.2447L50.0807 13.4166C50.2079 13.7063 50.2158 14.0354 50.1022 14.3307C49.9886 14.626 49.763 14.8638 49.4752 14.9918C49.1874 15.1198 48.8605 15.1276 48.567 15.0133C48.2739 14.899 48.0379 14.6719 47.9108 14.3824L46.4977 11.2057C46.4349 11.0634 46.4009 10.9101 46.3971 10.7545C46.3934 10.5986 46.4202 10.4429 46.4762 10.2975C46.5323 10.1522 46.6161 10.0194 46.7233 9.90685C46.8304 9.79432 46.9584 9.70375 47.1002 9.64122Z" stroke="#E6E2DE" stroke-width="16" stroke-linejoin="round" mask="url(#path-4-outside-1_1173_6)"/>
<path d="M61.2126 9.61974C61.5061 9.50685 61.8324 9.51604 62.1198 9.64415C62.2616 9.70677 62.3906 9.79717 62.4977 9.90978C62.6047 10.0223 62.6888 10.1552 62.7448 10.3004C62.8007 10.4457 62.8275 10.6007 62.8239 10.7565C62.8202 10.9123 62.7861 11.0661 62.7233 11.2086L61.3112 14.3824C61.2172 14.5925 61.0641 14.7703 60.8717 14.8951C60.6793 15.02 60.4552 15.0871 60.2262 15.0865V15.0885C60.0288 15.0906 59.834 15.0424 59.6598 14.9488C59.4857 14.8553 59.3373 14.7195 59.2292 14.5533C59.121 14.3871 59.0562 14.1958 59.0407 13.9977C59.0252 13.7997 59.0595 13.6008 59.1403 13.4195L60.5524 10.2467C60.6816 9.95833 60.919 9.7327 61.2126 9.61974Z" stroke="#E6E2DE" stroke-width="16" stroke-linejoin="round" mask="url(#path-4-outside-1_1173_6)"/>
<path d="M54.5749 8.0006C54.8894 7.99057 55.195 8.10706 55.4245 8.32384C55.654 8.54063 55.7885 8.84021 55.7985 9.15685V12.7057C55.7982 12.8618 55.7673 13.0166 55.7077 13.1608C55.648 13.3048 55.5607 13.4354 55.4508 13.5455C55.3409 13.6557 55.2105 13.7439 55.067 13.8033C54.9237 13.8627 54.7699 13.8925 54.6149 13.8922C54.4594 13.8931 54.3048 13.8635 54.1608 13.8043C54.017 13.7451 53.8864 13.6576 53.776 13.5475C53.6656 13.4373 53.5782 13.3061 53.5182 13.1617C53.4582 13.0173 53.4268 12.8622 53.4264 12.7057V9.23302C53.4164 8.91649 53.5315 8.60854 53.7467 8.37755C53.9621 8.14653 54.2602 8.01064 54.5749 8.0006Z" stroke="#E6E2DE" stroke-width="16" stroke-linejoin="round" mask="url(#path-4-outside-1_1173_6)"/>
</svg>
