<svg width="242" height="240" viewBox="0 0 242 240" fill="none" xmlns="http://www.w3.org/2000/svg">
<rect y="80" width="242" height="160" rx="12" fill="#E6E2DE"/>
<path d="M79.4578 155H77.0258V145.704H73.4098V143.512H83.0898V145.704H79.4578V155ZM86.9177 155.16C84.4377 155.16 82.5817 153.208 82.5817 150.728C82.5817 148.232 84.4377 146.296 86.9177 146.296C89.3977 146.296 91.2537 148.232 91.2537 150.728C91.2537 153.208 89.3977 155.16 86.9177 155.16ZM86.9177 153.192C88.0217 153.192 88.9657 152.312 88.9657 150.728C88.9657 149.144 88.0217 148.28 86.9177 148.28C85.8137 148.28 84.8697 149.144 84.8697 150.728C84.8697 152.312 85.8137 153.192 86.9177 153.192ZM94.7369 155H92.5129V146.456H94.5609V147.672C95.1849 146.808 95.9849 146.296 97.1209 146.296C98.2889 146.296 99.1849 146.84 99.6169 147.816C100.289 146.872 101.153 146.296 102.433 146.296C104.161 146.296 105.329 147.432 105.329 149.48V155H103.121V150.184C103.121 148.984 102.609 148.264 101.633 148.264C100.753 148.264 100.033 148.952 100.033 150.232V155H97.8249V150.184C97.8249 148.984 97.3129 148.264 96.3369 148.264C95.4409 148.264 94.7369 148.952 94.7369 150.232V155ZM110.848 155.16C108.368 155.16 106.512 153.208 106.512 150.728C106.512 148.232 108.368 146.296 110.848 146.296C113.328 146.296 115.184 148.232 115.184 150.728C115.184 153.208 113.328 155.16 110.848 155.16ZM110.848 153.192C111.952 153.192 112.896 152.312 112.896 150.728C112.896 149.144 111.952 148.28 110.848 148.28C109.744 148.28 108.8 149.144 108.8 150.728C108.8 152.312 109.744 153.192 110.848 153.192ZM118.667 150.856V155H116.443V146.456H118.491V148.104C119.115 147.016 120.443 146.36 121.819 146.36V148.664C119.931 148.52 118.667 148.968 118.667 150.856ZM125.038 150.856V155H122.814V146.456H124.862V148.104C125.486 147.016 126.814 146.36 128.19 146.36V148.664C126.302 148.52 125.038 148.968 125.038 150.856ZM132.899 155.16C130.419 155.16 128.563 153.208 128.563 150.728C128.563 148.232 130.419 146.296 132.899 146.296C135.379 146.296 137.235 148.232 137.235 150.728C137.235 153.208 135.379 155.16 132.899 155.16ZM132.899 153.192C134.003 153.192 134.947 152.312 134.947 150.728C134.947 149.144 134.003 148.28 132.899 148.28C131.795 148.28 130.851 149.144 130.851 150.728C130.851 152.312 131.795 153.192 132.899 153.192ZM145.283 155L143.667 149.448L142.067 155H139.843L137.411 146.456H139.571L141.027 151.864L142.595 146.456H144.787L146.307 151.864L147.747 146.456H149.939L147.491 155H145.283ZM162.864 151.624C162.864 153.752 161.296 155 158.768 155H154.272V143.512H158.592C161.008 143.512 162.496 144.6 162.496 146.568C162.496 147.624 161.904 148.472 160.88 149C162.16 149.448 162.864 150.36 162.864 151.624ZM158.4 145.432H156.48V148.104H158.4C159.584 148.104 160.192 147.592 160.192 146.76C160.192 145.944 159.584 145.432 158.4 145.432ZM158.576 150.04H156.48V153.08H158.576C159.888 153.08 160.576 152.504 160.576 151.528C160.576 150.616 159.888 150.04 158.576 150.04ZM166.856 144.472C166.856 145.224 166.248 145.784 165.368 145.784C164.504 145.784 163.896 145.224 163.896 144.472C163.896 143.688 164.504 143.128 165.368 143.128C166.248 143.128 166.856 143.688 166.856 144.472ZM166.504 155H164.28V146.456H166.504V155ZM172.099 155.16C169.619 155.16 167.763 153.208 167.763 150.728C167.763 148.232 169.619 146.296 172.099 146.296C174.579 146.296 176.435 148.232 176.435 150.728C176.435 153.208 174.579 155.16 172.099 155.16ZM172.099 153.192C173.203 153.192 174.147 152.312 174.147 150.728C174.147 149.144 173.203 148.28 172.099 148.28C170.995 148.28 170.051 149.144 170.051 150.728C170.051 152.312 170.995 153.192 172.099 153.192Z" fill="#1A1A1A"/>
<path d="M57.8062 172.06C57.8062 173.81 56.4062 175.14 53.9702 175.14C51.5482 175.14 50.0782 173.81 49.9522 171.808H51.5202C51.5902 173.082 52.4022 173.908 53.9422 173.908C55.2162 173.908 56.1682 173.306 56.1682 172.27C56.1682 171.43 55.6222 171.01 54.4602 170.758L53.0042 170.478C51.5902 170.198 50.3022 169.484 50.3022 167.776C50.3022 166.082 51.7862 164.808 53.8722 164.808C55.9582 164.808 57.5402 166.082 57.6662 168.084H56.0982C56.0142 166.88 55.1462 166.04 53.8862 166.04C52.5842 166.04 51.8702 166.81 51.8702 167.678C51.8702 168.63 52.6962 168.966 53.6342 169.162L55.1182 169.456C56.8402 169.806 57.8062 170.562 57.8062 172.06ZM62.305 175.14C60.205 175.14 58.665 173.488 58.665 171.29C58.665 169.092 60.205 167.44 62.305 167.44C64.405 167.44 65.945 169.092 65.945 171.29C65.945 173.488 64.405 175.14 62.305 175.14ZM62.305 173.894C63.523 173.894 64.489 172.914 64.489 171.29C64.489 169.666 63.523 168.7 62.305 168.7C61.087 168.7 60.135 169.666 60.135 171.29C60.135 172.914 61.087 173.894 62.305 173.894ZM70.0324 175.154C68.0024 175.154 66.5744 173.558 66.5744 171.29C66.5744 169.05 68.0304 167.44 70.0324 167.44C71.8664 167.44 73.1964 168.658 73.4624 170.59H71.9784C71.8244 169.4 71.0824 168.686 70.0464 168.686C68.8284 168.686 68.0304 169.722 68.0304 171.29C68.0304 172.872 68.8284 173.894 70.0464 173.894C71.0964 173.894 71.8244 173.194 71.9924 171.99H73.4624C73.2104 173.95 71.8944 175.154 70.0324 175.154ZM76.3277 165.858C76.3277 166.39 75.9077 166.796 75.3057 166.796C74.7037 166.796 74.2697 166.39 74.2697 165.858C74.2697 165.312 74.7037 164.92 75.3057 164.92C75.9077 164.92 76.3277 165.312 76.3277 165.858ZM76.0197 175H74.6057V167.58H76.0197V175ZM82.1967 175V173.852C81.7347 174.678 80.9087 175.14 79.8167 175.14C78.2767 175.14 77.2687 174.258 77.2687 172.9C77.2687 171.444 78.4307 170.688 80.6427 170.688C81.0767 170.688 81.4267 170.702 82.0287 170.772V170.226C82.0287 169.162 81.4547 168.56 80.4747 168.56C79.4387 168.56 78.8087 169.176 78.7667 170.212H77.4787C77.5487 168.546 78.7387 167.44 80.4747 167.44C82.3087 167.44 83.3727 168.476 83.3727 170.24V175H82.1967ZM78.6127 172.858C78.6127 173.628 79.1867 174.132 80.0967 174.132C81.2867 174.132 82.0287 173.39 82.0287 172.256V171.654C81.4827 171.584 81.0907 171.57 80.7267 171.57C79.3127 171.57 78.6127 171.99 78.6127 172.858ZM86.4112 175H84.9832V164.948H86.4112V175ZM95.4437 175L92.2657 167.314V175H90.8517V164.948H92.7417L96.1157 173.11L99.4757 164.948H101.38V175H99.9517V167.3L96.7597 175H95.4437ZM106.213 175.14C104.071 175.14 102.629 173.586 102.629 171.248C102.629 169.05 104.127 167.44 106.171 167.44C108.383 167.44 109.853 169.232 109.601 171.64H104.071C104.183 173.152 104.939 174.034 106.185 174.034C107.235 174.034 107.963 173.46 108.201 172.494H109.601C109.237 174.146 107.963 175.14 106.213 175.14ZM106.143 168.504C105.009 168.504 104.239 169.316 104.085 170.702H108.103C108.033 169.33 107.291 168.504 106.143 168.504ZM110.155 171.29C110.155 169.036 111.443 167.44 113.445 167.44C114.439 167.44 115.307 167.944 115.825 168.854V164.948H117.239V175H115.923V173.67C115.391 174.608 114.495 175.14 113.445 175.14C111.443 175.14 110.155 173.516 110.155 171.29ZM111.625 171.29C111.625 172.942 112.493 173.88 113.725 173.88C114.929 173.88 115.825 172.9 115.825 171.262C115.825 169.596 114.901 168.686 113.725 168.686C112.493 168.686 111.625 169.61 111.625 171.29ZM120.647 165.858C120.647 166.39 120.227 166.796 119.625 166.796C119.023 166.796 118.589 166.39 118.589 165.858C118.589 165.312 119.023 164.92 119.625 164.92C120.227 164.92 120.647 165.312 120.647 165.858ZM120.339 175H118.925V167.58H120.339V175ZM126.516 175V173.852C126.054 174.678 125.228 175.14 124.136 175.14C122.596 175.14 121.588 174.258 121.588 172.9C121.588 171.444 122.75 170.688 124.962 170.688C125.396 170.688 125.746 170.702 126.348 170.772V170.226C126.348 169.162 125.774 168.56 124.794 168.56C123.758 168.56 123.128 169.176 123.086 170.212H121.798C121.868 168.546 123.058 167.44 124.794 167.44C126.628 167.44 127.692 168.476 127.692 170.24V175H126.516ZM122.932 172.858C122.932 173.628 123.506 174.132 124.416 174.132C125.606 174.132 126.348 173.39 126.348 172.256V171.654C125.802 171.584 125.41 171.57 125.046 171.57C123.632 171.57 122.932 171.99 122.932 172.858ZM136.05 175H134.51V166.334H131.234V164.948H139.326V166.334H136.05V175ZM142.363 175.14C140.221 175.14 138.779 173.586 138.779 171.248C138.779 169.05 140.277 167.44 142.321 167.44C144.533 167.44 146.003 169.232 145.751 171.64H140.221C140.333 173.152 141.089 174.034 142.335 174.034C143.385 174.034 144.113 173.46 144.351 172.494H145.751C145.387 174.146 144.113 175.14 142.363 175.14ZM142.293 168.504C141.159 168.504 140.389 169.316 140.235 170.702H144.253C144.183 169.33 143.441 168.504 142.293 168.504ZM148.388 175H146.974V167.58H148.29V168.812C148.794 167.958 149.592 167.44 150.614 167.44C151.706 167.44 152.532 168 152.868 168.98C153.386 168.028 154.24 167.44 155.374 167.44C156.9 167.44 157.88 168.434 157.88 170.198V175H156.466V170.646C156.466 169.414 155.92 168.686 154.884 168.686C153.918 168.686 153.134 169.498 153.134 170.744V175H151.72V170.646C151.72 169.414 151.174 168.686 150.138 168.686C149.158 168.686 148.388 169.498 148.388 170.744V175ZM166.575 171.29C166.575 173.53 165.287 175.14 163.299 175.14C162.291 175.14 161.437 174.636 160.905 173.74V177.702H159.491V167.58H160.807V168.938C161.339 167.986 162.249 167.44 163.299 167.44C165.273 167.44 166.575 169.05 166.575 171.29ZM165.105 171.29C165.105 169.624 164.223 168.686 163.005 168.686C161.829 168.686 160.905 169.624 160.905 171.29C160.905 172.928 161.815 173.88 163.005 173.88C164.223 173.88 165.105 172.956 165.105 171.29ZM169.157 175H167.729V164.948H169.157V175ZM175.333 175V173.852C174.871 174.678 174.045 175.14 172.953 175.14C171.413 175.14 170.405 174.258 170.405 172.9C170.405 171.444 171.567 170.688 173.779 170.688C174.213 170.688 174.563 170.702 175.165 170.772V170.226C175.165 169.162 174.591 168.56 173.611 168.56C172.575 168.56 171.945 169.176 171.903 170.212H170.615C170.685 168.546 171.875 167.44 173.611 167.44C175.445 167.44 176.509 168.476 176.509 170.24V175H175.333ZM171.749 172.858C171.749 173.628 172.323 174.132 173.233 174.132C174.423 174.132 175.165 173.39 175.165 172.256V171.654C174.619 171.584 174.227 171.57 173.863 171.57C172.449 171.57 171.749 171.99 171.749 172.858ZM182.238 173.628V174.874C181.804 175.07 181.426 175.14 180.978 175.14C179.606 175.14 178.654 174.398 178.654 172.76V168.784H177.016V167.58H178.654V165.382H180.068V167.58H182.308V168.784H180.068V172.438C180.068 173.46 180.558 173.824 181.314 173.824C181.65 173.824 181.944 173.768 182.238 173.628ZM186.224 175.14C184.082 175.14 182.64 173.586 182.64 171.248C182.64 169.05 184.138 167.44 186.182 167.44C188.394 167.44 189.864 169.232 189.612 171.64H184.082C184.194 173.152 184.95 174.034 186.196 174.034C187.246 174.034 187.974 173.46 188.212 172.494H189.612C189.248 174.146 187.974 175.14 186.224 175.14ZM186.154 168.504C185.02 168.504 184.25 169.316 184.096 170.702H188.114C188.044 169.33 187.302 168.504 186.154 168.504ZM196.715 172.788C196.715 174.244 195.581 175.14 193.607 175.14C191.647 175.14 190.485 174.174 190.345 172.578H191.703C191.759 173.502 192.501 174.076 193.635 174.076C194.629 174.076 195.287 173.726 195.287 173.026C195.287 172.41 194.909 172.144 193.985 171.962L192.781 171.738C191.409 171.472 190.639 170.772 190.639 169.652C190.639 168.35 191.773 167.44 193.495 167.44C195.273 167.44 196.477 168.392 196.603 169.918H195.245C195.161 169.022 194.503 168.504 193.509 168.504C192.613 168.504 192.011 168.882 192.011 169.526C192.011 170.128 192.389 170.408 193.285 170.576L194.545 170.814C196.015 171.08 196.715 171.724 196.715 172.788ZM199.897 174.398C199.897 175.728 198.847 176.764 197.307 176.792V175.994C198.217 175.966 198.833 175.476 198.917 174.79C198.791 174.832 198.707 174.846 198.609 174.846C198.077 174.846 197.685 174.412 197.685 173.894C197.685 173.292 198.133 172.9 198.707 172.9C199.477 172.9 199.897 173.46 199.897 174.398ZM89.3873 189.116C89.3873 190.95 88.0433 192 85.9573 192H82.2753V181.948H85.7613C87.7913 181.948 89.0093 182.886 89.0093 184.58C89.0093 185.532 88.4353 186.344 87.4693 186.764C88.7153 187.114 89.3873 187.968 89.3873 189.116ZM85.6633 183.18H83.6893V186.204H85.6633C86.8813 186.204 87.5393 185.63 87.5393 184.692C87.5393 183.754 86.8813 183.18 85.6633 183.18ZM85.8593 187.436H83.6893V190.768H85.8593C87.1753 190.768 87.9173 190.138 87.9173 189.074C87.9173 188.052 87.1753 187.436 85.8593 187.436ZM92.184 188.206V192H90.77V184.58H92.086V186.148C92.604 185.126 93.724 184.482 94.942 184.482V185.952C93.346 185.868 92.184 186.568 92.184 188.206ZM100.275 192V190.852C99.813 191.678 98.987 192.14 97.895 192.14C96.355 192.14 95.347 191.258 95.347 189.9C95.347 188.444 96.509 187.688 98.721 187.688C99.155 187.688 99.505 187.702 100.107 187.772V187.226C100.107 186.162 99.533 185.56 98.553 185.56C97.517 185.56 96.887 186.176 96.845 187.212H95.557C95.627 185.546 96.817 184.44 98.553 184.44C100.387 184.44 101.451 185.476 101.451 187.24V192H100.275ZM96.691 189.858C96.691 190.628 97.265 191.132 98.175 191.132C99.365 191.132 100.107 190.39 100.107 189.256V188.654C99.561 188.584 99.169 188.57 98.805 188.57C97.391 188.57 96.691 188.99 96.691 189.858ZM104.476 187.814V192H103.062V184.58H104.378V185.812C104.882 184.986 105.722 184.44 106.744 184.44C108.27 184.44 109.278 185.42 109.278 187.198V192H107.864V187.674C107.864 186.4 107.304 185.686 106.254 185.686C105.288 185.686 104.476 186.498 104.476 187.814ZM110.343 188.29C110.343 186.036 111.631 184.44 113.633 184.44C114.627 184.44 115.495 184.944 116.013 185.854V181.948H117.427V192H116.111V190.67C115.579 191.608 114.683 192.14 113.633 192.14C111.631 192.14 110.343 190.516 110.343 188.29ZM111.813 188.29C111.813 189.942 112.681 190.88 113.913 190.88C115.117 190.88 116.013 189.9 116.013 188.262C116.013 186.596 115.089 185.686 113.913 185.686C112.681 185.686 111.813 186.61 111.813 188.29ZM123.411 192H121.871V181.948H123.411V192ZM124.665 188.29C124.665 186.036 125.953 184.44 127.955 184.44C128.949 184.44 129.817 184.944 130.335 185.854V181.948H131.749V192H130.433V190.67C129.901 191.608 129.005 192.14 127.955 192.14C125.953 192.14 124.665 190.516 124.665 188.29ZM126.135 188.29C126.135 189.942 127.003 190.88 128.235 190.88C129.439 190.88 130.335 189.9 130.335 188.262C130.335 186.596 129.411 185.686 128.235 185.686C127.003 185.686 126.135 186.61 126.135 188.29ZM136.487 192.14C134.345 192.14 132.903 190.586 132.903 188.248C132.903 186.05 134.401 184.44 136.445 184.44C138.657 184.44 140.127 186.232 139.875 188.64H134.345C134.457 190.152 135.213 191.034 136.459 191.034C137.509 191.034 138.237 190.46 138.475 189.494H139.875C139.511 191.146 138.237 192.14 136.487 192.14ZM136.417 185.504C135.283 185.504 134.513 186.316 134.359 187.702H138.377C138.307 186.33 137.565 185.504 136.417 185.504ZM142.512 187.814V192H141.098V184.58H142.414V185.812C142.918 184.986 143.758 184.44 144.78 184.44C146.306 184.44 147.314 185.42 147.314 187.198V192H145.9V187.674C145.9 186.4 145.34 185.686 144.29 185.686C143.324 185.686 142.512 186.498 142.512 187.814ZM153.071 190.628V191.874C152.637 192.07 152.259 192.14 151.811 192.14C150.439 192.14 149.487 191.398 149.487 189.76V185.784H147.849V184.58H149.487V182.382H150.901V184.58H153.141V185.784H150.901V189.438C150.901 190.46 151.391 190.824 152.147 190.824C152.483 190.824 152.777 190.768 153.071 190.628ZM155.932 182.858C155.932 183.39 155.512 183.796 154.91 183.796C154.308 183.796 153.874 183.39 153.874 182.858C153.874 182.312 154.308 181.92 154.91 181.92C155.512 181.92 155.932 182.312 155.932 182.858ZM155.624 192H154.21V184.58H155.624V192ZM161.493 190.628V191.874C161.059 192.07 160.681 192.14 160.233 192.14C158.861 192.14 157.909 191.398 157.909 189.76V185.784H156.271V184.58H157.909V182.382H159.323V184.58H161.563V185.784H159.323V189.438C159.323 190.46 159.813 190.824 160.569 190.824C160.905 190.824 161.199 190.768 161.493 190.628ZM168.793 184.58L165.083 194.702H163.543L164.607 191.902L161.681 184.58H163.207L165.363 190.236L167.365 184.58H168.793Z" fill="#1A1A1A"/>
<mask id="path-4-outside-1_1195_189" maskUnits="userSpaceOnUse" x="29.0002" y="57" width="184" height="44" fill="black">
<rect fill="white" x="29.0002" y="57" width="184" height="44"/>
<path d="M46.0797 75.024C50.7895 70.3725 58.3771 70.42 63.028 75.1315C64.3033 76.4227 65.2697 77.9901 65.8532 79.7135C65.9025 79.8615 65.9226 80.0178 65.9118 80.1734C65.9009 80.3292 65.8591 80.4811 65.7897 80.6207C65.7202 80.7604 65.6239 80.8848 65.5065 80.9869C65.389 81.089 65.2525 81.1666 65.1051 81.2154L65.0417 81.235C64.7452 81.3119 64.4305 81.2723 64.1618 81.1246C63.8932 80.9769 63.6903 80.7316 63.5944 80.4391C62.9462 78.5394 61.723 76.892 60.0973 75.7272C58.4716 74.5624 56.5245 73.9384 54.529 73.944C49.6932 73.944 45.6827 77.5175 45.0446 82.1451C45.0414 82.167 45.043 82.1892 45.0485 82.2106C45.0541 82.2322 45.0642 82.2525 45.0778 82.2701C45.0914 82.2877 45.1082 82.3023 45.1276 82.3131C45.1469 82.3238 45.1681 82.3314 45.1901 82.3336C45.1977 82.3344 45.2059 82.3344 45.2135 82.3336L62.5807 82.3395C64.3617 82.3395 65.8606 83.7421 65.904 85.5289C65.9125 85.9591 65.8371 86.387 65.6813 86.7877C65.5256 87.1884 65.2921 87.5538 64.9958 87.8639C64.6995 88.1739 64.3454 88.4221 63.9538 88.5943C63.5621 88.7666 63.1408 88.8596 62.7135 88.8678L45.8747 88.861C45.6509 88.8579 45.4337 88.9391 45.2653 89.0875C45.0971 89.2358 44.9893 89.4412 44.9626 89.6647C44.9519 89.7814 44.9642 89.8994 44.9987 90.0113C45.0332 90.1234 45.0892 90.2278 45.1637 90.318C45.2382 90.4081 45.3292 90.4831 45.4323 90.5377C45.5353 90.5923 45.6484 90.6255 45.7643 90.6363H53.3883C53.6965 90.6312 53.9955 90.7457 54.2223 90.9557C54.4491 91.1656 54.5873 91.4558 54.6081 91.7652C54.6203 92.0798 54.5076 92.3863 54.2956 92.6178C54.0833 92.8494 53.7881 92.9868 53.4752 92.9996H45.9098C44.1288 92.9996 42.6311 91.5973 42.5885 89.817C42.5801 89.3871 42.6555 88.9597 42.8112 88.5592C42.967 88.1585 43.1995 87.7922 43.4958 87.482C43.792 87.172 44.1462 86.9239 44.5377 86.7516C44.9294 86.5792 45.3516 86.4855 45.779 86.4772L62.6149 86.484C62.8387 86.4868 63.056 86.406 63.2243 86.2574C63.3924 86.1089 63.5006 85.9029 63.527 85.6793C63.5377 85.5626 63.5253 85.4446 63.4909 85.3326C63.4564 85.2206 63.4003 85.1162 63.3258 85.026C63.2513 84.9358 63.1594 84.8618 63.0563 84.8072C62.9532 84.7527 62.8403 84.7183 62.7243 84.7076L43.8522 84.7018C43.5169 84.7029 43.1946 84.5694 42.9567 84.3317C42.7188 84.0939 42.5849 83.7706 42.5836 83.4332C42.5777 81.8674 42.8835 80.3162 43.484 78.8717C44.0846 77.4272 44.9675 76.1189 46.0797 75.024Z"/>
<path d="M175.229 87.6012C175.32 87.6011 175.411 87.6189 175.496 87.6539C175.58 87.6891 175.657 87.7413 175.721 87.8063C175.786 87.8712 175.838 87.9479 175.873 88.0328C175.908 88.1178 175.926 88.2094 175.925 88.3014V88.3287C175.925 88.5141 175.852 88.6917 175.721 88.8229C175.591 88.9541 175.414 89.0279 175.229 89.0279C175.045 89.0278 174.868 88.954 174.738 88.8229C174.608 88.6917 174.534 88.5141 174.534 88.3287V88.3014C174.534 88.1158 174.608 87.9375 174.738 87.8063C174.868 87.6751 175.045 87.6013 175.229 87.6012Z"/>
<path d="M80.0876 75.1432C80.4128 75.1432 80.7247 75.273 80.9547 75.5045C81.1848 75.736 81.314 76.0501 81.3141 76.3776V79.2818C81.9285 79.2835 82.5943 79.2927 82.987 79.2984C83.148 79.301 83.3069 79.3357 83.4547 79.4C83.6026 79.4644 83.7361 79.558 83.8483 79.6744C83.9604 79.7908 84.0487 79.9281 84.1081 80.0787C84.1674 80.2296 84.1975 80.3911 84.195 80.5533C84.1924 80.7154 84.1574 80.8752 84.0934 81.024C84.0295 81.1728 83.9375 81.3077 83.8219 81.4205C83.7063 81.5333 83.5693 81.6225 83.4196 81.6822C83.2697 81.742 83.1091 81.7717 82.9479 81.7692C82.4048 81.7609 81.8111 81.7526 81.3122 81.7526V84.5524C81.3123 85.57 82.0532 86.3931 82.9645 86.3932L82.9674 86.3942C83.2926 86.3943 83.6046 86.5241 83.8346 86.7555C84.0648 86.9871 84.194 87.3019 84.194 87.6295C84.1939 87.957 84.0647 88.271 83.8346 88.5026C83.6046 88.7341 83.2927 88.8648 82.9674 88.8649C80.7031 88.8649 78.8602 86.9304 78.86 84.5533V76.3776C78.8601 76.0501 78.9894 75.736 79.2194 75.5045C79.4495 75.2729 79.7621 75.1432 80.0876 75.1432Z"/>
<path d="M107.686 78.6774C108.735 78.6785 109.74 79.098 110.482 79.8443C111.224 80.5906 111.641 81.6024 111.642 82.6578V87.6285C111.642 87.956 111.513 88.27 111.283 88.5016C111.053 88.7332 110.74 88.8639 110.415 88.8639C110.089 88.8638 109.778 88.7331 109.548 88.5016C109.317 88.27 109.188 87.9561 109.188 87.6285V82.6578C109.179 82.2632 109.017 81.8878 108.736 81.6119C108.455 81.336 108.078 81.1813 107.686 81.1813C107.294 81.1813 106.917 81.336 106.636 81.6119C106.356 81.8877 106.193 82.2633 106.184 82.6578V87.6285C106.184 87.9561 106.055 88.27 105.825 88.5016C105.595 88.7331 105.283 88.8638 104.958 88.8639H104.934C104.609 88.8639 104.296 88.7332 104.066 88.5016C103.836 88.27 103.707 87.956 103.707 87.6285V82.6578C103.697 82.2632 103.535 81.8878 103.255 81.6119C102.974 81.3361 102.597 81.1813 102.205 81.1813C101.813 81.1813 101.435 81.3361 101.155 81.6119C100.875 81.8877 100.713 82.2633 100.704 82.6578V87.6285C100.704 87.9559 100.574 88.27 100.344 88.5016C100.114 88.7332 99.8017 88.8639 99.4762 88.8639C99.1508 88.8639 98.8382 88.7332 98.6081 88.5016C98.3782 88.27 98.2487 87.9559 98.2487 87.6285V82.6578C98.2483 81.8773 98.4764 81.1138 98.904 80.4625C99.3317 79.8111 99.941 79.3004 100.655 78.9947C101.369 78.6892 102.156 78.6013 102.919 78.7428C103.681 78.8844 104.386 79.249 104.945 79.7906C105.68 79.0756 106.664 78.6769 107.686 78.6774Z"/>
<path d="M130.183 78.6774C131.232 78.6784 132.238 79.098 132.98 79.8443C133.722 80.5906 134.139 81.6025 134.14 82.6578C134.14 82.9854 134.011 83.3002 133.781 83.5318C133.551 83.7635 133.238 83.8932 132.913 83.8932C132.587 83.8932 132.275 83.7635 132.045 83.5318C131.815 83.3002 131.685 82.9853 131.685 82.6578C131.676 82.2633 131.514 81.8877 131.234 81.6119C130.953 81.3361 130.576 81.1813 130.184 81.1813C129.792 81.1813 129.415 81.3361 129.134 81.6119C128.854 81.8878 128.692 82.2632 128.682 82.6578V87.6285C128.682 87.956 128.553 88.27 128.323 88.5016C128.093 88.7331 127.781 88.8638 127.456 88.8639C127.13 88.8639 126.818 88.7332 126.588 88.5016C126.358 88.27 126.228 87.956 126.228 87.6285V82.6578C126.23 81.6025 126.647 80.5906 127.388 79.8443C128.13 79.0982 129.135 78.6788 130.183 78.6774Z"/>
<path d="M140.203 78.6774C141.252 78.6784 142.257 79.098 142.999 79.8443C143.74 80.5906 144.157 81.6023 144.159 82.6578C144.159 82.9854 144.03 83.3002 143.799 83.5318C143.569 83.7633 143.258 83.8931 142.932 83.8932C142.607 83.8932 142.294 83.7635 142.064 83.5318C141.834 83.3002 141.705 82.9854 141.705 82.6578C141.695 82.2632 141.533 81.8877 141.253 81.6119C140.972 81.3363 140.596 81.1814 140.204 81.1813C139.812 81.1813 139.435 81.3362 139.154 81.6119C138.873 81.8877 138.711 82.2632 138.702 82.6578V87.6285C138.702 87.956 138.572 88.27 138.342 88.5016C138.112 88.7332 137.8 88.8639 137.474 88.8639C137.149 88.8638 136.837 88.7331 136.607 88.5016C136.377 88.27 136.248 87.9561 136.248 87.6285V82.6578C136.249 81.6026 136.666 80.5906 137.407 79.8443C138.148 79.098 139.154 78.6787 140.203 78.6774Z"/>
<path d="M191.431 79.8707C191.593 79.8725 191.748 79.939 191.862 80.0553C191.976 80.1716 192.04 80.3286 192.039 80.4918L191.998 88.2496C191.997 88.4127 191.931 88.5692 191.816 88.6842C191.701 88.799 191.545 88.8639 191.383 88.8639C191.303 88.8634 191.223 88.8464 191.149 88.8151C191.075 88.7836 191.007 88.7379 190.951 88.6803C190.894 88.6226 190.849 88.5542 190.819 88.4791C190.789 88.4041 190.773 88.3238 190.773 88.2428L190.814 80.485C190.815 80.4039 190.831 80.3234 190.862 80.2486C190.893 80.174 190.939 80.1064 190.997 80.0494C191.054 79.9925 191.121 79.9472 191.196 79.9166C191.271 79.886 191.351 79.8703 191.431 79.8707Z"/>
<path fill-rule="evenodd" clip-rule="evenodd" d="M179.116 74.1442C179.279 74.1442 179.434 74.2091 179.549 74.3248C179.664 74.4406 179.729 74.5976 179.729 74.7613V80.5631C180.196 80.0226 180.772 79.5896 181.42 79.2926C182.067 78.9956 182.77 78.8414 183.481 78.8414C184.466 78.8414 185.428 79.1356 186.247 79.6861C187.066 80.2368 187.704 81.0195 188.081 81.9352C188.458 82.8509 188.556 83.8586 188.364 84.8307C188.172 85.8026 187.698 86.6953 187.002 87.3961C186.305 88.0969 185.418 88.5748 184.453 88.7682C183.487 88.9615 182.486 88.8622 181.576 88.483C180.666 88.1038 179.889 87.4613 179.341 86.6373C178.794 85.8133 178.502 84.8442 178.502 83.8531V74.7613C178.502 74.5977 178.566 74.4406 178.681 74.3248C178.796 74.209 178.953 74.1442 179.116 74.1442ZM184.918 80.3639C184.232 80.078 183.477 80.0025 182.75 80.1481C182.022 80.2936 181.353 80.6534 180.829 81.1813C180.304 81.7093 179.946 82.3824 179.801 83.1149C179.657 83.8472 179.731 84.6066 180.014 85.2965C180.298 85.9865 180.779 86.5768 181.396 86.9918C182.013 87.4068 182.739 87.6285 183.481 87.6285C184.476 87.6274 185.429 87.2288 186.132 86.5211C186.836 85.8134 187.232 84.854 187.233 83.8531C187.233 83.1063 187.013 82.3756 186.601 81.7545C186.189 81.1335 185.603 80.6498 184.918 80.3639Z"/>
<path fill-rule="evenodd" clip-rule="evenodd" d="M199.294 78.8414C200.614 78.8428 201.879 79.3717 202.812 80.3111C203.746 81.2507 204.271 82.5245 204.272 83.8531C204.272 84.8442 203.98 85.8133 203.433 86.6373C202.886 87.4613 202.109 88.1037 201.199 88.483C200.289 88.8623 199.288 88.9615 198.322 88.7682C197.356 88.5748 196.468 88.097 195.772 87.3961C195.076 86.6953 194.602 85.8026 194.41 84.8307C194.218 83.8586 194.316 82.8508 194.693 81.9352C195.07 81.0195 195.708 80.2368 196.527 79.6861C197.346 79.1355 198.309 78.8414 199.294 78.8414ZM200.729 80.3639C200.044 80.0781 199.29 80.0026 198.562 80.1481C197.834 80.2937 197.165 80.6532 196.64 81.1813C196.116 81.7093 195.759 82.3824 195.614 83.1149C195.469 83.8474 195.543 84.6074 195.827 85.2975C196.111 85.9874 196.592 86.5769 197.209 86.9918C197.826 87.4068 198.552 87.6285 199.294 87.6285C200.288 87.6276 201.242 87.2297 201.945 86.5221C202.648 85.8143 203.043 84.8542 203.045 83.8531C203.045 83.1062 202.825 82.3756 202.413 81.7545C202.001 81.1336 201.415 80.6498 200.729 80.3639Z"/>
<path fill-rule="evenodd" clip-rule="evenodd" d="M90.8834 78.7359C92.2174 78.7375 93.4969 79.271 94.4401 80.2203C95.3832 81.1696 95.9131 82.457 95.9147 83.7994C95.9147 84.801 95.6198 85.7801 95.067 86.6129C94.5142 87.4456 93.7285 88.0948 92.8092 88.4781C91.8899 88.8614 90.878 88.9616 89.902 88.7662C88.9261 88.5708 88.0294 88.0887 87.3258 87.3805C86.6223 86.6723 86.143 85.77 85.9489 84.7877C85.7548 83.8055 85.8543 82.7872 86.235 81.8619C86.6158 80.9366 87.2612 80.1459 88.0885 79.5895C88.9159 79.0331 89.8884 78.736 90.8834 78.7359ZM91.8698 81.4029C91.3989 81.2067 90.8803 81.1554 90.3805 81.2555C89.8808 81.3556 89.4215 81.6028 89.0612 81.9654C88.7008 82.3282 88.4555 82.7905 88.3561 83.2936C88.2567 83.7967 88.3075 84.3186 88.5026 84.7926C88.6976 85.2665 89.0281 85.6717 89.4518 85.9567C89.8755 86.2416 90.3739 86.3931 90.8834 86.3932C91.5665 86.3925 92.2216 86.1194 92.7047 85.6334C93.1879 85.1471 93.4599 84.4871 93.4606 83.7994C93.4606 83.2865 93.3091 82.7855 93.026 82.359C92.7429 81.9324 92.3407 81.5993 91.8698 81.4029Z"/>
<path fill-rule="evenodd" clip-rule="evenodd" d="M118.944 78.7359C120.278 78.7375 121.557 79.271 122.501 80.2203C123.444 81.1696 123.975 82.4569 123.976 83.7994C123.976 84.801 123.68 85.7801 123.128 86.6129C122.575 87.4457 121.789 88.0948 120.87 88.4781C119.95 88.8614 118.939 88.9616 117.963 88.7662C116.987 88.5708 116.09 88.0886 115.386 87.3805C114.683 86.6723 114.204 85.7699 114.009 84.7877C113.815 83.8054 113.916 82.7873 114.297 81.8619C114.677 80.9367 115.322 80.1459 116.149 79.5895C116.976 79.0331 117.949 78.736 118.944 78.7359ZM119.93 81.4029C119.46 81.2068 118.942 81.1555 118.442 81.2555C117.942 81.3555 117.483 81.6029 117.123 81.9654C116.762 82.3282 116.516 82.7904 116.417 83.2936C116.317 83.7967 116.368 84.3186 116.563 84.7926C116.758 85.2665 117.089 85.6717 117.512 85.9567C117.936 86.2416 118.434 86.3931 118.944 86.3932C119.627 86.3925 120.283 86.1197 120.766 85.6334C121.249 85.1471 121.52 84.4871 121.521 83.7994C121.521 83.2867 121.37 82.7854 121.088 82.359C120.804 81.9324 120.401 81.5993 119.93 81.4029Z"/>
<path fill-rule="evenodd" clip-rule="evenodd" d="M151.259 78.7359C152.593 78.7375 153.872 79.2711 154.815 80.2203C155.758 81.1696 156.289 82.4569 156.291 83.7994C156.291 84.8009 155.996 85.7802 155.443 86.6129C154.89 87.4456 154.104 88.0948 153.185 88.4781C152.266 88.8614 151.254 88.9616 150.278 88.7662C149.302 88.5708 148.405 88.0887 147.702 87.3805C146.998 86.6723 146.519 85.77 146.325 84.7877C146.131 83.8054 146.23 82.7872 146.611 81.8619C146.992 80.9366 147.637 80.1459 148.465 79.5895C149.292 79.033 150.264 78.7359 151.259 78.7359ZM152.246 81.4029C151.775 81.2066 151.256 81.1554 150.757 81.2555C150.257 81.3556 149.798 81.6027 149.437 81.9654C149.077 82.3282 148.832 82.7905 148.732 83.2936C148.633 83.7967 148.684 84.3186 148.879 84.7926C149.074 85.2664 149.404 85.6717 149.828 85.9567C150.252 86.2416 150.75 86.3932 151.259 86.3932C151.943 86.3925 152.598 86.1195 153.081 85.6334C153.564 85.1471 153.836 84.4871 153.837 83.7994C153.837 83.2866 153.685 82.7854 153.402 82.359C153.119 81.9325 152.717 81.5993 152.246 81.4029Z"/>
<path d="M165.252 78.6774C165.577 78.6774 165.889 78.8072 166.119 79.0387C166.349 79.2702 166.478 79.5843 166.478 79.9117V84.8824C166.487 85.2771 166.65 85.6524 166.93 85.9283C167.211 86.2042 167.588 86.359 167.98 86.359C168.372 86.359 168.749 86.2043 169.03 85.9283C169.31 85.6524 169.473 85.2771 169.482 84.8824V79.9117C169.482 79.5843 169.611 79.2702 169.841 79.0387C170.072 78.8072 170.383 78.6774 170.709 78.6774C171.034 78.6774 171.347 78.807 171.577 79.0387C171.807 79.2702 171.936 79.5843 171.936 79.9117V84.8824C171.937 85.6634 171.709 86.4271 171.281 87.0787C170.853 87.7303 170.244 88.2408 169.53 88.5465C168.816 88.8521 168.028 88.9402 167.265 88.7985C166.502 88.6567 165.797 88.2917 165.239 87.7496C164.68 88.2914 163.975 88.6559 163.213 88.7975C162.45 88.939 161.663 88.8511 160.949 88.5455C160.235 88.2399 159.626 87.7301 159.198 87.0787C158.77 86.4273 158.542 85.6633 158.543 84.8824V79.9117C158.543 79.5844 158.672 79.2702 158.902 79.0387C159.132 78.8071 159.445 78.6774 159.77 78.6774C160.096 78.6774 160.408 78.807 160.638 79.0387C160.868 79.2702 160.998 79.5844 160.998 79.9117V84.8824C161.007 85.277 161.168 85.6525 161.449 85.9283C161.729 86.2042 162.106 86.3589 162.499 86.359C162.891 86.359 163.268 86.2043 163.548 85.9283C163.829 85.6524 163.991 85.2771 164.001 84.8824V79.9117C164.001 79.5843 164.13 79.2702 164.36 79.0387C164.59 78.8071 164.903 78.6774 165.228 78.6774H165.252Z"/>
<path d="M38.0915 76.9938C38.2459 76.982 38.4013 77.0008 38.5485 77.0494L41.8522 78.1197C42.1195 78.2063 42.3475 78.386 42.4948 78.6266C42.6421 78.8674 42.6986 79.1539 42.6549 79.4332C42.6112 79.7124 42.47 79.9665 42.2565 80.15C42.0429 80.3337 41.7708 80.4345 41.4899 80.4342L41.4782 80.4332C41.3554 80.4324 41.2327 80.4125 41.1159 80.3746L37.8122 79.3053C37.5151 79.2071 37.2688 78.9943 37.1276 78.7135C37.0578 78.5745 37.0153 78.4225 37.0036 78.2672C36.9919 78.1119 37.011 77.9553 37.0592 77.8072C37.1569 77.508 37.3689 77.2599 37.6481 77.1178C37.7863 77.0475 37.937 77.0055 38.0915 76.9938Z"/>
<path d="M71.1344 76.9723C71.2907 76.9784 71.4448 77.0153 71.5866 77.0817C71.7283 77.148 71.8553 77.2427 71.9606 77.359C72.0659 77.4752 72.1473 77.6113 72.1999 77.7594C72.2524 77.9076 72.2746 78.0652 72.2663 78.2223C72.2579 78.3794 72.2191 78.5337 72.151 78.6754C72.083 78.8171 71.9879 78.9442 71.8708 79.0484C71.7536 79.1527 71.6165 79.2321 71.4684 79.2828C71.4488 79.2902 71.4292 79.2966 71.4088 79.3024L68.1061 80.3736C67.9591 80.4216 67.8041 80.4396 67.6501 80.4274C67.4959 80.415 67.3454 80.3721 67.2077 80.3014C67.0699 80.2306 66.9467 80.1328 66.8463 80.0143C66.7461 79.8959 66.6694 79.7589 66.6217 79.6109C66.574 79.4628 66.5558 79.3062 66.568 79.151C66.5803 78.9958 66.6237 78.8443 66.694 78.7057C66.7643 78.5671 66.8605 78.4434 66.9782 78.3424C67.0959 78.2414 67.2324 78.1648 67.3795 78.1168L70.6754 77.0465C70.8219 76.9914 70.9782 76.9662 71.1344 76.9723Z"/>
<path d="M191.387 77.3873C191.478 77.3872 191.569 77.4051 191.653 77.4401C191.737 77.4752 191.814 77.5274 191.879 77.5924C191.943 77.6573 191.995 77.7341 192.03 77.819C192.065 77.9039 192.083 77.9956 192.083 78.0875V78.1149C192.083 78.3003 192.009 78.4778 191.879 78.609C191.748 78.7402 191.572 78.814 191.387 78.8141C191.203 78.8141 191.026 78.7403 190.895 78.609C190.765 78.4778 190.692 78.3002 190.692 78.1149V78.0875C190.692 77.9019 190.765 77.7236 190.895 77.5924C191.026 77.4611 191.203 77.3873 191.387 77.3873Z"/>
<path d="M67.5045 70.7399C67.8187 70.7466 68.118 70.8788 68.3366 71.1061C68.444 71.2182 68.5282 71.3507 68.5846 71.4957C68.6411 71.6409 68.669 71.7959 68.6657 71.9518C68.6623 72.1078 68.6278 72.2622 68.5651 72.4049C68.5025 72.5475 68.4127 72.6764 68.3004 72.7838C68.2825 72.8002 68.2645 72.817 68.2458 72.8326L65.6637 75.1568C65.4461 75.3531 65.1639 75.4617 64.8717 75.4615C64.6327 75.4631 64.3985 75.3918 64.2008 75.2565C64.0033 75.1211 63.8515 74.928 63.7653 74.7037C63.6791 74.4793 63.6627 74.2336 63.7184 73.9996C63.7742 73.7657 63.8989 73.5538 64.0768 73.3932L66.6579 71.069C66.8859 70.8513 67.1904 70.7331 67.5045 70.7399Z"/>
<path d="M41.6442 70.7447C41.9571 70.7185 42.2677 70.8173 42.5085 71.0201L42.5631 71.0699L45.1442 73.3932C45.2597 73.497 45.3536 73.6228 45.4206 73.7633C45.4875 73.9039 45.5267 74.0568 45.5348 74.2125C45.5429 74.3683 45.5195 74.5245 45.4674 74.6715C45.4153 74.8185 45.3345 74.9535 45.2301 75.069C45.019 75.3026 44.7251 75.4432 44.4118 75.4596C44.0983 75.4759 43.7904 75.3674 43.5563 75.1568L40.9762 72.8317C40.8577 72.7317 40.7594 72.6095 40.6881 72.4713C40.6168 72.333 40.5742 72.1813 40.5612 72.026C40.5482 71.8707 40.5656 71.7144 40.6129 71.566C40.6603 71.4177 40.7363 71.2804 40.8366 71.1617C41.0406 70.9211 41.331 70.7711 41.6442 70.7447Z"/>
<path d="M47.1002 66.6412C47.3875 66.513 47.7139 66.505 48.0075 66.6178C48.3011 66.7307 48.5394 66.9563 48.6686 67.2447L50.0807 70.4166C50.2079 70.7063 50.2158 71.0354 50.1022 71.3307C49.9886 71.626 49.763 71.8638 49.4752 71.9918C49.1874 72.1198 48.8605 72.1276 48.567 72.0133C48.2739 71.899 48.0379 71.6719 47.9108 71.3824L46.4977 68.2057C46.4349 68.0634 46.4009 67.9101 46.3971 67.7545C46.3934 67.5986 46.4202 67.4429 46.4762 67.2975C46.5323 67.1522 46.6161 67.0194 46.7233 66.9068C46.8304 66.7943 46.9584 66.7037 47.1002 66.6412Z"/>
<path d="M61.2126 66.6197C61.5061 66.5068 61.8324 66.516 62.1198 66.6442C62.2616 66.7068 62.3906 66.7972 62.4977 66.9098C62.6047 67.0223 62.6888 67.1552 62.7448 67.3004C62.8007 67.4457 62.8275 67.6007 62.8239 67.7565C62.8202 67.9123 62.7861 68.0661 62.7233 68.2086L61.3112 71.3824C61.2172 71.5925 61.0641 71.7703 60.8717 71.8951C60.6793 72.02 60.4552 72.0871 60.2262 72.0865V72.0885C60.0288 72.0906 59.834 72.0424 59.6598 71.9488C59.4857 71.8553 59.3373 71.7195 59.2292 71.5533C59.121 71.3871 59.0562 71.1958 59.0407 70.9977C59.0252 70.7997 59.0595 70.6008 59.1403 70.4195L60.5524 67.2467C60.6816 66.9583 60.919 66.7327 61.2126 66.6197Z"/>
<path d="M54.5749 65.0006C54.8894 64.9906 55.195 65.1071 55.4245 65.3238C55.654 65.5406 55.7885 65.8402 55.7985 66.1568V69.7057C55.7982 69.8618 55.7673 70.0166 55.7077 70.1608C55.648 70.3048 55.5607 70.4354 55.4508 70.5455C55.3409 70.6557 55.2105 70.7439 55.067 70.8033C54.9237 70.8627 54.7699 70.8925 54.6149 70.8922C54.4594 70.8931 54.3048 70.8635 54.1608 70.8043C54.017 70.7451 53.8864 70.6576 53.776 70.5475C53.6656 70.4373 53.5782 70.3061 53.5182 70.1617C53.4582 70.0173 53.4268 69.8622 53.4264 69.7057V66.233C53.4164 65.9165 53.5315 65.6085 53.7467 65.3776C53.9621 65.1465 54.2602 65.0106 54.5749 65.0006Z"/>
</mask>
<path d="M46.0797 75.024C50.7895 70.3725 58.3771 70.42 63.028 75.1315C64.3033 76.4227 65.2697 77.9901 65.8532 79.7135C65.9025 79.8615 65.9226 80.0178 65.9118 80.1734C65.9009 80.3292 65.8591 80.4811 65.7897 80.6207C65.7202 80.7604 65.6239 80.8848 65.5065 80.9869C65.389 81.089 65.2525 81.1666 65.1051 81.2154L65.0417 81.235C64.7452 81.3119 64.4305 81.2723 64.1618 81.1246C63.8932 80.9769 63.6903 80.7316 63.5944 80.4391C62.9462 78.5394 61.723 76.892 60.0973 75.7272C58.4716 74.5624 56.5245 73.9384 54.529 73.944C49.6932 73.944 45.6827 77.5175 45.0446 82.1451C45.0414 82.167 45.043 82.1892 45.0485 82.2106C45.0541 82.2322 45.0642 82.2525 45.0778 82.2701C45.0914 82.2877 45.1082 82.3023 45.1276 82.3131C45.1469 82.3238 45.1681 82.3314 45.1901 82.3336C45.1977 82.3344 45.2059 82.3344 45.2135 82.3336L62.5807 82.3395C64.3617 82.3395 65.8606 83.7421 65.904 85.5289C65.9125 85.9591 65.8371 86.387 65.6813 86.7877C65.5256 87.1884 65.2921 87.5538 64.9958 87.8639C64.6995 88.1739 64.3454 88.4221 63.9538 88.5943C63.5621 88.7666 63.1408 88.8596 62.7135 88.8678L45.8747 88.861C45.6509 88.8579 45.4337 88.9391 45.2653 89.0875C45.0971 89.2358 44.9893 89.4412 44.9626 89.6647C44.9519 89.7814 44.9642 89.8994 44.9987 90.0113C45.0332 90.1234 45.0892 90.2278 45.1637 90.318C45.2382 90.4081 45.3292 90.4831 45.4323 90.5377C45.5353 90.5923 45.6484 90.6255 45.7643 90.6363H53.3883C53.6965 90.6312 53.9955 90.7457 54.2223 90.9557C54.4491 91.1656 54.5873 91.4558 54.6081 91.7652C54.6203 92.0798 54.5076 92.3863 54.2956 92.6178C54.0833 92.8494 53.7881 92.9868 53.4752 92.9996H45.9098C44.1288 92.9996 42.6311 91.5973 42.5885 89.817C42.5801 89.3871 42.6555 88.9597 42.8112 88.5592C42.967 88.1585 43.1995 87.7922 43.4958 87.482C43.792 87.172 44.1462 86.9239 44.5377 86.7516C44.9294 86.5792 45.3516 86.4855 45.779 86.4772L62.6149 86.484C62.8387 86.4868 63.056 86.406 63.2243 86.2574C63.3924 86.1089 63.5006 85.9029 63.527 85.6793C63.5377 85.5626 63.5253 85.4446 63.4909 85.3326C63.4564 85.2206 63.4003 85.1162 63.3258 85.026C63.2513 84.9358 63.1594 84.8618 63.0563 84.8072C62.9532 84.7527 62.8403 84.7183 62.7243 84.7076L43.8522 84.7018C43.5169 84.7029 43.1946 84.5694 42.9567 84.3317C42.7188 84.0939 42.5849 83.7706 42.5836 83.4332C42.5777 81.8674 42.8835 80.3162 43.484 78.8717C44.0846 77.4272 44.9675 76.1189 46.0797 75.024Z" fill="#1A1A1A"/>
<path d="M175.229 87.6012C175.32 87.6011 175.411 87.6189 175.496 87.6539C175.58 87.6891 175.657 87.7413 175.721 87.8063C175.786 87.8712 175.838 87.9479 175.873 88.0328C175.908 88.1178 175.926 88.2094 175.925 88.3014V88.3287C175.925 88.5141 175.852 88.6917 175.721 88.8229C175.591 88.9541 175.414 89.0279 175.229 89.0279C175.045 89.0278 174.868 88.954 174.738 88.8229C174.608 88.6917 174.534 88.5141 174.534 88.3287V88.3014C174.534 88.1158 174.608 87.9375 174.738 87.8063C174.868 87.6751 175.045 87.6013 175.229 87.6012Z" fill="#1A1A1A"/>
<path d="M80.0876 75.1432C80.4128 75.1432 80.7247 75.273 80.9547 75.5045C81.1848 75.736 81.314 76.0501 81.3141 76.3776V79.2818C81.9285 79.2835 82.5943 79.2927 82.987 79.2984C83.148 79.301 83.3069 79.3357 83.4547 79.4C83.6026 79.4644 83.7361 79.558 83.8483 79.6744C83.9604 79.7908 84.0487 79.9281 84.1081 80.0787C84.1674 80.2296 84.1975 80.3911 84.195 80.5533C84.1924 80.7154 84.1574 80.8752 84.0934 81.024C84.0295 81.1728 83.9375 81.3077 83.8219 81.4205C83.7063 81.5333 83.5693 81.6225 83.4196 81.6822C83.2697 81.742 83.1091 81.7717 82.9479 81.7692C82.4048 81.7609 81.8111 81.7526 81.3122 81.7526V84.5524C81.3123 85.57 82.0532 86.3931 82.9645 86.3932L82.9674 86.3942C83.2926 86.3943 83.6046 86.5241 83.8346 86.7555C84.0648 86.9871 84.194 87.3019 84.194 87.6295C84.1939 87.957 84.0647 88.271 83.8346 88.5026C83.6046 88.7341 83.2927 88.8648 82.9674 88.8649C80.7031 88.8649 78.8602 86.9304 78.86 84.5533V76.3776C78.8601 76.0501 78.9894 75.736 79.2194 75.5045C79.4495 75.2729 79.7621 75.1432 80.0876 75.1432Z" fill="#1A1A1A"/>
<path d="M107.686 78.6774C108.735 78.6785 109.74 79.098 110.482 79.8443C111.224 80.5906 111.641 81.6024 111.642 82.6578V87.6285C111.642 87.956 111.513 88.27 111.283 88.5016C111.053 88.7332 110.74 88.8639 110.415 88.8639C110.089 88.8638 109.778 88.7331 109.548 88.5016C109.317 88.27 109.188 87.9561 109.188 87.6285V82.6578C109.179 82.2632 109.017 81.8878 108.736 81.6119C108.455 81.336 108.078 81.1813 107.686 81.1813C107.294 81.1813 106.917 81.336 106.636 81.6119C106.356 81.8877 106.193 82.2633 106.184 82.6578V87.6285C106.184 87.9561 106.055 88.27 105.825 88.5016C105.595 88.7331 105.283 88.8638 104.958 88.8639H104.934C104.609 88.8639 104.296 88.7332 104.066 88.5016C103.836 88.27 103.707 87.956 103.707 87.6285V82.6578C103.697 82.2632 103.535 81.8878 103.255 81.6119C102.974 81.3361 102.597 81.1813 102.205 81.1813C101.813 81.1813 101.435 81.3361 101.155 81.6119C100.875 81.8877 100.713 82.2633 100.704 82.6578V87.6285C100.704 87.9559 100.574 88.27 100.344 88.5016C100.114 88.7332 99.8017 88.8639 99.4762 88.8639C99.1508 88.8639 98.8382 88.7332 98.6081 88.5016C98.3782 88.27 98.2487 87.9559 98.2487 87.6285V82.6578C98.2483 81.8773 98.4764 81.1138 98.904 80.4625C99.3317 79.8111 99.941 79.3004 100.655 78.9947C101.369 78.6892 102.156 78.6013 102.919 78.7428C103.681 78.8844 104.386 79.249 104.945 79.7906C105.68 79.0756 106.664 78.6769 107.686 78.6774Z" fill="#1A1A1A"/>
<path d="M130.183 78.6774C131.232 78.6784 132.238 79.098 132.98 79.8443C133.722 80.5906 134.139 81.6025 134.14 82.6578C134.14 82.9854 134.011 83.3002 133.781 83.5318C133.551 83.7635 133.238 83.8932 132.913 83.8932C132.587 83.8932 132.275 83.7635 132.045 83.5318C131.815 83.3002 131.685 82.9853 131.685 82.6578C131.676 82.2633 131.514 81.8877 131.234 81.6119C130.953 81.3361 130.576 81.1813 130.184 81.1813C129.792 81.1813 129.415 81.3361 129.134 81.6119C128.854 81.8878 128.692 82.2632 128.682 82.6578V87.6285C128.682 87.956 128.553 88.27 128.323 88.5016C128.093 88.7331 127.781 88.8638 127.456 88.8639C127.13 88.8639 126.818 88.7332 126.588 88.5016C126.358 88.27 126.228 87.956 126.228 87.6285V82.6578C126.23 81.6025 126.647 80.5906 127.388 79.8443C128.13 79.0982 129.135 78.6788 130.183 78.6774Z" fill="#1A1A1A"/>
<path d="M140.203 78.6774C141.252 78.6784 142.257 79.098 142.999 79.8443C143.74 80.5906 144.157 81.6023 144.159 82.6578C144.159 82.9854 144.03 83.3002 143.799 83.5318C143.569 83.7633 143.258 83.8931 142.932 83.8932C142.607 83.8932 142.294 83.7635 142.064 83.5318C141.834 83.3002 141.705 82.9854 141.705 82.6578C141.695 82.2632 141.533 81.8877 141.253 81.6119C140.972 81.3363 140.596 81.1814 140.204 81.1813C139.812 81.1813 139.435 81.3362 139.154 81.6119C138.873 81.8877 138.711 82.2632 138.702 82.6578V87.6285C138.702 87.956 138.572 88.27 138.342 88.5016C138.112 88.7332 137.8 88.8639 137.474 88.8639C137.149 88.8638 136.837 88.7331 136.607 88.5016C136.377 88.27 136.248 87.9561 136.248 87.6285V82.6578C136.249 81.6026 136.666 80.5906 137.407 79.8443C138.148 79.098 139.154 78.6787 140.203 78.6774Z" fill="#1A1A1A"/>
<path d="M191.431 79.8707C191.593 79.8725 191.748 79.939 191.862 80.0553C191.976 80.1716 192.04 80.3286 192.039 80.4918L191.998 88.2496C191.997 88.4127 191.931 88.5692 191.816 88.6842C191.701 88.799 191.545 88.8639 191.383 88.8639C191.303 88.8634 191.223 88.8464 191.149 88.8151C191.075 88.7836 191.007 88.7379 190.951 88.6803C190.894 88.6226 190.849 88.5542 190.819 88.4791C190.789 88.4041 190.773 88.3238 190.773 88.2428L190.814 80.485C190.815 80.4039 190.831 80.3234 190.862 80.2486C190.893 80.174 190.939 80.1064 190.997 80.0494C191.054 79.9925 191.121 79.9472 191.196 79.9166C191.271 79.886 191.351 79.8703 191.431 79.8707Z" fill="#1A1A1A"/>
<path fill-rule="evenodd" clip-rule="evenodd" d="M179.116 74.1442C179.279 74.1442 179.434 74.2091 179.549 74.3248C179.664 74.4406 179.729 74.5976 179.729 74.7613V80.5631C180.196 80.0226 180.772 79.5896 181.42 79.2926C182.067 78.9956 182.77 78.8414 183.481 78.8414C184.466 78.8414 185.428 79.1356 186.247 79.6861C187.066 80.2368 187.704 81.0195 188.081 81.9352C188.458 82.8509 188.556 83.8586 188.364 84.8307C188.172 85.8026 187.698 86.6953 187.002 87.3961C186.305 88.0969 185.418 88.5748 184.453 88.7682C183.487 88.9615 182.486 88.8622 181.576 88.483C180.666 88.1038 179.889 87.4613 179.341 86.6373C178.794 85.8133 178.502 84.8442 178.502 83.8531V74.7613C178.502 74.5977 178.566 74.4406 178.681 74.3248C178.796 74.209 178.953 74.1442 179.116 74.1442ZM184.918 80.3639C184.232 80.078 183.477 80.0025 182.75 80.1481C182.022 80.2936 181.353 80.6534 180.829 81.1813C180.304 81.7093 179.946 82.3824 179.801 83.1149C179.657 83.8472 179.731 84.6066 180.014 85.2965C180.298 85.9865 180.779 86.5768 181.396 86.9918C182.013 87.4068 182.739 87.6285 183.481 87.6285C184.476 87.6274 185.429 87.2288 186.132 86.5211C186.836 85.8134 187.232 84.854 187.233 83.8531C187.233 83.1063 187.013 82.3756 186.601 81.7545C186.189 81.1335 185.603 80.6498 184.918 80.3639Z" fill="#1A1A1A"/>
<path fill-rule="evenodd" clip-rule="evenodd" d="M199.294 78.8414C200.614 78.8428 201.879 79.3717 202.812 80.3111C203.746 81.2507 204.271 82.5245 204.272 83.8531C204.272 84.8442 203.98 85.8133 203.433 86.6373C202.886 87.4613 202.109 88.1037 201.199 88.483C200.289 88.8623 199.288 88.9615 198.322 88.7682C197.356 88.5748 196.468 88.097 195.772 87.3961C195.076 86.6953 194.602 85.8026 194.41 84.8307C194.218 83.8586 194.316 82.8508 194.693 81.9352C195.07 81.0195 195.708 80.2368 196.527 79.6861C197.346 79.1355 198.309 78.8414 199.294 78.8414ZM200.729 80.3639C200.044 80.0781 199.29 80.0026 198.562 80.1481C197.834 80.2937 197.165 80.6532 196.64 81.1813C196.116 81.7093 195.759 82.3824 195.614 83.1149C195.469 83.8474 195.543 84.6074 195.827 85.2975C196.111 85.9874 196.592 86.5769 197.209 86.9918C197.826 87.4068 198.552 87.6285 199.294 87.6285C200.288 87.6276 201.242 87.2297 201.945 86.5221C202.648 85.8143 203.043 84.8542 203.045 83.8531C203.045 83.1062 202.825 82.3756 202.413 81.7545C202.001 81.1336 201.415 80.6498 200.729 80.3639Z" fill="#1A1A1A"/>
<path fill-rule="evenodd" clip-rule="evenodd" d="M90.8834 78.7359C92.2174 78.7375 93.4969 79.271 94.4401 80.2203C95.3832 81.1696 95.9131 82.457 95.9147 83.7994C95.9147 84.801 95.6198 85.7801 95.067 86.6129C94.5142 87.4456 93.7285 88.0948 92.8092 88.4781C91.8899 88.8614 90.878 88.9616 89.902 88.7662C88.9261 88.5708 88.0294 88.0887 87.3258 87.3805C86.6223 86.6723 86.143 85.77 85.9489 84.7877C85.7548 83.8055 85.8543 82.7872 86.235 81.8619C86.6158 80.9366 87.2612 80.1459 88.0885 79.5895C88.9159 79.0331 89.8884 78.736 90.8834 78.7359ZM91.8698 81.4029C91.3989 81.2067 90.8803 81.1554 90.3805 81.2555C89.8808 81.3556 89.4215 81.6028 89.0612 81.9654C88.7008 82.3282 88.4555 82.7905 88.3561 83.2936C88.2567 83.7967 88.3075 84.3186 88.5026 84.7926C88.6976 85.2665 89.0281 85.6717 89.4518 85.9567C89.8755 86.2416 90.3739 86.3931 90.8834 86.3932C91.5665 86.3925 92.2216 86.1194 92.7047 85.6334C93.1879 85.1471 93.4599 84.4871 93.4606 83.7994C93.4606 83.2865 93.3091 82.7855 93.026 82.359C92.7429 81.9324 92.3407 81.5993 91.8698 81.4029Z" fill="#1A1A1A"/>
<path fill-rule="evenodd" clip-rule="evenodd" d="M118.944 78.7359C120.278 78.7375 121.557 79.271 122.501 80.2203C123.444 81.1696 123.975 82.4569 123.976 83.7994C123.976 84.801 123.68 85.7801 123.128 86.6129C122.575 87.4457 121.789 88.0948 120.87 88.4781C119.95 88.8614 118.939 88.9616 117.963 88.7662C116.987 88.5708 116.09 88.0886 115.386 87.3805C114.683 86.6723 114.204 85.7699 114.009 84.7877C113.815 83.8054 113.916 82.7873 114.297 81.8619C114.677 80.9367 115.322 80.1459 116.149 79.5895C116.976 79.0331 117.949 78.736 118.944 78.7359ZM119.93 81.4029C119.46 81.2068 118.942 81.1555 118.442 81.2555C117.942 81.3555 117.483 81.6029 117.123 81.9654C116.762 82.3282 116.516 82.7904 116.417 83.2936C116.317 83.7967 116.368 84.3186 116.563 84.7926C116.758 85.2665 117.089 85.6717 117.512 85.9567C117.936 86.2416 118.434 86.3931 118.944 86.3932C119.627 86.3925 120.283 86.1197 120.766 85.6334C121.249 85.1471 121.52 84.4871 121.521 83.7994C121.521 83.2867 121.37 82.7854 121.088 82.359C120.804 81.9324 120.401 81.5993 119.93 81.4029Z" fill="#1A1A1A"/>
<path fill-rule="evenodd" clip-rule="evenodd" d="M151.259 78.7359C152.593 78.7375 153.872 79.2711 154.815 80.2203C155.758 81.1696 156.289 82.4569 156.291 83.7994C156.291 84.8009 155.996 85.7802 155.443 86.6129C154.89 87.4456 154.104 88.0948 153.185 88.4781C152.266 88.8614 151.254 88.9616 150.278 88.7662C149.302 88.5708 148.405 88.0887 147.702 87.3805C146.998 86.6723 146.519 85.77 146.325 84.7877C146.131 83.8054 146.23 82.7872 146.611 81.8619C146.992 80.9366 147.637 80.1459 148.465 79.5895C149.292 79.033 150.264 78.7359 151.259 78.7359ZM152.246 81.4029C151.775 81.2066 151.256 81.1554 150.757 81.2555C150.257 81.3556 149.798 81.6027 149.437 81.9654C149.077 82.3282 148.832 82.7905 148.732 83.2936C148.633 83.7967 148.684 84.3186 148.879 84.7926C149.074 85.2664 149.404 85.6717 149.828 85.9567C150.252 86.2416 150.75 86.3932 151.259 86.3932C151.943 86.3925 152.598 86.1195 153.081 85.6334C153.564 85.1471 153.836 84.4871 153.837 83.7994C153.837 83.2866 153.685 82.7854 153.402 82.359C153.119 81.9325 152.717 81.5993 152.246 81.4029Z" fill="#1A1A1A"/>
<path d="M165.252 78.6774C165.577 78.6774 165.889 78.8072 166.119 79.0387C166.349 79.2702 166.478 79.5843 166.478 79.9117V84.8824C166.487 85.2771 166.65 85.6524 166.93 85.9283C167.211 86.2042 167.588 86.359 167.98 86.359C168.372 86.359 168.749 86.2043 169.03 85.9283C169.31 85.6524 169.473 85.2771 169.482 84.8824V79.9117C169.482 79.5843 169.611 79.2702 169.841 79.0387C170.072 78.8072 170.383 78.6774 170.709 78.6774C171.034 78.6774 171.347 78.807 171.577 79.0387C171.807 79.2702 171.936 79.5843 171.936 79.9117V84.8824C171.937 85.6634 171.709 86.4271 171.281 87.0787C170.853 87.7303 170.244 88.2408 169.53 88.5465C168.816 88.8521 168.028 88.9402 167.265 88.7985C166.502 88.6567 165.797 88.2917 165.239 87.7496C164.68 88.2914 163.975 88.6559 163.213 88.7975C162.45 88.939 161.663 88.8511 160.949 88.5455C160.235 88.2399 159.626 87.7301 159.198 87.0787C158.77 86.4273 158.542 85.6633 158.543 84.8824V79.9117C158.543 79.5844 158.672 79.2702 158.902 79.0387C159.132 78.8071 159.445 78.6774 159.77 78.6774C160.096 78.6774 160.408 78.807 160.638 79.0387C160.868 79.2702 160.998 79.5844 160.998 79.9117V84.8824C161.007 85.277 161.168 85.6525 161.449 85.9283C161.729 86.2042 162.106 86.3589 162.499 86.359C162.891 86.359 163.268 86.2043 163.548 85.9283C163.829 85.6524 163.991 85.2771 164.001 84.8824V79.9117C164.001 79.5843 164.13 79.2702 164.36 79.0387C164.59 78.8071 164.903 78.6774 165.228 78.6774H165.252Z" fill="#1A1A1A"/>
<path d="M38.0915 76.9938C38.2459 76.982 38.4013 77.0008 38.5485 77.0494L41.8522 78.1197C42.1195 78.2063 42.3475 78.386 42.4948 78.6266C42.6421 78.8674 42.6986 79.1539 42.6549 79.4332C42.6112 79.7124 42.47 79.9665 42.2565 80.15C42.0429 80.3337 41.7708 80.4345 41.4899 80.4342L41.4782 80.4332C41.3554 80.4324 41.2327 80.4125 41.1159 80.3746L37.8122 79.3053C37.5151 79.2071 37.2688 78.9943 37.1276 78.7135C37.0578 78.5745 37.0153 78.4225 37.0036 78.2672C36.9919 78.1119 37.011 77.9553 37.0592 77.8072C37.1569 77.508 37.3689 77.2599 37.6481 77.1178C37.7863 77.0475 37.937 77.0055 38.0915 76.9938Z" fill="#1A1A1A"/>
<path d="M71.1344 76.9723C71.2907 76.9784 71.4448 77.0153 71.5866 77.0817C71.7283 77.148 71.8553 77.2427 71.9606 77.359C72.0659 77.4752 72.1473 77.6113 72.1999 77.7594C72.2524 77.9076 72.2746 78.0652 72.2663 78.2223C72.2579 78.3794 72.2191 78.5337 72.151 78.6754C72.083 78.8171 71.9879 78.9442 71.8708 79.0484C71.7536 79.1527 71.6165 79.2321 71.4684 79.2828C71.4488 79.2902 71.4292 79.2966 71.4088 79.3024L68.1061 80.3736C67.9591 80.4216 67.8041 80.4396 67.6501 80.4274C67.4959 80.415 67.3454 80.3721 67.2077 80.3014C67.0699 80.2306 66.9467 80.1328 66.8463 80.0143C66.7461 79.8959 66.6694 79.7589 66.6217 79.6109C66.574 79.4628 66.5558 79.3062 66.568 79.151C66.5803 78.9958 66.6237 78.8443 66.694 78.7057C66.7643 78.5671 66.8605 78.4434 66.9782 78.3424C67.0959 78.2414 67.2324 78.1648 67.3795 78.1168L70.6754 77.0465C70.8219 76.9914 70.9782 76.9662 71.1344 76.9723Z" fill="#1A1A1A"/>
<path d="M191.387 77.3873C191.478 77.3872 191.569 77.4051 191.653 77.4401C191.737 77.4752 191.814 77.5274 191.879 77.5924C191.943 77.6573 191.995 77.7341 192.03 77.819C192.065 77.9039 192.083 77.9956 192.083 78.0875V78.1149C192.083 78.3003 192.009 78.4778 191.879 78.609C191.748 78.7402 191.572 78.814 191.387 78.8141C191.203 78.8141 191.026 78.7403 190.895 78.609C190.765 78.4778 190.692 78.3002 190.692 78.1149V78.0875C190.692 77.9019 190.765 77.7236 190.895 77.5924C191.026 77.4611 191.203 77.3873 191.387 77.3873Z" fill="#1A1A1A"/>
<path d="M67.5045 70.7399C67.8187 70.7466 68.118 70.8788 68.3366 71.1061C68.444 71.2182 68.5282 71.3507 68.5846 71.4957C68.6411 71.6409 68.669 71.7959 68.6657 71.9518C68.6623 72.1078 68.6278 72.2622 68.5651 72.4049C68.5025 72.5475 68.4127 72.6764 68.3004 72.7838C68.2825 72.8002 68.2645 72.817 68.2458 72.8326L65.6637 75.1568C65.4461 75.3531 65.1639 75.4617 64.8717 75.4615C64.6327 75.4631 64.3985 75.3918 64.2008 75.2565C64.0033 75.1211 63.8515 74.928 63.7653 74.7037C63.6791 74.4793 63.6627 74.2336 63.7184 73.9996C63.7742 73.7657 63.8989 73.5538 64.0768 73.3932L66.6579 71.069C66.8859 70.8513 67.1904 70.7331 67.5045 70.7399Z" fill="#1A1A1A"/>
<path d="M41.6442 70.7447C41.9571 70.7185 42.2677 70.8173 42.5085 71.0201L42.5631 71.0699L45.1442 73.3932C45.2597 73.497 45.3536 73.6228 45.4206 73.7633C45.4875 73.9039 45.5267 74.0568 45.5348 74.2125C45.5429 74.3683 45.5195 74.5245 45.4674 74.6715C45.4153 74.8185 45.3345 74.9535 45.2301 75.069C45.019 75.3026 44.7251 75.4432 44.4118 75.4596C44.0983 75.4759 43.7904 75.3674 43.5563 75.1568L40.9762 72.8317C40.8577 72.7317 40.7594 72.6095 40.6881 72.4713C40.6168 72.333 40.5742 72.1813 40.5612 72.026C40.5482 71.8707 40.5656 71.7144 40.6129 71.566C40.6603 71.4177 40.7363 71.2804 40.8366 71.1617C41.0406 70.9211 41.331 70.7711 41.6442 70.7447Z" fill="#1A1A1A"/>
<path d="M47.1002 66.6412C47.3875 66.513 47.7139 66.505 48.0075 66.6178C48.3011 66.7307 48.5394 66.9563 48.6686 67.2447L50.0807 70.4166C50.2079 70.7063 50.2158 71.0354 50.1022 71.3307C49.9886 71.626 49.763 71.8638 49.4752 71.9918C49.1874 72.1198 48.8605 72.1276 48.567 72.0133C48.2739 71.899 48.0379 71.6719 47.9108 71.3824L46.4977 68.2057C46.4349 68.0634 46.4009 67.9101 46.3971 67.7545C46.3934 67.5986 46.4202 67.4429 46.4762 67.2975C46.5323 67.1522 46.6161 67.0194 46.7233 66.9068C46.8304 66.7943 46.9584 66.7037 47.1002 66.6412Z" fill="#1A1A1A"/>
<path d="M61.2126 66.6197C61.5061 66.5068 61.8324 66.516 62.1198 66.6442C62.2616 66.7068 62.3906 66.7972 62.4977 66.9098C62.6047 67.0223 62.6888 67.1552 62.7448 67.3004C62.8007 67.4457 62.8275 67.6007 62.8239 67.7565C62.8202 67.9123 62.7861 68.0661 62.7233 68.2086L61.3112 71.3824C61.2172 71.5925 61.0641 71.7703 60.8717 71.8951C60.6793 72.02 60.4552 72.0871 60.2262 72.0865V72.0885C60.0288 72.0906 59.834 72.0424 59.6598 71.9488C59.4857 71.8553 59.3373 71.7195 59.2292 71.5533C59.121 71.3871 59.0562 71.1958 59.0407 70.9977C59.0252 70.7997 59.0595 70.6008 59.1403 70.4195L60.5524 67.2467C60.6816 66.9583 60.919 66.7327 61.2126 66.6197Z" fill="#1A1A1A"/>
<path d="M54.5749 65.0006C54.8894 64.9906 55.195 65.1071 55.4245 65.3238C55.654 65.5406 55.7885 65.8402 55.7985 66.1568V69.7057C55.7982 69.8618 55.7673 70.0166 55.7077 70.1608C55.648 70.3048 55.5607 70.4354 55.4508 70.5455C55.3409 70.6557 55.2105 70.7439 55.067 70.8033C54.9237 70.8627 54.7699 70.8925 54.6149 70.8922C54.4594 70.8931 54.3048 70.8635 54.1608 70.8043C54.017 70.7451 53.8864 70.6576 53.776 70.5475C53.6656 70.4373 53.5782 70.3061 53.5182 70.1617C53.4582 70.0173 53.4268 69.8622 53.4264 69.7057V66.233C53.4164 65.9165 53.5315 65.6085 53.7467 65.3776C53.9621 65.1465 54.2602 65.0106 54.5749 65.0006Z" fill="#1A1A1A"/>
<path d="M46.0797 75.024C50.7895 70.3725 58.3771 70.42 63.028 75.1315C64.3033 76.4227 65.2697 77.9901 65.8532 79.7135C65.9025 79.8615 65.9226 80.0178 65.9118 80.1734C65.9009 80.3292 65.8591 80.4811 65.7897 80.6207C65.7202 80.7604 65.6239 80.8848 65.5065 80.9869C65.389 81.089 65.2525 81.1666 65.1051 81.2154L65.0417 81.235C64.7452 81.3119 64.4305 81.2723 64.1618 81.1246C63.8932 80.9769 63.6903 80.7316 63.5944 80.4391C62.9462 78.5394 61.723 76.892 60.0973 75.7272C58.4716 74.5624 56.5245 73.9384 54.529 73.944C49.6932 73.944 45.6827 77.5175 45.0446 82.1451C45.0414 82.167 45.043 82.1892 45.0485 82.2106C45.0541 82.2322 45.0642 82.2525 45.0778 82.2701C45.0914 82.2877 45.1082 82.3023 45.1276 82.3131C45.1469 82.3238 45.1681 82.3314 45.1901 82.3336C45.1977 82.3344 45.2059 82.3344 45.2135 82.3336L62.5807 82.3395C64.3617 82.3395 65.8606 83.7421 65.904 85.5289C65.9125 85.9591 65.8371 86.387 65.6813 86.7877C65.5256 87.1884 65.2921 87.5538 64.9958 87.8639C64.6995 88.1739 64.3454 88.4221 63.9538 88.5943C63.5621 88.7666 63.1408 88.8596 62.7135 88.8678L45.8747 88.861C45.6509 88.8579 45.4337 88.9391 45.2653 89.0875C45.0971 89.2358 44.9893 89.4412 44.9626 89.6647C44.9519 89.7814 44.9642 89.8994 44.9987 90.0113C45.0332 90.1234 45.0892 90.2278 45.1637 90.318C45.2382 90.4081 45.3292 90.4831 45.4323 90.5377C45.5353 90.5923 45.6484 90.6255 45.7643 90.6363H53.3883C53.6965 90.6312 53.9955 90.7457 54.2223 90.9557C54.4491 91.1656 54.5873 91.4558 54.6081 91.7652C54.6203 92.0798 54.5076 92.3863 54.2956 92.6178C54.0833 92.8494 53.7881 92.9868 53.4752 92.9996H45.9098C44.1288 92.9996 42.6311 91.5973 42.5885 89.817C42.5801 89.3871 42.6555 88.9597 42.8112 88.5592C42.967 88.1585 43.1995 87.7922 43.4958 87.482C43.792 87.172 44.1462 86.9239 44.5377 86.7516C44.9294 86.5792 45.3516 86.4855 45.779 86.4772L62.6149 86.484C62.8387 86.4868 63.056 86.406 63.2243 86.2574C63.3924 86.1089 63.5006 85.9029 63.527 85.6793C63.5377 85.5626 63.5253 85.4446 63.4909 85.3326C63.4564 85.2206 63.4003 85.1162 63.3258 85.026C63.2513 84.9358 63.1594 84.8618 63.0563 84.8072C62.9532 84.7527 62.8403 84.7183 62.7243 84.7076L43.8522 84.7018C43.5169 84.7029 43.1946 84.5694 42.9567 84.3317C42.7188 84.0939 42.5849 83.7706 42.5836 83.4332C42.5777 81.8674 42.8835 80.3162 43.484 78.8717C44.0846 77.4272 44.9675 76.1189 46.0797 75.024Z" stroke="#E6E2DE" stroke-width="16" stroke-linejoin="round" mask="url(#path-4-outside-1_1195_189)"/>
<path d="M175.229 87.6012C175.32 87.6011 175.411 87.6189 175.496 87.6539C175.58 87.6891 175.657 87.7413 175.721 87.8063C175.786 87.8712 175.838 87.9479 175.873 88.0328C175.908 88.1178 175.926 88.2094 175.925 88.3014V88.3287C175.925 88.5141 175.852 88.6917 175.721 88.8229C175.591 88.9541 175.414 89.0279 175.229 89.0279C175.045 89.0278 174.868 88.954 174.738 88.8229C174.608 88.6917 174.534 88.5141 174.534 88.3287V88.3014C174.534 88.1158 174.608 87.9375 174.738 87.8063C174.868 87.6751 175.045 87.6013 175.229 87.6012Z" stroke="#E6E2DE" stroke-width="16" stroke-linejoin="round" mask="url(#path-4-outside-1_1195_189)"/>
<path d="M80.0876 75.1432C80.4128 75.1432 80.7247 75.273 80.9547 75.5045C81.1848 75.736 81.314 76.0501 81.3141 76.3776V79.2818C81.9285 79.2835 82.5943 79.2927 82.987 79.2984C83.148 79.301 83.3069 79.3357 83.4547 79.4C83.6026 79.4644 83.7361 79.558 83.8483 79.6744C83.9604 79.7908 84.0487 79.9281 84.1081 80.0787C84.1674 80.2296 84.1975 80.3911 84.195 80.5533C84.1924 80.7154 84.1574 80.8752 84.0934 81.024C84.0295 81.1728 83.9375 81.3077 83.8219 81.4205C83.7063 81.5333 83.5693 81.6225 83.4196 81.6822C83.2697 81.742 83.1091 81.7717 82.9479 81.7692C82.4048 81.7609 81.8111 81.7526 81.3122 81.7526V84.5524C81.3123 85.57 82.0532 86.3931 82.9645 86.3932L82.9674 86.3942C83.2926 86.3943 83.6046 86.5241 83.8346 86.7555C84.0648 86.9871 84.194 87.3019 84.194 87.6295C84.1939 87.957 84.0647 88.271 83.8346 88.5026C83.6046 88.7341 83.2927 88.8648 82.9674 88.8649C80.7031 88.8649 78.8602 86.9304 78.86 84.5533V76.3776C78.8601 76.0501 78.9894 75.736 79.2194 75.5045C79.4495 75.2729 79.7621 75.1432 80.0876 75.1432Z" stroke="#E6E2DE" stroke-width="16" stroke-linejoin="round" mask="url(#path-4-outside-1_1195_189)"/>
<path d="M107.686 78.6774C108.735 78.6785 109.74 79.098 110.482 79.8443C111.224 80.5906 111.641 81.6024 111.642 82.6578V87.6285C111.642 87.956 111.513 88.27 111.283 88.5016C111.053 88.7332 110.74 88.8639 110.415 88.8639C110.089 88.8638 109.778 88.7331 109.548 88.5016C109.317 88.27 109.188 87.9561 109.188 87.6285V82.6578C109.179 82.2632 109.017 81.8878 108.736 81.6119C108.455 81.336 108.078 81.1813 107.686 81.1813C107.294 81.1813 106.917 81.336 106.636 81.6119C106.356 81.8877 106.193 82.2633 106.184 82.6578V87.6285C106.184 87.9561 106.055 88.27 105.825 88.5016C105.595 88.7331 105.283 88.8638 104.958 88.8639H104.934C104.609 88.8639 104.296 88.7332 104.066 88.5016C103.836 88.27 103.707 87.956 103.707 87.6285V82.6578C103.697 82.2632 103.535 81.8878 103.255 81.6119C102.974 81.3361 102.597 81.1813 102.205 81.1813C101.813 81.1813 101.435 81.3361 101.155 81.6119C100.875 81.8877 100.713 82.2633 100.704 82.6578V87.6285C100.704 87.9559 100.574 88.27 100.344 88.5016C100.114 88.7332 99.8017 88.8639 99.4762 88.8639C99.1508 88.8639 98.8382 88.7332 98.6081 88.5016C98.3782 88.27 98.2487 87.9559 98.2487 87.6285V82.6578C98.2483 81.8773 98.4764 81.1138 98.904 80.4625C99.3317 79.8111 99.941 79.3004 100.655 78.9947C101.369 78.6892 102.156 78.6013 102.919 78.7428C103.681 78.8844 104.386 79.249 104.945 79.7906C105.68 79.0756 106.664 78.6769 107.686 78.6774Z" stroke="#E6E2DE" stroke-width="16" stroke-linejoin="round" mask="url(#path-4-outside-1_1195_189)"/>
<path d="M130.183 78.6774C131.232 78.6784 132.238 79.098 132.98 79.8443C133.722 80.5906 134.139 81.6025 134.14 82.6578C134.14 82.9854 134.011 83.3002 133.781 83.5318C133.551 83.7635 133.238 83.8932 132.913 83.8932C132.587 83.8932 132.275 83.7635 132.045 83.5318C131.815 83.3002 131.685 82.9853 131.685 82.6578C131.676 82.2633 131.514 81.8877 131.234 81.6119C130.953 81.3361 130.576 81.1813 130.184 81.1813C129.792 81.1813 129.415 81.3361 129.134 81.6119C128.854 81.8878 128.692 82.2632 128.682 82.6578V87.6285C128.682 87.956 128.553 88.27 128.323 88.5016C128.093 88.7331 127.781 88.8638 127.456 88.8639C127.13 88.8639 126.818 88.7332 126.588 88.5016C126.358 88.27 126.228 87.956 126.228 87.6285V82.6578C126.23 81.6025 126.647 80.5906 127.388 79.8443C128.13 79.0982 129.135 78.6788 130.183 78.6774Z" stroke="#E6E2DE" stroke-width="16" stroke-linejoin="round" mask="url(#path-4-outside-1_1195_189)"/>
<path d="M140.203 78.6774C141.252 78.6784 142.257 79.098 142.999 79.8443C143.74 80.5906 144.157 81.6023 144.159 82.6578C144.159 82.9854 144.03 83.3002 143.799 83.5318C143.569 83.7633 143.258 83.8931 142.932 83.8932C142.607 83.8932 142.294 83.7635 142.064 83.5318C141.834 83.3002 141.705 82.9854 141.705 82.6578C141.695 82.2632 141.533 81.8877 141.253 81.6119C140.972 81.3363 140.596 81.1814 140.204 81.1813C139.812 81.1813 139.435 81.3362 139.154 81.6119C138.873 81.8877 138.711 82.2632 138.702 82.6578V87.6285C138.702 87.956 138.572 88.27 138.342 88.5016C138.112 88.7332 137.8 88.8639 137.474 88.8639C137.149 88.8638 136.837 88.7331 136.607 88.5016C136.377 88.27 136.248 87.9561 136.248 87.6285V82.6578C136.249 81.6026 136.666 80.5906 137.407 79.8443C138.148 79.098 139.154 78.6787 140.203 78.6774Z" stroke="#E6E2DE" stroke-width="16" stroke-linejoin="round" mask="url(#path-4-outside-1_1195_189)"/>
<path d="M191.431 79.8707C191.593 79.8725 191.748 79.939 191.862 80.0553C191.976 80.1716 192.04 80.3286 192.039 80.4918L191.998 88.2496C191.997 88.4127 191.931 88.5692 191.816 88.6842C191.701 88.799 191.545 88.8639 191.383 88.8639C191.303 88.8634 191.223 88.8464 191.149 88.8151C191.075 88.7836 191.007 88.7379 190.951 88.6803C190.894 88.6226 190.849 88.5542 190.819 88.4791C190.789 88.4041 190.773 88.3238 190.773 88.2428L190.814 80.485C190.815 80.4039 190.831 80.3234 190.862 80.2486C190.893 80.174 190.939 80.1064 190.997 80.0494C191.054 79.9925 191.121 79.9472 191.196 79.9166C191.271 79.886 191.351 79.8703 191.431 79.8707Z" stroke="#E6E2DE" stroke-width="16" stroke-linejoin="round" mask="url(#path-4-outside-1_1195_189)"/>
<path fill-rule="evenodd" clip-rule="evenodd" d="M179.116 74.1442C179.279 74.1442 179.434 74.2091 179.549 74.3248C179.664 74.4406 179.729 74.5976 179.729 74.7613V80.5631C180.196 80.0226 180.772 79.5896 181.42 79.2926C182.067 78.9956 182.77 78.8414 183.481 78.8414C184.466 78.8414 185.428 79.1356 186.247 79.6861C187.066 80.2368 187.704 81.0195 188.081 81.9352C188.458 82.8509 188.556 83.8586 188.364 84.8307C188.172 85.8026 187.698 86.6953 187.002 87.3961C186.305 88.0969 185.418 88.5748 184.453 88.7682C183.487 88.9615 182.486 88.8622 181.576 88.483C180.666 88.1038 179.889 87.4613 179.341 86.6373C178.794 85.8133 178.502 84.8442 178.502 83.8531V74.7613C178.502 74.5977 178.566 74.4406 178.681 74.3248C178.796 74.209 178.953 74.1442 179.116 74.1442ZM184.918 80.3639C184.232 80.078 183.477 80.0025 182.75 80.1481C182.022 80.2936 181.353 80.6534 180.829 81.1813C180.304 81.7093 179.946 82.3824 179.801 83.1149C179.657 83.8472 179.731 84.6066 180.014 85.2965C180.298 85.9865 180.779 86.5768 181.396 86.9918C182.013 87.4068 182.739 87.6285 183.481 87.6285C184.476 87.6274 185.429 87.2288 186.132 86.5211C186.836 85.8134 187.232 84.854 187.233 83.8531C187.233 83.1063 187.013 82.3756 186.601 81.7545C186.189 81.1335 185.603 80.6498 184.918 80.3639Z" stroke="#E6E2DE" stroke-width="16" stroke-linejoin="round" mask="url(#path-4-outside-1_1195_189)"/>
<path fill-rule="evenodd" clip-rule="evenodd" d="M199.294 78.8414C200.614 78.8428 201.879 79.3717 202.812 80.3111C203.746 81.2507 204.271 82.5245 204.272 83.8531C204.272 84.8442 203.98 85.8133 203.433 86.6373C202.886 87.4613 202.109 88.1037 201.199 88.483C200.289 88.8623 199.288 88.9615 198.322 88.7682C197.356 88.5748 196.468 88.097 195.772 87.3961C195.076 86.6953 194.602 85.8026 194.41 84.8307C194.218 83.8586 194.316 82.8508 194.693 81.9352C195.07 81.0195 195.708 80.2368 196.527 79.6861C197.346 79.1355 198.309 78.8414 199.294 78.8414ZM200.729 80.3639C200.044 80.0781 199.29 80.0026 198.562 80.1481C197.834 80.2937 197.165 80.6532 196.64 81.1813C196.116 81.7093 195.759 82.3824 195.614 83.1149C195.469 83.8474 195.543 84.6074 195.827 85.2975C196.111 85.9874 196.592 86.5769 197.209 86.9918C197.826 87.4068 198.552 87.6285 199.294 87.6285C200.288 87.6276 201.242 87.2297 201.945 86.5221C202.648 85.8143 203.043 84.8542 203.045 83.8531C203.045 83.1062 202.825 82.3756 202.413 81.7545C202.001 81.1336 201.415 80.6498 200.729 80.3639Z" stroke="#E6E2DE" stroke-width="16" stroke-linejoin="round" mask="url(#path-4-outside-1_1195_189)"/>
<path fill-rule="evenodd" clip-rule="evenodd" d="M90.8834 78.7359C92.2174 78.7375 93.4969 79.271 94.4401 80.2203C95.3832 81.1696 95.9131 82.457 95.9147 83.7994C95.9147 84.801 95.6198 85.7801 95.067 86.6129C94.5142 87.4456 93.7285 88.0948 92.8092 88.4781C91.8899 88.8614 90.878 88.9616 89.902 88.7662C88.9261 88.5708 88.0294 88.0887 87.3258 87.3805C86.6223 86.6723 86.143 85.77 85.9489 84.7877C85.7548 83.8055 85.8543 82.7872 86.235 81.8619C86.6158 80.9366 87.2612 80.1459 88.0885 79.5895C88.9159 79.0331 89.8884 78.736 90.8834 78.7359ZM91.8698 81.4029C91.3989 81.2067 90.8803 81.1554 90.3805 81.2555C89.8808 81.3556 89.4215 81.6028 89.0612 81.9654C88.7008 82.3282 88.4555 82.7905 88.3561 83.2936C88.2567 83.7967 88.3075 84.3186 88.5026 84.7926C88.6976 85.2665 89.0281 85.6717 89.4518 85.9567C89.8755 86.2416 90.3739 86.3931 90.8834 86.3932C91.5665 86.3925 92.2216 86.1194 92.7047 85.6334C93.1879 85.1471 93.4599 84.4871 93.4606 83.7994C93.4606 83.2865 93.3091 82.7855 93.026 82.359C92.7429 81.9324 92.3407 81.5993 91.8698 81.4029Z" stroke="#E6E2DE" stroke-width="16" stroke-linejoin="round" mask="url(#path-4-outside-1_1195_189)"/>
<path fill-rule="evenodd" clip-rule="evenodd" d="M118.944 78.7359C120.278 78.7375 121.557 79.271 122.501 80.2203C123.444 81.1696 123.975 82.4569 123.976 83.7994C123.976 84.801 123.68 85.7801 123.128 86.6129C122.575 87.4457 121.789 88.0948 120.87 88.4781C119.95 88.8614 118.939 88.9616 117.963 88.7662C116.987 88.5708 116.09 88.0886 115.386 87.3805C114.683 86.6723 114.204 85.7699 114.009 84.7877C113.815 83.8054 113.916 82.7873 114.297 81.8619C114.677 80.9367 115.322 80.1459 116.149 79.5895C116.976 79.0331 117.949 78.736 118.944 78.7359ZM119.93 81.4029C119.46 81.2068 118.942 81.1555 118.442 81.2555C117.942 81.3555 117.483 81.6029 117.123 81.9654C116.762 82.3282 116.516 82.7904 116.417 83.2936C116.317 83.7967 116.368 84.3186 116.563 84.7926C116.758 85.2665 117.089 85.6717 117.512 85.9567C117.936 86.2416 118.434 86.3931 118.944 86.3932C119.627 86.3925 120.283 86.1197 120.766 85.6334C121.249 85.1471 121.52 84.4871 121.521 83.7994C121.521 83.2867 121.37 82.7854 121.088 82.359C120.804 81.9324 120.401 81.5993 119.93 81.4029Z" stroke="#E6E2DE" stroke-width="16" stroke-linejoin="round" mask="url(#path-4-outside-1_1195_189)"/>
<path fill-rule="evenodd" clip-rule="evenodd" d="M151.259 78.7359C152.593 78.7375 153.872 79.2711 154.815 80.2203C155.758 81.1696 156.289 82.4569 156.291 83.7994C156.291 84.8009 155.996 85.7802 155.443 86.6129C154.89 87.4456 154.104 88.0948 153.185 88.4781C152.266 88.8614 151.254 88.9616 150.278 88.7662C149.302 88.5708 148.405 88.0887 147.702 87.3805C146.998 86.6723 146.519 85.77 146.325 84.7877C146.131 83.8054 146.23 82.7872 146.611 81.8619C146.992 80.9366 147.637 80.1459 148.465 79.5895C149.292 79.033 150.264 78.7359 151.259 78.7359ZM152.246 81.4029C151.775 81.2066 151.256 81.1554 150.757 81.2555C150.257 81.3556 149.798 81.6027 149.437 81.9654C149.077 82.3282 148.832 82.7905 148.732 83.2936C148.633 83.7967 148.684 84.3186 148.879 84.7926C149.074 85.2664 149.404 85.6717 149.828 85.9567C150.252 86.2416 150.75 86.3932 151.259 86.3932C151.943 86.3925 152.598 86.1195 153.081 85.6334C153.564 85.1471 153.836 84.4871 153.837 83.7994C153.837 83.2866 153.685 82.7854 153.402 82.359C153.119 81.9325 152.717 81.5993 152.246 81.4029Z" stroke="#E6E2DE" stroke-width="16" stroke-linejoin="round" mask="url(#path-4-outside-1_1195_189)"/>
<path d="M165.252 78.6774C165.577 78.6774 165.889 78.8072 166.119 79.0387C166.349 79.2702 166.478 79.5843 166.478 79.9117V84.8824C166.487 85.2771 166.65 85.6524 166.93 85.9283C167.211 86.2042 167.588 86.359 167.98 86.359C168.372 86.359 168.749 86.2043 169.03 85.9283C169.31 85.6524 169.473 85.2771 169.482 84.8824V79.9117C169.482 79.5843 169.611 79.2702 169.841 79.0387C170.072 78.8072 170.383 78.6774 170.709 78.6774C171.034 78.6774 171.347 78.807 171.577 79.0387C171.807 79.2702 171.936 79.5843 171.936 79.9117V84.8824C171.937 85.6634 171.709 86.4271 171.281 87.0787C170.853 87.7303 170.244 88.2408 169.53 88.5465C168.816 88.8521 168.028 88.9402 167.265 88.7985C166.502 88.6567 165.797 88.2917 165.239 87.7496C164.68 88.2914 163.975 88.6559 163.213 88.7975C162.45 88.939 161.663 88.8511 160.949 88.5455C160.235 88.2399 159.626 87.7301 159.198 87.0787C158.77 86.4273 158.542 85.6633 158.543 84.8824V79.9117C158.543 79.5844 158.672 79.2702 158.902 79.0387C159.132 78.8071 159.445 78.6774 159.77 78.6774C160.096 78.6774 160.408 78.807 160.638 79.0387C160.868 79.2702 160.998 79.5844 160.998 79.9117V84.8824C161.007 85.277 161.168 85.6525 161.449 85.9283C161.729 86.2042 162.106 86.3589 162.499 86.359C162.891 86.359 163.268 86.2043 163.548 85.9283C163.829 85.6524 163.991 85.2771 164.001 84.8824V79.9117C164.001 79.5843 164.13 79.2702 164.36 79.0387C164.59 78.8071 164.903 78.6774 165.228 78.6774H165.252Z" stroke="#E6E2DE" stroke-width="16" stroke-linejoin="round" mask="url(#path-4-outside-1_1195_189)"/>
<path d="M38.0915 76.9938C38.2459 76.982 38.4013 77.0008 38.5485 77.0494L41.8522 78.1197C42.1195 78.2063 42.3475 78.386 42.4948 78.6266C42.6421 78.8674 42.6986 79.1539 42.6549 79.4332C42.6112 79.7124 42.47 79.9665 42.2565 80.15C42.0429 80.3337 41.7708 80.4345 41.4899 80.4342L41.4782 80.4332C41.3554 80.4324 41.2327 80.4125 41.1159 80.3746L37.8122 79.3053C37.5151 79.2071 37.2688 78.9943 37.1276 78.7135C37.0578 78.5745 37.0153 78.4225 37.0036 78.2672C36.9919 78.1119 37.011 77.9553 37.0592 77.8072C37.1569 77.508 37.3689 77.2599 37.6481 77.1178C37.7863 77.0475 37.937 77.0055 38.0915 76.9938Z" stroke="#E6E2DE" stroke-width="16" stroke-linejoin="round" mask="url(#path-4-outside-1_1195_189)"/>
<path d="M71.1344 76.9723C71.2907 76.9784 71.4448 77.0153 71.5866 77.0817C71.7283 77.148 71.8553 77.2427 71.9606 77.359C72.0659 77.4752 72.1473 77.6113 72.1999 77.7594C72.2524 77.9076 72.2746 78.0652 72.2663 78.2223C72.2579 78.3794 72.2191 78.5337 72.151 78.6754C72.083 78.8171 71.9879 78.9442 71.8708 79.0484C71.7536 79.1527 71.6165 79.2321 71.4684 79.2828C71.4488 79.2902 71.4292 79.2966 71.4088 79.3024L68.1061 80.3736C67.9591 80.4216 67.8041 80.4396 67.6501 80.4274C67.4959 80.415 67.3454 80.3721 67.2077 80.3014C67.0699 80.2306 66.9467 80.1328 66.8463 80.0143C66.7461 79.8959 66.6694 79.7589 66.6217 79.6109C66.574 79.4628 66.5558 79.3062 66.568 79.151C66.5803 78.9958 66.6237 78.8443 66.694 78.7057C66.7643 78.5671 66.8605 78.4434 66.9782 78.3424C67.0959 78.2414 67.2324 78.1648 67.3795 78.1168L70.6754 77.0465C70.8219 76.9914 70.9782 76.9662 71.1344 76.9723Z" stroke="#E6E2DE" stroke-width="16" stroke-linejoin="round" mask="url(#path-4-outside-1_1195_189)"/>
<path d="M191.387 77.3873C191.478 77.3872 191.569 77.4051 191.653 77.4401C191.737 77.4752 191.814 77.5274 191.879 77.5924C191.943 77.6573 191.995 77.7341 192.03 77.819C192.065 77.9039 192.083 77.9956 192.083 78.0875V78.1149C192.083 78.3003 192.009 78.4778 191.879 78.609C191.748 78.7402 191.572 78.814 191.387 78.8141C191.203 78.8141 191.026 78.7403 190.895 78.609C190.765 78.4778 190.692 78.3002 190.692 78.1149V78.0875C190.692 77.9019 190.765 77.7236 190.895 77.5924C191.026 77.4611 191.203 77.3873 191.387 77.3873Z" stroke="#E6E2DE" stroke-width="16" stroke-linejoin="round" mask="url(#path-4-outside-1_1195_189)"/>
<path d="M67.5045 70.7399C67.8187 70.7466 68.118 70.8788 68.3366 71.1061C68.444 71.2182 68.5282 71.3507 68.5846 71.4957C68.6411 71.6409 68.669 71.7959 68.6657 71.9518C68.6623 72.1078 68.6278 72.2622 68.5651 72.4049C68.5025 72.5475 68.4127 72.6764 68.3004 72.7838C68.2825 72.8002 68.2645 72.817 68.2458 72.8326L65.6637 75.1568C65.4461 75.3531 65.1639 75.4617 64.8717 75.4615C64.6327 75.4631 64.3985 75.3918 64.2008 75.2565C64.0033 75.1211 63.8515 74.928 63.7653 74.7037C63.6791 74.4793 63.6627 74.2336 63.7184 73.9996C63.7742 73.7657 63.8989 73.5538 64.0768 73.3932L66.6579 71.069C66.8859 70.8513 67.1904 70.7331 67.5045 70.7399Z" stroke="#E6E2DE" stroke-width="16" stroke-linejoin="round" mask="url(#path-4-outside-1_1195_189)"/>
<path d="M41.6442 70.7447C41.9571 70.7185 42.2677 70.8173 42.5085 71.0201L42.5631 71.0699L45.1442 73.3932C45.2597 73.497 45.3536 73.6228 45.4206 73.7633C45.4875 73.9039 45.5267 74.0568 45.5348 74.2125C45.5429 74.3683 45.5195 74.5245 45.4674 74.6715C45.4153 74.8185 45.3345 74.9535 45.2301 75.069C45.019 75.3026 44.7251 75.4432 44.4118 75.4596C44.0983 75.4759 43.7904 75.3674 43.5563 75.1568L40.9762 72.8317C40.8577 72.7317 40.7594 72.6095 40.6881 72.4713C40.6168 72.333 40.5742 72.1813 40.5612 72.026C40.5482 71.8707 40.5656 71.7144 40.6129 71.566C40.6603 71.4177 40.7363 71.2804 40.8366 71.1617C41.0406 70.9211 41.331 70.7711 41.6442 70.7447Z" stroke="#E6E2DE" stroke-width="16" stroke-linejoin="round" mask="url(#path-4-outside-1_1195_189)"/>
<path d="M47.1002 66.6412C47.3875 66.513 47.7139 66.505 48.0075 66.6178C48.3011 66.7307 48.5394 66.9563 48.6686 67.2447L50.0807 70.4166C50.2079 70.7063 50.2158 71.0354 50.1022 71.3307C49.9886 71.626 49.763 71.8638 49.4752 71.9918C49.1874 72.1198 48.8605 72.1276 48.567 72.0133C48.2739 71.899 48.0379 71.6719 47.9108 71.3824L46.4977 68.2057C46.4349 68.0634 46.4009 67.9101 46.3971 67.7545C46.3934 67.5986 46.4202 67.4429 46.4762 67.2975C46.5323 67.1522 46.6161 67.0194 46.7233 66.9068C46.8304 66.7943 46.9584 66.7037 47.1002 66.6412Z" stroke="#E6E2DE" stroke-width="16" stroke-linejoin="round" mask="url(#path-4-outside-1_1195_189)"/>
<path d="M61.2126 66.6197C61.5061 66.5068 61.8324 66.516 62.1198 66.6442C62.2616 66.7068 62.3906 66.7972 62.4977 66.9098C62.6047 67.0223 62.6888 67.1552 62.7448 67.3004C62.8007 67.4457 62.8275 67.6007 62.8239 67.7565C62.8202 67.9123 62.7861 68.0661 62.7233 68.2086L61.3112 71.3824C61.2172 71.5925 61.0641 71.7703 60.8717 71.8951C60.6793 72.02 60.4552 72.0871 60.2262 72.0865V72.0885C60.0288 72.0906 59.834 72.0424 59.6598 71.9488C59.4857 71.8553 59.3373 71.7195 59.2292 71.5533C59.121 71.3871 59.0562 71.1958 59.0407 70.9977C59.0252 70.7997 59.0595 70.6008 59.1403 70.4195L60.5524 67.2467C60.6816 66.9583 60.919 66.7327 61.2126 66.6197Z" stroke="#E6E2DE" stroke-width="16" stroke-linejoin="round" mask="url(#path-4-outside-1_1195_189)"/>
<path d="M54.5749 65.0006C54.8894 64.9906 55.195 65.1071 55.4245 65.3238C55.654 65.5406 55.7885 65.8402 55.7985 66.1568V69.7057C55.7982 69.8618 55.7673 70.0166 55.7077 70.1608C55.648 70.3048 55.5607 70.4354 55.4508 70.5455C55.3409 70.6557 55.2105 70.7439 55.067 70.8033C54.9237 70.8627 54.7699 70.8925 54.6149 70.8922C54.4594 70.8931 54.3048 70.8635 54.1608 70.8043C54.017 70.7451 53.8864 70.6576 53.776 70.5475C53.6656 70.4373 53.5782 70.3061 53.5182 70.1617C53.4582 70.0173 53.4268 69.8622 53.4264 69.7057V66.233C53.4164 65.9165 53.5315 65.6085 53.7467 65.3776C53.9621 65.1465 54.2602 65.0106 54.5749 65.0006Z" stroke="#E6E2DE" stroke-width="16" stroke-linejoin="round" mask="url(#path-4-outside-1_1195_189)"/>
</svg>
