<svg width="242" height="240" viewBox="0 0 242 240" fill="none" xmlns="http://www.w3.org/2000/svg">
<rect y="80" width="242" height="160" rx="12" fill="#E6E2DE"/>
<mask id="path-2-outside-1_1195_133" maskUnits="userSpaceOnUse" x="41" y="60" width="160" height="39" fill="black">
<rect fill="white" x="41" y="60" width="160" height="39"/>
<path d="M84.4242 82.6877L84.2925 82.5594C83.9586 82.2308 83.5793 81.8571 83.0955 81.7221C82.9592 81.6838 82.8411 81.6726 82.7321 81.6861C82.6094 81.7018 82.4958 81.7491 82.4005 81.7918C81.9121 82.0102 81.4828 82.3343 81.0672 82.6449C80.8287 82.825 80.5811 83.0096 80.3267 83.1716C79.8111 83.5002 79.2592 83.7996 78.7277 84.0877L78.5687 84.1732C77.7192 84.6324 77.0174 84.9903 76.3632 85.3031C75.4637 85.7331 74.7074 86.0504 73.9896 86.3025C73.4218 86.5028 72.8154 86.6672 72.193 86.7887L72.1249 86.8022C71.473 86.9327 70.6644 87.0948 70.2374 86.5366C70.1329 86.3993 70.0693 86.235 70.0261 86.1067C69.8671 85.6363 69.8081 85.1276 69.8535 84.6324C69.8808 84.3353 69.958 84.1485 70.0965 84.0449C70.2919 83.9009 70.5894 83.8041 71.0096 83.7523C71.3458 83.7096 71.7433 83.6555 72.1408 83.588C72.754 83.4822 73.3786 83.3202 73.9987 83.1086C75.2616 82.6764 76.5154 82.0394 77.7306 81.2156C79.5863 79.9574 81.2193 78.3233 82.4527 76.4911C82.6821 76.0815 82.5572 75.6471 82.1097 75.3275C81.267 74.8075 80.5788 74.4834 79.9383 74.3033C79.5476 74.2358 79.2069 74.3731 78.839 74.7513C78.571 75.0506 78.3097 75.359 78.0599 75.6561C77.5602 76.2481 77.0446 76.8603 76.4518 77.4095C75.3184 78.5101 73.7602 79.1179 72.2452 79.6085L72.1816 79.6311C71.3208 79.9237 70.142 80.3266 69.7059 79.3587C69.3811 78.5056 69.3992 77.8394 69.7604 77.378C69.9512 77.1349 70.2396 76.9481 70.6235 76.822C70.787 76.768 70.9528 76.7162 71.1164 76.6645C71.5866 76.5159 72.0726 76.3651 72.5314 76.149C73.0788 75.8924 73.624 75.548 74.1509 75.1271C75.0072 74.4429 75.8158 73.5718 76.6971 72.3834C76.9015 72.1065 77.0628 71.8544 77.19 71.6091C77.249 71.4988 77.3126 71.3728 77.349 71.2377C77.3967 71.0644 77.3785 70.9046 77.299 70.7628C77.2309 70.6412 77.1196 70.5399 76.9833 70.4724C76.9288 70.4477 76.872 70.4274 76.8129 70.4071C76.5426 70.3149 76.2678 70.2338 75.9998 70.1551C75.8839 70.1213 75.7681 70.0875 75.6523 70.0515C75.5501 70.02 75.4479 69.9862 75.3456 69.9502C75.1162 69.8714 74.8777 69.7904 74.637 69.7544C74.3122 69.7026 74.0192 69.8287 73.8715 70.0785C73.1538 71.2917 72.3997 72.1583 70.8711 72.7278C70.3714 72.8921 69.9875 72.8718 69.7286 72.6737C69.1335 72.2168 69.2243 70.8483 69.2902 69.8489C69.3107 69.5361 69.3311 69.2412 69.3288 69.0094C69.3402 68.6267 69.163 68.3319 68.8337 68.1811C68.6565 68.0978 68.4634 68.0685 68.2817 68.046C67.8593 67.9943 67.43 67.9875 67.003 68.019C66.6532 68.0438 66.258 68.1068 65.9831 68.3791C65.8014 68.5592 65.6947 68.8203 65.6583 69.1714C65.6333 69.4213 65.6061 69.7184 65.6038 69.9997C65.5766 70.2158 65.5788 70.4837 65.5788 70.7673C65.5788 71.4673 65.5834 72.2573 65.1972 72.6265C65.0383 72.7795 64.8247 72.8515 64.5499 72.8358C63.0077 72.6107 61.9288 71.2084 61.0316 69.9052C60.4456 69.2097 59.4871 69.6936 58.9669 69.9547C58.8625 70.0133 58.7443 70.0695 58.6262 70.1258C58.2356 70.3104 57.7926 70.5219 57.6677 70.9271C57.6064 71.1274 57.6745 71.4268 57.879 71.8387C57.9698 72.021 58.0834 72.1943 58.1947 72.3586C58.2469 72.4396 58.3014 72.5207 58.3514 72.6017C58.6149 73.0271 58.9192 73.4323 59.2554 73.8104C59.3622 73.9297 59.4621 74.0512 59.562 74.175C59.7256 74.3731 59.8936 74.5802 60.0867 74.767C60.6682 75.3275 61.4132 75.8181 62.299 76.2255C62.9395 76.5182 63.6436 76.7635 64.3955 76.9548C64.7793 77.0403 65.095 77.3352 65.2858 77.7831C65.5402 78.3818 65.5243 79.1449 65.2586 79.5793C64.9383 79.9079 64.4591 79.9259 64.1093 79.8831C63.7686 79.8404 63.4211 79.7458 63.0826 79.6558C62.9214 79.613 62.7601 79.568 62.6011 79.532C62.3285 79.4667 62.0628 79.3632 61.8039 79.2619C61.6857 79.2146 61.5654 79.1696 61.445 79.1269C61.052 78.9851 60.6614 78.814 60.2866 78.6182C58.7216 77.7989 57.2952 76.4821 56.1664 74.8098C56.021 74.5959 55.7802 74.3213 55.4418 74.2313C55.0875 74.1413 54.74 74.2808 54.431 74.4069L54.3879 74.4249C54.0585 74.5577 53.7247 74.713 53.3953 74.8886C53.1091 75.0394 52.8729 75.2037 52.6776 75.3882C52.2846 75.7551 52.2551 76.23 52.5981 76.7545C52.9524 77.3014 53.4135 77.7854 53.8587 78.2535C54.0018 78.4043 54.1449 78.5552 54.2834 78.706C55.5099 80.0452 57.0499 81.1751 58.8556 82.0597C60.5183 82.8745 62.2627 83.4215 64.0411 83.6848C64.1274 83.6983 64.2138 83.7051 64.2955 83.7096C64.4818 83.7253 64.6567 83.7366 64.8316 83.8266C65.0791 83.9504 65.2722 84.1485 65.3767 84.3848C65.4698 84.5919 65.4993 84.8215 65.5221 85.0398C65.5448 85.2626 65.5629 85.4855 65.572 85.7015C65.5834 85.9604 65.5879 86.2597 65.4812 86.5141C65.2631 87.034 64.7044 86.98 64.1638 86.926C64.0934 86.9192 64.0252 86.9125 63.9571 86.9057C63.4824 86.8675 63.0031 86.7414 62.5375 86.6176C62.3853 86.5771 62.2331 86.5366 62.09 86.5028C59.4257 85.6183 56.3799 84.4321 53.9768 82.3478C53.1432 81.5983 52.1393 80.9703 51.0195 81.9877C50.3631 82.4964 50.0292 82.969 50.0019 83.4372C49.9815 83.7726 50.1246 84.0922 50.4267 84.3893C51.4374 85.3954 52.5617 86.1179 53.7519 86.881C54.0404 87.0655 54.3311 87.2524 54.6287 87.4482C58.4036 89.7575 62.9145 91 67.2574 91C68.5816 91 69.8921 90.8852 71.1618 90.6489C71.5002 90.5858 71.8387 90.5318 72.1794 90.4778C72.645 90.4035 73.1288 90.327 73.6012 90.228C74.4098 90.0569 75.1889 89.8566 75.9203 89.6315C77.458 89.1543 78.9026 88.5241 80.2109 87.7566C80.7537 87.4369 81.2852 87.0813 81.7985 86.7369L82.196 86.4713C82.405 86.3318 82.614 86.1922 82.8184 86.0482C83.2931 85.7128 83.736 85.3549 84.1448 85.0195C84.3447 84.8552 84.5264 84.6684 84.7036 84.4883L84.7604 84.4298C84.824 84.3646 84.8944 84.2903 84.9489 84.2025C84.9989 84.117 85.0352 84.0292 85.0511 83.9391C85.1442 83.4665 84.7558 83.0186 84.4083 82.6809L84.4242 82.6877Z"/>
<path d="M94.0719 87.9039C93.692 87.3888 93.5517 86.0368 93.4114 85.3565C93.1049 83.8698 92.7962 82.3831 92.4897 80.8964C92.181 79.4075 91.8701 77.9208 91.5571 76.4319C91.4017 75.6995 91.2312 74.9691 91.0736 74.2367C90.9182 73.5194 90.8146 72.7934 90.67 72.0762C90.6268 71.8653 90.5815 71.6567 90.5512 71.4458C90.5296 71.285 90.5512 71.0763 90.6937 70.9785C90.8362 70.8807 91.0196 70.8546 91.1859 70.8351C91.5938 70.7851 92.0126 70.8025 92.4249 70.7959C92.6494 70.7938 92.8717 70.7807 93.0962 70.7807C93.2927 70.7807 93.4891 70.7938 93.6877 70.7938C93.9726 70.7938 94.3201 70.8003 94.5382 70.9959C94.6763 71.1198 94.7583 71.3372 94.8166 71.511C94.8749 71.6893 94.9224 71.8697 94.9634 72.0522C95.0541 72.4413 95.1231 72.8369 95.1922 73.2303C95.2181 73.3738 95.2419 73.5194 95.2721 73.6628C95.3865 74.2149 95.9974 77.3992 96.1528 77.6383C96.3363 77.3535 97.4954 72.7717 97.6185 72.087C97.6832 71.7306 97.7739 71.4089 97.9639 71.0981C98.074 70.9177 98.2639 70.8438 98.4668 70.8351C98.6287 70.8285 98.7949 70.8112 98.9568 70.809C99.1425 70.809 99.3281 70.8199 99.5137 70.8199C99.8937 70.8199 99.762 70.8155 100.144 70.8133C100.377 70.8133 100.615 70.8264 100.839 70.8894C101.064 70.9524 101.152 71.0394 101.226 71.2633C101.409 71.8197 101.482 72.3826 101.59 72.9543C101.69 73.4824 102.721 77.3948 102.836 77.5578C102.952 77.7187 103.123 76.7101 103.136 76.6515C103.447 75.1213 103.79 73.6215 104.071 72.0849C104.118 71.8197 104.161 71.548 104.237 71.2893C104.276 71.1546 104.33 71.0068 104.45 70.9242C104.563 70.8459 104.707 70.8372 104.839 70.8351C105.184 70.8264 105.536 70.8177 105.882 70.8351C105.987 70.8394 106.093 70.8416 106.199 70.8416C106.682 70.8416 107.168 70.8329 107.652 70.8438C107.809 70.8481 107.993 70.8372 108.146 70.8851C108.787 71.085 108.34 72.2348 108.228 72.6717C107.792 74.3975 107.436 76.2841 107.06 78.0404C106.48 80.7551 105.867 83.4894 105.314 86.2085C105.262 86.4628 105.232 86.7237 105.184 86.978C105.133 87.254 105.048 87.5257 104.958 87.7909C104.869 88.0495 104.675 88.193 104.407 88.2125C103.652 88.2669 102.875 88.2886 102.119 88.2125C102.108 88.2125 102.095 88.2104 102.085 88.2082C101.964 88.1951 101.847 88.1864 101.748 88.1104C101.679 88.0582 101.623 87.9908 101.584 87.9169C101.545 87.843 101.517 87.7626 101.495 87.6865C101.485 87.6496 101.467 87.6126 101.459 87.5735C101.418 87.3779 101.374 87.1801 101.325 86.9845C101.139 86.2672 100.986 85.5499 100.82 84.8305C100.697 84.3002 100.578 83.7698 100.457 83.2395C100.345 82.7439 100.295 82.081 100.179 81.5854C100.163 81.5224 100.14 81.4572 100.097 81.4072C100.049 81.3528 99.9994 81.3354 99.9304 81.3224C99.749 81.2876 99.5526 81.3007 99.3691 81.305C99.2569 81.3072 99.1338 81.3159 99.0432 81.3898C98.9503 81.4659 98.9158 81.5876 98.8877 81.6984C98.7496 82.2788 98.5747 83.0069 98.4668 83.5938C98.3481 84.2284 98.2078 84.8609 98.0459 85.4869C97.9574 85.8282 97.871 86.1694 97.7998 86.515C97.7221 86.8932 97.6638 87.2736 97.5321 87.6409C97.4717 87.8083 97.3767 88.0539 97.1976 88.1321C97.0184 88.2104 96.7119 88.1777 96.5068 88.1864C95.9218 88.2147 95.693 88.1908 95.108 88.1995C94.7627 88.206 94.305 88.2234 94.0698 87.9061L94.0719 87.9039Z"/>
<path d="M115.71 83.6372C115.71 80.1009 115.734 76.5449 115.71 73.0086C115.706 72.5413 115.57 71.348 115.885 71.0328C116.211 70.709 117.133 70.8568 117.651 70.8503C118.164 70.8437 119.198 70.6546 119.419 71.2024C119.557 71.548 119.477 73.6259 119.477 74.1584C119.477 76.6341 119.509 79.1575 119.475 81.6289C119.47 81.9071 119.449 82.1875 119.44 82.4657C119.427 82.8417 119.449 83.3873 119.449 83.7633C119.449 83.8893 119.47 84.0089 119.475 84.1349C119.479 84.2523 119.483 84.3914 119.572 84.4805C119.673 84.5827 119.822 84.5979 119.958 84.6044C120.107 84.611 120.25 84.6283 120.401 84.6283C120.779 84.6283 121.154 84.6283 121.532 84.6262C122.281 84.6262 123.036 84.6501 123.785 84.6196C124.096 84.6066 124.545 84.5762 124.798 84.8087C124.932 84.9348 124.971 85.1217 124.986 85.2978C125.02 85.6651 125.001 85.8607 124.992 86.2302C124.986 86.5606 125.005 86.891 125.003 87.2236C125.003 87.4713 124.99 87.8104 124.811 88.006C124.645 88.1864 124.219 88.169 123.997 88.1669C123.492 88.1603 122.991 88.1821 122.486 88.1734C121.735 88.1582 120.986 88.1582 120.235 88.1625C119.419 88.1669 118.605 88.1756 117.789 88.1756C117.275 88.1756 116.438 88.2929 116.068 88.0995C115.509 87.8082 115.697 86.6171 115.708 86.0542C115.723 85.2543 115.712 84.4392 115.712 83.6394L115.71 83.6372Z"/>
<path d="M130.848 88.1539C130.349 88.2038 129.849 88.206 129.35 88.2299C128.828 88.256 128.303 88.1952 127.778 88.2038C127.509 88.2082 127.213 88.1908 126.954 88.1104C126.626 88.0082 126.457 87.7735 126.403 87.4388C126.321 86.928 126.384 86.3846 126.397 85.8695C126.442 83.8307 126.406 81.705 126.408 79.6597C126.408 77.3448 126.432 75.0278 126.371 72.713C126.313 70.4938 126.919 70.9133 128.709 70.7786C133.643 70.4025 136.724 72.6304 137.38 77.7861C137.453 78.3947 137.473 78.9619 137.473 79.5749C137.399 84.1067 135.655 87.6735 130.848 88.1539ZM130.22 84.6545C131.601 84.4697 133.79 82.9852 133.818 79.5423C133.844 76.3472 131.919 74.7431 130.22 74.5323V84.6545Z"/>
<path d="M113.415 71.0828C113.526 71.2089 113.532 71.3697 113.549 71.5371C113.569 71.724 113.579 71.9088 113.579 72.1044C113.579 73.9671 113.534 75.8277 113.536 77.6904C113.536 80.4551 113.502 83.2634 113.541 86.0238C113.547 86.5085 113.709 87.7887 113.288 88.0691C112.93 88.2451 112.476 88.2125 112.09 88.219C111.615 88.2277 111.14 88.2256 110.665 88.219C110.428 88.2147 110.175 88.2038 109.981 88.0669C109.798 87.9386 109.694 87.7191 109.659 87.4952C109.593 87.0692 109.651 86.5693 109.649 86.1346C109.649 84.9544 109.7 83.7763 109.709 82.5961C109.718 81.1963 109.709 79.7987 109.709 78.4055C109.709 78.0121 109.733 77.6208 109.733 77.2274C109.733 76.9057 109.707 76.5884 109.718 76.2667C109.735 75.7255 109.692 75.206 109.692 74.6648C109.692 74.291 109.729 73.9171 109.729 73.5411C109.729 73.1129 109.744 72.6913 109.765 72.2652C109.776 72.0479 109.782 71.8218 109.806 71.6045C109.819 71.4849 109.845 71.3523 109.89 71.2393C109.975 71.0241 110.212 70.8785 110.437 70.8677C110.804 70.8503 111.173 70.8568 111.54 70.8546C111.93 70.8546 112.319 70.8503 112.71 70.8568C112.947 70.8611 113.202 70.8807 113.385 71.0481C113.398 71.0589 113.409 71.072 113.42 71.0828H113.415Z"/>
<path d="M177.763 70.8568C178.205 70.8568 178.648 70.8503 179.09 70.8416C179.611 70.8329 180.131 70.8416 180.651 70.8307C180.822 70.8264 181.005 70.8481 181.137 70.9546C181.284 71.0741 181.34 71.2741 181.363 71.4632C181.43 71.9501 181.374 72.45 181.374 72.939C181.374 73.239 181.346 73.5411 181.344 73.8389C181.344 73.9845 181.335 74.1323 181.329 74.278C181.325 74.3845 181.318 74.4953 181.271 74.5909C181.158 74.8235 180.819 74.817 180.601 74.8192C179.969 74.8213 179.321 74.8648 178.691 74.8344C178.503 74.8257 178.283 74.8322 178.104 74.8583C177.979 74.8778 177.806 74.9039 177.709 74.9909C177.573 75.1169 177.597 75.3799 177.597 75.5495C177.597 75.6734 177.601 75.7994 177.608 75.9233C177.618 76.1233 177.59 76.3319 177.59 76.5341C177.59 76.9188 177.618 77.3013 177.618 77.6861C177.618 80.4508 177.584 83.259 177.623 86.0194C177.629 86.5041 177.791 87.7843 177.37 88.0647C177.012 88.2408 176.558 88.2082 176.172 88.2147C175.697 88.2234 175.222 88.2212 174.747 88.2147C174.51 88.2103 174.257 88.1995 174.063 88.0625C173.88 87.9343 173.776 87.7148 173.741 87.4909C173.675 87.0649 173.733 86.565 173.731 86.1303C173.731 84.95 173.782 83.772 173.791 82.5917C173.8 81.192 173.791 79.7944 173.791 78.4012C173.791 78.0077 173.815 77.6165 173.815 77.2231C173.815 76.9014 173.789 76.5841 173.8 76.2624C173.811 75.9255 173.8 75.5842 173.709 75.2582C173.569 74.754 173.133 74.8105 172.697 74.7909C172.198 74.767 171.697 74.8083 171.199 74.7866C170.879 74.7713 170.46 74.8757 170.208 74.6192C170.065 74.4757 170.05 74.1867 170.039 73.9889C170.014 73.5216 169.977 73.0629 169.977 72.5935C169.977 72.3935 169.992 72.2 169.998 72.0023C170.005 71.7892 170.022 71.5741 170.074 71.3676C170.175 70.9655 170.607 70.8698 170.97 70.8524C171.378 70.8329 171.794 70.8655 172.202 70.8655C173.135 70.8655 174.067 70.8546 175 70.8546C175.922 70.8546 176.843 70.8546 177.765 70.8546L177.763 70.8568Z"/>
<path d="M182.596 83.7807V75.2473C182.596 74.2432 182.604 73.252 182.57 72.2457C182.557 71.8805 182.535 71.3958 182.784 71.0937C182.982 70.8481 183.328 70.8242 183.619 70.8177C184.718 70.7938 185.532 70.8416 186.632 70.8416C187.146 70.8416 187.653 70.8133 188.167 70.8133C188.625 70.8133 189.087 70.8133 189.547 70.8307C190.071 70.8524 190.591 70.8351 191.114 70.8307C191.474 70.8285 191.919 70.7742 192.266 70.8851C192.875 71.0785 192.782 71.9827 192.754 72.4761C192.737 72.7912 192.739 73.1086 192.746 73.4259C192.75 73.7107 192.795 74.0323 192.741 74.3127C192.715 74.4475 192.648 74.5801 192.536 74.654C192.428 74.7257 192.294 74.7366 192.167 74.7453C191.619 74.7822 191.066 74.7822 190.516 74.78C189.993 74.7757 189.458 74.7279 188.94 74.7648C188.633 74.7866 188.316 74.7583 188.007 74.7626C187.699 74.767 187.369 74.7822 187.051 74.8192C186.755 74.8518 186.41 74.9278 186.272 75.2278C186.203 75.3799 186.186 75.5603 186.175 75.7255C186.168 75.8081 186.162 75.8885 186.162 75.9711C186.162 76.1276 186.151 76.2798 186.155 76.4363C186.166 76.7384 186.192 77.0688 186.278 77.3579C186.315 77.4817 186.384 77.5969 186.505 77.6578C186.656 77.7317 186.84 77.7426 187.004 77.7621C187.567 77.823 188.156 77.7665 188.731 77.7708C189.305 77.7752 189.913 77.786 190.505 77.786C190.783 77.786 191.101 77.7621 191.17 78.0947C191.23 78.3838 191.181 78.7033 191.174 78.9967C191.165 79.3945 191.185 79.7922 191.185 80.1922C191.185 80.4573 191.211 80.7508 191.131 81.0072C191.088 81.1442 190.952 81.2028 190.822 81.2376C190.68 81.2767 190.533 81.2854 190.384 81.2854C190.002 81.2854 189.622 81.2963 189.24 81.2963C188.765 81.2963 188.288 81.2854 187.813 81.2811C187.589 81.2811 187.358 81.2637 187.135 81.2854C186.982 81.3007 186.812 81.2941 186.663 81.3441C186.524 81.3898 186.419 81.4985 186.347 81.6223C186.265 81.7636 186.244 81.8614 186.237 82.0266C186.218 82.4287 186.151 82.8678 186.203 83.2677C186.222 83.4242 186.237 83.8154 186.304 83.9611C186.43 84.2262 186.773 84.2697 187.03 84.2828C187.435 84.3045 187.843 84.3175 188.249 84.3262C189.106 84.3436 189.963 84.3154 190.82 84.3154C191.116 84.311 191.412 84.3067 191.707 84.2958C193.121 84.248 193.015 84.511 192.985 85.8064C192.974 86.2889 193.048 87.3953 192.942 87.7256C192.879 87.9169 192.657 88.0278 192.471 88.056C191.612 88.1777 190.751 88.1386 189.885 88.1408C189.801 88.1408 189.719 88.1408 189.635 88.1473C188.882 88.1821 188.115 88.1538 187.36 88.1582C186.568 88.1625 185.775 88.1691 184.983 88.1691C184.511 88.1691 183.401 88.2538 183.06 88.1299C182.371 87.8821 182.583 86.665 182.596 86.0477C182.611 85.2956 182.6 84.5305 182.6 83.7763L182.596 83.7807Z"/>
<path d="M156.96 76.6167V73.3977L156.967 73.239C156.967 72.7587 156.982 72.2609 156.988 71.774C156.991 71.5784 157.025 71.3698 156.978 71.1785C156.954 71.0828 156.9 70.9894 156.816 70.9394C156.757 70.9068 156.69 70.8938 156.626 70.8851C156.358 70.8503 156.09 70.8394 155.821 70.8394C155.663 70.8394 155.536 70.8394 155.406 70.8329C154.793 70.8264 154.193 70.8264 153.614 70.8481C153.394 70.8677 153.213 70.8416 153.029 70.9959C152.82 71.172 152.751 71.4502 152.643 71.6893C152.615 71.7827 152.578 71.8827 152.544 71.9762L152.473 72.1696C152.429 72.2848 152.395 72.4 152.352 72.5065C151.866 73.7128 151.346 74.9496 150.839 76.1429C150.836 76.1494 150.832 76.1581 150.83 76.1646C150.687 76.4993 150.543 76.834 150.4 77.1688C150.31 77.3796 150.219 77.5926 150.128 77.8034C150.048 77.9882 149.966 78.1968 149.841 78.3555C149.785 78.4272 149.697 78.4968 149.599 78.4903C149.539 78.4859 149.485 78.4555 149.442 78.4142C149.194 78.1773 149.097 77.7926 148.969 77.4861C148.775 77.021 148.578 76.5558 148.382 76.0907C148.274 75.8342 148.166 75.5799 148.06 75.3234C147.754 74.5823 147.447 73.8432 147.147 73.1021C146.99 72.7282 146.841 72.3631 146.69 71.9892L146.547 71.6154C146.472 71.4132 146.407 71.1372 146.223 71.0024C146.087 70.9003 145.913 70.9003 145.751 70.8916C145.561 70.8807 145.371 70.872 145.181 70.8633C144.721 70.8416 144.261 70.8264 143.801 70.8177C143.447 70.8177 143.085 70.7872 142.733 70.8285C142.657 70.8372 142.582 70.8503 142.515 70.8872C142.429 70.9372 142.368 71.0263 142.336 71.122C142.258 71.3611 142.288 71.648 142.282 71.8979C142.275 72.1109 142.267 72.3218 142.273 72.5348C142.28 72.8239 142.284 73.1108 142.286 73.3998C142.295 74.2845 142.286 75.1691 142.28 76.0559L142.273 76.6297C142.273 77.0318 142.267 77.4339 142.267 77.8447C142.267 78.5859 142.273 79.3314 142.273 80.0857V80.3161C142.288 82.7808 142.288 85.0087 142.23 87.2279C142.228 87.3475 142.228 87.4692 142.23 87.5887C142.232 87.7083 142.252 87.8169 142.278 87.9343C142.286 87.9756 142.295 88.0169 142.314 88.0539C142.364 88.1495 142.478 88.1951 142.584 88.2082C142.847 88.2408 143.102 88.2082 143.363 88.2082C143.644 88.2082 143.927 88.2104 144.207 88.2125C144.6 88.2125 144.993 88.2082 145.386 88.1995C145.524 88.1973 145.701 88.2104 145.803 88.0952C145.878 88.0104 145.874 87.8865 145.876 87.78C145.878 87.6887 145.88 87.5996 145.88 87.5083C145.88 87.2518 145.878 86.9932 145.869 86.7367C145.869 86.6628 145.863 86.5867 145.863 86.5128L145.848 85.5782C145.839 84.5566 145.826 83.5372 145.839 82.5157C145.844 82.1549 145.854 81.7941 145.865 81.4333C145.878 81.0746 145.865 80.7138 145.885 80.3574C145.893 80.1987 145.915 79.9487 146.09 79.8835C146.256 79.8227 146.396 79.9683 146.47 80.0987C146.698 80.5095 146.899 80.9377 147.1 81.3637C147.143 81.4528 147.182 81.5419 147.223 81.6332C147.294 81.7962 147.348 81.9723 147.428 82.131C147.806 83.0569 148.177 83.948 148.548 84.8392L148.626 85.0413C148.669 85.1348 148.712 85.2348 148.747 85.3369L148.784 85.4239C148.842 85.5804 148.902 85.7369 148.969 85.889C149.027 86.0194 149.09 86.1216 149.235 86.1607C149.319 86.1824 149.405 86.1781 149.492 86.1759C149.582 86.1759 149.671 86.1694 149.761 86.1651C149.841 86.1607 149.923 86.1564 149.997 86.1216C150.074 86.0868 150.126 86.0303 150.167 85.9564C150.215 85.8694 150.258 85.7803 150.295 85.6869C150.325 85.6086 150.355 85.5304 150.387 85.4543C150.465 85.2674 150.545 85.0957 150.623 84.9218L150.659 84.8348C150.724 84.6979 150.787 84.5545 150.845 84.411L151.523 82.8091C151.672 82.4505 151.823 82.0831 151.972 81.7245C152.179 81.2268 152.429 80.7573 152.673 80.2791C152.736 80.1574 152.801 80.0313 152.909 79.9487C153.055 79.8379 153.217 79.8618 153.301 80.0291C153.394 80.2117 153.371 80.4725 153.373 80.6725C153.373 80.8964 153.368 81.1203 153.368 81.3441C153.368 82.0245 153.377 82.7048 153.377 83.3851V84.0306C153.371 85.1239 153.362 86.2824 153.34 87.4105V87.4974C153.336 87.6539 153.34 87.8082 153.368 87.9626C153.379 88.0126 153.392 88.0647 153.42 88.1082C153.504 88.2364 153.651 88.2299 153.785 88.2299C154.605 88.219 155.436 88.2451 156.272 88.2169C156.425 88.2169 156.576 88.206 156.729 88.1908C156.783 88.1864 156.839 88.1799 156.885 88.1517C156.937 88.1191 156.969 88.0626 156.984 88.0039C157.01 87.9039 156.999 87.7909 156.997 87.6887C156.997 87.5757 156.991 87.4605 156.984 87.3475C156.969 87.1105 156.962 86.9149 156.962 86.7345C156.928 84.5132 156.934 82.2288 156.941 80.0226L156.956 76.6232L156.96 76.6167Z"/>
<path d="M171.351 87.6539C171.002 86.1607 170.68 84.6588 170.352 83.1221L169.404 78.6707C169.283 78.1034 169.154 77.5296 169.033 76.9471L169.005 76.8167C168.698 75.4234 168.385 74.0302 168.135 72.6869C168.079 72.4131 168.027 72.1414 167.971 71.8762C167.945 71.7545 167.919 71.6328 167.895 71.511C167.861 71.3437 167.846 71.1024 167.714 70.9807C167.69 70.959 167.662 70.9416 167.634 70.9285C167.395 70.8068 167.097 70.8351 166.838 70.8416H166.395C165.804 70.8264 165.197 70.8264 164.619 70.8264C163.734 70.8264 162.907 70.8416 162.115 70.8764C161.972 70.8829 161.821 70.8764 161.698 70.9633C161.614 71.022 161.581 71.1002 161.556 71.1959C161.525 71.3089 161.502 71.4219 161.482 71.5371L161.467 71.6241C161.068 73.6715 160.632 75.7538 160.204 77.7643L160.176 77.923C160.04 78.5685 159.904 79.2162 159.77 79.8618L159.55 80.9094C159.429 81.4615 159.315 82.0288 159.201 82.6048L159.172 82.77C158.888 84.1567 158.603 85.5782 158.266 86.9214C158.223 87.0932 158.184 87.267 158.149 87.4431C158.117 87.6126 158.076 87.7909 158.091 87.9626C158.093 87.993 158.1 88.0256 158.11 88.0539C158.139 88.1256 158.205 88.1756 158.277 88.1995C158.348 88.2234 158.415 88.2147 158.486 88.2169C158.799 88.2343 159.119 88.2191 159.434 88.2191C159.768 88.2191 160.101 88.2191 160.435 88.2191C160.61 88.2191 160.783 88.2125 160.958 88.2038C161.059 88.1995 161.161 88.1886 161.262 88.1756C161.32 88.1669 161.381 88.1582 161.433 88.1299C161.504 88.093 161.553 88.0256 161.588 87.9539C161.625 87.8778 161.627 87.8017 161.651 87.7213C161.707 87.5279 161.743 87.3344 161.778 87.1475C161.806 86.9888 161.834 86.8736 161.856 86.7519L161.877 86.6584C161.905 86.5193 161.944 86.3802 161.972 86.2411C162.02 86.002 162.056 85.6804 162.251 85.5108C162.372 85.4065 162.536 85.3782 162.693 85.3587C163.2 85.2956 163.714 85.3 164.224 85.3C164.701 85.3 165.189 85.2891 165.67 85.3C165.916 85.3065 166.164 85.3196 166.41 85.3435C166.68 85.3695 167.034 85.3435 167.239 85.5565C167.332 85.6521 167.362 85.7695 167.397 85.8934C167.442 86.0499 167.481 86.2064 167.515 86.365C167.582 86.6824 167.634 87.0019 167.703 87.317L167.746 87.5322C167.766 87.6365 167.79 87.7409 167.813 87.8452C167.828 87.9082 167.844 87.9734 167.889 88.0234C167.934 88.0734 167.982 88.1169 168.049 88.1386C168.174 88.1799 168.321 88.1734 168.45 88.1778C168.599 88.1843 168.748 88.1886 168.895 88.1908C169.432 88.2038 169.968 88.1908 170.505 88.193C170.635 88.193 170.766 88.193 170.896 88.193C171.012 88.193 171.129 88.2017 171.241 88.1691C171.284 88.156 171.325 88.1365 171.353 88.1017C171.446 87.9865 171.375 87.7735 171.347 87.6474L171.351 87.6539ZM166.406 81.3268C166.419 81.3898 166.434 81.4528 166.432 81.518C166.432 81.7115 166.266 81.7919 166.091 81.7962C165.884 81.8006 165.676 81.7941 165.469 81.7897C164.785 81.7789 164.098 81.7897 163.414 81.7723C163.175 81.7658 163.006 81.7289 162.991 81.4637C162.98 81.2768 163.028 81.0942 163.06 80.9116C163.118 80.5899 163.209 80.2769 163.27 79.9553C163.375 79.3923 163.533 78.8402 163.656 78.2816C163.712 78.023 163.764 77.7708 163.813 77.5209C163.96 76.7797 164.105 76.032 164.336 75.3126C164.381 75.1691 164.424 75.0148 164.53 74.9039C164.567 74.8648 164.614 74.8322 164.666 74.8192C164.975 74.7453 165.065 75.2191 165.126 75.4212C165.437 76.4776 165.618 77.5752 165.847 78.6511C165.86 78.7163 165.877 78.7815 165.888 78.8489C165.909 78.9793 165.944 79.1141 165.974 79.2358C166.024 79.4358 166.074 79.6379 166.117 79.8466C166.132 79.9248 166.145 80.0052 166.16 80.077L166.181 80.1987C166.268 80.5682 166.324 80.942 166.406 81.3246V81.3268Z"/>
</mask>
<path d="M84.4242 82.6877L84.2925 82.5594C83.9586 82.2308 83.5793 81.8571 83.0955 81.7221C82.9592 81.6838 82.8411 81.6726 82.7321 81.6861C82.6094 81.7018 82.4958 81.7491 82.4005 81.7918C81.9121 82.0102 81.4828 82.3343 81.0672 82.6449C80.8287 82.825 80.5811 83.0096 80.3267 83.1716C79.8111 83.5002 79.2592 83.7996 78.7277 84.0877L78.5687 84.1732C77.7192 84.6324 77.0174 84.9903 76.3632 85.3031C75.4637 85.7331 74.7074 86.0504 73.9896 86.3025C73.4218 86.5028 72.8154 86.6672 72.193 86.7887L72.1249 86.8022C71.473 86.9327 70.6644 87.0948 70.2374 86.5366C70.1329 86.3993 70.0693 86.235 70.0261 86.1067C69.8671 85.6363 69.8081 85.1276 69.8535 84.6324C69.8808 84.3353 69.958 84.1485 70.0965 84.0449C70.2919 83.9009 70.5894 83.8041 71.0096 83.7523C71.3458 83.7096 71.7433 83.6555 72.1408 83.588C72.754 83.4822 73.3786 83.3202 73.9987 83.1086C75.2616 82.6764 76.5154 82.0394 77.7306 81.2156C79.5863 79.9574 81.2193 78.3233 82.4527 76.4911C82.6821 76.0815 82.5572 75.6471 82.1097 75.3275C81.267 74.8075 80.5788 74.4834 79.9383 74.3033C79.5476 74.2358 79.2069 74.3731 78.839 74.7513C78.571 75.0506 78.3097 75.359 78.0599 75.6561C77.5602 76.2481 77.0446 76.8603 76.4518 77.4095C75.3184 78.5101 73.7602 79.1179 72.2452 79.6085L72.1816 79.6311C71.3208 79.9237 70.142 80.3266 69.7059 79.3587C69.3811 78.5056 69.3992 77.8394 69.7604 77.378C69.9512 77.1349 70.2396 76.9481 70.6235 76.822C70.787 76.768 70.9528 76.7162 71.1164 76.6645C71.5866 76.5159 72.0726 76.3651 72.5314 76.149C73.0788 75.8924 73.624 75.548 74.1509 75.1271C75.0072 74.4429 75.8158 73.5718 76.6971 72.3834C76.9015 72.1065 77.0628 71.8544 77.19 71.6091C77.249 71.4988 77.3126 71.3728 77.349 71.2377C77.3967 71.0644 77.3785 70.9046 77.299 70.7628C77.2309 70.6412 77.1196 70.5399 76.9833 70.4724C76.9288 70.4477 76.872 70.4274 76.8129 70.4071C76.5426 70.3149 76.2678 70.2338 75.9998 70.1551C75.8839 70.1213 75.7681 70.0875 75.6523 70.0515C75.5501 70.02 75.4479 69.9862 75.3456 69.9502C75.1162 69.8714 74.8777 69.7904 74.637 69.7544C74.3122 69.7026 74.0192 69.8287 73.8715 70.0785C73.1538 71.2917 72.3997 72.1583 70.8711 72.7278C70.3714 72.8921 69.9875 72.8718 69.7286 72.6737C69.1335 72.2168 69.2243 70.8483 69.2902 69.8489C69.3107 69.5361 69.3311 69.2412 69.3288 69.0094C69.3402 68.6267 69.163 68.3319 68.8337 68.1811C68.6565 68.0978 68.4634 68.0685 68.2817 68.046C67.8593 67.9943 67.43 67.9875 67.003 68.019C66.6532 68.0438 66.258 68.1068 65.9831 68.3791C65.8014 68.5592 65.6947 68.8203 65.6583 69.1714C65.6333 69.4213 65.6061 69.7184 65.6038 69.9997C65.5766 70.2158 65.5788 70.4837 65.5788 70.7673C65.5788 71.4673 65.5834 72.2573 65.1972 72.6265C65.0383 72.7795 64.8247 72.8515 64.5499 72.8358C63.0077 72.6107 61.9288 71.2084 61.0316 69.9052C60.4456 69.2097 59.4871 69.6936 58.9669 69.9547C58.8625 70.0133 58.7443 70.0695 58.6262 70.1258C58.2356 70.3104 57.7926 70.5219 57.6677 70.9271C57.6064 71.1274 57.6745 71.4268 57.879 71.8387C57.9698 72.021 58.0834 72.1943 58.1947 72.3586C58.2469 72.4396 58.3014 72.5207 58.3514 72.6017C58.6149 73.0271 58.9192 73.4323 59.2554 73.8104C59.3622 73.9297 59.4621 74.0512 59.562 74.175C59.7256 74.3731 59.8936 74.5802 60.0867 74.767C60.6682 75.3275 61.4132 75.8181 62.299 76.2255C62.9395 76.5182 63.6436 76.7635 64.3955 76.9548C64.7793 77.0403 65.095 77.3352 65.2858 77.7831C65.5402 78.3818 65.5243 79.1449 65.2586 79.5793C64.9383 79.9079 64.4591 79.9259 64.1093 79.8831C63.7686 79.8404 63.4211 79.7458 63.0826 79.6558C62.9214 79.613 62.7601 79.568 62.6011 79.532C62.3285 79.4667 62.0628 79.3632 61.8039 79.2619C61.6857 79.2146 61.5654 79.1696 61.445 79.1269C61.052 78.9851 60.6614 78.814 60.2866 78.6182C58.7216 77.7989 57.2952 76.4821 56.1664 74.8098C56.021 74.5959 55.7802 74.3213 55.4418 74.2313C55.0875 74.1413 54.74 74.2808 54.431 74.4069L54.3879 74.4249C54.0585 74.5577 53.7247 74.713 53.3953 74.8886C53.1091 75.0394 52.8729 75.2037 52.6776 75.3882C52.2846 75.7551 52.2551 76.23 52.5981 76.7545C52.9524 77.3014 53.4135 77.7854 53.8587 78.2535C54.0018 78.4043 54.1449 78.5552 54.2834 78.706C55.5099 80.0452 57.0499 81.1751 58.8556 82.0597C60.5183 82.8745 62.2627 83.4215 64.0411 83.6848C64.1274 83.6983 64.2138 83.7051 64.2955 83.7096C64.4818 83.7253 64.6567 83.7366 64.8316 83.8266C65.0791 83.9504 65.2722 84.1485 65.3767 84.3848C65.4698 84.5919 65.4993 84.8215 65.5221 85.0398C65.5448 85.2626 65.5629 85.4855 65.572 85.7015C65.5834 85.9604 65.5879 86.2597 65.4812 86.5141C65.2631 87.034 64.7044 86.98 64.1638 86.926C64.0934 86.9192 64.0252 86.9125 63.9571 86.9057C63.4824 86.8675 63.0031 86.7414 62.5375 86.6176C62.3853 86.5771 62.2331 86.5366 62.09 86.5028C59.4257 85.6183 56.3799 84.4321 53.9768 82.3478C53.1432 81.5983 52.1393 80.9703 51.0195 81.9877C50.3631 82.4964 50.0292 82.969 50.0019 83.4372C49.9815 83.7726 50.1246 84.0922 50.4267 84.3893C51.4374 85.3954 52.5617 86.1179 53.7519 86.881C54.0404 87.0655 54.3311 87.2524 54.6287 87.4482C58.4036 89.7575 62.9145 91 67.2574 91C68.5816 91 69.8921 90.8852 71.1618 90.6489C71.5002 90.5858 71.8387 90.5318 72.1794 90.4778C72.645 90.4035 73.1288 90.327 73.6012 90.228C74.4098 90.0569 75.1889 89.8566 75.9203 89.6315C77.458 89.1543 78.9026 88.5241 80.2109 87.7566C80.7537 87.4369 81.2852 87.0813 81.7985 86.7369L82.196 86.4713C82.405 86.3318 82.614 86.1922 82.8184 86.0482C83.2931 85.7128 83.736 85.3549 84.1448 85.0195C84.3447 84.8552 84.5264 84.6684 84.7036 84.4883L84.7604 84.4298C84.824 84.3646 84.8944 84.2903 84.9489 84.2025C84.9989 84.117 85.0352 84.0292 85.0511 83.9391C85.1442 83.4665 84.7558 83.0186 84.4083 82.6809L84.4242 82.6877Z" fill="#1A1A1A"/>
<path d="M94.0719 87.9039C93.692 87.3888 93.5517 86.0368 93.4114 85.3565C93.1049 83.8698 92.7962 82.3831 92.4897 80.8964C92.181 79.4075 91.8701 77.9208 91.5571 76.4319C91.4017 75.6995 91.2312 74.9691 91.0736 74.2367C90.9182 73.5194 90.8146 72.7934 90.67 72.0762C90.6268 71.8653 90.5815 71.6567 90.5512 71.4458C90.5296 71.285 90.5512 71.0763 90.6937 70.9785C90.8362 70.8807 91.0196 70.8546 91.1859 70.8351C91.5938 70.7851 92.0126 70.8025 92.4249 70.7959C92.6494 70.7938 92.8717 70.7807 93.0962 70.7807C93.2927 70.7807 93.4891 70.7938 93.6877 70.7938C93.9726 70.7938 94.3201 70.8003 94.5382 70.9959C94.6763 71.1198 94.7583 71.3372 94.8166 71.511C94.8749 71.6893 94.9224 71.8697 94.9634 72.0522C95.0541 72.4413 95.1231 72.8369 95.1922 73.2303C95.2181 73.3738 95.2419 73.5194 95.2721 73.6628C95.3865 74.2149 95.9974 77.3992 96.1528 77.6383C96.3363 77.3535 97.4954 72.7717 97.6185 72.087C97.6832 71.7306 97.7739 71.4089 97.9639 71.0981C98.074 70.9177 98.2639 70.8438 98.4668 70.8351C98.6287 70.8285 98.7949 70.8112 98.9568 70.809C99.1425 70.809 99.3281 70.8199 99.5137 70.8199C99.8937 70.8199 99.762 70.8155 100.144 70.8133C100.377 70.8133 100.615 70.8264 100.839 70.8894C101.064 70.9524 101.152 71.0394 101.226 71.2633C101.409 71.8197 101.482 72.3826 101.59 72.9543C101.69 73.4824 102.721 77.3948 102.836 77.5578C102.952 77.7187 103.123 76.7101 103.136 76.6515C103.447 75.1213 103.79 73.6215 104.071 72.0849C104.118 71.8197 104.161 71.548 104.237 71.2893C104.276 71.1546 104.33 71.0068 104.45 70.9242C104.563 70.8459 104.707 70.8372 104.839 70.8351C105.184 70.8264 105.536 70.8177 105.882 70.8351C105.987 70.8394 106.093 70.8416 106.199 70.8416C106.682 70.8416 107.168 70.8329 107.652 70.8438C107.809 70.8481 107.993 70.8372 108.146 70.8851C108.787 71.085 108.34 72.2348 108.228 72.6717C107.792 74.3975 107.436 76.2841 107.06 78.0404C106.48 80.7551 105.867 83.4894 105.314 86.2085C105.262 86.4628 105.232 86.7237 105.184 86.978C105.133 87.254 105.048 87.5257 104.958 87.7909C104.869 88.0495 104.675 88.193 104.407 88.2125C103.652 88.2669 102.875 88.2886 102.119 88.2125C102.108 88.2125 102.095 88.2104 102.085 88.2082C101.964 88.1951 101.847 88.1864 101.748 88.1104C101.679 88.0582 101.623 87.9908 101.584 87.9169C101.545 87.843 101.517 87.7626 101.495 87.6865C101.485 87.6496 101.467 87.6126 101.459 87.5735C101.418 87.3779 101.374 87.1801 101.325 86.9845C101.139 86.2672 100.986 85.5499 100.82 84.8305C100.697 84.3002 100.578 83.7698 100.457 83.2395C100.345 82.7439 100.295 82.081 100.179 81.5854C100.163 81.5224 100.14 81.4572 100.097 81.4072C100.049 81.3528 99.9994 81.3354 99.9304 81.3224C99.749 81.2876 99.5526 81.3007 99.3691 81.305C99.2569 81.3072 99.1338 81.3159 99.0432 81.3898C98.9503 81.4659 98.9158 81.5876 98.8877 81.6984C98.7496 82.2788 98.5747 83.0069 98.4668 83.5938C98.3481 84.2284 98.2078 84.8609 98.0459 85.4869C97.9574 85.8282 97.871 86.1694 97.7998 86.515C97.7221 86.8932 97.6638 87.2736 97.5321 87.6409C97.4717 87.8083 97.3767 88.0539 97.1976 88.1321C97.0184 88.2104 96.7119 88.1777 96.5068 88.1864C95.9218 88.2147 95.693 88.1908 95.108 88.1995C94.7627 88.206 94.305 88.2234 94.0698 87.9061L94.0719 87.9039Z" fill="#1A1A1A"/>
<path d="M115.71 83.6372C115.71 80.1009 115.734 76.5449 115.71 73.0086C115.706 72.5413 115.57 71.348 115.885 71.0328C116.211 70.709 117.133 70.8568 117.651 70.8503C118.164 70.8437 119.198 70.6546 119.419 71.2024C119.557 71.548 119.477 73.6259 119.477 74.1584C119.477 76.6341 119.509 79.1575 119.475 81.6289C119.47 81.9071 119.449 82.1875 119.44 82.4657C119.427 82.8417 119.449 83.3873 119.449 83.7633C119.449 83.8893 119.47 84.0089 119.475 84.1349C119.479 84.2523 119.483 84.3914 119.572 84.4805C119.673 84.5827 119.822 84.5979 119.958 84.6044C120.107 84.611 120.25 84.6283 120.401 84.6283C120.779 84.6283 121.154 84.6283 121.532 84.6262C122.281 84.6262 123.036 84.6501 123.785 84.6196C124.096 84.6066 124.545 84.5762 124.798 84.8087C124.932 84.9348 124.971 85.1217 124.986 85.2978C125.02 85.6651 125.001 85.8607 124.992 86.2302C124.986 86.5606 125.005 86.891 125.003 87.2236C125.003 87.4713 124.99 87.8104 124.811 88.006C124.645 88.1864 124.219 88.169 123.997 88.1669C123.492 88.1603 122.991 88.1821 122.486 88.1734C121.735 88.1582 120.986 88.1582 120.235 88.1625C119.419 88.1669 118.605 88.1756 117.789 88.1756C117.275 88.1756 116.438 88.2929 116.068 88.0995C115.509 87.8082 115.697 86.6171 115.708 86.0542C115.723 85.2543 115.712 84.4392 115.712 83.6394L115.71 83.6372Z" fill="#1A1A1A"/>
<path d="M130.848 88.1539C130.349 88.2038 129.849 88.206 129.35 88.2299C128.828 88.256 128.303 88.1952 127.778 88.2038C127.509 88.2082 127.213 88.1908 126.954 88.1104C126.626 88.0082 126.457 87.7735 126.403 87.4388C126.321 86.928 126.384 86.3846 126.397 85.8695C126.442 83.8307 126.406 81.705 126.408 79.6597C126.408 77.3448 126.432 75.0278 126.371 72.713C126.313 70.4938 126.919 70.9133 128.709 70.7786C133.643 70.4025 136.724 72.6304 137.38 77.7861C137.453 78.3947 137.473 78.9619 137.473 79.5749C137.399 84.1067 135.655 87.6735 130.848 88.1539ZM130.22 84.6545C131.601 84.4697 133.79 82.9852 133.818 79.5423C133.844 76.3472 131.919 74.7431 130.22 74.5323V84.6545Z" fill="#1A1A1A"/>
<path d="M113.415 71.0828C113.526 71.2089 113.532 71.3697 113.549 71.5371C113.569 71.724 113.579 71.9088 113.579 72.1044C113.579 73.9671 113.534 75.8277 113.536 77.6904C113.536 80.4551 113.502 83.2634 113.541 86.0238C113.547 86.5085 113.709 87.7887 113.288 88.0691C112.93 88.2451 112.476 88.2125 112.09 88.219C111.615 88.2277 111.14 88.2256 110.665 88.219C110.428 88.2147 110.175 88.2038 109.981 88.0669C109.798 87.9386 109.694 87.7191 109.659 87.4952C109.593 87.0692 109.651 86.5693 109.649 86.1346C109.649 84.9544 109.7 83.7763 109.709 82.5961C109.718 81.1963 109.709 79.7987 109.709 78.4055C109.709 78.0121 109.733 77.6208 109.733 77.2274C109.733 76.9057 109.707 76.5884 109.718 76.2667C109.735 75.7255 109.692 75.206 109.692 74.6648C109.692 74.291 109.729 73.9171 109.729 73.5411C109.729 73.1129 109.744 72.6913 109.765 72.2652C109.776 72.0479 109.782 71.8218 109.806 71.6045C109.819 71.4849 109.845 71.3523 109.89 71.2393C109.975 71.0241 110.212 70.8785 110.437 70.8677C110.804 70.8503 111.173 70.8568 111.54 70.8546C111.93 70.8546 112.319 70.8503 112.71 70.8568C112.947 70.8611 113.202 70.8807 113.385 71.0481C113.398 71.0589 113.409 71.072 113.42 71.0828H113.415Z" fill="#1A1A1A"/>
<path d="M177.763 70.8568C178.205 70.8568 178.648 70.8503 179.09 70.8416C179.611 70.8329 180.131 70.8416 180.651 70.8307C180.822 70.8264 181.005 70.8481 181.137 70.9546C181.284 71.0741 181.34 71.2741 181.363 71.4632C181.43 71.9501 181.374 72.45 181.374 72.939C181.374 73.239 181.346 73.5411 181.344 73.8389C181.344 73.9845 181.335 74.1323 181.329 74.278C181.325 74.3845 181.318 74.4953 181.271 74.5909C181.158 74.8235 180.819 74.817 180.601 74.8192C179.969 74.8213 179.321 74.8648 178.691 74.8344C178.503 74.8257 178.283 74.8322 178.104 74.8583C177.979 74.8778 177.806 74.9039 177.709 74.9909C177.573 75.1169 177.597 75.3799 177.597 75.5495C177.597 75.6734 177.601 75.7994 177.608 75.9233C177.618 76.1233 177.59 76.3319 177.59 76.5341C177.59 76.9188 177.618 77.3013 177.618 77.6861C177.618 80.4508 177.584 83.259 177.623 86.0194C177.629 86.5041 177.791 87.7843 177.37 88.0647C177.012 88.2408 176.558 88.2082 176.172 88.2147C175.697 88.2234 175.222 88.2212 174.747 88.2147C174.51 88.2103 174.257 88.1995 174.063 88.0625C173.88 87.9343 173.776 87.7148 173.741 87.4909C173.675 87.0649 173.733 86.565 173.731 86.1303C173.731 84.95 173.782 83.772 173.791 82.5917C173.8 81.192 173.791 79.7944 173.791 78.4012C173.791 78.0077 173.815 77.6165 173.815 77.2231C173.815 76.9014 173.789 76.5841 173.8 76.2624C173.811 75.9255 173.8 75.5842 173.709 75.2582C173.569 74.754 173.133 74.8105 172.697 74.7909C172.198 74.767 171.697 74.8083 171.199 74.7866C170.879 74.7713 170.46 74.8757 170.208 74.6192C170.065 74.4757 170.05 74.1867 170.039 73.9889C170.014 73.5216 169.977 73.0629 169.977 72.5935C169.977 72.3935 169.992 72.2 169.998 72.0023C170.005 71.7892 170.022 71.5741 170.074 71.3676C170.175 70.9655 170.607 70.8698 170.97 70.8524C171.378 70.8329 171.794 70.8655 172.202 70.8655C173.135 70.8655 174.067 70.8546 175 70.8546C175.922 70.8546 176.843 70.8546 177.765 70.8546L177.763 70.8568Z" fill="#1A1A1A"/>
<path d="M182.596 83.7807V75.2473C182.596 74.2432 182.604 73.252 182.57 72.2457C182.557 71.8805 182.535 71.3958 182.784 71.0937C182.982 70.8481 183.328 70.8242 183.619 70.8177C184.718 70.7938 185.532 70.8416 186.632 70.8416C187.146 70.8416 187.653 70.8133 188.167 70.8133C188.625 70.8133 189.087 70.8133 189.547 70.8307C190.071 70.8524 190.591 70.8351 191.114 70.8307C191.474 70.8285 191.919 70.7742 192.266 70.8851C192.875 71.0785 192.782 71.9827 192.754 72.4761C192.737 72.7912 192.739 73.1086 192.746 73.4259C192.75 73.7107 192.795 74.0323 192.741 74.3127C192.715 74.4475 192.648 74.5801 192.536 74.654C192.428 74.7257 192.294 74.7366 192.167 74.7453C191.619 74.7822 191.066 74.7822 190.516 74.78C189.993 74.7757 189.458 74.7279 188.94 74.7648C188.633 74.7866 188.316 74.7583 188.007 74.7626C187.699 74.767 187.369 74.7822 187.051 74.8192C186.755 74.8518 186.41 74.9278 186.272 75.2278C186.203 75.3799 186.186 75.5603 186.175 75.7255C186.168 75.8081 186.162 75.8885 186.162 75.9711C186.162 76.1276 186.151 76.2798 186.155 76.4363C186.166 76.7384 186.192 77.0688 186.278 77.3579C186.315 77.4817 186.384 77.5969 186.505 77.6578C186.656 77.7317 186.84 77.7426 187.004 77.7621C187.567 77.823 188.156 77.7665 188.731 77.7708C189.305 77.7752 189.913 77.786 190.505 77.786C190.783 77.786 191.101 77.7621 191.17 78.0947C191.23 78.3838 191.181 78.7033 191.174 78.9967C191.165 79.3945 191.185 79.7922 191.185 80.1922C191.185 80.4573 191.211 80.7508 191.131 81.0072C191.088 81.1442 190.952 81.2028 190.822 81.2376C190.68 81.2767 190.533 81.2854 190.384 81.2854C190.002 81.2854 189.622 81.2963 189.24 81.2963C188.765 81.2963 188.288 81.2854 187.813 81.2811C187.589 81.2811 187.358 81.2637 187.135 81.2854C186.982 81.3007 186.812 81.2941 186.663 81.3441C186.524 81.3898 186.419 81.4985 186.347 81.6223C186.265 81.7636 186.244 81.8614 186.237 82.0266C186.218 82.4287 186.151 82.8678 186.203 83.2677C186.222 83.4242 186.237 83.8154 186.304 83.9611C186.43 84.2262 186.773 84.2697 187.03 84.2828C187.435 84.3045 187.843 84.3175 188.249 84.3262C189.106 84.3436 189.963 84.3154 190.82 84.3154C191.116 84.311 191.412 84.3067 191.707 84.2958C193.121 84.248 193.015 84.511 192.985 85.8064C192.974 86.2889 193.048 87.3953 192.942 87.7256C192.879 87.9169 192.657 88.0278 192.471 88.056C191.612 88.1777 190.751 88.1386 189.885 88.1408C189.801 88.1408 189.719 88.1408 189.635 88.1473C188.882 88.1821 188.115 88.1538 187.36 88.1582C186.568 88.1625 185.775 88.1691 184.983 88.1691C184.511 88.1691 183.401 88.2538 183.06 88.1299C182.371 87.8821 182.583 86.665 182.596 86.0477C182.611 85.2956 182.6 84.5305 182.6 83.7763L182.596 83.7807Z" fill="#1A1A1A"/>
<path d="M156.96 76.6167V73.3977L156.967 73.239C156.967 72.7587 156.982 72.2609 156.988 71.774C156.991 71.5784 157.025 71.3698 156.978 71.1785C156.954 71.0828 156.9 70.9894 156.816 70.9394C156.757 70.9068 156.69 70.8938 156.626 70.8851C156.358 70.8503 156.09 70.8394 155.821 70.8394C155.663 70.8394 155.536 70.8394 155.406 70.8329C154.793 70.8264 154.193 70.8264 153.614 70.8481C153.394 70.8677 153.213 70.8416 153.029 70.9959C152.82 71.172 152.751 71.4502 152.643 71.6893C152.615 71.7827 152.578 71.8827 152.544 71.9762L152.473 72.1696C152.429 72.2848 152.395 72.4 152.352 72.5065C151.866 73.7128 151.346 74.9496 150.839 76.1429C150.836 76.1494 150.832 76.1581 150.83 76.1646C150.687 76.4993 150.543 76.834 150.4 77.1688C150.31 77.3796 150.219 77.5926 150.128 77.8034C150.048 77.9882 149.966 78.1968 149.841 78.3555C149.785 78.4272 149.697 78.4968 149.599 78.4903C149.539 78.4859 149.485 78.4555 149.442 78.4142C149.194 78.1773 149.097 77.7926 148.969 77.4861C148.775 77.021 148.578 76.5558 148.382 76.0907C148.274 75.8342 148.166 75.5799 148.06 75.3234C147.754 74.5823 147.447 73.8432 147.147 73.1021C146.99 72.7282 146.841 72.3631 146.69 71.9892L146.547 71.6154C146.472 71.4132 146.407 71.1372 146.223 71.0024C146.087 70.9003 145.913 70.9003 145.751 70.8916C145.561 70.8807 145.371 70.872 145.181 70.8633C144.721 70.8416 144.261 70.8264 143.801 70.8177C143.447 70.8177 143.085 70.7872 142.733 70.8285C142.657 70.8372 142.582 70.8503 142.515 70.8872C142.429 70.9372 142.368 71.0263 142.336 71.122C142.258 71.3611 142.288 71.648 142.282 71.8979C142.275 72.1109 142.267 72.3218 142.273 72.5348C142.28 72.8239 142.284 73.1108 142.286 73.3998C142.295 74.2845 142.286 75.1691 142.28 76.0559L142.273 76.6297C142.273 77.0318 142.267 77.4339 142.267 77.8447C142.267 78.5859 142.273 79.3314 142.273 80.0857V80.3161C142.288 82.7808 142.288 85.0087 142.23 87.2279C142.228 87.3475 142.228 87.4692 142.23 87.5887C142.232 87.7083 142.252 87.8169 142.278 87.9343C142.286 87.9756 142.295 88.0169 142.314 88.0539C142.364 88.1495 142.478 88.1951 142.584 88.2082C142.847 88.2408 143.102 88.2082 143.363 88.2082C143.644 88.2082 143.927 88.2104 144.207 88.2125C144.6 88.2125 144.993 88.2082 145.386 88.1995C145.524 88.1973 145.701 88.2104 145.803 88.0952C145.878 88.0104 145.874 87.8865 145.876 87.78C145.878 87.6887 145.88 87.5996 145.88 87.5083C145.88 87.2518 145.878 86.9932 145.869 86.7367C145.869 86.6628 145.863 86.5867 145.863 86.5128L145.848 85.5782C145.839 84.5566 145.826 83.5372 145.839 82.5157C145.844 82.1549 145.854 81.7941 145.865 81.4333C145.878 81.0746 145.865 80.7138 145.885 80.3574C145.893 80.1987 145.915 79.9487 146.09 79.8835C146.256 79.8227 146.396 79.9683 146.47 80.0987C146.698 80.5095 146.899 80.9377 147.1 81.3637C147.143 81.4528 147.182 81.5419 147.223 81.6332C147.294 81.7962 147.348 81.9723 147.428 82.131C147.806 83.0569 148.177 83.948 148.548 84.8392L148.626 85.0413C148.669 85.1348 148.712 85.2348 148.747 85.3369L148.784 85.4239C148.842 85.5804 148.902 85.7369 148.969 85.889C149.027 86.0194 149.09 86.1216 149.235 86.1607C149.319 86.1824 149.405 86.1781 149.492 86.1759C149.582 86.1759 149.671 86.1694 149.761 86.1651C149.841 86.1607 149.923 86.1564 149.997 86.1216C150.074 86.0868 150.126 86.0303 150.167 85.9564C150.215 85.8694 150.258 85.7803 150.295 85.6869C150.325 85.6086 150.355 85.5304 150.387 85.4543C150.465 85.2674 150.545 85.0957 150.623 84.9218L150.659 84.8348C150.724 84.6979 150.787 84.5545 150.845 84.411L151.523 82.8091C151.672 82.4505 151.823 82.0831 151.972 81.7245C152.179 81.2268 152.429 80.7573 152.673 80.2791C152.736 80.1574 152.801 80.0313 152.909 79.9487C153.055 79.8379 153.217 79.8618 153.301 80.0291C153.394 80.2117 153.371 80.4725 153.373 80.6725C153.373 80.8964 153.368 81.1203 153.368 81.3441C153.368 82.0245 153.377 82.7048 153.377 83.3851V84.0306C153.371 85.1239 153.362 86.2824 153.34 87.4105V87.4974C153.336 87.6539 153.34 87.8082 153.368 87.9626C153.379 88.0126 153.392 88.0647 153.42 88.1082C153.504 88.2364 153.651 88.2299 153.785 88.2299C154.605 88.219 155.436 88.2451 156.272 88.2169C156.425 88.2169 156.576 88.206 156.729 88.1908C156.783 88.1864 156.839 88.1799 156.885 88.1517C156.937 88.1191 156.969 88.0626 156.984 88.0039C157.01 87.9039 156.999 87.7909 156.997 87.6887C156.997 87.5757 156.991 87.4605 156.984 87.3475C156.969 87.1105 156.962 86.9149 156.962 86.7345C156.928 84.5132 156.934 82.2288 156.941 80.0226L156.956 76.6232L156.96 76.6167Z" fill="#1A1A1A"/>
<path d="M171.351 87.6539C171.002 86.1607 170.68 84.6588 170.352 83.1221L169.404 78.6707C169.283 78.1034 169.154 77.5296 169.033 76.9471L169.005 76.8167C168.698 75.4234 168.385 74.0302 168.135 72.6869C168.079 72.4131 168.027 72.1414 167.971 71.8762C167.945 71.7545 167.919 71.6328 167.895 71.511C167.861 71.3437 167.846 71.1024 167.714 70.9807C167.69 70.959 167.662 70.9416 167.634 70.9285C167.395 70.8068 167.097 70.8351 166.838 70.8416H166.395C165.804 70.8264 165.197 70.8264 164.619 70.8264C163.734 70.8264 162.907 70.8416 162.115 70.8764C161.972 70.8829 161.821 70.8764 161.698 70.9633C161.614 71.022 161.581 71.1002 161.556 71.1959C161.525 71.3089 161.502 71.4219 161.482 71.5371L161.467 71.6241C161.068 73.6715 160.632 75.7538 160.204 77.7643L160.176 77.923C160.04 78.5685 159.904 79.2162 159.77 79.8618L159.55 80.9094C159.429 81.4615 159.315 82.0288 159.201 82.6048L159.172 82.77C158.888 84.1567 158.603 85.5782 158.266 86.9214C158.223 87.0932 158.184 87.267 158.149 87.4431C158.117 87.6126 158.076 87.7909 158.091 87.9626C158.093 87.993 158.1 88.0256 158.11 88.0539C158.139 88.1256 158.205 88.1756 158.277 88.1995C158.348 88.2234 158.415 88.2147 158.486 88.2169C158.799 88.2343 159.119 88.2191 159.434 88.2191C159.768 88.2191 160.101 88.2191 160.435 88.2191C160.61 88.2191 160.783 88.2125 160.958 88.2038C161.059 88.1995 161.161 88.1886 161.262 88.1756C161.32 88.1669 161.381 88.1582 161.433 88.1299C161.504 88.093 161.553 88.0256 161.588 87.9539C161.625 87.8778 161.627 87.8017 161.651 87.7213C161.707 87.5279 161.743 87.3344 161.778 87.1475C161.806 86.9888 161.834 86.8736 161.856 86.7519L161.877 86.6584C161.905 86.5193 161.944 86.3802 161.972 86.2411C162.02 86.002 162.056 85.6804 162.251 85.5108C162.372 85.4065 162.536 85.3782 162.693 85.3587C163.2 85.2956 163.714 85.3 164.224 85.3C164.701 85.3 165.189 85.2891 165.67 85.3C165.916 85.3065 166.164 85.3196 166.41 85.3435C166.68 85.3695 167.034 85.3435 167.239 85.5565C167.332 85.6521 167.362 85.7695 167.397 85.8934C167.442 86.0499 167.481 86.2064 167.515 86.365C167.582 86.6824 167.634 87.0019 167.703 87.317L167.746 87.5322C167.766 87.6365 167.79 87.7409 167.813 87.8452C167.828 87.9082 167.844 87.9734 167.889 88.0234C167.934 88.0734 167.982 88.1169 168.049 88.1386C168.174 88.1799 168.321 88.1734 168.45 88.1778C168.599 88.1843 168.748 88.1886 168.895 88.1908C169.432 88.2038 169.968 88.1908 170.505 88.193C170.635 88.193 170.766 88.193 170.896 88.193C171.012 88.193 171.129 88.2017 171.241 88.1691C171.284 88.156 171.325 88.1365 171.353 88.1017C171.446 87.9865 171.375 87.7735 171.347 87.6474L171.351 87.6539ZM166.406 81.3268C166.419 81.3898 166.434 81.4528 166.432 81.518C166.432 81.7115 166.266 81.7919 166.091 81.7962C165.884 81.8006 165.676 81.7941 165.469 81.7897C164.785 81.7789 164.098 81.7897 163.414 81.7723C163.175 81.7658 163.006 81.7289 162.991 81.4637C162.98 81.2768 163.028 81.0942 163.06 80.9116C163.118 80.5899 163.209 80.2769 163.27 79.9553C163.375 79.3923 163.533 78.8402 163.656 78.2816C163.712 78.023 163.764 77.7708 163.813 77.5209C163.96 76.7797 164.105 76.032 164.336 75.3126C164.381 75.1691 164.424 75.0148 164.53 74.9039C164.567 74.8648 164.614 74.8322 164.666 74.8192C164.975 74.7453 165.065 75.2191 165.126 75.4212C165.437 76.4776 165.618 77.5752 165.847 78.6511C165.86 78.7163 165.877 78.7815 165.888 78.8489C165.909 78.9793 165.944 79.1141 165.974 79.2358C166.024 79.4358 166.074 79.6379 166.117 79.8466C166.132 79.9248 166.145 80.0052 166.16 80.077L166.181 80.1987C166.268 80.5682 166.324 80.942 166.406 81.3246V81.3268Z" fill="#1A1A1A"/>
<path d="M84.4242 82.6877L84.2925 82.5594C83.9586 82.2308 83.5793 81.8571 83.0955 81.7221C82.9592 81.6838 82.8411 81.6726 82.7321 81.6861C82.6094 81.7018 82.4958 81.7491 82.4005 81.7918C81.9121 82.0102 81.4828 82.3343 81.0672 82.6449C80.8287 82.825 80.5811 83.0096 80.3267 83.1716C79.8111 83.5002 79.2592 83.7996 78.7277 84.0877L78.5687 84.1732C77.7192 84.6324 77.0174 84.9903 76.3632 85.3031C75.4637 85.7331 74.7074 86.0504 73.9896 86.3025C73.4218 86.5028 72.8154 86.6672 72.193 86.7887L72.1249 86.8022C71.473 86.9327 70.6644 87.0948 70.2374 86.5366C70.1329 86.3993 70.0693 86.235 70.0261 86.1067C69.8671 85.6363 69.8081 85.1276 69.8535 84.6324C69.8808 84.3353 69.958 84.1485 70.0965 84.0449C70.2919 83.9009 70.5894 83.8041 71.0096 83.7523C71.3458 83.7096 71.7433 83.6555 72.1408 83.588C72.754 83.4822 73.3786 83.3202 73.9987 83.1086C75.2616 82.6764 76.5154 82.0394 77.7306 81.2156C79.5863 79.9574 81.2193 78.3233 82.4527 76.4911C82.6821 76.0815 82.5572 75.6471 82.1097 75.3275C81.267 74.8075 80.5788 74.4834 79.9383 74.3033C79.5476 74.2358 79.2069 74.3731 78.839 74.7513C78.571 75.0506 78.3097 75.359 78.0599 75.6561C77.5602 76.2481 77.0446 76.8603 76.4518 77.4095C75.3184 78.5101 73.7602 79.1179 72.2452 79.6085L72.1816 79.6311C71.3208 79.9237 70.142 80.3266 69.7059 79.3587C69.3811 78.5056 69.3992 77.8394 69.7604 77.378C69.9512 77.1349 70.2396 76.9481 70.6235 76.822C70.787 76.768 70.9528 76.7162 71.1164 76.6645C71.5866 76.5159 72.0726 76.3651 72.5314 76.149C73.0788 75.8924 73.624 75.548 74.1509 75.1271C75.0072 74.4429 75.8158 73.5718 76.6971 72.3834C76.9015 72.1065 77.0628 71.8544 77.19 71.6091C77.249 71.4988 77.3126 71.3728 77.349 71.2377C77.3967 71.0644 77.3785 70.9046 77.299 70.7628C77.2309 70.6412 77.1196 70.5399 76.9833 70.4724C76.9288 70.4477 76.872 70.4274 76.8129 70.4071C76.5426 70.3149 76.2678 70.2338 75.9998 70.1551C75.8839 70.1213 75.7681 70.0875 75.6523 70.0515C75.5501 70.02 75.4479 69.9862 75.3456 69.9502C75.1162 69.8714 74.8777 69.7904 74.637 69.7544C74.3122 69.7026 74.0192 69.8287 73.8715 70.0785C73.1538 71.2917 72.3997 72.1583 70.8711 72.7278C70.3714 72.8921 69.9875 72.8718 69.7286 72.6737C69.1335 72.2168 69.2243 70.8483 69.2902 69.8489C69.3107 69.5361 69.3311 69.2412 69.3288 69.0094C69.3402 68.6267 69.163 68.3319 68.8337 68.1811C68.6565 68.0978 68.4634 68.0685 68.2817 68.046C67.8593 67.9943 67.43 67.9875 67.003 68.019C66.6532 68.0438 66.258 68.1068 65.9831 68.3791C65.8014 68.5592 65.6947 68.8203 65.6583 69.1714C65.6333 69.4213 65.6061 69.7184 65.6038 69.9997C65.5766 70.2158 65.5788 70.4837 65.5788 70.7673C65.5788 71.4673 65.5834 72.2573 65.1972 72.6265C65.0383 72.7795 64.8247 72.8515 64.5499 72.8358C63.0077 72.6107 61.9288 71.2084 61.0316 69.9052C60.4456 69.2097 59.4871 69.6936 58.9669 69.9547C58.8625 70.0133 58.7443 70.0695 58.6262 70.1258C58.2356 70.3104 57.7926 70.5219 57.6677 70.9271C57.6064 71.1274 57.6745 71.4268 57.879 71.8387C57.9698 72.021 58.0834 72.1943 58.1947 72.3586C58.2469 72.4396 58.3014 72.5207 58.3514 72.6017C58.6149 73.0271 58.9192 73.4323 59.2554 73.8104C59.3622 73.9297 59.4621 74.0512 59.562 74.175C59.7256 74.3731 59.8936 74.5802 60.0867 74.767C60.6682 75.3275 61.4132 75.8181 62.299 76.2255C62.9395 76.5182 63.6436 76.7635 64.3955 76.9548C64.7793 77.0403 65.095 77.3352 65.2858 77.7831C65.5402 78.3818 65.5243 79.1449 65.2586 79.5793C64.9383 79.9079 64.4591 79.9259 64.1093 79.8831C63.7686 79.8404 63.4211 79.7458 63.0826 79.6558C62.9214 79.613 62.7601 79.568 62.6011 79.532C62.3285 79.4667 62.0628 79.3632 61.8039 79.2619C61.6857 79.2146 61.5654 79.1696 61.445 79.1269C61.052 78.9851 60.6614 78.814 60.2866 78.6182C58.7216 77.7989 57.2952 76.4821 56.1664 74.8098C56.021 74.5959 55.7802 74.3213 55.4418 74.2313C55.0875 74.1413 54.74 74.2808 54.431 74.4069L54.3879 74.4249C54.0585 74.5577 53.7247 74.713 53.3953 74.8886C53.1091 75.0394 52.8729 75.2037 52.6776 75.3882C52.2846 75.7551 52.2551 76.23 52.5981 76.7545C52.9524 77.3014 53.4135 77.7854 53.8587 78.2535C54.0018 78.4043 54.1449 78.5552 54.2834 78.706C55.5099 80.0452 57.0499 81.1751 58.8556 82.0597C60.5183 82.8745 62.2627 83.4215 64.0411 83.6848C64.1274 83.6983 64.2138 83.7051 64.2955 83.7096C64.4818 83.7253 64.6567 83.7366 64.8316 83.8266C65.0791 83.9504 65.2722 84.1485 65.3767 84.3848C65.4698 84.5919 65.4993 84.8215 65.5221 85.0398C65.5448 85.2626 65.5629 85.4855 65.572 85.7015C65.5834 85.9604 65.5879 86.2597 65.4812 86.5141C65.2631 87.034 64.7044 86.98 64.1638 86.926C64.0934 86.9192 64.0252 86.9125 63.9571 86.9057C63.4824 86.8675 63.0031 86.7414 62.5375 86.6176C62.3853 86.5771 62.2331 86.5366 62.09 86.5028C59.4257 85.6183 56.3799 84.4321 53.9768 82.3478C53.1432 81.5983 52.1393 80.9703 51.0195 81.9877C50.3631 82.4964 50.0292 82.969 50.0019 83.4372C49.9815 83.7726 50.1246 84.0922 50.4267 84.3893C51.4374 85.3954 52.5617 86.1179 53.7519 86.881C54.0404 87.0655 54.3311 87.2524 54.6287 87.4482C58.4036 89.7575 62.9145 91 67.2574 91C68.5816 91 69.8921 90.8852 71.1618 90.6489C71.5002 90.5858 71.8387 90.5318 72.1794 90.4778C72.645 90.4035 73.1288 90.327 73.6012 90.228C74.4098 90.0569 75.1889 89.8566 75.9203 89.6315C77.458 89.1543 78.9026 88.5241 80.2109 87.7566C80.7537 87.4369 81.2852 87.0813 81.7985 86.7369L82.196 86.4713C82.405 86.3318 82.614 86.1922 82.8184 86.0482C83.2931 85.7128 83.736 85.3549 84.1448 85.0195C84.3447 84.8552 84.5264 84.6684 84.7036 84.4883L84.7604 84.4298C84.824 84.3646 84.8944 84.2903 84.9489 84.2025C84.9989 84.117 85.0352 84.0292 85.0511 83.9391C85.1442 83.4665 84.7558 83.0186 84.4083 82.6809L84.4242 82.6877Z" stroke="#E6E2DE" stroke-width="16" stroke-linejoin="round" mask="url(#path-2-outside-1_1195_133)"/>
<path d="M94.0719 87.9039C93.692 87.3888 93.5517 86.0368 93.4114 85.3565C93.1049 83.8698 92.7962 82.3831 92.4897 80.8964C92.181 79.4075 91.8701 77.9208 91.5571 76.4319C91.4017 75.6995 91.2312 74.9691 91.0736 74.2367C90.9182 73.5194 90.8146 72.7934 90.67 72.0762C90.6268 71.8653 90.5815 71.6567 90.5512 71.4458C90.5296 71.285 90.5512 71.0763 90.6937 70.9785C90.8362 70.8807 91.0196 70.8546 91.1859 70.8351C91.5938 70.7851 92.0126 70.8025 92.4249 70.7959C92.6494 70.7938 92.8717 70.7807 93.0962 70.7807C93.2927 70.7807 93.4891 70.7938 93.6877 70.7938C93.9726 70.7938 94.3201 70.8003 94.5382 70.9959C94.6763 71.1198 94.7583 71.3372 94.8166 71.511C94.8749 71.6893 94.9224 71.8697 94.9634 72.0522C95.0541 72.4413 95.1231 72.8369 95.1922 73.2303C95.2181 73.3738 95.2419 73.5194 95.2721 73.6628C95.3865 74.2149 95.9974 77.3992 96.1528 77.6383C96.3363 77.3535 97.4954 72.7717 97.6185 72.087C97.6832 71.7306 97.7739 71.4089 97.9639 71.0981C98.074 70.9177 98.2639 70.8438 98.4668 70.8351C98.6287 70.8285 98.7949 70.8112 98.9568 70.809C99.1425 70.809 99.3281 70.8199 99.5137 70.8199C99.8937 70.8199 99.762 70.8155 100.144 70.8133C100.377 70.8133 100.615 70.8264 100.839 70.8894C101.064 70.9524 101.152 71.0394 101.226 71.2633C101.409 71.8197 101.482 72.3826 101.59 72.9543C101.69 73.4824 102.721 77.3948 102.836 77.5578C102.952 77.7187 103.123 76.7101 103.136 76.6515C103.447 75.1213 103.79 73.6215 104.071 72.0849C104.118 71.8197 104.161 71.548 104.237 71.2893C104.276 71.1546 104.33 71.0068 104.45 70.9242C104.563 70.8459 104.707 70.8372 104.839 70.8351C105.184 70.8264 105.536 70.8177 105.882 70.8351C105.987 70.8394 106.093 70.8416 106.199 70.8416C106.682 70.8416 107.168 70.8329 107.652 70.8438C107.809 70.8481 107.993 70.8372 108.146 70.8851C108.787 71.085 108.34 72.2348 108.228 72.6717C107.792 74.3975 107.436 76.2841 107.06 78.0404C106.48 80.7551 105.867 83.4894 105.314 86.2085C105.262 86.4628 105.232 86.7237 105.184 86.978C105.133 87.254 105.048 87.5257 104.958 87.7909C104.869 88.0495 104.675 88.193 104.407 88.2125C103.652 88.2669 102.875 88.2886 102.119 88.2125C102.108 88.2125 102.095 88.2104 102.085 88.2082C101.964 88.1951 101.847 88.1864 101.748 88.1104C101.679 88.0582 101.623 87.9908 101.584 87.9169C101.545 87.843 101.517 87.7626 101.495 87.6865C101.485 87.6496 101.467 87.6126 101.459 87.5735C101.418 87.3779 101.374 87.1801 101.325 86.9845C101.139 86.2672 100.986 85.5499 100.82 84.8305C100.697 84.3002 100.578 83.7698 100.457 83.2395C100.345 82.7439 100.295 82.081 100.179 81.5854C100.163 81.5224 100.14 81.4572 100.097 81.4072C100.049 81.3528 99.9994 81.3354 99.9304 81.3224C99.749 81.2876 99.5526 81.3007 99.3691 81.305C99.2569 81.3072 99.1338 81.3159 99.0432 81.3898C98.9503 81.4659 98.9158 81.5876 98.8877 81.6984C98.7496 82.2788 98.5747 83.0069 98.4668 83.5938C98.3481 84.2284 98.2078 84.8609 98.0459 85.4869C97.9574 85.8282 97.871 86.1694 97.7998 86.515C97.7221 86.8932 97.6638 87.2736 97.5321 87.6409C97.4717 87.8083 97.3767 88.0539 97.1976 88.1321C97.0184 88.2104 96.7119 88.1777 96.5068 88.1864C95.9218 88.2147 95.693 88.1908 95.108 88.1995C94.7627 88.206 94.305 88.2234 94.0698 87.9061L94.0719 87.9039Z" stroke="#E6E2DE" stroke-width="16" stroke-linejoin="round" mask="url(#path-2-outside-1_1195_133)"/>
<path d="M115.71 83.6372C115.71 80.1009 115.734 76.5449 115.71 73.0086C115.706 72.5413 115.57 71.348 115.885 71.0328C116.211 70.709 117.133 70.8568 117.651 70.8503C118.164 70.8437 119.198 70.6546 119.419 71.2024C119.557 71.548 119.477 73.6259 119.477 74.1584C119.477 76.6341 119.509 79.1575 119.475 81.6289C119.47 81.9071 119.449 82.1875 119.44 82.4657C119.427 82.8417 119.449 83.3873 119.449 83.7633C119.449 83.8893 119.47 84.0089 119.475 84.1349C119.479 84.2523 119.483 84.3914 119.572 84.4805C119.673 84.5827 119.822 84.5979 119.958 84.6044C120.107 84.611 120.25 84.6283 120.401 84.6283C120.779 84.6283 121.154 84.6283 121.532 84.6262C122.281 84.6262 123.036 84.6501 123.785 84.6196C124.096 84.6066 124.545 84.5762 124.798 84.8087C124.932 84.9348 124.971 85.1217 124.986 85.2978C125.02 85.6651 125.001 85.8607 124.992 86.2302C124.986 86.5606 125.005 86.891 125.003 87.2236C125.003 87.4713 124.99 87.8104 124.811 88.006C124.645 88.1864 124.219 88.169 123.997 88.1669C123.492 88.1603 122.991 88.1821 122.486 88.1734C121.735 88.1582 120.986 88.1582 120.235 88.1625C119.419 88.1669 118.605 88.1756 117.789 88.1756C117.275 88.1756 116.438 88.2929 116.068 88.0995C115.509 87.8082 115.697 86.6171 115.708 86.0542C115.723 85.2543 115.712 84.4392 115.712 83.6394L115.71 83.6372Z" stroke="#E6E2DE" stroke-width="16" stroke-linejoin="round" mask="url(#path-2-outside-1_1195_133)"/>
<path d="M130.848 88.1539C130.349 88.2038 129.849 88.206 129.35 88.2299C128.828 88.256 128.303 88.1952 127.778 88.2038C127.509 88.2082 127.213 88.1908 126.954 88.1104C126.626 88.0082 126.457 87.7735 126.403 87.4388C126.321 86.928 126.384 86.3846 126.397 85.8695C126.442 83.8307 126.406 81.705 126.408 79.6597C126.408 77.3448 126.432 75.0278 126.371 72.713C126.313 70.4938 126.919 70.9133 128.709 70.7786C133.643 70.4025 136.724 72.6304 137.38 77.7861C137.453 78.3947 137.473 78.9619 137.473 79.5749C137.399 84.1067 135.655 87.6735 130.848 88.1539ZM130.22 84.6545C131.601 84.4697 133.79 82.9852 133.818 79.5423C133.844 76.3472 131.919 74.7431 130.22 74.5323V84.6545Z" stroke="#E6E2DE" stroke-width="16" stroke-linejoin="round" mask="url(#path-2-outside-1_1195_133)"/>
<path d="M113.415 71.0828C113.526 71.2089 113.532 71.3697 113.549 71.5371C113.569 71.724 113.579 71.9088 113.579 72.1044C113.579 73.9671 113.534 75.8277 113.536 77.6904C113.536 80.4551 113.502 83.2634 113.541 86.0238C113.547 86.5085 113.709 87.7887 113.288 88.0691C112.93 88.2451 112.476 88.2125 112.09 88.219C111.615 88.2277 111.14 88.2256 110.665 88.219C110.428 88.2147 110.175 88.2038 109.981 88.0669C109.798 87.9386 109.694 87.7191 109.659 87.4952C109.593 87.0692 109.651 86.5693 109.649 86.1346C109.649 84.9544 109.7 83.7763 109.709 82.5961C109.718 81.1963 109.709 79.7987 109.709 78.4055C109.709 78.0121 109.733 77.6208 109.733 77.2274C109.733 76.9057 109.707 76.5884 109.718 76.2667C109.735 75.7255 109.692 75.206 109.692 74.6648C109.692 74.291 109.729 73.9171 109.729 73.5411C109.729 73.1129 109.744 72.6913 109.765 72.2652C109.776 72.0479 109.782 71.8218 109.806 71.6045C109.819 71.4849 109.845 71.3523 109.89 71.2393C109.975 71.0241 110.212 70.8785 110.437 70.8677C110.804 70.8503 111.173 70.8568 111.54 70.8546C111.93 70.8546 112.319 70.8503 112.71 70.8568C112.947 70.8611 113.202 70.8807 113.385 71.0481C113.398 71.0589 113.409 71.072 113.42 71.0828H113.415Z" stroke="#E6E2DE" stroke-width="16" stroke-linejoin="round" mask="url(#path-2-outside-1_1195_133)"/>
<path d="M177.763 70.8568C178.205 70.8568 178.648 70.8503 179.09 70.8416C179.611 70.8329 180.131 70.8416 180.651 70.8307C180.822 70.8264 181.005 70.8481 181.137 70.9546C181.284 71.0741 181.34 71.2741 181.363 71.4632C181.43 71.9501 181.374 72.45 181.374 72.939C181.374 73.239 181.346 73.5411 181.344 73.8389C181.344 73.9845 181.335 74.1323 181.329 74.278C181.325 74.3845 181.318 74.4953 181.271 74.5909C181.158 74.8235 180.819 74.817 180.601 74.8192C179.969 74.8213 179.321 74.8648 178.691 74.8344C178.503 74.8257 178.283 74.8322 178.104 74.8583C177.979 74.8778 177.806 74.9039 177.709 74.9909C177.573 75.1169 177.597 75.3799 177.597 75.5495C177.597 75.6734 177.601 75.7994 177.608 75.9233C177.618 76.1233 177.59 76.3319 177.59 76.5341C177.59 76.9188 177.618 77.3013 177.618 77.6861C177.618 80.4508 177.584 83.259 177.623 86.0194C177.629 86.5041 177.791 87.7843 177.37 88.0647C177.012 88.2408 176.558 88.2082 176.172 88.2147C175.697 88.2234 175.222 88.2212 174.747 88.2147C174.51 88.2103 174.257 88.1995 174.063 88.0625C173.88 87.9343 173.776 87.7148 173.741 87.4909C173.675 87.0649 173.733 86.565 173.731 86.1303C173.731 84.95 173.782 83.772 173.791 82.5917C173.8 81.192 173.791 79.7944 173.791 78.4012C173.791 78.0077 173.815 77.6165 173.815 77.2231C173.815 76.9014 173.789 76.5841 173.8 76.2624C173.811 75.9255 173.8 75.5842 173.709 75.2582C173.569 74.754 173.133 74.8105 172.697 74.7909C172.198 74.767 171.697 74.8083 171.199 74.7866C170.879 74.7713 170.46 74.8757 170.208 74.6192C170.065 74.4757 170.05 74.1867 170.039 73.9889C170.014 73.5216 169.977 73.0629 169.977 72.5935C169.977 72.3935 169.992 72.2 169.998 72.0023C170.005 71.7892 170.022 71.5741 170.074 71.3676C170.175 70.9655 170.607 70.8698 170.97 70.8524C171.378 70.8329 171.794 70.8655 172.202 70.8655C173.135 70.8655 174.067 70.8546 175 70.8546C175.922 70.8546 176.843 70.8546 177.765 70.8546L177.763 70.8568Z" stroke="#E6E2DE" stroke-width="16" stroke-linejoin="round" mask="url(#path-2-outside-1_1195_133)"/>
<path d="M182.596 83.7807V75.2473C182.596 74.2432 182.604 73.252 182.57 72.2457C182.557 71.8805 182.535 71.3958 182.784 71.0937C182.982 70.8481 183.328 70.8242 183.619 70.8177C184.718 70.7938 185.532 70.8416 186.632 70.8416C187.146 70.8416 187.653 70.8133 188.167 70.8133C188.625 70.8133 189.087 70.8133 189.547 70.8307C190.071 70.8524 190.591 70.8351 191.114 70.8307C191.474 70.8285 191.919 70.7742 192.266 70.8851C192.875 71.0785 192.782 71.9827 192.754 72.4761C192.737 72.7912 192.739 73.1086 192.746 73.4259C192.75 73.7107 192.795 74.0323 192.741 74.3127C192.715 74.4475 192.648 74.5801 192.536 74.654C192.428 74.7257 192.294 74.7366 192.167 74.7453C191.619 74.7822 191.066 74.7822 190.516 74.78C189.993 74.7757 189.458 74.7279 188.94 74.7648C188.633 74.7866 188.316 74.7583 188.007 74.7626C187.699 74.767 187.369 74.7822 187.051 74.8192C186.755 74.8518 186.41 74.9278 186.272 75.2278C186.203 75.3799 186.186 75.5603 186.175 75.7255C186.168 75.8081 186.162 75.8885 186.162 75.9711C186.162 76.1276 186.151 76.2798 186.155 76.4363C186.166 76.7384 186.192 77.0688 186.278 77.3579C186.315 77.4817 186.384 77.5969 186.505 77.6578C186.656 77.7317 186.84 77.7426 187.004 77.7621C187.567 77.823 188.156 77.7665 188.731 77.7708C189.305 77.7752 189.913 77.786 190.505 77.786C190.783 77.786 191.101 77.7621 191.17 78.0947C191.23 78.3838 191.181 78.7033 191.174 78.9967C191.165 79.3945 191.185 79.7922 191.185 80.1922C191.185 80.4573 191.211 80.7508 191.131 81.0072C191.088 81.1442 190.952 81.2028 190.822 81.2376C190.68 81.2767 190.533 81.2854 190.384 81.2854C190.002 81.2854 189.622 81.2963 189.24 81.2963C188.765 81.2963 188.288 81.2854 187.813 81.2811C187.589 81.2811 187.358 81.2637 187.135 81.2854C186.982 81.3007 186.812 81.2941 186.663 81.3441C186.524 81.3898 186.419 81.4985 186.347 81.6223C186.265 81.7636 186.244 81.8614 186.237 82.0266C186.218 82.4287 186.151 82.8678 186.203 83.2677C186.222 83.4242 186.237 83.8154 186.304 83.9611C186.43 84.2262 186.773 84.2697 187.03 84.2828C187.435 84.3045 187.843 84.3175 188.249 84.3262C189.106 84.3436 189.963 84.3154 190.82 84.3154C191.116 84.311 191.412 84.3067 191.707 84.2958C193.121 84.248 193.015 84.511 192.985 85.8064C192.974 86.2889 193.048 87.3953 192.942 87.7256C192.879 87.9169 192.657 88.0278 192.471 88.056C191.612 88.1777 190.751 88.1386 189.885 88.1408C189.801 88.1408 189.719 88.1408 189.635 88.1473C188.882 88.1821 188.115 88.1538 187.36 88.1582C186.568 88.1625 185.775 88.1691 184.983 88.1691C184.511 88.1691 183.401 88.2538 183.06 88.1299C182.371 87.8821 182.583 86.665 182.596 86.0477C182.611 85.2956 182.6 84.5305 182.6 83.7763L182.596 83.7807Z" stroke="#E6E2DE" stroke-width="16" stroke-linejoin="round" mask="url(#path-2-outside-1_1195_133)"/>
<path d="M156.96 76.6167V73.3977L156.967 73.239C156.967 72.7587 156.982 72.2609 156.988 71.774C156.991 71.5784 157.025 71.3698 156.978 71.1785C156.954 71.0828 156.9 70.9894 156.816 70.9394C156.757 70.9068 156.69 70.8938 156.626 70.8851C156.358 70.8503 156.09 70.8394 155.821 70.8394C155.663 70.8394 155.536 70.8394 155.406 70.8329C154.793 70.8264 154.193 70.8264 153.614 70.8481C153.394 70.8677 153.213 70.8416 153.029 70.9959C152.82 71.172 152.751 71.4502 152.643 71.6893C152.615 71.7827 152.578 71.8827 152.544 71.9762L152.473 72.1696C152.429 72.2848 152.395 72.4 152.352 72.5065C151.866 73.7128 151.346 74.9496 150.839 76.1429C150.836 76.1494 150.832 76.1581 150.83 76.1646C150.687 76.4993 150.543 76.834 150.4 77.1688C150.31 77.3796 150.219 77.5926 150.128 77.8034C150.048 77.9882 149.966 78.1968 149.841 78.3555C149.785 78.4272 149.697 78.4968 149.599 78.4903C149.539 78.4859 149.485 78.4555 149.442 78.4142C149.194 78.1773 149.097 77.7926 148.969 77.4861C148.775 77.021 148.578 76.5558 148.382 76.0907C148.274 75.8342 148.166 75.5799 148.06 75.3234C147.754 74.5823 147.447 73.8432 147.147 73.1021C146.99 72.7282 146.841 72.3631 146.69 71.9892L146.547 71.6154C146.472 71.4132 146.407 71.1372 146.223 71.0024C146.087 70.9003 145.913 70.9003 145.751 70.8916C145.561 70.8807 145.371 70.872 145.181 70.8633C144.721 70.8416 144.261 70.8264 143.801 70.8177C143.447 70.8177 143.085 70.7872 142.733 70.8285C142.657 70.8372 142.582 70.8503 142.515 70.8872C142.429 70.9372 142.368 71.0263 142.336 71.122C142.258 71.3611 142.288 71.648 142.282 71.8979C142.275 72.1109 142.267 72.3218 142.273 72.5348C142.28 72.8239 142.284 73.1108 142.286 73.3998C142.295 74.2845 142.286 75.1691 142.28 76.0559L142.273 76.6297C142.273 77.0318 142.267 77.4339 142.267 77.8447C142.267 78.5859 142.273 79.3314 142.273 80.0857V80.3161C142.288 82.7808 142.288 85.0087 142.23 87.2279C142.228 87.3475 142.228 87.4692 142.23 87.5887C142.232 87.7083 142.252 87.8169 142.278 87.9343C142.286 87.9756 142.295 88.0169 142.314 88.0539C142.364 88.1495 142.478 88.1951 142.584 88.2082C142.847 88.2408 143.102 88.2082 143.363 88.2082C143.644 88.2082 143.927 88.2104 144.207 88.2125C144.6 88.2125 144.993 88.2082 145.386 88.1995C145.524 88.1973 145.701 88.2104 145.803 88.0952C145.878 88.0104 145.874 87.8865 145.876 87.78C145.878 87.6887 145.88 87.5996 145.88 87.5083C145.88 87.2518 145.878 86.9932 145.869 86.7367C145.869 86.6628 145.863 86.5867 145.863 86.5128L145.848 85.5782C145.839 84.5566 145.826 83.5372 145.839 82.5157C145.844 82.1549 145.854 81.7941 145.865 81.4333C145.878 81.0746 145.865 80.7138 145.885 80.3574C145.893 80.1987 145.915 79.9487 146.09 79.8835C146.256 79.8227 146.396 79.9683 146.47 80.0987C146.698 80.5095 146.899 80.9377 147.1 81.3637C147.143 81.4528 147.182 81.5419 147.223 81.6332C147.294 81.7962 147.348 81.9723 147.428 82.131C147.806 83.0569 148.177 83.948 148.548 84.8392L148.626 85.0413C148.669 85.1348 148.712 85.2348 148.747 85.3369L148.784 85.4239C148.842 85.5804 148.902 85.7369 148.969 85.889C149.027 86.0194 149.09 86.1216 149.235 86.1607C149.319 86.1824 149.405 86.1781 149.492 86.1759C149.582 86.1759 149.671 86.1694 149.761 86.1651C149.841 86.1607 149.923 86.1564 149.997 86.1216C150.074 86.0868 150.126 86.0303 150.167 85.9564C150.215 85.8694 150.258 85.7803 150.295 85.6869C150.325 85.6086 150.355 85.5304 150.387 85.4543C150.465 85.2674 150.545 85.0957 150.623 84.9218L150.659 84.8348C150.724 84.6979 150.787 84.5545 150.845 84.411L151.523 82.8091C151.672 82.4505 151.823 82.0831 151.972 81.7245C152.179 81.2268 152.429 80.7573 152.673 80.2791C152.736 80.1574 152.801 80.0313 152.909 79.9487C153.055 79.8379 153.217 79.8618 153.301 80.0291C153.394 80.2117 153.371 80.4725 153.373 80.6725C153.373 80.8964 153.368 81.1203 153.368 81.3441C153.368 82.0245 153.377 82.7048 153.377 83.3851V84.0306C153.371 85.1239 153.362 86.2824 153.34 87.4105V87.4974C153.336 87.6539 153.34 87.8082 153.368 87.9626C153.379 88.0126 153.392 88.0647 153.42 88.1082C153.504 88.2364 153.651 88.2299 153.785 88.2299C154.605 88.219 155.436 88.2451 156.272 88.2169C156.425 88.2169 156.576 88.206 156.729 88.1908C156.783 88.1864 156.839 88.1799 156.885 88.1517C156.937 88.1191 156.969 88.0626 156.984 88.0039C157.01 87.9039 156.999 87.7909 156.997 87.6887C156.997 87.5757 156.991 87.4605 156.984 87.3475C156.969 87.1105 156.962 86.9149 156.962 86.7345C156.928 84.5132 156.934 82.2288 156.941 80.0226L156.956 76.6232L156.96 76.6167Z" stroke="#E6E2DE" stroke-width="16" stroke-linejoin="round" mask="url(#path-2-outside-1_1195_133)"/>
<path d="M171.351 87.6539C171.002 86.1607 170.68 84.6588 170.352 83.1221L169.404 78.6707C169.283 78.1034 169.154 77.5296 169.033 76.9471L169.005 76.8167C168.698 75.4234 168.385 74.0302 168.135 72.6869C168.079 72.4131 168.027 72.1414 167.971 71.8762C167.945 71.7545 167.919 71.6328 167.895 71.511C167.861 71.3437 167.846 71.1024 167.714 70.9807C167.69 70.959 167.662 70.9416 167.634 70.9285C167.395 70.8068 167.097 70.8351 166.838 70.8416H166.395C165.804 70.8264 165.197 70.8264 164.619 70.8264C163.734 70.8264 162.907 70.8416 162.115 70.8764C161.972 70.8829 161.821 70.8764 161.698 70.9633C161.614 71.022 161.581 71.1002 161.556 71.1959C161.525 71.3089 161.502 71.4219 161.482 71.5371L161.467 71.6241C161.068 73.6715 160.632 75.7538 160.204 77.7643L160.176 77.923C160.04 78.5685 159.904 79.2162 159.77 79.8618L159.55 80.9094C159.429 81.4615 159.315 82.0288 159.201 82.6048L159.172 82.77C158.888 84.1567 158.603 85.5782 158.266 86.9214C158.223 87.0932 158.184 87.267 158.149 87.4431C158.117 87.6126 158.076 87.7909 158.091 87.9626C158.093 87.993 158.1 88.0256 158.11 88.0539C158.139 88.1256 158.205 88.1756 158.277 88.1995C158.348 88.2234 158.415 88.2147 158.486 88.2169C158.799 88.2343 159.119 88.2191 159.434 88.2191C159.768 88.2191 160.101 88.2191 160.435 88.2191C160.61 88.2191 160.783 88.2125 160.958 88.2038C161.059 88.1995 161.161 88.1886 161.262 88.1756C161.32 88.1669 161.381 88.1582 161.433 88.1299C161.504 88.093 161.553 88.0256 161.588 87.9539C161.625 87.8778 161.627 87.8017 161.651 87.7213C161.707 87.5279 161.743 87.3344 161.778 87.1475C161.806 86.9888 161.834 86.8736 161.856 86.7519L161.877 86.6584C161.905 86.5193 161.944 86.3802 161.972 86.2411C162.02 86.002 162.056 85.6804 162.251 85.5108C162.372 85.4065 162.536 85.3782 162.693 85.3587C163.2 85.2956 163.714 85.3 164.224 85.3C164.701 85.3 165.189 85.2891 165.67 85.3C165.916 85.3065 166.164 85.3196 166.41 85.3435C166.68 85.3695 167.034 85.3435 167.239 85.5565C167.332 85.6521 167.362 85.7695 167.397 85.8934C167.442 86.0499 167.481 86.2064 167.515 86.365C167.582 86.6824 167.634 87.0019 167.703 87.317L167.746 87.5322C167.766 87.6365 167.79 87.7409 167.813 87.8452C167.828 87.9082 167.844 87.9734 167.889 88.0234C167.934 88.0734 167.982 88.1169 168.049 88.1386C168.174 88.1799 168.321 88.1734 168.45 88.1778C168.599 88.1843 168.748 88.1886 168.895 88.1908C169.432 88.2038 169.968 88.1908 170.505 88.193C170.635 88.193 170.766 88.193 170.896 88.193C171.012 88.193 171.129 88.2017 171.241 88.1691C171.284 88.156 171.325 88.1365 171.353 88.1017C171.446 87.9865 171.375 87.7735 171.347 87.6474L171.351 87.6539ZM166.406 81.3268C166.419 81.3898 166.434 81.4528 166.432 81.518C166.432 81.7115 166.266 81.7919 166.091 81.7962C165.884 81.8006 165.676 81.7941 165.469 81.7897C164.785 81.7789 164.098 81.7897 163.414 81.7723C163.175 81.7658 163.006 81.7289 162.991 81.4637C162.98 81.2768 163.028 81.0942 163.06 80.9116C163.118 80.5899 163.209 80.2769 163.27 79.9553C163.375 79.3923 163.533 78.8402 163.656 78.2816C163.712 78.023 163.764 77.7708 163.813 77.5209C163.96 76.7797 164.105 76.032 164.336 75.3126C164.381 75.1691 164.424 75.0148 164.53 74.9039C164.567 74.8648 164.614 74.8322 164.666 74.8192C164.975 74.7453 165.065 75.2191 165.126 75.4212C165.437 76.4776 165.618 77.5752 165.847 78.6511C165.86 78.7163 165.877 78.7815 165.888 78.8489C165.909 78.9793 165.944 79.1141 165.974 79.2358C166.024 79.4358 166.074 79.6379 166.117 79.8466C166.132 79.9248 166.145 80.0052 166.16 80.077L166.181 80.1987C166.268 80.5682 166.324 80.942 166.406 81.3246V81.3268Z" stroke="#E6E2DE" stroke-width="16" stroke-linejoin="round" mask="url(#path-2-outside-1_1195_133)"/>
<path d="M93.7393 155L91.5953 146.968L89.4513 155H86.9873L84.0433 143.512H86.4113L88.2673 151.304L90.3793 143.512H92.8593L94.9073 151.336L96.7793 143.512H99.1633L96.2033 155H93.7393ZM102.759 144.472C102.759 145.224 102.151 145.784 101.271 145.784C100.407 145.784 99.7989 145.224 99.7989 144.472C99.7989 143.688 100.407 143.128 101.271 143.128C102.151 143.128 102.759 143.688 102.759 144.472ZM102.407 155H100.183V146.456H102.407V155ZM106.466 155H104.226V143.512H106.466V155ZM107.74 150.728C107.74 148.2 109.228 146.296 111.532 146.296C112.556 146.296 113.42 146.744 114.06 147.56V143.512H116.268V155H114.236V153.768C113.564 154.664 112.636 155.16 111.532 155.16C109.228 155.16 107.74 153.224 107.74 150.728ZM110.028 150.728C110.028 152.328 110.94 153.176 112.028 153.176C113.132 153.176 114.044 152.312 114.044 150.696C114.044 149.08 113.116 148.264 112.028 148.264C110.94 148.264 110.028 149.096 110.028 150.728ZM126.685 155L123.677 147.368V155H121.469V143.512H124.381L127.709 152.024L131.053 143.512H133.965V155H131.757V147.304L128.717 155H126.685ZM141.049 155V153.944C140.489 154.744 139.641 155.16 138.473 155.16C136.697 155.16 135.513 154.12 135.513 152.52C135.513 150.856 136.857 149.96 139.353 149.96C139.833 149.96 140.249 149.992 140.777 150.056V149.544C140.777 148.584 140.233 148.024 139.305 148.024C138.345 148.024 137.769 148.584 137.689 149.544H135.689C135.817 147.576 137.241 146.296 139.305 146.296C141.545 146.296 142.857 147.528 142.857 149.624V155H141.049ZM137.609 152.456C137.609 153.176 138.121 153.624 138.953 153.624C140.089 153.624 140.777 153 140.777 152.008V151.4C140.249 151.32 139.881 151.288 139.497 151.288C138.233 151.288 137.609 151.688 137.609 152.456ZM149.801 152.84V154.776C149.257 155.048 148.745 155.16 148.089 155.16C146.329 155.16 145.225 154.152 145.225 152.232V148.36H143.497V146.456H145.225V143.928H147.433V146.456H149.881V148.36H147.433V151.72C147.433 152.712 147.881 153.112 148.681 153.112C149.097 153.112 149.481 153.016 149.801 152.84ZM154.603 155.144C152.043 155.144 150.331 153.368 150.331 150.696C150.331 148.152 152.107 146.296 154.571 146.296C157.275 146.296 159.067 148.488 158.667 151.272H152.603C152.747 152.664 153.419 153.432 154.555 153.432C155.531 153.432 156.187 152.952 156.443 152.104H158.651C158.171 154.04 156.683 155.144 154.603 155.144ZM154.523 147.928C153.483 147.928 152.827 148.6 152.635 149.864H156.315C156.251 148.68 155.579 147.928 154.523 147.928Z" fill="#1A1A1A"/>
<path d="M79.8399 175L77.7119 167.118L75.5699 175H73.9879L71.3699 164.948H72.8819L74.8139 172.69L76.9279 164.948H78.5239L80.6099 172.704L82.5419 164.948H84.0539L81.4359 175H79.8399ZM87.461 175.14C85.319 175.14 83.877 173.586 83.877 171.248C83.877 169.05 85.375 167.44 87.419 167.44C89.631 167.44 91.101 169.232 90.849 171.64H85.319C85.431 173.152 86.187 174.034 87.433 174.034C88.483 174.034 89.211 173.46 89.449 172.494H90.849C90.485 174.146 89.211 175.14 87.461 175.14ZM87.391 168.504C86.257 168.504 85.487 169.316 85.333 170.702H89.351C89.281 169.33 88.539 168.504 87.391 168.504ZM99.1564 171.29C99.1564 173.516 97.8684 175.14 95.8664 175.14C94.8164 175.14 93.9204 174.608 93.3884 173.67V175H92.0724V164.948H93.4864V168.854C94.0044 167.944 94.8584 167.44 95.8664 167.44C97.8544 167.44 99.1564 169.036 99.1564 171.29ZM97.6864 171.29C97.6864 169.61 96.8044 168.686 95.5864 168.686C94.4104 168.686 93.4864 169.596 93.4864 171.262C93.4864 172.9 94.3824 173.88 95.5864 173.88C96.8044 173.88 97.6864 172.942 97.6864 171.29ZM106.19 172.788C106.19 174.244 105.056 175.14 103.082 175.14C101.122 175.14 99.96 174.174 99.82 172.578H101.178C101.234 173.502 101.976 174.076 103.11 174.076C104.104 174.076 104.762 173.726 104.762 173.026C104.762 172.41 104.384 172.144 103.46 171.962L102.256 171.738C100.884 171.472 100.114 170.772 100.114 169.652C100.114 168.35 101.248 167.44 102.97 167.44C104.748 167.44 105.952 168.392 106.078 169.918H104.72C104.636 169.022 103.978 168.504 102.984 168.504C102.088 168.504 101.486 168.882 101.486 169.526C101.486 170.128 101.864 170.408 102.76 170.576L104.02 170.814C105.49 171.08 106.19 171.724 106.19 172.788ZM109.176 165.858C109.176 166.39 108.756 166.796 108.154 166.796C107.552 166.796 107.118 166.39 107.118 165.858C107.118 165.312 107.552 164.92 108.154 164.92C108.756 164.92 109.176 165.312 109.176 165.858ZM108.868 175H107.454V167.58H108.868V175ZM114.737 173.628V174.874C114.303 175.07 113.925 175.14 113.477 175.14C112.105 175.14 111.153 174.398 111.153 172.76V168.784H109.515V167.58H111.153V165.382H112.567V167.58H114.807V168.784H112.567V172.438C112.567 173.46 113.057 173.824 113.813 173.824C114.149 173.824 114.443 173.768 114.737 173.628ZM118.723 175.14C116.581 175.14 115.139 173.586 115.139 171.248C115.139 169.05 116.637 167.44 118.681 167.44C120.893 167.44 122.363 169.232 122.111 171.64H116.581C116.693 173.152 117.449 174.034 118.695 174.034C119.745 174.034 120.473 173.46 120.711 172.494H122.111C121.747 174.146 120.473 175.14 118.723 175.14ZM118.653 168.504C117.519 168.504 116.749 169.316 116.595 170.702H120.613C120.543 169.33 119.801 168.504 118.653 168.504ZM129.27 175H126.092V164.948H129.27C132.476 164.948 134.324 166.992 134.324 169.932C134.324 172.83 132.406 175 129.27 175ZM127.632 166.278V173.67H129.2C131.51 173.67 132.756 172.242 132.756 169.932C132.756 167.664 131.524 166.278 129.2 166.278H127.632ZM138.596 175.14C136.454 175.14 135.012 173.586 135.012 171.248C135.012 169.05 136.51 167.44 138.554 167.44C140.766 167.44 142.236 169.232 141.984 171.64H136.454C136.566 173.152 137.322 174.034 138.568 174.034C139.618 174.034 140.346 173.46 140.584 172.494H141.984C141.62 174.146 140.346 175.14 138.596 175.14ZM138.526 168.504C137.392 168.504 136.622 169.316 136.468 170.702H140.486C140.416 169.33 139.674 168.504 138.526 168.504ZM149.087 172.788C149.087 174.244 147.953 175.14 145.979 175.14C144.019 175.14 142.857 174.174 142.717 172.578H144.075C144.131 173.502 144.873 174.076 146.007 174.076C147.001 174.076 147.659 173.726 147.659 173.026C147.659 172.41 147.281 172.144 146.357 171.962L145.153 171.738C143.781 171.472 143.011 170.772 143.011 169.652C143.011 168.35 144.145 167.44 145.867 167.44C147.645 167.44 148.849 168.392 148.975 169.918H147.617C147.533 169.022 146.875 168.504 145.881 168.504C144.985 168.504 144.383 168.882 144.383 169.526C144.383 170.128 144.761 170.408 145.657 170.576L146.917 170.814C148.387 171.08 149.087 171.724 149.087 172.788ZM152.073 165.858C152.073 166.39 151.653 166.796 151.051 166.796C150.449 166.796 150.015 166.39 150.015 165.858C150.015 165.312 150.449 164.92 151.051 164.92C151.653 164.92 152.073 165.312 152.073 165.858ZM151.765 175H150.351V167.58H151.765V175ZM156.416 177.856C154.47 177.856 153.21 176.82 153.126 175.14H154.498C154.582 176.176 155.254 176.736 156.402 176.736C157.676 176.736 158.348 176.05 158.348 174.776V173.432C157.928 174.328 157.088 174.846 156.08 174.846C154.232 174.846 152.916 173.32 152.916 171.136C152.916 168.924 154.176 167.44 156.038 167.44C157.102 167.44 157.942 167.958 158.446 168.896V167.58H159.762V174.748C159.762 176.694 158.516 177.856 156.416 177.856ZM154.344 171.136C154.344 172.676 155.1 173.614 156.332 173.614C157.536 173.614 158.348 172.648 158.348 171.178C158.348 169.638 157.55 168.658 156.332 168.658C155.114 168.658 154.344 169.61 154.344 171.136ZM162.854 170.814V175H161.44V167.58H162.756V168.812C163.26 167.986 164.1 167.44 165.122 167.44C166.648 167.44 167.656 168.42 167.656 170.198V175H166.242V170.674C166.242 169.4 165.682 168.686 164.632 168.686C163.666 168.686 162.854 169.498 162.854 170.814ZM171.171 174.398C171.171 175.728 170.121 176.764 168.581 176.792V175.994C169.491 175.966 170.107 175.476 170.191 174.79C170.065 174.832 169.981 174.846 169.883 174.846C169.351 174.846 168.959 174.412 168.959 173.894C168.959 173.292 169.407 172.9 169.981 172.9C170.751 172.9 171.171 173.46 171.171 174.398ZM45.519 190.656V192H39.149V181.948H45.421V183.292H40.689V186.148H45.001V187.492H40.689V190.656H45.519ZM48.3468 192H46.9328V184.58H48.2488V185.812C48.7528 184.958 49.5508 184.44 50.5728 184.44C51.6648 184.44 52.4908 185 52.8268 185.98C53.3448 185.028 54.1988 184.44 55.3328 184.44C56.8588 184.44 57.8388 185.434 57.8388 187.198V192H56.4248V187.646C56.4248 186.414 55.8788 185.686 54.8428 185.686C53.8768 185.686 53.0928 186.498 53.0928 187.744V192H51.6788V187.646C51.6788 186.414 51.1328 185.686 50.0968 185.686C49.1168 185.686 48.3468 186.498 48.3468 187.744V192ZM63.9436 192V190.852C63.4816 191.678 62.6556 192.14 61.5636 192.14C60.0236 192.14 59.0156 191.258 59.0156 189.9C59.0156 188.444 60.1776 187.688 62.3896 187.688C62.8236 187.688 63.1736 187.702 63.7756 187.772V187.226C63.7756 186.162 63.2016 185.56 62.2216 185.56C61.1856 185.56 60.5556 186.176 60.5136 187.212H59.2256C59.2956 185.546 60.4856 184.44 62.2216 184.44C64.0556 184.44 65.1196 185.476 65.1196 187.24V192H63.9436ZM60.3596 189.858C60.3596 190.628 60.9336 191.132 61.8436 191.132C63.0336 191.132 63.7756 190.39 63.7756 189.256V188.654C63.2296 188.584 62.8376 188.57 62.4736 188.57C61.0596 188.57 60.3596 188.99 60.3596 189.858ZM68.4522 182.858C68.4522 183.39 68.0322 183.796 67.4302 183.796C66.8282 183.796 66.3942 183.39 66.3942 182.858C66.3942 182.312 66.8282 181.92 67.4302 181.92C68.0322 181.92 68.4522 182.312 68.4522 182.858ZM68.1442 192H66.7302V184.58H68.1442V192ZM71.2551 192H69.8271V181.948H71.2551V192ZM75.9898 192.14C73.8478 192.14 72.4058 190.586 72.4058 188.248C72.4058 186.05 73.9038 184.44 75.9478 184.44C78.1598 184.44 79.6298 186.232 79.3778 188.64H73.8478C73.9598 190.152 74.7158 191.034 75.9618 191.034C77.0118 191.034 77.7398 190.46 77.9778 189.494H79.3778C79.0138 191.146 77.7398 192.14 75.9898 192.14ZM75.9198 185.504C74.7858 185.504 74.0158 186.316 73.8618 187.702H77.8798C77.8098 186.33 77.0678 185.504 75.9198 185.504ZM82.0151 188.206V192H80.6011V184.58H81.9171V186.148C82.4351 185.126 83.5551 184.482 84.7731 184.482V185.952C83.1771 185.868 82.0151 186.568 82.0151 188.206ZM91.4921 189.788C91.4921 191.244 90.3581 192.14 88.3841 192.14C86.4241 192.14 85.2621 191.174 85.1221 189.578H86.4801C86.5361 190.502 87.2781 191.076 88.4121 191.076C89.4061 191.076 90.0641 190.726 90.0641 190.026C90.0641 189.41 89.6861 189.144 88.7621 188.962L87.5581 188.738C86.1861 188.472 85.4161 187.772 85.4161 186.652C85.4161 185.35 86.5501 184.44 88.2721 184.44C90.0501 184.44 91.2541 185.392 91.3801 186.918H90.0221C89.9381 186.022 89.2801 185.504 88.2861 185.504C87.3901 185.504 86.7881 185.882 86.7881 186.526C86.7881 187.128 87.1661 187.408 88.0621 187.576L89.3221 187.814C90.7921 188.08 91.4921 188.724 91.4921 189.788ZM94.674 191.398C94.674 192.728 93.624 193.764 92.084 193.792V192.994C92.994 192.966 93.61 192.476 93.694 191.79C93.568 191.832 93.484 191.846 93.386 191.846C92.854 191.846 92.462 191.412 92.462 190.894C92.462 190.292 92.91 189.9 93.484 189.9C94.254 189.9 94.674 190.46 94.674 191.398ZM105.982 189.116C105.982 190.95 104.638 192 102.552 192H98.8705V181.948H102.356C104.386 181.948 105.604 182.886 105.604 184.58C105.604 185.532 105.03 186.344 104.064 186.764C105.31 187.114 105.982 187.968 105.982 189.116ZM102.258 183.18H100.284V186.204H102.258C103.476 186.204 104.134 185.63 104.134 184.692C104.134 183.754 103.476 183.18 102.258 183.18ZM102.454 187.436H100.284V190.768H102.454C103.77 190.768 104.512 190.138 104.512 189.074C104.512 188.052 103.77 187.436 102.454 187.436ZM108.779 188.206V192H107.365V184.58H108.681V186.148C109.199 185.126 110.319 184.482 111.537 184.482V185.952C109.941 185.868 108.779 186.568 108.779 188.206ZM116.87 192V190.852C116.408 191.678 115.582 192.14 114.49 192.14C112.95 192.14 111.942 191.258 111.942 189.9C111.942 188.444 113.104 187.688 115.316 187.688C115.75 187.688 116.1 187.702 116.702 187.772V187.226C116.702 186.162 116.128 185.56 115.148 185.56C114.112 185.56 113.482 186.176 113.44 187.212H112.152C112.222 185.546 113.412 184.44 115.148 184.44C116.982 184.44 118.046 185.476 118.046 187.24V192H116.87ZM113.286 189.858C113.286 190.628 113.86 191.132 114.77 191.132C115.96 191.132 116.702 190.39 116.702 189.256V188.654C116.156 188.584 115.764 188.57 115.4 188.57C113.986 188.57 113.286 188.99 113.286 189.858ZM121.071 187.814V192H119.657V184.58H120.973V185.812C121.477 184.986 122.317 184.44 123.339 184.44C124.865 184.44 125.873 185.42 125.873 187.198V192H124.459V187.674C124.459 186.4 123.899 185.686 122.849 185.686C121.883 185.686 121.071 186.498 121.071 187.814ZM126.939 188.29C126.939 186.036 128.227 184.44 130.229 184.44C131.223 184.44 132.091 184.944 132.609 185.854V181.948H134.023V192H132.707V190.67C132.175 191.608 131.279 192.14 130.229 192.14C128.227 192.14 126.939 190.516 126.939 188.29ZM128.409 188.29C128.409 189.942 129.277 190.88 130.509 190.88C131.713 190.88 132.609 189.9 132.609 188.262C132.609 186.596 131.685 185.686 130.509 185.686C129.277 185.686 128.409 186.61 128.409 188.29ZM142.848 192.21C140.048 192.21 137.878 189.928 137.878 186.96C137.878 184.006 140.048 181.738 142.848 181.738C145.368 181.738 147.384 183.418 147.762 185.896H146.124C145.844 184.272 144.528 183.124 142.862 183.124C140.874 183.124 139.474 184.734 139.474 186.96C139.474 189.214 140.874 190.824 142.862 190.824C144.528 190.824 145.844 189.662 146.124 188.038H147.762C147.384 190.53 145.368 192.21 142.848 192.21ZM152.078 192.14C149.978 192.14 148.438 190.488 148.438 188.29C148.438 186.092 149.978 184.44 152.078 184.44C154.178 184.44 155.718 186.092 155.718 188.29C155.718 190.488 154.178 192.14 152.078 192.14ZM152.078 190.894C153.296 190.894 154.262 189.914 154.262 188.29C154.262 186.666 153.296 185.7 152.078 185.7C150.86 185.7 149.908 186.666 149.908 188.29C149.908 189.914 150.86 190.894 152.078 190.894ZM158.308 192H156.88V181.948H158.308V192ZM161.418 192H159.99V181.948H161.418V192ZM167.595 192V190.852C167.133 191.678 166.307 192.14 165.215 192.14C163.675 192.14 162.667 191.258 162.667 189.9C162.667 188.444 163.829 187.688 166.041 187.688C166.475 187.688 166.825 187.702 167.427 187.772V187.226C167.427 186.162 166.853 185.56 165.873 185.56C164.837 185.56 164.207 186.176 164.165 187.212H162.877C162.947 185.546 164.137 184.44 165.873 184.44C167.707 184.44 168.771 185.476 168.771 187.24V192H167.595ZM164.011 189.858C164.011 190.628 164.585 191.132 165.495 191.132C166.685 191.132 167.427 190.39 167.427 189.256V188.654C166.881 188.584 166.489 188.57 166.125 188.57C164.711 188.57 164.011 188.99 164.011 189.858ZM174.499 190.628V191.874C174.065 192.07 173.687 192.14 173.239 192.14C171.867 192.14 170.915 191.398 170.915 189.76V185.784H169.277V184.58H170.915V182.382H172.329V184.58H174.569V185.784H172.329V189.438C172.329 190.46 172.819 190.824 173.575 190.824C173.911 190.824 174.205 190.768 174.499 190.628ZM178.486 192.14C176.344 192.14 174.902 190.586 174.902 188.248C174.902 186.05 176.4 184.44 178.444 184.44C180.656 184.44 182.126 186.232 181.874 188.64H176.344C176.456 190.152 177.212 191.034 178.458 191.034C179.508 191.034 180.236 190.46 180.474 189.494H181.874C181.51 191.146 180.236 192.14 178.486 192.14ZM178.416 185.504C177.282 185.504 176.512 186.316 176.358 187.702H180.376C180.306 186.33 179.564 185.504 178.416 185.504ZM184.511 188.206V192H183.097V184.58H184.413V186.148C184.931 185.126 186.051 184.482 187.269 184.482V185.952C185.673 185.868 184.511 186.568 184.511 188.206ZM192.602 192V190.852C192.14 191.678 191.314 192.14 190.222 192.14C188.682 192.14 187.674 191.258 187.674 189.9C187.674 188.444 188.836 187.688 191.048 187.688C191.482 187.688 191.832 187.702 192.434 187.772V187.226C192.434 186.162 191.86 185.56 190.88 185.56C189.844 185.56 189.214 186.176 189.172 187.212H187.884C187.954 185.546 189.144 184.44 190.88 184.44C192.714 184.44 193.778 185.476 193.778 187.24V192H192.602ZM189.018 189.858C189.018 190.628 189.592 191.132 190.502 191.132C191.692 191.132 192.434 190.39 192.434 189.256V188.654C191.888 188.584 191.496 188.57 191.132 188.57C189.718 188.57 189.018 188.99 189.018 189.858ZM196.817 192H195.389V181.948H196.817V192ZM204.379 189.788C204.379 191.244 203.245 192.14 201.271 192.14C199.311 192.14 198.149 191.174 198.009 189.578H199.367C199.423 190.502 200.165 191.076 201.299 191.076C202.293 191.076 202.951 190.726 202.951 190.026C202.951 189.41 202.573 189.144 201.649 188.962L200.445 188.738C199.073 188.472 198.303 187.772 198.303 186.652C198.303 185.35 199.437 184.44 201.159 184.44C202.937 184.44 204.141 185.392 204.267 186.918H202.909C202.825 186.022 202.167 185.504 201.173 185.504C200.277 185.504 199.675 185.882 199.675 186.526C199.675 187.128 200.053 187.408 200.949 187.576L202.209 187.814C203.679 188.08 204.379 188.724 204.379 189.788Z" fill="#1A1A1A"/>
</svg>
