<svg width="155" height="148" viewBox="0 0 155 148" fill="none" xmlns="http://www.w3.org/2000/svg">
<path d="M115.863 75.3702C111.93 75.3702 107.968 75.1576 104.067 74.7397C103.829 74.714 103.385 74.6663 103.056 74.3328C102.762 74.0322 102.704 73.6473 102.667 73.42L101.476 65.7185C101.443 65.5132 101.512 65.3043 101.659 65.1576C101.806 65.011 102.011 64.945 102.22 64.978C110.317 66.316 118.228 66.5506 125.728 65.6855L126.222 65.6268C130.929 65.088 136.266 64.4758 139.525 60.9714C141.688 58.6474 142.469 55.3593 143.033 52.4598C143.77 48.6475 144.188 45.1944 144.309 41.9063C144.522 36.0486 144.184 29.597 143.283 22.1777C143.268 22.0641 143.246 21.7855 143.22 21.4189C143.165 20.6748 143.011 18.523 142.832 17.8669C141.226 17.2437 139.052 16.243 137.381 14.9013C134.555 12.6323 134.595 10.4915 135.126 9.09493C135.145 9.05094 135.163 9.00697 135.189 8.97031C135.229 8.90799 136.116 7.61036 138.631 7.55904C137.725 6.20641 136.263 3.68075 138.466 2.1375C138.484 2.12284 139.459 1.38972 140.742 1.59866C141.252 1.67931 141.732 1.88824 142.179 2.22548C142.315 1.61331 142.601 0.975469 143.187 0.605237C143.909 0.150695 144.866 0.231341 146.039 0.836176C146.079 0.781191 146.105 0.740899 146.116 0.729902C146.479 0.297353 146.904 0.0517198 147.377 0.00773184C148.18 -0.0655815 148.865 0.396312 149.379 0.806867C149.994 1.30173 150.548 1.92489 151.127 2.77166C152.516 4.8061 153.436 7.25478 154.148 9.38086C154.511 10.4659 154.906 11.7342 154.983 13.0392C155.064 14.4248 154.668 15.2972 153.81 15.6418C153.682 15.6931 153.565 15.7115 153.48 15.7225L153.217 15.1176L153.429 15.7298C153.33 15.7628 152.557 16.0084 151.16 15.7555C152.707 25.7884 154.118 38.6989 152.095 51.3234C151.164 57.1262 149.54 63.6584 144.529 68.1525C141.56 70.8137 137.626 72.6099 132.15 73.8123C127.652 74.7983 122.682 75.3079 116.956 75.3665C116.593 75.3665 116.23 75.3702 115.863 75.3702ZM104.045 73.4384C104.093 73.4384 104.17 73.4457 104.203 73.4494C108.415 73.9039 112.7 74.1092 116.941 74.0688C122.575 74.0139 127.458 73.5153 131.871 72.5476C137.121 71.3966 140.867 69.692 143.664 67.1884C148.374 62.9655 149.921 56.6973 150.815 51.1218C152.876 38.2736 151.318 25.0699 149.73 15.004C149.697 14.784 149.778 14.5604 149.943 14.4138C150.112 14.2672 150.343 14.2159 150.555 14.2819C152.124 14.7511 152.967 14.5201 153.011 14.5091C153.099 14.4798 153.191 14.4615 153.282 14.4468C153.682 14.3002 153.719 13.6477 153.689 13.1235C153.623 11.9798 153.257 10.8105 152.92 9.80242C152.234 7.76065 151.358 5.41461 150.057 3.51213C149.551 2.77533 149.078 2.24015 148.565 1.82593C148.268 1.58766 147.824 1.26874 147.502 1.30539C147.458 1.30906 147.318 1.32371 147.113 1.56931L147.084 1.61696C146.772 2.06784 146.417 2.58105 145.859 2.23282C144.958 1.6793 144.236 1.48867 143.884 1.71228C143.389 2.02386 143.334 3.21522 143.385 3.71009C143.414 4.00334 143.242 4.28192 142.964 4.38456C142.685 4.4872 142.373 4.38822 142.205 4.14628C141.695 3.40582 141.134 2.98429 140.544 2.88898C139.815 2.77168 139.243 3.18955 139.239 3.19322C138.092 3.996 138.66 5.31197 139.943 7.17413C140.273 7.65066 140.453 7.91459 140.497 8.18585C140.53 8.38746 140.464 8.59275 140.321 8.73937C140.178 8.886 139.976 8.95565 139.771 8.92999C137.407 8.61841 136.508 9.43951 136.318 9.65212C135.819 11.0854 136.435 12.4747 138.206 13.8969C139.822 15.1946 141.989 16.1623 143.525 16.7452C144.049 16.9431 144.243 17.3427 144.529 21.3346C144.555 21.6718 144.569 21.9248 144.584 22.0274C145.497 29.5164 145.838 36.0376 145.621 41.9613C145.5 45.319 145.075 48.8344 144.324 52.7127C143.726 55.7882 142.89 59.2852 140.493 61.8622C136.908 65.7148 131.318 66.3563 126.388 66.9208L125.896 66.9758C118.547 67.8262 110.819 67.6319 102.909 66.4039L103.965 73.2258C103.972 73.2771 103.994 73.409 104.012 73.4494C104.012 73.442 104.031 73.4384 104.06 73.4384H104.045ZM146.527 1.11844C146.527 1.11844 146.534 1.12211 146.538 1.12578C146.538 1.12578 146.53 1.1221 146.527 1.11844Z" fill="#EFEBE7"/>
<path d="M34.603 76.7001C28.5253 76.7001 23.6353 75.6297 19.3428 73.3753C13.9067 70.5197 9.22195 65.8827 6.15379 60.3218C5.69192 59.4861 5.26303 58.6173 4.87081 57.7412C3.72712 55.1679 2.89861 52.4517 2.41474 49.6694C0.219006 37.0156 2.19114 23.6469 3.06357 18.8302C2.40742 18.7239 1.83196 18.4123 1.37742 17.9101C-0.741338 15.5604 0.0467554 9.39108 0.710241 5.92336C0.900855 4.92263 1.40309 4.05023 2.12523 3.47839C3.00132 2.78191 3.78206 2.79291 4.28059 2.92487C5.21167 3.17414 5.88615 4.00258 6.29304 4.66973C7.09949 3.91094 7.89492 3.61401 8.65738 3.78996C9.62878 4.01357 10.2446 4.95931 10.6039 5.76209C13.0415 3.00918 15.1456 3.86696 15.5745 4.08323C16.4616 4.39848 16.9381 5.28187 16.9894 6.70415C17.0407 8.1191 16.7365 9.52304 16.4469 10.729C15.9117 12.9614 15.131 15.3331 13.9983 18.1997C13.892 18.4709 13.76 18.7385 13.6134 18.9951C13.0452 19.9775 12.3011 20.619 11.48 20.85C10.9045 24.281 9.03496 37.0412 10.9668 48.1775C11.9932 54.1049 15.1676 59.6291 19.6727 63.3277C23.6903 66.6231 28.6133 68.1554 35.6404 68.291C35.765 68.291 36.1096 68.3057 36.6227 68.3204C48.3236 68.6722 51.1608 68.5513 51.751 68.434C51.9159 68.3203 52.1322 68.2873 52.3302 68.3533C52.6087 68.4486 52.7847 68.7199 52.7664 69.0131C52.7517 69.2001 52.7407 69.3577 52.5537 69.4823C51.9635 70.3584 49.0201 74.7279 48.5875 75.3694C48.3273 76.0549 47.2422 76.2638 43.9944 76.2968C43.8075 76.2968 43.6718 76.2968 43.6022 76.3041C42.7041 76.3481 41.806 76.3995 40.9079 76.4508C39.5296 76.5277 38.1514 76.6048 36.7731 76.6597C36.0363 76.6891 35.3178 76.7037 34.614 76.7037L34.603 76.7001ZM3.83706 17.5582C4.02035 17.5582 4.19632 17.6352 4.32096 17.7745C4.45659 17.9248 4.51521 18.1301 4.47489 18.3317C3.93237 21.1579 1.34811 35.9452 3.69047 49.4458C4.15601 52.1254 4.95144 54.739 6.05481 57.2134C6.42871 58.0565 6.84288 58.8922 7.28642 59.695C10.2336 65.0396 14.7314 69.4897 19.944 72.2279C24.5224 74.6326 29.8486 75.6297 36.7107 75.3621C38.0817 75.3071 39.4526 75.2301 40.8236 75.1531C41.7253 75.1018 42.6271 75.0505 43.5289 75.0065C43.6059 75.0029 43.7635 74.9992 43.9688 74.9992C46.6227 74.9699 47.3191 74.8012 47.4987 74.6986C47.7883 74.2184 48.5802 73.0344 50.7612 69.8012C48.7635 69.9149 44.7312 69.8562 36.5715 69.6106C36.0656 69.596 35.7247 69.585 35.6037 69.5813C28.265 69.4384 23.0964 67.8181 18.8406 64.3211C14.0276 60.3695 10.7761 54.7134 9.68011 48.3901C7.61268 36.4804 9.80845 22.7927 10.2667 20.1718C10.318 19.8785 10.5635 19.655 10.8641 19.6366C11.6449 19.5853 12.2095 18.8008 12.4771 18.339C12.5944 18.1374 12.6933 17.9284 12.7776 17.7158C13.8883 14.9079 14.6507 12.5912 15.1713 10.4211C15.4425 9.29945 15.7248 7.99812 15.6808 6.74447C15.6589 6.15796 15.5415 5.43217 15.1053 5.28921C15.0577 5.27454 15.01 5.25258 14.966 5.22692C14.8963 5.1866 13.1625 4.24085 10.8935 7.46297C10.7468 7.67191 10.4939 7.77454 10.2373 7.72688C9.98804 7.67923 9.78646 7.48496 9.72781 7.2357C9.57752 6.59054 9.04233 5.20493 8.34952 5.04364C7.91697 4.94466 7.30474 5.35155 6.63025 6.19099C6.48729 6.37061 6.26006 6.45855 6.02912 6.42555C5.80185 6.39256 5.60762 6.23862 5.52331 6.02601C5.35468 5.60812 4.70216 4.37281 3.93237 4.16754C3.81874 4.13821 3.46683 4.04656 2.92065 4.47911C2.44045 4.86034 2.10317 5.45416 1.97121 6.1543C1.17576 10.3368 0.849507 15.3881 2.33044 17.0267C2.70067 17.4372 3.15894 17.6059 3.77478 17.5509C3.7931 17.5509 3.8114 17.5509 3.82973 17.5509L3.83706 17.5582ZM47.4987 74.7022C47.4621 74.7279 47.3741 74.8159 47.3448 74.9662H47.3558C47.3778 74.9149 47.4181 74.8342 47.4987 74.7022Z" fill="#EFEBE7"/>
<path d="M13.8004 16.5755C13.7527 16.5755 13.7014 16.5719 13.6538 16.5572C12.2938 16.242 5.57096 14.5264 5.66994 11.5169C5.61129 11.0954 5.78725 10.4795 6.22712 10.003C7.20219 8.94727 9.60685 8.26547 15.5599 11.0221C15.8861 11.1723 16.0255 11.5572 15.8752 11.8835C15.7249 12.2097 15.34 12.349 15.0137 12.1987C9.78647 9.77938 7.95364 10.3402 7.40379 10.6921C7.02623 10.9377 6.96392 11.2456 6.95292 11.3336C6.96758 11.3959 6.97126 11.4583 6.9676 11.5242C6.85396 12.9649 11.0658 14.6254 13.947 15.2926C14.2953 15.3732 14.5152 15.7214 14.4345 16.0697C14.3649 16.3703 14.0973 16.5719 13.804 16.5719L13.8004 16.5755Z" fill="#EFEBE7"/>
<path d="M149.041 14.9556C148.774 14.9556 148.484 14.9337 148.176 14.886L142.396 13.5884C142.047 13.5114 141.827 13.1631 141.904 12.8112C141.981 12.463 142.33 12.2431 142.682 12.32L148.418 13.6104C149.126 13.7167 149.694 13.6544 149.969 13.4271C150.027 13.3794 150.207 13.2328 150.229 12.7893C150.258 12.2028 149.95 11.5942 149.408 11.158C146.285 8.6617 140.13 8.75336 139.437 8.845C139.129 8.91832 138.803 8.75701 138.682 8.45642C138.55 8.12284 138.712 7.74526 139.045 7.6133C139.533 7.41902 146.545 7.20642 150.218 10.1463C151.087 10.8391 151.574 11.8545 151.527 12.8552C151.494 13.5224 151.241 14.0686 150.794 14.4351C150.368 14.7834 149.782 14.9593 149.045 14.9593L149.041 14.9556Z" fill="#EFEBE7"/>
<path d="M40.5121 111.884L37.0736 115.491L28.5473 124.956C28.5473 124.956 31.5495 127.082 36.971 122.643C37.2716 122.405 38.3053 126.77 38.3786 126.99C38.5656 127.636 38.7635 128.273 38.9834 128.907C39.4013 130.179 39.8596 131.429 40.3801 132.661C40.9006 133.911 41.5274 135.08 42.1323 136.29C42.7261 137.467 43.6242 138.552 44.405 139.626C44.8522 140.242 45.3324 140.825 45.8859 141.316C45.7906 141.723 45.8346 142.159 46.0949 142.628C46.4285 143.255 47.0333 143.669 47.6491 143.702C48.2833 143.735 48.7525 143.306 49.108 142.786C50.9006 142.848 52.6821 141.836 54.152 140.682C58.012 137.643 60.0903 133.141 61.9928 128.724C64.6871 122.467 66.5712 115.898 68.2281 109.304C68.701 107.43 69.3755 105.605 69.7164 103.699C70.05 101.844 69.4525 99.9707 69.8007 98.1672C69.9693 97.2911 70.1269 96.415 70.3175 95.5463C70.4788 94.7911 70.8821 93.8857 70.9041 93.1196C70.9371 93.006 71.322 90.8872 71.311 90.8799L69.1116 91.1402L66.9122 90.9202C66.5456 93.3285 57.1615 133.376 51.0325 136.609C50.0098 137.108 48.7708 136.682 48.1659 135.722C47.6967 134.96 47.0516 133.732 46.2672 131.741C45.1198 128.864 43.6719 124.391 42.0443 117.515C41.8354 116.617 41.0106 113.398 40.5121 111.895V111.884Z" fill="#EFEBE7"/>
<path d="M86.8828 131.733L89.0822 136.205L95.0279 147.47C95.0279 147.47 98.0594 145.384 95.7574 138.768C95.6364 138.401 100.09 138.936 100.321 138.944C100.992 138.991 101.659 139.024 102.33 139.035C103.668 139.083 104.998 139.083 106.333 139.017C107.685 138.958 108.998 138.775 110.343 138.625C111.655 138.475 112.979 138.005 114.258 137.642C114.991 137.434 115.702 137.184 116.355 136.836C116.703 137.063 117.128 137.177 117.66 137.093C118.364 136.994 118.961 136.572 119.203 136.004C119.452 135.417 119.21 134.831 118.844 134.318C119.522 132.657 119.185 130.634 118.606 128.856C117.913 126.73 117.04 124.38 115.765 122.544C114.419 120.608 112.942 118.768 111.388 116.997C108.261 113.438 104.823 110.176 101.388 106.913C98.2133 103.9 95.1342 100.857 91.8058 98.0276C90.981 97.3238 90.1452 96.6347 89.2985 95.9528C88.8036 95.5533 88.3051 95.1574 87.8029 94.7725C87.506 96.2204 85.0134 98.5518 84.3352 99.8677C84.2546 100.022 88.5764 103.376 88.9833 103.717C90.5558 105.04 92.1174 106.374 93.6607 107.731C96.7435 110.44 99.7603 113.222 102.664 116.125C104.837 118.299 106.945 120.538 108.961 122.855C110.739 124.901 113.481 127.518 113.708 130.377C113.825 131.51 112.997 132.525 111.89 132.763C111.014 132.943 109.636 133.123 107.499 133.174C104.401 133.258 99.7053 133.079 92.6855 132.236C91.7728 132.122 88.4664 131.785 86.8828 131.737V131.733Z" fill="#EFEBE7"/>
<path d="M24.7057 52.9436C24.999 67.2581 36.8867 78.6729 51.2048 78.3797C51.4981 92.6941 63.3272 104.109 77.7039 103.816C92.022 103.522 103.375 91.6347 103.081 77.3203C117.396 76.9684 128.693 65.0843 128.4 50.8249C128.107 36.5654 116.336 25.1506 102.018 25.3889C101.725 11.0708 89.8959 -0.281838 75.5778 0.0114151C61.2048 0.304668 49.8486 12.1338 50.1418 26.4519C35.8274 26.7451 24.4125 38.6329 24.7057 52.951V52.9436Z" fill="#EFB5D4"/>
<path d="M59.0824 43.4855C60.4206 43.4855 61.5054 42.0002 61.5054 40.168C61.5054 38.3359 60.4206 36.8506 59.0824 36.8506C57.7442 36.8506 56.6594 38.3359 56.6594 40.168C56.6594 42.0002 57.7442 43.4855 59.0824 43.4855Z" fill="#1A1A1A"/>
<path d="M90.2258 43.4855C91.564 43.4855 92.6489 42.0002 92.6489 40.168C92.6489 38.3359 91.564 36.8506 90.2258 36.8506C88.8876 36.8506 87.8029 38.3359 87.8029 40.168C87.8029 42.0002 88.8876 43.4855 90.2258 43.4855Z" fill="#1A1A1A"/>
<path d="M75.7509 37.102L72.0537 36.8467L70.069 65.5904L73.7662 65.8457L75.7509 37.102Z" fill="#1A1A1A"/>
<path d="M72.9055 72.9474L83.4773 70.5684C83.4773 70.5684 82.253 76.8366 77.253 75.8432C75.9957 75.5939 75.1232 74.8792 72.9055 72.9437V72.9474Z" fill="#1A1A1A"/>
</svg>
