<svg width="250" height="166" viewBox="0 0 250 166" fill="none" xmlns="http://www.w3.org/2000/svg">
<path d="M213.201 143.971L212.005 148.371L133.77 127.13C133.572 125.504 133.429 123.896 133.351 122.289L213.205 143.971L213.201 143.971Z" fill="#EFEBE7"/>
<path d="M212.005 148.374C212.089 148.13 220.568 133.74 220.568 133.74C220.568 133.74 213.03 129.334 210.768 137.647C210.499 138.637 210.377 139.66 210.311 140.682L210.063 144.53C209.853 145.152 210.263 146.251 210.263 146.251L212.005 148.374Z" fill="#EFEBE7"/>
<path d="M159.849 80.5477C159.551 80.5285 159.292 80.3074 159.236 80.0007L158.558 76.2942L157.327 72.7718C157.205 72.4268 157.384 72.052 157.726 71.9224C159.453 71.2798 194.91 56.3503 224.751 43.76C224.93 43.6844 225.127 43.6894 225.299 43.7725C225.472 43.8556 225.602 44.008 225.655 44.1932C226.303 46.4811 228.006 48.2763 230.217 48.9944C230.636 49.1312 231.054 49.2263 231.46 49.2827C231.76 49.3248 231.995 49.5597 232.033 49.8575C232.074 50.1557 231.908 50.4442 231.631 50.5627C161.067 80.3421 160.649 80.4174 160.013 80.5318C159.959 80.5397 159.902 80.5435 159.849 80.5401L159.849 80.5477ZM159.876 76.0609L160.414 79.0046C162.887 78.0615 174.35 73.2881 229.309 50.0988C227.144 49.2398 225.442 47.4939 224.604 45.2808C196.582 57.1019 163.884 70.8719 158.804 72.9388L159.844 75.9148C159.86 75.9613 159.872 76.0114 159.876 76.0609Z" fill="#EFEBE7"/>
<path d="M237.143 42.1481C235.385 42.035 232.387 41.1224 230.211 36.6717C230.047 36.3392 230.186 35.939 230.519 35.7786C230.851 35.6144 231.251 35.7538 231.415 36.0864C233.725 40.8108 236.852 40.9514 238.09 40.7925C238.204 40.7771 238.311 40.7121 238.378 40.6103C240.095 38.0693 235.277 33.7024 233.277 32.2327C232.981 32.0129 232.917 31.5958 233.133 31.2991C233.353 31.0027 233.77 30.9348 234.066 31.1547C234.403 31.3998 242.269 37.2358 239.485 41.3596C239.2 41.7806 238.754 42.0587 238.258 42.1215C238.006 42.1545 237.618 42.1825 237.142 42.1519L237.143 42.1481Z" fill="#EFEBE7"/>
<path d="M241.324 44.2773C240.652 44.2341 240.098 44.0241 239.671 43.6519C239.051 43.1082 238.746 42.2515 238.815 41.2332C238.83 40.9956 238.837 40.8937 242.672 32.9891C243.204 31.8908 243.589 31.0974 243.637 30.9907C243.784 30.6554 244.173 30.4948 244.512 30.6417C244.848 30.7845 245.012 31.1663 244.873 31.5058C244.842 31.5833 244.654 31.969 243.876 33.578C242.745 35.9105 240.426 40.6892 240.149 41.3949C240.137 41.7122 240.174 42.3131 240.557 42.6484C241.013 43.0451 241.839 42.981 242.457 42.8579C242.814 42.7861 243.17 43.0212 243.245 43.3821C243.316 43.7428 243.082 44.095 242.721 44.1703C242.214 44.274 241.75 44.3085 241.331 44.2816L241.324 44.2773Z" fill="#EFEBE7"/>
<path d="M237.347 35.616C237.268 35.6109 237.19 35.5907 237.112 35.5592C236.777 35.405 236.625 35.0088 236.779 34.6741L239.053 29.6501C239.207 29.3153 239.604 29.1627 239.938 29.3169C240.273 29.471 240.426 29.8672 240.271 30.202L237.997 35.226C237.878 35.4872 237.615 35.6332 237.344 35.6157L237.347 35.616Z" fill="#EFEBE7"/>
<path d="M10.4283 150.45C10.0398 150.425 9.81853 150.332 9.73797 150.289C9.71606 150.276 9.69041 150.263 9.66875 150.246C9.12781 149.882 8.79894 149.342 8.72328 148.693C8.60791 147.72 9.07953 146.572 9.69547 145.536C7.27621 146.812 5.65335 147.249 4.63804 147.369C4.11493 147.434 3.58428 147.264 3.19472 146.901C2.81574 146.551 2.61215 146.065 2.63714 145.559C2.66406 144.905 2.96966 144.277 3.33257 143.759C2.43429 143.708 1.76363 143.476 1.27233 143.047C0.533133 142.408 0.532065 141.601 0.534121 141.51C0.58066 138.434 10.1321 135.223 18.2415 133.052L60.2309 75.4937C60.447 75.197 60.868 75.1293 61.1647 75.3454L67.3011 79.8162C67.5978 80.0323 67.6654 80.4533 67.4493 80.75L59.1808 92.1003C59.164 92.1257 59.1434 92.1509 59.1193 92.1721L25.9434 137.684L29.2186 142.41C30.1517 143.921 30.4564 145.247 30.1527 146.375C29.8298 147.567 28.953 148.067 28.8548 148.121C28.7684 148.169 28.6721 148.193 28.5771 148.198C25.8666 148.35 23.1762 144.01 22.0835 142.038C15.3934 149.698 11.8399 150.53 10.4404 150.44L10.4283 150.45ZM10.3674 149.102C10.6288 149.16 13.8302 149.681 21.6944 140.433C21.8419 140.261 22.0632 140.177 22.285 140.202C22.5069 140.228 22.7025 140.366 22.8031 140.569C24.0077 142.98 26.5239 146.729 28.3218 146.867C28.4737 146.745 28.7413 146.47 28.8582 146.008C29.0463 145.263 28.7806 144.272 28.0878 143.148L24.563 138.061C24.4 137.827 24.4048 137.517 24.5712 137.285L58.0672 91.3354C58.084 91.31 58.1045 91.2848 58.1286 91.2636L65.9612 80.5065L60.9068 76.8212L19.1747 134.032C19.0834 134.155 18.9563 134.246 18.806 134.285C7.19405 137.379 1.88293 140.211 1.86182 141.539C1.86182 141.539 1.87761 141.824 2.16177 142.058C2.43182 142.277 3.13428 142.602 4.82261 142.324C5.11744 142.275 5.41433 142.431 5.54068 142.704C5.66702 142.977 5.59305 143.302 5.3609 143.495C5.00855 143.791 3.99577 144.813 3.96668 145.618C3.95672 145.772 4.04501 145.873 4.09491 145.921C4.19872 146.015 4.33209 146.062 4.46959 146.044C5.48892 145.92 7.80011 145.323 11.8899 142.692C12.1706 142.51 12.5456 142.568 12.7639 142.824C12.9823 143.081 12.9731 143.459 12.7449 143.709C11.3516 145.229 9.91316 147.391 10.0475 148.54C10.0773 148.784 10.1757 148.961 10.3636 149.102L10.3674 149.102Z" fill="#EFEBE7"/>
<path d="M4.03438 143.862C3.79296 143.846 3.57108 143.703 3.46518 143.465C3.31279 143.126 3.46702 142.73 3.80237 142.581L11.9495 138.943C12.2849 138.794 12.6842 138.945 12.8331 139.28C12.9855 139.62 12.8312 140.015 12.4959 140.164L4.34874 143.802C4.24726 143.849 4.14025 143.865 4.03462 143.858L4.03438 143.862Z" fill="#EFEBE7"/>
<path d="M10.4837 145.179C10.2913 145.166 10.1042 145.071 9.98261 144.9C9.76719 144.599 9.83564 144.183 10.1374 143.967L14.9271 140.525C15.2289 140.31 15.6449 140.379 15.8604 140.68C16.0758 140.982 16.0073 141.398 15.7056 141.613L10.9158 145.055C10.7848 145.149 10.6308 145.188 10.4837 145.179Z" fill="#EFEBE7"/>
<path d="M88.4723 131.172C89.9999 131.744 91.557 132.268 93.1358 132.692C101.102 134.921 109.684 135.416 118.366 133.82C121.34 133.284 124.216 132.503 126.988 131.515C128.483 130.998 129.926 130.413 131.355 129.762C154.314 119.384 168.141 94.3689 163.372 68.4823C157.746 38.0066 128.498 17.8548 98.0232 23.4687C87.6346 25.3871 78.4482 30.0457 71.0739 36.5672C64.3753 42.4768 59.1763 49.9225 55.9212 58.2394C52.2402 67.6426 51.0605 78.1424 53.0181 88.8025C56.7184 108.874 70.6727 124.469 88.4725 131.168L88.4723 131.172Z" fill="#86C9FF"/>
<path d="M94.0675 76.2784C94.8992 78.0459 94.5675 79.9156 93.3297 80.4571C92.0892 80.9951 90.4103 79.9998 89.5813 78.2358C88.7496 76.4683 89.0813 74.5986 90.3191 74.0571C91.5597 73.519 93.2385 74.5144 94.0675 76.2784Z" fill="#1A1A1A"/>
<path d="M127.522 60.5448C128.185 62.0992 127.742 63.8275 126.534 64.4075C125.325 64.9845 123.807 64.1933 123.146 62.6419C122.486 61.0906 122.927 59.3592 124.134 58.7792C125.344 58.2022 126.861 58.9934 127.522 60.5448Z" fill="#1A1A1A"/>
<path d="M86.1644 50.2267C86.0635 50.2025 85.9675 50.1581 85.8812 50.0907C80.1655 45.5813 76.8472 40.9896 75.7322 36.0566C75.4929 34.9921 75.3561 33.9098 75.2277 32.8635C75.1106 31.9303 74.992 30.9671 74.7985 30.0496C73.6023 24.3535 69.5363 19.6756 65.7175 15.8516C65.4318 15.5663 65.4322 15.1033 65.7191 14.8153C66.0051 14.5314 66.47 14.5327 66.7597 14.819C70.73 18.7941 74.9632 23.6822 76.2407 29.7505C76.4449 30.73 76.5687 31.7242 76.6882 32.6834C76.8122 33.6947 76.9445 34.7419 77.167 35.7344C78.206 40.3263 81.3546 44.6477 86.7943 48.9378C87.1139 49.1888 87.1659 49.6474 86.9145 49.9652C86.7307 50.1971 86.4357 50.2877 86.1654 50.2227L86.1644 50.2267Z" fill="#1A1A1A"/>
<path d="M92.2193 46.539C92.1219 46.5156 92.0293 46.4721 91.9464 46.4054C86.4524 41.9493 83.278 37.3923 82.2381 32.4772C82.0149 31.4167 81.8911 30.3375 81.7751 29.2941C81.669 28.3637 81.562 27.4032 81.382 26.489C80.2694 20.813 76.3726 16.1758 72.7083 12.3889C72.4341 12.1063 72.438 11.6441 72.7178 11.3545C72.9967 11.0689 73.4464 11.0665 73.7245 11.35C77.5342 15.2865 81.5921 20.1282 82.7794 26.1791C82.9692 27.1552 83.0812 28.1465 83.1893 29.103C83.3013 30.1114 83.4213 31.1556 83.6287 32.1445C84.5979 36.7196 87.61 41.0082 92.8388 45.2476C93.1459 45.4956 93.1926 45.9529 92.9469 46.272C92.7672 46.505 92.4813 46.5977 92.2202 46.535L92.2193 46.539Z" fill="#1A1A1A"/>
<path d="M98.4829 41.8743C98.3855 41.8509 98.2928 41.8081 98.2096 41.7429C92.6918 37.3856 89.4889 32.9481 88.4136 28.1801C88.1828 27.1512 88.051 26.1051 87.9273 25.0938C87.8144 24.1918 87.7002 23.2608 87.5136 22.374C86.3601 16.8685 82.4352 12.3479 78.7489 8.65256C78.4731 8.37681 78.4735 7.92924 78.7506 7.65085C79.0268 7.37634 79.4758 7.37748 79.7555 7.65416C83.588 11.4955 87.6751 16.2153 88.9061 22.0845C89.103 23.0312 89.2223 23.9922 89.3374 24.9193C89.4569 25.8968 89.5845 26.909 89.799 27.8683C90.8011 32.3066 93.8402 36.4829 99.0906 40.6321C99.3991 40.8747 99.4492 41.318 99.2064 41.6252C99.0288 41.8494 98.744 41.937 98.4829 41.8743Z" fill="#1A1A1A"/>
<path d="M125.281 92.8901C125.028 92.8739 124.781 92.8352 124.546 92.7709C123.015 92.3655 121.787 91.26 120.665 90.165C120.401 89.9056 120.394 89.4847 120.653 89.2211C120.913 88.9537 121.334 88.9505 121.597 89.2099C122.595 90.1832 123.673 91.1579 124.887 91.4822C125.68 91.6924 126.717 91.5206 127.067 90.7931C127.225 90.4661 127.238 90.0275 127.105 89.5569C126.985 89.1249 126.544 88.6761 125.815 87.9397C125.648 87.7699 125.467 87.5877 125.275 87.386C125.02 87.1195 125.024 86.6956 125.291 86.44C125.557 86.1807 125.981 86.189 126.237 86.4555C126.429 86.6535 126.606 86.8316 126.77 86.9974C127.62 87.859 128.182 88.4254 128.398 89.193C128.616 89.976 128.574 90.7498 128.276 91.3708C127.725 92.5172 126.465 92.9702 125.284 92.8941L125.281 92.8901Z" fill="#1A1A1A"/>
<path d="M164.978 110.544C165.246 112.326 165.227 114.977 164.525 119C163.49 124.903 160.983 133.776 155.702 147.204L151.469 145.53C155.37 135.592 157.659 128.384 158.958 123.164C161.475 113.182 160.367 110.505 160.02 109.964L159.686 109.912C156.095 109.378 150.423 111.584 144.107 115.079C133.255 121.066 120.455 130.86 112.945 137.005C110.708 136.982 108.493 136.855 106.283 136.637C110.7 132.868 129.419 117.228 144.841 109.555C150.428 106.793 155.581 105.068 159.478 105.319C159.689 105.332 159.889 105.345 160.084 105.373C161.09 105.332 162.421 105.72 163.455 106.961C163.596 107.122 163.769 107.33 163.933 107.602C163.965 107.574 163.981 107.559 164.013 107.531C164.142 107.418 164.34 107.401 164.524 107.428C165.173 107.515 165.717 108.069 165.827 108.716C165.937 109.363 165.635 110.045 165.136 110.452C165.088 110.494 165.04 110.522 164.978 110.548L164.978 110.544Z" fill="#EFEBE7"/>
<path d="M151.567 145.647C151.68 145.654 164.974 151.086 164.974 151.086C164.974 151.086 166.054 143.14 158.451 142.677C154.63 142.431 151.567 145.643 151.567 145.643L151.567 145.647Z" fill="#EFEBE7"/>
<path d="M231.927 50.6833C231.165 50.6342 230.454 50.4862 229.801 50.2738C227.297 49.4648 225.367 47.5414 224.5 45.0045C223.615 42.402 224.006 39.5067 225.548 37.2575C226.234 36.26 227.075 35.2536 228.059 34.2639C226.92 32.486 226.688 31.0317 227.412 30.1389C228.535 28.7491 231.201 29.5343 233.537 30.84C235.175 26.8772 236.982 18.7019 236.998 18.6159C237.34 16.8424 237.995 15.6687 238.946 15.1352C239.697 14.7138 240.378 14.841 240.627 14.9138C241.423 15.0256 242.058 15.453 242.468 16.1498C243.908 18.6062 242.32 24.3827 241.057 28.059C241.693 27.6492 242.293 27.5136 242.872 27.6417C244.056 27.9036 244.635 29.2097 244.887 30.0517C246.338 29.7625 247.375 30.0073 247.98 30.7812C249.671 32.943 246.746 38.3002 246.141 39.3521C240.715 48.7339 235.684 50.9252 231.927 50.6833ZM229.418 30.7453C228.92 30.7133 228.592 30.8095 228.452 30.9823C228.173 31.3279 228.372 32.409 229.472 33.9647C229.663 34.2346 229.628 34.6035 229.39 34.8306C228.3 35.8854 227.378 36.9549 226.655 38.0144C225.351 39.919 225.018 42.3711 225.77 44.5748C226.501 46.709 228.12 48.3246 230.216 49.005C235.066 50.5785 240.171 47.0056 244.983 38.6866C246.297 36.3962 247.767 32.684 246.927 31.611C246.496 31.0606 245.272 31.3114 244.581 31.5093C244.4 31.5583 244.201 31.534 244.041 31.4328C243.881 31.3316 243.77 31.1654 243.737 30.9777C243.631 30.3762 243.214 29.0917 242.583 28.9526C242.359 28.9078 241.482 28.9272 239.807 31.361C239.61 31.6438 239.237 31.7334 238.937 31.5702C238.637 31.4069 238.505 31.0424 238.635 30.725C239.879 27.7104 242.785 19.3369 241.314 16.8331C241.106 16.4788 240.815 16.2896 240.405 16.2405C240.352 16.2371 240.3 16.2224 240.248 16.2039C240.248 16.2039 239.936 16.1118 239.574 16.3271C239.015 16.6586 238.566 17.5728 238.31 18.8935C238.224 19.2933 236.224 28.3463 234.449 32.0919C234.366 32.2646 234.218 32.3914 234.032 32.4477C233.851 32.5004 233.652 32.4761 233.491 32.3749C231.684 31.2586 230.289 30.8052 229.414 30.7489L229.418 30.7453Z" fill="#EFEBE7"/>
</svg>
