<svg width="1312" height="473" viewBox="0 0 1312 473" fill="none" xmlns="http://www.w3.org/2000/svg">
<path d="M1199.81 467.566C1186.48 472.294 1157.11 474.32 1145.7 471.618C1062.54 448.656 1121.06 216.326 1129.74 184.583C1140.91 142.035 1190.96 -24.7836 1269.25 3.58226C1296.12 12.3622 1310.7 50.8587 1311.92 113.669C1313.37 175.128 1294.48 302.099 1274.39 362.207C1255.43 419.614 1228.68 456.76 1199.81 467.566Z" fill="#EFEBE7"/>
<path d="M970.003 471.618C957.93 468.917 943.132 462.838 930.656 454.734C918.181 446.629 898.534 426.368 890.272 412.861C884.506 404.081 883.961 403.405 882.729 406.782C877.255 419.614 861.06 441.226 850.109 451.357C818.258 479.723 751.62 483.775 736.237 434.473C730.756 416.237 728.714 393.275 729.507 357.48C731.557 298.722 739.601 247.393 756.302 183.908C821.044 -57.8772 924.138 -24.1083 935.978 77.1982C937.357 84.6274 938.19 91.3812 938.62 92.7319C939.165 93.4073 942.262 90.7058 945.587 86.6535C962.327 65.7168 996.472 39.3771 1023.16 25.8696C1093.87 -9.92539 1158.65 16.4143 1129.37 103.538C1115.13 144.736 1075.02 190.662 1023.9 223.755L1005.35 235.912L1016.94 245.367C1067.45 285.89 1088.05 327.763 1083.1 376.39C1074.77 452.708 1011.5 479.723 970.003 471.618Z" fill="#EFEBE7"/>
<path d="M473.452 470.943C439.872 462.838 413.171 445.279 391.055 416.237C333.859 341.271 338.127 214.975 404.225 112.993C440.656 57.6124 490.052 19.1159 545.993 4.2576C565.261 -0.470054 600.33 -1.14542 617.335 3.5822C679.879 19.7913 722.274 73.146 733.964 148.113C752.92 269.681 676.085 431.096 547.116 468.241C529.167 472.969 490.027 474.32 473.452 470.943ZM552.798 263.602C562.288 258.199 568.852 246.718 572.461 233.21C575.411 219.703 574.376 210.248 568.496 202.143C554.784 181.882 526.2 198.766 520.932 229.833C516.122 258.199 533.589 275.759 552.798 263.602Z" fill="#EFEBE7"/>
<path d="M43.4037 469.593C24.4198 464.865 13.0619 454.059 7.03532 435.149C-1.14359 409.484 -2.27326 365.585 4.07679 304.801C10.2254 241.315 44.7368 80.5758 101.672 32.624C125.553 12.3627 145.394 4.2582 179.602 0.881281C258.685 -6.54785 382.741 31.9486 361.669 156.218C347.697 238.614 277.662 305.476 195.597 314.932L184.931 315.607L181.092 330.465C168.317 382.469 129.864 492.556 43.4037 469.593ZM211.678 181.207C223.261 175.129 233.782 163.647 235.614 152.841C238.248 137.307 229.528 126.501 215.019 126.501C197.871 126.501 185.803 139.334 182.367 159.595C176.87 192.013 211.019 181.207 211.678 181.207Z" fill="#EFEBE7"/>
</svg>
