<svg width="593" height="554" viewBox="0 0 593 554" fill="none" xmlns="http://www.w3.org/2000/svg">
<path d="M243.53 165.716C231.97 128.846 211.31 95.2863 203.72 57.0063C200.03 38.3963 190.77 15.8763 211.08 3.93634C232.88 -8.87366 245.96 12.5263 259.09 26.0863C289.14 57.1063 303.91 98.6063 331.77 135.706C342.25 109.886 350.44 86.4263 361.26 64.2363C368.21 49.9763 377.36 31.6263 396.84 36.5863C417.17 41.7563 418.36 63.0963 417.99 79.9063C417.47 103.786 412.83 127.576 409.62 154.126C441.85 136.776 470.85 120.036 500.89 105.436C517.24 97.4863 535.09 92.1463 552.76 87.5363C565.89 84.1063 580.52 84.7363 588.79 97.5763C597.15 110.556 590.5 123.316 582.45 134.346C566.59 156.076 545.37 172.086 524.06 188.036C509.46 198.966 495.44 210.666 477.75 224.736C508.16 230.266 535.85 223.876 561.69 233.046C575.23 237.846 591.2 240.966 592.64 258.296C594.12 275.986 578.21 281.566 565.6 287.606C540.42 299.646 512.63 300.556 480.95 303.586C495.95 321.196 509.25 335.616 521.05 351.176C527 359.016 533.17 368.656 526.46 379.326C519.84 389.846 508.56 388.976 498.79 387.256C482.14 384.326 465.84 379.416 445.69 374.416C456.85 402.956 467.25 427.986 476.39 453.456C484 474.626 489.5 496.436 487.99 519.346C485.85 551.786 465.31 562.736 438.16 544.876C406.47 524.026 387.28 492.466 368.97 460.406C362.58 449.226 356.27 437.996 347.79 423.026C338.03 446.646 338.82 469.036 327.88 487.616C321.4 498.626 314.22 509.376 300.33 508.306C286.74 507.266 284.41 494.026 280.46 483.736C272.03 461.746 277.6 437.806 272.68 410.786C249.93 432.036 230.78 451.306 210.12 468.786C193.79 482.606 175.73 494.526 154.72 500.606C144.03 503.696 132.06 508.566 123.29 498.306C115.97 489.746 119.49 478.906 122.85 469.106C134.96 433.766 157.5 404.516 178.49 374.396C185.99 363.636 194.37 353.486 202.43 342.956C182.57 342.956 163.92 344.096 145.51 342.486C135.8 341.636 124.86 337.636 121.95 325.856C119.11 314.326 126 305.476 134.33 299.786C148.57 290.046 164.12 282.236 179.75 273.246C170.07 256.486 151.62 253.476 136.8 245.676C96.0197 224.186 56.0797 201.506 22.8397 169.146C10.1297 156.766 -7.91026 143.226 3.76974 122.556C14.1897 104.116 33.8597 105.786 53.1197 108.186C101.33 114.216 146.11 130.816 190.48 149.336C207.27 156.346 222.99 166.746 242.11 167.106C243.4 167.886 244.68 168.676 245.95 169.466C245.14 168.216 244.32 166.966 243.51 165.716H243.53Z" fill="#EFB5D4"/>
</svg>
