<svg width="79" height="140" viewBox="0 0 79 140" fill="none" xmlns="http://www.w3.org/2000/svg">
<path d="M37.5828 105.201C35.3328 117.779 31.9974 136.451 31.9974 136.451L17.0938 140C17.1427 139.713 16.4548 130.846 25.5621 133.409C26.4211 128.168 27.1701 123.613 27.8335 119.629C27.4392 119.516 27.109 119.381 26.8369 119.186C25.7547 118.434 26.3325 117.177 27.8824 116.306C28.0567 116.208 28.2401 116.11 28.4358 116.033C29.1451 111.747 29.7229 108.234 30.1998 105.36C32.2175 104.785 34.4706 104.171 34.8161 104.299C35.7027 104.636 36.629 104.938 37.5828 105.198V105.201Z" fill="#1A1A1A"/>
<path d="M57.474 137.246C57.474 137.246 45.6123 136.58 45.3677 136.629C44.7502 135.351 43.4264 118.746 42.5093 106.211C44.7869 106.535 47.1623 106.682 49.5438 106.645C49.6508 109.174 49.767 112.112 49.9015 115.533C51.4698 116.037 51.6807 117.291 49.9993 118.462C50.1461 122.173 50.3081 126.402 50.4915 131.208C52.6193 130.645 54.2916 130.682 54.4108 130.731C59.504 130.976 57.474 137.246 57.474 137.246Z" fill="#1A1A1A"/>
<path d="M50.2326 98.46C49.3338 98.46 48.4564 97.9035 47.7196 96.8181C45.5888 93.6782 44.7542 85.8789 47.686 83.7357C47.686 83.7357 47.686 83.7357 47.689 83.7357L55.3136 78.2629C57.0531 77.15 58.2454 76.8107 58.9852 77.199C59.4224 77.4283 59.5875 77.8533 59.5967 78.1468C59.5967 78.1712 59.5967 78.1957 59.5967 78.2232C59.453 79.5654 58.1323 81.2011 56.8789 82.4729L61.7153 81.0818C64.5523 80.238 66.4386 80.0943 67.3129 80.663C67.6584 80.8862 67.7623 81.1614 67.7929 81.2928C68.0864 82.4149 67.0959 83.2281 66.463 83.5338C66.0748 83.7387 65.5123 83.9985 64.8611 84.2798C65.6254 84.1147 66.1512 84.0016 66.2246 83.9863C66.2521 83.9802 66.2827 83.9771 66.3102 83.9741C67.0653 83.9374 67.6003 84.1331 67.8907 84.5612C68.3034 85.1696 67.9824 85.9125 67.9427 85.995C67.6523 86.4934 66.6984 87.059 65.4878 87.6124C66.2888 87.4381 66.9491 87.4565 67.4352 87.6705C67.7868 87.8264 68.0589 88.1628 68.1414 88.548C68.2148 88.8904 68.1292 89.2267 67.9091 89.4744C67.7929 89.6058 67.6248 89.7495 67.3985 89.9146C66.9216 90.2601 66.3713 90.5475 65.7599 90.7676L51.5747 98.0441C51.1314 98.3224 50.6789 98.463 50.2326 98.463V98.46ZM48.3219 84.61C46.0871 86.2488 46.5793 93.2104 48.6153 96.2097C49.7679 97.9035 50.7278 97.3012 51.0427 97.1025L65.3013 89.7862C65.3227 89.7739 65.3441 89.7648 65.3686 89.7587C65.8944 89.5722 66.3652 89.3306 66.7687 89.0402C66.9827 88.8843 67.0745 88.7956 67.1111 88.7559C67.0989 88.7559 67.0561 88.6886 67.0072 88.6641C66.8452 88.5938 66.4447 88.5021 65.604 88.7009L58.5603 90.0919C58.279 90.1469 58.0008 89.9727 57.9305 89.6914C57.8602 89.4102 58.0253 89.1258 58.3004 89.0432C62.1158 87.9028 66.4783 86.2488 66.9766 85.5273C67.0225 85.405 67.0439 85.2338 67.0042 85.1726C66.9705 85.1268 66.8085 85.0503 66.4172 85.0564C65.8363 85.1818 59.7526 86.4812 58.0773 86.9765C57.7991 87.059 57.5025 86.9062 57.4108 86.6279C57.3191 86.3497 57.4628 86.0501 57.7349 85.9492C57.7991 85.9248 64.1029 83.5675 65.9831 82.5677C66.0075 82.5555 66.8666 82.1153 66.7596 81.5894C66.6465 81.5038 65.7813 80.9993 62.0271 82.1183L55.497 83.9955C55.1974 84.0811 54.8886 83.9496 54.7388 83.6806C54.5921 83.4146 54.6502 83.0875 54.8764 82.8857C56.5242 81.4212 58.331 79.4247 58.5205 78.1712C58.5114 78.162 58.4961 78.156 58.4839 78.1498C58.4258 78.1254 57.8571 77.9297 55.9311 79.1557L48.331 84.61H48.3219ZM66.729 81.4885C66.729 81.4885 66.729 81.4885 66.729 81.4915C66.729 81.4915 66.729 81.4915 66.729 81.4885Z" fill="#1A1A1A"/>
<path d="M17.1238 97.1911C16.9648 97.1911 16.8119 97.1696 16.6652 97.1299C16.0446 96.9587 15.641 96.4389 15.6044 95.7724C15.5493 94.6901 15.9315 93.4091 16.601 92.4277C16.7691 92.18 17.1054 92.1189 17.353 92.284C17.6007 92.4521 17.6649 92.7884 17.4967 93.0361C16.9617 93.8218 16.6438 94.8736 16.6866 95.7174C16.6958 95.9161 16.7875 96.0415 16.9556 96.0873C17.1268 96.1363 17.3194 96.0965 17.4509 96.0537C17.6985 95.9772 17.9461 95.8244 18.1907 95.6073C19.1201 94.7757 19.866 93.62 20.5906 92.501C20.8993 92.0241 21.2204 91.5288 21.5475 91.0733C22.0641 90.3517 22.5808 89.6302 23.0913 88.9025C23.1464 88.8261 23.2258 88.7283 23.3176 88.6213C23.4246 88.4959 23.6447 88.236 23.6752 88.132C23.7119 87.8355 23.984 87.6398 24.2744 87.6704C24.571 87.7071 24.7789 87.9883 24.7452 88.2849C24.6994 88.661 24.4029 89.0095 24.143 89.3183C24.0757 89.3978 24.0146 89.4681 23.9749 89.5232C23.4612 90.2508 22.9446 90.9754 22.4279 91.7C22.1161 92.1372 21.8165 92.5989 21.5016 93.088C20.7404 94.2651 19.9516 95.4851 18.9153 96.4145C18.5545 96.7355 18.1724 96.9648 17.778 97.0871C17.5548 97.1574 17.3347 97.1941 17.1238 97.1941V97.1911Z" fill="#1A1A1A"/>
<path d="M13.3008 96.1421C12.9492 96.1421 12.5977 96.032 12.295 95.8119C11.76 95.4267 11.494 94.7846 11.6041 94.1425C11.7936 93.0144 12.3133 91.7976 13.1449 90.5288C15.1259 87.505 18.1831 85.2976 21.7569 84.31C30.1519 81.9925 35.9421 87.5967 36.1867 87.8352C36.3976 88.0462 36.4007 88.3855 36.1928 88.5995C35.9819 88.8136 35.6395 88.8136 35.4285 88.6057C35.3735 88.5506 29.8247 83.2094 22.0473 85.3526C18.7273 86.2667 15.8902 88.3183 14.0529 91.1188C13.3039 92.2623 12.8392 93.3385 12.6741 94.3199C12.6344 94.5584 12.7291 94.7877 12.9309 94.9314C13.1296 95.0751 13.3772 95.0964 13.5882 94.9833C13.8144 94.8641 14.0682 94.7052 14.3372 94.5187C15.395 93.7818 16.3335 92.8187 17.1223 91.66L20.1213 87.2634C20.2895 87.0158 20.6258 86.9546 20.8734 87.1197C21.121 87.2879 21.1852 87.6242 21.0171 87.8718L18.018 92.2684C17.1528 93.5372 16.1226 94.5951 14.9547 95.4053C14.649 95.6162 14.3617 95.7966 14.0957 95.9372C13.845 96.0687 13.5729 96.1359 13.3039 96.1359L13.3008 96.1421Z" fill="#1A1A1A"/>
<path d="M22.4911 95.8608C22.0417 95.8608 21.6718 95.6438 21.4425 95.2249C21.1368 94.8366 20.1463 93.1062 22.8121 89.2967C22.9833 89.0521 23.3196 88.991 23.5672 89.1622C23.8118 89.3334 23.873 89.6697 23.7018 89.9173C21.3325 93.3049 22.2893 94.5492 22.3016 94.5615C22.326 94.592 22.3627 94.644 22.3811 94.6807C22.4239 94.7632 22.4575 94.8336 22.751 94.7174C23.0934 94.5768 23.3165 94.3077 23.4449 94.1029L25.2089 91.2993C25.3679 91.0455 25.7011 90.9691 25.9549 91.128C26.2086 91.287 26.285 91.6203 26.123 91.874L24.3591 94.6776C24.0564 95.1607 23.6406 95.5215 23.1576 95.7172C22.9222 95.8119 22.699 95.8608 22.4911 95.8608Z" fill="#1A1A1A"/>
<path d="M25.6564 92.1282C25.4302 92.1282 25.2193 91.9846 25.1428 91.7583C25.0481 91.474 25.2009 91.1682 25.4852 91.0735L47.8239 83.6563C48.1082 83.5645 48.4139 83.7174 48.5087 83.9986C48.6034 84.283 48.4506 84.5887 48.1663 84.6835L25.8276 92.1007C25.7726 92.119 25.7145 92.1282 25.6564 92.1282Z" fill="#1A1A1A"/>
<path d="M15.563 107.864C11.9709 107.864 9.01156 107.357 6.60252 106.329C3.0287 104.807 0.809194 102.333 0.182477 99.1751C-0.624613 95.0844 1.28306 90.0978 5.16259 86.1568C9.36006 81.8948 15.8596 78.0823 22.9919 75.6945C30.485 73.1844 39.3813 71.6526 48.0362 71.3836C49.791 71.3285 51.5488 71.3255 53.2639 71.3744C58.1431 71.515 65.0462 72.3528 70.2128 75.5477C75.1532 78.6021 77.8648 83.6926 77.4735 89.1653C77.0211 95.4635 72.7258 100.976 65.9817 103.908C56.7277 107.935 43.857 108.311 34.6672 104.828C34.1108 104.819 31.4113 105.583 29.7819 106.048C28.5376 106.4 27.5563 106.681 27.1374 106.754C25.1228 107.112 23.0653 107.326 21.0781 107.531L20.5523 107.586C18.77 107.772 17.11 107.867 15.5691 107.867L15.563 107.864ZM48.0698 72.4659C39.5189 72.7349 30.7327 74.2452 23.3374 76.7217C16.4649 79.0239 9.95927 82.8334 5.93605 86.9181C2.35612 90.5503 0.51571 95.2769 1.24637 98.9641C1.80583 101.795 3.75017 103.935 7.02745 105.333C10.2986 106.727 14.6856 107.109 20.4362 106.507L20.962 106.452C22.9308 106.247 24.9699 106.033 26.9479 105.684C27.3117 105.62 28.3664 105.32 29.4823 105.002C33.533 103.853 34.5633 103.63 35.0066 103.795C43.9579 107.204 56.5198 106.84 65.5506 102.911C71.9187 100.141 75.9725 94.9712 76.3943 89.0827C76.7581 84.0197 74.236 79.3022 69.6441 76.4619C64.6824 73.3923 57.9811 72.5851 53.2333 72.4506C51.5427 72.4017 49.8062 72.4047 48.0728 72.4598L48.0698 72.4659Z" fill="#1A1A1A"/>
<path d="M44.1199 80.8891L4.69784 67.1126L3.8877 26.6054L34.6152 0.00012207L70.0843 19.5888L78.4518 59.3682L44.1199 80.8891Z" fill="#EFB5D4"/>
<path d="M26.4397 36.8751C25.9016 36.8751 25.385 36.7925 24.8836 36.6274C22.0374 35.6918 20.7778 32.3777 20.4629 31.384C20.3712 31.0997 20.521 30.7817 20.8053 30.6869C21.0897 30.5952 21.3862 30.7327 21.481 31.014C21.481 31.014 21.4932 31.0508 21.4932 31.0538C21.7714 31.9252 22.8628 34.8235 25.2229 35.6001C26.7698 36.1076 28.6072 35.6001 30.6861 34.0928C30.9276 33.9155 31.2669 33.9706 31.4412 34.2121C31.6154 34.4536 31.5635 34.793 31.3219 34.9673C29.5733 36.2361 27.9377 36.872 26.4427 36.872L26.4397 36.8751Z" fill="#1A1A1A"/>
<path d="M44.8036 38.4801C44.5285 38.4801 44.2625 38.4465 43.9965 38.3823C41.8871 37.8595 41.028 35.435 40.9913 35.331C40.8935 35.0467 41.0433 34.7409 41.3276 34.6431C41.6089 34.5453 41.9177 34.6951 42.0155 34.9764C42.0216 34.9947 42.7248 36.9545 44.2625 37.3336C45.357 37.5996 46.6624 37.0309 48.1481 35.6398C48.3652 35.438 48.7107 35.4472 48.9124 35.6643C49.1173 35.8814 49.1051 36.2238 48.888 36.4286C47.4297 37.7922 46.0601 38.4801 44.8036 38.4801Z" fill="#1A1A1A"/>
<path d="M37.3522 29.5461L35.3057 29.4048L34.2074 45.3111L36.2539 45.4524L37.3522 29.5461Z" fill="#1A1A1A"/>
<path d="M38.0395 50.5389C37.8805 51.6274 37.3118 52.6944 36.4405 53.3793C35.5754 54.061 34.4473 54.2567 33.4873 53.6391C32.4387 52.9634 32.2522 51.7069 32.2828 50.5542L38.0395 50.5389Z" fill="#1A1A1A"/>
<path d="M32.7236 105.284C32.4882 105.284 32.2711 105.131 32.2039 104.893C32.1213 104.606 32.2864 104.306 32.5738 104.223C32.6991 104.187 45.2274 100.542 50.3726 97.3932C50.6294 97.2373 50.9595 97.3168 51.1154 97.5736C51.2714 97.8274 51.1919 98.1606 50.9351 98.3165C45.6645 101.539 33.39 105.113 32.8703 105.263C32.8214 105.278 32.7694 105.284 32.7205 105.284H32.7236Z" fill="#1A1A1A"/>
</svg>
