<svg width="120" height="134" viewBox="0 0 120 134" fill="none" xmlns="http://www.w3.org/2000/svg">
<path d="M95.9479 118.971C95.9479 118.971 95.1834 123.17 95.0433 123.526V123.538C95.4402 123.651 106.165 133.9 106.165 133.9C106.165 133.9 114.295 126.538 104.957 120.768C103.515 119.782 101.811 119.347 99.6979 119.146C100.136 116.543 100.629 112.728 101.227 107.119C101.507 104.496 101.744 101.995 101.936 99.6138C100.661 100.591 99.4002 101.49 98.195 102.331C98.049 102.43 97.9119 102.526 97.766 102.625C96.9547 111.532 95.9479 118.971 95.9479 118.971Z" fill="#1A1A1A"/>
<path d="M78.0267 90.0187C78.4499 90.3806 78.8467 90.7016 79.2465 90.97C79.9382 91.4516 80.5948 91.79 81.2047 91.9681C82.2377 88.472 83.5772 84.3281 84.6249 81.62C84.8466 81.0421 85.0597 80.5256 85.2436 80.1054C85.6871 79.0928 86.122 78.1793 86.5568 77.3476C87.0062 76.4897 87.441 75.7164 87.8495 75.0335C89.1044 72.9674 90.2775 71.6075 91.2902 70.7145C91.8417 70.2125 92.3349 69.8711 92.7581 69.6143C92.7697 69.5997 92.793 69.588 92.8047 69.588C94.1063 68.8293 94.9292 68.9314 94.938 68.9314L95.0664 68.9577C95.5946 69.0715 96.1111 69.5676 96.6072 70.4343C97.0304 71.1931 97.366 72.1327 97.6607 73.2125C98.0751 74.7533 98.3698 76.5802 98.5537 78.6375C98.9214 82.4925 98.8076 87.8446 98.4749 93.398C99.829 92.3445 101.183 91.2035 102.467 89.972C102.622 84.3398 102.415 79.6647 101.848 75.9615C101.755 75.299 101.635 74.6687 101.522 74.0705C101.522 74.0588 101.522 74.0442 101.507 74.0442C101.507 74.0238 101.495 73.9887 101.495 73.9654C101.201 72.5296 100.839 71.2748 100.404 70.1834C100.506 70.1483 100.617 70.1104 100.719 70.0637C100.979 69.9499 101.236 69.804 101.449 69.5618C101.965 68.9256 101.615 68.0326 101.166 67.6445C100.629 67.1892 99.7589 67.0813 99.0673 67.1892C98.9739 67.2009 98.8659 67.2243 98.7259 67.2564C97.9146 66.2846 96.9545 65.6601 95.8747 65.4266C95.8397 65.4149 95.793 65.4062 95.7463 65.4062C95.1948 65.2778 93.8465 65.1465 92.0022 65.9431C91.652 66.0832 91.2902 66.2729 90.9108 66.4947C89.9857 67.0316 88.9731 67.8342 87.9196 68.9577C86.8953 70.0374 85.8068 71.4411 84.727 73.2504C84.514 73.5918 84.3039 73.9596 84.0909 74.3302C84.0092 74.4586 83.942 74.5986 83.8574 74.7533C83.6444 75.1298 83.4226 75.5646 83.2008 76.0344C81.5899 79.3758 79.6113 84.868 78.0238 90.0099L78.0267 90.0187Z" fill="#1A1A1A"/>
<path d="M88.9004 125.466C88.9587 125.466 89.017 125.46 89.0725 125.452C89.5015 125.352 89.554 125.329 89.592 125.312C89.6124 125.303 89.6328 125.291 89.6532 125.279C90.517 124.745 90.6075 123.727 90.4324 122.738C90.698 122.889 90.9577 122.971 91.2233 122.989C91.8157 123.027 92.3585 122.744 92.8925 122.125C93.5287 121.381 93.4966 120.537 93.2514 119.849C94.1707 119.846 94.7135 119.32 94.9003 118.947C95.8604 116.863 90.5929 110.738 89.0404 109.001C91.769 107.265 94.9236 105.225 98.0607 103.054L98.4868 102.762C99.5227 102.039 100.88 101.076 102.248 100.028C105.555 97.5153 108.245 95.0785 110.469 92.5747C114.523 87.9872 117.19 82.8481 118.182 77.7091C118.783 74.6012 118.693 71.7617 117.911 69.2637C116.866 65.9427 114.566 62.969 110.875 60.1734C103.401 54.4828 94.2407 51.8738 86.1601 49.5743C86.0288 49.5363 85.88 49.5509 85.7603 49.618C85.6407 49.6852 85.5443 49.7931 85.5064 49.9245L83.5804 56.6977C83.5425 56.829 83.5599 56.972 83.6271 57.0917C83.6942 57.2113 83.8051 57.2989 83.9364 57.3368C91.6902 59.5401 99.7096 61.8163 105.993 66.5906C108.307 68.3532 109.681 70.0137 110.198 71.6742C110.577 72.8473 110.598 74.3619 110.256 76.177C109.535 79.9036 107.513 83.7236 104.414 87.2284C103.719 88.0222 102.966 88.7955 102.111 89.6039C100.938 90.7245 99.6074 91.8655 98.1541 92.9978C96.8905 93.9842 95.4898 95.0114 93.8731 96.1379C89.9801 98.8518 85.8624 101.464 82.2175 103.775C82.1533 103.784 82.0892 103.807 82.0308 103.842C78.9053 105.695 78.3742 107.939 78.3538 108.033C77.169 111.707 81.5084 118.553 84.7214 122.247C86.02 123.742 87.7681 125.472 88.9004 125.472V125.466ZM89.1513 124.372C89.0754 124.389 88.8653 124.439 88.8653 124.439C88.6202 124.474 87.3887 123.78 85.3226 121.357C81.739 117.158 78.4297 111.155 79.3489 108.295C79.3665 108.234 79.8304 106.384 82.4422 104.79C82.5152 104.782 82.5852 104.755 82.6494 104.715C86.3352 102.38 90.5113 99.7331 94.4626 96.9783C96.0968 95.8402 97.5121 94.8042 98.7874 93.8062C100.267 92.6535 101.624 91.4891 102.82 90.3481C103.696 89.5222 104.472 88.7226 105.187 87.9084C108.406 84.2694 110.51 80.2772 111.269 76.3696C111.642 74.3794 111.613 72.6956 111.181 71.359C110.6 69.4942 109.109 67.6616 106.617 65.7647C100.314 60.973 92.4052 58.6646 84.7126 56.4788L86.3557 50.7007C94.2408 52.9478 103.077 55.5333 110.247 60.9934C113.761 63.6577 115.944 66.4622 116.921 69.5701C117.651 71.9018 117.733 74.5749 117.166 77.5107C116.206 82.4688 113.624 87.4386 109.693 91.886C107.516 94.3373 104.875 96.7332 101.621 99.2049C100.264 100.244 98.9187 101.195 97.8973 101.91L97.4741 102.202C94.1473 104.507 90.8002 106.658 87.9665 108.459C87.8352 108.54 87.7506 108.678 87.7301 108.832C87.7097 108.987 87.7622 109.139 87.8702 109.252C90.269 111.768 94.5092 117.327 93.9693 118.5C93.946 118.538 93.587 119.102 92.4256 118.635C92.2038 118.547 91.947 118.62 91.8098 118.816C91.6727 119.011 91.6872 119.277 91.8448 119.458C91.8828 119.501 92.8312 120.607 92.1075 121.454C91.6493 121.985 91.3779 121.964 91.2904 121.961C90.984 121.941 90.4295 121.629 89.5336 120.251C89.3819 120.021 89.0784 119.948 88.8391 120.088C88.5998 120.228 88.5122 120.529 88.6406 120.774C89.2272 121.9 89.8692 123.85 89.1455 124.378L89.1513 124.372Z" fill="#1A1A1A"/>
<path d="M92.3497 119.776C92.5073 119.776 92.6619 119.706 92.7641 119.569C92.9246 119.356 92.8954 119.061 92.7057 118.883C92.3934 118.533 89.1396 114.22 87.0122 111.383C86.84 111.156 86.5161 111.109 86.2885 111.281C86.0609 111.453 86.0141 111.777 86.1863 112.005C91.8039 119.496 91.9732 119.622 92.0433 119.674C92.1366 119.744 92.2446 119.776 92.3525 119.776H92.3497Z" fill="#1A1A1A"/>
<path d="M89.8749 122.158C89.98 122.158 90.0851 122.125 90.1784 122.058C90.409 121.892 90.4616 121.568 90.2923 121.338L83.9071 112.551C83.7408 112.32 83.4169 112.268 83.1863 112.437C82.9558 112.603 82.9033 112.927 83.0725 113.158L89.4576 121.945C89.5598 122.085 89.7173 122.158 89.8749 122.158Z" fill="#1A1A1A"/>
<path d="M26.9546 68.0063C27.0743 68.1201 27.2027 68.2135 27.3253 68.2952C26.7153 69.7164 26.4002 71.266 26.4585 72.8623C26.6074 77.7504 28.0081 83.438 30.0392 89.2278C32.1637 91.0459 32.4147 92.7706 32.4147 92.7706C32.6831 93.5964 32.6948 94.5828 32.5139 95.6801C35.6452 103.218 39.4476 110.502 42.5351 116.014C42.1266 116 41.7034 116.026 41.2949 116.082C30.6637 117.15 34.6413 127.054 34.6413 127.054C34.6413 127.054 46.466 123.278 48.5117 122.77L48.7715 122.782C49.5682 122.152 49.5302 121.413 49.288 120.751C49.1596 120.415 48.9582 120.094 48.8065 119.837C48.322 119.041 47.7938 118.139 47.2306 117.15C43.2326 110.228 37.1714 98.9602 33.3952 88.224C32.6102 85.9915 31.9273 83.7853 31.3758 81.6375C30.5703 78.4799 30.0626 75.4654 29.9692 72.7426C29.8963 70.3701 30.9497 68.2369 32.8524 66.874C33.3018 66.5589 33.7571 66.3108 34.2357 66.1153C35.0119 65.7855 35.8202 65.6192 36.6315 65.6192C37.4982 65.5871 38.3679 65.7388 39.2142 66.0686C40.5741 66.5851 42.1324 67.3614 43.8688 68.4849V68.4966C45.8678 69.7894 48.2695 71.7826 50.9251 74.479C51.5438 75.1152 52.18 75.7718 52.8249 76.478C56.534 80.5023 60.6254 85.7551 64.7956 92.2336C65.3792 91.1889 65.9424 89.9603 66.4589 88.5771C59.3968 77.6044 52.5068 69.9061 45.897 65.5871C44.0672 64.3877 42.2492 63.448 40.4515 62.7652C39.0362 62.2282 37.5537 62.0152 36.1005 62.1202C34.2211 62.2399 32.3913 62.8848 30.8038 64.0113C30.1384 64.4928 29.5373 65.0356 29.012 65.6425C28.656 65.4762 28.2941 65.3741 27.9177 65.3128C27.6375 65.2807 27.3427 65.2661 27.0655 65.3595C26.3009 65.5959 26.1142 66.5209 26.2893 67.0637C26.3914 67.4256 26.6395 67.7466 26.9459 68.0034L26.9546 68.0063Z" fill="#1A1A1A"/>
<path d="M19.9771 114.062C21.3604 114.062 23.5023 111.926 25.1015 110.084C29.0295 105.552 34.3407 97.1826 32.9195 92.6477C32.8465 92.2566 32.2396 89.7294 28.618 87.5962C28.5859 87.5757 28.5509 87.5611 28.5158 87.5495L28.3933 87.494C28.0664 87.3364 27.1035 86.8608 24.5617 85.5709L24.2056 85.3929C20.5578 83.5515 16.7612 81.4999 13.6941 78.9902C10.7788 76.6235 8.89939 74.1168 8.25445 71.7442C8.03267 70.898 8.02103 70.2005 8.21947 69.7365C8.44709 69.217 9.25836 68.1081 12.0774 66.5585C18.4187 63.0916 31.4925 60.3981 39.3017 58.7901C39.4914 58.7522 39.6607 58.6063 39.7103 58.4195C39.7628 58.2327 39.719 58.0285 39.576 57.8971L33.1793 52.0431C33.0567 51.9323 32.8903 51.8855 32.7269 51.9176C24.7163 53.5519 15.6347 55.405 8.1961 59.4818C4.32359 61.6062 1.9773 63.8387 0.812916 66.5118C-0.135517 68.6917 -0.255154 71.1547 0.45982 73.8337C1.54249 77.8988 4.27692 81.7392 8.59009 85.2499C12.3225 88.3082 16.7495 90.6866 20.5841 92.6097L20.9956 92.8198L20.943 92.8578L20.9488 92.8636C19.9829 93.6253 14.196 100.337 12.8595 103.86C12.5005 104.805 12.4421 105.523 12.6873 106.048C12.9207 106.518 13.6065 107.169 14.803 107.108C14.4528 107.957 14.3536 109.039 15.1591 109.97C15.7836 110.703 16.4197 111.033 17.1055 110.998C17.4966 110.974 17.8876 110.823 18.2904 110.539C18.0073 111.818 18.0423 113.175 19.1308 113.84C19.1891 113.875 19.2592 113.919 19.7728 114.041C19.8399 114.053 19.907 114.059 19.98 114.059L19.9771 114.062ZM28.1278 88.5096C31.4896 90.5057 31.901 92.8286 31.904 92.8519C31.9069 92.8782 31.9156 92.9074 31.9215 92.9307C33.0538 96.4472 28.9449 104.07 24.3165 109.407C21.9002 112.197 20.3885 113.113 19.98 113.035C19.98 113.035 19.7436 112.976 19.6356 112.941C18.6055 112.25 19.5364 109.661 20.1784 108.377C20.301 108.132 20.2106 107.834 19.9742 107.697C19.7378 107.56 19.4343 107.633 19.2854 107.861C18.3837 109.223 17.6308 109.932 17.0413 109.967C16.7028 109.994 16.3439 109.769 15.9441 109.299C14.9752 108.181 16.2154 106.725 16.268 106.664C16.4255 106.483 16.4372 106.22 16.3001 106.025C16.1629 105.829 15.909 105.756 15.6872 105.844C14.1493 106.466 13.6649 105.683 13.6153 105.593C12.7486 103.722 20.4177 94.6175 21.5296 93.7099C21.5412 93.7041 21.55 93.6953 21.5617 93.6895L22.2883 93.1496C22.4313 93.0416 22.5101 92.8695 22.4955 92.6885C22.4809 92.5105 22.373 92.3529 22.2125 92.2712L21.0568 91.6876C17.266 89.7878 12.9033 87.4415 9.2467 84.4474C5.10571 81.0768 2.48798 77.4144 1.46368 73.5652C0.812908 71.1168 0.915062 68.8814 1.76719 66.9204C2.83527 64.469 5.03855 62.3912 8.70095 60.3835C15.9236 56.4263 24.8068 54.5879 32.6831 52.9799L38.1374 57.973C30.1676 59.6189 17.7972 62.2541 11.5842 65.6509C9.22919 66.9466 7.78174 68.1811 7.27688 69.3221C6.97922 70.0137 6.97337 70.9184 7.25935 72.0098C7.96265 74.5983 9.96167 77.286 13.0433 79.7898C16.1863 82.3608 20.0442 84.4474 23.7445 86.315L24.0976 86.4931C26.6424 87.7829 27.6141 88.2615 27.9643 88.4337L28.0577 88.4746C28.084 88.4862 28.1073 88.495 28.1278 88.5037V88.5096Z" fill="#1A1A1A"/>
<path d="M15.7164 107.055C15.8244 107.055 15.9324 107.023 16.0258 106.953C16.1016 106.894 16.3088 106.743 23.2776 97.4801C23.4497 97.2525 23.4031 96.9285 23.1755 96.7564C22.9479 96.5842 22.6239 96.6309 22.4518 96.8585C19.7932 100.392 15.731 105.759 15.3662 106.156C15.1736 106.334 15.1415 106.632 15.302 106.845C15.4042 106.982 15.5588 107.052 15.7164 107.052V107.055Z" fill="#1A1A1A"/>
<path d="M19.1571 109.53C19.3176 109.53 19.4752 109.457 19.5744 109.317L27.121 98.9047C27.2874 98.6742 27.2377 98.3503 27.0072 98.1839C26.7766 98.0147 26.4527 98.0672 26.2864 98.2977L18.7397 108.71C18.5734 108.941 18.623 109.265 18.8536 109.431C18.9441 109.498 19.052 109.53 19.1571 109.53Z" fill="#1A1A1A"/>
<path d="M22.0431 51.2642C21.6054 43.3674 34.2823 35.9551 52.4163 32.2897C54.0622 13.861 60.03 0.445813 67.9268 0.0109939C75.8235 -0.426743 83.2359 12.2502 86.9012 30.3842C105.33 32.03 118.742 37.9978 119.18 45.8946C119.618 53.7914 106.941 61.2038 88.8068 64.8691C87.161 83.2978 81.1932 96.713 73.2964 97.1478C65.3996 97.5856 57.9872 84.9087 54.3219 66.7747C35.8932 65.1288 22.478 59.161 22.0431 51.2642Z" fill="#EFB5D4"/>
<path d="M73.0136 58.6312C81.3055 57.6018 86.9173 53.9208 86.998 53.8568C87.2326 53.6777 87.2738 53.3457 87.0925 53.1162C86.9115 52.8898 86.5791 52.8471 86.3472 53.0228C86.133 53.1694 71.8246 62.426 55.2931 54.8836C55.0272 54.7607 54.7052 54.8756 54.579 55.1402C54.4529 55.4048 54.5682 55.7174 54.8371 55.84C61.4874 58.8745 67.7837 59.2805 73.0166 58.6308L73.0136 58.6312Z" fill="black"/>
<path d="M82.7252 43.0827C82.7981 44.3813 83.624 45.391 84.5725 45.3385C85.5209 45.286 86.2329 44.1916 86.16 42.893C86.087 41.5944 85.2612 40.5847 84.3128 40.6372C83.3643 40.6897 82.6522 41.7841 82.7252 43.0827Z" fill="#1A1A1A"/>
<path d="M55.7635 44.5695C55.8364 45.8681 56.6623 46.8779 57.6107 46.8253C58.5592 46.7728 59.2712 45.6785 59.1982 44.3798C59.1253 43.0812 58.2994 42.0715 57.351 42.124C56.4025 42.1766 55.6905 43.2709 55.7635 44.5695Z" fill="#1A1A1A"/>
</svg>
