<svg width="420" height="420" viewBox="0 0 420 420" fill="none" xmlns="http://www.w3.org/2000/svg">
<rect width="420" height="420" rx="12" fill="#8BB174"/>
<path d="M184.241 203.354L192.774 188.295L196.85 195.485L201.307 203.354H192.109L188.119 210.402H213.406L192.774 174L172.156 210.402H180.251L184.241 203.354Z" fill="#091B1F"/>
<path d="M248.188 210.402H221.258L217.268 203.354H244.197L248.188 210.402Z" fill="#091B1F"/>
<path d="M239.881 195.726H212.952L208.961 188.677H235.89L239.881 195.726Z" fill="#091B1F"/>
<path d="M231.308 181.048H204.633L200.643 174H227.317L231.308 181.048Z" fill="#091B1F"/>
<path d="M91 245.932V229.612H96.3355C98.4914 229.612 100.151 230.171 101.33 231.272C102.493 232.374 103.082 234.033 103.082 236.267V239.323C103.082 241.542 102.493 243.201 101.33 244.303C100.167 245.404 98.5069 245.947 96.3355 245.947H91V245.932ZM93.5126 243.651H96.351C97.7624 243.651 98.8171 243.294 99.4996 242.581C100.182 241.867 100.523 240.797 100.523 239.385V236.174C100.523 234.747 100.182 233.677 99.4996 232.979C98.8171 232.28 97.7624 231.924 96.351 231.924H93.5126V243.651Z" fill="#091B1F"/>
<path d="M105.607 245.932V229.612H115.891V231.893H108.136V236.578H115.239V238.858H108.136V243.636H116.015V245.916H105.623L105.607 245.932Z" fill="#091B1F"/>
<path d="M122.161 245.932L117.616 229.612H120.222L124.177 244.349H124.487L128.427 229.612H131.033L126.504 245.932H122.145H122.161Z" fill="#091B1F"/>
<path d="M133.093 245.932V229.612H135.605V245.932H133.093Z" fill="#091B1F"/>
<path d="M142.713 245.932V231.893H137.703V229.612H150.235V231.893H145.226V245.932H142.713Z" fill="#091B1F"/>
<path d="M149.647 245.932L154.316 229.612H158.736L163.374 245.932H160.784L159.714 242.085H153.323L152.253 245.932H149.647ZM153.959 239.758H159.093L156.72 231.179H156.348L153.975 239.758H153.959Z" fill="#091B1F"/>
<path d="M173.551 245.69V229.371H178.886C181.042 229.371 182.702 229.929 183.881 231.03C185.044 232.132 185.633 233.792 185.633 236.01V239.066C185.633 241.284 185.059 242.944 183.881 244.046C182.717 245.147 181.058 245.69 178.902 245.69H173.566H173.551ZM176.079 243.41H178.917C180.329 243.41 181.383 243.053 182.066 242.339C182.748 241.626 183.09 240.555 183.09 239.144V235.932C183.09 234.505 182.748 233.435 182.066 232.737C181.383 232.039 180.329 231.682 178.917 231.682H176.079V243.41Z" fill="#091B1F"/>
<path d="M188.18 245.69V229.371H198.447V231.651H190.692V236.336H197.796V238.616H190.692V243.394H198.572V245.674H188.18V245.69Z" fill="#091B1F"/>
<path d="M204.728 245.675L200.184 229.355H202.789L206.76 244.077H207.07L211.01 229.34H213.615L209.102 245.659H204.744L204.728 245.675Z" fill="#091B1F"/>
<path d="M215.649 245.674V229.355H225.917V231.635H218.162V236.32H225.266V238.601H218.162V243.378H226.041V245.659H215.649V245.674Z" fill="#091B1F"/>
<path d="M228.288 245.674V229.355H230.801V243.394H238.664V245.674H228.288Z" fill="#091B1F"/>
<path d="M246.667 246C244.667 246 243.069 245.442 241.89 244.309C240.711 243.177 240.122 241.564 240.122 239.423V235.607C240.122 233.481 240.711 231.853 241.89 230.72C243.069 229.588 244.667 229.029 246.667 229.029C248.668 229.029 250.266 229.588 251.46 230.72C252.654 231.853 253.244 233.481 253.244 235.607V239.423C253.244 241.548 252.654 243.177 251.46 244.309C250.266 245.442 248.668 246 246.667 246ZM246.667 243.735C247.955 243.735 248.947 243.363 249.645 242.603C250.343 241.843 250.7 240.819 250.7 239.516V235.514C250.7 234.211 250.343 233.187 249.645 232.427C248.947 231.666 247.955 231.294 246.667 231.294C245.38 231.294 244.418 231.666 243.705 232.427C242.991 233.187 242.635 234.211 242.635 235.514V239.516C242.635 240.819 242.991 241.858 243.705 242.603C244.418 243.363 245.411 243.735 246.667 243.735Z" fill="#091B1F"/>
<path d="M255.818 245.674V229.355H262.286C263.279 229.355 264.163 229.557 264.954 229.944C265.745 230.348 266.35 230.906 266.8 231.62C267.249 232.349 267.467 233.202 267.467 234.226V234.536C267.467 235.545 267.234 236.413 266.784 237.142C266.319 237.871 265.714 238.43 264.938 238.818C264.163 239.206 263.279 239.407 262.302 239.407H258.347V245.674H255.834H255.818ZM258.331 237.111H262.038C262.922 237.111 263.636 236.879 264.163 236.413C264.69 235.948 264.954 235.312 264.954 234.505V234.273C264.954 233.45 264.69 232.799 264.163 232.333C263.636 231.868 262.922 231.635 262.038 231.635H258.331V237.111Z" fill="#091B1F"/>
<path d="M269.594 245.659V229.34H274.324L277.892 243.984H278.264L281.831 229.34H286.562V245.659H284.111V231.108H283.739L280.203 245.659H275.968L272.417 231.124H272.044V245.675H269.594V245.659Z" fill="#091B1F"/>
<path d="M289.538 245.659V229.34H299.806V231.62H292.051V236.305H299.154V238.585H292.051V243.363H299.93V245.644H289.538V245.659Z" fill="#091B1F"/>
<path d="M302.182 245.659V229.34H307.021L311.457 243.968H311.829V229.324H314.326V245.644H309.471L305.035 230.984H304.663V245.644H302.166L302.182 245.659Z" fill="#091B1F"/>
<path d="M321.411 245.644V231.605H316.401V229.324H328.934V231.605H323.924V245.644H321.411Z" fill="#091B1F"/>
</svg>
