<svg width="420" height="420" viewBox="0 0 420 420" fill="none" xmlns="http://www.w3.org/2000/svg">
<rect width="420" height="420" rx="12" fill="#E7E0D0"/>
<g clip-path="url(#clip0_1274_2627)">
<path d="M71.4487 229.008L83.0629 208.483L88.61 218.282L94.6771 229.008H82.1576L76.7261 238.614H111.145L83.0629 189L55 238.614H66.0171L71.4487 229.008Z" fill="#091B1F"/>
<path d="M158.488 238.614H121.835L116.403 229.008H153.057L158.488 238.614Z" fill="#091B1F"/>
<path d="M147.181 218.61H110.528L105.097 209.004H141.75L147.181 218.61Z" fill="#091B1F"/>
<path d="M135.51 198.606H99.203L93.7715 189H130.078L135.51 198.606Z" fill="#091B1F"/>
<path d="M171.026 209.293V189H177.652C180.329 189 182.39 189.694 183.854 191.064C185.299 192.434 186.03 194.498 186.03 197.275V201.076C186.03 203.834 185.299 205.898 183.854 207.268C182.409 208.637 180.349 209.312 177.652 209.312H171.026V209.293ZM174.147 206.458H177.671C179.424 206.458 180.734 206.014 181.581 205.127C182.429 204.239 182.852 202.908 182.852 201.153V197.16C182.852 195.385 182.429 194.054 181.581 193.186C180.734 192.318 179.424 191.874 177.671 191.874H174.147V206.458Z" fill="#091B1F"/>
<path d="M189.17 209.293V189H201.94V191.836H192.309V197.661H201.131V200.497H192.309V206.438H202.094V209.274H189.189L189.17 209.293Z" fill="#091B1F"/>
<path d="M209.722 209.293L204.078 189H207.314L212.225 207.326H212.611L217.503 189H220.739L215.115 209.293H209.702H209.722Z" fill="#091B1F"/>
<path d="M223.3 209.293V189H226.42V209.293H223.3Z" fill="#091B1F"/>
<path d="M235.242 209.293V191.836H229.021V189H244.583V191.836H238.362V209.293H235.242Z" fill="#091B1F"/>
<path d="M243.852 209.293L249.649 189H255.138L260.897 209.293H257.681L256.352 204.509H248.416L247.087 209.293H243.852ZM249.206 201.616H255.581L252.634 190.948H252.172L249.225 201.616H249.206Z" fill="#091B1F"/>
<path d="M171.026 238.614V218.321H177.652C180.329 218.321 182.39 219.015 183.854 220.385C185.299 221.754 186.03 223.818 186.03 226.577V230.377C186.03 233.136 185.318 235.2 183.854 236.569C182.409 237.939 180.349 238.614 177.671 238.614H171.046H171.026ZM174.166 235.778H177.691C179.443 235.778 180.753 235.335 181.601 234.447C182.448 233.56 182.872 232.229 182.872 230.474V226.481C182.872 224.706 182.448 223.375 181.601 222.507C180.753 221.639 179.443 221.195 177.691 221.195H174.166V235.778Z" fill="#091B1F"/>
<path d="M189.189 238.614V218.321H201.94V221.156H192.31V226.982H201.131V229.818H192.31V235.759H202.094V238.595H189.189V238.614Z" fill="#091B1F"/>
<path d="M209.74 238.595L204.097 218.302H207.332L212.263 236.608H212.648L217.541 218.282H220.776L215.172 238.575H209.759L209.74 238.595Z" fill="#091B1F"/>
<path d="M223.3 238.595V218.302H236.05V221.137H226.42V226.963H235.241V229.799H226.42V235.74H236.205V238.576H223.3V238.595Z" fill="#091B1F"/>
<path d="M238.997 238.595V218.302H242.117V235.759H251.883V238.595H238.997Z" fill="#091B1F"/>
<path d="M261.821 239C259.337 239 257.353 238.305 255.889 236.897C254.425 235.489 253.693 233.483 253.693 230.821V226.075C253.693 223.433 254.425 221.407 255.889 219.999C257.353 218.591 259.337 217.896 261.821 217.896C264.306 217.896 266.29 218.591 267.773 219.999C269.256 221.407 269.988 223.433 269.988 226.075V230.821C269.988 233.464 269.256 235.489 267.773 236.897C266.29 238.305 264.306 239 261.821 239ZM261.821 236.184C263.42 236.184 264.653 235.721 265.519 234.775C266.386 233.83 266.829 232.557 266.829 230.937V225.96C266.829 224.339 266.386 223.066 265.519 222.121C264.653 221.176 263.42 220.713 261.821 220.713C260.223 220.713 259.029 221.176 258.143 222.121C257.257 223.066 256.814 224.339 256.814 225.96V230.937C256.814 232.557 257.257 233.849 258.143 234.775C259.029 235.721 260.261 236.184 261.821 236.184Z" fill="#091B1F"/>
<path d="M273.186 238.595V218.302H281.217C282.45 218.302 283.548 218.553 284.53 219.035C285.512 219.536 286.264 220.231 286.822 221.118C287.381 222.025 287.65 223.086 287.65 224.359V224.745C287.65 225.999 287.361 227.079 286.803 227.985C286.225 228.892 285.474 229.586 284.511 230.069C283.548 230.551 282.45 230.802 281.237 230.802H276.325V238.595H273.205H273.186ZM276.306 227.947H280.909C282.007 227.947 282.893 227.657 283.548 227.079C284.203 226.5 284.53 225.709 284.53 224.706V224.417C284.53 223.394 284.203 222.584 283.548 222.005C282.893 221.427 282.007 221.137 280.909 221.137H276.306V227.947Z" fill="#091B1F"/>
<path d="M290.289 238.575V218.282H296.164L300.594 236.492H301.056L305.486 218.282H311.36V238.575H308.317V220.481H307.855L303.463 238.575H298.205L293.795 220.501H293.332V238.595H290.289V238.575Z" fill="#091B1F"/>
<path d="M315.059 238.575V218.282H327.809V221.118H318.179V226.943H327V229.779H318.179V235.72H327.963V238.556H315.059V238.575Z" fill="#091B1F"/>
<path d="M330.756 238.576V218.282H336.765L342.273 236.473H342.736V218.263H345.837V238.556H339.808L334.3 220.327H333.837V238.556H330.736L330.756 238.576Z" fill="#091B1F"/>
<path d="M354.639 238.556V221.099H348.418V218.263H363.981V221.099H357.759V238.556H354.639Z" fill="#091B1F"/>
</g>
<defs>
<clipPath id="clip0_1274_2627">
<rect width="309" height="50" fill="white" transform="translate(55 189)"/>
</clipPath>
</defs>
</svg>
