<svg width="643" height="360" viewBox="0 0 643 360" fill="none" xmlns="http://www.w3.org/2000/svg">
<rect width="643" height="360" rx="12" fill="#E6E2DE"/>
<path d="M38.56 278L69.408 185.84H85.28L116.128 278H104.288L75.424 192.496H79.008L50.4 278H38.56ZM53.408 256.432V245.744H101.28V256.432H53.408ZM144.673 279.92C139.51 279.92 135.18 278.981 131.681 277.104C128.225 275.184 125.601 272.667 123.809 269.552C122.06 266.437 121.185 263.024 121.185 259.312C121.185 255.685 121.868 252.549 123.233 249.904C124.641 247.216 126.604 244.997 129.121 243.248C131.638 241.456 134.646 240.048 138.145 239.024C141.43 238.128 145.1 237.36 149.153 236.72C153.249 236.037 157.388 235.419 161.569 234.864C165.75 234.309 169.654 233.776 173.281 233.264L169.185 235.632C169.313 229.488 168.076 224.944 165.473 222C162.913 219.056 158.476 217.584 152.161 217.584C147.98 217.584 144.31 218.544 141.153 220.464C138.038 222.341 135.841 225.413 134.561 229.68L123.745 226.416C125.409 220.357 128.63 215.6 133.409 212.144C138.188 208.688 144.481 206.96 152.289 206.96C158.561 206.96 163.937 208.091 168.417 210.352C172.94 212.571 176.182 215.941 178.145 220.464C179.126 222.597 179.745 224.923 180.001 227.44C180.257 229.915 180.385 232.517 180.385 235.248V278H170.273V261.424L172.641 262.96C170.038 268.549 166.39 272.773 161.697 275.632C157.046 278.491 151.372 279.92 144.673 279.92ZM146.401 270.384C150.497 270.384 154.038 269.659 157.025 268.208C160.054 266.715 162.486 264.773 164.321 262.384C166.156 259.952 167.35 257.307 167.905 254.448C168.545 252.315 168.886 249.947 168.929 247.344C169.014 244.699 169.057 242.672 169.057 241.264L173.025 242.992C169.313 243.504 165.665 243.995 162.081 244.464C158.497 244.933 155.105 245.445 151.905 246C148.705 246.512 145.825 247.131 143.265 247.856C141.388 248.453 139.617 249.221 137.953 250.16C136.332 251.099 135.009 252.315 133.985 253.808C133.004 255.259 132.513 257.072 132.513 259.248C132.513 261.125 132.982 262.917 133.921 264.624C134.902 266.331 136.396 267.717 138.401 268.784C140.449 269.851 143.116 270.384 146.401 270.384Z" fill="#1A1A1A"/>
<path d="M50.31 332L50.32 325.09C50.32 324.283 50.1033 323.653 49.67 323.2C49.2433 322.74 48.6867 322.51 48 322.51C47.6 322.51 47.22 322.603 46.86 322.79C46.5 322.97 46.2067 323.257 45.98 323.65C45.7533 324.037 45.64 324.533 45.64 325.14L44.7 324.76C44.6867 323.993 44.8433 323.323 45.17 322.75C45.5033 322.17 45.9567 321.72 46.53 321.4C47.1033 321.08 47.75 320.92 48.47 320.92C49.5967 320.92 50.4833 321.263 51.13 321.95C51.7767 322.63 52.1 323.547 52.1 324.7L52.09 332H50.31ZM37.39 332V321.2H38.98V324.09H39.18V332H37.39ZM43.86 332L43.87 325.16C43.87 324.333 43.6567 323.687 43.23 323.22C42.8033 322.747 42.2367 322.51 41.53 322.51C40.83 322.51 40.2633 322.75 39.83 323.23C39.3967 323.71 39.18 324.347 39.18 325.14L38.24 324.58C38.24 323.88 38.4067 323.253 38.74 322.7C39.0733 322.147 39.5267 321.713 40.1 321.4C40.6733 321.08 41.3233 320.92 42.05 320.92C42.7767 320.92 43.41 321.073 43.95 321.38C44.49 321.687 44.9067 322.127 45.2 322.7C45.4933 323.267 45.64 323.943 45.64 324.73L45.63 332H43.86ZM57.3747 332.3C56.568 332.3 55.8914 332.153 55.3447 331.86C54.8047 331.56 54.3947 331.167 54.1147 330.68C53.8414 330.193 53.7047 329.66 53.7047 329.08C53.7047 328.513 53.8114 328.023 54.0247 327.61C54.2447 327.19 54.5514 326.843 54.9447 326.57C55.338 326.29 55.808 326.07 56.3547 325.91C56.868 325.77 57.4414 325.65 58.0747 325.55C58.7147 325.443 59.3614 325.347 60.0147 325.26C60.668 325.173 61.278 325.09 61.8447 325.01L61.2047 325.38C61.2247 324.42 61.0314 323.71 60.6247 323.25C60.2247 322.79 59.5314 322.56 58.5447 322.56C57.8914 322.56 57.318 322.71 56.8247 323.01C56.338 323.303 55.9947 323.783 55.7947 324.45L54.1047 323.94C54.3647 322.993 54.868 322.25 55.6147 321.71C56.3614 321.17 57.3447 320.9 58.5647 320.9C59.5447 320.9 60.3847 321.077 61.0847 321.43C61.7914 321.777 62.298 322.303 62.6047 323.01C62.758 323.343 62.8547 323.707 62.8947 324.1C62.9347 324.487 62.9547 324.893 62.9547 325.32V332H61.3747V329.41L61.7447 329.65C61.338 330.523 60.768 331.183 60.0347 331.63C59.308 332.077 58.4214 332.3 57.3747 332.3ZM57.6447 330.81C58.2847 330.81 58.838 330.697 59.3047 330.47C59.778 330.237 60.158 329.933 60.4447 329.56C60.7314 329.18 60.918 328.767 61.0047 328.32C61.1047 327.987 61.158 327.617 61.1647 327.21C61.178 326.797 61.1847 326.48 61.1847 326.26L61.8047 326.53C61.2247 326.61 60.6547 326.687 60.0947 326.76C59.5347 326.833 59.0047 326.913 58.5047 327C58.0047 327.08 57.5547 327.177 57.1547 327.29C56.8614 327.383 56.5847 327.503 56.3247 327.65C56.0714 327.797 55.8647 327.987 55.7047 328.22C55.5514 328.447 55.4747 328.73 55.4747 329.07C55.4747 329.363 55.548 329.643 55.6947 329.91C55.848 330.177 56.0814 330.393 56.3947 330.56C56.7147 330.727 57.1314 330.81 57.6447 330.81ZM72.8447 332V326.59C72.8447 326.077 72.798 325.583 72.7047 325.11C72.618 324.637 72.4614 324.213 72.2347 323.84C72.0147 323.46 71.7147 323.16 71.3347 322.94C70.9614 322.72 70.488 322.61 69.9147 322.61C69.468 322.61 69.0614 322.687 68.6947 322.84C68.3347 322.987 68.0247 323.213 67.7647 323.52C67.5047 323.827 67.3014 324.213 67.1547 324.68C67.0147 325.14 66.9447 325.683 66.9447 326.31L65.7747 325.95C65.7747 324.903 65.9614 324.007 66.3347 323.26C66.7147 322.507 67.2447 321.93 67.9247 321.53C68.6114 321.123 69.418 320.92 70.3447 320.92C71.0447 320.92 71.6414 321.03 72.1347 321.25C72.628 321.47 73.038 321.763 73.3647 322.13C73.6914 322.49 73.948 322.897 74.1347 323.35C74.3214 323.797 74.4514 324.253 74.5247 324.72C74.6047 325.18 74.6447 325.617 74.6447 326.03V332H72.8447ZM65.1447 332V321.2H66.7447V324.09H66.9447V332H65.1447ZM76.8445 332V321.2H78.4345V323.81L78.1745 323.47C78.3012 323.137 78.4645 322.83 78.6645 322.55C78.8712 322.27 79.1012 322.04 79.3545 321.86C79.6345 321.633 79.9512 321.46 80.3045 321.34C80.6579 321.22 81.0179 321.15 81.3845 321.13C81.7512 321.103 82.0945 321.127 82.4145 321.2V322.87C82.0412 322.77 81.6312 322.743 81.1845 322.79C80.7379 322.837 80.3245 323 79.9445 323.28C79.5979 323.527 79.3279 323.827 79.1345 324.18C78.9479 324.533 78.8179 324.917 78.7445 325.33C78.6712 325.737 78.6345 326.153 78.6345 326.58V332H76.8445ZM88.3102 332.3C87.2368 332.3 86.3102 332.057 85.5302 331.57C84.7568 331.083 84.1602 330.41 83.7402 329.55C83.3202 328.69 83.1102 327.703 83.1102 326.59C83.1102 325.457 83.3235 324.463 83.7502 323.61C84.1768 322.757 84.7802 322.093 85.5602 321.62C86.3402 321.14 87.2568 320.9 88.3102 320.9C89.3902 320.9 90.3202 321.143 91.1002 321.63C91.8802 322.11 92.4768 322.78 92.8902 323.64C93.3102 324.493 93.5202 325.477 93.5202 326.59C93.5202 327.717 93.3102 328.71 92.8902 329.57C92.4702 330.423 91.8702 331.093 91.0902 331.58C90.3102 332.06 89.3835 332.3 88.3102 332.3ZM88.3102 330.61C89.4302 330.61 90.2635 330.237 90.8102 329.49C91.3568 328.743 91.6302 327.777 91.6302 326.59C91.6302 325.37 91.3535 324.4 90.8002 323.68C90.2468 322.953 89.4168 322.59 88.3102 322.59C87.5568 322.59 86.9368 322.76 86.4502 323.1C85.9635 323.44 85.6002 323.91 85.3602 324.51C85.1202 325.11 85.0002 325.803 85.0002 326.59C85.0002 327.803 85.2802 328.777 85.8402 329.51C86.4002 330.243 87.2235 330.61 88.3102 330.61ZM100.282 332.3C99.2685 332.3 98.4152 332.05 97.7219 331.55C97.0285 331.043 96.5019 330.36 96.1419 329.5C95.7885 328.633 95.6119 327.663 95.6119 326.59C95.6119 325.503 95.7885 324.53 96.1419 323.67C96.5019 322.81 97.0285 322.133 97.7219 321.64C98.4219 321.147 99.2785 320.9 100.292 320.9C101.292 320.9 102.152 321.15 102.872 321.65C103.599 322.143 104.155 322.82 104.542 323.68C104.929 324.54 105.122 325.51 105.122 326.59C105.122 327.67 104.929 328.64 104.542 329.5C104.155 330.36 103.599 331.043 102.872 331.55C102.152 332.05 101.289 332.3 100.282 332.3ZM95.3119 336.8V321.2H96.9019V329.15H97.1019V336.8H95.3119ZM100.062 330.67C100.775 330.67 101.365 330.49 101.832 330.13C102.299 329.77 102.649 329.283 102.882 328.67C103.115 328.05 103.232 327.357 103.232 326.59C103.232 325.83 103.115 325.143 102.882 324.53C102.655 323.917 102.302 323.43 101.822 323.07C101.349 322.71 100.745 322.53 100.012 322.53C99.3119 322.53 98.7319 322.703 98.2719 323.05C97.8119 323.39 97.4685 323.867 97.2419 324.48C97.0152 325.087 96.9019 325.79 96.9019 326.59C96.9019 327.377 97.0119 328.08 97.2319 328.7C97.4585 329.313 97.8052 329.797 98.2719 330.15C98.7385 330.497 99.3352 330.67 100.062 330.67ZM111.594 332.3C110.534 332.3 109.607 332.067 108.814 331.6C108.027 331.127 107.414 330.47 106.974 329.63C106.534 328.783 106.314 327.797 106.314 326.67C106.314 325.49 106.531 324.47 106.964 323.61C107.397 322.743 108.001 322.077 108.774 321.61C109.554 321.137 110.467 320.9 111.514 320.9C112.601 320.9 113.524 321.15 114.284 321.65C115.051 322.15 115.624 322.863 116.004 323.79C116.391 324.717 116.557 325.82 116.504 327.1H114.704V326.46C114.684 325.133 114.414 324.143 113.894 323.49C113.374 322.83 112.601 322.5 111.574 322.5C110.474 322.5 109.637 322.853 109.064 323.56C108.491 324.267 108.204 325.28 108.204 326.6C108.204 327.873 108.491 328.86 109.064 329.56C109.637 330.26 110.454 330.61 111.514 330.61C112.227 330.61 112.847 330.447 113.374 330.12C113.901 329.793 114.314 329.323 114.614 328.71L116.324 329.3C115.904 330.253 115.271 330.993 114.424 331.52C113.584 332.04 112.641 332.3 111.594 332.3ZM107.604 327.1V325.67H115.584V327.1H107.604ZM121.934 332V321.2H123.524V323.81L123.264 323.47C123.391 323.137 123.554 322.83 123.754 322.55C123.961 322.27 124.191 322.04 124.444 321.86C124.724 321.633 125.041 321.46 125.394 321.34C125.748 321.22 126.108 321.15 126.474 321.13C126.841 321.103 127.184 321.127 127.504 321.2V322.87C127.131 322.77 126.721 322.743 126.274 322.79C125.828 322.837 125.414 323 125.034 323.28C124.688 323.527 124.418 323.827 124.224 324.18C124.038 324.533 123.908 324.917 123.834 325.33C123.761 325.737 123.724 326.153 123.724 326.58V332H121.934ZM133.48 332.3C132.42 332.3 131.493 332.067 130.7 331.6C129.913 331.127 129.3 330.47 128.86 329.63C128.42 328.783 128.2 327.797 128.2 326.67C128.2 325.49 128.417 324.47 128.85 323.61C129.283 322.743 129.887 322.077 130.66 321.61C131.44 321.137 132.353 320.9 133.4 320.9C134.487 320.9 135.41 321.15 136.17 321.65C136.937 322.15 137.51 322.863 137.89 323.79C138.277 324.717 138.443 325.82 138.39 327.1H136.59V326.46C136.57 325.133 136.3 324.143 135.78 323.49C135.26 322.83 134.487 322.5 133.46 322.5C132.36 322.5 131.523 322.853 130.95 323.56C130.377 324.267 130.09 325.28 130.09 326.6C130.09 327.873 130.377 328.86 130.95 329.56C131.523 330.26 132.34 330.61 133.4 330.61C134.113 330.61 134.733 330.447 135.26 330.12C135.787 329.793 136.2 329.323 136.5 328.71L138.21 329.3C137.79 330.253 137.157 330.993 136.31 331.52C135.47 332.04 134.527 332.3 133.48 332.3ZM129.49 327.1V325.67H137.47V327.1H129.49ZM144.586 337.1C144.02 337.1 143.466 337.013 142.926 336.84C142.386 336.667 141.89 336.403 141.436 336.05C140.99 335.703 140.616 335.263 140.316 334.73L141.946 333.87C142.213 334.397 142.59 334.78 143.076 335.02C143.57 335.26 144.076 335.38 144.596 335.38C145.283 335.38 145.853 335.253 146.306 335C146.76 334.753 147.093 334.383 147.306 333.89C147.526 333.397 147.633 332.783 147.626 332.05V329.1H147.836V321.2H149.416V332.07C149.416 332.363 149.406 332.647 149.386 332.92C149.373 333.193 149.34 333.463 149.286 333.73C149.146 334.497 148.87 335.127 148.456 335.62C148.043 336.12 147.51 336.49 146.856 336.73C146.203 336.977 145.446 337.1 144.586 337.1ZM144.456 332.3C143.45 332.3 142.586 332.05 141.866 331.55C141.146 331.043 140.59 330.36 140.196 329.5C139.81 328.64 139.616 327.67 139.616 326.59C139.616 325.51 139.81 324.54 140.196 323.68C140.59 322.82 141.146 322.143 141.866 321.65C142.586 321.15 143.446 320.9 144.446 320.9C145.466 320.9 146.323 321.147 147.016 321.64C147.71 322.133 148.233 322.81 148.586 323.67C148.946 324.53 149.126 325.503 149.126 326.59C149.126 327.663 148.946 328.633 148.586 329.5C148.233 330.36 147.71 331.043 147.016 331.55C146.323 332.05 145.47 332.3 144.456 332.3ZM144.676 330.67C145.403 330.67 146 330.497 146.466 330.15C146.933 329.797 147.276 329.313 147.496 328.7C147.723 328.08 147.836 327.377 147.836 326.59C147.836 325.79 147.723 325.087 147.496 324.48C147.276 323.867 146.936 323.39 146.476 323.05C146.016 322.703 145.433 322.53 144.726 322.53C143.993 322.53 143.386 322.71 142.906 323.07C142.433 323.43 142.08 323.917 141.846 324.53C141.62 325.143 141.506 325.83 141.506 326.59C141.506 327.357 141.623 328.05 141.856 328.67C142.09 329.283 142.44 329.77 142.906 330.13C143.38 330.49 143.97 330.67 144.676 330.67ZM155.909 332.28C155.215 332.28 154.619 332.17 154.119 331.95C153.625 331.73 153.215 331.437 152.889 331.07C152.562 330.703 152.305 330.297 152.119 329.85C151.932 329.403 151.799 328.947 151.719 328.48C151.645 328.013 151.609 327.577 151.609 327.17V321.2H153.409V326.61C153.409 327.117 153.455 327.607 153.549 328.08C153.642 328.553 153.799 328.98 154.019 329.36C154.245 329.74 154.545 330.04 154.919 330.26C155.299 330.48 155.772 330.59 156.339 330.59C156.785 330.59 157.192 330.513 157.559 330.36C157.925 330.207 158.239 329.98 158.499 329.68C158.759 329.373 158.959 328.987 159.099 328.52C159.239 328.053 159.309 327.51 159.309 326.89L160.479 327.25C160.479 328.29 160.289 329.187 159.909 329.94C159.535 330.693 159.005 331.273 158.319 331.68C157.639 332.08 156.835 332.28 155.909 332.28ZM159.509 332V329.11H159.309V321.2H161.099V332H159.509ZM163.698 332V317.3H165.478V332H163.698ZM171.149 332.3C170.342 332.3 169.666 332.153 169.119 331.86C168.579 331.56 168.169 331.167 167.889 330.68C167.616 330.193 167.479 329.66 167.479 329.08C167.479 328.513 167.586 328.023 167.799 327.61C168.019 327.19 168.326 326.843 168.719 326.57C169.112 326.29 169.582 326.07 170.129 325.91C170.642 325.77 171.216 325.65 171.849 325.55C172.489 325.443 173.136 325.347 173.789 325.26C174.442 325.173 175.052 325.09 175.619 325.01L174.979 325.38C174.999 324.42 174.806 323.71 174.399 323.25C173.999 322.79 173.306 322.56 172.319 322.56C171.666 322.56 171.092 322.71 170.599 323.01C170.112 323.303 169.769 323.783 169.569 324.45L167.879 323.94C168.139 322.993 168.642 322.25 169.389 321.71C170.136 321.17 171.119 320.9 172.339 320.9C173.319 320.9 174.159 321.077 174.859 321.43C175.566 321.777 176.072 322.303 176.379 323.01C176.532 323.343 176.629 323.707 176.669 324.1C176.709 324.487 176.729 324.893 176.729 325.32V332H175.149V329.41L175.519 329.65C175.112 330.523 174.542 331.183 173.809 331.63C173.082 332.077 172.196 332.3 171.149 332.3ZM171.419 330.81C172.059 330.81 172.612 330.697 173.079 330.47C173.552 330.237 173.932 329.933 174.219 329.56C174.506 329.18 174.692 328.767 174.779 328.32C174.879 327.987 174.932 327.617 174.939 327.21C174.952 326.797 174.959 326.48 174.959 326.26L175.579 326.53C174.999 326.61 174.429 326.687 173.869 326.76C173.309 326.833 172.779 326.913 172.279 327C171.779 327.08 171.329 327.177 170.929 327.29C170.636 327.383 170.359 327.503 170.099 327.65C169.846 327.797 169.639 327.987 169.479 328.22C169.326 328.447 169.249 328.73 169.249 329.07C169.249 329.363 169.322 329.643 169.469 329.91C169.622 330.177 169.856 330.393 170.169 330.56C170.489 330.727 170.906 330.81 171.419 330.81ZM178.929 332V321.2H180.519V323.81L180.259 323.47C180.386 323.137 180.549 322.83 180.749 322.55C180.956 322.27 181.186 322.04 181.439 321.86C181.719 321.633 182.036 321.46 182.389 321.34C182.742 321.22 183.102 321.15 183.469 321.13C183.836 321.103 184.179 321.127 184.499 321.2V322.87C184.126 322.77 183.716 322.743 183.269 322.79C182.822 322.837 182.409 323 182.029 323.28C181.682 323.527 181.412 323.827 181.219 324.18C181.032 324.533 180.902 324.917 180.829 325.33C180.756 325.737 180.719 326.153 180.719 326.58V332H178.929Z" fill="#1A1A1A"/>
<rect x="198.5" y="320" width="10" height="1.5" rx="0.75" transform="rotate(90 198.5 320)" fill="#1A1A1A"/>
<path d="M224.81 332L224.82 325.09C224.82 324.283 224.603 323.653 224.17 323.2C223.743 322.74 223.187 322.51 222.5 322.51C222.1 322.51 221.72 322.603 221.36 322.79C221 322.97 220.707 323.257 220.48 323.65C220.253 324.037 220.14 324.533 220.14 325.14L219.2 324.76C219.187 323.993 219.343 323.323 219.67 322.75C220.003 322.17 220.457 321.72 221.03 321.4C221.603 321.08 222.25 320.92 222.97 320.92C224.097 320.92 224.983 321.263 225.63 321.95C226.277 322.63 226.6 323.547 226.6 324.7L226.59 332H224.81ZM211.89 332V321.2H213.48V324.09H213.68V332H211.89ZM218.36 332L218.37 325.16C218.37 324.333 218.157 323.687 217.73 323.22C217.303 322.747 216.737 322.51 216.03 322.51C215.33 322.51 214.763 322.75 214.33 323.23C213.897 323.71 213.68 324.347 213.68 325.14L212.74 324.58C212.74 323.88 212.907 323.253 213.24 322.7C213.573 322.147 214.027 321.713 214.6 321.4C215.173 321.08 215.823 320.92 216.55 320.92C217.277 320.92 217.91 321.073 218.45 321.38C218.99 321.687 219.407 322.127 219.7 322.7C219.993 323.267 220.14 323.943 220.14 324.73L220.13 332H218.36ZM233.387 332.3C232.327 332.3 231.4 332.067 230.607 331.6C229.82 331.127 229.207 330.47 228.767 329.63C228.327 328.783 228.107 327.797 228.107 326.67C228.107 325.49 228.324 324.47 228.757 323.61C229.19 322.743 229.794 322.077 230.567 321.61C231.347 321.137 232.26 320.9 233.307 320.9C234.394 320.9 235.317 321.15 236.077 321.65C236.844 322.15 237.417 322.863 237.797 323.79C238.184 324.717 238.35 325.82 238.297 327.1H236.497V326.46C236.477 325.133 236.207 324.143 235.687 323.49C235.167 322.83 234.394 322.5 233.367 322.5C232.267 322.5 231.43 322.853 230.857 323.56C230.284 324.267 229.997 325.28 229.997 326.6C229.997 327.873 230.284 328.86 230.857 329.56C231.43 330.26 232.247 330.61 233.307 330.61C234.02 330.61 234.64 330.447 235.167 330.12C235.694 329.793 236.107 329.323 236.407 328.71L238.117 329.3C237.697 330.253 237.064 330.993 236.217 331.52C235.377 332.04 234.434 332.3 233.387 332.3ZM229.397 327.1V325.67H237.377V327.1H229.397ZM244.363 332.3C243.357 332.3 242.493 332.05 241.773 331.55C241.053 331.043 240.497 330.36 240.103 329.5C239.717 328.64 239.523 327.67 239.523 326.59C239.523 325.51 239.717 324.54 240.103 323.68C240.497 322.82 241.053 322.143 241.773 321.65C242.493 321.15 243.353 320.9 244.353 320.9C245.373 320.9 246.23 321.147 246.923 321.64C247.617 322.133 248.14 322.81 248.493 323.67C248.853 324.53 249.033 325.503 249.033 326.59C249.033 327.663 248.853 328.633 248.493 329.5C248.14 330.36 247.617 331.043 246.923 331.55C246.23 332.05 245.377 332.3 244.363 332.3ZM244.583 330.67C245.31 330.67 245.907 330.497 246.373 330.15C246.84 329.797 247.183 329.313 247.403 328.7C247.63 328.08 247.743 327.377 247.743 326.59C247.743 325.79 247.63 325.087 247.403 324.48C247.183 323.867 246.843 323.39 246.383 323.05C245.923 322.703 245.34 322.53 244.633 322.53C243.9 322.53 243.293 322.71 242.813 323.07C242.34 323.43 241.987 323.917 241.753 324.53C241.527 325.143 241.413 325.83 241.413 326.59C241.413 327.357 241.53 328.05 241.763 328.67C241.997 329.283 242.347 329.77 242.813 330.13C243.287 330.49 243.877 330.67 244.583 330.67ZM247.743 332V324.05H247.543V317.6H249.333V332H247.743ZM251.935 319.29V317.45H253.715V319.29H251.935ZM251.935 332V321.2H253.715V332H251.935ZM260.416 332.28C259.722 332.28 259.126 332.17 258.626 331.95C258.132 331.73 257.722 331.437 257.396 331.07C257.069 330.703 256.812 330.297 256.626 329.85C256.439 329.403 256.306 328.947 256.226 328.48C256.152 328.013 256.116 327.577 256.116 327.17V321.2H257.916V326.61C257.916 327.117 257.962 327.607 258.056 328.08C258.149 328.553 258.306 328.98 258.526 329.36C258.752 329.74 259.052 330.04 259.426 330.26C259.806 330.48 260.279 330.59 260.846 330.59C261.292 330.59 261.699 330.513 262.066 330.36C262.432 330.207 262.746 329.98 263.006 329.68C263.266 329.373 263.466 328.987 263.606 328.52C263.746 328.053 263.816 327.51 263.816 326.89L264.986 327.25C264.986 328.29 264.796 329.187 264.416 329.94C264.042 330.693 263.512 331.273 262.826 331.68C262.146 332.08 261.342 332.28 260.416 332.28ZM264.016 332V329.11H263.816V321.2H265.606V332H264.016ZM280.915 332L280.925 325.09C280.925 324.283 280.709 323.653 280.275 323.2C279.849 322.74 279.292 322.51 278.605 322.51C278.205 322.51 277.825 322.603 277.465 322.79C277.105 322.97 276.812 323.257 276.585 323.65C276.359 324.037 276.245 324.533 276.245 325.14L275.305 324.76C275.292 323.993 275.449 323.323 275.775 322.75C276.109 322.17 276.562 321.72 277.135 321.4C277.709 321.08 278.355 320.92 279.075 320.92C280.202 320.92 281.089 321.263 281.735 321.95C282.382 322.63 282.705 323.547 282.705 324.7L282.695 332H280.915ZM267.995 332V321.2H269.585V324.09H269.785V332H267.995ZM274.465 332L274.475 325.16C274.475 324.333 274.262 323.687 273.835 323.22C273.409 322.747 272.842 322.51 272.135 322.51C271.435 322.51 270.869 322.75 270.435 323.23C270.002 323.71 269.785 324.347 269.785 325.14L268.845 324.58C268.845 323.88 269.012 323.253 269.345 322.7C269.679 322.147 270.132 321.713 270.705 321.4C271.279 321.08 271.929 320.92 272.655 320.92C273.382 320.92 274.015 321.073 274.555 321.38C275.095 321.687 275.512 322.127 275.805 322.7C276.099 323.267 276.245 323.943 276.245 324.73L276.235 332H274.465Z" fill="#1A1A1A"/>
<rect x="298" y="320" width="10" height="1.5" rx="0.75" transform="rotate(90 298 320)" fill="#1A1A1A"/>
<path d="M315.53 332.29C314.217 332.29 313.147 332 312.32 331.42C311.493 330.84 310.987 330.023 310.8 328.97L312.94 328.64C313.073 329.2 313.38 329.643 313.86 329.97C314.347 330.29 314.95 330.45 315.67 330.45C316.323 330.45 316.833 330.317 317.2 330.05C317.573 329.783 317.76 329.417 317.76 328.95C317.76 328.677 317.693 328.457 317.56 328.29C317.433 328.117 317.163 327.953 316.75 327.8C316.337 327.647 315.707 327.457 314.86 327.23C313.933 326.99 313.197 326.733 312.65 326.46C312.11 326.18 311.723 325.857 311.49 325.49C311.263 325.117 311.15 324.667 311.15 324.14C311.15 323.487 311.323 322.917 311.67 322.43C312.017 321.943 312.503 321.567 313.13 321.3C313.763 321.033 314.503 320.9 315.35 320.9C316.177 320.9 316.913 321.03 317.56 321.29C318.207 321.55 318.73 321.92 319.13 322.4C319.53 322.873 319.77 323.43 319.85 324.07L317.71 324.46C317.637 323.94 317.393 323.53 316.98 323.23C316.567 322.93 316.03 322.767 315.37 322.74C314.737 322.713 314.223 322.82 313.83 323.06C313.437 323.293 313.24 323.617 313.24 324.03C313.24 324.27 313.313 324.473 313.46 324.64C313.613 324.807 313.907 324.967 314.34 325.12C314.773 325.273 315.413 325.457 316.26 325.67C317.167 325.903 317.887 326.163 318.42 326.45C318.953 326.73 319.333 327.067 319.56 327.46C319.793 327.847 319.91 328.317 319.91 328.87C319.91 329.937 319.52 330.773 318.74 331.38C317.967 331.987 316.897 332.29 315.53 332.29ZM326.513 332.3C325.439 332.3 324.496 332.067 323.683 331.6C322.876 331.127 322.246 330.47 321.793 329.63C321.346 328.783 321.123 327.803 321.123 326.69C321.123 325.51 321.343 324.487 321.783 323.62C322.229 322.753 322.849 322.083 323.643 321.61C324.436 321.137 325.359 320.9 326.413 320.9C327.513 320.9 328.449 321.157 329.223 321.67C329.996 322.177 330.573 322.9 330.953 323.84C331.339 324.78 331.493 325.897 331.413 327.19H329.323V326.43C329.309 325.177 329.069 324.25 328.603 323.65C328.143 323.05 327.439 322.75 326.493 322.75C325.446 322.75 324.659 323.08 324.133 323.74C323.606 324.4 323.343 325.353 323.343 326.6C323.343 327.787 323.606 328.707 324.133 329.36C324.659 330.007 325.419 330.33 326.413 330.33C327.066 330.33 327.629 330.183 328.103 329.89C328.583 329.59 328.956 329.163 329.223 328.61L331.273 329.26C330.853 330.227 330.216 330.977 329.363 331.51C328.509 332.037 327.559 332.3 326.513 332.3ZM322.663 327.19V325.56H330.373V327.19H322.663ZM345.903 332L345.913 325.27C345.913 324.49 345.713 323.883 345.313 323.45C344.913 323.01 344.387 322.79 343.733 322.79C343.333 322.79 342.967 322.883 342.633 323.07C342.307 323.25 342.04 323.523 341.833 323.89C341.633 324.25 341.533 324.703 341.533 325.25L340.523 324.74C340.51 323.98 340.67 323.313 341.003 322.74C341.343 322.167 341.803 321.723 342.383 321.41C342.963 321.09 343.613 320.93 344.333 320.93C345.5 320.93 346.403 321.28 347.043 321.98C347.683 322.68 348.003 323.61 348.003 324.77L347.993 332H345.903ZM332.953 332V321.2H334.813V324.32H335.053V332H332.953ZM339.433 332L339.443 325.31C339.443 324.523 339.243 323.907 338.843 323.46C338.45 323.013 337.92 322.79 337.253 322.79C336.593 322.79 336.06 323.017 335.653 323.47C335.253 323.923 335.053 324.517 335.053 325.25L334.053 324.61C334.053 323.903 334.223 323.273 334.563 322.72C334.903 322.167 335.363 321.73 335.943 321.41C336.523 321.09 337.18 320.93 337.913 320.93C338.68 320.93 339.333 321.093 339.873 321.42C340.413 321.74 340.823 322.19 341.103 322.77C341.39 323.35 341.533 324.023 341.533 324.79L341.523 332H339.433ZM350.4 319.43V317.4H352.49V319.43H350.4ZM350.4 332V321.2H352.49V332H350.4ZM360.163 332.3C359.13 332.3 358.263 332.05 357.563 331.55C356.863 331.043 356.333 330.36 355.973 329.5C355.613 328.64 355.433 327.67 355.433 326.59C355.433 325.51 355.61 324.54 355.963 323.68C356.323 322.82 356.85 322.143 357.543 321.65C358.243 321.15 359.103 320.9 360.123 320.9C361.136 320.9 362.01 321.15 362.743 321.65C363.483 322.143 364.053 322.82 364.453 323.68C364.853 324.533 365.053 325.503 365.053 326.59C365.053 327.67 364.853 328.643 364.453 329.51C364.06 330.37 363.496 331.05 362.763 331.55C362.036 332.05 361.17 332.3 360.163 332.3ZM355.083 332V317.6H357.183V324.23H356.943V332H355.083ZM359.873 330.41C360.54 330.41 361.09 330.24 361.523 329.9C361.963 329.56 362.29 329.103 362.503 328.53C362.723 327.95 362.833 327.303 362.833 326.59C362.833 325.883 362.723 325.243 362.503 324.67C362.29 324.097 361.96 323.64 361.513 323.3C361.066 322.96 360.496 322.79 359.803 322.79C359.15 322.79 358.61 322.95 358.183 323.27C357.763 323.59 357.45 324.037 357.243 324.61C357.043 325.183 356.943 325.843 356.943 326.59C356.943 327.337 357.043 327.997 357.243 328.57C357.443 329.143 357.76 329.593 358.193 329.92C358.626 330.247 359.186 330.41 359.873 330.41ZM371.551 332.3C370.471 332.3 369.534 332.057 368.741 331.57C367.948 331.083 367.334 330.413 366.901 329.56C366.474 328.7 366.261 327.71 366.261 326.59C366.261 325.463 366.481 324.473 366.921 323.62C367.361 322.76 367.978 322.093 368.771 321.62C369.564 321.14 370.491 320.9 371.551 320.9C372.631 320.9 373.568 321.143 374.361 321.63C375.154 322.117 375.768 322.787 376.201 323.64C376.634 324.493 376.851 325.477 376.851 326.59C376.851 327.717 376.631 328.71 376.191 329.57C375.758 330.423 375.144 331.093 374.351 331.58C373.558 332.06 372.624 332.3 371.551 332.3ZM371.551 330.33C372.584 330.33 373.354 329.983 373.861 329.29C374.374 328.59 374.631 327.69 374.631 326.59C374.631 325.463 374.371 324.563 373.851 323.89C373.338 323.21 372.571 322.87 371.551 322.87C370.851 322.87 370.274 323.03 369.821 323.35C369.368 323.663 369.031 324.1 368.811 324.66C368.591 325.213 368.481 325.857 368.481 326.59C368.481 327.723 368.741 328.63 369.261 329.31C369.781 329.99 370.544 330.33 371.551 330.33ZM378.848 332V317.3H380.938V332H378.848ZM387.831 332.3C386.825 332.3 385.955 332.05 385.221 331.55C384.495 331.05 383.931 330.37 383.531 329.51C383.138 328.643 382.941 327.67 382.941 326.59C382.941 325.503 383.141 324.533 383.541 323.68C383.941 322.82 384.508 322.143 385.241 321.65C385.981 321.15 386.858 320.9 387.871 320.9C388.891 320.9 389.748 321.15 390.441 321.65C391.141 322.143 391.668 322.82 392.021 323.68C392.381 324.54 392.561 325.51 392.561 326.59C392.561 327.67 392.381 328.64 392.021 329.5C391.661 330.36 391.131 331.043 390.431 331.55C389.731 332.05 388.865 332.3 387.831 332.3ZM388.121 330.41C388.808 330.41 389.368 330.247 389.801 329.92C390.235 329.593 390.551 329.143 390.751 328.57C390.951 327.997 391.051 327.337 391.051 326.59C391.051 325.843 390.948 325.183 390.741 324.61C390.541 324.037 390.228 323.59 389.801 323.27C389.381 322.95 388.845 322.79 388.191 322.79C387.498 322.79 386.928 322.96 386.481 323.3C386.035 323.64 385.701 324.097 385.481 324.67C385.268 325.243 385.161 325.883 385.161 326.59C385.161 327.303 385.268 327.95 385.481 328.53C385.701 329.103 386.028 329.56 386.461 329.9C386.901 330.24 387.455 330.41 388.121 330.41ZM391.051 332V324.23H390.811V317.6H392.911V332H391.051Z" fill="#1A1A1A"/>
<rect x="408.5" y="320" width="10" height="1.5" rx="0.75" transform="rotate(90 408.5 320)" fill="#1A1A1A"/>
<path d="M427.09 332.3C426.037 332.3 425.153 332.05 424.44 331.55C423.727 331.05 423.19 330.37 422.83 329.51C422.47 328.643 422.29 327.673 422.29 326.6C422.29 325.513 422.47 324.54 422.83 323.68C423.19 322.82 423.717 322.143 424.41 321.65C425.11 321.15 425.973 320.9 427 320.9C428.02 320.9 428.903 321.15 429.65 321.65C430.403 322.143 430.987 322.82 431.4 323.68C431.813 324.533 432.02 325.507 432.02 326.6C432.02 327.68 431.817 328.65 431.41 329.51C431.003 330.37 430.43 331.05 429.69 331.55C428.95 332.05 428.083 332.3 427.09 332.3ZM421.88 332V317.6H424.31V324.42H424.01V332H421.88ZM426.72 330.14C427.347 330.14 427.863 329.983 428.27 329.67C428.677 329.357 428.977 328.933 429.17 328.4C429.37 327.86 429.47 327.26 429.47 326.6C429.47 325.947 429.37 325.353 429.17 324.82C428.97 324.28 428.66 323.853 428.24 323.54C427.82 323.22 427.287 323.06 426.64 323.06C426.027 323.06 425.527 323.21 425.14 323.51C424.753 323.803 424.467 324.217 424.28 324.75C424.1 325.277 424.01 325.893 424.01 326.6C424.01 327.3 424.1 327.917 424.28 328.45C424.467 328.983 424.757 329.4 425.15 329.7C425.55 329.993 426.073 330.14 426.72 330.14ZM438.594 332.3C437.514 332.3 436.571 332.057 435.764 331.57C434.958 331.083 434.331 330.413 433.884 329.56C433.444 328.7 433.224 327.713 433.224 326.6C433.224 325.467 433.451 324.473 433.904 323.62C434.358 322.767 434.988 322.1 435.794 321.62C436.601 321.14 437.534 320.9 438.594 320.9C439.681 320.9 440.628 321.143 441.434 321.63C442.241 322.117 442.868 322.79 443.314 323.65C443.761 324.503 443.984 325.487 443.984 326.6C443.984 327.72 443.758 328.71 443.304 329.57C442.858 330.423 442.231 331.093 441.424 331.58C440.618 332.06 439.674 332.3 438.594 332.3ZM438.594 330.04C439.554 330.04 440.268 329.72 440.734 329.08C441.201 328.44 441.434 327.613 441.434 326.6C441.434 325.553 441.198 324.72 440.724 324.1C440.251 323.473 439.541 323.16 438.594 323.16C437.948 323.16 437.414 323.307 436.994 323.6C436.581 323.887 436.274 324.29 436.074 324.81C435.874 325.323 435.774 325.92 435.774 326.6C435.774 327.647 436.011 328.483 436.484 329.11C436.964 329.73 437.668 330.04 438.594 330.04ZM445.988 332V317.3H448.398V332H445.988ZM455.323 332.3C454.33 332.3 453.463 332.05 452.723 331.55C451.983 331.05 451.41 330.37 451.003 329.51C450.596 328.65 450.393 327.68 450.393 326.6C450.393 325.507 450.596 324.533 451.003 323.68C451.416 322.82 452 322.143 452.753 321.65C453.506 321.15 454.393 320.9 455.413 320.9C456.44 320.9 457.3 321.15 457.993 321.65C458.693 322.143 459.223 322.82 459.583 323.68C459.943 324.54 460.123 325.513 460.123 326.6C460.123 327.673 459.943 328.643 459.583 329.51C459.223 330.37 458.686 331.05 457.973 331.55C457.26 332.05 456.376 332.3 455.323 332.3ZM455.693 330.14C456.34 330.14 456.86 329.993 457.253 329.7C457.653 329.4 457.943 328.983 458.123 328.45C458.31 327.917 458.403 327.3 458.403 326.6C458.403 325.893 458.31 325.277 458.123 324.75C457.943 324.217 457.66 323.803 457.273 323.51C456.886 323.21 456.386 323.06 455.773 323.06C455.126 323.06 454.593 323.22 454.173 323.54C453.753 323.853 453.443 324.28 453.243 324.82C453.043 325.353 452.943 325.947 452.943 326.6C452.943 327.26 453.04 327.86 453.233 328.4C453.433 328.933 453.736 329.357 454.143 329.67C454.55 329.983 455.066 330.14 455.693 330.14ZM458.403 332V324.42H458.103V317.6H460.533V332H458.403Z" fill="#1A1A1A"/>
</svg>
