<svg width="231" height="149" viewBox="0 0 231 149" fill="none" xmlns="http://www.w3.org/2000/svg">
<path d="M62.5739 104.338L23.099 147.583L22.9516 147.452C22.9516 147.452 22.9352 147.436 22.9024 147.42L21.5188 146.151C21.1913 145.856 20.7779 145.459 20.2662 145C20.0205 144.755 19.7381 144.505 19.4597 144.243C16.1521 141.116 11.6572 136.85 11.6572 136.85C11.6572 136.85 15.7058 131.88 20.1843 135.88C21.3878 136.965 22.2107 138.414 22.6855 139.945C22.751 140.125 22.8001 140.321 22.8492 140.522L37.5495 124.422C37.3202 124.307 37.1033 124.127 36.9395 123.894C36.5588 123.349 36.5097 122.592 36.7431 121.965C37.0214 121.175 37.8279 120.254 38.7367 120.238C39.4285 120.222 40.2022 120.467 40.7139 120.963L58.9388 100.994L62.578 104.334L62.5739 104.338Z" fill="#1A1A1A"/>
<path d="M157.853 93.9365L108.378 148.472L107.899 149C107.604 148.554 106.499 146.761 105.185 144.636C102.831 140.817 99.8506 135.945 99.8506 135.945C99.8506 135.945 105.054 132.192 108.328 137.231C108.857 138.037 109.217 138.942 109.43 139.879L123.307 124.373C123.111 124.258 122.93 124.094 122.795 123.894C122.402 123.349 122.366 122.592 122.583 121.966C122.877 121.176 123.684 120.254 124.593 120.238C125.235 120.222 125.96 120.435 126.451 120.864L154.693 89.327L157.853 93.9365Z" fill="#1A1A1A"/>
<path d="M88.2249 123.746L87.0704 129.191L83.7301 143.019C83.7301 143.019 79.8779 141.595 80.5493 133.8C80.5779 133.371 75.903 135.176 75.6574 135.245C74.9451 135.479 74.2328 135.7 73.5082 135.9C72.0713 136.318 70.6304 136.686 69.1689 136.981C67.6871 137.288 66.2174 137.452 64.7233 137.657C63.2618 137.853 61.6981 137.71 60.2162 137.669C59.3647 137.644 58.5255 137.571 57.7272 137.37C57.412 137.714 56.9822 137.951 56.3845 138.009C55.5985 138.095 54.8331 137.8 54.4155 137.255C53.9857 136.691 54.0839 135.986 54.3418 135.331C53.1546 133.718 52.9581 131.438 53.0973 129.355C53.3429 125.634 54.9518 122.133 56.712 118.895C57.0927 118.195 57.4898 117.516 57.8869 116.82C60.4577 112.395 63.4502 108.215 66.6432 104.224C67.7812 102.795 68.9438 101.407 70.1719 100.044C70.2579 99.9419 71.9649 98.2512 71.9813 98.2553L73.1275 100.445L74.7158 102.333C72.7263 104.187 57.9278 121.966 58.8162 129.654C59.0004 130.91 60.1752 131.782 61.4402 131.737C62.439 131.688 63.9782 131.508 66.3075 130.972C69.6807 130.214 74.7158 128.728 82.0803 125.883C83.0382 125.511 86.526 124.238 88.2249 123.75V123.746Z" fill="#1A1A1A"/>
<path d="M178.714 120.504L177.048 125.81L172.402 139.261C172.402 139.261 168.697 137.472 170.114 129.776C170.187 129.355 165.361 130.706 165.107 130.747C164.374 130.914 163.65 131.066 162.913 131.197C161.443 131.471 159.97 131.696 158.484 131.856C156.985 132.024 155.503 132.036 153.997 132.102C152.519 132.151 150.976 131.864 149.502 131.68C148.663 131.569 147.828 131.418 147.054 131.144C146.706 131.455 146.256 131.651 145.662 131.651C144.864 131.659 144.131 131.295 143.771 130.71C143.394 130.108 143.562 129.42 143.882 128.79C142.854 127.071 142.883 124.782 143.214 122.723C143.816 119.043 145.752 115.707 147.816 112.649C148.266 111.99 148.72 111.351 149.187 110.7C151.84 106.991 154.812 103.512 157.947 100.2C158.332 99.7946 158.717 99.3934 159.098 98.9963C160.375 97.6864 161.664 96.4092 163.011 95.177C163.105 95.0828 164.96 93.5681 164.984 93.5681L165.918 95.8565L166.614 96.8635C165.242 98.849 163.867 100.757 162.491 102.554C162.098 102.967 161.693 103.401 161.275 103.86C155.819 109.742 148.782 118.49 148.884 123.562C148.949 124.831 150.034 125.818 151.295 125.887C152.294 125.937 153.845 125.904 156.216 125.589C159.642 125.163 164.796 124.16 172.398 122.039C173.393 121.757 176.987 120.824 178.718 120.504H178.714Z" fill="#1A1A1A"/>
<path d="M192.134 78.7776C191.942 78.7776 191.774 78.7448 191.618 78.6793C191.467 78.6138 191.34 78.5238 191.233 78.4051C190.951 78.2741 190.669 78.0325 190.533 77.6477C190.443 77.3898 190.427 77.1115 190.493 76.8044C189.784 77.0378 189.047 77.136 188.442 76.9068C188.057 76.7594 187.39 76.346 187.283 75.212C187.271 75.0851 187.291 74.9541 187.349 74.8395C187.365 74.8067 187.541 74.4301 187.963 73.9102C187.259 73.9389 186.595 73.812 186.1 73.4149C186.08 73.3985 186.063 73.3822 186.043 73.3658C185.977 73.3003 185.396 72.6944 185.535 71.7406C185.678 70.7581 186.538 69.8412 188.085 69.0183L195.638 64.72C211.575 54.9485 217.711 49.4221 220.024 46.8308C214.837 47.0683 198.152 50.2408 187.209 55.2719C186.956 55.3906 186.657 55.3497 186.444 55.1696C186.231 54.9895 186.137 54.707 186.202 54.4368L188.822 43.9898C188.867 43.8097 188.978 43.6583 189.133 43.5559L193.608 40.6699C193.628 40.6576 193.653 40.6453 193.673 40.6331C200.51 37.1739 209.139 35.864 219.32 36.7441C220.27 36.826 221.117 36.9406 221.911 37.0962C224.179 37.5342 227.307 38.5535 229.337 40.9278C230.32 42.0781 230.884 43.3471 230.97 44.5916C231.015 45.2588 230.925 45.9466 230.704 46.6384C230.422 47.5226 229.931 48.411 229.239 49.2829C227.102 51.9765 224.486 54.4082 221.96 56.7579L221.395 57.286C218.419 60.0574 215.32 62.6568 212.684 64.8347C212.34 65.1171 211.996 65.3996 211.653 65.682L210.474 66.6481C205.512 70.709 200.387 74.9091 194.705 77.8115L194.59 77.8729C193.444 78.491 192.691 78.7776 192.13 78.7776H192.134ZM191.909 77.1033C192.048 77.136 192.167 77.2097 192.257 77.3162C192.466 77.2752 192.932 77.1278 193.903 76.5998L194.046 76.522C199.589 73.6892 204.652 69.5382 209.557 65.5265L210.74 64.5604C211.084 64.282 211.423 63.9996 211.767 63.7171C214.391 61.5516 217.47 58.9685 220.417 56.2257L220.982 55.6976C223.471 53.3847 226.046 50.9899 228.113 48.3823C228.694 47.6495 229.104 46.9168 229.333 46.2004C229.497 45.6805 229.566 45.1729 229.534 44.6898C229.456 43.5109 228.788 42.508 228.244 41.8694C226.484 39.8103 223.684 38.9137 221.645 38.5166C220.9 38.3734 220.102 38.267 219.201 38.1892C209.307 37.3377 200.956 38.5862 194.369 41.9103L190.169 44.6203L187.979 53.3479C200.068 48.1653 218.305 44.8822 221.535 45.4267L221.633 45.4431C221.878 45.484 222.087 45.6518 222.185 45.8852C222.28 46.1185 222.247 46.3805 222.1 46.5852C220.339 49.0127 214.661 54.7561 196.416 65.944L196.224 66.0668L188.79 70.2833C187.279 71.0856 187.021 71.6997 186.98 71.9248C186.947 72.1131 187.017 72.2523 187.058 72.3096C187.627 72.6699 189.322 72.3097 190.615 71.757C190.967 71.6055 191.385 71.757 191.553 72.105C191.721 72.4529 191.59 72.8705 191.25 73.0588C189.739 73.8898 189.007 74.8804 188.761 75.2775C188.818 75.4986 188.916 75.5354 188.957 75.5518C189.694 75.8301 191.712 74.6758 192.101 74.3155C192.388 74.0494 192.834 74.0576 193.108 74.336C193.383 74.6102 193.391 75.0565 193.125 75.3389C192.134 76.3992 191.946 76.9191 191.913 77.0992L191.909 77.1033Z" fill="#1A1A1A"/>
<path d="M9.72117 118.126C6.14333 118.126 3.75262 117.352 1.97189 115.616C0.563675 114.224 -0.140435 112.321 0.0233108 110.381C-0.21412 96.2166 34.7087 83.3053 49.7447 78.4052C50.1254 78.2824 50.5347 78.4912 50.6576 78.8678L53.2079 86.6866C53.2693 86.8749 53.2529 87.0755 53.1588 87.2515C53.0687 87.4235 52.9091 87.5545 52.7208 87.6077C52.6266 87.6363 41.0252 91.4352 29.5958 96.6914C15.8248 103.008 11.5674 107.237 10.2984 108.96C14.171 111.027 25.2279 106.09 31.3028 103.385C35.9655 101.305 36.9275 100.928 37.5497 101.309C37.8813 101.473 38.2456 101.829 38.3029 102.369C38.3316 102.648 38.2784 102.93 38.1351 103.225C38.9088 103.159 39.6825 103.241 40.227 103.647C40.6077 103.933 41.0334 104.49 40.8942 105.517C40.8779 105.648 40.8246 105.771 40.7428 105.874C40.7223 105.902 40.4562 106.221 39.9281 106.631C40.6077 106.77 41.2258 107.04 41.6065 107.527C41.6229 107.548 41.6393 107.572 41.6516 107.593C41.7007 107.675 42.1223 108.403 41.758 109.304C41.3855 110.229 40.3375 110.921 38.6468 111.355L32.9362 112.976C22.4319 116.443 14.8341 118.13 9.72117 118.13V118.126ZM49.5072 80.0058C37.2713 84.0339 1.18592 97.0681 1.47657 110.385C1.47657 110.413 1.47657 110.438 1.47657 110.467C1.3947 111.359 1.48065 113.082 2.9912 114.577C3.99005 115.551 5.66437 116.673 9.72526 116.673C14.6827 116.673 22.129 115.01 32.4941 111.588L32.7684 111.502L38.2702 109.951C39.9199 109.525 40.317 108.985 40.4071 108.772C40.4889 108.592 40.448 108.436 40.4235 108.362C39.9281 107.859 38.045 107.875 36.8292 108.084C36.4485 108.15 36.0801 107.904 35.9982 107.523C35.9163 107.143 36.1456 106.766 36.5181 106.668C38.1883 106.226 39.1381 105.431 39.4738 105.1C39.4697 104.879 39.3878 104.817 39.3591 104.793C38.8147 104.383 36.8333 104.85 35.9819 105.231C35.638 105.386 35.2327 105.247 35.0526 104.916C34.8725 104.584 34.9748 104.171 35.29 103.962C36.2848 103.307 36.6532 102.881 36.7924 102.664C35.99 102.877 33.9145 103.798 31.9046 104.699C24.3109 108.088 12.8364 113.205 8.84102 109.689C8.58313 109.464 8.52172 109.087 8.68956 108.788C9.62291 107.126 13.4709 102.492 29.0022 95.3651C38.8965 90.8171 48.9096 87.3538 51.6195 86.4451L49.5154 80.0017L49.5072 80.0058Z" fill="#1A1A1A"/>
<path d="M95.4422 79.4819C95.2294 79.4819 95.0247 79.3877 94.8855 79.2199C94.7095 79.0029 94.6685 78.7082 94.7832 78.4544L100.183 66.7179C100.273 66.5255 100.445 66.3781 100.649 66.3208L136.608 56.4265C136.8 56.3733 137.001 56.402 137.169 56.5002C137.336 56.5984 137.459 56.7622 137.504 56.9546L140.087 67.6103C140.182 67.9992 139.944 68.3881 139.559 68.4823L95.6182 79.4614C95.5609 79.4778 95.4995 79.4819 95.4422 79.4819ZM101.362 67.6308L96.7358 77.6889L138.515 67.2501L136.276 58.0189L101.362 67.6267V67.6308Z" fill="#1A1A1A"/>
<path d="M207.927 17.3977C205.667 25.7078 201.586 33.3465 197.861 41.0671C194.201 48.6526 190.275 56.099 186.345 63.5453C180.201 75.2204 173.397 87.0837 166.614 96.8675C165.242 98.853 163.867 100.761 162.491 102.558C162.135 103.037 161.783 103.499 161.419 103.958C161.398 103.958 161.345 103.929 161.276 103.864C160.862 103.516 159.667 102.238 157.948 100.204C154.918 96.6219 150.272 90.7025 145.409 83.3749C136.632 70.2138 126.951 52.1691 125.067 35.1846C123.901 24.6762 128.265 14.0532 137.291 8.55138C141.016 6.2835 145.155 5.02267 149.523 5.02267C157.71 5.02267 165.095 9.45605 170.429 16.6117C181.654 3.15594 195.294 -3.3734 203.526 1.73546C206.433 3.54894 208.484 6.41038 208.844 9.85723C209.106 12.3953 208.598 14.9456 207.923 17.4018L207.927 17.3977Z" fill="#86C9FF"/>
<path d="M155.655 36.0075C155.655 36.0075 146.219 45.5293 132.968 36.0075C132.968 36.0075 134.487 33.4408 137.246 31.4841C139.546 29.8548 142.719 28.6513 146.583 29.7402C149.285 30.5016 152.331 32.3764 155.659 36.0034L155.655 36.0075Z" fill="#EFEBE7"/>
<path d="M147.132 32.0199C147.132 34.7545 144.905 36.9773 142.17 36.9773C139.436 36.9773 137.209 34.7586 137.209 32.0199C137.209 31.8398 137.221 31.6597 137.242 31.4877C139.542 29.8585 142.715 28.655 146.579 29.7439C146.931 30.4275 147.132 31.1971 147.132 32.0199Z" fill="#1A1A1A"/>
<path d="M191.044 36.007C191.044 36.007 181.608 45.5289 168.349 36.007C168.349 36.007 169.867 33.4403 172.626 31.4918C174.927 29.8584 178.1 28.659 181.964 29.7438C184.666 30.497 187.712 32.376 191.044 36.007Z" fill="#EFEBE7"/>
<path d="M182.517 32.0198C182.517 34.7544 180.298 36.9772 177.555 36.9772C174.813 36.9772 172.594 34.7585 172.594 32.0198C172.594 31.8397 172.606 31.6678 172.626 31.4918C174.927 29.8584 178.1 28.659 181.964 29.7438C182.316 30.4274 182.517 31.197 182.517 32.0198Z" fill="#1A1A1A"/>
<path d="M116.041 10.5859C106.961 4.95711 91.9211 12.1578 79.5461 26.9931C73.6635 19.1047 65.5213 14.2128 56.4907 14.2128C51.6766 14.2128 47.1081 15.6047 43.0022 18.1059C33.0465 24.1726 28.2364 35.8886 29.5218 47.4736C31.6014 66.2061 42.2694 86.1053 51.9509 100.617C60.9282 114.134 69.2219 123.316 69.6026 123.316C78.9116 111.449 88.5725 94.9353 97.0955 78.7572C101.422 70.5372 105.758 62.3294 109.794 53.9661C113.904 45.4555 118.403 37.0348 120.896 27.8651C121.633 25.1551 122.194 22.3428 121.903 19.5509C121.51 15.748 119.242 12.5877 116.041 10.59V10.5859Z" fill="#86C9FF"/>
<path d="M37.251 48.7673C37.251 48.7673 48.2424 30.1944 65.276 48.7673C65.276 48.7673 53.6255 60.5242 37.251 48.7673Z" fill="#EFEBE7"/>
<path d="M48.6235 44.2721C50.2323 45.8809 50.2323 48.4844 48.6235 50.0932C47.0147 51.702 44.4111 51.702 42.8023 50.0932C41.1935 48.4844 41.1935 45.8809 42.8023 44.2721C44.4111 42.6633 47.0147 42.6633 48.6235 44.2721Z" fill="#1A1A1A"/>
<path d="M75.6494 48.7672C75.6494 48.7672 86.6408 30.1943 103.674 48.7672C103.674 48.7672 92.024 60.5241 75.6494 48.7672Z" fill="#EFEBE7"/>
<path d="M87.9751 44.2721C89.5839 45.8809 89.5839 48.4844 87.9751 50.0932C86.3663 51.702 83.7627 51.702 82.1539 50.0932C80.5451 48.4844 80.5451 45.8809 82.1539 44.2721C83.7627 42.6633 86.3663 42.6633 87.9751 44.2721Z" fill="#1A1A1A"/>
<path d="M69.5167 67.8312C58.3984 67.8312 50.3872 63.8153 50.2684 63.7416C49.9246 63.5369 49.814 63.0908 50.0187 62.7469C50.2234 62.4071 50.6614 62.2966 51.0012 62.4931C51.3041 62.6527 71.7109 72.7149 92.2896 59.8117C92.6294 59.5948 93.0756 59.7012 93.2885 60.041C93.5013 60.3807 93.399 60.827 93.0592 61.0398C84.7778 66.2347 76.5291 67.8312 69.5167 67.8312Z" fill="#1A1A1A"/>
<path d="M161.849 66.8612C159.806 66.8612 157.845 64.9618 157.285 62.2968C156.662 59.3412 157.997 56.5494 160.265 56.0745C162.529 55.5996 164.878 57.6137 165.501 60.5693C166.123 63.5249 164.788 66.3168 162.52 66.7917C162.295 66.8367 162.074 66.8612 161.849 66.8612ZM160.936 57.45C160.809 57.45 160.686 57.4622 160.56 57.4909C159.102 57.7979 158.251 59.8611 158.701 61.998C159.151 64.1349 160.764 65.6782 162.222 65.3711C163.679 65.0641 164.53 63.0009 164.08 60.864C163.667 58.9114 162.283 57.45 160.936 57.45Z" fill="#1A1A1A"/>
</svg>
