<svg width="200" height="239" viewBox="0 0 200 239" fill="none" xmlns="http://www.w3.org/2000/svg">
<path d="M87.9199 181.353C87.9199 181.353 79.061 181.491 78.9433 174.208C68.6835 177.389 58.1061 179.568 47.4327 180.704C46.3785 180.812 44.3051 181.038 42.2658 180.491C41.2181 180.211 40.1695 179.723 39.2836 178.922C39.2441 178.972 39.1905 179.018 39.1424 179.057C38.8472 179.29 38.4639 179.375 38.0975 179.341C37.7337 179.311 37.3831 179.175 37.0597 178.995C36.528 178.695 36.0334 178.228 35.9432 177.625C35.8858 177.223 36.023 176.809 36.2173 176.448C36.4543 176.012 36.855 175.68 37.3099 175.524C36.859 173.563 37.2582 171.274 38.5035 168.855C40.593 164.799 43.7526 161.571 47.0697 158.344C55.814 149.845 65.4839 141.199 76.9336 135.498L79.5102 140.669C68.7729 146.024 59.5128 154.317 51.1005 162.489C48.0267 165.481 45.3355 168.222 43.6454 171.502C42.8558 173.033 42.7872 174.13 43.0536 174.51C43.223 174.746 43.9297 175.263 46.8245 174.957C58.7232 173.691 70.8363 169.929 82.1551 166.048L87.9269 181.354L87.9199 181.353Z" fill="#1A1A1A"/>
<path d="M87.2373 215.93C86.254 215.9 85.2727 216.016 84.3037 216.185L83.5041 216.323L100.057 143.361C98.1667 143.396 96.2785 143.49 94.3753 143.642L77.1578 219.531L79.9647 220.212C84.3536 221.535 93.0745 224.209 93.0745 224.209C93.0745 224.209 95.5043 216.193 87.2363 215.934L87.2373 215.93Z" fill="#1A1A1A"/>
<path d="M145.228 127.847C145.197 127.839 145.165 127.83 145.136 127.815C144.982 127.743 144.85 127.618 144.788 127.459L141.748 119.25C141.69 119.091 141.696 118.913 141.767 118.759C141.839 118.605 141.969 118.482 142.128 118.424C151.527 114.948 161.244 111.355 168.573 104.832C171.272 102.426 172.817 100.234 173.295 98.1277C173.653 96.6352 173.529 94.7579 172.933 92.5402C171.68 87.9944 168.808 83.4505 164.63 79.4056C163.695 78.4941 162.687 77.6042 161.547 76.6867C159.984 75.4117 158.226 74.1256 156.318 72.8634C154.66 71.7655 152.828 70.6251 150.709 69.3813C145.625 66.3928 126.105 56.0323 121.823 53.7622C121.742 53.7556 121.662 53.734 121.585 53.6984C117.531 51.6996 116.662 48.973 116.625 48.858C116.549 48.6798 116.471 48.4225 116.411 48.1285C115.736 44.9018 117.242 41.2868 118.455 38.3859L118.55 38.156C120.348 33.842 122.679 29.5881 125.483 25.5136C126.271 24.3654 127.038 23.3954 127.829 22.5446C128.379 21.952 130.051 20.1542 131.85 21.0794C133.051 21.6979 133.205 23.0987 133.026 24.4253C133.568 23.9883 134.184 23.6502 134.83 23.5793C135.493 23.505 136.103 23.7212 136.592 24.209C137.513 25.1317 137.402 26.3714 136.986 27.4204C137.638 27.3961 138.267 27.6584 138.716 28.1543C139.255 28.7494 139.433 29.5707 139.195 30.3446C137.891 34.5692 131.886 43.7497 129.776 46.6207C133.443 48.576 151.095 57.9891 155.24 60.4065L155.792 60.7272C157.148 61.5261 158.925 62.5882 160.72 63.7526C165.06 66.5455 168.627 69.3113 171.624 72.1987C177.089 77.4937 180.888 83.608 182.615 89.8767C183.661 93.6683 183.819 97.1995 183.09 100.369C182.114 104.584 179.549 108.494 175.244 112.312C166.529 120.084 155.43 124.196 145.64 127.826C145.51 127.874 145.362 127.879 145.229 127.843L145.228 127.847ZM143.175 119.406L145.767 126.41C155.325 122.865 166.025 118.811 174.384 111.357C178.483 107.72 180.918 104.031 181.833 100.085C182.513 97.1239 182.358 93.8074 181.37 90.2192C179.705 84.1698 176.024 78.2563 170.723 73.1215C167.789 70.2925 164.284 67.577 160.015 64.8293C158.235 63.6765 156.475 62.6227 155.139 61.8329L154.587 61.5121C149.994 58.832 128.708 47.5064 128.495 47.3928C128.324 47.302 128.205 47.1424 128.166 46.9517C128.126 46.7645 128.175 46.5674 128.297 46.4198C129.836 44.5301 136.639 34.2226 137.959 29.9569C138.065 29.6172 137.987 29.2622 137.755 29.0084C137.526 28.7555 137.198 28.6488 136.857 28.7152C136.559 28.7744 136.244 28.8853 135.919 29.0461C135.65 29.1806 135.328 29.1092 135.138 28.8781C134.948 28.647 134.944 28.3117 135.131 28.0764C135.148 28.0582 136.644 26.0745 135.682 25.1106C135.472 24.9003 135.246 24.8173 134.971 24.8487C134.174 24.9356 133.073 25.9211 132.162 27.3559C131.985 27.6389 131.617 27.7357 131.321 27.5811C131.024 27.4265 130.898 27.0698 131.029 26.7632C131.659 25.2831 132.275 22.7443 131.255 22.2194C130.625 21.893 129.814 22.2876 128.763 23.4182C128.014 24.224 127.287 25.1445 126.531 26.2413C123.776 30.2427 121.486 34.4173 119.724 38.651L119.629 38.8808C118.486 41.6201 117.065 45.0289 117.657 47.8652C117.701 48.0798 117.757 48.2637 117.823 48.4241C117.848 48.4984 118.601 50.747 121.996 52.4716C122.085 52.4766 122.176 52.501 122.263 52.543C126.213 54.6341 146.184 65.2319 151.353 68.2693C153.491 69.5257 155.342 70.6753 157.02 71.7858C158.966 73.0733 160.759 74.3838 162.352 75.6856C163.52 76.6257 164.558 77.5425 165.519 78.4834C169.862 82.6851 172.849 87.429 174.165 92.2019C174.82 94.6345 174.945 96.722 174.539 98.4196C173.998 100.787 172.326 103.201 169.42 105.791C162.067 112.335 152.489 115.957 143.168 119.405L143.175 119.406Z" fill="#1A1A1A"/>
<path d="M126.325 44.1375C126.269 44.1225 126.211 44.0995 126.16 44.067C125.856 43.8841 125.759 43.49 125.942 43.186C135.068 28.048 135.254 27.8875 135.353 27.7976C135.618 27.5645 136.024 27.5907 136.261 27.8569C136.474 28.0981 136.471 28.4579 136.269 28.6965C135.848 29.286 130.539 38.0524 127.045 43.846C126.895 44.0987 126.599 44.2072 126.33 44.1349L126.325 44.1375Z" fill="#1A1A1A"/>
<path d="M122.36 42.9999C122.304 42.9849 122.25 42.9628 122.199 42.9303C121.894 42.7509 121.793 42.3559 121.972 42.051L131.922 25.2409C132.101 24.9359 132.496 24.8352 132.801 25.0145C133.106 25.1939 133.207 25.5889 133.028 25.8939L123.078 42.704C122.928 42.9566 122.631 43.0687 122.361 42.9964L122.36 42.9999Z" fill="#1A1A1A"/>
<path d="M57.8813 92.3462C57.7481 92.3105 57.6262 92.2328 57.5401 92.1196C51.325 84.0736 44.2814 74.9569 40.5872 65.0852C38.6639 59.9431 38.2693 55.9354 39.343 52.4751C40.1962 49.7255 42.0647 47.2932 44.8964 45.2465C50.9126 40.9023 58.6213 40.1925 65.4189 39.5616L66.8087 39.4345C74.0208 38.7982 81.7625 38.2174 89.5229 38.3101C91.9598 38.3397 94.3446 38.3816 96.7381 38.5873C96.7855 38.5925 96.8893 38.5977 97.0264 38.6044C97.8599 38.6475 98.49 38.6924 98.9685 38.7568L98.962 38.725L98.969 38.7269C98.682 37.2191 98.6779 26.2181 100.276 21.8092C100.707 20.6215 101.235 19.8992 101.893 19.6023C102.494 19.3467 103.674 19.2908 104.742 20.3207C105.09 18.9794 105.881 17.2346 107.664 16.9724C108.604 16.8263 109.373 17.0399 109.951 17.6005C110.324 17.9631 110.595 18.464 110.773 19.1049C110.984 18.7635 111.226 18.4376 111.485 18.1542C111.955 17.6342 112.707 17.3248 113.488 17.3238C114.269 17.3264 114.995 17.6413 115.484 18.1854C115.793 18.5312 115.966 18.9529 116.104 19.3618C116.524 20.5708 116.652 21.8744 116.74 23.0022C116.861 24.5142 116.882 26.1574 116.806 28.026C116.732 29.9254 116.561 31.8549 116.294 33.7625C116.008 35.8378 115.638 37.7103 115.172 39.4931C114.648 41.4747 114.079 43.0648 113.383 44.5006C112.63 46.049 111.597 48.1646 109.412 48.7807C108.336 49.082 107.206 49.0533 106.21 49.0269C100.971 48.8886 95.7142 48.7157 90.5849 48.5168L88.252 48.4212C84.8684 48.2807 81.3696 48.1356 77.9406 48.1782C71.6751 48.2532 65.5455 48.4097 59.447 49.4871C56.2812 50.0472 53.0057 50.7506 50.8268 52.6454C48.0568 55.0503 48.7791 58.3534 49.9754 61.5694C53.1327 69.9828 63.256 83.1357 69.3036 90.994C69.4517 91.1839 69.4886 91.4529 69.3845 91.6729C69.2815 91.8894 69.0747 92.0443 68.8326 92.0508L58.0586 92.3711C57.9943 92.3727 57.9329 92.3637 57.8733 92.3478L57.8813 92.3462ZM45.6507 46.2861C43.0479 48.165 41.3406 50.3739 40.5712 52.853C39.585 56.0288 39.9752 59.7724 41.7932 64.6347C45.3796 74.2221 52.2474 83.1678 58.3576 91.073L67.5487 90.8017C61.3849 82.7883 51.8785 70.2627 48.7852 62.0167C47.493 58.5421 46.6266 54.5994 49.9975 51.6758C52.429 49.567 55.8936 48.8167 59.2368 48.2253C65.4332 47.1328 71.6166 46.9719 77.9384 46.897C81.4008 46.8558 84.918 47.0021 88.3175 47.1394L90.6469 47.234C95.7692 47.431 101.022 47.603 106.258 47.7404C107.209 47.766 108.19 47.7922 109.079 47.5423C110.586 47.1163 111.406 45.657 112.242 43.9359C112.902 42.5804 113.443 41.0655 113.945 39.1645C114.401 37.4352 114.758 35.6118 115.038 33.5873C115.297 31.7227 115.465 29.8337 115.539 27.9756C115.609 26.158 115.589 24.5641 115.474 23.1023C115.39 22.0547 115.274 20.8481 114.902 19.7833C114.805 19.5018 114.693 19.2201 114.537 19.0433C114.199 18.6671 113.741 18.6084 113.493 18.6095C113.077 18.6069 112.675 18.762 112.445 19.016C111.831 19.6964 111.328 20.662 111.168 21.483C111.049 22.0969 110.93 22.82 110.856 23.4197C110.81 23.7718 110.488 24.0198 110.136 23.9743C109.784 23.9288 109.536 23.607 109.582 23.2549C109.999 19.9868 109.438 18.8862 109.062 18.5227C108.785 18.2531 108.392 18.1629 107.864 18.2429C106.034 18.5113 105.774 21.9378 105.772 21.9712C105.755 22.2595 105.548 22.5007 105.265 22.5601C104.982 22.6196 104.696 22.4828 104.562 22.2254C103.619 20.3916 102.531 20.7384 102.407 20.7804C100.069 21.8401 99.8983 36.6324 100.212 38.3914C100.215 38.4073 100.222 38.4241 100.225 38.44L100.472 39.5388C100.548 39.871 100.349 40.2046 100.021 40.2968C99.7889 40.3624 99.548 40.2941 99.3914 40.1357C99.1744 40.0626 98.5689 39.9679 96.9688 39.8847C96.8097 39.8758 96.6945 39.8713 96.6356 39.8667C94.2861 39.6653 91.9277 39.623 89.5172 39.593C81.8122 39.5039 74.1092 40.08 66.9315 40.7142L65.5461 40.8388C58.9117 41.4496 51.3906 42.1458 45.6586 46.2845L45.6507 46.2861Z" fill="#1A1A1A"/>
<path d="M104.097 36.8411C103.807 36.7632 103.602 36.4905 103.625 36.1776C103.991 30.6912 104.523 22.3426 104.507 21.6736C104.47 21.3517 104.683 21.0447 105.007 20.9736C105.354 20.8976 105.697 21.1172 105.773 21.4643C105.798 21.58 105.865 21.8909 104.909 36.2661C104.885 36.6203 104.581 36.888 104.226 36.8644C104.182 36.8602 104.143 36.8533 104.101 36.8421L104.097 36.8411Z" fill="#1A1A1A"/>
<path d="M108.877 38.6136C108.583 38.5347 108.376 38.2541 108.404 37.9386L109.718 22.1157C109.749 21.7634 110.06 21.5011 110.413 21.5282C110.766 21.5553 111.027 21.8694 111 22.2227L109.686 38.0456C109.656 38.3979 109.345 38.6602 108.992 38.6331C108.951 38.6298 108.915 38.6239 108.877 38.6136Z" fill="#1A1A1A"/>
<path d="M143.212 117.512C142.027 114.731 140.535 112.198 138.848 109.876C151.93 101.503 158.058 87.6569 152.527 78.6C146.886 69.3635 131.276 68.6169 117.661 76.9303C115.551 78.22 113.632 79.6624 111.884 81.1958C109.284 71.7112 100.786 63.6506 89.3937 61.1615C73.8084 57.7553 58.7547 66.0585 55.7745 79.7037C54.1089 87.3355 56.5719 95.0183 61.7921 100.905C59.6433 101.426 57.482 102.12 55.3362 103.036C39.8499 109.646 31.2362 124.245 36.0997 135.639C40.9623 147.037 57.4609 150.917 72.9517 144.305C77.7989 142.235 81.9728 139.383 85.269 136.094C85.7482 137.894 86.326 139.69 87.0829 141.462C94.5944 159.064 113.251 167.969 128.749 161.355C144.248 154.741 150.725 135.107 143.21 117.504L143.212 117.512Z" fill="#86C9FF"/>
<path d="M82.0012 101.84C81.4896 101.703 81.0063 101.502 80.5559 101.235C77.5299 99.4515 76.9188 95.3407 76.8056 94.1236C76.7719 93.7728 77.0265 93.4392 77.3773 93.4055C77.729 93.3683 78.0409 93.6058 78.0781 93.9575C78.0781 93.9575 78.0809 94.0033 78.0844 94.0043C78.1862 95.0681 78.7048 98.6546 81.2089 100.129C82.847 101.094 85.0726 100.973 87.8251 99.7689C88.1486 99.6265 88.5289 99.7772 88.6713 100.101C88.8136 100.424 88.6665 100.806 88.3394 100.947C85.8937 102.015 83.7707 102.314 82.0012 101.84Z" fill="#1A1A1A"/>
<path d="M106.161 108.738C105.807 108.643 105.466 108.514 105.137 108.354C101.836 106.726 101.284 102.368 101.262 102.182C101.222 101.83 101.472 101.514 101.825 101.469C102.178 101.429 102.497 101.68 102.539 102.029C102.544 102.068 103.034 105.887 105.709 107.201C107.603 108.133 110.182 107.633 113.382 105.726C113.686 105.545 114.08 105.643 114.261 105.951C114.442 106.255 114.344 106.649 114.037 106.829C110.948 108.672 108.303 109.308 106.158 108.733L106.161 108.738Z" fill="#1A1A1A"/>
<path d="M98.1927 96.2744L95.8875 95.6016L90.6576 113.521L92.9628 114.194L98.1927 96.2744Z" fill="#1A1A1A"/>
<path d="M93.7296 120.47C93.2746 121.678 92.359 122.754 91.1897 123.32C90.0294 123.88 88.6884 123.825 87.7478 122.878C86.7181 121.844 86.8187 120.361 87.14 119.05L93.7261 120.469L93.7296 120.47Z" fill="#1A1A1A"/>
</svg>
