<svg width="420" height="420" viewBox="0 0 420 420" fill="none" xmlns="http://www.w3.org/2000/svg">
<rect width="420" height="420" rx="12" fill="#5F7C8A"/>
<path d="M309.305 224.736C309.707 223.876 309.707 222.844 309.42 221.927L300.565 196.708C300.347 196.086 300.809 195.436 301.468 195.436H311.24C311.687 195.436 312.074 195.744 312.173 196.179L314.025 204.304C314.25 205.289 315.651 205.298 315.888 204.316L317.855 196.167C317.959 195.738 318.343 195.436 318.786 195.436H328.542C329.192 195.436 329.653 196.069 329.452 196.687L320.386 224.564C318.549 230.47 316.711 235 311.085 235C307.187 235 305.027 233.909 304.698 233.71C304.667 233.692 304.638 233.673 304.607 233.657C304.495 233.602 304.425 233.488 304.425 233.363V225.913C304.425 225.59 304.772 225.384 305.056 225.539C305.056 225.539 306.951 226.571 308.329 225.826C308.731 225.596 309.075 225.252 309.305 224.736Z" fill="#F9F6ED"/>
<path d="M281.833 225.539C277.872 225.539 274.427 224.163 271.901 221.468C269.317 218.716 267.939 214.759 267.939 210.115C267.939 206.044 269.26 202.317 271.614 199.507C274.197 196.468 277.757 194.862 281.891 194.862C283.793 194.862 285.339 195.299 286.624 195.928C287.32 196.269 288.206 195.802 288.206 195.028V185.956C288.206 185.428 288.635 185 289.163 185H297.641C298.17 185 298.598 185.428 298.598 185.956V223.953C298.598 224.48 298.17 224.908 297.641 224.908H290.032C289.69 224.908 289.412 224.631 289.412 224.289C289.412 223.773 288.807 223.473 288.367 223.744C286.785 224.721 284.607 225.539 281.833 225.539ZM278.618 210.057C278.618 212.638 280.8 214.817 283.441 214.817C286.139 214.817 288.321 212.638 288.321 210.057C288.321 207.42 286.139 205.298 283.441 205.298C280.8 205.298 278.618 207.42 278.618 210.057Z" fill="#F9F6ED"/>
<path d="M251.323 225.998C242.826 225.998 235.879 219.059 235.879 210.573C235.879 202.087 242.826 195.149 251.323 195.149C259.82 195.149 266.768 202.087 266.768 210.573C266.768 219.059 259.82 225.998 251.323 225.998ZM246.271 210.573C246.271 213.326 248.567 215.619 251.323 215.619C254.079 215.619 256.376 213.326 256.376 210.573C256.376 207.821 254.079 205.527 251.323 205.527C248.567 205.527 246.271 207.821 246.271 210.573Z" fill="#F9F6ED"/>
<path d="M214.63 223.788C214.21 223.536 213.647 223.824 213.647 224.313C213.647 224.642 213.38 224.908 213.05 224.908H205.475C204.946 224.908 204.518 224.48 204.518 223.953V185.956C204.518 185.428 204.946 185 205.475 185H213.953C214.481 185 214.91 185.428 214.91 185.956V195.087C214.91 195.883 215.849 196.356 216.56 195.998C217.904 195.321 219.561 194.862 221.57 194.862C225.531 194.862 228.862 196.411 231.273 199.335C233.512 202.03 234.718 205.7 234.718 209.713C234.718 214.415 233.397 218.429 230.814 221.296C228.345 224.048 224.785 225.539 220.881 225.539C218.277 225.539 216.163 224.712 214.63 223.788ZM214.795 210.057C214.795 212.638 216.919 214.759 219.503 214.759C222.144 214.759 224.268 212.638 224.268 210.057C224.268 207.42 222.144 205.298 219.503 205.298C216.919 205.298 214.795 207.42 214.795 210.057Z" fill="#F9F6ED"/>
<path d="M187.328 225.998C178.83 225.998 171.883 219.059 171.883 210.573C171.883 202.087 178.83 195.149 187.328 195.149C195.825 195.149 202.772 202.087 202.772 210.573C202.772 219.059 195.825 225.998 187.328 225.998ZM182.275 210.573C182.275 213.326 184.572 215.619 187.328 215.619C190.083 215.619 192.38 213.326 192.38 210.573C192.38 207.821 190.083 205.527 187.328 205.527C184.572 205.527 182.275 207.821 182.275 210.573Z" fill="#F9F6ED"/>
<path d="M159.971 186.013C159.971 185.485 160.4 185.057 160.928 185.057H169.464C169.992 185.057 170.421 185.485 170.421 186.013V224.01C170.421 224.538 169.992 224.966 169.464 224.966H160.928C160.4 224.966 159.971 224.538 159.971 224.01V186.013Z" fill="#F9F6ED"/>
<path d="M147.486 186.013C147.486 185.485 147.914 185.057 148.442 185.057H156.978C157.507 185.057 157.935 185.485 157.935 186.013V224.01C157.935 224.538 157.507 224.966 156.978 224.966H148.442C147.914 224.966 147.486 224.538 147.486 224.01V186.013Z" fill="#F9F6ED"/>
<path d="M132.876 225.94C129.029 225.94 125.24 224.392 122.541 221.812C119.556 218.945 117.948 214.988 117.948 210.631C117.948 204.61 120.417 200.94 122.541 198.933C125.24 196.353 129.029 194.977 132.818 195.149C141.373 195.55 144.531 201.055 145.679 205.642C145.714 205.818 145.646 205.998 145.504 206.106L133.572 215.195C132.995 215.634 133.187 216.494 133.909 216.422C139.019 216.078 142.349 211.605 142.406 211.548C142.63 211.258 143.091 211.367 143.161 211.726L144.958 220.903C144.979 221.008 144.957 221.116 144.898 221.205C144.883 221.227 144.866 221.248 144.848 221.267C144.446 221.691 140.438 225.94 132.876 225.94ZM128.627 205.814C127.594 206.904 127.077 208.394 127.134 209.943C127.134 210.156 127.436 210.274 127.607 210.146L133.423 205.768C133.99 205.341 133.906 204.455 133.209 204.314C132.894 204.25 132.536 204.209 132.129 204.209C130.866 204.209 129.603 204.782 128.627 205.814Z" fill="#F9F6ED"/>
<path d="M100.891 207.993V223.953C100.891 224.48 100.462 224.908 99.9337 224.908H91.4569C90.9279 224.908 90.4992 224.48 90.5 223.951L90.5547 185.954C90.5554 185.427 90.9836 185 91.5116 185H99.9337C100.462 185 100.891 185.428 100.891 185.956V194.896C100.891 195.723 101.915 196.203 102.65 195.82C103.755 195.245 105.196 194.805 107.034 194.805C111.512 194.805 116.22 197.557 116.22 205.241V223.953C116.22 224.48 115.792 224.908 115.263 224.908H106.613C106.084 224.908 105.656 224.48 105.656 223.953V208.337C105.656 206.33 104.795 205.012 103.417 205.012C102.728 205.012 102.096 205.298 101.637 205.872C101.178 206.445 100.891 207.19 100.891 207.993Z" fill="#F9F6ED"/>
</svg>
