<svg width="643" height="360" viewBox="0 0 643 360" fill="none" xmlns="http://www.w3.org/2000/svg">
<rect width="643" height="360" rx="12" fill="#E6E2DE"/>
<path d="M37.28 270L61.088 117.68H104.096L127.904 270H97.824L93.344 235.056H71.84L67.36 270H37.28ZM75.424 206.896H89.76L84.64 159.152C84.4693 157.189 84.3413 155.44 84.256 153.904C84.1707 152.283 84.0853 150.576 84 148.784C83.9147 146.907 83.872 144.645 83.872 142H81.312V145.712C81.312 146.309 81.312 146.907 81.312 147.504C81.2267 148.187 81.184 148.827 81.184 149.424C81.184 150.277 81.1413 151.173 81.056 152.112C80.9707 152.965 80.928 153.819 80.928 154.672C80.928 156.379 80.8 157.872 80.544 159.152L75.424 206.896ZM132.325 241.072C132.325 236.635 132.922 232.581 134.117 228.912C135.312 225.157 137.189 221.787 139.749 218.8C142.309 215.813 145.466 213.296 149.221 211.248C153.061 209.115 157.584 207.28 162.789 205.744C165.434 204.976 168.25 204.336 171.237 203.824C174.224 203.227 177.381 202.715 180.709 202.288V193.84C180.709 192.987 180.538 192.048 180.197 191.024C179.941 189.915 179.6 189.061 179.173 188.464C178.661 187.781 178.106 187.184 177.509 186.672C176.912 186.075 176.101 185.605 175.077 185.264C174.053 185.008 173.114 184.88 172.261 184.88C171.493 184.88 170.554 185.008 169.445 185.264C168.421 185.52 167.61 185.904 167.013 186.416C165.648 187.44 164.709 188.848 164.197 190.64C163.856 191.664 163.685 192.603 163.685 193.456V196.4H135.525V188.848C135.525 185.093 136.037 181.509 137.061 178.096C138.17 174.683 139.749 171.696 141.797 169.136C145.978 164.101 151.994 160.603 159.845 158.64C161.722 158.213 163.728 157.915 165.861 157.744C168.08 157.488 170.341 157.36 172.645 157.36C184.336 157.36 193.424 160.133 199.909 165.68C206.309 171.227 209.509 178.949 209.509 188.848V270H180.709C180.709 269.232 180.794 268.336 180.965 267.312C181.136 266.203 181.349 265.264 181.605 264.496C181.946 263.557 182.288 262.661 182.629 261.808C183.056 260.869 183.525 259.888 184.037 258.864C184.464 258.096 185.061 257.243 185.829 256.304L184.293 255.024C182.928 257.413 181.52 259.419 180.069 261.04C178.704 262.576 177.21 263.984 175.589 265.264C174.053 266.544 172.346 267.653 170.469 268.592C168.677 269.445 166.629 270.085 164.325 270.512C163.301 270.768 162.234 270.939 161.125 271.024C160.101 271.195 159.034 271.28 157.925 271.28C155.109 271.28 152.336 270.853 149.605 270C146.96 269.232 144.442 267.867 142.053 265.904C139.92 264.283 138.128 262.192 136.677 259.632C135.226 256.987 134.16 254.171 133.477 251.184C133.05 249.648 132.752 248.027 132.581 246.32C132.41 244.613 132.325 242.864 132.325 241.072ZM161.765 236.72C161.765 238 161.893 239.195 162.149 240.304C162.49 241.328 162.874 242.096 163.301 242.608C164.41 244.315 165.904 245.381 167.781 245.808C168.805 246.149 169.786 246.32 170.725 246.32C173.626 246.32 176.954 245.253 180.709 243.12V219.44C178.149 220.293 175.845 221.147 173.797 222C171.749 222.853 169.957 223.877 168.421 225.072C167.056 226.096 165.818 227.205 164.709 228.4C163.685 229.595 162.96 230.917 162.533 232.368C162.021 233.904 161.765 235.355 161.765 236.72Z" fill="#1A1A1A"/>
<path d="M41.5 320H37V296H41.5V304.04C41.7 303.813 41.9267 303.6 42.18 303.4C42.4333 303.2 42.6467 303.053 42.82 302.96C43.0733 302.827 43.3 302.727 43.5 302.66C43.7 302.58 43.9333 302.513 44.2 302.46C44.32 302.447 44.44 302.433 44.56 302.42C44.6933 302.407 44.8267 302.4 44.96 302.4C45.92 302.4 46.74 302.667 47.42 303.2C47.74 303.453 48.02 303.787 48.26 304.2C48.5133 304.613 48.7 305.08 48.82 305.6C48.8733 305.867 48.9133 306.153 48.94 306.46C48.98 306.753 49 307.067 49 307.4V315.14C49 318.513 47.74 320.2 45.22 320.2C44.8733 320.2 44.5133 320.167 44.14 320.1C43.78 320.033 43.4467 319.92 43.14 319.76C42.7933 319.6 42.4933 319.427 42.24 319.24C42 319.053 41.7667 318.82 41.54 318.54C41.2867 318.26 41.0867 317.967 40.94 317.66L40.7 317.86C40.7667 317.98 40.8467 318.127 40.94 318.3C41.0333 318.46 41.1133 318.613 41.18 318.76C41.22 318.88 41.2667 319.027 41.32 319.2C41.3867 319.373 41.4333 319.527 41.46 319.66C41.4867 319.793 41.5 319.907 41.5 320ZM41.3 308.52V314.08C41.3 314.52 41.3867 314.893 41.56 315.2C41.6133 315.307 41.7067 315.427 41.84 315.56C41.9867 315.68 42.1533 315.767 42.34 315.82C42.5 315.873 42.6867 315.9 42.9 315.9C43.0867 315.9 43.2667 315.88 43.44 315.84C43.6133 315.787 43.7733 315.7 43.92 315.58C44.04 315.473 44.14 315.36 44.22 315.24C44.3133 315.107 44.3867 314.927 44.44 314.7C44.48 314.487 44.5 314.28 44.5 314.08V308.52C44.5 308.08 44.4133 307.7 44.24 307.38C44.1867 307.287 44.0867 307.18 43.94 307.06C43.8067 306.927 43.6533 306.833 43.48 306.78C43.3067 306.727 43.1133 306.7 42.9 306.7C42.7133 306.7 42.5333 306.727 42.36 306.78C42.1867 306.82 42.0333 306.9 41.9 307.02C41.7667 307.127 41.6533 307.247 41.56 307.38C41.48 307.5 41.42 307.673 41.38 307.9C41.3267 308.113 41.3 308.32 41.3 308.52ZM59.1086 320.2C58.0953 320.2 57.1486 320.047 56.2686 319.74C55.3886 319.42 54.6019 318.993 53.9086 318.46C53.1886 317.927 52.5553 317.3 52.0086 316.58C51.4753 315.86 51.0553 315.02 50.7486 314.06C50.4553 313.18 50.3086 312.24 50.3086 311.24C50.3086 310.28 50.4553 309.353 50.7486 308.46C51.0419 307.567 51.4553 306.753 51.9886 306.02C52.5486 305.26 53.1953 304.613 53.9286 304.08C54.6753 303.547 55.4686 303.14 56.3086 302.86C56.7486 302.713 57.2019 302.6 57.6686 302.52C58.1353 302.44 58.6153 302.4 59.1086 302.4C60.0553 302.4 60.9753 302.553 61.8686 302.86C62.7753 303.167 63.5886 303.58 64.3086 304.1C65.0153 304.633 65.6419 305.273 66.1886 306.02C66.7486 306.753 67.1753 307.567 67.4686 308.46C67.6019 308.9 67.7086 309.353 67.7886 309.82C67.8686 310.287 67.9086 310.76 67.9086 311.24C67.9086 312.04 67.7819 312.9 67.5286 313.82C67.2886 314.74 66.8486 315.647 66.2086 316.54C65.6753 317.287 65.0353 317.933 64.2886 318.48C63.5419 319.027 62.7419 319.447 61.8886 319.74C61.4486 319.887 60.9953 320 60.5286 320.08C60.0619 320.16 59.5886 320.2 59.1086 320.2ZM59.1286 315.9C59.5686 315.9 60.0086 315.827 60.4486 315.68C60.9019 315.533 61.3019 315.313 61.6486 315.02C62.0886 314.673 62.4286 314.3 62.6686 313.9C62.9219 313.487 63.0953 313.107 63.1886 312.76C63.2553 312.533 63.3086 312.3 63.3486 312.06C63.3886 311.807 63.4086 311.553 63.4086 311.3C63.4086 310.78 63.3353 310.293 63.1886 309.84C63.0419 309.373 62.8419 308.947 62.5886 308.56C62.3619 308.24 62.0753 307.933 61.7286 307.64C61.3819 307.333 60.9619 307.093 60.4686 306.92C60.0286 306.773 59.5819 306.7 59.1286 306.7C58.1686 306.7 57.3219 306.987 56.5886 307.56C56.2419 307.827 55.9286 308.16 55.6486 308.56C55.3686 308.947 55.1619 309.367 55.0286 309.82C54.9619 310.047 54.9086 310.287 54.8686 310.54C54.8286 310.793 54.8086 311.047 54.8086 311.3C54.8086 311.713 54.8686 312.153 54.9886 312.62C55.1086 313.087 55.3286 313.553 55.6486 314.02C55.9019 314.393 56.2019 314.72 56.5486 315C56.8953 315.28 57.3019 315.5 57.7686 315.66C58.2086 315.82 58.6619 315.9 59.1286 315.9ZM73.9023 320H69.4023V296H73.9023V320ZM87.7063 320H83.2063C83.2063 319.92 83.2129 319.82 83.2263 319.7C83.2529 319.567 83.2996 319.407 83.3663 319.22C83.4329 319.047 83.4863 318.9 83.5263 318.78C83.5663 318.66 83.6463 318.493 83.7663 318.28C83.8063 318.213 83.8463 318.147 83.8863 318.08C83.9263 318 83.9663 317.927 84.0063 317.86L83.7663 317.66C83.6196 317.953 83.4263 318.247 83.1863 318.54C82.9463 318.82 82.6996 319.053 82.4463 319.24C82.1796 319.453 81.8863 319.633 81.5663 319.78C81.2463 319.927 80.9196 320.027 80.5863 320.08C80.4129 320.12 80.2329 320.147 80.0462 320.16C79.8596 320.187 79.6729 320.2 79.4863 320.2C76.9663 320.2 75.7063 318.513 75.7063 315.14V307.4C75.7063 306.093 75.9529 305.027 76.4463 304.2C76.6729 303.813 76.9463 303.487 77.2663 303.22C77.5863 302.953 77.9729 302.747 78.4263 302.6C78.8263 302.467 79.2663 302.4 79.7463 302.4C79.9596 302.4 80.2063 302.427 80.4863 302.48C80.7796 302.52 81.0263 302.573 81.2263 302.64C81.5196 302.773 81.7463 302.893 81.9063 303C82.0796 303.093 82.2996 303.233 82.5663 303.42C82.7796 303.593 82.9929 303.8 83.2063 304.04V296H87.7063V320ZM83.4063 314.08V308.52C83.4063 308.08 83.3196 307.7 83.1463 307.38C83.0929 307.287 82.9929 307.18 82.8463 307.06C82.7129 306.927 82.5596 306.833 82.3863 306.78C82.2129 306.727 82.0196 306.7 81.8063 306.7C81.6196 306.7 81.4396 306.727 81.2663 306.78C81.0929 306.82 80.9396 306.9 80.8063 307.02C80.6729 307.127 80.5596 307.247 80.4663 307.38C80.3863 307.5 80.3263 307.673 80.2863 307.9C80.2329 308.113 80.2063 308.32 80.2063 308.52V314.08C80.2063 314.52 80.2929 314.893 80.4663 315.2C80.5196 315.307 80.6129 315.427 80.7463 315.56C80.8929 315.68 81.0596 315.767 81.2463 315.82C81.4063 315.873 81.5929 315.9 81.8063 315.9C81.9929 315.9 82.1729 315.88 82.3463 315.84C82.5196 315.787 82.6796 315.7 82.8263 315.58C82.9463 315.473 83.0463 315.36 83.1263 315.24C83.2196 315.107 83.2929 314.927 83.3463 314.7C83.3863 314.487 83.4063 314.28 83.4063 314.08ZM98.0148 320.2C97.0015 320.2 96.0548 320.047 95.1748 319.74C94.2948 319.42 93.5082 318.993 92.8148 318.46C92.0948 317.927 91.4615 317.3 90.9148 316.58C90.3815 315.86 89.9615 315.02 89.6548 314.06C89.3615 313.18 89.2148 312.24 89.2148 311.24C89.2148 310.28 89.3615 309.353 89.6548 308.46C89.9482 307.567 90.3615 306.753 90.8948 306.02C91.4548 305.26 92.1015 304.613 92.8348 304.08C93.5815 303.547 94.3748 303.14 95.2148 302.86C95.6548 302.713 96.1082 302.6 96.5748 302.52C97.0415 302.44 97.5215 302.4 98.0148 302.4C98.9615 302.4 99.8815 302.553 100.775 302.86C101.682 303.167 102.495 303.58 103.215 304.1C103.922 304.633 104.548 305.273 105.095 306.02C105.655 306.753 106.082 307.567 106.375 308.46C106.508 308.9 106.615 309.353 106.695 309.82C106.775 310.287 106.815 310.76 106.815 311.24C106.815 312.04 106.688 312.9 106.435 313.82C106.195 314.74 105.755 315.647 105.115 316.54C104.582 317.287 103.942 317.933 103.195 318.48C102.448 319.027 101.648 319.447 100.795 319.74C100.355 319.887 99.9015 320 99.4348 320.08C98.9682 320.16 98.4948 320.2 98.0148 320.2ZM98.0348 315.9C98.4748 315.9 98.9148 315.827 99.3548 315.68C99.8082 315.533 100.208 315.313 100.555 315.02C100.995 314.673 101.335 314.3 101.575 313.9C101.828 313.487 102.002 313.107 102.095 312.76C102.162 312.533 102.215 312.3 102.255 312.06C102.295 311.807 102.315 311.553 102.315 311.3C102.315 310.78 102.242 310.293 102.095 309.84C101.948 309.373 101.748 308.947 101.495 308.56C101.268 308.24 100.982 307.933 100.635 307.64C100.288 307.333 99.8682 307.093 99.3748 306.92C98.9348 306.773 98.4882 306.7 98.0348 306.7C97.0748 306.7 96.2282 306.987 95.4948 307.56C95.1482 307.827 94.8348 308.16 94.5548 308.56C94.2748 308.947 94.0682 309.367 93.9348 309.82C93.8682 310.047 93.8148 310.287 93.7748 310.54C93.7348 310.793 93.7148 311.047 93.7148 311.3C93.7148 311.713 93.7748 312.153 93.8948 312.62C94.0148 313.087 94.2348 313.553 94.5548 314.02C94.8082 314.393 95.1082 314.72 95.4548 315C95.8015 315.28 96.2082 315.5 96.6748 315.66C97.1148 315.82 97.5682 315.9 98.0348 315.9ZM108.309 302.6H112.809C112.809 302.653 112.795 302.767 112.769 302.94C112.742 303.1 112.709 303.227 112.669 303.32C112.615 303.467 112.562 303.613 112.509 303.76C112.455 303.907 112.375 304.08 112.269 304.28C112.229 304.36 112.189 304.44 112.149 304.52C112.109 304.587 112.062 304.66 112.009 304.74L112.249 304.94C112.502 304.567 112.742 304.267 112.969 304.04C113.195 303.8 113.449 303.567 113.729 303.34C113.982 303.14 114.262 302.967 114.569 302.82C114.875 302.673 115.175 302.567 115.469 302.5C115.615 302.473 115.762 302.453 115.909 302.44C116.069 302.413 116.229 302.4 116.389 302.4C116.789 302.4 117.182 302.467 117.569 302.6C117.969 302.72 118.315 302.907 118.609 303.16C119.195 303.693 119.582 304.44 119.769 305.4C119.809 305.64 119.842 305.893 119.869 306.16C119.895 306.427 119.909 306.707 119.909 307V320H115.409V307.8C115.409 307.64 115.395 307.52 115.369 307.44C115.342 307.347 115.289 307.227 115.209 307.08C115.155 307 115.075 306.927 114.969 306.86C114.862 306.793 114.769 306.753 114.689 306.74C114.555 306.713 114.435 306.7 114.329 306.7C114.222 306.7 114.122 306.713 114.029 306.74C113.935 306.753 113.835 306.773 113.729 306.8C113.609 306.827 113.509 306.867 113.429 306.92C113.349 306.96 113.242 307.013 113.109 307.08C113.055 307.107 113.002 307.14 112.949 307.18C112.909 307.207 112.862 307.24 112.809 307.28V320H108.309V302.6ZM128.302 307.8V307.04C128.302 306.413 127.909 306.1 127.122 306.1C126.442 306.1 126.102 306.427 126.102 307.08C126.102 307.147 126.109 307.22 126.122 307.3C126.136 307.367 126.182 307.453 126.262 307.56C126.342 307.693 126.469 307.853 126.642 308.04C126.816 308.213 127.036 308.413 127.302 308.64C127.436 308.76 127.589 308.893 127.762 309.04C127.949 309.187 128.156 309.34 128.382 309.5C129.116 310.073 129.709 310.547 130.162 310.92C130.616 311.293 131.049 311.7 131.462 312.14C131.769 312.473 132.029 312.827 132.242 313.2C132.456 313.56 132.602 313.913 132.682 314.26C132.762 314.633 132.802 315.02 132.802 315.42C132.802 316.967 132.309 318.153 131.322 318.98C130.349 319.793 128.922 320.2 127.042 320.2C125.576 320.2 124.382 319.94 123.462 319.42C122.929 319.127 122.516 318.773 122.222 318.36C121.942 317.933 121.749 317.527 121.642 317.14C121.482 316.607 121.402 316.047 121.402 315.46V313.9H125.302V315.06C125.302 315.42 125.396 315.713 125.582 315.94C125.702 316.1 125.809 316.213 125.902 316.28C126.009 316.333 126.149 316.38 126.322 316.42C126.402 316.447 126.482 316.467 126.562 316.48C126.656 316.493 126.749 316.5 126.842 316.5C127.002 316.5 127.149 316.487 127.282 316.46C127.429 316.433 127.589 316.373 127.762 316.28C128.002 316.147 128.162 315.96 128.242 315.72C128.282 315.56 128.302 315.427 128.302 315.32C128.302 315.187 128.282 315.053 128.242 314.92C128.202 314.787 128.129 314.647 128.022 314.5C127.929 314.38 127.762 314.213 127.522 314C127.296 313.787 127.069 313.587 126.842 313.4C126.696 313.28 126.536 313.153 126.362 313.02C126.189 312.887 125.996 312.74 125.782 312.58C125.156 312.1 124.589 311.647 124.082 311.22C123.589 310.793 123.189 310.4 122.882 310.04C122.562 309.667 122.309 309.313 122.122 308.98C121.936 308.647 121.802 308.293 121.722 307.92C121.642 307.56 121.602 307.187 121.602 306.8C121.602 303.867 123.389 302.4 126.962 302.4C127.629 302.4 128.249 302.46 128.822 302.58C129.409 302.687 129.902 302.847 130.302 303.06C131.142 303.527 131.709 304.187 132.002 305.04C132.136 305.453 132.202 305.94 132.202 306.5V307.8H128.302ZM150.405 311.24V312.7H138.245C138.325 313.1 138.451 313.473 138.625 313.82C138.811 314.153 139.018 314.44 139.245 314.68C139.498 314.947 139.765 315.167 140.045 315.34C140.325 315.513 140.665 315.647 141.065 315.74C141.238 315.793 141.418 315.833 141.605 315.86C141.805 315.887 142.011 315.9 142.225 315.9C142.865 315.9 143.451 315.793 143.985 315.58C144.518 315.367 144.951 315.067 145.285 314.68C145.365 314.587 145.438 314.487 145.505 314.38C145.571 314.273 145.631 314.167 145.685 314.06H150.265C150.078 314.887 149.805 315.607 149.445 316.22C149.085 316.833 148.685 317.347 148.245 317.76C147.738 318.267 147.165 318.7 146.525 319.06C145.898 319.42 145.211 319.7 144.465 319.9C144.105 319.993 143.731 320.067 143.345 320.12C142.958 320.173 142.565 320.2 142.165 320.2C141.138 320.2 140.205 320.053 139.365 319.76C138.538 319.453 137.798 319.047 137.145 318.54C135.718 317.447 134.738 315.987 134.205 314.16C133.938 313.253 133.805 312.28 133.805 311.24C133.805 310.24 133.945 309.28 134.225 308.36C134.505 307.44 134.898 306.62 135.405 305.9C135.925 305.167 136.531 304.54 137.225 304.02C137.931 303.5 138.705 303.1 139.545 302.82C140.398 302.54 141.285 302.4 142.205 302.4C143.098 302.4 143.971 302.553 144.825 302.86C145.678 303.153 146.431 303.567 147.085 304.1C147.765 304.66 148.351 305.3 148.845 306.02C149.351 306.74 149.738 307.553 150.005 308.46C150.271 309.34 150.405 310.267 150.405 311.24ZM138.325 309.7H145.985C145.771 308.993 145.411 308.387 144.905 307.88C144.411 307.387 143.831 307.04 143.165 306.84C142.991 306.8 142.818 306.767 142.645 306.74C142.471 306.713 142.291 306.7 142.105 306.7C141.425 306.7 140.771 306.88 140.145 307.24C139.918 307.373 139.678 307.56 139.425 307.8C139.185 308.04 138.965 308.34 138.765 308.7C138.578 309.033 138.431 309.367 138.325 309.7ZM157.098 302.6H161.598C161.598 302.747 161.584 302.88 161.558 303C161.531 303.107 161.484 303.253 161.418 303.44C161.351 303.64 161.311 303.76 161.298 303.8C161.284 303.84 161.258 303.887 161.218 303.94C161.191 303.98 161.131 304.113 161.038 304.34C160.971 304.487 160.891 304.62 160.798 304.74L161.038 304.94C161.251 304.62 161.458 304.34 161.658 304.1C161.871 303.86 162.138 303.627 162.458 303.4C162.991 303.027 163.631 302.787 164.378 302.68C164.724 302.627 165.124 302.6 165.578 302.6H166.358L166.158 306.9H164.898C163.844 306.9 163.038 307.067 162.478 307.4C161.891 307.76 161.598 308.253 161.598 308.88V320H157.098V302.6ZM183.159 311.24V312.7H170.999C171.079 313.1 171.205 313.473 171.379 313.82C171.565 314.153 171.772 314.44 171.999 314.68C172.252 314.947 172.519 315.167 172.799 315.34C173.079 315.513 173.419 315.647 173.819 315.74C173.992 315.793 174.172 315.833 174.359 315.86C174.559 315.887 174.765 315.9 174.979 315.9C175.619 315.9 176.205 315.793 176.739 315.58C177.272 315.367 177.705 315.067 178.039 314.68C178.119 314.587 178.192 314.487 178.259 314.38C178.325 314.273 178.385 314.167 178.439 314.06H183.019C182.832 314.887 182.559 315.607 182.199 316.22C181.839 316.833 181.439 317.347 180.999 317.76C180.492 318.267 179.919 318.7 179.279 319.06C178.652 319.42 177.965 319.7 177.219 319.9C176.859 319.993 176.485 320.067 176.099 320.12C175.712 320.173 175.319 320.2 174.919 320.2C173.892 320.2 172.959 320.053 172.119 319.76C171.292 319.453 170.552 319.047 169.899 318.54C168.472 317.447 167.492 315.987 166.959 314.16C166.692 313.253 166.559 312.28 166.559 311.24C166.559 310.24 166.699 309.28 166.979 308.36C167.259 307.44 167.652 306.62 168.159 305.9C168.679 305.167 169.285 304.54 169.979 304.02C170.685 303.5 171.459 303.1 172.299 302.82C173.152 302.54 174.039 302.4 174.959 302.4C175.852 302.4 176.725 302.553 177.579 302.86C178.432 303.153 179.185 303.567 179.839 304.1C180.519 304.66 181.105 305.3 181.599 306.02C182.105 306.74 182.492 307.553 182.759 308.46C183.025 309.34 183.159 310.267 183.159 311.24ZM171.079 309.7H178.739C178.525 308.993 178.165 308.387 177.659 307.88C177.165 307.387 176.585 307.04 175.919 306.84C175.745 306.8 175.572 306.767 175.399 306.74C175.225 306.713 175.045 306.7 174.859 306.7C174.179 306.7 173.525 306.88 172.899 307.24C172.672 307.373 172.432 307.56 172.179 307.8C171.939 308.04 171.719 308.34 171.519 308.7C171.332 309.033 171.185 309.367 171.079 309.7ZM185.736 326L185.936 321.7H191.356C191.756 321.7 191.956 321.5 191.956 321.1V317.96C191.77 318.147 191.563 318.327 191.336 318.5C191.11 318.673 190.856 318.827 190.576 318.96C190.256 319.12 189.976 319.24 189.736 319.32C189.496 319.4 189.223 319.467 188.916 319.52C188.623 319.573 188.33 319.6 188.036 319.6C187.556 319.6 187.13 319.533 186.756 319.4C186.396 319.267 186.07 319.073 185.776 318.82C185.176 318.313 184.79 317.533 184.616 316.48C184.563 316.213 184.523 315.933 184.496 315.64C184.47 315.347 184.456 315.033 184.456 314.7V307.22C184.456 306.607 184.523 306.047 184.656 305.54C184.79 305.033 184.963 304.6 185.176 304.24C185.39 303.867 185.656 303.54 185.976 303.26C186.31 302.967 186.683 302.753 187.096 302.62C187.296 302.553 187.51 302.5 187.736 302.46C187.963 302.42 188.196 302.4 188.436 302.4C188.716 302.4 189.01 302.433 189.316 302.5C189.623 302.553 189.916 302.647 190.196 302.78C190.476 302.927 190.75 303.113 191.016 303.34C191.296 303.553 191.55 303.773 191.776 304C192.016 304.253 192.263 304.567 192.516 304.94L192.756 304.74C192.69 304.62 192.61 304.48 192.516 304.32C192.423 304.147 192.35 303.987 192.296 303.84C192.243 303.72 192.183 303.573 192.116 303.4C192.063 303.227 192.023 303.073 191.996 302.94C191.97 302.807 191.956 302.693 191.956 302.6H196.456V322C196.456 323.067 196.243 323.92 195.816 324.56C195.39 325.2 194.75 325.627 193.896 325.84C193.47 325.947 192.99 326 192.456 326H185.736ZM192.156 313.6V308.4C192.156 307.987 192.07 307.633 191.896 307.34C191.803 307.18 191.683 307.06 191.536 306.98C191.39 306.887 191.256 306.82 191.136 306.78C190.963 306.727 190.77 306.7 190.556 306.7C190.383 306.7 190.203 306.727 190.016 306.78C189.83 306.82 189.676 306.887 189.556 306.98C189.423 307.087 189.31 307.207 189.216 307.34C189.136 307.46 189.076 307.613 189.036 307.8C188.983 308.013 188.956 308.213 188.956 308.4V313.6C188.956 314.013 189.043 314.367 189.216 314.66C189.31 314.82 189.43 314.947 189.576 315.04C189.723 315.12 189.863 315.18 189.996 315.22C190.156 315.273 190.343 315.3 190.556 315.3C190.73 315.3 190.91 315.28 191.096 315.24C191.283 315.187 191.443 315.107 191.576 315C191.696 314.907 191.796 314.8 191.876 314.68C191.97 314.547 192.043 314.38 192.096 314.18C192.136 313.98 192.156 313.787 192.156 313.6ZM198.465 315.6V302.6H202.965V314.8C202.965 315.08 203.032 315.32 203.165 315.52C203.205 315.587 203.272 315.653 203.365 315.72C203.472 315.787 203.585 315.833 203.705 315.86C203.825 315.887 203.938 315.9 204.045 315.9C204.152 315.9 204.252 315.893 204.345 315.88C204.438 315.853 204.538 315.827 204.645 315.8C204.765 315.773 204.865 315.74 204.945 315.7C205.025 315.647 205.132 315.587 205.265 315.52C205.318 315.493 205.365 315.467 205.405 315.44C205.458 315.4 205.512 315.36 205.565 315.32V302.6H210.065V320H205.565C205.565 319.867 205.578 319.733 205.605 319.6C205.632 319.467 205.672 319.307 205.725 319.12C205.752 318.987 205.798 318.827 205.865 318.64C205.932 318.453 205.998 318.293 206.065 318.16C206.105 318.093 206.145 318.027 206.185 317.96C206.212 317.893 206.245 317.833 206.285 317.78L206.125 317.66C205.885 317.98 205.638 318.28 205.385 318.56C205.145 318.84 204.892 319.073 204.625 319.26C204.345 319.46 204.065 319.633 203.785 319.78C203.518 319.913 203.225 320.013 202.905 320.08C202.758 320.12 202.605 320.147 202.445 320.16C202.298 320.187 202.145 320.2 201.985 320.2C201.145 320.2 200.418 319.933 199.805 319.4C199.512 319.147 199.265 318.827 199.065 318.44C198.878 318.053 198.732 317.633 198.625 317.18C198.518 316.7 198.465 316.173 198.465 315.6ZM216.559 320H212.059V296H216.559V320ZM218.063 315.48C218.063 314.787 218.156 314.153 218.343 313.58C218.529 312.993 218.823 312.467 219.223 312C219.623 311.533 220.116 311.14 220.703 310.82C221.303 310.487 222.009 310.2 222.823 309.96C223.236 309.84 223.676 309.74 224.143 309.66C224.609 309.567 225.103 309.487 225.623 309.42V308.1C225.623 307.967 225.596 307.82 225.543 307.66C225.503 307.487 225.449 307.353 225.383 307.26C225.303 307.153 225.216 307.06 225.123 306.98C225.029 306.887 224.903 306.813 224.743 306.76C224.583 306.72 224.436 306.7 224.303 306.7C224.183 306.7 224.036 306.72 223.863 306.76C223.703 306.8 223.576 306.86 223.483 306.94C223.269 307.1 223.123 307.32 223.043 307.6C222.989 307.76 222.963 307.907 222.963 308.04V308.5H218.563V307.32C218.563 306.733 218.643 306.173 218.803 305.64C218.976 305.107 219.223 304.64 219.543 304.24C220.196 303.453 221.136 302.907 222.363 302.6C222.656 302.533 222.969 302.487 223.303 302.46C223.649 302.42 224.003 302.4 224.363 302.4C226.189 302.4 227.609 302.833 228.623 303.7C229.623 304.567 230.123 305.773 230.123 307.32V320H225.623C225.623 319.88 225.636 319.74 225.663 319.58C225.689 319.407 225.723 319.26 225.763 319.14C225.816 318.993 225.869 318.853 225.923 318.72C225.989 318.573 226.063 318.42 226.143 318.26C226.209 318.14 226.303 318.007 226.423 317.86L226.183 317.66C225.969 318.033 225.749 318.347 225.523 318.6C225.309 318.84 225.076 319.06 224.823 319.26C224.583 319.46 224.316 319.633 224.023 319.78C223.743 319.913 223.423 320.013 223.063 320.08C222.903 320.12 222.736 320.147 222.562 320.16C222.403 320.187 222.236 320.2 222.063 320.2C221.623 320.2 221.189 320.133 220.763 320C220.349 319.88 219.956 319.667 219.583 319.36C219.249 319.107 218.969 318.78 218.743 318.38C218.516 317.967 218.349 317.527 218.243 317.06C218.176 316.82 218.129 316.567 218.103 316.3C218.076 316.033 218.063 315.76 218.063 315.48ZM222.663 314.8C222.663 315 222.683 315.187 222.723 315.36C222.776 315.52 222.836 315.64 222.903 315.72C223.076 315.987 223.309 316.153 223.603 316.22C223.763 316.273 223.916 316.3 224.063 316.3C224.516 316.3 225.036 316.133 225.623 315.8V312.1C225.223 312.233 224.863 312.367 224.543 312.5C224.223 312.633 223.943 312.793 223.703 312.98C223.489 313.14 223.296 313.313 223.123 313.5C222.963 313.687 222.849 313.893 222.783 314.12C222.703 314.36 222.663 314.587 222.663 314.8ZM232.117 302.6H236.617C236.617 302.747 236.604 302.88 236.577 303C236.551 303.107 236.504 303.253 236.437 303.44C236.371 303.64 236.331 303.76 236.317 303.8C236.304 303.84 236.277 303.887 236.237 303.94C236.211 303.98 236.151 304.113 236.057 304.34C235.991 304.487 235.911 304.62 235.817 304.74L236.057 304.94C236.271 304.62 236.477 304.34 236.677 304.1C236.891 303.86 237.157 303.627 237.477 303.4C238.011 303.027 238.651 302.787 239.397 302.68C239.744 302.627 240.144 302.6 240.597 302.6H241.377L241.177 306.9H239.917C238.864 306.9 238.057 307.067 237.497 307.4C236.911 307.76 236.617 308.253 236.617 308.88V320H232.117V302.6Z" fill="#1A1A1A"/>
</svg>
