<svg width="643" height="360" viewBox="0 0 643 360" fill="none" xmlns="http://www.w3.org/2000/svg">
<rect width="643" height="360" rx="12" fill="#E6E2DE"/>
<path d="M37.92 270L73.12 180.4H87.712L122.912 270H108.576L98.976 245.424H61.856L52.256 270H37.92ZM66.848 232.88H93.984L80.416 198.32L66.848 232.88ZM158.953 271.408C140.137 271.408 125.545 256.304 125.545 237.488C125.545 218.672 140.137 203.568 158.953 203.568C168.809 203.568 176.873 207.792 182.633 213.808V205.104H195.177V270H182.633V261.168C176.873 267.312 168.809 271.408 158.953 271.408ZM138.217 237.488C138.217 249.392 148.201 258.864 160.105 258.864C172.009 258.864 182.121 249.392 182.121 237.488C182.121 225.584 172.009 216.112 160.105 216.112C148.201 216.112 138.217 225.584 138.217 237.488Z" fill="#1A1A1A"/>
<path d="M37.1 320V309.86H39.06V311.04C39.72 310.18 40.68 309.62 41.96 309.62C43.6 309.62 44.78 310.46 45.46 311.64C46.26 310.44 47.5 309.62 49.08 309.62C51.84 309.62 53.3 311.98 53.3 314.4V320H51.34V314.4C51.34 312.92 50.42 311.58 48.9 311.58C47.02 311.58 46.18 313.18 46.18 314.96V320H44.22V314.4C44.22 312.92 43.3 311.58 41.78 311.58C39.9 311.58 39.06 313.18 39.06 314.96V320H37.1ZM59.9184 320.22C56.9784 320.22 54.6984 317.86 54.6984 314.92C54.6984 311.98 56.9784 309.62 59.9184 309.62C61.4584 309.62 62.7184 310.28 63.6184 311.22V309.86H65.5784V320H63.6184V318.62C62.7184 319.58 61.4584 320.22 59.9184 320.22ZM56.6784 314.92C56.6784 316.78 58.2384 318.26 60.0984 318.26C61.9584 318.26 63.5384 316.78 63.5384 314.92C63.5384 313.06 61.9584 311.58 60.0984 311.58C58.2384 311.58 56.6784 313.06 56.6784 314.92ZM72.1942 320.22C69.2542 320.22 66.9742 317.86 66.9742 314.92C66.9742 311.98 69.2542 309.62 72.1942 309.62C73.7142 309.62 74.9942 310.28 75.8942 311.22V305.1H77.8542V320H75.8942V318.62C74.9942 319.58 73.7142 320.22 72.1942 320.22ZM68.9542 314.92C68.9542 316.78 70.5142 318.26 72.3742 318.26C74.2342 318.26 75.7942 316.78 75.7942 314.92C75.7942 313.06 74.2342 311.58 72.3742 311.58C70.5142 311.58 68.9542 313.06 68.9542 314.92ZM84.65 320.22C81.65 320.22 79.25 317.86 79.25 314.92C79.25 311.98 81.49 309.62 84.43 309.62C87.31 309.62 89.91 311.84 89.59 315.76H81.33C81.71 317.2 83.03 318.26 84.65 318.26C85.81 318.26 86.87 317.8 87.55 316.92L89.27 317.76C88.33 319.3 86.57 320.22 84.65 320.22ZM81.35 313.98H87.53C87.19 312.44 85.99 311.58 84.43 311.58C82.89 311.58 81.71 312.58 81.35 313.98ZM100.413 320.22C97.4725 320.22 95.0125 317.86 95.0125 314.92C95.0125 311.98 97.4725 309.62 100.413 309.62C103.353 309.62 105.813 311.98 105.813 314.92C105.813 317.86 103.353 320.22 100.413 320.22ZM96.9925 314.92C96.9925 316.78 98.5525 318.26 100.413 318.26C102.273 318.26 103.853 316.78 103.853 314.92C103.853 313.06 102.273 311.58 100.413 311.58C98.5525 311.58 96.9925 313.06 96.9925 314.92ZM107.22 320V305.1H109.18V314.52L112.78 309.86H115.08L111.46 314.52L115.7 320H113.24L109.18 314.72V320H107.22ZM116.567 320V309.86H118.507V320H116.567ZM116.407 306.9C116.407 306.28 116.927 305.78 117.527 305.78C118.147 305.78 118.667 306.28 118.667 306.9C118.667 307.52 118.147 308.02 117.527 308.02C116.927 308.02 116.407 307.52 116.407 306.9ZM120.365 320V309.86H122.325V311.24C123.065 310.26 124.145 309.62 125.585 309.62C128.325 309.62 130.065 311.82 130.065 314.56V320H128.105V314.56C128.105 312.76 126.925 311.58 125.405 311.58C123.465 311.58 122.325 313.2 122.325 315.14V320H120.365ZM136.859 320.22C133.859 320.22 131.459 317.86 131.459 314.92C131.459 311.98 133.699 309.62 136.639 309.62C139.519 309.62 142.119 311.84 141.799 315.76H133.539C133.919 317.2 135.239 318.26 136.859 318.26C138.019 318.26 139.079 317.8 139.759 316.92L141.479 317.76C140.539 319.3 138.779 320.22 136.859 320.22ZM133.559 313.98H139.739C139.399 312.44 138.199 311.58 136.639 311.58C135.099 311.58 133.919 312.58 133.559 313.98ZM151.022 320.24C148.582 320.24 147.282 318.86 147.122 317.44L149.062 317.2C149.122 317.64 149.582 318.34 151.022 318.34C152.022 318.34 152.782 317.9 152.782 317.04C152.782 316.36 152.142 316.14 150.582 315.72C148.962 315.28 147.502 314.54 147.502 312.48C147.502 310.84 149.022 309.64 150.822 309.64C152.422 309.64 153.902 310.6 154.162 312.04L152.182 312.36C152.062 312 151.722 311.52 150.822 311.52C150.082 311.52 149.502 311.92 149.502 312.58C149.502 313.16 149.922 313.52 151.382 313.94C152.682 314.3 154.762 314.78 154.762 316.98C154.762 319.1 152.922 320.24 151.022 320.24ZM160.89 320.22C157.95 320.22 155.67 317.86 155.67 314.92C155.67 311.98 157.95 309.62 160.89 309.62C162.43 309.62 163.69 310.28 164.59 311.22V309.86H166.55V320H164.59V318.62C163.69 319.58 162.43 320.22 160.89 320.22ZM157.65 314.92C157.65 316.78 159.21 318.26 161.07 318.26C162.93 318.26 164.51 316.78 164.51 314.92C164.51 313.06 162.93 311.58 161.07 311.58C159.21 311.58 157.65 313.06 157.65 314.92ZM168.345 320V309.86H170.305V311.24C171.045 310.26 172.125 309.62 173.565 309.62C176.305 309.62 178.045 311.82 178.045 314.56V320H176.085V314.56C176.085 312.76 174.905 311.58 173.385 311.58C171.445 311.58 170.305 313.2 170.305 315.14V320H168.345ZM183.045 320.24C180.605 320.24 179.305 318.86 179.145 317.44L181.085 317.2C181.145 317.64 181.605 318.34 183.045 318.34C184.045 318.34 184.805 317.9 184.805 317.04C184.805 316.36 184.165 316.14 182.605 315.72C180.985 315.28 179.525 314.54 179.525 312.48C179.525 310.84 181.045 309.64 182.845 309.64C184.445 309.64 185.925 310.6 186.185 312.04L184.205 312.36C184.085 312 183.745 311.52 182.845 311.52C182.105 311.52 181.525 311.92 181.525 312.58C181.525 313.16 181.945 313.52 183.405 313.94C184.705 314.3 186.785 314.78 186.785 316.98C186.785 319.1 184.945 320.24 183.045 320.24Z" fill="#1A1A1A"/>
<rect x="201.5" y="308" width="10" height="1.5" rx="0.75" transform="rotate(90 201.5 308)" fill="#1A1A1A"/>
<path d="M214.6 320V309.86H216.56V311.5C217.3 310.28 218.46 309.64 220 309.64V311.6C217.82 311.6 216.56 312.66 216.56 315.86V320H214.6ZM226.114 320.22C223.114 320.22 220.714 317.86 220.714 314.92C220.714 311.98 222.954 309.62 225.894 309.62C228.774 309.62 231.374 311.84 231.054 315.76H222.794C223.174 317.2 224.494 318.26 226.114 318.26C227.274 318.26 228.334 317.8 229.014 316.92L230.734 317.76C229.794 319.3 228.034 320.22 226.114 320.22ZM222.814 313.98H228.994C228.654 312.44 227.454 311.58 225.894 311.58C224.354 311.58 223.174 312.58 222.814 313.98ZM237.812 324.74C235.712 324.74 233.812 323.7 232.892 322.12L234.672 321.26C235.272 322.2 236.472 322.78 237.812 322.78C239.672 322.78 240.992 321.78 240.992 319.62V318.62C240.072 319.58 238.812 320.22 237.292 320.22C234.352 320.22 232.072 317.86 232.072 314.92C232.072 311.98 234.352 309.62 237.292 309.62C238.812 309.62 240.072 310.28 240.992 311.22V309.86H242.932V319.62C242.932 322.86 240.752 324.74 237.812 324.74ZM234.032 314.92C234.032 316.78 235.612 318.26 237.472 318.26C239.332 318.26 240.892 316.78 240.892 314.92C240.892 313.06 239.332 311.58 237.472 311.58C235.612 311.58 234.032 313.06 234.032 314.92ZM249.208 320.24C246.468 320.24 244.728 318.04 244.728 315.3V309.86H246.688V315.3C246.688 317.1 247.868 318.28 249.388 318.28C251.328 318.28 252.468 316.66 252.468 314.72V309.86H254.428V320H252.468V318.62C251.728 319.62 250.648 320.24 249.208 320.24ZM256.223 320V305.1H258.183V320H256.223ZM264.803 320.22C261.863 320.22 259.583 317.86 259.583 314.92C259.583 311.98 261.863 309.62 264.803 309.62C266.343 309.62 267.603 310.28 268.503 311.22V309.86H270.463V320H268.503V318.62C267.603 319.58 266.343 320.22 264.803 320.22ZM261.563 314.92C261.563 316.78 263.123 318.26 264.983 318.26C266.843 318.26 268.423 316.78 268.423 314.92C268.423 313.06 266.843 311.58 264.983 311.58C263.123 311.58 261.563 313.06 261.563 314.92ZM272.259 320V309.86H274.219V311.5C274.959 310.28 276.119 309.64 277.659 309.64V311.6C275.479 311.6 274.219 312.66 274.219 315.86V320H272.259Z" fill="#1A1A1A"/>
<rect x="292" y="308" width="10" height="1.5" rx="0.75" transform="rotate(90 292 308)" fill="#1A1A1A"/>
<path d="M305 320V309.86H307.68V310.68C308.32 310.02 309.18 309.64 310.22 309.64C311.86 309.64 313.06 310.32 313.78 311.4C314.6 310.3 315.78 309.64 317.26 309.64C320.26 309.64 321.74 311.92 321.74 314.76V320H319.06V314.76C319.06 313.52 318.36 312.3 316.9 312.3C315.36 312.3 314.7 313.66 314.7 315.14V320H312.04V314.76C312.04 313.52 311.32 312.3 309.86 312.3C308.32 312.3 307.68 313.66 307.68 315.14V320H305ZM328.39 320.22C325.47 320.22 322.93 317.86 322.93 314.92C322.93 312 325.33 309.64 328.21 309.64C331.19 309.64 333.89 312.26 333.27 315.94H325.83C326.19 317.02 327.09 317.74 328.39 317.74C329.53 317.74 330.29 317.3 330.77 316.68L332.99 317.74C332.09 319.34 330.49 320.22 328.39 320.22ZM325.89 313.8H330.57C330.27 312.84 329.49 312.12 328.21 312.12C327.07 312.12 326.25 312.86 325.89 313.8ZM339.212 320.22C336.352 320.22 334.152 317.86 334.152 314.92C334.152 312 336.352 309.64 339.212 309.64C340.432 309.64 341.512 310.06 342.352 310.76V305.1H345.032V320H342.352V319.1C341.512 319.8 340.432 320.22 339.212 320.22ZM336.912 314.92C336.912 316.38 338.092 317.56 339.552 317.56C341.012 317.56 342.192 316.38 342.192 314.92C342.192 313.48 341.012 312.3 339.552 312.3C338.092 312.3 336.912 313.48 336.912 314.92ZM346.752 320V309.86H349.412V320H346.752ZM346.632 306.9C346.632 306.1 347.272 305.44 348.072 305.44C348.872 305.44 349.532 306.1 349.532 306.9C349.532 307.7 348.872 308.36 348.072 308.36C347.272 308.36 346.632 307.7 346.632 306.9ZM355.794 320.22C352.654 320.22 351.134 317.94 351.134 315.1V309.86H353.814V315.1C353.814 316.34 354.554 317.56 356.154 317.56C357.834 317.56 358.534 316.2 358.534 314.72V309.86H361.194V320H358.534V319.14C357.834 319.82 356.934 320.22 355.794 320.22ZM362.785 320V309.86H365.465V310.68C366.105 310.02 366.965 309.64 368.005 309.64C369.645 309.64 370.845 310.32 371.565 311.4C372.385 310.3 373.565 309.64 375.045 309.64C378.045 309.64 379.525 311.92 379.525 314.76V320H376.845V314.76C376.845 313.52 376.145 312.3 374.685 312.3C373.145 312.3 372.485 313.66 372.485 315.14V320H369.825V314.76C369.825 313.52 369.105 312.3 367.645 312.3C366.105 312.3 365.465 313.66 365.465 315.14V320H362.785Z" fill="#1A1A1A"/>
</svg>
