<svg width="482" height="615" viewBox="0 0 482 615" fill="none" xmlns="http://www.w3.org/2000/svg">
<rect width="420" height="318" rx="12" fill="#CCBCFB"/>
<g filter="url(#filter0_dddd_1274_911)">
<path d="M215 42.4238H384.924V275.576H215V42.4238Z" fill="white"/>
</g>
<path fill-rule="evenodd" clip-rule="evenodd" d="M281.485 165.881C281.485 162.412 282.849 158.943 285.566 156.309L287.705 154.239L298.247 144.038L315.446 127.387L306.912 118.791C305.166 117.1 302.754 116.048 300.092 116.048C297.429 116.048 295.137 117.046 293.413 118.661L266.719 144.341C265.082 146.011 264.078 148.266 264.078 150.748V193.524C264.078 198.196 268.029 202.012 272.852 202.012H282.51L278.254 197.893C277.043 196.722 277.043 194.814 278.254 193.643C279.466 192.472 281.43 192.472 282.641 193.643L291.285 202.012H304.533L294.821 192.602C293.609 191.432 293.609 189.524 294.821 188.353C296.032 187.182 297.996 187.182 299.208 188.353L313.318 202.012H326.567L311.387 187.323C310.175 186.152 310.175 184.245 311.387 183.074C312.598 181.903 314.562 181.903 315.774 183.074L333.279 200.017C335.188 198.456 336.411 196.126 336.411 193.524V189.491L313.635 167.442L305.352 175.464C302.634 178.098 299.044 179.421 295.464 179.421C291.885 179.421 288.294 178.098 285.577 175.464C282.86 172.83 281.496 169.361 281.496 165.892" fill="#03323A" fill-opacity="0.04"/>
<path fill-rule="evenodd" clip-rule="evenodd" d="M292.106 158.488L289.967 160.559C288.461 162.022 287.697 163.952 287.697 165.881C287.697 167.811 288.45 169.741 289.967 171.204C291.473 172.667 293.47 173.394 295.467 173.394C297.464 173.394 299.461 172.657 300.967 171.204L313.637 158.933L313.703 158.998L318.035 163.193L336.424 180.993V152.255C336.424 149.794 335.442 147.561 333.838 145.903L319.76 131.724L302.648 148.298L292.106 158.499V158.488Z" fill="#03323A" fill-opacity="0.04"/>
<path fill-rule="evenodd" clip-rule="evenodd" d="M228.835 59.3771C228.835 59.0434 228.966 58.7097 229.227 58.4563L229.433 58.2571L230.447 57.2757L232.102 55.6739L231.281 54.8469C231.113 54.6842 230.881 54.583 230.625 54.583C230.369 54.583 230.148 54.679 229.982 54.8343L227.414 57.3049C227.257 57.4655 227.16 57.6824 227.16 57.9213V62.0365C227.16 62.4859 227.54 62.853 228.004 62.853H228.933L228.524 62.4567C228.407 62.3441 228.407 62.1606 228.524 62.0479C228.641 61.9353 228.829 61.9353 228.946 62.0479L229.778 62.853H231.052L230.118 61.9478C230.001 61.8352 230.001 61.6516 230.118 61.539C230.234 61.4264 230.423 61.4264 230.54 61.539L231.897 62.853H233.172L231.711 61.4399C231.595 61.3273 231.595 61.1437 231.711 61.0311C231.828 60.9185 232.017 60.9185 232.133 61.0311L233.818 62.6611C234.001 62.511 234.119 62.2867 234.119 62.0365V61.6485L231.928 59.5273L231.131 60.299C230.869 60.5524 230.524 60.6797 230.18 60.6797C229.835 60.6797 229.49 60.5524 229.228 60.299C228.967 60.0456 228.836 59.7119 228.836 59.3782" fill="#03323A"/>
<path fill-rule="evenodd" clip-rule="evenodd" d="M229.855 58.6662L229.65 58.8654C229.505 59.0062 229.431 59.1918 229.431 59.3774C229.431 59.563 229.504 59.7487 229.65 59.8895C229.794 60.0303 229.987 60.1001 230.179 60.1001C230.371 60.1001 230.563 60.0292 230.708 59.8895L231.927 58.7089L231.933 58.7152L232.35 59.1188L234.119 60.8312V58.0665C234.119 57.8298 234.024 57.615 233.87 57.4554L232.516 56.0913L230.869 57.6859L229.855 58.6672V58.6662Z" fill="#03323A"/>
<path d="M240.169 60.5958C240.169 61.9172 239.321 62.8537 238.157 62.8537C237.476 62.8537 236.953 62.5231 236.637 62.035V62.7588H235.742V56.7007H236.637V59.1713C236.954 58.6759 237.477 58.337 238.165 58.337C239.306 58.337 240.17 59.2735 240.17 60.5948L240.169 60.5958ZM239.265 60.5958C239.265 59.7699 238.726 59.1879 237.966 59.1879C237.206 59.1879 236.627 59.7699 236.627 60.5958C236.627 61.4218 237.206 62.0037 237.966 62.0037C238.726 62.0037 239.265 61.4291 239.265 60.5958Z" fill="#03323A"/>
<path d="M241.792 57.0238C241.792 57.3461 241.546 57.5828 241.206 57.5828C240.866 57.5828 240.627 57.3471 240.627 57.0238C240.627 56.7005 240.88 56.4805 241.206 56.4805C241.531 56.4805 241.792 56.7089 241.792 57.0238ZM240.762 58.4317H241.656V62.7586H240.762V58.4317Z" fill="#03323A"/>
<path d="M246.726 56.7017V62.7597H245.831V62.036C245.507 62.524 244.984 62.8546 244.303 62.8546C243.138 62.8546 242.291 61.9181 242.291 60.5968C242.291 59.2755 243.154 58.339 244.295 58.339C244.984 58.339 245.507 58.6769 245.832 59.1733V56.7027H246.727L246.726 56.7017ZM245.83 60.5958C245.83 59.7698 245.252 59.1879 244.492 59.1879C243.731 59.1879 243.193 59.7698 243.193 60.5958C243.193 61.4217 243.74 62.0036 244.492 62.0036C245.243 62.0036 245.83 61.429 245.83 60.5958Z" fill="#03323A"/>
<path d="M251.795 56.7017V62.7597H250.9V62.036C250.576 62.524 250.053 62.8546 249.371 62.8546C248.207 62.8546 247.36 61.9181 247.36 60.5968C247.36 59.2755 248.223 58.339 249.364 58.339C250.053 58.339 250.576 58.6769 250.901 59.1733V56.7027H251.796L251.795 56.7017ZM250.9 60.5958C250.9 59.7698 250.322 59.1879 249.561 59.1879C248.801 59.1879 248.263 59.7698 248.263 60.5958C248.263 61.4217 248.81 62.0036 249.561 62.0036C250.313 62.0036 250.9 61.429 250.9 60.5958Z" fill="#03323A"/>
<path d="M252.533 56.7017H253.436V62.7597H252.533V56.7017Z" fill="#03323A"/>
<path d="M258.456 60.8394H254.916C254.987 61.6341 255.549 62.0742 256.278 62.0742C256.801 62.0742 257.237 61.8541 257.443 61.4286H258.37C258.03 62.3964 257.198 62.8522 256.271 62.8522C254.948 62.8522 254.005 61.9083 254.005 60.6016C254.005 59.2949 254.94 58.3354 256.254 58.3354C257.656 58.3354 258.543 59.4138 258.456 60.8373V60.8394ZM254.964 60.1156H257.498C257.364 59.5254 256.913 59.1082 256.255 59.1082C255.598 59.1082 255.115 59.5327 254.964 60.1156Z" fill="#03323A"/>
<path d="M263.328 60.8394H259.788C259.859 61.6341 260.421 62.0742 261.15 62.0742C261.673 62.0742 262.109 61.8541 262.315 61.4286H263.242C262.902 62.3964 262.069 62.8522 261.143 62.8522C259.82 62.8522 258.877 61.9083 258.877 60.6016C258.877 59.2949 259.812 58.3354 261.126 58.3354C262.528 58.3354 263.415 59.4138 263.328 60.8373V60.8394ZM259.835 60.1156H262.369C262.235 59.5254 261.784 59.1082 261.126 59.1082C260.469 59.1082 259.986 59.5327 259.835 60.1156Z" fill="#03323A"/>
<path d="M253.653 263.416V261.578H254.102V261.866C254.193 261.68 254.375 261.549 254.634 261.549C254.926 261.549 255.127 261.673 255.207 261.899C255.291 261.709 255.524 261.549 255.816 261.549C256.214 261.549 256.469 261.837 256.469 262.227V263.416H256.024V262.362C256.024 262.103 255.889 261.932 255.674 261.932C255.433 261.932 255.283 262.103 255.283 262.362V263.416H254.838V262.362C254.838 262.103 254.703 261.932 254.488 261.932C254.251 261.932 254.102 262.103 254.102 262.362V263.416H253.653Z" fill="#03323A"/>
<path d="M252.391 263.446C251.829 263.446 251.428 263.045 251.428 262.498C251.428 261.95 251.829 261.549 252.391 261.549C252.95 261.549 253.351 261.95 253.351 262.498C253.351 263.045 252.95 263.446 252.391 263.446ZM252.391 263.06C252.694 263.06 252.898 262.83 252.898 262.498C252.898 262.166 252.694 261.936 252.391 261.936C252.085 261.936 251.88 262.166 251.88 262.498C251.88 262.83 252.085 263.06 252.391 263.06Z" fill="#03323A"/>
<path d="M250.349 263.446C249.776 263.446 249.415 263.023 249.415 262.498C249.415 261.972 249.776 261.549 250.349 261.549C250.813 261.549 251.189 261.826 251.229 262.25H250.784C250.751 262.067 250.572 261.936 250.36 261.936C250.05 261.936 249.882 262.177 249.882 262.498C249.882 262.819 250.054 263.06 250.368 263.06C250.579 263.06 250.743 262.939 250.787 262.757H251.24C251.181 263.158 250.824 263.446 250.349 263.446Z" fill="#03323A"/>
<path d="M248.682 262.943H249.167V263.417H248.682V262.943Z" fill="#03323A"/>
<path d="M247.998 262.804H248.436C248.367 263.195 248.024 263.446 247.571 263.446C246.969 263.446 246.633 262.972 246.633 262.49C246.633 262.005 246.933 261.549 247.535 261.549C248.151 261.549 248.429 261.998 248.429 262.436C248.429 262.498 248.425 262.552 248.421 262.589H247.064C247.097 262.884 247.287 263.074 247.571 263.074C247.801 263.074 247.951 262.979 247.998 262.804ZM247.535 261.885C247.283 261.885 247.122 262.016 247.075 262.293H247.98C247.962 262.06 247.801 261.885 247.535 261.885Z" fill="#03323A"/>
<path d="M245.993 262.804H246.431C246.361 263.195 246.018 263.446 245.566 263.446C244.964 263.446 244.628 262.972 244.628 262.49C244.628 262.005 244.927 261.549 245.529 261.549C246.146 261.549 246.423 261.998 246.423 262.436C246.423 262.498 246.42 262.552 246.416 262.589H245.059C245.091 262.884 245.281 263.074 245.566 263.074C245.796 263.074 245.945 262.979 245.993 262.804ZM245.529 261.885C245.278 261.885 245.117 262.016 245.069 262.293H245.975C245.956 262.06 245.796 261.885 245.529 261.885Z" fill="#03323A"/>
<path d="M243.854 263.416V260.79H244.3V263.416H243.854Z" fill="#03323A"/>
<path d="M242.425 263.445C241.874 263.445 241.55 263.058 241.55 262.497C241.55 261.935 241.874 261.548 242.418 261.548C242.659 261.548 242.852 261.65 242.958 261.8V260.79H243.403V263.416H242.958V263.186C242.852 263.347 242.648 263.445 242.425 263.445ZM242.491 263.058C242.79 263.058 242.987 262.836 242.987 262.497C242.987 262.157 242.79 261.935 242.491 261.935C242.192 261.935 241.995 262.157 241.995 262.497C241.995 262.836 242.192 263.058 242.491 263.058Z" fill="#03323A"/>
<path d="M240.246 263.445C239.695 263.445 239.371 263.058 239.371 262.497C239.371 261.935 239.695 261.548 240.239 261.548C240.48 261.548 240.673 261.65 240.779 261.8V260.79H241.224V263.416H240.779V263.186C240.673 263.347 240.469 263.445 240.246 263.445ZM240.312 263.058C240.611 263.058 240.808 262.836 240.808 262.497C240.808 262.157 240.611 261.935 240.312 261.935C240.013 261.935 239.816 262.157 239.816 262.497C239.816 262.836 240.013 263.058 240.312 263.058Z" fill="#03323A"/>
<path d="M238.599 260.79H239.081V261.289H238.599V260.79ZM238.617 263.416V261.577H239.066V263.416H238.617Z" fill="#03323A"/>
<path d="M237.436 263.445C237.214 263.445 237.009 263.347 236.904 263.186V263.416H236.458V260.79H236.904V261.8C237.009 261.65 237.206 261.548 237.443 261.548C237.987 261.548 238.312 261.935 238.312 262.497C238.312 263.058 237.987 263.445 237.436 263.445ZM237.37 263.058C237.67 263.058 237.867 262.836 237.867 262.497C237.867 262.157 237.67 261.935 237.37 261.935C237.071 261.935 236.874 262.157 236.874 262.497C236.874 262.836 237.071 263.058 237.37 263.058Z" fill="#03323A"/>
<path d="M235.49 262.943H235.976V263.417H235.49V262.943Z" fill="#03323A"/>
<path d="M233.387 263.417L232.8 261.579H233.248L233.584 262.808L233.945 261.579H234.357L234.719 262.808L235.058 261.579H235.503L234.919 263.417H234.522L234.153 262.18L233.781 263.417H233.387Z" fill="#03323A"/>
<path d="M230.591 263.417L230.003 261.579H230.452L230.788 262.808L231.149 261.579H231.561L231.922 262.808L232.261 261.579H232.706L232.123 263.417H231.725L231.357 262.18L230.985 263.417H230.591Z" fill="#03323A"/>
<path d="M227.794 263.417L227.207 261.579H227.656L227.991 262.808L228.352 261.579H228.765L229.126 262.808L229.465 261.579H229.91L229.326 263.417H228.929L228.56 262.18L228.188 263.417H227.794Z" fill="#03323A"/>
<path d="M313.786 263.417C313.786 262.968 313.859 262.607 314.151 262.14L314.694 261.279H313.348V260.863H315.227V261.243L314.563 262.3C314.322 262.68 314.267 262.997 314.264 263.417H313.786Z" fill="#03323A"/>
<path d="M312.265 261.714C312.798 261.714 313.159 262.086 313.159 262.574C313.159 263.071 312.747 263.446 312.211 263.446C311.572 263.446 311.222 262.928 311.222 262.232C311.222 261.338 311.645 260.834 312.251 260.834C312.776 260.834 313.134 261.152 313.188 261.56H312.736C312.696 261.371 312.517 261.236 312.269 261.236C311.926 261.236 311.693 261.571 311.671 262.02C311.777 261.841 312.032 261.714 312.265 261.714ZM312.222 263.027C312.492 263.027 312.674 262.841 312.674 262.574C312.674 262.312 312.492 262.126 312.222 262.126C311.948 262.126 311.762 262.312 311.762 262.574C311.762 262.841 311.948 263.027 312.222 263.027Z" fill="#03323A"/>
<path d="M309.908 263.446C309.415 263.446 309.036 263.11 309.01 262.665H309.466C309.495 262.895 309.66 263.026 309.908 263.026C310.199 263.026 310.389 262.851 310.389 262.567C310.389 262.286 310.199 262.096 309.911 262.096C309.696 262.096 309.546 262.176 309.47 262.322H309.054L309.266 260.863H310.699V261.279H309.623L309.536 261.855C309.634 261.768 309.795 261.695 310.002 261.695C310.506 261.695 310.874 262.071 310.874 262.567C310.874 263.081 310.462 263.446 309.908 263.446Z" fill="#03323A"/>
<path d="M307.885 263.417V262.877H306.579V262.457L307.841 260.863H308.366V262.457H308.695V262.877H308.366V263.417H307.885ZM307.057 262.457H307.885V261.44L307.057 262.457Z" fill="#03323A"/>
<path d="M304.878 262.45V262.066H306.287V262.45H304.878Z" fill="#03323A"/>
<path d="M303.603 263.446C303.078 263.446 302.655 263.129 302.655 262.611H303.122C303.122 262.881 303.337 263.027 303.603 263.027C303.884 263.027 304.066 262.888 304.066 262.658C304.066 262.432 303.884 262.301 303.603 262.301H303.37V261.9H303.596C303.826 261.9 303.972 261.761 303.972 261.568C303.972 261.371 303.811 261.25 303.57 261.25C303.341 261.25 303.176 261.374 303.169 261.63H302.713C302.72 261.134 303.118 260.834 303.581 260.834C304.074 260.834 304.439 261.141 304.439 261.52C304.439 261.765 304.307 261.973 304.118 262.071C304.373 262.162 304.544 262.385 304.544 262.669C304.544 263.162 304.107 263.446 303.603 263.446Z" fill="#03323A"/>
<path d="M300.603 261.75C300.592 261.185 300.95 260.834 301.508 260.834C302.033 260.834 302.398 261.148 302.398 261.626C302.398 261.969 302.197 262.243 301.792 262.443L301.398 262.64C301.253 262.717 301.077 262.841 301.077 262.998H302.398V263.417H300.603L300.6 263.063C300.6 262.651 300.946 262.381 301.191 262.261L301.599 262.056C301.807 261.954 301.913 261.808 301.913 261.622C301.913 261.385 301.756 261.232 301.508 261.232C301.234 261.232 301.081 261.44 301.088 261.75H300.603Z" fill="#03323A"/>
<path d="M300.184 260.863V263.417H299.703V261.538C299.655 261.604 299.506 261.637 299.4 261.637H299.199V261.221H299.382C299.579 261.221 299.695 261.141 299.724 260.863H300.184Z" fill="#03323A"/>
<path d="M297.53 263.851L297.223 263.621C297.548 263.183 297.705 262.713 297.705 262.195C297.705 261.677 297.548 261.206 297.223 260.768L297.53 260.539C297.916 260.998 298.124 261.564 298.124 262.195C298.124 262.826 297.916 263.391 297.53 263.851Z" fill="#03323A"/>
<path d="M296.054 263.446C295.562 263.446 295.182 263.11 295.157 262.665H295.613C295.642 262.895 295.806 263.026 296.054 263.026C296.346 263.026 296.536 262.851 296.536 262.567C296.536 262.286 296.346 262.096 296.058 262.096C295.843 262.096 295.693 262.176 295.616 262.322H295.201L295.412 260.863H296.846V261.279H295.77L295.682 261.855C295.781 261.768 295.941 261.695 296.149 261.695C296.652 261.695 297.021 262.071 297.021 262.567C297.021 263.081 296.609 263.446 296.054 263.446Z" fill="#03323A"/>
<path d="M293.838 263.446C293.346 263.446 292.966 263.11 292.941 262.665H293.397C293.426 262.895 293.59 263.026 293.838 263.026C294.13 263.026 294.32 262.851 294.32 262.567C294.32 262.286 294.13 262.096 293.842 262.096C293.627 262.096 293.477 262.176 293.401 262.322H292.985L293.196 260.863H294.63V261.279H293.554L293.466 261.855C293.565 261.768 293.725 261.695 293.933 261.695C294.436 261.695 294.805 262.071 294.805 262.567C294.805 263.081 294.393 263.446 293.838 263.446Z" fill="#03323A"/>
<path d="M291.622 263.446C291.13 263.446 290.751 263.11 290.725 262.665H291.181C291.21 262.895 291.374 263.026 291.622 263.026C291.914 263.026 292.104 262.851 292.104 262.567C292.104 262.286 291.914 262.096 291.626 262.096C291.411 262.096 291.261 262.176 291.185 262.322H290.769L290.98 260.863H292.414V261.279H291.338L291.25 261.855C291.349 261.768 291.509 261.695 291.717 261.695C292.221 261.695 292.589 262.071 292.589 262.567C292.589 263.081 292.177 263.446 291.622 263.446Z" fill="#03323A"/>
<path d="M290.182 263.851C289.795 263.391 289.587 262.826 289.587 262.195C289.587 261.564 289.795 260.998 290.182 260.539L290.488 260.768C290.164 261.206 290.007 261.677 290.007 262.195C290.007 262.713 290.164 263.183 290.488 263.621L290.182 263.851Z" fill="#03323A"/>
<path d="M288.429 260.863V263.417H287.947V261.538C287.9 261.604 287.75 261.637 287.644 261.637H287.444V261.221H287.626C287.823 261.221 287.94 261.141 287.969 260.863H288.429Z" fill="#03323A"/>
<path d="M287.045 262.068V262.451H286.311V263.181H285.928V262.451H285.198V262.068H285.928V261.338H286.311V262.068H287.045Z" fill="#03323A"/>
<path d="M369.75 263.416V261.578H370.198V261.866C370.289 261.68 370.472 261.549 370.731 261.549C371.023 261.549 371.223 261.673 371.303 261.899C371.387 261.709 371.621 261.549 371.913 261.549C372.31 261.549 372.566 261.837 372.566 262.227V263.416H372.121V262.362C372.121 262.103 371.986 261.932 371.77 261.932C371.53 261.932 371.38 262.103 371.38 262.362V263.416H370.935V262.362C370.935 262.103 370.8 261.932 370.585 261.932C370.348 261.932 370.198 262.103 370.198 262.362V263.416H369.75Z" fill="#03323A"/>
<path d="M368.487 263.446C367.925 263.446 367.524 263.045 367.524 262.498C367.524 261.95 367.925 261.549 368.487 261.549C369.046 261.549 369.447 261.95 369.447 262.498C369.447 263.045 369.046 263.446 368.487 263.446ZM368.487 263.06C368.79 263.06 368.995 262.83 368.995 262.498C368.995 262.166 368.79 261.936 368.487 261.936C368.181 261.936 367.976 262.166 367.976 262.498C367.976 262.83 368.181 263.06 368.487 263.06Z" fill="#03323A"/>
<path d="M366.446 263.446C365.873 263.446 365.512 263.023 365.512 262.498C365.512 261.972 365.873 261.549 366.446 261.549C366.909 261.549 367.285 261.826 367.325 262.25H366.88C366.847 262.067 366.669 261.936 366.457 261.936C366.147 261.936 365.979 262.177 365.979 262.498C365.979 262.819 366.15 263.06 366.464 263.06C366.676 263.06 366.84 262.939 366.884 262.757H367.336C367.278 263.158 366.92 263.446 366.446 263.446Z" fill="#03323A"/>
<path d="M364.778 262.943H365.264V263.417H364.778V262.943Z" fill="#03323A"/>
<path d="M364.095 262.804H364.533C364.464 263.195 364.121 263.446 363.668 263.446C363.066 263.446 362.73 262.972 362.73 262.49C362.73 262.005 363.03 261.549 363.632 261.549C364.249 261.549 364.526 261.998 364.526 262.436C364.526 262.498 364.522 262.552 364.519 262.589H363.161C363.194 262.884 363.384 263.074 363.668 263.074C363.898 263.074 364.048 262.979 364.095 262.804ZM363.632 261.885C363.38 261.885 363.219 262.016 363.172 262.293H364.077C364.059 262.06 363.898 261.885 363.632 261.885Z" fill="#03323A"/>
<path d="M362.089 262.804H362.527C362.458 263.195 362.115 263.446 361.662 263.446C361.06 263.446 360.725 262.972 360.725 262.49C360.725 262.005 361.024 261.549 361.626 261.549C362.243 261.549 362.52 261.998 362.52 262.436C362.52 262.498 362.516 262.552 362.513 262.589H361.155C361.188 262.884 361.378 263.074 361.662 263.074C361.892 263.074 362.042 262.979 362.089 262.804ZM361.626 261.885C361.374 261.885 361.214 262.016 361.166 262.293H362.071C362.053 262.06 361.892 261.885 361.626 261.885Z" fill="#03323A"/>
<path d="M359.95 263.416V260.79H360.395V263.416H359.95Z" fill="#03323A"/>
<path d="M358.521 263.445C357.971 263.445 357.646 263.058 357.646 262.497C357.646 261.935 357.971 261.548 358.514 261.548C358.755 261.548 358.948 261.65 359.054 261.8V260.79H359.499V263.416H359.054V263.186C358.948 263.347 358.744 263.445 358.521 263.445ZM358.587 263.058C358.886 263.058 359.083 262.836 359.083 262.497C359.083 262.157 358.886 261.935 358.587 261.935C358.288 261.935 358.091 262.157 358.091 262.497C358.091 262.836 358.288 263.058 358.587 263.058Z" fill="#03323A"/>
<path d="M356.342 263.445C355.791 263.445 355.466 263.058 355.466 262.497C355.466 261.935 355.791 261.548 356.334 261.548C356.575 261.548 356.769 261.65 356.874 261.8V260.79H357.319V263.416H356.874V263.186C356.769 263.347 356.564 263.445 356.342 263.445ZM356.407 263.058C356.707 263.058 356.904 262.836 356.904 262.497C356.904 262.157 356.707 261.935 356.407 261.935C356.108 261.935 355.911 262.157 355.911 262.497C355.911 262.836 356.108 263.058 356.407 263.058Z" fill="#03323A"/>
<path d="M354.695 260.79H355.177V261.289H354.695V260.79ZM354.714 263.416V261.577H355.162V263.416H354.714Z" fill="#03323A"/>
<path d="M353.533 263.445C353.31 263.445 353.106 263.347 353 263.186V263.416H352.555V260.79H353V261.8C353.106 261.65 353.303 261.548 353.54 261.548C354.084 261.548 354.408 261.935 354.408 262.497C354.408 263.058 354.084 263.445 353.533 263.445ZM353.467 263.058C353.766 263.058 353.963 262.836 353.963 262.497C353.963 262.157 353.766 261.935 353.467 261.935C353.168 261.935 352.971 262.157 352.971 262.497C352.971 262.836 353.168 263.058 353.467 263.058Z" fill="#03323A"/>
<path d="M351.02 260.797C351.72 260.797 352.198 261.235 352.198 261.863V262.293C352.198 262.785 351.957 263.048 351.582 263.048C351.363 263.048 351.169 262.953 351.118 262.796C351.053 262.942 350.888 263.066 350.597 263.066C350.155 263.066 349.893 262.76 349.896 262.308C349.9 261.859 350.155 261.552 350.589 261.552C350.775 261.552 350.932 261.629 351.02 261.742V261.578H351.388V262.494C351.388 262.603 351.472 262.68 351.585 262.68C351.742 262.68 351.819 262.57 351.819 262.293V261.863C351.819 261.439 351.498 261.148 351.02 261.148H350.367C349.889 261.148 349.55 261.461 349.55 261.888V262.665C349.55 263.143 349.889 263.489 350.367 263.489H351.293V263.858L350.367 263.861C349.666 263.861 349.156 263.354 349.156 262.665V261.888C349.156 261.261 349.666 260.797 350.367 260.797H351.02ZM350.648 262.753C350.888 262.749 351.038 262.574 351.038 262.308C351.038 262.045 350.888 261.87 350.648 261.87C350.414 261.87 350.261 262.045 350.261 262.308C350.261 262.574 350.414 262.753 350.648 262.753Z" fill="#03323A"/>
<path d="M347.919 263.446C347.357 263.446 346.956 263.045 346.956 262.498C346.956 261.95 347.357 261.549 347.919 261.549C348.477 261.549 348.879 261.95 348.879 262.498C348.879 263.045 348.477 263.446 347.919 263.446ZM347.919 263.06C348.222 263.06 348.426 262.83 348.426 262.498C348.426 262.166 348.222 261.936 347.919 261.936C347.612 261.936 347.408 262.166 347.408 262.498C347.408 262.83 347.612 263.06 347.919 263.06Z" fill="#03323A"/>
<path d="M346.182 263.416V260.79H346.627V263.416H346.182Z" fill="#03323A"/>
<path d="M345.285 263.416V260.79H345.73V263.416H345.285Z" fill="#03323A"/>
<path d="M344.52 262.804H344.958C344.889 263.195 344.546 263.446 344.093 263.446C343.491 263.446 343.155 262.972 343.155 262.49C343.155 262.005 343.455 261.549 344.057 261.549C344.673 261.549 344.951 261.998 344.951 262.436C344.951 262.498 344.947 262.552 344.943 262.589H343.586C343.619 262.884 343.809 263.074 344.093 263.074C344.323 263.074 344.473 262.979 344.52 262.804ZM344.057 261.885C343.805 261.885 343.644 262.016 343.597 262.293H344.502C344.484 262.06 344.323 261.885 344.057 261.885Z" fill="#03323A"/>
<path d="M341.149 263.416V260.79H341.594V261.862C341.696 261.661 341.908 261.548 342.17 261.548C342.582 261.548 342.852 261.847 342.852 262.278V263.416H342.407V262.373C342.407 262.121 342.251 261.946 342.021 261.946C341.773 261.946 341.594 262.143 341.594 262.413V263.416H341.149Z" fill="#03323A"/>
<path d="M370.918 66.2546C370.9 65.7147 371.243 65.3755 371.783 65.3755C372.283 65.3755 372.636 65.6819 372.636 66.1488C372.636 66.4844 372.432 66.7616 372.038 66.9623L371.663 67.1519C371.477 67.2431 371.269 67.4109 371.269 67.6225H372.644V67.9581H370.897V67.6845C370.893 67.2468 371.247 66.9696 371.502 66.8419L371.9 66.6413C372.148 66.5136 372.25 66.3531 372.25 66.1452C372.25 65.8752 372.056 65.7001 371.783 65.7001C371.477 65.7001 371.29 65.9226 371.305 66.2546H370.918Z" fill="#03323A"/>
<path d="M369.524 67.9873C368.897 67.9873 368.63 67.5605 368.63 66.7799V66.5829C368.63 65.8023 368.897 65.3755 369.524 65.3755H369.655C370.286 65.3755 370.549 65.8059 370.549 66.5829V66.7799C370.549 67.5568 370.286 67.9873 369.655 67.9873H369.524ZM369.539 67.6517H369.644C369.998 67.6517 370.17 67.3854 370.17 66.8528V66.5099C370.17 65.9774 369.998 65.7111 369.644 65.7111H369.539C369.185 65.7111 369.013 65.9774 369.013 66.5099V66.8528C369.013 67.3854 369.185 67.6517 369.539 67.6517Z" fill="#03323A"/>
<path d="M368.177 65.4043V67.9577H367.797V65.9952C367.757 66.0536 367.64 66.0864 367.538 66.0864H367.312V65.7508H367.509C367.688 65.7508 367.786 65.6779 367.812 65.4043H368.177Z" fill="#03323A"/>
<path d="M366.498 67.9577V67.3595H365.156V67.0239L366.451 65.4043H366.877V67.0239H367.25V67.3595H366.877V67.9577H366.498ZM365.546 67.0239H366.498V65.8384L365.546 67.0239Z" fill="#03323A"/>
<path d="M363.84 67.1118C363.311 67.1118 362.943 66.7397 362.943 66.2437C362.943 65.7439 363.34 65.3755 363.869 65.3755C364.475 65.3755 364.836 65.8643 364.836 66.5647C364.836 67.4985 364.409 67.9909 363.826 67.9909C363.333 67.9909 362.983 67.6955 362.921 67.2906H363.289C363.34 67.5167 363.534 67.6626 363.818 67.6626C364.201 67.6626 364.457 67.265 364.478 66.747C364.373 66.9623 364.103 67.1118 363.84 67.1118ZM363.866 65.7111C363.552 65.7111 363.329 65.9336 363.329 66.2473C363.329 66.5574 363.552 66.7762 363.866 66.7762C364.183 66.7762 364.406 66.5574 364.406 66.2473C364.406 65.9336 364.183 65.7111 363.866 65.7111Z" fill="#03323A"/>
<path d="M361.466 67.9577L361.222 67.3084H360.139L359.894 67.9577H359.504L360.507 65.4043H360.857L361.86 67.9577H361.466ZM360.266 66.9765H361.098L360.682 65.8785L360.266 66.9765Z" fill="#03323A"/>
<path d="M358.3 67.9873C357.644 67.9873 357.053 67.5568 357.053 66.6814C357.053 65.8059 357.651 65.3755 358.3 65.3755C358.88 65.3755 359.34 65.7257 359.409 66.2254H359.012C358.968 65.9263 358.669 65.7111 358.297 65.7111C357.801 65.7111 357.443 66.0503 357.443 66.6814C357.443 67.3124 357.801 67.6517 358.297 67.6517C358.676 67.6517 358.979 67.4365 359.019 67.1373H359.402C359.347 67.6371 358.891 67.9873 358.3 67.9873Z" fill="#03323A"/>
<path d="M355.167 68.1269H355.299C355.401 68.1269 355.459 68.0429 355.459 67.8897V67.543H355.813V67.9116C355.813 68.2363 355.635 68.4188 355.335 68.4188H355.167V68.1269Z" fill="#03323A"/>
<path d="M354.071 67.989C353.52 67.989 353.123 67.5912 353.123 67.0401C353.123 66.4891 353.52 66.0913 354.071 66.0913C354.622 66.0913 355.017 66.4891 355.017 67.0401C355.017 67.5912 354.622 67.989 354.071 67.989ZM354.071 67.6788C354.418 67.6788 354.655 67.416 354.655 67.0401C354.655 66.6643 354.418 66.4015 354.071 66.4015C353.721 66.4015 353.484 66.6643 353.484 67.0401C353.484 67.416 353.721 67.6788 354.071 67.6788Z" fill="#03323A"/>
<path d="M352.04 67.989C351.46 67.989 351.128 67.5474 351.128 67.0401C351.128 66.5329 351.46 66.0913 352.04 66.0913C352.471 66.0913 352.843 66.3468 352.894 66.7628H352.54C352.507 66.5548 352.296 66.4015 352.048 66.4015C351.679 66.4015 351.497 66.6862 351.497 67.0401C351.497 67.3941 351.683 67.6788 352.048 67.6788C352.299 67.6788 352.485 67.5474 352.544 67.3394H352.894C352.836 67.7262 352.507 67.989 352.04 67.989Z" fill="#03323A"/>
<path d="M350.187 67.989C349.757 67.989 349.468 67.7481 349.443 67.3613H349.775C349.797 67.5729 349.95 67.6934 350.187 67.6934C350.399 67.6934 350.534 67.5802 350.534 67.4452C350.534 66.9562 349.49 67.4051 349.49 66.6205C349.49 66.303 349.76 66.0913 350.144 66.0913C350.56 66.0913 350.844 66.3212 350.862 66.6679H350.53C350.505 66.4562 350.3 66.3723 350.144 66.3723C349.954 66.3723 349.826 66.4672 349.826 66.6095C349.826 67.0657 350.877 66.5986 350.877 67.4379C350.877 67.7737 350.603 67.989 350.187 67.989Z" fill="#03323A"/>
<path d="M348.718 65.3501H349.112V65.7951H348.718V65.3501ZM348.74 67.9582V66.1198H349.094V67.9582H348.74Z" fill="#03323A"/>
<path d="M347.552 67.989C346.972 67.989 346.64 67.5474 346.64 67.0401C346.64 66.5329 346.972 66.0913 347.552 66.0913C347.983 66.0913 348.355 66.3468 348.406 66.7628H348.052C348.019 66.5548 347.807 66.4015 347.559 66.4015C347.191 66.4015 347.008 66.6862 347.008 67.0401C347.008 67.3941 347.194 67.6788 347.559 67.6788C347.811 67.6788 347.997 67.5474 348.056 67.3394H348.406C348.348 67.7262 348.019 67.989 347.552 67.989Z" fill="#03323A"/>
<path d="M344.661 67.9598V66.1205H345.015V66.4453C345.113 66.2154 345.332 66.0913 345.606 66.0913C346.022 66.0913 346.292 66.3906 346.292 66.8285V67.9598H345.938V66.8978C345.938 66.6059 345.766 66.4088 345.507 66.4088C345.219 66.4088 345.015 66.6424 345.015 66.9635V67.9598H344.661Z" fill="#03323A"/>
<path d="M343.464 66.0913C343.938 66.0913 344.252 66.365 344.252 66.7737V67.9598H343.898V67.6605C343.81 67.8576 343.577 67.989 343.3 67.989C342.924 67.989 342.676 67.7627 342.676 67.4343C342.676 67.0803 342.957 66.8613 343.391 66.8613H343.774C343.858 66.8613 343.898 66.8175 343.898 66.7518C343.898 66.5292 343.737 66.376 343.453 66.376C343.197 66.376 343.011 66.5365 343 66.7226H342.672C342.701 66.3614 343.03 66.0913 343.464 66.0913ZM343.369 67.708C343.705 67.708 343.898 67.4927 343.898 67.1533V67.1095H343.424C343.183 67.1095 343.026 67.2336 343.026 67.427C343.026 67.5948 343.165 67.708 343.369 67.708Z" fill="#03323A"/>
<path d="M342.51 66.4262H342.244C341.908 66.4262 341.799 66.7254 341.799 67.1268V67.9589H341.445V66.1196H341.799V66.4736C341.883 66.2291 342.029 66.1196 342.288 66.1196H342.51V66.4262Z" fill="#03323A"/>
<path d="M339.589 67.9577V65.4043H341.227V65.7399H339.968V66.5023H340.986V66.8379H339.968V67.9577H339.589Z" fill="#03323A"/>
<path d="M336.632 67.9598V66.1205H336.986V66.4453C337.085 66.2154 337.304 66.0913 337.578 66.0913C337.994 66.0913 338.264 66.3906 338.264 66.8285V67.9598H337.91V66.8978C337.91 66.6059 337.738 66.4088 337.479 66.4088C337.191 66.4088 336.986 66.6424 336.986 66.9635V67.9598H336.632Z" fill="#03323A"/>
<path d="M335.434 66.0913C335.908 66.0913 336.222 66.365 336.222 66.7737V67.9598H335.868V67.6605C335.781 67.8576 335.547 67.989 335.27 67.989C334.894 67.989 334.646 67.7627 334.646 67.4343C334.646 67.0803 334.927 66.8613 335.361 66.8613H335.744C335.828 66.8613 335.868 66.8175 335.868 66.7518C335.868 66.5292 335.708 66.376 335.423 66.376C335.168 66.376 334.981 66.5365 334.971 66.7226H334.642C334.671 66.3614 335 66.0913 335.434 66.0913ZM335.339 67.708C335.675 67.708 335.868 67.4927 335.868 67.1533V67.1095H335.394C335.153 67.1095 334.996 67.2336 334.996 67.427C334.996 67.5948 335.135 67.708 335.339 67.708Z" fill="#03323A"/>
<path d="M333.422 67.9873C332.845 67.9873 332.477 67.6407 332.448 67.1118H332.816C332.845 67.4401 333.061 67.6517 333.422 67.6517C333.743 67.6517 333.976 67.5277 333.976 67.2504C333.976 66.6376 332.528 67.006 332.528 66.0649C332.528 65.6564 332.885 65.3755 333.4 65.3755C333.921 65.3755 334.279 65.6783 334.312 66.1452H333.943C333.918 65.8825 333.714 65.7111 333.4 65.7111C333.093 65.7111 332.907 65.8497 332.907 66.0649C332.907 66.685 334.363 66.2728 334.363 67.2468C334.363 67.7137 333.969 67.9873 333.422 67.9873Z" fill="#03323A"/>
<path d="M371.793 60.0718H372.147V60.6481H372.69V60.9545H372.147V61.8738C372.147 62.0707 372.252 62.1802 372.431 62.1802H372.69V62.4866H372.402C372.03 62.4866 371.793 62.2604 371.793 61.8847V60.9545H371.417V60.6481H371.793V60.0718Z" fill="#03323A"/>
<path d="M370.907 61.8891H371.261C371.195 62.2686 370.863 62.5168 370.411 62.5168C369.841 62.5168 369.487 62.0679 369.487 61.557C369.487 61.0425 369.808 60.6191 370.374 60.6191C370.943 60.6191 371.246 61.0242 371.246 61.4913C371.246 61.5388 371.243 61.5972 371.239 61.63H369.834C369.863 61.9767 370.089 62.2139 370.411 62.2139C370.681 62.2139 370.856 62.0971 370.907 61.8891ZM370.374 60.9038C370.086 60.9038 369.9 61.0644 369.845 61.3709H370.889C370.867 61.0899 370.677 60.9038 370.374 60.9038Z" fill="#03323A"/>
<path d="M368.895 61.8891H369.249C369.183 62.2686 368.851 62.5168 368.398 62.5168C367.829 62.5168 367.475 62.0679 367.475 61.557C367.475 61.0425 367.796 60.6191 368.362 60.6191C368.931 60.6191 369.234 61.0242 369.234 61.4913C369.234 61.5388 369.23 61.5972 369.227 61.63H367.822C367.851 61.9767 368.077 62.2139 368.398 62.2139C368.668 62.2139 368.844 62.0971 368.895 61.8891ZM368.362 60.9038C368.074 60.9038 367.887 61.0644 367.833 61.3709H368.876C368.855 61.0899 368.665 60.9038 368.362 60.9038Z" fill="#03323A"/>
<path d="M367.368 60.9545H367.101C366.766 60.9545 366.656 61.2537 366.656 61.6552V62.4872H366.302V60.6479H366.656V61.0019C366.74 60.7574 366.886 60.6479 367.145 60.6479H367.368V60.9545Z" fill="#03323A"/>
<path d="M365.103 60.0718H365.457V60.6481H366V60.9545H365.457V61.8738C365.457 62.0707 365.562 62.1802 365.741 62.1802H366V62.4866H365.712C365.34 62.4866 365.103 62.2604 365.103 61.8847V60.9545H364.727V60.6481H365.103V60.0718Z" fill="#03323A"/>
<path d="M363.608 62.5161C363.031 62.5161 362.663 62.1695 362.634 61.6406H363.002C363.031 61.9689 363.247 62.1805 363.608 62.1805C363.929 62.1805 364.162 62.0565 364.162 61.7792C364.162 61.1664 362.714 61.5348 362.714 60.5937C362.714 60.1852 363.072 59.9043 363.586 59.9043C364.107 59.9043 364.465 60.2071 364.498 60.674H364.129C364.104 60.4113 363.9 60.2399 363.586 60.2399C363.279 60.2399 363.093 60.3785 363.093 60.5937C363.093 61.2138 364.549 60.8016 364.549 61.7756C364.549 62.2425 364.155 62.5161 363.608 62.5161Z" fill="#03323A"/>
<path d="M358.714 62.4868V60.6483H359.068V60.9766C359.144 60.7687 359.341 60.6191 359.611 60.6191C359.91 60.6191 360.133 60.7541 360.206 60.9949C360.279 60.7869 360.52 60.6191 360.804 60.6191C361.202 60.6191 361.45 60.8927 361.45 61.3195V62.4868H361.096V61.418C361.096 61.1262 360.95 60.9292 360.706 60.9292C360.425 60.9292 360.257 61.1262 360.257 61.418V62.4868H359.903V61.418C359.903 61.1262 359.757 60.9292 359.516 60.9292C359.235 60.9292 359.068 61.1262 359.068 61.418V62.4868H358.714Z" fill="#03323A"/>
<path d="M357.892 62.4861V59.8779H358.245V62.4861H357.892Z" fill="#03323A"/>
<path d="M355.822 62.487V59.9336H357.46V60.2692H356.202V61.0024H357.219V61.338H356.202V62.1514H357.5V62.487H355.822Z" fill="#03323A"/>
<path d="M353.846 62.487V61.8888H352.503V61.5532L353.798 59.9336H354.225V61.5532H354.597V61.8888H354.225V62.487H353.846ZM352.894 61.5532H353.846V60.3677L352.894 61.5532Z" fill="#03323A"/>
<path d="M351.312 62.5161C350.794 62.5161 350.385 62.1914 350.385 61.6844H350.757C350.757 61.9908 350.998 62.1805 351.312 62.1805C351.64 62.1805 351.848 62.02 351.848 61.7501C351.848 61.4765 351.64 61.3306 351.312 61.3306H351.097V61.0059H351.308C351.582 61.0059 351.75 60.8381 351.75 60.6083C351.75 60.3785 351.567 60.2399 351.29 60.2399C351.02 60.2399 350.841 60.3894 350.827 60.674H350.462C350.476 60.1998 350.838 59.9043 351.294 59.9043C351.775 59.9043 352.129 60.1961 352.129 60.5828C352.129 60.8345 351.976 61.0497 351.779 61.1445C352.041 61.2321 352.231 61.4546 352.231 61.7537C352.231 62.2462 351.801 62.5161 351.312 62.5161Z" fill="#03323A"/>
<path d="M348.384 60.7834C348.365 60.2435 348.708 59.9043 349.248 59.9043C349.748 59.9043 350.102 60.2107 350.102 60.6776C350.102 61.0132 349.898 61.2904 349.504 61.4911L349.128 61.6808C348.942 61.7719 348.734 61.9397 348.734 62.1513H350.109V62.4869H348.362V62.2133C348.358 61.7756 348.712 61.4984 348.967 61.3707L349.365 61.1701C349.613 61.0424 349.715 60.8819 349.715 60.674C349.715 60.404 349.522 60.2289 349.248 60.2289C348.942 60.2289 348.756 60.4515 348.77 60.7834H348.384Z" fill="#03323A"/>
<path d="M347.911 59.9336V62.487H347.532V60.5245C347.491 60.5829 347.375 60.6157 347.273 60.6157H347.046V60.2801H347.243C347.422 60.2801 347.521 60.2072 347.546 59.9336H347.911Z" fill="#03323A"/>
<path d="M369.804 57.0146V55.1762H370.158V55.5045C370.235 55.2965 370.432 55.147 370.702 55.147C371.001 55.147 371.223 55.2819 371.296 55.5227C371.369 55.3148 371.61 55.147 371.894 55.147C372.292 55.147 372.54 55.4206 372.54 55.8473V57.0146H372.186V55.9458C372.186 55.654 372.04 55.457 371.796 55.457C371.515 55.457 371.347 55.654 371.347 55.9458V57.0146H370.993V55.9458C370.993 55.654 370.847 55.457 370.607 55.457C370.326 55.457 370.158 55.654 370.158 55.9458V57.0146H369.804Z" fill="#03323A"/>
<path d="M368.513 57.0446C367.962 57.0446 367.564 56.6469 367.564 56.0958C367.564 55.5448 367.962 55.147 368.513 55.147C369.064 55.147 369.458 55.5448 369.458 56.0958C369.458 56.6469 369.064 57.0446 368.513 57.0446ZM368.513 56.7344C368.859 56.7344 369.097 56.4717 369.097 56.0958C369.097 55.7199 368.859 55.4572 368.513 55.4572C368.162 55.4572 367.925 55.7199 367.925 56.0958C367.925 56.4717 368.162 56.7344 368.513 56.7344Z" fill="#03323A"/>
<path d="M366.379 57.0446C365.828 57.0446 365.43 56.6469 365.43 56.0958C365.43 55.5448 365.828 55.147 366.379 55.147C366.93 55.147 367.324 55.5448 367.324 56.0958C367.324 56.6469 366.93 57.0446 366.379 57.0446ZM366.379 56.7344C366.726 56.7344 366.963 56.4717 366.963 56.0958C366.963 55.7199 366.726 55.4572 366.379 55.4572C366.029 55.4572 365.791 55.7199 365.791 56.0958C365.791 56.4717 366.029 56.7344 366.379 56.7344Z" fill="#03323A"/>
<path d="M364.737 55.8043C364.923 55.9137 365.043 56.1143 365.058 56.3624L365.109 57.0153H364.741L364.69 56.3952C364.671 56.1691 364.522 56.0086 364.303 56.0086H363.665V57.0153H363.285V54.4619H364.285C364.799 54.4619 365.113 54.772 365.113 55.2279C365.113 55.5015 364.963 55.6912 364.737 55.8043ZM363.665 54.7902V55.673H364.274C364.606 55.673 364.733 55.4577 364.733 55.2279C364.733 54.9945 364.606 54.7902 364.274 54.7902H363.665Z" fill="#03323A"/>
<path d="M361.713 56.4169H362.067C362.001 56.7965 361.669 57.0446 361.217 57.0446C360.647 57.0446 360.293 56.5958 360.293 56.0849C360.293 55.5703 360.615 55.147 361.18 55.147C361.75 55.147 362.052 55.552 362.052 56.0192C362.052 56.0666 362.049 56.125 362.045 56.1578H360.64C360.669 56.5045 360.896 56.7417 361.217 56.7417C361.487 56.7417 361.662 56.625 361.713 56.4169ZM361.18 55.4316C360.892 55.4316 360.706 55.5922 360.651 55.8987H361.695C361.673 55.6177 361.483 55.4316 361.18 55.4316Z" fill="#03323A"/>
<path d="M358.108 57.0152L357.539 55.1768H357.892L358.272 56.5447L358.688 55.1768H359.023L359.435 56.5447L359.811 55.1768H360.169L359.6 57.0152H359.271L358.852 55.6437L358.436 57.0152H358.108Z" fill="#03323A"/>
<path d="M356.468 57.0446C355.917 57.0446 355.52 56.6469 355.52 56.0958C355.52 55.5448 355.917 55.147 356.468 55.147C357.019 55.147 357.414 55.5448 357.414 56.0958C357.414 56.6469 357.019 57.0446 356.468 57.0446ZM356.468 56.7344C356.815 56.7344 357.052 56.4717 357.052 56.0958C357.052 55.7199 356.815 55.4572 356.468 55.4572C356.118 55.4572 355.881 55.7199 355.881 56.0958C355.881 56.4717 356.118 56.7344 356.468 56.7344Z" fill="#03323A"/>
<path d="M354.804 57.0149V54.4067H355.158V57.0149H354.804Z" fill="#03323A"/>
<path d="M354.493 55.4833H354.227C353.891 55.4833 353.782 55.7825 353.782 56.184V57.016H353.428V55.1768H353.782V55.5307C353.866 55.2862 354.012 55.1768 354.271 55.1768H354.493V55.4833Z" fill="#03323A"/>
<path d="M352.23 55.147C352.705 55.147 353.019 55.4207 353.019 55.8294V57.0154H352.665V56.7162C352.577 56.9133 352.344 57.0446 352.066 57.0446C351.69 57.0446 351.442 56.8184 351.442 56.4899C351.442 56.1359 351.723 55.917 352.157 55.917H352.541C352.625 55.917 352.665 55.8732 352.665 55.8075C352.665 55.5849 352.504 55.4316 352.219 55.4316C351.964 55.4316 351.778 55.5922 351.767 55.7783H351.438C351.468 55.417 351.796 55.147 352.23 55.147ZM352.136 56.7636C352.471 56.7636 352.665 56.5483 352.665 56.2089V56.1651H352.19C351.949 56.1651 351.792 56.2892 351.792 56.4826C351.792 56.6505 351.931 56.7636 352.136 56.7636Z" fill="#03323A"/>
<path d="M348.462 57.0153V54.4619H348.929L349.743 56.4974L350.556 54.4619H351.023V57.0153H350.658V55.1149L349.896 57.0153H349.59L348.824 55.1149V57.0153H348.462Z" fill="#03323A"/>
<path d="M346.891 56.4169H347.245C347.179 56.7965 346.847 57.0446 346.394 57.0446C345.825 57.0446 345.471 56.5958 345.471 56.0849C345.471 55.5703 345.792 55.147 346.358 55.147C346.927 55.147 347.23 55.552 347.23 56.0192C347.23 56.0666 347.227 56.125 347.223 56.1578H345.818C345.847 56.5045 346.073 56.7417 346.394 56.7417C346.665 56.7417 346.84 56.625 346.891 56.4169ZM346.358 55.4316C346.07 55.4316 345.884 55.5922 345.829 55.8987H346.873C346.851 55.6177 346.661 55.4316 346.358 55.4316Z" fill="#03323A"/>
<path d="M343.494 57.0149V54.4067H343.847V55.5011C343.946 55.2713 344.165 55.1472 344.438 55.1472C344.854 55.1472 345.124 55.4463 345.124 55.8841V57.0149H344.77V55.9534C344.77 55.6616 344.599 55.4646 344.34 55.4646C344.052 55.4646 343.847 55.698 343.847 56.019V57.0149H343.494Z" fill="#03323A"/>
<path d="M342.033 57.0153V54.7975H341.234V54.4619H343.211V54.7975H342.412V57.0153H342.033Z" fill="#03323A"/>
<g filter="url(#filter1_d_1274_911)">
<path d="M35.0752 42.4238H204.999V275.576H35.0752V42.4238Z" fill="#03323A"/>
<path fill-rule="evenodd" clip-rule="evenodd" d="M53.9744 249.416C53.9744 248.073 54.5026 246.729 55.5549 245.709L56.3832 244.907L60.4656 240.957L67.1258 234.51L63.821 231.181C63.1449 230.526 62.2109 230.119 61.1798 230.119C60.1486 230.119 59.2611 230.505 58.5934 231.13L48.2566 241.075C47.6227 241.721 47.2339 242.595 47.2339 243.556V260.12C47.2339 261.93 48.7637 263.407 50.6316 263.407H54.3716L52.7235 261.812C52.2544 261.359 52.2544 260.62 52.7235 260.166C53.1926 259.713 53.9533 259.713 54.4224 260.166L57.7694 263.407H62.8997L59.1386 259.764C58.6695 259.31 58.6695 258.571 59.1386 258.118C59.6077 257.665 60.3684 257.665 60.8374 258.118L66.3017 263.407H71.4321L65.5537 257.719C65.0846 257.266 65.0846 256.527 65.5537 256.074C66.0228 255.62 66.7835 255.62 67.2525 256.074L74.0311 262.635C74.7706 262.03 75.2439 261.128 75.2439 260.12V258.559L66.4242 250.02L63.2167 253.127C62.1644 254.147 60.7741 254.659 59.3879 254.659C58.0018 254.659 56.6114 254.147 55.5592 253.127C54.5069 252.107 53.9786 250.763 53.9786 249.42" fill="#00CC74"/>
<path fill-rule="evenodd" clip-rule="evenodd" d="M58.0862 246.554L57.2579 247.356C56.6747 247.922 56.3789 248.67 56.3789 249.417C56.3789 250.164 56.6705 250.911 57.2579 251.478C57.8411 252.045 58.6145 252.326 59.3878 252.326C60.1612 252.326 60.9346 252.04 61.5177 251.478L66.4242 246.726L66.4495 246.751L68.1272 248.376L75.2481 255.268V244.14C75.2481 243.187 74.8677 242.322 74.2465 241.68L68.795 236.189L62.1685 242.608L58.0862 246.558V246.554Z" fill="#00CC74"/>
<path d="M99.5996 254.324C99.5996 259.642 96.1892 263.412 91.5026 263.412C88.7599 263.412 86.6553 262.081 85.3833 260.117V263.03H81.7827V238.645H85.3833V248.59C86.6595 246.596 88.7641 245.231 91.5364 245.231C96.1258 245.231 99.6038 249.001 99.6038 254.32L99.5996 254.324ZM95.961 254.324C95.961 250.999 93.7931 248.657 90.7334 248.657C87.6738 248.657 85.3453 250.999 85.3453 254.324C85.3453 257.648 87.6738 259.991 90.7334 259.991C93.7931 259.991 95.961 257.678 95.961 254.324Z" fill="white"/>
<path d="M106.132 239.946C106.132 241.243 105.144 242.196 103.774 242.196C102.405 242.196 101.446 241.247 101.446 239.946C101.446 238.645 102.464 237.759 103.774 237.759C105.084 237.759 106.132 238.678 106.132 239.946ZM101.987 245.613H105.587V263.03H101.987V245.613Z" fill="white"/>
<path d="M125.995 238.65V263.035H122.395V260.122C121.089 262.086 118.984 263.417 116.242 263.417C111.555 263.417 108.145 259.647 108.145 254.329C108.145 249.01 111.618 245.24 116.212 245.24C118.984 245.24 121.089 246.601 122.399 248.599V238.654H125.999L125.995 238.65ZM122.39 254.324C122.39 251 120.062 248.657 117.002 248.657C113.943 248.657 111.775 251 111.775 254.324C111.775 257.649 113.976 259.992 117.002 259.992C120.028 259.992 122.39 257.679 122.39 254.324Z" fill="white"/>
<path d="M146.398 238.65V263.035H142.798V260.122C141.492 262.086 139.387 263.417 136.644 263.417C131.958 263.417 128.547 259.647 128.547 254.329C128.547 249.01 132.021 245.24 136.615 245.24C139.387 245.24 141.492 246.601 142.802 248.599V238.654H146.402L146.398 238.65ZM142.798 254.324C142.798 251 140.469 248.657 137.409 248.657C134.35 248.657 132.182 251 132.182 254.324C132.182 257.649 134.383 259.992 137.409 259.992C140.435 259.992 142.798 257.679 142.798 254.324Z" fill="white"/>
<path d="M149.364 238.65H152.999V263.035H149.364V238.65Z" fill="white"/>
<path d="M173.208 255.306H158.958C159.245 258.505 161.506 260.276 164.443 260.276C166.548 260.276 168.302 259.39 169.13 257.678H172.862C171.492 261.573 168.145 263.408 164.414 263.408C159.089 263.408 155.294 259.609 155.294 254.349C155.294 249.089 159.055 245.227 164.346 245.227C169.988 245.227 173.559 249.568 173.208 255.298V255.306ZM159.152 252.393H169.354C168.813 250.017 166.996 248.338 164.35 248.338C161.705 248.338 159.761 250.046 159.152 252.393Z" fill="white"/>
<path d="M192.817 255.306H178.567C178.854 258.505 181.115 260.276 184.052 260.276C186.157 260.276 187.911 259.39 188.739 257.678H192.47C191.101 261.573 187.75 263.408 184.023 263.408C178.698 263.408 174.903 259.609 174.903 254.349C174.903 249.089 178.664 245.227 183.955 245.227C189.597 245.227 193.168 249.568 192.817 255.298V255.306ZM178.757 252.393H188.959C188.418 250.017 186.6 248.338 183.955 248.338C181.309 248.338 179.366 250.046 178.757 252.393Z" fill="white"/>
</g>
<mask id="mask0_1274_911" style="mask-type:alpha" maskUnits="userSpaceOnUse" x="35" y="42" width="170" height="234">
<path d="M35.0752 42.4238H204.999V275.576H35.0752V42.4238Z" fill="#03323A"/>
</mask>
<g mask="url(#mask0_1274_911)">
<g opacity="0.05">
<path d="M195.986 -29.6191H192.543C189.129 -29.6191 186.008 -27.6898 184.481 -24.6365L170.483 3.35678C169.54 5.24365 167.61 6.43666 165.5 6.43666C164.755 6.43666 164.044 6.28975 163.394 6.02424V-20.6043C163.394 -25.5834 159.358 -29.6191 154.381 -29.6191H150.938C147.524 -29.6191 144.403 -27.6898 142.876 -24.6365L128.88 3.35678C127.937 5.24365 126.007 6.43666 123.897 6.43666C123.136 6.43666 122.412 6.28444 121.75 6.00831V-20.6043C121.75 -25.5834 117.715 -29.6191 112.737 -29.6191H109.294C105.88 -29.6191 102.759 -27.6898 101.232 -24.6365L87.2344 3.35678C86.2909 5.24365 84.3616 6.43666 82.2517 6.43666C81.5065 6.43666 80.795 6.28975 80.1453 6.02424V-20.6043C80.1453 -25.5834 76.1096 -29.6191 71.1323 -29.6191H67.6895C64.2751 -29.6191 61.1545 -27.6898 59.627 -24.6365L45.6277 3.35678C44.6843 5.24365 42.7549 6.43666 40.645 6.43666C37.5687 6.43666 35.0747 3.94267 35.0747 0.866329V40.5596C36.1013 39.7524 36.9598 38.7223 37.5652 37.5098L51.5627 9.51654C52.5061 7.62967 54.4355 6.43666 56.5453 6.43666C59.6217 6.43666 62.1157 8.93065 62.1157 12.007V33.4776C62.1157 38.455 66.1514 42.4907 71.1287 42.4907C74.8742 42.4907 78.0868 40.2056 79.4479 36.9522L93.1676 9.51477C94.111 7.6279 96.0403 6.43489 98.1502 6.43489C101.227 6.43489 103.721 8.92889 103.721 12.0052V33.4759C103.721 38.4532 107.756 42.4889 112.734 42.4889C114.845 42.4889 116.787 41.7597 118.323 40.5436V40.5543C119.35 39.7471 120.209 38.717 120.816 37.5045L134.813 9.51123C135.757 7.62436 137.686 6.43135 139.796 6.43135C142.872 6.43135 145.366 8.92534 145.366 12.0017V33.4723C145.366 38.4497 149.402 42.4854 154.379 42.4854C158.125 42.4854 161.337 40.2003 162.698 36.9469L176.418 9.50946C177.361 7.62259 179.291 6.42958 181.401 6.42958C184.477 6.42958 186.971 8.92358 186.971 11.9999V33.4705C186.971 38.4479 191.007 42.4836 195.984 42.4836C200.961 42.4836 204.997 38.4479 204.997 33.4705V-20.6043C204.997 -25.5834 200.961 -29.6191 195.984 -29.6191H195.986Z" fill="#00CC74"/>
<path d="M184.481 47.4748L170.483 75.4681C169.54 77.3549 167.61 78.5479 165.501 78.5479C164.755 78.5479 164.044 78.401 163.394 78.1337V51.5052C163.394 46.5278 159.359 42.4921 154.381 42.4921H150.938C147.524 42.4921 144.403 44.4215 142.876 47.4748L128.88 75.4681C127.937 77.3549 126.007 78.5479 123.897 78.5479C123.136 78.5479 122.412 78.3957 121.75 78.1196V51.507C121.75 46.5296 117.715 42.4939 112.737 42.4939H109.295C105.88 42.4939 102.76 44.4232 101.232 47.4766L87.2346 75.4698C86.2911 77.3567 84.3618 78.5497 82.2519 78.5497C81.5067 78.5497 80.7951 78.4028 80.1455 78.1355V51.507C80.1455 46.5296 76.1098 42.4939 71.1325 42.4939H67.6897C64.2753 42.4939 61.1547 44.4232 59.6272 47.4766L45.6297 75.4698C44.6862 77.3567 42.7569 78.5497 40.647 78.5497C37.5707 78.5497 35.0767 76.0557 35.0767 72.9794V112.673C36.1033 111.865 36.9618 110.835 37.5671 109.623L51.5646 81.6296C52.5081 79.7427 54.4374 78.5497 56.5473 78.5497C59.6236 78.5497 62.1176 81.0437 62.1176 84.12V105.591C62.1176 110.57 66.1533 114.604 71.1307 114.604C74.8761 114.604 78.0887 112.319 79.4499 109.065L93.1695 81.6278C94.1129 79.7409 96.0423 78.5479 98.1522 78.5479C101.229 78.5479 103.723 81.0419 103.723 84.1183V105.589C103.723 110.568 107.758 114.602 112.736 114.602C114.847 114.602 116.789 113.874 118.325 112.657V112.667C119.352 111.86 120.21 110.83 120.818 109.618L134.815 81.6243C135.759 79.7374 137.688 78.5444 139.798 78.5444C142.874 78.5444 145.368 81.0384 145.368 84.1147V105.585C145.368 110.564 149.404 114.598 154.381 114.598C158.127 114.598 161.339 112.313 162.7 109.06L176.42 81.6225C177.363 79.7356 179.293 78.5426 181.403 78.5426C184.479 78.5426 186.973 81.0366 186.973 84.1129V105.584C186.973 110.563 191.009 114.597 195.986 114.597C200.963 114.597 204.999 110.561 204.999 105.584V51.4999C204.999 46.5225 200.963 42.4868 195.986 42.4868H192.543C189.129 42.4868 186.008 44.4162 184.481 47.4695V47.4748Z" fill="#00CC74"/>
<path d="M184.481 119.588L170.483 147.581C169.54 149.468 167.61 150.661 165.501 150.661C164.755 150.661 164.044 150.514 163.394 150.248V123.62C163.394 118.641 159.359 114.605 154.381 114.605H150.938C147.524 114.605 144.403 116.534 142.876 119.588L128.88 147.581C127.937 149.468 126.007 150.661 123.897 150.661C123.136 150.661 122.412 150.509 121.75 150.233V123.62C121.75 118.641 117.715 114.605 112.737 114.605H109.295C105.88 114.605 102.76 116.534 101.232 119.588L87.2346 147.581C86.2911 149.468 84.3618 150.661 82.2519 150.661C81.5067 150.661 80.7951 150.514 80.1455 150.248V123.62C80.1455 118.641 76.1098 114.605 71.1325 114.605H67.6897C64.2753 114.605 61.1547 116.534 59.6272 119.588L45.6297 147.581C44.6862 149.468 42.7569 150.661 40.647 150.661C37.5707 150.661 35.0767 148.167 35.0767 145.091V184.784C36.1033 183.977 36.9618 182.947 37.5671 181.734L51.5646 153.741C52.5081 151.854 54.4374 150.661 56.5473 150.661C59.6236 150.661 62.1176 153.155 62.1176 156.231V177.702C62.1176 182.681 66.1533 186.717 71.1307 186.717C74.8761 186.717 78.0887 184.432 79.4499 181.178L93.1695 153.741C94.1129 151.854 96.0423 150.661 98.1522 150.661C101.229 150.661 103.723 153.155 103.723 156.231V177.702C103.723 182.681 107.758 186.717 112.736 186.717C114.847 186.717 116.789 185.989 118.325 184.771V184.782C119.352 183.975 120.21 182.945 120.818 181.732L134.815 153.739C135.759 151.852 137.688 150.659 139.798 150.659C142.874 150.659 145.368 153.153 145.368 156.229V177.7C145.368 182.679 149.404 186.715 154.381 186.715C158.127 186.715 161.339 184.43 162.7 181.176L176.42 153.739C177.363 151.852 179.293 150.659 181.403 150.659C184.479 150.659 186.973 153.153 186.973 156.229V177.7C186.973 182.679 191.009 186.715 195.986 186.715C200.963 186.715 204.999 182.679 204.999 177.7V123.616C204.999 118.637 200.963 114.602 195.986 114.602H192.543C189.129 114.602 186.008 116.531 184.481 119.584V119.588Z" fill="#00CC74"/>
</g>
</g>
<defs>
<filter id="filter0_dddd_1274_911" x="118" y="24.4238" width="363.924" height="590.152" filterUnits="userSpaceOnUse" color-interpolation-filters="sRGB">
<feFlood flood-opacity="0" result="BackgroundImageFix"/>
<feColorMatrix in="SourceAlpha" type="matrix" values="0 0 0 0 0 0 0 0 0 0 0 0 0 0 0 0 0 0 127 0" result="hardAlpha"/>
<feOffset dy="15"/>
<feGaussianBlur stdDeviation="16.5"/>
<feColorMatrix type="matrix" values="0 0 0 0 0 0 0 0 0 0 0 0 0 0 0 0 0 0 0.06 0"/>
<feBlend mode="normal" in2="BackgroundImageFix" result="effect1_dropShadow_1274_911"/>
<feColorMatrix in="SourceAlpha" type="matrix" values="0 0 0 0 0 0 0 0 0 0 0 0 0 0 0 0 0 0 127 0" result="hardAlpha"/>
<feOffset dy="61"/>
<feGaussianBlur stdDeviation="30.5"/>
<feColorMatrix type="matrix" values="0 0 0 0 0 0 0 0 0 0 0 0 0 0 0 0 0 0 0.05 0"/>
<feBlend mode="normal" in2="effect1_dropShadow_1274_911" result="effect2_dropShadow_1274_911"/>
<feColorMatrix in="SourceAlpha" type="matrix" values="0 0 0 0 0 0 0 0 0 0 0 0 0 0 0 0 0 0 127 0" result="hardAlpha"/>
<feOffset dy="136"/>
<feGaussianBlur stdDeviation="41"/>
<feColorMatrix type="matrix" values="0 0 0 0 0 0 0 0 0 0 0 0 0 0 0 0 0 0 0.03 0"/>
<feBlend mode="normal" in2="effect2_dropShadow_1274_911" result="effect3_dropShadow_1274_911"/>
<feColorMatrix in="SourceAlpha" type="matrix" values="0 0 0 0 0 0 0 0 0 0 0 0 0 0 0 0 0 0 127 0" result="hardAlpha"/>
<feOffset dy="242"/>
<feGaussianBlur stdDeviation="48.5"/>
<feColorMatrix type="matrix" values="0 0 0 0 0 0 0 0 0 0 0 0 0 0 0 0 0 0 0.01 0"/>
<feBlend mode="normal" in2="effect3_dropShadow_1274_911" result="effect4_dropShadow_1274_911"/>
<feBlend mode="normal" in="SourceGraphic" in2="effect4_dropShadow_1274_911" result="shape"/>
</filter>
<filter id="filter1_d_1274_911" x="5.0752" y="16.4238" width="229.924" height="293.152" filterUnits="userSpaceOnUse" color-interpolation-filters="sRGB">
<feFlood flood-opacity="0" result="BackgroundImageFix"/>
<feColorMatrix in="SourceAlpha" type="matrix" values="0 0 0 0 0 0 0 0 0 0 0 0 0 0 0 0 0 0 127 0" result="hardAlpha"/>
<feOffset dy="4"/>
<feGaussianBlur stdDeviation="15"/>
<feComposite in2="hardAlpha" operator="out"/>
<feColorMatrix type="matrix" values="0 0 0 0 0 0 0 0 0 0 0 0 0 0 0 0 0 0 0.15 0"/>
<feBlend mode="normal" in2="BackgroundImageFix" result="effect1_dropShadow_1274_911"/>
<feBlend mode="normal" in="SourceGraphic" in2="effect1_dropShadow_1274_911" result="shape"/>
</filter>
</defs>
</svg>
