<svg width="420" height="420" viewBox="0 0 420 420" fill="none" xmlns="http://www.w3.org/2000/svg">
<rect width="420" height="420" rx="12" fill="#00CC74"/>
<g clip-path="url(#clip0_1274_884)">
<g opacity="0.06">
<path d="M519.095 -34H505.079C491.178 -34 478.474 -26.1453 472.255 -13.7147L415.269 100.25C411.428 107.932 403.573 112.789 394.984 112.789C391.95 112.789 389.053 112.191 386.408 111.11V2.70081C386.408 -17.57 369.978 -34 349.715 -34H335.699C321.798 -34 309.094 -26.1453 302.875 -13.7147L245.896 100.25C242.055 107.932 234.2 112.789 225.611 112.789C222.512 112.789 219.565 112.169 216.87 111.045V2.70081C216.87 -17.57 200.44 -34 180.176 -34H166.16C152.26 -34 139.555 -26.1453 133.336 -13.7147L76.3502 100.25C72.5093 107.932 64.6547 112.789 56.065 112.789C53.0312 112.789 50.1343 112.191 47.4897 111.11V2.70081C47.4897 -17.57 31.0597 -34 10.7961 -34H-3.21988C-17.1205 -34 -29.8249 -26.1453 -36.0438 -13.7147L-93.0371 100.25C-96.8779 107.932 -104.733 112.789 -113.322 112.789C-125.847 112.789 -136 102.635 -136 90.1111V251.709C-131.82 248.423 -128.325 244.229 -125.861 239.292L-68.8749 125.327C-65.034 117.646 -57.1794 112.789 -48.5897 112.789C-36.0654 112.789 -25.912 122.942 -25.912 135.467V222.877C-25.912 243.14 -9.48199 259.57 10.7816 259.57C26.0298 259.57 39.1089 250.267 44.6505 237.022L100.505 125.32C104.346 117.639 112.201 112.782 120.79 112.782C133.315 112.782 143.468 122.935 143.468 135.459V222.87C143.468 243.133 159.898 259.563 180.162 259.563C188.759 259.563 196.664 256.594 202.919 251.644V251.687C207.098 248.401 210.593 244.207 213.065 239.271L270.051 125.306C273.892 117.624 281.746 112.767 290.336 112.767C302.86 112.767 313.014 122.921 313.014 135.445V222.855C313.014 243.119 329.444 259.549 349.708 259.549C364.956 259.549 378.035 250.246 383.576 237.001L439.431 125.299C443.272 117.617 451.127 112.76 459.716 112.76C472.24 112.76 482.394 122.913 482.394 135.438V222.848C482.394 243.112 498.824 259.542 519.088 259.542C539.351 259.542 555.781 243.112 555.781 222.848V2.70081C555.781 -17.57 539.351 -34 519.088 -34H519.095Z" fill="#03323A"/>
<path d="M472.256 279.863L415.269 393.828C411.429 401.51 403.574 406.367 394.984 406.367C391.95 406.367 389.054 405.769 386.409 404.68V296.271C386.409 276.008 369.979 259.578 349.715 259.578H335.699C321.799 259.578 309.094 267.432 302.875 279.863L245.897 393.828C242.056 401.51 234.201 406.367 225.611 406.367C222.513 406.367 219.565 405.747 216.87 404.623V296.279C216.87 276.015 200.44 259.585 180.177 259.585H166.161C152.26 259.585 139.556 267.44 133.337 279.87L76.3508 393.835C72.5099 401.517 64.6553 406.374 56.0656 406.374C53.0318 406.374 50.1349 405.776 47.4903 404.688V296.279C47.4903 276.015 31.0603 259.585 10.7967 259.585H-3.21927C-17.1199 259.585 -29.8243 267.44 -36.0432 279.87L-93.0292 393.835C-96.8701 401.517 -104.725 406.374 -113.315 406.374C-125.839 406.374 -135.992 396.22 -135.992 383.696V545.294C-131.813 542.008 -128.318 537.814 -125.853 532.877L-68.8671 418.912C-65.0262 411.231 -57.1716 406.374 -48.5818 406.374C-36.0576 406.374 -25.9042 416.527 -25.9042 429.052V516.462C-25.9042 536.733 -9.47418 553.155 10.7895 553.155C26.0376 553.155 39.1167 543.852 44.6583 530.607L100.513 418.905C104.354 411.224 112.208 406.367 120.798 406.367C133.322 406.367 143.476 416.52 143.476 429.044V516.455C143.476 536.725 159.906 553.148 180.169 553.148C188.766 553.148 196.672 550.186 202.926 545.229V545.272C207.106 541.986 210.601 537.792 213.073 532.856L270.059 418.891C273.9 411.209 281.754 406.352 290.344 406.352C302.868 406.352 313.022 416.506 313.022 429.03V516.44C313.022 536.711 329.452 553.134 349.715 553.134C364.964 553.134 378.043 543.831 383.584 530.586L439.439 418.884C443.28 411.202 451.134 406.345 459.724 406.345C472.248 406.345 482.402 416.498 482.402 429.023V516.433C482.402 536.704 498.832 553.127 519.095 553.127C539.359 553.127 555.789 536.697 555.789 516.433V296.25C555.789 275.986 539.359 259.556 519.095 259.556H505.079C491.179 259.556 478.474 267.411 472.256 279.841V279.863Z" fill="#03323A"/>
</g>
<path fill-rule="evenodd" clip-rule="evenodd" d="M189.309 217.651C189.309 213.777 190.822 209.903 193.837 206.961L196.209 204.649L207.904 193.258L226.983 174.663L217.516 165.063C215.579 163.174 212.903 162 209.95 162C206.996 162 204.453 163.114 202.541 164.918L172.93 193.596C171.114 195.461 170 197.979 170 200.751V248.521C170 253.739 174.382 258 179.733 258H190.447L185.726 253.4C184.382 252.092 184.382 249.962 185.726 248.654C187.069 247.347 189.248 247.347 190.592 248.654L200.18 258H214.877L204.102 247.492C202.759 246.185 202.759 244.054 204.102 242.747C205.446 241.439 207.625 241.439 208.969 242.747L224.622 258H239.319L222.479 241.596C221.135 240.289 221.135 238.158 222.479 236.851C223.823 235.544 226.002 235.544 227.346 236.851L246.764 255.773C248.882 254.029 250.238 251.426 250.238 248.521V244.018L224.973 219.394L215.785 228.353C212.77 231.294 208.787 232.771 204.817 232.771C200.846 232.771 196.863 231.294 193.849 228.353C190.834 225.411 189.321 221.537 189.321 217.663" fill="white"/>
<path fill-rule="evenodd" clip-rule="evenodd" d="M201.089 209.394L198.716 211.707C197.046 213.341 196.198 215.496 196.198 217.651C196.198 219.806 197.034 221.96 198.716 223.595C200.387 225.229 202.602 226.04 204.818 226.04C207.033 226.04 209.248 225.217 210.919 223.595L224.974 209.891L225.047 209.963L229.853 214.648L250.251 234.526V202.434C250.251 199.685 249.162 197.192 247.382 195.339L231.765 179.505L212.783 198.015L201.089 209.407V209.394Z" fill="white"/>
</g>
<defs>
<clipPath id="clip0_1274_884">
<rect width="420" height="420" rx="12" fill="white"/>
</clipPath>
</defs>
</svg>
