<svg width="420" height="420" viewBox="0 0 420 420" fill="none" xmlns="http://www.w3.org/2000/svg">
<rect width="420" height="420" rx="12" fill="#03323A"/>
<path fill-rule="evenodd" clip-rule="evenodd" d="M99.261 214.456C99.261 212.196 100.144 209.937 101.902 208.222L103.285 206.873L110.105 200.229L121.232 189.385L115.711 183.786C114.582 182.685 113.021 182 111.299 182C109.576 182 108.093 182.65 106.978 183.702L89.7086 200.427C88.6495 201.514 88 202.983 88 204.6V232.459C88 235.502 90.5558 237.987 93.6764 237.987H99.9247L97.1712 235.304C96.3875 234.542 96.3875 233.299 97.1712 232.537C97.9549 231.774 99.2257 231.774 100.009 232.537L105.601 237.987H114.172L107.889 231.859C107.105 231.097 107.105 229.854 107.889 229.091C108.672 228.329 109.943 228.329 110.727 229.091L119.856 237.987H128.427L118.606 228.421C117.822 227.658 117.822 226.416 118.606 225.653C119.39 224.891 120.66 224.891 121.444 225.653L132.769 236.688C134.004 235.672 134.795 234.154 134.795 232.459V229.833L120.06 215.472L114.702 220.697C112.944 222.413 110.621 223.274 108.305 223.274C105.989 223.274 103.667 222.413 101.909 220.697C100.151 218.981 99.2681 216.722 99.2681 214.463" fill="#00CC74"/>
<path fill-rule="evenodd" clip-rule="evenodd" d="M106.131 209.641L104.748 210.989C103.773 211.942 103.279 213.199 103.279 214.456C103.279 215.712 103.766 216.969 104.748 217.922C105.722 218.875 107.014 219.348 108.306 219.348C109.598 219.348 110.89 218.868 111.864 217.922L120.061 209.93L120.103 209.972L122.906 212.705L134.803 224.298V205.581C134.803 203.978 134.167 202.524 133.13 201.444L124.022 192.209L112.951 203.004L106.131 209.648V209.641Z" fill="#00CC74"/>
<path d="M175.482 222.711C175.482 231.656 169.784 237.996 161.955 237.996C157.373 237.996 153.857 235.758 151.732 232.454V237.354H145.716V196.341H151.732V213.067C153.864 209.713 157.38 207.419 162.011 207.419C169.679 207.419 175.489 213.759 175.489 222.704L175.482 222.711ZM169.403 222.711C169.403 217.119 165.781 213.18 160.67 213.18C155.558 213.18 151.668 217.119 151.668 222.711C151.668 228.303 155.558 232.242 160.67 232.242C165.781 232.242 169.403 228.352 169.403 222.711Z" fill="white"/>
<path d="M186.397 198.528C186.397 200.71 184.745 202.312 182.457 202.312C180.17 202.312 178.567 200.717 178.567 198.528C178.567 196.339 180.268 194.85 182.457 194.85C184.646 194.85 186.397 196.396 186.397 198.528ZM179.471 208.059H185.486V237.352H179.471V208.059Z" fill="white"/>
<path d="M219.58 196.345V237.357H213.565V232.458C211.383 235.762 207.867 238 203.285 238C195.455 238 189.758 231.66 189.758 222.715C189.758 213.769 195.561 207.429 203.236 207.429C207.867 207.429 211.383 209.717 213.572 213.077V196.352H219.587L219.58 196.345ZM213.558 222.707C213.558 217.116 209.668 213.176 204.556 213.176C199.444 213.176 195.823 217.116 195.823 222.707C195.823 228.299 199.501 232.239 204.556 232.239C209.611 232.239 213.558 228.349 213.558 222.707Z" fill="white"/>
<path d="M253.666 196.345V237.357H247.651V232.458C245.47 235.762 241.954 238 237.372 238C229.542 238 223.844 231.66 223.844 222.715C223.844 213.769 229.648 207.429 237.322 207.429C241.954 207.429 245.47 209.717 247.658 213.077V196.352H253.674L253.666 196.345ZM247.651 222.707C247.651 217.116 243.761 213.176 238.649 213.176C233.538 213.176 229.916 217.116 229.916 222.707C229.916 228.299 233.594 232.239 238.649 232.239C243.705 232.239 247.651 228.349 247.651 222.707Z" fill="white"/>
<path d="M258.623 196.345H264.695V237.357H258.623V196.345Z" fill="white"/>
<path d="M298.456 224.36H274.65C275.13 229.74 278.907 232.719 283.814 232.719C287.33 232.719 290.26 231.23 291.643 228.349H297.878C295.59 234.901 289.998 237.986 283.764 237.986C274.868 237.986 268.528 231.597 268.528 222.75C268.528 213.904 274.812 207.409 283.651 207.409C293.077 207.409 299.042 214.709 298.456 224.346V224.36ZM274.974 219.46H292.018C291.114 215.464 288.078 212.64 283.658 212.64C279.239 212.64 275.991 215.514 274.974 219.46Z" fill="white"/>
<path d="M331.215 224.36H307.408C307.888 229.74 311.666 232.719 316.572 232.719C320.088 232.719 323.018 231.23 324.402 228.349H330.636C328.349 234.901 322.75 237.986 316.523 237.986C307.627 237.986 301.287 231.597 301.287 222.75C301.287 213.904 307.571 207.409 316.41 207.409C325.835 207.409 331.801 214.709 331.215 224.346V224.36ZM307.726 219.46H324.769C323.866 215.464 320.83 212.64 316.41 212.64C311.99 212.64 308.743 215.514 307.726 219.46Z" fill="white"/>
</svg>
