<svg width="420" height="420" viewBox="0 0 420 420" fill="none" xmlns="http://www.w3.org/2000/svg">
<rect width="420" height="420" rx="12" fill="#F8E886"/>
<path d="M148.971 216.116C148.971 224.822 143.426 230.993 135.805 230.993C131.345 230.993 127.923 228.814 125.855 225.599V230.367H120V190.45H125.855V206.729C127.93 203.465 131.352 201.231 135.86 201.231C143.323 201.231 148.978 207.402 148.978 216.109L148.971 216.116ZM143.055 216.116C143.055 210.673 139.529 206.839 134.554 206.839C129.579 206.839 125.793 210.673 125.793 216.116C125.793 221.558 129.579 225.392 134.554 225.392C139.529 225.392 143.055 221.606 143.055 216.116Z" fill="#03323A"/>
<path d="M159.595 192.58C159.595 194.704 157.987 196.263 155.76 196.263C153.534 196.263 151.974 194.71 151.974 192.58C151.974 190.45 153.63 189 155.76 189C157.891 189 159.595 190.505 159.595 192.58ZM152.854 201.857H158.708V230.368H152.854V201.857Z" fill="#03323A"/>
<path d="M191.892 190.457V230.375H186.037V225.606C183.914 228.822 180.492 231 176.032 231C168.411 231 162.866 224.829 162.866 216.123C162.866 207.416 168.514 201.246 175.984 201.246C180.492 201.246 183.914 203.472 186.044 206.743V190.464H191.899L191.892 190.457ZM186.03 216.116C186.03 210.674 182.244 206.839 177.269 206.839C172.294 206.839 168.769 210.674 168.769 216.116C168.769 221.558 172.349 225.393 177.269 225.393C182.189 225.393 186.03 221.606 186.03 216.116Z" fill="#03323A"/>
<path d="M225.069 190.457V230.375H219.214V225.606C217.091 228.822 213.668 231 209.209 231C201.588 231 196.042 224.829 196.042 216.123C196.042 207.416 201.691 201.246 209.161 201.246C213.668 201.246 217.091 203.472 219.221 206.743V190.464H225.075L225.069 190.457ZM219.214 216.116C219.214 210.674 215.428 206.839 210.452 206.839C205.477 206.839 201.952 210.674 201.952 216.116C201.952 221.558 205.532 225.393 210.452 225.393C215.373 225.393 219.214 221.606 219.214 216.116Z" fill="#03323A"/>
<path d="M229.892 190.457H235.802V230.375H229.892V190.457Z" fill="#03323A"/>
<path d="M268.662 217.724H245.491C245.958 222.96 249.635 225.86 254.41 225.86C257.833 225.86 260.684 224.41 262.031 221.607H268.099C265.872 227.984 260.43 230.986 254.362 230.986C245.704 230.986 239.533 224.768 239.533 216.157C239.533 207.547 245.649 201.225 254.252 201.225C263.426 201.225 269.233 208.33 268.662 217.71V217.724ZM245.807 212.955H262.395C261.516 209.066 258.561 206.317 254.259 206.317C249.958 206.317 246.797 209.114 245.807 212.955Z" fill="#03323A"/>
<path d="M300.547 217.724H277.376C277.843 222.96 281.519 225.86 286.295 225.86C289.717 225.86 292.569 224.41 293.916 221.607H299.984C297.757 227.984 292.308 230.986 286.247 230.986C277.589 230.986 271.418 224.768 271.418 216.157C271.418 207.547 277.534 201.225 286.137 201.225C295.311 201.225 301.118 208.33 300.547 217.71V217.724ZM277.685 212.955H294.273C293.394 209.066 290.439 206.317 286.137 206.317C281.835 206.317 278.674 209.114 277.685 212.955Z" fill="#03323A"/>
</svg>
