<svg width="643" height="360" viewBox="0 0 643 360" fill="none" xmlns="http://www.w3.org/2000/svg">
<rect width="643" height="360" rx="12" fill="#E6E2DE"/>
<path d="M37.28 270L72.48 180.4H84.768L119.968 270H106.144L97.568 247.216H59.68L51.104 270H37.28ZM64.032 235.568H93.216L78.624 197.04L64.032 235.568ZM144.597 271.024C131.413 271.024 122.581 263.088 122.581 251.568C122.581 239.152 132.565 230.96 147.669 230.96H161.237C164.181 230.96 165.589 229.936 165.589 227.632C165.589 219.824 159.829 214.448 149.973 214.448C140.885 214.448 134.485 220.08 134.101 226.608H122.581C123.605 213.936 134.997 204.464 150.357 204.464C166.997 204.464 177.877 214.064 177.877 228.4V270H165.589V259.376C162.389 266.416 154.325 271.024 144.597 271.024ZM147.029 261.168C158.677 261.168 165.589 253.616 165.589 241.712V240.56H148.949C140.501 240.56 134.997 244.528 134.997 251.312C134.997 257.2 139.733 261.168 147.029 261.168Z" fill="#1A1A1A"/>
<path d="M42.94 311.34H41.54C39.5 311.34 38.92 313.18 38.92 315.56V320H37.32V309.92H38.92V311.96C39.34 310.58 40.18 309.92 41.66 309.92H42.94V311.34ZM48.3155 320.16C45.3355 320.16 43.1955 317.98 43.1955 314.96C43.1955 311.92 45.3355 309.76 48.3155 309.76C51.3155 309.76 53.4555 311.92 53.4555 314.96C53.4555 317.98 51.3155 320.16 48.3155 320.16ZM48.3155 318.72C50.3955 318.72 51.8155 317.16 51.8155 314.96C51.8155 312.76 50.3955 311.2 48.3155 311.2C46.2555 311.2 44.8355 312.76 44.8355 314.96C44.8355 317.16 46.2555 318.72 48.3155 318.72ZM59.6538 320.16C56.6738 320.16 54.5338 317.98 54.5338 314.96C54.5338 311.92 56.6738 309.76 59.6538 309.76C62.6538 309.76 64.7938 311.92 64.7938 314.96C64.7938 317.98 62.6538 320.16 59.6538 320.16ZM59.6538 318.72C61.7338 318.72 63.1538 317.16 63.1538 314.96C63.1538 312.76 61.7338 311.2 59.6538 311.2C57.5938 311.2 56.1738 312.76 56.1738 314.96C56.1738 317.16 57.5938 318.72 59.6538 318.72ZM71.472 320.16C70.072 320.16 68.752 319.44 68.132 318.34V320H66.532V305.78H68.132V311.56C68.752 310.48 70.052 309.76 71.472 309.76C74.612 309.76 76.332 312.02 76.332 314.96C76.332 317.9 74.612 320.16 71.472 320.16ZM71.332 318.72C73.372 318.72 74.692 317.24 74.692 314.96C74.692 312.68 73.372 311.2 71.332 311.2C69.312 311.2 67.992 312.68 67.992 314.96C67.992 317.24 69.312 318.72 71.332 318.72ZM85.3856 316.76H87.0056C86.6656 318.82 84.8856 320.16 82.3856 320.16C79.4056 320.16 77.4056 317.78 77.4056 314.9C77.4056 311.94 79.2456 309.76 82.2056 309.76C85.1456 309.76 86.9056 311.8 86.9056 314.48C86.9056 314.7 86.8856 315.04 86.8656 315.18H78.9856C79.1056 317.26 80.4856 318.74 82.3856 318.74C84.0256 318.74 85.0656 318.02 85.3856 316.76ZM82.2056 311.12C80.5056 311.12 79.3656 312.12 79.0656 313.9H85.2656C85.1456 312.2 84.0056 311.12 82.2056 311.12ZM95.0998 306.7H96.6998V309.92H99.7998V311.34H96.6998V316.8C96.6998 317.92 97.3398 318.58 98.3198 318.58H99.7998V320H98.2598C96.3398 320 95.0998 318.8 95.0998 316.84V306.7ZM94.1798 311.34H92.8798C90.8398 311.34 90.2598 313.18 90.2598 315.56V320H88.6598V309.92H90.2598V311.96C90.6798 310.58 91.5198 309.92 92.9998 309.92H94.1798V311.34ZM111.117 311.34H109.717C107.677 311.34 107.097 313.18 107.097 315.56V320H105.497V309.92H107.097V311.96C107.517 310.58 108.357 309.92 109.837 309.92H111.117V311.34ZM119.352 316.76H120.972C120.632 318.82 118.852 320.16 116.352 320.16C113.372 320.16 111.372 317.78 111.372 314.9C111.372 311.94 113.212 309.76 116.172 309.76C119.112 309.76 120.872 311.8 120.872 314.48C120.872 314.7 120.852 315.04 120.832 315.18H112.952C113.072 317.26 114.452 318.74 116.352 318.74C117.992 318.74 119.032 318.02 119.352 316.76ZM116.172 311.12C114.472 311.12 113.332 312.12 113.032 313.9H119.232C119.112 312.2 117.972 311.12 116.172 311.12ZM130.326 309.92H131.926V320.44C131.926 322.58 130.386 324.08 128.206 324.08H123.446V322.7H128.106C129.406 322.7 130.326 321.72 130.326 320.38V318.6C129.846 319.54 128.506 320.16 126.986 320.16C123.846 320.16 122.126 317.9 122.126 314.96C122.126 312.02 123.846 309.76 126.986 309.76C128.346 309.76 129.706 310.44 130.326 311.4V309.92ZM127.126 318.72C129.146 318.72 130.466 317.24 130.466 314.96C130.466 312.68 129.146 311.2 127.126 311.2C125.086 311.2 123.766 312.68 123.766 314.96C123.766 317.24 125.086 318.72 127.126 318.72ZM142.566 309.92V320H140.966V318.06C140.446 319.46 139.206 320.16 137.646 320.16C135.366 320.16 133.886 318.54 133.886 316.08V309.92H135.486V315.82C135.486 317.54 136.486 318.7 138.006 318.7C139.746 318.7 140.966 317.32 140.966 315.36V309.92H142.566ZM144.895 320V305.78H146.495V320H144.895ZM152.553 309.76C155.173 309.76 156.813 311.26 156.813 313.5V320H155.213V318.26C154.673 319.42 153.333 320.16 151.773 320.16C149.653 320.16 148.273 318.96 148.273 317.12C148.273 315.2 149.853 313.98 152.293 313.98H154.573C155.013 313.98 155.213 313.76 155.213 313.44C155.213 312.06 154.233 311.12 152.513 311.12C151.033 311.12 149.873 312.04 149.793 313.14H148.273C148.453 311.2 150.293 309.76 152.553 309.76ZM152.013 318.8C154.033 318.8 155.213 317.54 155.213 315.46V315.2H152.393C150.893 315.2 149.913 315.92 149.913 317.1C149.913 318.14 150.733 318.8 152.013 318.8ZM164.4 311.34H163C160.96 311.34 160.38 313.18 160.38 315.56V320H158.78V309.92H160.38V311.96C160.8 310.58 161.64 309.92 163.12 309.92H164.4V311.34Z" fill="#1A1A1A"/>
<rect x="178.5" y="308" width="10" height="1.5" rx="0.75" transform="rotate(90 178.5 308)" fill="#1A1A1A"/>
<path d="M191.92 320V309.92H193.86V311.7C194.28 310.56 195.38 309.76 196.88 309.76C198.42 309.76 199.7 310.52 200.1 311.84C200.52 310.64 201.92 309.76 203.38 309.76C205.56 309.76 206.92 311.26 206.92 313.6V320H204.98V314.14C204.98 312.54 204.18 311.46 202.84 311.46C201.3 311.46 200.38 312.9 200.38 314.5V320H198.44V314.14C198.44 312.54 197.64 311.46 196.32 311.46C194.78 311.46 193.86 312.9 193.86 314.5V320H191.92ZM213.575 320.16C210.455 320.16 208.535 317.7 208.535 314.9C208.535 312.08 210.295 309.76 213.395 309.76C216.495 309.76 218.155 311.98 218.155 314.54C218.155 314.8 218.135 315.14 218.115 315.32H210.435C210.595 317.2 211.835 318.5 213.575 318.5C215.055 318.5 216.015 317.86 216.295 316.72H218.235C217.895 318.8 216.075 320.16 213.575 320.16ZM210.495 313.82H216.195C216.075 312.28 215.055 311.32 213.395 311.32C211.835 311.32 210.795 312.18 210.495 313.82ZM224.107 320.16C221.107 320.16 219.367 317.94 219.367 314.96C219.367 311.98 221.087 309.76 224.127 309.76C225.487 309.76 226.747 310.4 227.367 311.4V305.7H229.307V320H227.367V318.5C226.767 319.5 225.487 320.16 224.107 320.16ZM224.427 318.46C226.287 318.46 227.507 317.06 227.507 314.96C227.507 312.86 226.287 311.46 224.427 311.46C222.547 311.46 221.327 312.86 221.327 314.96C221.327 317.06 222.547 318.46 224.427 318.46ZM231.755 320V309.92H233.695V320H231.755ZM231.635 305.7H233.795V308.14H231.635V305.7ZM239.741 320.16C237.461 320.16 235.981 318.52 235.981 316.12V309.92H237.921V315.74C237.921 317.34 238.861 318.42 240.281 318.42C241.861 318.42 243.001 317.14 243.001 315.38V309.92H244.941V320H243.001V318.22C242.461 319.48 241.241 320.16 239.741 320.16ZM247.361 320V309.92H249.301V311.7C249.721 310.56 250.821 309.76 252.321 309.76C253.861 309.76 255.141 310.52 255.541 311.84C255.961 310.64 257.361 309.76 258.821 309.76C261.001 309.76 262.361 311.26 262.361 313.6V320H260.421V314.14C260.421 312.54 259.621 311.46 258.281 311.46C256.741 311.46 255.821 312.9 255.821 314.5V320H253.881V314.14C253.881 312.54 253.081 311.46 251.761 311.46C250.221 311.46 249.301 312.9 249.301 314.5V320H247.361Z" fill="#1A1A1A"/>
<rect x="278" y="308" width="10" height="1.5" rx="0.75" transform="rotate(90 278 308)" fill="#1A1A1A"/>
<path d="M294.74 320.16C292.24 320.16 290.74 318.86 290.58 316.66H292.74C292.84 317.66 293.6 318.26 294.74 318.26C295.74 318.26 296.42 317.8 296.42 317.06C296.42 314.92 290.86 316.9 290.86 312.82C290.86 311 292.38 309.76 294.48 309.76C296.92 309.76 298.4 311 298.52 312.98H296.36C296.24 312.12 295.52 311.56 294.54 311.56C293.68 311.56 293 311.96 293 312.72C293 314.86 298.62 312.7 298.62 316.88C298.62 318.94 297.12 320.16 294.74 320.16ZM304.676 320.16C301.376 320.16 299.556 317.56 299.556 314.92C299.556 312.26 301.196 309.76 304.496 309.76C307.856 309.76 309.376 312.22 309.376 314.62C309.376 314.96 309.356 315.28 309.336 315.48H301.936C302.136 317.08 303.136 318.12 304.676 318.12C305.936 318.12 306.776 317.6 307.016 316.64H309.416C309.056 318.78 307.176 320.16 304.676 320.16ZM301.996 313.8H306.936C306.836 312.52 305.956 311.62 304.496 311.62C303.136 311.62 302.276 312.38 301.996 313.8ZM310.928 320V309.92H313.388V311.46C313.868 310.46 314.928 309.76 316.348 309.76C317.788 309.76 319.008 310.48 319.448 311.7C319.948 310.58 321.348 309.76 322.788 309.76C324.968 309.76 326.368 311.32 326.368 313.48V320H323.908V314.22C323.908 312.8 323.188 311.86 321.988 311.86C320.668 311.86 319.868 313.02 319.868 314.44V320H317.428V314.22C317.428 312.8 316.688 311.86 315.508 311.86C314.188 311.86 313.388 313.02 313.388 314.44V320H310.928ZM328.321 320V309.92H330.781V320H328.321ZM328.241 305.6H330.881V308.34H328.241V305.6ZM342.358 320.16C341.058 320.16 339.898 319.6 339.298 318.74V320H336.838V305.6H339.298V311.14C339.918 310.3 341.058 309.76 342.318 309.76C345.238 309.76 346.998 311.9 346.998 314.96C346.998 318.02 345.238 320.16 342.358 320.16ZM341.858 318.04C343.478 318.04 344.558 316.82 344.558 314.96C344.558 313.1 343.478 311.88 341.858 311.88C340.218 311.88 339.138 313.1 339.138 314.96C339.138 316.82 340.218 318.04 341.858 318.04ZM353.188 320.16C350.108 320.16 347.908 317.96 347.908 314.96C347.908 311.96 350.108 309.76 353.188 309.76C356.248 309.76 358.448 311.96 358.448 314.96C358.448 317.96 356.248 320.16 353.188 320.16ZM353.188 318.04C354.848 318.04 355.968 316.78 355.968 314.96C355.968 313.14 354.848 311.88 353.188 311.88C351.508 311.88 350.388 313.14 350.388 314.96C350.388 316.78 351.508 318.04 353.188 318.04ZM359.924 320V305.6H362.384V320H359.924ZM368.546 320.16C365.666 320.16 363.906 318.02 363.906 314.96C363.906 311.9 365.666 309.76 368.586 309.76C369.846 309.76 370.986 310.3 371.626 311.14V305.6H374.066V320H371.626V318.74C371.026 319.6 369.846 320.16 368.546 320.16ZM369.046 318.04C370.686 318.04 371.766 316.82 371.766 314.96C371.766 313.1 370.686 311.88 369.046 311.88C367.426 311.88 366.346 313.1 366.346 314.96C366.346 316.82 367.426 318.04 369.046 318.04Z" fill="#1A1A1A"/>
<rect x="389.5" y="308" width="10" height="1.5" rx="0.75" transform="rotate(90 389.5 308)" fill="#1A1A1A"/>
<path d="M408.36 320.16C407.12 320.16 406.02 319.68 405.42 318.9V320H402.64V305.54H405.42V310.98C406.06 310.22 407.12 309.76 408.32 309.76C411.16 309.76 412.94 311.86 412.94 314.96C412.94 318.08 411.14 320.16 408.36 320.16ZM407.72 317.76C409.2 317.76 410.18 316.64 410.18 314.96C410.18 313.26 409.2 312.14 407.72 312.14C406.26 312.14 405.26 313.26 405.26 314.96C405.26 316.64 406.26 317.76 407.72 317.76ZM419.051 320.16C415.951 320.16 413.731 317.96 413.731 314.96C413.731 311.96 415.951 309.76 419.051 309.76C422.151 309.76 424.371 311.96 424.371 314.96C424.371 317.96 422.151 320.16 419.051 320.16ZM419.051 317.76C420.551 317.76 421.571 316.62 421.571 314.96C421.571 313.28 420.551 312.14 419.051 312.14C417.551 312.14 416.531 313.28 416.531 314.96C416.531 316.62 417.551 317.76 419.051 317.76ZM425.688 320V305.54H428.468V320H425.688ZM434.386 320.16C431.606 320.16 429.826 318.08 429.826 314.96C429.826 311.86 431.606 309.76 434.446 309.76C435.626 309.76 436.706 310.22 437.346 310.98V305.54H440.126V320H437.346V318.9C436.746 319.68 435.626 320.16 434.386 320.16ZM435.026 317.76C436.506 317.76 437.486 316.64 437.486 314.96C437.486 313.26 436.506 312.14 435.026 312.14C433.566 312.14 432.566 313.26 432.566 314.96C432.566 316.64 433.566 317.76 435.026 317.76Z" fill="#1A1A1A"/>
</svg>
