<svg width="643" height="360" viewBox="0 0 643 360" fill="none" xmlns="http://www.w3.org/2000/svg">
<rect width="643" height="360" rx="12" fill="#E6E2DE"/>
<path d="M37.408 270L70.304 174.64H92.832L125.728 270H106.784L100 249.52H63.136L56.224 270H37.408ZM68.128 234.16H95.008L79.136 186.672H84L68.128 234.16ZM153.493 271.536C148.629 271.536 144.405 270.725 140.821 269.104C137.237 267.483 134.464 265.179 132.501 262.192C130.538 259.12 129.557 255.579 129.557 251.568C129.557 247.728 130.41 244.315 132.117 241.328C133.824 238.256 136.469 235.696 140.053 233.648C143.637 231.6 148.16 230.149 153.621 229.296L176.405 225.584V238.384L156.821 241.712C153.493 242.309 151.018 243.376 149.397 244.912C147.776 246.448 146.965 248.453 146.965 250.928C146.965 253.317 147.861 255.237 149.653 256.688C151.53 258.053 153.834 258.736 156.565 258.736C160.064 258.736 163.136 258.011 165.781 256.56C168.512 255.024 170.602 252.933 172.053 250.288C173.589 247.643 174.357 244.741 174.357 241.584V223.664C174.357 220.677 173.162 218.203 170.773 216.24C168.469 214.192 165.397 213.168 161.557 213.168C157.973 213.168 154.773 214.149 151.957 216.112C149.226 217.989 147.221 220.507 145.941 223.664L132.245 217.008C133.61 213.339 135.744 210.181 138.645 207.536C141.632 204.805 145.13 202.672 149.141 201.136C153.152 199.6 157.504 198.832 162.197 198.832C167.914 198.832 172.949 199.899 177.301 202.032C181.653 204.08 185.024 206.981 187.413 210.736C189.888 214.405 191.125 218.715 191.125 223.664V270H175.253V258.096L178.837 257.84C177.045 260.827 174.912 263.344 172.437 265.392C169.962 267.355 167.146 268.891 163.989 270C160.832 271.024 157.333 271.536 153.493 271.536Z" fill="#1A1A1A"/>
<path d="M37.44 324V309.22H39.26V311.54L39.02 311.08C39.42 310.44 39.9667 309.933 40.66 309.56C41.3533 309.173 42.1467 308.98 43.04 308.98C44.0533 308.98 44.96 309.227 45.76 309.72C46.5733 310.213 47.2133 310.887 47.68 311.74C48.1467 312.58 48.38 313.54 48.38 314.62C48.38 315.673 48.1467 316.627 47.68 317.48C47.2133 318.333 46.5733 319.007 45.76 319.5C44.96 319.993 44.0467 320.24 43.02 320.24C42.1533 320.24 41.36 320.047 40.64 319.66C39.9333 319.273 39.3867 318.727 39 318.02L39.3 317.7V324H37.44ZM42.88 318.44C43.56 318.44 44.1667 318.273 44.7 317.94C45.2333 317.607 45.6467 317.153 45.94 316.58C46.2467 315.993 46.4 315.34 46.4 314.62C46.4 313.873 46.2467 313.22 45.94 312.66C45.6467 312.087 45.2333 311.633 44.7 311.3C44.1667 310.953 43.56 310.78 42.88 310.78C42.2 310.78 41.5867 310.947 41.04 311.28C40.5067 311.613 40.08 312.073 39.76 312.66C39.4533 313.233 39.3 313.887 39.3 314.62C39.3 315.34 39.4533 315.993 39.76 316.58C40.08 317.153 40.5067 317.607 41.04 317.94C41.5867 318.273 42.2 318.44 42.88 318.44ZM50.4189 320V304.86H52.2789V320H50.4189ZM58.585 320.24C57.8117 320.24 57.1117 320.06 56.485 319.7C55.8717 319.34 55.3917 318.84 55.045 318.2C54.7117 317.547 54.545 316.8 54.545 315.96V309.22H56.405V315.76C56.405 316.293 56.5117 316.76 56.725 317.16C56.9517 317.56 57.2583 317.873 57.645 318.1C58.045 318.327 58.4983 318.44 59.005 318.44C59.5117 318.44 59.9583 318.327 60.345 318.1C60.745 317.873 61.0517 317.547 61.265 317.12C61.4917 316.693 61.605 316.187 61.605 315.6V309.22H63.485V320H61.665V317.9L61.965 318.08C61.7117 318.76 61.2783 319.293 60.665 319.68C60.065 320.053 59.3717 320.24 58.585 320.24ZM69.8266 320.24C68.7466 320.24 67.8066 319.973 67.0066 319.44C66.2066 318.907 65.6399 318.187 65.3066 317.28L66.7866 316.56C67.0932 317.2 67.5132 317.707 68.0466 318.08C68.5799 318.453 69.1732 318.64 69.8266 318.64C70.4132 318.64 70.8999 318.5 71.2866 318.22C71.6732 317.94 71.8666 317.573 71.8666 317.12C71.8666 316.8 71.7732 316.547 71.5866 316.36C71.4132 316.16 71.1999 316.007 70.9466 315.9C70.6932 315.78 70.4599 315.693 70.2466 315.64L68.6266 315.18C67.6532 314.9 66.9399 314.5 66.4866 313.98C66.0466 313.46 65.8266 312.853 65.8266 312.16C65.8266 311.52 65.9866 310.967 66.3066 310.5C66.6399 310.02 67.0866 309.647 67.6466 309.38C68.2199 309.113 68.8599 308.98 69.5666 308.98C70.5132 308.98 71.3599 309.22 72.1066 309.7C72.8666 310.18 73.4066 310.853 73.7266 311.72L72.2066 312.42C71.9666 311.86 71.6066 311.42 71.1266 311.1C70.6466 310.767 70.1066 310.6 69.5066 310.6C68.9599 310.6 68.5266 310.74 68.2066 311.02C67.8866 311.287 67.7266 311.627 67.7266 312.04C67.7266 312.347 67.8066 312.6 67.9666 312.8C68.1266 312.987 68.3199 313.133 68.5466 313.24C68.7732 313.333 68.9932 313.413 69.2066 313.48L70.9666 314C71.8466 314.253 72.5266 314.647 73.0066 315.18C73.4999 315.713 73.7466 316.353 73.7466 317.1C73.7466 317.7 73.5799 318.24 73.2466 318.72C72.9132 319.2 72.4532 319.573 71.8666 319.84C71.2799 320.107 70.5999 320.24 69.8266 320.24ZM76.9984 324.4C76.8784 324.4 76.7318 324.393 76.5584 324.38C76.3851 324.367 76.2451 324.347 76.1384 324.32V322.64C76.4051 322.68 76.6718 322.7 76.9384 322.7C77.4851 322.7 77.9384 322.547 78.2984 322.24C78.6584 321.933 78.8384 321.467 78.8384 320.84V309.22H80.6984V320.84C80.6984 321.613 80.5384 322.26 80.2184 322.78C79.8984 323.313 79.4584 323.713 78.8984 323.98C78.3384 324.26 77.7051 324.4 76.9984 324.4ZM78.8384 307.5V305.1H80.6984V307.5H78.8384ZM86.3445 320.24C85.6379 320.24 85.0112 320.113 84.4645 319.86C83.9312 319.593 83.5112 319.233 83.2045 318.78C82.8979 318.313 82.7445 317.78 82.7445 317.18C82.7445 316.607 82.8645 316.093 83.1045 315.64C83.3579 315.173 83.7445 314.78 84.2645 314.46C84.7979 314.14 85.4645 313.913 86.2645 313.78L90.2645 313.12V314.68L86.6845 315.28C85.9912 315.4 85.4845 315.62 85.1645 315.94C84.8579 316.26 84.7045 316.653 84.7045 317.12C84.7045 317.56 84.8779 317.927 85.2245 318.22C85.5845 318.513 86.0312 318.66 86.5645 318.66C87.2445 318.66 87.8312 318.52 88.3245 318.24C88.8312 317.947 89.2245 317.553 89.5045 317.06C89.7979 316.567 89.9445 316.02 89.9445 315.42V312.68C89.9445 312.093 89.7245 311.62 89.2845 311.26C88.8579 310.887 88.2912 310.7 87.5845 310.7C86.9712 310.7 86.4245 310.86 85.9445 311.18C85.4779 311.487 85.1312 311.9 84.9045 312.42L83.2845 311.58C83.4845 311.087 83.8045 310.647 84.2445 310.26C84.6845 309.86 85.1979 309.547 85.7845 309.32C86.3712 309.093 86.9845 308.98 87.6245 308.98C88.4512 308.98 89.1779 309.14 89.8045 309.46C90.4312 309.767 90.9179 310.2 91.2645 310.76C91.6245 311.307 91.8045 311.947 91.8045 312.68V320H89.9845V317.96L90.3245 318.08C90.0979 318.507 89.7912 318.88 89.4045 319.2C89.0179 319.52 88.5645 319.773 88.0445 319.96C87.5245 320.147 86.9579 320.24 86.3445 320.24ZM94.2884 320V304.86H96.1484V315.24L95.3884 315.06L101.108 309.22H103.488L99.3484 313.56L103.768 320H101.568L97.5284 314.16L98.6884 314.1L95.5484 317.38L96.1484 316.02V320H94.2884ZM108.201 320.24C107.494 320.24 106.867 320.113 106.321 319.86C105.787 319.593 105.367 319.233 105.061 318.78C104.754 318.313 104.601 317.78 104.601 317.18C104.601 316.607 104.721 316.093 104.961 315.64C105.214 315.173 105.601 314.78 106.121 314.46C106.654 314.14 107.321 313.913 108.121 313.78L112.121 313.12V314.68L108.541 315.28C107.847 315.4 107.341 315.62 107.021 315.94C106.714 316.26 106.561 316.653 106.561 317.12C106.561 317.56 106.734 317.927 107.081 318.22C107.441 318.513 107.887 318.66 108.421 318.66C109.101 318.66 109.687 318.52 110.181 318.24C110.687 317.947 111.081 317.553 111.361 317.06C111.654 316.567 111.801 316.02 111.801 315.42V312.68C111.801 312.093 111.581 311.62 111.141 311.26C110.714 310.887 110.147 310.7 109.441 310.7C108.827 310.7 108.281 310.86 107.801 311.18C107.334 311.487 106.987 311.9 106.761 312.42L105.141 311.58C105.341 311.087 105.661 310.647 106.101 310.26C106.541 309.86 107.054 309.547 107.641 309.32C108.227 309.093 108.841 308.98 109.481 308.98C110.307 308.98 111.034 309.14 111.661 309.46C112.287 309.767 112.774 310.2 113.121 310.76C113.481 311.307 113.661 311.947 113.661 312.68V320H111.841V317.96L112.181 318.08C111.954 318.507 111.647 318.88 111.261 319.2C110.874 319.52 110.421 319.773 109.901 319.96C109.381 320.147 108.814 320.24 108.201 320.24ZM116.145 320V309.22H117.965V311.2L117.765 310.92C118.018 310.307 118.405 309.853 118.925 309.56C119.445 309.253 120.078 309.1 120.825 309.1H121.485V310.86H120.545C119.785 310.86 119.171 311.1 118.705 311.58C118.238 312.047 118.005 312.713 118.005 313.58V320H116.145ZM127.215 320.12C126.161 320.12 125.348 319.82 124.775 319.22C124.215 318.62 123.935 317.773 123.935 316.68V311H121.975V309.22H122.375C122.855 309.22 123.235 309.073 123.515 308.78C123.795 308.487 123.935 308.1 123.935 307.62V306.74H125.795V309.22H128.215V311H125.795V316.62C125.795 316.98 125.848 317.293 125.955 317.56C126.075 317.827 126.268 318.04 126.535 318.2C126.801 318.347 127.155 318.42 127.595 318.42C127.688 318.42 127.801 318.413 127.935 318.4C128.081 318.387 128.215 318.373 128.335 318.36V320C128.161 320.04 127.968 320.067 127.755 320.08C127.541 320.107 127.361 320.12 127.215 320.12ZM133.387 320.24C132.681 320.24 132.054 320.113 131.507 319.86C130.974 319.593 130.554 319.233 130.247 318.78C129.941 318.313 129.787 317.78 129.787 317.18C129.787 316.607 129.907 316.093 130.147 315.64C130.401 315.173 130.787 314.78 131.307 314.46C131.841 314.14 132.507 313.913 133.307 313.78L137.307 313.12V314.68L133.727 315.28C133.034 315.4 132.527 315.62 132.207 315.94C131.901 316.26 131.747 316.653 131.747 317.12C131.747 317.56 131.921 317.927 132.267 318.22C132.627 318.513 133.074 318.66 133.607 318.66C134.287 318.66 134.874 318.52 135.367 318.24C135.874 317.947 136.267 317.553 136.547 317.06C136.841 316.567 136.987 316.02 136.987 315.42V312.68C136.987 312.093 136.767 311.62 136.327 311.26C135.901 310.887 135.334 310.7 134.627 310.7C134.014 310.7 133.467 310.86 132.987 311.18C132.521 311.487 132.174 311.9 131.947 312.42L130.327 311.58C130.527 311.087 130.847 310.647 131.287 310.26C131.727 309.86 132.241 309.547 132.827 309.32C133.414 309.093 134.027 308.98 134.667 308.98C135.494 308.98 136.221 309.14 136.847 309.46C137.474 309.767 137.961 310.2 138.307 310.76C138.667 311.307 138.847 311.947 138.847 312.68V320H137.027V317.96L137.367 318.08C137.141 318.507 136.834 318.88 136.447 319.2C136.061 319.52 135.607 319.773 135.087 319.96C134.567 320.147 134.001 320.24 133.387 320.24ZM148.248 320.24C147.168 320.24 146.228 319.973 145.428 319.44C144.628 318.907 144.062 318.187 143.728 317.28L145.208 316.56C145.515 317.2 145.935 317.707 146.468 318.08C147.002 318.453 147.595 318.64 148.248 318.64C148.835 318.64 149.322 318.5 149.708 318.22C150.095 317.94 150.288 317.573 150.288 317.12C150.288 316.8 150.195 316.547 150.008 316.36C149.835 316.16 149.622 316.007 149.368 315.9C149.115 315.78 148.882 315.693 148.668 315.64L147.048 315.18C146.075 314.9 145.362 314.5 144.908 313.98C144.468 313.46 144.248 312.853 144.248 312.16C144.248 311.52 144.408 310.967 144.728 310.5C145.062 310.02 145.508 309.647 146.068 309.38C146.642 309.113 147.282 308.98 147.988 308.98C148.935 308.98 149.782 309.22 150.528 309.7C151.288 310.18 151.828 310.853 152.148 311.72L150.628 312.42C150.388 311.86 150.028 311.42 149.548 311.1C149.068 310.767 148.528 310.6 147.928 310.6C147.382 310.6 146.948 310.74 146.628 311.02C146.308 311.287 146.148 311.627 146.148 312.04C146.148 312.347 146.228 312.6 146.388 312.8C146.548 312.987 146.742 313.133 146.968 313.24C147.195 313.333 147.415 313.413 147.628 313.48L149.388 314C150.268 314.253 150.948 314.647 151.428 315.18C151.922 315.713 152.168 316.353 152.168 317.1C152.168 317.7 152.002 318.24 151.668 318.72C151.335 319.2 150.875 319.573 150.288 319.84C149.702 320.107 149.022 320.24 148.248 320.24ZM157.363 320.24C156.657 320.24 156.03 320.113 155.483 319.86C154.95 319.593 154.53 319.233 154.223 318.78C153.917 318.313 153.763 317.78 153.763 317.18C153.763 316.607 153.883 316.093 154.123 315.64C154.377 315.173 154.763 314.78 155.283 314.46C155.817 314.14 156.483 313.913 157.283 313.78L161.283 313.12V314.68L157.703 315.28C157.01 315.4 156.503 315.62 156.183 315.94C155.877 316.26 155.723 316.653 155.723 317.12C155.723 317.56 155.897 317.927 156.243 318.22C156.603 318.513 157.05 318.66 157.583 318.66C158.263 318.66 158.85 318.52 159.343 318.24C159.85 317.947 160.243 317.553 160.523 317.06C160.817 316.567 160.963 316.02 160.963 315.42V312.68C160.963 312.093 160.743 311.62 160.303 311.26C159.877 310.887 159.31 310.7 158.603 310.7C157.99 310.7 157.443 310.86 156.963 311.18C156.497 311.487 156.15 311.9 155.923 312.42L154.303 311.58C154.503 311.087 154.823 310.647 155.263 310.26C155.703 309.86 156.217 309.547 156.803 309.32C157.39 309.093 158.003 308.98 158.643 308.98C159.47 308.98 160.197 309.14 160.823 309.46C161.45 309.767 161.937 310.2 162.283 310.76C162.643 311.307 162.823 311.947 162.823 312.68V320H161.003V317.96L161.343 318.08C161.117 318.507 160.81 318.88 160.423 319.2C160.037 319.52 159.583 319.773 159.063 319.96C158.543 320.147 157.977 320.24 157.363 320.24ZM165.307 320V309.22H167.127V311.32L166.827 311.14C167.094 310.46 167.521 309.933 168.107 309.56C168.707 309.173 169.407 308.98 170.207 308.98C170.981 308.98 171.667 309.153 172.267 309.5C172.881 309.847 173.361 310.327 173.707 310.94C174.067 311.553 174.247 312.247 174.247 313.02V320H172.367V313.62C172.367 313.02 172.261 312.513 172.047 312.1C171.834 311.687 171.527 311.367 171.127 311.14C170.741 310.9 170.294 310.78 169.787 310.78C169.281 310.78 168.827 310.9 168.427 311.14C168.041 311.367 167.734 311.693 167.507 312.12C167.281 312.533 167.167 313.033 167.167 313.62V320H165.307ZM180.369 320.24C179.289 320.24 178.349 319.973 177.549 319.44C176.749 318.907 176.182 318.187 175.849 317.28L177.329 316.56C177.635 317.2 178.055 317.707 178.589 318.08C179.122 318.453 179.715 318.64 180.369 318.64C180.955 318.64 181.442 318.5 181.829 318.22C182.215 317.94 182.409 317.573 182.409 317.12C182.409 316.8 182.315 316.547 182.129 316.36C181.955 316.16 181.742 316.007 181.489 315.9C181.235 315.78 181.002 315.693 180.789 315.64L179.169 315.18C178.195 314.9 177.482 314.5 177.029 313.98C176.589 313.46 176.369 312.853 176.369 312.16C176.369 311.52 176.529 310.967 176.849 310.5C177.182 310.02 177.629 309.647 178.189 309.38C178.762 309.113 179.402 308.98 180.109 308.98C181.055 308.98 181.902 309.22 182.649 309.7C183.409 310.18 183.949 310.853 184.269 311.72L182.749 312.42C182.509 311.86 182.149 311.42 181.669 311.1C181.189 310.767 180.649 310.6 180.049 310.6C179.502 310.6 179.069 310.74 178.749 311.02C178.429 311.287 178.269 311.627 178.269 312.04C178.269 312.347 178.349 312.6 178.509 312.8C178.669 312.987 178.862 313.133 179.089 313.24C179.315 313.333 179.535 313.413 179.749 313.48L181.509 314C182.389 314.253 183.069 314.647 183.549 315.18C184.042 315.713 184.289 316.353 184.289 317.1C184.289 317.7 184.122 318.24 183.789 318.72C183.455 319.2 182.995 319.573 182.409 319.84C181.822 320.107 181.142 320.24 180.369 320.24Z" fill="#1A1A1A"/>
<rect x="199.5" y="307.5" width="10" height="1.5" rx="0.75" transform="rotate(90 199.5 307.5)" fill="#1A1A1A"/>
<path d="M212.94 320V309.22H214.76V311.42L214.5 311.08C214.767 310.4 215.193 309.88 215.78 309.52C216.367 309.16 217.027 308.98 217.76 308.98C218.6 308.98 219.353 309.213 220.02 309.68C220.7 310.147 221.167 310.76 221.42 311.52L220.9 311.54C221.18 310.7 221.653 310.067 222.32 309.64C222.987 309.2 223.727 308.98 224.54 308.98C225.287 308.98 225.96 309.153 226.56 309.5C227.173 309.847 227.66 310.327 228.02 310.94C228.38 311.553 228.56 312.247 228.56 313.02V320H226.68V313.62C226.68 313.02 226.573 312.513 226.36 312.1C226.147 311.687 225.853 311.367 225.48 311.14C225.12 310.9 224.693 310.78 224.2 310.78C223.72 310.78 223.287 310.9 222.9 311.14C222.527 311.367 222.227 311.693 222 312.12C221.787 312.533 221.68 313.033 221.68 313.62V320H219.8V313.62C219.8 313.02 219.693 312.513 219.48 312.1C219.267 311.687 218.973 311.367 218.6 311.14C218.24 310.9 217.813 310.78 217.32 310.78C216.84 310.78 216.407 310.9 216.02 311.14C215.647 311.367 215.347 311.693 215.12 312.12C214.907 312.533 214.8 313.033 214.8 313.62V320H212.94ZM235.762 320.24C234.722 320.24 233.795 319.993 232.982 319.5C232.168 319.007 231.528 318.333 231.062 317.48C230.595 316.613 230.362 315.647 230.362 314.58C230.362 313.5 230.588 312.54 231.042 311.7C231.508 310.86 232.135 310.2 232.922 309.72C233.722 309.227 234.615 308.98 235.602 308.98C236.402 308.98 237.108 309.127 237.722 309.42C238.348 309.7 238.875 310.087 239.302 310.58C239.742 311.06 240.075 311.613 240.302 312.24C240.542 312.853 240.662 313.493 240.662 314.16C240.662 314.307 240.648 314.473 240.622 314.66C240.608 314.833 240.588 315 240.562 315.16H231.722V313.56H239.482L238.602 314.28C238.722 313.587 238.655 312.967 238.402 312.42C238.148 311.873 237.775 311.44 237.282 311.12C236.788 310.8 236.228 310.64 235.602 310.64C234.975 310.64 234.402 310.8 233.882 311.12C233.362 311.44 232.955 311.9 232.662 312.5C232.382 313.087 232.268 313.787 232.322 314.6C232.268 315.387 232.388 316.08 232.682 316.68C232.988 317.267 233.415 317.727 233.962 318.06C234.522 318.38 235.128 318.54 235.782 318.54C236.502 318.54 237.108 318.373 237.602 318.04C238.095 317.707 238.495 317.28 238.802 316.76L240.362 317.56C240.148 318.053 239.815 318.507 239.362 318.92C238.922 319.32 238.395 319.64 237.782 319.88C237.182 320.12 236.508 320.24 235.762 320.24ZM247.587 320.24C246.574 320.24 245.66 319.993 244.847 319.5C244.047 319.007 243.414 318.333 242.947 317.48C242.48 316.627 242.247 315.673 242.247 314.62C242.247 313.54 242.48 312.58 242.947 311.74C243.414 310.887 244.047 310.213 244.847 309.72C245.66 309.227 246.574 308.98 247.587 308.98C248.48 308.98 249.274 309.173 249.967 309.56C250.66 309.933 251.207 310.44 251.607 311.08L251.307 311.54V304.86H253.187V320H251.367V317.7L251.607 318.02C251.234 318.727 250.687 319.273 249.967 319.66C249.26 320.047 248.467 320.24 247.587 320.24ZM247.747 318.44C248.427 318.44 249.034 318.273 249.567 317.94C250.1 317.607 250.52 317.153 250.827 316.58C251.147 315.993 251.307 315.34 251.307 314.62C251.307 313.887 251.147 313.233 250.827 312.66C250.52 312.073 250.1 311.613 249.567 311.28C249.034 310.947 248.427 310.78 247.747 310.78C247.08 310.78 246.474 310.953 245.927 311.3C245.394 311.633 244.974 312.087 244.667 312.66C244.36 313.22 244.207 313.873 244.207 314.62C244.207 315.34 244.36 315.993 244.667 316.58C244.974 317.153 245.394 317.607 245.927 317.94C246.46 318.273 247.067 318.44 247.747 318.44ZM255.666 320V309.22H257.526V320H255.666ZM255.666 307.5V305.1H257.526V307.5H255.666ZM263.832 320.24C263.059 320.24 262.359 320.06 261.732 319.7C261.119 319.34 260.639 318.84 260.292 318.2C259.959 317.547 259.792 316.8 259.792 315.96V309.22H261.652V315.76C261.652 316.293 261.759 316.76 261.972 317.16C262.199 317.56 262.505 317.873 262.892 318.1C263.292 318.327 263.745 318.44 264.252 318.44C264.759 318.44 265.205 318.327 265.592 318.1C265.992 317.873 266.299 317.547 266.512 317.12C266.739 316.693 266.852 316.187 266.852 315.6V309.22H268.732V320H266.912V317.9L267.212 318.08C266.959 318.76 266.525 319.293 265.912 319.68C265.312 320.053 264.619 320.24 263.832 320.24ZM271.213 320V309.22H273.033V311.42L272.773 311.08C273.04 310.4 273.467 309.88 274.053 309.52C274.64 309.16 275.3 308.98 276.033 308.98C276.873 308.98 277.627 309.213 278.293 309.68C278.973 310.147 279.44 310.76 279.693 311.52L279.173 311.54C279.453 310.7 279.927 310.067 280.593 309.64C281.26 309.2 282 308.98 282.813 308.98C283.56 308.98 284.233 309.153 284.833 309.5C285.447 309.847 285.933 310.327 286.293 310.94C286.653 311.553 286.833 312.247 286.833 313.02V320H284.953V313.62C284.953 313.02 284.847 312.513 284.633 312.1C284.42 311.687 284.127 311.367 283.753 311.14C283.393 310.9 282.967 310.78 282.473 310.78C281.993 310.78 281.56 310.9 281.173 311.14C280.8 311.367 280.5 311.693 280.273 312.12C280.06 312.533 279.953 313.033 279.953 313.62V320H278.073V313.62C278.073 313.02 277.967 312.513 277.753 312.1C277.54 311.687 277.247 311.367 276.873 311.14C276.513 310.9 276.087 310.78 275.593 310.78C275.113 310.78 274.68 310.9 274.293 311.14C273.92 311.367 273.62 311.693 273.393 312.12C273.18 312.533 273.073 313.033 273.073 313.62V320H271.213Z" fill="#1A1A1A"/>
<rect x="302" y="307.5" width="10" height="1.5" rx="0.75" transform="rotate(90 302 307.5)" fill="#1A1A1A"/>
<path d="M319.32 320.24C318.213 320.24 317.24 319.967 316.4 319.42C315.573 318.873 314.993 318.14 314.66 317.22L316.4 316.4C316.693 317.013 317.093 317.5 317.6 317.86C318.12 318.22 318.693 318.4 319.32 318.4C319.853 318.4 320.287 318.28 320.62 318.04C320.953 317.8 321.12 317.473 321.12 317.06C321.12 316.793 321.047 316.58 320.9 316.42C320.753 316.247 320.567 316.107 320.34 316C320.127 315.893 319.907 315.813 319.68 315.76L317.98 315.28C317.047 315.013 316.347 314.613 315.88 314.08C315.427 313.533 315.2 312.9 315.2 312.18C315.2 311.527 315.367 310.96 315.7 310.48C316.033 309.987 316.493 309.607 317.08 309.34C317.667 309.073 318.327 308.94 319.06 308.94C320.047 308.94 320.927 309.187 321.7 309.68C322.473 310.16 323.02 310.833 323.34 311.7L321.6 312.52C321.387 312 321.047 311.587 320.58 311.28C320.127 310.973 319.613 310.82 319.04 310.82C318.547 310.82 318.153 310.94 317.86 311.18C317.567 311.407 317.42 311.707 317.42 312.08C317.42 312.333 317.487 312.547 317.62 312.72C317.753 312.88 317.927 313.013 318.14 313.12C318.353 313.213 318.573 313.293 318.8 313.36L320.56 313.88C321.453 314.133 322.14 314.533 322.62 315.08C323.1 315.613 323.34 316.253 323.34 317C323.34 317.64 323.167 318.207 322.82 318.7C322.487 319.18 322.02 319.56 321.42 319.84C320.82 320.107 320.12 320.24 319.32 320.24ZM330.234 320.24C329.154 320.24 328.194 319.993 327.354 319.5C326.528 318.993 325.881 318.313 325.414 317.46C324.948 316.593 324.714 315.627 324.714 314.56C324.714 313.467 324.948 312.5 325.414 311.66C325.894 310.82 326.534 310.16 327.334 309.68C328.134 309.187 329.041 308.94 330.054 308.94C330.868 308.94 331.594 309.08 332.234 309.36C332.874 309.64 333.414 310.027 333.854 310.52C334.294 311 334.628 311.553 334.854 312.18C335.094 312.807 335.214 313.473 335.214 314.18C335.214 314.353 335.208 314.533 335.194 314.72C335.181 314.907 335.154 315.08 335.114 315.24H326.494V313.44H333.834L332.754 314.26C332.888 313.607 332.841 313.027 332.614 312.52C332.401 312 332.068 311.593 331.614 311.3C331.174 310.993 330.654 310.84 330.054 310.84C329.454 310.84 328.921 310.993 328.454 311.3C327.988 311.593 327.628 312.02 327.374 312.58C327.121 313.127 327.021 313.793 327.074 314.58C327.008 315.313 327.108 315.953 327.374 316.5C327.654 317.047 328.041 317.473 328.534 317.78C329.041 318.087 329.614 318.24 330.254 318.24C330.908 318.24 331.461 318.093 331.914 317.8C332.381 317.507 332.748 317.127 333.014 316.66L334.854 317.56C334.641 318.067 334.308 318.527 333.854 318.94C333.414 319.34 332.881 319.66 332.254 319.9C331.641 320.127 330.968 320.24 330.234 320.24ZM337.02 320V309.18H339.18V311.52L338.9 311.16C339.127 310.427 339.54 309.873 340.14 309.5C340.74 309.127 341.427 308.94 342.2 308.94C343.067 308.94 343.833 309.173 344.5 309.64C345.18 310.093 345.633 310.7 345.86 311.46L345.22 311.52C345.54 310.653 346.027 310.007 346.68 309.58C347.347 309.153 348.107 308.94 348.96 308.94C349.707 308.94 350.38 309.113 350.98 309.46C351.593 309.807 352.08 310.287 352.44 310.9C352.8 311.513 352.98 312.213 352.98 313V320H350.72V313.62C350.72 313.073 350.62 312.613 350.42 312.24C350.233 311.853 349.967 311.56 349.62 311.36C349.287 311.147 348.893 311.04 348.44 311.04C347.987 311.04 347.587 311.147 347.24 311.36C346.893 311.56 346.62 311.853 346.42 312.24C346.22 312.627 346.12 313.087 346.12 313.62V320H343.88V313.62C343.88 313.073 343.78 312.613 343.58 312.24C343.393 311.853 343.127 311.56 342.78 311.36C342.447 311.147 342.047 311.04 341.58 311.04C341.127 311.04 340.727 311.147 340.38 311.36C340.033 311.56 339.76 311.853 339.56 312.24C339.373 312.627 339.28 313.087 339.28 313.62V320H337.02ZM354.999 320V309.18H357.259V320H354.999ZM354.999 307.7V305.1H357.259V307.7H354.999ZM365.281 320.24C364.441 320.24 363.675 320.067 362.981 319.72C362.301 319.373 361.775 318.873 361.401 318.22L361.661 317.8V320H359.501V304.86H361.761V311.42L361.401 310.9C361.801 310.287 362.335 309.807 363.001 309.46C363.668 309.113 364.428 308.94 365.281 308.94C366.308 308.94 367.228 309.187 368.041 309.68C368.868 310.173 369.515 310.847 369.981 311.7C370.461 312.553 370.701 313.513 370.701 314.58C370.701 315.647 370.461 316.607 369.981 317.46C369.515 318.313 368.875 318.993 368.061 319.5C367.248 319.993 366.321 320.24 365.281 320.24ZM365.061 318.14C365.701 318.14 366.268 317.987 366.761 317.68C367.255 317.373 367.641 316.953 367.921 316.42C368.215 315.873 368.361 315.26 368.361 314.58C368.361 313.9 368.215 313.293 367.921 312.76C367.641 312.227 367.255 311.807 366.761 311.5C366.268 311.193 365.701 311.04 365.061 311.04C364.435 311.04 363.868 311.193 363.361 311.5C362.868 311.807 362.475 312.227 362.181 312.76C361.901 313.293 361.761 313.9 361.761 314.58C361.761 315.26 361.901 315.873 362.181 316.42C362.475 316.953 362.868 317.373 363.361 317.68C363.868 317.987 364.435 318.14 365.061 318.14ZM377.72 320.24C376.68 320.24 375.726 319.993 374.86 319.5C374.006 319.007 373.326 318.333 372.82 317.48C372.313 316.627 372.06 315.66 372.06 314.58C372.06 313.487 372.313 312.52 372.82 311.68C373.326 310.827 374.006 310.16 374.86 309.68C375.713 309.187 376.666 308.94 377.72 308.94C378.786 308.94 379.74 309.187 380.58 309.68C381.433 310.16 382.106 310.827 382.6 311.68C383.106 312.52 383.36 313.487 383.36 314.58C383.36 315.673 383.106 316.647 382.6 317.5C382.093 318.353 381.413 319.027 380.56 319.52C379.706 320 378.76 320.24 377.72 320.24ZM377.72 318.14C378.36 318.14 378.926 317.987 379.42 317.68C379.913 317.373 380.3 316.953 380.58 316.42C380.873 315.873 381.02 315.26 381.02 314.58C381.02 313.9 380.873 313.293 380.58 312.76C380.3 312.227 379.913 311.807 379.42 311.5C378.926 311.193 378.36 311.04 377.72 311.04C377.093 311.04 376.526 311.193 376.02 311.5C375.526 311.807 375.133 312.227 374.84 312.76C374.56 313.293 374.42 313.9 374.42 314.58C374.42 315.26 374.56 315.873 374.84 316.42C375.133 316.953 375.526 317.373 376.02 317.68C376.526 317.987 377.093 318.14 377.72 318.14ZM385.166 320V304.86H387.426V320H385.166ZM394.668 320.24C393.628 320.24 392.695 319.993 391.868 319.5C391.055 318.993 390.408 318.313 389.928 317.46C389.462 316.607 389.228 315.647 389.228 314.58C389.228 313.513 389.468 312.553 389.948 311.7C390.428 310.847 391.075 310.173 391.888 309.68C392.702 309.187 393.622 308.94 394.648 308.94C395.515 308.94 396.282 309.113 396.948 309.46C397.615 309.807 398.142 310.287 398.528 310.9L398.188 311.42V304.86H400.428V320H398.288V317.8L398.548 318.22C398.175 318.873 397.642 319.373 396.948 319.72C396.255 320.067 395.495 320.24 394.668 320.24ZM394.888 318.14C395.515 318.14 396.075 317.987 396.568 317.68C397.075 317.373 397.468 316.953 397.748 316.42C398.042 315.873 398.188 315.26 398.188 314.58C398.188 313.9 398.042 313.293 397.748 312.76C397.468 312.227 397.075 311.807 396.568 311.5C396.075 311.193 395.515 311.04 394.888 311.04C394.262 311.04 393.695 311.193 393.188 311.5C392.682 311.807 392.288 312.227 392.008 312.76C391.728 313.293 391.588 313.9 391.588 314.58C391.588 315.26 391.728 315.873 392.008 316.42C392.288 316.953 392.675 317.373 393.168 317.68C393.675 317.987 394.248 318.14 394.888 318.14Z" fill="#1A1A1A"/>
<rect x="415.5" y="307.5" width="10" height="1.5" rx="0.75" transform="rotate(90 415.5 307.5)" fill="#1A1A1A"/>
<path d="M434.66 320.24C433.873 320.24 433.147 320.087 432.48 319.78C431.827 319.46 431.307 319.007 430.92 318.42L431.18 317.9V320H428.72V304.86H431.34V311.28L430.94 310.74C431.313 310.153 431.82 309.7 432.46 309.38C433.1 309.047 433.84 308.88 434.68 308.88C435.707 308.88 436.633 309.133 437.46 309.64C438.287 310.147 438.94 310.827 439.42 311.68C439.913 312.533 440.16 313.493 440.16 314.56C440.16 315.613 439.92 316.573 439.44 317.44C438.96 318.307 438.307 318.993 437.48 319.5C436.653 319.993 435.713 320.24 434.66 320.24ZM434.36 317.84C434.96 317.84 435.493 317.7 435.96 317.42C436.427 317.14 436.787 316.753 437.04 316.26C437.307 315.767 437.44 315.2 437.44 314.56C437.44 313.92 437.307 313.36 437.04 312.88C436.787 312.387 436.427 312 435.96 311.72C435.493 311.427 434.96 311.28 434.36 311.28C433.787 311.28 433.267 311.42 432.8 311.7C432.347 311.98 431.987 312.373 431.72 312.88C431.467 313.373 431.34 313.933 431.34 314.56C431.34 315.2 431.467 315.767 431.72 316.26C431.987 316.753 432.347 317.14 432.8 317.42C433.267 317.7 433.787 317.84 434.36 317.84ZM447.078 320.24C446.011 320.24 445.038 319.993 444.158 319.5C443.291 319.007 442.598 318.333 442.078 317.48C441.571 316.627 441.318 315.653 441.318 314.56C441.318 313.467 441.571 312.493 442.078 311.64C442.598 310.787 443.291 310.113 444.158 309.62C445.024 309.127 445.998 308.88 447.078 308.88C448.144 308.88 449.111 309.127 449.978 309.62C450.844 310.113 451.531 310.787 452.038 311.64C452.558 312.48 452.818 313.453 452.818 314.56C452.818 315.653 452.558 316.627 452.038 317.48C451.518 318.333 450.824 319.007 449.958 319.5C449.091 319.993 448.131 320.24 447.078 320.24ZM447.078 317.84C447.664 317.84 448.178 317.7 448.618 317.42C449.071 317.14 449.424 316.753 449.678 316.26C449.944 315.753 450.078 315.187 450.078 314.56C450.078 313.92 449.944 313.36 449.678 312.88C449.424 312.387 449.071 312 448.618 311.72C448.178 311.427 447.664 311.28 447.078 311.28C446.478 311.28 445.951 311.427 445.498 311.72C445.044 312 444.684 312.387 444.418 312.88C444.164 313.36 444.038 313.92 444.038 314.56C444.038 315.187 444.164 315.753 444.418 316.26C444.684 316.753 445.044 317.14 445.498 317.42C445.951 317.7 446.478 317.84 447.078 317.84ZM454.404 320V304.86H457.024V320H454.404ZM464.103 320.24C463.05 320.24 462.11 319.993 461.283 319.5C460.457 318.993 459.803 318.307 459.323 317.44C458.843 316.573 458.603 315.613 458.603 314.56C458.603 313.493 458.843 312.533 459.323 311.68C459.803 310.827 460.457 310.147 461.283 309.64C462.123 309.133 463.057 308.88 464.083 308.88C464.91 308.88 465.643 309.047 466.283 309.38C466.937 309.7 467.45 310.153 467.823 310.74L467.423 311.28V304.86H470.043V320H467.563V317.9L467.843 318.42C467.47 319.007 466.95 319.46 466.283 319.78C465.617 320.087 464.89 320.24 464.103 320.24ZM464.383 317.84C464.983 317.84 465.51 317.7 465.963 317.42C466.417 317.14 466.77 316.753 467.023 316.26C467.29 315.767 467.423 315.2 467.423 314.56C467.423 313.933 467.29 313.373 467.023 312.88C466.77 312.373 466.417 311.98 465.963 311.7C465.51 311.42 464.983 311.28 464.383 311.28C463.797 311.28 463.27 311.427 462.803 311.72C462.337 312 461.97 312.387 461.703 312.88C461.45 313.36 461.323 313.92 461.323 314.56C461.323 315.2 461.45 315.767 461.703 316.26C461.97 316.753 462.337 317.14 462.803 317.42C463.27 317.7 463.797 317.84 464.383 317.84Z" fill="#1A1A1A"/>
</svg>
