<svg width="187" height="177" viewBox="0 0 187 177" fill="none" xmlns="http://www.w3.org/2000/svg">
<path d="M81.1657 110.098C92.1193 110.098 101.945 106.393 102.433 106.209C102.797 106.069 102.981 105.661 102.841 105.297L99.9725 97.7838C99.8325 97.4198 99.4244 97.2357 99.0564 97.3757C98.9363 97.4197 87.0107 101.888 76.3331 100.308C70.8803 99.5001 66.2076 95.5075 64.1353 89.8786C61.763 83.4257 63.7152 77.3688 66.1116 71.2159C67.4918 67.6754 69.172 64.2949 71.1123 61.1664C71.3203 60.8344 71.2163 60.3983 70.8843 60.1903C70.5522 59.9823 70.1162 60.0863 69.9081 60.4183C67.9238 63.6188 66.2036 67.0793 64.7914 70.6998C62.291 77.1128 60.2587 83.4457 62.8031 90.3667C65.0514 96.4796 70.1562 100.824 76.1211 101.708C85.7385 103.129 96.184 99.8641 98.8884 98.936L101.253 105.133C98.3283 106.161 86.4986 109.942 75.1489 108.265C64.5474 106.697 55.634 96.9557 54.8619 86.0861C54.4378 80.1252 56.2981 73.8883 58.1744 68.5715C60.1907 62.8507 63.0391 57.5419 66.6317 52.7812C66.8677 52.4691 66.8077 52.0251 66.4916 51.7891C66.1796 51.553 65.7355 51.613 65.4995 51.9291C61.8149 56.8018 58.9025 62.2426 56.8342 68.0995C54.91 73.5523 53.0017 79.9652 53.4458 86.1861C54.2659 97.6918 63.7032 108.005 74.9369 109.666C77.0092 109.974 79.1015 110.102 81.1498 110.102L81.1657 110.098Z" fill="#1A1A1A"/>
<path d="M84.3022 42.9676C91.7753 46.3161 102.853 41.4074 109.67 30.9058C117.395 19.0081 116.659 4.91003 107.158 0.969449C97.7682 -2.92312 85.1344 5.35007 79.5336 17.8519C74.5768 28.9135 76.9052 39.6511 84.3062 42.9676H84.3022Z" fill="#86C9FF"/>
<path d="M85.0581 34.9665C84.8661 35.1145 80.3575 40.5473 75.5047 46.4242C75.8808 46.5522 76.2609 46.7162 76.6369 46.9122C76.777 46.9843 76.9129 47.0603 77.0529 47.1443C78.0171 47.7164 78.8932 48.4405 79.6813 49.2566C84.5381 43.1037 89.0308 37.3949 89.0308 37.2949C88.7107 37.4509 85.0581 34.9665 85.0581 34.9665Z" fill="#86C9FF"/>
<path d="M63.3829 61.1423L67.7156 64.3707C67.7156 64.3707 68.7917 63.0106 70.4719 60.8943C69.5238 59.7741 68.4316 58.3459 67.1915 56.5096C64.9271 59.266 63.3829 61.1423 63.3829 61.1423Z" fill="#86C9FF"/>
<path d="M75.609 65.5509C75.9131 65.5509 76.1371 65.4789 76.2931 65.3989C77.1332 65.0708 77.4613 64.4907 77.5853 64.0546C77.7253 63.5626 77.6733 63.0265 77.5333 62.5184L77.9054 62.7305C77.9574 62.7585 78.0093 62.7825 78.0653 62.7985C79.4095 63.1746 80.4217 63.0345 81.0698 62.3784C81.6859 61.7503 81.7659 60.8342 81.7099 60.1261C83.2261 60.2141 84.2383 59.742 84.6943 58.7299C85.3064 57.3657 84.5623 55.7054 84.1622 54.8133C82.9701 52.1609 80.8338 48.5684 77.4253 46.5481C77.2773 46.4601 77.1252 46.3761 76.9732 46.2961C73.3527 44.3918 69.6481 45.2079 67.3078 48.4204C66.5597 49.4445 65.9236 50.6927 65.4155 52.1209C65.4035 52.1609 65.3715 52.2289 65.3355 52.3169C64.8635 53.4611 64.7114 54.0092 64.9834 54.4413C71.0443 63.9947 74.2008 65.5549 75.613 65.5549L75.609 65.5509ZM75.689 64.1147C75.505 64.1387 72.9366 64.2947 66.2796 53.8412C66.3236 53.6612 66.4437 53.3291 66.6397 52.853C66.6877 52.733 66.7278 52.637 66.7478 52.585C67.2078 51.2848 67.7799 50.1606 68.448 49.2445C70.3763 46.6041 73.3127 45.964 76.3091 47.5403C76.4371 47.6083 76.5651 47.6802 76.6932 47.7563C79.7856 49.5885 81.7539 52.917 82.862 55.3854C83.1501 56.0255 83.7462 57.3577 83.3941 58.1418C83.3021 58.3458 83.0221 58.9699 80.9658 58.6099C80.7297 58.5698 80.4777 58.6539 80.3137 58.8379C80.1497 59.0219 80.0936 59.274 80.1656 59.51C80.2937 59.9501 80.4377 60.9942 80.0536 61.3823C79.8136 61.6263 79.2736 61.6503 78.5255 61.4543L76.1691 60.1141C75.877 59.9461 75.509 60.0101 75.2849 60.2661C75.0649 60.5181 75.0529 60.8942 75.2569 61.1622C75.657 61.6863 76.4211 62.9825 76.2211 63.6626C76.1811 63.7946 76.0931 63.9587 75.7451 64.0907C75.7251 64.0987 75.705 64.1067 75.689 64.1147Z" fill="#1A1A1A"/>
<path d="M80.1694 59.53L80.8456 59.31L81.4937 59.0259L80.8456 59.306L81.4776 58.9859C80.9015 57.5937 78.6773 52.849 74.3126 50.3367C73.9726 50.1406 73.5405 50.2567 73.3445 50.5967C73.1485 50.9368 73.2645 51.3688 73.6045 51.5648C77.5811 53.8532 79.6334 58.2378 80.1694 59.526V59.53Z" fill="#1A1A1A"/>
<path d="M76.9051 63.6426C77.0371 63.6426 77.1691 63.6066 77.2892 63.5306C77.6092 63.3266 77.7053 62.9105 77.5212 62.5865L77.4492 62.4384C76.033 59.622 73.2646 54.6813 70.6042 53.2411C70.2601 53.0531 69.8321 53.1811 69.6441 53.5251C69.4561 53.8692 69.5841 54.2972 69.9281 54.4853C71.6204 55.4054 73.9007 58.5339 76.185 63.0745C76.257 63.2185 76.305 63.3026 76.313 63.3186C76.4491 63.5306 76.6771 63.6426 76.9091 63.6426H76.9051Z" fill="#1A1A1A"/>
<path d="M180.244 153.488C180.304 153.488 180.364 153.48 180.424 153.464L181.28 153.236C183.577 152.628 185.337 151.087 186.229 148.903C188.558 143.186 184.329 133.977 176.692 121.007C179.496 119.427 182.661 117.17 183.201 114.822C183.397 113.97 183.229 113.142 182.717 112.426C182.689 112.386 182.653 112.346 182.617 112.314C182.553 112.258 181.973 111.758 180.96 111.838C180.596 111.866 180.228 111.958 179.852 112.122C180.72 110.237 181.445 108.061 180.96 106.757C180.764 106.229 180.392 105.845 179.88 105.645C179.604 105.465 179.164 105.329 178.636 105.433C178.288 105.505 177.94 105.665 177.596 105.925C178.072 103.856 178.284 101.72 177.58 100.528C177.264 99.9959 176.784 99.6559 176.184 99.5439C175.56 99.2678 174.868 99.2998 174.219 99.6479C171.823 100.932 170.031 106.457 168.891 116.078C168.891 116.078 168.743 116.734 168.219 117.47C166.694 119.595 166.506 122.335 167.735 124.448L167.807 124.568C173.923 134.845 176.26 140.246 177.076 143.078C171.987 141.686 162.354 138.578 148.8 132.177C148.628 132.097 148.436 132.089 148.26 132.149C148.084 132.213 147.94 132.345 147.86 132.513L144.427 139.786C144.259 140.138 144.411 140.562 144.763 140.73C166.862 151.179 179.14 153.304 179.264 153.324L180.128 153.48C180.168 153.488 180.212 153.492 180.252 153.492L180.244 153.488ZM181.625 113.346C181.857 113.706 181.917 114.078 181.817 114.506C181.469 116.03 179.056 118.127 175.372 120.115C175.204 120.207 175.076 120.363 175.024 120.547C174.972 120.731 175 120.931 175.096 121.095C182.533 133.669 187.049 143.114 184.913 148.363C184.189 150.127 182.769 151.368 180.912 151.864L180.208 152.052L179.492 151.924C179.364 151.904 167.514 149.851 145.999 139.746L148.828 133.753C163.238 140.514 173.179 143.538 177.86 144.751C178.092 144.811 178.344 144.75 178.52 144.582C178.696 144.418 178.776 144.17 178.732 143.934C178.248 141.406 176.172 135.865 169.015 123.839L168.975 123.771C167.986 122.075 168.147 119.991 169.363 118.295C170.087 117.286 170.267 116.39 170.287 116.294C171.763 103.829 173.991 101.376 174.884 100.9C175.292 100.684 175.544 100.812 175.64 100.86C175.712 100.896 175.792 100.92 175.868 100.932C176.092 100.964 176.236 101.06 176.356 101.256C177.116 102.536 176.156 106.541 174.864 109.941C174.728 110.297 174.9 110.698 175.252 110.846C175.604 110.994 176.008 110.838 176.168 110.489C177.536 107.521 178.496 106.949 178.848 106.841C179.024 106.789 179.096 106.829 179.104 106.833C179.18 106.901 179.224 106.921 179.32 106.949C179.48 107.001 179.568 107.085 179.628 107.249C180.064 108.425 178.596 111.842 176.916 114.606C176.724 114.922 176.808 115.338 177.112 115.55C177.412 115.762 177.832 115.71 178.068 115.422C179.552 113.614 180.58 113.286 181.06 113.25C181.349 113.226 181.545 113.306 181.625 113.346Z" fill="#1A1A1A"/>
<path d="M12.7675 147.983L14.7359 152.388L54.3257 134.865C60.8266 131.989 68.1276 131.373 75.3527 133.045C75.5007 133.081 75.6568 133.117 75.8048 133.157C77.249 133.497 78.6812 133.929 80.1094 134.461C80.2094 134.509 80.3095 134.545 80.4015 134.573C80.4375 134.593 80.4655 134.593 80.5015 134.609C84.6501 136.217 90.5589 139.454 96.2798 142.858C97.1639 143.39 98.0721 143.923 98.9362 144.451L101.669 145.811H101.677L109.926 146.931L110.138 146.975H110.146C110.514 146.847 110.874 146.683 111.238 146.495C110.458 145.987 109.63 145.447 108.766 144.887H108.75C108.714 144.871 108.702 144.859 108.674 144.843C106.129 143.198 103.265 141.43 100.352 139.71C99.2123 139.03 98.0561 138.358 96.9239 137.698C95.6277 136.946 94.3475 136.217 93.0993 135.525C91.2031 134.461 89.3828 133.501 87.7106 132.649C85.8423 131.701 84.17 130.909 82.7658 130.349C82.6898 130.301 82.6258 130.285 82.5617 130.249C82.4137 130.185 82.2698 130.137 82.1217 130.072C80.8055 129.576 79.4734 129.124 78.1332 128.768C78.0572 128.752 77.9691 128.72 77.8931 128.704C75.6048 128.08 73.2604 127.664 70.96 127.452C70.0879 127.376 69.2238 127.324 68.3677 127.312C68.1916 126.504 67.6116 125.556 66.8115 125.364C65.7353 125.088 64.3191 125.428 63.9431 126.604C63.8511 126.896 63.851 127.176 63.899 127.468C59.9065 127.808 56.0299 128.82 52.3613 130.449L52.2334 130.493L12.7635 147.987L12.7675 147.983Z" fill="#1A1A1A"/>
<path d="M20.7287 141.146C20.9647 140.946 24.5452 150.527 24.5452 150.527L10.5952 155.476L7.89477 151.668L11.9274 149.127C9.74707 148.835 7.53874 148.255 5.51444 147.395C4.31026 146.883 3.05002 146.231 2.15789 145.247C1.18175 144.17 0.441715 142.734 0.133669 141.314C-0.114367 140.174 -0.0384464 138.93 0.541639 137.918C1.48578 136.269 3.6261 135.489 5.45437 135.677C6.82657 135.821 8.1028 136.513 8.99894 137.558C9.67504 138.346 10.0831 139.302 10.6992 140.13C11.4993 141.206 12.5915 142.03 13.8317 142.534C15.868 143.362 18.1563 143.106 19.9286 141.786C20.1926 141.59 20.4566 141.378 20.7287 141.146Z" fill="#1A1A1A"/>
<path d="M74.5207 115.718C75.9729 119.443 78.4012 121.647 82.0977 122.171C85.2982 122.639 89.4509 121.851 94.7517 119.715C96.84 118.871 99.1122 117.823 101.573 116.555C104.393 115.102 107.253 113.29 110.066 111.398C107.934 114.018 105.889 116.695 104.201 119.371C102.829 121.559 101.653 123.6 100.68 125.496C99.7883 127.224 99.0602 128.832 98.4841 130.333C97.416 133.157 96.9039 135.601 96.9199 137.698C96.948 141.35 98.5841 143.971 101.665 145.815H101.673C102.013 146.019 102.365 146.211 102.737 146.395C105.393 147.563 107.842 147.803 110.138 146.975H110.146C110.514 146.847 110.874 146.683 111.238 146.495C112.202 146.007 113.134 145.307 114.042 144.399C117.095 141.362 119.863 135.969 122.456 127.86C123.428 124.836 124.164 121.527 124.816 118.199C125.164 121.563 125.608 124.904 126.316 127.992C130.297 145.443 136.046 150.988 144.391 148.139C152.6 144.939 153.42 136.993 145.219 121.087C143.767 118.267 141.963 115.406 140.062 112.594C142.683 114.726 145.359 116.771 148.043 118.459C163.194 127.976 171.179 127.836 175.063 119.923C178.612 111.862 173.575 105.661 156.529 100.208C153.504 99.236 150.196 98.4999 146.867 97.8518C150.232 97.5037 153.572 97.0596 156.661 96.3515C174.111 92.371 179.656 86.6221 176.808 78.2769C173.615 70.0677 165.662 69.2476 149.756 77.4488C146.935 78.901 144.083 80.7052 141.27 82.5975C143.395 79.9851 145.443 77.3087 147.127 74.6243C156.645 59.4741 156.505 51.489 148.6 47.6004C140.534 44.0599 134.329 49.0966 128.877 66.1431C127.912 69.1675 127.168 72.468 126.516 75.7965C126.168 72.44 125.724 69.0955 125.016 66.011C121.035 48.5605 115.287 43.0157 106.949 45.8641C98.7402 49.0566 97.9121 57.0057 106.113 72.9161C107.566 75.7365 109.378 78.5969 111.27 81.4093C108.65 79.277 105.973 77.2327 103.289 75.5445C88.1386 66.0271 80.1534 66.1671 76.2689 74.0722C72.7203 82.1374 77.7651 88.3424 94.8036 93.7952C97.8281 94.7593 101.137 95.5034 104.469 96.1555C101.105 96.5036 97.756 96.9476 94.6676 97.6557C77.217 101.636 71.6722 107.385 74.5207 115.722V115.718Z" fill="#86C9FF"/>
<path d="M113.967 107.345C114.975 107.345 115.951 106.877 116.747 106.005C117.579 105.093 118.119 103.829 118.267 102.444C118.583 99.5079 117.011 96.9275 114.763 96.6835C112.506 96.4394 110.426 98.6317 110.11 101.568C109.962 102.948 110.218 104.301 110.838 105.369C111.498 106.509 112.486 107.205 113.615 107.329C113.731 107.341 113.851 107.349 113.967 107.349V107.345ZM114.423 98.0837C114.487 98.0837 114.547 98.0837 114.611 98.0917C116.059 98.2477 117.087 100.172 116.859 102.292C116.743 103.376 116.331 104.357 115.699 105.049C115.123 105.681 114.435 105.989 113.767 105.917C113.094 105.845 112.49 105.397 112.062 104.657C111.594 103.845 111.398 102.8 111.514 101.716C111.73 99.6879 113.038 98.0797 114.419 98.0797L114.423 98.0837Z" fill="#1A1A1A"/>
<path d="M133.181 85.0138C130.625 88.0182 131.449 92.9189 135.03 95.9634C135.766 96.5915 136.562 97.0875 137.386 97.4596C140.554 98.8878 144.103 98.4158 146.131 96.0314C148.688 93.027 147.863 88.1222 144.291 85.0818C143.367 84.2937 142.355 83.7176 141.31 83.3295C138.31 82.2214 135.082 82.7855 133.185 85.0178L133.181 85.0138Z" fill="#EFEBE7"/>
<path d="M133.181 85.0138C130.625 88.0183 131.449 92.919 135.029 95.9634C135.766 96.5915 136.562 97.0876 137.386 97.4597L141.306 83.3296C138.306 82.2214 135.077 82.7855 133.181 85.0178V85.0138Z" fill="#1A1A1A"/>
<path d="M115.003 69.5474C112.446 72.5519 113.27 77.4526 116.851 80.497C117.587 81.1251 118.383 81.6212 119.207 81.9933C122.376 83.4215 125.924 82.9494 127.952 80.565C130.509 77.5606 129.685 72.6559 126.112 69.6154C125.188 68.8313 124.176 68.2512 123.132 67.8632C120.131 66.755 116.903 67.3191 115.007 69.5514L115.003 69.5474Z" fill="#EFEBE7"/>
<path d="M115.003 69.5474C112.446 72.5519 113.271 77.4526 116.851 80.497C117.587 81.1251 118.383 81.6212 119.207 81.9933L123.128 67.8632C120.127 66.755 116.899 67.3191 115.003 69.5514V69.5474Z" fill="#1A1A1A"/>
<path d="M76.421 47.6084C76.5411 47.6084 76.661 47.5764 76.769 47.5164C77.0051 47.3844 77.1412 47.1324 77.1292 46.8603C77.0651 45.6761 76.9411 44.516 76.8051 43.3358L76.7851 43.1798C76.605 41.6436 76.4211 40.0553 76.045 38.5031C75.861 37.711 75.4249 35.8507 74.0167 35.3186C73.8807 35.2746 73.7886 35.2506 73.6966 35.2346C73.0125 35.1026 72.2084 35.4307 71.5323 36.1428C69.8121 37.971 69.572 40.9074 70.8562 44.408L70.8962 44.532C70.9322 44.636 70.9642 44.744 71.0082 44.8481C71.0922 45.0801 71.1842 45.3241 71.2802 45.5761C71.3843 45.8482 71.6443 46.0282 71.9324 46.0322C72.9685 46.0442 74.0127 46.3283 75.0449 46.8723C75.1689 46.9403 75.2929 47.0084 75.4209 47.0884C75.6369 47.2164 75.829 47.3444 76.025 47.4764C76.145 47.5564 76.285 47.6005 76.421 47.6005V47.6084ZM73.3966 36.6308C73.4206 36.6308 73.4405 36.6308 73.4605 36.6348L73.5486 36.6588C74.2247 36.9149 74.5607 38.3591 74.6727 38.8352C75.0288 40.3074 75.2088 41.8516 75.3849 43.3478L75.4049 43.4999C75.4849 44.2 75.5609 44.8921 75.6209 45.5842C74.5768 45.0481 73.5126 44.732 72.4445 44.648C72.4085 44.552 72.3765 44.46 72.3405 44.36C72.3005 44.2599 72.2765 44.18 72.2485 44.1L72.1964 43.9399C71.5603 42.2077 70.7682 39.0352 72.5684 37.1229C72.8565 36.8189 73.1805 36.6308 73.4006 36.6308H73.3966Z" fill="#1A1A1A"/>
<path d="M60.2147 161.929L64.4434 164.245L70.1882 153.792C70.7483 152.772 71.3003 151.76 71.8604 150.731C73.1006 148.431 74.3408 146.115 75.577 143.811C75.845 143.278 76.1371 142.746 76.4131 142.218C77.1692 140.786 77.9213 139.37 78.7014 137.954C79.0215 137.358 79.3375 136.765 79.6656 136.169C79.7136 136.077 79.7776 135.965 79.8296 135.865C80.0697 135.449 80.2897 135.029 80.5017 134.613C80.7297 134.197 80.9537 133.757 81.1738 133.337C81.4978 132.741 81.8059 132.149 82.11 131.553C82.338 131.149 82.542 130.753 82.77 130.349C82.934 130.044 83.1101 129.74 83.2741 129.428C83.8062 128.48 84.3503 127.552 84.9104 126.644C85.5425 125.652 86.2146 124.684 86.9227 123.756C88.3389 121.919 89.275 122.239 89.7911 122.415C90.9472 122.819 91.9954 123.604 93.0075 124.556C93.5396 125.036 94.0717 125.568 94.6158 126.112L94.9078 126.404C96.112 127.616 97.3082 128.932 98.5003 130.332C99.0324 130.949 99.5485 131.581 100.073 132.229C103.233 136.201 106.029 140.478 108.686 144.843C108.75 144.935 108.794 145.035 108.862 145.127H108.878C109.234 145.727 109.586 146.339 109.942 146.931L110.162 146.975C111.514 146.495 112.81 145.643 114.059 144.399C110.962 139.202 107.658 134.025 103.845 129.22C102.805 127.916 101.757 126.672 100.701 125.496C99.9166 124.624 99.1285 123.788 98.3404 122.995L98.0483 122.703C97.0642 121.703 96 120.635 94.7678 119.707C93.7636 118.943 92.6354 118.283 91.3553 117.843C90.5991 117.579 89.523 117.339 88.2948 117.503C88.0108 116.859 87.4948 116.262 86.8347 116.134C85.7505 115.906 84.3423 116.298 84.0142 117.487C83.9222 117.827 83.9502 118.183 84.0303 118.515C84.1143 118.819 84.2423 119.131 84.4183 119.387C84.1263 119.643 83.8382 119.931 83.5462 120.271C83.4062 120.435 83.2541 120.611 83.1141 120.803C82.7661 121.255 82.434 121.711 82.11 122.163C82.094 122.191 82.0739 122.219 82.0539 122.247C80.6737 124.232 79.4816 126.32 78.3374 128.396C78.2734 128.524 78.2094 128.636 78.1454 128.764C77.8894 129.232 77.6293 129.712 77.3892 130.18C77.2332 130.485 77.0692 130.777 76.9092 131.081C76.5531 131.777 76.1851 132.469 75.817 133.157C75.681 133.397 75.557 133.645 75.429 133.865C75.289 134.129 75.1609 134.369 75.0249 134.621C74.7049 135.189 74.4168 135.761 74.1128 136.329C73.3287 137.774 72.5485 139.242 71.7764 140.69C71.6364 140.974 71.4724 141.25 71.3284 141.538C70.1042 143.838 68.864 146.143 67.6238 148.435C67.0798 149.435 66.5316 150.447 65.9675 151.46L60.2308 161.921L60.2147 161.929Z" fill="#1A1A1A"/>
<path d="M58.6304 156.944C58.6944 156.616 68.2517 162.357 68.2517 162.357L59.7065 176.043L54.8178 174.627L56.5381 169.722C54.4778 170.95 52.2014 171.959 49.8931 172.599C48.5169 172.979 47.0006 173.279 45.5724 173.043C44.0122 172.787 42.4039 172.063 41.1758 171.062C40.1916 170.258 39.4115 169.142 39.2195 167.886C38.9075 165.842 40.2036 163.717 41.8919 162.641C43.1601 161.829 44.7163 161.557 46.1925 161.841C47.3007 162.053 48.3008 162.593 49.389 162.881C50.8012 163.257 52.2934 163.217 53.6936 162.805C55.9939 162.129 57.7702 160.357 58.3863 158.033C58.4783 157.688 58.5624 157.324 58.6344 156.944H58.6304Z" fill="#1A1A1A"/>
</svg>
