<svg width="420" height="420" viewBox="0 0 420 420" fill="none" xmlns="http://www.w3.org/2000/svg">
<rect width="420" height="420" rx="12" fill="#53BBEE"/>
<path d="M69.6914 182.353V201.66C72.2889 198.935 75.5684 197.159 79.2994 196.537C91.4366 194.505 100.817 202.53 102.614 214.35C104.091 224.061 101.218 234.9 92.0911 239.748C85.035 243.496 75.1807 242.631 69.6936 236.547V240.826H57V182.353H69.6936H69.6914ZM72.4668 227.294C77.3495 232.307 86.7591 230.614 89.0944 223.688C92.066 214.869 86.3463 205.786 76.476 208.515C68.9821 210.591 67.5636 222.26 72.4668 227.292V227.294Z" fill="#F5F4F2"/>
<path d="M327.525 182.348V202.424C330.684 198.543 334.926 196.443 339.945 196.28C350.892 195.928 355.715 203.504 356.094 213.663L356.089 240.821H343.505L343.51 216.407C343.505 210.249 338.992 206.737 332.999 208.513C330.178 209.348 327.528 212.391 327.528 215.425V240.821H314.834V182.348H327.528H327.525Z" fill="#F5F4F2"/>
<path d="M268.543 223.157H237.244C237.965 226.608 240.554 229.306 243.947 230.207C246.862 230.98 251.156 230.875 253.167 228.313H267.886C267.435 229.523 266.828 230.681 266.137 231.77C257.95 244.7 237.867 245.512 228.838 233.063C223.226 225.327 223.164 212.987 228.665 205.175C237.023 193.311 255.781 193.252 264.299 204.974C268.217 210.367 268.86 216.625 268.543 223.155V223.157ZM255.302 214.273C254.625 209.667 251.208 206.436 246.492 206.436C241.575 206.436 238.508 209.724 237.354 214.273H255.302Z" fill="#F5F4F2"/>
<path d="M313.383 212.956H299.649C298.377 210.408 295.987 208.421 293.07 208.142C284.862 207.357 282.358 215.027 283.318 221.866C284.059 227.143 287.594 230.557 293.081 230.067C296.374 229.772 298.361 227.271 299.649 224.475H313.383C311.52 234.131 303.647 241.139 293.847 241.917C277.61 243.205 267.498 229.257 270.426 213.831C272.77 201.479 284.265 194.327 296.44 196.647C304.858 198.251 311.463 204.589 313.383 212.959V212.956Z" fill="#F5F4F2"/>
<path d="M215.085 197.378H224.168V208.787H215.085V227.602C215.085 228.284 216.093 229.412 216.782 229.412H223.402V240.82C219.961 240.724 216.412 241.129 213.046 240.285C207.169 238.811 202.916 234.029 202.391 227.927V208.784H195.987L195.823 208.62V197.376H202.389V186.514H214.918L215.083 186.679V197.376L215.085 197.378Z" fill="#F5F4F2"/>
<path d="M117.538 205.355L118.142 202.879C122.065 194.661 134.291 196.898 133.629 206.241C133.034 214.675 120.728 216.361 117.925 208.041L117.538 206.621V240.828H104.844V197.386H117.538V205.355Z" fill="#F5F4F2"/>
<path d="M148.064 197.384H135.37V240.826H148.064V197.384Z" fill="#F5F4F2"/>
<path d="M141.712 192.52C145.712 192.52 148.955 189.27 148.955 185.26C148.955 181.25 145.712 178 141.712 178C137.712 178 134.469 181.25 134.469 185.26C134.469 189.27 137.712 192.52 141.712 192.52Z" fill="#F5F4F2"/>
<path d="M173.706 197.386C161.744 197.386 152.047 207.115 152.047 219.116C152.047 231.117 161.744 240.846 173.706 240.846C185.667 240.846 195.364 231.117 195.364 219.116C195.364 207.115 185.667 197.386 173.706 197.386ZM184.933 215.665C181.809 216.963 180.974 213.78 178.454 213.439C177.626 213.327 175.384 213.286 174.579 213.396C173.922 213.487 173.813 214.164 173.4 214.588C173.24 214.75 172.809 215.077 172.611 215.194C172.082 215.503 170.723 215.757 170.543 215.915C170.253 216.171 169.411 219.139 169.37 219.638C169.247 221.15 170.529 221.969 171.099 223.186C172.134 225.395 171.765 227.976 170.007 229.701C169.265 230.428 168.022 231.062 166.994 231.225C161.071 232.16 157.908 224.55 162.759 220.972C163.585 220.361 164.948 220.075 165.58 219.466C166.319 218.754 167.204 215.595 167.135 214.583C167.085 213.837 166.479 213.29 166.248 212.535C164.898 208.09 170.634 204.795 173.681 208.581C174.187 209.213 174.328 210.119 175.318 210.295C176.648 210.531 179.013 210.604 180.274 210.158C181.2 209.831 181.911 209.046 182.953 208.932C187.268 208.453 188.523 214.176 184.933 215.665Z" fill="#ECFFA8"/>
<path d="M365.438 234.616V237.544H364.528V234.616H363.897V233.762H366.063V234.616H365.436H365.438Z" fill="#F5F4F2"/>
<path d="M369.287 237.542H368.427L367.533 234.888V237.542H366.694V233.762H368.055L368.888 236.325L369.72 233.762H371.054V237.542H370.178V234.888L369.284 237.542H369.287Z" fill="#F5F4F2"/>
<path d="M367.481 241.302C364.374 241.302 361.85 238.766 361.85 235.652C361.85 232.538 364.377 230.003 367.481 230.003C370.584 230.003 373.111 232.538 373.111 235.652C373.111 238.766 370.584 241.302 367.481 241.302ZM367.481 230.422C364.607 230.422 362.267 232.767 362.267 235.652C362.267 238.538 364.605 240.883 367.481 240.883C370.356 240.883 372.694 238.538 372.694 235.652C372.694 232.767 370.356 230.422 367.481 230.422Z" fill="#F5F4F2"/>
<path d="M367.479 241.535C364.245 241.535 361.615 238.897 361.615 235.653C361.615 232.408 364.245 229.77 367.479 229.77C370.713 229.77 373.342 232.408 373.342 235.653C373.342 238.897 370.713 241.535 367.479 241.535ZM367.479 230.656C364.733 230.656 362.498 232.898 362.498 235.653C362.498 238.408 364.733 240.65 367.479 240.65C370.225 240.65 372.46 238.408 372.46 235.653C372.46 232.898 370.225 230.656 367.479 230.656Z" fill="#F5F4F2"/>
</svg>
