<svg width="643" height="360" viewBox="0 0 643 360" fill="none" xmlns="http://www.w3.org/2000/svg">
<rect width="643" height="360" rx="12" fill="#E6E2DE"/>
<path d="M39.584 258C38.9013 258 38.3467 257.829 37.92 257.488C37.4933 257.061 37.28 256.549 37.28 255.952V246.48C39.2427 246.48 40.6507 246.267 41.504 245.84C42.3573 245.328 42.9973 244.389 43.424 243.024L65.696 178.128C66.1227 176.848 66.976 175.867 68.256 175.184C69.6213 174.416 70.944 174.032 72.224 174.032H80.672C82.0373 174.032 83.3173 174.373 84.512 175.056C85.7067 175.739 86.56 176.763 87.072 178.128L109.856 243.024C110.368 244.475 111.051 245.413 111.904 245.84C112.757 246.267 114.293 246.48 116.512 246.48V255.952C116.512 256.549 116.299 257.061 115.872 257.488C115.445 257.829 114.891 258 114.208 258H87.712C87.0293 258 86.4747 257.829 86.048 257.488C85.7067 257.061 85.536 256.549 85.536 255.952V246.608H89.12C90.9973 246.608 92.3627 246.437 93.216 246.096C94.0693 245.755 94.496 245.115 94.496 244.176C94.496 243.323 94.1973 241.957 93.6 240.08C93.0027 238.117 92.2773 235.856 91.424 233.296L78.368 195.92L75.296 185.04L82.592 190.8H64.16L74.016 185.04L70.944 195.92L58.656 233.168C57.8027 235.728 57.0773 238.075 56.48 240.208C55.8827 242.256 55.584 243.707 55.584 244.56C55.584 245.328 55.8827 245.883 56.48 246.224C57.0773 246.48 57.9733 246.608 59.168 246.608H64.544V255.952C64.544 256.549 64.3307 257.061 63.904 257.488C63.5627 257.829 63.0507 258 62.368 258H39.584ZM55.072 222.288H94.368V231.76H55.072V222.288ZM134.405 259.536C129.797 259.536 125.914 258.171 122.757 255.44C119.685 252.709 118.149 248.571 118.149 243.024C118.149 238.843 119.088 235.515 120.965 233.04C122.842 230.48 125.445 228.517 128.773 227.152C132.101 225.787 136.624 224.464 142.341 223.184C145.328 222.501 147.589 221.904 149.125 221.392C150.661 220.795 151.856 220.027 152.709 219.088C153.562 218.149 153.989 216.827 153.989 215.12C153.989 212.389 152.922 210.341 150.789 208.976C148.656 207.525 145.584 206.8 141.573 206.8C137.221 206.8 133.466 207.568 130.309 209.104C127.152 210.555 124.293 212.688 121.733 215.504L120.837 206.544C120.837 205.179 121.008 204.069 121.349 203.216C121.69 202.363 122.373 201.467 123.397 200.528C125.445 198.565 128.346 197.029 132.101 195.92C135.941 194.811 140.208 194.256 144.901 194.256C151.642 194.256 156.634 195.408 159.877 197.712C163.205 199.931 165.253 202.405 166.021 205.136C166.789 207.867 167.173 210.811 167.173 213.968V242.512C167.173 243.877 167.301 244.859 167.557 245.456C167.813 246.053 168.282 246.437 168.965 246.608C169.648 246.779 170.8 246.864 172.421 246.864H172.805V254.416C172.805 255.696 172.506 256.635 171.909 257.232C171.312 257.744 170.245 258 168.709 258H160.773C158.981 258 157.744 257.744 157.061 257.232C156.464 256.72 156.165 255.568 156.165 253.776V243.408L158.981 246.992L151.941 245.968L155.653 243.152C154.544 247.163 152.837 250.405 150.533 252.88C148.229 255.269 145.669 256.976 142.853 258C140.037 259.024 137.221 259.536 134.405 259.536ZM140.037 248.784C144.474 248.784 147.888 246.864 150.277 243.024C152.752 239.099 153.989 234.363 153.989 228.816L155.397 230.224L150.533 230.992C145.413 231.76 141.488 232.613 138.757 233.552C136.112 234.491 134.277 235.557 133.253 236.752C132.314 237.947 131.845 239.397 131.845 241.104C131.845 243.579 132.57 245.499 134.021 246.864C135.557 248.144 137.562 248.784 140.037 248.784Z" fill="#1A1A1A"/>
<path d="M41.64 318.24C41.08 318.24 40.5267 318.127 39.98 317.9C39.4467 317.66 39.0867 317.327 38.9 316.9L38.98 316.2C39.22 316.4 39.54 316.553 39.94 316.66C40.34 316.767 40.7533 316.82 41.18 316.82C41.8067 316.82 42.3333 316.707 42.76 316.48C43.2 316.253 43.5467 315.847 43.8 315.26C44.0533 314.66 44.18 313.82 44.18 312.74C44.18 311.727 43.98 310.973 43.58 310.48C43.18 309.973 42.62 309.72 41.9 309.72C41.0733 309.72 40.4133 310.007 39.92 310.58C39.4267 311.14 39.16 311.887 39.12 312.82L38.82 311.14C39.06 310.127 39.5 309.373 40.14 308.88C40.7933 308.373 41.5333 308.12 42.36 308.12C43.48 308.12 44.3533 308.5 44.98 309.26C45.62 310.02 45.94 311.073 45.94 312.42C45.94 313.62 45.7667 314.66 45.42 315.54C45.0867 316.42 44.5933 317.093 43.94 317.56C43.2867 318.013 42.52 318.24 41.64 318.24ZM36.98 321.4C36.8733 321.4 36.7867 321.367 36.72 321.3C36.6533 321.247 36.62 321.173 36.62 321.08V319.98C36.8867 319.98 37.08 319.967 37.2 319.94C37.32 319.913 37.3933 319.86 37.42 319.78C37.46 319.713 37.48 319.593 37.48 319.42V310.98C37.48 310.687 37.42 310.48 37.3 310.36C37.1933 310.24 36.9667 310.173 36.62 310.16V309.28C36.62 308.947 36.74 308.693 36.98 308.52C37.22 308.333 37.54 308.24 37.94 308.24C38.26 308.24 38.4933 308.313 38.64 308.46C38.8 308.607 38.88 308.8 38.88 309.04L38.86 310.7L38.4 310.06L39.18 310.54V316.76L39.64 317.4L39.04 317.68L39.06 319.98H40.64V321.08C40.64 321.187 40.6133 321.267 40.56 321.32C40.5067 321.373 40.4267 321.4 40.32 321.4H36.98ZM47.4045 318C47.2979 318 47.2112 317.973 47.1445 317.92C47.0779 317.853 47.0445 317.773 47.0445 317.68V316.56C47.3245 316.56 47.5179 316.553 47.6245 316.54C47.7312 316.527 47.8045 316.487 47.8445 316.42C47.8845 316.34 47.9045 316.207 47.9045 316.02V310.94C47.9045 310.647 47.8445 310.44 47.7245 310.32C47.6179 310.2 47.3912 310.133 47.0445 310.12V309.22C47.0445 308.927 47.1779 308.68 47.4445 308.48C47.7112 308.28 48.0579 308.18 48.4845 308.18H48.7245C49.0045 308.18 49.2179 308.253 49.3645 308.4C49.5245 308.547 49.6045 308.74 49.6045 308.98V316.02C49.6045 316.207 49.6245 316.333 49.6645 316.4C49.7045 316.467 49.7779 316.513 49.8845 316.54C50.0045 316.553 50.2112 316.56 50.5045 316.56V317.68C50.5045 317.773 50.4712 317.853 50.4045 317.92C50.3512 317.973 50.2779 318 50.1845 318H47.4045ZM48.5445 306.88C48.0245 306.88 47.6712 306.787 47.4845 306.6C47.2979 306.4 47.2045 306.107 47.2045 305.72C47.2045 305.4 47.3179 305.14 47.5445 304.94C47.7712 304.74 48.1379 304.64 48.6445 304.64C49.1512 304.64 49.4845 304.733 49.6445 304.92C49.8179 305.107 49.9045 305.393 49.9045 305.78C49.9045 306.113 49.7979 306.38 49.5845 306.58C49.3845 306.78 49.0379 306.88 48.5445 306.88ZM55.6697 318.24C54.883 318.24 54.163 318.067 53.5097 317.72C52.8564 317.373 52.3297 316.82 51.9297 316.06C51.5297 315.3 51.3297 314.34 51.3297 313.18C51.3297 311.513 51.7164 310.253 52.4897 309.4C53.2764 308.547 54.363 308.12 55.7497 308.12C56.2297 308.12 56.6697 308.167 57.0697 308.26C57.4697 308.34 57.8164 308.473 58.1097 308.66C58.2697 308.753 58.3764 308.847 58.4297 308.94C58.4964 309.033 58.5297 309.173 58.5297 309.36L58.4097 310.76C57.983 310.387 57.5764 310.133 57.1897 310C56.803 309.853 56.3697 309.78 55.8897 309.78C54.9564 309.78 54.2564 310.067 53.7897 310.64C53.323 311.2 53.0897 311.987 53.0897 313C53.0897 314.173 53.3364 315.073 53.8297 315.7C54.323 316.327 55.043 316.64 55.9897 316.64C56.483 316.64 56.9164 316.567 57.2897 316.42C57.6764 316.26 58.0564 316.013 58.4297 315.68V316.84C58.4297 317 58.3964 317.14 58.3297 317.26C58.263 317.367 58.143 317.48 57.9697 317.6C57.703 317.787 57.363 317.94 56.9497 318.06C56.5364 318.18 56.1097 318.24 55.6697 318.24ZM66.1639 318C66.0706 318 65.9906 317.973 65.9239 317.92C65.8706 317.853 65.8439 317.773 65.8439 317.68V316.56C66.1106 316.56 66.2972 316.547 66.4039 316.52C66.5239 316.493 66.6039 316.447 66.6439 316.38C66.6839 316.313 66.7039 316.2 66.7039 316.04V312.08C66.7039 311.533 66.6506 311.093 66.5439 310.76C66.4372 310.427 66.2306 310.167 65.9239 309.98C65.6172 309.78 65.1772 309.68 64.6039 309.68C63.9772 309.68 63.4039 309.873 62.8839 310.26C62.3772 310.647 62.0439 311.227 61.8839 312L61.4839 311.26C61.7372 310.193 62.1706 309.407 62.7839 308.9C63.4106 308.38 64.2239 308.12 65.2239 308.12C66.3172 308.12 67.1172 308.413 67.6239 309C68.1439 309.587 68.4039 310.367 68.4039 311.34V315.92C68.4039 316.133 68.4172 316.28 68.4439 316.36C68.4706 316.44 68.5372 316.493 68.6439 316.52C68.7639 316.547 68.9706 316.56 69.2639 316.56V317.68C69.2639 317.773 69.2372 317.853 69.1839 317.92C69.1306 317.973 69.0506 318 68.9439 318H66.1639ZM59.7839 318C59.6772 318 59.5906 317.973 59.5239 317.92C59.4572 317.853 59.4239 317.773 59.4239 317.68V316.56C59.7039 316.56 59.9039 316.553 60.0239 316.54C60.1439 316.513 60.2172 316.467 60.2439 316.4C60.2706 316.32 60.2839 316.2 60.2839 316.04V307.1C60.2839 306.833 60.2239 306.647 60.1039 306.54C59.9839 306.42 59.7572 306.353 59.4239 306.34V305.38C59.4239 305.113 59.5706 304.887 59.8639 304.7C60.1706 304.5 60.5172 304.4 60.9039 304.4H61.1039C61.3706 304.4 61.5839 304.473 61.7439 304.62C61.9039 304.753 61.9839 304.987 61.9839 305.32V308.2L61.8039 309.8L62.3239 309.98L61.9839 310.9V316.04C61.9839 316.2 61.9972 316.313 62.0239 316.38C62.0639 316.447 62.1439 316.493 62.2639 316.52C62.3972 316.547 62.6106 316.56 62.9039 316.56V317.68C62.9039 317.773 62.8772 317.853 62.8239 317.92C62.7706 317.973 62.6906 318 62.5839 318H59.7839ZM74.6591 318.24C73.4191 318.24 72.3524 317.847 71.4591 317.06C70.5791 316.26 70.1391 314.947 70.1391 313.12C70.1391 311.373 70.5857 310.107 71.4791 309.32C72.3857 308.52 73.4991 308.12 74.8191 308.12C76.1391 308.12 77.2257 308.487 78.0791 309.22C78.9457 309.94 79.3791 311.22 79.3791 313.06C79.3791 314.34 79.1457 315.367 78.6791 316.14C78.2124 316.913 77.6191 317.46 76.8991 317.78C76.1924 318.087 75.4457 318.24 74.6591 318.24ZM74.8791 316.74C75.7857 316.74 76.4657 316.453 76.9191 315.88C77.3857 315.293 77.6191 314.427 77.6191 313.28C77.6191 312.133 77.3791 311.253 76.8991 310.64C76.4191 310.027 75.6991 309.72 74.7391 309.72C73.7524 309.72 73.0324 310.04 72.5791 310.68C72.1257 311.32 71.8991 312.1 71.8991 313.02C71.8991 314.327 72.1591 315.273 72.6791 315.86C73.1991 316.447 73.9324 316.74 74.8791 316.74ZM80.6636 318C80.5569 318 80.4703 317.973 80.4036 317.92C80.3369 317.853 80.3036 317.773 80.3036 317.68V316.56C80.6636 316.56 80.8969 316.533 81.0036 316.48C81.1103 316.413 81.1636 316.26 81.1636 316.02V307.1C81.1636 306.833 81.1036 306.647 80.9836 306.54C80.8636 306.42 80.6369 306.353 80.3036 306.34V305.38C80.3036 305.113 80.4503 304.887 80.7436 304.7C81.0503 304.5 81.3969 304.4 81.7836 304.4H81.9836C82.2503 304.4 82.4636 304.473 82.6236 304.62C82.7836 304.753 82.8636 304.987 82.8636 305.32V316.02C82.8636 316.207 82.8836 316.333 82.9236 316.4C82.9769 316.467 83.0636 316.513 83.1836 316.54C83.3036 316.553 83.5036 316.56 83.7836 316.56V317.68C83.7836 317.773 83.7503 317.853 83.6836 317.92C83.6169 317.973 83.5369 318 83.4436 318H80.6636ZM85.1311 318C85.0244 318 84.9378 317.973 84.8711 317.92C84.8044 317.853 84.7711 317.773 84.7711 317.68V316.56C85.0511 316.56 85.2444 316.553 85.3511 316.54C85.4578 316.527 85.5311 316.487 85.5711 316.42C85.6111 316.34 85.6311 316.207 85.6311 316.02V310.94C85.6311 310.647 85.5711 310.44 85.4511 310.32C85.3444 310.2 85.1178 310.133 84.7711 310.12V309.22C84.7711 308.927 84.9044 308.68 85.1711 308.48C85.4378 308.28 85.7844 308.18 86.2111 308.18H86.4511C86.7311 308.18 86.9444 308.253 87.0911 308.4C87.2511 308.547 87.3311 308.74 87.3311 308.98V316.02C87.3311 316.207 87.3511 316.333 87.3911 316.4C87.4311 316.467 87.5044 316.513 87.6111 316.54C87.7311 316.553 87.9378 316.56 88.2311 316.56V317.68C88.2311 317.773 88.1978 317.853 88.1311 317.92C88.0778 317.973 88.0044 318 87.9111 318H85.1311ZM86.2711 306.88C85.7511 306.88 85.3978 306.787 85.2111 306.6C85.0244 306.4 84.9311 306.107 84.9311 305.72C84.9311 305.4 85.0444 305.14 85.2711 304.94C85.4978 304.74 85.8644 304.64 86.3711 304.64C86.8778 304.64 87.2111 304.733 87.3711 304.92C87.5444 305.107 87.6311 305.393 87.6311 305.78C87.6311 306.113 87.5244 306.38 87.3111 306.58C87.1111 306.78 86.7644 306.88 86.2711 306.88ZM96.0148 318C95.9215 318 95.8415 317.973 95.7748 317.92C95.7215 317.853 95.6948 317.773 95.6948 317.68V316.56C95.9748 316.56 96.1682 316.553 96.2748 316.54C96.3948 316.513 96.4748 316.467 96.5148 316.4C96.5548 316.333 96.5748 316.213 96.5748 316.04V312.08C96.5748 311.293 96.4148 310.7 96.0948 310.3C95.7748 309.887 95.2082 309.68 94.3948 309.68C93.7815 309.68 93.2148 309.873 92.6948 310.26C92.1882 310.647 91.8548 311.227 91.6948 312L91.2948 311.26C91.5348 310.193 91.9615 309.407 92.5748 308.9C93.2015 308.38 94.0148 308.12 95.0148 308.12C96.1215 308.12 96.9415 308.413 97.4748 309C98.0082 309.587 98.2748 310.367 98.2748 311.34V315.92C98.2748 316.133 98.2882 316.28 98.3148 316.36C98.3415 316.44 98.4082 316.493 98.5148 316.52C98.6348 316.547 98.8415 316.56 99.1348 316.56V317.68C99.1348 317.773 99.1082 317.853 99.0548 317.92C99.0015 317.973 98.9215 318 98.8148 318H96.0148ZM89.5748 318C89.4682 318 89.3815 317.973 89.3148 317.92C89.2482 317.853 89.2148 317.773 89.2148 317.68V316.56C89.4815 316.56 89.6748 316.547 89.7948 316.52C89.9148 316.493 89.9882 316.447 90.0148 316.38C90.0548 316.313 90.0748 316.193 90.0748 316.02V310.98C90.0748 310.687 90.0148 310.48 89.8948 310.36C89.7882 310.24 89.5615 310.173 89.2148 310.16V309.28C89.2148 308.947 89.3348 308.693 89.5748 308.52C89.8148 308.333 90.1348 308.24 90.5348 308.24C90.8282 308.24 91.0482 308.313 91.1948 308.46C91.3415 308.593 91.4148 308.787 91.4148 309.04L91.3948 310.96L90.6948 309.98L91.7748 310.16V316.04C91.7748 316.2 91.7882 316.313 91.8148 316.38C91.8548 316.447 91.9348 316.493 92.0548 316.52C92.1882 316.547 92.3948 316.56 92.6748 316.56V317.68C92.6748 317.773 92.6482 317.853 92.5948 317.92C92.5548 317.973 92.4815 318 92.3748 318H89.5748ZM104.484 318.24C103.697 318.24 102.964 318.08 102.284 317.76C101.617 317.427 101.071 316.88 100.644 316.12C100.217 315.347 100.004 314.34 100.004 313.1C100.004 312.18 100.157 311.347 100.464 310.6C100.771 309.84 101.251 309.24 101.904 308.8C102.557 308.347 103.371 308.12 104.344 308.12C105.597 308.12 106.537 308.493 107.164 309.24C107.804 309.987 108.124 310.967 108.124 312.18V312.92C108.124 313.12 108.077 313.28 107.984 313.4C107.891 313.52 107.751 313.58 107.564 313.58H101.484V312.42H107.044L106.744 312.6C106.744 311.613 106.551 310.887 106.164 310.42C105.791 309.953 105.191 309.72 104.364 309.72C103.417 309.72 102.737 310.02 102.324 310.62C101.924 311.207 101.724 311.907 101.724 312.72L101.764 313.18C101.764 314.38 102.011 315.273 102.504 315.86C102.997 316.433 103.777 316.72 104.844 316.72C105.497 316.72 106.064 316.633 106.544 316.46C107.024 316.287 107.464 316 107.864 315.6L107.824 316.7C107.824 316.913 107.784 317.08 107.704 317.2C107.624 317.32 107.464 317.453 107.224 317.6C106.837 317.827 106.424 317.987 105.984 318.08C105.544 318.187 105.044 318.24 104.484 318.24ZM113.93 318.24C113.223 318.24 112.623 318.033 112.13 317.62C111.637 317.193 111.39 316.553 111.39 315.7C111.39 315.06 111.537 314.547 111.83 314.16C112.123 313.773 112.543 313.467 113.09 313.24C113.65 313.013 114.41 312.793 115.37 312.58C115.89 312.473 116.263 312.38 116.49 312.3C116.73 312.22 116.903 312.113 117.01 311.98C117.117 311.833 117.17 311.627 117.17 311.36C117.17 310.813 116.983 310.407 116.61 310.14C116.25 309.86 115.717 309.72 115.01 309.72C114.343 309.72 113.757 309.84 113.25 310.08C112.743 310.307 112.297 310.64 111.91 311.08L111.81 309.94C111.81 309.727 111.83 309.56 111.87 309.44C111.923 309.32 112.03 309.193 112.19 309.06C112.51 308.767 112.95 308.54 113.51 308.38C114.07 308.207 114.703 308.12 115.41 308.12C116.397 308.12 117.137 308.287 117.63 308.62C118.137 308.94 118.457 309.32 118.59 309.76C118.737 310.2 118.81 310.687 118.81 311.22V315.8C118.81 316.053 118.823 316.233 118.85 316.34C118.89 316.433 118.95 316.493 119.03 316.52C119.123 316.547 119.277 316.56 119.49 316.56H119.67V317.52C119.67 317.693 119.63 317.82 119.55 317.9C119.483 317.967 119.35 318 119.15 318H118.05C117.783 318 117.603 317.96 117.51 317.88C117.43 317.8 117.39 317.633 117.39 317.38V315.72L117.85 316.2L116.85 316.08L117.37 315.5C117.197 316.167 116.923 316.7 116.55 317.1C116.19 317.5 115.777 317.793 115.31 317.98C114.857 318.153 114.397 318.24 113.93 318.24ZM114.59 316.84C115.403 316.84 116.037 316.507 116.49 315.84C116.943 315.173 117.17 314.32 117.17 313.28L117.39 313.44L116.29 313.64C115.41 313.787 114.743 313.947 114.29 314.12C113.837 314.293 113.523 314.487 113.35 314.7C113.19 314.913 113.11 315.187 113.11 315.52C113.11 315.933 113.243 316.26 113.51 316.5C113.79 316.727 114.15 316.84 114.59 316.84ZM127.442 318C127.349 318 127.269 317.973 127.202 317.92C127.149 317.853 127.122 317.773 127.122 317.68V316.56C127.402 316.56 127.596 316.553 127.702 316.54C127.822 316.513 127.902 316.467 127.942 316.4C127.982 316.333 128.002 316.213 128.002 316.04V312.08C128.002 311.293 127.842 310.7 127.522 310.3C127.202 309.887 126.636 309.68 125.822 309.68C125.209 309.68 124.642 309.873 124.122 310.26C123.616 310.647 123.282 311.227 123.122 312L122.722 311.26C122.962 310.193 123.389 309.407 124.002 308.9C124.629 308.38 125.442 308.12 126.442 308.12C127.549 308.12 128.369 308.413 128.902 309C129.436 309.587 129.702 310.367 129.702 311.34V315.92C129.702 316.133 129.716 316.28 129.742 316.36C129.769 316.44 129.836 316.493 129.942 316.52C130.062 316.547 130.269 316.56 130.562 316.56V317.68C130.562 317.773 130.536 317.853 130.482 317.92C130.429 317.973 130.349 318 130.242 318H127.442ZM121.002 318C120.896 318 120.809 317.973 120.742 317.92C120.676 317.853 120.642 317.773 120.642 317.68V316.56C120.909 316.56 121.102 316.547 121.222 316.52C121.342 316.493 121.416 316.447 121.442 316.38C121.482 316.313 121.502 316.193 121.502 316.02V310.98C121.502 310.687 121.442 310.48 121.322 310.36C121.216 310.24 120.989 310.173 120.642 310.16V309.28C120.642 308.947 120.762 308.693 121.002 308.52C121.242 308.333 121.562 308.24 121.962 308.24C122.256 308.24 122.476 308.313 122.622 308.46C122.769 308.593 122.842 308.787 122.842 309.04L122.822 310.96L122.122 309.98L123.202 310.16V316.04C123.202 316.2 123.216 316.313 123.242 316.38C123.282 316.447 123.362 316.493 123.482 316.52C123.616 316.547 123.822 316.56 124.102 316.56V317.68C124.102 317.773 124.076 317.853 124.022 317.92C123.982 317.973 123.909 318 123.802 318H121.002ZM134.481 318.24C133.588 318.24 132.921 318 132.481 317.52C132.041 317.04 131.821 316.407 131.821 315.62V309.74L132.041 310.02H130.781V309.52C130.781 309.333 130.848 309.107 130.981 308.84C131.114 308.573 131.341 308.18 131.661 307.66L132.581 306.02H133.821L133.241 308.56L136.701 308.54L136.641 309.62C136.628 309.767 136.588 309.873 136.521 309.94C136.468 309.993 136.368 310.02 136.221 310.02H133.461V315.5C133.461 315.873 133.568 316.167 133.781 316.38C134.008 316.58 134.354 316.68 134.821 316.68C135.128 316.68 135.421 316.613 135.701 316.48C135.981 316.333 136.268 316.127 136.561 315.86L136.501 317.08C136.501 317.227 136.474 317.347 136.421 317.44C136.368 317.533 136.274 317.627 136.141 317.72C135.928 317.88 135.674 318.007 135.381 318.1C135.101 318.193 134.801 318.24 134.481 318.24ZM137.702 318C137.596 318 137.509 317.973 137.442 317.92C137.376 317.853 137.342 317.773 137.342 317.68V316.56C137.622 316.56 137.816 316.553 137.922 316.54C138.029 316.527 138.102 316.487 138.142 316.42C138.182 316.34 138.202 316.207 138.202 316.02V310.94C138.202 310.647 138.142 310.44 138.022 310.32C137.916 310.2 137.689 310.133 137.342 310.12V309.22C137.342 308.927 137.476 308.68 137.742 308.48C138.009 308.28 138.356 308.18 138.782 308.18H139.022C139.302 308.18 139.516 308.253 139.662 308.4C139.822 308.547 139.902 308.74 139.902 308.98V316.02C139.902 316.207 139.922 316.333 139.962 316.4C140.002 316.467 140.076 316.513 140.182 316.54C140.302 316.553 140.509 316.56 140.802 316.56V317.68C140.802 317.773 140.769 317.853 140.702 317.92C140.649 317.973 140.576 318 140.482 318H137.702ZM138.842 306.88C138.322 306.88 137.969 306.787 137.782 306.6C137.596 306.4 137.502 306.107 137.502 305.72C137.502 305.4 137.616 305.14 137.842 304.94C138.069 304.74 138.436 304.64 138.942 304.64C139.449 304.64 139.782 304.733 139.942 304.92C140.116 305.107 140.202 305.393 140.202 305.78C140.202 306.113 140.096 306.38 139.882 306.58C139.682 306.78 139.336 306.88 138.842 306.88ZM147.326 321.4C147.113 321.4 147.006 321.293 147.006 321.08V320.02H148.126C148.366 320.02 148.513 319.987 148.566 319.92C148.633 319.867 148.666 319.773 148.666 319.64V317.74L148.686 316.34L147.806 316.24L148.466 315.56V311.16L148.066 309.74L148.546 309.54V308.96C148.546 308.667 148.599 308.46 148.706 308.34C148.826 308.22 149.019 308.16 149.286 308.16H150.226C150.186 309.173 150.166 310.207 150.166 311.26V320.02H150.966V321.08C150.966 321.173 150.933 321.247 150.866 321.3C150.813 321.367 150.733 321.4 150.626 321.4H147.326ZM145.386 318.24C144.706 318.24 144.086 318.06 143.526 317.7C142.979 317.327 142.533 316.76 142.186 316C141.853 315.24 141.686 314.3 141.686 313.18C141.686 312.207 141.839 311.34 142.146 310.58C142.466 309.82 142.926 309.22 143.526 308.78C144.139 308.34 144.866 308.12 145.706 308.12C146.173 308.12 146.599 308.207 146.986 308.38C147.386 308.54 147.759 308.853 148.106 309.32C148.453 309.787 148.733 310.447 148.946 311.3L148.506 311.86C148.386 311.153 148.093 310.62 147.626 310.26C147.159 309.9 146.613 309.72 145.986 309.72C145.173 309.72 144.546 310.007 144.106 310.58C143.666 311.14 143.446 311.947 143.446 313C143.446 314.133 143.659 315.033 144.086 315.7C144.526 316.353 145.166 316.68 146.006 316.68C146.726 316.68 147.313 316.433 147.766 315.94C148.233 315.447 148.506 314.793 148.586 313.98L148.846 315.12C148.646 315.853 148.373 316.453 148.026 316.92C147.693 317.387 147.306 317.727 146.866 317.94C146.426 318.14 145.933 318.24 145.386 318.24ZM155.477 318.24C154.463 318.24 153.71 317.94 153.217 317.34C152.723 316.727 152.477 315.933 152.477 314.96V311.12C152.477 310.787 152.417 310.56 152.297 310.44C152.177 310.32 151.93 310.247 151.557 310.22V309.3C151.557 309.007 151.71 308.76 152.017 308.56C152.323 308.347 152.677 308.24 153.077 308.24H153.377C153.643 308.24 153.843 308.313 153.977 308.46C154.11 308.593 154.177 308.787 154.177 309.04V314.2C154.177 315.04 154.31 315.667 154.577 316.08C154.843 316.493 155.363 316.7 156.137 316.7C156.603 316.7 157.017 316.6 157.377 316.4C157.737 316.187 158.037 315.867 158.277 315.44C158.517 315.013 158.683 314.487 158.777 313.86L158.897 315.66C158.683 316.247 158.417 316.733 158.097 317.12C157.777 317.493 157.397 317.773 156.957 317.96C156.517 318.147 156.023 318.24 155.477 318.24ZM159.357 318C159.223 318 159.123 317.967 159.057 317.9C158.99 317.833 158.957 317.733 158.957 317.6V316.1L158.457 316.06L158.677 314.72V310.98C158.677 310.727 158.61 310.547 158.477 310.44C158.357 310.32 158.117 310.247 157.757 310.22V309.3C157.757 309.007 157.91 308.76 158.217 308.56C158.523 308.347 158.877 308.24 159.277 308.24H159.557C159.823 308.24 160.023 308.313 160.157 308.46C160.303 308.593 160.377 308.787 160.377 309.04V315.92C160.377 316.16 160.39 316.327 160.417 316.42C160.457 316.513 160.55 316.56 160.697 316.56H161.257V317.66C161.257 317.78 161.223 317.867 161.157 317.92C161.103 317.973 161.017 318 160.897 318H159.357ZM166.635 318.24C165.849 318.24 165.115 318.08 164.435 317.76C163.769 317.427 163.222 316.88 162.795 316.12C162.369 315.347 162.155 314.34 162.155 313.1C162.155 312.18 162.309 311.347 162.615 310.6C162.922 309.84 163.402 309.24 164.055 308.8C164.709 308.347 165.522 308.12 166.495 308.12C167.749 308.12 168.689 308.493 169.315 309.24C169.955 309.987 170.275 310.967 170.275 312.18V312.92C170.275 313.12 170.229 313.28 170.135 313.4C170.042 313.52 169.902 313.58 169.715 313.58H163.635V312.42H169.195L168.895 312.6C168.895 311.613 168.702 310.887 168.315 310.42C167.942 309.953 167.342 309.72 166.515 309.72C165.569 309.72 164.889 310.02 164.475 310.62C164.075 311.207 163.875 311.907 163.875 312.72L163.915 313.18C163.915 314.38 164.162 315.273 164.655 315.86C165.149 316.433 165.929 316.72 166.995 316.72C167.649 316.72 168.215 316.633 168.695 316.46C169.175 316.287 169.615 316 170.015 315.6L169.975 316.7C169.975 316.913 169.935 317.08 169.855 317.2C169.775 317.32 169.615 317.453 169.375 317.6C168.989 317.827 168.575 317.987 168.135 318.08C167.695 318.187 167.195 318.24 166.635 318.24ZM177.322 318.1C177.148 318.1 177.002 318.053 176.882 317.96C176.762 317.867 176.648 317.7 176.542 317.46L173.922 310.54C173.828 310.273 173.735 310.113 173.642 310.06C173.548 309.993 173.368 309.953 173.102 309.94V308.68C173.102 308.587 173.128 308.513 173.182 308.46C173.248 308.393 173.335 308.36 173.442 308.36H176.242C176.348 308.36 176.428 308.393 176.482 308.46C176.548 308.513 176.582 308.587 176.582 308.68V309.86H176.262C176.088 309.86 175.962 309.887 175.882 309.94C175.802 309.993 175.762 310.087 175.762 310.22C175.762 310.353 175.815 310.573 175.922 310.88L177.502 315.54L178.002 317.1L177.082 316.5H179.022L178.122 317.06L178.602 315.54L180.242 310.72C180.348 310.453 180.402 310.273 180.402 310.18C180.402 309.967 180.235 309.86 179.902 309.86H179.602V308.68C179.602 308.587 179.628 308.513 179.682 308.46C179.748 308.393 179.835 308.36 179.942 308.36H182.382C182.488 308.36 182.568 308.393 182.622 308.46C182.688 308.513 182.722 308.587 182.722 308.68V309.94C182.442 309.953 182.255 309.993 182.162 310.06C182.082 310.113 181.988 310.273 181.882 310.54L179.202 317.46C179.108 317.687 178.995 317.853 178.862 317.96C178.742 318.053 178.595 318.1 178.422 318.1H177.322ZM183.622 318C183.529 318 183.449 317.973 183.382 317.92C183.329 317.853 183.302 317.773 183.302 317.68V316.56C183.662 316.56 183.889 316.533 183.982 316.48C184.089 316.413 184.142 316.26 184.142 316.02V310.2L183.162 310.16V309.06C183.162 308.967 183.182 308.893 183.222 308.84C183.262 308.787 183.329 308.753 183.422 308.74L184.462 308.62L185.382 308.74H188.742L188.662 309.88C188.649 310 188.622 310.087 188.582 310.14C188.555 310.18 188.482 310.2 188.362 310.2H185.822V315.98C185.822 316.18 185.869 316.327 185.962 316.42C186.055 316.513 186.242 316.56 186.522 316.56H187.442V317.68C187.442 317.773 187.409 317.853 187.342 317.92C187.275 317.973 187.202 318 187.122 318H183.622ZM184.162 307.62C184.162 306.753 184.369 306.053 184.782 305.52C185.209 304.987 185.942 304.72 186.982 304.72C187.302 304.72 187.595 304.753 187.862 304.82C188.129 304.887 188.369 304.967 188.582 305.06C188.702 305.127 188.782 305.2 188.822 305.28C188.862 305.36 188.882 305.467 188.882 305.6L188.762 306.9C188.442 306.753 188.149 306.647 187.882 306.58C187.629 306.513 187.335 306.48 187.002 306.48C186.482 306.48 186.109 306.58 185.882 306.78C185.655 306.98 185.542 307.287 185.542 307.7C185.542 308.007 185.602 308.233 185.722 308.38C185.855 308.527 186.029 308.653 186.242 308.76L184.162 309.46V307.62ZM191.803 318C191.696 318 191.609 317.973 191.543 317.92C191.476 317.853 191.443 317.773 191.443 317.68V316.56C191.803 316.56 192.036 316.533 192.143 316.48C192.249 316.413 192.303 316.26 192.303 316.02V307.1C192.303 306.833 192.243 306.647 192.123 306.54C192.003 306.42 191.776 306.353 191.443 306.34V305.38C191.443 305.113 191.589 304.887 191.883 304.7C192.189 304.5 192.536 304.4 192.923 304.4H193.123C193.389 304.4 193.603 304.473 193.763 304.62C193.923 304.753 194.003 304.987 194.003 305.32V316.02C194.003 316.207 194.023 316.333 194.063 316.4C194.116 316.467 194.203 316.513 194.323 316.54C194.443 316.553 194.643 316.56 194.923 316.56V317.68C194.923 317.773 194.889 317.853 194.823 317.92C194.756 317.973 194.676 318 194.583 318H191.803ZM196.27 318C196.163 318 196.077 317.973 196.01 317.92C195.943 317.853 195.91 317.773 195.91 317.68V316.56C196.19 316.56 196.383 316.553 196.49 316.54C196.597 316.527 196.67 316.487 196.71 316.42C196.75 316.34 196.77 316.207 196.77 316.02V310.94C196.77 310.647 196.71 310.44 196.59 310.32C196.483 310.2 196.257 310.133 195.91 310.12V309.22C195.91 308.927 196.043 308.68 196.31 308.48C196.577 308.28 196.923 308.18 197.35 308.18H197.59C197.87 308.18 198.083 308.253 198.23 308.4C198.39 308.547 198.47 308.74 198.47 308.98V316.02C198.47 316.207 198.49 316.333 198.53 316.4C198.57 316.467 198.643 316.513 198.75 316.54C198.87 316.553 199.077 316.56 199.37 316.56V317.68C199.37 317.773 199.337 317.853 199.27 317.92C199.217 317.973 199.143 318 199.05 318H196.27ZM197.41 306.88C196.89 306.88 196.537 306.787 196.35 306.6C196.163 306.4 196.07 306.107 196.07 305.72C196.07 305.4 196.183 305.14 196.41 304.94C196.637 304.74 197.003 304.64 197.51 304.64C198.017 304.64 198.35 304.733 198.51 304.92C198.683 305.107 198.77 305.393 198.77 305.78C198.77 306.113 198.663 306.38 198.45 306.58C198.25 306.78 197.903 306.88 197.41 306.88ZM203.99 322.44C202.67 322.44 201.676 322.24 201.01 321.84C200.356 321.44 200.03 320.86 200.03 320.1C200.03 319.593 200.21 319.147 200.57 318.76C200.93 318.387 201.476 318.127 202.21 317.98L201.53 318.76L201.67 317.46L202.39 318.08C201.696 317.973 201.203 317.78 200.91 317.5C200.616 317.207 200.47 316.847 200.47 316.42C200.47 315.94 200.636 315.547 200.97 315.24C201.303 314.933 201.81 314.727 202.49 314.62L201.87 315.52L202.01 313.76L203.01 314.7C202.503 314.7 202.05 314.567 201.65 314.3C201.263 314.033 200.963 313.673 200.75 313.22C200.536 312.753 200.43 312.253 200.43 311.72C200.43 310.92 200.61 310.253 200.97 309.72C201.33 309.173 201.796 308.767 202.37 308.5C202.943 308.233 203.576 308.1 204.27 308.1C204.91 308.1 205.463 308.173 205.93 308.32C206.41 308.467 206.816 308.707 207.15 309.04L207.95 309.26L207.41 310.18V309.62C207.703 309.873 207.916 310.173 208.05 310.52C208.196 310.867 208.27 311.267 208.27 311.72C208.27 312.853 207.903 313.7 207.17 314.26C206.45 314.82 205.463 315.1 204.21 315.1C203.503 315.1 202.976 315.173 202.63 315.32C202.283 315.467 202.11 315.687 202.11 315.98C202.11 316.273 202.25 316.48 202.53 316.6C202.81 316.707 203.236 316.76 203.81 316.76H205.73C206.796 316.76 207.63 316.947 208.23 317.32C208.83 317.693 209.13 318.313 209.13 319.18C209.13 320.353 208.656 321.187 207.71 321.68C206.776 322.187 205.536 322.44 203.99 322.44ZM204.27 321.06C205.31 321.06 206.083 320.933 206.59 320.68C207.11 320.44 207.37 320.033 207.37 319.46C207.37 318.993 207.203 318.673 206.87 318.5C206.55 318.34 206.01 318.26 205.25 318.26H203.51C202.95 318.26 202.496 318.387 202.15 318.64C201.816 318.907 201.65 319.26 201.65 319.7C201.65 320.18 201.863 320.527 202.29 320.74C202.73 320.953 203.39 321.06 204.27 321.06ZM204.25 313.82C205.01 313.82 205.59 313.653 205.99 313.32C206.403 312.973 206.61 312.42 206.61 311.66C206.61 310.953 206.41 310.44 206.01 310.12C205.623 309.787 205.05 309.62 204.29 309.62C203.57 309.62 203.03 309.82 202.67 310.22C202.31 310.62 202.13 311.093 202.13 311.64C202.13 312.373 202.303 312.92 202.65 313.28C202.996 313.64 203.53 313.82 204.25 313.82ZM206.93 309.54L205.93 308.94C206.53 308.633 207.043 308.407 207.47 308.26C207.896 308.113 208.303 308.04 208.69 308.04C208.85 308.04 208.963 308.073 209.03 308.14C209.11 308.193 209.15 308.273 209.15 308.38L209.09 309.84L206.93 309.54ZM216.475 318C216.382 318 216.302 317.973 216.235 317.92C216.182 317.853 216.155 317.773 216.155 317.68V316.56C216.422 316.56 216.608 316.547 216.715 316.52C216.835 316.493 216.915 316.447 216.955 316.38C216.995 316.313 217.015 316.2 217.015 316.04V312.08C217.015 311.533 216.962 311.093 216.855 310.76C216.748 310.427 216.542 310.167 216.235 309.98C215.928 309.78 215.488 309.68 214.915 309.68C214.288 309.68 213.715 309.873 213.195 310.26C212.688 310.647 212.355 311.227 212.195 312L211.795 311.26C212.048 310.193 212.482 309.407 213.095 308.9C213.722 308.38 214.535 308.12 215.535 308.12C216.628 308.12 217.428 308.413 217.935 309C218.455 309.587 218.715 310.367 218.715 311.34V315.92C218.715 316.133 218.728 316.28 218.755 316.36C218.782 316.44 218.848 316.493 218.955 316.52C219.075 316.547 219.282 316.56 219.575 316.56V317.68C219.575 317.773 219.548 317.853 219.495 317.92C219.442 317.973 219.362 318 219.255 318H216.475ZM210.095 318C209.988 318 209.902 317.973 209.835 317.92C209.768 317.853 209.735 317.773 209.735 317.68V316.56C210.015 316.56 210.215 316.553 210.335 316.54C210.455 316.513 210.528 316.467 210.555 316.4C210.582 316.32 210.595 316.2 210.595 316.04V307.1C210.595 306.833 210.535 306.647 210.415 306.54C210.295 306.42 210.068 306.353 209.735 306.34V305.38C209.735 305.113 209.882 304.887 210.175 304.7C210.482 304.5 210.828 304.4 211.215 304.4H211.415C211.682 304.4 211.895 304.473 212.055 304.62C212.215 304.753 212.295 304.987 212.295 305.32V308.2L212.115 309.8L212.635 309.98L212.295 310.9V316.04C212.295 316.2 212.308 316.313 212.335 316.38C212.375 316.447 212.455 316.493 212.575 316.52C212.708 316.547 212.922 316.56 213.215 316.56V317.68C213.215 317.773 213.188 317.853 213.135 317.92C213.082 317.973 213.002 318 212.895 318H210.095ZM223.5 318.24C222.607 318.24 221.94 318 221.5 317.52C221.06 317.04 220.84 316.407 220.84 315.62V309.74L221.06 310.02H219.8V309.52C219.8 309.333 219.867 309.107 220 308.84C220.133 308.573 220.36 308.18 220.68 307.66L221.6 306.02H222.84L222.26 308.56L225.72 308.54L225.66 309.62C225.647 309.767 225.607 309.873 225.54 309.94C225.487 309.993 225.387 310.02 225.24 310.02H222.48V315.5C222.48 315.873 222.587 316.167 222.8 316.38C223.027 316.58 223.373 316.68 223.84 316.68C224.147 316.68 224.44 316.613 224.72 316.48C225 316.333 225.287 316.127 225.58 315.86L225.52 317.08C225.52 317.227 225.493 317.347 225.44 317.44C225.387 317.533 225.293 317.627 225.16 317.72C224.947 317.88 224.693 318.007 224.4 318.1C224.12 318.193 223.82 318.24 223.5 318.24Z" fill="#1A1A1A"/>
<rect x="240.5" y="306.5" width="10" height="1.5" rx="0.75" transform="rotate(90 240.5 306.5)" fill="#1A1A1A"/>
<path d="M253.7 318C253.593 318 253.5 317.96 253.42 317.88C253.34 317.8 253.3 317.707 253.3 317.6V316.26C253.593 316.26 253.8 316.24 253.92 316.2C254.053 316.16 254.133 316.107 254.16 316.04C254.2 315.96 254.22 315.833 254.22 315.66V311.42C254.22 311.127 254.147 310.907 254 310.76C253.867 310.613 253.607 310.533 253.22 310.52V309.46C253.22 309.033 253.373 308.713 253.68 308.5C254 308.273 254.407 308.16 254.9 308.16C255.233 308.16 255.473 308.24 255.62 308.4C255.78 308.56 255.86 308.747 255.86 308.96L255.84 310.88L255 309.84L256.34 310.06V315.72C256.34 315.947 256.407 316.1 256.54 316.18C256.673 316.26 256.96 316.3 257.4 316.3H258.06V317.6C258.06 317.707 258.02 317.8 257.94 317.88C257.86 317.96 257.767 318 257.66 318H253.7ZM256 310.74C256.227 309.78 256.513 309.093 256.86 308.68C257.207 308.253 257.74 308.04 258.46 308.04C258.593 308.04 258.727 308.06 258.86 308.1C259.007 308.127 259.147 308.167 259.28 308.22C259.413 308.273 259.507 308.353 259.56 308.46C259.627 308.553 259.66 308.693 259.66 308.88L259.48 310.78C259.227 310.647 258.987 310.553 258.76 310.5C258.547 310.447 258.3 310.42 258.02 310.42C257.527 310.42 257.093 310.533 256.72 310.76C256.347 310.973 256.093 311.327 255.96 311.82L256 310.74ZM264.527 318.24C263.74 318.24 262.994 318.08 262.287 317.76C261.594 317.427 261.02 316.873 260.567 316.1C260.127 315.327 259.907 314.313 259.907 313.06C259.907 312.127 260.067 311.28 260.387 310.52C260.707 309.76 261.2 309.16 261.867 308.72C262.534 308.267 263.36 308.04 264.347 308.04C265.614 308.04 266.574 308.407 267.227 309.14C267.894 309.873 268.227 310.827 268.227 312V312.98C268.227 313.193 268.174 313.367 268.067 313.5C267.96 313.633 267.807 313.7 267.607 313.7H261.847V312.34H266.847L266.547 312.54C266.547 311.727 266.374 311.1 266.027 310.66C265.68 310.22 265.14 310 264.407 310C263.54 310 262.927 310.267 262.567 310.8C262.22 311.333 262.047 311.94 262.047 312.62L262.107 313.14C262.107 314.26 262.334 315.08 262.787 315.6C263.24 316.12 263.967 316.38 264.967 316.38C265.58 316.38 266.134 316.293 266.627 316.12C267.12 315.933 267.567 315.633 267.967 315.22L267.927 316.6C267.914 316.853 267.867 317.047 267.787 317.18C267.707 317.313 267.534 317.453 267.267 317.6C266.867 317.827 266.454 317.987 266.027 318.08C265.6 318.187 265.1 318.24 264.527 318.24ZM272.718 322.44C271.331 322.44 270.304 322.247 269.638 321.86C268.984 321.473 268.658 320.913 268.658 320.18C268.658 319.673 268.818 319.24 269.138 318.88C269.471 318.533 269.984 318.273 270.678 318.1L270.078 319.1L270.238 317.56L271.018 318.18C270.324 318.06 269.831 317.853 269.538 317.56C269.258 317.267 269.118 316.88 269.118 316.4C269.118 315.92 269.284 315.52 269.618 315.2C269.964 314.867 270.478 314.647 271.158 314.54L270.418 315.66L270.578 313.48L271.538 314.6C271.031 314.6 270.584 314.467 270.198 314.2C269.824 313.92 269.538 313.553 269.338 313.1C269.151 312.647 269.058 312.167 269.058 311.66C269.058 310.86 269.244 310.193 269.618 309.66C269.991 309.113 270.471 308.707 271.058 308.44C271.658 308.173 272.298 308.04 272.978 308.04C273.671 308.04 274.251 308.113 274.718 308.26C275.198 308.393 275.638 308.64 276.038 309L276.998 309.36L276.298 310.44V309.78C276.604 310.033 276.818 310.32 276.938 310.64C277.071 310.96 277.138 311.333 277.138 311.76C277.138 312.827 276.778 313.653 276.058 314.24C275.351 314.813 274.338 315.1 273.018 315.1C272.351 315.1 271.864 315.167 271.558 315.3C271.264 315.42 271.118 315.613 271.118 315.88C271.118 316.133 271.238 316.313 271.478 316.42C271.718 316.513 272.104 316.56 272.638 316.56H274.518C275.624 316.56 276.491 316.753 277.118 317.14C277.758 317.527 278.078 318.167 278.078 319.06C278.078 320.273 277.578 321.14 276.578 321.66C275.591 322.18 274.304 322.44 272.718 322.44ZM273.078 320.78C274.011 320.78 274.711 320.667 275.178 320.44C275.644 320.227 275.878 319.88 275.878 319.4C275.878 319.013 275.731 318.753 275.438 318.62C275.144 318.487 274.651 318.42 273.958 318.42H272.318C271.758 318.42 271.338 318.527 271.058 318.74C270.778 318.967 270.638 319.26 270.638 319.62C270.638 320.02 270.831 320.313 271.218 320.5C271.604 320.687 272.224 320.78 273.078 320.78ZM272.978 313.6C273.671 313.6 274.198 313.44 274.558 313.12C274.918 312.787 275.098 312.293 275.098 311.64C275.098 311.053 274.931 310.613 274.598 310.32C274.264 310.013 273.744 309.86 273.038 309.86C272.411 309.86 271.938 310.04 271.618 310.4C271.298 310.76 271.138 311.16 271.138 311.6C271.138 312.28 271.284 312.787 271.578 313.12C271.884 313.44 272.351 313.6 272.978 313.6ZM275.838 309.72L274.518 308.92C275.278 308.573 275.871 308.333 276.298 308.2C276.738 308.053 277.164 307.98 277.578 307.98C277.751 307.98 277.871 308.013 277.938 308.08C278.018 308.133 278.058 308.213 278.058 308.32L277.978 310.12L275.838 309.72ZM282.558 318.24C281.492 318.24 280.712 317.933 280.218 317.32C279.738 316.707 279.498 315.947 279.498 315.04V311.62C279.498 311.26 279.432 311.013 279.298 310.88C279.178 310.747 278.918 310.653 278.518 310.6V309.5C278.518 309.127 278.705 308.813 279.078 308.56C279.465 308.293 279.905 308.16 280.398 308.16H280.738C281.045 308.16 281.265 308.24 281.398 308.4C281.545 308.56 281.618 308.747 281.618 308.96V314.2C281.618 314.867 281.725 315.393 281.938 315.78C282.165 316.167 282.638 316.36 283.358 316.36C283.798 316.36 284.172 316.287 284.478 316.14C284.798 315.98 285.058 315.727 285.258 315.38C285.472 315.033 285.632 314.56 285.738 313.96L285.918 315.74C285.732 316.3 285.478 316.767 285.158 317.14C284.838 317.513 284.458 317.793 284.018 317.98C283.578 318.153 283.092 318.24 282.558 318.24ZM286.378 318C286.285 318 286.205 317.973 286.138 317.92C286.072 317.853 286.038 317.773 286.038 317.68V316.16L285.458 316.08L285.618 314.74V311.42C285.618 311.167 285.552 310.98 285.418 310.86C285.285 310.74 285.018 310.653 284.618 310.6V309.5C284.618 309.127 284.805 308.813 285.178 308.56C285.565 308.293 286.005 308.16 286.498 308.16H286.838C287.132 308.16 287.352 308.24 287.498 308.4C287.658 308.56 287.738 308.747 287.738 308.96V315.62C287.738 315.833 287.752 315.993 287.778 316.1C287.818 316.207 287.912 316.26 288.058 316.26H288.618V317.68C288.618 317.773 288.585 317.853 288.518 317.92C288.452 317.973 288.372 318 288.278 318H286.378ZM289.533 318C289.44 318 289.36 317.973 289.293 317.92C289.227 317.853 289.193 317.773 289.193 317.68V316.26C289.54 316.26 289.773 316.227 289.893 316.16C290.013 316.08 290.073 315.913 290.073 315.66V307.58C290.073 307.313 290.013 307.12 289.893 307C289.773 306.867 289.54 306.793 289.193 306.78V305.62C289.193 305.287 289.373 305 289.733 304.76C290.107 304.52 290.527 304.4 290.993 304.4H291.193C291.5 304.4 291.74 304.48 291.913 304.64C292.1 304.8 292.193 305.053 292.193 305.4V315.68C292.193 315.867 292.22 316 292.273 316.08C292.34 316.16 292.433 316.213 292.553 316.24C292.687 316.253 292.887 316.26 293.153 316.26V317.68C293.153 317.773 293.12 317.853 293.053 317.92C292.987 317.973 292.907 318 292.813 318H289.533ZM296.452 318.24C295.732 318.24 295.125 318.027 294.632 317.6C294.152 317.173 293.912 316.527 293.912 315.66C293.912 315.007 294.058 314.487 294.352 314.1C294.645 313.7 295.052 313.393 295.572 313.18C296.092 312.967 296.798 312.76 297.692 312.56C298.158 312.453 298.512 312.36 298.752 312.28C298.992 312.187 299.178 312.067 299.312 311.92C299.445 311.773 299.512 311.567 299.512 311.3C299.512 310.873 299.345 310.553 299.012 310.34C298.678 310.113 298.198 310 297.572 310C296.892 310 296.305 310.12 295.812 310.36C295.318 310.587 294.872 310.92 294.472 311.36L294.332 309.96C294.332 309.747 294.358 309.573 294.412 309.44C294.465 309.307 294.572 309.167 294.732 309.02C295.052 308.713 295.505 308.473 296.092 308.3C296.692 308.127 297.358 308.04 298.092 308.04C299.145 308.04 299.925 308.22 300.432 308.58C300.952 308.927 301.272 309.313 301.392 309.74C301.512 310.167 301.572 310.627 301.572 311.12V315.58C301.572 315.793 301.592 315.947 301.632 316.04C301.672 316.133 301.745 316.193 301.852 316.22C301.958 316.247 302.138 316.26 302.392 316.26H302.452V317.44C302.452 317.64 302.405 317.787 302.312 317.88C302.218 317.96 302.052 318 301.812 318H300.572C300.292 318 300.098 317.96 299.992 317.88C299.898 317.8 299.852 317.62 299.852 317.34V315.72L300.292 316.28L299.192 316.12L299.772 315.68C299.598 316.307 299.332 316.813 298.972 317.2C298.612 317.573 298.212 317.84 297.772 318C297.332 318.16 296.892 318.24 296.452 318.24ZM297.332 316.56C298.025 316.56 298.558 316.26 298.932 315.66C299.318 315.047 299.512 314.307 299.512 313.44L299.732 313.66L298.972 313.78C298.172 313.9 297.558 314.033 297.132 314.18C296.718 314.327 296.432 314.493 296.272 314.68C296.125 314.867 296.052 315.093 296.052 315.36C296.052 315.747 296.165 316.047 296.392 316.26C296.632 316.46 296.945 316.56 297.332 316.56ZM303.741 318C303.635 318 303.541 317.96 303.461 317.88C303.381 317.8 303.341 317.707 303.341 317.6V316.26C303.635 316.26 303.841 316.24 303.961 316.2C304.095 316.16 304.175 316.107 304.201 316.04C304.241 315.96 304.261 315.833 304.261 315.66V311.42C304.261 311.127 304.188 310.907 304.041 310.76C303.908 310.613 303.648 310.533 303.261 310.52V309.46C303.261 309.033 303.415 308.713 303.721 308.5C304.041 308.273 304.448 308.16 304.941 308.16C305.275 308.16 305.515 308.24 305.661 308.4C305.821 308.56 305.901 308.747 305.901 308.96L305.881 310.88L305.041 309.84L306.381 310.06V315.72C306.381 315.947 306.448 316.1 306.581 316.18C306.715 316.26 307.001 316.3 307.441 316.3H308.101V317.6C308.101 317.707 308.061 317.8 307.981 317.88C307.901 317.96 307.808 318 307.701 318H303.741ZM306.041 310.74C306.268 309.78 306.555 309.093 306.901 308.68C307.248 308.253 307.781 308.04 308.501 308.04C308.635 308.04 308.768 308.06 308.901 308.1C309.048 308.127 309.188 308.167 309.321 308.22C309.455 308.273 309.548 308.353 309.601 308.46C309.668 308.553 309.701 308.693 309.701 308.88L309.521 310.78C309.268 310.647 309.028 310.553 308.801 310.5C308.588 310.447 308.341 310.42 308.061 310.42C307.568 310.42 307.135 310.533 306.761 310.76C306.388 310.973 306.135 311.327 306.001 311.82L306.041 310.74Z" fill="#1A1A1A"/>
<rect x="324" y="306.5" width="10" height="1.5" rx="0.75" transform="rotate(90 324 306.5)" fill="#1A1A1A"/>
<path d="M339.92 318.26C339.413 318.26 338.927 318.2 338.46 318.08C337.993 317.973 337.587 317.827 337.24 317.64C337.08 317.547 336.96 317.447 336.88 317.34C336.813 317.22 336.78 317.06 336.78 316.86V314.94C337.353 315.367 337.913 315.693 338.46 315.92C339.02 316.147 339.6 316.26 340.2 316.26C340.613 316.26 340.94 316.187 341.18 316.04C341.42 315.88 341.54 315.633 341.54 315.3C341.54 315.113 341.487 314.953 341.38 314.82C341.287 314.687 341.133 314.573 340.92 314.48C340.72 314.373 340.447 314.273 340.1 314.18L339.06 313.9C338.54 313.767 338.1 313.607 337.74 313.42C337.393 313.22 337.107 312.927 336.88 312.54C336.653 312.153 336.54 311.647 336.54 311.02C336.54 310.1 336.873 309.367 337.54 308.82C338.22 308.273 339.167 308 340.38 308C341.007 308 341.533 308.06 341.96 308.18C342.4 308.3 342.78 308.447 343.1 308.62C343.247 308.713 343.347 308.813 343.4 308.92C343.467 309.027 343.5 309.173 343.5 309.36L343.42 311.32C342.833 310.92 342.28 310.633 341.76 310.46C341.253 310.287 340.74 310.2 340.22 310.2C339.793 310.2 339.447 310.293 339.18 310.48C338.927 310.653 338.8 310.873 338.8 311.14C338.8 311.367 338.887 311.58 339.06 311.78C339.233 311.967 339.533 312.12 339.96 312.24L341.16 312.58C341.747 312.753 342.213 312.933 342.56 313.12C342.92 313.293 343.213 313.56 343.44 313.92C343.667 314.267 343.78 314.733 343.78 315.32C343.78 316.32 343.433 317.06 342.74 317.54C342.06 318.02 341.12 318.26 339.92 318.26ZM349.082 318.24C348.295 318.24 347.542 318.08 346.822 317.76C346.115 317.44 345.535 316.893 345.082 316.12C344.628 315.347 344.402 314.327 344.402 313.06C344.402 312.1 344.568 311.24 344.902 310.48C345.235 309.707 345.742 309.1 346.422 308.66C347.102 308.22 347.942 308 348.942 308C350.235 308 351.215 308.367 351.882 309.1C352.548 309.833 352.882 310.787 352.882 311.96V312.98C352.882 313.193 352.828 313.367 352.722 313.5C352.615 313.62 352.462 313.68 352.262 313.68H346.442V312.32L351.342 312.3L351.042 312.52C351.042 311.76 350.882 311.18 350.562 310.78C350.242 310.367 349.728 310.16 349.022 310.16C348.222 310.16 347.655 310.407 347.322 310.9C346.988 311.38 346.822 311.94 346.822 312.58L346.882 313.1C346.882 314.14 347.095 314.907 347.522 315.4C347.948 315.893 348.655 316.14 349.642 316.14C350.242 316.14 350.788 316.053 351.282 315.88C351.788 315.693 352.235 315.413 352.622 315.04L352.582 316.6C352.582 316.827 352.542 317.007 352.462 317.14C352.382 317.273 352.215 317.407 351.962 317.54C351.548 317.793 351.115 317.973 350.662 318.08C350.208 318.187 349.682 318.24 349.082 318.24ZM366.432 318C366.338 318 366.258 317.973 366.192 317.92C366.138 317.853 366.112 317.773 366.112 317.68V316C366.365 316 366.558 315.98 366.692 315.94C366.825 315.9 366.912 315.847 366.952 315.78C366.992 315.7 367.012 315.593 367.012 315.46V312.16C367.012 311.64 366.912 311.193 366.712 310.82C366.512 310.433 366.052 310.24 365.332 310.24C364.838 310.24 364.378 310.393 363.952 310.7C363.538 310.993 363.265 311.433 363.132 312.02L362.692 311.26C362.932 310.167 363.345 309.353 363.932 308.82C364.518 308.273 365.332 308 366.372 308C367.438 308 368.218 308.293 368.712 308.88C369.205 309.453 369.452 310.207 369.452 311.14V315.32C369.452 315.533 369.465 315.68 369.492 315.76C369.518 315.84 369.585 315.9 369.692 315.94C369.812 315.967 370.018 315.987 370.312 316V317.68C370.312 317.773 370.278 317.853 370.212 317.92C370.158 317.973 370.085 318 369.992 318H366.432ZM354.072 318C353.965 318 353.878 317.973 353.812 317.92C353.758 317.853 353.732 317.773 353.732 317.68V316C353.998 316 354.185 315.987 354.292 315.96C354.412 315.92 354.492 315.867 354.532 315.8C354.572 315.72 354.592 315.593 354.592 315.42V311.64C354.592 311.333 354.532 311.113 354.412 310.98C354.305 310.847 354.078 310.773 353.732 310.76V309.48C353.732 309.04 353.885 308.707 354.192 308.48C354.498 308.24 354.932 308.12 355.492 308.12C355.838 308.12 356.092 308.2 356.252 308.36C356.425 308.52 356.512 308.707 356.512 308.92L356.472 310.94L355.632 309.92L357.012 310.1V315.44C357.012 315.6 357.032 315.72 357.072 315.8C357.112 315.88 357.198 315.94 357.332 315.98C357.465 316.007 357.672 316.02 357.952 316.02V317.68C357.952 317.773 357.925 317.853 357.872 317.92C357.818 317.973 357.738 318 357.632 318H354.072ZM360.232 318C360.138 318 360.058 317.973 359.992 317.92C359.938 317.853 359.912 317.773 359.912 317.68V316C360.165 316 360.352 315.98 360.472 315.94C360.605 315.9 360.692 315.847 360.732 315.78C360.785 315.7 360.812 315.593 360.812 315.46V312.16C360.812 311.64 360.705 311.193 360.492 310.82C360.292 310.433 359.838 310.24 359.132 310.24C358.625 310.24 358.165 310.393 357.752 310.7C357.338 310.993 357.065 311.433 356.932 312.02L356.472 311.26C356.725 310.167 357.138 309.353 357.712 308.82C358.298 308.273 359.112 308 360.152 308C361.232 308 362.012 308.293 362.492 308.88C362.985 309.453 363.232 310.207 363.232 311.14V315.34C363.232 315.54 363.245 315.68 363.272 315.76C363.298 315.84 363.365 315.9 363.472 315.94C363.592 315.98 363.798 316.007 364.092 316.02V317.68C364.092 317.773 364.065 317.853 364.012 317.92C363.958 317.973 363.878 318 363.772 318H360.232ZM371.328 318C371.234 318 371.154 317.973 371.088 317.92C371.021 317.853 370.988 317.773 370.988 317.68V316C371.254 316 371.441 315.993 371.548 315.98C371.668 315.953 371.748 315.9 371.788 315.82C371.828 315.74 371.848 315.6 371.848 315.4V311.66C371.848 311.353 371.788 311.133 371.668 311C371.561 310.853 371.334 310.773 370.988 310.76V309.48C370.988 309.107 371.154 308.787 371.488 308.52C371.834 308.253 372.328 308.12 372.968 308.12H373.228C373.561 308.12 373.814 308.207 373.988 308.38C374.174 308.553 374.268 308.767 374.268 309.02V315.42C374.268 315.62 374.288 315.76 374.328 315.84C374.381 315.907 374.461 315.953 374.568 315.98C374.688 315.993 374.894 316 375.188 316V317.68C375.188 317.773 375.154 317.853 375.088 317.92C375.021 317.973 374.941 318 374.848 318H371.328ZM372.848 307.18C372.181 307.18 371.728 307.067 371.488 306.84C371.248 306.613 371.128 306.26 371.128 305.78C371.128 305.38 371.268 305.06 371.548 304.82C371.841 304.58 372.314 304.46 372.968 304.46C373.621 304.46 374.054 304.573 374.268 304.8C374.481 305.027 374.588 305.38 374.588 305.86C374.588 306.273 374.454 306.6 374.188 306.84C373.934 307.067 373.488 307.18 372.848 307.18ZM379.84 318.26C379.254 318.26 378.667 318.187 378.08 318.04C377.507 317.907 377.047 317.727 376.7 317.5C376.514 317.367 376.374 317.22 376.28 317.06C376.2 316.9 376.16 316.653 376.16 316.32V307.9C376.16 307.62 376.1 307.42 375.98 307.3C375.874 307.167 375.647 307.087 375.3 307.06V305.7C375.3 305.353 375.487 305.053 375.86 304.8C376.247 304.533 376.734 304.4 377.32 304.4H377.52C377.854 304.4 378.107 304.487 378.28 304.66C378.467 304.82 378.56 305.08 378.56 305.44V307.86L378.44 309.54L378.96 309.72L378.6 310.52V316.84L377.86 315.64C378.207 315.853 378.547 316.013 378.88 316.12C379.227 316.213 379.627 316.26 380.08 316.26C380.867 316.26 381.494 316 381.96 315.48C382.44 314.947 382.68 314.02 382.68 312.7C382.68 311.9 382.527 311.293 382.22 310.88C381.914 310.453 381.42 310.24 380.74 310.24C380.087 310.24 379.554 310.48 379.14 310.96C378.74 311.44 378.54 312.073 378.54 312.86L378.34 310.96C378.46 310.307 378.687 309.76 379.02 309.32C379.367 308.88 379.767 308.553 380.22 308.34C380.687 308.113 381.174 308 381.68 308C382.774 308 383.634 308.38 384.26 309.14C384.887 309.887 385.2 310.933 385.2 312.28C385.2 313.507 384.994 314.567 384.58 315.46C384.18 316.353 383.574 317.047 382.76 317.54C381.96 318.02 380.987 318.26 379.84 318.26ZM390.628 318.24C389.334 318.24 388.221 317.847 387.288 317.06C386.354 316.273 385.888 314.96 385.888 313.12C385.888 311.32 386.354 310.02 387.288 309.22C388.234 308.407 389.394 308 390.768 308C392.141 308 393.281 308.367 394.188 309.1C395.094 309.82 395.548 311.127 395.548 313.02C395.548 314.313 395.294 315.353 394.788 316.14C394.294 316.913 393.674 317.46 392.928 317.78C392.194 318.087 391.428 318.24 390.628 318.24ZM390.848 316.14C391.568 316.14 392.114 315.893 392.488 315.4C392.861 314.907 393.048 314.167 393.048 313.18C393.048 312.233 392.854 311.507 392.468 311C392.081 310.48 391.488 310.22 390.688 310.22C389.874 310.22 389.288 310.493 388.928 311.04C388.568 311.587 388.388 312.233 388.388 312.98C388.388 314.087 388.594 314.893 389.008 315.4C389.434 315.893 390.048 316.14 390.848 316.14ZM396.51 318C396.417 318 396.337 317.973 396.27 317.92C396.203 317.853 396.17 317.773 396.17 317.68V316C396.517 316 396.743 315.967 396.85 315.9C396.97 315.833 397.03 315.673 397.03 315.42V307.9C397.03 307.62 396.97 307.42 396.85 307.3C396.743 307.167 396.517 307.087 396.17 307.06V305.7C396.17 305.353 396.357 305.053 396.73 304.8C397.117 304.533 397.603 304.4 398.19 304.4H398.41C398.743 304.4 398.997 304.487 399.17 304.66C399.357 304.82 399.45 305.08 399.45 305.44V315.42C399.45 315.607 399.477 315.74 399.53 315.82C399.597 315.9 399.69 315.953 399.81 315.98C399.93 315.993 400.117 316 400.37 316V317.68C400.37 317.773 400.337 317.853 400.27 317.92C400.203 317.973 400.123 318 400.03 318H396.51ZM404.627 318.24C403.96 318.24 403.347 318.053 402.787 317.68C402.24 317.307 401.8 316.74 401.467 315.98C401.133 315.207 400.967 314.26 400.967 313.14C400.967 312.167 401.12 311.3 401.427 310.54C401.747 309.767 402.207 309.16 402.807 308.72C403.42 308.28 404.147 308.06 404.987 308.06C405.453 308.06 405.873 308.14 406.247 308.3C406.62 308.447 406.967 308.753 407.287 309.22C407.607 309.687 407.873 310.36 408.087 311.24L407.627 311.9C407.547 311.367 407.313 310.96 406.927 310.68C406.54 310.387 406.1 310.24 405.607 310.24C404.887 310.24 404.347 310.473 403.987 310.94C403.64 311.407 403.467 312.08 403.467 312.96C403.467 313.96 403.653 314.727 404.027 315.26C404.413 315.793 404.96 316.06 405.667 316.06C406.253 316.06 406.74 315.867 407.127 315.48C407.513 315.08 407.747 314.513 407.827 313.78L408.047 315.1C407.833 315.86 407.567 316.467 407.247 316.92C406.927 317.373 406.553 317.707 406.127 317.92C405.7 318.133 405.2 318.24 404.627 318.24ZM408.487 318C408.34 318 408.227 317.953 408.147 317.86C408.08 317.767 408.047 317.653 408.047 317.52V316.14L407.187 316.08L407.567 314.92V310.94L407.007 309.5L408.527 309L407.727 310.16L407.607 307.74C407.593 307.473 407.533 307.287 407.427 307.18C407.32 307.06 407.093 306.987 406.747 306.96V305.68C406.747 305.333 406.933 305.033 407.307 304.78C407.693 304.527 408.167 304.4 408.727 304.4H408.947C409.267 304.4 409.52 304.48 409.707 304.64C409.907 304.8 410.007 305.053 410.007 305.4V315.38C410.007 315.607 410.047 315.767 410.127 315.86C410.22 315.953 410.407 316 410.687 316H410.867V317.66C410.867 317.727 410.833 317.8 410.767 317.88C410.713 317.96 410.64 318 410.547 318H408.487Z" fill="#1A1A1A"/>
</svg>
