<svg width="643" height="360" viewBox="0 0 643 360" fill="none" xmlns="http://www.w3.org/2000/svg">
<rect width="643" height="360" rx="12" fill="#E6E2DE"/>
<path d="M67.616 180.4H88.48L118.944 270H97.056L93.984 259.12H62.24L59.168 270H37.28L67.616 180.4ZM89.376 242.864L78.112 203.056L66.848 242.864H89.376ZM149.08 271.664C143.107 271.664 137.901 270.256 133.464 267.44C129.112 264.624 125.784 260.784 123.48 255.92C121.176 250.971 120.024 245.381 120.024 239.152C120.024 233.008 121.219 227.461 123.608 222.512C125.997 217.563 129.411 213.68 133.848 210.864C138.371 208.048 143.533 206.64 149.336 206.64C153.688 206.64 157.571 207.579 160.984 209.456C164.397 211.333 166.957 213.893 168.664 217.136V208.304H188.12V270H168.664V261.296C166.957 264.368 164.312 266.885 160.728 268.848C157.229 270.725 153.347 271.664 149.08 271.664ZM139.992 239.152C139.992 243.931 141.315 247.856 143.96 250.928C146.691 253.915 150.275 255.408 154.712 255.408C159.405 255.408 163.032 253.872 165.592 250.8C168.152 247.728 169.432 243.845 169.432 239.152C169.432 234.544 168.152 230.704 165.592 227.632C163.032 224.56 159.405 223.024 154.712 223.024C150.275 223.024 146.691 224.517 143.96 227.504C141.315 230.491 139.992 234.373 139.992 239.152Z" fill="#1A1A1A"/>
<path d="M46.44 310.68V319.6C46.44 320.52 46.2933 321.32 46 322C45.72 322.68 45.3067 323.22 44.76 323.62C44.0267 324.167 42.96 324.44 41.56 324.44C40.2 324.44 39.1067 324.16 38.28 323.6C37.8267 323.293 37.4667 322.92 37.2 322.48C36.9467 322.04 36.8133 321.567 36.8 321.06H39.08C39.1733 321.553 39.42 321.94 39.82 322.22C40.2333 322.5 40.8067 322.64 41.54 322.64C42.46 322.64 43.14 322.413 43.58 321.96C44.0333 321.52 44.26 320.787 44.26 319.76V318.74C43.9933 319.193 43.5733 319.56 43 319.84C42.44 320.107 41.8667 320.24 41.28 320.24C40.3333 320.24 39.5133 320.027 38.82 319.6C38.14 319.173 37.6133 318.587 37.24 317.84C36.88 317.093 36.7 316.26 36.7 315.34C36.7 314.433 36.8933 313.607 37.28 312.86C37.6667 312.113 38.2133 311.527 38.92 311.1C39.6267 310.66 40.4333 310.44 41.34 310.44C41.9667 310.44 42.54 310.573 43.06 310.84C43.58 311.107 43.98 311.473 44.26 311.94V310.68H46.44ZM38.88 315.34C38.88 316.207 39.1267 316.92 39.62 317.48C40.1267 318.027 40.7867 318.3 41.6 318.3C42.4533 318.3 43.1267 318.02 43.62 317.46C44.1133 316.887 44.36 316.18 44.36 315.34C44.36 314.5 44.1133 313.8 43.62 313.24C43.1267 312.667 42.4533 312.38 41.6 312.38C40.7867 312.38 40.1267 312.66 39.62 313.22C39.1267 313.767 38.88 314.473 38.88 315.34ZM52.5359 320.12C51.7093 320.12 50.9959 319.92 50.3959 319.52C49.8093 319.107 49.5159 318.213 49.5159 316.84V312.5H47.9359V310.68H49.5159V307.86H51.6959V310.68H53.8359V312.5H51.6959V316.34C51.6959 316.86 51.7426 317.253 51.8359 317.52C51.9426 317.773 52.0893 317.947 52.2759 318.04C52.4759 318.12 52.7359 318.16 53.0559 318.16C53.4959 318.16 53.8626 318.133 54.1559 318.08V320C53.7026 320.08 53.1626 320.12 52.5359 320.12ZM59.0602 310.68H61.4602L63.4002 316.84L65.4202 310.68H67.7802L69.8002 316.84L71.7402 310.68H74.1402L70.7002 320H68.8602L66.6002 313.36L64.3402 320H62.5002L59.0602 310.68ZM78.723 320.24C77.7496 320.24 76.9163 320.027 76.223 319.6C75.543 319.173 75.023 318.593 74.663 317.86C74.3163 317.113 74.143 316.273 74.143 315.34C74.143 314.42 74.3296 313.593 74.703 312.86C75.0763 312.113 75.6096 311.527 76.303 311.1C77.0096 310.66 77.8363 310.44 78.783 310.44C79.4096 310.44 79.983 310.573 80.503 310.84C81.023 311.107 81.4296 311.473 81.723 311.94V310.68H83.883V320H81.723V318.74C81.443 319.193 81.0163 319.56 80.443 319.84C79.883 320.107 79.3096 320.24 78.723 320.24ZM76.323 315.34C76.323 316.207 76.563 316.92 77.043 317.48C77.5363 318.027 78.203 318.3 79.043 318.3C79.9363 318.3 80.6163 318.02 81.083 317.46C81.563 316.9 81.803 316.193 81.803 315.34C81.803 314.487 81.563 313.78 81.083 313.22C80.6163 312.66 79.9363 312.38 79.043 312.38C78.203 312.38 77.5363 312.66 77.043 313.22C76.563 313.767 76.323 314.473 76.323 315.34ZM86.2789 306H88.4589V320H86.2789V306ZM94.1194 320.24C93.3727 320.24 92.6927 320.107 92.0794 319.84C91.4794 319.573 91.006 319.207 90.6594 318.74C90.326 318.26 90.1594 317.727 90.1594 317.14H92.3394C92.3394 317.54 92.5127 317.867 92.8594 318.12C93.2194 318.373 93.6794 318.5 94.2394 318.5C94.6527 318.5 94.9794 318.4 95.2194 318.2C95.4594 318 95.5794 317.733 95.5794 317.4C95.5794 317.12 95.4927 316.9 95.3194 316.74C95.1594 316.567 94.8394 316.42 94.3594 316.3L92.4994 315.8C91.846 315.613 91.3394 315.293 90.9794 314.84C90.6327 314.387 90.4594 313.833 90.4594 313.18C90.4594 312.66 90.6127 312.193 90.9194 311.78C91.226 311.353 91.6527 311.027 92.1994 310.8C92.746 310.56 93.3594 310.44 94.0394 310.44C95.186 310.44 96.086 310.7 96.7394 311.22C97.3927 311.74 97.7194 312.447 97.7194 313.34H95.5794C95.5794 312.953 95.4327 312.653 95.1394 312.44C94.8594 312.213 94.466 312.1 93.9594 312.1C93.5727 312.1 93.2527 312.193 92.9994 312.38C92.746 312.553 92.6194 312.78 92.6194 313.06C92.6194 313.313 92.706 313.527 92.8794 313.7C93.066 313.873 93.366 314.02 93.7794 314.14L95.6394 314.68C96.306 314.867 96.8327 315.193 97.2194 315.66C97.606 316.127 97.7994 316.687 97.7994 317.34C97.7994 318.247 97.466 318.96 96.7994 319.48C96.146 319.987 95.2527 320.24 94.1194 320.24ZM104.82 310.44C105.94 310.44 106.787 310.753 107.36 311.38C107.933 312.007 108.22 312.927 108.22 314.14V320H106.04V315.14C106.04 314.127 105.887 313.4 105.58 312.96C105.273 312.52 104.747 312.3 104 312.3C103.293 312.3 102.747 312.527 102.36 312.98C101.973 313.42 101.78 314.053 101.78 314.88V320H99.6V306H101.78V311.98C102.073 311.487 102.48 311.107 103 310.84C103.52 310.573 104.127 310.44 104.82 310.44ZM114.588 320.24C113.121 320.24 111.961 319.8 111.108 318.92C110.255 318.04 109.828 316.847 109.828 315.34C109.828 314.353 110.021 313.493 110.408 312.76C110.795 312.013 111.341 311.44 112.048 311.04C112.755 310.64 113.575 310.44 114.508 310.44C115.388 310.44 116.161 310.627 116.828 311C117.508 311.373 118.035 311.893 118.408 312.56C118.781 313.227 118.968 313.993 118.968 314.86C118.968 315.14 118.948 315.54 118.908 316.06H111.988C112.015 316.793 112.255 317.36 112.708 317.76C113.161 318.147 113.788 318.34 114.588 318.34C115.121 318.34 115.555 318.253 115.888 318.08C116.221 317.907 116.481 317.64 116.668 317.28H118.868C118.721 318.147 118.248 318.86 117.448 319.42C116.661 319.967 115.708 320.24 114.588 320.24ZM116.828 314.4C116.815 313.68 116.601 313.127 116.188 312.74C115.788 312.353 115.215 312.16 114.468 312.16C113.708 312.16 113.108 312.367 112.668 312.78C112.228 313.193 112.001 313.733 111.988 314.4H116.828ZM120.675 310.68H122.835V320H120.675V310.68ZM120.135 307.72C120.135 307.267 120.288 306.887 120.595 306.58C120.902 306.26 121.288 306.1 121.755 306.1C122.222 306.1 122.608 306.26 122.915 306.58C123.222 306.887 123.375 307.267 123.375 307.72C123.375 308.173 123.222 308.56 122.915 308.88C122.608 309.187 122.222 309.34 121.755 309.34C121.288 309.34 120.902 309.187 120.595 308.88C120.288 308.56 120.135 308.173 120.135 307.72ZM125.236 310.68H127.416V311.98C127.629 311.527 127.969 311.16 128.436 310.88C128.903 310.587 129.429 310.44 130.016 310.44C131.496 310.44 132.476 310.993 132.956 312.1C133.183 311.62 133.556 311.227 134.076 310.92C134.596 310.6 135.176 310.44 135.816 310.44C138.056 310.44 139.176 311.66 139.176 314.1V320H136.996V314.52C136.996 313.76 136.849 313.2 136.556 312.84C136.263 312.48 135.829 312.3 135.256 312.3C134.643 312.3 134.163 312.507 133.816 312.92C133.469 313.32 133.296 314.033 133.296 315.06V320H131.116V314.5C131.116 313.74 130.976 313.187 130.696 312.84C130.416 312.48 129.989 312.3 129.416 312.3C128.789 312.3 128.296 312.507 127.936 312.92C127.589 313.32 127.416 314.033 127.416 315.06V320H125.236V310.68ZM146.077 310.68H148.257V311.98C148.47 311.527 148.81 311.16 149.277 310.88C149.743 310.587 150.27 310.44 150.857 310.44C152.337 310.44 153.317 310.993 153.797 312.1C154.023 311.62 154.397 311.227 154.917 310.92C155.437 310.6 156.017 310.44 156.657 310.44C158.897 310.44 160.017 311.66 160.017 314.1V320H157.837V314.52C157.837 313.76 157.69 313.2 157.397 312.84C157.103 312.48 156.67 312.3 156.097 312.3C155.483 312.3 155.003 312.507 154.657 312.92C154.31 313.32 154.137 314.033 154.137 315.06V320H151.957V314.5C151.957 313.74 151.817 313.187 151.537 312.84C151.257 312.48 150.83 312.3 150.257 312.3C149.63 312.3 149.137 312.507 148.777 312.92C148.43 313.32 148.257 314.033 148.257 315.06V320H146.077V310.68ZM166.377 320.24C164.911 320.24 163.751 319.8 162.897 318.92C162.044 318.04 161.617 316.847 161.617 315.34C161.617 314.353 161.811 313.493 162.197 312.76C162.584 312.013 163.131 311.44 163.837 311.04C164.544 310.64 165.364 310.44 166.297 310.44C167.177 310.44 167.951 310.627 168.617 311C169.297 311.373 169.824 311.893 170.197 312.56C170.571 313.227 170.757 313.993 170.757 314.86C170.757 315.14 170.737 315.54 170.697 316.06H163.777C163.804 316.793 164.044 317.36 164.497 317.76C164.951 318.147 165.577 318.34 166.377 318.34C166.911 318.34 167.344 318.253 167.677 318.08C168.011 317.907 168.271 317.64 168.457 317.28H170.657C170.511 318.147 170.037 318.86 169.237 319.42C168.451 319.967 167.497 320.24 166.377 320.24ZM168.617 314.4C168.604 313.68 168.391 313.127 167.977 312.74C167.577 312.353 167.004 312.16 166.257 312.16C165.497 312.16 164.897 312.367 164.457 312.78C164.017 313.193 163.791 313.733 163.777 314.4H168.617ZM181.504 306V320H179.344V318.74C179.064 319.193 178.637 319.56 178.064 319.84C177.504 320.107 176.931 320.24 176.344 320.24C175.371 320.24 174.537 320.027 173.844 319.6C173.164 319.173 172.644 318.593 172.284 317.86C171.937 317.113 171.764 316.273 171.764 315.34C171.764 314.42 171.951 313.593 172.324 312.86C172.697 312.113 173.231 311.527 173.924 311.1C174.631 310.66 175.457 310.44 176.404 310.44C177.031 310.44 177.604 310.573 178.124 310.84C178.644 311.107 179.051 311.473 179.344 311.94V306H181.504ZM173.944 315.34C173.944 316.207 174.184 316.92 174.664 317.48C175.157 318.027 175.824 318.3 176.664 318.3C177.557 318.3 178.237 318.02 178.704 317.46C179.184 316.9 179.424 316.193 179.424 315.34C179.424 314.487 179.184 313.78 178.704 313.22C178.237 312.66 177.557 312.38 176.664 312.38C175.824 312.38 175.157 312.66 174.664 313.22C174.184 313.767 173.944 314.473 173.944 315.34ZM183.9 310.68H186.06V320H183.9V310.68ZM183.36 307.72C183.36 307.267 183.513 306.887 183.82 306.58C184.127 306.26 184.513 306.1 184.98 306.1C185.447 306.1 185.833 306.26 186.14 306.58C186.447 306.887 186.6 307.267 186.6 307.72C186.6 308.173 186.447 308.56 186.14 308.88C185.833 309.187 185.447 309.34 184.98 309.34C184.513 309.34 184.127 309.187 183.82 308.88C183.513 308.56 183.36 308.173 183.36 307.72ZM191.821 320.24C190.768 320.24 189.928 319.927 189.301 319.3C188.674 318.673 188.361 317.753 188.361 316.54V310.68H190.541V316C190.541 316.787 190.688 317.38 190.981 317.78C191.274 318.18 191.761 318.38 192.441 318.38C193.228 318.38 193.801 318.16 194.161 317.72C194.521 317.267 194.701 316.673 194.701 315.94V310.68H196.881V320H194.701V318.7C194.128 319.727 193.168 320.24 191.821 320.24ZM199.272 310.68H201.452V311.98C201.665 311.527 202.005 311.16 202.472 310.88C202.939 310.587 203.465 310.44 204.052 310.44C205.532 310.44 206.512 310.993 206.992 312.1C207.219 311.62 207.592 311.227 208.112 310.92C208.632 310.6 209.212 310.44 209.852 310.44C212.092 310.44 213.212 311.66 213.212 314.1V320H211.032V314.52C211.032 313.76 210.885 313.2 210.592 312.84C210.299 312.48 209.865 312.3 209.292 312.3C208.679 312.3 208.199 312.507 207.852 312.92C207.505 313.32 207.332 314.033 207.332 315.06V320H205.152V314.5C205.152 313.74 205.012 313.187 204.732 312.84C204.452 312.48 204.025 312.3 203.452 312.3C202.825 312.3 202.332 312.507 201.972 312.92C201.625 313.32 201.452 314.033 201.452 315.06V320H199.272V310.68Z" fill="#1A1A1A"/>
<rect x="228.5" y="308" width="10" height="1.5" rx="0.75" transform="rotate(90 228.5 308)" fill="#1A1A1A"/>
<path d="M247.96 310.1C248.827 310.1 249.593 310.313 250.26 310.74C250.94 311.167 251.467 311.767 251.84 312.54C252.213 313.3 252.4 314.18 252.4 315.18C252.4 316.18 252.207 317.067 251.82 317.84C251.447 318.6 250.913 319.193 250.22 319.62C249.54 320.047 248.76 320.26 247.88 320.26C247.2 320.26 246.58 320.107 246.02 319.8C245.473 319.493 245.067 319.107 244.8 318.64V320H241.76V306H244.8V311.74C245.067 311.26 245.487 310.867 246.06 310.56C246.633 310.253 247.267 310.1 247.96 310.1ZM244.68 315.18C244.68 315.94 244.893 316.553 245.32 317.02C245.76 317.487 246.32 317.72 247 317.72C247.667 317.72 248.213 317.487 248.64 317.02C249.067 316.54 249.28 315.927 249.28 315.18C249.28 314.433 249.067 313.827 248.64 313.36C248.213 312.893 247.667 312.66 247 312.66C246.307 312.66 245.747 312.893 245.32 313.36C244.893 313.827 244.68 314.433 244.68 315.18ZM258.499 320.26C257.419 320.26 256.472 320.047 255.659 319.62C254.846 319.18 254.219 318.573 253.779 317.8C253.352 317.027 253.139 316.153 253.139 315.18C253.139 314.207 253.352 313.333 253.779 312.56C254.219 311.787 254.846 311.187 255.659 310.76C256.472 310.32 257.419 310.1 258.499 310.1C259.579 310.1 260.519 310.32 261.319 310.76C262.132 311.187 262.752 311.787 263.179 312.56C263.619 313.333 263.839 314.207 263.839 315.18C263.839 316.153 263.619 317.027 263.179 317.8C262.752 318.573 262.132 319.18 261.319 319.62C260.519 320.047 259.579 320.26 258.499 320.26ZM256.199 315.18C256.199 315.927 256.399 316.533 256.799 317C257.212 317.453 257.779 317.68 258.499 317.68C259.206 317.68 259.766 317.453 260.179 317C260.592 316.533 260.799 315.927 260.799 315.18C260.799 314.433 260.592 313.833 260.179 313.38C259.766 312.913 259.206 312.68 258.499 312.68C257.779 312.68 257.212 312.913 256.799 313.38C256.399 313.833 256.199 314.433 256.199 315.18ZM265.198 306H268.258V320H265.198V306ZM280.324 306V320H277.284V318.64C277.018 319.12 276.604 319.513 276.044 319.82C275.498 320.113 274.891 320.26 274.224 320.26C273.291 320.26 272.478 320.04 271.784 319.6C271.104 319.16 270.584 318.56 270.224 317.8C269.864 317.027 269.684 316.153 269.684 315.18C269.684 314.22 269.871 313.353 270.244 312.58C270.618 311.807 271.151 311.2 271.844 310.76C272.551 310.32 273.358 310.1 274.264 310.1C274.944 310.1 275.551 310.247 276.084 310.54C276.618 310.833 277.018 311.233 277.284 311.74V306H280.324ZM272.804 315.18C272.804 315.927 273.011 316.54 273.424 317.02C273.851 317.487 274.411 317.72 275.104 317.72C275.838 317.72 276.404 317.48 276.804 317C277.204 316.52 277.404 315.913 277.404 315.18C277.404 314.46 277.204 313.86 276.804 313.38C276.404 312.9 275.838 312.66 275.104 312.66C274.411 312.66 273.851 312.893 273.424 313.36C273.011 313.827 272.804 314.433 272.804 315.18Z" fill="#1A1A1A"/>
</svg>
