<svg width="187" height="177" viewBox="0 0 187 177" fill="none" xmlns="http://www.w3.org/2000/svg">
<path d="M81.1647 110.098C92.1184 110.098 101.944 106.393 102.432 106.209C102.796 106.069 102.98 105.661 102.84 105.297L99.9715 97.7838C99.8315 97.4198 99.4234 97.2357 99.0554 97.3757C98.9353 97.4197 87.0097 101.888 76.3321 100.308C70.8793 99.5001 66.2066 95.5075 64.1343 89.8786C61.762 83.4257 63.7142 77.3688 66.1106 71.2159C67.4908 67.6754 69.171 64.2949 71.1113 61.1664C71.3194 60.8344 71.2153 60.3983 70.8833 60.1903C70.5512 59.9823 70.1152 60.0863 69.9071 60.4183C67.9228 63.6188 66.2026 67.0793 64.7904 70.6998C62.29 77.1128 60.2577 83.4457 62.8021 90.3667C65.0504 96.4796 70.1552 100.824 76.1201 101.708C85.7375 103.129 96.183 99.8641 98.8874 98.936L101.252 105.133C98.3274 106.161 86.4976 109.942 75.1479 108.265C64.5464 106.697 55.633 96.9557 54.8609 86.0861C54.4368 80.1252 56.2971 73.8883 58.1734 68.5715C60.1897 62.8507 63.0382 57.5419 66.6307 52.7812C66.8667 52.4691 66.8067 52.0251 66.4906 51.7891C66.1786 51.553 65.7345 51.613 65.4985 51.9291C61.8139 56.8018 58.9016 62.2426 56.8332 68.0995C54.909 73.5523 53.0007 79.9652 53.4448 86.1861C54.2649 97.6918 63.7023 108.005 74.9359 109.666C77.0082 109.974 79.1005 110.102 81.1488 110.102L81.1647 110.098Z" fill="#1A1A1A"/>
<path d="M84.301 42.9676C91.7741 46.3161 102.852 41.4074 109.669 30.9058C117.394 19.0081 116.658 4.91003 107.156 0.969449C97.7669 -2.92312 85.1332 5.35007 79.5323 17.8519C74.5756 28.9135 76.9039 39.6511 84.305 42.9676H84.301Z" fill="#E47249"/>
<path d="M85.0569 34.9665C84.8648 35.1145 80.3562 40.5473 75.5035 46.4242C75.8796 46.5522 76.2597 46.7162 76.6357 46.9122C76.7757 46.9843 76.9117 47.0603 77.0517 47.1443C78.0158 47.7164 78.892 48.4405 79.6801 49.2566C84.5368 43.1037 89.0295 37.3949 89.0295 37.2949C88.7095 37.4509 85.0569 34.9665 85.0569 34.9665Z" fill="#E47249"/>
<path d="M63.3819 61.1423L67.7146 64.3707C67.7146 64.3707 68.7907 63.0106 70.4709 60.8943C69.5228 59.7741 68.4307 58.3459 67.1905 56.5096C64.9261 59.266 63.3819 61.1423 63.3819 61.1423Z" fill="#E47249"/>
<path d="M75.608 65.5509C75.9121 65.5509 76.1361 65.4789 76.2921 65.3989C77.1322 65.0708 77.4603 64.4907 77.5843 64.0546C77.7243 63.5626 77.6724 63.0265 77.5323 62.5184L77.9044 62.7305C77.9564 62.7585 78.0083 62.7825 78.0643 62.7985C79.4085 63.1746 80.4207 63.0345 81.0688 62.3784C81.6849 61.7503 81.7649 60.8342 81.7089 60.1261C83.2251 60.2141 84.2373 59.742 84.6933 58.7299C85.3054 57.3657 84.5613 55.7054 84.1612 54.8133C82.9691 52.1609 80.8328 48.5684 77.4243 46.5481C77.2763 46.4601 77.1242 46.3761 76.9722 46.2961C73.3517 44.3918 69.6472 45.2079 67.3068 48.4204C66.5587 49.4445 65.9226 50.6927 65.4145 52.1209C65.4025 52.1609 65.3705 52.2289 65.3345 52.3169C64.8625 53.4611 64.7104 54.0092 64.9824 54.4413C71.0433 63.9947 74.1998 65.5549 75.612 65.5549L75.608 65.5509ZM75.688 64.1147C75.504 64.1387 72.9356 64.2947 66.2786 53.8412C66.3226 53.6612 66.4427 53.3291 66.6387 52.853C66.6867 52.733 66.7268 52.637 66.7468 52.585C67.2068 51.2848 67.7789 50.1606 68.447 49.2445C70.3753 46.6041 73.3117 45.964 76.3081 47.5403C76.4361 47.6083 76.5642 47.6802 76.6922 47.7563C79.7846 49.5885 81.7529 52.917 82.861 55.3854C83.1491 56.0255 83.7452 57.3577 83.3932 58.1418C83.3011 58.3458 83.0211 58.9699 80.9648 58.6099C80.7287 58.5698 80.4767 58.6539 80.3127 58.8379C80.1487 59.0219 80.0926 59.274 80.1647 59.51C80.2927 59.9501 80.4367 60.9942 80.0526 61.3823C79.8126 61.6263 79.2726 61.6503 78.5245 61.4543L76.1681 60.1141C75.876 59.9461 75.508 60.0101 75.284 60.2661C75.0639 60.5181 75.0519 60.8942 75.2559 61.1622C75.656 61.6863 76.4202 62.9825 76.2201 63.6626C76.1801 63.7946 76.0921 63.9587 75.7441 64.0907C75.7241 64.0987 75.704 64.1067 75.688 64.1147Z" fill="#1A1A1A"/>
<path d="M80.1682 59.53L80.8444 59.31L81.4924 59.0259L80.8444 59.306L81.4764 58.9859C80.9003 57.5937 78.676 52.849 74.3114 50.3367C73.9713 50.1406 73.5393 50.2567 73.3433 50.5967C73.1472 50.9368 73.2632 51.3688 73.6033 51.5648C77.5799 53.8532 79.6321 58.2378 80.1682 59.526V59.53Z" fill="#1A1A1A"/>
<path d="M76.9046 63.6426C77.0366 63.6426 77.1686 63.6066 77.2887 63.5306C77.6087 63.3266 77.7048 62.9105 77.5207 62.5865L77.4487 62.4384C76.0325 59.622 73.2641 54.6813 70.6037 53.2411C70.2596 53.0531 69.8316 53.1811 69.6436 53.5251C69.4556 53.8692 69.5836 54.2972 69.9276 54.4853C71.6199 55.4054 73.9002 58.5339 76.1845 63.0745C76.2565 63.2185 76.3045 63.3026 76.3125 63.3186C76.4486 63.5306 76.6766 63.6426 76.9086 63.6426H76.9046Z" fill="#1A1A1A"/>
<path d="M180.244 153.488C180.304 153.488 180.364 153.48 180.424 153.464L181.28 153.236C183.576 152.628 185.336 151.087 186.228 148.903C188.557 143.186 184.328 133.977 176.691 121.007C179.495 119.427 182.66 117.17 183.2 114.822C183.396 113.97 183.228 113.142 182.716 112.426C182.688 112.386 182.652 112.346 182.616 112.314C182.552 112.258 181.972 111.758 180.96 111.838C180.596 111.866 180.228 111.958 179.852 112.122C180.72 110.237 181.444 108.061 180.96 106.757C180.764 106.229 180.392 105.845 179.879 105.645C179.603 105.465 179.163 105.329 178.635 105.433C178.287 105.505 177.939 105.665 177.595 105.925C178.071 103.856 178.283 101.72 177.579 100.528C177.263 99.9959 176.783 99.6559 176.183 99.5439C175.559 99.2678 174.867 99.2998 174.219 99.6479C171.822 100.932 170.03 106.457 168.89 116.078C168.89 116.078 168.742 116.734 168.218 117.47C166.694 119.595 166.506 122.335 167.734 124.448L167.806 124.568C173.923 134.845 176.259 140.246 177.075 143.078C171.986 141.686 162.353 138.578 148.799 132.177C148.627 132.097 148.435 132.089 148.259 132.149C148.083 132.213 147.939 132.345 147.859 132.513L144.426 139.786C144.258 140.138 144.41 140.562 144.762 140.73C166.862 151.179 179.139 153.304 179.263 153.324L180.128 153.48C180.168 153.488 180.212 153.492 180.252 153.492L180.244 153.488ZM181.624 113.346C181.856 113.706 181.916 114.078 181.816 114.506C181.468 116.03 179.055 118.127 175.371 120.115C175.203 120.207 175.075 120.363 175.023 120.547C174.971 120.731 174.999 120.931 175.095 121.095C182.532 133.669 187.049 143.114 184.912 148.363C184.188 150.127 182.768 151.368 180.912 151.864L180.208 152.052L179.491 151.924C179.363 151.904 167.514 149.851 145.999 139.746L148.827 133.753C163.237 140.514 173.179 143.538 177.859 144.751C178.091 144.811 178.343 144.75 178.519 144.582C178.695 144.418 178.775 144.17 178.731 143.934C178.247 141.406 176.171 135.865 169.014 123.839L168.974 123.771C167.986 122.075 168.146 119.991 169.362 118.295C170.086 117.286 170.266 116.39 170.286 116.294C171.762 103.829 173.991 101.376 174.883 100.9C175.291 100.684 175.543 100.812 175.639 100.86C175.711 100.896 175.791 100.92 175.867 100.932C176.091 100.964 176.235 101.06 176.355 101.256C177.115 102.536 176.155 106.541 174.863 109.941C174.727 110.297 174.899 110.698 175.251 110.846C175.603 110.994 176.007 110.838 176.167 110.489C177.535 107.521 178.495 106.949 178.847 106.841C179.023 106.789 179.095 106.829 179.103 106.833C179.179 106.901 179.223 106.921 179.319 106.949C179.479 107.001 179.568 107.085 179.628 107.249C180.064 108.425 178.595 111.842 176.915 114.606C176.723 114.922 176.807 115.338 177.111 115.55C177.411 115.762 177.831 115.71 178.067 115.422C179.551 113.614 180.58 113.286 181.06 113.25C181.348 113.226 181.544 113.306 181.624 113.346Z" fill="#1A1A1A"/>
<path d="M12.766 147.983L14.7344 152.388L54.3242 134.865C60.8251 131.989 68.1261 131.373 75.3512 133.045C75.4992 133.081 75.6553 133.117 75.8033 133.157C77.2475 133.497 78.6797 133.929 80.108 134.461C80.208 134.509 80.308 134.545 80.4 134.573C80.436 134.593 80.464 134.593 80.5 134.609C84.6486 136.217 90.5575 139.454 96.2783 142.858C97.1624 143.391 98.0706 143.923 98.9347 144.451L101.667 145.811H101.675L109.924 146.931L110.136 146.975H110.144C110.512 146.847 110.873 146.683 111.237 146.495C110.456 145.987 109.628 145.447 108.764 144.887H108.748C108.712 144.871 108.7 144.859 108.672 144.843C106.128 143.199 103.263 141.43 100.351 139.71C99.2108 139.03 98.0546 138.358 96.9224 137.698C95.6262 136.946 94.346 136.217 93.0979 135.525C91.2016 134.461 89.3813 133.501 87.7091 132.649C85.8408 131.701 84.1685 130.909 82.7643 130.349C82.6883 130.301 82.6243 130.285 82.5603 130.249C82.4122 130.185 82.2683 130.137 82.1203 130.073C80.8041 129.576 79.4719 129.124 78.1317 128.768C78.0557 128.752 77.9676 128.72 77.8916 128.704C75.6033 128.08 73.2589 127.664 70.9586 127.452C70.0864 127.376 69.2223 127.324 68.3662 127.312C68.1902 126.504 67.6101 125.556 66.81 125.364C65.7338 125.088 64.3177 125.428 63.9416 126.604C63.8496 126.896 63.8496 127.176 63.8976 127.468C59.905 127.808 56.0284 128.82 52.3598 130.449L52.2319 130.493L12.762 147.987L12.766 147.983Z" fill="#1A1A1A"/>
<path d="M20.7287 141.146C20.9647 140.946 24.5452 150.527 24.5452 150.527L10.5952 155.476L7.89475 151.668L11.9274 149.127C9.74706 148.835 7.53872 148.255 5.51443 147.395C4.31025 146.883 3.05001 146.231 2.15788 145.247C1.18173 144.171 0.4417 142.734 0.133654 141.314C-0.114382 140.174 -0.0384617 138.93 0.541624 137.918C1.48576 136.269 3.62609 135.489 5.45436 135.677C6.82656 135.821 8.10279 136.513 8.99892 137.558C9.67502 138.346 10.0831 139.302 10.6992 140.13C11.4993 141.206 12.5915 142.03 13.8317 142.534C15.868 143.362 18.1563 143.106 19.9286 141.786C20.1926 141.59 20.4566 141.378 20.7287 141.146Z" fill="#1A1A1A"/>
<path d="M74.5202 115.718C75.9724 119.443 78.4007 121.647 82.0972 122.171C85.2977 122.639 89.4504 121.851 94.7512 119.715C96.8395 118.871 99.1117 117.823 101.572 116.555C104.392 115.102 107.253 113.29 110.065 111.398C107.933 114.018 105.889 116.695 104.2 119.371C102.828 121.559 101.652 123.6 100.68 125.496C99.7878 127.224 99.0597 128.832 98.4836 130.333C97.4155 133.157 96.9034 135.601 96.9194 137.698C96.9474 141.35 98.5836 143.971 101.664 145.815H101.672C102.012 146.019 102.364 146.211 102.736 146.395C105.393 147.563 107.841 147.803 110.137 146.975H110.145C110.513 146.847 110.874 146.683 111.238 146.495C112.202 146.007 113.134 145.307 114.042 144.399C117.094 141.362 119.863 135.969 122.455 127.86C123.427 124.836 124.163 121.527 124.816 118.199C125.164 121.563 125.608 124.904 126.316 127.992C130.296 145.443 136.045 150.988 144.39 148.139C152.6 144.939 153.42 136.993 145.219 121.087C143.766 118.267 141.962 115.406 140.062 112.594C142.682 114.726 145.359 116.771 148.043 118.459C163.193 127.976 171.178 127.836 175.063 119.923C178.611 111.862 173.575 105.661 156.528 100.208C153.504 99.236 150.195 98.4999 146.867 97.8518C150.231 97.5037 153.572 97.0596 156.66 96.3515C174.111 92.371 179.656 86.6221 176.807 78.2769C173.615 70.0677 165.662 69.2476 149.755 77.4488C146.935 78.901 144.082 80.7052 141.27 82.5975C143.394 79.9851 145.443 77.3087 147.127 74.6243C156.644 59.4741 156.504 51.489 148.599 47.6004C140.534 44.0599 134.329 49.0966 128.876 66.1431C127.912 69.1675 127.168 72.468 126.516 75.7965C126.168 72.44 125.724 69.0955 125.016 66.011C121.035 48.5605 115.286 43.0157 106.949 45.8641C98.7397 49.0566 97.9116 57.0057 106.113 72.9161C107.565 75.7365 109.377 78.5969 111.27 81.4093C108.649 79.277 105.973 77.2327 103.288 75.5445C88.1381 66.0271 80.1529 66.1671 76.2684 74.0722C72.7198 82.1374 77.7646 88.3424 94.8031 93.7952C97.8276 94.7593 101.136 95.5034 104.468 96.1555C101.104 96.5036 97.7555 96.9476 94.6671 97.6557C77.2165 101.636 71.6717 107.385 74.5202 115.722V115.718Z" fill="#E47249"/>
<path d="M113.966 107.345C114.974 107.345 115.95 106.877 116.746 106.005C117.578 105.093 118.118 103.829 118.266 102.444C118.583 99.5079 117.01 96.9275 114.762 96.6835C112.506 96.4394 110.425 98.6317 110.109 101.568C109.961 102.948 110.217 104.301 110.837 105.369C111.498 106.509 112.486 107.205 113.614 107.329C113.73 107.341 113.85 107.349 113.966 107.349V107.345ZM114.422 98.0837C114.486 98.0837 114.546 98.0837 114.61 98.0917C116.058 98.2477 117.086 100.172 116.858 102.292C116.742 103.376 116.33 104.357 115.698 105.049C115.122 105.681 114.434 105.989 113.766 105.917C113.094 105.845 112.49 105.397 112.062 104.657C111.593 103.845 111.397 102.8 111.514 101.716C111.73 99.6879 113.038 98.0797 114.418 98.0797L114.422 98.0837Z" fill="#1A1A1A"/>
<path d="M133.181 85.0138C130.625 88.0182 131.449 92.9189 135.03 95.9634C135.766 96.5915 136.562 97.0875 137.386 97.4596C140.555 98.8878 144.103 98.4158 146.131 96.0314C148.688 93.027 147.864 88.1222 144.291 85.0818C143.367 84.2937 142.355 83.7176 141.311 83.3295C138.31 82.2214 135.082 82.7855 133.185 85.0178L133.181 85.0138Z" fill="#EFEBE7"/>
<path d="M133.182 85.0138C130.625 88.0183 131.449 92.919 135.03 95.9634C135.766 96.5915 136.562 97.0876 137.386 97.4597L141.307 83.3296C138.306 82.2214 135.078 82.7855 133.182 85.0178V85.0138Z" fill="#1A1A1A"/>
<path d="M115.004 69.5474C112.447 72.5519 113.272 77.4526 116.852 80.497C117.588 81.1251 118.384 81.6212 119.208 81.9933C122.377 83.4215 125.925 82.9494 127.954 80.565C130.51 77.5606 129.686 72.6559 126.113 69.6154C125.189 68.8313 124.177 68.2512 123.133 67.8632C120.133 66.755 116.904 67.3191 115.008 69.5514L115.004 69.5474Z" fill="#EFEBE7"/>
<path d="M115.004 69.5474C112.448 72.5519 113.272 77.4526 116.852 80.497C117.588 81.1251 118.384 81.6212 119.209 81.9933L123.129 67.8632C120.129 66.755 116.9 67.3191 115.004 69.5514V69.5474Z" fill="#1A1A1A"/>
<path d="M76.4203 47.6084C76.5403 47.6084 76.6603 47.5764 76.7683 47.5164C77.0043 47.3844 77.1404 47.1324 77.1284 46.8603C77.0644 45.6761 76.9404 44.516 76.8043 43.3358L76.7843 43.1798C76.6043 41.6436 76.4203 40.0553 76.0443 38.5031C75.8602 37.711 75.4241 35.8507 74.0159 35.3186C73.8799 35.2746 73.7879 35.2506 73.6959 35.2346C73.0118 35.1026 72.2077 35.4307 71.5316 36.1428C69.8113 37.971 69.5712 40.9074 70.8554 44.408L70.8955 44.532C70.9315 44.636 70.9635 44.744 71.0075 44.8481C71.0915 45.0801 71.1835 45.3241 71.2795 45.5761C71.3835 45.8482 71.6436 46.0282 71.9316 46.0322C72.9678 46.0442 74.012 46.3283 75.0441 46.8723C75.1681 46.9403 75.2921 47.0084 75.4201 47.0884C75.6362 47.2164 75.8282 47.3444 76.0242 47.4764C76.1443 47.5564 76.2843 47.6005 76.4203 47.6005V47.6084ZM73.3958 36.6308C73.4198 36.6308 73.4398 36.6308 73.4598 36.6348L73.5479 36.6588C74.224 36.9149 74.56 38.3591 74.672 38.8352C75.028 40.3074 75.2081 41.8516 75.3841 43.3478L75.4041 43.4999C75.4841 44.2 75.5602 44.8921 75.6202 45.5842C74.576 45.0481 73.5119 44.732 72.4437 44.648C72.4077 44.552 72.3757 44.46 72.3397 44.36C72.2997 44.2599 72.2757 44.18 72.2477 44.1L72.1956 43.9399C71.5596 42.2077 70.7674 39.0352 72.5677 37.1229C72.8557 36.8189 73.1798 36.6308 73.3998 36.6308H73.3958Z" fill="#1A1A1A"/>
<path d="M60.213 161.929L64.4417 164.246L70.1865 153.792C70.7465 152.772 71.2986 151.76 71.8587 150.732C73.0989 148.431 74.3391 146.115 75.5752 143.811C75.8433 143.278 76.1354 142.746 76.4114 142.218C77.1675 140.786 77.9196 139.37 78.6997 137.954C79.0198 137.358 79.3358 136.765 79.6638 136.169C79.7118 136.077 79.7759 135.965 79.8279 135.865C80.0679 135.449 80.288 135.029 80.5 134.613C80.728 134.197 80.952 133.757 81.1721 133.337C81.4961 132.741 81.8042 132.149 82.1082 131.553C82.3363 131.149 82.5403 130.753 82.7683 130.349C82.9323 130.045 83.1083 129.74 83.2724 129.428C83.8044 128.48 84.3486 127.552 84.9086 126.644C85.5407 125.652 86.2128 124.684 86.9209 123.756C88.3372 121.919 89.2733 122.239 89.7893 122.415C90.9455 122.819 91.9937 123.604 93.0058 124.556C93.5379 125.036 94.07 125.568 94.6141 126.112L94.9061 126.404C96.1103 127.616 97.3064 128.932 98.4986 130.333C99.0307 130.949 99.5468 131.581 100.071 132.229C103.231 136.201 106.028 140.478 108.684 144.843C108.748 144.935 108.792 145.035 108.86 145.127H108.876C109.232 145.727 109.584 146.339 109.94 146.931L110.16 146.975C111.512 146.495 112.809 145.643 114.057 144.399C110.96 139.202 107.656 134.025 103.843 129.22C102.803 127.916 101.755 126.672 100.699 125.496C99.9148 124.624 99.1268 123.788 98.3386 122.995L98.0466 122.703C97.0625 121.703 95.9982 120.635 94.766 119.707C93.7619 118.943 92.6337 118.283 91.3535 117.843C90.5974 117.579 89.5213 117.339 88.2931 117.503C88.0091 116.859 87.493 116.262 86.8329 116.134C85.7488 115.906 84.3406 116.298 84.0125 117.487C83.9205 117.827 83.9485 118.183 84.0285 118.515C84.1125 118.819 84.2405 119.131 84.4166 119.387C84.1245 119.643 83.8365 119.931 83.5445 120.271C83.4045 120.435 83.2524 120.611 83.1124 120.803C82.7643 121.255 82.4323 121.711 82.1082 122.163C82.0922 122.191 82.0722 122.219 82.0522 122.247C80.672 124.232 79.4799 126.32 78.3357 128.396C78.2717 128.524 78.2077 128.636 78.1437 128.764C77.8876 129.232 77.6275 129.712 77.3875 130.181C77.2315 130.485 77.0675 130.777 76.9075 131.081C76.5514 131.777 76.1834 132.469 75.8153 133.157C75.6793 133.397 75.5553 133.645 75.4273 133.865C75.2872 134.129 75.1592 134.369 75.0232 134.621C74.7032 135.189 74.4151 135.761 74.1111 136.329C73.3269 137.774 72.5468 139.242 71.7747 140.69C71.6347 140.974 71.4707 141.25 71.3267 141.538C70.1025 143.839 68.8623 146.143 67.6221 148.435C67.078 149.435 66.5299 150.448 65.9658 151.46L60.229 161.921L60.213 161.929Z" fill="#1A1A1A"/>
<path d="M58.6289 156.944C58.6929 156.616 68.2502 162.357 68.2502 162.357L59.705 176.043L54.8163 174.627L56.5366 169.722C54.4763 170.95 52.1999 171.959 49.8916 172.599C48.5154 172.979 46.9991 173.279 45.5709 173.043C44.0107 172.787 42.4025 172.063 41.1743 171.063C40.1901 170.258 39.4101 169.142 39.218 167.886C38.906 165.842 40.2021 163.717 41.8904 162.641C43.1586 161.829 44.7148 161.557 46.191 161.841C47.2992 162.053 48.2993 162.593 49.3875 162.881C50.7997 163.257 52.2919 163.217 53.6921 162.805C55.9925 162.129 57.7687 160.357 58.3848 158.033C58.4768 157.689 58.5609 157.325 58.6329 156.944H58.6289Z" fill="#1A1A1A"/>
</svg>
