<svg width="223" height="218" viewBox="0 0 223 218" fill="none" xmlns="http://www.w3.org/2000/svg">
<path d="M144.552 136.872C141.039 134.844 137.611 132.611 134.337 130.223C134.137 130.078 133.766 129.806 133.643 129.338C133.536 128.918 133.682 128.543 133.767 128.321L136.676 120.823C136.752 120.623 136.922 120.472 137.129 120.416C137.336 120.361 137.555 120.405 137.723 120.545C144.273 125.921 151.223 130.213 158.369 133.308L158.842 133.511C163.326 135.458 168.411 137.66 173.13 136.213C176.263 135.252 178.657 132.716 180.658 130.416C183.284 127.388 185.439 124.518 187.244 121.641C190.455 116.519 193.488 110.577 196.509 103.475C196.554 103.366 196.677 103.109 196.845 102.765C197.18 102.072 198.152 100.069 198.33 99.3899C197.217 98.0044 195.79 95.9882 194.989 93.9266C193.634 90.4401 194.774 88.5476 195.97 87.5736C196.009 87.5437 196.048 87.5139 196.09 87.4944C196.158 87.4595 197.621 86.7574 199.895 88.0092C199.784 86.333 199.78 83.3209 202.545 83.0784C202.569 83.0748 203.816 82.9208 204.858 83.7715C205.271 84.1065 205.593 84.541 205.817 85.0765C206.254 84.5993 206.838 84.1768 207.554 84.1486C208.434 84.1149 209.249 84.6774 209.983 85.8266C210.048 85.7982 210.092 85.7755 210.107 85.7713C210.655 85.572 211.16 85.5751 211.607 85.7765C212.354 86.1163 212.737 86.8919 212.983 87.5237C213.278 88.2837 213.451 89.1263 213.532 90.1819C213.724 92.7172 213.283 95.3806 212.821 97.6478C212.586 98.8049 212.285 100.143 211.681 101.349C211.038 102.629 210.234 103.204 209.288 103.065C209.147 103.044 209.032 103 208.951 102.966L209.028 102.29L208.902 102.946C208.796 102.925 207.978 102.745 206.86 101.799C203.064 111.567 197.663 123.835 189.342 134.071C185.515 138.777 180.693 143.777 173.895 145.208C169.868 146.054 165.426 145.63 159.911 143.879C155.382 142.439 150.676 140.33 145.529 137.427C145.199 137.241 144.873 137.057 144.545 136.868L144.552 136.872ZM134.989 129.049C135.032 129.074 135.097 129.12 135.124 129.14C138.659 131.718 142.385 134.118 146.19 136.267C151.254 139.125 155.875 141.199 160.319 142.612C165.605 144.292 169.833 144.701 173.624 143.907C180.014 142.563 184.631 137.759 188.307 133.237C196.778 122.817 202.199 110.212 205.975 100.396C206.056 100.181 206.243 100.022 206.47 99.9784C206.696 99.9343 206.929 100.008 207.085 100.176C208.248 101.407 209.118 101.634 209.163 101.647C209.256 101.666 209.348 101.697 209.437 101.731C209.868 101.81 210.24 101.242 210.484 100.758C211.015 99.7021 211.291 98.4678 211.51 97.3928C211.951 95.2142 212.378 92.6652 212.197 90.2933C212.125 89.3738 211.978 88.6514 211.733 88.0164C211.591 87.6502 211.359 87.1447 211.052 87.0026C211.011 86.9832 210.879 86.9244 210.568 87.0379L210.518 87.0655C210.003 87.3058 209.426 87.5796 209.106 86.9841C208.585 86.024 208.041 85.4829 207.608 85.4993C207.005 85.5224 206.341 86.5588 206.132 87.0276C206.007 87.3049 205.709 87.465 205.407 87.413C205.105 87.3609 204.878 87.1116 204.852 86.8084C204.778 85.8921 204.501 85.2297 204.028 84.8386C203.435 84.3522 202.693 84.4263 202.683 84.4291C201.249 84.5583 201.08 86.0244 201.263 88.3489C201.312 88.9451 201.336 89.2736 201.235 89.5388C201.161 89.736 200.996 89.8854 200.792 89.9427C200.589 90 200.374 89.9634 200.202 89.8293C198.25 88.3392 197.024 88.6012 196.744 88.6929C195.557 89.72 195.39 91.2795 196.24 93.461C197.016 95.455 198.453 97.4379 199.525 98.7514C199.891 99.1988 199.857 99.6595 198.054 103.372C197.903 103.686 197.786 103.92 197.746 104.019C194.695 111.187 191.635 117.191 188.387 122.371C186.546 125.31 184.352 128.232 181.679 131.311C179.558 133.751 177.006 136.446 173.534 137.512C168.341 139.105 163.017 136.796 158.319 134.756L157.849 134.55C150.844 131.519 144.035 127.356 137.598 122.177L135.022 128.819C135.002 128.868 134.953 128.998 134.949 129.043C134.953 129.037 134.972 129.048 134.995 129.061L134.989 129.049ZM210.279 86.3291C210.279 86.3291 210.283 86.3361 210.285 86.3413C210.285 86.3413 210.28 86.3342 210.279 86.3291Z" fill="#1A1A1A"/>
<path d="M67.783 88.4132C62.3509 85.277 58.5295 81.795 55.8562 77.5651C52.471 72.2077 50.6767 65.6458 50.804 59.0924C50.8225 58.107 50.8874 57.1092 50.989 56.1238C51.2946 53.2337 51.9559 50.3784 52.9591 47.6421C57.5263 35.1992 66.1875 24.2682 69.4528 20.4133C68.9212 19.9797 68.5676 19.4043 68.4205 18.7209C67.7412 15.5241 71.6272 10.4201 74.0096 7.6631C74.6964 6.86704 75.5935 6.34974 76.5359 6.20801C77.6784 6.0376 78.3672 6.44841 78.748 6.8255C79.4515 7.52875 79.6269 8.61724 79.6463 9.42349C80.7586 9.16145 81.6228 9.30661 82.2135 9.85731C82.9664 10.5584 83.0306 11.7181 82.9374 12.621C86.5527 11.4058 87.9771 13.2591 88.2478 13.6906C88.8729 14.4315 88.8448 15.4638 88.1567 16.7615C87.4744 18.0493 86.4761 19.1504 85.5949 20.0789C83.9646 21.798 82.0429 23.5148 79.5513 25.4924C79.3182 25.6767 79.0654 25.8497 78.7968 26.0047C77.782 26.5896 76.786 26.7789 75.9329 26.5616C73.648 29.3313 65.3925 39.7713 61.3725 50.7216C59.2312 56.549 59.2179 63.1245 61.3359 68.755C63.2229 73.7717 66.8356 77.6835 73.0462 81.4308C73.1576 81.4951 73.4646 81.6898 73.9223 81.9715C84.1855 88.3163 86.7805 89.6704 87.3718 89.872C87.5779 89.8556 87.7882 89.9377 87.9292 90.1021C88.129 90.331 88.1463 90.6643 87.9785 90.9169C87.869 91.0765 87.7779 91.2117 87.5465 91.2266C86.5669 91.7051 81.6813 94.0915 80.9636 94.4416C80.3754 94.9232 79.2997 94.5468 76.378 92.9037C76.2109 92.8072 76.0896 92.7372 76.0236 92.7078C75.2015 92.2856 74.3756 91.87 73.5483 91.4491C72.2734 90.8048 70.9986 90.1604 69.735 89.4964C69.0614 89.1424 68.4116 88.7848 67.7858 88.4235L67.783 88.4132ZM70.8004 19.6756C70.9643 19.7702 71.0818 19.9298 71.1213 20.1186C71.165 20.3229 71.1114 20.5367 70.9714 20.696C69.0281 22.9421 59.0878 34.8251 54.2147 48.1004C53.248 50.7356 52.6102 53.4821 52.3196 56.263C52.2187 57.2095 52.1577 58.1703 52.1399 59.1167C52.0161 65.4143 53.7397 71.7126 56.9856 76.8498C59.8368 81.3617 64.0893 85.0051 70.354 88.3031C71.611 88.9633 72.8794 89.6038 74.1444 90.2425C74.9736 90.6601 75.8028 91.0776 76.6282 91.5017C76.6989 91.5382 76.8416 91.6163 77.0284 91.7241C79.4123 93.0655 80.1251 93.2761 80.3386 93.277C80.8452 92.9973 82.162 92.3508 85.7816 90.5833C83.9374 89.654 80.3685 87.5279 73.212 83.1034C72.7609 82.8255 72.4553 82.6361 72.3458 82.5685C65.8604 78.6538 62.0769 74.5385 60.0776 69.2168C57.8182 63.2032 57.8276 56.4682 60.1109 50.251C64.4088 38.5394 73.4345 27.4388 75.1984 25.3294C75.3956 25.0938 75.7304 25.0207 76.0085 25.1594C76.7296 25.5146 77.6404 25.1099 78.1198 24.8319C78.3305 24.709 78.5301 24.5752 78.71 24.4301C81.1498 22.4969 83.0286 20.8163 84.6136 19.1454C85.4368 18.2795 86.3606 17.2621 86.9663 16.1222C87.3789 15.3469 87.4587 14.8077 87.2029 14.5245C87.1646 14.4849 87.1352 14.4374 87.1091 14.3918C87.0724 14.3269 86.0088 12.5901 82.3181 14.2991C82.0792 14.4102 81.7969 14.3696 81.5954 14.1965C81.3972 14.0252 81.3173 13.7475 81.3935 13.4945C81.5921 12.8403 81.8288 11.3257 81.2928 10.824C80.9577 10.5039 80.2002 10.5601 79.1642 10.9624C78.9437 11.0491 78.697 11.0072 78.5057 10.8618C78.3196 10.7151 78.2255 10.4772 78.2598 10.2437C78.3248 9.78317 78.379 8.34232 77.7969 7.76162C77.7105 7.67677 77.4432 7.4133 76.7319 7.51806C76.1059 7.611 75.4981 7.96774 75.0188 8.52541C72.1496 11.8532 69.2515 16.1996 69.7296 18.4283C69.8486 18.9863 70.1679 19.3715 70.7499 19.642C70.7663 19.6515 70.7827 19.6609 70.7991 19.6704L70.8004 19.6756ZM80.3367 93.2803C80.2907 93.2843 80.1666 93.3175 80.0629 93.4367L80.0727 93.4424C80.1189 93.4079 80.1965 93.3566 80.3367 93.2803Z" fill="#1A1A1A"/>
<path d="M80.2123 23.9386C80.1697 23.914 80.1258 23.8842 80.0889 23.8498C79.036 22.8663 73.9126 17.8638 75.554 15.225C75.7191 14.818 76.1923 14.3617 76.8332 14.1595C78.2462 13.7172 80.7505 14.3506 84.6488 19.8862C84.8628 20.1889 84.7888 20.6048 84.4861 20.8188C84.1834 21.0328 83.7656 20.962 83.5534 20.6561C80.1299 15.7963 78.2023 15.3518 77.5293 15.3826C77.0651 15.4073 76.8505 15.6503 76.7953 15.7233C76.7762 15.7865 76.7474 15.8441 76.71 15.9012C75.867 17.1269 78.7746 20.7845 81.0036 22.8708C81.2732 23.1226 81.2868 23.5455 81.035 23.8151C80.8177 24.0478 80.4744 24.0899 80.2123 23.9386Z" fill="#1A1A1A"/>
<path d="M203.882 99.2364C203.643 99.0983 203.396 98.9292 203.145 98.7277L198.648 94.5849C198.377 94.3364 198.36 93.9117 198.61 93.6369C198.859 93.3654 199.28 93.3466 199.558 93.5988L204.02 97.7124C204.597 98.1725 205.137 98.41 205.5 98.3487C205.577 98.3364 205.813 98.2981 206.062 97.913C206.391 97.4039 206.43 96.7012 206.17 96.0313C204.668 92.1853 199.118 89.0945 198.45 88.8222C198.137 88.7288 197.932 88.4182 197.976 88.0852C198.03 87.719 198.365 87.4628 198.732 87.517C199.266 87.5898 205.642 91.0132 207.416 95.5451C207.833 96.6159 207.747 97.7717 207.188 98.6415C206.814 99.2208 206.306 99.5785 205.719 99.6721C205.159 99.7639 204.544 99.6185 203.886 99.2383L203.882 99.2364Z" fill="#1A1A1A"/>
<path d="M57.6831 133.735L53.3677 136.534L42.5451 143.998C42.5451 143.998 45.0518 146.852 51.5537 143.686C51.9129 143.518 51.9078 148.15 51.9274 148.388C51.9604 149.08 52.0089 149.768 52.0777 150.458C52.1917 151.835 52.3555 153.2 52.584 154.56C52.8097 155.94 53.1558 157.262 53.4758 158.622C53.7895 159.947 54.4317 161.249 54.9591 162.514C55.2614 163.239 55.6041 163.94 56.0428 164.564C55.8501 164.951 55.7876 165.4 55.9387 165.933C56.1251 166.639 56.6336 167.203 57.2414 167.384C57.8727 167.569 58.4461 167.249 58.9267 166.81C60.7124 167.304 62.7445 166.712 64.4965 165.902C69.0971 163.775 72.2608 159.748 75.2281 155.773C79.4309 150.136 82.888 143.989 86.131 137.767C87.0525 135.997 88.1678 134.33 88.9676 132.498C89.7442 130.714 89.5928 128.691 90.3761 126.964C90.7552 126.126 91.1227 125.285 91.5201 124.453C91.8649 123.735 92.4831 122.921 92.6883 122.157C92.7488 122.052 93.6406 120.016 93.6346 120.004L91.3622 119.74L89.207 118.994C88.2638 121.324 69.2681 159.287 62.3426 161.068C61.1983 161.324 60.0538 160.598 59.6777 159.494C59.3879 158.619 59.0341 157.227 58.7262 155.044C58.2635 151.88 57.8792 147.046 57.8882 139.751C57.8943 138.802 57.8358 135.37 57.691 133.744L57.6831 133.735Z" fill="#1A1A1A"/>
<path d="M93.693 172.838L94.6799 177.885L97.5659 190.713C97.5659 190.713 101.147 189.452 100.641 182.24C100.617 181.842 104.913 183.579 105.139 183.649C105.795 183.874 106.448 184.09 107.115 184.283C108.434 184.691 109.76 185.05 111.11 185.344C112.475 185.652 113.831 185.823 115.208 186.033C116.555 186.234 118.002 186.126 119.371 186.108C120.155 186.097 120.934 186.041 121.675 185.87C121.961 186.192 122.356 186.416 122.905 186.479C123.63 186.57 124.342 186.313 124.736 185.811C125.144 185.295 125.061 184.644 124.836 184.034C125.957 182.563 126.171 180.459 126.072 178.527C125.902 175.083 124.464 171.824 122.886 168.807C122.542 168.154 122.187 167.521 121.831 166.874C119.523 162.746 117.408 158.419 114.515 154.683C113.483 153.344 107.651 144.827 106.536 143.549C106.458 143.457 104.908 141.867 104.892 141.871L103.799 143.878L102.302 145.6C104.113 147.345 121.713 171.633 120.779 178.721C120.591 179.88 119.492 180.67 118.323 180.606C117.402 180.546 115.981 180.359 113.839 179.83C110.734 179.081 106.102 177.63 99.3406 174.897C98.4605 174.538 95.2596 173.31 93.6949 172.835L93.693 172.838Z" fill="#1A1A1A"/>
<path d="M175.165 127.913L180.235 113.978L139.38 99.1055L181.258 83.8631L176.186 69.9265L135.329 84.8012L157.613 46.2032L144.77 38.7882L123.03 76.4427L115.294 32.5512L100.688 35.1271L108.24 77.9465L74.0985 49.2972L64.566 60.6555L97.8748 88.6057L53.3054 88.6034L53.3051 103.434L96.7881 103.434L62.6431 132.083L72.175 143.439L105.483 115.491L97.745 159.386L112.348 161.959L119.898 119.139L142.181 157.735L155.023 150.322L133.285 112.667L175.165 127.913Z" fill="#86C9FF"/>
<path d="M108.488 96.4547L119.532 82.1769L127.936 87.1643L117.301 101.324L108.488 96.4547ZM119.864 83.9323L110.503 96.0366L116.929 99.585L125.965 87.5511L119.864 83.9323Z" fill="#1A1A1A"/>
<path d="M90.4847 71.496C90.4847 71.496 105.652 62.9538 110.061 82.7981C110.061 82.7981 97.1801 86.3132 90.4847 71.496Z" fill="white"/>
<path d="M103.964 74.0493C104.62 76.4989 103.166 79.0183 100.716 79.6747C98.2664 80.331 95.7469 78.8764 95.0906 76.4268C94.4342 73.9773 95.8888 71.4578 98.3384 70.8015C100.788 70.1451 103.307 71.5997 103.964 74.0493Z" fill="#1A1A1A"/>
<path d="M131.109 94.7676C131.109 94.7676 146.276 86.2254 150.685 106.07C150.685 106.07 137.805 109.585 131.109 94.7676Z" fill="white"/>
<path d="M144.371 97.3781C145.027 99.8276 143.572 102.347 141.123 103.003C138.673 103.66 136.154 102.205 135.497 99.7556C134.841 97.306 136.296 94.7866 138.745 94.1302C141.195 93.4738 143.714 94.9285 144.371 97.3781Z" fill="#1A1A1A"/>
<path d="M104.895 109.268C104.777 109.2 104.667 109.127 104.558 109.043C102.868 107.77 102.595 105.149 103.719 101.023C103.817 100.664 104.182 100.456 104.541 100.553C104.897 100.655 105.108 101.016 105.01 101.375C104.073 104.814 104.194 107.094 105.363 107.974C107.361 109.499 112.369 107.074 114.123 106.012C114.438 105.822 114.849 105.92 115.042 106.236C115.235 106.553 115.132 106.966 114.817 107.155C114.119 107.578 108.105 111.117 104.897 109.265L104.895 109.268Z" fill="#1A1A1A"/>
</svg>
