<svg width="420" height="420" viewBox="0 0 420 420" fill="none" xmlns="http://www.w3.org/2000/svg">
<rect width="420" height="420" rx="12" fill="white"/>
<rect width="420" height="420" rx="12" fill="#0000F4"/>
<g clip-path="url(#clip0_1274_1372)">
<path d="M291.334 213.722L286.706 211.44L294.721 150.167L274.304 140L243.844 143.98L244.513 148.955C242.267 147.833 241.538 147.474 241.268 147.339C240.99 147.197 240.705 147.048 240.404 146.905C239.217 146.269 237.948 145.776 236.626 145.432C234.613 144.915 232.472 144.646 230.271 144.646C229.001 144.646 227.687 144.736 226.365 144.908C222.782 145.379 219.394 146.434 216.306 148.043C213.039 149.741 210.297 152.202 208.149 155.359L197.925 149.98L168.795 153.788L168.502 155.906L165.279 154.252L125.279 158.928V176.539L134.233 175.499V270.005L154.305 280L164.22 278.706V275.766C167.33 277.284 167.578 277.352 167.998 277.456C168.832 277.658 169.711 277.763 170.605 277.763C171.138 277.763 171.679 277.726 172.22 277.658C173.647 277.471 175.007 277.052 176.261 276.416C176.412 276.342 176.562 276.259 176.712 276.169L178.139 276.88L202.312 273.723C202.312 273.723 203.529 273.192 204.077 272.878L205.016 273.371L242.958 268.411V267.828C243.446 267.917 243.942 267.985 244.453 268.022C244.716 268.037 247.135 267.947 248.457 267.506C249.283 267.222 250.072 266.878 250.815 266.466L252.28 267.192L258.913 266.331L289.08 262.389V239.727C289.08 237.782 288.457 236.017 287.27 234.618C286.909 234.199 286.511 233.817 286.075 233.488L288.599 233.159L291.334 213.722Z" fill="#D6FF55"/>
<path d="M128.615 163.215V172.626L138.508 171.332V238.141L154.635 236.032V169.222L164.528 167.936V158.524L128.615 163.215Z" fill="black"/>
<path d="M197.152 154.26L172.483 157.484L161.914 235.082L180.618 232.635L182.654 191.495L186.718 190.964L188.753 231.573L207.458 229.126L197.152 154.26ZM183.195 182.113L184.006 165.385L185.366 165.213L186.312 181.709L183.195 182.113Z" fill="black"/>
<path d="M244.866 173.33V161.719C244.866 158.494 243.98 155.816 242.222 153.684C240.457 151.544 238.241 150.13 235.582 149.442C232.915 148.753 230.023 148.611 226.906 149.015C223.788 149.427 220.896 150.324 218.23 151.708C215.563 153.1 213.355 155.09 211.589 157.686C209.824 160.282 208.945 163.192 208.945 166.417V214.582C208.945 218.742 210.575 222.363 213.828 224.914C217.081 227.465 221.189 228.416 226.162 227.765C229.865 227.211 232.577 225.46 234.29 222.513L234.973 222.146L234.155 226.336L244.866 224.937V176.128L228.739 178.238V187.911L232.127 187.47L228.739 217.478C227.65 217.62 226.478 217.777 225.208 217.942V158.808L228.739 158.344V175.44L244.866 173.33Z" fill="black"/>
<path d="M265.771 204.019L256.923 209.555L248.524 147.549L273.591 144.272L265.771 204.019Z" fill="black"/>
<path d="M268.295 221.181L253.82 223.074L251.942 210.206L270.173 207.827L268.295 221.181Z" fill="black"/>
<path d="M148.085 245.503V242.585L138.395 243.857V267.446L143.428 266.788V254.137L146.575 253.725V250.845L143.428 251.256V246.109L148.085 245.503Z" fill="black"/>
<path d="M155.612 241.605V262.314L154.523 262.456V241.748L149.49 242.406V261.461C149.49 262.434 149.76 263.242 150.309 263.885C150.857 264.521 151.54 264.948 152.367 265.15C153.186 265.352 154.087 265.396 155.048 265.269C156.01 265.142 156.911 264.873 157.73 264.446C158.556 264.027 159.247 263.429 159.788 262.643C160.337 261.858 160.607 260.982 160.607 260.01V240.955L155.612 241.605Z" fill="black"/>
<path d="M169.824 239.75V246.543L169.321 246.611L168.186 239.96L162.229 240.738V264.327L167.262 263.668V246.88L167.811 246.805L169.824 263.339L174.857 262.681V239.092L169.824 239.75Z" fill="black"/>
<path d="M187.416 240.827C187.289 240.296 187.093 239.787 186.83 239.286C186.56 238.792 186.162 238.418 185.629 238.164C185.103 237.917 184.472 237.835 183.743 237.932C182.932 238.059 182.248 238.568 181.685 239.458L181.52 239.481V238.216L176.487 238.875V262.464L181.52 261.805V260.578L181.685 260.556C182.218 261.289 182.887 261.611 183.698 261.521C184.457 261.446 185.103 261.214 185.629 260.833C186.162 260.451 186.568 259.987 186.845 259.434C187.131 258.872 187.326 258.319 187.439 257.75C187.544 257.189 187.604 256.606 187.604 256V242.54C187.604 241.934 187.537 241.366 187.416 240.827ZM182.609 258.79L181.475 258.932V241.134L182.609 240.992V258.79Z" fill="black"/>
<path d="M200.299 250.231C200.284 249.91 200.239 249.506 200.171 249.02C200.104 248.533 199.991 248.129 199.833 247.815C199.683 247.501 199.488 247.194 199.247 246.887C199.015 246.588 198.692 246.379 198.286 246.274C197.88 246.162 197.407 246.132 196.881 246.177V245.309C199.12 245.009 200.231 243.379 200.231 240.401C200.231 239.757 200.111 239.114 199.856 238.478C199.608 237.842 199.18 237.296 198.579 236.847C197.978 236.398 197.272 236.226 196.461 236.331C195.567 236.451 194.868 236.952 194.365 237.835L194.154 237.865V236.63L189.159 237.289V260.81L194.154 260.159V247.568L195.244 247.426V260.017L200.322 259.351V251.421C200.322 250.95 200.322 250.553 200.299 250.231ZM195.244 244.486L194.154 244.628V239.481L195.244 239.339V244.486Z" fill="black"/>
<path d="M212.528 234.169L204.896 235.164L201.621 259.179L207.413 258.424L208.044 245.69L209.298 245.526L209.929 258.095L215.721 257.339L212.528 234.169ZM208.209 242.788L208.464 237.61L208.885 237.558L209.178 242.66L208.209 242.788Z" fill="black"/>
<path d="M217.141 233.563V257.152L222.173 256.494V232.905L217.141 233.563Z" fill="black"/>
<path d="M234.853 238.433V235.778C234.853 234.229 234.214 233.137 232.945 232.501C231.676 231.872 230.226 231.723 228.603 232.067C227.679 232.276 226.861 232.643 226.147 233.181C225.433 233.713 224.9 234.334 224.532 235.022C224.171 235.718 223.908 236.458 223.758 237.244C223.6 238.029 223.615 238.785 223.796 239.503C223.984 240.229 224.254 240.872 224.615 241.441C224.983 242.002 225.501 242.436 226.169 242.72C226.838 243.012 227.597 243.102 228.438 242.997L229.152 242.9L229.858 242.84V252.611L228.731 252.76V243.828L223.736 244.478V251.728C223.736 252.573 223.938 253.292 224.344 253.883C224.75 254.474 225.283 254.9 225.937 255.147C226.598 255.394 227.326 255.551 228.122 255.603C228.919 255.663 229.707 255.558 230.489 255.297C231.27 255.035 231.991 254.691 232.652 254.272C233.306 253.853 233.839 253.292 234.245 252.588C234.65 251.893 234.853 251.122 234.853 250.277V245.227C234.853 243.222 234.492 241.778 233.764 240.887C233.035 240.005 231.721 239.683 229.82 239.93L228.731 240.072V234.932L229.858 234.783V239.084L234.853 238.433Z" fill="black"/>
<path d="M236.371 231.049V254.638L241.403 253.987V230.391L236.371 231.049Z" fill="black"/>
<path d="M250.62 229.186V235.987L250.117 236.047L248.99 229.403L243.033 230.181V253.77L248.066 253.112V236.316L248.607 236.249L250.62 252.775L255.66 252.124V228.528L250.62 229.186Z" fill="black"/>
<path d="M268.288 234.94V231.446C268.288 230.473 268.017 229.665 267.469 229.029C266.928 228.386 266.237 227.959 265.418 227.757C264.592 227.555 263.698 227.51 262.729 227.638C261.768 227.765 260.874 228.042 260.047 228.461C259.221 228.88 258.538 229.486 257.989 230.264C257.448 231.049 257.17 231.925 257.17 232.897V247.396C257.17 248.646 257.674 249.648 258.68 250.419C259.687 251.182 260.964 251.459 262.496 251.257C263.646 251.084 264.487 250.561 265.02 249.67L265.223 249.641L264.975 250.905L268.288 250.471V235.777L263.3 236.428V239.346L264.344 239.204L263.3 248.242C262.962 248.286 262.594 248.331 262.203 248.384V230.585L263.3 230.443V235.59L268.288 234.94Z" fill="black"/>
</g>
<defs>
<clipPath id="clip0_1274_1372">
<rect width="169.442" height="140" fill="white" transform="translate(125.279 140)"/>
</clipPath>
</defs>
</svg>
