<svg width="420" height="420" viewBox="0 0 420 420" fill="none" xmlns="http://www.w3.org/2000/svg">
<rect width="420" height="420" rx="12" fill="#D6FF55"/>
<g clip-path="url(#clip0_1274_1361)">
<path d="M282 171.766L255.218 162L236.73 179.478C233.471 177.841 227.724 174.966 226.222 174.243C225.935 174.073 225.654 173.936 225.38 173.813C223.943 173.03 222.297 172.613 220.612 172.613C220.155 172.613 219.685 172.646 219.221 172.704C214.872 173.278 211.234 176.342 209.739 180.299L205.115 177.978L172.802 189.713V207.992L177.719 210.45L138 247.987L158.069 258L200.309 252.472L210.059 238.704L227.149 253.534L249.948 223.501L240.4 217.862L282 187.548V171.766Z" fill="black"/>
<path d="M144.23 247.068L204.886 189.739L224.099 196.382L255.361 166.837V184.745L224.818 206.995L211.195 203.227L183.805 241.879L144.23 247.068Z" fill="#D6FF55"/>
<path d="M226.77 182.424C226.77 186.323 223.603 189.902 219.691 190.417C215.779 190.932 212.612 188.181 212.612 184.282C212.612 180.384 215.779 176.805 219.691 176.29C223.596 175.775 226.77 178.526 226.77 182.424Z" fill="#D6FF55"/>
<path d="M204.886 181.903V189.739L176.419 205.763V192.236L204.886 181.903Z" fill="#D6FF55"/>
<path d="M230.16 217.328L214.584 237.85L201.987 226.924L216.073 218.846L206.232 210.235L215.982 208.957L230.16 217.328Z" fill="#D6FF55"/>
</g>
<defs>
<clipPath id="clip0_1274_1361">
<rect width="144" height="96" fill="white" transform="translate(138 162)"/>
</clipPath>
</defs>
</svg>
