<svg width="420" height="420" viewBox="0 0 420 420" fill="none" xmlns="http://www.w3.org/2000/svg">
<rect width="420" height="420" rx="12" fill="black"/>
<g clip-path="url(#clip0_1274_1331)">
<path d="M315.788 212.659L312.492 211.029L318.201 167.268L303.657 160.005L281.954 162.848L282.435 166.397C280.835 165.595 280.316 165.339 280.124 165.248C279.926 165.141 279.717 165.039 279.503 164.938C278.658 164.484 277.753 164.131 276.812 163.885C275.377 163.511 273.852 163.324 272.285 163.324C271.38 163.324 270.444 163.388 269.502 163.511C266.95 163.848 264.536 164.596 262.337 165.745C260.01 166.958 258.057 168.716 256.532 170.971L249.249 167.134L228.498 169.854L228.295 171.366L225.999 170.185L197.853 173.456L182.705 187.778C180.035 186.436 175.321 184.08 174.095 183.486C173.86 183.353 173.63 183.235 173.405 183.139C172.228 182.498 170.879 182.156 169.499 182.156C169.124 182.156 168.739 182.182 168.359 182.231C164.795 182.695 161.815 185.212 160.589 188.451L156.801 186.548L130.325 196.167V211.157L134.354 213.166L101.799 243.936L118.242 252.145L152.852 247.608L160.841 236.327L174.844 248.484L193.524 223.865L185.701 219.242L203.959 205.936V231.581L203.878 231.592V252.866L218.176 260.005L225.239 259.081V256.981C227.46 258.071 227.631 258.114 227.931 258.188C228.525 258.338 229.151 258.408 229.793 258.408C230.168 258.408 230.553 258.381 230.943 258.333C231.96 258.199 232.929 257.905 233.822 257.446C233.929 257.392 234.036 257.333 234.143 257.269L235.16 257.777L252.374 255.522C252.374 255.522 253.246 255.142 253.631 254.918L254.3 255.271L281.333 251.728V251.311C281.676 251.375 282.034 251.423 282.393 251.45C282.585 251.466 284.303 251.396 285.245 251.081C285.833 250.883 286.395 250.632 286.925 250.338L287.968 250.862L292.693 250.242L314.182 247.426V231.239C314.182 229.85 313.738 228.594 312.893 227.595C312.636 227.29 312.352 227.023 312.047 226.782L313.845 226.547L315.793 212.664L315.788 212.659Z" fill="#D6FF55"/>
<path d="M199.876 176.582L225.464 173.231V179.954L218.417 180.879V228.594L206.929 230.101V182.38L199.881 183.305V176.582H199.876Z" fill="black"/>
<path d="M248.698 170.186L256.034 223.662L242.71 225.409L241.26 196.403L238.365 196.782L236.915 226.168L223.591 227.915L231.12 172.489L248.692 170.186H248.698ZM238.756 190.081L240.976 189.792L240.302 178.009L239.339 178.137L238.761 190.086L238.756 190.081Z" fill="black"/>
<path d="M271.198 215.341L273.612 193.907L271.198 194.222V187.312L282.687 185.806V220.669L275.062 221.668L275.64 218.676L275.158 218.932C273.933 221.038 272.001 222.288 269.363 222.689C265.821 223.154 262.894 222.475 260.577 220.653C258.26 218.831 257.099 216.244 257.099 213.273V178.869C257.099 176.566 257.725 174.487 258.982 172.633C260.24 170.779 261.813 169.357 263.712 168.363C265.612 167.374 267.672 166.733 269.893 166.439C272.113 166.145 274.173 166.252 276.073 166.744C277.973 167.236 279.551 168.246 280.803 169.774C282.055 171.302 282.687 173.215 282.687 175.519V183.812L271.198 185.319V173.108L268.689 173.44V215.678L271.198 215.346V215.341Z" fill="black"/>
<path d="M297.579 205.722L291.275 209.682L285.293 165.392L303.144 163.051L297.579 205.722Z" fill="black"/>
<path d="M299.371 217.987L289.065 219.333L287.722 210.147L300.714 208.442L299.371 217.987Z" fill="black"/>
<path d="M206.843 251.033V234.184L213.745 233.281V235.36L210.428 235.792V239.469L212.67 239.175V241.232L210.428 241.526V250.563L206.843 251.033Z" fill="black"/>
<path d="M219.112 247.367V232.575L222.671 232.11V245.727C222.671 246.421 222.478 247.046 222.088 247.608C221.697 248.169 221.21 248.596 220.621 248.895C220.033 249.195 219.396 249.392 218.711 249.483C218.026 249.574 217.384 249.547 216.801 249.398C216.212 249.254 215.725 248.949 215.335 248.489C214.944 248.03 214.751 247.458 214.751 246.763V233.147L218.337 232.677V247.469L219.112 247.367Z" fill="black"/>
<path d="M223.821 248.805V231.955L228.065 231.4L228.873 236.145L229.231 236.097V231.245L232.816 230.774V247.624L229.231 248.094L227.797 236.284L227.406 236.337V248.334L223.821 248.805Z" fill="black"/>
<path d="M239.147 229.946C239.666 229.877 240.115 229.936 240.49 230.117C240.87 230.299 241.153 230.566 241.34 230.919C241.528 231.272 241.667 231.64 241.758 232.02C241.849 232.399 241.892 232.805 241.892 233.238V242.852C241.892 243.285 241.849 243.701 241.774 244.102C241.694 244.503 241.554 244.904 241.356 245.299C241.158 245.695 240.87 246.031 240.49 246.304C240.11 246.576 239.655 246.742 239.114 246.796C238.537 246.854 238.06 246.625 237.68 246.106L237.563 246.122V246.999L233.978 247.469V230.62L237.563 230.149V231.052L237.68 231.036C238.076 230.401 238.569 230.032 239.147 229.941V229.946ZM238.339 244.845V232.132L237.531 232.239V244.952L238.339 244.845Z" fill="black"/>
<path d="M248.505 235.84C248.885 235.808 249.217 235.83 249.506 235.905C249.795 235.985 250.025 236.129 250.191 236.348C250.362 236.567 250.501 236.786 250.608 237.011C250.715 237.235 250.795 237.524 250.849 237.871C250.897 238.218 250.929 238.507 250.94 238.737C250.951 238.967 250.956 239.25 250.956 239.592V245.256L247.339 245.732V236.738L246.563 236.84V245.833L243.004 246.298V229.497L246.563 229.032V229.909L246.713 229.887C247.071 229.257 247.569 228.899 248.205 228.813C248.783 228.738 249.286 228.861 249.714 229.182C250.143 229.503 250.448 229.893 250.624 230.347C250.801 230.801 250.892 231.261 250.892 231.72C250.892 233.847 250.094 235.012 248.5 235.226V235.851L248.505 235.84ZM247.339 234.633V230.956L246.563 231.058V234.734L247.339 234.633Z" fill="black"/>
<path d="M259.656 227.264L261.925 243.814L257.799 244.353L257.35 235.376L256.451 235.493L256.002 244.589L251.876 245.128L254.209 227.974L259.646 227.264H259.656ZM256.574 233.42L257.259 233.329L257.05 229.679L256.751 229.717L256.569 233.414L256.574 233.42Z" fill="black"/>
<path d="M266.522 243.21L262.937 243.68V226.831L266.522 226.36V243.21Z" fill="black"/>
<path d="M271.102 225.762C272.258 225.516 273.29 225.623 274.195 226.072C275.099 226.521 275.554 227.306 275.554 228.412V230.309L271.996 230.774V227.702L271.188 227.808V231.485L271.963 231.384C273.317 231.207 274.254 231.432 274.773 232.068C275.292 232.703 275.549 233.735 275.549 235.167V238.774C275.549 239.373 275.404 239.923 275.115 240.425C274.826 240.928 274.446 241.328 273.981 241.628C273.51 241.927 273.001 242.173 272.44 242.36C271.883 242.547 271.321 242.622 270.749 242.579C270.182 242.536 269.663 242.429 269.197 242.253C268.726 242.077 268.352 241.772 268.063 241.35C267.774 240.928 267.629 240.415 267.629 239.811V234.633L271.188 234.168V240.548L271.996 240.441V233.462L271.487 233.505L270.979 233.569C270.38 233.649 269.844 233.585 269.363 233.377C268.887 233.168 268.517 232.864 268.255 232.458C267.998 232.052 267.8 231.592 267.672 231.079C267.544 230.566 267.533 230.026 267.64 229.465C267.747 228.904 267.934 228.375 268.191 227.878C268.448 227.381 268.833 226.943 269.341 226.558C269.85 226.173 270.433 225.911 271.091 225.762H271.102Z" fill="black"/>
<path d="M280.22 241.414L276.635 241.884V225.035L280.22 224.565V241.414Z" fill="black"/>
<path d="M281.381 241.265V224.415L285.625 223.86L286.433 228.605L286.791 228.557V223.705L290.376 223.234V240.084L286.791 240.554L285.357 228.744L284.966 228.797V240.794L281.381 241.265Z" fill="black"/>
<path d="M295.818 237.315L296.567 230.86L295.818 230.956V228.877L299.376 228.412V238.908L297.017 239.218L297.199 238.315L297.049 238.336C296.669 238.972 296.075 239.351 295.256 239.474C294.159 239.618 293.255 239.415 292.538 238.87C291.821 238.325 291.462 237.604 291.462 236.711V226.355C291.462 225.66 291.655 225.035 292.046 224.474C292.436 223.913 292.923 223.485 293.512 223.186C294.1 222.887 294.737 222.689 295.422 222.598C296.107 222.507 296.749 222.534 297.332 222.684C297.921 222.828 298.408 223.133 298.799 223.592C299.189 224.052 299.382 224.624 299.382 225.318V227.814L295.823 228.279V224.602L295.048 224.704V237.417L295.823 237.315H295.818Z" fill="black"/>
<path d="M106.909 243.177L156.603 196.183L172.346 201.634L197.961 177.416V192.09L172.934 210.328L161.772 207.24L139.336 238.929L106.909 243.177Z" fill="black"/>
<path d="M174.534 190.187C174.534 193.383 171.939 196.317 168.734 196.739C165.529 197.161 162.934 194.906 162.934 191.71C162.934 188.515 165.529 185.581 168.734 185.159C171.939 184.737 174.534 186.992 174.534 190.187Z" fill="black"/>
<path d="M156.603 189.76V196.183L133.278 209.324V198.235L156.603 189.76Z" fill="black"/>
<path d="M177.311 218.804L164.549 235.626L154.228 226.665L165.769 220.049L157.706 212.984L165.695 211.937L177.311 218.804Z" fill="black"/>
</g>
<defs>
<clipPath id="clip0_1274_1331">
<rect width="216.402" height="100" fill="white" transform="translate(101.799 160)"/>
</clipPath>
</defs>
</svg>
