<svg width="643" height="360" viewBox="0 0 643 360" fill="none" xmlns="http://www.w3.org/2000/svg">
<rect width="643" height="360" rx="12" fill="#E6E2DE"/>
<path d="M60.1364 270H39.0455L71.1818 176.909H96.5455L128.636 270H107.545L84.2273 198.182H83.5L60.1364 270ZM58.8182 233.409H108.636V248.773H58.8182V233.409ZM156.826 271.318C152.372 271.318 148.402 270.545 144.917 269C141.432 267.424 138.675 265.106 136.645 262.045C134.645 258.955 133.645 255.106 133.645 250.5C133.645 246.621 134.357 243.364 135.781 240.727C137.205 238.091 139.145 235.97 141.599 234.364C144.054 232.758 146.842 231.545 149.963 230.727C153.114 229.909 156.417 229.333 159.872 229C163.932 228.576 167.205 228.182 169.69 227.818C172.175 227.424 173.978 226.848 175.099 226.091C176.22 225.333 176.781 224.212 176.781 222.727V222.455C176.781 219.576 175.872 217.348 174.054 215.773C172.266 214.197 169.72 213.409 166.417 213.409C162.932 213.409 160.16 214.182 158.099 215.727C156.038 217.242 154.675 219.152 154.008 221.455L136.099 220C137.008 215.758 138.796 212.091 141.463 209C144.129 205.879 147.569 203.485 151.781 201.818C156.023 200.121 160.932 199.273 166.508 199.273C170.387 199.273 174.099 199.727 177.645 200.636C181.22 201.545 184.387 202.955 187.145 204.864C189.932 206.773 192.129 209.227 193.735 212.227C195.342 215.197 196.145 218.758 196.145 222.909V270H177.781V260.318H177.235C176.114 262.5 174.614 264.424 172.735 266.091C170.857 267.727 168.599 269.015 165.963 269.955C163.326 270.864 160.281 271.318 156.826 271.318ZM162.372 257.955C165.22 257.955 167.735 257.394 169.917 256.273C172.099 255.121 173.811 253.576 175.054 251.636C176.296 249.697 176.917 247.5 176.917 245.045V237.636C176.311 238.03 175.478 238.394 174.417 238.727C173.387 239.03 172.22 239.318 170.917 239.591C169.614 239.833 168.311 240.061 167.008 240.273C165.705 240.455 164.523 240.621 163.463 240.773C161.19 241.106 159.205 241.636 157.508 242.364C155.811 243.091 154.493 244.076 153.554 245.318C152.614 246.53 152.145 248.045 152.145 249.864C152.145 252.5 153.099 254.515 155.008 255.909C156.948 257.273 159.402 257.955 162.372 257.955Z" fill="#1A1A1A"/>
<path d="M37.5341 320V309.091H39.2102V320H37.5341ZM38.3864 307.273C38.0597 307.273 37.7779 307.161 37.5412 306.939C37.3092 306.716 37.1932 306.449 37.1932 306.136C37.1932 305.824 37.3092 305.556 37.5412 305.334C37.7779 305.111 38.0597 305 38.3864 305C38.7131 305 38.9924 305.111 39.2244 305.334C39.4612 305.556 39.5795 305.824 39.5795 306.136C39.5795 306.449 39.4612 306.716 39.2244 306.939C38.9924 307.161 38.7131 307.273 38.3864 307.273ZM43.5563 313.438V320H41.8802V309.091H43.4995V310.795H43.6415C43.8972 310.241 44.2855 309.796 44.8063 309.46C45.3272 309.119 45.9995 308.949 46.8234 308.949C47.562 308.949 48.2083 309.1 48.7623 309.403C49.3163 309.702 49.7471 310.156 50.0549 310.767C50.3627 311.373 50.5165 312.14 50.5165 313.068V320H48.8404V313.182C48.8404 312.325 48.6179 311.657 48.1728 311.179C47.7277 310.696 47.1169 310.455 46.3404 310.455C45.8054 310.455 45.3272 310.571 44.9058 310.803C44.4891 311.035 44.16 311.373 43.9185 311.818C43.6771 312.263 43.5563 312.803 43.5563 313.438ZM57.9237 309.091V310.511H52.2703V309.091H57.9237ZM53.918 306.477H55.5942V316.875C55.5942 317.348 55.6628 317.704 55.8001 317.94C55.9422 318.172 56.1221 318.329 56.3399 318.409C56.5625 318.485 56.7968 318.523 57.043 318.523C57.2277 318.523 57.3792 318.513 57.4976 318.494C57.616 318.471 57.7107 318.452 57.7817 318.438L58.1226 319.943C58.0089 319.986 57.8503 320.028 57.6467 320.071C57.4431 320.118 57.1851 320.142 56.8726 320.142C56.3991 320.142 55.9351 320.04 55.4805 319.837C55.0307 319.633 54.6567 319.323 54.3584 318.906C54.0648 318.49 53.918 317.964 53.918 317.33V306.477ZM64.5017 320.227C63.4506 320.227 62.5438 319.995 61.7815 319.531C61.024 319.062 60.4392 318.409 60.0273 317.571C59.6201 316.728 59.4165 315.748 59.4165 314.631C59.4165 313.513 59.6201 312.528 60.0273 311.676C60.4392 310.819 61.0121 310.152 61.746 309.673C62.4847 309.19 63.3464 308.949 64.3312 308.949C64.8994 308.949 65.4605 309.044 66.0145 309.233C66.5685 309.422 67.0727 309.73 67.5273 310.156C67.9818 310.578 68.344 311.136 68.6139 311.832C68.8838 312.528 69.0187 313.385 69.0187 314.403V315.114H60.6097V313.665H67.3142C67.3142 313.049 67.1911 312.5 66.9449 312.017C66.7034 311.534 66.3578 311.153 65.908 310.874C65.4629 310.594 64.9373 310.455 64.3312 310.455C63.6636 310.455 63.086 310.62 62.5983 310.952C62.1153 311.278 61.7437 311.705 61.4832 312.23C61.2228 312.756 61.0926 313.319 61.0926 313.92V314.886C61.0926 315.71 61.2347 316.409 61.5187 316.982C61.8076 317.55 62.2077 317.983 62.719 318.281C63.2304 318.575 63.8246 318.722 64.5017 318.722C64.942 318.722 65.3398 318.66 65.6949 318.537C66.0547 318.409 66.3649 318.22 66.6253 317.969C66.8857 317.713 67.0869 317.396 67.229 317.017L68.8483 317.472C68.6778 318.021 68.3914 318.504 67.9889 318.92C67.5865 319.332 67.0893 319.654 66.4974 319.886C65.9056 320.114 65.2403 320.227 64.5017 320.227ZM71.1685 320V309.091H72.7878V310.739H72.9014C73.1003 310.199 73.4601 309.761 73.981 309.425C74.5018 309.089 75.0889 308.92 75.7423 308.92C75.8654 308.92 76.0193 308.923 76.204 308.928C76.3886 308.932 76.5283 308.939 76.623 308.949V310.653C76.5662 310.639 76.436 310.618 76.2324 310.589C76.0335 310.556 75.8228 310.54 75.6003 310.54C75.07 310.54 74.5965 310.651 74.1798 310.874C73.7679 311.091 73.4412 311.394 73.1997 311.783C72.963 312.166 72.8446 312.604 72.8446 313.097V320H71.1685ZM83.4349 320V309.091H85.0542V310.739H85.1678C85.3667 310.199 85.7265 309.761 86.2474 309.425C86.7682 309.089 87.3553 308.92 88.0087 308.92C88.1318 308.92 88.2857 308.923 88.4704 308.928C88.655 308.932 88.7947 308.939 88.8894 308.949V310.653C88.8326 310.639 88.7024 310.618 88.4988 310.589C88.2999 310.556 88.0892 310.54 87.8667 310.54C87.3364 310.54 86.8629 310.651 86.4462 310.874C86.0343 311.091 85.7076 311.394 85.4661 311.783C85.2294 312.166 85.111 312.604 85.111 313.097V320H83.4349ZM94.7181 320.227C93.667 320.227 92.7603 319.995 91.9979 319.531C91.2404 319.062 90.6556 318.409 90.2437 317.571C89.8365 316.728 89.6329 315.748 89.6329 314.631C89.6329 313.513 89.8365 312.528 90.2437 311.676C90.6556 310.819 91.2285 310.152 91.9624 309.673C92.7011 309.19 93.5628 308.949 94.5477 308.949C95.1158 308.949 95.6769 309.044 96.2309 309.233C96.7849 309.422 97.2891 309.73 97.7437 310.156C98.1982 310.578 98.5604 311.136 98.8303 311.832C99.1002 312.528 99.2352 313.385 99.2352 314.403V315.114H90.8261V313.665H97.5306C97.5306 313.049 97.4075 312.5 97.1613 312.017C96.9198 311.534 96.5742 311.153 96.1244 310.874C95.6793 310.594 95.1537 310.455 94.5477 310.455C93.88 310.455 93.3024 310.62 92.8147 310.952C92.3317 311.278 91.9601 311.705 91.6996 312.23C91.4392 312.756 91.309 313.319 91.309 313.92V314.886C91.309 315.71 91.4511 316.409 91.7352 316.982C92.024 317.55 92.4241 317.983 92.9354 318.281C93.4468 318.575 94.041 318.722 94.7181 318.722C95.1585 318.722 95.5562 318.66 95.9113 318.537C96.2711 318.409 96.5813 318.22 96.8417 317.969C97.1021 317.713 97.3033 317.396 97.4454 317.017L99.0647 317.472C98.8942 318.021 98.6078 318.504 98.2053 318.92C97.8029 319.332 97.3057 319.654 96.7139 319.886C96.122 320.114 95.4567 320.227 94.7181 320.227ZM105.788 324.318C104.979 324.318 104.283 324.214 103.7 324.006C103.118 323.802 102.633 323.532 102.244 323.196C101.861 322.865 101.555 322.509 101.328 322.131L102.663 321.193C102.815 321.392 103.007 321.619 103.239 321.875C103.471 322.135 103.788 322.36 104.19 322.55C104.597 322.744 105.13 322.841 105.788 322.841C106.669 322.841 107.396 322.628 107.969 322.202C108.542 321.776 108.828 321.108 108.828 320.199V317.983H108.686C108.563 318.182 108.388 318.428 108.16 318.722C107.938 319.01 107.616 319.268 107.195 319.496C106.778 319.718 106.214 319.83 105.504 319.83C104.624 319.83 103.833 319.621 103.132 319.205C102.436 318.788 101.884 318.182 101.477 317.386C101.075 316.591 100.874 315.625 100.874 314.489C100.874 313.371 101.07 312.398 101.463 311.57C101.856 310.736 102.403 310.092 103.104 309.638C103.804 309.179 104.614 308.949 105.533 308.949C106.243 308.949 106.806 309.067 107.223 309.304C107.644 309.536 107.966 309.801 108.189 310.099C108.416 310.393 108.591 310.634 108.714 310.824H108.885V309.091H110.504V320.312C110.504 321.25 110.291 322.012 109.865 322.599C109.444 323.191 108.875 323.625 108.16 323.899C107.45 324.179 106.659 324.318 105.788 324.318ZM105.731 318.324C106.404 318.324 106.972 318.17 107.436 317.862C107.9 317.554 108.253 317.112 108.494 316.534C108.736 315.956 108.856 315.265 108.856 314.46C108.856 313.674 108.738 312.981 108.501 312.379C108.265 311.778 107.914 311.307 107.45 310.966C106.986 310.625 106.413 310.455 105.731 310.455C105.021 310.455 104.429 310.634 103.956 310.994C103.487 311.354 103.134 311.837 102.898 312.443C102.666 313.049 102.55 313.722 102.55 314.46C102.55 315.218 102.668 315.888 102.905 316.47C103.146 317.048 103.501 317.502 103.97 317.834C104.444 318.161 105.031 318.324 105.731 318.324ZM120.047 315.54V309.091H121.724V320H120.047V318.153H119.934C119.678 318.707 119.28 319.179 118.741 319.567C118.201 319.95 117.519 320.142 116.695 320.142C116.013 320.142 115.407 319.993 114.877 319.695C114.347 319.392 113.93 318.937 113.627 318.331C113.324 317.72 113.172 316.951 113.172 316.023V309.091H114.849V315.909C114.849 316.705 115.071 317.339 115.516 317.812C115.966 318.286 116.539 318.523 117.235 318.523C117.652 318.523 118.075 318.416 118.506 318.203C118.942 317.99 119.306 317.663 119.6 317.223C119.898 316.783 120.047 316.222 120.047 315.54ZM126.07 305.455V320H124.393V305.455H126.07ZM131.95 320.256C131.258 320.256 130.631 320.125 130.068 319.865C129.504 319.6 129.057 319.219 128.725 318.722C128.394 318.22 128.228 317.614 128.228 316.903C128.228 316.278 128.351 315.772 128.598 315.384C128.844 314.991 129.173 314.683 129.585 314.46C129.997 314.238 130.451 314.072 130.948 313.963C131.45 313.849 131.955 313.759 132.461 313.693C133.124 313.608 133.661 313.544 134.073 313.501C134.49 313.454 134.793 313.376 134.982 313.267C135.177 313.158 135.274 312.969 135.274 312.699V312.642C135.274 311.941 135.082 311.397 134.698 311.009C134.32 310.62 133.744 310.426 132.973 310.426C132.172 310.426 131.545 310.601 131.09 310.952C130.636 311.302 130.316 311.676 130.132 312.074L128.541 311.506C128.825 310.843 129.204 310.327 129.677 309.957C130.155 309.583 130.676 309.323 131.24 309.176C131.808 309.025 132.366 308.949 132.916 308.949C133.266 308.949 133.669 308.991 134.123 309.077C134.582 309.157 135.025 309.325 135.451 309.581C135.882 309.837 136.24 310.223 136.524 310.739C136.808 311.255 136.95 311.946 136.95 312.812V320H135.274V318.523H135.188C135.075 318.759 134.885 319.013 134.62 319.283C134.355 319.553 134.002 319.782 133.562 319.972C133.122 320.161 132.584 320.256 131.95 320.256ZM132.205 318.75C132.868 318.75 133.427 318.62 133.882 318.359C134.341 318.099 134.687 317.763 134.919 317.351C135.155 316.939 135.274 316.506 135.274 316.051V314.517C135.203 314.602 135.046 314.68 134.805 314.751C134.568 314.818 134.294 314.877 133.981 314.929C133.673 314.976 133.373 315.019 133.079 315.057C132.79 315.09 132.556 315.118 132.376 315.142C131.94 315.199 131.533 315.291 131.154 315.419C130.78 315.542 130.477 315.729 130.245 315.98C130.018 316.226 129.904 316.562 129.904 316.989C129.904 317.571 130.12 318.011 130.551 318.31C130.986 318.603 131.538 318.75 132.205 318.75ZM139.609 320V309.091H141.228V310.739H141.342C141.541 310.199 141.901 309.761 142.422 309.425C142.942 309.089 143.53 308.92 144.183 308.92C144.306 308.92 144.46 308.923 144.645 308.928C144.829 308.932 144.969 308.939 145.064 308.949V310.653C145.007 310.639 144.877 310.618 144.673 310.589C144.474 310.556 144.263 310.54 144.041 310.54C143.511 310.54 143.037 310.651 142.62 310.874C142.209 311.091 141.882 311.394 141.64 311.783C141.404 312.166 141.285 312.604 141.285 313.097V320H139.609Z" fill="#1A1A1A"/>
<rect x="159.5" y="307.5" width="10" height="1.5" rx="0.75" transform="rotate(90 159.5 307.5)" fill="#1A1A1A"/>
<path d="M172.928 320V309.091H174.966V310.866H175.101C175.328 310.265 175.7 309.796 176.216 309.46C176.732 309.119 177.35 308.949 178.07 308.949C178.799 308.949 179.41 309.119 179.902 309.46C180.399 309.801 180.766 310.27 181.003 310.866H181.116C181.377 310.284 181.791 309.82 182.359 309.474C182.928 309.124 183.605 308.949 184.391 308.949C185.38 308.949 186.188 309.259 186.812 309.879C187.442 310.5 187.757 311.435 187.757 312.685V320H185.634V312.884C185.634 312.145 185.432 311.61 185.03 311.278C184.627 310.947 184.147 310.781 183.588 310.781C182.897 310.781 182.359 310.994 181.976 311.42C181.592 311.842 181.401 312.384 181.401 313.047V320H179.284V312.749C179.284 312.157 179.099 311.681 178.73 311.321C178.361 310.961 177.88 310.781 177.288 310.781C176.886 310.781 176.514 310.888 176.173 311.101C175.837 311.309 175.565 311.6 175.357 311.974C175.153 312.348 175.051 312.782 175.051 313.274V320H172.928ZM194.905 320.22C193.83 320.22 192.905 319.991 192.128 319.531C191.356 319.067 190.76 318.416 190.338 317.578C189.922 316.735 189.713 315.748 189.713 314.616C189.713 313.499 189.922 312.514 190.338 311.662C190.76 310.81 191.347 310.144 192.1 309.666C192.857 309.188 193.743 308.949 194.756 308.949C195.371 308.949 195.968 309.051 196.546 309.254C197.123 309.458 197.642 309.777 198.101 310.213C198.56 310.649 198.923 311.214 199.188 311.911C199.453 312.602 199.585 313.442 199.585 314.432V315.185H190.914V313.594H197.504C197.504 313.035 197.391 312.54 197.164 312.109C196.936 311.674 196.617 311.33 196.205 311.08C195.798 310.829 195.319 310.703 194.77 310.703C194.174 310.703 193.653 310.85 193.208 311.143C192.767 311.432 192.426 311.811 192.185 312.28C191.948 312.744 191.83 313.248 191.83 313.793V315.036C191.83 315.765 191.958 316.385 192.213 316.896C192.474 317.408 192.836 317.798 193.3 318.068C193.764 318.333 194.306 318.466 194.926 318.466C195.329 318.466 195.696 318.409 196.027 318.295C196.359 318.177 196.645 318.002 196.887 317.77C197.128 317.538 197.313 317.251 197.441 316.911L199.45 317.273C199.29 317.865 199.001 318.383 198.584 318.828C198.172 319.268 197.654 319.612 197.029 319.858C196.408 320.099 195.7 320.22 194.905 320.22ZM205.625 320.213C204.745 320.213 203.959 319.988 203.267 319.538C202.581 319.084 202.041 318.437 201.648 317.599C201.26 316.757 201.066 315.746 201.066 314.567C201.066 313.388 201.262 312.379 201.655 311.541C202.053 310.703 202.597 310.062 203.289 309.616C203.98 309.171 204.764 308.949 205.64 308.949C206.317 308.949 206.861 309.062 207.273 309.29C207.69 309.512 208.012 309.773 208.239 310.071C208.471 310.369 208.651 310.632 208.779 310.859H208.907V305.455H211.03V320H208.956V318.303H208.779C208.651 318.535 208.466 318.8 208.225 319.098C207.988 319.396 207.661 319.657 207.245 319.879C206.828 320.102 206.288 320.213 205.625 320.213ZM206.094 318.402C206.705 318.402 207.221 318.241 207.642 317.919C208.069 317.592 208.391 317.14 208.608 316.562C208.831 315.985 208.942 315.312 208.942 314.545C208.942 313.788 208.833 313.125 208.615 312.557C208.398 311.989 208.078 311.546 207.657 311.229C207.235 310.911 206.714 310.753 206.094 310.753C205.455 310.753 204.922 310.919 204.496 311.25C204.07 311.581 203.748 312.034 203.53 312.607C203.317 313.179 203.211 313.826 203.211 314.545C203.211 315.275 203.32 315.93 203.537 316.513C203.755 317.095 204.077 317.557 204.503 317.898C204.934 318.234 205.464 318.402 206.094 318.402ZM213.661 320V309.091H215.785V320H213.661ZM214.734 307.408C214.364 307.408 214.047 307.285 213.782 307.038C213.521 306.787 213.391 306.489 213.391 306.143C213.391 305.793 213.521 305.495 213.782 305.249C214.047 304.998 214.364 304.872 214.734 304.872C215.103 304.872 215.418 304.998 215.678 305.249C215.943 305.495 216.076 305.793 216.076 306.143C216.076 306.489 215.943 306.787 215.678 307.038C215.418 307.285 215.103 307.408 214.734 307.408ZM225.152 315.476V309.091H227.283V320H225.195V318.111H225.081C224.83 318.693 224.428 319.179 223.874 319.567C223.324 319.95 222.64 320.142 221.821 320.142C221.12 320.142 220.5 319.988 219.96 319.68C219.425 319.368 219.004 318.906 218.696 318.295C218.393 317.685 218.242 316.929 218.242 316.03V309.091H220.365V315.774C220.365 316.518 220.571 317.109 220.983 317.55C221.395 317.99 221.93 318.21 222.588 318.21C222.986 318.21 223.381 318.111 223.774 317.912C224.172 317.713 224.501 317.412 224.762 317.01C225.027 316.607 225.157 316.096 225.152 315.476ZM229.736 320V309.091H231.775V310.866H231.909C232.137 310.265 232.508 309.796 233.025 309.46C233.541 309.119 234.158 308.949 234.878 308.949C235.607 308.949 236.218 309.119 236.711 309.46C237.208 309.801 237.575 310.27 237.811 310.866H237.925C238.185 310.284 238.6 309.82 239.168 309.474C239.736 309.124 240.413 308.949 241.199 308.949C242.189 308.949 242.996 309.259 243.621 309.879C244.251 310.5 244.566 311.435 244.566 312.685V320H242.442V312.884C242.442 312.145 242.241 311.61 241.838 311.278C241.436 310.947 240.955 310.781 240.397 310.781C239.705 310.781 239.168 310.994 238.784 311.42C238.401 311.842 238.209 312.384 238.209 313.047V320H236.093V312.749C236.093 312.157 235.908 311.681 235.539 311.321C235.169 310.961 234.689 310.781 234.097 310.781C233.694 310.781 233.323 310.888 232.982 311.101C232.646 311.309 232.373 311.6 232.165 311.974C231.962 312.348 231.86 312.782 231.86 313.274V320H229.736Z" fill="#1A1A1A"/>
<rect x="260" y="307.5" width="10" height="1.5" rx="0.75" transform="rotate(90 260 307.5)" fill="#1A1A1A"/>
<path d="M281.943 311.974L279.599 312.23C279.533 311.993 279.417 311.771 279.251 311.562C279.09 311.354 278.873 311.186 278.598 311.058C278.323 310.93 277.987 310.866 277.589 310.866C277.054 310.866 276.605 310.982 276.24 311.214C275.88 311.446 275.703 311.747 275.707 312.116C275.703 312.434 275.819 312.692 276.055 312.891C276.297 313.089 276.695 313.253 277.249 313.381L279.109 313.778C280.142 314.001 280.909 314.354 281.411 314.837C281.917 315.32 282.173 315.952 282.178 316.733C282.173 317.42 281.972 318.026 281.574 318.551C281.181 319.072 280.634 319.479 279.933 319.773C279.232 320.066 278.428 320.213 277.518 320.213C276.183 320.213 275.108 319.934 274.294 319.375C273.48 318.812 272.994 318.028 272.838 317.024L275.345 316.783C275.459 317.275 275.7 317.647 276.07 317.898C276.439 318.149 276.92 318.274 277.511 318.274C278.122 318.274 278.612 318.149 278.982 317.898C279.356 317.647 279.543 317.337 279.543 316.967C279.543 316.655 279.422 316.397 279.18 316.193C278.944 315.99 278.574 315.833 278.072 315.724L276.212 315.334C275.165 315.116 274.391 314.749 273.889 314.233C273.387 313.712 273.139 313.054 273.143 312.259C273.139 311.586 273.321 311.004 273.69 310.511C274.064 310.014 274.583 309.631 275.246 309.361C275.913 309.086 276.683 308.949 277.554 308.949C278.832 308.949 279.839 309.221 280.572 309.766C281.311 310.31 281.768 311.046 281.943 311.974ZM288.727 320.213C287.633 320.213 286.689 319.986 285.893 319.531C285.103 319.072 284.494 318.423 284.068 317.585C283.642 316.742 283.429 315.75 283.429 314.609C283.429 313.487 283.642 312.502 284.068 311.655C284.499 310.803 285.1 310.14 285.872 309.666C286.644 309.188 287.551 308.949 288.592 308.949C289.265 308.949 289.899 309.058 290.496 309.276C291.097 309.489 291.627 309.82 292.087 310.27C292.551 310.72 292.915 311.293 293.18 311.989C293.445 312.68 293.578 313.504 293.578 314.46V315.249H284.636V313.516H291.113C291.109 313.023 291.002 312.585 290.794 312.202C290.586 311.813 290.294 311.508 289.92 311.286C289.551 311.063 289.12 310.952 288.628 310.952C288.102 310.952 287.64 311.08 287.243 311.335C286.845 311.586 286.535 311.918 286.312 312.33C286.095 312.737 285.983 313.184 285.979 313.672V315.185C285.979 315.819 286.095 316.364 286.327 316.818C286.559 317.268 286.883 317.614 287.3 317.855C287.716 318.092 288.204 318.21 288.763 318.21C289.137 318.21 289.475 318.158 289.778 318.054C290.081 317.945 290.344 317.786 290.567 317.578C290.789 317.37 290.957 317.112 291.071 316.804L293.471 317.074C293.32 317.708 293.031 318.262 292.605 318.736C292.184 319.205 291.644 319.569 290.986 319.83C290.328 320.085 289.575 320.213 288.727 320.213ZM295.353 320V309.091H297.81V310.945H297.938C298.166 310.32 298.542 309.832 299.068 309.482C299.593 309.126 300.22 308.949 300.95 308.949C301.688 308.949 302.311 309.129 302.818 309.489C303.329 309.844 303.689 310.329 303.897 310.945H304.011C304.252 310.339 304.659 309.856 305.232 309.496C305.81 309.131 306.494 308.949 307.285 308.949C308.289 308.949 309.108 309.266 309.742 309.901C310.377 310.535 310.694 311.461 310.694 312.678V320H308.116V313.075C308.116 312.398 307.936 311.903 307.576 311.591C307.216 311.274 306.776 311.115 306.255 311.115C305.635 311.115 305.149 311.309 304.799 311.697C304.453 312.081 304.281 312.58 304.281 313.196V320H301.759V312.969C301.759 312.405 301.589 311.955 301.248 311.619C300.912 311.283 300.471 311.115 299.927 311.115C299.558 311.115 299.221 311.21 298.918 311.399C298.615 311.584 298.374 311.847 298.194 312.188C298.014 312.524 297.924 312.917 297.924 313.366V320H295.353ZM312.902 320V309.091H315.473V320H312.902ZM314.195 307.543C313.788 307.543 313.437 307.408 313.144 307.138C312.85 306.863 312.703 306.534 312.703 306.151C312.703 305.762 312.85 305.433 313.144 305.163C313.437 304.889 313.788 304.751 314.195 304.751C314.607 304.751 314.957 304.889 315.246 305.163C315.54 305.433 315.686 305.762 315.686 306.151C315.686 306.534 315.54 306.863 315.246 307.138C314.957 307.408 314.607 307.543 314.195 307.543ZM317.831 320V305.455H320.402V310.895H320.508C320.641 310.63 320.828 310.348 321.069 310.05C321.311 309.747 321.638 309.489 322.05 309.276C322.461 309.058 322.987 308.949 323.626 308.949C324.469 308.949 325.229 309.164 325.906 309.595C326.588 310.021 327.128 310.653 327.525 311.491C327.928 312.325 328.129 313.348 328.129 314.56C328.129 315.758 327.933 316.776 327.54 317.614C327.147 318.452 326.612 319.091 325.934 319.531C325.257 319.972 324.49 320.192 323.633 320.192C323.008 320.192 322.49 320.088 322.078 319.879C321.666 319.671 321.335 319.42 321.084 319.126C320.837 318.828 320.646 318.546 320.508 318.281H320.359V320H317.831ZM320.352 314.545C320.352 315.251 320.451 315.869 320.65 316.399C320.854 316.929 321.145 317.344 321.524 317.642C321.907 317.936 322.371 318.082 322.916 318.082C323.484 318.082 323.96 317.931 324.344 317.628C324.727 317.32 325.016 316.901 325.21 316.371C325.409 315.836 325.508 315.227 325.508 314.545C325.508 313.868 325.411 313.267 325.217 312.741C325.023 312.216 324.734 311.804 324.351 311.506C323.967 311.207 323.489 311.058 322.916 311.058C322.367 311.058 321.9 311.203 321.517 311.491C321.133 311.78 320.842 312.185 320.643 312.706C320.449 313.227 320.352 313.84 320.352 314.545ZM334.673 320.213C333.608 320.213 332.685 319.979 331.903 319.51C331.122 319.041 330.516 318.385 330.085 317.543C329.659 316.7 329.446 315.715 329.446 314.588C329.446 313.461 329.659 312.474 330.085 311.626C330.516 310.779 331.122 310.121 331.903 309.652C332.685 309.183 333.608 308.949 334.673 308.949C335.739 308.949 336.662 309.183 337.443 309.652C338.224 310.121 338.828 310.779 339.254 311.626C339.685 312.474 339.901 313.461 339.901 314.588C339.901 315.715 339.685 316.7 339.254 317.543C338.828 318.385 338.224 319.041 337.443 319.51C336.662 319.979 335.739 320.213 334.673 320.213ZM334.688 318.153C335.265 318.153 335.748 317.995 336.136 317.678C336.525 317.356 336.813 316.925 337.003 316.385C337.197 315.845 337.294 315.244 337.294 314.581C337.294 313.913 337.197 313.31 337.003 312.77C336.813 312.225 336.525 311.792 336.136 311.47C335.748 311.148 335.265 310.987 334.688 310.987C334.096 310.987 333.603 311.148 333.21 311.47C332.822 311.792 332.531 312.225 332.337 312.77C332.147 313.31 332.053 313.913 332.053 314.581C332.053 315.244 332.147 315.845 332.337 316.385C332.531 316.925 332.822 317.356 333.21 317.678C333.603 317.995 334.096 318.153 334.688 318.153ZM344.254 305.455V320H341.683V305.455H344.254ZM350.546 320.192C349.689 320.192 348.922 319.972 348.245 319.531C347.568 319.091 347.033 318.452 346.64 317.614C346.247 316.776 346.05 315.758 346.05 314.56C346.05 313.348 346.249 312.325 346.647 311.491C347.049 310.653 347.591 310.021 348.273 309.595C348.955 309.164 349.715 308.949 350.553 308.949C351.192 308.949 351.718 309.058 352.13 309.276C352.542 309.489 352.868 309.747 353.11 310.05C353.351 310.348 353.538 310.63 353.671 310.895H353.777V305.455H356.356V320H353.827V318.281H353.671C353.538 318.546 353.347 318.828 353.096 319.126C352.845 319.42 352.513 319.671 352.101 319.879C351.689 320.088 351.171 320.192 350.546 320.192ZM351.263 318.082C351.808 318.082 352.272 317.936 352.655 317.642C353.039 317.344 353.33 316.929 353.529 316.399C353.728 315.869 353.827 315.251 353.827 314.545C353.827 313.84 353.728 313.227 353.529 312.706C353.335 312.185 353.046 311.78 352.662 311.491C352.284 311.203 351.817 311.058 351.263 311.058C350.69 311.058 350.212 311.207 349.829 311.506C349.445 311.804 349.156 312.216 348.962 312.741C348.768 313.267 348.671 313.868 348.671 314.545C348.671 315.227 348.768 315.836 348.962 316.371C349.161 316.901 349.452 317.32 349.836 317.628C350.224 317.931 350.7 318.082 351.263 318.082Z" fill="#1A1A1A"/>
<rect x="371.5" y="307.5" width="10" height="1.5" rx="0.75" transform="rotate(90 371.5 307.5)" fill="#1A1A1A"/>
<path d="M384.764 320V305.455H387.79V310.923H387.882C388.015 310.63 388.206 310.331 388.457 310.028C388.713 309.721 389.045 309.465 389.452 309.261C389.864 309.053 390.375 308.949 390.986 308.949C391.781 308.949 392.515 309.157 393.188 309.574C393.86 309.986 394.397 310.608 394.8 311.442C395.202 312.27 395.403 313.31 395.403 314.56C395.403 315.777 395.207 316.804 394.814 317.642C394.426 318.475 393.895 319.107 393.223 319.538C392.555 319.964 391.807 320.178 390.979 320.178C390.392 320.178 389.892 320.08 389.48 319.886C389.073 319.692 388.739 319.448 388.479 319.155C388.218 318.857 388.019 318.556 387.882 318.253H387.747V320H384.764ZM387.726 314.545C387.726 315.194 387.816 315.76 387.996 316.243C388.176 316.726 388.436 317.102 388.777 317.372C389.118 317.637 389.532 317.77 390.02 317.77C390.512 317.77 390.929 317.635 391.27 317.365C391.611 317.09 391.869 316.712 392.044 316.229C392.224 315.741 392.314 315.18 392.314 314.545C392.314 313.916 392.226 313.362 392.051 312.884C391.876 312.405 391.618 312.031 391.277 311.761C390.936 311.491 390.517 311.357 390.02 311.357C389.527 311.357 389.111 311.487 388.77 311.747C388.434 312.008 388.176 312.377 387.996 312.855C387.816 313.333 387.726 313.897 387.726 314.545ZM401.951 320.213C400.848 320.213 399.894 319.979 399.089 319.51C398.289 319.036 397.671 318.378 397.235 317.536C396.8 316.688 396.582 315.705 396.582 314.588C396.582 313.461 396.8 312.476 397.235 311.634C397.671 310.786 398.289 310.128 399.089 309.659C399.894 309.186 400.848 308.949 401.951 308.949C403.054 308.949 404.006 309.186 404.806 309.659C405.611 310.128 406.232 310.786 406.667 311.634C407.103 312.476 407.321 313.461 407.321 314.588C407.321 315.705 407.103 316.688 406.667 317.536C406.232 318.378 405.611 319.036 404.806 319.51C404.006 319.979 403.054 320.213 401.951 320.213ZM401.965 317.869C402.467 317.869 402.886 317.727 403.223 317.443C403.559 317.154 403.812 316.761 403.982 316.264C404.158 315.767 404.245 315.201 404.245 314.567C404.245 313.932 404.158 313.366 403.982 312.869C403.812 312.372 403.559 311.979 403.223 311.69C402.886 311.402 402.467 311.257 401.965 311.257C401.459 311.257 401.033 311.402 400.687 311.69C400.346 311.979 400.088 312.372 399.913 312.869C399.742 313.366 399.657 313.932 399.657 314.567C399.657 315.201 399.742 315.767 399.913 316.264C400.088 316.761 400.346 317.154 400.687 317.443C401.033 317.727 401.459 317.869 401.965 317.869ZM411.913 305.455V320H408.888V305.455H411.913ZM417.957 320.178C417.128 320.178 416.378 319.964 415.706 319.538C415.038 319.107 414.508 318.475 414.115 317.642C413.726 316.804 413.532 315.777 413.532 314.56C413.532 313.31 413.733 312.27 414.136 311.442C414.538 310.608 415.073 309.986 415.741 309.574C416.413 309.157 417.15 308.949 417.95 308.949C418.561 308.949 419.07 309.053 419.477 309.261C419.889 309.465 420.22 309.721 420.471 310.028C420.727 310.331 420.921 310.63 421.054 310.923H421.146V305.455H424.164V320H421.181V318.253H421.054C420.912 318.556 420.71 318.857 420.45 319.155C420.194 319.448 419.86 319.692 419.448 319.886C419.041 320.08 418.544 320.178 417.957 320.178ZM418.916 317.77C419.403 317.77 419.815 317.637 420.152 317.372C420.492 317.102 420.753 316.726 420.933 316.243C421.117 315.76 421.21 315.194 421.21 314.545C421.21 313.897 421.12 313.333 420.94 312.855C420.76 312.377 420.5 312.008 420.159 311.747C419.818 311.487 419.403 311.357 418.916 311.357C418.419 311.357 418 311.491 417.659 311.761C417.318 312.031 417.06 312.405 416.885 312.884C416.709 313.362 416.622 313.916 416.622 314.545C416.622 315.18 416.709 315.741 416.885 316.229C417.064 316.712 417.322 317.09 417.659 317.365C418 317.635 418.419 317.77 418.916 317.77Z" fill="#1A1A1A"/>
</svg>
