<svg width="643" height="360" viewBox="0 0 643 360" fill="none" xmlns="http://www.w3.org/2000/svg">
<rect width="643" height="360" rx="12" fill="#E6E2DE"/>
<path d="M37.875 270L48.5 160H85.8125L96.25 270H75.4375L73.875 252.25H60.625L59.25 270H37.875ZM62.1875 234.688H72.1875L67.375 178.75H66.375L62.1875 234.688ZM117.127 271C111.919 271 107.94 269.792 105.19 267.375C102.482 264.958 100.627 261.646 99.6275 257.438C98.6275 253.229 98.1275 248.458 98.1275 243.125C98.1275 237.417 98.69 232.75 99.815 229.125C100.94 225.458 102.857 222.458 105.565 220.125C108.315 217.792 112.086 215.812 116.877 214.188L130.752 209.438V199.812C130.752 194.771 129.107 192.25 125.815 192.25C122.815 192.25 121.315 194.292 121.315 198.375V204H99.565C99.5233 203.667 99.5025 203.25 99.5025 202.75C99.5025 202.208 99.5025 201.604 99.5025 200.938C99.5025 191.604 101.69 185 106.065 181.125C110.482 177.208 117.461 175.25 127.002 175.25C132.002 175.25 136.482 176.146 140.44 177.938C144.398 179.688 147.523 182.292 149.815 185.75C152.148 189.208 153.315 193.479 153.315 198.562V270H131.065V258.875C129.982 262.792 128.19 265.792 125.69 267.875C123.19 269.958 120.336 271 117.127 271ZM125.94 253.625C127.773 253.625 129.023 252.854 129.69 251.312C130.357 249.771 130.69 248.104 130.69 246.312V220.188C127.607 221.438 125.211 223.021 123.502 224.938C121.794 226.812 120.94 229.583 120.94 233.25V245.312C120.94 250.854 122.607 253.625 125.94 253.625Z" fill="#1A1A1A"/>
<path d="M39.3691 320.156C38.5553 320.156 37.9336 319.967 37.5039 319.59C37.0807 319.212 36.791 318.695 36.6348 318.037C36.4785 317.38 36.4004 316.634 36.4004 315.801C36.4004 314.909 36.4883 314.18 36.6641 313.613C36.8398 313.04 37.1393 312.572 37.5625 312.207C37.9922 311.842 38.5814 311.533 39.3301 311.279L41.498 310.537V309.033C41.498 308.245 41.2409 307.852 40.7266 307.852C40.2578 307.852 40.0234 308.171 40.0234 308.809V309.688H36.625C36.6185 309.635 36.6152 309.57 36.6152 309.492C36.6152 309.408 36.6152 309.313 36.6152 309.209C36.6152 307.751 36.957 306.719 37.6406 306.113C38.3307 305.501 39.4212 305.195 40.9121 305.195C41.6934 305.195 42.3932 305.335 43.0117 305.615C43.6302 305.889 44.1185 306.296 44.4766 306.836C44.8411 307.376 45.0234 308.044 45.0234 308.838V320H41.5469V318.262C41.3776 318.874 41.0977 319.342 40.707 319.668C40.3164 319.993 39.8704 320.156 39.3691 320.156ZM40.7461 317.441C41.0326 317.441 41.2279 317.321 41.332 317.08C41.4362 316.839 41.4883 316.579 41.4883 316.299V312.217C41.0065 312.412 40.6322 312.66 40.3652 312.959C40.0983 313.252 39.9648 313.685 39.9648 314.258V316.143C39.9648 317.008 40.2253 317.441 40.7461 317.441ZM45.9711 320V305.352H49.4672V307.217C49.5974 306.657 49.8383 306.182 50.1898 305.791C50.5479 305.394 51.0427 305.195 51.6742 305.195C52.6898 305.195 53.4255 305.508 53.8813 306.133C54.3435 306.758 54.5746 307.614 54.5746 308.701V320H51.1273V309.062C51.1273 308.776 51.0688 308.512 50.9516 308.271C50.8344 308.024 50.6326 307.9 50.3461 307.9C50.0792 307.9 49.8806 307.995 49.7504 308.184C49.6267 308.366 49.5486 308.597 49.516 308.877C49.4835 309.15 49.4672 309.424 49.4672 309.697V320H45.9711ZM58.5594 320.156C57.6154 320.156 56.9773 319.958 56.6453 319.561C56.3198 319.157 56.157 318.542 56.157 317.715V308.584H55.1707V305.918H56.157V302.812H59.5555V305.918H60.5418V308.584H59.5555V316.895C59.5555 317.135 59.5945 317.305 59.6727 317.402C59.7508 317.5 59.9005 317.549 60.1219 317.549C60.2781 317.549 60.4181 317.536 60.5418 317.51V319.893C60.4637 319.919 60.2195 319.967 59.8094 320.039C59.3992 320.117 58.9826 320.156 58.5594 320.156ZM65.5227 320.156C62.606 320.156 61.1477 318.643 61.1477 315.615V309.736C61.1477 308.356 61.535 307.256 62.3098 306.436C63.0845 305.609 64.1555 305.195 65.5227 305.195C66.8964 305.195 67.9706 305.609 68.7453 306.436C69.5201 307.256 69.9074 308.356 69.9074 309.736V315.615C69.9074 318.643 68.4458 320.156 65.5227 320.156ZM65.5227 317.461C65.8156 317.461 66.024 317.357 66.1477 317.148C66.2779 316.934 66.343 316.663 66.343 316.338V309.18C66.343 308.327 66.0695 307.9 65.5227 307.9C64.9758 307.9 64.7023 308.327 64.7023 309.18V316.338C64.7023 316.663 64.7642 316.934 64.8879 317.148C65.0181 317.357 65.2297 317.461 65.5227 317.461ZM70.8063 320V305.352H74.3023V307.217C74.4326 306.657 74.6734 306.182 75.025 305.791C75.3831 305.394 75.8779 305.195 76.5094 305.195C77.525 305.195 78.2607 305.508 78.7164 306.133C79.1786 306.758 79.4098 307.614 79.4098 308.701V320H75.9625V309.062C75.9625 308.776 75.9039 308.512 75.7867 308.271C75.6695 308.024 75.4677 307.9 75.1813 307.9C74.9143 307.9 74.7158 307.995 74.5855 308.184C74.4619 308.366 74.3837 308.597 74.3512 308.877C74.3186 309.15 74.3023 309.424 74.3023 309.697V320H70.8063ZM84.6742 320V305.352H88.2289V306.982C88.3982 306.416 88.6977 305.973 89.1273 305.654C89.557 305.335 90.0974 305.176 90.7484 305.176V308.096C90.462 308.096 90.1202 308.128 89.723 308.193C89.3259 308.252 88.9776 308.337 88.6781 308.447C88.3786 308.551 88.2289 308.669 88.2289 308.799V320H84.6742ZM95.3094 320.156C94.2677 320.156 93.4376 319.961 92.8191 319.57C92.2007 319.18 91.7579 318.617 91.491 317.881C91.2241 317.145 91.0906 316.26 91.0906 315.225V309.336C91.0906 307.975 91.4813 306.947 92.2625 306.25C93.0438 305.547 94.118 305.195 95.4852 305.195C98.2977 305.195 99.7039 306.576 99.7039 309.336V310.4C99.7039 311.689 99.6909 312.555 99.6648 312.998H94.5867V315.83C94.5867 316.09 94.603 316.348 94.6355 316.602C94.6681 316.849 94.7397 317.054 94.8504 317.217C94.9676 317.38 95.1531 317.461 95.407 317.461C95.7716 317.461 95.9995 317.305 96.0906 316.992C96.1818 316.673 96.2273 316.26 96.2273 315.752V314.346H99.7039V315.176C99.7039 316.27 99.5672 317.188 99.2938 317.93C99.0268 318.665 98.5711 319.222 97.9266 319.6C97.2885 319.971 96.4161 320.156 95.3094 320.156ZM94.5672 311.26H96.2273V309.287C96.2273 308.76 96.1622 308.382 96.032 308.154C95.9018 307.92 95.7065 307.803 95.4461 307.803C95.1661 307.803 94.948 307.913 94.7918 308.135C94.6421 308.356 94.5672 308.74 94.5672 309.287V311.26ZM104.519 322.539C103.842 322.539 103.259 322.503 102.771 322.432C102.289 322.367 101.856 322.246 101.472 322.07C101.088 321.895 100.704 321.647 100.32 321.328L101.501 319.307C102.354 319.814 103.207 320.068 104.06 320.068C104.62 320.068 105.036 319.889 105.31 319.531C105.583 319.173 105.72 318.708 105.72 318.135V316.699C105.44 317.702 104.695 318.203 103.484 318.203C102.787 318.203 102.224 318.037 101.794 317.705C101.364 317.373 101.052 316.924 100.857 316.357C100.661 315.791 100.564 315.16 100.564 314.463V309.199C100.564 308.411 100.648 307.718 100.818 307.119C100.987 306.514 101.283 306.042 101.706 305.703C102.129 305.365 102.722 305.195 103.484 305.195C104.128 305.195 104.629 305.358 104.987 305.684C105.352 306.009 105.596 306.449 105.72 307.002V305.352H109.284V317.91C109.284 319.57 108.9 320.755 108.132 321.465C107.37 322.181 106.166 322.539 104.519 322.539ZM104.9 315.566C105.446 315.566 105.72 315.072 105.72 314.082V309.102C105.72 308.835 105.642 308.561 105.486 308.281C105.336 308.001 105.127 307.861 104.861 307.861C104.522 307.861 104.31 307.988 104.226 308.242C104.141 308.49 104.099 308.776 104.099 309.102V314.082C104.099 314.434 104.141 314.769 104.226 315.088C104.317 315.407 104.542 315.566 104.9 315.566ZM113.074 320.156C112.293 320.156 111.694 319.993 111.277 319.668C110.867 319.342 110.587 318.89 110.437 318.311C110.287 317.725 110.213 317.041 110.213 316.26V305.352H113.728V315.85C113.728 316.436 113.774 316.846 113.865 317.08C113.956 317.308 114.171 317.422 114.509 317.422C114.874 317.422 115.102 317.259 115.193 316.934C115.291 316.608 115.339 316.188 115.339 315.674V305.352H118.826V320H115.33V318.438C115.108 318.997 114.841 319.424 114.529 319.717C114.223 320.01 113.738 320.156 113.074 320.156ZM119.832 320V302.812H123.387V320H119.832ZM127.059 320.156C126.245 320.156 125.623 319.967 125.194 319.59C124.771 319.212 124.481 318.695 124.325 318.037C124.168 317.38 124.09 316.634 124.09 315.801C124.09 314.909 124.178 314.18 124.354 313.613C124.53 313.04 124.829 312.572 125.252 312.207C125.682 311.842 126.271 311.533 127.02 311.279L129.188 310.537V309.033C129.188 308.245 128.931 307.852 128.416 307.852C127.948 307.852 127.713 308.171 127.713 308.809V309.688H124.315C124.308 309.635 124.305 309.57 124.305 309.492C124.305 309.408 124.305 309.313 124.305 309.209C124.305 307.751 124.647 306.719 125.33 306.113C126.021 305.501 127.111 305.195 128.602 305.195C129.383 305.195 130.083 305.335 130.702 305.615C131.32 305.889 131.808 306.296 132.166 306.836C132.531 307.376 132.713 308.044 132.713 308.838V320H129.237V318.262C129.067 318.874 128.787 319.342 128.397 319.668C128.006 319.993 127.56 320.156 127.059 320.156ZM128.436 317.441C128.722 317.441 128.918 317.321 129.022 317.08C129.126 316.839 129.178 316.579 129.178 316.299V312.217C128.696 312.412 128.322 312.66 128.055 312.959C127.788 313.252 127.655 313.685 127.655 314.258V316.143C127.655 317.008 127.915 317.441 128.436 317.441ZM133.661 320V305.352H137.216V306.982C137.385 306.416 137.684 305.973 138.114 305.654C138.544 305.335 139.084 305.176 139.735 305.176V308.096C139.449 308.096 139.107 308.128 138.71 308.193C138.313 308.252 137.964 308.337 137.665 308.447C137.365 308.551 137.216 308.669 137.216 308.799V320H133.661Z" fill="#1A1A1A"/>
</svg>
