<svg width="187" height="177" viewBox="0 0 187 177" fill="none" xmlns="http://www.w3.org/2000/svg">
<path d="M81.1656 110.098C92.1192 110.098 101.945 106.393 102.433 106.209C102.797 106.069 102.981 105.661 102.841 105.297L99.9724 97.7838C99.8324 97.4198 99.4243 97.2357 99.0562 97.3757C98.9362 97.4197 87.0105 101.888 76.333 100.308C70.8802 99.5001 66.2075 95.5075 64.1352 89.8786C61.7628 83.4257 63.7151 77.3688 66.1115 71.2159C67.4917 67.6754 69.1719 64.2949 71.1122 61.1664C71.3202 60.8344 71.2162 60.3983 70.8841 60.1903C70.5521 59.9823 70.116 60.0863 69.908 60.4183C67.9237 63.6188 66.2034 67.0793 64.7912 70.6998C62.2909 77.1128 60.2586 83.4457 62.803 90.3667C65.0513 96.4796 70.1561 100.824 76.1209 101.708C85.7383 103.129 96.1838 99.8641 98.8882 98.936L101.253 105.133C98.3282 106.161 86.4985 109.942 75.1488 108.265C64.5473 106.697 55.6339 96.9557 54.8618 86.0861C54.4377 80.1252 56.298 73.8883 58.1743 68.5715C60.1905 62.8507 63.039 57.5419 66.6315 52.7812C66.8676 52.4691 66.8075 52.0251 66.4915 51.7891C66.1794 51.553 65.7354 51.613 65.4994 51.9291C61.8148 56.8018 58.9024 62.2426 56.8341 68.0995C54.9098 73.5523 53.0016 79.9652 53.4456 86.1861C54.2658 97.6918 63.7031 108.005 74.9368 109.666C77.0091 109.974 79.1014 110.102 81.1497 110.102L81.1656 110.098Z" fill="#1A1A1A"/>
<path d="M84.3021 42.9676C91.7752 46.3161 102.853 41.4074 109.67 30.9058C117.395 19.0081 116.659 4.91003 107.157 0.969449C97.768 -2.92312 85.1343 5.35007 79.5334 17.8519C74.5767 28.9135 76.905 39.6511 84.3061 42.9676H84.3021Z" fill="#E47249"/>
<path d="M85.058 34.9665C84.866 35.1145 80.3573 40.5473 75.5046 46.4242C75.8807 46.5522 76.2608 46.7162 76.6368 46.9122C76.7768 46.9843 76.9128 47.0603 77.0528 47.1443C78.0169 47.7164 78.8931 48.4405 79.6812 49.2566C84.5379 43.1037 89.0306 37.3949 89.0306 37.2949C88.7106 37.4509 85.058 34.9665 85.058 34.9665Z" fill="#E47249"/>
<path d="M63.3828 61.1423L67.7154 64.3707C67.7154 64.3707 68.7916 63.0106 70.4718 60.8943C69.5237 59.7741 68.4315 58.3459 67.1913 56.5096C64.927 59.266 63.3828 61.1423 63.3828 61.1423Z" fill="#E47249"/>
<path d="M75.6089 65.5509C75.9129 65.5509 76.137 65.4789 76.293 65.3989C77.1331 65.0708 77.4611 64.4907 77.5852 64.0546C77.7252 63.5626 77.6732 63.0265 77.5332 62.5184L77.9052 62.7305C77.9572 62.7585 78.0092 62.7825 78.0652 62.7985C79.4094 63.1746 80.4216 63.0345 81.0697 62.3784C81.6858 61.7503 81.7658 60.8342 81.7098 60.1261C83.226 60.2141 84.2381 59.742 84.6942 58.7299C85.3063 57.3657 84.5622 55.7054 84.1621 54.8133C82.9699 52.1609 80.8337 48.5684 77.4252 46.5481C77.2772 46.4601 77.1251 46.3761 76.9731 46.2961C73.3525 44.3918 69.648 45.2079 67.3077 48.4204C66.5596 49.4445 65.9235 50.6927 65.4154 52.1209C65.4034 52.1609 65.3714 52.2289 65.3354 52.3169C64.8633 53.4611 64.7113 54.0092 64.9833 54.4413C71.0442 63.9947 74.2007 65.5549 75.6129 65.5549L75.6089 65.5509ZM75.6889 64.1147C75.5049 64.1387 72.9365 64.2947 66.2795 53.8412C66.3235 53.6612 66.4436 53.3291 66.6396 52.853C66.6876 52.733 66.7276 52.637 66.7476 52.585C67.2077 51.2848 67.7798 50.1606 68.4479 49.2445C70.3762 46.6041 73.3126 45.964 76.309 47.5403C76.437 47.6083 76.565 47.6802 76.693 47.7563C79.7855 49.5885 81.7538 52.917 82.8619 55.3854C83.15 56.0255 83.7461 57.3577 83.394 58.1418C83.302 58.3458 83.0219 58.9699 80.9656 58.6099C80.7296 58.5698 80.4776 58.6539 80.3136 58.8379C80.1496 59.0219 80.0935 59.274 80.1655 59.51C80.2935 59.9501 80.4376 60.9942 80.0535 61.3823C79.8135 61.6263 79.2735 61.6503 78.5253 61.4543L76.1689 60.1141C75.8769 59.9461 75.5089 60.0101 75.2848 60.2661C75.0648 60.5181 75.0528 60.8942 75.2568 61.1622C75.6569 61.6863 76.421 62.9825 76.221 63.6626C76.181 63.7946 76.093 63.9587 75.745 64.0907C75.7249 64.0987 75.7049 64.1067 75.6889 64.1147Z" fill="#1A1A1A"/>
<path d="M80.1693 59.53L80.8455 59.31L81.4935 59.0259L80.8455 59.306L81.4775 58.9859C80.9014 57.5937 78.6771 52.849 74.3125 50.3367C73.9724 50.1406 73.5404 50.2567 73.3444 50.5967C73.1484 50.9368 73.2643 51.3688 73.6044 51.5648C77.581 53.8532 79.6332 58.2378 80.1693 59.526V59.53Z" fill="#1A1A1A"/>
<path d="M76.905 63.6426C77.037 63.6426 77.169 63.6066 77.289 63.5306C77.6091 63.3266 77.7051 62.9105 77.5211 62.5865L77.4491 62.4384C76.0329 59.622 73.2645 54.6813 70.6041 53.2411C70.26 53.0531 69.832 53.1811 69.644 53.5251C69.4559 53.8692 69.584 54.2972 69.928 54.4853C71.6202 55.4054 73.9005 58.5339 76.1849 63.0745C76.2569 63.2185 76.3049 63.3026 76.3129 63.3186C76.4489 63.5306 76.677 63.6426 76.909 63.6426H76.905Z" fill="#1A1A1A"/>
<path d="M180.244 153.488C180.304 153.488 180.364 153.48 180.424 153.464L181.28 153.236C183.577 152.628 185.337 151.087 186.229 148.903C188.557 143.186 184.329 133.977 176.692 121.007C179.496 119.427 182.661 117.17 183.201 114.822C183.397 113.97 183.229 113.142 182.717 112.426C182.689 112.386 182.653 112.346 182.617 112.314C182.553 112.258 181.973 111.758 180.96 111.838C180.596 111.866 180.228 111.958 179.852 112.122C180.72 110.237 181.444 108.061 180.96 106.757C180.764 106.229 180.392 105.845 179.88 105.645C179.604 105.465 179.164 105.329 178.636 105.433C178.288 105.505 177.94 105.665 177.596 105.925C178.072 103.856 178.284 101.72 177.58 100.528C177.264 99.9959 176.784 99.6559 176.184 99.5439C175.559 99.2678 174.867 99.2998 174.219 99.6479C171.823 100.932 170.031 106.457 168.891 116.078C168.891 116.078 168.743 116.734 168.218 117.47C166.694 119.595 166.506 122.335 167.734 124.448L167.806 124.568C173.923 134.845 176.26 140.246 177.076 143.078C171.987 141.686 162.354 138.578 148.8 132.177C148.628 132.097 148.436 132.089 148.26 132.149C148.084 132.213 147.94 132.345 147.86 132.513L144.427 139.786C144.259 140.138 144.411 140.562 144.763 140.73C166.862 151.179 179.14 153.304 179.264 153.324L180.128 153.48C180.168 153.488 180.212 153.492 180.252 153.492L180.244 153.488ZM181.624 113.346C181.856 113.706 181.916 114.078 181.816 114.506C181.468 116.03 179.056 118.127 175.371 120.115C175.203 120.207 175.075 120.363 175.023 120.547C174.971 120.731 174.999 120.931 175.095 121.095C182.533 133.669 187.049 143.114 184.913 148.363C184.189 150.127 182.769 151.368 180.912 151.864L180.208 152.052L179.492 151.924C179.364 151.904 167.514 149.851 145.999 139.746L148.828 133.753C163.238 140.514 173.179 143.538 177.86 144.751C178.092 144.811 178.344 144.75 178.52 144.582C178.696 144.418 178.776 144.17 178.732 143.934C178.248 141.406 176.172 135.865 169.015 123.839L168.975 123.771C167.986 122.075 168.146 119.991 169.363 118.295C170.087 117.286 170.267 116.39 170.287 116.294C171.763 103.829 173.991 101.376 174.883 100.9C175.291 100.684 175.544 100.812 175.64 100.86C175.712 100.896 175.792 100.92 175.868 100.932C176.092 100.964 176.236 101.06 176.356 101.256C177.116 102.536 176.156 106.541 174.863 109.941C174.727 110.297 174.899 110.698 175.252 110.846C175.604 110.994 176.008 110.838 176.168 110.489C177.536 107.521 178.496 106.949 178.848 106.841C179.024 106.789 179.096 106.829 179.104 106.833C179.18 106.901 179.224 106.921 179.32 106.949C179.48 107.001 179.568 107.085 179.628 107.249C180.064 108.425 178.596 111.842 176.916 114.606C176.724 114.922 176.808 115.338 177.112 115.55C177.412 115.762 177.832 115.71 178.068 115.422C179.552 113.614 180.58 113.286 181.06 113.25C181.348 113.226 181.544 113.306 181.624 113.346Z" fill="#1A1A1A"/>
<path d="M12.7674 147.983L14.7357 152.388L54.3255 134.865C60.8265 131.989 68.1275 131.373 75.3526 133.045C75.5006 133.081 75.6567 133.117 75.8047 133.157C77.2489 133.497 78.6811 133.929 80.1093 134.461C80.2093 134.509 80.3093 134.545 80.4013 134.573C80.4374 134.593 80.4654 134.593 80.5014 134.609C84.65 136.217 90.5588 139.454 96.2797 142.858C97.1638 143.391 98.072 143.923 98.9361 144.451L101.668 145.811H101.676L109.926 146.931L110.138 146.975H110.146C110.514 146.847 110.874 146.683 111.238 146.495C110.458 145.987 109.63 145.447 108.765 144.887H108.75C108.714 144.871 108.701 144.859 108.673 144.843C106.129 143.199 103.265 141.43 100.352 139.71C99.2122 139.03 98.056 138.358 96.9238 137.698C95.6276 136.946 94.3474 136.217 93.0992 135.525C91.2029 134.461 89.3827 133.501 87.7104 132.649C85.8422 131.701 84.1699 130.909 82.7657 130.349C82.6896 130.301 82.6256 130.285 82.5616 130.249C82.4136 130.185 82.2696 130.137 82.1216 130.073C80.8054 129.576 79.4732 129.124 78.133 128.768C78.057 128.752 77.969 128.72 77.893 128.704C75.6046 128.08 73.2603 127.664 70.9599 127.452C70.0878 127.376 69.2237 127.324 68.3675 127.312C68.1915 126.504 67.6115 125.556 66.8114 125.364C65.7352 125.088 64.319 125.428 63.943 126.604C63.851 126.896 63.8509 127.176 63.8989 127.468C59.9063 127.808 56.0297 128.82 52.3612 130.449L52.2332 130.493L12.7634 147.987L12.7674 147.983Z" fill="#1A1A1A"/>
<path d="M20.7287 141.146C20.9647 140.946 24.5452 150.527 24.5452 150.527L10.5952 155.476L7.89477 151.668L11.9274 149.127C9.74707 148.835 7.53874 148.255 5.51444 147.395C4.31026 146.883 3.05002 146.231 2.15789 145.247C1.18175 144.171 0.441715 142.734 0.133669 141.314C-0.114367 140.174 -0.0384464 138.93 0.541639 137.918C1.48578 136.269 3.6261 135.489 5.45437 135.677C6.82657 135.821 8.1028 136.513 8.99894 137.558C9.67504 138.346 10.0831 139.302 10.6992 140.13C11.4993 141.206 12.5915 142.03 13.8317 142.534C15.868 143.362 18.1563 143.106 19.9286 141.786C20.1926 141.59 20.4566 141.378 20.7287 141.146Z" fill="#1A1A1A"/>
<path d="M74.5205 115.718C75.9727 119.443 78.4011 121.647 82.0976 122.171C85.2981 122.639 89.4508 121.851 94.7515 119.715C96.8398 118.871 99.1121 117.823 101.572 116.555C104.393 115.102 107.253 113.29 110.066 111.398C107.933 114.018 105.889 116.695 104.201 119.371C102.829 121.559 101.652 123.6 100.68 125.496C99.7882 127.224 99.0601 128.832 98.484 130.333C97.4159 133.157 96.9038 135.601 96.9198 137.698C96.9478 141.35 98.584 143.971 101.664 145.815H101.672C102.013 146.019 102.365 146.211 102.737 146.395C105.393 147.563 107.841 147.803 110.138 146.975H110.146C110.514 146.847 110.874 146.683 111.238 146.495C112.202 146.007 113.134 145.307 114.042 144.399C117.095 141.362 119.863 135.969 122.456 127.86C123.428 124.836 124.164 121.527 124.816 118.199C125.164 121.563 125.608 124.904 126.316 127.992C130.297 145.443 136.046 150.988 144.391 148.139C152.6 144.939 153.42 136.993 145.219 121.087C143.767 118.267 141.962 115.406 140.062 112.594C142.682 114.726 145.359 116.771 148.043 118.459C163.194 127.976 171.179 127.836 175.063 119.923C178.612 111.862 173.575 105.661 156.529 100.208C153.504 99.236 150.196 98.4999 146.867 97.8518C150.232 97.5037 153.572 97.0596 156.661 96.3515C174.111 92.371 179.656 86.6221 176.808 78.2769C173.615 70.0677 165.662 69.2476 149.756 77.4488C146.935 78.901 144.083 80.7052 141.27 82.5975C143.395 79.9851 145.443 77.3087 147.127 74.6243C156.645 59.4741 156.505 51.489 148.599 47.6004C140.534 44.0599 134.329 49.0966 128.876 66.1431C127.912 69.1675 127.168 72.468 126.516 75.7965C126.168 72.44 125.724 69.0955 125.016 66.011C121.035 48.5605 115.287 43.0157 106.949 45.8641C98.7401 49.0566 97.912 57.0057 106.113 72.9161C107.565 75.7365 109.378 78.5969 111.27 81.4093C108.649 79.277 105.973 77.2327 103.289 75.5445C88.1385 66.0271 80.1533 66.1671 76.2687 74.0722C72.7202 82.1374 77.765 88.3424 94.8035 93.7952C97.8279 94.7593 101.136 95.5034 104.469 96.1555C101.104 96.5036 97.7559 96.9476 94.6674 97.6557C77.2169 101.636 71.6721 107.385 74.5205 115.722V115.718Z" fill="#E47249"/>
<path d="M113.966 107.345C114.975 107.345 115.951 106.877 116.747 106.005C117.579 105.093 118.119 103.829 118.267 102.444C118.583 99.5079 117.011 96.9275 114.763 96.6835C112.506 96.4394 110.426 98.6317 110.11 101.568C109.962 102.948 110.218 104.301 110.838 105.369C111.498 106.509 112.486 107.205 113.614 107.329C113.73 107.341 113.85 107.349 113.966 107.349V107.345ZM114.423 98.0837C114.487 98.0837 114.547 98.0837 114.611 98.0917C116.059 98.2477 117.087 100.172 116.859 102.292C116.743 103.376 116.331 104.357 115.699 105.049C115.123 105.681 114.435 105.989 113.766 105.917C113.094 105.845 112.49 105.397 112.062 104.657C111.594 103.845 111.398 102.8 111.514 101.716C111.73 99.6879 113.038 98.0797 114.419 98.0797L114.423 98.0837Z" fill="#1A1A1A"/>
<path d="M133.181 85.0138C130.625 88.0182 131.449 92.9189 135.029 95.9634C135.766 96.5915 136.562 97.0875 137.386 97.4596C140.554 98.8878 144.103 98.4158 146.131 96.0314C148.687 93.027 147.863 88.1222 144.291 85.0818C143.367 84.2937 142.355 83.7176 141.31 83.3295C138.31 82.2214 135.081 82.7855 133.185 85.0178L133.181 85.0138Z" fill="#EFEBE7"/>
<path d="M133.181 85.0138C130.625 88.0183 131.449 92.919 135.029 95.9634C135.765 96.5915 136.562 97.0876 137.386 97.4597L141.306 83.3296C138.306 82.2214 135.077 82.7855 133.181 85.0178V85.0138Z" fill="#1A1A1A"/>
<path d="M115.002 69.5474C112.446 72.5519 113.27 77.4526 116.851 80.497C117.587 81.1251 118.383 81.6212 119.207 81.9933C122.376 83.4215 125.924 82.9494 127.952 80.565C130.509 77.5606 129.685 72.6559 126.112 69.6154C125.188 68.8313 124.176 68.2512 123.132 67.8632C120.131 66.755 116.903 67.3191 115.006 69.5514L115.002 69.5474Z" fill="#EFEBE7"/>
<path d="M115.003 69.5474C112.446 72.5519 113.27 77.4526 116.851 80.497C117.587 81.1251 118.383 81.6212 119.207 81.9933L123.128 67.8632C120.127 66.755 116.899 67.3191 115.003 69.5514V69.5474Z" fill="#1A1A1A"/>
<path d="M76.4209 47.6084C76.5409 47.6084 76.6609 47.5764 76.7689 47.5164C77.005 47.3844 77.141 47.1324 77.129 46.8603C77.065 45.6761 76.941 44.516 76.805 43.3358L76.7849 43.1798C76.6049 41.6436 76.4209 40.0553 76.0449 38.5031C75.8609 37.711 75.4248 35.8507 74.0166 35.3186C73.8805 35.2746 73.7885 35.2506 73.6965 35.2346C73.0124 35.1026 72.2083 35.4307 71.5322 36.1428C69.812 37.971 69.5718 40.9074 70.856 44.408L70.8961 44.532C70.9321 44.636 70.9641 44.744 71.0081 44.8481C71.0921 45.0801 71.1841 45.3241 71.2801 45.5761C71.3841 45.8482 71.6442 46.0282 71.9323 46.0322C72.9684 46.0442 74.0126 46.3283 75.0447 46.8723C75.1688 46.9403 75.2928 47.0084 75.4208 47.0884C75.6368 47.2164 75.8288 47.3444 76.0249 47.4764C76.1449 47.5564 76.2849 47.6005 76.4209 47.6005V47.6084ZM73.3964 36.6308C73.4205 36.6308 73.4404 36.6308 73.4604 36.6348L73.5485 36.6588C74.2246 36.9149 74.5606 38.3591 74.6726 38.8352C75.0287 40.3074 75.2087 41.8516 75.3847 43.3478L75.4048 43.4999C75.4848 44.2 75.5608 44.8921 75.6208 45.5842C74.5766 45.0481 73.5125 44.732 72.4444 44.648C72.4083 44.552 72.3763 44.46 72.3403 44.36C72.3003 44.2599 72.2763 44.18 72.2483 44.1L72.1963 43.9399C71.5602 42.2077 70.768 39.0352 72.5683 37.1229C72.8563 36.8189 73.1804 36.6308 73.4005 36.6308H73.3964Z" fill="#1A1A1A"/>
<path d="M60.2146 161.929L64.4433 164.245L70.1881 153.792C70.7481 152.772 71.3002 151.76 71.8603 150.731C73.1005 148.431 74.3407 146.115 75.5768 143.811C75.8449 143.278 76.137 142.746 76.413 142.218C77.1691 140.786 77.9212 139.37 78.7013 137.954C79.0214 137.358 79.3374 136.765 79.6654 136.169C79.7134 136.077 79.7775 135.965 79.8295 135.865C80.0695 135.449 80.2896 135.029 80.5016 134.613C80.7296 134.197 80.9536 133.757 81.1737 133.337C81.4977 132.741 81.8058 132.149 82.1098 131.553C82.3379 131.149 82.5419 130.753 82.7699 130.349C82.9339 130.044 83.1099 129.74 83.274 129.428C83.806 128.48 84.3502 127.552 84.9102 126.644C85.5423 125.652 86.2144 124.684 86.9226 123.756C88.3388 121.919 89.2749 122.239 89.7909 122.415C90.9471 122.819 91.9953 123.604 93.0074 124.556C93.5395 125.036 94.0716 125.568 94.6157 126.112L94.9077 126.404C96.1119 127.616 97.3081 128.932 98.5002 130.332C99.0323 130.949 99.5484 131.581 100.072 132.229C103.233 136.201 106.029 140.478 108.686 144.843C108.75 144.935 108.794 145.035 108.862 145.127H108.878C109.234 145.727 109.586 146.339 109.942 146.931L110.162 146.975C111.514 146.495 112.81 145.643 114.058 144.399C110.962 139.202 107.658 134.025 103.845 129.22C102.805 127.916 101.757 126.672 100.701 125.496C99.9164 124.624 99.1284 123.788 98.3402 122.995L98.0482 122.703C97.0641 121.703 95.9998 120.635 94.7676 119.707C93.7635 118.943 92.6353 118.283 91.3551 117.843C90.599 117.579 89.5229 117.339 88.2947 117.503C88.0107 116.859 87.4946 116.262 86.8345 116.134C85.7504 115.906 84.3422 116.298 84.0141 117.487C83.9221 117.827 83.9501 118.183 84.0301 118.515C84.1141 118.819 84.2422 119.131 84.4182 119.387C84.1261 119.643 83.8381 119.931 83.5461 120.271C83.4061 120.435 83.254 120.611 83.114 120.803C82.7659 121.255 82.4339 121.711 82.1098 122.163C82.0938 122.191 82.0738 122.219 82.0538 122.247C80.6736 124.232 79.4815 126.32 78.3373 128.396C78.2733 128.524 78.2093 128.636 78.1453 128.764C77.8892 129.232 77.6292 129.712 77.3891 130.18C77.2331 130.485 77.0691 130.777 76.9091 131.081C76.553 131.777 76.185 132.469 75.8169 133.157C75.6809 133.397 75.5569 133.645 75.4289 133.865C75.2888 134.129 75.1608 134.369 75.0248 134.621C74.7048 135.189 74.4167 135.761 74.1127 136.329C73.3285 137.774 72.5484 139.242 71.7763 140.69C71.6363 140.974 71.4723 141.25 71.3283 141.538C70.1041 143.838 68.8639 146.143 67.6237 148.435C67.0796 149.435 66.5315 150.447 65.9674 151.46L60.2306 161.921L60.2146 161.929Z" fill="#1A1A1A"/>
<path d="M58.6303 156.944C58.6943 156.616 68.2516 162.357 68.2516 162.357L59.7064 176.043L54.8177 174.627L56.538 169.722C54.4776 170.95 52.2013 171.959 49.8929 172.599C48.5167 172.979 47.0005 173.279 45.5723 173.043C44.012 172.787 42.4038 172.063 41.1756 171.063C40.1915 170.258 39.4114 169.142 39.2194 167.886C38.9073 165.842 40.2035 163.717 41.8918 162.641C43.1599 161.829 44.7162 161.557 46.1924 161.841C47.3006 162.053 48.3007 162.593 49.3889 162.881C50.8011 163.257 52.2933 163.217 53.6935 162.805C55.9938 162.129 57.7701 160.357 58.3862 158.033C58.4782 157.689 58.5622 157.325 58.6343 156.944H58.6303Z" fill="#1A1A1A"/>
</svg>
