<svg width="175" height="157" viewBox="0 0 175 157" fill="none" xmlns="http://www.w3.org/2000/svg">
<path d="M135.058 111.245C133.823 113.468 132.488 115.634 131.069 117.75C119.69 121.769 106.245 118.471 98.3514 115.741C85.5339 111.298 72.0789 111.752 60.4698 117.029C40.8331 125.958 30.5825 144.4 26.2032 154.597C26.033 155.018 25.8427 155.458 25.5456 155.809C25.0316 155.969 24.5242 156.106 24.0269 156.183C10.365 158.639 3.98966 133.919 4.9009 133.061C15.8558 122.857 21.9908 138.992 24.3774 148.926C29.0871 139.29 37.7622 125.758 52.1485 116.912C52.1251 116.859 52.1085 116.789 52.0851 116.735C52.0016 116.482 51.9783 116.185 52.015 115.891C52.0317 115.721 52.0684 115.544 52.1385 115.37C52.2687 114.98 52.529 114.613 52.8595 114.372C53.7039 113.788 54.6319 114.412 54.9823 115.287C56.2174 114.603 57.4925 113.958 58.8109 113.368C71.3613 107.667 85.8677 107.152 99.6698 111.942C108.332 114.943 124.193 118.725 135.058 111.245Z" fill="#1A1A1A"/>
<path d="M174.228 89.8789C174.228 89.8789 170.122 105.891 159.945 90.9671L157.919 88.7642C153.123 98.3305 147.592 105.02 143.68 109.045C145.299 105.57 146.617 101.972 147.421 98.2738C149.955 94.8057 152.602 90.5866 155.008 85.5998C155.376 84.8621 155.723 84.1212 156.053 83.3434C156.811 83.3735 157.665 83.4035 158.593 83.4803C163.533 83.8708 170.459 85.2426 174.228 89.8856V89.8789Z" fill="#1A1A1A"/>
<path d="M22.7751 102.573C21.727 102.573 20.6656 102.489 19.6175 102.329C19.5941 102.329 19.5708 102.329 19.5541 102.323C16.6568 101.882 13.9231 100.837 11.433 99.215C6.40951 95.9472 3.03492 90.65 2.17709 84.6819C1.16237 77.6824 1.96679 69.0073 2.96148 63.7067C3.01822 63.403 3.29862 63.1927 3.60571 63.2294C3.91279 63.2628 4.14309 63.5264 4.13308 63.8335C4.11639 64.411 4.17648 64.8917 4.22989 65.1954C4.25993 65.369 4.36005 65.5158 4.50692 65.606C4.58369 65.6527 4.74392 65.7228 4.94086 65.6593C4.9709 65.6493 5.00425 65.6394 5.04097 65.6227C5.15446 65.5793 5.23793 65.5358 5.31804 65.4924C5.52832 65.3756 5.76195 65.2154 5.99894 65.0185C6.05902 64.9684 6.11577 64.9184 6.17585 64.865L6.27935 64.7715C7.26068 63.8669 8.05509 62.6386 8.06176 62.6253C8.2153 62.3849 8.51906 62.2882 8.7861 62.3983C9.04979 62.5085 9.19663 62.7888 9.13655 63.0691C9.07313 63.3529 9.02976 63.6266 8.99638 63.8803C8.95299 64.2375 8.94295 64.5712 8.96965 64.8382C8.96965 64.8583 8.96965 64.905 8.96965 64.925C9.00637 65.4991 9.16325 66.0299 9.42694 66.4672C9.55044 66.6708 9.7307 66.7375 9.85754 66.7575C10.178 66.8076 10.3983 67.108 10.3482 67.4284C9.72402 71.5974 9.15325 77.7792 9.98104 83.5604C10.5251 87.2788 12.6213 90.5733 15.7322 92.5961C18.8331 94.6188 22.6783 95.2029 26.2832 94.2015C27.7953 93.7876 29.324 93.2736 30.8261 92.6795C37.7088 89.9725 43.2029 85.8736 47.1583 80.4862C47.1917 80.4395 47.2351 80.3961 47.2818 80.3627L52.8126 76.2438C52.9895 76.1103 53.2266 76.0902 53.4268 76.187L57.1185 78.0029C57.4122 78.1464 57.5324 78.5002 57.3889 78.7939C53.3701 87.0017 47.0481 93.3937 38.6067 97.7964C35.4724 99.4286 32.041 100.777 28.4028 101.802C26.5836 102.313 24.6877 102.573 22.7651 102.573H22.7751ZM19.6976 101.151C19.721 101.151 19.7476 101.151 19.7643 101.158C22.5748 101.598 25.4321 101.415 28.0924 100.664C31.6539 99.6623 35.0118 98.3439 38.0726 96.7483C46.1035 92.5593 52.1584 86.5244 56.0771 78.8039L53.2399 77.4121L48.0695 81.2606C43.9806 86.7914 38.3296 91.0038 31.27 93.7809C29.7279 94.3918 28.1591 94.9192 26.607 95.3431C22.6783 96.4346 18.4792 95.7971 15.0946 93.5907C11.6967 91.3811 9.41027 87.7895 8.81612 83.734C7.99834 78.0329 8.50571 71.9779 9.1132 67.7422C8.83282 67.5953 8.59581 67.3717 8.42224 67.088C8.05507 66.4805 7.84144 65.7695 7.79137 64.9651C7.79137 64.9551 7.79137 64.9317 7.79137 64.9117C7.57107 65.162 7.32744 65.4124 7.07042 65.6494L6.96693 65.7428C6.8935 65.8062 6.82339 65.8696 6.74996 65.9297C6.45623 66.1701 6.1625 66.3703 5.88212 66.5272C5.75194 66.5973 5.62175 66.6607 5.49492 66.7108C5.45152 66.7308 5.38145 66.7542 5.31136 66.7776C4.83404 66.9311 4.32335 66.8677 3.89944 66.6107C3.83268 66.5706 3.7659 66.5239 3.70582 66.4738C2.95146 71.6542 2.50754 78.6805 3.35203 84.5084C4.15979 90.1394 7.34413 95.1361 12.0839 98.2203C14.4238 99.7424 16.9872 100.727 19.7043 101.144L19.6976 101.151Z" fill="#1A1A1A"/>
<path d="M3.71932 61.3702C3.44896 61.3702 3.2053 61.1833 3.14188 60.9095C3.06845 60.5925 3.26871 60.2754 3.58914 60.202C5.97572 59.6646 8.3356 58.3294 9.05324 57.6151C9.59732 57.0744 9.36034 56.3701 9.27689 56.1664C9.08664 55.7158 8.64268 55.1985 7.91836 55.1985C6.8736 55.2085 5.21802 55.5189 4.87756 55.6324C4.69064 55.7459 4.44697 55.7492 4.25004 55.6224C3.97633 55.4455 3.89625 55.0784 4.07316 54.8046C4.45701 54.2138 7.87165 54.0169 7.90503 54.0135C8.94645 53.9868 9.93112 54.6678 10.365 55.7092C10.7789 56.6972 10.5953 57.7486 9.88771 58.4529C8.9264 59.4109 6.3429 60.7928 3.84951 61.3569C3.80611 61.3669 3.76272 61.3702 3.71932 61.3702Z" fill="#1A1A1A"/>
<path d="M5.59179 66.604C5.3815 66.604 5.17791 66.4905 5.0711 66.2969C4.91756 66.0132 5.02101 65.656 5.30139 65.4991C5.52169 65.3756 5.75533 65.2154 5.99566 65.0218C6.246 64.8149 6.61654 64.8516 6.82348 65.1019C7.03043 65.3523 6.99702 65.7228 6.74668 65.9331C6.44961 66.1834 6.15257 66.387 5.86551 66.5406C5.77873 66.5873 5.68191 66.6107 5.58845 66.6107L5.59179 66.604Z" fill="#1A1A1A"/>
<path d="M8.55916 63.5398C8.44568 63.5398 8.32885 63.5064 8.22538 63.4363C7.95501 63.2527 7.88827 62.8856 8.07185 62.6152C8.09521 62.5785 10.4618 59.1004 11.867 55.5756C11.7268 55.2051 11.3096 54.3206 10.4183 53.9668C9.47039 53.5896 8.21537 53.8799 6.68328 54.8279C6.40624 55.0015 6.04243 54.9147 5.86886 54.6377C5.69863 54.3607 5.78206 53.9968 6.0591 53.8232C7.93165 52.665 9.54718 52.3479 10.8623 52.8753C12.5546 53.5529 13.0419 55.3687 13.062 55.4454C13.092 55.5656 13.0853 55.6925 13.0419 55.806C11.5966 59.5277 9.14661 63.1292 9.04314 63.2828C8.92965 63.4497 8.74274 63.5398 8.55582 63.5398H8.55916Z" fill="#1A1A1A"/>
<path d="M9.9612 67.9491C9.85105 67.9491 9.73756 67.9391 9.62741 67.9191C9.12339 67.8256 8.69615 67.5285 8.42578 67.0879C8.13539 66.6173 7.85166 65.913 7.79492 64.9217C7.11066 65.686 6.2228 66.4871 5.30822 66.7842C4.84425 66.9344 4.33024 66.8777 3.90633 66.6207C3.46573 66.3536 3.16194 65.9097 3.07516 65.4024C2.92162 64.5045 2.80814 62.9723 3.41897 61.4937C2.52776 61.6272 1.40626 61.6472 0.695295 61.1199C0.368183 60.8795 -0.0156986 60.4189 0.00099077 59.5944C-0.00568498 59.4676 -0.112476 55.6824 5.82227 54.1036C5.87567 53.7965 5.95244 53.2692 6.02587 52.7585C6.99052 46.076 8.2589 39.8075 10.9426 39.1633C11.4566 38.9997 12.4913 38.9363 13.269 39.7073C14.3305 40.7621 14.4707 42.9618 13.693 46.2696C13.7831 46.1495 13.8732 46.0326 13.96 45.9192C14.7978 44.8277 15.709 43.8497 16.6637 43.0119C17.2345 42.5112 18.5763 41.3329 20.0917 41.8536C20.9529 42.1474 21.4135 42.8984 21.3567 43.9097C21.3167 44.6674 21.0329 45.3717 20.826 45.839C20.4488 46.6835 19.9615 47.5347 19.334 48.4426C17.7351 50.7658 15.8993 52.8386 14.4774 54.3874C14.2771 54.6077 14.0768 54.8246 13.8732 55.0416C13.97 55.0616 14.0635 55.0816 14.1569 55.1017C15.1316 55.332 15.8759 55.7492 16.3666 56.3433C16.9207 57.0109 17.1109 57.9455 16.894 58.9035C16.7104 59.7179 16.2931 60.4055 15.8893 61.0697L15.6756 61.4236C15.1149 62.3782 14.671 63.0992 14.237 63.7701C13.7397 64.5378 13.1355 65.4323 12.4479 66.2501C11.9873 66.7975 11.5434 67.2281 11.0894 67.5752C10.7623 67.8256 10.3651 67.9558 9.9612 67.9558V67.9491ZM8.55931 62.3582C8.63608 62.3582 8.71287 62.3715 8.7863 62.4015C9.04999 62.5117 9.19683 62.7954 9.13675 63.0758C8.74622 64.8482 9.08335 65.8997 9.43049 66.4671C9.52395 66.6207 9.67081 66.7208 9.84438 66.7541C10.028 66.7909 10.2183 66.7442 10.3751 66.624C10.759 66.3336 11.1395 65.9598 11.5434 65.4825C12.1876 64.7148 12.765 63.8569 13.2457 63.1192C13.6696 62.465 14.1069 61.754 14.6576 60.8161L14.8779 60.4489C15.2484 59.8381 15.5989 59.2607 15.7391 58.6332C15.8759 58.0323 15.7725 57.4682 15.4554 57.0877C15.1316 56.6971 14.6042 56.4134 13.8832 56.2432C13.5995 56.1764 13.2958 56.1297 12.982 56.1064C12.9653 56.1064 12.9286 56.0997 12.8818 56.093C12.8451 56.0897 12.7951 56.0796 12.7484 56.0763C12.5614 56.1197 12.3545 56.0696 12.2076 55.9294C11.9706 55.7058 11.9606 55.332 12.1876 55.095C12.6649 54.5943 13.1355 54.0903 13.6028 53.5829C14.9981 52.0642 16.7972 50.0281 18.356 47.7684C18.9401 46.9205 19.394 46.1295 19.7412 45.3517C20.0116 44.7509 20.1484 44.2703 20.1718 43.843C20.2085 43.1454 19.8413 43.0185 19.7011 42.9718C18.9368 42.7114 18.1624 43.2622 17.4347 43.8997C16.5402 44.6841 15.6823 45.6054 14.8912 46.6368C14.1836 47.558 13.3659 48.6362 12.6582 49.7276C12.4947 49.978 12.1742 50.0681 11.9072 49.938C11.6402 49.8078 11.51 49.5007 11.6034 49.2169C13.7597 42.7915 12.8985 41.0091 12.4312 40.5418C11.9539 40.0678 11.2964 40.2848 11.2897 40.2881C11.2697 40.2948 11.2496 40.3015 11.2263 40.3048C8.94316 40.8122 7.62471 49.9279 7.19079 52.922C6.89371 54.9748 6.8837 55.0549 6.43642 55.1617C1.15591 56.4401 1.17259 59.4509 1.17593 59.5777C1.16925 59.9549 1.28943 60.0884 1.3929 60.1652C1.94699 60.5757 3.4924 60.3455 4.41365 60.0517C4.65732 59.9716 4.92768 60.0617 5.07789 60.2754C5.22809 60.489 5.22144 60.7727 5.06122 60.9763C3.95638 62.405 4.06654 64.2341 4.23343 65.1954C4.26347 65.3656 4.3636 65.5158 4.51046 65.6026C4.58723 65.6493 4.74412 65.7161 4.93772 65.656C6.15938 65.2588 7.60802 63.3362 8.06197 62.6286C8.17212 62.455 8.36237 62.3582 8.55931 62.3582ZM13.0421 55.9094C13.0421 55.9094 13.0387 55.9127 13.0354 55.9161C13.0354 55.9161 13.0388 55.9127 13.0421 55.9094Z" fill="#1A1A1A"/>
<path d="M130.001 144.981C128.996 144.981 128.002 144.877 127.034 144.67C124.607 144.153 122.538 143.055 121.046 141.493C119.347 139.713 118.472 137.32 118.706 135.084C119.003 132.26 120.945 129.944 122.658 127.904L122.731 127.817C128.369 121.098 132.715 114.673 136.023 108.167C139.237 101.845 140.819 96.5514 140.999 91.4979C141.223 85.2561 139.007 79.4081 135.071 75.8499C134.754 75.5628 134.427 75.2891 134.1 75.0188C133.299 74.3478 132.468 73.6569 131.804 72.7857C130.896 71.5975 130.198 69.7382 130.969 68.0826C131.039 67.9358 131.166 67.8223 131.32 67.7689C131.476 67.7155 131.643 67.7322 131.787 67.809L137.074 70.6762C137.248 70.0887 137.211 69.4279 136.954 68.8771C136.844 68.6401 136.9 68.3564 137.097 68.1828C137.294 68.0092 137.585 67.9859 137.802 68.1261C144.965 72.6456 149.304 81.9783 148.86 91.9051C148.516 99.6156 145.679 107.67 139.935 117.25C136.32 123.281 132.164 129.042 127.581 134.376C127.414 134.573 127.257 134.79 127.131 135.01C126.994 135.247 126.58 136.045 126.98 136.326C127.177 136.462 127.541 136.436 127.838 136.396C130.181 136.079 132.434 134.89 134.013 133.131C134.127 133.004 134.24 132.874 134.35 132.744C134.788 132.233 135.242 131.703 135.862 131.322C136.727 130.795 138.025 130.668 138.836 131.456C139.487 132.09 139.634 133.198 139.187 134.156C138.943 134.68 138.579 135.104 138.196 135.478C138.486 135.758 138.71 136.122 138.843 136.536C139.01 137.057 139.017 137.591 138.863 138.068C139.327 138.555 139.714 139.306 139.718 139.316C139.945 139.957 140.018 140.872 139.544 141.516C138.733 142.621 136.917 143.355 135.716 143.842C133.87 144.593 131.91 144.971 129.981 144.971L130.001 144.981ZM131.857 69.2009C131.693 70.2323 132.191 71.3505 132.745 72.0748C133.329 72.8392 134.073 73.46 134.858 74.1175C135.198 74.4013 135.539 74.685 135.866 74.9821C140.055 78.7706 142.415 84.9623 142.181 91.5479C141.994 96.775 140.372 102.229 137.077 108.708C133.73 115.294 129.334 121.796 123.636 128.582L123.562 128.668C121.88 130.674 120.138 132.747 119.881 135.214C119.68 137.107 120.435 139.153 121.9 140.681C123.225 142.07 125.088 143.051 127.281 143.519C129.878 144.073 132.705 143.812 135.242 142.781C136.306 142.35 137.999 141.663 138.613 140.828C138.77 140.615 138.776 140.151 138.626 139.723C138.563 139.607 138.196 139.079 137.999 138.859C137.939 138.842 137.879 138.819 137.825 138.786C137.551 138.609 137.468 138.245 137.645 137.971C137.825 137.687 137.862 137.29 137.738 136.913C137.618 136.536 137.358 136.235 137.044 136.112C136.854 136.035 136.714 135.868 136.68 135.665C136.643 135.461 136.717 135.257 136.87 135.121C137.364 134.683 137.875 134.233 138.132 133.675C138.332 133.245 138.359 132.641 138.029 132.32C137.668 131.97 136.967 132.06 136.493 132.35C136.033 132.63 135.659 133.068 135.262 133.532C135.145 133.669 135.025 133.805 134.904 133.942C133.139 135.905 130.625 137.233 128.008 137.587C127.501 137.654 126.847 137.687 126.316 137.314C125.492 136.736 125.418 135.661 126.119 134.44C126.279 134.156 126.48 133.876 126.697 133.625C131.233 128.341 135.352 122.634 138.933 116.659C144.571 107.253 147.355 99.3786 147.688 91.8683C148.089 82.9262 144.467 74.5048 138.369 69.9619C138.369 70.6095 138.199 71.2537 137.868 71.8178C137.708 72.0915 137.358 72.1916 137.077 72.0381L131.86 69.2075L131.857 69.2009Z" fill="#1A1A1A"/>
<path d="M134.214 138.125C134.02 138.125 133.833 138.031 133.72 137.858C133.543 137.584 133.616 137.217 133.89 137.04L137.254 134.833C137.528 134.657 137.892 134.73 138.072 135.004C138.249 135.277 138.176 135.645 137.902 135.822L134.537 138.028C134.437 138.095 134.324 138.125 134.214 138.125Z" fill="#1A1A1A"/>
<path d="M134.514 140.538C134.29 140.538 134.073 140.408 133.976 140.191C133.843 139.894 133.973 139.543 134.27 139.41L137.935 137.744C138.236 137.607 138.583 137.741 138.716 138.038C138.85 138.335 138.72 138.685 138.423 138.819L134.761 140.484C134.681 140.521 134.597 140.538 134.517 140.538H134.514Z" fill="#1A1A1A"/>
<path d="M102.751 29.1296L90.6441 0L81.5651 23.8325L57.7326 14.7534L64.5419 37.4509L32.7654 38.5859L50.9234 59.0136L28.9802 73.3899L56.975 83.6037L43.7336 115.38L75.5135 96.8451L78.9182 122.19L96.3185 102.52L112.964 120.678L114.099 94.1948L136.797 99.8692L125.825 79.0643L150.796 69.9853L131.5 57.5016L148.526 28.3719L119.774 37.8282L125.825 7.56368L102.751 29.1296Z" fill="#EFB5D4"/>
<path d="M74.8294 47.6716C76.2617 47.6716 77.4229 46.5104 77.4229 45.078C77.4229 43.6457 76.2617 42.4845 74.8294 42.4845C73.397 42.4845 72.2358 43.6457 72.2358 45.078C72.2358 46.5104 73.397 47.6716 74.8294 47.6716Z" fill="#1A1A1A"/>
<path d="M108.662 47.6716C110.095 47.6716 111.256 46.5104 111.256 45.078C111.256 43.6457 110.095 42.4845 108.662 42.4845C107.23 42.4845 106.069 43.6457 106.069 45.078C106.069 46.5104 107.23 47.6716 108.662 47.6716Z" fill="#1A1A1A"/>
<path d="M86.9925 82.8227C84.2521 82.8227 81.5685 82.0583 79.1652 80.5129C73.878 77.1082 71.4247 70.8831 71.665 61.487C71.6717 61.1599 71.9353 60.8929 72.2725 60.9095C72.5996 60.9196 72.8566 61.1899 72.8466 61.5171C72.6129 70.5894 74.8259 76.3105 79.806 79.5182C84.923 82.816 91.4519 82.2286 96.8459 77.9928C101.756 74.1343 105.261 67.9024 106.225 61.3201C106.272 60.9963 106.572 60.7693 106.896 60.8194C107.22 60.8661 107.444 61.1666 107.397 61.4903C106.392 68.3663 102.721 74.882 97.5802 78.9208C94.2891 81.5076 90.5941 82.8194 86.9992 82.8194L86.9925 82.8227Z" fill="#1A1A1A"/>
</svg>
