<svg width="713" height="661" viewBox="0 0 713 661" fill="none" xmlns="http://www.w3.org/2000/svg">
<path d="M156.984 100.797C182.439 118.85 212.611 124.129 242.026 129.681C269.913 134.949 300.079 104.933 303.866 71.7941C305.15 60.5847 306.324 49.3662 307.386 38.1385C308.419 27.2136 309.239 16.2729 310.597 -8.98919e-05C349.146 31.6974 357.029 91.4124 414.513 93.0562C463.653 94.4626 500.974 63.3623 542.556 43.715C539.417 53.2267 537.161 59.3514 535.424 68.131C519.265 149.802 526.008 200.328 604.097 236.036C639.299 252.136 676.211 262.554 712.747 277.541C679.378 278.166 645.939 277.737 612.647 279.624C525.517 284.572 498.186 333.951 537.955 411.941C548.548 432.721 556.922 454.635 566.313 476.035L566.644 475.803C545.437 462.376 525.4 446.396 502.79 436C430.792 402.908 388.039 425.109 355.334 507.564C336.1 556.048 323.764 607.767 313.573 660.672C312.536 633.094 312.101 605.47 310.274 577.939C308.605 552.873 305.855 527.859 302.806 502.92C290.085 398.665 240.602 367.786 125.303 372.267C81.9711 373.949 38.815 380.037 -5.3446 380.597C39.7098 360.586 86.3527 345.929 130.992 325.92C222.039 285.104 210.435 236.878 180.073 171.378C169.706 149.023 151.515 130.286 136.921 109.915C143.623 106.886 150.308 103.843 156.984 100.797Z" fill="#EFB5D4"/>
</svg>
