<svg width="100" height="178" viewBox="0 0 100 178" fill="none" xmlns="http://www.w3.org/2000/svg">
<path d="M47.7217 133.59C44.8642 149.563 40.6285 173.273 40.6285 173.273L21.7017 177.78C21.7638 177.415 20.8902 166.156 32.456 169.41C33.5469 162.755 34.4981 156.97 35.3406 151.912C34.8398 151.768 34.4205 151.597 34.0749 151.349C32.7006 150.394 33.4343 148.798 35.4027 147.691C35.624 147.567 35.857 147.443 36.1054 147.346C37.0062 141.903 37.74 137.442 38.3456 133.792C40.908 133.062 43.7694 132.282 44.2081 132.445C45.334 132.872 46.5104 133.257 47.7217 133.587V133.59Z" fill="#1A1A1A"/>
<path d="M72.9844 174.282C72.9844 174.282 57.9206 173.436 57.61 173.498C56.8258 171.875 55.1447 150.79 53.98 134.872C56.8724 135.283 59.889 135.47 62.9134 135.423C63.0493 138.634 63.1969 142.365 63.3677 146.709C65.3594 147.35 65.6273 148.942 63.4919 150.429C63.6783 155.142 63.884 160.511 64.117 166.615C66.8192 165.9 68.9428 165.947 69.0943 166.009C75.5624 166.319 72.9844 174.282 72.9844 174.282Z" fill="#1A1A1A"/>
<path d="M63.7872 125.03C62.6457 125.03 61.5315 124.323 60.5958 122.945C57.8898 118.957 56.8299 109.053 60.5531 106.332C60.5531 106.332 60.5531 106.332 60.557 106.332L70.2398 99.3823C72.4489 97.9691 73.963 97.5381 74.9025 98.0312C75.4577 98.3224 75.6674 98.8621 75.679 99.2348C75.679 99.2658 75.679 99.2969 75.679 99.3319C75.4966 101.036 73.8194 103.113 72.2276 104.728L78.3696 102.962C81.9725 101.89 84.3679 101.708 85.4783 102.43C85.917 102.713 86.049 103.063 86.0878 103.23C86.4605 104.655 85.2026 105.687 84.399 106.076C83.9059 106.336 83.1915 106.666 82.3646 107.023C83.3352 106.813 84.003 106.67 84.0962 106.65C84.1311 106.642 84.1699 106.639 84.2048 106.635C85.1638 106.588 85.8432 106.837 86.2121 107.38C86.7362 108.153 86.3285 109.096 86.2781 109.201C85.9092 109.834 84.6979 110.552 83.1605 111.255C84.1777 111.033 85.0163 111.057 85.6336 111.329C86.0801 111.527 86.4256 111.954 86.5304 112.443C86.6236 112.878 86.5149 113.305 86.2353 113.619C86.0878 113.786 85.8743 113.969 85.587 114.178C84.9813 114.617 84.2825 114.982 83.506 115.261L65.4916 124.502C64.9286 124.855 64.354 125.033 63.7872 125.033V125.03ZM61.3606 107.442C58.5226 109.523 59.1477 118.363 61.7334 122.172C63.197 124.323 64.4161 123.558 64.816 123.306L82.9237 114.015C82.9508 114 82.978 113.988 83.0091 113.98C83.6768 113.743 84.2747 113.437 84.7872 113.068C85.059 112.87 85.1755 112.757 85.222 112.707C85.2065 112.707 85.1522 112.621 85.0901 112.59C84.8843 112.501 84.3757 112.385 83.308 112.637L74.3629 114.403C74.0057 114.473 73.6524 114.252 73.5631 113.895C73.4738 113.538 73.6835 113.177 74.0329 113.072C78.8782 111.624 84.4184 109.523 85.0512 108.607C85.1094 108.452 85.1366 108.234 85.0862 108.157C85.0435 108.098 84.8377 108.001 84.3407 108.009C83.6031 108.168 75.877 109.818 73.7495 110.447C73.3962 110.552 73.0196 110.358 72.9031 110.005C72.7866 109.651 72.9691 109.271 73.3146 109.143C73.3962 109.112 81.4017 106.118 83.7894 104.849C83.8205 104.833 84.9115 104.274 84.7756 103.606C84.6319 103.498 83.5332 102.857 78.7656 104.278L70.4727 106.662C70.0922 106.771 69.7001 106.604 69.5099 106.262C69.3235 105.924 69.3973 105.509 69.6846 105.253C71.7772 103.393 74.0717 100.858 74.3124 99.2658C74.3008 99.2541 74.2814 99.2464 74.2658 99.2387C74.1921 99.2076 73.4699 98.9592 71.024 100.516L61.3723 107.442H61.3606ZM84.7367 103.478C84.7367 103.478 84.7367 103.478 84.7367 103.482C84.7367 103.482 84.7367 103.482 84.7367 103.478Z" fill="#1A1A1A"/>
<path d="M21.7404 123.418C21.5385 123.418 21.3444 123.391 21.158 123.341C20.3699 123.123 19.8574 122.463 19.8108 121.617C19.741 120.242 20.2263 118.616 21.0765 117.37C21.2901 117.055 21.7171 116.977 22.0316 117.187C22.3461 117.401 22.4276 117.828 22.2141 118.142C21.5346 119.14 21.1309 120.475 21.1852 121.547C21.1969 121.799 21.3133 121.959 21.5269 122.017C21.7443 122.079 21.9889 122.028 22.1558 121.974C22.4703 121.877 22.7848 121.683 23.0954 121.407C24.2756 120.351 25.2229 118.884 26.1431 117.463C26.5352 116.857 26.9429 116.228 27.3583 115.65C28.0144 114.733 28.6705 113.817 29.3189 112.893C29.3888 112.796 29.4897 112.672 29.6062 112.536C29.7421 112.377 30.0216 112.047 30.0604 111.915C30.107 111.538 30.4526 111.29 30.8214 111.328C31.198 111.375 31.462 111.732 31.4193 112.109C31.361 112.586 30.9845 113.029 30.6545 113.421C30.569 113.522 30.4914 113.611 30.4409 113.681C29.7887 114.605 29.1326 115.525 28.4764 116.445C28.0804 117.001 27.6999 117.587 27.3 118.208C26.3333 119.703 25.3317 121.252 24.0155 122.432C23.5574 122.84 23.0721 123.131 22.5712 123.286C22.2878 123.376 22.0083 123.422 21.7404 123.422V123.418Z" fill="#1A1A1A"/>
<path d="M16.8912 122.087C16.4447 122.087 15.9982 121.947 15.6139 121.667C14.9344 121.178 14.5967 120.363 14.7364 119.548C14.9772 118.115 15.6372 116.57 16.6932 114.959C19.209 111.119 23.0914 108.316 27.63 107.062C38.2911 104.119 45.6444 111.235 45.955 111.538C46.2229 111.806 46.2268 112.237 45.9628 112.509C45.6949 112.781 45.2601 112.781 44.9922 112.517C44.9223 112.447 37.8757 105.664 27.9988 108.386C23.7825 109.546 20.1796 112.152 17.8463 115.708C16.8951 117.16 16.3049 118.527 16.0953 119.773C16.0448 120.076 16.1652 120.367 16.4214 120.549C16.6738 120.732 16.9882 120.759 17.2561 120.615C17.5434 120.464 17.8657 120.262 18.2073 120.025C19.5507 119.09 20.7425 117.867 21.7442 116.395L25.5529 110.812C25.7664 110.498 26.1935 110.42 26.508 110.63C26.8224 110.843 26.904 111.27 26.6904 111.585L22.8818 117.168C21.783 118.779 20.4747 120.122 18.9916 121.151C18.6033 121.419 18.2384 121.648 17.9006 121.827C17.5823 121.994 17.2367 122.079 16.8951 122.079L16.8912 122.087Z" fill="#1A1A1A"/>
<path d="M28.5579 121.729C27.9872 121.729 27.5174 121.454 27.2262 120.922C26.838 120.429 25.5801 118.231 28.9656 113.394C29.183 113.083 29.61 113.006 29.9245 113.223C30.2351 113.44 30.3128 113.868 30.0953 114.182C27.0865 118.484 28.3017 120.064 28.3172 120.079C28.3482 120.118 28.3948 120.184 28.4181 120.231C28.4725 120.336 28.5152 120.425 28.8879 120.277C29.3227 120.099 29.6062 119.757 29.7692 119.497L32.0094 115.937C32.2113 115.615 32.6345 115.518 32.9567 115.719C33.2789 115.921 33.376 116.344 33.1702 116.667L30.9301 120.227C30.5457 120.84 30.0177 121.298 29.4043 121.547C29.1053 121.667 28.8219 121.729 28.5579 121.729Z" fill="#1A1A1A"/>
<path d="M32.5878 116.989C32.3005 116.989 32.0326 116.807 31.9356 116.519C31.8152 116.158 32.0093 115.77 32.3704 115.65L60.7393 106.231C61.1003 106.114 61.4886 106.308 61.6089 106.666C61.7293 107.027 61.5352 107.415 61.1741 107.535L32.8052 116.954C32.7353 116.977 32.6616 116.989 32.5878 116.989Z" fill="#1A1A1A"/>
<path d="M19.7642 136.972C15.2024 136.972 11.4442 136.327 8.38484 135.023C3.84629 133.09 1.02763 129.949 0.231736 125.938C-0.793225 120.743 1.62941 114.411 6.55621 109.407C11.8868 103.995 20.1408 99.1532 29.1985 96.1211C38.7143 92.9336 50.0122 90.9885 61.0033 90.6468C63.2318 90.5769 65.4643 90.573 67.6423 90.6352C73.8386 90.8137 82.6052 91.8776 89.1665 95.9347C95.4405 99.8133 98.8842 106.278 98.3872 113.227C97.8126 121.225 92.3578 128.225 83.7932 131.948C72.0411 137.061 55.6961 137.539 44.0255 133.117C43.3189 133.105 39.8907 134.076 37.8214 134.666C36.2412 135.112 34.995 135.469 34.4631 135.563C31.9046 136.017 29.2917 136.289 26.7681 136.549L26.1003 136.619C23.8369 136.855 21.7287 136.976 19.772 136.976L19.7642 136.972ZM61.046 92.0212C50.1869 92.3629 39.0288 94.2807 29.6372 97.4255C20.9095 100.349 12.6477 105.187 7.53846 110.373C2.99214 114.986 0.654924 120.988 1.58282 125.67C2.29331 129.265 4.76252 131.983 8.92448 133.757C13.0787 135.528 18.65 136.013 25.9528 135.248L26.6206 135.178C29.1209 134.918 31.7104 134.646 34.2224 134.204C34.6844 134.122 36.0238 133.742 37.4409 133.338C42.5851 131.878 43.8935 131.595 44.4564 131.804C55.8242 136.133 71.7771 135.671 83.2458 130.682C91.3329 127.165 96.4809 120.6 97.0167 113.122C97.4787 106.693 94.2757 100.702 88.4443 97.0956C82.1431 93.1976 73.6329 92.1726 67.6035 92.0018C65.4565 91.9397 63.2513 91.9435 61.0499 92.0134L61.046 92.0212Z" fill="#1A1A1A"/>
<path d="M56.0221 102.717L5.95828 85.2231L4.92944 33.7849L43.9517 0L88.9956 24.8747L99.6218 75.3889L56.0221 102.717Z" fill="#86C9FF"/>
<path d="M33.5703 46.826C32.887 46.826 32.2309 46.7212 31.5942 46.5115C27.9796 45.3235 26.3801 41.115 25.9802 39.8532C25.8637 39.4921 26.054 39.0884 26.415 38.968C26.7761 38.8515 27.1527 39.0262 27.273 39.3834C27.273 39.3834 27.2886 39.43 27.2886 39.4339C27.6419 40.5404 29.0279 44.2209 32.0251 45.207C33.9896 45.8515 36.323 45.207 38.963 43.293C39.2698 43.0678 39.7007 43.1377 39.922 43.4444C40.1433 43.7512 40.0773 44.1821 39.7706 44.4034C37.5498 46.0146 35.4727 46.8221 33.5742 46.8221L33.5703 46.826Z" fill="#1A1A1A"/>
<path d="M56.8957 48.8644C56.5463 48.8644 56.2086 48.8216 55.8708 48.7401C53.1919 48.0762 52.1009 44.9974 52.0544 44.8654C51.9301 44.5044 52.1204 44.1161 52.4814 43.9919C52.8386 43.8677 53.2307 44.0579 53.355 44.4151C53.3627 44.4384 54.2557 46.927 56.2086 47.4084C57.5985 47.7462 59.2562 47.0241 61.1431 45.2576C61.4188 45.0013 61.8575 45.013 62.1137 45.2887C62.3738 45.5643 62.3583 45.9991 62.0827 46.2593C60.2308 47.9908 58.4914 48.8644 56.8957 48.8644Z" fill="#1A1A1A"/>
<path d="M47.429 37.5191L44.8301 37.3396L43.4354 57.5383L46.0343 57.7178L47.429 37.5191Z" fill="#1A1A1A"/>
<path d="M48.3001 64.1765C48.0982 65.5587 47.376 66.9136 46.2695 67.7833C45.1708 68.6491 43.7382 68.8975 42.5191 68.1133C41.1875 67.2552 40.9506 65.6596 40.9894 64.1959L48.3001 64.1765Z" fill="#1A1A1A"/>
<path d="M41.5564 133.695C41.2575 133.695 40.9818 133.501 40.8964 133.198C40.7916 132.833 41.0012 132.453 41.3661 132.348C41.5253 132.301 57.4355 127.674 63.9696 123.675C64.2958 123.477 64.7151 123.578 64.9131 123.904C65.1111 124.226 65.0101 124.649 64.684 124.847C57.9907 128.939 42.4028 133.478 41.7427 133.668C41.6806 133.687 41.6146 133.695 41.5525 133.695H41.5564Z" fill="#1A1A1A"/>
</svg>
